<svg width="627" height="627" preserveAspectRatio="xMidYMid meet" viewBox="0 0 512 512" version="1.1" xmlns="http://www.w3.org/2000/svg" ><path fill="rgb(255,255,255)" stroke="rgb(255,255,255)" stroke-width="0" opacity="1" d="M 0 0 L 512 0 L 512 512 L 0 512 L 0 0 Z M 254 3 L 245 5 L 237 11 L 228 7 Q 215 5 210 10 Q 203 13 202 20 L 199 19 Q 190 19 186 23 Q 177 27 177 38 L 174 38 L 168 41 Q 158 47 159 62 L 156 63 Q 148 67 146 77 Q 144 87 149 91 L 149 93 L 144 100 L 143 105 Q 143 117 151 122 L 149 125 Q 148 133 151 138 Q 154 144 161 145 Q 160 153 163 158 Q 167 166 178 166 L 180 172 L 185 175 L 186 183 L 193 187 Q 202 188 205 182 L 206 186 Q 215 198 231 205 L 229 207 L 214 212 L 205 218 Q 181 241 171 278 Q 169 292 175 299 Q 181 306 191 310 Q 188 311 190 318 L 194 321 L 202 325 L 193 364 L 191 383 Q 198 389 209 391 L 209 409 L 210 410 L 210 433 L 194 451 L 189 461 Q 188 468 191 471 Q 195 475 202 476 L 213 476 L 221 474 Q 232 469 241 461 Q 246 458 247 451 Q 248 442 245 437 L 247 417 L 250 403 L 250 397 L 265 397 L 264 399 L 265 400 L 265 414 L 266 415 L 266 429 L 267 430 L 267 435 L 264 444 L 265 454 L 267 457 Q 280 467 299 471 Q 312 473 321 469 L 326 463 Q 327 455 324 452 Q 314 440 301 433 L 300 431 L 304 393 L 323 384 L 325 381 L 323 365 L 320 354 L 320 348 L 315 325 L 318 323 Q 317 330 321 335 L 322 344 Q 323 348 330 347 L 332 344 L 333 344 L 331 348 Q 330 354 335 355 L 341 354 L 347 347 L 350 337 Q 351 322 345 315 L 347 312 L 347 308 L 342 290 L 327 242 L 317 223 L 308 214 L 289 206 L 296 203 L 310 193 Q 318 185 324 173 L 326 174 Q 333 175 336 172 L 339 167 L 338 157 Q 344 158 348 154 Q 355 149 354 137 L 358 136 L 363 130 L 365 123 L 363 115 L 369 104 Q 370 91 363 86 L 365 81 Q 367 68 361 63 L 353 58 Q 354 49 350 44 Q 346 35 334 35 L 332 28 L 325 20 L 315 17 L 309 18 L 306 15 Q 301 7 290 5 L 280 6 L 273 10 L 271 10 L 264 5 L 254 3 Z M 236 491 L 226 497 L 220 494 Q 208 493 203 497 Q 196 500 195 507 L 188 508 L 200 508 L 202 503 L 210 499 Q 221 497 226 503 Q 229 504 228 502 L 236 496 L 247 497 L 254 504 L 259 501 Q 267 500 271 503 L 273 507 Q 274 509 279 508 L 277 503 L 268 496 Q 258 494 255 498 L 245 491 L 236 491 Z " /><path fill="rgb(255,255,255)" stroke="rgb(255,255,255)" stroke-width="0" opacity="1" d="M 252.5 8 L 260.5 9 L 271.5 17 Q 276.7 9.8 289.5 10 Q 298.8 11.8 303 18.5 L 305.5 24 L 314.5 22 L 319.5 23 L 326 27.5 L 329 32.5 Q 327.5 38.5 330.5 40 L 338.5 40 L 346 46.5 Q 349 49.5 348 56.5 L 347 61 L 357 65.5 Q 361.7 69.3 360 79.5 L 357 86.5 Q 364.4 90.1 364 101.5 Q 362.3 108.3 357 111.5 L 357 113.5 L 360 121.5 Q 358.8 129.3 353.5 133 L 349 134 Q 350.8 146.4 343.5 151 L 341.5 152 L 341 150.5 L 342 149.5 L 342 136.5 Q 340.5 130 335.5 127 L 331 126 L 331 119.5 L 332 118.5 L 332 100.5 L 330 90.5 L 323 73.5 L 305.5 54 Q 287.3 38.2 253.5 38 L 231.5 42 L 215.5 49 Q 201.5 57 192 69.5 L 180 91.5 L 177 105.5 L 177 121.5 L 179 132.5 L 183 141.5 Q 173.6 146 176 161 Q 169.9 160.2 167 154.5 Q 164.3 150.7 166 142.5 L 164.5 141 L 157 137.5 Q 153 134 154 125.5 L 156 118.5 L 151 114.5 L 148 105.5 L 149 100.5 L 155 93.5 L 155 91.5 Q 149.5 87.5 151 76.5 L 156.5 68 L 165 65 Q 163.2 61.2 164 53.5 L 170.5 45 Q 173.4 42.4 179.5 43 L 181 41.5 Q 181.3 30.8 188.5 27 L 192.5 25 L 205 25 Q 206.1 18.4 211.5 15 Q 216.3 10.8 226.5 12 L 237.5 17 L 243.5 11 L 252.5 8 Z " /><path fill="rgb(255,255,255)" stroke="rgb(255,255,255)" stroke-width="0" opacity="1" d="M 252.5 43 L 271.5 44 L 290.5 50 Q 304.5 57 314 68.5 L 324 86.5 L 326 95.5 L 325 95.5 Q 319.8 79.2 307.5 70 Q 296.2 60.3 279.5 56 L 267.5 55 L 266.5 54 L 256.5 54 L 255.5 55 L 241.5 56 L 229.5 60 Q 212.6 67.1 201 79.5 Q 192.9 87.9 188 99.5 L 184 112.5 L 182.5 126 L 182 103.5 L 184 94.5 L 190 80.5 Q 196.8 69.3 206.5 61 L 226.5 49 L 238.5 45 L 251.5 44 L 252.5 43 Z " /><path fill="rgb(255,255,255)" stroke="rgb(255,255,255)" stroke-width="0" opacity="1" d="M 252.5 59 Q 292.1 57.9 310 78.5 Q 326.5 94.2 326 126 Q 322 127.4 324 120.5 Q 320.9 115.1 321 106.5 L 318.5 104 Q 316.3 104.8 317 102.5 L 315 100.5 L 314 92 Q 307.8 92.8 305 88.5 L 301.5 81 L 295.5 82 L 289 77.5 L 288 74 L 282.5 76 L 277.5 76 L 273 72.5 Q 273.8 69.9 270.5 71 Q 268.6 74.6 262.5 74 L 255 71 L 251.5 77 L 243.5 78 L 240.5 76 L 235.5 83 Q 233.2 85.7 227.5 85 L 223.5 84 L 218.5 92 L 210.5 93 L 209 94.5 Q 210.6 105.6 203.5 108 Q 199.8 107.3 199 109.5 L 200 118.5 L 195.5 125 Q 192.5 124.1 194 128.5 L 195 129.5 L 195 138.5 L 194 142 L 189 141 L 187 124.5 L 188 123.5 L 189 110.5 L 194 97.5 Q 200.6 84.6 211.5 76 L 229.5 65 L 252.5 59 Z " /><path fill="rgb(255,255,255)" stroke="rgb(255,255,255)" stroke-width="0" opacity="1" d="M 270.5 76 L 275.5 80 L 285.5 80 L 289.5 84 Q 292.2 86.8 298.5 86 L 300 87.5 L 304.5 94 L 310 96 Q 309.8 104.4 315.5 108 Q 318.3 107.4 317 113.5 L 320 123.5 L 321 136.5 L 322 137.5 L 322 161.5 Q 317.4 182.4 302.5 193 L 281.5 204 L 274.5 206 L 258.5 207 Q 256.7 204.3 250.5 206 L 233.5 201 Q 219.6 195.4 211 184.5 L 205 175.5 L 197.5 155 L 195.5 156 Q 193.9 151.1 186.5 152 L 184 156 L 188.5 155 L 192 157.5 L 190 162.5 L 193 164 Q 191.5 160.2 194.5 161 Q 198 162.3 197 167 Q 189.5 166 186.5 171 Q 179.3 166.2 180 153.5 L 184.5 146 L 189.5 145 L 199 151 L 198 140.5 L 199 139.5 L 199 127.5 L 204 120.5 L 204 112.5 L 205.5 111 L 212 105.5 L 213 98 Q 220.6 97.8 224 92.5 L 225 89 Q 236 90.8 240 84.5 L 241.5 82 L 247.5 83 L 259.5 77 Q 261.3 79.8 267.5 78 L 270.5 76 Z M 289 103 L 283 108 Q 282 111 285 112 Q 291 114 293 111 L 300 112 L 307 115 L 308 113 L 307 111 Q 303 105 297 103 L 289 103 Z M 226 110 L 220 113 L 213 121 Q 212 124 215 125 L 225 119 L 236 118 Q 238 117 237 113 Q 234 108 226 110 Z M 296 123 L 289 126 Q 283 130 282 138 Q 281 146 285 151 L 292 155 Q 299 156 302 153 L 306 146 Q 307 139 304 137 L 297 131 L 291 132 L 286 138 L 285 138 L 288 131 L 294 128 Q 302 126 305 130 L 309 138 Q 310 146 307 150 L 309 150 L 312 144 L 312 135 Q 315 133 314 130 L 311 131 L 308 127 Q 304 123 296 123 Z M 226 131 L 218 136 L 215 136 Q 216 141 214 143 L 211 142 L 216 156 L 221 160 L 217 153 Q 216 143 220 140 L 228 135 L 233 135 L 239 138 L 243 145 L 243 147 L 241 144 Q 238 139 233 138 L 228 139 Q 222 141 221 148 Q 220 155 224 159 L 230 162 Q 240 163 242 157 Q 241 152 245 154 L 246 150 L 243 139 L 234 131 L 226 131 Z M 274 153 L 272 155 L 275 156 Q 278 157 277 163 L 272 167 Q 262 169 260 164 L 257 166 L 262 170 L 266 171 L 271 171 L 279 167 L 281 163 L 280 158 L 274 153 Z M 284 172 L 285 175 L 281 183 Q 278 189 270 190 Q 260 191 256 187 L 251 181 L 257 183 Q 262 184 263 182 L 262 180 L 250 177 L 248 177 L 248 173 L 246 173 L 241 178 L 241 179 L 245 179 L 247 184 Q 252 192 263 194 L 271 194 L 281 189 L 287 179 L 291 176 Q 290 171 284 172 Z " /><path fill="rgb(255,255,255)" stroke="rgb(255,255,255)" stroke-width="0" opacity="1" d="M 328.5 130 Q 333.6 129.4 335 132.5 Q 338.9 136.6 338 145.5 L 335 155 L 327 154 L 327.5 146 L 329.5 150 L 331 147.5 L 330 144 Q 327.3 145.1 328 142.5 Q 329.3 139 334 140 L 332.5 137 L 330.5 136 L 326.5 139 L 325 132.5 L 328.5 130 Z " /><path fill="rgb(255,255,255)" stroke="rgb(255,255,255)" stroke-width="0" opacity="1" d="M 292 136 Q 295.8 135 297 137.5 L 296 140 L 292 138.5 L 292 136 Z " /><path fill="rgb(255,255,255)" stroke="rgb(255,255,255)" stroke-width="0" opacity="1" d="M 229 143 Q 234.2 140.9 233 145.5 L 230.5 147 L 229 143 Z " /><path fill="rgb(255,255,255)" stroke="rgb(255,255,255)" stroke-width="0" opacity="1" d="M 326 158 Q 332.3 156.5 334 160.5 L 335 164.5 L 332.5 169 L 326.5 170 L 324 168.5 Q 326.9 164.6 326 158 Z " /><path fill="rgb(255,255,255)" stroke="rgb(255,255,255)" stroke-width="0" opacity="1" d="M 192.5 171 Q 198.8 169.8 200 173.5 L 201 179.5 Q 199.8 184.3 192.5 183 Q 188.1 181.4 189 174.5 L 192.5 171 Z " /><path fill="rgb(255,255,255)" stroke="rgb(255,255,255)" stroke-width="0" opacity="1" d="M 236.5 206 L 239 207 L 242 223.5 L 250 247 L 233.5 243 L 231 240.5 L 230 238.5 L 236 231.5 L 236 229.5 L 229.5 227 L 227 224.5 Q 228 214 233.5 208 L 236.5 206 Z " /><path fill="rgb(255,255,255)" stroke="rgb(255,255,255)" stroke-width="0" opacity="1" d="M 282 208 L 285.5 208 L 291 213.5 L 296 222.5 L 296 226 L 290 229.5 L 292.5 234 L 296 236.5 L 297 240.5 Q 291.3 259.8 282 275.5 L 282 279 L 285 277.5 L 296 255.5 L 300 244.5 L 301 237.5 L 296 230.5 L 301 224.5 L 295 213.5 L 296.5 214 Q 306.1 216.9 312 223.5 L 317 230.5 L 324 246.5 L 343 309.5 L 335.5 315 L 321 318 L 321 313.5 L 313 284.5 L 312 273.5 L 313 272.5 L 314 257.5 L 313 256.5 L 313 248.5 L 310 239 Q 307.3 237.9 308 240.5 L 308 242.5 L 309 266.5 L 308 267.5 L 308 283.5 L 310 287.5 L 317 318 L 302.5 324 L 288.5 325 L 286 324 L 284 318.5 L 283 305.5 L 282 304.5 L 281 267.5 L 282 266.5 L 282 255.5 L 283 254.5 L 284 219.5 L 282 208 Z " /><path fill="rgb(255,255,255)" stroke="rgb(255,255,255)" stroke-width="0" opacity="1" d="M 245 209 L 254.5 211 L 270.5 211 L 276.5 209 L 279 215.5 L 279 222.5 Q 273.1 228.1 261.5 228 L 250.5 225 L 246 221.5 L 244 213.5 L 245 209 Z " /><path fill="rgb(255,255,255)" stroke="rgb(255,255,255)" stroke-width="0" opacity="1" d="M 225.5 212 L 226 213.5 L 222 225.5 L 223 228 L 231 231.5 Q 226.6 233.6 226 239.5 L 226.5 241 L 217.5 238 L 213.5 238 L 204 243.5 L 199 272 Q 193.6 270.5 192 273.5 Q 206.1 281.7 224 285 L 220 295.5 L 219 309.5 L 220 312 L 193.5 306 Q 183.5 302.5 178 294.5 L 176 290.5 L 176 276.5 Q 186.2 240.7 210.5 219 L 225.5 212 Z " /><path fill="rgb(255,255,255)" stroke="rgb(255,255,255)" stroke-width="0" opacity="1" d="M 279.5 227 L 279 228.5 L 279 248.5 L 278 249.5 L 278 261.5 L 277 262.5 L 277 291 L 264 292 L 264 287.5 L 261 283.5 L 261 280.5 L 266 259.5 L 266 254.5 L 263.5 251 L 256.5 249 L 254 246.5 Q 252.5 236 248 228.5 L 249.5 229 L 259.5 232 L 267.5 232 L 272.5 231 L 279.5 227 Z " /><path fill="rgb(255,255,255)" stroke="rgb(255,255,255)" stroke-width="0" opacity="1" d="M 215.5 242 L 254.5 252 L 260 254.5 L 254.5 256 L 213 243.5 L 215.5 242 Z " /><path fill="rgb(255,255,255)" stroke="rgb(255,255,255)" stroke-width="0" opacity="1" d="M 208 246 L 247.5 256 L 255 259.5 L 252 275 L 242.5 276 L 228.5 283 L 203 274 L 208 246 Z " /><path fill="rgb(255,255,255)" stroke="rgb(255,255,255)" stroke-width="0" opacity="1" d="M 261.5 256 L 262 258.5 L 258 273.5 L 257 282.5 L 255.5 284 Q 252.8 284.6 254 278.5 L 258 258.5 L 259.5 257 L 261.5 256 Z " /><path fill="rgb(255,255,255)" stroke="rgb(255,255,255)" stroke-width="0" opacity="1" d="M 245.5 279 Q 250 278 251 280.5 L 247.5 285 L 245 286.5 L 245.5 288 L 256.5 288 L 258.5 287 L 260 290.5 L 252 295.5 Q 251.4 298.3 257.5 297 L 259 296.5 Q 259.5 301.5 255.5 302 Q 251.8 301.3 251 303.5 Q 252.4 306.1 257 305.5 L 249 310.5 L 249 312 L 253 312 L 253 314 L 243.5 316 L 231.5 313 L 223 307.5 L 225 293.5 L 228.5 288 L 245.5 279 Z " /><path fill="rgb(255,255,255)" stroke="rgb(255,255,255)" stroke-width="0" opacity="1" d="M 273.5 295 Q 279.2 293.2 277 299.5 L 278 300.5 L 278 309.5 L 280 320.5 L 284.5 328 L 292.5 330 L 311 326 L 317 356.5 L 320 379.5 L 310.5 385 L 285.5 391 Q 279.3 389.3 277.5 392 L 237.5 392 L 236.5 391 L 229.5 391 L 213.5 388 L 201.5 384 L 196 380.5 L 196 372.5 L 206.5 325 Q 220.8 331.7 238.5 335 Q 240.4 331.4 246.5 332 L 250 328.5 L 252 318 L 257 314.5 Q 257.4 309.4 261 307.5 L 261 302.5 Q 264.3 301.1 263 296 L 272.5 296 L 273.5 295 Z " /><path fill="rgb(255,255,255)" stroke="rgb(255,255,255)" stroke-width="0" opacity="1" d="M 195 311 L 209.5 315 L 222.5 316 L 225.5 314 L 236.5 319 L 241 319 L 239 330 Q 214 325.8 194 315.5 L 195 311 Z " /><path fill="rgb(255,255,255)" stroke="rgb(255,255,255)" stroke-width="0" opacity="1" d="M 339.5 317 Q 342.8 315.9 342 318.5 Q 346.5 325 345 337.5 L 342 346.5 L 338.5 350 L 336.5 351 L 335 347.5 L 337 344.5 L 338 338.5 L 334 337 L 334 329.5 L 332.5 329 L 331 330.5 L 331 335.5 L 329 343 Q 325.2 344.5 326 341.5 Q 323.3 339.8 325 333.5 L 323 329.5 L 323 322 L 334.5 320 L 339.5 317 Z " /><path fill="rgb(255,255,255)" stroke="rgb(255,255,255)" stroke-width="0" opacity="1" d="M 246.5 319 L 247 324.5 L 244.5 328 Q 241.1 328.9 243 323.5 L 244 320 L 246.5 319 Z " /><path fill="rgb(255,255,255)" stroke="rgb(255,255,255)" stroke-width="0" opacity="1" d="M 214.5 392 L 225.5 395 L 242.5 396 L 246 397.5 L 244 404.5 L 240 438.5 L 233.5 446 L 224.5 452 L 217.5 454 L 211.5 454 L 204 449.5 L 204 446.5 L 214 434.5 L 214.5 392 Z " /><path fill="rgb(255,255,255)" stroke="rgb(255,255,255)" stroke-width="0" opacity="1" d="M 295.5 393 L 300 393.5 L 299 394.5 L 298 411.5 L 296 420.5 L 296 433.5 L 309 444.5 L 307.5 448 Q 303.2 451.7 293.5 450 Q 279.9 447.1 272 438.5 L 271 436.5 L 271 421.5 L 270 420.5 L 270 406.5 L 269 405.5 L 269 397 L 288.5 395 L 295.5 393 Z " /><path fill="rgb(255,255,255)" stroke="rgb(255,255,255)" stroke-width="0" opacity="1" d="M 269.5 441 Q 275.7 448.3 285.5 452 L 293.5 454 L 303.5 454 Q 309.3 452.8 312 448.5 Q 311.3 446.3 313.5 447 Q 320.8 450.7 322 460.5 L 319.5 464 L 311.5 467 L 303.5 467 L 287.5 463 L 273.5 456 L 270 452.5 Q 267.3 448.6 269.5 441 Z " /><path fill="rgb(255,255,255)" stroke="rgb(255,255,255)" stroke-width="0" opacity="1" d="M 241.5 443 L 242 451.5 L 234.5 460 L 220.5 469 L 209.5 472 L 203.5 472 Q 196.9 471.1 194 466.5 L 194 459.5 L 200.5 450 L 203.5 455 L 207.5 457 L 216.5 458 Q 233.3 454.8 241.5 443 Z " /><path fill="rgb(0,0,0)" stroke="rgb(0,0,0)" stroke-width="0" opacity="1" d="M 253.5 3 L 263.5 5 L 270.5 10 L 272.5 10 L 279.5 6 L 289.5 5 Q 300.8 6.7 306 14.5 L 308.5 18 L 314.5 17 L 324.5 20 L 332 27.5 L 334 35 Q 345.6 35.1 350 43.5 Q 354 48.9 353 58 L 361 62.5 Q 367 67.5 365 80.5 L 363 85.5 Q 370 90.5 369 103.5 L 363 114.5 L 365 122.5 L 363 129.5 L 357.5 136 L 354 137 Q 354.7 148.9 347.5 154 Q 344.1 157.7 338 157 L 339 166.5 L 336 172 Q 333.1 174.9 325.5 174 L 323.5 173 Q 318.3 184.8 309.5 193 L 295.5 203 L 289 205.5 L 307.5 214 L 317 222.5 L 327 241.5 L 342 289.5 L 347 307.5 L 347 311.5 L 345 314.5 Q 350.7 322.3 350 336.5 L 347 346.5 L 340.5 354 L 334.5 355 Q 330 354 331 347.5 L 332 345.5 L 329.5 347 Q 323 348 322 343.5 L 321 334.5 Q 317.3 330.2 318 323 L 315 324.5 L 320 347.5 L 320 353.5 L 323 364.5 L 325 380.5 L 322.5 384 L 304 392.5 L 300 430.5 L 301 433 Q 314.2 440.1 324 451.5 Q 327.2 454.8 326 462.5 L 320.5 469 Q 312.5 473 298.5 471 Q 279.8 466.7 267 456.5 L 265 453.5 L 264 443.5 L 267 434.5 L 267 429.5 L 266 428.5 L 266 414.5 L 265 413.5 L 265 399.5 L 264 398.5 L 264.5 397 L 250 397 L 250 402.5 L 247 416.5 L 245 436.5 Q 248 441.5 247 450.5 Q 245.9 457.9 240.5 461 Q 232.1 469.1 220.5 474 L 212.5 476 L 201.5 476 Q 194.8 474.8 191 470.5 Q 188 467.5 189 460.5 L 194 450.5 L 210 432.5 L 210 409.5 L 209 408.5 L 209 391 Q 198.2 389.2 191 382.5 L 193 363.5 L 202 324.5 L 193.5 321 L 190 317.5 Q 188.3 311.3 191 309.5 Q 180.9 306.1 175 298.5 Q 169.2 291.8 171 277.5 Q 181.2 241.2 204.5 218 L 213.5 212 L 228.5 207 L 231 204.5 Q 215.4 198.1 206 185.5 L 204.5 182 Q 202.4 188.4 192.5 187 L 186 182.5 L 185 175 L 180 171.5 L 178 166 Q 167.2 165.6 163 157.5 Q 159.5 153.3 161 145 Q 154.2 144 151 137.5 Q 147.9 133.1 149 124.5 L 151 121.5 Q 143.3 116.7 143 104.5 L 144 99.5 L 149 92.5 L 149 90.5 Q 144.3 86.7 146 76.5 Q 148.4 67.4 155.5 63 L 159 62 Q 157.8 46.6 167.5 41 L 173.5 38 L 177 38 Q 177.4 27.2 185.5 23 Q 190.2 19.2 198.5 19 L 202 20 Q 203.1 13.2 209.5 10 Q 215.4 5.3 227.5 7 L 236.5 11 L 244.5 5 L 253.5 3 Z M 253 8 L 244 11 L 238 17 L 227 12 Q 216 11 212 15 Q 206 18 205 25 L 193 25 L 189 27 Q 181 31 181 42 L 180 43 Q 173 42 171 45 L 164 54 Q 163 61 165 65 L 157 68 L 151 77 Q 150 87 155 92 L 155 94 L 149 101 L 148 106 L 151 115 L 156 119 L 154 126 Q 153 134 157 138 L 165 141 L 166 143 Q 164 151 167 155 Q 170 160 176 161 Q 174 146 183 142 L 179 133 L 177 122 L 177 106 L 180 92 L 192 70 Q 202 57 216 49 L 232 42 L 254 38 Q 287 38 306 54 L 323 74 L 330 91 L 332 101 L 332 119 L 331 120 L 331 126 L 336 127 Q 340 130 342 137 L 342 150 L 341 151 L 342 152 L 344 151 Q 351 146 349 134 L 354 133 Q 359 129 360 122 L 357 114 L 357 112 Q 362 108 364 102 Q 364 90 357 87 L 360 80 Q 362 69 357 66 L 347 61 L 348 57 Q 349 50 346 47 L 339 40 L 331 40 Q 327 38 329 33 L 326 28 L 320 23 L 315 22 L 306 24 L 303 19 Q 299 12 290 10 Q 277 10 272 17 L 261 9 L 253 8 Z M 253 43 L 252 44 L 239 45 L 227 49 L 207 61 Q 197 69 190 81 L 184 95 L 182 104 L 183 126 L 184 113 L 188 100 Q 193 88 201 80 Q 213 67 230 60 L 242 56 L 256 55 L 257 54 L 267 54 L 268 55 L 280 56 Q 296 60 308 70 Q 319 78 324 93 L 325 93 L 324 87 L 314 69 Q 305 57 291 50 L 272 44 L 253 43 Z M 253 59 L 230 65 L 212 76 Q 201 85 194 98 L 189 111 L 188 124 L 187 125 L 189 141 L 194 142 L 195 139 L 195 130 L 194 129 Q 192 124 196 125 L 200 119 L 199 110 Q 200 107 204 108 Q 211 106 209 95 L 211 93 L 219 92 L 224 84 L 228 85 Q 233 86 236 83 L 241 76 L 244 78 L 252 77 L 255 71 L 263 74 Q 269 75 271 71 Q 274 70 273 73 L 278 76 L 283 76 L 288 74 L 289 78 L 296 82 L 302 81 L 305 89 Q 308 93 314 92 L 315 101 L 317 103 Q 316 105 319 104 L 321 107 Q 321 115 324 121 Q 322 127 326 126 Q 327 94 310 79 Q 292 58 253 59 Z M 271 76 L 268 78 Q 261 80 260 77 L 248 83 L 242 82 L 240 85 Q 236 91 225 89 L 224 93 Q 221 98 213 98 L 212 106 L 206 111 L 204 113 L 204 121 L 199 128 L 199 140 L 198 141 L 199 151 L 190 145 L 185 146 L 180 154 Q 179 166 187 171 Q 189 166 197 167 Q 198 162 195 161 Q 192 160 193 164 L 190 163 L 192 158 L 189 155 L 184 156 L 187 152 Q 194 151 196 156 L 198 155 L 205 176 L 211 185 Q 220 195 234 201 L 251 206 Q 257 204 259 207 L 275 206 L 282 204 L 303 193 Q 317 182 322 162 L 322 138 L 321 137 L 320 124 L 317 114 Q 318 107 316 108 Q 310 104 310 96 L 305 94 L 300 88 L 299 86 Q 292 87 290 84 L 286 80 L 276 80 L 271 76 Z M 326 93 L 325 96 L 326 96 L 326 93 Z M 329 130 L 325 133 L 327 139 L 331 136 L 333 137 L 334 140 Q 329 139 328 143 Q 327 145 330 144 L 331 148 L 330 150 L 328 146 L 327 154 L 335 155 L 338 146 Q 339 137 335 133 Q 334 129 329 130 Z M 326 158 Q 327 165 324 169 L 327 170 L 333 169 L 335 165 L 334 161 Q 332 157 326 158 Z M 193 171 L 189 175 Q 188 181 193 183 Q 200 184 201 180 L 200 174 Q 199 170 193 171 Z M 237 206 L 234 208 Q 228 214 227 225 L 230 227 L 236 230 L 236 232 L 230 239 L 231 241 L 234 243 L 250 247 L 242 224 L 239 207 L 237 206 Z M 282 208 L 284 220 L 283 255 L 282 256 L 282 267 L 281 268 L 282 305 L 283 306 L 284 319 L 286 324 L 289 325 L 303 324 L 317 318 L 310 288 L 308 284 L 308 268 L 309 267 L 308 243 L 308 241 Q 307 238 310 239 L 313 249 L 313 257 L 314 258 L 313 273 L 312 274 L 313 285 L 321 314 L 321 318 L 336 315 L 343 310 L 324 247 L 317 231 L 312 224 Q 306 217 296 214 L 301 225 L 296 231 L 301 238 L 300 245 L 296 256 L 285 278 L 282 279 L 282 276 Q 291 260 297 241 L 296 237 L 293 234 L 290 230 L 296 226 L 296 223 L 291 214 L 286 208 L 282 208 Z M 245 209 L 244 214 L 246 222 L 251 225 L 262 228 Q 273 228 279 223 L 279 216 L 277 209 L 271 211 L 255 211 L 245 209 Z M 226 212 L 211 219 Q 186 241 176 277 L 176 291 L 178 295 Q 184 303 194 306 L 220 312 L 219 310 L 220 296 L 224 285 Q 206 282 192 274 Q 194 271 199 272 L 204 244 L 214 238 L 226 240 Q 226 234 231 232 L 223 228 L 222 226 L 226 214 L 226 212 Z M 278 228 L 273 231 L 268 232 L 260 232 L 249 229 L 254 247 L 257 249 L 264 251 L 266 255 L 266 260 L 261 281 L 261 284 L 264 288 L 264 292 L 277 291 L 277 263 L 278 262 L 278 250 L 279 249 L 279 229 L 278 228 Z M 216 242 L 213 244 L 255 256 L 260 255 L 255 252 L 216 242 Z M 208 246 L 203 274 L 229 283 L 243 276 L 252 275 L 255 260 L 248 256 L 208 246 Z M 262 256 L 260 257 L 258 259 L 254 279 Q 253 285 256 284 L 257 283 L 258 274 L 262 259 L 262 256 Z M 246 279 L 229 288 L 225 294 L 223 308 L 232 313 L 244 316 L 253 314 L 253 312 L 249 312 L 249 311 L 257 306 Q 252 306 251 304 Q 252 301 256 302 Q 260 302 259 297 L 258 297 Q 251 298 252 296 L 260 291 L 259 287 L 257 288 L 246 288 L 245 287 L 248 285 L 251 281 Q 250 278 246 279 Z M 274 295 L 273 296 L 263 296 Q 264 301 261 303 L 261 308 Q 257 309 257 315 L 252 318 L 250 329 L 247 332 Q 240 331 239 335 Q 221 332 207 325 L 196 373 L 196 381 L 202 384 L 214 388 L 230 391 L 237 391 L 238 392 L 278 392 Q 279 389 286 391 L 311 385 L 320 380 L 317 357 L 311 326 L 293 330 L 285 328 L 280 321 L 278 310 L 278 301 L 277 300 Q 279 293 274 295 Z M 195 311 L 194 316 Q 214 326 239 330 L 241 319 L 237 319 L 226 314 L 223 316 L 210 315 L 195 311 Z M 340 317 L 335 320 L 323 322 L 323 330 L 325 334 Q 323 340 326 342 Q 325 345 329 343 L 331 336 L 331 331 L 333 329 L 334 330 L 334 337 L 338 339 L 337 345 L 335 348 L 337 351 L 339 350 L 342 347 L 345 338 Q 347 325 342 319 Q 343 316 340 317 Z M 247 319 L 244 320 L 243 324 Q 241 329 245 328 L 247 325 L 247 319 Z M 215 392 L 214 435 L 204 447 L 204 450 L 212 454 L 218 454 L 225 452 L 234 446 L 240 439 L 244 405 L 246 398 L 243 396 L 226 395 L 215 392 Z M 296 393 L 289 395 L 269 397 L 269 406 L 270 407 L 270 421 L 271 422 L 271 437 L 272 439 Q 280 447 294 450 Q 303 452 308 448 L 309 445 L 296 434 L 296 421 L 298 412 L 299 395 L 300 394 L 296 393 Z M 270 441 Q 267 449 270 453 L 274 456 L 288 463 L 304 467 L 312 467 L 320 464 L 322 461 Q 321 451 314 447 Q 311 446 312 449 Q 309 453 304 454 L 294 454 L 286 452 Q 276 448 270 441 Z M 242 443 Q 233 455 217 458 L 208 457 L 204 455 L 201 450 L 194 460 L 194 467 Q 197 471 204 472 L 210 472 L 221 469 L 235 460 L 242 452 L 242 443 Z " /><path fill="rgb(0,0,0)" stroke="rgb(0,0,0)" stroke-width="0" opacity="1" d="M 288.5 103 L 296.5 103 Q 303.3 105.3 307 110.5 L 308 112.5 L 307 115 L 299.5 112 L 292.5 111 Q 290.7 113.8 284.5 112 Q 282.3 111.3 283 107.5 L 288.5 103 Z " /><path fill="rgb(0,0,0)" stroke="rgb(0,0,0)" stroke-width="0" opacity="1" d="M 225.5 110 Q 234.2 108.3 237 112.5 Q 238 117 235.5 118 L 224.5 119 L 214.5 125 Q 212.3 124.3 213 120.5 L 219.5 113 L 225.5 110 Z " /><path fill="rgb(0,0,0)" stroke="rgb(0,0,0)" stroke-width="0" opacity="1" d="M 295.5 123 Q 304 123.2 308 127 L 310.5 131 L 314 130 Q 314.8 133.4 312 134.5 L 312 143.5 L 309 150 L 307 149.5 Q 310.3 145.8 309 137.5 L 304.5 130 Q 301.6 126.4 293.5 128 L 288 131 L 286 135.5 L 290.5 132 L 296.5 131 L 304 136.5 Q 306.6 139.4 306 145.5 L 301.5 153 Q 298.9 156.4 291.5 155 L 285 150.5 Q 281.1 146.4 282 137.5 Q 283.2 129.7 288.5 126 L 295.5 123 Z M 292 136 L 292 139 L 296 140 L 297 138 Q 296 135 292 136 Z " /><path fill="rgb(0,0,0)" stroke="rgb(0,0,0)" stroke-width="0" opacity="1" d="M 225.5 131 L 233.5 131 L 243 138.5 L 246 149.5 L 245 154 Q 240.9 152.3 242 156.5 Q 239.9 163.4 229.5 162 L 224 158.5 Q 220.2 155.3 221 147.5 Q 222.4 141.4 227.5 139 L 232.5 138 Q 238.3 139.3 241 143.5 L 242.5 147 L 243 144.5 L 239 138 L 232.5 135 L 227.5 135 L 220 139.5 Q 215.8 143.3 217 152.5 L 221 159.5 L 216 155.5 L 211 142 L 213.5 143 Q 215.9 140.7 215 136 L 217.5 136 L 225.5 131 Z M 229 143 L 231 147 L 233 146 Q 234 141 229 143 Z " /><path fill="rgb(0,0,0)" stroke="rgb(0,0,0)" stroke-width="0" opacity="1" d="M 273.5 153 L 280 157.5 L 281 162.5 L 279 167 L 270.5 171 L 265.5 171 L 261.5 170 L 257 165.5 L 259.5 164 Q 262.3 168.7 271.5 167 L 277 162.5 Q 278 157 274.5 156 L 272 154.5 L 273.5 153 Z " /><path fill="rgb(0,0,0)" stroke="rgb(0,0,0)" stroke-width="0" opacity="1" d="M 284 172 Q 289.6 171 291 175.5 L 287 178.5 L 280.5 189 L 270.5 194 L 262.5 194 Q 251.8 191.7 247 183.5 L 245 179 L 241 179 L 241 177.5 L 245.5 173 L 248 173 L 248 177 L 249.5 177 L 261.5 180 L 263 181.5 Q 261.8 184.3 256.5 183 L 251.5 182 L 255.5 187 Q 259.9 191 269.5 190 Q 277.8 188.8 281 182.5 L 285 174.5 L 284 172 Z " /><path fill="rgb(0,0,0)" stroke="rgb(0,0,0)" stroke-width="0" opacity="1" d="M 235.5 491 L 244.5 491 L 254.5 498 Q 258 494 267.5 496 L 277 502.5 L 279 508 Q 274.4 509.3 273 506.5 L 270.5 503 Q 266.8 499.7 258.5 501 L 253.5 504 L 246.5 497 L 235.5 496 L 228 501.5 Q 228.8 504.1 225.5 503 Q 221.1 497.4 209.5 499 L 202 503 L 200 508 L 188 507.5 L 195 507 Q 196.1 500.2 202.5 497 Q 208 492.5 219.5 494 L 225.5 497 L 235.5 491 Z " /></svg>