<svg width="627" height="627" preserveAspectRatio="xMidYMid meet" viewBox="0 0 512 512" version="1.1" xmlns="http://www.w3.org/2000/svg" ><path fill="rgb(255,255,255)" stroke="rgb(255,255,255)" stroke-width="0" opacity="1" d="M 0 0 L 512 0 L 512 512 L 0 512 L 0 0 Z M 221 4 L 209 10 L 203 8 Q 188 6 182 12 L 177 18 L 176 19 L 168 19 L 160 23 Q 153 27 152 36 L 146 38 L 138 47 L 137 59 Q 132 61 131 68 Q 129 79 135 84 L 134 86 L 135 98 L 140 104 Q 139 111 142 115 L 146 119 Q 147 121 145 120 Q 140 123 138 130 Q 136 145 143 152 Q 147 158 157 160 Q 163 161 166 158 L 172 169 L 181 177 L 199 188 L 198 190 Q 176 194 163 208 L 140 233 L 131 251 Q 130 261 132 268 L 143 287 L 158 300 L 161 307 L 167 312 Q 174 314 179 320 L 178 340 L 176 350 L 176 358 L 175 359 L 175 367 L 174 368 L 174 378 L 173 379 L 171 403 L 170 404 L 169 421 L 168 422 Q 167 430 169 434 L 158 442 Q 151 447 149 458 L 150 468 L 160 474 L 169 476 L 186 475 L 200 469 Q 201 465 203 468 L 212 464 L 216 459 L 216 439 L 215 438 L 218 433 L 218 426 L 220 420 L 223 397 L 234 346 L 236 361 L 237 377 L 238 378 L 240 404 L 241 405 L 243 433 L 245 435 L 244 439 L 244 458 L 245 460 L 252 464 L 258 466 L 264 466 L 276 471 Q 280 470 282 472 L 298 472 L 310 468 L 315 461 Q 316 452 313 448 L 312 445 L 319 450 L 327 452 L 335 452 L 344 449 L 348 443 Q 347 437 349 436 L 351 407 L 353 397 L 353 389 L 354 388 L 354 380 L 355 379 L 355 369 L 356 368 L 356 359 L 358 349 L 358 341 L 359 340 L 359 331 L 360 330 L 360 321 L 361 320 L 366 265 L 372 263 L 375 260 L 379 250 L 380 230 L 381 229 Q 381 222 378 219 L 371 214 L 372 203 L 373 202 L 375 173 L 376 172 L 376 163 L 377 162 L 365 119 L 363 116 Q 364 113 361 114 L 357 118 L 337 159 L 333 207 L 332 208 L 332 217 L 331 219 L 328 220 Q 321 224 322 234 L 312 238 L 291 208 L 280 197 L 270 192 L 265 191 L 258 187 L 276 177 Q 292 166 296 142 L 307 139 Q 314 134 316 123 Q 317 111 313 106 Q 310 100 302 99 Q 301 92 305 89 L 305 78 L 304 77 L 306 70 L 306 64 L 302 56 Q 303 46 300 41 Q 297 36 292 35 L 290 28 L 284 21 L 276 18 L 271 18 Q 266 11 257 8 Q 246 7 242 11 Q 236 3 221 4 Z M 231 501 L 222 506 L 216 504 Q 206 503 202 506 L 201 508 L 227 508 L 231 506 Q 238 505 242 508 L 269 508 L 264 504 L 259 503 L 252 504 L 249 506 L 238 501 L 231 501 Z " /><path fill="rgb(255,255,255)" stroke="rgb(255,255,255)" stroke-width="0" opacity="1" d="M 221.5 9 L 228.5 9 Q 235.8 10.7 239.5 16 L 242.5 16 Q 246.3 11.8 255.5 13 L 264 17 L 268.5 24 L 275.5 23 Q 282.7 24.8 286 30.5 L 287 37.5 L 288.5 39 Q 294.1 39.5 296 43.5 Q 298.5 47 297 54.5 L 296 56.5 Q 302.1 59.4 301 69.5 L 298 75.5 Q 301.8 78.7 300 87.5 L 297 91.5 L 297 99.5 L 295.5 101 Q 292.1 101.9 294 96.5 L 291 84.5 L 286 75.5 L 285 68.5 L 286 66.5 L 280 60.5 L 275.5 48 L 270.5 48 L 262.5 43 Q 259.9 46.4 252.5 45 L 247.5 42 Q 245 46.5 236.5 45 Q 235.8 42.3 231.5 43 Q 229 47.5 220.5 46 L 215.5 44 Q 212.9 48.9 204.5 48 L 199.5 46 L 192.5 51 L 188.5 51 L 184.5 49 L 178.5 55 L 169 55 L 165.5 62 L 160 65.5 L 161 77.5 L 157 84.5 L 157 88.5 L 159 97.5 L 156 106.5 L 157 107.5 L 157 119 L 150 116.5 Q 144 112.5 145 101.5 L 140 96.5 L 139 86.5 L 140 82.5 Q 134.7 78.8 136 68.5 Q 137.5 62 143 59.5 L 142 58.5 L 142 50.5 L 148.5 42 L 157 38.5 Q 157.4 29.4 163.5 26 Q 169.1 22.4 179 24 L 184.5 16 Q 189.7 11.2 201.5 13 L 206.5 16 L 209.5 16 Q 213.6 10.6 221.5 9 Z " /><path fill="rgb(255,255,255)" stroke="rgb(255,255,255)" stroke-width="0" opacity="1" d="M 232.5 48 Q 236.1 50.9 243.5 50 L 249.5 48 Q 252.1 51.4 259.5 50 L 263.5 49 Q 266.8 53 273 53 L 274 59.5 L 278 66 L 281 67.5 L 282 78.5 L 287 86.5 L 291 106.5 Q 289.3 112.8 292 114.5 L 292 140.5 Q 288.3 159.3 276.5 170 Q 266.9 178.9 253.5 184 L 241.5 187 L 224.5 188 L 223.5 187 L 215.5 187 L 198.5 182 Q 183.7 176.3 175 164.5 Q 166.4 153.1 163 136.5 L 161 105.5 Q 164.8 100.8 163 90.5 L 162 85.5 Q 167 81.5 166 71.5 L 165 67 L 172 61.5 Q 171.4 58.8 177.5 60 L 185.5 55 Q 196.8 56.8 200.5 51 Q 203.2 53.8 209.5 53 L 217.5 49 Q 220.1 52.4 227.5 51 L 232.5 48 Z M 256 75 L 252 76 L 247 82 Q 247 85 250 86 Q 254 87 256 85 L 262 85 L 273 89 Q 275 88 274 84 Q 269 75 256 75 Z M 190 84 L 182 88 L 175 98 Q 174 102 178 102 L 188 95 L 200 93 L 202 91 L 200 85 Q 197 83 190 84 Z M 260 98 L 255 100 Q 249 103 247 111 Q 245 122 250 127 L 259 132 Q 264 133 267 130 L 271 124 Q 272 115 269 112 L 263 107 Q 256 106 254 109 L 252 112 L 250 113 L 252 108 L 260 102 Q 266 101 270 104 Q 274 108 276 115 Q 277 122 274 125 L 275 126 L 278 122 L 279 117 Q 279 110 276 106 Q 272 97 260 98 Z M 191 107 L 184 111 L 178 121 Q 177 131 182 136 L 185 137 L 181 129 L 181 124 L 183 118 L 192 111 Q 199 110 203 113 Q 207 116 209 123 L 209 132 L 207 122 Q 205 116 199 115 L 195 115 L 189 118 L 186 125 Q 185 131 188 135 L 195 140 L 203 139 L 207 134 L 209 134 L 211 131 Q 213 119 208 114 Q 204 106 191 107 Z M 235 129 L 235 131 Q 236 133 240 132 Q 244 133 243 141 L 237 145 Q 228 147 226 143 L 223 145 L 224 147 L 230 149 Q 238 150 242 147 L 247 141 L 246 134 Q 243 128 235 129 Z M 255 147 L 252 150 L 253 153 L 245 160 L 234 163 Q 223 163 216 159 L 211 155 L 212 154 Q 213 150 209 152 Q 204 153 205 158 L 209 158 Q 215 165 227 167 Q 243 168 251 161 L 256 155 L 256 153 L 260 153 L 260 152 L 255 147 Z " /><path fill="rgb(255,255,255)" stroke="rgb(255,255,255)" stroke-width="0" opacity="1" d="M 298.5 104 Q 307.1 102.9 309 108.5 Q 312.4 113.6 311 123.5 Q 308.9 131.9 302.5 136 L 297 137 L 297 122.5 L 299 122 L 300.5 125 Q 303.5 125.9 302 121.5 L 299 117.5 L 303.5 114 L 306 115 L 304.5 111 Q 297.5 110 296.5 115 L 295 107.5 L 298.5 104 Z " /><path fill="rgb(255,255,255)" stroke="rgb(255,255,255)" stroke-width="0" opacity="1" d="M 258.5 111 Q 261 112.2 260 116 L 256 114.5 Q 254.9 111.2 257.5 112 L 258.5 111 Z " /><path fill="rgb(255,255,255)" stroke="rgb(255,255,255)" stroke-width="0" opacity="1" d="M 194.5 120 L 198 121.5 L 196.5 124 L 193 122.5 L 194.5 120 Z " /><path fill="rgb(255,255,255)" stroke="rgb(255,255,255)" stroke-width="0" opacity="1" d="M 360.5 121 L 364 134 L 356.5 134 L 355 132.5 L 360.5 121 Z " /><path fill="rgb(255,255,255)" stroke="rgb(255,255,255)" stroke-width="0" opacity="1" d="M 149.5 123 Q 156 122 158 125.5 L 159 133.5 L 155.5 131 L 150.5 130 L 147 132.5 Q 145.8 136.3 149.5 135 L 152.5 134 L 156 136.5 L 154 140.5 L 156.5 141 L 158.5 140 L 161 143.5 L 164 153.5 Q 162.5 156.5 156.5 155 Q 149.3 153.2 146 147.5 Q 141.3 141.7 143 129.5 L 147.5 124 L 149.5 123 Z " /><path fill="rgb(255,255,255)" stroke="rgb(255,255,255)" stroke-width="0" opacity="1" d="M 352 137 Q 357 139.1 366 138 L 372 159.5 L 362.5 164 Q 360.9 159.1 353.5 160 Q 352.1 162.6 347.5 162 L 342 157.5 L 352 137 Z " /><path fill="rgb(255,255,255)" stroke="rgb(255,255,255)" stroke-width="0" opacity="1" d="M 342.5 162 L 347 165.5 L 345 187.5 L 344 188.5 L 344 197.5 L 343 198.5 L 342 217.5 L 340.5 221 L 336 219 L 340 174.5 L 341 173.5 L 341 164.5 L 342.5 162 Z " /><path fill="rgb(255,255,255)" stroke="rgb(255,255,255)" stroke-width="0" opacity="1" d="M 354.5 163 L 361 166.5 L 361 176.5 L 360 177.5 L 360 185.5 L 358 195.5 L 357 214.5 Q 350.9 216.4 352 225.5 L 353 227.5 Q 348.1 229.1 349 236.5 L 350 240.5 L 348 245.5 L 351 250.5 L 349 255.5 Q 353.1 258.4 352 266.5 L 351 267.5 L 351 275.5 L 349 285.5 L 346 323.5 L 344 332.5 L 344 342.5 L 343 343.5 L 342 361.5 L 340 370.5 L 337 410 Q 329.3 410.9 325 409 L 327 384.5 L 328 383.5 L 330 354.5 L 331 353.5 L 331 345.5 L 332 344.5 L 333 324.5 L 334 323.5 L 334 315.5 L 336 305.5 L 336 296.5 L 337 295.5 L 337 286.5 L 338 285.5 L 338 277.5 L 339 276.5 L 339 268.5 L 341 258.5 L 341 248.5 L 342 247.5 L 342 237.5 L 344 227.5 L 346 195.5 L 347 194.5 L 347 186.5 L 349 176.5 L 349 167.5 L 350 165 L 354.5 163 Z " /><path fill="rgb(255,255,255)" stroke="rgb(255,255,255)" stroke-width="0" opacity="1" d="M 370.5 164 Q 372.8 163.3 372 165.5 L 371 166.5 L 370 186.5 L 369 187.5 L 369 196.5 L 368 197.5 L 367 213 L 360 214 L 363 175.5 Q 365.7 173.8 364 167.5 L 365.5 166 L 370.5 164 Z " /><path fill="rgb(255,255,255)" stroke="rgb(255,255,255)" stroke-width="0" opacity="1" d="M 253.5 188 L 258 193.5 L 258 205.5 L 255.5 213 L 242 200.5 L 250 193.5 L 253.5 188 Z " /><path fill="rgb(255,255,255)" stroke="rgb(255,255,255)" stroke-width="0" opacity="1" d="M 203 189 L 209 190 L 210.5 193 Q 217 199.8 228 201 L 216.5 217 L 212 213.5 Q 204.1 205.4 201 192.5 L 203 189 Z " /><path fill="rgb(255,255,255)" stroke="rgb(255,255,255)" stroke-width="0" opacity="1" d="M 216.5 191 L 218.5 192 L 239.5 192 Q 240.8 189.8 245.5 191 L 241.5 196 Q 237.8 199.3 229.5 198 L 217.5 193 L 216.5 191 Z " /><path fill="rgb(255,255,255)" stroke="rgb(255,255,255)" stroke-width="0" opacity="1" d="M 194.5 195 Q 197.8 193.9 197 196.5 Q 202.7 211.3 213.5 221 L 217.5 222 L 224 213 Q 226.7 211.9 226 214.5 Q 229.6 215.9 229 221.5 L 228 222.5 L 226 244.5 L 225 245.5 L 223 271.5 L 237.5 287 L 240.5 288 L 255 271.5 L 255 265.5 L 245 216.5 L 247.5 211 L 256.5 219 L 261 211.5 L 263 196.5 L 262.5 195 Q 276.6 198.4 285 207.5 L 307 239.5 L 300 247.5 L 302.5 249 L 309.5 243 L 322.5 238 L 323 241.5 Q 320.3 243.2 322 249.5 L 327 259.5 L 327 267.5 L 326 272 Q 318.5 276.8 305.5 277 Q 291.5 273.5 285 262.5 L 283 237.5 L 280 224 L 277 224 L 277 230.5 L 278 231.5 L 279 251.5 L 280 252.5 L 281 281.5 L 277.5 285 L 261.5 289 L 228.5 290 L 224.5 291 L 223.5 290 L 204 289 L 198.5 282 L 186 277 L 186 244.5 Q 188.8 242.5 188 238 L 186.5 238 L 168.5 255 Q 166.6 251.4 162 252 Q 160.5 255.7 163.5 255 L 173 268.5 L 164.5 272 L 156 279.5 L 150.5 288 Q 141.8 279.7 137 267.5 L 135 254.5 Q 136.6 244.1 142 237.5 Q 154 221 169.5 208 Q 179.6 199.1 194.5 195 Z " /><path fill="rgb(255,255,255)" stroke="rgb(255,255,255)" stroke-width="0" opacity="1" d="M 232.5 203 Q 242.3 201.3 244 207.5 L 242 215 L 232.5 216 L 228 208.5 L 232.5 203 Z " /><path fill="rgb(255,255,255)" stroke="rgb(255,255,255)" stroke-width="0" opacity="1" d="M 361.5 218 Q 371.6 216.4 375 221.5 L 376 228.5 L 375 232.5 Q 377.5 234 376 239.5 Q 373.2 241.3 375 247.5 L 369.5 259 L 361.5 260 L 354 256.5 L 354 252 L 366.5 252 L 367 250.5 L 363.5 248 Q 356 249 353 247 Q 351.8 242.4 354.5 241 L 368.5 241 L 369 239.5 L 365.5 237 L 354 237 L 353 234.5 L 356.5 230 L 365.5 229 L 370 230 L 368.5 226 L 356 225 Q 355 220.3 358.5 219 L 361.5 218 Z " /><path fill="rgb(255,255,255)" stroke="rgb(255,255,255)" stroke-width="0" opacity="1" d="M 240.5 219 L 242 220.5 L 242 224.5 L 245 233.5 L 251 269.5 L 241 283 L 239.5 283 L 227 270.5 L 228 268.5 L 228 256.5 L 229 255.5 L 230 240.5 L 231 239.5 L 231 231.5 L 233 220 L 239.5 220 L 240.5 219 Z " /><path fill="rgb(255,255,255)" stroke="rgb(255,255,255)" stroke-width="0" opacity="1" d="M 331.5 223 Q 337.8 221.8 339 225.5 Q 339.8 230.3 336.5 231 Q 331.8 232.2 330.5 230 L 329 232.5 L 330 233.5 L 330 242 Q 327 243.3 328 239.5 L 327 238.5 L 327 228.5 L 331.5 223 Z " /><path fill="rgb(255,255,255)" stroke="rgb(255,255,255)" stroke-width="0" opacity="1" d="M 338.5 234 Q 341.9 233.1 340 238.5 L 339 239.5 L 338 259.5 L 336 269.5 L 336 278.5 L 334 288.5 L 333 307.5 L 332 308.5 L 332 316.5 L 331 317.5 L 329 345.5 L 328 346.5 L 327 364.5 L 326 365.5 L 324 393.5 L 323 394.5 L 322 408 L 317 405.5 L 319 377.5 L 320 376.5 L 323 340.5 L 324 339.5 L 324 330.5 L 325 329.5 L 326 312.5 L 328 303.5 L 330 274.5 L 332 265.5 L 333 245.5 L 334 244.5 L 334 236.5 L 335.5 235 L 338.5 234 Z " /><path fill="rgb(255,255,255)" stroke="rgb(255,255,255)" stroke-width="0" opacity="1" d="M 326.5 246 Q 329.5 246.5 329 250.5 L 327.5 254 L 326.5 246 Z " /><path fill="rgb(255,255,255)" stroke="rgb(255,255,255)" stroke-width="0" opacity="1" d="M 180.5 250 L 181 272.5 L 180 272.5 L 173 258.5 L 180.5 250 Z " /><path fill="rgb(255,255,255)" stroke="rgb(255,255,255)" stroke-width="0" opacity="1" d="M 355.5 262 L 362 264 L 361 267.5 L 361 277.5 L 360 278.5 L 360 286.5 L 358 296.5 L 358 305.5 L 357 306.5 L 357 315.5 L 356 316.5 L 356 325.5 L 355 326.5 L 355 334.5 L 353 343.5 L 353 352.5 L 352 353.5 L 352 362.5 L 351 363.5 L 351 372.5 L 350 373.5 L 347 409 L 339.5 410 L 340 408.5 L 342 379.5 L 343 378.5 L 343 370.5 L 344 369.5 L 344 361.5 L 346 351.5 L 346 341.5 L 348 331.5 L 348 322.5 L 350 312.5 L 351 292.5 L 353 283.5 L 354 265.5 L 355.5 262 Z " /><path fill="rgb(255,255,255)" stroke="rgb(255,255,255)" stroke-width="0" opacity="1" d="M 286.5 270 L 288.5 273 L 298.5 280 L 309.5 282 L 325.5 277 L 325 278.5 L 324 297.5 L 322 306.5 L 322 315.5 L 320 325.5 L 316 372.5 L 315 373.5 L 313 400.5 L 311 410.5 L 309 440.5 L 311 443.5 L 305.5 439 L 292 430.5 L 293 429.5 L 293 417.5 L 292 416.5 L 292 401.5 L 291 400.5 L 291 384.5 L 290 383.5 L 287 324.5 L 286 323.5 L 286 311.5 L 285 310.5 Q 286.3 302.3 284 297.5 L 285 296.5 L 285 288.5 L 284 285.5 L 286 282.5 L 286.5 270 Z " /><path fill="rgb(255,255,255)" stroke="rgb(255,255,255)" stroke-width="0" opacity="1" d="M 173.5 272 L 177 274.5 L 179 277.5 Q 168.7 281.2 163 289.5 L 160 296 L 154 291.5 Q 156.3 280.8 164.5 276 L 173.5 272 Z " /><path fill="rgb(255,255,255)" stroke="rgb(255,255,255)" stroke-width="0" opacity="1" d="M 181.5 281 Q 195.9 282.1 202 291.5 L 203 298.5 L 194.5 291 L 190.5 289 L 189 291.5 L 198 299.5 L 200 306.5 L 198.5 309 L 188.5 298 L 186.5 297 L 185 299.5 L 193 307.5 L 194 312.5 L 191.5 314 L 183.5 305 L 180.5 304 Q 177.8 305.3 180 306.5 Q 179.3 308.8 181.5 308 Q 186.8 310.6 187 317 L 182.5 317 L 165 304.5 L 163 298.5 Q 166.3 290.8 172.5 286 L 181.5 281 Z " /><path fill="rgb(255,255,255)" stroke="rgb(255,255,255)" stroke-width="0" opacity="1" d="M 279.5 288 L 280 295.5 L 269.5 300 L 269 292.5 L 279.5 288 Z " /><path fill="rgb(255,255,255)" stroke="rgb(255,255,255)" stroke-width="0" opacity="1" d="M 264.5 292 L 265 299.5 L 263.5 301 L 253 302 L 253 294 L 256.5 294 L 264.5 292 Z " /><path fill="rgb(255,255,255)" stroke="rgb(255,255,255)" stroke-width="0" opacity="1" d="M 207.5 293 L 208.5 294 L 227 295.5 Q 224.8 296.8 226 301.5 L 226.5 303 L 209.5 302 L 207 301 L 208 295.5 L 207.5 293 Z " /><path fill="rgb(255,255,255)" stroke="rgb(255,255,255)" stroke-width="0" opacity="1" d="M 245.5 294 L 249 294 L 249 304 L 233.5 305 L 231 304 L 231 295 L 244.5 295 L 245.5 294 Z " /><path fill="rgb(255,255,255)" stroke="rgb(255,255,255)" stroke-width="0" opacity="1" d="M 278.5 301 Q 281.5 300.5 280 307.5 L 281 308.5 L 281 319.5 L 282 320.5 L 284 364.5 L 285 365.5 L 285 379.5 L 286 380.5 L 286 395.5 L 287 396.5 L 287 410.5 L 288 411.5 L 288 426.5 L 289 427.5 Q 278.4 436.9 255.5 434 L 248 430.5 L 247 418.5 L 246 417.5 L 246 408.5 L 245 407.5 L 245 398.5 L 244 397.5 L 244 389.5 L 241 372.5 L 241 364.5 L 237 341.5 L 237 333 L 243 329.5 Q 243.9 326.5 239.5 328 L 232 332.5 L 224 366.5 L 224 371.5 L 220 387.5 L 213 433 L 200.5 436 L 190.5 436 L 174.5 432 L 172 429.5 L 176 392.5 L 177 391.5 L 179 364.5 L 181 355.5 L 183 324.5 L 184.5 321 L 186.5 321 L 197 315.5 L 198.5 313 L 204 308.5 Q 202.2 302.8 208.5 305 L 209.5 306 L 227.5 307 L 230.5 309 L 246.5 309 L 252.5 306 L 265.5 305 L 278.5 301 Z " /><path fill="rgb(255,255,255)" stroke="rgb(255,255,255)" stroke-width="0" opacity="1" d="M 316 410 L 328.5 414 L 342.5 414 L 346 413 L 346 418 L 342.5 418 L 341.5 419 L 328.5 419 L 316 415 L 316 410 Z " /><path fill="rgb(255,255,255)" stroke="rgb(255,255,255)" stroke-width="0" opacity="1" d="M 315.5 418 Q 325.2 424.3 343.5 422 L 345 421.5 Q 346.9 426.9 343.5 426 L 332.5 428 L 321.5 426 L 315 422.5 L 315.5 418 Z " /><path fill="rgb(255,255,255)" stroke="rgb(255,255,255)" stroke-width="0" opacity="1" d="M 314 427 Q 323.3 433.4 342.5 431 L 344 430.5 L 343 442.5 L 339.5 446 Q 334 448.5 324.5 447 L 316.5 444 L 314 441.5 L 314 427 Z " /><path fill="rgb(255,255,255)" stroke="rgb(255,255,255)" stroke-width="0" opacity="1" d="M 287.5 434 Q 298.3 438.3 306 445.5 L 310 454.5 Q 300.9 462.4 281.5 460 L 251.5 451 L 248 449 L 249 437 L 258.5 439 L 271.5 439 L 287.5 434 Z " /><path fill="rgb(255,255,255)" stroke="rgb(255,255,255)" stroke-width="0" opacity="1" d="M 172.5 436 L 186.5 440 L 204.5 440 L 210.5 438 Q 212.9 442.1 212 449.5 L 209.5 452 L 189.5 462 L 179.5 464 L 168.5 464 L 159.5 462 L 154 457.5 Q 156.3 446.8 164.5 442 L 172.5 436 Z " /><path fill="rgb(255,255,255)" stroke="rgb(255,255,255)" stroke-width="0" opacity="1" d="M 248.5 452 L 250.5 454 Q 264 456.5 274.5 462 Q 279.3 460.7 280.5 463 L 298.5 463 L 310 459 Q 310.8 462.8 307.5 464 L 299.5 467 L 287.5 468 L 286.5 467 L 274.5 466 L 264.5 461 L 256.5 461 L 249 456.5 L 248.5 452 Z " /><path fill="rgb(255,255,255)" stroke="rgb(255,255,255)" stroke-width="0" opacity="1" d="M 211.5 454 L 212 456.5 L 209.5 460 L 203.5 463 L 201.5 462 Q 190.3 473.3 165.5 471 L 154 465.5 L 154.5 462 Q 163.3 469.2 181.5 467 L 190.5 465 L 211.5 454 Z " /><path fill="rgb(0,0,0)" stroke="rgb(0,0,0)" stroke-width="0" opacity="1" d="M 220.5 4 Q 235.5 3 241.5 11 Q 246.3 6.8 256.5 8 Q 265.9 10.6 270.5 18 L 275.5 18 L 283.5 21 L 290 27.5 L 292 35 Q 297.4 35.7 300 40.5 Q 303.4 45.6 302 55.5 L 306 63.5 L 306 69.5 L 304 76.5 L 305 77.5 L 305 88.5 Q 300.9 91.7 302 99 Q 309.5 99.8 313 105.5 Q 317.2 111.3 316 122.5 Q 314.3 133.8 306.5 139 L 296 142 Q 292.3 165.5 275.5 177 L 258 186.5 L 264.5 191 L 269.5 192 L 279.5 197 L 291 207.5 L 311.5 238 L 322 234 Q 321.3 224 327.5 220 L 331 219 L 332 216.5 L 332 207.5 L 333 206.5 L 337 158.5 L 357 117.5 L 360.5 114 Q 363.8 112.9 363 115.5 L 365 118.5 L 377 161.5 L 376 162.5 L 376 171.5 L 375 172.5 L 373 201.5 L 372 202.5 L 371 213.5 L 378 218.5 Q 381.3 221.7 381 228.5 L 380 229.5 L 379 249.5 L 375 259.5 L 371.5 263 L 366 265 L 361 319.5 L 360 320.5 L 360 329.5 L 359 330.5 L 359 339.5 L 358 340.5 L 358 348.5 L 356 358.5 L 356 367.5 L 355 368.5 L 355 378.5 L 354 379.5 L 354 387.5 L 353 388.5 L 353 396.5 L 351 406.5 L 349 435.5 Q 346.5 437 348 442.5 L 343.5 449 L 334.5 452 L 326.5 452 L 318.5 450 L 313.5 447 L 313 449.5 Q 316.2 452.8 315 460.5 L 309.5 468 L 297.5 472 L 281.5 472 Q 280.3 469.8 275.5 471 L 263.5 466 L 257.5 466 L 251.5 464 L 245 459.5 L 244 457.5 L 244 438.5 L 245 434.5 L 243 432.5 L 241 404.5 L 240 403.5 L 238 377.5 L 237 376.5 L 236 360.5 L 233.5 346 L 223 396.5 L 220 419.5 L 218 425.5 L 218 432.5 L 215 437.5 L 216 438.5 L 216 458.5 L 211.5 464 L 202.5 468 Q 201 465.5 199.5 469 L 185.5 475 L 168.5 476 L 159.5 474 L 150 467.5 L 149 457.5 Q 150.7 447.2 157.5 442 L 169 434 Q 166.8 430.4 168 421.5 L 169 420.5 L 170 403.5 L 171 402.5 L 173 378.5 L 174 377.5 L 174 367.5 L 175 366.5 L 175 358.5 L 176 357.5 L 176 349.5 L 178 339.5 L 179 319.5 Q 174.3 314.3 166.5 312 L 161 306.5 L 157.5 300 L 143 286.5 L 132 267.5 Q 129.7 260.8 131 250.5 L 140 232.5 L 162.5 208 Q 176.1 194.3 198 190 L 199 187.5 L 180.5 177 L 172 168.5 L 165.5 158 Q 163.2 161.2 156.5 160 Q 147.4 158.1 143 151.5 Q 136 145 138 129.5 Q 139.5 123 144.5 120 Q 146.8 120.8 146 118.5 L 142 114.5 Q 139.1 110.9 140 103.5 L 135 97.5 L 134 85.5 L 135 83.5 Q 129.4 79.1 131 67.5 Q 132.4 61.4 137 58.5 L 138 46.5 L 145.5 38 L 152 36 Q 153.1 27.3 159.5 23 L 167.5 19 L 175.5 19 L 177 17.5 L 181.5 12 Q 188.2 6.2 202.5 8 L 208.5 10 L 220.5 4 Z M 222 9 Q 214 11 210 16 L 207 16 L 202 13 Q 190 11 185 16 L 179 24 Q 169 22 164 26 Q 157 29 157 39 L 149 42 L 142 51 L 142 59 L 143 60 Q 138 62 136 69 Q 135 79 140 83 L 139 87 L 140 97 L 145 102 Q 144 113 150 117 L 157 119 L 157 108 L 156 107 L 159 98 L 157 89 L 157 85 L 161 78 L 160 66 L 166 62 L 169 55 L 179 55 L 185 49 L 189 51 L 193 51 L 200 46 L 205 48 Q 213 49 216 44 L 221 46 Q 229 48 232 43 Q 236 42 237 45 Q 245 47 248 42 L 253 45 Q 260 46 263 43 L 271 48 L 276 48 L 280 61 L 286 67 L 285 69 L 286 76 L 291 85 L 294 97 Q 292 102 296 101 L 297 100 L 297 92 L 300 88 Q 302 79 298 76 L 301 70 Q 302 59 296 57 L 297 55 Q 299 47 296 44 Q 294 39 289 39 L 287 38 L 286 31 Q 283 25 276 23 L 269 24 L 264 17 L 256 13 Q 246 12 243 16 L 240 16 Q 236 11 229 9 L 222 9 Z M 233 48 L 228 51 Q 220 52 218 49 L 210 53 Q 203 54 201 51 Q 197 57 186 55 L 178 60 Q 171 59 172 62 L 165 67 L 166 72 Q 167 81 162 86 L 163 91 Q 165 101 161 106 L 163 137 Q 166 153 175 165 Q 184 176 199 182 L 216 187 L 224 187 L 225 188 L 242 187 L 254 184 Q 267 179 277 170 Q 288 159 292 141 L 292 115 Q 289 113 291 107 L 287 87 L 282 79 L 281 68 L 278 66 L 274 60 L 273 53 Q 267 53 264 49 L 260 50 Q 252 51 250 48 L 244 50 Q 236 51 233 48 Z M 299 104 L 295 108 L 297 115 Q 297 110 305 111 L 306 115 L 304 114 L 299 118 L 302 122 Q 303 126 301 125 L 299 122 L 297 123 L 297 137 L 303 136 Q 309 132 311 124 Q 312 114 309 109 Q 307 103 299 104 Z M 361 121 L 355 133 L 357 134 L 364 134 L 361 121 Z M 150 123 L 148 124 L 143 130 Q 141 142 146 148 Q 149 153 157 155 Q 162 156 164 154 L 161 144 L 159 140 L 157 141 L 154 141 L 156 137 L 153 134 L 150 135 Q 146 136 147 133 L 151 130 L 156 131 L 159 134 L 158 126 Q 156 122 150 123 Z M 352 137 L 342 158 L 348 162 Q 352 163 354 160 Q 361 159 363 164 L 372 160 L 366 138 Q 357 139 352 137 Z M 343 162 L 341 165 L 341 174 L 340 175 L 336 219 L 341 221 L 342 218 L 343 199 L 344 198 L 344 189 L 345 188 L 347 166 L 343 162 Z M 355 163 L 350 165 L 349 168 L 349 177 L 347 187 L 347 195 L 346 196 L 344 228 L 342 238 L 342 248 L 341 249 L 341 259 L 339 269 L 339 277 L 338 278 L 338 286 L 337 287 L 337 296 L 336 297 L 336 306 L 334 316 L 334 324 L 333 325 L 332 345 L 331 346 L 331 354 L 330 355 L 328 384 L 327 385 L 325 409 Q 329 411 337 410 L 340 371 L 342 362 L 343 344 L 344 343 L 344 333 L 346 324 L 349 286 L 351 276 L 351 268 L 352 267 Q 353 258 349 256 L 351 251 L 348 246 L 350 241 L 349 237 Q 348 229 353 228 L 352 226 Q 351 216 357 215 L 358 196 L 360 186 L 360 178 L 361 177 L 361 167 L 355 163 Z M 371 164 L 366 166 L 364 168 Q 366 174 363 176 L 360 214 L 367 213 L 368 198 L 369 197 L 369 188 L 370 187 L 371 167 L 372 166 Q 373 163 371 164 Z M 254 188 L 250 194 L 242 201 L 256 213 L 258 206 L 258 194 L 254 188 Z M 203 189 L 201 193 Q 204 205 212 214 L 217 217 L 228 201 Q 217 200 211 193 L 209 190 L 203 189 Z M 217 191 L 218 193 L 230 198 Q 238 199 242 196 L 246 191 Q 241 190 240 192 L 219 192 L 217 191 Z M 195 195 Q 180 199 170 208 Q 154 221 142 238 Q 137 244 135 255 L 137 268 Q 142 280 151 288 L 156 280 L 165 272 L 173 269 L 164 255 Q 161 256 162 252 Q 167 251 169 255 L 187 238 L 188 238 Q 189 242 186 245 L 186 277 L 199 282 L 204 289 L 224 290 L 225 291 L 229 290 L 262 289 L 278 285 L 281 282 L 280 253 L 279 252 L 278 232 L 277 231 L 277 224 L 280 224 L 283 238 L 285 263 Q 292 274 306 277 Q 318 277 326 272 L 327 268 L 327 260 L 322 250 Q 320 243 323 242 L 323 238 L 310 243 L 303 249 L 300 248 L 307 240 L 285 208 Q 277 198 263 195 L 263 197 L 261 212 L 257 219 L 248 211 L 245 217 L 255 266 L 255 272 L 241 288 L 238 287 L 223 272 L 225 246 L 226 245 L 228 223 L 229 222 Q 230 216 226 215 Q 227 212 224 213 L 218 222 L 214 221 Q 203 211 197 197 Q 198 194 195 195 Z M 233 203 L 228 209 L 233 216 L 242 215 L 244 208 Q 242 201 233 203 Z M 362 218 L 359 219 Q 355 220 356 225 L 369 226 L 370 230 L 366 229 L 357 230 L 353 235 L 354 237 L 366 237 L 369 240 L 369 241 L 355 241 Q 352 242 353 247 Q 356 249 364 248 L 367 251 L 367 252 L 354 252 L 354 257 L 362 260 L 370 259 L 375 248 Q 373 241 376 240 Q 378 234 375 233 L 376 229 L 375 222 Q 372 216 362 218 Z M 241 219 L 240 220 L 233 220 L 231 232 L 231 240 L 230 241 L 229 256 L 228 257 L 228 269 L 227 271 L 240 283 L 241 283 L 251 270 L 245 234 L 242 225 L 242 221 L 241 219 Z M 332 223 L 327 229 L 327 239 L 328 240 Q 327 243 330 242 L 330 234 L 329 233 L 331 230 Q 332 232 337 231 Q 340 230 339 226 Q 338 222 332 223 Z M 339 234 L 336 235 L 334 237 L 334 245 L 333 246 L 332 266 L 330 275 L 328 304 L 326 313 L 325 330 L 324 331 L 324 340 L 323 341 L 320 377 L 319 378 L 317 406 L 322 408 L 323 395 L 324 394 L 326 366 L 327 365 L 328 347 L 329 346 L 331 318 L 332 317 L 332 309 L 333 308 L 334 289 L 336 279 L 336 270 L 338 260 L 339 240 L 340 239 Q 342 233 339 234 Z M 327 246 L 328 254 L 329 251 Q 330 247 327 246 Z M 181 250 L 173 259 L 180 273 L 181 273 L 181 250 Z M 356 262 L 354 266 L 353 284 L 351 293 L 350 313 L 348 323 L 348 332 L 346 342 L 346 352 L 344 362 L 344 370 L 343 371 L 343 379 L 342 380 L 340 409 L 340 410 L 347 409 L 350 374 L 351 373 L 351 364 L 352 363 L 352 354 L 353 353 L 353 344 L 355 335 L 355 327 L 356 326 L 356 317 L 357 316 L 357 307 L 358 306 L 358 297 L 360 287 L 360 279 L 361 278 L 361 268 L 362 264 L 356 262 Z M 287 270 L 286 283 L 284 286 L 285 289 L 285 297 L 284 298 Q 286 302 285 311 L 286 312 L 286 324 L 287 325 L 290 384 L 291 385 L 291 401 L 292 402 L 292 417 L 293 418 L 293 430 L 292 431 L 306 439 L 310 443 L 309 441 L 311 411 L 313 401 L 315 374 L 316 373 L 320 326 L 322 316 L 322 307 L 324 298 L 325 279 L 326 277 L 310 282 L 299 280 L 289 273 L 287 270 Z M 174 272 L 165 276 Q 156 281 154 292 L 160 296 L 163 290 Q 169 281 179 278 L 177 275 L 174 272 Z M 182 281 L 173 286 Q 166 291 163 299 L 165 305 L 183 317 L 187 317 Q 187 311 182 308 Q 179 309 180 307 Q 178 305 181 304 L 184 305 L 192 314 L 194 313 L 193 308 L 185 300 L 187 297 L 189 298 L 199 309 L 200 307 L 198 300 L 189 292 L 191 289 L 195 291 L 203 299 L 202 292 Q 196 282 182 281 Z M 280 288 L 269 293 L 270 300 L 280 296 L 280 288 Z M 265 292 L 257 294 L 253 294 L 253 302 L 264 301 L 265 300 L 265 292 Z M 208 293 L 208 296 L 207 301 L 210 302 L 227 303 L 226 302 Q 225 297 227 296 L 209 294 L 208 293 Z M 246 294 L 245 295 L 231 295 L 231 304 L 234 305 L 249 304 L 249 294 L 246 294 Z M 279 301 L 266 305 L 253 306 L 247 309 L 231 309 L 228 307 L 210 306 L 209 305 Q 202 303 204 309 L 199 313 L 197 316 L 187 321 L 185 321 L 183 325 L 181 356 L 179 365 L 177 392 L 176 393 L 172 430 L 175 432 L 191 436 L 201 436 L 213 433 L 220 388 L 224 372 L 224 367 L 232 333 L 240 328 Q 244 326 243 330 L 237 333 L 237 342 L 241 365 L 241 373 L 244 390 L 244 398 L 245 399 L 245 408 L 246 409 L 246 418 L 247 419 L 248 431 L 256 434 Q 278 437 289 428 L 288 427 L 288 412 L 287 411 L 287 397 L 286 396 L 286 381 L 285 380 L 285 366 L 284 365 L 282 321 L 281 320 L 281 309 L 280 308 Q 281 300 279 301 Z M 316 410 L 316 415 L 329 419 L 342 419 L 343 418 L 346 418 L 346 413 L 343 414 L 329 414 L 316 410 Z M 316 418 L 315 423 L 322 426 L 333 428 L 344 426 Q 347 427 345 422 L 344 422 Q 325 424 316 418 Z M 314 427 L 314 442 L 317 444 L 325 447 Q 334 449 340 446 L 343 443 L 344 431 L 343 431 Q 323 433 314 427 Z M 288 434 L 272 439 L 259 439 L 249 437 L 248 449 L 252 451 L 282 460 Q 301 462 310 455 L 306 446 Q 298 438 288 434 Z M 173 436 L 165 442 Q 156 447 154 458 L 160 462 L 169 464 L 180 464 L 190 462 L 210 452 L 212 450 Q 213 442 211 438 L 205 440 L 187 440 L 173 436 Z M 249 452 L 249 457 L 257 461 L 265 461 L 275 466 L 287 467 L 288 468 L 300 467 L 308 464 Q 311 463 310 459 L 299 463 L 281 463 Q 279 461 275 462 Q 264 456 251 454 L 249 452 Z M 212 454 L 191 465 L 182 467 Q 163 469 155 462 L 154 466 L 166 471 Q 190 473 202 462 L 204 463 L 210 460 L 212 457 L 212 454 Z " /><path fill="rgb(0,0,0)" stroke="rgb(0,0,0)" stroke-width="0" opacity="1" d="M 255.5 75 Q 269.4 74.6 274 83.5 Q 275 88 272.5 89 L 261.5 85 L 255.5 85 Q 254.2 87.2 249.5 86 Q 246.5 85.5 247 81.5 L 251.5 76 L 255.5 75 Z " /><path fill="rgb(0,0,0)" stroke="rgb(0,0,0)" stroke-width="0" opacity="1" d="M 189.5 84 Q 197 83 200 85 L 202 90.5 L 199.5 93 L 187.5 95 L 177.5 102 Q 174.5 101.5 175 97.5 L 181.5 88 L 189.5 84 Z " /><path fill="rgb(0,0,0)" stroke="rgb(0,0,0)" stroke-width="0" opacity="1" d="M 259.5 98 Q 272.1 97.4 276 105.5 Q 279 109.5 279 116.5 L 278 121.5 L 274.5 126 L 274 124.5 Q 277 121.5 276 114.5 Q 274.4 107.5 269.5 104 Q 266.2 101.3 259.5 102 L 252 107.5 L 250 112.5 L 252 111.5 L 253.5 109 Q 256.2 106.2 262.5 107 L 269 111.5 Q 272.3 115.2 271 123.5 L 266.5 130 Q 264.2 132.7 258.5 132 L 250 126.5 Q 245.3 121.7 247 110.5 Q 248.8 103.3 254.5 100 L 259.5 98 Z M 259 111 L 258 112 Q 255 111 256 115 L 260 116 Q 261 112 259 111 Z " /><path fill="rgb(0,0,0)" stroke="rgb(0,0,0)" stroke-width="0" opacity="1" d="M 190.5 107 Q 203.8 105.8 208 113.5 Q 212.5 119 211 130.5 L 208.5 134 L 207 133.5 L 202.5 139 L 194.5 140 L 188 134.5 Q 185.3 131.2 186 124.5 L 189 118 L 194.5 115 L 198.5 115 Q 204.6 116.4 207 121.5 L 208.5 132 L 209 122.5 Q 207.5 116 202.5 113 Q 199.2 109.8 191.5 111 L 183 117.5 L 181 123.5 L 181 128.5 L 186 137.5 L 184.5 137 L 182 135.5 Q 177.3 130.7 178 120.5 L 183.5 111 L 190.5 107 Z M 195 120 L 193 123 L 197 124 L 198 122 L 195 120 Z " /><path fill="rgb(0,0,0)" stroke="rgb(0,0,0)" stroke-width="0" opacity="1" d="M 235 129 Q 243.4 127.7 246 133.5 L 247 140.5 L 241.5 147 Q 237.5 150 229.5 149 L 224 147 L 223 144.5 L 225.5 143 Q 228.4 146.6 236.5 145 L 243 140.5 Q 244.3 133.3 239.5 132 Q 235.8 132.8 235 130.5 L 235 129 Z " /><path fill="rgb(0,0,0)" stroke="rgb(0,0,0)" stroke-width="0" opacity="1" d="M 254.5 147 L 260 151.5 L 260 153 L 256 153 L 256 154.5 L 250.5 161 Q 242.5 168 226.5 167 Q 214.8 165.2 208.5 158 L 205 158 Q 204.3 153.3 208.5 152 Q 212.9 150.5 212 153.5 L 211 154.5 L 215.5 159 Q 222.5 163 233.5 163 L 244.5 160 L 253 152.5 L 252 149.5 L 254.5 147 Z " /><path fill="rgb(0,0,0)" stroke="rgb(0,0,0)" stroke-width="0" opacity="1" d="M 230.5 501 L 237.5 501 L 248.5 506 L 251.5 504 L 258.5 503 L 263.5 504 L 269 507.5 L 241.5 508 Q 237.9 505.1 230.5 506 L 226.5 508 L 200.5 508 L 201.5 506 Q 206.2 502.7 215.5 504 L 221.5 506 L 230.5 501 Z " /></svg>