<svg width="627" height="627" preserveAspectRatio="xMidYMid meet" viewBox="0 0 512 512" version="1.1" xmlns="http://www.w3.org/2000/svg" ><path fill="rgb(255,255,255)" stroke="rgb(255,255,255)" stroke-width="0" opacity="1" d="M 0 0 L 512 0 L 512 512 L 0 512 L 0 0 Z M 178 13 L 176 14 L 169 21 Q 166 25 167 35 Q 161 38 159 46 Q 157 59 165 63 L 164 66 Q 163 75 167 79 L 174 84 L 171 92 Q 173 98 170 100 L 171 114 L 173 122 L 179 135 L 175 141 L 174 146 L 175 155 L 179 162 L 185 166 Q 187 167 186 171 L 193 176 L 196 176 L 203 172 L 206 178 Q 215 187 228 193 L 222 198 Q 207 201 199 209 Q 174 233 163 270 Q 163 283 169 291 Q 177 305 189 316 L 178 371 L 179 375 L 184 379 L 202 387 L 201 406 L 200 407 L 200 421 L 199 422 L 199 437 L 198 438 L 198 453 L 201 456 L 189 471 L 184 480 Q 182 488 185 492 L 192 497 L 203 499 L 218 496 L 231 488 L 241 478 L 243 473 L 243 463 L 242 462 Q 240 456 244 457 L 247 450 L 248 438 L 251 427 L 252 416 L 260 378 L 260 408 L 261 409 L 261 443 L 262 444 L 262 453 L 265 456 L 262 465 L 262 471 L 265 478 Q 281 487 304 491 L 322 491 L 330 488 L 334 483 Q 335 475 332 472 L 326 465 L 307 454 L 309 452 Q 308 447 310 446 L 311 417 L 312 416 L 313 390 L 314 384 Q 324 383 330 376 L 330 367 L 327 351 L 328 349 L 328 351 L 336 357 L 339 356 L 341 357 L 346 356 Q 351 352 353 344 L 353 329 L 347 315 L 349 312 L 348 305 Q 335 273 326 238 L 315 215 L 306 205 L 288 197 L 284 194 L 302 183 Q 311 177 315 165 Q 316 162 318 164 Q 324 165 326 162 L 328 159 L 328 153 L 334 141 Q 335 132 332 127 L 324 121 L 326 116 L 326 107 L 327 106 L 327 91 Q 322 83 321 72 L 316 63 L 311 58 L 308 55 Q 300 43 285 40 L 286 38 Q 288 25 282 21 L 273 15 Q 270 16 271 13 L 266 13 L 267 20 Q 273 19 277 22 Q 283 26 281 38 L 269 33 L 254 33 L 253 34 L 248 33 L 235 33 L 224 37 L 221 40 L 212 41 Q 199 45 192 56 Q 193 58 191 57 Q 180 64 176 78 L 173 77 L 169 73 Q 167 64 171 63 L 164 54 Q 163 45 166 42 L 173 37 L 172 35 Q 171 27 173 24 L 181 17 L 190 17 L 191 16 L 191 13 L 178 13 Z " /><path fill="rgb(255,255,255)" stroke="rgb(255,255,255)" stroke-width="0" opacity="1" d="M 235.5 38 L 253.5 39 L 254.5 38 L 267.5 38 L 274.5 40 L 279.5 44 L 284.5 44 L 290.5 46 L 303 55.5 L 305.5 60 L 313 66.5 L 318 77.5 L 318 83.5 L 322 90.5 L 323 100.5 L 321 108.5 L 322 112.5 L 319.5 121 L 318 108.5 L 314 101.5 L 314 92.5 L 310.5 89 L 306 85.5 L 301.5 76 Q 289.8 76.7 286 69.5 L 284.5 67 Q 279.8 70.8 269.5 69 L 261.5 64 Q 257.3 71.3 244.5 70 L 237.5 67 L 231.5 74 Q 227.2 77.7 219.5 78 L 214 77 Q 213.3 85.5 207.5 90 L 199 93.5 L 199 104.5 L 191 114.5 Q 194.7 118.8 193 128.5 L 191 133 L 184.5 132 Q 183.3 134.3 182 131.5 L 176 113.5 L 175 97.5 L 180 78.5 Q 183.9 68.4 191.5 62 L 197 57.5 L 201.5 52 L 211.5 46 L 222.5 44 Q 227.3 39.3 235.5 38 Z " /><path fill="rgb(255,255,255)" stroke="rgb(255,255,255)" stroke-width="0" opacity="1" d="M 261.5 70 Q 267.1 74.4 277.5 74 L 282.5 72 L 287.5 77 L 300 81.5 Q 301.2 89.8 307.5 93 Q 310.9 92.1 309 97.5 L 310 102.5 L 314 109.5 L 316 141.5 L 315 142.5 L 315 151.5 L 312 161.5 Q 307.8 171.3 300.5 178 Q 290.4 187.4 275.5 192 L 264.5 194 L 251.5 194 L 250.5 193 L 239.5 192 L 220.5 184 L 207 171.5 L 199.5 159 L 197.5 160 L 192.5 159 L 186.5 162 L 183 159.5 Q 177.7 154.8 179 143.5 L 183.5 137 Q 190.8 135.8 193 139.5 L 195.5 143 Q 197.8 142.3 197 138.5 Q 194.3 136.8 196 130.5 L 197 129.5 L 197 117.5 L 196 115.5 Q 205 110.1 204 96 Q 210.3 94.9 214 89.5 L 217 82 Q 231.9 82.8 238 73.5 L 238.5 72 Q 243.5 76 254.5 74 L 261.5 70 Z M 285 94 L 280 98 Q 279 102 282 103 L 286 102 L 293 102 L 301 105 Q 302 107 303 105 L 303 102 L 301 98 L 293 94 L 285 94 Z M 226 99 L 220 101 L 211 111 L 213 114 L 224 108 L 234 107 L 236 105 L 235 102 Q 232 98 226 99 Z M 290 114 L 286 116 Q 279 119 278 128 Q 277 136 280 140 L 288 145 L 296 144 L 301 137 Q 302 130 299 127 L 294 122 L 285 123 L 283 126 L 281 127 L 282 125 Q 285 120 292 118 L 299 120 L 304 128 Q 306 136 302 140 L 304 140 L 307 134 L 307 125 L 309 124 L 309 122 L 305 122 L 305 121 Q 301 113 290 114 Z M 224 120 L 218 123 Q 213 126 212 132 L 209 134 L 211 136 L 213 144 L 217 148 L 218 148 L 215 143 Q 214 134 217 130 Q 220 125 226 124 Q 232 123 235 126 Q 239 130 241 137 Q 242 141 240 143 L 241 144 L 243 141 Q 244 130 239 126 Q 235 119 224 120 Z M 225 128 Q 219 130 218 137 Q 217 143 220 147 L 227 151 L 235 150 Q 239 147 240 142 Q 241 135 238 133 Q 235 126 225 128 Z M 186 143 L 185 144 Q 181 143 183 147 L 186 146 L 191 149 L 188 153 L 191 156 L 191 152 L 196 153 Q 197 149 194 147 Q 192 142 186 143 Z M 268 143 L 268 145 L 272 146 Q 274 147 273 153 L 268 156 Q 261 157 259 154 Q 255 153 256 157 L 260 159 Q 269 161 274 157 L 277 153 L 277 148 L 275 144 L 268 143 Z M 282 160 L 280 162 L 281 164 L 280 166 Q 275 172 266 174 L 259 174 L 249 170 L 244 165 Q 246 163 244 162 L 241 163 Q 237 164 238 168 L 242 168 Q 247 176 259 178 L 271 177 L 277 174 L 283 167 L 287 164 L 282 160 Z " /><path fill="rgb(255,255,255)" stroke="rgb(255,255,255)" stroke-width="0" opacity="1" d="M 321.5 125 Q 326.3 125.3 328 128.5 L 329 130.5 L 329 141.5 L 324.5 149 L 320 148 L 320.5 140 L 321 143 Q 324.3 144.3 323 139.5 L 321 136.5 Q 322.2 133.3 326 134 L 324.5 131 L 319.5 133 L 320 131.5 L 319 127.5 L 321.5 125 Z " /><path fill="rgb(255,255,255)" stroke="rgb(255,255,255)" stroke-width="0" opacity="1" d="M 287 126 L 291 127.5 L 289.5 130 Q 284.9 131.2 287 126 Z " /><path fill="rgb(255,255,255)" stroke="rgb(255,255,255)" stroke-width="0" opacity="1" d="M 226 132 L 230 133.5 L 228.5 136 Q 223.9 137.2 226 132 Z " /><path fill="rgb(255,255,255)" stroke="rgb(255,255,255)" stroke-width="0" opacity="1" d="M 319 151 L 324 153.5 Q 325 159 321.5 160 Q 317.8 160.8 317 158.5 L 319 151 Z " /><path fill="rgb(255,255,255)" stroke="rgb(255,255,255)" stroke-width="0" opacity="1" d="M 191.5 163 Q 196.8 161.8 198 164.5 L 199 168.5 L 193.5 172 L 190 169.5 Q 188.8 164.3 191.5 163 Z " /><path fill="rgb(255,255,255)" stroke="rgb(255,255,255)" stroke-width="0" opacity="1" d="M 230.5 195 L 229 197.5 Q 220.4 208.4 223 230.5 L 225 239.5 L 226.5 241 Q 233 241.3 236 244 L 239 250.5 L 238 250.5 L 233.5 245 L 226.5 243 Q 220 244.5 217 249.5 L 215.5 255 L 215 250.5 L 221.5 242 Q 224.9 242.9 223 237.5 Q 219.1 228.4 221 213.5 L 226 199.5 L 230.5 195 Z " /><path fill="rgb(255,255,255)" stroke="rgb(255,255,255)" stroke-width="0" opacity="1" d="M 278.5 195 L 286 200.5 L 294 215.5 L 297 229.5 L 297 240.5 L 295 241.5 L 295 229.5 L 292 215.5 L 287 204.5 L 278.5 195 Z " /><path fill="rgb(255,255,255)" stroke="rgb(255,255,255)" stroke-width="0" opacity="1" d="M 235.5 196 L 237 207.5 L 243 229.5 L 247 251.5 L 248 281.5 L 247 282.5 L 246 331.5 L 245 332.5 L 245 346.5 L 244 347.5 L 244 361.5 L 243 362.5 L 242 385 Q 238.4 387.2 229.5 386 L 228.5 385 L 212.5 384 L 196.5 380 L 185.5 375 L 183 372.5 L 185 355.5 L 193 317 L 204.5 318 L 224 314 L 224 325.5 L 223 326.5 L 222 339.5 L 217.5 347 L 215.5 348 L 199.5 348 L 189 344 L 190.5 347 Q 199.1 352.9 215.5 351 L 222 346.5 L 225 339.5 L 228 310.5 L 225 303.5 L 218 296.5 L 217 291.5 L 206 276.5 L 206 265.5 L 210 256.5 L 210 250 Q 207.3 248.9 208 251.5 L 199.5 268 Q 197.3 264 192 264 L 192 266.5 L 199 273.5 L 213 293.5 Q 203.4 297.4 197 304.5 L 191.5 312 L 173 288.5 L 168 277.5 L 168 268.5 Q 179.7 232.7 204.5 210 L 219.5 203 L 220 204.5 L 217 212.5 L 217 230.5 L 219 239.5 Q 210.4 243.4 211 256.5 L 213 258.5 L 213 266.5 L 217 279.5 Q 216.2 285.6 218 288 L 225.5 290 L 230 286.5 Q 230.8 280.7 227.5 279 L 221.5 278 L 220 276.5 L 218 268.5 L 218 258.5 L 220 251.5 L 223.5 248 L 229.5 247 L 236 252.5 L 239 257.5 L 241 272.5 L 240 276 L 234 279.5 L 233 284.5 L 234 287 Q 236.1 288.6 241.5 288 L 245 285.5 L 246 279.5 L 245 278.5 L 245 263.5 L 242 253.5 L 243 248.5 L 236.5 240 L 229 236.5 L 229 233.5 L 234 227.5 L 234 224 L 227 220.5 Q 226.5 203.5 235.5 196 Z " /><path fill="rgb(255,255,255)" stroke="rgb(255,255,255)" stroke-width="0" opacity="1" d="M 241.5 196 L 247.5 198 L 259.5 199 L 272 197 L 274 204.5 L 263 224 L 261.5 224 L 251 213.5 L 240 200.5 L 241.5 196 Z " /><path fill="rgb(255,255,255)" stroke="rgb(255,255,255)" stroke-width="0" opacity="1" d="M 278.5 201 Q 287.1 208.6 289 222 L 286 223.5 L 286 225.5 L 291 230.5 L 291 242 L 286 244 L 283 248.5 L 282.5 252 L 281 247.5 L 281 228.5 L 280 227.5 L 280 213.5 L 279 212.5 L 278.5 201 Z " /><path fill="rgb(255,255,255)" stroke="rgb(255,255,255)" stroke-width="0" opacity="1" d="M 293 204 Q 304.4 207.3 311 216.5 L 320 234.5 L 344 307.5 L 344 310.5 Q 336.8 318 323 318 L 315 279.5 L 315 246.5 L 311 233.5 L 308.5 231 Q 305.1 230.1 307 235.5 L 311 249.5 L 311 269.5 L 310 273.5 L 316 307 L 299.5 309 L 298 310.5 L 300 335.5 L 304 345 Q 307.6 348.1 316.5 347 L 321.5 345 L 323 347.5 L 326 373.5 Q 319.1 379.6 308.5 382 L 289 384 L 288 379.5 L 288 361.5 L 287 360.5 L 287 344.5 L 286 343.5 L 286 326.5 L 285 325.5 L 285 309.5 L 284 308.5 L 284 288.5 L 283 287.5 L 282 257.5 L 283 257.5 L 283 260.5 L 287.5 266 Q 291.2 269.3 299.5 268 L 307 261.5 Q 309.7 257.7 308 249.5 L 302.5 243 L 301 242.5 L 301 231.5 L 298 215.5 L 293 204 Z " /><path fill="rgb(255,255,255)" stroke="rgb(255,255,255)" stroke-width="0" opacity="1" d="M 242.5 210 L 261.5 229 L 263.5 229 L 274.5 211 L 276 215.5 L 277 256.5 L 278 257.5 L 278 276.5 L 279 277.5 L 279 294.5 L 280 295.5 L 280 314.5 L 281 315.5 L 281 325 L 274.5 325 L 273.5 326 L 251.5 326 L 250 323.5 L 251 322.5 L 251 300.5 L 252 299.5 L 252 257.5 L 251 256.5 L 251 249.5 L 247 227.5 L 242.5 210 Z " /><path fill="rgb(255,255,255)" stroke="rgb(255,255,255)" stroke-width="0" opacity="1" d="M 227.5 225 L 230 226.5 L 227.5 230 L 227.5 225 Z " /><path fill="rgb(255,255,255)" stroke="rgb(255,255,255)" stroke-width="0" opacity="1" d="M 295.5 244 L 303 248.5 Q 305.3 251.7 304 258.5 L 300.5 263 L 292.5 264 L 287 259.5 L 286 252.5 L 290.5 246 L 295.5 244 Z M 294 247 L 289 252 L 290 259 Q 292 262 299 261 L 303 256 L 302 251 Q 300 246 294 247 Z " /><path fill="rgb(255,255,255)" stroke="rgb(255,255,255)" stroke-width="0" opacity="1" d="M 295.5 250 L 299 252.5 Q 300 257 297.5 258 Q 293.8 258.8 293 256.5 Q 291.8 250.4 294.5 251 L 295.5 250 Z " /><path fill="rgb(255,255,255)" stroke="rgb(255,255,255)" stroke-width="0" opacity="1" d="M 239.5 280 Q 243.3 278.8 242 282.5 Q 240.8 285 237 284 L 239.5 280 Z " /><path fill="rgb(255,255,255)" stroke="rgb(255,255,255)" stroke-width="0" opacity="1" d="M 222.5 281 L 226 283.5 Q 227.3 287.7 222.5 286 Q 217.5 283.5 222.5 281 Z " /><path fill="rgb(255,255,255)" stroke="rgb(255,255,255)" stroke-width="0" opacity="1" d="M 212.5 298 L 221 305.5 L 223 309.5 L 218.5 311 Q 216.8 307.3 215 310.5 Q 215.8 313.1 212.5 312 L 211.5 313 L 200.5 314 L 197 313 L 202.5 305 L 212.5 298 Z " /><path fill="rgb(255,255,255)" stroke="rgb(255,255,255)" stroke-width="0" opacity="1" d="M 316.5 309 L 322 341.5 Q 318.1 345.6 308.5 344 L 305 341.5 L 302 330.5 L 301 311.5 L 303.5 311 Q 312.1 312.1 316.5 309 Z " /><path fill="rgb(255,255,255)" stroke="rgb(255,255,255)" stroke-width="0" opacity="1" d="M 341.5 317 Q 344.8 315.9 344 318.5 Q 350.1 325.9 349 340.5 L 347 347.5 L 343.5 352 L 341.5 353 L 341 348.5 Q 344.5 344.5 343 335.5 L 339.5 328 Q 336.8 329.3 338 334.5 Q 340.3 335.8 339 340.5 Q 337.3 344.8 335.5 342 Q 332.9 342.8 334 339.5 L 333 335.5 L 328 328.5 L 327 322 Q 335.9 321.6 341.5 317 Z " /><path fill="rgb(255,255,255)" stroke="rgb(255,255,255)" stroke-width="0" opacity="1" d="M 277.5 329 Q 283.6 327.2 281 334.5 L 282 335.5 L 284 383.5 L 287.5 388 L 299.5 388 L 309 386 L 307 423.5 L 306 424.5 L 306 436.5 L 305 437.5 L 305 449.5 L 303.5 451 L 294.5 454 L 282.5 455 L 281.5 454 L 270.5 453 L 266 450.5 L 265 389.5 L 264 388.5 L 264 352.5 L 265 347.5 L 269 342 Q 264 341.2 262 344.5 L 249 406.5 L 249 411.5 L 243 439.5 L 242 451.5 L 239.5 454 L 231.5 456 L 216.5 456 L 207.5 454 L 202 450.5 L 206 387 L 222.5 390 L 242.5 390 L 246 386.5 L 247 381.5 L 247 368.5 L 248 367.5 L 250 330 L 276.5 330 L 277.5 329 Z " /><path fill="rgb(255,255,255)" stroke="rgb(255,255,255)" stroke-width="0" opacity="1" d="M 325.5 332 L 329 338.5 L 326.5 344 L 325.5 332 Z " /><path fill="rgb(255,255,255)" stroke="rgb(255,255,255)" stroke-width="0" opacity="1" d="M 331.5 343 L 333 345.5 L 331.5 348 L 331.5 343 Z " /><path fill="rgb(255,255,255)" stroke="rgb(255,255,255)" stroke-width="0" opacity="1" d="M 337.5 346 L 338 348.5 L 336.5 353 L 335 349.5 L 337.5 346 Z " /><path fill="rgb(255,255,255)" stroke="rgb(255,255,255)" stroke-width="0" opacity="1" d="M 301.5 456 L 314 463.5 Q 314.5 467.5 311.5 468 Q 306.1 471.1 296.5 470 L 281.5 466 L 269 458.5 Q 268.3 456.3 270.5 457 Q 278.8 460.7 292.5 459 L 301.5 456 Z " /><path fill="rgb(255,255,255)" stroke="rgb(255,255,255)" stroke-width="0" opacity="1" d="M 205.5 458 L 213.5 460 L 226.5 461 L 236.5 459 L 234 462.5 Q 234.8 464.8 232.5 464 Q 224.7 474.7 205.5 474 L 199 470.5 L 198 467.5 L 205.5 458 Z " /><path fill="rgb(255,255,255)" stroke="rgb(255,255,255)" stroke-width="0" opacity="1" d="M 267.5 462 Q 280.7 473.8 305.5 474 L 316 470 L 318.5 466 L 328 473.5 L 330 480.5 L 327.5 484 L 317.5 487 L 308.5 487 L 292.5 484 L 274.5 478 L 268 473.5 Q 265.3 469.6 267.5 462 Z " /><path fill="rgb(255,255,255)" stroke="rgb(255,255,255)" stroke-width="0" opacity="1" d="M 237.5 465 L 238 473.5 L 228.5 484 L 212.5 493 L 197.5 494 L 189 489.5 L 188 482.5 L 194.5 471 Q 199.5 480.5 216.5 478 Q 229.8 474.3 237.5 465 Z " /><path fill="rgb(0,0,0)" stroke="rgb(0,0,0)" stroke-width="0" opacity="1" d="M 177.5 13 L 190.5 13 L 191 15.5 L 189.5 17 L 180.5 17 L 173 23.5 Q 170.5 27 172 34.5 L 173 36.5 L 166 41.5 Q 162.7 45.2 164 53.5 L 171 62.5 Q 167 64.5 169 72.5 L 172.5 77 L 176 78 Q 179.5 64.3 190.5 57 Q 192.8 57.8 192 55.5 Q 198.9 45.4 211.5 41 L 220.5 40 L 223.5 37 L 234.5 33 L 247.5 33 L 252.5 34 L 253.5 33 L 268.5 33 L 281 38 Q 283 26.2 276.5 22 Q 273.3 19 267 20 L 266 13 L 271 13 Q 269.9 15.7 272.5 15 L 282 20.5 Q 287.5 25.5 286 37.5 L 285 40 Q 300.2 42.9 308 54.5 L 310.5 58 L 316 62.5 L 321 71.5 Q 322.2 82.8 327 90.5 L 327 105.5 L 326 106.5 L 326 115.5 L 324 120.5 L 332 126.5 Q 335 131.5 334 140.5 L 328 152.5 L 328 158.5 L 326 162 Q 323.7 164.6 317.5 164 Q 316.3 161.8 315 164.5 Q 311.1 176.6 301.5 183 L 284 193.5 L 287.5 197 L 305.5 205 L 315 214.5 L 326 237.5 Q 335 273 348 304.5 L 349 311.5 L 347 314.5 L 353 328.5 L 353 343.5 Q 351.2 351.7 345.5 356 L 340.5 357 L 338.5 356 L 335.5 357 L 328.5 351 L 328 357.5 L 330 366.5 L 330 375.5 Q 324.4 382.6 314 384 L 313 389.5 L 312 415.5 L 311 416.5 L 310 445.5 Q 307.8 446.7 309 451.5 L 307 453.5 L 325.5 465 L 332 471.5 Q 335.2 474.8 334 482.5 L 329.5 488 L 321.5 491 L 303.5 491 Q 281.3 487 265 478 L 262 470.5 L 262 464.5 L 265 455.5 L 262 452.5 L 262 443.5 L 261 442.5 L 261 408.5 L 260 407.5 L 259.5 378 L 252 415.5 L 251 426.5 L 248 437.5 L 247 449.5 L 243.5 457 Q 240.1 456.1 242 461.5 L 243 462.5 L 243 472.5 L 241 477.5 L 230.5 488 L 217.5 496 L 202.5 499 L 191.5 497 L 185 491.5 Q 182.3 487.7 184 479.5 L 189 470.5 L 201 455.5 L 198 452.5 L 198 437.5 L 199 436.5 L 199 421.5 L 200 420.5 L 200 406.5 L 201 405.5 L 202 386.5 L 183.5 379 L 179 374.5 L 178 370.5 L 189 315.5 Q 177.2 304.8 169 290.5 Q 163 283 163 269.5 Q 174.3 232.8 198.5 209 Q 207.4 200.9 221.5 198 L 228 192.5 Q 214.6 187.4 206 177.5 L 203 172 L 195.5 176 L 192.5 176 L 186 170.5 Q 186.8 166.8 184.5 166 L 179 161.5 L 175 154.5 L 174 145.5 L 175 140.5 L 179 134.5 L 173 121.5 L 171 113.5 L 170 99.5 Q 172.8 97.8 171 91.5 L 174 83.5 L 167 78.5 Q 162.8 74.7 164 65.5 L 165 62.5 Q 157.1 58.9 159 45.5 Q 161 38 167 34.5 Q 165.7 25.2 169 20.5 L 175.5 14 L 177.5 13 Z M 236 38 Q 227 39 223 44 L 212 46 L 202 52 L 197 58 L 192 62 Q 184 68 180 79 L 175 98 L 176 114 L 182 132 Q 183 134 185 132 L 191 133 L 193 129 Q 195 119 191 115 L 199 105 L 199 94 L 208 90 Q 213 86 214 77 L 220 78 Q 227 78 232 74 L 238 67 L 245 70 Q 257 71 262 64 L 270 69 Q 280 71 285 67 L 286 70 Q 290 77 302 76 L 306 86 L 311 89 L 314 93 L 314 102 L 318 109 L 320 121 L 322 113 L 321 109 L 323 101 L 322 91 L 318 84 L 318 78 L 313 67 L 306 60 L 303 56 L 291 46 L 285 44 L 280 44 L 275 40 L 268 38 L 255 38 L 254 39 L 236 38 Z M 262 70 L 255 74 Q 243 76 239 72 L 238 74 Q 232 83 217 82 L 214 90 Q 210 95 204 96 Q 205 110 196 116 L 197 118 L 197 130 L 196 131 Q 194 137 197 139 Q 198 142 196 143 L 193 140 Q 191 136 184 137 L 179 144 Q 178 155 183 160 L 187 162 L 193 159 L 198 160 L 200 159 L 207 172 L 221 184 L 240 192 L 251 193 L 252 194 L 265 194 L 276 192 Q 290 187 301 178 Q 308 171 312 162 L 315 152 L 315 143 L 316 142 L 314 110 L 310 103 L 309 98 Q 311 92 308 93 Q 301 90 300 82 L 288 77 L 283 72 L 278 74 Q 267 74 262 70 Z M 322 125 L 319 128 L 320 132 L 325 131 L 326 134 Q 322 133 321 137 L 323 140 Q 324 144 321 143 L 321 140 L 320 148 L 325 149 L 329 142 L 329 131 L 328 129 Q 326 125 322 125 Z M 319 151 L 317 159 Q 318 161 322 160 Q 325 159 324 154 L 319 151 Z M 192 163 Q 189 164 190 170 L 194 172 L 199 169 L 198 165 Q 197 162 192 163 Z M 236 196 Q 226 203 227 221 L 234 224 L 234 228 L 229 234 L 229 237 L 237 240 L 243 249 L 242 254 L 245 264 L 245 279 L 246 280 L 245 286 L 242 288 Q 236 289 234 287 L 233 285 L 234 280 L 240 276 L 241 273 L 239 258 L 236 253 L 230 247 L 224 248 L 220 252 L 218 259 L 218 269 L 220 277 L 222 278 L 228 279 Q 231 281 230 287 L 226 290 L 218 288 Q 216 286 217 280 L 213 267 L 213 259 L 211 257 Q 210 243 219 240 L 217 231 L 217 213 L 220 205 L 220 203 L 205 210 Q 180 233 168 269 L 168 278 L 173 289 L 192 312 L 197 305 Q 203 297 213 294 L 199 274 L 192 267 L 192 264 Q 197 264 200 268 L 208 252 Q 207 249 210 250 L 210 257 L 206 266 L 206 277 L 217 292 L 218 297 L 225 304 L 228 311 L 225 340 L 222 347 L 216 351 Q 199 353 191 347 L 189 344 L 200 348 L 216 348 L 218 347 L 222 340 L 223 327 L 224 326 L 224 314 L 205 318 L 193 317 L 185 356 L 183 373 L 186 375 L 197 380 L 213 384 L 229 385 L 230 386 Q 238 387 242 385 L 243 363 L 244 362 L 244 348 L 245 347 L 245 333 L 246 332 L 247 283 L 248 282 L 247 252 L 243 230 L 237 208 L 236 196 Z M 242 196 L 240 201 L 251 214 L 262 224 L 263 224 L 274 205 L 272 197 L 260 199 L 248 198 L 242 196 Z M 280 196 L 287 205 L 292 216 L 295 230 L 295 242 L 297 241 L 297 230 L 294 216 L 286 201 L 280 196 Z M 229 197 L 223 206 L 221 214 Q 219 228 223 238 Q 225 243 222 242 L 215 251 L 216 255 L 217 250 Q 220 245 227 243 L 234 245 L 238 249 L 236 244 Q 233 241 227 241 L 225 240 L 223 231 Q 220 209 229 199 L 229 197 Z M 279 201 L 279 213 L 280 214 L 280 228 L 281 229 L 281 248 L 283 252 L 283 249 L 286 244 L 291 242 L 291 231 L 286 226 L 286 224 L 289 222 Q 287 209 279 201 Z M 293 204 L 298 216 L 301 232 L 301 243 L 303 243 L 308 250 Q 310 258 307 262 L 300 268 Q 291 269 288 266 L 283 261 L 283 258 L 282 258 L 283 288 L 284 289 L 284 309 L 285 310 L 285 326 L 286 327 L 286 344 L 287 345 L 287 361 L 288 362 L 288 380 L 289 384 L 309 382 Q 319 380 326 374 L 323 348 L 322 345 L 317 347 Q 308 348 304 345 L 300 336 L 298 311 L 300 309 L 316 307 L 310 274 L 311 270 L 311 250 L 307 236 Q 305 230 309 231 L 311 234 L 315 247 L 315 280 L 323 318 Q 337 318 344 311 L 344 308 L 320 235 L 311 217 Q 304 207 293 204 Z M 244 211 L 243 215 L 247 228 L 251 250 L 251 257 L 252 258 L 252 300 L 251 301 L 251 323 L 250 324 L 252 326 L 274 326 L 275 325 L 281 325 L 281 316 L 280 315 L 280 296 L 279 295 L 279 278 L 278 277 L 278 258 L 277 257 L 276 216 L 275 211 L 264 229 L 262 229 L 244 211 Z M 228 225 L 228 230 L 230 227 L 228 225 Z M 296 244 L 291 246 L 286 253 L 287 260 L 293 264 L 301 263 L 304 259 Q 305 252 303 249 L 296 244 Z M 240 280 L 237 284 Q 241 285 242 283 Q 243 279 240 280 Z M 223 281 Q 218 284 223 286 Q 227 288 226 284 L 223 281 Z M 213 298 L 203 305 L 197 313 L 201 314 L 212 313 L 213 312 Q 216 313 215 311 Q 217 307 219 311 L 223 310 L 221 306 L 213 298 Z M 317 309 Q 312 312 304 311 L 301 312 L 302 331 L 305 342 L 309 344 Q 318 346 322 342 L 317 309 Z M 342 317 Q 336 322 327 322 L 328 329 L 333 336 L 334 340 Q 333 343 336 342 Q 337 345 339 341 Q 340 336 338 335 Q 337 329 340 328 L 343 336 Q 345 345 341 349 L 342 353 L 344 352 L 347 348 L 349 341 Q 350 326 344 319 Q 345 316 342 317 Z M 278 329 L 277 330 L 250 330 L 248 368 L 247 369 L 247 382 L 246 387 L 243 390 L 223 390 L 206 387 L 202 451 L 208 454 L 217 456 L 232 456 L 240 454 L 242 452 L 243 440 L 249 412 L 249 407 L 262 345 Q 264 341 269 342 L 265 348 L 264 353 L 264 389 L 265 390 L 266 451 L 271 453 L 282 454 L 283 455 L 295 454 L 304 451 L 305 450 L 305 438 L 306 437 L 306 425 L 307 424 L 309 386 L 300 388 L 288 388 L 284 384 L 282 336 L 281 335 Q 284 327 278 329 Z M 326 332 L 327 344 L 329 339 L 326 332 Z M 332 343 L 332 348 L 333 346 L 332 343 Z M 338 346 L 335 350 L 337 353 L 338 349 L 338 346 Z M 302 456 L 293 459 Q 279 461 271 457 Q 268 456 269 459 L 282 466 L 297 470 Q 306 471 312 468 Q 315 467 314 464 L 302 456 Z M 206 458 L 198 468 L 199 471 L 206 474 Q 225 475 233 464 Q 235 465 234 463 L 236 460 L 228 460 L 227 461 L 214 460 L 206 458 Z M 268 462 Q 265 470 268 474 L 275 478 L 293 484 L 309 487 L 318 487 L 328 484 L 330 481 L 328 474 L 319 466 L 316 470 L 306 474 Q 281 474 268 462 Z M 238 465 Q 230 474 217 478 Q 200 480 195 471 L 188 483 L 189 490 L 198 494 L 213 493 L 229 484 L 238 474 L 238 465 Z " /><path fill="rgb(0,0,0)" stroke="rgb(0,0,0)" stroke-width="0" opacity="1" d="M 284.5 94 L 292.5 94 L 301 98 L 303 101.5 L 303 104.5 Q 301.8 107.3 300.5 105 L 292.5 102 L 285.5 102 L 281.5 103 Q 279 102 280 97.5 L 284.5 94 Z " /><path fill="rgb(0,0,0)" stroke="rgb(0,0,0)" stroke-width="0" opacity="1" d="M 225.5 99 Q 232.4 98.1 235 101.5 L 236 104.5 L 233.5 107 L 223.5 108 L 212.5 114 L 211 110.5 L 219.5 101 L 225.5 99 Z " /><path fill="rgb(0,0,0)" stroke="rgb(0,0,0)" stroke-width="0" opacity="1" d="M 289.5 114 Q 301.2 113.3 305 120.5 L 305 122 L 309 122 L 309 124 L 307 124.5 L 307 133.5 L 303.5 140 L 302 139.5 Q 305.8 136.3 304 127.5 L 298.5 120 L 291.5 118 L 284 122.5 L 285.5 123 Q 287.3 120.3 293.5 122 L 299 126.5 Q 301.7 129.8 301 136.5 L 295.5 144 L 287.5 145 L 280 139.5 Q 277 135.5 278 127.5 Q 279.4 119.4 285.5 116 L 289.5 114 Z M 287 126 Q 285 131 290 130 L 291 128 L 287 126 Z " /><path fill="rgb(0,0,0)" stroke="rgb(0,0,0)" stroke-width="0" opacity="1" d="M 223.5 120 Q 235 119 239 125.5 Q 243.7 130.3 243 140.5 L 240.5 144 L 239.5 142 Q 238.6 147.6 234.5 150 L 226.5 151 L 220 146.5 Q 217.3 143.2 218 136.5 Q 219.4 130.4 224.5 128 Q 235.3 126.2 238 132.5 L 240.5 142 L 241 136.5 Q 239.4 129.6 234.5 126 Q 231.6 123.4 225.5 124 Q 219.8 125.3 217 129.5 Q 213.5 133.5 215 142.5 L 218 147.5 L 216.5 148 L 213 143.5 L 211 135.5 L 209 133.5 L 212 132 Q 212.9 126.1 217.5 123 L 223.5 120 Z M 226 132 Q 224 137 229 136 L 230 134 L 226 132 Z " /><path fill="rgb(0,0,0)" stroke="rgb(0,0,0)" stroke-width="0" opacity="1" d="M 185.5 143 Q 192.4 142.1 194 146.5 Q 196.8 148.5 196 153 L 191 152 L 190.5 156 L 188 152.5 L 191 148.5 L 185.5 146 L 183 147 Q 181.5 143.2 184.5 144 L 185.5 143 Z " /><path fill="rgb(0,0,0)" stroke="rgb(0,0,0)" stroke-width="0" opacity="1" d="M 268 143 L 275 144 L 277 147.5 L 277 152.5 L 273.5 157 Q 269.2 160.7 259.5 159 L 256 156.5 Q 254.8 152.8 258.5 154 Q 260.8 157.2 267.5 156 L 273 152.5 Q 274.3 147.3 271.5 146 L 268 145 L 268 143 Z " /><path fill="rgb(0,0,0)" stroke="rgb(0,0,0)" stroke-width="0" opacity="1" d="M 281.5 160 L 287 163.5 L 283 166.5 L 276.5 174 L 270.5 177 L 258.5 178 Q 246.8 176.1 241.5 168 L 238 168 Q 237.3 164.2 240.5 163 L 243.5 162 Q 246.2 163.3 244 164.5 L 248.5 170 L 258.5 174 L 265.5 174 Q 275.2 172.2 280 165.5 L 281 163.5 L 280 161.5 L 281.5 160 Z " /><path fill="rgb(0,0,0)" stroke="rgb(0,0,0)" stroke-width="0" opacity="1" d="M 293.5 247 Q 300.4 246.1 302 250.5 L 303 255.5 L 298.5 261 Q 292 262 290 258.5 L 289 251.5 L 293.5 247 Z M 296 250 L 295 251 Q 292 250 293 257 Q 294 259 298 258 Q 300 257 299 253 L 296 250 Z " /></svg>