<svg width="627" height="627" preserveAspectRatio="xMidYMid meet" viewBox="0 0 512 512" version="1.1" xmlns="http://www.w3.org/2000/svg" ><path fill="rgb(255,255,255)" stroke="rgb(255,255,255)" stroke-width="0" opacity="1" d="M 0 0 L 512 0 L 512 512 L 0 512 L 0 0 Z M 206 14 L 201 19 L 200 18 Q 191 17 187 21 Q 180 25 179 32 L 173 34 L 165 44 L 164 54 L 159 64 Q 158 73 162 78 L 161 80 L 161 91 Q 166 96 167 106 L 163 108 L 157 117 L 157 129 L 163 140 L 173 145 L 180 145 L 180 148 L 186 159 Q 196 173 215 179 L 201 184 L 186 193 L 173 208 L 156 242 L 157 245 L 164 249 L 156 278 L 151 303 Q 143 311 141 326 L 142 340 L 146 348 Q 148 354 157 352 L 159 352 L 165 352 L 172 348 Q 174 349 173 347 L 176 345 L 179 341 L 179 336 L 176 330 L 179 322 L 180 310 L 180 312 L 183 313 L 183 423 L 182 424 L 182 446 L 184 448 L 166 458 Q 158 463 156 473 Q 155 480 158 483 L 166 488 L 174 490 L 193 490 Q 194 488 199 489 L 211 484 L 217 484 L 227 480 L 231 475 L 231 455 L 230 454 Q 229 449 232 450 L 234 440 L 234 427 L 235 426 L 235 412 L 236 411 L 236 397 L 237 396 L 239 365 L 242 383 L 245 412 L 246 413 L 249 450 L 253 455 L 251 463 Q 249 473 252 480 L 267 492 Q 273 496 283 498 Q 303 500 313 492 L 316 487 Q 317 475 313 470 L 299 454 L 301 450 L 301 438 L 300 432 L 305 431 L 343 428 L 344 427 L 352 427 L 363 424 L 368 419 L 370 412 L 370 372 L 369 371 L 369 360 L 367 356 Q 361 348 347 349 L 346 340 L 344 336 L 337 330 Q 338 314 332 305 L 331 269 L 327 246 L 332 243 L 332 239 L 324 222 L 311 202 L 298 189 Q 284 181 267 178 L 284 169 Q 297 160 301 143 Q 310 144 315 140 Q 322 135 324 126 Q 326 115 322 110 L 313 103 L 315 94 L 319 86 Q 321 77 317 73 L 319 70 L 319 57 L 314 50 L 314 43 L 309 33 L 302 30 L 298 24 L 289 17 Q 279 19 277 14 L 267 15 L 272 16 L 276 22 L 289 22 L 292 24 L 296 30 L 296 33 L 305 36 L 309 43 L 309 51 Q 314 54 315 62 Q 315 68 312 72 L 314 78 L 314 86 L 310 92 Q 311 100 308 104 L 306 105 L 304 90 L 300 80 L 300 72 L 301 71 Q 295 65 295 54 L 293 51 L 285 50 L 280 46 Q 275 45 274 48 Q 262 50 258 44 L 251 47 Q 240 49 236 44 L 223 49 Q 216 49 213 46 L 210 46 L 207 49 L 201 51 L 192 49 L 190 52 L 183 56 L 182 66 L 178 74 L 178 87 L 175 94 L 175 107 L 174 107 L 171 104 L 170 96 L 165 86 L 167 79 L 164 71 L 164 64 L 169 56 Q 168 47 171 43 Q 174 37 182 36 L 184 31 L 194 23 Q 201 22 204 24 L 205 21 L 214 15 Q 224 13 228 18 L 232 15 L 206 14 Z M 250 14 L 254 18 L 261 15 L 250 14 Z " /><path fill="rgb(255,255,255)" stroke="rgb(255,255,255)" stroke-width="0" opacity="1" d="M 234.5 49 Q 239.7 53.4 250.5 52 L 256.5 49 Q 261.5 54.5 273.5 53 L 278.5 51 L 282.5 54 L 289.5 55 L 291 56.5 Q 290.8 66.2 296 70.5 L 296 82.5 L 300 92.5 L 301 120.5 L 297 142.5 Q 292.3 155.8 282.5 164 Q 273 172 259.5 176 L 250.5 178 L 228.5 178 L 216.5 175 L 205.5 170 L 191 157.5 Q 183.7 148.3 181 134.5 L 180 118.5 L 179 117.5 L 179 100.5 Q 181.8 98.7 180 92.5 L 183 83.5 L 183 76.5 L 183 74.5 L 186 68.5 L 187 59.5 L 188.5 58 L 193.5 54 L 194.5 55 L 203.5 55 L 212.5 51 Q 216.8 54.7 226.5 53 L 234.5 49 Z M 268 75 L 263 77 L 262 83 L 265 84 L 267 84 Q 278 84 285 89 Q 287 88 286 84 Q 281 75 268 75 Z M 205 77 L 200 79 L 193 87 Q 192 90 195 91 L 205 86 Q 212 88 216 85 Q 218 84 217 81 Q 215 75 205 77 Z M 273 96 L 265 99 Q 260 102 258 109 Q 256 117 259 121 L 261 120 L 262 124 L 268 128 L 276 127 L 281 121 Q 282 112 279 109 Q 276 103 267 105 L 261 110 L 263 106 L 269 101 Q 277 100 281 103 L 285 111 Q 287 120 282 124 L 284 124 L 288 117 Q 289 107 285 103 Q 281 97 273 96 Z M 205 98 L 200 100 Q 194 103 192 111 L 192 119 L 197 126 L 198 126 L 195 121 Q 194 112 197 108 Q 200 103 206 102 Q 212 101 215 104 L 220 112 L 220 114 L 219 112 L 213 106 L 205 107 L 199 115 L 200 124 L 207 129 Q 214 130 217 127 L 222 121 Q 224 108 218 103 L 211 98 L 205 98 Z M 233 123 L 226 129 L 227 138 L 235 142 L 247 141 L 250 136 L 245 138 Q 233 140 230 135 Q 229 129 231 127 L 236 126 Q 238 122 233 123 Z M 262 142 L 260 144 L 261 146 Q 256 153 245 155 L 231 154 L 221 149 L 220 146 Q 222 144 220 143 L 217 144 Q 213 145 214 149 L 217 149 Q 223 156 234 159 Q 245 160 253 157 L 267 147 L 266 144 L 262 142 Z " /><path fill="rgb(255,255,255)" stroke="rgb(255,255,255)" stroke-width="0" opacity="1" d="M 308.5 108 Q 313.9 107.4 316 109 L 319 114.5 L 319 125.5 L 312.5 136 Q 309.3 139 303 138 L 305 124 L 307 124 L 307 128 L 308.5 128 L 310 124.5 L 308 120.5 Q 309.5 116.8 315 118 L 312.5 114 Q 307.4 114.4 305.5 118 L 305 110.5 L 308.5 108 Z " /><path fill="rgb(255,255,255)" stroke="rgb(255,255,255)" stroke-width="0" opacity="1" d="M 268 109 L 272 110.5 L 270.5 113 Q 265.9 114.2 268 109 Z " /><path fill="rgb(255,255,255)" stroke="rgb(255,255,255)" stroke-width="0" opacity="1" d="M 169.5 110 L 175 112 L 174.5 120 Q 173.1 116.4 167.5 117 L 165 121 Q 171.3 119.5 173 123.5 Q 169.5 125.2 171 131 Q 174 132.3 173 128.5 L 176 127 L 178 140 Q 168.2 141.1 165 134.5 Q 161.2 129.8 161 121.5 L 163 114.5 L 166.5 111 L 169.5 110 Z " /><path fill="rgb(255,255,255)" stroke="rgb(255,255,255)" stroke-width="0" opacity="1" d="M 208.5 110 Q 213.1 108.8 211 114 Q 205.8 116.1 207 111.5 L 208.5 110 Z " /><path fill="rgb(255,255,255)" stroke="rgb(255,255,255)" stroke-width="0" opacity="1" d="M 259.5 180 Q 261.8 179.3 261 181.5 L 262 184.5 L 237.5 215 Q 226.5 202.5 219 186.5 Q 222 185.3 221 181 L 232.5 183 L 247.5 183 L 259.5 180 Z " /><path fill="rgb(255,255,255)" stroke="rgb(255,255,255)" stroke-width="0" opacity="1" d="M 268.5 183 Q 292.7 187.3 306 202.5 Q 319.3 218.7 327 240.5 Q 315 252.7 292 253 L 288 229.5 L 285.5 225 L 284 226.5 L 284 235.5 L 287 247.5 L 287 252.5 L 291 258.5 L 291 272.5 L 292 273.5 L 292 287.5 L 293 288.5 L 293 301.5 L 294 302.5 L 294 309 L 284.5 312 L 267.5 315 L 258.5 315 L 257.5 316 L 222.5 316 L 221.5 315 L 211.5 315 L 210.5 314 L 198.5 313 L 184 309 L 186 274.5 L 187 273.5 L 187 264.5 L 188 263.5 L 190 234.5 L 191 233.5 L 191 221 L 188 222.5 L 183.5 253 L 171.5 249 L 161 243 L 165 231.5 L 174 214.5 Q 180.5 203 190.5 195 L 196.5 191 L 213.5 184 Q 222.2 204.8 236.5 220 L 247 210.5 L 268.5 183 Z M 250 228 L 247 231 L 247 250 L 250 257 L 257 261 L 262 262 L 267 262 L 275 259 L 280 252 L 280 230 L 279 228 L 250 228 Z " /><path fill="rgb(255,255,255)" stroke="rgb(255,255,255)" stroke-width="0" opacity="1" d="M 251 231 L 275.5 231 L 277 232.5 L 277 248.5 L 272.5 256 Q 268.1 259.1 259.5 258 L 253 254.5 L 251 251.5 L 251 231 Z " /><path fill="rgb(255,255,255)" stroke="rgb(255,255,255)" stroke-width="0" opacity="1" d="M 322.5 249 L 325 258.5 L 326 276.5 L 327 277.5 L 327 303.5 L 332 318.5 L 332 332.5 L 327.5 341 L 325.5 342 L 325 340.5 Q 327.8 337.5 327 332 Q 323.2 330.5 324 333.5 L 318.5 343 L 315 344 Q 317.9 341.1 317 333.5 Q 315.5 330.5 314 333.5 Q 313.4 340.4 309.5 344 L 304.5 345 L 302 344 L 305 338.5 L 305 328.5 L 302.5 324 L 300 325.5 Q 301.1 328.8 298.5 328 L 295 329 L 296 318.5 L 304 306.5 L 305 302.5 L 304 301.5 L 304 292.5 L 298 257 Q 313 256.3 322.5 249 Z " /><path fill="rgb(255,255,255)" stroke="rgb(255,255,255)" stroke-width="0" opacity="1" d="M 168.5 252 L 184 257.5 L 183 258.5 L 181 290.5 L 175 304.5 L 174 310.5 Q 176.8 312.2 175 318.5 L 171 329.5 L 175 339.5 L 173 340.5 L 169 331 Q 165 329.6 167 336.5 L 170 343.5 L 168 344.5 L 162 332.5 L 162 329.5 L 168 320.5 L 165.5 319 L 159 325.5 Q 159 332 155.5 335 L 152 333.5 L 153 318 Q 148.9 316.3 150 320.5 Q 147 325.5 148 334.5 L 150.5 338 L 154 339 L 156 346.5 L 152.5 348 Q 144.1 340.9 146 323.5 L 149 314.5 L 156 301.5 L 160 280.5 L 168.5 252 Z " /><path fill="rgb(255,255,255)" stroke="rgb(255,255,255)" stroke-width="0" opacity="1" d="M 296.5 277 L 297 279.5 L 296 279.5 L 296.5 277 Z " /><path fill="rgb(255,255,255)" stroke="rgb(255,255,255)" stroke-width="0" opacity="1" d="M 297.5 282 L 300 304.5 L 298 305.5 L 297.5 282 Z " /><path fill="rgb(255,255,255)" stroke="rgb(255,255,255)" stroke-width="0" opacity="1" d="M 188 315 L 207.5 319 L 245.5 321 L 246.5 320 L 272.5 319 L 290 315 L 291 322.5 L 290 323.5 L 290 333 L 286 335.5 L 282 344.5 Q 283.8 351.3 280.5 353 Q 267.5 351.5 263 358.5 L 260 364.5 L 260 416.5 Q 261.1 423.9 266.5 427 L 281.5 432 L 291.5 433 L 296 432 L 296 446.5 L 297 447.5 L 285.5 453 L 270.5 454 L 269.5 453 L 258.5 452 L 254 450 L 251 417.5 L 250 416.5 L 250 408.5 L 249 407.5 L 249 399.5 L 247 392.5 L 245 372.5 L 241 355.5 L 240 344.5 L 236.5 339 L 229 337 Q 227.5 340.7 230.5 340 L 235 343.5 L 235 358.5 L 234 359.5 L 231 418.5 L 230 419.5 L 230 431.5 L 229 432.5 L 229 445.5 L 227.5 447 L 216.5 450 L 205.5 450 L 194.5 448 L 186 443.5 L 187 440.5 L 187 328.5 L 188 327.5 L 188 315 Z " /><path fill="rgb(255,255,255)" stroke="rgb(255,255,255)" stroke-width="0" opacity="1" d="M 296.5 333 Q 303.3 330.8 301 337.5 L 294 346.5 L 294 354 L 286 354 L 286 349.5 Q 288.3 348.3 287 343.5 L 291 336 L 296.5 333 Z " /><path fill="rgb(255,255,255)" stroke="rgb(255,255,255)" stroke-width="0" opacity="1" d="M 336.5 334 Q 343.8 338.6 342 351 L 336 351 L 336 344.5 Q 333.4 343.1 334 338.5 L 336.5 334 Z " /><path fill="rgb(255,255,255)" stroke="rgb(255,255,255)" stroke-width="0" opacity="1" d="M 160.5 335 L 164 346.5 L 160 348 L 158 337 Q 160.8 338 160.5 335 Z " /><path fill="rgb(255,255,255)" stroke="rgb(255,255,255)" stroke-width="0" opacity="1" d="M 329.5 344 Q 332.9 343.1 331 348.5 L 331.5 350 L 301 352 L 300 348 L 309.5 349 L 310.5 348 L 318.5 348 L 321.5 346 L 327.5 346 L 329.5 344 Z " /><path fill="rgb(255,255,255)" stroke="rgb(255,255,255)" stroke-width="0" opacity="1" d="M 344.5 354 Q 357.6 351.9 363 357.5 L 365 362.5 L 365 413.5 L 360.5 420 L 345.5 423 L 328.5 424 L 327.5 425 L 286.5 428 L 281 424.5 L 279 418.5 L 279 367.5 L 283.5 360 L 288.5 358 L 296.5 358 L 305.5 356 L 343.5 355 L 344.5 354 Z M 325 369 Q 323 372 318 370 L 315 373 L 316 383 L 315 384 L 306 384 L 303 388 Q 302 397 306 402 L 315 402 L 316 401 L 316 412 L 317 414 L 333 413 L 334 412 L 334 400 L 344 399 L 346 397 L 346 385 L 344 381 L 340 382 L 333 382 L 333 371 Q 331 367 325 369 Z " /><path fill="rgb(255,255,255)" stroke="rgb(255,255,255)" stroke-width="0" opacity="1" d="M 275.5 357 L 284 357.5 L 278 361.5 L 276 365.5 L 276 419.5 L 279 425.5 L 275.5 426 L 267 421.5 L 265 417.5 Q 266.5 412 264 410.5 L 264 368.5 Q 264.9 361.9 269.5 359 L 275.5 357 Z " /><path fill="rgb(255,255,255)" stroke="rgb(255,255,255)" stroke-width="0" opacity="1" d="M 329.5 372 L 330 385 L 342 385 L 342 390.5 L 343 394.5 L 341.5 396 L 333.5 396 L 330 398.5 L 331 400.5 L 331 410 L 320 411 L 319 398 Q 310.7 396.7 307 399 L 307 387 L 317.5 387 L 319 385.5 L 319 373 L 328.5 373 L 329.5 372 Z " /><path fill="rgb(255,255,255)" stroke="rgb(255,255,255)" stroke-width="0" opacity="1" d="M 187.5 450 L 200.5 454 L 219.5 454 L 226 453 L 227 465.5 L 221.5 469 L 197.5 477 L 175.5 478 L 166.5 476 L 161 471.5 L 167.5 462 L 176.5 457 L 185.5 457 L 195.5 463 L 198 463 L 193.5 457 L 183 453.5 L 187.5 450 Z " /><path fill="rgb(255,255,255)" stroke="rgb(255,255,255)" stroke-width="0" opacity="1" d="M 292.5 455 L 294.5 455 L 299 459.5 L 309 471.5 L 311 478.5 L 310 481 L 304.5 484 L 296.5 486 L 283.5 486 L 269.5 481 L 256 469.5 Q 255.2 460.9 257 456 L 265.5 458 L 282.5 458 L 292.5 455 Z M 285 461 L 277 464 L 273 468 L 275 469 L 287 464 L 299 464 L 299 462 L 297 461 L 285 461 Z " /><path fill="rgb(255,255,255)" stroke="rgb(255,255,255)" stroke-width="0" opacity="1" d="M 226.5 469 L 227 471.5 L 224.5 476 L 214.5 479 L 212.5 478 Q 205.6 483.1 195.5 485 L 178.5 486 L 165.5 483 L 161 479.5 L 161.5 476 L 173.5 481 L 192.5 481 L 205.5 478 Q 212.3 473.3 222.5 472 L 226.5 469 Z " /><path fill="rgb(255,255,255)" stroke="rgb(255,255,255)" stroke-width="0" opacity="1" d="M 256.5 474 Q 263.6 482.4 274.5 487 L 282.5 489 L 298.5 489 L 310.5 484 L 311 486.5 L 303.5 492 L 293.5 494 L 286.5 494 L 276.5 492 L 268.5 488 L 256 477.5 L 256.5 474 Z " /><path fill="rgb(0,0,0)" stroke="rgb(0,0,0)" stroke-width="0" opacity="1" d="M 205.5 14 L 232 14.5 L 227.5 18 Q 223.7 13.3 213.5 15 L 205 20.5 L 204 24 Q 200.6 22.3 193.5 23 L 184 30.5 L 181.5 36 Q 174.1 37.1 171 42.5 Q 167.5 46.5 169 55.5 L 164 63.5 L 164 70.5 L 167 78.5 L 165 85.5 L 170 95.5 L 171 103.5 L 173.5 107 L 175 106.5 L 175 93.5 L 178 86.5 L 178 73.5 L 182 65.5 L 183 56 L 190 51.5 L 191.5 49 L 200.5 51 L 206.5 49 L 209.5 46 L 212.5 46 Q 215.7 49.3 222.5 49 L 235.5 44 Q 239.6 48.9 250.5 47 L 257.5 44 Q 261.5 50 273.5 48 Q 274.9 45.4 279.5 46 L 284.5 50 L 292.5 51 L 295 53.5 Q 294.7 65.3 301 70.5 L 300 71.5 L 300 79.5 L 304 89.5 L 305.5 105 L 308 104 Q 310.9 100.1 310 91.5 L 314 85.5 L 314 77.5 L 312 71.5 Q 315.3 68.3 315 61.5 Q 313.9 54.1 309 50.5 L 309 42.5 L 304.5 36 L 296 32.5 L 296 29.5 L 291.5 24 L 288.5 22 L 276 22 L 271.5 16 L 267 14.5 L 276.5 14 Q 278.8 19.2 288.5 17 L 298 23.5 L 301.5 30 L 309 33 L 314 42.5 L 314 49.5 L 319 56.5 L 319 69.5 L 317 72.5 Q 320.5 76.5 319 85.5 L 315 93.5 L 313 102.5 L 322 109.5 Q 325.6 114.9 324 125.5 Q 321.6 135.1 314.5 140 Q 309.7 144.1 301 143 Q 296.7 159.9 283.5 169 L 267 177.5 Q 284.2 181.3 297.5 189 L 311 201.5 L 324 221.5 L 332 238.5 L 332 242.5 L 327 246 L 331 268.5 L 332 304.5 Q 338 314.2 337 330 L 344 335.5 L 346 339.5 L 347 349 Q 361.3 347.5 367 355.5 L 369 359.5 L 369 370.5 L 370 371.5 L 370 411.5 L 368 418.5 L 362.5 424 L 351.5 427 L 343.5 427 L 342.5 428 L 304.5 431 L 300 432 L 301 437.5 L 301 449.5 L 299 453.5 L 313 469.5 Q 317.2 475.3 316 486.5 L 313 492 Q 303.2 499.9 282.5 498 Q 273 496.5 266.5 492 L 252 479.5 Q 249.2 473.3 251 462.5 L 253 454.5 L 249 449.5 L 246 412.5 L 245 411.5 L 242 382.5 L 238.5 365 L 237 395.5 L 236 396.5 L 236 410.5 L 235 411.5 L 235 425.5 L 234 426.5 L 234 439.5 L 232 450 Q 228.7 448.7 230 453.5 L 231 454.5 L 231 474.5 L 226.5 480 L 216.5 484 L 210.5 484 L 198.5 489 Q 193.7 487.7 192.5 490 L 173.5 490 L 165.5 488 L 158 482.5 Q 155 479.5 156 472.5 Q 158 462.5 165.5 458 L 184 447.5 L 182 445.5 L 182 423.5 L 183 422.5 L 183 313 L 180 311.5 L 179.5 310 L 179 321.5 L 176 329.5 L 179 335.5 L 179 340.5 L 175.5 345 L 173 346.5 Q 173.8 348.8 171.5 348 L 164.5 352 L 158.5 352 L 156.5 352 Q 147.5 353.5 146 347.5 L 142 339.5 L 141 325.5 Q 143.5 311.5 151 302.5 L 156 277.5 L 164 249 L 157 244.5 L 156 241.5 L 173 207.5 L 185.5 193 L 200.5 184 L 215 178.5 Q 195.9 173.1 186 158.5 L 180 147.5 L 180 145 L 172.5 145 L 163 140 L 157 128.5 L 157 116.5 L 162.5 108 L 167 105.5 Q 165.7 96.3 161 90.5 L 161 79.5 L 162 77.5 Q 158 73 159 63.5 L 164 53.5 L 165 43.5 L 172.5 34 L 179 32 Q 180.4 24.7 186.5 21 Q 190.6 17.1 199.5 18 L 200.5 19 L 205.5 14 Z M 235 49 L 227 53 Q 217 55 213 51 L 204 55 L 195 55 L 194 54 L 189 58 L 187 60 L 186 69 L 183 75 L 183 77 L 183 84 L 180 93 Q 182 99 179 101 L 179 118 L 180 119 L 181 135 Q 184 148 191 158 L 206 170 L 217 175 L 229 178 L 251 178 L 260 176 Q 273 172 283 164 Q 292 156 297 143 L 301 121 L 300 93 L 296 83 L 296 71 Q 291 66 291 57 L 290 55 L 283 54 L 279 51 L 274 53 Q 262 55 257 49 L 251 52 Q 240 53 235 49 Z M 309 108 L 305 111 L 306 118 Q 307 114 313 114 L 315 118 Q 310 117 308 121 L 310 125 L 309 128 L 307 128 L 307 124 L 305 124 L 303 138 Q 309 139 313 136 L 319 126 L 319 115 L 316 109 Q 314 107 309 108 Z M 170 110 L 167 111 L 163 115 L 161 122 Q 161 130 165 135 Q 168 141 178 140 L 176 127 L 173 129 Q 174 132 171 131 Q 169 125 173 124 Q 171 120 165 121 L 168 117 Q 173 116 175 120 L 175 112 L 170 110 Z M 260 180 L 248 183 L 233 183 L 221 181 Q 222 185 219 187 Q 226 203 238 215 L 262 185 L 261 182 Q 262 179 260 180 Z M 269 183 L 247 211 L 237 220 Q 222 205 214 184 L 197 191 L 191 195 Q 180 203 174 215 L 165 232 L 161 243 L 172 249 L 184 253 L 188 223 L 191 221 L 191 234 L 190 235 L 188 264 L 187 265 L 187 274 L 186 275 L 184 309 L 199 313 L 211 314 L 212 315 L 222 315 L 223 316 L 258 316 L 259 315 L 268 315 L 285 312 L 294 309 L 294 303 L 293 302 L 293 289 L 292 288 L 292 274 L 291 273 L 291 259 L 287 253 L 287 248 L 284 236 L 284 227 L 286 225 L 288 230 L 292 253 Q 315 253 327 241 Q 319 219 306 203 Q 293 187 269 183 Z M 323 249 Q 313 256 298 257 L 304 293 L 304 302 L 305 303 L 304 307 L 296 319 L 295 329 L 299 328 Q 301 329 300 326 L 303 324 L 305 329 L 305 339 L 302 344 L 305 345 L 310 344 Q 313 340 314 334 Q 316 331 317 334 Q 318 341 315 344 L 319 343 L 324 334 Q 323 331 327 332 Q 328 338 325 341 L 326 342 L 328 341 L 332 333 L 332 319 L 327 304 L 327 278 L 326 277 L 325 259 L 323 249 Z M 169 252 L 160 281 L 156 302 L 149 315 L 146 324 Q 144 341 153 348 L 156 347 L 154 339 L 151 338 L 148 335 Q 147 326 150 321 Q 149 316 153 318 L 152 334 L 156 335 Q 159 332 159 326 L 166 319 L 168 321 L 162 330 L 162 333 L 168 345 L 170 344 L 167 337 Q 165 330 169 331 L 173 341 L 175 340 L 171 330 L 175 319 Q 177 312 174 311 L 175 305 L 181 291 L 183 259 L 184 258 L 169 252 Z M 297 277 L 296 280 L 297 280 L 297 277 Z M 298 282 L 298 306 L 300 305 L 298 282 Z M 188 315 L 188 328 L 187 329 L 187 441 L 186 444 L 195 448 L 206 450 L 217 450 L 228 447 L 229 446 L 229 433 L 230 432 L 230 420 L 231 419 L 234 360 L 235 359 L 235 344 L 231 340 Q 228 341 229 337 L 237 339 L 240 345 L 241 356 L 245 373 L 247 393 L 249 400 L 249 408 L 250 409 L 250 417 L 251 418 L 254 450 L 259 452 L 270 453 L 271 454 L 286 453 L 297 448 L 296 447 L 296 432 L 292 433 L 282 432 L 267 427 Q 261 424 260 417 L 260 365 L 263 359 Q 268 352 281 353 Q 284 351 282 345 L 286 336 L 290 333 L 290 324 L 291 323 L 290 315 L 273 319 L 247 320 L 246 321 L 208 319 L 188 315 Z M 297 333 L 291 336 L 287 344 Q 288 348 286 350 L 286 354 L 294 354 L 294 347 L 301 338 Q 303 331 297 333 Z M 337 334 L 334 339 Q 333 343 336 345 L 336 351 L 342 351 Q 344 339 337 334 Z M 161 335 Q 161 338 158 337 L 160 348 L 164 347 L 161 335 Z M 330 344 L 328 346 L 322 346 L 319 348 L 311 348 L 310 349 L 300 348 L 301 352 L 332 350 L 331 349 Q 333 343 330 344 Z M 345 354 L 344 355 L 306 356 L 297 358 L 289 358 L 284 360 L 279 368 L 279 419 L 281 425 L 287 428 L 328 425 L 329 424 L 346 423 L 361 420 L 365 414 L 365 363 L 363 358 Q 358 352 345 354 Z M 276 357 L 270 359 Q 265 362 264 369 L 264 411 Q 267 412 265 418 L 267 422 L 276 426 L 279 426 L 276 420 L 276 366 L 278 362 L 284 358 L 276 357 Z M 188 450 L 183 454 L 194 457 L 198 463 L 196 463 L 186 457 L 177 457 L 168 462 L 161 472 L 167 476 L 176 478 L 198 477 L 222 469 L 227 466 L 226 453 L 220 454 L 201 454 L 188 450 Z M 293 455 L 283 458 L 266 458 L 257 456 Q 255 461 256 470 L 270 481 L 284 486 L 297 486 L 305 484 L 310 481 L 311 479 L 309 472 L 299 460 L 295 455 L 293 455 Z M 227 469 L 223 472 Q 212 473 206 478 L 193 481 L 174 481 L 162 476 L 161 480 L 166 483 L 179 486 L 196 485 Q 206 483 213 478 L 215 479 L 225 476 L 227 472 L 227 469 Z M 257 474 L 256 478 L 269 488 L 277 492 L 287 494 L 294 494 L 304 492 L 311 487 L 311 484 L 299 489 L 283 489 L 275 487 Q 264 482 257 474 Z " /><path fill="rgb(0,0,0)" stroke="rgb(0,0,0)" stroke-width="0" opacity="1" d="M 249.5 14 L 261 14.5 L 253.5 18 L 249.5 14 Z " /><path fill="rgb(0,0,0)" stroke="rgb(0,0,0)" stroke-width="0" opacity="1" d="M 267.5 75 Q 281.4 74.6 286 83.5 Q 287 88 284.5 89 Q 278.3 83.7 266.5 84 L 264.5 84 L 262 82.5 L 263 77 L 267.5 75 Z " /><path fill="rgb(0,0,0)" stroke="rgb(0,0,0)" stroke-width="0" opacity="1" d="M 204.5 77 Q 214.8 74.8 217 80.5 Q 217.8 84.3 215.5 85 Q 212 87.5 204.5 86 L 194.5 91 Q 192.3 90.3 193 86.5 L 199.5 79 L 204.5 77 Z " /><path fill="rgb(0,0,0)" stroke="rgb(0,0,0)" stroke-width="0" opacity="1" d="M 272.5 96 Q 281.1 96.9 285 102.5 Q 289.3 106.7 288 116.5 L 283.5 124 L 282 123.5 Q 286.5 120 285 110.5 L 280.5 103 Q 276.8 99.7 268.5 101 L 263 105.5 L 261 109.5 L 266.5 105 Q 276.3 103.3 279 108.5 Q 282.3 112.2 281 120.5 L 275.5 127 L 267.5 128 L 262 123.5 L 260.5 120 L 259 120.5 Q 256.3 116.7 258 108.5 Q 259.5 102 264.5 99 L 272.5 96 Z M 268 109 Q 266 114 271 113 L 272 111 L 268 109 Z " /><path fill="rgb(0,0,0)" stroke="rgb(0,0,0)" stroke-width="0" opacity="1" d="M 204.5 98 L 210.5 98 L 218 102.5 Q 224 107.5 222 120.5 L 216.5 127 Q 213.5 130 206.5 129 L 200 123.5 L 199 114.5 L 204.5 107 L 212.5 106 L 218.5 111 L 219 109.5 L 214.5 104 Q 211.6 101.4 205.5 102 Q 199.8 103.3 197 107.5 Q 193.5 111.5 195 120.5 L 198 125.5 L 196.5 126 L 192 118.5 L 192 110.5 Q 193.8 103.3 199.5 100 L 204.5 98 Z M 209 110 L 207 112 Q 206 116 211 114 Q 213 109 209 110 Z M 220 111 L 219 114 L 220 114 L 220 111 Z " /><path fill="rgb(0,0,0)" stroke="rgb(0,0,0)" stroke-width="0" opacity="1" d="M 232.5 123 Q 237.8 121.5 236 126 L 231 127 Q 229.4 129.1 230 134.5 Q 233.3 140.2 244.5 138 L 250 136 L 246.5 141 L 234.5 142 L 227 137.5 L 226 128.5 L 232.5 123 Z " /><path fill="rgb(0,0,0)" stroke="rgb(0,0,0)" stroke-width="0" opacity="1" d="M 261.5 142 L 266 144 L 267 146.5 L 252.5 157 Q 245.3 160.3 233.5 159 Q 222.6 156.4 216.5 149 L 214 149 Q 213.3 145.2 216.5 144 L 219.5 143 Q 222.3 144.3 220 145.5 L 221 149 L 230.5 154 L 244.5 155 Q 255.8 153.3 261 145.5 L 260 143.5 L 261.5 142 Z " /><path fill="rgb(0,0,0)" stroke="rgb(0,0,0)" stroke-width="0" opacity="1" d="M 249.5 228 L 278.5 228 L 280 229.5 L 280 251.5 L 274.5 259 L 266.5 262 L 261.5 262 L 256.5 261 L 250 256.5 L 247 249.5 L 247 230.5 L 249.5 228 Z M 251 231 L 251 252 L 253 255 L 260 258 Q 268 259 273 256 L 277 249 L 277 233 L 276 231 L 251 231 Z " /><path fill="rgb(0,0,0)" stroke="rgb(0,0,0)" stroke-width="0" opacity="1" d="M 324.5 369 Q 331.2 367.3 333 370.5 L 333 382 L 339.5 382 L 343.5 381 L 346 384.5 L 346 396.5 L 343.5 399 L 334 400 L 334 411.5 L 332.5 413 L 317 414 L 316 411.5 L 315.5 401 L 314.5 402 L 305.5 402 Q 301.6 397.4 303 387.5 L 305.5 384 L 314.5 384 L 316 382.5 L 315 372.5 L 317.5 370 Q 323 371.5 324.5 369 Z M 330 372 L 329 373 L 319 373 L 319 386 L 318 387 L 307 387 L 307 399 Q 311 397 319 398 L 320 411 L 331 410 L 331 401 L 330 399 L 334 396 L 342 396 L 343 395 L 342 391 L 342 385 L 330 385 L 330 372 Z " /><path fill="rgb(0,0,0)" stroke="rgb(0,0,0)" stroke-width="0" opacity="1" d="M 284.5 461 L 296.5 461 L 299 462 L 298.5 464 L 286.5 464 L 274.5 469 L 273 467.5 L 276.5 464 L 284.5 461 Z " /></svg>