<svg width="627" height="627" preserveAspectRatio="xMidYMid meet" viewBox="0 0 512 512" version="1.1" xmlns="http://www.w3.org/2000/svg" ><path fill="rgb(254,255,254)" stroke="rgb(254,255,254)" stroke-width="0.6" opacity="1" d="M 0 0 L 512 0 L 512 512 L 0 512 L 0 0 Z M 120 65 L 115 67 L 112 71 L 112 87 L 111 88 L 112 98 L 117 101 L 118 103 L 118 161 L 53 204 Q 46 209 44 220 L 48 233 Q 52 239 61 242 L 71 243 L 72 245 L 71 408 L 64 410 L 60 416 L 60 441 L 61 443 L 67 447 L 105 447 L 106 446 L 452 446 L 454 445 L 457 440 L 456 413 Q 454 407 446 408 L 444 407 L 444 245 L 458 240 Q 466 234 469 223 Q 470 212 466 208 Q 457 197 445 190 L 382 149 L 278 85 L 260 77 Q 250 77 245 81 L 188 117 L 180 120 L 180 103 Q 185 100 186 94 Q 188 78 184 69 L 178 65 L 120 65 Z " /><path fill="rgb(246,201,54)" stroke="rgb(246,201,54)" stroke-width="0.6" opacity="1" d="M 255.5 131 L 259.5 131 L 265.5 134 L 268 134.5 L 269.5 140 L 278 139 L 279 144 L 284 143 L 285.5 148 L 287.5 149 L 289 148.5 L 290.5 150 L 300.5 158 L 303.5 158 L 306 158.5 L 307.5 161 L 313.5 165 L 316 164 L 318.5 168 L 321.5 170 Q 322.9 173.3 328 172 L 329.5 175 Q 333.3 173.8 332 177.5 L 334.5 181 L 340.5 182 L 344 181 L 344 184.5 L 348.5 190 L 354.5 190 Q 353.5 192.8 357.5 192 L 360 191 Q 359 195.7 362.5 197 L 371 200 Q 369.8 203 373.5 202 L 376 201 Q 373.3 208.1 380.5 206 L 388 211.5 L 389.5 214 L 393 214 Q 391.8 217 395.5 216 L 398 216.5 L 401.5 221 L 417.5 230 L 420 230.5 L 425.5 238 L 431 238 L 433 241.5 L 434 243.5 L 433 249.5 L 434 250.5 L 434 400.5 L 428.5 405 L 313.5 405 L 312 399 L 310 398.5 L 310 376 L 312 375.5 L 312 368 Q 308.3 369.2 310 364 L 312 364 L 312 358 L 310 357.5 L 310 350 L 312 350 L 312 344 Q 309 345 310 342 L 312 341.5 L 312 325 Q 308.3 326.2 310 321 L 312 320.5 L 312 313 L 310 312.5 L 310 303.5 L 309 293.5 L 310 288 L 307 286.5 L 308 283.5 L 305.5 278 L 301 276 Q 302.5 272.3 299.5 273 L 294 270 Q 295.3 266.7 290.5 268 L 288.5 264 L 285 265 L 283.5 262 L 280 262 L 278.5 264 L 275 263 Q 276.1 259.5 268.5 261 L 265 260 Q 266.2 264 260 262 Q 261.1 258.3 252.5 260 L 242 261 Q 243.3 264.3 238.5 263 L 232.5 262 L 231 265 L 228.5 266 L 226 266.5 Q 226.9 269.5 222.5 268 L 213 274.5 L 211 281 L 208 282.5 L 204 289.5 L 204 296.5 L 205 297.5 L 205 349.5 L 204 350.5 L 203.5 405 L 201.5 405 L 126.5 405 L 125.5 407 L 88.5 407 L 84.5 408 L 81 406.5 L 81 404.5 L 81 403 L 78 402.5 L 78 389 Q 81.7 390.5 81 387.5 L 80 383.5 L 81 380.5 L 80 375.5 L 81 368.5 L 80 361.5 L 81 353.5 L 80 345.5 L 81 335.5 L 80 332.5 L 81 329.5 L 80 328.5 L 80 312.5 L 81 311.5 L 82 241.5 L 83 239 L 86 237.5 Q 85.1 234.5 89.5 236 L 92 235 Q 90.5 231.2 93.5 232 L 95.5 232 L 98.5 230 L 119 218 L 120.5 216 L 126 212.5 Q 125.2 209.9 128.5 211 Q 130.8 207 136 207 Q 134.2 202.1 140.5 204 L 168 185.5 L 168.5 183 L 171.5 184 L 179 180 L 180 176 L 182.5 177 L 190 171.5 L 191.5 170 L 193.5 170 L 196 168.5 Q 194.9 165.2 197.5 166 L 198.5 167 L 202.5 163 L 206 161.5 Q 205.1 158.5 209.5 160 L 212 156 L 214.5 157 L 217 156 L 218.5 154 L 222 151.5 L 223.5 149 Q 231.8 149.8 234 144.5 L 234 142 L 238 142 L 239.5 140 L 241.5 141 L 245 138.5 L 246.5 137 L 255.5 131 Z M 405 261 L 404 262 L 381 262 L 380 264 L 374 264 L 374 262 L 360 262 L 359 264 Q 355 265 356 262 L 349 262 L 348 264 L 345 264 L 344 262 L 338 269 L 336 271 L 336 346 L 342 351 Q 342 354 350 352 Q 348 354 352 356 L 357 354 L 357 352 L 375 352 L 375 354 Q 381 356 380 352 L 412 352 L 413 353 L 418 350 Q 416 345 420 346 L 422 342 L 420 336 L 420 272 Q 417 270 421 269 L 419 264 L 416 265 L 414 264 Q 410 265 411 262 L 405 261 Z M 103 262 L 101 264 L 101 266 Q 97 264 98 268 Q 94 269 97 271 L 96 278 L 96 301 L 97 302 L 96 306 L 96 325 L 97 326 L 95 340 L 96 345 L 95 344 Q 90 343 92 347 L 102 353 L 110 352 L 111 355 L 114 354 L 115 352 L 164 352 L 164 354 Q 167 355 166 352 L 171 352 L 172 353 L 176 349 L 178 347 L 177 343 L 177 289 L 178 288 L 177 279 L 178 272 L 177 267 L 175 266 L 169 264 L 169 262 L 163 262 L 163 264 Q 157 266 158 262 L 146 262 L 145 264 L 114 264 L 113 262 L 103 262 Z " /><path fill="rgb(246,201,54)" stroke="rgb(246,201,54)" stroke-width="0.6" opacity="1" d="M 395 272 Q 402.8 269.9 401.5 275 L 406.5 275 Q 410.4 279.6 409 289.5 L 409 291.5 L 406.5 295 L 404 296.5 L 403 301.5 L 403.5 303 L 395.5 304 L 391 302.5 L 391.5 301 L 385 297.5 L 384 277 L 395 275 L 395 272 Z " /><path fill="rgb(246,201,54)" stroke="rgb(246,201,54)" stroke-width="0.6" opacity="1" d="M 146.5 275 L 161.5 276 L 164.5 275 L 166 276.5 L 166 295.5 L 161 301.5 L 161.5 303 L 152.5 304 L 142 302.5 L 142 300.5 L 141 278.5 Q 143.8 280.4 146.5 275 Z " /><path fill="rgb(246,201,54)" stroke="rgb(246,201,54)" stroke-width="0.6" opacity="1" d="M 392 312 L 408 312.5 L 408 314.5 L 408 342.5 L 406.5 344 L 399 343 L 397.5 341 L 393.5 340 L 391 341 Q 392.4 344.7 386.5 343 L 384 340.5 L 384 325.5 L 385 317.5 L 387.5 315 L 392 314 L 392 312 Z " /><path fill="rgb(246,201,54)" stroke="rgb(246,201,54)" stroke-width="0.6" opacity="1" d="M 83.5 415 L 90.5 416 L 305 416 Q 304 419 307 418 L 307.5 416 L 315.5 416 L 326.5 417 L 331.5 416 L 332.5 417 L 426.5 417 L 431.5 418 L 432.5 417 L 446.5 417 L 448 417.5 L 448.5 416 L 449 419.5 L 446 420.5 L 447 426.5 L 442.5 433 L 436 436.5 L 436.5 438 L 323.5 438 Q 324.3 434.8 319 436 Q 320.1 439.3 316 438 Q 317 435 314 436 Q 315.1 439.5 307.5 438 L 305.5 437 L 302 438 Q 303.1 434.7 299 436 L 298.5 438 L 286.5 438 L 277.5 437 L 268.5 438 Q 264.6 433.8 255 436 Q 256.3 439 252.5 438 L 251.5 437 L 222.5 437 L 220.5 436 L 218.5 437 L 216.5 436 L 205.5 438 L 194.5 436 L 182.5 437 L 177.5 436 L 176.5 437 L 163.5 437 L 162.5 436 L 146.5 436 L 135.5 438 L 134.5 437 L 72.5 436 L 70 435.5 L 70 420.5 L 71.5 419 L 83.5 415 Z " /><path fill="rgb(75,149,68)" stroke="rgb(75,149,68)" stroke-width="0.6" opacity="1" d="M 253.5 84 L 261.5 84 L 267.5 87 L 318 118.5 L 318.5 120 L 320.5 120 L 342 132 Q 340.8 135 344.5 134 L 355 140 L 356.5 142 L 377 154 L 378.5 156 L 397 167 L 397.5 169 Q 399 166.5 400.5 170 L 423 184.5 Q 422.2 187.1 425.5 186 L 428 187 L 429.5 190 L 443 197.5 L 443.5 199 L 445 198.5 Q 444.2 201.1 447.5 200 L 460 210.5 Q 463.3 214.2 462 222.5 L 459 227.5 Q 461.8 229.3 457.5 231 L 456 232.5 L 453.5 234 L 452 233.5 L 450.5 235 L 448.5 236 L 445.5 235 L 442.5 236 L 440 235 L 439.5 233 L 438 233.5 L 436.5 232 L 431 228.5 L 431.5 227 L 429.5 228 L 422 224 L 420.5 222 L 395.5 205 L 385 200 Q 386.3 197 382.5 198 L 380 197 Q 381.3 194 377.5 195 L 349 176.5 L 347.5 175 L 334 168 Q 335.8 163.5 330.5 165 L 320 159 L 319.5 157 Q 317.5 160 315.5 155 L 290 140 Q 291.3 137 287.5 138 L 259.5 121 L 258 121.5 L 257.5 120 L 240 129 L 238.5 131 L 215.5 146 L 211 147 L 209.5 149 L 205 151 L 203.5 153 L 195.5 158 L 194 157.5 L 191.5 161 L 187 162 L 185.5 164 L 179 167 L 179 169 L 176 169 L 174.5 171 L 165 176 L 163.5 178 L 154 183 L 152.5 185 L 142.5 192 L 141 191.5 L 139.5 193 L 123.5 204 L 121 204 L 119.5 206 L 116 207 L 114.5 209 L 103 215 L 101.5 217 L 97.5 220 L 96 219.5 L 93.5 223 L 91.5 224 L 89 224.5 L 87.5 227 L 85 227 L 83.5 229 L 71.5 236 L 65.5 235 L 62.5 236 L 55 230.5 L 52 225.5 L 53 223 Q 49 224.4 51 217.5 L 53 217.5 L 52 215.5 L 58.5 208 L 67 203.5 L 68.5 201 L 77.5 195 L 78.5 196 L 82.5 192 L 92 187 L 93.5 185 L 98.5 181 L 100 181.5 L 101.5 180 L 106 178 L 107.5 176 L 129.5 161 L 134 160 L 135.5 158 Q 137.8 154 143 154 L 144.5 152 L 152 148 L 153.5 146 L 179.5 129 L 182 129 L 183.5 127 L 188 125 L 189.5 123 L 204 115 L 205.5 113 L 217 107 L 218.5 105 L 233.5 95 L 240 93 L 241.5 91 L 250 87.5 L 249.5 86 L 253.5 84 Z M 259 88 L 258 90 L 252 93 L 251 96 L 253 98 Q 259 99 260 95 L 258 94 Q 257 90 260 91 L 259 88 Z M 275 97 L 274 100 Q 270 99 271 102 Q 277 104 279 100 L 275 97 Z M 238 98 L 236 100 L 238 103 L 241 104 L 242 102 L 238 98 Z M 215 112 L 214 114 L 212 113 L 210 116 L 214 115 L 216 120 L 221 119 Q 222 114 217 116 L 215 112 Z M 241 113 Q 238 117 242 116 Q 243 119 240 118 Q 239 122 244 120 L 245 116 L 241 113 Z M 274 114 L 271 117 L 273 118 L 273 121 L 271 120 L 269 121 L 274 122 L 278 115 L 274 114 Z M 232 121 L 230 126 Q 234 127 233 124 L 235 126 L 238 127 L 239 125 L 232 121 Z M 200 122 L 198 124 Q 199 128 206 127 L 207 125 L 200 122 Z M 210 127 L 208 129 L 210 134 L 213 129 L 210 127 Z M 303 127 L 301 129 L 304 134 L 309 136 L 310 135 L 305 131 L 306 129 L 303 127 Z M 184 131 L 177 136 Q 176 139 179 138 L 180 135 L 185 134 L 184 131 Z M 328 131 L 323 139 L 323 141 L 317 141 L 316 145 Q 316 151 320 153 L 321 150 L 319 144 L 326 143 L 329 137 L 329 134 Q 334 136 333 132 L 328 131 Z M 299 133 L 295 135 L 292 134 L 295 138 L 299 136 Q 304 138 303 135 L 299 133 Z M 345 140 L 344 142 L 346 143 L 345 148 L 342 151 L 347 152 L 348 149 L 347 144 L 350 143 L 345 140 Z M 161 145 L 161 147 L 169 149 Q 173 150 171 145 L 168 147 L 166 145 L 161 145 Z M 188 145 L 186 147 L 187 150 L 180 153 L 188 153 L 191 147 Q 192 143 188 145 Z M 335 154 L 335 159 L 331 161 L 337 163 L 336 159 L 339 158 L 335 154 Z M 363 155 L 365 159 L 369 158 L 370 160 L 372 159 L 373 157 L 372 155 L 363 155 Z M 146 156 L 140 159 Q 137 161 140 162 L 144 161 L 145 160 L 147 161 L 148 162 L 154 162 L 155 160 L 150 159 L 147 159 Q 148 155 146 156 Z M 157 163 L 155 165 L 156 167 L 156 169 Q 155 173 159 171 Q 158 165 161 164 L 157 163 Z M 128 167 L 124 169 L 123 172 Q 122 176 125 175 L 124 173 Q 125 169 130 170 L 131 173 Q 133 176 134 173 L 133 170 Q 132 166 128 167 Z M 161 167 L 160 174 L 161 176 L 164 174 L 163 171 Q 164 166 161 167 Z M 350 167 L 348 171 L 354 173 L 353 172 Q 352 167 356 169 L 356 167 L 350 167 Z M 399 173 L 395 180 L 400 179 L 401 177 Q 403 172 399 173 Z M 138 178 L 137 182 Q 136 186 141 184 L 141 187 L 149 183 Q 150 179 147 180 L 145 183 L 144 183 Q 145 179 140 181 Q 141 177 138 178 Z M 369 181 L 367 183 L 374 186 L 373 185 Q 375 179 369 181 Z M 407 181 L 408 184 L 407 184 Q 402 186 406 188 L 408 187 L 411 188 Q 414 187 411 185 L 409 184 L 411 184 L 413 183 L 407 181 Z M 123 189 L 121 191 Q 120 195 125 193 L 125 196 L 130 196 Q 131 193 128 194 L 127 192 Q 128 187 123 189 Z M 88 193 L 86 194 L 83 199 L 88 201 L 88 193 Z M 398 197 L 399 202 L 400 204 L 400 201 L 404 202 L 406 201 Q 404 196 403 199 L 401 197 L 398 197 Z M 439 199 L 434 203 L 435 205 L 433 206 L 439 209 L 436 205 Q 435 202 439 203 L 439 199 Z M 89 202 L 84 204 L 86 207 L 92 205 L 89 202 Z M 440 202 L 439 205 L 441 205 L 445 207 L 446 205 L 440 202 Z M 428 205 L 426 207 L 429 209 L 429 211 L 426 207 L 419 211 L 421 213 Q 422 209 424 212 L 426 214 L 432 214 L 430 211 L 432 211 L 434 208 Q 433 204 428 205 Z M 60 212 L 58 216 L 61 216 L 62 220 L 67 219 L 67 218 L 65 218 L 65 213 L 60 212 Z M 456 212 L 453 213 L 450 219 L 445 220 L 448 220 L 449 223 L 448 225 L 447 226 L 443 231 L 449 232 L 449 230 Q 448 226 453 228 L 451 225 Q 451 218 455 216 L 455 219 L 457 220 L 456 218 L 458 214 L 456 212 Z " /><path fill="rgb(75,149,68)" stroke="rgb(75,149,68)" stroke-width="0.6" opacity="1" d="M 125 103 L 171.5 103 L 172.5 104 L 174 103.5 L 173.5 125 L 172.5 115 L 171 128 L 163 131 L 163 133 L 160 133 L 158.5 135 L 146 142 L 144.5 144 L 135 149 L 135 151 L 132 151 L 130.5 153 L 125 156 L 125 103 Z M 134 106 L 132 109 L 132 110 L 140 108 Q 139 105 134 106 Z M 160 106 L 159 109 L 156 109 L 158 112 L 159 110 L 161 111 L 159 114 L 165 117 Q 166 121 168 118 L 167 116 L 165 112 L 165 110 Q 167 103 160 106 Z M 129 119 L 129 136 L 132 138 Q 136 139 135 137 L 132 135 L 133 132 L 131 129 L 131 120 L 129 119 Z M 151 126 L 151 131 L 154 130 L 155 132 L 157 131 Q 159 132 158 129 Q 156 125 151 126 Z " /><path fill="rgb(75,149,68)" stroke="rgb(75,149,68)" stroke-width="0.6" opacity="1" d="M 106.5 271 L 131.5 271 L 133 272.5 L 133 302.5 L 132 305 L 104 304.5 L 104 302.5 L 103 299.5 L 104 291.5 L 103 284.5 L 104 273.5 L 106.5 271 Z M 117 276 Q 116 279 120 278 L 122 282 L 125 278 L 125 276 L 117 276 Z M 118 289 L 116 293 L 118 295 L 119 292 L 121 293 L 122 296 L 120 295 L 118 296 Q 120 300 126 298 L 125 295 L 118 289 Z " /><path fill="rgb(75,149,68)" stroke="rgb(75,149,68)" stroke-width="0.6" opacity="1" d="M 346.5 271 L 373.5 271 L 375 272.5 L 375 303.5 L 373.5 305 L 346.5 305 L 345 303.5 L 345 272.5 L 346.5 271 Z M 355 276 L 357 280 L 353 279 L 351 279 L 351 284 L 355 283 L 357 284 L 360 283 L 359 281 L 360 278 L 355 276 Z " /><path fill="rgb(75,149,68)" stroke="rgb(75,149,68)" stroke-width="0.6" opacity="1" d="M 346.5 311 L 373.5 311 L 375 312.5 L 374 316.5 L 375 317.5 L 375 332.5 L 374 335.5 L 375 344 L 368.5 343 Q 364.5 346.5 355.5 345 L 349.5 343 L 345 344 L 345 312.5 L 346.5 311 Z M 370 314 L 365 316 L 364 322 L 371 323 Q 373 316 370 314 Z M 359 323 L 355 331 Q 354 334 357 333 L 359 329 L 363 326 Q 364 321 359 323 Z M 351 334 L 349 336 L 351 340 L 355 339 L 352 338 L 353 336 Q 354 333 351 334 Z " /><path fill="rgb(9,9,9)" stroke="rgb(9,9,9)" stroke-width="0.6" opacity="1" d="M 121.5 66 L 128.5 67 L 129.5 66 L 176.5 66 Q 182.1 66.5 184 70.5 L 184 97.5 L 181.5 100 L 179 101.5 L 179 120.5 L 180.5 122 L 246.5 81 L 258.5 78 L 268.5 81 L 349.5 130 L 454.5 198 L 465 207.5 Q 469.2 212.3 468 222.5 Q 465.9 232.9 458.5 238 L 443 243.5 L 442 407.5 Q 443.8 410.8 450.5 409 L 455 412.5 L 456 438.5 L 452.5 444 L 450.5 445 L 74.5 445 L 67.5 446 L 62 442.5 L 61 416.5 L 64.5 411 L 73 408.5 L 73 242.5 L 72.5 242 L 64.5 242 Q 55.1 239.9 50 233.5 Q 44.2 227.8 46 214.5 L 55.5 203 L 119 160.5 L 119 102.5 L 116.5 100 L 114 98.5 L 113 96.5 L 113 70.5 L 116.5 67 L 121.5 66 Z M 120 71 L 117 74 L 117 94 L 122 97 L 130 96 L 177 97 L 180 94 L 180 74 L 178 71 L 120 71 Z M 255 83 L 210 109 L 60 206 L 50 218 Q 49 227 54 231 L 64 237 L 75 236 Q 163 177 256 122 Q 263 121 267 125 L 444 237 Q 451 238 455 235 L 463 224 Q 465 215 461 211 L 452 202 L 347 134 L 268 86 Q 263 82 255 83 Z M 126 101 L 124 103 L 124 143 L 123 144 L 124 157 L 135 152 L 175 125 L 174 103 L 173 101 L 126 101 Z M 256 127 L 77 241 L 77 409 L 79 410 L 206 409 L 207 400 L 206 397 L 207 299 Q 208 286 214 279 Q 223 267 242 265 L 275 265 Q 286 266 294 271 Q 305 278 307 294 L 308 304 L 308 408 L 310 409 L 437 409 L 438 408 L 438 241 L 266 130 Q 263 126 256 127 Z M 246 269 L 234 271 L 224 276 L 215 286 L 211 303 L 211 408 L 213 409 L 302 409 L 303 408 L 303 296 L 297 281 Q 292 274 283 271 Q 267 267 246 269 Z M 237 413 L 236 414 L 69 414 L 66 417 L 66 440 L 68 441 L 193 441 L 194 440 L 210 440 L 211 441 L 254 441 L 255 440 L 259 441 L 261 440 L 450 440 L 451 439 L 451 416 L 449 413 L 237 413 Z " /><path fill="rgb(9,9,9)" stroke="rgb(9,9,9)" stroke-width="0.6" opacity="1" d="M 104.5 266 L 169.5 266 L 174 269.5 L 175 271.5 L 175 344.5 L 171.5 349 L 169.5 350 L 103.5 350 L 99 346.5 L 99 269.5 L 101.5 267 L 104.5 266 Z M 111 270 L 103 273 L 103 305 L 105 306 L 133 306 L 134 305 L 134 272 L 133 270 L 124 271 L 111 270 Z M 146 270 L 141 271 L 139 273 L 139 305 L 141 306 L 169 306 L 170 305 L 170 273 L 168 270 L 146 270 Z M 105 310 L 103 312 L 103 345 L 105 346 L 133 346 L 134 345 L 134 312 L 133 310 L 105 310 Z M 139 310 L 139 345 L 141 346 L 169 346 L 170 345 L 170 312 L 169 310 L 139 310 Z " /><path fill="rgb(9,9,9)" stroke="rgb(9,9,9)" stroke-width="0.6" opacity="1" d="M 344.5 266 L 411.5 266 L 415 268.5 L 416 271.5 L 416 345.5 L 413.5 349 L 410.5 350 L 344.5 350 L 341 347.5 L 340 345.5 L 340 270.5 L 342.5 267 L 344.5 266 Z M 347 270 L 345 272 L 345 305 L 347 306 L 375 306 L 376 305 L 376 272 L 375 270 L 347 270 Z M 382 270 L 380 272 L 380 305 L 382 306 L 411 306 L 412 305 L 412 273 L 410 270 L 382 270 Z M 345 310 L 345 345 L 347 346 L 375 346 L 376 345 L 376 312 L 375 310 L 345 310 Z M 382 310 L 380 312 L 380 345 L 382 346 L 410 346 L 412 344 L 412 312 L 411 310 L 382 310 Z " /><path fill="rgb(9,9,9)" stroke="rgb(9,9,9)" stroke-width="0.6" opacity="1" d="M 284.5 344 Q 290.9 343.6 293 347.5 L 294 356.5 L 290.5 361 L 284.5 362 L 278 357.5 L 277 352.5 L 280.5 346 L 284.5 344 Z M 284 348 Q 280 349 281 356 L 286 359 L 289 358 Q 292 357 291 351 Q 290 347 284 348 Z " /><path fill="rgb(222,169,51)" stroke="rgb(222,169,51)" stroke-width="0.6" opacity="1" d="M 120.5 72 L 177.5 72 L 179 73.5 L 179 93.5 L 177.5 95 L 119.5 95 L 118 93.5 L 118 74.5 L 120.5 72 Z " /><path fill="rgb(222,169,51)" stroke="rgb(222,169,51)" stroke-width="0.6" opacity="1" d="M 246.5 270 Q 266.6 268.4 281.5 272 Q 292.4 275.1 298 283.5 L 302 297.5 L 302 406.5 L 300.5 408 L 213.5 408 L 212 406.5 L 212 305.5 L 215 288.5 L 223.5 277 L 233.5 272 L 246.5 270 Z M 285 343 L 282 344 L 276 352 L 277 358 L 284 363 L 291 362 Q 295 360 296 354 L 294 348 Q 292 343 285 343 Z " /><path fill="rgb(222,169,51)" stroke="rgb(222,169,51)" stroke-width="0.6" opacity="1" d="M 139.5 274 L 140 295.5 L 139 295.5 L 139.5 274 Z " /><path fill="rgb(222,169,51)" stroke="rgb(222,169,51)" stroke-width="0.6" opacity="1" d="M 308.5 304 L 309 406.5 L 310 407.5 L 308 406.5 L 308.5 304 Z " /><path fill="rgb(222,169,51)" stroke="rgb(222,169,51)" stroke-width="0.6" opacity="1" d="M 105.5 311 L 131.5 311 L 133 312.5 L 133 343.5 L 131.5 345 L 105.5 345 L 104 343.5 L 104 312.5 L 105.5 311 Z " /><path fill="rgb(222,169,51)" stroke="rgb(222,169,51)" stroke-width="0.6" opacity="1" d="M 140 311 L 167.5 311 L 169 312.5 L 169 343.5 L 167.5 345 L 141.5 345 L 140 343.5 L 139 316.5 L 140 311 Z " /><path fill="rgb(222,169,51)" stroke="rgb(222,169,51)" stroke-width="0.6" opacity="1" d="M 283.5 349 Q 288.8 347.8 290 350.5 Q 291.3 355.8 288.5 357 Q 283.3 358.3 282 355.5 Q 280.8 350.3 283.5 349 Z " /><path fill="rgb(222,169,51)" stroke="rgb(222,169,51)" stroke-width="0.6" opacity="1" d="M 205.5 357 L 206 403.5 L 205 403.5 L 205.5 357 Z " /><path fill="rgb(222,169,51)" stroke="rgb(222,169,51)" stroke-width="0.6" opacity="1" d="M 96.5 408 L 114 408.5 L 96.5 409 L 96.5 408 Z " /><path fill="rgb(222,169,51)" stroke="rgb(222,169,51)" stroke-width="0.6" opacity="1" d="M 301.5 414 L 337 414.5 L 301.5 415 L 301.5 414 Z " /><path fill="rgb(222,169,51)" stroke="rgb(222,169,51)" stroke-width="0.6" opacity="1" d="M 341.5 414 L 364 414.5 L 341.5 415 L 341.5 414 Z " /><path fill="rgb(240,196,55)" stroke="rgb(240,196,55)" stroke-width="0.6" opacity="1" d="M 255.5 128 L 259.5 128 L 276 138 Q 277.1 141.5 269.5 140 L 266.5 133 L 263.5 134 Q 261.9 130.1 255.5 131 L 245 137 L 243.5 140 L 240.5 141 L 238 140 Q 239.2 143.7 234 142 L 234 144.5 L 222 150.5 L 220.5 153 L 217 154 L 215.5 156 L 213.5 156 L 212 157.5 Q 210.7 161 206 160 L 204.5 163 L 198.5 167 L 196 166 L 194.5 170 L 192.5 171 L 190 170 L 186.5 175 L 182.5 177 L 180 176 L 179 180 L 169 184 L 170.5 182 L 255.5 128 Z " /><path fill="rgb(240,196,55)" stroke="rgb(240,196,55)" stroke-width="0.6" opacity="1" d="M 284 144 L 343 180.5 L 340.5 182 L 333 179.5 L 332 175 L 328 173.5 Q 328.9 170.1 323.5 172 L 320 170 L 318.5 168 L 316 164 L 313.5 165 L 306 159.5 L 304.5 157 L 300.5 158 Q 297.2 150.7 289 150 L 288.5 148 L 286.5 148 L 284 146.5 L 284 144 Z " /><path fill="rgb(240,196,55)" stroke="rgb(240,196,55)" stroke-width="0.6" opacity="1" d="M 344 182 L 359 190.5 L 355 192 Q 356.1 188.5 348.5 190 L 344 184.5 L 344 182 Z " /><path fill="rgb(240,196,55)" stroke="rgb(240,196,55)" stroke-width="0.6" opacity="1" d="M 167.5 183 L 168 185.5 L 140.5 204 L 136 204 Q 137.5 207.7 134.5 207 L 126 211 L 123.5 215 L 119 216 L 117.5 218 L 97 230 L 95.5 232 L 93.5 232 L 90.5 235 L 86 236 L 84.5 239 L 83 240.5 L 81 266.5 L 80 328.5 L 81 331.5 L 80 334.5 L 81 344.5 L 80 352.5 L 81 360.5 L 80 367.5 L 81 374.5 L 80 379.5 L 81 382.5 L 80 386.5 L 81 389 L 78 388.5 L 78 281.5 L 79 280.5 L 79 240.5 L 81.5 238 L 167.5 183 Z " /><path fill="rgb(240,196,55)" stroke="rgb(240,196,55)" stroke-width="0.6" opacity="1" d="M 360 192 L 374 200.5 Q 374.7 203.5 371 202 Q 372.3 199 368.5 200 L 360 194.5 L 360 192 Z " /><path fill="rgb(240,196,55)" stroke="rgb(240,196,55)" stroke-width="0.6" opacity="1" d="M 376 202 L 437 240.5 L 437 406.5 L 435.5 408 L 310.5 408 L 309 406.5 L 309 304.5 L 308 291.5 Q 304.9 279.1 296.5 272 L 291 268.5 L 294 268 L 295.5 270 L 301 273 Q 299.5 276.8 302.5 276 L 307 279.5 L 308 284.5 L 307 286.5 L 310 288 L 309 302.5 L 310 313 L 312 313.5 L 312 321 Q 308.3 319.8 310 325 L 312 325.5 L 312 342 Q 309 341 310 344 L 312 344 L 312 350 L 310 350.5 L 310 358 L 312 358 L 312 364 Q 308.3 362.8 310 368 L 312 368.5 L 312 376 L 310 376.5 L 310 399 Q 313.7 397.6 312 403.5 L 313.5 405 L 428.5 405 L 434 400.5 L 434 250.5 L 433 244.5 L 434 242.5 L 433 240 Q 429.9 240.8 430.5 238 L 425.5 238 L 418.5 229 L 415.5 230 L 398 217.5 L 396.5 215 L 393 216 Q 394.3 212.7 389.5 214 L 386.5 210 L 380.5 206 L 376 206 L 376 202 Z " /><path fill="rgb(240,196,55)" stroke="rgb(240,196,55)" stroke-width="0.6" opacity="1" d="M 252.5 260 L 259.5 260 Q 258.7 263.5 265 262 Q 263.8 259 267.5 260 L 275 261 Q 273.8 264 277.5 263 L 280 264 Q 278.7 260.7 283.5 262 L 285 265 L 288.5 264 L 289.5 268 L 276.5 264 L 250.5 263 L 234.5 265 L 226.5 268 L 226 266.5 L 229.5 265 L 231 263.5 Q 232.3 260.8 237.5 262 L 242 263 L 242.5 261 L 251.5 261 L 252.5 260 Z " /><path fill="rgb(240,196,55)" stroke="rgb(240,196,55)" stroke-width="0.6" opacity="1" d="M 404.5 261 L 411 262 Q 409.8 265 413.5 264 L 415.5 265 L 418.5 264 L 421 268.5 Q 417.5 270 420 271.5 L 420 335.5 L 422 341.5 L 419.5 346 Q 416.5 345.1 418 349.5 L 412.5 353 L 411.5 352 L 380 352 Q 381.2 356 375 354 L 374.5 352 L 356.5 352 L 356.5 354 L 351.5 356 Q 347.8 354 349.5 352 Q 341.6 353.8 342 350.5 L 336 346 L 336 270.5 L 338 268.5 L 343.5 262 L 345 264 L 348 264 L 348.5 262 L 356 262 Q 354.9 265.3 359 264 L 359.5 262 L 374 262 L 374 264 L 380 264 L 380.5 262 L 403.5 262 L 404.5 261 Z M 345 265 L 339 270 L 339 347 L 344 351 L 412 351 L 414 350 L 417 346 L 417 271 L 416 269 L 412 265 L 345 265 Z " /><path fill="rgb(240,196,55)" stroke="rgb(240,196,55)" stroke-width="0.6" opacity="1" d="M 102.5 262 L 112.5 262 L 113.5 264 L 145 264 L 145.5 262 L 158 262 Q 156.7 266 163 264 L 163 262 L 169 262 L 169 264 Q 172.7 262.5 172 265.5 L 170.5 265 L 103.5 265 L 98 269.5 L 97.5 272 L 96 269.5 L 98 266 Q 102.1 267.7 101 263.5 L 102.5 262 Z " /><path fill="rgb(240,196,55)" stroke="rgb(240,196,55)" stroke-width="0.6" opacity="1" d="M 175.5 265 L 178 271.5 L 177 278.5 L 178 287.5 L 177 288.5 L 177 342.5 L 178 347 L 176 348.5 L 171.5 353 L 170.5 352 L 166 352 Q 167 355 164 354 L 163.5 352 L 115 352 L 113.5 354 L 110.5 355 L 109.5 352 L 101.5 353 L 92 347 Q 90.3 342.9 94.5 344 L 96 344.5 L 95 339.5 L 96.5 332 L 97 344.5 L 100.5 350 L 102.5 351 L 170.5 351 L 175 347.5 L 176 344.5 L 176 271.5 L 173 266.5 L 175.5 265 Z " /><path fill="rgb(240,196,55)" stroke="rgb(240,196,55)" stroke-width="0.6" opacity="1" d="M 222.5 268 L 225 268.5 L 212 279.5 Q 207.3 286.3 206 296.5 L 205.5 348 L 204 289.5 L 209.5 281 L 211 279.5 L 216.5 271 L 222.5 268 Z " /><path fill="rgb(240,196,55)" stroke="rgb(240,196,55)" stroke-width="0.6" opacity="1" d="M 145.5 271 L 163.5 272 L 166.5 271 L 169 273.5 L 169 302.5 Q 167.3 305.8 160.5 304 L 160.5 303 L 162 302.5 L 161 301.5 L 165 297.5 L 166 276.5 L 162.5 275 L 158.5 276 L 146.5 275 Q 143.8 280.4 141 278.5 L 141 296.5 L 143 301.5 L 142.5 303 L 152 303.5 L 141.5 304 L 140 302.5 L 140 272 L 145.5 271 Z " /><path fill="rgb(240,196,55)" stroke="rgb(240,196,55)" stroke-width="0.6" opacity="1" d="M 382.5 271 L 408.5 271 L 410 272.5 L 410 302.5 L 408.5 304 L 401 303.5 L 404 302.5 L 404 300.5 L 405.5 295 L 409 292.5 L 408 290.5 L 409 280.5 L 406.5 275 L 401.5 275 Q 402.8 269.9 395 272 Q 396.8 276.5 391.5 275 L 384 277 L 384 295.5 L 387.5 300 L 392 301.5 L 391.5 303 L 395 303.5 L 382.5 304 L 381 302.5 L 381 272.5 L 382.5 271 Z " /><path fill="rgb(240,196,55)" stroke="rgb(240,196,55)" stroke-width="0.6" opacity="1" d="M 96.5 277 L 97 300.5 L 96 300.5 L 96.5 277 Z " /><path fill="rgb(240,196,55)" stroke="rgb(240,196,55)" stroke-width="0.6" opacity="1" d="M 96.5 305 L 97 324.5 L 96 324.5 L 96.5 305 Z " /><path fill="rgb(240,196,55)" stroke="rgb(240,196,55)" stroke-width="0.6" opacity="1" d="M 382.5 311 L 410 311 L 410 342.5 Q 407.8 346.3 400.5 345 L 393.5 344 L 385.5 345 L 381 342.5 L 381 312.5 L 382.5 311 Z M 392 312 L 392 314 L 388 315 L 385 318 L 384 326 L 384 341 L 387 343 Q 392 345 391 341 L 394 340 L 398 341 L 399 343 L 407 344 L 408 343 L 408 315 L 408 313 L 392 312 Z " /><path fill="rgb(240,196,55)" stroke="rgb(240,196,55)" stroke-width="0.6" opacity="1" d="M 204.5 350 L 205 408 L 89.5 408 L 83.5 409 L 78 406.5 Q 76.5 401.3 81 403 L 82 405.5 L 81.5 407 L 87.5 408 L 88.5 407 L 126 407 L 126.5 405 L 201.5 405 L 204 404.5 L 204.5 350 Z " /><path fill="rgb(240,196,55)" stroke="rgb(240,196,55)" stroke-width="0.6" opacity="1" d="M 418.5 414 L 439.5 415 L 447.5 414 L 450 416.5 L 450 437.5 L 448.5 439 L 211.5 439 L 210.5 440 L 200.5 439 L 199.5 440 L 68.5 440 L 67 438.5 L 67 417.5 L 69.5 415 L 82.5 415 L 82.5 416 L 70 420.5 L 70 435.5 L 71.5 437 L 79.5 436 L 80.5 437 L 134.5 437 L 135.5 438 Q 146.8 434.8 162.5 436 L 163.5 437 L 176.5 437 L 181.5 436 L 193.5 437 L 198.5 436 L 209.5 438 L 217.5 436 L 219.5 437 L 221.5 436 L 222.5 437 L 251.5 437 L 255 438 L 255.5 436 L 265.5 436 Q 268.4 439.6 276.5 438 L 285.5 437 L 299 438 Q 297.9 434.7 302 436 Q 300.8 439 304.5 438 L 306.5 437 L 314 438 Q 313 435 316 436 Q 314.9 439.3 319 438 Q 317.8 434.3 323 436 L 323.5 438 L 436.5 438 Q 434.8 436 438.5 434 L 444 431.5 L 447 423.5 L 446 420.5 L 449 419.5 L 448.5 416 L 447.5 418 L 446.5 417 L 432.5 417 L 427.5 418 L 426.5 417 L 332.5 417 L 327.5 416 L 316.5 417 L 307 416 Q 308 419 305 418 L 304.5 416 L 90.5 416 L 90.5 415 L 417.5 415 L 418.5 414 Z " /><path fill="rgb(78,151,70)" stroke="rgb(78,151,70)" stroke-width="0.6" opacity="1" d="M 258.5 88 L 260 91 L 263 91.5 L 260.5 92 L 258 91 Q 256.5 94.7 259.5 94 L 257.5 97 L 252.5 98 L 251 95.5 L 252 93 L 258 89.5 L 258.5 88 Z " /><path fill="rgb(78,151,70)" stroke="rgb(78,151,70)" stroke-width="0.6" opacity="1" d="M 275 97 L 279 99.5 Q 277.3 103.5 271 102 Q 269.8 99 273.5 100 L 275 97 Z " /><path fill="rgb(78,151,70)" stroke="rgb(78,151,70)" stroke-width="0.6" opacity="1" d="M 237.5 98 L 242 101.5 L 240.5 104 L 238 102.5 L 236 99.5 L 237.5 98 Z " /><path fill="rgb(78,151,70)" stroke="rgb(78,151,70)" stroke-width="0.6" opacity="1" d="M 125 101 L 172.5 101 L 174 102.5 L 171.5 103 L 125.5 103 L 125 101 Z " /><path fill="rgb(78,151,70)" stroke="rgb(78,151,70)" stroke-width="0.6" opacity="1" d="M 133.5 106 Q 138.8 104.8 140 107.5 L 131 110 Q 132.3 114.1 129 113 L 133.5 106 Z " /><path fill="rgb(78,151,70)" stroke="rgb(78,151,70)" stroke-width="0.6" opacity="1" d="M 159.5 106 Q 166.8 103.4 165 109.5 L 165 111.5 L 166.5 116 L 168 117.5 Q 166.3 120.8 164.5 117 L 159 113.5 L 157.5 112 L 156 109 L 159 108.5 L 159.5 106 Z " /><path fill="rgb(78,151,70)" stroke="rgb(78,151,70)" stroke-width="0.6" opacity="1" d="M 214.5 112 L 217 116 Q 222.2 113.9 221 118.5 L 215.5 120 L 213.5 115 L 210 116 L 211.5 113 L 213.5 114 L 214.5 112 Z " /><path fill="rgb(78,151,70)" stroke="rgb(78,151,70)" stroke-width="0.6" opacity="1" d="M 240.5 113 L 245 115.5 L 244 120 Q 238.8 121.7 240 118 Q 243 119 242 116 Q 238.5 117.1 240.5 113 Z " /><path fill="rgb(78,151,70)" stroke="rgb(78,151,70)" stroke-width="0.6" opacity="1" d="M 273.5 114 L 278 115 L 273.5 122 L 269 120.5 L 271 119.5 L 273 121 L 273 118 L 271 116.5 L 273.5 114 Z " /><path fill="rgb(78,151,70)" stroke="rgb(78,151,70)" stroke-width="0.6" opacity="1" d="M 172.5 115 L 173 125.5 L 171 126.5 L 172.5 115 Z " /><path fill="rgb(78,151,70)" stroke="rgb(78,151,70)" stroke-width="0.6" opacity="1" d="M 129 119 L 131 119.5 L 131 128.5 L 133 131.5 L 132 135 L 135 136.5 Q 135.9 139.5 131.5 138 L 129 135.5 L 129 119 Z " /><path fill="rgb(78,151,70)" stroke="rgb(78,151,70)" stroke-width="0.6" opacity="1" d="M 231.5 121 L 239 124.5 L 237.5 127 L 235 125.5 L 233 124 Q 234.1 127.3 230 126 L 231.5 121 Z " /><path fill="rgb(78,151,70)" stroke="rgb(78,151,70)" stroke-width="0.6" opacity="1" d="M 199.5 122 L 207 124.5 L 205.5 127 Q 199.3 127.7 198 123.5 L 199.5 122 Z " /><path fill="rgb(78,151,70)" stroke="rgb(78,151,70)" stroke-width="0.6" opacity="1" d="M 150.5 126 Q 156.3 125.2 158 128.5 Q 159.1 131.8 156.5 131 L 153 133 Q 154 130 151 131 L 151 127.5 L 150.5 126 Z " /><path fill="rgb(78,151,70)" stroke="rgb(78,151,70)" stroke-width="0.6" opacity="1" d="M 209.5 127 L 213 128.5 L 209.5 134 L 208 128.5 L 209.5 127 Z " /><path fill="rgb(78,151,70)" stroke="rgb(78,151,70)" stroke-width="0.6" opacity="1" d="M 302.5 127 L 306 128.5 L 305 130.5 L 310 134.5 L 308.5 136 L 304 134 L 301 128.5 L 302.5 127 Z " /><path fill="rgb(78,151,70)" stroke="rgb(78,151,70)" stroke-width="0.6" opacity="1" d="M 183.5 131 L 185 134 L 180 135 L 178.5 138 Q 175.9 138.8 177 135.5 L 183.5 131 Z " /><path fill="rgb(78,151,70)" stroke="rgb(78,151,70)" stroke-width="0.6" opacity="1" d="M 327.5 131 L 333 132 Q 334.2 135.7 329 134 L 329 136.5 L 325.5 143 L 319 144 L 320.5 148 L 321 145 Q 324.3 143.9 323 148 L 321 149.5 L 319.5 153 Q 315.6 150.9 316 144.5 L 317 141 L 323 141 L 323 138.5 L 327.5 131 Z " /><path fill="rgb(78,151,70)" stroke="rgb(78,151,70)" stroke-width="0.6" opacity="1" d="M 298.5 133 L 303 134.5 Q 303.9 137.9 298.5 136 L 294.5 138 L 291.5 134 L 294.5 135 L 298.5 133 Z " /><path fill="rgb(78,151,70)" stroke="rgb(78,151,70)" stroke-width="0.6" opacity="1" d="M 343.5 139 L 350 142.5 L 347 144 L 348 148.5 L 347 152 L 342 150.5 L 345 147.5 L 346 142.5 L 344 142 L 343.5 139 Z " /><path fill="rgb(78,151,70)" stroke="rgb(78,151,70)" stroke-width="0.6" opacity="1" d="M 161 145 L 166 145 L 167.5 147 L 171 145 Q 173.1 150.2 168.5 149 L 161 147 L 161 145 Z " /><path fill="rgb(78,151,70)" stroke="rgb(78,151,70)" stroke-width="0.6" opacity="1" d="M 187.5 145 Q 191.9 143.5 191 146.5 L 187.5 153 L 180 152.5 L 187 149.5 L 186 146.5 L 187.5 145 Z " /><path fill="rgb(78,151,70)" stroke="rgb(78,151,70)" stroke-width="0.6" opacity="1" d="M 334.5 154 L 339 157.5 L 336 159 L 337 163 L 331 160.5 L 335 159 L 334.5 154 Z " /><path fill="rgb(78,151,70)" stroke="rgb(78,151,70)" stroke-width="0.6" opacity="1" d="M 363 155 L 371.5 155 L 373 156.5 L 372 159 L 369.5 160 L 369 158 L 364.5 159 L 363 155 Z " /><path fill="rgb(78,151,70)" stroke="rgb(78,151,70)" stroke-width="0.6" opacity="1" d="M 145.5 156 Q 148.1 155.2 147 158.5 L 149.5 159 L 155 159.5 L 154 162 L 147 162 Q 148.3 166.1 145 165 L 145 162 L 147 160.5 L 145 159.5 L 143.5 161 L 139.5 162 Q 136.5 160.5 139.5 159 L 145.5 156 Z " /><path fill="rgb(78,151,70)" stroke="rgb(78,151,70)" stroke-width="0.6" opacity="1" d="M 156.5 163 L 161 163.5 Q 157.5 165.2 159 171 Q 154.9 172.7 156 168.5 L 156 166.5 L 155 164.5 L 156.5 163 Z " /><path fill="rgb(78,151,70)" stroke="rgb(78,151,70)" stroke-width="0.6" opacity="1" d="M 127.5 167 Q 132.3 166.3 133 169.5 L 134 172.5 Q 132.5 175.5 131 172.5 L 129.5 170 Q 124.8 169.3 124 172.5 L 125 175 Q 121.7 176.3 123 171.5 L 124 169 L 127.5 167 Z " /><path fill="rgb(78,151,70)" stroke="rgb(78,151,70)" stroke-width="0.6" opacity="1" d="M 161 167 Q 164.3 165.7 163 170.5 L 164 174 L 160.5 176 L 160 173.5 L 161 167 Z " /><path fill="rgb(78,151,70)" stroke="rgb(78,151,70)" stroke-width="0.6" opacity="1" d="M 350 167 L 356 167 L 356 169 Q 351.9 167.3 353 171.5 L 356 172.5 L 354.5 176 L 353.5 173 L 348 171 L 350 167 Z " /><path fill="rgb(78,151,70)" stroke="rgb(78,151,70)" stroke-width="0.6" opacity="1" d="M 398.5 173 Q 402.7 171.7 401 176.5 L 400 179 L 395 180 L 398.5 173 Z " /><path fill="rgb(78,151,70)" stroke="rgb(78,151,70)" stroke-width="0.6" opacity="1" d="M 138 178 Q 141.3 176.9 140 181 Q 144.8 179.1 144 182.5 L 145 182.5 L 146.5 180 Q 150.3 178.8 149 182.5 L 141 187 L 141 184 Q 135.8 186.1 137 181.5 L 138 178 Z " /><path fill="rgb(78,151,70)" stroke="rgb(78,151,70)" stroke-width="0.6" opacity="1" d="M 368.5 181 Q 374.8 178.8 373 184.5 L 373.5 186 L 367 182.5 L 368.5 181 Z " /><path fill="rgb(78,151,70)" stroke="rgb(78,151,70)" stroke-width="0.6" opacity="1" d="M 407 181 L 413 182.5 L 410.5 184 L 409 183.5 L 410.5 185 Q 413.5 186.5 410.5 188 L 407.5 187 L 405.5 188 Q 402 186 406.5 184 L 408 183.5 L 407 181 Z " /><path fill="rgb(78,151,70)" stroke="rgb(78,151,70)" stroke-width="0.6" opacity="1" d="M 393 186 L 395 187.5 L 391.5 193 L 389 191.5 L 390.5 189 Q 394.7 190.1 393 186 Z " /><path fill="rgb(78,151,70)" stroke="rgb(78,151,70)" stroke-width="0.6" opacity="1" d="M 122.5 189 Q 128.3 186.9 127 191.5 L 127.5 194 Q 131.3 193 130 196 L 125 196 L 125 193 Q 119.8 195.1 121 190.5 L 122.5 189 Z " /><path fill="rgb(78,151,70)" stroke="rgb(78,151,70)" stroke-width="0.6" opacity="1" d="M 87.5 193 L 88 201 L 83 198.5 L 85.5 194 L 87.5 193 Z " /><path fill="rgb(78,151,70)" stroke="rgb(78,151,70)" stroke-width="0.6" opacity="1" d="M 398 197 L 401 197 L 402.5 199 Q 404.3 196.2 406 200.5 L 403.5 202 L 400 201 Q 398.5 204.8 401.5 204 L 401.5 205 L 398 202.5 L 399 199.5 L 398 197 Z " /><path fill="rgb(78,151,70)" stroke="rgb(78,151,70)" stroke-width="0.6" opacity="1" d="M 438.5 199 L 439 203 Q 435.3 201.5 436 204.5 L 439 209 L 434.5 207 L 431 211.5 L 432 214 L 425.5 214 L 423.5 212 Q 422 209.5 420.5 213 L 419 211 L 427.5 205 L 431.5 205 L 433.5 205 L 435 203.5 L 435.5 201 L 438.5 199 Z " /><path fill="rgb(78,151,70)" stroke="rgb(78,151,70)" stroke-width="0.6" opacity="1" d="M 88.5 202 L 92 204.5 L 85.5 207 L 83.5 204 L 88.5 202 Z " /><path fill="rgb(78,151,70)" stroke="rgb(78,151,70)" stroke-width="0.6" opacity="1" d="M 440 202 L 446 204.5 L 444.5 207 L 440.5 205 L 439 204.5 L 440 202 Z " /><path fill="rgb(78,151,70)" stroke="rgb(78,151,70)" stroke-width="0.6" opacity="1" d="M 59.5 212 L 65 213 L 65 218 L 66.5 218 L 66.5 219 L 62 220 L 60.5 216 L 58 215.5 L 59.5 212 Z " /><path fill="rgb(78,151,70)" stroke="rgb(78,151,70)" stroke-width="0.6" opacity="1" d="M 455.5 212 L 458 213.5 L 456 217.5 L 457 219.5 L 455 218.5 L 454.5 216 Q 450.6 218.1 451 224.5 L 453 228 Q 448.2 226.1 449 229.5 L 448.5 232 L 443 230.5 L 446.5 226 L 448 224.5 L 449 222.5 L 448 220 L 445 219.5 L 450 219 L 452.5 213 L 455.5 212 Z " /><path fill="rgb(78,151,70)" stroke="rgb(78,151,70)" stroke-width="0.6" opacity="1" d="M 117 276 L 124.5 276 L 125 277.5 L 121.5 282 L 119.5 278 Q 115.8 279 117 276 Z " /><path fill="rgb(78,151,70)" stroke="rgb(78,151,70)" stroke-width="0.6" opacity="1" d="M 355 276 L 360 277.5 L 359 280.5 L 360 282.5 L 356.5 284 L 354.5 283 L 351 284 L 351 279 L 352.5 279 L 357 280 L 355 276 Z " /><path fill="rgb(78,151,70)" stroke="rgb(78,151,70)" stroke-width="0.6" opacity="1" d="M 116.5 288 L 125 294.5 L 126 298 Q 117.9 299.5 116 293.5 L 118 290.5 L 116.5 288 Z " /><path fill="rgb(78,151,70)" stroke="rgb(78,151,70)" stroke-width="0.6" opacity="1" d="M 369.5 314 Q 373 316.1 371 323 L 364 322 L 365 316 L 369.5 314 Z " /><path fill="rgb(78,151,70)" stroke="rgb(78,151,70)" stroke-width="0.6" opacity="1" d="M 358.5 323 Q 364.4 320.9 363 325.5 L 365 328.5 L 363 331.5 L 364 334 L 360 331.5 Q 359.2 328.5 363 330 L 363 326.5 L 361.5 327 L 359 328.5 L 357 333 Q 354 334.3 355 330.5 L 358.5 323 Z " /><path fill="rgb(78,151,70)" stroke="rgb(78,151,70)" stroke-width="0.6" opacity="1" d="M 350.5 334 Q 353.8 332.9 353 335.5 L 352 338 L 355 338 L 356.5 336 L 361 334 Q 362.3 337 358.5 336 L 353.5 340 L 350.5 340 L 349 335.5 L 350.5 334 Z " /><path fill="rgb(41,41,44)" stroke="rgb(41,41,44)" stroke-width="0.6" opacity="1" d="M 184.5 72 L 185 94.5 L 184 94.5 L 184.5 72 Z " /><path fill="rgb(41,41,44)" stroke="rgb(41,41,44)" stroke-width="0.6" opacity="1" d="M 112.5 81 L 113 93.5 L 112 93.5 L 112.5 81 Z " /><path fill="rgb(41,41,44)" stroke="rgb(41,41,44)" stroke-width="0.6" opacity="1" d="M 135.5 96 L 177 96.5 L 135.5 97 L 135.5 96 Z " /><path fill="rgb(41,41,44)" stroke="rgb(41,41,44)" stroke-width="0.6" opacity="1" d="M 77.5 240 L 78 269.5 L 77 269.5 L 77.5 240 Z " /><path fill="rgb(41,41,44)" stroke="rgb(41,41,44)" stroke-width="0.6" opacity="1" d="M 252.5 264 L 264 264.5 L 252.5 265 L 252.5 264 Z " /><path fill="rgb(41,41,44)" stroke="rgb(41,41,44)" stroke-width="0.6" opacity="1" d="M 124.5 270 Q 132 268 134 271.5 L 132.5 271 L 124.5 271 L 124.5 270 Z " /><path fill="rgb(41,41,44)" stroke="rgb(41,41,44)" stroke-width="0.6" opacity="1" d="M 145.5 270 L 168 270.5 L 145.5 271 L 145.5 270 Z " /><path fill="rgb(41,41,44)" stroke="rgb(41,41,44)" stroke-width="0.6" opacity="1" d="M 346.5 270 L 362 270.5 L 345.5 272 L 346.5 270 Z " /><path fill="rgb(41,41,44)" stroke="rgb(41,41,44)" stroke-width="0.6" opacity="1" d="M 369.5 270 Q 374.8 268.8 376 271.5 L 376 304.5 L 374.5 306 L 361 305.5 L 373.5 305 L 375 303.5 L 375 272.5 L 373.5 271 Q 368.5 272 369.5 270 Z " /><path fill="rgb(41,41,44)" stroke="rgb(41,41,44)" stroke-width="0.6" opacity="1" d="M 381.5 270 L 394 270.5 L 380.5 272 L 381.5 270 Z " /><path fill="rgb(41,41,44)" stroke="rgb(41,41,44)" stroke-width="0.6" opacity="1" d="M 402.5 270 Q 410.2 268.3 412 272.5 L 412 304.5 L 410.5 306 L 381.5 306 L 380 304.5 L 381.5 305 L 409.5 305 L 411 303.5 L 411 272.5 L 409.5 271 L 402.5 271 L 402.5 270 Z " /><path fill="rgb(41,41,44)" stroke="rgb(41,41,44)" stroke-width="0.6" opacity="1" d="M 98.5 272 L 99 344.5 L 98 344.5 L 98.5 272 Z " /><path fill="rgb(41,41,44)" stroke="rgb(41,41,44)" stroke-width="0.6" opacity="1" d="M 72.5 297 L 73 408.5 L 71 409.5 L 72 408.5 L 72.5 297 Z " /><path fill="rgb(41,41,44)" stroke="rgb(41,41,44)" stroke-width="0.6" opacity="1" d="M 139.5 304 L 140.5 305 L 168.5 305 L 170 304.5 L 168.5 306 L 140.5 306 L 139.5 304 Z " /><path fill="rgb(41,41,44)" stroke="rgb(41,41,44)" stroke-width="0.6" opacity="1" d="M 345.5 304 L 355 305.5 L 346.5 306 L 345.5 304 Z " /><path fill="rgb(41,41,44)" stroke="rgb(41,41,44)" stroke-width="0.6" opacity="1" d="M 119.5 305 L 131 305.5 L 119.5 306 L 119.5 305 Z " /><path fill="rgb(41,41,44)" stroke="rgb(41,41,44)" stroke-width="0.6" opacity="1" d="M 374.5 310 L 376 311.5 L 376 344.5 L 374 345.5 L 375 344.5 L 375 311.5 L 374.5 310 Z " /><path fill="rgb(41,41,44)" stroke="rgb(41,41,44)" stroke-width="0.6" opacity="1" d="M 206.5 312 L 207 373.5 L 206 373.5 L 206.5 312 Z " /><path fill="rgb(41,41,44)" stroke="rgb(41,41,44)" stroke-width="0.6" opacity="1" d="M 411.5 313 L 412 343.5 L 409 345.5 L 411 343.5 L 411.5 313 Z " /><path fill="rgb(41,41,44)" stroke="rgb(41,41,44)" stroke-width="0.6" opacity="1" d="M 442.5 322 L 443 407.5 L 444 408.5 L 442 407.5 L 442.5 322 Z " /><path fill="rgb(41,41,44)" stroke="rgb(41,41,44)" stroke-width="0.6" opacity="1" d="M 211.5 329 L 212 344.5 L 211 344.5 L 211.5 329 Z " /><path fill="rgb(41,41,44)" stroke="rgb(41,41,44)" stroke-width="0.6" opacity="1" d="M 95.5 409 L 155 409.5 L 95.5 410 L 95.5 409 Z " /><path fill="rgb(41,41,44)" stroke="rgb(41,41,44)" stroke-width="0.6" opacity="1" d="M 236.5 413 L 422 413.5 L 236.5 414 L 236.5 413 Z " /><path fill="rgb(41,41,44)" stroke="rgb(41,41,44)" stroke-width="0.6" opacity="1" d="M 425.5 413 L 449 413.5 L 425.5 414 L 425.5 413 Z " /><path fill="rgb(41,41,44)" stroke="rgb(41,41,44)" stroke-width="0.6" opacity="1" d="M 147.5 440 L 193 440.5 L 147.5 441 L 147.5 440 Z " /><path fill="rgb(41,41,44)" stroke="rgb(41,41,44)" stroke-width="0.6" opacity="1" d="M 210.5 440 L 254 440.5 L 210.5 441 L 210.5 440 Z " /><path fill="rgb(41,41,44)" stroke="rgb(41,41,44)" stroke-width="0.6" opacity="1" d="M 74.5 445 L 136 445.5 L 74.5 446 L 74.5 445 Z " /><path fill="rgb(71,74,64)" stroke="rgb(71,74,64)" stroke-width="0.6" opacity="1" d="M 179.5 74 L 180 93.5 L 179 93.5 L 179.5 74 Z " /><path fill="rgb(71,74,64)" stroke="rgb(71,74,64)" stroke-width="0.6" opacity="1" d="M 71.5 242 L 73 243.5 L 73 296.5 L 72 296.5 L 72 243.5 L 71.5 242 Z " /><path fill="rgb(71,74,64)" stroke="rgb(71,74,64)" stroke-width="0.6" opacity="1" d="M 77.5 270 L 78 324.5 L 77 324.5 L 77.5 270 Z " /><path fill="rgb(71,74,64)" stroke="rgb(71,74,64)" stroke-width="0.6" opacity="1" d="M 107.5 305 L 119 305.5 L 107.5 306 L 107.5 305 Z " /><path fill="rgb(71,74,64)" stroke="rgb(71,74,64)" stroke-width="0.6" opacity="1" d="M 211.5 308 L 212 328.5 L 211 328.5 L 211.5 308 Z " /><path fill="rgb(71,74,64)" stroke="rgb(71,74,64)" stroke-width="0.6" opacity="1" d="M 346.5 310 L 374 310.5 L 346.5 311 L 346.5 310 Z " /><path fill="rgb(71,74,64)" stroke="rgb(71,74,64)" stroke-width="0.6" opacity="1" d="M 133.5 344 L 132.5 346 L 105 345.5 L 132.5 345 L 133.5 344 Z " /><path fill="rgb(71,74,64)" stroke="rgb(71,74,64)" stroke-width="0.6" opacity="1" d="M 139.5 344 L 140.5 345 L 168 345.5 L 140.5 346 L 139.5 344 Z " /><path fill="rgb(71,74,64)" stroke="rgb(71,74,64)" stroke-width="0.6" opacity="1" d="M 345.5 344 L 346.5 345 L 373.5 345 L 375 344.5 L 373.5 346 L 346.5 346 L 345.5 344 Z " /><path fill="rgb(71,74,64)" stroke="rgb(71,74,64)" stroke-width="0.6" opacity="1" d="M 211.5 345 L 212 371.5 L 211 371.5 L 211.5 345 Z " /><path fill="rgb(71,74,64)" stroke="rgb(71,74,64)" stroke-width="0.6" opacity="1" d="M 381.5 345 L 409 345.5 L 381.5 346 L 381.5 345 Z " /><path fill="rgb(71,74,64)" stroke="rgb(71,74,64)" stroke-width="0.6" opacity="1" d="M 79.5 409 L 95 409.5 L 79.5 410 L 79.5 409 Z " /><path fill="rgb(71,74,64)" stroke="rgb(71,74,64)" stroke-width="0.6" opacity="1" d="M 69.5 414 L 102 414.5 L 69.5 415 L 69.5 414 Z " /><path fill="rgb(71,74,64)" stroke="rgb(71,74,64)" stroke-width="0.6" opacity="1" d="M 125.5 440 L 147 440.5 L 125.5 441 L 125.5 440 Z " /><path fill="rgb(71,74,64)" stroke="rgb(71,74,64)" stroke-width="0.6" opacity="1" d="M 136.5 445 L 173 445.5 L 136.5 446 L 136.5 445 Z " /><path fill="rgb(107,99,58)" stroke="rgb(107,99,58)" stroke-width="0.6" opacity="1" d="M 125.5 71 L 177 71.5 L 125.5 72 L 125.5 71 Z " /><path fill="rgb(107,99,58)" stroke="rgb(107,99,58)" stroke-width="0.6" opacity="1" d="M 346.5 265 L 403 265.5 L 346.5 266 L 346.5 265 Z " /><path fill="rgb(107,99,58)" stroke="rgb(107,99,58)" stroke-width="0.6" opacity="1" d="M 381.5 271 L 381 272.5 L 381 303.5 L 382 304.5 L 380 303.5 L 380 272.5 L 381.5 271 Z " /><path fill="rgb(107,99,58)" stroke="rgb(107,99,58)" stroke-width="0.6" opacity="1" d="M 339.5 272 L 340 343.5 L 339 343.5 L 339.5 272 Z " /><path fill="rgb(107,99,58)" stroke="rgb(107,99,58)" stroke-width="0.6" opacity="1" d="M 416.5 303 L 417 316.5 L 416 316.5 L 416.5 303 Z " /><path fill="rgb(107,99,58)" stroke="rgb(107,99,58)" stroke-width="0.6" opacity="1" d="M 302.5 304 L 303 330.5 L 302 330.5 L 302.5 304 Z " /><path fill="rgb(107,99,58)" stroke="rgb(107,99,58)" stroke-width="0.6" opacity="1" d="M 381.5 310 L 381 311.5 L 381 343.5 L 382 344.5 L 380 343.5 L 380 311.5 L 381.5 310 Z " /><path fill="rgb(107,99,58)" stroke="rgb(107,99,58)" stroke-width="0.6" opacity="1" d="M 77.5 325 L 78 345.5 L 77 345.5 L 77.5 325 Z " /><path fill="rgb(107,99,58)" stroke="rgb(107,99,58)" stroke-width="0.6" opacity="1" d="M 133.5 333 L 134 343.5 L 132 344.5 L 133.5 333 Z " /><path fill="rgb(107,99,58)" stroke="rgb(107,99,58)" stroke-width="0.6" opacity="1" d="M 437.5 347 L 438 406.5 L 436 407.5 L 437 406.5 L 437.5 347 Z " /><path fill="rgb(107,99,58)" stroke="rgb(107,99,58)" stroke-width="0.6" opacity="1" d="M 77.5 349 L 78 407.5 L 79 408.5 L 77 407.5 L 77.5 349 Z " /><path fill="rgb(107,99,58)" stroke="rgb(107,99,58)" stroke-width="0.6" opacity="1" d="M 302.5 349 L 303 407.5 Q 301.5 410.5 295.5 409 L 295.5 408 Q 300.8 409.3 302 406.5 L 302.5 349 Z " /><path fill="rgb(107,99,58)" stroke="rgb(107,99,58)" stroke-width="0.6" opacity="1" d="M 211.5 372 L 212 407.5 L 213 408.5 L 211 407.5 L 211.5 372 Z " /><path fill="rgb(107,99,58)" stroke="rgb(107,99,58)" stroke-width="0.6" opacity="1" d="M 321.5 408 L 431 408.5 L 321.5 409 L 321.5 408 Z " /><path fill="rgb(107,99,58)" stroke="rgb(107,99,58)" stroke-width="0.6" opacity="1" d="M 102.5 414 L 128 414.5 L 102.5 415 L 102.5 414 Z " /><path fill="rgb(107,99,58)" stroke="rgb(107,99,58)" stroke-width="0.6" opacity="1" d="M 91.5 440 L 125 440.5 L 91.5 441 L 91.5 440 Z " /><path fill="rgb(107,99,58)" stroke="rgb(107,99,58)" stroke-width="0.6" opacity="1" d="M 173.5 445 L 226 445.5 L 173.5 446 L 173.5 445 Z " /><path fill="rgb(137,126,55)" stroke="rgb(137,126,55)" stroke-width="0.6" opacity="1" d="M 127.5 95 L 139 95.5 L 127.5 96 L 127.5 95 Z " /><path fill="rgb(137,126,55)" stroke="rgb(137,126,55)" stroke-width="0.6" opacity="1" d="M 436.5 239 L 438 240.5 L 438 346.5 L 437 346.5 L 437 240.5 L 436.5 239 Z " /><path fill="rgb(137,126,55)" stroke="rgb(137,126,55)" stroke-width="0.6" opacity="1" d="M 106.5 265 L 158 265.5 L 106.5 266 L 106.5 265 Z " /><path fill="rgb(137,126,55)" stroke="rgb(137,126,55)" stroke-width="0.6" opacity="1" d="M 416.5 272 L 417 302.5 L 416 302.5 L 416.5 272 Z " /><path fill="rgb(137,126,55)" stroke="rgb(137,126,55)" stroke-width="0.6" opacity="1" d="M 104.5 310 L 132.5 310 L 134 311.5 L 133.5 333 L 133 312.5 L 131.5 311 L 105.5 311 L 104 312.5 L 104 343.5 L 105 344.5 L 103 343.5 L 103 311.5 L 104.5 310 Z " /><path fill="rgb(137,126,55)" stroke="rgb(137,126,55)" stroke-width="0.6" opacity="1" d="M 140.5 310 L 168.5 310 L 170 311.5 L 168.5 311 L 140.5 311 L 139.5 312 L 140.5 310 Z " /><path fill="rgb(137,126,55)" stroke="rgb(137,126,55)" stroke-width="0.6" opacity="1" d="M 382.5 310 L 409.5 310 L 411 311.5 L 409.5 311 L 382.5 311 L 381.5 312 L 382.5 310 Z " /><path fill="rgb(137,126,55)" stroke="rgb(137,126,55)" stroke-width="0.6" opacity="1" d="M 416.5 317 L 417 344.5 L 416 344.5 L 416.5 317 Z " /><path fill="rgb(137,126,55)" stroke="rgb(137,126,55)" stroke-width="0.6" opacity="1" d="M 103.5 350 L 170 350.5 L 103.5 351 L 103.5 350 Z " /><path fill="rgb(137,126,55)" stroke="rgb(137,126,55)" stroke-width="0.6" opacity="1" d="M 345.5 350 L 411 350.5 L 345.5 351 L 345.5 350 Z " /><path fill="rgb(137,126,55)" stroke="rgb(137,126,55)" stroke-width="0.6" opacity="1" d="M 308.5 407 L 321 408.5 L 309.5 409 L 308.5 407 Z " /><path fill="rgb(137,126,55)" stroke="rgb(137,126,55)" stroke-width="0.6" opacity="1" d="M 226.5 408 L 295 408.5 L 226.5 409 L 226.5 408 Z " /><path fill="rgb(137,126,55)" stroke="rgb(137,126,55)" stroke-width="0.6" opacity="1" d="M 128.5 414 L 185 414.5 L 128.5 415 L 128.5 414 Z " /><path fill="rgb(137,126,55)" stroke="rgb(137,126,55)" stroke-width="0.6" opacity="1" d="M 66.5 417 L 67 438.5 L 68.5 440 L 91 440.5 L 68.5 441 L 66 438.5 L 66.5 417 Z " /><path fill="rgb(213,190,49)" stroke="rgb(213,190,49)" stroke-width="0.6" opacity="1" d="M 79.5 239 L 79 240.5 L 78.5 281 L 78 240.5 L 79.5 239 Z " /><path fill="rgb(213,190,49)" stroke="rgb(213,190,49)" stroke-width="0.6" opacity="1" d="M 97.5 272 L 98 344.5 L 97 344.5 L 97.5 272 Z " /><path fill="rgb(213,190,49)" stroke="rgb(213,190,49)" stroke-width="0.6" opacity="1" d="M 175.5 272 L 176 344.5 L 175 344.5 L 175.5 272 Z " /><path fill="rgb(213,190,49)" stroke="rgb(213,190,49)" stroke-width="0.6" opacity="1" d="M 140.5 303 L 141.5 304 L 167.5 304 L 169 303.5 L 167.5 305 L 140 305 L 140.5 303 Z " /><path fill="rgb(213,190,49)" stroke="rgb(213,190,49)" stroke-width="0.6" opacity="1" d="M 381.5 303 L 382.5 304 L 408.5 304 L 410.5 303 L 409.5 305 L 382.5 305 L 381.5 303 Z " /><path fill="rgb(213,190,49)" stroke="rgb(213,190,49)" stroke-width="0.6" opacity="1" d="M 410.5 312 L 411 338.5 L 410 338.5 L 410.5 312 Z " /><path fill="rgb(213,190,49)" stroke="rgb(213,190,49)" stroke-width="0.6" opacity="1" d="M 114.5 408 L 185 408.5 L 114.5 409 L 114.5 408 Z " /><path fill="rgb(213,190,49)" stroke="rgb(213,190,49)" stroke-width="0.6" opacity="1" d="M 241.5 414 L 301 414.5 L 241.5 415 L 241.5 414 Z " /><path fill="rgb(213,190,49)" stroke="rgb(213,190,49)" stroke-width="0.6" opacity="1" d="M 364.5 414 L 418 414.5 L 364.5 415 L 364.5 414 Z " /><path fill="rgb(213,190,49)" stroke="rgb(213,190,49)" stroke-width="0.6" opacity="1" d="M 211.5 439 L 323 439.5 L 211.5 440 L 211.5 439 Z " /><path fill="rgb(206,206,206)" stroke="rgb(206,206,206)" stroke-width="0.6" opacity="1" d="M 119.5 65 L 178 65.5 L 119.5 66 L 119.5 65 Z " /><path fill="rgb(206,206,206)" stroke="rgb(206,206,206)" stroke-width="0.6" opacity="1" d="M 185.5 74 L 186 93.5 L 185 93.5 L 185.5 74 Z " /><path fill="rgb(206,206,206)" stroke="rgb(206,206,206)" stroke-width="0.6" opacity="1" d="M 443 243 L 445 243.5 L 444 244.5 L 444 406.5 L 444.5 408 L 443 406.5 L 443 243 Z " /><path fill="rgb(206,206,206)" stroke="rgb(206,206,206)" stroke-width="0.6" opacity="1" d="M 71.5 300 L 72 407.5 L 70 408.5 L 71 407.5 L 71.5 300 Z " /><path fill="rgb(206,206,206)" stroke="rgb(206,206,206)" stroke-width="0.6" opacity="1" d="M 456.5 415 L 457 434.5 L 456 434.5 L 456.5 415 Z " /><path fill="rgb(206,206,206)" stroke="rgb(206,206,206)" stroke-width="0.6" opacity="1" d="M 60.5 427 L 61 440.5 L 60 440.5 L 60.5 427 Z " /><path fill="rgb(206,206,206)" stroke="rgb(206,206,206)" stroke-width="0.6" opacity="1" d="M 66.5 446 L 105 446.5 L 66.5 447 L 66.5 446 Z " /><path fill="rgb(176,159,48)" stroke="rgb(176,159,48)" stroke-width="0.6" opacity="1" d="M 139.5 95 L 161 95.5 L 139.5 96 L 139.5 95 Z " /><path fill="rgb(176,159,48)" stroke="rgb(176,159,48)" stroke-width="0.6" opacity="1" d="M 165.5 95 L 177 95.5 L 165.5 96 L 165.5 95 Z " /><path fill="rgb(176,159,48)" stroke="rgb(176,159,48)" stroke-width="0.6" opacity="1" d="M 169.5 273 L 170 303.5 L 168 304.5 L 169 303.5 L 169.5 273 Z " /><path fill="rgb(176,159,48)" stroke="rgb(176,159,48)" stroke-width="0.6" opacity="1" d="M 168.5 311 L 170 312.5 L 170 343.5 L 168 344.5 L 169 343.5 L 169 312.5 L 168.5 311 Z " /><path fill="rgb(176,159,48)" stroke="rgb(176,159,48)" stroke-width="0.6" opacity="1" d="M 139.5 325 L 141 344.5 L 139 343.5 L 139.5 325 Z " /><path fill="rgb(176,159,48)" stroke="rgb(176,159,48)" stroke-width="0.6" opacity="1" d="M 205.5 407 L 204.5 409 L 185 408.5 L 205.5 407 Z " /><path fill="rgb(176,159,48)" stroke="rgb(176,159,48)" stroke-width="0.6" opacity="1" d="M 212.5 407 L 226 408.5 L 213.5 409 L 212.5 407 Z " /><path fill="rgb(176,159,48)" stroke="rgb(176,159,48)" stroke-width="0.6" opacity="1" d="M 185.5 414 L 241 414.5 L 185.5 415 L 185.5 414 Z " /><path fill="rgb(176,159,48)" stroke="rgb(176,159,48)" stroke-width="0.6" opacity="1" d="M 450.5 416 L 451 437.5 L 448.5 440 L 323.5 440 L 323.5 439 L 448.5 439 L 450 437.5 L 450.5 416 Z " /><path fill="rgb(144,144,144)" stroke="rgb(144,144,144)" stroke-width="0.6" opacity="1" d="M 183.5 98 L 180 102.5 L 180 119.5 L 181 120.5 L 179 119.5 L 179 102.5 L 183.5 98 Z " /><path fill="rgb(144,144,144)" stroke="rgb(144,144,144)" stroke-width="0.6" opacity="1" d="M 117.5 101 L 119 102.5 L 119 160.5 L 116 162.5 L 118 160.5 L 118 102.5 L 117.5 101 Z " /><path fill="rgb(144,144,144)" stroke="rgb(144,144,144)" stroke-width="0.6" opacity="1" d="M 226.5 445 L 450 445.5 L 226.5 446 L 226.5 445 Z " /><path fill="rgb(72,119,65)" stroke="rgb(72,119,65)" stroke-width="0.6" opacity="1" d="M 124.5 102 L 125 155.5 L 126 156.5 L 124 155.5 L 124.5 102 Z " /><path fill="rgb(72,119,65)" stroke="rgb(72,119,65)" stroke-width="0.6" opacity="1" d="M 104.5 271 L 106 271.5 L 104 273.5 L 103.5 284 L 103 272.5 L 104.5 271 Z " /><path fill="rgb(72,119,65)" stroke="rgb(72,119,65)" stroke-width="0.6" opacity="1" d="M 132.5 271 L 134 272.5 L 134 303.5 L 132 304.5 L 133 303.5 L 133 272.5 L 132.5 271 Z " /></svg>