<svg width="627" height="627" preserveAspectRatio="xMidYMid meet" viewBox="0 0 512 512" version="1.1" xmlns="http://www.w3.org/2000/svg" ><path fill="rgb(255,255,255)" stroke="rgb(255,255,255)" stroke-width="0.6" opacity="1" d="M 0 0 L 512 0 L 512 512 L 0 512 L 0 0 Z M 251 20 L 139 81 L 56 130 L 52 135 L 53 144 Q 56 148 67 146 L 68 148 L 68 265 L 69 273 L 62 275 L 59 279 L 59 305 L 60 307 L 68 310 L 69 312 L 69 457 L 68 458 L 58 458 L 54 463 L 54 489 L 57 491 L 456 491 L 458 489 L 458 463 Q 457 457 448 458 L 446 457 L 446 311 L 453 308 L 456 304 L 456 279 L 448 273 L 446 272 L 446 148 L 448 146 L 459 145 L 461 142 L 460 134 L 456 129 L 428 112 L 277 27 L 263 20 L 251 20 Z " /><path fill="rgb(247,202,55)" stroke="rgb(247,202,55)" stroke-width="0.6" opacity="1" d="M 125.5 146 L 196.5 147 L 197.5 146 L 244.5 146 L 245.5 147 L 305.5 147 L 315.5 146 L 316.5 147 L 357.5 147 L 358.5 146 L 390.5 146 L 391.5 147 L 432.5 147 L 436.5 146 L 438 147.5 L 438 270.5 L 435.5 273 L 76 273 L 77 266.5 L 77 212.5 L 78 208.5 L 77 207.5 L 77 193.5 L 78 186.5 L 77 185.5 L 77 171.5 L 78 165.5 L 77 164.5 L 77 148.5 L 80.5 147 L 85.5 148 L 86.5 147 L 109.5 147 L 114.5 148 L 125.5 146 Z M 131 168 L 125 169 L 119 176 L 119 249 L 120 251 L 129 256 L 148 254 L 158 255 L 173 255 L 174 254 L 186 255 L 203 254 L 207 249 L 207 174 L 201 168 L 177 168 L 176 169 L 131 168 Z M 314 168 L 308 175 L 308 250 L 318 256 L 344 254 L 390 255 L 395 249 L 395 174 L 389 168 L 367 168 L 366 169 L 348 169 L 347 168 L 325 168 L 324 169 L 314 168 Z " /><path fill="rgb(247,202,55)" stroke="rgb(247,202,55)" stroke-width="0.6" opacity="1" d="M 187.5 175 Q 195.8 173.8 199 177.5 L 199 205.5 L 200 206.5 Q 198.3 209.8 191.5 208 L 180.5 207 L 177.5 208 L 167 207 L 167 180.5 L 168.5 179 L 174.5 176 L 187.5 175 Z " /><path fill="rgb(247,202,55)" stroke="rgb(247,202,55)" stroke-width="0.6" opacity="1" d="M 317.5 176 L 347 176 L 347 207 L 334.5 208 L 327.5 207 L 325.5 208 L 320.5 207 L 318.5 208 L 316 203.5 L 316 177.5 L 317.5 176 Z " /><path fill="rgb(247,202,55)" stroke="rgb(247,202,55)" stroke-width="0.6" opacity="1" d="M 184.5 214 Q 194.8 212.5 199 215 L 199 243.5 L 196.5 246 L 167 246 L 167 216.5 L 166.5 215 L 183.5 215 L 184.5 214 Z " /><path fill="rgb(247,202,55)" stroke="rgb(247,202,55)" stroke-width="0.6" opacity="1" d="M 249.5 339 L 286.5 339 L 290 342.5 L 290 457.5 L 287.5 458 L 286.5 457 L 272.5 457 L 261.5 458 L 260.5 457 L 246.5 457 L 238.5 458 L 237.5 457 L 222.5 457 L 220 454.5 L 220 342.5 L 221.5 341 L 248.5 340 L 249.5 339 Z M 273 401 L 266 409 L 267 417 L 273 421 L 282 420 Q 287 417 285 406 Q 283 399 273 401 Z " /><path fill="rgb(247,202,55)" stroke="rgb(247,202,55)" stroke-width="0.6" opacity="1" d="M 344.5 343 L 368.5 343 L 371 344 L 371 369.5 L 370 373 L 342 373 L 342 344 L 344.5 343 Z " /><path fill="rgb(247,202,55)" stroke="rgb(247,202,55)" stroke-width="0.6" opacity="1" d="M 379 344 L 405.5 344 L 408 345 L 409 360.5 L 408 369.5 L 406 373 L 381.5 373 L 379 370.5 L 379 344 Z " /><path fill="rgb(247,202,55)" stroke="rgb(247,202,55)" stroke-width="0.6" opacity="1" d="M 138 381 L 164.5 381 L 166 382.5 L 167 384.5 L 167 413 L 155.5 414 L 148.5 413 L 138.5 414 L 138 411.5 L 139 401.5 L 138 400.5 L 138 381 Z " /><path fill="rgb(77,151,69)" stroke="rgb(77,151,69)" stroke-width="0.6" opacity="1" d="M 128.5 214 L 158.5 214 L 160 215.5 L 160 245.5 L 158.5 247 L 128.5 247 L 127 245.5 L 127 215.5 L 128.5 214 Z " /><path fill="rgb(77,151,69)" stroke="rgb(77,151,69)" stroke-width="0.6" opacity="1" d="M 356.5 214 L 386.5 214 L 388 215.5 L 388 245.5 L 386.5 247 L 356.5 247 L 355 245.5 L 355 215.5 L 356.5 214 Z " /><path fill="rgb(77,151,69)" stroke="rgb(77,151,69)" stroke-width="0.6" opacity="1" d="M 67.5 281 L 447.5 281 L 449 282.5 L 449 300.5 L 447.5 302 L 67.5 302 L 66 300.5 L 66 282.5 L 67.5 281 Z " /><path fill="rgb(77,151,69)" stroke="rgb(77,151,69)" stroke-width="0.6" opacity="1" d="M 77.5 309 L 437.5 309 L 439 310.5 L 439 456.5 L 437.5 458 L 298.5 458 L 297 456.5 L 297 337.5 L 292.5 333 L 217.5 333 L 213 337.5 L 212 339.5 L 212 456.5 L 210.5 458 L 77.5 458 L 76 456.5 L 76 310.5 L 77.5 309 Z M 100 336 L 94 341 L 94 416 L 95 419 L 97 420 L 171 420 L 175 415 L 175 342 L 174 340 L 170 336 L 100 336 Z M 341 336 L 335 341 L 335 418 L 338 420 L 412 420 L 414 419 L 416 416 L 416 341 L 411 336 L 341 336 Z " /><path fill="rgb(77,151,69)" stroke="rgb(77,151,69)" stroke-width="0.6" opacity="1" d="M 138.5 342 L 140.5 343 L 166.5 343 L 168 344.5 L 168 372.5 L 166.5 374 L 138.5 374 L 137 372.5 L 137 343.5 L 138.5 342 Z " /><path fill="rgb(77,151,69)" stroke="rgb(77,151,69)" stroke-width="0.6" opacity="1" d="M 101.5 380 L 129.5 380 L 131 381.5 L 131 412.5 L 129.5 414 L 101.5 414 L 100 412.5 L 100 381.5 L 101.5 380 Z " /><path fill="rgb(77,151,69)" stroke="rgb(77,151,69)" stroke-width="0.6" opacity="1" d="M 379.5 380 L 409 381 L 409 403.5 L 411 408.5 L 408.5 414 L 379.5 414 L 378 412.5 L 378 381.5 L 379.5 380 Z " /><path fill="rgb(77,151,69)" stroke="rgb(77,151,69)" stroke-width="0.6" opacity="1" d="M 275.5 406 L 280 409.5 L 278.5 415 Q 273.3 416.3 272 413.5 Q 270.8 408.3 273.5 407 L 275.5 406 Z " /><path fill="rgb(224,170,52)" stroke="rgb(224,170,52)" stroke-width="0.6" opacity="1" d="M 254.5 27 L 260.5 28 L 277.5 36 L 356.5 80 L 426.5 120 L 451 137.5 L 449.5 139 L 61 139 Q 59.5 135.3 62.5 136 Q 154.8 77.8 254.5 27 Z " /><path fill="rgb(224,170,52)" stroke="rgb(224,170,52)" stroke-width="0.6" opacity="1" d="M 78.5 146 L 86 147.5 L 81.5 148 L 78.5 147 L 77 147.5 L 78.5 146 Z " /><path fill="rgb(224,170,52)" stroke="rgb(224,170,52)" stroke-width="0.6" opacity="1" d="M 97.5 146 Q 108.3 144.7 115 147.5 L 110.5 148 L 97.5 147 L 97.5 146 Z " /><path fill="rgb(224,170,52)" stroke="rgb(224,170,52)" stroke-width="0.6" opacity="1" d="M 294.5 146 L 306 146.5 L 294.5 147 L 294.5 146 Z " /><path fill="rgb(224,170,52)" stroke="rgb(224,170,52)" stroke-width="0.6" opacity="1" d="M 437.5 146 L 439 147.5 L 439 273 L 435.5 274 L 77.5 274 L 77.5 273 L 435.5 273 L 438 270.5 L 438 147.5 L 437.5 146 Z " /><path fill="rgb(224,170,52)" stroke="rgb(224,170,52)" stroke-width="0.6" opacity="1" d="M 206.5 173 L 207 248.5 L 206 248.5 L 206.5 173 Z " /><path fill="rgb(224,170,52)" stroke="rgb(224,170,52)" stroke-width="0.6" opacity="1" d="M 394.5 173 L 395 248.5 L 394 248.5 L 394.5 173 Z " /><path fill="rgb(224,170,52)" stroke="rgb(224,170,52)" stroke-width="0.6" opacity="1" d="M 308.5 174 L 309 249.5 L 308 249.5 L 308.5 174 Z " /><path fill="rgb(224,170,52)" stroke="rgb(224,170,52)" stroke-width="0.6" opacity="1" d="M 119.5 175 L 120 248.5 L 119 248.5 L 119.5 175 Z " /><path fill="rgb(224,170,52)" stroke="rgb(224,170,52)" stroke-width="0.6" opacity="1" d="M 320.5 175 L 333 175.5 L 320.5 176 L 320.5 175 Z " /><path fill="rgb(224,170,52)" stroke="rgb(224,170,52)" stroke-width="0.6" opacity="1" d="M 338.5 175 Q 346 173 348 176.5 L 347.5 207 L 347 176 L 338.5 176 L 338.5 175 Z " /><path fill="rgb(224,170,52)" stroke="rgb(224,170,52)" stroke-width="0.6" opacity="1" d="M 128.5 176 L 157.5 176 L 160 178.5 L 160 207 L 129.5 207 L 127 206.5 L 127 177.5 L 128.5 176 Z " /><path fill="rgb(224,170,52)" stroke="rgb(224,170,52)" stroke-width="0.6" opacity="1" d="M 167.5 176 L 174 176.5 L 167 180.5 L 167 206.5 L 170.5 207 L 170.5 208 L 166 206.5 L 166 177.5 L 167.5 176 Z " /><path fill="rgb(224,170,52)" stroke="rgb(224,170,52)" stroke-width="0.6" opacity="1" d="M 198.5 176 L 200 177.5 L 200 205.5 L 199 205.5 L 199 177.5 L 198.5 176 Z " /><path fill="rgb(224,170,52)" stroke="rgb(224,170,52)" stroke-width="0.6" opacity="1" d="M 316.5 176 L 316 177.5 L 316 203.5 L 318 207.5 L 315 205.5 L 315 177.5 L 316.5 176 Z " /><path fill="rgb(224,170,52)" stroke="rgb(224,170,52)" stroke-width="0.6" opacity="1" d="M 355 176 L 386.5 176 L 388 177.5 L 388 206.5 L 384.5 207 L 383.5 208 L 356.5 208 L 355 206.5 L 355 176 Z " /><path fill="rgb(224,170,52)" stroke="rgb(224,170,52)" stroke-width="0.6" opacity="1" d="M 167.5 214 L 184 214.5 L 167.5 215 L 167.5 214 Z " /><path fill="rgb(224,170,52)" stroke="rgb(224,170,52)" stroke-width="0.6" opacity="1" d="M 197.5 214 L 200 215.5 L 200 245.5 L 197.5 246 L 196.5 247 L 167.5 247 L 166 245.5 L 166 216.5 L 167 216.5 L 167 246 L 196.5 246 L 199 243.5 L 199 215 L 197.5 214 Z " /><path fill="rgb(224,170,52)" stroke="rgb(224,170,52)" stroke-width="0.6" opacity="1" d="M 316.5 214 L 346.5 214 L 348 215.5 L 348 245.5 L 346.5 247 L 316.5 247 L 315 245.5 L 315 215.5 L 316.5 214 Z " /><path fill="rgb(224,170,52)" stroke="rgb(224,170,52)" stroke-width="0.6" opacity="1" d="M 327.5 254 L 343 254.5 L 327.5 255 L 327.5 254 Z " /><path fill="rgb(224,170,52)" stroke="rgb(224,170,52)" stroke-width="0.6" opacity="1" d="M 225.5 339 L 249 339.5 L 225.5 340 L 225.5 339 Z " /><path fill="rgb(224,170,52)" stroke="rgb(224,170,52)" stroke-width="0.6" opacity="1" d="M 287.5 339 L 291 341.5 L 290.5 457 L 290 342.5 L 287.5 339 Z " /><path fill="rgb(224,170,52)" stroke="rgb(224,170,52)" stroke-width="0.6" opacity="1" d="M 220.5 340 L 224 340.5 L 220 342.5 L 220 454.5 L 222.5 457 L 238 457.5 L 221.5 458 L 219 457 L 219 341.5 L 220.5 340 Z " /><path fill="rgb(224,170,52)" stroke="rgb(224,170,52)" stroke-width="0.6" opacity="1" d="M 101.5 343 L 129.5 343 L 131 344.5 L 131 370.5 L 128.5 373 L 102.5 373 L 101 371.5 L 100 369.5 L 100 344.5 L 101.5 343 Z " /><path fill="rgb(224,170,52)" stroke="rgb(224,170,52)" stroke-width="0.6" opacity="1" d="M 342.5 343 L 344 343.5 L 342 344 L 342 373 L 370 373 L 371 369.5 L 371 344 L 369 343.5 L 370.5 343 L 372 344.5 L 372 372.5 L 370.5 374 L 342.5 374 L 341 372.5 L 341 344.5 L 342.5 343 Z " /><path fill="rgb(224,170,52)" stroke="rgb(224,170,52)" stroke-width="0.6" opacity="1" d="M 379.5 343 L 405.5 343 L 409 344 L 410 365.5 L 407.5 373 L 405.5 374 L 381.5 374 L 378 371.5 L 378 344.5 L 379.5 343 Z M 379 344 L 379 371 L 382 373 L 406 373 L 408 370 L 409 361 L 408 345 L 406 344 L 379 344 Z " /><path fill="rgb(224,170,52)" stroke="rgb(224,170,52)" stroke-width="0.6" opacity="1" d="M 138.5 380 L 164.5 380 L 168 381 L 167.5 413 L 167 384.5 L 164.5 381 L 138 381 L 138 400.5 L 139 409.5 L 137.5 412 L 137 381.5 L 138.5 380 Z " /><path fill="rgb(224,170,52)" stroke="rgb(224,170,52)" stroke-width="0.6" opacity="1" d="M 342.5 380 L 367.5 380 L 372 381 L 372 412.5 L 370.5 414 L 345.5 414 L 341 411.5 L 341 381.5 L 342.5 380 Z " /><path fill="rgb(224,170,52)" stroke="rgb(224,170,52)" stroke-width="0.6" opacity="1" d="M 61.5 465 L 450.5 465 L 452 466.5 L 452 483.5 L 450.5 485 L 64.5 485 L 62.5 484 L 60 483.5 L 60 466.5 L 61.5 465 Z " /><path fill="rgb(0,0,0)" stroke="rgb(0,0,0)" stroke-width="0.6" opacity="1" d="M 252.5 20 L 260.5 20 L 276.5 28 L 427.5 113 L 453.5 129 L 460 135.5 Q 461.5 143.5 456.5 145 Q 448.3 142.8 446 146.5 L 446 272.5 L 447.5 274 L 455 278.5 L 456 280.5 L 456 302.5 L 452.5 307 L 446 309.5 L 446 457.5 L 447.5 459 Q 456.5 457.5 458 463.5 L 458 486.5 L 453.5 491 L 58.5 491 L 54 486.5 L 54 464.5 L 59.5 458 Q 67 460 69 456.5 L 69 310.5 L 67.5 309 Q 62 308.6 60 304.5 L 59 302.5 L 59 280.5 L 62.5 276 L 69 273.5 L 69 146.5 L 67.5 145 L 59.5 146 L 53 141.5 Q 51.3 131.8 57.5 130 L 140.5 81 L 252.5 20 Z M 255 26 Q 155 77 62 135 Q 57 137 61 139 L 452 139 L 453 138 L 430 121 L 362 82 L 274 33 L 261 27 L 255 26 Z M 306 145 L 305 146 L 77 146 L 76 156 L 76 273 L 78 274 L 438 274 L 439 273 L 439 147 L 438 145 L 432 146 L 309 146 L 306 145 Z M 68 281 L 66 283 L 66 301 L 68 302 L 448 302 L 449 301 L 449 283 L 448 281 L 68 281 Z M 78 309 L 76 311 L 76 457 L 78 458 L 211 458 L 212 457 L 212 342 L 213 338 L 219 333 L 293 333 L 297 338 L 297 457 L 299 458 L 438 458 L 439 457 L 439 311 L 438 309 L 78 309 Z M 221 339 L 219 341 L 219 457 L 221 458 L 290 458 L 291 457 L 291 341 L 290 339 L 221 339 Z M 62 465 L 60 467 L 60 484 L 62 485 L 451 485 L 452 484 L 452 467 L 451 465 L 62 465 Z " /><path fill="rgb(0,0,0)" stroke="rgb(0,0,0)" stroke-width="0.6" opacity="1" d="M 125.5 169 L 200.5 169 L 206 173.5 L 206 248.5 L 200.5 254 L 125.5 254 L 120 248.5 L 120 175.5 L 125.5 169 Z M 129 175 L 127 177 L 127 207 L 129 208 L 159 208 L 160 207 L 160 177 L 159 175 L 129 175 Z M 176 175 L 168 176 L 166 178 L 166 207 L 168 208 L 199 208 L 200 207 L 200 177 L 199 175 L 176 175 Z M 129 214 L 127 216 L 127 246 L 129 247 L 159 247 L 160 246 L 160 216 L 159 214 L 129 214 Z M 168 214 L 166 216 L 166 246 L 168 247 L 199 247 L 200 246 L 200 216 L 199 214 L 168 214 Z " /><path fill="rgb(0,0,0)" stroke="rgb(0,0,0)" stroke-width="0.6" opacity="1" d="M 313.5 169 L 388.5 169 L 394 173.5 L 394 248.5 L 389.5 254 L 314.5 254 L 309 249.5 L 309 174.5 L 313.5 169 Z M 317 175 L 315 177 L 315 207 L 317 208 L 347 208 L 348 207 L 348 177 L 347 175 L 317 175 Z M 357 175 L 355 177 L 355 207 L 357 208 L 387 208 L 388 207 L 388 177 L 387 175 L 376 176 L 357 175 Z M 317 214 L 315 216 L 315 246 L 317 247 L 347 247 L 348 246 L 348 216 L 347 214 L 317 214 Z M 357 214 L 355 216 L 355 246 L 357 247 L 387 247 L 388 246 L 388 216 L 387 214 L 357 214 Z " /><path fill="rgb(0,0,0)" stroke="rgb(0,0,0)" stroke-width="0.6" opacity="1" d="M 100.5 336 L 168.5 336 L 174 340.5 L 175 342.5 L 175 413.5 L 169.5 420 L 98.5 420 L 94 415.5 L 94 341.5 L 98.5 337 L 100.5 336 Z M 109 342 L 102 343 L 100 345 L 100 373 L 102 374 L 130 374 L 131 373 L 131 345 L 130 343 L 109 342 Z M 139 342 L 137 344 L 137 373 L 139 374 L 167 374 L 168 373 L 168 345 L 167 343 L 141 343 L 139 342 Z M 102 380 L 100 382 L 100 413 L 102 414 L 130 414 L 131 413 L 131 382 L 130 380 L 102 380 Z M 139 380 L 137 382 L 137 413 L 139 414 L 167 414 L 168 413 L 168 382 L 167 380 L 139 380 Z " /><path fill="rgb(0,0,0)" stroke="rgb(0,0,0)" stroke-width="0.6" opacity="1" d="M 341.5 336 L 409.5 336 L 416 341.5 L 416 414.5 L 411.5 420 L 339.5 420 L 335 415.5 L 335 341.5 L 339.5 337 L 341.5 336 Z M 343 342 L 341 344 L 341 373 L 343 374 L 371 374 L 372 373 L 372 345 L 371 343 L 345 343 L 343 342 Z M 380 343 L 378 345 L 378 373 L 380 374 L 408 374 L 411 366 Q 413 359 409 358 L 409 345 L 408 343 L 380 343 Z M 343 380 L 341 382 L 341 413 L 343 414 L 371 414 L 372 413 L 372 382 L 371 380 L 343 380 Z M 380 380 L 378 382 L 378 413 L 380 414 L 409 414 L 411 411 Q 412 405 409 404 L 409 382 L 408 380 L 380 380 Z " /><path fill="rgb(0,0,0)" stroke="rgb(0,0,0)" stroke-width="0.6" opacity="1" d="M 274.5 401 Q 281.1 401.4 284 405.5 Q 286.5 417.5 279.5 420 Q 271.5 421.5 269 417.5 Q 265.8 415.2 267 408.5 L 272.5 402 L 274.5 401 Z M 275 406 L 271 411 L 274 416 L 279 415 L 281 412 L 280 409 L 275 406 Z " /><path fill="rgb(77,151,54)" stroke="rgb(77,151,54)" stroke-width="0.6" opacity="1" d="M 81.5 146 L 97 146.5 L 81.5 147 L 81.5 146 Z " /><path fill="rgb(77,151,54)" stroke="rgb(77,151,54)" stroke-width="0.6" opacity="1" d="M 110.5 146 L 125 146.5 L 110.5 147 L 110.5 146 Z " /><path fill="rgb(77,151,54)" stroke="rgb(77,151,54)" stroke-width="0.6" opacity="1" d="M 136.5 146 L 197 146.5 L 136.5 147 L 136.5 146 Z " /><path fill="rgb(77,151,54)" stroke="rgb(77,151,54)" stroke-width="0.6" opacity="1" d="M 245.5 146 L 294 146.5 L 245.5 147 L 245.5 146 Z " /><path fill="rgb(77,151,54)" stroke="rgb(77,151,54)" stroke-width="0.6" opacity="1" d="M 316.5 146 L 358 146.5 L 316.5 147 L 316.5 146 Z " /><path fill="rgb(77,151,54)" stroke="rgb(77,151,54)" stroke-width="0.6" opacity="1" d="M 391.5 146 L 425 146.5 L 391.5 147 L 391.5 146 Z " /><path fill="rgb(77,151,54)" stroke="rgb(77,151,54)" stroke-width="0.6" opacity="1" d="M 130.5 168 L 155 168.5 L 130.5 169 L 130.5 168 Z " /><path fill="rgb(77,151,54)" stroke="rgb(77,151,54)" stroke-width="0.6" opacity="1" d="M 176.5 168 L 197 168.5 L 176.5 169 L 176.5 168 Z " /><path fill="rgb(77,151,54)" stroke="rgb(77,151,54)" stroke-width="0.6" opacity="1" d="M 324.5 168 L 347 168.5 L 324.5 169 L 324.5 168 Z " /><path fill="rgb(77,151,54)" stroke="rgb(77,151,54)" stroke-width="0.6" opacity="1" d="M 366.5 168 L 385 168.5 L 366.5 169 L 366.5 168 Z " /><path fill="rgb(77,151,54)" stroke="rgb(77,151,54)" stroke-width="0.6" opacity="1" d="M 144.5 175 L 158 175.5 L 144.5 176 L 144.5 175 Z " /><path fill="rgb(77,151,54)" stroke="rgb(77,151,54)" stroke-width="0.6" opacity="1" d="M 378.5 175 Q 386 173 388 176.5 L 386.5 176 L 378.5 176 L 378.5 175 Z " /><path fill="rgb(77,151,54)" stroke="rgb(77,151,54)" stroke-width="0.6" opacity="1" d="M 129.5 207 L 159 207.5 L 129.5 208 L 129.5 207 Z " /><path fill="rgb(77,151,54)" stroke="rgb(77,151,54)" stroke-width="0.6" opacity="1" d="M 127.5 254 L 138 254.5 L 127.5 255 L 127.5 254 Z " /><path fill="rgb(77,151,54)" stroke="rgb(77,151,54)" stroke-width="0.6" opacity="1" d="M 157.5 254 L 173 254.5 L 157.5 255 L 157.5 254 Z " /><path fill="rgb(77,151,54)" stroke="rgb(77,151,54)" stroke-width="0.6" opacity="1" d="M 185.5 254 L 198 254.5 L 185.5 255 L 185.5 254 Z " /><path fill="rgb(77,151,54)" stroke="rgb(77,151,54)" stroke-width="0.6" opacity="1" d="M 316.5 254 L 327 254.5 L 316.5 255 L 316.5 254 Z " /><path fill="rgb(77,151,54)" stroke="rgb(77,151,54)" stroke-width="0.6" opacity="1" d="M 374.5 254 L 388 254.5 L 374.5 255 L 374.5 254 Z " /><path fill="rgb(77,151,54)" stroke="rgb(77,151,54)" stroke-width="0.6" opacity="1" d="M 100.5 370 L 101 373 L 129.5 373 L 130 371.5 L 131 371.5 L 129.5 374 L 101.5 374 L 100 372.5 L 100.5 370 Z " /><path fill="rgb(77,151,54)" stroke="rgb(77,151,54)" stroke-width="0.6" opacity="1" d="M 248.5 457 L 261 457.5 L 248.5 458 L 248.5 457 Z " /><path fill="rgb(77,151,54)" stroke="rgb(77,151,54)" stroke-width="0.6" opacity="1" d="M 272.5 457 L 287 457.5 L 272.5 458 L 272.5 457 Z " /><path fill="rgb(33,33,33)" stroke="rgb(33,33,33)" stroke-width="0.6" opacity="1" d="M 76.5 155 L 77 171.5 L 76 171.5 L 76.5 155 Z " /><path fill="rgb(75,76,62)" stroke="rgb(75,76,62)" stroke-width="0.6" opacity="1" d="M 76.5 172 L 77 193.5 L 76 193.5 L 76.5 172 Z " /><path fill="rgb(116,116,60)" stroke="rgb(116,116,60)" stroke-width="0.6" opacity="1" d="M 76.5 194 L 77 214.5 L 76 214.5 L 76.5 194 Z " /><path fill="rgb(199,161,51)" stroke="rgb(199,161,51)" stroke-width="0.6" opacity="1" d="M 76.5 255 L 77 266.5 L 76 266.5 L 76.5 255 Z " /><path fill="rgb(138,138,138)" stroke="rgb(138,138,138)" stroke-width="0.6" opacity="1" d="M 67.5 146 L 69 147.5 L 69 177.5 L 68 177.5 L 68 147.5 L 67.5 146 Z " /><path fill="rgb(181,181,181)" stroke="rgb(181,181,181)" stroke-width="0.6" opacity="1" d="M 68.5 178 L 69 216.5 L 68 216.5 L 68.5 178 Z " /><path fill="rgb(158,157,52)" stroke="rgb(158,157,52)" stroke-width="0.6" opacity="1" d="M 76.5 215 L 77 233.5 L 76 233.5 L 76.5 215 Z " /><path fill="rgb(215,215,215)" stroke="rgb(215,215,215)" stroke-width="0.6" opacity="1" d="M 68.5 217 L 69 244.5 L 68 244.5 L 68.5 217 Z " /><path fill="rgb(238,238,238)" stroke="rgb(238,238,238)" stroke-width="0.6" opacity="1" d="M 68.5 245 L 69 264.5 L 68 264.5 L 68.5 245 Z " /><path fill="rgb(192,190,55)" stroke="rgb(192,190,55)" stroke-width="0.6" opacity="1" d="M 76.5 234 L 77 254.5 L 76 254.5 L 76.5 234 Z " /></svg>