<svg width="627" height="627" preserveAspectRatio="xMidYMid meet" viewBox="0 0 512 512" version="1.1" xmlns="http://www.w3.org/2000/svg" ><path fill="rgb(255,255,255)" stroke="rgb(255,255,255)" stroke-width="0.6" opacity="1" d="M 0 0 L 512 0 L 512 512 L 0 512 L 0 0 Z M 244 29 L 242 30 L 236 37 Q 234 50 242 54 L 242 113 L 206 143 L 74 143 L 71 144 L 62 154 L 24 221 L 24 232 L 26 232 L 71 154 L 76 150 L 84 151 L 195 151 L 195 153 L 138 199 Q 132 203 130 212 L 132 223 L 143 231 L 154 231 L 155 233 L 155 244 L 154 245 L 25 245 L 23 251 Q 25 254 32 253 L 33 255 L 33 395 L 35 413 L 35 437 L 31 439 L 25 446 L 25 480 L 30 483 L 476 483 L 478 482 L 479 481 L 479 444 L 471 438 L 469 437 L 469 254 Q 473 250 482 251 L 487 245 Q 489 234 484 230 L 438 151 L 430 143 L 295 143 L 263 118 L 257 113 L 257 96 L 264 92 L 276 92 L 299 101 Q 314 103 321 96 L 321 55 L 320 53 Q 313 52 311 55 L 302 55 L 282 47 L 275 46 L 261 47 L 262 45 L 261 36 L 254 29 L 244 29 Z " /><path fill="rgb(224,177,119)" stroke="rgb(224,177,119)" stroke-width="0.6" opacity="1" d="M 247.5 35 Q 253.1 35.5 255 39.5 Q 256.3 45.8 252.5 47 Q 244.5 48.5 243 43.5 L 243 40.5 L 247.5 35 Z " /><path fill="rgb(224,177,119)" stroke="rgb(224,177,119)" stroke-width="0.6" opacity="1" d="M 248.5 153 L 258.5 158 L 338 227.5 L 338 247.5 L 341.5 251 L 347.5 253 L 371.5 253 L 372.5 252 L 459.5 252 L 462 254.5 L 462 436.5 L 460.5 438 L 315.5 438 L 312 434.5 L 312 329.5 L 319 323.5 L 319 305.5 L 314.5 300 L 289.5 290 L 272.5 288 L 267.5 286 L 260.5 287 L 258.5 285 L 244.5 285 L 241.5 287 L 227.5 287 L 204.5 292 Q 190.1 295.6 181 304.5 L 181 324.5 L 182.5 326 Q 187.3 325.3 188 328.5 L 188 436.5 L 186.5 438 L 44.5 438 L 42 435.5 L 41 253.5 L 43.5 252 L 46.5 253 L 47.5 252 L 73.5 252 L 74.5 253 L 95.5 253 Q 97 249.5 103.5 251 L 106.5 253 L 140.5 253 L 141.5 252 L 157.5 252 L 162 248.5 L 163 246.5 L 163 225.5 L 165.5 223 L 248.5 153 Z M 244 189 Q 233 190 228 196 Q 217 203 214 218 L 214 232 L 221 247 Q 228 257 243 260 L 257 260 L 272 253 Q 282 246 285 232 Q 287 210 277 201 Q 267 188 244 189 Z M 63 292 L 61 293 L 55 301 L 55 376 L 56 379 L 64 384 Q 74 386 80 382 Q 86 381 89 384 L 101 383 Q 105 381 106 375 L 106 300 L 104 296 L 99 292 L 63 292 Z M 124 292 L 122 293 L 117 299 L 117 377 L 118 379 L 124 383 L 138 383 L 139 382 L 162 383 L 167 377 L 167 302 L 166 297 L 161 292 L 124 292 Z M 340 292 L 338 293 L 333 299 L 333 377 L 334 380 L 337 382 L 343 383 L 357 383 L 358 382 L 367 383 L 380 382 L 384 376 L 384 301 L 382 296 L 377 292 L 340 292 Z M 403 292 L 401 293 L 396 299 L 396 377 L 397 379 L 405 384 Q 415 386 421 382 Q 427 381 429 384 L 436 384 L 443 382 L 447 376 L 447 301 L 445 296 L 440 292 L 403 292 Z " /><path fill="rgb(224,177,119)" stroke="rgb(224,177,119)" stroke-width="0.6" opacity="1" d="M 253.5 196 Q 267 198 273 207.5 L 277 218.5 L 274.5 221 L 255.5 221 L 253 218.5 L 252 197.5 L 253.5 196 Z " /><path fill="rgb(224,177,119)" stroke="rgb(224,177,119)" stroke-width="0.6" opacity="1" d="M 342.5 300 L 373.5 300 L 375 301.5 L 375 331.5 L 373.5 333 L 343.5 333 L 341 330.5 L 341 301.5 L 342.5 300 Z " /><path fill="rgb(224,177,119)" stroke="rgb(224,177,119)" stroke-width="0.6" opacity="1" d="M 254.5 327 L 255.5 328 L 302.5 328 L 304 329.5 L 305 378.5 L 304 379.5 L 304 436.5 L 302.5 438 L 255.5 438 L 253 435.5 L 254 433.5 L 254 398.5 L 253 393.5 L 254 388.5 Q 250.8 386.2 252 379.5 L 254 373.5 L 254 341.5 L 253 335.5 L 254 329.5 L 254.5 327 Z M 263 376 L 256 384 L 256 389 L 264 395 L 270 394 L 274 389 Q 275 381 272 379 Q 269 375 263 376 Z " /><path fill="rgb(224,177,119)" stroke="rgb(224,177,119)" stroke-width="0.6" opacity="1" d="M 64.5 340 L 65.5 341 L 96.5 341 L 98 342.5 L 98 373.5 L 96.5 375 L 65.5 375 L 64 373.5 L 64 342.5 L 63 341.5 L 64.5 340 Z " /><path fill="rgb(224,177,119)" stroke="rgb(224,177,119)" stroke-width="0.6" opacity="1" d="M 168.5 466 L 332.5 466 L 333 475 L 169.5 475 L 168 473.5 L 167 467.5 L 168.5 466 Z " /><path fill="rgb(0,0,0)" stroke="rgb(0,0,0)" stroke-width="0.6" opacity="1" d="M 246.5 29 L 251.5 29 L 260 35.5 L 261 44.5 L 260 46.5 Q 261.5 49.5 267.5 48 L 274.5 47 L 281.5 48 L 298.5 55 L 313.5 55 L 318.5 54 L 321 56.5 L 321 93.5 Q 314.7 102.2 297.5 100 L 277.5 92 L 260.5 92 L 257 94.5 L 257 114.5 L 258.5 116 L 292.5 143 L 426.5 143 L 436 149.5 L 484 231.5 L 487 242.5 L 481.5 250 L 470.5 251 L 469 252.5 L 469 437.5 L 470.5 439 L 478 444.5 L 479 446.5 L 479 478.5 L 473.5 483 L 31.5 483 L 26 478.5 L 25 476.5 L 25 447.5 L 30.5 440 L 35 437.5 L 34 252.5 L 32.5 251 L 26.5 252 Q 23.3 251.3 24 246.5 L 25.5 245 L 153.5 245 L 155 243.5 L 155 231 L 144.5 231 L 132 220.5 L 131 210.5 L 139.5 199 L 197 151.5 L 196.5 150 L 72.5 150 L 27 229 L 25 228.5 L 25 220.5 L 62 155.5 L 71.5 145 L 75.5 143 L 207.5 143 L 242 113.5 L 242 52.5 Q 236 49 236 39.5 L 240.5 32 L 246.5 29 Z M 249 34 L 247 35 Q 241 37 242 45 L 247 48 Q 254 49 256 46 L 255 38 L 249 34 Z M 263 53 L 257 57 L 257 87 L 259 88 L 264 86 L 277 86 L 299 95 Q 310 97 315 92 L 315 62 L 314 60 L 312 61 L 301 61 L 282 53 L 263 53 Z M 250 54 L 248 56 L 248 111 Q 250 114 251 111 L 251 56 L 250 54 Z M 248 118 L 219 140 L 144 203 L 137 211 L 138 220 L 149 226 L 157 224 L 233 158 L 250 146 L 260 151 L 337 217 L 351 226 L 360 223 Q 364 220 363 211 L 263 124 L 254 118 L 248 118 Z M 304 150 L 304 152 L 362 199 L 369 212 Q 370 220 366 224 L 356 231 Q 347 229 345 233 L 345 244 L 347 245 L 479 245 L 480 244 L 479 235 L 431 153 L 429 150 L 304 150 Z M 249 152 L 166 222 L 162 226 L 162 247 L 156 252 L 146 251 L 140 252 L 106 252 L 104 250 Q 97 249 96 252 L 74 252 L 73 251 L 48 251 L 47 252 L 43 251 L 40 253 L 41 438 L 43 439 L 188 439 L 189 438 L 189 328 L 184 325 L 181 323 L 181 307 L 192 298 L 205 293 L 225 288 L 241 288 L 244 286 L 259 286 L 270 287 L 273 289 L 282 289 L 300 294 L 313 300 L 319 308 L 318 324 L 311 329 L 311 438 L 313 439 L 462 439 L 463 438 L 463 253 L 462 251 L 373 251 L 372 252 L 347 252 L 342 250 L 339 248 L 339 227 L 259 157 L 249 152 Z M 231 293 L 210 297 L 190 305 L 187 308 L 187 319 L 189 320 L 311 320 L 312 319 L 312 307 L 298 299 L 280 294 L 231 293 Z M 197 327 L 195 329 L 195 438 L 197 439 L 245 439 L 246 438 L 246 329 L 245 327 L 197 327 Z M 255 327 L 252 336 L 253 342 L 253 375 L 252 376 L 253 388 L 252 394 L 253 398 L 253 434 L 252 435 L 254 439 L 304 439 L 305 438 L 305 389 L 304 388 L 305 329 L 304 327 L 255 327 Z M 34 445 L 31 449 L 31 476 L 33 477 L 35 476 L 51 476 L 52 477 L 65 477 L 66 476 L 134 476 L 140 478 Q 145 479 147 476 L 159 477 L 160 476 L 161 463 Q 163 458 172 459 L 173 458 L 173 447 L 172 445 L 34 445 Z M 181 445 L 179 447 L 179 458 L 181 459 L 319 459 L 320 458 L 320 447 L 319 445 L 181 445 Z M 328 445 L 326 447 L 326 459 Q 328 462 336 460 Q 341 463 339 475 L 341 476 L 459 476 L 460 477 L 472 476 L 473 475 L 473 447 L 472 445 L 328 445 Z M 168 465 Q 164 467 166 475 L 168 476 L 332 476 Q 335 474 333 467 L 332 465 L 168 465 Z " /><path fill="rgb(0,0,0)" stroke="rgb(0,0,0)" stroke-width="0.6" opacity="1" d="M 243.5 190 Q 268.8 188.7 278 203.5 L 284 215.5 L 285 227.5 Q 282.4 243.9 271.5 252 L 257.5 259 L 242.5 259 Q 229.4 255.6 222 246.5 L 215 231.5 L 215 216.5 Q 218.3 203.8 227.5 197 L 243.5 190 Z M 242 196 L 228 204 Q 221 209 220 221 L 222 222 L 245 222 L 246 221 L 246 198 L 242 196 Z M 254 196 L 252 198 L 252 221 L 254 222 L 277 222 L 278 221 L 278 217 L 274 208 Q 269 197 254 196 Z M 223 228 L 221 230 L 221 235 L 226 244 Q 232 251 245 253 L 246 252 L 246 230 L 245 228 L 223 228 Z M 254 228 L 252 230 L 252 252 L 254 253 Q 265 253 270 247 L 277 237 L 278 230 L 277 228 L 254 228 Z " /><path fill="rgb(0,0,0)" stroke="rgb(0,0,0)" stroke-width="0.6" opacity="1" d="M 61.5 293 L 99.5 293 L 104 297.5 L 105 299.5 L 105 376.5 L 100.5 382 L 88.5 383 L 76.5 382 L 63.5 383 L 57 378.5 L 56 376.5 L 56 299.5 L 61.5 293 Z M 64 299 L 62 301 L 63 303 L 63 333 L 65 334 L 98 334 L 99 333 L 99 301 L 98 299 L 64 299 Z M 65 340 L 63 342 L 63 375 L 65 376 L 98 376 L 99 375 L 99 342 L 98 340 L 65 340 Z " /><path fill="rgb(0,0,0)" stroke="rgb(0,0,0)" stroke-width="0.6" opacity="1" d="M 123.5 293 L 160.5 293 L 165 296.5 L 166 298.5 L 166 377.5 Q 161.8 385.3 147.5 383 L 135.5 382 L 125.5 383 L 118 377.5 L 118 298.5 L 121.5 294 L 123.5 293 Z M 126 299 L 124 301 L 124 333 L 126 334 L 159 334 L 160 333 L 160 301 L 159 299 L 126 299 Z M 126 340 L 124 342 L 124 375 L 126 376 L 159 376 L 160 375 L 160 342 L 159 340 L 126 340 Z " /><path fill="rgb(0,0,0)" stroke="rgb(0,0,0)" stroke-width="0.6" opacity="1" d="M 339.5 293 L 377.5 293 L 382 297.5 L 383 299.5 L 383 375.5 L 378.5 382 L 344.5 383 Q 342.8 380.2 337.5 381 L 334 377.5 L 334 298.5 L 337.5 294 L 339.5 293 Z M 342 299 L 340 301 L 340 333 L 342 334 L 375 334 L 376 333 L 376 301 L 375 299 L 342 299 Z M 342 340 L 340 342 L 340 375 L 342 376 L 375 376 L 376 375 L 376 342 L 375 340 L 342 340 Z " /><path fill="rgb(0,0,0)" stroke="rgb(0,0,0)" stroke-width="0.6" opacity="1" d="M 402.5 293 L 440.5 293 L 445 297.5 L 446 299.5 L 446 375.5 L 442.5 381 Q 437.5 384 428.5 383 L 417.5 382 L 404.5 383 L 397 377.5 L 397 298.5 L 400.5 294 L 402.5 293 Z M 405 299 L 403 301 L 403 333 L 405 334 L 438 334 L 439 333 L 439 301 L 438 299 L 405 299 Z M 405 340 L 403 342 L 403 375 L 405 376 L 438 376 L 439 375 L 439 342 L 438 340 L 405 340 Z " /><path fill="rgb(0,0,0)" stroke="rgb(0,0,0)" stroke-width="0.6" opacity="1" d="M 230.5 377 L 234.5 377 L 241 381.5 Q 242.5 390.5 237.5 393 L 231.5 394 L 226 389.5 Q 224 379 230.5 377 Z M 233 381 L 229 387 Q 230 391 236 390 Q 239 389 238 385 L 233 381 Z " /><path fill="rgb(0,0,0)" stroke="rgb(0,0,0)" stroke-width="0.6" opacity="1" d="M 262.5 377 Q 271.5 375.5 273 381.5 Q 274.5 390.5 269.5 393 L 263.5 394 L 257 388.5 L 257 383.5 L 262.5 377 Z M 264 381 L 261 384 L 262 389 L 268 390 Q 271 389 269 383 L 264 381 Z " /><path fill="rgb(185,78,66)" stroke="rgb(185,78,66)" stroke-width="0.6" opacity="1" d="M 306.5 150 L 427.5 150 L 431 153.5 L 479 235.5 L 480 242.5 L 477.5 245 L 346.5 245 L 345 243.5 L 345 232.5 L 346.5 231 L 357.5 231 L 366 224.5 Q 370.9 220.4 369 209.5 L 362.5 199 L 310 156.5 L 307.5 153 L 305 151.5 L 306.5 150 Z " /><path fill="rgb(185,78,66)" stroke="rgb(185,78,66)" stroke-width="0.6" opacity="1" d="M 222.5 228 L 244.5 228 L 246 229.5 L 246 251.5 L 244.5 253 L 229 246 L 227 242.5 Q 221.4 238.6 221 229.5 L 222.5 228 Z " /><path fill="rgb(185,78,66)" stroke="rgb(185,78,66)" stroke-width="0.6" opacity="1" d="M 405.5 299 L 437.5 299 L 439 300.5 L 439 332.5 L 437.5 334 L 404.5 334 L 403 332.5 L 404 306.5 L 403 301.5 L 405.5 299 Z " /><path fill="rgb(185,78,66)" stroke="rgb(185,78,66)" stroke-width="0.6" opacity="1" d="M 404.5 340 L 437.5 340 L 439 341.5 L 439 374.5 L 437.5 376 L 404.5 376 L 403 374.5 L 403 341.5 L 404.5 340 Z " /><path fill="rgb(185,78,66)" stroke="rgb(185,78,66)" stroke-width="0.6" opacity="1" d="M 231.5 382 Q 236.3 381.3 237 384.5 Q 237.8 389.3 234.5 390 L 230 387.5 L 231.5 382 Z " /><path fill="rgb(185,78,66)" stroke="rgb(185,78,66)" stroke-width="0.6" opacity="1" d="M 181.5 445 L 318.5 445 L 320 446.5 L 320 457.5 L 318.5 459 L 186.5 459 L 179 457 L 179 447.5 L 181.5 445 Z " /><path fill="rgb(185,78,66)" stroke="rgb(185,78,66)" stroke-width="0.6" opacity="1" d="M 327.5 445 L 470.5 445 L 473 447.5 L 473 474.5 L 471.5 476 L 340.5 476 L 339 474.5 Q 341.3 463.7 336.5 460 L 327.5 459 L 326 457.5 L 326 446.5 L 327.5 445 Z " /><path fill="rgb(102,151,181)" stroke="rgb(102,151,181)" stroke-width="0.6" opacity="1" d="M 263.5 53 L 279.5 53 L 299.5 61 L 315 61 L 315 90.5 L 312.5 93 L 302.5 95 L 278.5 86 L 261.5 86 L 258 87 L 258 56.5 L 260.5 54 L 263.5 53 Z " /><path fill="rgb(102,151,181)" stroke="rgb(102,151,181)" stroke-width="0.6" opacity="1" d="M 247.5 118 L 252.5 118 L 260.5 123 L 362 210.5 Q 363.8 220.3 358.5 223 Q 355.5 226 348.5 225 L 260.5 151 L 249.5 145 L 237.5 153 L 155.5 224 L 146.5 225 L 139 219.5 L 138 209.5 L 247.5 118 Z " /><path fill="rgb(102,151,181)" stroke="rgb(102,151,181)" stroke-width="0.6" opacity="1" d="M 253.5 228 L 276.5 228 L 278 229.5 Q 275.6 241.6 267.5 248 Q 263 253 253.5 253 L 252 251.5 L 252 229.5 L 253.5 228 Z " /><path fill="rgb(102,151,181)" stroke="rgb(102,151,181)" stroke-width="0.6" opacity="1" d="M 125.5 299 L 158.5 299 L 160 300.5 L 160 332.5 L 158.5 334 L 128.5 334 L 125 330.5 L 125 302.5 L 124 300.5 L 125.5 299 Z " /><path fill="rgb(102,151,181)" stroke="rgb(102,151,181)" stroke-width="0.6" opacity="1" d="M 128.5 340 L 158.5 340 L 160 341.5 L 160 374.5 L 158.5 376 L 126.5 376 L 125 374.5 L 125 343.5 L 128.5 340 Z " /><path fill="rgb(102,151,181)" stroke="rgb(102,151,181)" stroke-width="0.6" opacity="1" d="M 263.5 382 L 268 383.5 L 269 387.5 L 264.5 389 Q 261.3 388.3 262 383.5 L 263.5 382 Z " /><path fill="rgb(102,151,181)" stroke="rgb(102,151,181)" stroke-width="0.6" opacity="1" d="M 34.5 445 L 171.5 445 L 173 446.5 L 173 458 L 167.5 458 L 161 461.5 L 160 474.5 L 158.5 476 Q 146.8 473.8 141.5 478 L 137.5 476 L 62.5 476 L 58.5 477 L 54.5 476 L 52.5 477 L 51.5 476 L 32.5 476 L 31 474.5 L 31 448.5 L 34.5 445 Z " /><path fill="rgb(103,142,86)" stroke="rgb(103,142,86)" stroke-width="0.6" opacity="1" d="M 249.5 54 L 251 55.5 L 251 110.5 Q 249.5 113.5 248 110.5 L 248 55.5 L 249.5 54 Z " /><path fill="rgb(103,142,86)" stroke="rgb(103,142,86)" stroke-width="0.6" opacity="1" d="M 257.5 56 L 258 86.5 L 259 87.5 L 257 86.5 L 257.5 56 Z " /><path fill="rgb(103,142,86)" stroke="rgb(103,142,86)" stroke-width="0.6" opacity="1" d="M 242.5 196 L 246 197.5 L 246 220.5 L 244.5 222 L 222.5 222 L 221 220.5 Q 221.5 208 229.5 203 L 242.5 196 Z " /><path fill="rgb(103,142,86)" stroke="rgb(103,142,86)" stroke-width="0.6" opacity="1" d="M 252.5 199 L 253 218.5 L 255.5 221 L 274.5 221 L 277 218.5 L 277.5 217 L 278 220.5 L 276.5 222 L 253.5 222 L 252 220.5 L 252.5 199 Z " /><path fill="rgb(103,142,86)" stroke="rgb(103,142,86)" stroke-width="0.6" opacity="1" d="M 214.5 217 L 215 231.5 L 214 231.5 L 214.5 217 Z " /><path fill="rgb(103,142,86)" stroke="rgb(103,142,86)" stroke-width="0.6" opacity="1" d="M 335.5 224 L 339 227.5 L 339 247.5 L 338 247.5 L 338 227.5 L 335.5 224 Z " /><path fill="rgb(103,142,86)" stroke="rgb(103,142,86)" stroke-width="0.6" opacity="1" d="M 162.5 225 L 163 246.5 L 162 246.5 L 162.5 225 Z " /><path fill="rgb(103,142,86)" stroke="rgb(103,142,86)" stroke-width="0.6" opacity="1" d="M 48.5 251 L 73 251.5 L 48.5 252 L 48.5 251 Z " /><path fill="rgb(103,142,86)" stroke="rgb(103,142,86)" stroke-width="0.6" opacity="1" d="M 372.5 251 L 461.5 251 L 463 252.5 L 463 437.5 L 461.5 439 L 312.5 439 L 311 437.5 L 311 328.5 L 312.5 327 L 312 328.5 L 312 434.5 L 315.5 438 L 460.5 438 L 462 436.5 L 462 254.5 L 459.5 252 L 372.5 252 L 372.5 251 Z " /><path fill="rgb(103,142,86)" stroke="rgb(103,142,86)" stroke-width="0.6" opacity="1" d="M 40.5 252 L 41 292.5 L 40 292.5 L 40.5 252 Z " /><path fill="rgb(103,142,86)" stroke="rgb(103,142,86)" stroke-width="0.6" opacity="1" d="M 74.5 252 L 95 252.5 L 74.5 253 L 74.5 252 Z " /><path fill="rgb(103,142,86)" stroke="rgb(103,142,86)" stroke-width="0.6" opacity="1" d="M 106.5 252 L 141 252.5 L 106.5 253 L 106.5 252 Z " /><path fill="rgb(103,142,86)" stroke="rgb(103,142,86)" stroke-width="0.6" opacity="1" d="M 347.5 252 L 371 252.5 L 347.5 253 L 347.5 252 Z " /><path fill="rgb(103,142,86)" stroke="rgb(103,142,86)" stroke-width="0.6" opacity="1" d="M 244.5 285 L 258 285.5 L 244.5 286 L 244.5 285 Z " /><path fill="rgb(103,142,86)" stroke="rgb(103,142,86)" stroke-width="0.6" opacity="1" d="M 62.5 292 L 99 292.5 L 62.5 293 L 62.5 292 Z " /><path fill="rgb(103,142,86)" stroke="rgb(103,142,86)" stroke-width="0.6" opacity="1" d="M 123.5 292 L 161 292.5 L 123.5 293 L 123.5 292 Z " /><path fill="rgb(103,142,86)" stroke="rgb(103,142,86)" stroke-width="0.6" opacity="1" d="M 339.5 292 L 377 292.5 L 339.5 293 L 339.5 292 Z " /><path fill="rgb(103,142,86)" stroke="rgb(103,142,86)" stroke-width="0.6" opacity="1" d="M 402.5 292 L 440 292.5 L 402.5 293 L 402.5 292 Z " /><path fill="rgb(103,142,86)" stroke="rgb(103,142,86)" stroke-width="0.6" opacity="1" d="M 232.5 293 L 267.5 293 L 281.5 295 L 306.5 303 L 312 307.5 L 312 318.5 L 310.5 320 L 188.5 320 L 187 318.5 L 187 307.5 L 188.5 306 L 208.5 298 L 232.5 293 Z " /><path fill="rgb(103,142,86)" stroke="rgb(103,142,86)" stroke-width="0.6" opacity="1" d="M 117.5 298 L 118 376.5 L 117 376.5 L 117.5 298 Z " /><path fill="rgb(103,142,86)" stroke="rgb(103,142,86)" stroke-width="0.6" opacity="1" d="M 333.5 298 L 334 376.5 L 333 376.5 L 333.5 298 Z " /><path fill="rgb(103,142,86)" stroke="rgb(103,142,86)" stroke-width="0.6" opacity="1" d="M 396.5 298 L 397 376.5 L 396 376.5 L 396.5 298 Z " /><path fill="rgb(103,142,86)" stroke="rgb(103,142,86)" stroke-width="0.6" opacity="1" d="M 63 299 L 97.5 299 L 99 300.5 L 99 332.5 L 97.5 334 L 64.5 334 L 63 332.5 L 63 299 Z " /><path fill="rgb(103,142,86)" stroke="rgb(103,142,86)" stroke-width="0.6" opacity="1" d="M 105.5 299 L 106 374.5 L 105 374.5 L 105.5 299 Z " /><path fill="rgb(103,142,86)" stroke="rgb(103,142,86)" stroke-width="0.6" opacity="1" d="M 341.5 299 L 374.5 299 L 376 300.5 L 376 332.5 L 374.5 334 L 341.5 334 L 340 332.5 L 340 300.5 L 341.5 299 Z M 341 300 L 341 331 L 344 333 L 374 333 L 375 332 L 375 302 L 374 300 L 341 300 Z " /><path fill="rgb(103,142,86)" stroke="rgb(103,142,86)" stroke-width="0.6" opacity="1" d="M 55.5 300 L 56 375.5 L 55 375.5 L 55.5 300 Z " /><path fill="rgb(103,142,86)" stroke="rgb(103,142,86)" stroke-width="0.6" opacity="1" d="M 383.5 300 L 384 375.5 L 383 375.5 L 383.5 300 Z " /><path fill="rgb(103,142,86)" stroke="rgb(103,142,86)" stroke-width="0.6" opacity="1" d="M 446.5 300 L 447 375.5 L 446 375.5 L 446.5 300 Z " /><path fill="rgb(103,142,86)" stroke="rgb(103,142,86)" stroke-width="0.6" opacity="1" d="M 166.5 301 L 167 376.5 L 166 376.5 L 166.5 301 Z " /><path fill="rgb(103,142,86)" stroke="rgb(103,142,86)" stroke-width="0.6" opacity="1" d="M 124.5 302 L 125 330.5 L 128 333.5 L 125.5 334 L 124 332.5 L 124.5 302 Z " /><path fill="rgb(103,142,86)" stroke="rgb(103,142,86)" stroke-width="0.6" opacity="1" d="M 187.5 326 L 189 327.5 L 189 437.5 L 187.5 439 L 42.5 439 L 41 437.5 L 41 395.5 L 42 395.5 L 42 435.5 L 44.5 438 L 188 438 L 188 327.5 L 187.5 326 Z " /><path fill="rgb(103,142,86)" stroke="rgb(103,142,86)" stroke-width="0.6" opacity="1" d="M 196.5 327 L 244.5 327 L 246 328.5 L 246 437.5 L 244.5 439 L 196.5 439 L 195 437.5 L 195 328.5 L 196.5 327 Z M 233 376 L 230 377 L 225 383 L 226 390 L 233 395 L 237 394 L 242 388 L 241 382 L 233 376 Z " /><path fill="rgb(103,142,86)" stroke="rgb(103,142,86)" stroke-width="0.6" opacity="1" d="M 255.5 327 L 303.5 327 L 305 328.5 L 304.5 342 L 304 329.5 L 302.5 328 L 255.5 328 L 255.5 327 Z " /><path fill="rgb(103,142,86)" stroke="rgb(103,142,86)" stroke-width="0.6" opacity="1" d="M 65.5 340 L 97.5 340 L 99 341.5 L 99 374.5 L 97.5 376 L 64.5 376 L 63 374.5 L 63.5 342 L 64 375 L 96.5 375 L 98 373.5 L 98 342.5 L 96.5 341 L 65.5 341 L 65.5 340 Z " /><path fill="rgb(103,142,86)" stroke="rgb(103,142,86)" stroke-width="0.6" opacity="1" d="M 125.5 340 L 128 340.5 L 125 343.5 L 125 374.5 L 125.5 376 L 124 374.5 L 124 341.5 L 125.5 340 Z " /><path fill="rgb(103,142,86)" stroke="rgb(103,142,86)" stroke-width="0.6" opacity="1" d="M 341.5 340 L 374.5 340 L 376 341.5 L 376 374.5 L 374.5 376 L 341.5 376 L 340 374.5 L 340 341.5 L 341.5 340 Z " /><path fill="rgb(103,142,86)" stroke="rgb(103,142,86)" stroke-width="0.6" opacity="1" d="M 253.5 341 L 254 373.5 L 253 373.5 L 253.5 341 Z " /><path fill="rgb(103,142,86)" stroke="rgb(103,142,86)" stroke-width="0.6" opacity="1" d="M 63.5 383 L 75 383.5 L 63.5 384 L 63.5 383 Z " /><path fill="rgb(103,142,86)" stroke="rgb(103,142,86)" stroke-width="0.6" opacity="1" d="M 404.5 383 L 415 383.5 L 404.5 384 L 404.5 383 Z " /><path fill="rgb(103,142,86)" stroke="rgb(103,142,86)" stroke-width="0.6" opacity="1" d="M 304.5 388 L 305 437.5 L 303.5 439 L 254.5 439 L 252 435.5 L 253 435.5 L 254.5 437 L 255.5 438 L 304 438 L 304.5 388 Z " /><path fill="rgb(103,142,86)" stroke="rgb(103,142,86)" stroke-width="0.6" opacity="1" d="M 253.5 398 L 254 433.5 L 253 433.5 L 253.5 398 Z " /><path fill="rgb(103,142,86)" stroke="rgb(103,142,86)" stroke-width="0.6" opacity="1" d="M 167.5 465 L 332 465.5 L 167 466 L 169.5 475 L 332 475.5 L 167.5 476 Q 164 474 166 466.5 L 167.5 465 Z " /><path fill="rgb(85,82,79)" stroke="rgb(85,82,79)" stroke-width="0.6" opacity="1" d="M 403.5 306 L 404 316.5 L 403 316.5 L 403.5 306 Z " /><path fill="rgb(131,137,127)" stroke="rgb(131,137,127)" stroke-width="0.6" opacity="1" d="M 181.5 150 L 195.5 150 L 197 151.5 L 195.5 151 L 181.5 151 L 181.5 150 Z " /><path fill="rgb(131,137,127)" stroke="rgb(131,137,127)" stroke-width="0.6" opacity="1" d="M 31.5 252 L 34 253.5 L 33.5 275 L 33 253 L 31.5 252 Z " /><path fill="rgb(229,229,229)" stroke="rgb(229,229,229)" stroke-width="0.6" opacity="1" d="M 83.5 150 L 116 150.5 L 83.5 151 L 83.5 150 Z " /><path fill="rgb(229,229,229)" stroke="rgb(229,229,229)" stroke-width="0.6" opacity="1" d="M 33.5 358 L 34 394.5 L 33 394.5 L 33.5 358 Z " /><path fill="rgb(195,195,195)" stroke="rgb(195,195,195)" stroke-width="0.6" opacity="1" d="M 116.5 150 L 149 150.5 L 116.5 151 L 116.5 150 Z " /><path fill="rgb(195,195,195)" stroke="rgb(195,195,195)" stroke-width="0.6" opacity="1" d="M 33.5 315 L 34 357.5 L 33 357.5 L 33.5 315 Z " /><path fill="rgb(161,161,161)" stroke="rgb(161,161,161)" stroke-width="0.6" opacity="1" d="M 149.5 150 L 181 150.5 L 149.5 151 L 149.5 150 Z " /><path fill="rgb(161,161,161)" stroke="rgb(161,161,161)" stroke-width="0.6" opacity="1" d="M 33.5 275 L 34 314.5 L 33 314.5 L 33.5 275 Z " /></svg>