<svg width="1254" height="1254" preserveAspectRatio="xMidYMid meet" viewBox="0 0 512 512" version="1.1" xmlns="http://www.w3.org/2000/svg" ><path fill="rgb(255,255,255)" stroke="rgb(255,255,255)" stroke-width="0.6" opacity="1" d="M 0 0 L 512 0 L 512 512 L 0 512 L 0 0 Z M 256 36 L 251 42 L 253 46 L 253 97 L 146 184 L 146 195 L 152 203 L 161 208 L 164 207 L 165 209 L 165 222 L 104 222 L 102 223 L 61 268 L 62 279 Q 65 286 77 284 L 78 286 L 78 397 L 76 397 Q 68 396 65 399 Q 57 402 56 411 L 49 413 L 41 423 L 42 433 L 42 436 Q 35 440 32 449 L 32 458 L 38 467 L 38 471 L 42 474 L 98 474 L 99 475 L 111 474 L 172 474 L 190 476 L 192 475 L 207 475 L 208 476 L 250 476 L 251 475 L 264 476 L 297 476 L 298 475 L 315 475 L 316 476 L 342 474 L 471 474 L 474 472 Q 476 470 475 465 L 480 458 L 480 447 L 472 437 L 473 433 Q 474 424 471 421 L 463 414 L 459 409 Q 455 401 446 399 Q 440 398 438 401 L 435 400 L 436 285 L 438 283 L 440 284 L 450 282 L 454 275 L 452 267 L 428 240 L 411 222 L 350 222 L 348 221 L 348 209 L 358 205 L 368 192 L 367 184 L 340 159 L 261 96 L 262 92 L 275 87 L 284 88 L 298 95 L 312 95 L 326 90 L 333 84 Q 334 76 330 74 L 330 69 L 334 61 Q 335 53 331 52 L 319 56 Q 308 57 303 54 L 291 45 L 279 41 L 264 43 L 262 39 L 256 36 Z " /><path fill="rgb(230,189,132)" stroke="rgb(230,189,132)" stroke-width="0.6" opacity="1" d="M 255.5 137 L 261.5 139 L 338 201.5 L 339 203.5 L 339 277.5 L 338 281.5 L 339 282.5 L 339 425.5 L 338 426.5 L 338 465 L 329.5 465 L 328 463.5 L 328 457.5 L 322.5 452 L 315 448.5 L 315 361.5 L 314 355.5 Q 308.7 333.3 292.5 322 L 275.5 313 Q 269.5 314 267.5 311 L 248.5 311 L 228.5 317 L 211 332.5 L 203 345.5 L 199 359.5 L 199 450 Q 189.2 448.9 186 455.5 L 184 465 L 175 465 L 175 445.5 L 174 444.5 L 174 379.5 L 175 377.5 L 174 375.5 L 175 374.5 L 175 349.5 L 174 346.5 L 175 342.5 L 174 341.5 L 174 301.5 L 175 300.5 L 175 255.5 L 174 254.5 L 174 219.5 L 175 218.5 L 175 202.5 L 181.5 196 L 255.5 137 Z M 250 176 Q 233 180 224 190 L 213 207 L 210 221 L 210 231 L 213 243 L 223 258 Q 233 269 252 272 Q 276 273 287 261 L 296 251 L 303 232 L 303 218 Q 300 215 301 209 L 291 192 Q 283 182 270 177 L 250 176 Z " /><path fill="rgb(230,189,132)" stroke="rgb(230,189,132)" stroke-width="0.6" opacity="1" d="M 349.5 231 L 408.5 232 L 416 239.5 L 445 272.5 L 443.5 274 L 350.5 274 L 349 272.5 L 348 237.5 L 349 234.5 L 348 232.5 L 349.5 231 Z " /><path fill="rgb(230,189,132)" stroke="rgb(230,189,132)" stroke-width="0.6" opacity="1" d="M 109.5 307 L 124 308 L 124 343.5 L 122.5 344 L 118.5 345 L 116.5 344 L 108.5 345 L 108 342.5 L 108 308.5 L 109.5 307 Z " /><path fill="rgb(230,189,132)" stroke="rgb(230,189,132)" stroke-width="0.6" opacity="1" d="M 366.5 308 L 379.5 308 L 381 309.5 L 381 344 L 366.5 344 L 365 341.5 L 366 339.5 L 365 338.5 L 365 314.5 L 366 312.5 L 365 309.5 L 366.5 308 Z " /><path fill="rgb(230,189,132)" stroke="rgb(230,189,132)" stroke-width="0.6" opacity="1" d="M 250.5 320 L 253 321.5 L 253 395.5 L 251 396 Q 252 390.4 247.5 389 Q 241.3 388.3 240 392.5 Q 236.6 395.1 238 402.5 L 241.5 408 L 248.5 409 L 252.5 403 L 253 448.5 L 251.5 450 L 208 450 L 208 360.5 L 210 358.5 L 210 352.5 L 215 341.5 L 224.5 331 Q 234.5 322.5 250.5 320 Z " /><path fill="rgb(230,189,132)" stroke="rgb(230,189,132)" stroke-width="0.6" opacity="1" d="M 197.5 458 L 307.5 458 L 317.5 459 L 319 460.5 L 320 465.5 L 318.5 467 L 194.5 467 L 193 464.5 L 195.5 459 L 197.5 458 Z " /><path fill="rgb(93,144,174)" stroke="rgb(93,144,174)" stroke-width="0.6" opacity="1" d="M 249 183 L 256.5 184 L 258.5 183 L 260.5 184 L 264 183 L 265.5 185 L 267.5 185 L 270.5 185 L 281 191.5 L 283.5 195 L 286 196.5 Q 284.9 199.8 287.5 199 L 291 206 Q 295 204.6 293 211.5 L 295 214.5 L 295 216.5 L 296 220.5 L 293.5 221 L 286.5 222 L 284.5 221 Q 280.7 225.2 270.5 223 L 264.5 221 L 262 222 Q 259 219.8 260 212.5 L 261 211.5 L 261 188.5 L 256.5 186 Q 250.6 189.6 253 201.5 L 254 202.5 L 254 219.5 L 252 223.5 L 257.5 232 L 259.5 232 L 271 242.5 L 273.5 246 L 277 248.5 L 278.5 250 L 280 246.5 L 276.5 242 L 272 238.5 L 265 229.5 L 269.5 226 L 289 226 Q 287.8 229 291.5 228 L 293.5 227 L 296 228 L 294 232.5 L 295 235.5 Q 291.3 247.8 282.5 255 L 273 260 Q 274.3 263 270.5 262 L 267.5 263 L 265 262 Q 266.3 265 262.5 264 L 258 261.5 L 260 257.5 L 257.5 254 L 255 255.5 Q 256.5 261.5 253.5 263 L 250.5 264 L 250 262 L 245.5 263 L 232 255.5 L 228.5 251 L 225 248.5 L 219 235.5 L 220 233.5 L 217 228.5 L 219.5 228 Q 224.3 228.8 225 225.5 L 223.5 222 L 218.5 220 L 217 220.5 L 219 210.5 L 222 204 Q 225.3 205.3 224 200.5 L 227 199 L 231.5 192 L 235 190.5 L 236.5 188 Q 239.8 189.1 239 186.5 L 241.5 186 L 246.5 184 L 249 185 L 249 183 Z " /><path fill="rgb(93,144,174)" stroke="rgb(93,144,174)" stroke-width="0.6" opacity="1" d="M 107 282 L 164.5 282 L 165 283.5 L 166 286.5 L 165 294.5 L 167 297.5 L 167 338 L 165 338.5 L 165 349.5 L 166 356.5 L 165 357.5 L 165 395 L 167 395.5 L 167 465 Q 163.9 464.3 164.5 467 L 89 467 L 87.5 464 L 86 463.5 L 86 367.5 L 87 366.5 L 87 334.5 L 86 321.5 L 87 318.5 L 85 312.5 L 85 284.5 L 87.5 284 L 89.5 283 L 91.5 283 L 107 284 L 107 282 Z M 108 300 L 102 306 L 102 348 L 107 352 L 150 352 L 154 349 L 154 306 L 153 304 L 148 300 L 144 301 L 108 300 Z M 108 371 L 104 373 L 102 377 L 102 420 L 103 422 L 118 423 L 121 422 L 151 422 L 155 419 L 154 418 L 154 376 L 153 373 L 150 371 L 147 372 L 108 371 Z " /><path fill="rgb(93,144,174)" stroke="rgb(93,144,174)" stroke-width="0.6" opacity="1" d="M 389 306 Q 393.8 304.1 393 307.5 L 394 307.5 Q 393.2 304.5 397 306 L 397.5 308 L 406 308 L 406 311.5 L 405 312.5 L 405 341.5 L 406 343.5 L 405 346 L 388.5 346 L 387 344.5 L 387 313.5 L 388 311.5 L 387 308 Q 390 309 389 306 Z " /><path fill="rgb(93,144,174)" stroke="rgb(93,144,174)" stroke-width="0.6" opacity="1" d="M 131.5 377 L 147.5 377 L 149 378.5 L 148 383.5 L 149 384.5 L 149 416 L 135.5 417 L 131 415 L 132 412.5 L 132 379.5 L 133 378.5 L 131.5 377 Z " /><path fill="rgb(93,144,174)" stroke="rgb(93,144,174)" stroke-width="0.6" opacity="1" d="M 442.5 405 Q 449.1 405.9 452 410.5 L 453 418.5 L 453.5 421 L 458.5 420 L 466 424 L 467 431.5 L 463 437.5 L 463 440.5 Q 464.3 443.3 469.5 442 L 473 445.5 L 474 450.5 L 473 452.5 L 474 455.5 L 468.5 463 L 461.5 467 L 435.5 467 L 433 464.5 L 433 452 L 435 451.5 L 435 409.5 L 442.5 405 Z " /><path fill="rgb(184,73,62)" stroke="rgb(184,73,62)" stroke-width="0.6" opacity="1" d="M 256.5 106 L 276.5 120 L 341.5 174 L 344 174 L 345.5 177 L 358 187.5 Q 357.9 193.9 353.5 196 L 349.5 197 L 267.5 132 L 260.5 127 L 255.5 126 L 176 188.5 Q 176.8 191.1 173.5 190 L 162.5 198 L 157 193.5 L 156 187.5 L 161 181 L 173.5 173 L 209 143.5 Q 208.2 140.9 211.5 142 L 256.5 106 Z M 333 180 L 336 184 L 337 186 L 345 191 L 346 190 L 338 183 L 336 181 L 333 180 Z M 180 181 L 168 190 L 166 193 L 181 182 L 180 181 Z M 164 183 L 159 189 Q 158 194 162 195 L 164 195 L 162 192 L 165 185 L 164 183 Z M 349 183 L 351 190 Q 349 195 353 194 Q 356 193 355 188 L 349 183 Z " /><path fill="rgb(184,73,62)" stroke="rgb(184,73,62)" stroke-width="0.6" opacity="1" d="M 350.5 284 L 353.5 285 L 354.5 284 L 418.5 284 L 423.5 285 L 425.5 284 L 427 285.5 L 427 315.5 L 426 322.5 L 427 328.5 L 426 329.5 L 425 360.5 L 426 361.5 L 426 379.5 L 425 380.5 L 425 403.5 L 426 404.5 L 426 420.5 L 425 421.5 L 425 462.5 L 423.5 464 L 405.5 465 L 401.5 464 L 400.5 465 L 354.5 465 L 352.5 464 L 350.5 465 L 348 464 L 349 461.5 L 349 426.5 L 348 415.5 L 349 410.5 L 348 409.5 L 348 370.5 L 349 369.5 L 349 313.5 L 348 312.5 L 348 298.5 L 349 285.5 L 350.5 284 Z M 352 288 L 352 461 Q 354 464 356 460 L 354 454 L 354 422 L 355 421 L 355 377 L 354 376 L 354 350 L 355 349 L 355 305 L 354 304 L 354 289 L 352 288 Z M 367 293 Q 362 295 366 297 L 368 296 L 370 297 L 406 297 L 407 298 L 408 297 L 404 293 L 400 294 L 397 293 L 395 294 L 388 293 L 378 294 L 367 293 Z M 367 299 L 362 301 L 357 308 L 357 324 L 358 325 L 357 329 L 358 349 L 364 353 L 378 353 L 379 352 L 381 353 L 408 353 L 410 352 L 413 348 L 412 344 L 413 306 L 405 299 L 367 299 Z M 363 356 L 363 358 L 382 358 L 385 361 Q 391 362 392 358 L 408 358 L 408 356 L 363 356 Z M 389 364 L 382 365 L 380 368 L 390 367 L 389 364 Z M 367 370 L 363 371 L 357 378 L 357 402 L 358 403 L 358 416 L 357 417 L 358 421 L 363 424 L 408 424 L 413 418 L 413 396 L 412 395 L 413 391 Q 415 378 410 373 L 406 370 L 402 371 L 367 370 Z M 363 426 L 361 428 L 363 429 L 382 429 L 383 430 L 387 429 L 406 429 L 406 427 L 363 426 Z M 421 453 L 419 455 L 420 457 L 419 459 Q 418 462 422 461 Q 424 460 423 455 L 421 453 Z " /><path fill="rgb(184,73,62)" stroke="rgb(184,73,62)" stroke-width="0.6" opacity="1" d="M 133 308 L 146.5 308 L 148 309.5 L 148 342.5 L 146.5 344 L 134.5 345 L 133 343.5 L 132 310.5 L 133 308 Z M 137 311 L 135 313 L 136 319 L 138 320 L 140 316 L 142 314 L 143 317 Q 147 318 145 313 L 143 312 L 137 311 Z M 136 331 L 136 340 L 140 341 L 141 335 L 136 331 Z " /><path fill="rgb(184,73,62)" stroke="rgb(184,73,62)" stroke-width="0.6" opacity="1" d="M 390.5 379 Q 400.8 376.8 405 380.5 L 404 381.5 L 404 412.5 L 404.5 414 L 390.5 416 L 389 413.5 L 389 380.5 L 390.5 379 Z M 391 382 L 391 412 L 393 413 L 395 412 L 397 408 L 393 401 L 393 393 L 395 387 L 399 384 L 401 384 L 400 382 L 391 382 Z " /><path fill="rgb(184,73,62)" stroke="rgb(184,73,62)" stroke-width="0.6" opacity="1" d="M 72.5 405 L 78 408.5 L 79 434.5 L 78 435.5 L 78 448.5 L 79 450.5 L 77 456.5 L 79 463.5 L 77.5 465 L 52.5 465 L 42 459.5 L 40 451.5 L 45.5 443 Q 51.8 444.3 53 440.5 Q 54 434.5 50 433.5 L 50 422 L 56.5 420 L 61.5 421 Q 65.7 419.7 65 413.5 L 64 410.5 L 72.5 405 Z M 43 450 L 43 457 Q 44 461 49 460 L 48 452 L 43 450 Z " /><path fill="rgb(9,9,9)" stroke="rgb(9,9,9)" stroke-width="0.6" opacity="1" d="M 255.5 39 L 260 40.5 L 261.5 46 L 267.5 44 L 281.5 44 L 306.5 59 L 318.5 59 L 329.5 55 L 331 60.5 L 326 73.5 Q 330.3 75.7 329 83.5 L 323.5 88 L 315.5 91 L 300.5 92 L 294.5 91 L 280.5 84 L 273.5 84 L 265.5 86 L 260 89.5 L 259 97.5 L 363 182.5 L 364 192.5 L 358.5 201 L 355.5 203 Q 348 201 346 204.5 L 345 222.5 L 347.5 225 L 410.5 225 L 423 237.5 L 450 267.5 L 450 277.5 L 443.5 281 Q 435.3 278.8 433 282.5 L 433 403.5 L 434.5 405 Q 437.7 401.2 445.5 402 L 455 407.5 L 459.5 416 Q 467.4 417.1 470 423.5 L 469 436.5 Q 476.9 440.5 477 451 Q 473.3 452.4 475 446.5 L 468.5 439 L 465 437.5 Q 469.3 434.3 468 425.5 L 461.5 418 L 455.5 419 L 454 416.5 L 455 412.5 L 449.5 406 Q 447.2 402.8 440.5 404 L 433 408.5 L 432 410.5 L 432 460.5 L 431 466.5 L 433.5 469 L 456.5 469 L 463.5 468 L 472 461.5 L 475 453 Q 478.7 451.6 477 457.5 L 471 464.5 L 471 467.5 L 472 469.5 L 470.5 471 L 434.5 471 L 425.5 470 L 424.5 471 L 339.5 471 L 338.5 472 L 266.5 473 L 265.5 472 L 248.5 472 L 247.5 473 L 224.5 473 L 223.5 472 L 173.5 472 L 172.5 471 L 43.5 471 L 42 469.5 L 41 465.5 L 35 458.5 L 35 447.5 L 41.5 439 L 45 436.5 L 44 423.5 L 49.5 416 L 58 412.5 Q 58.9 405.9 63.5 403 Q 66.7 399.2 74.5 400 L 79.5 402 L 81 400.5 L 81 282.5 L 79.5 281 L 68.5 281 L 64 277.5 L 64 267.5 L 103.5 225 L 166.5 225 L 168 223.5 L 169 218.5 L 168 205.5 L 166.5 204 Q 155.2 205.3 152 198.5 Q 147.3 194.7 149 184.5 L 221.5 124 L 256 98.5 L 256 45.5 L 254 40.5 L 255.5 39 Z M 268 47 L 260 51 L 260 84 L 262 85 L 276 81 L 288 83 L 300 89 L 316 88 L 326 82 L 324 77 Q 323 67 327 64 L 326 59 L 319 62 L 304 61 L 286 49 L 280 47 L 268 47 Z M 255 103 L 161 178 L 152 188 L 153 194 L 161 201 L 165 201 L 174 195 L 256 130 L 262 132 L 338 193 L 351 201 L 355 200 Q 361 196 362 187 L 263 105 Q 261 102 255 103 Z M 257 133 L 175 198 L 171 203 L 171 466 Q 174 472 186 469 Q 190 467 188 458 L 193 454 Q 198 452 197 456 L 193 457 L 190 463 Q 189 468 193 470 L 321 470 L 323 468 L 322 459 L 316 455 L 200 455 L 202 452 L 203 357 L 208 342 L 213 335 Q 224 319 247 315 L 274 316 Q 287 320 296 328 Q 304 336 309 349 L 312 365 L 312 452 Q 315 455 322 455 L 325 460 Q 324 467 328 469 Q 338 471 342 467 L 342 202 L 341 200 L 259 133 L 257 133 Z M 161 227 L 160 228 L 106 228 L 104 229 L 68 269 L 67 275 L 72 278 L 167 278 L 168 277 L 168 254 L 169 253 L 169 232 L 168 230 Q 166 226 161 227 Z M 350 227 L 345 230 L 345 275 L 348 278 L 443 278 L 447 275 L 447 270 L 417 237 L 409 228 L 352 228 L 350 227 Z M 86 281 L 84 283 L 84 319 L 85 320 L 85 337 L 84 338 L 85 466 L 91 469 L 165 469 L 167 468 L 169 465 L 169 444 L 168 443 L 168 283 L 167 281 L 86 281 Z M 348 281 L 345 284 L 345 467 L 349 469 L 426 468 L 429 464 L 430 283 L 429 281 L 348 281 Z M 250 317 Q 233 319 224 328 Q 209 339 205 361 L 205 452 L 207 453 L 255 453 L 256 452 L 256 320 Q 255 316 250 317 Z M 261 317 L 258 320 L 258 452 L 260 453 L 308 453 L 309 452 L 309 360 L 301 339 Q 289 320 261 317 Z M 70 402 L 65 405 L 60 412 L 61 415 L 60 417 L 58 416 L 51 418 L 46 426 Q 44 435 50 438 L 48 438 L 45 439 Q 38 442 37 451 Q 36 460 41 464 L 53 469 L 79 469 L 82 467 L 81 454 L 81 439 L 82 438 L 82 409 L 81 407 L 76 402 L 70 402 Z " /><path fill="rgb(9,9,9)" stroke="rgb(9,9,9)" stroke-width="0.6" opacity="1" d="M 249.5 179 Q 279.2 177.3 290 194.5 L 297 206.5 Q 300.8 215.2 300 228.5 Q 297.4 248.9 284.5 259 Q 273.8 269.8 251.5 269 L 234.5 263 L 225 255.5 L 215 238.5 Q 215.8 233.2 213 231.5 L 213 218.5 L 220 198.5 L 227.5 190 Q 235.8 181.8 249.5 179 Z M 250 181 Q 238 183 232 190 Q 221 199 216 215 L 216 233 Q 219 245 226 253 Q 235 262 250 266 Q 272 268 282 258 Q 294 250 297 233 Q 300 208 289 198 Q 279 180 250 181 Z " /><path fill="rgb(9,9,9)" stroke="rgb(9,9,9)" stroke-width="0.6" opacity="1" d="M 256 190 L 258 190.5 L 258 217.5 L 260 221.5 L 258 226 L 261 226 Q 260 223 263 224 L 262 228.5 L 270 237.5 L 268.5 238 L 261.5 230 L 255 226.5 L 254 223.5 Q 258 209.4 256 190 Z " /><path fill="rgb(9,9,9)" stroke="rgb(9,9,9)" stroke-width="0.6" opacity="1" d="M 106.5 303 L 133.5 303 L 134 305 L 129 306.5 L 129 345.5 L 130.5 347 Q 134.3 346 133 349 L 124.5 349 L 124 347 L 127 345.5 L 127 306.5 L 125.5 305 L 107.5 305 L 105 307.5 L 105 345.5 L 106.5 347 Q 110.3 346 109 349 Q 104.3 350 103 346.5 L 103 306.5 L 106.5 303 Z " /><path fill="rgb(9,9,9)" stroke="rgb(9,9,9)" stroke-width="0.6" opacity="1" d="M 364.5 303 L 405.5 303 L 409 305.5 L 410 312 Q 406.3 313.4 408 307.5 L 405.5 305 L 387.5 305 L 386 306.5 L 386 345.5 L 387.5 347 L 405.5 347 L 409 344.5 L 407.5 349 L 363.5 349 L 361 346.5 L 361 311.5 L 363 311 L 363 345.5 L 364.5 347 L 381.5 347 L 383 345.5 L 383 306.5 L 381.5 305 L 365.5 305 L 363 307.5 L 361 309 Q 360.3 304.3 364.5 303 Z " /><path fill="rgb(9,9,9)" stroke="rgb(9,9,9)" stroke-width="0.6" opacity="1" d="M 151 343 L 153 344.5 L 150.5 349 L 135.5 349 L 135 347 L 148.5 347 L 151 344.5 L 151 343 Z " /><path fill="rgb(9,9,9)" stroke="rgb(9,9,9)" stroke-width="0.6" opacity="1" d="M 106.5 374 Q 112.3 372.3 111 376 Q 106.3 375 105 378.5 L 105 416.5 L 107.5 419 L 124.5 419 L 127 416.5 L 127 377.5 L 125.5 376 L 124 374 L 131.5 374 L 132 376 L 129 377.5 L 129 416.5 L 130.5 418 L 140.5 419 L 142.5 418 L 147.5 419 L 151 415.5 L 151 378.5 L 148.5 376 L 135 376 L 135.5 374 L 149.5 374 L 153 378.5 L 153 417.5 L 147.5 421 L 129.5 421 L 126.5 420 L 125.5 421 L 106.5 421 L 103 417.5 L 103 377.5 L 106.5 374 Z " /><path fill="rgb(9,9,9)" stroke="rgb(9,9,9)" stroke-width="0.6" opacity="1" d="M 364.5 374 L 406.5 374 L 409 376.5 L 410 382 Q 407 383.3 408 379.5 L 405.5 376 L 387.5 376 L 386 377.5 L 386 416.5 L 388.5 419 L 403.5 419 L 407 416.5 L 409 415 L 406.5 420 L 387.5 421 L 382.5 420 L 381.5 421 L 365.5 421 L 361 417.5 L 361 383.5 L 363 383 L 363 416.5 L 365.5 419 L 380.5 419 L 383 416.5 L 383 377.5 L 381.5 376 L 364.5 376 L 363 377.5 L 361 379 L 362.5 375 L 364.5 374 Z " /><path fill="rgb(9,9,9)" stroke="rgb(9,9,9)" stroke-width="0.6" opacity="1" d="M 245.5 392 L 248 393.5 L 246.5 396 L 243 397.5 Q 244 401.3 241 400 L 243.5 393 L 245.5 392 Z " /><path fill="rgb(9,9,9)" stroke="rgb(9,9,9)" stroke-width="0.6" opacity="1" d="M 267.5 393 L 273 394.5 Q 274.1 397.8 271.5 397 L 268.5 396 L 266 395.5 L 267.5 393 Z " /><path fill="rgb(9,9,9)" stroke="rgb(9,9,9)" stroke-width="0.6" opacity="1" d="M 266 402 L 270.5 403 L 273 402 L 271.5 406 Q 266.8 406.8 266 403.5 L 266 402 Z " /><path fill="rgb(103,145,85)" stroke="rgb(103,145,85)" stroke-width="0.6" opacity="1" d="M 268.5 49 L 276.5 50 L 279 49 Q 277.8 52 281.5 51 L 285 50 L 286.5 52 L 292 55 L 294.5 59 L 298.5 61 L 300 60.5 L 301.5 63 L 304 62 L 305.5 64 L 309 63 L 309.5 65 L 317.5 65 L 323 63 L 321 67.5 L 321 76.5 L 324 78.5 L 323.5 81 L 321 82.5 L 320.5 84 L 319 83.5 L 318.5 85 L 316.5 85 L 315 87 L 311.5 87 L 300.5 86 L 298 87 L 296.5 85 L 282.5 79 L 278 80 Q 279 77 276 78 Q 277.3 81 273.5 80 L 267.5 79 L 263.5 81 L 261 78.5 L 261 57.5 L 263 51.5 L 262.5 50 L 268 51 L 268.5 49 Z " /><path fill="rgb(103,145,85)" stroke="rgb(103,145,85)" stroke-width="0.6" opacity="1" d="M 132 229 L 148.5 229 L 149 230.5 L 150 230.5 Q 149.2 227.5 153 229 L 153.5 231 L 163 231 Q 161.8 228 165.5 229 L 165.5 230 L 164 230.5 L 165 234 L 167 234.5 L 167 267 Q 163 265.7 165 272 Q 168 271 167 274 L 164.5 275 L 78.5 276 L 72.5 275 L 70 272.5 L 74.5 264 L 80 259.5 L 81.5 256 L 90 248.5 L 105 231.5 L 104.5 230 L 105.5 231 L 132 231 L 132 229 Z " /><path fill="rgb(103,145,85)" stroke="rgb(103,145,85)" stroke-width="0.6" opacity="1" d="M 261 319 Q 266.3 317.8 265.5 321 L 270.5 321 L 281.5 325 L 283 324.5 L 283.5 327 L 297 336 L 303.5 350 L 305 349.5 L 304 352.5 Q 303.2 357.8 306 359.5 L 306 448.5 L 302 450 Q 303.1 453.3 299 452 L 298.5 450 L 283 450 L 282.5 452 L 267 452 Q 268.1 448.7 264 450 Q 265 453 262 452 L 260.5 450 L 260.5 452 L 259 450.5 L 259 321 Q 262 322 261 319 Z M 268 390 L 263 396 L 263 402 L 265 404 L 265 406 L 268 409 Q 275 410 276 405 L 275 392 L 268 390 Z " /><path fill="rgb(103,145,85)" stroke="rgb(103,145,85)" stroke-width="0.6" opacity="1" d="M 109 377 L 118.5 378 L 120.5 377 L 126 379 Q 127 383.3 124 382.5 L 124 414.5 L 122.5 416 L 109.5 416 L 108 414.5 L 108 379.5 L 109 377 Z " /><path fill="rgb(103,145,85)" stroke="rgb(103,145,85)" stroke-width="0.6" opacity="1" d="M 365.5 377 L 379.5 377 L 380 378.5 L 381 379.5 L 381 414.5 L 379.5 416 L 369.5 417 L 365.5 415 L 364 415.5 L 364 387.5 L 365 385.5 L 364 383.5 L 366 378.5 L 365.5 377 Z " /><path fill="rgb(41,41,41)" stroke="rgb(41,41,41)" stroke-width="0.6" opacity="1" d="M 267.5 47 L 280 47.5 L 267.5 48 L 267.5 47 Z " /><path fill="rgb(41,41,41)" stroke="rgb(41,41,41)" stroke-width="0.6" opacity="1" d="M 290.5 48 L 301 55.5 L 299.5 56 L 290.5 48 Z " /><path fill="rgb(41,41,41)" stroke="rgb(41,41,41)" stroke-width="0.6" opacity="1" d="M 256.5 133 L 258.5 133 L 265 139.5 L 258.5 134 L 256.5 133 Z " /><path fill="rgb(41,41,41)" stroke="rgb(41,41,41)" stroke-width="0.6" opacity="1" d="M 248.5 134 L 246.5 137 L 242.5 140 L 245.5 136 L 248.5 134 Z " /><path fill="rgb(41,41,41)" stroke="rgb(41,41,41)" stroke-width="0.6" opacity="1" d="M 154.5 178 L 149.5 184 L 154.5 178 Z " /><path fill="rgb(41,41,41)" stroke="rgb(41,41,41)" stroke-width="0.6" opacity="1" d="M 160.5 178 L 153.5 186 L 160.5 178 Z " /><path fill="rgb(41,41,41)" stroke="rgb(41,41,41)" stroke-width="0.6" opacity="1" d="M 354.5 179 L 362 186.5 L 362 190.5 L 361 190.5 L 361 186.5 L 354.5 179 Z " /><path fill="rgb(41,41,41)" stroke="rgb(41,41,41)" stroke-width="0.6" opacity="1" d="M 249.5 181 L 264 181.5 L 249.5 182 L 249.5 181 Z " /><path fill="rgb(41,41,41)" stroke="rgb(41,41,41)" stroke-width="0.6" opacity="1" d="M 283.5 187 L 289.5 194 L 283.5 187 Z " /><path fill="rgb(41,41,41)" stroke="rgb(41,41,41)" stroke-width="0.6" opacity="1" d="M 332.5 187 L 341 194.5 L 338.5 193 L 332.5 187 Z " /><path fill="rgb(41,41,41)" stroke="rgb(41,41,41)" stroke-width="0.6" opacity="1" d="M 279.5 188 L 288.5 198 L 279.5 188 Z " /><path fill="rgb(41,41,41)" stroke="rgb(41,41,41)" stroke-width="0.6" opacity="1" d="M 257.5 189 L 259 190.5 L 259 217.5 L 258 217.5 L 258 190.5 L 257.5 189 Z " /><path fill="rgb(41,41,41)" stroke="rgb(41,41,41)" stroke-width="0.6" opacity="1" d="M 231.5 190 L 226.5 196 L 231.5 190 Z " /><path fill="rgb(41,41,41)" stroke="rgb(41,41,41)" stroke-width="0.6" opacity="1" d="M 255.5 191 L 256 213.5 L 255 213.5 L 255.5 191 Z " /><path fill="rgb(41,41,41)" stroke="rgb(41,41,41)" stroke-width="0.6" opacity="1" d="M 359.5 194 L 354.5 200 L 359.5 194 Z " /><path fill="rgb(41,41,41)" stroke="rgb(41,41,41)" stroke-width="0.6" opacity="1" d="M 174.5 198 L 173 200.5 L 172 202.5 L 171.5 308 L 171 202.5 L 174.5 198 Z " /><path fill="rgb(41,41,41)" stroke="rgb(41,41,41)" stroke-width="0.6" opacity="1" d="M 345.5 206 L 346 222.5 L 347.5 224 L 349 224.5 L 347.5 225 L 345 222.5 L 345.5 206 Z " /><path fill="rgb(41,41,41)" stroke="rgb(41,41,41)" stroke-width="0.6" opacity="1" d="M 260.5 221 L 263.5 225 L 261 224 Q 262.1 227.3 258 226 L 260.5 221 Z " /><path fill="rgb(41,41,41)" stroke="rgb(41,41,41)" stroke-width="0.6" opacity="1" d="M 167.5 223 L 166.5 225 L 104 224.5 L 166.5 224 L 167.5 223 Z " /><path fill="rgb(41,41,41)" stroke="rgb(41,41,41)" stroke-width="0.6" opacity="1" d="M 351.5 224 L 410 224.5 L 351.5 225 L 351.5 224 Z " /><path fill="rgb(41,41,41)" stroke="rgb(41,41,41)" stroke-width="0.6" opacity="1" d="M 102.5 225 L 92.5 236 L 102.5 225 Z " /><path fill="rgb(41,41,41)" stroke="rgb(41,41,41)" stroke-width="0.6" opacity="1" d="M 346.5 228 L 346 229.5 L 345.5 275 L 345 229.5 L 346.5 228 Z " /><path fill="rgb(41,41,41)" stroke="rgb(41,41,41)" stroke-width="0.6" opacity="1" d="M 168.5 231 L 169 252.5 L 168 252.5 L 168.5 231 Z " /><path fill="rgb(41,41,41)" stroke="rgb(41,41,41)" stroke-width="0.6" opacity="1" d="M 97.5 236 L 92.5 242 L 97.5 236 Z " /><path fill="rgb(41,41,41)" stroke="rgb(41,41,41)" stroke-width="0.6" opacity="1" d="M 269.5 238 L 274 241.5 L 275 243.5 L 269.5 238 Z " /><path fill="rgb(41,41,41)" stroke="rgb(41,41,41)" stroke-width="0.6" opacity="1" d="M 423.5 238 L 430.5 246 L 423.5 238 Z " /><path fill="rgb(41,41,41)" stroke="rgb(41,41,41)" stroke-width="0.6" opacity="1" d="M 91.5 243 L 86.5 249 L 91.5 243 Z " /><path fill="rgb(41,41,41)" stroke="rgb(41,41,41)" stroke-width="0.6" opacity="1" d="M 83.5 246 L 77.5 253 L 83.5 246 Z " /><path fill="rgb(41,41,41)" stroke="rgb(41,41,41)" stroke-width="0.6" opacity="1" d="M 427.5 249 L 436.5 259 L 427.5 249 Z " /><path fill="rgb(41,41,41)" stroke="rgb(41,41,41)" stroke-width="0.6" opacity="1" d="M 433.5 249 L 438.5 255 L 433.5 249 Z " /><path fill="rgb(41,41,41)" stroke="rgb(41,41,41)" stroke-width="0.6" opacity="1" d="M 288.5 250 L 281.5 258 L 288.5 250 Z " /><path fill="rgb(41,41,41)" stroke="rgb(41,41,41)" stroke-width="0.6" opacity="1" d="M 72.5 258 L 66.5 265 L 72.5 258 Z " /><path fill="rgb(41,41,41)" stroke="rgb(41,41,41)" stroke-width="0.6" opacity="1" d="M 75.5 261 L 68.5 269 L 75.5 261 Z " /><path fill="rgb(41,41,41)" stroke="rgb(41,41,41)" stroke-width="0.6" opacity="1" d="M 439.5 262 L 446.5 270 L 439.5 262 Z " /><path fill="rgb(41,41,41)" stroke="rgb(41,41,41)" stroke-width="0.6" opacity="1" d="M 167.5 275 L 168 276.5 L 166.5 278 L 130.5 278 L 130.5 277 L 165.5 277 L 167.5 275 Z " /><path fill="rgb(41,41,41)" stroke="rgb(41,41,41)" stroke-width="0.6" opacity="1" d="M 346.5 276 L 347.5 277 L 443 277.5 L 347.5 278 L 346.5 276 Z " /><path fill="rgb(41,41,41)" stroke="rgb(41,41,41)" stroke-width="0.6" opacity="1" d="M 71.5 277 L 109 277.5 L 71.5 278 L 71.5 277 Z " /><path fill="rgb(41,41,41)" stroke="rgb(41,41,41)" stroke-width="0.6" opacity="1" d="M 347.5 281 L 346 283.5 L 345.5 387 L 345 283.5 L 347.5 281 Z " /><path fill="rgb(41,41,41)" stroke="rgb(41,41,41)" stroke-width="0.6" opacity="1" d="M 107.5 302 L 148 302.5 L 146 303 Q 147 306 144 305 L 143.5 303 L 137 303 Q 138.1 306.3 134 305 L 133.5 303 L 107.5 303 L 107.5 302 Z " /><path fill="rgb(41,41,41)" stroke="rgb(41,41,41)" stroke-width="0.6" opacity="1" d="M 366.5 302 L 383 302.5 L 366.5 303 L 366.5 302 Z " /><path fill="rgb(41,41,41)" stroke="rgb(41,41,41)" stroke-width="0.6" opacity="1" d="M 386.5 302 L 405 302.5 L 386.5 303 L 386.5 302 Z " /><path fill="rgb(41,41,41)" stroke="rgb(41,41,41)" stroke-width="0.6" opacity="1" d="M 130.5 305 L 132 305.5 L 130 307.5 L 129.5 324 L 129 306.5 L 130.5 305 Z " /><path fill="rgb(41,41,41)" stroke="rgb(41,41,41)" stroke-width="0.6" opacity="1" d="M 403.5 305 L 408 307.5 Q 406.8 313.5 410 312.5 L 410 346.5 L 409 346.5 L 408.5 344 L 407 344.5 L 407 307.5 L 405.5 306 L 403.5 305 Z " /><path fill="rgb(41,41,41)" stroke="rgb(41,41,41)" stroke-width="0.6" opacity="1" d="M 152.5 307 L 153 343 L 151 344.5 L 150 344.5 L 150 308.5 L 151.5 308 L 152.5 307 Z " /><path fill="rgb(41,41,41)" stroke="rgb(41,41,41)" stroke-width="0.6" opacity="1" d="M 360.5 308 L 363 309 Q 363.8 312.1 361 311.5 L 361 345.5 L 360 345.5 L 360.5 308 Z " /><path fill="rgb(41,41,41)" stroke="rgb(41,41,41)" stroke-width="0.6" opacity="1" d="M 249.5 314 L 268 314.5 L 249.5 315 L 249.5 314 Z " /><path fill="rgb(41,41,41)" stroke="rgb(41,41,41)" stroke-width="0.6" opacity="1" d="M 429.5 314 L 430 405.5 L 429 405.5 L 429.5 314 Z " /><path fill="rgb(41,41,41)" stroke="rgb(41,41,41)" stroke-width="0.6" opacity="1" d="M 221.5 325 L 213.5 334 L 221.5 325 Z " /><path fill="rgb(41,41,41)" stroke="rgb(41,41,41)" stroke-width="0.6" opacity="1" d="M 223.5 328 L 216.5 336 L 223.5 328 Z " /><path fill="rgb(41,41,41)" stroke="rgb(41,41,41)" stroke-width="0.6" opacity="1" d="M 296.5 334 L 302 340.5 L 300 339.5 L 296.5 334 Z " /><path fill="rgb(41,41,41)" stroke="rgb(41,41,41)" stroke-width="0.6" opacity="1" d="M 171.5 335 L 172 391.5 L 171 391.5 L 171.5 335 Z " /><path fill="rgb(41,41,41)" stroke="rgb(41,41,41)" stroke-width="0.6" opacity="1" d="M 84.5 337 L 85 363.5 L 84 363.5 L 84.5 337 Z " /><path fill="rgb(41,41,41)" stroke="rgb(41,41,41)" stroke-width="0.6" opacity="1" d="M 215.5 337 L 214 339.5 L 211.5 344 L 211 342.5 L 215.5 337 Z " /><path fill="rgb(41,41,41)" stroke="rgb(41,41,41)" stroke-width="0.6" opacity="1" d="M 109 347 L 123.5 347 Q 122.5 349.8 126.5 349 L 126.5 350 L 106 349.5 L 109 349 L 109 347 Z " /><path fill="rgb(41,41,41)" stroke="rgb(41,41,41)" stroke-width="0.6" opacity="1" d="M 133 347 Q 136.1 346.3 135.5 349 L 149.5 349 L 149.5 350 L 129 349.5 L 133 349 L 133 347 Z " /><path fill="rgb(41,41,41)" stroke="rgb(41,41,41)" stroke-width="0.6" opacity="1" d="M 364.5 349 L 407 349.5 L 364.5 350 L 364.5 349 Z " /><path fill="rgb(41,41,41)" stroke="rgb(41,41,41)" stroke-width="0.6" opacity="1" d="M 308.5 359 L 309 407.5 L 308 407.5 L 308.5 359 Z " /><path fill="rgb(41,41,41)" stroke="rgb(41,41,41)" stroke-width="0.6" opacity="1" d="M 108.5 373 L 149 373.5 L 135 374 Q 136.1 377.3 132 376 L 131.5 374 L 124 374 L 123.5 376 L 111 376 Q 112.3 373 108.5 374 L 108.5 373 Z " /><path fill="rgb(41,41,41)" stroke="rgb(41,41,41)" stroke-width="0.6" opacity="1" d="M 365.5 373 L 383 373.5 L 365.5 374 L 365.5 373 Z " /><path fill="rgb(41,41,41)" stroke="rgb(41,41,41)" stroke-width="0.6" opacity="1" d="M 386.5 373 L 406 373.5 L 386.5 374 L 386.5 373 Z " /><path fill="rgb(41,41,41)" stroke="rgb(41,41,41)" stroke-width="0.6" opacity="1" d="M 148.5 376 L 151 378.5 L 151 415.5 L 150 415.5 L 150 378.5 L 148.5 376 Z " /><path fill="rgb(41,41,41)" stroke="rgb(41,41,41)" stroke-width="0.6" opacity="1" d="M 360.5 378 L 363 379 Q 364.3 384.3 361 383.5 L 361 417.5 L 365 420.5 L 363.5 421 L 360 417.5 L 360.5 378 Z " /><path fill="rgb(41,41,41)" stroke="rgb(41,41,41)" stroke-width="0.6" opacity="1" d="M 407.5 379 L 408 382 L 410 382.5 L 410 417.5 L 405.5 421 L 405.5 420 L 409 417.5 L 407 412 L 409 412 L 409 406 L 407 405.5 L 407.5 379 Z " /><path fill="rgb(41,41,41)" stroke="rgb(41,41,41)" stroke-width="0.6" opacity="1" d="M 129.5 382 L 130 416.5 L 131 417.5 L 129 416.5 L 129.5 382 Z " /><path fill="rgb(41,41,41)" stroke="rgb(41,41,41)" stroke-width="0.6" opacity="1" d="M 273.5 395 L 274 403.5 L 273 403.5 L 271.5 402 L 270 402.5 L 271 397 L 266 398 L 266.5 396 L 268.5 396 L 273 397 L 273.5 395 Z " /><path fill="rgb(41,41,41)" stroke="rgb(41,41,41)" stroke-width="0.6" opacity="1" d="M 126.5 400 L 127 416.5 L 124.5 419 L 107.5 419 L 105.5 416 L 107.5 418 L 124.5 418 L 126 416.5 L 126.5 400 Z " /><path fill="rgb(41,41,41)" stroke="rgb(41,41,41)" stroke-width="0.6" opacity="1" d="M 81.5 408 L 82 437.5 L 81 437.5 L 81.5 408 Z " /><path fill="rgb(41,41,41)" stroke="rgb(41,41,41)" stroke-width="0.6" opacity="1" d="M 365.5 418 L 381 418.5 L 365.5 419 L 365.5 418 Z " /><path fill="rgb(41,41,41)" stroke="rgb(41,41,41)" stroke-width="0.6" opacity="1" d="M 388.5 418 L 404 418.5 L 388.5 419 L 388.5 418 Z " /><path fill="rgb(41,41,41)" stroke="rgb(41,41,41)" stroke-width="0.6" opacity="1" d="M 345.5 420 L 346 466.5 L 347 467.5 L 345 466.5 L 345.5 420 Z " /><path fill="rgb(41,41,41)" stroke="rgb(41,41,41)" stroke-width="0.6" opacity="1" d="M 308.5 421 L 309 451.5 L 306.5 453 L 308 450.5 L 308.5 421 Z " /><path fill="rgb(41,41,41)" stroke="rgb(41,41,41)" stroke-width="0.6" opacity="1" d="M 428.5 425 L 429 463.5 L 428 463.5 L 428.5 425 Z " /><path fill="rgb(41,41,41)" stroke="rgb(41,41,41)" stroke-width="0.6" opacity="1" d="M 171.5 432 L 172 465.5 L 171 465.5 L 171.5 432 Z " /><path fill="rgb(41,41,41)" stroke="rgb(41,41,41)" stroke-width="0.6" opacity="1" d="M 341.5 433 L 342 466.5 L 340 467.5 L 341 466.5 L 341.5 433 Z " /><path fill="rgb(41,41,41)" stroke="rgb(41,41,41)" stroke-width="0.6" opacity="1" d="M 468.5 439 L 473.5 445 L 468.5 439 Z " /><path fill="rgb(41,41,41)" stroke="rgb(41,41,41)" stroke-width="0.6" opacity="1" d="M 168.5 443 L 169 464.5 L 168 464.5 L 168.5 443 Z " /><path fill="rgb(41,41,41)" stroke="rgb(41,41,41)" stroke-width="0.6" opacity="1" d="M 201.5 451 L 200 453.5 L 200.5 455 L 315.5 455 L 315.5 456 L 197.5 456 Q 198.5 453 193.5 454 L 193.5 453 Q 200 454.5 201.5 451 Z " /><path fill="rgb(41,41,41)" stroke="rgb(41,41,41)" stroke-width="0.6" opacity="1" d="M 81.5 454 L 82 466.5 L 80 467.5 L 81.5 454 Z " /><path fill="rgb(41,41,41)" stroke="rgb(41,41,41)" stroke-width="0.6" opacity="1" d="M 187.5 460 L 188 466.5 L 185.5 469 L 174.5 469 L 174.5 468 L 185.5 468 L 187 466.5 L 187.5 460 Z " /><path fill="rgb(41,41,41)" stroke="rgb(41,41,41)" stroke-width="0.6" opacity="1" d="M 475.5 460 L 472 464.5 L 471.5 468 L 471 464.5 L 475.5 460 Z " /><path fill="rgb(41,41,41)" stroke="rgb(41,41,41)" stroke-width="0.6" opacity="1" d="M 431.5 461 L 433.5 468 L 457 468.5 L 433.5 469 Q 429.3 467.3 431.5 461 Z " /><path fill="rgb(41,41,41)" stroke="rgb(41,41,41)" stroke-width="0.6" opacity="1" d="M 322.5 466 L 323 467.5 Q 321.3 471.8 313.5 470 L 313.5 469 Q 320.3 470.8 322 467.5 L 322.5 466 Z " /><path fill="rgb(41,41,41)" stroke="rgb(41,41,41)" stroke-width="0.6" opacity="1" d="M 326.5 467 L 339 468.5 L 327.5 469 L 326.5 467 Z " /><path fill="rgb(41,41,41)" stroke="rgb(41,41,41)" stroke-width="0.6" opacity="1" d="M 52.5 468 L 79 468.5 L 52.5 469 L 52.5 468 Z " /><path fill="rgb(41,41,41)" stroke="rgb(41,41,41)" stroke-width="0.6" opacity="1" d="M 90.5 468 L 165 468.5 L 90.5 469 L 90.5 468 Z " /><path fill="rgb(41,41,41)" stroke="rgb(41,41,41)" stroke-width="0.6" opacity="1" d="M 348.5 468 L 399 468.5 L 348.5 469 L 348.5 468 Z " /><path fill="rgb(41,41,41)" stroke="rgb(41,41,41)" stroke-width="0.6" opacity="1" d="M 196.5 469 L 243 469.5 L 196.5 470 L 196.5 469 Z " /><path fill="rgb(41,41,41)" stroke="rgb(41,41,41)" stroke-width="0.6" opacity="1" d="M 272.5 469 L 290 469.5 L 272.5 470 L 272.5 469 Z " /><path fill="rgb(41,41,41)" stroke="rgb(41,41,41)" stroke-width="0.6" opacity="1" d="M 47.5 471 L 173 471.5 L 47.5 472 L 47.5 471 Z " /><path fill="rgb(41,41,41)" stroke="rgb(41,41,41)" stroke-width="0.6" opacity="1" d="M 349.5 471 L 422 471.5 L 349.5 472 L 349.5 471 Z " /><path fill="rgb(41,41,41)" stroke="rgb(41,41,41)" stroke-width="0.6" opacity="1" d="M 175.5 472 L 224 472.5 L 175.5 473 L 175.5 472 Z " /><path fill="rgb(41,41,41)" stroke="rgb(41,41,41)" stroke-width="0.6" opacity="1" d="M 248.5 472 L 266 472.5 L 248.5 473 L 248.5 472 Z " /><path fill="rgb(41,41,41)" stroke="rgb(41,41,41)" stroke-width="0.6" opacity="1" d="M 294.5 472 L 327 472.5 L 294.5 473 L 294.5 472 Z " /><path fill="rgb(122,126,121)" stroke="rgb(122,126,121)" stroke-width="0.6" opacity="1" d="M 254.5 46 L 255 96.5 L 254 96.5 L 254.5 46 Z " /><path fill="rgb(122,126,121)" stroke="rgb(122,126,121)" stroke-width="0.6" opacity="1" d="M 322.5 61 L 325 62.5 Q 321.6 68.1 322.5 78 Q 318.8 75.8 321 67.5 L 324 62.5 L 322.5 63 L 318.5 64 L 319.5 62 L 322.5 61 Z " /><path fill="rgb(122,126,121)" stroke="rgb(122,126,121)" stroke-width="0.6" opacity="1" d="M 260 79 L 265.5 81 Q 267.2 77.5 273 79 Q 274.4 83 267.5 81 L 262.5 83 L 260 79 Z " /><path fill="rgb(122,126,121)" stroke="rgb(122,126,121)" stroke-width="0.6" opacity="1" d="M 282.5 79 L 298 85 L 296.5 87 L 283.5 81 L 282.5 79 Z " /><path fill="rgb(122,126,121)" stroke="rgb(122,126,121)" stroke-width="0.6" opacity="1" d="M 300 86 L 310.5 86 L 311 88 L 300.5 88 L 300 86 Z " /><path fill="rgb(122,126,121)" stroke="rgb(122,126,121)" stroke-width="0.6" opacity="1" d="M 259.5 190 L 260 213.5 L 259 213.5 L 259.5 190 Z " /><path fill="rgb(122,126,121)" stroke="rgb(122,126,121)" stroke-width="0.6" opacity="1" d="M 254.5 191 L 255 208.5 L 254 208.5 L 254.5 191 Z " /><path fill="rgb(122,126,121)" stroke="rgb(122,126,121)" stroke-width="0.6" opacity="1" d="M 172.5 206 L 173 268.5 L 172 268.5 L 172.5 206 Z " /><path fill="rgb(122,126,121)" stroke="rgb(122,126,121)" stroke-width="0.6" opacity="1" d="M 347.5 222 L 348.5 223 L 410 223.5 L 348.5 224 L 347.5 222 Z " /><path fill="rgb(122,126,121)" stroke="rgb(122,126,121)" stroke-width="0.6" opacity="1" d="M 104.5 223 L 116 223.5 L 104.5 224 L 104.5 223 Z " /><path fill="rgb(122,126,121)" stroke="rgb(122,126,121)" stroke-width="0.6" opacity="1" d="M 144.5 223 L 165 223.5 L 144.5 224 L 144.5 223 Z " /><path fill="rgb(122,126,121)" stroke="rgb(122,126,121)" stroke-width="0.6" opacity="1" d="M 415.5 228 L 420.5 234 L 415.5 228 Z " /><path fill="rgb(122,126,121)" stroke="rgb(122,126,121)" stroke-width="0.6" opacity="1" d="M 153 229 L 162.5 229 L 163 231 L 153.5 231 L 153 229 Z " /><path fill="rgb(122,126,121)" stroke="rgb(122,126,121)" stroke-width="0.6" opacity="1" d="M 103.5 231 L 105 231.5 L 100 235 L 95.5 242 L 95 240.5 L 103.5 231 Z " /><path fill="rgb(122,126,121)" stroke="rgb(122,126,121)" stroke-width="0.6" opacity="1" d="M 346.5 231 L 347 267.5 L 346 267.5 L 346.5 231 Z " /><path fill="rgb(122,126,121)" stroke="rgb(122,126,121)" stroke-width="0.6" opacity="1" d="M 93.5 242 L 93 243.5 L 82.5 256 L 83 254.5 L 93.5 242 Z " /><path fill="rgb(122,126,121)" stroke="rgb(122,126,121)" stroke-width="0.6" opacity="1" d="M 77.5 251 L 72.5 257 L 77.5 251 Z " /><path fill="rgb(122,126,121)" stroke="rgb(122,126,121)" stroke-width="0.6" opacity="1" d="M 68.5 273 L 72.5 275 L 78 275.5 L 70.5 276 L 68.5 273 Z " /><path fill="rgb(122,126,121)" stroke="rgb(122,126,121)" stroke-width="0.6" opacity="1" d="M 165.5 274 L 167 274.5 L 162.5 277 L 158.5 276 L 155.5 277 L 149.5 276 L 148.5 277 L 98.5 277 L 93 275.5 L 164.5 275 L 165.5 274 Z " /><path fill="rgb(122,126,121)" stroke="rgb(122,126,121)" stroke-width="0.6" opacity="1" d="M 361.5 276 L 406 276.5 L 361.5 277 L 361.5 276 Z " /><path fill="rgb(122,126,121)" stroke="rgb(122,126,121)" stroke-width="0.6" opacity="1" d="M 435.5 282 L 435 283.5 L 434.5 303 L 434 283.5 L 435.5 282 Z " /><path fill="rgb(122,126,121)" stroke="rgb(122,126,121)" stroke-width="0.6" opacity="1" d="M 346.5 290 L 347 403.5 L 346 403.5 L 346.5 290 Z " /><path fill="rgb(122,126,121)" stroke="rgb(122,126,121)" stroke-width="0.6" opacity="1" d="M 172.5 291 L 173 456.5 L 172 456.5 L 172.5 291 Z " /><path fill="rgb(122,126,121)" stroke="rgb(122,126,121)" stroke-width="0.6" opacity="1" d="M 108.5 301 L 120 301.5 L 108.5 302 L 108.5 301 Z " /><path fill="rgb(122,126,121)" stroke="rgb(122,126,121)" stroke-width="0.6" opacity="1" d="M 366.5 301 L 405 301.5 L 366.5 302 L 366.5 301 Z " /><path fill="rgb(122,126,121)" stroke="rgb(122,126,121)" stroke-width="0.6" opacity="1" d="M 153.5 306 L 154 326.5 L 153 326.5 L 153.5 306 Z " /><path fill="rgb(122,126,121)" stroke="rgb(122,126,121)" stroke-width="0.6" opacity="1" d="M 359.5 307 L 360 346.5 L 359 346.5 L 359.5 307 Z " /><path fill="rgb(122,126,121)" stroke="rgb(122,126,121)" stroke-width="0.6" opacity="1" d="M 130.5 308 L 131 329.5 L 130 329.5 L 130.5 308 Z " /><path fill="rgb(122,126,121)" stroke="rgb(122,126,121)" stroke-width="0.6" opacity="1" d="M 79.5 310 L 80 333.5 L 79 333.5 L 79.5 310 Z " /><path fill="rgb(122,126,121)" stroke="rgb(122,126,121)" stroke-width="0.6" opacity="1" d="M 85.5 313 L 86 375.5 L 85 375.5 L 85.5 313 Z " /><path fill="rgb(122,126,121)" stroke="rgb(122,126,121)" stroke-width="0.6" opacity="1" d="M 382.5 315 L 383 344.5 L 381 345.5 L 382 344.5 L 382.5 315 Z " /><path fill="rgb(122,126,121)" stroke="rgb(122,126,121)" stroke-width="0.6" opacity="1" d="M 428.5 315 L 429 350.5 L 428 350.5 L 428.5 315 Z " /><path fill="rgb(122,126,121)" stroke="rgb(122,126,121)" stroke-width="0.6" opacity="1" d="M 410.5 318 L 411 343.5 L 410 343.5 L 410.5 318 Z " /><path fill="rgb(122,126,121)" stroke="rgb(122,126,121)" stroke-width="0.6" opacity="1" d="M 267.5 319 L 276 321 L 274.5 323 L 268.5 321 L 267.5 319 Z " /><path fill="rgb(122,126,121)" stroke="rgb(122,126,121)" stroke-width="0.6" opacity="1" d="M 277 322 L 289 328.5 L 287.5 329 L 277 324 L 277 322 Z " /><path fill="rgb(122,126,121)" stroke="rgb(122,126,121)" stroke-width="0.6" opacity="1" d="M 406.5 326 L 407 344.5 L 405 345.5 L 406.5 326 Z " /><path fill="rgb(122,126,121)" stroke="rgb(122,126,121)" stroke-width="0.6" opacity="1" d="M 290.5 330 L 296 334.5 L 295.5 336 L 290.5 330 Z " /><path fill="rgb(122,126,121)" stroke="rgb(122,126,121)" stroke-width="0.6" opacity="1" d="M 340.5 335 L 341 349.5 L 340 349.5 L 340.5 335 Z " /><path fill="rgb(122,126,121)" stroke="rgb(122,126,121)" stroke-width="0.6" opacity="1" d="M 301.5 343 L 305 350.5 L 302 348.5 L 301.5 343 Z " /><path fill="rgb(122,126,121)" stroke="rgb(122,126,121)" stroke-width="0.6" opacity="1" d="M 113.5 346 L 124 346.5 L 113.5 347 L 113.5 346 Z " /><path fill="rgb(122,126,121)" stroke="rgb(122,126,121)" stroke-width="0.6" opacity="1" d="M 107.5 350 L 124 350.5 L 107.5 351 L 107.5 350 Z " /><path fill="rgb(122,126,121)" stroke="rgb(122,126,121)" stroke-width="0.6" opacity="1" d="M 131.5 350 L 149 350.5 L 131.5 351 L 131.5 350 Z " /><path fill="rgb(122,126,121)" stroke="rgb(122,126,121)" stroke-width="0.6" opacity="1" d="M 364.5 350 L 407 350.5 L 364.5 351 L 364.5 350 Z " /><path fill="rgb(122,126,121)" stroke="rgb(122,126,121)" stroke-width="0.6" opacity="1" d="M 304 352 Q 307.7 350.6 306 356.5 L 308 360.5 L 308 449.5 Q 306.7 453 302 452 Q 300.8 449 304.5 450 L 306 448.5 L 306 359.5 Q 303 357.3 304 352 Z " /><path fill="rgb(122,126,121)" stroke="rgb(122,126,121)" stroke-width="0.6" opacity="1" d="M 109.5 372 L 132 372.5 L 109.5 373 L 109.5 372 Z " /><path fill="rgb(122,126,121)" stroke="rgb(122,126,121)" stroke-width="0.6" opacity="1" d="M 136.5 372 L 148 372.5 L 136.5 373 L 136.5 372 Z " /><path fill="rgb(122,126,121)" stroke="rgb(122,126,121)" stroke-width="0.6" opacity="1" d="M 365.5 372 L 406 372.5 L 365.5 373 L 365.5 372 Z " /><path fill="rgb(122,126,121)" stroke="rgb(122,126,121)" stroke-width="0.6" opacity="1" d="M 359.5 377 L 360 417.5 L 359 417.5 L 359.5 377 Z " /><path fill="rgb(122,126,121)" stroke="rgb(122,126,121)" stroke-width="0.6" opacity="1" d="M 380.5 377 L 383 381.5 L 382 384.5 L 383 385.5 L 383 409.5 L 382 411.5 L 383 414.5 L 381 418 L 371 416.5 L 381 416 L 381 378.5 L 380.5 377 Z " /><path fill="rgb(122,126,121)" stroke="rgb(122,126,121)" stroke-width="0.6" opacity="1" d="M 149.5 379 L 150 415.5 L 145.5 418 L 145.5 417 L 149 415.5 L 149.5 379 Z " /><path fill="rgb(122,126,121)" stroke="rgb(122,126,121)" stroke-width="0.6" opacity="1" d="M 406.5 379 L 407 412.5 L 406 412.5 L 406.5 379 Z " /><path fill="rgb(122,126,121)" stroke="rgb(122,126,121)" stroke-width="0.6" opacity="1" d="M 106 381 L 108 381.5 L 108 410 L 106 409.5 L 106 381 Z " /><path fill="rgb(122,126,121)" stroke="rgb(122,126,121)" stroke-width="0.6" opacity="1" d="M 130.5 388 L 131 415.5 L 132.5 417 L 136 417.5 L 132.5 418 L 130 415.5 L 130.5 388 Z " /><path fill="rgb(122,126,121)" stroke="rgb(122,126,121)" stroke-width="0.6" opacity="1" d="M 267.5 390 L 269 390.5 L 265 396 L 263 395.5 L 267.5 390 Z " /><path fill="rgb(122,126,121)" stroke="rgb(122,126,121)" stroke-width="0.6" opacity="1" d="M 410.5 391 L 411 417.5 L 410 417.5 L 410.5 391 Z " /><path fill="rgb(122,126,121)" stroke="rgb(122,126,121)" stroke-width="0.6" opacity="1" d="M 124 399 L 126 399.5 L 126 415.5 L 123 417.5 L 124 414.5 L 124 399 Z " /><path fill="rgb(122,126,121)" stroke="rgb(122,126,121)" stroke-width="0.6" opacity="1" d="M 80.5 409 L 81 462.5 L 80 462.5 L 80.5 409 Z " /><path fill="rgb(122,126,121)" stroke="rgb(122,126,121)" stroke-width="0.6" opacity="1" d="M 106 412 Q 109 410.8 108 414.5 L 109.5 416 L 121 416 L 120.5 418 L 108.5 418 Q 105 416.7 106 412 Z " /><path fill="rgb(122,126,121)" stroke="rgb(122,126,121)" stroke-width="0.6" opacity="1" d="M 406.5 415 L 404.5 418 L 391 417.5 L 404.5 417 L 406.5 415 Z " /><path fill="rgb(122,126,121)" stroke="rgb(122,126,121)" stroke-width="0.6" opacity="1" d="M 346.5 418 L 347 464.5 L 346 464.5 L 346.5 418 Z " /><path fill="rgb(122,126,121)" stroke="rgb(122,126,121)" stroke-width="0.6" opacity="1" d="M 340.5 420 L 341 464.5 L 340 464.5 L 340.5 420 Z " /><path fill="rgb(122,126,121)" stroke="rgb(122,126,121)" stroke-width="0.6" opacity="1" d="M 427.5 422 L 428 442.5 L 427 442.5 L 427.5 422 Z " /><path fill="rgb(122,126,121)" stroke="rgb(122,126,121)" stroke-width="0.6" opacity="1" d="M 465.5 435 L 464 437.5 L 465.5 440 L 469 441.5 L 467.5 441 L 463 439.5 L 465.5 435 Z " /><path fill="rgb(122,126,121)" stroke="rgb(122,126,121)" stroke-width="0.6" opacity="1" d="M 283 450 L 298.5 450 L 299 452 L 283.5 452 L 283 450 Z " /><path fill="rgb(122,126,121)" stroke="rgb(122,126,121)" stroke-width="0.6" opacity="1" d="M 200.5 456 L 309 456.5 L 200.5 457 L 200.5 456 Z " /><path fill="rgb(122,126,121)" stroke="rgb(122,126,121)" stroke-width="0.6" opacity="1" d="M 65.5 472 L 82 472.5 L 65.5 473 L 65.5 472 Z " /><path fill="rgb(122,126,121)" stroke="rgb(122,126,121)" stroke-width="0.6" opacity="1" d="M 342.5 472 L 363 472.5 L 342.5 473 L 342.5 472 Z " /><path fill="rgb(122,126,121)" stroke="rgb(122,126,121)" stroke-width="0.6" opacity="1" d="M 365.5 472 L 396 472.5 L 365.5 473 L 365.5 472 Z " /><path fill="rgb(122,126,121)" stroke="rgb(122,126,121)" stroke-width="0.6" opacity="1" d="M 454.5 472 L 469 472.5 L 454.5 473 L 454.5 472 Z " /><path fill="rgb(70,70,70)" stroke="rgb(70,70,70)" stroke-width="0.6" opacity="1" d="M 270.5 43 L 281 43.5 L 270.5 44 L 270.5 43 Z " /><path fill="rgb(70,70,70)" stroke="rgb(70,70,70)" stroke-width="0.6" opacity="1" d="M 255.5 46 L 256 95.5 L 255 95.5 L 255.5 46 Z " /><path fill="rgb(70,70,70)" stroke="rgb(70,70,70)" stroke-width="0.6" opacity="1" d="M 163.5 176 L 153.5 187 L 163.5 176 Z " /><path fill="rgb(70,70,70)" stroke="rgb(70,70,70)" stroke-width="0.6" opacity="1" d="M 228.5 188 L 222.5 195 L 228.5 188 Z " /><path fill="rgb(70,70,70)" stroke="rgb(70,70,70)" stroke-width="0.6" opacity="1" d="M 151.5 198 L 156.5 204 L 151.5 198 Z " /><path fill="rgb(70,70,70)" stroke="rgb(70,70,70)" stroke-width="0.6" opacity="1" d="M 341.5 203 L 342 432.5 L 341 432.5 L 341.5 203 Z " /><path fill="rgb(70,70,70)" stroke="rgb(70,70,70)" stroke-width="0.6" opacity="1" d="M 163.5 204 L 168 206.5 L 167.5 219 L 167 206.5 L 165.5 205 L 163.5 204 Z " /><path fill="rgb(70,70,70)" stroke="rgb(70,70,70)" stroke-width="0.6" opacity="1" d="M 296.5 217 L 297 230.5 L 296 230.5 L 296.5 217 Z " /><path fill="rgb(70,70,70)" stroke="rgb(70,70,70)" stroke-width="0.6" opacity="1" d="M 212.5 219 L 213 230.5 L 212 230.5 L 212.5 219 Z " /><path fill="rgb(70,70,70)" stroke="rgb(70,70,70)" stroke-width="0.6" opacity="1" d="M 216.5 221 L 220 223 Q 219 226 222 225 L 222.5 223 Q 225.5 224.5 222.5 226 L 217 227.5 L 216.5 232 L 216 227.5 L 218 224.5 L 216.5 221 Z " /><path fill="rgb(70,70,70)" stroke="rgb(70,70,70)" stroke-width="0.6" opacity="1" d="M 106.5 228 L 157 228.5 L 106.5 229 L 106.5 228 Z " /><path fill="rgb(70,70,70)" stroke="rgb(70,70,70)" stroke-width="0.6" opacity="1" d="M 352.5 228 L 407 228.5 L 352.5 229 L 352.5 228 Z " /><path fill="rgb(70,70,70)" stroke="rgb(70,70,70)" stroke-width="0.6" opacity="1" d="M 260.5 230 L 273.5 243 L 274.5 242 L 278 245.5 L 276.5 247 L 260.5 230 Z " /><path fill="rgb(70,70,70)" stroke="rgb(70,70,70)" stroke-width="0.6" opacity="1" d="M 416.5 230 L 423.5 238 L 416.5 230 Z " /><path fill="rgb(70,70,70)" stroke="rgb(70,70,70)" stroke-width="0.6" opacity="1" d="M 167.5 249 L 168 274.5 L 167 274.5 L 167.5 249 Z " /><path fill="rgb(70,70,70)" stroke="rgb(70,70,70)" stroke-width="0.6" opacity="1" d="M 226.5 251 L 232.5 258 L 226.5 251 Z " /><path fill="rgb(70,70,70)" stroke="rgb(70,70,70)" stroke-width="0.6" opacity="1" d="M 291.5 252 L 284.5 260 L 291.5 252 Z " /><path fill="rgb(70,70,70)" stroke="rgb(70,70,70)" stroke-width="0.6" opacity="1" d="M 76.5 253 L 70.5 260 L 76.5 253 Z " /><path fill="rgb(70,70,70)" stroke="rgb(70,70,70)" stroke-width="0.6" opacity="1" d="M 223.5 254 L 228.5 260 L 223.5 254 Z " /><path fill="rgb(70,70,70)" stroke="rgb(70,70,70)" stroke-width="0.6" opacity="1" d="M 439.5 255 L 445.5 262 L 439.5 255 Z " /><path fill="rgb(70,70,70)" stroke="rgb(70,70,70)" stroke-width="0.6" opacity="1" d="M 257.5 256 L 259 259.5 Q 257.5 262.5 256 259.5 L 258 259.5 L 257.5 257 L 256 257.5 L 257.5 256 Z " /><path fill="rgb(70,70,70)" stroke="rgb(70,70,70)" stroke-width="0.6" opacity="1" d="M 109.5 277 L 130 277.5 L 109.5 278 L 109.5 277 Z " /><path fill="rgb(70,70,70)" stroke="rgb(70,70,70)" stroke-width="0.6" opacity="1" d="M 86.5 281 L 110 281.5 L 86.5 282 L 85 283.5 L 84.5 310 L 84 283.5 L 86.5 281 Z " /><path fill="rgb(70,70,70)" stroke="rgb(70,70,70)" stroke-width="0.6" opacity="1" d="M 165.5 281 L 168 283.5 L 168 460.5 L 167 460.5 L 167 283.5 L 165.5 281 Z " /><path fill="rgb(70,70,70)" stroke="rgb(70,70,70)" stroke-width="0.6" opacity="1" d="M 407.5 281 L 427.5 281 L 429 282.5 L 427.5 282 L 407.5 282 L 407.5 281 Z " /><path fill="rgb(70,70,70)" stroke="rgb(70,70,70)" stroke-width="0.6" opacity="1" d="M 79.5 282 L 81 283.5 L 81 350.5 L 80 350.5 L 80 283.5 L 79.5 282 Z " /><path fill="rgb(70,70,70)" stroke="rgb(70,70,70)" stroke-width="0.6" opacity="1" d="M 429.5 285 L 430 313.5 L 429 313.5 L 429.5 285 Z " /><path fill="rgb(70,70,70)" stroke="rgb(70,70,70)" stroke-width="0.6" opacity="1" d="M 433.5 289 L 434 356.5 L 433 356.5 L 433.5 289 Z " /><path fill="rgb(70,70,70)" stroke="rgb(70,70,70)" stroke-width="0.6" opacity="1" d="M 108.5 305 L 121 305.5 L 108.5 306 L 108.5 305 Z " /><path fill="rgb(70,70,70)" stroke="rgb(70,70,70)" stroke-width="0.6" opacity="1" d="M 123.5 305 L 127 307.5 L 126.5 345 L 126 307.5 L 124.5 306 L 123.5 305 Z " /><path fill="rgb(70,70,70)" stroke="rgb(70,70,70)" stroke-width="0.6" opacity="1" d="M 389.5 305 L 403 305.5 L 389.5 306 L 389.5 305 Z " /><path fill="rgb(70,70,70)" stroke="rgb(70,70,70)" stroke-width="0.6" opacity="1" d="M 105.5 308 L 106 322.5 L 105 322.5 L 105.5 308 Z " /><path fill="rgb(70,70,70)" stroke="rgb(70,70,70)" stroke-width="0.6" opacity="1" d="M 171.5 308 L 172 334.5 L 171 334.5 L 171.5 308 Z " /><path fill="rgb(70,70,70)" stroke="rgb(70,70,70)" stroke-width="0.6" opacity="1" d="M 386.5 308 L 387 344.5 L 389 346.5 L 386 344.5 L 386.5 308 Z " /><path fill="rgb(70,70,70)" stroke="rgb(70,70,70)" stroke-width="0.6" opacity="1" d="M 255.5 320 L 256 398.5 L 255 398.5 L 255.5 320 Z " /><path fill="rgb(70,70,70)" stroke="rgb(70,70,70)" stroke-width="0.6" opacity="1" d="M 129.5 324 L 130 343.5 L 129 343.5 L 129.5 324 Z " /><path fill="rgb(70,70,70)" stroke="rgb(70,70,70)" stroke-width="0.6" opacity="1" d="M 258.5 324 L 259 373.5 L 258 373.5 L 258.5 324 Z " /><path fill="rgb(70,70,70)" stroke="rgb(70,70,70)" stroke-width="0.6" opacity="1" d="M 294.5 326 L 299.5 332 L 294.5 326 Z " /><path fill="rgb(70,70,70)" stroke="rgb(70,70,70)" stroke-width="0.6" opacity="1" d="M 205.5 365 L 206 390.5 L 205 390.5 L 205.5 365 Z " /><path fill="rgb(70,70,70)" stroke="rgb(70,70,70)" stroke-width="0.6" opacity="1" d="M 201.5 369 L 202 450.5 L 199 452.5 L 201 450.5 L 201.5 369 Z " /><path fill="rgb(70,70,70)" stroke="rgb(70,70,70)" stroke-width="0.6" opacity="1" d="M 124.5 376 L 127 378.5 L 127 399.5 L 126 399.5 L 126 378.5 L 124.5 376 Z " /><path fill="rgb(70,70,70)" stroke="rgb(70,70,70)" stroke-width="0.6" opacity="1" d="M 365.5 376 L 381 376.5 L 365.5 377 L 365.5 376 Z " /><path fill="rgb(70,70,70)" stroke="rgb(70,70,70)" stroke-width="0.6" opacity="1" d="M 388.5 376 L 387 378.5 L 387 416.5 L 388 417.5 L 386 416.5 L 386 378.5 L 388.5 376 Z " /><path fill="rgb(70,70,70)" stroke="rgb(70,70,70)" stroke-width="0.6" opacity="1" d="M 391.5 376 L 405 376.5 L 391.5 377 L 391.5 376 Z " /><path fill="rgb(70,70,70)" stroke="rgb(70,70,70)" stroke-width="0.6" opacity="1" d="M 153.5 378 L 154 393.5 L 153 393.5 L 153.5 378 Z " /><path fill="rgb(70,70,70)" stroke="rgb(70,70,70)" stroke-width="0.6" opacity="1" d="M 105.5 379 L 106 415.5 L 105 415.5 L 105.5 379 Z " /><path fill="rgb(70,70,70)" stroke="rgb(70,70,70)" stroke-width="0.6" opacity="1" d="M 345.5 387 L 346 419.5 L 345 419.5 L 345.5 387 Z " /><path fill="rgb(70,70,70)" stroke="rgb(70,70,70)" stroke-width="0.6" opacity="1" d="M 428.5 391 L 429 424.5 L 428 424.5 L 428.5 391 Z " /><path fill="rgb(70,70,70)" stroke="rgb(70,70,70)" stroke-width="0.6" opacity="1" d="M 171.5 392 L 172 431.5 L 171 431.5 L 171.5 392 Z " /><path fill="rgb(70,70,70)" stroke="rgb(70,70,70)" stroke-width="0.6" opacity="1" d="M 265.5 395 L 266 398 L 268.5 397 L 268 398.5 L 268 401 L 266 402.5 L 265 402.5 L 265.5 395 Z " /><path fill="rgb(70,70,70)" stroke="rgb(70,70,70)" stroke-width="0.6" opacity="1" d="M 153.5 399 L 154 416.5 L 153 416.5 L 153.5 399 Z " /><path fill="rgb(70,70,70)" stroke="rgb(70,70,70)" stroke-width="0.6" opacity="1" d="M 205.5 401 L 206 450.5 L 207.5 452 L 253.5 452 L 255 450.5 L 255.5 448 L 256 450.5 L 253.5 453 L 207.5 453 L 205 450.5 L 205.5 401 Z " /><path fill="rgb(70,70,70)" stroke="rgb(70,70,70)" stroke-width="0.6" opacity="1" d="M 258.5 403 L 259 450.5 L 260 451.5 L 258 450.5 L 258.5 403 Z " /><path fill="rgb(70,70,70)" stroke="rgb(70,70,70)" stroke-width="0.6" opacity="1" d="M 255.5 404 L 256 439.5 L 255 439.5 L 255.5 404 Z " /><path fill="rgb(70,70,70)" stroke="rgb(70,70,70)" stroke-width="0.6" opacity="1" d="M 308.5 408 L 309 420.5 L 308 420.5 L 308.5 408 Z " /><path fill="rgb(70,70,70)" stroke="rgb(70,70,70)" stroke-width="0.6" opacity="1" d="M 432.5 413 L 433 460.5 L 432 460.5 L 432.5 413 Z " /><path fill="rgb(70,70,70)" stroke="rgb(70,70,70)" stroke-width="0.6" opacity="1" d="M 107.5 421 L 126 421.5 L 107.5 422 L 107.5 421 Z " /><path fill="rgb(70,70,70)" stroke="rgb(70,70,70)" stroke-width="0.6" opacity="1" d="M 312.5 443 Q 311.1 450.4 315 452.5 L 312 450.5 L 312.5 443 Z " /><path fill="rgb(70,70,70)" stroke="rgb(70,70,70)" stroke-width="0.6" opacity="1" d="M 261.5 452 L 306 452.5 L 261.5 453 L 261.5 452 Z " /><path fill="rgb(70,70,70)" stroke="rgb(70,70,70)" stroke-width="0.6" opacity="1" d="M 402.5 467 L 423 467.5 L 402.5 468 L 402.5 467 Z " /><path fill="rgb(70,70,70)" stroke="rgb(70,70,70)" stroke-width="0.6" opacity="1" d="M 243.5 469 L 272 469.5 L 243.5 470 L 243.5 469 Z " /><path fill="rgb(70,70,70)" stroke="rgb(70,70,70)" stroke-width="0.6" opacity="1" d="M 290.5 469 L 313 469.5 L 290.5 470 L 290.5 469 Z " /><path fill="rgb(70,70,70)" stroke="rgb(70,70,70)" stroke-width="0.6" opacity="1" d="M 429.5 471 L 470 471.5 L 429.5 472 L 429.5 471 Z " /><path fill="rgb(70,70,70)" stroke="rgb(70,70,70)" stroke-width="0.6" opacity="1" d="M 327.5 472 L 340 472.5 L 327.5 473 L 327.5 472 Z " /><path fill="rgb(193,175,135)" stroke="rgb(193,175,135)" stroke-width="0.6" opacity="1" d="M 256.5 135 L 340 201.5 L 340 464.5 L 337.5 467 L 329 467 Q 329.8 463.9 327 464.5 L 327 458.5 L 323.5 454 Q 321.8 451.2 316.5 452 L 314 449.5 L 313 425.5 L 314 423.5 L 313 418.5 L 314 417.5 L 314 363.5 Q 310.4 336.1 292.5 323 L 274.5 314 L 264.5 312 L 252.5 312 L 233.5 316 Q 221.7 321.2 214 330.5 L 204 346.5 L 200 362.5 L 200 450.5 L 198.5 452 Q 189.5 450.5 187 455.5 L 186 464.5 L 183.5 467 Q 175 469 173 464.5 L 173 203.5 L 176.5 199 L 256.5 135 Z M 256 137 L 182 196 L 175 203 L 175 219 L 174 220 L 174 255 L 175 256 L 175 301 L 174 302 L 174 342 L 175 343 L 174 347 L 175 350 L 175 375 L 174 376 L 175 378 L 174 380 L 174 445 L 175 446 L 175 465 L 184 465 L 186 456 Q 189 449 199 450 L 199 360 L 203 346 L 211 333 L 229 317 L 249 311 L 268 311 Q 270 314 276 313 L 293 322 Q 309 333 314 356 L 315 362 L 315 449 L 323 452 L 328 458 L 328 464 L 330 465 L 338 465 L 338 427 L 339 426 L 339 283 L 338 282 L 339 278 L 339 204 L 338 202 L 262 139 L 256 137 Z " /><path fill="rgb(193,175,135)" stroke="rgb(193,175,135)" stroke-width="0.6" opacity="1" d="M 249.5 176 L 266.5 176 L 272 178.5 L 269.5 179 Q 262.6 175.4 250.5 177 L 243.5 179 L 243.5 178 L 249.5 176 Z " /><path fill="rgb(193,175,135)" stroke="rgb(193,175,135)" stroke-width="0.6" opacity="1" d="M 239.5 179 L 242 179.5 Q 228.7 184.2 221 194.5 L 212 213.5 L 211 229.5 Q 214.8 251.2 229.5 262 Q 240.2 270.8 259.5 271 Q 282.7 268.2 293 252.5 Q 302.5 241 302 219.5 Q 298.1 195.4 281.5 184 L 273 179.5 L 274.5 179 L 291 191.5 L 301 208.5 Q 300.2 214.8 303 217.5 L 303 231.5 L 296 250.5 L 286.5 261 Q 275.5 273 251.5 272 Q 233 269 223 257.5 L 213 242.5 L 210 230.5 L 210 220.5 L 213 206.5 L 223.5 190 L 239.5 179 Z " /><path fill="rgb(193,175,135)" stroke="rgb(193,175,135)" stroke-width="0.6" opacity="1" d="M 349.5 229 L 351.5 230 L 407.5 230 L 411 232.5 L 446 272.5 L 443.5 275 L 423.5 275 L 422.5 276 L 349 276 Q 349.8 272.9 347 273.5 L 347 231.5 L 349.5 229 Z M 350 231 L 348 233 L 349 235 L 348 238 L 349 273 L 351 274 L 444 274 L 445 273 L 416 240 L 409 232 L 350 231 Z " /><path fill="rgb(193,175,135)" stroke="rgb(193,175,135)" stroke-width="0.6" opacity="1" d="M 109.5 306 L 123.5 307 L 125 308.5 L 125 341.5 L 126 343.5 L 123.5 346 L 108.5 346 L 106 341.5 L 107 339.5 L 106 336.5 L 107 335.5 L 107 308.5 L 109.5 306 Z M 110 307 L 108 309 L 108 343 L 109 345 L 117 344 L 119 345 L 123 344 L 124 344 L 124 308 L 110 307 Z " /><path fill="rgb(193,175,135)" stroke="rgb(193,175,135)" stroke-width="0.6" opacity="1" d="M 365.5 307 L 380.5 307 L 382 308.5 L 382 344.5 L 380.5 346 L 365.5 346 L 364 344.5 L 364 308.5 L 365.5 307 Z M 367 308 L 365 310 L 366 313 L 365 315 L 365 339 L 366 340 L 365 342 L 367 344 L 381 344 L 381 310 L 380 308 L 367 308 Z " /><path fill="rgb(193,175,135)" stroke="rgb(193,175,135)" stroke-width="0.6" opacity="1" d="M 249.5 319 L 254 320.5 L 254 449.5 L 252.5 451 L 208.5 451 L 207 449.5 L 207 360.5 L 209.5 353 L 210 358.5 L 208 360.5 L 208 450 L 251.5 450 L 253 448.5 L 252.5 403 L 248.5 409 Q 242 410 240 406.5 Q 236.8 403.2 238 395.5 L 242.5 390 L 247.5 389 L 251 394.5 L 250 394.5 L 246.5 390 L 240 394.5 L 239 399.5 L 242.5 407 L 247.5 408 Q 252.8 405 251 396 L 253 395.5 L 253 321.5 L 250.5 320 Q 230.6 323.1 220 335.5 L 215.5 341 L 217 338.5 L 226.5 328 Q 235.6 321.1 249.5 319 Z " /><path fill="rgb(193,175,135)" stroke="rgb(193,175,135)" stroke-width="0.6" opacity="1" d="M 214.5 342 L 215 343.5 L 210.5 352 L 210 349.5 L 214.5 342 Z " /><path fill="rgb(193,175,135)" stroke="rgb(193,175,135)" stroke-width="0.6" opacity="1" d="M 197.5 457 L 314.5 457 L 321 460.5 Q 322.5 466.5 319.5 468 L 194.5 468 L 192 465.5 L 194.5 458 L 197.5 457 Z M 198 458 L 196 459 L 193 465 L 195 467 L 319 467 L 320 466 L 319 461 L 318 459 L 308 458 L 198 458 Z " /><path fill="rgb(173,73,63)" stroke="rgb(173,73,63)" stroke-width="0.6" opacity="1" d="M 256.5 105 L 267 112.5 L 262.5 109 L 256.5 106 L 228.5 128 L 231.5 124 L 256.5 105 Z " /><path fill="rgb(173,73,63)" stroke="rgb(173,73,63)" stroke-width="0.6" opacity="1" d="M 268.5 113 L 302 140.5 L 298.5 138 L 271.5 117 L 268.5 113 Z " /><path fill="rgb(173,73,63)" stroke="rgb(173,73,63)" stroke-width="0.6" opacity="1" d="M 255.5 126 L 259 126.5 L 253.5 128 L 239.5 139 L 242.5 135 L 255.5 126 Z " /><path fill="rgb(173,73,63)" stroke="rgb(173,73,63)" stroke-width="0.6" opacity="1" d="M 225.5 129 L 220.5 135 L 210.5 142 L 211.5 140 L 225.5 129 Z " /><path fill="rgb(173,73,63)" stroke="rgb(173,73,63)" stroke-width="0.6" opacity="1" d="M 264.5 130 L 272 136.5 L 267.5 133 L 264.5 130 Z " /><path fill="rgb(173,73,63)" stroke="rgb(173,73,63)" stroke-width="0.6" opacity="1" d="M 273.5 137 L 306 163.5 L 302.5 161 Q 285.4 150.2 273.5 137 Z " /><path fill="rgb(173,73,63)" stroke="rgb(173,73,63)" stroke-width="0.6" opacity="1" d="M 237.5 139 L 232.5 145 L 229.5 147 L 231.5 144 L 237.5 139 Z " /><path fill="rgb(173,73,63)" stroke="rgb(173,73,63)" stroke-width="0.6" opacity="1" d="M 303.5 141 L 313 149.5 L 309.5 147 L 303.5 141 Z " /><path fill="rgb(173,73,63)" stroke="rgb(173,73,63)" stroke-width="0.6" opacity="1" d="M 207.5 143 L 209 143.5 L 162.5 181 L 164.5 178 L 207.5 143 Z " /><path fill="rgb(173,73,63)" stroke="rgb(173,73,63)" stroke-width="0.6" opacity="1" d="M 227.5 147 L 222.5 153 L 218.5 156 L 221.5 152 L 227.5 147 Z " /><path fill="rgb(173,73,63)" stroke="rgb(173,73,63)" stroke-width="0.6" opacity="1" d="M 314.5 150 L 329 162.5 L 325.5 160 L 314.5 150 Z " /><path fill="rgb(173,73,63)" stroke="rgb(173,73,63)" stroke-width="0.6" opacity="1" d="M 212.5 159 L 207.5 165 L 193.5 176 L 195.5 173 L 212.5 159 Z " /><path fill="rgb(173,73,63)" stroke="rgb(173,73,63)" stroke-width="0.6" opacity="1" d="M 330.5 163 L 343 173.5 L 341.5 174 L 330.5 163 Z " /><path fill="rgb(173,73,63)" stroke="rgb(173,73,63)" stroke-width="0.6" opacity="1" d="M 314.5 170 L 321 175.5 L 319.5 175 L 314.5 170 Z " /><path fill="rgb(173,73,63)" stroke="rgb(173,73,63)" stroke-width="0.6" opacity="1" d="M 344.5 174 L 359 187.5 Q 358.8 194.8 353.5 197 L 349.5 198 L 331 183.5 L 335.5 187 L 351.5 197 L 357 192.5 L 358 187.5 L 344 175.5 L 344.5 174 Z " /><path fill="rgb(173,73,63)" stroke="rgb(173,73,63)" stroke-width="0.6" opacity="1" d="M 191.5 176 L 187.5 181 L 176.5 189 L 177.5 187 L 191.5 176 Z " /><path fill="rgb(173,73,63)" stroke="rgb(173,73,63)" stroke-width="0.6" opacity="1" d="M 322.5 176 L 330 182.5 L 325.5 179 L 322.5 176 Z " /><path fill="rgb(173,73,63)" stroke="rgb(173,73,63)" stroke-width="0.6" opacity="1" d="M 332.5 180 L 336 181 L 337.5 183 L 346 189.5 L 348 192.5 L 345.5 191 L 337 185.5 L 335.5 184 L 332.5 180 Z " /><path fill="rgb(173,73,63)" stroke="rgb(173,73,63)" stroke-width="0.6" opacity="1" d="M 179.5 181 L 181 181.5 L 166 193 L 167.5 190 L 179.5 181 Z " /><path fill="rgb(173,73,63)" stroke="rgb(173,73,63)" stroke-width="0.6" opacity="1" d="M 160.5 182 L 156 187.5 Q 155.1 194.4 159.5 196 L 162 197.5 L 160.5 198 Q 154.9 195.6 155 187.5 L 160.5 182 Z " /><path fill="rgb(173,73,63)" stroke="rgb(173,73,63)" stroke-width="0.6" opacity="1" d="M 163.5 183 L 165 184.5 L 162 191.5 L 164 194.5 L 161.5 195 Q 158 194 159 188.5 L 163.5 183 Z " /><path fill="rgb(173,73,63)" stroke="rgb(173,73,63)" stroke-width="0.6" opacity="1" d="M 349 183 L 355 187.5 Q 356 193 352.5 194 Q 349.1 194.9 351 189.5 L 349 183 Z " /><path fill="rgb(173,73,63)" stroke="rgb(173,73,63)" stroke-width="0.6" opacity="1" d="M 173.5 190 L 175 190.5 L 164.5 198 L 166.5 195 L 173.5 190 Z " /><path fill="rgb(173,73,63)" stroke="rgb(173,73,63)" stroke-width="0.6" opacity="1" d="M 349 282 L 351 283.5 L 349 285.5 L 348.5 298 L 348 284.5 L 349 282 Z " /><path fill="rgb(173,73,63)" stroke="rgb(173,73,63)" stroke-width="0.6" opacity="1" d="M 358 282 L 366.5 283 L 402.5 283 L 408 282 L 407.5 284 L 358 284 L 358 282 Z " /><path fill="rgb(173,73,63)" stroke="rgb(173,73,63)" stroke-width="0.6" opacity="1" d="M 426.5 284 L 429 284.5 L 429 313.5 L 427 314 L 427 285.5 L 426.5 284 Z " /><path fill="rgb(173,73,63)" stroke="rgb(173,73,63)" stroke-width="0.6" opacity="1" d="M 352 288 L 354 288.5 L 354 303.5 L 355 304.5 L 355 348.5 L 354 349.5 L 354 375.5 L 355 376.5 L 355 420.5 L 354 421.5 L 354 453.5 L 356 459.5 Q 354 464 352 460.5 L 352 288 Z " /><path fill="rgb(173,73,63)" stroke="rgb(173,73,63)" stroke-width="0.6" opacity="1" d="M 366.5 293 L 377.5 294 L 387.5 293 L 394.5 294 L 396.5 293 L 399.5 294 L 403.5 293 L 408 296.5 L 406.5 298 L 405.5 297 L 369.5 297 L 367.5 296 L 365.5 297 Q 362 295 366.5 293 Z " /><path fill="rgb(173,73,63)" stroke="rgb(173,73,63)" stroke-width="0.6" opacity="1" d="M 366.5 299 L 405 299.5 L 366.5 300 L 366.5 299 Z " /><path fill="rgb(173,73,63)" stroke="rgb(173,73,63)" stroke-width="0.6" opacity="1" d="M 363.5 300 L 365 300.5 L 359 304.5 L 358.5 306 L 358 304.5 L 363.5 300 Z " /><path fill="rgb(173,73,63)" stroke="rgb(173,73,63)" stroke-width="0.6" opacity="1" d="M 406.5 300 L 413 305.5 L 412.5 313 Q 413.2 303.8 407.5 301 L 406.5 300 Z " /><path fill="rgb(173,73,63)" stroke="rgb(173,73,63)" stroke-width="0.6" opacity="1" d="M 136.5 306 Q 145.2 304.3 148 308.5 L 146.5 308 L 133.5 308 L 133 309.5 L 132 309.5 L 133.5 307 L 136.5 306 Z " /><path fill="rgb(173,73,63)" stroke="rgb(173,73,63)" stroke-width="0.6" opacity="1" d="M 357.5 307 L 358 323.5 L 357 323.5 L 357.5 307 Z " /><path fill="rgb(173,73,63)" stroke="rgb(173,73,63)" stroke-width="0.6" opacity="1" d="M 136.5 311 L 142.5 312 L 145 312.5 Q 146.7 318.4 143 317 L 141.5 314 L 140 315.5 L 137.5 320 L 136 318.5 L 135 312.5 L 136.5 311 Z " /><path fill="rgb(173,73,63)" stroke="rgb(173,73,63)" stroke-width="0.6" opacity="1" d="M 348.5 313 L 349 369.5 L 348 369.5 L 348.5 313 Z " /><path fill="rgb(173,73,63)" stroke="rgb(173,73,63)" stroke-width="0.6" opacity="1" d="M 132.5 315 L 133 343.5 L 134 344.5 L 132.5 345 L 130 344 Q 129.3 340.9 132 341.5 L 132.5 315 Z " /><path fill="rgb(173,73,63)" stroke="rgb(173,73,63)" stroke-width="0.6" opacity="1" d="M 357.5 328 L 358 346.5 L 361.5 351 L 378 352.5 L 363.5 353 L 358 348.5 L 357 346.5 L 357.5 328 Z " /><path fill="rgb(173,73,63)" stroke="rgb(173,73,63)" stroke-width="0.6" opacity="1" d="M 426.5 329 L 427 353.5 L 425.5 361 L 425 354.5 L 426 353.5 L 426.5 329 Z " /><path fill="rgb(173,73,63)" stroke="rgb(173,73,63)" stroke-width="0.6" opacity="1" d="M 136 331 L 141 334.5 L 140 341 L 136 339.5 L 136 331 Z " /><path fill="rgb(173,73,63)" stroke="rgb(173,73,63)" stroke-width="0.6" opacity="1" d="M 147.5 343 L 146.5 345 L 135 344.5 L 147.5 343 Z " /><path fill="rgb(173,73,63)" stroke="rgb(173,73,63)" stroke-width="0.6" opacity="1" d="M 412.5 344 L 413 347.5 L 409.5 352 L 407.5 353 L 380.5 353 L 380.5 352 L 407.5 352 L 412 347.5 L 412.5 344 Z " /><path fill="rgb(173,73,63)" stroke="rgb(173,73,63)" stroke-width="0.6" opacity="1" d="M 363 356 L 407.5 356 L 408 358 L 391.5 358 Q 390.5 362 384.5 361 L 381.5 358 L 363 358 L 363 356 Z " /><path fill="rgb(173,73,63)" stroke="rgb(173,73,63)" stroke-width="0.6" opacity="1" d="M 388.5 364 L 390 367 L 380 368 L 381.5 365 L 388.5 364 Z " /><path fill="rgb(173,73,63)" stroke="rgb(173,73,63)" stroke-width="0.6" opacity="1" d="M 366.5 370 L 377 370.5 L 366.5 371 L 366.5 370 Z " /><path fill="rgb(173,73,63)" stroke="rgb(173,73,63)" stroke-width="0.6" opacity="1" d="M 362.5 371 L 364 371.5 L 359 375.5 L 357.5 402 L 357 377.5 L 362.5 371 Z " /><path fill="rgb(173,73,63)" stroke="rgb(173,73,63)" stroke-width="0.6" opacity="1" d="M 410.5 374 L 413 377.5 L 413 390.5 L 412 390.5 Q 413.6 378.3 410.5 374 Z " /><path fill="rgb(173,73,63)" stroke="rgb(173,73,63)" stroke-width="0.6" opacity="1" d="M 390.5 377 L 403.5 377 L 404 378.5 L 404.5 380 L 390.5 379 L 389 380.5 L 389 413.5 L 390 415.5 L 387 415.5 L 387 379.5 L 388.5 379 L 390.5 377 Z " /><path fill="rgb(173,73,63)" stroke="rgb(173,73,63)" stroke-width="0.6" opacity="1" d="M 425.5 380 L 426 403.5 L 425 403.5 L 425.5 380 Z " /><path fill="rgb(173,73,63)" stroke="rgb(173,73,63)" stroke-width="0.6" opacity="1" d="M 404.5 381 L 405 412.5 L 404 412.5 L 404.5 381 Z " /><path fill="rgb(173,73,63)" stroke="rgb(173,73,63)" stroke-width="0.6" opacity="1" d="M 391 382 L 399.5 382 L 401 383.5 L 398.5 384 L 395 386.5 L 393 392.5 L 393 400.5 L 397 407.5 L 394.5 412 L 392.5 413 L 391 411.5 L 391 382 Z " /><path fill="rgb(173,73,63)" stroke="rgb(173,73,63)" stroke-width="0.6" opacity="1" d="M 412.5 395 L 413 417.5 L 407.5 424 L 362.5 424 L 358 421 L 357 416.5 L 358 416.5 L 362.5 423 L 381.5 422 L 386.5 423 L 393.5 422 L 394.5 423 L 407.5 423 L 412 417.5 L 412.5 395 Z " /><path fill="rgb(173,73,63)" stroke="rgb(173,73,63)" stroke-width="0.6" opacity="1" d="M 72 403 L 74 404.5 L 79 408.5 L 78.5 420 L 78 408.5 L 76.5 407 L 72.5 405 L 64.5 410 L 67.5 406 L 72 405 L 72 403 Z " /><path fill="rgb(173,73,63)" stroke="rgb(173,73,63)" stroke-width="0.6" opacity="1" d="M 63.5 411 L 65 416.5 L 61.5 421 L 53.5 420 L 51 421.5 Q 51.8 418.3 56.5 419 L 60.5 420 L 64 414.5 L 63.5 411 Z " /><path fill="rgb(173,73,63)" stroke="rgb(173,73,63)" stroke-width="0.6" opacity="1" d="M 403.5 414 L 405 414.5 L 403.5 416 L 391.5 416 L 391.5 415 L 403.5 414 Z " /><path fill="rgb(173,73,63)" stroke="rgb(173,73,63)" stroke-width="0.6" opacity="1" d="M 425.5 421 L 426 463.5 L 424.5 465 L 412.5 465 L 412.5 464 L 423.5 464 L 425 462.5 L 425.5 421 Z " /><path fill="rgb(173,73,63)" stroke="rgb(173,73,63)" stroke-width="0.6" opacity="1" d="M 49.5 424 L 50 433.5 Q 54 434.5 53 440.5 Q 51.8 444.3 45.5 443 L 42 446.5 L 40.5 451 L 40 448.5 L 43.5 443 L 51 442 L 52 439.5 L 51 436.5 L 49 430 Q 46 431 47 428 Q 50.5 429.2 49.5 424 Z " /><path fill="rgb(173,73,63)" stroke="rgb(173,73,63)" stroke-width="0.6" opacity="1" d="M 348.5 426 L 349 461.5 L 348 461.5 L 348.5 426 Z " /><path fill="rgb(173,73,63)" stroke="rgb(173,73,63)" stroke-width="0.6" opacity="1" d="M 362.5 426 L 406 427 L 405.5 429 L 386.5 429 L 382.5 430 L 381.5 429 L 362.5 429 L 361 427.5 L 362.5 426 Z " /><path fill="rgb(173,73,63)" stroke="rgb(173,73,63)" stroke-width="0.6" opacity="1" d="M 78.5 435 L 79 448.5 L 78 448.5 L 78.5 435 Z " /><path fill="rgb(173,73,63)" stroke="rgb(173,73,63)" stroke-width="0.6" opacity="1" d="M 43 450 L 48 451.5 L 49 460 Q 44.3 460.8 43 456.5 L 43 450 Z " /><path fill="rgb(173,73,63)" stroke="rgb(173,73,63)" stroke-width="0.6" opacity="1" d="M 78.5 451 L 79 461.5 L 78 461.5 L 77 455.5 L 78.5 451 Z " /><path fill="rgb(173,73,63)" stroke="rgb(173,73,63)" stroke-width="0.6" opacity="1" d="M 420.5 453 L 423 454.5 Q 424.3 459.8 421.5 461 Q 417.8 462.3 419 458.5 L 420 456.5 L 419 454.5 L 420.5 453 Z " /><path fill="rgb(173,73,63)" stroke="rgb(173,73,63)" stroke-width="0.6" opacity="1" d="M 42.5 460 L 52.5 465 L 77.5 465 L 79 464.5 L 77.5 466 L 52.5 466 L 43.5 462 L 42.5 460 Z " /><path fill="rgb(173,73,63)" stroke="rgb(173,73,63)" stroke-width="0.6" opacity="1" d="M 348.5 464 L 351.5 465 L 353.5 464 L 354.5 465 L 400.5 465 L 404.5 464 L 404 465.5 Q 404.5 468.5 397.5 467 L 396.5 466 L 359.5 466 L 356.5 467 L 352.5 465 L 349.5 466 L 348.5 464 Z " /><path fill="rgb(144,148,148)" stroke="rgb(144,148,148)" stroke-width="0.6" opacity="1" d="M 256.5 186 L 261 188.5 L 260.5 212 L 260 190.5 L 257.5 188 L 255 189.5 L 253.5 202 L 253 190.5 L 256.5 186 Z " /><path fill="rgb(144,148,148)" stroke="rgb(144,148,148)" stroke-width="0.6" opacity="1" d="M 362.5 198 L 357.5 204 L 362.5 198 Z " /><path fill="rgb(144,148,148)" stroke="rgb(144,148,148)" stroke-width="0.6" opacity="1" d="M 340.5 203 L 341 275.5 L 340 275.5 L 340.5 203 Z " /><path fill="rgb(144,148,148)" stroke="rgb(144,148,148)" stroke-width="0.6" opacity="1" d="M 165.5 206 L 167 207.5 L 167 221.5 L 165 222.5 L 166 221.5 L 166 207.5 L 165.5 206 Z " /><path fill="rgb(144,148,148)" stroke="rgb(144,148,148)" stroke-width="0.6" opacity="1" d="M 264 221 L 270 222.5 L 268 223 L 267 225.5 L 269 226.5 L 264 229 L 266 224.5 L 264 221 Z " /><path fill="rgb(144,148,148)" stroke="rgb(144,148,148)" stroke-width="0.6" opacity="1" d="M 101.5 224 L 95.5 231 L 101.5 224 Z " /><path fill="rgb(144,148,148)" stroke="rgb(144,148,148)" stroke-width="0.6" opacity="1" d="M 254.5 227 L 273 243.5 L 274 245.5 L 271 243.5 L 268.5 240 L 254 228.5 L 254.5 227 Z " /><path fill="rgb(144,148,148)" stroke="rgb(144,148,148)" stroke-width="0.6" opacity="1" d="M 106.5 229 L 131.5 229 L 132 231 L 105 230.5 L 106.5 229 Z " /><path fill="rgb(144,148,148)" stroke="rgb(144,148,148)" stroke-width="0.6" opacity="1" d="M 351.5 229 L 402 229.5 L 351.5 230 L 351.5 229 Z " /><path fill="rgb(144,148,148)" stroke="rgb(144,148,148)" stroke-width="0.6" opacity="1" d="M 421.5 234 L 426.5 240 L 421.5 234 Z " /><path fill="rgb(144,148,148)" stroke="rgb(144,148,148)" stroke-width="0.6" opacity="1" d="M 276.5 242 L 280 248.5 L 277 250 L 278 245.5 L 276.5 242 Z " /><path fill="rgb(144,148,148)" stroke="rgb(144,148,148)" stroke-width="0.6" opacity="1" d="M 280.5 255 L 282 255.5 L 275.5 260 L 276.5 258 L 280.5 255 Z " /><path fill="rgb(144,148,148)" stroke="rgb(144,148,148)" stroke-width="0.6" opacity="1" d="M 255.5 260 L 262 263 Q 263.3 266 259.5 265 L 251 263.5 L 255 261.5 L 255.5 260 Z " /><path fill="rgb(144,148,148)" stroke="rgb(144,148,148)" stroke-width="0.6" opacity="1" d="M 423.5 275 L 443 275.5 L 423.5 276 L 423.5 275 Z " /><path fill="rgb(144,148,148)" stroke="rgb(144,148,148)" stroke-width="0.6" opacity="1" d="M 69.5 282 Q 77 280 79 283.5 L 77.5 283 L 69.5 283 L 69.5 282 Z " /><path fill="rgb(144,148,148)" stroke="rgb(144,148,148)" stroke-width="0.6" opacity="1" d="M 86 282 L 106.5 282 L 107 284 L 91.5 283 L 88.5 284 L 86.5 285 L 86 282 Z " /><path fill="rgb(144,148,148)" stroke="rgb(144,148,148)" stroke-width="0.6" opacity="1" d="M 340.5 285 L 341 334.5 L 340 334.5 L 340.5 285 Z " /><path fill="rgb(144,148,148)" stroke="rgb(144,148,148)" stroke-width="0.6" opacity="1" d="M 79.5 293 L 80 309.5 L 79 309.5 L 79.5 293 Z " /><path fill="rgb(144,148,148)" stroke="rgb(144,148,148)" stroke-width="0.6" opacity="1" d="M 107.5 300 L 116 300.5 L 106.5 302 L 107.5 300 Z " /><path fill="rgb(144,148,148)" stroke="rgb(144,148,148)" stroke-width="0.6" opacity="1" d="M 434.5 303 L 435 344.5 L 434 344.5 L 434.5 303 Z " /><path fill="rgb(144,148,148)" stroke="rgb(144,148,148)" stroke-width="0.6" opacity="1" d="M 108.5 306 L 107 308.5 L 106.5 336 L 106 308.5 L 108.5 306 Z " /><path fill="rgb(144,148,148)" stroke="rgb(144,148,148)" stroke-width="0.6" opacity="1" d="M 111.5 306 L 123.5 306 L 126 308.5 L 125.5 342 L 125 308.5 L 123.5 307 L 111.5 307 L 111.5 306 Z " /><path fill="rgb(144,148,148)" stroke="rgb(144,148,148)" stroke-width="0.6" opacity="1" d="M 366.5 306 L 380.5 306 L 382 307.5 L 380.5 307 L 366.5 307 L 366.5 306 Z " /><path fill="rgb(144,148,148)" stroke="rgb(144,148,148)" stroke-width="0.6" opacity="1" d="M 252.5 312 L 265 312.5 L 252.5 313 L 252.5 312 Z " /><path fill="rgb(144,148,148)" stroke="rgb(144,148,148)" stroke-width="0.6" opacity="1" d="M 405.5 312 Q 409.1 315.9 407 325.5 L 405.5 342 L 405.5 312 Z " /><path fill="rgb(144,148,148)" stroke="rgb(144,148,148)" stroke-width="0.6" opacity="1" d="M 254.5 321 L 255 443.5 L 254 443.5 L 254.5 321 Z " /><path fill="rgb(144,148,148)" stroke="rgb(144,148,148)" stroke-width="0.6" opacity="1" d="M 292.5 323 L 301.5 333 L 292.5 323 Z " /><path fill="rgb(144,148,148)" stroke="rgb(144,148,148)" stroke-width="0.6" opacity="1" d="M 219.5 325 L 214.5 331 L 219.5 325 Z " /><path fill="rgb(144,148,148)" stroke="rgb(144,148,148)" stroke-width="0.6" opacity="1" d="M 224.5 329 L 218.5 336 L 224.5 329 Z " /><path fill="rgb(144,148,148)" stroke="rgb(144,148,148)" stroke-width="0.6" opacity="1" d="M 79.5 334 L 80 356.5 L 79 356.5 L 79.5 334 Z " /><path fill="rgb(144,148,148)" stroke="rgb(144,148,148)" stroke-width="0.6" opacity="1" d="M 86.5 334 L 87 366.5 L 86 366.5 L 86.5 334 Z " /><path fill="rgb(144,148,148)" stroke="rgb(144,148,148)" stroke-width="0.6" opacity="1" d="M 165 338 L 167 338.5 L 167 350.5 L 165 349.5 L 165 338 Z " /><path fill="rgb(144,148,148)" stroke="rgb(144,148,148)" stroke-width="0.6" opacity="1" d="M 105.5 350 L 123.5 351 L 130.5 350 L 131.5 351 L 148.5 351 L 150.5 350 L 149.5 352 L 106.5 352 L 105.5 350 Z " /><path fill="rgb(144,148,148)" stroke="rgb(144,148,148)" stroke-width="0.6" opacity="1" d="M 165 357 L 167 357.5 L 167 395 L 165 394.5 L 165 357 Z " /><path fill="rgb(144,148,148)" stroke="rgb(144,148,148)" stroke-width="0.6" opacity="1" d="M 340.5 357 L 341 419.5 L 340 419.5 L 340.5 357 Z " /><path fill="rgb(144,148,148)" stroke="rgb(144,148,148)" stroke-width="0.6" opacity="1" d="M 200.5 362 L 201 450.5 L 199 451.5 L 200 450.5 L 200.5 362 Z " /><path fill="rgb(144,148,148)" stroke="rgb(144,148,148)" stroke-width="0.6" opacity="1" d="M 313.5 363 L 314 417.5 L 313 417.5 L 313.5 363 Z " /><path fill="rgb(144,148,148)" stroke="rgb(144,148,148)" stroke-width="0.6" opacity="1" d="M 206.5 365 L 207 449.5 L 208.5 451 L 252.5 451 L 254 449.5 L 254.5 447 L 255 449.5 L 252.5 452 L 208.5 452 L 206 449.5 L 206.5 365 Z " /><path fill="rgb(144,148,148)" stroke="rgb(144,148,148)" stroke-width="0.6" opacity="1" d="M 147.5 371 L 153 373 L 154 375.5 L 150.5 373 L 147.5 371 Z " /><path fill="rgb(144,148,148)" stroke="rgb(144,148,148)" stroke-width="0.6" opacity="1" d="M 130 378 L 133 378.5 L 132 379.5 L 131.5 413 L 130 378 Z " /><path fill="rgb(144,148,148)" stroke="rgb(144,148,148)" stroke-width="0.6" opacity="1" d="M 124 382 L 126 382.5 L 126 399 L 124 398.5 L 124 382 Z " /><path fill="rgb(144,148,148)" stroke="rgb(144,148,148)" stroke-width="0.6" opacity="1" d="M 427.5 403 L 428 422 L 426 421.5 L 426 404.5 L 427.5 403 Z " /><path fill="rgb(144,148,148)" stroke="rgb(144,148,148)" stroke-width="0.6" opacity="1" d="M 434.5 410 L 435 452 L 433 451.5 L 433 412.5 L 434.5 410 Z " /><path fill="rgb(144,148,148)" stroke="rgb(144,148,148)" stroke-width="0.6" opacity="1" d="M 313.5 430 L 314 449.5 L 316 451.5 L 314.5 452 L 313 450.5 L 313.5 430 Z " /><path fill="rgb(144,148,148)" stroke="rgb(144,148,148)" stroke-width="0.6" opacity="1" d="M 192.5 466 L 194.5 468 L 319 468.5 L 194.5 469 L 192.5 466 Z " /><path fill="rgb(144,148,148)" stroke="rgb(144,148,148)" stroke-width="0.6" opacity="1" d="M 405.5 466 L 423 466.5 L 405.5 467 L 405.5 466 Z " /><path fill="rgb(144,148,148)" stroke="rgb(144,148,148)" stroke-width="0.6" opacity="1" d="M 423.5 472 L 454 472.5 L 423.5 473 L 423.5 472 Z " /><path fill="rgb(144,148,148)" stroke="rgb(144,148,148)" stroke-width="0.6" opacity="1" d="M 92.5 473 L 115 473.5 L 92.5 474 L 92.5 473 Z " /><path fill="rgb(144,148,148)" stroke="rgb(144,148,148)" stroke-width="0.6" opacity="1" d="M 328.5 473 L 341 473.5 L 328.5 474 L 328.5 473 Z " /><path fill="rgb(144,148,148)" stroke="rgb(144,148,148)" stroke-width="0.6" opacity="1" d="M 229.5 474 L 241 474.5 L 229.5 475 L 229.5 474 Z " /><path fill="rgb(144,148,148)" stroke="rgb(144,148,148)" stroke-width="0.6" opacity="1" d="M 276.5 474 L 292 474.5 L 276.5 475 L 276.5 474 Z " /><path fill="rgb(98,97,97)" stroke="rgb(98,97,97)" stroke-width="0.6" opacity="1" d="M 260.5 56 L 261 78.5 L 260 78.5 L 260.5 56 Z " /><path fill="rgb(98,97,97)" stroke="rgb(98,97,97)" stroke-width="0.6" opacity="1" d="M 284.5 187 L 289.5 193 L 284.5 187 Z " /><path fill="rgb(98,97,97)" stroke="rgb(98,97,97)" stroke-width="0.6" opacity="1" d="M 231.5 191 L 226.5 197 L 231.5 191 Z " /><path fill="rgb(98,97,97)" stroke="rgb(98,97,97)" stroke-width="0.6" opacity="1" d="M 348.5 204 L 354 204.5 L 347 206.5 L 346.5 214 L 346 206.5 L 348.5 204 Z " /><path fill="rgb(98,97,97)" stroke="rgb(98,97,97)" stroke-width="0.6" opacity="1" d="M 116.5 223 L 144 223.5 L 116.5 224 L 116.5 223 Z " /><path fill="rgb(98,97,97)" stroke="rgb(98,97,97)" stroke-width="0.6" opacity="1" d="M 167.5 232 L 168 248.5 L 167 248.5 L 167.5 232 Z " /><path fill="rgb(98,97,97)" stroke="rgb(98,97,97)" stroke-width="0.6" opacity="1" d="M 424.5 238 L 429.5 244 L 424.5 238 Z " /><path fill="rgb(98,97,97)" stroke="rgb(98,97,97)" stroke-width="0.6" opacity="1" d="M 429.5 252 L 434.5 258 L 429.5 252 Z " /><path fill="rgb(98,97,97)" stroke="rgb(98,97,97)" stroke-width="0.6" opacity="1" d="M 75.5 262 L 70.5 268 L 75.5 262 Z " /><path fill="rgb(98,97,97)" stroke="rgb(98,97,97)" stroke-width="0.6" opacity="1" d="M 172.5 269 L 173 290.5 L 172 290.5 L 172.5 269 Z " /><path fill="rgb(98,97,97)" stroke="rgb(98,97,97)" stroke-width="0.6" opacity="1" d="M 71.5 276 L 98 276.5 L 71.5 277 L 71.5 276 Z " /><path fill="rgb(98,97,97)" stroke="rgb(98,97,97)" stroke-width="0.6" opacity="1" d="M 406.5 276 L 443 276.5 L 406.5 277 L 406.5 276 Z " /><path fill="rgb(98,97,97)" stroke="rgb(98,97,97)" stroke-width="0.6" opacity="1" d="M 110.5 281 L 165 281.5 L 110.5 282 L 110.5 281 Z " /><path fill="rgb(98,97,97)" stroke="rgb(98,97,97)" stroke-width="0.6" opacity="1" d="M 358.5 281 L 407 281.5 L 358.5 282 L 358.5 281 Z " /><path fill="rgb(98,97,97)" stroke="rgb(98,97,97)" stroke-width="0.6" opacity="1" d="M 127.5 301 L 141 301.5 L 127.5 302 L 127.5 301 Z " /><path fill="rgb(98,97,97)" stroke="rgb(98,97,97)" stroke-width="0.6" opacity="1" d="M 409.5 305 L 411 306.5 L 411 317.5 L 410 317.5 Q 410.9 307.7 409.5 305 Z " /><path fill="rgb(98,97,97)" stroke="rgb(98,97,97)" stroke-width="0.6" opacity="1" d="M 363.5 311 L 364 341.5 L 363 341.5 L 363.5 311 Z " /><path fill="rgb(98,97,97)" stroke="rgb(98,97,97)" stroke-width="0.6" opacity="1" d="M 149.5 315 L 150 338.5 L 149 338.5 L 149.5 315 Z " /><path fill="rgb(98,97,97)" stroke="rgb(98,97,97)" stroke-width="0.6" opacity="1" d="M 102.5 324 L 103 345.5 L 102 345.5 L 102.5 324 Z " /><path fill="rgb(98,97,97)" stroke="rgb(98,97,97)" stroke-width="0.6" opacity="1" d="M 220.5 325 L 214.5 332 L 220.5 325 Z " /><path fill="rgb(98,97,97)" stroke="rgb(98,97,97)" stroke-width="0.6" opacity="1" d="M 153.5 327 L 154 345.5 L 153 345.5 L 153.5 327 Z " /><path fill="rgb(98,97,97)" stroke="rgb(98,97,97)" stroke-width="0.6" opacity="1" d="M 105.5 330 L 106 343.5 L 105 343.5 L 105.5 330 Z " /><path fill="rgb(98,97,97)" stroke="rgb(98,97,97)" stroke-width="0.6" opacity="1" d="M 149.5 344 L 147.5 347 L 135 346.5 L 147.5 346 L 149.5 344 Z " /><path fill="rgb(98,97,97)" stroke="rgb(98,97,97)" stroke-width="0.6" opacity="1" d="M 363.5 344 L 365.5 346 L 381 346.5 L 365.5 347 L 363.5 344 Z " /><path fill="rgb(98,97,97)" stroke="rgb(98,97,97)" stroke-width="0.6" opacity="1" d="M 389.5 346 L 405 346.5 L 389.5 347 L 389.5 346 Z " /><path fill="rgb(98,97,97)" stroke="rgb(98,97,97)" stroke-width="0.6" opacity="1" d="M 80.5 351 L 81 397.5 L 80 397.5 L 80.5 351 Z " /><path fill="rgb(98,97,97)" stroke="rgb(98,97,97)" stroke-width="0.6" opacity="1" d="M 428.5 351 L 429 390.5 L 428 390.5 L 428.5 351 Z " /><path fill="rgb(98,97,97)" stroke="rgb(98,97,97)" stroke-width="0.6" opacity="1" d="M 433.5 357 L 434 400.5 L 433 400.5 L 433.5 357 Z " /><path fill="rgb(98,97,97)" stroke="rgb(98,97,97)" stroke-width="0.6" opacity="1" d="M 312.5 361 L 313 442.5 L 312 442.5 L 312.5 361 Z " /><path fill="rgb(98,97,97)" stroke="rgb(98,97,97)" stroke-width="0.6" opacity="1" d="M 258.5 374 L 259 402.5 L 258 402.5 L 258.5 374 Z " /><path fill="rgb(98,97,97)" stroke="rgb(98,97,97)" stroke-width="0.6" opacity="1" d="M 85.5 376 L 86 462.5 L 85 462.5 L 85.5 376 Z " /><path fill="rgb(98,97,97)" stroke="rgb(98,97,97)" stroke-width="0.6" opacity="1" d="M 109.5 376 L 124 376.5 L 109.5 377 L 109.5 376 Z " /><path fill="rgb(98,97,97)" stroke="rgb(98,97,97)" stroke-width="0.6" opacity="1" d="M 102.5 378 L 103 417.5 L 102 417.5 L 102.5 378 Z " /><path fill="rgb(98,97,97)" stroke="rgb(98,97,97)" stroke-width="0.6" opacity="1" d="M 410.5 379 L 411 390.5 L 410 390.5 L 410.5 379 Z " /><path fill="rgb(98,97,97)" stroke="rgb(98,97,97)" stroke-width="0.6" opacity="1" d="M 363.5 383 L 364 414.5 L 363 414.5 L 363.5 383 Z " /><path fill="rgb(98,97,97)" stroke="rgb(98,97,97)" stroke-width="0.6" opacity="1" d="M 374.5 421 L 405 421.5 L 374.5 422 L 374.5 421 Z " /><path fill="rgb(98,97,97)" stroke="rgb(98,97,97)" stroke-width="0.6" opacity="1" d="M 427.5 443 L 428 454.5 L 427 454.5 L 427.5 443 Z " /><path fill="rgb(98,97,97)" stroke="rgb(98,97,97)" stroke-width="0.6" opacity="1" d="M 326.5 464 L 328.5 467 L 335 467.5 L 328.5 468 L 326.5 464 Z " /><path fill="rgb(98,97,97)" stroke="rgb(98,97,97)" stroke-width="0.6" opacity="1" d="M 346.5 465 L 348.5 467 L 402 467.5 L 348.5 468 L 346.5 465 Z " /><path fill="rgb(98,97,97)" stroke="rgb(98,97,97)" stroke-width="0.6" opacity="1" d="M 79.5 466 L 78.5 468 L 52 467.5 L 78.5 467 L 79.5 466 Z " /><path fill="rgb(98,97,97)" stroke="rgb(98,97,97)" stroke-width="0.6" opacity="1" d="M 90.5 467 L 139 467.5 L 90.5 468 L 90.5 467 Z " /><path fill="rgb(98,97,97)" stroke="rgb(98,97,97)" stroke-width="0.6" opacity="1" d="M 142.5 467 L 165 467.5 L 142.5 468 L 142.5 467 Z " /><path fill="rgb(98,97,97)" stroke="rgb(98,97,97)" stroke-width="0.6" opacity="1" d="M 437.5 467 L 461 467.5 L 437.5 468 L 437.5 467 Z " /><path fill="rgb(98,97,97)" stroke="rgb(98,97,97)" stroke-width="0.6" opacity="1" d="M 44.5 472 L 65 472.5 L 44.5 473 L 44.5 472 Z " /><path fill="rgb(98,97,97)" stroke="rgb(98,97,97)" stroke-width="0.6" opacity="1" d="M 82.5 472 L 165 472.5 L 82.5 473 L 82.5 472 Z " /><path fill="rgb(98,97,97)" stroke="rgb(98,97,97)" stroke-width="0.6" opacity="1" d="M 396.5 472 L 419 472.5 L 396.5 473 L 396.5 472 Z " /><path fill="rgb(98,97,97)" stroke="rgb(98,97,97)" stroke-width="0.6" opacity="1" d="M 185.5 473 L 325 473.5 L 185.5 474 L 185.5 473 Z " /><path fill="rgb(167,115,113)" stroke="rgb(167,115,113)" stroke-width="0.6" opacity="1" d="M 255.5 104 L 261.5 106 L 285 125.5 L 282.5 124 L 256.5 105 L 254.5 106 L 255.5 104 Z " /><path fill="rgb(167,115,113)" stroke="rgb(167,115,113)" stroke-width="0.6" opacity="1" d="M 252.5 106 L 248.5 111 L 193.5 155 L 197.5 150 L 252.5 106 Z " /><path fill="rgb(167,115,113)" stroke="rgb(167,115,113)" stroke-width="0.6" opacity="1" d="M 286.5 126 L 344 173.5 L 342.5 173 L 292.5 133 L 286.5 126 Z " /><path fill="rgb(167,115,113)" stroke="rgb(167,115,113)" stroke-width="0.6" opacity="1" d="M 255.5 127 L 259.5 127 L 267.5 133 L 318 174.5 L 313.5 171 L 261.5 130 L 255.5 128 L 242.5 138 L 246.5 133 L 255.5 127 Z " /><path fill="rgb(167,115,113)" stroke="rgb(167,115,113)" stroke-width="0.6" opacity="1" d="M 240.5 138 L 238.5 141 L 233.5 145 L 238.5 139 L 240.5 138 Z " /><path fill="rgb(167,115,113)" stroke="rgb(167,115,113)" stroke-width="0.6" opacity="1" d="M 231.5 145 L 227.5 150 L 223.5 153 L 228.5 147 L 231.5 145 Z " /><path fill="rgb(167,115,113)" stroke="rgb(167,115,113)" stroke-width="0.6" opacity="1" d="M 221.5 153 L 217.5 158 L 169.5 196 L 164.5 199 L 160.5 199 Q 153.6 195.9 153 188 Q 156.3 186.7 155 191.5 L 160.5 198 L 164.5 198 L 170.5 194 L 221.5 153 Z " /><path fill="rgb(167,115,113)" stroke="rgb(167,115,113)" stroke-width="0.6" opacity="1" d="M 191.5 155 L 186.5 161 L 177.5 168 L 181.5 163 L 191.5 155 Z " /><path fill="rgb(167,115,113)" stroke="rgb(167,115,113)" stroke-width="0.6" opacity="1" d="M 174.5 169 L 176 169.5 L 162.5 180 L 165.5 176 L 174.5 169 Z " /><path fill="rgb(167,115,113)" stroke="rgb(167,115,113)" stroke-width="0.6" opacity="1" d="M 345.5 174 L 352 179.5 L 350.5 180 L 345.5 174 Z " /><path fill="rgb(167,115,113)" stroke="rgb(167,115,113)" stroke-width="0.6" opacity="1" d="M 319.5 175 L 345 195.5 L 341.5 193 L 322.5 179 L 319.5 175 Z " /><path fill="rgb(167,115,113)" stroke="rgb(167,115,113)" stroke-width="0.6" opacity="1" d="M 159.5 181 L 161 181.5 L 155 186.5 L 159.5 181 Z " /><path fill="rgb(167,115,113)" stroke="rgb(167,115,113)" stroke-width="0.6" opacity="1" d="M 353.5 181 L 360 186.5 L 360 191.5 L 355.5 197 L 349.5 199 L 346 196.5 L 347.5 196 L 351.5 198 L 358 192.5 L 359 187.5 L 353.5 181 Z " /><path fill="rgb(167,115,113)" stroke="rgb(167,115,113)" stroke-width="0.6" opacity="1" d="M 348.5 282 L 348 283.5 L 348 464.5 L 349.5 466 L 353.5 465 L 356 466.5 L 348.5 467 L 347 465.5 L 347 283.5 L 348.5 282 Z " /><path fill="rgb(167,115,113)" stroke="rgb(167,115,113)" stroke-width="0.6" opacity="1" d="M 366.5 282 L 403 282.5 L 366.5 283 L 366.5 282 Z " /><path fill="rgb(167,115,113)" stroke="rgb(167,115,113)" stroke-width="0.6" opacity="1" d="M 408 282 L 426.5 282 L 427 283.5 L 427.5 285 L 426.5 284 L 408 284 L 408 282 Z " /><path fill="rgb(167,115,113)" stroke="rgb(167,115,113)" stroke-width="0.6" opacity="1" d="M 365.5 300 L 405.5 300 L 410 303.5 L 407.5 302 L 404.5 301 L 366.5 301 L 364.5 302 L 365.5 300 Z " /><path fill="rgb(167,115,113)" stroke="rgb(167,115,113)" stroke-width="0.6" opacity="1" d="M 361.5 302 L 363 302.5 L 359 307.5 L 359 346.5 L 360 349 L 364.5 351 L 406.5 351 L 410 348.5 L 411 346.5 L 411 306.5 L 410.5 305 L 412 306.5 L 412 347.5 L 407.5 352 L 363.5 352 L 359 348.5 L 358 346.5 L 358 306.5 L 361.5 302 Z " /><path fill="rgb(167,115,113)" stroke="rgb(167,115,113)" stroke-width="0.6" opacity="1" d="M 132.5 306 L 136 306.5 L 132 308.5 L 132 341.5 L 130 342 L 131 307.5 L 132.5 306 Z " /><path fill="rgb(167,115,113)" stroke="rgb(167,115,113)" stroke-width="0.6" opacity="1" d="M 145.5 306 L 149 307.5 L 149 344.5 L 147.5 346 L 132 345.5 L 146.5 345 L 148 343.5 L 148 308.5 L 146.5 307 L 145.5 306 Z " /><path fill="rgb(167,115,113)" stroke="rgb(167,115,113)" stroke-width="0.6" opacity="1" d="M 427.5 314 L 428 402.5 L 426 403.5 L 427 372.5 L 426 371.5 L 426 354.5 L 427 353.5 L 427.5 314 Z " /><path fill="rgb(167,115,113)" stroke="rgb(167,115,113)" stroke-width="0.6" opacity="1" d="M 364.5 371 L 406.5 371 L 410 373.5 L 409.5 375 L 405.5 372 L 365.5 372 L 361.5 374 L 362.5 372 L 364.5 371 Z " /><path fill="rgb(167,115,113)" stroke="rgb(167,115,113)" stroke-width="0.6" opacity="1" d="M 359.5 375 L 360 376.5 L 359 377.5 L 359 417.5 L 360 419.5 L 358 418.5 L 358 377.5 L 359.5 375 Z " /><path fill="rgb(167,115,113)" stroke="rgb(167,115,113)" stroke-width="0.6" opacity="1" d="M 410.5 376 L 412 377.5 L 412 417.5 L 410.5 420 L 410 418.5 L 411 417.5 L 411 377.5 L 410.5 376 Z " /><path fill="rgb(167,115,113)" stroke="rgb(167,115,113)" stroke-width="0.6" opacity="1" d="M 404.5 377 L 406 378.5 L 406 413.5 L 405 413.5 L 405 379.5 L 404.5 377 Z " /><path fill="rgb(167,115,113)" stroke="rgb(167,115,113)" stroke-width="0.6" opacity="1" d="M 71.5 403 L 72 405 Q 66.4 405.1 64 409.5 L 63 413.5 L 64 416.5 Q 63.2 420.7 57.5 420 L 53.5 419 Q 48.8 421.5 49 428 L 47 426.5 L 51.5 419 L 59.5 418 L 62 417.5 Q 60.5 408.5 65.5 406 L 71.5 403 Z " /><path fill="rgb(167,115,113)" stroke="rgb(167,115,113)" stroke-width="0.6" opacity="1" d="M 79.5 408 L 80 462.5 L 81 463.5 L 78.5 467 L 51.5 467 Q 43.9 465.1 40 459.5 L 39 447.5 L 41 446.5 L 40 457.5 L 43.5 462 L 52.5 466 L 77.5 466 L 79 464.5 L 79.5 408 Z " /><path fill="rgb(167,115,113)" stroke="rgb(167,115,113)" stroke-width="0.6" opacity="1" d="M 404.5 415 L 405 417 L 390 416.5 L 404.5 415 Z " /><path fill="rgb(167,115,113)" stroke="rgb(167,115,113)" stroke-width="0.6" opacity="1" d="M 408.5 421 L 407.5 423 L 394 422.5 L 408.5 421 Z " /><path fill="rgb(167,115,113)" stroke="rgb(167,115,113)" stroke-width="0.6" opacity="1" d="M 426.5 422 L 427 464.5 L 425.5 466 L 405.5 466 L 404.5 467 L 404 465 L 424.5 465 L 426 463.5 L 426.5 422 Z " /><path fill="rgb(167,115,113)" stroke="rgb(167,115,113)" stroke-width="0.6" opacity="1" d="M 51.5 439 L 51 440.5 Q 51.6 443.3 45.5 442 L 41.5 445 L 44.5 441 L 51.5 439 Z " /><path fill="rgb(167,115,113)" stroke="rgb(167,115,113)" stroke-width="0.6" opacity="1" d="M 359.5 466 L 397 466.5 L 359.5 467 L 359.5 466 Z " /><path fill="rgb(180,180,181)" stroke="rgb(180,180,181)" stroke-width="0.6" opacity="1" d="M 253.5 45 L 254 88.5 L 253 88.5 L 253.5 45 Z " /><path fill="rgb(180,180,181)" stroke="rgb(180,180,181)" stroke-width="0.6" opacity="1" d="M 360.5 177 L 365.5 183 L 360.5 177 Z " /><path fill="rgb(180,180,181)" stroke="rgb(180,180,181)" stroke-width="0.6" opacity="1" d="M 149.5 198 L 154.5 204 L 149.5 198 Z " /><path fill="rgb(180,180,181)" stroke="rgb(180,180,181)" stroke-width="0.6" opacity="1" d="M 348.5 206 L 348 207.5 L 348 221.5 L 349 222.5 L 347 221.5 L 347 207.5 L 348.5 206 Z " /><path fill="rgb(180,180,181)" stroke="rgb(180,180,181)" stroke-width="0.6" opacity="1" d="M 105.5 222 L 163 222.5 L 105.5 223 L 105.5 222 Z " /><path fill="rgb(180,180,181)" stroke="rgb(180,180,181)" stroke-width="0.6" opacity="1" d="M 351.5 222 L 409 222.5 L 351.5 223 L 351.5 222 Z " /><path fill="rgb(180,180,181)" stroke="rgb(180,180,181)" stroke-width="0.6" opacity="1" d="M 268 223 L 282.5 223 L 283 226 L 267 225.5 L 268 223 Z " /><path fill="rgb(180,180,181)" stroke="rgb(180,180,181)" stroke-width="0.6" opacity="1" d="M 411.5 223 L 421.5 234 L 411.5 223 Z " /><path fill="rgb(180,180,181)" stroke="rgb(180,180,181)" stroke-width="0.6" opacity="1" d="M 427.5 240 L 433.5 247 L 427.5 240 Z " /><path fill="rgb(180,180,181)" stroke="rgb(180,180,181)" stroke-width="0.6" opacity="1" d="M 79.5 248 L 71.5 257 L 79.5 248 Z " /><path fill="rgb(180,180,181)" stroke="rgb(180,180,181)" stroke-width="0.6" opacity="1" d="M 437.5 251 L 442.5 257 L 437.5 251 Z " /><path fill="rgb(180,180,181)" stroke="rgb(180,180,181)" stroke-width="0.6" opacity="1" d="M 437.5 282 L 447 282.5 L 437.5 283 L 436 284.5 L 435.5 302 L 435 284.5 L 437.5 282 Z " /><path fill="rgb(180,180,181)" stroke="rgb(180,180,181)" stroke-width="0.6" opacity="1" d="M 78.5 309 L 79 334.5 L 78 334.5 L 78.5 309 Z " /><path fill="rgb(180,180,181)" stroke="rgb(180,180,181)" stroke-width="0.6" opacity="1" d="M 434.5 345 L 435 400.5 L 436 401.5 L 434 400.5 L 434.5 345 Z " /><path fill="rgb(180,180,181)" stroke="rgb(180,180,181)" stroke-width="0.6" opacity="1" d="M 79.5 357 L 80 391.5 L 79 391.5 L 79.5 357 Z " /><path fill="rgb(180,180,181)" stroke="rgb(180,180,181)" stroke-width="0.6" opacity="1" d="M 39.5 470 L 42.5 473 L 92 473.5 L 42.5 474 L 39.5 470 Z " /><path fill="rgb(180,180,181)" stroke="rgb(180,180,181)" stroke-width="0.6" opacity="1" d="M 470.5 472 L 469.5 474 L 458 473.5 L 470.5 472 Z " /><path fill="rgb(180,180,181)" stroke="rgb(180,180,181)" stroke-width="0.6" opacity="1" d="M 115.5 473 L 171 473.5 L 115.5 474 L 115.5 473 Z " /><path fill="rgb(180,180,181)" stroke="rgb(180,180,181)" stroke-width="0.6" opacity="1" d="M 341.5 473 L 423 473.5 L 341.5 474 L 341.5 473 Z " /><path fill="rgb(180,180,181)" stroke="rgb(180,180,181)" stroke-width="0.6" opacity="1" d="M 175.5 474 L 229 474.5 L 175.5 475 L 175.5 474 Z " /><path fill="rgb(180,180,181)" stroke="rgb(180,180,181)" stroke-width="0.6" opacity="1" d="M 241.5 474 L 276 474.5 L 241.5 475 L 241.5 474 Z " /><path fill="rgb(180,180,181)" stroke="rgb(180,180,181)" stroke-width="0.6" opacity="1" d="M 292.5 474 L 321 474.5 L 292.5 475 L 292.5 474 Z " /><path fill="rgb(213,214,214)" stroke="rgb(213,214,214)" stroke-width="0.6" opacity="1" d="M 327.5 52 Q 333.3 51.3 334 55.5 L 330.5 53 L 326.5 54 L 327.5 52 Z " /><path fill="rgb(213,214,214)" stroke="rgb(213,214,214)" stroke-width="0.6" opacity="1" d="M 329.5 69 L 332 77.5 L 331 77.5 Q 327.9 74.5 329.5 69 Z " /><path fill="rgb(213,214,214)" stroke="rgb(213,214,214)" stroke-width="0.6" opacity="1" d="M 332.5 79 L 333 83.5 L 328 87.5 Q 332.9 85.9 332.5 79 Z " /><path fill="rgb(213,214,214)" stroke="rgb(213,214,214)" stroke-width="0.6" opacity="1" d="M 152.5 177 L 147 183.5 L 146.5 185 L 146 183.5 L 152.5 177 Z " /><path fill="rgb(213,214,214)" stroke="rgb(213,214,214)" stroke-width="0.6" opacity="1" d="M 163.5 206 L 166 207.5 L 166 221.5 L 164.5 223 L 163 222.5 L 165 222 L 165 208.5 L 163.5 206 Z " /><path fill="rgb(213,214,214)" stroke="rgb(213,214,214)" stroke-width="0.6" opacity="1" d="M 101.5 223 L 92.5 233 L 101.5 223 Z " /><path fill="rgb(213,214,214)" stroke="rgb(213,214,214)" stroke-width="0.6" opacity="1" d="M 422.5 234 L 427.5 240 L 422.5 234 Z " /><path fill="rgb(213,214,214)" stroke="rgb(213,214,214)" stroke-width="0.6" opacity="1" d="M 70.5 257 L 65.5 263 L 70.5 257 Z " /><path fill="rgb(213,214,214)" stroke="rgb(213,214,214)" stroke-width="0.6" opacity="1" d="M 68.5 283 Q 77 281 79 285.5 L 78.5 287 L 76.5 284 L 68.5 284 L 68.5 283 Z " /><path fill="rgb(213,214,214)" stroke="rgb(213,214,214)" stroke-width="0.6" opacity="1" d="M 78.5 292 L 79 308.5 L 78 308.5 L 78.5 292 Z " /><path fill="rgb(213,214,214)" stroke="rgb(213,214,214)" stroke-width="0.6" opacity="1" d="M 435.5 302 L 436 350.5 L 435 350.5 L 435.5 302 Z " /><path fill="rgb(213,214,214)" stroke="rgb(213,214,214)" stroke-width="0.6" opacity="1" d="M 78.5 335 L 79 398 L 77 397.5 L 78 396.5 L 78.5 335 Z " /><path fill="rgb(213,214,214)" stroke="rgb(213,214,214)" stroke-width="0.6" opacity="1" d="M 48.5 413 L 43.5 419 L 48.5 413 Z " /><path fill="rgb(213,214,214)" stroke="rgb(213,214,214)" stroke-width="0.6" opacity="1" d="M 465.5 415 L 470.5 421 L 465.5 415 Z " /><path fill="rgb(213,214,214)" stroke="rgb(213,214,214)" stroke-width="0.6" opacity="1" d="M 423.5 473 L 458 473.5 L 423.5 474 L 423.5 473 Z " /><path fill="rgb(213,214,214)" stroke="rgb(213,214,214)" stroke-width="0.6" opacity="1" d="M 98.5 474 L 110 474.5 L 98.5 475 L 98.5 474 Z " /><path fill="rgb(213,214,214)" stroke="rgb(213,214,214)" stroke-width="0.6" opacity="1" d="M 326.5 474 L 341 474.5 L 326.5 475 L 326.5 474 Z " /><path fill="rgb(213,214,214)" stroke="rgb(213,214,214)" stroke-width="0.6" opacity="1" d="M 207.5 475 L 250 475.5 L 207.5 476 L 207.5 475 Z " /><path fill="rgb(213,214,214)" stroke="rgb(213,214,214)" stroke-width="0.6" opacity="1" d="M 263.5 475 L 297 475.5 L 263.5 476 L 263.5 475 Z " /></svg>