<svg width="627" height="627" preserveAspectRatio="xMidYMid meet" viewBox="0 0 512 512" version="1.1" xmlns="http://www.w3.org/2000/svg" ><path fill="rgb(255,255,255)" stroke="rgb(255,255,255)" stroke-width="0" opacity="1" d="M 0 0 L 512 0 L 512 512 L 0 512 L 0 0 Z M 208 146 L 191 154 Q 185 156 184 163 L 186 170 L 192 173 L 199 172 L 225 210 L 226 211 L 156 201 L 145 198 L 130 196 L 103 189 L 81 180 Q 69 173 61 162 L 57 160 Q 49 159 46 162 L 40 170 L 38 178 L 37 192 L 36 193 L 36 207 L 35 208 L 36 230 L 39 246 Q 44 265 55 279 Q 67 293 85 303 L 113 316 L 140 325 L 175 334 L 221 343 L 227 343 L 255 348 L 262 348 L 263 349 L 270 349 L 271 350 L 305 352 L 306 355 Q 312 362 322 365 L 334 364 Q 345 360 353 352 L 365 352 L 366 351 L 379 351 L 380 350 L 397 349 L 428 342 Q 442 336 454 327 Q 464 318 470 304 L 475 284 L 475 253 L 472 239 L 469 232 Q 467 226 461 225 Q 454 224 451 227 Q 444 232 442 241 L 438 243 L 412 242 L 375 235 L 370 235 L 364 233 L 359 233 L 353 231 L 342 230 L 336 228 L 300 223 L 294 221 L 281 220 L 261 216 L 254 216 L 214 164 Q 213 161 216 162 L 219 157 L 218 151 Q 216 145 208 146 Z " /><path fill="rgb(255,255,255)" stroke="rgb(255,255,255)" stroke-width="0" opacity="1" d="M 207.5 151 Q 212 150 213 152.5 L 212 159 L 206.5 160 L 197.5 167 L 192.5 168 Q 189 167 190 161.5 Q 197.1 154.6 207.5 151 Z " /><path fill="rgb(255,255,255)" stroke="rgb(255,255,255)" stroke-width="0" opacity="1" d="M 206.5 164 Q 210.5 163.5 211 166.5 L 277 256.5 L 283.5 263 L 309.5 277 L 329 295.5 L 347 319.5 L 353 329.5 L 355 338.5 Q 353.4 345.4 348.5 349 L 332.5 359 L 322.5 360 Q 313.2 356.8 308 349.5 L 287 320.5 L 280 306.5 L 275 287.5 L 274 272.5 L 271 264.5 L 212 183.5 L 202 167.5 L 206.5 164 Z M 287 278 L 290 286 L 329 340 L 334 343 L 332 338 L 289 280 Q 290 277 287 278 Z " /><path fill="rgb(255,255,255)" stroke="rgb(255,255,255)" stroke-width="0" opacity="1" d="M 51.5 165 L 58.5 167 Q 67.5 178.6 80.5 186 L 107.5 196 L 147.5 205 L 230.5 217 L 234 220.5 L 236 223.5 L 229.5 224 L 216.5 221 L 196.5 219 L 195.5 218 L 176.5 216 L 136.5 209 L 107.5 202 L 78.5 191 L 68.5 190 Q 61.9 190.9 59 195.5 L 58 204.5 Q 62.8 216.2 71.5 224 Q 83.2 235.3 98.5 243 Q 122.8 255.7 151.5 264 L 173.5 270 L 212.5 278 L 218.5 278 L 240.5 282 L 257.5 283 L 258.5 284 L 270 284 L 272 293.5 L 258.5 294 L 257.5 293 L 246.5 293 L 245.5 292 L 222.5 290 L 221.5 289 L 198.5 286 L 154.5 276 L 132.5 269 Q 107.6 260.4 86.5 248 Q 71.9 239.6 61 227.5 Q 43.9 210.6 44 176.5 L 47 167 L 51.5 165 Z " /><path fill="rgb(255,255,255)" stroke="rgb(255,255,255)" stroke-width="0" opacity="1" d="M 66.5 195 L 76.5 195 L 109.5 207 L 139.5 214 L 163 217.5 L 110.5 244 Q 88.9 234.6 73 219.5 L 64 207.5 L 62 200.5 L 64.5 196 L 66.5 195 Z " /><path fill="rgb(255,255,255)" stroke="rgb(255,255,255)" stroke-width="0" opacity="1" d="M 41.5 197 L 47 214.5 Q 53.3 226.3 62.5 235 Q 74.8 246.7 90.5 255 L 110.5 265 L 146.5 278 L 181.5 287 L 201.5 290 L 207.5 292 L 213.5 292 L 235.5 296 L 243.5 296 L 244.5 297 L 268.5 298 L 273 299 L 279 316.5 Q 287.9 333.1 300 346.5 L 295.5 347 L 294.5 346 L 264.5 344 L 263.5 343 L 256.5 343 L 255.5 342 L 228.5 339 L 222.5 337 L 195.5 333 L 190.5 331 L 185.5 331 L 144.5 321 L 116.5 312 L 93.5 302 Q 74.3 292.7 61 277.5 Q 49.2 263.8 44 243.5 L 41 226.5 L 41.5 197 Z " /><path fill="rgb(255,255,255)" stroke="rgb(255,255,255)" stroke-width="0" opacity="1" d="M 170.5 219 L 194 223.5 L 135.5 254 L 116 246.5 L 170.5 219 Z " /><path fill="rgb(255,255,255)" stroke="rgb(255,255,255)" stroke-width="0" opacity="1" d="M 257.5 221 L 303.5 229 L 309.5 229 L 315.5 231 L 327.5 232 L 333.5 234 L 344.5 235 L 350.5 237 L 367.5 239 L 402.5 246 L 416.5 247 L 417.5 248 L 438 248.5 L 432.5 255 L 418.5 255 L 417.5 254 L 396.5 252 L 335.5 240 L 323.5 239 L 317.5 237 L 312.5 237 L 281.5 231 L 275.5 231 L 268.5 229 L 262.5 229 L 261 227.5 L 257.5 221 Z " /><path fill="rgb(255,255,255)" stroke="rgb(255,255,255)" stroke-width="0" opacity="1" d="M 199 223 L 201.5 224 L 239.5 229 L 241 230.5 L 267 267.5 L 268 272 L 255.5 278 L 245.5 278 L 244.5 277 L 236.5 277 L 235.5 276 L 222.5 275 L 194.5 270 L 154 259.5 L 192.5 240 L 199 234.5 L 200 225.5 L 199 223 Z " /><path fill="rgb(255,255,255)" stroke="rgb(255,255,255)" stroke-width="0" opacity="1" d="M 195.5 226 L 196 229.5 L 193.5 234 L 147.5 258 L 140 255.5 L 195.5 226 Z " /><path fill="rgb(255,255,255)" stroke="rgb(255,255,255)" stroke-width="0" opacity="1" d="M 456.5 230 Q 458.8 229.3 458 231.5 L 456 234.5 L 455 241.5 L 451 252.5 Q 445.6 263.1 436.5 270 L 422.5 278 L 402.5 285 L 371.5 291 L 333.5 294 L 326 285.5 L 329.5 284 L 347.5 284 L 348.5 283 L 367.5 282 L 402.5 275 Q 426.6 268.6 441 252.5 L 450 234.5 L 453.5 231 L 456.5 230 Z " /><path fill="rgb(255,255,255)" stroke="rgb(255,255,255)" stroke-width="0" opacity="1" d="M 462.5 232 L 467 240.5 L 470 255.5 L 470 280.5 L 467 295.5 L 460 311.5 L 446.5 326 Q 433.5 335.5 415.5 340 L 394.5 344 L 374.5 345 L 373.5 346 L 360.5 346 L 357 347 Q 359.7 343 360 335.5 L 354 321.5 L 337 298.5 L 343.5 297 L 366.5 296 L 407.5 288 L 433.5 277 L 448 264.5 L 456 251.5 L 459 239.5 L 462.5 232 Z " /><path fill="rgb(255,255,255)" stroke="rgb(255,255,255)" stroke-width="0" opacity="1" d="M 266.5 233 L 267.5 234 L 273.5 234 L 291.5 238 L 297.5 238 L 315.5 242 L 327 243 Q 328.1 245.7 325.5 245 L 289.5 261 L 283 256.5 L 266.5 233 Z " /><path fill="rgb(255,255,255)" stroke="rgb(255,255,255)" stroke-width="0" opacity="1" d="M 335.5 245 L 358 249.5 L 311.5 273 L 296 263.5 L 335.5 245 Z " /><path fill="rgb(255,255,255)" stroke="rgb(255,255,255)" stroke-width="0" opacity="1" d="M 364.5 250 L 400.5 257 L 426 259.5 L 409.5 268 L 388.5 274 L 371.5 276 L 370.5 277 L 363.5 277 L 362.5 278 L 354.5 278 L 353.5 279 L 327.5 280 L 327.5 279 L 363 261.5 Q 365.7 258.2 365 251.5 L 364.5 250 Z " /><path fill="rgb(255,255,255)" stroke="rgb(255,255,255)" stroke-width="0" opacity="1" d="M 358.5 253 Q 361.9 252.1 360 257.5 L 357.5 260 L 331.5 273 L 320.5 278 L 317.5 278 L 315 274 L 358.5 253 Z " /><path fill="rgb(255,255,255)" stroke="rgb(255,255,255)" stroke-width="0" opacity="1" d="M 267.5 276 Q 270.1 275.2 269 278.5 L 269.5 280 L 262 279.5 L 267.5 276 Z " /><path fill="rgb(0,0,0)" stroke="rgb(0,0,0)" stroke-width="0" opacity="1" d="M 207.5 146 Q 216.1 144.9 218 150.5 L 219 156.5 L 215.5 162 Q 213.3 161.3 214 163.5 L 253.5 216 L 260.5 216 L 280.5 220 L 293.5 221 L 299.5 223 L 335.5 228 L 341.5 230 L 352.5 231 L 358.5 233 L 363.5 233 L 369.5 235 L 374.5 235 L 411.5 242 L 437.5 243 L 442 240.5 Q 444.1 231.6 450.5 227 Q 453.5 224 460.5 225 Q 466.6 226.4 469 231.5 L 472 238.5 L 475 252.5 L 475 283.5 L 470 303.5 Q 464.3 317.8 453.5 327 Q 442.4 336.4 427.5 342 L 396.5 349 L 379.5 350 L 378.5 351 L 365.5 351 L 364.5 352 L 352.5 352 Q 344.6 359.6 333.5 364 L 321.5 365 Q 311.6 361.9 306 354.5 L 304.5 352 L 270.5 350 L 269.5 349 L 262.5 349 L 261.5 348 L 254.5 348 L 226.5 343 L 220.5 343 L 174.5 334 L 139.5 325 L 112.5 316 L 84.5 303 Q 67.1 293.4 55 278.5 Q 44 265 39 245.5 L 36 229.5 L 35 207.5 L 36 206.5 L 36 192.5 L 37 191.5 L 38 177.5 L 40 169.5 L 45.5 162 Q 48.8 158.8 56.5 160 L 60.5 162 Q 68.6 172.9 80.5 180 L 102.5 189 L 129.5 196 L 144.5 198 L 155.5 201 L 225.5 211 L 225 209.5 L 199 172 L 191.5 173 L 186 169.5 L 184 162.5 Q 185.4 156.4 190.5 154 L 207.5 146 Z M 208 151 Q 197 155 190 162 Q 189 167 193 168 L 198 167 L 207 160 L 212 159 L 213 153 Q 212 150 208 151 Z M 207 164 L 202 168 L 212 184 L 271 265 L 274 273 L 275 288 L 280 307 L 287 321 L 308 350 Q 313 357 323 360 L 333 359 L 349 349 Q 353 345 355 339 L 353 330 L 347 320 L 329 296 L 310 277 L 284 263 L 277 257 L 211 167 Q 210 164 207 164 Z M 52 165 L 47 167 L 44 177 Q 44 211 61 228 Q 72 240 87 248 Q 108 260 133 269 L 155 276 L 199 286 L 222 289 L 223 290 L 246 292 L 247 293 L 258 293 L 259 294 L 272 294 L 270 284 L 259 284 L 258 283 L 241 282 L 219 278 L 213 278 L 174 270 L 152 264 Q 123 256 99 243 Q 83 235 72 224 Q 63 216 58 205 L 59 196 Q 62 191 69 190 L 79 191 L 108 202 L 137 209 L 177 216 L 196 218 L 197 219 L 217 221 L 230 224 L 236 224 L 234 221 L 231 217 L 148 205 L 108 196 L 81 186 Q 67 179 59 167 L 52 165 Z M 67 195 L 65 196 L 62 201 L 64 208 L 73 220 Q 89 235 111 244 L 163 218 L 140 214 L 110 207 L 77 195 L 67 195 Z M 42 197 L 41 227 L 44 244 Q 49 264 61 278 Q 74 293 94 302 L 117 312 L 145 321 L 186 331 L 191 331 L 196 333 L 223 337 L 229 339 L 256 342 L 257 343 L 264 343 L 265 344 L 295 346 L 296 347 L 300 347 Q 288 333 279 317 L 273 299 L 269 298 L 245 297 L 244 296 L 236 296 L 214 292 L 208 292 L 202 290 L 182 287 L 147 278 L 111 265 L 91 255 Q 75 247 63 235 Q 53 226 47 215 L 42 197 Z M 171 219 L 116 247 L 136 254 L 194 224 L 171 219 Z M 259 222 L 261 228 L 263 229 L 269 229 L 276 231 L 282 231 L 313 237 L 318 237 L 324 239 L 336 240 L 397 252 L 418 254 L 419 255 L 433 255 L 438 249 L 418 248 L 417 247 L 403 246 L 368 239 L 351 237 L 345 235 L 334 234 L 328 232 L 316 231 L 310 229 L 304 229 L 265 222 L 259 222 Z M 199 223 L 200 226 L 199 235 L 193 240 L 154 260 L 195 270 L 223 275 L 236 276 L 237 277 L 245 277 L 246 278 L 256 278 L 268 272 L 267 268 L 241 231 L 240 229 L 202 224 L 199 223 Z M 196 226 L 140 256 L 148 258 L 194 234 L 196 230 L 196 226 Z M 457 230 L 454 231 L 450 235 L 441 253 Q 427 269 403 275 L 368 282 L 349 283 L 348 284 L 330 284 L 326 286 L 334 294 L 372 291 L 403 285 L 423 278 L 437 270 Q 446 263 451 253 L 455 242 L 456 235 L 458 232 Q 459 229 457 230 Z M 463 232 L 459 240 L 456 252 L 448 265 L 434 277 L 408 288 L 367 296 L 344 297 L 337 299 L 354 322 L 360 336 Q 360 343 357 347 L 361 346 L 374 346 L 375 345 L 395 344 L 416 340 Q 433 335 447 326 L 460 312 L 467 296 L 470 281 L 470 256 L 467 241 L 463 232 Z M 268 234 L 268 237 L 283 257 L 290 261 L 326 245 Q 328 246 327 243 L 316 242 L 298 238 L 292 238 L 274 234 L 268 234 Z M 336 245 L 296 264 L 312 273 L 358 250 L 336 245 Z M 365 250 L 365 252 Q 366 258 363 262 L 328 279 L 328 280 L 354 279 L 355 278 L 363 278 L 364 277 L 371 277 L 372 276 L 389 274 L 410 268 L 426 260 L 401 257 L 365 250 Z M 359 253 L 315 274 L 318 278 L 321 278 L 332 273 L 358 260 L 360 258 Q 362 252 359 253 Z M 268 276 L 262 280 L 270 280 L 269 279 Q 270 275 268 276 Z " /><path fill="rgb(0,0,0)" stroke="rgb(0,0,0)" stroke-width="0" opacity="1" d="M 287 278 Q 289.7 276.9 289 279.5 L 332 337.5 L 334 343 L 329 339.5 L 290 285.5 L 287 278 Z " /></svg>