<svg width="627" height="627" preserveAspectRatio="xMidYMid meet" viewBox="0 0 512 512" version="1.1" xmlns="http://www.w3.org/2000/svg" ><path fill="rgb(255,255,255)" stroke="rgb(255,255,255)" stroke-width="0" opacity="1" d="M 0 0 L 512 0 L 512 512 L 0 512 L 0 0 Z M 242 64 L 240 65 L 234 73 Q 233 78 236 81 L 236 94 Q 204 126 175 162 Q 150 192 130 228 Q 116 253 105 282 L 96 312 L 92 334 Q 91 339 95 340 L 100 340 L 121 333 L 144 329 L 153 329 L 154 328 L 188 328 L 189 329 L 198 329 L 227 334 L 232 336 L 236 336 L 236 347 L 218 350 L 207 359 L 174 357 L 173 356 L 163 356 L 153 354 L 145 354 L 144 353 L 136 353 L 135 352 L 128 352 L 106 348 L 100 348 L 93 346 L 87 346 L 86 345 L 74 345 L 72 346 L 68 351 L 69 363 L 76 385 Q 85 407 100 424 L 110 432 L 118 436 L 130 439 L 148 441 L 149 442 L 156 442 L 157 443 L 177 444 L 178 445 L 206 446 L 207 447 L 229 447 L 230 448 L 288 448 L 289 447 L 325 446 L 326 445 L 346 444 L 347 443 L 355 443 L 356 442 L 384 439 L 415 433 L 423 430 Q 430 424 434 414 L 441 390 L 444 373 L 443 367 L 437 362 L 398 354 L 331 358 L 328 353 L 323 347 L 314 345 L 256 346 L 255 347 L 254 332 L 295 332 L 296 331 L 373 331 L 374 330 L 413 330 L 415 329 Q 420 327 418 318 L 414 313 L 412 313 L 410 313 L 396 273 L 377 235 Q 352 191 319 157 Q 294 130 265 109 L 277 107 Q 288 100 303 97 L 305 94 L 304 90 L 295 83 L 279 82 L 265 77 L 255 76 L 254 69 Q 251 63 242 64 Z " /><path fill="rgb(255,255,255)" stroke="rgb(255,255,255)" stroke-width="0" opacity="1" d="M 244.5 69 L 250 72.5 Q 251 78 247.5 79 Q 240.5 80.5 241 77.5 L 240 72.5 L 241 70 L 244.5 69 Z " /><path fill="rgb(255,255,255)" stroke="rgb(255,255,255)" stroke-width="0" opacity="1" d="M 254 81 L 262.5 82 L 275.5 87 L 291.5 88 L 299 92.5 L 291.5 94 L 270.5 103 L 254 103 L 254 81 Z " /><path fill="rgb(255,255,255)" stroke="rgb(255,255,255)" stroke-width="0" opacity="1" d="M 248.5 82 L 249 372 L 241 371 L 241 83.5 Q 241.3 82.3 247.5 83 L 248.5 82 Z " /><path fill="rgb(255,255,255)" stroke="rgb(255,255,255)" stroke-width="0" opacity="1" d="M 234.5 103 L 234 104.5 L 226 133.5 L 221 161.5 L 221 168.5 L 220 169.5 L 219 190.5 L 218 191.5 L 218 243.5 L 219 244.5 L 219 256.5 L 220 257.5 L 220 265.5 L 221 266.5 L 224 290.5 L 234 330.5 L 232.5 330 L 213.5 326 L 191.5 324 L 190.5 323 L 150.5 323 L 149.5 324 L 127.5 326 L 98 334 L 101 314.5 L 110 283.5 L 123 252.5 L 138 224.5 Q 155.8 194.3 177 167.5 Q 203.9 133.4 234.5 103 Z " /><path fill="rgb(255,255,255)" stroke="rgb(255,255,255)" stroke-width="0" opacity="1" d="M 254.5 108 Q 291.1 132.9 320 165.5 Q 350.1 198.4 373 238.5 L 393 279.5 L 402 305.5 L 403 313 L 369.5 313 L 368.5 314 L 315.5 314 L 314.5 315 L 262.5 315 L 261.5 316 L 254 316 L 254.5 108 Z " /><path fill="rgb(255,255,255)" stroke="rgb(255,255,255)" stroke-width="0" opacity="1" d="M 235.5 120 L 236 315.5 L 235 315.5 L 228 282.5 L 226 261.5 L 225 260.5 L 224 237.5 L 223 236.5 L 223 198.5 L 224 197.5 L 224 184.5 L 225 183.5 L 225 174.5 L 226 173.5 L 228 151.5 L 235.5 120 Z " /><path fill="rgb(255,255,255)" stroke="rgb(255,255,255)" stroke-width="0" opacity="1" d="M 356.5 318 L 411.5 318 L 413 319.5 Q 413.8 324.3 410.5 325 L 271.5 326 L 270.5 327 L 268.5 327 L 254 327 L 254 320 L 285.5 320 L 286.5 319 L 355.5 319 L 356.5 318 Z " /><path fill="rgb(255,255,255)" stroke="rgb(255,255,255)" stroke-width="0" opacity="1" d="M 75 350 L 83.5 350 L 84.5 351 L 90.5 351 L 103.5 354 L 110.5 354 L 117.5 356 L 139.5 358 L 140.5 359 L 149.5 359 L 150.5 360 L 159.5 360 L 170.5 362 L 181.5 362 L 182.5 363 L 196.5 363 L 205 364.5 L 204 368.5 L 209.5 372 L 214.5 373 L 227.5 374 L 228.5 375 L 238.5 375 L 239.5 376 L 253.5 376 L 254.5 377 L 340.5 377 L 341.5 376 L 358.5 376 L 359.5 375 L 372.5 375 L 373.5 374 L 407.5 372 L 408.5 371 L 424.5 370 L 435.5 367 Q 440 369 436.5 371 L 418.5 373 L 417.5 374 L 410.5 374 L 409.5 375 L 377.5 377 L 376.5 378 L 364.5 378 L 363.5 379 L 313.5 380 L 312.5 381 L 270.5 381 L 269.5 380 L 226.5 379 L 225.5 378 L 193.5 376 L 192.5 375 L 176.5 374 L 161.5 371 L 154.5 371 L 102.5 361 L 78.5 354 L 75 351.5 L 75 350 Z " /><path fill="rgb(255,255,255)" stroke="rgb(255,255,255)" stroke-width="0" opacity="1" d="M 259.5 351 L 318.5 351 L 323 354.5 L 326 361.5 L 327 373 L 320 373 L 320 366.5 L 319 362.5 L 314.5 358 L 287.5 358 L 281 362.5 L 280 373 L 260.5 373 L 254 372 L 254 352.5 Q 254 351.5 258.5 352 L 259.5 351 Z " /><path fill="rgb(255,255,255)" stroke="rgb(255,255,255)" stroke-width="0" opacity="1" d="M 226.5 353 L 236 353 L 236 371 L 215.5 369 L 209 366.5 L 215.5 357 L 226.5 353 Z " /><path fill="rgb(255,255,255)" stroke="rgb(255,255,255)" stroke-width="0" opacity="1" d="M 74.5 356 L 85.5 361 L 113.5 368 L 123.5 369 L 145.5 374 L 151.5 374 L 172.5 378 L 188.5 379 L 189.5 380 L 221.5 382 L 222.5 383 L 234.5 383 L 235.5 384 L 254.5 384 L 255.5 385 L 332.5 385 L 333.5 384 L 353.5 384 L 354.5 383 L 370.5 383 L 371.5 382 L 394.5 381 L 395.5 380 L 403.5 380 L 413.5 378 L 422.5 378 L 438 375 L 434 395 L 418.5 398 L 388.5 401 L 387.5 402 L 355.5 404 L 354.5 405 L 342.5 405 L 341.5 406 L 321.5 406 L 320.5 407 L 243.5 407 L 242.5 406 L 223.5 406 L 222.5 405 L 211.5 405 L 210.5 404 L 180.5 402 L 179.5 401 L 140.5 396 L 103.5 388 L 86.5 383 L 80 379.5 L 74 360.5 L 74.5 356 Z " /><path fill="rgb(255,255,255)" stroke="rgb(255,255,255)" stroke-width="0" opacity="1" d="M 389.5 359 Q 392.8 357.9 392 360.5 Q 388.8 363 390 369 L 383.5 369 L 382.5 370 L 370.5 370 L 369.5 371 L 332 372 Q 332.9 365.8 331 363 L 338.5 363 L 339.5 362 L 373.5 361 L 374.5 360 L 388.5 360 L 389.5 359 Z " /><path fill="rgb(255,255,255)" stroke="rgb(255,255,255)" stroke-width="0" opacity="1" d="M 396.5 360 L 422.5 364 L 425 365.5 L 406.5 367 L 405.5 368 L 396.5 368 L 394 369 L 395 361.5 L 396.5 360 Z " /><path fill="rgb(255,255,255)" stroke="rgb(255,255,255)" stroke-width="0" opacity="1" d="M 292.5 362 L 312.5 362 L 315 364.5 L 316 373 L 284.5 373 Q 283.3 372.8 284 366.5 L 286.5 363 Q 291.3 364.2 292.5 362 Z " /><path fill="rgb(255,255,255)" stroke="rgb(255,255,255)" stroke-width="0" opacity="1" d="M 83.5 386 L 114.5 395 L 171.5 405 L 207.5 408 L 208.5 409 L 220.5 409 L 221.5 410 L 288.5 412 L 289.5 411 L 325.5 411 L 326.5 410 L 358.5 409 L 359.5 408 L 369.5 408 L 370.5 407 L 398.5 405 L 399.5 404 L 432 400 Q 429.8 414.5 421.5 424 L 418.5 426 L 403.5 430 L 398.5 430 L 374.5 435 L 360.5 436 L 359.5 437 L 342.5 438 L 341.5 439 L 330.5 439 L 329.5 440 L 318.5 440 L 317.5 441 L 302.5 441 L 301.5 442 L 242.5 443 L 241.5 442 L 214.5 442 L 213.5 441 L 183.5 440 L 182.5 439 L 171.5 439 L 170.5 438 L 161.5 438 L 160.5 437 L 152.5 437 L 151.5 436 L 131.5 434 L 114.5 429 L 101 416.5 Q 89.5 402.9 83.5 386 Z " /><path fill="rgb(0,0,0)" stroke="rgb(0,0,0)" stroke-width="0" opacity="1" d="M 241.5 64 Q 251.2 62.8 254 68.5 L 255 76 L 264.5 77 L 278.5 82 L 294.5 83 L 304 89.5 L 305 93.5 L 302.5 97 Q 287.5 100 276.5 107 L 265 108.5 Q 294.5 130 319 156.5 Q 352.1 191.4 377 234.5 L 396 272.5 L 409.5 313 L 411.5 313 L 413.5 313 L 418 317.5 Q 419.5 326.5 414.5 329 L 412.5 330 L 373.5 330 L 372.5 331 L 295.5 331 L 294.5 332 L 254 332 L 254.5 347 L 255.5 346 L 313.5 345 L 322.5 347 L 328 352.5 L 330.5 358 L 397.5 354 L 436.5 362 L 443 366.5 L 444 372.5 L 441 389.5 L 434 413.5 Q 430.3 423.8 422.5 430 L 414.5 433 L 383.5 439 L 355.5 442 L 354.5 443 L 346.5 443 L 345.5 444 L 325.5 445 L 324.5 446 L 288.5 447 L 287.5 448 L 229.5 448 L 228.5 447 L 206.5 447 L 205.5 446 L 177.5 445 L 176.5 444 L 156.5 443 L 155.5 442 L 148.5 442 L 147.5 441 L 129.5 439 L 117.5 436 L 109.5 432 L 100 423.5 Q 85.4 406.6 76 384.5 L 69 362.5 L 68 350.5 L 71.5 346 L 73.5 345 L 85.5 345 L 86.5 346 L 92.5 346 L 99.5 348 L 105.5 348 L 127.5 352 L 134.5 352 L 135.5 353 L 143.5 353 L 144.5 354 L 152.5 354 L 162.5 356 L 172.5 356 L 173.5 357 L 206.5 359 L 217.5 350 L 236 347 L 236 336 L 231.5 336 L 226.5 334 L 197.5 329 L 188.5 329 L 187.5 328 L 153.5 328 L 152.5 329 L 143.5 329 L 120.5 333 L 99.5 340 L 94.5 340 Q 91.4 338.6 92 333.5 L 96 311.5 L 105 281.5 Q 115.6 252.6 130 227.5 Q 150.3 192.3 175 161.5 Q 203.7 125.7 236 93.5 L 236 80.5 Q 233.3 78.2 234 72.5 L 239.5 65 L 241.5 64 Z M 245 69 L 241 70 L 240 73 L 241 78 Q 240 81 248 79 Q 251 78 250 73 L 245 69 Z M 254 81 L 254 103 L 271 103 L 292 94 L 299 93 L 292 88 L 276 87 L 263 82 L 254 81 Z M 249 82 L 248 83 Q 241 82 241 84 L 241 371 L 249 372 L 249 82 Z M 234 104 Q 203 134 177 168 Q 156 194 138 225 L 123 253 L 110 284 L 101 315 L 98 334 L 128 326 L 150 324 L 151 323 L 191 323 L 192 324 L 214 326 L 233 330 L 234 331 L 224 291 L 221 267 L 220 266 L 220 258 L 219 257 L 219 245 L 218 244 L 218 192 L 219 191 L 220 170 L 221 169 L 221 162 L 226 134 L 234 107 L 234 104 Z M 255 108 L 254 316 L 262 316 L 263 315 L 315 315 L 316 314 L 369 314 L 370 313 L 403 313 L 402 306 L 393 280 L 373 239 Q 350 198 320 166 Q 291 133 255 108 Z M 236 120 L 228 152 L 226 174 L 225 175 L 225 184 L 224 185 L 224 198 L 223 199 L 223 237 L 224 238 L 225 261 L 226 262 L 228 283 L 235 316 L 236 316 L 236 120 Z M 357 318 L 356 319 L 287 319 L 286 320 L 254 320 L 254 327 L 269 327 L 271 327 L 272 326 L 411 325 Q 414 324 413 320 L 412 318 L 357 318 Z M 75 350 L 75 352 L 79 354 L 103 361 L 155 371 L 162 371 L 177 374 L 193 375 L 194 376 L 226 378 L 227 379 L 270 380 L 271 381 L 313 381 L 314 380 L 364 379 L 365 378 L 377 378 L 378 377 L 410 375 L 411 374 L 418 374 L 419 373 L 437 371 Q 440 369 436 367 L 425 370 L 409 371 L 408 372 L 374 374 L 373 375 L 360 375 L 359 376 L 342 376 L 341 377 L 255 377 L 254 376 L 240 376 L 239 375 L 229 375 L 228 374 L 215 373 L 210 372 L 204 369 L 205 365 L 197 363 L 183 363 L 182 362 L 171 362 L 160 360 L 151 360 L 150 359 L 141 359 L 140 358 L 118 356 L 111 354 L 104 354 L 91 351 L 85 351 L 84 350 L 75 350 Z M 260 351 L 259 352 Q 254 351 254 353 L 254 372 L 261 373 L 280 373 L 281 363 L 288 358 L 315 358 L 319 363 L 320 367 L 320 373 L 327 373 L 326 362 L 323 355 L 319 351 L 260 351 Z M 227 353 L 216 357 L 209 367 L 216 369 L 236 371 L 236 353 L 227 353 Z M 75 356 L 74 361 L 80 380 L 87 383 L 104 388 L 141 396 L 180 401 L 181 402 L 211 404 L 212 405 L 223 405 L 224 406 L 243 406 L 244 407 L 321 407 L 322 406 L 342 406 L 343 405 L 355 405 L 356 404 L 388 402 L 389 401 L 419 398 L 434 395 L 438 375 L 423 378 L 414 378 L 404 380 L 396 380 L 395 381 L 372 382 L 371 383 L 355 383 L 354 384 L 334 384 L 333 385 L 256 385 L 255 384 L 236 384 L 235 383 L 223 383 L 222 382 L 190 380 L 189 379 L 173 378 L 152 374 L 146 374 L 124 369 L 114 368 L 86 361 L 75 356 Z M 390 359 L 389 360 L 375 360 L 374 361 L 340 362 L 339 363 L 331 363 Q 333 366 332 372 L 370 371 L 371 370 L 383 370 L 384 369 L 390 369 Q 389 363 392 361 Q 393 358 390 359 Z M 397 360 L 395 362 L 394 369 L 397 368 L 406 368 L 407 367 L 425 366 L 423 364 L 397 360 Z M 293 362 Q 291 364 287 363 L 284 367 Q 283 373 285 373 L 316 373 L 315 365 L 313 362 L 293 362 Z M 84 386 Q 90 403 101 417 L 115 429 L 132 434 L 152 436 L 153 437 L 161 437 L 162 438 L 171 438 L 172 439 L 183 439 L 184 440 L 214 441 L 215 442 L 242 442 L 243 443 L 302 442 L 303 441 L 318 441 L 319 440 L 330 440 L 331 439 L 342 439 L 343 438 L 360 437 L 361 436 L 375 435 L 399 430 L 404 430 L 419 426 L 422 424 Q 430 414 432 400 L 400 404 L 399 405 L 371 407 L 370 408 L 360 408 L 359 409 L 327 410 L 326 411 L 290 411 L 289 412 L 222 410 L 221 409 L 209 409 L 208 408 L 172 405 L 115 395 L 84 386 Z " /></svg>