<svg width="627" height="627" preserveAspectRatio="xMidYMid meet" viewBox="0 0 512 512" version="1.1" xmlns="http://www.w3.org/2000/svg" ><path fill="rgb(255,255,255)" stroke="rgb(255,255,255)" stroke-width="0" opacity="1" d="M 0 0 L 512 0 L 512 512 L 0 512 L 0 0 Z M 433 110 L 419 120 Q 376 161 346 215 Q 347 217 345 216 Q 329 237 319 263 L 317 186 L 319 186 L 326 184 L 328 182 L 329 178 Q 331 169 328 166 L 324 162 L 313 160 L 284 159 L 283 158 L 255 158 L 254 157 L 190 158 L 189 159 L 177 159 L 170 161 L 166 166 L 166 178 L 167 180 L 171 183 L 178 184 L 176 196 L 175 214 L 173 223 L 173 232 L 172 233 L 171 252 L 170 256 L 155 254 L 144 251 L 139 251 L 72 237 L 71 226 L 63 219 L 52 216 Q 43 215 40 218 L 36 225 L 36 258 L 37 259 L 37 270 L 38 271 L 38 278 L 42 301 L 55 342 L 69 367 L 86 382 L 107 390 L 135 395 L 142 395 L 143 396 L 171 398 L 172 399 L 184 399 L 185 400 L 201 400 L 202 401 L 287 401 L 288 400 L 306 400 L 307 399 L 338 397 L 339 396 L 346 396 L 347 395 L 377 391 L 398 386 Q 412 383 422 375 Q 435 362 443 344 L 451 320 L 457 289 L 457 276 L 456 274 L 449 268 L 417 267 L 419 264 Q 421 253 416 250 Q 412 245 404 245 L 408 236 L 419 220 L 419 222 L 426 223 Q 429 222 428 217 L 423 213 L 435 197 L 442 190 L 445 193 Q 450 194 451 190 L 448 184 L 464 169 L 469 173 L 473 170 Q 474 165 471 165 L 477 160 Q 478 155 475 154 L 468 156 L 443 175 Q 422 194 405 218 L 396 233 L 389 240 L 375 267 L 374 268 L 343 268 L 348 257 L 353 260 Q 362 262 367 258 Q 372 254 374 247 Q 375 238 371 235 Q 367 228 357 228 L 361 217 L 374 194 L 379 197 L 384 196 L 386 193 L 385 189 L 380 186 L 381 183 L 401 155 L 401 157 Q 402 160 408 159 L 411 155 L 410 152 L 406 149 L 425 128 L 425 130 L 429 132 L 434 129 L 433 123 L 431 123 L 437 117 L 437 114 L 433 110 Z " /><path fill="rgb(255,255,255)" stroke="rgb(255,255,255)" stroke-width="0" opacity="1" d="M 431.5 115 L 433 115.5 L 427.5 120 L 427 118.5 L 431.5 115 Z " /><path fill="rgb(255,255,255)" stroke="rgb(255,255,255)" stroke-width="0" opacity="1" d="M 423.5 121 L 425 122.5 L 410 137.5 L 401.5 148 L 400 145.5 L 423.5 121 Z " /><path fill="rgb(255,255,255)" stroke="rgb(255,255,255)" stroke-width="0" opacity="1" d="M 427.5 125 L 431 126.5 L 428 128 L 427.5 125 Z " /><path fill="rgb(255,255,255)" stroke="rgb(255,255,255)" stroke-width="0" opacity="1" d="M 396.5 149 Q 400.3 147.8 399 151.5 L 374.5 185 L 371 182.5 L 396.5 149 Z " /><path fill="rgb(255,255,255)" stroke="rgb(255,255,255)" stroke-width="0" opacity="1" d="M 403 152 L 407 153.5 L 405.5 156 L 403 152 Z " /><path fill="rgb(255,255,255)" stroke="rgb(255,255,255)" stroke-width="0" opacity="1" d="M 471.5 158 L 473 158.5 L 468.5 161 L 468.5 160 L 471.5 158 Z " /><path fill="rgb(255,255,255)" stroke="rgb(255,255,255)" stroke-width="0" opacity="1" d="M 222.5 162 L 300.5 164 L 301.5 165 L 318.5 166 L 324 168.5 Q 325.1 176.7 323 180 L 314.5 181 L 313.5 180 L 282.5 180 L 281.5 179 L 174.5 179 L 171 176.5 L 171 166.5 L 172.5 165 L 188.5 164 L 189.5 163 L 221.5 163 L 222.5 162 Z " /><path fill="rgb(255,255,255)" stroke="rgb(255,255,255)" stroke-width="0" opacity="1" d="M 464.5 163 L 461.5 167 L 443 182 L 449.5 174 L 464.5 163 Z " /><path fill="rgb(255,255,255)" stroke="rgb(255,255,255)" stroke-width="0" opacity="1" d="M 468.5 166 L 470 169 L 467 167.5 L 468.5 166 Z " /><path fill="rgb(255,255,255)" stroke="rgb(255,255,255)" stroke-width="0" opacity="1" d="M 183 183 L 291.5 184 L 292.5 185 L 312 185 L 312 251.5 L 313 252.5 L 313 284 L 243.5 281 L 242.5 280 L 233.5 280 L 232.5 279 L 223.5 279 L 222.5 278 L 200.5 276 L 193.5 274 L 175.5 272 L 174 270.5 L 174 262.5 L 175 261.5 L 175 253.5 L 177 243.5 L 177 232.5 L 178 231.5 L 178 223.5 L 179 222.5 L 179 214.5 L 180 213.5 L 180 205.5 L 181 204.5 L 181 196.5 L 182 195.5 Q 181.3 187.5 183 183 Z M 196 195 L 192 197 L 188 203 L 186 227 L 185 228 L 185 239 L 184 240 Q 183 246 186 249 L 191 252 L 196 253 L 216 253 L 217 254 Q 227 256 233 253 Q 237 250 238 245 L 239 214 L 240 213 L 239 201 L 232 195 L 196 195 Z M 256 196 L 253 197 L 248 205 L 248 222 L 247 223 L 247 247 L 249 251 L 255 254 L 291 254 L 293 253 L 297 247 L 297 203 L 296 201 L 290 196 L 256 196 Z " /><path fill="rgb(255,255,255)" stroke="rgb(255,255,255)" stroke-width="0" opacity="1" d="M 439.5 183 L 441 185.5 Q 428.6 196.6 419.5 211 L 416 209.5 L 439.5 183 Z " /><path fill="rgb(255,255,255)" stroke="rgb(255,255,255)" stroke-width="0" opacity="1" d="M 368 186 Q 371.8 185.3 373 188.5 L 354.5 220 L 350 218 L 353 210.5 L 368 186 Z " /><path fill="rgb(255,255,255)" stroke="rgb(255,255,255)" stroke-width="0" opacity="1" d="M 445.5 186 L 447 190 Q 444.3 191.1 445 188.5 Q 442.8 187.3 445.5 186 Z " /><path fill="rgb(255,255,255)" stroke="rgb(255,255,255)" stroke-width="0" opacity="1" d="M 377 189 L 382 190 Q 383.7 194.1 379.5 193 L 377 189 Z " /><path fill="rgb(255,255,255)" stroke="rgb(255,255,255)" stroke-width="0" opacity="1" d="M 196.5 199 L 230.5 199 L 235 202.5 L 234 242.5 L 233 246.5 L 230.5 249 L 199.5 249 Q 197.8 246.2 191.5 248 L 189 245.5 L 189 230.5 L 190 229.5 L 191 210.5 Q 193.5 209 192 203.5 L 194.5 200 L 196.5 199 Z M 202 202 L 199 203 L 195 208 L 194 223 L 193 224 L 193 237 L 192 238 L 194 244 L 207 246 L 226 246 L 228 245 L 230 242 L 231 220 L 232 219 L 232 208 L 231 206 L 228 203 Q 223 204 222 202 L 202 202 Z " /><path fill="rgb(255,255,255)" stroke="rgb(255,255,255)" stroke-width="0" opacity="1" d="M 255.5 200 L 288.5 200 L 292 202.5 L 293 204.5 L 293 245.5 L 290.5 249 L 288.5 250 L 255.5 250 L 252 247.5 Q 249.5 242 251 232.5 L 252 231.5 L 252 205.5 L 255.5 200 Z M 261 203 L 259 204 L 256 208 Q 258 214 255 216 L 255 243 L 256 245 L 261 247 L 285 247 L 287 246 L 289 243 L 289 232 L 290 231 L 290 212 L 288 205 L 281 203 L 261 203 Z " /><path fill="rgb(255,255,255)" stroke="rgb(255,255,255)" stroke-width="0" opacity="1" d="M 201.5 206 L 223.5 206 L 228 208.5 L 227 234.5 Q 224.8 235.8 226 240.5 L 224.5 242 L 201.5 242 L 196 239.5 L 198 214.5 Q 200.3 213.3 199 208.5 L 201.5 206 Z " /><path fill="rgb(255,255,255)" stroke="rgb(255,255,255)" stroke-width="0" opacity="1" d="M 261.5 207 L 282.5 207 L 285 208 L 286 210.5 L 286 231.5 L 285 234.5 L 285 236.5 Q 286.3 241.8 283.5 243 L 260.5 243 L 259 241.5 L 259 212.5 L 261.5 207 Z " /><path fill="rgb(255,255,255)" stroke="rgb(255,255,255)" stroke-width="0" opacity="1" d="M 414.5 212 L 417 215.5 Q 408 225.4 403 238 L 398 235.5 L 414.5 212 Z " /><path fill="rgb(255,255,255)" stroke="rgb(255,255,255)" stroke-width="0" opacity="1" d="M 421 216 L 425 218.5 L 422.5 220 L 421 216 Z " /><path fill="rgb(255,255,255)" stroke="rgb(255,255,255)" stroke-width="0" opacity="1" d="M 346.5 220 L 353 223.5 Q 353.7 229.7 349.5 231 L 345 234.5 Q 340.7 239.7 342 250.5 L 325.5 284 Q 318.7 285.8 317 282.5 L 318 272.5 Q 330.4 244.4 346.5 220 Z " /><path fill="rgb(255,255,255)" stroke="rgb(255,255,255)" stroke-width="0" opacity="1" d="M 44.5 221 L 50.5 221 L 58.5 223 L 66 227.5 L 67 236.5 L 65.5 236 L 52.5 236 L 49 238.5 L 48 240.5 L 48 251.5 L 49 252.5 L 49 263.5 L 50 264.5 L 50 271.5 L 54 293.5 L 65 330.5 Q 75.4 359.1 94 379.5 L 92.5 379 Q 81.2 374.8 75 365.5 L 64 348.5 L 57 332.5 L 47 298.5 L 43 275.5 L 43 268.5 L 42 267.5 L 42 256.5 L 41 255.5 L 41 225.5 L 44.5 221 Z " /><path fill="rgb(255,255,255)" stroke="rgb(255,255,255)" stroke-width="0" opacity="1" d="M 355.5 232 Q 360.8 230.8 362 233.5 L 353.5 237 L 351 239.5 L 350 246.5 L 354 251.5 L 350.5 254 Q 345.5 250.5 346 241.5 L 351.5 234 L 355.5 232 Z " /><path fill="rgb(255,255,255)" stroke="rgb(255,255,255)" stroke-width="0" opacity="1" d="M 363.5 234 L 368 237.5 Q 370.3 240.7 369 247.5 L 364.5 254 Q 361.6 256.6 355.5 256 L 356 254.5 L 357.5 252 Q 364 253 365 248.5 L 366 241.5 L 362 235.5 L 363.5 234 Z " /><path fill="rgb(255,255,255)" stroke="rgb(255,255,255)" stroke-width="0" opacity="1" d="M 357.5 239 Q 361.5 238.5 362 241.5 Q 363.3 247.8 359.5 249 Q 354.8 249.8 354 246.5 L 353 243.5 L 355.5 240 L 357.5 239 Z " /><path fill="rgb(255,255,255)" stroke="rgb(255,255,255)" stroke-width="0" opacity="1" d="M 394 239 L 397.5 239 L 401 241 L 398.5 247 L 393 251.5 Q 389.7 255.2 391 263.5 L 381.5 282 L 372 283 Q 381.3 259.3 394 239 Z " /><path fill="rgb(255,255,255)" stroke="rgb(255,255,255)" stroke-width="0" opacity="1" d="M 59.5 240 L 69.5 241 L 74.5 243 L 93.5 246 L 132.5 255 L 137.5 255 L 153.5 259 L 170 261 L 169 270 L 141.5 265 L 102.5 255 L 59.5 241 L 59.5 240 Z " /><path fill="rgb(255,255,255)" stroke="rgb(255,255,255)" stroke-width="0" opacity="1" d="M 52.5 242 L 66.5 248 L 118.5 264 L 172.5 276 L 196.5 279 L 203.5 281 L 209.5 281 L 210.5 282 L 237.5 284 L 238.5 285 L 248.5 285 L 249.5 286 L 279.5 287 L 280.5 288 L 323.5 288 L 328.5 289 L 329.5 288 L 366.5 288 L 367.5 287 L 383.5 287 L 384.5 286 L 406.5 285 L 414.5 283 L 435.5 281 L 452 277 L 452 286.5 L 449 305 L 426.5 311 L 421.5 311 L 398.5 316 L 376.5 318 L 375.5 319 L 352.5 320 L 351.5 321 L 333.5 321 L 332.5 322 L 270.5 322 L 269.5 321 L 249.5 321 L 248.5 320 L 235.5 320 L 234.5 319 L 206.5 317 L 205.5 316 L 183.5 314 L 155 309 L 156 303.5 Q 153.5 302 155 296.5 L 153 292.5 L 146.5 285 L 137.5 281 L 128.5 281 Q 119.8 283.8 115 290.5 L 111.5 299 L 73.5 289 L 56 283 L 54 262.5 L 53 261.5 L 52.5 242 Z " /><path fill="rgb(255,255,255)" stroke="rgb(255,255,255)" stroke-width="0" opacity="1" d="M 402.5 249 L 407.5 249 L 414 253.5 L 415 262.5 L 409.5 269 L 404 270 L 405.5 267 L 407.5 267 L 412 262.5 Q 413.5 253.5 407.5 252 L 402.5 252 L 398 256.5 Q 397.3 262.6 399 265 L 402 266.5 L 401 269 L 396 265.5 L 395 256.5 L 398.5 251 L 402.5 249 Z " /><path fill="rgb(255,255,255)" stroke="rgb(255,255,255)" stroke-width="0" opacity="1" d="M 343.5 255 L 344 256.5 L 342.5 259 L 342 257.5 L 343.5 255 Z " /><path fill="rgb(255,255,255)" stroke="rgb(255,255,255)" stroke-width="0" opacity="1" d="M 404.5 255 L 408 256 L 409 260.5 L 404.5 264 L 402 263 L 401 258.5 L 404.5 255 Z " /><path fill="rgb(255,255,255)" stroke="rgb(255,255,255)" stroke-width="0" opacity="1" d="M 339.5 264 L 340 265.5 L 331.5 284 L 331 282.5 L 339.5 264 Z " /><path fill="rgb(255,255,255)" stroke="rgb(255,255,255)" stroke-width="0" opacity="1" d="M 395.5 272 Q 400.1 274.9 408.5 274 L 411.5 272 L 441.5 272 L 448 273.5 L 426.5 278 L 401.5 280 L 400.5 281 L 391.5 281 L 392 279.5 L 395.5 272 Z " /><path fill="rgb(255,255,255)" stroke="rgb(255,255,255)" stroke-width="0" opacity="1" d="M 340 273 L 372 273.5 L 366.5 283 L 336.5 284 L 337 282.5 L 340 273 Z " /><path fill="rgb(255,255,255)" stroke="rgb(255,255,255)" stroke-width="0" opacity="1" d="M 389.5 274 L 390 275.5 L 387.5 280 L 387 278.5 L 389.5 274 Z " /><path fill="rgb(255,255,255)" stroke="rgb(255,255,255)" stroke-width="0" opacity="1" d="M 130.5 285 Q 144.4 284.6 149 293.5 Q 152.8 298.2 151 308.5 Q 149.2 315.7 143.5 319 Q 139.4 322.9 130.5 322 Q 122.9 320.6 119 315.5 L 115 306.5 L 115 301.5 L 120 290 L 130.5 285 Z M 133 291 L 126 294 L 121 302 Q 120 309 124 312 L 129 315 L 133 316 L 140 314 L 145 307 L 144 298 Q 141 292 133 291 Z " /><path fill="rgb(255,255,255)" stroke="rgb(255,255,255)" stroke-width="0" opacity="1" d="M 58 288 L 94.5 299 L 111 302 Q 111.1 317.2 121.5 323 Q 127.3 327.2 138.5 326 Q 147.5 323.5 152 316.5 L 153 313 L 182.5 317 L 183.5 318 L 189.5 318 L 190.5 319 L 222.5 322 L 223.5 323 L 233.5 323 L 234.5 324 L 265.5 325 L 266.5 326 L 336.5 326 L 337.5 325 L 352.5 325 L 353.5 324 L 375.5 323 L 376.5 322 L 384.5 322 L 385.5 321 L 405.5 319 L 421.5 315 L 431.5 314 L 447.5 309 L 447 310.5 Q 445 327.5 437.5 339 L 395.5 351 L 368.5 356 L 346.5 358 L 345.5 359 L 325.5 360 L 324.5 361 L 310.5 361 L 309.5 362 L 286.5 362 L 285.5 363 L 234.5 363 L 233.5 362 L 194.5 361 L 193.5 360 L 182.5 360 L 181.5 359 L 172.5 359 L 171.5 358 L 147.5 356 L 93.5 346 L 75.5 341 L 73 338.5 Q 62 316.2 58 288 Z " /><path fill="rgb(255,255,255)" stroke="rgb(255,255,255)" stroke-width="0" opacity="1" d="M 131.5 295 Q 137.9 294.6 140 298.5 L 141 306.5 L 137.5 311 L 132.5 312 L 126 307.5 L 125 302.5 L 129.5 296 L 131.5 295 Z " /><path fill="rgb(255,255,255)" stroke="rgb(255,255,255)" stroke-width="0" opacity="1" d="M 436.5 343 L 436 344.5 Q 430.5 360 419.5 370 L 410.5 376 L 392.5 382 L 364.5 388 L 336.5 391 L 335.5 392 L 315.5 393 L 314.5 394 L 301.5 394 L 300.5 395 L 283.5 395 L 282.5 396 L 207.5 396 L 206.5 395 L 188.5 395 L 187.5 394 L 162.5 393 L 161.5 392 L 152.5 392 L 136.5 389 L 129.5 389 L 104.5 384 L 98 378.5 Q 84.8 364.2 76 345.5 L 77.5 345 L 89.5 349 L 116.5 355 L 122.5 355 L 140.5 359 L 163.5 361 L 172.5 363 L 194.5 364 L 195.5 365 L 209.5 365 L 210.5 366 L 229.5 366 L 230.5 367 L 288.5 367 L 289.5 366 L 309.5 366 L 310.5 365 L 335.5 364 L 336.5 363 L 345.5 363 L 346.5 362 L 375.5 359 L 416.5 350 L 436.5 343 Z " /><path fill="rgb(0,0,0)" stroke="rgb(0,0,0)" stroke-width="0" opacity="1" d="M 432.5 110 L 437 113.5 L 437 116.5 L 431 122.5 L 433 123 L 434 128.5 L 428.5 132 L 425 129.5 L 424.5 128 L 406 148.5 L 410 151.5 L 411 154.5 L 407.5 159 Q 402 160 401 156.5 L 400.5 155 L 381 182.5 L 380 186 L 385 188.5 L 386 192.5 L 383.5 196 L 378.5 197 L 374 193.5 L 361 216.5 L 357 227.5 Q 367.1 227.9 371 234.5 Q 375 238 374 246.5 Q 372.2 254.2 366.5 258 Q 362.2 261.7 352.5 260 L 347.5 257 L 343 268 L 373.5 268 L 375 266.5 L 389 239.5 L 396 232.5 L 405 217.5 Q 421.6 194.1 442.5 175 L 467.5 156 L 474.5 154 Q 477.8 154.8 477 159.5 L 471 164.5 Q 473.8 165.3 473 169.5 L 468.5 173 L 463.5 169 L 448 183.5 L 451 189.5 Q 450.3 193.7 444.5 193 L 441.5 190 L 435 196.5 L 423 212.5 L 428 216.5 Q 429 222 425.5 223 L 419 222 L 418.5 220 L 408 235.5 L 404 244.5 Q 412.3 244.7 416 249.5 Q 420.7 253.3 419 263.5 L 417 266.5 L 448.5 268 L 456 273.5 L 457 275.5 L 457 288.5 L 451 319.5 L 443 343.5 Q 435.5 362.5 421.5 375 Q 411.6 382.6 397.5 386 L 376.5 391 L 346.5 395 L 345.5 396 L 338.5 396 L 337.5 397 L 306.5 399 L 305.5 400 L 287.5 400 L 286.5 401 L 201.5 401 L 200.5 400 L 184.5 400 L 183.5 399 L 171.5 399 L 170.5 398 L 142.5 396 L 141.5 395 L 134.5 395 L 106.5 390 L 85.5 382 L 69 366.5 L 55 341.5 L 42 300.5 L 38 277.5 L 38 270.5 L 37 269.5 L 37 258.5 L 36 257.5 L 36 224.5 L 39.5 218 Q 43.2 214.7 51.5 216 L 62.5 219 L 71 225.5 L 72 237 L 138.5 251 L 143.5 251 L 154.5 254 L 170 256 L 171 251.5 L 172 232.5 L 173 231.5 L 173 222.5 L 175 213.5 L 176 195.5 L 178 184 L 170.5 183 L 167 179.5 L 166 177.5 L 166 165.5 L 169.5 161 L 176.5 159 L 188.5 159 L 189.5 158 L 253.5 157 L 254.5 158 L 282.5 158 L 283.5 159 L 312.5 160 L 323.5 162 L 328 165.5 Q 330.7 169.3 329 177.5 L 328 181.5 L 325.5 184 L 318.5 186 L 317 185.5 L 318.5 263 Q 329.3 237.3 344.5 216 Q 346.8 216.8 346 214.5 Q 375.6 160.6 418.5 120 L 432.5 110 Z M 432 115 L 427 119 L 428 120 L 433 116 L 432 115 Z M 424 121 L 400 146 L 402 148 L 410 138 L 425 123 L 424 121 Z M 428 125 L 428 128 L 431 127 L 428 125 Z M 397 149 L 371 183 L 375 185 L 399 152 Q 400 148 397 149 Z M 403 152 L 406 156 L 407 154 L 403 152 Z M 223 162 L 222 163 L 190 163 L 189 164 L 173 165 L 171 167 L 171 177 L 175 179 L 282 179 L 283 180 L 314 180 L 315 181 L 323 180 Q 325 177 324 169 L 319 166 L 302 165 L 301 164 L 223 162 Z M 463 164 L 461 167 L 464 165 L 463 164 Z M 469 166 L 467 168 L 470 169 L 469 166 Z M 459 167 L 450 174 L 443 182 L 445 182 L 460 168 L 459 167 Z M 183 183 Q 181 188 182 196 L 181 197 L 181 205 L 180 206 L 180 214 L 179 215 L 179 223 L 178 224 L 178 232 L 177 233 L 177 244 L 175 254 L 175 262 L 174 263 L 174 271 L 176 272 L 194 274 L 201 276 L 223 278 L 224 279 L 233 279 L 234 280 L 243 280 L 244 281 L 313 284 L 313 253 L 312 252 L 312 185 L 293 185 L 292 184 L 183 183 Z M 440 183 L 416 210 L 420 211 Q 429 197 441 186 L 440 183 Z M 368 186 L 353 211 L 350 218 L 355 220 L 373 189 Q 372 185 368 186 Z M 446 186 Q 443 187 445 189 Q 444 191 447 190 L 446 186 Z M 377 189 L 380 193 Q 384 194 382 190 L 377 189 Z M 415 212 L 398 236 L 403 238 Q 408 225 417 216 L 415 212 Z M 421 216 L 423 220 L 425 219 L 421 216 Z M 347 220 Q 330 244 318 273 L 317 283 Q 319 286 326 284 L 342 251 Q 341 240 345 235 L 350 231 Q 354 230 353 224 L 347 220 Z M 45 221 L 41 226 L 41 256 L 42 257 L 42 268 L 43 269 L 43 276 L 47 299 L 57 333 L 64 349 L 75 366 L 91 379 L 93 379 Q 75 358 65 331 L 54 294 L 50 272 L 50 265 L 49 264 L 49 253 L 48 252 L 48 241 L 49 239 L 53 236 L 66 236 L 67 237 L 66 228 L 59 223 L 51 221 L 45 221 Z M 356 232 L 352 234 L 346 242 Q 345 251 351 254 L 354 252 L 350 247 L 351 240 L 354 237 L 362 234 Q 361 231 356 232 Z M 364 234 L 362 236 L 366 242 L 365 249 Q 364 253 358 252 L 356 255 L 356 256 Q 362 257 365 254 L 369 248 Q 370 241 368 238 L 364 234 Z M 358 239 L 356 240 L 353 244 L 354 247 Q 355 250 360 249 Q 363 248 362 242 Q 362 239 358 239 Z M 394 239 Q 381 259 372 283 L 382 282 L 391 264 Q 390 255 393 252 L 399 247 L 401 241 L 398 239 L 394 239 Z M 60 240 L 60 241 L 103 255 L 142 265 L 169 270 L 170 261 L 154 259 L 138 255 L 133 255 L 94 246 L 75 243 L 70 241 L 60 240 Z M 53 242 L 53 262 L 54 263 L 56 283 L 74 289 L 112 299 L 115 291 Q 120 284 129 281 L 138 281 L 147 285 L 153 293 L 155 297 Q 154 302 156 304 L 155 309 L 184 314 L 206 316 L 207 317 L 235 319 L 236 320 L 249 320 L 250 321 L 270 321 L 271 322 L 333 322 L 334 321 L 352 321 L 353 320 L 376 319 L 377 318 L 399 316 L 422 311 L 427 311 L 449 305 L 452 287 L 452 277 L 436 281 L 415 283 L 407 285 L 385 286 L 384 287 L 368 287 L 367 288 L 330 288 L 329 289 L 324 288 L 281 288 L 280 287 L 250 286 L 249 285 L 239 285 L 238 284 L 211 282 L 210 281 L 204 281 L 197 279 L 173 276 L 119 264 L 67 248 L 53 242 Z M 403 249 L 399 251 L 395 257 L 396 266 L 401 269 L 402 267 L 399 265 Q 397 263 398 257 L 403 252 L 408 252 Q 414 254 412 263 L 408 267 L 406 267 L 404 270 L 410 269 L 415 263 L 414 254 L 408 249 L 403 249 Z M 405 255 L 401 259 L 402 263 L 405 264 L 409 261 L 408 256 L 405 255 Z M 339 266 L 337 269 L 338 271 L 339 269 L 339 266 Z M 396 272 L 392 280 L 392 281 L 401 281 L 402 280 L 427 278 L 448 274 L 442 272 L 412 272 L 409 274 Q 400 275 396 272 Z M 340 273 L 337 283 L 337 284 L 367 283 L 372 274 L 340 273 Z M 335 275 L 333 278 L 334 280 L 335 278 L 335 275 Z M 333 280 L 331 284 L 333 283 L 333 280 Z M 131 285 L 120 290 L 115 302 L 115 307 L 119 316 Q 123 321 131 322 Q 139 323 144 319 Q 149 316 151 309 Q 153 298 149 294 Q 144 285 131 285 Z M 58 288 Q 62 316 73 339 L 76 341 L 94 346 L 148 356 L 172 358 L 173 359 L 182 359 L 183 360 L 194 360 L 195 361 L 234 362 L 235 363 L 286 363 L 287 362 L 310 362 L 311 361 L 325 361 L 326 360 L 346 359 L 347 358 L 369 356 L 396 351 L 438 339 Q 445 328 447 311 L 448 309 L 432 314 L 422 315 L 406 319 L 386 321 L 385 322 L 377 322 L 376 323 L 354 324 L 353 325 L 338 325 L 337 326 L 267 326 L 266 325 L 235 324 L 234 323 L 224 323 L 223 322 L 191 319 L 190 318 L 184 318 L 183 317 L 153 313 L 152 317 Q 148 324 139 326 Q 127 327 122 323 Q 111 317 111 302 L 95 299 L 58 288 Z M 434 344 L 417 350 L 376 359 L 347 362 L 346 363 L 337 363 L 336 364 L 311 365 L 310 366 L 290 366 L 289 367 L 231 367 L 230 366 L 211 366 L 210 365 L 196 365 L 195 364 L 173 363 L 164 361 L 141 359 L 123 355 L 117 355 L 90 349 L 78 345 L 76 346 Q 85 364 98 379 L 105 384 L 130 389 L 137 389 L 153 392 L 162 392 L 163 393 L 188 394 L 189 395 L 207 395 L 208 396 L 283 396 L 284 395 L 301 395 L 302 394 L 315 394 L 316 393 L 336 392 L 337 391 L 365 388 L 393 382 L 411 376 L 420 370 Q 430 360 436 346 Q 437 343 434 344 Z " /><path fill="rgb(0,0,0)" stroke="rgb(0,0,0)" stroke-width="0" opacity="1" d="M 195.5 195 L 231.5 195 L 239 200.5 L 240 212.5 L 239 213.5 L 238 244.5 Q 236.8 250.3 232.5 253 Q 226.6 255.6 216.5 254 L 215.5 253 L 195.5 253 L 190.5 252 L 186 248.5 Q 183.4 245.6 184 239.5 L 185 238.5 L 185 227.5 L 186 226.5 L 188 202.5 L 191.5 197 L 195.5 195 Z M 197 199 L 195 200 L 192 204 Q 194 209 191 211 L 190 230 L 189 231 L 189 246 L 192 248 Q 198 246 200 249 L 231 249 L 233 247 L 234 243 L 235 203 L 231 199 L 197 199 Z " /><path fill="rgb(0,0,0)" stroke="rgb(0,0,0)" stroke-width="0" opacity="1" d="M 255.5 196 L 289.5 196 L 296 200.5 L 297 202.5 L 297 246.5 L 292.5 253 L 290.5 254 L 254.5 254 L 249 250.5 L 247 246.5 L 247 222.5 L 248 221.5 L 248 204.5 L 252.5 197 L 255.5 196 Z M 256 200 L 252 206 L 252 232 L 251 233 Q 250 242 252 248 L 256 250 L 289 250 L 291 249 L 293 246 L 293 205 L 292 203 L 289 200 L 256 200 Z " /><path fill="rgb(0,0,0)" stroke="rgb(0,0,0)" stroke-width="0" opacity="1" d="M 201.5 202 L 221.5 202 Q 222.8 204.3 227.5 203 L 231 205.5 L 232 207.5 L 232 218.5 L 231 219.5 L 230 241.5 L 227.5 245 L 225.5 246 L 206.5 246 L 194 244 L 192 237.5 L 193 236.5 L 193 223.5 L 194 222.5 L 195 207.5 L 198.5 203 L 201.5 202 Z M 202 206 L 199 209 Q 200 213 198 215 L 196 240 L 202 242 L 225 242 L 226 241 Q 225 236 227 235 L 228 209 L 224 206 L 202 206 Z " /><path fill="rgb(0,0,0)" stroke="rgb(0,0,0)" stroke-width="0" opacity="1" d="M 260.5 203 L 280.5 203 L 288 205 L 290 211.5 L 290 230.5 L 289 231.5 L 289 242.5 L 286.5 246 L 284.5 247 L 260.5 247 L 256 245 L 255 242.5 L 255 215.5 Q 257.8 213.8 256 207.5 L 258.5 204 L 260.5 203 Z M 262 207 L 259 213 L 259 242 L 261 243 L 284 243 Q 286 242 285 237 L 285 235 L 286 232 L 286 211 L 285 208 L 283 207 L 262 207 Z " /><path fill="rgb(0,0,0)" stroke="rgb(0,0,0)" stroke-width="0" opacity="1" d="M 132.5 291 Q 140.8 291.8 144 297.5 L 145 306.5 L 139.5 314 L 132.5 316 L 128.5 315 L 124 311.5 Q 120.3 308.7 121 301.5 L 125.5 294 L 132.5 291 Z M 132 295 L 130 296 L 125 303 L 126 308 L 133 312 L 138 311 L 141 307 L 140 299 Q 138 295 132 295 Z " /></svg>