<svg width="627" height="627" preserveAspectRatio="xMidYMid meet" viewBox="0 0 512 512" version="1.1" xmlns="http://www.w3.org/2000/svg" ><path fill="rgb(255,255,255)" stroke="rgb(255,255,255)" stroke-width="0" opacity="1" d="M 0 0 L 512 0 L 512 512 L 0 512 L 0 0 Z M 207 75 L 197 79 Q 189 84 186 95 Q 184 110 190 118 Q 195 125 205 128 L 215 128 Q 222 126 227 121 L 230 121 L 232 124 L 232 140 L 215 142 L 202 147 L 194 157 L 192 167 L 189 168 L 183 176 L 181 194 L 180 195 L 180 204 L 179 206 L 143 211 L 120 218 Q 100 225 86 238 Q 65 255 54 281 L 46 304 L 44 319 L 41 327 L 40 338 L 39 339 L 39 358 L 42 372 Q 47 386 56 396 Q 73 414 100 424 L 132 433 L 152 435 L 153 436 L 165 436 L 166 437 L 202 437 L 203 436 L 215 436 L 216 435 L 225 435 L 226 434 L 246 432 L 285 423 L 309 415 L 317 411 L 340 418 L 352 419 L 353 420 L 368 419 L 377 415 Q 381 412 382 406 Q 381 396 375 392 L 386 385 L 399 396 L 412 401 L 424 401 L 436 396 L 440 390 L 440 381 L 438 372 L 428 348 L 438 333 L 440 345 L 443 350 Q 446 356 455 357 L 459 357 L 466 354 Q 472 349 474 339 L 474 332 L 468 319 L 463 314 L 461 313 Q 463 306 460 305 L 464 302 Q 472 296 474 284 L 474 278 L 471 269 L 461 260 Q 451 259 447 263 Q 441 267 439 274 L 437 288 Q 433 280 427 276 L 435 258 L 442 232 L 441 224 L 437 219 L 430 217 L 419 217 L 410 219 L 395 228 L 386 240 Q 357 222 320 214 L 309 173 Q 307 168 301 168 Q 302 158 297 152 L 289 145 Q 278 141 264 140 L 263 113 Q 261 102 256 96 Q 251 89 243 85 L 232 82 L 226 82 Q 223 77 217 76 L 207 75 Z " /><path fill="rgb(255,255,255)" stroke="rgb(255,255,255)" stroke-width="0" opacity="1" d="M 205.5 81 Q 218.8 79.2 223 86.5 Q 228.3 92.7 228 104.5 L 224 115.5 L 219.5 120 Q 215.2 123.2 207.5 123 Q 199 121.5 195 115.5 L 191 106.5 L 191 96.5 Q 193.4 87.4 200.5 83 L 205.5 81 Z M 204 87 L 202 88 L 195 97 Q 193 108 198 113 L 205 117 Q 211 118 214 115 L 219 108 Q 221 97 217 93 Q 215 85 204 87 Z " /><path fill="rgb(255,255,255)" stroke="rgb(255,255,255)" stroke-width="0" opacity="1" d="M 229.5 88 Q 245.6 88.9 252 99.5 L 255 104.5 L 258 115.5 L 259 148.5 L 256.5 151 L 246.5 152 L 238 150 L 238 126.5 L 237 121.5 L 233.5 117 L 229 116 Q 233.8 109.6 232 95.5 L 229.5 88 Z " /><path fill="rgb(255,255,255)" stroke="rgb(255,255,255)" stroke-width="0" opacity="1" d="M 204.5 91 Q 211 90 213 93.5 Q 216.5 97.5 215 106.5 L 210.5 112 L 205.5 113 L 200 108.5 Q 197.5 105 199 97.5 L 201 93 L 204.5 91 Z " /><path fill="rgb(255,255,255)" stroke="rgb(255,255,255)" stroke-width="0" opacity="1" d="M 264.5 145 L 280.5 148 L 292 153 L 293 158 L 285.5 161 L 268.5 164 L 241.5 165 L 240.5 164 L 227.5 164 L 226.5 163 L 214.5 162 L 201 157 Q 200.3 153.2 203.5 152 L 216.5 147 L 232 146 Q 231.2 151 234.5 153 L 243.5 156 L 253.5 156 L 261.5 153 L 264 150.5 L 264.5 145 Z " /><path fill="rgb(255,255,255)" stroke="rgb(255,255,255)" stroke-width="0" opacity="1" d="M 199 159 L 206.5 163 L 222.5 167 Q 228.8 165.3 230.5 168 L 265.5 168 L 266.5 167 L 273.5 167 L 283.5 165 L 291.5 162 L 294.5 159 L 296 172 L 288.5 175 L 272.5 178 L 233.5 179 L 232.5 178 L 222.5 178 L 221.5 177 L 210.5 176 L 199.5 173 L 197 170.5 L 199 159 Z " /><path fill="rgb(255,255,255)" stroke="rgb(255,255,255)" stroke-width="0" opacity="1" d="M 191.5 172 Q 193.8 171.3 193 173.5 L 198.5 177 L 213.5 181 L 229.5 182 L 230.5 183 L 256 183 L 256 194.5 L 257 195.5 L 257 213.5 L 256 214.5 L 256 221 L 232.5 221 L 231.5 220 L 216.5 219 L 198.5 214 L 185 208 L 187 182.5 L 189 174.5 L 191.5 172 Z " /><path fill="rgb(255,255,255)" stroke="rgb(255,255,255)" stroke-width="0" opacity="1" d="M 300.5 173 L 304 174.5 L 315 212.5 L 305.5 213 L 280.5 219 L 263.5 220 L 260 221 L 260 187.5 L 259 183 L 285.5 180 L 295.5 177 L 300.5 173 Z " /><path fill="rgb(255,255,255)" stroke="rgb(255,255,255)" stroke-width="0" opacity="1" d="M 182.5 211 Q 196.5 219 214.5 223 L 227.5 224 L 228.5 225 L 265.5 225 L 266.5 224 L 283.5 223 L 295.5 220 Q 306.4 228.5 311 242 L 260.5 243 L 259.5 244 L 227.5 244 L 226.5 245 L 195.5 245 Q 188.2 228.3 175.5 217 L 170 213.5 L 172.5 212 L 181.5 212 L 182.5 211 Z " /><path fill="rgb(255,255,255)" stroke="rgb(255,255,255)" stroke-width="0" opacity="1" d="M 162.5 213 Q 174.1 217.9 181 227.5 L 192 245.5 L 201 271.5 L 205 292.5 L 205 300.5 L 206 301.5 L 207 339.5 L 206 340.5 L 206 354.5 L 205 355.5 L 204 370.5 L 197 399.5 L 187 420.5 L 177.5 431 L 160.5 431 L 159.5 430 L 142.5 429 L 107.5 421 L 81.5 409 Q 68.4 401.6 59 390.5 Q 51.3 381.2 47 368.5 L 45 359.5 L 45 335.5 L 47 325 L 65.5 332 L 89.5 337 L 116.5 339 L 117.5 340 L 151.5 340 L 171.5 336 L 180 328.5 L 184 318.5 L 185 293.5 L 184 292.5 L 183 280.5 L 180 271.5 L 168.5 258 L 154.5 252 L 134.5 248 L 118.5 247 L 117.5 246 L 90.5 246 Q 89.2 248.3 84.5 247 L 84.5 246 Q 98.5 233 117.5 225 L 137.5 218 L 162.5 213 Z M 66 357 L 60 363 L 61 366 L 64 364 L 67 372 Q 74 382 89 386 L 104 386 L 119 379 Q 125 375 128 368 L 132 370 L 133 367 Q 130 360 123 360 Q 122 363 125 365 L 124 368 Q 116 379 100 382 L 92 382 L 79 377 Q 71 372 67 363 L 69 359 L 66 357 Z " /><path fill="rgb(255,255,255)" stroke="rgb(255,255,255)" stroke-width="0" opacity="1" d="M 306.5 217 L 312.5 217 L 320.5 219 L 348.5 228 Q 370.4 236.1 388 248.5 L 386.5 248 L 370.5 244 L 355.5 243 L 354.5 242 L 315.5 242 L 314 240.5 Q 309 227.5 299 219.5 L 306.5 217 Z " /><path fill="rgb(255,255,255)" stroke="rgb(255,255,255)" stroke-width="0" opacity="1" d="M 425.5 222 L 432.5 223 L 436 225.5 L 436 234.5 L 433 246.5 L 422.5 273 L 415 267.5 L 402.5 253 L 390 243.5 L 402.5 229 L 411.5 224 L 424.5 223 L 425.5 222 Z " /><path fill="rgb(255,255,255)" stroke="rgb(255,255,255)" stroke-width="0" opacity="1" d="M 300.5 245 L 348.5 245 L 349.5 246 L 359.5 246 L 360.5 247 L 378.5 249 L 399.5 257 L 410 267.5 Q 418.6 278.9 422 295.5 Q 420.5 301 423 302.5 L 423 326.5 L 421 337.5 L 415 351.5 L 402.5 366 L 382.5 375 L 359.5 380 L 346.5 371 L 342.5 370 L 322.5 370 L 321.5 371 L 303.5 372 L 289.5 375 Q 281.9 376.9 278 382.5 L 277 388 L 271.5 389 L 255.5 389 L 254.5 390 L 205.5 391 L 203 389.5 L 207 374.5 L 207 369.5 L 209 362.5 L 209 352.5 L 210 351.5 L 210 303.5 L 209 302.5 L 209 294.5 L 205 272.5 L 197 248 L 249.5 248 L 250.5 247 L 299.5 246 L 300.5 245 Z M 316 249 L 313 250 L 312 253 L 313 258 L 318 259 L 321 255 L 320 252 L 316 249 Z M 209 254 Q 205 255 206 262 Q 207 265 213 264 Q 216 263 215 258 Q 214 253 209 254 Z M 369 279 L 360 282 Q 352 286 349 295 L 346 310 L 347 311 L 348 322 L 353 331 Q 357 337 366 339 Q 377 341 383 336 Q 393 329 395 315 Q 396 297 388 289 Q 382 280 369 279 Z M 311 281 L 302 285 Q 293 292 290 304 L 290 320 L 296 333 Q 301 339 310 342 Q 322 344 329 339 Q 340 332 342 317 L 341 302 L 336 292 Q 330 280 311 281 Z M 254 282 Q 252 284 248 283 L 239 288 Q 230 295 227 309 L 228 325 L 233 335 Q 239 344 252 346 Q 264 347 271 341 Q 280 335 283 322 L 283 308 L 277 294 Q 272 286 263 283 L 254 282 Z M 215 287 Q 211 288 212 294 Q 213 298 219 297 L 222 293 L 221 288 L 215 287 Z M 218 326 L 214 330 Q 213 335 218 336 Q 223 337 224 333 L 223 328 Q 222 325 218 326 Z M 215 367 Q 210 368 211 375 L 217 378 L 221 373 L 220 370 L 215 367 Z " /><path fill="rgb(255,255,255)" stroke="rgb(255,255,255)" stroke-width="0" opacity="1" d="M 90.5 251 L 114.5 251 L 115.5 252 L 124.5 252 L 125.5 253 L 132.5 253 L 148.5 256 L 163.5 261 L 173 269.5 L 179 286.5 L 180 307.5 L 179 308.5 L 178 321.5 L 171.5 330 L 159.5 334 L 150.5 334 L 149.5 335 L 121.5 335 L 120.5 334 L 98.5 333 L 97.5 332 L 74.5 329 L 56.5 324 L 49 319.5 L 52 303.5 L 58 285.5 Q 65.3 266.8 78.5 254 L 90.5 251 Z M 83 262 L 79 264 L 74 269 L 74 271 L 83 267 L 89 267 L 94 269 L 92 264 Q 89 261 83 262 Z M 139 266 L 136 268 L 134 272 L 137 271 L 146 271 L 152 276 Q 151 278 155 277 L 154 273 L 147 266 L 139 266 Z M 78 279 L 74 281 Q 66 286 63 297 Q 61 310 66 316 Q 70 320 77 322 Q 83 322 88 319 L 94 312 L 97 302 L 97 295 L 94 286 Q 91 277 78 279 Z M 138 282 L 129 286 Q 123 291 120 300 Q 118 312 122 319 L 133 327 Q 142 328 147 324 L 151 320 L 156 307 L 156 300 L 153 291 Q 149 282 138 282 Z " /><path fill="rgb(255,255,255)" stroke="rgb(255,255,255)" stroke-width="0" opacity="1" d="M 315 252 L 318 253.5 L 316.5 256 L 315 252 Z " /><path fill="rgb(255,255,255)" stroke="rgb(255,255,255)" stroke-width="0" opacity="1" d="M 209 257 L 212 258.5 Q 213.1 262.7 209 261 L 209 257 Z " /><path fill="rgb(255,255,255)" stroke="rgb(255,255,255)" stroke-width="0" opacity="1" d="M 453.5 265 Q 463.3 264.3 466 270.5 Q 470 275.5 468 286.5 Q 465.5 294.5 459.5 299 L 450 303 Q 449.6 298.3 445.5 296 L 443 294.5 L 442 284.5 L 444 274.5 L 449.5 267 L 453.5 265 Z " /><path fill="rgb(255,255,255)" stroke="rgb(255,255,255)" stroke-width="0" opacity="1" d="M 421.5 278 L 426 281.5 Q 432.9 288.6 436 299.5 L 437 317.5 Q 434.3 334.3 423.5 343 L 424 341.5 L 427 330.5 L 428 308.5 L 427 307.5 L 427 299.5 L 425 288.5 L 421.5 278 Z " /><path fill="rgb(255,255,255)" stroke="rgb(255,255,255)" stroke-width="0" opacity="1" d="M 79.5 282 Q 89.3 281.7 92 288.5 L 93 291.5 L 88.5 288 Q 79.1 286.6 76 291.5 Q 70.2 297.2 72 310.5 Q 73.2 316.3 78 318.5 L 76.5 318 L 69 314.5 Q 64.7 309.3 66 298.5 Q 67.8 288.8 74.5 284 L 79.5 282 Z " /><path fill="rgb(255,255,255)" stroke="rgb(255,255,255)" stroke-width="0" opacity="1" d="M 365.5 284 Q 381.4 282.6 386 292.5 Q 391.5 300 391 313.5 L 389 321.5 L 383 331 L 375.5 335 L 366.5 335 Q 359.3 333.2 356 327.5 Q 348.3 319.7 351 301.5 Q 353.1 292.1 359.5 287 L 365.5 284 Z M 368 289 L 364 291 L 358 297 L 355 306 L 355 314 L 359 324 L 369 330 Q 375 331 379 328 Q 385 323 387 314 L 387 306 L 383 296 L 375 289 L 368 289 Z " /><path fill="rgb(255,255,255)" stroke="rgb(255,255,255)" stroke-width="0" opacity="1" d="M 311.5 285 Q 327.9 284.1 333 294.5 Q 339.1 301.9 338 316.5 Q 335.8 327.8 328.5 334 Q 323.2 339.7 310.5 338 Q 302.4 335.1 298 328.5 L 294 318.5 L 294 304.5 Q 296.6 293.6 304.5 288 L 311.5 285 Z M 316 290 L 308 293 Q 302 298 299 306 Q 297 318 302 325 Q 306 331 314 333 L 319 333 L 327 329 L 333 319 L 333 305 L 330 299 Q 326 291 316 290 Z " /><path fill="rgb(255,255,255)" stroke="rgb(255,255,255)" stroke-width="0" opacity="1" d="M 136.5 286 Q 146.2 284.8 149 290.5 L 151 295.5 L 147.5 293 L 140.5 292 L 132 298.5 Q 127.8 303.3 129 313.5 L 134.5 323 L 136 323.5 L 134.5 324 Q 128 322.5 125 317.5 Q 121.8 311.8 123 301.5 Q 124.9 292.4 131.5 288 L 136.5 286 Z " /><path fill="rgb(255,255,255)" stroke="rgb(255,255,255)" stroke-width="0" opacity="1" d="M 249.5 287 Q 268.2 285.3 274 296.5 L 279 307.5 L 279 320.5 Q 276.4 332.4 267.5 338 Q 262.2 342.2 252.5 342 Q 241.4 339.6 236 331.5 L 231 318.5 L 231 309.5 Q 233.6 296.6 242.5 290 L 249.5 287 Z M 253 292 L 245 296 Q 239 300 237 309 Q 235 322 241 329 Q 245 334 253 336 Q 262 337 267 332 Q 272 327 274 320 Q 276 305 269 299 Q 264 292 253 292 Z " /><path fill="rgb(255,255,255)" stroke="rgb(255,255,255)" stroke-width="0" opacity="1" d="M 216.5 289 L 219 290 L 217.5 294 L 215 292.5 L 216.5 289 Z " /><path fill="rgb(255,255,255)" stroke="rgb(255,255,255)" stroke-width="0" opacity="1" d="M 85.5 293 Q 90.3 292.3 91 295.5 L 90 301 L 86.5 302 L 84 301 L 83 296.5 L 85.5 293 Z " /><path fill="rgb(255,255,255)" stroke="rgb(255,255,255)" stroke-width="0" opacity="1" d="M 367.5 293 L 373.5 293 L 381 299.5 Q 384 304.5 383 313.5 Q 381.6 321.6 375.5 325 L 368.5 326 L 363 323 L 359 313.5 L 359 304.5 Q 360.6 297.5 365.5 294 L 367.5 293 Z " /><path fill="rgb(255,255,255)" stroke="rgb(255,255,255)" stroke-width="0" opacity="1" d="M 315.5 294 L 322.5 296 L 327 300.5 L 329 304.5 L 330 313.5 L 327 322.5 L 322.5 327 Q 319.8 329.8 313.5 329 L 306 323.5 Q 301 318 303 305.5 L 308.5 297 L 315.5 294 Z " /><path fill="rgb(255,255,255)" stroke="rgb(255,255,255)" stroke-width="0" opacity="1" d="M 253.5 296 Q 263.6 295.9 267 302.5 Q 271.8 307.7 270 319.5 Q 267.8 326.3 262.5 330 Q 259.8 332.8 253.5 332 L 245 328 L 241 319.5 L 241 308.5 Q 242.8 301.3 248.5 298 L 253.5 296 Z " /><path fill="rgb(255,255,255)" stroke="rgb(255,255,255)" stroke-width="0" opacity="1" d="M 143.5 298 Q 148 297 149 299.5 Q 150.3 305.8 146.5 307 Q 142.8 307.8 142 305.5 L 141 302.5 L 143.5 298 Z " /><path fill="rgb(255,255,255)" stroke="rgb(255,255,255)" stroke-width="0" opacity="1" d="M 441.5 299 L 446 302.5 L 448 310.5 L 443.5 318 L 442 317.5 L 442 305.5 Q 439.4 303.9 441.5 299 Z " /><path fill="rgb(255,255,255)" stroke="rgb(255,255,255)" stroke-width="0" opacity="1" d="M 452 306 Q 458 304 456 310 Q 450 312 452 306 Z " /><path fill="rgb(255,255,255)" stroke="rgb(255,255,255)" stroke-width="0" opacity="1" d="M 451.5 313 Q 459.5 315.5 464 321.5 Q 470 327.5 468 341.5 L 463.5 349 Q 460.6 352.6 452.5 351 L 447 346.5 L 443 334.5 L 443 322 L 449 318.5 L 451.5 313 Z " /><path fill="rgb(255,255,255)" stroke="rgb(255,255,255)" stroke-width="0" opacity="1" d="M 217 329 L 221 330.5 L 219.5 333 L 217 331.5 L 217 329 Z " /><path fill="rgb(255,255,255)" stroke="rgb(255,255,255)" stroke-width="0" opacity="1" d="M 422.5 350 Q 424.8 349.3 424 351.5 L 433 373.5 L 435 387.5 L 430.5 393 L 425.5 395 L 414.5 396 Q 398.9 393.1 391 382.5 L 393.5 379 Q 404.3 372.8 412 363.5 L 422.5 350 Z " /><path fill="rgb(255,255,255)" stroke="rgb(255,255,255)" stroke-width="0" opacity="1" d="M 215.5 370 L 218 371.5 L 215.5 375 L 214 371.5 L 215.5 370 Z " /><path fill="rgb(255,255,255)" stroke="rgb(255,255,255)" stroke-width="0" opacity="1" d="M 324.5 374 L 341.5 374 L 348.5 377 Q 363.6 386.4 375 399.5 L 376 402.5 L 370.5 406 L 359.5 406 L 358.5 407 L 357.5 406 L 345.5 405 L 318.5 397 L 285 381.5 L 294.5 378 L 312.5 376 L 313.5 375 L 323.5 375 L 324.5 374 Z " /><path fill="rgb(255,255,255)" stroke="rgb(255,255,255)" stroke-width="0" opacity="1" d="M 391.5 374 L 390.5 376 L 369.5 388 L 363 382.5 L 379.5 379 L 391.5 374 Z " /><path fill="rgb(255,255,255)" stroke="rgb(255,255,255)" stroke-width="0" opacity="1" d="M 282 384 L 284.5 384 L 310.5 397 L 329.5 404 L 349.5 409 L 360.5 409 L 362.5 410 L 375.5 407 L 372.5 411 Q 364.5 416 349.5 414 L 330.5 410 L 304.5 401 L 287.5 393 L 282 388.5 L 282 384 Z " /><path fill="rgb(255,255,255)" stroke="rgb(255,255,255)" stroke-width="0" opacity="1" d="M 277.5 391 L 286.5 398 L 309 407 Q 310.3 410 306.5 409 L 303.5 411 L 274.5 420 L 241.5 427 L 219.5 429 L 218.5 430 L 206.5 430 L 205.5 431 L 183.5 431 L 186 427.5 Q 197.4 413.6 202 394 L 243.5 394 L 244.5 393 L 261.5 393 L 262.5 392 L 276.5 392 L 277.5 391 Z M 209 397 L 207 398 L 204 403 L 208 407 L 212 406 L 214 403 L 213 398 L 209 397 Z M 200 417 L 198 418 Q 194 419 195 424 Q 196 427 202 426 Q 205 425 204 420 L 200 417 Z " /><path fill="rgb(255,255,255)" stroke="rgb(255,255,255)" stroke-width="0" opacity="1" d="M 208.5 400 L 211 401.5 L 209.5 404 L 207 402.5 L 208.5 400 Z " /><path fill="rgb(255,255,255)" stroke="rgb(255,255,255)" stroke-width="0" opacity="1" d="M 199.5 420 Q 202.5 419.2 201 423 Q 197.2 424.5 198 421.5 L 199.5 420 Z " /><path fill="rgb(0,0,0)" stroke="rgb(0,0,0)" stroke-width="0" opacity="1" d="M 206.5 75 L 216.5 76 Q 222.6 77.4 225.5 82 L 231.5 82 L 242.5 85 Q 250.9 88.6 256 95.5 Q 261.1 102.4 263 112.5 L 264 140 Q 277.5 140.8 288.5 145 L 297 151.5 Q 301.6 157.6 301 168 Q 306.6 168.1 309 172.5 L 320 214 Q 356.9 222.3 385.5 240 L 395 228 L 409.5 219 L 418.5 217 L 429.5 217 L 436.5 219 L 441 223.5 L 442 231.5 L 435 257.5 L 427 275.5 Q 433.4 280.1 436.5 288 L 439 273.5 Q 441.3 266.8 446.5 263 Q 450.7 258.7 460.5 260 L 471 268.5 L 474 277.5 L 474 283.5 Q 471.6 295.6 463.5 302 L 460 304.5 Q 462.8 306.2 461 312.5 L 462.5 314 L 468 318.5 L 474 331.5 L 474 338.5 Q 472.3 348.8 465.5 354 L 458.5 357 L 454.5 357 Q 446.2 355.8 443 349.5 L 440 344.5 L 437.5 333 L 428 347.5 L 438 371.5 L 440 380.5 L 440 389.5 L 435.5 396 L 423.5 401 L 411.5 401 L 398.5 396 L 385.5 385 L 375 391.5 Q 381.2 395.8 382 405.5 Q 381.1 412.1 376.5 415 L 367.5 419 L 352.5 420 L 351.5 419 L 339.5 418 L 316.5 411 L 308.5 415 L 284.5 423 L 245.5 432 L 225.5 434 L 224.5 435 L 215.5 435 L 214.5 436 L 202.5 436 L 201.5 437 L 165.5 437 L 164.5 436 L 152.5 436 L 151.5 435 L 131.5 433 L 99.5 424 Q 73.3 414.3 56 395.5 Q 47 385.5 42 371.5 L 39 357.5 L 39 338.5 L 40 337.5 L 41 326.5 L 44 318.5 L 46 303.5 L 54 280.5 Q 65.1 254.6 85.5 238 Q 100 225.5 119.5 218 L 142.5 211 L 179 206 L 180 203.5 L 180 194.5 L 181 193.5 L 183 175.5 L 188.5 168 L 192 167 L 194 156.5 L 201.5 147 L 214.5 142 L 232 140 L 232 123.5 L 229.5 121 L 226.5 121 Q 222.4 126.4 214.5 128 L 204.5 128 Q 194.8 125.3 190 117.5 Q 183.8 110.2 186 94.5 Q 188.8 84.3 196.5 79 L 206.5 75 Z M 206 81 L 201 83 Q 193 87 191 97 L 191 107 L 195 116 Q 199 122 208 123 Q 215 123 220 120 L 224 116 L 228 105 Q 228 93 223 87 Q 219 79 206 81 Z M 230 88 L 232 96 Q 234 110 229 116 L 234 117 L 237 122 L 238 127 L 238 150 L 247 152 L 257 151 L 259 149 L 258 116 L 255 105 L 252 100 Q 246 89 230 88 Z M 265 145 L 264 151 L 262 153 L 254 156 L 244 156 L 235 153 Q 231 151 232 146 L 217 147 L 204 152 Q 200 153 201 157 L 215 162 L 227 163 L 228 164 L 241 164 L 242 165 L 269 164 L 286 161 L 293 158 L 292 153 L 281 148 L 265 145 Z M 199 159 L 197 171 L 200 173 L 211 176 L 222 177 L 223 178 L 233 178 L 234 179 L 273 178 L 289 175 L 296 172 L 295 159 L 292 162 L 284 165 L 274 167 L 267 167 L 266 168 L 231 168 Q 229 165 223 167 L 207 163 L 199 159 Z M 192 172 L 189 175 L 187 183 L 185 208 L 199 214 L 217 219 L 232 220 L 233 221 L 256 221 L 256 215 L 257 214 L 257 196 L 256 195 L 256 183 L 231 183 L 230 182 L 214 181 L 199 177 L 193 174 Q 194 171 192 172 Z M 301 173 L 296 177 L 286 180 L 259 183 L 260 188 L 260 221 L 264 220 L 281 219 L 306 213 L 315 213 L 304 175 L 301 173 Z M 183 211 L 182 212 L 173 212 L 170 214 L 176 217 Q 188 228 196 245 L 227 245 L 228 244 L 260 244 L 261 243 L 311 242 Q 306 228 296 220 L 284 223 L 267 224 L 266 225 L 229 225 L 228 224 L 215 223 Q 197 219 183 211 Z M 163 213 L 138 218 L 118 225 Q 99 233 85 246 L 85 247 Q 89 248 91 246 L 118 246 L 119 247 L 135 248 L 155 252 L 169 258 L 180 272 L 183 281 L 184 293 L 185 294 L 184 319 L 180 329 L 172 336 L 152 340 L 118 340 L 117 339 L 90 337 L 66 332 L 47 325 L 45 336 L 45 360 L 47 369 Q 51 381 59 391 Q 68 402 82 409 L 108 421 L 143 429 L 160 430 L 161 431 L 178 431 L 187 421 L 197 400 L 204 371 L 205 356 L 206 355 L 206 341 L 207 340 L 206 302 L 205 301 L 205 293 L 201 272 L 192 246 L 181 228 Q 174 218 163 213 Z M 307 217 L 299 220 Q 309 228 314 241 L 316 242 L 355 242 L 356 243 L 364 243 L 365 244 L 376 245 L 385 248 L 387 248 Q 369 236 349 228 L 321 219 L 313 217 L 307 217 Z M 426 222 L 425 223 L 412 224 L 403 229 L 390 244 L 403 253 L 415 268 L 423 273 L 433 247 L 436 235 L 436 226 L 433 223 L 426 222 Z M 301 245 L 300 246 L 251 247 L 250 248 L 197 248 L 205 273 L 209 295 L 209 303 L 210 304 L 210 352 L 209 353 L 209 363 L 207 370 L 207 375 L 203 390 L 206 391 L 255 390 L 256 389 L 272 389 L 277 388 L 278 383 Q 282 377 290 375 L 304 372 L 322 371 L 323 370 L 343 370 L 347 371 L 360 380 L 383 375 L 403 366 L 415 352 L 421 338 L 423 327 L 423 303 Q 421 301 422 296 Q 419 279 410 268 L 400 257 L 379 249 L 361 247 L 360 246 L 350 246 L 349 245 L 301 245 Z M 91 251 L 79 254 Q 65 267 58 286 L 52 304 L 49 320 L 57 324 L 75 329 L 98 332 L 99 333 L 121 334 L 122 335 L 150 335 L 151 334 L 160 334 L 172 330 L 178 322 L 179 309 L 180 308 L 179 287 L 173 270 L 164 261 L 149 256 L 133 253 L 126 253 L 125 252 L 116 252 L 115 251 L 91 251 Z M 454 265 L 450 267 L 444 275 L 442 285 L 443 295 L 446 296 Q 450 298 450 303 L 460 299 Q 466 295 468 287 Q 470 275 466 271 Q 463 264 454 265 Z M 423 279 L 422 282 L 425 289 L 427 300 L 427 308 L 428 309 L 427 331 L 424 341 L 425 342 L 431 335 L 435 327 L 437 318 L 436 300 Q 433 289 426 282 L 423 279 Z M 442 299 Q 439 304 442 306 L 442 318 L 444 318 L 448 311 L 446 303 L 442 299 Z M 452 306 Q 450 312 456 310 Q 458 304 452 306 Z M 452 313 L 449 319 L 443 322 L 443 335 L 447 347 L 453 351 Q 461 353 464 349 L 468 342 Q 470 328 464 322 Q 460 316 452 313 Z M 423 350 L 412 364 Q 404 373 394 379 L 391 383 Q 399 393 415 396 L 426 395 L 431 393 L 435 388 L 433 374 L 424 352 Q 425 349 423 350 Z M 325 374 L 324 375 L 314 375 L 313 376 L 295 378 L 285 382 L 319 397 L 346 405 L 358 406 L 359 407 L 360 406 L 371 406 L 376 403 L 375 400 Q 364 386 349 377 L 342 374 L 325 374 Z M 387 376 L 380 379 L 363 383 L 370 388 L 389 377 L 387 376 Z M 282 384 L 282 389 L 288 393 L 305 401 L 331 410 L 350 414 Q 365 416 373 411 L 376 407 L 363 410 L 361 409 L 350 409 L 330 404 L 311 397 L 285 384 L 282 384 Z M 278 391 L 277 392 L 263 392 L 262 393 L 245 393 L 244 394 L 202 394 Q 197 414 186 428 L 184 431 L 206 431 L 207 430 L 219 430 L 220 429 L 242 427 L 275 420 L 304 411 L 307 409 Q 310 410 309 407 L 287 398 L 278 391 Z " /><path fill="rgb(0,0,0)" stroke="rgb(0,0,0)" stroke-width="0" opacity="1" d="M 203.5 87 Q 214.6 85.4 217 92.5 Q 220.8 97.2 219 107.5 L 213.5 115 Q 210.8 117.8 204.5 117 L 198 112.5 Q 193.3 107.7 195 96.5 L 201.5 88 L 203.5 87 Z M 205 91 L 201 93 L 199 98 Q 198 105 200 109 L 206 113 L 211 112 L 215 107 Q 217 98 213 94 Q 211 90 205 91 Z " /><path fill="rgb(0,0,0)" stroke="rgb(0,0,0)" stroke-width="0" opacity="1" d="M 315.5 249 L 320 251.5 L 321 254.5 L 317.5 259 L 313 258 L 312 252.5 L 313 250 L 315.5 249 Z M 315 252 L 317 256 L 318 254 L 315 252 Z " /><path fill="rgb(0,0,0)" stroke="rgb(0,0,0)" stroke-width="0" opacity="1" d="M 208.5 254 Q 214.3 253.3 215 257.5 Q 216 263 212.5 264 Q 207 265 206 261.5 Q 204.8 255.3 208.5 254 Z M 209 257 L 209 261 Q 213 263 212 259 L 209 257 Z " /><path fill="rgb(0,0,0)" stroke="rgb(0,0,0)" stroke-width="0" opacity="1" d="M 82.5 262 Q 89.4 261.3 92 264 L 94 269 L 88.5 267 L 82.5 267 L 74 271 L 74 268.5 L 78.5 264 L 82.5 262 Z " /><path fill="rgb(0,0,0)" stroke="rgb(0,0,0)" stroke-width="0" opacity="1" d="M 138.5 266 L 146.5 266 L 154 272.5 L 155 277 Q 151.2 278.5 152 275.5 L 145.5 271 L 136.5 271 L 134 272 L 135.5 268 L 138.5 266 Z " /><path fill="rgb(0,0,0)" stroke="rgb(0,0,0)" stroke-width="0" opacity="1" d="M 77.5 279 Q 90.5 277.5 94 285.5 L 97 294.5 L 97 301.5 L 94 311.5 L 87.5 319 Q 83.5 322 76.5 322 Q 69.6 320.4 66 315.5 Q 60.8 309.7 63 296.5 Q 65.8 286.3 73.5 281 L 77.5 279 Z M 80 282 L 75 284 Q 68 289 66 299 Q 65 309 69 315 L 75 318 L 77 318 L 72 311 Q 70 297 76 292 L 82 288 Q 90 286 92 291 L 92 289 Q 89 282 80 282 Z M 86 293 L 83 297 L 84 301 L 87 302 L 90 301 L 91 296 Q 90 292 86 293 Z " /><path fill="rgb(0,0,0)" stroke="rgb(0,0,0)" stroke-width="0" opacity="1" d="M 368.5 279 Q 382.2 279.8 388 288.5 Q 395.9 297.1 395 314.5 Q 392.5 329 382.5 336 Q 377 340.5 365.5 339 Q 357.5 336.5 353 330.5 L 348 321.5 L 347 310.5 L 346 309.5 L 349 294.5 Q 352.3 286.3 359.5 282 L 368.5 279 Z M 366 284 L 360 287 Q 353 292 351 302 Q 348 320 356 328 Q 359 333 367 335 L 376 335 L 383 331 L 389 322 L 391 314 Q 392 300 386 293 Q 381 283 366 284 Z " /><path fill="rgb(0,0,0)" stroke="rgb(0,0,0)" stroke-width="0" opacity="1" d="M 310.5 281 Q 329.7 279.8 336 291.5 L 341 301.5 L 342 316.5 Q 339.5 332 328.5 339 Q 322.3 343.8 309.5 342 Q 300.8 339.2 296 332.5 L 290 319.5 L 290 303.5 Q 293 291.5 301.5 285 L 310.5 281 Z M 312 285 L 305 288 Q 297 294 294 305 L 294 319 L 298 329 Q 302 335 311 338 Q 323 340 329 334 Q 336 328 338 317 Q 339 302 333 295 Q 328 284 312 285 Z " /><path fill="rgb(0,0,0)" stroke="rgb(0,0,0)" stroke-width="0" opacity="1" d="M 137.5 282 Q 149.1 282.4 153 290.5 L 156 299.5 L 156 306.5 L 151 319.5 L 146.5 324 Q 142.1 328.1 132.5 327 L 122 318.5 Q 118 312 120 299.5 Q 122.5 291 128.5 286 L 137.5 282 Z M 137 286 L 132 288 Q 125 292 123 302 Q 122 312 125 318 L 132 323 L 134 323 L 129 314 Q 128 303 132 299 L 141 292 L 148 293 L 151 296 L 149 291 Q 146 285 137 286 Z M 144 298 L 141 303 L 142 306 Q 143 308 147 307 Q 150 306 149 300 Q 148 297 144 298 Z " /><path fill="rgb(0,0,0)" stroke="rgb(0,0,0)" stroke-width="0" opacity="1" d="M 253.5 282 L 262.5 283 Q 271.5 286.5 277 293.5 L 283 307.5 L 283 321.5 Q 280 334.5 270.5 341 Q 264 346.5 251.5 346 Q 238.9 343.6 233 334.5 L 228 324.5 L 227 308.5 Q 229.8 295.3 238.5 288 L 247.5 283 Q 252.2 284.3 253.5 282 Z M 250 287 L 243 290 Q 234 297 231 310 L 231 319 L 236 332 Q 241 340 253 342 Q 262 342 268 338 Q 276 332 279 321 L 279 308 L 274 297 Q 268 285 250 287 Z " /><path fill="rgb(0,0,0)" stroke="rgb(0,0,0)" stroke-width="0" opacity="1" d="M 214.5 287 L 221 288 L 222 292.5 L 218.5 297 Q 212.8 297.8 212 293.5 Q 211 288 214.5 287 Z M 217 289 L 215 293 L 218 294 L 219 290 L 217 289 Z " /><path fill="rgb(0,0,0)" stroke="rgb(0,0,0)" stroke-width="0" opacity="1" d="M 367.5 289 L 374.5 289 L 383 295.5 L 387 305.5 L 387 313.5 Q 385.2 323.2 378.5 328 Q 375.2 330.7 368.5 330 L 359 323.5 L 355 313.5 L 355 305.5 L 358 296.5 L 363.5 291 L 367.5 289 Z M 368 293 L 366 294 Q 361 298 359 305 L 359 314 L 363 323 L 369 326 L 376 325 Q 382 322 383 314 Q 384 305 381 300 L 374 293 L 368 293 Z " /><path fill="rgb(0,0,0)" stroke="rgb(0,0,0)" stroke-width="0" opacity="1" d="M 315.5 290 Q 325.6 291.4 330 298.5 L 333 304.5 L 333 318.5 L 326.5 329 L 318.5 333 L 313.5 333 Q 305.6 330.9 302 324.5 Q 297.2 318.3 299 305.5 Q 301.5 297.5 307.5 293 L 315.5 290 Z M 316 294 L 309 297 L 303 306 Q 301 318 306 324 L 314 329 Q 320 330 323 327 L 327 323 L 330 314 L 329 305 L 327 301 L 323 296 L 316 294 Z " /><path fill="rgb(0,0,0)" stroke="rgb(0,0,0)" stroke-width="0" opacity="1" d="M 252.5 292 Q 264.5 291.5 269 298.5 Q 275.8 304.7 274 319.5 Q 271.8 327.3 266.5 332 Q 262.5 337 252.5 336 Q 245.1 333.9 241 328.5 Q 235.3 322.2 237 308.5 Q 238.7 300.2 244.5 296 L 252.5 292 Z M 254 296 L 249 298 Q 243 301 241 309 L 241 320 L 245 328 L 254 332 Q 260 333 263 330 Q 268 326 270 320 Q 272 308 267 303 Q 264 296 254 296 Z " /><path fill="rgb(0,0,0)" stroke="rgb(0,0,0)" stroke-width="0" opacity="1" d="M 217.5 326 Q 222 325 223 327.5 L 224 332.5 Q 223.3 336.8 217.5 336 Q 213.3 335.3 214 329.5 L 217.5 326 Z M 217 329 L 217 332 L 220 333 L 221 331 L 217 329 Z " /><path fill="rgb(0,0,0)" stroke="rgb(0,0,0)" stroke-width="0" opacity="1" d="M 65.5 357 L 69 358.5 L 67 362.5 Q 70.6 371.9 78.5 377 L 91.5 382 L 99.5 382 Q 115.9 378.9 124 367.5 L 125 364.5 Q 122.3 363.4 123 360 Q 130.1 360.4 133 366.5 L 131.5 370 L 128 367.5 Q 125 375 118.5 379 L 103.5 386 L 88.5 386 Q 74 382.5 67 371.5 L 63.5 364 L 60.5 366 L 60 362.5 L 65.5 357 Z " /><path fill="rgb(0,0,0)" stroke="rgb(0,0,0)" stroke-width="0" opacity="1" d="M 214.5 367 L 220 369.5 L 221 372.5 L 216.5 378 L 211 374.5 Q 210 368 214.5 367 Z M 216 370 L 214 372 L 216 375 L 218 372 L 216 370 Z " /><path fill="rgb(0,0,0)" stroke="rgb(0,0,0)" stroke-width="0" opacity="1" d="M 208.5 397 L 213 398 L 214 402.5 L 211.5 406 L 207.5 407 L 204 402.5 L 206.5 398 L 208.5 397 Z M 209 400 L 207 403 L 210 404 L 211 402 L 209 400 Z " /><path fill="rgb(0,0,0)" stroke="rgb(0,0,0)" stroke-width="0" opacity="1" d="M 199.5 417 L 204 419.5 Q 205 425 201.5 426 Q 196 427 195 423.5 Q 194.3 418.8 197.5 418 L 199.5 417 Z M 200 420 L 198 422 Q 197 425 201 423 Q 202 419 200 420 Z " /></svg>