<svg width="627" height="627" preserveAspectRatio="xMidYMid meet" viewBox="0 0 512 512" version="1.1" xmlns="http://www.w3.org/2000/svg" ><path fill="rgb(255,255,255)" stroke="rgb(255,255,255)" stroke-width="0" opacity="1" d="M 0 0 L 512 0 L 512 512 L 0 512 L 0 0 Z M 80 92 L 79 93 L 72 93 L 62 95 L 50 100 L 42 110 Q 42 118 46 122 L 54 127 L 76 134 L 94 197 L 85 203 Q 81 189 73 179 Q 68 170 58 167 Q 49 167 45 171 L 40 178 L 40 191 L 44 202 Q 51 217 62 229 L 59 236 L 57 246 L 57 257 L 59 267 L 68 284 Q 75 292 85 298 L 69 322 L 61 323 L 40 329 L 26 336 L 22 343 L 23 355 L 30 366 Q 37 373 47 377 L 60 381 L 72 382 L 73 383 L 98 383 L 99 382 L 108 382 L 109 381 L 122 380 L 124 389 L 132 401 L 145 410 L 156 415 L 182 420 L 209 420 L 210 419 L 229 418 L 230 417 L 249 415 L 285 407 L 318 397 L 336 390 L 360 378 L 374 368 L 388 352 L 393 339 L 392 330 Q 388 324 381 322 L 358 322 L 344 325 L 334 309 L 347 311 L 357 311 L 358 312 L 391 312 L 392 311 L 406 310 L 424 305 L 435 299 Q 440 295 442 288 Q 443 281 440 278 L 434 272 L 425 269 L 376 260 Q 403 248 424 229 L 444 233 L 469 233 L 482 229 L 486 226 L 489 221 L 489 214 L 487 210 L 482 207 L 468 203 L 433 197 L 435 184 Q 451 184 462 177 Q 469 173 471 164 Q 472 157 469 155 Q 461 144 444 144 L 444 135 L 445 134 L 445 122 L 441 110 Q 437 103 429 101 L 419 101 L 407 106 L 396 118 L 387 134 L 349 129 L 342 127 L 336 127 L 335 126 L 329 126 L 328 125 L 322 125 L 321 124 L 315 124 L 308 122 L 287 120 L 267 116 L 260 116 L 240 112 L 220 110 L 207 107 L 194 106 L 193 105 L 169 102 L 125 94 L 119 94 L 118 93 L 109 93 L 108 92 L 80 92 Z " /><path fill="rgb(255,255,255)" stroke="rgb(255,255,255)" stroke-width="0" opacity="1" d="M 85.5 97 L 112.5 98 L 113.5 99 L 133.5 101 L 183.5 110 L 196.5 111 L 202.5 113 L 228.5 116 L 235.5 118 L 241.5 118 L 269.5 123 L 289.5 125 L 296.5 127 L 323.5 130 L 330.5 132 L 350.5 134 L 357.5 136 L 377.5 138 L 384.5 140 L 404.5 142 L 411.5 144 L 417.5 144 L 454.5 151 L 464 156.5 L 465 159.5 L 457.5 165 L 437.5 170 Q 431.2 168.3 429.5 171 L 387.5 171 L 386.5 170 L 374.5 170 L 373.5 169 L 364.5 169 L 347.5 166 L 339.5 166 L 338.5 165 L 332.5 165 L 310.5 161 L 303.5 161 L 302.5 160 L 249.5 152 L 232.5 140 L 218.5 135 L 201.5 132 L 185.5 132 L 184.5 133 L 173.5 134 L 161.5 140 L 157.5 140 L 69.5 119 L 51.5 113 L 48 109.5 L 51.5 105 L 68.5 99 L 84.5 98 L 85.5 97 Z " /><path fill="rgb(255,255,255)" stroke="rgb(255,255,255)" stroke-width="0" opacity="1" d="M 420.5 106 Q 432 105 436 111.5 L 439 118.5 L 439 142 L 414.5 138 L 408.5 138 L 407.5 137 L 401.5 137 L 392 134.5 L 407 112 L 420.5 106 Z " /><path fill="rgb(255,255,255)" stroke="rgb(255,255,255)" stroke-width="0" opacity="1" d="M 48.5 114 L 53.5 117 L 68.5 122 L 129.5 137 L 146.5 140 L 157 143.5 L 152.5 148 L 151.5 147 L 68.5 127 L 53.5 121 L 49 116.5 L 48.5 114 Z " /><path fill="rgb(255,255,255)" stroke="rgb(255,255,255)" stroke-width="0" opacity="1" d="M 82 136 L 89 138.5 L 104 188.5 L 104 193 L 99.5 195 L 93 177.5 L 82 136 Z " /><path fill="rgb(255,255,255)" stroke="rgb(255,255,255)" stroke-width="0" opacity="1" d="M 182.5 137 L 204.5 137 L 222.5 141 L 235.5 147 L 244 155.5 L 247 161.5 L 248 175.5 L 247 176.5 L 247 189.5 L 246 190.5 L 245 207.5 L 247.5 211 Q 251 213.5 258.5 212 L 272.5 208 L 278 203.5 Q 283.2 196.3 281 181.5 L 279 171 Q 284 170.2 286 173.5 L 287 186.5 L 288 187.5 L 288 202.5 L 289.5 204 Q 305.8 203.3 313 193.5 L 313.5 191 L 314.5 192 L 322.5 192 L 323.5 193 L 354.5 196 L 364 198.5 L 358 215.5 L 356 225.5 L 353.5 228 L 286.5 245 L 285.5 244 L 272.5 244 L 271.5 245 L 260.5 245 L 259.5 246 L 242.5 247 L 241.5 248 L 235.5 248 L 212.5 252 L 199.5 256 L 192 262.5 L 191 270.5 L 197.5 278 L 208 282.5 L 202.5 288 L 191.5 293 L 166.5 298 L 142 299 Q 138 288.1 129 280.5 L 129 277.5 L 132 272.5 L 134 264.5 L 135 250.5 L 132 236.5 Q 127.2 224.8 118.5 217 Q 109.1 207.4 88.5 209 L 86 210 L 88.5 206 L 96.5 201 L 115.5 194 L 125.5 192 L 137.5 192 L 164.5 199 L 199.5 213 L 220.5 216 L 227.5 214 L 232 209.5 L 236 200.5 L 238 189.5 L 238 170.5 Q 235.8 162.8 230.5 158 Q 209.8 141.7 170.5 144 L 159.5 148 L 160.5 146 L 168.5 141 L 182.5 137 Z " /><path fill="rgb(255,255,255)" stroke="rgb(255,255,255)" stroke-width="0" opacity="1" d="M 94 139 L 150 152.5 Q 138.5 167.5 130.5 186 L 117.5 188 L 109.5 191 L 94 139 Z " /><path fill="rgb(255,255,255)" stroke="rgb(255,255,255)" stroke-width="0" opacity="1" d="M 170.5 148 Q 211.5 145.5 231 164.5 L 234 171.5 L 234 187.5 L 231 202.5 L 225.5 210 L 223.5 211 L 209.5 211 L 168 196.5 L 173 192.5 Q 178.9 186.4 178 173.5 L 171.5 165 L 165.5 164 L 156 169.5 Q 150.7 174.7 151 185.5 L 154 191.5 L 152.5 191 L 136 187.5 Q 143.9 167.9 156.5 153 L 170.5 148 Z M 169 152 L 165 154 L 161 159 L 169 156 L 177 158 L 176 154 L 169 152 Z M 208 159 L 205 161 Q 202 160 203 163 L 203 164 L 207 163 L 214 165 L 216 169 Q 218 172 219 169 L 218 165 Q 216 159 208 159 Z M 202 172 L 196 175 Q 190 180 188 188 Q 187 196 190 201 Q 193 205 200 207 Q 206 208 209 205 Q 214 201 217 194 Q 219 182 215 178 L 208 172 L 202 172 Z " /><path fill="rgb(255,255,255)" stroke="rgb(255,255,255)" stroke-width="0" opacity="1" d="M 248.5 154 L 276.5 160 L 282.5 160 L 295.5 163 L 301.5 163 L 302.5 164 L 308.5 164 L 337.5 169 L 344.5 169 L 345.5 170 L 352.5 170 L 353.5 171 L 361.5 171 L 370.5 173 L 382.5 173 L 383.5 174 L 418.5 175 L 419.5 174 L 432.5 174 L 433.5 173 L 445.5 172 L 456.5 169 L 464.5 164 L 465 165.5 L 460.5 171 L 453.5 175 L 437.5 179 L 403.5 181 L 402.5 180 L 383.5 180 L 382.5 179 L 372.5 179 L 371.5 178 L 363.5 178 L 346.5 175 L 338.5 175 L 337.5 174 L 304.5 170 L 285.5 166 L 273.5 165 L 251 160 L 248.5 154 Z " /><path fill="rgb(255,255,255)" stroke="rgb(255,255,255)" stroke-width="0" opacity="1" d="M 252 166 L 274 170 L 277 184.5 L 277 193.5 L 276 198.5 L 272.5 203 Q 263 207.8 250 208 L 249 202.5 L 251 193.5 L 251 183.5 L 252 182.5 L 252 166 Z " /><path fill="rgb(255,255,255)" stroke="rgb(255,255,255)" stroke-width="0" opacity="1" d="M 164.5 167 Q 171.8 166.8 174 171.5 L 173.5 174 L 167.5 171 L 160 176.5 L 157 186.5 L 160 192.5 L 158.5 192 L 155 189.5 L 154 179.5 Q 155.5 172.6 160.5 169 L 164.5 167 Z " /><path fill="rgb(255,255,255)" stroke="rgb(255,255,255)" stroke-width="0" opacity="1" d="M 53.5 172 Q 62.1 172.4 66 177.5 L 77 196.5 L 85 223.5 L 86 234 Q 78.7 232.9 75.5 237 L 54 209.5 L 45 189.5 L 45 179.5 L 50.5 173 L 53.5 172 Z " /><path fill="rgb(255,255,255)" stroke="rgb(255,255,255)" stroke-width="0" opacity="1" d="M 290 173 L 298.5 174 L 301 176.5 L 308 189.5 L 308 192.5 Q 302.3 198.5 292 199 L 292 183.5 L 290 173 Z " /><path fill="rgb(255,255,255)" stroke="rgb(255,255,255)" stroke-width="0" opacity="1" d="M 201.5 175 L 206.5 175 L 213 180.5 L 214 183.5 L 210.5 181 L 204.5 180 L 199 183.5 L 195 194.5 L 196 199.5 L 199 203.5 L 197.5 203 L 192 198.5 L 191 187.5 L 197.5 177 L 201.5 175 Z " /><path fill="rgb(255,255,255)" stroke="rgb(255,255,255)" stroke-width="0" opacity="1" d="M 306.5 175 L 307.5 176 L 357 182.5 L 351.5 190 L 316.5 187 L 311 184.5 L 306.5 175 Z " /><path fill="rgb(255,255,255)" stroke="rgb(255,255,255)" stroke-width="0" opacity="1" d="M 168 176 Q 171.8 175 173 177.5 Q 173.8 181.3 171.5 182 Q 167.8 182.8 167 180.5 L 168 176 Z " /><path fill="rgb(255,255,255)" stroke="rgb(255,255,255)" stroke-width="0" opacity="1" d="M 362.5 183 Q 368.6 181.8 368 184.5 L 364.5 194 L 357 191.5 L 362.5 183 Z " /><path fill="rgb(255,255,255)" stroke="rgb(255,255,255)" stroke-width="0" opacity="1" d="M 372 184 L 380 185 L 353 276.5 L 350.5 280 L 348.5 281 L 344 278.5 L 364 214.5 L 372 184 Z " /><path fill="rgb(255,255,255)" stroke="rgb(255,255,255)" stroke-width="0" opacity="1" d="M 207.5 185 Q 211.9 183.5 211 186.5 L 212 188.5 L 209.5 192 L 206 190.5 Q 205 186 207.5 185 Z " /><path fill="rgb(255,255,255)" stroke="rgb(255,255,255)" stroke-width="0" opacity="1" d="M 385.5 185 L 392 186 L 389 203.5 L 387.5 205 L 385.5 202 L 381 198.5 L 383 189.5 L 385.5 185 Z " /><path fill="rgb(255,255,255)" stroke="rgb(255,255,255)" stroke-width="0" opacity="1" d="M 426.5 185 L 429 185 L 429 190.5 L 427 198 L 400.5 202 L 391.5 206 L 392 204.5 L 395 186 L 425.5 186 L 426.5 185 Z " /><path fill="rgb(255,255,255)" stroke="rgb(255,255,255)" stroke-width="0" opacity="1" d="M 422.5 202 L 432.5 202 L 460.5 207 Q 465.9 210.1 474.5 210 L 480.5 212 L 483 214.5 L 478.5 217 L 469.5 219 L 446.5 219 L 445.5 218 L 438.5 218 L 416.5 214 L 395 208.5 L 401.5 206 L 422.5 202 Z " /><path fill="rgb(255,255,255)" stroke="rgb(255,255,255)" stroke-width="0" opacity="1" d="M 379 203 L 387 209.5 Q 388.3 216.8 384.5 219 L 374 222 L 379 203 Z " /><path fill="rgb(255,255,255)" stroke="rgb(255,255,255)" stroke-width="0" opacity="1" d="M 392 211 L 431.5 220 L 437.5 220 L 445.5 222 L 469.5 222 L 479.5 220 L 483.5 217 L 484 218.5 L 479.5 224 L 465.5 228 L 446.5 228 L 445.5 227 L 438.5 227 L 416.5 223 L 392 216 L 392 211 Z " /><path fill="rgb(255,255,255)" stroke="rgb(255,255,255)" stroke-width="0" opacity="1" d="M 92.5 212 L 106.5 214 Q 115.4 217.6 121 224.5 Q 131.8 236.2 131 259.5 L 129 269.5 L 125.5 276 L 115 264.5 Q 118.7 258.7 117 247.5 Q 114 234.5 104.5 228 L 98.5 225 L 90.5 225 L 89 223.5 L 87 213 L 92.5 212 Z " /><path fill="rgb(255,255,255)" stroke="rgb(255,255,255)" stroke-width="0" opacity="1" d="M 390.5 220 L 396.5 223 L 414.5 227 L 416 228.5 L 411.5 233 L 389.5 247 L 367.5 258 L 363 258 L 372 226 Q 382.5 224.8 390.5 220 Z " /><path fill="rgb(255,255,255)" stroke="rgb(255,255,255)" stroke-width="0" opacity="1" d="M 91 229 Q 101.6 229.4 107 236.5 L 112 247.5 L 112 259.5 Q 110.8 262.3 109.5 260 L 104 255.5 Q 104.7 240.8 95.5 236 L 91 233.5 L 91 229 Z " /><path fill="rgb(255,255,255)" stroke="rgb(255,255,255)" stroke-width="0" opacity="1" d="M 352.5 231 L 354 231.5 L 347 255 L 296 246.5 L 348.5 233 L 352.5 231 Z " /><path fill="rgb(255,255,255)" stroke="rgb(255,255,255)" stroke-width="0" opacity="1" d="M 65 234 L 71 238.5 L 66 247.5 L 65 256.5 L 68 263.5 L 82.5 280 L 89.5 283 L 94.5 283 L 96 284.5 L 100 296.5 L 98.5 296 Q 82.8 292.8 74 282.5 Q 62.8 271.2 62 249.5 L 63 248.5 L 63 240.5 L 65 234 Z " /><path fill="rgb(255,255,255)" stroke="rgb(255,255,255)" stroke-width="0" opacity="1" d="M 82.5 238 Q 92.9 236.6 96 242.5 Q 100.5 247 99 257.5 L 91.5 267 L 82.5 268 L 73 262.5 Q 69 259 70 250.5 Q 71.8 243.3 77.5 240 L 82.5 238 Z " /><path fill="rgb(255,255,255)" stroke="rgb(255,255,255)" stroke-width="0" opacity="1" d="M 278.5 248 L 345 260 L 340 279.5 L 342.5 283 L 351.5 284 L 356 280.5 L 361 263 L 418.5 273 L 429.5 276 L 436 281.5 Q 436.5 285.5 433.5 286 L 423.5 291 L 404.5 296 L 389.5 297 L 388.5 298 L 361.5 298 L 360.5 297 L 349.5 297 L 348.5 296 L 331.5 295 L 330.5 294 L 324.5 294 L 284.5 287 L 223.5 273 L 197 265 L 199.5 261 L 205.5 258 L 229.5 253 L 251.5 251 L 252.5 250 L 261.5 250 L 262.5 249 L 277.5 249 L 278.5 248 Z " /><path fill="rgb(255,255,255)" stroke="rgb(255,255,255)" stroke-width="0" opacity="1" d="M 102 260 L 103.5 260 L 122 278.5 Q 133.2 290.3 141 305.5 L 144 313.5 L 144 325.5 L 139.5 331 L 133.5 333 Q 122.8 330.7 118 322.5 L 105 297.5 L 96 272.5 L 96 268.5 L 102 260 Z " /><path fill="rgb(255,255,255)" stroke="rgb(255,255,255)" stroke-width="0" opacity="1" d="M 195.5 267 L 226.5 277 L 298.5 293 L 304.5 293 L 310.5 295 L 336.5 298 L 337.5 299 L 356.5 300 L 357.5 301 L 392.5 301 L 418.5 296 L 435.5 288 L 436 289.5 L 431.5 295 L 424.5 299 L 402.5 305 L 387.5 306 L 386.5 307 L 361.5 307 L 360.5 306 L 350.5 306 L 349.5 305 L 325.5 303 L 265.5 292 L 216.5 280 L 204.5 276 L 196 270.5 L 195.5 267 Z " /><path fill="rgb(255,255,255)" stroke="rgb(255,255,255)" stroke-width="0" opacity="1" d="M 81.5 272 L 91.5 272 L 92 274.5 L 94 278.5 L 90.5 279 Q 83.5 276.9 81.5 272 Z " /><path fill="rgb(255,255,255)" stroke="rgb(255,255,255)" stroke-width="0" opacity="1" d="M 211.5 283 L 222.5 287 L 253 294.5 L 206.5 304 L 177.5 307 L 174 300 Q 195.7 297.7 209 287 L 211.5 283 Z " /><path fill="rgb(255,255,255)" stroke="rgb(255,255,255)" stroke-width="0" opacity="1" d="M 260.5 296 L 269 297 L 273 304.5 L 302.5 345 Q 305.1 344.2 304 347.5 L 302.5 349 L 294.5 349 L 292 348 L 293 344.5 L 261 298.5 L 260.5 296 Z " /><path fill="rgb(255,255,255)" stroke="rgb(255,255,255)" stroke-width="0" opacity="1" d="M 89.5 299 L 96 301.5 L 76.5 332 L 71.5 333 L 69 332 L 69 329.5 L 89.5 299 Z " /><path fill="rgb(255,255,255)" stroke="rgb(255,255,255)" stroke-width="0" opacity="1" d="M 276.5 299 L 299.5 304 L 310.5 305 L 314 307.5 L 325 326.5 L 323.5 328 L 298 332 L 277 301.5 L 276.5 299 Z " /><path fill="rgb(255,255,255)" stroke="rgb(255,255,255)" stroke-width="0" opacity="1" d="M 250.5 300 L 258 301 L 265 313 L 234.5 321 L 225.5 322 L 216.5 325 L 186.5 331 L 179 312 L 181.5 311 L 199.5 310 L 200.5 309 L 225.5 306 L 250.5 300 Z " /><path fill="rgb(255,255,255)" stroke="rgb(255,255,255)" stroke-width="0" opacity="1" d="M 166.5 301 Q 171.3 299.3 170 303.5 L 194 365 L 197 366.5 Q 198.1 369.8 195.5 369 Q 194 371.5 188.5 370 L 184 367.5 L 186 364.5 L 162 302.5 L 166.5 301 Z " /><path fill="rgb(255,255,255)" stroke="rgb(255,255,255)" stroke-width="0" opacity="1" d="M 145 302 L 156.5 302 L 158 303.5 L 159 308 L 148.5 310 L 145 302 Z " /><path fill="rgb(255,255,255)" stroke="rgb(255,255,255)" stroke-width="0" opacity="1" d="M 100 303 Q 104.1 301.3 103 305.5 L 108 316 L 91.5 318 L 92 316.5 L 100 303 Z " /><path fill="rgb(255,255,255)" stroke="rgb(255,255,255)" stroke-width="0" opacity="1" d="M 319.5 307 L 328 308 L 343 335 L 347 337.5 Q 345 341 338.5 340 L 335 337.5 L 336 335.5 L 319.5 307 Z " /><path fill="rgb(255,255,255)" stroke="rgb(255,255,255)" stroke-width="0" opacity="1" d="M 159.5 313 L 162 314.5 L 169 335 L 92.5 348 L 75.5 349 L 74.5 350 L 61.5 350 L 60.5 351 L 48.5 351 L 47.5 350 L 34.5 349 L 27 346 Q 27.7 340.6 32.5 338 L 46.5 332 L 65 328 L 64 331.5 L 66.5 335 Q 70 337.5 77.5 336 L 82 332.5 L 86 324 L 110.5 320 L 122.5 334 L 131.5 338 L 135.5 338 Q 143.2 336.1 147 330.5 L 149 326.5 L 150 317.5 L 149 315 L 159.5 313 Z " /><path fill="rgb(255,255,255)" stroke="rgb(255,255,255)" stroke-width="0" opacity="1" d="M 263.5 316 L 265 316.5 L 255.5 327 Q 242.3 336.8 225.5 343 L 216.5 346 L 193 350 L 187 334.5 L 189.5 333 L 235.5 324 L 263.5 316 Z " /><path fill="rgb(255,255,255)" stroke="rgb(255,255,255)" stroke-width="0" opacity="1" d="M 269.5 319 L 280 335 L 240.5 342 L 240.5 341 Q 258.4 334.4 269 320.5 L 269.5 319 Z " /><path fill="rgb(255,255,255)" stroke="rgb(255,255,255)" stroke-width="0" opacity="1" d="M 358.5 327 L 378.5 327 L 384.5 329 L 387 331.5 L 385.5 334 L 377.5 338 L 344.5 349 L 258.5 371 L 197.5 382 L 179.5 383 L 178.5 384 L 148.5 384 L 133.5 381 L 128 377.5 L 131.5 372 L 146.5 365 L 179 358 L 181 367.5 L 184.5 372 L 192.5 374 L 200 369.5 L 201 367.5 L 195 355.5 L 203.5 353 L 209.5 353 L 215.5 351 L 221.5 351 L 227.5 349 L 285 340 L 291.5 351 L 300.5 353 L 308 348.5 L 308 345.5 L 302 337.5 L 303.5 336 L 326.5 333 L 329 332 L 333 341 L 336.5 343 L 345.5 343 L 350 339.5 L 350 335.5 L 346 329 L 358.5 327 Z " /><path fill="rgb(255,255,255)" stroke="rgb(255,255,255)" stroke-width="0" opacity="1" d="M 387.5 336 L 387 337.5 L 387 341.5 L 383 349.5 L 372.5 362 Q 358 375 338.5 383 L 318.5 391 L 282.5 402 L 251.5 409 L 246.5 409 L 233.5 412 L 226.5 412 L 225.5 413 L 216.5 413 L 215.5 414 L 176.5 414 L 175.5 413 L 164.5 412 L 152.5 408 Q 139.6 402.9 132 392.5 L 128 384.5 L 128 381.5 L 130.5 383 L 146.5 387 L 182.5 387 L 183.5 386 L 192.5 386 L 193.5 385 L 200.5 385 L 201.5 384 L 231.5 380 L 273.5 371 L 290.5 366 L 294.5 366 L 352.5 350 L 373.5 343 L 387.5 336 Z " /><path fill="rgb(255,255,255)" stroke="rgb(255,255,255)" stroke-width="0" opacity="1" d="M 165.5 338 L 171 338 L 171 340.5 L 176 352.5 L 139.5 362 Q 129.6 365.1 124 372.5 Q 124.8 375.1 121.5 374 L 104.5 377 L 77.5 378 L 76.5 377 L 61.5 376 L 50.5 373 Q 38.3 368.3 31 358.5 L 27 349.5 L 28.5 350 L 37.5 353 L 45.5 353 L 46.5 354 L 66.5 354 L 67.5 353 L 78.5 353 L 79.5 352 L 87.5 352 L 115.5 347 L 121.5 347 L 165.5 338 Z " /><path fill="rgb(0,0,0)" stroke="rgb(0,0,0)" stroke-width="0" opacity="1" d="M 79.5 92 L 107.5 92 L 108.5 93 L 117.5 93 L 118.5 94 L 124.5 94 L 168.5 102 L 192.5 105 L 193.5 106 L 206.5 107 L 219.5 110 L 239.5 112 L 259.5 116 L 266.5 116 L 286.5 120 L 307.5 122 L 314.5 124 L 320.5 124 L 321.5 125 L 327.5 125 L 328.5 126 L 334.5 126 L 335.5 127 L 341.5 127 L 348.5 129 L 386.5 134 L 396 117.5 L 406.5 106 L 418.5 101 L 428.5 101 Q 436.9 103.1 441 109.5 L 445 121.5 L 445 133.5 L 444 134.5 L 444 144 Q 461.1 144.2 469 154.5 Q 471.6 157.4 471 163.5 Q 469.1 173.1 461.5 177 Q 450.8 183.5 435 184 L 433 197 L 467.5 203 L 481.5 207 L 487 210 L 489 213.5 L 489 220.5 L 486 226 L 481.5 229 L 468.5 233 L 443.5 233 L 423.5 229 Q 403.3 247.8 376 259.5 L 424.5 269 L 433.5 272 L 440 277.5 Q 442.7 280.8 442 287.5 Q 440.1 295.1 434.5 299 L 423.5 305 L 405.5 310 L 391.5 311 L 390.5 312 L 357.5 312 L 356.5 311 L 346.5 311 L 334 309 L 343.5 325 L 357.5 322 L 380.5 322 Q 388.1 323.9 392 329.5 L 393 338.5 L 388 351.5 L 373.5 368 L 359.5 378 L 335.5 390 L 317.5 397 L 284.5 407 L 248.5 415 L 229.5 417 L 228.5 418 L 209.5 419 L 208.5 420 L 181.5 420 L 155.5 415 L 144.5 410 L 132 401 L 124 388.5 L 122 380 L 108.5 381 L 107.5 382 L 98.5 382 L 97.5 383 L 72.5 383 L 71.5 382 L 59.5 381 L 46.5 377 Q 36.8 372.8 30 365.5 L 23 354.5 L 22 342.5 L 26 336 L 39.5 329 L 60.5 323 L 69 322 L 85 297.5 Q 75 292 68 283.5 L 59 266.5 L 57 256.5 L 57 245.5 L 59 235.5 L 62 228.5 Q 51.3 216.7 44 201.5 L 40 190.5 L 40 177.5 L 44.5 171 Q 48.8 166.8 57.5 167 Q 67.9 170 73 178.5 Q 80.5 188.9 84.5 203 L 94 196.5 L 76 134 L 53.5 127 L 46 121.5 Q 42 117.5 42 109.5 L 49.5 100 L 61.5 95 L 71.5 93 L 78.5 93 L 79.5 92 Z M 86 97 L 85 98 L 69 99 L 52 105 L 48 110 L 52 113 L 70 119 L 158 140 L 162 140 L 174 134 L 185 133 L 186 132 L 202 132 L 219 135 L 233 140 L 250 152 L 303 160 L 304 161 L 311 161 L 333 165 L 339 165 L 340 166 L 348 166 L 365 169 L 374 169 L 375 170 L 387 170 L 388 171 L 430 171 Q 431 168 438 170 L 458 165 L 465 160 L 464 157 L 455 151 L 418 144 L 412 144 L 405 142 L 385 140 L 378 138 L 358 136 L 351 134 L 331 132 L 324 130 L 297 127 L 290 125 L 270 123 L 242 118 L 236 118 L 229 116 L 203 113 L 197 111 L 184 110 L 134 101 L 114 99 L 113 98 L 86 97 Z M 421 106 L 407 112 L 392 135 L 402 137 L 408 137 L 409 138 L 415 138 L 439 142 L 439 119 L 436 112 Q 432 105 421 106 Z M 49 115 L 49 117 L 54 121 L 69 127 L 152 147 L 153 148 L 157 144 L 147 140 L 130 137 L 69 122 L 49 115 Z M 82 136 L 93 178 L 100 195 L 104 193 L 104 189 L 89 139 L 82 136 Z M 183 137 L 169 141 L 161 146 L 161 147 L 171 144 Q 210 142 231 158 Q 236 163 238 171 L 238 190 L 236 201 L 232 210 L 228 214 L 221 216 L 200 213 L 165 199 L 138 192 L 126 192 L 116 194 L 97 201 L 89 206 L 86 210 L 89 209 Q 109 207 119 217 Q 127 225 132 237 L 135 251 L 134 265 L 132 273 L 129 278 L 129 281 Q 138 288 142 299 L 167 298 L 192 293 L 203 288 L 208 283 L 198 278 L 191 271 L 192 263 L 200 256 L 213 252 L 236 248 L 242 248 L 243 247 L 260 246 L 261 245 L 272 245 L 273 244 L 286 244 L 287 245 L 354 228 L 356 226 L 358 216 L 364 199 L 355 196 L 324 193 L 323 192 L 315 192 L 314 191 L 313 194 Q 306 203 290 204 L 288 203 L 288 188 L 287 187 L 286 174 Q 284 170 279 171 L 281 182 Q 283 196 278 204 L 273 208 L 259 212 Q 251 214 248 211 L 245 208 L 246 191 L 247 190 L 247 177 L 248 176 L 247 162 L 244 156 L 236 147 L 223 141 L 205 137 L 183 137 Z M 94 139 L 110 191 L 118 188 L 131 186 Q 139 168 150 153 L 94 139 Z M 171 148 L 157 153 Q 144 168 136 188 L 150 191 L 153 191 L 151 186 Q 151 175 156 170 L 166 164 L 172 165 L 178 174 Q 179 186 173 193 L 168 197 L 210 211 L 224 211 L 226 210 L 231 203 L 234 188 L 234 172 L 231 165 Q 211 146 171 148 Z M 249 155 L 251 160 L 274 165 L 286 166 L 305 170 L 338 174 L 339 175 L 347 175 L 364 178 L 372 178 L 373 179 L 383 179 L 384 180 L 403 180 L 404 181 L 438 179 L 454 175 L 461 171 L 465 166 L 465 164 L 457 169 L 446 172 L 434 173 L 433 174 L 420 174 L 419 175 L 384 174 L 383 173 L 371 173 L 362 171 L 354 171 L 353 170 L 346 170 L 345 169 L 338 169 L 309 164 L 303 164 L 302 163 L 296 163 L 249 155 Z M 252 166 L 252 183 L 251 184 L 251 194 L 249 203 L 250 208 Q 263 208 273 203 L 276 199 L 277 194 L 277 185 L 274 170 L 252 166 Z M 165 167 L 161 169 Q 156 173 154 180 L 155 190 L 159 192 L 157 187 L 160 177 L 168 171 L 174 174 L 174 172 Q 172 167 165 167 Z M 54 172 L 51 173 L 45 180 L 45 190 L 54 210 L 76 237 Q 79 233 86 234 L 85 224 L 77 197 L 66 178 Q 62 172 54 172 Z M 290 173 L 292 184 L 292 199 Q 302 199 308 193 L 308 190 L 301 177 L 299 174 L 290 173 Z M 168 176 L 167 181 Q 168 183 172 182 Q 174 181 173 178 Q 172 175 168 176 Z M 307 176 L 311 185 L 317 187 L 352 190 L 357 183 L 307 176 Z M 363 183 L 357 192 L 365 194 L 368 185 Q 369 182 363 183 Z M 372 184 L 364 215 L 344 279 L 349 281 L 351 280 L 353 277 L 380 185 L 372 184 Z M 386 185 L 383 190 L 381 199 L 386 202 L 388 205 L 389 204 L 392 186 L 386 185 Z M 427 185 L 426 186 L 395 186 L 392 205 L 410 200 L 427 198 L 429 191 L 429 185 L 427 185 Z M 423 202 L 402 206 L 395 209 L 417 214 L 439 218 L 446 218 L 447 219 L 470 219 L 479 217 L 483 215 L 481 212 L 475 210 Q 466 210 461 207 L 433 202 L 423 202 Z M 379 203 L 374 222 L 385 219 Q 388 217 387 210 L 379 203 Z M 392 211 L 392 216 L 417 223 L 439 227 L 446 227 L 447 228 L 466 228 L 480 224 L 484 219 L 484 217 L 480 220 L 470 222 L 446 222 L 438 220 L 432 220 L 392 211 Z M 93 212 L 87 213 L 89 224 L 91 225 L 99 225 L 105 228 Q 114 234 117 248 Q 119 259 115 265 L 126 276 L 129 270 L 131 260 Q 132 236 121 225 Q 115 218 107 214 L 93 212 Z M 391 220 Q 382 225 372 226 L 363 258 L 368 258 L 390 247 L 412 233 L 416 229 L 415 227 L 397 223 L 391 220 Z M 91 229 L 91 234 L 96 236 Q 105 241 104 256 L 110 260 Q 111 262 112 260 L 112 248 L 107 237 Q 102 229 91 229 Z M 353 231 L 349 233 L 296 247 L 347 255 L 354 232 L 353 231 Z M 65 234 L 63 241 L 63 249 L 62 250 Q 63 271 74 283 Q 83 293 99 296 L 100 297 L 96 285 L 95 283 L 90 283 L 83 280 L 68 264 L 65 257 L 66 248 L 71 239 L 65 234 Z M 83 238 L 78 240 Q 72 243 70 251 Q 69 259 73 263 L 83 268 L 92 267 L 99 258 Q 101 247 96 243 Q 93 237 83 238 Z M 279 248 L 278 249 L 263 249 L 262 250 L 253 250 L 252 251 L 230 253 L 206 258 L 200 261 L 197 265 L 224 273 L 285 287 L 325 294 L 331 294 L 332 295 L 349 296 L 350 297 L 361 297 L 362 298 L 389 298 L 390 297 L 405 296 L 424 291 L 434 286 Q 436 286 436 282 L 430 276 L 419 273 L 361 263 L 356 281 L 352 284 L 343 283 L 340 280 L 345 260 L 279 248 Z M 102 260 L 96 269 L 96 273 L 105 298 L 118 323 Q 123 331 134 333 L 140 331 L 144 326 L 144 314 L 141 306 Q 133 290 122 279 L 104 260 L 102 260 Z M 196 267 L 196 271 L 205 276 L 217 280 L 266 292 L 326 303 L 350 305 L 351 306 L 361 306 L 362 307 L 387 307 L 388 306 L 403 305 L 425 299 L 432 295 L 436 290 L 436 288 L 419 296 L 393 301 L 358 301 L 357 300 L 338 299 L 337 298 L 311 295 L 305 293 L 299 293 L 227 277 L 196 267 Z M 82 272 Q 84 277 91 279 L 94 279 L 92 275 L 92 272 L 82 272 Z M 212 283 L 209 287 Q 196 298 174 300 L 178 307 L 207 304 L 253 295 L 223 287 L 212 283 Z M 261 296 L 261 299 L 293 345 L 292 348 L 295 349 L 303 349 L 304 348 Q 305 344 303 345 L 273 305 L 269 297 L 261 296 Z M 90 299 L 69 330 L 69 332 L 72 333 L 77 332 L 96 302 L 90 299 Z M 277 299 L 277 302 L 298 332 L 324 328 L 325 327 L 314 308 L 311 305 L 300 304 L 277 299 Z M 251 300 L 226 306 L 201 309 L 200 310 L 182 311 L 179 312 L 187 331 L 217 325 L 226 322 L 235 321 L 265 313 L 258 301 L 251 300 Z M 167 301 L 162 303 L 186 365 L 184 368 L 189 370 Q 194 372 196 369 Q 198 370 197 367 L 194 365 L 170 304 Q 171 299 167 301 Z M 145 302 L 149 310 L 159 308 L 158 304 L 157 302 L 145 302 Z M 100 303 L 92 317 L 92 318 L 108 316 L 103 306 Q 104 301 100 303 Z M 320 307 L 336 336 L 335 338 L 339 340 Q 345 341 347 338 L 343 335 L 328 308 L 320 307 Z M 160 313 L 149 315 L 150 318 L 149 327 L 147 331 Q 143 336 136 338 L 132 338 L 123 334 L 111 320 L 86 324 L 82 333 L 78 336 Q 70 338 67 335 L 64 332 L 65 328 L 47 332 L 33 338 Q 28 341 27 346 L 35 349 L 48 350 L 49 351 L 61 351 L 62 350 L 75 350 L 76 349 L 93 348 L 169 335 L 162 315 L 160 313 Z M 264 316 L 236 324 L 190 333 L 187 335 L 193 350 L 217 346 L 226 343 Q 242 337 256 327 L 265 317 L 264 316 Z M 270 319 L 269 321 Q 259 333 244 340 L 244 341 L 267 338 L 280 335 L 270 319 Z M 359 327 L 346 329 L 350 336 L 350 340 L 346 343 L 337 343 L 333 341 L 329 332 L 327 333 L 304 336 L 302 338 L 308 346 L 308 349 L 301 353 L 292 351 L 285 340 L 228 349 L 222 351 L 216 351 L 210 353 L 204 353 L 195 356 L 201 368 L 200 370 L 193 374 L 185 372 L 181 368 L 179 358 L 147 365 L 132 372 L 128 378 L 134 381 L 149 384 L 179 384 L 180 383 L 198 382 L 259 371 L 345 349 L 378 338 L 386 334 L 387 332 L 385 329 L 379 327 L 359 327 Z M 386 337 L 374 343 L 353 350 L 295 366 L 291 366 L 274 371 L 232 380 L 202 384 L 201 385 L 194 385 L 193 386 L 184 386 L 183 387 L 147 387 L 131 383 L 128 382 L 128 385 L 132 393 Q 140 403 153 408 L 165 412 L 176 413 L 177 414 L 216 414 L 217 413 L 226 413 L 227 412 L 234 412 L 247 409 L 252 409 L 283 402 L 319 391 L 339 383 Q 358 375 373 362 Q 382 354 387 342 Q 389 336 386 337 Z M 166 338 L 122 347 L 116 347 L 88 352 L 80 352 L 79 353 L 68 353 L 67 354 L 47 354 L 46 353 L 38 353 L 29 350 L 27 350 L 31 359 Q 38 368 51 373 L 62 376 L 77 377 L 78 378 L 105 377 L 122 374 Q 125 375 124 373 Q 130 365 140 362 L 176 353 L 171 341 L 171 338 L 166 338 Z M 241 341 L 241 342 L 243 342 L 241 341 Z " /><path fill="rgb(0,0,0)" stroke="rgb(0,0,0)" stroke-width="0" opacity="1" d="M 168.5 152 L 176 154 L 177 158 L 168.5 156 L 161 159 L 164.5 154 L 168.5 152 Z " /><path fill="rgb(0,0,0)" stroke="rgb(0,0,0)" stroke-width="0" opacity="1" d="M 207.5 159 Q 215.6 158.9 218 164.5 L 219 168.5 Q 217.5 171.5 216 168.5 L 213.5 165 L 206.5 163 L 202.5 164 L 203 162.5 Q 202.3 160.3 204.5 161 L 207.5 159 Z " /><path fill="rgb(0,0,0)" stroke="rgb(0,0,0)" stroke-width="0" opacity="1" d="M 201.5 172 L 207.5 172 L 215 177.5 Q 219 182.5 217 193.5 Q 214.4 200.9 208.5 205 Q 205.6 207.6 199.5 207 Q 193 205.5 190 200.5 Q 186.9 196.1 188 187.5 Q 190.3 179.8 195.5 175 L 201.5 172 Z M 202 175 L 198 177 L 191 188 Q 189 200 197 203 L 198 203 L 195 195 L 199 184 L 205 180 L 211 181 L 214 184 L 213 181 L 207 175 L 202 175 Z M 208 185 Q 205 186 206 191 L 210 192 L 212 189 L 211 187 Q 212 184 208 185 Z " /></svg>