<svg width="627" height="627" preserveAspectRatio="xMidYMid meet" viewBox="0 0 512 512" version="1.1" xmlns="http://www.w3.org/2000/svg" ><path fill="rgb(255,255,255)" stroke="rgb(255,255,255)" stroke-width="0" opacity="1" d="M 0 0 L 512 0 L 512 512 L 0 512 L 0 0 Z M 382 91 L 381 92 L 343 93 L 342 94 L 307 97 L 306 98 L 299 98 L 298 99 L 244 106 L 242 104 L 237 98 L 228 95 L 216 96 L 209 100 L 205 106 L 179 105 L 178 104 L 160 104 L 159 103 L 104 103 L 103 104 L 93 104 L 77 107 L 66 112 L 61 118 L 61 124 L 63 127 L 73 132 L 88 135 L 129 135 L 130 134 L 150 133 L 151 132 L 158 132 L 159 131 L 191 127 L 206 123 L 212 128 L 214 128 L 215 130 L 215 146 L 209 146 L 199 149 L 194 155 L 192 157 L 181 157 L 151 165 Q 128 174 112 188 Q 95 203 85 224 L 71 257 Q 62 267 56 281 L 52 296 L 52 312 L 54 321 Q 58 332 65 341 Q 73 350 85 356 L 111 367 Q 106 374 104 384 L 88 383 L 72 372 L 63 373 L 58 380 L 61 390 L 71 398 L 80 402 L 89 404 L 104 404 L 105 403 L 119 402 L 143 397 L 154 396 L 170 392 L 175 392 L 212 384 L 215 396 L 207 398 L 196 398 L 183 393 Q 176 392 173 394 L 169 399 Q 168 407 172 411 L 182 417 L 195 420 L 205 420 L 206 419 L 219 418 L 253 410 L 285 401 L 323 387 L 329 380 Q 331 370 325 369 L 318 369 L 297 376 L 290 359 L 281 347 Q 292 343 301 334 Q 317 319 323 294 Q 372 269 414 236 L 427 238 L 428 255 L 434 269 Q 437 274 445 276 Q 452 277 456 273 Q 460 269 461 263 Q 461 252 457 245 L 443 229 L 445 223 Q 447 211 443 206 L 435 199 L 443 182 L 446 168 L 445 157 L 442 151 L 434 146 L 426 148 L 419 156 L 416 168 Q 415 180 417 187 Q 407 187 402 193 Q 394 200 391 212 L 387 215 L 372 216 L 371 217 L 328 217 L 319 215 L 306 195 Q 289 174 261 165 L 256 155 L 248 148 L 238 146 Q 233 146 233 146 L 233 130 L 244 121 L 254 123 L 275 124 L 276 125 L 300 126 L 301 127 L 316 127 L 317 128 L 337 128 L 338 129 L 369 129 L 370 128 L 396 127 L 417 123 L 429 118 L 435 111 L 434 103 L 426 96 L 415 93 L 382 91 Z " /><path fill="rgb(255,255,255)" stroke="rgb(255,255,255)" stroke-width="0" opacity="1" d="M 358.5 97 L 405.5 97 L 424.5 101 L 430 105.5 L 430 109.5 L 425.5 114 L 415.5 118 L 393.5 122 L 367.5 123 L 366.5 124 L 340.5 124 L 339.5 123 L 317.5 123 L 316.5 122 L 302.5 122 L 301.5 121 L 289.5 121 L 288.5 120 L 254.5 118 L 253.5 117 L 240.5 116 L 239 114.5 L 240.5 112 L 270.5 108 L 271.5 107 L 277.5 107 L 278.5 106 L 284.5 106 L 285.5 105 L 292.5 105 L 293.5 104 L 300.5 104 L 301.5 103 L 308.5 103 L 325.5 100 L 334.5 100 L 335.5 99 L 357.5 98 L 358.5 97 Z " /><path fill="rgb(255,255,255)" stroke="rgb(255,255,255)" stroke-width="0" opacity="1" d="M 221.5 100 L 233.5 102 L 239 107.5 Q 233.8 108.8 235 116.5 L 237 120.5 Q 232.1 127.1 218.5 125 L 211 122 L 208 116.5 L 208 109.5 L 212.5 103 L 221.5 100 Z " /><path fill="rgb(255,255,255)" stroke="rgb(255,255,255)" stroke-width="0" opacity="1" d="M 107.5 108 L 151.5 108 L 152.5 109 L 174.5 109 L 175.5 110 L 203 111 L 204 119 L 177.5 124 L 149.5 127 L 148.5 128 L 140.5 128 L 139.5 129 L 90.5 130 L 73.5 127 L 66 121.5 Q 65.3 115.8 69.5 115 L 86.5 110 L 106.5 109 L 107.5 108 Z " /><path fill="rgb(255,255,255)" stroke="rgb(255,255,255)" stroke-width="0" opacity="1" d="M 220 130 L 228 130 L 228 146 L 220 146 L 220 130 Z " /><path fill="rgb(255,255,255)" stroke="rgb(255,255,255)" stroke-width="0" opacity="1" d="M 215.5 150 L 226.5 150 L 227.5 151 L 243.5 152 Q 250 153.5 253 158.5 L 254 163 L 230.5 159 L 204.5 158 L 198 156.5 L 203.5 152 L 214.5 151 L 215.5 150 Z " /><path fill="rgb(255,255,255)" stroke="rgb(255,255,255)" stroke-width="0" opacity="1" d="M 430.5 151 Q 437.4 150.1 439 154.5 Q 442.3 159.2 441 168.5 Q 437.7 185 431 197 L 424.5 197 L 423 195.5 L 421 184.5 L 421 166.5 L 424 156.5 L 428.5 152 L 430.5 151 Z " /><path fill="rgb(255,255,255)" stroke="rgb(255,255,255)" stroke-width="0" opacity="1" d="M 181.5 162 L 221.5 163 L 222.5 164 L 231.5 164 L 254.5 168 Q 285.3 176.7 303 198.5 Q 316.2 215 320 240 L 322 239.5 L 322 231.5 L 319 220.5 L 320.5 221 Q 325.3 219.8 326.5 222 L 370.5 222 L 371.5 221 L 386.5 220 L 394 215.5 L 400 202.5 L 406.5 195 L 412.5 192 L 418 192 L 419 198.5 L 413 203.5 Q 407.3 209.3 408 221.5 L 412 232 L 405.5 235 L 362.5 266 L 324 288 L 324 274.5 L 325 271.5 L 324 265 L 321 266.5 L 320 286.5 L 315 304.5 Q 307.7 321.7 294.5 333 Q 283.5 342 269.5 348 L 240.5 357 L 207.5 363 L 172.5 366 L 172.5 365 Q 194.9 358.9 208 343.5 Q 218 332.5 224 317.5 L 228 303.5 L 230 284.5 L 228.5 282 L 226 286.5 L 225 300.5 L 219 320.5 Q 211.6 337.1 198.5 348 Q 188.3 356.8 174.5 362 L 158.5 366 L 141.5 366 L 140.5 365 L 131.5 365 L 114.5 362 L 95.5 356 Q 79 349 68 336.5 L 59 319.5 L 57 311.5 L 57 296.5 Q 60.4 276.4 71.5 264 L 77.5 271 L 86.5 274 L 91.5 274 L 109.5 278 L 115.5 278 L 116.5 279 L 141.5 281 L 142.5 282 L 181.5 284 L 182.5 283 L 196.5 282 Q 203.8 279.8 208 274.5 L 214 263.5 L 219 241.5 L 220 228.5 L 221 227.5 L 221 218.5 L 222 217.5 L 222 202.5 L 219 191.5 L 210.5 183 L 203.5 179 L 190.5 175 L 161.5 173 L 160.5 174 L 142.5 175 L 142.5 174 L 163.5 166 L 181.5 162 Z M 252 194 L 242 197 Q 236 201 234 209 L 231 241 L 230 242 L 230 251 L 229 252 L 229 261 L 228 262 L 228 280 L 229 282 L 236 287 L 257 286 L 263 284 L 279 282 L 288 278 L 291 274 L 293 264 L 293 253 L 292 252 L 291 235 L 288 221 L 282 206 L 273 197 L 260 194 L 252 194 Z M 274 293 L 267 296 L 263 302 L 264 306 L 268 309 L 272 310 L 285 307 L 289 301 L 288 297 L 285 293 L 274 293 Z M 88 309 L 82 314 L 84 316 L 86 315 Q 88 314 87 317 Q 96 330 116 333 Q 140 335 150 322 Q 152 323 151 321 L 155 317 L 157 319 L 159 318 L 158 316 L 153 311 L 149 311 L 151 316 L 140 325 L 131 328 Q 124 326 123 329 L 109 327 L 96 320 L 91 315 Q 87 313 91 311 Q 92 307 88 309 Z " /><path fill="rgb(255,255,255)" stroke="rgb(255,255,255)" stroke-width="0" opacity="1" d="M 155.5 178 L 175.5 178 L 176.5 179 L 190.5 180 L 205.5 185 L 214 192.5 L 217 200.5 L 217 220.5 L 216 221.5 L 215 237.5 L 210 260.5 Q 207.6 270.1 200.5 275 L 193.5 278 Q 188 276.5 186.5 279 L 169.5 279 L 168.5 278 L 153.5 278 L 152.5 277 L 141.5 277 L 140.5 276 L 108.5 273 L 82.5 268 L 77 264.5 Q 75.9 254.9 79 249.5 L 94 217.5 Q 103.1 201.6 116.5 190 L 130.5 182 L 145.5 179 L 154.5 179 L 155.5 178 Z M 118 203 L 114 205 L 109 211 L 109 213 L 112 213 L 120 208 L 127 210 L 128 208 Q 127 202 118 203 Z M 175 205 L 168 210 L 170 212 L 172 211 L 179 211 L 186 217 L 188 217 L 187 212 Q 184 205 175 205 Z M 115 222 L 111 224 L 103 233 L 100 243 L 100 249 L 103 257 Q 106 261 113 263 L 119 263 L 125 260 Q 131 255 133 246 Q 135 232 129 227 Q 126 220 115 222 Z M 170 224 L 164 226 Q 154 232 152 245 L 153 257 L 157 263 L 166 267 Q 173 268 177 265 Q 184 260 187 250 Q 189 236 183 231 Q 180 224 170 224 Z " /><path fill="rgb(255,255,255)" stroke="rgb(255,255,255)" stroke-width="0" opacity="1" d="M 249.5 199 L 267.5 200 L 277 206.5 L 281 213.5 L 285 226.5 L 285 231.5 L 287 238.5 L 287 246.5 L 288 247.5 L 288 267.5 L 287 271.5 L 282.5 276 L 265.5 280 L 237.5 283 L 233 279.5 L 232 268.5 L 233 267.5 L 233 256.5 L 234 255.5 L 234 246.5 L 235 245.5 L 238 212.5 L 239 207.5 L 243.5 201 L 249.5 199 Z " /><path fill="rgb(255,255,255)" stroke="rgb(255,255,255)" stroke-width="0" opacity="1" d="M 427.5 201 L 437 205.5 L 440 210.5 L 441 218.5 Q 439.3 227.8 432.5 232 Q 429 234.5 421.5 233 L 415 227.5 Q 411.7 222.8 413 213.5 Q 415.3 206.8 420.5 203 L 427.5 201 Z M 426 207 Q 420 209 419 216 Q 418 222 421 225 L 426 228 L 433 227 L 437 221 Q 438 212 435 209 L 432 207 L 426 207 Z " /><path fill="rgb(255,255,255)" stroke="rgb(255,255,255)" stroke-width="0" opacity="1" d="M 426.5 211 Q 432 210 433 213.5 Q 433.9 220.3 432 223 L 426.5 224 L 424 223 L 423 215.5 L 426.5 211 Z " /><path fill="rgb(255,255,255)" stroke="rgb(255,255,255)" stroke-width="0" opacity="1" d="M 116.5 225 Q 125.4 224.6 128 230.5 L 129 234.5 L 125.5 232 L 119.5 231 L 112 237.5 Q 108.8 241.8 109 249.5 L 114 259.5 L 112.5 259 L 110.5 259 L 105 253.5 Q 102.6 248.4 104 239.5 Q 105.4 231.9 110.5 228 L 116.5 225 Z " /><path fill="rgb(255,255,255)" stroke="rgb(255,255,255)" stroke-width="0" opacity="1" d="M 168.5 228 Q 178.9 226.6 181 233.5 L 183 238.5 L 179.5 236 L 170.5 235 L 165 239.5 L 162 245.5 Q 163.3 250.2 161 251.5 L 162 256.5 L 167 263.5 L 165.5 263 Q 160 262.6 158 258.5 L 156 254.5 L 155 246.5 L 157 238.5 L 162.5 231 L 168.5 228 Z " /><path fill="rgb(255,255,255)" stroke="rgb(255,255,255)" stroke-width="0" opacity="1" d="M 439.5 232 Q 453.7 240.8 456 261.5 L 452.5 269 Q 450.8 271.8 445.5 271 L 438 265.5 L 433 254.5 L 431 237 Q 436.6 236.3 439.5 232 Z " /><path fill="rgb(255,255,255)" stroke="rgb(255,255,255)" stroke-width="0" opacity="1" d="M 122.5 236 Q 126.5 235.5 127 238.5 L 126 244 Q 121.4 245.3 120 242.5 Q 119 237 122.5 236 Z " /><path fill="rgb(255,255,255)" stroke="rgb(255,255,255)" stroke-width="0" opacity="1" d="M 175.5 240 Q 179.3 239.3 180 241.5 Q 181.3 246.8 178.5 248 Q 173.1 249.9 174 246.5 L 173 243.5 L 175.5 240 Z " /><path fill="rgb(255,255,255)" stroke="rgb(255,255,255)" stroke-width="0" opacity="1" d="M 274.5 297 L 283.5 297 L 285 298.5 L 284 303 L 271.5 306 L 268 305 L 267 301.5 L 274.5 297 Z " /><path fill="rgb(255,255,255)" stroke="rgb(255,255,255)" stroke-width="0" opacity="1" d="M 274.5 350 L 281 354.5 Q 289.2 364.2 293 378.5 L 285.5 381 L 279 365.5 L 268.5 354 L 267 353.5 L 274.5 350 Z " /><path fill="rgb(255,255,255)" stroke="rgb(255,255,255)" stroke-width="0" opacity="1" d="M 259.5 356 L 264.5 357 L 271 362.5 Q 277.6 369.8 279 381 L 233 392 L 230 379.5 Q 233.7 378.7 233 373.5 Q 230.9 369.9 226 370 L 224 365.5 L 226.5 364 L 248.5 360 L 259.5 356 Z " /><path fill="rgb(255,255,255)" stroke="rgb(255,255,255)" stroke-width="0" opacity="1" d="M 217.5 365 L 220 367.5 L 225 378.5 L 229 393.5 L 227.5 395 L 219 396 Q 217.9 378.3 209 367.5 L 217.5 365 Z " /><path fill="rgb(255,255,255)" stroke="rgb(255,255,255)" stroke-width="0" opacity="1" d="M 116.5 367 L 124 368 Q 119.3 374.3 118 384 L 110.5 384 L 109.5 385 L 109 382.5 L 116.5 367 Z " /><path fill="rgb(255,255,255)" stroke="rgb(255,255,255)" stroke-width="0" opacity="1" d="M 130.5 369 L 131.5 370 L 141.5 370 L 142.5 371 L 180.5 371 L 187 370 Q 188.1 372.7 185.5 372 L 172.5 375 L 159.5 376 L 138.5 380 L 131.5 380 L 124.5 382 L 124 378.5 L 130.5 369 Z " /><path fill="rgb(255,255,255)" stroke="rgb(255,255,255)" stroke-width="0" opacity="1" d="M 193.5 369 Q 199.3 367.3 198 371 L 191.5 372 L 193.5 369 Z " /><path fill="rgb(255,255,255)" stroke="rgb(255,255,255)" stroke-width="0" opacity="1" d="M 202.5 374 Q 208.6 372.8 208 375.5 L 210 378.5 L 208.5 380 L 194.5 382 L 189.5 384 L 179.5 385 L 174.5 387 L 169.5 387 L 147.5 392 L 130.5 394 L 124.5 396 L 104.5 398 L 103.5 399 L 89.5 399 Q 88.3 396.7 83.5 398 L 71.5 393 L 65 386.5 L 63 379.5 Q 64.3 375.8 70.5 377 L 82.5 386 L 87.5 388 Q 95.8 390.7 108.5 389 L 109.5 388 L 117.5 388 L 118.5 387 L 125.5 387 L 132.5 385 L 151.5 383 L 152.5 382 L 158.5 382 L 184.5 377 L 190.5 377 L 202.5 374 Z " /><path fill="rgb(255,255,255)" stroke="rgb(255,255,255)" stroke-width="0" opacity="1" d="M 318.5 374 Q 323 373 324 375.5 Q 325 381 321.5 382 L 293.5 393 L 251.5 405 L 217.5 413 L 205.5 414 L 204.5 415 L 194.5 415 L 182.5 412 L 175 406.5 L 174 399.5 L 179.5 397 Q 188.8 404.2 206.5 403 L 236.5 397 L 269.5 388 L 273.5 388 L 305.5 379 L 318.5 374 Z " /><path fill="rgb(0,0,0)" stroke="rgb(0,0,0)" stroke-width="0" opacity="1" d="M 381.5 91 L 414.5 93 L 425.5 96 L 434 102.5 L 435 110.5 L 428.5 118 L 416.5 123 L 395.5 127 L 369.5 128 L 368.5 129 L 337.5 129 L 336.5 128 L 316.5 128 L 315.5 127 L 300.5 127 L 299.5 126 L 275.5 125 L 274.5 124 L 253.5 123 L 243.5 121 L 233 129.5 L 233 145.5 Q 233 146.5 237.5 146 L 247.5 148 L 256 154.5 L 260.5 165 Q 289.3 173.7 306 194.5 L 318.5 215 L 327.5 217 L 370.5 217 L 371.5 216 L 386.5 215 L 391 211.5 Q 393.9 199.9 401.5 193 Q 406.9 187 417 187 Q 414.7 179.9 416 167.5 L 419 155.5 L 425.5 148 L 433.5 146 L 442 150.5 L 445 156.5 L 446 167.5 L 443 181.5 L 435 198.5 L 443 205.5 Q 446.7 211.3 445 222.5 L 443 228.5 L 457 244.5 Q 461 251.5 461 262.5 Q 459.8 269.3 455.5 273 Q 452.3 276.8 444.5 276 Q 437.3 274.2 434 268.5 L 428 254.5 L 427 238 L 413.5 236 Q 371.8 269.1 323 294 Q 317.3 319.1 300.5 334 Q 292.1 342.7 281 347 L 290 358.5 L 297 376 L 317.5 369 L 324.5 369 Q 330.5 370.5 329 379.5 L 322.5 387 L 284.5 401 L 252.5 410 L 218.5 418 L 205.5 419 L 204.5 420 L 194.5 420 L 181.5 417 L 172 410.5 Q 168 407 169 398.5 L 172.5 394 Q 175.7 391.7 182.5 393 L 195.5 398 L 206.5 398 L 215 395.5 L 212 384 L 174.5 392 L 169.5 392 L 153.5 396 L 142.5 397 L 118.5 402 L 104.5 403 L 103.5 404 L 88.5 404 L 79.5 402 L 70.5 398 L 61 389.5 L 58 379.5 L 62.5 373 L 71.5 372 L 87.5 383 L 104 384 Q 105.6 373.8 111 366.5 L 84.5 356 Q 73.1 349.9 65 340.5 Q 57.5 332.5 54 320.5 L 52 311.5 L 52 295.5 L 56 280.5 Q 61.6 266.6 71 256.5 L 85 223.5 Q 95.4 202.9 111.5 188 Q 128.2 173.7 150.5 165 L 180.5 157 L 191.5 157 L 194 154.5 L 198.5 149 L 208.5 146 L 215 146 L 215 129.5 L 213.5 128 L 211.5 128 L 205.5 123 L 190.5 127 L 158.5 131 L 157.5 132 L 150.5 132 L 149.5 133 L 129.5 134 L 128.5 135 L 87.5 135 L 72.5 132 L 63 127 L 61 123.5 L 61 117.5 L 65.5 112 L 76.5 107 L 92.5 104 L 102.5 104 L 103.5 103 L 158.5 103 L 159.5 104 L 177.5 104 L 178.5 105 L 205 106 L 208.5 100 L 215.5 96 L 227.5 95 L 236.5 98 L 242 103.5 L 243.5 106 L 297.5 99 L 298.5 98 L 305.5 98 L 306.5 97 L 341.5 94 L 342.5 93 L 380.5 92 L 381.5 91 Z M 359 97 L 358 98 L 336 99 L 335 100 L 326 100 L 309 103 L 302 103 L 301 104 L 294 104 L 293 105 L 286 105 L 285 106 L 279 106 L 278 107 L 272 107 L 271 108 L 241 112 L 239 115 L 241 116 L 254 117 L 255 118 L 289 120 L 290 121 L 302 121 L 303 122 L 317 122 L 318 123 L 340 123 L 341 124 L 367 124 L 368 123 L 394 122 L 416 118 L 426 114 L 430 110 L 430 106 L 425 101 L 406 97 L 359 97 Z M 222 100 L 213 103 L 208 110 L 208 117 L 211 122 L 219 125 Q 232 127 237 121 L 235 117 Q 234 109 239 108 L 234 102 L 222 100 Z M 108 108 L 107 109 L 87 110 L 70 115 Q 65 116 66 122 L 74 127 L 91 130 L 140 129 L 141 128 L 149 128 L 150 127 L 178 124 L 204 119 L 203 111 L 176 110 L 175 109 L 153 109 L 152 108 L 108 108 Z M 220 130 L 220 146 L 228 146 L 228 130 L 220 130 Z M 216 150 L 215 151 L 204 152 L 198 157 L 205 158 L 231 159 L 254 163 L 253 159 Q 250 154 244 152 L 228 151 L 227 150 L 216 150 Z M 431 151 L 429 152 L 424 157 L 421 167 L 421 185 L 423 196 L 425 197 L 431 197 Q 438 185 441 169 Q 442 159 439 155 Q 437 150 431 151 Z M 182 162 L 164 166 L 143 174 L 143 175 L 161 174 L 162 173 L 191 175 L 204 179 L 211 183 L 219 192 L 222 203 L 222 218 L 221 219 L 221 228 L 220 229 L 219 242 L 214 264 L 208 275 Q 204 280 197 282 L 183 283 L 182 284 L 143 282 L 142 281 L 117 279 L 116 278 L 110 278 L 92 274 L 87 274 L 78 271 L 72 264 Q 60 276 57 297 L 57 312 L 59 320 L 68 337 Q 79 349 96 356 L 115 362 L 132 365 L 141 365 L 142 366 L 159 366 L 175 362 Q 188 357 199 348 Q 212 337 219 321 L 225 301 L 226 287 L 229 282 L 228 280 L 228 262 L 229 261 L 231 233 L 233 224 L 234 209 L 237 202 L 242 197 L 252 194 L 267 195 L 275 198 Q 282 203 285 212 L 291 235 L 292 252 L 293 253 L 292 271 L 289 277 Q 285 281 279 282 L 263 284 L 257 286 L 250 286 L 249 287 L 236 287 L 234 286 L 229 283 L 230 285 L 228 304 L 224 318 Q 218 333 208 344 Q 195 359 173 365 L 173 366 L 208 363 L 241 357 L 270 348 Q 284 342 295 333 Q 308 322 315 305 L 320 287 L 321 267 L 324 265 L 325 272 L 324 275 L 324 288 L 363 266 L 406 235 L 412 232 L 408 222 Q 407 209 413 204 L 419 199 L 418 192 L 413 192 L 407 195 L 400 203 L 394 216 L 387 220 L 372 221 L 371 222 L 327 222 L 320 221 L 322 232 L 322 240 L 320 240 Q 316 215 303 199 Q 285 177 255 168 L 232 164 L 223 164 L 222 163 L 182 162 Z M 156 178 L 155 179 L 146 179 L 131 182 L 117 190 Q 103 202 94 218 L 79 250 Q 76 255 77 265 L 83 268 L 109 273 L 141 276 L 142 277 L 153 277 L 154 278 L 169 278 L 170 279 L 187 279 Q 188 277 194 278 L 201 275 Q 208 270 210 261 L 215 238 L 216 222 L 217 221 L 217 201 L 214 193 L 206 185 L 191 180 L 177 179 L 176 178 L 156 178 Z M 250 199 L 244 201 L 239 208 L 238 213 L 235 246 L 234 247 L 234 256 L 233 257 L 233 268 L 232 269 L 233 280 L 238 283 L 266 280 L 283 276 L 287 272 L 288 268 L 288 248 L 287 247 L 287 239 L 285 232 L 285 227 L 281 214 L 277 207 L 268 200 L 250 199 Z M 428 201 L 421 203 Q 415 207 413 214 Q 412 223 415 228 L 422 233 Q 429 235 433 232 Q 439 228 441 219 L 440 211 L 437 206 L 428 201 Z M 440 232 Q 437 236 431 237 L 433 255 L 438 266 L 446 271 Q 451 272 453 269 L 456 262 Q 454 241 440 232 Z M 275 350 L 267 354 L 269 354 L 279 366 L 286 381 L 293 379 Q 289 364 281 355 L 275 350 Z M 260 356 L 249 360 L 227 364 L 224 366 L 226 370 Q 231 370 233 374 Q 234 379 230 380 L 233 392 L 279 381 Q 278 370 271 363 L 265 357 L 260 356 Z M 218 365 L 209 368 Q 218 378 219 396 L 228 395 L 229 394 L 225 379 L 220 368 L 218 365 Z M 117 367 L 109 383 L 110 385 L 111 384 L 118 384 Q 119 374 124 368 L 117 367 Z M 131 369 L 124 379 L 125 382 L 132 380 L 139 380 L 160 376 L 173 375 L 186 372 Q 188 373 187 370 L 181 371 L 143 371 L 142 370 L 132 370 L 131 369 Z M 194 369 L 192 372 L 198 371 Q 199 367 194 369 Z M 203 374 L 191 377 L 185 377 L 159 382 L 153 382 L 152 383 L 133 385 L 126 387 L 119 387 L 118 388 L 110 388 L 109 389 Q 96 391 88 388 L 83 386 L 71 377 Q 64 376 63 380 L 65 387 L 72 393 L 84 398 Q 88 397 90 399 L 104 399 L 105 398 L 125 396 L 131 394 L 148 392 L 170 387 L 175 387 L 180 385 L 190 384 L 195 382 L 209 380 L 210 379 L 208 376 Q 209 373 203 374 Z M 319 374 L 306 379 L 274 388 L 270 388 L 237 397 L 207 403 Q 189 404 180 397 L 174 400 L 175 407 L 183 412 L 195 415 L 205 415 L 206 414 L 218 413 L 252 405 L 294 393 L 322 382 Q 325 381 324 376 Q 323 373 319 374 Z " /><path fill="rgb(0,0,0)" stroke="rgb(0,0,0)" stroke-width="0" opacity="1" d="M 117.5 203 Q 126.5 201.5 128 207.5 L 126.5 210 L 119.5 208 L 111.5 213 L 109 213 L 109 210.5 L 113.5 205 L 117.5 203 Z " /><path fill="rgb(0,0,0)" stroke="rgb(0,0,0)" stroke-width="0" opacity="1" d="M 174.5 205 Q 183.6 205.4 187 211.5 L 188 217 L 185.5 217 L 178.5 211 L 171.5 211 L 169.5 212 L 168 209.5 L 174.5 205 Z " /><path fill="rgb(0,0,0)" stroke="rgb(0,0,0)" stroke-width="0" opacity="1" d="M 425.5 207 L 431.5 207 L 435 209 Q 438 212.3 437 220.5 L 432.5 227 L 425.5 228 L 421 224.5 Q 418.2 221.8 419 215.5 Q 420.4 209.4 425.5 207 Z M 427 211 L 423 216 L 424 223 L 427 224 L 432 223 Q 434 220 433 214 Q 432 210 427 211 Z " /><path fill="rgb(0,0,0)" stroke="rgb(0,0,0)" stroke-width="0" opacity="1" d="M 114.5 222 Q 125.6 220.4 129 226.5 Q 134.5 232.5 133 245.5 Q 130.9 254.9 124.5 260 L 118.5 263 L 112.5 263 Q 106 261.5 103 256.5 L 100 248.5 L 100 242.5 L 103 232.5 L 110.5 224 L 114.5 222 Z M 117 225 L 111 228 Q 105 232 104 240 Q 102 255 111 259 L 113 259 L 109 250 Q 109 242 112 238 L 120 231 L 126 232 L 129 235 L 128 231 Q 125 225 117 225 Z M 123 236 Q 119 237 120 243 Q 121 245 126 244 L 127 239 Q 127 236 123 236 Z " /><path fill="rgb(0,0,0)" stroke="rgb(0,0,0)" stroke-width="0" opacity="1" d="M 169.5 224 Q 179.6 223.9 183 230.5 Q 188.5 236.5 187 249.5 Q 184.3 259.8 176.5 265 Q 172.9 267.9 165.5 267 L 157 263 L 153 256.5 L 152 244.5 Q 154.3 231.8 163.5 226 L 169.5 224 Z M 169 228 L 163 231 L 157 239 L 155 247 L 156 255 L 158 259 L 164 263 L 166 263 L 162 257 L 161 252 Q 163 250 162 246 L 165 240 L 171 235 L 180 236 L 183 239 L 181 234 Q 179 227 169 228 Z M 176 240 L 173 244 L 174 247 Q 173 250 179 248 Q 181 247 180 242 Q 179 239 176 240 Z " /><path fill="rgb(0,0,0)" stroke="rgb(0,0,0)" stroke-width="0" opacity="1" d="M 273.5 293 L 284.5 293 L 288 296.5 L 289 300.5 L 284.5 307 L 271.5 310 L 267.5 309 L 264 305.5 L 263 301.5 L 266.5 296 L 273.5 293 Z M 275 297 L 267 302 L 268 305 L 272 306 L 284 303 L 285 299 L 284 297 L 275 297 Z " /><path fill="rgb(0,0,0)" stroke="rgb(0,0,0)" stroke-width="0" opacity="1" d="M 87.5 309 Q 91.9 307.5 91 310.5 Q 87 312.5 91 314.5 L 95.5 320 L 108.5 327 L 122.5 329 Q 124.3 326.3 130.5 328 L 139.5 325 L 151 315.5 L 149 311 L 152.5 311 L 158 315.5 L 159 317.5 L 156.5 319 L 154.5 317 L 151 320.5 Q 151.8 322.8 149.5 322 Q 139.6 334.6 115.5 333 Q 96.4 329.6 87 316.5 Q 87.8 314.3 85.5 315 L 83.5 316 L 82 313.5 L 87.5 309 Z " /></svg>