<svg width="627" height="627" preserveAspectRatio="xMidYMid meet" viewBox="0 0 512 512" version="1.1" xmlns="http://www.w3.org/2000/svg" ><path fill="rgb(255,255,255)" stroke="rgb(255,255,255)" stroke-width="0" opacity="1" d="M 0 0 L 512 0 L 512 512 L 0 512 L 0 0 Z M 252 30 L 251 31 L 238 31 L 237 32 L 224 33 L 202 39 Q 176 48 158 64 Q 139 80 126 102 L 116 126 L 112 146 L 112 176 L 113 177 L 114 188 L 119 205 L 129 226 L 150 254 L 187 292 L 196 310 Q 195 312 198 311 L 200 317 L 201 327 L 212 380 L 210 390 L 209 391 L 198 391 L 196 392 L 190 399 Q 189 405 192 408 L 195 409 L 196 414 L 199 458 L 201 467 L 205 474 Q 210 478 219 480 L 238 480 L 239 481 L 293 480 L 303 477 Q 310 473 312 464 L 314 440 L 315 439 L 315 428 L 316 427 L 316 416 L 317 415 Q 316 408 319 409 L 322 405 Q 323 398 320 395 L 315 391 L 302 391 L 300 384 L 303 364 L 306 353 L 306 348 L 314 314 Q 313 310 316 311 L 326 291 L 365 251 L 382 228 L 391 211 L 397 193 L 400 178 L 400 170 L 401 169 L 400 143 L 394 119 Q 385 95 370 79 Q 349 54 317 41 L 290 33 L 277 32 L 276 31 L 252 30 Z " /><path fill="rgb(255,255,255)" stroke="rgb(255,255,255)" stroke-width="0" opacity="1" d="M 251.5 35 L 254 35.5 L 254 287.5 L 253.5 288 L 242.5 288 L 241.5 289 L 222.5 289 L 220 290 L 201 248.5 L 187 205.5 L 182 178.5 L 182 169.5 L 181 168.5 L 181 130.5 L 186 101.5 L 194 79.5 Q 203.1 59.1 219.5 46 L 233.5 38 L 239.5 36 L 250.5 36 L 251.5 35 Z " /><path fill="rgb(255,255,255)" stroke="rgb(255,255,255)" stroke-width="0" opacity="1" d="M 258.5 35 L 273.5 36 L 283.5 40 Q 295 46 303 55.5 L 315 72.5 Q 322.6 86.4 327 103.5 L 330 118.5 L 330 126.5 L 331 127.5 L 332 159.5 L 331 160.5 L 329 187.5 L 320 224.5 Q 308.3 259.8 291.5 290 L 290.5 289 L 257 288 L 257 40.5 L 258 37.5 Q 255.8 36.3 258.5 35 Z " /><path fill="rgb(255,255,255)" stroke="rgb(255,255,255)" stroke-width="0" opacity="1" d="M 224.5 38 L 226 38.5 Q 213.3 44.8 205 55.5 Q 175 92 177 160.5 L 178 161.5 L 178 172.5 L 179 173.5 L 180 188.5 L 188 221.5 Q 199.4 258.6 217 289.5 L 194 295 L 187 283.5 L 155 240.5 L 141 213.5 Q 134.2 197.8 131 178.5 Q 132.8 172.3 130 170.5 L 130 139.5 L 136 111.5 L 146 89.5 Q 156.5 72.5 171.5 60 Q 192.9 43.9 224.5 38 Z " /><path fill="rgb(255,255,255)" stroke="rgb(255,255,255)" stroke-width="0" opacity="1" d="M 287.5 38 L 313.5 45 L 328.5 52 Q 344 60.5 355 73.5 Q 369.4 90.1 377 113.5 L 382 135.5 L 383 165.5 L 382 166.5 L 381 180.5 L 376 200.5 L 363 230.5 L 347 255.5 L 317.5 295 L 296 290 L 318 240.5 L 329 204.5 L 333 183.5 L 334 167.5 L 335 166.5 L 335 131.5 L 334 130.5 L 334 123.5 L 333 122.5 L 333 115.5 L 331 105.5 L 323 81.5 Q 313.1 57.9 294.5 43 L 287.5 39 L 287.5 38 Z " /><path fill="rgb(255,255,255)" stroke="rgb(255,255,255)" stroke-width="0" opacity="1" d="M 151.5 76 L 149 79.5 Q 136.4 96.9 130 120.5 L 127 135.5 L 127 144.5 L 126 145.5 L 126 165.5 L 127 166.5 L 127 174.5 L 130 190.5 L 140 219.5 Q 151.8 244.7 169 264.5 L 150 246.5 Q 134.6 229.4 125 206.5 L 118 182.5 L 116 156.5 L 117 155.5 L 117 145.5 L 118 144.5 L 119 133.5 L 126 112.5 Q 135.7 91.2 151.5 76 Z " /><path fill="rgb(255,255,255)" stroke="rgb(255,255,255)" stroke-width="0" opacity="1" d="M 362.5 78 L 379 98.5 L 391 124.5 L 396 150.5 L 396 169.5 L 392 192.5 Q 387.3 209.8 379 223.5 Q 363.2 248.7 341.5 268 L 344 264.5 L 366 231.5 L 377 207.5 L 381 195.5 L 385 176.5 Q 383.3 170.3 386 168.5 L 386 140.5 L 385 139.5 L 384 127.5 L 378 106.5 Q 371.5 89.9 362.5 78 Z " /><path fill="rgb(255,255,255)" stroke="rgb(255,255,255)" stroke-width="0" opacity="1" d="M 238.5 292 L 289.5 293 L 290.5 294 L 298.5 294 L 308.5 296 L 315 299.5 L 313 307 L 302.5 310 L 286.5 311 L 285.5 312 L 226.5 312 L 225.5 311 L 209.5 310 L 200.5 308 L 199 306.5 L 197 299.5 L 207.5 295 L 221.5 294 L 222.5 293 L 237.5 293 L 238.5 292 Z " /><path fill="rgb(255,255,255)" stroke="rgb(255,255,255)" stroke-width="0" opacity="1" d="M 203 313 L 208 314 L 209 317.5 L 211 353.5 L 210 353.5 L 209 342.5 L 203 313 Z " /><path fill="rgb(255,255,255)" stroke="rgb(255,255,255)" stroke-width="0" opacity="1" d="M 308.5 313 L 309 317.5 L 303 342.5 L 301.5 354 L 301 344.5 L 302 343.5 L 302 330.5 L 303 329.5 L 303 319.5 L 304 314 L 308.5 313 Z " /><path fill="rgb(255,255,255)" stroke="rgb(255,255,255)" stroke-width="0" opacity="1" d="M 212 315 L 218.5 316 L 230.5 316 L 231.5 317 L 281.5 317 L 282.5 316 L 293.5 316 L 300 315 L 295.5 370 L 290 351.5 L 284.5 343 L 282.5 342 L 270 342 Q 269.5 331.7 263.5 326 L 261 327 L 255.5 319 L 252 321.5 L 248.5 329 L 246.5 328 Q 242 333.3 242 342 L 230.5 342 L 224 346.5 L 216.5 369 L 212 315 Z " /><path fill="rgb(255,255,255)" stroke="rgb(255,255,255)" stroke-width="0" opacity="1" d="M 254 324 Q 256.7 322.9 256 325.5 Q 259.7 328.6 260 334 Q 262.7 335.1 262 332.5 L 264 331.5 L 266 342 L 246.5 342 Q 245.5 342 246 337.5 L 247 334 L 251 335 L 254 324 Z " /><path fill="rgb(255,255,255)" stroke="rgb(255,255,255)" stroke-width="0" opacity="1" d="M 231.5 345 L 280.5 345 L 285 348.5 L 297 387.5 L 299 390.5 L 295 391 L 283 351.5 L 279.5 348 L 232.5 348 L 229 351.5 L 217 391 L 213 390.5 L 226 350.5 L 229.5 346 L 231.5 345 Z " /><path fill="rgb(255,255,255)" stroke="rgb(255,255,255)" stroke-width="0" opacity="1" d="M 233.5 351 Q 239.5 349.5 241 352.5 L 241 366.5 L 244.5 373 Q 247.3 372.4 246 378.5 L 247 383.5 L 250.5 387 L 261.5 387 L 265 383.5 L 266 373.5 Q 271 370.5 272 363.5 L 272 351 Q 278.3 349.5 280 353.5 L 291 391 L 221.5 391 L 221 388.5 L 230 358.5 L 233.5 351 Z " /><path fill="rgb(255,255,255)" stroke="rgb(255,255,255)" stroke-width="0" opacity="1" d="M 245.5 351 L 267.5 351 L 268 355 L 244.5 355 L 244 352.5 L 245.5 351 Z " /><path fill="rgb(255,255,255)" stroke="rgb(255,255,255)" stroke-width="0" opacity="1" d="M 211.5 355 L 212 357.5 L 211 357.5 L 211.5 355 Z " /><path fill="rgb(255,255,255)" stroke="rgb(255,255,255)" stroke-width="0" opacity="1" d="M 300.5 355 L 301 357.5 L 300 357.5 L 300.5 355 Z " /><path fill="rgb(255,255,255)" stroke="rgb(255,255,255)" stroke-width="0" opacity="1" d="M 244 358 L 267.5 358 L 268 363 L 244.5 363 L 244 358 Z " /><path fill="rgb(255,255,255)" stroke="rgb(255,255,255)" stroke-width="0" opacity="1" d="M 245.5 366 L 267 366.5 L 264.5 370 L 247.5 370 L 246 368.5 L 245.5 366 Z " /><path fill="rgb(255,255,255)" stroke="rgb(255,255,255)" stroke-width="0" opacity="1" d="M 250.5 373 L 251.5 374 L 260.5 374 L 262 373.5 L 261.5 377 L 250 377 L 250.5 373 Z " /><path fill="rgb(255,255,255)" stroke="rgb(255,255,255)" stroke-width="0" opacity="1" d="M 251 380 L 260.5 380 L 261 383 L 254.5 384 L 251 381.5 L 251 380 Z " /><path fill="rgb(255,255,255)" stroke="rgb(255,255,255)" stroke-width="0" opacity="1" d="M 200.5 395 L 311.5 395 L 317 398.5 Q 318.3 404.8 314.5 406 Q 304.2 407.3 297.5 405 L 296.5 406 L 255.5 406 L 251.5 405 L 248.5 406 L 246.5 405 L 245.5 406 L 232.5 406 Q 231.3 403.7 226.5 405 L 225.5 406 L 198.5 406 L 195 403.5 Q 193.8 397.3 197.5 396 L 200.5 395 Z " /><path fill="rgb(255,255,255)" stroke="rgb(255,255,255)" stroke-width="0" opacity="1" d="M 200 409 L 311.5 409 L 312 409.5 L 312 418.5 L 311 419.5 L 308 459.5 L 305 468.5 L 301.5 472 L 293.5 475 L 285.5 475 L 284.5 476 L 226.5 476 L 225.5 475 L 214.5 474 L 207 468.5 L 204 460.5 L 204 450.5 L 203 449.5 L 200 409 Z M 228 413 L 226 414 L 221 419 L 221 421 L 230 417 L 233 418 Q 236 419 237 417 Q 235 412 228 413 Z M 273 413 L 271 414 L 268 418 L 274 417 Q 280 417 283 421 Q 285 422 284 419 L 278 413 L 273 413 Z M 229 424 L 223 427 Q 218 431 217 438 L 220 448 L 227 452 Q 233 453 237 451 L 243 444 Q 245 434 241 430 L 234 424 L 229 424 Z M 272 424 L 267 426 L 260 435 Q 258 445 263 449 L 269 452 Q 276 454 280 451 L 286 442 Q 287 432 283 429 Q 280 424 272 424 Z M 236 456 L 233 460 L 236 460 Q 240 465 248 467 L 258 467 Q 265 465 270 460 Q 273 461 272 458 L 269 456 Q 265 455 266 459 L 257 464 Q 245 465 240 460 Q 237 459 239 458 Q 240 454 236 456 Z " /><path fill="rgb(255,255,255)" stroke="rgb(255,255,255)" stroke-width="0" opacity="1" d="M 228.5 427 L 233.5 427 L 240 432.5 L 238.5 432 L 229.5 431 L 224 438.5 L 224 443.5 L 227 448.5 L 225.5 448 L 222 445.5 L 220 437.5 L 222 431.5 L 224.5 429 L 228.5 427 Z " /><path fill="rgb(255,255,255)" stroke="rgb(255,255,255)" stroke-width="0" opacity="1" d="M 270.5 427 Q 278.5 426 281 430.5 L 282 432.5 L 280.5 432 L 272.5 431 L 268 434.5 Q 265.4 437.4 266 443.5 L 269 448.5 L 267.5 449 Q 261 446 263 434.5 L 268.5 428 L 270.5 427 Z " /><path fill="rgb(255,255,255)" stroke="rgb(255,255,255)" stroke-width="0" opacity="1" d="M 235.5 434 L 238 435 L 238 439 L 236.5 439 L 234.5 439 L 233 439 L 233 435 L 235.5 434 Z " /><path fill="rgb(255,255,255)" stroke="rgb(255,255,255)" stroke-width="0" opacity="1" d="M 277.5 434 L 280 435.5 Q 280.8 439.3 278.5 440 L 275 437.5 L 277.5 434 Z " /><path fill="rgb(0,0,0)" stroke="rgb(0,0,0)" stroke-width="0" opacity="1" d="M 251.5 30 L 275.5 31 L 276.5 32 L 289.5 33 L 316.5 41 Q 348.5 54.5 370 78.5 Q 385 95.5 394 118.5 L 400 142.5 L 401 168.5 L 400 169.5 L 400 177.5 L 397 192.5 L 391 210.5 L 382 227.5 L 365 250.5 L 326 290.5 L 315.5 311 Q 312.9 310.2 314 313.5 L 306 347.5 L 306 352.5 L 303 363.5 L 300 383.5 L 302 391 L 314.5 391 L 320 394.5 Q 323 397.5 322 404.5 L 318.5 409 Q 315.8 408.4 317 414.5 L 316 415.5 L 316 426.5 L 315 427.5 L 315 438.5 L 314 439.5 L 312 463.5 Q 310.1 473.1 302.5 477 L 292.5 480 L 238.5 481 L 237.5 480 L 218.5 480 Q 209.9 478.4 205 474 L 201 466.5 L 199 457.5 L 196 413.5 L 195 409 L 192 407.5 Q 189.2 404.8 190 398.5 L 195.5 392 L 197.5 391 L 208.5 391 L 210 389.5 L 212 379.5 L 201 326.5 L 200 316.5 L 197.5 311 Q 195.3 311.8 196 309.5 L 187 291.5 L 150 253.5 L 129 225.5 L 119 204.5 L 114 187.5 L 113 176.5 L 112 175.5 L 112 145.5 L 116 125.5 L 126 101.5 Q 138.5 79.5 157.5 64 Q 176.1 48.1 201.5 39 L 223.5 33 L 236.5 32 L 237.5 31 L 250.5 31 L 251.5 30 Z M 252 35 L 251 36 L 240 36 L 234 38 L 220 46 Q 203 59 194 80 L 186 102 L 181 131 L 181 169 L 182 170 L 182 179 L 187 206 L 201 249 L 220 290 L 223 289 L 242 289 L 243 288 L 254 288 L 254 288 L 254 36 L 252 35 Z M 259 35 Q 256 36 258 38 L 257 41 L 257 288 L 291 289 L 292 290 Q 308 260 320 225 L 329 188 L 331 161 L 332 160 L 331 128 L 330 127 L 330 119 L 327 104 Q 323 86 315 73 L 303 56 Q 295 46 284 40 L 274 36 L 259 35 Z M 220 39 Q 191 45 172 60 Q 156 72 146 90 L 136 112 L 130 140 L 130 171 Q 133 172 131 179 Q 134 198 141 214 L 155 241 L 187 284 L 194 295 L 217 290 Q 199 259 188 222 L 180 189 L 179 174 L 178 173 L 178 162 L 177 161 Q 175 92 205 56 Q 213 46 224 40 L 220 39 Z M 290 39 Q 290 42 295 43 Q 313 58 323 82 L 331 106 L 333 116 L 333 123 L 334 124 L 334 131 L 335 132 L 335 167 L 334 168 L 333 184 L 329 205 L 318 241 L 296 290 L 318 295 L 347 256 L 363 231 L 376 201 L 381 181 L 382 167 L 383 166 L 382 136 L 377 114 Q 369 90 355 74 Q 332 46 290 39 Z M 366 81 L 365 83 Q 373 93 378 107 L 384 128 L 385 140 L 386 141 L 386 169 Q 383 170 385 177 L 381 196 L 377 208 Q 365 240 344 264 L 345 265 Q 364 247 379 224 Q 387 210 392 193 L 396 170 L 396 151 L 391 125 L 379 99 L 366 81 Z M 147 82 Q 134 95 126 113 L 119 134 L 118 145 L 117 146 L 117 156 L 116 157 L 118 183 L 125 207 Q 135 229 150 247 L 166 262 Q 151 243 140 220 L 130 191 L 127 175 L 127 167 L 126 166 L 126 146 L 127 145 L 127 136 L 130 121 Q 136 99 147 84 L 147 82 Z M 239 292 L 238 293 L 223 293 L 222 294 L 208 295 L 197 300 L 199 307 L 201 308 L 210 310 L 226 311 L 227 312 L 286 312 L 287 311 L 303 310 L 313 307 L 315 300 L 309 296 L 299 294 L 291 294 L 290 293 L 239 292 Z M 203 313 L 209 343 L 210 354 L 211 354 L 209 318 L 208 314 L 203 313 Z M 309 313 L 304 314 L 303 320 L 303 330 L 302 331 L 302 344 L 301 345 L 302 354 L 303 343 L 309 318 L 309 313 Z M 212 315 L 217 369 L 224 347 L 231 342 L 242 342 Q 242 333 247 328 L 249 329 L 252 322 L 256 319 L 261 327 L 264 326 Q 270 332 270 342 L 283 342 L 285 343 L 290 352 L 296 370 L 300 315 L 294 316 L 283 316 L 282 317 L 232 317 L 231 316 L 219 316 L 212 315 Z M 254 324 L 251 335 L 247 334 L 246 338 Q 245 342 247 342 L 266 342 L 264 332 L 262 333 Q 263 335 260 334 Q 260 329 256 326 Q 257 323 254 324 Z M 232 345 L 230 346 L 226 351 L 213 391 L 217 391 L 229 352 L 233 348 L 280 348 L 283 352 L 295 391 L 299 391 L 297 388 L 285 349 L 281 345 L 232 345 Z M 234 351 L 230 359 L 221 389 L 222 391 L 291 391 L 280 354 Q 278 349 272 351 L 272 364 Q 271 371 266 374 L 265 384 L 262 387 L 251 387 L 247 384 L 246 379 Q 247 372 245 373 L 241 367 L 241 353 Q 240 350 234 351 Z M 246 351 L 244 353 L 245 355 L 268 355 L 268 351 L 246 351 Z M 212 355 L 211 358 L 212 358 L 212 355 Z M 301 355 L 300 358 L 301 358 L 301 355 Z M 244 358 L 245 363 L 268 363 L 268 358 L 244 358 Z M 246 366 L 246 369 L 248 370 L 265 370 L 267 367 L 246 366 Z M 251 373 L 250 377 L 262 377 L 262 374 L 261 374 L 252 374 L 251 373 Z M 251 380 L 251 382 L 255 384 L 261 383 L 261 380 L 251 380 Z M 201 395 L 198 396 Q 194 397 195 404 L 199 406 L 226 406 L 227 405 Q 231 404 233 406 L 246 406 L 247 405 L 249 406 L 252 405 L 256 406 L 297 406 L 298 405 Q 304 407 315 406 Q 318 405 317 399 L 312 395 L 201 395 Z M 200 409 L 203 450 L 204 451 L 204 461 L 207 469 L 215 474 L 226 475 L 227 476 L 285 476 L 286 475 L 294 475 L 302 472 L 305 469 L 308 460 L 311 420 L 312 419 L 312 410 L 312 409 L 200 409 Z " /><path fill="rgb(0,0,0)" stroke="rgb(0,0,0)" stroke-width="0" opacity="1" d="M 227.5 413 Q 235.1 411.9 237 416.5 Q 236.3 418.8 232.5 418 L 229.5 417 L 221 421 L 221 418.5 L 225.5 414 L 227.5 413 Z " /><path fill="rgb(0,0,0)" stroke="rgb(0,0,0)" stroke-width="0" opacity="1" d="M 272.5 413 L 277.5 413 L 284 418.5 Q 285.1 421.8 282.5 421 Q 279.7 417.3 273.5 417 L 268 418 L 270.5 414 L 272.5 413 Z " /><path fill="rgb(0,0,0)" stroke="rgb(0,0,0)" stroke-width="0" opacity="1" d="M 228.5 424 L 233.5 424 L 241 429.5 Q 244.7 433.8 243 443.5 L 236.5 451 Q 233.3 453.3 226.5 452 L 220 447.5 L 217 437.5 Q 218.3 430.8 222.5 427 L 228.5 424 Z M 229 427 L 225 429 L 222 432 L 220 438 L 222 446 L 226 448 L 224 444 L 224 439 L 230 431 Q 236 429 238 432 L 239 432 Q 237 426 229 427 Z M 236 434 L 233 435 L 233 439 L 235 439 L 237 439 L 238 439 L 238 435 L 236 434 Z " /><path fill="rgb(0,0,0)" stroke="rgb(0,0,0)" stroke-width="0" opacity="1" d="M 271.5 424 Q 279.8 423.8 283 428.5 Q 287.2 432.3 286 441.5 L 279.5 451 Q 276 453.5 268.5 452 L 263 448.5 Q 258.3 444.7 260 434.5 L 266.5 426 L 271.5 424 Z M 271 427 L 269 428 L 263 435 Q 261 446 268 449 L 269 449 L 266 444 Q 265 437 268 435 L 273 431 Q 278 430 280 432 Q 282 433 281 431 Q 278 426 271 427 Z M 278 434 L 275 438 L 279 440 Q 281 439 280 436 L 278 434 Z " /><path fill="rgb(0,0,0)" stroke="rgb(0,0,0)" stroke-width="0" opacity="1" d="M 235.5 456 Q 239.9 454.5 239 457.5 Q 236.8 458.8 239.5 460 Q 244.8 465.2 256.5 464 L 266 458.5 Q 264.8 454.8 268.5 456 L 272 458 Q 273.3 461 269.5 460 Q 265.3 465.3 257.5 467 L 247.5 467 Q 239.6 465.4 235.5 460 L 233 460 L 235.5 456 Z " /></svg>