<svg width="1254" height="1254" preserveAspectRatio="xMidYMid meet" viewBox="0 0 512 512" version="1.1" xmlns="http://www.w3.org/2000/svg" ><path fill="rgb(255,255,255)" stroke="rgb(255,255,255)" stroke-width="0" opacity="1" d="M 0 0 L 512 0 L 512 512 L 0 512 L 0 0 Z M 73 63 L 72 64 L 60 65 L 52 69 L 47 75 L 48 82 L 57 89 L 66 91 L 69 93 L 74 93 L 77 95 L 82 95 L 87 97 L 92 97 L 114 102 L 134 104 L 140 106 L 149 106 L 169 110 L 180 110 L 181 112 L 155 114 L 154 115 L 124 118 L 123 119 L 113 119 L 93 123 L 87 123 L 63 128 L 52 133 Q 46 135 47 145 L 53 150 L 65 153 L 85 153 L 86 152 L 104 150 Q 106 147 113 148 L 116 146 L 121 146 L 132 142 L 137 142 L 140 140 L 145 140 L 152 137 L 171 133 L 174 131 L 178 131 L 181 129 L 192 127 L 200 124 Q 204 123 205 127 L 204 131 L 205 133 L 204 134 L 198 134 L 190 136 L 182 140 Q 173 146 169 158 L 168 159 L 161 159 Q 154 162 145 162 L 126 168 L 109 177 L 90 193 Q 67 214 53 245 L 42 275 L 40 291 L 37 295 L 34 304 L 32 314 L 32 322 L 31 323 L 31 331 L 33 338 L 33 343 L 44 365 L 63 381 L 70 385 L 92 394 L 87 407 L 70 407 L 60 403 L 52 397 L 44 398 L 39 404 Q 38 411 41 415 L 54 425 L 63 428 L 77 429 L 78 430 L 97 428 L 98 427 L 106 427 L 148 419 L 148 426 L 152 432 Q 159 440 170 444 L 188 448 L 199 448 L 200 447 L 216 446 L 247 440 L 252 440 L 257 438 L 263 438 L 278 434 L 284 434 L 299 430 L 304 430 L 308 428 L 313 428 L 334 423 L 350 415 L 355 408 L 355 401 L 353 397 L 348 394 L 342 394 Q 332 401 319 404 L 311 386 L 303 373 L 316 368 L 334 354 L 348 336 L 357 319 L 357 316 L 359 314 L 363 300 L 364 291 L 377 284 L 415 271 L 417 277 L 430 296 Q 434 303 444 306 L 452 306 L 461 303 L 465 298 L 465 287 Q 462 283 463 276 L 466 277 L 473 276 L 480 268 L 480 259 L 474 250 L 469 247 L 469 246 Q 473 245 475 248 L 480 245 L 480 238 L 479 237 L 477 240 Q 467 241 461 238 Q 458 237 459 234 Q 464 227 473 224 L 479 228 L 480 228 L 480 220 L 477 217 L 474 217 L 463 223 L 474 164 L 472 157 L 466 151 L 461 150 L 449 151 L 442 155 L 434 165 L 413 208 L 409 214 L 394 213 L 393 212 L 379 212 L 369 210 L 356 210 L 355 209 L 343 208 L 330 193 L 320 183 L 298 170 L 281 164 L 276 164 L 267 162 L 261 148 L 251 138 L 240 135 L 233 135 Q 231 132 232 126 L 235 125 L 238 125 L 256 133 L 259 133 L 304 150 L 325 155 L 328 157 Q 334 156 337 159 L 345 159 L 346 160 L 360 160 L 371 157 L 376 151 Q 377 145 374 143 L 365 136 L 352 132 L 258 115 L 282 113 L 283 112 L 301 112 L 312 110 L 329 110 L 338 108 L 350 108 L 359 106 L 369 106 L 376 104 L 384 104 Q 390 101 400 101 L 414 96 L 420 89 L 419 81 L 413 75 L 396 71 L 382 71 L 373 73 L 365 73 L 359 75 L 352 75 L 347 77 L 341 77 L 326 81 L 321 81 L 317 83 L 297 86 L 292 88 L 287 88 L 283 90 L 278 90 L 265 94 L 251 96 L 243 99 Q 237 89 225 87 L 210 88 L 200 96 L 189 94 L 174 88 L 160 85 L 138 77 L 134 77 L 131 75 L 127 75 L 124 73 L 120 73 L 109 69 L 105 69 L 97 66 L 86 64 Q 77 65 73 63 Z " /><path fill="rgb(255,255,255)" stroke="rgb(255,255,255)" stroke-width="0" opacity="1" d="M 65.5 70 L 77.5 70 L 78.5 71 L 85.5 71 Q 87 73.5 92.5 72 L 96.5 74 L 101.5 74 L 104.5 76 L 108.5 76 L 129.5 82 L 136.5 85 L 153.5 89 L 174.5 97 L 178.5 97 L 181.5 99 L 194.5 102 L 197 104.5 L 193.5 106 L 192.5 105 L 174.5 104 L 165.5 102 L 138.5 100 L 137.5 99 L 124.5 98 L 119.5 96 L 113.5 96 L 108.5 94 L 91.5 92 L 80.5 88 L 75.5 88 L 59.5 83 L 53 77.5 L 56.5 73 L 62.5 72 L 65.5 70 Z " /><path fill="rgb(255,255,255)" stroke="rgb(255,255,255)" stroke-width="0" opacity="1" d="M 382.5 78 L 397.5 78 L 409.5 81 L 414 84.5 L 414 86.5 L 409.5 91 L 401.5 94 L 387.5 96 L 382.5 98 L 374.5 98 L 368.5 100 L 358.5 100 L 350.5 102 L 326.5 103 L 317.5 105 L 301.5 105 L 300.5 106 L 284.5 106 L 283.5 107 L 261.5 107 L 260.5 108 Q 249.7 106.3 243.5 109 L 242 106.5 L 245.5 104 L 265.5 101 L 278.5 97 L 283.5 97 L 287.5 95 L 293.5 95 L 297.5 93 L 311.5 91 L 315.5 89 L 320.5 89 L 325.5 87 L 330.5 87 L 335.5 85 L 340.5 85 L 353.5 82 L 360.5 82 L 366.5 80 L 381.5 79 L 382.5 78 Z " /><path fill="rgb(255,255,255)" stroke="rgb(255,255,255)" stroke-width="0" opacity="1" d="M 216.5 94 L 227.5 95 L 234 99.5 Q 237.7 103.8 236 113.5 L 230.5 121 L 215.5 120 Q 214 122.5 208.5 121 L 204 117.5 Q 200.9 113.1 202 104.5 L 207.5 97 L 216.5 94 Z " /><path fill="rgb(255,255,255)" stroke="rgb(255,255,255)" stroke-width="0" opacity="1" d="M 189.5 117 L 197 117.5 L 195.5 119 L 187.5 120 L 184.5 122 L 167.5 126 L 164.5 128 L 160.5 128 L 149.5 132 L 144.5 132 L 141.5 134 L 137.5 134 L 133.5 136 L 100.5 144 L 89.5 145 L 88.5 146 L 63.5 146 Q 62.3 143.8 57.5 145 L 54 143 Q 53 138.3 56.5 137 L 75.5 131 Q 82.9 131.9 86.5 129 L 94.5 129 L 99.5 127 L 109.5 127 L 114.5 125 Q 124.1 126.1 129.5 123 L 138.5 123 L 147.5 121 L 156.5 121 L 164.5 119 L 175.5 119 L 176.5 118 L 188.5 118 L 189.5 117 Z " /><path fill="rgb(255,255,255)" stroke="rgb(255,255,255)" stroke-width="0" opacity="1" d="M 240.5 119 L 272.5 123 L 289.5 127 L 296.5 127 L 300.5 129 L 317.5 131 L 331.5 135 L 340.5 136 L 353.5 140 L 357.5 140 L 366.5 144 L 370 147.5 L 367.5 151 L 360.5 153 L 341.5 153 L 327.5 149 L 323.5 149 L 313.5 145 L 309.5 145 L 306.5 143 L 282.5 136 L 247.5 122 L 241.5 121 L 240.5 119 Z " /><path fill="rgb(255,255,255)" stroke="rgb(255,255,255)" stroke-width="0" opacity="1" d="M 224.5 127 L 227 133.5 L 224.5 135 L 223.5 134 L 211 134 Q 209.8 129.4 212.5 128 L 223.5 128 L 224.5 127 Z " /><path fill="rgb(255,255,255)" stroke="rgb(255,255,255)" stroke-width="0" opacity="1" d="M 200.5 141 L 239.5 142 L 250.5 146 L 254 149.5 L 260 160.5 L 260 165 L 182.5 165 L 181.5 164 L 175 164 Q 176.8 152.5 184.5 146 L 193.5 142 Q 199 143.5 200.5 141 Z " /><path fill="rgb(255,255,255)" stroke="rgb(255,255,255)" stroke-width="0" opacity="1" d="M 452.5 157 L 463.5 158 L 467 161.5 L 466 174.5 L 464 178.5 L 462 192.5 L 460 197.5 L 460 202.5 L 458 206.5 L 458 212.5 L 456 219 L 446.5 218 L 444.5 219 L 434.5 211 L 428.5 211 L 421 217.5 Q 421.7 220.1 419 219 L 419 217 Q 415.2 218.5 416 215.5 L 438 171.5 L 442 164.5 L 447.5 159 L 452.5 157 Z " /><path fill="rgb(255,255,255)" stroke="rgb(255,255,255)" stroke-width="0" opacity="1" d="M 162.5 166 L 167.5 166 L 170.5 169 L 181.5 171 L 240.5 172 Q 251.5 176.5 258 185.5 L 264 194.5 L 273 215.5 L 273 220.5 L 275 225.5 L 275 231.5 L 277 236.5 L 277 243.5 L 279 251.5 L 280 275.5 L 282.5 278 L 289.5 279 L 296.5 277 L 304 271.5 L 308 263.5 L 308 245.5 L 307 244.5 L 306 231.5 L 301 212.5 Q 298.4 205.1 292.5 201 L 288.5 199 L 273.5 198 L 270.5 199 Q 264 184.5 252.5 175 L 248 172.5 L 263.5 171 Q 264.5 168 269.5 169 L 288.5 174 L 302.5 180 Q 318.8 188.8 330 202.5 L 350.5 235 Q 354.7 236.3 353 231.5 L 346 216 L 362.5 217 L 363.5 218 L 386.5 219 L 387.5 220 L 414.5 221 L 416.5 222 L 419 221 L 419 228.5 Q 421.3 235.3 426.5 239 L 436 243 Q 437.1 245.7 434.5 245 Q 425.1 248.1 419 254.5 L 415.5 263 L 412.5 265 L 388.5 272 L 386.5 274 L 383.5 274 L 364.5 282 L 363 280.5 Q 364.7 273.8 361.5 272 L 359 272.5 L 359 281.5 L 355.5 298 L 355 283.5 L 353.5 282 L 348.5 281 L 343.5 282 L 342 279.5 L 342 277.5 L 342 262.5 L 339.5 260 L 337.5 259 L 336.5 260 L 322.5 261 L 319 264.5 L 319 283.5 L 320 284.5 L 316.5 287 L 306.5 288 L 303 290.5 L 302 292.5 L 302 316.5 L 307.5 319 L 319 317 L 318 323.5 L 318 335.5 Q 318.8 338.8 323.5 338 L 337.5 334 L 339 332.5 L 341 325.5 L 342 312 L 351.5 310 L 351 311.5 Q 344 335.5 327.5 350 Q 314.9 362.9 295.5 369 Q 294 365.5 287.5 367 L 278 373.5 L 277 377 L 252.5 383 L 240.5 384 L 209.5 390 L 201.5 384 L 191.5 384 L 184 388 L 181.5 393 L 178.5 392 L 177.5 393 L 140.5 393 L 139.5 392 L 123.5 392 L 91.5 386 L 69.5 377 Q 59.2 371.8 52 363.5 L 44 351.5 L 40 339.5 L 39 317.5 L 42 301.5 L 45 293.5 L 47.5 291 L 49.5 292 L 50.5 291 L 58.5 291 L 59.5 292 L 100.5 292 L 101.5 293 L 116.5 293 L 117.5 294 L 146.5 294 L 147.5 295 L 166.5 296 L 174.5 294 L 188 282.5 L 196 268.5 L 203 249.5 L 207 235.5 Q 206 227.5 209 223.5 L 209 214.5 L 207 206.5 L 200.5 197 L 189.5 191 L 174.5 187 L 168.5 187 L 161.5 185 L 123.5 185 L 104.5 189 L 104.5 188 L 116.5 180 L 131.5 173 L 144.5 169 Q 150.6 169.6 153.5 167 L 161.5 167 L 162.5 166 Z M 232 197 L 226 200 L 222 206 L 222 229 L 218 248 L 214 262 L 210 270 L 210 273 L 204 284 L 202 291 L 205 298 L 214 301 L 216 300 L 231 300 L 237 298 L 242 298 L 256 294 L 263 290 L 268 283 L 270 274 L 269 249 L 268 248 L 268 240 L 266 233 L 266 228 L 261 209 L 257 202 L 250 197 L 232 197 Z M 279 283 L 279 295 L 277 302 L 277 315 Q 274 319 275 328 L 273 331 L 273 336 L 271 343 L 264 357 L 256 365 L 248 369 L 245 369 L 243 371 L 239 371 L 226 375 L 215 375 L 214 376 L 198 376 L 197 379 L 200 380 L 229 379 L 248 374 L 259 368 L 270 356 L 278 335 L 278 330 L 281 318 L 281 311 L 282 310 L 282 285 L 279 283 Z M 57 305 L 51 308 L 44 320 Q 42 332 47 339 L 55 345 Q 62 347 66 344 L 71 338 L 73 329 L 71 316 L 68 311 Q 65 305 57 305 Z M 134 307 L 127 310 L 121 316 L 118 322 Q 120 327 117 329 L 118 339 L 120 343 Q 124 349 132 351 Q 140 352 145 348 Q 152 343 154 333 L 154 326 L 151 317 Q 146 308 134 307 Z M 77 351 L 75 353 Q 74 357 77 359 Q 81 365 91 367 Q 101 368 106 364 Q 111 361 112 354 Q 111 350 108 351 L 105 356 L 99 360 L 90 360 L 85 358 L 80 353 L 77 351 Z " /><path fill="rgb(255,255,255)" stroke="rgb(255,255,255)" stroke-width="0" opacity="1" d="M 134.5 191 L 150.5 191 L 151.5 192 L 170.5 193 L 187.5 197 L 198 203 L 202 213.5 L 202 221.5 L 195 253.5 L 184 276.5 L 176.5 285 Q 172 288.5 164.5 289 L 159 288 Q 158.8 278 151.5 274 Q 145.8 268.2 132.5 270 L 127 274.5 Q 126.3 279.3 129.5 280 L 135.5 278 L 144.5 280 L 155 287.5 L 140.5 288 L 139.5 287 L 89.5 286 L 88.5 285 L 51.5 285 L 50 285.5 L 55.5 279 Q 57.8 275.8 64.5 277 L 68.5 278 Q 70.8 277.3 70 273.5 L 69 271 L 65.5 269 L 57.5 269 L 50.5 274 L 50 272.5 L 58 250.5 L 71 225.5 Q 81.5 209.5 95.5 197 L 111.5 193 L 133.5 192 L 134.5 191 Z " /><path fill="rgb(255,255,255)" stroke="rgb(255,255,255)" stroke-width="0" opacity="1" d="M 237.5 203 Q 249.7 201.3 254 207.5 L 258 220.5 Q 257.3 227.2 260 230.5 L 260 238.5 L 262 244.5 L 263 273.5 L 260 284 L 252.5 288 L 242.5 291 L 237.5 291 L 224.5 294 L 212.5 294 L 209 291.5 L 224 250.5 L 226 237.5 L 228 232.5 L 229 216.5 L 228 215.5 L 228 207.5 L 232.5 204 L 237.5 203 Z " /><path fill="rgb(255,255,255)" stroke="rgb(255,255,255)" stroke-width="0" opacity="1" d="M 276.5 204 Q 280 206.5 287.5 205 L 292 208.5 L 296 217.5 L 299 229.5 L 300 242.5 L 302 250.5 L 302 260.5 L 300 266.5 L 297.5 269 L 290.5 272 L 286 272 L 282 232.5 L 278 213.5 L 275 205.5 L 276.5 204 Z " /><path fill="rgb(255,255,255)" stroke="rgb(255,255,255)" stroke-width="0" opacity="1" d="M 430.5 217 Q 436 216 437 219.5 L 440 225.5 L 442 235.5 Q 441.3 237.8 437.5 237 L 429.5 234 L 427 231.5 Q 424.7 228.3 426 221.5 L 428 218 L 430.5 217 Z " /><path fill="rgb(255,255,255)" stroke="rgb(255,255,255)" stroke-width="0" opacity="1" d="M 448.5 224 Q 454.5 222.5 456 225.5 L 454 231 L 448.5 232 Q 445.8 230.8 447 225.5 L 448.5 224 Z " /><path fill="rgb(255,255,255)" stroke="rgb(255,255,255)" stroke-width="0" opacity="1" d="M 448.5 237 Q 454 236 455 239.5 L 456 247.5 L 452.5 252 L 449.5 253 L 445 250.5 L 443 244.5 L 445.5 239 L 448.5 237 Z " /><path fill="rgb(255,255,255)" stroke="rgb(255,255,255)" stroke-width="0" opacity="1" d="M 434.5 252 Q 440.6 250.8 440 253.5 Q 442.3 254.8 441 259.5 L 432.5 271 Q 425.7 271.9 423 270 Q 421.7 260.1 427.5 256 L 434.5 252 Z " /><path fill="rgb(255,255,255)" stroke="rgb(255,255,255)" stroke-width="0" opacity="1" d="M 460.5 252 Q 469.5 253 473 259.5 L 474 263.5 L 469.5 270 L 464.5 270 L 459 264.5 Q 456.2 261.8 457 255.5 L 460.5 252 Z " /><path fill="rgb(255,255,255)" stroke="rgb(255,255,255)" stroke-width="0" opacity="1" d="M 448.5 259 Q 451.1 258.2 450 261.5 L 454 269.5 L 456 277.5 L 458 294.5 L 457 297 L 451.5 299 L 443.5 299 L 437 293.5 L 427 277.5 L 428.5 278 Q 439.2 277.2 443 269.5 L 448 261.5 Q 445.8 260.3 448.5 259 Z " /><path fill="rgb(255,255,255)" stroke="rgb(255,255,255)" stroke-width="0" opacity="1" d="M 334.5 265 L 337 266.5 L 337 288 L 346.5 288 L 350 287 Q 351.4 298.1 347.5 305 L 337 308 L 336 310.5 L 335 329 L 324 331 L 325 327.5 L 325 312.5 Q 323.8 309.8 318.5 311 L 309.5 313 Q 306.8 311.8 308 306.5 L 309 305.5 L 309 294 L 317.5 292 L 322.5 292 L 325 289.5 L 326 286.5 L 325 285.5 L 325 267 L 334.5 265 Z " /><path fill="rgb(255,255,255)" stroke="rgb(255,255,255)" stroke-width="0" opacity="1" d="M 56.5 310 Q 63.4 309.1 65 313.5 Q 54.8 312.8 52 319.5 Q 49 323.5 50 331.5 L 52 336.5 L 50 335.5 L 48 324.5 L 50 316.5 L 54.5 311 L 56.5 310 Z " /><path fill="rgb(255,255,255)" stroke="rgb(255,255,255)" stroke-width="0" opacity="1" d="M 134.5 312 L 138.5 312 L 146 317.5 Q 150.4 322.7 149 333.5 L 146 341.5 L 143.5 344 L 142 343.5 L 146 335.5 L 146 330.5 Q 143.5 321.4 136.5 317 L 128 315.5 L 134.5 312 Z " /><path fill="rgb(255,255,255)" stroke="rgb(255,255,255)" stroke-width="0" opacity="1" d="M 62 320 Q 65.8 318.5 65 321.5 Q 67.3 322.8 64.5 324 L 62 322.5 L 62 320 Z " /><path fill="rgb(255,255,255)" stroke="rgb(255,255,255)" stroke-width="0" opacity="1" d="M 128.5 322 L 131 322 L 131 327 Q 127.2 328 126 325.5 L 128.5 322 Z " /><path fill="rgb(255,255,255)" stroke="rgb(255,255,255)" stroke-width="0" opacity="1" d="M 287.5 374 L 294.5 375 L 301 381.5 Q 309.6 393.1 311 411 L 327.5 408 L 338.5 404 L 340.5 402 L 346.5 401 Q 349.5 401.5 349 405.5 L 344.5 411 L 326.5 418 L 321.5 418 L 317.5 420 L 312.5 420 L 308.5 422 L 303.5 422 L 298.5 424 L 293.5 424 L 258.5 432 L 234.5 435 L 229.5 437 Q 221.1 436.1 216.5 439 L 202.5 440 L 201.5 441 L 185.5 441 L 170.5 437 L 158 428.5 Q 154.3 426.3 155 419.5 L 156 417 L 161.5 417 L 176.5 428 L 183.5 430 L 198.5 431 L 199.5 430 L 210.5 429 L 212 427.5 L 210.5 424 L 208 422.5 Q 205.6 405.4 195.5 396 L 190 393 Q 188.8 390 192.5 391 Q 194 388.5 199.5 390 L 207 395.5 L 214 408.5 L 218 422.5 L 214 425.5 Q 214.5 428.5 218.5 428 L 219.5 427 L 239.5 425 L 244.5 423 L 250.5 423 L 255.5 421 L 262.5 421 L 266.5 419 L 272.5 419 L 277.5 417 L 283.5 417 L 299.5 413 L 305.5 413 L 309 410.5 L 303 407.5 L 301 397.5 L 291 381 L 285 376.5 L 287.5 374 Z " /><path fill="rgb(255,255,255)" stroke="rgb(255,255,255)" stroke-width="0" opacity="1" d="M 280.5 383 L 283.5 383 L 288 387.5 Q 294.9 395.3 296 408 L 283.5 409 L 278.5 411 L 272.5 411 L 245.5 417 L 224.5 420 L 223 418.5 L 223 413.5 L 220 406 Q 226.6 406.9 230.5 404 L 236.5 404 L 245.5 400 L 252 393.5 L 254.5 389 L 261.5 387 L 267.5 387 L 280.5 383 Z " /><path fill="rgb(255,255,255)" stroke="rgb(255,255,255)" stroke-width="0" opacity="1" d="M 242.5 391 L 246 391.5 L 239.5 396 L 217.5 401 L 215 396.5 L 216.5 395 L 232.5 394 L 242.5 391 Z " /><path fill="rgb(255,255,255)" stroke="rgb(255,255,255)" stroke-width="0" opacity="1" d="M 100.5 394 L 106 396 L 103 401.5 L 101 412 L 127.5 409 L 139.5 406 L 147.5 406 L 152.5 404 L 160.5 404 L 167.5 402 L 173.5 402 L 177.5 400 L 188.5 399 L 195 404.5 Q 189.8 404.3 187.5 407 L 180.5 407 L 176.5 409 L 170.5 409 L 164.5 411 L 163.5 410 L 154.5 410 L 146.5 414 L 140.5 414 L 94.5 422 L 74.5 423 L 59.5 420 L 47 411.5 L 45 406.5 L 46 404 L 51.5 404 Q 57.5 410 66.5 413 Q 74 415.5 85.5 414 Q 87.3 411.3 93.5 413 L 95 411.5 L 94 404.5 L 98 395 L 100.5 394 Z " /><path fill="rgb(255,255,255)" stroke="rgb(255,255,255)" stroke-width="0" opacity="1" d="M 112.5 397 L 140 400.5 L 109 405 Q 108.4 399.7 112.5 397 Z " /><path fill="rgb(255,255,255)" stroke="rgb(255,255,255)" stroke-width="0" opacity="1" d="M 191.5 411 Q 197.5 409.5 199 412.5 L 201 424 L 186.5 424 Q 184.2 421.3 178.5 422 L 170 417 Q 168.7 413.3 174.5 415 L 191.5 411 Z " /><path fill="rgb(0,0,0)" stroke="rgb(0,0,0)" stroke-width="0" opacity="1" d="M 72.5 63 Q 77.3 65.3 85.5 64 L 96.5 66 L 104.5 69 L 108.5 69 L 119.5 73 L 123.5 73 L 126.5 75 L 130.5 75 L 133.5 77 L 137.5 77 L 159.5 85 L 173.5 88 L 188.5 94 L 199.5 96 L 209.5 88 L 224.5 87 Q 237.3 89.3 242.5 99 L 250.5 96 L 264.5 94 L 277.5 90 L 282.5 90 L 286.5 88 L 291.5 88 L 296.5 86 L 316.5 83 L 320.5 81 L 325.5 81 L 340.5 77 L 346.5 77 L 351.5 75 L 358.5 75 L 364.5 73 L 372.5 73 L 381.5 71 L 395.5 71 L 412.5 75 L 419 80.5 L 420 88.5 L 413.5 96 L 399.5 101 Q 390 101 383.5 104 L 375.5 104 L 368.5 106 L 358.5 106 L 349.5 108 L 337.5 108 L 328.5 110 L 311.5 110 L 300.5 112 L 282.5 112 L 281.5 113 L 258 114.5 L 351.5 132 L 364.5 136 L 374 142.5 Q 377 144.5 376 150.5 L 370.5 157 L 359.5 160 L 345.5 160 L 344.5 159 L 336.5 159 Q 333.8 156.2 327.5 157 L 324.5 155 L 303.5 150 L 258.5 133 L 255.5 133 L 237.5 125 L 234.5 125 L 232 126 Q 231.1 132.2 233 135 L 239.5 135 L 250.5 138 L 261 147.5 L 267 162 L 275.5 164 L 280.5 164 L 297.5 170 L 319.5 183 L 330 192.5 L 342.5 208 L 354.5 209 L 355.5 210 L 368.5 210 L 378.5 212 L 392.5 212 L 393.5 213 L 408.5 214 L 413 207.5 L 434 164.5 L 441.5 155 L 448.5 151 L 460.5 150 L 465.5 151 L 472 156.5 L 474 163.5 L 463 223 L 473.5 217 L 476.5 217 L 480 219.5 L 480 227.5 L 478.5 228 L 472.5 224 Q 464.1 227.1 459 233.5 Q 458.3 237.3 460.5 238 Q 466.8 241.4 477 240 L 478.5 237 L 480 237.5 L 480 245 L 474.5 248 Q 473.1 245.4 468.5 246 L 468.5 247 L 474 249.5 L 480 258.5 L 480 267.5 L 472.5 276 L 465.5 277 L 463 275.5 Q 462.1 282.9 465 286.5 L 465 297.5 L 460.5 303 L 451.5 306 L 443.5 306 Q 434.2 303.3 430 295.5 L 417 276.5 L 415 271 L 376.5 284 L 364 290.5 L 363 299.5 L 359 313.5 L 357 315.5 L 357 318.5 L 348 335.5 L 333.5 354 L 315.5 368 L 303 373 L 311 385.5 L 318.5 404 Q 332.2 401.2 341.5 394 L 347.5 394 L 353 397 L 355 400.5 L 355 407.5 L 349.5 415 L 333.5 423 L 312.5 428 L 307.5 428 L 303.5 430 L 298.5 430 L 283.5 434 L 277.5 434 L 262.5 438 L 256.5 438 L 251.5 440 L 246.5 440 L 215.5 446 L 199.5 447 L 198.5 448 L 187.5 448 L 169.5 444 Q 158.5 440 152 431.5 L 148 425.5 L 148 419 L 105.5 427 L 97.5 427 L 96.5 428 L 77.5 430 L 76.5 429 L 62.5 428 L 53.5 425 L 41 414.5 Q 37.8 411.2 39 403.5 L 43.5 398 L 51.5 397 L 59.5 403 L 69.5 407 L 86.5 407 L 92 393.5 L 69.5 385 L 62.5 381 L 44 364.5 L 33 342.5 L 33 337.5 L 31 330.5 L 31 322.5 L 32 321.5 L 32 313.5 L 34 303.5 L 37 294.5 L 40 290.5 L 42 274.5 L 53 244.5 Q 66.8 214.3 89.5 193 L 108.5 177 L 125.5 168 L 144.5 162 Q 154 162 160.5 159 L 167.5 159 L 169 157.5 Q 172.8 146.3 181.5 140 L 189.5 136 L 197.5 134 L 203.5 134 L 205 132.5 L 204 130.5 L 205 126.5 Q 204.3 123.3 199.5 124 L 191.5 127 L 180.5 129 L 177.5 131 L 173.5 131 L 170.5 133 L 151.5 137 L 144.5 140 L 139.5 140 L 136.5 142 L 131.5 142 L 120.5 146 L 115.5 146 L 112.5 148 Q 106.4 147.4 103.5 150 L 85.5 152 L 84.5 153 L 64.5 153 L 52.5 150 L 47 144.5 Q 45.6 135.2 51.5 133 L 62.5 128 L 86.5 123 L 92.5 123 L 112.5 119 L 122.5 119 L 123.5 118 L 153.5 115 L 154.5 114 L 181 111.5 L 179.5 110 L 168.5 110 L 148.5 106 L 139.5 106 L 133.5 104 L 113.5 102 L 91.5 97 L 86.5 97 L 81.5 95 L 76.5 95 L 73.5 93 L 68.5 93 L 65.5 91 L 56.5 89 L 48 81.5 L 47 74.5 L 51.5 69 L 59.5 65 L 71.5 64 L 72.5 63 Z M 66 70 L 63 72 L 57 73 L 53 78 L 60 83 L 76 88 L 81 88 L 92 92 L 109 94 L 114 96 L 120 96 L 125 98 L 138 99 L 139 100 L 166 102 L 175 104 L 193 105 L 194 106 L 197 105 L 195 102 L 182 99 L 179 97 L 175 97 L 154 89 L 137 85 L 130 82 L 109 76 L 105 76 L 102 74 L 97 74 L 93 72 Q 87 74 86 71 L 79 71 L 78 70 L 66 70 Z M 383 78 L 382 79 L 367 80 L 361 82 L 354 82 L 341 85 L 336 85 L 331 87 L 326 87 L 321 89 L 316 89 L 312 91 L 298 93 L 294 95 L 288 95 L 284 97 L 279 97 L 266 101 L 246 104 L 242 107 L 244 109 Q 250 106 261 108 L 262 107 L 284 107 L 285 106 L 301 106 L 302 105 L 318 105 L 327 103 L 351 102 L 359 100 L 369 100 L 375 98 L 383 98 L 388 96 L 402 94 L 410 91 L 414 87 L 414 85 L 410 81 L 398 78 L 383 78 Z M 217 94 L 208 97 L 202 105 Q 201 113 204 118 L 209 121 Q 214 123 216 120 L 231 121 L 236 114 Q 238 104 234 100 L 228 95 L 217 94 Z M 190 117 L 189 118 L 177 118 L 176 119 L 165 119 L 157 121 L 148 121 L 139 123 L 130 123 Q 124 126 115 125 L 110 127 L 100 127 L 95 129 L 87 129 Q 83 132 76 131 L 57 137 Q 53 138 54 143 L 58 145 Q 62 144 64 146 L 89 146 L 90 145 L 101 144 L 134 136 L 138 134 L 142 134 L 145 132 L 150 132 L 161 128 L 165 128 L 168 126 L 185 122 L 188 120 L 196 119 L 197 118 L 190 117 Z M 241 119 L 242 121 L 248 122 L 283 136 L 307 143 L 310 145 L 314 145 L 324 149 L 328 149 L 342 153 L 361 153 L 368 151 L 370 148 L 367 144 L 358 140 L 354 140 L 341 136 L 332 135 L 318 131 L 301 129 L 297 127 L 290 127 L 273 123 L 241 119 Z M 225 127 L 224 128 L 213 128 Q 210 129 211 134 L 224 134 L 225 135 L 227 134 L 225 127 Z M 201 141 Q 199 144 194 142 L 185 146 Q 177 153 175 164 L 182 164 L 183 165 L 260 165 L 260 161 L 254 150 L 251 146 L 240 142 L 201 141 Z M 453 157 L 448 159 L 442 165 L 438 172 L 416 216 Q 415 219 419 217 L 419 219 Q 422 220 421 218 L 429 211 L 435 211 L 445 219 L 447 218 L 456 219 L 458 213 L 458 207 L 460 203 L 460 198 L 462 193 L 464 179 L 466 175 L 467 162 L 464 158 L 453 157 Z M 163 166 L 162 167 L 154 167 Q 151 170 145 169 L 132 173 L 117 180 L 105 188 L 105 189 L 124 185 L 162 185 L 169 187 L 175 187 L 190 191 L 201 197 L 207 207 L 209 215 L 209 224 Q 206 228 207 236 L 203 250 L 196 269 L 188 283 L 175 294 L 167 296 L 148 295 L 147 294 L 118 294 L 117 293 L 102 293 L 101 292 L 60 292 L 59 291 L 51 291 L 50 292 L 48 291 L 45 294 L 42 302 L 39 318 L 40 340 L 44 352 L 52 364 Q 59 372 70 377 L 92 386 L 124 392 L 140 392 L 141 393 L 178 393 L 179 392 L 182 393 L 184 388 L 192 384 L 202 384 L 210 390 L 241 384 L 253 383 L 277 377 L 278 374 L 288 367 Q 294 366 296 369 Q 315 363 328 350 Q 344 335 351 312 L 352 310 L 342 312 L 341 326 L 339 333 L 338 334 L 324 338 Q 319 339 318 336 L 318 324 L 319 317 L 308 319 L 302 317 L 302 293 L 303 291 L 307 288 L 317 287 L 320 285 L 319 284 L 319 265 L 323 261 L 337 260 L 338 259 L 340 260 L 342 263 L 342 278 L 342 280 L 344 282 L 349 281 L 354 282 L 355 284 L 356 298 L 359 282 L 359 273 L 362 272 Q 365 274 363 281 L 365 282 L 384 274 L 387 274 L 389 272 L 413 265 L 416 263 L 419 255 Q 425 248 435 245 Q 437 246 436 243 L 427 239 Q 421 235 419 229 L 419 221 L 417 222 L 415 221 L 388 220 L 387 219 L 364 218 L 363 217 L 346 216 L 353 232 Q 355 236 351 235 L 330 203 Q 319 189 303 180 L 289 174 L 270 169 Q 265 168 264 171 L 248 173 L 253 175 Q 264 184 271 199 L 274 198 L 289 199 L 293 201 Q 298 205 301 213 L 306 232 L 307 245 L 308 246 L 308 264 L 304 272 L 297 277 L 290 279 L 283 278 L 280 276 L 279 252 L 277 244 L 277 237 L 275 232 L 275 226 L 273 221 L 273 216 L 264 195 L 258 186 Q 251 177 241 172 L 182 171 L 171 169 L 168 166 L 163 166 Z M 135 191 L 134 192 L 112 193 L 96 197 Q 81 209 71 226 L 58 251 L 50 273 L 51 274 L 58 269 L 66 269 L 69 271 L 70 274 Q 71 277 69 278 L 65 277 Q 58 276 56 279 L 50 286 L 52 285 L 89 285 L 90 286 L 140 287 L 141 288 L 155 288 L 145 280 L 136 278 L 130 280 Q 126 279 127 275 L 133 270 Q 146 268 152 274 Q 159 278 159 288 L 165 289 Q 172 289 177 285 L 184 277 L 195 254 L 202 222 L 202 214 L 198 203 L 188 197 L 171 193 L 152 192 L 151 191 L 135 191 Z M 277 204 L 275 206 L 278 214 L 282 233 L 286 272 L 291 272 L 298 269 L 300 267 L 302 261 L 302 251 L 300 243 L 299 230 L 296 218 L 292 209 L 288 205 Q 280 207 277 204 Z M 431 217 L 428 218 L 426 222 Q 425 228 427 232 L 430 234 L 438 237 Q 441 238 442 236 L 440 226 L 437 220 Q 436 216 431 217 Z M 449 224 L 447 226 Q 446 231 449 232 L 454 231 L 456 226 Q 454 222 449 224 Z M 449 237 L 446 239 L 443 245 L 445 251 L 450 253 L 453 252 L 456 248 L 455 240 Q 454 236 449 237 Z M 435 252 L 428 256 Q 422 260 423 270 Q 426 272 433 271 L 441 260 Q 442 255 440 254 Q 441 251 435 252 Z M 461 252 L 457 256 Q 456 262 459 265 L 465 270 L 470 270 L 474 264 L 473 260 Q 470 253 461 252 Z M 449 259 Q 446 260 448 262 L 443 270 Q 439 277 429 278 L 427 278 L 437 294 L 444 299 L 452 299 L 457 297 L 458 295 L 456 278 L 454 270 L 450 262 Q 451 258 449 259 Z M 335 265 L 325 267 L 325 286 L 326 287 L 325 290 L 323 292 L 318 292 L 309 294 L 309 306 L 308 307 Q 307 312 310 313 L 319 311 Q 324 310 325 313 L 325 328 L 324 331 L 335 329 L 336 311 L 337 308 L 348 305 Q 351 298 350 287 L 347 288 L 337 288 L 337 267 L 335 265 Z M 288 374 L 285 377 L 291 381 L 301 398 L 303 408 L 309 411 L 306 413 L 300 413 L 284 417 L 278 417 L 273 419 L 267 419 L 263 421 L 256 421 L 251 423 L 245 423 L 240 425 L 220 427 L 219 428 Q 214 429 214 426 L 218 423 L 214 409 L 207 396 L 200 390 Q 194 389 193 391 Q 189 390 190 393 L 196 396 Q 206 405 208 423 L 211 424 L 212 428 L 211 429 L 200 430 L 199 431 L 184 430 L 177 428 L 162 417 L 156 417 L 155 420 Q 154 426 158 429 L 171 437 L 186 441 L 202 441 L 203 440 L 217 439 Q 221 436 230 437 L 235 435 L 259 432 L 294 424 L 299 424 L 304 422 L 309 422 L 313 420 L 318 420 L 322 418 L 327 418 L 345 411 L 349 406 Q 350 402 347 401 L 341 402 L 339 404 L 328 408 L 311 411 Q 310 393 301 382 L 295 375 L 288 374 Z M 281 383 L 268 387 L 262 387 L 255 389 L 252 394 L 246 400 L 237 404 L 231 404 Q 227 407 220 406 L 223 414 L 223 419 L 225 420 L 246 417 L 273 411 L 279 411 L 284 409 L 296 408 Q 295 395 288 388 L 284 383 L 281 383 Z M 243 391 L 233 394 L 217 395 L 215 397 L 218 401 L 240 396 L 246 392 L 243 391 Z M 101 394 L 98 395 L 94 405 L 95 412 L 94 413 Q 87 411 86 414 Q 74 416 67 413 Q 57 410 52 404 L 46 404 L 45 407 L 47 412 L 60 420 L 75 423 L 95 422 L 141 414 L 147 414 L 155 410 L 164 410 L 165 411 L 171 409 L 177 409 L 181 407 L 188 407 Q 190 404 195 405 L 189 399 L 178 400 L 174 402 L 168 402 L 161 404 L 153 404 L 148 406 L 140 406 L 128 409 L 101 412 L 103 402 L 106 396 L 101 394 Z M 113 397 Q 108 400 109 405 L 140 401 L 113 397 Z M 192 411 L 175 415 Q 169 413 170 417 L 179 422 Q 184 421 187 424 L 201 424 L 199 413 Q 197 410 192 411 Z " /><path fill="rgb(0,0,0)" stroke="rgb(0,0,0)" stroke-width="0" opacity="1" d="M 231.5 197 L 249.5 197 L 257 201.5 L 261 208.5 L 266 227.5 L 266 232.5 L 268 239.5 L 268 247.5 L 269 248.5 L 270 273.5 L 268 282.5 L 262.5 290 L 255.5 294 L 241.5 298 L 236.5 298 L 230.5 300 L 215.5 300 L 213.5 301 L 205 298 L 202 290.5 L 204 283.5 L 210 272.5 L 210 269.5 L 214 261.5 L 218 247.5 L 222 228.5 L 222 205.5 L 225.5 200 L 231.5 197 Z M 238 203 L 233 204 L 228 208 L 228 216 L 229 217 L 228 233 L 226 238 L 224 251 L 209 292 L 213 294 L 225 294 L 238 291 L 243 291 L 253 288 L 260 284 L 263 274 L 262 245 L 260 239 L 260 231 Q 257 227 258 221 L 254 208 Q 250 201 238 203 Z " /><path fill="rgb(0,0,0)" stroke="rgb(0,0,0)" stroke-width="0" opacity="1" d="M 279 283 L 282 284.5 L 282 309.5 L 281 310.5 L 281 317.5 L 278 329.5 L 278 334.5 L 270 355.5 L 258.5 368 L 247.5 374 L 228.5 379 L 199.5 380 L 197 379 L 197.5 376 L 213.5 376 L 214.5 375 L 225.5 375 L 238.5 371 L 242.5 371 L 244.5 369 L 247.5 369 L 255.5 365 L 264 356.5 L 271 342.5 L 273 335.5 L 273 330.5 L 275 327.5 Q 273.9 318.9 277 314.5 L 277 301.5 L 279 294.5 L 279 283 Z " /><path fill="rgb(0,0,0)" stroke="rgb(0,0,0)" stroke-width="0" opacity="1" d="M 56.5 305 Q 64.9 305.1 68 310.5 L 71 315.5 L 73 328.5 L 71 337.5 L 65.5 344 Q 62 346.5 54.5 345 L 47 338.5 Q 42.2 332.3 44 319.5 L 50.5 308 L 56.5 305 Z M 57 310 L 55 311 L 50 317 L 48 325 L 50 336 L 52 337 L 50 332 Q 49 324 52 320 Q 55 313 65 314 Q 63 309 57 310 Z M 62 320 L 62 323 L 65 324 Q 67 323 65 322 Q 66 318 62 320 Z " /><path fill="rgb(0,0,0)" stroke="rgb(0,0,0)" stroke-width="0" opacity="1" d="M 133.5 307 Q 146.1 307.9 151 316.5 L 154 325.5 L 154 332.5 Q 151.9 342.9 144.5 348 Q 140.4 351.9 131.5 351 Q 123.6 348.9 120 342.5 L 118 338.5 L 117 328.5 Q 119.5 327 118 321.5 L 121 315.5 L 126.5 310 L 133.5 307 Z M 135 312 L 128 316 L 137 317 Q 144 321 146 331 L 146 336 L 142 344 L 144 344 L 146 342 L 149 334 Q 150 323 146 318 L 139 312 L 135 312 Z M 129 322 L 126 326 Q 127 328 131 327 L 131 322 L 129 322 Z " /><path fill="rgb(0,0,0)" stroke="rgb(0,0,0)" stroke-width="0" opacity="1" d="M 76.5 351 L 80 352.5 L 84.5 358 L 89.5 360 L 98.5 360 L 105 355.5 L 107.5 351 Q 111.5 350.5 112 353.5 Q 110.9 360.9 105.5 364 Q 100.7 368.2 90.5 367 Q 81.3 365.3 77 358.5 Q 74.4 357.1 75 352.5 L 76.5 351 Z " /></svg>