<svg width="627" height="627" preserveAspectRatio="xMidYMid meet" viewBox="0 0 512 512" version="1.1" xmlns="http://www.w3.org/2000/svg" ><path fill="rgb(255,255,255)" stroke="rgb(255,255,255)" stroke-width="0" opacity="1" d="M 0 0 L 512 0 L 512 512 L 0 512 L 0 0 Z M 259 27 L 250 31 L 240 45 L 218 89 L 215 91 L 170 63 L 156 57 Q 148 56 145 59 L 139 67 L 137 77 L 138 118 L 139 119 L 139 133 L 138 135 L 105 134 L 104 133 L 75 133 L 65 137 L 61 141 L 59 148 L 61 157 L 66 167 L 90 203 L 92 210 L 87 214 L 52 231 L 38 240 L 31 250 L 31 257 L 36 265 L 53 276 L 86 292 L 89 296 L 88 302 L 64 337 L 56 354 L 57 365 L 63 370 L 76 374 L 115 373 L 116 372 Q 126 370 130 376 L 130 396 L 129 397 L 129 412 L 128 413 L 128 434 L 132 445 Q 135 450 143 451 L 148 451 L 158 448 L 192 429 L 202 425 L 206 427 L 237 476 Q 242 483 252 485 Q 260 485 265 481 L 272 474 L 296 436 L 307 426 L 316 427 L 345 443 L 363 451 Q 371 453 375 450 L 380 444 L 383 434 L 384 404 L 385 403 L 385 382 L 386 378 L 389 375 L 434 375 L 435 374 L 443 374 L 454 369 L 457 364 L 458 359 L 456 349 L 451 339 L 425 302 L 425 299 L 429 295 L 456 282 L 475 270 Q 480 266 482 260 Q 483 252 480 249 Q 473 240 463 234 L 426 216 L 423 213 L 426 206 L 450 172 L 456 158 Q 457 151 454 148 L 448 142 L 437 139 L 429 139 L 428 138 L 384 138 L 378 136 L 378 122 L 379 121 L 380 102 L 381 101 L 381 91 L 382 90 Q 384 76 380 69 Q 377 63 370 61 L 355 64 L 314 87 L 304 91 L 295 79 L 273 36 Q 269 28 259 27 Z " /><path fill="rgb(255,255,255)" stroke="rgb(255,255,255)" stroke-width="0" opacity="1" d="M 258.5 38 L 264 40.5 L 289 88.5 L 297.5 99 Q 299.8 101.7 305.5 101 L 319.5 95 L 359.5 73 L 369.5 72 Q 374 76.5 372 87.5 L 371 88.5 L 371 100.5 L 370 101.5 L 369 121.5 L 368 122.5 L 368 137.5 L 373.5 145 L 386.5 148 L 428.5 148 L 429.5 149 L 440.5 150 L 445 153.5 L 445 158.5 L 442 165.5 L 416 202.5 L 413 209.5 L 413 214.5 Q 414.3 220.3 418.5 223 L 458.5 243 L 471 253.5 L 472 257.5 L 466.5 264 Q 447.1 276.6 424.5 286 L 416 293.5 L 415 302.5 L 444 346.5 L 447 353.5 L 447 360.5 L 441.5 364 L 433.5 364 L 432.5 365 L 388.5 365 Q 381.1 366.1 378 371.5 L 375 381.5 L 374 424.5 L 373 425.5 L 372 436.5 L 369.5 441 L 364.5 441 L 358.5 439 L 319.5 418 Q 314.5 415 305.5 416 Q 294.3 419.4 289 428.5 L 267 463.5 L 257.5 474 L 252.5 475 L 244 468.5 L 217 425.5 L 208.5 417 L 200.5 415 L 183.5 422 L 153.5 439 L 143.5 441 L 140 438.5 L 138 432.5 L 138 414.5 L 139 413.5 L 139 399.5 L 140 398.5 L 140 373.5 L 135.5 366 L 129.5 363 L 116.5 362 L 115.5 363 L 76.5 364 L 68.5 362 L 66 359.5 L 66 355.5 L 71 344.5 L 98 303.5 L 99 292.5 L 92.5 285 L 53.5 265 L 42 255.5 L 41 251.5 L 47.5 245 L 92.5 222 L 101 214.5 Q 103.3 211.3 102 204.5 L 73 158.5 L 70 151.5 L 70 146.5 L 72.5 144 L 76.5 143 L 100.5 143 L 101.5 144 L 116.5 144 L 117.5 145 L 139.5 145 L 147 139.5 L 149 133.5 L 149 116.5 L 148 115.5 L 147 78.5 Q 149.5 77 148 71.5 L 150.5 68 L 152.5 67 L 166.5 73 L 205.5 98 L 212.5 101 L 217.5 101 L 226 94.5 L 245 56.5 L 253 42.5 L 256.5 39 L 258.5 38 Z M 242 103 L 217 108 L 200 114 Q 176 124 159 139 Q 137 158 122 184 L 109 214 L 104 234 L 103 249 L 102 250 L 103 282 L 108 306 L 112 318 Q 123 345 141 366 Q 159 387 185 401 L 201 409 L 218 415 L 244 420 L 275 420 L 303 414 L 325 405 L 355 385 Q 380 363 396 332 L 408 297 L 411 280 L 411 268 L 412 267 L 410 235 L 402 205 Q 391 176 373 156 Q 348 126 309 111 L 292 106 L 275 103 L 242 103 Z " /><path fill="rgb(255,255,255)" stroke="rgb(255,255,255)" stroke-width="0" opacity="1" d="M 242.5 113 L 273.5 113 Q 275 115.5 280.5 114 L 294.5 117 L 316.5 125 Q 346 139 366 162.5 Q 382.9 182.1 393 208.5 L 399 229.5 L 399 234.5 L 401 241.5 L 402 267.5 L 401 268.5 L 401 279.5 L 398 295.5 L 388 325.5 Q 374.7 353.2 353.5 373 Q 332.9 391.9 304.5 403 L 287.5 408 L 282.5 408 L 275.5 410 L 243.5 410 L 215.5 404 L 188.5 392 Q 164.3 378.2 147 357.5 Q 127.9 335.6 118 304.5 L 113 281.5 L 112 251.5 L 113 250.5 L 114 234.5 L 119 214.5 L 130 189.5 Q 144 164 165.5 146 Q 181.2 132.7 201.5 124 L 221.5 117 L 242.5 113 Z M 199 220 L 194 223 L 187 233 L 185 241 L 185 254 L 191 268 L 200 273 L 208 273 L 214 270 L 220 261 L 222 252 Q 222 237 217 228 L 208 220 L 199 220 Z M 307 220 L 302 223 L 295 233 L 293 241 Q 291 257 297 266 Q 300 271 308 273 Q 317 274 321 270 Q 327 265 329 255 Q 331 237 325 228 L 317 220 L 307 220 Z M 213 300 L 211 301 L 208 305 L 216 320 Q 227 335 250 339 Q 263 341 272 338 Q 283 335 291 328 Q 299 321 304 312 Q 307 309 306 304 Q 306 300 301 300 L 297 304 L 291 315 Q 282 326 266 330 L 247 329 L 231 321 Q 221 314 217 303 L 213 300 Z " /><path fill="rgb(255,255,255)" stroke="rgb(255,255,255)" stroke-width="0" opacity="1" d="M 200.5 229 Q 207 228 209 231.5 L 211 237.5 L 195.5 246 L 195 236.5 L 200.5 229 Z " /><path fill="rgb(255,255,255)" stroke="rgb(255,255,255)" stroke-width="0" opacity="1" d="M 308.5 229 Q 315.5 227.5 317 231.5 Q 321.1 236.3 320 245 L 317.5 245 L 309.5 240 L 304 239 Q 303.4 231.7 308.5 229 Z " /><path fill="rgb(0,0,0)" stroke="rgb(0,0,0)" stroke-width="0" opacity="1" d="M 258.5 27 Q 269.2 27.8 273 35.5 L 295 78.5 L 303.5 91 L 313.5 87 L 354.5 64 L 369.5 61 Q 376.7 62.8 380 68.5 Q 383.9 76.1 382 89.5 L 381 90.5 L 381 100.5 L 380 101.5 L 379 120.5 L 378 121.5 L 378 135.5 L 383.5 138 L 427.5 138 L 428.5 139 L 436.5 139 L 447.5 142 L 454 147.5 Q 456.7 150.8 456 157.5 L 450 171.5 L 426 205.5 L 423 212.5 L 425.5 216 L 462.5 234 Q 472.9 239.7 480 248.5 Q 482.9 252.1 482 259.5 Q 479.8 266.3 474.5 270 L 455.5 282 L 428.5 295 L 425 298.5 L 425 301.5 L 451 338.5 L 456 348.5 L 458 358.5 L 457 363.5 L 453.5 369 L 442.5 374 L 434.5 374 L 433.5 375 L 388.5 375 L 386 377.5 L 385 381.5 L 385 402.5 L 384 403.5 L 383 433.5 L 380 443.5 L 374.5 450 Q 370.7 452.7 362.5 451 L 344.5 443 L 315.5 427 L 306.5 426 L 296 435.5 L 272 473.5 L 264.5 481 Q 260.2 485.2 251.5 485 Q 241.6 482.9 237 475.5 L 206 427 L 201.5 425 L 191.5 429 L 157.5 448 L 147.5 451 L 142.5 451 Q 135.1 449.9 132 444.5 L 128 433.5 L 128 412.5 L 129 411.5 L 129 396.5 L 130 395.5 L 130 375.5 Q 126.3 370.3 115.5 372 L 114.5 373 L 75.5 374 L 62.5 370 L 57 364.5 L 56 353.5 L 64 336.5 L 88 301.5 L 89 295.5 L 85.5 292 L 52.5 276 L 36 265 L 31 256.5 L 31 249.5 L 37.5 240 L 51.5 231 L 86.5 214 L 92 209.5 L 90 202.5 L 66 166.5 L 61 156.5 L 59 147.5 L 61 140.5 L 64.5 137 L 74.5 133 L 103.5 133 L 104.5 134 L 138 135 L 139 132.5 L 139 118.5 L 138 117.5 L 137 76.5 L 139 66.5 L 144.5 59 Q 148.1 56.1 155.5 57 L 169.5 63 L 214.5 91 L 218 88.5 L 240 44.5 L 249.5 31 L 258.5 27 Z M 259 38 L 257 39 L 253 43 L 245 57 L 226 95 L 218 101 L 213 101 L 206 98 L 167 73 L 153 67 L 151 68 L 148 72 Q 150 77 147 79 L 148 116 L 149 117 L 149 134 L 147 140 L 140 145 L 118 145 L 117 144 L 102 144 L 101 143 L 77 143 L 73 144 L 70 147 L 70 152 L 73 159 L 102 205 Q 103 211 101 215 L 93 222 L 48 245 L 41 252 L 42 256 L 54 265 L 93 285 L 99 293 L 98 304 L 71 345 L 66 356 L 66 360 L 69 362 L 77 364 L 116 363 L 117 362 L 130 363 L 136 366 L 140 374 L 140 399 L 139 400 L 139 414 L 138 415 L 138 433 L 140 439 L 144 441 L 154 439 L 184 422 L 201 415 L 209 417 L 217 426 L 244 469 L 253 475 L 258 474 L 267 464 L 289 429 Q 294 419 306 416 Q 315 415 320 418 L 359 439 L 365 441 L 370 441 L 372 437 L 373 426 L 374 425 L 375 382 L 378 372 Q 381 366 389 365 L 433 365 L 434 364 L 442 364 L 447 361 L 447 354 L 444 347 L 415 303 L 416 294 L 425 286 Q 447 277 467 264 L 472 258 L 471 254 L 459 243 L 419 223 Q 414 220 413 215 L 413 210 L 416 203 L 442 166 L 445 159 L 445 154 L 441 150 L 430 149 L 429 148 L 387 148 L 374 145 L 368 138 L 368 123 L 369 122 L 370 102 L 371 101 L 371 89 L 372 88 Q 374 77 370 72 L 360 73 L 320 95 L 306 101 Q 300 102 298 99 L 289 89 L 264 41 L 259 38 Z " /><path fill="rgb(0,0,0)" stroke="rgb(0,0,0)" stroke-width="0" opacity="1" d="M 241.5 103 L 274.5 103 L 291.5 106 L 308.5 111 Q 347.8 126.2 373 155.5 Q 391.2 176.3 402 204.5 L 410 234.5 L 412 266.5 L 411 267.5 L 411 279.5 L 408 296.5 L 396 331.5 Q 380.3 363.3 354.5 385 L 324.5 405 L 302.5 414 L 274.5 420 L 243.5 420 L 217.5 415 L 200.5 409 L 184.5 401 Q 159.5 386.5 141 365.5 Q 122.8 345.2 112 317.5 L 108 305.5 L 103 281.5 L 102 249.5 L 103 248.5 L 104 233.5 L 109 213.5 L 122 183.5 Q 136.6 157.6 158.5 139 Q 176.5 124 199.5 114 L 216.5 108 L 241.5 103 Z M 243 113 L 222 117 L 202 124 Q 181 133 166 146 Q 144 164 130 190 L 119 215 L 114 235 L 113 251 L 112 252 L 113 282 L 118 305 Q 128 336 147 358 Q 164 378 189 392 L 216 404 L 244 410 L 276 410 L 283 408 L 288 408 L 305 403 Q 333 392 354 373 Q 375 353 388 326 L 398 296 L 401 280 L 401 269 L 402 268 L 401 242 L 399 235 L 399 230 L 393 209 Q 383 182 366 163 Q 346 139 317 125 L 295 117 L 281 114 Q 275 116 274 113 L 243 113 Z " /><path fill="rgb(0,0,0)" stroke="rgb(0,0,0)" stroke-width="0" opacity="1" d="M 198.5 220 L 207.5 220 L 217 227.5 Q 222.3 236.7 222 251.5 L 220 260.5 L 213.5 270 L 207.5 273 L 199.5 273 L 191 267.5 L 185 253.5 L 185 240.5 L 187 232.5 L 193.5 223 L 198.5 220 Z M 201 229 L 195 237 L 196 246 L 211 238 L 209 232 Q 207 228 201 229 Z " /><path fill="rgb(0,0,0)" stroke="rgb(0,0,0)" stroke-width="0" opacity="1" d="M 306.5 220 L 316.5 220 L 325 227.5 Q 331.1 236.9 329 254.5 Q 327.3 264.8 320.5 270 Q 316.7 274.2 307.5 273 Q 300.3 271.2 297 265.5 Q 290.9 257.1 293 240.5 L 295 232.5 L 301.5 223 L 306.5 220 Z M 309 229 Q 303 232 304 239 L 310 240 L 318 245 L 320 245 Q 321 236 317 232 Q 316 228 309 229 Z " /><path fill="rgb(0,0,0)" stroke="rgb(0,0,0)" stroke-width="0" opacity="1" d="M 212.5 300 L 217 302.5 Q 221.1 314.4 230.5 321 L 246.5 329 L 265.5 330 Q 282.1 326.1 291 314.5 L 297 303.5 L 300.5 300 Q 305.5 299.5 306 303.5 Q 306.7 309.2 304 311.5 Q 298.8 321.3 290.5 328 Q 282.8 334.8 271.5 338 Q 262.8 340.8 249.5 339 Q 227.4 334.6 216 319.5 L 208 304.5 L 210.5 301 L 212.5 300 Z " /></svg>