<svg width="627" height="627" preserveAspectRatio="xMidYMid meet" viewBox="0 0 512 512" version="1.1" xmlns="http://www.w3.org/2000/svg" ><path fill="rgb(255,255,255)" stroke="rgb(255,255,255)" stroke-width="0" opacity="1" d="M 0 0 L 512 0 L 512 512 L 0 512 L 0 0 Z M 80 45 L 70 47 L 60 53 Q 53 59 50 69 Q 48 87 57 96 Q 63 103 75 106 L 89 106 L 90 105 L 153 160 L 117 167 L 100 173 L 88 180 Q 81 185 78 194 L 78 227 L 80 234 L 83 238 L 83 332 L 40 372 L 20 392 L 17 400 Q 17 410 22 415 Q 27 421 37 423 Q 46 423 52 418 L 79 393 L 79 418 L 83 428 L 96 438 L 113 446 L 132 452 L 176 461 L 201 463 L 202 464 L 213 464 L 214 465 L 229 465 L 230 466 L 296 466 L 297 465 L 312 465 L 313 464 L 323 464 L 324 463 L 354 460 L 395 451 Q 413 446 428 436 Q 435 431 439 422 L 440 392 L 464 414 L 471 417 Q 480 418 485 414 Q 491 410 494 402 Q 495 392 492 387 L 436 334 L 436 237 L 440 228 L 440 194 L 436 185 L 430 178 L 415 170 L 399 165 L 377 161 L 432 113 L 436 114 Q 450 114 458 107 Q 466 100 469 88 L 468 74 L 460 60 L 446 53 Q 429 52 422 59 Q 412 67 409 81 L 322 154 L 298 153 L 297 152 L 232 152 L 231 153 L 213 153 L 212 154 L 208 154 L 115 77 L 112 75 L 112 70 L 108 60 Q 100 46 80 45 Z " /><path fill="rgb(255,255,255)" stroke="rgb(255,255,255)" stroke-width="0" opacity="1" d="M 80.5 54 Q 94.2 55.3 100 64.5 Q 104 69 103 78.5 L 107.5 83 L 195 154.5 L 165.5 158 L 93.5 96 L 87.5 96 L 86.5 97 L 76.5 97 Q 68 94.5 63 88.5 L 59 79.5 L 59 71.5 Q 61.8 61.8 69.5 57 L 80.5 54 Z " /><path fill="rgb(255,255,255)" stroke="rgb(255,255,255)" stroke-width="0" opacity="1" d="M 437.5 62 Q 452.3 61.7 457 71.5 L 459 75.5 L 460 85.5 Q 457.9 95.9 450.5 101 Q 445 106 432.5 104 L 430.5 103 L 368.5 156 L 362.5 159 L 346.5 156 L 337.5 156 L 335 154.5 L 418 84.5 Q 419 72.5 426.5 67 L 437.5 62 Z " /><path fill="rgb(255,255,255)" stroke="rgb(255,255,255)" stroke-width="0" opacity="1" d="M 268.5 161 Q 273.3 159.8 274.5 162 L 321.5 163 L 322.5 164 L 342.5 165 L 343.5 166 L 370.5 169 L 390.5 173 L 410.5 179 Q 421 182.5 428 189.5 L 430 195.5 L 424.5 203 Q 413.4 210.9 398.5 215 L 379.5 220 L 350.5 225 L 324.5 227 L 323.5 228 L 312.5 228 L 311.5 229 L 293.5 229 L 292.5 230 L 219.5 230 L 218.5 229 L 200.5 229 L 199.5 228 L 179.5 227 L 178.5 226 L 171.5 226 L 170.5 225 L 156.5 224 Q 150 221 140.5 221 L 111.5 213 L 96.5 206 L 91 201.5 Q 87.8 199.2 89 192.5 L 95.5 186 L 110.5 179 L 147.5 170 L 183.5 166 L 184.5 165 L 206.5 164 L 207.5 163 L 222.5 163 L 223.5 162 L 267.5 162 L 268.5 161 Z " /><path fill="rgb(255,255,255)" stroke="rgb(255,255,255)" stroke-width="0" opacity="1" d="M 430.5 209 L 431 225.5 Q 429.2 232.7 423.5 236 L 406.5 245 L 383.5 252 L 364.5 256 L 358.5 256 L 336.5 260 L 314.5 261 L 313.5 262 L 249.5 264 L 248.5 263 L 216.5 263 L 215.5 262 L 188.5 261 L 187.5 260 L 178.5 260 L 177.5 259 L 146.5 255 L 125.5 250 L 108.5 244 Q 96.3 239.7 89 230.5 L 87 225.5 L 87 210.5 L 90.5 213 L 101.5 219 L 121.5 226 L 166.5 235 L 173.5 235 L 182.5 237 L 193.5 237 L 194.5 238 L 206.5 238 L 207.5 239 L 225.5 239 L 226.5 240 L 284.5 240 L 285.5 239 L 303.5 239 L 304.5 238 L 339.5 236 L 340.5 235 L 346.5 235 L 347.5 234 L 377.5 230 L 412.5 220 L 426.5 213 L 430.5 209 Z " /><path fill="rgb(255,255,255)" stroke="rgb(255,255,255)" stroke-width="0" opacity="1" d="M 426.5 245 L 427 389.5 L 417.5 397 L 414 389.5 L 412 379.5 L 377 262 L 381.5 262 L 403.5 256 L 426.5 245 Z " /><path fill="rgb(255,255,255)" stroke="rgb(255,255,255)" stroke-width="0" opacity="1" d="M 92 246 L 108.5 254 L 123.5 259 L 138.5 262 L 140 263.5 L 100.5 397 L 92 389.5 L 92 246 Z " /><path fill="rgb(255,255,255)" stroke="rgb(255,255,255)" stroke-width="0" opacity="1" d="M 155 266 L 173.5 268 L 174.5 269 L 194.5 270 L 195.5 271 L 247 273 L 198.5 412 L 155 266 Z " /><path fill="rgb(255,255,255)" stroke="rgb(255,255,255)" stroke-width="0" opacity="1" d="M 355.5 266 L 362 266.5 L 317.5 414 L 264 273.5 L 319.5 271 L 320.5 270 L 347.5 268 L 355.5 266 Z " /><path fill="rgb(255,255,255)" stroke="rgb(255,255,255)" stroke-width="0" opacity="1" d="M 369.5 271 L 374 282.5 L 376 292.5 L 383 312.5 L 385 322.5 L 409 402 L 391.5 408 L 371.5 413 L 348.5 417 L 326 419 L 330 401.5 L 369.5 271 Z " /><path fill="rgb(255,255,255)" stroke="rgb(255,255,255)" stroke-width="0" opacity="1" d="M 146.5 273 L 150 280.5 L 191 419 L 176.5 418 L 175.5 417 L 169.5 417 L 146.5 413 L 123.5 407 L 108 400.5 L 146.5 273 Z " /><path fill="rgb(255,255,255)" stroke="rgb(255,255,255)" stroke-width="0" opacity="1" d="M 255.5 278 L 310 419.5 L 307.5 421 L 291.5 421 L 290.5 422 L 225.5 422 L 224.5 421 L 207.5 421 L 205 419.5 L 255.5 278 Z " /><path fill="rgb(255,255,255)" stroke="rgb(255,255,255)" stroke-width="0" opacity="1" d="M 82.5 345 L 83 376.5 L 44.5 412 L 34.5 413 L 28 407.5 L 26 400.5 Q 27.5 394 32.5 391 L 82.5 345 Z " /><path fill="rgb(255,255,255)" stroke="rgb(255,255,255)" stroke-width="0" opacity="1" d="M 436.5 346 L 485 392.5 Q 486.4 401.9 481.5 405 L 473.5 408 L 467.5 406 L 436 376.5 L 436.5 346 Z " /><path fill="rgb(255,255,255)" stroke="rgb(255,255,255)" stroke-width="0" opacity="1" d="M 88 400 L 95.5 405 L 112.5 413 L 154.5 424 L 172.5 426 L 173.5 427 L 190.5 428 L 191.5 429 L 202.5 429 L 203.5 430 L 242.5 431 L 243.5 432 L 272.5 432 L 273.5 431 L 298.5 431 L 299.5 430 L 314.5 430 L 315.5 429 L 335.5 428 L 336.5 427 L 343.5 427 L 344.5 426 L 357.5 425 L 378.5 421 L 411.5 411 L 429.5 400 L 430 419.5 L 421.5 429 L 406.5 437 L 388.5 443 L 356.5 450 L 350.5 450 L 335.5 453 L 327.5 453 L 326.5 454 L 317.5 454 L 316.5 455 L 304.5 455 L 303.5 456 L 239.5 457 L 238.5 456 L 219.5 456 L 218.5 455 L 205.5 455 L 204.5 454 L 186.5 453 L 185.5 452 L 172.5 451 L 145.5 446 L 109.5 435 Q 97.3 430.7 90 421.5 L 88 415.5 L 88 400 Z " /><path fill="rgb(0,0,0)" stroke="rgb(0,0,0)" stroke-width="0" opacity="1" d="M 79.5 45 Q 99.9 46.1 108 59.5 L 112 69.5 L 112 74.5 L 114.5 77 L 207.5 154 L 211.5 154 L 212.5 153 L 230.5 153 L 231.5 152 L 296.5 152 L 297.5 153 L 321.5 154 L 409 80.5 Q 412 66.5 421.5 59 Q 429.1 51.6 445.5 53 L 460 60 L 468 73.5 L 469 87.5 Q 466.3 100.3 457.5 107 Q 450.4 114.4 435.5 114 L 431.5 113 L 377 160.5 L 398.5 165 L 414.5 170 L 429.5 178 L 436 184.5 L 440 193.5 L 440 227.5 L 436 236.5 L 436 333.5 L 492 386.5 Q 495.4 391.6 494 401.5 Q 491.1 409.6 484.5 414 Q 480 418 470.5 417 L 463.5 414 L 439.5 392 L 439 421.5 Q 435.4 430.9 427.5 436 Q 413.4 445.9 394.5 451 L 353.5 460 L 323.5 463 L 322.5 464 L 312.5 464 L 311.5 465 L 296.5 465 L 295.5 466 L 229.5 466 L 228.5 465 L 213.5 465 L 212.5 464 L 201.5 464 L 200.5 463 L 175.5 461 L 131.5 452 L 112.5 446 L 95.5 438 L 83 427.5 L 79 417.5 L 78.5 393 L 51.5 418 Q 46.1 422.6 36.5 423 Q 27.1 420.9 22 414.5 Q 17 409.5 17 399.5 L 20 391.5 L 39.5 372 L 83 331.5 L 83 237.5 L 80 233.5 L 78 226.5 L 78 193.5 Q 80.8 184.8 87.5 180 L 99.5 173 L 116.5 167 L 153 159.5 L 89.5 105 L 88.5 106 L 74.5 106 Q 63.3 103.3 57 95.5 Q 48.1 87.4 50 68.5 Q 52.9 58.9 59.5 53 L 69.5 47 L 79.5 45 Z M 81 54 L 70 57 Q 62 62 59 72 L 59 80 L 63 89 Q 68 94 77 97 L 87 97 L 88 96 L 94 96 L 166 158 L 195 155 L 108 83 L 103 79 Q 104 69 100 65 Q 94 55 81 54 Z M 438 62 L 427 67 Q 419 72 418 85 L 335 155 L 338 156 L 347 156 L 363 159 L 369 156 L 431 103 L 433 104 Q 445 106 451 101 Q 458 96 460 86 L 459 76 L 457 72 Q 452 62 438 62 Z M 269 161 L 268 162 L 224 162 L 223 163 L 208 163 L 207 164 L 185 165 L 184 166 L 148 170 L 111 179 L 96 186 L 89 193 Q 88 199 91 202 L 97 206 L 112 213 L 141 221 Q 150 221 157 224 L 171 225 L 172 226 L 179 226 L 180 227 L 200 228 L 201 229 L 219 229 L 220 230 L 293 230 L 294 229 L 312 229 L 313 228 L 324 228 L 325 227 L 351 225 L 380 220 L 399 215 Q 413 211 425 203 L 430 196 L 428 190 Q 421 182 411 179 L 391 173 L 371 169 L 344 166 L 343 165 L 323 164 L 322 163 L 275 162 Q 273 160 269 161 Z M 431 209 L 427 213 L 413 220 L 378 230 L 348 234 L 347 235 L 341 235 L 340 236 L 305 238 L 304 239 L 286 239 L 285 240 L 227 240 L 226 239 L 208 239 L 207 238 L 195 238 L 194 237 L 183 237 L 174 235 L 167 235 L 122 226 L 102 219 L 91 213 L 87 211 L 87 226 L 89 231 Q 96 240 109 244 L 126 250 L 147 255 L 178 259 L 179 260 L 188 260 L 189 261 L 216 262 L 217 263 L 249 263 L 250 264 L 314 262 L 315 261 L 337 260 L 359 256 L 365 256 L 384 252 L 407 245 L 424 236 Q 429 233 431 226 L 431 209 Z M 427 245 L 404 256 L 382 262 L 377 262 L 412 380 L 414 390 L 418 397 L 427 390 L 427 245 Z M 92 246 L 92 390 L 101 397 L 140 264 L 139 262 L 124 259 L 109 254 L 92 246 Z M 155 266 L 199 412 L 247 273 L 196 271 L 195 270 L 175 269 L 174 268 L 155 266 Z M 356 266 L 348 268 L 321 270 L 320 271 L 264 274 L 318 414 L 362 267 L 356 266 Z M 370 271 L 330 402 L 326 419 L 349 417 L 372 413 L 392 408 L 409 402 L 385 323 L 383 313 L 376 293 L 374 283 L 370 271 Z M 147 273 L 108 401 L 124 407 L 147 413 L 170 417 L 176 417 L 177 418 L 191 419 L 150 281 L 147 273 Z M 256 278 L 205 420 L 208 421 L 225 421 L 226 422 L 291 422 L 292 421 L 308 421 L 310 420 L 256 278 Z M 83 345 L 33 391 Q 28 394 26 401 L 28 408 L 35 413 L 45 412 L 83 377 L 83 345 Z M 437 346 L 436 377 L 468 406 L 474 408 L 482 405 Q 486 402 485 393 L 437 346 Z M 88 400 L 88 416 L 90 422 Q 97 431 110 435 L 146 446 L 173 451 L 186 452 L 187 453 L 205 454 L 206 455 L 219 455 L 220 456 L 239 456 L 240 457 L 304 456 L 305 455 L 317 455 L 318 454 L 327 454 L 328 453 L 336 453 L 351 450 L 357 450 L 389 443 L 407 437 L 422 429 L 430 420 L 430 400 L 412 411 L 379 421 L 358 425 L 345 426 L 344 427 L 337 427 L 336 428 L 316 429 L 315 430 L 300 430 L 299 431 L 274 431 L 273 432 L 244 432 L 243 431 L 204 430 L 203 429 L 192 429 L 191 428 L 174 427 L 173 426 L 155 424 L 113 413 L 96 405 L 88 400 Z " /></svg>