<svg width="627" height="627" preserveAspectRatio="xMidYMid meet" viewBox="0 0 512 512" version="1.1" xmlns="http://www.w3.org/2000/svg" ><path fill="rgb(255,255,255)" stroke="rgb(255,255,255)" stroke-width="0" opacity="1" d="M 0 0 L 512 0 L 512 512 L 0 512 L 0 0 Z M 222 51 L 211 56 L 203 63 Q 190 67 181 75 Q 170 85 163 99 L 157 119 L 156 131 L 152 140 L 128 158 Q 108 174 98 200 L 83 192 L 69 187 Q 61 186 57 189 L 51 197 L 51 208 Q 54 215 60 220 Q 61 222 59 221 L 54 227 Q 53 235 57 239 L 70 247 L 82 250 L 105 250 L 112 248 Q 127 263 152 267 L 156 278 L 154 279 Q 148 281 149 289 L 154 293 L 163 295 L 174 304 L 182 305 L 185 301 L 186 298 L 194 298 Q 198 297 197 292 L 203 294 L 212 301 L 218 301 L 221 297 L 222 294 L 225 295 L 232 293 L 235 288 L 233 282 Q 225 273 209 272 L 207 268 Q 228 262 243 250 Q 259 237 268 217 L 274 198 L 275 185 L 276 184 L 276 170 L 283 158 L 296 158 L 302 154 L 302 150 L 299 146 L 294 142 L 310 134 L 314 129 L 313 126 Q 303 115 285 113 L 283 112 L 280 100 L 272 86 Q 264 74 251 69 L 253 66 L 253 61 L 247 56 L 239 56 L 238 57 Q 232 59 233 55 Q 231 49 222 51 Z M 368 203 L 366 204 L 363 209 L 359 208 Q 349 206 345 210 L 342 214 Q 341 219 345 221 L 338 224 L 328 231 L 319 243 L 313 255 L 309 270 L 308 287 L 306 292 L 280 313 Q 258 332 247 360 L 244 360 L 207 345 Q 195 343 191 347 Q 186 350 184 357 L 184 363 L 189 373 L 197 380 L 194 381 L 190 386 Q 189 394 193 398 L 204 405 L 219 409 L 241 409 L 259 405 L 265 406 Q 273 414 285 419 L 301 424 L 304 433 L 301 435 Q 296 437 297 445 L 301 448 L 314 452 L 327 461 L 333 460 L 335 456 L 335 454 L 345 452 L 349 445 L 358 448 L 369 456 L 377 455 L 379 452 L 379 448 L 388 448 L 392 443 L 390 436 L 383 430 L 364 426 L 362 423 Q 379 417 392 407 Q 410 393 419 370 L 423 358 L 425 347 L 425 337 L 426 336 L 426 326 L 425 325 L 432 312 L 434 310 Q 443 311 448 308 L 450 305 L 449 301 L 441 293 L 458 285 Q 462 284 461 278 Q 450 267 432 264 L 428 249 L 417 232 Q 408 221 394 216 L 392 214 L 381 205 Q 376 202 368 203 Z " /><path fill="rgb(255,255,255)" stroke="rgb(255,255,255)" stroke-width="0" opacity="1" d="M 225.5 57 Q 228.8 58.8 225 60.5 L 223 65.5 L 226.5 67 Q 233.4 61.6 246 63 L 241 70.5 L 257.5 80 L 265 87.5 Q 274.7 98.8 278 116.5 L 271 132.5 L 269 142.5 Q 271.3 151.2 278 155.5 L 270 167.5 L 268 192.5 L 261 215.5 Q 253.3 231.8 240.5 243 Q 228 254 210.5 260 L 190.5 264 L 168.5 264 L 167.5 263 L 156.5 262 L 139.5 257 Q 124.5 251 113.5 241 L 105.5 243 L 80.5 243 L 66.5 238 L 61 232.5 L 60 228.5 Q 62.3 224.3 69.5 225 L 73.5 226 L 76 225 L 74.5 221 Q 64.8 218.3 60 210.5 L 57 203.5 L 57 199.5 L 61.5 194 L 72.5 195 L 95.5 207 L 102 208 Q 105.2 194.6 113 184.5 L 136.5 159 L 158 142.5 L 162 134.5 L 164 118.5 L 168 104.5 Q 174.3 87.8 187.5 78 L 205.5 69 L 214.5 61 L 225.5 57 Z M 234 102 L 230 104 L 224 111 L 222 118 L 223 126 L 225 130 L 234 136 Q 242 138 246 134 Q 250 131 252 125 L 252 115 L 247 105 L 241 102 L 234 102 Z M 165 150 Q 150 153 142 161 Q 121 180 109 208 Q 108 216 113 219 L 109 224 Q 108 231 111 234 Q 116 239 126 241 L 138 241 L 139 240 L 141 240 L 147 245 L 152 246 Q 171 245 182 235 Q 201 221 207 194 L 207 180 L 205 172 L 199 162 Q 190 148 165 150 Z " /><path fill="rgb(255,255,255)" stroke="rgb(255,255,255)" stroke-width="0" opacity="1" d="M 235.5 107 Q 241.7 106.4 244 109 L 247 114.5 L 245.5 114 L 239.5 113 L 234 117.5 L 233 126.5 L 236 130.5 L 234.5 131 L 229 126.5 L 227 117.5 Q 227.9 110.9 232.5 108 L 235.5 107 Z " /><path fill="rgb(255,255,255)" stroke="rgb(255,255,255)" stroke-width="0" opacity="1" d="M 283.5 119 Q 297.4 121.4 307 127 Q 308.1 129.7 305.5 129 Q 293.8 137.3 275.5 139 L 276 137.5 L 283.5 119 Z " /><path fill="rgb(255,255,255)" stroke="rgb(255,255,255)" stroke-width="0" opacity="1" d="M 285.5 143 L 287.5 143 L 296 150.5 L 294.5 152 L 284.5 152 L 277 146.5 Q 276.1 143.5 280.5 145 L 285.5 143 Z " /><path fill="rgb(255,255,255)" stroke="rgb(255,255,255)" stroke-width="0" opacity="1" d="M 169.5 155 Q 188.6 154.9 196 166.5 Q 203.2 175.3 201 193.5 Q 195.7 216.7 179.5 229 L 166.5 237 L 151.5 240 L 147 237.5 L 153 232.5 L 154 230.5 L 150.5 229 L 137.5 235 L 125.5 235 Q 118.1 233.9 115 228.5 Q 114 224 116.5 223 L 128.5 219 L 135 214.5 Q 136.3 210.8 132.5 212 L 124.5 215 L 119.5 215 L 115 212.5 L 116 205.5 L 125 189.5 Q 133.1 176.1 144.5 166 L 157.5 158 L 169.5 155 Z " /><path fill="rgb(255,255,255)" stroke="rgb(255,255,255)" stroke-width="0" opacity="1" d="M 370 209 Q 381.5 210.8 388 218.5 L 390.5 222 Q 405.6 226.9 414 238.5 Q 423.5 249.5 426 267.5 L 417 287.5 L 417 296.5 L 426 307.5 L 426 309.5 L 419 319.5 L 419 339.5 L 414 363.5 Q 406.3 385.3 390.5 399 Q 378 410 360.5 416 L 341.5 420 L 314.5 420 L 295.5 416 L 287.5 413 Q 273.5 407 263.5 397 L 242.5 402 L 217.5 402 L 202.5 397 L 197 391.5 L 196 387.5 Q 200.1 382.6 210.5 384 Q 212 386.5 217.5 385 L 220 384 L 218.5 381 Q 202.5 378.5 194 368.5 Q 190 365 191 356.5 L 194.5 352 L 202.5 351 L 240.5 366 L 249.5 368 Q 264.1 335.1 289.5 313 Q 302.3 305.3 312 294.5 L 315 286.5 L 315 274.5 L 320 255.5 Q 325.6 241.6 336.5 233 Q 343.9 226.1 355 224 Q 355.8 219.3 351.5 218 L 349 216.5 L 350.5 214 L 361.5 215 L 371.5 219 Q 373.8 218.3 373 214.5 L 370 209 Z M 379 256 L 375 258 Q 369 261 367 269 Q 365 280 370 285 Q 373 289 380 291 Q 388 292 392 288 L 397 279 Q 398 269 395 264 L 386 256 L 379 256 Z M 318 304 Q 304 307 296 315 L 278 335 L 261 365 L 262 374 L 265 375 L 261 382 L 261 387 L 264 392 L 272 396 L 281 398 L 292 397 L 293 396 Q 295 395 294 398 L 302 402 L 313 402 L 320 400 Q 331 396 340 388 L 355 369 L 360 356 L 362 346 L 361 330 L 354 316 Q 348 309 339 305 Q 330 302 318 304 Z " /><path fill="rgb(255,255,255)" stroke="rgb(255,255,255)" stroke-width="0" opacity="1" d="M 379.5 261 Q 388.1 259.9 390 265.5 L 391 267.5 L 389.5 268 L 384.5 267 L 379 271.5 Q 376.7 274.7 378 281.5 L 380 284.5 L 378.5 285 L 373 280.5 L 372 269.5 L 377.5 262 L 379.5 261 Z " /><path fill="rgb(255,255,255)" stroke="rgb(255,255,255)" stroke-width="0" opacity="1" d="M 159 269 L 166 270 L 170.5 280 L 181.5 283 L 191 288.5 L 192 291.5 L 188.5 293 L 178.5 288 L 177 291.5 L 180 297.5 L 176.5 299 L 165.5 290 L 155 287 L 157.5 283 Q 161.5 283.5 162 280.5 L 162 276.5 L 159 269 Z " /><path fill="rgb(255,255,255)" stroke="rgb(255,255,255)" stroke-width="0" opacity="1" d="M 195 269 L 201.5 269 L 202 270.5 L 206.5 277 L 222.5 281 L 228 285.5 L 226.5 289 L 214.5 285 L 213 287.5 Q 216.2 289.3 216 294.5 Q 214.7 297.2 213.5 295 L 193 282.5 L 194.5 280 L 198 278.5 L 198 275.5 L 195 269 Z " /><path fill="rgb(255,255,255)" stroke="rgb(255,255,255)" stroke-width="0" opacity="1" d="M 172 270 Q 175.3 272.1 183.5 271 L 189 270 L 191 275.5 Q 190.5 279.5 185.5 279 L 175.5 276 L 173 273.5 L 172 270 Z " /><path fill="rgb(255,255,255)" stroke="rgb(255,255,255)" stroke-width="0" opacity="1" d="M 431 270 L 445.5 274 L 454 279.5 Q 441.8 289 423 291 L 424 285.5 L 431 270 Z " /><path fill="rgb(255,255,255)" stroke="rgb(255,255,255)" stroke-width="0" opacity="1" d="M 432.5 295 L 435.5 295 L 443 302.5 L 441.5 304 L 432.5 304 Q 426.4 302.6 424 297.5 L 432.5 295 Z " /><path fill="rgb(255,255,255)" stroke="rgb(255,255,255)" stroke-width="0" opacity="1" d="M 318.5 310 L 334.5 310 Q 343.4 312.6 349 318.5 L 355 329.5 L 356 345.5 Q 351 372.5 332.5 386 L 315.5 395 L 302.5 396 L 300 395 L 306 387.5 L 306 385 L 302.5 385 L 291.5 391 L 280.5 392 L 272.5 390 L 268 386.5 L 267 382.5 L 270.5 379 L 275.5 378 L 287 371.5 L 285.5 368 L 279.5 371 L 271.5 372 L 267 369.5 L 267 365.5 L 279 343.5 L 289 329.5 L 298.5 320 Q 306.4 312.9 318.5 310 Z " /><path fill="rgb(255,255,255)" stroke="rgb(255,255,255)" stroke-width="0" opacity="1" d="M 352.5 424 Q 357 423 358 425.5 L 362.5 432 L 378.5 435 L 386 440.5 Q 385.5 443.5 381.5 443 L 371.5 439 L 370 441.5 Q 373.8 444.2 373 450 L 366.5 448 L 358.5 442 L 346 438.5 L 353 433.5 Q 353.6 427.4 350 425.5 L 352.5 424 Z " /><path fill="rgb(255,255,255)" stroke="rgb(255,255,255)" stroke-width="0" opacity="1" d="M 307.5 425 L 315 426 Q 315 432.7 319.5 436 L 333.5 439 L 342 444.5 L 342 447 L 335.5 447 L 330.5 444 L 327 444 L 327 447.5 L 330 453.5 L 327.5 455 L 310.5 444 L 303 443 L 304.5 439 L 310 436.5 L 310 432.5 L 307.5 425 Z " /><path fill="rgb(255,255,255)" stroke="rgb(255,255,255)" stroke-width="0" opacity="1" d="M 338.5 426 Q 343.8 424.8 345 427.5 L 346 430.5 L 339.5 436 L 322 429.5 L 321 427.5 L 337.5 427 L 338.5 426 Z " /><path fill="rgb(0,0,0)" stroke="rgb(0,0,0)" stroke-width="0" opacity="1" d="M 221.5 51 Q 231 49 233 54.5 Q 231.7 59.1 237.5 57 L 238.5 56 L 246.5 56 L 253 60.5 L 253 65.5 L 251 69 Q 264 74.1 272 85.5 L 280 99.5 L 283 111.5 L 284.5 113 Q 302.7 115.3 313 125.5 L 314 128.5 L 309.5 134 L 294 141.5 L 299 145.5 L 302 149.5 L 302 153.5 L 295.5 158 L 283 158 L 276 169.5 L 276 183.5 L 275 184.5 L 274 197.5 L 268 216.5 Q 258.9 236.9 242.5 250 Q 228.4 262.4 207 267.5 L 209 272 Q 224.6 272.7 233 281.5 L 235 287.5 L 231.5 293 L 224.5 295 L 221.5 294 L 221 296.5 L 217.5 301 L 211.5 301 L 202.5 294 L 197 292 Q 197.8 296.7 193.5 298 L 185.5 298 L 185 300.5 L 181.5 305 L 173.5 304 L 162.5 295 L 153.5 293 L 149 288.5 Q 148.1 280.6 153.5 279 L 156 277.5 L 152 267 Q 127.2 262.7 111.5 248 L 104.5 250 L 81.5 250 L 69.5 247 L 57 238.5 Q 52.7 235.3 54 226.5 L 58.5 221 Q 60.8 221.8 60 219.5 Q 54.1 214.9 51 207.5 L 51 196.5 L 56.5 189 Q 60.5 186 68.5 187 L 82.5 192 L 98 200 Q 107.7 174.5 127.5 158 L 152 139.5 L 156 130.5 L 157 118.5 L 163 98.5 Q 169.5 84.5 180.5 75 Q 189.5 67 202.5 63 L 210.5 56 L 221.5 51 Z M 226 57 L 215 61 L 206 69 L 188 78 Q 174 88 168 105 L 164 119 L 162 135 L 158 143 L 137 159 L 113 185 Q 105 195 102 208 L 96 207 L 73 195 L 62 194 L 57 200 L 57 204 L 60 211 Q 65 218 75 221 L 76 225 L 74 226 L 70 225 Q 62 224 60 229 L 61 233 L 67 238 L 81 243 L 106 243 L 114 241 Q 125 251 140 257 L 157 262 L 168 263 L 169 264 L 191 264 L 211 260 Q 228 254 241 243 Q 253 232 261 216 L 268 193 L 270 168 L 278 156 Q 271 151 269 143 L 271 133 L 278 117 Q 275 99 265 88 L 258 80 L 241 71 L 246 63 Q 233 62 227 67 L 223 66 L 225 61 Q 229 59 226 57 Z M 284 119 L 276 138 L 276 139 Q 294 137 306 129 Q 308 130 307 127 Q 297 121 284 119 Z M 286 143 L 281 145 Q 276 143 277 147 L 285 152 L 295 152 L 296 151 L 288 143 L 286 143 Z M 159 269 L 162 277 L 162 281 Q 161 284 158 283 L 155 287 L 166 290 L 177 299 L 180 298 L 177 292 L 179 288 L 189 293 L 192 292 L 191 289 L 182 283 L 171 280 L 166 270 L 159 269 Z M 195 269 L 198 276 L 198 279 L 195 280 L 193 283 L 214 295 Q 215 297 216 295 Q 216 289 213 288 L 215 285 L 227 289 L 228 286 L 223 281 L 207 277 L 202 271 L 202 269 L 195 269 Z M 172 270 L 173 274 L 176 276 L 186 279 Q 191 280 191 276 L 189 270 L 184 271 Q 175 272 172 270 Z " /><path fill="rgb(0,0,0)" stroke="rgb(0,0,0)" stroke-width="0" opacity="1" d="M 233.5 102 L 240.5 102 L 247 105 L 252 114.5 L 252 124.5 Q 250.5 131 245.5 134 Q 242.3 137.8 233.5 136 L 225 129.5 L 223 125.5 L 222 117.5 L 224 110.5 L 229.5 104 L 233.5 102 Z M 236 107 L 233 108 Q 228 111 227 118 L 229 127 L 235 131 L 236 131 L 233 127 L 234 118 L 240 113 L 246 114 L 244 109 Q 242 106 236 107 Z " /><path fill="rgb(0,0,0)" stroke="rgb(0,0,0)" stroke-width="0" opacity="1" d="M 164.5 150 Q 189.9 147.6 199 161.5 L 205 171.5 L 207 179.5 L 207 193.5 Q 201.2 221.2 181.5 235 Q 170.7 244.7 151.5 246 L 146.5 245 L 140.5 240 L 138.5 240 L 137.5 241 L 125.5 241 Q 116 239.5 111 233.5 Q 108 230.5 109 223.5 L 113 218.5 Q 107.7 216.3 109 207.5 Q 120.8 179.8 141.5 161 Q 150.4 152.9 164.5 150 Z M 170 155 L 158 158 L 145 166 Q 133 176 125 190 L 116 206 L 115 213 L 120 215 L 125 215 L 133 212 Q 136 211 135 215 L 129 219 L 117 223 Q 114 224 115 229 Q 118 234 126 235 L 138 235 L 151 229 L 154 231 L 153 233 L 147 238 L 152 240 L 167 237 L 180 229 Q 196 217 201 194 Q 203 175 196 167 Q 189 155 170 155 Z " /><path fill="rgb(0,0,0)" stroke="rgb(0,0,0)" stroke-width="0" opacity="1" d="M 367.5 203 Q 375.9 202.1 380.5 205 L 392 213.5 L 393.5 216 Q 408.1 220.9 417 231.5 L 428 248.5 L 432 264 Q 449.9 266.8 461 277.5 Q 462 284 457.5 285 L 441 292.5 L 449 300.5 L 450 304.5 L 447.5 308 Q 442.8 311.3 433.5 310 L 432 311.5 L 425 324.5 L 426 325.5 L 426 335.5 L 425 336.5 L 425 346.5 L 423 357.5 L 419 369.5 Q 409.8 392.8 391.5 407 Q 379 417 362 422.5 L 364 426 L 382.5 430 L 390 435.5 L 392 442.5 L 387.5 448 L 379 448 L 379 451.5 L 376.5 455 L 368.5 456 L 357.5 448 L 348.5 445 L 344.5 452 L 335 453.5 L 335 455.5 L 332.5 460 L 326.5 461 L 313.5 452 L 300.5 448 L 297 444.5 Q 295.9 436.9 300.5 435 L 304 432.5 L 301 424 L 284.5 419 Q 272.7 414.3 264.5 406 L 258.5 405 L 240.5 409 L 218.5 409 L 203.5 405 L 193 397.5 Q 188.7 394.3 190 385.5 L 193.5 381 L 197 379.5 L 189 372.5 L 184 362.5 L 184 356.5 Q 185.5 350 190.5 347 Q 195.5 343 206.5 345 L 243.5 360 L 247 360 Q 258.3 332.1 279.5 313 L 306 291.5 L 308 286.5 L 309 269.5 L 313 254.5 L 319 242.5 L 328 231 L 337.5 224 L 345 220.5 Q 341.4 219.1 342 213.5 L 344.5 210 Q 348.8 206.3 358.5 208 L 363 209 L 365.5 204 L 367.5 203 Z M 370 209 L 373 215 Q 374 218 372 219 L 362 215 L 351 214 L 349 217 L 352 218 Q 356 219 355 224 Q 344 226 337 233 Q 326 242 320 256 L 315 275 L 315 287 L 312 295 Q 302 305 290 313 Q 264 335 250 368 L 241 366 L 203 351 L 195 352 L 191 357 Q 190 365 194 369 Q 202 379 219 381 L 220 384 L 218 385 Q 212 387 211 384 Q 200 383 196 388 L 197 392 L 203 397 L 218 402 L 243 402 L 264 397 Q 274 407 288 413 L 296 416 L 315 420 L 342 420 L 361 416 Q 378 410 391 399 Q 406 385 414 364 L 419 340 L 419 320 L 426 310 L 426 308 L 417 297 L 417 288 L 426 268 Q 424 249 414 239 Q 406 227 391 222 L 388 219 Q 381 211 370 209 Z M 431 270 L 424 286 L 423 291 Q 442 289 454 280 L 446 274 L 431 270 Z M 433 295 L 424 298 Q 426 303 433 304 L 442 304 L 443 303 L 436 295 L 433 295 Z M 353 424 L 350 426 Q 354 427 353 434 L 346 439 L 359 442 L 367 448 L 373 450 Q 374 444 370 442 L 372 439 L 382 443 Q 386 444 386 441 L 379 435 L 363 432 L 358 426 Q 357 423 353 424 Z M 308 425 L 310 433 L 310 437 L 305 439 L 303 443 L 311 444 L 328 455 L 330 454 L 327 448 L 327 444 L 331 444 L 336 447 L 342 447 L 342 445 L 334 439 L 320 436 Q 315 433 315 426 L 308 425 Z M 339 426 L 338 427 L 321 428 L 322 430 L 340 436 L 346 431 L 345 428 Q 344 425 339 426 Z " /><path fill="rgb(0,0,0)" stroke="rgb(0,0,0)" stroke-width="0" opacity="1" d="M 378.5 256 L 385.5 256 L 395 263.5 Q 398.1 268.9 397 278.5 L 391.5 288 Q 388 292 379.5 291 Q 373 289.5 370 284.5 Q 365.3 279.7 367 268.5 Q 368.8 261.3 374.5 258 L 378.5 256 Z M 380 261 L 378 262 L 372 270 L 373 281 L 379 285 L 380 285 L 378 282 Q 377 275 379 272 L 385 267 L 390 268 L 391 268 L 390 266 Q 388 260 380 261 Z " /><path fill="rgb(0,0,0)" stroke="rgb(0,0,0)" stroke-width="0" opacity="1" d="M 317.5 304 Q 330.2 302.3 338.5 305 Q 348 308.5 354 315.5 L 361 329.5 L 362 345.5 L 360 355.5 L 355 368.5 L 339.5 388 Q 331 395.5 319.5 400 L 312.5 402 L 301.5 402 L 294 397.5 Q 294.8 395.3 292.5 396 L 291.5 397 L 280.5 398 L 271.5 396 L 264 392 L 261 386.5 L 261 381.5 L 265 375 L 262 373.5 L 261 364.5 L 278 334.5 L 295.5 315 Q 304.3 307.3 317.5 304 Z M 319 310 Q 306 313 299 320 L 289 330 L 279 344 L 267 366 L 267 370 L 272 372 L 280 371 L 286 368 L 287 372 L 276 378 L 271 379 L 267 383 L 268 387 L 273 390 L 281 392 L 292 391 L 303 385 L 306 385 L 306 388 L 300 395 L 303 396 L 316 395 L 333 386 Q 351 373 356 346 L 355 330 L 349 319 Q 343 313 335 310 L 319 310 Z " /></svg>