<svg width="627" height="627" preserveAspectRatio="xMidYMid meet" viewBox="0 0 512 512" version="1.1" xmlns="http://www.w3.org/2000/svg" ><path fill="rgb(255,255,255)" stroke="rgb(255,255,255)" stroke-width="0" opacity="1" d="M 0 0 L 512 0 L 512 512 L 0 512 L 0 0 Z M 238 47 L 237 48 L 218 50 L 197 55 L 173 64 Q 137 80 112 105 Q 82 134 64 175 L 56 197 L 51 217 L 50 228 L 49 229 L 49 237 L 48 238 L 48 253 L 47 254 L 48 259 L 48 277 L 50 285 L 50 292 L 55 314 L 60 329 Q 74 366 98 394 Q 122 422 157 441 Q 177 452 201 459 L 218 463 L 229 464 L 230 465 L 238 465 L 239 466 L 273 466 L 274 465 L 283 465 L 305 461 L 325 455 Q 366 440 396 413 Q 427 385 446 344 L 457 314 Q 458 304 461 297 L 463 277 L 464 276 L 464 238 L 463 237 L 463 229 L 460 212 L 455 193 L 443 163 L 433 145 Q 420 124 404 108 Q 374 76 330 59 L 303 51 L 286 48 Q 279 50 278 47 L 238 47 Z " /><path fill="rgb(255,255,255)" stroke="rgb(255,255,255)" stroke-width="0" opacity="1" d="M 244.5 62 L 269.5 62 L 270.5 63 L 281.5 63 L 282.5 64 L 294.5 65 L 320.5 72 L 335.5 78 Q 375.2 96.3 402 127.5 Q 426.6 155.4 440 194.5 L 445 212.5 L 448 229.5 L 448 236.5 L 449 237.5 L 449 274.5 L 448 275.5 L 448 283.5 L 445 299.5 L 440 317.5 L 424 353.5 Q 406.9 383.4 381.5 405 Q 355.9 426.9 321.5 440 L 301.5 446 L 285.5 449 L 266.5 450 L 265.5 451 L 246.5 451 L 245.5 450 L 233.5 450 L 232.5 449 L 215.5 447 L 178.5 435 Q 137.6 416.4 110 384.5 Q 86.7 357.8 73 321.5 L 64 286.5 L 63 268.5 L 62 267.5 L 62 245.5 L 63 244.5 L 64 226.5 L 68 207.5 L 81 172.5 Q 97.8 137.8 124.5 113 Q 148.4 90.9 180.5 77 L 215.5 66 L 232.5 64 L 233.5 63 L 243.5 63 L 244.5 62 Z " /><path fill="rgb(0,0,0)" stroke="rgb(0,0,0)" stroke-width="0" opacity="1" d="M 237.5 47 L 277.5 47 Q 279.3 49.7 285.5 48 L 302.5 51 L 329.5 59 Q 373.7 76.3 404 107.5 Q 420.4 124.1 433 144.5 L 443 162.5 L 455 192.5 L 460 211.5 L 463 228.5 L 463 236.5 L 464 237.5 L 464 275.5 L 463 276.5 L 461 296.5 Q 457.5 303.5 457 313.5 L 446 343.5 Q 427.1 384.6 395.5 413 Q 366.2 440.2 324.5 455 L 304.5 461 L 282.5 465 L 273.5 465 L 272.5 466 L 238.5 466 L 237.5 465 L 229.5 465 L 228.5 464 L 217.5 463 L 200.5 459 Q 176.5 452 156.5 441 Q 122.4 422.1 98 393.5 Q 74.1 365.9 60 328.5 L 55 313.5 L 50 291.5 L 50 284.5 L 48 276.5 L 48 258.5 L 47 253.5 L 48 252.5 L 48 237.5 L 49 236.5 L 49 228.5 L 50 227.5 L 51 216.5 L 56 196.5 L 64 174.5 Q 81.7 133.7 111.5 105 Q 137.3 79.8 172.5 64 L 196.5 55 L 217.5 50 L 236.5 48 L 237.5 47 Z M 245 62 L 244 63 L 234 63 L 233 64 L 216 66 L 181 77 Q 148 91 125 113 Q 98 138 81 173 L 68 208 L 64 227 L 63 245 L 62 246 L 62 268 L 63 269 L 64 287 L 73 322 Q 87 358 110 385 Q 138 416 179 435 L 216 447 L 233 449 L 234 450 L 246 450 L 247 451 L 266 451 L 267 450 L 286 449 L 302 446 L 322 440 Q 356 427 382 405 Q 407 383 424 354 L 440 318 L 445 300 L 448 284 L 448 276 L 449 275 L 449 238 L 448 237 L 448 230 L 445 213 L 440 195 Q 427 155 402 128 Q 375 96 336 78 L 321 72 L 295 65 L 283 64 L 282 63 L 271 63 L 270 62 L 245 62 Z " /></svg>