<svg width="627" height="627" preserveAspectRatio="xMidYMid meet" viewBox="0 0 512 512" version="1.1" xmlns="http://www.w3.org/2000/svg" ><path fill="rgb(254,254,254)" stroke="rgb(254,254,254)" stroke-width="0.6" opacity="1" d="M 0 0 L 512 0 L 512 512 L 0 512 L 0 0 Z M 252 69 L 251 70 L 209 71 L 174 75 L 127 85 Q 88 95 61 117 L 46 135 L 42 150 L 43 187 Q 47 199 55 208 L 68 219 L 65 275 L 64 276 L 61 364 L 60 365 L 60 383 L 64 391 L 77 397 Q 91 399 98 393 L 104 383 L 111 241 L 156 253 L 166 254 L 167 256 L 167 271 L 166 272 L 166 315 L 168 320 Q 172 327 183 328 Q 196 329 203 324 L 209 314 L 209 266 L 212 261 L 224 262 L 304 261 L 305 263 L 306 275 L 309 425 L 312 436 Q 317 442 327 444 Q 339 445 347 441 Q 354 437 355 427 L 354 380 L 353 379 L 353 340 L 352 339 L 352 301 L 351 300 L 351 256 L 356 253 L 381 248 L 403 240 L 404 242 L 405 253 L 411 345 L 412 353 L 415 360 Q 420 366 430 367 Q 443 368 450 362 L 455 353 L 446 219 L 452 214 Q 467 203 471 182 L 471 148 Q 469 135 462 127 Q 451 113 435 104 Q 413 92 388 85 L 335 74 L 294 70 L 252 69 Z " /><path fill="rgb(155,101,59)" stroke="rgb(155,101,59)" stroke-width="0.6" opacity="1" d="M 232.5 77 L 256.5 78 L 260.5 77 L 269.5 78 L 282.5 77 L 292.5 79 L 298.5 78 L 305.5 80 L 309.5 79 L 314.5 81 L 321.5 80 L 359.5 86 L 403.5 98 L 436.5 114 L 454 128.5 L 461 139.5 Q 464.1 144.9 463 154.5 Q 459.9 165.9 452.5 173 L 449 175.5 L 447.5 177 L 431.5 189 L 394.5 205 L 351.5 216 L 311.5 221 L 309.5 221 L 301.5 222 L 299.5 222 L 246.5 224 L 245.5 223 L 210.5 222 L 204.5 220 L 201.5 221 L 191.5 219 L 189.5 220 L 154.5 214 L 122.5 206 L 118.5 203 L 113.5 203 L 80.5 188 Q 66.8 180.2 57 168.5 Q 50 161 50 146.5 Q 53.6 131.1 64.5 123 L 83.5 110 L 107.5 99 L 140.5 89 L 186.5 81 L 188.5 82 L 193.5 80 L 195.5 81 L 199.5 80 L 201.5 81 L 208.5 79 L 210.5 79 L 219.5 78 L 222.5 79 L 232.5 77 Z " /><path fill="rgb(155,101,59)" stroke="rgb(155,101,59)" stroke-width="0.6" opacity="1" d="M 437.5 223 L 440 230.5 L 442 258.5 L 441 260.5 L 442 265.5 L 441 268.5 L 443 277.5 L 442 279.5 L 444 290.5 L 443 292.5 L 445 304.5 L 444 306.5 L 446 317.5 L 445 319.5 L 446 325.5 L 445 327.5 L 447 334.5 L 448 350.5 L 443.5 358 Q 438.5 361 429.5 360 L 420 354.5 L 418 339.5 L 419 337.5 L 417 329.5 L 418 327.5 L 417 322.5 L 418 320.5 L 416 312.5 L 417 309.5 L 415 302.5 L 414 285.5 L 415 283.5 L 413 274.5 L 414 272.5 L 413 267.5 L 414 264.5 L 412 257.5 L 413 254.5 Q 409.8 248.7 411 238.5 L 414.5 235 L 434.5 226 L 437.5 223 Z " /><path fill="rgb(6,6,6)" stroke="rgb(6,6,6)" stroke-width="0.6" opacity="1" d="M 226.5 71 Q 307.6 67.4 370.5 82 Q 396 87.5 417.5 97 Q 442.2 106.8 459 124.5 Q 466.3 131.7 469 143.5 L 470 179.5 Q 466.9 200.4 453.5 211 L 445 217.5 L 454 350.5 Q 453.3 358.8 447.5 362 Q 441.3 366.8 429.5 366 Q 419.4 364.6 415 357.5 L 412 340.5 L 406 249.5 L 405 240.5 L 403.5 239 L 367.5 250 L 350 253 L 353 430.5 L 347.5 439 Q 340.6 443.6 328.5 443 Q 319.1 441.9 314 436.5 L 311 430.5 L 311 415.5 L 310 414.5 L 310 379.5 L 309 378.5 L 308 309.5 L 307 308.5 L 307 262.5 L 304.5 259 L 287.5 261 L 228.5 261 L 209.5 259 L 208 260.5 L 208 310.5 Q 207.4 320.4 200.5 324 Q 194.3 327.8 183.5 327 Q 174.3 326.3 170 320.5 L 167 313.5 L 167 283.5 L 168 282.5 L 168 254.5 L 166.5 253 L 132.5 246 L 111.5 239 L 110 240.5 L 109 249.5 L 103 381.5 Q 101.6 389.6 95.5 393 Q 89.5 397 78.5 396 Q 68 394.6 63 387.5 Q 60 381.5 61 371.5 L 62 370.5 L 64 300.5 L 65 299.5 L 69 218.5 L 53 203.5 Q 46.5 196 44 184.5 L 44 144.5 Q 49.7 124.2 65.5 114 Q 91.9 95.4 127.5 86 L 175.5 76 L 226.5 71 Z M 236 76 L 235 77 L 214 77 L 171 82 L 130 91 Q 91 101 65 122 Q 54 131 49 146 Q 48 161 56 169 Q 65 180 79 188 Q 97 199 120 206 L 170 218 L 223 224 L 307 223 L 366 214 Q 394 208 418 197 Q 437 189 451 176 Q 461 168 464 154 Q 465 138 457 131 Q 443 115 423 105 Q 396 93 365 86 L 337 81 L 302 77 L 236 76 Z M 49 169 L 49 185 Q 52 196 60 204 L 84 221 L 124 238 L 175 250 L 204 254 L 234 255 L 235 256 L 282 256 L 283 255 L 313 254 L 367 245 L 415 229 Q 433 221 448 209 Q 459 200 464 185 L 464 171 L 463 170 L 460 174 Q 448 187 432 196 Q 411 207 387 214 L 368 219 L 327 226 L 294 229 L 265 229 L 264 230 L 207 228 L 174 224 L 148 219 L 104 206 L 77 193 L 62 182 L 52 171 L 49 169 Z M 76 222 L 73 229 L 73 244 L 72 245 L 70 305 L 67 344 L 67 375 L 66 376 L 68 386 L 77 391 Q 87 393 93 389 L 98 383 L 105 238 L 76 222 Z M 438 222 L 410 238 L 415 318 L 419 355 L 429 361 Q 440 363 445 358 L 449 352 L 440 224 L 438 222 Z M 175 255 L 173 257 L 173 289 L 172 290 L 173 316 L 183 322 Q 192 323 198 320 L 203 312 L 203 260 L 202 258 L 175 255 Z M 337 255 L 322 258 L 314 258 L 311 261 L 312 303 L 313 304 L 313 340 L 314 341 L 314 377 L 315 378 L 315 420 L 317 432 Q 320 437 328 438 Q 337 439 343 436 L 348 430 L 347 343 L 346 342 L 344 257 Q 343 253 337 255 Z " /><path fill="rgb(213,175,120)" stroke="rgb(213,175,120)" stroke-width="0.6" opacity="1" d="M 50 172 L 53 173.5 L 63.5 185 Q 79.2 196.8 98.5 205 L 146.5 220 L 194.5 228 L 237.5 230 L 238.5 231 L 276.5 231 L 309.5 228 L 311.5 229 L 367.5 220 L 402.5 210 L 438.5 193 Q 451.9 184.9 461.5 173 Q 465.3 175.3 463 183.5 Q 459.6 198.1 449.5 206 Q 434.4 219.4 414.5 228 L 377.5 241 Q 332.5 253 277.5 255 L 275.5 254 L 274.5 255 L 241.5 255 L 239.5 254 L 235.5 255 L 175.5 249 L 124.5 237 L 87.5 222 Q 69.2 213.3 57 198.5 Q 48.5 189.8 50 172 Z " /><path fill="rgb(213,175,120)" stroke="rgb(213,175,120)" stroke-width="0.6" opacity="1" d="M 175.5 256 L 200.5 259 L 202 260.5 L 202 309.5 Q 201.6 316.1 197.5 319 Q 192.4 322.4 182.5 321 L 174 315.5 L 173 313.5 L 173 287.5 L 174 286.5 L 174 257.5 L 175.5 256 Z " /><path fill="rgb(90,135,166)" stroke="rgb(90,135,166)" stroke-width="0.6" opacity="1" d="M 336.5 256 L 344 256 L 344 259.5 L 343 267.5 L 344 268.5 L 344 306.5 L 345 307.5 L 345 343.5 L 346 344.5 L 348 426.5 Q 347.4 432.9 342.5 435 Q 337.1 438.6 326.5 437 L 318 431.5 L 316 424.5 L 315 381.5 L 316 377.5 L 315 376.5 L 315 339.5 L 314 338.5 L 314 302.5 L 313 301.5 L 312 260.5 L 313.5 259 L 336.5 256 Z " /><path fill="rgb(182,78,69)" stroke="rgb(182,78,69)" stroke-width="0.6" opacity="1" d="M 76.5 223 Q 87.9 232 103 236 L 104 244.5 L 102 262.5 L 103 266.5 L 101 284.5 L 101 301.5 L 99 312.5 L 100 320.5 L 98 343.5 L 98 345.5 L 97 381.5 L 92.5 388 L 85.5 390 L 81.5 389 L 77.5 390 L 69 385.5 Q 65.6 380.4 67 370.5 L 68 369.5 L 69 326.5 L 71 315.5 L 70 309.5 L 71 305.5 L 70 303.5 L 71 302.5 L 73 248.5 L 75 238.5 L 74 231.5 L 76.5 223 Z " /><path fill="rgb(23,25,27)" stroke="rgb(23,25,27)" stroke-width="0.6" opacity="1" d="M 60.5 118 L 55.5 124 L 60.5 118 Z " /><path fill="rgb(23,25,27)" stroke="rgb(23,25,27)" stroke-width="0.6" opacity="1" d="M 64.5 122 L 59.5 128 L 64.5 122 Z " /><path fill="rgb(23,25,27)" stroke="rgb(23,25,27)" stroke-width="0.6" opacity="1" d="M 43.5 151 L 44 179.5 L 43 179.5 L 43.5 151 Z " /><path fill="rgb(23,25,27)" stroke="rgb(23,25,27)" stroke-width="0.6" opacity="1" d="M 239.5 229 L 250 229.5 L 239.5 230 L 239.5 229 Z " /><path fill="rgb(23,25,27)" stroke="rgb(23,25,27)" stroke-width="0.6" opacity="1" d="M 264.5 229 L 276 229.5 L 264.5 230 L 264.5 229 Z " /><path fill="rgb(23,25,27)" stroke="rgb(23,25,27)" stroke-width="0.6" opacity="1" d="M 313.5 258 L 315 258.5 L 312 260.5 L 311.5 267 L 311 260.5 L 313.5 258 Z " /><path fill="rgb(23,25,27)" stroke="rgb(23,25,27)" stroke-width="0.6" opacity="1" d="M 306.5 262 L 307 274.5 L 306 274.5 L 306.5 262 Z " /><path fill="rgb(23,25,27)" stroke="rgb(23,25,27)" stroke-width="0.6" opacity="1" d="M 315.5 408 L 316 419.5 L 315 419.5 L 315.5 408 Z " /><path fill="rgb(43,45,46)" stroke="rgb(43,45,46)" stroke-width="0.6" opacity="1" d="M 247.5 70 L 267 70.5 L 247.5 71 L 247.5 70 Z " /><path fill="rgb(43,45,46)" stroke="rgb(43,45,46)" stroke-width="0.6" opacity="1" d="M 239.5 76 L 252 76.5 L 239.5 77 L 239.5 76 Z " /><path fill="rgb(43,45,46)" stroke="rgb(43,45,46)" stroke-width="0.6" opacity="1" d="M 265.5 76 L 276 76.5 L 265.5 77 L 265.5 76 Z " /><path fill="rgb(63,64,62)" stroke="rgb(63,64,62)" stroke-width="0.6" opacity="1" d="M 252.5 76 L 265 76.5 L 252.5 77 L 252.5 76 Z " /><path fill="rgb(63,64,62)" stroke="rgb(63,64,62)" stroke-width="0.6" opacity="1" d="M 246.5 261 L 271 261.5 L 246.5 262 L 246.5 261 Z " /><path fill="rgb(86,83,77)" stroke="rgb(86,83,77)" stroke-width="0.6" opacity="1" d="M 247.5 255 L 270 255.5 L 247.5 256 L 247.5 255 Z " /><path fill="rgb(129,93,62)" stroke="rgb(129,93,62)" stroke-width="0.6" opacity="1" d="M 246.5 77 L 257 77.5 L 246.5 78 L 246.5 77 Z " /><path fill="rgb(129,93,62)" stroke="rgb(129,93,62)" stroke-width="0.6" opacity="1" d="M 265.5 223 L 276 223.5 L 265.5 224 L 265.5 223 Z " /><path fill="rgb(162,156,140)" stroke="rgb(162,156,140)" stroke-width="0.6" opacity="1" d="M 49 170 L 52 171.5 L 50 171.5 L 49.5 178 L 49 170 Z " /><path fill="rgb(162,156,140)" stroke="rgb(162,156,140)" stroke-width="0.6" opacity="1" d="M 462.5 171 L 464 171.5 L 464 180.5 L 463 180.5 L 462.5 171 Z " /><path fill="rgb(186,186,186)" stroke="rgb(186,186,186)" stroke-width="0.6" opacity="1" d="M 470.5 150 L 471 178.5 L 470 178.5 L 470.5 150 Z " /><path fill="rgb(186,186,186)" stroke="rgb(186,186,186)" stroke-width="0.6" opacity="1" d="M 42.5 152 L 43 178.5 L 42 178.5 L 42.5 152 Z " /><path fill="rgb(186,186,186)" stroke="rgb(186,186,186)" stroke-width="0.6" opacity="1" d="M 351.5 254 L 351 255.5 L 350.5 268 L 350 255.5 L 351.5 254 Z " /><path fill="rgb(186,186,186)" stroke="rgb(186,186,186)" stroke-width="0.6" opacity="1" d="M 301.5 260 L 306 261.5 L 305.5 269 L 305 261 Q 300.6 262 301.5 260 Z " /><path fill="rgb(186,186,186)" stroke="rgb(186,186,186)" stroke-width="0.6" opacity="1" d="M 166.5 280 L 167 290.5 L 166 290.5 L 166.5 280 Z " /><path fill="rgb(215,215,215)" stroke="rgb(215,215,215)" stroke-width="0.6" opacity="1" d="M 251.5 69 L 263 69.5 L 251.5 70 L 251.5 69 Z " /></svg>