<svg width="627" height="627" preserveAspectRatio="xMidYMid meet" viewBox="0 0 512 512" version="1.1" xmlns="http://www.w3.org/2000/svg" ><path fill="rgb(255,255,255)" stroke="rgb(255,255,255)" stroke-width="0.6" opacity="1" d="M 0 0 L 512 0 L 512 512 L 0 512 L 0 0 Z M 270 47 L 220 51 L 199 58 L 182 68 Q 170 77 163 90 L 154 114 Q 150 134 152 160 L 151 161 L 137 163 L 105 175 Q 85 184 70 197 L 56 213 L 50 227 L 50 254 Q 55 270 66 281 L 70 292 L 70 306 L 72 309 L 72 325 L 73 326 L 73 387 L 79 405 L 89 412 Q 92 414 90 423 L 94 433 L 104 439 L 124 439 L 129 437 L 134 431 L 138 421 L 147 423 L 170 424 L 182 427 L 203 428 L 208 430 L 220 430 L 230 433 L 255 434 L 260 436 L 309 440 L 312 445 Q 311 454 315 459 Q 319 465 329 466 Q 343 468 351 463 Q 358 457 358 444 L 395 414 L 401 416 Q 411 417 417 414 L 423 406 L 424 390 Q 434 381 437 366 L 438 318 L 439 317 L 439 299 L 441 296 L 441 285 L 444 278 L 455 264 L 462 244 L 461 212 Q 457 197 447 190 L 450 165 Q 455 111 431 87 Q 419 73 402 65 L 366 54 L 334 50 L 323 50 L 320 48 L 270 47 Z " /><path fill="rgb(156,102,60)" stroke="rgb(156,102,60)" stroke-width="0.6" opacity="1" d="M 256.5 55 L 266.5 56 L 267.5 55 L 282.5 55 L 283.5 56 L 325.5 57 L 369.5 63 L 401.5 74 L 421 88.5 L 422.5 91 L 426 93.5 Q 434.6 103.4 439 117.5 L 442 131.5 L 443 151.5 Q 440.1 162.1 441 176.5 L 439 184 Q 430.9 184.7 427.5 180 L 405.5 180 Q 352.4 193.4 322 229.5 L 313.5 242 L 272.5 236 L 245.5 234 L 217.5 234 L 209.5 235 L 208 233.5 L 208 210.5 L 205 194.5 Q 200.5 179 190.5 169 L 174.5 161 L 161.5 160 L 160 158.5 L 159 137.5 L 161 119.5 L 168 97.5 Q 173.9 84.4 184.5 76 Q 194.8 66.8 209.5 62 L 226.5 58 L 256.5 55 Z " /><path fill="rgb(156,102,60)" stroke="rgb(156,102,60)" stroke-width="0.6" opacity="1" d="M 84.5 206 L 100.5 208 Q 109.9 211.6 115 219.5 Q 123.2 229.8 126 245.5 L 128 281.5 L 123 293.5 L 122 318.5 L 124 330.5 L 129 339.5 L 129 344.5 L 128 345.5 L 128 395.5 L 130 412 L 98.5 408 L 85 399.5 L 82 392.5 L 80 375.5 L 80 317.5 L 77 288.5 L 73 277.5 Q 64.7 270.3 60 259.5 L 57 247.5 L 57 233.5 L 61 220.5 L 72.5 209 L 84.5 206 Z " /><path fill="rgb(156,102,60)" stroke="rgb(156,102,60)" stroke-width="0.6" opacity="1" d="M 277.5 302 L 301 302.5 L 277.5 303 L 277.5 302 Z " /><path fill="rgb(156,102,60)" stroke="rgb(156,102,60)" stroke-width="0.6" opacity="1" d="M 99.5 415 Q 111.2 419.3 127.5 419 L 129 420.5 Q 128.3 428.8 122.5 432 L 112.5 433 Q 103.5 432 99 426.5 L 98 416.5 L 99.5 415 Z " /><path fill="rgb(156,102,60)" stroke="rgb(156,102,60)" stroke-width="0.6" opacity="1" d="M 334.5 445 L 348.5 445 L 350 446.5 L 348.5 446 L 334.5 446 L 334.5 445 Z " /><path fill="rgb(216,177,122)" stroke="rgb(216,177,122)" stroke-width="0.6" opacity="1" d="M 409.5 187 Q 422.5 186 431.5 189 Q 442.9 193.6 449 203.5 L 454 217.5 L 454 241.5 L 451 253.5 L 444.5 265 L 441 267.5 L 434 278.5 L 433 291.5 L 431 296.5 L 432 304.5 Q 428.6 307.1 430 314.5 L 431 315.5 L 431 337.5 L 429 340.5 L 428 368.5 Q 424.7 380.7 415.5 387 L 370.5 424 L 362 429 L 364 421.5 L 364 413.5 L 363 401.5 L 365 393.5 L 364 389.5 L 365 388.5 L 365 351.5 L 367 343.5 L 366 338.5 L 368 335.5 Q 366.6 324.6 370 318.5 Q 382.7 307.2 390 290.5 Q 393.3 280.2 392 265.5 Q 388.9 241.1 372.5 230 Q 362.2 222.3 342.5 224 L 340 225 Q 339.3 220.3 343.5 219 Q 369.1 195.6 409.5 187 Z " /><path fill="rgb(216,177,122)" stroke="rgb(216,177,122)" stroke-width="0.6" opacity="1" d="M 227.5 242 L 267.5 243 L 271.5 245 L 300.5 247 L 308 250 L 303 272.5 L 302 302 L 268.5 302 L 265.5 301 L 262.5 302 L 255.5 300 L 249.5 301 L 245.5 299 L 216.5 298 L 212.5 296 L 206.5 297 L 203.5 295 L 182.5 294 L 164.5 292 L 160.5 290 L 136.5 288 L 134 285.5 L 142.5 274 Q 161.8 256.8 188.5 247 L 203.5 243 L 226.5 243 L 227.5 242 Z " /><path fill="rgb(216,177,122)" stroke="rgb(216,177,122)" stroke-width="0.6" opacity="1" d="M 321.5 443 L 334.5 446 L 348.5 446 L 350 447.5 Q 350.3 454.8 345.5 457 L 334.5 459 L 325.5 457 L 321 453.5 L 320 444.5 L 321.5 443 Z " /><path fill="rgb(0,0,0)" stroke="rgb(0,0,0)" stroke-width="0.6" opacity="1" d="M 271.5 47 L 331.5 50 L 340.5 51 L 344.5 53 L 366.5 55 L 399.5 65 L 409.5 70 Q 423.8 78.7 434 91.5 Q 442.6 102.9 447 118.5 L 450 134.5 L 450 162.5 L 446 190.5 Q 465.5 204 462 240.5 L 458 255.5 L 454 263.5 L 441 281.5 L 438 315.5 L 437 361.5 Q 434.5 378.5 424 387.5 Q 425.2 398.7 422 405.5 L 414.5 414 L 399.5 415 L 394.5 413 L 357 443.5 Q 357.3 457.8 348.5 463 L 344.5 465 L 331.5 466 L 321.5 463 L 315 456.5 L 312 449.5 L 312 442.5 L 309.5 440 L 263.5 436 L 253.5 433 L 228.5 432 L 223.5 430 L 211.5 430 L 206.5 428 L 186.5 427 L 168.5 423 L 145.5 422 L 136.5 420 L 133 430.5 L 127.5 436 Q 120.7 441.7 105.5 439 L 95 432.5 L 91 423.5 L 91 413.5 L 88.5 411 L 79 402.5 L 75 392.5 L 73 381.5 L 73 323.5 L 72 322.5 L 71 293.5 L 66 278.5 Q 56.3 270.7 52 257.5 Q 48.1 246.9 50 230.5 L 56 214.5 L 73.5 195 L 106.5 175 L 132.5 165 L 153 159.5 L 152 130.5 Q 155.7 126.2 154 116.5 L 160 97.5 Q 167.4 80.9 180.5 70 L 197.5 59 L 222.5 51 L 233.5 51 L 236.5 49 L 247.5 48 L 270.5 48 L 271.5 47 Z M 256 55 L 229 57 L 215 60 Q 194 66 181 79 L 167 99 L 161 117 L 159 137 L 159 157 L 160 159 Q 163 163 174 161 L 187 167 Q 199 176 204 193 L 208 214 L 208 234 L 210 235 L 219 234 L 245 234 L 249 236 L 272 236 L 276 238 L 290 238 L 314 243 L 321 232 Q 352 194 408 180 L 425 180 L 439 185 L 442 173 L 442 154 L 443 153 Q 445 110 424 91 Q 414 80 401 73 L 367 62 L 346 60 L 343 58 L 315 57 L 310 55 L 256 55 Z M 153 167 Q 109 176 80 199 L 82 200 L 98 200 L 117 210 Q 126 219 130 234 L 133 245 L 135 270 L 138 270 L 161 252 Q 177 242 199 238 L 201 236 L 200 205 L 197 193 L 190 180 Q 180 164 153 167 Z M 412 186 Q 370 194 345 217 L 339 223 L 339 226 L 343 225 Q 364 223 374 232 L 385 246 L 391 265 Q 393 282 388 293 Q 381 307 370 317 L 367 327 L 366 349 L 364 355 L 363 423 L 361 426 L 363 430 L 416 388 Q 427 380 430 363 L 431 307 L 432 294 L 434 291 L 434 282 Q 438 270 447 264 Q 453 255 455 242 L 454 214 Q 451 204 445 198 L 434 189 Q 424 186 412 186 Z M 82 206 L 71 210 L 60 222 L 57 232 Q 55 248 59 259 Q 63 270 72 277 L 77 291 L 77 302 L 79 305 L 79 318 L 80 319 L 81 391 L 85 401 L 96 408 L 120 412 L 130 412 L 131 411 L 129 407 L 128 395 L 128 347 L 129 346 L 129 339 L 124 330 Q 126 321 122 318 L 123 316 L 123 295 L 128 283 Q 130 260 126 243 Q 123 228 115 219 Q 106 204 82 206 Z M 341 231 L 329 236 L 318 248 L 311 269 L 310 346 L 309 347 L 309 427 L 310 433 L 318 436 L 336 437 L 339 439 L 351 438 L 355 432 Q 354 421 357 415 L 357 363 L 361 324 L 364 315 L 379 297 L 384 285 L 384 260 Q 381 249 374 242 Q 368 235 359 232 L 341 231 Z M 228 241 L 227 242 L 206 242 L 187 247 Q 161 256 143 273 Q 136 278 133 287 L 138 289 L 162 291 L 165 293 L 215 297 L 219 299 L 248 300 L 277 303 L 302 303 L 303 302 L 304 271 L 310 251 L 299 246 L 270 244 L 266 242 L 228 241 Z M 133 293 L 130 296 L 130 326 L 132 333 Q 138 340 150 342 L 183 348 L 280 356 L 300 355 L 302 353 L 302 312 L 301 310 L 281 310 L 280 309 L 252 308 L 248 306 L 217 305 L 215 303 L 181 301 L 178 299 L 144 296 L 133 293 Z M 138 344 L 135 349 L 135 396 L 137 412 L 140 414 L 152 416 L 166 416 L 178 419 L 199 420 L 217 424 L 250 426 L 256 428 L 267 428 L 297 432 Q 302 433 304 431 L 302 425 L 302 364 L 301 362 L 294 363 L 290 362 L 257 362 L 254 360 L 232 360 L 222 359 L 220 357 L 187 355 L 184 353 L 156 350 L 138 344 Z M 414 397 L 402 407 L 404 409 L 413 408 L 416 404 L 416 397 L 414 397 Z M 99 415 L 97 417 L 99 428 L 110 433 L 124 432 Q 129 429 129 421 L 127 418 L 114 418 L 99 415 Z M 321 442 L 319 444 L 320 454 L 330 459 L 346 458 Q 351 455 351 447 L 350 445 L 335 445 L 321 442 Z " /><path fill="rgb(91,137,168)" stroke="rgb(91,137,168)" stroke-width="0.6" opacity="1" d="M 344.5 231 L 360.5 233 L 375 243.5 Q 387.1 254.9 384 281.5 L 379 295.5 L 364 313.5 L 361 321.5 L 358 345.5 L 358 360.5 L 356 369.5 L 357 370.5 L 357 384.5 L 356 385.5 L 356 419.5 Q 353.2 424.7 354 433.5 L 350.5 437 L 337.5 438 L 320.5 436 Q 313.8 435.7 311 431.5 L 309 422.5 L 309 347.5 L 310 346.5 L 310 282.5 Q 312.8 276.3 312 266.5 L 319 247.5 L 322.5 243 L 325 241.5 L 329.5 236 L 334.5 233 L 344.5 231 Z " /><path fill="rgb(91,137,168)" stroke="rgb(91,137,168)" stroke-width="0.6" opacity="1" d="M 132.5 294 L 147.5 297 L 173.5 299 L 185.5 302 L 207.5 303 L 215.5 305 L 263.5 309 L 300.5 310 L 302 311.5 L 302 352.5 L 300.5 354 L 290.5 356 L 280.5 356 L 279.5 355 L 235.5 353 L 218.5 350 L 180.5 347 L 147.5 341 L 133 332.5 L 130 323.5 L 130 296.5 L 132.5 294 Z " /><path fill="rgb(91,137,168)" stroke="rgb(91,137,168)" stroke-width="0.6" opacity="1" d="M 414.5 397 Q 417.3 398.3 416 403.5 Q 413 408.5 405.5 409 L 403 408 L 404.5 405 L 414.5 397 Z " /><path fill="rgb(184,79,70)" stroke="rgb(184,79,70)" stroke-width="0.6" opacity="1" d="M 156.5 167 Q 180.1 165.9 189 179.5 L 196 191.5 L 198 198.5 L 201 229.5 L 200 232.5 L 198.5 237 Q 177 241.5 160.5 251 L 136.5 269 L 135 264.5 L 134 247.5 L 129 227.5 Q 123.6 214.9 113.5 207 Q 102.4 197.7 82 199 L 83.5 197 Q 112.9 174.9 156.5 167 Z " /><path fill="rgb(184,79,70)" stroke="rgb(184,79,70)" stroke-width="0.6" opacity="1" d="M 137.5 345 L 157.5 351 L 227.5 360 L 254.5 361 L 261.5 363 L 267.5 362 L 268.5 363 L 297.5 363 L 300.5 362 L 302 363.5 L 302 426.5 L 303 430.5 L 297.5 432 Q 280.5 428 259.5 428 L 245.5 425 L 214.5 423 L 201.5 420 L 181.5 419 L 168.5 416 L 156.5 416 L 139.5 413 L 137 410.5 Q 132.6 384.4 135 351.5 L 137.5 345 Z " /><path fill="rgb(37,37,37)" stroke="rgb(37,37,37)" stroke-width="0.6" opacity="1" d="M 423.5 80 L 430.5 88 L 423.5 80 Z " /><path fill="rgb(37,37,37)" stroke="rgb(37,37,37)" stroke-width="0.6" opacity="1" d="M 418.5 85 L 423.5 91 L 418.5 85 Z " /><path fill="rgb(37,37,37)" stroke="rgb(37,37,37)" stroke-width="0.6" opacity="1" d="M 446.5 190 L 452.5 197 L 446.5 190 Z " /><path fill="rgb(37,37,37)" stroke="rgb(37,37,37)" stroke-width="0.6" opacity="1" d="M 333.5 218 L 325.5 227 L 333.5 218 Z " /><path fill="rgb(37,37,37)" stroke="rgb(37,37,37)" stroke-width="0.6" opacity="1" d="M 79.5 403 L 86.5 411 L 79.5 403 Z " /><path fill="rgb(37,37,37)" stroke="rgb(37,37,37)" stroke-width="0.6" opacity="1" d="M 315.5 457 L 320.5 463 L 315.5 457 Z " /><path fill="rgb(226,226,226)" stroke="rgb(226,226,226)" stroke-width="0.6" opacity="1" d="M 423.5 79 L 430.5 87 L 423.5 79 Z " /><path fill="rgb(226,226,226)" stroke="rgb(226,226,226)" stroke-width="0.6" opacity="1" d="M 447.5 190 L 453.5 197 L 447.5 190 Z " /><path fill="rgb(226,226,226)" stroke="rgb(226,226,226)" stroke-width="0.6" opacity="1" d="M 79.5 404 L 85.5 411 L 79.5 404 Z " /></svg>