<svg width="627" height="627" preserveAspectRatio="xMidYMid meet" viewBox="0 0 512 512" version="1.1" xmlns="http://www.w3.org/2000/svg" ><path fill="rgb(255,255,255)" stroke="rgb(255,255,255)" stroke-width="0.6" opacity="1" d="M 0 0 L 512 0 L 512 512 L 0 512 L 0 0 Z M 165 82 L 164 83 L 138 83 L 118 86 Q 101 89 91 99 Q 82 107 77 119 L 72 136 L 71 152 L 70 153 L 59 152 Q 50 151 46 154 L 39 163 Q 38 171 41 176 L 14 193 Q 12 199 16 201 Q 27 190 44 184 L 51 195 L 59 232 L 59 254 L 44 269 L 39 283 L 39 315 L 44 327 L 44 374 L 43 375 L 30 375 L 14 370 L 14 379 L 16 382 Q 15 390 18 394 Q 22 399 31 401 Q 44 403 50 398 L 54 394 L 57 385 L 99 388 L 112 391 L 179 395 L 184 397 L 221 398 L 225 400 L 278 402 L 321 406 L 351 407 L 358 409 L 390 409 L 394 424 Q 398 430 408 431 Q 419 433 426 429 L 434 420 L 435 408 L 453 390 Q 463 391 468 387 L 472 379 L 472 364 L 475 359 L 477 344 L 477 287 L 479 281 L 493 262 L 498 245 L 498 218 L 493 205 L 478 190 L 461 185 L 463 159 L 462 127 L 456 113 Q 444 96 422 91 L 413 89 L 394 88 L 390 86 L 369 86 L 347 84 L 282 85 L 268 90 L 263 95 L 247 86 L 235 83 L 165 82 Z " /><path fill="rgb(166,112,72)" stroke="rgb(166,112,72)" stroke-width="0.6" opacity="1" d="M 154.5 90 L 165 90.5 L 154.5 91 L 154.5 90 Z " /><path fill="rgb(166,112,72)" stroke="rgb(166,112,72)" stroke-width="0.6" opacity="1" d="M 304.5 91 L 313.5 92 L 314.5 91 L 328.5 91 L 329.5 92 L 373.5 93 L 410.5 97 L 434.5 104 L 449 116.5 L 454 127.5 L 456 151.5 L 453 183.5 L 451.5 185 L 440.5 187 L 432.5 192 L 432 189.5 Q 436 182.5 435 170.5 L 430.5 164 Q 424.8 159.7 412.5 162 L 407.5 164 L 400.5 161 L 364.5 157 L 353.5 152 L 340.5 152 L 336 154 L 330 167.5 L 329 183.5 L 317 213.5 L 315 227.5 L 308.5 238 L 301.5 237 L 300.5 238 L 286.5 238 L 285.5 237 L 253.5 237 L 252 235.5 L 253 183.5 L 255 178.5 L 254 171.5 L 260 114.5 Q 262.6 102.6 271.5 97 L 281.5 93 L 299.5 92 L 301.5 93 L 304.5 91 Z " /><path fill="rgb(166,112,72)" stroke="rgb(166,112,72)" stroke-width="0.6" opacity="1" d="M 136.5 148 Q 144.3 146.3 146 150.5 Q 150.1 160.4 148 176.5 Q 157.4 194.1 160 218.5 Q 167.6 224.9 170 236.5 L 169 239 L 161.5 241 L 139.5 241 L 101.5 245 Q 87.2 247.7 77.5 255 L 69.5 256 L 66 253.5 L 66 241.5 Q 68.8 239.8 68 234.5 Q 60.5 218 59 195.5 L 48 174.5 L 47 163.5 L 48 161 Q 51.1 157.5 60.5 159 L 61.5 160 L 81.5 160 L 96.5 158 L 98.5 159 L 122.5 154 L 136.5 148 Z " /><path fill="rgb(166,112,72)" stroke="rgb(166,112,72)" stroke-width="0.6" opacity="1" d="M 155.5 158 L 156 173.5 L 155 173.5 L 155.5 158 Z " /><path fill="rgb(166,112,72)" stroke="rgb(166,112,72)" stroke-width="0.6" opacity="1" d="M 413.5 169 L 426 169.5 L 413.5 170 L 413.5 169 Z " /><path fill="rgb(166,112,72)" stroke="rgb(166,112,72)" stroke-width="0.6" opacity="1" d="M 177.5 240 L 183.5 241 L 194.5 240 L 195.5 241 L 233.5 242 L 241 244 L 238.5 248 L 229 256.5 L 227.5 259 L 225 260.5 Q 214.6 272.2 210 288 L 197.5 289 L 177.5 287 L 169.5 288 L 168.5 287 L 116.5 285 L 49 280 Q 49.7 269 57.5 264 L 63.5 261 L 71.5 264 L 105.5 252 L 144.5 248 L 146.5 249 L 163.5 247 L 165.5 248 L 177.5 240 Z " /><path fill="rgb(166,112,72)" stroke="rgb(166,112,72)" stroke-width="0.6" opacity="1" d="M 253.5 244 L 290 244.5 L 253.5 245 L 253.5 244 Z " /><path fill="rgb(166,112,72)" stroke="rgb(166,112,72)" stroke-width="0.6" opacity="1" d="M 292.5 245 L 306 245.5 L 292.5 246 L 292.5 245 Z " /><path fill="rgb(166,112,72)" stroke="rgb(166,112,72)" stroke-width="0.6" opacity="1" d="M 386.5 279 L 387 292.5 L 385.5 294 L 323.5 294 L 323.5 293 L 385.5 293 L 386 292.5 L 386.5 279 Z " /><path fill="rgb(166,112,72)" stroke="rgb(166,112,72)" stroke-width="0.6" opacity="1" d="M 287.5 292 L 321 292.5 L 287.5 293 L 287.5 292 Z " /><path fill="rgb(217,181,127)" stroke="rgb(217,181,127)" stroke-width="0.6" opacity="1" d="M 165.5 90 L 170.5 91 L 171.5 90 L 223.5 90 L 243.5 93 L 255 101.5 L 256 106.5 L 251 122.5 Q 252.1 138.6 248 149.5 L 249 155.5 L 247 159.5 L 248 164.5 L 245 197.5 L 246 208.5 L 245 209.5 L 245 227.5 L 242.5 235 L 238.5 236 L 237.5 235 L 222.5 235 Q 221.5 232 216.5 233 L 209.5 234 L 208.5 233 L 177.5 233 L 175 230.5 Q 174.1 221.4 168 217.5 Q 165.1 194.4 156 177.5 L 156 158.5 Q 153 156.5 154 150.5 L 147.5 142 L 135.5 141 L 116.5 148 L 79.5 153 L 79 150.5 Q 79.8 121.3 94.5 106 Q 104.4 97.9 118.5 94 L 165.5 90 Z " /><path fill="rgb(217,181,127)" stroke="rgb(217,181,127)" stroke-width="0.6" opacity="1" d="M 343.5 159 L 351.5 159 L 361.5 164 L 386.5 168 L 396.5 168 L 400.5 170 L 427 170 L 428 176.5 Q 424.8 192.3 417 203.5 Q 402.2 217.7 393 237.5 L 389 249.5 L 387 268.5 L 385.5 270 L 376.5 269 L 349.5 256 L 319.5 252 L 315 248.5 L 314 244.5 L 322 230.5 L 325 212.5 L 337 182.5 L 338 166.5 L 343.5 159 Z " /><path fill="rgb(217,181,127)" stroke="rgb(217,181,127)" stroke-width="0.6" opacity="1" d="M 252.5 245 L 291.5 245 L 307 246 Q 305.5 254.1 311.5 256 L 317.5 259 Q 333.3 259.2 345.5 263 L 383.5 278 L 385.5 277 L 386 279.5 L 386 292.5 L 385.5 293 L 322.5 293 L 321.5 292 L 280.5 291 L 274.5 292 L 273.5 291 L 222.5 290 L 218 289 L 220 280.5 L 230.5 267 L 233 265.5 L 241.5 255 L 248 249.5 L 249.5 247 L 252.5 245 Z " /><path fill="rgb(88,137,170)" stroke="rgb(88,137,170)" stroke-width="0.6" opacity="1" d="M 216.5 296 L 269.5 298 L 270.5 299 L 296.5 299 L 314.5 301 L 315.5 300 L 333.5 300 L 334.5 301 L 385.5 301 L 387 302.5 L 387 333.5 L 384.5 341 Q 372.8 344.8 355.5 343 L 354.5 342 L 321.5 342 L 300.5 340 L 280.5 340 L 275.5 338 L 268.5 339 L 267.5 338 L 235.5 337 L 216 334 L 215 331.5 L 215 297.5 L 216.5 296 Z " /><path fill="rgb(88,137,170)" stroke="rgb(88,137,170)" stroke-width="0.6" opacity="1" d="M 51 331 L 115.5 338 L 167.5 340 L 174.5 342 L 182.5 341 L 183.5 342 L 205.5 342 L 215.5 341 L 220.5 343 L 277.5 346 L 284.5 348 L 291.5 347 L 315.5 349 L 322.5 348 L 346.5 350 L 353.5 349 L 354.5 350 L 377.5 350 L 384.5 348 L 386 349.5 L 387 400.5 L 384.5 402 L 382.5 401 L 376.5 402 L 375.5 401 L 357.5 401 L 342.5 399 L 254.5 394 L 230.5 391 L 225.5 392 L 199.5 390 L 194.5 388 L 188.5 389 L 135.5 385 L 127.5 383 L 101.5 382 L 72.5 378 L 61.5 378 L 52 374.5 L 51 372.5 L 51 331 Z " /><path fill="rgb(88,137,170)" stroke="rgb(88,137,170)" stroke-width="0.6" opacity="1" d="M 399 411 L 418.5 412 L 427 411 Q 428.2 418.8 423.5 422 L 411.5 424 L 400 419.5 L 399 411 Z " /><path fill="rgb(0,0,0)" stroke="rgb(0,0,0)" stroke-width="0.6" opacity="1" d="M 166.5 82 L 211.5 82 L 216.5 84 L 236.5 84 L 246.5 87 L 262.5 96 L 267.5 91 L 283.5 85 L 344.5 84 L 345.5 85 L 365.5 85 L 370.5 87 L 390.5 87 L 418.5 91 Q 442.5 96 455 112.5 L 461 125.5 L 461 135.5 L 463 137.5 L 463 156.5 L 460 184.5 L 477.5 191 L 491 203.5 Q 500.9 216.6 498 242.5 L 496 245.5 L 495 254.5 L 490 265.5 L 477 282.5 L 476 348.5 L 472 361.5 L 472 376.5 L 465.5 387 L 458.5 390 L 450.5 390 L 435 405.5 L 433 419.5 L 425.5 428 Q 419 432 406.5 430 Q 399 428.6 395 423.5 L 390.5 408 L 353.5 408 L 279.5 402 L 265.5 402 L 261.5 400 L 210.5 398 L 206.5 396 L 181.5 396 L 157.5 394 L 154.5 392 L 109.5 390 L 103.5 388 L 88.5 388 L 79.5 387 L 76.5 385 L 56.5 384 L 54 386.5 L 53 393.5 L 49.5 397 Q 43.3 402.3 29.5 400 L 19 393.5 L 16 386.5 L 16 379.5 Q 12.8 377 14 371 L 26.5 375 L 43.5 375 L 45 370.5 L 44 369.5 L 44 324.5 Q 36.3 311.3 39 287.5 L 41 276.5 L 44 270.5 L 59 254.5 L 60 231.5 L 52 195.5 L 44.5 183 L 33.5 187 L 15 199 Q 13.3 192.9 16.5 191 L 42 176.5 Q 38.9 171.1 40 161.5 L 45.5 155 L 56.5 152 L 57.5 153 L 70.5 153 L 72 151.5 L 73 134.5 L 77 120.5 Q 83 106 94.5 97 Q 103.5 90 116.5 87 L 133.5 84 L 163.5 84 L 166.5 82 Z M 154 90 L 120 93 L 110 96 L 95 105 Q 81 120 78 146 Q 76 151 80 153 L 116 149 L 135 142 L 147 142 L 153 151 Q 152 156 155 158 L 155 177 Q 164 194 167 218 Q 173 223 175 232 L 180 234 L 221 234 L 224 236 L 244 236 L 246 236 L 245 234 L 246 188 L 248 184 L 248 158 L 249 147 L 251 144 L 252 121 L 256 109 L 256 102 Q 250 93 238 91 L 154 90 Z M 304 91 L 303 92 L 284 92 L 271 97 L 263 105 L 259 117 L 256 153 L 254 157 L 254 182 L 252 203 L 252 237 L 254 238 L 257 237 L 259 238 L 309 238 L 316 227 L 317 216 L 329 186 L 330 171 L 335 158 Q 337 153 344 152 L 352 152 L 366 158 L 404 162 L 406 164 Q 412 166 414 162 Q 424 160 430 164 L 434 170 Q 436 183 431 191 L 432 193 L 440 188 L 452 186 L 454 184 L 454 169 L 456 153 L 455 130 L 450 117 Q 442 106 430 101 L 404 95 L 360 93 L 358 91 L 304 91 Z M 138 147 L 121 154 L 100 158 L 84 158 L 81 160 L 63 160 L 61 158 Q 50 156 47 162 L 47 173 L 58 195 L 62 220 L 67 234 L 66 241 L 66 255 L 68 256 L 77 256 Q 88 248 105 245 L 124 244 L 127 242 L 140 242 L 141 241 L 165 241 L 170 239 Q 170 225 161 220 L 156 195 L 148 175 L 147 151 Q 145 146 138 147 Z M 342 159 L 337 168 L 336 184 Q 325 203 321 231 L 314 244 L 314 250 L 321 253 L 347 256 L 378 270 L 386 271 L 388 269 L 389 252 L 394 237 Q 403 218 417 205 L 428 180 Q 430 171 427 169 L 413 169 L 412 170 L 366 164 L 353 159 L 342 159 Z M 448 192 Q 433 196 425 205 Q 405 222 396 250 L 394 269 L 394 336 L 393 337 L 393 396 L 394 402 L 401 404 L 427 404 L 437 397 L 460 373 L 467 361 L 470 340 L 470 285 L 472 279 L 488 257 L 492 240 Q 494 215 483 204 Q 473 190 448 192 Z M 177 240 L 167 247 L 130 248 L 127 250 L 108 251 L 73 263 Q 65 264 64 260 L 56 265 Q 50 270 48 279 L 50 280 L 86 283 L 152 286 L 155 288 L 209 289 L 228 259 L 243 245 Q 235 240 221 242 L 217 240 L 177 240 Z M 253 244 L 250 246 L 224 274 L 217 285 L 217 289 L 219 290 L 240 290 L 245 292 L 286 292 L 287 293 L 322 293 L 323 294 L 386 294 L 387 293 L 387 279 L 345 262 L 331 259 L 320 259 L 313 256 Q 307 254 307 247 L 306 245 L 292 245 L 291 244 L 253 244 Z M 48 286 L 46 288 L 47 319 L 57 325 L 75 326 L 78 328 L 119 330 L 123 332 L 195 334 L 198 336 Q 206 337 209 334 L 208 331 L 208 296 L 207 294 L 122 292 L 121 291 L 106 291 L 104 289 L 79 289 L 48 286 Z M 217 296 L 215 298 L 215 334 L 220 336 L 247 337 L 252 339 L 279 339 L 280 340 L 320 341 L 321 342 L 354 342 L 355 343 L 385 342 L 387 335 L 387 302 L 386 300 L 299 300 L 298 299 L 272 299 L 271 298 L 217 296 Z M 53 330 L 51 332 L 51 376 L 53 377 L 65 379 L 79 379 L 105 383 L 120 383 L 170 387 L 173 389 L 198 389 L 211 390 L 215 392 L 253 393 L 297 397 L 342 399 L 343 400 L 356 400 L 359 402 L 386 402 L 387 401 L 386 350 L 385 348 L 380 349 L 280 347 L 279 346 L 263 346 L 260 344 L 224 343 L 219 341 L 206 341 L 205 342 L 203 341 L 152 340 L 149 338 L 108 337 L 97 336 L 94 334 L 60 332 L 53 330 Z M 25 381 Q 22 383 23 389 L 28 393 L 34 394 L 46 393 Q 50 391 49 384 L 48 382 L 25 381 Z M 400 410 L 398 412 L 399 420 L 408 424 L 423 423 Q 427 421 428 415 L 427 410 L 422 411 L 402 411 L 400 410 Z " /><path fill="rgb(196,92,82)" stroke="rgb(196,92,82)" stroke-width="0.6" opacity="1" d="M 450.5 192 Q 470.5 191.5 480 201.5 Q 493.7 212.8 491 240.5 L 487 256.5 L 475 272.5 L 470 282.5 L 469 345.5 L 466 361.5 L 449.5 383 L 447 384.5 L 435.5 397 L 422.5 404 L 402.5 404 L 395 403 Q 396.8 396.4 393 394.5 L 393 379.5 L 394 368.5 L 393 367.5 L 393 337.5 L 394 336.5 L 395 280.5 L 394 269.5 L 396 252.5 L 401 238.5 Q 409.9 218.4 425.5 205 Q 434.6 195.1 450.5 192 Z " /><path fill="rgb(196,92,82)" stroke="rgb(196,92,82)" stroke-width="0.6" opacity="1" d="M 48.5 286 L 87.5 290 L 119.5 291 L 125.5 293 L 130.5 292 L 154.5 294 L 159.5 293 L 183.5 295 L 188.5 294 L 206.5 296 L 208 297.5 L 208 333.5 L 206.5 335 L 168.5 334 L 159.5 332 L 137.5 332 L 100.5 328 L 86.5 328 L 55.5 324 L 48 319.5 Q 49.3 311.2 46 307.5 L 46 288.5 L 48.5 286 Z " /><path fill="rgb(196,92,82)" stroke="rgb(196,92,82)" stroke-width="0.6" opacity="1" d="M 24.5 381 L 40.5 382 L 49 384.5 L 45.5 392 L 28.5 393 Q 22.9 390.6 23 382.5 L 24.5 381 Z " /><path fill="rgb(81,82,78)" stroke="rgb(81,82,78)" stroke-width="0.6" opacity="1" d="M 352.5 300 L 369 300.5 L 352.5 301 L 352.5 300 Z " /><path fill="rgb(26,26,26)" stroke="rgb(26,26,26)" stroke-width="0.6" opacity="1" d="M 376.5 300 Q 384.8 297.8 387 301.5 L 385.5 301 L 376.5 301 L 376.5 300 Z " /><path fill="rgb(26,26,26)" stroke="rgb(26,26,26)" stroke-width="0.6" opacity="1" d="M 450.5 390 L 435.5 406 L 450.5 390 Z " /><path fill="rgb(121,104,74)" stroke="rgb(121,104,74)" stroke-width="0.6" opacity="1" d="M 269.5 98 L 264.5 104 L 269.5 98 Z " /><path fill="rgb(157,96,74)" stroke="rgb(157,96,74)" stroke-width="0.6" opacity="1" d="M 394.5 280 L 395 296.5 L 394 296.5 L 394.5 280 Z " /><path fill="rgb(157,96,74)" stroke="rgb(157,96,74)" stroke-width="0.6" opacity="1" d="M 198.5 295 Q 206 293 208 296.5 L 206.5 296 L 198.5 296 L 198.5 295 Z " /><path fill="rgb(157,96,74)" stroke="rgb(157,96,74)" stroke-width="0.6" opacity="1" d="M 393.5 368 L 394 378.5 L 393 378.5 L 393.5 368 Z " /><path fill="rgb(216,216,216)" stroke="rgb(216,216,216)" stroke-width="0.6" opacity="1" d="M 476.5 333 L 477 343.5 L 476 343.5 L 476.5 333 Z " /><path fill="rgb(216,216,216)" stroke="rgb(216,216,216)" stroke-width="0.6" opacity="1" d="M 451.5 390 L 435.5 407 L 451.5 390 Z " /><path fill="rgb(86,128,136)" stroke="rgb(86,128,136)" stroke-width="0.6" opacity="1" d="M 334.5 300 L 351 300.5 L 334.5 301 L 334.5 300 Z " /></svg>