<svg width="1254" height="1254" preserveAspectRatio="xMidYMid meet" viewBox="0 0 512 512" version="1.1" xmlns="http://www.w3.org/2000/svg" ><path fill="rgb(255,255,255)" stroke="rgb(255,255,255)" stroke-width="0.6" opacity="1" d="M 0 0 L 512 0 L 512 512 L 0 512 L 0 0 Z M 97 33 L 91 36 L 84 46 L 84 449 L 85 451 L 91 455 L 95 460 L 95 475 L 103 480 L 130 478 Q 136 474 134 462 L 137 459 L 376 459 L 377 461 Q 376 470 379 475 L 385 479 L 412 479 L 417 474 L 417 460 L 423 456 L 427 450 L 427 106 L 428 105 L 428 48 L 425 40 L 417 33 L 97 33 Z " /><path fill="rgb(166,112,72)" stroke="rgb(166,112,72)" stroke-width="0.6" opacity="1" d="M 98.5 40 L 414.5 40 L 420 45.5 L 421 54.5 L 420 55.5 L 420 83.5 L 421 84.5 L 421 102.5 L 420 103.5 L 420 446.5 L 414.5 452 L 98.5 452 L 91 446.5 L 91 48.5 L 94 43 L 97.5 41 L 98.5 40 Z M 114 55 L 111 56 L 108 59 L 108 419 L 107 420 L 108 432 L 114 436 L 399 436 L 404 430 L 404 60 L 398 55 L 114 55 Z " /><path fill="rgb(166,112,72)" stroke="rgb(166,112,72)" stroke-width="0.6" opacity="1" d="M 312.5 105 L 314.5 106 L 316.5 105 Q 324.3 106.2 328 111.5 Q 332 115.8 332 123 L 321.5 124 L 314 118.5 L 311 106.5 L 312.5 105 Z " /><path fill="rgb(166,112,72)" stroke="rgb(166,112,72)" stroke-width="0.6" opacity="1" d="M 307.5 130 L 371.5 130 L 373 131.5 L 373 138.5 Q 368.6 140.5 368 146.5 L 366 162.5 L 360.5 171 L 358.5 172 L 319.5 172 L 315 167.5 L 312 160.5 L 310 142.5 Q 304.2 140.8 306 131.5 L 307.5 130 Z " /><path fill="rgb(166,112,72)" stroke="rgb(166,112,72)" stroke-width="0.6" opacity="1" d="M 116.5 200 L 396.5 200 L 397 200.5 L 397 210.5 L 396.5 213 L 372.5 213 L 366.5 216 L 365.5 215 L 339.5 215 L 334 219.5 Q 336.1 225.3 331.5 224 Q 324.7 218.3 311.5 219 L 307 226.5 L 304 241.5 L 300 249.5 L 297 265.5 L 287 299.5 L 290 304 L 237.5 304 L 237 302.5 Q 240.8 300.8 239 293.5 L 233 277.5 L 233 271.5 L 218 220 L 208.5 219 L 195 223 L 190.5 216 L 166.5 216 L 165 214.5 L 159.5 208 L 137.5 208 L 132 213.5 L 130.5 216 L 116.5 216 L 115 214.5 L 115 201.5 L 116.5 200 Z " /><path fill="rgb(166,112,72)" stroke="rgb(166,112,72)" stroke-width="0.6" opacity="1" d="M 342.5 222 L 364.5 222 L 366 223.5 L 366 302.5 L 364.5 304 L 341.5 304 L 341 300.5 L 340 299.5 L 340 224.5 L 342.5 222 Z " /><path fill="rgb(166,112,72)" stroke="rgb(166,112,72)" stroke-width="0.6" opacity="1" d="M 315 226 L 330.5 230 L 334 232.5 L 316 300.5 L 313.5 304 L 299.5 301 L 295 297.5 L 298 281.5 L 307 254.5 L 307 249.5 L 311 240.5 L 312 231.5 L 315 226 Z " /><path fill="rgb(166,112,72)" stroke="rgb(166,112,72)" stroke-width="0.6" opacity="1" d="M 225.5 374 Q 233.8 372.8 235 378.5 L 234 387 Q 232 389.8 225.5 389 Q 220.6 386.9 220 380.5 L 223.5 375 L 225.5 374 Z " /><path fill="rgb(166,112,72)" stroke="rgb(166,112,72)" stroke-width="0.6" opacity="1" d="M 102.5 459 L 125.5 459 L 127 460.5 Q 128.7 469.2 124.5 472 L 103.5 472 L 102 470.5 L 101 460.5 L 102.5 459 Z " /><path fill="rgb(0,0,0)" stroke="rgb(0,0,0)" stroke-width="0.6" opacity="1" d="M 98.5 33 L 413.5 33 Q 420.1 33.9 423 38.5 L 428 51.5 L 428 102.5 L 427 103.5 L 427 446.5 L 422.5 455 L 417 458.5 Q 420 474 411.5 478 L 409.5 479 L 386.5 479 L 379 473.5 L 378 460.5 L 376.5 459 L 135.5 459 L 133 461.5 L 133 472.5 L 126.5 479 L 101.5 479 L 96 474.5 L 95 457.5 L 93.5 456 L 86 450.5 L 84 446.5 L 84 48.5 Q 85.2 40.7 90.5 37 L 98.5 33 Z M 97 40 L 91 47 L 91 448 L 98 452 L 416 452 L 420 448 L 420 105 L 421 104 L 421 84 L 420 83 L 420 57 L 422 54 L 421 46 L 416 40 L 97 40 Z M 103 459 L 101 461 L 101 471 L 103 472 L 126 472 L 127 471 L 127 461 L 126 459 L 103 459 Z M 387 459 L 385 461 L 385 471 L 387 472 L 409 472 L 410 471 L 410 461 L 409 459 L 387 459 Z " /><path fill="rgb(0,0,0)" stroke="rgb(0,0,0)" stroke-width="0.6" opacity="1" d="M 114.5 55 L 396.5 55 L 404 60.5 L 404 428.5 L 397.5 436 L 114.5 436 L 109 431.5 L 108 422.5 L 108 60.5 L 114.5 55 Z M 117 62 L 115 64 L 115 79 L 117 80 L 119 79 L 141 80 L 142 77 L 149 71 L 177 71 L 179 72 Q 183 73 182 80 L 184 81 L 197 81 L 199 83 L 213 82 L 218 90 L 235 84 L 240 84 L 245 91 L 249 110 L 256 127 L 256 132 L 258 134 L 258 139 L 260 141 L 263 157 L 266 163 Q 267 169 263 171 L 264 172 L 310 172 L 305 155 L 305 147 L 299 142 L 300 129 L 305 124 Q 310 125 311 123 L 304 110 L 305 102 L 309 99 Q 321 97 327 103 L 328 102 L 328 92 L 333 83 Q 335 77 345 78 L 352 89 L 353 101 L 356 103 L 361 99 Q 372 96 375 103 L 375 110 L 368 123 Q 370 125 376 124 L 380 130 L 380 141 L 374 148 Q 375 163 368 171 L 370 172 L 397 172 L 397 170 L 398 64 L 397 62 L 117 62 Z M 150 77 L 148 79 L 148 171 L 150 172 L 175 172 L 176 171 L 176 79 L 175 77 L 150 77 Z M 341 83 Q 335 86 333 94 L 333 111 L 337 117 L 341 119 L 347 108 Q 350 89 341 83 Z M 117 86 L 115 88 L 115 170 L 114 171 L 116 172 L 141 172 L 141 170 L 141 144 L 142 143 L 142 110 L 141 109 L 142 88 L 141 86 L 117 86 Z M 185 88 L 183 90 L 183 171 L 185 172 L 209 172 L 209 170 L 209 145 L 211 143 L 210 138 L 211 135 Q 212 130 209 129 L 210 126 L 210 90 L 209 88 L 185 88 Z M 236 90 L 234 92 L 228 92 L 220 95 L 216 99 L 234 167 L 239 172 Q 253 172 260 166 L 239 93 L 236 90 Z M 312 105 L 310 107 L 314 120 L 320 124 L 332 123 L 334 123 L 329 112 Q 324 104 312 105 Z M 361 105 L 355 108 Q 348 113 345 122 L 347 125 Q 356 126 361 123 L 368 114 L 368 107 Q 366 103 361 105 Z M 217 128 L 217 146 L 216 147 L 217 151 L 216 160 L 216 171 L 218 172 L 229 172 L 230 171 L 219 131 Q 220 127 217 128 Z M 308 130 L 306 132 L 306 140 L 310 144 L 312 162 L 315 169 L 320 172 L 360 172 L 367 162 L 369 144 L 373 140 L 373 132 L 372 130 L 308 130 Z M 116 178 L 114 180 L 113 191 L 116 194 L 118 193 L 397 193 L 398 192 L 397 190 L 397 184 L 399 179 L 395 178 L 257 178 L 256 179 L 246 178 L 116 178 Z M 117 200 L 115 202 L 115 215 L 117 216 L 131 216 L 132 214 L 139 208 L 159 208 L 167 216 L 190 216 L 192 217 L 196 224 L 208 220 L 216 220 Q 220 223 221 230 L 222 240 L 233 274 L 233 280 L 239 296 Q 240 301 237 302 L 238 304 L 291 304 L 288 300 L 288 296 L 298 264 L 298 258 L 300 256 L 300 251 L 304 243 L 304 238 L 307 234 L 308 225 L 312 220 L 323 220 L 334 225 L 335 220 Q 337 215 343 215 L 365 215 L 368 217 L 374 213 L 397 213 L 397 211 L 398 202 L 397 200 L 117 200 Z M 140 215 L 138 217 L 138 303 L 140 304 L 158 304 L 158 302 L 158 280 L 159 279 L 159 259 L 158 258 L 158 230 L 160 228 L 159 217 L 158 215 L 140 215 Z M 375 219 L 373 221 L 373 241 L 372 242 L 372 262 L 373 263 L 372 303 L 374 304 L 397 304 L 397 302 L 397 223 L 398 221 L 397 219 L 375 219 Z M 117 222 L 115 224 L 115 302 L 114 303 L 116 304 L 131 304 L 132 303 L 132 224 L 131 222 L 117 222 Z M 167 222 L 165 224 L 165 303 L 167 304 L 187 304 L 188 303 L 188 224 L 187 222 L 180 223 L 167 222 Z M 342 222 L 340 224 L 340 303 L 342 304 L 365 304 L 366 303 L 366 224 L 365 222 L 342 222 Z M 211 225 L 194 233 L 194 241 L 199 254 L 202 273 L 208 289 L 209 301 L 213 304 Q 226 305 232 298 L 220 247 Q 215 239 214 228 L 211 225 Z M 317 225 L 311 233 L 311 239 L 307 248 L 307 254 L 303 263 L 303 268 L 301 270 L 301 275 L 298 279 L 294 298 Q 300 305 315 304 L 330 254 L 332 240 L 334 238 L 334 232 L 331 229 L 317 225 Z M 332 263 L 329 272 L 329 278 L 326 282 L 324 296 L 321 302 L 323 304 L 333 304 L 334 303 L 334 264 L 332 263 Z M 194 266 L 195 302 L 196 304 Q 203 306 205 303 L 198 280 L 198 274 L 196 272 Q 198 265 194 266 Z M 116 311 L 114 313 L 114 325 L 116 326 L 397 326 L 397 324 L 398 313 L 397 311 L 116 311 Z M 116 332 L 114 334 L 114 428 L 117 430 L 141 430 L 142 429 L 187 429 L 188 430 L 252 430 L 253 429 L 252 427 L 252 336 L 253 335 L 252 332 L 212 332 L 211 333 L 203 332 L 185 332 L 184 333 L 116 332 Z M 261 332 L 259 334 L 259 429 L 261 430 L 281 430 L 282 429 L 393 429 L 394 430 L 398 428 L 397 421 L 397 364 L 399 362 Q 400 356 397 355 L 398 334 L 397 332 L 261 332 Z " /><path fill="rgb(0,0,0)" stroke="rgb(0,0,0)" stroke-width="0.6" opacity="1" d="M 224.5 368 L 232.5 369 L 241 376.5 Q 243.4 388.4 237.5 392 Q 234.4 396.9 225.5 396 L 217 390.5 Q 212.7 387.3 214 378.5 L 220.5 370 L 224.5 368 Z M 225 374 L 223 375 Q 219 378 220 386 L 228 390 Q 234 391 235 387 L 234 377 Q 232 372 225 374 Z " /><path fill="rgb(0,0,0)" stroke="rgb(0,0,0)" stroke-width="0.6" opacity="1" d="M 281.5 368 Q 293.8 367.1 297 375.5 L 298 383.5 L 291.5 393 L 282.5 396 L 272 388.5 Q 269 385.5 270 378.5 L 275.5 371 L 281.5 368 Z M 281 374 L 279 375 Q 275 378 276 386 L 284 390 L 289 389 L 292 385 L 291 377 Q 289 372 281 374 Z " /><path fill="rgb(217,181,127)" stroke="rgb(217,181,127)" stroke-width="0.6" opacity="1" d="M 117.5 86 L 139.5 86 L 141 87.5 L 142 141.5 L 141 142.5 L 141 170.5 L 139.5 172 L 116.5 172 L 115 170.5 L 115 88.5 L 117.5 86 Z " /><path fill="rgb(217,181,127)" stroke="rgb(217,181,127)" stroke-width="0.6" opacity="1" d="M 362.5 105 L 368 106.5 Q 368.3 118.3 360.5 122 Q 356.5 125.5 347.5 124 L 346 120.5 L 354.5 109 L 362.5 105 Z " /><path fill="rgb(217,181,127)" stroke="rgb(217,181,127)" stroke-width="0.6" opacity="1" d="M 182.5 222 L 188 225.5 L 188 302.5 L 186.5 304 L 166.5 304 L 165 302.5 L 165 224.5 L 166.5 223 L 181.5 223 L 182.5 222 Z " /><path fill="rgb(217,181,127)" stroke="rgb(217,181,127)" stroke-width="0.6" opacity="1" d="M 209.5 226 L 213 227.5 Q 216 230.5 215 237.5 L 219 245.5 L 231 297.5 Q 225.3 303.8 212.5 303 L 210 300.5 L 209 289.5 L 202 270.5 Q 202.9 261.6 199 257.5 L 199 250.5 L 195 242.5 L 194 233.5 L 196.5 231 L 209.5 226 Z " /><path fill="rgb(217,181,127)" stroke="rgb(217,181,127)" stroke-width="0.6" opacity="1" d="M 115.5 311 L 395.5 311 L 397 312.5 L 397 324.5 L 395.5 326 L 115.5 326 L 114 324.5 L 114 312.5 L 115.5 311 Z " /><path fill="rgb(217,181,127)" stroke="rgb(217,181,127)" stroke-width="0.6" opacity="1" d="M 261.5 332 L 288.5 333 L 289.5 332 L 395.5 332 L 397 333.5 L 398 361.5 L 397 362.5 L 397 427.5 L 395.5 429 L 280.5 429 L 279.5 430 L 265.5 430 L 259 427.5 L 259 334.5 L 261.5 332 Z M 282 367 L 276 370 L 270 377 Q 268 387 273 392 L 281 396 Q 290 397 294 393 L 299 383 L 297 374 Q 293 367 282 367 Z " /><path fill="rgb(217,181,127)" stroke="rgb(217,181,127)" stroke-width="0.6" opacity="1" d="M 386.5 459 L 408.5 459 L 410 460.5 L 410 470.5 L 408.5 472 L 387.5 472 L 385 469.5 Q 382.8 461.3 386.5 459 Z " /><path fill="rgb(88,137,170)" stroke="rgb(88,137,170)" stroke-width="0.6" opacity="1" d="M 185.5 88 L 208.5 88 L 210 89.5 L 209 95.5 L 210 105.5 L 209 106.5 L 209 129.5 L 210 135.5 L 209 137.5 L 210 142.5 L 209 143.5 L 209 169.5 L 208.5 172 L 184.5 172 L 183 170.5 L 183 90.5 L 185.5 88 Z " /><path fill="rgb(88,137,170)" stroke="rgb(88,137,170)" stroke-width="0.6" opacity="1" d="M 235.5 91 L 238 92.5 L 259 160.5 L 259 165.5 Q 252 171.5 239.5 172 L 234 164.5 L 218 107.5 L 217 98.5 Q 223.5 92 235.5 91 Z " /><path fill="rgb(88,137,170)" stroke="rgb(88,137,170)" stroke-width="0.6" opacity="1" d="M 218 133 Q 221.3 131.7 220 136.5 L 229 172 L 217 172 L 217 166.5 L 217 164.5 L 218 153.5 L 217 152.5 L 217 138.5 L 218 133 Z " /><path fill="rgb(88,137,170)" stroke="rgb(88,137,170)" stroke-width="0.6" opacity="1" d="M 115 178 L 119.5 179 L 120.5 178 L 152.5 178 L 154.5 179 L 155.5 178 L 244.5 178 L 256.5 179 L 257.5 178 L 392.5 178 L 398 180.5 Q 395 182.5 396 188.5 L 397 193 L 115.5 193 L 114 191.5 L 115 178 Z " /><path fill="rgb(88,137,170)" stroke="rgb(88,137,170)" stroke-width="0.6" opacity="1" d="M 121.5 222 Q 129.8 219.8 132 223.5 L 132 302.5 L 130.5 304 L 116.5 304 L 115 302.5 L 115 224.5 L 116.5 223 L 121.5 222 Z " /><path fill="rgb(88,137,170)" stroke="rgb(88,137,170)" stroke-width="0.6" opacity="1" d="M 194 272 L 198 274.5 L 198 281.5 L 204 304 Q 197.1 306 195 302.5 L 194 277.5 L 195 275.5 L 194 272 Z " /><path fill="rgb(88,137,170)" stroke="rgb(88,137,170)" stroke-width="0.6" opacity="1" d="M 116.5 332 L 136.5 333 L 138.5 333 L 145.5 332 L 146.5 333 L 184.5 333 L 185.5 332 L 201.5 332 L 211.5 333 L 212.5 332 L 247.5 332 L 252 333 L 252 429.5 L 250.5 430 L 246.5 429 L 244.5 430 L 240.5 429 L 239.5 430 L 188.5 430 L 187.5 429 L 139.5 429 L 137.5 430 L 135.5 429 L 134.5 430 L 117.5 430 Q 113 429 114 422.5 L 115 416.5 L 114 415.5 L 114 334.5 L 116.5 332 Z M 224 368 L 220 370 L 214 378 Q 212 388 217 392 L 228 397 L 236 394 L 242 386 L 241 376 L 232 368 L 224 368 Z " /><path fill="rgb(196,92,82)" stroke="rgb(196,92,82)" stroke-width="0.6" opacity="1" d="M 116.5 62 L 396.5 62 L 398 63.5 L 397 66.5 L 397 170.5 L 395.5 172 L 369.5 172 L 369 168.5 L 374 159.5 L 375 148.5 L 380 141.5 L 380 127.5 L 377.5 124 L 369 121.5 L 375 110.5 L 375 101.5 L 374 99 Q 370.1 96.6 360.5 98 L 355.5 101 L 351 84.5 L 345.5 78 L 339.5 77 L 332 82.5 L 327 91.5 L 327 102 L 316.5 98 L 311.5 98 L 306.5 99 L 304 101.5 L 303 109.5 L 310 121.5 L 303.5 124 L 300 127.5 L 299 142.5 L 304 147.5 L 307 166.5 L 310 170.5 L 308.5 172 L 264 172 L 267 162.5 L 264 157.5 L 261 140.5 L 256 129.5 L 256 123.5 L 250 110.5 L 246 90.5 L 241.5 84 L 232.5 84 L 217 89 L 214.5 82 L 204.5 81 L 202.5 81 L 198.5 82 L 197.5 81 L 184.5 81 L 183 79.5 Q 182.9 73.1 178.5 71 L 147.5 71 L 142 75.5 L 140.5 80 L 115 79 L 115 63.5 L 116.5 62 Z " /><path fill="rgb(196,92,82)" stroke="rgb(196,92,82)" stroke-width="0.6" opacity="1" d="M 150 77 L 174.5 78 L 176 79.5 L 176 170.5 L 174.5 172 L 149.5 172 L 149 171.5 L 149 79.5 L 150 77 Z " /><path fill="rgb(196,92,82)" stroke="rgb(196,92,82)" stroke-width="0.6" opacity="1" d="M 340.5 84 L 347 94.5 L 347 106.5 L 340.5 118 L 337 115.5 L 333 108.5 L 333 94.5 L 340.5 84 Z " /><path fill="rgb(196,92,82)" stroke="rgb(196,92,82)" stroke-width="0.6" opacity="1" d="M 141.5 215 L 157.5 215 L 159 216.5 L 158 221.5 L 160 224.5 L 158 228.5 L 158 302.5 L 156.5 304 L 139.5 304 L 138 302.5 L 139 217.5 L 141.5 215 Z " /><path fill="rgb(196,92,82)" stroke="rgb(196,92,82)" stroke-width="0.6" opacity="1" d="M 375.5 219 L 396.5 219 L 397 219.5 L 397 302.5 L 395.5 304 L 373 304 L 372 288.5 L 373 287.5 L 373 221.5 L 375.5 219 Z " /><path fill="rgb(196,92,82)" stroke="rgb(196,92,82)" stroke-width="0.6" opacity="1" d="M 332 266 L 334 266.5 L 334 275.5 L 333 276.5 L 333 301.5 L 332.5 304 L 322.5 304 L 322 301.5 L 325 295.5 L 327 281.5 L 329 279.5 Q 328.2 270 332 266 Z " /><path fill="rgb(196,92,82)" stroke="rgb(196,92,82)" stroke-width="0.6" opacity="1" d="M 281.5 374 Q 288.8 372.8 290 377.5 L 291 385.5 Q 289.7 390.3 282.5 389 L 277 384.5 Q 275.5 375.5 281.5 374 Z " /><path fill="rgb(162,93,73)" stroke="rgb(162,93,73)" stroke-width="0.6" opacity="1" d="M 397.5 69 L 398 81.5 L 397 81.5 L 397.5 69 Z " /><path fill="rgb(162,93,73)" stroke="rgb(162,93,73)" stroke-width="0.6" opacity="1" d="M 148.5 79 L 149 170.5 L 148 170.5 L 148.5 79 Z " /><path fill="rgb(162,93,73)" stroke="rgb(162,93,73)" stroke-width="0.6" opacity="1" d="M 140.5 215 L 139 217.5 L 138.5 281 L 138 217.5 L 140.5 215 Z " /><path fill="rgb(162,93,73)" stroke="rgb(162,93,73)" stroke-width="0.6" opacity="1" d="M 372.5 242 L 373 260.5 L 372 260.5 L 372.5 242 Z " /><path fill="rgb(162,93,73)" stroke="rgb(162,93,73)" stroke-width="0.6" opacity="1" d="M 158.5 259 L 159 277.5 L 158 277.5 L 158.5 259 Z " /><path fill="rgb(162,93,73)" stroke="rgb(162,93,73)" stroke-width="0.6" opacity="1" d="M 372.5 272 L 373 287.5 L 372 287.5 L 372.5 272 Z " /><path fill="rgb(162,93,73)" stroke="rgb(162,93,73)" stroke-width="0.6" opacity="1" d="M 333.5 276 L 334 301.5 L 333 301.5 L 333.5 276 Z " /><path fill="rgb(125,103,74)" stroke="rgb(125,103,74)" stroke-width="0.6" opacity="1" d="M 159.5 208 L 164.5 214 L 159.5 208 Z " /></svg>