<svg width="627" height="627" preserveAspectRatio="xMidYMid meet" viewBox="0 0 512 512" version="1.1" xmlns="http://www.w3.org/2000/svg" ><path fill="rgb(255,255,255)" stroke="rgb(255,255,255)" stroke-width="0" opacity="1" d="M 0 0 L 512 0 L 512 512 L 0 512 L 0 0 Z M 246 29 L 242 31 Q 237 34 236 40 Q 236 49 242 53 L 242 114 L 207 143 L 76 143 L 71 145 L 63 154 L 24 222 L 25 233 L 72 151 L 75 150 L 198 151 L 141 198 Q 133 202 131 211 Q 130 219 133 223 L 144 231 L 154 231 L 155 231 L 155 245 L 155 245 L 24 245 Q 22 250 26 252 Q 32 254 34 251 L 34 411 L 35 412 L 35 436 L 35 438 L 29 441 L 25 447 L 25 478 L 26 480 L 31 483 L 475 483 L 478 481 L 479 479 L 479 446 L 478 444 L 473 439 L 469 439 L 469 252 L 483 250 L 487 244 L 487 238 L 483 230 L 437 151 Q 434 145 427 143 L 294 143 L 259 115 L 257 114 L 257 94 L 264 92 L 276 92 L 298 100 Q 313 102 320 96 L 321 94 L 321 57 L 320 54 L 318 53 L 311 55 L 301 55 L 280 47 Q 275 48 274 46 L 263 48 L 260 48 L 262 43 L 260 35 L 253 29 L 246 29 Z " /><path fill="rgb(255,255,255)" stroke="rgb(255,255,255)" stroke-width="0" opacity="1" d="M 246.5 35 Q 253.8 33.8 255 38.5 Q 256.5 45.5 252.5 47 L 247.5 48 L 243 44.5 L 242 40.5 L 246.5 35 Z " /><path fill="rgb(255,255,255)" stroke="rgb(255,255,255)" stroke-width="0" opacity="1" d="M 263.5 53 L 278.5 53 L 299.5 61 L 311.5 61 L 315 60 L 315 91.5 L 313.5 92 Q 308.1 95.6 297.5 94 L 276.5 86 L 262.5 86 L 257 88 L 257 56.5 L 258.5 55 L 263.5 53 Z " /><path fill="rgb(255,255,255)" stroke="rgb(255,255,255)" stroke-width="0" opacity="1" d="M 248 54 L 251 54.5 L 251 112 L 248 111.5 L 248 54 Z " /><path fill="rgb(255,255,255)" stroke="rgb(255,255,255)" stroke-width="0" opacity="1" d="M 247.5 118 L 251.5 118 L 259.5 123 L 362 209.5 Q 363.8 220.3 357.5 223 Q 354.8 225.8 348.5 225 L 339.5 219 L 259.5 151 L 249.5 145 L 237.5 153 L 158.5 221 Q 155 225.5 146.5 225 L 139 219.5 L 137 212.5 Q 138.6 205.6 144.5 203 L 221.5 138 L 247.5 118 Z " /><path fill="rgb(255,255,255)" stroke="rgb(255,255,255)" stroke-width="0" opacity="1" d="M 302.5 150 L 427.5 150 L 432 154.5 L 479 235.5 L 480 244 L 477.5 245 L 345 245 L 345 231 L 355.5 231 Q 362.3 228.8 366 223.5 Q 369.9 219.4 369 210.5 Q 366.3 201.2 358.5 197 L 309.5 157 L 302.5 150 Z " /><path fill="rgb(255,255,255)" stroke="rgb(255,255,255)" stroke-width="0" opacity="1" d="M 248.5 152 L 254.5 155 L 339 226.5 L 339 247.5 L 340 250 L 345.5 252 L 371.5 252 L 372.5 251 L 463 251 L 463 439 L 311 439 L 311 327.5 L 313.5 327 L 318 323.5 L 319 321.5 L 319 306.5 L 314.5 301 L 299.5 294 L 281.5 289 L 270.5 288 L 269.5 287 L 259.5 287 L 258.5 286 L 242.5 286 L 241.5 287 L 223.5 288 L 203.5 293 L 190.5 298 L 182 303.5 L 181 305.5 L 181 322.5 L 182 325 L 189 327 L 189 437.5 L 187.5 439 L 41 439 L 41 292.5 L 40 291.5 L 40 252.5 Q 41.3 249.8 42.5 252 Q 47.3 253.2 48.5 251 L 71.5 251 L 72.5 252 L 95.5 252 Q 97.2 249.2 103.5 251 L 104.5 252 L 139.5 252 L 144.5 251 L 145.5 252 L 155.5 252 L 161 248.5 L 162 246.5 L 162 225 L 169.5 220 L 248.5 152 Z M 248 189 L 236 192 L 229 196 Q 218 203 215 217 L 215 233 L 221 246 Q 229 257 247 260 L 259 259 L 271 253 Q 282 245 285 228 Q 285 213 279 205 Q 270 190 248 189 Z M 61 293 L 56 299 L 56 377 L 57 380 L 63 383 L 77 383 L 78 382 L 87 382 L 88 383 Q 96 384 102 382 L 105 378 L 105 299 L 104 297 L 101 293 L 61 293 Z M 123 293 L 121 294 L 118 298 L 118 379 L 125 383 L 136 383 L 137 382 L 146 382 L 147 383 L 160 383 L 166 379 L 166 298 L 165 296 L 162 293 L 123 293 Z M 339 293 L 337 294 L 334 298 L 334 379 L 338 382 Q 342 381 344 383 L 356 383 L 357 382 L 367 382 L 368 383 L 380 382 L 383 377 L 383 300 L 382 297 L 379 293 L 339 293 Z M 402 293 L 400 294 L 397 298 L 397 379 L 404 383 L 418 383 L 419 382 L 427 382 L 428 383 L 437 383 L 444 381 L 446 377 L 446 300 L 445 297 L 442 293 L 402 293 Z " /><path fill="rgb(255,255,255)" stroke="rgb(255,255,255)" stroke-width="0" opacity="1" d="M 242.5 196 L 246 196.5 L 246 222 L 221.5 222 Q 220.5 222 221 217.5 Q 223.1 208.1 229.5 203 L 242.5 196 Z " /><path fill="rgb(255,255,255)" stroke="rgb(255,255,255)" stroke-width="0" opacity="1" d="M 252 196 Q 267.4 197.4 274 208.5 L 278 217.5 L 278 222 L 253.5 222 L 252 220.5 L 252 196 Z " /><path fill="rgb(255,255,255)" stroke="rgb(255,255,255)" stroke-width="0" opacity="1" d="M 221 228 L 246 228 L 246 253 Q 231.5 251.3 225 240.5 Q 221.2 235.5 221 228 Z " /><path fill="rgb(255,255,255)" stroke="rgb(255,255,255)" stroke-width="0" opacity="1" d="M 252 228 L 277.5 228 L 278 230.5 Q 275.1 242.1 266.5 248 Q 261.8 252.8 252.5 253 L 252 250.5 L 252 228 Z " /><path fill="rgb(255,255,255)" stroke="rgb(255,255,255)" stroke-width="0" opacity="1" d="M 234.5 293 L 266.5 293 L 267.5 294 L 279.5 295 L 297.5 300 L 309.5 305 L 312 307.5 L 312 319.5 L 311.5 320 L 187 320 L 187 307.5 L 188.5 306 L 208.5 298 L 234.5 293 Z " /><path fill="rgb(255,255,255)" stroke="rgb(255,255,255)" stroke-width="0" opacity="1" d="M 63.5 299 L 97.5 299 L 99 300.5 L 99 332.5 L 97.5 334 L 63 334 L 63 301.5 Q 60.7 300.3 63.5 299 Z " /><path fill="rgb(255,255,255)" stroke="rgb(255,255,255)" stroke-width="0" opacity="1" d="M 124 299 L 160 299 L 160 334 L 124 334 L 124 299 Z " /><path fill="rgb(255,255,255)" stroke="rgb(255,255,255)" stroke-width="0" opacity="1" d="M 341.5 299 L 376 299 L 376 333.5 L 373.5 334 L 340 334 L 340 300.5 L 341.5 299 Z " /><path fill="rgb(255,255,255)" stroke="rgb(255,255,255)" stroke-width="0" opacity="1" d="M 404.5 299 L 439 299 L 439 333.5 L 436.5 334 L 404.5 334 L 403 332.5 L 403 300.5 L 404.5 299 Z " /><path fill="rgb(255,255,255)" stroke="rgb(255,255,255)" stroke-width="0" opacity="1" d="M 195 327 L 246 327 L 246 439 L 195 439 L 195 327 Z M 234 376 L 230 377 L 225 383 L 226 391 L 233 395 L 239 393 L 242 388 L 241 381 L 234 376 Z " /><path fill="rgb(255,255,255)" stroke="rgb(255,255,255)" stroke-width="0" opacity="1" d="M 252.5 327 L 305 327 L 305 378.5 L 304 379.5 L 304 387.5 L 305 388.5 L 305 437.5 L 303.5 439 L 253.5 439 L 252 435.5 L 253 433.5 L 253 396.5 L 252 393.5 Q 254.5 392 253 386.5 L 252 385.5 L 252 375.5 L 253 374.5 L 253 340.5 L 252 335.5 Q 254.5 334 253 328.5 L 252.5 327 Z M 265 376 L 262 377 L 256 385 L 257 390 L 265 395 L 271 393 L 274 388 L 273 381 Q 270 377 265 376 Z " /><path fill="rgb(255,255,255)" stroke="rgb(255,255,255)" stroke-width="0" opacity="1" d="M 62.5 340 L 99 340 L 99 376 L 63.5 376 L 63 373.5 L 63 371.5 L 63 341.5 L 62.5 340 Z " /><path fill="rgb(255,255,255)" stroke="rgb(255,255,255)" stroke-width="0" opacity="1" d="M 124 340 L 160 340 L 160 376 L 124 376 L 124 340 Z " /><path fill="rgb(255,255,255)" stroke="rgb(255,255,255)" stroke-width="0" opacity="1" d="M 340 340 L 376 340 L 376 376 L 340 376 L 340 340 Z " /><path fill="rgb(255,255,255)" stroke="rgb(255,255,255)" stroke-width="0" opacity="1" d="M 403 340 L 439 340 L 439 376 L 403 376 L 403 340 Z " /><path fill="rgb(255,255,255)" stroke="rgb(255,255,255)" stroke-width="0" opacity="1" d="M 233.5 381 L 237 383.5 Q 238 388 235.5 389 L 233.5 390 L 230 387.5 Q 229 383 231.5 382 L 233.5 381 Z " /><path fill="rgb(255,255,255)" stroke="rgb(255,255,255)" stroke-width="0" opacity="1" d="M 264.5 381 L 268 382 L 269 386.5 L 268 389 Q 263.4 390.3 262 387.5 Q 260.8 381.4 263.5 382 L 264.5 381 Z " /><path fill="rgb(255,255,255)" stroke="rgb(255,255,255)" stroke-width="0" opacity="1" d="M 33.5 445 L 172.5 445 L 173 445.5 L 173 459 Q 164.3 457.1 161 461.5 L 160 463.5 L 160 476 L 154.5 477 L 153.5 476 L 145.5 476 Q 144 478.5 138.5 477 L 136.5 476 L 134.5 477 L 133.5 476 L 97.5 476 L 95.5 476 L 64.5 476 L 59.5 477 L 55.5 476 L 51.5 477 L 50.5 476 L 33.5 476 Q 32.3 478.3 31 475.5 L 31 448.5 L 33.5 445 Z " /><path fill="rgb(255,255,255)" stroke="rgb(255,255,255)" stroke-width="0" opacity="1" d="M 180.5 445 L 318.5 445 L 320 446.5 L 320 457.5 L 318.5 459 L 179.5 459 L 179 458.5 L 179 446.5 L 180.5 445 Z " /><path fill="rgb(255,255,255)" stroke="rgb(255,255,255)" stroke-width="0" opacity="1" d="M 326 445 L 470.5 445 L 473 447.5 L 473 476 L 462.5 476 L 459.5 477 L 458.5 476 L 339 476 L 339 463.5 L 336.5 460 L 326 459 L 326 445 Z " /><path fill="rgb(255,255,255)" stroke="rgb(255,255,255)" stroke-width="0" opacity="1" d="M 167.5 465 L 332.5 465 L 333 465.5 L 333 476 L 166.5 476 L 166 475.5 L 166 466.5 L 167.5 465 Z " /><path fill="rgb(0,0,0)" stroke="rgb(0,0,0)" stroke-width="0" opacity="1" d="M 245.5 29 L 252.5 29 L 260 34.5 L 262 42.5 L 260 47.5 L 262.5 48 L 273.5 46 Q 274.8 48.2 279.5 47 L 300.5 55 L 310.5 55 L 317.5 53 L 320 54 L 321 56.5 L 321 93.5 L 320 96 Q 312.8 101.6 297.5 100 L 275.5 92 L 263.5 92 L 257 94 L 257 113.5 L 258.5 115 L 293.5 143 L 426.5 143 Q 433.7 144.8 437 150.5 L 483 229.5 L 487 237.5 L 487 243.5 L 482.5 250 L 469 252 L 469 438.5 L 472.5 439 L 478 443.5 L 479 445.5 L 479 478.5 L 478 481 L 474.5 483 L 30.5 483 L 26 479.5 L 25 477.5 L 25 446.5 L 28.5 441 L 35 437.5 L 35 435.5 L 35 411.5 L 34 410.5 L 33.5 251 Q 31.7 253.8 25.5 252 Q 22.5 250.4 24 245 L 154.5 245 L 155 244.5 L 155 230.5 L 153.5 231 L 143.5 231 L 133 222.5 Q 130 218.5 131 210.5 Q 133.4 201.9 140.5 198 L 198 150.5 L 74.5 150 L 72 151 L 24.5 233 L 24 221.5 L 63 153.5 L 70.5 145 L 75.5 143 L 206.5 143 L 242 113.5 L 242 52.5 Q 235.9 49.1 236 39.5 Q 237.3 33.8 241.5 31 L 245.5 29 Z M 247 35 L 242 41 L 243 45 L 248 48 L 253 47 Q 257 46 255 39 Q 254 34 247 35 Z M 264 53 L 259 55 L 257 57 L 257 88 L 263 86 L 277 86 L 298 94 Q 308 96 314 92 L 315 92 L 315 60 L 312 61 L 300 61 L 279 53 L 264 53 Z M 248 54 L 248 112 L 251 112 L 251 55 L 248 54 Z M 248 118 L 222 138 L 145 203 Q 139 206 137 213 L 139 220 L 147 225 Q 155 226 159 221 L 238 153 L 250 145 L 260 151 L 340 219 L 349 225 Q 355 226 358 223 Q 364 220 362 210 L 260 123 L 252 118 L 248 118 Z M 303 150 L 310 157 L 359 197 Q 366 201 369 211 Q 370 219 366 224 Q 362 229 356 231 L 345 231 L 345 245 L 478 245 L 480 244 L 479 236 L 432 155 L 428 150 L 303 150 Z M 249 152 L 170 220 L 162 225 L 162 247 L 161 249 L 156 252 L 146 252 L 145 251 L 140 252 L 105 252 L 104 251 Q 97 249 96 252 L 73 252 L 72 251 L 49 251 Q 47 253 43 252 Q 41 250 40 253 L 40 292 L 41 293 L 41 439 L 188 439 L 189 438 L 189 327 L 182 325 L 181 323 L 181 306 L 182 304 L 191 298 L 204 293 L 224 288 L 242 287 L 243 286 L 259 286 L 260 287 L 270 287 L 271 288 L 282 289 L 300 294 L 315 301 L 319 307 L 319 322 L 318 324 L 314 327 L 311 328 L 311 439 L 463 439 L 463 251 L 373 251 L 372 252 L 346 252 L 340 250 L 339 248 L 339 227 L 255 155 L 249 152 Z M 235 293 L 209 298 L 189 306 L 187 308 L 187 320 L 312 320 L 312 320 L 312 308 L 310 305 L 298 300 L 280 295 L 268 294 L 267 293 L 235 293 Z M 195 327 L 195 439 L 246 439 L 246 327 L 195 327 Z M 253 327 L 253 329 Q 255 334 252 336 L 253 341 L 253 375 L 252 376 L 252 386 L 253 387 Q 255 392 252 394 L 253 397 L 253 434 L 252 436 L 254 439 L 304 439 L 305 438 L 305 389 L 304 388 L 304 380 L 305 379 L 305 327 L 253 327 Z M 34 445 L 31 449 L 31 476 Q 32 478 34 476 L 51 476 L 52 477 L 56 476 L 60 477 L 65 476 L 96 476 L 98 476 L 134 476 L 135 477 L 137 476 L 139 477 Q 144 479 146 476 L 154 476 L 155 477 L 160 476 L 160 464 L 161 462 Q 164 457 173 459 L 173 446 L 173 445 L 34 445 Z M 181 445 L 179 447 L 179 459 L 180 459 L 319 459 L 320 458 L 320 447 L 319 445 L 181 445 Z M 326 445 L 326 459 L 337 460 L 339 464 L 339 476 L 459 476 L 460 477 L 463 476 L 473 476 L 473 448 L 471 445 L 326 445 Z M 168 465 L 166 467 L 166 476 L 167 476 L 333 476 L 333 466 L 333 465 L 168 465 Z " /><path fill="rgb(0,0,0)" stroke="rgb(0,0,0)" stroke-width="0" opacity="1" d="M 247.5 189 Q 270 190 279 204.5 Q 285.4 212.6 285 227.5 Q 282.3 244.8 270.5 253 L 258.5 259 L 246.5 260 Q 229.3 257.3 221 245.5 L 215 232.5 L 215 216.5 Q 218.3 202.8 228.5 196 L 235.5 192 L 247.5 189 Z M 243 196 L 230 203 Q 223 208 221 218 Q 220 222 222 222 L 246 222 L 246 197 L 243 196 Z M 252 196 L 252 221 L 254 222 L 278 222 L 278 218 L 274 209 Q 267 197 252 196 Z M 221 228 Q 221 235 225 241 Q 232 251 246 253 L 246 228 L 221 228 Z M 252 228 L 252 251 L 253 253 Q 262 253 267 248 Q 275 242 278 231 L 278 228 L 252 228 Z " /><path fill="rgb(0,0,0)" stroke="rgb(0,0,0)" stroke-width="0" opacity="1" d="M 60.5 293 L 100.5 293 L 104 296.5 L 105 298.5 L 105 377.5 L 101.5 382 Q 96.4 384.4 87.5 383 L 86.5 382 L 77.5 382 L 76.5 383 L 62.5 383 L 57 379.5 L 56 376.5 L 56 298.5 L 60.5 293 Z M 64 299 Q 61 300 63 302 L 63 334 L 98 334 L 99 333 L 99 301 L 98 299 L 64 299 Z M 63 340 L 63 342 L 63 372 L 63 374 L 64 376 L 99 376 L 99 340 L 63 340 Z " /><path fill="rgb(0,0,0)" stroke="rgb(0,0,0)" stroke-width="0" opacity="1" d="M 122.5 293 L 161.5 293 L 165 295.5 L 166 297.5 L 166 378.5 L 159.5 383 L 146.5 383 L 145.5 382 L 136.5 382 L 135.5 383 L 124.5 383 L 118 378.5 L 118 297.5 L 120.5 294 L 122.5 293 Z M 124 299 L 124 334 L 160 334 L 160 299 L 124 299 Z M 124 340 L 124 376 L 160 376 L 160 340 L 124 340 Z " /><path fill="rgb(0,0,0)" stroke="rgb(0,0,0)" stroke-width="0" opacity="1" d="M 338.5 293 L 378.5 293 L 382 296.5 L 383 299.5 L 383 376.5 L 379.5 382 L 367.5 383 L 366.5 382 L 356.5 382 L 355.5 383 L 343.5 383 Q 342.3 380.8 337.5 382 L 334 378.5 L 334 297.5 L 336.5 294 L 338.5 293 Z M 342 299 L 340 301 L 340 334 L 374 334 L 376 334 L 376 299 L 342 299 Z M 340 340 L 340 376 L 376 376 L 376 340 L 340 340 Z " /><path fill="rgb(0,0,0)" stroke="rgb(0,0,0)" stroke-width="0" opacity="1" d="M 401.5 293 L 441.5 293 L 445 296.5 L 446 299.5 L 446 376.5 L 443.5 381 L 436.5 383 L 427.5 383 L 426.5 382 L 418.5 382 L 417.5 383 L 403.5 383 L 397 378.5 L 397 297.5 L 399.5 294 L 401.5 293 Z M 405 299 L 403 301 L 403 333 L 405 334 L 437 334 L 439 334 L 439 299 L 405 299 Z M 403 340 L 403 376 L 439 376 L 439 340 L 403 340 Z " /><path fill="rgb(0,0,0)" stroke="rgb(0,0,0)" stroke-width="0" opacity="1" d="M 233.5 376 L 241 380.5 L 242 387.5 L 238.5 393 L 232.5 395 L 226 390.5 L 225 382.5 L 229.5 377 L 233.5 376 Z M 234 381 L 232 382 Q 229 383 230 388 L 234 390 L 236 389 Q 238 388 237 384 L 234 381 Z " /><path fill="rgb(0,0,0)" stroke="rgb(0,0,0)" stroke-width="0" opacity="1" d="M 264.5 376 Q 270.4 376.6 273 380.5 L 274 387.5 L 270.5 393 L 264.5 395 L 257 389.5 L 256 384.5 L 261.5 377 L 264.5 376 Z M 265 381 L 264 382 Q 261 381 262 388 Q 263 390 268 389 L 269 387 L 268 382 L 265 381 Z " /></svg>