<svg width="627" height="627" preserveAspectRatio="xMidYMid meet" viewBox="0 0 512 512" version="1.1" xmlns="http://www.w3.org/2000/svg" ><path fill="rgb(255,255,255)" stroke="rgb(255,255,255)" stroke-width="0" opacity="1" d="M 0 0 L 512 0 L 512 512 L 0 512 L 0 0 Z M 217 23 L 203 30 L 195 40 Q 194 47 197 50 L 200 51 Q 216 67 221 94 Q 200 97 188 109 Q 174 122 166 141 L 161 156 L 155 187 L 148 205 L 139 219 L 116 246 Q 103 263 94 284 L 87 304 L 82 330 L 82 364 L 87 388 Q 96 415 112 435 Q 133 460 166 474 L 179 479 L 203 485 L 223 487 L 224 488 L 240 488 L 241 489 L 276 487 L 308 480 Q 339 470 361 450 Q 381 432 392 406 L 400 381 L 402 362 L 403 361 L 403 336 L 402 335 L 401 320 L 393 292 Q 385 270 372 253 Q 357 231 338 214 L 331 204 L 325 192 L 315 151 L 305 127 L 304 124 L 313 128 L 330 132 L 355 132 L 372 128 Q 393 121 409 107 Q 422 96 431 81 L 430 77 L 425 71 Q 409 52 387 39 L 359 27 L 336 23 L 316 24 L 300 28 Q 285 34 274 44 Q 260 57 252 75 Q 249 48 236 32 L 227 23 L 217 23 Z " /><path fill="rgb(255,255,255)" stroke="rgb(255,255,255)" stroke-width="0" opacity="1" d="M 218.5 32 Q 224.5 30.5 226 33.5 Q 236.2 46.8 241 65.5 L 243 82.5 L 244 83.5 L 244 106 L 233.5 106 L 231 103.5 L 230 90.5 L 227 78.5 L 222 66.5 Q 214.7 52.8 204 42.5 L 208.5 37 L 218.5 32 Z " /><path fill="rgb(255,255,255)" stroke="rgb(255,255,255)" stroke-width="0" opacity="1" d="M 319.5 33 L 339.5 33 Q 340.7 35.2 345.5 34 L 358.5 37 L 371.5 42 Q 395.7 53.3 413 71.5 L 420 79.5 L 420 81.5 L 404.5 98 Q 389.6 111.6 368.5 119 L 355.5 122 L 336.5 123 L 335.5 122 L 322.5 121 L 304.5 115 L 261 87.5 Q 274.8 79.3 292.5 75 L 302.5 73 L 312.5 73 L 313.5 72 L 330.5 72 L 331.5 73 L 341.5 73 L 357.5 76 L 381 82 L 379.5 79 L 365.5 73 L 341.5 67 Q 336.7 68.2 335.5 66 L 305.5 66 L 284.5 70 L 267.5 76 L 260.5 80 L 261 78.5 Q 268.6 58.6 284.5 47 L 300.5 38 L 319.5 33 Z " /><path fill="rgb(255,255,255)" stroke="rgb(255,255,255)" stroke-width="0" opacity="1" d="M 221.5 103 Q 223.8 102.3 223 104.5 L 222 108.5 L 227.5 113 L 239.5 115 Q 241 112.5 246.5 114 L 254 109.5 L 255 106.5 L 253 103 L 263.5 104 L 276.5 110 L 292 124.5 L 304 147.5 L 313 185.5 L 322 207.5 L 333 222.5 Q 349.7 237.8 363 256.5 L 379 283.5 Q 386.7 299.3 391 318.5 L 394 347.5 L 393 348.5 L 393 364.5 L 392 365.5 L 391 376.5 L 382 404.5 Q 370.5 428.5 351.5 445 Q 330.5 463 300.5 472 L 268.5 478 L 235.5 479 L 234.5 478 L 222.5 478 L 221.5 477 L 213.5 477 L 212.5 476 L 201.5 475 L 171.5 466 Q 141.9 453.6 122 431.5 Q 105.7 413.3 97 387.5 L 91 357.5 L 91 335.5 L 96 307.5 L 107 278.5 L 120 256.5 L 145 226.5 L 154 213.5 L 163 193.5 L 169 163.5 L 176 141.5 Q 183.3 123.8 197.5 113 Q 207.2 105.7 221.5 103 Z " /><path fill="rgb(0,0,0)" stroke="rgb(0,0,0)" stroke-width="0" opacity="1" d="M 216.5 23 L 226.5 23 L 236 31.5 Q 248.5 48.5 251.5 75 Q 259.7 56.7 273.5 44 Q 284.5 34 299.5 28 L 315.5 24 L 335.5 23 L 358.5 27 L 386.5 39 Q 408.8 51.7 425 70.5 L 430 76.5 L 431 80.5 Q 422.5 96.5 408.5 107 Q 393 120.5 371.5 128 L 354.5 132 L 329.5 132 L 304.5 125 L 305 126.5 L 315 150.5 L 325 191.5 L 331 203.5 L 338 213.5 Q 356.7 231.3 372 252.5 Q 384.5 270 393 291.5 L 401 319.5 L 402 334.5 L 403 335.5 L 403 360.5 L 402 361.5 L 400 380.5 L 392 405.5 Q 380.6 432.1 360.5 450 Q 338.8 469.8 307.5 480 L 275.5 487 L 240.5 489 L 239.5 488 L 223.5 488 L 222.5 487 L 202.5 485 L 178.5 479 L 165.5 474 Q 133.1 459.9 112 434.5 Q 95.7 414.8 87 387.5 L 82 363.5 L 82 329.5 L 87 303.5 L 94 283.5 Q 103.2 262.7 116 245.5 L 139 218.5 L 148 204.5 L 155 186.5 L 161 155.5 L 166 140.5 Q 173.5 121.5 187.5 109 Q 200.1 96.9 221 94 Q 216.3 66.9 199.5 51 L 197 49.5 Q 193.6 46.9 195 39.5 L 202.5 30 L 216.5 23 Z M 219 32 L 209 37 L 204 43 Q 215 53 222 67 L 227 79 L 230 91 L 231 104 L 234 106 L 244 106 L 244 84 L 243 83 L 241 66 Q 236 47 226 34 Q 224 31 219 32 Z M 320 33 L 301 38 L 285 47 Q 268 59 261 79 L 285 70 L 306 66 L 336 66 Q 337 68 342 67 L 366 73 L 380 79 L 381 82 L 358 76 L 342 73 L 332 73 L 331 72 L 314 72 L 313 73 L 303 73 L 293 75 Q 275 79 261 88 L 305 115 L 323 121 L 336 122 L 337 123 L 356 122 L 369 119 Q 390 112 405 98 L 420 82 L 420 80 L 413 72 Q 396 53 372 42 L 359 37 L 346 34 Q 341 35 340 33 L 320 33 Z M 222 103 Q 207 106 198 113 Q 183 124 176 142 L 169 164 L 163 194 L 154 214 L 145 227 L 120 257 L 107 279 L 96 308 L 91 336 L 91 358 L 97 388 Q 106 413 122 432 Q 142 454 172 466 L 202 475 L 213 476 L 214 477 L 222 477 L 223 478 L 235 478 L 236 479 L 269 478 L 301 472 Q 331 463 352 445 Q 371 429 382 405 L 391 377 L 392 366 L 393 365 L 393 349 L 394 348 L 391 319 Q 387 299 379 284 L 363 257 Q 350 238 333 223 L 322 208 L 313 186 L 304 148 L 292 125 L 277 110 L 264 104 L 253 103 L 255 107 L 254 110 L 247 114 Q 241 113 240 115 L 228 113 L 222 109 L 223 105 Q 224 102 222 103 Z " /></svg>