<svg width="627" height="627" preserveAspectRatio="xMidYMid meet" viewBox="0 0 512 512" version="1.1" xmlns="http://www.w3.org/2000/svg" ><path fill="rgb(255,255,255)" stroke="rgb(255,255,255)" stroke-width="0" opacity="1" d="M 0 0 L 512 0 L 512 512 L 0 512 L 0 0 Z M 252 47 Q 241 49 235 54 Q 228 58 226 66 Q 226 76 230 84 Q 204 120 184 164 L 167 214 L 161 240 L 158 262 L 146 259 L 128 259 Q 126 261 122 260 Q 104 265 93 275 Q 80 286 72 301 L 64 320 L 60 339 L 60 364 L 63 380 L 71 401 L 82 418 Q 105 448 151 456 L 177 456 L 199 451 Q 217 444 231 433 L 250 412 Q 249 409 252 410 Q 256 421 265 430 Q 289 458 334 465 L 361 465 L 375 462 Q 401 454 419 438 Q 445 415 452 374 L 452 346 L 448 328 L 439 307 L 427 291 Q 412 272 384 266 L 363 266 L 347 270 L 342 253 L 333 232 L 306 185 L 294 161 L 284 132 L 280 111 L 281 108 L 286 112 L 288 115 L 290 130 L 294 142 Q 299 153 307 163 Q 323 181 347 191 L 377 200 L 398 202 L 399 203 L 436 203 L 441 200 L 441 176 L 435 148 Q 428 126 415 111 Q 403 96 385 88 L 369 83 L 357 82 L 356 81 L 338 81 L 337 82 L 325 83 L 312 87 L 297 94 L 281 77 L 281 69 L 276 54 Q 273 49 267 47 L 252 47 Z " /><path fill="rgb(255,255,255)" stroke="rgb(255,255,255)" stroke-width="0" opacity="1" d="M 253.5 56 L 265.5 56 L 268 57 L 272 69.5 L 272 74.5 Q 263.5 85.5 241.5 83 L 238 80.5 L 235 66.5 L 238.5 62 Q 244.5 57.5 253.5 56 Z " /><path fill="rgb(255,255,255)" stroke="rgb(255,255,255)" stroke-width="0" opacity="1" d="M 274 83 L 278 85.5 L 287.5 97 L 292 100.5 L 291 105 L 286.5 103 L 276 92.5 Q 273 89.3 274 83 Z " /><path fill="rgb(255,255,255)" stroke="rgb(255,255,255)" stroke-width="0" opacity="1" d="M 267.5 87 Q 270.9 86.1 269 91.5 L 270 92.5 L 270 102.5 L 271 103.5 L 271 110.5 L 274 126.5 L 283 156.5 L 295 182.5 Q 313.1 210.4 328 241.5 L 338 268.5 L 343 289.5 Q 338.3 294.3 327.5 293 L 326 291.5 L 326 284.5 L 321 260.5 L 313 238.5 L 290 195.5 L 273 158.5 L 263 124.5 L 257 91.5 L 267.5 87 Z " /><path fill="rgb(255,255,255)" stroke="rgb(255,255,255)" stroke-width="0" opacity="1" d="M 237.5 89 Q 241.8 92 249 91 L 249 94.5 Q 229.8 117.3 215 144.5 L 198 183.5 L 189 213.5 L 185 232.5 L 183 251.5 L 182 252.5 L 182 261.5 L 181 262.5 L 181 285 Q 176.5 287 167.5 286 L 163 283.5 L 173 226.5 L 188 177.5 Q 208 128.5 237.5 89 Z " /><path fill="rgb(255,255,255)" stroke="rgb(255,255,255)" stroke-width="0" opacity="1" d="M 337.5 90 L 355.5 90 L 377.5 95 Q 397.8 102.7 410 118.5 Q 421.2 132.8 427 152.5 L 431 170.5 L 432 191.5 L 433 192.5 L 431.5 194 L 401.5 194 L 400.5 193 L 391.5 193 L 390.5 192 L 373.5 190 L 351.5 183 Q 327.3 173.3 312 154.5 Q 302.4 142.6 298 125.5 L 297 108.5 L 298.5 109 Q 332.8 119.2 360.5 136 Q 385.7 151.8 406.5 172 Q 409.3 170.8 407 169.5 L 390.5 151 Q 373.4 135.6 352.5 124 Q 328.9 111.6 302 102.5 L 315.5 95 L 337.5 90 Z " /><path fill="rgb(255,255,255)" stroke="rgb(255,255,255)" stroke-width="0" opacity="1" d="M 250.5 107 L 257 137.5 L 266 165.5 L 281 197.5 L 302 235.5 Q 310.5 253.2 315 274 L 303.5 274 L 287.5 278 Q 272.9 284.4 263 295.5 Q 263.7 298.1 261 297 Q 255.6 285.1 245.5 277 Q 236.6 269.4 224.5 265 L 215.5 263 L 195.5 263 L 190 264 L 195 227.5 L 201 203.5 L 211 174.5 Q 226.4 136.4 250.5 107 Z " /><path fill="rgb(255,255,255)" stroke="rgb(255,255,255)" stroke-width="0" opacity="1" d="M 128.5 268 L 144.5 268 L 156 271 L 155 281 L 148.5 280 L 147 283.5 L 148 286 L 161.5 293 L 180.5 294 Q 190.2 292.2 196 286.5 Q 196.8 282.8 194.5 282 L 189 283 L 189 274.5 L 190.5 273 L 195.5 272 L 213.5 272 Q 236.7 276.3 248 292.5 Q 253.5 297.5 255 306.5 Q 238.8 327.8 239 365.5 L 240 366.5 L 240 375.5 L 242 385.5 L 246 399.5 Q 238.3 414.8 225.5 425 Q 211.8 436.8 192.5 443 L 172.5 447 L 155.5 447 L 135.5 443 L 116.5 435 Q 100.2 425.8 89 411.5 Q 77.7 397.3 72 377.5 L 69 362.5 L 69 339.5 L 72 324.5 L 80 304.5 Q 87.6 290.6 99.5 281 Q 110.8 271.3 128.5 268 Z " /><path fill="rgb(255,255,255)" stroke="rgb(255,255,255)" stroke-width="0" opacity="1" d="M 364.5 275 L 381.5 275 L 395.5 279 Q 411.8 285.7 422 298.5 Q 433.2 311.3 439 329.5 L 443 348.5 L 443 370.5 L 440 385.5 L 435 399.5 Q 427.3 416.8 414.5 429 Q 398.7 444.2 375.5 452 L 353.5 456 L 338.5 456 L 337.5 455 L 330.5 455 L 320.5 453 L 294.5 442 Q 280.4 433.6 270 421.5 Q 258 408 252 388.5 L 249 375.5 L 248 354.5 L 249 353.5 L 250 340.5 L 255 324.5 Q 262.3 307.3 275.5 296 Q 283.4 288.9 294.5 285 L 303.5 283 L 317 283 L 318 291 L 312 293.5 L 313.5 297 Q 321.5 303 337.5 301 Q 350.5 299 357 290.5 Q 357.8 286.8 355.5 286 L 351.5 287 L 350 285.5 L 349 279 L 364.5 275 Z " /><path fill="rgb(0,0,0)" stroke="rgb(0,0,0)" stroke-width="0" opacity="1" d="M 251.5 47 L 266.5 47 Q 273 48.5 276 53.5 L 281 68.5 L 281 76.5 L 296.5 94 L 311.5 87 L 324.5 83 L 336.5 82 L 337.5 81 L 355.5 81 L 356.5 82 L 368.5 83 L 384.5 88 Q 403 96 415 110.5 Q 428 126 435 147.5 L 441 175.5 L 441 199.5 L 435.5 203 L 398.5 203 L 397.5 202 L 376.5 200 L 346.5 191 Q 322.7 180.8 307 162.5 Q 299 153.5 294 141.5 L 290 129.5 L 288 114.5 L 285.5 112 L 280.5 108 L 280 110.5 L 284 131.5 L 294 160.5 L 306 184.5 L 333 231.5 L 342 252.5 L 347 270 L 362.5 266 L 383.5 266 Q 411.6 271.9 427 290.5 L 439 306.5 L 448 327.5 L 452 345.5 L 452 373.5 Q 444.8 415.3 418.5 438 Q 400.9 454.4 374.5 462 L 360.5 465 L 333.5 465 Q 289 457.5 265 429.5 Q 256.3 421.1 252 410 Q 249.3 408.9 250 411.5 L 230.5 433 Q 217 444.5 198.5 451 L 176.5 456 L 150.5 456 Q 104.8 448.2 82 417.5 L 71 400.5 L 63 379.5 L 60 363.5 L 60 338.5 L 64 319.5 L 72 300.5 Q 80.1 285.6 92.5 275 Q 104.5 265 121.5 260 Q 126.2 261.3 127.5 259 L 145.5 259 L 158 262 L 161 239.5 L 167 213.5 L 184 163.5 Q 203.5 120 230 83.5 Q 226.3 76.1 226 65.5 Q 228.1 57.6 234.5 54 Q 241.4 48.9 251.5 47 Z M 254 56 Q 244 57 239 62 L 235 67 L 238 81 L 242 83 Q 263 85 272 75 L 272 70 L 268 57 L 266 56 L 254 56 Z M 274 83 Q 273 89 276 93 L 287 103 L 291 105 L 292 101 L 288 97 L 278 86 L 274 83 Z M 268 87 L 257 92 L 263 125 L 273 159 L 290 196 L 313 239 L 321 261 L 326 285 L 326 292 L 328 293 Q 338 294 343 290 L 338 269 L 328 242 Q 313 210 295 183 L 283 157 L 274 127 L 271 111 L 271 104 L 270 103 L 270 93 L 269 92 Q 271 86 268 87 Z M 238 89 Q 208 128 188 178 L 173 227 L 163 284 L 168 286 Q 176 287 181 285 L 181 263 L 182 262 L 182 253 L 183 252 L 185 233 L 189 214 L 198 184 L 215 145 Q 230 117 249 95 L 249 91 Q 242 92 238 89 Z M 338 90 L 316 95 L 302 103 Q 329 112 353 124 Q 373 136 391 151 L 407 170 Q 409 171 407 172 Q 386 152 361 136 Q 333 119 299 109 L 297 109 L 298 126 Q 302 143 312 155 Q 327 173 352 183 L 374 190 L 391 192 L 392 193 L 401 193 L 402 194 L 432 194 L 433 193 L 432 192 L 431 171 L 427 153 Q 421 133 410 119 Q 398 103 378 95 L 356 90 L 338 90 Z M 251 107 Q 226 136 211 175 L 201 204 L 195 228 L 190 264 L 196 263 L 216 263 L 225 265 Q 237 269 246 277 Q 256 285 261 297 Q 264 298 263 296 Q 273 284 288 278 L 304 274 L 315 274 Q 311 253 302 236 L 281 198 L 266 166 L 257 138 L 251 107 Z M 129 268 Q 111 271 100 281 Q 88 291 80 305 L 72 325 L 69 340 L 69 363 L 72 378 Q 78 397 89 412 Q 100 426 117 435 L 136 443 L 156 447 L 173 447 L 193 443 Q 212 437 226 425 Q 238 415 246 400 L 242 386 L 240 376 L 240 367 L 239 366 Q 239 328 255 307 Q 254 297 248 293 Q 237 276 214 272 L 196 272 L 191 273 L 189 275 L 189 283 L 195 282 Q 197 283 196 287 Q 190 292 181 294 L 162 293 L 148 286 L 147 284 L 149 280 L 155 281 L 156 271 L 145 268 L 129 268 Z M 365 275 L 349 279 L 350 286 L 352 287 L 356 286 Q 358 287 357 291 Q 350 299 338 301 Q 322 303 314 297 L 312 294 L 318 291 L 317 283 L 304 283 L 295 285 Q 283 289 276 296 Q 262 307 255 325 L 250 341 L 249 354 L 248 355 L 249 376 L 252 389 Q 258 408 270 422 Q 280 434 295 442 L 321 453 L 331 455 L 338 455 L 339 456 L 354 456 L 376 452 Q 399 444 415 429 Q 427 417 435 400 L 440 386 L 443 371 L 443 349 L 439 330 Q 433 311 422 299 Q 412 286 396 279 L 382 275 L 365 275 Z " /></svg>