<svg width="627" height="627" preserveAspectRatio="xMidYMid meet" viewBox="0 0 512 512" version="1.1" xmlns="http://www.w3.org/2000/svg" ><path fill="rgb(254,254,254)" stroke="rgb(254,254,254)" stroke-width="0.6" opacity="1" d="M 0 0 L 512 0 L 512 512 L 0 512 L 0 0 Z M 153 87 L 120 92 Q 100 97 88 108 Q 76 118 70 135 Q 64 152 63 175 L 61 177 L 56 175 Q 44 174 39 179 Q 31 185 30 198 Q 28 215 34 225 L 42 230 L 56 231 L 57 233 L 56 243 L 47 249 Q 33 260 25 277 L 20 297 L 20 327 Q 16 328 17 335 Q 19 338 22 333 L 40 338 L 114 346 L 146 347 L 147 348 L 203 348 L 205 354 L 204 371 L 202 378 L 197 381 L 170 383 L 102 380 L 58 375 L 31 369 L 19 361 Q 15 361 17 369 Q 23 375 35 376 L 42 392 Q 52 405 72 408 Q 97 410 109 397 L 116 388 L 138 388 L 139 389 L 188 389 L 190 388 L 198 408 Q 204 416 215 421 L 234 425 Q 259 427 271 415 Q 281 406 285 391 L 303 383 L 309 375 L 317 372 L 369 370 L 370 372 L 372 384 L 377 394 Q 387 408 409 410 Q 432 413 443 403 Q 457 392 460 369 L 464 366 L 483 365 L 490 362 Q 495 359 496 352 L 495 332 L 488 326 L 489 288 L 490 287 L 490 234 L 491 233 L 490 166 Q 488 148 479 138 Q 468 124 451 116 L 434 110 L 409 105 L 330 96 L 245 89 L 212 88 L 211 87 L 153 87 Z " /><path fill="rgb(254,254,254)" stroke="rgb(254,254,254)" stroke-width="0.6" opacity="1" d="M 161.5 287 L 162 288.5 L 155 294.5 L 157.5 290 L 161.5 287 Z " /><path fill="rgb(243,186,42)" stroke="rgb(243,186,42)" stroke-width="0.6" opacity="1" d="M 156.5 95 L 157.5 97 L 158 95 L 196.5 95 Q 195.9 98.4 204 97 Q 202.9 93.3 211.5 95 L 220 96 L 220.5 98 L 229.5 98 L 237 99 L 238.5 97 L 240.5 98 L 244.5 97 L 252 98 Q 250.7 101.7 256.5 100 L 257.5 99 L 272.5 99 L 277 100 Q 275.9 103.5 283.5 102 L 287 103 L 287.5 101 L 288 103 L 292.5 101 L 300 102 Q 298.6 105.7 304.5 104 L 310 105 Q 308.6 101.3 314.5 103 L 316.5 104 L 318.5 103 L 324 104 Q 322.9 107.5 330.5 106 L 338.5 105 L 345 106 Q 343.6 109.7 349.5 108 L 353 109 Q 351.8 106 355.5 107 L 358.5 108 L 360.5 107 L 365 108 Q 363.6 111.7 369.5 110 L 372 109 Q 370.9 112.3 375 111 Q 373.8 108 377.5 109 L 382 110 Q 380.7 113.3 385.5 112 L 391.5 113 L 395.5 111 L 399 112 Q 397.8 115 401.5 114 L 407.5 113 L 412 114 Q 410.8 117 414.5 116 L 416.5 117 Q 418 113.5 419.5 116 L 424.5 118 L 428.5 117 L 431 118 Q 429.8 121 433.5 120 L 435.5 120 L 438 120.5 L 437.5 122 L 439.5 123 L 442.5 122 L 448 124.5 L 449.5 126 L 452 125 L 453.5 128 L 456 127 Q 455 131.7 458.5 133 L 461.5 133 L 467 137 L 474.5 148 Q 478.3 146.8 477 150.5 L 476 152.5 L 479 153.5 L 476.5 161 L 465.5 160 L 461.5 162 L 457 161 L 455.5 159 L 453.5 160 L 451.5 158 L 441.5 158 L 436.5 160 L 433.5 159 L 429 160 L 427 156 L 418.5 156 L 413.5 158 L 408 157 L 406.5 155 L 404 156 L 403.5 154 L 394.5 154 L 388.5 156 L 385.5 155 L 383.5 156 L 382 152 L 368.5 152 L 365.5 154 L 360 153 L 358.5 151 L 356.5 152 Q 353.3 148.2 344.5 150 L 336.5 152 L 330 150 L 329.5 148 L 317.5 148 L 313.5 150 L 310 149 Q 311.1 145.7 307 147 L 306.5 150 L 304.5 147 L 291.5 146 L 285.5 148 L 273.5 146 L 270.5 147 L 269 146.5 L 266.5 151 L 262 153.5 L 263 155.5 L 260 157 L 262 175.5 L 259 185.5 L 254.5 192 L 252.5 193 L 247 190 L 247 171.5 L 249 169.5 L 245.5 163 L 243 161.5 L 244.5 159 Q 247.9 159.9 246 154.5 L 247 148 Q 243.7 149.3 245 144.5 L 246 140 L 243 138.5 L 243 134.5 L 237 126.5 L 237 124.5 L 232.5 119 L 223 115 Q 224.7 110.9 220.5 112 L 212.5 108 L 208 109 Q 209.7 104.9 205.5 106 L 201 107 Q 202.8 102.5 197.5 104 L 193.5 105 L 191 104 Q 192.1 100.3 183.5 102 L 178.5 104 L 173 102 L 172.5 100 L 147 100 Q 148.3 103 144.5 102 L 138.5 103 Q 137.5 100 132.5 101 L 131 105 L 123 104 L 121.5 107 L 119 107 L 117.5 105 L 118.5 103 L 122 102 Q 120.8 99 124.5 100 L 128.5 99 L 131.5 100 L 131.5 98 L 138.5 99 L 145 98 Q 143.9 94.3 152.5 96 L 156 97 L 156.5 95 Z " /><path fill="rgb(243,186,42)" stroke="rgb(243,186,42)" stroke-width="0.6" opacity="1" d="M 110.5 103 L 114 105.5 Q 115.5 109.9 112.5 109 L 110.5 108 L 107.5 110 L 106 107 L 109 105.5 L 110.5 103 Z " /><path fill="rgb(243,186,42)" stroke="rgb(243,186,42)" stroke-width="0.6" opacity="1" d="M 100.5 109 L 104 110.5 L 96.5 116 L 95 114.5 L 100.5 109 Z " /><path fill="rgb(243,186,42)" stroke="rgb(243,186,42)" stroke-width="0.6" opacity="1" d="M 146.5 109 L 148 111 L 153 111 L 153.5 109 L 168 109 Q 166.7 113 173 111 Q 171.9 107.5 179.5 109 L 182 110 Q 180.7 113.7 186.5 112 L 189.5 111 L 192 112 L 194.5 117 L 198 118 L 194.5 123 L 193 124.5 L 190 126.5 L 191 131 Q 187.3 129.8 189 135 L 191 136.5 L 190 139 L 192 140.5 L 193 143 L 197 145.5 L 195.5 150 Q 189.5 151.5 188 148.5 Q 188.9 145.5 184.5 147 L 183.5 146 L 123.5 146 L 118 147 L 116.5 150 L 111 148.5 L 116 139 L 118 138.5 L 118 131 Q 115 132.3 116 128.5 L 110 123.5 L 119 115.5 L 120.5 114 L 133.5 111 L 139 112 Q 137.9 108.5 145.5 110 L 146.5 109 Z " /><path fill="rgb(243,186,42)" stroke="rgb(243,186,42)" stroke-width="0.6" opacity="1" d="M 89.5 117 L 91 117 L 91 122 L 87.5 124 L 86 121.5 L 89.5 117 Z " /><path fill="rgb(243,186,42)" stroke="rgb(243,186,42)" stroke-width="0.6" opacity="1" d="M 218.5 119 L 220 122 Q 226 119.8 224 126.5 L 221.5 128 L 217 126 Q 218.5 122.2 215.5 123 L 218.5 119 Z " /><path fill="rgb(243,186,42)" stroke="rgb(243,186,42)" stroke-width="0.6" opacity="1" d="M 201.5 125 L 210 127.5 L 211 133.5 L 210 138 L 203 141 L 200.5 137 Q 196.8 138.3 198 134.5 L 199 132 Q 195.7 133.3 197 128.5 L 201.5 125 Z " /><path fill="rgb(243,186,42)" stroke="rgb(243,186,42)" stroke-width="0.6" opacity="1" d="M 225.5 128 L 231 129.5 L 233.5 133 L 235 134.5 L 234 137 L 237 138.5 L 236 145.5 L 238 153 L 233.5 154 L 229.5 152 L 226.5 154 L 223.5 150 L 218.5 148 L 215.5 152 L 209 150.5 L 211 147.5 L 211.5 145 L 217 141.5 L 218.5 138 L 222 135.5 L 221 132.5 L 223.5 129 L 225.5 128 Z " /><path fill="rgb(243,186,42)" stroke="rgb(243,186,42)" stroke-width="0.6" opacity="1" d="M 87 139 L 92 141 L 98.5 150 L 100 150.5 L 96.5 152 L 92.5 150 L 90 151 L 88.5 153 Q 84 152 85 145.5 L 88 144 L 87 139 Z " /><path fill="rgb(243,186,42)" stroke="rgb(243,186,42)" stroke-width="0.6" opacity="1" d="M 73.5 153 L 76.5 155 L 78 154.5 L 79 160 L 77 161.5 Q 75.5 164.5 74 161.5 L 73.5 153 Z " /><path fill="rgb(243,186,42)" stroke="rgb(243,186,42)" stroke-width="0.6" opacity="1" d="M 282.5 169 Q 286.5 168.3 285.5 171 L 291 171 L 291.5 169 L 300.5 169 L 302 172 L 309.5 173 L 312 175.5 L 314 181.5 L 314 191 L 312 191.5 L 312 229.5 L 313 234.5 L 311 234.5 L 310 238.5 L 311 241 L 295.5 239 L 282.5 241 L 282.5 240 L 286 239.5 L 285 236.5 L 286 233 L 289 231.5 L 289 225.5 Q 285.5 226.5 287 219.5 L 288 218.5 L 288 202.5 L 287 200 L 289 198.5 L 285 195.5 L 282.5 191 L 279 190 L 280 181.5 L 277 176.5 L 280 175 L 282.5 169 Z " /><path fill="rgb(243,186,42)" stroke="rgb(243,186,42)" stroke-width="0.6" opacity="1" d="M 70.5 181 L 71 184.5 L 69.5 190 L 68 182 L 70.5 181 Z " /><path fill="rgb(243,186,42)" stroke="rgb(243,186,42)" stroke-width="0.6" opacity="1" d="M 44 183 Q 47.1 186.5 56.5 185 L 60 188.5 L 58 189 L 57 198 L 59 198.5 L 59 207.5 L 58 210 L 56 210 L 56 218.5 L 54.5 219 Q 50.7 222.7 43.5 223 L 43 220.5 L 41.5 219 L 39 218.5 L 40 210 Q 36 211.4 38 204.5 L 40 204.5 L 41 201.5 L 38 191.5 L 45 186.5 L 44 183 Z " /><path fill="rgb(243,186,42)" stroke="rgb(243,186,42)" stroke-width="0.6" opacity="1" d="M 66.5 217 L 67 225.5 L 65.5 231 L 64 222 L 66 222 L 66.5 217 Z " /><path fill="rgb(243,186,42)" stroke="rgb(243,186,42)" stroke-width="0.6" opacity="1" d="M 247.5 232 Q 250.5 231.1 249 235.5 L 246.5 240 L 244.5 239 L 243 239.5 L 244 233 L 247.5 232 Z " /><path fill="rgb(243,186,42)" stroke="rgb(243,186,42)" stroke-width="0.6" opacity="1" d="M 64.5 241 L 65 243 L 67 244.5 Q 70.2 249.2 78 248 L 78.5 250 L 105.5 250 L 106.5 251 L 128.5 251 L 135.5 249 L 144 250 L 145.5 252 L 154 251 Q 152.9 254.8 161.5 253 L 168 252 Q 167 255 170 254 Q 169 251 172 252 L 172.5 254 L 180.5 254 L 191.5 255 L 199 254 Q 197.8 257 201.5 256 L 207 255 Q 205.7 258.7 211.5 257 L 219 256 Q 217.8 259 221.5 258 L 233 259 L 235.5 255 L 238 253.5 L 239 250 L 245 247 L 246.5 252 L 255.5 258 L 258 257.5 L 258.5 251 L 259 272.5 L 258 273.5 L 258 291 Q 254.3 289.6 256 295.5 Q 253.9 299 247 297 Q 248.3 300 244.5 299 L 240 298 Q 242.3 304 235.5 302 L 223.5 308 L 217 314.5 L 215 320 L 211 322.5 Q 212.5 326.9 209.5 326 L 209 328.5 L 207.5 330 L 204 335.5 L 205 338.5 L 200.5 341 L 196.5 339 L 195.5 340 L 152 340 Q 153.1 343.5 145.5 342 L 142.5 341 L 138.5 342 L 132 341 Q 133.4 337 126.5 339 L 114.5 338 L 106 339 Q 107.3 335.7 102.5 337 L 93.5 335 Q 90.4 338.6 83 337 Q 84.3 334 80.5 335 L 77 334 Q 78 337 75 336 Q 76.3 332.3 70.5 334 L 65 335 Q 66.3 331.7 61.5 333 L 55.5 332 Q 53.4 336 46 334 L 47 330 L 41.5 329 Q 40.3 332 36 331 Q 37.3 327.7 32.5 329 Q 28.3 327.2 31 325.5 L 29.5 321 L 27 319.5 L 27 311.5 L 28.5 311 L 31 311.5 Q 30.9 317.1 34.5 319 Q 40.6 317.8 40 320.5 L 41 323 L 48.5 324 L 51 320 L 54 318.5 L 54 317 L 59 317 L 59 315.5 L 61 310 Q 65.1 311.7 64 307.5 L 64.5 305 Q 67.9 305.9 66 300.5 L 65 295.5 L 66 291.5 L 63.5 286 L 62 284.5 L 57 278 L 51.5 274 L 44.5 274 L 41.5 278 L 38.5 277 L 35.5 281 L 33 276 L 35.5 277 L 40 267 L 45 263.5 L 49 258.5 L 50 256 L 57 254 L 61.5 246 Q 64.5 246.9 63 242.5 L 64.5 241 Z M 165 278 L 165 280 L 162 282 L 158 281 L 156 286 L 149 292 Q 151 296 147 295 L 147 297 L 146 302 L 143 304 L 144 311 L 147 313 L 146 318 L 152 321 L 156 328 L 167 334 L 170 333 L 173 330 L 172 329 L 174 328 L 176 328 Q 175 323 182 325 Q 185 323 185 317 L 188 315 L 187 312 L 190 310 L 189 305 L 190 300 Q 191 296 188 297 L 189 295 L 185 288 L 182 287 L 178 282 L 176 281 L 174 280 Q 172 276 165 278 Z M 131 299 L 126 305 L 126 308 L 120 312 L 117 316 Q 113 315 114 318 Q 110 319 111 316 L 108 317 Q 104 316 105 319 Q 103 321 98 320 L 97 316 L 94 317 L 90 316 L 83 308 L 77 304 L 74 309 Q 70 310 74 312 L 77 311 L 77 315 L 83 323 L 86 321 Q 91 319 89 325 L 92 324 L 93 326 L 97 328 L 100 326 Q 107 324 109 328 L 113 326 L 117 323 L 120 321 Q 121 324 123 322 L 124 320 L 129 317 Q 128 314 132 315 L 133 312 Q 134 307 140 308 L 139 307 L 135 301 L 131 299 Z " /><path fill="rgb(243,186,42)" stroke="rgb(243,186,42)" stroke-width="0.6" opacity="1" d="M 28.5 295 L 29 305.5 L 28 305.5 L 27 296.5 L 28.5 295 Z " /><path fill="rgb(243,186,42)" stroke="rgb(243,186,42)" stroke-width="0.6" opacity="1" d="M 247 306 L 256 306.5 L 255.5 308 L 261.5 309 L 263 308.5 L 263 310 L 268 310 L 268 311.5 L 269 314 L 271 315.5 L 278 321 L 282 332 Q 286.5 330.3 285 335.5 L 282.5 341 L 280.5 336 Q 277.9 336.8 279 333.5 L 277 328.5 L 276.5 326 L 271 323.5 L 269.5 321 L 264.5 322 L 261 320 Q 262.3 323.3 257.5 322 L 250.5 321 L 241.5 324 L 240 323.5 L 238.5 325 L 236.5 324 L 228.5 334 L 225 336.5 L 223.5 339 L 218.5 340 L 216 339 L 218 329.5 L 217 327 L 221 324.5 L 222 321 Q 225.7 322.2 224 317 L 227.5 317 L 229 314 L 247 308 L 247 306 Z " /><path fill="rgb(243,186,42)" stroke="rgb(243,186,42)" stroke-width="0.6" opacity="1" d="M 483.5 337 L 487.5 338 L 490 338.5 L 490 347.5 L 488.5 348 L 486 349 L 484.5 354 L 482 355.5 L 480.5 357 L 478.5 358 L 472 353.5 Q 469.8 345.3 473.5 343 L 477.5 344 L 480.5 339 L 483.5 337 Z " /><path fill="rgb(243,186,42)" stroke="rgb(243,186,42)" stroke-width="0.6" opacity="1" d="M 212.5 338 L 215 342.5 L 215.5 345 L 218 346.5 L 219 351 Q 215.2 349.5 216 352.5 L 217 357 L 212 354.5 L 212 349.5 L 210 347.5 L 209 343.5 L 212 341.5 L 211 339.5 L 212.5 338 Z " /><path fill="rgb(243,186,42)" stroke="rgb(243,186,42)" stroke-width="0.6" opacity="1" d="M 287.5 354 L 290 355 L 288.5 365 L 288 362.5 L 287.5 354 Z " /><path fill="rgb(243,186,42)" stroke="rgb(243,186,42)" stroke-width="0.6" opacity="1" d="M 209.5 379 L 212 380.5 L 212 388.5 L 214 396 Q 218.1 394.3 217 398.5 L 216 401.5 L 219 406.5 Q 221.2 412.8 215.5 411 L 213.5 411 L 210.5 408 L 203 401.5 L 204 399.5 L 201 398 L 203 393.5 L 199 391.5 Q 197.9 388.2 200.5 389 L 205.5 382 L 207.5 383 L 209.5 379 Z " /><path fill="rgb(50,53,52)" stroke="rgb(50,53,52)" stroke-width="0.6" opacity="1" d="M 170.5 92 L 184 92.5 L 170.5 93 L 170.5 92 Z " /><path fill="rgb(50,53,52)" stroke="rgb(50,53,52)" stroke-width="0.6" opacity="1" d="M 102.5 125 L 107.5 127 Q 109.3 124.2 111 128.5 L 112 139 Q 108.3 137.5 109 140.5 L 107.5 144 L 102 143 L 101.5 145 L 99 144 L 97 137 Q 93.3 138.2 95 133 Q 98.7 134.3 97 128.5 L 102.5 125 Z " /><path fill="rgb(50,53,52)" stroke="rgb(50,53,52)" stroke-width="0.6" opacity="1" d="M 274.5 151 L 284.5 153 L 291.5 152 L 294.5 153 L 296 152.5 L 296.5 154 L 297 152 L 306 153 Q 304.8 156.7 310 155 L 311.5 153 L 316.5 155 L 318 154.5 Q 317.2 157.9 322 156 L 323.5 154 L 348.5 157 L 350.5 156 L 357.5 158 L 359 157.5 Q 358.2 160.5 362 159 L 363.5 157 L 369 158 Q 367.8 161.7 373 160 L 374.5 158 L 380 159 Q 378.9 162.3 383 161 Q 381.8 158 385.5 159 L 402.5 162 L 407.5 161 L 409.5 162 L 411 161.5 L 411.5 163 L 412 161 L 419.5 163 L 421 162.5 Q 420.2 165.5 424 164 Q 422.8 161 426.5 162 L 430 163 Q 428.8 166.7 434 165 Q 432.8 162 436.5 163 L 459.5 166 L 461.5 165 L 468.5 167 L 470 166.5 L 472 168 L 473.5 166 L 479 167 Q 477.8 170 481.5 169 L 483 173 L 485 173.5 L 485 181.5 L 484 184 L 486 184.5 L 486 204.5 L 484 209.5 L 485 210.5 L 485 237.5 L 484 243.5 L 484.5 245 L 483 245.5 L 483 255 Q 486.5 253.9 485 261.5 L 483.5 263 L 448 263 Q 449 260 446 261 L 445.5 263 L 434 263 Q 435.3 260 431.5 261 L 430.5 262 L 400 262 L 399.5 260 L 388 260 L 387.5 262 L 373.5 262 L 372.5 261 L 353 261 L 352.5 259 L 323 259 L 322.5 261 L 312.5 261 L 303 260 L 302.5 258 L 276 258 Q 277.5 261.7 274.5 261 Q 269.8 263.8 271 272.5 L 273.5 277 L 275 277.5 L 275.5 280 L 277 278 L 280.5 278 L 281.5 279 L 314 279 L 314.5 281 L 379 281 L 379.5 279 L 409.5 279 L 410.5 280 L 482 280.5 L 482 282.5 L 481 292.5 L 483 293.5 L 276.5 294 L 272 295 L 270.5 304 L 268 303 L 267.5 305 L 262 301.5 L 263 253.5 L 265.5 245 Q 273.5 246 277.5 243 Q 280.5 246.9 287 246 L 287.5 248 L 296 248 L 296.5 246 L 306 246 Q 304.9 249.3 309 248 L 310.5 245 L 316 241.5 Q 319.1 234.9 318 225 L 320 224.5 L 320 213 Q 316.5 214.1 318 206.5 L 319 205.5 L 319 184 Q 322.7 185.2 321 180 Q 317.7 181.3 319 176.5 Q 318.4 170.2 313.5 168 Q 310.9 168.8 312 165.5 L 311 165.5 L 310.5 167 L 286.5 163 L 275 167.5 L 274 169.5 L 274.5 171 L 273 171.5 L 274 173.5 L 273 174.5 L 273 187.5 L 271.5 189 L 270.5 186 L 267.5 187 L 265 186.5 Q 263.4 176.8 267 177.5 L 267 167 Q 263.7 168.3 265 163.5 L 266 160 L 268 159.5 L 266 158.5 L 269.5 153 L 274.5 151 Z M 350 168 L 349 169 L 336 169 L 331 174 L 328 183 L 329 186 L 327 186 L 327 195 L 329 195 L 327 214 L 328 219 L 326 219 L 326 234 L 328 234 L 330 245 L 336 246 L 337 249 Q 341 250 340 247 L 344 248 Q 347 247 346 250 L 367 249 L 367 247 L 373 243 L 372 242 L 374 237 L 374 217 L 375 216 L 375 181 L 368 169 L 367 171 L 362 169 L 350 168 Z M 401 171 L 400 173 L 390 173 L 384 180 L 382 192 L 383 200 L 381 200 L 381 209 L 383 209 L 382 218 L 383 243 L 388 249 L 391 248 L 394 249 L 418 249 L 419 248 L 421 249 L 424 242 L 427 240 Q 428 236 425 237 L 426 233 L 426 225 L 428 224 L 428 185 L 426 184 L 427 180 L 421 175 L 405 172 L 402 173 L 401 171 Z M 444 175 L 444 177 L 440 178 L 437 182 L 434 184 L 436 185 L 435 187 L 433 188 L 433 204 L 435 204 L 434 217 Q 435 224 432 224 L 432 238 L 435 240 L 433 241 L 435 244 L 436 246 L 444 250 Q 449 248 448 252 L 455 252 L 455 250 L 464 250 L 464 252 Q 468 253 467 251 L 472 248 L 474 244 Q 473 240 476 241 L 475 240 Q 473 232 477 233 L 477 209 L 475 208 L 475 193 L 477 192 L 476 187 L 476 184 Q 472 185 473 183 L 468 178 L 457 177 L 454 175 Q 448 173 449 177 Q 446 178 447 175 L 444 175 Z " /><path fill="rgb(50,53,52)" stroke="rgb(50,53,52)" stroke-width="0.6" opacity="1" d="M 338.5 171 L 341.5 172 L 343.5 171 L 348.5 172 L 350 171.5 L 350 173 L 355 173 L 355.5 171 L 360 172 L 360.5 174 L 361.5 172 L 367 174.5 L 369.5 178 L 371 177.5 Q 374 182.5 373 191.5 L 372 192.5 L 372 211 L 370 211.5 L 370 226 Q 373.7 224.7 372 230.5 L 370 240.5 L 365.5 245 L 350.5 246 L 338.5 245 L 332 240.5 Q 329.1 233.9 330 223.5 L 331 215.5 L 330 208.5 L 332 183.5 L 331.5 182 L 333 181.5 L 331 180.5 L 335.5 173 L 337.5 174 L 338.5 171 Z " /><path fill="rgb(50,53,52)" stroke="rgb(50,53,52)" stroke-width="0.6" opacity="1" d="M 112.5 196 L 121 197 L 121.5 199 L 123 198.5 Q 120.3 200.2 124.5 202 L 127 203.5 L 123.5 207 L 122.5 206 L 116.5 205 L 111.5 208 L 109 208.5 L 108 213 L 106 213.5 L 107 215.5 L 104 216.5 Q 102.9 219.8 105.5 219 L 105 220.5 L 103 222 L 103 225 L 106 226.5 L 104 230 Q 108.1 228.3 107 232.5 L 106.5 237 L 104.5 237 L 98 230.5 L 99 226.5 L 98 213.5 L 99 211 L 97 209.5 L 97 207.5 L 97.5 206 L 100 207.5 L 101 205.5 L 100 204.5 L 106.5 198 Q 108 200.5 109.5 197 L 112.5 196 Z " /><path fill="rgb(50,53,52)" stroke="rgb(50,53,52)" stroke-width="0.6" opacity="1" d="M 201.5 213 L 204 214.5 L 203 221.5 L 203.5 223 L 200 222.5 L 202 222 L 201.5 213 Z " /><path fill="rgb(50,53,52)" stroke="rgb(50,53,52)" stroke-width="0.6" opacity="1" d="M 283.5 262 L 300 262.5 L 283.5 263 L 283.5 262 Z " /><path fill="rgb(50,53,52)" stroke="rgb(50,53,52)" stroke-width="0.6" opacity="1" d="M 353.5 263 L 364 263.5 L 353.5 264 L 353.5 263 Z " /><path fill="rgb(50,53,52)" stroke="rgb(50,53,52)" stroke-width="0.6" opacity="1" d="M 414.5 264 L 426 264.5 L 414.5 265 L 414.5 264 Z " /><path fill="rgb(50,53,52)" stroke="rgb(50,53,52)" stroke-width="0.6" opacity="1" d="M 474.5 265 Q 482 263 484 266.5 L 482.5 266 L 474.5 266 L 474.5 265 Z " /><path fill="rgb(50,53,52)" stroke="rgb(50,53,52)" stroke-width="0.6" opacity="1" d="M 321.5 276 L 342 276.5 L 321.5 277 L 321.5 276 Z " /><path fill="rgb(50,53,52)" stroke="rgb(50,53,52)" stroke-width="0.6" opacity="1" d="M 483.5 276 L 482.5 278 L 458 277.5 L 482.5 277 L 483.5 276 Z " /><path fill="rgb(50,53,52)" stroke="rgb(50,53,52)" stroke-width="0.6" opacity="1" d="M 47.5 285 L 52 287.5 L 51.5 290 L 47.5 285 Z " /><path fill="rgb(50,53,52)" stroke="rgb(50,53,52)" stroke-width="0.6" opacity="1" d="M 378.5 296 L 415 296.5 L 409 298.5 L 412 299.5 L 402.5 306 L 389.5 307 L 276.5 308 L 273 306 L 274 302.5 L 273 299.5 L 277 297 L 277.5 299 L 287 299 L 287.5 297 L 377.5 297 L 378.5 296 Z " /><path fill="rgb(50,53,52)" stroke="rgb(50,53,52)" stroke-width="0.6" opacity="1" d="M 176.5 299 L 178 300.5 L 179 305.5 L 178 308 L 176 307.5 L 177 305.5 L 176 303.5 L 177 300.5 L 176.5 299 Z " /><path fill="rgb(50,53,52)" stroke="rgb(50,53,52)" stroke-width="0.6" opacity="1" d="M 53 300 L 55 300.5 L 51.5 309 L 51 307.5 L 51.5 305 L 53 304.5 L 52 302.5 L 53 300 Z " /><path fill="rgb(50,53,52)" stroke="rgb(50,53,52)" stroke-width="0.6" opacity="1" d="M 454.5 305 L 471 305.5 L 454.5 306 L 454.5 305 Z " /><path fill="rgb(50,53,52)" stroke="rgb(50,53,52)" stroke-width="0.6" opacity="1" d="M 462.5 308 L 482 308.5 L 481 318 Q 484.5 316.9 483 324.5 L 482 332.5 L 480.5 334 L 477.5 336 L 474.5 337 L 472.5 336 L 468.5 337 L 462 321.5 L 463 319 L 460 317.5 L 456 310.5 L 462.5 308 Z " /><path fill="rgb(50,53,52)" stroke="rgb(50,53,52)" stroke-width="0.6" opacity="1" d="M 272.5 311 L 277.5 317 L 272.5 311 Z " /><path fill="rgb(50,53,52)" stroke="rgb(50,53,52)" stroke-width="0.6" opacity="1" d="M 157.5 314 Q 159.8 319.2 167.5 319 L 170 318 Q 171.3 321 167.5 320 L 164.5 321 L 156 315.5 L 157.5 314 Z " /><path fill="rgb(50,53,52)" stroke="rgb(50,53,52)" stroke-width="0.6" opacity="1" d="M 423.5 322 L 434.5 322 L 436 323.5 L 436.5 325 L 438.5 324 L 441.5 328 Q 443.3 325.3 445 329.5 L 445.5 332 L 448 332.5 L 452 341.5 L 451.5 343 L 453 344.5 Q 457.4 353.6 455 369.5 L 454 372 Q 451 371 452 374 L 454 374.5 L 453 377 L 451 378.5 L 453 378.5 L 451 384 Q 446.9 382.3 448 386.5 L 447.5 389 L 446 389.5 Q 449 391.5 444 393.5 L 441.5 397 L 431.5 403 L 430.5 401 L 426 402 L 426 404 L 420 404 Q 421.3 401 417.5 402 L 415.5 403 L 405 393.5 L 405 391.5 L 405 389 Q 400.9 390.7 402 386.5 L 399 377 L 396.5 378 L 396 375 Q 400 376.4 398 369.5 L 399 363.5 L 398 360.5 Q 399.6 349.6 405 342.5 L 405 340.5 L 408 334 L 410 333.5 L 409 332.5 L 415.5 326 L 419.5 324 L 421 324.5 L 422.5 323 L 423.5 322 Z M 427 341 L 421 344 Q 415 348 414 356 L 411 358 Q 410 361 413 360 L 412 362 L 410 363 Q 408 369 412 368 L 413 371 L 411 371 L 413 373 L 416 382 L 424 387 L 432 386 L 435 387 L 444 371 L 445 369 L 442 368 L 442 367 L 444 367 Q 443 363 446 364 Q 447 361 444 362 L 444 358 L 441 358 Q 440 355 443 356 Q 443 348 438 344 L 436 343 Q 434 339 427 341 Z " /><path fill="rgb(50,53,52)" stroke="rgb(50,53,52)" stroke-width="0.6" opacity="1" d="M 165.5 344 L 186 344.5 L 165.5 345 L 165.5 344 Z " /><path fill="rgb(50,53,52)" stroke="rgb(50,53,52)" stroke-width="0.6" opacity="1" d="M 169.5 347 L 181 347.5 L 169.5 348 L 169.5 347 Z " /><path fill="rgb(50,53,52)" stroke="rgb(50,53,52)" stroke-width="0.6" opacity="1" d="M 248.5 352 L 251.5 353 L 256.5 352 L 259 353 L 259.5 355 L 260.5 354 L 264 357.5 L 266 361.5 L 264 362.5 L 267 363.5 L 268 367.5 L 266 368.5 L 268 369 L 268 376.5 L 266.5 377 L 267 378.5 L 265 382 L 267 382.5 L 266 385 L 264 385.5 L 264.5 387 L 263 388.5 L 258.5 395 L 252 398 Q 253 395 250 396 L 248.5 398 L 241 392.5 L 240 390.5 L 241 388.5 L 238 387.5 L 237 368.5 L 238.5 364 L 241 363.5 L 240 360.5 L 245.5 354 L 248.5 352 Z M 255 366 L 257 371 L 255 371 L 256 379 L 253 384 L 257 382 L 259 380 L 257 378 L 259 376 L 258 371 L 259 368 L 258 368 L 255 366 Z M 249 379 L 246 382 L 247 384 L 250 385 L 251 383 Q 247 381 250 380 L 249 379 Z " /><path fill="rgb(63,132,180)" stroke="rgb(63,132,180)" stroke-width="0.6" opacity="1" d="M 115.5 155 L 118.5 156 L 119.5 155 L 188.5 155 L 228.5 160 L 238 165.5 Q 243.5 176 241 194.5 L 237 239.5 Q 236.1 247.1 231.5 251 L 219.5 251 L 176.5 246 L 123.5 244 L 114.5 242 L 113.5 243 L 91.5 243 L 90.5 242 L 74.5 242 L 73 240.5 L 72 235.5 L 72 233.5 L 77 182.5 L 80 169.5 L 86.5 161 L 99.5 157 L 115.5 155 Z M 112 170 L 108 172 L 101 181 L 102 183 Q 106 178 114 176 L 121 178 Q 124 179 123 176 Q 121 169 112 170 Z M 189 172 L 181 178 L 183 180 L 186 178 L 194 178 L 203 185 L 205 185 L 202 178 Q 199 171 189 172 Z M 112 193 L 104 197 Q 96 203 94 215 Q 93 226 97 233 Q 101 239 110 240 Q 119 240 124 236 Q 130 231 132 222 Q 134 208 129 202 Q 125 192 112 193 Z M 183 195 L 176 198 Q 166 204 164 217 Q 163 227 166 234 Q 170 241 180 243 Q 189 244 194 240 Q 201 235 204 225 Q 206 209 200 203 L 190 195 L 183 195 Z " /><path fill="rgb(63,132,180)" stroke="rgb(63,132,180)" stroke-width="0.6" opacity="1" d="M 184.5 198 Q 193.1 198.4 197 203.5 L 201 211.5 L 198.5 213 L 194.5 208 L 186.5 206 L 178 211.5 Q 172.5 217.5 174 230.5 L 177 236.5 L 174.5 238 L 171 235.5 Q 165.2 229.8 167 216.5 Q 168.9 204.9 177.5 200 L 184.5 198 Z " /><path fill="rgb(63,132,180)" stroke="rgb(63,132,180)" stroke-width="0.6" opacity="1" d="M 119.5 210 Q 124.3 209.3 125 212.5 Q 126.3 218.8 122.5 220 L 117 218.5 L 116 214.5 L 119.5 210 Z " /><path fill="rgb(63,132,180)" stroke="rgb(63,132,180)" stroke-width="0.6" opacity="1" d="M 276.5 263 L 373.5 264 L 399.5 266 L 400.5 265 L 433.5 265 L 434.5 266 L 481.5 266 L 483 267.5 Q 485 275 481.5 277 L 427.5 276 L 426.5 277 L 398.5 277 L 397.5 276 L 277.5 276 L 274 272.5 Q 272.8 265.3 276.5 263 Z " /><path fill="rgb(63,132,180)" stroke="rgb(63,132,180)" stroke-width="0.6" opacity="1" d="M 443 297 L 482.5 297 L 483 300.5 L 480.5 305 L 451.5 305 L 443 298.5 L 443 297 Z " /><path fill="rgb(63,132,180)" stroke="rgb(63,132,180)" stroke-width="0.6" opacity="1" d="M 424.5 299 Q 446.6 299.9 455 314.5 L 464 335.5 L 465 356.5 L 461.5 361 L 460 359.5 Q 460.7 346.7 457 338.5 Q 453.1 326.9 444.5 320 Q 438.6 314.9 427.5 315 Q 414.6 317.6 408 326.5 L 400 339.5 L 395 357.5 L 391.5 362 L 386.5 363 L 385 361.5 L 385 351.5 Q 389 321.5 407.5 306 Q 414.1 300.6 424.5 299 Z " /><path fill="rgb(63,132,180)" stroke="rgb(63,132,180)" stroke-width="0.6" opacity="1" d="M 248.5 329 Q 267.9 328.1 274 340.5 Q 283 352.5 282 374.5 Q 279.6 400.6 263.5 413 Q 256.7 419.7 241.5 418 Q 231 414.9 226 406.5 Q 219.3 397.2 218 382.5 L 219 381.5 L 219 368.5 L 224 352.5 Q 228.3 341.8 236.5 335 L 248.5 329 Z M 252 348 L 244 352 Q 237 358 234 369 Q 232 386 239 395 L 248 401 Q 255 402 259 399 Q 269 392 271 376 Q 271 363 266 356 Q 262 348 252 348 Z " /><path fill="rgb(63,132,180)" stroke="rgb(63,132,180)" stroke-width="0.6" opacity="1" d="M 393.5 366 L 395 367.5 L 397 383.5 Q 400.3 394.2 408 400.5 L 408 403 Q 393.2 402 385 393.5 Q 376.5 384.7 376 369 L 390.5 368 L 393.5 366 Z " /><path fill="rgb(63,132,180)" stroke="rgb(63,132,180)" stroke-width="0.6" opacity="1" d="M 301.5 372 L 302 374.5 Q 297.4 381.5 287 382 Q 285.2 374.9 289.5 373 L 301.5 372 Z " /><path fill="rgb(63,132,180)" stroke="rgb(63,132,180)" stroke-width="0.6" opacity="1" d="M 43 378 L 68.5 383 L 108 386 Q 107.2 392.1 101.5 395 Q 92.3 403.3 73.5 402 Q 54.6 399.4 46 386.5 L 43 378 Z " /><path fill="rgb(8,9,9)" stroke="rgb(8,9,9)" stroke-width="0.6" opacity="1" d="M 156.5 88 L 205.5 88 L 206.5 89 L 240.5 90 L 337.5 98 L 407.5 106 L 445.5 115 Q 464.1 121.9 476 135.5 Q 486.3 147.2 489 166.5 L 490 231.5 L 489 232.5 L 489 277.5 L 488 278.5 L 487 326.5 L 493 330.5 L 495 334.5 L 495 351.5 L 489.5 361 L 481.5 364 L 463.5 365 L 459 367.5 Q 456.6 389.6 443.5 401 Q 433.5 411 411.5 409 L 395.5 406 Q 385.2 402.3 379 394.5 L 374 385.5 L 369.5 369 L 311.5 371 L 308 374.5 L 299.5 384 L 284 389.5 Q 279.6 407.6 266.5 417 Q 256.3 424.8 237.5 424 L 215.5 420 Q 205.8 416.2 200 408.5 L 190.5 387 L 185.5 388 L 140.5 388 L 115.5 386 L 103.5 400 Q 93 408.5 72.5 407 Q 53.7 404.3 44 392.5 L 34.5 375 Q 23.4 374.1 18 367.5 L 19.5 363 L 23.5 367 L 36.5 372 L 70.5 378 L 128.5 383 L 179.5 384 L 197.5 382 L 203 377.5 Q 207 367.5 206 352.5 L 202.5 347 L 198.5 346 L 197.5 347 L 155.5 347 L 150.5 346 L 146.5 347 L 145.5 346 L 103.5 344 L 93.5 342 L 91.5 343 L 74.5 340 L 72.5 341 L 47.5 338 L 43.5 336 L 34.5 336 L 21.5 332 L 18 333 L 21 327.5 Q 18.7 301.2 24 282.5 Q 30.5 263.5 44.5 252 L 57 242.5 L 58 230.5 L 55.5 230 Q 39 232 34 222.5 Q 30 214 31 200.5 L 33 188.5 L 40.5 179 Q 45.2 175.2 54.5 176 L 62.5 179 L 64 177.5 L 64 168.5 L 67 149.5 L 72 132.5 Q 78.3 115.8 91.5 106 Q 103.6 97.1 120.5 93 L 156.5 88 Z M 163 92 L 140 94 L 119 98 Q 102 102 92 112 Q 77 124 72 147 L 68 170 L 61 245 L 47 256 Q 27 271 25 303 L 26 330 L 31 333 L 75 339 L 88 339 L 94 341 Q 109 340 120 343 L 141 343 L 151 345 L 156 344 L 160 345 L 205 344 Q 209 329 218 319 Q 228 305 247 301 L 259 302 L 260 301 L 260 292 L 262 293 L 262 302 L 269 305 L 271 305 Q 270 300 273 301 Q 272 307 276 308 L 320 308 L 321 307 L 333 308 L 338 307 L 403 307 Q 407 299 417 298 L 417 296 L 334 296 L 333 294 L 483 294 L 484 293 L 483 280 L 484 267 L 483 265 L 439 265 L 440 263 L 484 263 L 485 262 L 485 227 L 486 226 L 486 179 L 485 169 L 484 167 L 476 167 L 475 165 Q 482 167 484 164 Q 482 149 474 141 Q 463 127 446 120 L 422 113 L 404 110 L 343 103 L 248 95 L 195 93 L 194 92 L 163 92 Z M 50 180 L 44 182 L 38 188 L 35 204 L 37 220 L 46 226 L 58 225 L 60 221 L 63 186 Q 59 180 50 180 Z M 439 296 L 439 298 L 452 306 L 470 306 L 470 308 L 457 308 L 455 310 L 463 323 L 466 336 L 469 339 L 468 358 L 469 360 Q 480 362 486 358 L 491 351 L 490 334 L 487 331 L 484 335 Q 482 339 477 339 Q 469 341 470 337 L 480 336 L 482 334 L 483 328 L 483 309 L 482 308 L 484 304 L 484 298 L 483 296 L 439 296 Z M 425 298 Q 414 299 408 305 Q 390 319 385 346 Q 387 351 383 350 Q 385 329 395 315 L 399 311 L 398 309 L 279 310 L 277 312 Q 286 320 290 334 Q 294 347 293 367 L 295 368 L 379 364 L 382 362 L 382 353 L 384 352 L 384 363 L 387 365 L 388 363 L 392 363 L 397 357 L 397 352 Q 400 350 398 349 Q 401 335 409 327 Q 415 319 426 316 Q 440 315 446 322 Q 459 334 459 360 L 463 361 L 466 355 L 464 332 L 457 316 L 453 311 Q 445 298 425 298 Z M 251 303 Q 231 306 221 319 L 220 320 Q 211 330 207 344 L 208 350 L 208 369 L 207 370 L 209 375 L 212 374 L 215 371 Q 218 350 228 338 Q 236 326 252 323 Q 265 322 272 329 Q 286 342 286 368 L 291 366 Q 293 334 279 318 Q 270 305 251 303 Z M 427 321 L 413 328 L 402 344 L 397 365 L 395 365 L 391 366 L 389 366 L 379 367 L 375 370 Q 376 385 384 394 Q 393 404 411 404 Q 403 397 399 386 L 400 383 L 407 397 Q 412 403 422 405 Q 433 405 440 399 Q 451 389 455 372 Q 458 346 449 334 Q 443 322 427 321 Z M 250 328 L 237 334 L 226 347 L 218 368 Q 215 399 229 412 L 242 419 Q 257 420 265 413 L 277 398 L 281 387 L 283 372 Q 283 352 275 341 Q 270 333 261 329 L 250 328 Z M 291 372 L 288 373 Q 285 375 286 381 L 287 383 Q 299 382 304 374 L 303 372 L 291 372 Z M 215 375 Q 213 379 208 378 L 197 387 L 198 396 L 205 408 L 220 417 L 232 419 L 234 418 L 232 416 L 220 402 L 216 388 L 216 377 L 215 375 Z M 44 377 L 42 379 L 46 388 Q 55 401 75 403 Q 92 404 102 396 Q 108 393 109 385 L 70 382 L 44 377 Z " /><path fill="rgb(8,9,9)" stroke="rgb(8,9,9)" stroke-width="0.6" opacity="1" d="M 154 104 L 187.5 106 L 210.5 111 Q 227.5 116 237 128.5 Q 241.8 134.5 242 144 Q 238.3 145.3 240 139.5 Q 236.3 128.3 227.5 122 Q 215.8 113.2 198.5 110 L 180.5 107 L 154 106 L 154 104 Z " /><path fill="rgb(8,9,9)" stroke="rgb(8,9,9)" stroke-width="0.6" opacity="1" d="M 141.5 105 L 152.5 105 L 153 107 L 141.5 107 L 116.5 112 Q 99.9 116.9 90 128.5 Q 83.8 136 83 148 Q 80 149.3 81 145.5 Q 83.8 128.3 95.5 120 L 112.5 111 L 141.5 105 Z " /><path fill="rgb(8,9,9)" stroke="rgb(8,9,9)" stroke-width="0.6" opacity="1" d="M 201.5 119 Q 205.3 118 204 121 L 197 124.5 Q 193.8 127.8 195 135.5 L 199.5 142 L 207.5 143 L 214 137.5 L 215 128.5 L 210.5 122 L 206 121 Q 204.8 118 208.5 119 L 215 124.5 L 217 133.5 Q 215.9 140.9 210.5 144 L 200.5 145 L 195 140.5 Q 191.7 136.8 193 128.5 L 197.5 121 L 201.5 119 Z " /><path fill="rgb(8,9,9)" stroke="rgb(8,9,9)" stroke-width="0.6" opacity="1" d="M 102 123 Q 109.6 121.9 112 127.5 Q 115.2 130.8 114 138.5 L 108.5 146 L 102 147 Q 100.7 143.7 105.5 145 L 111 140.5 L 112 129.5 Q 110.1 123.5 102 125 L 102 123 Z " /><path fill="rgb(8,9,9)" stroke="rgb(8,9,9)" stroke-width="0.6" opacity="1" d="M 94 139 L 96 140.5 L 99.5 145 L 95 142.5 L 94 139 Z " /><path fill="rgb(8,9,9)" stroke="rgb(8,9,9)" stroke-width="0.6" opacity="1" d="M 271.5 149 L 284.5 149 L 285 151 L 271.5 151 L 267 155.5 L 266 161 Q 262.7 162.3 264 157.5 L 269.5 150 L 271.5 149 Z " /><path fill="rgb(8,9,9)" stroke="rgb(8,9,9)" stroke-width="0.6" opacity="1" d="M 129.5 150 L 156.5 151 L 157.5 150 L 171.5 150 L 172.5 151 L 196.5 151 L 214.5 153 L 231.5 156 L 238.5 160 L 242 158 L 241 162.5 L 244 168.5 L 245 195.5 L 244 196.5 L 244 209.5 L 242 216.5 L 242 233.5 L 238 250.5 L 234.5 254 L 231.5 255 L 230.5 254 L 216.5 254 L 210.5 252 L 196.5 252 L 185.5 250 L 169.5 250 L 154.5 248 L 137.5 248 L 118.5 246 L 74.5 246 L 69 241.5 L 69 218.5 L 71 215.5 L 70 207.5 L 73 194.5 L 72 189.5 L 73 182.5 L 75 180.5 L 74 176.5 Q 76 164.5 82.5 157 L 84.5 157 L 109.5 151 L 128.5 151 L 129.5 150 Z M 121 154 L 99 157 L 97 156 L 86 161 Q 80 165 78 173 L 76 181 L 76 190 L 73 200 L 74 202 L 71 233 L 72 241 L 75 243 L 80 244 L 145 245 L 188 249 L 201 249 Q 208 252 221 251 L 227 253 L 233 251 L 239 239 L 238 237 L 239 223 L 241 221 L 240 216 L 241 195 L 243 192 L 243 176 L 241 175 Q 242 168 238 165 L 232 160 L 211 156 L 198 156 L 184 154 L 121 154 Z " /><path fill="rgb(8,9,9)" stroke="rgb(8,9,9)" stroke-width="0.6" opacity="1" d="M 302 151 L 338.5 153 L 340 154.5 L 325.5 155 L 302 153 L 302 151 Z " /><path fill="rgb(8,9,9)" stroke="rgb(8,9,9)" stroke-width="0.6" opacity="1" d="M 354 155 L 363.5 155 L 364 157 L 354.5 157 L 354 155 Z " /><path fill="rgb(8,9,9)" stroke="rgb(8,9,9)" stroke-width="0.6" opacity="1" d="M 366 156 L 401 158 L 400.5 160 L 388.5 160 L 366 158 L 366 156 Z " /><path fill="rgb(8,9,9)" stroke="rgb(8,9,9)" stroke-width="0.6" opacity="1" d="M 427.5 161 L 448.5 162 L 450 163.5 L 438.5 164 L 428.5 163 L 427.5 161 Z " /><path fill="rgb(8,9,9)" stroke="rgb(8,9,9)" stroke-width="0.6" opacity="1" d="M 291.5 164 L 308.5 166 L 317 171.5 L 319 177.5 L 319 198 L 317 197.5 L 317 176.5 L 312.5 170 Q 300.6 165.4 282.5 167 L 277 170.5 Q 273.1 176.6 275 188.5 L 276 191 Q 281.5 190.3 283 195.5 L 286 207.5 L 286 214.5 Q 282.7 218.2 284 226.5 L 285 228.5 L 280 241.5 L 283.5 244 L 308.5 244 L 314 239.5 L 316 233.5 L 316 208 L 318 208.5 L 318 232.5 L 317 238.5 L 313.5 244 L 308.5 246 L 284.5 246 L 275.5 243 L 265 244 L 264 250 Q 260.3 251.3 262 245.5 L 259.5 244 Q 257.2 249.7 249.5 250 Q 245.8 248.8 247 242.5 L 252 236.5 Q 248.8 229.7 250 218.5 L 251 205.5 L 253 202.5 L 252 200.5 L 258.5 191 L 264.5 188 L 271.5 189 L 273 187.5 L 274 171.5 L 278.5 166 L 291.5 164 Z M 263 192 L 260 194 L 254 203 L 253 216 L 254 236 Q 257 241 265 243 L 271 243 L 275 241 L 281 235 Q 280 228 283 226 L 282 218 L 282 205 L 283 204 L 280 197 Q 276 190 263 192 Z M 253 240 Q 248 241 249 247 L 252 248 L 256 243 L 253 240 Z " /><path fill="rgb(8,9,9)" stroke="rgb(8,9,9)" stroke-width="0.6" opacity="1" d="M 263 165 L 265 165.5 L 265 181 L 263 180.5 L 263 165 Z " /><path fill="rgb(8,9,9)" stroke="rgb(8,9,9)" stroke-width="0.6" opacity="1" d="M 336.5 169 L 356.5 169 L 358.5 170 L 360.5 169 Q 368.1 169.9 372 174.5 L 375 181.5 L 375 209.5 L 374 210.5 L 374 235.5 L 368.5 246 Q 360.9 250.4 346.5 248 L 337.5 247 L 331 243.5 L 329 238 L 331 239.5 L 337.5 245 L 362.5 246 L 370 241.5 L 372 232.5 L 373 182.5 L 367.5 174 Q 356.4 169.1 338.5 171 L 333 174.5 L 331 179.5 L 331 196 L 329 195.5 L 329 180.5 Q 329.3 173.8 333.5 171 L 336.5 169 Z " /><path fill="rgb(8,9,9)" stroke="rgb(8,9,9)" stroke-width="0.6" opacity="1" d="M 111.5 171 Q 120.1 169.9 122 175.5 L 120.5 177 L 113.5 175 L 103.5 180 L 103 178.5 L 107.5 173 L 111.5 171 Z " /><path fill="rgb(8,9,9)" stroke="rgb(8,9,9)" stroke-width="0.6" opacity="1" d="M 187.5 173 Q 199 171.5 202 178.5 L 203 183.5 L 197.5 179 L 187.5 177 L 183 178 L 185.5 174 L 187.5 173 Z " /><path fill="rgb(8,9,9)" stroke="rgb(8,9,9)" stroke-width="0.6" opacity="1" d="M 391.5 173 L 407.5 173 L 408 175 L 391.5 175 L 387 178.5 L 386 183 Q 382.7 184.3 384 179.5 L 388.5 174 L 391.5 173 Z " /><path fill="rgb(8,9,9)" stroke="rgb(8,9,9)" stroke-width="0.6" opacity="1" d="M 411 174 Q 420.1 173.2 424 178.5 L 426 189 Q 422 190.4 424 183.5 L 418.5 177 L 411 176 L 411 174 Z " /><path fill="rgb(8,9,9)" stroke="rgb(8,9,9)" stroke-width="0.6" opacity="1" d="M 442.5 177 L 457.5 177 L 459 178.5 L 442.5 179 L 438 183.5 Q 439 187.3 436 186 L 439.5 178 L 442.5 177 Z " /><path fill="rgb(8,9,9)" stroke="rgb(8,9,9)" stroke-width="0.6" opacity="1" d="M 460 178 Q 469.1 177.2 473 182.5 L 475 187.5 L 475 237 L 473 236.5 L 473 186.5 L 469.5 182 Q 466.3 179 460 180 L 460 178 Z " /><path fill="rgb(8,9,9)" stroke="rgb(8,9,9)" stroke-width="0.6" opacity="1" d="M 383 185 L 385 185.5 L 385 210 L 383 209.5 L 383 185 Z " /><path fill="rgb(8,9,9)" stroke="rgb(8,9,9)" stroke-width="0.6" opacity="1" d="M 435 188 L 437 188.5 L 437 216 L 435 215.5 L 435 188 Z " /><path fill="rgb(8,9,9)" stroke="rgb(8,9,9)" stroke-width="0.6" opacity="1" d="M 424 193 L 426 193.5 L 426 226 L 424 225.5 L 424 193 Z " /><path fill="rgb(8,9,9)" stroke="rgb(8,9,9)" stroke-width="0.6" opacity="1" d="M 121.5 196 L 127 200.5 L 128 202.5 L 121.5 196 Z " /><path fill="rgb(8,9,9)" stroke="rgb(8,9,9)" stroke-width="0.6" opacity="1" d="M 188 196 Q 196.1 196.8 200 203.5 L 199.5 206 L 195.5 201 L 188 198 L 188 196 Z " /><path fill="rgb(8,9,9)" stroke="rgb(8,9,9)" stroke-width="0.6" opacity="1" d="M 176.5 199 L 170 206.5 L 168.5 209 L 169 207.5 L 174.5 200 L 176.5 199 Z " /><path fill="rgb(8,9,9)" stroke="rgb(8,9,9)" stroke-width="0.6" opacity="1" d="M 114.5 206 Q 123.3 205.2 127 209.5 L 128 214 L 131 215.5 Q 131 231.5 120.5 237 L 112.5 239 Q 105.1 233.9 105 221.5 Q 105.8 211.3 112.5 207 L 114.5 206 Z M 122 208 L 116 213 Q 115 220 119 221 Q 125 222 126 218 Q 127 209 122 208 Z " /><path fill="rgb(8,9,9)" stroke="rgb(8,9,9)" stroke-width="0.6" opacity="1" d="M 186.5 207 Q 194.9 207.1 198 212.5 L 200 217.5 L 201 230.5 L 193.5 239 L 181.5 242 L 181 239.5 L 177 235.5 Q 172.8 230.2 175 218.5 L 180.5 210 L 186.5 207 Z M 191 211 L 189 212 L 185 218 L 186 221 Q 187 225 193 224 L 197 219 L 196 215 L 191 211 Z " /><path fill="rgb(8,9,9)" stroke="rgb(8,9,9)" stroke-width="0.6" opacity="1" d="M 328 212 L 330 212.5 L 330 236 L 328 235.5 L 328 212 Z " /><path fill="rgb(8,9,9)" stroke="rgb(8,9,9)" stroke-width="0.6" opacity="1" d="M 434 223 L 436 223.5 L 436 238.5 Q 436.7 244.9 441.5 247 L 443.5 248 L 466.5 248 L 470 247 L 472 240 Q 475 238.8 474 242.5 L 471.5 247 L 467.5 250 L 445.5 250 Q 438.3 249.8 436 244.5 Q 432.3 236 434 223 Z " /><path fill="rgb(8,9,9)" stroke="rgb(8,9,9)" stroke-width="0.6" opacity="1" d="M 423 235 Q 426.7 233.7 425 239.5 Q 424.4 245.9 419.5 248 L 395.5 249 L 389.5 248 L 384 243.5 L 383 238 Q 386 236.8 385 240.5 L 387.5 244 L 394.5 247 L 416.5 247 L 422 242.5 L 423 235 Z " /><path fill="rgb(8,9,9)" stroke="rgb(8,9,9)" stroke-width="0.6" opacity="1" d="M 261 256 L 263 256.5 L 263 285 L 261 284.5 L 261 256 Z " /><path fill="rgb(8,9,9)" stroke="rgb(8,9,9)" stroke-width="0.6" opacity="1" d="M 276.5 260 L 302.5 260 L 303 262 L 276.5 262 L 273.5 265 L 273 262.5 L 276.5 260 Z " /><path fill="rgb(8,9,9)" stroke="rgb(8,9,9)" stroke-width="0.6" opacity="1" d="M 313 261 L 355.5 261 L 356 263 L 313.5 263 L 313 261 Z " /><path fill="rgb(8,9,9)" stroke="rgb(8,9,9)" stroke-width="0.6" opacity="1" d="M 376 262 L 416.5 262 L 417 264 L 376.5 264 L 376 262 Z " /><path fill="rgb(8,9,9)" stroke="rgb(8,9,9)" stroke-width="0.6" opacity="1" d="M 272 273 L 274 274.5 L 275.5 276 L 297 276 L 296.5 278 L 275.5 278 L 272 273 Z " /><path fill="rgb(8,9,9)" stroke="rgb(8,9,9)" stroke-width="0.6" opacity="1" d="M 313 277 L 435.5 277 L 436 279 L 313.5 279 L 313 277 Z " /><path fill="rgb(8,9,9)" stroke="rgb(8,9,9)" stroke-width="0.6" opacity="1" d="M 42.5 279 Q 47.3 277.7 46 281 Q 40.1 280.1 38 284.5 L 38 287.5 L 33 295.5 L 33 302.5 L 36 311.5 L 40.5 316 L 46.5 317 L 56 310.5 Q 60.2 305.2 60 295.5 Q 58.9 286.1 52.5 282 L 48 281 Q 46.7 277.7 51.5 279 L 58 283.5 Q 63.7 289.8 62 303.5 Q 60.2 311.7 54.5 316 Q 51 320 42.5 319 L 35 314.5 Q 30.4 309.1 30 299.5 Q 30.8 285.8 39.5 280 L 42.5 279 Z " /><path fill="rgb(8,9,9)" stroke="rgb(8,9,9)" stroke-width="0.6" opacity="1" d="M 166.5 282 Q 176.7 282 181 287 Q 188.3 293.4 186 310.5 Q 183.3 320.3 175.5 325 Q 170.8 328.3 161.5 327 L 153 321.5 Q 146.8 315.2 148 301.5 L 155 287 L 166.5 282 Z M 167 284 L 160 287 L 151 300 Q 149 313 154 319 L 163 325 L 173 324 Q 181 319 184 308 Q 185 297 181 292 Q 177 284 167 284 Z " /><path fill="rgb(8,9,9)" stroke="rgb(8,9,9)" stroke-width="0.6" opacity="1" d="M 314.5 294 L 325.5 294 L 326 296 L 317.5 297 L 315.5 297 L 297.5 297 L 297 295 L 313.5 295 L 314.5 294 Z " /><path fill="rgb(8,9,9)" stroke="rgb(8,9,9)" stroke-width="0.6" opacity="1" d="M 274.5 295 L 287.5 295 L 288 297 L 275.5 297 L 272 299 L 274.5 295 Z " /><path fill="rgb(8,9,9)" stroke="rgb(8,9,9)" stroke-width="0.6" opacity="1" d="M 130 303 L 135 306.5 L 131 308.5 L 123.5 317 Q 116 323.5 102.5 324 Q 87.1 322.9 80 313.5 L 78 308.5 L 80 309.5 L 85.5 316 Q 92.6 322.9 108.5 321 Q 122.8 317.8 130 307.5 L 130 303 Z " /><path fill="rgb(8,9,9)" stroke="rgb(8,9,9)" stroke-width="0.6" opacity="1" d="M 426.5 341 L 431.5 341 L 440 347.5 L 441 350.5 L 438 348.5 L 434.5 344 L 425.5 343 L 418 349.5 L 415.5 354 L 415 351.5 L 423.5 342 L 426.5 341 Z " /><path fill="rgb(8,9,9)" stroke="rgb(8,9,9)" stroke-width="0.6" opacity="1" d="M 251.5 349 Q 261.4 349.1 265 355.5 L 269 366 Q 266 367.3 267 363.5 L 258.5 352 Q 244.2 349.7 241 358.5 L 238 367 L 236 365.5 L 244.5 352 L 251.5 349 Z " /><path fill="rgb(8,9,9)" stroke="rgb(8,9,9)" stroke-width="0.6" opacity="1" d="M 440.5 374 L 441 376.5 L 435.5 384 Q 432.6 388.1 424.5 387 L 416 380.5 L 415 377.5 L 418 379.5 L 420.5 383 Q 423.1 386.4 430.5 385 L 438 378.5 L 440.5 374 Z " /><path fill="rgb(8,9,9)" stroke="rgb(8,9,9)" stroke-width="0.6" opacity="1" d="M 266 383 L 268 384.5 Q 265.2 393.2 258.5 398 Q 254.9 400.9 247.5 400 L 239 393.5 L 237 387.5 L 239 388.5 L 245.5 397 L 254.5 398 L 262 392.5 L 266 383 Z " /><path fill="rgb(223,73,58)" stroke="rgb(223,73,58)" stroke-width="0.6" opacity="1" d="M 392.5 176 L 415.5 177 L 422 181.5 L 423 184.5 L 423 228.5 L 422 239.5 L 417.5 245 L 398.5 246 L 391.5 245 L 387 241.5 Q 384 235.5 385 225.5 L 386 224.5 L 386 184.5 Q 386.5 179 390.5 177 L 392.5 176 Z " /><path fill="rgb(223,73,58)" stroke="rgb(223,73,58)" stroke-width="0.6" opacity="1" d="M 443.5 180 L 464.5 181 L 471 185.5 L 472 187.5 L 472 236.5 Q 471.6 243.1 467.5 246 L 465.5 247 L 445.5 247 L 439 243.5 L 437 222.5 L 438 221.5 L 438 187.5 L 441.5 181 L 443.5 180 Z " /><path fill="rgb(223,73,58)" stroke="rgb(223,73,58)" stroke-width="0.6" opacity="1" d="M 264.5 193 Q 276.6 191.4 280 198.5 L 281 226.5 Q 280.6 235.1 275.5 239 Q 271.5 242 263.5 241 L 256 236.5 Q 253 230.5 254 220.5 L 256 201.5 L 261.5 194 L 264.5 193 Z " /><path fill="rgb(223,73,58)" stroke="rgb(223,73,58)" stroke-width="0.6" opacity="1" d="M 189.5 213 L 195 214.5 Q 196.5 220.5 193.5 222 L 189.5 223 Q 185.8 221.8 187 215.5 L 189.5 213 Z " /><path fill="rgb(223,73,58)" stroke="rgb(223,73,58)" stroke-width="0.6" opacity="1" d="M 43.5 285 L 50 288.5 Q 53.1 292.9 52 301.5 L 47.5 310 L 39.5 311 Q 33.3 307.3 34 296.5 L 40.5 286 L 43.5 285 Z " /><path fill="rgb(223,73,58)" stroke="rgb(223,73,58)" stroke-width="0.6" opacity="1" d="M 163.5 286 Q 176.4 284.1 180 291.5 Q 184 296.5 183 306.5 Q 180.9 316.9 173.5 322 Q 170.2 325.2 162.5 324 L 157 320.5 L 159.5 319 Q 161.8 322.2 168.5 321 L 175 316.5 Q 180.7 311.2 179 298.5 L 172.5 289 L 164.5 288 L 163.5 286 Z " /><path fill="rgb(223,73,58)" stroke="rgb(223,73,58)" stroke-width="0.6" opacity="1" d="M 163.5 291 Q 171.8 289.7 174 294.5 Q 176.9 299.1 176 307.5 L 169.5 317 L 162.5 318 L 159 315.5 Q 155.1 311.4 156 302.5 Q 157.4 294.4 163.5 291 Z " /><path fill="rgb(223,73,58)" stroke="rgb(223,73,58)" stroke-width="0.6" opacity="1" d="M 355.5 310 L 395.5 310 L 397 311.5 Q 389.6 318.6 386 329.5 L 381 350.5 L 381 360.5 L 379.5 362 L 295.5 367 L 294 365.5 Q 295.4 348.6 292 336.5 Q 287.5 321.3 279 311 L 354.5 311 L 355.5 310 Z " /><path fill="rgb(223,73,58)" stroke="rgb(223,73,58)" stroke-width="0.6" opacity="1" d="M 426.5 344 Q 436.1 342.9 438 349.5 Q 442.4 355.6 441 367.5 Q 439.6 378.1 432.5 383 L 424.5 384 L 418 378.5 Q 413.2 372.3 415 359.5 Q 416.9 350.9 422.5 346 L 426.5 344 Z M 428 354 L 422 361 L 423 371 Q 424 375 430 374 L 435 367 Q 436 360 433 357 L 428 354 Z " /><path fill="rgb(236,181,43)" stroke="rgb(236,181,43)" stroke-width="0.6" opacity="1" d="M 152.5 94 L 208 94.5 L 204 95 L 203.5 97 L 197 97 L 196.5 95 L 158 95 L 157.5 97 L 156.5 95 L 156 97 L 145 96 Q 146.4 100 139.5 98 L 135.5 99 L 131.5 98 L 131.5 100 L 125.5 99 L 122 100 L 120.5 102 L 117 104.5 L 119 105 Q 117.8 108 121.5 107 L 123 104 L 131 105 L 132.5 101 L 143.5 103 L 147 102 L 147.5 100 L 173 100 Q 171.8 103 175.5 102 L 178 103.5 L 175.5 104 L 157.5 102 L 131.5 105 L 118.5 108 Q 100.3 112.8 89 124.5 L 81.5 139 L 79 138 L 77.5 136 L 78 134.5 Q 82.9 118.4 95.5 110 L 116.5 100 L 152.5 94 Z M 111 103 L 109 106 L 106 107 L 108 110 L 111 108 L 113 109 Q 115 110 114 106 L 111 103 Z M 101 109 L 95 115 L 97 116 L 104 111 L 101 109 Z M 90 117 L 86 122 L 88 124 L 91 122 L 91 117 L 90 117 Z " /><path fill="rgb(236,181,43)" stroke="rgb(236,181,43)" stroke-width="0.6" opacity="1" d="M 212.5 95 L 238.5 96 L 241 97.5 L 239.5 98 L 237 97 Q 238.1 100.5 230.5 99 L 220 98 Q 221.1 94.3 212.5 96 L 212.5 95 Z " /><path fill="rgb(236,181,43)" stroke="rgb(236,181,43)" stroke-width="0.6" opacity="1" d="M 245.5 97 L 270 98.5 L 252 100 Q 253.1 96.5 245.5 98 L 245.5 97 Z " /><path fill="rgb(236,181,43)" stroke="rgb(236,181,43)" stroke-width="0.6" opacity="1" d="M 273.5 99 L 318 102.5 L 315.5 104 L 310 103 Q 311.4 106.7 305.5 105 L 300 104 Q 301.1 100.5 293.5 102 Q 292 99.5 290.5 103 Q 287.2 104.1 288 101.5 L 287 101.5 Q 287.8 104.1 284.5 103 L 277 102 Q 278.3 98.7 273.5 100 L 273.5 99 Z " /><path fill="rgb(236,181,43)" stroke="rgb(236,181,43)" stroke-width="0.6" opacity="1" d="M 183.5 102 L 190.5 102 L 192.5 104 L 196.5 105 L 201 104 Q 199.3 108.5 204.5 107 L 208 106 Q 206.3 110.5 211.5 109 L 214.5 108 L 223 112 Q 221.3 116.1 225.5 115 L 237 123.5 L 238 125.5 L 237 126.5 L 241 130.5 L 243 137.5 L 242 137.5 Q 239.1 125.9 230.5 120 L 214.5 111 L 181 103.5 L 183.5 102 Z " /><path fill="rgb(236,181,43)" stroke="rgb(236,181,43)" stroke-width="0.6" opacity="1" d="M 319.5 103 L 338 104.5 L 324 106 Q 325.4 102.3 319.5 104 L 319.5 103 Z " /><path fill="rgb(236,181,43)" stroke="rgb(236,181,43)" stroke-width="0.6" opacity="1" d="M 339.5 105 L 360 106.5 L 356.5 108 L 353 107 Q 354.3 110 350.5 109 L 345 108 Q 346.4 104 339.5 106 L 339.5 105 Z " /><path fill="rgb(236,181,43)" stroke="rgb(236,181,43)" stroke-width="0.6" opacity="1" d="M 361.5 107 L 394 110 L 392.5 112 L 386.5 113 L 382 112 Q 383.3 108.7 378.5 110 L 375 109 Q 376.1 112.3 372 111 L 370.5 109 L 365 110 Q 366.3 106.7 361.5 108 L 361.5 107 Z " /><path fill="rgb(236,181,43)" stroke="rgb(236,181,43)" stroke-width="0.6" opacity="1" d="M 144.5 108 L 177 108.5 L 173 109 Q 174.2 113 168 111 L 167.5 109 L 153 109 Q 154.2 113 148 111 L 146.5 109 L 139 110 Q 140.3 113.7 134.5 112 L 132.5 111 L 119 114 L 113.5 121 L 108.5 123 L 101 120.5 L 102.5 121 L 105 120.5 L 103 119.5 L 111.5 115 L 130.5 110 L 132.5 110 L 144.5 108 Z " /><path fill="rgb(236,181,43)" stroke="rgb(236,181,43)" stroke-width="0.6" opacity="1" d="M 180.5 109 L 190.5 111 L 192.5 111 L 197.5 111 L 206.5 115 L 216.5 117 Q 228.1 121.9 235 131.5 Q 241.3 140.2 239 157.5 L 238 157.5 L 237.5 156 L 235.5 157 L 227 153.5 L 231.5 152 L 235.5 154 L 238 153 L 236 140.5 L 237 138.5 L 234 137 L 235 133 L 231 130.5 L 229.5 128 Q 223.7 127.2 222 130.5 L 221 133.5 L 222 135.5 L 217 139.5 L 213.5 145 L 210 146.5 L 211 148.5 L 209.5 151 L 212 151.5 L 209.5 152 L 196 151 L 197 145.5 L 193 143 L 192 139 L 190 137.5 L 191 135 Q 187.3 136.2 189 131 Q 192.3 132.3 191 127.5 L 190.5 126 L 193 124.5 L 193.5 123 L 194 124.5 Q 190.2 127.7 192 136.5 L 198.5 145 L 205.5 147 L 215 141.5 Q 219.2 137.7 218 128.5 L 217 126 L 222.5 128 L 224 122 Q 219.2 123.9 220 120.5 Q 217.7 116.7 215.5 122 Q 211.9 117.6 204.5 117 L 198.5 120 L 198 118 L 193 115.5 L 192 112 L 187.5 111 L 182 112 L 180.5 110 L 180.5 109 Z " /><path fill="rgb(236,181,43)" stroke="rgb(236,181,43)" stroke-width="0.6" opacity="1" d="M 396.5 111 L 432.5 117 L 455 126.5 Q 453.5 129.5 452 126.5 L 450.5 125 L 448 126 L 446.5 123 L 440.5 122 L 438.5 122 L 437 121.5 L 437.5 120 L 434.5 119 L 431 120 L 429.5 118 L 425.5 117 L 423.5 118 L 418.5 115 L 415.5 117 L 412 116 Q 413.3 112.7 408.5 114 L 402.5 113 L 399 114 Q 400.3 111 396.5 112 L 396.5 111 Z " /><path fill="rgb(236,181,43)" stroke="rgb(236,181,43)" stroke-width="0.6" opacity="1" d="M 202.5 122 Q 210.1 120.9 212 125.5 L 214 133.5 L 209.5 141 L 201.5 142 L 198 139.5 Q 195 136.5 196 129.5 L 197 129.5 L 197 132 L 199 133.5 L 198 137 L 203 139.5 Q 202.2 142.1 205.5 141 L 210 138 L 211 129.5 L 208.5 126 L 201.5 125 L 197.5 128 L 197 126.5 L 202.5 122 Z " /><path fill="rgb(236,181,43)" stroke="rgb(236,181,43)" stroke-width="0.6" opacity="1" d="M 113.5 126 L 116 131 L 118 131.5 L 118 139 L 116 140.5 L 111 148.5 L 111.5 150 L 105.5 151 Q 102.5 149.5 105.5 148 L 114 141.5 L 116 133.5 L 113.5 126 Z " /><path fill="rgb(236,181,43)" stroke="rgb(236,181,43)" stroke-width="0.6" opacity="1" d="M 456.5 127 L 472 139.5 L 477 147.5 L 474.5 148 L 467 137 L 456 130.5 L 456.5 127 Z " /><path fill="rgb(236,181,43)" stroke="rgb(236,181,43)" stroke-width="0.6" opacity="1" d="M 91.5 129 L 92 131.5 Q 90.8 143.8 98.5 147 L 102 148.5 L 100.5 152 L 99 151.5 L 99.5 150 L 96 147.5 L 92 141 L 87 139 L 88 144 L 85 145.5 Q 84 152 88.5 153 L 91.5 151 L 94.5 150 Q 97.5 151.5 94.5 153 L 84 156 Q 82.9 138.2 91.5 129 Z " /><path fill="rgb(236,181,43)" stroke="rgb(236,181,43)" stroke-width="0.6" opacity="1" d="M 76.5 137 L 77 139 L 81 140 L 78.5 158 L 77.5 154 L 75.5 154 L 73.5 153 L 73 157.5 L 75.5 163 L 77 160 L 79 161.5 L 76 165.5 L 72 178.5 L 73 180.5 L 70 192.5 L 71 194.5 Q 69 199 67 195.5 L 68 192.5 L 67 190.5 L 68.5 185 L 69.5 190 L 71 181.5 L 69.5 182 L 68 181.5 L 70.5 167 L 73.5 168 L 75 166.5 L 72.5 163 Q 69.1 163.9 71 158.5 L 74.5 144 L 75.5 147 L 77.5 146 L 79 146.5 L 78.5 144 L 77 144.5 L 75 143 L 75 140.5 L 76.5 137 Z " /><path fill="rgb(236,181,43)" stroke="rgb(236,181,43)" stroke-width="0.6" opacity="1" d="M 243.5 139 L 246 140 L 245 148 Q 249 146.6 247 153.5 L 246 159 L 243 160.5 L 244.5 163 L 247 164.5 L 249 171 L 247 171.5 L 247 190 L 252.5 193 L 256 190.5 L 261.5 176 L 262 178.5 L 261 187.5 L 257.5 191 L 254 193.5 L 250 203.5 L 249 231.5 L 251 236.5 Q 245.3 238.8 245 246.5 L 248.5 251 L 250.5 252 L 258.5 246 L 260 247.5 L 260 278.5 L 259 279.5 L 259 298.5 L 257.5 300 L 251.5 299 L 240.5 302 L 240 298 L 247 299 Q 245.9 295.3 254.5 297 L 256 291 L 258 290.5 L 258 273.5 L 259 272.5 L 259 251.5 L 258 251.5 L 257.5 258 L 254.5 257 L 245 250.5 Q 246.5 246.1 243.5 247 L 239.5 250 L 240 248.5 L 245 218.5 L 245 216.5 L 246 170.5 L 242 160.5 Q 245.4 154.4 244 143.5 L 243.5 139 Z M 248 232 L 244 233 L 243 240 L 245 239 L 247 240 L 249 236 Q 250 231 248 232 Z " /><path fill="rgb(236,181,43)" stroke="rgb(236,181,43)" stroke-width="0.6" opacity="1" d="M 123.5 146 L 183.5 146 L 188 147 L 189 149.5 L 181.5 150 L 180.5 149 L 142.5 148 L 117.5 150 L 118 148.5 Q 117.1 145.1 122.5 147 L 123.5 146 Z " /><path fill="rgb(236,181,43)" stroke="rgb(236,181,43)" stroke-width="0.6" opacity="1" d="M 269.5 146 L 272.5 147 L 278.5 146 L 285 147.5 L 277.5 148 L 275.5 147 L 268.5 150 L 269 148.5 L 269.5 146 Z " /><path fill="rgb(236,181,43)" stroke="rgb(236,181,43)" stroke-width="0.6" opacity="1" d="M 291.5 146 Q 301.8 144.2 306 148.5 L 304.5 150 L 291.5 149 L 289 147.5 L 291.5 146 Z " /><path fill="rgb(236,181,43)" stroke="rgb(236,181,43)" stroke-width="0.6" opacity="1" d="M 218.5 148 L 225 151.5 L 226 153.5 L 223.5 154 L 216 151.5 L 218.5 148 Z " /><path fill="rgb(236,181,43)" stroke="rgb(236,181,43)" stroke-width="0.6" opacity="1" d="M 317.5 148 L 329.5 148 L 331.5 150 L 336 151.5 L 330.5 152 L 316 151 L 317.5 148 Z " /><path fill="rgb(236,181,43)" stroke="rgb(236,181,43)" stroke-width="0.6" opacity="1" d="M 477.5 149 Q 481.8 154 482 162 L 480 162.5 L 480.5 164 L 464.5 163 L 463 161.5 Q 465.7 158.7 472.5 160 L 476.5 161 L 479 153.5 L 476 152.5 L 477.5 149 Z " /><path fill="rgb(236,181,43)" stroke="rgb(236,181,43)" stroke-width="0.6" opacity="1" d="M 344.5 150 Q 353.5 148.5 357.5 152 L 360 151 Q 358.6 154.7 364.5 153 L 364.5 154 L 345.5 153 L 341 151.5 L 344.5 150 Z " /><path fill="rgb(236,181,43)" stroke="rgb(236,181,43)" stroke-width="0.6" opacity="1" d="M 265.5 151 L 265 152.5 Q 260.6 160.6 261.5 174 L 260.5 163 L 259.5 166 L 259 163.5 L 260 157 L 263 155.5 L 262 153.5 L 265.5 151 Z " /><path fill="rgb(236,181,43)" stroke="rgb(236,181,43)" stroke-width="0.6" opacity="1" d="M 368.5 152 L 381.5 152 L 382 154.5 L 382.5 156 L 367 155 L 368.5 152 Z " /><path fill="rgb(236,181,43)" stroke="rgb(236,181,43)" stroke-width="0.6" opacity="1" d="M 394.5 154 L 403.5 154 L 405.5 156 L 408 155 Q 406.6 158.7 412.5 157 L 412.5 158 L 390 155.5 L 394.5 154 Z " /><path fill="rgb(236,181,43)" stroke="rgb(236,181,43)" stroke-width="0.6" opacity="1" d="M 418.5 156 L 427 156 L 429 159.5 L 427.5 159 L 416.5 159 L 416 157 L 418.5 156 Z " /><path fill="rgb(236,181,43)" stroke="rgb(236,181,43)" stroke-width="0.6" opacity="1" d="M 441.5 158 Q 451 156 454.5 160 L 457 159 Q 455.7 162.3 460.5 161 L 460.5 162 L 441.5 161 L 439 159.5 L 441.5 158 Z " /><path fill="rgb(236,181,43)" stroke="rgb(236,181,43)" stroke-width="0.6" opacity="1" d="M 283.5 168 L 295 168.5 L 291 169 L 291 171 L 285 171 L 283.5 169 L 283.5 168 Z " /><path fill="rgb(236,181,43)" stroke="rgb(236,181,43)" stroke-width="0.6" opacity="1" d="M 280.5 169 L 282 169.5 L 280 175 L 277.5 176 L 277 173.5 L 280.5 169 Z " /><path fill="rgb(236,181,43)" stroke="rgb(236,181,43)" stroke-width="0.6" opacity="1" d="M 301.5 169 Q 310.5 168.5 314 173.5 Q 317.8 180.7 316 193.5 L 315 194.5 L 315 224.5 L 314 226.5 L 314 228.5 Q 315.7 237.2 311.5 240 L 310 236.5 L 311.5 234 L 313 234.5 L 312 191 L 314 190.5 L 314 181.5 L 309.5 173 L 302 172 L 301.5 169 Z " /><path fill="rgb(236,181,43)" stroke="rgb(236,181,43)" stroke-width="0.6" opacity="1" d="M 276.5 177 Q 280.9 178.6 280 185.5 L 279 190 L 285 193.5 L 286.5 197 L 289 198.5 L 287 201.5 L 288 202.5 L 288 218.5 L 287 218.5 L 286 198.5 L 280.5 191 L 277 190 L 276 185.5 L 277 181.5 L 276.5 177 Z " /><path fill="rgb(236,181,43)" stroke="rgb(236,181,43)" stroke-width="0.6" opacity="1" d="M 46 182 Q 57.2 179.6 61 185.5 L 59.5 206 L 59 198 Q 55.7 199.3 57 194.5 L 58 189 L 60 188.5 L 56.5 185 Q 48.3 187.3 46 183.5 L 46 182 Z " /><path fill="rgb(236,181,43)" stroke="rgb(236,181,43)" stroke-width="0.6" opacity="1" d="M 43.5 183 L 45 186.5 L 38.5 191 L 39 189.5 L 43.5 183 Z " /><path fill="rgb(236,181,43)" stroke="rgb(236,181,43)" stroke-width="0.6" opacity="1" d="M 38.5 193 L 41 202.5 L 39.5 205 L 38 204.5 L 38 209.5 Q 41.3 208.5 40 214.5 L 39 218.5 L 41.5 219 L 43 220.5 L 43.5 223 L 56 219 L 56 210.5 L 58 208.5 L 59 208.5 L 58 223 Q 53.8 225.5 43.5 224 L 39 220.5 L 37 215.5 L 37 194.5 L 38.5 193 Z " /><path fill="rgb(236,181,43)" stroke="rgb(236,181,43)" stroke-width="0.6" opacity="1" d="M 67.5 198 L 68.5 201 L 69.5 198 L 70 202.5 L 68 207.5 L 67 238.5 Q 67.5 244.1 71.5 246 L 132 249.5 L 128.5 251 L 106.5 251 L 105.5 250 L 78 250 Q 79.4 246 72.5 248 L 67 244.5 L 65 241.5 L 63 241.5 L 64.5 225 L 65.5 231 L 67 217.5 L 66 217.5 Q 67.7 223.3 64 222 L 65 219.5 L 65 217.5 L 66 200.5 L 67.5 198 Z " /><path fill="rgb(236,181,43)" stroke="rgb(236,181,43)" stroke-width="0.6" opacity="1" d="M 286.5 221 L 287 225 Q 290.5 223.9 289 231.5 L 286 233 L 285 236.5 L 285.5 240 L 282 239.5 Q 287.2 233.2 286.5 221 Z " /><path fill="rgb(236,181,43)" stroke="rgb(236,181,43)" stroke-width="0.6" opacity="1" d="M 295.5 239 L 307.5 240 L 310 241.5 L 306.5 243 L 290.5 243 L 282 241.5 L 295.5 239 Z " /><path fill="rgb(236,181,43)" stroke="rgb(236,181,43)" stroke-width="0.6" opacity="1" d="M 59.5 248 L 58 250.5 L 57 254 L 50 256 L 49 260 L 47 260 L 45 263.5 L 40 267 L 35.5 277 L 33 275.5 Q 38.6 262.6 49.5 255 L 59.5 248 Z " /><path fill="rgb(236,181,43)" stroke="rgb(236,181,43)" stroke-width="0.6" opacity="1" d="M 136.5 249 L 163.5 250 L 232.5 256 L 237 254 L 238.5 251 L 238 252.5 L 236.5 255 L 233 257.5 L 232.5 259 L 222.5 259 L 219 258 Q 220.1 254.5 212.5 256 L 207 257 Q 208.3 253.3 202.5 255 L 199 256 Q 200.1 252.5 192.5 254 L 181.5 255 L 172 254 Q 173 251 170 252 Q 171 255 168 254 Q 169.4 250 162.5 252 L 154 253 Q 155.1 249.2 146.5 251 L 144 252 Q 145.1 248.2 136.5 250 L 136.5 249 Z " /><path fill="rgb(236,181,43)" stroke="rgb(236,181,43)" stroke-width="0.6" opacity="1" d="M 44.5 274 L 51.5 274 L 57 278 L 62 286 L 65 287.5 L 66 294.5 L 65 299.5 L 66 305 L 63 306.5 L 64 310 Q 59.9 308.3 61 312.5 L 59 317 L 55 316.5 Q 63.6 310.6 64 296.5 Q 62.6 284.4 54.5 279 L 44.5 277 L 42.5 278 L 43 276.5 L 44.5 274 Z " /><path fill="rgb(236,181,43)" stroke="rgb(236,181,43)" stroke-width="0.6" opacity="1" d="M 32.5 277 L 35.5 281 L 38.5 277 L 41 278.5 L 34 283.5 L 30 295 L 27.5 296 L 28 294.5 Q 28.1 283.6 32.5 277 Z " /><path fill="rgb(236,181,43)" stroke="rgb(236,181,43)" stroke-width="0.6" opacity="1" d="M 165 278 Q 171.9 276 174 279.5 L 175.5 281 L 178 281.5 L 177.5 284 Q 174 279.5 164.5 281 L 162.5 282 L 163.5 280 L 165 278 Z " /><path fill="rgb(236,181,43)" stroke="rgb(236,181,43)" stroke-width="0.6" opacity="1" d="M 51.5 283 L 58 291.5 L 58 303.5 L 57 303.5 L 56.5 302 L 55 302.5 L 56 295.5 L 53 286 L 50 284.5 L 51.5 283 Z " /><path fill="rgb(236,181,43)" stroke="rgb(236,181,43)" stroke-width="0.6" opacity="1" d="M 182.5 287 L 185 288 L 189 294.5 L 188 297 Q 191 295.8 190 299.5 L 189 304.5 L 190 310 L 187 311.5 L 188 314.5 L 185 316.5 Q 185.4 322.9 181.5 325 L 178 324.5 Q 187.9 317.4 188 300.5 L 182.5 287 Z " /><path fill="rgb(236,181,43)" stroke="rgb(236,181,43)" stroke-width="0.6" opacity="1" d="M 146.5 295 L 149 295.5 Q 145.4 300.9 147 311.5 L 151 320.5 L 149.5 321 L 146 316.5 L 147 312.5 L 144 311 L 143 303.5 L 146 302 L 147 296.5 L 146.5 295 Z " /><path fill="rgb(236,181,43)" stroke="rgb(236,181,43)" stroke-width="0.6" opacity="1" d="M 130.5 299 L 135 301 L 138.5 307 L 140 307.5 L 137.5 308 L 136 305 L 129.5 301 L 128 301.5 L 130.5 299 Z " /><path fill="rgb(236,181,43)" stroke="rgb(236,181,43)" stroke-width="0.6" opacity="1" d="M 127.5 303 L 129 306.5 L 125.5 311 L 114.5 318 L 114 316 L 118 314.5 L 119.5 312 L 126 308 L 127.5 303 Z " /><path fill="rgb(236,181,43)" stroke="rgb(236,181,43)" stroke-width="0.6" opacity="1" d="M 27.5 304 L 28.5 306 L 29.5 304 Q 31 313.5 37.5 318 L 39 318.5 L 34.5 319 L 30.5 311 L 28.5 311 L 27 310.5 L 27.5 304 Z " /><path fill="rgb(236,181,43)" stroke="rgb(236,181,43)" stroke-width="0.6" opacity="1" d="M 76.5 304 L 76 307.5 Q 78.4 316.1 85.5 320 L 87 320.5 L 82.5 323 L 77 314.5 L 77 311 L 73.5 312 Q 70.3 310.3 74 308.5 L 76.5 304 Z " /><path fill="rgb(236,181,43)" stroke="rgb(236,181,43)" stroke-width="0.6" opacity="1" d="M 230.5 304 L 233 304.5 L 219 315.5 L 211 326.5 L 202.5 343 L 141 342.5 L 144.5 341 L 152 342 L 152.5 340 L 195.5 340 L 197.5 339 L 200.5 341 L 205 338.5 L 204 334.5 L 207.5 330 L 209 328.5 L 209.5 326 Q 212.5 326.9 211 322.5 L 215 320 Q 216.6 312 223.5 308 L 230.5 304 Z " /><path fill="rgb(236,181,43)" stroke="rgb(236,181,43)" stroke-width="0.6" opacity="1" d="M 54.5 305 L 57 305.5 L 51.5 314 L 43 316 Q 41.7 312.7 46.5 314 L 54 307.5 L 54.5 305 Z " /><path fill="rgb(236,181,43)" stroke="rgb(236,181,43)" stroke-width="0.6" opacity="1" d="M 79.5 305 L 83 307.5 L 89.5 316 L 93.5 317 L 96.5 316 L 98 319.5 L 96.5 319 Q 84.9 317.1 80 308.5 L 79.5 305 Z " /><path fill="rgb(236,181,43)" stroke="rgb(236,181,43)" stroke-width="0.6" opacity="1" d="M 245.5 305 Q 257.3 303.7 264.5 307 L 280 320.5 L 285 332 Q 280.9 333.7 282 329.5 L 278 321 L 271 315.5 L 269 312.5 L 268 310 L 263 310 L 263 308.5 L 261.5 309 L 255 307.5 L 255.5 306 L 247.5 306 L 245.5 308 L 229 314 L 227.5 317 L 225 316.5 Q 232.3 307.8 245.5 305 Z " /><path fill="rgb(236,181,43)" stroke="rgb(236,181,43)" stroke-width="0.6" opacity="1" d="M 132.5 309 L 135 309.5 L 131.5 315 Q 128.2 313.9 129 316.5 L 124 320 L 122.5 322 L 120 321.5 L 121.5 319 L 130 312.5 L 132.5 309 Z " /><path fill="rgb(236,181,43)" stroke="rgb(236,181,43)" stroke-width="0.6" opacity="1" d="M 108.5 316 Q 111.8 314.9 111 317.5 L 111.5 319 L 104.5 320 L 105 318.5 Q 104.2 315.9 107.5 317 L 108.5 316 Z " /><path fill="rgb(236,181,43)" stroke="rgb(236,181,43)" stroke-width="0.6" opacity="1" d="M 53.5 318 L 52.5 320 L 51 321.5 L 46.5 324 L 41 323 L 40 319.5 L 41.5 320 Q 49.8 321.3 53.5 318 Z " /><path fill="rgb(236,181,43)" stroke="rgb(236,181,43)" stroke-width="0.6" opacity="1" d="M 223.5 318 L 224 321 L 222 322.5 L 218.5 327 L 217 328.5 L 218 332.5 L 216 339 L 221.5 340 L 225 337.5 L 227.5 334 L 232 330.5 L 236.5 324 L 240 325 L 240.5 323 L 243 324.5 L 229 334.5 Q 221.1 343.1 217.5 356 L 216 351 Q 220.1 352.7 219 348.5 L 216.5 345 L 214 343.5 L 215 341.5 L 212.5 338 L 211 340.5 L 211.5 342 L 209.5 343 L 209 341.5 Q 213.8 327.3 223.5 318 Z " /><path fill="rgb(236,181,43)" stroke="rgb(236,181,43)" stroke-width="0.6" opacity="1" d="M 27.5 320 L 31 322.5 L 30 326.5 Q 31.3 330 36 329 Q 34.7 332.3 39.5 331 L 42.5 329 L 47 330 L 45.5 334 L 29.5 331 L 27 328.5 L 27.5 320 Z " /><path fill="rgb(236,181,43)" stroke="rgb(236,181,43)" stroke-width="0.6" opacity="1" d="M 261 320 L 266.5 322 L 269.5 321 L 272.5 325 L 278 327.5 L 277 330.5 L 279 336 L 282 337.5 L 282.5 341 L 285.5 333 L 290 355 L 287.5 354 L 286.5 358 Q 283.8 337.2 270.5 327 L 260 322.5 L 261 320 Z " /><path fill="rgb(236,181,43)" stroke="rgb(236,181,43)" stroke-width="0.6" opacity="1" d="M 89 322 Q 95.5 325.9 107.5 325 L 117 322 L 117 324 Q 112.2 322.1 113 325.5 L 108.5 328 Q 106.8 324.3 99.5 326 L 96.5 328 L 93 325.5 L 91.5 324 L 89 325 L 89 322 Z " /><path fill="rgb(236,181,43)" stroke="rgb(236,181,43)" stroke-width="0.6" opacity="1" d="M 156 326 Q 159.7 329.7 168.5 329 L 176 326 L 174.5 329 L 172.5 328 Q 174.3 330.5 169.5 333 L 166.5 334 L 156 327.5 L 156 326 Z " /><path fill="rgb(236,181,43)" stroke="rgb(236,181,43)" stroke-width="0.6" opacity="1" d="M 55.5 332 L 65 333 Q 63.6 336.7 69.5 335 L 75 334 Q 74 337 77 336 Q 75.8 333 79.5 334 L 83 335 Q 81.9 338.8 90.5 337 Q 92.2 334.2 97.5 335 L 106 337 Q 104.9 340.8 113.5 339 L 125.5 338 L 132 339 Q 130.6 343 137.5 341 L 137.5 342 L 112.5 341 L 102.5 339 L 100.5 339 Q 74.7 338.8 53 334.5 L 55.5 332 Z " /><path fill="rgb(236,181,43)" stroke="rgb(236,181,43)" stroke-width="0.6" opacity="1" d="M 486.5 333 L 489 334.5 L 490 337.5 L 487.5 338 L 484 336.5 L 486.5 333 Z " /><path fill="rgb(236,181,43)" stroke="rgb(236,181,43)" stroke-width="0.6" opacity="1" d="M 479.5 339 L 479 340.5 L 477.5 344 L 473.5 343 Q 469.8 345.3 472 353.5 L 478 357.5 Q 478.4 360.8 470.5 359 L 469 357.5 L 469 342.5 L 472.5 340 L 479.5 339 Z " /><path fill="rgb(236,181,43)" stroke="rgb(236,181,43)" stroke-width="0.6" opacity="1" d="M 208.5 344 L 210 349 Q 214 347.6 212 354.5 L 217 357 L 214 369.5 L 210.5 373 L 209 372.5 L 209 362.5 L 210 352.5 L 208.5 344 Z " /><path fill="rgb(236,181,43)" stroke="rgb(236,181,43)" stroke-width="0.6" opacity="1" d="M 488.5 348 L 490 349.5 L 485.5 357 L 480.5 358 L 480.5 357 L 482 355.5 L 486 352.5 Q 484.5 348.1 487.5 349 L 488.5 348 Z " /><path fill="rgb(236,181,43)" stroke="rgb(236,181,43)" stroke-width="0.6" opacity="1" d="M 428.5 358 Q 432.8 359.8 431 367.5 L 426 370 L 425 365 Q 428 366 427 363 L 425 362.5 L 426 359 L 428.5 358 Z " /><path fill="rgb(236,181,43)" stroke="rgb(236,181,43)" stroke-width="0.6" opacity="1" d="M 213.5 378 L 215 378.5 L 215 388.5 L 217 396 Q 212.5 397.8 214 392.5 L 212 388.5 L 211 379.5 L 213.5 378 Z " /><path fill="rgb(236,181,43)" stroke="rgb(236,181,43)" stroke-width="0.6" opacity="1" d="M 201.5 385 L 203 386.5 L 199 389 L 200.5 393 L 203 393.5 L 200.5 397 L 198 387 L 201.5 385 Z " /><path fill="rgb(236,181,43)" stroke="rgb(236,181,43)" stroke-width="0.6" opacity="1" d="M 217.5 397 Q 220.8 408.8 229 415.5 L 225.5 417 Q 211 414.5 204 404.5 L 201 398 L 204 399.5 L 203 401.5 L 212 408 Q 210.5 411.7 213.5 411 L 215.5 411 Q 221.2 412.8 219 406.5 L 216 401.5 L 217.5 397 Z " /><path fill="rgb(28,29,31)" stroke="rgb(28,29,31)" stroke-width="0.6" opacity="1" d="M 150.5 104 Q 155.5 103 154.5 106 L 166.5 106 L 166.5 107 L 153.5 107 Q 154.5 104.3 150.5 105 L 150.5 104 Z " /><path fill="rgb(28,29,31)" stroke="rgb(28,29,31)" stroke-width="0.6" opacity="1" d="M 107.5 123 L 112 126.5 L 109.5 125 L 106.5 126 L 106.5 125 L 108 124.5 L 107.5 123 Z " /><path fill="rgb(28,29,31)" stroke="rgb(28,29,31)" stroke-width="0.6" opacity="1" d="M 240 144 L 243 144.5 L 243 154 Q 239.3 155.1 241 146.5 L 240 144 Z " /><path fill="rgb(28,29,31)" stroke="rgb(28,29,31)" stroke-width="0.6" opacity="1" d="M 285 149 L 289 150.5 Q 289.9 153.5 285.5 152 L 282.5 153 L 279 151.5 L 285 151 L 285 149 Z " /><path fill="rgb(28,29,31)" stroke="rgb(28,29,31)" stroke-width="0.6" opacity="1" d="M 142.5 150 L 157 150.5 L 142.5 151 L 142.5 150 Z " /><path fill="rgb(28,29,31)" stroke="rgb(28,29,31)" stroke-width="0.6" opacity="1" d="M 401 158 L 405 159 L 403.5 161 L 401.5 162 L 397 160.5 L 401 160 L 401 158 Z " /><path fill="rgb(28,29,31)" stroke="rgb(28,29,31)" stroke-width="0.6" opacity="1" d="M 244.5 171 L 245 192.5 L 244 192.5 L 244.5 171 Z " /><path fill="rgb(28,29,31)" stroke="rgb(28,29,31)" stroke-width="0.6" opacity="1" d="M 241 175 L 243 175.5 L 243 191.5 L 241.5 194 L 241 183.5 L 242 177.5 L 241 175 Z " /><path fill="rgb(28,29,31)" stroke="rgb(28,29,31)" stroke-width="0.6" opacity="1" d="M 316.5 176 L 317 198 Q 320.8 196.9 319 205.5 L 318 208 L 316 207.5 L 316.5 176 Z " /><path fill="rgb(28,29,31)" stroke="rgb(28,29,31)" stroke-width="0.6" opacity="1" d="M 372.5 192 L 373 203.5 L 372 203.5 L 372.5 192 Z " /><path fill="rgb(28,29,31)" stroke="rgb(28,29,31)" stroke-width="0.6" opacity="1" d="M 181.5 196 Q 189.1 194.5 188 198 L 179.5 199 L 178 198.5 L 176.5 201 Q 173.5 199.5 176.5 198 L 181.5 196 Z " /><path fill="rgb(28,29,31)" stroke="rgb(28,29,31)" stroke-width="0.6" opacity="1" d="M 329 196 L 331 196.5 L 331 207.5 L 330 212 L 328 211.5 L 328 202.5 L 329 196 Z " /><path fill="rgb(28,29,31)" stroke="rgb(28,29,31)" stroke-width="0.6" opacity="1" d="M 104.5 197 L 106 198.5 L 100 204.5 Q 101 208.3 98 207 L 98 204.5 L 104.5 197 Z " /><path fill="rgb(28,29,31)" stroke="rgb(28,29,31)" stroke-width="0.6" opacity="1" d="M 485.5 205 L 486 225.5 L 485 225.5 L 484 208.5 L 485.5 205 Z " /><path fill="rgb(28,29,31)" stroke="rgb(28,29,31)" stroke-width="0.6" opacity="1" d="M 383 210 L 385 210.5 L 385 238 L 382 236.5 Q 380.5 232.1 383.5 233 L 383.5 232 L 382 231.5 L 382 217.5 L 383 210 Z " /><path fill="rgb(28,29,31)" stroke="rgb(28,29,31)" stroke-width="0.6" opacity="1" d="M 285.5 215 L 286 218.5 L 284.5 227 L 284 218.5 L 285.5 215 Z " /><path fill="rgb(28,29,31)" stroke="rgb(28,29,31)" stroke-width="0.6" opacity="1" d="M 434 216 L 437 216.5 L 437 226.5 L 436 226.5 Q 437 221.5 434 222.5 L 434 216 Z " /><path fill="rgb(28,29,31)" stroke="rgb(28,29,31)" stroke-width="0.6" opacity="1" d="M 424 226 Q 427.5 224.9 426 232.5 L 425 235 Q 421.7 236.3 423 231.5 L 424 226 Z " /><path fill="rgb(28,29,31)" stroke="rgb(28,29,31)" stroke-width="0.6" opacity="1" d="M 165 227 Q 168.3 225.7 167 230.5 L 170 236 L 173.5 238 L 174.5 240 L 168 234.5 L 165 227 Z " /><path fill="rgb(28,29,31)" stroke="rgb(28,29,31)" stroke-width="0.6" opacity="1" d="M 330.5 233 L 332 239.5 L 331 239.5 L 329.5 238 L 328 238.5 L 330.5 233 Z " /><path fill="rgb(28,29,31)" stroke="rgb(28,29,31)" stroke-width="0.6" opacity="1" d="M 79.5 243 L 100 243.5 L 79.5 244 L 79.5 243 Z " /><path fill="rgb(28,29,31)" stroke="rgb(28,29,31)" stroke-width="0.6" opacity="1" d="M 260.5 244 L 262 250 Q 265 248.8 264 252.5 L 263 256 L 261 255.5 L 261 245.5 L 260.5 244 Z " /><path fill="rgb(28,29,31)" stroke="rgb(28,29,31)" stroke-width="0.6" opacity="1" d="M 303 260 L 311.5 260 L 313 261.5 L 312.5 263 L 300.5 263 L 300.5 262 Q 304.3 263 303 260 Z " /><path fill="rgb(28,29,31)" stroke="rgb(28,29,31)" stroke-width="0.6" opacity="1" d="M 356 261 L 372.5 261 L 376 262 L 375.5 264 L 364.5 264 L 356 263 L 356 261 Z " /><path fill="rgb(28,29,31)" stroke="rgb(28,29,31)" stroke-width="0.6" opacity="1" d="M 431.5 261 Q 435.5 260.3 434.5 263 L 439 263 L 439 265 L 417 264 L 417.5 262 L 430.5 262 L 431.5 261 Z " /><path fill="rgb(28,29,31)" stroke="rgb(28,29,31)" stroke-width="0.6" opacity="1" d="M 272.5 263 L 274 265.5 L 273 273 Q 269.5 274.1 271 266.5 L 272.5 263 Z " /><path fill="rgb(28,29,31)" stroke="rgb(28,29,31)" stroke-width="0.6" opacity="1" d="M 297 276 L 321 276.5 L 313 277 L 312.5 279 L 281.5 279 L 281.5 278 L 296.5 278 L 297 276 Z " /><path fill="rgb(28,29,31)" stroke="rgb(28,29,31)" stroke-width="0.6" opacity="1" d="M 436 277 L 465 278 L 464.5 280 L 410.5 280 L 410.5 279 L 435.5 279 L 436 277 Z " /><path fill="rgb(28,29,31)" stroke="rgb(28,29,31)" stroke-width="0.6" opacity="1" d="M 466 278 L 482.5 278 L 483 279.5 L 483.5 281 L 482.5 280 L 466 280 L 466 278 Z " /><path fill="rgb(28,29,31)" stroke="rgb(28,29,31)" stroke-width="0.6" opacity="1" d="M 171.5 290 L 176 293.5 L 178 299 L 176 297.5 L 174 292 L 171.5 290 Z " /><path fill="rgb(28,29,31)" stroke="rgb(28,29,31)" stroke-width="0.6" opacity="1" d="M 276.5 294 L 314 294.5 L 297 295 L 296.5 297 L 288 297 L 287.5 295 L 276.5 295 L 276.5 294 Z " /><path fill="rgb(28,29,31)" stroke="rgb(28,29,31)" stroke-width="0.6" opacity="1" d="M 326 294 Q 334.1 292.6 333.5 296 L 377.5 296 L 377.5 297 L 321 296.5 L 326 296 L 326 294 Z " /><path fill="rgb(28,29,31)" stroke="rgb(28,29,31)" stroke-width="0.6" opacity="1" d="M 403.5 305 L 402.5 307 L 390 306.5 L 403.5 305 Z " /><path fill="rgb(28,29,31)" stroke="rgb(28,29,31)" stroke-width="0.6" opacity="1" d="M 51.5 306 L 51 307.5 L 48.5 312 L 46 311.5 L 51.5 306 Z " /><path fill="rgb(28,29,31)" stroke="rgb(28,29,31)" stroke-width="0.6" opacity="1" d="M 470 306 L 481.5 306 L 482 307.5 L 482.5 309 L 470 308 L 470 306 Z " /><path fill="rgb(28,29,31)" stroke="rgb(28,29,31)" stroke-width="0.6" opacity="1" d="M 343.5 309 L 355 309.5 L 343.5 310 L 343.5 309 Z " /><path fill="rgb(28,29,31)" stroke="rgb(28,29,31)" stroke-width="0.6" opacity="1" d="M 440.5 348 L 443 356 Q 440 357.3 441 353.5 L 439 350.5 L 440.5 348 Z " /><path fill="rgb(28,29,31)" stroke="rgb(28,29,31)" stroke-width="0.6" opacity="1" d="M 427.5 355 L 432 357.5 L 434 360.5 L 432 361 L 429.5 357 L 424.5 360 L 425 358.5 L 427.5 355 Z " /><path fill="rgb(28,29,31)" stroke="rgb(28,29,31)" stroke-width="0.6" opacity="1" d="M 397.5 361 L 399 368.5 L 398 371 Q 394 372.4 396 365.5 L 397.5 361 Z " /><path fill="rgb(28,29,31)" stroke="rgb(28,29,31)" stroke-width="0.6" opacity="1" d="M 267.5 366 L 269 367.5 L 270 376.5 L 267.5 383 L 267 378.5 L 268 367.5 L 267.5 366 Z " /><path fill="rgb(28,29,31)" stroke="rgb(28,29,31)" stroke-width="0.6" opacity="1" d="M 150.5 383 L 180 383.5 L 150.5 384 L 150.5 383 Z " /><path fill="rgb(76,77,72)" stroke="rgb(76,77,72)" stroke-width="0.6" opacity="1" d="M 167.5 87 L 190 87.5 L 167.5 88 L 167.5 87 Z " /><path fill="rgb(76,77,72)" stroke="rgb(76,77,72)" stroke-width="0.6" opacity="1" d="M 109 139 L 111 140.5 L 104 145 Q 102.8 142 106.5 143 L 109 139 Z " /><path fill="rgb(76,77,72)" stroke="rgb(76,77,72)" stroke-width="0.6" opacity="1" d="M 141.5 149 L 158 149.5 L 141.5 150 L 141.5 149 Z " /><path fill="rgb(76,77,72)" stroke="rgb(76,77,72)" stroke-width="0.6" opacity="1" d="M 479 167 Q 483.8 165.1 483 168.5 L 485 173 Q 482 174.3 483 170.5 L 479 169 L 479 167 Z " /><path fill="rgb(76,77,72)" stroke="rgb(76,77,72)" stroke-width="0.6" opacity="1" d="M 426 184 L 428 184.5 L 428 207 L 426 206.5 L 426 184 Z " /><path fill="rgb(76,77,72)" stroke="rgb(76,77,72)" stroke-width="0.6" opacity="1" d="M 433 188 L 435 188.5 L 435 204 L 433 203.5 L 433 188 Z " /><path fill="rgb(76,77,72)" stroke="rgb(76,77,72)" stroke-width="0.6" opacity="1" d="M 96.5 208 L 97 211 L 99 212.5 L 98 216 L 96 216 Q 97.9 220.8 94.5 220 L 95 218.5 L 94 215.5 L 97 214 L 95.5 212 L 96 210.5 L 96.5 208 Z " /><path fill="rgb(76,77,72)" stroke="rgb(76,77,72)" stroke-width="0.6" opacity="1" d="M 475 208 L 477 208.5 L 477 227 L 475 226.5 L 475 208 Z " /><path fill="rgb(76,77,72)" stroke="rgb(76,77,72)" stroke-width="0.6" opacity="1" d="M 370 211 L 372 211.5 L 372 226 L 370 225.5 L 370 211 Z " /><path fill="rgb(76,77,72)" stroke="rgb(76,77,72)" stroke-width="0.6" opacity="1" d="M 472.5 218 L 473 228.5 L 472 228.5 L 472.5 218 Z " /><path fill="rgb(76,77,72)" stroke="rgb(76,77,72)" stroke-width="0.6" opacity="1" d="M 326 221 L 328 221.5 L 328 234 L 326 233.5 L 326 221 Z " /><path fill="rgb(76,77,72)" stroke="rgb(76,77,72)" stroke-width="0.6" opacity="1" d="M 94.5 222 L 98 223 L 99 227.5 Q 95.5 229 98 230.5 L 99 232.5 L 97 231.5 L 96 227.5 L 97 225 L 95 223.5 L 94.5 222 Z " /><path fill="rgb(76,77,72)" stroke="rgb(76,77,72)" stroke-width="0.6" opacity="1" d="M 432 223 L 434 223.5 L 434 238 L 432 237.5 L 432 223 Z " /><path fill="rgb(76,77,72)" stroke="rgb(76,77,72)" stroke-width="0.6" opacity="1" d="M 173.5 239 L 176.5 240 L 179.5 239 L 179.5 241 L 181 241.5 L 177.5 242 L 173.5 239 Z " /><path fill="rgb(76,77,72)" stroke="rgb(76,77,72)" stroke-width="0.6" opacity="1" d="M 483 245 L 485 245.5 L 485 255 L 483 254.5 L 483 245 Z " /><path fill="rgb(76,77,72)" stroke="rgb(76,77,72)" stroke-width="0.6" opacity="1" d="M 365.5 247 L 368 247.5 L 363.5 250 L 346 250 L 346.5 248 L 364.5 248 L 365.5 247 Z " /><path fill="rgb(76,77,72)" stroke="rgb(76,77,72)" stroke-width="0.6" opacity="1" d="M 276 258 L 302.5 258 L 303 260 L 276.5 260 L 276 258 Z " /><path fill="rgb(76,77,72)" stroke="rgb(76,77,72)" stroke-width="0.6" opacity="1" d="M 323 259 L 337.5 259 L 338 261 L 323.5 261 L 323 259 Z " /><path fill="rgb(76,77,72)" stroke="rgb(76,77,72)" stroke-width="0.6" opacity="1" d="M 341.5 263 L 353 263.5 L 341.5 264 L 341.5 263 Z " /><path fill="rgb(76,77,72)" stroke="rgb(76,77,72)" stroke-width="0.6" opacity="1" d="M 342.5 276 L 361 276.5 L 342.5 277 L 342.5 276 Z " /><path fill="rgb(76,77,72)" stroke="rgb(76,77,72)" stroke-width="0.6" opacity="1" d="M 314 279 L 378.5 279 L 379 281 L 314.5 281 L 314 279 Z " /><path fill="rgb(76,77,72)" stroke="rgb(76,77,72)" stroke-width="0.6" opacity="1" d="M 482.5 280 L 484 281.5 L 484 293 L 481 292.5 L 482 282.5 L 482.5 280 Z " /><path fill="rgb(76,77,72)" stroke="rgb(76,77,72)" stroke-width="0.6" opacity="1" d="M 277 297 L 286.5 297 L 287 299 L 277.5 299 L 277 297 Z " /><path fill="rgb(76,77,72)" stroke="rgb(76,77,72)" stroke-width="0.6" opacity="1" d="M 471.5 305 L 482 305.5 L 471.5 306 L 471.5 305 Z " /><path fill="rgb(76,77,72)" stroke="rgb(76,77,72)" stroke-width="0.6" opacity="1" d="M 25.5 307 L 26 320.5 L 25 320.5 L 25.5 307 Z " /><path fill="rgb(76,77,72)" stroke="rgb(76,77,72)" stroke-width="0.6" opacity="1" d="M 364.5 309 L 376 309.5 L 364.5 310 L 364.5 309 Z " /><path fill="rgb(76,77,72)" stroke="rgb(76,77,72)" stroke-width="0.6" opacity="1" d="M 285.5 310 L 306 310.5 L 285.5 311 L 285.5 310 Z " /><path fill="rgb(76,77,72)" stroke="rgb(76,77,72)" stroke-width="0.6" opacity="1" d="M 234.5 330 L 229.5 336 L 234.5 330 Z " /><path fill="rgb(76,77,72)" stroke="rgb(76,77,72)" stroke-width="0.6" opacity="1" d="M 293.5 352 L 294 364.5 L 293 364.5 L 293.5 352 Z " /><path fill="rgb(76,77,72)" stroke="rgb(76,77,72)" stroke-width="0.6" opacity="1" d="M 432.5 370 L 430.5 373 L 427.5 374 L 424 371.5 L 425.5 372 Q 431.2 373.2 432.5 370 Z " /><path fill="rgb(83,109,117)" stroke="rgb(83,109,117)" stroke-width="0.6" opacity="1" d="M 135.5 154 L 174 154.5 L 135.5 155 L 135.5 154 Z " /><path fill="rgb(83,109,117)" stroke="rgb(83,109,117)" stroke-width="0.6" opacity="1" d="M 490.5 188 L 491 198.5 L 490 198.5 L 490.5 188 Z " /><path fill="rgb(83,109,117)" stroke="rgb(83,109,117)" stroke-width="0.6" opacity="1" d="M 426 207 L 428 207.5 L 428 224 L 426 223.5 L 426 207 Z " /><path fill="rgb(83,109,117)" stroke="rgb(83,109,117)" stroke-width="0.6" opacity="1" d="M 76.5 242 L 91 242.5 L 76.5 243 L 76.5 242 Z " /><path fill="rgb(83,109,117)" stroke="rgb(83,109,117)" stroke-width="0.6" opacity="1" d="M 42.5 253 L 37.5 259 L 42.5 253 Z " /><path fill="rgb(83,109,117)" stroke="rgb(83,109,117)" stroke-width="0.6" opacity="1" d="M 338 259 L 352.5 259 L 353 261 L 338.5 261 L 338 259 Z " /><path fill="rgb(83,109,117)" stroke="rgb(83,109,117)" stroke-width="0.6" opacity="1" d="M 316.5 263 L 330 263.5 L 316.5 264 L 316.5 263 Z " /><path fill="rgb(83,109,117)" stroke="rgb(83,109,117)" stroke-width="0.6" opacity="1" d="M 374.5 264 L 391 264.5 L 374.5 265 L 374.5 264 Z " /><path fill="rgb(83,109,117)" stroke="rgb(83,109,117)" stroke-width="0.6" opacity="1" d="M 434.5 265 L 465 265.5 L 434.5 266 L 434.5 265 Z " /><path fill="rgb(83,109,117)" stroke="rgb(83,109,117)" stroke-width="0.6" opacity="1" d="M 361.5 276 L 398 276.5 L 361.5 277 L 361.5 276 Z " /><path fill="rgb(83,109,117)" stroke="rgb(83,109,117)" stroke-width="0.6" opacity="1" d="M 427.5 276 L 458 276.5 L 427.5 277 L 427.5 276 Z " /><path fill="rgb(83,109,117)" stroke="rgb(83,109,117)" stroke-width="0.6" opacity="1" d="M 444.5 296 L 482 296.5 L 444.5 297 L 444.5 296 Z " /><path fill="rgb(83,109,117)" stroke="rgb(83,109,117)" stroke-width="0.6" opacity="1" d="M 447.5 306 L 453.5 313 L 447.5 306 Z " /><path fill="rgb(83,109,117)" stroke="rgb(83,109,117)" stroke-width="0.6" opacity="1" d="M 376.5 309 L 396.5 309 L 398 310.5 L 396.5 310 L 376.5 310 L 376.5 309 Z " /><path fill="rgb(83,109,117)" stroke="rgb(83,109,117)" stroke-width="0.6" opacity="1" d="M 444.5 320 L 449.5 326 L 444.5 320 Z " /><path fill="rgb(83,109,117)" stroke="rgb(83,109,117)" stroke-width="0.6" opacity="1" d="M 218.5 371 L 219 381.5 L 218 381.5 L 218.5 371 Z " /><path fill="rgb(83,109,117)" stroke="rgb(83,109,117)" stroke-width="0.6" opacity="1" d="M 156.5 388 L 177 388.5 L 156.5 389 L 156.5 388 Z " /><path fill="rgb(213,173,56)" stroke="rgb(213,173,56)" stroke-width="0.6" opacity="1" d="M 167.5 93 L 187 93.5 L 167.5 94 L 167.5 93 Z " /><path fill="rgb(213,173,56)" stroke="rgb(213,173,56)" stroke-width="0.6" opacity="1" d="M 230.5 120 L 235.5 126 L 230.5 120 Z " /><path fill="rgb(213,173,56)" stroke="rgb(213,173,56)" stroke-width="0.6" opacity="1" d="M 239.5 145 L 240 156.5 L 239 156.5 L 239.5 145 Z " /><path fill="rgb(213,173,56)" stroke="rgb(213,173,56)" stroke-width="0.6" opacity="1" d="M 142.5 148 L 157 148.5 L 142.5 149 L 142.5 148 Z " /><path fill="rgb(213,173,56)" stroke="rgb(213,173,56)" stroke-width="0.6" opacity="1" d="M 261.5 179 L 262 187.5 L 259 189.5 L 261 187.5 L 261.5 179 Z " /><path fill="rgb(213,173,56)" stroke="rgb(213,173,56)" stroke-width="0.6" opacity="1" d="M 36.5 201 L 37 211.5 L 36 211.5 L 36.5 201 Z " /><path fill="rgb(213,173,56)" stroke="rgb(213,173,56)" stroke-width="0.6" opacity="1" d="M 97.5 247 L 112 247.5 L 97.5 248 L 97.5 247 Z " /><path fill="rgb(213,173,56)" stroke="rgb(213,173,56)" stroke-width="0.6" opacity="1" d="M 121.5 248 L 134 248.5 L 121.5 249 L 121.5 248 Z " /><path fill="rgb(213,173,56)" stroke="rgb(213,173,56)" stroke-width="0.6" opacity="1" d="M 271.5 311 L 277.5 318 L 271.5 311 Z " /><path fill="rgb(213,173,56)" stroke="rgb(213,173,56)" stroke-width="0.6" opacity="1" d="M 160.5 343 L 191 343.5 L 160.5 344 L 160.5 343 Z " /><path fill="rgb(122,109,47)" stroke="rgb(122,109,47)" stroke-width="0.6" opacity="1" d="M 466.5 133 L 471.5 139 L 466.5 133 Z " /><path fill="rgb(122,109,47)" stroke="rgb(122,109,47)" stroke-width="0.6" opacity="1" d="M 290.5 243 L 307 243.5 L 290.5 244 L 290.5 243 Z " /><path fill="rgb(122,109,47)" stroke="rgb(122,109,47)" stroke-width="0.6" opacity="1" d="M 75.5 246 L 97 246.5 L 75.5 247 L 75.5 246 Z " /><path fill="rgb(122,109,47)" stroke="rgb(122,109,47)" stroke-width="0.6" opacity="1" d="M 306.5 310 L 320 310.5 L 306.5 311 L 306.5 310 Z " /><path fill="rgb(169,149,43)" stroke="rgb(169,149,43)" stroke-width="0.6" opacity="1" d="M 150.5 103 L 171 103.5 L 150.5 104 L 150.5 103 Z " /><path fill="rgb(169,149,43)" stroke="rgb(169,149,43)" stroke-width="0.6" opacity="1" d="M 286.5 205 L 287 216.5 L 286 216.5 L 286.5 205 Z " /><path fill="rgb(169,149,43)" stroke="rgb(169,149,43)" stroke-width="0.6" opacity="1" d="M 249.5 216 L 250 230.5 L 249 230.5 L 249.5 216 Z " /><path fill="rgb(169,149,43)" stroke="rgb(169,149,43)" stroke-width="0.6" opacity="1" d="M 259.5 287 L 260 297.5 L 259 297.5 L 259.5 287 Z " /><path fill="rgb(205,204,204)" stroke="rgb(205,204,204)" stroke-width="0.6" opacity="1" d="M 87.5 108 L 82.5 114 L 87.5 108 Z " /><path fill="rgb(205,204,204)" stroke="rgb(205,204,204)" stroke-width="0.6" opacity="1" d="M 99.5 121 L 100 122.5 L 95 126.5 L 96.5 123 L 99.5 121 Z " /><path fill="rgb(205,204,204)" stroke="rgb(205,204,204)" stroke-width="0.6" opacity="1" d="M 490.5 219 L 491 232.5 L 490 232.5 L 490.5 219 Z " /><path fill="rgb(205,204,204)" stroke="rgb(205,204,204)" stroke-width="0.6" opacity="1" d="M 489.5 270 L 490 286.5 L 489 286.5 L 489.5 270 Z " /><path fill="rgb(205,204,204)" stroke="rgb(205,204,204)" stroke-width="0.6" opacity="1" d="M 152 301 L 154 302.5 L 153 307.5 L 155 313.5 L 153.5 316 L 151 303.5 L 152 301 Z " /><path fill="rgb(205,204,204)" stroke="rgb(205,204,204)" stroke-width="0.6" opacity="1" d="M 149.5 382 L 161 382.5 L 149.5 383 L 149.5 382 Z " /><path fill="rgb(205,204,204)" stroke="rgb(205,204,204)" stroke-width="0.6" opacity="1" d="M 170.5 382 L 181 382.5 L 170.5 383 L 170.5 382 Z " /><path fill="rgb(205,204,204)" stroke="rgb(205,204,204)" stroke-width="0.6" opacity="1" d="M 115.5 387 L 124 387.5 L 114.5 389 L 115.5 387 Z " /><path fill="rgb(205,204,204)" stroke="rgb(205,204,204)" stroke-width="0.6" opacity="1" d="M 233.5 424 L 249 424.5 L 233.5 425 L 233.5 424 Z " /><path fill="rgb(152,152,152)" stroke="rgb(152,152,152)" stroke-width="0.6" opacity="1" d="M 490.5 199 L 491 218.5 L 490 218.5 L 490.5 199 Z " /><path fill="rgb(152,152,152)" stroke="rgb(152,152,152)" stroke-width="0.6" opacity="1" d="M 30.5 200 L 31 210.5 L 30 210.5 L 30.5 200 Z " /><path fill="rgb(152,152,152)" stroke="rgb(152,152,152)" stroke-width="0.6" opacity="1" d="M 489.5 259 L 490 269.5 L 489 269.5 L 489.5 259 Z " /><path fill="rgb(152,152,152)" stroke="rgb(152,152,152)" stroke-width="0.6" opacity="1" d="M 44.5 281 L 49 281.5 L 47 282 L 46.5 284 L 43.5 283 L 41 284 Q 39.8 281 43.5 282 L 44.5 281 Z " /><path fill="rgb(152,152,152)" stroke="rgb(152,152,152)" stroke-width="0.6" opacity="1" d="M 145.5 388 L 156 388.5 L 145.5 389 L 145.5 388 Z " /><path fill="rgb(152,152,152)" stroke="rgb(152,152,152)" stroke-width="0.6" opacity="1" d="M 43.5 392 L 48.5 398 L 43.5 392 Z " /><path fill="rgb(152,152,152)" stroke="rgb(152,152,152)" stroke-width="0.6" opacity="1" d="M 411.5 409 L 425 409.5 L 411.5 410 L 411.5 409 Z " /><path fill="rgb(161,69,55)" stroke="rgb(161,69,55)" stroke-width="0.6" opacity="1" d="M 423.5 187 L 424 204.5 L 423 204.5 L 423.5 187 Z " /><path fill="rgb(161,69,55)" stroke="rgb(161,69,55)" stroke-width="0.6" opacity="1" d="M 472.5 190 L 473 214.5 L 472 214.5 L 472.5 190 Z " /><path fill="rgb(161,69,55)" stroke="rgb(161,69,55)" stroke-width="0.6" opacity="1" d="M 437.5 198 L 438 221.5 L 437 221.5 L 437.5 198 Z " /><path fill="rgb(161,69,55)" stroke="rgb(161,69,55)" stroke-width="0.6" opacity="1" d="M 281.5 204 L 282 218.5 L 281 218.5 L 281.5 204 Z " /><path fill="rgb(161,69,55)" stroke="rgb(161,69,55)" stroke-width="0.6" opacity="1" d="M 385.5 204 L 386 224.5 L 385 224.5 L 385.5 204 Z " /><path fill="rgb(161,69,55)" stroke="rgb(161,69,55)" stroke-width="0.6" opacity="1" d="M 189.5 212 L 193 212.5 L 187 215.5 L 186.5 220 L 186 215.5 L 189.5 212 Z " /><path fill="rgb(161,69,55)" stroke="rgb(161,69,55)" stroke-width="0.6" opacity="1" d="M 437.5 229 L 438 239.5 L 437 239.5 L 437.5 229 Z " /><path fill="rgb(161,69,55)" stroke="rgb(161,69,55)" stroke-width="0.6" opacity="1" d="M 320.5 310 L 355 310.5 L 320.5 311 L 320.5 310 Z " /></svg>