<svg width="627" height="627" preserveAspectRatio="xMidYMid meet" viewBox="0 0 512 512" version="1.1" xmlns="http://www.w3.org/2000/svg" ><path fill="rgb(255,255,255)" stroke="rgb(255,255,255)" stroke-width="0.6" opacity="1" d="M 0 0 L 512 0 L 512 512 L 0 512 L 0 0 Z M 236 99 L 235 100 L 221 100 L 216 102 L 209 111 L 203 131 L 199 133 L 177 138 L 159 148 Q 136 168 125 200 L 124 201 L 112 201 L 108 203 Q 100 207 99 218 Q 98 227 101 233 L 74 245 L 64 252 L 45 274 L 41 282 L 39 294 L 41 304 L 41 324 Q 36 326 35 334 Q 33 347 37 355 Q 43 365 58 367 L 64 379 Q 74 393 98 394 Q 122 394 131 379 L 144 379 L 145 380 L 204 380 L 209 379 L 218 399 Q 224 406 234 410 L 250 413 L 268 411 L 280 404 Q 293 393 295 371 L 305 366 L 378 354 L 388 374 L 400 381 L 417 384 L 430 382 L 438 378 Q 453 366 455 340 L 459 336 L 470 333 Q 476 329 477 320 L 477 306 Q 476 299 471 297 L 471 282 L 467 259 Q 463 246 456 238 Q 447 227 433 223 L 428 217 L 413 181 L 401 163 Q 388 147 367 140 Q 344 131 314 130 L 310 127 L 301 106 L 292 100 L 236 99 Z " /><path fill="rgb(255,255,255)" stroke="rgb(255,255,255)" stroke-width="0.6" opacity="1" d="M 265 360 Q 270.6 358.1 268 366.5 L 267 369 L 264 367.5 L 265 360 Z " /><path fill="rgb(210,60,56)" stroke="rgb(210,60,56)" stroke-width="0.6" opacity="1" d="M 226.5 105 L 228.5 106 L 275.5 106 L 279 108 L 281 114.5 L 281 116.5 L 284 133 L 265.5 133 L 264.5 132 L 210.5 132 L 209 130.5 L 215 110 L 217 108.5 L 220.5 106 L 226.5 105 Z " /><path fill="rgb(210,60,56)" stroke="rgb(210,60,56)" stroke-width="0.6" opacity="1" d="M 313.5 135 L 327.5 138 L 329.5 137 L 357.5 143 L 362.5 146 L 364.5 146 Q 385.2 151.8 397 166.5 Q 407.9 180.1 415 197.5 L 426 226 L 447 236 L 450.5 241 L 452 242.5 L 460 255.5 Q 457.5 257 461 258.5 L 464 270.5 L 463 272.5 L 465 278.5 L 464 281.5 L 465 282.5 L 465 298.5 Q 463.2 302.7 461.5 300 Q 457.8 301.3 459 297.5 L 452 284 L 442.5 277 L 429.5 275 L 428 273.5 L 427 264 L 421.5 263 L 417.5 265 L 415.5 264 L 412 266.5 L 413 273.5 L 413 275.5 Q 414.5 281.5 411.5 283 L 402.5 284 L 401 282.5 L 401 268.5 L 399.5 267 L 395.5 268 L 393.5 267 L 386 268 L 385 272.5 L 386 274.5 L 385 276.5 L 386 285.5 L 384.5 287 L 376.5 288 L 375 286.5 Q 376.7 267.3 373 253.5 L 373 251.5 Q 372.7 243.3 368.5 239 L 367 241.5 L 370 251.5 L 370 253.5 L 371 257.5 L 370 260.5 L 371 269.5 L 364.5 272 L 362.5 271 L 357 274.5 L 358 284.5 L 355.5 291 L 344 292 L 344 276.5 L 342.5 275 Q 331.6 273.6 326 277.5 L 326 294.5 L 322.5 295 L 314.5 297 L 312 291.5 L 313 289.5 L 312 279.5 L 310.5 278 L 308.5 279 L 306.5 279 L 299 280 L 297 272.5 L 298 269.5 L 294 252.5 L 296.5 251 L 298.5 253 L 305.5 254 L 312.5 253 L 316.5 254 Q 325.4 251.9 330 245.5 L 331.5 243 L 351.5 240 L 353.5 241 L 359 237.5 L 361 227.5 L 359 222.5 L 360 220.5 L 355 194.5 L 355 192.5 L 350 164.5 L 345.5 156 L 325.5 155 L 309.5 159 L 303 164.5 L 298 171.5 L 298 173.5 L 296 184.5 L 294 187.5 L 294 189.5 Q 293.8 200.8 290 208.5 L 290 210.5 L 289 213.5 L 289 215.5 L 286 239.5 L 283 245.5 L 285 250 L 290 251 Q 294 259.3 294 272.5 L 294 274.5 L 295 307 L 292.5 308 Q 284.8 295.2 262.5 297 Q 246.8 301.3 238 312.5 L 230 324.5 L 225 338.5 L 221.5 343 L 212.5 344 L 209.5 343 L 200.5 345 L 196.5 344 L 195.5 345 L 147.5 345 L 142.5 344 L 140.5 344 L 129.5 343 L 127.5 344 L 100.5 341 L 89.5 338 L 87.5 339 L 59.5 333 L 47 326.5 L 46 313 Q 50.3 318.1 61.5 317 L 70 311.5 Q 78.7 301.7 78 282.5 L 72 268 L 61 262.5 L 68 257 L 69.5 255 L 83.5 246 L 98.5 240 L 102.5 240 L 118 232.5 L 126 210.5 L 129 207.5 L 129 205.5 Q 139 174 160.5 154 L 163.5 152 L 172.5 146 L 192.5 139 L 218.5 137 L 219.5 138 L 248.5 138 L 253.5 137 L 274.5 139 L 293.5 139 L 309.5 136 L 311.5 136 L 313.5 135 Z M 195 151 L 190 152 L 188 152 L 169 156 L 155 165 Q 144 178 137 196 Q 133 197 136 199 L 131 210 Q 127 211 130 213 L 128 219 Q 124 220 127 222 Q 123 224 124 232 L 129 236 L 143 239 L 145 238 L 152 240 L 157 239 L 162 241 L 166 240 L 197 243 L 199 242 L 208 244 L 214 243 L 221 245 L 230 244 L 252 246 L 257 245 L 258 249 L 234 266 L 222 281 L 219 282 L 217 280 L 203 272 L 199 272 L 186 278 Q 175 287 172 304 L 174 320 L 178 325 L 191 331 Q 202 331 209 326 Q 220 317 223 301 L 222 299 L 223 295 L 222 292 L 222 286 L 228 278 L 230 275 Q 247 256 271 244 L 274 239 Q 277 237 275 236 L 279 219 L 279 217 L 280 215 L 280 213 L 283 196 L 283 194 L 285 190 L 284 188 L 286 179 L 285 168 L 282 161 L 270 155 L 247 151 L 243 152 L 238 151 L 201 151 L 200 152 L 195 151 Z M 359 155 L 357 156 L 354 160 L 357 173 L 356 175 L 360 188 L 361 201 L 363 205 L 366 225 L 365 227 L 367 234 L 374 238 L 393 236 L 395 236 L 410 232 L 414 226 L 405 200 L 405 196 L 400 186 L 398 184 Q 395 174 388 168 L 387 166 L 384 162 L 372 156 L 359 155 Z M 416 242 L 407 244 Q 402 246 404 254 L 408 257 L 409 256 L 412 257 L 421 255 L 424 250 L 423 246 Q 421 242 416 242 Z M 356 251 L 346 253 L 343 256 L 344 265 Q 345 267 351 266 L 353 266 L 362 264 L 365 259 L 363 252 L 356 251 Z M 92 298 L 90 299 L 87 304 L 90 305 L 94 311 L 96 314 Q 103 322 117 325 L 133 325 L 134 324 L 136 325 Q 147 320 155 311 L 160 310 L 159 308 L 154 303 L 151 303 L 152 306 L 148 312 L 146 314 L 135 320 L 129 321 L 126 320 L 122 321 Q 110 320 103 314 L 94 304 Q 96 297 92 298 Z " /><path fill="rgb(210,60,56)" stroke="rgb(210,60,56)" stroke-width="0.6" opacity="1" d="M 306.5 218 L 320.5 219 L 325 223.5 Q 329.7 227.3 328 237.5 L 322.5 246 Q 314.9 249.9 301.5 248 L 299.5 246 L 289.5 246 L 288 244.5 Q 292.9 241.4 293 233.5 L 293 231.5 Q 293.8 223.3 299.5 220 L 306.5 218 Z " /><path fill="rgb(210,60,56)" stroke="rgb(210,60,56)" stroke-width="0.6" opacity="1" d="M 412.5 247 Q 418.5 245.5 420 248.5 L 418.5 250 L 414.5 252 L 412.5 252 L 408 250.5 L 409.5 248 L 412.5 247 Z " /><path fill="rgb(210,60,56)" stroke="rgb(210,60,56)" stroke-width="0.6" opacity="1" d="M 367.5 291 L 372 292.5 L 371 306.5 L 371 308.5 L 370 318.5 L 370 320.5 L 369 324.5 L 370 326.5 L 366.5 333 L 358.5 335 L 356.5 335 L 333.5 339 L 331.5 339 L 306.5 343 L 304 337.5 L 302 322.5 L 298 315.5 L 299 311.5 L 298 302 Q 301.1 302.8 300.5 300 L 307.5 300 L 309.5 299 L 311 300.5 L 311 315.5 L 312.5 317 L 323.5 315 L 325.5 315 L 329 314 L 329 297.5 L 331.5 297 L 341.5 295 L 343 296.5 L 343 310.5 L 344.5 312 L 355.5 310 L 357.5 310 L 360 308.5 L 360 293.5 L 361.5 293 L 367.5 291 Z " /><path fill="rgb(210,60,56)" stroke="rgb(210,60,56)" stroke-width="0.6" opacity="1" d="M 428.5 323 Q 433.3 322.3 434 325.5 Q 438.3 331.2 436 343.5 L 429.5 354 Q 424.8 354.8 424 351.5 L 422 341 L 424 342.5 L 427.5 347 L 432 344.5 L 434 336.5 L 430.5 330 L 426 331 L 424 339 Q 420.7 340.1 422 336 L 424 335.5 Q 420.5 334 423 332.5 L 423 329.5 L 428.5 323 Z " /><path fill="rgb(210,60,56)" stroke="rgb(210,60,56)" stroke-width="0.6" opacity="1" d="M 264.5 347 Q 271.8 345.8 273 350.5 Q 277 357 275 369.5 L 271 378.5 L 267.5 382 Q 260.3 383.3 259 378.5 Q 256.2 372.3 257 362.5 L 258 360.5 L 258 358.5 Q 258.8 350.3 264.5 347 Z M 266 355 Q 261 358 260 365 L 262 372 L 266 374 L 269 373 L 270 370 Q 273 368 271 367 L 272 365 L 271 359 L 266 355 Z " /><path fill="rgb(210,60,56)" stroke="rgb(210,60,56)" stroke-width="0.6" opacity="1" d="M 401.5 349 L 404 350.5 Q 405.3 367.7 415.5 376 L 417 378 Q 400.1 378.5 392 369.5 L 386 358.5 Q 388.5 357 385 355.5 L 386.5 352 L 397.5 351 L 401.5 349 Z " /><path fill="rgb(80,152,192)" stroke="rgb(80,152,192)" stroke-width="0.6" opacity="1" d="M 194.5 156 L 254.5 157 L 270.5 160 L 279 165.5 Q 283.3 171.2 281 183.5 L 273 226.5 Q 272 235 267.5 240 L 265.5 241 L 241.5 241 L 240.5 240 L 153.5 235 L 134.5 233 L 130 230.5 L 129 227.5 L 149 180.5 L 162.5 164 L 171.5 160 L 194.5 156 Z M 180 173 L 176 175 L 172 180 L 173 182 L 180 178 Q 186 177 189 180 Q 192 181 190 177 Q 188 172 180 173 Z M 241 174 L 238 175 L 233 180 L 235 181 L 238 180 Q 245 179 249 182 L 253 186 L 252 180 L 246 175 L 244 175 L 241 174 Z M 177 191 L 169 195 Q 160 202 158 215 L 160 226 L 170 233 Q 180 235 185 230 Q 192 225 194 214 Q 196 201 190 196 Q 187 190 177 191 Z M 233 193 L 226 196 Q 217 202 214 214 Q 212 224 216 230 L 225 236 Q 235 238 240 234 Q 249 228 251 214 Q 251 204 247 199 Q 243 192 233 193 Z " /><path fill="rgb(80,152,192)" stroke="rgb(80,152,192)" stroke-width="0.6" opacity="1" d="M 177.5 194 Q 186.4 193.6 189 199.5 L 190 201.5 L 187.5 203 Q 185.8 199.3 178.5 201 L 173 204.5 Q 167.5 210 168 221.5 L 171 228.5 L 168.5 229 L 163 224.5 L 162 211.5 Q 164.3 200.8 172.5 196 L 177.5 194 Z " /><path fill="rgb(80,152,192)" stroke="rgb(80,152,192)" stroke-width="0.6" opacity="1" d="M 239.5 208 L 244 211.5 L 241.5 217 L 236 215.5 Q 235 209 239.5 208 Z " /><path fill="rgb(80,152,192)" stroke="rgb(80,152,192)" stroke-width="0.6" opacity="1" d="M 197.5 277 Q 210.9 276.1 215 284.5 Q 219.7 290.4 218 302.5 Q 215.1 316.1 205.5 323 Q 200.5 327 191.5 327 Q 182.6 325.4 179 318.5 L 177 314.5 L 177 298.5 L 183.5 286 L 186 287.5 Q 179.2 294.2 179 307.5 Q 180.1 316.9 186.5 321 L 196.5 323 Q 205.1 320.6 209 313.5 Q 215.3 306.8 213 291.5 L 205.5 282 L 194.5 281 L 188.5 285 L 187 282.5 L 197.5 277 Z " /><path fill="rgb(80,152,192)" stroke="rgb(80,152,192)" stroke-width="0.6" opacity="1" d="M 200.5 283 L 209 289.5 L 210 302.5 Q 207.9 312.9 200.5 318 L 191.5 320 L 186 316.5 Q 182 312.5 182 304.5 Q 183.6 293.1 190.5 287 L 200.5 283 Z " /><path fill="rgb(80,152,192)" stroke="rgb(80,152,192)" stroke-width="0.6" opacity="1" d="M 260.5 302 Q 273.6 299.9 280.5 304 L 293 315.5 L 299 329.5 L 301 352.5 L 300 359.5 L 297.5 363 L 296 361.5 Q 296.1 346.9 292 336.5 Q 288.5 327.5 281.5 322 L 269.5 318 Q 257.3 319.8 251 327.5 L 243 339.5 Q 237.7 351.2 236 366.5 L 232.5 370 L 227.5 371 L 225 367.5 Q 228.3 360.3 227 348.5 L 226 346.5 Q 231.6 323.6 246.5 310 L 260.5 302 Z " /><path fill="rgb(80,152,192)" stroke="rgb(80,152,192)" stroke-width="0.6" opacity="1" d="M 468.5 302 L 471 303.5 L 472 317.5 L 467.5 328 L 461 329 L 462 313.5 L 461 307.5 L 461.5 305 L 468.5 302 Z " /><path fill="rgb(80,152,192)" stroke="rgb(80,152,192)" stroke-width="0.6" opacity="1" d="M 265.5 324 L 272.5 324 L 283 331.5 L 290 347.5 L 290 363.5 L 291 364.5 Q 288.8 389.8 273.5 402 Q 268.8 405.8 260.5 406 Q 252.2 404.3 248 398.5 Q 238.4 388.1 240 366.5 L 246 343.5 Q 250.4 333.4 258.5 327 L 265.5 324 Z M 265 343 L 263 344 Q 255 350 253 362 Q 252 374 256 381 L 263 386 L 270 385 Q 277 380 279 369 Q 281 353 274 346 Q 272 342 265 343 Z " /><path fill="rgb(8,8,8)" stroke="rgb(8,8,8)" stroke-width="0.6" opacity="1" d="M 232.5 101 L 271.5 101 L 273.5 102 L 283.5 101 L 294.5 102 L 302 108.5 L 311.5 131 L 322.5 133 L 326.5 132 L 330.5 134 L 339.5 134 Q 341.2 137.8 348.5 136 L 350.5 138 L 356.5 138 L 358.5 140 L 371.5 143 Q 390.3 150.7 402 165.5 L 410 177.5 L 422 202.5 L 428 220.5 L 431.5 224 Q 448.4 228.1 457 240.5 L 465 255.5 L 466 267 L 468 267.5 L 468 282.5 Q 472.2 286.3 470 296.5 L 476 305.5 L 476 318.5 L 474 321.5 L 475 323.5 L 470.5 331 Q 467.7 334.7 460.5 334 L 454 338.5 L 452 346.5 L 453 348.5 L 448 363.5 L 439.5 375 L 424.5 382 L 407.5 382 L 405.5 380 L 399.5 380 L 395.5 378 L 386 369.5 L 378.5 352 Q 373.5 351 372.5 354 L 363.5 354 L 361.5 356 L 354.5 357 L 351.5 356 L 349.5 358 L 340.5 358 L 338.5 360 L 331.5 361 L 328.5 360 Q 325.3 363.8 316.5 362 L 314.5 364 L 304.5 364 L 294 369.5 Q 291.8 393.8 276.5 405 L 266.5 410 L 253.5 411 L 244.5 410 L 242.5 411 L 237 410 Q 238.4 406 231.5 408 L 220 399.5 L 209.5 378 L 201.5 379 L 200.5 378 L 148.5 378 L 145.5 379 L 144.5 378 L 130.5 378 Q 124.8 385.8 115.5 390 Q 109.8 388.8 108.5 392 L 89.5 392 L 87.5 390 L 82.5 390 L 75.5 387 L 67 380.5 L 58.5 366 L 44.5 361 L 39 355.5 Q 34.1 347.9 36 333.5 L 42 324.5 L 42 303.5 L 41 301.5 L 42 288.5 L 41 285.5 L 46 273.5 L 61.5 255 L 77.5 244 L 98.5 236 L 103 232.5 L 100 224.5 L 100 219.5 Q 103 217.5 102 211.5 L 106.5 205 L 114.5 202 L 120.5 203 L 126 200.5 L 140 171.5 Q 147 159 157.5 150 L 179.5 138 L 192.5 136 L 194.5 134 L 201.5 134 L 204 131.5 L 210 110.5 L 214.5 104 L 218.5 102 L 231.5 102 L 232.5 101 Z M 224 103 L 217 107 L 212 115 L 207 132 L 212 134 L 218 133 L 269 134 L 271 134 L 283 135 L 286 134 L 285 131 Q 284 126 287 127 Q 286 133 290 135 L 304 134 L 307 132 L 306 126 L 299 111 L 293 105 Q 288 106 289 103 L 280 104 L 284 115 L 282 116 L 281 110 L 274 103 L 272 104 L 224 103 Z M 315 133 L 308 136 L 304 135 L 302 137 L 293 138 Q 279 139 270 136 L 268 137 L 218 136 L 217 135 L 211 137 L 205 136 Q 175 139 158 155 L 148 166 L 135 188 L 123 214 L 117 232 L 81 246 L 65 257 Q 59 260 58 266 L 67 267 L 68 269 L 66 268 Q 57 266 55 270 L 45 281 Q 47 288 43 290 L 43 300 L 48 310 L 55 314 Q 64 315 67 310 L 67 313 L 62 316 Q 52 318 49 313 Q 47 309 45 313 L 46 328 L 53 332 L 68 336 Q 71 335 70 338 Q 54 336 43 329 L 39 333 L 40 334 L 39 337 Q 38 346 41 353 L 51 361 L 68 365 L 70 367 L 72 366 Q 77 366 80 369 L 82 368 L 84 369 Q 90 367 89 371 L 94 370 L 103 371 L 105 373 L 110 372 L 120 373 L 122 375 L 126 374 L 134 375 L 152 375 L 152 377 L 197 377 L 197 375 L 212 374 L 216 375 L 219 373 L 222 370 L 224 361 Q 226 350 222 346 L 214 347 L 204 347 L 206 345 L 216 344 L 223 345 L 237 316 L 240 314 L 240 317 L 232 328 L 227 341 L 226 360 L 223 371 L 224 373 L 233 371 L 237 367 L 242 345 L 249 332 L 252 330 L 255 326 Q 258 327 257 325 L 264 320 L 266 321 L 271 320 Q 278 319 282 323 Q 292 331 294 348 L 293 351 L 295 357 L 294 360 L 295 363 L 298 364 Q 302 361 302 355 Q 303 326 291 312 Q 285 304 275 301 Q 256 299 249 308 Q 245 309 246 307 L 263 298 L 278 299 Q 289 303 296 312 L 302 329 L 303 341 L 306 345 L 304 348 L 303 357 L 304 363 Q 308 364 307 361 L 314 360 L 317 361 L 320 359 L 336 356 L 340 357 Q 343 358 342 355 L 348 354 L 351 355 Q 354 356 353 353 L 359 352 L 364 353 Q 367 354 366 351 L 372 350 L 374 351 Q 377 352 376 349 L 383 348 L 387 349 L 392 342 Q 393 319 401 304 L 401 287 L 403 285 L 413 284 L 414 283 L 414 268 L 416 266 L 425 265 L 426 267 L 427 276 L 430 276 L 440 277 L 446 280 L 447 283 L 451 285 L 460 302 Q 466 303 467 299 L 466 286 L 467 283 L 467 276 L 465 273 L 465 266 Q 462 264 463 259 L 455 244 Q 446 231 429 226 L 424 219 L 415 194 L 400 169 L 382 152 L 365 144 L 347 139 Q 342 140 343 137 L 341 138 L 325 136 L 323 134 L 320 135 L 318 133 L 315 133 Z M 116 204 L 110 207 L 105 213 Q 106 216 103 215 L 104 219 L 103 225 L 103 227 L 108 232 L 112 232 L 116 229 L 120 215 L 124 208 Q 123 203 116 204 Z M 428 279 L 418 284 Q 407 293 401 307 L 396 323 L 393 346 Q 394 348 400 347 L 407 338 Q 408 317 418 306 L 427 298 L 434 297 L 442 299 L 450 310 Q 453 315 452 325 L 456 333 L 458 330 L 459 322 Q 459 302 451 290 L 441 280 L 428 279 Z M 432 299 L 418 308 L 411 325 L 408 342 L 406 345 L 407 349 L 405 350 L 404 347 L 399 349 L 387 350 L 383 354 L 389 368 Q 393 374 402 377 Q 405 376 404 379 L 407 378 L 420 379 Q 422 375 418 376 L 411 368 L 411 366 L 412 369 L 422 377 Q 431 378 436 374 L 449 356 Q 448 349 451 347 L 450 344 L 451 341 L 451 328 L 450 327 L 451 325 L 445 309 Q 440 302 432 299 Z M 469 301 L 460 306 L 461 315 L 460 324 Q 458 329 462 331 L 468 329 L 473 322 L 472 320 L 473 315 L 472 304 L 469 301 Z M 267 322 L 258 326 L 246 341 Q 241 351 240 366 L 238 369 L 239 373 Q 241 378 237 377 L 236 372 L 233 374 Q 222 373 216 376 L 214 380 Q 216 391 223 398 L 233 405 Q 238 404 237 407 L 245 407 L 245 409 Q 252 411 254 408 Q 255 404 252 405 Q 241 397 238 383 Q 237 379 240 380 Q 240 391 246 398 Q 251 405 262 407 L 274 403 Q 283 396 288 385 Q 292 377 291 365 L 293 361 L 289 341 L 284 332 Q 279 323 267 322 Z M 66 368 L 64 370 L 68 377 L 76 383 L 88 389 L 90 388 L 92 389 L 111 389 L 116 387 L 125 379 L 124 376 Q 114 378 109 374 L 95 374 L 93 372 L 85 372 L 81 370 L 66 368 Z " /><path fill="rgb(8,8,8)" stroke="rgb(8,8,8)" stroke-width="0.6" opacity="1" d="M 202.5 152 L 249.5 153 L 269.5 156 L 280 161 L 284 168.5 L 284 184.5 L 276 229.5 Q 274.6 238.1 269.5 243 L 264.5 246 Q 263 242.5 261.5 245 L 150.5 238 L 132.5 236 L 126 231.5 L 126 226.5 L 138 194.5 L 152 169.5 L 158.5 163 L 172.5 156 L 202.5 152 Z M 197 155 L 169 160 L 159 166 L 150 177 L 139 198 L 129 224 L 129 231 L 134 234 L 152 235 L 161 237 L 163 236 L 244 242 L 267 242 L 271 239 L 282 182 Q 283 171 280 165 L 277 161 L 256 156 L 197 155 Z " /><path fill="rgb(8,8,8)" stroke="rgb(8,8,8)" stroke-width="0.6" opacity="1" d="M 324.5 156 L 343.5 156 L 345 157.5 L 348 162.5 L 352 178.5 L 352 184.5 L 356 201.5 L 359 233.5 L 358 237 Q 351.1 240.9 340 240 Q 338.8 237 342.5 238 L 352.5 237 L 356 234.5 L 356 219.5 L 351 186.5 L 346 162.5 L 342.5 159 L 333.5 158 L 316.5 160 Q 308.4 162.9 304 169.5 L 299 183.5 L 293 219 L 306.5 214 L 314.5 215 L 317.5 214 Q 325.3 215.2 329 220.5 L 332 227.5 Q 329.8 235.8 333.5 238 L 339 239.5 L 330 242.5 L 323.5 250 L 314.5 252 L 304.5 251 L 302.5 252 Q 299.8 249.2 293.5 250 L 291.5 251 L 285 247.5 Q 284 243.8 287 245 L 288.5 248 L 296.5 247 Q 302.3 251.2 313.5 250 L 319.5 249 L 327 242.5 Q 331 237.5 329 226.5 L 321.5 218 L 314.5 216 L 307.5 216 L 298.5 219 L 294 223.5 L 290 233.5 L 290 239.5 L 286.5 243 L 285 241.5 L 289 239 L 288 231.5 L 298 178.5 Q 300.7 166.2 309.5 160 L 324.5 156 Z " /><path fill="rgb(8,8,8)" stroke="rgb(8,8,8)" stroke-width="0.6" opacity="1" d="M 357.5 156 Q 374.7 155.3 383 163.5 L 385.5 167 L 389 169.5 L 404 197.5 L 412 226.5 L 407.5 232 L 383.5 236 L 370.5 236 L 367 229.5 L 361 185.5 L 356 167.5 L 356 157.5 L 357.5 156 Z M 360 159 L 358 161 L 369 220 L 369 228 L 373 234 L 391 233 L 406 230 L 409 228 L 409 220 L 401 196 L 387 172 L 373 160 L 360 159 Z " /><path fill="rgb(8,8,8)" stroke="rgb(8,8,8)" stroke-width="0.6" opacity="1" d="M 179.5 174 Q 187.2 172.3 189 176.5 Q 189.9 179.5 185.5 178 L 180.5 177 L 173 180 L 174.5 177 L 179.5 174 Z " /><path fill="rgb(8,8,8)" stroke="rgb(8,8,8)" stroke-width="0.6" opacity="1" d="M 240.5 175 Q 248.6 174.4 251 179.5 L 252 183 L 244.5 179 L 237.5 179 L 235 180 L 236.5 177 L 240.5 175 Z " /><path fill="rgb(8,8,8)" stroke="rgb(8,8,8)" stroke-width="0.6" opacity="1" d="M 172.5 194 L 171.5 196 L 167 199.5 L 165.5 202 L 165 199.5 L 172.5 194 Z " /><path fill="rgb(8,8,8)" stroke="rgb(8,8,8)" stroke-width="0.6" opacity="1" d="M 178.5 202 Q 188.3 200.3 190 206.5 Q 188.9 209.8 191.5 209 L 193 213.5 Q 191 224.5 183.5 230 L 175.5 232 Q 167.5 227.5 169 213.5 L 176.5 203 L 178.5 202 Z M 183 205 L 179 211 L 180 214 L 184 216 L 187 215 L 189 212 L 188 208 Q 187 204 183 205 Z " /><path fill="rgb(8,8,8)" stroke="rgb(8,8,8)" stroke-width="0.6" opacity="1" d="M 234.5 204 Q 242.5 203 245 207.5 L 244.5 210 Q 243.5 207 238.5 208 L 235 214.5 L 237.5 218 Q 244 219 245 214.5 L 246.5 213 L 249 214 Q 248.8 227.5 239.5 233 Q 236 236.2 229 235 L 224 225.5 L 224 217.5 L 230.5 206 L 234.5 204 Z " /><path fill="rgb(8,8,8)" stroke="rgb(8,8,8)" stroke-width="0.6" opacity="1" d="M 346.5 254 L 348 255.5 Q 345 256.5 346 261.5 L 347 263.5 L 344 261.5 Q 342.8 255.3 346.5 254 Z " /><path fill="rgb(8,8,8)" stroke="rgb(8,8,8)" stroke-width="0.6" opacity="1" d="M 235.5 266 L 237 266.5 L 228 274.5 L 235.5 266 Z " /><path fill="rgb(8,8,8)" stroke="rgb(8,8,8)" stroke-width="0.6" opacity="1" d="M 392.5 269 Q 399.5 267.5 399 270.5 L 400 286 L 388.5 287 L 387 285.5 L 387 271.5 L 392.5 269 Z " /><path fill="rgb(8,8,8)" stroke="rgb(8,8,8)" stroke-width="0.6" opacity="1" d="M 372.5 271 L 374 272.5 L 374 287.5 L 375.5 289 L 387 289 L 387 302.5 L 384.5 305 L 374.5 307 L 373 305.5 L 373 291.5 L 371.5 290 L 360.5 291 L 359 289.5 L 359 274 L 372.5 271 Z " /><path fill="rgb(8,8,8)" stroke="rgb(8,8,8)" stroke-width="0.6" opacity="1" d="M 71 272 L 74 273.5 L 76 282 Q 72.7 283.3 74 278.5 L 71 272 Z " /><path fill="rgb(8,8,8)" stroke="rgb(8,8,8)" stroke-width="0.6" opacity="1" d="M 197.5 274 Q 209.1 272.9 214 278.5 L 215.5 280 L 220 286.5 L 220 288.5 L 221 302.5 Q 218.4 316.4 209.5 324 Q 204 330.5 191.5 330 Q 182.3 328.7 178 322.5 L 174 315.5 L 173 305.5 L 175 294.5 L 183.5 281 Q 188.5 275.5 197.5 274 Z M 198 276 L 188 281 Q 176 288 175 306 L 178 319 Q 182 326 192 328 L 205 325 Q 216 318 219 303 Q 221 290 216 285 Q 212 275 198 276 Z " /><path fill="rgb(8,8,8)" stroke="rgb(8,8,8)" stroke-width="0.6" opacity="1" d="M 335.5 276 L 343 277 L 343 292.5 L 344.5 294 L 356.5 292 L 358 293.5 L 358 307.5 Q 353.7 311.2 345.5 311 L 344 309.5 L 344 295.5 L 342.5 294 L 328 295 L 327 278.5 L 335.5 276 Z " /><path fill="rgb(8,8,8)" stroke="rgb(8,8,8)" stroke-width="0.6" opacity="1" d="M 297.5 280 L 301.5 281 L 309.5 280 L 311 281.5 L 311 298 L 299.5 299 L 297.5 301 L 296 299.5 L 296 281.5 L 297.5 280 Z " /><path fill="rgb(8,8,8)" stroke="rgb(8,8,8)" stroke-width="0.6" opacity="1" d="M 191.5 284 L 193 284.5 L 186 290.5 L 184.5 293 L 185 291.5 L 188.5 286 L 191.5 284 Z " /><path fill="rgb(8,8,8)" stroke="rgb(8,8,8)" stroke-width="0.6" opacity="1" d="M 74 293 Q 77.3 291.7 76 296.5 Q 74.5 305.5 68.5 310 L 68 307.5 Q 73.9 302.7 74 293 Z " /><path fill="rgb(8,8,8)" stroke="rgb(8,8,8)" stroke-width="0.6" opacity="1" d="M 319.5 297 L 327 297 L 327 312.5 L 325.5 314 L 313.5 316 L 312 314.5 L 312 298 L 319.5 297 Z " /><path fill="rgb(8,8,8)" stroke="rgb(8,8,8)" stroke-width="0.6" opacity="1" d="M 153.5 304 L 155 307 L 157 307.5 L 150 313.5 L 148.5 315 L 135.5 323 L 126.5 324 L 127.5 322 L 135.5 321 L 147 315 L 148.5 312 L 152 309.5 L 154 306.5 L 153.5 304 Z " /><path fill="rgb(8,8,8)" stroke="rgb(8,8,8)" stroke-width="0.6" opacity="1" d="M 207.5 312 L 207 313.5 L 202.5 319 L 200.5 320 L 207.5 312 Z " /><path fill="rgb(8,8,8)" stroke="rgb(8,8,8)" stroke-width="0.6" opacity="1" d="M 99.5 314 L 110.5 320 L 122 322 Q 123.4 326 116.5 324 L 102.5 318 L 99.5 314 Z " /><path fill="rgb(8,8,8)" stroke="rgb(8,8,8)" stroke-width="0.6" opacity="1" d="M 429.5 320 L 435 322.5 L 436 324.5 L 433.5 323 L 427.5 322 L 423 325.5 L 425.5 322 L 429.5 320 Z " /><path fill="rgb(8,8,8)" stroke="rgb(8,8,8)" stroke-width="0.6" opacity="1" d="M 81.5 339 L 98 341 Q 99.3 344.7 93.5 343 L 82.5 341 L 81.5 339 Z " /><path fill="rgb(8,8,8)" stroke="rgb(8,8,8)" stroke-width="0.6" opacity="1" d="M 107.5 343 L 136.5 345 L 138 346.5 L 125.5 347 L 108.5 345 L 107.5 343 Z " /><path fill="rgb(8,8,8)" stroke="rgb(8,8,8)" stroke-width="0.6" opacity="1" d="M 266.5 343 Q 272.9 343.7 275 348.5 L 276 351.5 L 273 349.5 L 270.5 346 L 266.5 345 L 260 349.5 L 258.5 352 L 259 350.5 L 262.5 345 L 266.5 343 Z " /><path fill="rgb(8,8,8)" stroke="rgb(8,8,8)" stroke-width="0.6" opacity="1" d="M 420 348 Q 423 346.8 422 350.5 Q 422.8 355.8 429.5 355 L 433 352.5 L 435.5 349 L 435 350.5 L 431.5 356 L 427.5 357 L 422 353.5 L 420 348 Z " /><path fill="rgb(8,8,8)" stroke="rgb(8,8,8)" stroke-width="0.6" opacity="1" d="M 255 374 Q 258 372.8 257 376.5 L 260.5 382 L 264 383 L 262.5 385 L 257 380.5 L 255 374 Z " /><path fill="rgb(8,8,8)" stroke="rgb(8,8,8)" stroke-width="0.6" opacity="1" d="M 273.5 377 L 273 378.5 L 269.5 384 L 266 385 L 267.5 383 L 273.5 377 Z " /><path fill="rgb(48,52,51)" stroke="rgb(48,52,51)" stroke-width="0.6" opacity="1" d="M 271.5 100 L 285 100.5 L 271.5 101 L 271.5 100 Z " /><path fill="rgb(48,52,51)" stroke="rgb(48,52,51)" stroke-width="0.6" opacity="1" d="M 224.5 132 L 243 132.5 L 224.5 133 L 224.5 132 Z " /><path fill="rgb(48,52,51)" stroke="rgb(48,52,51)" stroke-width="0.6" opacity="1" d="M 363 159 L 376.5 162 L 382 166.5 Q 379.3 168.3 383.5 170 L 386 170.5 L 394 182.5 L 393 185.5 L 396 186.5 L 399 193.5 L 398.5 195 L 400 196.5 L 403 203.5 L 402 207 L 405 208.5 L 409 221.5 L 409 226.5 L 406 227.5 L 406.5 229 L 404.5 230 L 404 228 L 400.5 230 L 399 230.5 L 397 229 Q 398.3 232 394.5 231 L 383 233 Q 384.1 229.7 380 231 L 378.5 234 L 377 232 L 372.5 232 L 372.5 234 L 370 229.5 L 367 212.5 L 369 211.5 L 367 211 L 364 188.5 L 364.5 187 Q 361.9 187.8 363 184.5 L 363.5 183 Q 360.1 183.9 362 178.5 L 358 162.5 L 359.5 160 L 363 161 L 363 159 Z " /><path fill="rgb(48,52,51)" stroke="rgb(48,52,51)" stroke-width="0.6" opacity="1" d="M 231.5 194 L 232 196 Q 243 194.2 246 201.5 L 243.5 206 L 238 204 L 237.5 202 L 237 204 Q 230.5 203.8 228 208.5 L 224 213.5 L 225 215.5 L 224 218 L 222 218.5 L 224 219 Q 223 226.3 226 230.5 L 222.5 231 L 219 229.5 L 217 224 L 214 222.5 L 215 214 Q 218 215.3 217 211.5 L 218 208.5 L 217 206.5 L 220 205.5 L 219 203.5 L 225 201.5 L 225.5 199 L 230 196.5 L 228 195.5 L 231.5 194 Z " /><path fill="rgb(48,52,51)" stroke="rgb(48,52,51)" stroke-width="0.6" opacity="1" d="M 182.5 206 L 188 207.5 L 189 210.5 L 186.5 215 Q 181 216 180 212.5 Q 179 207 182.5 206 Z " /><path fill="rgb(48,52,51)" stroke="rgb(48,52,51)" stroke-width="0.6" opacity="1" d="M 220.5 232 L 228 234 L 226.5 236 L 220.5 232 Z " /><path fill="rgb(48,52,51)" stroke="rgb(48,52,51)" stroke-width="0.6" opacity="1" d="M 59 268 L 64 268 L 65.5 270 Q 67.3 267.3 69 271.5 L 70.5 273 L 74 279.5 L 72 280.5 L 74 281 L 75 290.5 Q 73.1 305.1 63.5 312 L 59.5 313 L 56 312 L 55.5 314 L 48 309.5 L 47 307.5 L 50 306.5 L 48 299.5 L 50 284.5 L 49 281.5 L 52 280.5 L 57 274.5 L 56.5 273 L 59 271.5 L 59 268 Z M 61 271 L 61 273 Q 57 271 58 275 L 58 276 L 63 276 L 62 273 L 64 273 L 61 271 Z M 65 275 L 65 277 Q 64 280 68 278 L 68 280 L 70 279 Q 68 275 66 277 L 65 275 Z M 65 302 L 60 306 L 58 306 L 55 307 L 56 309 L 59 309 L 65 305 L 65 302 Z " /><path fill="rgb(48,52,51)" stroke="rgb(48,52,51)" stroke-width="0.6" opacity="1" d="M 399.5 286 L 401 287.5 L 401 302.5 L 400 302.5 L 400 287.5 L 399.5 286 Z " /><path fill="rgb(48,52,51)" stroke="rgb(48,52,51)" stroke-width="0.6" opacity="1" d="M 312.5 296 L 317 297.5 L 307.5 299 L 307.5 298 Q 312.9 299.7 312.5 296 Z " /><path fill="rgb(48,52,51)" stroke="rgb(48,52,51)" stroke-width="0.6" opacity="1" d="M 428.5 301 L 434.5 301 L 436.5 303 Q 438 300.5 439.5 304 L 441 304.5 L 441.5 307 L 443 306.5 L 444 311 L 446 311.5 L 445.5 313 L 447 313.5 L 446 316.5 L 450 323.5 L 451 339.5 L 449 349 Q 446 348 447 351 L 449 351.5 L 446 353.5 L 448 354.5 L 444.5 362 L 442 362.5 L 443 365.5 L 440 366.5 L 437.5 372 L 432.5 375 L 431 374.5 L 429.5 377 L 428 375 L 424 375 L 423.5 377 L 412 367.5 L 412.5 366 Q 409.9 366.8 411 363.5 L 408 356 L 410 355.5 L 406.5 354 L 405 354.5 Q 403.8 349.9 409 352 L 409 349 L 407 349 L 407 343 L 409 341.5 L 409 339.5 L 410 329.5 L 411.5 328 L 413 326 L 411 325.5 L 416 316.5 L 415.5 315 L 418 314.5 L 420.5 307 Q 422.3 309.8 424 305.5 L 423.5 304 L 428.5 301 Z M 428 320 L 424 322 L 423 325 L 424 328 L 419 329 L 420 332 L 419 335 Q 418 338 421 337 L 421 343 L 419 343 L 422 353 L 421 355 L 426 357 Q 434 358 435 353 L 434 350 L 436 350 L 438 346 L 436 343 L 440 340 L 441 340 L 441 333 L 438 332 L 436 329 L 439 330 L 440 329 L 437 327 L 436 321 L 428 320 Z " /><path fill="rgb(48,52,51)" stroke="rgb(48,52,51)" stroke-width="0.6" opacity="1" d="M 44.5 330 L 47 331 L 47.5 333 L 49.5 333 L 69.5 339 L 79 340 L 79.5 342 L 83 341 L 83.5 343 L 84.5 341 L 89.5 343 L 104 344 L 104.5 346 L 105.5 344 L 110 345 Q 109 348 112 347 L 113.5 345 L 118 346 Q 117 349 120 348 Q 118.8 345 122.5 346 L 139.5 349 L 148.5 348 L 152.5 349 L 154 348.5 Q 153.2 351.5 157 350 L 157.5 348 L 168.5 348 Q 167.7 344.2 175 346 L 175.5 348 L 187.5 348 L 189.5 350 Q 193.5 347 201.5 348 L 204.5 349 L 207.5 347 L 218 346 Q 217 349 220 348 L 220.5 346 Q 225.3 348.2 224 356.5 L 222 369 L 220 369.5 Q 222.7 371.3 218.5 373 L 188 376 L 187.5 374 L 163 374 Q 164.3 377.7 158.5 376 L 125.5 373 L 122.5 374 L 116 373 L 115.5 371 L 115 373 L 109 372 Q 110.1 368.7 106 370 L 105.5 372 L 102 371 L 101.5 369 L 101 371 L 86 369 L 85.5 367 L 84.5 369 L 81 368 L 80.5 366 L 79.5 368 L 77 367 L 76.5 365 L 75.5 367 L 55.5 362 L 49.5 358 L 47.5 358 L 42 353.5 Q 44.5 352 41 350.5 L 39 338.5 L 41 331 L 44.5 330 Z " /><path fill="rgb(48,52,51)" stroke="rgb(48,52,51)" stroke-width="0.6" opacity="1" d="M 426.5 333 L 429 333.5 L 427 335.5 L 426.5 345 Q 423 343 425 335.5 L 426.5 333 Z " /><path fill="rgb(48,52,51)" stroke="rgb(48,52,51)" stroke-width="0.6" opacity="1" d="M 268.5 357 Q 271.7 359.3 271 365.5 L 269.5 370 L 268 367.5 L 269 360.5 L 268.5 357 Z " /><path fill="rgb(48,52,51)" stroke="rgb(48,52,51)" stroke-width="0.6" opacity="1" d="M 65.5 368 L 80 371 L 80.5 373 L 81.5 371 L 85 372 L 85.5 374 L 86.5 372 Q 95 375.9 107 375 L 107.5 377 L 108 375 L 114 376 Q 112.8 379.7 118 378 L 118.5 376 L 122 377 L 123 380.5 Q 116.2 387.9 104 389 L 103.5 387 L 95 387 Q 96.3 390 92.5 389 L 84 387 L 82.5 384 L 81.5 386 Q 71.4 382.1 66 373.5 L 65 371.5 L 67 371 L 65.5 369 L 64 369.5 L 65.5 368 Z " /><path fill="rgb(48,52,51)" stroke="rgb(48,52,51)" stroke-width="0.6" opacity="1" d="M 164.5 379 L 188 379.5 L 164.5 380 L 164.5 379 Z " /><path fill="rgb(243,193,52)" stroke="rgb(243,193,52)" stroke-width="0.6" opacity="1" d="M 282 105 L 291.5 106 L 297 109.5 L 306 130.5 Q 299.5 134.3 289 133 L 285 112.5 L 282 105 Z " /><path fill="rgb(243,193,52)" stroke="rgb(243,193,52)" stroke-width="0.6" opacity="1" d="M 324.5 160 L 342.5 160 L 344 161.5 Q 353.1 193.9 355 233.5 L 349.5 236 L 334.5 237 L 333 235.5 L 332 223.5 L 324.5 215 Q 316.9 211.1 303.5 213 L 294 217 L 302 177.5 Q 304.1 168.6 310.5 164 L 324.5 160 Z " /><path fill="rgb(243,193,52)" stroke="rgb(243,193,52)" stroke-width="0.6" opacity="1" d="M 114.5 206 Q 120.5 204.5 122 207.5 L 112.5 230 L 107.5 231 Q 102.7 227.3 105 216.5 L 111.5 207 L 114.5 206 Z " /><path fill="rgb(243,193,52)" stroke="rgb(243,193,52)" stroke-width="0.6" opacity="1" d="M 358.5 255 L 360 260 L 348.5 261 L 347 258.5 L 350.5 256 L 358.5 255 Z " /><path fill="rgb(243,193,52)" stroke="rgb(243,193,52)" stroke-width="0.6" opacity="1" d="M 428.5 280 Q 443.9 279.1 449 288.5 Q 459.2 301.8 457 327.5 L 456 327.5 L 449 305.5 L 440.5 297 L 429.5 296 L 419 302.5 L 411 314.5 L 405 338.5 L 401.5 344 L 394 345 L 398 319.5 L 402 307.5 Q 407.1 294.6 416.5 286 L 428.5 280 Z " /><path fill="rgb(243,193,52)" stroke="rgb(243,193,52)" stroke-width="0.6" opacity="1" d="M 395.5 287 L 400 288.5 L 400 302.5 L 394 317.5 L 391 340.5 L 388.5 346 L 305.5 361 L 304 358.5 L 305 348.5 L 306.5 347 L 366.5 337 L 371 333.5 L 374 325.5 L 375 308.5 L 376.5 307 L 386.5 306 L 388 304.5 L 388 289.5 L 389.5 288 L 395.5 287 Z " /><path fill="rgb(243,193,52)" stroke="rgb(243,193,52)" stroke-width="0.6" opacity="1" d="M 233.5 374 Q 238.1 372.6 236 378.5 Q 238.4 396.1 249.5 405 L 251 407 L 234.5 404 Q 226.4 401.1 222 394.5 L 216 379.5 L 220.5 376 Q 229.5 377.5 233.5 374 Z " /><path fill="rgb(24,26,27)" stroke="rgb(24,26,27)" stroke-width="0.6" opacity="1" d="M 238.5 100 L 271 100.5 L 238.5 101 L 238.5 100 Z " /><path fill="rgb(24,26,27)" stroke="rgb(24,26,27)" stroke-width="0.6" opacity="1" d="M 220.5 101 L 232 101.5 L 220.5 102 L 220.5 101 Z " /><path fill="rgb(24,26,27)" stroke="rgb(24,26,27)" stroke-width="0.6" opacity="1" d="M 223.5 103 L 232 103.5 L 222.5 105 L 223.5 103 Z " /><path fill="rgb(24,26,27)" stroke="rgb(24,26,27)" stroke-width="0.6" opacity="1" d="M 257.5 133 L 269.5 133 L 270 134.5 L 268.5 134 L 257.5 134 L 257.5 133 Z " /><path fill="rgb(24,26,27)" stroke="rgb(24,26,27)" stroke-width="0.6" opacity="1" d="M 157.5 155 L 152.5 161 L 157.5 155 Z " /><path fill="rgb(24,26,27)" stroke="rgb(24,26,27)" stroke-width="0.6" opacity="1" d="M 239.5 195 Q 245.1 195.5 247 199.5 L 249 205 L 247 203.5 L 242.5 198 L 239.5 195 Z " /><path fill="rgb(24,26,27)" stroke="rgb(24,26,27)" stroke-width="0.6" opacity="1" d="M 115.5 204 Q 122.8 202.8 124 207.5 L 120.5 205 Q 114.5 206.3 115.5 204 Z " /><path fill="rgb(24,26,27)" stroke="rgb(24,26,27)" stroke-width="0.6" opacity="1" d="M 245.5 208 L 247 213 Q 251.1 211.3 250 215.5 L 249 215.5 L 247.5 214 L 245 213 L 244 210.5 L 245.5 208 Z " /><path fill="rgb(24,26,27)" stroke="rgb(24,26,27)" stroke-width="0.6" opacity="1" d="M 225.5 228 L 229 235 L 233 235.5 L 228 236 L 225.5 228 Z " /><path fill="rgb(24,26,27)" stroke="rgb(24,26,27)" stroke-width="0.6" opacity="1" d="M 416 244 Q 419.8 242.5 419 245.5 L 421 246.5 L 420 244.5 L 422 245.5 Q 423.1 248.8 420.5 248 L 416 246 L 416 244 Z " /><path fill="rgb(24,26,27)" stroke="rgb(24,26,27)" stroke-width="0.6" opacity="1" d="M 254.5 252 L 253.5 254 L 245.5 259 L 245.5 258 L 254.5 252 Z " /><path fill="rgb(24,26,27)" stroke="rgb(24,26,27)" stroke-width="0.6" opacity="1" d="M 64.5 257 L 59.5 263 L 64.5 257 Z " /><path fill="rgb(24,26,27)" stroke="rgb(24,26,27)" stroke-width="0.6" opacity="1" d="M 241.5 261 L 243 261.5 L 236.5 266 L 237.5 264 L 241.5 261 Z " /><path fill="rgb(24,26,27)" stroke="rgb(24,26,27)" stroke-width="0.6" opacity="1" d="M 65.5 266 L 73 271.5 L 69 273 L 67 269.5 L 66.5 267 L 65.5 266 Z " /><path fill="rgb(24,26,27)" stroke="rgb(24,26,27)" stroke-width="0.6" opacity="1" d="M 468.5 272 L 470 284.5 L 469 284.5 L 468.5 272 Z " /><path fill="rgb(24,26,27)" stroke="rgb(24,26,27)" stroke-width="0.6" opacity="1" d="M 465.5 273 Q 468.3 275.7 467 282.5 L 466 282.5 L 465.5 273 Z " /><path fill="rgb(24,26,27)" stroke="rgb(24,26,27)" stroke-width="0.6" opacity="1" d="M 227.5 274 L 228 275.5 L 220.5 286 L 219.5 284 L 222 282.5 L 227.5 274 Z " /><path fill="rgb(24,26,27)" stroke="rgb(24,26,27)" stroke-width="0.6" opacity="1" d="M 74 282 L 77 282.5 L 77 291.5 L 74 293 L 75 285.5 L 74 282 Z " /><path fill="rgb(24,26,27)" stroke="rgb(24,26,27)" stroke-width="0.6" opacity="1" d="M 205 283 L 209 285.5 L 208.5 287 L 211 288.5 L 212 293 Q 209 294.3 210 290.5 L 205 283 Z " /><path fill="rgb(24,26,27)" stroke="rgb(24,26,27)" stroke-width="0.6" opacity="1" d="M 466.5 286 L 467 298.5 L 466 298.5 L 466.5 286 Z " /><path fill="rgb(24,26,27)" stroke="rgb(24,26,27)" stroke-width="0.6" opacity="1" d="M 41.5 288 L 42 300.5 L 41 300.5 L 40 292.5 L 41.5 288 Z " /><path fill="rgb(24,26,27)" stroke="rgb(24,26,27)" stroke-width="0.6" opacity="1" d="M 43.5 289 L 45 300.5 L 43 299.5 L 43.5 289 Z " /><path fill="rgb(24,26,27)" stroke="rgb(24,26,27)" stroke-width="0.6" opacity="1" d="M 359.5 290 L 360 291.5 L 359 292.5 L 359 307.5 L 357.5 309 L 358 307.5 L 358 293.5 L 357 292.5 L 359.5 290 Z " /><path fill="rgb(24,26,27)" stroke="rgb(24,26,27)" stroke-width="0.6" opacity="1" d="M 184.5 291 L 184.5 294 L 183 294.5 L 184 296.5 L 182 303 L 180 302.5 L 184.5 291 Z " /><path fill="rgb(24,26,27)" stroke="rgb(24,26,27)" stroke-width="0.6" opacity="1" d="M 342.5 294 L 344 295.5 L 344 305.5 L 343 305.5 L 342.5 294 Z " /><path fill="rgb(24,26,27)" stroke="rgb(24,26,27)" stroke-width="0.6" opacity="1" d="M 299.5 299 L 298 301.5 L 297.5 318 Q 298 312.9 295 311.5 L 296.5 300 Q 298 302.5 299.5 299 Z " /><path fill="rgb(24,26,27)" stroke="rgb(24,26,27)" stroke-width="0.6" opacity="1" d="M 65.5 301 L 65 302.5 L 62.5 307 L 59.5 308 L 59 306 L 65.5 301 Z " /><path fill="rgb(24,26,27)" stroke="rgb(24,26,27)" stroke-width="0.6" opacity="1" d="M 89.5 301 L 93 302.5 L 96 307.5 L 94 307.5 L 93.5 309 L 89.5 301 Z " /><path fill="rgb(24,26,27)" stroke="rgb(24,26,27)" stroke-width="0.6" opacity="1" d="M 210.5 305 L 212 305.5 L 211 308 L 209 308.5 L 210 310.5 L 207 312.5 L 207.5 314 Q 204.5 312.5 207.5 311 L 209 310.5 L 208 308.5 L 210.5 305 Z " /><path fill="rgb(24,26,27)" stroke="rgb(24,26,27)" stroke-width="0.6" opacity="1" d="M 180 307 Q 183 305.8 182 309.5 L 185 315.5 Q 183.5 318.5 182 315.5 L 180 307 Z " /><path fill="rgb(24,26,27)" stroke="rgb(24,26,27)" stroke-width="0.6" opacity="1" d="M 244.5 307 L 248 308.5 L 242 313.5 L 240.5 316 L 239 313.5 L 244.5 307 Z " /><path fill="rgb(24,26,27)" stroke="rgb(24,26,27)" stroke-width="0.6" opacity="1" d="M 67.5 308 L 68.5 310 L 71 308.5 L 67 311.5 L 66.5 310 L 65 310.5 L 67.5 308 Z " /><path fill="rgb(24,26,27)" stroke="rgb(24,26,27)" stroke-width="0.6" opacity="1" d="M 258.5 322 L 257 324.5 L 258 326.5 L 254 329.5 L 256.5 326 L 252 328.5 L 251.5 330 L 251 328.5 L 258.5 322 Z " /><path fill="rgb(24,26,27)" stroke="rgb(24,26,27)" stroke-width="0.6" opacity="1" d="M 433.5 323 L 437 324.5 L 438 329 L 436 327.5 L 433.5 323 Z " /><path fill="rgb(24,26,27)" stroke="rgb(24,26,27)" stroke-width="0.6" opacity="1" d="M 137.5 345 L 145 346 Q 146.3 349.7 140.5 348 L 136.5 349 L 134 347.5 L 138 346.5 L 137.5 345 Z " /><path fill="rgb(24,26,27)" stroke="rgb(24,26,27)" stroke-width="0.6" opacity="1" d="M 203.5 345 L 205 345.5 L 204.5 347 L 207 347.5 L 202.5 349 L 199 348 Q 197.7 344.7 202.5 346 L 203.5 345 Z " /><path fill="rgb(24,26,27)" stroke="rgb(24,26,27)" stroke-width="0.6" opacity="1" d="M 154 346 L 168.5 346 L 169 348 L 154.5 348 L 154 346 Z " /><path fill="rgb(24,26,27)" stroke="rgb(24,26,27)" stroke-width="0.6" opacity="1" d="M 175 346 L 189.5 346 Q 188.5 349 193.5 348 L 193.5 349 L 175 348 L 175 346 Z " /><path fill="rgb(24,26,27)" stroke="rgb(24,26,27)" stroke-width="0.6" opacity="1" d="M 258.5 349 L 259 350.5 L 258.5 353 L 257 353.5 L 258 355.5 L 256 354.5 L 258.5 349 Z " /><path fill="rgb(24,26,27)" stroke="rgb(24,26,27)" stroke-width="0.6" opacity="1" d="M 291.5 350 L 293 360.5 L 291.5 364 L 291.5 350 Z " /><path fill="rgb(24,26,27)" stroke="rgb(24,26,27)" stroke-width="0.6" opacity="1" d="M 408 361 L 410 362.5 L 412 366.5 L 410 367.5 L 410.5 366 L 409 364.5 L 408 361 Z " /><path fill="rgb(24,26,27)" stroke="rgb(24,26,27)" stroke-width="0.6" opacity="1" d="M 262 368 L 264 368 Q 262.5 371.8 265.5 371 L 269 368.5 Q 270.1 371.8 267.5 371 L 264.5 372 L 262 368 Z " /><path fill="rgb(24,26,27)" stroke="rgb(24,26,27)" stroke-width="0.6" opacity="1" d="M 412.5 368 L 417.5 374 L 413.5 370 L 411 369.5 L 412.5 368 Z " /><path fill="rgb(24,26,27)" stroke="rgb(24,26,27)" stroke-width="0.6" opacity="1" d="M 274.5 373 L 276 375.5 L 273.5 380 L 272 377.5 L 275 375.5 L 274.5 373 Z " /><path fill="rgb(24,26,27)" stroke="rgb(24,26,27)" stroke-width="0.6" opacity="1" d="M 98.5 374 L 109 374.5 L 98.5 375 L 98.5 374 Z " /><path fill="rgb(24,26,27)" stroke="rgb(24,26,27)" stroke-width="0.6" opacity="1" d="M 152 375 L 158.5 376 L 191.5 376 L 197 375 L 196.5 377 L 152 377 L 152 375 Z " /><path fill="rgb(24,26,27)" stroke="rgb(24,26,27)" stroke-width="0.6" opacity="1" d="M 148.5 378 L 201 378.5 L 148.5 379 L 148.5 378 Z " /><path fill="rgb(75,77,75)" stroke="rgb(75,77,75)" stroke-width="0.6" opacity="1" d="M 218.5 136 L 250 136.5 L 218.5 137 L 218.5 136 Z " /><path fill="rgb(75,77,75)" stroke="rgb(75,77,75)" stroke-width="0.6" opacity="1" d="M 382.5 162 L 387.5 168 L 382.5 162 Z " /><path fill="rgb(75,77,75)" stroke="rgb(75,77,75)" stroke-width="0.6" opacity="1" d="M 61 271 L 64 272.5 L 62 273 L 64 276.5 L 62.5 276 L 57 275.5 L 58 273 Q 62.1 274.3 61 271 Z " /><path fill="rgb(75,77,75)" stroke="rgb(75,77,75)" stroke-width="0.6" opacity="1" d="M 327.5 297 L 328 312.5 L 327 312.5 L 327.5 297 Z " /><path fill="rgb(75,77,75)" stroke="rgb(75,77,75)" stroke-width="0.6" opacity="1" d="M 41.5 311 L 42 324.5 L 38 327.5 L 41 324.5 L 41.5 311 Z " /><path fill="rgb(75,77,75)" stroke="rgb(75,77,75)" stroke-width="0.6" opacity="1" d="M 163 374 L 187.5 374 L 188 376 L 163.5 376 L 163 374 Z " /><path fill="rgb(165,58,55)" stroke="rgb(165,58,55)" stroke-width="0.6" opacity="1" d="M 200.5 137 L 213 137.5 L 200.5 138 L 200.5 137 Z " /><path fill="rgb(165,58,55)" stroke="rgb(165,58,55)" stroke-width="0.6" opacity="1" d="M 254.5 137 L 265 137.5 L 254.5 138 L 254.5 137 Z " /><path fill="rgb(165,58,55)" stroke="rgb(165,58,55)" stroke-width="0.6" opacity="1" d="M 200.5 151 L 211 151.5 L 200.5 152 L 200.5 151 Z " /><path fill="rgb(165,58,55)" stroke="rgb(165,58,55)" stroke-width="0.6" opacity="1" d="M 226.5 151 L 238 151.5 L 226.5 152 L 226.5 151 Z " /><path fill="rgb(165,58,55)" stroke="rgb(165,58,55)" stroke-width="0.6" opacity="1" d="M 371.5 263 L 372 270.5 L 366.5 272 L 366.5 271 L 371 271 L 371.5 263 Z " /><path fill="rgb(165,58,55)" stroke="rgb(165,58,55)" stroke-width="0.6" opacity="1" d="M 374.5 264 L 375 276.5 L 374 276.5 L 374.5 264 Z " /><path fill="rgb(165,58,55)" stroke="rgb(165,58,55)" stroke-width="0.6" opacity="1" d="M 397.5 267 L 401 268.5 L 400.5 277 L 400 269.5 L 398.5 268 L 397.5 267 Z " /><path fill="rgb(165,58,55)" stroke="rgb(165,58,55)" stroke-width="0.6" opacity="1" d="M 427.5 267 L 428 275 L 436 275.5 L 428.5 276 Q 424.9 273.9 427.5 267 Z " /><path fill="rgb(165,58,55)" stroke="rgb(165,58,55)" stroke-width="0.6" opacity="1" d="M 359.5 272 L 363 272.5 L 358 274.5 L 357.5 284 L 357 274.5 L 359.5 272 Z " /><path fill="rgb(165,58,55)" stroke="rgb(165,58,55)" stroke-width="0.6" opacity="1" d="M 185.5 278 L 180.5 284 L 185.5 278 Z " /><path fill="rgb(165,58,55)" stroke="rgb(165,58,55)" stroke-width="0.6" opacity="1" d="M 326.5 282 L 327 294.5 L 323.5 296 L 323.5 295 L 326 294.5 L 326.5 282 Z " /><path fill="rgb(165,58,55)" stroke="rgb(165,58,55)" stroke-width="0.6" opacity="1" d="M 465.5 288 L 466 298.5 L 465 298.5 L 465.5 288 Z " /><path fill="rgb(165,58,55)" stroke="rgb(165,58,55)" stroke-width="0.6" opacity="1" d="M 360.5 292 L 360 293.5 L 360 308.5 L 358.5 310 L 359 308.5 L 359 293.5 L 360.5 292 Z " /><path fill="rgb(165,58,55)" stroke="rgb(165,58,55)" stroke-width="0.6" opacity="1" d="M 310.5 299 L 312 300.5 L 312 314.5 L 313.5 316 L 315 316.5 L 312.5 317 L 311 315.5 L 311 300.5 L 310.5 299 Z " /><path fill="rgb(165,58,55)" stroke="rgb(165,58,55)" stroke-width="0.6" opacity="1" d="M 245.5 305 L 238.5 313 L 245.5 305 Z " /><path fill="rgb(165,58,55)" stroke="rgb(165,58,55)" stroke-width="0.6" opacity="1" d="M 158.5 345 L 187 345.5 L 158.5 346 L 158.5 345 Z " /><path fill="rgb(114,59,55)" stroke="rgb(114,59,55)" stroke-width="0.6" opacity="1" d="M 211.5 151 L 226 151.5 L 211.5 152 L 211.5 151 Z " /><path fill="rgb(114,59,55)" stroke="rgb(114,59,55)" stroke-width="0.6" opacity="1" d="M 390.5 159 L 395.5 165 L 390.5 159 Z " /><path fill="rgb(114,59,55)" stroke="rgb(114,59,55)" stroke-width="0.6" opacity="1" d="M 374.5 277 L 375 288 L 378 288.5 L 375.5 289 L 374 287.5 L 374.5 277 Z " /><path fill="rgb(114,59,55)" stroke="rgb(114,59,55)" stroke-width="0.6" opacity="1" d="M 151.5 308 L 146.5 314 L 151.5 308 Z " /><path fill="rgb(89,118,125)" stroke="rgb(89,118,125)" stroke-width="0.6" opacity="1" d="M 234.5 104 L 269 104.5 L 234.5 105 L 234.5 104 Z " /><path fill="rgb(89,118,125)" stroke="rgb(89,118,125)" stroke-width="0.6" opacity="1" d="M 209.5 155 L 230 155.5 L 209.5 156 L 209.5 155 Z " /><path fill="rgb(89,118,125)" stroke="rgb(89,118,125)" stroke-width="0.6" opacity="1" d="M 171.5 196 L 166.5 202 L 171.5 196 Z " /><path fill="rgb(89,118,125)" stroke="rgb(89,118,125)" stroke-width="0.6" opacity="1" d="M 176.5 301 L 177 311.5 L 176 311.5 L 176.5 301 Z " /><path fill="rgb(89,118,125)" stroke="rgb(89,118,125)" stroke-width="0.6" opacity="1" d="M 285.5 307 L 291.5 314 L 285.5 307 Z " /><path fill="rgb(89,118,125)" stroke="rgb(89,118,125)" stroke-width="0.6" opacity="1" d="M 461.5 313 L 462 324.5 L 461 324.5 L 461.5 313 Z " /><path fill="rgb(89,118,125)" stroke="rgb(89,118,125)" stroke-width="0.6" opacity="1" d="M 290.5 351 L 291 363.5 L 290 363.5 L 290.5 351 Z " /><path fill="rgb(203,84,82)" stroke="rgb(203,84,82)" stroke-width="0.6" opacity="1" d="M 228.5 105 L 273 105.5 L 228.5 106 L 228.5 105 Z " /><path fill="rgb(203,84,82)" stroke="rgb(203,84,82)" stroke-width="0.6" opacity="1" d="M 219.5 137 L 249 137.5 L 219.5 138 L 219.5 137 Z " /><path fill="rgb(203,84,82)" stroke="rgb(203,84,82)" stroke-width="0.6" opacity="1" d="M 233.5 266 L 228.5 272 L 233.5 266 Z " /><path fill="rgb(203,84,82)" stroke="rgb(203,84,82)" stroke-width="0.6" opacity="1" d="M 294.5 281 L 295 297.5 L 294 297.5 L 294.5 281 Z " /><path fill="rgb(203,84,82)" stroke="rgb(203,84,82)" stroke-width="0.6" opacity="1" d="M 328.5 298 L 329 313.5 L 328 313.5 L 328.5 298 Z " /><path fill="rgb(208,208,208)" stroke="rgb(208,208,208)" stroke-width="0.6" opacity="1" d="M 235.5 99 L 280 99.5 L 235.5 100 L 235.5 99 Z " /><path fill="rgb(208,208,208)" stroke="rgb(208,208,208)" stroke-width="0.6" opacity="1" d="M 394.5 156 L 400.5 163 L 394.5 156 Z " /><path fill="rgb(208,208,208)" stroke="rgb(208,208,208)" stroke-width="0.6" opacity="1" d="M 54.5 273 L 50 278.5 L 48 285 L 46 283.5 L 51.5 274 Q 53 276.5 54.5 273 Z " /><path fill="rgb(158,158,158)" stroke="rgb(158,158,158)" stroke-width="0.6" opacity="1" d="M 470.5 289 Q 469.3 298.3 475 300.5 L 470 296.5 L 470.5 289 Z " /><path fill="rgb(190,166,52)" stroke="rgb(190,166,52)" stroke-width="0.6" opacity="1" d="M 330.5 159 L 341 159.5 L 330.5 160 L 330.5 159 Z " /><path fill="rgb(190,166,52)" stroke="rgb(190,166,52)" stroke-width="0.6" opacity="1" d="M 388.5 288 L 388 289.5 L 388 304.5 L 386.5 306 L 387 304.5 L 387 289.5 L 388.5 288 Z " /><path fill="rgb(190,166,52)" stroke="rgb(190,166,52)" stroke-width="0.6" opacity="1" d="M 244.5 399 L 249.5 405 L 244.5 399 Z " /><path fill="rgb(133,121,57)" stroke="rgb(133,121,57)" stroke-width="0.6" opacity="1" d="M 305.5 346 L 305 347.5 L 304.5 356 L 304 347.5 L 305.5 346 Z " /></svg>