<svg width="627" height="627" preserveAspectRatio="xMidYMid meet" viewBox="0 0 512 512" version="1.1" xmlns="http://www.w3.org/2000/svg" ><path fill="rgb(255,255,255)" stroke="rgb(255,255,255)" stroke-width="0.6" opacity="1" d="M 0 0 L 512 0 L 512 512 L 0 512 L 0 0 Z M 220 100 L 215 102 L 208 111 L 203 131 L 202 132 L 191 133 L 175 138 L 158 148 Q 136 167 126 198 L 124 200 Q 113 198 108 202 L 100 211 L 98 220 Q 97 228 101 232 L 76 243 L 63 252 L 44 274 L 40 285 L 40 304 L 41 305 L 41 324 Q 35 327 34 335 Q 33 348 37 356 Q 43 365 57 367 L 64 380 Q 73 391 91 394 Q 113 396 125 387 L 132 379 L 145 379 L 146 380 L 203 380 L 209 379 L 217 399 L 228 408 L 239 412 L 265 412 L 280 405 Q 294 394 295 371 L 305 366 L 315 366 L 334 361 L 344 361 L 352 358 L 378 355 L 387 374 Q 393 380 403 383 L 428 383 L 439 378 Q 455 367 455 340 L 471 333 Q 477 328 478 318 Q 481 301 471 297 L 470 268 L 468 260 Q 465 246 457 238 Q 449 227 434 223 L 428 217 L 414 181 L 401 162 L 384 147 L 364 138 L 339 132 L 314 130 L 302 106 L 294 100 L 220 100 Z " /><path fill="rgb(211,60,56)" stroke="rgb(211,60,56)" stroke-width="0.6" opacity="1" d="M 226.5 105 L 273.5 105 L 279 109.5 L 284 133 L 271.5 132 L 269.5 133 L 268.5 132 L 211.5 132 L 210 130.5 L 214 113.5 L 219.5 107 L 226.5 105 Z " /><path fill="rgb(211,60,56)" stroke="rgb(211,60,56)" stroke-width="0.6" opacity="1" d="M 311.5 136 L 330.5 137 L 367.5 146 Q 384.6 151.9 395 164.5 L 406 180.5 L 417 202.5 L 422 218.5 L 428.5 227 Q 444.2 231.8 453 243.5 Q 460.5 252.5 463 266.5 L 464 298.5 L 460.5 300 L 455 287.5 L 448.5 280 L 438.5 275 Q 430.3 277.3 428 273.5 Q 430 265 425.5 263 L 416.5 264 L 412 266.5 L 413 281.5 L 411.5 283 L 403 283 Q 405.1 271.6 399.5 267 Q 389 266 385 271.5 L 386 285.5 Q 384 289 376.5 287 L 375 285.5 L 375 263.5 L 374 261.5 L 375 258.5 L 373 246.5 L 369.5 240 Q 364.9 238.7 367 244.5 L 370 249.5 L 371 269.5 L 357 273.5 L 357 291 L 348.5 291 L 346.5 292 L 345 290.5 Q 346.3 280.3 342.5 275 Q 330.9 272.9 326 277.5 L 326 293.5 L 324.5 295 L 313 296 L 312 279.5 L 310.5 278 L 299.5 279 L 298 277.5 L 298 267.5 L 295 253.5 L 297.5 252 L 301.5 254 L 316.5 254 Q 326.6 252.6 331 245.5 L 333.5 242 L 352.5 241 L 359 238 L 360 235.5 L 360 220.5 L 351 165.5 L 344.5 155 Q 314.3 151.3 302 165.5 L 298 172.5 L 294 187.5 L 293 199.5 L 288 218.5 L 287 237.5 Q 281.8 238.7 283 246.5 Q 292.3 250.7 293 263.5 L 295 280.5 L 295 308.5 Q 293.5 311.5 292 308.5 L 287.5 302 L 277.5 297 L 266.5 296 Q 248.6 299.1 239 310.5 L 229 324.5 L 222.5 342 L 215.5 342 L 201.5 345 L 142.5 345 L 86.5 339 L 62.5 334 L 47 326.5 L 46 315 Q 50.3 314 51.5 317 L 62.5 317 L 71 311 L 78 295.5 L 78 279.5 Q 76.3 270.3 69.5 266 L 61 265 L 71.5 253 L 97.5 240 L 112.5 237 L 119 231.5 Q 127.1 203.6 140 180.5 Q 147.5 166.5 158.5 156 L 164.5 151 L 180.5 143 L 204.5 138 L 211.5 139 L 213.5 137 L 254.5 137 L 261.5 139 L 264.5 138 L 265.5 139 L 295.5 139 L 306.5 138 L 311.5 136 Z M 199 151 Q 190 154 178 153 L 158 162 L 143 181 L 136 195 L 125 224 L 125 233 L 131 237 L 145 238 L 150 240 L 183 241 L 233 245 L 256 245 L 257 246 Q 260 245 259 248 L 234 265 L 220 282 Q 216 275 208 273 L 195 273 L 187 277 L 175 291 L 172 302 L 172 313 L 176 323 Q 180 329 189 331 Q 204 333 210 326 Q 219 319 222 306 L 222 290 L 221 289 L 227 279 Q 244 257 271 245 L 276 236 L 285 190 L 284 165 L 275 156 L 259 152 L 199 151 Z M 358 155 L 354 159 L 355 169 L 361 192 L 362 206 L 367 234 L 373 238 L 398 236 L 409 233 L 413 229 L 413 220 L 408 204 L 392 172 L 376 157 Q 369 154 358 155 Z M 412 242 L 406 244 L 403 249 Q 402 254 406 256 L 422 255 L 424 252 L 423 245 Q 420 241 412 242 Z M 353 251 L 346 253 L 342 259 Q 342 264 347 266 L 363 264 L 365 261 L 364 253 L 363 251 L 353 251 Z M 91 298 L 87 302 Q 86 305 89 304 L 95 314 Q 102 322 115 325 L 135 325 L 147 319 L 156 310 Q 160 312 159 308 L 153 302 Q 150 303 151 309 Q 143 318 130 321 Q 115 322 107 317 L 94 304 Q 97 296 91 298 Z " /><path fill="rgb(211,60,56)" stroke="rgb(211,60,56)" stroke-width="0.6" opacity="1" d="M 305.5 218 L 320.5 219 L 327 225.5 L 328 238.5 L 322.5 246 Q 315.3 249.8 302.5 248 L 295.5 245 L 291.5 247 L 289 246 L 288 243.5 L 293 237.5 L 292 231.5 L 297 222 L 305.5 218 Z " /><path fill="rgb(211,60,56)" stroke="rgb(211,60,56)" stroke-width="0.6" opacity="1" d="M 412.5 247 Q 417.8 245.8 419 248.5 L 417.5 251 L 409.5 252 L 409 249.5 L 412.5 247 Z " /><path fill="rgb(211,60,56)" stroke="rgb(211,60,56)" stroke-width="0.6" opacity="1" d="M 362.5 292 L 370.5 292 L 371 293.5 L 371 295.5 L 370 326.5 L 365.5 333 L 336.5 339 L 305 342 L 302 322.5 Q 297.4 320.6 298 313.5 L 299 302.5 L 300.5 301 L 309.5 300 L 311 301.5 L 311 315.5 L 312.5 317 L 328 315 L 328 299.5 L 330.5 297 L 341.5 296 L 343 297.5 L 343 310.5 L 344.5 312 L 356.5 311 L 360 308.5 L 360 294.5 L 362.5 292 Z " /><path fill="rgb(211,60,56)" stroke="rgb(211,60,56)" stroke-width="0.6" opacity="1" d="M 428.5 323 Q 433.3 322.3 434 325.5 Q 437.6 332.4 436 344.5 L 429.5 354 Q 424.8 354.8 424 351.5 Q 421.2 345.3 422 335.5 L 425 326.5 L 428.5 323 Z M 429 330 L 424 336 L 425 346 L 431 347 L 434 341 L 433 333 L 429 330 Z " /><path fill="rgb(211,60,56)" stroke="rgb(211,60,56)" stroke-width="0.6" opacity="1" d="M 265.5 347 L 268.5 347 L 274 352.5 L 275 368.5 Q 273.7 377.7 267.5 382 Q 261.3 382.7 259 379.5 Q 255 373 257 360.5 Q 257.7 352.7 262.5 349 L 265.5 347 Z M 266 355 L 264 356 L 260 363 L 261 371 L 267 374 L 272 367 L 271 357 L 266 355 Z " /><path fill="rgb(211,60,56)" stroke="rgb(211,60,56)" stroke-width="0.6" opacity="1" d="M 402.5 349 L 404 350.5 L 406 362.5 L 415 375.5 L 415 378 Q 397.6 377.2 389 366.5 L 385 354.5 L 388.5 351 Q 398.7 353.2 402.5 349 Z " /><path fill="rgb(1,1,1)" stroke="rgb(1,1,1)" stroke-width="0.6" opacity="1" d="M 221.5 100 L 290.5 100 Q 298.6 101.4 302 107.5 L 312.5 130 L 339.5 133 L 363.5 139 L 383.5 148 L 403 165.5 L 417 188.5 L 427 216.5 L 431.5 223 Q 449.8 227.8 459 241.5 L 465 252.5 L 469 266.5 L 471 297.5 Q 479.8 302.2 477 318.5 L 475 326.5 L 469.5 332 L 455 338.5 L 451 359.5 L 438.5 377 L 425.5 383 L 406.5 383 Q 392.1 379.9 385 369.5 L 378.5 354 L 351.5 357 L 344.5 360 L 334.5 360 L 315.5 365 L 305.5 365 Q 297.9 365.9 294 370.5 Q 292.3 396.3 275.5 407 L 262.5 412 L 242.5 412 Q 224 409 216 395.5 L 209.5 379 L 147.5 380 L 146.5 379 L 130.5 379 L 124.5 386 Q 113.1 395.6 89.5 393 Q 73.5 390 65 379.5 L 56.5 366 Q 43.6 364.4 38 355.5 Q 33.1 347.9 35 333.5 L 41 324.5 L 41 302.5 L 40 301.5 L 40 286.5 L 45 273.5 L 65.5 251 L 75.5 244 L 102 232.5 Q 98 228 99 218.5 Q 100.2 206.2 109.5 202 L 124.5 201 L 126 199.5 Q 136 167 159.5 148 L 174.5 139 L 189.5 134 L 201.5 133 L 204 130.5 L 209 110.5 L 215.5 103 L 221.5 100 Z M 224 105 L 220 106 L 213 114 L 209 131 L 211 132 L 266 132 L 282 134 L 285 133 L 280 110 L 275 105 L 224 105 Z M 284 105 L 282 107 L 290 134 L 304 133 L 306 131 L 299 112 Q 296 103 284 105 Z M 312 135 L 309 137 Q 299 135 295 139 L 291 138 L 257 138 L 256 137 L 213 137 L 212 138 L 205 137 L 179 143 L 160 154 L 142 176 Q 128 200 119 231 L 113 236 Q 90 239 75 250 L 60 263 L 60 266 L 69 266 Q 76 271 78 283 L 77 298 L 72 309 L 62 317 Q 52 318 49 314 Q 47 311 45 316 L 46 328 L 65 335 L 89 340 L 142 345 L 203 345 L 216 343 L 223 344 L 227 331 L 236 316 Q 245 301 265 297 Q 279 296 287 302 L 292 310 Q 294 313 295 310 L 294 265 L 292 255 L 284 247 Q 283 240 287 239 L 289 217 L 294 199 L 294 191 L 299 173 L 303 166 L 311 159 L 327 155 L 344 155 L 348 161 L 353 179 L 356 207 L 358 210 L 360 225 L 360 236 L 355 240 L 333 242 L 331 245 Q 327 251 319 253 L 297 252 L 294 253 L 297 265 L 297 278 L 300 280 L 311 279 L 312 281 L 312 296 L 314 297 L 326 296 L 327 295 L 326 279 L 329 276 L 342 275 L 344 278 L 344 291 L 346 292 L 357 292 L 358 291 L 358 276 L 357 275 L 361 272 L 371 272 L 372 271 L 371 253 L 368 245 Q 367 240 370 241 L 374 256 L 374 284 L 375 287 Q 377 290 385 288 L 386 287 L 386 272 Q 390 266 400 268 Q 403 272 401 283 L 403 284 Q 411 286 413 283 L 412 268 L 415 265 L 426 264 Q 429 267 428 275 L 431 275 Q 441 275 448 280 L 454 288 L 460 301 L 465 300 L 464 268 Q 462 253 454 244 Q 445 232 430 227 L 423 220 L 419 206 L 407 181 L 395 164 Q 385 152 370 146 L 330 136 L 312 135 Z M 337 158 L 333 160 Q 319 159 312 163 Q 304 167 302 177 L 294 212 Q 293 217 296 218 L 306 213 Q 321 211 328 217 L 332 224 L 333 236 L 335 237 L 354 236 L 356 234 L 352 196 L 344 162 Q 342 158 337 158 Z M 113 206 L 105 216 L 105 229 Q 106 232 112 231 Q 119 222 122 208 Q 120 204 113 206 Z M 304 218 L 301 219 Q 293 224 291 234 L 292 238 L 287 245 L 292 248 L 296 246 L 304 249 Q 315 250 323 247 Q 328 244 329 236 L 327 225 Q 322 215 304 218 Z M 59 269 L 53 273 L 51 276 L 58 272 L 64 272 Q 69 276 70 284 L 70 296 L 66 305 Q 63 310 54 309 L 46 299 Q 45 290 48 286 L 46 284 L 44 290 Q 43 301 47 308 L 56 313 L 64 312 Q 72 305 74 293 Q 76 280 71 274 Q 69 267 59 269 Z M 61 274 L 58 275 L 50 286 L 49 293 L 50 302 L 56 307 L 60 307 Q 67 303 68 293 Q 69 282 65 277 L 61 274 Z M 428 280 L 419 284 Q 406 294 400 311 L 394 342 L 396 346 L 402 345 L 406 339 L 409 321 L 417 306 Q 422 299 431 296 Q 438 295 442 298 L 451 310 L 455 327 Q 453 332 457 331 L 457 307 L 455 299 L 449 288 Q 444 278 428 280 Z M 395 287 L 390 288 L 388 290 L 388 304 L 387 305 L 377 306 L 374 310 Q 376 323 372 332 L 363 338 L 323 343 L 314 346 L 307 346 L 305 348 L 304 359 L 306 361 L 388 347 L 391 343 Q 391 319 400 305 L 400 289 L 395 287 Z M 368 291 L 362 292 L 360 294 L 360 309 L 359 310 Q 349 309 345 312 L 343 311 L 343 297 L 342 295 L 330 297 L 328 299 L 328 314 Q 323 317 313 316 L 311 315 L 311 301 L 310 299 L 301 300 L 299 302 L 298 313 L 298 319 L 302 326 Q 305 332 304 342 L 306 343 L 329 341 L 366 334 Q 370 331 371 325 L 372 293 L 368 291 Z M 266 301 Q 255 303 249 308 Q 235 320 228 339 L 227 362 L 225 370 Q 226 372 232 371 L 238 363 L 238 355 L 242 343 L 250 329 Q 256 320 268 318 L 281 321 Q 288 327 292 337 L 296 354 L 296 362 L 298 363 L 300 361 L 301 355 L 300 333 L 291 313 L 278 302 L 266 301 Z M 428 302 L 425 304 L 412 323 Q 409 329 410 340 L 408 343 Q 406 360 413 370 L 426 377 Q 434 377 438 372 L 446 360 L 450 340 L 450 326 L 444 309 L 437 302 L 428 302 Z M 469 302 L 461 307 L 462 312 L 462 327 L 461 328 L 463 330 L 467 329 Q 471 326 472 319 Q 475 306 469 302 Z M 265 324 L 260 326 Q 249 333 245 346 L 240 366 Q 237 388 247 399 Q 252 404 261 406 Q 269 406 274 403 Q 286 393 290 375 L 290 348 L 287 338 L 283 332 Q 279 323 265 324 Z M 45 329 L 39 340 L 42 354 L 54 361 L 73 366 L 81 366 L 101 371 L 114 371 L 118 373 L 155 374 L 156 375 L 196 375 L 218 373 L 222 368 L 223 360 Q 225 349 221 347 L 207 347 L 203 349 L 184 349 L 183 350 L 141 349 L 115 347 L 110 345 L 99 345 L 60 337 L 49 333 L 45 329 Z M 403 348 L 400 350 Q 390 349 385 353 Q 384 363 389 368 L 401 376 L 417 378 L 407 363 L 405 350 L 403 348 Z M 68 369 L 66 371 L 67 375 L 79 384 L 96 389 Q 111 390 120 384 Q 124 383 123 378 L 88 374 L 68 369 Z M 235 373 L 230 376 L 228 375 L 219 376 L 216 379 Q 216 389 221 395 L 231 403 L 245 407 L 252 407 L 251 405 Q 237 396 237 375 L 235 373 Z " /><path fill="rgb(1,1,1)" stroke="rgb(1,1,1)" stroke-width="0.6" opacity="1" d="M 204.5 151 L 235.5 151 Q 244.3 155.3 259.5 153 L 275.5 157 L 283 164.5 L 285 168.5 L 285 185.5 L 275 237.5 L 267.5 246 Q 244.3 256.3 229 274.5 L 221 285.5 L 221 290.5 L 222 303.5 Q 218.8 318.3 208.5 326 Q 202.7 331.7 190.5 331 Q 180.5 329 176 321.5 L 172 310.5 L 172 303.5 L 176 289.5 L 187.5 277 L 196.5 273 L 205.5 273 Q 215.4 276.2 221 283 Q 226.5 270.1 238.5 262 L 260 247.5 L 258.5 246 L 257.5 245 L 234.5 245 L 233.5 244 L 217.5 244 L 216.5 243 L 147.5 239 Q 142.5 235 131.5 237 L 126 232.5 L 126 222.5 L 136 196.5 Q 143.9 175.9 158.5 162 L 172.5 155 L 204.5 151 Z M 198 156 L 179 158 L 163 164 Q 149 175 142 193 L 130 225 L 130 231 L 139 234 L 155 234 L 159 236 L 180 236 L 247 241 L 268 241 L 273 230 L 282 178 L 279 166 L 270 159 L 259 157 L 198 156 Z M 198 277 L 188 282 Q 179 289 176 302 Q 175 312 178 319 L 187 326 L 191 327 Q 201 329 206 324 Q 217 316 219 298 Q 219 289 215 284 Q 211 276 198 277 Z " /><path fill="rgb(1,1,1)" stroke="rgb(1,1,1)" stroke-width="0.6" opacity="1" d="M 358.5 155 L 365.5 155 L 376.5 158 L 392 172.5 L 407 202.5 L 413 222.5 L 413 227.5 L 408.5 232 L 398.5 235 L 371.5 237 L 367 232.5 L 362 193.5 L 355 164.5 L 355 158.5 L 358.5 155 Z M 361 160 L 359 162 L 365 190 L 368 218 L 370 221 L 370 230 L 373 233 L 399 231 Q 405 231 408 227 L 407 216 L 401 199 Q 394 181 383 168 Q 377 158 361 160 Z " /><path fill="rgb(1,1,1)" stroke="rgb(1,1,1)" stroke-width="0.6" opacity="1" d="M 179.5 173 Q 188.3 171.3 190 176.5 L 188.5 179 L 178.5 178 L 172 181 L 177.5 174 L 179.5 173 Z " /><path fill="rgb(1,1,1)" stroke="rgb(1,1,1)" stroke-width="0.6" opacity="1" d="M 240.5 174 Q 248.2 173.3 251 177.5 L 253 184 L 245.5 180 Q 237.3 182.3 235 178.5 L 240.5 174 Z " /><path fill="rgb(1,1,1)" stroke="rgb(1,1,1)" stroke-width="0.6" opacity="1" d="M 176.5 191 Q 186.9 189.6 190 195.5 Q 195.8 201.2 194 214.5 Q 191.4 225.4 183.5 231 Q 178.8 234.8 168.5 233 L 160 225.5 L 158 213.5 Q 160.6 200.6 169.5 194 L 176.5 191 Z M 177 194 L 171 197 Q 162 202 161 215 L 163 226 L 170 230 L 172 229 L 168 223 L 168 216 L 173 206 L 178 202 Q 187 201 190 204 L 189 199 Q 187 192 177 194 Z M 183 206 L 181 208 Q 179 213 183 215 L 189 212 L 188 208 L 183 206 Z " /><path fill="rgb(1,1,1)" stroke="rgb(1,1,1)" stroke-width="0.6" opacity="1" d="M 231.5 193 L 239.5 193 L 249 201.5 Q 252.3 206.2 251 215.5 Q 249 226 242.5 232 L 232.5 237 L 227.5 237 Q 219.4 235.6 216 229.5 Q 212 224.5 214 213.5 Q 216.6 201.6 225.5 196 L 231.5 193 Z M 234 196 L 226 200 Q 217 206 216 219 L 218 229 L 225 233 L 227 232 L 223 226 Q 222 217 225 212 L 234 204 L 242 204 L 247 208 L 246 203 Q 243 196 234 196 Z M 240 208 L 236 216 L 240 218 L 244 215 L 243 210 L 240 208 Z " /><path fill="rgb(1,1,1)" stroke="rgb(1,1,1)" stroke-width="0.6" opacity="1" d="M 410.5 243 Q 420.8 240.8 423 246.5 Q 424.5 253.5 420.5 255 L 406.5 256 Q 402.5 254.5 404 247.5 L 410.5 243 Z M 413 246 L 409 248 L 407 251 Q 409 254 418 252 L 420 249 Q 419 245 413 246 Z " /><path fill="rgb(1,1,1)" stroke="rgb(1,1,1)" stroke-width="0.6" opacity="1" d="M 355.5 251 Q 362.8 249.8 364 254.5 Q 365.8 262.2 361.5 264 L 346.5 265 Q 341.8 263.8 343 256.5 L 345.5 253 L 355.5 251 Z M 355 255 L 347 259 L 350 262 L 359 261 L 361 257 Q 360 254 355 255 Z " /><path fill="rgb(1,1,1)" stroke="rgb(1,1,1)" stroke-width="0.6" opacity="1" d="M 196.5 281 Q 208.3 279.7 211 287.5 L 213 291.5 L 214 300.5 Q 211.7 313.7 202.5 320 L 197.5 323 L 190.5 323 L 182 315.5 L 179 308.5 L 179 302.5 Q 181.3 289.3 190.5 283 L 196.5 281 Z M 196 284 L 194 285 Q 185 290 182 302 Q 181 311 184 316 L 192 320 L 202 318 Q 209 313 211 302 Q 212 292 208 288 Q 206 282 196 284 Z " /><path fill="rgb(1,1,1)" stroke="rgb(1,1,1)" stroke-width="0.6" opacity="1" d="M 91.5 298 L 94 299.5 L 93 302.5 L 101.5 314 Q 110.7 323.8 132.5 321 Q 145.1 317.6 152 308.5 Q 150.8 302.4 153.5 303 L 159 308.5 L 157.5 310 L 154.5 310 L 145.5 319 L 132.5 325 L 116.5 325 Q 104.3 322.3 97 314.5 L 89.5 304 L 87 302.5 L 91.5 298 Z " /><path fill="rgb(1,1,1)" stroke="rgb(1,1,1)" stroke-width="0.6" opacity="1" d="M 428.5 319 L 431.5 319 L 438 325.5 Q 441.3 331.3 440 341.5 Q 438.7 353.2 430.5 358 L 426.5 358 L 419 350.5 L 418 334.5 Q 420.3 323.8 428.5 319 Z M 427 323 L 421 337 L 421 343 L 424 353 L 428 355 L 431 354 L 437 343 Q 439 330 434 325 Q 433 322 427 323 Z " /><path fill="rgb(1,1,1)" stroke="rgb(1,1,1)" stroke-width="0.6" opacity="1" d="M 428.5 331 L 432 332.5 L 433 341.5 L 428.5 347 L 425 344.5 L 425 335.5 L 427 335 Q 425.3 341.1 428.5 343 Q 431.5 341.5 430 335.5 L 427 334 L 428.5 331 Z " /><path fill="rgb(1,1,1)" stroke="rgb(1,1,1)" stroke-width="0.6" opacity="1" d="M 263.5 343 L 268.5 343 L 277 349.5 Q 280.8 356.8 279 369.5 Q 276.6 379.6 269.5 385 Q 258.3 387.3 256 380.5 Q 250.9 373.6 253 359.5 Q 255.6 348.6 263.5 343 Z M 266 346 L 263 348 Q 257 352 256 362 Q 255 374 259 381 L 265 383 L 269 382 Q 275 378 276 368 Q 278 357 274 352 L 269 346 L 266 346 Z " /><path fill="rgb(1,1,1)" stroke="rgb(1,1,1)" stroke-width="0.6" opacity="1" d="M 266.5 355 L 271 358.5 Q 273.5 370.5 266.5 373 L 261 369.5 Q 258.7 357.2 266.5 355 Z M 267 359 L 264 363 L 264 369 L 267 369 Q 271 367 269 361 L 267 359 Z " /><path fill="rgb(80,153,193)" stroke="rgb(80,153,193)" stroke-width="0.6" opacity="1" d="M 198.5 156 L 254.5 157 L 269.5 160 L 279 167.5 Q 282.3 172.2 281 181.5 L 272 231.5 L 266.5 241 L 247.5 241 L 175 236 Q 173.8 233 177.5 234 Q 185.2 232.2 189 226.5 L 193 220.5 L 195 205.5 Q 194 195.9 187.5 192 L 175.5 191 L 164 198.5 Q 158 205 157 216.5 Q 157.8 225.8 163.5 230 L 170 233 L 171.5 235 L 173 234.5 Q 173.8 237.1 170.5 236 L 169.5 235 L 156.5 235 L 152.5 233 L 149.5 234 L 148.5 233 L 135.5 233 L 130 229.5 L 130 225.5 L 147 183.5 L 162.5 165 L 175.5 159 L 183.5 159 L 198.5 156 Z M 183 172 Q 174 173 171 179 L 173 182 L 181 178 Q 187 177 189 180 L 191 179 L 190 176 Q 188 172 183 172 Z M 243 173 L 239 174 L 234 181 L 237 180 Q 245 179 249 182 L 253 186 L 254 185 L 252 179 Q 249 174 243 173 Z M 231 193 L 225 196 Q 215 202 213 216 Q 212 225 215 230 Q 218 235 226 237 L 235 237 L 241 234 Q 249 229 251 218 L 250 202 L 240 193 L 231 193 Z " /><path fill="rgb(80,153,193)" stroke="rgb(80,153,193)" stroke-width="0.6" opacity="1" d="M 178.5 194 Q 186 194.5 189 199.5 L 187.5 202 L 177.5 201 L 173 204.5 L 168 214.5 L 168 223.5 L 170 227.5 L 167.5 228 L 163 224.5 L 162 212.5 Q 163.6 201.6 171.5 197 L 178.5 194 Z " /><path fill="rgb(80,153,193)" stroke="rgb(80,153,193)" stroke-width="0.6" opacity="1" d="M 239.5 209 L 243 210.5 Q 244 216 240.5 217 L 236 215.5 L 239.5 209 Z " /><path fill="rgb(80,153,193)" stroke="rgb(80,153,193)" stroke-width="0.6" opacity="1" d="M 198.5 277 Q 209.7 276.8 214 283.5 Q 219.4 289.1 218 301.5 Q 215.1 316.6 204.5 324 L 194.5 327 Q 182.8 325.8 178 317.5 L 177 299.5 L 179 298.5 Q 176.7 313.8 184.5 319 Q 187.9 324.6 198.5 323 L 207 317.5 Q 214.9 309.9 214 293.5 L 208.5 283 L 197.5 280 L 191.5 283 L 190.5 281 L 198.5 277 Z " /><path fill="rgb(80,153,193)" stroke="rgb(80,153,193)" stroke-width="0.6" opacity="1" d="M 188.5 282 L 189 283.5 L 180.5 295 L 180 292.5 L 188.5 282 Z " /><path fill="rgb(80,153,193)" stroke="rgb(80,153,193)" stroke-width="0.6" opacity="1" d="M 196.5 284 Q 205.8 282.6 208 288.5 Q 211.7 292.8 210 302.5 Q 208.5 312.5 201.5 317 L 192.5 320 L 184 314.5 L 183 299.5 Q 186.6 290.1 194.5 285 L 196.5 284 Z " /><path fill="rgb(80,153,193)" stroke="rgb(80,153,193)" stroke-width="0.6" opacity="1" d="M 262.5 302 L 278.5 303 L 290 312.5 L 299 330.5 L 301 350.5 L 299 362 Q 295 363.4 297 356.5 L 293 336.5 Q 288.8 326.2 280.5 320 Q 275.1 316.9 265.5 318 Q 255.4 320.4 250 327.5 L 241 343.5 Q 237 351.5 237 363.5 L 231.5 370 Q 223.3 372.8 226 364.5 L 227 363.5 L 227 345.5 L 229 337.5 L 236 323.5 L 248.5 309 L 262.5 302 Z " /><path fill="rgb(80,153,193)" stroke="rgb(80,153,193)" stroke-width="0.6" opacity="1" d="M 466.5 304 L 471 305.5 L 472 314.5 L 470 324.5 L 465.5 329 L 462 328.5 L 462 307.5 L 462.5 305 L 466.5 304 Z " /><path fill="rgb(80,153,193)" stroke="rgb(80,153,193)" stroke-width="0.6" opacity="1" d="M 265.5 324 Q 278.1 324.4 283 332.5 L 290 349.5 L 290 370.5 L 287 383.5 L 283 391.5 L 272.5 403 Q 267.1 406.1 257.5 405 L 246 395.5 L 242 388.5 L 240 379.5 L 240 368.5 L 246 344.5 Q 249.9 334.4 257.5 328 L 265.5 324 Z M 266 342 L 262 344 Q 253 350 252 364 Q 251 380 261 386 Q 268 387 272 384 Q 279 379 280 368 Q 281 355 277 349 Q 274 343 266 342 Z " /><path fill="rgb(46,51,51)" stroke="rgb(46,51,51)" stroke-width="0.6" opacity="1" d="M 360.5 160 Q 377.4 158.1 383 167.5 Q 394.4 180.6 401 198.5 L 407 215.5 L 408 226.5 Q 405.1 230.6 398.5 231 L 372.5 233 L 370 229.5 L 370 220.5 L 368 217.5 L 365 189.5 L 359 161.5 L 360.5 160 Z " /><path fill="rgb(46,51,51)" stroke="rgb(46,51,51)" stroke-width="0.6" opacity="1" d="M 176.5 174 L 172 179.5 L 171.5 181 L 171 179.5 L 176.5 174 Z " /><path fill="rgb(46,51,51)" stroke="rgb(46,51,51)" stroke-width="0.6" opacity="1" d="M 233.5 196 Q 243.3 195.7 246 202.5 L 247 207.5 L 245.5 207 Q 242.7 202.3 233.5 204 L 225 211.5 Q 222 216.5 223 225.5 L 227 231.5 L 224.5 233 L 218 228.5 L 216 218.5 Q 217.3 205.8 225.5 200 L 233.5 196 Z " /><path fill="rgb(46,51,51)" stroke="rgb(46,51,51)" stroke-width="0.6" opacity="1" d="M 182.5 206 L 188 207.5 L 189 211.5 L 182.5 215 Q 179.5 213.5 181 207.5 L 182.5 206 Z " /><path fill="rgb(46,51,51)" stroke="rgb(46,51,51)" stroke-width="0.6" opacity="1" d="M 67.5 255 L 69 255.5 L 60.5 263 L 67.5 255 Z " /><path fill="rgb(46,51,51)" stroke="rgb(46,51,51)" stroke-width="0.6" opacity="1" d="M 234.5 265 L 229.5 271 L 229 269.5 L 234.5 265 Z " /><path fill="rgb(46,51,51)" stroke="rgb(46,51,51)" stroke-width="0.6" opacity="1" d="M 237.5 266 L 238 267.5 L 229.5 275 L 237.5 266 Z " /><path fill="rgb(46,51,51)" stroke="rgb(46,51,51)" stroke-width="0.6" opacity="1" d="M 400.5 268 L 403 272.5 L 404 283.5 L 402.5 284 L 401 282.5 L 400.5 268 Z " /><path fill="rgb(46,51,51)" stroke="rgb(46,51,51)" stroke-width="0.6" opacity="1" d="M 58.5 269 Q 69 267 71 273.5 Q 75.5 280 74 292.5 Q 71.9 305.4 63.5 312 L 55.5 313 L 47 307.5 L 44 299.5 L 47 299.5 L 46 301.5 L 49 303.5 L 53.5 309 Q 63.2 310.2 66 304.5 L 70 295.5 L 70 283.5 Q 68.5 275.9 63.5 272 Q 57 270.5 55.5 274 L 56.5 270 L 58.5 269 Z " /><path fill="rgb(46,51,51)" stroke="rgb(46,51,51)" stroke-width="0.6" opacity="1" d="M 60.5 274 L 65 276.5 Q 69.4 281.6 68 292.5 Q 66.6 302.6 59.5 307 L 55.5 307 L 50 301.5 L 49 292.5 L 50 285.5 L 57.5 275 L 60.5 274 Z " /><path fill="rgb(46,51,51)" stroke="rgb(46,51,51)" stroke-width="0.6" opacity="1" d="M 464.5 277 L 465 299.5 L 463 300.5 L 464 299.5 L 464.5 277 Z " /><path fill="rgb(46,51,51)" stroke="rgb(46,51,51)" stroke-width="0.6" opacity="1" d="M 371.5 295 L 372 308.5 L 371 308.5 L 371.5 295 Z " /><path fill="rgb(46,51,51)" stroke="rgb(46,51,51)" stroke-width="0.6" opacity="1" d="M 427.5 302 L 436.5 302 L 444 308.5 L 450 325.5 L 450 339.5 L 446 359.5 L 437.5 372 Q 433.7 376.7 425.5 377 L 413 369.5 Q 406.1 360.4 408 342.5 L 410 339.5 Q 408.9 328.9 412 322.5 L 424.5 304 L 427.5 302 Z M 429 319 Q 420 324 418 335 L 419 351 L 427 358 L 431 358 Q 439 353 440 342 Q 441 331 438 326 L 432 319 L 429 319 Z " /><path fill="rgb(46,51,51)" stroke="rgb(46,51,51)" stroke-width="0.6" opacity="1" d="M 44.5 329 L 48.5 333 L 59.5 337 L 98.5 345 L 109.5 345 L 114.5 347 L 140.5 349 L 182.5 350 L 183.5 349 L 202.5 349 L 206.5 347 L 220.5 347 Q 225.5 349.5 223 359.5 L 222 367.5 L 217.5 373 L 195.5 375 L 155.5 375 L 154.5 374 L 117.5 373 L 113.5 371 L 100.5 371 L 80.5 366 L 72.5 366 L 53.5 361 L 42 353.5 L 39 339.5 L 44.5 329 Z " /><path fill="rgb(46,51,51)" stroke="rgb(46,51,51)" stroke-width="0.6" opacity="1" d="M 67.5 369 L 87.5 374 L 123 378 Q 123.8 382.7 119.5 384 Q 110.7 389.7 95.5 389 L 78.5 384 L 67 374.5 L 66 370.5 L 67.5 369 Z " /><path fill="rgb(244,194,52)" stroke="rgb(244,194,52)" stroke-width="0.6" opacity="1" d="M 283 106 Q 295.2 103.5 298 111.5 L 305 132 L 289 133 L 283 106 Z " /><path fill="rgb(244,194,52)" stroke="rgb(244,194,52)" stroke-width="0.6" opacity="1" d="M 334.5 159 Q 341.7 158.3 344 162.5 L 351 193.5 L 355 233.5 L 353.5 235 L 334 236 L 333 223.5 L 328.5 217 Q 322.1 210.4 307.5 212 L 295.5 217 L 294 214.5 L 302 178.5 Q 304.4 168.9 311.5 164 L 318.5 161 Q 329.1 162.6 334.5 159 Z " /><path fill="rgb(244,194,52)" stroke="rgb(244,194,52)" stroke-width="0.6" opacity="1" d="M 114.5 206 Q 120.5 204.5 122 207.5 L 115 225.5 L 111.5 230 Q 106 231 105 227.5 L 105 216.5 L 112.5 207 L 114.5 206 Z " /><path fill="rgb(244,194,52)" stroke="rgb(244,194,52)" stroke-width="0.6" opacity="1" d="M 357.5 255 L 360 256.5 L 358.5 260 L 348.5 261 L 347 258.5 L 357.5 255 Z " /><path fill="rgb(244,194,52)" stroke="rgb(244,194,52)" stroke-width="0.6" opacity="1" d="M 429.5 280 Q 443.2 279.3 448 287.5 Q 454.6 296.4 457 309.5 L 457 328 Q 453.3 329.4 455 323.5 L 451 307.5 L 441.5 297 L 428.5 296 L 417 304.5 L 409 318.5 Q 405.2 327.2 405 339.5 L 401.5 344 L 396.5 345 L 395 340.5 Q 398.3 334.8 397 324.5 L 401 310.5 Q 406.7 294.7 418.5 285 L 429.5 280 Z " /><path fill="rgb(244,194,52)" stroke="rgb(244,194,52)" stroke-width="0.6" opacity="1" d="M 395.5 287 L 400 289.5 L 400 302.5 L 394 316.5 L 391 331.5 L 391 340.5 L 387.5 346 L 306.5 360 L 305 355.5 L 306 350.5 L 305 348.5 L 307.5 346 L 365.5 338 L 373 331.5 Q 376.3 322.3 375 308.5 L 376.5 307 L 386.5 306 L 388 304.5 L 388 289.5 L 389.5 288 L 395.5 287 Z " /><path fill="rgb(244,194,52)" stroke="rgb(244,194,52)" stroke-width="0.6" opacity="1" d="M 234.5 374 L 236 375.5 L 239 391.5 L 250 407 L 232.5 403 L 224 398 Q 217.1 392.1 217 378.5 L 220.5 376 Q 230.7 378.2 234.5 374 Z " /><path fill="rgb(129,69,54)" stroke="rgb(129,69,54)" stroke-width="0.6" opacity="1" d="M 266.5 346 L 273 350.5 L 268.5 347 L 266.5 346 Z " /><path fill="rgb(90,113,112)" stroke="rgb(90,113,112)" stroke-width="0.6" opacity="1" d="M 192.5 286 L 186.5 293 L 192.5 286 Z " /><path fill="rgb(78,144,163)" stroke="rgb(78,144,163)" stroke-width="0.6" opacity="1" d="M 179.5 293 L 181 296.5 L 179.5 300 L 178.5 298 L 177 298.5 L 179.5 293 Z " /><path fill="rgb(78,144,163)" stroke="rgb(78,144,163)" stroke-width="0.6" opacity="1" d="M 246.5 396 L 251.5 402 L 246.5 396 Z " /><path fill="rgb(173,167,51)" stroke="rgb(173,167,51)" stroke-width="0.6" opacity="1" d="M 333.5 229 L 334 236 L 338 236.5 L 334.5 237 Q 331.1 235.1 333.5 229 Z " /></svg>