<svg width="627" height="627" preserveAspectRatio="xMidYMid meet" viewBox="0 0 512 512" version="1.1" xmlns="http://www.w3.org/2000/svg" ><path fill="rgb(255,255,255)" stroke="rgb(255,255,255)" stroke-width="0.6" opacity="1" d="M 0 0 L 512 0 L 512 512 L 0 512 L 0 0 Z M 191 104 L 190 105 L 163 106 L 133 111 Q 111 116 97 127 Q 84 138 77 156 L 64 195 L 59 194 L 50 196 Q 43 199 42 208 Q 40 222 44 230 L 52 236 Q 40 246 34 262 Q 25 283 28 316 Q 22 320 20 329 Q 18 345 24 353 Q 31 360 43 362 L 49 374 Q 57 386 75 389 Q 99 392 110 380 L 114 375 L 152 376 L 153 377 L 202 375 L 210 394 L 225 405 L 244 409 L 261 408 L 276 400 Q 289 388 292 366 L 301 363 L 309 358 L 380 350 L 388 373 Q 396 385 415 387 Q 433 389 443 382 Q 458 370 461 346 L 467 342 Q 478 342 485 338 L 489 334 L 492 323 Q 494 307 486 302 L 487 254 L 488 253 L 488 212 L 487 211 L 486 170 Q 484 153 476 143 Q 469 134 459 129 Q 442 122 421 119 L 349 111 L 282 106 L 238 105 L 237 104 L 191 104 Z " /><path fill="rgb(255,255,255)" stroke="rgb(255,255,255)" stroke-width="0.6" opacity="1" d="M 160.5 278 Q 163.5 279.5 160.5 281 L 156 284.5 L 153 292 L 151 290.5 L 158.5 279 L 160.5 278 Z " /><path fill="rgb(255,255,255)" stroke="rgb(255,255,255)" stroke-width="0.6" opacity="1" d="M 59 289 Q 62.3 287.7 61 292.5 Q 59.5 301 53.5 305 L 47.5 306 L 46.5 304 Q 54.6 304.1 57 298.5 L 59 289 Z " /><path fill="rgb(244,187,43)" stroke="rgb(244,187,43)" stroke-width="0.6" opacity="1" d="M 205.5 110 L 262.5 111 L 277.5 113 L 279.5 112 L 305.5 115 L 307.5 115 L 331.5 117 L 334.5 116 L 378.5 121 L 380.5 121 L 388.5 121 L 410.5 125 L 420.5 125 L 424.5 127 L 431.5 127 L 444.5 130 L 457.5 135 L 470 144.5 Q 478.5 153.5 480 169.5 L 481 179.5 L 481 254.5 L 476.5 257 L 436.5 258 L 369.5 263 L 365.5 262 L 352.5 264 L 299.5 267 L 296.5 266 L 236.5 271 Q 233.8 269.8 235 264.5 L 236 263.5 L 236 250.5 L 241.5 245 Q 253.8 246.8 258.5 241 L 293.5 239 L 301 234.5 L 304 229.5 L 304 227.5 L 305 174.5 L 303 158.5 L 297.5 152 Q 286.8 147.7 269.5 150 L 256.5 152 L 250 157.5 L 245 169.5 L 245 176.5 L 241 189.5 L 241 196.5 L 232 210.5 L 231 234.5 Q 226.2 236.7 226 243.5 L 231 250.5 L 232 261.5 L 229 282.5 L 230 285.5 L 228 305.5 Q 218.3 316.8 212.5 332 L 199.5 332 L 184.5 334 L 139.5 334 L 72.5 328 L 50.5 324 L 34 318 L 34 294.5 L 36 294 L 36 299.5 L 42.5 308 Q 45.5 311 52.5 310 L 62 302.5 Q 67.8 295.8 66 281.5 Q 63.5 272.4 56.5 268 L 49.5 267 L 45.5 269 L 39 273 L 38 278 Q 34.3 279.2 36 274 L 38 272.5 L 37 270.5 L 40 265.5 L 40 263.5 L 45 252.5 L 58 237.5 L 61 231.5 L 64 215 Q 67.7 216.3 66 210.5 Q 69.6 207.4 68 200 Q 71.7 201.3 70 195.5 Q 73.5 193.8 72 188 Q 76 189.4 74 182.5 L 76 180.5 L 76 175.5 L 80 168.5 L 84 154.5 L 96.5 135 L 99.5 133 L 110.5 125 L 137.5 116 L 155.5 113 L 165.5 113 L 172.5 111 L 204.5 111 L 205.5 110 Z M 127 142 L 108 145 L 93 152 L 83 167 Q 84 170 81 170 L 81 174 L 79 174 L 79 179 L 75 187 L 75 192 L 71 200 L 69 213 L 67 215 L 67 223 L 65 223 Q 64 230 67 234 L 74 238 L 113 241 L 123 240 L 151 241 L 152 242 L 186 242 L 187 243 L 215 242 L 220 236 Q 223 234 221 233 L 228 207 L 228 201 L 235 168 L 232 157 Q 226 149 216 147 L 194 143 L 186 143 L 184 143 L 181 142 L 127 142 Z M 320 151 L 317 152 L 311 159 L 311 224 L 313 232 L 322 238 Q 348 241 367 235 Q 371 232 372 226 L 373 216 L 373 185 L 372 184 L 372 167 L 370 159 L 365 153 L 356 151 L 320 151 Z M 387 153 L 382 155 L 377 162 L 378 229 L 379 231 Q 382 237 392 237 L 410 236 L 421 233 L 425 227 L 426 213 L 426 211 L 427 207 Q 426 203 429 204 L 430 206 Q 428 220 432 229 L 438 233 L 464 233 L 470 231 L 474 226 L 476 212 L 475 178 L 472 165 L 464 158 L 453 156 L 438 156 L 434 158 L 430 163 L 430 182 L 429 183 L 427 184 L 427 189 Q 424 179 425 166 L 423 161 L 417 155 L 387 153 Z M 167 271 L 156 276 Q 148 281 146 292 Q 144 304 149 311 Q 153 317 162 320 Q 170 321 175 317 Q 184 311 186 299 Q 187 286 182 280 Q 177 272 167 271 Z M 78 294 L 76 296 L 79 304 Q 86 314 101 317 L 116 316 L 127 309 L 129 306 L 136 302 L 135 300 L 130 295 L 127 297 L 128 301 Q 122 309 111 312 Q 96 314 90 308 Q 83 304 80 296 L 78 294 Z " /><path fill="rgb(244,187,43)" stroke="rgb(244,187,43)" stroke-width="0.6" opacity="1" d="M 319.5 156 L 351.5 156 L 359.5 157 L 365 160.5 L 367 167.5 L 368 209.5 L 367 210.5 L 367 225.5 L 365 230 L 356.5 232 L 321.5 232 L 318 229.5 L 316 219.5 L 316 161.5 Q 315 158.8 319.5 156 Z " /><path fill="rgb(244,187,43)" stroke="rgb(244,187,43)" stroke-width="0.6" opacity="1" d="M 438.5 161 L 458.5 162 L 467 166.5 L 470 180.5 L 470 219.5 L 467.5 226 Q 455.5 229 439.5 228 L 436 226 L 435 165.5 L 438.5 161 Z " /><path fill="rgb(244,187,43)" stroke="rgb(244,187,43)" stroke-width="0.6" opacity="1" d="M 111.5 190 Q 121.9 188.6 125 194.5 L 123.5 197 L 114.5 196 L 109 200.5 Q 103.9 205.4 105 216.5 L 106 219.5 L 107 221.5 L 104.5 222 L 103 220.5 Q 98.5 216 100 205.5 Q 102.4 195.9 109.5 191 L 111.5 190 Z " /><path fill="rgb(244,187,43)" stroke="rgb(244,187,43)" stroke-width="0.6" opacity="1" d="M 121.5 201 L 124 208 L 118 206.5 L 119 202 L 121.5 201 Z " /><path fill="rgb(244,187,43)" stroke="rgb(244,187,43)" stroke-width="0.6" opacity="1" d="M 458.5 277 L 481 277 L 481 292.5 L 480 303.5 L 478.5 305 L 467.5 306 Q 462.6 294.4 453.5 287 L 443 280.5 L 446.5 278 L 458.5 277 Z " /><path fill="rgb(244,187,43)" stroke="rgb(244,187,43)" stroke-width="0.6" opacity="1" d="M 432.5 327 Q 439 326 440 330.5 L 442 338.5 L 441 351.5 L 435.5 359 L 429.5 360 Q 423.4 356.1 423 346.5 L 424 343.5 L 423 341.5 Q 424.4 332.9 429.5 328 L 432.5 327 Z M 432 335 Q 427 338 426 345 L 427 348 Q 428 353 435 352 L 440 345 L 440 340 L 438 339 Q 437 334 432 335 Z " /><path fill="rgb(244,187,43)" stroke="rgb(244,187,43)" stroke-width="0.6" opacity="1" d="M 224.5 367 L 226 368.5 Q 225.2 379.7 229 386.5 L 238.5 400 L 240 402 L 235.5 400 L 231.5 401 Q 220.4 397.6 214 389.5 L 209 378.5 L 209 373.5 L 213.5 370 L 221.5 369 L 224.5 367 Z " /><path fill="rgb(50,54,53)" stroke="rgb(50,54,53)" stroke-width="0.6" opacity="1" d="M 142.5 142 L 162 142.5 L 142.5 143 L 142.5 142 Z " /><path fill="rgb(50,54,53)" stroke="rgb(50,54,53)" stroke-width="0.6" opacity="1" d="M 130.5 146 L 176.5 146 L 204 149 L 204.5 151 L 205.5 149 L 208 150 L 208.5 152 L 209 150 L 223 154.5 L 223.5 156 L 224.5 155 L 230 160.5 L 231 167.5 L 230 172 Q 227 171 228 174 L 230 174.5 L 229 177 L 227 177.5 L 229 178 L 226 194 L 224 194.5 L 226 195.5 L 225 198 L 223 198.5 L 225 199 L 221 218 L 219 218.5 L 220 223.5 L 218 232.5 L 213.5 238 L 213.5 236 L 190 237 L 189.5 239 L 177.5 239 L 172 238 L 171.5 236 L 155 236 L 154.5 238 L 146.5 238 L 145.5 237 L 103 236 Q 104 233 101 234 Q 102.3 237.3 97.5 236 L 88 235 Q 89.2 231.3 84 233 Q 85.3 236 81.5 235 L 77 234 Q 78.3 230.7 73.5 232 Q 71.8 234.7 70 230.5 L 72 230.5 L 72 225.5 L 70 223.5 L 73 211 L 75 209.5 L 76 207 L 74 206.5 L 76 198 Q 80.1 199.7 79 195.5 L 79.5 194 L 78 192.5 L 81.5 185 Q 84.1 185.8 83 182.5 L 85 178 L 83 177.5 L 85.5 172 L 88 171.5 L 87 167.5 L 91.5 160 L 93 160.5 Q 92.3 154.8 96.5 154 L 105.5 150 L 108 151 Q 106.8 148 110.5 149 L 130.5 146 Z M 115 165 L 114 167 L 112 167 L 106 174 L 108 175 Q 109 171 111 174 L 111 172 L 114 171 L 115 173 L 117 170 L 119 171 L 120 173 L 122 172 Q 125 173 123 168 L 120 167 L 118 165 L 115 165 Z M 180 168 L 175 170 Q 171 169 173 173 L 178 172 L 178 174 Q 182 175 181 172 L 187 174 L 191 178 L 192 177 L 190 173 Q 188 167 180 168 Z M 112 187 L 105 190 Q 101 191 102 197 L 102 199 L 100 197 L 98 198 L 100 203 L 99 206 L 96 210 L 96 211 Q 99 210 97 215 L 99 215 L 98 218 L 99 223 L 103 224 L 105 223 L 106 226 L 108 225 L 109 227 Q 116 228 119 225 L 121 226 L 120 225 L 123 223 L 124 221 L 127 219 L 126 218 L 129 217 L 128 215 L 129 205 L 126 203 L 128 202 L 127 200 L 128 197 L 127 196 L 127 195 L 125 191 L 121 187 Q 117 186 118 189 L 117 188 L 115 189 L 112 187 Z M 173 188 L 170 189 L 169 192 L 166 191 L 158 199 L 158 201 L 160 201 L 159 203 L 158 202 L 155 210 L 157 209 L 157 215 L 155 215 L 156 221 L 159 222 L 157 225 L 160 225 L 163 227 L 165 228 Q 164 232 167 231 L 168 228 L 166 225 L 172 229 L 175 231 L 176 228 L 178 229 L 178 227 L 183 226 L 187 218 L 190 207 L 189 205 Q 190 201 187 202 L 186 200 L 188 200 L 187 196 L 186 198 L 183 195 L 185 195 L 185 194 Q 182 188 173 188 Z " /><path fill="rgb(50,54,53)" stroke="rgb(50,54,53)" stroke-width="0.6" opacity="1" d="M 385.5 154 L 399 154.5 L 385.5 155 L 385.5 154 Z " /><path fill="rgb(50,54,53)" stroke="rgb(50,54,53)" stroke-width="0.6" opacity="1" d="M 386.5 157 L 387 159 L 400.5 159 Q 399.5 156.3 403.5 157 L 409 158 Q 408 161 411 160 L 412.5 158 L 420 162.5 L 421 164.5 L 419 165 Q 418 169.3 421 168.5 L 421 172.5 L 422 179 L 420 179.5 L 420 219 Q 423 217.8 422 221.5 L 421 225 L 419 226.5 L 421 226.5 L 417 228.5 L 417.5 230 L 416 229.5 L 415.5 231 L 407.5 231 L 406.5 232 L 386.5 232 L 383 229.5 L 381 219 L 383 218.5 L 383 178 L 381 177.5 L 382 165.5 L 381 161.5 L 386.5 157 Z " /><path fill="rgb(50,54,53)" stroke="rgb(50,54,53)" stroke-width="0.6" opacity="1" d="M 433.5 166 L 434 179.5 L 433 179.5 L 433.5 166 Z " /><path fill="rgb(50,54,53)" stroke="rgb(50,54,53)" stroke-width="0.6" opacity="1" d="M 303.5 178 L 304 212.5 L 303 212.5 L 303.5 178 Z " /><path fill="rgb(50,54,53)" stroke="rgb(50,54,53)" stroke-width="0.6" opacity="1" d="M 368.5 178 L 369 218.5 L 368 218.5 L 368.5 178 Z " /><path fill="rgb(50,54,53)" stroke="rgb(50,54,53)" stroke-width="0.6" opacity="1" d="M 424.5 192 L 425 211.5 L 424 211.5 L 424.5 192 Z " /><path fill="rgb(50,54,53)" stroke="rgb(50,54,53)" stroke-width="0.6" opacity="1" d="M 431.5 205 L 432 219.5 L 431 219.5 L 431.5 205 Z " /><path fill="rgb(50,54,53)" stroke="rgb(50,54,53)" stroke-width="0.6" opacity="1" d="M 312.5 209 L 313 219.5 L 312 219.5 L 312.5 209 Z " /><path fill="rgb(50,54,53)" stroke="rgb(50,54,53)" stroke-width="0.6" opacity="1" d="M 486.5 209 L 487 254.5 L 486 254.5 L 486.5 209 Z " /><path fill="rgb(50,54,53)" stroke="rgb(50,54,53)" stroke-width="0.6" opacity="1" d="M 233.5 237 L 239 241.5 L 237 242.5 Q 239.8 244.2 235.5 246 L 230 244.5 L 232 243 L 232 240.5 L 230 240.5 L 233.5 237 Z " /><path fill="rgb(50,54,53)" stroke="rgb(50,54,53)" stroke-width="0.6" opacity="1" d="M 197.5 241 L 209 241.5 L 197.5 242 L 197.5 241 Z " /><path fill="rgb(50,54,53)" stroke="rgb(50,54,53)" stroke-width="0.6" opacity="1" d="M 410 261 L 419.5 261 L 420 263 L 410.5 263 L 410 261 Z " /><path fill="rgb(50,54,53)" stroke="rgb(50,54,53)" stroke-width="0.6" opacity="1" d="M 323 266 L 332.5 266 L 333 268 L 323.5 268 L 323 266 Z " /><path fill="rgb(50,54,53)" stroke="rgb(50,54,53)" stroke-width="0.6" opacity="1" d="M 232 267 Q 235.3 265.7 234 270.5 L 235 272.5 L 234 272.5 L 232 271 L 233 276 Q 229.3 277.4 231 271.5 L 232 267 Z " /><path fill="rgb(50,54,53)" stroke="rgb(50,54,53)" stroke-width="0.6" opacity="1" d="M 43.5 274 L 44.5 276 L 52.5 274 L 54.5 278 L 57 278.5 L 59 284.5 L 57 285 L 57 289 L 59 290.5 L 57 297 L 55 297.5 L 55.5 299 L 54.5 298 L 51 300.5 L 50.5 299 L 46 300.5 L 47 303 L 42 299.5 L 40 285.5 L 43.5 278 L 46 277.5 L 43 277 L 43.5 274 Z " /><path fill="rgb(50,54,53)" stroke="rgb(50,54,53)" stroke-width="0.6" opacity="1" d="M 448 275 L 457.5 275 L 459 276.5 L 448 277 L 448 275 Z " /><path fill="rgb(50,54,53)" stroke="rgb(50,54,53)" stroke-width="0.6" opacity="1" d="M 390 279 L 400.5 279 L 401 281 L 390.5 281 L 390 279 Z " /><path fill="rgb(50,54,53)" stroke="rgb(50,54,53)" stroke-width="0.6" opacity="1" d="M 162.5 280 Q 166.3 279 165 282 L 162.5 281 L 159.5 285 L 160.5 281 L 162.5 280 Z " /><path fill="rgb(50,54,53)" stroke="rgb(50,54,53)" stroke-width="0.6" opacity="1" d="M 168 280 L 173 282.5 L 173.5 285 L 175 284.5 L 173.5 286 L 169.5 282 L 168 280 Z " /><path fill="rgb(50,54,53)" stroke="rgb(50,54,53)" stroke-width="0.6" opacity="1" d="M 231 281 Q 234.5 279.9 233 287.5 L 232 290 Q 229 291.3 230 287.5 L 231 281 Z " /><path fill="rgb(50,54,53)" stroke="rgb(50,54,53)" stroke-width="0.6" opacity="1" d="M 452.5 287 L 458.5 294 L 452.5 287 Z " /><path fill="rgb(50,54,53)" stroke="rgb(50,54,53)" stroke-width="0.6" opacity="1" d="M 451.5 290 L 456.5 296 L 451.5 290 Z " /><path fill="rgb(50,54,53)" stroke="rgb(50,54,53)" stroke-width="0.6" opacity="1" d="M 32.5 296 L 33 313.5 L 32 313.5 L 32.5 296 Z " /><path fill="rgb(50,54,53)" stroke="rgb(50,54,53)" stroke-width="0.6" opacity="1" d="M 253.5 296 L 254 298 Q 258.3 299 257.5 296 L 263 296 Q 262 299 265 298 L 265.5 296 Q 279.9 299.1 287 309.5 L 290 314.5 L 289 317.5 L 291.5 321 L 293 320.5 L 296 333 Q 292.7 331.9 294 336 Q 297 334.8 296 338.5 L 297 348.5 L 296 351 Q 289.3 353.6 291 347.5 Q 289.5 334 283 325.5 L 284 323.5 L 282.5 324 L 274.5 316 L 264 313 Q 265.2 309.3 260 311 Q 261.3 314 257.5 313 Q 246.4 315.9 240 323.5 L 230.5 339 L 229 339.5 L 231 340.5 L 229.5 344 L 227 344.5 L 229 345 L 225.5 358 L 224 358.5 L 226 359.5 L 222.5 364 L 220.5 363 L 220 365 L 216 364.5 L 217 361 L 215 360.5 L 216 357 Q 219.7 358.2 218 353 Q 215 354.3 216 350.5 L 217 341.5 L 216 333.5 L 220.5 324 L 223 323.5 L 222 320.5 L 229.5 310 L 230.5 311 L 234 307.5 L 234.5 305 Q 241.7 298.2 253.5 296 Z " /><path fill="rgb(50,54,53)" stroke="rgb(50,54,53)" stroke-width="0.6" opacity="1" d="M 153.5 299 L 155 300.5 L 157 304.5 L 156 306.5 L 156.5 308 Q 152.8 304.8 153.5 299 Z " /><path fill="rgb(50,54,53)" stroke="rgb(50,54,53)" stroke-width="0.6" opacity="1" d="M 482.5 307 L 486 308.5 L 487 310.5 L 485 311.5 L 487 312 L 487 321.5 Q 484.3 320.9 485 324 L 487 325.5 L 480.5 335 L 468.5 337 L 468 334.5 L 468 328.5 Q 471.5 329.3 470 323 Q 466.5 324.1 468 316.5 L 467 311.5 L 471 309 Q 469.9 312.3 474 311 Q 472.8 308 476.5 309 L 482.5 307 Z " /><path fill="rgb(50,54,53)" stroke="rgb(50,54,53)" stroke-width="0.6" opacity="1" d="M 256.5 341 L 263.5 342 L 265.5 342 L 269 344.5 L 272 354 Q 276.1 352.7 275 356 L 271 357 L 271 362 Q 276.2 360.3 275 364 Q 270.1 362.2 272 368.5 L 270.5 371 L 268 371.5 Q 267.8 378.8 262.5 381 Q 259.2 379.9 260 382.5 L 260.5 384 L 256 383.5 L 257 381 L 253 379.5 L 252.5 377 L 250 376.5 L 247 370.5 L 249 370.5 L 249 368 L 245.5 366 L 244 366.5 L 245 360.5 L 244.5 359 L 247 359 L 248.5 357 L 248.5 356 L 247 354.5 Q 249.4 345.4 256.5 341 Z M 260 352 L 257 355 L 259 357 L 262 356 L 261 355 L 263 355 L 263 354 L 260 352 Z M 266 355 L 264 363 L 267 364 Q 269 357 266 355 Z " /><path fill="rgb(50,54,53)" stroke="rgb(50,54,53)" stroke-width="0.6" opacity="1" d="M 429.5 341 Q 428.7 346.8 432 348.5 L 429 348.5 L 428 342.5 L 429.5 341 Z " /><path fill="rgb(50,54,53)" stroke="rgb(50,54,53)" stroke-width="0.6" opacity="1" d="M 145.5 375 L 157 375.5 L 145.5 376 L 145.5 375 Z " /><path fill="rgb(50,54,53)" stroke="rgb(50,54,53)" stroke-width="0.6" opacity="1" d="M 167.5 375 L 179 375.5 L 167.5 376 L 167.5 375 Z " /><path fill="rgb(64,134,182)" stroke="rgb(64,134,182)" stroke-width="0.6" opacity="1" d="M 268.5 155 L 292.5 155 L 298 159.5 L 300 172.5 L 300 218.5 L 299 227.5 L 295.5 233 Q 283 237 264.5 235 L 262 234.5 L 264 215.5 Q 263.4 205.6 256.5 202 L 245 201 L 251 167.5 Q 251.9 160.9 256.5 158 L 268.5 155 Z " /><path fill="rgb(64,134,182)" stroke="rgb(64,134,182)" stroke-width="0.6" opacity="1" d="M 53.5 200 L 62 200 L 62 205.5 L 56 229 Q 49.6 230.3 48 225.5 L 47 210.5 Q 47.3 203.8 51.5 201 L 53.5 200 Z " /><path fill="rgb(64,134,182)" stroke="rgb(64,134,182)" stroke-width="0.6" opacity="1" d="M 243.5 205 L 247.5 206 L 251.5 205 L 258 209.5 L 259 229.5 L 254.5 238 L 241.5 239 L 237 235.5 L 236 216.5 Q 236.5 209 241.5 206 L 243.5 205 Z " /><path fill="rgb(64,134,182)" stroke="rgb(64,134,182)" stroke-width="0.6" opacity="1" d="M 466.5 260 L 482 260 L 482 267.5 L 479.5 273 L 411.5 277 L 371.5 281 L 368.5 280 L 314.5 285 L 312.5 284 L 302.5 286 L 298.5 285 L 280 287 L 280.5 289 L 292.5 289 L 294.5 288 L 297.5 289 L 351.5 284 L 353.5 285 L 427.5 279 L 425.5 282 L 422.5 282 L 409 290 L 407.5 292 Q 397.6 301.6 393 316.5 L 390 330.5 L 390 337.5 L 387.5 343 L 300.5 354 L 299 351.5 L 300 338.5 Q 298 314.5 284.5 302 L 271.5 294 L 252.5 293 L 246.5 294 L 232 302 L 233 280.5 L 235.5 274 L 286.5 270 L 291.5 271 L 358.5 266 L 361.5 267 L 376.5 265 L 432.5 262 L 434.5 263 L 444.5 261 L 448.5 262 L 466.5 260 Z " /><path fill="rgb(64,134,182)" stroke="rgb(64,134,182)" stroke-width="0.6" opacity="1" d="M 55.5 273 L 58 274.5 L 62 285.5 L 60 285.5 L 59.5 287 Q 59.3 278.3 54 274.5 L 55.5 273 Z " /><path fill="rgb(64,134,182)" stroke="rgb(64,134,182)" stroke-width="0.6" opacity="1" d="M 164.5 276 L 167.5 277 L 169.5 277 Q 176.8 277.3 179 282.5 Q 182.8 287.8 182 297.5 Q 180.1 309.1 171.5 314 L 163.5 316 Q 156.3 314.2 153 308.5 L 150 296 Q 153.3 294.7 152 299.5 Q 153.4 307.1 158.5 311 L 167.5 312 L 176 305.5 Q 179.4 299.4 178 288.5 L 172.5 281 L 164.5 279 L 163 279.5 L 162 277.5 L 164.5 276 Z " /><path fill="rgb(64,134,182)" stroke="rgb(64,134,182)" stroke-width="0.6" opacity="1" d="M 432.5 305 Q 444.3 305.7 449 313.5 Q 456.8 323.7 456 342.5 L 452 360.5 L 442.5 375 L 433.5 380 L 424.5 380 L 415 372.5 Q 406.5 361 408 339.5 Q 410.9 318.4 424.5 308 L 432.5 305 Z M 434 322 L 429 324 Q 420 329 419 342 L 420 345 L 419 347 Q 419 355 423 360 L 429 364 L 437 363 Q 444 358 446 348 Q 448 336 444 330 Q 441 323 434 322 Z " /><path fill="rgb(64,134,182)" stroke="rgb(64,134,182)" stroke-width="0.6" opacity="1" d="M 401.5 346 Q 406.5 344.6 404 351.5 Q 405.5 369.5 416 378.5 L 415 381 Q 402 380.2 395 372.5 Q 387.3 364.7 387 349.5 Q 388.7 346.2 394.5 347 L 396.5 348 L 401.5 346 Z " /><path fill="rgb(11,11,12)" stroke="rgb(11,11,12)" stroke-width="0.6" opacity="1" d="M 192.5 105 L 233.5 105 L 234.5 106 L 279.5 107 L 280.5 108 L 335.5 111 L 413.5 119 L 436.5 123 L 456.5 129 Q 467.6 133.9 475 142.5 Q 481.5 150.5 484 162.5 L 486 181.5 L 486 289.5 L 485 302.5 L 490 307.5 L 491 321.5 Q 490.1 332.6 483.5 338 Q 477.1 341.6 466.5 341 L 460 344.5 Q 457.9 368.4 443.5 380 Q 434.6 387.6 416.5 386 Q 398.3 384.7 390 373.5 L 385 364.5 L 380.5 349 L 308.5 357 L 300.5 362 L 292.5 363 L 291 364.5 Q 288 390 271.5 402 L 259.5 407 L 244.5 408 L 230.5 406 L 222.5 403 L 211 393.5 Q 204.6 385.5 203 374 L 157.5 376 L 156.5 375 L 113.5 374 Q 104 390.5 75.5 388 Q 58.3 385.3 50 373.5 L 43.5 361 Q 29.5 359 23 349.5 Q 19.1 341.9 21 328.5 Q 22.6 319.6 29 315.5 Q 26.5 283 35 261.5 Q 41.7 245.7 53 234.5 L 45 229.5 Q 40.7 222.3 43 208.5 Q 43.8 200.3 49.5 197 L 62.5 196 L 65 195.5 L 80 151.5 Q 85.4 137.9 95.5 129 Q 110.4 116.9 132.5 112 L 163.5 107 L 191.5 106 L 192.5 105 Z M 188 109 L 161 111 L 137 115 Q 115 119 101 130 L 91 140 L 82 156 Q 68 192 59 234 Q 45 247 37 267 L 32 297 L 33 318 L 43 323 L 66 328 L 119 334 L 121 333 L 141 335 L 185 335 L 199 333 L 212 333 L 213 334 L 215 332 L 220 319 L 230 305 L 233 304 Q 240 295 256 293 Q 275 292 284 302 Q 297 314 299 338 L 299 352 L 298 353 L 300 355 L 389 344 L 391 338 L 392 324 L 397 309 L 406 295 Q 415 283 433 281 Q 444 281 451 286 Q 461 293 465 307 L 480 306 L 482 301 L 482 277 L 481 276 L 483 272 L 483 261 L 481 259 L 483 256 L 482 176 L 480 162 L 474 148 Q 465 135 449 130 L 428 125 L 400 121 L 285 111 L 242 110 L 241 109 L 188 109 Z M 54 199 L 52 200 L 46 211 L 47 226 Q 48 231 56 230 L 58 226 L 63 202 Q 61 197 54 199 Z M 428 284 L 415 290 L 401 306 Q 393 319 392 340 L 394 344 L 401 343 L 405 338 Q 407 319 417 309 L 431 300 Q 441 299 447 303 Q 460 313 460 338 L 463 339 L 466 334 Q 468 308 457 296 L 444 285 L 428 284 Z M 254 296 Q 242 298 235 305 Q 222 316 216 334 L 217 342 L 215 361 L 217 365 L 223 364 L 227 357 L 227 351 L 231 339 L 240 324 Q 246 316 258 313 Q 269 312 275 316 Q 291 327 291 355 L 294 356 L 296 354 L 297 349 Q 298 323 287 310 Q 278 295 254 296 Z M 433 304 L 425 307 L 414 319 L 407 340 Q 406 361 414 373 L 425 381 L 434 381 L 443 376 Q 455 365 457 344 Q 458 324 450 314 Q 445 305 433 304 Z M 483 307 Q 478 310 470 309 L 467 312 L 468 335 L 469 337 L 481 335 L 487 326 L 486 309 L 483 307 Z M 256 318 L 248 322 Q 237 330 232 344 L 228 362 Q 228 382 237 394 Q 242 400 251 403 Q 265 405 271 398 Q 285 386 288 364 Q 289 339 279 327 L 267 318 L 256 318 Z M 30 320 Q 25 324 24 333 Q 23 343 27 349 L 38 356 L 64 363 L 102 369 L 143 371 L 144 372 L 182 372 L 208 369 L 213 363 L 214 339 L 210 335 L 173 338 L 129 337 L 84 333 L 49 327 L 30 320 Z M 404 344 Q 399 348 390 347 L 386 350 Q 386 365 394 373 Q 402 382 420 382 L 419 380 Q 411 375 408 366 Q 404 358 405 346 L 404 344 Z M 50 364 L 54 373 Q 63 383 82 385 Q 100 385 108 375 L 106 372 L 82 370 L 50 364 Z M 226 365 Q 222 369 214 368 L 207 374 L 213 390 Q 221 404 243 403 L 242 401 L 231 388 Q 226 380 227 367 L 226 365 Z " /><path fill="rgb(11,11,12)" stroke="rgb(11,11,12)" stroke-width="0.6" opacity="1" d="M 128.5 143 L 178.5 143 L 205.5 146 L 223.5 151 L 231 156.5 Q 234.6 161.9 233 172.5 L 221 231.5 L 215.5 240 L 213.5 241 L 161.5 241 L 160.5 240 L 133.5 240 L 132.5 239 L 75.5 237 Q 70 236.6 68 232.5 L 67 224.5 L 82 172.5 Q 86.1 159.1 95.5 151 L 107.5 146 L 128.5 143 Z M 131 146 L 112 148 L 97 154 L 90 162 L 83 178 L 72 214 L 70 231 L 75 234 L 82 235 L 146 237 L 147 238 L 177 238 L 178 239 L 211 239 L 214 238 L 218 233 L 231 168 L 230 161 L 222 153 L 201 148 L 177 146 L 131 146 Z " /><path fill="rgb(11,11,12)" stroke="rgb(11,11,12)" stroke-width="0.6" opacity="1" d="M 268.5 151 L 291.5 151 L 300 155.5 L 303 163.5 L 303 226.5 Q 302.1 233.1 297.5 236 L 291.5 238 L 258.5 239 Q 254.1 244.6 242.5 243 L 235 249.5 Q 237 256.4 233 255 Q 234.5 249.6 231.5 248 L 228 245.5 L 228 239.5 L 233 234.5 L 233 231.5 L 232 220.5 L 234 209.5 L 238.5 203 L 241 201.5 L 248 165.5 Q 249.8 157.8 255.5 154 L 268.5 151 Z M 270 154 L 257 157 L 250 168 L 244 200 L 257 203 Q 262 206 263 214 L 262 234 L 263 236 Q 282 238 296 234 L 299 231 L 301 221 L 301 171 L 299 160 Q 297 155 291 154 L 270 154 Z M 242 205 L 237 210 L 235 221 Q 233 231 237 237 L 242 240 L 255 239 Q 259 236 260 229 L 260 213 L 258 209 Q 254 202 242 205 Z M 234 237 Q 229 238 230 245 L 236 246 L 239 242 L 234 237 Z " /><path fill="rgb(11,11,12)" stroke="rgb(11,11,12)" stroke-width="0.6" opacity="1" d="M 328.5 151 L 359.5 153 L 368 157.5 L 371 168.5 L 371 224.5 Q 370.6 232.6 364.5 235 L 343.5 237 L 323.5 237 L 315 232.5 L 313 227.5 L 313 209.5 L 312 208.5 L 312 159.5 L 315.5 154 L 319.5 152 L 328.5 151 Z M 320 155 L 315 160 L 315 221 L 317 231 L 322 234 Q 346 236 364 232 L 368 227 L 369 219 Q 371 187 367 162 L 360 156 L 320 155 Z " /><path fill="rgb(11,11,12)" stroke="rgb(11,11,12)" stroke-width="0.6" opacity="1" d="M 383.5 155 L 411.5 155 Q 418.1 155.4 421 159.5 L 424 168.5 L 424 224.5 Q 423.6 230.1 419.5 232 L 412.5 234 L 388.5 235 L 380 230.5 Q 377.2 222.3 378 210.5 L 379 207.5 L 378 206.5 L 378 161.5 L 381.5 156 L 383.5 155 Z M 387 157 L 381 162 L 382 166 L 381 178 L 381 224 L 383 230 L 387 232 Q 405 234 418 230 L 421 227 L 422 222 L 422 174 L 420 163 L 413 158 L 387 157 Z " /><path fill="rgb(11,11,12)" stroke="rgb(11,11,12)" stroke-width="0.6" opacity="1" d="M 439.5 157 L 463.5 159 L 469 162.5 L 472 168.5 L 474 182.5 L 474 219.5 Q 473.5 227 468.5 230 Q 455.8 233.8 437.5 232 L 434 229.5 L 432 225.5 L 432 205.5 L 431 204.5 L 431 163.5 L 435.5 158 L 439.5 157 Z M 439 160 L 437 161 L 433 167 L 434 224 L 435 226 L 442 230 L 467 228 L 471 223 L 471 206 L 472 205 L 471 176 L 468 166 L 460 161 L 439 160 Z " /><path fill="rgb(11,11,12)" stroke="rgb(11,11,12)" stroke-width="0.6" opacity="1" d="M 113.5 167 Q 120.8 165.8 123 169.5 Q 124.1 172.8 121.5 172 L 116.5 170 L 107.5 175 L 106 173.5 L 111.5 168 L 113.5 167 Z " /><path fill="rgb(11,11,12)" stroke="rgb(11,11,12)" stroke-width="0.6" opacity="1" d="M 179.5 168 Q 188.1 166.9 190 172.5 L 192 176.5 L 190.5 178 L 186.5 174 Q 183.8 171.2 177.5 172 L 173 173 L 175.5 169 L 179.5 168 Z " /><path fill="rgb(11,11,12)" stroke="rgb(11,11,12)" stroke-width="0.6" opacity="1" d="M 111.5 187 L 113 189 L 105 193.5 L 99.5 202 L 99 199.5 L 107.5 189 L 111.5 187 Z " /><path fill="rgb(11,11,12)" stroke="rgb(11,11,12)" stroke-width="0.6" opacity="1" d="M 118 187 L 125 190.5 L 127 194.5 L 120.5 189 Q 116.8 190 118 187 Z " /><path fill="rgb(11,11,12)" stroke="rgb(11,11,12)" stroke-width="0.6" opacity="1" d="M 172.5 188 Q 181.7 187.8 185 193.5 L 188 199.5 L 186 198.5 L 181.5 192 Q 178.5 189 171.5 190 L 161 197.5 L 158.5 201 L 158 198.5 Q 162.8 190.8 172.5 188 Z " /><path fill="rgb(11,11,12)" stroke="rgb(11,11,12)" stroke-width="0.6" opacity="1" d="M 115.5 197 Q 123.8 195.7 126 200.5 Q 124.9 203.8 127.5 203 Q 130.8 204.8 129 211.5 L 122.5 223 L 112.5 227 Q 106.3 222.2 106 211.5 Q 107.1 202.1 113.5 198 L 115.5 197 Z M 121 200 Q 116 201 117 208 Q 118 211 123 210 Q 126 209 125 203 L 121 200 Z " /><path fill="rgb(11,11,12)" stroke="rgb(11,11,12)" stroke-width="0.6" opacity="1" d="M 175.5 198 Q 182.8 198.3 185 203.5 L 187 205 Q 185.7 200.9 189 202 L 190 206.5 L 186 219.5 L 179.5 227 L 171.5 229 L 164 220.5 L 164 209.5 L 170.5 200 L 175.5 198 Z M 179 202 L 175 205 Q 174 212 179 213 L 182 212 L 184 209 L 183 205 L 179 202 Z " /><path fill="rgb(11,11,12)" stroke="rgb(11,11,12)" stroke-width="0.6" opacity="1" d="M 155.5 214 L 158 221.5 L 164 227.5 L 162.5 227 L 158 223.5 Q 153.8 220.1 155.5 214 Z " /><path fill="rgb(11,11,12)" stroke="rgb(11,11,12)" stroke-width="0.6" opacity="1" d="M 98 217 L 100 218.5 L 105 224.5 L 103.5 224 L 99 220.5 L 98 217 Z " /><path fill="rgb(11,11,12)" stroke="rgb(11,11,12)" stroke-width="0.6" opacity="1" d="M 47.5 269 Q 58.3 267.2 61 273.5 L 64 284 Q 60.7 285.3 62 280.5 L 56.5 272 L 47.5 271 L 43 274.5 L 44 277.5 Q 39 281.5 40 291.5 L 42 299 L 40 300.5 Q 42.5 307 51.5 307 L 59 300.5 L 62 289 Q 66 287.6 64 294.5 Q 62.2 302.7 56.5 307 L 47.5 309 L 39 302.5 L 36 290.5 L 38 279.5 L 43.5 271 L 47.5 269 Z " /><path fill="rgb(11,11,12)" stroke="rgb(11,11,12)" stroke-width="0.6" opacity="1" d="M 165.5 273 Q 177.9 273.1 182 281.5 L 185 295.5 Q 183.9 309.9 174.5 316 L 163.5 319 Q 155 317.5 151 311.5 Q 145.9 305.6 147 293.5 Q 149.3 280.8 158.5 275 L 165.5 273 Z M 166 275 L 159 278 Q 150 284 149 297 Q 149 306 154 312 L 162 316 L 172 315 Q 179 310 182 302 Q 184 288 179 282 Q 176 275 166 275 Z " /><path fill="rgb(11,11,12)" stroke="rgb(11,11,12)" stroke-width="0.6" opacity="1" d="M 160.5 282 L 159 284.5 L 156 292 L 154 290.5 L 158.5 283 L 160.5 282 Z " /><path fill="rgb(11,11,12)" stroke="rgb(11,11,12)" stroke-width="0.6" opacity="1" d="M 172.5 283 L 174 284.5 L 177 290 L 175 288.5 L 172.5 283 Z " /><path fill="rgb(11,11,12)" stroke="rgb(11,11,12)" stroke-width="0.6" opacity="1" d="M 78.5 297 L 86.5 307 Q 94.1 314.9 111.5 313 Q 121.9 309.9 128 302.5 L 130.5 297 L 133 301 L 130 302.5 L 122.5 311 Q 115.2 317.3 100.5 316 Q 88.4 313.6 82 305.5 L 78.5 297 Z " /><path fill="rgb(11,11,12)" stroke="rgb(11,11,12)" stroke-width="0.6" opacity="1" d="M 174.5 303 L 175 305.5 L 169.5 310 L 173 305.5 L 174.5 303 Z " /><path fill="rgb(11,11,12)" stroke="rgb(11,11,12)" stroke-width="0.6" opacity="1" d="M 156.5 305 Q 158.6 311.4 168 310.5 L 162.5 312 L 157 309 L 156.5 305 Z " /><path fill="rgb(11,11,12)" stroke="rgb(11,11,12)" stroke-width="0.6" opacity="1" d="M 429.5 324 Q 434.3 322.7 433 326 L 430.5 326 L 425 331.5 L 422.5 340 L 421 336.5 Q 423.2 328.2 429.5 324 Z " /><path fill="rgb(11,11,12)" stroke="rgb(11,11,12)" stroke-width="0.6" opacity="1" d="M 435 324 L 442 327.5 L 445 338 Q 441.7 339.3 443 334.5 L 437.5 326 Q 433.8 327 435 324 Z " /><path fill="rgb(11,11,12)" stroke="rgb(11,11,12)" stroke-width="0.6" opacity="1" d="M 432.5 336 L 437 338.5 L 435.5 340 L 432.5 338 L 431 341 L 429 339.5 L 432.5 336 Z " /><path fill="rgb(11,11,12)" stroke="rgb(11,11,12)" stroke-width="0.6" opacity="1" d="M 258.5 338 Q 267.5 337 270 342.5 Q 274 346.8 274 354 Q 270.7 355.3 272 350.5 L 266.5 342 L 259.5 340 L 250 347.5 L 247 359 Q 243.7 360.3 245 355.5 Q 247.1 345.1 254.5 340 L 258.5 338 Z " /><path fill="rgb(11,11,12)" stroke="rgb(11,11,12)" stroke-width="0.6" opacity="1" d="M 420 342 Q 423.8 340.9 422 349.5 L 427.5 360 L 434.5 361 Q 442.9 356.6 443 345 Q 446.3 343.7 445 348.5 Q 442.9 357.4 436.5 362 L 429.5 363 L 424 359.5 Q 419.1 352.9 420 342 Z " /><path fill="rgb(11,11,12)" stroke="rgb(11,11,12)" stroke-width="0.6" opacity="1" d="M 259.5 352 L 263 353.5 L 264 355.5 L 261.5 354 L 256.5 357 L 257 355.5 L 259.5 352 Z " /><path fill="rgb(11,11,12)" stroke="rgb(11,11,12)" stroke-width="0.6" opacity="1" d="M 272 364 Q 275 362.8 274 366.5 Q 272.3 377.3 264.5 382 L 260 383 Q 258.8 380 262.5 381 Q 271.1 375.9 272 364 Z " /><path fill="rgb(11,11,12)" stroke="rgb(11,11,12)" stroke-width="0.6" opacity="1" d="M 245 366 Q 248.7 364.6 247 370.5 L 254.5 381 Q 258.3 380 257 383 Q 250.6 382.8 248 377.5 L 245 366 Z " /><path fill="rgb(11,11,12)" stroke="rgb(11,11,12)" stroke-width="0.6" opacity="1" d="M 256.5 366 L 260.5 368 L 263 366.5 L 260.5 370 L 257 368.5 L 256.5 366 Z " /><path fill="rgb(224,74,59)" stroke="rgb(224,74,59)" stroke-width="0.6" opacity="1" d="M 171.5 191 Q 181.2 189.8 184 195.5 L 186 199.5 L 183.5 200 Q 181.2 196.2 174.5 197 L 166 203.5 Q 161.8 208.3 163 218.5 L 166 225.5 L 163.5 226 Q 157.1 221.9 157 211.5 Q 158 199.5 165.5 194 L 171.5 191 Z " /><path fill="rgb(224,74,59)" stroke="rgb(224,74,59)" stroke-width="0.6" opacity="1" d="M 178.5 203 L 183 205.5 Q 183.8 210.3 180.5 211 L 176 209.5 Q 175 204 178.5 203 Z " /><path fill="rgb(224,74,59)" stroke="rgb(224,74,59)" stroke-width="0.6" opacity="1" d="M 164.5 282 Q 170.9 281.6 173 285.5 Q 175.9 290.1 175 298.5 L 169.5 308 L 161.5 309 Q 153.9 305.1 156 291.5 L 162.5 283 L 164.5 282 Z " /><path fill="rgb(224,74,59)" stroke="rgb(224,74,59)" stroke-width="0.6" opacity="1" d="M 427.5 285 L 439.5 285 L 454 293.5 Q 466.5 306 465 332.5 L 463.5 337 L 461 336 Q 461.4 312 446.5 302 Q 441.7 297.3 430.5 299 Q 420.6 302.1 415 309.5 L 408 321.5 L 404 337.5 L 400.5 342 L 394.5 343 L 393 339.5 Q 394.6 321.1 401 307.5 L 414.5 291 L 427.5 285 Z " /><path fill="rgb(224,74,59)" stroke="rgb(224,74,59)" stroke-width="0.6" opacity="1" d="M 255.5 319 L 269.5 320 L 280 329.5 Q 288 341 287 361.5 Q 284.6 385.1 270.5 397 Q 264.2 403.2 250.5 402 L 238 393.5 Q 232 385.5 230 373.5 L 230 357.5 Q 232.9 334.4 247.5 323 L 255.5 319 Z M 259 337 L 253 340 Q 246 346 244 356 Q 242 370 247 378 L 255 384 Q 264 386 268 381 Q 275 375 276 363 Q 277 350 272 344 Q 269 337 259 337 Z " /><path fill="rgb(224,74,59)" stroke="rgb(224,74,59)" stroke-width="0.6" opacity="1" d="M 29.5 321 L 40.5 326 L 75.5 333 L 112.5 337 L 169.5 339 L 209.5 336 L 213 339.5 L 213 356.5 L 211 364.5 L 208.5 367 Q 180.8 373.3 144.5 371 L 143.5 370 L 102.5 368 L 68.5 363 L 40.5 356 L 28 348.5 L 25 333.5 L 27 324.5 L 29.5 321 Z " /><path fill="rgb(224,74,59)" stroke="rgb(224,74,59)" stroke-width="0.6" opacity="1" d="M 433.5 339 Q 436.3 340.3 435 345.5 L 434 348 L 431 346.5 Q 429.8 340.3 433.5 339 Z " /><path fill="rgb(224,74,59)" stroke="rgb(224,74,59)" stroke-width="0.6" opacity="1" d="M 52 365 Q 76.3 371.7 106 373 Q 107.5 376.7 104.5 376 Q 97.3 384.3 81.5 384 Q 64.8 382.7 56 373.5 L 52 365 Z " /><path fill="rgb(72,77,74)" stroke="rgb(72,77,74)" stroke-width="0.6" opacity="1" d="M 381 178 L 383 178.5 L 383 219 L 381 218.5 L 381 178 Z " /><path fill="rgb(72,77,74)" stroke="rgb(72,77,74)" stroke-width="0.6" opacity="1" d="M 371.5 183 L 372 216.5 L 371 216.5 L 371.5 183 Z " /><path fill="rgb(72,77,74)" stroke="rgb(72,77,74)" stroke-width="0.6" opacity="1" d="M 482.5 200 L 483 211.5 L 482 211.5 L 482.5 200 Z " /><path fill="rgb(72,77,74)" stroke="rgb(72,77,74)" stroke-width="0.6" opacity="1" d="M 215.5 234 L 212.5 238 L 209.5 239 L 209 237 L 215.5 234 Z " /><path fill="rgb(72,77,74)" stroke="rgb(72,77,74)" stroke-width="0.6" opacity="1" d="M 155 236 L 171.5 236 L 172 238 L 155.5 238 L 155 236 Z " /><path fill="rgb(72,77,74)" stroke="rgb(72,77,74)" stroke-width="0.6" opacity="1" d="M 486.5 255 L 487 266.5 L 486 266.5 L 486.5 255 Z " /><path fill="rgb(72,77,74)" stroke="rgb(72,77,74)" stroke-width="0.6" opacity="1" d="M 477.5 257 L 478.5 259 L 474.5 260 L 472.5 260 Q 468.8 261 470 258 L 477.5 257 Z " /><path fill="rgb(72,77,74)" stroke="rgb(72,77,74)" stroke-width="0.6" opacity="1" d="M 407.5 261 Q 411.3 260 410 263 L 400 264 Q 398.9 260.5 406.5 262 L 407.5 261 Z " /><path fill="rgb(72,77,74)" stroke="rgb(72,77,74)" stroke-width="0.6" opacity="1" d="M 265.5 355 Q 269 357.1 267 364 L 264 362.5 L 265.5 355 Z " /><path fill="rgb(229,179,62)" stroke="rgb(229,179,62)" stroke-width="0.6" opacity="1" d="M 187.5 110 L 205 110.5 L 187.5 111 L 187.5 110 Z " /><path fill="rgb(229,179,62)" stroke="rgb(229,179,62)" stroke-width="0.6" opacity="1" d="M 219.5 110 L 240 110.5 L 219.5 111 L 219.5 110 Z " /><path fill="rgb(229,179,62)" stroke="rgb(229,179,62)" stroke-width="0.6" opacity="1" d="M 78.5 179 L 79 180.5 L 75.5 190 L 75 186.5 L 78.5 179 Z " /><path fill="rgb(229,179,62)" stroke="rgb(229,179,62)" stroke-width="0.6" opacity="1" d="M 425.5 181 L 426.5 189 L 427 184 L 429 182.5 L 430 182.5 L 429.5 205 L 427 204 L 426 210.5 L 426 212.5 L 425.5 219 L 425.5 181 Z " /><path fill="rgb(229,179,62)" stroke="rgb(229,179,62)" stroke-width="0.6" opacity="1" d="M 372.5 184 L 373 215.5 L 372 215.5 L 372.5 184 Z " /><path fill="rgb(229,179,62)" stroke="rgb(229,179,62)" stroke-width="0.6" opacity="1" d="M 435.5 190 L 436 222.5 L 435 222.5 L 435.5 190 Z " /><path fill="rgb(229,179,62)" stroke="rgb(229,179,62)" stroke-width="0.6" opacity="1" d="M 475.5 190 L 476 211.5 L 475 211.5 L 475.5 190 Z " /><path fill="rgb(229,179,62)" stroke="rgb(229,179,62)" stroke-width="0.6" opacity="1" d="M 470.5 196 L 471 206.5 L 470 206.5 L 470.5 196 Z " /><path fill="rgb(229,179,62)" stroke="rgb(229,179,62)" stroke-width="0.6" opacity="1" d="M 481.5 196 L 482 255.5 L 477.5 257 L 477.5 256 L 481 254.5 L 481.5 196 Z " /><path fill="rgb(229,179,62)" stroke="rgb(229,179,62)" stroke-width="0.6" opacity="1" d="M 322.5 232 L 350 232.5 L 322.5 233 L 322.5 232 Z " /><path fill="rgb(229,179,62)" stroke="rgb(229,179,62)" stroke-width="0.6" opacity="1" d="M 399.5 235 L 410 235.5 L 399.5 236 L 399.5 235 Z " /><path fill="rgb(229,179,62)" stroke="rgb(229,179,62)" stroke-width="0.6" opacity="1" d="M 95.5 239 L 106 239.5 L 95.5 240 L 95.5 239 Z " /><path fill="rgb(229,179,62)" stroke="rgb(229,179,62)" stroke-width="0.6" opacity="1" d="M 259.5 240 L 274 240.5 L 259.5 241 L 259.5 240 Z " /><path fill="rgb(229,179,62)" stroke="rgb(229,179,62)" stroke-width="0.6" opacity="1" d="M 186.5 242 L 212 242.5 L 186.5 243 L 186.5 242 Z " /><path fill="rgb(229,179,62)" stroke="rgb(229,179,62)" stroke-width="0.6" opacity="1" d="M 230.5 249 L 232 250.5 L 232 260.5 L 231 260.5 L 230.5 249 Z " /><path fill="rgb(229,179,62)" stroke="rgb(229,179,62)" stroke-width="0.6" opacity="1" d="M 436.5 258 L 447 258.5 L 436.5 259 L 436.5 258 Z " /><path fill="rgb(229,179,62)" stroke="rgb(229,179,62)" stroke-width="0.6" opacity="1" d="M 470.5 276 L 481 276.5 L 470.5 277 L 470.5 276 Z " /><path fill="rgb(229,179,62)" stroke="rgb(229,179,62)" stroke-width="0.6" opacity="1" d="M 441.5 278 L 446 278.5 L 443 280.5 L 443.5 282 L 438 281 Q 436.8 278 440.5 279 L 441.5 278 Z " /><path fill="rgb(229,179,62)" stroke="rgb(229,179,62)" stroke-width="0.6" opacity="1" d="M 33.5 298 L 34 311.5 L 33 311.5 L 33.5 298 Z " /><path fill="rgb(229,179,62)" stroke="rgb(229,179,62)" stroke-width="0.6" opacity="1" d="M 441 339 Q 444.3 337.7 443 342.5 L 441.5 349 L 441 339 Z " /><path fill="rgb(195,166,44)" stroke="rgb(195,166,44)" stroke-width="0.6" opacity="1" d="M 315.5 162 L 316 178.5 L 315 178.5 L 315.5 162 Z " /><path fill="rgb(195,166,44)" stroke="rgb(195,166,44)" stroke-width="0.6" opacity="1" d="M 304.5 183 L 305 206.5 L 304 206.5 L 304.5 183 Z " /><path fill="rgb(195,166,44)" stroke="rgb(195,166,44)" stroke-width="0.6" opacity="1" d="M 311.5 191 L 312 216.5 L 311 216.5 L 311.5 191 Z " /><path fill="rgb(195,166,44)" stroke="rgb(195,166,44)" stroke-width="0.6" opacity="1" d="M 430.5 191 L 431 216.5 L 430 216.5 L 430.5 191 Z " /><path fill="rgb(195,166,44)" stroke="rgb(195,166,44)" stroke-width="0.6" opacity="1" d="M 440.5 228 L 451 228.5 L 440.5 229 L 440.5 228 Z " /><path fill="rgb(195,166,44)" stroke="rgb(195,166,44)" stroke-width="0.6" opacity="1" d="M 387.5 235 L 399 235.5 L 387.5 236 L 387.5 235 Z " /><path fill="rgb(111,95,48)" stroke="rgb(111,95,48)" stroke-width="0.6" opacity="1" d="M 311.5 162 L 312 178.5 L 311 178.5 L 311.5 162 Z " /><path fill="rgb(111,95,48)" stroke="rgb(111,95,48)" stroke-width="0.6" opacity="1" d="M 430.5 165 L 431 177.5 L 430 177.5 L 430.5 165 Z " /><path fill="rgb(111,95,48)" stroke="rgb(111,95,48)" stroke-width="0.6" opacity="1" d="M 315.5 195 L 316 206.5 L 315 206.5 L 315.5 195 Z " /><path fill="rgb(111,95,48)" stroke="rgb(111,95,48)" stroke-width="0.6" opacity="1" d="M 440.5 232 L 451 232.5 L 440.5 233 L 440.5 232 Z " /><path fill="rgb(106,108,103)" stroke="rgb(106,108,103)" stroke-width="0.6" opacity="1" d="M 300.5 185 L 301 206.5 L 300 206.5 L 300.5 185 Z " /><path fill="rgb(106,108,103)" stroke="rgb(106,108,103)" stroke-width="0.6" opacity="1" d="M 420 185 L 422 185.5 L 422 214 L 420 213.5 L 420 185 Z " /><path fill="rgb(106,108,103)" stroke="rgb(106,108,103)" stroke-width="0.6" opacity="1" d="M 474.5 191 L 475 210.5 L 474 210.5 L 474.5 191 Z " /><path fill="rgb(106,108,103)" stroke="rgb(106,108,103)" stroke-width="0.6" opacity="1" d="M 434.5 194 L 435 217.5 L 434 217.5 L 434.5 194 Z " /><path fill="rgb(106,108,103)" stroke="rgb(106,108,103)" stroke-width="0.6" opacity="1" d="M 482.5 212 L 483 251.5 L 482 251.5 L 482.5 212 Z " /><path fill="rgb(106,108,103)" stroke="rgb(106,108,103)" stroke-width="0.6" opacity="1" d="M 324.5 233 L 338 233.5 L 324.5 234 L 324.5 233 Z " /><path fill="rgb(106,108,103)" stroke="rgb(106,108,103)" stroke-width="0.6" opacity="1" d="M 196 237 L 208.5 237 L 209 239 L 196.5 239 L 196 237 Z " /><path fill="rgb(106,108,103)" stroke="rgb(106,108,103)" stroke-width="0.6" opacity="1" d="M 28.5 295 L 29 313.5 L 28 313.5 L 28.5 295 Z " /><path fill="rgb(106,108,103)" stroke="rgb(106,108,103)" stroke-width="0.6" opacity="1" d="M 154.5 371 L 172 371.5 L 154.5 372 L 154.5 371 Z " /><path fill="rgb(153,138,45)" stroke="rgb(153,138,45)" stroke-width="0.6" opacity="1" d="M 430.5 178 L 431 190.5 L 430 190.5 L 430.5 178 Z " /><path fill="rgb(153,138,45)" stroke="rgb(153,138,45)" stroke-width="0.6" opacity="1" d="M 311.5 179 L 312 190.5 L 311 190.5 L 311.5 179 Z " /><path fill="rgb(153,138,45)" stroke="rgb(153,138,45)" stroke-width="0.6" opacity="1" d="M 434.5 182 L 435 193.5 L 434 193.5 L 434.5 182 Z " /><path fill="rgb(153,138,45)" stroke="rgb(153,138,45)" stroke-width="0.6" opacity="1" d="M 315.5 184 L 316 194.5 L 315 194.5 L 315.5 184 Z " /><path fill="rgb(153,138,45)" stroke="rgb(153,138,45)" stroke-width="0.6" opacity="1" d="M 324.5 237 L 337 237.5 L 324.5 238 L 324.5 237 Z " /><path fill="rgb(153,138,45)" stroke="rgb(153,138,45)" stroke-width="0.6" opacity="1" d="M 481.5 277 L 482 289.5 L 481 289.5 L 481.5 277 Z " /><path fill="rgb(153,138,45)" stroke="rgb(153,138,45)" stroke-width="0.6" opacity="1" d="M 154.5 334 L 171 334.5 L 154.5 335 L 154.5 334 Z " /><path fill="rgb(153,138,45)" stroke="rgb(153,138,45)" stroke-width="0.6" opacity="1" d="M 235.5 395 L 240.5 401 L 235.5 395 Z " /><path fill="rgb(62,117,134)" stroke="rgb(62,117,134)" stroke-width="0.6" opacity="1" d="M 263.5 235 L 274 235.5 L 263.5 236 L 263.5 235 Z " /><path fill="rgb(62,117,134)" stroke="rgb(62,117,134)" stroke-width="0.6" opacity="1" d="M 177.5 308 L 172.5 314 L 177.5 308 Z " /><path fill="rgb(167,71,58)" stroke="rgb(167,71,58)" stroke-width="0.6" opacity="1" d="M 420.5 304 L 415.5 310 L 420.5 304 Z " /><path fill="rgb(167,71,58)" stroke="rgb(167,71,58)" stroke-width="0.6" opacity="1" d="M 273.5 322 L 278.5 328 L 273.5 322 Z " /><path fill="rgb(167,71,58)" stroke="rgb(167,71,58)" stroke-width="0.6" opacity="1" d="M 155.5 338 L 170 338.5 L 155.5 339 L 155.5 338 Z " /><path fill="rgb(208,207,207)" stroke="rgb(208,207,207)" stroke-width="0.6" opacity="1" d="M 487.5 211 L 488 252.5 L 487 252.5 L 487.5 211 Z " /><path fill="rgb(208,207,207)" stroke="rgb(208,207,207)" stroke-width="0.6" opacity="1" d="M 152.5 376 L 173 376.5 L 152.5 377 L 152.5 376 Z " /><path fill="rgb(159,159,159)" stroke="rgb(159,159,159)" stroke-width="0.6" opacity="1" d="M 197.5 104 L 227 104.5 L 197.5 105 L 197.5 104 Z " /><path fill="rgb(159,159,159)" stroke="rgb(159,159,159)" stroke-width="0.6" opacity="1" d="M 486.5 276 L 487 286.5 L 486 286.5 L 486.5 276 Z " /><path fill="rgb(159,159,159)" stroke="rgb(159,159,159)" stroke-width="0.6" opacity="1" d="M 417.5 386 L 428 386.5 L 417.5 387 L 417.5 386 Z " /></svg>