<svg width="627" height="627" preserveAspectRatio="xMidYMid meet" viewBox="0 0 512 512" version="1.1" xmlns="http://www.w3.org/2000/svg" ><path fill="rgb(255,255,255)" stroke="rgb(255,255,255)" stroke-width="0.6" opacity="1" d="M 0 0 L 512 0 L 512 512 L 0 512 L 0 0 Z M 193 87 L 183 90 L 172 103 L 170 118 L 169 119 Q 160 118 155 121 L 148 125 Q 142 128 141 136 L 139 138 L 131 138 L 114 143 L 101 150 L 85 168 Q 75 186 70 209 L 68 211 L 56 211 L 48 221 L 46 231 Q 45 245 53 251 Q 43 260 37 275 Q 30 296 32 328 L 25 341 Q 22 358 29 367 Q 35 374 47 376 L 52 388 L 65 399 L 80 404 Q 108 406 118 390 L 154 391 L 155 392 L 199 391 L 201 400 L 208 413 Q 216 422 231 425 L 258 425 L 270 419 Q 284 408 287 385 L 299 381 L 379 368 L 382 379 L 387 387 Q 393 394 405 397 L 430 397 L 439 393 Q 455 382 456 357 L 463 353 L 475 352 L 479 350 Q 487 344 488 332 Q 489 320 486 314 L 480 309 L 480 289 L 481 288 L 480 174 L 478 155 L 472 141 L 459 129 L 442 124 L 399 120 L 396 118 L 365 117 L 333 114 L 240 115 L 234 97 L 224 88 L 193 87 Z " /><path fill="rgb(210,60,56)" stroke="rgb(210,60,56)" stroke-width="0.6" opacity="1" d="M 160.5 126 L 164 127.5 L 163 136 L 150.5 137 L 149 134.5 L 153.5 129 L 160.5 126 Z " /><path fill="rgb(210,60,56)" stroke="rgb(210,60,56)" stroke-width="0.6" opacity="1" d="M 180.5 140 L 219.5 140 L 225.5 142 L 268.5 143 L 288.5 148 L 300 157.5 L 306 170.5 L 309 200.5 L 309 349.5 L 310 356.5 L 307.5 359 L 299.5 360 L 297 357.5 Q 297.7 344.7 294 336.5 Q 290.1 325.9 282.5 319 L 268.5 311 L 251.5 310 L 236 315 L 237 290.5 L 236 287.5 L 237 283.5 L 236 282.5 L 236 269.5 L 244.5 264 Q 249 268.5 259.5 267 Q 270 265.5 274.5 258 L 282.5 258 L 290.5 256 L 297 251.5 L 299 233.5 L 298 232.5 L 297 184.5 Q 295.9 175.1 289.5 171 Q 283.3 166.2 270.5 168 L 251.5 172 L 244 178.5 L 240 188.5 L 236 209.5 L 236 219.5 L 232 239.5 L 232 251.5 Q 227.5 253.6 227 259.5 L 234 268.5 L 234 273.5 L 233 274.5 L 233 317.5 L 219 332.5 L 209.5 350 L 138.5 352 L 128.5 350 L 85.5 347 L 71.5 343 L 63.5 343 L 46.5 338 L 38 332.5 L 37 309 Q 40.5 307.9 39 315.5 L 46.5 327 L 55.5 328 L 64 322.5 Q 68.4 318.4 69 310.5 L 68 307.5 L 69 304.5 Q 68 292.5 60.5 287 L 49.5 286 L 42 292.5 L 40 299 Q 36.3 300.4 38 294.5 Q 40.5 279.5 47 268.5 L 65 247.5 L 73 214.5 L 86 179.5 Q 91.7 164.7 103.5 156 Q 113.4 148.4 127.5 145 L 143.5 142 L 176.5 142 L 180.5 140 Z M 147 163 L 113 166 L 99 171 Q 90 178 85 189 L 68 243 L 69 251 L 77 256 L 107 257 L 112 259 L 183 260 L 186 262 Q 204 264 214 258 Q 220 253 221 244 L 229 199 L 230 186 L 228 176 Q 223 167 212 166 L 172 163 L 147 163 Z M 283 274 L 281 275 L 277 280 L 278 286 L 282 288 L 298 286 L 300 282 L 299 277 L 297 274 L 283 274 Z M 169 291 L 161 294 Q 152 301 149 314 Q 148 325 153 332 L 165 340 Q 177 342 183 337 L 191 326 L 193 315 L 190 302 L 179 292 L 169 291 Z M 82 307 L 78 311 L 84 321 Q 90 327 101 330 L 119 329 L 127 325 L 133 318 L 136 316 L 138 316 L 133 309 L 130 311 L 131 315 Q 126 322 116 325 Q 100 327 93 322 L 83 312 L 84 309 L 82 307 Z " /><path fill="rgb(210,60,56)" stroke="rgb(210,60,56)" stroke-width="0.6" opacity="1" d="M 119.5 222 L 123 224.5 L 121.5 230 L 119 229 L 118 223.5 L 119.5 222 Z " /><path fill="rgb(210,60,56)" stroke="rgb(210,60,56)" stroke-width="0.6" opacity="1" d="M 50.5 295 L 56 296 Q 60.7 300.1 59 311.5 L 53.5 319 Q 47.3 320.3 46 316.5 L 44 305.5 Q 45.1 298.1 50.5 295 Z " /><path fill="rgb(210,60,56)" stroke="rgb(210,60,56)" stroke-width="0.6" opacity="1" d="M 427.5 298 Q 444.3 297.7 451 307.5 L 459 324.5 L 460 344.5 L 459 347 L 456 346.5 L 456 336.5 Q 452.7 323.3 444.5 315 Q 440.2 311.3 431.5 312 Q 419.7 314.2 414 322.5 L 408 332.5 Q 403.6 341 403 353.5 L 399.5 358 L 393 358 L 393 346.5 Q 395.4 318.4 412.5 305 L 427.5 298 Z " /><path fill="rgb(210,60,56)" stroke="rgb(210,60,56)" stroke-width="0.6" opacity="1" d="M 35.5 335 L 40.5 340 L 49.5 344 L 81.5 351 L 128.5 356 L 183.5 357 L 209.5 354 L 212 356.5 L 212 368.5 Q 208.8 369.8 210 375.5 L 211 377.5 L 207.5 383 L 201.5 385 L 188.5 386 L 146.5 386 L 135.5 384 L 109.5 383 L 104.5 381 L 75.5 378 L 42.5 369 L 33 361.5 L 32 359.5 L 32 338.5 L 35.5 335 Z " /><path fill="rgb(210,60,56)" stroke="rgb(210,60,56)" stroke-width="0.6" opacity="1" d="M 252.5 338 L 263.5 338 L 275 347.5 L 281 360.5 L 282 382.5 Q 278.5 404 264.5 415 L 256.5 419 L 247.5 419 L 235 410.5 L 229 398.5 L 227 380.5 L 233 358.5 L 246.5 341 L 252.5 338 Z M 255 356 L 251 358 L 242 370 L 240 381 L 243 394 L 252 401 L 260 401 Q 269 394 272 381 Q 273 368 268 362 Q 264 356 255 356 Z " /><path fill="rgb(210,60,56)" stroke="rgb(210,60,56)" stroke-width="0.6" opacity="1" d="M 255.5 360 Q 262.4 359.1 264 363.5 Q 269.5 370 267 384.5 L 261.5 395 L 251.5 397 Q 242 392 245 374.5 Q 246.5 366 252.5 362 L 255.5 360 Z M 255 370 L 250 377 L 250 385 Q 252 389 259 388 L 263 381 L 262 372 Q 260 368 255 370 Z " /><path fill="rgb(210,60,56)" stroke="rgb(210,60,56)" stroke-width="0.6" opacity="1" d="M 57.5 379 L 86.5 386 L 105.5 388 L 109 390.5 Q 100.7 400.2 80.5 398 Q 66.6 395.4 59 386.5 L 56 380.5 L 57.5 379 Z " /><path fill="rgb(80,153,193)" stroke="rgb(80,153,193)" stroke-width="0.6" opacity="1" d="M 280.5 119 L 288.5 120 L 300.5 119 L 301.5 120 L 337.5 120 Q 349.8 123.2 366.5 122 L 369.5 124 L 383.5 124 L 427.5 128 L 454.5 134 L 467 144.5 L 472 155.5 Q 471 164.5 474 169.5 L 474 254.5 L 475 258.5 L 473.5 260 L 444.5 261 L 422.5 264 L 403.5 264 L 400.5 266 L 371.5 267 L 328.5 272 L 315 272 L 314 268.5 L 314 210.5 L 313 209.5 L 312 177.5 L 307 158.5 L 299.5 149 L 290.5 143 L 280.5 140 L 246.5 137 L 245 135.5 L 246 131.5 L 242 122 L 248.5 121 L 277.5 121 L 280.5 119 Z M 380 168 L 375 174 L 375 193 L 373 195 L 356 196 L 352 201 L 352 227 L 358 231 L 371 230 L 376 231 L 377 233 L 377 254 L 383 258 L 397 258 L 408 255 L 410 252 L 410 231 L 412 229 Q 423 230 431 227 L 433 225 L 433 198 L 429 194 L 412 194 L 409 192 L 409 172 L 405 168 L 380 168 Z " /><path fill="rgb(80,153,193)" stroke="rgb(80,153,193)" stroke-width="0.6" opacity="1" d="M 391.5 172 L 402.5 172 L 404 173.5 L 405 175.5 L 405 197.5 L 406.5 199 L 427.5 199 L 429 200.5 L 429 221.5 L 426.5 224 L 407.5 224 L 405 226.5 L 406 249.5 L 403.5 252 L 383.5 252 L 382 250.5 Q 383.3 235.3 379.5 225 L 358.5 226 L 357 224.5 L 356 202.5 L 358.5 200 L 378.5 200 L 380 198.5 L 380 175.5 L 382.5 173 L 391.5 172 Z " /><path fill="rgb(80,153,193)" stroke="rgb(80,153,193)" stroke-width="0.6" opacity="1" d="M 165.5 212 Q 175.1 210.9 178 216.5 L 177.5 220 Q 174.8 217.2 168.5 218 L 160 224.5 Q 156.3 228.8 157 237.5 L 160 246 L 153 241.5 L 152 228.5 Q 154.4 218.9 161.5 214 L 165.5 212 Z " /><path fill="rgb(80,153,193)" stroke="rgb(80,153,193)" stroke-width="0.6" opacity="1" d="M 249.5 224 Q 262.8 221.8 267 228.5 Q 272.7 235.3 270 250.5 Q 269.1 257.1 264.5 260 L 244.5 260 L 242.5 259 Q 240.5 262.5 234.5 262 L 233 259.5 L 239 252.5 L 239 248.5 L 238 246.5 L 240 233.5 L 244 227 L 249.5 224 Z " /><path fill="rgb(80,153,193)" stroke="rgb(80,153,193)" stroke-width="0.6" opacity="1" d="M 284.5 278 L 294.5 278 L 296 279.5 L 293.5 283 L 282.5 283 L 282 280.5 L 284.5 278 Z " /><path fill="rgb(80,153,193)" stroke="rgb(80,153,193)" stroke-width="0.6" opacity="1" d="M 249.5 315 L 268.5 316 L 283 326.5 L 292 348.5 L 292 372.5 L 289.5 376 L 285 351.5 L 273.5 334 L 270.5 332 L 258.5 330 Q 242.4 332.9 235 344.5 Q 225.4 355.9 224 375.5 L 219.5 381 L 214 379.5 Q 218.7 371.2 217 356.5 L 216 347.5 Q 221.4 332.9 232.5 324 L 249.5 315 Z " /><path fill="rgb(80,153,193)" stroke="rgb(80,153,193)" stroke-width="0.6" opacity="1" d="M 399.5 363 Q 404.5 361.6 402 368.5 L 405 379.5 L 413 391 Q 396.4 390.5 389 379.5 Q 385.1 375 386 367 L 399.5 363 Z " /><path fill="rgb(80,153,193)" stroke="rgb(80,153,193)" stroke-width="0.6" opacity="1" d="M 212.5 386 L 218.5 387 L 224 386 L 223 391.5 L 226 403.5 L 236 416.5 L 236 419 Q 220.4 418.9 213 409.5 Q 206.5 403 206 390.5 L 212.5 386 Z " /><path fill="rgb(0,0,0)" stroke="rgb(0,0,0)" stroke-width="0.6" opacity="1" d="M 195.5 87 L 213.5 87 Q 216.1 90.4 223.5 89 L 232 95.5 L 236 103.5 L 237 114.5 L 238.5 116 L 263.5 114 L 330.5 114 L 331.5 115 L 361.5 116 L 365.5 118 L 395.5 119 L 413.5 121 L 416.5 123 L 442.5 125 L 459.5 131 L 471 141.5 L 477 153.5 L 480 175.5 L 481 285.5 L 480 286.5 L 480 309.5 Q 489.7 314.8 487 332.5 Q 485.8 342.8 479.5 348 L 473.5 351 L 459.5 353 L 455 356.5 Q 454.1 380.6 439.5 391 L 427.5 397 L 408.5 397 Q 393.2 394.3 386 383.5 L 378.5 367 L 287.5 382 L 286 383.5 Q 283.4 407.9 267.5 419 Q 256.9 427.9 234.5 425 L 224.5 423 L 210 413.5 L 198.5 390 L 180.5 392 L 156.5 392 L 155.5 391 L 135.5 391 L 132.5 389 L 116.5 389 L 110.5 396 L 99.5 402 L 83.5 404 Q 62 400.5 52 385.5 L 46.5 375 Q 35.5 373 30 365.5 L 26 357.5 L 26 339.5 L 32 329.5 L 32 300.5 L 34 297.5 L 34 287.5 L 38 274.5 Q 43.9 259.9 55 250.5 Q 45.5 245.5 47 229.5 Q 47.9 216.9 56.5 212 L 68.5 211 L 71 208.5 Q 75.7 186.7 85 169.5 L 102.5 150 L 116.5 143 L 133.5 138 L 139.5 138 L 142 135.5 Q 143.8 128.3 149.5 125 L 160.5 120 L 168.5 120 L 171 117.5 L 173 102.5 L 182.5 91 L 195.5 87 Z M 191 93 L 185 95 L 177 105 L 174 119 L 176 122 L 232 122 L 233 121 Q 234 107 229 100 Q 227 94 220 93 L 191 93 Z M 280 119 L 279 120 L 241 121 L 245 129 L 245 136 Q 247 139 256 137 L 259 139 L 278 140 L 286 142 L 299 149 L 308 163 L 312 181 L 312 208 L 314 212 L 314 272 L 316 273 L 380 267 L 400 267 L 403 265 L 416 264 L 436 264 L 439 262 L 472 261 L 476 259 L 475 258 L 475 181 L 473 158 L 467 144 Q 462 136 454 133 L 425 127 L 369 123 L 366 121 L 340 121 L 336 119 L 280 119 Z M 162 125 L 153 129 L 148 135 L 149 137 L 163 137 Q 166 135 164 129 L 166 127 L 162 125 Z M 172 127 L 168 134 L 170 135 L 239 135 L 240 130 L 238 127 L 172 127 Z M 180 140 L 179 141 L 141 142 L 129 144 Q 114 148 104 155 Q 93 163 87 176 L 72 216 L 64 248 L 47 268 Q 41 278 38 292 L 38 302 L 40 302 L 43 293 L 52 286 L 61 288 Q 66 292 68 301 Q 70 315 64 322 L 58 327 L 47 326 Q 38 320 39 305 L 37 306 L 37 333 L 45 338 L 62 343 L 69 343 L 88 348 L 101 348 L 104 350 L 122 350 L 138 352 L 210 351 L 219 334 L 233 319 L 233 276 L 234 275 L 234 268 L 228 262 Q 227 254 232 253 L 232 243 L 236 223 L 236 214 L 240 191 L 244 180 L 253 172 L 268 169 Q 281 167 289 171 Q 296 176 297 189 L 297 230 L 298 231 L 297 251 L 293 255 L 274 257 Q 270 264 262 266 Q 250 268 246 264 Q 238 263 236 269 L 236 315 L 238 316 L 250 311 L 267 311 L 281 318 Q 289 325 293 336 L 296 347 L 296 357 L 299 360 Q 307 362 310 358 L 309 200 L 307 173 L 301 158 L 289 147 L 268 142 L 222 141 L 221 140 L 180 140 Z M 261 174 L 253 176 L 245 186 L 239 220 L 241 225 Q 244 220 252 219 Q 261 218 267 221 L 272 228 L 275 238 L 274 250 L 276 253 L 277 252 L 290 252 L 294 249 L 294 197 L 291 180 L 286 174 L 261 174 Z M 59 216 L 53 224 L 53 243 L 59 246 Q 66 235 67 218 Q 65 214 59 216 Z M 251 223 L 246 225 L 239 235 L 238 254 L 236 255 L 232 261 L 236 263 L 243 260 L 246 261 L 266 260 L 269 257 L 271 249 Q 273 235 268 229 Q 264 221 251 223 Z M 467 263 L 418 268 L 375 270 L 372 272 L 338 273 L 334 275 L 317 276 L 315 278 L 315 296 L 317 297 L 387 290 L 397 290 L 397 292 L 343 298 L 317 299 L 315 301 L 315 326 L 314 327 L 314 356 L 316 357 L 327 357 L 338 354 L 350 354 L 353 352 L 388 348 L 390 346 L 390 340 L 394 325 L 404 308 Q 412 297 427 294 L 438 294 L 450 300 L 460 313 L 473 313 L 475 311 L 475 286 L 474 284 L 454 287 L 419 289 L 416 291 L 402 291 L 401 290 L 403 288 L 474 282 L 475 281 L 475 265 Q 473 261 467 263 Z M 54 289 L 50 290 L 51 294 L 50 295 Q 45 297 44 304 Q 43 312 46 318 L 51 320 L 55 319 L 60 312 Q 62 301 57 297 L 54 295 Q 53 292 57 293 L 62 302 Q 64 312 60 318 Q 58 323 50 322 Q 49 326 58 324 Q 64 320 65 312 Q 67 298 61 293 Q 59 289 54 289 Z M 427 298 L 412 305 Q 391 320 393 358 Q 394 360 400 359 L 404 354 Q 405 335 414 324 Q 419 316 430 313 Q 439 312 444 315 L 453 329 L 456 339 L 456 348 L 458 349 L 460 346 L 460 327 L 451 307 Q 444 297 427 298 Z M 249 315 L 232 324 Q 221 334 215 349 L 216 356 Q 217 370 214 381 L 220 382 L 225 376 Q 226 357 235 346 Q 242 335 257 331 Q 268 330 274 335 L 284 351 L 288 370 Q 286 377 290 377 L 292 374 L 293 368 L 292 345 L 283 326 L 268 315 L 249 315 Z M 475 315 Q 471 318 463 317 L 461 319 L 464 329 L 464 346 L 466 347 Q 473 348 477 345 L 481 339 L 481 317 Q 480 314 475 315 Z M 427 319 L 420 323 L 410 339 Q 410 351 405 360 L 407 376 L 411 384 L 422 391 Q 431 392 436 389 L 446 377 L 451 362 L 451 339 L 445 326 L 438 319 L 427 319 Z M 35 334 L 31 339 L 32 362 L 44 370 L 77 379 L 107 382 L 110 384 L 129 384 L 146 386 Q 180 388 208 384 L 211 379 L 212 370 L 212 356 L 211 354 L 198 354 L 195 356 L 146 356 L 145 355 L 110 354 L 107 352 L 85 351 L 56 345 L 40 339 L 38 337 L 35 334 Z M 252 338 L 246 341 L 233 357 L 227 378 L 228 397 L 235 412 L 246 419 Q 258 421 265 416 Q 278 406 282 386 L 282 363 L 275 347 L 265 338 L 252 338 Z M 380 351 L 370 354 L 358 354 L 355 356 Q 346 355 342 358 L 299 363 L 296 366 Q 294 374 298 376 L 388 361 Q 391 359 389 353 Q 387 349 380 351 Z M 401 362 Q 397 365 390 364 L 385 368 L 385 372 L 389 381 L 402 390 L 415 392 L 406 380 Q 402 374 403 364 L 401 362 Z M 57 378 L 55 380 L 58 387 Q 66 397 83 399 Q 103 401 110 390 L 109 388 L 85 385 L 57 378 Z M 223 384 Q 219 388 211 386 L 205 391 Q 206 403 213 411 Q 220 420 238 419 L 227 404 Q 223 397 224 386 L 223 384 Z " /><path fill="rgb(0,0,0)" stroke="rgb(0,0,0)" stroke-width="0.6" opacity="1" d="M 147.5 163 L 170.5 163 L 171.5 164 L 190.5 164 L 194.5 166 L 209.5 166 L 221.5 170 L 228 176.5 L 229 195.5 L 220 245.5 Q 218.3 253.8 212.5 258 Q 202.1 263.1 184.5 261 L 183.5 260 L 108.5 258 L 104.5 256 L 79.5 256 Q 72.1 254.9 69 249.5 L 69 239.5 L 84 193.5 Q 88.6 179.1 99.5 171 L 113.5 166 L 126.5 166 L 129.5 164 L 146.5 164 L 147.5 163 Z M 137 168 L 136 169 L 120 169 L 102 174 L 94 182 L 86 199 L 74 236 L 73 248 L 77 251 Q 86 250 90 253 L 168 255 L 169 256 L 208 256 L 211 255 L 215 250 L 217 243 L 226 190 L 225 179 L 219 172 L 201 169 L 137 168 Z " /><path fill="rgb(0,0,0)" stroke="rgb(0,0,0)" stroke-width="0.6" opacity="1" d="M 381.5 168 L 403.5 168 L 408 171.5 L 409 192.5 L 410.5 194 L 427.5 194 L 432 197.5 L 433 199.5 L 433 223.5 L 427.5 228 L 412.5 228 L 410 230.5 L 410 250.5 L 406.5 255 Q 396.9 258.4 382.5 257 L 378 253.5 L 377 251.5 L 377 231.5 L 375.5 230 L 356.5 230 L 353 226.5 L 352 224.5 L 352 201.5 L 356.5 196 L 373.5 195 L 375 193.5 L 375 174.5 L 379.5 169 L 381.5 168 Z M 391 172 L 382 173 L 380 175 L 380 198 L 376 200 L 358 200 L 356 202 L 356 224 L 359 226 L 380 226 L 381 228 L 381 251 L 384 253 L 405 252 L 406 251 L 406 227 L 409 224 L 428 224 L 429 223 L 429 200 L 428 198 L 408 199 L 405 197 L 405 175 L 403 172 L 391 172 Z " /><path fill="rgb(0,0,0)" stroke="rgb(0,0,0)" stroke-width="0.6" opacity="1" d="M 114.5 187 L 122 189.5 L 120.5 193 L 115.5 192 L 106 195 L 108.5 190 L 114.5 187 Z " /><path fill="rgb(0,0,0)" stroke="rgb(0,0,0)" stroke-width="0.6" opacity="1" d="M 172.5 188 Q 180 188 183 192.5 L 184 197 Q 179.6 192.6 168.5 194 L 166 195 L 170.5 189 L 172.5 188 Z " /><path fill="rgb(0,0,0)" stroke="rgb(0,0,0)" stroke-width="0.6" opacity="1" d="M 111.5 207 L 118.5 207 L 127 214.5 Q 130.6 219.9 129 230.5 Q 126.9 239.9 120.5 245 Q 115.5 249 105.5 248 L 99 243.5 L 95 234.5 L 95 228.5 Q 97.4 216.4 105.5 210 L 111.5 207 Z M 112 210 L 108 212 Q 100 217 98 228 L 99 240 L 109 246 L 105 239 Q 103 228 107 224 L 116 217 Q 122 216 124 219 Q 126 220 125 217 L 119 210 L 112 210 Z M 120 221 L 116 225 L 120 230 L 124 228 L 123 224 L 120 221 Z " /><path fill="rgb(0,0,0)" stroke="rgb(0,0,0)" stroke-width="0.6" opacity="1" d="M 164.5 209 Q 176.7 207.3 180 214.5 L 184 223.5 L 184 231.5 Q 182 242.5 174.5 248 Q 171 252.5 161.5 251 L 151 243.5 Q 147 238.5 149 227.5 Q 151.4 217.4 158.5 212 L 164.5 209 Z M 168 211 L 162 213 Q 153 219 151 231 L 153 243 L 159 247 L 162 247 L 158 241 Q 157 231 160 226 L 169 219 L 176 219 L 180 222 L 178 216 Q 175 211 168 211 Z M 174 223 Q 169 224 170 232 L 176 233 Q 179 232 178 227 L 174 223 Z " /><path fill="rgb(0,0,0)" stroke="rgb(0,0,0)" stroke-width="0.6" opacity="1" d="M 283.5 274 L 295.5 274 L 299 277.5 Q 300.3 284.8 295.5 286 L 280.5 287 Q 276.5 285.5 278 278.5 L 283.5 274 Z M 284 278 L 281 281 L 283 284 L 295 283 L 296 280 L 295 278 L 284 278 Z " /><path fill="rgb(0,0,0)" stroke="rgb(0,0,0)" stroke-width="0.6" opacity="1" d="M 167.5 292 L 177.5 292 L 189 301.5 Q 193.5 308 192 320.5 Q 189.1 330.1 182.5 336 Q 177.8 341.3 166.5 340 L 154 331.5 Q 148.5 325.5 150 312.5 Q 152 300.5 160.5 295 L 167.5 292 Z M 169 295 L 162 298 Q 155 302 153 312 Q 152 322 155 329 Q 159 335 169 337 Q 177 337 182 333 Q 187 328 189 320 Q 191 305 184 300 Q 180 294 169 295 Z " /><path fill="rgb(0,0,0)" stroke="rgb(0,0,0)" stroke-width="0.6" opacity="1" d="M 167.5 299 Q 178.3 297.2 181 303.5 Q 186.2 307.8 185 318.5 Q 183.6 326.1 178.5 330 Q 175.3 334.3 166.5 333 L 157 324.5 L 156 312.5 L 163.5 301 L 167.5 299 Z M 167 302 L 165 303 Q 159 307 158 315 L 160 326 Q 163 332 175 330 L 182 321 Q 184 311 180 307 Q 178 300 167 302 Z " /><path fill="rgb(0,0,0)" stroke="rgb(0,0,0)" stroke-width="0.6" opacity="1" d="M 81.5 308 Q 84.9 307.1 83 312.5 L 91.5 322 Q 99.1 327.9 114.5 326 Q 126 323 132 314.5 L 131 311.5 L 132.5 310 L 137 314.5 Q 137.8 317.1 134.5 316 Q 128.1 325.1 116.5 329 L 99.5 329 Q 89.9 326.1 84 319.5 L 79 310.5 L 81.5 308 Z " /><path fill="rgb(0,0,0)" stroke="rgb(0,0,0)" stroke-width="0.6" opacity="1" d="M 429.5 335 Q 437.4 334.1 439 339.5 Q 443.9 346 442 359.5 L 434.5 372 L 424.5 373 Q 414.7 367.8 417 350.5 Q 418.9 341.4 425.5 337 L 429.5 335 Z M 431 338 L 428 339 Q 421 343 420 352 Q 418 362 422 368 Q 424 372 432 371 L 438 363 L 439 356 Q 440 345 436 341 L 431 338 Z " /><path fill="rgb(0,0,0)" stroke="rgb(0,0,0)" stroke-width="0.6" opacity="1" d="M 429.5 347 L 434 349.5 L 434 357.5 L 429.5 363 L 425 359.5 Q 423.8 351.3 427.5 348 L 429.5 347 Z M 431 350 L 427 354 Q 426 359 430 360 L 432 359 Q 434 352 431 350 Z " /><path fill="rgb(0,0,0)" stroke="rgb(0,0,0)" stroke-width="0.6" opacity="1" d="M 254.5 357 Q 264.2 355.8 267 361.5 Q 272.4 368.1 271 381.5 Q 268.8 394.3 259.5 400 L 252.5 401 L 243 392.5 Q 239.6 386.4 241 375.5 Q 243 364.5 250.5 359 L 254.5 357 Z M 258 359 L 253 361 Q 246 366 244 376 Q 242 387 246 393 Q 248 399 260 397 Q 267 393 268 383 Q 270 369 264 363 L 258 359 Z " /><path fill="rgb(0,0,0)" stroke="rgb(0,0,0)" stroke-width="0.6" opacity="1" d="M 255.5 370 Q 261.3 369.3 262 373.5 Q 263.6 383.6 258.5 387 Q 252.5 388.5 251 385.5 L 250 378.5 L 255.5 370 Z M 257 373 Q 252 375 253 383 L 258 385 L 260 382 L 259 375 Q 260 372 257 373 Z " /><path fill="rgb(47,52,52)" stroke="rgb(47,52,52)" stroke-width="0.6" opacity="1" d="M 253.5 120 L 278 120.5 L 253.5 121 L 253.5 120 Z " /><path fill="rgb(47,52,52)" stroke="rgb(47,52,52)" stroke-width="0.6" opacity="1" d="M 369.5 123 L 380 123.5 L 369.5 124 L 369.5 123 Z " /><path fill="rgb(47,52,52)" stroke="rgb(47,52,52)" stroke-width="0.6" opacity="1" d="M 154.5 141 L 177 141.5 L 154.5 142 L 154.5 141 Z " /><path fill="rgb(47,52,52)" stroke="rgb(47,52,52)" stroke-width="0.6" opacity="1" d="M 225.5 141 L 250 141.5 L 225.5 142 L 225.5 141 Z " /><path fill="rgb(47,52,52)" stroke="rgb(47,52,52)" stroke-width="0.6" opacity="1" d="M 136.5 168 L 200.5 169 L 217.5 172 L 225 178.5 L 226 188.5 L 217 241.5 Q 215.6 250.1 210.5 255 L 207.5 256 L 168.5 256 L 167.5 255 L 140.5 255 L 117.5 253 L 92.5 253 Q 86.9 250.1 77.5 251 L 73 247.5 L 75 232.5 L 86 198.5 L 94 181.5 L 100.5 175 L 114.5 170 L 136.5 168 Z M 114 187 L 105 194 L 107 196 L 112 193 L 122 193 L 122 190 Q 120 186 114 187 Z M 172 188 L 170 189 L 165 194 L 167 195 L 169 194 Q 180 192 184 198 L 184 194 Q 181 187 172 188 Z M 111 207 L 107 209 Q 97 215 95 229 Q 94 238 98 243 L 106 248 Q 114 249 120 246 Q 127 241 129 231 Q 131 220 127 215 L 120 207 L 111 207 Z M 167 208 L 160 211 Q 151 216 149 228 L 150 243 L 161 251 Q 170 252 174 249 Q 182 244 184 232 Q 185 221 181 216 Q 177 208 167 208 Z " /><path fill="rgb(47,52,52)" stroke="rgb(47,52,52)" stroke-width="0.6" opacity="1" d="M 474.5 180 L 475 254.5 L 474 254.5 L 474.5 180 Z " /><path fill="rgb(47,52,52)" stroke="rgb(47,52,52)" stroke-width="0.6" opacity="1" d="M 58.5 216 Q 65.3 214.3 67 217.5 L 67 222.5 L 62 240.5 L 58.5 246 L 53 242.5 L 53 223.5 L 58.5 216 Z " /><path fill="rgb(47,52,52)" stroke="rgb(47,52,52)" stroke-width="0.6" opacity="1" d="M 118.5 222 L 118 223.5 L 119 229 L 121 229.5 L 119.5 230 L 116 225.5 L 118.5 222 Z " /><path fill="rgb(47,52,52)" stroke="rgb(47,52,52)" stroke-width="0.6" opacity="1" d="M 172.5 224 L 177 225.5 L 178 229.5 L 172.5 233 L 170 226.5 L 172.5 224 Z " /><path fill="rgb(47,52,52)" stroke="rgb(47,52,52)" stroke-width="0.6" opacity="1" d="M 309.5 230 L 310 349.5 L 309 349.5 L 309.5 230 Z " /><path fill="rgb(47,52,52)" stroke="rgb(47,52,52)" stroke-width="0.6" opacity="1" d="M 273.5 257 L 283 257.5 Q 274.8 256.3 271.5 260 L 273.5 257 Z " /><path fill="rgb(47,52,52)" stroke="rgb(47,52,52)" stroke-width="0.6" opacity="1" d="M 382.5 257 L 397 257.5 L 382.5 258 L 382.5 257 Z " /><path fill="rgb(47,52,52)" stroke="rgb(47,52,52)" stroke-width="0.6" opacity="1" d="M 111.5 258 L 126 258.5 L 111.5 259 L 111.5 258 Z " /><path fill="rgb(47,52,52)" stroke="rgb(47,52,52)" stroke-width="0.6" opacity="1" d="M 248.5 260 L 264 260.5 L 248.5 261 L 248.5 260 Z " /><path fill="rgb(47,52,52)" stroke="rgb(47,52,52)" stroke-width="0.6" opacity="1" d="M 185.5 261 L 202 261.5 L 185.5 262 L 185.5 261 Z " /><path fill="rgb(47,52,52)" stroke="rgb(47,52,52)" stroke-width="0.6" opacity="1" d="M 466.5 263 Q 473.2 261.2 475 264.5 L 475 280.5 L 473.5 282 L 442.5 284 L 402.5 288 L 399.5 290 L 372.5 291 L 316.5 297 L 315 295.5 L 315 277.5 L 316.5 276 L 333.5 275 L 338.5 273 L 371.5 272 L 375.5 270 L 404.5 269 L 466.5 263 Z " /><path fill="rgb(47,52,52)" stroke="rgb(47,52,52)" stroke-width="0.6" opacity="1" d="M 403.5 264 L 415 264.5 L 403.5 265 L 403.5 264 Z " /><path fill="rgb(47,52,52)" stroke="rgb(47,52,52)" stroke-width="0.6" opacity="1" d="M 51.5 290 Q 58.8 288.8 61 292.5 Q 66.4 298.1 65 310.5 Q 64.1 319.1 58.5 323 L 54.5 324 L 55 322.5 L 56.5 321 Q 64.2 316.2 62 301.5 L 56.5 293 Q 49.5 294.5 50 291.5 L 51.5 290 Z " /><path fill="rgb(47,52,52)" stroke="rgb(47,52,52)" stroke-width="0.6" opacity="1" d="M 169.5 295 L 176.5 295 L 186 302.5 Q 190.4 307.6 189 318.5 Q 186.6 329.6 178.5 335 L 169.5 337 Q 160.1 335.9 156 329.5 Q 151.5 324 153 312.5 Q 154.5 303.5 160.5 299 L 169.5 295 Z M 169 298 L 165 300 L 156 312 L 156 323 L 166 333 Q 174 334 178 331 Q 184 327 185 319 Q 186 309 182 305 Q 179 298 169 298 Z " /><path fill="rgb(47,52,52)" stroke="rgb(47,52,52)" stroke-width="0.6" opacity="1" d="M 166.5 302 Q 177.8 299.8 180 306.5 Q 183.7 310.8 182 320.5 L 175.5 329 L 166.5 330 L 161 326.5 L 158 315.5 Q 159.8 306.3 166.5 302 Z " /><path fill="rgb(47,52,52)" stroke="rgb(47,52,52)" stroke-width="0.6" opacity="1" d="M 271.5 317 L 282 324.5 L 279.5 323 L 271.5 317 Z " /><path fill="rgb(47,52,52)" stroke="rgb(47,52,52)" stroke-width="0.6" opacity="1" d="M 426.5 319 L 437.5 319 L 445 325.5 Q 454.1 336.9 451 360.5 Q 448.3 378.8 436.5 388 Q 432 392.5 421.5 391 L 411 383.5 Q 403.9 374.1 406 355.5 L 408 352.5 L 411 336.5 L 419.5 323 L 426.5 319 Z M 429 335 L 425 337 Q 419 342 417 351 Q 415 369 426 374 L 434 373 Q 440 368 442 360 Q 444 346 439 340 Q 437 334 429 335 Z " /><path fill="rgb(47,52,52)" stroke="rgb(47,52,52)" stroke-width="0.6" opacity="1" d="M 31.5 341 L 32 356.5 L 31 356.5 L 31.5 341 Z " /><path fill="rgb(47,52,52)" stroke="rgb(47,52,52)" stroke-width="0.6" opacity="1" d="M 142.5 351 L 194 351.5 L 142.5 352 L 142.5 351 Z " /><path fill="rgb(47,52,52)" stroke="rgb(47,52,52)" stroke-width="0.6" opacity="1" d="M 379.5 351 Q 387 349 389 352.5 Q 390.8 359.2 387.5 361 L 297.5 376 Q 294 374 296 366.5 L 298.5 363 L 342.5 358 L 358.5 354 L 370.5 354 L 379.5 351 Z " /><path fill="rgb(47,52,52)" stroke="rgb(47,52,52)" stroke-width="0.6" opacity="1" d="M 292.5 354 L 293 367.5 L 292 367.5 L 292.5 354 Z " /><path fill="rgb(47,52,52)" stroke="rgb(47,52,52)" stroke-width="0.6" opacity="1" d="M 171.5 356 L 184 356.5 L 171.5 357 L 171.5 356 Z " /><path fill="rgb(47,52,52)" stroke="rgb(47,52,52)" stroke-width="0.6" opacity="1" d="M 216.5 356 L 217 370.5 L 216 370.5 L 216.5 356 Z " /><path fill="rgb(47,52,52)" stroke="rgb(47,52,52)" stroke-width="0.6" opacity="1" d="M 389.5 364 L 393 364.5 L 386 367 L 385.5 369 L 385 367.5 L 389.5 364 Z " /><path fill="rgb(244,194,52)" stroke="rgb(244,194,52)" stroke-width="0.6" opacity="1" d="M 193.5 93 L 216.5 93 Q 224.8 93.8 228 99.5 L 232 110.5 L 233 120.5 L 231.5 122 L 176.5 122 L 175 117.5 L 178 104.5 L 184.5 96 L 193.5 93 Z " /><path fill="rgb(244,194,52)" stroke="rgb(244,194,52)" stroke-width="0.6" opacity="1" d="M 172.5 127 L 236.5 127 L 239 129.5 L 237.5 135 L 170.5 135 L 169 133.5 L 172.5 127 Z " /><path fill="rgb(244,194,52)" stroke="rgb(244,194,52)" stroke-width="0.6" opacity="1" d="M 264.5 174 L 284.5 174 L 290 179.5 L 293 193.5 L 293 240.5 L 294 244.5 L 290.5 251 L 277.5 251 L 276.5 252 L 275 250.5 Q 276.8 236.2 273 227.5 L 266.5 220 L 253.5 218 L 240 222 L 246 185.5 L 252.5 177 L 264.5 174 Z " /><path fill="rgb(244,194,52)" stroke="rgb(244,194,52)" stroke-width="0.6" opacity="1" d="M 113.5 210 L 117.5 210 L 123 215.5 L 121.5 217 L 115.5 216 L 106 223.5 Q 102.7 228.2 104 237.5 L 106 243 L 100 239.5 L 99 227.5 Q 100.9 218.9 106.5 214 L 113.5 210 Z " /><path fill="rgb(244,194,52)" stroke="rgb(244,194,52)" stroke-width="0.6" opacity="1" d="M 470.5 285 L 475 286.5 L 475 310.5 L 473.5 312 L 459.5 312 L 459 310.5 L 449.5 299 L 439.5 294 L 423.5 294 Q 410.1 297.6 403 307.5 L 393 324.5 L 389 345.5 L 387.5 347 L 316.5 357 L 315 355.5 L 314 327.5 L 315 326.5 L 315 301.5 L 316.5 300 L 341.5 299 L 344.5 297 L 355.5 297 L 376.5 294 L 392.5 294 L 395.5 292 L 414.5 292 L 417.5 290 L 463.5 287 L 470.5 285 Z " /><path fill="rgb(244,194,52)" stroke="rgb(244,194,52)" stroke-width="0.6" opacity="1" d="M 473.5 316 Q 479.8 314.8 481 318.5 Q 483.9 336.4 476.5 344 Q 472.6 347.3 465 346 Q 466.8 329.4 462 318.5 L 463.5 317 L 473.5 316 Z " /><path fill="rgb(244,194,52)" stroke="rgb(244,194,52)" stroke-width="0.6" opacity="1" d="M 429.5 339 Q 435.3 338.3 436 342.5 Q 439.5 346.5 438 355.5 L 437 362.5 L 431.5 370 Q 423.3 371.3 422 365.5 L 421 351.5 L 427.5 340 L 429.5 339 Z M 428 347 L 424 353 L 425 362 L 431 363 L 435 358 L 434 349 Q 433 346 428 347 Z " /><path fill="rgb(244,194,52)" stroke="rgb(244,194,52)" stroke-width="0.6" opacity="1" d="M 256.5 374 L 258 375.5 L 259 381.5 L 255.5 384 L 254 378.5 L 256.5 374 Z " /><path fill="rgb(25,25,25)" stroke="rgb(25,25,25)" stroke-width="0.6" opacity="1" d="M 98.5 171 L 91.5 179 L 98.5 171 Z " /><path fill="rgb(25,25,25)" stroke="rgb(25,25,25)" stroke-width="0.6" opacity="1" d="M 231.5 324 L 226.5 330 L 231.5 324 Z " /><path fill="rgb(136,59,55)" stroke="rgb(136,59,55)" stroke-width="0.6" opacity="1" d="M 270.5 168 L 281 168.5 L 270.5 169 L 270.5 168 Z " /><path fill="rgb(136,59,55)" stroke="rgb(136,59,55)" stroke-width="0.6" opacity="1" d="M 297.5 202 L 298 214.5 L 297 214.5 L 297.5 202 Z " /><path fill="rgb(136,59,55)" stroke="rgb(136,59,55)" stroke-width="0.6" opacity="1" d="M 232.5 318 L 222.5 329 L 232.5 318 Z " /><path fill="rgb(79,133,136)" stroke="rgb(79,133,136)" stroke-width="0.6" opacity="1" d="M 301.5 119 L 313 119.5 L 301.5 120 L 301.5 119 Z " /><path fill="rgb(196,182,51)" stroke="rgb(196,182,51)" stroke-width="0.6" opacity="1" d="M 293.5 226 L 294 240.5 L 293 240.5 L 293.5 226 Z " /><path fill="rgb(133,133,51)" stroke="rgb(133,133,51)" stroke-width="0.6" opacity="1" d="M 118.5 210 L 124 215.5 L 124 218 L 122 217.5 L 123 215.5 L 118.5 210 Z " /><path fill="rgb(133,133,51)" stroke="rgb(133,133,51)" stroke-width="0.6" opacity="1" d="M 293.5 215 L 294 225.5 L 293 225.5 L 293.5 215 Z " /></svg>