<svg width="627" height="627" preserveAspectRatio="xMidYMid meet" viewBox="0 0 512 512" version="1.1" xmlns="http://www.w3.org/2000/svg" ><path fill="rgb(255,255,255)" stroke="rgb(255,255,255)" stroke-width="0.6" opacity="1" d="M 0 0 L 512 0 L 512 512 L 0 512 L 0 0 Z M 261 121 L 260 122 L 245 122 L 236 125 L 229 136 Q 227 146 232 150 L 227 154 L 218 154 L 198 159 L 183 168 L 171 183 L 146 232 L 139 238 L 101 248 L 84 258 Q 73 266 69 282 L 68 315 Q 62 318 61 326 Q 60 337 64 344 Q 71 352 85 354 L 90 364 Q 98 375 116 378 Q 136 381 147 373 L 158 361 L 165 362 L 186 360 L 195 379 Q 204 390 222 392 Q 244 394 256 386 Q 270 376 273 355 L 275 353 L 288 353 L 289 352 L 342 351 Q 343 361 348 369 Q 357 382 377 384 Q 398 386 408 377 Q 417 370 421 358 L 423 346 L 425 344 L 442 343 L 446 341 Q 451 338 452 330 Q 453 320 450 315 L 445 310 L 446 309 L 446 286 L 444 271 Q 441 257 434 249 Q 425 239 413 234 L 408 229 L 393 194 L 384 179 Q 367 154 325 154 L 322 151 L 324 145 Q 326 133 321 129 Q 316 123 308 122 L 261 121 Z " /><path fill="rgb(255,255,255)" stroke="rgb(255,255,255)" stroke-width="0.6" opacity="1" d="M 86 271 Q 92.4 269.8 94 274.5 L 95 288.5 L 92.5 293 L 92 289.5 L 93 277.5 L 89.5 273 Q 84.7 274.3 86 271 Z " /><path fill="rgb(255,255,255)" stroke="rgb(255,255,255)" stroke-width="0.6" opacity="1" d="M 167.5 279 L 169 280.5 L 163 286.5 Q 159 291.9 160 301 Q 156 302.4 158 295.5 Q 159.7 284.2 167.5 279 Z " /><path fill="rgb(255,255,255)" stroke="rgb(255,255,255)" stroke-width="0.6" opacity="1" d="M 91.5 294 L 92 296.5 L 88.5 301 Q 86.3 304 81 303 Q 79.7 299.7 84.5 301 L 89 297.5 L 91.5 294 Z " /><path fill="rgb(211,60,56)" stroke="rgb(211,60,56)" stroke-width="0.6" opacity="1" d="M 263.5 126 L 284.5 126 L 285 128.5 L 284 131 Q 280.3 129.7 282 135.5 L 281 143.5 L 279.5 145 L 254.5 145 L 254 143.5 L 253 136.5 Q 253.4 129.9 257.5 127 L 263.5 126 Z " /><path fill="rgb(211,60,56)" stroke="rgb(211,60,56)" stroke-width="0.6" opacity="1" d="M 244.5 127 L 252 128.5 Q 247.8 132.8 248 141.5 L 249 146 L 242.5 145 L 236.5 146 Q 232.8 144.8 234 138.5 L 237.5 130 L 244.5 127 Z " /><path fill="rgb(211,60,56)" stroke="rgb(211,60,56)" stroke-width="0.6" opacity="1" d="M 226.5 158 L 322.5 158 L 354.5 163 L 372 172 L 375.5 177 L 377 178.5 Q 390.3 194.7 398 216.5 Q 395.5 218 399 219.5 L 401 226.5 L 411.5 239 Q 424.1 243.9 432 253.5 L 439 270.5 L 441 287.5 L 440 288.5 L 440 306.5 L 440 308.5 Q 440.8 313.3 437.5 314 L 429.5 314 L 429 312.5 L 427 308.5 Q 423.7 296.3 415.5 289 L 403.5 281 L 401.5 281 L 387.5 280 L 378.5 282 L 361 295.5 L 352 309.5 L 347 327.5 L 344.5 331 L 341 329.5 Q 346.7 317.2 348 300.5 L 347 298.5 L 348 297.5 L 348 262.5 L 347 259.5 L 348 257.5 L 345 247.5 L 346.5 246 L 375.5 245 L 383 239.5 L 384 228.5 L 382 222.5 L 383 220.5 L 373 194.5 Q 366.8 182.2 356.5 174 L 350.5 170 L 348.5 170 L 327.5 166 L 325.5 166 L 300.5 165 L 282.5 168 Q 275.3 169.8 272 175.5 L 267 189.5 L 267 191.5 L 264 208.5 L 264 210.5 L 263 214.5 L 263 216.5 L 262 220.5 L 262 222.5 L 262 229.5 L 260 231.5 Q 255.8 235.3 257 244.5 L 261 251.5 L 262 260.5 L 261 262.5 L 262 263.5 L 262 280.5 L 261 289.5 L 259.5 291 L 247.5 285 L 245.5 285 L 234.5 285 L 224.5 287 Q 211.3 293.3 203 304.5 L 191.5 328 L 139.5 329 L 94.5 324 L 75.5 319 L 73 316.5 L 72 305.5 L 73.5 299 L 77 305 L 83.5 308 Q 90.7 306.2 94 300.5 Q 100.8 292.8 99 276.5 L 93.5 268 L 86.5 267 L 80.5 270 L 87 262.5 L 88.5 261 L 97.5 255 L 101 255 Q 99.8 252 103.5 253 L 113.5 249 L 115.5 249 L 134.5 245 Q 144.1 242.6 149 235.5 L 170 193.5 L 182 175 L 185 173.5 L 186.5 171 L 204.5 162 L 226.5 158 Z M 214 169 L 198 171 L 187 176 L 182 182 L 178 184 L 160 221 L 155 234 L 155 240 L 159 243 L 167 245 L 203 246 L 221 248 L 223 247 L 226 248 Q 239 250 246 246 L 252 235 L 255 214 L 258 204 Q 256 202 259 201 L 258 198 L 260 189 Q 262 178 258 175 L 250 170 L 214 169 Z M 170 273 L 163 277 Q 156 284 154 295 Q 153 304 156 310 L 166 317 Q 174 318 178 314 Q 185 308 188 297 Q 190 283 184 278 L 178 273 L 170 273 Z M 104 294 L 99 298 L 106 309 Q 111 314 120 315 Q 132 315 139 309 L 144 302 L 148 301 L 144 295 Q 140 294 142 300 Q 137 309 125 311 L 121 310 L 119 310 Q 114 311 115 308 L 110 307 L 109 305 L 105 300 L 106 296 L 104 294 Z " /><path fill="rgb(211,60,56)" stroke="rgb(211,60,56)" stroke-width="0.6" opacity="1" d="M 335 172 Q 354.7 173.1 363 186.5 Q 374.4 203.1 379 226.5 L 379 228.5 Q 381.2 237.8 376.5 240 L 344.5 241 L 343 239.5 L 343 222.5 L 342 221.5 L 343 217.5 L 339 188.5 L 335 172 Z " /><path fill="rgb(211,60,56)" stroke="rgb(211,60,56)" stroke-width="0.6" opacity="1" d="M 225.5 210 L 233 211 L 235 214.5 L 232.5 215 Q 224.2 213.7 222 218.5 L 218 225.5 L 218 230.5 L 220 235.5 L 217 233.5 L 215 229.5 L 215 223.5 L 222.5 211 L 225.5 210 Z " /><path fill="rgb(211,60,56)" stroke="rgb(211,60,56)" stroke-width="0.6" opacity="1" d="M 386.5 285 L 395.5 286 L 397.5 285 L 411 291 Q 420.2 299.6 424 314.5 L 424 316.5 L 425 333.5 L 423 332.5 L 423 324.5 L 418 313.5 L 405.5 299 L 397.5 295 L 395.5 295 L 387.5 296 L 385.5 295 Q 374.7 299.2 368 307.5 L 361 317.5 L 357 326.5 L 355 339.5 L 350.5 345 L 274 348 L 274 336.5 L 271 323.5 Q 265.4 311.6 255.5 304 Q 248.2 298.3 233.5 300 Q 220.8 304.8 213 314.5 L 205 327.5 L 202 343.5 L 197.5 352 L 197 349.5 L 196 331.5 L 205 309.5 L 210.5 303 L 213 301.5 L 216.5 297 L 234.5 290 L 243.5 291 L 245.5 290 L 258.5 295 L 267 303.5 Q 274.5 312.5 277 326.5 L 277 328.5 Q 277.1 334.9 281.5 337 L 296.5 338 L 314.5 336 L 336.5 336 L 345.5 335 L 349 332.5 L 357 309.5 L 367.5 295 Q 374.4 287.4 386.5 285 Z " /><path fill="rgb(211,60,56)" stroke="rgb(211,60,56)" stroke-width="0.6" opacity="1" d="M 442.5 316 L 446 317.5 L 447 330.5 L 443.5 336 Q 439.4 339.9 430.5 339 L 430 336.5 L 429 334.5 L 430 322.5 L 429 320.5 L 431.5 318 Q 439.2 319.2 442.5 316 Z " /><path fill="rgb(211,60,56)" stroke="rgb(211,60,56)" stroke-width="0.6" opacity="1" d="M 238.5 341 L 242 342.5 L 241 353 L 236 351.5 Q 234 343 238.5 341 Z " /><path fill="rgb(48,52,51)" stroke="rgb(48,52,51)" stroke-width="0.6" opacity="1" d="M 261.5 125 L 285.5 125 L 287 126.5 L 285.5 126 L 261.5 126 L 261.5 125 Z " /><path fill="rgb(48,52,51)" stroke="rgb(48,52,51)" stroke-width="0.6" opacity="1" d="M 290.5 170 L 329.5 170 L 331 171.5 L 336 192 L 334 192.5 L 336 193 L 337 196.5 L 335 197 Q 334 200 337 199 L 337 202.5 L 338 204.5 L 337 207.5 L 338 212.5 L 338 214.5 L 340 235 L 338 235 L 338 241 L 326.5 241 Q 327.5 244.5 320.5 243 L 313 244 L 312.5 242 L 302 242 L 301.5 244 L 292.5 244 L 291 242.5 L 290 231.5 L 286.5 227 L 285 225.5 L 282.5 225 L 281 223.5 L 280 223.5 L 279.5 225 L 271.5 225 L 269 226 L 268.5 224 L 266.5 227 L 266 224.5 L 268 207 L 270 206.5 L 268 205.5 L 269 202 Q 272 203 271 200 L 269 199.5 L 270 197 L 272 196.5 L 270 196 L 273 180.5 L 279.5 173 L 290.5 170 Z " /><path fill="rgb(48,52,51)" stroke="rgb(48,52,51)" stroke-width="0.6" opacity="1" d="M 192.5 206 L 198 209.5 L 199 212.5 L 197 211.5 L 196 208 Q 192.2 208.8 192.5 206 Z " /><path fill="rgb(48,52,51)" stroke="rgb(48,52,51)" stroke-width="0.6" opacity="1" d="M 333.5 264 L 333.5 266 L 335.5 265 L 334.5 267 L 329 268 Q 327.8 265 331.5 266 L 333.5 264 Z " /><path fill="rgb(48,52,51)" stroke="rgb(48,52,51)" stroke-width="0.6" opacity="1" d="M 172.5 276 Q 178.7 275.3 180 279.5 L 181.5 281 L 185 287.5 L 180 290 Q 180 297.3 176 301.5 L 178.5 302 L 181 294.5 L 180.5 293 L 185 294.5 Q 183.6 303.1 178.5 308 L 176 306.5 L 174.5 305 L 172 305.5 Q 173.4 310.5 166.5 308 L 163 306.5 L 161 300 Q 164.3 301.3 163 296.5 L 162 292.5 L 168.5 282 Q 171.5 282.7 170 279 L 168 278.5 L 172.5 276 Z " /><path fill="rgb(48,52,51)" stroke="rgb(48,52,51)" stroke-width="0.6" opacity="1" d="M 309.5 278 L 311.5 282 L 314 281 L 317 291 L 319.5 292 L 325 291 L 326.5 289 L 327 291.5 L 328.5 294 L 330 293.5 L 321 300.5 L 320 302.5 L 322 303 L 323 305.5 L 321 306.5 L 323 307 Q 321.5 310.8 324.5 310 L 326 313 L 322 315.5 L 322.5 317 L 319 314.5 L 320 313.5 L 316.5 310 L 314.5 310 L 311.5 309 L 310.5 312 L 307.5 311 L 303.5 314 L 301.5 311 L 298.5 312 L 299.5 310 Q 302.5 310.9 301 306.5 L 302 304 L 300 302.5 L 297.5 299 L 302 302 L 300.5 299 L 295 294.5 L 297 293.5 L 297 291.5 L 299 290 L 299.5 293 L 300 289 Q 303 288 302 291 L 305.5 291 L 308.5 286 L 310 285.5 L 307.5 284 L 306 284.5 L 309.5 278 Z " /><path fill="rgb(48,52,51)" stroke="rgb(48,52,51)" stroke-width="0.6" opacity="1" d="M 68.5 295 L 69 307.5 L 68 307.5 L 68.5 295 Z " /><path fill="rgb(48,52,51)" stroke="rgb(48,52,51)" stroke-width="0.6" opacity="1" d="M 101.5 297 L 102.5 299 L 104 298.5 L 105 300.5 L 104.5 302 L 107 303.5 L 104 303.5 L 101.5 297 Z " /><path fill="rgb(48,52,51)" stroke="rgb(48,52,51)" stroke-width="0.6" opacity="1" d="M 374.5 302 L 367.5 310 L 374.5 302 Z " /><path fill="rgb(48,52,51)" stroke="rgb(48,52,51)" stroke-width="0.6" opacity="1" d="M 235.5 305 L 236.5 307 L 243.5 305 L 246 306 L 246.5 308 L 247.5 306 Q 256.8 309.2 262 316.5 L 263 321 L 266 322.5 L 269 331.5 L 267 332.5 L 270 334.5 L 268 338 Q 271.3 336.7 270 341.5 L 271 347.5 L 270 352 Q 266.7 350.7 268 355.5 L 267 358 L 269 359.5 L 265.5 368 L 264 367.5 L 265 369.5 L 259.5 377 L 258.5 376 L 255 379.5 L 254.5 382 L 249.5 385 L 246.5 384 L 245.5 387 L 231.5 388 Q 222.5 387 218 381.5 L 219 380.5 L 215.5 377 L 214 377.5 L 208 367.5 L 207 362 Q 202.9 363.3 204 360 Q 207 361 206 358 Q 202 359.4 204 352.5 L 208 331.5 L 212 322.5 L 220.5 312 L 229.5 307 L 232 308 Q 230.8 305 234.5 306 L 235.5 305 Z M 238 322 L 236 324 L 235 327 L 232 326 Q 224 331 222 341 Q 221 344 224 343 L 223 345 Q 220 345 221 351 L 224 353 L 220 353 Q 219 356 222 355 L 227 366 L 231 369 L 232 370 L 244 370 Q 246 365 248 368 L 248 367 L 252 364 L 251 363 L 254 361 L 253 360 L 256 355 L 257 353 L 255 354 L 253 354 L 258 351 L 258 342 L 256 341 L 255 339 L 257 338 L 247 325 L 246 325 L 238 324 L 238 322 Z " /><path fill="rgb(48,52,51)" stroke="rgb(48,52,51)" stroke-width="0.6" opacity="1" d="M 390.5 320 Q 398 320.5 401 325.5 L 403 329.5 L 402 333 Q 405 332 404 335 L 407 335 L 407 337 L 405 338.5 L 405 340.5 L 407 344 L 404 344 L 402 348 L 404 348.5 L 403 351 L 401 351.5 L 401.5 353 L 400 352.5 L 396.5 359 L 393 358 L 391.5 361 L 391 359 L 389 360.5 L 387.5 360 L 381 356.5 L 377 347 L 379 346.5 L 377 346 L 375.5 344 L 374 340.5 L 377 339.5 L 377 334.5 Q 381 333.1 380 328 L 385 324.5 L 384.5 323 L 390.5 320 Z M 389 332 Q 388 335 393 334 L 394 337 Q 396 338 395 335 Q 394 331 389 332 Z M 384 344 L 384 346 L 389 349 L 395 348 L 394 346 L 390 347 L 386 346 L 384 344 Z " /><path fill="rgb(48,52,51)" stroke="rgb(48,52,51)" stroke-width="0.6" opacity="1" d="M 356.5 344 L 359 344.5 L 360 347.5 L 358 348 L 356.5 345 L 354 346.5 L 356.5 344 Z " /><path fill="rgb(48,52,51)" stroke="rgb(48,52,51)" stroke-width="0.6" opacity="1" d="M 92.5 354 L 96 355.5 L 96.5 357 L 97.5 355 L 109 358.5 L 108 360.5 L 110 361.5 Q 107 363.5 112 365.5 L 113.5 367 L 116 370.5 L 114.5 374 L 99.5 368 L 94 362.5 L 92 358.5 L 93 355.5 L 92.5 354 Z " /><path fill="rgb(80,152,192)" stroke="rgb(80,152,192)" stroke-width="0.6" opacity="1" d="M 188.5 208 Q 195.8 206.8 197 211.5 L 195.5 214 L 190.5 213 L 185 217.5 L 182 227.5 L 183 230.5 Q 181.5 233.5 180 230.5 L 179 219.5 L 186.5 209 L 188.5 208 Z " /><path fill="rgb(80,152,192)" stroke="rgb(80,152,192)" stroke-width="0.6" opacity="1" d="M 272.5 228 Q 282.6 226.4 286 231.5 L 288 242.5 L 283.5 251 L 269.5 252 L 262 246.5 L 261 240.5 Q 261.4 232.4 267.5 230 L 272.5 228 Z " /><path fill="rgb(80,152,192)" stroke="rgb(80,152,192)" stroke-width="0.6" opacity="1" d="M 318.5 246 L 339.5 246 L 341 247.5 L 344 259.5 L 344 297.5 L 339 326.5 L 335.5 331 L 284.5 334 L 281 329.5 L 276 309.5 L 264 292.5 Q 267.2 281.2 266 265.5 L 264 255.5 L 266.5 255 L 277.5 257 L 285.5 255 L 289 251.5 L 290 248 L 292.5 247 L 317.5 247 L 318.5 246 Z M 322 256 L 319 257 Q 315 259 316 266 L 319 268 L 334 268 Q 338 267 337 260 Q 333 254 322 256 Z M 311 276 L 305 288 L 291 292 L 292 296 L 300 303 L 298 310 Q 296 316 300 318 L 312 311 L 322 317 L 326 316 L 324 304 L 333 292 L 330 289 L 321 288 L 315 279 L 311 276 Z " /><path fill="rgb(80,152,192)" stroke="rgb(80,152,192)" stroke-width="0.6" opacity="1" d="M 327.5 259 Q 333 258 334 261.5 L 332.5 265 L 320.5 265 L 319 263.5 L 320.5 260 L 327.5 259 Z " /><path fill="rgb(80,152,192)" stroke="rgb(80,152,192)" stroke-width="0.6" opacity="1" d="M 85.5 275 L 89 276.5 L 90 288.5 Q 88.9 295.9 83.5 299 L 80 297.5 L 79 283.5 L 85.5 275 Z " /><path fill="rgb(80,152,192)" stroke="rgb(80,152,192)" stroke-width="0.6" opacity="1" d="M 68.5 320 L 79.5 325 L 112.5 331 L 134.5 333 L 186.5 333 L 188.5 332 L 193 334.5 L 192 350.5 L 187.5 355 L 177.5 357 L 142.5 357 L 109.5 354 L 81.5 349 L 68 341.5 Q 63.7 335.8 66 323.5 L 68.5 320 Z " /><path fill="rgb(80,152,192)" stroke="rgb(80,152,192)" stroke-width="0.6" opacity="1" d="M 237.5 326 Q 246.7 325.8 250 331.5 Q 255.3 337.7 254 350.5 Q 251.9 360.9 244.5 366 L 233.5 367 L 228 362.5 Q 222.3 356.2 224 342.5 Q 225.9 333.9 231.5 329 L 237.5 326 Z M 239 337 L 237 338 L 232 344 L 233 354 L 238 357 L 242 356 L 246 350 Q 247 343 244 340 L 239 337 Z " /><path fill="rgb(80,152,192)" stroke="rgb(80,152,192)" stroke-width="0.6" opacity="1" d="M 200.5 355 Q 204.7 353.7 203 358.5 Q 205.9 376.1 218 384.5 L 215.5 386 Q 202.7 382.3 196 372.5 L 191 358.5 L 200.5 355 Z " /><path fill="rgb(9,9,10)" stroke="rgb(9,9,10)" stroke-width="0.6" opacity="1" d="M 247.5 123 L 305.5 123 Q 316.4 123.6 321 130.5 Q 324.7 134.8 323 144.5 L 320 149.5 L 323.5 155 Q 340.9 155.1 354.5 159 Q 366.5 162 374 169.5 L 377.5 174 L 382 177.5 L 390 190.5 L 400 211.5 L 402 219.5 L 412 236.5 L 410.5 236 L 407 233.5 L 387 189.5 Q 380.6 178 370.5 170 L 355.5 162 L 336.5 158 L 297.5 157 L 296.5 156 L 244.5 156 L 243.5 157 L 215.5 158 L 199.5 162 Q 186 167.5 178 178.5 L 165 199.5 Q 157.7 221.2 145.5 238 L 131.5 244 L 118.5 246 L 100.5 252 Q 88.8 256.8 81 265.5 L 73 280.5 Q 69.8 294.8 71 313.5 L 74.5 320 L 93.5 325 L 122.5 329 L 186 330 L 185.5 332 L 135.5 332 L 111.5 330 L 87.5 326 L 68.5 319 Q 62.5 324 65 337.5 L 69.5 345 L 85.5 351 L 110.5 355 L 126.5 357 L 169.5 358 L 172.5 357 L 174.5 358 L 185.5 357 L 191 353.5 Q 195.8 347.3 194 334.5 L 190 332 Q 188.8 329 192.5 330 L 202 308.5 L 212.5 296 L 221.5 290 Q 229.8 285.8 242.5 286 Q 253.7 287.3 260.5 293 L 262 288 Q 265.3 286.7 264 291.5 L 263 294.5 L 275 309.5 L 282 334 Q 285 333 284 336 L 279 332.5 Q 276.6 306.9 260.5 295 Q 251.3 286.8 231.5 289 Q 217.5 292 210 301.5 Q 198.8 313.3 195 332.5 L 196 333.5 L 196 348.5 L 194 352.5 L 196.5 353 L 201 349.5 L 205 332.5 L 211 319.5 L 222.5 307 L 230.5 303 L 242.5 301 Q 256.3 303.3 263 312.5 L 271 328.5 L 273 347.5 L 274.5 349 L 295.5 348 L 307.5 349 L 325.5 347 L 347.5 347 L 355 342.5 L 357 339.5 L 356 337.5 L 363 316.5 L 375.5 302 L 385.5 297 L 398.5 297 Q 407.2 299.8 412 306.5 L 421 325.5 L 422 340 Q 425.8 341.5 425 338.5 L 426 333 Q 429.7 331.6 428 337.5 L 428.5 340 L 442.5 339 L 447 334.5 L 448 318.5 L 444.5 314 L 438.5 317 L 434 317 Q 432.6 313.3 438.5 315 L 442 310.5 L 442 282.5 L 439 264.5 L 431 250.5 L 433.5 250 L 438 256.5 L 442 267.5 L 444 278.5 L 445 304.5 L 444 310.5 L 448 313 Q 451.4 316.7 451 325.5 L 450 333.5 L 446.5 339 L 440.5 342 L 423.5 343 L 422 344.5 Q 421 361 412.5 370 L 410 369.5 Q 421.5 358 420 333.5 Q 417.9 313.1 404.5 304 Q 398.5 300 388.5 300 Q 376.5 301.5 371 309.5 L 361 326.5 L 358 340.5 L 359 343.5 L 356.5 344 L 352.5 348 Q 347 347 346 350.5 L 348 361.5 L 358.5 374 L 368.5 379 L 373.5 379 L 376.5 377 L 383.5 381 L 387.5 381 Q 399.6 379.6 406.5 373 L 407 374.5 L 404.5 378 L 394.5 382 L 378.5 383 L 361.5 379 L 350 369.5 L 345 360.5 L 341.5 349 L 308.5 351 L 305.5 350 L 304.5 351 L 273.5 352 L 272 353.5 Q 269.8 374.3 256.5 384 L 243.5 390 L 224.5 391 L 205.5 386 L 198 379.5 L 200.5 379 L 208.5 385 L 221.5 388 L 225.5 386 L 229 387 Q 227.9 390.7 236.5 389 L 246.5 387 L 261 377 L 269 359.5 Q 272 351.5 271 339.5 Q 268.3 318.7 254.5 309 L 248.5 306 L 235.5 304 L 225.5 308 L 215 317.5 L 209 327.5 L 205 340.5 L 205 350.5 L 203.5 352 L 201 352.5 L 199.5 355 Q 193 355 190 358.5 L 192 366.5 L 198 378 L 194 375.5 L 186.5 359 L 157.5 360 L 154 363.5 L 150.5 368 L 137.5 376 L 117.5 377 Q 101 375.3 93 366 L 84.5 352 Q 73.3 351 67 346 Q 61.7 340.7 62 328.5 L 63 322.5 L 66.5 317 L 69 315.5 L 70 282.5 Q 74 265.5 86.5 257 L 101.5 249 L 139.5 239 L 145 234.5 L 167 191.5 L 179.5 173 L 184 169.5 L 186.5 166 Q 201.9 154.9 228.5 155 L 232 151.5 L 233 147.5 Q 228.5 145 230 136.5 L 234.5 128 L 236 126.5 L 240.5 124 L 247.5 123 Z M 259 125 L 254 130 L 253 129 L 253 126 L 240 127 Q 233 130 232 139 L 233 145 L 237 147 L 250 147 L 251 146 L 254 147 L 283 147 L 283 145 L 287 147 L 318 147 L 321 143 L 319 131 L 310 126 L 292 125 L 285 131 L 288 127 L 287 125 L 259 125 Z M 238 149 L 234 153 L 236 155 L 239 154 L 286 154 L 287 153 L 303 155 L 319 155 L 320 153 L 316 149 L 290 149 L 289 150 L 286 149 L 238 149 Z M 92 354 L 90 356 L 93 361 Q 92 364 95 363 L 97 367 L 114 374 Q 120 376 122 372 L 124 373 Q 127 372 126 375 L 133 375 L 145 370 L 152 362 L 151 360 L 135 360 L 113 357 L 111 358 L 92 354 Z " /><path fill="rgb(9,9,10)" stroke="rgb(9,9,10)" stroke-width="0.6" opacity="1" d="M 295.5 167 L 323.5 167 L 345.5 170 Q 356.1 173.9 363 181.5 Q 378.2 200 382 229 Q 378.3 230.3 380 224.5 Q 374.8 196.7 358.5 180 L 344.5 172 L 334.5 171 L 334 173.5 L 335 178 Q 332 179.3 333 175.5 L 329.5 170 L 301.5 169 L 300.5 170 L 286.5 170 L 280.5 172 L 274 178.5 L 273 182 L 271 180.5 L 276.5 172 L 282.5 169 L 295.5 167 Z " /><path fill="rgb(9,9,10)" stroke="rgb(9,9,10)" stroke-width="0.6" opacity="1" d="M 212.5 170 L 248.5 171 Q 255.1 171.9 258 176.5 L 259 186.5 L 250 235.5 L 245.5 244 L 239.5 246 L 240.5 244 L 246 240.5 L 253 212.5 L 257 179.5 L 253.5 175 L 244.5 173 L 208.5 173 L 193.5 176 L 183 184.5 L 161 226.5 L 158 237.5 L 162 240 Q 163.3 243.3 158.5 242 Q 154.5 240.5 156 233.5 L 175 193.5 Q 179.8 182.8 188.5 176 L 198.5 172 L 212.5 170 Z " /><path fill="rgb(9,9,10)" stroke="rgb(9,9,10)" stroke-width="0.6" opacity="1" d="M 334.5 179 Q 338.5 185 338 195.5 L 336 194.5 L 334.5 179 Z " /><path fill="rgb(9,9,10)" stroke="rgb(9,9,10)" stroke-width="0.6" opacity="1" d="M 270 184 Q 273 182.8 272 186.5 L 269 203 Q 265.7 204.3 267 199.5 L 270 184 Z " /><path fill="rgb(9,9,10)" stroke="rgb(9,9,10)" stroke-width="0.6" opacity="1" d="M 191.5 191 Q 196.8 189.8 198 192.5 L 189.5 194 L 191.5 191 Z " /><path fill="rgb(9,9,10)" stroke="rgb(9,9,10)" stroke-width="0.6" opacity="1" d="M 231.5 192 Q 237.3 191.2 239 194.5 L 238.5 197 L 231.5 194 L 229 195 L 230.5 193 L 231.5 192 Z " /><path fill="rgb(9,9,10)" stroke="rgb(9,9,10)" stroke-width="0.6" opacity="1" d="M 338 213 L 341 213.5 L 341 223.5 L 342 224.5 L 342 241.5 L 343.5 243 Q 348.3 241.7 347 245 L 341.5 246 L 325 245 L 325.5 243 L 338.5 243 L 340 241.5 L 340 227.5 L 338 213 Z " /><path fill="rgb(9,9,10)" stroke="rgb(9,9,10)" stroke-width="0.6" opacity="1" d="M 189.5 214 Q 196.4 212 195 216 L 190 218.5 L 191.5 224 L 196 221.5 L 197.5 217 L 199 221.5 Q 197.2 229.7 191.5 234 L 187.5 235 Q 182.4 232.6 183 224.5 L 189.5 214 Z " /><path fill="rgb(9,9,10)" stroke="rgb(9,9,10)" stroke-width="0.6" opacity="1" d="M 226.5 216 Q 232.8 214.8 234 218.5 L 233.5 220 L 229.5 218 Q 226 219 227 224.5 L 231.5 226 L 236 222.5 L 237 226.5 L 230.5 236 L 224.5 238 Q 220 235 220 227.5 Q 221.2 219.7 226.5 216 Z " /><path fill="rgb(9,9,10)" stroke="rgb(9,9,10)" stroke-width="0.6" opacity="1" d="M 264 218 Q 267.7 216.7 266 222.5 L 265 225.5 L 267.5 227 Q 272.2 223.7 281.5 225 L 290 231.5 L 292 245.5 L 285.5 254 L 279 255 Q 277.8 252 281.5 253 L 287 248.5 Q 290 244.5 289 236.5 L 283.5 228 L 274.5 227 L 264 231.5 Q 259.2 235.2 260 244.5 L 265.5 251 L 277 254 L 275.5 256 L 265.5 254 L 261 250.5 Q 257.2 247.3 258 239.5 L 263 229.5 L 264 218 Z " /><path fill="rgb(9,9,10)" stroke="rgb(9,9,10)" stroke-width="0.6" opacity="1" d="M 381 231 Q 384.5 229.9 383 237.5 L 379.5 242 L 373 243 Q 371.6 239.3 377.5 241 Q 382.8 239 381 231 Z " /><path fill="rgb(9,9,10)" stroke="rgb(9,9,10)" stroke-width="0.6" opacity="1" d="M 413.5 236 L 428 244.5 L 429 247.5 L 427.5 247 L 413 237.5 L 413.5 236 Z " /><path fill="rgb(9,9,10)" stroke="rgb(9,9,10)" stroke-width="0.6" opacity="1" d="M 164 241 L 209.5 243 L 210.5 244 L 229.5 244 L 231 245.5 L 210.5 246 L 209.5 245 L 190.5 245 L 164 243 L 164 241 Z " /><path fill="rgb(9,9,10)" stroke="rgb(9,9,10)" stroke-width="0.6" opacity="1" d="M 350 242 L 366.5 242 L 367 244 L 350.5 244 L 350 242 Z " /><path fill="rgb(9,9,10)" stroke="rgb(9,9,10)" stroke-width="0.6" opacity="1" d="M 301 244 L 321.5 244 L 322 246 L 301.5 246 L 301 244 Z " /><path fill="rgb(9,9,10)" stroke="rgb(9,9,10)" stroke-width="0.6" opacity="1" d="M 343 251 Q 346.3 249.7 345 254.5 L 346 260 Q 342 261.4 344 254.5 L 343 251 Z " /><path fill="rgb(9,9,10)" stroke="rgb(9,9,10)" stroke-width="0.6" opacity="1" d="M 324 257 Q 332.6 254.7 335 259.5 L 333.5 259 L 324.5 259 L 324 257 Z " /><path fill="rgb(9,9,10)" stroke="rgb(9,9,10)" stroke-width="0.6" opacity="1" d="M 345 263 L 347 263.5 L 347 296 L 345 295.5 L 345 263 Z " /><path fill="rgb(9,9,10)" stroke="rgb(9,9,10)" stroke-width="0.6" opacity="1" d="M 263 266 L 265 266.5 L 265 280 L 263 279.5 L 263 266 Z " /><path fill="rgb(9,9,10)" stroke="rgb(9,9,10)" stroke-width="0.6" opacity="1" d="M 87.5 268 Q 93.9 268.1 96 272.5 L 97 276 L 95 274.5 L 92.5 271 L 86 269.5 L 87.5 268 Z " /><path fill="rgb(9,9,10)" stroke="rgb(9,9,10)" stroke-width="0.6" opacity="1" d="M 80.5 275 L 82 276.5 Q 76.7 282.7 77 294.5 L 78 298 Q 74.3 299.5 75 296.5 L 76 294.5 L 75 287.5 L 80.5 275 Z " /><path fill="rgb(9,9,10)" stroke="rgb(9,9,10)" stroke-width="0.6" opacity="1" d="M 169.5 275 L 171 277 Q 164.2 278.1 161 284.5 L 156.5 295 L 156 290.5 Q 158.4 281.4 165.5 277 L 169.5 275 Z " /><path fill="rgb(9,9,10)" stroke="rgb(9,9,10)" stroke-width="0.6" opacity="1" d="M 178.5 276 L 183 278.5 Q 188.2 283.8 187 295.5 L 183.5 303 L 183 299.5 Q 186.5 295.5 185 286.5 L 178.5 276 Z " /><path fill="rgb(9,9,10)" stroke="rgb(9,9,10)" stroke-width="0.6" opacity="1" d="M 383.5 282 L 400.5 282 Q 411.7 285.3 418 293.5 L 429 317.5 L 428 324 Q 424.5 325.1 426 317.5 Q 422.3 297.7 408.5 288 Q 400.9 282.1 385.5 284 Q 368.9 287.9 361 300.5 Q 352.1 312.6 349 330.5 L 345.5 334 L 334.5 334 L 334 332 L 338.5 329 L 339.5 332 Q 346.8 333.3 348 328.5 Q 352.2 302.2 369.5 289 L 383.5 282 Z " /><path fill="rgb(9,9,10)" stroke="rgb(9,9,10)" stroke-width="0.6" opacity="1" d="M 329 290 L 332 291.5 L 332 293.5 L 324 301.5 L 324 305 Q 320.7 306.3 322 301.5 L 330 292.5 L 329 290 Z " /><path fill="rgb(9,9,10)" stroke="rgb(9,9,10)" stroke-width="0.6" opacity="1" d="M 94.5 294 L 95 296.5 L 89.5 304 L 81.5 306 L 77 302.5 L 77.5 300 Q 78.5 305 85.5 304 L 92 298.5 L 94.5 294 Z " /><path fill="rgb(9,9,10)" stroke="rgb(9,9,10)" stroke-width="0.6" opacity="1" d="M 142.5 301 L 143 302.5 L 139.5 307 L 127 313 Q 125.8 310 129.5 311 Q 138.5 308.5 142.5 301 Z " /><path fill="rgb(9,9,10)" stroke="rgb(9,9,10)" stroke-width="0.6" opacity="1" d="M 156 304 Q 159 302.8 158 306.5 L 163.5 313 Q 167.3 312 166 315 L 158 310.5 L 156 304 Z " /><path fill="rgb(9,9,10)" stroke="rgb(9,9,10)" stroke-width="0.6" opacity="1" d="M 182.5 304 L 183 306.5 Q 178.7 315.4 168 316 Q 166.8 313 170.5 314 L 182.5 304 Z " /><path fill="rgb(9,9,10)" stroke="rgb(9,9,10)" stroke-width="0.6" opacity="1" d="M 311.5 309 L 321 314.5 L 319.5 314 L 310 310.5 L 311.5 309 Z " /><path fill="rgb(9,9,10)" stroke="rgb(9,9,10)" stroke-width="0.6" opacity="1" d="M 342.5 318 L 343 322.5 L 341 328 L 339 326.5 L 342.5 318 Z " /><path fill="rgb(9,9,10)" stroke="rgb(9,9,10)" stroke-width="0.6" opacity="1" d="M 387.5 319 L 389 321 L 386.5 321 L 378.5 329 L 379 327.5 L 383.5 321 L 387.5 319 Z " /><path fill="rgb(9,9,10)" stroke="rgb(9,9,10)" stroke-width="0.6" opacity="1" d="M 396.5 320 L 401 322.5 L 404 328.5 L 401 326.5 L 396.5 320 Z " /><path fill="rgb(9,9,10)" stroke="rgb(9,9,10)" stroke-width="0.6" opacity="1" d="M 232.5 326 L 226.5 333 L 227 331.5 L 230.5 327 L 232.5 326 Z " /><path fill="rgb(9,9,10)" stroke="rgb(9,9,10)" stroke-width="0.6" opacity="1" d="M 246.5 326 L 251 329.5 L 252 331.5 L 246.5 326 Z " /><path fill="rgb(9,9,10)" stroke="rgb(9,9,10)" stroke-width="0.6" opacity="1" d="M 314 333 L 331.5 333 L 332 335 L 314.5 335 L 314 333 Z " /><path fill="rgb(9,9,10)" stroke="rgb(9,9,10)" stroke-width="0.6" opacity="1" d="M 292 334 L 307.5 334 L 308 336 L 292.5 336 L 292 334 Z " /><path fill="rgb(9,9,10)" stroke="rgb(9,9,10)" stroke-width="0.6" opacity="1" d="M 375 345 Q 378.3 343.7 377 348.5 Q 378.1 355.9 383.5 359 L 387 360 L 385.5 362 L 380 357.5 Q 375 353.2 375 345 Z " /><path fill="rgb(9,9,10)" stroke="rgb(9,9,10)" stroke-width="0.6" opacity="1" d="M 403.5 350 L 404 352.5 L 396.5 361 L 393 362 L 394.5 360 L 401 354.5 L 403.5 350 Z " /><path fill="rgb(9,9,10)" stroke="rgb(9,9,10)" stroke-width="0.6" opacity="1" d="M 224.5 358 L 230.5 366 Q 234.5 369.5 243.5 368 L 252.5 358 L 253 360.5 L 247.5 367 L 242.5 370 L 234.5 370 L 225 362.5 L 224.5 358 Z " /><path fill="rgb(9,9,10)" stroke="rgb(9,9,10)" stroke-width="0.6" opacity="1" d="M 112.5 364 L 117.5 370 L 113 366.5 L 112.5 364 Z " /><path fill="rgb(9,9,10)" stroke="rgb(9,9,10)" stroke-width="0.6" opacity="1" d="M 364.5 366 L 373 375.5 L 371.5 375 L 365 369.5 L 364.5 366 Z " /><path fill="rgb(9,9,10)" stroke="rgb(9,9,10)" stroke-width="0.6" opacity="1" d="M 211.5 374 L 220 383.5 L 218.5 384 L 211 376.5 L 211.5 374 Z " /><path fill="rgb(243,193,52)" stroke="rgb(243,193,52)" stroke-width="0.6" opacity="1" d="M 292.5 126 L 311.5 128 L 319 133.5 L 320 142.5 L 316.5 146 L 287.5 146 Q 284 144 285 137.5 L 290.5 127 L 292.5 126 Z " /><path fill="rgb(243,193,52)" stroke="rgb(243,193,52)" stroke-width="0.6" opacity="1" d="M 238.5 150 L 284.5 150 L 286 151.5 L 284.5 153 L 236 153 L 237.5 151 L 238.5 150 Z " /><path fill="rgb(243,193,52)" stroke="rgb(243,193,52)" stroke-width="0.6" opacity="1" d="M 290.5 150 L 315.5 150 L 319 152.5 Q 316.8 156.3 308.5 154 L 307.5 153 L 290.5 153 L 289 151.5 L 290.5 150 Z " /><path fill="rgb(243,193,52)" stroke="rgb(243,193,52)" stroke-width="0.6" opacity="1" d="M 207.5 174 L 244.5 174 L 250.5 175 L 256 179.5 L 255 192.5 L 248 230.5 Q 247.1 239.1 241.5 243 L 215.5 243 L 214.5 242 L 164.5 240 L 159 237.5 L 164 222.5 L 178 194.5 L 189.5 179 L 207.5 174 Z M 194 189 L 190 191 L 186 197 L 193 194 L 198 195 Q 201 196 200 193 L 194 189 Z M 232 191 L 230 192 L 227 196 Q 237 194 240 200 L 242 200 L 240 195 Q 238 190 232 191 Z M 189 205 L 185 207 Q 178 212 176 222 Q 175 229 178 233 L 183 236 L 192 235 L 200 223 Q 202 213 198 209 Q 196 204 189 205 Z M 225 207 L 221 209 Q 214 214 212 225 L 214 235 L 221 239 Q 228 240 231 237 Q 237 233 239 224 Q 240 216 237 212 Q 235 205 225 207 Z " /><path fill="rgb(243,193,52)" stroke="rgb(243,193,52)" stroke-width="0.6" opacity="1" d="M 158.5 302 L 161 303.5 L 165.5 310 Q 173.1 310.9 176 308 L 173.5 312 L 166.5 313 L 161 309.5 L 158.5 302 Z " /><path fill="rgb(243,193,52)" stroke="rgb(243,193,52)" stroke-width="0.6" opacity="1" d="M 384.5 302 Q 404.7 299.8 411 311.5 Q 419.4 322.1 419 341.5 Q 417.5 364 403.5 374 Q 396.7 379.7 383.5 379 Q 374.9 377.1 370 371.5 L 361 354.5 L 360 337.5 Q 362.8 316.4 376.5 306 L 384.5 302 Z M 391 317 L 384 320 Q 376 325 374 336 Q 372 349 377 356 Q 381 362 390 364 L 399 361 Q 407 355 408 342 Q 408 330 403 324 Q 400 317 391 317 Z " /><path fill="rgb(243,193,52)" stroke="rgb(243,193,52)" stroke-width="0.6" opacity="1" d="M 355.5 346 Q 358.3 345.4 357 351.5 Q 359.6 368.4 371 376.5 L 366.5 377 L 353 367.5 Q 347.4 362.1 347 351.5 L 355.5 346 Z " /><path fill="rgb(243,193,52)" stroke="rgb(243,193,52)" stroke-width="0.6" opacity="1" d="M 112.5 358 L 132.5 361 L 149.5 361 L 151 362.5 Q 144.6 373.1 127.5 373 Q 119.2 371.3 115 365.5 L 111 359.5 L 112.5 358 Z " /><path fill="rgb(27,29,30)" stroke="rgb(27,29,30)" stroke-width="0.6" opacity="1" d="M 263.5 122 L 292 122.5 L 263.5 123 L 263.5 122 Z " /><path fill="rgb(27,29,30)" stroke="rgb(27,29,30)" stroke-width="0.6" opacity="1" d="M 244.5 156 L 297 156.5 L 244.5 157 L 244.5 156 Z " /><path fill="rgb(27,29,30)" stroke="rgb(27,29,30)" stroke-width="0.6" opacity="1" d="M 301.5 169 L 315 169.5 L 301.5 170 L 301.5 169 Z " /><path fill="rgb(27,29,30)" stroke="rgb(27,29,30)" stroke-width="0.6" opacity="1" d="M 412 235 L 415 236.5 L 413 236.5 L 415 239.5 L 412.5 238 L 410 236.5 L 412 236.5 L 412 235 Z " /><path fill="rgb(27,29,30)" stroke="rgb(27,29,30)" stroke-width="0.6" opacity="1" d="M 291.5 243 L 301 244 L 299.5 246 L 290.5 248 L 292 245.5 L 291.5 243 Z " /><path fill="rgb(27,29,30)" stroke="rgb(27,29,30)" stroke-width="0.6" opacity="1" d="M 230.5 244 L 240 244.5 L 239.5 246 L 241 246.5 L 237 247 Q 238.1 243.7 234 245 L 233.5 247 L 225.5 247 L 225.5 246 L 231 245.5 L 230.5 244 Z " /><path fill="rgb(27,29,30)" stroke="rgb(27,29,30)" stroke-width="0.6" opacity="1" d="M 428.5 245 L 432 247.5 L 433 249.5 L 431 250.5 L 431.5 252 L 427.5 247 L 429 247.5 L 428.5 245 Z " /><path fill="rgb(27,29,30)" stroke="rgb(27,29,30)" stroke-width="0.6" opacity="1" d="M 320.5 257 Q 325.3 255.7 324 259 Q 319.8 258 318.5 261 L 316 260.5 L 320.5 257 Z " /><path fill="rgb(27,29,30)" stroke="rgb(27,29,30)" stroke-width="0.6" opacity="1" d="M 318.5 264 L 320.5 266 L 329 266 L 328.5 268 L 320.5 268 L 318.5 264 Z " /><path fill="rgb(27,29,30)" stroke="rgb(27,29,30)" stroke-width="0.6" opacity="1" d="M 83.5 270 L 86 270.5 L 82 273.5 L 83 276.5 L 81 277.5 L 82 275 L 79.5 276 L 82 272.5 L 83.5 270 Z " /><path fill="rgb(27,29,30)" stroke="rgb(27,29,30)" stroke-width="0.6" opacity="1" d="M 172.5 274 L 181 276.5 L 179 277.5 L 182.5 282 L 180 281 L 177.5 277 L 172.5 276 L 171 276.5 L 172.5 274 Z " /><path fill="rgb(27,29,30)" stroke="rgb(27,29,30)" stroke-width="0.6" opacity="1" d="M 313.5 278 L 317 284.5 L 315 285.5 L 312 279.5 L 313.5 278 Z " /><path fill="rgb(27,29,30)" stroke="rgb(27,29,30)" stroke-width="0.6" opacity="1" d="M 307.5 284 L 308 286.5 L 305.5 291 Q 300.7 292.3 302 289 L 306 290 L 307.5 284 Z " /><path fill="rgb(27,29,30)" stroke="rgb(27,29,30)" stroke-width="0.6" opacity="1" d="M 96 287 L 98 287.5 L 95.5 295 L 95 292.5 L 96 287 Z " /><path fill="rgb(27,29,30)" stroke="rgb(27,29,30)" stroke-width="0.6" opacity="1" d="M 317.5 289 L 319.5 289 Q 326.4 287 325 291 L 319.5 292 L 317.5 289 Z " /><path fill="rgb(27,29,30)" stroke="rgb(27,29,30)" stroke-width="0.6" opacity="1" d="M 294.5 290 Q 298.3 289 297 292 L 294 293.5 L 298.5 299 L 292 294.5 Q 290.5 290.1 293.5 291 L 294.5 290 Z " /><path fill="rgb(27,29,30)" stroke="rgb(27,29,30)" stroke-width="0.6" opacity="1" d="M 263.5 292 L 268 298.5 L 263 294.5 L 263.5 292 Z " /><path fill="rgb(27,29,30)" stroke="rgb(27,29,30)" stroke-width="0.6" opacity="1" d="M 179 294 L 181 295.5 L 178.5 302 L 176 301.5 L 179 294 Z " /><path fill="rgb(27,29,30)" stroke="rgb(27,29,30)" stroke-width="0.6" opacity="1" d="M 182.5 301 L 183.5 303 L 185 302.5 L 183.5 305 L 180 305.5 L 182.5 301 Z " /><path fill="rgb(27,29,30)" stroke="rgb(27,29,30)" stroke-width="0.6" opacity="1" d="M 105.5 303 L 111 308.5 L 109.5 310 L 105 305.5 L 105.5 303 Z " /><path fill="rgb(27,29,30)" stroke="rgb(27,29,30)" stroke-width="0.6" opacity="1" d="M 307.5 311 L 310 311.5 L 306.5 314 L 305 313.5 L 303.5 316 L 301.5 317 L 302 315.5 L 302.5 314 L 304 314.5 L 305.5 312 L 307.5 311 Z " /><path fill="rgb(27,29,30)" stroke="rgb(27,29,30)" stroke-width="0.6" opacity="1" d="M 390.5 318 L 396 319 L 396.5 321 L 398 320.5 L 397.5 323 L 390.5 320 L 389 320.5 L 390.5 318 Z " /><path fill="rgb(27,29,30)" stroke="rgb(27,29,30)" stroke-width="0.6" opacity="1" d="M 426 324 Q 429 322.8 428 326.5 L 429 333 L 426 333 L 426 324 Z " /><path fill="rgb(27,29,30)" stroke="rgb(27,29,30)" stroke-width="0.6" opacity="1" d="M 403.5 326 L 406 335 Q 402.7 336.3 404 331.5 L 403 329.5 L 403 327.5 L 403.5 326 Z " /><path fill="rgb(27,29,30)" stroke="rgb(27,29,30)" stroke-width="0.6" opacity="1" d="M 378.5 327 L 380 331.5 L 378 332.5 L 377.5 331 L 376 331.5 L 377 329 L 379 328.5 L 378.5 327 Z " /><path fill="rgb(27,29,30)" stroke="rgb(27,29,30)" stroke-width="0.6" opacity="1" d="M 251.5 330 Q 255.6 332.9 256 339.5 L 254 340 L 253 336.5 L 253.5 335 L 252 334.5 L 252.5 333 L 250 331.5 L 251.5 330 Z " /><path fill="rgb(27,29,30)" stroke="rgb(27,29,30)" stroke-width="0.6" opacity="1" d="M 226.5 331 L 229 331.5 L 225 334.5 L 225.5 336 L 224 336.5 L 225 338.5 L 223 339.5 L 225.5 333 L 227 332.5 L 226.5 331 Z " /><path fill="rgb(27,29,30)" stroke="rgb(27,29,30)" stroke-width="0.6" opacity="1" d="M 157.5 332 L 169 332.5 L 157.5 333 L 157.5 332 Z " /><path fill="rgb(27,29,30)" stroke="rgb(27,29,30)" stroke-width="0.6" opacity="1" d="M 296.5 348 L 308 348.5 L 296.5 349 L 296.5 348 Z " /><path fill="rgb(27,29,30)" stroke="rgb(27,29,30)" stroke-width="0.6" opacity="1" d="M 233 350 L 235 351.5 L 241 355.5 L 236.5 356 L 233 350 Z " /><path fill="rgb(27,29,30)" stroke="rgb(27,29,30)" stroke-width="0.6" opacity="1" d="M 359.5 356 L 362 357.5 L 363 361.5 L 362.5 363 L 365 364.5 L 366 366.5 Q 364.5 369.5 363 366.5 L 359.5 356 Z " /><path fill="rgb(27,29,30)" stroke="rgb(27,29,30)" stroke-width="0.6" opacity="1" d="M 111.5 357 L 113 357.5 L 111 358 L 114 364.5 Q 112 368 110 363.5 L 109 358 L 111.5 357 Z " /><path fill="rgb(27,29,30)" stroke="rgb(27,29,30)" stroke-width="0.6" opacity="1" d="M 152.5 357 L 170 357.5 L 152.5 358 L 152.5 357 Z " /><path fill="rgb(27,29,30)" stroke="rgb(27,29,30)" stroke-width="0.6" opacity="1" d="M 157.5 360 L 170 360.5 L 157.5 361 L 157.5 360 Z " /><path fill="rgb(27,29,30)" stroke="rgb(27,29,30)" stroke-width="0.6" opacity="1" d="M 410.5 368 L 410.5 370 L 412 370.5 L 408.5 375 L 406.5 376 L 407 374.5 L 406.5 373 L 405 373.5 L 410.5 368 Z " /><path fill="rgb(27,29,30)" stroke="rgb(27,29,30)" stroke-width="0.6" opacity="1" d="M 198.5 376 L 201.5 380 L 198.5 379 L 199.5 382 L 197 378.5 L 198.5 376 Z " /><path fill="rgb(27,29,30)" stroke="rgb(27,29,30)" stroke-width="0.6" opacity="1" d="M 219.5 382 L 224 385.5 L 221 387.5 L 220.5 385 L 219 384.5 L 219.5 382 Z " /><path fill="rgb(27,29,30)" stroke="rgb(27,29,30)" stroke-width="0.6" opacity="1" d="M 228.5 390 L 240 390.5 L 228.5 391 L 228.5 390 Z " /><path fill="rgb(74,78,77)" stroke="rgb(74,78,77)" stroke-width="0.6" opacity="1" d="M 252.5 144 L 254.5 146 L 281 146.5 L 254.5 147 L 252.5 144 Z " /><path fill="rgb(74,78,77)" stroke="rgb(74,78,77)" stroke-width="0.6" opacity="1" d="M 303.5 149 L 315 149.5 L 303.5 150 L 303.5 149 Z " /><path fill="rgb(74,78,77)" stroke="rgb(74,78,77)" stroke-width="0.6" opacity="1" d="M 338 235 Q 342 233.6 340 240.5 Q 336.2 245.3 326 243 L 326.5 241 L 338 241 L 338 235 Z " /><path fill="rgb(74,78,77)" stroke="rgb(74,78,77)" stroke-width="0.6" opacity="1" d="M 90.5 279 L 93 280.5 L 92 288 L 90 287.5 L 91 280.5 L 90.5 279 Z " /><path fill="rgb(74,78,77)" stroke="rgb(74,78,77)" stroke-width="0.6" opacity="1" d="M 183.5 288 Q 186.5 287.6 185 294 L 180.5 293 L 179 293.5 L 180 290 L 183.5 288 Z " /><path fill="rgb(74,78,77)" stroke="rgb(74,78,77)" stroke-width="0.6" opacity="1" d="M 332.5 293 L 324.5 302 L 332.5 293 Z " /><path fill="rgb(74,78,77)" stroke="rgb(74,78,77)" stroke-width="0.6" opacity="1" d="M 138.5 332 L 150 332.5 L 138.5 333 L 138.5 332 Z " /><path fill="rgb(74,78,77)" stroke="rgb(74,78,77)" stroke-width="0.6" opacity="1" d="M 256 341 L 258 341.5 L 258 351 L 256 350.5 L 256 341 Z " /><path fill="rgb(106,73,54)" stroke="rgb(106,73,54)" stroke-width="0.6" opacity="1" d="M 240.5 149 L 286 149.5 L 240.5 150 L 240.5 149 Z " /><path fill="rgb(106,73,54)" stroke="rgb(106,73,54)" stroke-width="0.6" opacity="1" d="M 290.5 149 L 303 149.5 L 289.5 151 L 290.5 149 Z " /><path fill="rgb(106,73,54)" stroke="rgb(106,73,54)" stroke-width="0.6" opacity="1" d="M 215.5 231 L 220.5 237 L 226 238.5 L 221.5 239 L 217 236.5 L 216.5 234 L 214 233.5 L 215.5 231 Z " /><path fill="rgb(106,73,54)" stroke="rgb(106,73,54)" stroke-width="0.6" opacity="1" d="M 347.5 270 L 348 286.5 L 347 286.5 L 347.5 270 Z " /><path fill="rgb(106,73,54)" stroke="rgb(106,73,54)" stroke-width="0.6" opacity="1" d="M 211.5 296 L 206.5 302 L 211.5 296 Z " /><path fill="rgb(182,58,54)" stroke="rgb(182,58,54)" stroke-width="0.6" opacity="1" d="M 246.5 157 L 295 157.5 L 246.5 158 L 246.5 157 Z " /><path fill="rgb(182,58,54)" stroke="rgb(182,58,54)" stroke-width="0.6" opacity="1" d="M 356.5 179 L 361.5 185 L 356.5 179 Z " /><path fill="rgb(182,58,54)" stroke="rgb(182,58,54)" stroke-width="0.6" opacity="1" d="M 234.5 285 L 246 285.5 L 234.5 286 L 234.5 285 Z " /><path fill="rgb(145,60,56)" stroke="rgb(145,60,56)" stroke-width="0.6" opacity="1" d="M 295.5 166 L 324 166.5 L 295.5 167 L 295.5 166 Z " /><path fill="rgb(145,60,56)" stroke="rgb(145,60,56)" stroke-width="0.6" opacity="1" d="M 219.5 169 L 233 169.5 L 219.5 170 L 219.5 169 Z " /><path fill="rgb(145,60,56)" stroke="rgb(145,60,56)" stroke-width="0.6" opacity="1" d="M 229.5 247 L 240 247.5 L 229.5 248 L 229.5 247 Z " /><path fill="rgb(145,60,56)" stroke="rgb(145,60,56)" stroke-width="0.6" opacity="1" d="M 441.5 290 L 442 304.5 L 441 304.5 L 441.5 290 Z " /><path fill="rgb(145,60,56)" stroke="rgb(145,60,56)" stroke-width="0.6" opacity="1" d="M 143.5 295 L 148 300.5 L 145.5 302 L 145.5 301 L 147 299.5 Q 144.5 294.7 142 296.5 L 143.5 295 Z " /><path fill="rgb(145,60,56)" stroke="rgb(145,60,56)" stroke-width="0.6" opacity="1" d="M 153.5 329 L 167 329.5 L 153.5 330 L 153.5 329 Z " /><path fill="rgb(94,117,123)" stroke="rgb(94,117,123)" stroke-width="0.6" opacity="1" d="M 321.5 256 L 333 256.5 L 321.5 257 L 321.5 256 Z " /><path fill="rgb(94,117,123)" stroke="rgb(94,117,123)" stroke-width="0.6" opacity="1" d="M 265.5 265 L 266 281.5 L 265 281.5 L 265.5 265 Z " /><path fill="rgb(171,150,51)" stroke="rgb(171,150,51)" stroke-width="0.6" opacity="1" d="M 285.5 152 L 284.5 154 L 263 153.5 L 284.5 153 L 285.5 152 Z " /><path fill="rgb(171,150,51)" stroke="rgb(171,150,51)" stroke-width="0.6" opacity="1" d="M 289.5 152 L 308 153.5 L 290.5 154 L 289.5 152 Z " /><path fill="rgb(171,150,51)" stroke="rgb(171,150,51)" stroke-width="0.6" opacity="1" d="M 235.5 153 L 260 153.5 L 235.5 154 L 235.5 153 Z " /><path fill="rgb(171,150,51)" stroke="rgb(171,150,51)" stroke-width="0.6" opacity="1" d="M 214.5 173 L 238 173.5 L 214.5 174 L 214.5 173 Z " /><path fill="rgb(171,150,51)" stroke="rgb(171,150,51)" stroke-width="0.6" opacity="1" d="M 226.5 243 L 240 243.5 L 226.5 244 L 226.5 243 Z " /><path fill="rgb(204,79,77)" stroke="rgb(204,79,77)" stroke-width="0.6" opacity="1" d="M 281.5 142 L 283 144.5 L 281.5 146 L 254.5 146 L 253 143.5 L 254 143.5 L 254.5 145 L 279.5 145 L 281.5 142 Z " /><path fill="rgb(204,79,77)" stroke="rgb(204,79,77)" stroke-width="0.6" opacity="1" d="M 300.5 165 L 318 165.5 L 300.5 166 L 300.5 165 Z " /><path fill="rgb(204,79,77)" stroke="rgb(204,79,77)" stroke-width="0.6" opacity="1" d="M 355.5 245 L 366 245.5 L 355.5 246 L 355.5 245 Z " /><path fill="rgb(204,79,77)" stroke="rgb(204,79,77)" stroke-width="0.6" opacity="1" d="M 440.5 288 L 441 306.5 L 440 306.5 L 440.5 288 Z " /><path fill="rgb(204,79,77)" stroke="rgb(204,79,77)" stroke-width="0.6" opacity="1" d="M 142.5 298 L 143 299.5 L 136 305.5 L 142.5 298 Z " /><path fill="rgb(204,79,77)" stroke="rgb(204,79,77)" stroke-width="0.6" opacity="1" d="M 446.5 319 L 447 329.5 L 446 329.5 L 446.5 319 Z " /><path fill="rgb(205,204,204)" stroke="rgb(205,204,204)" stroke-width="0.6" opacity="1" d="M 260.5 121 L 295 121.5 L 260.5 122 L 260.5 121 Z " /><path fill="rgb(205,204,204)" stroke="rgb(205,204,204)" stroke-width="0.6" opacity="1" d="M 83.5 258 L 78.5 264 L 83.5 258 Z " /><path fill="rgb(205,204,204)" stroke="rgb(205,204,204)" stroke-width="0.6" opacity="1" d="M 77.5 273 L 79 275.5 L 76 283 L 74 281.5 L 75 278 L 77 277.5 L 76 275.5 L 77.5 273 Z " /><path fill="rgb(205,204,204)" stroke="rgb(205,204,204)" stroke-width="0.6" opacity="1" d="M 195.5 378 L 200.5 384 L 195.5 378 Z " /><path fill="rgb(205,204,204)" stroke="rgb(205,204,204)" stroke-width="0.6" opacity="1" d="M 376.5 383 L 392 383.5 L 376.5 384 L 376.5 383 Z " /><path fill="rgb(157,157,157)" stroke="rgb(157,157,157)" stroke-width="0.6" opacity="1" d="M 445.5 288 L 446 305.5 L 445 305.5 L 445.5 288 Z " /></svg>