<svg width="627" height="627" preserveAspectRatio="xMidYMid meet" viewBox="0 0 512 512" version="1.1" xmlns="http://www.w3.org/2000/svg" ><path fill="rgb(255,255,255)" stroke="rgb(255,255,255)" stroke-width="0.6" opacity="1" d="M 0 0 L 512 0 L 512 512 L 0 512 L 0 0 Z M 263 120 L 262 121 L 244 121 L 236 124 L 228 136 Q 227 145 231 150 L 228 153 L 215 153 L 202 156 L 186 164 L 171 181 L 147 229 L 138 237 L 100 247 L 82 258 Q 71 267 68 283 L 68 314 L 66 315 L 61 323 Q 59 335 63 342 L 71 349 L 85 353 L 89 362 L 100 372 L 118 378 Q 132 380 141 376 L 159 360 L 186 360 L 192 375 Q 201 388 220 391 L 244 391 L 258 384 Q 271 375 273 354 L 275 352 L 288 351 L 341 350 L 346 366 L 361 379 L 375 383 L 394 383 L 410 375 Q 422 366 423 345 L 425 343 L 439 343 L 447 340 L 451 335 L 453 326 Q 454 313 446 310 L 446 285 Q 443 277 444 267 L 437 251 Q 429 239 415 234 L 409 229 Q 398 197 380 172 L 365 160 L 345 154 L 326 153 L 322 149 L 325 143 Q 326 134 323 130 Q 317 121 304 120 L 263 120 Z " /><path fill="rgb(255,255,255)" stroke="rgb(255,255,255)" stroke-width="0.6" opacity="1" d="M 87 270 Q 91.7 269 93 272.5 L 94 276 L 92 274.5 L 87 272 L 87 270 Z " /><path fill="rgb(255,255,255)" stroke="rgb(255,255,255)" stroke-width="0.6" opacity="1" d="M 93 278 L 95 278.5 L 95 287.5 L 92 296 L 90 294.5 Q 94.8 289.1 93 278 Z " /><path fill="rgb(211,60,56)" stroke="rgb(211,60,56)" stroke-width="0.6" opacity="1" d="M 260.5 125 L 264.5 126 L 266.5 125 L 267.5 126 L 284 126 L 281 134.5 L 281 142.5 L 280.5 145 L 255.5 145 L 253 142.5 L 253 133.5 L 257 127 L 260.5 125 Z " /><path fill="rgb(211,60,56)" stroke="rgb(211,60,56)" stroke-width="0.6" opacity="1" d="M 244.5 126 L 251 127 Q 247 132.3 248 143.5 L 246.5 145 Q 236.3 147.3 234 141.5 Q 232.3 131.8 237.5 129 L 244.5 126 Z " /><path fill="rgb(211,60,56)" stroke="rgb(211,60,56)" stroke-width="0.6" opacity="1" d="M 220.5 158 L 336.5 158 L 341.5 160 L 352.5 161 L 364.5 166 L 379 179.5 L 390 198.5 L 403 229.5 L 407.5 235 L 430 250.5 L 436 260.5 L 440 275.5 L 440 310.5 Q 438 315 429.5 313 L 423 296.5 L 411.5 284 Q 402.7 276.8 384.5 279 Q 370.5 283 362 292.5 L 352 308.5 L 347 326.5 L 344.5 329 Q 340.3 330.3 342 325.5 L 345 320.5 L 348 297.5 L 348 263.5 L 346 246 L 352.5 244 L 374.5 244 L 384 239.5 Q 382.3 194.7 357.5 173 L 350.5 169 L 338.5 166 L 294.5 165 L 282.5 167 L 272 174.5 L 267 189.5 L 263 221.5 L 261 229.5 L 257 234.5 L 256 242.5 L 261 253.5 L 260 256.5 L 262 260.5 L 262 282.5 L 260 289 Q 251.6 282.1 233.5 284 Q 215.3 287.3 206 299.5 L 199 309.5 L 191.5 328 L 184.5 327 L 183.5 328 L 139.5 328 L 85.5 321 Q 76.9 320.1 73 314.5 Q 74.1 303.4 72 297 L 74 298.5 L 79.5 305 L 87.5 306 L 94 300.5 Q 101.2 292.7 99 275.5 L 93.5 267 L 86.5 266 L 78 273.5 L 77.5 276 Q 74.3 274.3 78 272.5 Q 80.1 264.6 86.5 261 L 104.5 251 L 141.5 242 L 150 234.5 L 172 189.5 L 188.5 169 L 204.5 161 L 220.5 158 Z M 215 168 L 198 170 L 188 174 L 174 191 L 157 226 Q 154 230 155 239 L 165 244 L 167 243 L 187 244 L 193 246 L 225 246 L 229 248 Q 239 249 245 246 L 251 238 L 261 186 L 260 176 L 247 168 L 245 169 L 215 168 Z M 171 272 L 163 276 Q 156 282 154 292 Q 152 304 157 311 L 165 316 L 176 315 Q 185 309 188 296 Q 190 283 185 278 Q 181 271 171 272 Z M 104 293 L 100 296 L 100 299 L 106 308 L 117 314 Q 129 316 136 311 L 145 301 Q 149 303 148 299 L 144 295 Q 140 294 142 300 Q 137 308 126 310 L 120 310 L 111 306 Q 105 304 106 295 L 104 293 Z " /><path fill="rgb(211,60,56)" stroke="rgb(211,60,56)" stroke-width="0.6" opacity="1" d="M 336 172 L 348.5 174 L 363 185.5 Q 377 204.5 380 234.5 L 377.5 238 Q 363.9 241.9 344.5 240 Q 340.6 226.9 342 208.5 L 336 172 Z " /><path fill="rgb(211,60,56)" stroke="rgb(211,60,56)" stroke-width="0.6" opacity="1" d="M 225.5 209 Q 233.5 207.5 235 212.5 Q 236.3 216.3 232.5 215 L 225.5 214 Q 217.4 218.9 218.5 233 L 216 230.5 L 215 223.5 L 221.5 211 L 225.5 209 Z " /><path fill="rgb(211,60,56)" stroke="rgb(211,60,56)" stroke-width="0.6" opacity="1" d="M 388.5 284 L 402.5 285 L 414 293.5 L 424 312.5 L 425 329 Q 421.3 330.4 423 324.5 Q 419.3 307.2 407.5 298 L 398.5 294 L 386.5 294 Q 374 298 367 307.5 L 360 318.5 L 354 339.5 L 351.5 343 L 322.5 344 L 317.5 346 L 284.5 346 L 281.5 347 L 278.5 346 L 276.5 347 L 274 344.5 L 274 335.5 L 269 317.5 L 260.5 306 Q 253.7 298.3 239.5 298 Q 221.5 301 213 313.5 L 206 324.5 L 202 337.5 L 202 343.5 L 197.5 351 L 196 348.5 L 197 347.5 L 197 331.5 L 196 329.5 L 205 309.5 L 210.5 303 L 213 301.5 L 217.5 296 L 232.5 289 L 245.5 289 Q 260.1 291.9 267 302.5 L 274 315.5 L 277 331.5 L 281.5 336 L 288.5 337 L 289.5 336 L 314.5 336 L 340.5 334 L 342.5 335 Q 348.9 334.4 351 329.5 Q 352.4 315.9 358 306.5 L 373.5 289 L 388.5 284 Z " /><path fill="rgb(211,60,56)" stroke="rgb(211,60,56)" stroke-width="0.6" opacity="1" d="M 442.5 315 L 447 317.5 Q 449.5 332.5 441.5 337 L 430.5 338 L 430 335.5 L 430 318.5 L 431.5 318 L 440.5 317 L 442.5 315 Z " /><path fill="rgb(211,60,56)" stroke="rgb(211,60,56)" stroke-width="0.6" opacity="1" d="M 239.5 340 L 243 342.5 Q 244.1 350.1 239.5 352 L 236 349.5 Q 234.5 341.5 239.5 340 Z " /><path fill="rgb(0,0,0)" stroke="rgb(0,0,0)" stroke-width="0.6" opacity="1" d="M 264.5 120 L 267.5 121 L 306.5 121 Q 317.5 123 323 130.5 L 324 142.5 L 321 148.5 L 325.5 154 L 345.5 155 L 362.5 160 Q 374.4 165.6 382 175.5 Q 397.8 199.2 408 228.5 L 413.5 234 Q 427.6 239.4 436 250.5 L 443 265.5 L 444 283.5 L 446 286.5 L 446 306.5 L 445 309.5 Q 453.8 313.2 452 327.5 Q 451 336.5 444.5 340 L 435.5 343 L 423.5 343 L 422 344.5 Q 421.2 363.7 410.5 373 L 394.5 382 L 373.5 382 L 360.5 378 L 347 365.5 L 341.5 349 L 285.5 351 L 273.5 352 L 272 353.5 Q 270.6 374.1 257.5 383 L 244.5 390 L 222.5 391 L 206.5 386 L 193 374.5 L 186.5 359 L 183.5 360 L 156.5 360 L 153 363.5 L 144.5 373 Q 134.8 379.3 116.5 377 L 101.5 372 L 90 361.5 L 85.5 352 L 72.5 349 L 64 341.5 Q 59.9 336.1 61 325.5 Q 62.3 317.8 68 314.5 L 68 286.5 L 71 275.5 Q 75.1 263.6 84.5 257 L 99.5 248 L 137.5 238 L 147 230.5 L 169 185.5 Q 175.4 173.4 185.5 165 L 201.5 157 L 218.5 153 L 228.5 153 L 232 149.5 Q 232.6 143.9 229 142.5 L 229 135.5 L 235.5 125 L 245.5 121 L 263.5 121 L 264.5 120 Z M 259 125 L 252 134 L 252 144 L 254 145 L 282 145 L 283 144 L 281 141 L 282 133 L 286 127 L 285 125 L 259 125 Z M 292 125 Q 285 129 284 139 L 288 145 L 319 145 L 320 144 L 319 133 L 312 126 L 292 125 Z M 243 126 L 238 128 Q 231 131 233 143 L 236 145 L 249 145 Q 247 132 253 128 Q 251 124 243 126 Z M 239 149 L 238 150 L 236 152 L 285 152 L 286 151 L 285 149 L 239 149 Z M 291 149 L 289 151 L 291 152 L 318 153 L 319 151 L 318 149 L 291 149 Z M 223 157 L 205 160 L 189 168 L 173 187 L 149 235 L 142 241 L 105 250 L 87 260 Q 78 267 74 279 Q 72 285 76 284 Q 76 277 80 273 L 87 267 L 93 267 L 99 278 L 99 288 L 94 300 L 88 305 L 81 305 Q 74 302 74 295 L 72 296 L 72 315 L 79 320 L 97 324 L 139 328 L 193 328 L 196 318 L 206 301 Q 215 289 232 285 L 250 285 L 260 290 L 262 284 L 262 260 L 261 259 L 262 254 L 257 245 L 258 235 L 262 230 Q 261 223 264 222 L 269 183 L 272 177 L 284 167 Q 292 169 296 165 L 335 166 L 351 170 L 358 174 Q 367 182 373 195 L 380 213 L 384 231 L 383 240 L 372 244 L 349 244 L 344 247 Q 348 251 346 262 L 348 265 L 347 304 L 344 321 L 340 329 L 346 330 L 348 327 L 352 311 L 364 292 Q 371 283 385 280 L 402 280 L 412 285 L 422 297 L 429 314 Q 439 316 441 311 L 440 272 L 437 261 L 430 250 L 408 234 L 403 228 L 386 189 L 377 176 L 361 163 L 340 158 L 223 157 Z M 299 169 L 286 170 L 281 172 L 273 182 L 267 218 Q 265 223 269 225 L 273 223 Q 282 222 287 225 L 291 231 L 292 241 L 294 242 L 337 242 L 339 240 L 338 206 Q 334 198 335 186 L 331 172 Q 318 167 299 169 Z M 337 171 L 335 173 Q 339 185 339 202 L 341 204 L 342 240 L 344 241 L 373 240 L 380 238 Q 379 202 362 183 Q 355 171 337 171 Z M 277 226 L 267 229 Q 259 233 261 246 Q 266 254 284 251 L 288 246 L 287 232 Q 285 226 277 226 Z M 328 245 L 327 246 L 292 247 L 290 250 Q 287 255 280 256 Q 272 257 269 254 L 264 256 L 266 265 Q 268 280 264 290 L 264 294 Q 273 300 277 312 L 281 329 L 284 332 L 332 332 L 336 331 L 342 317 L 344 298 L 344 257 L 342 248 L 340 245 L 328 245 Z M 89 269 L 85 270 Q 84 273 89 272 L 93 279 L 93 287 L 89 297 L 82 300 Q 81 304 88 302 Q 94 297 96 287 Q 97 278 94 273 L 89 269 Z M 86 274 Q 79 277 78 286 L 79 297 L 85 298 Q 93 293 91 278 L 86 274 Z M 384 284 L 373 289 L 358 306 Q 351 315 350 330 L 346 334 L 317 334 L 314 336 L 283 336 L 278 332 L 275 316 L 267 302 Q 261 293 250 289 L 232 289 L 218 295 L 204 310 L 196 329 L 197 334 L 197 347 L 195 349 Q 194 352 198 351 L 202 346 L 202 340 L 206 327 L 214 314 Q 222 302 238 299 Q 249 299 256 303 L 268 318 L 273 334 L 273 345 L 276 347 L 316 347 L 320 345 L 353 344 L 360 321 L 368 308 Q 375 299 387 295 Q 403 293 410 301 Q 420 311 423 329 L 423 338 L 425 338 L 425 314 L 416 295 Q 408 281 384 284 Z M 386 300 L 378 304 Q 364 314 360 333 L 361 357 L 368 370 Q 374 377 386 379 Q 400 379 407 372 L 416 359 L 419 346 L 418 324 L 412 312 L 401 301 L 386 300 Z M 234 305 L 220 312 Q 208 324 205 344 Q 204 364 212 375 Q 218 385 233 387 L 245 386 L 254 382 Q 265 374 269 358 L 269 332 L 261 315 Q 254 303 234 305 Z M 443 314 Q 440 318 433 316 L 429 319 L 429 338 L 431 339 L 444 337 L 447 332 L 447 316 L 443 314 Z M 69 319 L 65 325 Q 64 335 67 341 L 81 348 L 100 352 L 148 356 Q 171 358 189 354 Q 193 351 194 345 Q 195 336 192 332 L 169 332 L 168 333 L 166 332 L 134 332 L 123 331 L 120 329 L 99 328 L 81 324 L 69 319 Z M 356 345 L 346 351 Q 346 361 352 367 Q 358 376 372 377 Q 362 368 358 353 Q 360 344 356 345 Z M 201 353 L 191 358 Q 191 370 198 376 Q 204 382 214 385 Q 220 386 219 384 L 217 382 Q 207 375 204 361 L 204 353 L 201 353 Z M 94 354 L 92 356 L 94 362 Q 100 370 112 372 Q 118 374 118 371 L 116 369 Q 110 365 109 358 L 108 356 L 94 354 Z M 114 357 L 112 359 L 114 365 Q 118 370 126 372 Q 138 374 145 369 L 150 363 L 150 360 L 123 359 L 114 357 Z " /><path fill="rgb(0,0,0)" stroke="rgb(0,0,0)" stroke-width="0.6" opacity="1" d="M 216.5 168 L 218.5 169 L 248.5 169 L 259 175.5 L 260 187.5 L 251 235.5 L 244.5 245 Q 239.2 249.2 227.5 247 L 226.5 246 L 189.5 245 L 186.5 243 L 162.5 243 L 155 237.5 L 157 227.5 L 175 190.5 L 187.5 175 L 199.5 170 L 213.5 170 L 216.5 168 Z M 204 173 L 191 177 L 177 195 L 159 232 L 159 237 L 163 239 L 169 240 L 244 242 L 250 225 L 257 185 L 256 177 L 248 173 L 204 173 Z " /><path fill="rgb(0,0,0)" stroke="rgb(0,0,0)" stroke-width="0.6" opacity="1" d="M 192.5 189 L 199 191.5 L 196.5 193 L 193.5 192 L 187.5 196 L 187 193.5 L 192.5 189 Z " /><path fill="rgb(0,0,0)" stroke="rgb(0,0,0)" stroke-width="0.6" opacity="1" d="M 231.5 190 Q 237.3 189.2 239 192.5 L 241 198 Q 237.5 193.1 228 193.5 L 231.5 190 Z " /><path fill="rgb(0,0,0)" stroke="rgb(0,0,0)" stroke-width="0.6" opacity="1" d="M 189.5 204 Q 195.3 203.2 197 206.5 Q 201.9 210.6 200 221.5 L 192.5 233 L 181.5 234 Q 174.4 231.6 176 220.5 L 183.5 207 L 189.5 204 Z M 191 206 L 185 209 L 178 221 L 179 230 L 183 232 L 183 230 Q 182 216 191 212 L 197 213 L 196 209 L 191 206 Z M 194 215 L 190 220 L 195 222 L 196 217 L 194 215 Z " /><path fill="rgb(0,0,0)" stroke="rgb(0,0,0)" stroke-width="0.6" opacity="1" d="M 225.5 206 Q 233.8 204.7 236 209.5 Q 240.2 213.3 239 222.5 Q 237.3 230.8 231.5 235 Q 228.9 238.9 221.5 238 L 216 234.5 L 215 232.5 L 216.5 232 Q 218.8 237.3 221 233.5 L 219 225.5 L 225.5 215 Q 233.5 213.8 236 217 Q 236.9 211.1 232.5 209 L 225.5 208 L 219 212.5 Q 213.4 218.4 214.5 231 Q 211.2 229.3 212 223.5 Q 214.1 213.1 221.5 208 L 225.5 206 Z M 230 218 L 228 223 L 233 224 L 234 221 L 230 218 Z " /><path fill="rgb(0,0,0)" stroke="rgb(0,0,0)" stroke-width="0.6" opacity="1" d="M 321.5 255 Q 334.3 252.2 337 259.5 Q 337.7 265.7 333.5 267 L 321.5 268 L 316 263.5 Q 315.3 257.3 319.5 256 L 321.5 255 Z M 321 259 L 319 263 L 321 264 L 333 264 L 334 261 L 333 259 L 321 259 Z " /><path fill="rgb(0,0,0)" stroke="rgb(0,0,0)" stroke-width="0.6" opacity="1" d="M 170.5 273 Q 180.9 271.6 184 277.5 Q 189.2 283.3 187 296.5 Q 184.4 308.4 175.5 314 L 164.5 315 L 158 310.5 L 154 301.5 L 154 294.5 Q 156.4 282.4 164.5 276 L 170.5 273 Z M 172 276 L 167 278 Q 159 284 157 296 L 159 308 L 166 312 Q 174 314 177 310 Q 184 304 185 292 L 183 282 Q 181 275 172 276 Z " /><path fill="rgb(0,0,0)" stroke="rgb(0,0,0)" stroke-width="0.6" opacity="1" d="M 311.5 275 L 315 277.5 L 317 284.5 L 315 283.5 L 312.5 280 L 310 281.5 L 305.5 291 L 297 291 L 297 294.5 L 302 300.5 L 302 305.5 L 301 311.5 L 303.5 313 L 310.5 308 L 313.5 308 L 323 312 L 321 301.5 L 329 292.5 L 319 289.5 Q 318.5 286.5 325.5 288 L 333 290.5 L 324 300.5 L 324 304.5 L 326 314.5 L 323.5 316 L 314.5 311 L 309.5 311 L 298.5 316 L 297 312.5 L 300 301.5 L 291 291.5 L 296.5 288 Q 304 290 306 286.5 Q 306.2 278.2 311.5 275 Z " /><path fill="rgb(0,0,0)" stroke="rgb(0,0,0)" stroke-width="0.6" opacity="1" d="M 171.5 279 L 174.5 279 L 181 285.5 L 181 295.5 L 173.5 307 L 172 306.5 L 179 295.5 L 179 286.5 L 175.5 282 L 171.5 281 L 164 287.5 L 162 300.5 L 164.5 305 L 167 306.5 Q 167.8 309.1 164.5 308 Q 158.7 304.3 160 293.5 Q 161.7 285.2 167.5 281 L 171.5 279 Z " /><path fill="rgb(0,0,0)" stroke="rgb(0,0,0)" stroke-width="0.6" opacity="1" d="M 102.5 294 L 105 295.5 L 105 299.5 L 110.5 307 Q 116.4 311.7 128.5 310 Q 138.3 307.3 143 299.5 L 144.5 296 L 147 300 L 143 301.5 L 135.5 310 Q 129.5 314 119.5 314 Q 110.9 312.1 106 306.5 L 100 296.5 L 102.5 294 Z " /><path fill="rgb(0,0,0)" stroke="rgb(0,0,0)" stroke-width="0.6" opacity="1" d="M 389.5 317 Q 399.2 315.8 402 321.5 L 407 331.5 L 407 344.5 Q 405.4 353.9 399.5 359 Q 395.4 362.9 386.5 362 L 378 355.5 Q 372.2 348.8 374 334.5 Q 376.1 325.1 382.5 320 L 389.5 317 Z M 389 320 L 384 323 L 377 335 Q 375 348 380 355 L 386 359 L 397 358 Q 402 354 404 346 Q 406 332 401 326 Q 399 319 389 320 Z " /><path fill="rgb(0,0,0)" stroke="rgb(0,0,0)" stroke-width="0.6" opacity="1" d="M 237.5 322 Q 249.9 322.1 254 330.5 Q 259.1 337.4 257 351.5 Q 254.6 361.6 247.5 367 Q 244.3 371.3 235.5 370 L 224 361.5 Q 219.2 355.3 220 343.5 Q 222.3 332.3 229.5 326 L 237.5 322 Z M 238 325 L 231 328 Q 224 334 223 345 Q 223 355 227 362 L 237 367 L 245 366 Q 252 361 254 351 Q 256 337 250 331 Q 248 324 238 325 Z " /><path fill="rgb(0,0,0)" stroke="rgb(0,0,0)" stroke-width="0.6" opacity="1" d="M 389.5 331 L 396 333.5 L 397 343.5 L 393.5 348 L 390.5 349 L 385 344.5 L 384 338.5 L 389.5 331 Z M 391 333 L 387 338 L 388 345 L 393 346 L 395 342 L 394 336 L 391 333 Z " /><path fill="rgb(0,0,0)" stroke="rgb(0,0,0)" stroke-width="0.6" opacity="1" d="M 238.5 336 L 245 339.5 L 246 349.5 L 241.5 355 L 238.5 356 L 232 350.5 Q 230.4 338.4 238.5 336 Z M 239 339 Q 233 341 235 351 L 240 353 L 244 347 L 243 342 L 239 339 Z " /><path fill="rgb(47,52,52)" stroke="rgb(47,52,52)" stroke-width="0.6" opacity="1" d="M 242.5 149 L 258 149.5 L 242.5 150 L 242.5 149 Z " /><path fill="rgb(47,52,52)" stroke="rgb(47,52,52)" stroke-width="0.6" opacity="1" d="M 291.5 149 L 303 149.5 L 295 150 Q 296.2 154 290 152 L 291.5 149 Z " /><path fill="rgb(47,52,52)" stroke="rgb(47,52,52)" stroke-width="0.6" opacity="1" d="M 226.5 157 L 325 157.5 L 226.5 158 L 226.5 157 Z " /><path fill="rgb(47,52,52)" stroke="rgb(47,52,52)" stroke-width="0.6" opacity="1" d="M 298.5 169 L 320.5 169 L 328.5 170 L 331 172.5 L 335 186.5 L 335 196.5 L 338 207.5 L 339 239.5 L 330.5 242 L 293.5 242 Q 290 240 292 232.5 L 286.5 225 Q 281.5 222 272.5 223 L 268.5 225 Q 265.5 223.5 267 217.5 L 272 185.5 Q 273.8 176.3 280.5 172 L 298.5 169 Z " /><path fill="rgb(47,52,52)" stroke="rgb(47,52,52)" stroke-width="0.6" opacity="1" d="M 350.5 174 L 361 181.5 Q 361.8 184.1 358.5 183 L 350 175.5 L 350.5 174 Z " /><path fill="rgb(47,52,52)" stroke="rgb(47,52,52)" stroke-width="0.6" opacity="1" d="M 192.5 245 L 207 245.5 L 192.5 246 L 192.5 245 Z " /><path fill="rgb(47,52,52)" stroke="rgb(47,52,52)" stroke-width="0.6" opacity="1" d="M 327.5 245 L 339.5 245 L 341 246.5 L 339.5 246 L 327.5 246 L 327.5 245 Z " /><path fill="rgb(47,52,52)" stroke="rgb(47,52,52)" stroke-width="0.6" opacity="1" d="M 171.5 276 Q 181.1 274.9 183 281.5 L 184 297.5 L 176.5 310 L 169 312 Q 170.3 309 166.5 310 L 168 307.5 L 166.5 306 L 163 303.5 L 162 295.5 Q 163.1 286.1 169.5 282 L 173.5 281 L 178 284.5 L 179 294.5 L 172 308 L 175 306.5 Q 182.8 300.8 181 285.5 L 175.5 279 L 170.5 279 L 162.5 284 L 163 282.5 L 165.5 279 L 171.5 276 Z " /><path fill="rgb(47,52,52)" stroke="rgb(47,52,52)" stroke-width="0.6" opacity="1" d="M 311 280 L 314 281.5 L 320.5 291 Q 327.3 289.3 329 292.5 L 321 301.5 L 321 304.5 L 323 312 L 310.5 308 L 302.5 313 Q 299.8 311.8 301 306.5 L 302 300.5 L 297 291 L 305.5 291 L 307 289.5 L 311 280 Z " /><path fill="rgb(47,52,52)" stroke="rgb(47,52,52)" stroke-width="0.6" opacity="1" d="M 440.5 283 L 441 310.5 L 440 310.5 L 440.5 283 Z " /><path fill="rgb(47,52,52)" stroke="rgb(47,52,52)" stroke-width="0.6" opacity="1" d="M 160.5 290 L 161 292.5 L 160 301.5 L 165 308.5 L 165.5 312 L 160 308.5 L 158 304.5 L 158 291 L 160.5 290 Z " /><path fill="rgb(47,52,52)" stroke="rgb(47,52,52)" stroke-width="0.6" opacity="1" d="M 233.5 305 Q 253.5 302.5 260 313.5 Q 266.5 321 269 332.5 L 269 357.5 Q 265.1 373.6 253.5 382 Q 244.8 388.3 227.5 386 Q 218.2 382.8 213 375.5 Q 204.6 364.9 205 345.5 Q 208.1 324.6 219.5 312 L 233.5 305 Z M 238 322 L 231 325 Q 222 331 220 344 Q 219 354 223 361 L 235 370 Q 243 371 247 368 Q 255 363 257 352 Q 259 335 252 328 Q 248 321 238 322 Z " /><path fill="rgb(47,52,52)" stroke="rgb(47,52,52)" stroke-width="0.6" opacity="1" d="M 388.5 320 L 394.5 320 L 401 325.5 Q 405.5 332 404 344.5 Q 402.3 353.8 395.5 358 L 386.5 359 L 380 354.5 Q 375.5 348 377 335.5 Q 379 325.5 386.5 321 L 388.5 320 Z M 389 331 Q 384 333 384 339 L 386 347 L 393 349 L 397 344 L 396 334 Q 394 330 389 331 Z " /><path fill="rgb(47,52,52)" stroke="rgb(47,52,52)" stroke-width="0.6" opacity="1" d="M 390.5 333 L 394 335.5 L 395 341.5 L 392.5 346 L 388 344.5 L 387 338.5 L 390.5 333 Z " /><path fill="rgb(47,52,52)" stroke="rgb(47,52,52)" stroke-width="0.6" opacity="1" d="M 322.5 344 L 344 344.5 L 322.5 345 L 322.5 344 Z " /><path fill="rgb(47,52,52)" stroke="rgb(47,52,52)" stroke-width="0.6" opacity="1" d="M 93.5 354 L 106.5 356 L 109 358.5 Q 110.2 366.8 116.5 370 L 118 372 Q 101.5 371.9 94 361.5 L 92 355.5 L 93.5 354 Z " /><path fill="rgb(80,153,193)" stroke="rgb(80,153,193)" stroke-width="0.6" opacity="1" d="M 188.5 207 Q 194.8 205.8 196 209.5 L 194.5 212 L 189.5 212 L 184 217.5 L 182 228.5 L 183 230.5 L 179 227.5 L 179 219.5 L 184 210 L 188.5 207 Z " /><path fill="rgb(80,153,193)" stroke="rgb(80,153,193)" stroke-width="0.6" opacity="1" d="M 275.5 227 Q 284.1 225.9 286 231.5 L 287 245.5 L 282.5 251 Q 267.2 253.3 262 245.5 L 261 238.5 L 267.5 229 L 275.5 227 Z " /><path fill="rgb(80,153,193)" stroke="rgb(80,153,193)" stroke-width="0.6" opacity="1" d="M 299.5 246 L 339.5 246 L 341 247.5 L 344 259.5 L 344 296.5 L 341 318.5 L 334.5 331 L 292.5 332 L 289.5 331 L 284.5 332 L 281 327.5 Q 280 313.5 274 304.5 L 265 293.5 L 265 287.5 L 266 286.5 L 266 260.5 L 265 255 L 283.5 256 L 291 249.5 Q 290.4 246.8 296.5 248 L 299.5 246 Z M 320 255 Q 315 257 315 264 Q 318 268 325 269 L 334 268 L 338 262 L 337 258 L 335 255 L 320 255 Z M 311 274 Q 306 277 306 285 L 304 287 L 293 289 L 290 293 L 300 302 L 297 311 Q 296 316 299 317 L 311 311 L 314 311 L 325 317 L 327 314 L 324 303 L 333 294 L 333 290 L 332 288 L 321 287 L 315 277 L 311 274 Z " /><path fill="rgb(80,153,193)" stroke="rgb(80,153,193)" stroke-width="0.6" opacity="1" d="M 321.5 259 L 332.5 259 L 334 260.5 L 332.5 264 L 321.5 264 L 320 262.5 L 321.5 259 Z " /><path fill="rgb(80,153,193)" stroke="rgb(80,153,193)" stroke-width="0.6" opacity="1" d="M 85.5 275 L 90 277.5 L 91 282.5 Q 89.8 292.8 83.5 298 L 79 294.5 Q 76.6 279.1 85.5 275 Z " /><path fill="rgb(80,153,193)" stroke="rgb(80,153,193)" stroke-width="0.6" opacity="1" d="M 68.5 320 L 81.5 325 L 95.5 328 L 130.5 331 L 137.5 333 L 143.5 332 L 144.5 333 L 168.5 333 L 169.5 332 L 190.5 332 L 193 334.5 L 193 346.5 L 187.5 354 Q 178.5 353 173.5 356 L 148.5 356 L 97.5 351 L 79.5 347 L 68 340.5 Q 63.8 335.2 66 323.5 L 68.5 320 Z " /><path fill="rgb(80,153,193)" stroke="rgb(80,153,193)" stroke-width="0.6" opacity="1" d="M 239.5 325 L 250 331.5 L 253 337.5 L 254 348.5 L 250 359.5 L 244.5 365 L 234.5 366 L 227 360.5 Q 223 354.5 224 343.5 Q 225.1 334.1 230.5 329 L 239.5 325 Z M 238 336 L 231 345 L 232 352 Q 234 357 242 356 Q 246 354 247 348 L 245 339 Q 244 335 238 336 Z " /><path fill="rgb(80,153,193)" stroke="rgb(80,153,193)" stroke-width="0.6" opacity="1" d="M 201.5 353 L 208 373.5 L 217 383.5 L 212.5 384 L 201 378 L 199.5 376 Q 192.8 369.8 191 358.5 L 192 356 Q 199.5 357.8 201.5 353 Z " /><path fill="rgb(244,194,52)" stroke="rgb(244,194,52)" stroke-width="0.6" opacity="1" d="M 291.5 126 L 311.5 127 L 319 133.5 Q 321.3 142.8 316.5 145 L 288.5 145 L 286 142.5 L 285 137.5 Q 286.2 129.7 291.5 126 Z " /><path fill="rgb(244,194,52)" stroke="rgb(244,194,52)" stroke-width="0.6" opacity="1" d="M 239.5 149 L 257.5 150 L 258.5 149 L 284.5 149 Q 287.5 150.5 284.5 152 L 239.5 152 L 238 150.5 L 239.5 149 Z " /><path fill="rgb(244,194,52)" stroke="rgb(244,194,52)" stroke-width="0.6" opacity="1" d="M 303.5 149 L 315.5 149 L 318 151.5 Q 316 155 308.5 153 L 295 152 Q 293.9 148.3 302.5 150 L 303.5 149 Z " /><path fill="rgb(244,194,52)" stroke="rgb(244,194,52)" stroke-width="0.6" opacity="1" d="M 208.5 173 L 244.5 173 Q 252.1 173.9 256 178.5 L 256 185.5 L 249 224.5 L 245 237.5 L 241.5 242 L 198.5 241 L 194.5 239 L 165.5 239 L 160 237 L 160 231.5 L 178 194.5 L 190.5 178 L 208.5 173 Z M 193 188 L 185 195 L 187 197 L 194 193 L 198 194 Q 201 195 200 192 Q 199 187 193 188 Z M 232 189 L 226 194 L 228 196 L 230 195 Q 238 194 240 200 L 242 199 L 240 193 Q 238 189 232 189 Z M 190 203 L 184 206 Q 177 211 175 222 Q 174 232 182 235 L 193 234 L 201 221 Q 202 212 199 208 Q 197 203 190 203 Z M 226 205 L 219 209 L 212 221 Q 211 230 214 234 L 223 239 L 231 237 Q 239 232 240 221 L 238 211 Q 235 204 226 205 Z " /><path fill="rgb(244,194,52)" stroke="rgb(244,194,52)" stroke-width="0.6" opacity="1" d="M 385.5 301 L 398.5 301 L 411 311.5 Q 419.4 322.1 419 341.5 L 413 362.5 L 402.5 374 Q 395.9 378.4 384.5 378 Q 374.3 376.3 369 369.5 L 362 356.5 Q 359 348.5 360 336.5 Q 363.4 315.4 377.5 305 L 385.5 301 Z M 390 316 L 383 319 Q 375 324 373 336 Q 372 350 378 358 L 387 363 Q 395 364 400 360 Q 407 355 408 345 L 408 332 L 403 322 Q 399 316 390 316 Z " /><path fill="rgb(244,194,52)" stroke="rgb(244,194,52)" stroke-width="0.6" opacity="1" d="M 355.5 346 L 357 347.5 L 359 359.5 L 369 376 Q 358.9 374.1 353 366.5 Q 347.8 361.3 347 351.5 L 355.5 346 Z " /><path fill="rgb(244,194,52)" stroke="rgb(244,194,52)" stroke-width="0.6" opacity="1" d="M 114.5 358 L 149 360 L 149 362.5 L 144.5 368 L 134.5 372 L 128.5 372 Q 119.5 370.5 115 364.5 L 113 359.5 L 114.5 358 Z " /><path fill="rgb(25,25,25)" stroke="rgb(25,25,25)" stroke-width="0.6" opacity="1" d="M 371.5 170 L 376.5 176 L 371.5 170 Z " /><path fill="rgb(25,25,25)" stroke="rgb(25,25,25)" stroke-width="0.6" opacity="1" d="M 332.5 292 L 324.5 301 L 332.5 292 Z " /><path fill="rgb(110,64,54)" stroke="rgb(110,64,54)" stroke-width="0.6" opacity="1" d="M 293.5 346 L 305 346.5 L 293.5 347 L 293.5 346 Z " /><path fill="rgb(175,59,55)" stroke="rgb(175,59,55)" stroke-width="0.6" opacity="1" d="M 82.5 269 L 78.5 274 L 77.5 272 L 78.5 273 L 82.5 269 Z " /><path fill="rgb(203,184,51)" stroke="rgb(203,184,51)" stroke-width="0.6" opacity="1" d="M 229.5 190 L 227 193.5 L 228.5 195 L 228.5 196 L 226 194.5 L 229.5 190 Z " /><path fill="rgb(78,139,150)" stroke="rgb(78,139,150)" stroke-width="0.6" opacity="1" d="M 189.5 212 L 184.5 218 L 189.5 212 Z " /><path fill="rgb(78,139,150)" stroke="rgb(78,139,150)" stroke-width="0.6" opacity="1" d="M 332.5 293 L 324.5 302 L 332.5 293 Z " /></svg>