<svg width="627" height="627" preserveAspectRatio="xMidYMid meet" viewBox="0 0 512 512" version="1.1" xmlns="http://www.w3.org/2000/svg" ><path fill="rgb(255,255,255)" stroke="rgb(255,255,255)" stroke-width="0.6" opacity="1" d="M 0 0 L 512 0 L 512 512 L 0 512 L 0 0 Z M 214 131 L 213 132 L 170 134 L 153 140 L 141 156 Q 131 180 126 210 L 125 211 L 110 211 L 83 216 L 66 225 Q 58 230 57 241 L 51 243 L 44 253 L 43 285 L 37 293 L 38 314 Q 40 318 46 318 L 47 320 L 48 335 L 55 350 L 68 361 L 81 367 L 91 368 Q 112 369 124 360 Q 134 352 139 340 L 141 338 L 142 347 L 152 365 Q 159 373 171 378 L 181 381 L 193 382 L 208 381 L 215 379 L 233 368 Q 241 360 245 348 L 247 350 Q 256 362 276 364 Q 295 365 305 356 L 315 344 L 317 342 L 328 363 Q 338 375 356 379 L 384 379 Q 396 376 405 369 Q 415 360 421 347 L 424 337 L 425 317 L 427 315 Q 435 316 441 313 L 446 307 L 446 286 L 440 278 Q 442 275 448 276 L 458 271 Q 466 264 470 254 L 474 240 L 475 229 Q 478 193 463 175 L 458 169 L 445 164 L 417 165 L 410 146 L 399 135 L 386 133 L 307 132 L 306 131 L 214 131 Z " /><path fill="rgb(211,68,58)" stroke="rgb(211,68,58)" stroke-width="0.6" opacity="1" d="M 206.5 136 L 212.5 137 L 375.5 137 Q 382.4 141.1 395.5 139 L 404 146.5 L 411 164.5 L 411 174.5 L 415 190.5 Q 413.3 201.7 417 207.5 L 417 222.5 L 420 239.5 L 420 271 Q 416.3 272.4 418 266.5 Q 414 251.5 403.5 243 L 390.5 238 L 388.5 239 L 387.5 238 L 357.5 238 L 338.5 241 L 329 249.5 L 317 272.5 L 308 300.5 L 305.5 304 L 253.5 304 L 252 302.5 L 242 274.5 L 231.5 261 L 224.5 258 L 177.5 258 L 167 265.5 L 161 279.5 L 157.5 283 L 145.5 284 L 143 280.5 Q 146 265 155.5 256 L 165.5 250 L 221.5 249 L 229.5 251 L 240 260.5 L 254.5 289 L 257.5 291 L 302.5 291 L 309 285.5 L 319 261.5 L 320 221.5 L 319 220.5 L 319 196.5 L 317 169.5 L 318 167.5 Q 315.2 162.3 316 153.5 L 312.5 149 L 249.5 149 L 244 153.5 L 238 177.5 L 236 198.5 L 234 201.5 L 234 213.5 L 243 222.5 L 243 255 Q 239.3 256.5 240 253.5 Q 232.9 244.1 216.5 244 L 214.5 245 L 213.5 244 L 180.5 244 L 163.5 246 L 151 253.5 L 148.5 258 L 147 257.5 L 147 245.5 L 146 238.5 L 143.5 235 L 142 236.5 L 142 238.5 L 143 240.5 L 143 268.5 Q 137.6 275.1 139 288.5 L 136.5 291 Q 130.5 292 128.5 289 L 68.5 288 L 60.5 287 L 59 285.5 L 58 279.5 L 59 278.5 L 59 250.5 L 62 239.5 L 68.5 231 L 72.5 230 L 119.5 230 L 146.5 233 L 167.5 228 L 211.5 225 L 217 222.5 L 215.5 221 L 203.5 221 L 179.5 224 L 166.5 224 L 145.5 229 L 135.5 229 L 120.5 226 L 116.5 227 L 115.5 226 L 78.5 226 L 76 227 L 77.5 225 L 85.5 221 L 105.5 217 L 127.5 216 L 137.5 214 L 168.5 214 Q 171.2 216.8 177.5 216 L 180.5 215 L 181.5 216 L 218.5 216 L 224 211.5 L 232 175.5 L 232 165.5 L 234 162.5 L 235 152.5 L 229.5 145 L 227.5 144 L 189.5 144 L 161.5 147 L 152 154.5 L 142 179.5 L 137 196.5 L 136 209.5 L 134.5 211 L 131 209.5 L 146 158.5 L 156.5 144 L 172.5 139 L 185.5 139 L 192.5 137 L 205.5 137 L 206.5 136 Z M 333 153 L 326 159 L 327 207 L 329 214 L 336 219 L 403 219 L 408 212 L 405 180 L 401 163 L 398 158 L 390 153 L 333 153 Z M 72 240 L 68 242 Q 62 246 61 256 Q 60 265 64 270 Q 66 274 75 272 Q 81 268 82 259 Q 83 250 80 245 Q 78 240 72 240 Z M 123 242 L 121 243 Q 114 247 113 258 Q 112 271 121 275 L 130 274 Q 136 270 137 262 Q 138 251 134 246 Q 132 240 123 242 Z M 82 269 L 80 271 L 82 278 L 92 284 L 101 284 L 114 274 L 110 270 L 108 274 L 99 280 L 90 279 L 82 269 Z " /><path fill="rgb(211,68,58)" stroke="rgb(211,68,58)" stroke-width="0.6" opacity="1" d="M 334.5 157 L 389.5 157 L 395 161.5 L 400 176.5 L 403 207.5 L 400.5 215 L 336.5 215 L 335 213.5 L 332 208.5 L 332 190.5 L 330 170.5 L 331 168.5 L 330 162.5 L 334.5 157 Z " /><path fill="rgb(211,68,58)" stroke="rgb(211,68,58)" stroke-width="0.6" opacity="1" d="M 201.5 179 L 208 182.5 L 207.5 185 L 202.5 184 L 194 191.5 L 193 197.5 L 195 203.5 L 191 200.5 Q 189.6 184.6 199.5 180 L 201.5 179 Z " /><path fill="rgb(211,68,58)" stroke="rgb(211,68,58)" stroke-width="0.6" opacity="1" d="M 249.5 196 Q 259.3 194.3 262 199.5 L 263 211.5 L 259.5 218 L 249.5 219 L 239 214.5 L 238 204.5 L 242.5 199 L 249.5 196 Z " /><path fill="rgb(211,68,58)" stroke="rgb(211,68,58)" stroke-width="0.6" opacity="1" d="M 125.5 246 L 131 249.5 L 132 262.5 L 126.5 271 Q 120.7 271.8 119 268.5 L 118 254.5 L 123 247 L 125.5 246 Z " /><path fill="rgb(211,68,58)" stroke="rgb(211,68,58)" stroke-width="0.6" opacity="1" d="M 370.5 257 L 372.5 258 L 392.5 258 L 401 265.5 L 405 275 L 386.5 267 L 359.5 267 L 342 273 L 351.5 260 L 355.5 258 L 369.5 258 L 370.5 257 Z " /><path fill="rgb(211,68,58)" stroke="rgb(211,68,58)" stroke-width="0.6" opacity="1" d="M 53.5 320 L 79.5 321 L 81 322.5 Q 82.3 335.3 90.5 341 Q 95.4 344.6 104.5 344 Q 113.1 342.1 118 336.5 L 124.5 325 L 134.5 324 L 137 327.5 Q 133.9 345.9 121.5 355 L 107.5 362 L 84.5 362 L 80 359.5 L 85 355.5 L 83.5 352 Q 79.4 355.9 70.5 355 L 59 346.5 L 56 340.5 L 58.5 340 L 68.5 340 L 70 338.5 L 68.5 335 L 59.5 336 L 53 331.5 L 52 321.5 L 53.5 320 Z " /><path fill="rgb(211,68,58)" stroke="rgb(211,68,58)" stroke-width="0.6" opacity="1" d="M 201.5 321 L 207 323.5 Q 208.7 330.3 205.5 332 Q 199.3 333.3 198 329.5 Q 197.6 323.1 201.5 321 Z " /><path fill="rgb(211,68,58)" stroke="rgb(211,68,58)" stroke-width="0.6" opacity="1" d="M 305.5 326 Q 312.3 324.3 314 327.5 L 314 333.5 Q 310.1 344.1 302.5 351 L 288.5 358 L 271.5 358 Q 256.1 356.4 250 345.5 L 247 336.5 L 249 328 Q 256.8 326 259 330.5 L 263 339 L 274.5 345 L 283.5 345 Q 291.8 343.3 296 337.5 L 303.5 327 L 305.5 326 Z " /><path fill="rgb(0,0,0)" stroke="rgb(0,0,0)" stroke-width="0.6" opacity="1" d="M 215.5 131 L 303.5 131 L 304.5 132 L 383.5 133 Q 387.5 136.5 396.5 135 L 409 145.5 L 413 154.5 L 414 164.5 L 415.5 166 Q 425.8 161.8 442.5 164 L 455.5 169 L 464 177.5 Q 470.4 186.6 473 199.5 L 475 226.5 L 470 251.5 Q 465.8 262.8 457.5 270 L 439 277.5 L 441.5 283 L 446 286.5 L 446 304.5 L 440.5 312 Q 435.1 315.1 425.5 314 L 424 315.5 L 424 333.5 L 421 344.5 L 406.5 366 Q 392.4 381.9 359.5 379 Q 340.4 375.6 330 363.5 Q 320.8 353.8 316.5 339 Q 313.9 338.2 315 341.5 L 305.5 354 Q 295.2 364.7 272.5 363 Q 256.1 360.4 248 349.5 L 246.5 347 Q 242.8 345.8 244 349.5 Q 239 361.5 229.5 369 L 211.5 379 L 183.5 381 Q 163.9 377.1 153 364.5 L 143 347.5 L 142 336.5 L 140.5 335 Q 137.9 334.2 139 337.5 Q 134.4 350.4 124.5 358 L 109.5 366 L 92.5 368 Q 89 364 79.5 366 L 69.5 361 L 54 346.5 L 49 335.5 L 48 323.5 L 45.5 317 Q 38.8 317.8 38 312.5 L 37 293.5 L 41.5 287 L 44 285.5 L 43 283.5 L 43 259.5 L 46 249.5 L 52.5 243 L 58 241.5 Q 58.1 231.1 64.5 227 Q 72.6 219.1 85.5 216 L 107.5 212 L 124.5 212 L 127 209.5 Q 131.7 181.2 141 157.5 Q 144.9 147.4 152.5 141 Q 161 135.5 173.5 134 L 192.5 134 L 195.5 132 L 214.5 132 L 215.5 131 Z M 206 136 L 168 139 L 156 144 L 145 159 L 130 211 L 135 212 L 137 210 L 138 197 L 145 173 L 153 155 Q 157 149 165 147 L 174 147 L 177 145 L 190 145 L 191 144 L 226 144 L 234 151 Q 235 162 231 168 L 231 177 L 223 212 L 218 216 L 214 215 L 171 215 L 170 214 L 137 214 L 121 216 L 107 216 L 86 220 L 77 224 Q 72 226 76 228 L 81 226 L 85 227 L 127 227 L 137 230 L 144 230 L 165 225 L 190 224 L 193 222 L 214 222 L 214 224 L 169 227 L 147 232 L 121 230 L 69 230 Q 60 235 59 248 L 58 286 L 60 287 L 68 288 L 130 290 Q 131 294 138 292 L 140 288 L 139 284 L 143 271 L 143 240 L 142 239 L 144 237 L 147 248 L 146 257 Q 144 262 148 261 L 151 256 L 164 247 L 187 244 L 190 245 L 222 245 L 237 251 L 239 255 L 243 257 L 243 222 L 234 213 L 234 204 L 237 197 L 238 183 L 245 154 L 252 149 L 310 149 L 313 150 L 316 156 L 317 194 L 319 198 L 319 222 L 320 223 L 320 253 Q 317 255 318 263 L 309 285 Q 306 290 299 291 L 260 291 L 254 287 L 247 271 L 241 261 L 230 250 L 220 248 L 168 249 L 156 255 Q 145 265 142 282 L 145 284 L 158 284 L 162 280 L 169 265 L 182 258 L 223 258 L 232 262 L 241 275 L 253 305 L 307 304 Q 315 275 329 251 Q 334 242 345 240 L 367 238 L 393 239 L 403 243 Q 414 252 418 270 Q 416 275 420 274 L 420 239 L 418 224 L 418 208 L 416 205 L 415 187 L 411 171 L 411 163 L 403 144 L 394 138 L 378 138 L 377 137 L 206 136 Z M 186 148 L 185 149 L 169 149 L 160 152 L 152 162 L 148 173 L 140 202 L 140 209 L 146 211 Q 181 209 210 213 L 219 212 L 221 210 L 223 203 L 231 160 L 231 152 L 228 148 L 186 148 Z M 249 153 L 245 161 L 240 187 Q 238 194 242 196 L 245 195 L 248 190 L 250 171 L 253 164 Q 256 159 263 159 L 297 159 L 302 161 Q 306 164 307 172 L 308 215 L 303 219 L 263 219 L 259 222 L 248 222 L 246 224 L 247 229 L 247 262 L 246 263 L 255 286 L 260 288 L 303 287 L 308 282 L 316 260 L 316 211 L 315 210 L 313 155 L 312 153 L 249 153 Z M 258 163 L 252 174 L 250 191 L 252 192 L 261 193 Q 266 196 267 204 L 266 213 L 268 216 L 269 215 L 304 215 L 305 214 Q 307 187 303 167 L 300 163 L 258 163 Z M 424 168 L 423 169 L 421 171 L 426 172 L 435 183 L 438 182 L 456 182 L 457 183 L 462 182 L 459 177 L 449 169 L 424 168 Z M 419 172 L 417 174 L 420 208 L 422 211 L 424 232 L 424 268 L 429 268 Q 435 260 438 249 L 440 230 L 440 215 L 438 198 L 428 178 Q 425 173 419 172 Z M 439 185 L 437 187 L 443 205 L 446 204 Q 457 203 464 206 L 469 205 L 466 190 L 460 185 L 439 185 Z M 251 195 L 243 198 Q 236 201 237 213 Q 240 219 250 220 L 260 219 L 263 216 L 264 211 L 263 200 Q 261 193 251 195 Z M 448 207 L 445 208 L 443 210 L 443 231 L 445 232 L 469 232 L 470 231 L 470 210 L 469 208 L 448 207 Z M 444 234 L 439 250 L 441 255 L 462 255 L 464 254 Q 470 249 469 237 L 468 235 L 444 234 Z M 354 242 L 345 243 L 338 246 Q 328 254 323 268 L 310 303 Q 312 306 321 304 L 326 299 L 343 263 L 353 255 L 364 253 L 389 253 L 399 256 Q 407 264 409 278 L 414 282 L 418 281 Q 415 264 407 252 L 397 243 L 354 242 Z M 54 247 L 48 255 L 47 266 L 48 285 L 53 286 L 54 285 Q 52 263 56 249 L 54 247 Z M 366 257 L 354 258 L 349 261 L 341 273 L 343 275 L 364 267 L 388 268 L 406 277 L 406 274 L 401 264 L 392 257 L 366 257 Z M 438 257 L 433 266 L 439 272 Q 448 273 454 269 L 461 260 L 460 258 L 438 257 Z M 181 262 L 175 264 L 166 276 L 168 278 Q 177 272 191 270 Q 218 269 232 283 L 244 302 L 248 322 L 250 323 L 315 322 L 317 320 L 318 314 L 317 308 L 257 308 L 251 309 L 242 284 L 233 269 Q 231 263 224 262 L 181 262 Z M 370 270 L 356 274 Q 352 273 353 276 Q 361 274 365 279 L 366 282 L 361 279 L 347 277 L 337 284 L 331 293 L 333 297 L 340 294 Q 347 293 349 298 L 347 298 L 337 298 L 326 304 L 322 308 L 320 317 Q 317 343 329 355 Q 328 357 332 356 L 333 354 Q 338 348 348 346 L 348 348 L 335 356 L 332 361 Q 338 369 350 372 Q 361 371 366 364 L 367 365 L 360 371 L 358 375 Q 376 377 388 373 L 391 369 Q 389 361 394 363 L 396 369 L 403 365 L 413 352 L 410 347 L 411 344 L 415 347 Q 422 339 420 323 L 418 322 Q 414 323 415 321 L 420 317 Q 420 300 413 292 L 411 295 L 408 296 L 410 290 L 409 287 Q 404 278 394 274 L 389 276 L 391 279 Q 392 282 390 281 L 387 277 Q 383 269 370 270 Z M 426 271 L 424 273 Q 422 279 426 281 Q 434 283 436 280 L 435 273 Q 433 269 426 271 Z M 184 275 L 183 276 L 181 278 L 192 281 L 194 286 L 186 281 L 178 281 L 178 278 L 168 282 L 153 299 L 162 296 Q 171 295 175 298 L 176 301 L 169 299 L 156 301 L 153 300 L 147 309 L 144 322 L 145 341 Q 147 350 153 356 L 160 351 L 169 349 L 173 351 Q 168 354 160 354 L 154 359 L 155 362 Q 161 369 172 373 Q 184 373 190 365 L 191 368 L 183 374 Q 178 373 179 376 L 185 377 Q 202 379 214 375 L 218 365 L 221 371 L 228 367 L 236 357 L 234 352 L 235 349 L 238 351 L 243 342 L 244 330 L 239 327 L 244 323 Q 244 309 239 301 L 236 303 L 233 302 L 236 297 L 232 290 L 221 280 L 217 282 L 218 284 L 217 287 L 213 279 L 208 275 L 184 275 Z M 416 285 L 414 287 L 419 296 L 424 310 L 439 309 L 443 302 L 442 288 L 440 285 L 416 285 Z M 144 287 L 141 292 L 144 293 L 149 299 L 154 292 L 154 288 L 144 287 Z M 45 290 L 42 293 L 42 312 L 46 314 Q 54 313 58 316 L 79 316 L 131 320 L 140 319 L 142 316 L 143 307 L 142 297 L 141 295 Q 130 296 125 293 L 85 293 L 84 292 L 67 292 L 63 290 L 45 290 Z M 53 319 L 51 321 L 52 333 Q 56 338 68 336 Q 71 338 67 340 Q 60 341 58 338 L 55 340 L 59 348 L 71 356 L 80 355 L 83 353 L 84 356 L 81 358 Q 74 356 75 360 L 87 363 L 106 363 L 123 355 Q 136 346 137 326 L 136 324 L 124 324 L 118 336 Q 114 341 106 343 Q 94 344 90 339 Q 82 334 82 323 L 80 320 L 53 319 Z M 86 321 L 84 323 Q 84 331 89 336 L 101 341 L 111 339 Q 118 335 119 325 L 116 322 L 86 321 Z M 303 326 L 295 338 Q 290 343 282 345 L 278 345 L 268 341 Q 261 338 260 331 Q 258 326 250 328 L 247 336 L 247 342 L 252 350 L 267 358 L 291 358 L 303 352 Q 313 344 315 328 L 314 326 L 303 326 Z M 265 327 L 263 329 L 265 336 L 276 342 Q 284 343 289 340 L 295 333 L 296 329 L 295 327 L 265 327 Z " /><path fill="rgb(0,0,0)" stroke="rgb(0,0,0)" stroke-width="0.6" opacity="1" d="M 333.5 153 L 387.5 153 Q 395.1 154.8 399 160.5 L 404 178.5 L 407 211.5 L 402.5 218 L 400.5 219 L 336.5 219 L 330 213.5 L 328 207.5 L 326 160.5 L 331.5 154 L 333.5 153 Z M 333 157 L 329 163 L 331 208 L 336 215 L 403 215 L 404 214 L 401 179 L 396 162 L 391 157 L 333 157 Z " /><path fill="rgb(0,0,0)" stroke="rgb(0,0,0)" stroke-width="0.6" opacity="1" d="M 167.5 161 Q 174.8 159.8 176 164.5 L 172.5 166 L 167.5 165 L 163 167 L 164.5 163 L 167.5 161 Z " /><path fill="rgb(0,0,0)" stroke="rgb(0,0,0)" stroke-width="0.6" opacity="1" d="M 204.5 161 Q 211.4 160.1 213 164.5 Q 214.5 168.9 211.5 168 L 203.5 165 L 201 166 L 204.5 161 Z " /><path fill="rgb(0,0,0)" stroke="rgb(0,0,0)" stroke-width="0.6" opacity="1" d="M 165.5 176 Q 173.1 174.9 175 179.5 Q 178.3 183.2 177 191.5 Q 175.5 200 169.5 204 L 159.5 205 Q 154 203.4 155 197 Q 158.3 195.7 157 200.5 L 160.5 202 L 160 200.5 Q 158.4 190.4 163.5 187 L 171.5 184 L 174 185 Q 174.8 180.3 170.5 179 L 166.5 178 L 159 183.5 L 155.5 192 L 155 186.5 L 160.5 179 L 165.5 176 Z " /><path fill="rgb(0,0,0)" stroke="rgb(0,0,0)" stroke-width="0.6" opacity="1" d="M 199.5 177 Q 208.8 175.7 211 181.5 L 213 191.5 Q 211.5 200.5 205.5 205 L 197.5 208 L 195 207 L 197 203.5 Q 192.9 201.6 194 194.5 L 198.5 188 Q 200.1 184.1 206.5 185 L 210 187 Q 209.9 181.4 205.5 179 L 199.5 179 L 192 186.5 Q 188.9 192.5 189.5 202 L 188 200.5 L 188 190.5 L 195.5 179 L 199.5 177 Z M 204 188 L 202 194 L 207 195 L 208 190 L 204 188 Z " /><path fill="rgb(0,0,0)" stroke="rgb(0,0,0)" stroke-width="0.6" opacity="1" d="M 293.5 229 L 306.5 229 L 310 232.5 Q 311.3 238.8 307.5 240 L 295.5 241 L 290 236.5 Q 289 230 293.5 229 Z M 296 232 L 293 236 L 295 237 L 306 237 L 307 234 L 306 232 L 296 232 Z " /><path fill="rgb(0,0,0)" stroke="rgb(0,0,0)" stroke-width="0.6" opacity="1" d="M 70.5 241 Q 77.4 240.1 79 244.5 Q 82.6 249.9 81 260.5 L 74.5 271 L 68.5 272 Q 60.5 267.5 62 253.5 L 67.5 243 L 70.5 241 Z M 72 244 Q 66 248 65 257 L 66 266 Q 67 270 74 269 Q 79 265 79 257 L 78 249 L 72 244 Z " /><path fill="rgb(0,0,0)" stroke="rgb(0,0,0)" stroke-width="0.6" opacity="1" d="M 123.5 242 Q 131.1 240.9 133 245.5 Q 137.8 250.7 136 262.5 L 129.5 273 L 120.5 274 Q 112.5 269.5 114 255.5 Q 115.5 247.9 120.5 244 L 123.5 242 Z M 125 245 L 117 255 Q 116 264 119 270 L 127 272 Q 132 269 133 262 L 132 250 Q 130 245 125 245 Z " /><path fill="rgb(0,0,0)" stroke="rgb(0,0,0)" stroke-width="0.6" opacity="1" d="M 81 271 Q 84 269.8 83 273.5 Q 86.2 281.8 98.5 281 L 109 273.5 L 110.5 271 L 112 275 L 100.5 283 L 91.5 283 L 83 277.5 L 81 271 Z " /><path fill="rgb(0,0,0)" stroke="rgb(0,0,0)" stroke-width="0.6" opacity="1" d="M 376.5 297 Q 389.5 296.5 395 303.5 L 401 316.5 L 401 326.5 Q 398.4 339.9 388.5 346 Q 383.8 349.3 374.5 348 L 363 339.5 L 359 332.5 L 358 318.5 Q 360.4 305.9 369.5 300 L 376.5 297 Z M 375 301 L 370 304 L 362 316 Q 359 332 366 340 Q 370 345 379 345 Q 387 346 390 342 Q 396 337 398 328 Q 399 317 396 311 L 386 301 L 375 301 Z " /><path fill="rgb(0,0,0)" stroke="rgb(0,0,0)" stroke-width="0.6" opacity="1" d="M 199.5 302 L 209.5 302 L 219 309.5 Q 225.4 316.1 224 330.5 Q 222.1 344.6 211.5 350 Q 207.1 353.1 198.5 352 L 187 343.5 L 183 335.5 L 182 326.5 L 186 313.5 L 192.5 306 L 199.5 302 Z M 202 305 L 196 307 Q 187 313 185 326 L 186 337 L 188 341 L 200 349 L 211 348 Q 220 343 221 330 Q 222 318 218 313 L 209 305 L 202 305 Z " /><path fill="rgb(0,0,0)" stroke="rgb(0,0,0)" stroke-width="0.6" opacity="1" d="M 377.5 313 Q 384.4 312.1 386 316.5 L 387 324.5 L 380.5 332 L 376.5 332 L 371 326.5 L 371 320.5 L 377.5 313 Z M 377 316 Q 373 319 374 326 Q 375 330 382 329 Q 385 327 384 320 Q 383 315 377 316 Z " /><path fill="rgb(0,0,0)" stroke="rgb(0,0,0)" stroke-width="0.6" opacity="1" d="M 201.5 317 Q 207.7 316.3 209 320.5 L 210 329.5 L 204.5 336 L 201.5 336 L 196 331.5 L 198 330 L 199.5 333 Q 206.5 334.5 208 330.5 Q 209.3 323.3 205.5 321 L 202.5 320 L 199 322.5 L 198 326 Q 194.7 327.3 196 322.5 L 201.5 317 Z " /><path fill="rgb(0,0,0)" stroke="rgb(0,0,0)" stroke-width="0.6" opacity="1" d="M 336.5 320 Q 341.8 318.8 343 321.5 L 341.5 324 L 333.5 324 L 323.5 332 L 322 330.5 L 328.5 324 L 336.5 320 Z " /><path fill="rgb(0,0,0)" stroke="rgb(0,0,0)" stroke-width="0.6" opacity="1" d="M 156.5 322 L 167.5 322 L 169 323.5 L 167.5 326 L 155.5 326 L 147.5 331 L 147 328.5 L 148.5 326 L 156.5 322 Z " /><path fill="rgb(55,113,181)" stroke="rgb(55,113,181)" stroke-width="0.6" opacity="1" d="M 186.5 148 L 226.5 148 L 230 151.5 L 231 156.5 L 223 199.5 L 221 207.5 L 217.5 212 L 210.5 213 L 184.5 210 L 173.5 211 L 172.5 210 L 141.5 210 L 140 208.5 L 141 199.5 L 150 168.5 Q 152.9 158.9 159.5 153 L 166.5 150 Q 178.7 151.2 186.5 148 Z M 207 160 L 199 165 L 201 167 L 203 166 Q 211 166 214 170 L 213 164 L 207 160 Z M 167 161 L 161 168 L 169 165 L 171 166 Q 177 168 176 164 Q 174 159 167 161 Z M 165 176 L 160 179 L 154 189 L 155 202 L 161 206 Q 168 207 171 204 Q 176 201 177 194 Q 179 183 175 179 Q 172 175 165 176 Z M 201 176 L 195 179 Q 188 183 187 194 L 188 202 L 197 208 Q 203 209 206 206 L 213 195 Q 215 185 211 181 Q 209 175 201 176 Z " /><path fill="rgb(55,113,181)" stroke="rgb(55,113,181)" stroke-width="0.6" opacity="1" d="M 164.5 179 Q 170.7 178.3 173 181.5 L 171.5 184 L 168.5 183 L 162 187 Q 158.2 190.8 160 201 Q 157 202.3 158 198.5 L 157 189.5 Q 158.8 182.3 164.5 179 Z " /><path fill="rgb(55,113,181)" stroke="rgb(55,113,181)" stroke-width="0.6" opacity="1" d="M 438.5 258 L 459.5 258 L 460 260.5 L 452.5 269 L 438.5 272 L 434 264.5 L 438.5 258 Z " /><path fill="rgb(55,113,181)" stroke="rgb(55,113,181)" stroke-width="0.6" opacity="1" d="M 182.5 262 L 220.5 262 Q 230.3 263.2 234 270.5 L 243 287.5 L 249.5 309 L 306.5 308 L 310.5 309 L 317 308 L 316 319.5 L 313.5 322 L 258.5 323 L 254.5 322 L 250.5 323 L 248 320.5 Q 247.6 305.4 242 295.5 L 226.5 278 Q 213.2 267.8 187.5 270 L 167 276 Q 168.4 268.7 174.5 265 L 182.5 262 Z " /><path fill="rgb(55,113,181)" stroke="rgb(55,113,181)" stroke-width="0.6" opacity="1" d="M 368.5 271 Q 383.1 268.9 387 277.5 L 389.5 282 L 392 280.5 L 390 274 Q 402.4 276.6 409 286.5 L 407 296.5 Q 409 300 411 295.5 L 412.5 293 L 416 297.5 L 420 315.5 L 419 318 L 414 320.5 Q 412.8 324.3 416.5 323 L 418.5 322 L 420 325.5 L 419 336.5 L 414.5 345 L 409 344 L 412 352.5 L 401.5 365 L 396.5 368 L 394 362 Q 389.5 360.3 391 365.5 L 387.5 372 L 375.5 375 L 362.5 375 L 360 374 L 361.5 370 L 367 367 L 368 363 L 351.5 372 Q 339.5 369 333 360.5 L 335 356 L 349 349 L 347.5 345 L 338.5 348 L 331.5 355 L 329 355 Q 322.2 347.1 321 332.5 L 323.5 332 L 332.5 325 L 342.5 324 L 344 322.5 L 342.5 320 L 339.5 319 L 334.5 320 L 321 328 L 320 319.5 L 323 307.5 L 327.5 303 L 337.5 298 L 345.5 298 L 348.5 300 L 350 296.5 Q 346.8 292.8 338.5 294 L 331 296 L 336 285 L 348.5 278 L 358.5 279 L 367 283 L 361.5 276 Q 358.2 277.1 359 274.5 L 368.5 271 Z M 376 297 L 365 302 Q 360 307 358 317 L 359 334 L 363 341 L 374 348 Q 384 350 390 346 Q 398 340 401 329 L 401 316 L 397 306 Q 392 296 376 297 Z " /><path fill="rgb(55,113,181)" stroke="rgb(55,113,181)" stroke-width="0.6" opacity="1" d="M 415 285 L 439.5 285 L 441 286.5 L 443 297.5 L 442 303.5 L 438.5 308 L 425.5 310 L 422 306.5 L 420 295.5 L 415 285 Z " /><path fill="rgb(55,113,181)" stroke="rgb(55,113,181)" stroke-width="0.6" opacity="1" d="M 143.5 288 Q 150.8 287.2 154 290.5 L 148.5 298 L 142 289.5 L 143.5 288 Z " /><path fill="rgb(55,113,181)" stroke="rgb(55,113,181)" stroke-width="0.6" opacity="1" d="M 375.5 301 L 384.5 301 L 395 310.5 L 397 314.5 L 397 329.5 L 389.5 341 Q 385.6 346.6 373.5 344 L 366 338.5 Q 360 332.5 362 318.5 Q 363.3 309.3 369.5 305 L 375.5 301 Z M 377 313 L 370 322 L 373 331 L 382 332 Q 389 329 387 317 Q 385 312 377 313 Z " /><path fill="rgb(55,113,181)" stroke="rgb(55,113,181)" stroke-width="0.6" opacity="1" d="M 86.5 322 L 93.5 323 L 99.5 322 L 100.5 323 L 118 323 Q 118.3 333.9 110.5 338 Q 106.5 341 98.5 340 L 88 333.5 Q 84.3 330.7 85 323.5 L 86.5 322 Z " /><path fill="rgb(57,62,66)" stroke="rgb(57,62,66)" stroke-width="0.6" opacity="1" d="M 212.5 136 L 337 136.5 L 212.5 137 L 212.5 136 Z " /><path fill="rgb(57,62,66)" stroke="rgb(57,62,66)" stroke-width="0.6" opacity="1" d="M 249.5 153 L 311.5 153 L 313 154.5 L 315 209.5 L 316 210.5 L 316 258.5 L 309 278.5 L 302.5 287 L 260.5 288 L 255 284.5 L 246 262.5 L 247 261.5 L 247 228.5 L 246 223.5 Q 247.8 220.3 254.5 222 L 256.5 223 L 263.5 219 L 302.5 219 L 308 214.5 L 309 205.5 L 307 197.5 L 307 170.5 L 302.5 161 L 297.5 159 L 261.5 159 L 253 163.5 Q 247.5 173 248 188.5 L 244.5 195 L 241.5 196 Q 238.3 194.3 240 187.5 L 245 161.5 L 249.5 153 Z M 294 229 L 290 233 Q 289 240 295 241 L 309 240 Q 312 238 310 232 L 308 229 L 294 229 Z " /><path fill="rgb(57,62,66)" stroke="rgb(57,62,66)" stroke-width="0.6" opacity="1" d="M 257.5 163 L 299.5 163 L 302 165.5 L 304 175.5 L 303 178.5 L 305 186.5 L 305 213.5 L 303.5 215 L 266 215 L 267 202.5 L 262.5 194 L 250 190.5 L 252 174.5 L 257.5 163 Z " /><path fill="rgb(57,62,66)" stroke="rgb(57,62,66)" stroke-width="0.6" opacity="1" d="M 418.5 172 L 427 176.5 Q 434.5 185.5 438 198.5 L 440 214.5 L 440 229.5 L 438 247.5 L 431 264.5 L 427.5 268 L 424 266.5 L 424 231.5 L 422 210.5 L 420 206.5 L 417 173.5 L 418.5 172 Z " /><path fill="rgb(57,62,66)" stroke="rgb(57,62,66)" stroke-width="0.6" opacity="1" d="M 327.5 192 L 328 206.5 L 327 206.5 L 327.5 192 Z " /><path fill="rgb(57,62,66)" stroke="rgb(57,62,66)" stroke-width="0.6" opacity="1" d="M 403.5 204 L 404 213.5 L 401.5 215 L 402 213.5 L 403.5 204 Z " /><path fill="rgb(57,62,66)" stroke="rgb(57,62,66)" stroke-width="0.6" opacity="1" d="M 447.5 207 L 468.5 208 L 470 209.5 L 470 230.5 L 468.5 232 L 444.5 232 L 443 230.5 L 443 209.5 L 444.5 208 L 447.5 207 Z " /><path fill="rgb(57,62,66)" stroke="rgb(57,62,66)" stroke-width="0.6" opacity="1" d="M 443.5 234 L 467.5 235 L 469 236.5 Q 469.1 248.1 463.5 254 L 440.5 255 L 439 250.5 L 443.5 234 Z " /><path fill="rgb(57,62,66)" stroke="rgb(57,62,66)" stroke-width="0.6" opacity="1" d="M 71.5 244 L 77 247.5 L 78 261.5 L 72.5 269 Q 66.8 269.8 66 265.5 L 65 257.5 Q 65.4 247.9 71.5 244 Z " /><path fill="rgb(57,62,66)" stroke="rgb(57,62,66)" stroke-width="0.6" opacity="1" d="M 179.5 248 L 217 248.5 L 179.5 249 L 179.5 248 Z " /><path fill="rgb(57,62,66)" stroke="rgb(57,62,66)" stroke-width="0.6" opacity="1" d="M 348.5 261 L 349 262.5 L 345 269 L 343 270.5 L 342 270.5 L 348.5 261 Z " /><path fill="rgb(57,62,66)" stroke="rgb(57,62,66)" stroke-width="0.6" opacity="1" d="M 86.5 288 L 98 288.5 L 86.5 289 L 86.5 288 Z " /><path fill="rgb(57,62,66)" stroke="rgb(57,62,66)" stroke-width="0.6" opacity="1" d="M 107.5 289 L 129 289.5 L 107.5 290 L 107.5 289 Z " /><path fill="rgb(57,62,66)" stroke="rgb(57,62,66)" stroke-width="0.6" opacity="1" d="M 248.5 294 L 252 304 L 290 304.5 L 252.5 305 L 248.5 294 Z " /><path fill="rgb(57,62,66)" stroke="rgb(57,62,66)" stroke-width="0.6" opacity="1" d="M 261.5 308 L 274 308.5 L 261.5 309 L 261.5 308 Z " /><path fill="rgb(57,62,66)" stroke="rgb(57,62,66)" stroke-width="0.6" opacity="1" d="M 377.5 316 L 384 320.5 Q 385.3 327.8 380.5 329 Q 374.8 329.8 374 325.5 Q 372.9 317.9 377.5 316 Z " /><path fill="rgb(57,62,66)" stroke="rgb(57,62,66)" stroke-width="0.6" opacity="1" d="M 290.5 322 L 302 322.5 L 290.5 323 L 290.5 322 Z " /><path fill="rgb(57,62,66)" stroke="rgb(57,62,66)" stroke-width="0.6" opacity="1" d="M 123.5 324 L 126 324.5 L 122 327.5 L 120.5 331 L 120 329.5 L 123.5 324 Z " /><path fill="rgb(57,62,66)" stroke="rgb(57,62,66)" stroke-width="0.6" opacity="1" d="M 302.5 326 L 305 326.5 L 301 328 L 297.5 334 L 298 332.5 L 302.5 326 Z " /><path fill="rgb(57,62,66)" stroke="rgb(57,62,66)" stroke-width="0.6" opacity="1" d="M 264.5 327 L 294.5 327 L 296 328.5 L 288.5 340 Q 284.5 343 276.5 342 L 265 334.5 L 263 328.5 L 264.5 327 Z " /><path fill="rgb(57,62,66)" stroke="rgb(57,62,66)" stroke-width="0.6" opacity="1" d="M 218.5 343 L 217 345.5 L 215.5 348 L 212.5 350 L 218.5 343 Z " /><path fill="rgb(246,190,54)" stroke="rgb(246,190,54)" stroke-width="0.6" opacity="1" d="M 426.5 168 L 449.5 170 L 458 176.5 L 460 181.5 L 457.5 183 L 456.5 182 L 434.5 182 L 432 179.5 L 425.5 171 L 424 169 L 426.5 168 Z " /><path fill="rgb(246,190,54)" stroke="rgb(246,190,54)" stroke-width="0.6" opacity="1" d="M 439 186 L 461.5 186 L 465 189.5 L 468 203.5 L 462.5 205 L 461.5 204 L 443.5 204 L 442 202.5 L 439 186 Z " /><path fill="rgb(246,190,54)" stroke="rgb(246,190,54)" stroke-width="0.6" opacity="1" d="M 296.5 232 Q 304.8 229.8 307 233.5 L 304.5 237 Q 296.3 239.3 294 235.5 L 296.5 232 Z " /><path fill="rgb(246,190,54)" stroke="rgb(246,190,54)" stroke-width="0.6" opacity="1" d="M 354.5 242 L 386.5 242 Q 388.5 246 396.5 244 L 406 251.5 Q 413.7 263.3 417 279.5 L 413.5 281 L 410 277.5 L 406 264.5 L 398.5 255 L 391.5 253 L 358.5 253 Q 347.5 255 342 262.5 L 325 298.5 L 319.5 304 Q 312.8 305.7 311 302.5 L 323 269.5 Q 328.1 256.1 337.5 247 Q 342.3 242.8 352.5 244 L 354.5 242 Z " /><path fill="rgb(246,190,54)" stroke="rgb(246,190,54)" stroke-width="0.6" opacity="1" d="M 53.5 248 L 55 252.5 L 54 253.5 L 54 284.5 L 52.5 286 L 48 283.5 L 47 266.5 Q 51 263 49 253.5 L 53.5 248 Z " /><path fill="rgb(246,190,54)" stroke="rgb(246,190,54)" stroke-width="0.6" opacity="1" d="M 425.5 271 Q 432.3 269.3 434 272.5 L 435 279.5 Q 433 283 425.5 281 Q 422.3 279.3 424 272.5 L 425.5 271 Z " /><path fill="rgb(246,190,54)" stroke="rgb(246,190,54)" stroke-width="0.6" opacity="1" d="M 186.5 275 L 204.5 275 L 214 281.5 Q 212.8 286.8 215.5 288 L 219 286.5 L 218 282.5 L 220.5 281 L 231 289.5 L 235 294.5 L 235 297.5 L 232 302.5 L 235.5 304 L 239 303 Q 243.5 310.4 243 323 L 238 325.5 L 240.5 329 L 243 330.5 L 242 342.5 L 239 349 L 233.5 348 L 232 350.5 L 235 356.5 L 224.5 368 L 220 369 L 217.5 364 L 212.5 374 L 199.5 377 L 189.5 377 L 183 376 L 184.5 374 L 191 368.5 L 192 365 L 188.5 365 L 185.5 368 L 175.5 372 L 171.5 372 L 156 361.5 L 155 359.5 L 159.5 355 L 172.5 353 L 174 351.5 L 172.5 348 L 159.5 350 L 153.5 355 L 148 347.5 L 145 331 Q 153.4 332 156.5 326 L 168.5 326 L 170 324.5 L 168.5 322 L 157.5 321 L 145 327 L 148 308.5 L 152.5 302 Q 159.5 299 170.5 300 L 176.5 302 L 178 299.5 Q 173.7 293.8 162.5 295 L 156 297 L 167.5 283 L 176.5 280 Q 178.3 283.7 185.5 282 L 193.5 288 L 195 283.5 Q 191.9 276.9 183 278 Q 181.8 275 185.5 276 L 186.5 275 Z M 199 302 L 191 306 Q 184 312 182 324 Q 180 340 188 347 L 201 353 Q 209 354 214 350 Q 223 344 225 330 L 224 317 L 220 310 L 211 302 L 199 302 Z " /><path fill="rgb(246,190,54)" stroke="rgb(246,190,54)" stroke-width="0.6" opacity="1" d="M 45.5 290 L 65.5 292 L 82.5 292 L 88.5 294 L 128.5 294 L 139.5 295 L 142 297.5 L 142 314.5 L 138.5 319 L 112.5 319 Q 98.8 315.7 80.5 317 L 76.5 315 L 55.5 315 Q 53.5 311 45.5 313 L 42 309.5 L 42 293.5 L 45.5 290 Z " /><path fill="rgb(246,190,54)" stroke="rgb(246,190,54)" stroke-width="0.6" opacity="1" d="M 200.5 306 Q 213.7 304.3 217 312.5 L 220 319.5 L 221 328.5 L 217 340.5 L 210.5 347 L 199.5 348 L 189 340.5 Q 184.9 335.1 186 324.5 Q 187.7 313.2 195.5 308 L 200.5 306 Z M 201 317 Q 193 319 195 332 L 202 337 L 205 337 L 211 330 Q 212 323 209 320 Q 207 316 201 317 Z " /><path fill="rgb(32,32,32)" stroke="rgb(32,32,32)" stroke-width="0.6" opacity="1" d="M 456.5 169 L 462.5 176 L 456.5 169 Z " /><path fill="rgb(32,32,32)" stroke="rgb(32,32,32)" stroke-width="0.6" opacity="1" d="M 51.5 243 L 46.5 249 L 51.5 243 Z " /><path fill="rgb(32,32,32)" stroke="rgb(32,32,32)" stroke-width="0.6" opacity="1" d="M 327.5 324 L 322.5 330 L 327.5 324 Z " /><path fill="rgb(136,67,57)" stroke="rgb(136,67,57)" stroke-width="0.6" opacity="1" d="M 198.5 180 L 193.5 186 L 198.5 180 Z " /><path fill="rgb(136,67,57)" stroke="rgb(136,67,57)" stroke-width="0.6" opacity="1" d="M 234.5 213 L 242.5 222 L 234.5 213 Z " /><path fill="rgb(54,109,144)" stroke="rgb(54,109,144)" stroke-width="0.6" opacity="1" d="M 279.5 308 L 293 308.5 L 279.5 309 L 279.5 308 Z " /><path fill="rgb(54,109,144)" stroke="rgb(54,109,144)" stroke-width="0.6" opacity="1" d="M 272.5 322 L 284 322.5 L 272.5 323 L 272.5 322 Z " /><path fill="rgb(54,109,144)" stroke="rgb(54,109,144)" stroke-width="0.6" opacity="1" d="M 326.5 324 L 321.5 330 L 320 326.5 L 321 326.5 L 322.5 328 L 326.5 324 Z " /><path fill="rgb(197,179,53)" stroke="rgb(197,179,53)" stroke-width="0.6" opacity="1" d="M 159.5 291 L 156 295.5 L 157 297.5 L 155 298 Q 154.3 292.5 159.5 291 Z " /><path fill="rgb(197,179,53)" stroke="rgb(197,179,53)" stroke-width="0.6" opacity="1" d="M 88.5 293 L 100 293.5 L 88.5 294 L 88.5 293 Z " /><path fill="rgb(197,179,53)" stroke="rgb(197,179,53)" stroke-width="0.6" opacity="1" d="M 231.5 361 L 226.5 367 L 231.5 361 Z " /><path fill="rgb(76,101,102)" stroke="rgb(76,101,102)" stroke-width="0.6" opacity="1" d="M 204.5 188 L 208 190.5 L 205.5 195 L 202 192.5 L 204.5 188 Z " /><path fill="rgb(212,212,212)" stroke="rgb(212,212,212)" stroke-width="0.6" opacity="1" d="M 457.5 169 L 462.5 175 L 457.5 169 Z " /><path fill="rgb(212,212,212)" stroke="rgb(212,212,212)" stroke-width="0.6" opacity="1" d="M 328.5 362 L 334.5 369 L 328.5 362 Z " /><path fill="rgb(212,212,212)" stroke="rgb(212,212,212)" stroke-width="0.6" opacity="1" d="M 410.5 362 L 404.5 369 L 410.5 362 Z " /></svg>