<svg width="627" height="627" preserveAspectRatio="xMidYMid meet" viewBox="0 0 512 512" version="1.1" xmlns="http://www.w3.org/2000/svg" ><path fill="rgb(255,255,255)" stroke="rgb(255,255,255)" stroke-width="0.6" opacity="1" d="M 0 0 L 512 0 L 512 512 L 0 512 L 0 0 Z M 314 131 L 313 132 L 251 132 L 234 136 Q 228 138 228 147 L 227 148 L 193 149 L 175 155 Q 168 158 167 167 L 170 177 L 173 178 L 175 181 L 179 232 L 183 249 L 183 253 L 178 259 Q 177 268 180 274 L 190 280 L 174 288 L 167 299 L 93 296 L 84 290 L 71 291 L 59 299 Q 50 306 47 320 L 47 335 L 48 336 L 47 343 L 34 361 L 37 364 L 46 364 L 80 351 L 72 365 L 74 369 Q 84 370 90 367 L 119 354 L 112 368 L 114 373 L 122 373 L 154 360 L 149 372 L 151 376 Q 161 377 167 374 L 188 363 L 193 362 L 186 376 L 189 380 L 197 380 L 204 378 L 228 366 L 233 365 L 232 369 L 235 376 L 256 374 L 280 366 L 284 362 L 287 355 L 295 359 L 305 361 L 327 360 L 335 355 Q 347 345 350 326 L 352 324 L 375 324 Q 374 333 379 338 L 389 346 L 400 349 Q 414 350 422 344 Q 429 339 431 329 Q 433 311 428 302 L 420 293 L 400 287 L 402 282 L 406 280 L 407 278 L 410 275 Q 422 277 430 273 L 436 266 L 437 260 L 437 222 L 434 210 Q 427 198 405 201 L 403 200 L 403 189 L 409 185 L 450 171 Q 453 173 453 179 L 459 183 Q 468 184 474 181 L 477 177 L 476 162 L 469 150 L 462 144 L 454 144 L 448 148 L 434 151 L 403 163 Q 395 163 393 158 L 376 158 L 374 157 Q 376 145 372 139 L 366 133 L 356 131 L 314 131 Z " /><path fill="rgb(75,143,69)" stroke="rgb(75,143,69)" stroke-width="0.6" opacity="1" d="M 445.5 153 L 449 154.5 L 449 165.5 L 447.5 167 L 361.5 197 L 342.5 206 L 333.5 208 L 331 207 L 329 200.5 L 333 192 L 445.5 153 Z " /><path fill="rgb(75,143,69)" stroke="rgb(75,143,69)" stroke-width="0.6" opacity="1" d="M 184 164 L 189 164 L 189 165.5 Q 191.8 167.3 187.5 169 L 183 167.5 L 184 164 Z " /><path fill="rgb(75,143,69)" stroke="rgb(75,143,69)" stroke-width="0.6" opacity="1" d="M 464.5 173 L 472 174 L 470.5 176 L 462.5 179 L 460 177.5 L 461 175 L 464.5 173 Z " /><path fill="rgb(75,143,69)" stroke="rgb(75,143,69)" stroke-width="0.6" opacity="1" d="M 249.5 185 L 258.5 186 L 265.5 185 L 268 187.5 L 268 228.5 L 269 230.5 L 267 234.5 L 267 250.5 L 265.5 252 L 252.5 254 L 250 253 L 248 234.5 L 249 232.5 L 247 213.5 L 248 211.5 L 245 189.5 L 249.5 185 Z " /><path fill="rgb(75,143,69)" stroke="rgb(75,143,69)" stroke-width="0.6" opacity="1" d="M 404 205 L 423.5 207 L 429 212.5 L 431 222 L 406.5 224 L 405 222.5 L 404 205 Z " /><path fill="rgb(75,143,69)" stroke="rgb(75,143,69)" stroke-width="0.6" opacity="1" d="M 421.5 226 Q 429.8 223.8 432 227.5 L 431 263.5 L 426.5 268 L 413.5 271 L 383.5 273 L 381.5 272 L 367.5 274 L 365.5 273 L 350.5 275 L 345.5 274 L 327.5 264 L 309.5 264 L 307 261.5 L 307 237.5 L 306 236.5 L 308.5 234 L 331.5 233 L 333.5 234 Q 344.8 230.3 361.5 232 L 363.5 230 L 373.5 229 L 398.5 228 L 400.5 229 L 421.5 226 Z " /><path fill="rgb(75,143,69)" stroke="rgb(75,143,69)" stroke-width="0.6" opacity="1" d="M 267.5 264 L 285 265 L 284 271.5 L 281.5 274 L 264.5 274 L 262 276.5 L 264.5 280 Q 276.9 281.2 284 279 Q 286.6 285.7 280.5 284 L 279.5 283 L 265.5 283 L 262 285.5 Q 264.7 291.7 276.5 289 L 281.5 287 L 284 289.5 L 284 300 Q 279.4 297.4 268.5 299 L 263 300 L 264.5 303 L 275 303.5 L 274.5 306 Q 266.2 304.7 262.5 308 L 260 305.5 L 260 265 L 267.5 264 Z " /><path fill="rgb(75,143,69)" stroke="rgb(75,143,69)" stroke-width="0.6" opacity="1" d="M 297.5 264 L 300 265.5 L 301 269.5 L 298.5 273 Q 291 275 289 271.5 L 289 265 L 296.5 265 L 297.5 264 Z " /><path fill="rgb(75,143,69)" stroke="rgb(75,143,69)" stroke-width="0.6" opacity="1" d="M 307.5 268 L 327.5 269 L 347.5 280 L 364.5 280 L 397.5 276 L 399 279.5 L 393.5 290 L 388.5 291 L 381 298.5 Q 374.8 305.7 375 318 L 354.5 318 L 352 319 L 352 312.5 L 348 296.5 Q 344.1 284.9 335.5 278 L 321.5 271 L 314.5 272 L 306 271 L 307.5 268 Z " /><path fill="rgb(75,143,69)" stroke="rgb(75,143,69)" stroke-width="0.6" opacity="1" d="M 313.5 276 L 325.5 277 L 336 285.5 L 338 288.5 L 345 302.5 L 346 318.5 L 343 335.5 Q 339.2 345.2 331.5 351 L 321.5 356 L 311.5 356 L 296 346.5 L 288 328.5 L 288 302.5 Q 291.6 289.6 300.5 282 L 313.5 276 Z M 315 296 L 311 298 L 304 306 L 303 310 Q 301 324 306 332 L 316 338 L 324 337 Q 332 331 333 318 Q 333 308 329 303 L 322 296 L 315 296 Z " /><path fill="rgb(75,143,69)" stroke="rgb(75,143,69)" stroke-width="0.6" opacity="1" d="M 396.5 293 L 399 294.5 L 395 297.5 Q 384.8 305.3 385 323.5 L 389 337 L 392 338.5 L 389.5 339 L 385 337 L 380 328.5 L 379 321.5 L 380 319.5 L 379 316.5 L 382 305.5 L 390.5 296 L 396.5 293 Z " /><path fill="rgb(75,143,69)" stroke="rgb(75,143,69)" stroke-width="0.6" opacity="1" d="M 406.5 296 Q 418 295 422 301.5 L 426 310.5 L 427 321.5 L 424 333.5 L 421.5 336 L 419 337.5 L 416.5 341 Q 413.7 344.7 406.5 344 L 395 338 L 393 334.5 Q 387.5 328 390 313.5 Q 391.9 304.9 397.5 300 L 406.5 296 Z M 409 307 L 407 308 L 400 317 L 401 327 L 409 332 L 413 331 L 418 324 L 417 312 L 412 307 L 409 307 Z " /><path fill="rgb(75,143,69)" stroke="rgb(75,143,69)" stroke-width="0.6" opacity="1" d="M 227.5 332 L 238.5 333 L 241 335.5 L 235 356.5 L 232.5 359 L 201.5 373 L 196 370 L 200 358.5 L 217.5 337 L 227.5 332 Z " /><path fill="rgb(0,0,0)" stroke="rgb(0,0,0)" stroke-width="0.6" opacity="1" d="M 315.5 131 L 318.5 132 L 356.5 132 L 366.5 135 L 371 139.5 L 374 146.5 L 374 153.5 L 373 156.5 L 374.5 158 L 390.5 158 L 397.5 164 L 402.5 164 L 433.5 152 L 447.5 149 L 455.5 144 L 459.5 144 L 469 151.5 Q 476.3 159.7 477 174.5 L 473.5 180 L 460.5 183 L 454 178.5 L 450.5 170 L 408.5 184 L 402 188.5 L 403 200.5 L 404.5 202 Q 424.8 198.8 432 208.5 L 437 225.5 L 437 254.5 L 435 264.5 L 428.5 272 L 424.5 274 L 409.5 274 L 406 276.5 L 404.5 279 L 400 282.5 L 399 287.5 Q 401 291 408.5 289 L 418.5 294 L 427 302.5 L 431 312.5 L 431 324.5 Q 428.7 337.7 419.5 344 Q 412.8 349.8 398.5 348 Q 385 345.5 379 335.5 L 374.5 323 L 351.5 323 L 349 325.5 Q 346.3 345.8 332.5 355 Q 324.4 361.9 308.5 361 L 294.5 358 L 286.5 353 L 280.5 364 L 255.5 373 L 235.5 375 L 233 368.5 L 234 364 L 229.5 364 L 205.5 376 L 189.5 380 L 187 375.5 L 195 361.5 L 191.5 360 L 168.5 372 L 157.5 376 L 152.5 376 Q 149.3 375.3 150 370.5 L 156 359.5 L 153.5 359 L 122.5 372 L 113.5 372 L 112 369.5 L 121 354.5 L 117.5 353 L 89.5 366 L 80.5 369 L 75.5 369 L 73 364.5 L 82 351.5 L 77.5 350 L 43.5 364 L 37.5 364 L 35 360.5 L 48 342.5 L 48 333.5 L 47 323.5 Q 49.9 306.4 61.5 298 Q 67.7 289.7 83.5 291 L 90.5 296 L 140.5 298 L 144.5 300 L 166.5 300 L 176.5 287 L 188.5 283 L 191 280.5 L 189.5 277 Q 183.1 276.9 181 272.5 Q 177.3 268.2 179 258.5 Q 185.3 257.2 184 248.5 L 180 232.5 L 176 179.5 L 174.5 178 L 170 174.5 Q 167.2 171.8 168 165.5 L 173.5 157 L 191.5 150 L 226.5 149 L 229 146.5 Q 229.4 138.4 235.5 136 L 246.5 133 L 312.5 133 L 315.5 131 Z M 287 136 L 286 137 L 255 137 L 238 139 L 232 148 L 234 149 L 251 149 Q 254 153 264 151 L 273 155 L 279 162 L 368 159 L 369 158 L 369 143 L 363 137 L 351 136 L 287 136 Z M 457 148 L 453 153 Q 452 166 457 173 L 472 168 L 472 165 L 465 152 L 457 148 Z M 447 152 L 335 190 L 329 198 Q 328 206 333 208 L 342 207 L 356 200 L 442 170 L 450 166 L 449 154 L 447 152 Z M 208 153 L 207 154 L 193 154 L 176 160 Q 170 162 172 172 L 177 175 L 195 175 L 196 174 L 224 174 L 225 175 L 269 174 L 274 173 L 276 171 L 275 163 Q 270 155 259 154 L 208 153 Z M 376 162 L 375 163 L 306 164 L 303 165 L 299 170 L 299 226 L 304 231 L 398 225 L 399 224 L 399 191 L 398 189 L 340 211 L 331 211 L 326 206 L 327 194 L 337 185 L 375 174 L 394 166 L 390 162 L 376 162 Z M 296 165 L 295 166 L 282 166 L 278 175 Q 276 184 280 188 L 280 224 L 293 227 Q 301 236 298 258 L 301 259 Q 303 264 305 261 L 303 256 L 303 238 L 295 223 L 295 173 L 298 167 Q 299 164 296 165 Z M 463 173 L 460 177 L 461 179 L 472 177 L 473 175 Q 471 171 463 173 Z M 273 176 L 272 177 L 238 178 L 236 180 L 237 182 Q 238 185 235 184 L 233 179 L 182 179 L 180 181 L 180 203 L 182 206 L 185 244 L 187 254 L 192 256 L 209 256 L 210 257 L 235 257 L 239 253 L 236 212 L 236 187 L 238 186 L 239 189 L 239 211 L 241 214 L 241 230 L 242 231 L 242 255 L 241 257 Q 238 261 232 261 Q 205 263 185 258 L 182 263 L 183 271 L 190 274 L 238 275 L 239 274 L 240 265 Q 243 260 250 260 L 274 260 L 275 259 L 275 235 L 276 234 L 276 195 L 275 194 L 275 180 L 273 176 Z M 405 205 L 403 207 L 403 223 L 405 224 L 431 223 L 432 222 L 430 213 L 422 206 L 405 205 Z M 431 225 L 402 228 L 365 229 L 362 231 L 349 231 L 335 233 L 309 233 L 306 236 L 307 263 L 309 264 L 329 265 L 347 275 L 412 272 L 428 269 L 432 262 L 433 227 L 431 225 Z M 282 228 L 279 232 L 279 258 L 281 259 L 294 259 L 295 258 L 293 233 Q 291 227 282 228 Z M 276 263 L 275 264 L 261 264 L 259 266 L 260 307 L 262 308 L 268 306 Q 278 305 281 312 L 283 313 Q 282 306 285 302 L 285 268 L 289 266 Q 287 272 291 274 L 300 273 Q 302 271 301 266 L 299 263 L 276 263 Z M 245 265 L 242 268 Q 241 274 245 275 L 255 275 L 256 274 L 256 265 L 245 265 Z M 306 268 L 304 271 L 306 272 L 324 272 L 337 279 L 347 296 L 350 307 L 350 319 L 352 320 L 354 319 L 375 319 Q 378 317 376 310 L 383 297 Q 386 291 394 291 L 399 280 Q 403 278 400 276 L 384 276 L 380 278 L 366 278 L 365 279 L 347 279 L 326 268 L 306 268 Z M 313 276 L 302 281 Q 291 289 287 305 L 287 328 L 295 346 Q 301 353 311 356 L 323 356 L 333 351 Q 343 342 346 326 L 346 305 L 339 288 L 325 276 L 313 276 Z M 299 277 L 291 278 L 289 280 L 289 288 L 292 288 L 294 284 L 297 282 Q 303 280 299 277 Z M 198 278 L 194 284 L 190 287 L 179 290 Q 172 292 172 301 L 174 302 L 217 303 L 246 306 L 256 294 L 256 282 L 255 280 L 245 279 L 199 279 L 198 278 Z M 395 293 L 390 296 Q 381 302 379 315 Q 378 327 382 335 L 392 342 L 394 341 Q 387 336 386 327 Q 384 309 392 302 L 400 295 Q 401 292 395 293 Z M 75 295 L 63 302 Q 55 308 52 319 L 52 335 L 55 335 Q 62 325 76 320 L 78 318 L 78 312 L 81 301 L 84 299 L 85 297 Q 83 293 75 295 Z M 409 295 L 400 298 Q 391 303 389 316 Q 388 328 392 336 L 404 344 L 416 343 L 425 333 L 427 325 Q 429 310 423 303 Q 419 295 409 295 Z M 86 300 L 84 304 L 93 306 L 151 308 L 192 312 L 219 313 L 222 315 L 255 316 L 257 313 L 255 310 L 256 307 Q 258 299 254 300 L 251 306 L 251 308 L 250 310 L 213 308 L 210 306 L 188 306 L 187 305 L 138 303 L 135 301 L 86 300 Z M 85 307 L 82 310 Q 80 315 84 317 L 86 316 Q 88 309 85 307 Z M 91 309 Q 87 311 89 317 L 99 320 L 105 326 L 117 320 Q 129 318 136 323 L 141 329 L 151 323 Q 167 321 174 328 L 177 332 L 190 325 Q 202 323 208 328 L 214 335 L 227 328 Q 238 326 244 331 L 250 322 L 242 319 L 177 315 L 174 313 L 150 313 L 149 312 L 135 312 L 132 310 L 91 309 Z M 271 309 L 264 312 Q 242 329 237 364 Q 235 369 239 371 L 249 371 L 278 362 L 281 358 L 282 352 L 282 325 L 278 313 Q 277 308 271 309 Z M 83 320 L 66 329 L 48 348 L 45 354 L 50 357 L 87 344 L 101 330 L 101 328 Q 97 319 83 320 Z M 119 323 L 102 332 L 82 358 L 88 362 L 124 348 L 135 336 L 137 331 Q 133 322 119 323 Z M 152 327 L 144 331 Q 129 342 121 361 L 124 362 L 127 366 L 160 352 L 172 338 L 172 332 Q 167 324 152 327 Z M 193 328 L 182 332 Q 167 345 158 363 L 164 369 L 173 367 L 199 354 L 210 340 L 209 335 Q 205 327 193 328 Z M 230 331 L 219 336 Q 202 348 195 370 L 200 373 L 212 370 L 234 359 L 236 357 Q 237 344 242 336 Q 239 330 230 331 Z M 286 337 L 286 349 L 297 355 Q 301 356 300 354 L 298 352 Q 291 347 288 339 L 286 337 Z " /><path fill="rgb(0,0,0)" stroke="rgb(0,0,0)" stroke-width="0.6" opacity="1" d="M 185.5 160 L 192 163.5 Q 193.3 170.8 188.5 172 Q 181.3 173.3 180 168.5 Q 179.3 162.3 183.5 161 L 185.5 160 Z M 187 162 L 185 163 L 182 168 Q 183 171 189 170 L 190 165 L 187 162 Z " /><path fill="rgb(0,0,0)" stroke="rgb(0,0,0)" stroke-width="0.6" opacity="1" d="M 207.5 160 L 212 163.5 Q 214 170.4 210 169 Q 211 164.3 207.5 163 L 205 164.5 L 204 169 Q 200.3 170.3 202 164.5 L 207.5 160 Z " /><path fill="rgb(0,0,0)" stroke="rgb(0,0,0)" stroke-width="0.6" opacity="1" d="M 223.5 160 Q 230.8 158.8 232 163.5 Q 233.3 170.8 228.5 172 Q 222.7 172.8 221 169.5 L 221.5 168 Q 222.5 171 227.5 170 L 230 165.5 L 224.5 162 L 220 165 L 223.5 160 Z " /><path fill="rgb(0,0,0)" stroke="rgb(0,0,0)" stroke-width="0.6" opacity="1" d="M 260.5 180 Q 268 180.5 271 185.5 Q 274.7 205.8 273 231.5 L 272 232.5 L 272 247.5 L 265.5 256 L 249.5 257 L 245 251.5 L 244 208.5 L 242 204.5 L 242 186.5 L 248.5 181 L 260.5 180 Z M 262 183 Q 258 187 249 185 L 245 189 L 247 211 L 247 230 L 248 231 L 248 251 L 251 254 L 266 253 L 268 250 L 268 234 L 269 233 L 268 187 L 262 183 Z " /><path fill="rgb(0,0,0)" stroke="rgb(0,0,0)" stroke-width="0.6" opacity="1" d="M 270.5 274 L 280.5 274 L 282 275.5 L 280.5 279 L 263.5 279 L 262 277.5 L 263.5 275 L 270.5 274 Z " /><path fill="rgb(0,0,0)" stroke="rgb(0,0,0)" stroke-width="0.6" opacity="1" d="M 264.5 284 L 280.5 284 L 282 285.5 Q 276.4 289.9 264.5 288 L 263 285.5 L 264.5 284 Z " /><path fill="rgb(0,0,0)" stroke="rgb(0,0,0)" stroke-width="0.6" opacity="1" d="M 315.5 296 Q 326.2 295.8 329 303.5 Q 333.2 307.3 332 316.5 L 331 325.5 L 329 329.5 L 321.5 337 L 313.5 337 L 307 331.5 Q 301.3 325.2 303 311.5 Q 304.9 302.4 311.5 298 L 315.5 296 Z M 316 299 Q 307 303 306 314 Q 305 324 309 330 Q 311 336 323 334 L 329 323 Q 331 309 326 303 Q 324 298 316 299 Z " /><path fill="rgb(0,0,0)" stroke="rgb(0,0,0)" stroke-width="0.6" opacity="1" d="M 270.5 299 L 280.5 299 L 282 300.5 L 280.5 303 L 264.5 303 L 263 301.5 L 270.5 299 Z " /><path fill="rgb(0,0,0)" stroke="rgb(0,0,0)" stroke-width="0.6" opacity="1" d="M 408.5 308 Q 414.9 308.1 417 312.5 L 417 324.5 L 411.5 331 L 407.5 331 L 401 325.5 L 400 317.5 L 406.5 309 L 408.5 308 Z M 410 311 L 408 312 L 404 317 Q 403 325 406 329 L 412 328 L 415 324 L 414 314 L 410 311 Z " /><path fill="rgb(51,55,51)" stroke="rgb(51,55,51)" stroke-width="0.6" opacity="1" d="M 254.5 137 L 267 137.5 L 254.5 138 L 254.5 137 Z " /><path fill="rgb(51,55,51)" stroke="rgb(51,55,51)" stroke-width="0.6" opacity="1" d="M 457.5 148 L 465 151.5 L 472 167.5 L 456.5 173 Q 451.7 166.3 453 153.5 L 457.5 148 Z " /><path fill="rgb(51,55,51)" stroke="rgb(51,55,51)" stroke-width="0.6" opacity="1" d="M 184.5 163 L 190 164.5 L 188.5 164 Q 182.7 161.9 184 166.5 L 183 166.5 L 184.5 163 Z " /><path fill="rgb(51,55,51)" stroke="rgb(51,55,51)" stroke-width="0.6" opacity="1" d="M 223.5 163 L 229 164.5 L 230 167.5 L 224.5 170 Q 221.3 169.3 222 164.5 L 223.5 163 Z " /><path fill="rgb(51,55,51)" stroke="rgb(51,55,51)" stroke-width="0.6" opacity="1" d="M 272.5 176 L 275 179.5 L 275 193.5 L 276 194.5 L 276 233.5 L 275 234.5 L 275 257.5 L 272.5 260 L 248.5 260 L 240 264.5 L 239 273.5 L 237.5 275 L 190.5 274 L 183 270.5 L 182 262.5 L 184.5 258 Q 205.2 262.8 232.5 261 L 241 256.5 L 242 254.5 L 242 230.5 L 241 229.5 L 241 213.5 L 239 207.5 L 239 188.5 Q 235.6 185.7 237 179 L 239.5 178 L 271.5 177 L 272.5 176 Z M 260 180 L 248 181 L 242 187 L 242 206 L 244 211 L 244 233 L 246 254 L 252 258 L 266 256 L 272 249 L 272 234 L 273 233 Q 275 206 271 185 Q 268 180 260 180 Z " /><path fill="rgb(51,55,51)" stroke="rgb(51,55,51)" stroke-width="0.6" opacity="1" d="M 181.5 179 L 231.5 179 L 235 182.5 L 239 251.5 L 235.5 256 L 209.5 257 L 208.5 256 L 191.5 256 L 187 252.5 L 182 205.5 L 180 199.5 L 180 180.5 L 181.5 179 Z " /><path fill="rgb(51,55,51)" stroke="rgb(51,55,51)" stroke-width="0.6" opacity="1" d="M 259.5 184 Q 266.5 182.5 268 186.5 L 265.5 185 L 259.5 185 L 259.5 184 Z " /><path fill="rgb(51,55,51)" stroke="rgb(51,55,51)" stroke-width="0.6" opacity="1" d="M 268.5 197 L 269 228.5 L 268 228.5 L 268.5 197 Z " /><path fill="rgb(51,55,51)" stroke="rgb(51,55,51)" stroke-width="0.6" opacity="1" d="M 403.5 206 L 406 223.5 L 404.5 224 L 403 222.5 L 403.5 206 Z " /><path fill="rgb(51,55,51)" stroke="rgb(51,55,51)" stroke-width="0.6" opacity="1" d="M 348.5 231 L 361 231.5 L 348.5 232 L 348.5 231 Z " /><path fill="rgb(51,55,51)" stroke="rgb(51,55,51)" stroke-width="0.6" opacity="1" d="M 432.5 231 L 433 248.5 L 432 248.5 L 432.5 231 Z " /><path fill="rgb(51,55,51)" stroke="rgb(51,55,51)" stroke-width="0.6" opacity="1" d="M 267.5 234 L 268 249.5 L 267 249.5 L 267.5 234 Z " /><path fill="rgb(51,55,51)" stroke="rgb(51,55,51)" stroke-width="0.6" opacity="1" d="M 275.5 263 L 298.5 263 L 300 264.5 L 298.5 264 L 288.5 266 L 286.5 265 L 284.5 265 Q 277 266 275.5 263 Z " /><path fill="rgb(51,55,51)" stroke="rgb(51,55,51)" stroke-width="0.6" opacity="1" d="M 244.5 265 L 254.5 265 L 256 266.5 Q 257.7 273.3 254.5 275 L 244.5 275 L 243 273.5 L 242 268.5 L 244.5 265 Z " /><path fill="rgb(51,55,51)" stroke="rgb(51,55,51)" stroke-width="0.6" opacity="1" d="M 284.5 268 L 285 301.5 L 284 301.5 L 284 288.5 L 281 284.5 L 284 283.5 L 282 274.5 L 284.5 268 Z " /><path fill="rgb(51,55,51)" stroke="rgb(51,55,51)" stroke-width="0.6" opacity="1" d="M 197.5 278 L 198.5 279 L 244.5 279 L 254.5 280 L 256 281.5 L 256 293.5 L 254.5 295 L 251 297.5 L 245.5 306 L 216.5 303 L 176.5 302 L 172 299.5 Q 172.8 292.4 178.5 290 Q 188.7 289.2 194 283.5 L 197.5 278 Z " /><path fill="rgb(51,55,51)" stroke="rgb(51,55,51)" stroke-width="0.6" opacity="1" d="M 328.5 278 L 336 284.5 L 332.5 282 L 328.5 278 Z " /><path fill="rgb(51,55,51)" stroke="rgb(51,55,51)" stroke-width="0.6" opacity="1" d="M 264.5 279 L 280 279.5 L 264.5 280 L 264.5 279 Z " /><path fill="rgb(51,55,51)" stroke="rgb(51,55,51)" stroke-width="0.6" opacity="1" d="M 347.5 279 L 364 279.5 L 347.5 280 L 347.5 279 Z " /><path fill="rgb(51,55,51)" stroke="rgb(51,55,51)" stroke-width="0.6" opacity="1" d="M 265.5 283 L 280 283.5 L 265.5 284 L 265.5 283 Z " /><path fill="rgb(51,55,51)" stroke="rgb(51,55,51)" stroke-width="0.6" opacity="1" d="M 265.5 288 L 277 288.5 L 265.5 289 L 265.5 288 Z " /><path fill="rgb(51,55,51)" stroke="rgb(51,55,51)" stroke-width="0.6" opacity="1" d="M 315.5 299 Q 325.1 297.9 327 304.5 Q 330.5 311 329 322.5 L 323.5 333 L 314.5 334 L 309 329.5 Q 304.7 324.3 306 313.5 Q 308 303.5 315.5 299 Z " /><path fill="rgb(51,55,51)" stroke="rgb(51,55,51)" stroke-width="0.6" opacity="1" d="M 87.5 300 L 131.5 301 L 137.5 303 L 184.5 305 L 185.5 306 L 206.5 306 L 212.5 308 L 250.5 310 L 254.5 308 L 257 312.5 L 254.5 316 L 223.5 315 L 218.5 313 L 191.5 312 L 150.5 308 L 94.5 306 L 86.5 305 L 85 303.5 Q 83.9 300.2 86.5 301 L 87.5 300 Z " /><path fill="rgb(51,55,51)" stroke="rgb(51,55,51)" stroke-width="0.6" opacity="1" d="M 287.5 307 L 288 324.5 L 287 324.5 L 287.5 307 Z " /><path fill="rgb(51,55,51)" stroke="rgb(51,55,51)" stroke-width="0.6" opacity="1" d="M 350.5 307 L 353 319.5 L 351.5 320 L 350 318.5 L 350.5 307 Z " /><path fill="rgb(51,55,51)" stroke="rgb(51,55,51)" stroke-width="0.6" opacity="1" d="M 271.5 309 L 278 312.5 Q 284.5 327.5 282 351.5 L 277.5 362 L 247.5 371 L 238.5 371 Q 235.5 369.5 237 363.5 Q 242 329.5 263.5 312 L 271.5 309 Z " /><path fill="rgb(51,55,51)" stroke="rgb(51,55,51)" stroke-width="0.6" opacity="1" d="M 354.5 318 L 374 318.5 L 354.5 319 L 354.5 318 Z " /><path fill="rgb(51,55,51)" stroke="rgb(51,55,51)" stroke-width="0.6" opacity="1" d="M 151.5 327 Q 167.7 323.8 172 332.5 L 172 337.5 L 159.5 352 L 126.5 366 L 123.5 362 L 121 360.5 Q 128.9 342.4 143.5 331 L 151.5 327 Z " /><path fill="rgb(51,55,51)" stroke="rgb(51,55,51)" stroke-width="0.6" opacity="1" d="M 193.5 328 Q 205.2 327.3 209 334.5 L 210 339.5 L 198.5 354 L 172.5 367 L 164.5 369 L 158 363.5 Q 166.9 345.9 180.5 333 L 193.5 328 Z " /><path fill="rgb(51,55,51)" stroke="rgb(51,55,51)" stroke-width="0.6" opacity="1" d="M 286 338 L 288 339.5 Q 291.3 348.3 298.5 353 L 300 355 Q 290.5 354.9 286 348.5 L 286 338 Z " /><path fill="rgb(239,184,44)" stroke="rgb(239,184,44)" stroke-width="0.6" opacity="1" d="M 287.5 136 L 349.5 136 L 360.5 137 L 368 142.5 L 369 156.5 L 365.5 159 L 279.5 162 L 274.5 155 L 262.5 150 L 237.5 149 L 233 146.5 L 238.5 140 L 243.5 138 Q 268.2 139.7 287.5 136 Z " /><path fill="rgb(239,184,44)" stroke="rgb(239,184,44)" stroke-width="0.6" opacity="1" d="M 208.5 153 L 235.5 154 L 243.5 153 L 267.5 157 L 274 162.5 L 275 170.5 L 269.5 173 L 249.5 173 L 248.5 174 L 178.5 175 L 173 170.5 Q 171.8 163.3 175.5 161 L 190.5 155 L 205.5 155 L 208.5 153 Z M 224 159 L 219 164 L 220 171 L 225 173 L 231 172 L 233 168 L 232 163 Q 230 158 224 159 Z M 184 160 L 179 166 L 180 171 L 185 173 Q 192 174 193 169 L 192 163 Q 191 159 184 160 Z M 206 160 L 204 161 L 201 166 Q 200 170 204 171 L 205 167 L 209 165 L 211 171 L 213 170 L 212 162 Q 211 159 206 160 Z " /><path fill="rgb(239,184,44)" stroke="rgb(239,184,44)" stroke-width="0.6" opacity="1" d="M 376.5 162 L 388.5 162 L 392 165.5 L 377.5 172 L 336.5 184 L 329 189.5 Q 323 193.5 325 205.5 L 329.5 211 L 339.5 212 L 396.5 190 L 399 196.5 L 399 222.5 L 397.5 224 L 385.5 225 L 303.5 230 L 299 224.5 L 299 170.5 L 303.5 165 L 372.5 164 L 376.5 162 Z " /><path fill="rgb(239,184,44)" stroke="rgb(239,184,44)" stroke-width="0.6" opacity="1" d="M 282.5 166 L 295.5 166 L 296 169.5 L 295 170.5 L 295 225.5 L 303 238.5 L 303 256.5 L 304 260 L 298 256.5 L 298 236.5 L 292.5 226 L 280 222.5 L 279 174.5 L 282.5 166 Z " /><path fill="rgb(239,184,44)" stroke="rgb(239,184,44)" stroke-width="0.6" opacity="1" d="M 281.5 229 Q 289.8 227.7 292 232.5 L 294 236.5 L 294 257.5 L 292.5 259 L 280.5 259 L 279 256.5 L 280 255.5 L 280 230.5 L 281.5 229 Z " /><path fill="rgb(239,184,44)" stroke="rgb(239,184,44)" stroke-width="0.6" opacity="1" d="M 291.5 278 Q 296.8 276.8 298 279.5 L 292 284.5 L 290 286 Q 288.2 279.9 291.5 278 Z " /><path fill="rgb(239,184,44)" stroke="rgb(239,184,44)" stroke-width="0.6" opacity="1" d="M 76.5 295 Q 82.5 293.5 84 296.5 L 80 300.5 Q 77.2 306.7 78 316.5 L 75.5 319 L 66.5 323 L 53 334 L 53 317.5 Q 56.8 306.8 65.5 301 L 76.5 295 Z " /><path fill="rgb(239,184,44)" stroke="rgb(239,184,44)" stroke-width="0.6" opacity="1" d="M 275.5 303 Q 281.8 301.8 283 305.5 L 281.5 308 L 274 304.5 L 275.5 303 Z " /><path fill="rgb(239,184,44)" stroke="rgb(239,184,44)" stroke-width="0.6" opacity="1" d="M 91.5 310 L 147.5 312 L 150.5 314 L 174.5 314 L 180.5 316 L 201.5 316 L 240.5 319 Q 242.8 322 248 321 L 243.5 330 L 239.5 328 L 224.5 328 L 213.5 334 L 207.5 327 Q 202 322.5 190.5 324 Q 181.9 325.4 177.5 331 Q 170.5 320 150.5 322 L 141.5 328 Q 135.7 317.3 117.5 319 Q 109.2 319.7 105.5 325 Q 100.6 317.6 90 317 Q 88.5 311.6 91.5 310 Z " /><path fill="rgb(239,184,44)" stroke="rgb(239,184,44)" stroke-width="0.6" opacity="1" d="M 408.5 312 L 414 315.5 Q 415.6 325.6 409.5 328 L 405 325.5 Q 403 315 408.5 312 Z " /><path fill="rgb(239,184,44)" stroke="rgb(239,184,44)" stroke-width="0.6" opacity="1" d="M 82.5 321 Q 95.1 319.4 99 326.5 L 99 329.5 L 86.5 343 L 50.5 356 L 47 350.5 L 65.5 330 L 82.5 321 Z " /><path fill="rgb(239,184,44)" stroke="rgb(239,184,44)" stroke-width="0.6" opacity="1" d="M 117.5 324 Q 131.5 322.5 136 330.5 L 123.5 347 L 88.5 361 L 83 356.5 L 104.5 331 L 117.5 324 Z " /><path fill="rgb(26,26,26)" stroke="rgb(26,26,26)" stroke-width="0.6" opacity="1" d="M 220 165 Q 223 163.8 222 167.5 L 223.5 170 L 221 168.5 L 222 170.5 L 220 169.5 L 220 165 Z " /><path fill="rgb(26,26,26)" stroke="rgb(26,26,26)" stroke-width="0.6" opacity="1" d="M 419.5 294 L 426.5 302 L 419.5 294 Z " /><path fill="rgb(26,26,26)" stroke="rgb(26,26,26)" stroke-width="0.6" opacity="1" d="M 328.5 330 L 322.5 337 L 328.5 330 Z " /><path fill="rgb(80,85,69)" stroke="rgb(80,85,69)" stroke-width="0.6" opacity="1" d="M 287.5 132 L 300 132.5 L 287.5 133 L 287.5 132 Z " /><path fill="rgb(204,177,43)" stroke="rgb(204,177,43)" stroke-width="0.6" opacity="1" d="M 63.5 302 L 58.5 308 L 63.5 302 Z " /><path fill="rgb(72,123,66)" stroke="rgb(72,123,66)" stroke-width="0.6" opacity="1" d="M 100.5 328 L 101 329.5 L 92 337.5 L 100.5 328 Z " /><path fill="rgb(72,123,66)" stroke="rgb(72,123,66)" stroke-width="0.6" opacity="1" d="M 328.5 331 L 323.5 337 L 328.5 331 Z " /><path fill="rgb(119,120,44)" stroke="rgb(119,120,44)" stroke-width="0.6" opacity="1" d="M 99.5 329 L 92 337.5 L 87.5 343 L 91 338.5 L 99.5 329 Z " /><path fill="rgb(221,221,221)" stroke="rgb(221,221,221)" stroke-width="0.6" opacity="1" d="M 420.5 294 L 426.5 301 L 420.5 294 Z " /></svg>