<svg width="627" height="627" preserveAspectRatio="xMidYMid meet" viewBox="0 0 512 512" version="1.1" xmlns="http://www.w3.org/2000/svg" ><path fill="rgb(255,255,255)" stroke="rgb(255,255,255)" stroke-width="0.6" opacity="1" d="M 0 0 L 512 0 L 512 512 L 0 512 L 0 0 Z M 304 132 L 303 133 L 245 134 L 233 138 Q 228 141 228 148 L 227 149 L 192 151 Q 181 152 175 157 L 168 166 L 169 175 L 175 179 L 175 182 L 179 227 L 183 249 L 183 255 L 178 262 L 180 274 L 191 281 L 190 283 L 175 289 L 166 301 L 111 298 L 110 297 L 92 297 L 83 291 Q 70 291 64 297 Q 51 306 47 324 L 47 337 L 48 338 L 48 343 L 35 361 L 37 365 L 44 365 L 78 352 L 81 353 L 73 365 L 75 370 L 81 370 L 93 366 L 119 355 L 112 369 Q 111 373 115 374 L 120 374 L 129 371 L 156 359 L 149 374 L 152 377 L 165 375 L 193 362 L 186 377 L 189 381 L 195 381 L 207 377 L 233 365 L 232 369 L 233 375 L 237 377 L 243 377 L 268 371 L 280 366 Q 285 363 285 355 Q 293 360 307 362 Q 325 364 334 356 Q 346 347 349 328 L 352 325 L 374 324 L 380 339 Q 386 347 399 349 Q 415 351 423 343 Q 429 337 431 327 Q 433 311 427 303 Q 419 290 400 289 Q 401 282 406 279 L 409 276 Q 422 277 430 273 L 435 267 L 437 257 L 437 226 L 433 211 Q 430 205 423 203 L 406 202 Q 401 200 403 190 L 450 171 L 452 174 L 454 181 L 460 184 Q 469 185 474 181 L 477 177 L 477 169 L 469 152 L 462 145 L 455 145 L 451 148 L 399 165 L 397 163 L 392 159 L 375 159 L 373 158 L 374 156 Q 375 146 372 141 Q 368 134 358 133 L 304 132 Z " /><path fill="rgb(255,255,255)" stroke="rgb(255,255,255)" stroke-width="0.6" opacity="1" d="M 83 309 L 86 310.5 L 83.5 318 L 82 315.5 L 83 309 Z " /><path fill="rgb(75,142,69)" stroke="rgb(75,142,69)" stroke-width="0.6" opacity="1" d="M 447.5 153 L 450 165.5 L 442.5 170 L 436.5 171 L 415.5 180 L 341.5 206 L 339.5 208 L 332.5 209 Q 328.6 206.9 329 200.5 L 333.5 192 L 447.5 153 Z " /><path fill="rgb(75,142,69)" stroke="rgb(75,142,69)" stroke-width="0.6" opacity="1" d="M 184.5 164 L 189 165.5 L 190 167.5 L 187.5 171 L 182 168.5 L 184.5 164 Z " /><path fill="rgb(75,142,69)" stroke="rgb(75,142,69)" stroke-width="0.6" opacity="1" d="M 463.5 174 L 472.5 174 L 473 175.5 Q 470.1 179.6 463.5 180 L 459 179 L 461.5 175 L 463.5 174 Z " /><path fill="rgb(75,142,69)" stroke="rgb(75,142,69)" stroke-width="0.6" opacity="1" d="M 255.5 185 Q 264.9 183.1 268 187.5 L 267 192 L 269 192.5 L 268 195.5 L 269 196.5 L 269 234.5 L 268 240.5 L 269 243 Q 266 241.8 267 245.5 L 268 248.5 L 265.5 253 L 254.5 255 L 252.5 255 L 249 252.5 L 248 246.5 L 249 243.5 L 248 237.5 L 249 232 L 247 231.5 L 248 227.5 L 247 221.5 L 247 219.5 L 245 188.5 L 247.5 186 L 255.5 185 Z " /><path fill="rgb(75,142,69)" stroke="rgb(75,142,69)" stroke-width="0.6" opacity="1" d="M 404.5 206 Q 421.5 204.5 429 212.5 L 432 221.5 L 426.5 224 L 410.5 225 L 407.5 224 L 404.5 225 L 403 223.5 L 403 207.5 L 404.5 206 Z " /><path fill="rgb(75,142,69)" stroke="rgb(75,142,69)" stroke-width="0.6" opacity="1" d="M 429.5 226 L 433 227.5 L 432 231.5 L 433 232.5 L 433 248.5 L 432 250.5 L 433 254.5 L 430 267 L 428 268.5 L 415.5 272 L 391.5 274 L 388.5 273 L 384.5 274 L 381.5 273 Q 377.9 275.9 370.5 275 L 368.5 275 L 346.5 276 L 333.5 268 L 320.5 264 L 308.5 265 L 307 263.5 L 306 243.5 L 307 241.5 L 306 237 L 308 236.5 L 307.5 235 L 312.5 236 L 317.5 234 L 346.5 232 L 348.5 233 L 358.5 231 L 360.5 232 L 364.5 231 L 366.5 232 L 372.5 230 L 413.5 227 L 416.5 228 L 420.5 227 L 423.5 228 L 429.5 226 Z " /><path fill="rgb(75,142,69)" stroke="rgb(75,142,69)" stroke-width="0.6" opacity="1" d="M 270.5 264 L 286 264.5 L 286 266.5 L 285.5 275 L 281.5 275 L 263.5 276 L 262 277.5 L 263 281 Q 269.4 282.5 269 279.5 L 270.5 280 Q 279.8 281 284 278 L 284.5 280 L 286 279.5 L 285.5 286 L 283.5 286 L 268.5 285 L 262 287.5 L 267.5 289 L 268.5 288 L 283.5 288 L 286 288.5 Q 288.5 298.5 283.5 301 L 272.5 300 L 263.5 302 L 260 301 L 259 268.5 L 258 267.5 L 259 265 L 270.5 264 Z " /><path fill="rgb(75,142,69)" stroke="rgb(75,142,69)" stroke-width="0.6" opacity="1" d="M 288 264 L 298.5 264 L 300 265.5 L 299 270.5 Q 301.8 272.3 297.5 274 L 289.5 275 L 288 273.5 L 288 264 Z " /><path fill="rgb(75,142,69)" stroke="rgb(75,142,69)" stroke-width="0.6" opacity="1" d="M 305.5 269 L 317.5 270 L 323.5 269 L 332.5 272 Q 338.6 278.4 348.5 281 L 352.5 280 L 357.5 281 L 368.5 279 L 370.5 280 L 376.5 278 L 399.5 277 L 401 278.5 L 397 282.5 L 392.5 291 L 382 298.5 L 378 304.5 L 373.5 320 L 351.5 321 L 350 319.5 Q 351.2 304.8 347 295.5 L 337.5 281 L 323.5 273 L 305.5 273 L 304 271.5 L 305.5 269 Z " /><path fill="rgb(75,142,69)" stroke="rgb(75,142,69)" stroke-width="0.6" opacity="1" d="M 311.5 277 L 325.5 278 L 337 286.5 Q 343.9 294.6 346 307.5 L 346 324.5 L 343 336.5 Q 339.2 346.2 331.5 352 L 321.5 357 L 311.5 357 Q 300.6 353.9 295 345.5 Q 288.5 337 287 323.5 L 287 321.5 L 287 307.5 L 289 298.5 L 296.5 287 L 299 285.5 L 301.5 282 L 311.5 277 Z M 316 297 L 312 299 Q 305 304 303 313 L 304 315 L 303 317 L 304 327 L 307 333 L 317 339 L 326 336 L 332 324 Q 334 310 329 304 L 321 297 L 316 297 Z " /><path fill="rgb(75,142,69)" stroke="rgb(75,142,69)" stroke-width="0.6" opacity="1" d="M 394.5 294 L 399 295.5 Q 383.9 303.4 386 328.5 L 391 338.5 L 387.5 340 Q 377.9 333.1 379 315.5 Q 381 303 389.5 297 L 394.5 294 Z " /><path fill="rgb(75,142,69)" stroke="rgb(75,142,69)" stroke-width="0.6" opacity="1" d="M 405.5 297 L 410.5 298 L 412.5 297 Q 419.7 298.8 423 304.5 L 427 317.5 L 426 320.5 L 427 324.5 Q 425 336.5 416.5 342 Q 411.4 345.4 401.5 344 L 393 336.5 Q 389 329.5 389 318.5 Q 390.2 304.2 400.5 299 L 405.5 297 Z M 408 309 L 406 310 L 400 319 L 402 329 L 407 332 Q 414 334 415 330 L 417 328 L 418 323 L 416 313 L 412 309 L 410 310 L 408 309 Z " /><path fill="rgb(75,142,69)" stroke="rgb(75,142,69)" stroke-width="0.6" opacity="1" d="M 227.5 333 Q 236.8 332 241 335 L 236 355.5 L 233.5 359 L 212.5 370 L 200.5 374 L 195 367.5 L 204 352.5 L 218.5 337 L 227.5 333 Z " /><path fill="rgb(51,54,51)" stroke="rgb(51,54,51)" stroke-width="0.6" opacity="1" d="M 458.5 148 L 466 153.5 L 465.5 155 L 468 156.5 L 469 158.5 L 468 160.5 L 470 160.5 Q 467 162.5 472 164.5 L 473 169 L 471 169.5 L 471.5 171 L 462.5 172 L 461.5 170 L 457.5 173 L 456 172.5 L 455.5 174 L 453 165 Q 456.3 166.1 455 162 L 452 160.5 L 454 159 L 454 156 L 452 154.5 L 455 152.5 L 453 151.5 Q 454.8 147.2 456.5 150 L 458.5 148 Z " /><path fill="rgb(51,54,51)" stroke="rgb(51,54,51)" stroke-width="0.6" opacity="1" d="M 224.5 163 L 232 166.5 L 230.5 169 L 228.5 168 Q 225.3 170 228.5 172 L 224.5 171 L 223 171.5 L 222.5 169 L 220 168.5 L 221 166.5 L 220 164.5 L 222.5 164 L 224.5 163 Z " /><path fill="rgb(51,54,51)" stroke="rgb(51,54,51)" stroke-width="0.6" opacity="1" d="M 271.5 176 L 275 177.5 Q 279.1 202.4 277 233.5 L 276 234.5 L 276 253 L 274 253.5 L 276 254.5 L 274 255 L 275 258.5 L 272 259.5 L 270.5 261 L 267 262 Q 268.4 258.3 262.5 260 L 261 257 L 263.5 256 L 264 258 L 266 258 Q 264.5 254.2 267.5 255 L 272 251.5 L 270 251 L 271 248.5 L 271 236 Q 267.3 237.1 269 228.5 L 272 227 L 272 207.5 L 273 206.5 L 270 205 L 269 196 Q 272.7 197.1 271 188.5 L 268.5 184 L 264 183 L 264 185 L 258 185 Q 260.1 179.8 255.5 181 L 246.5 183 L 244 185.5 L 243.5 187 L 241 187.5 Q 239.5 191.9 242.5 191 L 245 190 L 243.5 192 L 241 193 L 240.5 191 L 238 192 Q 239.7 186.8 236 188 L 236.5 198 L 238 197.5 L 239.5 199 L 241.5 199 Q 244.9 198.2 243 203 L 239 203 Q 240 200 237 201 Q 238.3 206.3 235 205.5 L 235 210 Q 238 208.8 237 212.5 L 238 215 L 236 215.5 L 236 222 L 238 222 Q 236 228.2 240 227 L 239 210 L 242 210 Q 241 213 244 212 L 244 220.5 Q 246.8 219.5 246 223.5 L 247 227 L 245 227.5 L 245 238.5 L 247 238.5 L 248 244 L 241 243 L 242 229 L 237 229 L 237 236 L 239 236 L 239 246.5 Q 241.8 245.9 241 249 Q 236.5 247.5 238 252 L 240.5 251 L 243.5 252 L 246 251 L 247 253.5 L 245 254.5 L 249 256.5 L 249.5 259 L 250 257 L 253.5 258 L 257 257 L 256 259.5 L 257 262 L 247 263 Q 248.1 259.7 244 261 L 242 264.5 Q 239 265.8 240 270 Q 236.7 268.7 238 273.5 L 234 275 L 233.5 277 L 212.5 277 L 207 275 Q 208.1 278.3 204 277 L 202.5 275 L 195 276 Q 196 273 193 274 L 191.5 276 L 189 275 L 187.5 273 L 185.5 272 L 184 272.5 Q 180.8 269.2 182 261.5 L 184 258 L 187.5 260 L 191.5 259 L 198 260 Q 196.9 263.3 201 262 Q 199.8 259 203.5 260 L 204.5 261 L 229.5 261 L 233 260 Q 232 263 235 262 L 236.5 260 Q 241.8 258.5 241 253 Q 238 251.8 239 255.5 L 236 256.5 Q 236.5 259.5 229.5 258 L 228 258.5 L 227.5 257 L 212 257 Q 213.3 260.3 208.5 259 L 197 258 Q 198.2 254.3 193 256 L 192.5 258 L 190.5 255 L 189.5 257 L 187 253.5 L 185 244.5 L 187 244 Q 188 241 185 242 L 185 238.5 L 184.5 237 L 186 236.5 L 184 236 L 183 229.5 L 184 227.5 L 181 210 Q 184 211 183 208 Q 180 209.3 181 205.5 L 180.5 204 Q 183.5 204.7 182 201 Q 178.3 202.3 180 196.5 L 179 194 Q 182 195 181 192 L 179 191.5 L 180 188.5 L 179 182.5 L 182.5 179 L 229.5 179 L 232 180 L 233.5 183 L 235 182.5 L 237 184 L 236 179.5 Q 237.6 176.5 243 178 Q 241.7 182 248 180 Q 246.9 176.5 254.5 178 L 257 177 L 257.5 179 L 265 179 L 265.5 177 L 267.5 178 L 271.5 176 Z " /><path fill="rgb(51,54,51)" stroke="rgb(51,54,51)" stroke-width="0.6" opacity="1" d="M 295 247 L 297 247.5 L 297 258.5 L 294 260.5 L 295 247 Z " /><path fill="rgb(51,54,51)" stroke="rgb(51,54,51)" stroke-width="0.6" opacity="1" d="M 304 254 L 306 254.5 L 306 264 L 303.5 265 L 302.5 263 L 304 262.5 L 304 254 Z " /><path fill="rgb(51,54,51)" stroke="rgb(51,54,51)" stroke-width="0.6" opacity="1" d="M 245 265 L 256 265.5 L 255 268.5 L 254 275.5 L 256 276.5 L 244.5 277 L 244 274.5 L 245 265 Z " /><path fill="rgb(51,54,51)" stroke="rgb(51,54,51)" stroke-width="0.6" opacity="1" d="M 196.5 278 L 205 279 L 205.5 281 L 213 281 L 213.5 279 L 231 279 L 231.5 281 L 239 281 Q 237.7 277.3 243.5 279 L 246 280 Q 244.8 283.7 250 282 Q 248.6 278 255.5 280 L 255 281.5 Q 257.1 294.6 251.5 300 L 250 299.5 L 247.5 305 L 246 307 L 242.5 307 L 240.5 308 L 232 307 Q 233.1 303.7 229 305 L 227.5 307 L 222.5 305 L 221 305.5 Q 221.7 302.5 218 304 L 216.5 306 L 212 305 Q 213.2 301 207 303 L 205.5 305 L 192.5 304 L 186.5 302 L 179.5 303 L 171 299.5 L 178.5 291 L 182.5 289 L 184.5 290 L 188 289 Q 186.8 286 190.5 287 L 195.5 281 L 197 280.5 L 195 279.5 L 196.5 278 Z " /><path fill="rgb(51,54,51)" stroke="rgb(51,54,51)" stroke-width="0.6" opacity="1" d="M 317.5 299 Q 325.5 300.1 328 306.5 L 329.5 308 L 330.5 310 Q 327.1 309.2 329 314 L 332 315.5 L 332 320 Q 327.1 318.2 329 324.5 L 323.5 334 L 319.5 336 L 319 334 Q 315.3 332.5 316 335.5 L 314.5 335 L 310 332.5 Q 304.2 326.6 306 314 L 308 313.5 L 306 313 Q 307 304.8 313.5 301 L 317.5 299 Z " /><path fill="rgb(51,54,51)" stroke="rgb(51,54,51)" stroke-width="0.6" opacity="1" d="M 86.5 300 L 97 302 Q 95.8 299 99.5 300 L 110 301 Q 108.7 305 115 303 L 116.5 301 L 124 302 L 124.5 304 L 131 304 L 132.5 302 L 133.5 303 L 147.5 303 L 150.5 305 L 162 304 Q 161 307 164 306 Q 162.8 303 166.5 304 L 177 305 Q 175.9 308.3 180 307 L 180.5 305 L 189 306 Q 187.8 309.7 193 308 L 194.5 306 L 200 307 Q 198.7 311 205 309 L 206.5 307 L 221.5 309 L 223.5 308 L 230.5 310 L 232 309.5 L 234 311 L 235.5 309 L 242 310 Q 240.9 313.5 248.5 312 L 253.5 310 L 256 313.5 L 253.5 318 L 253 316 Q 250 315 251 318 L 246.5 318 L 223.5 315 L 222 315.5 L 220 314 L 218.5 316 L 213.5 314 L 212 314.5 L 212 313 L 207 313 L 205.5 315 L 201 314 Q 202.2 310 196 312 Q 197.3 315 193.5 314 L 182.5 313 L 177.5 311 L 170.5 312 L 168.5 311 L 163.5 312 L 157.5 310 L 156 310.5 L 156 309 L 151 309 L 149.5 311 L 144 310 Q 145.2 306 139 308 L 137.5 310 L 108.5 307 L 105 308 L 104.5 306 L 98.5 307 L 95.5 306 L 94 306.5 Q 94.8 303.1 90 305 L 88.5 307 L 84 305.5 L 86 305 L 85 301.5 L 86.5 300 Z " /><path fill="rgb(51,54,51)" stroke="rgb(51,54,51)" stroke-width="0.6" opacity="1" d="M 269.5 310 L 270.5 312 L 271 310 L 274 311.5 L 274.5 313 Q 276.3 310.3 278 314.5 L 278.5 317 L 280 316.5 L 282 324 Q 279 323 280 326 L 282 327.5 L 283 330 L 281 330.5 L 281 348 L 283 348.5 L 282 352 Q 279 351 280 354 L 282 354.5 Q 281.1 361.6 275.5 364 L 247 372 L 246.5 370 L 246 372 L 237.5 373 L 236 367.5 L 238 364.5 L 237.5 363 L 239 361 L 237 360.5 L 238 358 L 240 356.5 L 241 354 L 239 353.5 L 242.5 345 L 244 343.5 L 244.5 342 L 243 340.5 L 244 338 L 246 336.5 L 246 334.5 L 251.5 325 L 253 325.5 L 253 322.5 L 262.5 313 L 269.5 310 Z " /><path fill="rgb(51,54,51)" stroke="rgb(51,54,51)" stroke-width="0.6" opacity="1" d="M 157.5 326 L 163 327 L 164.5 329 L 166 328.5 L 166.5 331 L 168.5 330 L 170 333 Q 174 331.6 172 338.5 L 169 339.5 L 161.5 352 L 155.5 355 L 152 354 Q 153.7 358.1 149.5 357 L 127 367 L 125.5 365 L 125.5 367 L 123 362.5 L 121.5 361 L 120 361.5 L 123 356 Q 126 357.3 125 353.5 L 131.5 344 L 133 344.5 L 135.5 339 L 136.5 340 L 142 334.5 L 142.5 332 L 146.5 330 L 148.5 331 L 152 328.5 L 151.5 327 L 157.5 326 Z " /><path fill="rgb(51,54,51)" stroke="rgb(51,54,51)" stroke-width="0.6" opacity="1" d="M 191.5 329 L 192 331 L 197 331 L 198.5 329 Q 206.2 330.9 210 336.5 Q 206.5 347 199.5 354 L 180.5 364 L 179.5 362 L 178.5 365 L 171.5 368 L 170.5 366 L 170 369 L 167.5 370 L 166.5 368 L 162.5 370 Q 158.4 368 158 362.5 L 167 348 Q 170 349.3 169 345.5 L 174.5 339 L 177 338.5 Q 174.3 336.7 178.5 335 L 191.5 329 Z " /><path fill="rgb(51,54,51)" stroke="rgb(51,54,51)" stroke-width="0.6" opacity="1" d="M 288.5 339 L 291 343.5 L 290 345.5 L 295 349.5 L 296 353.5 L 295.5 356 L 285 348.5 L 286 341 Q 288.8 342 288.5 339 Z " /><path fill="rgb(239,184,44)" stroke="rgb(239,184,44)" stroke-width="0.6" opacity="1" d="M 307.5 137 L 333.5 138 L 339.5 137 L 340.5 138 L 357.5 138 L 366 140 Q 370.2 144.1 369 154.5 L 368 159 L 337.5 161 L 311.5 161 L 310.5 162 L 279.5 162 L 277 161 L 273.5 156 L 260.5 151 L 234.5 149 L 233 147.5 L 235 142 Q 238.5 138.8 246.5 139 L 250.5 140 L 263.5 138 L 306.5 138 L 307.5 137 Z " /><path fill="rgb(239,184,44)" stroke="rgb(239,184,44)" stroke-width="0.6" opacity="1" d="M 210.5 154 L 240.5 154 L 258.5 156 Q 269.4 156.6 274 163.5 L 275 169.5 L 274 173 L 251.5 175 L 188 175 L 189.5 173 Q 193.7 171.7 193 165.5 L 191 162 L 183.5 161 L 181 162 L 179 168.5 L 184 174.5 L 175 175 Q 172.3 172.4 173 165.5 L 182.5 158 L 210.5 154 Z M 206 161 Q 201 163 201 169 L 202 171 L 205 172 L 208 166 L 211 172 L 213 171 L 212 164 L 206 161 Z M 223 161 L 218 166 L 219 170 L 226 174 L 229 173 L 233 168 L 232 164 Q 230 160 223 161 Z " /><path fill="rgb(239,184,44)" stroke="rgb(239,184,44)" stroke-width="0.6" opacity="1" d="M 382.5 163 Q 389.8 162.2 393 165.5 L 388.5 169 L 338.5 185 L 329 190.5 Q 325 194.5 325 202.5 Q 325.5 210 330.5 213 L 334.5 214 L 396.5 191 L 398 192.5 L 399 212.5 L 398 225 L 384.5 226 L 381.5 225 L 375.5 227 L 358.5 228 L 355.5 227 L 347.5 229 L 330.5 230 L 327.5 229 L 320.5 231 L 303.5 232 L 299 225.5 L 299 171.5 L 302.5 167 L 336.5 165 L 339.5 166 L 340.5 165 L 381.5 164 L 382.5 163 Z " /><path fill="rgb(239,184,44)" stroke="rgb(239,184,44)" stroke-width="0.6" opacity="1" d="M 283.5 167 L 294.5 167 L 296 168.5 L 295 171.5 L 295 225.5 L 303 240.5 L 303 261 L 301 261 L 299 257.5 L 298 244.5 L 299 240.5 Q 297.9 232.1 292.5 228 L 281 225 L 280 222.5 L 280 199.5 L 281 190.5 L 278 175.5 L 281 168 L 283.5 167 Z " /><path fill="rgb(239,184,44)" stroke="rgb(239,184,44)" stroke-width="0.6" opacity="1" d="M 281 230 Q 290.2 228.4 293 234.5 L 294 259 L 282.5 260 L 279 259 L 281 230 Z " /><path fill="rgb(239,184,44)" stroke="rgb(239,184,44)" stroke-width="0.6" opacity="1" d="M 290 280 L 297 280.5 L 295 281 L 292.5 285 L 291 286.5 L 290 286.5 L 289 282.5 L 290 280 Z " /><path fill="rgb(239,184,44)" stroke="rgb(239,184,44)" stroke-width="0.6" opacity="1" d="M 75.5 296 Q 84.1 293.8 83 298.5 L 80 301.5 L 78 315.5 L 75.5 320 Q 61.4 324.9 53.5 336 Q 50.1 332.4 52 323.5 Q 55.6 307.6 67.5 300 L 75.5 296 Z " /><path fill="rgb(239,184,44)" stroke="rgb(239,184,44)" stroke-width="0.6" opacity="1" d="M 262.5 303 L 263.5 304 L 281.5 304 L 283 305.5 L 281.5 311 Q 277.5 305 265.5 307 L 262.5 309 L 261 304.5 L 262.5 303 Z " /><path fill="rgb(239,184,44)" stroke="rgb(239,184,44)" stroke-width="0.6" opacity="1" d="M 91.5 310 L 157.5 314 L 193.5 318 L 199.5 317 L 245.5 321 L 249 322.5 L 247 323 Q 246.9 328.6 242.5 331 Q 236.7 327.3 225.5 329 L 213.5 335 Q 207.9 324.6 191.5 325 L 176.5 332 Q 170.5 322 153.5 323 L 141.5 329 L 130.5 321 L 118.5 320 L 103.5 326 L 100.5 322 L 90 316.5 L 90 314.5 L 91.5 310 Z " /><path fill="rgb(239,184,44)" stroke="rgb(239,184,44)" stroke-width="0.6" opacity="1" d="M 408.5 313 L 414 315 Q 416.1 324.4 411.5 328 L 407 329 L 405 325.5 L 404 319.5 L 406.5 314 L 408.5 313 Z " /><path fill="rgb(239,184,44)" stroke="rgb(239,184,44)" stroke-width="0.6" opacity="1" d="M 82.5 322 Q 94.8 320.7 99 327.5 L 99 330.5 L 86.5 344 L 50.5 358 L 46 351.5 L 58.5 337 Q 67.5 326.5 82.5 322 Z " /><path fill="rgb(239,184,44)" stroke="rgb(239,184,44)" stroke-width="0.6" opacity="1" d="M 119.5 325 L 130.5 326 L 135 329.5 L 136 333.5 L 123.5 348 L 87.5 362 Q 83.3 361.3 84 355.5 L 105.5 331 L 119.5 325 Z " /><path fill="rgb(9,8,10)" stroke="rgb(9,8,10)" stroke-width="0.6" opacity="1" d="M 265.5 134 L 357.5 134 Q 365.9 134.6 370 139.5 Q 373.4 144.1 373 152.5 L 372 158.5 L 373.5 160 L 391.5 160 L 400.5 166 L 448.5 150 L 454.5 146 L 460.5 146 L 469 153.5 L 475 165.5 L 476 176.5 Q 472 184 459.5 183 L 454 178.5 L 450.5 170 L 405.5 186 L 401 189.5 L 402 200.5 L 403.5 202 L 421.5 204 L 431 209.5 Q 438.9 226.6 436 254.5 L 434 265.5 L 429.5 272 Q 421.4 275.9 408.5 275 L 401 281 L 398 288.5 Q 401.2 291.8 408.5 291 L 420.5 297 L 425 301.5 Q 431.5 309.5 430 325.5 Q 427.7 338.7 418.5 345 Q 411.3 349.8 397.5 348 Q 386.5 346 381 338.5 L 374.5 323 L 350.5 324 L 348 326.5 L 346 337.5 L 335.5 353 Q 326.7 362.2 307.5 361 Q 293.4 360.1 285.5 353 L 283 360.5 L 277.5 366 Q 259.7 373.7 236.5 376 L 233 369.5 L 234 363 L 203.5 377 L 194.5 380 L 188.5 380 L 187 376.5 L 196 360 L 166.5 373 L 157.5 376 L 152.5 376 L 151 371.5 L 158 357 L 125.5 371 L 114.5 373 L 113 369.5 L 122 353 L 89.5 366 L 75.5 369 L 74 364.5 L 84 350.5 L 81.5 350 L 46.5 363 L 37.5 364 L 36 360.5 L 49 342.5 L 49 333.5 L 48 325.5 Q 50.3 308.3 61.5 300 Q 68.1 292.6 81.5 292 Q 88.2 292.7 90.5 298 L 166.5 302 L 177.5 288 L 188.5 285 L 191 282.5 L 192 279.5 L 181 272.5 L 179 262.5 L 184 254.5 L 184 249.5 L 179 217.5 L 176 183.5 L 177 179.5 L 170 174.5 L 169 165.5 L 174.5 158 L 191.5 152 L 227.5 150 L 229 148.5 Q 229.5 141 234.5 138 L 239.5 136 L 265.5 134 Z M 283 136 L 282 137 L 243 138 L 234 141 Q 231 143 232 150 L 234 151 L 260 152 L 272 156 L 277 163 L 279 164 L 287 164 Q 288 168 281 166 L 277 175 Q 281 197 279 226 Q 281 229 286 227 Q 287 231 281 229 L 279 231 L 278 244 L 278 258 L 276 258 L 276 241 L 277 240 L 277 191 L 276 180 L 274 176 L 272 174 L 276 173 L 275 163 L 269 157 L 249 153 L 204 153 L 189 155 L 177 160 Q 170 162 172 173 L 178 177 L 191 177 L 192 176 L 235 177 L 235 180 L 236 183 L 232 179 L 182 179 L 179 182 L 179 198 Q 183 213 183 232 L 186 252 L 190 257 L 191 259 L 185 258 Q 180 261 182 271 Q 186 277 198 276 L 197 278 L 193 285 L 178 291 Q 171 295 171 303 L 203 304 L 226 307 L 236 307 L 236 309 L 123 301 L 87 300 L 83 305 L 90 307 L 89 311 L 87 310 L 85 308 L 82 309 L 80 310 L 81 303 L 85 299 Q 88 300 86 296 L 80 294 Q 67 297 60 305 L 51 321 L 51 337 L 53 338 L 68 325 L 77 321 L 81 317 L 85 319 L 86 315 Q 89 314 88 318 L 99 322 L 104 328 Q 110 322 122 321 Q 135 321 140 330 L 148 326 L 157 324 Q 160 323 159 326 Q 149 326 143 332 Q 129 344 120 361 L 121 363 L 123 364 L 124 367 L 127 368 L 162 352 L 174 337 L 173 334 L 165 327 Q 160 328 161 325 Q 172 326 177 334 L 189 327 Q 201 325 208 330 L 214 337 L 226 330 Q 238 328 244 333 L 250 320 L 242 319 L 231 319 L 230 317 L 246 318 Q 256 320 258 314 L 257 311 L 259 308 L 262 310 L 267 308 L 277 309 L 283 316 L 284 315 Q 283 306 286 301 L 286 268 L 288 267 Q 286 274 290 276 Q 298 277 301 273 Q 303 265 299 263 L 272 263 L 271 264 L 257 264 L 256 262 L 272 262 L 276 259 L 279 261 L 295 261 L 297 259 L 301 261 L 302 264 L 305 264 L 308 266 L 328 267 L 346 277 L 361 277 L 361 279 L 347 279 L 324 268 L 305 268 L 303 273 L 323 274 L 335 280 Q 343 287 347 298 Q 350 307 349 321 L 351 322 L 375 321 L 379 305 L 383 299 L 394 292 L 400 281 L 401 280 Q 405 278 402 276 L 391 277 L 380 277 L 379 275 L 414 273 L 428 270 L 432 265 L 434 251 L 434 231 L 432 226 L 433 223 L 430 213 L 424 207 L 409 205 Q 403 204 402 207 L 402 225 L 403 226 L 400 228 Q 392 230 393 226 Q 398 227 400 225 L 400 192 L 398 189 L 343 210 L 332 212 L 327 206 Q 326 197 329 193 L 333 189 L 345 184 L 393 169 L 395 166 L 390 162 L 303 165 L 300 168 L 296 163 L 368 161 L 370 159 L 369 143 L 364 138 L 353 136 L 283 136 Z M 457 148 L 454 149 L 452 154 L 454 173 L 457 175 L 465 171 Q 471 173 473 170 L 472 164 L 467 155 Q 465 148 457 148 Z M 448 152 L 335 190 L 329 198 Q 327 208 333 210 L 337 210 L 359 202 L 451 167 L 450 164 L 450 153 L 448 152 Z M 465 173 L 461 175 L 458 180 Q 469 182 473 177 L 473 173 L 465 173 Z M 303 275 L 288 280 L 288 291 L 290 291 L 292 288 L 305 277 Q 306 274 303 275 Z M 314 275 L 302 281 Q 289 289 286 307 L 286 326 Q 288 338 294 346 Q 300 354 312 358 Q 326 359 333 352 L 341 343 L 347 326 Q 350 299 338 287 Q 331 276 314 275 Z M 396 293 L 390 296 Q 380 302 378 316 L 379 329 L 383 337 Q 387 343 395 344 L 387 329 Q 386 324 389 325 L 391 336 L 403 345 L 412 345 L 421 340 Q 427 335 428 324 Q 429 309 422 302 L 414 296 Q 403 295 399 299 L 390 312 L 388 313 L 391 305 Q 395 296 405 295 L 405 293 L 396 293 Z M 269 310 L 261 314 Q 251 323 245 336 L 236 365 Q 234 372 239 374 L 269 367 L 278 363 Q 282 359 283 351 Q 286 328 279 315 Q 277 309 269 310 Z M 82 321 L 64 331 L 44 353 L 50 359 L 89 344 L 101 331 L 101 328 Q 97 319 82 321 Z M 122 323 Q 109 325 103 332 L 82 357 L 85 363 L 88 364 L 126 348 L 138 333 L 137 331 Q 134 324 125 324 L 122 323 Z M 191 329 L 180 334 Q 165 346 157 365 L 161 370 L 164 371 L 178 366 L 199 355 L 211 338 Q 206 328 191 329 Z M 228 332 L 215 339 Q 202 351 194 369 L 197 372 L 198 374 L 201 375 Q 219 370 234 360 L 236 358 L 243 337 Q 239 330 228 332 Z M 285 335 L 285 350 Q 291 356 302 357 L 301 355 Q 291 349 288 337 L 285 335 Z M 41 356 L 39 360 L 41 362 L 46 361 L 47 359 Q 46 355 41 356 Z M 81 360 Q 76 361 77 367 Q 83 367 85 364 L 81 360 Z M 120 364 L 116 369 L 118 371 L 124 368 L 120 364 Z M 157 368 L 154 372 L 155 374 L 160 373 L 161 371 L 157 368 Z M 195 371 L 192 372 L 191 376 L 192 378 L 196 377 Q 201 374 195 371 Z " /><path fill="rgb(9,8,10)" stroke="rgb(9,8,10)" stroke-width="0.6" opacity="1" d="M 268.5 174 Q 271.5 175.5 268.5 177 L 237 178 L 237.5 176 L 251.5 176 L 268.5 174 Z " /><path fill="rgb(9,8,10)" stroke="rgb(9,8,10)" stroke-width="0.6" opacity="1" d="M 296 180 L 298 180.5 L 298 209 L 296 208.5 L 296 180 Z " /><path fill="rgb(9,8,10)" stroke="rgb(9,8,10)" stroke-width="0.6" opacity="1" d="M 248.5 183 Q 254.3 181.3 253 185 Q 246.7 183.5 245 187.5 L 243 189 L 245.5 184 L 248.5 183 Z " /><path fill="rgb(9,8,10)" stroke="rgb(9,8,10)" stroke-width="0.6" opacity="1" d="M 265 183 L 270 186.5 L 271 193 Q 267.3 194.3 269 188.5 L 266.5 185 L 265 183 Z " /><path fill="rgb(9,8,10)" stroke="rgb(9,8,10)" stroke-width="0.6" opacity="1" d="M 289 228 L 295 232.5 L 294.5 235 L 290.5 230 L 289 228 Z " /><path fill="rgb(9,8,10)" stroke="rgb(9,8,10)" stroke-width="0.6" opacity="1" d="M 246 246 Q 249.5 244.9 248 252.5 L 251 257 L 247 254.5 L 246 246 Z " /><path fill="rgb(9,8,10)" stroke="rgb(9,8,10)" stroke-width="0.6" opacity="1" d="M 268 250 L 270 251.5 L 267.5 255 L 264 256 L 265.5 254 L 268 250 Z " /><path fill="rgb(9,8,10)" stroke="rgb(9,8,10)" stroke-width="0.6" opacity="1" d="M 244.5 263 Q 251.4 261 250 265 Q 243.7 263.5 242 267.5 Q 240.2 275.2 244.5 277 L 256.5 276 L 258 280 L 251.5 279 L 246.5 280 L 245.5 279 L 203 279 L 203.5 277 L 238.5 277 Q 242 275 240 267.5 L 242.5 264 L 244.5 263 Z " /><path fill="rgb(9,8,10)" stroke="rgb(9,8,10)" stroke-width="0.6" opacity="1" d="M 275.5 276 Q 282.4 274 281 278 L 264 279 L 264.5 277 L 274.5 277 L 275.5 276 Z " /><path fill="rgb(9,8,10)" stroke="rgb(9,8,10)" stroke-width="0.6" opacity="1" d="M 364 276 L 375.5 276 L 376 278 L 364.5 278 L 364 276 Z " /><path fill="rgb(9,8,10)" stroke="rgb(9,8,10)" stroke-width="0.6" opacity="1" d="M 257 284 L 259 284.5 L 259 302 L 257 302 Q 258.5 298.2 255.5 299 L 247.5 310 Q 239.9 311.5 241 308 Q 246.5 309.3 248 305.5 L 257 293.5 L 257 284 Z " /><path fill="rgb(9,8,10)" stroke="rgb(9,8,10)" stroke-width="0.6" opacity="1" d="M 107.5 308 L 147 310 L 146.5 312 L 132.5 312 L 108.5 310 L 107.5 308 Z " /><path fill="rgb(9,8,10)" stroke="rgb(9,8,10)" stroke-width="0.6" opacity="1" d="M 407.5 310 L 410.5 310 L 415 313.5 L 416 315.5 L 411.5 312 Q 404.8 310.8 403.5 315 L 404 313.5 L 405.5 312 L 407.5 310 Z " /><path fill="rgb(9,8,10)" stroke="rgb(9,8,10)" stroke-width="0.6" opacity="1" d="M 151 311 L 160.5 311 L 161 313 L 151.5 313 L 151 311 Z " /><path fill="rgb(9,8,10)" stroke="rgb(9,8,10)" stroke-width="0.6" opacity="1" d="M 165 312 L 174.5 312 L 175 314 L 165.5 314 L 165 312 Z " /><path fill="rgb(9,8,10)" stroke="rgb(9,8,10)" stroke-width="0.6" opacity="1" d="M 177 313 L 216 315 L 215.5 317 L 201.5 317 L 177 315 L 177 313 Z " /><path fill="rgb(9,8,10)" stroke="rgb(9,8,10)" stroke-width="0.6" opacity="1" d="M 327.5 329 L 328 331.5 L 321.5 336 L 322.5 334 L 326 331.5 L 327.5 329 Z " /><path fill="rgb(30,30,33)" stroke="rgb(30,30,33)" stroke-width="0.6" opacity="1" d="M 300.5 133 L 344 133.5 L 300.5 134 L 300.5 133 Z " /><path fill="rgb(30,30,33)" stroke="rgb(30,30,33)" stroke-width="0.6" opacity="1" d="M 225.5 161 L 228 162.5 L 230 165.5 Q 226.7 161.3 223.5 164 L 221.5 165 L 221 163 L 225.5 161 Z " /><path fill="rgb(30,30,33)" stroke="rgb(30,30,33)" stroke-width="0.6" opacity="1" d="M 292.5 163 Q 296.9 161.5 296 164.5 L 299 170 L 297 168.5 L 296.5 166 L 287.5 166 L 287 164 L 292.5 163 Z " /><path fill="rgb(30,30,33)" stroke="rgb(30,30,33)" stroke-width="0.6" opacity="1" d="M 270 205 L 273 206.5 L 272 207.5 L 272 227 L 270 226.5 L 270 205 Z " /><path fill="rgb(30,30,33)" stroke="rgb(30,30,33)" stroke-width="0.6" opacity="1" d="M 296 209 L 298 209.5 L 298 224 L 296 223.5 L 296 209 Z " /><path fill="rgb(30,30,33)" stroke="rgb(30,30,33)" stroke-width="0.6" opacity="1" d="M 297 226 L 299 227.5 L 298.5 229 L 303 232.5 Q 300.5 234.5 298 230.5 L 297 226 Z " /><path fill="rgb(30,30,33)" stroke="rgb(30,30,33)" stroke-width="0.6" opacity="1" d="M 200 258 L 228.5 259 L 234 258 Q 235.3 261.3 230.5 260 L 229.5 261 L 204.5 261 L 200 260 L 200 258 Z " /><path fill="rgb(30,30,33)" stroke="rgb(30,30,33)" stroke-width="0.6" opacity="1" d="M 249.5 262 L 255.5 262 Q 254.5 264.8 258.5 264 L 258.5 265 L 250.5 265 L 250 263.5 L 249.5 262 Z " /><path fill="rgb(30,30,33)" stroke="rgb(30,30,33)" stroke-width="0.6" opacity="1" d="M 257 272 L 259 272.5 L 259 284 Q 256 285.3 257 281.5 L 251 279.5 L 255.5 279 L 258 280 L 257 272 Z " /><path fill="rgb(30,30,33)" stroke="rgb(30,30,33)" stroke-width="0.6" opacity="1" d="M 317.5 297 L 324 299.5 L 323 300.5 L 326.5 304 L 328 303.5 L 327.5 305 L 330 306.5 L 328 308 L 321.5 300 L 317.5 299 L 308 306.5 L 306 313 L 304 312.5 L 308.5 303 Q 310.3 305.7 312 301.5 L 312.5 299 L 314.5 300 L 315 298 L 317.5 297 Z " /><path fill="rgb(30,30,33)" stroke="rgb(30,30,33)" stroke-width="0.6" opacity="1" d="M 405.5 311 Q 409.2 313.2 404 315.5 L 403 324.5 L 402.5 327 Q 399.7 324.3 401 317.5 L 402 315 L 404 314.5 L 403.5 313 L 406 312.5 L 405.5 311 Z " /><path fill="rgb(30,30,33)" stroke="rgb(30,30,33)" stroke-width="0.6" opacity="1" d="M 260.5 314 L 255.5 320 L 260.5 314 Z " /><path fill="rgb(30,30,33)" stroke="rgb(30,30,33)" stroke-width="0.6" opacity="1" d="M 304 315 L 306 315.5 L 306 324.5 L 310 331.5 Q 308.5 334.5 307 331.5 Q 302.8 325.4 304 315 Z " /><path fill="rgb(30,30,33)" stroke="rgb(30,30,33)" stroke-width="0.6" opacity="1" d="M 227 316 L 236 316.5 L 230 317 L 228.5 319 L 227 316 Z " /><path fill="rgb(30,30,33)" stroke="rgb(30,30,33)" stroke-width="0.6" opacity="1" d="M 169.5 330 L 174 336.5 L 172 337.5 Q 172.7 331 169.5 330 Z " /><path fill="rgb(30,30,33)" stroke="rgb(30,30,33)" stroke-width="0.6" opacity="1" d="M 314.5 335 L 319.5 336 L 322 336.5 L 316.5 338 L 313 336.5 L 314.5 335 Z " /><path fill="rgb(69,72,63)" stroke="rgb(69,72,63)" stroke-width="0.6" opacity="1" d="M 461.5 170 L 462 171.5 L 456 175 L 456.5 172 Q 458 174.5 459.5 171 L 461.5 170 Z " /><path fill="rgb(69,72,63)" stroke="rgb(69,72,63)" stroke-width="0.6" opacity="1" d="M 239 203 L 242 203 L 242 208 Q 245 207 244 210 L 239 210 L 239 203 Z " /><path fill="rgb(69,72,63)" stroke="rgb(69,72,63)" stroke-width="0.6" opacity="1" d="M 279.5 212 L 281 226.5 L 279 225.5 L 279.5 212 Z " /><path fill="rgb(69,72,63)" stroke="rgb(69,72,63)" stroke-width="0.6" opacity="1" d="M 373.5 227 L 377.5 227 Q 376.5 229.8 380.5 229 L 380.5 230 L 377.5 229 L 375.5 230 L 375.5 228 L 373.5 227 Z " /><path fill="rgb(69,72,63)" stroke="rgb(69,72,63)" stroke-width="0.6" opacity="1" d="M 241.5 243 L 246 243 L 246 251 L 241.5 252 L 239.5 252 Q 236.5 252.7 238 249 L 241 249 L 241 246 Q 244 247 243 244 L 241.5 243 Z " /><path fill="rgb(69,72,63)" stroke="rgb(69,72,63)" stroke-width="0.6" opacity="1" d="M 297.5 249 L 299 260.5 L 297 259.5 L 297.5 249 Z " /><path fill="rgb(69,72,63)" stroke="rgb(69,72,63)" stroke-width="0.6" opacity="1" d="M 294.5 259 L 293.5 261 L 283 260.5 L 294.5 259 Z " /><path fill="rgb(216,174,58)" stroke="rgb(216,174,58)" stroke-width="0.6" opacity="1" d="M 284.5 137 L 307 137.5 L 284.5 138 L 284.5 137 Z " /><path fill="rgb(216,174,58)" stroke="rgb(216,174,58)" stroke-width="0.6" opacity="1" d="M 314.5 137 L 334 137.5 L 314.5 138 L 314.5 137 Z " /><path fill="rgb(216,174,58)" stroke="rgb(216,174,58)" stroke-width="0.6" opacity="1" d="M 340.5 137 L 351 137.5 L 340.5 138 L 340.5 137 Z " /><path fill="rgb(216,174,58)" stroke="rgb(216,174,58)" stroke-width="0.6" opacity="1" d="M 368.5 155 L 369 158.5 Q 367.8 161.3 362.5 160 L 362.5 159 Q 370 161.4 368.5 155 Z " /><path fill="rgb(216,174,58)" stroke="rgb(216,174,58)" stroke-width="0.6" opacity="1" d="M 278.5 161 L 294 162.5 L 279.5 163 L 278.5 161 Z " /><path fill="rgb(216,174,58)" stroke="rgb(216,174,58)" stroke-width="0.6" opacity="1" d="M 348.5 164 L 360 164.5 L 348.5 165 L 348.5 164 Z " /><path fill="rgb(216,174,58)" stroke="rgb(216,174,58)" stroke-width="0.6" opacity="1" d="M 206.5 165 Q 209.8 163.9 209 166.5 L 210 171 L 212.5 170 L 211.5 172 L 208 169.5 L 207.5 166 L 204.5 172 L 205 170.5 L 206.5 165 Z " /><path fill="rgb(216,174,58)" stroke="rgb(216,174,58)" stroke-width="0.6" opacity="1" d="M 182.5 172 L 188 173 Q 186.7 176.7 192.5 175 L 192.5 176 L 177 175.5 L 184 174.5 L 182.5 172 Z " /><path fill="rgb(216,174,58)" stroke="rgb(216,174,58)" stroke-width="0.6" opacity="1" d="M 225.5 175 L 237 175.5 L 225.5 176 L 225.5 175 Z " /><path fill="rgb(216,174,58)" stroke="rgb(216,174,58)" stroke-width="0.6" opacity="1" d="M 398.5 213 L 399 223.5 L 398 223.5 L 398.5 213 Z " /><path fill="rgb(216,174,58)" stroke="rgb(216,174,58)" stroke-width="0.6" opacity="1" d="M 280.5 231 L 281 241.5 L 280 241.5 L 280.5 231 Z " /><path fill="rgb(216,174,58)" stroke="rgb(216,174,58)" stroke-width="0.6" opacity="1" d="M 297.5 278 L 297.5 281 L 290 280 L 289.5 282 L 289 280.5 L 297.5 278 Z " /><path fill="rgb(216,174,58)" stroke="rgb(216,174,58)" stroke-width="0.6" opacity="1" d="M 289.5 284 L 290.5 287 L 291 285 L 293.5 284 L 291 287.5 L 289 289 L 289.5 284 Z " /><path fill="rgb(216,174,58)" stroke="rgb(216,174,58)" stroke-width="0.6" opacity="1" d="M 64.5 302 L 59.5 308 L 64.5 302 Z " /><path fill="rgb(216,174,58)" stroke="rgb(216,174,58)" stroke-width="0.6" opacity="1" d="M 91.5 309 L 90 311.5 L 91 315.5 L 90.5 318 Q 87.8 316.8 89 311.5 L 91.5 309 Z " /><path fill="rgb(216,174,58)" stroke="rgb(216,174,58)" stroke-width="0.6" opacity="1" d="M 97.5 325 Q 100.8 325.8 100 330.5 L 91 338.5 L 99 330.5 L 99 327.5 L 97.5 325 Z " /><path fill="rgb(216,174,58)" stroke="rgb(216,174,58)" stroke-width="0.6" opacity="1" d="M 171.5 327 L 176.5 332 L 178 331.5 L 176.5 333 L 171.5 327 Z " /><path fill="rgb(87,89,86)" stroke="rgb(87,89,86)" stroke-width="0.6" opacity="1" d="M 238 192 L 241 192 Q 239.7 196.1 243 195 L 243 199 L 238 197 L 238 192 Z " /><path fill="rgb(87,89,86)" stroke="rgb(87,89,86)" stroke-width="0.6" opacity="1" d="M 436.5 234 L 437 246.5 L 436 246.5 L 436.5 234 Z " /><path fill="rgb(171,147,44)" stroke="rgb(171,147,44)" stroke-width="0.6" opacity="1" d="M 275.5 167 L 276 171.5 L 271.5 174 L 271.5 173 L 275 171.5 L 275.5 167 Z " /><path fill="rgb(171,147,44)" stroke="rgb(171,147,44)" stroke-width="0.6" opacity="1" d="M 295.5 173 L 296 223.5 L 295 223.5 L 295.5 173 Z " /><path fill="rgb(171,147,44)" stroke="rgb(171,147,44)" stroke-width="0.6" opacity="1" d="M 193.5 175 L 225 175.5 L 193.5 176 L 193.5 175 Z " /><path fill="rgb(171,147,44)" stroke="rgb(171,147,44)" stroke-width="0.6" opacity="1" d="M 298.5 181 L 299 214.5 L 298 214.5 L 298.5 181 Z " /><path fill="rgb(171,147,44)" stroke="rgb(171,147,44)" stroke-width="0.6" opacity="1" d="M 294.5 238 L 295 253.5 L 294 253.5 L 294.5 238 Z " /><path fill="rgb(171,147,44)" stroke="rgb(171,147,44)" stroke-width="0.6" opacity="1" d="M 303.5 242 L 304 254.5 L 303 254.5 L 303.5 242 Z " /><path fill="rgb(71,112,65)" stroke="rgb(71,112,65)" stroke-width="0.6" opacity="1" d="M 404.5 205 L 403 207.5 L 402.5 221 L 402 206 L 404.5 205 Z " /><path fill="rgb(71,112,65)" stroke="rgb(71,112,65)" stroke-width="0.6" opacity="1" d="M 399.5 299 L 394.5 305 L 399.5 299 Z " /><path fill="rgb(71,112,65)" stroke="rgb(71,112,65)" stroke-width="0.6" opacity="1" d="M 286.5 310 L 287 320.5 L 286 320.5 L 286.5 310 Z " /><path fill="rgb(71,112,65)" stroke="rgb(71,112,65)" stroke-width="0.6" opacity="1" d="M 216.5 338 L 210.5 345 L 216.5 338 Z " /><path fill="rgb(123,112,46)" stroke="rgb(123,112,46)" stroke-width="0.6" opacity="1" d="M 306.5 136 L 340 136.5 L 306.5 137 L 306.5 136 Z " /><path fill="rgb(123,112,46)" stroke="rgb(123,112,46)" stroke-width="0.6" opacity="1" d="M 218.5 153 L 234 153.5 L 218.5 154 L 218.5 153 Z " /><path fill="rgb(123,112,46)" stroke="rgb(123,112,46)" stroke-width="0.6" opacity="1" d="M 399.5 210 L 400 224.5 L 395.5 226 L 395.5 225 L 399 223.5 L 399.5 210 Z " /><path fill="rgb(123,112,46)" stroke="rgb(123,112,46)" stroke-width="0.6" opacity="1" d="M 264.5 303 L 281 303.5 L 264.5 304 L 264.5 303 Z " /><path fill="rgb(123,112,46)" stroke="rgb(123,112,46)" stroke-width="0.6" opacity="1" d="M 58.5 336 L 53.5 342 L 58.5 336 Z " /><path fill="rgb(212,212,211)" stroke="rgb(212,212,211)" stroke-width="0.6" opacity="1" d="M 303.5 132 L 324 132.5 L 303.5 133 L 303.5 132 Z " /><path fill="rgb(212,212,211)" stroke="rgb(212,212,211)" stroke-width="0.6" opacity="1" d="M 327.5 132 L 343 132.5 L 327.5 133 L 327.5 132 Z " /><path fill="rgb(180,179,177)" stroke="rgb(180,179,177)" stroke-width="0.6" opacity="1" d="M 228.5 148 L 227.5 150 L 216 149.5 L 228.5 148 Z " /><path fill="rgb(144,146,142)" stroke="rgb(144,146,142)" stroke-width="0.6" opacity="1" d="M 61.5 299 L 56.5 305 L 61.5 299 Z " /></svg>