<svg width="627" height="627" preserveAspectRatio="xMidYMid meet" viewBox="0 0 512 512" version="1.1" xmlns="http://www.w3.org/2000/svg" ><path fill="rgb(255,255,255)" stroke="rgb(255,255,255)" stroke-width="0.6" opacity="1" d="M 0 0 L 512 0 L 512 512 L 0 512 L 0 0 Z M 136 80 L 122 82 L 115 86 L 108 94 L 101 113 L 66 236 L 64 237 L 57 247 L 56 254 L 57 256 L 57 262 L 54 268 L 53 277 L 47 281 Q 32 291 29 313 Q 27 341 40 355 Q 48 365 62 370 L 72 373 L 105 378 Q 148 380 171 361 L 172 362 L 170 368 Q 168 391 178 402 L 192 410 L 213 413 L 238 413 L 283 405 L 288 415 Q 293 422 303 426 L 340 432 L 363 432 L 412 424 L 449 417 L 465 411 Q 480 399 484 376 Q 486 352 476 341 Q 469 332 456 331 L 419 331 L 418 332 Q 411 334 412 330 L 414 328 L 449 326 L 464 323 L 470 314 L 470 272 L 466 257 Q 462 250 454 248 L 450 242 L 444 237 L 429 235 L 427 234 L 425 185 L 420 168 Q 410 156 391 154 Q 387 152 389 145 L 386 139 Q 382 133 375 132 Q 367 131 364 134 Q 355 138 355 150 L 354 151 L 334 151 L 330 141 Q 326 133 317 132 L 305 135 Q 297 140 297 153 L 278 161 Q 264 171 261 192 L 258 193 Q 254 174 244 160 L 233 148 L 169 104 L 166 102 L 163 91 Q 157 78 136 80 Z " /><path fill="rgb(64,70,67)" stroke="rgb(64,70,67)" stroke-width="0.6" opacity="1" d="M 145.5 99 L 146 101 L 149.5 100 L 154 107.5 L 153 110.5 L 154 112.5 L 149.5 119 L 145.5 120 L 141 116.5 L 139 106.5 L 143.5 100 L 145.5 99 Z " /><path fill="rgb(64,70,67)" stroke="rgb(64,70,67)" stroke-width="0.6" opacity="1" d="M 168.5 108 L 221.5 145 L 239 159.5 L 248 175.5 L 246 176.5 L 249 177 L 256 197.5 L 254 198.5 L 257 199.5 L 258 204 L 256 204.5 L 258 205 L 254.5 217 L 253 219 L 255 219.5 L 253 228 L 251 229.5 L 252 233 Q 249 232 250 235 L 252 235.5 L 251 238 Q 248 237 249 240 L 251 241.5 L 248 263 L 246 263.5 L 248 264 L 246.5 272 L 246 270 Q 242.2 271.5 243 268.5 L 242.5 267 L 244 266.5 L 241 264.5 L 238 253 L 240 252.5 L 237 251 L 235 241.5 L 235.5 240 L 234 238.5 L 220 194.5 Q 214.6 182.9 204.5 176 L 165 144.5 L 165.5 143 Q 159.2 142.4 157 137.5 L 156 134.5 Q 165.7 126.7 166.5 110 L 169 109.5 L 168.5 108 Z " /><path fill="rgb(64,70,67)" stroke="rgb(64,70,67)" stroke-width="0.6" opacity="1" d="M 324.5 155 L 353.5 155 L 383.5 158 L 385 157.5 L 385.5 159 L 386.5 157 L 391 158 L 391.5 160 L 396.5 159 Q 408.8 161.2 416 168.5 L 420 179 Q 416.7 177.9 418 182 Q 421 180.8 420 184.5 L 421 187 Q 417.7 185.9 419 190 Q 423 188.6 421 195.5 L 422 199 Q 419 198 420 201 L 422 201.5 L 422 211.5 L 423 212.5 L 423 244.5 L 424 245.5 L 424 281.5 L 423 282.5 L 423 298.5 L 418.5 304 L 416.5 305 L 416 303 Q 412.9 302.3 413.5 305 L 406.5 305 L 402 306 Q 403.1 302.7 399 304 L 398.5 306 L 386.5 306 L 384 305 L 382.5 307 L 379.5 306 L 373.5 307 L 368 303.5 Q 370.5 302 367 300.5 L 366 290.5 L 368 272.5 L 367.5 271 Q 370.9 271.8 369 267 L 367 265.5 L 369 259 L 375.5 257 L 378.5 258 L 382 257 L 383.5 254 L 408.5 247 L 413 243.5 L 413 241.5 L 413 209.5 L 412 203 L 414 202.5 L 414 193 Q 410 194.4 412 187.5 L 411 185 L 413 184.5 L 411 184 L 411 180.5 L 406.5 175 L 402.5 173 L 390 172 Q 391.2 168.3 386 170 L 385.5 172 L 383.5 171 L 375 177.5 L 372 193 L 370 193.5 L 372 194.5 L 371 198 Q 368 197 369 200 L 371 201.5 Q 367.8 209.3 369 221.5 L 367 227.5 L 367.5 229 L 366 231 L 368 231.5 L 367 238 Q 363.3 236.8 365 242 L 367 243.5 L 364 278.5 L 365 282 L 363 282.5 L 364 283.5 L 364 300.5 L 369.5 308 L 374 309 L 374 311 L 380 311 L 380.5 309 L 391.5 309 L 395 308 Q 393.9 311.3 398 310 L 398.5 308 L 400.5 309 L 410.5 307 L 413.5 308 Q 421 307.5 424 302.5 Q 422.9 298.3 427 300 L 427 297 L 425 295.5 L 426 289 L 428 288.5 L 428 270 L 426 269.5 L 426 250 L 431 249 L 431.5 247 L 435 248 Q 434 251 437 250 L 438.5 248 L 451 251.5 L 451.5 253 L 452.5 251 L 461 256.5 L 465 264.5 L 466 272 Q 462.7 270.9 464 275 L 466 275.5 L 465 277.5 L 466 278.5 L 466 312.5 L 465 315 L 461 317.5 L 460.5 320 L 446 322 Q 447 319 444 320 Q 445.4 323.7 439.5 322 L 436 323 Q 437 320 434 321 L 433.5 323 L 431.5 322 L 422.5 324 L 419.5 323 L 406.5 325 L 381.5 326 L 379 327 Q 380.2 323.3 375 325 L 374.5 327 L 372.5 326 L 363 328 Q 364 325 361 326 L 360.5 328 L 358.5 327 L 357.5 328 L 343.5 328 L 330.5 327 L 329 327.5 L 328.5 326 L 320 326 L 319.5 328 L 311.5 328 L 293.5 326 L 292 326.5 L 291.5 325 L 284 325 Q 285.4 328.7 279.5 327 L 270 326 L 269.5 324 L 269 326 Q 260 326.6 255 322.5 L 255.5 321 L 252 319.5 Q 246.5 302.5 249 277.5 L 250 266 L 252 265.5 L 250 264.5 L 251 257 Q 254 258 253 255 L 251 254.5 L 252 251 Q 255.3 252.1 254 248 L 252 246.5 L 256 224.5 L 257.5 223 L 259 222.5 L 257 222 L 267 183.5 L 274 170 L 276 168.5 L 282 164.5 L 283.5 162 Q 292.5 157 305.5 156 L 307.5 157 L 324.5 155 Z M 313 167 L 289 170 L 281 173 L 275 180 L 275 183 L 272 185 L 274 186 L 270 200 L 267 202 L 269 202 L 265 219 L 263 220 L 265 221 L 264 223 L 262 224 L 264 224 L 261 239 Q 262 243 259 242 Q 258 245 261 244 L 260 247 Q 261 250 258 249 Q 257 252 260 251 L 258 264 L 259 304 L 262 304 L 267 307 L 279 308 L 284 307 L 287 308 L 313 308 L 314 309 L 324 308 L 324 310 Q 330 311 330 309 L 332 309 L 348 307 L 353 301 L 354 294 L 353 291 L 355 290 Q 356 287 353 288 L 355 279 L 354 275 L 356 274 L 356 268 L 354 268 L 356 261 L 355 259 L 357 258 Q 358 255 355 256 L 358 230 L 357 228 L 359 220 L 358 218 L 360 217 L 358 216 L 359 214 Q 358 209 361 210 Q 362 207 359 208 L 363 183 L 362 179 L 364 179 L 362 178 L 360 171 L 328 167 L 324 168 L 313 167 Z M 403 258 L 399 259 L 395 265 L 396 270 L 399 271 L 397 268 L 397 263 L 402 261 L 404 260 Q 403 264 410 262 L 412 267 L 414 259 Q 411 257 403 258 Z M 406 267 Q 407 271 402 269 L 402 271 L 413 270 L 414 267 L 411 269 L 409 267 L 406 267 Z M 438 275 Q 434 279 435 287 Q 439 288 438 285 L 443 286 L 446 284 Q 451 282 450 286 Q 455 284 457 288 L 456 293 L 447 292 Q 444 291 445 295 L 443 295 L 443 294 L 440 293 L 440 295 L 438 293 L 435 293 Q 434 297 437 296 Q 439 302 435 301 L 439 307 L 446 307 Q 445 303 452 305 L 452 303 L 459 299 L 459 282 L 457 281 L 458 279 L 456 275 L 440 276 L 438 275 Z " /><path fill="rgb(64,70,67)" stroke="rgb(64,70,67)" stroke-width="0.6" opacity="1" d="M 391.5 174 L 402.5 176 L 408 180.5 L 410 192.5 L 409 195.5 L 410 196.5 L 411 238.5 L 406.5 245 L 387.5 250 L 386 249.5 L 384.5 251 L 369.5 257 L 368.5 255 Q 371.5 255.7 370 252 L 368 250.5 L 372 217.5 L 371 214.5 L 372 209 L 374 208.5 L 372 208 L 376 181.5 L 380.5 176 L 391.5 174 Z " /><path fill="rgb(64,70,67)" stroke="rgb(64,70,67)" stroke-width="0.6" opacity="1" d="M 293.5 223 L 297 224 L 298 229.5 L 293.5 232 Q 290 231 291 225.5 L 293.5 223 Z " /><path fill="rgb(64,70,67)" stroke="rgb(64,70,67)" stroke-width="0.6" opacity="1" d="M 275 234 Q 278.3 232.7 277 237.5 L 279 242.5 L 277 241.5 L 275 234 Z " /><path fill="rgb(64,70,67)" stroke="rgb(64,70,67)" stroke-width="0.6" opacity="1" d="M 94.5 249 L 97 252.5 L 97 254.5 Q 98.3 259.3 95 258 Q 96.3 252.9 93 251.5 L 95 251.5 L 94.5 249 Z " /><path fill="rgb(64,70,67)" stroke="rgb(64,70,67)" stroke-width="0.6" opacity="1" d="M 211.5 256 L 212.5 258 L 215 256.5 L 222 278.5 L 223 286.5 L 225.5 291 L 244 291 Q 243 295.3 246 294.5 L 246 300.5 L 247 303.5 L 245 304.5 L 244.5 303 L 244 305 L 232 304 L 231.5 302 L 225 302 Q 226.4 306 219.5 304 L 210.5 303 L 207.5 301 L 205.5 302 Q 202 300 204 292.5 L 206 276 L 208 275.5 L 206 274.5 L 211.5 256 Z " /><path fill="rgb(64,70,67)" stroke="rgb(64,70,67)" stroke-width="0.6" opacity="1" d="M 301.5 305 L 313 305.5 L 301.5 306 L 301.5 305 Z " /><path fill="rgb(64,70,67)" stroke="rgb(64,70,67)" stroke-width="0.6" opacity="1" d="M 315.5 330 L 329 330.5 L 315.5 331 L 315.5 330 Z " /><path fill="rgb(64,70,67)" stroke="rgb(64,70,67)" stroke-width="0.6" opacity="1" d="M 212.5 334 L 233.5 335 L 237 336.5 L 236.5 339 L 218.5 345 Q 216.8 341.5 211 343 Q 212.2 347 206 345 L 205.5 342 L 196.5 342 L 195.5 338 L 212.5 334 Z " /><path fill="rgb(64,70,67)" stroke="rgb(64,70,67)" stroke-width="0.6" opacity="1" d="M 395.5 337 L 397.5 340 L 402 339 L 399.5 344 Q 396.9 344.8 398 341.5 L 397 341.5 Q 398.4 346.1 392.5 344 L 391 344.5 L 389 343 Q 390.3 346.3 385.5 345 L 382.5 346 L 380.5 345 L 378.5 346 L 375.5 344 L 373.5 344 L 367 341.5 L 367.5 339 L 373.5 340 Q 378.9 336.4 389.5 338 L 393.5 339 L 395.5 337 Z " /><path fill="rgb(64,70,67)" stroke="rgb(64,70,67)" stroke-width="0.6" opacity="1" d="M 462.5 337 Q 465.8 335.9 465 338.5 L 466 341 Q 472.8 342 476 348.5 L 479 355.5 L 480 372.5 L 479 374.5 L 480 376.5 L 474 394.5 L 464.5 406 L 455.5 411 L 449.5 412 L 448 411.5 Q 448.9 414.5 444.5 413 L 432.5 416 L 431.5 414 L 431 416 L 427.5 415 L 427 417 L 420 416 Q 421.3 419.3 416.5 418 L 409 420 L 408.5 418 L 408 420 L 405.5 421 L 405 419 L 400.5 421 L 399 421.5 L 397 420 Q 398.3 423 394.5 422 L 380 425 L 379.5 423 L 379 425 L 375.5 426 L 374.5 424 L 374 426 Q 363.5 429.2 347.5 428 L 342 426 L 341.5 424 Q 340 426.5 338.5 423 L 336 421.5 L 328 404.5 L 330 403.5 L 328 403 L 327 399.5 L 329 399 L 329 389.5 L 327 387.5 L 331 374 L 333 372.5 L 334 370.5 L 334 368.5 L 340.5 359 Q 351.4 350.9 368.5 349 L 369.5 351 L 370 349 L 395 346 L 395.5 348 L 396 346 L 402 345 L 402.5 347 L 403 345 L 411.5 344 L 413.5 345 L 439 341 L 439.5 343 L 440 341 L 447.5 340 L 448 342 Q 451.7 343.5 451 340.5 L 452.5 341 L 464 339.5 L 462.5 337 Z M 451 344 L 450 346 L 449 345 L 422 349 L 420 347 Q 417 346 418 349 L 414 350 L 411 349 L 406 351 Q 391 350 381 354 L 380 352 L 379 354 L 357 357 L 345 363 L 338 371 L 337 372 L 337 374 L 336 374 L 336 376 L 332 386 L 333 389 L 332 392 L 333 397 L 332 400 L 334 408 L 334 410 L 336 410 L 337 414 L 345 421 L 352 423 Q 362 424 369 421 L 370 423 Q 373 424 372 421 L 394 417 L 395 419 L 397 418 L 400 416 L 401 418 L 401 416 L 405 415 L 406 417 L 408 416 L 410 416 L 413 414 L 424 412 L 425 414 L 425 412 L 446 408 L 447 410 L 447 408 L 450 407 L 450 409 L 452 408 L 464 401 Q 470 395 473 385 L 473 383 Q 472 379 475 380 L 476 374 L 475 358 L 472 352 Q 469 346 461 345 L 451 346 L 451 344 Z " /><path fill="rgb(64,70,67)" stroke="rgb(64,70,67)" stroke-width="0.6" opacity="1" d="M 360.5 339 L 362 339.5 Q 359.3 341.3 363.5 343 L 365.5 342 L 366 344 Q 369.7 342.5 369 345.5 L 369.5 347 L 349.5 351 L 343 349 L 344 351.5 L 344 353.5 L 342.5 355 L 338.5 359 L 336 359.5 L 337 360.5 L 333.5 364 L 329 366.5 L 331 367 L 325.5 382 L 322 381 L 323 383.5 L 321.5 383 Q 317.5 383.8 318.5 381 L 314 381 Q 315 378 312 379 L 311.5 382 L 311 380 L 307 380 L 305.5 382 L 303 381 Q 304.2 377 298 379 L 296.5 381 L 295 378 L 288 377.5 L 290 376.5 L 287 374.5 L 292.5 363 L 297.5 362 L 299.5 363 Q 303 361 298.5 359 L 295 357.5 L 300 354.5 L 300.5 352 L 309.5 348 L 317 350 L 316 347.5 L 319 346.5 L 317 345.5 L 322.5 343 L 339 341 Q 338 344 341 343 L 341.5 341 L 349 341 L 349.5 343 L 350 341 L 356.5 342 L 360.5 339 Z M 329 347 L 329 349 L 328 348 Q 321 346 322 350 L 328 351 L 329 351 Q 328 354 332 352 L 331 349 L 329 347 Z " /><path fill="rgb(64,70,67)" stroke="rgb(64,70,67)" stroke-width="0.6" opacity="1" d="M 268.5 344 L 272.5 345 L 274 344.5 L 276 346 Q 274.8 343 278.5 344 L 292.5 346 L 294 345.5 Q 293.1 348.9 298.5 347 Q 302.5 349.5 296.5 352 L 295 353.5 L 288 362.5 L 284 378 L 282 378.5 L 284 379.5 L 281.5 383 L 249.5 383 L 248 381.5 L 249 372.5 L 248 370 L 250 369.5 L 247 369 L 242.5 362 L 236.5 360 Q 229.1 361.1 226 366.5 L 224.5 368 L 224 370.5 L 223 380.5 Q 224.1 387.9 229.5 391 Q 231.8 394.2 238.5 393 L 246.5 387 L 252.5 386 Q 256 387.3 255 392 L 261.5 394 L 263 393.5 Q 263.8 396.1 260.5 395 L 260.5 397 L 258.5 398 L 258 396 L 253.5 398 L 251 397 Q 252.3 400 248.5 399 L 230.5 401 L 221 394.5 L 216 382.5 L 218 382 L 218 374.5 L 216.5 374 L 217 372.5 Q 217 364 221.5 360 L 223 359.5 L 222 358.5 L 227.5 353 L 236.5 349 L 237.5 351 L 238 349 L 242.5 348 L 244.5 349 L 257.5 346 L 258 348 L 262.5 346 L 265 347 Q 263.8 344 267.5 345 L 268.5 344 Z " /><path fill="rgb(64,70,67)" stroke="rgb(64,70,67)" stroke-width="0.6" opacity="1" d="M 233.5 363 L 242 364 L 242.5 367 L 245 367.5 L 247 373 L 245 373 L 245 379 L 247 379.5 L 239.5 390 L 235 389 L 234.5 391 L 227 385.5 L 225 380.5 L 227 380 L 227 375 L 225.5 375 L 226 373.5 L 230.5 365 L 233.5 363 Z " /><path fill="rgb(64,70,67)" stroke="rgb(64,70,67)" stroke-width="0.6" opacity="1" d="M 386.5 377 Q 393 376 395 379.5 Q 398.5 383.5 397 392.5 L 392.5 400 L 384.5 401 Q 378.9 397.6 379 388.5 Q 379.5 381 384.5 378 L 386.5 377 Z " /><path fill="rgb(64,70,67)" stroke="rgb(64,70,67)" stroke-width="0.6" opacity="1" d="M 350.5 381 Q 357.7 380.3 360 384.5 Q 363.3 388.2 362 396.5 L 356.5 405 L 349.5 406 L 345 402.5 L 344 388.5 L 350.5 381 Z " /><path fill="rgb(64,70,67)" stroke="rgb(64,70,67)" stroke-width="0.6" opacity="1" d="M 196 401 Q 199 400 198 403 L 201 403 L 201.5 401 L 202 405.5 L 199 407 L 197.5 404 Q 194.5 404.7 196 401 Z " /><path fill="rgb(64,70,67)" stroke="rgb(64,70,67)" stroke-width="0.6" opacity="1" d="M 212 401 L 214 401.5 L 214.5 404 L 218 406.5 L 217.5 409 L 205 408 L 205 402 L 207 402 L 207 404 Q 210.8 402.5 210 405.5 L 209.5 407 L 213 405.5 L 212 401 Z " /><path fill="rgb(239,175,40)" stroke="rgb(239,175,40)" stroke-width="0.6" opacity="1" d="M 142.5 86 Q 155.7 84.8 159 93.5 Q 163.5 101 162 114.5 Q 161 123.8 157 129 Q 154 132.7 146.5 133 Q 137.3 131.3 133 124.5 Q 127.2 117.8 129 103.5 Q 131.6 92.1 140.5 87 L 142.5 86 Z M 145 96 L 143 97 Q 137 100 136 108 L 138 118 L 145 123 L 151 122 Q 156 119 157 111 L 155 102 Q 153 96 145 96 Z " /><path fill="rgb(239,175,40)" stroke="rgb(239,175,40)" stroke-width="0.6" opacity="1" d="M 123.5 119 L 134.5 133 Q 139.6 137.8 148 138 L 141 158.5 L 103.5 242 L 94.5 236 L 89 234.5 L 89 230.5 L 98 205.5 L 102 187.5 L 107 175.5 L 107 171.5 L 111 162.5 L 112 154.5 L 123.5 119 Z " /><path fill="rgb(239,175,40)" stroke="rgb(239,175,40)" stroke-width="0.6" opacity="1" d="M 309.5 138 Q 321.4 135.9 325 141 L 327 149.5 L 325.5 151 L 304 152 L 303 144.5 L 306.5 140 L 309.5 138 Z " /><path fill="rgb(239,175,40)" stroke="rgb(239,175,40)" stroke-width="0.6" opacity="1" d="M 147 155 L 150.5 155 L 187 186 L 190.5 191 L 192 192.5 L 196 198.5 L 201 212.5 L 201 214.5 L 205 229.5 L 209 237.5 L 211 250.5 L 205 261.5 L 200 288.5 L 200 290.5 L 200 312.5 Q 202.1 320.4 208.5 324 L 249.5 328 L 254.5 327 L 259 329 Q 260.3 332 256.5 331 L 255.5 330 L 212.5 330 L 194.5 334 L 179 345.5 Q 173.6 350.5 173 359 Q 169 360.4 171 353.5 L 167.5 349 L 159.5 347 L 155.5 348 L 145 331.5 Q 148 329.5 143 327.5 Q 136.2 311.3 133 291.5 L 133 289.5 Q 132.7 277.6 128 271 L 123.5 268 L 107 263.5 L 107 247.5 L 111 241.5 L 116 226.5 L 120 220.5 L 120 217.5 L 147 155 Z " /><path fill="rgb(239,175,40)" stroke="rgb(239,175,40)" stroke-width="0.6" opacity="1" d="M 286.5 214 L 295 215 L 296 217.5 L 293.5 218 L 286 221 Q 280.5 226.3 282 239.5 L 284 242.5 L 282.5 243 L 279 241 Q 280.3 235.9 277 234.5 L 277 228.5 L 280 219.5 L 284.5 215 L 286.5 214 Z " /><path fill="rgb(239,175,40)" stroke="rgb(239,175,40)" stroke-width="0.6" opacity="1" d="M 338 225 L 342 226 L 340.5 231 L 337 229.5 L 337.5 228 L 339 228.5 L 338 225 Z " /><path fill="rgb(239,175,40)" stroke="rgb(239,175,40)" stroke-width="0.6" opacity="1" d="M 431.5 240 L 440 241 L 440 243 Q 445.2 241.3 444 245 L 428 243 Q 426.8 240 430.5 241 L 431.5 240 Z " /><path fill="rgb(239,175,40)" stroke="rgb(239,175,40)" stroke-width="0.6" opacity="1" d="M 85.5 241 Q 96.3 239.2 99 245.5 Q 103.7 250.3 102 261.5 Q 100.1 271.1 92.5 275 L 79 284 L 80 266.5 Q 75.8 262.7 77 253.5 Q 78.2 245.7 83.5 242 L 85.5 241 Z M 89 247 L 87 248 L 82 255 L 84 263 Q 85 268 93 267 L 98 261 L 97 251 Q 95 246 89 247 Z " /><path fill="rgb(239,175,40)" stroke="rgb(239,175,40)" stroke-width="0.6" opacity="1" d="M 60.5 267 L 61 273.5 L 59 284.5 L 60 287 L 76.5 289 L 80.5 286 L 82.5 287 L 101 274 L 103.5 270 L 110 271 L 107 284.5 L 104.5 288 L 94 296.5 L 90 301.5 L 84 315.5 L 84 341.5 Q 87.8 356.7 97.5 366 L 103 370.5 L 97.5 372 L 68.5 367 L 50 358 L 45.5 352 L 44 350.5 L 37 339.5 L 34 323.5 L 34 314.5 Q 35.9 293.9 49.5 285 L 53.5 283 L 56.5 284 L 58 282.5 L 59 268.5 L 60.5 267 Z " /><path fill="rgb(239,175,40)" stroke="rgb(239,175,40)" stroke-width="0.6" opacity="1" d="M 116.5 271 L 125 276.5 L 128 286.5 L 130 304.5 L 135 320.5 Q 141.1 339.7 152 353 L 155.5 354 L 164.5 353 L 166 358.5 Q 161.1 365.6 149.5 366 L 139 357.5 L 137.5 356 L 125 335.5 L 115 307.5 L 115 305.5 L 111 287.5 L 111 285.5 Q 110.3 274.8 116.5 271 Z " /><path fill="rgb(239,175,40)" stroke="rgb(239,175,40)" stroke-width="0.6" opacity="1" d="M 67.5 272 L 74 274.5 Q 75.7 281.3 72.5 283 Q 66.7 283.8 65 280.5 Q 64 274 67.5 272 Z " /><path fill="rgb(239,175,40)" stroke="rgb(239,175,40)" stroke-width="0.6" opacity="1" d="M 106.5 291 L 121 336.5 Q 129 354 142.5 366 Q 145.5 365.2 144 369 L 120.5 373 Q 103.5 370.5 96 358.5 L 89 342.5 L 88 323.5 Q 89.3 301.8 103.5 293 L 106.5 291 Z " /><path fill="rgb(239,175,40)" stroke="rgb(239,175,40)" stroke-width="0.6" opacity="1" d="M 403 337 L 426 337.5 L 425 340 L 407.5 341 L 403 339 L 403 337 Z " /><path fill="rgb(239,175,40)" stroke="rgb(239,175,40)" stroke-width="0.6" opacity="1" d="M 263.5 338 L 267 339 L 265.5 341 L 259.5 342 L 256.5 341 L 248.5 344 L 239.5 344 L 237.5 346 L 227 348 L 225.5 350 L 221 353.5 L 214 363.5 Q 215.5 370 212 371.5 L 212 383.5 L 214 386.5 L 214 388.5 L 214 391.5 L 221.5 401 Q 227.8 407.2 242.5 405 L 244.5 403 L 251.5 402 L 254.5 403 L 257.5 401 L 278.5 399 L 282 397 L 280.5 400 L 263.5 402 L 259.5 404 L 252.5 404 L 249.5 406 L 247.5 405 L 239.5 406 L 236.5 408 L 227 408 Q 228.3 404.7 223.5 406 L 215 399.5 L 213 395.5 L 213 393.5 L 211 388.5 L 211 365.5 L 217 353.5 L 223.5 347 L 235.5 342 L 238.5 343 L 250.5 340 L 255.5 341 L 263.5 338 Z " /><path fill="rgb(239,175,40)" stroke="rgb(239,175,40)" stroke-width="0.6" opacity="1" d="M 187.5 344 L 206.5 345 L 215.5 347 L 218 346 L 216.5 348 L 210.5 356 L 181 354 Q 181.4 346.9 187.5 344 Z " /><path fill="rgb(239,175,40)" stroke="rgb(239,175,40)" stroke-width="0.6" opacity="1" d="M 429.5 351 L 431.5 352 L 441.5 351 Q 445.5 353.5 439.5 356 L 426.5 356 L 412.5 359 L 358.5 365 L 357 361 L 360.5 360 L 362.5 360 L 429.5 351 Z " /><path fill="rgb(239,175,40)" stroke="rgb(239,175,40)" stroke-width="0.6" opacity="1" d="M 179.5 357 L 202.5 359 L 209 361.5 L 204.5 373 L 177.5 370 L 176 368.5 Q 175.1 360.1 179.5 357 Z " /><path fill="rgb(239,175,40)" stroke="rgb(239,175,40)" stroke-width="0.6" opacity="1" d="M 452.5 367 L 459 370.5 L 460 380.5 L 456.5 388 L 451.5 389 L 446 384.5 L 445 376.5 L 450.5 368 L 452.5 367 Z " /><path fill="rgb(239,175,40)" stroke="rgb(239,175,40)" stroke-width="0.6" opacity="1" d="M 178 389 L 194.5 392 L 205.5 392 L 209 394.5 L 211 399.5 L 206.5 401 L 203.5 400 L 201.5 401 L 183.5 399 L 179 394.5 L 178 389 Z " /><path fill="rgb(239,175,40)" stroke="rgb(239,175,40)" stroke-width="0.6" opacity="1" d="M 302 418 L 318 419 Q 316.8 422 320.5 421 L 325.5 420 L 333 421 L 335 426 L 328.5 424 L 326.5 424 L 307.5 422 Q 306.3 419 302 420 L 302 418 Z " /><path fill="rgb(205,105,48)" stroke="rgb(205,105,48)" stroke-width="0.6" opacity="1" d="M 126.5 86 L 132 87.5 L 125 97.5 Q 123.2 112.7 117 123.5 L 116 128.5 L 114 137.5 L 112 139.5 L 112 141.5 L 101 179.5 L 98 184.5 L 97 193.5 L 94 198.5 L 92 209.5 L 90 211.5 L 89 219.5 L 85 228.5 L 85 230.5 L 82.5 236 L 72.5 236 L 71 234.5 L 75 224.5 L 75 219.5 L 85 189.5 L 85 185.5 L 88 179.5 Q 85.5 178 89 176.5 L 90 168.5 L 93 162.5 L 95 151.5 L 97 149.5 L 98 140.5 L 103 128.5 L 103 123.5 L 108 106.5 L 112 96.5 L 117.5 90 L 126.5 86 Z " /><path fill="rgb(205,105,48)" stroke="rgb(205,105,48)" stroke-width="0.6" opacity="1" d="M 369.5 137 L 373.5 138 L 375.5 138 L 382 141 L 384 151.5 Q 382.8 154.3 377.5 153 L 376.5 152 L 361.5 152 L 360 150.5 L 361 148.5 L 361 146.5 L 361 143.5 L 364.5 139 L 369.5 137 Z " /><path fill="rgb(205,105,48)" stroke="rgb(205,105,48)" stroke-width="0.6" opacity="1" d="M 153 141 L 156.5 141 L 213 188.5 L 223 212.5 L 228 233.5 L 230 235.5 L 232 246.5 L 235 252.5 L 236 260.5 L 238 262.5 L 240 273.5 L 245 286.5 L 242.5 287 L 229.5 287 L 227 284.5 L 221 260.5 L 215 244.5 L 213 232.5 L 211 230.5 L 202 199.5 Q 196.4 186.6 185.5 179 L 151 149.5 L 153 141 Z " /><path fill="rgb(205,105,48)" stroke="rgb(205,105,48)" stroke-width="0.6" opacity="1" d="M 309.5 172 L 332.5 172 L 350.5 174 L 352.5 174 Q 358 173 359 176.5 L 352 241.5 L 350 294.5 Q 349.6 301.1 345.5 304 L 309.5 304 L 306.5 305 L 305.5 304 L 265.5 303 L 264 301.5 L 262 297.5 L 261 278.5 L 262 277.5 L 263 249.5 L 267 224.5 L 276 187.5 Q 277.8 179.8 283.5 176 L 293.5 173 L 308.5 173 L 309.5 172 Z M 289 191 L 287 192 L 281 199 L 283 201 L 289 197 L 297 198 L 298 195 Q 296 190 289 191 Z M 335 191 L 329 195 L 331 198 L 334 197 Q 342 196 344 201 L 347 200 L 345 196 Q 343 190 335 191 Z M 289 210 L 284 212 Q 276 217 274 228 Q 273 236 276 242 Q 279 247 287 249 L 294 247 Q 301 242 303 232 Q 304 220 299 216 Q 296 211 289 210 Z M 332 211 L 326 214 Q 320 219 318 229 Q 317 238 321 244 L 331 250 Q 338 250 342 246 Q 347 241 348 233 Q 349 223 345 218 L 338 211 L 332 211 Z M 285 267 L 282 270 L 286 279 Q 292 287 308 287 L 310 287 L 323 280 L 324 278 L 332 272 L 331 270 L 324 267 L 325 270 L 322 275 L 311 282 Q 298 284 293 279 Q 287 275 285 267 Z " /><path fill="rgb(205,105,48)" stroke="rgb(205,105,48)" stroke-width="0.6" opacity="1" d="M 331.5 214 Q 339.6 213.4 342 218.5 L 343 220.5 Q 341.3 223.8 339.5 220 L 336.5 219 L 328 225.5 L 326 237.5 L 330 244.5 L 327.5 246 L 325 242 Q 322 243.3 323 239.5 Q 319.6 236.9 321 229.5 Q 322.4 219.4 329.5 215 L 331.5 214 Z " /><path fill="rgb(205,105,48)" stroke="rgb(205,105,48)" stroke-width="0.6" opacity="1" d="M 68.5 240 L 77 241 L 72 250.5 L 72 261.5 L 74 267 L 69.5 268 L 64 263.5 L 62 257.5 L 62 255.5 L 63 248.5 L 63 246.5 L 66.5 241 L 68.5 240 Z " /><path fill="rgb(205,105,48)" stroke="rgb(205,105,48)" stroke-width="0.6" opacity="1" d="M 91.5 251 Q 95.8 252.8 94 260.5 L 88 262 L 87 254.5 L 91.5 251 Z " /><path fill="rgb(205,105,48)" stroke="rgb(205,105,48)" stroke-width="0.6" opacity="1" d="M 442.5 278 Q 450.8 275.8 453 279.5 L 454.5 281 L 454.5 282 L 452.5 284 L 447.5 284 L 444.5 283 L 439.5 284 L 438 280.5 L 442.5 278 Z " /><path fill="rgb(205,105,48)" stroke="rgb(205,105,48)" stroke-width="0.6" opacity="1" d="M 438.5 296 L 451.5 296 L 453 297.5 L 453.5 299 L 454.5 296 L 456 299.5 L 453.5 302 L 439.5 302 L 437 297.5 L 438.5 296 Z " /><path fill="rgb(205,105,48)" stroke="rgb(205,105,48)" stroke-width="0.6" opacity="1" d="M 206.5 306 L 208.5 307 L 211.5 306 L 229.5 308 L 238.5 307 L 246 309.5 L 249 322 L 212.5 320 L 206 314.5 L 205 307.5 L 206.5 306 Z " /><path fill="rgb(205,105,48)" stroke="rgb(205,105,48)" stroke-width="0.6" opacity="1" d="M 404.5 329 Q 407.1 328.2 406 331.5 Q 404.1 334.8 398 333 Q 396.2 327.8 403.5 330 L 404.5 329 Z " /><path fill="rgb(205,105,48)" stroke="rgb(205,105,48)" stroke-width="0.6" opacity="1" d="M 275.5 330 L 285.5 331 L 287.5 330 L 288.5 331 L 360.5 333 L 364.5 332 L 366 332.5 L 368 331 Q 369.7 335.1 365.5 334 L 362.5 336 L 354.5 337 L 327.5 338 L 313.5 342 L 287.5 342 L 275.5 341 L 274 339.5 L 274.5 338 L 272 336.5 Q 269.5 329.6 274.5 331 L 275.5 330 Z " /><path fill="rgb(205,105,48)" stroke="rgb(205,105,48)" stroke-width="0.6" opacity="1" d="M 379.5 330 L 394 331.5 L 389 332 L 388.5 334 L 377.5 334 L 375.5 335 L 370 334 L 370 331 L 378.5 331 L 379.5 330 Z " /><path fill="rgb(205,105,48)" stroke="rgb(205,105,48)" stroke-width="0.6" opacity="1" d="M 439.5 336 L 448.5 336 L 449 338 L 438 337.5 L 439.5 336 Z " /><path fill="rgb(205,105,48)" stroke="rgb(205,105,48)" stroke-width="0.6" opacity="1" d="M 457 348 Q 466.2 348.1 470 354.5 L 471 358 L 458.5 349 L 457 349.5 L 457 348 Z " /><path fill="rgb(205,105,48)" stroke="rgb(205,105,48)" stroke-width="0.6" opacity="1" d="M 451.5 353 Q 460.9 353.1 465 358.5 Q 471.2 364.8 469 379.5 L 466 388.5 L 460.5 395 L 457.5 397 L 438.5 401 L 436.5 401 L 414.5 405 L 412.5 405 L 384.5 410 L 376.5 410 L 359.5 414 L 345.5 414 L 340 410.5 L 336 399.5 L 337 396.5 L 336 387.5 Q 336.9 376.4 343.5 371 Q 349.5 368 359.5 369 L 362.5 370 L 400.5 364 L 402.5 364 L 440.5 360 Q 444.2 354.7 451.5 353 Z M 450 364 L 447 366 L 441 377 Q 440 384 443 388 L 450 393 Q 456 394 459 391 L 464 383 Q 465 373 462 368 Q 459 362 450 364 Z M 417 370 Q 410 374 408 382 Q 407 390 410 394 L 419 400 L 425 398 L 431 391 L 432 385 L 431 377 Q 429 368 417 370 Z M 386 374 L 384 375 Q 377 379 376 388 Q 375 396 379 400 L 388 405 L 396 401 Q 401 396 400 384 L 400 382 L 393 374 L 386 374 Z M 351 378 L 346 381 L 340 393 L 343 405 L 349 409 L 358 408 Q 363 405 365 398 Q 367 388 363 384 Q 361 377 351 378 Z " /><path fill="rgb(205,105,48)" stroke="rgb(205,105,48)" stroke-width="0.6" opacity="1" d="M 176.5 373 L 203.5 376 L 206 378.5 Q 208 386 204.5 388 L 177 386 Q 173.7 383.2 175 374.5 L 176.5 373 Z " /><path fill="rgb(205,105,48)" stroke="rgb(205,105,48)" stroke-width="0.6" opacity="1" d="M 417.5 374 Q 424.5 372.5 426 376.5 L 427 388.5 L 423.5 394 L 418.5 396 L 413 391.5 L 412 384.5 Q 412.5 377 417.5 374 Z " /><path fill="rgb(205,105,48)" stroke="rgb(205,105,48)" stroke-width="0.6" opacity="1" d="M 287 381 L 324 384 L 325 387.5 L 323.5 402 L 319.5 400 L 317.5 400 Q 300.1 399.7 287 396 L 287 381 Z " /><path fill="rgb(205,105,48)" stroke="rgb(205,105,48)" stroke-width="0.6" opacity="1" d="M 258 387 L 271.5 387 L 272 388.5 L 271 390.5 L 272.5 390 Q 274.8 385.9 281 387 L 281 391 Q 278 390 279 393 L 275.5 393 L 266.5 394 L 258 388.5 L 258 387 Z " /><path fill="rgb(205,105,48)" stroke="rgb(205,105,48)" stroke-width="0.6" opacity="1" d="M 289 401 L 306.5 402 L 319.5 405 L 321.5 405 L 326 406.5 L 329 415.5 L 323.5 417 Q 314 413 299.5 414 L 291 409.5 L 289 401 Z " /><path fill="rgb(10,11,12)" stroke="rgb(10,11,12)" stroke-width="0.6" opacity="1" d="M 137.5 81 Q 155.8 79.7 162 90.5 L 165 101.5 L 168.5 105 L 229.5 147 L 242 158.5 Q 253.3 174.8 258 197 Q 262.5 198.8 261 193.5 L 270 170.5 L 276.5 163 L 284.5 158 L 298 153.5 Q 297.7 142.2 303.5 137 Q 307.8 132.8 316.5 133 Q 325 134.5 329 140.5 L 332.5 152 L 354.5 152 L 356 150.5 Q 356.2 139.2 363.5 135 L 374.5 133 Q 382.6 134.4 386 140.5 Q 389.5 144.5 388 153.5 L 389.5 155 Q 409.3 156.2 419 167.5 L 422 174.5 L 424 186.5 L 425 221.5 L 426 234.5 L 427.5 236 L 439.5 237 Q 446.9 238.1 450 243.5 L 453.5 249 Q 460.9 250.1 464 255.5 L 467 261.5 L 469 273.5 L 469 312.5 L 464.5 321 L 456.5 324 L 412.5 327 L 410 329.5 L 411.5 333 L 454.5 332 Q 470.6 332.9 477 343.5 Q 484.3 354.2 483 373.5 Q 480.8 397.8 465.5 409 L 458.5 413 L 443.5 417 L 368.5 430 L 349.5 431 L 347.5 430 L 341.5 431 L 306.5 426 Q 295.6 423.4 290 415.5 L 283.5 404 L 235.5 412 L 214.5 412 L 191.5 409 Q 182.2 405.8 177 398.5 Q 169.3 388.2 171 368.5 Q 173.4 351.4 183.5 342 Q 190.7 335.2 202.5 333 L 228.5 331 L 229.5 332 L 266.5 333 L 268 330.5 L 250.5 325 L 244.5 326 L 243.5 325 L 213.5 324 L 203 317.5 L 201 312.5 L 201 292.5 L 206 262.5 L 213 247.5 L 197 197.5 L 185.5 184 L 148.5 152 L 138 172.5 L 105 250.5 L 106 262.5 L 105 264.5 L 106.5 266 L 122.5 269 L 128 273.5 L 130 277.5 Q 132 299.5 138 317.5 Q 144 335.5 154.5 349 Q 166.3 346.3 169 352.5 L 170 359.5 L 165.5 365 Q 147.4 374.4 122.5 377 L 119.5 376 L 106.5 377 L 67.5 371 Q 53.1 366.9 44 357.5 Q 29 344 30 314.5 Q 31.8 292.8 45.5 283 L 54 277.5 Q 53.8 267.8 58 262.5 L 58 247.5 Q 60.8 238.3 68 233.5 L 103 109.5 Q 106.1 93.1 117.5 85 L 126.5 82 L 137.5 81 Z M 136 84 L 125 85 L 119 88 Q 111 93 108 103 L 70 236 L 76 237 L 76 239 L 68 239 Q 61 242 60 251 Q 59 261 64 266 L 72 270 L 76 269 L 74 263 Q 72 251 76 246 L 81 241 L 80 240 L 84 238 L 86 234 Q 85 230 88 231 L 87 236 L 98 239 L 102 244 Q 101 246 105 245 L 151 138 L 137 133 Q 127 128 126 115 L 123 114 Q 124 94 136 86 L 136 84 Z M 142 85 L 140 86 Q 131 92 128 104 Q 126 120 133 127 L 145 134 L 154 133 Q 161 128 163 117 Q 165 100 159 92 Q 155 83 142 85 Z M 168 107 L 165 111 L 164 123 L 155 137 L 206 177 Q 214 183 219 194 L 219 196 L 211 185 L 155 138 L 149 149 L 189 183 L 200 198 L 214 242 L 226 287 L 228 289 Q 229 291 226 290 L 215 257 Q 216 252 212 254 L 206 274 L 204 292 Q 202 300 206 303 L 204 306 L 205 316 L 213 321 L 230 323 L 250 323 L 251 322 Q 247 317 247 308 Q 243 306 247 304 Q 248 295 245 291 L 234 291 L 233 289 L 245 289 L 246 288 L 241 271 L 243 269 L 245 276 L 247 277 Q 248 239 258 208 L 258 203 L 248 175 L 239 160 L 221 144 L 168 107 Z M 313 136 L 309 137 Q 302 140 301 149 L 303 154 L 327 153 L 329 151 L 326 142 Q 322 136 313 136 Z M 369 136 L 365 138 Q 359 142 359 152 L 361 153 L 383 155 L 386 154 Q 386 144 382 139 Q 378 135 369 136 Z M 317 155 L 293 158 L 279 165 L 268 181 L 260 206 L 252 246 L 249 274 L 249 308 L 252 320 Q 254 325 262 326 L 303 327 L 304 328 L 330 328 L 331 327 L 333 328 L 370 328 L 396 325 L 440 323 L 461 320 Q 467 317 467 308 L 466 270 L 462 258 L 454 251 L 434 247 Q 427 245 426 249 L 426 290 L 424 290 L 424 237 L 423 236 L 422 192 L 420 178 L 417 170 L 403 160 L 380 156 L 361 156 L 360 155 L 321 155 L 320 156 L 317 155 Z M 89 239 L 84 241 Q 78 244 76 252 Q 74 262 78 267 Q 79 272 77 274 L 67 270 L 65 271 L 61 264 L 58 268 L 56 281 L 54 281 L 48 285 Q 36 293 33 311 Q 31 336 41 350 Q 49 362 65 367 L 103 374 Q 110 376 110 373 L 110 371 L 120 375 L 145 370 L 146 368 L 142 364 L 130 349 L 130 347 L 133 353 L 149 367 L 155 367 L 165 362 Q 168 361 167 355 L 165 352 L 154 352 Q 144 341 138 326 L 133 311 L 128 280 L 126 276 Q 123 271 117 270 L 115 271 L 112 269 L 104 268 L 101 272 L 85 284 L 83 284 L 97 273 Q 103 268 104 258 Q 104 249 100 245 Q 97 239 89 239 Z M 428 239 L 426 244 L 428 245 L 443 247 L 448 246 Q 442 238 428 239 Z M 394 328 L 357 331 L 294 330 L 293 329 L 272 329 L 270 331 L 271 340 L 274 342 L 285 343 L 292 342 L 294 343 L 314 343 L 339 338 L 357 338 L 392 334 L 406 334 L 408 330 L 407 328 L 394 328 Z M 211 334 L 194 339 L 192 342 L 186 344 L 179 353 L 180 355 Q 175 359 174 367 L 175 371 L 174 374 Q 172 384 177 388 L 176 390 L 180 398 L 185 400 L 186 403 L 192 406 L 209 409 L 222 408 L 227 409 L 239 409 L 280 402 L 284 400 L 283 396 L 255 401 Q 248 403 249 399 L 264 397 L 266 395 L 278 395 L 283 393 Q 284 386 282 385 L 278 386 L 272 385 L 256 386 L 257 390 L 261 393 L 259 393 Q 254 392 255 387 L 253 386 L 247 386 L 240 392 L 238 390 L 242 389 L 246 383 L 248 381 L 250 384 L 253 383 L 283 383 L 284 382 L 286 369 L 294 355 L 303 348 L 304 345 L 285 345 L 284 344 L 268 344 Q 256 348 241 348 L 229 352 Q 218 358 216 373 Q 214 388 221 396 L 229 401 L 241 401 L 241 403 Q 230 405 224 401 Q 216 396 214 385 Q 212 366 220 357 Q 225 349 235 347 L 259 343 L 267 343 L 269 341 L 267 337 L 263 338 Q 258 339 260 335 L 257 334 L 238 334 L 237 335 L 211 334 Z M 430 334 L 428 336 L 422 335 L 398 336 L 393 338 L 358 339 L 357 342 L 353 341 L 337 341 L 320 343 L 301 352 L 294 359 L 296 360 Q 299 359 298 362 L 294 361 L 287 374 L 288 378 L 286 381 L 286 397 L 288 399 L 287 401 L 291 412 L 295 414 L 295 417 L 306 423 L 330 427 L 339 427 L 339 426 L 330 419 L 332 416 L 334 420 L 340 425 L 348 429 L 372 427 L 446 414 Q 456 412 464 407 Q 476 397 480 378 Q 483 358 476 348 L 469 341 Q 464 342 466 337 L 446 334 L 438 335 L 430 334 Z " /><path fill="rgb(10,11,12)" stroke="rgb(10,11,12)" stroke-width="0.6" opacity="1" d="M 141.5 99 L 144 99.5 Q 139.2 100.9 140 106 L 138 104.5 L 141.5 99 Z " /><path fill="rgb(10,11,12)" stroke="rgb(10,11,12)" stroke-width="0.6" opacity="1" d="M 149.5 99 L 153 100.5 L 156 111 Q 152.3 112.3 154 106.5 L 149.5 99 Z " /><path fill="rgb(10,11,12)" stroke="rgb(10,11,12)" stroke-width="0.6" opacity="1" d="M 138 113 Q 141 111.8 140 115.5 L 143.5 120 L 138 115.5 L 138 113 Z " /><path fill="rgb(10,11,12)" stroke="rgb(10,11,12)" stroke-width="0.6" opacity="1" d="M 153 113 L 155 114.5 L 150.5 120 L 149 119.5 Q 153.8 118.1 153 113 Z " /><path fill="rgb(10,11,12)" stroke="rgb(10,11,12)" stroke-width="0.6" opacity="1" d="M 117 129 L 119 130.5 L 117 137 L 115 135.5 L 117 129 Z " /><path fill="rgb(10,11,12)" stroke="rgb(10,11,12)" stroke-width="0.6" opacity="1" d="M 109 155 L 111 156.5 L 108 166 L 106 164.5 L 109 155 Z " /><path fill="rgb(10,11,12)" stroke="rgb(10,11,12)" stroke-width="0.6" opacity="1" d="M 105 168 L 107 169.5 L 104 179 L 102 177.5 L 105 168 Z " /><path fill="rgb(10,11,12)" stroke="rgb(10,11,12)" stroke-width="0.6" opacity="1" d="M 306.5 168 L 328.5 169 L 334.5 168 L 355.5 170 L 361 173.5 L 362 184 Q 358.3 185.1 360 176.5 L 353.5 172 L 301.5 171 L 287.5 173 L 279 178.5 L 272 196.5 L 264 232.5 L 264 239 Q 260 240.4 262 233.5 L 271 193.5 L 277 177.5 L 281.5 173 L 289.5 170 L 306.5 168 Z " /><path fill="rgb(10,11,12)" stroke="rgb(10,11,12)" stroke-width="0.6" opacity="1" d="M 383.5 172 L 393.5 172 L 394 174 Q 382.6 171.9 378 177.5 L 374 189.5 L 372 212 L 370 211.5 L 370 203.5 L 374 180.5 L 379.5 173 L 383.5 172 Z " /><path fill="rgb(10,11,12)" stroke="rgb(10,11,12)" stroke-width="0.6" opacity="1" d="M 396 173 Q 405.1 172.2 409 177.5 L 411 188 Q 407.5 189.1 409 181.5 Q 405.2 175.1 396 175 L 396 173 Z " /><path fill="rgb(10,11,12)" stroke="rgb(10,11,12)" stroke-width="0.6" opacity="1" d="M 101 181 L 103 182.5 L 99 196 L 97 194.5 L 101 181 Z " /><path fill="rgb(10,11,12)" stroke="rgb(10,11,12)" stroke-width="0.6" opacity="1" d="M 359 186 L 361 186.5 L 361 195.5 L 358 222 L 356 221.5 L 356 211.5 L 359 186 Z " /><path fill="rgb(10,11,12)" stroke="rgb(10,11,12)" stroke-width="0.6" opacity="1" d="M 288.5 192 Q 295.8 190.8 297 195.5 L 294.5 196 L 287.5 196 L 283 199 L 285.5 194 L 288.5 192 Z " /><path fill="rgb(10,11,12)" stroke="rgb(10,11,12)" stroke-width="0.6" opacity="1" d="M 334.5 192 Q 342.6 191.9 345 197.5 Q 346.1 200.8 343.5 200 Q 341.3 194.7 332.5 196 L 330 197 L 332.5 193 L 334.5 192 Z " /><path fill="rgb(10,11,12)" stroke="rgb(10,11,12)" stroke-width="0.6" opacity="1" d="M 410 192 L 412 192.5 L 412 211.5 L 413 212.5 L 413 240.5 L 409.5 246 L 370.5 258 L 368 260.5 L 367 280 L 365 279.5 L 365 260.5 L 368 224 L 370 224.5 L 370 236.5 L 368 255.5 L 370.5 257 Q 387.2 249.2 407.5 245 L 410 242.5 L 411 240.5 L 411 211.5 L 410 210.5 L 410 192 Z " /><path fill="rgb(10,11,12)" stroke="rgb(10,11,12)" stroke-width="0.6" opacity="1" d="M 219.5 197 L 223 205 L 221 203.5 L 219.5 197 Z " /><path fill="rgb(10,11,12)" stroke="rgb(10,11,12)" stroke-width="0.6" opacity="1" d="M 96 198 L 98 199.5 L 95 209 L 93 207.5 L 96 198 Z " /><path fill="rgb(10,11,12)" stroke="rgb(10,11,12)" stroke-width="0.6" opacity="1" d="M 222 207 Q 225 205.8 224 209.5 L 227 218 Q 224 219.3 225 215.5 L 222 207 Z " /><path fill="rgb(10,11,12)" stroke="rgb(10,11,12)" stroke-width="0.6" opacity="1" d="M 92 211 L 94 212.5 L 92 219 L 90 217.5 L 92 211 Z " /><path fill="rgb(10,11,12)" stroke="rgb(10,11,12)" stroke-width="0.6" opacity="1" d="M 290.5 220 L 297 222.5 L 291 225.5 Q 290 231 293.5 232 L 298 229.5 L 299.5 225 Q 303 227 301 234.5 Q 299.1 242.2 293.5 246 Q 286 247 285 241.5 Q 282.1 237.9 283 230.5 Q 283.9 223.9 288.5 221 L 290.5 220 Z " /><path fill="rgb(10,11,12)" stroke="rgb(10,11,12)" stroke-width="0.6" opacity="1" d="M 333.5 221 Q 341.1 219.9 343 224.5 L 342.5 226 L 337.5 224 L 335 230.5 Q 335.8 233.8 340.5 233 L 343 228 L 347 229.5 Q 346.6 241.1 339.5 246 L 335.5 248 L 329 242.5 L 327 232.5 Q 327.8 224.3 333.5 221 Z " /><path fill="rgb(10,11,12)" stroke="rgb(10,11,12)" stroke-width="0.6" opacity="1" d="M 227 223 Q 230 221.8 229 225.5 L 232 234 Q 229 235.3 230 231.5 L 227 223 Z " /><path fill="rgb(10,11,12)" stroke="rgb(10,11,12)" stroke-width="0.6" opacity="1" d="M 231 236 Q 234 234.8 233 238.5 L 236 247 Q 233 248.3 234 244.5 L 231 236 Z " /><path fill="rgb(10,11,12)" stroke="rgb(10,11,12)" stroke-width="0.6" opacity="1" d="M 354 236 L 356 236.5 L 356 249.5 Q 352.9 263.6 354 281 L 352 279.5 L 351 276.5 L 354 236 Z " /><path fill="rgb(10,11,12)" stroke="rgb(10,11,12)" stroke-width="0.6" opacity="1" d="M 89.5 248 L 95 250 L 96 252.5 L 92.5 250 Q 86.5 249 85.5 253 L 86 251.5 L 87.5 250 L 89.5 248 Z " /><path fill="rgb(10,11,12)" stroke="rgb(10,11,12)" stroke-width="0.6" opacity="1" d="M 260 248 Q 263.5 246.9 262 254.5 L 261 264 L 259 263.5 L 259 255.5 L 260 248 Z " /><path fill="rgb(10,11,12)" stroke="rgb(10,11,12)" stroke-width="0.6" opacity="1" d="M 235 249 Q 238 247.8 237 251.5 L 241 264 Q 238 265.3 239 261.5 L 235 249 Z " /><path fill="rgb(10,11,12)" stroke="rgb(10,11,12)" stroke-width="0.6" opacity="1" d="M 258 266 L 260 266.5 L 260 297.5 L 265.5 304 L 292.5 306 L 343.5 306 L 349 302.5 L 350 298 Q 353.7 296.6 352 302.5 Q 349.8 307.4 343.5 308 L 293.5 308 L 292.5 307 L 270.5 307 L 264.5 306 L 260 302.5 L 258 298.5 L 258 266 Z " /><path fill="rgb(10,11,12)" stroke="rgb(10,11,12)" stroke-width="0.6" opacity="1" d="M 326 268 L 330 270.5 L 325 274.5 L 320.5 280 L 309 285 Q 307.8 282 311.5 283 Q 320.3 279.8 325 272.5 L 326 268 Z " /><path fill="rgb(10,11,12)" stroke="rgb(10,11,12)" stroke-width="0.6" opacity="1" d="M 285.5 273 Q 290 281.5 300 283 Q 301.3 286 297.5 285 L 286 276.5 L 285.5 273 Z " /><path fill="rgb(10,11,12)" stroke="rgb(10,11,12)" stroke-width="0.6" opacity="1" d="M 75 281 Q 78.7 279.6 77 285.5 L 72.5 287 L 61 285 L 62.5 282 L 64.5 284 L 73.5 285 L 75 281 Z " /><path fill="rgb(10,11,12)" stroke="rgb(10,11,12)" stroke-width="0.6" opacity="1" d="M 351 286 L 353 286.5 L 353 296 L 351 295.5 L 351 286 Z " /><path fill="rgb(10,11,12)" stroke="rgb(10,11,12)" stroke-width="0.6" opacity="1" d="M 104.5 289 L 106 289.5 L 94 300.5 L 90.5 307 L 90 304.5 L 101.5 291 L 104.5 289 Z " /><path fill="rgb(10,11,12)" stroke="rgb(10,11,12)" stroke-width="0.6" opacity="1" d="M 423 293 Q 426.5 291.9 425 299.5 L 421.5 305 L 411 307 Q 409.9 303.5 417.5 305 L 422 301.5 L 423 293 Z " /><path fill="rgb(10,11,12)" stroke="rgb(10,11,12)" stroke-width="0.6" opacity="1" d="M 365 300 Q 368 298.8 367 302.5 L 371.5 307 L 388 307 L 387.5 309 L 372.5 309 L 365 303.5 L 365 300 Z " /><path fill="rgb(10,11,12)" stroke="rgb(10,11,12)" stroke-width="0.6" opacity="1" d="M 222 304 L 233.5 304 L 234 306 L 222.5 306 L 222 304 Z " /><path fill="rgb(10,11,12)" stroke="rgb(10,11,12)" stroke-width="0.6" opacity="1" d="M 392 306 L 406.5 306 L 407 308 L 392.5 308 L 392 306 Z " /><path fill="rgb(10,11,12)" stroke="rgb(10,11,12)" stroke-width="0.6" opacity="1" d="M 436.5 338 L 444 339 Q 445.1 342.8 436.5 341 L 429 342 Q 427.6 338 434.5 340 L 436.5 338 Z " /><path fill="rgb(10,11,12)" stroke="rgb(10,11,12)" stroke-width="0.6" opacity="1" d="M 449 338 L 462.5 338 L 463 340 L 449.5 340 L 449 338 Z " /><path fill="rgb(10,11,12)" stroke="rgb(10,11,12)" stroke-width="0.6" opacity="1" d="M 235.5 339 Q 240.3 337.7 239 341 Q 222 342.3 215 354.5 L 210.5 363 L 210 357 L 213 355.5 L 221.5 344 L 235.5 339 Z " /><path fill="rgb(10,11,12)" stroke="rgb(10,11,12)" stroke-width="0.6" opacity="1" d="M 87 344 Q 90 342.8 89 346.5 L 93 355.5 L 91 354.5 L 87 344 Z " /><path fill="rgb(10,11,12)" stroke="rgb(10,11,12)" stroke-width="0.6" opacity="1" d="M 445.5 346 L 455.5 346 L 456 348 L 370.5 357 L 350.5 362 L 346 365.5 Q 345.2 368.1 348.5 367 L 405.5 361 L 404.5 363 L 366.5 367 L 360.5 369 L 349.5 368 L 340 372.5 Q 332.5 382 335 401.5 Q 336.5 410 342.5 414 L 346 415 L 347.5 420 Q 351.3 419 350 422 Q 342.9 420.8 339 415.5 L 333 403.5 L 333 383.5 Q 336.1 368.1 347.5 361 L 361.5 356 L 445.5 346 Z " /><path fill="rgb(10,11,12)" stroke="rgb(10,11,12)" stroke-width="0.6" opacity="1" d="M 461 346 Q 468.3 345.9 471 351.5 Q 475 355.8 475 363 Q 471.7 364.3 473 359.5 Q 471.9 352.1 466.5 349 L 461 348 L 461 346 Z " /><path fill="rgb(10,11,12)" stroke="rgb(10,11,12)" stroke-width="0.6" opacity="1" d="M 368.5 347 Q 374.4 345.3 373 349 L 358 351 Q 356.7 347.7 361.5 349 L 368.5 347 Z " /><path fill="rgb(10,11,12)" stroke="rgb(10,11,12)" stroke-width="0.6" opacity="1" d="M 449.5 350 Q 463.2 349.3 468 357.5 L 471 365 L 469 363.5 L 461.5 354 Q 457.9 351.1 450.5 352 L 438.5 359 L 415.5 361 L 416.5 359 L 439.5 357 L 449.5 350 Z " /><path fill="rgb(10,11,12)" stroke="rgb(10,11,12)" stroke-width="0.6" opacity="1" d="M 348.5 351 Q 353.3 349.7 352 353 Q 342.1 354.7 337 362.5 L 330 376 L 328 375.5 L 333 366.5 L 332 364 L 348.5 351 Z " /><path fill="rgb(10,11,12)" stroke="rgb(10,11,12)" stroke-width="0.6" opacity="1" d="M 93.5 357 L 103.5 368 L 106 369.5 L 104.5 369 L 95 361.5 L 93.5 357 Z " /><path fill="rgb(10,11,12)" stroke="rgb(10,11,12)" stroke-width="0.6" opacity="1" d="M 233.5 361 L 239.5 361 L 246 365.5 L 248 371 Q 245 372.3 246 368.5 Q 244.3 361.3 233.5 363 L 226.5 369 L 227 367.5 L 231.5 362 L 233.5 361 Z " /><path fill="rgb(10,11,12)" stroke="rgb(10,11,12)" stroke-width="0.6" opacity="1" d="M 417.5 371 L 419 373 L 414 375.5 L 411.5 379 L 412 377.5 L 415.5 372 L 417.5 371 Z " /><path fill="rgb(10,11,12)" stroke="rgb(10,11,12)" stroke-width="0.6" opacity="1" d="M 422 371 L 428 374.5 L 427.5 377 L 422 373 L 422 371 Z " /><path fill="rgb(10,11,12)" stroke="rgb(10,11,12)" stroke-width="0.6" opacity="1" d="M 206 373 L 209 373.5 L 209 384 Q 205.3 385.1 207 376.5 L 206 373 Z " /><path fill="rgb(10,11,12)" stroke="rgb(10,11,12)" stroke-width="0.6" opacity="1" d="M 386.5 375 L 388 377 L 380.5 382 L 380 380.5 L 386.5 375 Z " /><path fill="rgb(10,11,12)" stroke="rgb(10,11,12)" stroke-width="0.6" opacity="1" d="M 390 375 L 396 378.5 L 397 380.5 L 393.5 378 L 390 377 L 390 375 Z " /><path fill="rgb(10,11,12)" stroke="rgb(10,11,12)" stroke-width="0.6" opacity="1" d="M 351.5 379 L 355.5 379 L 361 382.5 L 364 388.5 L 364 396.5 L 359.5 405 L 357.5 406 L 359 403.5 Q 363.7 398.7 362 387.5 L 356.5 381 L 350 380.5 L 351.5 379 Z " /><path fill="rgb(10,11,12)" stroke="rgb(10,11,12)" stroke-width="0.6" opacity="1" d="M 469 381 L 472 382.5 L 471 390.5 L 460.5 403 L 450 407 Q 448.8 404 452.5 405 L 460 400.5 L 459.5 399 L 456.5 401 L 435.5 405 L 348 418 Q 346.9 414.3 355.5 416 L 452.5 400 Q 462.3 397.2 467 389.5 L 469 381 Z " /><path fill="rgb(10,11,12)" stroke="rgb(10,11,12)" stroke-width="0.6" opacity="1" d="M 224 382 L 226 383.5 L 231.5 390 L 233 392 L 226 387.5 L 224 382 Z " /><path fill="rgb(10,11,12)" stroke="rgb(10,11,12)" stroke-width="0.6" opacity="1" d="M 443 383 Q 446 381.8 445 385.5 Q 446.2 391.3 454.5 390 L 459 386.5 L 460.5 384 L 461 386.5 Q 459.1 393.1 449.5 392 L 445 388.5 L 443 383 Z " /><path fill="rgb(10,11,12)" stroke="rgb(10,11,12)" stroke-width="0.6" opacity="1" d="M 208 387 Q 212 385.6 210 392.5 L 218.5 405 L 220 407 L 213 402.5 Q 215.5 401 212 399.5 L 207 389.5 L 208 387 Z " /><path fill="rgb(10,11,12)" stroke="rgb(10,11,12)" stroke-width="0.6" opacity="1" d="M 411.5 391 L 414.5 395 L 417 396.5 L 414.5 397 Q 409.7 395.7 411.5 391 Z " /><path fill="rgb(10,11,12)" stroke="rgb(10,11,12)" stroke-width="0.6" opacity="1" d="M 379.5 396 L 384.5 402 L 380 399.5 L 379.5 396 Z " /><path fill="rgb(10,11,12)" stroke="rgb(10,11,12)" stroke-width="0.6" opacity="1" d="M 343.5 400 L 347.5 405 L 351 406 L 349.5 408 L 343 402.5 L 343.5 400 Z " /><path fill="rgb(10,11,12)" stroke="rgb(10,11,12)" stroke-width="0.6" opacity="1" d="M 325.5 401 Q 330.1 399.6 328 405.5 L 331 414.5 L 329 413.5 L 325.5 404 L 324 402.5 L 325.5 401 Z " /><path fill="rgb(10,11,12)" stroke="rgb(10,11,12)" stroke-width="0.6" opacity="1" d="M 440.5 407 Q 445.3 405.7 444 409 L 434 410 Q 432.6 406 439.5 408 L 440.5 407 Z " /><path fill="rgb(10,11,12)" stroke="rgb(10,11,12)" stroke-width="0.6" opacity="1" d="M 423.5 410 Q 427.3 409 426 412 L 411 414 Q 409.6 410 416.5 412 L 423.5 410 Z " /><path fill="rgb(10,11,12)" stroke="rgb(10,11,12)" stroke-width="0.6" opacity="1" d="M 393.5 415 Q 399.4 413.3 398 417 L 381 419 Q 379.6 415 386.5 417 L 393.5 415 Z " /><path fill="rgb(38,40,40)" stroke="rgb(38,40,40)" stroke-width="0.6" opacity="1" d="M 145.5 97 L 151 98.5 L 148.5 100 L 145.5 99 L 143.5 99 L 142 98.5 L 145.5 97 Z " /><path fill="rgb(38,40,40)" stroke="rgb(38,40,40)" stroke-width="0.6" opacity="1" d="M 152.5 115 L 155 115.5 L 150.5 121 L 145.5 122 L 143 120.5 L 143.5 118 L 147.5 120 L 149.5 120 L 153 117.5 L 152.5 115 Z " /><path fill="rgb(38,40,40)" stroke="rgb(38,40,40)" stroke-width="0.6" opacity="1" d="M 120.5 121 L 121 124.5 L 120 129 L 117 128.5 L 120.5 121 Z " /><path fill="rgb(38,40,40)" stroke="rgb(38,40,40)" stroke-width="0.6" opacity="1" d="M 114 137 L 117 137.5 L 115 145 L 112 144.5 L 114 137 Z " /><path fill="rgb(38,40,40)" stroke="rgb(38,40,40)" stroke-width="0.6" opacity="1" d="M 312.5 167 L 323.5 168 L 327.5 167 L 328.5 169 L 311 168.5 L 312.5 167 Z " /><path fill="rgb(38,40,40)" stroke="rgb(38,40,40)" stroke-width="0.6" opacity="1" d="M 336 212 L 343 216.5 L 344 218.5 L 338.5 214 Q 334.8 215 336 212 Z " /><path fill="rgb(38,40,40)" stroke="rgb(38,40,40)" stroke-width="0.6" opacity="1" d="M 328.5 213 L 331 213.5 L 322.5 221 L 323 219.5 L 328.5 213 Z " /><path fill="rgb(38,40,40)" stroke="rgb(38,40,40)" stroke-width="0.6" opacity="1" d="M 296.5 221 L 298.5 225 L 300 224.5 L 297 226 L 295.5 224 L 295.5 223 L 297 222.5 L 296.5 221 Z " /><path fill="rgb(38,40,40)" stroke="rgb(38,40,40)" stroke-width="0.6" opacity="1" d="M 84.5 236 L 83.5 238 L 80 239.5 Q 82.8 241.3 78.5 243 L 79 241.5 Q 79.7 238.5 76 240 L 76 237 L 84.5 236 Z " /><path fill="rgb(38,40,40)" stroke="rgb(38,40,40)" stroke-width="0.6" opacity="1" d="M 88.5 248 Q 90.6 250.8 86 253.5 L 84 255 L 85.5 251 L 88 250.5 L 88.5 248 Z " /><path fill="rgb(38,40,40)" stroke="rgb(38,40,40)" stroke-width="0.6" opacity="1" d="M 95 258 Q 98 256.8 97 260.5 L 93.5 265 L 91 263.5 L 92.5 264 L 95 262.5 L 96 260.5 L 95 258 Z " /><path fill="rgb(38,40,40)" stroke="rgb(38,40,40)" stroke-width="0.6" opacity="1" d="M 402.5 258 Q 411.8 255.8 414 260.5 L 412.5 262 L 410.5 260 L 403.5 259 L 400 261 L 401.5 259 L 402.5 258 Z " /><path fill="rgb(38,40,40)" stroke="rgb(38,40,40)" stroke-width="0.6" opacity="1" d="M 84 259 L 86 260.5 L 89 265 L 85 262.5 L 85.5 261 L 84 259 Z " /><path fill="rgb(38,40,40)" stroke="rgb(38,40,40)" stroke-width="0.6" opacity="1" d="M 396.5 261 L 399 261.5 Q 395.9 262.9 396.5 268 L 395 264.5 L 396.5 261 Z " /><path fill="rgb(38,40,40)" stroke="rgb(38,40,40)" stroke-width="0.6" opacity="1" d="M 111.5 269 L 114.5 271 L 116.5 270 L 116.5 271 L 111 274.5 L 111 276.5 Q 112.3 281.3 109 280 L 112 270.5 L 111.5 269 Z " /><path fill="rgb(38,40,40)" stroke="rgb(38,40,40)" stroke-width="0.6" opacity="1" d="M 283 269 L 285 270.5 L 288 274.5 L 286 274.5 L 285.5 276 L 283 269 Z " /><path fill="rgb(38,40,40)" stroke="rgb(38,40,40)" stroke-width="0.6" opacity="1" d="M 440.5 275 Q 446.4 273.3 445 277 Q 438.7 275.5 437 279.5 L 438 284.5 L 436 285 L 435.5 287 L 435 280.5 L 437.5 276 L 440.5 275 Z " /><path fill="rgb(38,40,40)" stroke="rgb(38,40,40)" stroke-width="0.6" opacity="1" d="M 448 275 L 456 275 L 458 279 Q 455.2 275.8 448 277 L 448 275 Z " /><path fill="rgb(38,40,40)" stroke="rgb(38,40,40)" stroke-width="0.6" opacity="1" d="M 62 278 Q 65 276.8 64 280.5 L 64.5 283 L 66 283.5 L 64.5 284 L 61 282.5 L 62 278 Z " /><path fill="rgb(38,40,40)" stroke="rgb(38,40,40)" stroke-width="0.6" opacity="1" d="M 365 280 L 367 280.5 L 367 289.5 L 366 297.5 L 367 300 L 364.5 301 L 363 282.5 L 365 282 L 365 280 Z " /><path fill="rgb(38,40,40)" stroke="rgb(38,40,40)" stroke-width="0.6" opacity="1" d="M 457 281 L 459 281.5 L 459 299 Q 456 300.3 457 296.5 L 451 295 Q 449.7 291 456 293 L 456.5 295 L 457 287.5 L 456.5 286 L 458 284.5 L 457 281 Z " /><path fill="rgb(38,40,40)" stroke="rgb(38,40,40)" stroke-width="0.6" opacity="1" d="M 423.5 282 L 424 290 Q 427.7 288.6 426 294.5 L 425 294.5 L 423 292.5 L 423.5 282 Z " /><path fill="rgb(38,40,40)" stroke="rgb(38,40,40)" stroke-width="0.6" opacity="1" d="M 466.5 282 L 467 307.5 L 466 307.5 L 466.5 282 Z " /><path fill="rgb(38,40,40)" stroke="rgb(38,40,40)" stroke-width="0.6" opacity="1" d="M 108.5 285 L 108 286.5 L 108.5 289 L 111 289.5 Q 112.3 294.3 109 293 L 107.5 289 L 105 288.5 L 108.5 285 Z " /><path fill="rgb(38,40,40)" stroke="rgb(38,40,40)" stroke-width="0.6" opacity="1" d="M 226.5 286 L 228.5 288 L 244.5 288 L 246 287.5 L 244.5 289 L 233 289 Q 234.1 292.7 225.5 291 L 224.5 289 L 228 290 L 226.5 286 Z " /><path fill="rgb(38,40,40)" stroke="rgb(38,40,40)" stroke-width="0.6" opacity="1" d="M 94.5 298 Q 97.5 299.5 94.5 301 L 93 300.5 L 94 302.5 Q 92.5 305.5 91 302.5 L 94.5 298 Z " /><path fill="rgb(38,40,40)" stroke="rgb(38,40,40)" stroke-width="0.6" opacity="1" d="M 111 300 Q 114.3 298.7 113 303.5 L 117 317 Q 114 318.3 115 314.5 L 111 300 Z " /><path fill="rgb(38,40,40)" stroke="rgb(38,40,40)" stroke-width="0.6" opacity="1" d="M 234 304 L 244.5 305 L 247 307.5 L 245.5 307 L 234 306 L 234 304 Z " /><path fill="rgb(38,40,40)" stroke="rgb(38,40,40)" stroke-width="0.6" opacity="1" d="M 384 305 L 392 306 Q 393.6 310.9 388 309 L 388 307 Q 382.8 308.7 384 305 Z " /><path fill="rgb(38,40,40)" stroke="rgb(38,40,40)" stroke-width="0.6" opacity="1" d="M 406.5 305 L 410.5 305 Q 409.5 307.8 413.5 307 L 413.5 308 L 410.5 307 L 407 308 L 406.5 305 Z " /><path fill="rgb(38,40,40)" stroke="rgb(38,40,40)" stroke-width="0.6" opacity="1" d="M 89.5 306 L 90 308.5 L 87.5 315 L 86 314.5 L 89.5 306 Z " /><path fill="rgb(38,40,40)" stroke="rgb(38,40,40)" stroke-width="0.6" opacity="1" d="M 119.5 323 L 123 333 L 121 332.5 L 121.5 331 L 120 329.5 L 118 324.5 L 119.5 323 Z " /><path fill="rgb(38,40,40)" stroke="rgb(38,40,40)" stroke-width="0.6" opacity="1" d="M 233.5 325 L 244 325.5 L 233.5 326 L 233.5 325 Z " /><path fill="rgb(38,40,40)" stroke="rgb(38,40,40)" stroke-width="0.6" opacity="1" d="M 332.5 327 L 343 327.5 L 332.5 328 L 332.5 327 Z " /><path fill="rgb(38,40,40)" stroke="rgb(38,40,40)" stroke-width="0.6" opacity="1" d="M 279.5 329 L 293 329.5 L 279.5 330 L 279.5 329 Z " /><path fill="rgb(38,40,40)" stroke="rgb(38,40,40)" stroke-width="0.6" opacity="1" d="M 329.5 330 L 344 330.5 L 329.5 331 L 329.5 330 Z " /><path fill="rgb(38,40,40)" stroke="rgb(38,40,40)" stroke-width="0.6" opacity="1" d="M 229.5 331 L 240 331.5 L 229.5 332 L 229.5 331 Z " /><path fill="rgb(38,40,40)" stroke="rgb(38,40,40)" stroke-width="0.6" opacity="1" d="M 214.5 334 L 229 334.5 L 214.5 335 L 214.5 334 Z " /><path fill="rgb(38,40,40)" stroke="rgb(38,40,40)" stroke-width="0.6" opacity="1" d="M 127.5 342 L 127.5 344 L 130 345.5 L 131 347.5 Q 129.5 350.5 128 347.5 L 126 343.5 L 127.5 342 Z " /><path fill="rgb(38,40,40)" stroke="rgb(38,40,40)" stroke-width="0.6" opacity="1" d="M 470.5 342 L 475.5 348 L 470.5 342 Z " /><path fill="rgb(38,40,40)" stroke="rgb(38,40,40)" stroke-width="0.6" opacity="1" d="M 375.5 344 L 378 345.5 L 376.5 345 Q 373.5 344.2 375 348 L 379 348.5 L 373 349 L 375.5 344 Z " /><path fill="rgb(38,40,40)" stroke="rgb(38,40,40)" stroke-width="0.6" opacity="1" d="M 313.5 345 L 314 347 L 317 348.5 L 315.5 350 L 310 348.5 L 313.5 345 Z " /><path fill="rgb(38,40,40)" stroke="rgb(38,40,40)" stroke-width="0.6" opacity="1" d="M 450.5 348 L 451 350 L 447 352.5 L 447.5 354 L 445 352.5 L 448 350.5 L 449.5 349 L 450.5 348 Z " /><path fill="rgb(38,40,40)" stroke="rgb(38,40,40)" stroke-width="0.6" opacity="1" d="M 468.5 348 L 474 355.5 L 472 355.5 L 471.5 357 L 471 355.5 L 472 353.5 Q 469 355.5 466 349.5 L 471 352.5 L 468.5 348 Z " /><path fill="rgb(38,40,40)" stroke="rgb(38,40,40)" stroke-width="0.6" opacity="1" d="M 344.5 354 Q 347.5 355.5 344.5 357 L 342.5 356 L 341.5 359 Q 338 357 342.5 355 L 344.5 354 Z " /><path fill="rgb(38,40,40)" stroke="rgb(38,40,40)" stroke-width="0.6" opacity="1" d="M 182 355 L 198 356 Q 199.3 359 195.5 358 L 193.5 358 L 182 357 L 182 355 Z " /><path fill="rgb(38,40,40)" stroke="rgb(38,40,40)" stroke-width="0.6" opacity="1" d="M 97.5 361 L 104 367.5 L 102.5 369 L 97.5 361 Z " /><path fill="rgb(38,40,40)" stroke="rgb(38,40,40)" stroke-width="0.6" opacity="1" d="M 230.5 362 L 227 366.5 L 227.5 368 L 229 367.5 L 226.5 371 L 224 370.5 L 230.5 362 Z " /><path fill="rgb(38,40,40)" stroke="rgb(38,40,40)" stroke-width="0.6" opacity="1" d="M 452.5 364 Q 457.8 362.5 456 367 Q 447.9 365.5 446 371.5 L 445 376 Q 442 377.3 443 373.5 L 444 371 L 446 370.5 L 445.5 369 Q 447.2 371.8 449 367.5 L 449.5 365 L 452.5 364 Z " /><path fill="rgb(38,40,40)" stroke="rgb(38,40,40)" stroke-width="0.6" opacity="1" d="M 459.5 366 Q 464.2 368.8 463 377.5 L 462 377.5 L 461 372.5 L 461.5 371 L 457 367.5 L 460 368.5 L 459.5 366 Z " /><path fill="rgb(38,40,40)" stroke="rgb(38,40,40)" stroke-width="0.6" opacity="1" d="M 105.5 368 L 107.5 371 L 109 370.5 L 110 373.5 L 109 373.5 L 107.5 372 L 104 369.5 L 105.5 368 Z " /><path fill="rgb(38,40,40)" stroke="rgb(38,40,40)" stroke-width="0.6" opacity="1" d="M 470 370 L 472 370 Q 470.3 375.2 474 374 Q 473 371 476 372 L 475 377 L 470 377 L 470 370 Z " /><path fill="rgb(38,40,40)" stroke="rgb(38,40,40)" stroke-width="0.6" opacity="1" d="M 118.5 373 L 128 373.5 L 119.5 375 L 118.5 373 Z " /><path fill="rgb(38,40,40)" stroke="rgb(38,40,40)" stroke-width="0.6" opacity="1" d="M 411.5 377 L 412 379.5 L 411 384 L 409 382.5 L 410 379 L 412 378.5 L 411.5 377 Z " /><path fill="rgb(38,40,40)" stroke="rgb(38,40,40)" stroke-width="0.6" opacity="1" d="M 350.5 379 L 350 380.5 L 346.5 385 L 348.5 380 L 350.5 379 Z " /><path fill="rgb(38,40,40)" stroke="rgb(38,40,40)" stroke-width="0.6" opacity="1" d="M 396.5 379 L 396.5 381 L 398 382.5 L 399 392.5 L 397.5 396 L 396 393.5 L 397 383.5 L 395 380.5 L 396.5 379 Z " /><path fill="rgb(38,40,40)" stroke="rgb(38,40,40)" stroke-width="0.6" opacity="1" d="M 470.5 379 L 475 379.5 L 473 380 L 474 383.5 L 471.5 389 L 471 386.5 L 472 382.5 L 469 380.5 L 470.5 379 Z " /><path fill="rgb(38,40,40)" stroke="rgb(38,40,40)" stroke-width="0.6" opacity="1" d="M 379.5 381 L 380 383.5 L 379 391.5 L 381 396.5 L 379.5 399 L 377 387.5 L 379.5 381 Z " /><path fill="rgb(38,40,40)" stroke="rgb(38,40,40)" stroke-width="0.6" opacity="1" d="M 175.5 385 Q 179 388.2 186 387 Q 187.1 390.5 179.5 389 L 175.5 385 Z " /><path fill="rgb(38,40,40)" stroke="rgb(38,40,40)" stroke-width="0.6" opacity="1" d="M 428 385 Q 431.3 383.7 430 388.5 L 427.5 394 L 426 391.5 L 428 385 Z " /><path fill="rgb(38,40,40)" stroke="rgb(38,40,40)" stroke-width="0.6" opacity="1" d="M 246.5 386 L 251 386.5 Q 245.1 386.1 243.5 390 L 246.5 386 Z " /><path fill="rgb(38,40,40)" stroke="rgb(38,40,40)" stroke-width="0.6" opacity="1" d="M 391.5 400 L 392.5 402 L 384.5 403 L 382 401.5 L 383.5 401 L 385.5 401 L 391.5 400 Z " /><path fill="rgb(38,40,40)" stroke="rgb(38,40,40)" stroke-width="0.6" opacity="1" d="M 330.5 411 L 333 416.5 L 331 416.5 L 330 418.5 L 330.5 420 Q 324.6 421.7 326 418 Q 331.2 420.1 330 415.5 L 330 413.5 L 330.5 411 Z " /><path fill="rgb(90,93,89)" stroke="rgb(90,93,89)" stroke-width="0.6" opacity="1" d="M 412 193 L 414 193.5 L 414 203 L 412 202.5 L 412 193 Z " /><path fill="rgb(90,93,89)" stroke="rgb(90,93,89)" stroke-width="0.6" opacity="1" d="M 426 270 L 428 270.5 L 428 289 L 426 288.5 L 426 270 Z " /><path fill="rgb(90,93,89)" stroke="rgb(90,93,89)" stroke-width="0.6" opacity="1" d="M 469.5 284 L 470 307.5 L 469 307.5 L 469.5 284 Z " /><path fill="rgb(90,93,89)" stroke="rgb(90,93,89)" stroke-width="0.6" opacity="1" d="M 436.5 304 L 446 305 Q 447.1 308.8 438.5 307 L 436.5 304 Z " /><path fill="rgb(90,93,89)" stroke="rgb(90,93,89)" stroke-width="0.6" opacity="1" d="M 313.5 305 L 339 305.5 L 313.5 306 L 313.5 305 Z " /><path fill="rgb(90,93,89)" stroke="rgb(90,93,89)" stroke-width="0.6" opacity="1" d="M 239 334 L 244 335.5 L 243.5 337 L 239 336 L 238.5 339 L 237.5 337 L 236 337.5 L 239 336 L 239 334 Z " /><path fill="rgb(90,93,89)" stroke="rgb(90,93,89)" stroke-width="0.6" opacity="1" d="M 369 343 L 374 344 L 373.5 347 L 373 345 L 370 345.5 L 370.5 347 L 369 343 Z " /><path fill="rgb(90,93,89)" stroke="rgb(90,93,89)" stroke-width="0.6" opacity="1" d="M 193 401 L 196 401 Q 194.5 404.7 197.5 404 L 199 407 L 197 407 L 193 401 Z " /><path fill="rgb(186,100,57)" stroke="rgb(186,100,57)" stroke-width="0.6" opacity="1" d="M 333.5 172 L 344 172.5 L 333.5 173 L 333.5 172 Z " /><path fill="rgb(186,100,57)" stroke="rgb(186,100,57)" stroke-width="0.6" opacity="1" d="M 73.5 249 L 73 250.5 L 72.5 262 L 72 250.5 L 73.5 249 Z " /><path fill="rgb(186,100,57)" stroke="rgb(186,100,57)" stroke-width="0.6" opacity="1" d="M 88.5 251 L 91 251.5 L 87 254.5 L 88 260.5 L 86 259.5 Q 85 253 88.5 251 Z " /><path fill="rgb(186,100,57)" stroke="rgb(186,100,57)" stroke-width="0.6" opacity="1" d="M 261.5 266 L 262 277.5 L 261 277.5 L 261.5 266 Z " /><path fill="rgb(186,100,57)" stroke="rgb(186,100,57)" stroke-width="0.6" opacity="1" d="M 446.5 277 Q 454.3 275.2 456 279.5 L 454.5 284 L 453 282 L 455 281.5 L 453 281 L 451.5 278 Q 445.5 279.3 446.5 277 Z " /><path fill="rgb(186,100,57)" stroke="rgb(186,100,57)" stroke-width="0.6" opacity="1" d="M 231.5 287 L 243 287.5 L 231.5 288 L 231.5 287 Z " /><path fill="rgb(186,100,57)" stroke="rgb(186,100,57)" stroke-width="0.6" opacity="1" d="M 450.5 295 L 456 296.5 L 455.5 299 L 454.5 296 L 453.5 299 L 451.5 296 L 450.5 295 Z " /><path fill="rgb(186,100,57)" stroke="rgb(186,100,57)" stroke-width="0.6" opacity="1" d="M 437.5 298 L 439.5 302 L 450 302.5 L 438.5 303 Q 435.8 301.8 437.5 298 Z " /><path fill="rgb(186,100,57)" stroke="rgb(186,100,57)" stroke-width="0.6" opacity="1" d="M 270.5 303 L 282 303.5 L 270.5 304 L 270.5 303 Z " /><path fill="rgb(186,100,57)" stroke="rgb(186,100,57)" stroke-width="0.6" opacity="1" d="M 309.5 304 L 344 304.5 L 309.5 305 L 309.5 304 Z " /><path fill="rgb(186,100,57)" stroke="rgb(186,100,57)" stroke-width="0.6" opacity="1" d="M 230.5 321 L 243 321.5 L 230.5 322 L 230.5 321 Z " /><path fill="rgb(186,100,57)" stroke="rgb(186,100,57)" stroke-width="0.6" opacity="1" d="M 389.5 329 L 404 329.5 L 398 330 Q 399.5 333.7 396.5 333 L 389 334 Q 387.6 330.3 393.5 332 L 393.5 331 L 388 330.5 L 389.5 329 Z " /><path fill="rgb(186,100,57)" stroke="rgb(186,100,57)" stroke-width="0.6" opacity="1" d="M 315.5 331 L 338 331.5 L 315.5 332 L 315.5 331 Z " /><path fill="rgb(186,100,57)" stroke="rgb(186,100,57)" stroke-width="0.6" opacity="1" d="M 359.5 331 Q 366.5 329.5 366 332.5 L 364.5 332 L 342.5 333 L 342.5 332 L 358.5 332 L 359.5 331 Z " /><path fill="rgb(186,100,57)" stroke="rgb(186,100,57)" stroke-width="0.6" opacity="1" d="M 368 331 Q 371.3 329.9 370 334 L 374.5 334 L 374.5 335 L 363.5 336 L 363.5 335 L 368 334 L 368 331 Z " /><path fill="rgb(186,100,57)" stroke="rgb(186,100,57)" stroke-width="0.6" opacity="1" d="M 206.5 384 L 207 387.5 Q 205.8 390.3 200.5 389 L 200.5 388 Q 208 390.4 206.5 384 Z " /><path fill="rgb(186,100,57)" stroke="rgb(186,100,57)" stroke-width="0.6" opacity="1" d="M 279.5 386 L 282 387.5 L 280.5 393 L 279 391 Q 282.7 392.2 281 387 L 279.5 386 Z " /><path fill="rgb(186,100,57)" stroke="rgb(186,100,57)" stroke-width="0.6" opacity="1" d="M 324.5 388 L 325 400.5 L 324 400.5 L 324.5 388 Z " /><path fill="rgb(141,106,47)" stroke="rgb(141,106,47)" stroke-width="0.6" opacity="1" d="M 338.5 331 L 359 331.5 L 338.5 332 L 338.5 331 Z " /><path fill="rgb(141,106,47)" stroke="rgb(141,106,47)" stroke-width="0.6" opacity="1" d="M 438.5 335 L 449 335.5 L 438.5 336 L 438.5 335 Z " /><path fill="rgb(102,89,46)" stroke="rgb(102,89,46)" stroke-width="0.6" opacity="1" d="M 309.5 171 L 332 171.5 L 309.5 172 L 309.5 171 Z " /><path fill="rgb(102,89,46)" stroke="rgb(102,89,46)" stroke-width="0.6" opacity="1" d="M 260.5 279 L 261 289.5 L 260 289.5 L 260.5 279 Z " /><path fill="rgb(207,163,44)" stroke="rgb(207,163,44)" stroke-width="0.6" opacity="1" d="M 58.5 270 L 59 277.5 L 57.5 280 L 57 278.5 L 58.5 270 Z " /><path fill="rgb(207,163,44)" stroke="rgb(207,163,44)" stroke-width="0.6" opacity="1" d="M 100.5 290 L 94.5 297 L 100.5 290 Z " /><path fill="rgb(207,163,44)" stroke="rgb(207,163,44)" stroke-width="0.6" opacity="1" d="M 254.5 339 L 259 339.5 L 256 340.5 L 260 342.5 L 251.5 344 L 251 342 L 256 341.5 L 251 340.5 L 254.5 339 Z " /><path fill="rgb(207,163,44)" stroke="rgb(207,163,44)" stroke-width="0.6" opacity="1" d="M 355.5 361 Q 358.1 360.2 357 363.5 L 357.5 365 L 353 364.5 L 355 363.5 L 352 362.5 L 355.5 361 Z " /><path fill="rgb(207,163,44)" stroke="rgb(207,163,44)" stroke-width="0.6" opacity="1" d="M 210.5 368 L 211 387.5 L 210 387.5 L 209 374.5 L 210.5 368 Z " /><path fill="rgb(207,163,44)" stroke="rgb(207,163,44)" stroke-width="0.6" opacity="1" d="M 213.5 370 L 213 371.5 L 212.5 384 L 212 371.5 L 213.5 370 Z " /><path fill="rgb(169,145,44)" stroke="rgb(169,145,44)" stroke-width="0.6" opacity="1" d="M 103.5 269 L 98.5 275 L 103.5 269 Z " /><path fill="rgb(169,145,44)" stroke="rgb(169,145,44)" stroke-width="0.6" opacity="1" d="M 243.5 326 L 254 326.5 L 243.5 327 L 243.5 326 Z " /><path fill="rgb(169,145,44)" stroke="rgb(169,145,44)" stroke-width="0.6" opacity="1" d="M 217.5 330 L 237 330.5 L 217.5 331 L 217.5 330 Z " /><path fill="rgb(228,169,69)" stroke="rgb(228,169,69)" stroke-width="0.6" opacity="1" d="M 138.5 88 L 133.5 94 L 138.5 88 Z " /><path fill="rgb(228,169,69)" stroke="rgb(228,169,69)" stroke-width="0.6" opacity="1" d="M 78.5 281 L 79 284 L 83.5 281 L 81 284.5 L 82 286.5 L 80.5 286 L 76.5 289 L 78 286.5 L 78.5 281 Z " /><path fill="rgb(129,129,128)" stroke="rgb(129,129,128)" stroke-width="0.6" opacity="1" d="M 432.5 331 L 450 331.5 L 432.5 332 L 432.5 331 Z " /><path fill="rgb(173,172,171)" stroke="rgb(173,172,171)" stroke-width="0.6" opacity="1" d="M 332.5 150 L 349 151.5 L 333.5 152 L 332.5 150 Z " /></svg>