<svg width="627" height="627" preserveAspectRatio="xMidYMid meet" viewBox="0 0 512 512" version="1.1" xmlns="http://www.w3.org/2000/svg" ><path fill="rgb(255,255,255)" stroke="rgb(255,255,255)" stroke-width="0.6" opacity="1" d="M 0 0 L 512 0 L 512 512 L 0 512 L 0 0 Z M 89 63 L 80 67 L 73 80 Q 71 97 76 107 L 87 118 L 87 162 L 85 163 L 77 173 Q 75 188 80 197 L 87 201 L 88 206 L 86 207 Q 79 211 77 221 Q 76 230 80 235 Q 84 241 92 243 L 106 242 L 115 230 Q 117 219 112 217 L 107 218 L 102 227 Q 96 228 95 225 L 96 219 L 102 215 Q 107 213 106 204 L 111 201 L 116 194 L 118 184 L 117 171 L 107 162 L 108 124 L 294 261 L 293 283 L 292 284 L 284 285 L 277 293 L 277 324 L 285 329 L 309 330 L 310 332 L 309 334 L 287 334 Q 284 330 277 330 L 275 329 L 274 270 Q 270 266 272 257 L 268 248 Q 262 240 251 238 Q 239 240 234 236 L 206 236 L 201 232 Q 202 222 199 217 Q 195 209 185 208 Q 173 207 167 211 Q 157 216 159 232 L 154 236 L 130 237 L 111 244 L 101 255 L 91 281 L 88 280 Q 79 279 75 282 L 70 288 L 70 316 L 78 323 Q 72 330 71 342 L 71 380 L 69 381 L 66 385 L 66 409 L 67 411 L 73 415 L 89 417 L 94 428 Q 100 437 114 439 L 136 439 L 144 435 L 150 428 L 155 423 L 203 423 L 209 421 L 215 436 Q 221 445 233 448 L 262 448 L 273 442 Q 283 434 284 417 L 294 411 L 311 411 L 311 417 L 318 430 Q 325 437 338 438 L 358 438 L 367 433 L 375 424 Q 381 431 392 433 L 410 433 L 417 430 Q 430 422 431 401 Q 432 398 438 399 L 443 394 L 443 368 L 446 364 L 446 338 L 442 333 L 422 333 L 420 332 L 427 329 L 430 326 L 431 291 L 423 283 L 413 283 L 411 282 L 412 272 L 412 241 L 407 230 L 394 219 L 373 218 L 369 216 L 337 195 L 210 122 L 134 82 L 123 78 L 120 73 Q 112 60 89 63 Z " /><path fill="rgb(239,175,40)" stroke="rgb(239,175,40)" stroke-width="0.6" opacity="1" d="M 109.5 88 L 114 90.5 Q 115.5 98.5 110.5 100 L 106 98.5 Q 104.3 89.8 109.5 88 Z " /><path fill="rgb(239,175,40)" stroke="rgb(239,175,40)" stroke-width="0.6" opacity="1" d="M 122 95 Q 128.8 95.5 132 100.5 L 130.5 102 L 119.5 112 L 117 112 L 122 95 Z " /><path fill="rgb(239,175,40)" stroke="rgb(239,175,40)" stroke-width="0.6" opacity="1" d="M 144 106 L 177 123 Q 178.3 126 174.5 125 L 157.5 133 L 153 133 Q 145.1 122.7 144 106 Z " /><path fill="rgb(239,175,40)" stroke="rgb(239,175,40)" stroke-width="0.6" opacity="1" d="M 229 154 Q 245.4 159.2 258 169 L 256.5 172 L 234.5 190 L 232 187.5 L 230 172.5 L 231 169.5 L 229 154 Z " /><path fill="rgb(239,175,40)" stroke="rgb(239,175,40)" stroke-width="0.6" opacity="1" d="M 300.5 197 L 302 198.5 L 302 244 L 299.5 244 L 273 223.5 L 284.5 211 L 300.5 197 Z " /><path fill="rgb(239,175,40)" stroke="rgb(239,175,40)" stroke-width="0.6" opacity="1" d="M 171.5 215 L 187.5 215 L 194 220.5 L 195 230.5 L 191.5 233 L 165.5 233 Q 162.3 231.3 164 224.5 L 171.5 215 Z " /><path fill="rgb(239,175,40)" stroke="rgb(239,175,40)" stroke-width="0.6" opacity="1" d="M 338.5 222 L 340 222.5 L 340 235.5 L 341 236.5 L 341 259.5 L 336 268 L 332.5 268 L 309 250.5 L 321.5 237 L 338.5 222 Z " /><path fill="rgb(239,175,40)" stroke="rgb(239,175,40)" stroke-width="0.6" opacity="1" d="M 151.5 240 L 164.5 245 L 196.5 245 L 205.5 241 L 210.5 241 L 214.5 243 L 215.5 242 L 228.5 242 L 229.5 243 L 246.5 243 L 255.5 245 L 264 252.5 L 267 259.5 L 267 274.5 L 269 290.5 L 269 342.5 L 268 350.5 Q 270.8 352.2 270 357.5 Q 268.5 360.5 262.5 359 L 251.5 358 L 236.5 363 L 222 376.5 L 212.5 396 Q 209.9 396.8 211 393.5 L 207.5 389 L 206 388.5 L 206 330.5 Q 208.2 326.7 210.5 332 L 223.5 333 L 235.5 324 Q 251.1 326.1 258 319.5 L 261 313.5 L 261 274.5 Q 258 271.5 259 264.5 L 254.5 258 L 252.5 257 L 220.5 257 L 211 264.5 L 208 275.5 L 208 291.5 L 205 298.5 L 203 317.5 L 204 323.5 Q 200 330 202 342.5 L 200 345.5 L 200 387.5 L 198.5 389 L 143.5 389 L 141.5 388 L 132.5 389 L 124.5 387 L 107.5 387 Q 101.4 383.1 89.5 385 L 78.5 383 L 76 380.5 L 78 373.5 L 77 372.5 L 77 346.5 L 78 335.5 L 86 320.5 L 93 290.5 L 101 266.5 L 103.5 264 L 103 265.5 L 89 313.5 L 88 321.5 L 91.5 328 L 99.5 331 Q 111.6 329.4 118.5 333 L 141.5 333 L 167.5 335 L 172.5 334 L 180.5 335 L 190.5 333 L 196 328.5 L 198 322.5 L 199 300.5 L 201 295.5 Q 200.2 284.7 203 277.5 L 203 263.5 L 200.5 260 Q 195.5 255 186.5 254 L 164.5 254 L 161.5 252 L 128.5 252 L 116.5 254 L 108.5 258 L 108 256.5 L 113.5 250 L 124.5 244 L 151.5 240 Z M 246 330 L 238 336 Q 237 344 242 345 L 258 343 L 260 339 L 259 334 Q 256 328 246 330 Z M 103 354 L 101 355 L 99 360 L 102 361 L 104 365 Q 111 374 124 377 Q 140 378 148 371 L 155 363 L 157 364 L 159 363 L 154 356 L 150 358 L 151 362 Q 145 370 134 372 L 125 372 L 115 368 Q 107 365 107 356 L 103 354 Z " /><path fill="rgb(239,175,40)" stroke="rgb(239,175,40)" stroke-width="0.6" opacity="1" d="M 225.5 261 L 244.5 262 L 248.5 261 L 254 265.5 L 255 304.5 L 254 308.5 L 256 312.5 L 251.5 318 L 234 319 L 234 299.5 L 229.5 290 L 217.5 287 L 214.5 288 Q 211 286 213 278.5 L 214 270.5 L 220.5 262 L 225.5 261 Z " /><path fill="rgb(239,175,40)" stroke="rgb(239,175,40)" stroke-width="0.6" opacity="1" d="M 81.5 285 L 88 287.5 L 83 312.5 L 79.5 317 L 75 314.5 L 75 295.5 Q 75.4 288.9 79.5 286 L 81.5 285 Z " /><path fill="rgb(239,175,40)" stroke="rgb(239,175,40)" stroke-width="0.6" opacity="1" d="M 395.5 288 L 413.5 289 L 420.5 288 L 425 291.5 L 425 322.5 L 423.5 324 Q 410.3 327.8 391.5 326 L 389.5 325 L 388.5 326 L 348.5 326 L 346.5 327 L 345 325.5 L 345 293.5 Q 347.7 286.2 360.5 289 L 361.5 290 L 393.5 290 L 395.5 288 Z " /><path fill="rgb(239,175,40)" stroke="rgb(239,175,40)" stroke-width="0.6" opacity="1" d="M 288.5 289 L 290.5 290 L 338.5 290 L 341 291 L 339 296.5 L 339 326 L 295.5 325 Q 292.2 321.8 284.5 323 L 282 320.5 L 283 316.5 L 282 315.5 L 282 298.5 L 283 293.5 L 286.5 290 L 288.5 289 Z " /><path fill="rgb(239,175,40)" stroke="rgb(239,175,40)" stroke-width="0.6" opacity="1" d="M 406.5 330 Q 411.8 328.8 413 331.5 L 411.5 335 L 380.5 335 L 377.5 334 L 376.5 335 L 317 335 Q 315.9 331.2 324.5 333 L 333.5 332 L 339.5 333 L 341.5 332 L 342.5 333 L 373.5 333 L 374.5 332 L 404.5 332 L 406.5 330 Z " /><path fill="rgb(239,175,40)" stroke="rgb(239,175,40)" stroke-width="0.6" opacity="1" d="M 390.5 352 Q 397.4 350 396 354 Q 387.9 354.8 384 361.5 L 379.5 369 L 376 366.5 L 367.5 357 L 364 356 L 364.5 354 L 380.5 354 L 390.5 352 Z " /><path fill="rgb(239,175,40)" stroke="rgb(239,175,40)" stroke-width="0.6" opacity="1" d="M 430.5 368 Q 435.8 366.8 437 369.5 L 437 391.5 L 434.5 394 Q 431.9 394.8 433 391.5 L 432 379.5 L 429 369.5 L 430.5 368 Z " /><path fill="rgb(239,175,40)" stroke="rgb(239,175,40)" stroke-width="0.6" opacity="1" d="M 404.5 369 L 411.5 369 L 420 375.5 L 425 384.5 L 426 400.5 L 422 416.5 L 414.5 425 Q 410.5 428.5 401.5 427 L 393 421.5 L 388 411.5 L 388 388.5 Q 390.4 378.4 397.5 373 L 404.5 369 Z M 406 381 L 402 383 L 395 395 Q 394 404 397 410 L 406 416 L 412 415 Q 417 411 419 404 Q 420 392 417 386 Q 414 380 406 381 Z " /><path fill="rgb(239,175,40)" stroke="rgb(239,175,40)" stroke-width="0.6" opacity="1" d="M 312.5 381 Q 318.8 379.8 320 383.5 L 321 392.5 Q 317.6 395.1 319 402.5 L 316.5 405 L 295.5 405 L 294 403.5 Q 295.1 391.9 292 384.5 L 293.5 383 L 309.5 383 L 312.5 381 Z " /><path fill="rgb(239,175,40)" stroke="rgb(239,175,40)" stroke-width="0.6" opacity="1" d="M 406.5 386 Q 412.3 385.3 413 389.5 L 415 400.5 L 409.5 411 Q 402.3 412.3 401 407.5 L 400 395.5 L 406.5 386 Z M 407 391 Q 401 393 402 403 Q 403 407 410 406 Q 414 403 413 396 L 407 391 Z " /><path fill="rgb(239,175,40)" stroke="rgb(239,175,40)" stroke-width="0.6" opacity="1" d="M 353.5 389 Q 359.8 387.8 361 391.5 Q 364.1 396.9 363 406.5 L 356.5 416 Q 350.1 415.9 348 411.5 L 347 398.5 L 353.5 389 Z M 353 395 L 349 400 L 350 409 L 354 411 L 358 410 L 361 406 L 360 397 Q 358 394 353 395 Z " /><path fill="rgb(239,175,40)" stroke="rgb(239,175,40)" stroke-width="0.6" opacity="1" d="M 257.5 406 Q 261 407 260 412.5 Q 257.5 417.5 255 412.5 L 257.5 406 Z " /><path fill="rgb(1,1,1)" stroke="rgb(1,1,1)" stroke-width="0.6" opacity="1" d="M 90.5 63 L 105.5 64 Q 113.8 65.7 118 71.5 L 122.5 79 L 135.5 84 L 209.5 123 L 336.5 196 L 368.5 217 L 372.5 219 L 390.5 219 L 406 229.5 L 412 242.5 L 412 269.5 L 411 282.5 L 412.5 284 L 422.5 284 L 430 290.5 L 431 312.5 L 430 323.5 L 424.5 329 L 419 330.5 L 420.5 333 L 439.5 333 L 446 338.5 L 446 361.5 L 442 369.5 L 443 370.5 L 443 391.5 L 437.5 398 Q 431.3 396.8 430 400.5 Q 429.6 420.1 417.5 428 L 410.5 432 L 396.5 433 L 386.5 431 L 377 424.5 Q 377.8 421.9 374.5 423 L 366.5 432 L 358.5 437 L 341.5 438 L 327.5 435 L 317 426.5 L 309.5 410 L 294.5 410 L 286.5 413 L 283 416.5 Q 281.8 435.3 269.5 443 L 259.5 448 L 236.5 448 Q 223.6 445.4 217 436.5 L 212 428.5 L 209.5 420 L 199.5 423 L 152.5 423 L 151 424.5 L 143.5 434 L 136.5 438 L 118.5 439 L 107.5 437 L 96 428.5 L 88.5 416 L 75.5 415 L 68 410.5 L 66 406.5 L 66 385.5 Q 71.2 383.3 72 376.5 L 72 339.5 Q 73.6 329.1 79 322.5 L 70 314.5 L 70 290.5 L 74.5 283 Q 78.9 279.9 87.5 281 L 90.5 283 L 102 254.5 L 111.5 245 L 123.5 239 L 143.5 236 L 155.5 236 L 159 232.5 Q 157.9 215.9 168.5 211 Q 174.6 207.6 185.5 209 Q 193.1 210.5 197 215.5 Q 201.5 221 200 232.5 L 203.5 236 L 234.5 237 Q 239.8 241.2 251.5 239 Q 261 240.5 266 246.5 L 271 255.5 Q 269 265 273 268.5 L 274 327.5 L 276.5 331 Q 282.9 330.1 284.5 334 L 306.5 334 L 308.5 335 L 310 331.5 L 308.5 330 L 285.5 329 L 278 323.5 L 277 321.5 L 277 294.5 L 283.5 286 L 291.5 285 L 293 283.5 L 295 259.5 L 108.5 122 L 107 123.5 L 107 162.5 L 116 170.5 L 117 184.5 Q 116.3 196.3 108.5 201 L 106 202.5 Q 105.6 211.6 99.5 215 L 95 218.5 L 94 224.5 Q 95.2 229.3 102.5 228 L 105 221.5 L 108.5 218 Q 113.3 217.3 114 220.5 L 114 229.5 L 105.5 241 L 94.5 243 Q 86.2 241.3 82 235.5 Q 76.7 230.8 78 219.5 L 85.5 208 L 88 206.5 L 88 202.5 L 79 192.5 L 78 172.5 L 84.5 164 L 87 162.5 L 87 115.5 L 85.5 114 L 77 106.5 L 73 94.5 L 73 82.5 L 76 72.5 L 79.5 68 L 90.5 63 Z M 89 68 L 86 69 Q 78 73 77 84 L 78 99 L 80 100 L 91 100 L 92 99 L 92 84 L 96 74 L 100 71 L 100 68 L 89 68 Z M 107 69 L 104 70 L 96 80 L 94 101 Q 91 105 83 104 L 81 107 L 89 112 Q 95 111 98 114 L 109 112 L 115 105 L 115 102 L 107 103 Q 101 100 102 90 L 109 84 L 155 106 L 202 132 L 361 226 L 367 224 L 368 222 L 330 196 L 224 135 L 163 102 L 121 82 L 114 73 Q 112 69 107 69 Z M 109 87 L 105 92 Q 104 99 108 101 L 113 100 L 115 96 L 114 89 L 109 87 Z M 123 93 L 116 110 Q 113 111 118 113 L 123 111 L 134 101 L 123 93 Z M 137 102 L 129 108 L 122 117 L 146 132 L 148 132 L 139 108 Q 141 101 137 102 Z M 145 104 L 143 106 L 145 119 L 154 135 L 172 127 L 178 126 L 179 124 L 145 104 Z M 113 113 L 111 114 L 108 118 L 239 212 L 329 281 L 333 274 Q 226 190 113 113 Z M 93 117 L 91 119 L 91 162 Q 93 165 102 163 L 103 162 L 103 119 Q 101 115 93 117 Z M 182 126 L 155 140 L 191 164 L 193 164 L 191 161 L 189 146 L 184 128 L 182 126 Z M 190 129 L 188 131 L 194 161 L 197 166 L 220 149 L 190 129 Z M 223 150 L 201 167 L 198 171 L 228 190 L 225 152 L 223 150 Z M 231 152 L 229 154 L 230 184 L 234 192 L 259 172 L 260 170 L 231 152 Z M 101 166 L 95 172 L 96 196 L 100 198 L 109 197 L 112 193 L 112 172 L 111 170 Q 109 165 101 166 Z M 88 167 L 86 168 Q 83 170 86 171 Q 91 172 93 170 Q 94 165 88 167 Z M 262 173 L 240 191 L 235 193 L 233 196 L 266 218 L 264 189 L 264 174 L 262 173 Z M 85 174 L 83 176 L 83 192 L 88 197 Q 93 198 94 196 L 93 188 L 91 186 L 91 176 Q 90 173 85 174 Z M 268 174 L 266 176 L 269 219 L 275 217 L 299 195 L 268 174 Z M 301 196 L 277 217 L 271 224 L 301 245 L 303 245 L 303 200 L 302 199 Q 303 195 301 196 Z M 307 197 L 305 199 L 306 243 L 307 245 L 315 240 L 338 218 L 307 197 Z M 94 202 L 92 207 L 89 209 Q 82 213 81 223 L 83 233 L 94 239 Q 102 240 107 237 L 111 231 L 111 223 L 110 222 L 103 231 Q 93 232 91 226 L 92 218 L 96 215 Q 102 212 102 204 Q 100 200 94 202 Z M 172 214 L 170 215 L 163 225 Q 161 232 166 234 L 189 234 L 196 232 L 194 220 L 188 214 L 172 214 Z M 340 220 L 313 244 L 307 251 L 335 270 L 342 260 L 342 237 L 341 236 L 341 221 L 340 220 Z M 347 220 L 345 222 L 345 247 L 347 248 Q 351 237 359 230 L 347 220 Z M 374 224 L 367 227 L 355 241 L 332 284 L 334 285 L 346 285 L 370 238 L 374 235 L 351 283 L 353 285 L 401 285 L 407 283 L 407 241 L 403 232 L 395 224 L 374 224 Z M 161 237 Q 158 239 161 240 L 200 240 L 201 239 L 200 237 L 161 237 Z M 151 240 L 125 243 L 112 250 L 100 267 Q 90 291 85 321 L 77 337 L 76 382 L 79 384 L 91 386 L 127 388 L 136 390 L 200 390 L 201 389 L 201 345 L 203 342 L 205 302 L 209 291 Q 207 274 212 265 Q 215 258 225 257 L 253 258 L 258 265 Q 257 271 260 274 L 260 314 L 258 318 Q 252 326 235 323 L 224 332 L 211 331 L 208 327 L 205 331 L 205 388 L 204 389 L 207 390 L 211 396 L 211 413 L 213 413 Q 212 400 215 392 L 223 377 L 237 364 L 251 359 L 270 360 L 269 277 L 268 276 L 268 261 L 265 253 L 256 244 L 245 242 L 208 241 L 207 240 L 197 244 L 164 244 L 155 240 L 151 240 Z M 221 261 L 213 271 L 212 281 Q 210 287 214 289 L 217 288 Q 224 287 228 290 L 233 299 L 233 319 L 235 320 L 253 319 L 256 315 L 255 266 L 250 261 L 221 261 Z M 301 264 Q 294 269 297 284 L 299 285 L 311 285 L 312 284 L 312 274 L 301 264 Z M 317 277 L 314 281 L 317 285 L 326 285 L 326 284 L 317 277 Z M 83 284 L 80 285 Q 75 288 74 296 L 74 315 L 80 318 L 84 313 L 89 287 L 83 284 Z M 395 288 L 394 289 L 348 289 L 344 294 L 344 326 L 346 327 L 407 327 L 425 325 L 426 324 L 426 292 L 422 288 L 395 288 Z M 286 289 L 282 294 L 281 322 L 285 324 Q 292 323 296 326 L 340 327 L 340 325 L 340 296 L 343 292 L 338 289 L 286 289 Z M 218 291 L 215 292 L 209 299 L 209 326 L 215 329 L 225 328 L 228 324 L 229 317 L 228 296 Q 225 291 218 291 Z M 406 330 L 405 331 L 373 331 L 372 332 L 334 332 L 333 331 L 317 331 L 315 333 L 317 336 L 403 336 L 413 335 L 414 332 Q 412 328 406 330 Z M 277 335 L 274 339 L 274 363 L 282 369 L 284 369 L 284 338 Q 282 334 277 335 Z M 437 337 L 436 338 L 402 338 L 401 339 L 367 339 L 366 340 L 319 340 L 318 339 L 313 342 Q 309 343 310 341 L 310 338 L 290 338 L 288 340 L 288 352 L 290 353 L 428 348 L 428 358 L 426 358 Q 428 352 425 350 L 417 351 Q 408 349 409 353 L 418 355 L 427 365 L 440 364 Q 444 355 442 340 Q 441 336 437 337 Z M 399 351 L 379 353 L 361 353 L 360 355 L 368 358 L 377 370 L 380 371 L 385 362 Q 391 353 404 353 Q 405 349 399 351 Z M 340 354 L 318 356 L 292 356 L 288 359 L 288 378 L 290 379 L 314 377 Q 321 376 324 379 L 331 367 Q 337 358 348 356 L 348 354 L 340 354 Z M 403 356 L 392 361 L 380 378 L 381 382 L 380 384 L 380 407 L 377 415 L 378 421 L 385 426 L 394 428 L 385 415 L 383 406 L 384 390 L 390 376 Q 395 368 405 365 Q 414 364 420 368 L 423 374 L 426 375 L 424 367 L 414 357 L 403 356 Z M 351 358 L 340 363 Q 330 370 326 382 L 323 407 L 315 411 Q 316 419 320 425 L 332 432 L 341 433 L 332 421 L 330 413 L 331 391 L 338 378 Q 343 370 354 367 L 359 367 L 369 371 L 372 376 L 375 378 L 373 370 L 363 359 L 351 358 Z M 252 362 Q 241 364 235 369 L 223 382 L 219 390 L 216 403 L 216 414 L 218 415 L 227 414 L 229 409 L 230 398 L 240 382 Q 247 373 260 371 L 265 371 L 276 376 L 284 391 L 285 409 L 289 410 L 291 404 L 289 388 L 282 374 Q 274 360 252 362 Z M 430 368 L 428 370 Q 433 378 431 394 L 436 395 L 438 393 L 438 370 Q 436 366 430 368 Z M 403 369 L 398 372 Q 390 378 387 389 Q 384 411 392 422 L 402 428 Q 411 430 415 426 L 423 417 L 426 409 L 427 400 L 426 386 L 420 374 Q 416 367 403 369 Z M 354 371 L 345 375 Q 336 382 333 394 L 333 414 L 339 427 L 350 433 Q 358 434 363 431 L 373 419 L 376 407 L 376 393 L 369 378 L 360 371 L 354 371 Z M 258 376 L 246 381 Q 237 388 233 401 L 233 424 L 238 436 Q 242 442 252 444 Q 262 445 267 441 Q 277 434 280 420 L 280 396 L 272 382 Q 267 376 258 376 Z M 311 381 L 310 382 L 294 382 L 291 385 L 294 397 L 294 405 L 296 406 L 319 405 Q 322 397 321 384 Q 319 379 311 381 Z M 74 385 L 70 390 L 70 406 L 78 411 L 99 415 L 114 415 L 162 419 L 192 419 L 204 418 L 207 416 L 207 395 L 206 393 L 201 394 Q 130 397 74 385 Z M 227 417 L 215 421 Q 214 429 218 433 Q 224 444 241 443 L 234 435 L 230 423 Q 233 415 227 417 Z M 98 418 L 96 420 L 99 427 L 111 433 L 115 433 L 109 422 Q 107 416 98 418 Z M 114 420 L 112 422 L 113 426 Q 117 432 125 434 Q 138 436 144 430 L 148 424 L 147 422 L 131 422 L 128 420 L 114 420 Z " /><path fill="rgb(1,1,1)" stroke="rgb(1,1,1)" stroke-width="0.6" opacity="1" d="M 102.5 173 L 108 175.5 Q 109.5 179.9 106.5 179 L 102.5 176 L 101 181.5 L 105.5 183 L 107 182.5 L 105.5 185 Q 99.8 185.8 99 181.5 Q 97.8 174.3 102.5 173 Z " /><path fill="rgb(1,1,1)" stroke="rgb(1,1,1)" stroke-width="0.6" opacity="1" d="M 387.5 234 Q 394.4 233.1 397 236.5 Q 402.3 240.2 401 250.5 L 396.5 258 Q 392.9 260.9 385.5 260 Q 377 257 380 242.5 L 385.5 235 L 387.5 234 Z M 389 237 L 387 238 L 382 246 Q 381 255 387 257 L 395 256 L 397 253 L 396 240 L 389 237 Z " /><path fill="rgb(1,1,1)" stroke="rgb(1,1,1)" stroke-width="0.6" opacity="1" d="M 129.5 253 L 161.5 253 L 166.5 255 L 187.5 255 Q 197.6 256.4 202 263.5 L 202 276.5 L 200 297.5 L 198 300.5 L 197 323.5 L 192.5 331 Q 179.1 336.6 157.5 334 L 152.5 332 L 115.5 332 Q 110.2 327.8 98.5 330 L 90 325.5 L 89 317.5 L 103 268.5 L 111.5 257 L 118.5 254 L 129.5 253 Z M 134 257 L 115 259 Q 106 264 104 276 L 96 302 L 93 316 L 93 324 L 98 326 Q 105 325 109 328 L 151 329 L 152 330 L 187 330 L 191 329 L 194 323 Q 194 299 198 279 L 198 263 L 191 259 Q 179 261 174 257 L 134 257 Z " /><path fill="rgb(1,1,1)" stroke="rgb(1,1,1)" stroke-width="0.6" opacity="1" d="M 122.5 271 Q 129.5 269.5 131 273.5 L 129.5 277 L 122.5 276 L 117 278 L 122.5 271 Z " /><path fill="rgb(1,1,1)" stroke="rgb(1,1,1)" stroke-width="0.6" opacity="1" d="M 167.5 272 Q 176.8 270.6 179 276.5 L 177.5 280 Q 174.2 275.1 165 277 L 167.5 272 Z " /><path fill="rgb(1,1,1)" stroke="rgb(1,1,1)" stroke-width="0.6" opacity="1" d="M 121.5 288 Q 128.8 286.8 131 290.5 L 128.5 291 L 123.5 290 L 114 296.5 L 113 313.5 L 115.5 317 L 122 320 L 118 313.5 L 118 305.5 L 125.5 296 L 133 297 L 133.5 293 Q 138.8 297.8 137 309.5 L 130.5 320 L 120.5 322 L 112 315.5 Q 109 311.5 110 303.5 Q 112.1 293.6 119.5 289 L 121.5 288 Z M 130 299 L 126 303 L 130 307 L 133 306 L 132 301 Q 133 298 130 299 Z " /><path fill="rgb(1,1,1)" stroke="rgb(1,1,1)" stroke-width="0.6" opacity="1" d="M 165.5 289 L 173 290 L 172.5 292 L 164.5 292 L 161 294.5 L 155 303.5 L 155 313.5 L 159.5 320 L 165 322 L 161 314.5 L 161 307.5 L 165.5 300 Q 167.1 296.1 173.5 297 L 177.5 300 L 177 298.5 L 177.5 295 Q 182.6 299.4 181 310.5 L 173.5 322 Q 170.6 325.6 162.5 324 L 154 316.5 L 153 303.5 L 161.5 291 L 165.5 289 Z M 173 301 L 170 305 L 172 309 L 176 308 L 177 305 L 173 301 Z " /><path fill="rgb(1,1,1)" stroke="rgb(1,1,1)" stroke-width="0.6" opacity="1" d="M 245.5 331 Q 256.8 328.8 259 335.5 Q 260 342 255.5 343 L 241.5 344 Q 237.5 342.5 239 335.5 L 245.5 331 Z M 254 334 L 244 335 L 241 339 L 244 342 L 255 341 L 256 340 Q 257 335 254 334 Z " /><path fill="rgb(1,1,1)" stroke="rgb(1,1,1)" stroke-width="0.6" opacity="1" d="M 297.5 341 L 306.5 341 L 307 342.5 Q 305 346 297.5 344 Q 294.5 342.5 297.5 341 Z " /><path fill="rgb(1,1,1)" stroke="rgb(1,1,1)" stroke-width="0.6" opacity="1" d="M 102.5 355 L 106 356.5 L 106 360.5 L 114.5 369 Q 121.8 374.3 136.5 372 Q 146.8 369.3 152 361.5 L 151 358.5 L 153.5 357 L 158 361.5 L 156.5 363 L 153.5 362 L 144.5 372 Q 136.9 376.9 123.5 376 Q 111.5 373 105 364.5 L 102.5 360 L 99 358.5 L 102.5 355 Z " /><path fill="rgb(1,1,1)" stroke="rgb(1,1,1)" stroke-width="0.6" opacity="1" d="M 405.5 382 L 411.5 382 L 417 387.5 L 419 400.5 Q 417 410.5 409.5 415 L 405.5 415 L 398 409.5 Q 394.6 404.4 396 394.5 L 403.5 383 L 405.5 382 Z M 406 385 L 399 396 Q 397 405 401 410 Q 403 413 410 412 Q 415 408 416 400 L 413 388 Q 411 384 406 385 Z " /><path fill="rgb(1,1,1)" stroke="rgb(1,1,1)" stroke-width="0.6" opacity="1" d="M 352.5 385 Q 363.2 383.2 365 390.5 Q 368.6 395.9 367 406.5 L 360.5 418 L 350.5 419 Q 341.3 414.3 343 398.5 Q 344.4 390.9 349.5 387 L 352.5 385 Z M 354 388 L 351 390 L 346 400 Q 345 409 348 414 Q 350 418 358 417 L 364 406 Q 365 397 362 392 Q 361 387 354 388 Z " /><path fill="rgb(1,1,1)" stroke="rgb(1,1,1)" stroke-width="0.6" opacity="1" d="M 256.5 391 Q 266.3 391.2 269 398.5 Q 272.6 403.9 271 414.5 Q 269.3 423.8 262.5 428 L 253.5 429 L 246 422.5 Q 242.8 416.8 244 406.5 Q 245.8 397.3 252.5 393 L 256.5 391 Z M 258 394 L 254 396 L 247 409 Q 246 418 249 423 L 256 427 L 263 425 L 267 419 L 267 402 L 265 398 Q 263 394 258 394 Z " /><path fill="rgb(1,1,1)" stroke="rgb(1,1,1)" stroke-width="0.6" opacity="1" d="M 406.5 392 L 412 395.5 Q 413.3 402.8 409.5 405 L 403 403 Q 401.5 394.8 406.5 392 Z M 408 394 L 405 398 L 407 403 L 410 401 Q 411 395 408 394 Z " /><path fill="rgb(1,1,1)" stroke="rgb(1,1,1)" stroke-width="0.6" opacity="1" d="M 353.5 395 Q 359.3 394.3 360 398.5 Q 361.5 407.5 356.5 410 Q 350.8 410.8 350 406.5 Q 348.5 397.5 353.5 395 Z M 355 398 L 352 402 Q 351 406 355 407 L 358 405 L 357 400 L 355 398 Z " /><path fill="rgb(1,1,1)" stroke="rgb(1,1,1)" stroke-width="0.6" opacity="1" d="M 257.5 402 L 263 405.5 Q 264.4 414.9 259.5 418 Q 254 419 253 415.5 Q 252 411.8 255 413 L 256.5 416 L 261 412.5 Q 261.8 406.7 258.5 405 L 255 406.5 Q 256.7 412.4 253 411 Q 251.8 403.7 257.5 402 Z " /><path fill="rgb(65,70,66)" stroke="rgb(65,70,66)" stroke-width="0.6" opacity="1" d="M 112.5 113 Q 226.4 190.1 333 274.5 L 328.5 281 L 237.5 211 L 108 116.5 L 112.5 113 Z " /><path fill="rgb(65,70,66)" stroke="rgb(65,70,66)" stroke-width="0.6" opacity="1" d="M 92.5 117 Q 100.8 114.8 103 118.5 L 103 161.5 L 101.5 163 Q 93.3 165.3 91 161.5 L 91 118.5 L 92.5 117 Z " /><path fill="rgb(65,70,66)" stroke="rgb(65,70,66)" stroke-width="0.6" opacity="1" d="M 181.5 126 L 184 127.5 L 189 146.5 L 190 156.5 L 193 163.5 L 190.5 164 L 156 139.5 L 157.5 138 L 181.5 126 Z " /><path fill="rgb(65,70,66)" stroke="rgb(65,70,66)" stroke-width="0.6" opacity="1" d="M 229.5 157 L 230 171.5 L 229 171.5 L 229.5 157 Z " /><path fill="rgb(65,70,66)" stroke="rgb(65,70,66)" stroke-width="0.6" opacity="1" d="M 101.5 166 Q 108.7 165.3 111 169.5 L 112 171.5 L 112 191.5 L 106.5 198 Q 97.8 199.8 96 194.5 L 95 171.5 L 101.5 166 Z M 103 173 L 99 177 Q 98 184 103 185 Q 108 186 109 182 L 108 176 Q 107 172 103 173 Z " /><path fill="rgb(65,70,66)" stroke="rgb(65,70,66)" stroke-width="0.6" opacity="1" d="M 266 175 L 270.5 176 L 299 194.5 L 270.5 219 L 269 217.5 L 266 175 Z " /><path fill="rgb(65,70,66)" stroke="rgb(65,70,66)" stroke-width="0.6" opacity="1" d="M 93.5 202 Q 100.3 200.3 102 203.5 L 102 207.5 L 96.5 214 L 92 217.5 L 91 225.5 L 94.5 230 L 102.5 231 L 106 228.5 L 109.5 222 Q 112.8 221.6 111 229.5 L 106.5 237 Q 102.1 240.1 93.5 239 L 84 233.5 Q 80 228.5 82 217.5 L 88.5 209 L 92 206.5 L 93.5 202 Z " /><path fill="rgb(65,70,66)" stroke="rgb(65,70,66)" stroke-width="0.6" opacity="1" d="M 169.5 215 L 167 218.5 L 164.5 223 L 164 221.5 L 169.5 215 Z " /><path fill="rgb(65,70,66)" stroke="rgb(65,70,66)" stroke-width="0.6" opacity="1" d="M 345 221 L 347.5 221 L 359 229.5 Q 350.9 235.6 348 246 L 346 244.5 L 345 243.5 L 345 221 Z " /><path fill="rgb(65,70,66)" stroke="rgb(65,70,66)" stroke-width="0.6" opacity="1" d="M 373.5 224 L 393.5 224 L 402 230.5 L 407 240.5 L 407 282.5 L 405.5 284 L 393.5 285 L 352.5 285 L 351 282.5 L 372 237.5 L 377 231 L 374 232.5 L 367 241.5 L 345.5 285 L 333.5 285 L 333 282.5 L 355 240.5 L 366.5 227 L 373.5 224 Z M 388 234 L 386 235 L 379 244 L 380 255 L 386 260 L 396 259 L 401 251 Q 402 242 399 239 Q 396 233 388 234 Z " /><path fill="rgb(65,70,66)" stroke="rgb(65,70,66)" stroke-width="0.6" opacity="1" d="M 388.5 237 Q 394.9 237.1 397 241.5 Q 399.8 254.3 392.5 257 Q 384.5 258.5 383 253.5 L 382 245.5 L 386.5 238 L 388.5 237 Z " /><path fill="rgb(65,70,66)" stroke="rgb(65,70,66)" stroke-width="0.6" opacity="1" d="M 212.5 241 L 228 241.5 L 212.5 242 L 212.5 241 Z " /><path fill="rgb(65,70,66)" stroke="rgb(65,70,66)" stroke-width="0.6" opacity="1" d="M 133.5 257 L 167.5 257 Q 176.1 259.9 188.5 259 Q 195.1 259.4 198 263.5 L 198 278.5 L 194 309.5 L 194 320.5 L 193 325.5 L 189.5 329 L 185.5 330 L 151.5 330 L 150.5 329 L 111.5 328 Q 106.3 325.2 97.5 326 L 93 322.5 L 95 306.5 L 102 282.5 L 108 265.5 L 113.5 260 L 118.5 258 L 132.5 258 L 133.5 257 Z M 123 271 L 120 273 Q 116 274 117 279 L 124 276 L 130 277 L 131 274 Q 130 270 123 271 Z M 168 272 L 165 277 Q 174 275 178 280 L 179 277 Q 177 271 168 272 Z M 122 288 L 118 290 Q 112 295 110 304 L 111 315 L 121 322 L 130 321 Q 135 317 137 310 L 136 296 L 129 288 L 122 288 Z M 166 289 L 162 291 L 153 304 Q 151 320 162 324 Q 171 326 175 322 L 181 311 Q 183 299 178 295 Q 175 294 176 298 L 178 300 L 176 298 L 174 297 Q 168 296 167 299 L 161 307 L 161 315 L 165 322 L 159 319 L 155 313 L 155 305 L 161 295 Q 165 290 174 292 Q 173 288 166 289 Z " /><path fill="rgb(65,70,66)" stroke="rgb(65,70,66)" stroke-width="0.6" opacity="1" d="M 232.5 261 L 245 261.5 L 232.5 262 L 232.5 261 Z " /><path fill="rgb(65,70,66)" stroke="rgb(65,70,66)" stroke-width="0.6" opacity="1" d="M 255.5 275 L 256 309.5 L 255 309.5 L 255.5 275 Z " /><path fill="rgb(65,70,66)" stroke="rgb(65,70,66)" stroke-width="0.6" opacity="1" d="M 400.5 288 L 414 288.5 L 400.5 289 L 400.5 288 Z " /><path fill="rgb(65,70,66)" stroke="rgb(65,70,66)" stroke-width="0.6" opacity="1" d="M 214.5 292 Q 225.8 289.8 228 296.5 L 229 316.5 L 228 323.5 L 224.5 328 L 215.5 329 L 209 325.5 L 209 299.5 L 214.5 292 Z " /><path fill="rgb(65,70,66)" stroke="rgb(65,70,66)" stroke-width="0.6" opacity="1" d="M 269.5 299 L 270 351.5 L 269 351.5 L 269.5 299 Z " /><path fill="rgb(65,70,66)" stroke="rgb(65,70,66)" stroke-width="0.6" opacity="1" d="M 281.5 303 L 282 318.5 L 281 318.5 L 281.5 303 Z " /><path fill="rgb(65,70,66)" stroke="rgb(65,70,66)" stroke-width="0.6" opacity="1" d="M 204.5 304 L 205 317.5 L 204 317.5 L 204.5 304 Z " /><path fill="rgb(65,70,66)" stroke="rgb(65,70,66)" stroke-width="0.6" opacity="1" d="M 372.5 331 L 385 331.5 L 372.5 332 L 372.5 331 Z " /><path fill="rgb(65,70,66)" stroke="rgb(65,70,66)" stroke-width="0.6" opacity="1" d="M 143.5 332 L 156 333.5 L 144.5 334 L 143.5 332 Z " /><path fill="rgb(65,70,66)" stroke="rgb(65,70,66)" stroke-width="0.6" opacity="1" d="M 253.5 334 L 256 338.5 Q 253.5 343 245.5 342 L 242 339.5 L 243.5 335 L 253.5 334 Z " /><path fill="rgb(65,70,66)" stroke="rgb(65,70,66)" stroke-width="0.6" opacity="1" d="M 328.5 340 L 354 340.5 L 328.5 341 L 328.5 340 Z " /><path fill="rgb(65,70,66)" stroke="rgb(65,70,66)" stroke-width="0.6" opacity="1" d="M 76.5 347 L 77 376.5 L 76 376.5 L 76.5 347 Z " /><path fill="rgb(65,70,66)" stroke="rgb(65,70,66)" stroke-width="0.6" opacity="1" d="M 351.5 358 Q 367.3 357.7 372 368.5 L 375 377 L 373 376.5 L 372.5 374 L 359.5 367 L 352.5 367 L 340 374.5 L 331 390.5 L 329 408.5 L 332 420.5 L 341 433 L 332.5 432 L 320 424.5 L 315 410.5 L 323 406.5 Q 326.3 398.3 325 385.5 L 327 379.5 Q 331.2 369.2 339.5 363 L 351.5 358 Z " /><path fill="rgb(65,70,66)" stroke="rgb(65,70,66)" stroke-width="0.6" opacity="1" d="M 252.5 362 Q 274.6 360.4 282 373.5 Q 292 384.5 290 407.5 L 286.5 410 Q 281.8 403.7 284 390.5 L 275.5 376 Q 270.7 369.8 258.5 371 Q 245.3 373.3 239 382.5 L 230 397.5 L 228 411.5 L 225.5 414 L 217.5 415 L 216 413.5 L 216 403.5 Q 219.1 380.1 234.5 369 L 252.5 362 Z " /><path fill="rgb(65,70,66)" stroke="rgb(65,70,66)" stroke-width="0.6" opacity="1" d="M 253.5 377 L 264.5 377 L 275 385.5 L 280 396.5 L 280 419.5 Q 276.4 433.4 266.5 441 Q 261.8 444.8 252.5 444 Q 242.8 442.2 238 435.5 L 233 423.5 L 233 401.5 Q 236.4 388.4 245.5 381 L 253.5 377 Z M 257 391 L 254 392 Q 246 397 244 407 Q 242 417 246 423 L 255 430 L 262 429 Q 269 424 271 415 Q 273 404 269 399 L 262 391 L 257 391 Z " /><path fill="rgb(65,70,66)" stroke="rgb(65,70,66)" stroke-width="0.6" opacity="1" d="M 431.5 379 L 432 393.5 L 431 393.5 L 431.5 379 Z " /><path fill="rgb(65,70,66)" stroke="rgb(65,70,66)" stroke-width="0.6" opacity="1" d="M 226.5 417 L 230 417 L 230 423.5 Q 231.6 435.4 239.5 441 L 241 443 Q 225.2 443.7 219 433.5 Q 214.2 429.8 215 420.5 L 226.5 417 Z " /><path fill="rgb(65,70,66)" stroke="rgb(65,70,66)" stroke-width="0.6" opacity="1" d="M 97.5 418 Q 105.5 416.5 108 420.5 L 114 433 L 110.5 433 L 99 426.5 L 96 419.5 L 97.5 418 Z " /><path fill="rgb(65,70,66)" stroke="rgb(65,70,66)" stroke-width="0.6" opacity="1" d="M 113.5 420 Q 124.4 418.6 130.5 422 L 146.5 422 L 148 423.5 L 141.5 431 Q 136 435.5 124.5 434 L 114 426.5 L 112 421.5 L 113.5 420 Z " /><path fill="rgb(205,105,47)" stroke="rgb(205,105,47)" stroke-width="0.6" opacity="1" d="M 89.5 68 L 97.5 69 L 99 70.5 L 94 74.5 Q 89.9 82.4 91 95.5 L 91 97.5 L 89.5 100 Q 81 102 79 97.5 L 77 88.5 Q 77.8 77.3 83.5 71 L 89.5 68 Z " /><path fill="rgb(205,105,47)" stroke="rgb(205,105,47)" stroke-width="0.6" opacity="1" d="M 105.5 70 L 113 72.5 L 119.5 82 L 218.5 133 L 326.5 195 L 367 221.5 L 365.5 223 L 360.5 225 L 201.5 131 L 152.5 104 L 108.5 83 L 102 88.5 L 101 96.5 L 106.5 104 Q 111.8 102.8 113 105.5 L 108.5 111 L 96.5 113 L 86.5 110 L 82 105.5 L 91.5 104 L 94 101.5 L 97 78.5 L 103.5 71 L 105.5 70 Z " /><path fill="rgb(205,105,47)" stroke="rgb(205,105,47)" stroke-width="0.6" opacity="1" d="M 136.5 103 Q 139.9 102.1 138 107.5 Q 144 117.8 146 131 L 124 116.5 Q 123.3 109.8 128.5 109 L 136.5 103 Z " /><path fill="rgb(205,105,47)" stroke="rgb(205,105,47)" stroke-width="0.6" opacity="1" d="M 189 131 L 218 147.5 Q 219.1 150.8 216.5 150 L 197.5 165 L 195 161.5 L 189 131 Z " /><path fill="rgb(205,105,47)" stroke="rgb(205,105,47)" stroke-width="0.6" opacity="1" d="M 222.5 151 L 225 158.5 L 227 188.5 L 225.5 188 L 200 170.5 Q 198.9 167.2 201.5 168 L 222.5 151 Z " /><path fill="rgb(205,105,47)" stroke="rgb(205,105,47)" stroke-width="0.6" opacity="1" d="M 84.5 174 Q 89.8 172.8 91 175.5 Q 90 187.5 93 195.5 L 88.5 197 L 83 190.5 L 83 175.5 L 84.5 174 Z " /><path fill="rgb(205,105,47)" stroke="rgb(205,105,47)" stroke-width="0.6" opacity="1" d="M 260.5 174 L 263 175.5 L 266 216.5 L 264.5 216 L 259.5 214 L 235 195.5 L 236.5 194 L 260.5 174 Z " /><path fill="rgb(205,105,47)" stroke="rgb(205,105,47)" stroke-width="0.6" opacity="1" d="M 305 199 L 313.5 202 L 336 216.5 L 332.5 222 L 329 224.5 L 327.5 227 L 314 238.5 L 312.5 241 L 308.5 244 L 307 242.5 L 306 211.5 L 307 207.5 L 305 199 Z " /><path fill="rgb(205,105,47)" stroke="rgb(205,105,47)" stroke-width="0.6" opacity="1" d="M 173.5 214 L 187 214.5 L 173.5 215 L 173.5 214 Z " /><path fill="rgb(205,105,47)" stroke="rgb(205,105,47)" stroke-width="0.6" opacity="1" d="M 340.5 222 L 341 235.5 L 340 235.5 L 340.5 222 Z " /><path fill="rgb(205,105,47)" stroke="rgb(205,105,47)" stroke-width="0.6" opacity="1" d="M 170.5 233 L 188 233.5 L 170.5 234 L 170.5 233 Z " /><path fill="rgb(205,105,47)" stroke="rgb(205,105,47)" stroke-width="0.6" opacity="1" d="M 161 237 L 198.5 237 L 200 238.5 L 198.5 240 L 161 240 L 161 237 Z " /><path fill="rgb(205,105,47)" stroke="rgb(205,105,47)" stroke-width="0.6" opacity="1" d="M 341.5 237 L 342 257.5 L 341 257.5 L 341.5 237 Z " /><path fill="rgb(205,105,47)" stroke="rgb(205,105,47)" stroke-width="0.6" opacity="1" d="M 164.5 244 L 196 244.5 L 164.5 245 L 164.5 244 Z " /><path fill="rgb(205,105,47)" stroke="rgb(205,105,47)" stroke-width="0.6" opacity="1" d="M 128.5 252 L 162 252.5 L 128.5 253 L 128.5 252 Z " /><path fill="rgb(205,105,47)" stroke="rgb(205,105,47)" stroke-width="0.6" opacity="1" d="M 202.5 263 L 203 277.5 L 202 277.5 L 202.5 263 Z " /><path fill="rgb(205,105,47)" stroke="rgb(205,105,47)" stroke-width="0.6" opacity="1" d="M 300.5 265 L 311 273.5 L 312 275.5 L 311 283.5 L 309.5 285 L 299.5 285 L 298 283.5 L 298 268.5 L 300.5 265 Z " /><path fill="rgb(205,105,47)" stroke="rgb(205,105,47)" stroke-width="0.6" opacity="1" d="M 260.5 274 L 261 313.5 L 260 313.5 L 260.5 274 Z " /><path fill="rgb(205,105,47)" stroke="rgb(205,105,47)" stroke-width="0.6" opacity="1" d="M 268.5 277 L 269 289.5 L 268 289.5 L 268.5 277 Z " /><path fill="rgb(205,105,47)" stroke="rgb(205,105,47)" stroke-width="0.6" opacity="1" d="M 316.5 278 L 324 283.5 Q 324.4 286.8 316.5 285 L 315 279.5 L 316.5 278 Z " /><path fill="rgb(205,105,47)" stroke="rgb(205,105,47)" stroke-width="0.6" opacity="1" d="M 361.5 289 L 394 289.5 L 361.5 290 L 361.5 289 Z " /><path fill="rgb(205,105,47)" stroke="rgb(205,105,47)" stroke-width="0.6" opacity="1" d="M 122.5 291 Q 130.5 289.5 132 294.5 Q 132.8 297.1 129.5 296 L 126.5 295 L 123 297.5 Q 115.9 301.4 118 314.5 L 120 317.5 L 118.5 317 L 115 316 L 114 313.5 L 114 299.5 L 118.5 293 L 122.5 291 Z " /><path fill="rgb(205,105,47)" stroke="rgb(205,105,47)" stroke-width="0.6" opacity="1" d="M 425.5 293 L 426 321.5 L 425 321.5 L 425.5 293 Z " /><path fill="rgb(205,105,47)" stroke="rgb(205,105,47)" stroke-width="0.6" opacity="1" d="M 344.5 294 L 345 324.5 L 344 324.5 L 344.5 294 Z " /><path fill="rgb(205,105,47)" stroke="rgb(205,105,47)" stroke-width="0.6" opacity="1" d="M 339.5 296 L 340 324.5 L 339 324.5 L 339.5 296 Z " /><path fill="rgb(205,105,47)" stroke="rgb(205,105,47)" stroke-width="0.6" opacity="1" d="M 74.5 297 L 75 312.5 L 74 312.5 L 74.5 297 Z " /><path fill="rgb(205,105,47)" stroke="rgb(205,105,47)" stroke-width="0.6" opacity="1" d="M 317.5 331 L 332 331.5 L 316.5 334 L 316 332.5 L 317.5 331 Z " /><path fill="rgb(205,105,47)" stroke="rgb(205,105,47)" stroke-width="0.6" opacity="1" d="M 385.5 331 L 405 331.5 L 385.5 332 L 385.5 331 Z " /><path fill="rgb(205,105,47)" stroke="rgb(205,105,47)" stroke-width="0.6" opacity="1" d="M 205.5 332 L 206 387.5 L 205 387.5 L 205.5 332 Z " /><path fill="rgb(205,105,47)" stroke="rgb(205,105,47)" stroke-width="0.6" opacity="1" d="M 342.5 332 L 374 332.5 L 342.5 333 L 342.5 332 Z " /><path fill="rgb(205,105,47)" stroke="rgb(205,105,47)" stroke-width="0.6" opacity="1" d="M 276.5 336 Q 283 335 284 339.5 L 284 367.5 L 281.5 368 L 275 362.5 L 274 356.5 L 275 355.5 L 275 337.5 L 276.5 336 Z " /><path fill="rgb(205,105,47)" stroke="rgb(205,105,47)" stroke-width="0.6" opacity="1" d="M 290.5 338 L 308.5 338 L 309 339.5 L 307.5 341 L 296.5 341 L 295 342.5 L 296.5 344 L 306.5 344 L 312.5 343 L 315.5 340 L 327.5 340 L 328.5 341 L 353.5 341 L 367.5 339 L 439.5 338 Q 443.4 343.6 442 354.5 L 440 356.5 Q 441.5 362.5 438.5 364 L 430.5 363 L 426.5 364 L 418.5 355 L 411 353 Q 409.9 349.3 418.5 351 L 424.5 350 Q 427.8 351.9 426 358 L 429 356.5 Q 431 349 427.5 347 L 409.5 348 L 407.5 347 L 385.5 349 L 383.5 348 L 382.5 349 L 341.5 350 L 339.5 351 L 337.5 350 L 315.5 352 L 313.5 351 L 292.5 353 L 288 350.5 Q 285.5 340.5 290.5 338 Z " /><path fill="rgb(205,105,47)" stroke="rgb(205,105,47)" stroke-width="0.6" opacity="1" d="M 200.5 345 L 201 388.5 L 198.5 390 L 200 387.5 L 200.5 345 Z " /><path fill="rgb(205,105,47)" stroke="rgb(205,105,47)" stroke-width="0.6" opacity="1" d="M 380.5 352 L 382 352.5 L 380.5 354 L 362.5 354 L 362.5 353 L 379.5 353 L 380.5 352 Z " /><path fill="rgb(205,105,47)" stroke="rgb(205,105,47)" stroke-width="0.6" opacity="1" d="M 340.5 354 Q 346.4 352.3 345 356 Q 334.5 358.6 329 367.5 L 325 377 L 290.5 379 L 288 376.5 L 288 359.5 L 290.5 357 L 310.5 357 L 312.5 356 L 316.5 357 L 319.5 355 L 339.5 355 L 340.5 354 Z " /><path fill="rgb(205,105,47)" stroke="rgb(205,105,47)" stroke-width="0.6" opacity="1" d="M 403.5 356 Q 416.9 356.6 422 365.5 L 424 371.5 L 422 370.5 L 420.5 368 L 415.5 365 L 405.5 364 Q 394.6 367.1 389 375.5 L 384 385.5 L 382 401.5 L 384 414.5 L 392 425.5 L 387.5 426 L 379 420.5 L 378 414.5 L 381 403.5 L 380 401.5 L 381 400.5 L 381 377.5 Q 385.4 367.4 393.5 361 L 403.5 356 Z " /><path fill="rgb(205,105,47)" stroke="rgb(205,105,47)" stroke-width="0.6" opacity="1" d="M 437.5 370 L 438 392.5 L 435.5 394 L 437 391.5 L 437.5 370 Z " /><path fill="rgb(205,105,47)" stroke="rgb(205,105,47)" stroke-width="0.6" opacity="1" d="M 355.5 371 Q 364.2 371.8 368 377.5 L 375 390.5 L 376 401.5 L 372 418.5 L 362.5 430 Q 358.1 433.1 349.5 432 L 340 426.5 L 334 414.5 L 333 399.5 Q 334.8 383.8 344.5 376 L 355.5 371 Z M 353 384 L 351 385 Q 343 389 342 400 L 344 415 L 352 420 Q 359 421 362 418 Q 367 413 368 405 Q 369 396 366 391 L 359 384 L 353 384 Z " /><path fill="rgb(205,105,47)" stroke="rgb(205,105,47)" stroke-width="0.6" opacity="1" d="M 295.5 382 L 310 382.5 L 295.5 383 L 295.5 382 Z " /><path fill="rgb(205,105,47)" stroke="rgb(205,105,47)" stroke-width="0.6" opacity="1" d="M 73.5 386 L 112.5 392 L 186.5 395 L 187.5 394 L 205.5 394 L 207 395.5 L 207 414.5 L 204.5 417 Q 194.8 415.3 190.5 419 L 162.5 419 L 90.5 413 L 76.5 410 L 71 405.5 L 70 392.5 L 73.5 386 Z " /><path fill="rgb(205,105,47)" stroke="rgb(205,105,47)" stroke-width="0.6" opacity="1" d="M 256.5 395 L 264 397.5 Q 269.2 403.3 267 416.5 L 263 424 Q 260.8 427 253.5 426 Q 245.5 421.5 248 406.5 L 253 397 L 256.5 395 Z M 256 402 L 252 408 L 253 417 Q 254 420 260 419 L 264 413 L 263 404 Q 262 401 256 402 Z " /><path fill="rgb(36,36,35)" stroke="rgb(36,36,35)" stroke-width="0.6" opacity="1" d="M 80.5 195 L 85.5 201 L 80.5 195 Z " /><path fill="rgb(36,36,35)" stroke="rgb(36,36,35)" stroke-width="0.6" opacity="1" d="M 166.5 212 L 161.5 218 L 166.5 212 Z " /><path fill="rgb(36,36,35)" stroke="rgb(36,36,35)" stroke-width="0.6" opacity="1" d="M 389.5 335 L 403 335.5 L 389.5 336 L 389.5 335 Z " /><path fill="rgb(36,36,35)" stroke="rgb(36,36,35)" stroke-width="0.6" opacity="1" d="M 415.5 409 L 410.5 415 L 415.5 409 Z " /><path fill="rgb(180,103,47)" stroke="rgb(180,103,47)" stroke-width="0.6" opacity="1" d="M 418.5 355 L 423.5 361 L 418.5 355 Z " /><path fill="rgb(131,110,44)" stroke="rgb(131,110,44)" stroke-width="0.6" opacity="1" d="M 357.5 335 L 370 335.5 L 357.5 336 L 357.5 335 Z " /><path fill="rgb(95,94,43)" stroke="rgb(95,94,43)" stroke-width="0.6" opacity="1" d="M 370.5 335 L 383 335.5 L 370.5 336 L 370.5 335 Z " /><path fill="rgb(213,166,39)" stroke="rgb(213,166,39)" stroke-width="0.6" opacity="1" d="M 107.5 257 L 110 257.5 L 103 264.5 L 103.5 266 Q 99.7 263.7 105 261.5 L 107.5 257 Z " /><path fill="rgb(213,166,39)" stroke="rgb(213,166,39)" stroke-width="0.6" opacity="1" d="M 318.5 335 L 332 335.5 L 318.5 336 L 318.5 335 Z " /><path fill="rgb(191,173,40)" stroke="rgb(191,173,40)" stroke-width="0.6" opacity="1" d="M 332.5 335 L 345 335.5 L 332.5 336 L 332.5 335 Z " /><path fill="rgb(228,228,228)" stroke="rgb(228,228,228)" stroke-width="0.6" opacity="1" d="M 166.5 211 L 161.5 217 L 166.5 211 Z " /><path fill="rgb(228,228,228)" stroke="rgb(228,228,228)" stroke-width="0.6" opacity="1" d="M 200.5 229 L 205 235.5 L 200 231.5 L 200.5 229 Z " /><path fill="rgb(157,155,40)" stroke="rgb(157,155,40)" stroke-width="0.6" opacity="1" d="M 345.5 335 L 357 335.5 L 345.5 336 L 345.5 335 Z " /><path fill="rgb(195,195,195)" stroke="rgb(195,195,195)" stroke-width="0.6" opacity="1" d="M 107.5 137 L 108 148.5 L 107 148.5 L 107.5 137 Z " /><path fill="rgb(157,156,156)" stroke="rgb(157,156,156)" stroke-width="0.6" opacity="1" d="M 107.5 125 L 108 136.5 L 107 136.5 L 107.5 125 Z " /></svg>