<svg width="627" height="627" preserveAspectRatio="xMidYMid meet" viewBox="0 0 512 512" version="1.1" xmlns="http://www.w3.org/2000/svg" ><path fill="rgb(255,255,255)" stroke="rgb(255,255,255)" stroke-width="0.6" opacity="1" d="M 0 0 L 512 0 L 512 512 L 0 512 L 0 0 Z M 333 91 Q 282 97 249 121 Q 227 140 216 168 L 197 166 L 171 166 L 167 163 L 165 162 Q 167 151 163 146 Q 158 138 148 137 L 135 138 L 129 141 Q 120 146 122 162 L 117 167 L 108 167 L 86 171 L 71 179 L 60 192 L 51 218 L 50 219 L 40 220 Q 33 224 32 235 L 32 255 L 34 260 L 41 265 L 36 280 L 34 300 L 34 333 L 35 334 L 29 341 L 29 366 L 32 373 Q 38 379 50 379 L 56 393 Q 62 401 73 405 L 88 407 Q 104 408 112 400 L 122 387 L 127 388 L 171 388 L 173 387 L 181 406 Q 187 414 198 418 L 220 421 Q 238 422 247 413 Q 257 404 262 390 L 270 392 Q 286 393 295 386 Q 302 381 305 372 L 309 369 L 324 368 L 329 386 L 334 394 Q 342 403 357 405 Q 381 408 392 397 L 398 389 L 410 397 L 424 399 L 437 398 L 446 394 Q 460 383 462 360 L 468 358 L 471 355 L 471 338 L 464 321 L 463 306 Q 460 298 447 301 L 446 299 L 445 289 L 441 284 L 434 282 L 436 278 Q 434 273 438 274 L 445 286 L 455 293 L 465 293 L 476 287 L 484 276 L 484 268 L 454 215 L 460 189 L 468 186 L 471 182 L 473 168 L 472 152 Q 469 146 460 148 L 459 146 Q 459 122 449 109 L 440 101 L 412 98 Q 401 97 397 102 Q 372 89 333 91 Z " /><path fill="rgb(223,75,58)" stroke="rgb(223,75,58)" stroke-width="0.6" opacity="1" d="M 406.5 103 L 413.5 104 L 423 111.5 L 435 130.5 L 440 147.5 L 441 164.5 L 440 175.5 L 437.5 183 L 436 179.5 L 437 178.5 L 437 164.5 L 436 161.5 L 437 159.5 L 435 156.5 L 436 154.5 L 434 152.5 L 432 141.5 L 426 130.5 L 412 112 L 407 110 L 405.5 108 L 403 104 L 406.5 103 Z " /><path fill="rgb(223,75,58)" stroke="rgb(223,75,58)" stroke-width="0.6" opacity="1" d="M 168.5 171 L 191.5 171 L 192.5 172 L 195.5 171 L 208.5 173 L 210.5 172 L 217.5 174 L 220.5 173 Q 237 174 245 183.5 Q 249.7 190.3 250 201.5 L 249 205.5 L 251 211.5 L 250 215.5 L 252 230.5 L 251 236.5 L 252 237.5 L 252 314.5 L 248.5 316 L 235.5 311 L 225.5 312 L 223.5 312 Q 203.4 314.9 193 327.5 L 181.5 347 L 178 344.5 L 179 290.5 L 180.5 274 L 182.5 274 L 189.5 276 L 191.5 275 L 194.5 276 Q 202.5 274 206.5 268 L 225.5 266 L 227.5 267 L 237 260.5 L 239 253.5 L 239 212.5 L 238 202.5 L 235 195 L 226.5 191 L 223.5 192 L 222.5 191 L 203.5 191 L 195.5 193 L 194.5 192 L 187 199.5 L 183 219.5 L 183 221.5 L 182 226.5 L 183 228.5 L 178 234.5 L 179 236.5 Q 175.9 248.4 177 264.5 L 178 273.5 L 175 292.5 L 176 295.5 L 175 296.5 L 174 324.5 L 175 330.5 L 174 331.5 L 174 344.5 L 172.5 346 L 169.5 347 L 136.5 347 L 107.5 344 L 105.5 345 L 94.5 343 L 92.5 344 L 62.5 341 L 55.5 339 L 53.5 339 L 50.5 338 L 48.5 339 L 42.5 338 L 40 335.5 L 39 331.5 L 40 330.5 L 40 300.5 L 39 298.5 L 41 278.5 L 44 273.5 L 44 271.5 L 47.5 258 L 50 259 L 49 265.5 L 54.5 273 L 64.5 275 L 66.5 275 L 73.5 276 L 76.5 275 L 91.5 277 L 147.5 277 L 149.5 278 L 160.5 277 L 167 273.5 L 170 265.5 L 173 243.5 L 173 241.5 L 174 235.5 L 173 232.5 L 177 206.5 L 177 204.5 Q 177.2 195.3 171.5 192 L 155.5 188 L 153.5 189 L 142.5 187 L 135.5 188 L 134.5 187 L 102.5 187 L 97.5 188 L 93.5 187 L 86.5 189 L 84.5 189 Q 71.8 189.3 66 196.5 L 65 200 L 63 200.5 L 63.5 202 Q 60.5 202.9 62 198.5 Q 66.2 188.2 74.5 182 Q 84.8 174.3 101.5 173 L 103.5 173 L 107.5 172 L 109.5 173 L 118.5 172 L 119.5 173 L 153.5 173 L 168.5 171 Z M 223 278 L 216 279 Q 211 281 212 290 L 216 293 L 223 294 L 233 292 L 236 288 L 235 282 Q 233 276 223 278 Z M 70 302 L 64 305 L 63 308 L 68 310 L 72 316 Q 79 324 93 326 Q 102 327 109 324 L 111 324 L 111 322 Q 121 320 126 311 L 129 311 L 130 309 Q 128 304 121 304 L 122 308 L 121 311 Q 115 318 104 321 L 102 321 Q 86 323 79 316 L 71 308 L 72 304 L 70 302 Z " /><path fill="rgb(223,75,58)" stroke="rgb(223,75,58)" stroke-width="0.6" opacity="1" d="M 453.5 187 L 454 189.5 Q 454.7 199.7 450 204.5 L 450 206.5 L 437 256.5 L 432 268.5 L 432 270.5 L 429 283 L 411.5 285 L 409.5 284 L 406.5 285 Q 402.3 283.3 405 281.5 L 409 273.5 L 409 271.5 L 413 264.5 L 413 262.5 L 427 232.5 L 427 230.5 L 440 202.5 L 441 196.5 L 446.5 188 L 453.5 187 Z " /><path fill="rgb(223,75,58)" stroke="rgb(223,75,58)" stroke-width="0.6" opacity="1" d="M 436.5 188 L 441 189.5 L 428 215.5 L 428 217.5 Q 423 234.5 414 247.5 L 414 249.5 L 413 254 L 411 254.5 L 411 256.5 L 403 277 L 401 277.5 L 401 279.5 L 398.5 285 Q 391.8 286.8 390 283.5 L 411 236.5 L 427 209.5 L 429 203 L 431 202.5 L 431 200.5 L 434 190.5 L 436.5 188 Z " /><path fill="rgb(223,75,58)" stroke="rgb(223,75,58)" stroke-width="0.6" opacity="1" d="M 211.5 195 L 226.5 196 L 232 199.5 L 234 205.5 L 235 246.5 L 234 256.5 L 230.5 261 L 216.5 263 L 214.5 262 L 208 264 L 207 258.5 L 208 257.5 L 208 240.5 Q 207.6 231.4 201.5 228 Q 195.9 224.9 187 226 L 190 203.5 L 195.5 197 L 211.5 195 Z " /><path fill="rgb(223,75,58)" stroke="rgb(223,75,58)" stroke-width="0.6" opacity="1" d="M 60 203 Q 63.7 201.5 63 204.5 L 58.5 215 L 57 214.5 L 60 203 Z " /><path fill="rgb(223,75,58)" stroke="rgb(223,75,58)" stroke-width="0.6" opacity="1" d="M 58.5 216 L 58 219.5 L 51 253 L 49 253.5 L 50 257.5 L 48 256.5 L 50 241.5 L 56 217 L 58.5 216 Z " /><path fill="rgb(223,75,58)" stroke="rgb(223,75,58)" stroke-width="0.6" opacity="1" d="M 82.5 231 L 87.5 232 L 89.5 232 L 93 234.5 L 91.5 236 L 89.5 236 L 81 240.5 L 77 249.5 L 78 252.5 L 78 254.5 L 81 261.5 L 79.5 264 Q 70.5 259.5 72 244.5 L 78.5 233 L 82.5 231 Z " /><path fill="rgb(223,75,58)" stroke="rgb(223,75,58)" stroke-width="0.6" opacity="1" d="M 266.5 266 L 272 267.5 L 280 296.5 L 279 299 L 272.5 300 L 268.5 299 L 258.5 301 L 258 298.5 L 258 271.5 L 259.5 270 L 266.5 266 Z " /><path fill="rgb(223,75,58)" stroke="rgb(223,75,58)" stroke-width="0.6" opacity="1" d="M 221.5 282 L 223.5 282 Q 230.3 280.3 232 283.5 L 231 285.5 L 232 287.5 L 230.5 289 L 217.5 289 L 216 284.5 L 221.5 282 Z " /><path fill="rgb(223,75,58)" stroke="rgb(223,75,58)" stroke-width="0.6" opacity="1" d="M 412.5 312 L 436.5 312 L 449 320.5 L 444.5 321 L 434.5 319 Q 421.9 321.9 416 331.5 Q 408 341.7 407 358 Q 404 359.3 405 355.5 L 404 352.5 Q 402.1 334.9 390.5 327 Q 385 322 373.5 323 L 364 326 L 368.5 320 L 380.5 315 L 382.5 315 L 386.5 314 L 388.5 315 L 412.5 312 Z " /><path fill="rgb(223,75,58)" stroke="rgb(223,75,58)" stroke-width="0.6" opacity="1" d="M 35.5 340 L 79.5 347 L 81.5 346 L 87.5 348 L 92.5 347 L 134.5 351 L 137.5 350 L 160.5 352 L 170.5 350 L 172.5 350 Q 178.5 348.5 180 351.5 L 179 369.5 L 179 371.5 Q 180.8 379.2 176.5 381 L 169.5 383 L 126.5 383 L 101.5 380 L 99.5 380 L 91.5 379 L 89.5 379 L 84.5 378 L 80.5 379 L 53.5 374 L 51.5 375 L 39.5 372 L 36 369.5 L 34 365.5 L 33 347.5 L 35.5 340 Z " /><path fill="rgb(223,75,58)" stroke="rgb(223,75,58)" stroke-width="0.6" opacity="1" d="M 434.5 353 L 436 353.5 Q 433.5 355 437 356.5 L 436 360.5 L 435.5 363 L 432 362 Q 431.1 356 434.5 353 Z " /><path fill="rgb(223,75,58)" stroke="rgb(223,75,58)" stroke-width="0.6" opacity="1" d="M 292.5 370 L 300 371.5 L 291.5 382 Q 285.2 386.7 274.5 387 L 263 385 L 264.5 381 Q 271.8 381.8 274 377.5 L 276 372 L 292.5 370 Z " /><path fill="rgb(223,75,58)" stroke="rgb(223,75,58)" stroke-width="0.6" opacity="1" d="M 191.5 382 L 195 384.5 L 197 396.5 L 209 414.5 L 207.5 414 Q 190.5 413 184 401.5 L 181 395.5 Q 183.5 394 180 392.5 L 178 386.5 L 182.5 383 L 184.5 384 L 191.5 382 Z " /><path fill="rgb(49,53,52)" stroke="rgb(49,53,52)" stroke-width="0.6" opacity="1" d="M 316 98 L 321.5 98 Q 320.9 100.7 324 100 Q 323 97 326 98 Q 324.7 102.1 328 101 Q 326.5 97.3 329.5 98 L 335 100 L 335.5 103 L 336 101 L 340 102.5 L 339.5 104 L 341.5 103 L 343.5 106 L 345 105.5 L 344.5 107 L 346.5 106 L 347.5 108 L 346 107.5 Q 345.2 110.1 348.5 109 L 351 109.5 L 350 110.5 L 353.5 114 L 363 122.5 L 364.5 124 L 376.5 140 L 379 140.5 L 378 143.5 L 381.5 149 L 382.5 147 L 384 149.5 L 382 149.5 L 391 173.5 L 393 187 L 396 188.5 L 394.5 189 L 392 188 L 396 194.5 L 396.5 196 L 393 194 Q 396.8 201.9 395 216 Q 392 215 393 218 L 396.5 217 L 396 218.5 L 392.5 223 L 392.5 224 Q 396.3 223 395 226 Q 392 224.8 393 228.5 L 394 231 Q 391 229.8 392 233.5 L 390 240 L 388 241.5 L 388 243.5 L 389 247.5 L 388 247.5 L 387.5 246 L 386 249 L 388 249.5 L 384 251.5 L 380.5 257 L 374.5 261 L 373.5 260 L 369.5 264 L 362.5 268 L 359.5 267 L 357 268 Q 358.7 272.1 354.5 271 L 346.5 275 L 344 274 Q 345.3 277.3 340.5 276 L 339 276.5 L 337.5 275 L 339 272.5 L 343 264.5 L 342.5 263 L 344.5 263 L 346 262.5 L 346 260.5 L 350 244 L 352 243.5 L 348 242.5 L 351 241.5 L 351 234.5 Q 348.3 235.1 349 232 L 352 231.5 L 352 221 L 349 219.5 Q 348.3 215.5 351 216.5 L 351 211 L 348 209.5 L 352 208.5 L 350 208 L 351 204.5 L 349 204 L 348.5 206 L 348 204.5 L 349 199.5 Q 345.9 181.6 337.5 169 L 336 169.5 L 337 166.5 Q 329.7 150.6 319 139 L 317 138.5 L 318 137.5 L 314.5 134 L 302.5 127 L 300 126.5 L 299.5 124 L 298 122.5 L 296.5 123 L 294.5 124 L 290 121.5 L 292 120.5 L 289.5 120 L 287.5 121 L 283 118.5 L 281 117 L 280.5 119 L 277 117.5 L 277.5 116 Q 274.2 114.9 275 117.5 L 274 117.5 L 272.5 116 L 271.5 112 L 278.5 109 L 282 110 L 283.5 108 L 288.5 105 L 289.5 107 L 291.5 104 L 313.5 99 L 316 100 L 316 98 Z " /><path fill="rgb(49,53,52)" stroke="rgb(49,53,52)" stroke-width="0.6" opacity="1" d="M 424 103 L 431 104 Q 429.9 107.3 434 106 L 435.5 104 Q 443.4 106.1 447 112.5 L 448 114.5 L 448 116.5 L 449 120 L 451 121.5 L 453 125.5 L 451 126 L 452.5 128 L 454 129.5 L 455 145.5 L 453 150 Q 444.4 152.3 442 147.5 L 444 146 L 444 143 L 441 141.5 L 439 134.5 L 441 134 L 438.5 129 L 437 129.5 L 438 127.5 L 437 125 L 435 124.5 L 435.5 123 L 434 121.5 L 431 117.5 L 431 115.5 L 430.5 114 L 429 114.5 L 423 106.5 L 424 103 Z " /><path fill="rgb(49,53,52)" stroke="rgb(49,53,52)" stroke-width="0.6" opacity="1" d="M 420.5 108 L 425.5 114 L 420.5 108 Z " /><path fill="rgb(49,53,52)" stroke="rgb(49,53,52)" stroke-width="0.6" opacity="1" d="M 459 151 Q 465.8 149.9 469 153.5 L 467 155.5 L 467 166 Q 470 164.8 469 168.5 L 468 176.5 L 464.5 183 L 458 184 Q 459.1 180.7 455 182 L 454.5 184 L 451.5 183 L 442.5 184 L 443 182.5 L 444 178 L 442 177.5 L 443 175 Q 446.3 176.1 445 172 L 443 170.5 L 444 154 L 446 153.5 L 445.5 152 L 459 153 L 459 151 Z " /><path fill="rgb(49,53,52)" stroke="rgb(49,53,52)" stroke-width="0.6" opacity="1" d="M 441.5 155 L 442 166.5 L 441 166.5 L 441.5 155 Z " /><path fill="rgb(49,53,52)" stroke="rgb(49,53,52)" stroke-width="0.6" opacity="1" d="M 125.5 161 L 127.5 163 L 136 163.5 L 132 164.5 L 140 165.5 L 124.5 166 L 124.5 165 L 126 163.5 L 125.5 161 Z " /><path fill="rgb(49,53,52)" stroke="rgb(49,53,52)" stroke-width="0.6" opacity="1" d="M 254.5 197 L 254 198.5 L 255.5 201 L 256.5 198 L 259 199 L 260.5 201 L 263.5 206 L 265 205.5 Q 271.6 213.1 273 225 L 271 225.5 L 273 226 L 274 230 L 272 230.5 L 272 241 L 274 242.5 L 271 244 L 273 247.5 L 270.5 255 L 268 255.5 L 267 258.5 L 267 260.5 L 265.5 263 L 263 263.5 L 263.5 265 L 257.5 268 L 257.5 267 L 259 265.5 L 258 264.5 L 258 248 L 256 247.5 L 256 239.5 L 255 230 L 257 229.5 L 257 222 L 255 221.5 L 255 213.5 L 254 209 L 256 208.5 L 254 208 L 253 198.5 L 254.5 197 Z " /><path fill="rgb(49,53,52)" stroke="rgb(49,53,52)" stroke-width="0.6" opacity="1" d="M 235.5 216 L 236 250.5 L 235 250.5 L 235.5 216 Z " /><path fill="rgb(49,53,52)" stroke="rgb(49,53,52)" stroke-width="0.6" opacity="1" d="M 43.5 223 L 50 224 L 43 260 L 38 257.5 L 36 253.5 L 36 237.5 L 37 235.5 L 36 233.5 L 39.5 225 L 43.5 223 Z " /><path fill="rgb(49,53,52)" stroke="rgb(49,53,52)" stroke-width="0.6" opacity="1" d="M 88.5 229 L 95 233.5 L 96 235.5 L 91 231.5 L 90.5 230 Q 88.7 232.5 88.5 229 Z " /><path fill="rgb(49,53,52)" stroke="rgb(49,53,52)" stroke-width="0.6" opacity="1" d="M 132.5 229 L 134 231 L 131.5 231 L 126 235.5 L 123 244 L 121 242.5 L 123 238.5 L 128.5 231 L 132.5 229 Z " /><path fill="rgb(49,53,52)" stroke="rgb(49,53,52)" stroke-width="0.6" opacity="1" d="M 77.5 231 L 80 231.5 L 73 237.5 L 77.5 231 Z " /><path fill="rgb(49,53,52)" stroke="rgb(49,53,52)" stroke-width="0.6" opacity="1" d="M 401.5 242 L 394.5 250 L 401.5 242 Z " /><path fill="rgb(49,53,52)" stroke="rgb(49,53,52)" stroke-width="0.6" opacity="1" d="M 446.5 250 L 447 251.5 L 446.5 253 L 449 254.5 L 447 255.5 L 447.5 254 L 445 252.5 L 446.5 250 Z " /><path fill="rgb(49,53,52)" stroke="rgb(49,53,52)" stroke-width="0.6" opacity="1" d="M 70 252 Q 73.3 250.7 72 255.5 L 75 260.5 L 73 261 L 70 252 Z " /><path fill="rgb(49,53,52)" stroke="rgb(49,53,52)" stroke-width="0.6" opacity="1" d="M 449.5 256 L 449.5 258 L 451 258.5 L 450.5 260 L 453 261.5 Q 451.5 264.5 450 261.5 L 448 257.5 L 449.5 256 Z " /><path fill="rgb(49,53,52)" stroke="rgb(49,53,52)" stroke-width="0.6" opacity="1" d="M 454.5 265 L 454.5 267 L 457 268.5 L 458 270.5 L 456 271.5 L 456.5 270 L 454 268.5 L 453 266.5 L 454.5 265 Z " /><path fill="rgb(49,53,52)" stroke="rgb(49,53,52)" stroke-width="0.6" opacity="1" d="M 123.5 276 L 145 276.5 L 123.5 277 L 123.5 276 Z " /><path fill="rgb(49,53,52)" stroke="rgb(49,53,52)" stroke-width="0.6" opacity="1" d="M 408.5 285 Q 413.3 283.7 412 287 L 403 288 Q 401.6 284.3 407.5 286 L 408.5 285 Z " /><path fill="rgb(49,53,52)" stroke="rgb(49,53,52)" stroke-width="0.6" opacity="1" d="M 356.5 287 Q 361.3 285.7 360 289 L 351 290 Q 349.6 286.3 355.5 288 L 356.5 287 Z " /><path fill="rgb(49,53,52)" stroke="rgb(49,53,52)" stroke-width="0.6" opacity="1" d="M 436 287 L 441 289.5 L 442 300.5 L 439.5 301 Q 434.1 299.1 435 302.5 L 433.5 302 L 402 304 Q 403.2 300.3 398 302 Q 399.3 305 395.5 304 L 393 305 L 392.5 303 L 386 303 Q 387.3 306 383.5 305 L 380 306 Q 381 303 378 304 Q 379.1 307.5 371.5 306 L 359.5 309 L 358.5 307 L 358 310 L 344 315 Q 345.1 311.7 341 313 L 340.5 315 L 332.5 315 L 329.5 316 L 327.5 315 L 303 318 Q 304.2 314.3 299 316 Q 300.4 319.7 294.5 318 L 292 319 Q 293.2 315.3 288 317 L 287.5 319 L 285.5 318 L 281 319 Q 279.8 322 283.5 321 L 286.5 322 L 293.5 320 L 296.5 321 L 311 319 Q 309.9 322.3 314 321 Q 312.6 317 319.5 319 L 322 318 Q 320.8 321.7 326 320 Q 324.6 316 331.5 318 L 334 317 L 335.5 319 L 342.5 317 L 342.5 319 Q 345.8 320.1 345 317.5 L 346 317.5 Q 333.2 330 331 352 L 329 352.5 L 331 353 L 330 363 L 319.5 365 L 316.5 364 L 293 367 Q 294 364 291 365 Q 292.4 369 285.5 367 L 283 368 Q 284.1 364.7 280 366 L 279.5 368 L 277.5 367 L 275.5 368 L 274.5 366 Q 277.5 366.4 276 360 L 274 358.5 L 273 356 Q 276.3 357.1 275 353 L 273 351.5 L 272.5 350 L 274 348 L 272 346.5 L 271 343.5 L 272 341.5 L 269 340 L 262 326.5 L 263 324.5 L 262.5 323 L 269 322 Q 267.9 325.3 272 324 L 272 322 L 278.5 322 L 279 320 L 275.5 319 L 268.5 320 L 265.5 319 Q 263.8 321.8 258.5 321 L 258 318.5 L 259 305.5 L 256 304.5 Q 259.9 302.3 256.5 300 L 261 301 L 261.5 303 L 276.5 303 L 292 301 L 292 303 L 298 303 Q 296.6 299.3 302.5 301 L 306 300 Q 304.8 303.7 310 302 Q 308.6 298 315.5 300 L 319 299 Q 317.9 302.3 322 301 L 322 299 L 330.5 299 L 331 297.5 L 330.5 296 L 334 296.5 L 333.5 298 L 357 297 Q 356 300 359 299 Q 357.8 296 361.5 297 L 364 296 L 364 298 L 370 298 Q 368.6 294.3 374.5 296 L 377 295 Q 375.8 298.7 381 297 L 381 295 L 389.5 295 L 390 292 L 393 292 L 394.5 296 L 395 294 L 404.5 294 Q 403.5 291 408.5 292 L 411 291 L 411.5 293 L 421.5 293 L 421.5 291 L 426 290 Q 424 296 430 294 L 431.5 290 L 433.5 290 L 436 288.5 L 436 287 Z " /><path fill="rgb(49,53,52)" stroke="rgb(49,53,52)" stroke-width="0.6" opacity="1" d="M 176.5 288 L 177 291 Q 180.3 289.9 179 294 Q 175.7 292.7 177 297.5 L 176 297.5 L 177 291.5 L 176.5 288 Z " /><path fill="rgb(49,53,52)" stroke="rgb(49,53,52)" stroke-width="0.6" opacity="1" d="M 444.5 291 L 446 301.5 L 444 300.5 L 444.5 291 Z " /><path fill="rgb(49,53,52)" stroke="rgb(49,53,52)" stroke-width="0.6" opacity="1" d="M 432.5 323 L 437.5 324 L 440.5 323 L 452 331.5 L 456 340.5 L 455 343 Q 458 341.8 457 345.5 L 457.5 347 L 456 347.5 L 458 348 L 458 364.5 L 456.5 366 L 455 368 L 457 368.5 L 451 379.5 L 451 381.5 L 448.5 385 L 444 387.5 Q 445.1 390.8 442.5 390 Q 438.5 395.8 428 394 L 426.5 392 L 424.5 392 L 417 386.5 L 412 375 L 414 374.5 L 413 370 Q 409.7 371.1 411 367 L 408 367 L 408 364 L 412 363 Q 413 360 410 361 L 410 357.5 L 411 353 Q 414 354 413 351 L 411 350.5 L 412 348 L 414 346.5 L 413 344.5 L 417 338.5 L 417 336.5 L 424.5 327 L 426 327.5 L 427.5 325 L 432.5 323 Z M 434 339 L 431 340 L 423 352 L 421 366 L 423 367 L 426 377 L 435 380 L 440 377 Q 445 373 447 365 L 449 363 Q 450 360 447 361 L 448 359 L 447 354 L 449 352 L 448 348 Q 445 349 446 346 L 440 339 L 434 339 Z " /><path fill="rgb(49,53,52)" stroke="rgb(49,53,52)" stroke-width="0.6" opacity="1" d="M 200.5 325 L 194.5 332 L 200.5 325 Z " /><path fill="rgb(49,53,52)" stroke="rgb(49,53,52)" stroke-width="0.6" opacity="1" d="M 32.5 346 L 33 356.5 L 32 356.5 L 32.5 346 Z " /><path fill="rgb(49,53,52)" stroke="rgb(49,53,52)" stroke-width="0.6" opacity="1" d="M 373.5 346 Q 379.5 344.5 381 347.5 L 382.5 350 L 386 352.5 L 387 369.5 Q 384.9 377.9 378.5 382 L 373.5 383 L 367 377.5 L 364 368.5 L 365 364.5 L 364 361.5 Q 364.8 352.3 370.5 348 L 373.5 346 Z M 380 359 Q 380 366 377 370 L 378 371 L 381 364 L 383 364 L 381 363 L 380 359 Z M 370 363 L 371 368 L 370 370 L 373 371 L 374 371 L 372 368 L 373 365 L 370 363 Z " /><path fill="rgb(49,53,52)" stroke="rgb(49,53,52)" stroke-width="0.6" opacity="1" d="M 433.5 351 L 437 351.5 L 437.5 354 L 439 353.5 L 440 355.5 L 438.5 356 L 434.5 353 L 432 358 Q 429 359.3 430 355.5 L 431.5 353 L 434 352.5 L 433.5 351 Z " /><path fill="rgb(49,53,52)" stroke="rgb(49,53,52)" stroke-width="0.6" opacity="1" d="M 438 360 L 440 360.5 L 435.5 367 L 430 363.5 Q 429 359.8 432 361 L 431 363.5 Q 434 368.3 437 364.5 Q 434.5 363 438 361.5 L 438 360 Z " /><path fill="rgb(49,53,52)" stroke="rgb(49,53,52)" stroke-width="0.6" opacity="1" d="M 271.5 361 L 272 372.5 L 271 372.5 L 271.5 361 Z " /><path fill="rgb(49,53,52)" stroke="rgb(49,53,52)" stroke-width="0.6" opacity="1" d="M 58.5 379 L 64 380 L 64.5 382 L 65 380 L 70 382 L 70 385.5 L 79 398.5 L 77 399.5 L 77.5 401 Q 64.3 400.2 60 390.5 L 56 383.5 L 59 381.5 L 58.5 379 Z " /><path fill="rgb(49,53,52)" stroke="rgb(49,53,52)" stroke-width="0.6" opacity="1" d="M 76.5 382 L 93.5 385 L 96.5 384 L 101 386 Q 99.8 383 103.5 384 L 110 385 L 110 387 Q 114.8 385.1 114 388.5 L 116 388.5 L 112.5 393 L 111.5 392 L 108 395.5 Q 110.8 397.3 106.5 399 Q 100.7 403.7 88.5 402 Q 87.3 399 83 400 L 82.5 402 L 81 399.5 L 82 398.5 L 77 393.5 L 72 384.5 L 76.5 382 Z " /><path fill="rgb(49,53,52)" stroke="rgb(49,53,52)" stroke-width="0.6" opacity="1" d="M 146.5 387 L 157 387.5 L 146.5 388 L 146.5 387 Z " /><path fill="rgb(74,133,177)" stroke="rgb(74,133,177)" stroke-width="0.6" opacity="1" d="M 331 96 Q 354.5 94.3 372.5 99 Q 387.8 106.2 398 118.5 Q 411.8 134.7 419 157.5 L 423 180.5 L 423 193.5 L 418 215.5 Q 407.8 232.3 393.5 245 L 391.5 244 L 390 244.5 L 396 228.5 L 398 205.5 L 396 183.5 L 387 154.5 Q 375.3 128.3 354.5 111 L 331 97.5 L 331 96 Z " /><path fill="rgb(74,133,177)" stroke="rgb(74,133,177)" stroke-width="0.6" opacity="1" d="M 264.5 118 Q 280.7 116.8 290.5 122 Q 307.7 129.8 319 143.5 Q 334.6 161.4 343 186.5 L 348 208.5 L 349 234.5 L 347 249.5 L 343 261.5 L 332.5 276 Q 323.1 282.1 305.5 280 L 287.5 277 L 282 274.5 Q 299.6 259.6 296 223.5 Q 289.9 188.1 268.5 168 Q 261.4 160.6 250.5 157 L 236.5 156 L 226 159 Q 235.9 137.5 253.5 123 L 264.5 118 Z " /><path fill="rgb(74,133,177)" stroke="rgb(74,133,177)" stroke-width="0.6" opacity="1" d="M 139.5 142 Q 153.5 140.5 159 147.5 L 161 154.5 L 160 158.5 L 161 160.5 L 152.5 163 L 127.5 163 L 126 159.5 L 128 148.5 L 132.5 144 L 139.5 142 Z " /><path fill="rgb(74,133,177)" stroke="rgb(74,133,177)" stroke-width="0.6" opacity="1" d="M 236.5 159 Q 247.7 158.2 254.5 162 Q 266.1 168.5 274 178.5 Q 284.8 191.7 290 210.5 L 293 225.5 L 293 245.5 Q 290.8 262.3 280.5 271 L 277 269.5 L 271 259.5 L 276 248.5 L 277 231.5 Q 275 207 259.5 196 L 253 192.5 Q 251.8 182.2 245.5 177 Q 237 169.4 222 169 L 226.5 163 L 236.5 159 Z " /><path fill="rgb(74,133,177)" stroke="rgb(74,133,177)" stroke-width="0.6" opacity="1" d="M 451 220 L 453 221.5 L 477 266.5 L 462.5 277 L 444 244.5 L 451 220 Z " /><path fill="rgb(74,133,177)" stroke="rgb(74,133,177)" stroke-width="0.6" opacity="1" d="M 90.5 241 L 94 242.5 L 95 246.5 L 90.5 250 Q 87 249 88 243.5 L 90.5 241 Z " /><path fill="rgb(74,133,177)" stroke="rgb(74,133,177)" stroke-width="0.6" opacity="1" d="M 442 252 Q 445.8 250.5 445 253.5 L 461.5 280 L 463.5 279 L 465.5 279 L 477.5 270 L 480 270.5 Q 478 280.5 470.5 285 Q 465.8 288.8 457.5 289 L 450 284.5 L 439 266.5 L 440 264.5 L 439 262.5 L 442 252 Z " /><path fill="rgb(74,133,177)" stroke="rgb(74,133,177)" stroke-width="0.6" opacity="1" d="M 382.5 308 L 382.5 311 Q 365.3 313.8 357 325.5 L 349 340.5 L 345 360.5 L 342.5 363 L 336.5 364 L 333 361.5 Q 334.4 331.9 350.5 317 L 360.5 311 L 382.5 308 Z " /><path fill="rgb(74,133,177)" stroke="rgb(74,133,177)" stroke-width="0.6" opacity="1" d="M 227.5 315 L 231.5 316 L 233.5 315 Q 251.1 317.9 260 329.5 Q 272.7 344.3 271 373.5 Q 270.3 376.8 265.5 376 L 264 374.5 Q 265.5 359.5 262 349.5 Q 258.3 338.3 249.5 332 Q 243.2 326.3 229.5 328 Q 213.2 332.2 205 344.5 Q 196.5 356 194 373.5 L 189.5 379 L 184.5 380 Q 181.5 378.5 183 372.5 L 185 348.5 Q 190.1 334.6 200.5 326 Q 210.7 317.2 227.5 315 Z " /><path fill="rgb(74,133,177)" stroke="rgb(74,133,177)" stroke-width="0.6" opacity="1" d="M 433.5 342 Q 441.8 340.8 443 346.5 Q 446.1 351.9 445 361.5 L 438.5 374 L 430.5 375 Q 424.6 371.4 425 361.5 L 426 359.5 L 425 355.5 Q 425.9 347.9 430.5 344 L 433.5 342 Z M 435 350 L 433 351 L 429 357 L 430 365 Q 431 368 437 367 Q 442 364 440 354 L 435 350 Z " /><path fill="rgb(74,133,177)" stroke="rgb(74,133,177)" stroke-width="0.6" opacity="1" d="M 406.5 363 L 408 364.5 L 410 379.5 L 418 391.5 L 413.5 393 Q 405.9 391.6 402 386.5 L 400 382.5 L 406.5 363 Z " /><path fill="rgb(74,133,177)" stroke="rgb(74,133,177)" stroke-width="0.6" opacity="1" d="M 331.5 367 L 341.5 368 L 344 367 L 344.5 369 L 346 368.5 Q 346 388 356.5 397 L 358 398.5 L 355.5 399 Q 341.2 398.3 336 388.5 Q 330.3 381.2 330 368.5 L 331.5 367 Z " /><path fill="rgb(74,133,177)" stroke="rgb(74,133,177)" stroke-width="0.6" opacity="1" d="M 229.5 368 L 233 370.5 Q 235 379 230.5 381 L 226 379.5 Q 224 370 229.5 368 Z " /><path fill="rgb(240,185,49)" stroke="rgb(240,185,49)" stroke-width="0.6" opacity="1" d="M 393.5 106 Q 407.9 113.1 417 125.5 Q 432.2 143.8 432 177.5 L 428 195 L 426 194.5 L 426 175.5 Q 419.6 131.4 392 108.5 L 393.5 106 Z " /><path fill="rgb(240,185,49)" stroke="rgb(240,185,49)" stroke-width="0.6" opacity="1" d="M 124.5 166 L 162.5 166 L 163 168 L 123 167.5 L 124.5 166 Z " /><path fill="rgb(240,185,49)" stroke="rgb(240,185,49)" stroke-width="0.6" opacity="1" d="M 93.5 192 L 145.5 192 L 164.5 194 L 172 198.5 L 172 211.5 L 166 263.5 L 161.5 272 L 158.5 273 L 100.5 273 L 61.5 270 L 56.5 269 L 54 266.5 L 54 256.5 L 60 227.5 L 66 206.5 L 72.5 196 L 93.5 192 Z M 84 208 L 80 210 L 75 218 L 84 214 L 91 215 Q 95 216 93 212 Q 91 207 84 208 Z M 137 208 L 131 213 L 133 215 L 136 214 L 142 214 L 150 218 L 149 214 Q 146 207 137 208 Z M 81 228 L 78 230 Q 71 235 69 245 Q 68 254 71 260 L 81 267 Q 88 268 92 265 Q 99 261 100 251 Q 101 238 95 232 Q 92 226 81 228 Z M 133 228 L 129 230 Q 121 236 119 248 Q 119 257 123 263 L 132 268 Q 141 269 145 265 Q 150 260 152 251 Q 153 240 149 235 Q 146 226 133 228 Z " /><path fill="rgb(240,185,49)" stroke="rgb(240,185,49)" stroke-width="0.6" opacity="1" d="M 134.5 231 Q 142.5 230 145 234.5 L 147 237.5 Q 145.3 240.8 143.5 237 Q 134.5 235.5 132 240.5 Q 127.5 245 128 254.5 L 133 263.5 L 130.5 264 L 127 263 Q 121.2 258.1 123 244.5 Q 124.6 235.6 131.5 232 L 134.5 231 Z " /><path fill="rgb(240,185,49)" stroke="rgb(240,185,49)" stroke-width="0.6" opacity="1" d="M 188.5 231 Q 197.4 229.6 201 233.5 L 203 238.5 L 203 260.5 L 199.5 269 L 189.5 271 Q 184 270.6 182 266.5 L 182 240.5 L 183 235.5 L 186.5 232 L 188.5 231 Z " /><path fill="rgb(240,185,49)" stroke="rgb(240,185,49)" stroke-width="0.6" opacity="1" d="M 141.5 242 L 146 244.5 L 144.5 249 Q 139.1 250.9 140 247.5 L 139 244.5 L 141.5 242 Z " /><path fill="rgb(240,185,49)" stroke="rgb(240,185,49)" stroke-width="0.6" opacity="1" d="M 402.5 242 L 404 244.5 L 383.5 285 L 320.5 288 L 317 287 L 316.5 289 L 300.5 289 L 299.5 290 L 284.5 290 L 281 281.5 L 283.5 281 L 318 286 L 318.5 284 L 329.5 284 Q 375.2 273.2 402 243.5 L 402.5 242 Z " /><path fill="rgb(240,185,49)" stroke="rgb(240,185,49)" stroke-width="0.6" opacity="1" d="M 407.5 288 L 415 288.5 L 408.5 291 L 376.5 291 L 372.5 293 L 356.5 294 L 345 293 L 344.5 295 L 331.5 295 L 319.5 296 L 317 295 L 316.5 297 L 299.5 297 L 288.5 298 L 286.5 297 L 284 296.5 L 285.5 294 L 306.5 293 L 317.5 294 L 319.5 292 L 340.5 291 L 353.5 292 L 355.5 290 L 389.5 290 L 407.5 288 Z " /><path fill="rgb(240,185,49)" stroke="rgb(240,185,49)" stroke-width="0.6" opacity="1" d="M 432 306 L 456.5 306 L 459 308.5 L 459 321.5 Q 467.3 331.7 466 351.5 L 463.5 353 L 462 351.5 L 462 341.5 L 458 327.5 L 448.5 314 Q 442.9 307.7 432 308 L 432 306 Z " /><path fill="rgb(240,185,49)" stroke="rgb(240,185,49)" stroke-width="0.6" opacity="1" d="M 372.5 328 Q 387.2 326.3 392 334.5 Q 401.8 345.2 400 367.5 Q 397.3 387.8 383.5 397 Q 378.6 400.6 369.5 400 Q 360.4 397.5 356 390.5 Q 347.4 379.6 350 357.5 Q 353.1 339.6 365.5 331 L 372.5 328 Z M 376 342 L 371 344 Q 363 349 361 359 Q 359 373 364 380 L 373 386 L 381 384 Q 389 378 391 366 Q 392 355 388 350 Q 385 342 376 342 Z " /><path fill="rgb(240,185,49)" stroke="rgb(240,185,49)" stroke-width="0.6" opacity="1" d="M 225.5 334 Q 244.7 332.8 251 344.5 Q 259 355.5 259 374.5 Q 257 397.5 243.5 409 Q 236.5 416 221.5 415 Q 211.3 412.3 206 404.5 Q 197.4 393.6 198 373.5 Q 201.4 351.9 214.5 340 L 225.5 334 Z M 228 351 L 224 353 Q 214 359 212 374 Q 212 385 216 392 Q 219 398 228 399 L 236 397 Q 245 391 247 377 Q 248 362 241 356 Q 238 350 228 351 Z " /><path fill="rgb(240,185,49)" stroke="rgb(240,185,49)" stroke-width="0.6" opacity="1" d="M 228.5 355 Q 236.8 354.2 239 359.5 Q 243.9 366 242 379.5 L 235.5 392 Q 232.5 395 225.5 394 L 219 388.5 L 216 373.5 Q 217.4 362.4 224.5 357 L 228.5 355 Z M 229 365 L 227 366 Q 222 369 222 376 Q 222 383 228 385 L 233 384 L 237 378 L 236 369 Q 235 364 229 365 Z " /><path fill="rgb(9,9,10)" stroke="rgb(9,9,10)" stroke-width="0.6" opacity="1" d="M 335.5 92 Q 350.1 90.4 359.5 94 L 361.5 93 L 367.5 94 L 369.5 96 L 376.5 96 L 396.5 103 L 402.5 100 L 422.5 100 L 438.5 102 L 444 105.5 Q 442.9 108.8 445.5 108 L 449 110.5 L 457 130.5 L 457 147.5 L 458.5 149 Q 467.4 147.6 471 151.5 L 472 154.5 L 471 158.5 L 472 164.5 L 470 180.5 L 466.5 185 Q 460.9 184.9 459 188.5 L 453 209.5 L 453 214.5 L 483 268.5 L 483 275.5 L 472.5 288 L 463.5 292 L 455.5 292 L 448 287.5 L 437.5 272 L 435 273.5 L 433 282.5 L 443 287.5 L 444 300.5 L 445.5 302 Q 457 300 461 304 Q 464.5 309.6 463 321.5 Q 468.4 328.6 470 339.5 L 470 354.5 L 461 358.5 Q 459.1 380.6 446.5 392 L 436.5 397 L 414.5 397 Q 403 395 397.5 387 L 387.5 399 L 379.5 403 L 358.5 404 Q 343.8 402.5 336 395 L 330 385.5 L 328 374.5 L 324.5 367 L 315.5 368 L 312.5 367 L 306.5 368 L 304 370.5 Q 302.6 379.1 296.5 383 L 286.5 389 L 269.5 390 L 266.5 389 L 264.5 390 L 260.5 389 L 251.5 406 L 250 407.5 L 241.5 415 L 232.5 419 L 207.5 419 L 205.5 417 L 198.5 417 L 193.5 415 L 183 406.5 L 178 398.5 L 176 389.5 L 173.5 386 L 168.5 387 L 129.5 387 L 120.5 386 Q 116.5 395.5 108.5 401 L 99.5 405 L 77.5 405 L 75.5 403 Q 69.2 403.8 66.5 401 L 58 393.5 L 49.5 377 L 46.5 378 L 40.5 375 L 36.5 375 L 32 370.5 L 30 364.5 L 30 341.5 L 33.5 336 L 36 334.5 L 35 304.5 L 36 303.5 L 36 286.5 L 38 282.5 L 37 279.5 L 42 263.5 L 34 257.5 L 33 236.5 L 34 229.5 L 37.5 223 L 42.5 220 Q 50 222 52 218.5 L 60 193.5 L 65.5 186 L 67 184.5 L 70.5 180 L 80.5 174 L 102.5 169 L 104.5 169 L 117.5 168 L 119 166.5 L 120.5 164 L 123 162.5 L 124 148.5 L 130.5 141 L 144.5 138 L 155.5 140 L 161 144.5 L 164 151.5 L 163 154.5 L 164 161.5 L 169.5 167 Q 177 165 179 168.5 Q 170 167.5 165.5 171 L 103.5 171 Q 99.1 174.1 90.5 173 Q 77 176.5 69 185.5 Q 60.5 194.5 57 208.5 L 49 240.5 L 45 265.5 L 41 273.5 L 39 282.5 L 38 335.5 L 42.5 339 L 53 340 Q 54.4 343.7 48.5 342 L 35.5 338 Q 29.4 344.4 32 359.5 L 33 367.5 L 37.5 372 L 48.5 376 L 108.5 383 L 171.5 384 L 179 380.5 L 181 373.5 L 181 351.5 Q 179.1 347.3 172 349 L 173.5 347 L 175 345.5 L 175 335 L 177 335.5 L 177 345.5 L 181.5 349 L 190 333.5 L 199.5 323 Q 210.2 313.5 229 313 Q 230.1 316.8 221.5 315 Q 202.7 319.2 193 332.5 L 183 349.5 L 183 375.5 L 182 378.5 Q 183.3 381.3 188.5 380 L 195 374.5 Q 198.4 347.9 215.5 335 L 228.5 329 L 241.5 329 Q 250.8 332.2 256 339.5 L 263 356.5 L 263 375.5 L 264.5 377 Q 269.8 378.3 271 375.5 L 272 358.5 Q 269 333 252.5 321 Q 245.1 314.6 232 315 Q 230.6 311 237.5 313 Q 246.5 314 251.5 319 L 254 315.5 L 254 261.5 L 253 256.5 L 253 254.5 L 253 222.5 L 251 197.5 Q 249.8 185.2 242.5 179 L 236.5 175 L 214.5 171 L 212.5 171 L 180 168.5 L 191.5 167 L 216.5 169 Q 227.3 143.3 245.5 125 Q 259.1 113.1 277.5 106 L 315.5 95 L 317.5 96 L 327.5 93 L 329.5 94 L 335.5 92 Z M 329 95 L 324 98 L 319 97 L 287 105 L 269 114 Q 265 113 266 116 L 258 119 L 247 127 L 227 154 L 224 160 L 224 165 L 221 169 L 229 172 L 235 172 L 243 176 Q 251 181 252 194 L 260 197 L 271 212 L 271 214 L 267 208 L 256 197 L 253 199 L 255 220 L 256 267 L 258 268 L 262 267 Q 270 260 273 249 Q 271 243 275 244 Q 275 254 270 261 L 277 271 Q 276 273 281 272 L 286 266 L 289 264 L 288 267 L 283 271 L 280 275 L 287 278 L 308 281 L 329 280 L 332 277 L 334 278 L 347 276 L 368 266 L 380 258 L 386 251 L 388 252 L 405 236 L 405 234 L 418 218 L 421 208 L 425 205 L 428 200 L 433 181 Q 435 161 430 149 Q 425 134 416 123 L 406 112 L 386 101 L 383 102 L 380 102 L 371 97 Q 363 98 360 95 L 329 95 Z M 406 102 L 401 103 L 400 106 L 406 110 L 407 112 L 411 113 Q 432 131 436 167 L 435 176 Q 433 183 437 185 L 440 181 L 442 169 Q 443 156 441 149 L 445 150 L 444 153 L 443 176 L 441 181 L 443 185 L 464 184 L 468 179 L 470 159 L 469 154 L 467 151 L 453 151 L 455 148 Q 456 134 453 125 L 445 110 L 440 105 L 430 103 Q 421 101 419 105 L 422 106 Q 431 113 435 127 L 436 128 L 427 115 L 416 104 L 406 102 Z M 137 141 L 129 145 L 125 157 L 126 164 Q 127 166 124 165 Q 119 167 123 169 L 165 169 L 166 168 L 161 165 L 162 163 L 161 157 L 162 155 L 160 148 L 153 142 L 137 141 Z M 435 187 L 429 203 L 415 226 L 412 234 L 408 235 L 405 239 Q 379 270 333 282 L 330 281 L 326 283 L 303 283 L 290 281 L 288 279 L 282 278 L 279 280 L 283 293 L 283 295 Q 282 300 285 301 L 285 302 L 278 302 Q 277 299 281 300 L 276 274 L 271 264 L 268 264 L 256 272 L 256 301 L 258 303 L 256 305 L 256 320 L 258 321 L 266 322 L 260 323 L 271 344 L 274 367 L 276 368 L 315 366 L 329 364 L 330 363 L 334 339 L 342 323 L 346 319 L 345 317 L 366 307 Q 371 305 370 309 Q 357 309 351 316 Q 333 331 332 363 L 337 365 L 344 364 L 346 361 Q 346 347 351 338 L 359 325 Q 368 314 384 311 L 394 311 L 394 313 Q 376 312 366 321 L 355 335 L 357 336 L 360 332 L 361 331 Q 365 325 375 324 Q 386 324 392 329 L 401 343 L 403 359 L 405 360 L 409 359 Q 412 358 410 363 L 406 362 L 403 365 Q 404 376 399 383 L 401 387 L 413 394 L 421 394 L 421 393 L 419 391 L 410 376 L 412 374 L 415 385 Q 420 392 430 395 Q 441 395 446 389 L 454 379 L 459 357 L 458 343 L 452 332 L 443 323 Q 431 321 426 326 Q 416 333 412 347 Q 413 350 410 349 Q 411 338 418 331 Q 424 322 437 320 L 449 324 L 451 328 Q 453 332 455 329 L 450 321 Q 445 314 437 311 L 410 311 L 409 309 L 437 309 L 446 313 Q 457 322 460 339 L 459 343 L 463 355 L 468 352 L 466 333 L 461 324 L 460 308 L 456 304 L 397 306 L 396 307 L 386 307 L 385 305 L 415 303 L 441 303 L 442 302 L 442 291 L 439 287 L 429 286 L 454 201 L 456 187 L 445 188 L 435 187 Z M 452 218 L 443 245 L 446 251 L 444 249 L 441 252 L 438 262 L 438 267 L 449 285 Q 452 289 459 290 L 471 286 Q 478 281 481 273 L 472 253 L 452 218 Z M 45 222 L 41 223 Q 36 226 36 233 L 36 256 L 37 258 L 43 260 L 45 255 L 51 225 Q 50 221 45 222 Z M 376 326 L 361 332 Q 350 343 348 365 L 346 365 L 342 367 L 335 366 L 329 368 L 329 376 L 335 389 Q 342 401 361 401 Q 351 392 347 377 Q 345 371 349 372 Q 350 384 356 393 L 366 400 Q 369 399 368 402 L 374 402 L 387 396 Q 398 387 401 370 Q 404 346 394 336 Q 389 327 376 326 Z M 224 333 L 216 338 Q 201 350 197 373 L 197 382 L 195 382 L 194 379 L 185 383 L 183 382 L 180 383 L 177 387 Q 179 398 185 405 Q 192 413 204 416 L 214 416 L 214 415 L 211 413 Q 201 406 197 393 Q 196 389 199 390 Q 200 401 207 408 Q 213 415 225 417 L 235 416 L 242 412 Q 258 402 260 378 Q 261 354 250 342 Q 243 331 224 333 Z M 289 369 L 276 371 L 273 377 Q 271 381 264 379 L 261 385 L 267 388 L 282 388 L 295 381 L 302 372 L 301 369 L 294 370 L 289 369 Z M 57 379 L 55 381 L 61 393 L 67 398 L 75 402 L 83 402 L 83 401 L 77 396 L 78 394 Q 82 402 93 403 L 106 400 L 115 391 L 116 385 L 83 383 L 74 381 L 72 384 L 70 383 L 68 380 L 57 379 Z " /><path fill="rgb(9,9,10)" stroke="rgb(9,9,10)" stroke-width="0.6" opacity="1" d="M 385.5 105 L 401 118.5 L 410 132.5 L 408 131.5 Q 399.8 117.2 387.5 107 L 385.5 105 Z " /><path fill="rgb(9,9,10)" stroke="rgb(9,9,10)" stroke-width="0.6" opacity="1" d="M 355.5 114 L 367 124.5 L 366.5 126 L 355.5 114 Z " /><path fill="rgb(9,9,10)" stroke="rgb(9,9,10)" stroke-width="0.6" opacity="1" d="M 436.5 129 L 441 141 Q 438 142.3 439 138.5 L 436.5 129 Z " /><path fill="rgb(9,9,10)" stroke="rgb(9,9,10)" stroke-width="0.6" opacity="1" d="M 311.5 134 L 320 141.5 L 319.5 143 L 311.5 134 Z " /><path fill="rgb(9,9,10)" stroke="rgb(9,9,10)" stroke-width="0.6" opacity="1" d="M 325.5 149 L 332 158.5 L 330 157.5 L 325.5 149 Z " /><path fill="rgb(9,9,10)" stroke="rgb(9,9,10)" stroke-width="0.6" opacity="1" d="M 256.5 161 L 268 169.5 L 266.5 170 L 256.5 161 Z " /><path fill="rgb(9,9,10)" stroke="rgb(9,9,10)" stroke-width="0.6" opacity="1" d="M 271.5 173 L 282 187.5 L 279 185.5 L 271 174.5 L 271.5 173 Z " /><path fill="rgb(9,9,10)" stroke="rgb(9,9,10)" stroke-width="0.6" opacity="1" d="M 103.5 188 L 149 189 L 148.5 191 L 90.5 191 L 76.5 193 L 67 200.5 Q 58.6 222.3 55 248 Q 52 249.3 53 245.5 L 63 205.5 L 71.5 193 L 81.5 190 L 103.5 188 Z " /><path fill="rgb(9,9,10)" stroke="rgb(9,9,10)" stroke-width="0.6" opacity="1" d="M 150.5 190 L 166.5 191 L 173 194.5 L 175 200 L 173 198.5 L 168.5 194 Q 161.9 191.1 151.5 192 L 150.5 190 Z " /><path fill="rgb(9,9,10)" stroke="rgb(9,9,10)" stroke-width="0.6" opacity="1" d="M 203.5 192 Q 224.9 189.1 235 197.5 Q 238.1 203.1 237 212 L 235 211.5 L 235 202.5 L 229.5 196 L 209.5 194 L 198.5 195 L 191 199.5 Q 187.2 204.6 188 213 Q 184.3 214.3 186 208.5 Q 186.4 198.9 192.5 195 L 203.5 192 Z " /><path fill="rgb(9,9,10)" stroke="rgb(9,9,10)" stroke-width="0.6" opacity="1" d="M 395 201 L 397 201.5 L 397 211 L 395 210.5 L 395 201 Z " /><path fill="rgb(9,9,10)" stroke="rgb(9,9,10)" stroke-width="0.6" opacity="1" d="M 84.5 209 Q 90.3 208.3 91 212.5 Q 81.4 212.1 77 216 L 81.5 210 L 84.5 209 Z " /><path fill="rgb(9,9,10)" stroke="rgb(9,9,10)" stroke-width="0.6" opacity="1" d="M 137.5 209 Q 145.4 208.1 147 213.5 L 148 215.5 L 146.5 216 Q 143.3 211.7 134.5 213 L 132 212.5 L 137.5 209 Z " /><path fill="rgb(9,9,10)" stroke="rgb(9,9,10)" stroke-width="0.6" opacity="1" d="M 185 215 L 187 215.5 L 187 223.5 L 186 226.5 L 187.5 228 L 199.5 228 L 205 232.5 L 207 250.5 L 206 263.5 L 210 265 Q 211.3 268.7 205.5 267 L 203 271 Q 197.9 275.2 186.5 274 L 179 269.5 L 178 247.5 L 179 237.5 L 184 229.5 L 185 215 Z M 188 230 L 186 231 L 181 240 L 181 255 L 180 256 L 182 269 L 187 272 L 199 271 L 204 264 L 204 237 L 203 235 Q 200 228 188 230 Z " /><path fill="rgb(9,9,10)" stroke="rgb(9,9,10)" stroke-width="0.6" opacity="1" d="M 172.5 222 L 173 231.5 L 170 257 Q 166.5 258.1 168 250.5 L 171 223.5 L 172.5 222 Z " /><path fill="rgb(9,9,10)" stroke="rgb(9,9,10)" stroke-width="0.6" opacity="1" d="M 236 226 L 238 226.5 L 238 243 L 236 242.5 L 236 226 Z " /><path fill="rgb(9,9,10)" stroke="rgb(9,9,10)" stroke-width="0.6" opacity="1" d="M 274 231 L 276 231.5 L 276 242 L 274 241.5 L 274 231 Z " /><path fill="rgb(9,9,10)" stroke="rgb(9,9,10)" stroke-width="0.6" opacity="1" d="M 422.5 235 L 423 237.5 L 419.5 243 L 419 240.5 L 422.5 235 Z " /><path fill="rgb(9,9,10)" stroke="rgb(9,9,10)" stroke-width="0.6" opacity="1" d="M 85.5 238 Q 92.3 236.2 94 239.5 L 93.5 241 L 90.5 240 Q 86 241 87 247.5 Q 87.8 250.8 92.5 250 Q 96.6 248.6 96.5 243 Q 100.3 245.3 98 253.5 L 92.5 263 L 86.5 265 L 81 260.5 Q 77.7 255.8 79 246.5 L 85.5 238 Z " /><path fill="rgb(9,9,10)" stroke="rgb(9,9,10)" stroke-width="0.6" opacity="1" d="M 137.5 238 Q 145.1 236.9 147 241.5 L 146.5 243 Q 145.5 240 140.5 241 Q 137 242 138 247.5 L 140.5 251 Q 146.3 251.8 147 247.5 Q 145.8 243.8 149.5 245 L 151 249.5 Q 150 260.5 142.5 265 L 137.5 266 L 132 261.5 L 129 251.5 Q 129.9 242.9 135.5 239 L 137.5 238 Z " /><path fill="rgb(9,9,10)" stroke="rgb(9,9,10)" stroke-width="0.6" opacity="1" d="M 404.5 246 L 405 248.5 L 397.5 262 L 397 259.5 L 404.5 246 Z " /><path fill="rgb(9,9,10)" stroke="rgb(9,9,10)" stroke-width="0.6" opacity="1" d="M 52 250 Q 55.3 248.7 54 253.5 L 53 254.5 L 53 267.5 L 58 270 Q 59.3 273 55.5 272 L 52 269.5 L 50 262.5 L 52 250 Z " /><path fill="rgb(9,9,10)" stroke="rgb(9,9,10)" stroke-width="0.6" opacity="1" d="M 235 253 Q 238.3 251.7 237 256.5 L 233.5 263 L 224 265 Q 222.7 261.3 228.5 263 L 234 258.5 L 235 253 Z " /><path fill="rgb(9,9,10)" stroke="rgb(9,9,10)" stroke-width="0.6" opacity="1" d="M 167 259 Q 170.5 257.9 169 265.5 L 164.5 274 Q 158.2 277.9 147 276 L 147.5 274 L 160.5 274 Q 168.3 270.5 167 259 Z " /><path fill="rgb(9,9,10)" stroke="rgb(9,9,10)" stroke-width="0.6" opacity="1" d="M 395.5 265 L 396 267.5 L 388.5 281 L 388 278.5 L 395.5 265 Z " /><path fill="rgb(9,9,10)" stroke="rgb(9,9,10)" stroke-width="0.6" opacity="1" d="M 340.5 268 L 340 269.5 L 337 275 L 335 274.5 L 340.5 268 Z " /><path fill="rgb(9,9,10)" stroke="rgb(9,9,10)" stroke-width="0.6" opacity="1" d="M 80 273 L 90.5 273 L 91 275 L 80.5 275 L 80 273 Z " /><path fill="rgb(9,9,10)" stroke="rgb(9,9,10)" stroke-width="0.6" opacity="1" d="M 98 274 L 118.5 274 L 119 276 L 98.5 276 L 98 274 Z " /><path fill="rgb(9,9,10)" stroke="rgb(9,9,10)" stroke-width="0.6" opacity="1" d="M 404.5 276 L 405 278.5 L 402 284.5 L 401.5 287 L 400 285.5 L 404.5 276 Z " /><path fill="rgb(9,9,10)" stroke="rgb(9,9,10)" stroke-width="0.6" opacity="1" d="M 387.5 282 L 388 286 L 394.5 286 L 395 288 L 384.5 288 L 384 286.5 L 387.5 282 Z " /><path fill="rgb(9,9,10)" stroke="rgb(9,9,10)" stroke-width="0.6" opacity="1" d="M 414 285 L 423.5 285 L 424 287 L 414.5 287 L 414 285 Z " /><path fill="rgb(9,9,10)" stroke="rgb(9,9,10)" stroke-width="0.6" opacity="1" d="M 303 298 L 313.5 298 L 314 300 L 303.5 300 L 303 298 Z " /><path fill="rgb(9,9,10)" stroke="rgb(9,9,10)" stroke-width="0.6" opacity="1" d="M 176 303 L 178 303.5 L 178 329 L 176 328.5 L 176 303 Z " /><path fill="rgb(9,9,10)" stroke="rgb(9,9,10)" stroke-width="0.6" opacity="1" d="M 68.5 304 Q 71.5 303.1 70 307.5 L 75.5 315 Q 81.4 321.8 93 322 Q 94.4 326 87.5 324 Q 76.9 320.6 71 312.5 L 69 308 Q 65.3 309.5 66 306.5 L 68.5 304 Z " /><path fill="rgb(9,9,10)" stroke="rgb(9,9,10)" stroke-width="0.6" opacity="1" d="M 123 306 L 129 308.5 L 126.5 309 L 123 311.5 L 117.5 318 Q 109.6 325 96 325 Q 94.7 321.7 99.5 323 Q 115.7 320.7 123 309.5 L 123 306 Z " /><path fill="rgb(9,9,10)" stroke="rgb(9,9,10)" stroke-width="0.6" opacity="1" d="M 395 310 L 406.5 310 L 407 312 L 395.5 312 L 395 310 Z " /><path fill="rgb(9,9,10)" stroke="rgb(9,9,10)" stroke-width="0.6" opacity="1" d="M 317.5 316 L 329.5 316 L 330 318 L 307 319 L 307.5 317 L 316.5 317 L 317.5 316 Z " /><path fill="rgb(9,9,10)" stroke="rgb(9,9,10)" stroke-width="0.6" opacity="1" d="M 433.5 339 Q 443.1 337.9 445 344.5 L 444.5 347 L 438.5 341 L 434.5 341 L 428 345.5 L 425 354 L 423 352.5 Q 425.2 344.2 431.5 340 L 433.5 339 Z " /><path fill="rgb(9,9,10)" stroke="rgb(9,9,10)" stroke-width="0.6" opacity="1" d="M 376.5 343 Q 383.1 343.9 386 348.5 L 389 358 Q 385.7 359.3 387 354.5 L 381.5 347 L 375.5 345 L 367 351.5 Q 362.4 358.4 364 371.5 Q 365.1 378.9 370.5 382 L 372 384 L 366 380.5 Q 360.2 373.8 362 359.5 Q 363.9 350.9 369.5 346 L 376.5 343 Z " /><path fill="rgb(9,9,10)" stroke="rgb(9,9,10)" stroke-width="0.6" opacity="1" d="M 93 345 L 101.5 345 L 103 346.5 L 93 347 L 93 345 Z " /><path fill="rgb(9,9,10)" stroke="rgb(9,9,10)" stroke-width="0.6" opacity="1" d="M 124 347 L 135.5 347 L 136 349 L 124.5 349 L 124 347 Z " /><path fill="rgb(9,9,10)" stroke="rgb(9,9,10)" stroke-width="0.6" opacity="1" d="M 143 348 L 166.5 348 L 167 350 L 143.5 350 L 143 348 Z " /><path fill="rgb(9,9,10)" stroke="rgb(9,9,10)" stroke-width="0.6" opacity="1" d="M 228.5 352 Q 238.6 350.9 241 357.5 Q 245 361.8 245 369 Q 241.7 370.3 243 365.5 Q 241.2 358.3 235.5 355 L 228.5 354 L 219 361.5 L 216 371 L 214 369.5 Q 216.1 359.1 223.5 354 L 228.5 352 Z " /><path fill="rgb(9,9,10)" stroke="rgb(9,9,10)" stroke-width="0.6" opacity="1" d="M 423 366 Q 426.3 364.7 425 369.5 L 430.5 376 L 434.5 377 L 442 371.5 L 444 366 L 446 367.5 L 437.5 378 L 433.5 379 L 427 375.5 Q 423 372.3 423 366 Z " /><path fill="rgb(9,9,10)" stroke="rgb(9,9,10)" stroke-width="0.6" opacity="1" d="M 231.5 367 L 234 368.5 Q 237.2 371 236 377 Q 232.5 378.1 234 370.5 L 231.5 367 Z " /><path fill="rgb(9,9,10)" stroke="rgb(9,9,10)" stroke-width="0.6" opacity="1" d="M 387 367 Q 390 365.8 389 369.5 Q 387.1 378.6 380.5 383 L 377 384 L 378.5 382 Q 386 377.3 387 367 Z " /><path fill="rgb(9,9,10)" stroke="rgb(9,9,10)" stroke-width="0.6" opacity="1" d="M 243 378 Q 246 376.8 245 380.5 Q 242.9 389.9 236.5 395 L 230 397 Q 228.8 394 232.5 395 L 239 389.5 Q 243 385.3 243 378 Z " /><path fill="rgb(9,9,10)" stroke="rgb(9,9,10)" stroke-width="0.6" opacity="1" d="M 214 381 Q 217.3 379.7 216 384.5 L 222.5 394 L 227 395 Q 228.3 398 224.5 397 L 217 390.5 L 214 381 Z " /><path fill="rgb(28,30,31)" stroke="rgb(28,30,31)" stroke-width="0.6" opacity="1" d="M 383.5 101 L 387 102.5 L 385.5 102 L 383 102.5 L 384.5 105 L 380 102.5 L 383.5 101 Z " /><path fill="rgb(28,30,31)" stroke="rgb(28,30,31)" stroke-width="0.6" opacity="1" d="M 344.5 106 L 356 113.5 L 353.5 114 Q 351.9 108.2 346 109 L 344.5 107 L 344.5 106 Z " /><path fill="rgb(28,30,31)" stroke="rgb(28,30,31)" stroke-width="0.6" opacity="1" d="M 444 106 L 447 107.5 L 446.5 109 L 444.5 108 L 444.5 110 L 442.5 107 L 444 107.5 L 444 106 Z " /><path fill="rgb(28,30,31)" stroke="rgb(28,30,31)" stroke-width="0.6" opacity="1" d="M 248.5 126 L 243.5 132 L 244 130.5 L 246.5 127 L 248.5 126 Z " /><path fill="rgb(28,30,31)" stroke="rgb(28,30,31)" stroke-width="0.6" opacity="1" d="M 409.5 131 L 415 142 L 413 140.5 L 411 137.5 L 411.5 136 L 410 135.5 L 410.5 134 L 408 132.5 L 409.5 131 Z " /><path fill="rgb(28,30,31)" stroke="rgb(28,30,31)" stroke-width="0.6" opacity="1" d="M 373.5 133 L 377 139.5 L 375 138.5 L 372 134.5 L 373.5 133 Z " /><path fill="rgb(28,30,31)" stroke="rgb(28,30,31)" stroke-width="0.6" opacity="1" d="M 381.5 146 Q 379.7 148.2 384 150.5 L 387 158 L 385 157.5 L 385.5 156 L 384 155.5 L 384.5 154 L 383 152.5 L 380 147.5 L 381.5 146 Z " /><path fill="rgb(28,30,31)" stroke="rgb(28,30,31)" stroke-width="0.6" opacity="1" d="M 417 150 Q 420 148.8 419 152.5 L 421 158 Q 418 159.3 419 155.5 L 417 150 Z " /><path fill="rgb(28,30,31)" stroke="rgb(28,30,31)" stroke-width="0.6" opacity="1" d="M 445 150 L 459 151 L 458.5 153 L 450.5 153 L 445.5 152 L 444 152.5 L 445 150 Z " /><path fill="rgb(28,30,31)" stroke="rgb(28,30,31)" stroke-width="0.6" opacity="1" d="M 234.5 157 L 235 159 L 229.5 161 L 228.5 160 L 224 163.5 L 224.5 161 Q 226.5 164 228.5 159 L 234.5 157 Z " /><path fill="rgb(28,30,31)" stroke="rgb(28,30,31)" stroke-width="0.6" opacity="1" d="M 247.5 157 L 256 160.5 L 256.5 162 L 258 161.5 L 255.5 162 L 247 159 L 247.5 157 Z " /><path fill="rgb(28,30,31)" stroke="rgb(28,30,31)" stroke-width="0.6" opacity="1" d="M 331.5 157 L 331.5 159 L 335 161.5 L 336 164.5 L 334 165.5 L 332 161.5 L 332.5 160 L 330 158.5 L 331.5 157 Z " /><path fill="rgb(28,30,31)" stroke="rgb(28,30,31)" stroke-width="0.6" opacity="1" d="M 386 159 L 388 160.5 L 395 183.5 L 393 184 L 386 159 Z " /><path fill="rgb(28,30,31)" stroke="rgb(28,30,31)" stroke-width="0.6" opacity="1" d="M 161.5 162 L 161 163.5 L 160.5 165 L 132.5 165 L 132.5 164 L 160.5 163 L 161.5 162 Z " /><path fill="rgb(28,30,31)" stroke="rgb(28,30,31)" stroke-width="0.6" opacity="1" d="M 336.5 166 Q 334.6 168.8 340 171.5 L 341 175.5 L 340.5 177 L 342 178.5 L 349 201 L 347 199.5 L 339 175.5 L 339.5 174 L 338 172.5 L 335 167.5 L 336.5 166 Z " /><path fill="rgb(28,30,31)" stroke="rgb(28,30,31)" stroke-width="0.6" opacity="1" d="M 178.5 167 L 187 167.5 L 180 168.5 L 187 169.5 L 169.5 170 L 169.5 169 L 179 168.5 L 178.5 167 Z " /><path fill="rgb(28,30,31)" stroke="rgb(28,30,31)" stroke-width="0.6" opacity="1" d="M 267.5 168 L 272.5 174 Q 269.8 175 267 170.5 L 267.5 168 Z " /><path fill="rgb(28,30,31)" stroke="rgb(28,30,31)" stroke-width="0.6" opacity="1" d="M 281.5 186 L 281.5 188 L 284 189.5 L 287 197 L 285 196.5 L 285.5 195 L 284 193.5 L 282 190.5 L 282.5 189 L 280 187.5 L 281.5 186 Z " /><path fill="rgb(28,30,31)" stroke="rgb(28,30,31)" stroke-width="0.6" opacity="1" d="M 149 189 L 152 189.5 L 150 190.5 L 150.5 192 L 144 191.5 L 149 191 L 149 189 Z " /><path fill="rgb(28,30,31)" stroke="rgb(28,30,31)" stroke-width="0.6" opacity="1" d="M 235 212 Q 238.3 210.7 237 215.5 L 238 226 L 236 225.5 L 236 216.5 L 235 212 Z " /><path fill="rgb(28,30,31)" stroke="rgb(28,30,31)" stroke-width="0.6" opacity="1" d="M 429.5 217 L 431 219.5 L 428 226 L 426 224.5 L 427 222 L 429 221.5 L 428 219.5 L 429.5 217 Z " /><path fill="rgb(28,30,31)" stroke="rgb(28,30,31)" stroke-width="0.6" opacity="1" d="M 392 231 L 394 232.5 L 390 245 L 388 243.5 L 389 241 L 391 240.5 L 390 238.5 L 392 231 Z " /><path fill="rgb(28,30,31)" stroke="rgb(28,30,31)" stroke-width="0.6" opacity="1" d="M 94.5 240 L 95 242 L 99 244.5 L 98.5 250 L 96.5 243 L 94 241.5 L 94.5 240 Z " /><path fill="rgb(28,30,31)" stroke="rgb(28,30,31)" stroke-width="0.6" opacity="1" d="M 236 243 L 238 243.5 L 238 253 Q 234.3 254.5 235 251.5 L 236 243 Z " /><path fill="rgb(28,30,31)" stroke="rgb(28,30,31)" stroke-width="0.6" opacity="1" d="M 292 250 Q 295 248.8 294 252.5 L 292 259 L 290 257.5 L 292 250 Z " /><path fill="rgb(28,30,31)" stroke="rgb(28,30,31)" stroke-width="0.6" opacity="1" d="M 414.5 251 L 417 251.5 L 412.5 261 L 411 258.5 L 413 254 L 415 253.5 L 414.5 251 Z " /><path fill="rgb(28,30,31)" stroke="rgb(28,30,31)" stroke-width="0.6" opacity="1" d="M 344.5 259 L 346 260.5 L 341.5 268 L 340 268.5 L 340.5 270 Q 337.3 268.3 341 266.5 L 343 261 L 345 260.5 L 344.5 259 Z " /><path fill="rgb(28,30,31)" stroke="rgb(28,30,31)" stroke-width="0.6" opacity="1" d="M 253.5 261 L 254 315.5 L 253 315.5 L 253.5 261 Z " /><path fill="rgb(28,30,31)" stroke="rgb(28,30,31)" stroke-width="0.6" opacity="1" d="M 477.5 267 L 478 268.5 L 472.5 274 L 471 272.5 L 477.5 267 Z " /><path fill="rgb(28,30,31)" stroke="rgb(28,30,31)" stroke-width="0.6" opacity="1" d="M 119 274 L 146.5 274 L 147 276 L 119.5 276 L 119 274 Z " /><path fill="rgb(28,30,31)" stroke="rgb(28,30,31)" stroke-width="0.6" opacity="1" d="M 215.5 280 L 215 281.5 L 214 283.5 L 215 288 Q 211.3 289.4 213 283.5 L 215.5 280 Z " /><path fill="rgb(28,30,31)" stroke="rgb(28,30,31)" stroke-width="0.6" opacity="1" d="M 400.5 284 L 400 285.5 L 401.5 287 L 403 286.5 L 402.5 288 L 395 288 Q 393.7 284.7 398.5 286 L 400.5 284 Z " /><path fill="rgb(28,30,31)" stroke="rgb(28,30,31)" stroke-width="0.6" opacity="1" d="M 234.5 287 L 234 288.5 L 232.5 291 L 228 292 L 228 290 L 233 290 L 233 288.5 L 234.5 287 Z " /><path fill="rgb(28,30,31)" stroke="rgb(28,30,31)" stroke-width="0.6" opacity="1" d="M 376.5 293 Q 382.4 291.3 381 295 L 371 296 Q 369.6 292.3 375.5 294 L 376.5 293 Z " /><path fill="rgb(28,30,31)" stroke="rgb(28,30,31)" stroke-width="0.6" opacity="1" d="M 177 294 Q 180.5 292.9 179 300.5 L 178 303 Q 174.3 304.4 176 298.5 L 177 294 Z " /><path fill="rgb(28,30,31)" stroke="rgb(28,30,31)" stroke-width="0.6" opacity="1" d="M 275.5 300 Q 278.8 298.9 278 301.5 Q 275.9 305 269 303 Q 267.6 299 274.5 301 L 275.5 300 Z " /><path fill="rgb(28,30,31)" stroke="rgb(28,30,31)" stroke-width="0.6" opacity="1" d="M 332.5 315 L 336 315 Q 334.8 318 338.5 317 L 338.5 318 L 332.5 317 L 330 318 L 331.5 316 L 332.5 315 Z " /><path fill="rgb(28,30,31)" stroke="rgb(28,30,31)" stroke-width="0.6" opacity="1" d="M 265.5 319 L 270 320 Q 271.3 323 267.5 322 L 265.5 323 L 265.5 321 L 263 320.5 L 265.5 319 Z " /><path fill="rgb(28,30,31)" stroke="rgb(28,30,31)" stroke-width="0.6" opacity="1" d="M 387 358 L 390 359.5 L 389 367 L 387 366.5 L 387 358 Z " /><path fill="rgb(28,30,31)" stroke="rgb(28,30,31)" stroke-width="0.6" opacity="1" d="M 379.5 359 Q 382.5 360.5 381 366.5 L 380 369 L 378 370.5 L 377 370.5 Q 380.1 366.6 379.5 359 Z " /><path fill="rgb(28,30,31)" stroke="rgb(28,30,31)" stroke-width="0.6" opacity="1" d="M 372.5 364 L 373 365.5 L 372 367.5 L 372.5 371 L 370 366.5 L 372 366 L 372.5 364 Z " /><path fill="rgb(28,30,31)" stroke="rgb(28,30,31)" stroke-width="0.6" opacity="1" d="M 243 369 L 246 369 L 246 376.5 L 243 378 L 244 371.5 L 243 369 Z " /><path fill="rgb(28,30,31)" stroke="rgb(28,30,31)" stroke-width="0.6" opacity="1" d="M 214 371 L 216 371.5 L 215 379.5 L 215.5 381 L 213 379.5 L 214 371 Z " /><path fill="rgb(28,30,31)" stroke="rgb(28,30,31)" stroke-width="0.6" opacity="1" d="M 365.5 374 L 369.5 380 L 375.5 383 L 377 382.5 L 375.5 385 L 372 383.5 L 370.5 382 Q 365.2 379.4 365.5 374 Z " /><path fill="rgb(28,30,31)" stroke="rgb(28,30,31)" stroke-width="0.6" opacity="1" d="M 234 377 L 236 377.5 L 232.5 383 L 231 382.5 L 230.5 384 L 230 382.5 L 234 377 Z " /><path fill="rgb(28,30,31)" stroke="rgb(28,30,31)" stroke-width="0.6" opacity="1" d="M 266.5 387 L 282 387.5 L 266.5 388 L 266.5 387 Z " /><path fill="rgb(28,30,31)" stroke="rgb(28,30,31)" stroke-width="0.6" opacity="1" d="M 61.5 392 L 66.5 398 L 61.5 392 Z " /><path fill="rgb(77,82,81)" stroke="rgb(77,82,81)" stroke-width="0.6" opacity="1" d="M 392.5 109 L 398.5 116 L 392.5 109 Z " /><path fill="rgb(77,82,81)" stroke="rgb(77,82,81)" stroke-width="0.6" opacity="1" d="M 358.5 115 L 365.5 123 L 358.5 115 Z " /><path fill="rgb(77,82,81)" stroke="rgb(77,82,81)" stroke-width="0.6" opacity="1" d="M 467 155 L 469 155.5 L 469 166 L 467 165.5 L 467 155 Z " /><path fill="rgb(77,82,81)" stroke="rgb(77,82,81)" stroke-width="0.6" opacity="1" d="M 119.5 171 L 147 171.5 L 119.5 172 L 119.5 171 Z " /><path fill="rgb(77,82,81)" stroke="rgb(77,82,81)" stroke-width="0.6" opacity="1" d="M 349.5 220 L 350 231.5 L 349 231.5 L 349.5 220 Z " /><path fill="rgb(77,82,81)" stroke="rgb(77,82,81)" stroke-width="0.6" opacity="1" d="M 272 230 L 274 230.5 L 274 241 L 272 240.5 L 272 230 Z " /><path fill="rgb(77,82,81)" stroke="rgb(77,82,81)" stroke-width="0.6" opacity="1" d="M 401.5 237 L 396.5 243 L 401.5 237 Z " /><path fill="rgb(77,82,81)" stroke="rgb(77,82,81)" stroke-width="0.6" opacity="1" d="M 256 248 L 258 248.5 L 258 264.5 L 259 267 L 256 266.5 L 256 248 Z " /><path fill="rgb(77,82,81)" stroke="rgb(77,82,81)" stroke-width="0.6" opacity="1" d="M 256.5 271 L 257 299.5 L 258 300.5 L 256 299.5 L 256.5 271 Z " /><path fill="rgb(77,82,81)" stroke="rgb(77,82,81)" stroke-width="0.6" opacity="1" d="M 257.5 304 L 258 306.5 L 258 317.5 L 256 318 L 256 305.5 L 257.5 304 Z " /><path fill="rgb(114,80,55)" stroke="rgb(114,80,55)" stroke-width="0.6" opacity="1" d="M 411.5 113 L 416.5 119 L 411.5 113 Z " /><path fill="rgb(114,80,55)" stroke="rgb(114,80,55)" stroke-width="0.6" opacity="1" d="M 140.5 165 L 162 165.5 L 140.5 166 L 140.5 165 Z " /><path fill="rgb(114,80,55)" stroke="rgb(114,80,55)" stroke-width="0.6" opacity="1" d="M 72.5 183 L 67.5 189 L 72.5 183 Z " /><path fill="rgb(114,80,55)" stroke="rgb(114,80,55)" stroke-width="0.6" opacity="1" d="M 238.5 224 L 239 247.5 L 238 247.5 L 238.5 224 Z " /><path fill="rgb(114,80,55)" stroke="rgb(114,80,55)" stroke-width="0.6" opacity="1" d="M 252.5 237 L 253 251.5 L 252 251.5 L 252.5 237 Z " /><path fill="rgb(114,80,55)" stroke="rgb(114,80,55)" stroke-width="0.6" opacity="1" d="M 102.5 276 L 114 276.5 L 102.5 277 L 102.5 276 Z " /><path fill="rgb(114,80,55)" stroke="rgb(114,80,55)" stroke-width="0.6" opacity="1" d="M 72.5 310 L 77.5 316 L 72.5 310 Z " /><path fill="rgb(114,80,55)" stroke="rgb(114,80,55)" stroke-width="0.6" opacity="1" d="M 197.5 324 L 192.5 330 L 197.5 324 Z " /><path fill="rgb(114,80,55)" stroke="rgb(114,80,55)" stroke-width="0.6" opacity="1" d="M 149.5 350 L 164 350.5 L 149.5 351 L 149.5 350 Z " /><path fill="rgb(114,80,55)" stroke="rgb(114,80,55)" stroke-width="0.6" opacity="1" d="M 180.5 352 L 181 363.5 L 180 363.5 L 180.5 352 Z " /><path fill="rgb(114,80,55)" stroke="rgb(114,80,55)" stroke-width="0.6" opacity="1" d="M 297.5 376 L 292.5 382 L 297.5 376 Z " /><path fill="rgb(172,71,56)" stroke="rgb(172,71,56)" stroke-width="0.6" opacity="1" d="M 436.5 164 L 437 178.5 L 436 178.5 L 436.5 164 Z " /><path fill="rgb(172,71,56)" stroke="rgb(172,71,56)" stroke-width="0.6" opacity="1" d="M 169.5 170 L 180 170.5 L 169.5 171 L 169.5 170 Z " /><path fill="rgb(172,71,56)" stroke="rgb(172,71,56)" stroke-width="0.6" opacity="1" d="M 102.5 187 L 135 187.5 L 102.5 188 L 102.5 187 Z " /><path fill="rgb(172,71,56)" stroke="rgb(172,71,56)" stroke-width="0.6" opacity="1" d="M 446.5 187 L 453 187.5 Q 446.4 186.4 444.5 190 L 446.5 187 Z " /><path fill="rgb(172,71,56)" stroke="rgb(172,71,56)" stroke-width="0.6" opacity="1" d="M 203.5 191 L 223 191.5 L 203.5 192 L 203.5 191 Z " /><path fill="rgb(172,71,56)" stroke="rgb(172,71,56)" stroke-width="0.6" opacity="1" d="M 234.5 211 L 235 222.5 L 234 222.5 L 234.5 211 Z " /><path fill="rgb(172,71,56)" stroke="rgb(172,71,56)" stroke-width="0.6" opacity="1" d="M 238.5 212 L 239 223.5 L 238 223.5 L 238.5 212 Z " /><path fill="rgb(172,71,56)" stroke="rgb(172,71,56)" stroke-width="0.6" opacity="1" d="M 207.5 240 L 208 257.5 L 207 257.5 L 207.5 240 Z " /><path fill="rgb(172,71,56)" stroke="rgb(172,71,56)" stroke-width="0.6" opacity="1" d="M 177.5 248 L 178 264.5 L 177 264.5 L 177.5 248 Z " /><path fill="rgb(172,71,56)" stroke="rgb(172,71,56)" stroke-width="0.6" opacity="1" d="M 252.5 252 L 253 316.5 L 252 316.5 L 252.5 252 Z " /><path fill="rgb(172,71,56)" stroke="rgb(172,71,56)" stroke-width="0.6" opacity="1" d="M 91.5 276 L 102 276.5 L 91.5 277 L 91.5 276 Z " /><path fill="rgb(172,71,56)" stroke="rgb(172,71,56)" stroke-width="0.6" opacity="1" d="M 215.5 285 L 217.5 289 L 226 289.5 L 217.5 290 Q 213.8 288.8 215.5 285 Z " /><path fill="rgb(172,71,56)" stroke="rgb(172,71,56)" stroke-width="0.6" opacity="1" d="M 178.5 314 L 179 327.5 L 178 327.5 L 178.5 314 Z " /><path fill="rgb(172,71,56)" stroke="rgb(172,71,56)" stroke-width="0.6" opacity="1" d="M 91.5 321 L 102 321.5 L 91.5 322 L 91.5 321 Z " /><path fill="rgb(172,71,56)" stroke="rgb(172,71,56)" stroke-width="0.6" opacity="1" d="M 174.5 331 L 175 344.5 L 170.5 347 L 170.5 346 L 174 344.5 L 174.5 331 Z " /><path fill="rgb(172,71,56)" stroke="rgb(172,71,56)" stroke-width="0.6" opacity="1" d="M 138.5 350 L 149 350.5 L 138.5 351 L 138.5 350 Z " /><path fill="rgb(172,71,56)" stroke="rgb(172,71,56)" stroke-width="0.6" opacity="1" d="M 141.5 383 L 162 383.5 L 141.5 384 L 141.5 383 Z " /><path fill="rgb(88,115,123)" stroke="rgb(88,115,123)" stroke-width="0.6" opacity="1" d="M 249.5 126 L 244.5 132 L 249.5 126 Z " /><path fill="rgb(88,115,123)" stroke="rgb(88,115,123)" stroke-width="0.6" opacity="1" d="M 38.5 309 L 39 323.5 L 38 323.5 L 38.5 309 Z " /><path fill="rgb(204,169,51)" stroke="rgb(204,169,51)" stroke-width="0.6" opacity="1" d="M 406.5 114 L 413.5 122 L 406.5 114 Z " /><path fill="rgb(204,169,51)" stroke="rgb(204,169,51)" stroke-width="0.6" opacity="1" d="M 123.5 166 L 123.5 168 L 154 168.5 L 123.5 169 Q 120.5 167.5 123.5 166 Z " /><path fill="rgb(204,169,51)" stroke="rgb(204,169,51)" stroke-width="0.6" opacity="1" d="M 108.5 191 L 122 191.5 L 108.5 192 L 108.5 191 Z " /><path fill="rgb(204,169,51)" stroke="rgb(204,169,51)" stroke-width="0.6" opacity="1" d="M 401.5 243 L 394.5 251 L 401.5 243 Z " /><path fill="rgb(204,169,51)" stroke="rgb(204,169,51)" stroke-width="0.6" opacity="1" d="M 181.5 251 L 182 262.5 L 181 262.5 L 181.5 251 Z " /><path fill="rgb(204,169,51)" stroke="rgb(204,169,51)" stroke-width="0.6" opacity="1" d="M 368.5 289 L 390 289.5 L 368.5 290 L 368.5 289 Z " /><path fill="rgb(204,169,51)" stroke="rgb(204,169,51)" stroke-width="0.6" opacity="1" d="M 349.5 290 L 355 290.5 L 353.5 292 L 341.5 292 L 341.5 291 L 349.5 290 Z " /><path fill="rgb(204,169,51)" stroke="rgb(204,169,51)" stroke-width="0.6" opacity="1" d="M 376.5 291 L 395 291.5 L 373.5 293 L 373.5 292 L 376.5 291 Z " /><path fill="rgb(204,169,51)" stroke="rgb(204,169,51)" stroke-width="0.6" opacity="1" d="M 313.5 292 L 319 292.5 L 317.5 294 L 307.5 294 L 307.5 293 L 313.5 292 Z " /><path fill="rgb(204,169,51)" stroke="rgb(204,169,51)" stroke-width="0.6" opacity="1" d="M 345 293 L 356 293.5 L 345 295 L 345 293 Z " /><path fill="rgb(204,169,51)" stroke="rgb(204,169,51)" stroke-width="0.6" opacity="1" d="M 443.5 305 L 456 305.5 L 443.5 306 L 443.5 305 Z " /><path fill="rgb(204,169,51)" stroke="rgb(204,169,51)" stroke-width="0.6" opacity="1" d="M 466.5 343 L 467 351.5 L 463.5 354 L 462.5 352 L 464.5 353 L 466 351.5 L 466.5 343 Z " /><path fill="rgb(154,137,51)" stroke="rgb(154,137,51)" stroke-width="0.6" opacity="1" d="M 113.5 273 L 152 273.5 L 113.5 274 L 113.5 273 Z " /><path fill="rgb(154,137,51)" stroke="rgb(154,137,51)" stroke-width="0.6" opacity="1" d="M 381.5 288 L 400 288.5 L 381.5 289 L 381.5 288 Z " /><path fill="rgb(154,137,51)" stroke="rgb(154,137,51)" stroke-width="0.6" opacity="1" d="M 432.5 305 L 443 305.5 L 432.5 306 L 432.5 305 Z " /><path fill="rgb(208,207,206)" stroke="rgb(208,207,206)" stroke-width="0.6" opacity="1" d="M 421.5 287 L 433.5 287 L 434 289 L 424 290 Q 425.3 287 421.5 288 L 421.5 287 Z " /><path fill="rgb(208,207,206)" stroke="rgb(208,207,206)" stroke-width="0.6" opacity="1" d="M 412.5 306 L 421.5 306 L 422 308 L 405 309 Q 403.9 305.5 411.5 307 L 412.5 306 Z " /><path fill="rgb(156,156,156)" stroke="rgb(156,156,156)" stroke-width="0.6" opacity="1" d="M 338.5 91 L 350 91.5 L 338.5 92 L 338.5 91 Z " /><path fill="rgb(156,156,156)" stroke="rgb(156,156,156)" stroke-width="0.6" opacity="1" d="M 246.5 123 L 240.5 130 L 246.5 123 Z " /><path fill="rgb(156,156,156)" stroke="rgb(156,156,156)" stroke-width="0.6" opacity="1" d="M 34.5 305 L 35 323.5 L 34 323.5 L 34.5 305 Z " /><path fill="rgb(156,156,156)" stroke="rgb(156,156,156)" stroke-width="0.6" opacity="1" d="M 397.5 388 L 403 392.5 L 398.5 389 L 396.5 390 L 397.5 388 Z " /><path fill="rgb(216,94,87)" stroke="rgb(216,94,87)" stroke-width="0.6" opacity="1" d="M 119.5 172 L 154 172.5 L 119.5 173 L 119.5 172 Z " /><path fill="rgb(216,94,87)" stroke="rgb(216,94,87)" stroke-width="0.6" opacity="1" d="M 257.5 272 L 258 298.5 L 259 299.5 L 257 300 L 257.5 272 Z " /><path fill="rgb(216,94,87)" stroke="rgb(216,94,87)" stroke-width="0.6" opacity="1" d="M 39.5 300 L 40 330.5 L 39 330.5 L 39.5 300 Z " /></svg>