<svg width="627" height="627" preserveAspectRatio="xMidYMid meet" viewBox="0 0 512 512" version="1.1" xmlns="http://www.w3.org/2000/svg" ><path fill="rgb(255,255,255)" stroke="rgb(255,255,255)" stroke-width="0.6" opacity="1" d="M 0 0 L 512 0 L 512 512 L 0 512 L 0 0 Z M 355 93 L 345 97 Q 338 101 336 110 Q 335 119 340 122 L 339 127 L 333 131 L 326 130 L 318 120 Q 312 112 302 109 L 282 109 L 247 116 L 240 125 L 241 137 L 252 144 L 284 140 Q 291 139 295 134 L 298 134 L 315 153 L 315 162 L 321 180 L 318 185 Q 317 195 323 198 L 313 218 L 292 249 L 265 275 L 245 283 L 235 282 L 226 271 L 211 227 L 214 222 L 214 218 L 217 215 L 237 212 L 246 208 L 250 200 L 249 191 L 238 181 L 209 181 L 183 173 Q 165 171 158 178 L 149 193 Q 148 202 152 208 Q 157 215 167 218 L 177 219 L 179 225 Q 183 230 192 230 L 195 245 L 187 252 L 182 251 Q 174 240 160 236 L 142 231 Q 121 229 107 233 Q 86 239 73 252 L 55 274 L 53 280 L 53 286 L 60 293 L 54 312 L 54 326 L 53 327 Q 54 366 74 387 L 92 401 L 113 410 L 123 411 Q 138 413 149 409 Q 164 404 176 394 Q 190 383 197 364 L 209 365 L 209 368 L 211 377 L 214 379 L 253 379 L 259 372 L 258 363 Q 256 358 249 358 L 255 348 L 258 338 Q 260 324 255 318 L 287 295 Q 314 271 333 237 L 336 242 Q 332 246 333 255 L 328 258 Q 299 280 293 325 L 295 335 Q 298 340 306 339 Q 306 355 311 367 L 324 390 Q 340 412 373 418 Q 390 420 403 416 Q 418 411 429 402 Q 451 384 458 350 L 457 312 Q 452 292 441 279 L 421 261 L 423 258 L 422 252 L 408 242 L 395 239 L 368 240 L 361 231 L 363 229 L 414 229 L 422 227 L 430 217 L 435 192 L 435 181 L 441 169 L 440 164 L 431 156 L 421 155 L 357 156 L 347 158 L 339 162 L 338 156 L 346 151 Q 355 145 359 133 L 370 127 Q 375 123 377 115 Q 378 106 375 102 Q 370 92 355 93 Z " /><path fill="rgb(0,0,0)" stroke="rgb(0,0,0)" stroke-width="0.6" opacity="1" d="M 356.5 93 Q 368.6 92.9 373 100.5 Q 377.9 104.6 376 115.5 L 367.5 127 L 358 132.5 Q 354.6 143.1 346.5 149 L 337 154.5 Q 336.3 161.7 340.5 164 L 346.5 159 L 360.5 156 L 418.5 155 Q 422.2 158.3 430.5 157 L 439 163.5 L 440 170.5 L 434 180.5 L 434 192.5 L 429 216.5 L 421.5 226 L 409.5 229 L 364.5 229 L 361.5 228 L 360 233.5 L 365 237.5 L 367.5 241 Q 375.9 236.9 390.5 239 L 407.5 243 L 421 251.5 L 422 257.5 L 420 261.5 L 439 277.5 Q 450.6 290.9 456 310.5 L 458 321.5 L 458 345.5 Q 452.2 381.2 429.5 400 Q 418.6 409.6 403.5 415 L 388.5 418 L 376.5 418 Q 343 412.5 326 390.5 L 312 366.5 L 308 354.5 L 307 339.5 L 305.5 338 Q 296.9 339.1 295 333.5 L 294 315.5 L 304 287.5 Q 313.1 271.6 326.5 260 L 334 254.5 L 334 247.5 L 337 240.5 L 334 235 L 332 236.5 Q 314.2 268.2 288.5 292 L 254 317.5 Q 259.1 324.4 257 338.5 Q 254.8 349.8 247.5 356 L 246 357.5 Q 247.3 360.3 252.5 359 L 258 364.5 Q 259.6 376.6 251.5 379 L 215.5 379 L 212 376.5 Q 208.5 372.3 210 364 L 196.5 363 Q 189.3 380.3 176.5 392 Q 166.4 401.4 152.5 407 L 141.5 410 L 122.5 410 L 111.5 409 L 91.5 400 L 71 381.5 Q 59.8 367.7 55 347.5 L 54 325.5 L 55 324.5 L 55 309.5 L 61 292.5 L 54 285.5 L 54 278.5 Q 63.6 261.6 77.5 249 Q 89.3 239.3 105.5 234 L 120.5 231 L 138.5 231 L 160.5 237 Q 173.5 242 181.5 252 L 186.5 253 L 196 244.5 Q 195.8 234.7 191.5 229 Q 183.3 229.3 180 224.5 L 176.5 218 Q 160.3 218.2 154 208.5 Q 148.5 203.5 150 191.5 Q 153.2 182.2 160.5 177 L 167.5 174 L 179.5 173 L 205.5 181 L 237.5 182 L 248 190.5 L 249 200.5 L 243.5 208 L 237.5 211 L 216.5 214 L 214 216.5 Q 215 222.5 211 223.5 L 211 228.5 L 226 272.5 L 234.5 283 L 242.5 284 Q 257.6 281.6 267.5 274 L 292 250.5 L 314 217.5 L 323 199.5 L 323 196.5 Q 317.8 193.7 319 184.5 L 322 179.5 L 315 158.5 L 315 150.5 L 311.5 147 L 304 140.5 L 298.5 134 L 292.5 134 L 284.5 139 L 251.5 143 L 242 136.5 L 240 127.5 L 246.5 117 L 279.5 110 L 297.5 109 Q 309.6 110.9 316 118.5 L 325.5 131 L 332.5 132 L 340 126.5 Q 341.3 118.7 337 116.5 L 337 108.5 Q 338.8 101.3 344.5 98 L 356.5 93 Z M 356 98 L 350 100 L 342 109 Q 340 114 344 116 L 345 114 L 352 108 L 360 109 L 364 115 L 363 123 Q 362 125 366 124 L 371 117 L 370 105 Q 367 97 356 98 Z M 353 112 Q 344 119 341 131 L 334 137 L 325 136 L 315 125 L 304 115 L 294 115 L 296 121 L 296 129 L 302 130 L 310 142 Q 315 148 324 150 Q 336 152 343 147 Q 357 137 360 116 L 356 112 L 353 112 Z M 283 114 Q 276 119 264 117 L 257 121 L 262 129 L 261 136 L 262 138 L 288 134 L 292 128 L 290 118 Q 288 114 283 114 Z M 252 120 L 250 121 L 245 127 L 247 137 L 254 139 L 258 134 L 256 123 L 252 120 Z M 322 154 L 320 156 L 320 162 L 327 178 L 336 177 L 337 176 L 337 170 L 333 157 L 332 155 L 322 154 Z M 372 160 L 348 163 L 342 170 L 345 174 L 356 171 L 370 171 L 373 169 L 419 169 L 434 172 Q 436 171 435 166 L 429 161 L 419 160 L 372 160 Z M 385 172 L 384 173 L 363 173 L 347 178 L 350 201 L 355 219 L 361 223 L 367 224 Q 397 226 421 222 Q 425 219 426 212 L 426 203 Q 431 191 431 176 L 430 174 L 416 172 L 385 172 Z M 172 178 L 162 182 L 154 194 L 156 205 Q 162 212 174 214 Q 211 214 240 206 L 244 201 Q 245 193 242 190 L 236 186 L 209 186 L 184 178 L 172 178 Z M 339 179 L 326 184 L 323 188 L 326 191 L 342 188 Q 345 186 343 181 L 339 179 Z M 340 191 L 328 196 L 337 233 L 340 237 L 355 231 Q 355 219 349 215 L 346 194 Q 345 190 340 191 Z M 325 205 Q 311 235 291 259 Q 280 272 265 281 L 247 288 Q 236 290 232 286 L 222 275 L 208 230 L 206 227 L 198 228 L 196 230 L 217 297 L 219 298 L 232 298 L 246 305 L 252 312 Q 268 305 281 294 L 307 267 L 331 231 L 331 222 L 327 212 L 327 207 L 325 205 Z M 207 216 Q 199 220 186 218 L 184 220 L 187 224 Q 201 226 209 221 L 210 218 L 207 216 Z M 123 236 L 113 237 L 100 241 L 82 252 L 63 272 L 59 279 L 59 286 L 65 287 L 75 273 Q 90 253 119 248 Q 135 246 147 250 Q 162 255 172 265 L 175 264 L 180 257 Q 163 235 123 236 Z M 353 236 L 345 239 Q 339 243 338 251 L 338 264 L 345 289 Q 353 312 366 332 L 366 337 L 372 341 Q 378 342 379 339 L 379 331 L 373 324 L 359 293 Q 356 289 357 282 L 353 276 L 350 262 Q 348 251 352 247 L 362 242 L 361 239 Q 360 234 353 236 Z M 373 244 L 362 246 L 355 251 Q 353 258 357 260 L 373 255 L 392 255 L 404 258 L 409 261 L 417 259 L 418 255 Q 403 241 373 244 Z M 198 250 L 178 265 L 140 305 L 152 304 L 156 299 Q 175 276 200 259 Q 201 252 198 250 Z M 116 253 Q 97 257 86 268 Q 65 284 59 314 Q 55 358 74 380 Q 91 402 126 406 Q 153 406 169 394 Q 184 383 191 363 L 190 361 L 177 360 L 169 372 Q 158 385 138 390 Q 111 392 98 380 L 81 362 L 73 338 L 73 321 Q 76 318 75 312 L 79 301 L 89 286 Q 101 272 123 267 L 141 268 L 158 277 L 164 274 L 168 269 Q 158 257 142 253 L 116 253 Z M 370 260 L 359 263 L 356 266 Q 356 274 360 278 L 374 274 L 395 275 Q 407 279 416 286 Q 425 293 430 305 L 437 332 Q 436 362 421 379 Q 410 391 392 396 L 370 395 L 350 385 Q 328 371 325 339 L 326 325 L 330 310 Q 334 299 342 293 Q 342 282 337 277 L 333 280 L 318 301 L 314 311 L 311 327 Q 309 347 314 361 Q 320 378 331 391 Q 345 406 369 412 L 399 412 L 425 399 Q 446 382 453 350 L 452 313 Q 447 293 435 280 L 418 265 L 407 265 L 393 260 L 370 260 Z M 334 261 L 327 266 Q 311 280 303 301 L 299 316 L 299 332 L 304 334 L 307 331 L 307 322 L 312 305 Q 317 291 326 281 L 336 272 Q 337 264 334 261 Z M 201 263 L 196 268 L 210 298 L 213 297 L 203 268 Q 205 262 201 263 Z M 191 271 L 183 279 Q 187 291 195 300 Q 202 302 204 299 L 203 292 L 194 274 L 191 271 Z M 121 272 L 116 275 L 124 305 Q 125 308 132 306 L 135 303 L 140 274 L 139 272 L 121 272 Z M 111 275 L 97 284 L 93 289 L 114 311 Q 119 311 121 308 L 114 283 L 114 275 L 111 275 Z M 145 275 L 142 278 L 139 291 Q 138 296 141 297 L 155 282 L 145 275 Z M 371 279 L 361 285 L 374 317 Q 376 320 377 317 L 373 281 L 371 279 Z M 378 279 L 376 281 L 380 316 L 385 317 L 387 314 L 397 282 L 393 279 L 378 279 Z M 179 282 L 171 290 L 178 301 Q 186 303 188 300 L 181 284 L 179 282 Z M 401 283 L 398 287 L 388 317 L 392 322 L 397 320 L 420 300 L 419 297 Q 413 287 401 283 Z M 91 292 Q 81 299 80 314 L 85 316 L 107 321 L 111 316 L 111 314 L 98 299 L 91 292 Z M 167 294 L 160 303 L 171 303 L 172 302 L 170 297 L 167 294 Z M 343 297 L 335 311 L 338 313 L 353 319 L 346 302 Q 348 295 343 297 Z M 422 301 L 395 325 Q 394 330 397 331 L 430 328 L 431 327 L 430 317 L 422 301 Z M 204 303 L 197 305 L 178 305 Q 172 309 160 307 L 154 309 L 128 310 L 118 314 Q 110 318 109 329 Q 109 338 114 343 L 126 348 L 169 353 L 192 358 Q 203 357 210 360 L 220 360 L 221 359 L 218 350 L 215 347 L 206 337 Q 205 329 208 326 L 220 317 L 230 319 Q 235 323 237 331 Q 238 340 233 344 L 238 355 L 242 357 Q 249 352 252 342 L 252 325 L 247 314 Q 242 306 233 303 L 204 303 Z M 336 314 L 332 318 L 331 331 L 329 333 Q 328 338 331 339 Q 341 336 355 337 L 361 335 L 361 331 L 358 326 L 336 314 Z M 80 317 L 78 319 L 78 339 L 81 341 L 104 335 Q 107 333 105 325 L 101 322 L 80 317 Z M 380 320 L 378 322 L 384 332 L 383 341 L 378 345 Q 372 343 373 347 L 376 348 Q 384 350 388 346 L 392 339 Q 393 329 389 325 Q 386 320 380 320 Z M 221 321 L 215 323 L 210 332 L 211 336 Q 210 339 213 338 L 214 330 Q 216 326 224 327 L 229 334 L 229 337 Q 231 340 233 336 L 232 328 Q 229 321 221 321 Z M 221 330 L 217 334 L 217 340 L 227 359 Q 232 360 234 358 L 225 334 L 221 330 Z M 430 330 L 399 333 Q 395 334 396 341 L 428 357 L 431 349 L 431 332 L 430 330 Z M 104 337 L 80 345 Q 81 356 87 363 L 92 366 L 110 347 L 108 340 L 104 337 Z M 360 338 L 355 340 L 333 341 L 331 343 Q 331 358 339 365 L 346 362 L 365 346 L 364 341 L 360 338 Z M 395 344 L 390 349 L 411 381 L 416 378 Q 423 372 426 362 L 421 357 L 395 344 Z M 114 347 L 93 370 Q 99 379 113 382 L 115 378 L 121 352 L 114 347 Z M 366 348 L 341 369 L 343 374 L 358 385 L 360 383 L 370 359 L 371 352 L 366 348 Z M 385 351 L 383 353 L 385 390 L 387 391 Q 401 391 408 384 L 390 354 Q 389 350 385 351 Z M 125 352 L 117 377 L 117 384 L 124 386 L 138 386 L 141 384 L 134 354 Q 132 350 125 352 Z M 377 352 L 374 355 L 361 387 L 366 390 L 377 392 Q 382 393 383 390 L 382 370 L 380 366 L 380 354 L 377 352 Z M 139 354 L 137 356 L 142 376 L 146 383 L 160 375 L 164 370 L 159 362 L 152 355 L 139 354 Z M 161 357 L 165 365 L 168 366 L 171 361 L 161 357 Z M 217 364 L 214 369 L 215 373 L 217 374 L 252 374 Q 255 373 254 367 L 252 364 L 217 364 Z " /><path fill="rgb(0,0,0)" stroke="rgb(0,0,0)" stroke-width="0.6" opacity="1" d="M 382.5 179 Q 389.8 177.8 391 182.5 L 391 209.5 L 386.5 214 L 380 210.5 L 379 189 L 381 190.5 L 382 191.5 L 382 209.5 L 384.5 212 L 388 209.5 L 388 183.5 L 386.5 182 L 383.5 181 L 379.5 186 L 379 183.5 L 382.5 179 Z " /><path fill="rgb(0,0,0)" stroke="rgb(0,0,0)" stroke-width="0.6" opacity="1" d="M 402.5 179 Q 408.8 177.8 410 181.5 L 410 196.5 Q 406 200 408 209.5 L 403.5 214 Q 397.8 214.8 397 210.5 L 398 208.5 L 398 186.5 L 402.5 179 Z M 405 181 L 400 189 L 400 210 L 404 211 L 406 208 L 408 183 L 405 181 Z " /><path fill="rgb(0,0,0)" stroke="rgb(0,0,0)" stroke-width="0.6" opacity="1" d="M 421.5 179 L 425 181.5 L 423.5 183 L 421.5 182 L 418 186.5 L 416 209.5 Q 421.3 211.8 417.5 214 L 413 211.5 L 416 185.5 L 421.5 179 Z " /><path fill="rgb(0,0,0)" stroke="rgb(0,0,0)" stroke-width="0.6" opacity="1" d="M 363.5 180 Q 369 179 370 182.5 L 372 190.5 L 373 210.5 Q 372.3 214.8 366.5 214 L 364 210.5 L 365.5 211 L 369.5 212 L 371 208.5 Q 368.2 199.3 369 186.5 L 365.5 182 L 362 184.5 Q 360.9 198.4 364 207 Q 360.7 208.3 362 203.5 Q 357.9 196.6 360 183.5 L 363.5 180 Z " /><path fill="rgb(0,0,0)" stroke="rgb(0,0,0)" stroke-width="0.6" opacity="1" d="M 124.5 320 Q 133.1 318.9 135 324.5 Q 137.2 336.7 129.5 339 Q 122.3 340.3 120 336.5 L 118 327.5 L 122.5 321 L 124.5 320 Z M 126 324 L 121 330 L 122 333 Q 123 336 130 335 Q 133 333 132 328 L 126 324 Z " /><path fill="rgb(211,68,58)" stroke="rgb(211,68,58)" stroke-width="0.6" opacity="1" d="M 352.5 113 Q 358.3 112.3 359 116.5 Q 355.6 136.1 342.5 146 L 333.5 150 L 325.5 150 Q 315.4 147.6 310 140.5 L 301.5 129 L 297 127.5 Q 298 120.5 295 117.5 L 302.5 115 L 313 123.5 L 324.5 137 Q 337 139 341 132.5 Q 344.5 120.5 352.5 113 Z " /><path fill="rgb(211,68,58)" stroke="rgb(211,68,58)" stroke-width="0.6" opacity="1" d="M 320 155 L 329.5 156 L 332 156.5 L 337 174.5 Q 334.1 178.1 326.5 177 L 320 159.5 L 320 155 Z " /><path fill="rgb(211,68,58)" stroke="rgb(211,68,58)" stroke-width="0.6" opacity="1" d="M 172.5 178 L 185.5 179 Q 197.2 184.8 212.5 187 L 236.5 187 L 242 190.5 L 244 199.5 L 239.5 205 L 219.5 210 L 196.5 212 L 192.5 214 L 174.5 214 L 160.5 208 L 157 204.5 Q 154 200.5 155 192.5 L 163.5 182 L 172.5 178 Z " /><path fill="rgb(211,68,58)" stroke="rgb(211,68,58)" stroke-width="0.6" opacity="1" d="M 377.5 244 L 399.5 246 L 409.5 249 L 417 254.5 L 414.5 259 L 407.5 260 L 403.5 257 L 395.5 255 L 367.5 255 L 357.5 259 L 355 251.5 L 361.5 247 L 377.5 244 Z " /><path fill="rgb(211,68,58)" stroke="rgb(211,68,58)" stroke-width="0.6" opacity="1" d="M 372.5 260 L 390.5 260 L 404.5 265 L 415.5 265 Q 427.8 270.2 435 280.5 Q 445.4 293.6 451 311.5 L 453 322.5 L 453 345.5 Q 447.1 381.1 423.5 399 L 399.5 411 L 372.5 412 Q 349.8 407.7 336 394.5 Q 322.1 381.4 315 361.5 L 312 348.5 L 311 331.5 L 317 304.5 Q 323.5 289.5 334.5 279 Q 339.3 277.3 338 281.5 L 341 292.5 Q 330.8 300.8 327 315.5 Q 323.8 326.3 325 341.5 Q 327.8 367.7 343.5 381 Q 353.6 391.4 369.5 396 L 393.5 396 Q 411.6 391.1 422 378.5 Q 430.6 368.6 435 354.5 Q 438.4 343.4 437 327.5 L 433 309.5 Q 427.6 294.9 416.5 286 L 394.5 274 L 370.5 274 L 360.5 277 Q 356.5 273.5 357 265.5 L 372.5 260 Z " /><path fill="rgb(211,68,58)" stroke="rgb(211,68,58)" stroke-width="0.6" opacity="1" d="M 200.5 264 Q 203.1 263.2 202 266.5 L 212 298 L 209 296.5 L 207 287.5 L 197 267.5 L 200.5 264 Z " /><path fill="rgb(211,68,58)" stroke="rgb(211,68,58)" stroke-width="0.6" opacity="1" d="M 144.5 276 L 153 280.5 L 148.5 288 L 146 289.5 L 141.5 295 Q 138.8 295.6 140 289.5 L 144.5 276 Z " /><path fill="rgb(211,68,58)" stroke="rgb(211,68,58)" stroke-width="0.6" opacity="1" d="M 90.5 293 L 98 299.5 L 108 310.5 L 110 315.5 L 106.5 320 Q 90.8 319.2 81 312.5 Q 82.3 299.3 90.5 293 Z " /><path fill="rgb(211,68,58)" stroke="rgb(211,68,58)" stroke-width="0.6" opacity="1" d="M 343.5 299 Q 346.1 298.2 345 301.5 L 351 313.5 L 351 317 L 336 310.5 L 343.5 299 Z " /><path fill="rgb(211,68,58)" stroke="rgb(211,68,58)" stroke-width="0.6" opacity="1" d="M 80.5 318 L 101.5 323 L 105 325.5 Q 106.7 332.3 103.5 334 L 80.5 340 L 78 336.5 L 78 321.5 L 80.5 318 Z " /><path fill="rgb(211,68,58)" stroke="rgb(211,68,58)" stroke-width="0.6" opacity="1" d="M 125.5 325 L 131 328.5 Q 131.8 333.3 128.5 334 Q 123 335 122 331.5 Q 121.3 325.8 125.5 325 Z " /><path fill="rgb(211,68,58)" stroke="rgb(211,68,58)" stroke-width="0.6" opacity="1" d="M 395.5 345 L 425 360 L 424 365.5 L 414.5 378 L 411.5 380 L 391 349.5 L 395.5 345 Z " /><path fill="rgb(211,68,58)" stroke="rgb(211,68,58)" stroke-width="0.6" opacity="1" d="M 125.5 353 Q 131.5 351.5 133 354.5 L 140 383.5 L 138.5 385 L 130.5 386 L 118.5 384 L 117 382.5 L 123 356.5 L 125.5 353 Z " /><path fill="rgb(211,68,58)" stroke="rgb(211,68,58)" stroke-width="0.6" opacity="1" d="M 376.5 353 L 380 355.5 L 382 389.5 Q 380.3 392.8 373.5 391 L 362 388 L 364 379.5 L 376.5 353 Z " /><path fill="rgb(57,62,66)" stroke="rgb(57,62,66)" stroke-width="0.6" opacity="1" d="M 404.5 181 L 408 183.5 L 406 207.5 L 403.5 211 L 400 209.5 Q 397.3 190.3 404.5 181 Z " /><path fill="rgb(57,62,66)" stroke="rgb(57,62,66)" stroke-width="0.6" opacity="1" d="M 382.5 182 L 388 183.5 L 388 209.5 L 386.5 211 L 382 209.5 L 382 191.5 L 381 189 Q 376.9 190.3 378 187 L 381 185.5 L 382.5 182 Z " /><path fill="rgb(57,62,66)" stroke="rgb(57,62,66)" stroke-width="0.6" opacity="1" d="M 212.5 186 L 234 186.5 L 212.5 187 L 212.5 186 Z " /><path fill="rgb(57,62,66)" stroke="rgb(57,62,66)" stroke-width="0.6" opacity="1" d="M 339.5 191 Q 345.3 190.3 346 194.5 L 348 210.5 L 354 223.5 L 355 230.5 L 339.5 237 L 336 228.5 L 328 195.5 L 339.5 191 Z " /><path fill="rgb(57,62,66)" stroke="rgb(57,62,66)" stroke-width="0.6" opacity="1" d="M 122.5 236 Q 162.6 234.9 180 256.5 L 175.5 263 L 171.5 265 Q 155.9 245.1 117.5 248 Q 88.8 253.8 74 273.5 L 63.5 287 L 59 285.5 L 59 279.5 L 63 271.5 L 81.5 252 L 100.5 241 L 122.5 236 Z " /><path fill="rgb(57,62,66)" stroke="rgb(57,62,66)" stroke-width="0.6" opacity="1" d="M 115.5 253 L 144.5 254 Q 159.3 258.2 168 268.5 L 165.5 272 L 157.5 277 L 140.5 268 L 121.5 267 Q 99.6 271.6 88 286.5 Q 78.3 297.8 74 314.5 L 75 317.5 L 73 320.5 L 73 338.5 L 82 363.5 L 97.5 380 Q 110.6 392.4 138.5 390 Q 157.9 384.9 169 371.5 L 177.5 360 L 189.5 361 L 191 362.5 Q 184.5 382 169.5 393 Q 154.2 406.2 125.5 406 Q 91.4 402.1 75 380.5 Q 63.4 366.1 59 344.5 L 59 313.5 Q 65.1 284.6 84.5 269 Q 96.3 257.3 115.5 253 Z " /><path fill="rgb(57,62,66)" stroke="rgb(57,62,66)" stroke-width="0.6" opacity="1" d="M 190.5 271 L 194 273.5 L 202 289.5 L 204 297.5 Q 202.3 301.8 194.5 300 L 183 278.5 L 190.5 271 Z " /><path fill="rgb(57,62,66)" stroke="rgb(57,62,66)" stroke-width="0.6" opacity="1" d="M 169.5 273 L 161.5 282 L 169.5 273 Z " /><path fill="rgb(57,62,66)" stroke="rgb(57,62,66)" stroke-width="0.6" opacity="1" d="M 217.5 322 Q 228.3 320.2 231 326.5 L 232 336 L 229 334.5 L 224.5 327 Q 216.5 325.5 214 329.5 L 213 337 L 211 336.5 L 211 328.5 L 214.5 323 L 217.5 322 Z " /><path fill="rgb(57,62,66)" stroke="rgb(57,62,66)" stroke-width="0.6" opacity="1" d="M 429.5 330 L 431 331.5 L 431 347.5 L 427.5 357 L 396 340.5 Q 394.8 335.3 397.5 334 L 429.5 330 Z " /><path fill="rgb(57,62,66)" stroke="rgb(57,62,66)" stroke-width="0.6" opacity="1" d="M 219.5 331 Q 224.3 330.3 225 333.5 L 234 357.5 Q 232.5 360.5 226.5 359 L 217 339.5 L 217 333.5 L 219.5 331 Z " /><path fill="rgb(57,62,66)" stroke="rgb(57,62,66)" stroke-width="0.6" opacity="1" d="M 113.5 347 L 121 352.5 L 115 377.5 L 112.5 382 Q 99.8 378.7 93 369.5 L 113.5 347 Z " /><path fill="rgb(57,62,66)" stroke="rgb(57,62,66)" stroke-width="0.6" opacity="1" d="M 365.5 348 L 371 351.5 L 369 360.5 L 357.5 385 L 343 373.5 L 341 368.5 L 365.5 348 Z " /><path fill="rgb(57,62,66)" stroke="rgb(57,62,66)" stroke-width="0.6" opacity="1" d="M 384.5 351 Q 389.3 350.3 390 353.5 L 408 383.5 Q 401 390.5 387.5 391 L 385 388.5 L 383 352.5 L 384.5 351 Z " /><path fill="rgb(57,62,66)" stroke="rgb(57,62,66)" stroke-width="0.6" opacity="1" d="M 138.5 354 L 150.5 355 L 157 359.5 L 164 369.5 L 159.5 375 L 147.5 382 L 144 382 L 137 355.5 L 138.5 354 Z " /><path fill="rgb(57,62,66)" stroke="rgb(57,62,66)" stroke-width="0.6" opacity="1" d="M 161 357 L 170 359 Q 171 364.6 166.5 366 L 161 357 Z " /><path fill="rgb(55,113,181)" stroke="rgb(55,113,181)" stroke-width="0.6" opacity="1" d="M 280.5 115 Q 288.5 113.5 290 118.5 L 291 129.5 L 284.5 134 L 262 137 L 262 127.5 L 258 120.5 L 261.5 118 L 276.5 117 L 280.5 115 Z " /><path fill="rgb(55,113,181)" stroke="rgb(55,113,181)" stroke-width="0.6" opacity="1" d="M 250.5 121 Q 255.3 120.3 256 123.5 L 258 131.5 L 254.5 138 Q 248.3 139.3 247 135.5 L 246 125.5 L 250.5 121 Z " /><path fill="rgb(55,113,181)" stroke="rgb(55,113,181)" stroke-width="0.6" opacity="1" d="M 372.5 160 L 417.5 160 Q 422.1 162.9 430.5 162 L 434 165.5 L 435 169.5 L 431.5 172 L 420.5 169 L 371.5 169 L 353.5 171 L 344.5 174 L 343 168.5 L 350.5 163 L 372.5 160 Z " /><path fill="rgb(55,113,181)" stroke="rgb(55,113,181)" stroke-width="0.6" opacity="1" d="M 385.5 172 L 420.5 173 L 430 175 L 430 185.5 Q 424.9 196.9 425 213.5 L 419.5 222 Q 396.5 226 367.5 224 L 361.5 223 L 356 218.5 Q 348.9 200.3 348 177 L 358.5 174 Q 374.2 175.2 385.5 172 Z M 382 179 L 378 185 L 380 212 Q 381 215 388 214 L 391 211 L 391 182 Q 389 177 382 179 Z M 402 179 L 398 185 L 397 212 Q 398 215 405 214 L 408 211 L 411 187 L 410 181 Q 408 177 402 179 Z M 421 179 L 415 189 L 413 213 L 419 214 L 422 209 L 426 189 L 425 181 L 421 179 Z M 363 180 L 359 184 Q 358 200 363 212 Q 364 216 370 215 L 374 210 L 372 189 L 370 182 Q 368 179 363 180 Z " /><path fill="rgb(55,113,181)" stroke="rgb(55,113,181)" stroke-width="0.6" opacity="1" d="M 204.5 217 Q 210.3 214.9 209 219.5 Q 202 225.5 187.5 224 Q 181.5 221.5 185.5 219 L 204.5 217 Z " /><path fill="rgb(55,113,181)" stroke="rgb(55,113,181)" stroke-width="0.6" opacity="1" d="M 196.5 251 L 199 252.5 L 200 257.5 Q 176.4 274.9 157 296.5 L 150.5 304 L 142 305 L 143 300.5 L 155.5 288 L 160 284.5 L 178.5 265 L 196.5 251 Z " /><path fill="rgb(55,113,181)" stroke="rgb(55,113,181)" stroke-width="0.6" opacity="1" d="M 377.5 279 Q 390 277 396 281.5 L 386 314.5 L 383.5 317 L 380 314.5 L 376 280.5 L 377.5 279 Z " /><path fill="rgb(55,113,181)" stroke="rgb(55,113,181)" stroke-width="0.6" opacity="1" d="M 369.5 280 L 372 281.5 L 377 316 L 374 314.5 L 362 286.5 L 362 283 L 369.5 280 Z " /><path fill="rgb(55,113,181)" stroke="rgb(55,113,181)" stroke-width="0.6" opacity="1" d="M 178.5 283 L 181 284.5 L 187 300 L 178.5 301 L 176 300 L 172 289.5 L 178.5 283 Z " /><path fill="rgb(55,113,181)" stroke="rgb(55,113,181)" stroke-width="0.6" opacity="1" d="M 400.5 284 Q 412.8 287.7 419 297.5 L 414.5 304 L 394.5 321 L 391.5 321 L 389 320 L 389 315.5 L 400.5 284 Z " /><path fill="rgb(55,113,181)" stroke="rgb(55,113,181)" stroke-width="0.6" opacity="1" d="M 166.5 295 L 170 297.5 L 171 302 L 161.5 303 Q 159.2 299 166.5 295 Z " /><path fill="rgb(55,113,181)" stroke="rgb(55,113,181)" stroke-width="0.6" opacity="1" d="M 206.5 303 L 231.5 303 Q 241.5 306.5 247 314.5 L 252 325.5 L 252 339.5 Q 249.6 350.6 241.5 356 Q 237.8 357.3 239 353.5 L 234 346.5 L 234 343.5 Q 239.4 339.9 237 328.5 L 230.5 319 L 222.5 316 Q 212.6 319.1 207 326.5 L 206 337.5 L 217 349.5 L 220 359 L 211.5 360 L 171.5 353 L 155.5 352 L 144.5 349 L 123.5 347 L 113 340.5 Q 108.5 336 110 325.5 L 116.5 315 L 125.5 311 L 171.5 308 L 175.5 306 L 199.5 305 L 206.5 303 Z M 124 320 L 122 321 L 117 328 L 119 336 Q 121 341 131 339 L 136 333 L 135 324 Q 133 318 124 320 Z " /><path fill="rgb(55,113,181)" stroke="rgb(55,113,181)" stroke-width="0.6" opacity="1" d="M 357.5 339 L 363 340.5 L 364 345.5 L 344.5 362 L 338.5 364 Q 331.8 357.2 331 344.5 L 333.5 342 L 349.5 341 L 357.5 339 Z " /><path fill="rgb(55,113,181)" stroke="rgb(55,113,181)" stroke-width="0.6" opacity="1" d="M 217.5 364 L 251.5 364 L 253 365.5 Q 254.8 372.3 251.5 374 L 217.5 374 L 215 371.5 Q 213.8 365.3 217.5 364 Z " /><path fill="rgb(246,190,54)" stroke="rgb(246,190,54)" stroke-width="0.6" opacity="1" d="M 354.5 99 Q 366.3 97.2 369 104.5 L 370 116.5 L 365.5 123 L 364 121.5 L 365 114.5 L 360.5 108 L 351.5 107 L 346 110.5 L 343.5 114 Q 340.1 114.9 342 109.5 L 349.5 101 L 354.5 99 Z " /><path fill="rgb(246,190,54)" stroke="rgb(246,190,54)" stroke-width="0.6" opacity="1" d="M 338.5 180 L 342 181.5 L 340.5 187 L 325.5 190 L 324 186.5 Q 329.1 181.1 338.5 180 Z " /><path fill="rgb(246,190,54)" stroke="rgb(246,190,54)" stroke-width="0.6" opacity="1" d="M 364.5 183 L 368 185.5 L 370 209.5 L 367.5 211 L 364 204.5 L 362 185.5 L 364.5 183 Z " /><path fill="rgb(246,190,54)" stroke="rgb(246,190,54)" stroke-width="0.6" opacity="1" d="M 421.5 183 Q 424.5 184.5 423 190.5 L 417.5 211 Q 414.5 209.5 416 203.5 L 418 200.5 L 419 185.5 L 421.5 183 Z " /><path fill="rgb(246,190,54)" stroke="rgb(246,190,54)" stroke-width="0.6" opacity="1" d="M 324.5 207 Q 327.9 206.1 326 211.5 L 331 224.5 L 331 228.5 L 306 266.5 L 280.5 293 Q 268.1 304.1 251.5 311 L 245.5 304 L 233.5 298 L 219.5 298 L 218 296.5 L 197 230.5 Q 199.3 227.3 205.5 228 L 221 274.5 L 231.5 287 Q 236.2 290.3 245.5 289 L 264.5 282 Q 280.4 272.4 292 258.5 Q 311.4 235.9 324.5 207 Z " /><path fill="rgb(246,190,54)" stroke="rgb(246,190,54)" stroke-width="0.6" opacity="1" d="M 354.5 236 L 360 238.5 L 361 240.5 L 351 246.5 Q 347.7 251.2 349 260.5 L 352 275.5 L 356 281.5 L 357 289.5 L 372 323.5 L 379 331.5 L 379 337.5 Q 377.8 341.3 371.5 340 L 367 336.5 L 366 329.5 Q 352.9 310.1 345 285.5 L 339 264.5 L 339 250.5 L 344.5 240 L 354.5 236 Z " /><path fill="rgb(246,190,54)" stroke="rgb(246,190,54)" stroke-width="0.6" opacity="1" d="M 331.5 263 Q 335.3 261.8 334 265.5 L 335 270.5 L 317 291.5 L 309 309.5 Q 305.9 316.9 307 328.5 L 303.5 333 L 299 330.5 L 299 318.5 L 306 295.5 Q 315.3 275.8 331.5 263 Z " /><path fill="rgb(246,190,54)" stroke="rgb(246,190,54)" stroke-width="0.6" opacity="1" d="M 124.5 272 Q 134.8 270.2 139 274.5 L 134 302.5 L 130.5 306 Q 125.3 307.3 124 304.5 L 117 275.5 L 124.5 272 Z " /><path fill="rgb(246,190,54)" stroke="rgb(246,190,54)" stroke-width="0.6" opacity="1" d="M 110.5 276 Q 115.5 274.6 113 281.5 L 120 307.5 L 113.5 310 L 94 288.5 Q 100.2 280.2 110.5 276 Z " /><path fill="rgb(246,190,54)" stroke="rgb(246,190,54)" stroke-width="0.6" opacity="1" d="M 420.5 303 Q 423.8 301.9 423 304.5 L 429 316.5 L 430 327 L 397.5 330 L 396 324.5 L 420.5 303 Z " /><path fill="rgb(246,190,54)" stroke="rgb(246,190,54)" stroke-width="0.6" opacity="1" d="M 335.5 315 L 353.5 323 L 358 327.5 L 361 333.5 L 349.5 337 L 331.5 338 L 330 332.5 Q 334 329 332 319.5 L 335.5 315 Z " /><path fill="rgb(246,190,54)" stroke="rgb(246,190,54)" stroke-width="0.6" opacity="1" d="M 380.5 321 L 388 324.5 L 392 336.5 L 384.5 347 L 377 348 L 378.5 345 L 384 340.5 L 385 331.5 L 379 322.5 L 380.5 321 Z " /><path fill="rgb(246,190,54)" stroke="rgb(246,190,54)" stroke-width="0.6" opacity="1" d="M 103.5 338 L 107 339.5 L 109 346.5 L 93.5 363 L 89.5 364 Q 82.4 357.6 81 345.5 L 103.5 338 Z " /><path fill="rgb(32,32,32)" stroke="rgb(32,32,32)" stroke-width="0.6" opacity="1" d="M 362.5 207 L 364 208.5 L 365.5 211 L 364 210.5 L 366 213.5 L 363 211.5 L 362.5 207 Z " /><path fill="rgb(32,32,32)" stroke="rgb(32,32,32)" stroke-width="0.6" opacity="1" d="M 326.5 266 L 321.5 272 L 326.5 266 Z " /><path fill="rgb(32,32,32)" stroke="rgb(32,32,32)" stroke-width="0.6" opacity="1" d="M 172.5 281 L 163.5 291 L 172.5 281 Z " /><path fill="rgb(32,32,32)" stroke="rgb(32,32,32)" stroke-width="0.6" opacity="1" d="M 160.5 282 L 153.5 290 L 160.5 282 Z " /><path fill="rgb(32,32,32)" stroke="rgb(32,32,32)" stroke-width="0.6" opacity="1" d="M 232.5 331 L 233 335.5 Q 231 340 229 336.5 L 229.5 335 L 232 336 L 232.5 331 Z " /><path fill="rgb(32,32,32)" stroke="rgb(32,32,32)" stroke-width="0.6" opacity="1" d="M 331.5 390 L 336.5 396 L 331.5 390 Z " /><path fill="rgb(106,76,55)" stroke="rgb(106,76,55)" stroke-width="0.6" opacity="1" d="M 349.5 139 L 343.5 146 L 349.5 139 Z " /><path fill="rgb(106,76,55)" stroke="rgb(106,76,55)" stroke-width="0.6" opacity="1" d="M 287.5 286 L 282.5 292 L 287.5 286 Z " /><path fill="rgb(173,67,57)" stroke="rgb(173,67,57)" stroke-width="0.6" opacity="1" d="M 319.5 131 L 324.5 137 L 319.5 131 Z " /><path fill="rgb(173,67,57)" stroke="rgb(173,67,57)" stroke-width="0.6" opacity="1" d="M 421.5 378 L 416.5 384 L 421.5 378 Z " /><path fill="rgb(173,67,57)" stroke="rgb(173,67,57)" stroke-width="0.6" opacity="1" d="M 329.5 387 L 335.5 394 L 329.5 387 Z " /><path fill="rgb(173,67,57)" stroke="rgb(173,67,57)" stroke-width="0.6" opacity="1" d="M 432.5 390 L 427.5 396 L 432.5 390 Z " /><path fill="rgb(198,178,53)" stroke="rgb(198,178,53)" stroke-width="0.6" opacity="1" d="M 328.5 265 L 320.5 274 L 328.5 265 Z " /><path fill="rgb(198,178,53)" stroke="rgb(198,178,53)" stroke-width="0.6" opacity="1" d="M 300.5 272 L 292.5 281 L 300.5 272 Z " /><path fill="rgb(198,178,53)" stroke="rgb(198,178,53)" stroke-width="0.6" opacity="1" d="M 97.5 293 L 105.5 302 L 97.5 293 Z " /><path fill="rgb(198,178,53)" stroke="rgb(198,178,53)" stroke-width="0.6" opacity="1" d="M 106.5 349 L 99.5 357 L 106.5 349 Z " /><path fill="rgb(54,110,129)" stroke="rgb(54,110,129)" stroke-width="0.6" opacity="1" d="M 175.5 267 L 170.5 273 L 175.5 267 Z " /><path fill="rgb(54,110,129)" stroke="rgb(54,110,129)" stroke-width="0.6" opacity="1" d="M 177.5 283 L 172 289.5 L 171.5 291 L 171 289.5 L 177.5 283 Z " /><path fill="rgb(183,183,183)" stroke="rgb(183,183,183)" stroke-width="0.6" opacity="1" d="M 182.5 386 L 177.5 392 L 182.5 386 Z " /><path fill="rgb(183,183,183)" stroke="rgb(183,183,183)" stroke-width="0.6" opacity="1" d="M 436.5 393 L 430.5 400 L 436.5 393 Z " /></svg>