<svg width="627" height="627" preserveAspectRatio="xMidYMid meet" viewBox="0 0 512 512" version="1.1" xmlns="http://www.w3.org/2000/svg" ><path fill="rgb(255,255,255)" stroke="rgb(255,255,255)" stroke-width="0.6" opacity="1" d="M 0 0 L 512 0 L 512 512 L 0 512 L 0 0 Z M 285 99 L 279 101 Q 272 104 271 114 L 273 121 L 280 126 L 304 126 L 305 129 Q 308 134 319 132 L 322 138 Q 323 144 320 146 L 321 151 L 319 153 L 208 202 L 206 201 L 205 192 L 202 189 L 198 184 L 192 158 L 196 155 L 202 146 Q 219 148 225 139 L 224 129 Q 220 123 212 122 L 182 121 L 167 117 L 154 117 L 141 123 L 135 131 Q 133 142 138 148 L 149 154 L 156 154 L 157 157 Q 160 163 170 162 L 172 166 L 179 193 L 176 197 Q 175 205 178 209 L 181 210 Q 184 211 183 218 L 170 228 L 166 228 L 164 225 L 153 215 L 148 216 L 146 212 L 135 206 Q 128 205 127 208 Q 124 209 125 206 L 120 202 Q 109 200 107 205 L 103 203 L 89 205 L 87 209 L 84 207 L 72 211 L 70 214 L 60 219 L 55 226 L 53 227 L 44 236 L 44 241 L 41 242 L 34 252 L 35 258 L 33 259 Q 27 263 26 272 L 28 277 L 23 284 L 23 296 L 25 298 L 23 302 L 23 317 L 28 322 L 25 325 L 25 330 L 29 341 L 32 342 Q 35 344 33 351 L 36 357 L 41 360 L 44 364 L 43 365 L 46 372 L 53 377 Q 59 375 57 381 L 66 388 L 70 388 L 83 397 L 89 395 L 90 398 L 95 401 L 106 401 L 108 399 L 113 402 L 125 401 L 127 398 Q 129 394 131 398 L 143 395 L 145 392 L 159 386 L 162 381 L 166 379 L 175 370 L 175 367 L 178 365 L 186 354 L 184 348 L 189 346 Q 193 343 193 335 L 207 342 Q 206 344 201 343 L 195 350 L 196 358 L 203 362 L 216 362 L 217 363 L 230 363 L 243 360 L 247 354 L 246 346 L 243 342 L 233 342 L 231 341 L 231 337 L 242 324 L 245 314 L 244 307 L 245 303 L 326 202 L 331 198 L 331 210 L 336 226 L 326 232 L 324 238 L 321 239 L 311 250 L 312 254 L 308 255 L 301 267 Q 300 272 303 274 L 300 275 L 296 280 L 294 288 Q 293 294 297 295 Q 298 298 296 297 L 293 300 L 293 316 L 296 317 Q 299 319 294 322 L 295 337 L 301 342 L 299 345 L 303 360 L 309 361 L 309 364 L 309 369 L 314 377 L 319 380 L 321 379 L 322 384 L 332 393 L 337 392 L 338 397 L 349 404 L 354 403 L 355 407 L 366 411 Q 371 412 373 409 Q 376 408 375 411 L 378 413 Q 384 412 387 415 L 393 414 L 394 410 L 399 413 Q 413 416 418 408 L 421 409 L 425 409 L 436 404 L 438 400 Q 440 397 446 398 L 456 389 L 455 386 L 461 384 L 470 374 L 469 369 L 474 367 L 481 355 Q 483 348 479 347 L 483 345 L 487 337 L 487 326 L 485 324 L 489 318 L 489 303 L 484 299 L 487 295 Q 488 283 484 278 L 479 275 L 481 272 L 481 267 L 477 258 L 470 254 L 470 248 L 466 242 L 461 237 Q 455 239 457 234 L 447 224 L 441 225 L 439 220 L 428 213 L 421 214 Q 417 215 418 213 L 412 208 L 400 208 L 396 212 L 394 210 Q 393 206 386 207 Q 381 204 381 197 L 372 188 L 366 188 L 357 170 L 366 155 L 365 140 L 370 137 L 388 137 L 393 131 L 392 121 Q 387 114 376 115 L 369 109 Q 360 108 358 112 L 339 108 L 330 108 L 322 99 L 312 99 L 310 101 L 295 101 Q 292 98 285 99 Z " /><path fill="rgb(255,255,255)" stroke="rgb(255,255,255)" stroke-width="0.6" opacity="1" d="M 115.5 312 L 116 314.5 L 109 318 L 110.5 316 L 115.5 312 Z " /><path fill="rgb(1,1,1)" stroke="rgb(1,1,1)" stroke-width="0.6" opacity="1" d="M 313.5 99 Q 323.9 97.6 326 104.5 L 329.5 109 L 339.5 109 L 357.5 113 Q 360 108.5 368.5 110 L 375.5 116 Q 386.8 114.7 391 120.5 L 392 130.5 L 386.5 137 L 369.5 136 L 364 139.5 L 366 151.5 Q 363.8 161.8 356 166.5 L 356 169.5 L 365.5 188 L 371.5 189 L 380 196.5 L 384.5 208 Q 391.3 206.2 393 209.5 L 394.5 213 L 398 211.5 L 399.5 209 L 412.5 209 L 417 212.5 L 418.5 216 Q 420.8 212.8 427.5 214 L 438 220.5 L 438 225 L 446.5 225 L 456 233.5 L 455 236.5 Q 456.3 239.3 461.5 238 L 465 241.5 L 470 251.5 Q 466.3 253.3 469.5 255 Q 475 254 476 257.5 L 480 266.5 L 480 270.5 L 478 274.5 L 484 278.5 L 487 287.5 L 487 293.5 Q 482.3 294.9 483 300 L 488 302.5 L 489 315.5 L 484 323.5 L 486 325.5 L 486 337.5 L 481.5 344 L 478 345.5 L 481 352.5 L 472.5 366 L 468 367.5 L 469 373.5 L 460.5 383 Q 455.3 381.8 454 384.5 L 455 388.5 L 445.5 397 L 439.5 398 L 437 398.5 Q 437.8 403.3 434.5 404 L 424.5 408 L 420.5 408 L 417.5 406 L 413.5 411 Q 408.5 414 399.5 413 Q 398.1 408.3 393 409 L 390.5 414 L 377.5 412 L 376 410.5 Q 377.3 406.3 372.5 408 Q 370.5 411 364.5 410 L 356 405.5 L 354.5 402 L 348.5 403 L 339 396.5 L 339 392 L 331.5 392 L 323 383.5 L 321.5 378 L 317.5 379 L 310 368.5 L 310 363.5 L 311 361.5 L 308.5 360 L 306.5 361 L 303 357.5 L 300 344.5 L 301 340.5 L 296 336.5 Q 293.2 331.3 294 322.5 L 298 319.5 L 296.5 316 L 293 314.5 L 293 301.5 L 295.5 298 Q 299.7 299.3 298 294.5 Q 293.8 293.3 295 286.5 L 299.5 276 L 304 274.5 L 302 266.5 L 308.5 256 L 313 254.5 L 312 249.5 L 320.5 240 L 325 238.5 Q 324 232 328.5 231 L 337 225.5 L 331 207.5 L 330.5 196 L 244 302.5 Q 245.3 314.3 242 321.5 L 230 336.5 L 230 340.5 Q 232.3 344.3 240.5 342 L 245 345.5 L 246 353.5 L 242.5 359 L 230.5 362 L 204.5 362 L 196 356.5 Q 194.4 346.4 200.5 344 L 211 343 L 209.5 340 L 205.5 340 L 193 332 Q 193.2 341.4 187.5 346 L 184 347.5 L 185 353.5 L 177.5 364 L 174 365.5 L 174 369.5 L 165.5 378 L 161 379.5 Q 161.8 385.3 157.5 386 L 146.5 389 L 144 391.5 L 142.5 394 L 130.5 397 L 127.5 395 L 124.5 400 L 112.5 401 L 107.5 398 L 105.5 400 L 94.5 400 L 91 397.5 Q 92.3 392.9 86.5 395 L 82.5 396 L 72 389.5 L 70.5 387 L 65.5 387 L 58 380.5 Q 60.3 373.3 52.5 376 Q 46.1 372.4 44 364.5 L 45 362.5 L 37 356.5 L 33 349.5 L 33 345.5 L 34 343.5 L 29 339.5 L 26 325.5 L 29 320.5 L 23 315.5 Q 20.3 302.3 27 298.5 L 24 295.5 L 24 283.5 L 27.5 279 Q 30.1 279.8 29 276.5 Q 26 275.5 27 270.5 L 32.5 260 L 36 258.5 L 35 251.5 L 40.5 243 L 45 241.5 L 45 235.5 L 52.5 228 L 56 226.5 Q 55.3 220.8 59.5 220 L 70 215.5 L 72.5 211 L 82.5 208 Q 84.8 213.3 87 209.5 L 89.5 205 L 102.5 204 L 106.5 206 L 109.5 203 L 120.5 203 L 124 205.5 Q 122.3 210.3 126.5 209 Q 127.3 205.2 132.5 206 L 145 212.5 L 147.5 217 L 152.5 216 L 163 224.5 L 164.5 229 L 169.5 229 L 184 218.5 Q 185.3 211.3 181.5 209 L 179 207.5 L 176 198.5 L 180 192.5 L 173 165.5 L 170.5 161 Q 161.5 162.5 159 157.5 L 155.5 153 L 148.5 153 L 138 145.5 L 135 140.5 L 135 132.5 L 143.5 122 L 155.5 117 L 162.5 117 L 183.5 122 L 212.5 123 Q 220.6 124.4 224 130.5 Q 226 141 219.5 143 Q 213.4 146.4 202.5 145 L 200 147.5 L 193.5 155 L 191 156.5 L 198 187.5 L 199.5 189 L 204 191.5 Q 207 195.8 206 203 L 322 151.5 L 321 144.5 L 323 138.5 L 319.5 131 Q 307.5 133 304.5 126 L 282.5 126 L 275 121.5 Q 271.3 118.7 272 111.5 L 278.5 102 Q 282.9 98.9 291.5 100 L 309.5 102 L 313.5 99 Z M 318 103 L 316 105 L 319 112 L 317 122 L 315 123 Q 310 125 314 127 L 320 126 L 325 116 L 322 106 L 318 103 Z M 284 105 L 280 106 Q 276 109 277 118 L 282 121 L 287 120 L 289 117 L 288 108 L 284 105 Z M 292 106 L 293 111 Q 294 117 291 120 L 293 121 L 313 121 L 315 117 L 314 109 L 309 106 L 292 106 Z M 330 113 Q 326 115 328 122 L 330 123 L 345 124 L 362 128 L 364 125 L 363 121 L 359 117 L 330 113 Z M 366 114 L 368 122 L 367 129 L 362 133 Q 361 135 368 134 L 372 129 L 371 117 L 366 114 Z M 379 121 L 375 131 L 379 133 L 387 132 Q 390 130 388 124 L 387 122 L 379 121 Z M 152 123 L 146 126 L 139 137 L 140 143 L 152 149 L 169 149 L 193 141 L 219 139 Q 221 138 220 133 L 211 127 L 181 126 L 172 123 L 152 123 Z M 328 127 L 325 130 L 326 138 L 328 139 Q 335 139 339 136 L 338 134 L 339 129 L 338 127 L 328 127 Z M 346 129 L 344 130 L 342 135 L 345 136 L 350 143 L 350 150 L 354 160 L 357 161 L 361 156 L 361 143 L 355 134 Q 353 129 346 129 Z M 335 141 L 326 148 L 328 150 L 337 146 L 342 146 L 345 144 Q 343 139 335 141 Z M 190 146 L 166 154 L 164 156 L 167 157 L 173 157 L 182 152 L 190 152 L 196 148 Q 195 145 190 146 Z M 343 149 L 334 151 L 320 159 L 307 163 L 203 209 L 200 205 Q 190 204 187 209 L 189 219 Q 148 249 112 284 L 101 290 L 95 298 L 95 309 L 102 315 L 109 313 L 113 307 L 113 300 L 107 294 Q 106 290 110 291 Q 118 295 116 310 L 186 315 L 185 313 L 186 306 L 183 303 L 127 301 L 118 299 L 120 295 L 118 293 L 116 291 Q 150 257 192 230 L 195 237 L 204 274 L 207 278 L 219 277 L 220 276 L 210 243 L 207 223 L 299 182 L 317 176 L 235 285 L 244 298 L 334 186 L 335 182 L 339 184 L 354 178 L 347 151 L 343 149 Z M 184 155 L 176 159 Q 177 178 185 192 L 194 189 L 187 164 L 187 157 L 184 155 Z M 349 183 L 344 185 L 336 197 L 336 211 L 341 228 L 344 231 L 352 228 L 346 209 Q 345 198 349 194 Q 350 189 357 190 L 359 186 Q 357 181 349 183 Z M 304 185 L 214 224 L 211 227 L 224 279 L 233 281 Q 267 232 306 187 L 304 185 Z M 361 192 L 352 197 L 353 199 L 365 199 Q 371 204 374 213 L 379 209 L 376 198 Q 372 191 361 192 Z M 195 193 Q 185 194 181 200 L 185 205 Q 188 200 199 201 Q 202 200 201 196 Q 200 192 195 193 Z M 353 204 L 351 206 Q 350 213 355 216 L 367 211 L 366 207 L 364 204 L 353 204 Z M 112 207 L 108 213 L 105 213 L 100 208 L 93 210 L 91 214 L 88 216 Q 82 217 82 213 L 77 215 L 72 223 L 68 221 L 64 223 L 60 227 Q 61 233 58 234 L 56 233 L 48 239 L 49 242 L 48 246 L 43 247 L 39 252 L 40 256 L 39 263 L 35 264 L 32 269 L 34 281 L 30 283 L 28 285 L 27 294 L 31 297 L 30 304 L 28 306 L 28 315 L 33 319 Q 34 325 30 327 L 32 336 L 37 337 L 39 342 L 38 346 L 41 354 Q 42 357 47 356 L 49 360 L 48 364 L 54 371 L 59 370 Q 63 372 62 380 L 67 383 L 71 382 L 76 383 L 77 389 L 83 392 Q 88 393 89 389 L 93 389 L 94 395 L 96 396 L 104 397 L 105 393 L 111 391 L 113 395 Q 114 398 121 396 L 123 392 Q 125 388 131 390 L 133 393 L 139 391 L 145 383 L 150 385 L 155 383 Q 158 381 156 375 L 159 372 L 164 374 L 170 369 L 168 365 L 170 361 Q 171 358 177 359 L 181 353 L 178 349 L 179 344 L 185 342 L 188 336 Q 189 330 185 330 L 187 325 Q 190 326 188 322 L 187 320 L 174 319 L 167 339 L 158 354 L 141 369 L 125 376 L 115 377 Q 88 378 74 366 Q 50 349 44 315 Q 42 295 46 282 Q 51 263 62 251 Q 75 232 103 228 Q 135 227 150 244 L 161 237 L 162 235 L 157 231 L 158 225 L 152 220 L 148 222 Q 141 223 140 219 L 141 217 L 132 211 L 129 215 L 123 214 L 121 211 Q 119 206 112 207 Z M 380 213 Q 376 214 377 219 Q 370 221 369 216 L 361 218 L 356 226 L 360 228 L 365 239 L 381 234 Q 398 232 411 236 Q 425 240 435 249 Q 456 268 462 302 Q 464 320 460 334 Q 455 350 446 363 L 425 381 Q 414 387 400 389 Q 361 390 344 370 Q 324 354 319 324 Q 317 273 344 253 L 344 248 L 338 242 Q 337 236 340 235 L 339 232 Q 331 232 329 238 L 330 241 L 327 245 L 323 244 L 317 251 L 318 254 L 317 259 L 313 260 L 306 269 L 309 274 L 307 279 L 303 280 L 300 287 Q 299 293 303 295 L 303 300 L 300 301 Q 296 303 298 312 L 301 313 Q 304 315 303 321 L 299 324 L 300 335 L 306 336 L 307 340 Q 308 345 304 346 L 307 355 L 313 356 L 315 360 L 314 365 L 320 374 L 323 373 L 328 378 L 327 383 L 334 388 L 340 386 Q 344 387 343 395 L 350 399 L 355 396 L 359 397 L 360 403 Q 363 406 370 406 L 373 402 L 378 403 L 381 408 L 390 408 L 390 407 L 399 404 L 400 407 Q 402 410 410 408 L 412 404 L 418 400 L 423 404 L 430 401 Q 433 400 432 396 L 438 391 L 442 393 L 450 388 L 449 384 L 454 378 L 460 379 L 465 373 L 462 368 L 467 361 L 471 362 L 476 353 Q 472 350 473 343 Q 474 339 480 340 L 481 339 L 482 329 L 480 327 Q 476 325 478 319 L 484 316 L 483 305 L 477 301 L 477 297 L 482 292 L 480 283 L 477 281 L 472 276 L 476 271 L 473 263 Q 472 259 467 260 L 463 257 Q 462 252 465 251 L 460 243 L 456 244 L 450 241 L 451 235 L 445 229 L 442 230 Q 435 231 433 227 L 434 224 L 426 218 L 421 221 L 415 220 L 413 216 Q 410 212 403 213 L 399 218 Q 392 220 390 216 L 390 213 L 380 213 Z M 354 231 L 342 239 L 346 243 L 358 237 L 357 233 L 354 231 Z M 101 232 L 89 235 L 70 247 Q 53 262 48 288 L 49 324 Q 54 341 64 354 Q 76 368 98 373 L 127 372 L 149 359 Q 164 345 169 321 L 164 318 L 161 321 L 159 332 L 149 348 Q 138 361 119 366 L 101 366 Q 89 363 81 357 L 63 338 Q 57 327 55 313 Q 53 275 71 258 Q 82 245 101 240 Q 129 237 141 251 L 145 250 L 146 247 Q 138 237 125 233 L 101 232 Z M 189 236 L 180 243 L 186 255 L 184 259 Q 183 263 188 261 L 190 264 L 193 276 L 191 277 L 189 280 L 198 283 L 202 281 L 191 243 L 191 236 L 189 236 Z M 380 238 Q 369 239 363 246 L 367 251 L 372 248 L 386 245 L 397 245 L 407 247 L 426 257 L 441 276 L 448 292 L 451 307 Q 451 338 437 356 Q 424 373 400 378 Q 385 379 376 376 L 354 364 Q 335 350 330 322 Q 328 282 348 265 Q 349 258 346 256 L 332 272 L 327 283 L 323 299 Q 321 320 325 335 Q 329 349 338 360 L 358 376 L 378 384 L 389 385 L 411 383 L 431 373 Q 454 356 458 319 L 456 290 Q 451 273 441 262 Q 431 248 414 241 L 401 238 L 380 238 Z M 357 241 L 348 246 L 350 259 L 357 275 L 369 317 L 374 320 Q 379 321 380 318 L 377 304 L 360 252 L 359 243 L 357 241 Z M 107 244 L 99 245 L 89 251 L 100 277 L 101 283 L 106 284 L 112 277 L 116 246 Q 114 242 107 244 Z M 120 246 L 117 251 L 115 273 L 119 272 L 134 259 L 137 255 Q 132 246 120 246 Z M 174 248 L 161 258 L 171 279 L 174 298 Q 178 301 186 300 L 191 293 L 191 288 L 190 286 L 177 286 L 175 285 L 177 283 L 185 283 L 184 277 L 188 274 L 186 266 L 178 261 L 181 256 L 179 251 Q 178 247 174 248 Z M 381 250 L 377 253 L 385 285 L 388 289 Q 393 290 395 288 L 386 259 L 386 252 L 381 250 Z M 392 250 L 390 252 L 397 277 Q 396 280 399 279 L 404 265 L 406 264 L 399 283 Q 398 293 404 297 L 413 293 L 433 275 L 431 269 Q 424 258 411 255 L 408 261 L 406 262 L 408 255 Q 403 249 392 250 Z M 85 251 L 81 254 Q 71 259 68 272 L 93 290 L 100 286 L 87 253 L 85 251 Z M 371 253 L 367 256 L 377 289 L 380 292 L 382 291 L 373 255 L 371 253 Z M 157 260 L 153 264 L 159 276 L 166 298 L 170 297 L 168 281 L 160 263 L 157 260 Z M 150 267 L 136 278 Q 130 280 131 285 L 152 285 L 156 283 L 156 279 L 150 267 Z M 350 269 Q 341 276 338 289 L 339 292 L 335 299 L 335 317 L 361 315 L 364 313 L 362 305 L 342 294 L 340 292 Q 350 293 358 299 L 360 298 L 352 273 L 350 269 Z M 68 274 Q 59 281 60 298 L 68 300 L 90 300 L 92 294 L 68 274 Z M 436 276 L 407 301 L 410 308 L 444 306 L 445 305 Q 445 288 438 278 L 436 276 Z M 213 281 L 200 287 Q 190 293 189 308 L 190 318 L 194 327 Q 199 336 212 335 L 210 326 L 200 315 Q 199 304 203 300 L 212 294 L 222 295 L 228 306 Q 230 317 224 321 L 228 332 L 231 331 Q 238 326 240 315 Q 242 299 235 292 Q 230 280 213 281 Z M 152 287 L 151 288 L 126 288 L 123 291 L 124 295 L 129 297 L 158 297 L 159 296 L 158 289 Q 157 286 152 287 Z M 386 293 L 381 296 L 379 298 Q 381 302 390 300 Q 397 304 395 319 L 389 324 L 380 323 L 378 326 L 385 330 L 398 328 L 404 321 L 405 317 Q 407 304 401 299 Q 397 292 386 293 Z M 215 297 L 208 300 L 204 306 L 205 314 Q 208 315 207 311 Q 209 305 218 307 L 221 312 L 224 313 L 225 311 L 222 302 Q 220 297 215 297 Z M 62 302 L 59 306 L 62 324 L 68 331 L 92 313 L 90 305 L 89 303 L 62 302 Z M 384 303 L 382 305 L 384 318 L 385 320 L 390 319 L 392 315 L 391 307 Q 389 303 384 303 Z M 439 308 L 425 310 L 412 310 Q 407 313 408 321 L 440 339 L 444 333 L 446 322 L 446 310 Q 445 307 439 308 Z M 213 310 L 210 314 L 220 343 Q 225 344 226 342 L 217 312 L 213 310 Z M 115 311 L 109 316 Q 104 315 105 318 Q 113 320 117 316 L 118 314 L 115 311 Z M 124 314 L 122 316 L 125 322 L 128 324 L 154 330 L 158 319 L 157 317 L 139 316 L 136 314 L 124 314 Z M 93 315 L 68 333 L 68 338 L 74 347 L 84 354 L 88 355 Q 96 340 100 321 L 93 315 Z M 363 316 L 358 318 L 340 319 L 336 322 Q 336 339 346 348 L 349 348 L 372 326 L 367 318 L 363 316 Z M 105 322 Q 95 337 91 358 L 100 361 L 118 361 L 119 360 L 112 325 Q 111 321 105 322 Z M 117 324 L 115 326 L 120 354 L 123 359 L 130 358 L 144 347 L 144 344 L 138 337 L 128 326 L 117 324 Z M 407 324 L 400 332 Q 407 351 419 366 L 423 364 Q 433 356 439 344 Q 425 332 407 324 Z M 374 328 L 348 352 L 349 355 Q 358 365 373 370 L 381 345 L 382 334 L 374 328 Z M 136 329 L 139 335 L 148 342 L 152 336 L 136 329 Z M 394 333 L 387 334 L 384 337 L 382 351 L 376 371 L 378 372 L 390 374 L 407 372 L 414 368 L 399 336 Q 398 332 394 333 Z M 230 347 L 222 350 L 226 357 Q 235 358 240 355 Q 242 354 241 349 L 240 347 L 230 347 Z M 203 348 Q 199 350 201 356 Q 207 360 220 358 Q 222 357 221 352 L 221 350 L 220 348 L 203 348 Z " /><path fill="rgb(211,68,58)" stroke="rgb(211,68,58)" stroke-width="0.6" opacity="1" d="M 294.5 106 Q 308.4 104.1 314 110.5 Q 315.5 118.5 311.5 121 L 293.5 121 L 292 119.5 L 293 107.5 L 294.5 106 Z " /><path fill="rgb(211,68,58)" stroke="rgb(211,68,58)" stroke-width="0.6" opacity="1" d="M 336.5 141 Q 342.5 139.5 344 142.5 L 342.5 145 L 337.5 145 L 328.5 149 Q 325 147 329.5 145 L 336.5 141 Z " /><path fill="rgb(211,68,58)" stroke="rgb(211,68,58)" stroke-width="0.6" opacity="1" d="M 189.5 147 Q 195.3 145.3 194 149 L 188.5 152 L 180.5 152 L 167.5 157 L 166 154 L 189.5 147 Z " /><path fill="rgb(211,68,58)" stroke="rgb(211,68,58)" stroke-width="0.6" opacity="1" d="M 192.5 194 Q 198.5 192.5 200 195.5 L 198.5 200 Q 189.5 200 184.5 204 L 182 200.5 L 183 198 L 192.5 194 Z " /><path fill="rgb(211,68,58)" stroke="rgb(211,68,58)" stroke-width="0.6" opacity="1" d="M 380.5 213 Q 388 211 390 214.5 L 392.5 219 Q 399.5 220.5 401 216.5 L 402.5 214 Q 410 212 412 215.5 L 413.5 221 L 420.5 222 L 425.5 219 L 433 223.5 L 432 227.5 Q 435 231 441.5 231 L 444.5 230 L 450 234.5 L 449 240.5 L 455.5 245 L 459.5 244 L 464 250.5 Q 461 251.5 462 256.5 L 464 260 L 472 262.5 L 475 269.5 L 474 272 L 472 273.5 L 472 275.5 L 475.5 281 L 480 282.5 L 481 291.5 Q 476.2 293.7 476 300.5 L 483 305.5 L 484 314.5 L 478 317.5 L 477 325.5 L 482 328.5 L 478.5 339 Q 472.8 338.3 472 342.5 L 472 348.5 L 475 353.5 L 470.5 361 L 466.5 360 L 462 365.5 L 462 368.5 L 464 372.5 L 459.5 378 L 453.5 377 L 448 383.5 L 449 387.5 Q 446.9 391.9 440.5 392 L 437.5 390 L 431 394.5 L 429.5 400 L 423.5 403 L 421 402 L 419.5 400 L 417.5 399 L 411 403.5 L 411 407 L 401.5 407 L 398.5 403 L 390 405.5 L 388.5 408 Q 381 410 379 406.5 L 377.5 402 L 373.5 401 Q 372.5 406 365.5 405 L 360 401.5 L 361 398.5 L 354.5 395 L 349.5 398 L 344 394.5 Q 345.3 386.3 339.5 385 L 333.5 387 L 328 382.5 L 329 377.5 L 322.5 372 L 319.5 373 L 315 367.5 L 315 363.5 L 316 359.5 L 312.5 355 L 307 353.5 L 305 345.5 Q 308.8 344.8 308 339.5 L 305.5 335 L 300 333.5 L 300 324.5 Q 304.8 322.8 303 314.5 L 298 311.5 Q 296 304 299.5 302 L 303 300.5 L 304 294.5 Q 299.3 292.8 301 284.5 L 303.5 280 L 308 278.5 L 310 273.5 L 307 268.5 L 312.5 261 Q 317.3 261.8 318 258.5 L 319 253.5 L 318 250.5 L 322.5 245 L 326.5 246 L 329 245 L 331 240.5 L 330 237.5 Q 331.9 233.4 337.5 233 L 338 235.5 L 337 239.5 L 340 246 L 342 247.5 L 343 252.5 L 337 257.5 Q 318.4 276.9 318 314.5 L 320 333.5 L 325 346.5 Q 331.2 359.8 341.5 369 Q 354 382.5 374.5 388 L 404.5 389 Q 432.4 382.4 447 362.5 Q 456.3 350.3 461 333.5 L 462 298.5 Q 456 266.5 435.5 249 Q 425.4 239.6 410.5 235 L 377.5 234 L 363 238 Q 364.5 229.8 359.5 227 Q 356.9 227.8 358 224.5 L 360.5 218 L 368.5 217 Q 369.5 221 375.5 220 L 380.5 213 Z " /><path fill="rgb(211,68,58)" stroke="rgb(211,68,58)" stroke-width="0.6" opacity="1" d="M 187.5 237 Q 192.1 235.7 190 241.5 L 200 272.5 L 201 280.5 L 196.5 282 L 190 278.5 L 192 278 L 193 270.5 L 187.5 260 L 185 258.5 L 186 253.5 L 181 243.5 L 187.5 237 Z " /><path fill="rgb(211,68,58)" stroke="rgb(211,68,58)" stroke-width="0.6" opacity="1" d="M 384.5 238 L 396.5 238 L 414.5 242 Q 430.8 249.2 441 262.5 Q 449.8 271.7 454 285.5 Q 457 292.5 456 303.5 L 458 307.5 L 458 317.5 Q 454.3 321.8 456 331.5 L 452 343.5 Q 445.8 357.8 435.5 368 Q 426.8 376.3 414.5 381 L 408.5 383 L 389.5 385 Q 385.2 381.3 375.5 383 L 357.5 375 L 339 359.5 Q 330.5 349.5 326 335.5 L 323 320.5 L 323 302.5 L 328 281.5 Q 333.4 266.9 344.5 258 L 346 259.5 L 347 264.5 Q 325.5 282 330 325.5 Q 335.3 350.7 352.5 364 L 368.5 374 L 379.5 378 L 403.5 378 Q 425.4 372.4 437 356.5 Q 445 347 449 333.5 Q 452.8 320.3 451 301.5 L 449 291.5 L 443 277.5 L 425.5 256 L 406.5 246 L 381.5 245 L 371.5 247 L 366.5 250 L 364 245.5 L 373.5 240 L 384.5 238 Z " /><path fill="rgb(211,68,58)" stroke="rgb(211,68,58)" stroke-width="0.6" opacity="1" d="M 172.5 249 L 178 250.5 L 180 255.5 L 177 260.5 L 179 264 L 186 267.5 L 187 274 L 184 275.5 Q 185.3 280.8 182.5 282 L 174 283 L 175 285.5 L 173 286 L 172 278.5 L 162 257.5 L 172.5 249 Z " /><path fill="rgb(211,68,58)" stroke="rgb(211,68,58)" stroke-width="0.6" opacity="1" d="M 84.5 252 L 87 253.5 L 99 285.5 L 91.5 289 L 69 271.5 Q 71.8 259.3 81.5 254 L 84.5 252 Z " /><path fill="rgb(211,68,58)" stroke="rgb(211,68,58)" stroke-width="0.6" opacity="1" d="M 369.5 254 Q 372.8 252.9 372 255.5 L 381 289.5 Q 379.5 292.5 378 289.5 L 368 255.5 L 369.5 254 Z " /><path fill="rgb(211,68,58)" stroke="rgb(211,68,58)" stroke-width="0.6" opacity="1" d="M 156.5 261 L 159 262.5 L 168 282.5 L 169 298 L 164 296.5 Q 162.7 276.3 154 263.5 L 156.5 261 Z " /><path fill="rgb(211,68,58)" stroke="rgb(211,68,58)" stroke-width="0.6" opacity="1" d="M 152.5 287 L 158 288.5 Q 159.8 295.3 156.5 297 L 154.5 296 L 151.5 297 L 150.5 296 L 126.5 296 L 125 294.5 L 124 290.5 L 125.5 289 Q 141.6 290.6 152.5 287 Z " /><path fill="rgb(211,68,58)" stroke="rgb(211,68,58)" stroke-width="0.6" opacity="1" d="M 117.5 300 L 154.5 303 L 161.5 302 L 162.5 303 L 180.5 303 L 184 305.5 L 184 314 L 170.5 314 L 153.5 311 L 125.5 310 L 118.5 309 L 116 306.5 Q 114.8 301.3 117.5 300 Z " /><path fill="rgb(211,68,58)" stroke="rgb(211,68,58)" stroke-width="0.6" opacity="1" d="M 439.5 308 Q 444.8 306.8 446 309.5 Q 446.7 327.7 439.5 338 L 409 320.5 L 410 312.5 L 411.5 311 L 435.5 310 L 439.5 308 Z " /><path fill="rgb(211,68,58)" stroke="rgb(211,68,58)" stroke-width="0.6" opacity="1" d="M 392.5 334 L 398 335.5 L 413 367.5 Q 403.6 374.1 386.5 373 L 377 371 L 386.5 335 L 392.5 334 Z " /><path fill="rgb(57,62,66)" stroke="rgb(57,62,66)" stroke-width="0.6" opacity="1" d="M 317.5 104 L 322 105.5 Q 325.5 109.5 324 118.5 L 319.5 126 L 313 127 Q 311.5 123.2 314.5 124 Q 320.2 121.2 319 111.5 L 316 105.5 L 317.5 104 Z " /><path fill="rgb(57,62,66)" stroke="rgb(57,62,66)" stroke-width="0.6" opacity="1" d="M 330.5 113 L 357.5 117 L 363 121.5 Q 364.3 126.8 361.5 128 L 345.5 124 L 330.5 123 L 328 120.5 Q 326.8 114.3 330.5 113 Z " /><path fill="rgb(57,62,66)" stroke="rgb(57,62,66)" stroke-width="0.6" opacity="1" d="M 151.5 123 L 170.5 123 L 179.5 126 L 208.5 127 Q 216.3 128.2 220 133.5 L 218.5 139 L 191.5 141 L 168.5 149 L 151.5 149 L 141 143.5 L 140 134.5 L 145.5 126 L 151.5 123 Z " /><path fill="rgb(57,62,66)" stroke="rgb(57,62,66)" stroke-width="0.6" opacity="1" d="M 361.5 192 Q 371.4 191.1 375 196.5 L 379 208.5 L 373.5 212 L 366.5 200 L 352 199 L 354.5 194 L 361.5 192 Z " /><path fill="rgb(57,62,66)" stroke="rgb(57,62,66)" stroke-width="0.6" opacity="1" d="M 352.5 204 L 363.5 204 L 366 206.5 L 367 210.5 L 354.5 216 Q 350 213.5 351 205.5 L 352.5 204 Z " /><path fill="rgb(57,62,66)" stroke="rgb(57,62,66)" stroke-width="0.6" opacity="1" d="M 98.5 208 L 102 210.5 L 103.5 213 L 109 211.5 L 110.5 208 Q 119 206 121 210.5 Q 119.5 214.9 122.5 214 L 128.5 215 L 132.5 211 L 133.5 212 L 141 216.5 L 140 219.5 Q 142.3 222.7 148.5 222 L 151.5 220 L 158 225.5 L 157 232 L 161 234.5 L 157.5 239 L 149.5 244 Q 135 226.5 101.5 228 Q 74.5 233 61 251.5 Q 51.2 263.7 46 280.5 Q 41.9 294.9 44 315.5 Q 49.1 344.9 67.5 361 Q 82.4 377.1 112.5 378 Q 116.2 374.7 124.5 376 L 140.5 369 L 159 352.5 L 168 336.5 L 173.5 319 L 186.5 320 L 188 321.5 L 186.5 325 Q 183.8 324.4 185 330.5 L 188 334.5 L 184.5 342 L 179 343.5 L 178 348.5 L 181 352.5 L 176.5 359 Q 170.3 357.8 169 361.5 L 168 365.5 L 170 368.5 L 163.5 374 L 158.5 372 L 155 376.5 L 156 380.5 L 150.5 385 L 145.5 382 L 141 385.5 Q 141.8 390.3 138.5 391 L 133.5 393 Q 132 388.5 124.5 390 L 120.5 396 Q 114.5 397.5 113 394.5 L 110.5 391 L 105 392.5 L 103.5 397 L 95.5 396 L 94 394.5 L 92.5 389 Q 85.4 387.9 83.5 392 L 77 388.5 L 75.5 383 L 69.5 382 L 67.5 383 L 62 378.5 Q 62.9 371.6 58.5 370 L 53.5 371 L 48 363.5 L 49 359.5 L 46.5 356 Q 41.8 356.8 41 353.5 L 38 345.5 L 39 340.5 L 36.5 337 L 32 335.5 L 30 327.5 Q 34.5 326 33 318.5 L 28 314.5 L 28 305.5 L 30 303.5 L 31 295 L 27 293.5 L 28 284.5 L 29.5 283 L 34 280.5 L 32 268.5 L 34.5 264 L 39 262.5 L 40 255.5 L 39 251.5 L 42.5 247 L 48 245.5 L 49 240.5 L 48 238.5 L 55.5 233 L 57.5 234 L 60 231.5 Q 58.8 226.3 61.5 225 L 67.5 221 L 72.5 223 L 76.5 215 L 81.5 213 Q 82.3 216.7 87.5 216 L 91 213.5 L 92.5 210 L 98.5 208 Z " /><path fill="rgb(57,62,66)" stroke="rgb(57,62,66)" stroke-width="0.6" opacity="1" d="M 106.5 244 Q 114.3 242.2 116 246.5 Q 112.1 259.1 112 275.5 L 106.5 283 L 102.5 284 L 89 250.5 L 98.5 245 L 106.5 244 Z " /><path fill="rgb(57,62,66)" stroke="rgb(57,62,66)" stroke-width="0.6" opacity="1" d="M 391.5 250 Q 403 249 408 254.5 L 399 279 Q 396 280.3 397 276.5 L 390 251.5 L 391.5 250 Z " /><path fill="rgb(57,62,66)" stroke="rgb(57,62,66)" stroke-width="0.6" opacity="1" d="M 338.5 293 L 358.5 302 L 362 305.5 L 364 312.5 L 359.5 315 L 336 317 L 335 314.5 L 335 299.5 L 338.5 293 Z " /><path fill="rgb(57,62,66)" stroke="rgb(57,62,66)" stroke-width="0.6" opacity="1" d="M 123.5 314 L 133.5 314 L 138.5 316 L 156.5 317 L 158 318.5 L 153.5 330 L 128.5 324 L 123 318.5 L 122 315.5 L 123.5 314 Z " /><path fill="rgb(57,62,66)" stroke="rgb(57,62,66)" stroke-width="0.6" opacity="1" d="M 104.5 322 Q 110.8 320.8 112 324.5 L 119 359.5 L 117.5 361 L 99.5 361 L 91 357.5 L 92 350.5 L 104.5 322 Z " /><path fill="rgb(57,62,66)" stroke="rgb(57,62,66)" stroke-width="0.6" opacity="1" d="M 116.5 324 Q 129.1 324.4 134 332.5 L 144 343.5 L 144 346.5 Q 137 356.5 122.5 359 L 121 357.5 L 115 325.5 L 116.5 324 Z " /><path fill="rgb(57,62,66)" stroke="rgb(57,62,66)" stroke-width="0.6" opacity="1" d="M 406.5 324 L 439 343.5 Q 433.2 355.2 423.5 363 L 418.5 366 L 400 331.5 L 406.5 324 Z " /><path fill="rgb(57,62,66)" stroke="rgb(57,62,66)" stroke-width="0.6" opacity="1" d="M 138.5 330 L 151 334 Q 152 340.4 146.5 342 L 138 332.5 L 138.5 330 Z " /><path fill="rgb(57,62,66)" stroke="rgb(57,62,66)" stroke-width="0.6" opacity="1" d="M 229.5 347 L 239.5 347 L 241 348.5 Q 242.3 353.8 239.5 355 Q 234.5 358 225.5 357 L 222 349.5 L 229.5 347 Z " /><path fill="rgb(57,62,66)" stroke="rgb(57,62,66)" stroke-width="0.6" opacity="1" d="M 433.5 359 L 428.5 365 L 433.5 359 Z " /><path fill="rgb(55,113,181)" stroke="rgb(55,113,181)" stroke-width="0.6" opacity="1" d="M 281.5 106 Q 287 105 288 108.5 L 289 115.5 L 285.5 120 Q 279.3 121.3 278 117.5 L 277 113.5 Q 277.5 108 281.5 106 Z " /><path fill="rgb(55,113,181)" stroke="rgb(55,113,181)" stroke-width="0.6" opacity="1" d="M 378.5 122 Q 384.7 121.3 387 124.5 L 388 129.5 L 385.5 132 L 376 132 L 377 123.5 L 378.5 122 Z " /><path fill="rgb(55,113,181)" stroke="rgb(55,113,181)" stroke-width="0.6" opacity="1" d="M 344.5 130 Q 351.7 129.3 354 133.5 L 361 143.5 L 361 154.5 L 356.5 160 L 350 148.5 L 350 141.5 L 343 131.5 L 344.5 130 Z " /><path fill="rgb(55,113,181)" stroke="rgb(55,113,181)" stroke-width="0.6" opacity="1" d="M 340.5 150 Q 345.8 148.8 347 151.5 L 353 176.5 L 350.5 179 L 346.5 179 L 338.5 183 L 335.5 181 L 245 296 Q 241.3 297.5 242 294.5 L 236 283.5 L 315 181.5 L 319 174 L 275.5 191 L 234.5 210 L 208.5 220 L 206 222.5 L 209 241.5 L 219 272.5 L 219 277 L 206.5 277 L 205 275.5 L 201 255.5 L 193 229 L 188.5 230 L 165.5 247 L 121 284.5 L 117.5 289 L 115 290.5 L 116.5 293 L 119 294.5 L 118 299 L 115 297.5 L 110.5 291 L 105 292.5 Q 111.8 295.2 113 303.5 L 108.5 312 L 101.5 314 L 95 307.5 L 95 298.5 L 100.5 291 L 107.5 288 L 160.5 241 L 190 218.5 L 188 208.5 Q 192.3 204.2 200 205 L 202.5 210 L 305.5 164 L 323.5 158 L 332.5 152 L 340.5 150 Z " /><path fill="rgb(55,113,181)" stroke="rgb(55,113,181)" stroke-width="0.6" opacity="1" d="M 183.5 156 L 186 157.5 L 193 188.5 Q 190.7 191.7 184.5 191 L 178 171.5 L 176 159.5 L 178.5 157 L 183.5 156 Z " /><path fill="rgb(55,113,181)" stroke="rgb(55,113,181)" stroke-width="0.6" opacity="1" d="M 350.5 183 Q 356.5 181.5 358 184.5 L 356.5 189 Q 350.2 189.7 348 194.5 Q 344 199.5 346 210.5 L 351 227.5 L 343.5 230 L 336 208.5 L 336 197.5 L 343.5 186 L 350.5 183 Z " /><path fill="rgb(55,113,181)" stroke="rgb(55,113,181)" stroke-width="0.6" opacity="1" d="M 104.5 232 L 115.5 232 L 128.5 235 L 145 246.5 L 143.5 250 L 140.5 250 Q 133.3 242.7 121.5 240 L 100.5 239 Q 81.3 244.3 70 257.5 Q 60.3 268.8 56 285.5 L 55 316.5 L 63 338.5 L 80.5 358 Q 92.5 368 115.5 367 Q 137.4 362.9 149 348.5 L 160 331.5 L 163.5 319 L 168 320.5 Q 164.8 341.8 152.5 354 L 149 356.5 L 146.5 360 L 127.5 371 Q 116.4 374.4 100.5 373 Q 86.7 370.3 76.5 364 L 64 352.5 L 51 328.5 L 48 314.5 L 48 291.5 Q 51.9 266.9 65.5 252 L 70 248.5 L 71.5 246 L 87.5 236 L 104.5 232 Z " /><path fill="rgb(55,113,181)" stroke="rgb(55,113,181)" stroke-width="0.6" opacity="1" d="M 352.5 232 L 357 233.5 L 355.5 238 L 345.5 242 L 343 237 L 352.5 232 Z " /><path fill="rgb(55,113,181)" stroke="rgb(55,113,181)" stroke-width="0.6" opacity="1" d="M 355.5 242 L 358 243.5 L 361 257.5 L 380 316.5 Q 378.8 320.3 372.5 319 L 369 314.5 L 360 281.5 L 351 259.5 L 349 245.5 L 355.5 242 Z " /><path fill="rgb(55,113,181)" stroke="rgb(55,113,181)" stroke-width="0.6" opacity="1" d="M 410 256 Q 423.9 258.9 431 269.5 L 432 274.5 L 410.5 294 L 403.5 296 Q 398.9 291.6 400 281.5 L 410 256 Z " /><path fill="rgb(55,113,181)" stroke="rgb(55,113,181)" stroke-width="0.6" opacity="1" d="M 348.5 271 Q 352.3 269.8 351 273.5 L 359 298 L 348.5 293 L 341.5 292 L 339 289.5 Q 340.9 277.4 348.5 271 Z " /><path fill="rgb(55,113,181)" stroke="rgb(55,113,181)" stroke-width="0.6" opacity="1" d="M 61.5 303 L 88.5 303 L 90 304.5 L 91 312.5 L 67.5 330 Q 59 322 60 304.5 L 61.5 303 Z " /><path fill="rgb(55,113,181)" stroke="rgb(55,113,181)" stroke-width="0.6" opacity="1" d="M 213.5 310 L 216 311.5 L 225 338.5 L 225 343 L 219 341.5 Q 213.2 328.8 211 312.5 L 213.5 310 Z " /><path fill="rgb(55,113,181)" stroke="rgb(55,113,181)" stroke-width="0.6" opacity="1" d="M 92.5 316 L 99 320.5 L 97 330.5 L 88 354 Q 78.9 352.2 74 345.5 L 68 336.5 L 68 333.5 L 92.5 316 Z " /><path fill="rgb(55,113,181)" stroke="rgb(55,113,181)" stroke-width="0.6" opacity="1" d="M 203.5 348 L 218.5 348 L 220 349.5 L 221 355.5 L 219.5 357 L 204.5 357 L 201 354.5 Q 200 349 203.5 348 Z " /><path fill="rgb(246,190,54)" stroke="rgb(246,190,54)" stroke-width="0.6" opacity="1" d="M 368.5 115 Q 373.1 118.4 371 128.5 L 367.5 133 Q 362.7 134.3 364 131 L 368 128.5 L 369 122.5 L 367 116.5 L 368.5 115 Z " /><path fill="rgb(246,190,54)" stroke="rgb(246,190,54)" stroke-width="0.6" opacity="1" d="M 327.5 128 L 337 128 L 337 133.5 L 336.5 136 L 328.5 138 Q 325 136 326 129.5 L 327.5 128 Z " /><path fill="rgb(246,190,54)" stroke="rgb(246,190,54)" stroke-width="0.6" opacity="1" d="M 300.5 187 L 304 187.5 L 231.5 280 L 225 277.5 L 212 226.5 L 300.5 187 Z " /><path fill="rgb(246,190,54)" stroke="rgb(246,190,54)" stroke-width="0.6" opacity="1" d="M 120.5 247 Q 131.4 247.6 136 254.5 L 133.5 258 L 119.5 270 L 116 271 L 118 249.5 L 120.5 247 Z " /><path fill="rgb(246,190,54)" stroke="rgb(246,190,54)" stroke-width="0.6" opacity="1" d="M 380.5 251 L 385 252.5 L 385 257.5 L 394 287.5 L 388.5 289 L 386 285.5 L 378 253.5 L 380.5 251 Z " /><path fill="rgb(246,190,54)" stroke="rgb(246,190,54)" stroke-width="0.6" opacity="1" d="M 148.5 269 Q 151.8 267.9 151 270.5 L 155 278.5 L 155 282.5 L 153.5 284 L 132 284 L 135.5 279 L 148.5 269 Z " /><path fill="rgb(246,190,54)" stroke="rgb(246,190,54)" stroke-width="0.6" opacity="1" d="M 66.5 276 L 69.5 276 L 91 293.5 L 88.5 300 Q 70.7 302.3 60 297.5 L 62 284.5 L 66.5 276 Z " /><path fill="rgb(246,190,54)" stroke="rgb(246,190,54)" stroke-width="0.6" opacity="1" d="M 435.5 277 Q 444.8 286.5 444 305 L 410.5 307 Q 407 306 408 300.5 L 435.5 277 Z " /><path fill="rgb(246,190,54)" stroke="rgb(246,190,54)" stroke-width="0.6" opacity="1" d="M 211.5 282 Q 228.7 280.8 234 291.5 Q 241 299 239 315.5 Q 236.9 325.9 229.5 331 L 227 329.5 L 225 320.5 Q 230.3 316.8 229 306.5 L 221.5 294 L 212.5 293 L 203 297.5 Q 198 303 200 315.5 L 209 325.5 L 211 334 Q 199.2 334.6 195 326.5 Q 189.1 319.4 190 305.5 Q 191.8 292.8 200.5 287 L 211.5 282 Z " /><path fill="rgb(246,190,54)" stroke="rgb(246,190,54)" stroke-width="0.6" opacity="1" d="M 174.5 286 L 188.5 286 L 190 287.5 L 190 292.5 L 185.5 299 Q 176.8 300.7 174 296.5 L 173 287.5 L 174.5 286 Z " /><path fill="rgb(246,190,54)" stroke="rgb(246,190,54)" stroke-width="0.6" opacity="1" d="M 384.5 294 Q 396 292.5 400 298.5 Q 404.3 303.7 405 312.5 Q 404.1 322.6 397.5 327 Q 392.9 329.9 384.5 329 L 379 325.5 L 381.5 324 L 388.5 325 L 395 319.5 L 396 307.5 L 390.5 300 L 381.5 299 L 380 297.5 L 384.5 294 Z " /><path fill="rgb(246,190,54)" stroke="rgb(246,190,54)" stroke-width="0.6" opacity="1" d="M 213.5 298 Q 219.7 297.3 221 301.5 Q 224.8 303.8 224 310.5 Q 222.5 313.5 221 310.5 L 217.5 306 L 210.5 306 L 205 310 Q 203.5 301 210.5 299 L 213.5 298 Z " /><path fill="rgb(246,190,54)" stroke="rgb(246,190,54)" stroke-width="0.6" opacity="1" d="M 384.5 304 L 390 306.5 L 391 315.5 L 385.5 319 L 384 317.5 L 383 305.5 L 384.5 304 Z " /><path fill="rgb(246,190,54)" stroke="rgb(246,190,54)" stroke-width="0.6" opacity="1" d="M 361.5 317 Q 368.3 316.3 369 321.5 L 371 325.5 L 348.5 347 L 345.5 347 Q 337.2 338.3 337 321.5 L 338.5 320 L 356.5 319 L 361.5 317 Z " /><path fill="rgb(246,190,54)" stroke="rgb(246,190,54)" stroke-width="0.6" opacity="1" d="M 373.5 329 L 382 334.5 L 374 366.5 L 371.5 369 Q 358.9 364.6 351 355.5 L 349 351.5 L 373.5 329 Z " /><path fill="rgb(32,32,32)" stroke="rgb(32,32,32)" stroke-width="0.6" opacity="1" d="M 153.5 353 L 148.5 359 L 153.5 353 Z " /><path fill="rgb(32,32,32)" stroke="rgb(32,32,32)" stroke-width="0.6" opacity="1" d="M 62.5 355 L 67.5 361 L 62.5 355 Z " /><path fill="rgb(174,67,57)" stroke="rgb(174,67,57)" stroke-width="0.6" opacity="1" d="M 344.5 257 L 347 258.5 L 346.5 260 L 346 258 L 339.5 263 L 344.5 257 Z " /><path fill="rgb(110,72,55)" stroke="rgb(110,72,55)" stroke-width="0.6" opacity="1" d="M 345.5 356 L 351.5 363 L 345.5 356 Z " /><path fill="rgb(110,72,55)" stroke="rgb(110,72,55)" stroke-width="0.6" opacity="1" d="M 445.5 363 L 438.5 371 L 445.5 363 Z " /><path fill="rgb(110,72,55)" stroke="rgb(110,72,55)" stroke-width="0.6" opacity="1" d="M 322.5 372 L 329 377.5 L 328.5 380 L 323.5 373 L 322.5 372 Z " /><path fill="rgb(110,72,55)" stroke="rgb(110,72,55)" stroke-width="0.6" opacity="1" d="M 453.5 377 L 455 377.5 L 449 382.5 L 448.5 384 L 448 382.5 L 453.5 377 Z " /><path fill="rgb(54,110,146)" stroke="rgb(54,110,146)" stroke-width="0.6" opacity="1" d="M 75.5 252 L 70.5 258 L 75.5 252 Z " /><path fill="rgb(54,110,146)" stroke="rgb(54,110,146)" stroke-width="0.6" opacity="1" d="M 106.5 291 L 106 292.5 L 111.5 299 L 105 292.5 L 106.5 291 Z " /><path fill="rgb(54,110,146)" stroke="rgb(54,110,146)" stroke-width="0.6" opacity="1" d="M 95.5 308 L 103 314.5 L 101.5 315 L 95.5 308 Z " /><path fill="rgb(194,177,53)" stroke="rgb(194,177,53)" stroke-width="0.6" opacity="1" d="M 361.5 334 L 352.5 344 L 361.5 334 Z " /><path fill="rgb(221,221,221)" stroke="rgb(221,221,221)" stroke-width="0.6" opacity="1" d="M 177.5 206 L 182.5 212 L 178 208.5 L 177.5 206 Z " /></svg>