<svg width="627" height="627" preserveAspectRatio="xMidYMid meet" viewBox="0 0 512 512" version="1.1" xmlns="http://www.w3.org/2000/svg" ><path fill="rgb(255,255,255)" stroke="rgb(255,255,255)" stroke-width="0.6" opacity="1" d="M 0 0 L 512 0 L 512 512 L 0 512 L 0 0 Z M 316 98 L 310 101 L 296 101 L 295 100 Q 282 98 277 103 L 272 111 L 274 121 L 282 126 L 302 126 L 312 132 L 319 131 L 323 141 L 321 145 L 321 152 L 226 195 L 206 202 Q 207 195 204 191 L 201 188 L 198 185 L 191 157 L 205 145 Q 215 146 221 143 L 225 138 L 224 130 Q 221 124 214 123 L 175 120 L 164 117 Q 149 116 142 123 L 135 133 Q 133 143 138 147 Q 143 154 157 154 L 158 157 Q 162 162 171 162 L 179 191 Q 180 196 176 198 L 178 208 L 182 210 Q 185 211 183 218 L 169 229 L 166 228 Q 162 229 164 225 L 152 215 L 149 216 Q 144 217 146 213 L 133 206 Q 127 205 127 209 L 125 206 L 122 203 L 112 202 L 109 203 Q 106 209 103 203 Q 90 202 86 209 L 83 207 L 73 211 L 70 216 L 68 216 Q 59 218 55 225 Q 57 230 51 228 L 44 236 L 44 241 L 41 242 L 34 252 L 35 258 L 33 259 L 27 270 Q 26 275 29 277 L 24 282 L 23 288 Q 21 297 26 299 L 23 303 L 23 317 L 28 322 L 25 326 L 29 340 L 34 344 L 33 346 L 33 350 L 37 358 L 44 363 L 43 365 L 46 371 L 54 377 L 56 376 L 57 381 L 68 389 L 70 388 Q 73 387 72 391 L 84 397 L 88 396 Q 91 395 90 398 L 94 400 L 106 401 Q 109 395 113 402 L 126 400 L 127 398 Q 129 394 131 398 L 144 394 L 145 392 L 158 386 Q 162 385 161 379 L 166 379 L 175 370 Q 173 364 178 365 L 186 353 L 184 348 L 189 346 Q 193 341 193 333 L 206 340 Q 209 339 208 342 Q 206 345 201 343 L 196 348 L 197 359 L 204 362 L 217 363 L 225 363 L 244 359 L 247 353 L 246 346 L 243 342 L 231 341 L 230 337 L 233 335 Q 243 327 245 312 L 244 305 L 331 196 L 331 209 L 336 226 L 327 232 L 324 236 Q 326 241 321 239 L 311 251 L 312 253 Q 313 257 309 255 L 301 268 L 303 274 L 300 275 L 297 279 L 294 291 L 298 296 L 296 297 L 293 300 L 293 316 L 297 319 L 293 324 L 296 338 L 301 342 L 299 345 L 299 349 L 303 358 L 309 361 L 309 364 L 309 368 L 314 376 Q 316 381 323 379 L 322 382 L 322 384 L 332 393 L 337 392 L 338 397 L 350 404 L 353 403 Q 356 402 355 406 L 368 411 Q 373 412 374 408 L 375 411 L 378 413 L 392 414 L 394 410 L 401 414 L 414 412 L 416 407 L 422 409 L 435 404 L 439 397 L 442 399 L 452 393 Q 457 391 455 384 L 460 385 L 470 374 L 469 369 Q 468 366 473 367 L 481 354 L 479 345 L 483 344 L 485 342 L 488 329 L 484 323 L 489 318 L 489 303 L 483 298 L 486 296 L 488 293 L 485 280 Q 484 275 479 276 L 481 272 L 476 258 Q 475 254 469 255 L 470 252 Q 470 244 465 242 Q 463 237 456 238 L 457 234 L 446 224 L 439 224 L 439 221 L 436 217 L 426 213 L 420 215 Q 417 216 418 213 L 416 210 L 407 208 Q 397 206 396 212 L 394 210 Q 392 205 384 207 L 380 196 Q 377 187 366 188 L 357 170 L 357 167 Q 364 162 366 153 Q 367 144 364 139 L 372 136 L 382 138 L 388 137 L 393 130 L 392 122 L 387 117 L 376 115 L 367 109 L 358 112 L 330 108 L 327 105 Q 324 99 316 98 Z " /><path fill="rgb(212,61,57)" stroke="rgb(212,61,57)" stroke-width="0.6" opacity="1" d="M 292 106 L 301.5 107 L 305.5 106 L 312 107 L 314 111.5 L 314 117.5 L 310.5 121 L 296.5 121 L 293 120 L 292 117.5 Q 295 115.5 294 109.5 L 292 106 Z " /><path fill="rgb(212,61,57)" stroke="rgb(212,61,57)" stroke-width="0.6" opacity="1" d="M 336.5 141 Q 342.5 139.5 344 142.5 Q 345.4 147.1 339.5 145 L 326 149 L 328.5 144 L 336.5 141 Z " /><path fill="rgb(212,61,57)" stroke="rgb(212,61,57)" stroke-width="0.6" opacity="1" d="M 191.5 146 L 193 147.5 L 194 147.5 L 195.5 146 L 192.5 150 L 185.5 152 L 182.5 151 L 171.5 156 L 165 156 L 166.5 153 L 191.5 146 Z " /><path fill="rgb(212,61,57)" stroke="rgb(212,61,57)" stroke-width="0.6" opacity="1" d="M 196.5 193 L 200 194.5 L 201 199 L 192.5 202 L 190.5 202 L 183.5 205 Q 180.8 203.8 182 198.5 L 196.5 193 Z " /><path fill="rgb(212,61,57)" stroke="rgb(212,61,57)" stroke-width="0.6" opacity="1" d="M 380.5 213 L 384.5 214 L 388.5 213 L 391.5 218 L 397.5 219 L 401.5 214 L 403.5 213 L 412 214.5 L 412 216.5 L 415.5 222 L 417.5 222 L 419.5 223 L 423.5 218 L 430 220 Q 432.8 222.3 432 228 L 440.5 231 L 445.5 230 L 450 233 L 449 239.5 L 453.5 245 L 455.5 244 L 457.5 244 L 464 248.5 L 462 255.5 L 465.5 262 L 472 261 L 475 269.5 L 471 274.5 L 474.5 281 L 480 282.5 L 481 293 L 476 295.5 Q 475.9 301.1 479.5 303 L 484 306.5 L 484 314.5 L 482.5 315 L 477 318.5 L 478 321.5 L 477 324.5 L 481 327 L 482 331.5 L 478.5 340 L 475.5 339 Q 470.8 340.3 472 347.5 L 476 352.5 L 472 360 L 468.5 361 L 466.5 360 L 464 361 L 462 367.5 L 464 372.5 L 460.5 377 L 456.5 379 L 453.5 377 Q 448.3 377.8 449 384.5 L 450 386.5 Q 447.8 391.8 440.5 392 L 437.5 390 L 431 394.5 L 432 398.5 L 426.5 402 Q 425 399.5 423.5 403 Q 420.2 404.1 421 401.5 L 415.5 400 L 411 402.5 L 410 407 L 401.5 408 L 398.5 404 L 392 403 L 388.5 409 L 380.5 408 L 379 406.5 L 376.5 402 L 374.5 401 L 370 402 Q 371.8 406.9 365.5 405 L 362 404 L 358.5 397 L 353.5 395 Q 352.3 398.3 346.5 397 L 339.5 386 L 337.5 385 L 333.5 387 L 328 382.5 L 329 380.5 L 329 378.5 L 323.5 372 L 318 373 L 314 366.5 L 316 359.5 L 312.5 355 L 309.5 356 L 306 351.5 Q 308.5 350 305 348.5 Q 304.4 342.9 308 341.5 L 307 336.5 L 304.5 334 Q 298.2 336.2 300 330.5 L 299 325.5 L 300 323 L 303 321.5 Q 304.5 314.5 300.5 313 L 298 311.5 L 299 302 L 303 299.5 L 304 293.5 Q 299.3 291.8 301 283.5 L 303.5 280 L 308 277.5 L 309 272.5 L 306 268.5 L 310 261 Q 316.4 262.3 318 257.5 L 319 254.5 L 317 250.5 L 321.5 245 L 325.5 246 Q 330.8 245.3 330 238.5 L 329 237.5 L 335.5 231 L 338 232 L 339 234.5 L 337 238.5 Q 338 245.5 343 248.5 L 343 252.5 L 329 269.5 L 321 286.5 L 321 288.5 L 318 312.5 Q 321.1 352.4 344.5 372 L 369.5 386 Q 381.6 390.4 399.5 389 L 407.5 387 L 409.5 387 Q 428.9 381.4 441 368.5 Q 456.7 352.2 462 325.5 L 462 323.5 L 463 315.5 L 462 308.5 L 463 303.5 Q 457.2 268.8 435.5 250 Q 428.3 243 418 240 Q 419.3 236.7 414.5 238 L 395.5 233 L 387.5 234 L 385.5 233 L 367.5 238 Q 366 235.5 364.5 239 Q 361.1 239.9 363 234.5 L 358.5 227 Q 355.9 227.8 357 224.5 L 360.5 218 L 363.5 217 L 365.5 217 Q 369.9 215.5 369 218.5 L 372.5 220 L 378 217.5 L 380.5 213 Z " /><path fill="rgb(212,61,57)" stroke="rgb(212,61,57)" stroke-width="0.6" opacity="1" d="M 188.5 236 Q 191.1 235.2 190 238.5 L 201 277.5 L 198.5 282 L 190 280 L 193 275.5 L 193 272.5 L 189 260 L 185 257.5 L 186 253.5 L 181 245.5 L 181 241.5 L 188.5 236 Z " /><path fill="rgb(212,61,57)" stroke="rgb(212,61,57)" stroke-width="0.6" opacity="1" d="M 384.5 238 L 395.5 239 L 397.5 239 Q 426.5 242.5 440 261.5 L 442 264.5 Q 451.1 274.4 455 289.5 L 454 291.5 L 457 297.5 L 457 299.5 L 458 318.5 L 457 326.5 L 455 329.5 L 455 331.5 L 449 349.5 L 432 371 L 418.5 379 L 402.5 384 L 399.5 383 L 388.5 385 L 381.5 383 L 379.5 383 Q 355 378.5 342 362.5 L 340 359.5 Q 330.4 349.6 326 334.5 Q 322 322 323 304.5 L 324 302.5 L 324 300.5 Q 327.4 271.9 344.5 257 L 347 257.5 L 348 263.5 L 339 274.5 L 330 297.5 L 330 299.5 L 329 304.5 L 330 315.5 L 329 317.5 Q 333.2 345.3 349.5 361 Q 364.7 378.3 396.5 379 Q 420.4 374.4 434 359.5 Q 443.5 347.5 449 331.5 L 449 329.5 Q 452 319.5 451 305.5 L 449 296.5 L 449 294.5 Q 443.5 273 429.5 260 L 425 258 L 423.5 256 L 416 252 Q 417.3 248.7 412.5 250 L 398.5 245 L 396.5 245 L 393.5 244 L 390.5 245 L 386.5 244 L 382.5 246 L 380.5 245 L 377.5 247 L 375.5 246 L 367.5 250 L 364 247.5 L 365.5 243 L 377.5 239 L 379.5 239 L 384.5 238 Z " /><path fill="rgb(212,61,57)" stroke="rgb(212,61,57)" stroke-width="0.6" opacity="1" d="M 174 248 L 178 249.5 L 180 255.5 L 177 259.5 L 180.5 265 L 186 266.5 L 188 272.5 L 184 275 L 185 280.5 L 183.5 282 L 175.5 283 L 172 282 L 162 257.5 L 164.5 254 L 171.5 249 L 174 250 L 174 248 Z " /><path fill="rgb(212,61,57)" stroke="rgb(212,61,57)" stroke-width="0.6" opacity="1" d="M 84.5 252 L 87 253.5 L 95 272.5 Q 92.5 274 96 275.5 L 99 284.5 L 98 287 L 91.5 289 L 69 271.5 Q 72.1 258.6 82.5 253 L 84.5 252 Z " /><path fill="rgb(212,61,57)" stroke="rgb(212,61,57)" stroke-width="0.6" opacity="1" d="M 370.5 254 L 373 255 L 374 263.5 L 382 289.5 L 379.5 290 L 377 288.5 L 368 260.5 L 368 255 L 370.5 254 Z " /><path fill="rgb(212,61,57)" stroke="rgb(212,61,57)" stroke-width="0.6" opacity="1" d="M 156.5 261 L 161 264.5 L 168 282.5 L 170 297 L 165 298 L 160 276.5 L 153 264.5 L 156.5 261 Z " /><path fill="rgb(212,61,57)" stroke="rgb(212,61,57)" stroke-width="0.6" opacity="1" d="M 151.5 287 L 154.5 288 L 156.5 287 Q 159.7 289.3 159 295.5 L 157.5 297 L 144.5 297 L 128.5 295 L 126.5 296 Q 123 294.7 124 290 L 138.5 288 L 141.5 289 L 151.5 287 Z " /><path fill="rgb(212,61,57)" stroke="rgb(212,61,57)" stroke-width="0.6" opacity="1" d="M 117.5 299 L 123.5 301 L 125.5 301 L 140.5 302 L 142.5 302 L 153.5 303 L 160.5 302 L 161.5 303 L 180.5 303 L 185 305.5 L 186 313.5 Q 183.3 316.3 176.5 315 L 168.5 313 L 166.5 313 L 157.5 312 L 155.5 312 L 150.5 311 L 147.5 312 L 119.5 309 L 116 306.5 L 117 302.5 L 116 300.5 L 117.5 299 Z " /><path fill="rgb(212,61,57)" stroke="rgb(212,61,57)" stroke-width="0.6" opacity="1" d="M 437.5 308 L 445 308 L 445 312.5 L 446 315.5 L 445 324.5 L 441 338 L 438.5 339 L 409 320.5 Q 408.3 313.3 412.5 311 Q 427 311.5 437.5 308 Z " /><path fill="rgb(212,61,57)" stroke="rgb(212,61,57)" stroke-width="0.6" opacity="1" d="M 113.5 312 Q 118.1 310.8 116 316 L 111.5 318 L 109 317 L 110.5 315 L 113.5 312 Z " /><path fill="rgb(212,61,57)" stroke="rgb(212,61,57)" stroke-width="0.6" opacity="1" d="M 387.5 334 Q 396.8 331.8 399 336.5 L 412 362.5 Q 409.5 364 413 365.5 L 411.5 369 L 397.5 373 L 385.5 373 L 379.5 372 L 376 369.5 L 385 335 L 387.5 334 Z " /><path fill="rgb(47,51,50)" stroke="rgb(47,51,50)" stroke-width="0.6" opacity="1" d="M 316 103 L 321 104.5 L 321.5 107 L 324 107.5 L 323 110.5 L 324 120.5 L 319.5 126 L 313.5 128 L 313.5 127 L 315 125 L 313 124.5 L 316 120 Q 319.8 121.5 319 118.5 L 318 115 Q 321 116 320 113 Q 317 114.3 318 110.5 L 319 108 Q 315.3 109.5 316 106.5 L 316 104.5 L 316 103 Z " /><path fill="rgb(47,51,50)" stroke="rgb(47,51,50)" stroke-width="0.6" opacity="1" d="M 329.5 112 L 336 113 L 336.5 115 L 337.5 113 L 340 114 Q 339 117 342 116 L 343.5 114 L 357 117 Q 356 120 359 119 L 359.5 117 Q 365 118 364 125.5 Q 362.3 129.5 356 128 L 355.5 126 L 354.5 128 L 352 127 L 351.5 125 L 350.5 127 L 348 126 L 347.5 124 L 346.5 126 L 329 122.5 L 328.5 120 L 327 119.5 L 328 116 Q 331 117.3 330 113.5 L 329.5 112 Z " /><path fill="rgb(47,51,50)" stroke="rgb(47,51,50)" stroke-width="0.6" opacity="1" d="M 156.5 121 L 166 122 L 166.5 124 L 167.5 122 L 170 123 L 170.5 125 L 171.5 123 Q 177.8 126 187 125 L 187.5 127 L 188 125 L 198 126 Q 196.9 129.3 201 128 L 202.5 126 L 207 127 Q 205.9 130.3 210 129 L 210.5 127 Q 217.1 127.4 220 131.5 L 221 133.5 L 219 134.5 L 221 135.5 L 218.5 139 L 207 141 Q 208.2 137.3 203 139 Q 204.4 143 197.5 141 L 195.5 142 L 192.5 141 L 166.5 149 L 165 148.5 L 164.5 150 L 152.5 150 L 141 143.5 Q 138 140.5 139 133.5 L 142.5 128 L 146 127 L 147.5 124 L 156.5 121 Z " /><path fill="rgb(47,51,50)" stroke="rgb(47,51,50)" stroke-width="0.6" opacity="1" d="M 299.5 125 Q 306.8 123.8 308 128.5 L 304.5 126 Q 298.5 127.3 299.5 125 Z " /><path fill="rgb(47,51,50)" stroke="rgb(47,51,50)" stroke-width="0.6" opacity="1" d="M 357.5 192 L 362.5 193 L 369.5 192 L 370.5 195 L 372.5 194 L 375 195 L 376 197.5 L 375 200 L 378 201.5 L 380 207.5 L 371 211 Q 371 204.3 366.5 201 L 359.5 198 L 351.5 200 L 351 197.5 L 353.5 194 L 354.5 196 L 355 193 L 357.5 192 Z " /><path fill="rgb(47,51,50)" stroke="rgb(47,51,50)" stroke-width="0.6" opacity="1" d="M 357 203 L 362 203 L 363.5 205 L 366 205.5 L 367 210.5 L 356.5 216 L 353.5 215 L 352 215.5 L 350 207.5 L 357 205 L 357 203 Z " /><path fill="rgb(47,51,50)" stroke="rgb(47,51,50)" stroke-width="0.6" opacity="1" d="M 98.5 207 L 100 207.5 L 100 209.5 L 102 214 L 109 212.5 L 109 210.5 L 109.5 209 L 111.5 209 L 116.5 209 L 118.5 207 L 122 214 L 126 214 Q 125 217 128 216 L 129.5 212 L 134 211 L 135.5 214 L 138.5 213 L 142 219.5 L 141 222 Q 146.8 223.5 148.5 220 L 149 222 L 151 220.5 L 152.5 221 L 158 224.5 L 157 227.5 L 159 227.5 L 157 230.5 L 161 233.5 L 156.5 240 L 151.5 244 L 149 243 L 148.5 245 L 141 238.5 L 139.5 236 L 137.5 237 Q 130.2 231 119 230 L 118.5 228 L 118 230 L 114 229 L 113.5 227 L 104 227 Q 105.3 230 101.5 229 L 100 229.5 Q 100.7 226.5 97 228 L 95.5 230 L 86.5 233 L 84.5 232 L 81 234.5 L 81.5 236 L 70 241.5 L 71 242.5 L 65.5 248 L 64 249.5 L 61 251 L 56.5 259 L 54 260.5 L 55 262.5 L 51.5 269 L 49 269.5 L 51 270.5 L 46 286 L 44 286.5 L 46 287 Q 43.2 295 44 307.5 L 48 328.5 L 51 334.5 L 49 335.5 L 52 336.5 L 55 343.5 L 54.5 345 L 58 347.5 L 65.5 360 L 82.5 371 L 97 375 L 97.5 377 L 98.5 375 L 102 376 Q 100.9 379.3 105 378 L 105.5 376 L 113 376 Q 111.8 379.7 117 378 L 118.5 376 L 120 375.5 L 120.5 377 L 131.5 372 L 133 372.5 Q 132.2 369.9 135.5 371 L 155 357.5 Q 152.5 356 156 354.5 L 167 338.5 L 167 336 L 169 335.5 L 167 334.5 L 170 326 L 172 325.5 L 171 321.5 L 172.5 319 L 176 320 L 176.5 318 L 180 319 Q 178.9 322.3 183 321 Q 181.7 317.7 186.5 319 L 189 323.5 Q 185.3 324.3 186 329.5 L 187 332.5 L 188.5 334 L 188 335.5 L 185.5 341 L 180 342 L 179 348.5 Q 184 350.5 181 352.5 L 175.5 360 L 171.5 359 Q 168 360 169 365.5 L 170 368.5 L 163.5 375 L 161.5 373 L 156 374 L 157 380.5 L 155 380.5 L 153.5 383 L 146.5 384 L 144.5 383 L 139 386.5 L 142 388.5 L 140.5 391 L 138.5 390 L 138 392 L 133 393 L 132.5 391 L 131.5 393 L 131 391 L 129 390.5 L 130 388 L 127 388 Q 128.5 391.8 125.5 391 L 124 391.5 L 124.5 390 L 122 391.5 L 121 394.5 L 120.5 397 Q 113.8 398.7 112 395.5 L 110.5 392 Q 104.5 390.5 103 393.5 L 104 396.5 L 100.5 397 L 93 395 L 92 388 L 90 389.5 L 85.5 390 L 81.5 392 L 79 391 L 73 380 L 71 381.5 L 67.5 384 L 64 382 L 63 376 Q 59 377.2 61 371 L 56.5 371 L 55 371.5 L 53.5 370 L 50 368.5 L 48 363.5 L 49 360.5 L 45.5 356 L 42.5 357 L 39 351.5 L 40 349.5 L 38 346.5 L 39 342.5 L 33.5 335 L 32 335.5 L 30 329.5 L 32 329 L 31 324.5 L 32 317.5 L 27 314.5 L 28 311.5 L 27 304.5 L 31 301.5 L 31 295 L 28.5 295 L 27 291.5 L 28 289.5 L 27 287.5 L 29.5 282 L 33 279.5 L 34 275.5 L 32.5 272 L 31 272.5 L 33 268.5 L 33 266.5 L 34.5 262 L 37.5 263 L 40 257.5 L 39 255.5 L 40 253.5 L 39 251.5 L 41.5 248 L 44 248 L 45.5 246 L 48 247 L 49 241.5 L 48 237.5 L 52.5 232 L 52.5 234 L 55 233.5 L 54.5 232 L 57.5 233 L 62 231 L 60.5 227 L 59 227.5 L 60.5 224 L 64.5 222 L 68.5 223 L 74 221 L 73 216.5 L 75 216.5 L 76.5 214 L 79.5 213 L 82.5 214 L 82.5 212 L 85.5 217 L 89 215.5 L 89.5 213 L 89.5 215 L 92 213.5 Q 90.1 208.1 93.5 209 L 95 208.5 L 97 210 L 98.5 207 Z " /><path fill="rgb(47,51,50)" stroke="rgb(47,51,50)" stroke-width="0.6" opacity="1" d="M 105.5 243 L 110 245 L 111.5 243 L 118 245 L 118 249 L 116 250.5 L 117 256 L 113 257 Q 111.9 260.3 116 259 L 116 262.5 L 112 264 Q 110.9 267.3 115 266 L 115 269.5 L 113.5 269 Q 109.3 267.9 111 272 L 116 274.5 L 114.5 275 L 112 275.5 L 111.5 278 L 110.5 277 L 106 281.5 L 106.5 283 L 103.5 285 L 101 284 L 102 279 L 100 280.5 L 98 279.5 L 96 270 L 98 269.5 L 95.5 269 L 93 267.5 L 91 261.5 L 93 257 L 89 258 L 87 250.5 L 90.5 249 L 93 247.5 L 92.5 246 L 105.5 243 Z " /><path fill="rgb(47,51,50)" stroke="rgb(47,51,50)" stroke-width="0.6" opacity="1" d="M 390.5 249 Q 393.8 247.9 393 250.5 L 394 250.5 L 395.5 249 L 403 251.5 L 404.5 253 L 407.5 255 L 410.5 254 L 409 256.5 L 407 258.5 L 407 263.5 L 404 271 L 402 271.5 L 403 273.5 L 399.5 282 L 398.5 275 L 396 276.5 L 389 250.5 L 390.5 249 Z " /><path fill="rgb(47,51,50)" stroke="rgb(47,51,50)" stroke-width="0.6" opacity="1" d="M 435.5 251 L 442.5 259 L 435.5 251 Z " /><path fill="rgb(47,51,50)" stroke="rgb(47,51,50)" stroke-width="0.6" opacity="1" d="M 338.5 292 L 344 293 L 344.5 295 L 346.5 294 L 347 296.5 L 347.5 298 L 351.5 296 L 352.5 299 L 355 298.5 L 354.5 297 L 360 299 L 359 302.5 L 362 303.5 L 364 312 L 361 313.5 L 361.5 315 L 363 314.5 Q 363.8 317.1 360.5 316 L 359 316.5 L 359.5 315 Q 355.1 313.5 356 316.5 L 355 316.5 Q 355.8 313.9 352.5 315 L 353.5 318 Q 349.8 319 351 316 L 347.5 316 L 347.5 318 L 345.5 317 L 344.5 319 L 344 317 L 342 318.5 L 340 317.5 L 339.5 316 L 339 318 L 334 318 L 334 303.5 L 335 296 L 338 294.5 L 336.5 294 L 335 294.5 L 338.5 292 Z " /><path fill="rgb(47,51,50)" stroke="rgb(47,51,50)" stroke-width="0.6" opacity="1" d="M 319.5 303 L 320 318.5 L 319 318.5 L 319.5 303 Z " /><path fill="rgb(47,51,50)" stroke="rgb(47,51,50)" stroke-width="0.6" opacity="1" d="M 458.5 306 L 459 317.5 L 458 317.5 L 458.5 306 Z " /><path fill="rgb(47,51,50)" stroke="rgb(47,51,50)" stroke-width="0.6" opacity="1" d="M 127.5 313 L 132 314 Q 130.9 317.3 135 316 L 135.5 314 Q 144.8 317 157 316 L 157.5 319 L 159 318.5 L 155 329 L 152 329 L 150.5 331 L 131.5 325 L 121 316.5 L 127 315 L 127.5 313 Z " /><path fill="rgb(47,51,50)" stroke="rgb(47,51,50)" stroke-width="0.6" opacity="1" d="M 101.5 321 L 103.5 321 Q 110.8 321 114 324 L 112.5 327 L 111 328.5 L 112 333 L 115 331.5 L 113 328.5 L 117 325.5 Q 115.9 322.2 118.5 323 L 129 327 L 129 329.5 L 143 343.5 L 143 345.5 L 137.5 353 L 126.5 359 L 122.5 357 L 122 359 Q 117 363.5 106 362 Q 107 359 104 360 L 103.5 362 L 91 359 L 89 352.5 L 90 350 L 92 349.5 L 91 347.5 L 93.5 343 L 94.5 345 L 97 341.5 L 95 341 Q 95.2 332 99.5 326 L 100.5 329 L 102 325 Q 99 326.3 100 322.5 L 101.5 321 Z " /><path fill="rgb(47,51,50)" stroke="rgb(47,51,50)" stroke-width="0.6" opacity="1" d="M 405.5 324 L 408.5 325 Q 410 322.5 411.5 326 L 415.5 327 L 417.5 327 L 422 329.5 L 421.5 331 L 423.5 330 L 426 331.5 L 424 332.5 L 430 336 L 430.5 338 L 433.5 336 L 433 337.5 L 434.5 339 L 439 339.5 L 439 341.5 L 439 344.5 L 434.5 351 L 433 350.5 L 431.5 355 L 430.5 354 L 424 360.5 L 423.5 363 L 418.5 366 L 415 361 L 413 362.5 L 412 362.5 L 402 342.5 L 403 339.5 L 402 339.5 L 401.5 341 L 400 337 L 402 336.5 L 399 335.5 L 399.5 334 L 397 332.5 L 401 331 L 405.5 324 Z " /><path fill="rgb(47,51,50)" stroke="rgb(47,51,50)" stroke-width="0.6" opacity="1" d="M 136.5 328 L 141.5 331 L 143.5 331 Q 150 331 153 334.5 L 146.5 343 L 146.5 341 L 144.5 341 L 136 332.5 Q 139.8 330.3 136.5 328 Z " /><path fill="rgb(47,51,50)" stroke="rgb(47,51,50)" stroke-width="0.6" opacity="1" d="M 383.5 334 L 386 334.5 L 381.5 345 L 380 344.5 L 383.5 334 Z " /><path fill="rgb(47,51,50)" stroke="rgb(47,51,50)" stroke-width="0.6" opacity="1" d="M 230.5 346 L 235 348 Q 233.6 344 240.5 346 L 240.5 348 Q 243.5 347.5 242 354.5 L 240.5 356 L 226.5 358 L 222 357 L 223 351.5 L 222.5 350 L 225 348.5 L 224.5 347 L 230.5 346 Z " /><path fill="rgb(9,9,9)" stroke="rgb(9,9,9)" stroke-width="0.6" opacity="1" d="M 312.5 100 L 319.5 100 L 325 103.5 L 328.5 109 L 338.5 110 L 340.5 112 L 349.5 112 L 351.5 114 L 357.5 114 Q 359 109.5 366.5 111 L 371.5 112 L 378.5 118 L 385.5 118 L 391 122.5 Q 392.5 131.9 389 135 L 382.5 137 Q 380.3 132.7 371.5 135 L 369.5 137 Q 363.5 135.5 362 138.5 L 365 145.5 L 365 152.5 L 355 168.5 L 364.5 189 L 366 191 Q 355.1 190 351 196.5 L 350 198.5 L 351.5 200 L 363.5 200 L 369 204.5 Q 368.2 212.8 373.5 215 L 376.5 210 L 380 208.5 Q 379.4 197.6 372.5 193 L 368 190.5 L 372.5 190 L 379 195.5 L 384 210 L 391.5 209 L 394.5 213 L 398 211.5 L 398.5 210 L 411.5 210 L 416 212.5 L 417.5 217 L 424.5 214 L 437 219 Q 435.5 224.4 438.5 226 L 446.5 226 L 455 232.5 L 454 237.5 Q 455.9 241.8 463 240 L 469 248.5 L 469 251.5 L 467 254.5 L 475 258.5 L 479 265.5 L 479 272.5 L 477 275.5 Q 478.3 279 483 278 Q 481.8 283.1 485 284.5 L 485 294.5 L 482 298.5 L 487 301.5 L 488 316.5 L 485.5 320 L 481 321 L 482.5 323 L 485 325.5 L 485 336.5 L 481.5 343 L 477 345.5 Q 480.4 348.1 479 355.5 L 477 360 Q 473.7 358.7 475 363.5 L 467 366.5 L 469 372.5 L 460.5 383 Q 454.5 381.5 453 384.5 Q 454.3 392.8 448.5 394 L 443.5 397 L 439.5 397 L 436.5 396 Q 433.5 397.6 435 403 L 425.5 407 L 420.5 407 L 416.5 405 L 412.5 411 L 405.5 412 L 398.5 411 L 396 408.5 L 395.5 407 L 390.5 413 L 380.5 411 L 378.5 412 L 374.5 407 L 368.5 410 L 362.5 407 L 358.5 407 L 356 404.5 L 354.5 401 L 349.5 403 L 339 396.5 L 337.5 391 L 330.5 391 L 324 384.5 L 323 382.5 L 324 378.5 L 321.5 377 L 318.5 378 L 316 377 L 310 367.5 L 310 364.5 L 312 361.5 L 305 358.5 L 300 344.5 L 302 340.5 L 298 337.5 L 295 328.5 L 296 325.5 L 295 322.5 L 298 317.5 L 294 314.5 L 294 300.5 L 296.5 298 L 298.5 297 L 300 297.5 Q 301.1 294.2 298.5 295 Q 294.8 293.8 296 287.5 Q 298.8 284.8 298 278.5 L 300.5 276 L 304 274.5 L 302 268.5 L 309.5 256 L 312.5 257 L 314 253.5 L 313 249.5 L 320.5 240 Q 326.6 241.3 326 238.5 L 325 235.5 Q 329.5 229 338 226.5 L 336 217.5 L 334 215.5 L 334 209.5 L 332 207.5 L 332 198.5 L 334 193 L 327 198.5 L 251.5 293 L 250 294.5 L 243 303.5 Q 244.3 315.3 241 322.5 L 230.5 335 Q 227.8 334.4 229 340.5 Q 229.8 344.8 235.5 344 L 241.5 343 Q 247.3 345.3 245 355.5 L 241.5 359 L 235.5 360 L 232.5 359 L 230.5 361 L 218.5 362 L 217.5 361 L 203.5 361 L 197 356.5 L 198 350.5 L 197 348.5 L 198 346 L 201.5 344 L 213.5 343 L 215 341.5 Q 213.3 337.3 205.5 339 L 196 332.5 L 194 329.5 L 189 327 Q 192.1 330.6 191 339.5 L 187.5 345 L 183 346.5 L 185 352.5 L 177.5 363 L 173 364.5 L 174 368.5 L 166.5 377 Q 161.3 375.8 160 378.5 L 158.5 384 L 148.5 389 L 145.5 387 L 142.5 393 L 132.5 397 L 127.5 394 L 124.5 399 L 120.5 400 L 115.5 399 L 112.5 400 L 110 399 L 108.5 395 L 107 399 L 99.5 400 L 93.5 399 L 91 396.5 L 88.5 393 L 83.5 396 L 73 389.5 L 71.5 386 L 66.5 387 L 58 380.5 L 56.5 375 Q 51.3 376.3 50 373.5 L 45 367.5 L 45 363.5 L 46 361.5 L 39 358.5 Q 34.5 354 34 345.5 L 35 341.5 L 29 337.5 Q 26.1 332.9 27 324.5 L 29 320.5 L 25 317.5 L 24 302.5 L 27 298.5 Q 23.1 296.9 24 290.5 L 25 282.5 L 27.5 279 L 30 277.5 L 28 270.5 L 32.5 260 L 36 258.5 L 35 252.5 L 40.5 244 Q 44.9 245.5 44 242.5 Q 44.4 233.4 50.5 230 L 57 227.5 L 56 224.5 L 63.5 218 Q 69.5 219.5 71 216.5 L 73.5 212 L 83.5 209 L 88 211 L 89.5 206 L 96.5 206 L 101.5 204 L 104 208 Q 108.1 209.7 107 205.5 L 108.5 204 L 119.5 204 L 124 206 L 125.5 210 Q 128.2 207.2 134.5 208 L 145 213.5 L 146.5 218 L 151.5 216 L 162 224.5 Q 159.2 233.2 168.5 230 L 185 217.5 L 184 211.5 Q 177.5 208 177 198.5 Q 180.9 196.9 180 190.5 L 173 163.5 L 170.5 160 L 167.5 161 L 160 157.5 L 156.5 153 L 145.5 151 L 138 144.5 Q 135.1 140.9 136 133.5 L 139.5 127 L 141 125.5 L 148.5 120 L 161.5 118 L 166.5 120 L 168.5 119 L 175.5 122 L 189.5 122 L 199.5 124 L 201.5 123 L 219.5 126 L 223 129.5 L 223 139.5 L 221.5 141 L 209.5 144 L 204.5 143 L 195.5 153 L 190 156.5 L 193 172.5 L 196 177.5 L 197 188 L 203 191.5 L 205 195.5 L 205 201.5 L 204 204 L 213.5 202 L 270.5 175 L 322 154 L 323 150.5 L 322 145.5 Q 324.8 143.8 324 138.5 L 321 130 L 318.5 129 Q 317.5 132 312.5 131 L 304.5 125 L 282 125 Q 283.4 121.3 277.5 123 Q 273 120 273 112.5 Q 273.9 105.9 278.5 103 L 289.5 101 L 290.5 102 L 309.5 102 L 312.5 100 Z M 314 103 L 318 112 L 317 120 L 311 126 L 311 128 Q 317 129 320 126 L 326 116 L 324 108 Q 322 102 314 103 Z M 292 104 L 290 106 L 292 110 Q 293 118 289 121 L 291 122 L 302 123 L 312 122 L 316 116 L 315 110 L 309 105 L 292 104 Z M 281 105 L 276 111 Q 275 120 282 122 Q 288 121 290 117 L 289 108 Q 287 104 281 105 Z M 331 111 L 327 115 L 326 122 L 332 124 Q 339 123 338 126 L 330 125 L 324 129 L 325 138 L 328 140 L 338 138 L 340 136 L 338 131 L 342 125 L 361 129 Q 365 128 364 121 L 361 117 Q 355 118 354 115 L 346 115 L 344 113 Q 335 114 331 111 Z M 368 113 L 363 114 L 367 122 Q 367 129 363 131 Q 359 130 360 133 Q 361 136 368 134 L 374 126 Q 374 116 368 113 Z M 377 119 Q 373 121 375 130 L 374 131 L 378 134 L 382 133 L 385 134 L 390 128 L 390 125 L 388 124 L 381 119 L 377 119 Z M 153 121 L 146 125 L 139 133 L 140 143 L 151 150 L 169 150 L 171 148 Q 181 148 187 143 L 189 144 L 201 141 L 204 142 L 218 140 L 222 134 L 215 127 Q 205 128 200 125 L 182 125 Q 178 121 170 123 L 167 121 L 153 121 Z M 344 129 L 342 131 L 342 135 L 349 143 L 349 148 L 353 162 L 356 163 L 362 154 L 362 144 L 353 131 L 353 129 L 344 129 Z M 339 139 Q 330 140 325 146 L 327 151 L 341 146 L 345 146 L 346 143 Q 345 138 339 139 Z M 197 144 L 182 147 L 174 151 L 168 151 L 162 155 L 167 158 L 171 158 L 182 153 L 192 152 L 199 146 L 197 144 Z M 343 148 L 337 149 L 245 191 L 242 191 L 236 195 L 202 208 L 200 203 Q 191 204 186 209 L 188 219 L 136 261 L 134 263 L 122 273 L 120 275 L 108 286 L 101 289 Q 94 292 93 301 L 95 311 L 108 319 Q 117 320 119 314 L 117 310 L 174 316 L 187 316 L 187 305 L 177 301 L 174 302 L 170 301 L 168 302 L 146 301 L 139 299 L 133 300 L 119 299 L 121 295 L 118 290 L 119 289 Q 153 257 191 230 L 193 233 L 193 238 L 196 243 L 197 252 L 203 269 L 203 273 L 207 279 L 220 278 L 221 277 L 219 273 L 220 271 L 214 254 L 214 248 L 210 239 L 210 232 Q 207 229 207 224 L 259 200 L 262 200 L 268 196 L 281 192 L 287 188 L 317 176 L 312 185 L 308 187 L 289 214 L 287 215 L 268 241 L 264 243 L 261 250 L 259 251 L 234 284 L 243 299 L 266 270 L 271 266 L 274 260 L 278 257 L 282 250 L 336 183 L 339 185 L 349 180 L 354 180 L 356 178 L 347 150 L 343 148 Z M 183 155 L 175 159 L 175 165 L 185 193 Q 193 193 196 188 L 191 175 L 192 173 Q 188 166 187 157 L 183 155 Z M 353 181 L 341 186 L 335 197 L 335 211 L 337 213 Q 338 224 344 232 L 354 228 L 352 226 Q 351 215 347 209 L 348 207 L 347 204 Q 346 196 350 194 L 359 190 L 360 185 Q 358 181 353 181 Z M 306 183 L 220 221 L 217 221 L 210 226 L 224 279 L 229 282 L 232 282 L 302 192 L 305 190 L 308 185 L 306 183 Z M 196 192 L 183 196 L 180 199 L 183 206 L 202 200 L 201 194 L 196 192 Z M 352 203 L 349 204 L 351 210 L 351 215 L 353 217 Q 352 220 355 219 L 356 217 Q 358 213 365 214 L 368 211 L 366 206 L 364 203 L 352 203 Z M 95 207 L 92 209 L 88 215 L 82 211 L 77 213 L 73 217 L 72 222 L 67 220 L 59 226 L 60 231 L 57 233 L 54 231 L 51 233 L 48 238 L 49 242 L 47 246 L 44 245 L 38 253 L 40 258 L 37 263 L 35 262 L 32 265 L 31 270 Q 30 275 33 276 L 32 280 L 30 281 Q 26 285 27 294 L 30 295 Q 32 296 31 302 L 29 303 L 27 305 L 26 315 L 30 316 L 32 320 Q 33 325 30 326 L 32 337 Q 31 339 36 338 L 39 343 L 37 347 L 40 355 Q 42 358 47 357 L 49 361 L 48 364 Q 49 370 54 372 L 58 371 Q 62 372 61 379 L 67 384 L 72 382 L 75 383 L 76 389 L 84 393 L 92 390 L 93 396 L 104 398 L 107 393 L 112 394 L 114 398 L 122 397 L 124 393 L 128 390 L 133 394 L 140 392 L 142 388 Q 139 386 144 384 L 149 386 L 157 381 L 156 378 L 157 374 L 160 373 L 165 375 L 170 369 L 169 366 Q 168 360 172 359 L 177 360 L 182 352 L 179 348 L 182 342 L 185 343 L 190 334 L 186 329 L 188 325 Q 191 326 189 322 L 187 319 L 174 318 L 171 321 Q 170 334 164 343 L 154 357 Q 147 366 136 370 L 134 370 L 148 360 Q 165 346 170 320 Q 169 316 163 317 L 159 325 L 159 329 L 150 345 L 142 350 L 141 354 Q 132 361 119 365 L 101 365 L 93 361 L 89 361 L 81 356 L 65 339 L 59 326 L 56 311 L 56 296 L 59 281 L 63 271 L 71 259 L 87 246 L 96 242 Q 103 243 106 240 L 123 242 L 143 252 L 147 247 Q 137 236 122 232 Q 115 234 116 230 Q 137 232 149 245 L 154 243 L 163 235 L 158 231 L 159 226 L 151 219 L 147 222 L 141 219 L 142 216 Q 138 211 131 210 L 128 214 L 122 213 L 121 209 L 121 207 L 111 207 L 109 210 Q 107 214 106 211 Q 101 213 102 209 Q 101 206 95 207 Z M 384 211 L 380 212 L 377 217 L 373 218 L 372 219 L 368 215 L 360 217 L 355 227 L 359 229 L 361 232 Q 359 239 363 241 L 376 236 Q 381 234 380 238 Q 368 238 362 245 Q 362 250 366 252 L 376 248 Q 383 249 387 246 L 395 246 L 412 250 L 430 262 L 441 277 L 449 300 L 449 325 Q 446 326 447 333 L 440 349 L 433 359 L 421 369 L 411 374 L 401 375 L 398 377 L 386 377 L 383 375 L 373 374 Q 361 370 354 363 L 338 344 L 331 321 L 332 318 L 331 315 L 332 296 L 334 288 L 339 277 L 350 264 Q 347 263 348 258 Q 346 253 345 256 L 343 258 L 340 260 L 338 260 L 339 258 L 346 252 L 338 239 L 340 235 L 337 230 L 328 237 L 329 239 Q 330 243 327 244 L 324 243 L 320 244 L 315 251 L 317 255 L 315 260 L 311 259 L 305 268 L 307 272 Q 308 277 306 279 L 303 278 L 299 285 Q 298 292 302 294 L 301 296 Q 303 301 299 300 L 297 302 L 296 313 L 300 314 Q 302 315 301 321 L 297 323 L 299 332 Q 297 338 304 336 L 306 340 Q 307 345 303 346 L 303 349 L 309 357 L 312 356 L 315 361 L 313 365 Q 314 372 320 375 L 325 374 L 327 378 L 326 383 L 334 389 L 337 387 L 341 388 Q 343 389 342 395 L 350 400 L 354 397 L 358 398 L 359 403 L 364 406 L 370 406 L 376 403 L 378 408 L 381 410 L 391 410 L 394 405 L 399 406 L 400 410 L 412 408 L 415 402 Q 420 401 422 405 L 434 400 L 433 397 L 432 396 L 436 392 L 441 394 Q 446 395 448 391 L 452 387 L 450 385 L 454 379 L 459 380 L 466 372 L 463 368 L 465 364 Q 465 361 472 362 L 478 352 L 474 349 L 473 347 L 474 343 L 480 341 L 482 339 L 484 327 L 479 326 L 480 318 L 484 317 L 485 316 L 485 305 L 481 302 L 478 296 L 484 292 L 482 288 Q 484 280 480 281 L 480 279 L 476 280 Q 472 278 473 272 L 476 271 L 476 266 L 474 261 L 464 258 Q 463 253 466 252 L 460 241 L 456 243 L 450 240 L 452 235 L 444 227 L 439 230 L 434 227 L 435 223 L 426 217 L 421 220 Q 414 221 413 218 L 414 216 L 412 213 L 407 213 L 401 211 L 398 217 L 393 216 L 391 213 Q 390 210 384 211 Z M 352 231 L 341 238 L 343 243 L 358 239 L 360 237 L 358 233 Q 357 230 352 231 Z M 188 235 L 186 237 L 184 239 L 179 243 L 185 255 L 183 260 L 187 261 Q 192 265 192 275 Q 191 280 185 279 L 189 274 L 186 265 Q 187 262 181 263 L 178 259 L 182 256 L 180 251 L 176 246 L 174 248 Q 168 246 169 250 L 160 257 Q 172 273 174 299 L 175 300 L 187 300 L 192 292 L 189 283 L 192 281 L 194 282 L 196 286 L 196 284 L 203 280 L 196 258 L 196 252 L 193 247 L 192 237 L 188 235 Z M 355 241 L 347 246 L 347 251 L 361 290 L 367 313 L 374 321 L 378 320 L 381 316 L 380 308 L 374 293 L 374 288 L 370 281 L 370 275 L 366 268 L 366 263 L 364 261 L 364 257 L 362 255 L 359 243 L 355 241 Z M 100 243 L 92 247 Q 88 246 89 249 Q 87 253 86 250 L 80 254 L 73 262 L 70 263 L 67 269 L 67 273 L 63 277 L 59 292 L 60 300 L 59 303 L 59 315 L 63 330 L 67 332 L 67 337 L 71 343 L 82 353 Q 89 355 93 360 L 98 362 L 109 363 L 119 362 Q 121 357 123 360 Q 134 358 141 351 L 145 346 Q 144 342 148 343 L 153 335 L 149 332 L 148 330 L 154 331 Q 159 327 159 318 L 155 315 L 151 316 L 138 315 L 134 313 L 123 313 L 121 315 Q 122 318 120 317 L 117 321 L 123 323 L 125 322 L 129 325 L 137 327 Q 140 326 139 329 L 134 327 Q 130 329 135 332 L 135 333 Q 130 323 116 323 L 114 323 Q 111 320 105 321 L 103 321 L 95 314 L 92 314 L 93 312 L 90 303 L 93 291 L 106 284 L 112 278 Q 111 274 114 275 L 115 276 L 119 272 L 120 270 L 133 260 L 136 258 L 138 254 L 125 245 L 121 245 L 119 245 Q 112 241 100 243 Z M 380 249 L 375 253 L 385 289 L 388 290 Q 394 292 396 289 L 386 252 Q 385 248 380 249 Z M 390 249 L 388 251 L 396 280 L 399 281 L 398 285 L 399 289 L 397 290 L 397 291 Q 401 289 400 294 L 406 298 L 407 307 L 410 310 L 407 321 L 410 324 L 407 323 L 399 332 L 391 334 L 387 333 L 385 334 L 375 327 Q 372 328 373 325 L 371 323 L 366 318 L 364 316 L 365 313 Q 364 305 360 302 L 361 299 L 356 287 L 354 276 L 350 268 Q 341 276 337 288 L 337 293 L 333 302 L 333 317 L 338 318 Q 339 321 335 320 L 335 329 Q 338 330 337 335 L 346 349 L 348 349 L 358 339 L 359 340 L 348 349 L 347 352 L 350 356 Q 358 365 372 370 L 374 370 L 381 374 L 403 374 L 411 370 Q 415 371 414 369 L 421 366 L 434 353 L 436 351 L 440 344 L 439 342 L 444 335 L 446 329 L 446 320 L 448 316 Q 450 307 446 308 L 446 296 Q 443 294 444 289 L 436 275 L 432 278 L 430 278 L 434 275 L 435 273 L 430 267 Q 424 259 414 255 Q 412 251 411 254 Q 407 255 408 253 Q 402 247 390 249 Z M 372 252 L 366 256 L 375 289 L 379 293 L 383 290 L 378 273 L 378 268 Q 374 263 374 255 L 372 252 Z M 158 259 L 152 264 Q 161 277 163 298 L 170 300 L 171 298 Q 170 273 158 259 Z M 148 267 L 128 285 Q 127 287 131 286 L 131 288 Q 124 286 122 290 L 123 295 L 126 297 L 134 298 L 159 298 L 160 297 L 159 288 L 156 286 L 157 284 L 157 280 L 151 269 Q 152 266 148 267 Z M 209 281 L 200 286 Q 191 292 189 305 L 189 315 L 196 330 L 212 338 L 213 336 L 210 325 L 206 321 L 201 315 Q 199 305 203 301 L 213 294 L 222 298 L 224 299 L 227 305 Q 229 316 223 320 Q 223 329 229 333 Q 237 328 240 318 Q 243 298 234 290 L 222 281 L 209 281 Z M 384 293 L 379 297 L 381 301 L 384 300 L 391 302 L 395 309 L 395 316 L 393 320 L 388 323 L 382 322 L 377 324 L 378 327 Q 383 332 396 330 L 406 318 Q 408 306 404 302 L 394 293 L 384 293 Z M 211 297 L 203 307 L 203 313 L 207 318 L 207 316 L 208 310 Q 210 306 217 307 L 221 314 L 223 315 L 225 312 L 225 307 L 222 299 L 218 297 L 211 297 Z M 383 303 L 381 305 L 383 310 L 383 318 Q 380 319 385 321 L 389 320 Q 393 318 393 313 L 391 306 Q 389 302 383 303 Z M 213 309 L 209 313 L 217 341 L 220 344 Q 227 346 228 342 L 223 331 L 218 312 Q 217 308 213 309 Z M 233 345 L 229 347 L 203 347 Q 198 348 199 355 L 203 358 L 217 358 L 218 359 L 235 358 L 241 356 L 243 353 L 242 348 L 241 346 L 233 345 Z " /><path fill="rgb(9,9,9)" stroke="rgb(9,9,9)" stroke-width="0.6" opacity="1" d="M 103 229 L 113.5 229 L 114 231 L 103.5 231 L 103 229 Z " /><path fill="rgb(9,9,9)" stroke="rgb(9,9,9)" stroke-width="0.6" opacity="1" d="M 92.5 231 Q 96.3 230 95 233 Q 76.7 236.9 66 249 L 72.5 241 L 92.5 231 Z " /><path fill="rgb(9,9,9)" stroke="rgb(9,9,9)" stroke-width="0.6" opacity="1" d="M 382 235 Q 399.8 233.5 412.5 238 L 428.5 246 L 434 251.5 L 433.5 253 L 419.5 243 L 409.5 239 Q 397.8 235.5 382 237 L 382 235 Z " /><path fill="rgb(9,9,9)" stroke="rgb(9,9,9)" stroke-width="0.6" opacity="1" d="M 63.5 250 L 65 251.5 Q 53.1 261.9 50 280 L 48 278.5 Q 52.8 261.3 63.5 250 Z " /><path fill="rgb(9,9,9)" stroke="rgb(9,9,9)" stroke-width="0.6" opacity="1" d="M 441.5 260 L 447 264.5 L 458 287.5 L 461 302.5 L 461 320.5 Q 458.3 346.3 444.5 361 L 443 360.5 Q 451.6 350.6 456 336.5 L 459 320.5 L 459 303.5 Q 457.5 288.5 452 277.5 L 441.5 260 Z " /><path fill="rgb(9,9,9)" stroke="rgb(9,9,9)" stroke-width="0.6" opacity="1" d="M 335 262 L 338 262.5 Q 329.4 272.4 325 286.5 Q 319.9 300.4 322 321.5 Q 327.5 355.5 350.5 372 Q 360.4 380.1 374.5 384 Q 384.1 386.9 397.5 386 L 414.5 382 L 433 372 L 439.5 364 L 442.5 363 L 442 364.5 L 435.5 372 Q 432.2 370.9 433 373.5 Q 417.5 388.5 386.5 388 L 362.5 382 Q 347.9 375.1 338 363.5 L 329 350.5 L 322 332.5 Q 318.3 318.7 320 299.5 Q 324.2 277 335 262 Z " /><path fill="rgb(9,9,9)" stroke="rgb(9,9,9)" stroke-width="0.6" opacity="1" d="M 47 282 Q 50 280.8 49 284.5 Q 45.8 290.5 47 300 L 45 299.5 L 45 291.5 L 47 282 Z " /><path fill="rgb(9,9,9)" stroke="rgb(9,9,9)" stroke-width="0.6" opacity="1" d="M 110.5 294 L 114 296.5 L 115 301 Q 112 302.3 113 298.5 L 110.5 294 Z " /><path fill="rgb(9,9,9)" stroke="rgb(9,9,9)" stroke-width="0.6" opacity="1" d="M 45 304 L 47 304.5 L 47 314.5 Q 52.7 346.8 74.5 363 Q 84 370.9 98 373 Q 99.3 376 95.5 375 Q 78.3 369.9 67 360 Q 56.5 349.1 50 333.5 L 45 314.5 L 45 304 Z " /><path fill="rgb(9,9,9)" stroke="rgb(9,9,9)" stroke-width="0.6" opacity="1" d="M 113 305 L 115 306.5 L 113 312 L 109.5 313 L 112 309.5 L 113 305 Z " /><path fill="rgb(9,9,9)" stroke="rgb(9,9,9)" stroke-width="0.6" opacity="1" d="M 369.5 328 L 371 328.5 L 361.5 337 L 369.5 328 Z " /><path fill="rgb(9,9,9)" stroke="rgb(9,9,9)" stroke-width="0.6" opacity="1" d="M 130.5 370 L 133 370.5 Q 128.5 375.3 120 375 Q 118.7 371.7 123.5 373 L 130.5 370 Z " /><path fill="rgb(55,123,180)" stroke="rgb(55,123,180)" stroke-width="0.6" opacity="1" d="M 282.5 105 L 289 109.5 Q 290.8 119.3 284.5 121 L 278 117.5 L 277 111.5 L 282.5 105 Z " /><path fill="rgb(55,123,180)" stroke="rgb(55,123,180)" stroke-width="0.6" opacity="1" d="M 377 121 L 385.5 122 L 387 123.5 L 388 129.5 L 382.5 133 L 376 132 L 377 121 Z " /><path fill="rgb(55,123,180)" stroke="rgb(55,123,180)" stroke-width="0.6" opacity="1" d="M 343.5 130 Q 352.2 128.8 355 133.5 Q 362.6 138.9 361 153.5 L 355.5 162 L 350 147.5 L 350 141.5 L 346.5 137 L 343 134.5 L 342 131.5 L 343.5 130 Z " /><path fill="rgb(55,123,180)" stroke="rgb(55,123,180)" stroke-width="0.6" opacity="1" d="M 344.5 149 L 347 151.5 L 354 178 Q 344.1 178.5 338.5 184 L 335.5 182 L 243.5 297 L 235 283.5 L 310 188.5 L 319 176.5 L 319 174 L 214.5 218 L 206 223.5 L 218 272.5 L 220 275.5 L 207.5 278 L 205 275.5 L 195 235.5 L 191.5 229 Q 150.8 256.3 116 289.5 Q 114.9 292.8 117.5 292 Q 123 295 116.5 298 L 115 296.5 L 109.5 291 L 106 291 Q 111.2 295.2 113 303.5 L 108.5 312 L 101.5 315 L 97 311.5 L 94 300.5 L 100.5 290 L 106.5 288 Q 144.5 250.5 189 219.5 L 187 209.5 Q 191.1 203.7 201 205 L 202.5 209 L 208.5 208 L 284.5 173 L 326.5 156 L 334.5 151 L 344.5 149 Z " /><path fill="rgb(55,123,180)" stroke="rgb(55,123,180)" stroke-width="0.6" opacity="1" d="M 181.5 156 L 186 157.5 L 194 187.5 L 193 190 L 185.5 192 L 183 189.5 L 176 158 L 181.5 156 Z " /><path fill="rgb(55,123,180)" stroke="rgb(55,123,180)" stroke-width="0.6" opacity="1" d="M 353.5 182 L 358 183.5 L 359 187.5 L 352.5 190 L 349 193.5 Q 344.7 197.7 346 207.5 L 352 226.5 L 344.5 231 L 337 211.5 L 336 197.5 Q 337.2 189.7 342.5 186 L 353.5 182 Z " /><path fill="rgb(55,123,180)" stroke="rgb(55,123,180)" stroke-width="0.6" opacity="1" d="M 101.5 232 Q 131.2 230.8 145 245.5 L 146 247.5 L 140.5 251 Q 129.2 239.8 107.5 239 Q 81.2 242.2 69 259.5 Q 53.6 277.1 55 311.5 Q 59.2 339.3 76.5 354 Q 84.4 361.6 96.5 365 L 117.5 366 Q 137 361.5 148 348.5 Q 159.2 337.3 162 319 L 167.5 318 L 169 320.5 Q 162.6 347.6 143.5 362 Q 130.3 373.3 106.5 374 Q 77 370 63 350.5 Q 54.4 339.6 50 324.5 Q 46.3 310.7 48 291.5 Q 52.9 259.9 73.5 244 Q 84.1 234.6 101.5 232 Z " /><path fill="rgb(55,123,180)" stroke="rgb(55,123,180)" stroke-width="0.6" opacity="1" d="M 352.5 232 L 357 233.5 L 358 236.5 L 343 242 Q 341.5 236.6 344.5 235 L 352.5 232 Z " /><path fill="rgb(55,123,180)" stroke="rgb(55,123,180)" stroke-width="0.6" opacity="1" d="M 355.5 242 L 358 243.5 L 380 314.5 L 377.5 319 L 373.5 320 L 370 316.5 L 366 305.5 L 348 245 L 355.5 242 Z " /><path fill="rgb(55,123,180)" stroke="rgb(55,123,180)" stroke-width="0.6" opacity="1" d="M 410 255 Q 425.3 258.6 433 271.5 L 427.5 279 L 404.5 297 L 401 293.5 L 399 284.5 L 410 255 Z " /><path fill="rgb(55,123,180)" stroke="rgb(55,123,180)" stroke-width="0.6" opacity="1" d="M 348.5 270 Q 352.3 268.8 351 272.5 L 359 296.5 L 355.5 298 L 338 289.5 Q 341.3 277.8 348.5 270 Z " /><path fill="rgb(55,123,180)" stroke="rgb(55,123,180)" stroke-width="0.6" opacity="1" d="M 67.5 302 L 88.5 303 L 90 304.5 L 91 312.5 L 67.5 331 L 65 331 L 60 312.5 L 60 303 L 67.5 302 Z " /><path fill="rgb(55,123,180)" stroke="rgb(55,123,180)" stroke-width="0.6" opacity="1" d="M 212.5 310 L 217 312.5 L 226 341.5 Q 224.8 344.3 219.5 343 L 210 312.5 L 212.5 310 Z " /><path fill="rgb(55,123,180)" stroke="rgb(55,123,180)" stroke-width="0.6" opacity="1" d="M 92.5 315 L 100 320.5 L 89 354 L 86.5 355 L 73 343.5 L 68 333.5 L 92.5 315 Z " /><path fill="rgb(55,123,180)" stroke="rgb(55,123,180)" stroke-width="0.6" opacity="1" d="M 202.5 348 L 221 348 L 221 357 L 205.5 357 L 201 354.5 Q 199.8 349.3 202.5 348 Z " /><path fill="rgb(238,185,48)" stroke="rgb(238,185,48)" stroke-width="0.6" opacity="1" d="M 366.5 115 L 371 117.5 L 372 126.5 L 367.5 133 Q 362.1 134.9 363 131.5 Q 369.1 129.6 368 120.5 L 365 116.5 L 366.5 115 Z " /><path fill="rgb(238,185,48)" stroke="rgb(238,185,48)" stroke-width="0.6" opacity="1" d="M 327.5 127 L 337.5 127 L 339 128.5 L 337 132.5 L 338 135.5 L 328.5 139 Q 325 136 325 129.5 L 327.5 127 Z " /><path fill="rgb(238,185,48)" stroke="rgb(238,185,48)" stroke-width="0.6" opacity="1" d="M 301.5 186 L 305 186.5 L 230.5 281 L 225 277.5 L 212 225.5 L 301.5 186 Z " /><path fill="rgb(238,185,48)" stroke="rgb(238,185,48)" stroke-width="0.6" opacity="1" d="M 119 246 Q 129.6 247.1 136 253.5 L 132.5 259 L 116.5 273 L 115 268.5 L 119 246 Z " /><path fill="rgb(238,185,48)" stroke="rgb(238,185,48)" stroke-width="0.6" opacity="1" d="M 379.5 251 Q 386.8 248.4 385 254.5 L 395 287.5 Q 393.8 290.3 388.5 289 L 384 280.5 L 377 253.5 L 379.5 251 Z " /><path fill="rgb(238,185,48)" stroke="rgb(238,185,48)" stroke-width="0.6" opacity="1" d="M 148.5 268 L 151 269.5 L 156 282.5 L 154.5 284 L 140.5 284 L 139.5 285 L 137.5 285 Q 131.5 286.5 130 283.5 L 148.5 268 Z " /><path fill="rgb(238,185,48)" stroke="rgb(238,185,48)" stroke-width="0.6" opacity="1" d="M 66.5 274 L 91 292.5 L 88.5 300 Q 70.7 302.3 60 297.5 Q 60.8 283.3 66.5 274 Z " /><path fill="rgb(238,185,48)" stroke="rgb(238,185,48)" stroke-width="0.6" opacity="1" d="M 435.5 276 Q 443.7 286.3 445 303.5 L 443.5 305 L 410.5 308 Q 407.3 305.7 408 299.5 L 435.5 276 Z " /><path fill="rgb(238,185,48)" stroke="rgb(238,185,48)" stroke-width="0.6" opacity="1" d="M 209.5 282 Q 229.2 280.3 235 292.5 Q 240.9 300.1 239 315.5 Q 236.4 326.4 228.5 332 L 224 320.5 Q 229.8 315.8 228 303.5 L 222.5 296 L 212.5 293 Q 204.6 295.1 201 301.5 L 200 314.5 L 206.5 323 L 209 324.5 L 211 335 Q 200.8 334.4 196 327.5 Q 189 320.5 190 305.5 Q 192 292 201.5 286 L 209.5 282 Z " /><path fill="rgb(238,185,48)" stroke="rgb(238,185,48)" stroke-width="0.6" opacity="1" d="M 174.5 285 L 190 286 L 191 290.5 L 185.5 299 Q 177.6 299.9 174 296.5 L 173 286.5 L 174.5 285 Z " /><path fill="rgb(238,185,48)" stroke="rgb(238,185,48)" stroke-width="0.6" opacity="1" d="M 383.5 294 Q 397.1 291.9 401 299.5 Q 405 304.5 405 313.5 Q 403.7 322.7 397.5 327 L 387.5 330 Q 380.9 329.1 378 324.5 L 380.5 323 L 388.5 324 L 395 318.5 L 396 307.5 L 389.5 300 L 382.5 299 L 380 298.5 L 383.5 294 Z " /><path fill="rgb(238,185,48)" stroke="rgb(238,185,48)" stroke-width="0.6" opacity="1" d="M 212.5 298 Q 220.6 297.9 223 303.5 L 224 310.5 L 221 312.5 L 218.5 307 L 210.5 306 L 205.5 312 L 204 308.5 Q 204.9 301.9 209.5 299 L 212.5 298 Z " /><path fill="rgb(238,185,48)" stroke="rgb(238,185,48)" stroke-width="0.6" opacity="1" d="M 383 304 Q 389.4 302.8 391 307.5 L 392 312.5 L 387.5 319 L 384.5 320 L 384 317.5 L 383 304 Z " /><path fill="rgb(238,185,48)" stroke="rgb(238,185,48)" stroke-width="0.6" opacity="1" d="M 358.5 317 Q 364.5 315.5 366 318.5 L 371 325.5 L 349.5 346 L 345 348 Q 338.3 338 336 322.5 L 338.5 320 L 358.5 317 Z " /><path fill="rgb(238,185,48)" stroke="rgb(238,185,48)" stroke-width="0.6" opacity="1" d="M 373.5 328 L 383 334.5 L 372.5 369 Q 356.8 364.7 349 352.5 L 349 350.5 L 358.5 341 L 373.5 328 Z " /><path fill="rgb(25,27,27)" stroke="rgb(25,27,27)" stroke-width="0.6" opacity="1" d="M 323.5 109 L 326 115.5 L 324.5 119 L 323.5 109 Z " /><path fill="rgb(25,27,27)" stroke="rgb(25,27,27)" stroke-width="0.6" opacity="1" d="M 376.5 119 L 381 119.5 L 376 121.5 L 375.5 127 L 375 120.5 L 376.5 119 Z " /><path fill="rgb(25,27,27)" stroke="rgb(25,27,27)" stroke-width="0.6" opacity="1" d="M 196.5 144 L 199 145.5 L 194 149.5 L 197 145.5 L 196.5 144 Z " /><path fill="rgb(25,27,27)" stroke="rgb(25,27,27)" stroke-width="0.6" opacity="1" d="M 366 189 L 371 189.5 L 368 190.5 L 368.5 192 L 360 193 L 360 191 L 366 191 L 366 189 Z " /><path fill="rgb(25,27,27)" stroke="rgb(25,27,27)" stroke-width="0.6" opacity="1" d="M 431.5 248 L 444.5 262 L 441.5 260 L 441.5 262 L 435.5 255 L 432 252.5 L 434 252.5 L 431.5 248 Z " /><path fill="rgb(25,27,27)" stroke="rgb(25,27,27)" stroke-width="0.6" opacity="1" d="M 379.5 249 L 384 249.5 Q 377.8 249.3 375.5 253 L 377.5 250 L 379.5 249 Z " /><path fill="rgb(25,27,27)" stroke="rgb(25,27,27)" stroke-width="0.6" opacity="1" d="M 338.5 258 L 338.5 260 L 340.5 259 L 339 261.5 L 337.5 264 L 337.5 262 L 336 261.5 L 338.5 258 Z " /><path fill="rgb(25,27,27)" stroke="rgb(25,27,27)" stroke-width="0.6" opacity="1" d="M 423.5 283 L 425 283.5 L 418.5 288 L 419.5 286 L 423.5 283 Z " /><path fill="rgb(25,27,27)" stroke="rgb(25,27,27)" stroke-width="0.6" opacity="1" d="M 85.5 286 L 93 291.5 L 92.5 295 L 87.5 288 L 85.5 286 Z " /><path fill="rgb(25,27,27)" stroke="rgb(25,27,27)" stroke-width="0.6" opacity="1" d="M 44.5 297 L 45 300 Q 48.7 298.8 47 304 Q 43.7 302.7 45 307.5 L 44 307.5 L 44.5 297 Z " /><path fill="rgb(25,27,27)" stroke="rgb(25,27,27)" stroke-width="0.6" opacity="1" d="M 133.5 297 L 145 297.5 L 133.5 298 L 133.5 297 Z " /><path fill="rgb(25,27,27)" stroke="rgb(25,27,27)" stroke-width="0.6" opacity="1" d="M 334.5 298 L 335 302.5 L 333.5 317 L 333 301.5 L 334.5 298 Z " /><path fill="rgb(25,27,27)" stroke="rgb(25,27,27)" stroke-width="0.6" opacity="1" d="M 478.5 298 L 480.5 302 L 485 304.5 L 484.5 308 L 482.5 303 L 478 300.5 L 478.5 298 Z " /><path fill="rgb(25,27,27)" stroke="rgb(25,27,27)" stroke-width="0.6" opacity="1" d="M 81.5 301 L 89.5 301 L 90 302.5 L 90.5 304 L 82.5 303 L 81.5 301 Z " /><path fill="rgb(25,27,27)" stroke="rgb(25,27,27)" stroke-width="0.6" opacity="1" d="M 404.5 304 L 406 305.5 L 406 317.5 L 404 318.5 L 405 305.5 L 404.5 304 Z " /><path fill="rgb(25,27,27)" stroke="rgb(25,27,27)" stroke-width="0.6" opacity="1" d="M 449.5 305 L 450 318.5 L 449 318.5 L 449.5 305 Z " /><path fill="rgb(25,27,27)" stroke="rgb(25,27,27)" stroke-width="0.6" opacity="1" d="M 119.5 317 L 131 324.5 L 128.5 325 L 124.5 322 L 123 322.5 L 124 321.5 L 120.5 318 L 119.5 317 Z " /><path fill="rgb(25,27,27)" stroke="rgb(25,27,27)" stroke-width="0.6" opacity="1" d="M 480.5 317 L 482 317.5 L 480 318 L 478.5 325 L 478 323.5 L 480.5 317 Z " /><path fill="rgb(25,27,27)" stroke="rgb(25,27,27)" stroke-width="0.6" opacity="1" d="M 107.5 321 L 113.5 323 L 115 322.5 L 112.5 324 L 107.5 321 Z " /><path fill="rgb(25,27,27)" stroke="rgb(25,27,27)" stroke-width="0.6" opacity="1" d="M 409.5 322 L 413 324.5 L 413.5 326 L 415 325.5 L 412.5 326 L 410 324.5 L 409.5 323 L 408 323.5 L 409.5 322 Z " /><path fill="rgb(25,27,27)" stroke="rgb(25,27,27)" stroke-width="0.6" opacity="1" d="M 76 324 L 79 324.5 L 72.5 329 L 74.5 326 L 76 324 Z " /><path fill="rgb(25,27,27)" stroke="rgb(25,27,27)" stroke-width="0.6" opacity="1" d="M 139.5 327 L 148 329.5 L 147.5 332 L 142.5 330 Q 140.8 332.7 139 328.5 L 139.5 327 Z " /><path fill="rgb(25,27,27)" stroke="rgb(25,27,27)" stroke-width="0.6" opacity="1" d="M 421.5 330 L 439.5 340 L 442 338.5 L 438.5 341 L 434.5 339 L 431.5 337 L 421.5 330 Z " /><path fill="rgb(25,27,27)" stroke="rgb(25,27,27)" stroke-width="0.6" opacity="1" d="M 135.5 332 L 145.5 343 L 135 333.5 L 135.5 332 Z " /><path fill="rgb(25,27,27)" stroke="rgb(25,27,27)" stroke-width="0.6" opacity="1" d="M 362.5 334 L 362 337.5 L 359.5 340 L 358 338.5 L 362.5 334 Z " /><path fill="rgb(25,27,27)" stroke="rgb(25,27,27)" stroke-width="0.6" opacity="1" d="M 484.5 337 L 484 338.5 Q 484.8 343.3 481.5 344 L 479 343.5 L 483 341.5 L 484.5 337 Z " /><path fill="rgb(25,27,27)" stroke="rgb(25,27,27)" stroke-width="0.6" opacity="1" d="M 229.5 339 L 231.5 342 L 238 342.5 L 232.5 344 Q 227.6 342.6 229.5 339 Z " /><path fill="rgb(25,27,27)" stroke="rgb(25,27,27)" stroke-width="0.6" opacity="1" d="M 142.5 348 L 142.5 350 L 146.5 348 L 142.5 353 L 141 352.5 L 142 350.5 L 140 350.5 L 142.5 348 Z " /><path fill="rgb(25,27,27)" stroke="rgb(25,27,27)" stroke-width="0.6" opacity="1" d="M 199.5 350 Q 199 355.5 202.5 357 L 206 357.5 L 202.5 358 Q 197.4 356.4 199.5 350 Z " /><path fill="rgb(25,27,27)" stroke="rgb(25,27,27)" stroke-width="0.6" opacity="1" d="M 379.5 351 L 380 354.5 L 378 362 L 376 360.5 L 379.5 351 Z " /><path fill="rgb(25,27,27)" stroke="rgb(25,27,27)" stroke-width="0.6" opacity="1" d="M 152.5 354 L 147.5 360 L 152.5 354 Z " /><path fill="rgb(25,27,27)" stroke="rgb(25,27,27)" stroke-width="0.6" opacity="1" d="M 446.5 359 L 443.5 363 L 440.5 364 L 442.5 361 L 446.5 359 Z " /><path fill="rgb(25,27,27)" stroke="rgb(25,27,27)" stroke-width="0.6" opacity="1" d="M 134.5 368 L 134.5 370 L 136.5 369 L 135.5 371 L 132.5 372 L 132.5 369 L 134.5 368 Z " /><path fill="rgb(25,27,27)" stroke="rgb(25,27,27)" stroke-width="0.6" opacity="1" d="M 155.5 381 L 153.5 384 L 148.5 386 L 147.5 384 L 150.5 385 L 155.5 381 Z " /><path fill="rgb(25,27,27)" stroke="rgb(25,27,27)" stroke-width="0.6" opacity="1" d="M 415.5 401 Q 420.9 399.1 420 402.5 L 423 404.5 L 421.5 405 L 415.5 401 Z " /><path fill="rgb(68,77,77)" stroke="rgb(68,77,77)" stroke-width="0.6" opacity="1" d="M 99.5 208 L 102 209.5 L 103.5 212 L 109 212.5 L 102 214 L 99.5 208 Z " /><path fill="rgb(68,77,77)" stroke="rgb(68,77,77)" stroke-width="0.6" opacity="1" d="M 90 212 L 92 213.5 L 85.5 217 L 84.5 215 L 90 213.5 L 90 212 Z " /><path fill="rgb(68,77,77)" stroke="rgb(68,77,77)" stroke-width="0.6" opacity="1" d="M 104 227 L 113.5 227 L 114 229 L 104.5 229 L 104 227 Z " /><path fill="rgb(68,77,77)" stroke="rgb(68,77,77)" stroke-width="0.6" opacity="1" d="M 71.5 245 L 65.5 252 L 71.5 245 Z " /><path fill="rgb(68,77,77)" stroke="rgb(68,77,77)" stroke-width="0.6" opacity="1" d="M 486.5 293 L 483 297.5 L 484 299.5 L 482 298.5 L 486.5 293 Z " /><path fill="rgb(68,77,77)" stroke="rgb(68,77,77)" stroke-width="0.6" opacity="1" d="M 116.5 323 L 117 325.5 L 113 328.5 L 115 331.5 L 112 333 L 111 327 L 116 325 L 116.5 323 Z " /><path fill="rgb(68,77,77)" stroke="rgb(68,77,77)" stroke-width="0.6" opacity="1" d="M 129.5 328 L 145 343.5 L 145 345.5 L 141 348.5 L 143 343.5 L 129 329.5 L 129.5 328 Z " /><path fill="rgb(68,77,77)" stroke="rgb(68,77,77)" stroke-width="0.6" opacity="1" d="M 95.5 335 L 96 337.5 L 95 341 L 97 341.5 L 92.5 344 L 94 341.5 L 95.5 335 Z " /><path fill="rgb(68,77,77)" stroke="rgb(68,77,77)" stroke-width="0.6" opacity="1" d="M 63.5 351 L 72.5 361 L 63.5 351 Z " /><path fill="rgb(111,71,54)" stroke="rgb(111,71,54)" stroke-width="0.6" opacity="1" d="M 159.5 295 L 160 296.5 Q 158.3 299.8 151.5 298 L 151.5 297 Q 159.6 298.8 159.5 295 Z " /><path fill="rgb(111,71,54)" stroke="rgb(111,71,54)" stroke-width="0.6" opacity="1" d="M 322.5 304 L 323 317.5 L 322 317.5 L 322.5 304 Z " /><path fill="rgb(111,71,54)" stroke="rgb(111,71,54)" stroke-width="0.6" opacity="1" d="M 341.5 362 L 346.5 368 L 341.5 362 Z " /><path fill="rgb(111,71,54)" stroke="rgb(111,71,54)" stroke-width="0.6" opacity="1" d="M 339.5 365 L 344.5 371 L 339.5 365 Z " /><path fill="rgb(111,71,54)" stroke="rgb(111,71,54)" stroke-width="0.6" opacity="1" d="M 386.5 388 L 397 388.5 L 386.5 389 L 386.5 388 Z " /><path fill="rgb(111,71,54)" stroke="rgb(111,71,54)" stroke-width="0.6" opacity="1" d="M 377.5 403 L 380.5 408 L 383 408.5 L 380.5 409 L 377.5 403 Z " /><path fill="rgb(165,60,57)" stroke="rgb(165,60,57)" stroke-width="0.6" opacity="1" d="M 298.5 121 L 311 121.5 L 298.5 122 L 298.5 121 Z " /><path fill="rgb(165,60,57)" stroke="rgb(165,60,57)" stroke-width="0.6" opacity="1" d="M 390.5 216 L 398.5 217 L 400 216.5 Q 398.3 219.8 391.5 218 L 390.5 216 Z " /><path fill="rgb(165,60,57)" stroke="rgb(165,60,57)" stroke-width="0.6" opacity="1" d="M 436.5 251 L 441.5 257 L 436.5 251 Z " /><path fill="rgb(165,60,57)" stroke="rgb(165,60,57)" stroke-width="0.6" opacity="1" d="M 432.5 253 L 440.5 262 L 432.5 253 Z " /><path fill="rgb(165,60,57)" stroke="rgb(165,60,57)" stroke-width="0.6" opacity="1" d="M 79.5 255 L 74.5 261 L 79.5 255 Z " /><path fill="rgb(165,60,57)" stroke="rgb(165,60,57)" stroke-width="0.6" opacity="1" d="M 307.5 277 L 305.5 280 L 302 281.5 L 301.5 283 L 301 281.5 L 307.5 277 Z " /><path fill="rgb(165,60,57)" stroke="rgb(165,60,57)" stroke-width="0.6" opacity="1" d="M 181.5 303 L 186 304.5 L 185.5 313 L 185 304 Q 180.6 305 181.5 303 Z " /><path fill="rgb(165,60,57)" stroke="rgb(165,60,57)" stroke-width="0.6" opacity="1" d="M 450.5 305 L 451 318.5 L 450 318.5 L 450.5 305 Z " /><path fill="rgb(165,60,57)" stroke="rgb(165,60,57)" stroke-width="0.6" opacity="1" d="M 300.5 313 Q 304.5 314.5 303 321.5 L 301 322.5 L 302 315.5 L 300.5 313 Z " /><path fill="rgb(165,60,57)" stroke="rgb(165,60,57)" stroke-width="0.6" opacity="1" d="M 435.5 356 L 426.5 366 L 435.5 356 Z " /><path fill="rgb(55,109,132)" stroke="rgb(55,109,132)" stroke-width="0.6" opacity="1" d="M 108.5 294 Q 112.5 295.9 113 301.5 L 112 301.5 L 108.5 294 Z " /><path fill="rgb(55,109,132)" stroke="rgb(55,109,132)" stroke-width="0.6" opacity="1" d="M 47.5 295 L 48 309.5 L 47 309.5 L 47.5 295 Z " /><path fill="rgb(55,109,132)" stroke="rgb(55,109,132)" stroke-width="0.6" opacity="1" d="M 60.5 302 L 67 302.5 L 60 303 L 59.5 306 L 59 303.5 L 60.5 302 Z " /><path fill="rgb(55,109,132)" stroke="rgb(55,109,132)" stroke-width="0.6" opacity="1" d="M 152.5 353 L 146.5 360 L 152.5 353 Z " /><path fill="rgb(208,208,207)" stroke="rgb(208,208,207)" stroke-width="0.6" opacity="1" d="M 415.5 210 L 418 215 L 420.5 214 L 419.5 216 L 417 214.5 L 415.5 210 Z " /><path fill="rgb(208,208,207)" stroke="rgb(208,208,207)" stroke-width="0.6" opacity="1" d="M 190 328 L 192 329.5 L 196.5 335 L 190 329.5 L 190 328 Z " /><path fill="rgb(168,148,50)" stroke="rgb(168,148,50)" stroke-width="0.6" opacity="1" d="M 182.5 285 Q 189.3 283.3 191 286.5 L 190.5 288 L 190 286 L 182.5 286 L 182.5 285 Z " /><path fill="rgb(168,148,50)" stroke="rgb(168,148,50)" stroke-width="0.6" opacity="1" d="M 362.5 333 L 356.5 340 L 362.5 333 Z " /><path fill="rgb(168,148,50)" stroke="rgb(168,148,50)" stroke-width="0.6" opacity="1" d="M 350.5 354 L 355.5 360 L 350.5 354 Z " /><path fill="rgb(204,83,81)" stroke="rgb(204,83,81)" stroke-width="0.6" opacity="1" d="M 385.5 238 L 396 238.5 L 385.5 239 L 385.5 238 Z " /><path fill="rgb(204,83,81)" stroke="rgb(204,83,81)" stroke-width="0.6" opacity="1" d="M 439.5 362 L 432.5 370 L 439.5 362 Z " /><path fill="rgb(204,83,81)" stroke="rgb(204,83,81)" stroke-width="0.6" opacity="1" d="M 339.5 366 L 344.5 372 L 339.5 366 Z " /><path fill="rgb(204,83,81)" stroke="rgb(204,83,81)" stroke-width="0.6" opacity="1" d="M 386.5 378 L 397 378.5 L 386.5 379 L 386.5 378 Z " /></svg>