<svg width="627" height="627" preserveAspectRatio="xMidYMid meet" viewBox="0 0 512 512" version="1.1" xmlns="http://www.w3.org/2000/svg" ><path fill="rgb(255,255,255)" stroke="rgb(255,255,255)" stroke-width="0.6" opacity="1" d="M 0 0 L 512 0 L 512 512 L 0 512 L 0 0 Z M 380 108 Q 358 113 345 125 L 338 134 Q 337 141 340 144 L 349 151 Q 352 150 350 154 Q 340 154 337 161 L 333 161 L 310 148 L 281 140 L 255 141 L 233 152 Q 221 162 214 175 Q 190 172 174 162 L 168 146 Q 162 136 149 133 L 109 127 L 75 128 L 68 134 L 70 144 L 80 158 Q 104 185 137 205 L 129 214 L 113 210 Q 88 208 76 217 Q 66 217 62 211 Q 51 210 47 215 L 40 225 Q 38 239 46 243 L 46 246 L 36 264 L 32 283 Q 31 301 35 315 Q 41 334 53 348 Q 69 367 102 371 Q 129 371 144 357 Q 156 347 164 332 L 166 336 Q 170 341 178 342 L 257 352 L 317 362 L 327 361 L 333 352 L 336 350 Q 339 366 349 377 Q 366 399 401 405 Q 417 406 429 402 Q 443 397 454 388 Q 474 370 480 338 Q 483 289 459 268 L 460 264 L 459 259 Q 447 246 428 241 Q 422 243 423 239 L 432 234 L 448 230 Q 453 227 454 220 L 451 198 L 440 173 Q 422 144 399 120 L 387 109 L 380 108 Z " /><path fill="rgb(255,255,255)" stroke="rgb(255,255,255)" stroke-width="0.6" opacity="1" d="M 342.5 194 L 346 195.5 Q 346.9 198.9 341.5 197 L 338 198 L 339.5 196 L 342.5 194 Z " /><path fill="rgb(255,255,255)" stroke="rgb(255,255,255)" stroke-width="0.6" opacity="1" d="M 416.5 235 Q 420.3 234 419 237 Q 416 240.3 408 239 Q 406.8 236 410.5 237 L 416.5 235 Z " /><path fill="rgb(146,95,56)" stroke="rgb(146,95,56)" stroke-width="0.6" opacity="1" d="M 378.5 114 L 382.5 114 L 392 119 L 397.5 126 Q 400.1 125.2 399 128.5 L 407 135.5 L 415 145.5 L 415 148 L 418 149.5 L 427 162.5 L 429 169.5 L 428 172 L 422.5 172 L 409 167 Q 410.3 164 406.5 165 Q 381.2 150.8 360 132.5 Q 360.8 129.9 357.5 131 L 353 127.5 L 354.5 124 L 372.5 115 L 374.5 115 L 378.5 114 Z " /><path fill="rgb(146,95,56)" stroke="rgb(146,95,56)" stroke-width="0.6" opacity="1" d="M 348.5 128 L 389.5 159 L 407.5 169 L 411.5 173 L 413.5 173 Q 419.5 176 429.5 175 L 432.5 173 L 436 175 L 438.5 182 L 440 183.5 L 442 188.5 Q 439 190.5 444 192.5 L 446 199.5 L 445 201.5 L 448 206.5 L 449 218.5 L 445.5 225 L 435.5 228 L 433.5 227 L 426.5 229 L 424.5 228 L 409.5 232 L 407.5 232 L 405.5 233 L 404 232.5 Q 404.8 235.1 401.5 234 L 395.5 237 L 393.5 237 L 390.5 239 L 369.5 250 L 342 269 L 340.5 272 L 336 274.5 L 334.5 277 L 332 278.5 L 330.5 281 L 326 284.5 L 324.5 287 L 323 288.5 L 320 294 L 318 295.5 L 312 311.5 L 312.5 313 Q 309.8 312.4 311 318.5 L 313 322.5 L 313 324.5 Q 316.7 340.8 325 352.5 L 324 357 L 320.5 356 L 315.5 357 L 293.5 352 L 291.5 352 L 289 351.5 L 291 348.5 L 282.5 344 L 280.5 344 L 260.5 339 L 251.5 334 L 249.5 334 L 235.5 330 L 230.5 330 L 231.5 332 L 236.5 334 L 238.5 334 L 246.5 338 L 249.5 337 L 258.5 341 L 289 349.5 L 288 352 L 266.5 348 L 264.5 348 L 261.5 347 L 259.5 348 L 237.5 345 L 232.5 343 L 230.5 343 L 228.5 344 L 227.5 342 L 221.5 343 L 203.5 339 L 201.5 339 L 197.5 338 L 192.5 339 L 178.5 337 L 169 331.5 L 168 328.5 L 169 325.5 L 169 323.5 L 170.5 320 L 172 318.5 Q 173.3 314.3 179.5 315 L 183.5 316 L 185.5 315 L 199.5 319 L 201.5 319 Q 216 319 222 310.5 L 225 304 L 227 302.5 L 231 296.5 L 231 294.5 L 232 282.5 L 231 275.5 L 220 262.5 L 218 256.5 L 225.5 248 L 229 247 L 230.5 244 Q 251.4 228.4 276.5 217 Q 278 219.5 279.5 216 Q 299.7 207.2 325.5 204 L 327.5 205 L 329.5 204 L 331.5 205 L 335.5 203 L 352.5 201 L 357.5 199 Q 359.5 202 361.5 197 L 365.5 194 L 367 194.5 L 372 182.5 L 372 175.5 Q 370 161.5 361.5 154 L 350 145.5 Q 350.8 142.9 347.5 144 L 346 141 L 343 139.5 L 343 134.5 L 348.5 128 Z M 392 185 L 387 189 Q 391 205 400 215 L 409 219 L 410 221 L 418 222 L 420 222 L 425 223 L 438 222 L 440 219 L 439 212 L 433 201 Q 422 193 407 188 L 392 185 Z M 343 207 L 343 209 L 353 213 L 402 227 L 407 227 L 409 227 L 393 221 Q 391 217 390 220 L 379 217 Q 377 213 376 216 L 362 212 L 360 210 L 358 211 L 343 207 Z M 275 223 L 273 227 L 276 226 L 300 231 L 302 231 L 316 235 L 317 239 L 305 250 L 303 252 L 297 256 L 293 261 L 288 264 L 285 268 L 280 272 L 278 271 L 274 272 L 257 263 L 253 265 Q 261 273 274 277 L 285 275 L 286 273 L 293 268 L 295 265 L 302 260 L 304 257 L 310 253 L 311 251 L 320 243 L 323 239 L 322 234 L 310 229 Q 308 225 307 228 L 291 225 L 289 225 L 285 223 L 282 224 L 275 223 Z " /><path fill="rgb(146,95,56)" stroke="rgb(146,95,56)" stroke-width="0.6" opacity="1" d="M 259.5 145 L 263.5 146 L 274.5 145 L 277.5 146 L 279.5 146 L 282.5 147 L 284.5 146 L 303.5 151 L 310.5 155 Q 312 152.5 313.5 156 L 326 162.5 L 324 168 L 299.5 174 L 297.5 173 L 292 177.5 L 290 184.5 L 294 190.5 L 265.5 203 L 244.5 215 L 242.5 214 L 240.5 214 L 224.5 205 L 222.5 205 L 214 201 L 213 198.5 L 218 190.5 L 217 188.5 L 219 180.5 L 218 178.5 L 227.5 164 L 233 159.5 L 236.5 155 L 247.5 149 L 249 149.5 L 250.5 148 L 256.5 146 Q 258 148.5 259.5 145 Z M 243 166 L 241 169 L 247 172 L 248 174 L 259 180 L 263 186 L 265 196 L 268 195 L 267 188 Q 268 183 265 184 L 264 181 L 243 166 Z " /><path fill="rgb(146,95,56)" stroke="rgb(146,95,56)" stroke-width="0.6" opacity="1" d="M 320.5 173 L 328.5 173 L 329 174.5 L 330 180.5 L 308.5 187 L 305 177 L 320.5 173 Z " /><path fill="rgb(146,95,56)" stroke="rgb(146,95,56)" stroke-width="0.6" opacity="1" d="M 298.5 178 L 303 181.5 L 302 185.5 L 301.5 188 L 298.5 189 L 295 182.5 L 298.5 178 Z " /><path fill="rgb(146,95,56)" stroke="rgb(146,95,56)" stroke-width="0.6" opacity="1" d="M 365.5 180 L 367 182.5 L 365 189 Q 360.8 194.2 352.5 196 Q 348.3 194.2 351 192.5 Q 349.9 189.2 352.5 190 L 361 183.5 L 362.5 182 L 365.5 180 Z " /><path fill="rgb(146,95,56)" stroke="rgb(146,95,56)" stroke-width="0.6" opacity="1" d="M 142.5 208 L 151 214.5 L 149.5 219 L 128 233 L 126.5 236 L 116.5 245 L 112.5 245 L 110 238.5 L 133 217.5 L 134.5 215 L 138 212.5 L 140.5 209 L 142.5 208 Z " /><path fill="rgb(146,95,56)" stroke="rgb(146,95,56)" stroke-width="0.6" opacity="1" d="M 155.5 220 L 162 224.5 L 169.5 233 Q 172.8 231.9 172 234.5 L 181 245.5 L 180 247.5 L 181 253.5 L 178.5 254 L 168.5 249 L 161 249 Q 157 238.1 148 230.5 L 147 226.5 L 155.5 220 Z " /><path fill="rgb(146,95,56)" stroke="rgb(146,95,56)" stroke-width="0.6" opacity="1" d="M 396.5 244 L 399.5 245 L 401.5 244 L 412.5 245 L 414.5 245 L 416.5 244 L 438.5 250 L 443.5 254 Q 445 251.5 446.5 255 L 452 258 L 453 262 L 444.5 263 L 443.5 262 L 424.5 262 L 420.5 263 Q 419 260.5 417.5 264 L 415.5 263 L 408 269.5 L 405 275.5 L 404 293 L 400.5 295 L 397 291.5 L 395 283.5 Q 397.5 282 394 280.5 L 390 266.5 L 391 264.5 L 389 262.5 L 385 248.5 L 387.5 246 L 396.5 244 Z " /><path fill="rgb(146,95,56)" stroke="rgb(146,95,56)" stroke-width="0.6" opacity="1" d="M 380.5 250 L 385 263.5 L 384 265.5 L 386 267.5 L 389 278.5 L 389 280.5 L 394 295.5 Q 391.5 297 395 298.5 L 398 309.5 Q 395.2 311.3 399.5 313 L 404 314 L 409 322.5 L 409 329.5 L 401.5 339 L 399.5 339 Q 390.8 340.7 388 336.5 L 386 333.5 L 388.5 332 Q 390.5 335 396.5 334 L 400 333 L 402 328 L 404 327.5 L 404 321 L 402 319.5 L 399.5 316 L 391.5 315 L 386 317 L 376 284.5 Q 378.5 283 375 281.5 L 373 274.5 Q 375.5 273 372 271.5 L 369 260.5 L 370 255 L 380.5 250 Z " /><path fill="rgb(146,95,56)" stroke="rgb(146,95,56)" stroke-width="0.6" opacity="1" d="M 362.5 262 Q 366.3 260.8 365 264.5 L 366 269.5 L 365 272 L 360 273 L 358.5 276 L 356 276 L 354.5 278 L 349.5 279 L 347 278 Q 349.2 270.4 355.5 266 L 357 264.5 L 362.5 262 Z " /><path fill="rgb(146,95,56)" stroke="rgb(146,95,56)" stroke-width="0.6" opacity="1" d="M 414.5 271 L 417.5 272 L 419.5 271 L 429 276.5 L 430.5 278 L 434 280.5 L 437.5 285 L 439 286.5 L 447 298.5 Q 444 300.5 449 302.5 L 451 310.5 L 451 312.5 L 452 315.5 L 452 317.5 L 453 325.5 L 451 333.5 L 452 335.5 L 449 341.5 L 450 343.5 L 444 358 Q 441 356.8 442 360.5 L 433 368.5 L 431.5 371 L 425.5 374 L 424 372.5 L 428.5 368 L 430 366.5 L 434 364 L 445 341.5 L 444 339.5 Q 447.5 338 445 336.5 L 446 321.5 L 445 315.5 L 445.5 314 Q 442.9 314.8 444 311.5 Q 446.5 310 443 308.5 Q 437.8 292.2 425.5 283 L 417 279 Q 418.4 275 411.5 277 L 411 274.5 L 412.5 273 L 414.5 271 Z " /><path fill="rgb(146,95,56)" stroke="rgb(146,95,56)" stroke-width="0.6" opacity="1" d="M 411.5 281 L 424 287 L 425.5 289 L 429.5 294 L 431 295.5 L 437 304.5 L 437 309 Q 440 307.8 439 311.5 L 441 320.5 L 440 330.5 L 441 335.5 L 439 344 L 437 345.5 L 436 347.5 L 436 349.5 L 430 361 L 428 362.5 L 422 367.5 L 420.5 369 Q 411.7 378.2 392.5 377 Q 378.3 374.2 370 365.5 L 368.5 363 L 365 360.5 Q 359.6 355.5 359 347 L 357 345.5 Q 351.7 335.3 353 318.5 L 356 304.5 Q 360.8 292.8 369.5 285 L 372 286 L 374 292.5 L 366 301.5 L 360 318.5 L 361 327.5 L 360 329.5 L 362 332.5 L 362 334.5 L 366 346.5 L 374.5 357 L 387.5 364 L 400.5 366 L 407.5 363 L 409 363.5 L 410.5 362 L 421 354.5 L 431 338.5 L 431 336.5 L 432 333.5 L 431 321.5 L 432 318.5 L 430 312 Q 427 313.3 428 309.5 L 417.5 297 L 410 292.5 L 409 285.5 L 409 283.5 L 410.5 282 L 411.5 281 Z " /><path fill="rgb(146,95,56)" stroke="rgb(146,95,56)" stroke-width="0.6" opacity="1" d="M 392.5 318 L 399 321.5 L 400 324.5 L 395.5 330 L 392.5 330 L 388 326.5 Q 387.2 320.7 390.5 319 L 392.5 318 Z " /><path fill="rgb(79,62,45)" stroke="rgb(79,62,45)" stroke-width="0.6" opacity="1" d="M 77.5 132 L 78.5 134 L 79 132 L 100.5 133 L 110 132 Q 108.8 135.7 114 134 L 114.5 132 L 129.5 134 L 132.5 136 L 137 135 L 137.5 137 L 141.5 136 L 144 137.5 L 142 138 L 133 155.5 L 133 166.5 L 135.5 174 L 137 173.5 L 140 178.5 Q 137.2 180.3 141.5 182 Q 143 179.5 144.5 183 L 166.5 194 L 196.5 202 L 208.5 203 Q 210 200.5 211.5 204 L 217.5 208 L 219.5 208 Q 228.8 210.7 234.5 217 L 236 216.5 L 236.5 220 L 220 230.5 L 218.5 232 L 205.5 243 Q 203.7 240.2 202 244.5 L 197.5 250 L 196 251.5 L 192 248.5 L 188.5 244 Q 185.9 244.8 187 241.5 L 172.5 227 L 170 227 L 168.5 224 L 147 207 L 145.5 205 L 122 188.5 L 121.5 187 Q 120 189.5 118.5 186 L 114 182.5 Q 114.8 179.9 111.5 181 L 85 156.5 L 79 148.5 L 81 148 L 82.5 146 L 85 147.5 L 84.5 149 L 90.5 151 L 115 166 L 115.5 168 Q 117 165.5 118.5 169 L 123 171 L 124.5 174 L 127 172.5 L 125.5 171 L 74 137.5 L 73 135.5 L 74 133 L 77.5 132 Z " /><path fill="rgb(79,62,45)" stroke="rgb(79,62,45)" stroke-width="0.6" opacity="1" d="M 149.5 140 L 154.5 140 L 163 146.5 L 167 153.5 L 165 154.5 L 167 155 L 168 159.5 L 165.5 161 L 154.5 160 L 144.5 162 L 137.5 167 L 136 164.5 L 138 164 L 137 154.5 L 144.5 143 L 149.5 140 Z " /><path fill="rgb(79,62,45)" stroke="rgb(79,62,45)" stroke-width="0.6" opacity="1" d="M 362.5 165 L 365 166.5 L 367 172.5 L 366 176 Q 360.5 177.3 359 173.5 L 357.5 171 L 355 170.5 L 354 167.5 L 362.5 165 Z " /><path fill="rgb(79,62,45)" stroke="rgb(79,62,45)" stroke-width="0.6" opacity="1" d="M 332.5 166 Q 340.8 164.8 342 170.5 L 342 172.5 L 343 177.5 L 340 179 L 338.5 181 L 336 182 L 335.5 180 L 334 180.5 Q 334.9 172.1 330 169.5 L 330.5 167 L 332.5 166 Z " /><path fill="rgb(79,62,45)" stroke="rgb(79,62,45)" stroke-width="0.6" opacity="1" d="M 347 174 Q 353.9 172 356 175.5 Q 354.1 180.9 357.5 180 L 357 181.5 L 355.5 184 L 328.5 197 L 326 197.5 L 324.5 200 L 322.5 201 L 320.5 200 L 319 200.5 L 320 198.5 L 319 197.5 L 322.5 194 L 328.5 190 L 330 190.5 L 331.5 189 L 346 180.5 L 347 174 Z " /><path fill="rgb(79,62,45)" stroke="rgb(79,62,45)" stroke-width="0.6" opacity="1" d="M 316.5 189 L 319 189.5 L 320 191.5 L 314 199.5 L 313.5 202 L 281.5 210 L 262.5 220 L 260.5 220 L 257.5 222 L 226 241.5 L 226.5 243 L 223 244 L 221.5 246 L 214 252.5 L 214 254.5 L 215.5 265 L 217 264.5 L 225 274.5 Q 228.8 279.2 228 288.5 L 223 298.5 L 223 300.5 L 213.5 312 L 211.5 313 L 209 312 L 207.5 314 L 201.5 313 L 199.5 314 L 197 311.5 L 194 297.5 L 194.5 296 Q 191.8 296.6 193 290.5 L 190 279.5 L 192 279 L 192 270.5 L 190.5 270 L 191 268.5 L 193 261.5 L 200.5 252 L 201.5 253 L 206 248.5 L 209.5 244 L 211 242.5 L 241.5 221 L 243 221.5 L 244.5 220 L 253 216 L 254.5 214 Q 273.6 202.1 297.5 195 L 299 195.5 Q 298.2 192.9 301.5 194 L 316.5 189 Z M 202 277 L 199 282 Q 198 290 201 294 L 206 296 L 212 296 L 217 292 L 216 291 L 219 289 L 219 285 L 217 284 L 217 282 L 215 281 L 214 279 L 214 277 L 202 277 Z " /><path fill="rgb(79,62,45)" stroke="rgb(79,62,45)" stroke-width="0.6" opacity="1" d="M 394 189 L 411 194 L 411.5 196 L 412.5 194 L 421 198 L 421.5 200 L 423.5 200 L 427 201.5 L 426.5 203 L 433 207.5 L 432.5 209 L 434 209.5 L 433 213 L 435 214.5 L 436 217.5 L 433 219.5 Q 433.4 216.3 425.5 218 L 419.5 219 Q 405.5 217 399 207.5 L 398 203 L 396 201.5 L 395 197 Q 391.7 198.3 393 193.5 L 392 191 Q 395 192 394 189 Z " /><path fill="rgb(79,62,45)" stroke="rgb(79,62,45)" stroke-width="0.6" opacity="1" d="M 185 249 L 189 250.5 L 190.5 253 L 192 253.5 L 191 256 L 193 256.5 L 187.5 260 L 186 254.5 L 186.5 253 Q 183.1 253.8 185 249 Z " /><path fill="rgb(79,62,45)" stroke="rgb(79,62,45)" stroke-width="0.6" opacity="1" d="M 63.5 261 Q 67.6 262.9 67 269.5 L 64.5 273 L 63 273.5 L 63 277.5 L 62 286 L 60 286.5 L 60 294.5 L 62 296.5 L 64 305.5 L 63.5 307 Q 66.5 306.1 65 310.5 L 71.5 320 L 74 321.5 L 75.5 324 L 83 327 Q 81.8 330 85.5 329 L 87.5 329 L 96.5 331 L 105.5 328 L 108.5 329 L 110 326 Q 117.6 323.6 122 316.5 L 127 309.5 L 126.5 308 L 130.5 308 L 132 309.5 Q 134.5 307.7 137 312.5 L 134 317.5 L 127.5 328 L 126.5 327 L 121 332.5 L 121.5 334 L 105.5 342 L 92.5 343 L 75.5 337 L 65 327.5 L 61 322.5 L 59.5 317 L 58 315.5 L 57 313.5 L 58 311.5 L 54 303.5 Q 56.5 302 53 300.5 L 53 281.5 L 57 273.5 L 55 272.5 L 60.5 263 L 63.5 261 Z " /><path fill="rgb(79,62,45)" stroke="rgb(79,62,45)" stroke-width="0.6" opacity="1" d="M 69 271 Q 78.9 269.2 81 276.5 L 80 278.5 L 81 279.5 L 77 283.5 L 78 298.5 L 77.5 300 L 79 301.5 L 88.5 309 L 92.5 309 L 95.5 310 L 110 300.5 L 111.5 299 Q 113 295.5 114.5 298 L 119 300 L 119.5 302 L 121.5 302 L 123 302.5 L 123 304.5 L 124 306.5 L 122 307.5 Q 124.5 309 121 310.5 L 119 315 Q 114.3 314.3 113 318.5 L 113.5 320 L 110.5 322 L 108.5 321 L 107.5 324 Q 101.4 327.4 90.5 326 L 76 318.5 Q 78.7 316.8 74.5 315 L 73 315.5 L 70 310.5 L 71 308.5 L 68 307.5 L 65 298.5 L 67 298.5 Q 67.8 294.5 65 295.5 L 65 285 Q 68 286 67 283 L 65 282.5 L 68.5 275 L 70 274.5 L 68 273.5 L 69 271 Z " /><path fill="rgb(79,62,45)" stroke="rgb(79,62,45)" stroke-width="0.6" opacity="1" d="M 150.5 276 Q 155.8 274.8 157 277.5 L 158.5 279 Q 164.2 281.9 165 288 Q 159.9 287 158.5 291 L 153.5 291 L 150 288.5 L 148.5 286 L 141 282.5 L 143 279.5 L 142.5 278 L 146 279 Q 144.7 275.7 149.5 277 L 150.5 276 Z " /><path fill="rgb(79,62,45)" stroke="rgb(79,62,45)" stroke-width="0.6" opacity="1" d="M 341.5 276 Q 344.1 275.2 343 278.5 L 343 280.5 L 344 283.5 Q 337.9 289 337 299 L 334 300.5 L 336 301.5 L 331 318.5 L 331 329.5 L 333 336.5 L 331 346 L 326.5 347 L 317 324.5 L 317 309.5 L 318 306 L 320 305.5 L 318 304.5 L 328.5 288 L 329.5 289 L 339 279.5 L 341.5 276 Z " /><path fill="rgb(79,62,45)" stroke="rgb(79,62,45)" stroke-width="0.6" opacity="1" d="M 168.5 290 L 176 291 L 177 296.5 Q 175.3 299.8 169.5 299 L 168 298.5 Q 168.9 301.9 163.5 300 Q 160.3 299.3 161 294.5 Q 163 290.4 168.5 290 Z " /><path fill="rgb(79,62,45)" stroke="rgb(79,62,45)" stroke-width="0.6" opacity="1" d="M 407.5 296 L 412 298 Q 410.8 301 414.5 300 L 421 306.5 L 421 309 L 423 310.5 L 425 313.5 L 424.5 315 Q 427.1 314.2 426 317.5 L 425 320 Q 428.3 318.7 427 323.5 L 427 325.5 L 427 333.5 L 425 335.5 L 426 339 L 423 340.5 L 424 343.5 L 416.5 353 L 409.5 358 Q 408 355.5 406.5 359 L 393.5 361 L 383.5 356 L 381.5 356 L 372 347.5 L 368 339.5 L 368.5 338 Q 365.5 338.9 367 334.5 Q 363.4 329.1 365 318.5 Q 366.8 306.3 373.5 299 L 377 301.5 L 380 309.5 L 379 311.5 L 381 314.5 L 381 316.5 L 380 321 L 378 321.5 L 380 322.5 L 379 325.5 L 379.5 327 L 378 327.5 L 380 328 L 381 330.5 L 379 331.5 L 381 332 L 386.5 340 Q 390.9 344.1 400.5 343 L 405 341.5 L 404.5 340 L 409 336.5 L 411.5 333 L 413 331.5 L 412 328 Q 416 329.4 414 322.5 L 413 319 L 411 317.5 L 405.5 311 Q 402.5 311.7 404 308 L 401 308 L 401 304.5 L 400 301.5 L 401 299 L 408 297.5 L 407.5 296 Z " /><path fill="rgb(214,174,112)" stroke="rgb(214,174,112)" stroke-width="0.6" opacity="1" d="M 353.5 158 Q 359 157 360 160.5 L 358.5 163 L 344.5 166 L 342 165 L 343.5 161 L 353.5 158 Z " /><path fill="rgb(214,174,112)" stroke="rgb(214,174,112)" stroke-width="0.6" opacity="1" d="M 151.5 165 L 167.5 165 Q 186.2 176.5 212 180 Q 214.3 192.5 207.5 197 L 202.5 198 Q 179.8 194.7 161.5 187 Q 150.4 183.1 143 175.5 L 142 170.5 Q 144.9 165.9 151.5 165 Z " /><path fill="rgb(214,174,112)" stroke="rgb(214,174,112)" stroke-width="0.6" opacity="1" d="M 96.5 215 Q 112.8 213.9 123 218 L 123 220.5 L 116.5 227 L 109.5 232 L 105.5 232 L 92.5 231 L 90.5 232 L 79 221.5 L 81.5 219 L 96.5 215 Z " /><path fill="rgb(214,174,112)" stroke="rgb(214,174,112)" stroke-width="0.6" opacity="1" d="M 55.5 216 Q 61.3 215.2 63 218.5 L 47.5 236 L 46 234.5 L 45 227.5 Q 46.8 220.3 52.5 217 L 55.5 216 Z " /><path fill="rgb(214,174,112)" stroke="rgb(214,174,112)" stroke-width="0.6" opacity="1" d="M 66.5 222 L 72.5 222 L 118 264.5 L 120 267.5 L 116.5 269 L 109 274.5 L 103 286.5 L 104 289 L 95.5 284 L 51 243.5 Q 53.6 230.2 63.5 224 L 66.5 222 Z " /><path fill="rgb(214,174,112)" stroke="rgb(214,174,112)" stroke-width="0.6" opacity="1" d="M 139.5 231 L 141.5 231 L 149 238.5 L 157 252.5 Q 149 257.4 151 271 L 153 271.5 L 150.5 273 L 148.5 273 Q 142.4 274.3 143 271.5 L 137 257.5 L 126 242.5 L 139.5 231 Z " /><path fill="rgb(214,174,112)" stroke="rgb(214,174,112)" stroke-width="0.6" opacity="1" d="M 95 235 Q 102.5 233.8 106 237.5 L 105 242.5 L 106.5 245 L 104 245 L 102.5 243 L 98 239.5 L 96.5 238 L 95 235 Z " /><path fill="rgb(214,174,112)" stroke="rgb(214,174,112)" stroke-width="0.6" opacity="1" d="M 120.5 247 L 129 253.5 L 137 267.5 L 138 273.5 L 133.5 276 L 126 269.5 L 125 264.5 L 111 249.5 L 112.5 250 Q 118.9 250.9 120.5 247 Z " /><path fill="rgb(214,174,112)" stroke="rgb(214,174,112)" stroke-width="0.6" opacity="1" d="M 48 250 L 50.5 250 L 59 257.5 Q 47.4 271.9 49 299.5 Q 53.5 325 70.5 338 L 86.5 346 L 100.5 347 Q 122.8 343.3 133 327.5 L 140.5 315 L 159 326.5 Q 153.8 342.8 141.5 352 L 122.5 363 Q 111.5 367 94.5 365 Q 67.1 358.9 53 339.5 Q 37 320.5 37 285.5 Q 39.3 264 48 250 Z " /><path fill="rgb(214,174,112)" stroke="rgb(214,174,112)" stroke-width="0.6" opacity="1" d="M 162.5 255 L 171.5 256 L 185 265.5 L 186 270.5 L 185 273.5 L 186 276 L 170.5 265 L 169 267.5 L 186 281.5 L 192 310.5 L 190.5 311 L 187.5 310 L 181.5 310 L 174 305 L 175.5 302 L 180 299.5 L 181 291.5 L 176.5 286 L 173.5 286 L 158 272.5 L 156 263.5 L 160.5 256 L 162.5 255 Z " /><path fill="rgb(214,174,112)" stroke="rgb(214,174,112)" stroke-width="0.6" opacity="1" d="M 422 267 L 427.5 268 L 428.5 267 L 444.5 267 L 452.5 268 L 460 275.5 Q 476.9 295.6 475 334.5 Q 469.8 368.8 447.5 386 Q 438.9 393.4 426.5 397 Q 414.4 400.9 396.5 399 Q 368.6 393.4 354 374.5 Q 345 363.5 340 348.5 Q 335.4 334.6 337 314.5 Q 339.3 295.3 349.5 284 L 354.5 284 L 367.5 275 L 369 280.5 L 363 285 Q 347.2 300.5 349 334.5 Q 353.9 359.1 370.5 372 Q 383.2 382.8 405.5 384 Q 433 381 445 362.5 L 454 345.5 L 457 322.5 Q 454.2 289.8 433.5 275 L 422 269 L 422 267 Z " /><path fill="rgb(214,174,112)" stroke="rgb(214,174,112)" stroke-width="0.6" opacity="1" d="M 118.5 273 L 123.5 274 L 158 300.5 L 159.5 303 Q 167.3 303.7 171 308.5 Q 170.2 311.1 173.5 310 L 171.5 313 L 166 317.5 L 164 322 Q 134.8 307.4 109 288.5 L 109 282.5 L 114.5 275 L 118.5 273 Z " /><path fill="rgb(214,174,112)" stroke="rgb(214,174,112)" stroke-width="0.6" opacity="1" d="M 206.5 280 L 213 282.5 L 214 286.5 L 211.5 291 L 207.5 293 L 203 289.5 L 202 285.5 L 206.5 280 Z " /><path fill="rgb(214,174,112)" stroke="rgb(214,174,112)" stroke-width="0.6" opacity="1" d="M 85.5 281 L 88 284.5 L 83 292.5 L 88.5 299 Q 96.4 299.9 98 294.5 L 97.5 293 L 105.5 296 L 108.5 294 L 110 297 L 106.5 297 L 98.5 304 L 91.5 305 L 83 299.5 L 81 294.5 L 82 289.5 L 81 286.5 L 85.5 281 Z " /><path fill="rgb(8,8,8)" stroke="rgb(8,8,8)" stroke-width="0.6" opacity="1" d="M 375.5 110 L 384.5 110 L 395 117.5 L 397 121.5 L 395.5 121 L 387 115 Q 388.3 112 384.5 113 L 378.5 112 L 371.5 115 L 366.5 115 L 361.5 119 L 358.5 119 L 349.5 127 L 347 127 L 341 137.5 L 346.5 145 L 361 155.5 L 369 167.5 L 371 180.5 L 367.5 191 L 366 192.5 L 356.5 199 L 336.5 201 L 333.5 203 L 325.5 204 L 321.5 203 Q 318.5 206 311.5 205 L 312.5 203 L 317.5 200 Q 319 203.2 324 202 L 325.5 200 L 337.5 192 L 343.5 191 L 358 183 L 358 175.5 L 356.5 175 Q 354.8 171.5 349 173 Q 347.6 169.3 353.5 171 L 364.5 178 L 368 175.5 L 368 171.5 L 363.5 164 L 361 163.5 L 362 160.5 L 356.5 156 L 347 157 Q 348.2 161 342 159 L 343.5 156 Q 350.8 157.3 353 153.5 L 352 151 L 345 146.5 L 342.5 143 L 340 141.5 Q 337.5 130.5 343.5 128 L 360.5 116 L 375.5 110 Z M 366 179 L 363 180 L 359 185 L 350 189 L 349 192 L 349 196 L 351 198 L 354 196 L 359 196 L 361 194 L 368 186 L 368 181 L 366 179 Z M 344 192 L 335 197 Q 330 196 332 200 L 347 198 L 348 195 L 344 192 Z " /><path fill="rgb(8,8,8)" stroke="rgb(8,8,8)" stroke-width="0.6" opacity="1" d="M 400 125 L 405 127.5 L 407 133 L 401 128.5 L 400 125 Z " /><path fill="rgb(8,8,8)" stroke="rgb(8,8,8)" stroke-width="0.6" opacity="1" d="M 85.5 128 L 96.5 129 L 103.5 128 L 110.5 130 L 122.5 130 Q 127.9 133.1 137.5 132 L 140.5 134 L 147.5 134 L 162 140 L 169 149.5 L 171 161.5 L 173.5 164 L 197.5 174 L 214.5 176 L 216 173 L 218 171.5 L 222.5 165 L 223 168.5 L 219 172.5 L 214.5 192 L 214 180.5 L 212.5 179 L 187.5 173 L 173.5 165 L 164.5 163 L 155.5 164 L 150.5 163 L 145.5 165 L 147.5 162 Q 155.9 162.9 160.5 160 L 166.5 162 Q 169.8 160.3 168 153.5 L 163 143 L 159 143 L 157.5 141 L 151.5 139 L 143 143 L 136.5 152 L 136 149.5 L 139.5 144 L 146 138.5 L 144.5 137 L 142.5 135 L 123.5 132 L 120.5 133 L 117.5 131 L 90.5 130 L 89.5 131 L 76.5 131 L 72 133 Q 71.1 138.4 75 140.5 L 74 142.5 L 77 149.5 L 76 149.5 L 74 146.5 Q 69.3 142.7 69 134.5 L 73.5 130 L 85.5 128 Z " /><path fill="rgb(8,8,8)" stroke="rgb(8,8,8)" stroke-width="0.6" opacity="1" d="M 359.5 134 L 376 145.5 L 374.5 146 L 359.5 134 Z " /><path fill="rgb(8,8,8)" stroke="rgb(8,8,8)" stroke-width="0.6" opacity="1" d="M 409.5 136 L 415 139.5 L 419 147 L 421 148.5 L 428 159.5 L 424 156.5 L 416 144 L 414 142.5 L 409.5 136 Z " /><path fill="rgb(8,8,8)" stroke="rgb(8,8,8)" stroke-width="0.6" opacity="1" d="M 255.5 142 L 278 142.5 L 260.5 143 Q 259.3 146.3 253.5 145 L 234 155 L 226.5 164 Q 222.8 165.3 224 161.5 L 234 154 L 235.5 152 L 255.5 142 Z " /><path fill="rgb(8,8,8)" stroke="rgb(8,8,8)" stroke-width="0.6" opacity="1" d="M 280.5 142 L 300.5 146 L 311.5 152 L 315.5 152 L 331.5 162 L 336.5 163 L 341 160 Q 339.8 165.5 343.5 167 Q 346.5 166.1 345 170.5 L 347 173.5 L 344.5 175 L 337.5 165 Q 329.5 163.5 328 168.5 Q 334 170.1 333 177 Q 330 178.3 331 174.5 L 326.5 171 L 324.5 172 Q 323 169.5 321.5 173 L 313.5 173 L 311.5 175 Q 305.5 173.5 304 176.5 Q 307 180.8 306 188 L 312.5 188 L 331 181.5 Q 330 177.8 333 179 Q 330.5 185.3 335.5 184 L 344.5 178 L 345 182 L 319 195 L 317.5 198 L 316 196.5 L 319 195 L 320.5 192 L 327 187.5 L 326.5 185 L 324.5 187 L 311.5 189 L 309.5 191 L 292.5 195 L 277.5 201 L 236 223 L 239 218.5 L 229 211.5 L 229.5 210 L 241.5 216 L 245.5 216 L 274.5 200 L 277.5 200 L 283.5 196 L 294 194 L 295 190.5 Q 290.7 188.3 292 180.5 L 295.5 176 L 298.5 174 L 306.5 174 L 318.5 170 L 324 170 L 328 164.5 L 328 161 L 325 161 L 323.5 159 Q 320 154.3 313 155 L 311.5 153 L 308.5 151 L 297.5 149 L 295.5 147 L 290.5 147 L 288.5 145 Q 281.7 146.3 279 143.5 L 280.5 142 Z M 298 177 L 294 182 L 295 188 L 302 190 Q 306 189 304 182 L 298 177 Z " /><path fill="rgb(8,8,8)" stroke="rgb(8,8,8)" stroke-width="0.6" opacity="1" d="M 378.5 148 L 402 164.5 L 400.5 164 L 380.5 151 L 378.5 148 Z " /><path fill="rgb(8,8,8)" stroke="rgb(8,8,8)" stroke-width="0.6" opacity="1" d="M 79.5 151 L 82.5 155 L 87 158.5 L 89 164 L 84 160.5 L 78 152.5 L 79.5 151 Z " /><path fill="rgb(8,8,8)" stroke="rgb(8,8,8)" stroke-width="0.6" opacity="1" d="M 428 161 L 432 162.5 L 439 177 L 441 178.5 L 449 195.5 Q 447.8 201.3 451 202.5 L 451 210.5 L 450 210.5 L 448 199.5 L 446 197.5 L 446 193.5 L 442 183.5 L 433.5 171 Q 430.2 169.9 431 172.5 L 428 174 L 429.5 172 L 431 168.5 L 428 161 Z " /><path fill="rgb(8,8,8)" stroke="rgb(8,8,8)" stroke-width="0.6" opacity="1" d="M 134 164 Q 137 162.8 136 166.5 Q 138.8 171.8 141.5 166 L 143 166.5 Q 140 168.5 141 174.5 L 148.5 182 L 151 182 L 152.5 184 Q 155.5 185.5 152.5 187 L 151 185 L 148.5 185 L 140 178.5 L 134 168.5 L 134 164 Z " /><path fill="rgb(8,8,8)" stroke="rgb(8,8,8)" stroke-width="0.6" opacity="1" d="M 247.5 170 L 262 180.5 L 261.5 182 L 247.5 170 Z " /><path fill="rgb(8,8,8)" stroke="rgb(8,8,8)" stroke-width="0.6" opacity="1" d="M 96 171 Q 102.4 171.3 105 176.5 L 106 179.5 L 104.5 179 L 96 172.5 L 96 171 Z " /><path fill="rgb(8,8,8)" stroke="rgb(8,8,8)" stroke-width="0.6" opacity="1" d="M 108 181 L 114 183.5 L 115 186.5 L 113.5 186 L 108 182.5 L 108 181 Z " /><path fill="rgb(8,8,8)" stroke="rgb(8,8,8)" stroke-width="0.6" opacity="1" d="M 155.5 186 L 163.5 188 L 169.5 192 L 181.5 194 L 183.5 196 L 205.5 199 L 213.5 193 L 214 195.5 L 212 199.5 L 213 202 L 223.5 206 L 227 209.5 L 225.5 210 L 208.5 201 L 195.5 201 L 193.5 199 L 186.5 199 L 176.5 195 L 174.5 196 L 170.5 193 L 156 189 L 155.5 186 Z " /><path fill="rgb(8,8,8)" stroke="rgb(8,8,8)" stroke-width="0.6" opacity="1" d="M 391.5 186 Q 415.6 189.4 431 201.5 L 437 212 L 435 210.5 L 429.5 203 L 417.5 195 L 402.5 191 L 400.5 189 L 392.5 188 L 391 192.5 L 399 208.5 L 395 205.5 Q 390.3 198.7 389 188.5 L 391.5 186 Z " /><path fill="rgb(8,8,8)" stroke="rgb(8,8,8)" stroke-width="0.6" opacity="1" d="M 125 193 Q 128.8 191.5 128 194.5 L 144.5 204 L 164 221.5 L 167 226.5 L 165.5 226 L 155.5 219 L 145 226.5 L 150 235 L 147.5 235 L 140.5 229 L 137.5 231 L 137 228.5 L 154 216.5 L 152 212 L 141.5 207 L 138 209 L 135.5 213 Q 132.9 213.8 134 210.5 L 138 208 L 139 204.5 L 130 199 L 128.5 197 L 125 194.5 L 125 193 Z " /><path fill="rgb(8,8,8)" stroke="rgb(8,8,8)" stroke-width="0.6" opacity="1" d="M 305.5 204 L 310 204.5 L 306.5 207 L 301.5 207 L 299.5 209 L 293.5 209 L 288.5 211 L 289.5 209 L 305.5 204 Z " /><path fill="rgb(8,8,8)" stroke="rgb(8,8,8)" stroke-width="0.6" opacity="1" d="M 284.5 210 L 287 211.5 L 276.5 217 L 268.5 219 L 263.5 223 L 260.5 223 L 256.5 227 L 253.5 227 L 255.5 224 L 284.5 210 Z " /><path fill="rgb(8,8,8)" stroke="rgb(8,8,8)" stroke-width="0.6" opacity="1" d="M 400.5 211 Q 411.4 221.6 434.5 220 L 436 214 Q 439.7 212.7 438 218.5 Q 434.1 224.6 421.5 222 L 405.5 217 L 400.5 211 Z " /><path fill="rgb(8,8,8)" stroke="rgb(8,8,8)" stroke-width="0.6" opacity="1" d="M 54.5 212 L 60.5 212 L 68 216 Q 66.9 219.8 75.5 218 L 84.5 214 Q 87.5 215.5 84.5 217 L 77 220.5 L 78.5 223 L 89.5 233 L 91.5 233 L 101 232 Q 102.1 235.5 94.5 234 L 94 236.5 L 95 238.5 L 92.5 239 L 82 229.5 L 78.5 225 L 70.5 219 L 68 219 L 66.5 221 L 59 225 L 60.5 223 L 65 218.5 L 61.5 215 L 53.5 215 L 48 217 L 49.5 214 L 54.5 212 Z " /><path fill="rgb(8,8,8)" stroke="rgb(8,8,8)" stroke-width="0.6" opacity="1" d="M 90.5 212 L 115.5 212 L 117.5 214 Q 124.9 213.1 128.5 216 L 132 214 L 132 216.5 L 125.5 223 Q 122.9 223.8 124 220.5 Q 126.8 218.7 122.5 217 L 118.5 215 L 112.5 215 L 110.5 213 L 95.5 213 Q 94 216.5 87.5 215 L 87.5 214 L 90.5 212 Z " /><path fill="rgb(8,8,8)" stroke="rgb(8,8,8)" stroke-width="0.6" opacity="1" d="M 44.5 219 Q 47.8 217.9 47 220.5 Q 42.1 223.6 43 232.5 L 45 237 L 47.5 238 L 50 237 L 52 231 Q 55 229.8 54 233.5 Q 50 236.5 50 243.5 L 59.5 254 L 66 258.5 Q 66.9 261.9 61.5 260 L 56 271 L 54 269.5 L 60 257.5 L 58 254 L 49.5 248 L 47 249 L 40.5 260 L 41 258.5 L 41 254.5 L 46 247.5 L 47 242.5 L 41 233.5 L 42 227.5 L 41 225.5 L 44.5 219 Z " /><path fill="rgb(8,8,8)" stroke="rgb(8,8,8)" stroke-width="0.6" opacity="1" d="M 450.5 220 L 451 224.5 L 441.5 231 L 432 231 L 430.5 234 L 420 240.5 Q 419.5 243.5 426.5 242 L 444 249 L 442.5 251 L 429.5 245 L 415.5 243 L 398.5 243 L 386.5 245 L 384 247.5 L 385 254.5 L 387 256.5 L 387 262.5 L 389 264.5 L 389 269.5 L 391 271.5 L 391 276.5 L 393 278.5 L 393 283.5 L 395 285.5 Q 394.3 292.4 397 295 L 401.5 296 L 406 291.5 L 406 275.5 L 411.5 268 L 420.5 264 L 422.5 264 L 438.5 263 L 445 264.5 L 422.5 265 L 419 267.5 Q 419.9 270.9 414.5 269 L 409 275.5 L 410 278 Q 419.7 279.4 426 285.5 L 424.5 286 L 416.5 281 L 409.5 280 L 407 282.5 L 407 293 L 416 297 L 414.5 299 L 405.5 296 L 399 299.5 L 401 310.5 L 400 310.5 L 398 307.5 L 398 302.5 L 396 300.5 L 386 261.5 L 384 259.5 L 384 253.5 L 380.5 248 L 368 256.5 L 367 259.5 L 369 261.5 L 369 267.5 L 373 275.5 L 373 280.5 L 377 289.5 L 381 306.5 L 383 308.5 L 384 316.5 Q 380.2 319.7 382 328.5 Q 383.8 335.7 389.5 339 L 395 340 Q 396.3 343.3 391.5 342 L 383 335.5 Q 378.8 330.7 380 320.5 L 382 312.5 L 378 303.5 L 378 299.5 L 375.5 297 L 369 302.5 L 365 312.5 L 365 335.5 L 369 341.5 L 369 344.5 L 377 355.5 L 375.5 355 L 370 350.5 L 362 331.5 L 362 316.5 L 366 304.5 L 374.5 293 L 376 292.5 Q 373 291.5 374 286.5 L 370.5 283 L 368 284 Q 370.8 282 370 275.5 L 365 274 L 363.5 277 L 357.5 279 L 357.5 278 L 367 273 L 368 266.5 Q 364.8 265 366 260 L 363.5 259 L 356 263.5 L 354.5 265 L 348 272.5 L 347 278.5 L 348.5 280 L 356 280.5 Q 354.8 284.3 348.5 283 L 344.5 287 L 344 283.5 L 345 281.5 L 342.5 274 L 339 276.5 L 320 298.5 L 315 311.5 L 315 321.5 L 317 327.5 L 314 325.5 L 314 307.5 Q 317.5 305.8 316 300 L 318 298.5 L 320 293 L 323 291.5 L 324 288.5 L 340.5 272 L 365.5 254 L 371 252 Q 369.8 249 373.5 250 L 380 247 L 381.5 245 Q 395 236 413.5 232 L 415.5 232 Q 422.4 227.9 435.5 230 L 437.5 228 Q 444.3 229.8 446 226.5 L 450.5 220 Z M 416 233 L 407 237 L 403 237 L 400 241 L 404 240 L 414 241 L 423 236 L 423 233 L 416 233 Z " /><path fill="rgb(8,8,8)" stroke="rgb(8,8,8)" stroke-width="0.6" opacity="1" d="M 230.5 225 L 231 226.5 L 219.5 234 L 222.5 230 L 230.5 225 Z " /><path fill="rgb(8,8,8)" stroke="rgb(8,8,8)" stroke-width="0.6" opacity="1" d="M 119.5 226 L 119 227.5 L 118 231 L 109 238.5 Q 108.3 244.3 111 246 L 116 247.5 L 113.5 248 L 111.5 247 L 109 250.5 L 113.5 256 L 120 260.5 L 121.5 263 L 123 264.5 L 127 274.5 L 125.5 274 L 118.5 271 L 114.5 273 L 116.5 270 L 122 267.5 L 119.5 262 Q 110.9 259.6 107 252.5 L 104.5 249 L 102 247.5 L 104.5 247 L 107.5 248 L 108 245.5 L 107 235 Q 102.9 236.3 104 233 L 109.5 234 L 112 233 L 113.5 230 L 119.5 226 Z " /><path fill="rgb(8,8,8)" stroke="rgb(8,8,8)" stroke-width="0.6" opacity="1" d="M 290 226 L 299 227 Q 300.3 230.3 295.5 229 L 290 228 L 290 226 Z " /><path fill="rgb(8,8,8)" stroke="rgb(8,8,8)" stroke-width="0.6" opacity="1" d="M 249.5 228 L 252 228.5 L 250 229 L 248.5 231 L 234.5 241 L 232 241 L 230.5 243 L 226.5 245 L 230.5 240 L 249.5 228 Z " /><path fill="rgb(8,8,8)" stroke="rgb(8,8,8)" stroke-width="0.6" opacity="1" d="M 301 228 Q 312.7 229 321 234.5 L 319.5 240 L 318 241.5 L 311.5 249 L 307 250 Q 308.5 253.7 305.5 253 L 301.5 258 L 294 263.5 L 290.5 268 L 284.5 272 L 284 269.5 L 294 262 L 298.5 256 L 304 254 Q 302.5 250.3 305.5 251 L 319 238.5 L 315.5 233 L 301 230 L 301 228 Z " /><path fill="rgb(8,8,8)" stroke="rgb(8,8,8)" stroke-width="0.6" opacity="1" d="M 135.5 230 L 136 233 L 127.5 239 L 127 237.5 L 130.5 233 L 135.5 230 Z " /><path fill="rgb(8,8,8)" stroke="rgb(8,8,8)" stroke-width="0.6" opacity="1" d="M 217.5 234 L 218 235.5 L 213 239 L 211.5 241 L 210 241.5 Q 208.9 238.2 211.5 239 L 217.5 234 Z " /><path fill="rgb(8,8,8)" stroke="rgb(8,8,8)" stroke-width="0.6" opacity="1" d="M 124 240 L 126 240.5 L 124 243.5 L 132 254 L 129 252.5 L 123.5 246 L 121 244.5 L 122.5 242 L 124 240 Z " /><path fill="rgb(8,8,8)" stroke="rgb(8,8,8)" stroke-width="0.6" opacity="1" d="M 182.5 240 L 186 242.5 L 187.5 245 L 191 247.5 Q 192.1 250.8 189.5 250 L 187 245 L 185 246.5 L 184 250.5 L 188.5 263 L 194 254.5 L 192 251 L 196.5 252 L 207.5 242 L 208 243.5 L 199.5 253 L 196 255.5 L 189 269.5 L 189 277.5 L 195 305.5 Q 193.5 308.5 192 305.5 L 192 298.5 L 190 296.5 L 188 281.5 L 184.5 278 L 171 267.5 L 172.5 268 L 185.5 278 L 188 277 Q 189.8 266 183.5 262 L 175 257 L 176.5 255 L 181 257 L 182.5 259 L 184 256.5 L 182 253.5 L 182.5 240 Z " /><path fill="rgb(8,8,8)" stroke="rgb(8,8,8)" stroke-width="0.6" opacity="1" d="M 156 245 L 159 246.5 L 162 252 Q 170.7 250.1 174 254.5 L 171.5 255 Q 169.2 251.8 162.5 253 L 154 260.5 L 158 253.5 L 158 249.5 L 156 245 Z " /><path fill="rgb(8,8,8)" stroke="rgb(8,8,8)" stroke-width="0.6" opacity="1" d="M 223.5 246 L 224 247.5 L 221.5 251 L 219 252.5 Q 216 254.5 217 260.5 L 221 265.5 L 218.5 266 L 214 259.5 L 214 256.5 L 221.5 247 L 223.5 246 Z " /><path fill="rgb(8,8,8)" stroke="rgb(8,8,8)" stroke-width="0.6" opacity="1" d="M 445.5 251 L 449.5 252 L 459 260.5 L 457 266.5 L 461 272.5 L 456.5 269 Q 453.5 265.1 447 266 Q 445.9 262.5 453.5 264 Q 458.8 261.3 453 258.5 L 451.5 256 L 445.5 251 Z " /><path fill="rgb(8,8,8)" stroke="rgb(8,8,8)" stroke-width="0.6" opacity="1" d="M 132 255 L 135 256.5 L 138 264.5 L 136 263.5 L 132 255 Z " /><path fill="rgb(8,8,8)" stroke="rgb(8,8,8)" stroke-width="0.6" opacity="1" d="M 39.5 262 L 40 265.5 L 36 278.5 L 37 280.5 L 36 281.5 L 36 298.5 L 37 301.5 L 36 304.5 L 45 331.5 L 43 330.5 L 36 310.5 L 33 295.5 L 33 286.5 L 36 275.5 L 36 268.5 L 38 266.5 L 37 264.5 L 39.5 262 Z " /><path fill="rgb(8,8,8)" stroke="rgb(8,8,8)" stroke-width="0.6" opacity="1" d="M 153.5 262 Q 156.8 263.8 155 270.5 L 158 276 L 141.5 277 L 137 279.5 L 141 282 L 140.5 285 L 131 278.5 L 131.5 276 L 134.5 277 L 140 274.5 L 138 266.5 L 140 267.5 Q 139.9 273.1 143.5 275 L 152.5 274 L 154 272.5 Q 155 267.5 152 268.5 L 152 263.5 L 153.5 262 Z " /><path fill="rgb(8,8,8)" stroke="rgb(8,8,8)" stroke-width="0.6" opacity="1" d="M 69 264 L 78 269.5 L 79 272.5 L 77.5 272 L 71.5 268 L 68 271.5 L 65 279.5 L 64 295.5 L 65 298.5 L 65 300.5 L 69 312 Q 72.3 310.9 71 315 L 68 313.5 L 62 297.5 L 62 284.5 L 69 264 Z " /><path fill="rgb(8,8,8)" stroke="rgb(8,8,8)" stroke-width="0.6" opacity="1" d="M 255 264 L 268.5 272 L 278.5 274 L 281.5 272 L 282 273.5 Q 279.8 277.3 271.5 275 L 255 266 L 255 264 Z " /><path fill="rgb(8,8,8)" stroke="rgb(8,8,8)" stroke-width="0.6" opacity="1" d="M 221.5 268 L 224 269.5 L 225.5 272 Q 228.1 271.2 227 274.5 L 231 280.5 L 231 289.5 Q 228.2 291.2 229 296.5 L 224.5 303 L 223 302.5 L 228 293.5 L 228 278.5 L 226 274 L 224 274 L 224 271 L 222 269.5 L 221.5 268 Z " /><path fill="rgb(8,8,8)" stroke="rgb(8,8,8)" stroke-width="0.6" opacity="1" d="M 423.5 271 Q 431.8 272.2 435 278.5 L 433.5 279 L 423.5 271 Z " /><path fill="rgb(8,8,8)" stroke="rgb(8,8,8)" stroke-width="0.6" opacity="1" d="M 462 275 Q 465.7 273.5 465 276.5 L 475 295.5 Q 473.8 301.3 477 302.5 L 477 311 L 479 311.5 L 479 336.5 L 477 338.5 L 477 346.5 L 474 351.5 L 475 354 Q 471.3 352.6 473 358.5 Q 470 359.8 471 364 L 468 365.5 L 467 371 Q 464 369.8 465 373.5 L 461.5 378 Q 457.8 379.3 459 375.5 L 462 371 Q 465 372.3 464 368.5 L 467 367 L 474 349.5 L 474 343.5 L 476 341.5 L 476 307.5 L 474 305.5 L 472 293.5 L 466 281 L 464 279.5 L 462 275 Z " /><path fill="rgb(8,8,8)" stroke="rgb(8,8,8)" stroke-width="0.6" opacity="1" d="M 109.5 277 L 110 279.5 Q 106.3 281.7 107 288.5 L 111.5 294 L 113.5 294 L 163.5 324 L 167.5 319 L 169 319.5 Q 165.6 322.1 167 329.5 L 172.5 337 L 177 338.5 L 173.5 339 L 165 332.5 Q 166.1 329.2 163.5 330 L 161 335 Q 158 333.8 159 337.5 L 153.5 345 L 152 346.5 L 144.5 355 L 136.5 361 L 133.5 361 L 130.5 364 Q 124.5 363.5 122.5 367 Q 115.1 366.1 111.5 369 L 95.5 369 Q 92.5 367.5 95.5 366 L 115.5 367 L 127.5 363 L 147 348.5 L 152 341 L 155 339.5 L 160 331.5 L 161 326.5 L 156.5 322 L 142 315 Q 143.3 312 139.5 313 L 134.5 321 L 134 318.5 L 137 311.5 L 136 309 L 127.5 306 Q 122.8 316.3 114.5 323 L 107.5 327 L 103.5 327 L 103.5 326 L 113 322 L 118.5 315 L 122 312.5 L 125 303 L 111 295.5 L 109.5 293 L 103.5 294 L 100 293 L 98.5 291 Q 95.5 292 92.5 287 L 90 285.5 L 89.5 283 L 88 281.5 L 87.5 280 Q 95.5 281.1 98 287.5 L 99.5 290 L 103.5 291 L 105 289.5 L 106 281.5 L 109.5 277 Z " /><path fill="rgb(8,8,8)" stroke="rgb(8,8,8)" stroke-width="0.6" opacity="1" d="M 205.5 277 Q 213.1 275.9 215 280.5 L 217 288.5 L 213.5 294 L 207.5 296 L 201 292.5 L 200 289 L 203 290.5 L 204.5 293 L 209.5 294 L 214 290.5 L 215 284.5 L 210.5 279 L 203 280 L 202 284 L 200 282.5 L 205.5 277 Z " /><path fill="rgb(8,8,8)" stroke="rgb(8,8,8)" stroke-width="0.6" opacity="1" d="M 162.5 279 L 165 280 Q 163.8 283 167.5 282 L 171 284.5 L 172.5 287 L 176 288.5 L 164.5 290 L 161 293.5 L 160 296.5 L 163.5 301 L 175.5 299 L 178 296.5 L 178.5 291 L 180 296.5 L 176.5 301 Q 171.8 300.3 171 303.5 L 178 308.5 Q 177.2 311.1 180.5 310 L 182.5 312 L 192.5 313 L 194.5 308 L 199.5 315 L 205.5 316 L 215 313 L 218.5 308 L 220 306.5 L 223 304.5 L 217.5 313 L 210.5 317 L 196.5 317 L 193.5 315 L 186.5 315 L 181.5 313 L 173.5 315 L 174 313.5 L 175 310.5 Q 169.3 303.2 159 300.5 L 154.5 295 L 152 293.5 Q 151.2 290.9 154.5 292 L 157.5 294 L 168 286.5 L 164.5 282 L 162 280.5 L 162.5 279 Z " /><path fill="rgb(8,8,8)" stroke="rgb(8,8,8)" stroke-width="0.6" opacity="1" d="M 51 280 Q 55 278.6 53 285.5 L 52 293 Q 48 294.4 50 287.5 L 51 280 Z " /><path fill="rgb(8,8,8)" stroke="rgb(8,8,8)" stroke-width="0.6" opacity="1" d="M 80.5 282 L 81 284.5 Q 77.4 287.4 79 295.5 L 83 303 L 79 300.5 L 77 289.5 L 78 284.5 L 80.5 282 Z " /><path fill="rgb(8,8,8)" stroke="rgb(8,8,8)" stroke-width="0.6" opacity="1" d="M 142.5 284 L 148 287.5 L 149 290.5 L 147.5 290 L 142 285.5 L 142.5 284 Z " /><path fill="rgb(8,8,8)" stroke="rgb(8,8,8)" stroke-width="0.6" opacity="1" d="M 365.5 285 L 367 286.5 L 363 292 L 361 290.5 L 365.5 285 Z " /><path fill="rgb(8,8,8)" stroke="rgb(8,8,8)" stroke-width="0.6" opacity="1" d="M 441 286 L 444 287.5 Q 451.9 297.9 454 313 Q 450.7 314.3 452 309.5 Q 448.7 295.2 441 286 Z " /><path fill="rgb(8,8,8)" stroke="rgb(8,8,8)" stroke-width="0.6" opacity="1" d="M 340 290 Q 344.5 288.5 343 293 Q 339.7 291.7 341 296.5 L 337 304.5 Q 338.3 311.3 335.5 314 L 334 308.5 L 336 306.5 L 336 300.5 L 340 293.5 L 340 290 Z " /><path fill="rgb(8,8,8)" stroke="rgb(8,8,8)" stroke-width="0.6" opacity="1" d="M 85 291 Q 88 289.8 87 293.5 Q 87.8 296.8 92.5 296 L 95 294.5 L 93.5 296 L 90.5 298 L 87 295.5 L 85 291 Z " /><path fill="rgb(8,8,8)" stroke="rgb(8,8,8)" stroke-width="0.6" opacity="1" d="M 358 294 L 360 295.5 Q 350.2 308.2 352 332.5 L 357 349.5 L 365 360.5 L 365 363 L 361 360.5 L 352 341.5 L 350 332.5 L 350 317.5 L 352 307.5 L 358 294 Z " /><path fill="rgb(8,8,8)" stroke="rgb(8,8,8)" stroke-width="0.6" opacity="1" d="M 436.5 298 L 441 304.5 L 445 323.5 L 444 326.5 L 445 331.5 Q 442 334.5 443 341.5 L 440.5 344 L 440 341.5 L 442 337.5 L 443 324.5 L 442 314.5 L 436 301.5 L 436.5 298 Z " /><path fill="rgb(8,8,8)" stroke="rgb(8,8,8)" stroke-width="0.6" opacity="1" d="M 417.5 299 L 421 301 Q 427.3 307.1 429 318.5 L 427 317.5 L 422.5 307 L 420 305.5 L 417.5 299 Z " /><path fill="rgb(8,8,8)" stroke="rgb(8,8,8)" stroke-width="0.6" opacity="1" d="M 84.5 303 Q 87.9 308.1 98.5 306 L 104 303 L 102.5 305 L 100.5 307 L 90.5 308 L 84 304.5 L 84.5 303 Z " /><path fill="rgb(8,8,8)" stroke="rgb(8,8,8)" stroke-width="0.6" opacity="1" d="M 52 305 Q 55 303.8 54 307.5 L 64 328 L 62 326.5 Q 53.8 318.2 52 305 Z " /><path fill="rgb(8,8,8)" stroke="rgb(8,8,8)" stroke-width="0.6" opacity="1" d="M 402.5 311 L 408 314.5 L 409 316.5 L 407.5 317 L 402.5 311 Z " /><path fill="rgb(8,8,8)" stroke="rgb(8,8,8)" stroke-width="0.6" opacity="1" d="M 390.5 316 L 392 318 L 387 321.5 Q 385.8 329.8 391.5 331 L 393 333 Q 387.5 333.8 386 328.5 L 385 322.5 L 390.5 316 Z " /><path fill="rgb(8,8,8)" stroke="rgb(8,8,8)" stroke-width="0.6" opacity="1" d="M 76.5 321 L 88 326.5 L 84.5 327 Q 83.3 324 79 325 L 77.5 323 L 76.5 321 Z " /><path fill="rgb(8,8,8)" stroke="rgb(8,8,8)" stroke-width="0.6" opacity="1" d="M 428 322 L 430 322.5 L 430 332 L 428 331.5 L 428 322 Z " /><path fill="rgb(8,8,8)" stroke="rgb(8,8,8)" stroke-width="0.6" opacity="1" d="M 90.5 326 L 97.5 327 L 99.5 326 L 102 327.5 Q 98.7 330.7 90.5 329 Q 87.5 327.5 90.5 326 Z " /><path fill="rgb(8,8,8)" stroke="rgb(8,8,8)" stroke-width="0.6" opacity="1" d="M 400 326 L 402 327.5 L 397.5 333 Q 393.8 334 395 331 L 400 327.5 L 400 326 Z " /><path fill="rgb(8,8,8)" stroke="rgb(8,8,8)" stroke-width="0.6" opacity="1" d="M 127.5 328 L 130 328.5 L 125.5 334 L 122.5 335 L 126 330.5 L 127.5 328 Z " /><path fill="rgb(8,8,8)" stroke="rgb(8,8,8)" stroke-width="0.6" opacity="1" d="M 316 329 L 319 330.5 Q 318.3 336.3 321 338 L 318 338 Q 319.3 332.7 316 333.5 L 316 329 Z " /><path fill="rgb(8,8,8)" stroke="rgb(8,8,8)" stroke-width="0.6" opacity="1" d="M 65.5 330 L 75 337.5 L 72.5 338 L 66 332.5 L 65.5 330 Z " /><path fill="rgb(8,8,8)" stroke="rgb(8,8,8)" stroke-width="0.6" opacity="1" d="M 46.5 333 L 57 347 L 52 344.5 L 46 335.5 L 46.5 333 Z " /><path fill="rgb(8,8,8)" stroke="rgb(8,8,8)" stroke-width="0.6" opacity="1" d="M 408.5 334 L 408 335.5 L 403.5 341 L 398 342 Q 396.8 339 400.5 340 L 408.5 334 Z " /><path fill="rgb(8,8,8)" stroke="rgb(8,8,8)" stroke-width="0.6" opacity="1" d="M 428.5 334 L 429 338.5 L 425 348 L 423 346.5 L 428.5 334 Z " /><path fill="rgb(8,8,8)" stroke="rgb(8,8,8)" stroke-width="0.6" opacity="1" d="M 334 335 L 337 336.5 L 339 350.5 L 345 363.5 L 366 389 L 363.5 389 L 354 380.5 L 342 363.5 L 338 350.5 L 334.5 346 L 326.5 360 L 317 361 Q 318.3 357.7 313.5 359 L 310.5 360 L 304 357.5 L 309.5 356 L 313.5 358 L 322.5 359 Q 327 358 326 351.5 L 320 340 Q 324.1 338.3 323 342.5 L 328.5 351 Q 333.8 345.2 334 335 Z " /><path fill="rgb(8,8,8)" stroke="rgb(8,8,8)" stroke-width="0.6" opacity="1" d="M 119.5 336 L 121 336.5 Q 111.5 347.5 88.5 345 L 77 341 L 78.5 339 Q 87.2 345.8 105.5 343 L 119.5 336 Z " /><path fill="rgb(8,8,8)" stroke="rgb(8,8,8)" stroke-width="0.6" opacity="1" d="M 181.5 338 L 189.5 340 L 200.5 340 L 211.5 343 L 213.5 342 Q 219.3 345.3 229.5 344 L 239.5 347 L 242.5 346 L 251.5 349 L 257.5 348 L 264 350.5 L 258.5 352 L 250 351 Q 251.3 348 247.5 349 L 244.5 350 L 232.5 347 L 230.5 348 L 223 347 Q 224.3 343.7 219.5 345 L 215.5 346 L 204.5 343 L 202.5 344 L 194 343 Q 195.3 339.3 189.5 341 L 186.5 342 L 180 339.5 L 181.5 338 Z " /><path fill="rgb(8,8,8)" stroke="rgb(8,8,8)" stroke-width="0.6" opacity="1" d="M 439 345 L 441 345.5 L 439 352.5 L 430.5 365 L 428.5 366 L 428 363.5 L 432 360.5 L 433.5 357 L 435 355.5 L 439 345 Z " /><path fill="rgb(8,8,8)" stroke="rgb(8,8,8)" stroke-width="0.6" opacity="1" d="M 449.5 349 L 450 351.5 Q 444.4 363.9 434.5 372 Q 424.7 380.5 409 382 Q 407.6 378.3 413.5 380 Q 433.1 376.1 442 361.5 L 449.5 349 Z " /><path fill="rgb(8,8,8)" stroke="rgb(8,8,8)" stroke-width="0.6" opacity="1" d="M 268.5 350 L 276 352.5 L 271.5 354 L 265 351.5 L 268.5 350 Z " /><path fill="rgb(8,8,8)" stroke="rgb(8,8,8)" stroke-width="0.6" opacity="1" d="M 62 352 L 66 353.5 L 67.5 356 L 72 357.5 Q 71.2 360.5 75 359 L 75 361 L 77.5 361 L 92 366.5 L 87.5 367 Q 85 363.8 79 365 L 77.5 363 L 68 358.5 Q 68.8 355.9 65.5 357 L 62 355 L 62 352 Z " /><path fill="rgb(8,8,8)" stroke="rgb(8,8,8)" stroke-width="0.6" opacity="1" d="M 281.5 352 L 293.5 355 L 296.5 354 L 303 356.5 L 294.5 357 L 287.5 355 L 284.5 356 L 278 353.5 L 281.5 352 Z " /><path fill="rgb(8,8,8)" stroke="rgb(8,8,8)" stroke-width="0.6" opacity="1" d="M 416.5 354 L 418 355.5 L 414.5 359 L 401.5 364 L 389.5 363 L 382.5 361 L 378 357.5 Q 377.2 354.9 380.5 356 Q 386.5 363 400.5 362 L 411 359 L 412.5 356 L 416.5 354 Z " /><path fill="rgb(8,8,8)" stroke="rgb(8,8,8)" stroke-width="0.6" opacity="1" d="M 370 368 L 380.5 375 Q 387.8 374.7 391 378.5 L 385.5 379 L 370 369.5 L 370 368 Z " /><path fill="rgb(8,8,8)" stroke="rgb(8,8,8)" stroke-width="0.6" opacity="1" d="M 421.5 370 L 422 373 L 407 379.5 L 406.5 382 Q 396.2 383.8 392 379.5 Q 396.2 376.7 404.5 378 L 419 373 L 420.5 371 L 421.5 370 Z " /><path fill="rgb(8,8,8)" stroke="rgb(8,8,8)" stroke-width="0.6" opacity="1" d="M 452.5 384 L 453 386.5 L 447.5 391 L 445 391 Q 443.5 387.3 446.5 388 L 452.5 384 Z " /><path fill="rgb(8,8,8)" stroke="rgb(8,8,8)" stroke-width="0.6" opacity="1" d="M 368.5 389 L 386 398.5 L 382.5 399 L 380.5 397 L 372 395 Q 373.3 392 369.5 393 Q 365 391 368.5 389 Z " /><path fill="rgb(8,8,8)" stroke="rgb(8,8,8)" stroke-width="0.6" opacity="1" d="M 438.5 393 L 441 393.5 L 432.5 399 L 429.5 399 L 430.5 397 L 438.5 393 Z " /><path fill="rgb(8,8,8)" stroke="rgb(8,8,8)" stroke-width="0.6" opacity="1" d="M 389.5 398 L 398.5 401 L 400.5 400 L 412.5 401 L 415.5 400 L 419 401.5 Q 413.7 404.7 404.5 404 L 388 399.5 L 389.5 398 Z " /><path fill="rgb(18,19,19)" stroke="rgb(18,19,19)" stroke-width="0.6" opacity="1" d="M 395.5 118 L 401.5 125 L 399.5 126 L 395 121.5 L 396 120.5 L 395.5 118 Z " /><path fill="rgb(18,19,19)" stroke="rgb(18,19,19)" stroke-width="0.6" opacity="1" d="M 348.5 123 L 344.5 128 L 342.5 129 L 343.5 127 L 348.5 123 Z " /><path fill="rgb(18,19,19)" stroke="rgb(18,19,19)" stroke-width="0.6" opacity="1" d="M 351.5 125 L 352 127.5 Q 351.2 130.1 354.5 129 L 355.5 131 L 348.5 128 L 347 128.5 Q 346.2 125.9 349.5 127 L 351.5 125 Z " /><path fill="rgb(18,19,19)" stroke="rgb(18,19,19)" stroke-width="0.6" opacity="1" d="M 109.5 131 Q 117 129.5 120 132.5 L 118.5 133 L 109.5 132 L 109.5 131 Z " /><path fill="rgb(18,19,19)" stroke="rgb(18,19,19)" stroke-width="0.6" opacity="1" d="M 407.5 131 L 413 137.5 L 410.5 136 L 409 136.5 L 409.5 138 L 406 133.5 L 407.5 131 Z " /><path fill="rgb(18,19,19)" stroke="rgb(18,19,19)" stroke-width="0.6" opacity="1" d="M 162.5 141 L 165.5 145 L 163 143.5 L 164 146.5 L 160 143.5 L 163 142.5 L 162.5 141 Z " /><path fill="rgb(18,19,19)" stroke="rgb(18,19,19)" stroke-width="0.6" opacity="1" d="M 260.5 141 L 279.5 141 L 280 142.5 L 278.5 144 L 260.5 144 L 259.5 145 L 260.5 143 L 278 142.5 L 260.5 142 L 260.5 141 Z " /><path fill="rgb(18,19,19)" stroke="rgb(18,19,19)" stroke-width="0.6" opacity="1" d="M 75.5 144 L 83 154.5 L 81 153.5 L 79.5 151 L 77.5 152 L 75 148.5 L 76 148.5 L 76.5 150 L 77 147.5 L 75.5 144 Z " /><path fill="rgb(18,19,19)" stroke="rgb(18,19,19)" stroke-width="0.6" opacity="1" d="M 246.5 145 L 248 145.5 L 247.5 147 L 249 147.5 L 242.5 151 L 243.5 149 L 247 147.5 L 244 146.5 L 246.5 145 Z " /><path fill="rgb(18,19,19)" stroke="rgb(18,19,19)" stroke-width="0.6" opacity="1" d="M 306.5 148 L 314 151.5 L 311 152.5 L 313 153.5 L 311.5 154 L 306 151.5 L 309 150.5 L 306.5 148 Z " /><path fill="rgb(18,19,19)" stroke="rgb(18,19,19)" stroke-width="0.6" opacity="1" d="M 91.5 151 L 101 156.5 L 99.5 156 L 92.5 153 L 91.5 151 Z " /><path fill="rgb(18,19,19)" stroke="rgb(18,19,19)" stroke-width="0.6" opacity="1" d="M 316.5 152 L 326 157.5 L 324.5 158 L 316.5 152 Z " /><path fill="rgb(18,19,19)" stroke="rgb(18,19,19)" stroke-width="0.6" opacity="1" d="M 421.5 153 L 427.5 160 L 428 158.5 L 427.5 157 L 430 160.5 L 428 161 L 427.5 163 L 421.5 153 Z " /><path fill="rgb(18,19,19)" stroke="rgb(18,19,19)" stroke-width="0.6" opacity="1" d="M 133.5 156 L 134 159 Q 138 157.7 136 164 Q 133 162.8 134 166.5 L 133 166.5 L 133.5 156 Z " /><path fill="rgb(18,19,19)" stroke="rgb(18,19,19)" stroke-width="0.6" opacity="1" d="M 341.5 157 L 342 159 L 344 159.5 L 341.5 161 L 339.5 160 L 336 162.5 L 341.5 157 Z " /><path fill="rgb(18,19,19)" stroke="rgb(18,19,19)" stroke-width="0.6" opacity="1" d="M 87.5 159 L 96.5 169 L 100 171.5 L 98.5 172 L 96.5 171 L 95.5 172 L 88 164.5 L 89 161.5 L 87.5 159 Z " /><path fill="rgb(18,19,19)" stroke="rgb(18,19,19)" stroke-width="0.6" opacity="1" d="M 361.5 162 L 361.5 164 L 366 166.5 L 365.5 168 L 363.5 165 L 355.5 167 L 355 164 Q 360.1 165.3 361.5 162 Z " /><path fill="rgb(18,19,19)" stroke="rgb(18,19,19)" stroke-width="0.6" opacity="1" d="M 143.5 163 L 146 163.5 L 145.5 165 L 147 165.5 L 142.5 168 L 142.5 166 L 138.5 169 L 143.5 163 Z " /><path fill="rgb(18,19,19)" stroke="rgb(18,19,19)" stroke-width="0.6" opacity="1" d="M 223.5 163 L 226 164.5 L 223.5 168 L 222.5 165 L 220 166.5 L 223.5 163 Z " /><path fill="rgb(18,19,19)" stroke="rgb(18,19,19)" stroke-width="0.6" opacity="1" d="M 401.5 163 L 405 165.5 L 405.5 167 L 407 166.5 Q 405.5 169.5 404 166.5 L 403.5 165 L 402 165.5 L 401.5 164 L 400 164.5 L 401.5 163 Z " /><path fill="rgb(18,19,19)" stroke="rgb(18,19,19)" stroke-width="0.6" opacity="1" d="M 348.5 171 L 349 174 L 346 175.5 L 345.5 181 L 344.5 178 L 343 178.5 L 343.5 174 L 345.5 175 L 348.5 171 Z " /><path fill="rgb(18,19,19)" stroke="rgb(18,19,19)" stroke-width="0.6" opacity="1" d="M 105.5 177 L 112 181.5 L 110.5 182 L 108.5 181 L 106.5 181 L 104 179.5 L 106 179.5 L 105.5 177 Z " /><path fill="rgb(18,19,19)" stroke="rgb(18,19,19)" stroke-width="0.6" opacity="1" d="M 151.5 183 L 156 185.5 L 155.5 188 Q 152.2 189.1 153 186.5 L 152.5 184 L 151.5 183 Z " /><path fill="rgb(18,19,19)" stroke="rgb(18,19,19)" stroke-width="0.6" opacity="1" d="M 114.5 184 L 120 187.5 L 118 188 L 119 190.5 L 115.5 188 L 113 186.5 L 115 186.5 L 114.5 184 Z " /><path fill="rgb(18,19,19)" stroke="rgb(18,19,19)" stroke-width="0.6" opacity="1" d="M 213.5 188 L 214.5 192 L 215.5 189 L 216 192.5 L 214.5 195 L 213.5 193 L 212 193.5 L 213.5 188 Z " /><path fill="rgb(18,19,19)" stroke="rgb(18,19,19)" stroke-width="0.6" opacity="1" d="M 451.5 206 L 453 219.5 L 451.5 224 L 450.5 220 L 449.5 222 L 449 207.5 L 450 207.5 L 450.5 211 L 451.5 206 Z " /><path fill="rgb(18,19,19)" stroke="rgb(18,19,19)" stroke-width="0.6" opacity="1" d="M 225.5 207 L 233 211.5 L 231.5 211 L 229.5 210 L 229 211.5 L 229.5 213 L 226 210.5 L 225.5 207 Z " /><path fill="rgb(18,19,19)" stroke="rgb(18,19,19)" stroke-width="0.6" opacity="1" d="M 396.5 207 L 401 209.5 L 400 211.5 L 402.5 215 L 396.5 207 Z " /><path fill="rgb(18,19,19)" stroke="rgb(18,19,19)" stroke-width="0.6" opacity="1" d="M 149.5 208 L 153.5 213 L 152 212.5 L 153 214.5 L 150 212.5 L 152 211.5 L 149.5 208 Z " /><path fill="rgb(18,19,19)" stroke="rgb(18,19,19)" stroke-width="0.6" opacity="1" d="M 289.5 208 L 291 208.5 L 288 210.5 L 290 211.5 L 286.5 213 L 286 210.5 Q 285.2 207.9 288.5 209 L 289.5 208 Z " /><path fill="rgb(18,19,19)" stroke="rgb(18,19,19)" stroke-width="0.6" opacity="1" d="M 95.5 211 L 112 211.5 L 95.5 212 L 95.5 211 Z " /><path fill="rgb(18,19,19)" stroke="rgb(18,19,19)" stroke-width="0.6" opacity="1" d="M 89.5 212 L 88.5 214 L 87 214.5 L 90 215.5 L 85.5 217 L 86.5 213 L 89.5 212 Z " /><path fill="rgb(18,19,19)" stroke="rgb(18,19,19)" stroke-width="0.6" opacity="1" d="M 95.5 213 L 110.5 213 L 112 214.5 L 110.5 214 L 95.5 214 L 94.5 215 L 95.5 213 Z " /><path fill="rgb(18,19,19)" stroke="rgb(18,19,19)" stroke-width="0.6" opacity="1" d="M 366 214 L 378 217 L 376.5 219 L 366 216 L 366 214 Z " /><path fill="rgb(18,19,19)" stroke="rgb(18,19,19)" stroke-width="0.6" opacity="1" d="M 47.5 216 L 50.5 217 L 52 216.5 L 47.5 220 L 45 218.5 L 47.5 216 Z " /><path fill="rgb(18,19,19)" stroke="rgb(18,19,19)" stroke-width="0.6" opacity="1" d="M 236.5 220 L 236 221.5 L 237 223.5 L 230.5 228 L 231 226.5 L 230.5 225 L 229 225.5 L 236.5 220 Z " /><path fill="rgb(18,19,19)" stroke="rgb(18,19,19)" stroke-width="0.6" opacity="1" d="M 123.5 221 L 125 223.5 L 118 229.5 L 119 227.5 L 118 226.5 L 123.5 221 Z " /><path fill="rgb(18,19,19)" stroke="rgb(18,19,19)" stroke-width="0.6" opacity="1" d="M 164.5 222 L 171 227.5 L 168 226.5 L 170 230.5 L 165 226.5 L 167 226.5 L 164.5 222 Z " /><path fill="rgb(18,19,19)" stroke="rgb(18,19,19)" stroke-width="0.6" opacity="1" d="M 62.5 223 L 55 231.5 L 54.5 233 L 53 229.5 L 58.5 224 L 59.5 225 L 62.5 223 Z " /><path fill="rgb(18,19,19)" stroke="rgb(18,19,19)" stroke-width="0.6" opacity="1" d="M 75.5 223 L 82 228.5 L 79.5 227 L 75.5 223 Z " /><path fill="rgb(18,19,19)" stroke="rgb(18,19,19)" stroke-width="0.6" opacity="1" d="M 254.5 224 L 253.5 227 L 256 227.5 L 250.5 230 L 250.5 229 L 252 228.5 L 250 227.5 L 254.5 224 Z " /><path fill="rgb(18,19,19)" stroke="rgb(18,19,19)" stroke-width="0.6" opacity="1" d="M 444.5 226 L 446 226.5 L 445.5 228 L 447 228.5 L 442.5 231 L 443.5 229 L 445 228.5 L 441 227.5 L 444.5 226 Z " /><path fill="rgb(18,19,19)" stroke="rgb(18,19,19)" stroke-width="0.6" opacity="1" d="M 172.5 229 L 183.5 241 L 182 240.5 L 181.5 242 L 171.5 231 L 173 230.5 L 172.5 229 Z " /><path fill="rgb(18,19,19)" stroke="rgb(18,19,19)" stroke-width="0.6" opacity="1" d="M 142.5 230 L 149.5 235 L 151 234.5 L 155 239.5 L 153.5 239 L 152 240.5 L 151 240.5 L 142.5 230 Z " /><path fill="rgb(18,19,19)" stroke="rgb(18,19,19)" stroke-width="0.6" opacity="1" d="M 220.5 231 L 219.5 234 L 221.5 233 L 220.5 235 L 216.5 238 L 218 235.5 L 220.5 231 Z " /><path fill="rgb(18,19,19)" stroke="rgb(18,19,19)" stroke-width="0.6" opacity="1" d="M 415.5 231 L 418 231.5 L 415 232.5 L 420 233.5 L 413.5 235 L 413.5 234 L 415 233.5 L 415.5 231 Z " /><path fill="rgb(18,19,19)" stroke="rgb(18,19,19)" stroke-width="0.6" opacity="1" d="M 244.5 233 L 242.5 236 L 236.5 240 L 239.5 236 L 244.5 233 Z " /><path fill="rgb(18,19,19)" stroke="rgb(18,19,19)" stroke-width="0.6" opacity="1" d="M 128.5 235 L 127 237.5 L 127.5 239 L 129 238.5 L 124.5 243 L 123.5 242 L 121 243.5 L 122 245.5 L 114.5 249 L 114.5 248 L 116 247.5 L 115.5 246 L 122 241.5 L 124.5 238 L 128.5 235 Z " /><path fill="rgb(18,19,19)" stroke="rgb(18,19,19)" stroke-width="0.6" opacity="1" d="M 321.5 235 L 322 238.5 L 318.5 243 L 317 242.5 L 318 240.5 L 316 240.5 L 319 238.5 L 318.5 240 L 321 238.5 L 321.5 235 Z " /><path fill="rgb(18,19,19)" stroke="rgb(18,19,19)" stroke-width="0.6" opacity="1" d="M 90.5 237 L 94.5 239 L 94.5 237 L 106 247.5 L 104.5 247 L 102 247.5 L 107 251.5 L 105.5 252 L 90.5 237 Z " /><path fill="rgb(18,19,19)" stroke="rgb(18,19,19)" stroke-width="0.6" opacity="1" d="M 209.5 240 L 210.5 242 L 212 241.5 L 205.5 247 L 208 243.5 L 207.5 242 L 206 242.5 L 209.5 240 Z " /><path fill="rgb(18,19,19)" stroke="rgb(18,19,19)" stroke-width="0.6" opacity="1" d="M 155.5 241 L 159 245.5 L 157.5 245 L 156 246.5 L 155 246.5 L 153 243.5 L 156 242.5 L 155.5 241 Z " /><path fill="rgb(18,19,19)" stroke="rgb(18,19,19)" stroke-width="0.6" opacity="1" d="M 228.5 241 L 226.5 245 L 230.5 243 L 229.5 245 L 223.5 249 L 224 247.5 L 223.5 246 L 222 246.5 L 228.5 241 Z " /><path fill="rgb(18,19,19)" stroke="rgb(18,19,19)" stroke-width="0.6" opacity="1" d="M 427.5 245 L 437 248.5 L 435.5 248 L 427.5 246 L 427.5 245 Z " /><path fill="rgb(18,19,19)" stroke="rgb(18,19,19)" stroke-width="0.6" opacity="1" d="M 191.5 248 L 194.5 252 L 192 251 L 194 255.5 L 193 255.5 L 189 250.5 L 191 250 L 191.5 248 Z " /><path fill="rgb(18,19,19)" stroke="rgb(18,19,19)" stroke-width="0.6" opacity="1" d="M 307.5 248 L 307.5 250 L 310.5 249 L 307.5 253 L 306.5 250 L 305 250.5 L 307.5 248 Z " /><path fill="rgb(18,19,19)" stroke="rgb(18,19,19)" stroke-width="0.6" opacity="1" d="M 438.5 249 L 444 251 L 444.5 249 L 449 251.5 L 447.5 252 L 445.5 251 L 446.5 254 L 438.5 249 Z " /><path fill="rgb(18,19,19)" stroke="rgb(18,19,19)" stroke-width="0.6" opacity="1" d="M 303.5 252 L 304.5 254 L 306 253.5 L 303.5 254 L 299.5 256 L 300.5 254 L 303.5 252 Z " /><path fill="rgb(18,19,19)" stroke="rgb(18,19,19)" stroke-width="0.6" opacity="1" d="M 162.5 253 Q 168.6 251.9 171 254.5 L 169.5 255 L 162.5 254 L 161 254.5 L 162.5 253 Z " /><path fill="rgb(18,19,19)" stroke="rgb(18,19,19)" stroke-width="0.6" opacity="1" d="M 173.5 253 L 178 255.5 L 176.5 255 L 175 256.5 L 173.5 256 L 172 255.5 L 174 254.5 L 173.5 253 Z " /><path fill="rgb(18,19,19)" stroke="rgb(18,19,19)" stroke-width="0.6" opacity="1" d="M 40.5 256 L 41.5 259 L 43.5 256 L 43 257.5 L 40.5 265 L 39.5 262 L 38 262.5 L 40.5 256 Z " /><path fill="rgb(18,19,19)" stroke="rgb(18,19,19)" stroke-width="0.6" opacity="1" d="M 300.5 258 L 299.5 260 L 294.5 264 L 298.5 259 L 300.5 258 Z " /><path fill="rgb(18,19,19)" stroke="rgb(18,19,19)" stroke-width="0.6" opacity="1" d="M 66.5 259 L 74 265.5 L 72.5 266 L 69.5 264 L 68.5 265 L 64 260.5 L 66.5 259 Z " /><path fill="rgb(18,19,19)" stroke="rgb(18,19,19)" stroke-width="0.6" opacity="1" d="M 115.5 260 L 119.5 262 L 122 262.5 L 121 264.5 L 122 266.5 L 121 266.5 L 118.5 263 L 115.5 260 Z " /><path fill="rgb(18,19,19)" stroke="rgb(18,19,19)" stroke-width="0.6" opacity="1" d="M 422.5 263 L 427 263.5 L 422 264.5 L 429 265.5 L 420 267 L 421.5 269 L 424 270.5 L 422 271.5 L 421.5 270 L 419.5 271 L 416 269.5 L 419 269 L 420.5 266 L 422 265.5 L 422.5 263 Z " /><path fill="rgb(18,19,19)" stroke="rgb(18,19,19)" stroke-width="0.6" opacity="1" d="M 439.5 263 L 447 263 L 447 266 L 436 265.5 L 445 264.5 L 439.5 264 L 439.5 263 Z " /><path fill="rgb(18,19,19)" stroke="rgb(18,19,19)" stroke-width="0.6" opacity="1" d="M 220.5 264 L 226 271.5 L 223 271.5 L 224 269.5 L 221.5 268 L 221.5 270 L 219 266.5 L 221 265.5 L 220.5 264 Z " /><path fill="rgb(18,19,19)" stroke="rgb(18,19,19)" stroke-width="0.6" opacity="1" d="M 413.5 266 L 412.5 268 L 409 270.5 L 407.5 274 L 407 272.5 L 411.5 267 L 413.5 266 Z " /><path fill="rgb(18,19,19)" stroke="rgb(18,19,19)" stroke-width="0.6" opacity="1" d="M 453.5 267 L 460.5 273 L 461.5 271 L 464 274.5 L 462 275 L 461.5 277 L 453.5 267 Z " /><path fill="rgb(18,19,19)" stroke="rgb(18,19,19)" stroke-width="0.6" opacity="1" d="M 71.5 268 L 69 271.5 L 67.5 275 L 67 273.5 L 68 271.5 L 66 271.5 L 67.5 269 L 68.5 271 L 71.5 268 Z " /><path fill="rgb(18,19,19)" stroke="rgb(18,19,19)" stroke-width="0.6" opacity="1" d="M 78.5 270 L 89 279.5 L 87 280.5 L 87.5 282 L 85 278 L 82.5 278 L 77 272.5 L 79 272.5 L 78.5 270 Z " /><path fill="rgb(18,19,19)" stroke="rgb(18,19,19)" stroke-width="0.6" opacity="1" d="M 283.5 270 L 284.5 272 L 286 271.5 L 281.5 275 L 282 273.5 L 281.5 272 Q 279.5 275 273.5 274 L 273.5 273 Q 280.9 273.9 283.5 270 Z " /><path fill="rgb(18,19,19)" stroke="rgb(18,19,19)" stroke-width="0.6" opacity="1" d="M 35.5 271 L 36.5 276 L 37.5 273 L 38 275.5 L 36.5 279 L 35.5 276 L 34.5 279 L 34 276.5 L 35.5 271 Z " /><path fill="rgb(18,19,19)" stroke="rgb(18,19,19)" stroke-width="0.6" opacity="1" d="M 114.5 271 Q 116.6 274.2 111 277.5 L 110.5 279 L 109.5 277 L 108 277.5 L 114.5 271 Z " /><path fill="rgb(18,19,19)" stroke="rgb(18,19,19)" stroke-width="0.6" opacity="1" d="M 127 273 L 133 276.5 L 131 276.5 L 129.5 278 L 127 273 Z " /><path fill="rgb(18,19,19)" stroke="rgb(18,19,19)" stroke-width="0.6" opacity="1" d="M 361.5 274 L 358.5 278 L 357 278.5 L 359 279.5 L 355.5 282 L 355.5 280 L 354 279.5 L 361.5 274 Z " /><path fill="rgb(18,19,19)" stroke="rgb(18,19,19)" stroke-width="0.6" opacity="1" d="M 158.5 275 L 164 279.5 L 162 279.5 L 163.5 282 L 165 280.5 L 167 281.5 L 165 282.5 L 165.5 284 L 156 276.5 L 158.5 275 Z " /><path fill="rgb(18,19,19)" stroke="rgb(18,19,19)" stroke-width="0.6" opacity="1" d="M 433.5 276 L 442 285.5 L 440 286.5 L 434 279.5 L 433.5 276 Z " /><path fill="rgb(18,19,19)" stroke="rgb(18,19,19)" stroke-width="0.6" opacity="1" d="M 405.5 281 L 406 291.5 L 405 291.5 L 405.5 281 Z " /><path fill="rgb(18,19,19)" stroke="rgb(18,19,19)" stroke-width="0.6" opacity="1" d="M 407.5 282 L 408 292.5 L 407 292.5 L 407.5 282 Z " /><path fill="rgb(18,19,19)" stroke="rgb(18,19,19)" stroke-width="0.6" opacity="1" d="M 141.5 283 L 145 288.5 L 141.5 286 L 139 284.5 L 141 284.5 L 141.5 283 Z " /><path fill="rgb(18,19,19)" stroke="rgb(18,19,19)" stroke-width="0.6" opacity="1" d="M 419.5 283 L 425.5 286 L 425.5 284 L 438 298.5 L 436 298.5 L 435.5 300 L 432 295.5 L 435 296.5 L 433.5 294 L 431.5 294 L 419.5 283 Z " /><path fill="rgb(18,19,19)" stroke="rgb(18,19,19)" stroke-width="0.6" opacity="1" d="M 343.5 285 L 344.5 287 L 347 285.5 L 343.5 291 L 341 290 L 343.5 285 Z " /><path fill="rgb(18,19,19)" stroke="rgb(18,19,19)" stroke-width="0.6" opacity="1" d="M 92.5 287 Q 95.3 292.4 98 290.5 L 96.5 292 L 92.5 287 Z " /><path fill="rgb(18,19,19)" stroke="rgb(18,19,19)" stroke-width="0.6" opacity="1" d="M 175.5 287 L 179 289.5 L 180 291.5 Q 177.5 293.5 175 289.5 L 175.5 287 Z " /><path fill="rgb(18,19,19)" stroke="rgb(18,19,19)" stroke-width="0.6" opacity="1" d="M 413.5 298 L 415.5 299 L 417.5 298 Q 421.8 299.7 419 301.5 L 420 303.5 L 416.5 301 L 413.5 298 Z " /><path fill="rgb(18,19,19)" stroke="rgb(18,19,19)" stroke-width="0.6" opacity="1" d="M 106.5 299 L 108 300.5 L 104.5 304 L 103.5 303 L 101.5 304 L 103.5 301 L 106.5 299 Z " /><path fill="rgb(18,19,19)" stroke="rgb(18,19,19)" stroke-width="0.6" opacity="1" d="M 226.5 300 L 227 301.5 L 223.5 306 L 222.5 304 L 220 305.5 L 223.5 301 L 223.5 303 L 226 301.5 L 226.5 300 Z " /><path fill="rgb(18,19,19)" stroke="rgb(18,19,19)" stroke-width="0.6" opacity="1" d="M 217.5 308 L 215 311.5 L 213.5 313 L 211.5 314 L 211.5 313 L 217.5 308 Z " /><path fill="rgb(18,19,19)" stroke="rgb(18,19,19)" stroke-width="0.6" opacity="1" d="M 399.5 309 L 400.5 311 L 401.5 309 L 405 311.5 L 402.5 313 L 399 310.5 L 399.5 309 Z " /><path fill="rgb(18,19,19)" stroke="rgb(18,19,19)" stroke-width="0.6" opacity="1" d="M 36.5 311 L 39.5 320 L 40.5 317 L 44 325.5 L 43 325.5 L 40.5 320 L 39.5 323 L 36 314.5 L 36.5 311 Z " /><path fill="rgb(18,19,19)" stroke="rgb(18,19,19)" stroke-width="0.6" opacity="1" d="M 313.5 311 L 314 321.5 L 313 321.5 L 313.5 311 Z " /><path fill="rgb(18,19,19)" stroke="rgb(18,19,19)" stroke-width="0.6" opacity="1" d="M 315.5 311 L 316 321.5 L 315 321.5 L 315.5 311 Z " /><path fill="rgb(18,19,19)" stroke="rgb(18,19,19)" stroke-width="0.6" opacity="1" d="M 172.5 313 L 174 313.5 L 173.5 315 L 175 315.5 L 168.5 321 L 168.5 319 L 166 320.5 L 165.5 322 L 165 320.5 L 169.5 315 L 172.5 313 Z " /><path fill="rgb(18,19,19)" stroke="rgb(18,19,19)" stroke-width="0.6" opacity="1" d="M 333 313 L 336 314.5 L 336 334.5 L 333 335 L 333 327.5 Q 336.5 328.3 335 322 L 333 321.5 L 333 313 Z " /><path fill="rgb(18,19,19)" stroke="rgb(18,19,19)" stroke-width="0.6" opacity="1" d="M 71.5 314 L 80 321.5 L 78.5 322 L 76.5 321 L 77.5 323 L 79 323.5 L 77.5 324 L 70 315.5 L 71.5 314 Z " /><path fill="rgb(18,19,19)" stroke="rgb(18,19,19)" stroke-width="0.6" opacity="1" d="M 408.5 315 L 410 317.5 L 409.5 319 Q 412.1 318.2 411 321.5 L 409 320.5 L 408 317.5 L 408.5 315 Z " /><path fill="rgb(18,19,19)" stroke="rgb(18,19,19)" stroke-width="0.6" opacity="1" d="M 152.5 317 L 160 321.5 L 158.5 322 L 152.5 317 Z " /><path fill="rgb(18,19,19)" stroke="rgb(18,19,19)" stroke-width="0.6" opacity="1" d="M 397.5 318 L 401 319.5 L 402 326 Q 398.3 327.4 400 321.5 L 397.5 318 Z " /><path fill="rgb(18,19,19)" stroke="rgb(18,19,19)" stroke-width="0.6" opacity="1" d="M 453 319 L 455 319.5 L 455 330 L 453 329.5 L 453 319 Z " /><path fill="rgb(18,19,19)" stroke="rgb(18,19,19)" stroke-width="0.6" opacity="1" d="M 86.5 325 L 90 326.5 L 89.5 329 L 85 327.5 L 88 326.5 L 86.5 325 Z " /><path fill="rgb(18,19,19)" stroke="rgb(18,19,19)" stroke-width="0.6" opacity="1" d="M 102.5 325 L 105 325.5 L 103 326.5 L 107 327.5 L 100.5 329 L 100.5 328 L 102 327.5 L 100 326.5 L 102.5 325 Z " /><path fill="rgb(18,19,19)" stroke="rgb(18,19,19)" stroke-width="0.6" opacity="1" d="M 64.5 327 L 70.5 334 L 65.5 330 L 65.5 332 L 63 328.5 L 64.5 327 Z " /><path fill="rgb(18,19,19)" stroke="rgb(18,19,19)" stroke-width="0.6" opacity="1" d="M 45.5 329 L 49 334.5 L 46 333.5 L 45.5 335 L 43 331.5 L 45 331.5 L 45.5 329 Z " /><path fill="rgb(18,19,19)" stroke="rgb(18,19,19)" stroke-width="0.6" opacity="1" d="M 410.5 329 L 412 329.5 L 408.5 336 L 407.5 335 L 404 337.5 L 410 332.5 L 409 330.5 L 410.5 329 Z " /><path fill="rgb(18,19,19)" stroke="rgb(18,19,19)" stroke-width="0.6" opacity="1" d="M 125.5 330 L 122.5 335 L 124.5 334 L 123.5 336 L 119.5 339 L 120 335.5 L 125.5 330 Z " /><path fill="rgb(18,19,19)" stroke="rgb(18,19,19)" stroke-width="0.6" opacity="1" d="M 171.5 335 L 181 338.5 L 180.5 341 L 174 339.5 L 177 338.5 Q 171.8 338 171.5 335 Z " /><path fill="rgb(18,19,19)" stroke="rgb(18,19,19)" stroke-width="0.6" opacity="1" d="M 74.5 336 L 80 339.5 L 78.5 339 L 75.5 340 L 73 338.5 L 75 337.5 L 74.5 336 Z " /><path fill="rgb(18,19,19)" stroke="rgb(18,19,19)" stroke-width="0.6" opacity="1" d="M 204.5 341 L 212 342.5 L 208 343.5 L 212 344.5 L 208.5 345 L 204 343.5 L 208 342.5 Q 203.6 342.9 204.5 341 Z " /><path fill="rgb(18,19,19)" stroke="rgb(18,19,19)" stroke-width="0.6" opacity="1" d="M 442.5 342 L 442 343.5 L 439.5 351 L 439 349.5 L 441 345.5 L 439 344.5 L 442.5 342 Z " /><path fill="rgb(18,19,19)" stroke="rgb(18,19,19)" stroke-width="0.6" opacity="1" d="M 423.5 344 L 424 345.5 L 423 347.5 L 424 349.5 L 418.5 356 L 418 354 L 415.5 355 L 422 347.5 L 423.5 344 Z " /><path fill="rgb(18,19,19)" stroke="rgb(18,19,19)" stroke-width="0.6" opacity="1" d="M 57.5 346 L 64 351.5 L 62 352 L 61.5 354 L 55.5 347 L 57.5 346 Z " /><path fill="rgb(18,19,19)" stroke="rgb(18,19,19)" stroke-width="0.6" opacity="1" d="M 247.5 347 L 253 347.5 L 247.5 350 L 247.5 349 L 250 348.5 L 247.5 347 Z " /><path fill="rgb(18,19,19)" stroke="rgb(18,19,19)" stroke-width="0.6" opacity="1" d="M 473.5 347 L 474.5 350 L 475.5 348 L 476 350.5 L 474 351.5 L 473.5 350 L 471.5 355 L 471 353.5 L 473.5 347 Z " /><path fill="rgb(18,19,19)" stroke="rgb(18,19,19)" stroke-width="0.6" opacity="1" d="M 260.5 349 L 268 350.5 L 265 351.5 L 268 352.5 L 264.5 353 L 260 351.5 L 264 350.5 Q 259.6 350.9 260.5 349 Z " /><path fill="rgb(18,19,19)" stroke="rgb(18,19,19)" stroke-width="0.6" opacity="1" d="M 373.5 349 L 377.5 354 L 380 355.5 L 378 356 L 377.5 358 L 375.5 355 L 377 355.5 L 373.5 349 Z " /><path fill="rgb(18,19,19)" stroke="rgb(18,19,19)" stroke-width="0.6" opacity="1" d="M 273.5 351 L 281 352.5 L 278 353.5 L 281 354.5 L 277.5 355 L 273 353.5 L 276 352.5 L 273.5 351 Z " /><path fill="rgb(18,19,19)" stroke="rgb(18,19,19)" stroke-width="0.6" opacity="1" d="M 299.5 355 L 307 356.5 L 304 357.5 L 307 358.5 L 303.5 359 L 297 357.5 L 303 356.5 Q 298.6 356.9 299.5 355 Z " /><path fill="rgb(18,19,19)" stroke="rgb(18,19,19)" stroke-width="0.6" opacity="1" d="M 365.5 361 L 371 367.5 L 369.5 369 L 364 363.5 L 365.5 361 Z " /><path fill="rgb(18,19,19)" stroke="rgb(18,19,19)" stroke-width="0.6" opacity="1" d="M 84.5 363 L 89 364.5 L 85 365.5 L 87 366.5 L 85.5 367 L 82 365.5 L 85 364.5 L 84.5 363 Z " /><path fill="rgb(18,19,19)" stroke="rgb(18,19,19)" stroke-width="0.6" opacity="1" d="M 123.5 363 L 125 363.5 L 124.5 365 L 128.5 364 L 128.5 365 L 123.5 367 L 123.5 365 L 116 366.5 L 121 367.5 L 112.5 369 L 112.5 368 L 116 367.5 L 112 366.5 L 123.5 363 Z " /><path fill="rgb(18,19,19)" stroke="rgb(18,19,19)" stroke-width="0.6" opacity="1" d="M 467.5 363 L 468.5 365 L 470 364.5 L 468.5 367 L 467.5 365 L 467 367 L 465 366.5 L 467.5 363 Z " /><path fill="rgb(18,19,19)" stroke="rgb(18,19,19)" stroke-width="0.6" opacity="1" d="M 427.5 364 L 428.5 366 L 430 365.5 L 422 372.5 L 422 369.5 L 427.5 364 Z " /><path fill="rgb(18,19,19)" stroke="rgb(18,19,19)" stroke-width="0.6" opacity="1" d="M 90.5 365 Q 95.9 363.1 95 366.5 L 94.5 369 L 88 367.5 L 92 366.5 L 90.5 365 Z " /><path fill="rgb(18,19,19)" stroke="rgb(18,19,19)" stroke-width="0.6" opacity="1" d="M 375.5 373 L 379.5 375 L 379.5 373 L 383 374.5 L 380 375.5 L 380.5 377 L 375.5 373 Z " /><path fill="rgb(18,19,19)" stroke="rgb(18,19,19)" stroke-width="0.6" opacity="1" d="M 389.5 377 L 395 378.5 L 392 379.5 L 396 381.5 L 394.5 381 L 388 379.5 L 391 378.5 L 389.5 377 Z " /><path fill="rgb(18,19,19)" stroke="rgb(18,19,19)" stroke-width="0.6" opacity="1" d="M 453.5 382 L 454.5 384 L 456 383.5 L 453 385.5 L 452.5 384 L 449.5 386 L 450.5 384 L 453.5 382 Z " /><path fill="rgb(18,19,19)" stroke="rgb(18,19,19)" stroke-width="0.6" opacity="1" d="M 365.5 386 L 370 389.5 L 367 390.5 L 367.5 392 L 364 389.5 L 366 389 L 365.5 386 Z " /><path fill="rgb(18,19,19)" stroke="rgb(18,19,19)" stroke-width="0.6" opacity="1" d="M 444.5 389 L 445 391 L 447 391.5 L 437.5 397 L 438.5 395 L 441 393.5 L 439 392.5 L 444.5 389 Z " /><path fill="rgb(18,19,19)" stroke="rgb(18,19,19)" stroke-width="0.6" opacity="1" d="M 380.5 395 L 389 398.5 L 388.5 401 L 383 399.5 L 386 398.5 L 381.5 397 L 381.5 399 L 376 396.5 L 377.5 396 L 380.5 397 L 380.5 395 Z " /><path fill="rgb(18,19,19)" stroke="rgb(18,19,19)" stroke-width="0.6" opacity="1" d="M 430.5 396 L 432 396.5 L 429 398.5 L 431 399.5 L 426.5 401 L 427.5 397 L 430.5 396 Z " /><path fill="rgb(18,19,19)" stroke="rgb(18,19,19)" stroke-width="0.6" opacity="1" d="M 392.5 399 L 399 400.5 L 395 401.5 L 399 402.5 L 394.5 403 L 390 401.5 L 395 400.5 L 392.5 399 Z " /><path fill="rgb(18,19,19)" stroke="rgb(18,19,19)" stroke-width="0.6" opacity="1" d="M 420.5 399 L 423 399.5 L 420 400.5 L 425 401.5 L 416.5 403 L 416.5 402 L 419 401.5 L 416 400.5 L 420.5 399 Z " /><path fill="rgb(36,38,38)" stroke="rgb(36,38,38)" stroke-width="0.6" opacity="1" d="M 90.5 162 L 96.5 169 L 90.5 162 Z " /><path fill="rgb(36,38,38)" stroke="rgb(36,38,38)" stroke-width="0.6" opacity="1" d="M 111.5 162 L 117 165 L 116.5 167 L 112 164.5 L 111.5 163 L 110 163.5 L 111.5 162 Z " /><path fill="rgb(36,38,38)" stroke="rgb(36,38,38)" stroke-width="0.6" opacity="1" d="M 138.5 205 L 128.5 216 L 138.5 205 Z " /><path fill="rgb(36,38,38)" stroke="rgb(36,38,38)" stroke-width="0.6" opacity="1" d="M 357.5 212 L 366 213 Q 367.3 216.3 362.5 215 L 357.5 212 Z " /><path fill="rgb(36,38,38)" stroke="rgb(36,38,38)" stroke-width="0.6" opacity="1" d="M 132.5 216 L 127.5 222 L 132.5 216 Z " /><path fill="rgb(36,38,38)" stroke="rgb(36,38,38)" stroke-width="0.6" opacity="1" d="M 170.5 231 L 181.5 243 L 170.5 231 Z " /><path fill="rgb(36,38,38)" stroke="rgb(36,38,38)" stroke-width="0.6" opacity="1" d="M 185.5 246 L 188.5 250 L 185 247.5 L 184.5 250 L 184 247.5 L 185.5 246 Z " /><path fill="rgb(36,38,38)" stroke="rgb(36,38,38)" stroke-width="0.6" opacity="1" d="M 110.5 248 L 110 249.5 L 114 254.5 L 109 250.5 L 110.5 248 Z " /><path fill="rgb(36,38,38)" stroke="rgb(36,38,38)" stroke-width="0.6" opacity="1" d="M 370.5 283 L 365.5 289 L 370.5 283 Z " /><path fill="rgb(36,38,38)" stroke="rgb(36,38,38)" stroke-width="0.6" opacity="1" d="M 95.5 291 L 98 291.5 L 94.5 297 L 95 295.5 L 94 293.5 L 95.5 291 Z " /><path fill="rgb(36,38,38)" stroke="rgb(36,38,38)" stroke-width="0.6" opacity="1" d="M 247.5 335 L 261 339.5 L 257.5 340 L 248.5 337 L 247.5 335 Z " /><path fill="rgb(36,38,38)" stroke="rgb(36,38,38)" stroke-width="0.6" opacity="1" d="M 56.5 344 L 62.5 351 L 56.5 344 Z " /><path fill="rgb(36,38,38)" stroke="rgb(36,38,38)" stroke-width="0.6" opacity="1" d="M 364.5 364 L 369.5 370 L 364.5 364 Z " /><path fill="rgb(57,56,53)" stroke="rgb(57,56,53)" stroke-width="0.6" opacity="1" d="M 393.5 115 L 398.5 121 L 393.5 115 Z " /><path fill="rgb(57,56,53)" stroke="rgb(57,56,53)" stroke-width="0.6" opacity="1" d="M 141.5 207 L 143 207.5 L 133.5 216 L 141.5 207 Z " /><path fill="rgb(57,56,53)" stroke="rgb(57,56,53)" stroke-width="0.6" opacity="1" d="M 126.5 222 L 118.5 231 L 126.5 222 Z " /><path fill="rgb(57,56,53)" stroke="rgb(57,56,53)" stroke-width="0.6" opacity="1" d="M 396.5 223 L 406 225 L 404.5 227 L 396.5 224 L 396.5 223 Z " /><path fill="rgb(57,56,53)" stroke="rgb(57,56,53)" stroke-width="0.6" opacity="1" d="M 202.5 245 L 197.5 251 L 202.5 245 Z " /><path fill="rgb(57,56,53)" stroke="rgb(57,56,53)" stroke-width="0.6" opacity="1" d="M 427.5 262 L 439 262.5 L 427.5 263 L 427.5 262 Z " /><path fill="rgb(57,56,53)" stroke="rgb(57,56,53)" stroke-width="0.6" opacity="1" d="M 172 289 L 177 291.5 L 178 296 Q 174 297.2 176 291 Q 170.8 292.7 172 289 Z " /><path fill="rgb(57,56,53)" stroke="rgb(57,56,53)" stroke-width="0.6" opacity="1" d="M 331 319 L 333 319.5 L 333 330.5 L 331 329.5 L 331 319 Z " /><path fill="rgb(85,82,74)" stroke="rgb(85,82,74)" stroke-width="0.6" opacity="1" d="M 88.5 131 L 98.5 131 L 100 132.5 L 87.5 133 L 88.5 131 Z " /><path fill="rgb(85,82,74)" stroke="rgb(85,82,74)" stroke-width="0.6" opacity="1" d="M 142.5 138 L 145 139.5 L 139.5 144 L 139 142.5 L 142.5 138 Z " /><path fill="rgb(85,82,74)" stroke="rgb(85,82,74)" stroke-width="0.6" opacity="1" d="M 86.5 163 L 93.5 171 L 86.5 163 Z " /><path fill="rgb(85,82,74)" stroke="rgb(85,82,74)" stroke-width="0.6" opacity="1" d="M 173.5 229 L 185 239.5 L 184.5 241 L 173.5 229 Z " /><path fill="rgb(85,82,74)" stroke="rgb(85,82,74)" stroke-width="0.6" opacity="1" d="M 402.5 243 L 413 243.5 L 402.5 244 L 402.5 243 Z " /><path fill="rgb(85,82,74)" stroke="rgb(85,82,74)" stroke-width="0.6" opacity="1" d="M 440.5 366 L 435.5 372 L 440.5 366 Z " /><path fill="rgb(114,89,55)" stroke="rgb(114,89,55)" stroke-width="0.6" opacity="1" d="M 392.5 120 L 397.5 126 L 392.5 120 Z " /><path fill="rgb(114,89,55)" stroke="rgb(114,89,55)" stroke-width="0.6" opacity="1" d="M 324.5 172 L 330 173.5 L 331 179.5 L 330 179.5 L 329 173 Q 323.6 174.3 324.5 172 Z " /><path fill="rgb(114,89,55)" stroke="rgb(114,89,55)" stroke-width="0.6" opacity="1" d="M 172.5 234 L 180.5 243 L 172.5 234 Z " /><path fill="rgb(114,89,55)" stroke="rgb(114,89,55)" stroke-width="0.6" opacity="1" d="M 125.5 236 L 117.5 245 L 125.5 236 Z " /><path fill="rgb(114,89,55)" stroke="rgb(114,89,55)" stroke-width="0.6" opacity="1" d="M 356.5 264 L 351.5 270 L 356.5 264 Z " /><path fill="rgb(115,110,102)" stroke="rgb(115,110,102)" stroke-width="0.6" opacity="1" d="M 335.5 281 L 336 282.5 L 330.5 287 L 335.5 281 Z " /><path fill="rgb(147,139,119)" stroke="rgb(147,139,119)" stroke-width="0.6" opacity="1" d="M 87.5 127 L 100 127.5 L 87.5 128 L 87.5 127 Z " /><path fill="rgb(147,139,119)" stroke="rgb(147,139,119)" stroke-width="0.6" opacity="1" d="M 402 238 L 412 239.5 L 402 240 L 402 238 Z " /><path fill="rgb(147,139,119)" stroke="rgb(147,139,119)" stroke-width="0.6" opacity="1" d="M 114.5 260 L 120.5 267 L 114.5 260 Z " /><path fill="rgb(147,139,119)" stroke="rgb(147,139,119)" stroke-width="0.6" opacity="1" d="M 429.5 266 L 442 266.5 L 429.5 267 L 429.5 266 Z " /><path fill="rgb(186,161,107)" stroke="rgb(186,161,107)" stroke-width="0.6" opacity="1" d="M 93.5 241 L 98.5 247 L 93.5 241 Z " /><path fill="rgb(186,161,107)" stroke="rgb(186,161,107)" stroke-width="0.6" opacity="1" d="M 57.5 344 L 62.5 350 L 57.5 344 Z " /><path fill="rgb(140,99,74)" stroke="rgb(140,99,74)" stroke-width="0.6" opacity="1" d="M 383.5 114 L 391 118.5 L 389.5 119 L 383.5 114 Z " /><path fill="rgb(140,99,74)" stroke="rgb(140,99,74)" stroke-width="0.6" opacity="1" d="M 162.5 225 L 171 232.5 L 169.5 233 L 162.5 225 Z " /><path fill="rgb(140,99,74)" stroke="rgb(140,99,74)" stroke-width="0.6" opacity="1" d="M 402.5 244 L 413 244.5 L 402.5 245 L 402.5 244 Z " /><path fill="rgb(140,99,74)" stroke="rgb(140,99,74)" stroke-width="0.6" opacity="1" d="M 162.5 249 Q 170.1 247.9 173 251.5 L 171.5 251 L 162.5 250 L 162.5 249 Z " /><path fill="rgb(140,99,74)" stroke="rgb(140,99,74)" stroke-width="0.6" opacity="1" d="M 89.5 288 L 93 288.5 L 89 290.5 L 90.5 294 L 93 294.5 L 90.5 296 L 87 290.5 L 89.5 288 Z " /><path fill="rgb(140,99,74)" stroke="rgb(140,99,74)" stroke-width="0.6" opacity="1" d="M 429.5 312 L 432 320.5 L 430 319.5 L 429.5 312 Z " /><path fill="rgb(140,99,74)" stroke="rgb(140,99,74)" stroke-width="0.6" opacity="1" d="M 404.5 315 L 409 321.5 L 407 320.5 L 404.5 315 Z " /><path fill="rgb(140,99,74)" stroke="rgb(140,99,74)" stroke-width="0.6" opacity="1" d="M 440.5 321 L 442 328.5 L 440.5 331 L 440.5 321 Z " /><path fill="rgb(210,210,209)" stroke="rgb(210,210,209)" stroke-width="0.6" opacity="1" d="M 137.5 205 L 128.5 215 L 126 214.5 L 137.5 205 Z " /><path fill="rgb(210,210,209)" stroke="rgb(210,210,209)" stroke-width="0.6" opacity="1" d="M 53.5 347 L 58.5 353 L 53.5 347 Z " /><path fill="rgb(210,210,209)" stroke="rgb(210,210,209)" stroke-width="0.6" opacity="1" d="M 460.5 380 L 453.5 388 L 460.5 380 Z " /></svg>