<svg width="627" height="627" preserveAspectRatio="xMidYMid meet" viewBox="0 0 512 512" version="1.1" xmlns="http://www.w3.org/2000/svg" ><path fill="rgb(255,255,255)" stroke="rgb(255,255,255)" stroke-width="0.6" opacity="1" d="M 0 0 L 512 0 L 512 512 L 0 512 L 0 0 Z M 268 79 L 258 83 Q 245 90 247 112 L 234 123 L 229 131 L 229 135 L 220 135 L 217 132 Q 207 120 189 116 L 178 116 L 163 119 L 157 113 L 158 108 Q 160 95 155 89 Q 152 83 145 81 Q 135 80 132 84 L 124 96 Q 122 110 128 116 Q 132 123 146 122 L 147 121 L 151 126 L 151 129 L 146 138 L 145 139 L 125 139 L 123 140 L 118 146 L 119 155 L 125 159 L 145 159 L 150 170 L 158 177 L 149 182 L 134 200 L 116 234 L 107 260 L 107 272 L 85 281 L 69 293 Q 56 303 51 321 L 52 326 L 61 330 L 51 352 L 48 371 Q 49 398 62 413 Q 73 428 96 433 L 120 432 Q 133 428 142 420 Q 162 403 164 368 Q 181 383 211 386 L 244 386 L 288 381 L 293 381 L 301 386 L 326 385 L 335 381 L 344 399 Q 355 414 378 418 Q 403 420 416 408 Q 435 394 439 365 Q 440 350 437 340 L 440 341 L 448 340 L 451 335 L 450 330 L 452 328 L 460 327 L 464 322 Q 465 310 461 304 Q 460 299 454 300 L 451 298 L 446 283 L 449 277 Q 451 262 445 256 Q 440 247 426 248 L 419 238 L 408 228 L 409 225 Q 411 210 406 204 Q 402 197 393 195 L 368 196 L 327 208 L 283 209 Q 272 211 265 216 Q 253 224 250 242 L 251 253 L 256 260 L 262 284 Q 263 311 251 326 L 249 328 L 244 329 L 210 330 Q 201 311 198 286 L 200 262 L 211 226 L 215 207 Q 215 195 210 189 L 210 186 L 219 169 L 237 171 Q 248 173 252 166 L 278 170 L 286 168 Q 290 165 291 159 L 289 152 Q 286 147 280 146 L 253 144 L 246 138 Q 240 140 242 134 L 256 122 L 268 127 Q 278 127 284 123 Q 291 118 294 108 Q 296 93 289 88 Q 283 78 268 79 Z " /><path fill="rgb(213,61,57)" stroke="rgb(213,61,57)" stroke-width="0.6" opacity="1" d="M 264.5 85 Q 280.3 82.3 285 90.5 Q 289.9 95.1 289 105.5 Q 287.3 113.8 281.5 118 Q 276.7 122.7 265.5 121 L 260 117.5 Q 261.3 109.3 255.5 108 L 252 106.5 Q 251.3 92.8 259.5 88 L 264.5 85 Z " /><path fill="rgb(213,61,57)" stroke="rgb(213,61,57)" stroke-width="0.6" opacity="1" d="M 178.5 121 Q 204.7 121.3 215 137.5 L 216.5 140 L 229.5 141 L 234 143.5 Q 226.9 147.4 229 160.5 L 230 164.5 L 228.5 164 L 208.5 164 L 204 166.5 L 205.5 169 L 210.5 168 L 212 170.5 L 205.5 183 L 193.5 178 L 179.5 176 L 178 174.5 Q 189.3 165.8 190 146.5 L 188 135.5 L 179.5 124 L 178 123.5 L 178.5 121 Z " /><path fill="rgb(213,61,57)" stroke="rgb(213,61,57)" stroke-width="0.6" opacity="1" d="M 246.5 149 L 273 151 Q 269.9 154.8 271 163 L 246.5 160 L 244 157.5 Q 243 151 246.5 149 Z " /><path fill="rgb(213,61,57)" stroke="rgb(213,61,57)" stroke-width="0.6" opacity="1" d="M 168.5 180 Q 182.4 179.6 192.5 183 L 206 191.5 Q 211.3 197.7 209 211.5 L 195 259.5 Q 191.7 272.2 193 289.5 Q 196.8 316.2 206 337.5 Q 210.4 350.1 219.5 358 Q 229.7 366.3 250.5 364 L 317.5 356 L 335.5 352 L 343.5 348 Q 347.2 350.2 342 352.5 L 334.5 361 Q 322.6 371.1 303.5 374 L 253.5 380 L 220.5 381 Q 203.4 377.6 195 365.5 L 184 345.5 L 168 300.5 Q 161.8 288.7 151.5 281 L 133.5 273 L 113.5 272 L 112 270.5 Q 111.1 260.1 114 253.5 L 124 228.5 Q 134.3 203.7 151.5 186 Q 157.6 180.6 168.5 180 Z M 163 184 L 139 221 L 122 254 L 121 260 L 125 263 L 131 264 Q 143 266 149 262 L 153 257 L 186 188 L 184 186 L 148 258 L 143 261 L 129 260 L 125 258 Q 142 219 164 187 L 163 184 Z " /><path fill="rgb(213,61,57)" stroke="rgb(213,61,57)" stroke-width="0.6" opacity="1" d="M 405.5 233 L 413 238.5 L 419 246.5 L 419 249.5 L 416.5 248 L 397 240.5 L 398.5 239 L 405.5 233 Z " /><path fill="rgb(213,61,57)" stroke="rgb(213,61,57)" stroke-width="0.6" opacity="1" d="M 111.5 277 Q 125.2 275.3 133.5 279 Q 144.9 283.6 151 293.5 Q 166.3 315.7 170 349.5 L 166.5 352 L 157 346.5 Q 150.9 332.6 140.5 323 Q 130.9 315.6 113.5 316 Q 94.7 317.7 80.5 324 L 60.5 325 L 57 322.5 Q 62.2 302.2 77.5 292 Q 90.7 280.7 111.5 277 Z " /><path fill="rgb(213,61,57)" stroke="rgb(213,61,57)" stroke-width="0.6" opacity="1" d="M 388.5 346 L 397 347 Q 398.4 350.7 392.5 349 L 389.5 348 L 386 349 L 387.5 347 L 388.5 346 Z " /><path fill="rgb(213,61,57)" stroke="rgb(213,61,57)" stroke-width="0.6" opacity="1" d="M 108.5 349 Q 115.8 346.4 114 352.5 Q 112 360 106 363.5 L 104 371.5 L 108.5 380 Q 111.8 383.2 119.5 382 L 128.5 375 L 128 376.5 Q 126.5 385 120.5 389 L 109.5 392 Q 102 390.6 98 385.5 Q 91.8 379.2 94 364.5 Q 96.2 356.2 102.5 352 L 108.5 349 Z " /><path fill="rgb(213,61,57)" stroke="rgb(213,61,57)" stroke-width="0.6" opacity="1" d="M 329.5 370 Q 334.1 368.6 332 374.5 L 328.5 379 L 304.5 381 L 305 379.5 Q 304.1 376.1 309.5 378 L 329.5 370 Z " /><path fill="rgb(55,124,180)" stroke="rgb(55,124,180)" stroke-width="0.6" opacity="1" d="M 165.5 131 Q 173.1 130.4 175 135.5 Q 179.7 141.3 178 153.5 Q 176.2 161.2 170.5 165 L 163.5 166 Q 154.6 161.4 155 147.5 Q 156 136.5 163.5 132 L 165.5 131 Z " /><path fill="rgb(55,124,180)" stroke="rgb(55,124,180)" stroke-width="0.6" opacity="1" d="M 277.5 152 Q 284.8 150.8 286 155.5 L 285 163 L 278.5 165 L 275 162.5 L 274 157.5 L 277.5 152 Z " /><path fill="rgb(55,124,180)" stroke="rgb(55,124,180)" stroke-width="0.6" opacity="1" d="M 381.5 244 Q 414.8 245.2 430 264.5 Q 445 280.5 448 308.5 L 445.5 311 L 397.5 318 L 356.5 327 L 335.5 328 Q 321.5 327 315 318.5 Q 309.1 310.9 311 295.5 Q 315.3 271.8 331.5 260 L 352.5 249 L 381.5 244 Z " /><path fill="rgb(55,124,180)" stroke="rgb(55,124,180)" stroke-width="0.6" opacity="1" d="M 428.5 253 Q 436.9 252.1 440 256.5 Q 445.3 263.1 444 275 L 442 273.5 L 427 254.5 L 428.5 253 Z " /><path fill="rgb(55,124,180)" stroke="rgb(55,124,180)" stroke-width="0.6" opacity="1" d="M 286.5 263 Q 295.8 276.2 293 301.5 Q 290.5 321 277.5 330 Q 270.5 334 258.5 333 L 253 330.5 Q 267.8 314.8 267 283.5 L 262 264 L 281.5 265 L 286.5 263 Z " /><path fill="rgb(55,124,180)" stroke="rgb(55,124,180)" stroke-width="0.6" opacity="1" d="M 156.5 291 L 166 304.5 L 183 351.5 L 197.5 373 L 204 377.5 L 202 378 L 201.5 380 Q 179.2 375.8 166 362.5 L 163 358.5 L 164 356 Q 172 357.8 174 352.5 L 174 343.5 L 170 324.5 Q 164.6 306.4 155 292.5 L 156.5 291 Z " /><path fill="rgb(55,124,180)" stroke="rgb(55,124,180)" stroke-width="0.6" opacity="1" d="M 111.5 321 Q 121.4 319.6 126 323.5 L 122.5 330 Q 117.3 327.2 108.5 328 Q 91.4 331.4 83 343.5 Q 72.6 355.1 74 378.5 Q 77.4 397.6 90.5 407 Q 98.5 414 114.5 413 Q 128.5 410 136 400.5 Q 147 389.4 148 368.5 L 146 356.5 L 141 342.5 L 143 337 L 145.5 336 Q 149.1 346.4 157 352.5 L 159 372.5 Q 155.9 402.4 137.5 417 Q 126.4 428.4 104.5 429 Q 78.2 426.3 66 409.5 Q 52.8 395.2 53 367.5 Q 55.5 343.5 68.5 330 L 79.5 329 L 111.5 321 Z " /><path fill="rgb(55,124,180)" stroke="rgb(55,124,180)" stroke-width="0.6" opacity="1" d="M 374.5 327 Q 377.8 325.9 377 328.5 L 377.5 330 L 369 336.5 L 361.5 349 Q 353.5 350.5 351 346.5 Q 354.3 341.8 353 332.5 L 354.5 331 L 374.5 327 Z " /><path fill="rgb(47,51,50)" stroke="rgb(47,51,50)" stroke-width="0.6" opacity="1" d="M 138 85 L 146.5 86 L 152 91.5 L 154 99.5 L 153 102.5 L 154 106.5 L 152.5 108 L 149.5 107 L 144 108 L 143 113.5 L 143.5 115 L 141 116.5 L 139.5 118 L 131 112.5 L 128 104 Q 132 105.2 130 99 L 128 97.5 L 134.5 87 L 138 88 L 138 85 Z " /><path fill="rgb(47,51,50)" stroke="rgb(47,51,50)" stroke-width="0.6" opacity="1" d="M 252.5 112 L 254 117.5 L 239 130.5 L 238 136.5 L 235.5 139 L 234 137.5 L 234 135.5 L 233 130.5 L 235.5 127 L 238 126.5 Q 235.2 124.7 239.5 123 L 245 120.5 L 245.5 118 L 251 115.5 Q 248.2 113.8 252.5 112 Z " /><path fill="rgb(47,51,50)" stroke="rgb(47,51,50)" stroke-width="0.6" opacity="1" d="M 210.5 131 L 217 138.5 L 215 137.5 L 210.5 131 Z " /><path fill="rgb(47,51,50)" stroke="rgb(47,51,50)" stroke-width="0.6" opacity="1" d="M 240.5 142 Q 245.3 140.3 244 144.5 Q 239 148.5 240 158.5 L 243 165 L 240 165 L 238.5 167 L 233 162.5 L 232 150.5 L 237.5 144 L 240.5 142 Z " /><path fill="rgb(47,51,50)" stroke="rgb(47,51,50)" stroke-width="0.6" opacity="1" d="M 125.5 143 L 134.5 143 L 135 144.5 L 136 144.5 L 136.5 143 L 145 143 Q 146.3 148.3 143 147.5 L 143 151.5 L 143.5 154 L 145 153.5 L 143.5 155 L 125.5 155 Q 120.7 153.8 122 146.5 L 125.5 143 Z " /><path fill="rgb(47,51,50)" stroke="rgb(47,51,50)" stroke-width="0.6" opacity="1" d="M 178 143 Q 182.5 141.5 181 146 Q 177.3 144.8 179 150 L 181 151.5 L 178 151.5 L 178 143 Z " /><path fill="rgb(47,51,50)" stroke="rgb(47,51,50)" stroke-width="0.6" opacity="1" d="M 181.5 190 L 184 190.5 L 180.5 197 L 179 194.5 L 181.5 190 Z " /><path fill="rgb(47,51,50)" stroke="rgb(47,51,50)" stroke-width="0.6" opacity="1" d="M 172.5 208 L 174 210.5 L 171.5 215 L 169 214.5 L 172.5 208 Z " /><path fill="rgb(47,51,50)" stroke="rgb(47,51,50)" stroke-width="0.6" opacity="1" d="M 401.5 211 L 405 212 L 405 221.5 L 403.5 222 L 403.5 223 L 405 223.5 L 398.5 234 L 390.5 238 Q 389 235.5 387.5 239 L 365.5 243 L 364.5 241 L 364 243 L 361.5 244 L 360.5 242 L 360 244 Q 338.9 247 326.5 260 Q 324.7 257.3 323 261.5 L 315 275 L 313 275.5 L 314 277.5 L 312 279.5 L 307 296.5 L 308 304.5 L 308 306.5 L 311 315.5 L 310 316.5 L 319.5 326 L 331.5 331 L 334 330 L 334.5 332 L 335.5 330 L 347.5 331 L 349 332.5 Q 350.5 336.9 347.5 336 L 344.5 338 L 342.5 338 L 335.5 340 L 334.5 338 L 334 340 L 330 343 L 331 339 L 327 341 L 327 344 L 324 344 L 322.5 342 L 320.5 342 L 313 343.5 L 312.5 346 L 312 344 Q 307.2 342.1 308 345.5 L 306 346.5 Q 307.3 341.7 304 343 L 304 345 Q 300.3 343.5 301 346.5 L 297 348 Q 298.1 344.7 294 346 L 292.5 348 L 291 348.5 L 290.5 347 L 282.5 347 L 276 348.5 L 275.5 351 Q 272.1 351.8 274 347 L 271 347 Q 272.3 350 268.5 349 L 268.5 351 L 266.5 352 L 266 350.5 L 267 348 L 263 348 L 263 350 L 258 350 L 258 351.5 L 254.5 353 L 255 351.5 L 253.5 350 L 248.5 351 L 245.5 350 L 243 351.5 L 242.5 354 L 240.5 352 L 219.5 352 L 212 340.5 L 212.5 339 L 211 338.5 Q 214.7 336.8 211.5 335 L 210 335.5 L 211.5 334 L 221 334 Q 220 337 223 336 L 223.5 334 L 236.5 334 L 248.5 332 L 254 334 L 254.5 332 L 256 335 L 260.5 335 Q 259.7 338.5 266 337 Q 264.6 333.3 270.5 335 L 276.5 333 L 278 333.5 L 280.5 330 L 286 325.5 L 291 318.5 L 294 307 L 292 306.5 L 293.5 304 L 295 304.5 L 296 299.5 L 293 300.5 L 294 296 L 296 295.5 L 296 287 Q 293 288.3 294 284.5 L 293 282.5 L 295 283.5 L 295.5 285 L 296 282.5 L 294.5 278 L 293 278.5 L 292 276.5 L 294 276 L 290.5 266 L 289 266.5 L 288 263.5 L 293.5 259 L 318.5 247 L 320 247.5 Q 318.8 243.8 322.5 245 L 327.5 242 L 328.5 244 L 329 241 L 368.5 228 L 370.5 229 L 388.5 221 L 401.5 211 Z " /><path fill="rgb(47,51,50)" stroke="rgb(47,51,50)" stroke-width="0.6" opacity="1" d="M 134.5 261 L 143 262 L 143 264 L 137 264 Q 138.3 261 134.5 262 L 134.5 261 Z " /><path fill="rgb(47,51,50)" stroke="rgb(47,51,50)" stroke-width="0.6" opacity="1" d="M 143.5 284 L 148.5 290 L 143.5 284 Z " /><path fill="rgb(47,51,50)" stroke="rgb(47,51,50)" stroke-width="0.6" opacity="1" d="M 414.5 319 L 419.5 321 Q 421.3 318.3 423 322.5 L 432 339.5 Q 429.5 341 433 342.5 L 435 355 Q 431 353.7 433 360 Q 436.3 358.7 435 363.5 L 433 374 L 431 375.5 L 432 378 Q 428.3 376.5 429 379.5 L 430 381.5 L 420.5 397 L 418 397.5 L 416.5 401 L 414 401 Q 415.5 404.7 412.5 404 Q 404.7 412.7 389.5 414 L 387.5 413 L 383.5 414 L 380.5 413 L 378.5 414 L 371 412 L 369.5 410 L 367.5 410 L 359.5 407 L 347 395.5 Q 341.1 388.9 339 378.5 L 340.5 377 L 356.5 377 L 361 380.5 L 366 388.5 L 366.5 391 Q 368 388.5 369.5 392 L 373 394.5 L 373.5 396 L 375.5 395 L 382.5 398 L 390.5 397 L 393.5 398 Q 406.2 393.7 414 384.5 L 415.5 380 L 417 378.5 L 417 376.5 L 421 367.5 L 420 365 L 422 364.5 L 420 364 L 420 356.5 Q 423 357.3 422 353 L 420 352.5 L 420 350.5 L 417 343.5 L 417 341.5 L 415.5 340 L 407.5 331 L 397 327 L 397 324 L 400 324 L 401.5 322 L 414.5 319 Z " /><path fill="rgb(47,51,50)" stroke="rgb(47,51,50)" stroke-width="0.6" opacity="1" d="M 130.5 323 Q 138.6 324.4 142 330.5 L 129 358.5 L 128 364.5 L 120.5 377 L 117.5 378 L 115.5 377 L 112.5 378 Q 107.8 375.5 108 369 Q 111 370.3 110 366.5 L 109 365.5 L 116 358.5 L 123 338.5 L 127 332.5 L 127 329 L 129 328.5 L 129 326.5 L 130.5 323 Z " /><path fill="rgb(47,51,50)" stroke="rgb(47,51,50)" stroke-width="0.6" opacity="1" d="M 386.5 329 L 397.5 329 L 408 335.5 L 409.5 337 Q 416.9 342.3 418 353 L 416 353.5 L 418 354 L 418 364.5 Q 415.3 363.9 416 367 L 418 367.5 Q 415 380.5 406.5 388 Q 398.7 396.7 380.5 395 L 366 385.5 L 362 378.5 Q 366.3 374.8 375.5 376 L 381 380.5 L 382.5 383 L 391.5 382 L 401 376.5 L 407.5 367 L 409 365 L 407 364.5 L 408 361.5 L 407 359 Q 410 360 409 357 L 407 355.5 L 398.5 343 L 396.5 344 L 387.5 343 L 382.5 346 Q 380.5 343 378.5 348 L 368 348 L 368 343.5 L 373.5 336 L 382 333 Q 380.3 328.5 385.5 330 L 386.5 329 Z " /><path fill="rgb(47,51,50)" stroke="rgb(47,51,50)" stroke-width="0.6" opacity="1" d="M 350.5 373 L 366 373.5 L 350.5 374 L 350.5 373 Z " /><path fill="rgb(47,51,50)" stroke="rgb(47,51,50)" stroke-width="0.6" opacity="1" d="M 303.5 381 L 314 381.5 L 303.5 382 L 303.5 381 Z " /><path fill="rgb(10,10,10)" stroke="rgb(10,10,10)" stroke-width="0.6" opacity="1" d="M 267.5 80 Q 274.7 78.3 276.5 82 L 278.5 81 L 290 90.5 Q 293.7 95.8 293 105.5 Q 291.3 115.8 284.5 121 L 277.5 125 L 269.5 126 L 259.5 123 L 255.5 120 L 241 133.5 L 240 137.5 Q 241.3 141.3 247.5 140 L 252 144.5 L 252.5 146 L 266.5 146 L 273.5 148 L 277.5 147 L 283.5 148 L 288 151.5 L 289 162.5 L 285.5 167 L 271.5 168 L 260.5 165 L 258.5 166 L 250.5 165 L 246.5 169 L 237.5 170 L 223.5 167 L 218.5 168 L 215 171.5 L 214 177.5 L 208 187.5 L 213 197.5 L 213 211.5 L 210 224.5 L 207 229.5 L 207 234.5 Q 201 247.5 199 264.5 L 197 267.5 L 198 271.5 L 197 272.5 L 197 287.5 L 198 291.5 L 197 293.5 L 199 296.5 L 203 318.5 L 207 328.5 L 210.5 332 L 219.5 331 L 228.5 332 Q 235.7 328.7 247.5 330 L 253 324.5 L 262 306.5 L 264 286.5 L 260 268.5 L 258 266.5 L 258 260.5 L 252 251.5 L 252 237.5 Q 254.9 224.9 263.5 218 L 269.5 214 L 282.5 210 L 321.5 209 L 324.5 210 Q 327.8 206.8 335.5 208 L 337.5 206 Q 348.8 204.8 356.5 200 L 362.5 200 L 364.5 198 Q 371.9 199.4 374.5 196 L 392.5 196 L 404 202.5 Q 409.8 209.2 408 223.5 L 406 227.5 L 416 235.5 L 425.5 249 L 437.5 250 L 442 253 L 448 266.5 L 448 276.5 Q 444.3 277.3 445 282.5 L 448 288.5 L 450 300 Q 456.9 300 460 304.5 Q 464.5 310 463 321.5 L 460.5 325 L 451.5 327 L 449 326 L 450 333.5 L 446.5 339 L 440.5 340 L 432.5 329 L 432 331.5 L 436 341.5 L 438 361.5 L 432 385.5 Q 426.4 397.9 416.5 406 Q 408.5 413 396.5 416 L 373.5 416 Q 356.8 411.8 347 400.5 Q 338.8 391.9 336 379 L 324.5 384 L 309.5 385 L 297.5 384 Q 295.1 378.4 285.5 380 L 277.5 382 L 249.5 384 L 247.5 383 L 238.5 385 L 232.5 384 L 231.5 385 L 212.5 385 Q 194.7 383.8 181.5 378 Q 170.5 373.5 163.5 365 L 162 366.5 L 161 377.5 L 162 380.5 Q 156.3 407.8 137.5 422 L 127.5 428 L 115.5 432 L 95.5 432 L 83.5 428 L 72 420.5 Q 72.8 417.9 69.5 419 Q 59.4 410.1 54 396.5 L 52 390.5 L 52 383.5 L 50 381.5 L 50 361.5 L 52 359.5 L 52 352.5 L 56 341.5 L 63 329 L 56.5 328 L 54 325.5 L 53 320.5 Q 59 300 74.5 289 L 95.5 277 Q 103.7 276.7 108 272.5 L 108 260.5 L 110 258.5 L 112 246.5 L 120 227.5 L 134 201.5 L 147.5 184 L 161 176.5 L 149 166.5 L 145.5 158 L 125.5 158 L 120 154.5 L 120 143.5 L 121.5 142 L 125.5 140 L 145.5 140 L 147 138.5 L 153 126.5 L 147.5 120 L 138.5 121 L 133.5 119 L 128 113.5 L 126 110.5 L 125 99.5 L 126 92.5 L 133.5 84 L 137.5 82 L 144.5 82 L 153 87.5 Q 159 93.5 157 107.5 L 156 112.5 L 162.5 121 Q 172.2 116.7 186.5 117 L 198.5 120 L 206.5 124 L 219.5 136 L 227.5 138 L 230 135.5 Q 229.2 129.2 232 126.5 L 238.5 120 L 249 111.5 L 248 99.5 Q 250.1 90.1 256.5 85 L 264.5 81 Q 266 83.5 267.5 80 Z M 266 83 L 262 85 L 251 98 Q 249 108 253 112 L 242 121 L 233 130 L 232 138 L 237 139 L 238 134 L 242 129 L 248 124 L 257 115 L 257 113 L 257 111 L 259 113 L 258 118 Q 261 123 269 123 L 278 122 L 281 120 Q 288 116 290 107 Q 291 95 286 91 L 277 83 L 275 84 L 266 83 Z M 138 85 L 135 87 L 129 93 L 127 98 L 128 100 L 127 105 L 131 113 L 138 118 Q 143 119 145 117 L 144 110 L 150 107 Q 152 111 154 107 L 154 96 L 147 85 L 142 86 L 138 85 Z M 148 109 L 146 111 L 146 114 L 156 125 L 158 124 L 159 122 L 151 111 L 148 109 Z M 179 120 L 178 121 Q 173 120 175 124 L 172 123 Q 163 122 160 125 L 153 132 L 147 146 L 147 154 L 152 166 Q 156 172 164 174 Q 172 175 176 172 Q 183 167 186 157 Q 185 152 188 153 Q 188 163 182 169 L 176 174 L 174 176 L 190 178 L 205 185 Q 211 180 213 171 L 213 168 Q 205 170 206 166 L 210 165 L 232 166 L 233 164 L 233 162 L 240 168 Q 245 169 246 165 L 240 158 L 241 150 L 245 146 Q 249 147 247 143 L 244 141 L 240 143 L 229 139 L 218 139 L 216 137 L 203 125 L 201 123 L 189 120 L 179 120 Z M 124 143 L 121 148 Q 120 154 126 155 L 144 155 L 145 154 L 146 154 L 146 145 L 145 143 L 124 143 Z M 253 147 L 247 148 L 242 155 L 243 159 L 246 161 L 257 162 L 261 164 L 273 164 L 272 162 Q 271 154 275 152 L 274 149 L 271 150 L 253 147 Z M 279 151 L 277 152 L 274 156 L 275 164 Q 276 167 282 166 L 287 159 L 284 153 Q 285 150 279 151 Z M 166 179 L 154 183 L 144 193 L 129 216 L 115 246 L 113 256 L 111 258 L 110 267 L 111 272 L 115 274 L 117 273 L 125 274 L 127 273 Q 143 276 154 284 Q 161 289 164 298 L 165 299 L 159 292 L 151 285 Q 148 280 146 284 Q 156 292 162 306 L 170 328 Q 169 337 173 342 Q 176 353 170 356 L 162 355 Q 161 360 165 363 Q 172 371 183 375 L 190 378 L 195 378 L 197 380 L 205 381 Q 210 382 211 379 L 219 382 L 233 382 L 234 383 L 245 381 L 248 382 L 266 379 L 302 376 L 305 374 L 318 372 L 333 364 Q 343 357 347 346 L 345 347 L 342 347 L 349 341 L 348 339 L 350 336 L 348 329 L 382 322 L 388 322 L 392 320 L 411 318 L 415 316 L 437 314 Q 440 311 447 312 L 449 310 L 449 303 L 445 288 L 431 265 Q 418 248 394 244 Q 372 243 357 247 Q 342 251 332 259 Q 316 270 311 291 Q 313 297 309 296 Q 311 276 322 265 Q 333 253 349 247 L 368 242 L 387 240 L 399 234 L 405 226 L 406 219 L 404 211 Q 405 207 401 209 L 399 214 L 384 223 L 383 221 L 388 220 L 398 213 L 402 206 L 397 201 Q 395 197 394 200 L 391 199 L 376 199 L 375 200 L 372 199 L 342 209 L 336 209 L 328 212 L 325 211 L 319 213 L 283 213 L 282 214 L 280 213 L 268 219 Q 256 226 254 243 Q 254 251 257 256 L 270 262 Q 282 263 290 259 Q 323 238 366 227 L 368 228 L 330 241 L 292 260 Q 290 265 288 262 L 282 264 L 280 263 L 278 264 L 264 263 L 261 264 L 261 269 L 264 274 L 266 285 L 265 287 L 266 296 L 265 304 L 263 306 L 259 321 L 252 331 L 254 334 L 248 331 L 245 333 L 233 334 L 229 333 L 212 334 L 210 336 Q 210 343 215 346 L 215 349 L 220 352 L 224 352 L 223 356 L 230 360 Q 235 358 234 362 Q 224 362 219 356 Q 207 343 202 324 L 202 319 L 198 310 L 196 293 L 194 288 L 194 274 Q 197 269 196 261 L 202 243 L 202 238 L 206 230 L 206 225 L 208 222 L 211 207 L 210 196 L 208 193 Q 203 185 194 182 Q 182 178 166 179 Z M 405 232 L 395 240 L 393 242 Q 409 244 420 251 L 422 251 L 416 241 Q 412 234 405 232 Z M 428 252 L 426 254 L 444 277 L 446 274 L 445 265 L 441 257 Q 437 251 428 252 Z M 115 275 Q 89 279 74 294 Q 61 304 55 321 L 55 323 L 60 326 L 78 326 L 108 318 Q 128 316 139 323 Q 149 332 155 346 Q 158 351 166 353 L 170 352 L 170 339 L 166 323 Q 161 304 150 291 Q 141 279 126 275 L 124 276 L 115 275 Z M 454 304 Q 451 305 452 311 L 444 316 L 445 321 L 450 324 Q 458 326 460 321 L 459 308 L 454 304 Z M 436 315 L 427 319 L 442 337 L 447 334 L 442 319 L 436 315 Z M 410 319 L 407 321 Q 396 320 391 324 L 388 323 L 385 325 L 370 327 L 368 327 L 365 329 L 356 330 L 352 333 L 353 336 Q 353 344 349 349 L 351 350 L 362 350 L 366 345 L 366 348 L 367 350 L 379 350 L 389 343 Q 397 342 401 346 L 407 358 Q 409 369 403 374 L 397 379 L 396 376 L 382 376 L 380 378 Q 384 381 393 380 L 392 382 Q 380 383 377 376 L 364 376 L 362 378 L 366 386 Q 371 393 381 395 Q 385 394 384 397 Q 375 397 370 392 L 358 376 L 356 377 L 354 376 L 341 376 L 339 378 L 340 384 L 347 396 L 363 409 L 377 413 L 379 415 L 391 415 L 408 409 L 419 400 L 429 386 L 435 369 L 434 367 L 435 364 L 434 351 L 435 349 L 431 335 L 420 319 L 413 320 L 410 319 Z M 116 320 L 105 321 L 96 324 L 94 323 L 92 325 L 80 328 L 78 327 Q 75 330 69 329 L 59 342 L 55 352 L 55 356 L 53 358 L 53 386 L 64 409 L 80 423 L 91 428 L 105 430 Q 127 429 139 417 L 152 401 L 156 393 L 158 381 L 160 378 Q 161 363 158 353 L 146 337 Q 147 334 143 335 L 140 343 L 140 347 L 143 351 L 147 366 Q 147 385 139 396 Q 131 408 115 412 Q 99 413 91 406 L 88 402 L 107 410 Q 120 410 128 404 Q 141 395 144 377 Q 146 358 139 349 L 131 362 L 132 366 Q 133 379 128 386 Q 123 393 114 395 L 109 395 L 101 392 Q 93 387 91 378 Q 90 373 93 374 Q 92 381 96 385 Q 100 391 110 393 L 120 391 Q 127 386 130 377 Q 132 368 128 369 L 125 377 L 120 381 L 111 380 L 106 375 Q 105 366 108 363 L 112 360 L 116 352 L 115 348 L 108 348 L 99 353 L 93 364 Q 95 369 91 368 L 95 356 Q 100 345 117 346 Q 121 342 122 335 L 116 331 L 102 333 L 85 345 L 79 358 L 77 368 L 79 387 L 87 399 Q 88 402 86 401 Q 77 393 75 378 L 76 360 L 85 343 Q 93 332 108 329 Q 117 328 123 331 L 127 323 L 126 321 L 116 320 Z M 131 323 L 123 338 L 115 360 L 108 367 L 108 374 L 115 379 L 120 378 L 130 362 L 130 358 L 142 333 L 141 327 L 131 323 Z M 388 345 L 383 349 L 384 350 L 399 350 L 401 350 Q 398 343 388 345 Z M 348 353 L 342 360 L 334 367 L 337 374 L 391 374 L 399 373 L 402 371 L 405 366 L 404 358 L 400 353 L 348 353 Z M 331 368 Q 320 376 305 378 L 302 377 L 298 380 L 304 383 L 326 381 L 333 376 Q 334 369 331 368 Z " /><path fill="rgb(10,10,10)" stroke="rgb(10,10,10)" stroke-width="0.6" opacity="1" d="M 176.5 124 L 183 129.5 L 184 131.5 L 176.5 124 Z " /><path fill="rgb(10,10,10)" stroke="rgb(10,10,10)" stroke-width="0.6" opacity="1" d="M 169 129 L 176 133.5 L 177 135.5 L 171.5 131 Q 167.8 132 169 129 Z " /><path fill="rgb(10,10,10)" stroke="rgb(10,10,10)" stroke-width="0.6" opacity="1" d="M 161.5 131 L 163 131.5 L 157 136.5 L 161.5 131 Z " /><path fill="rgb(10,10,10)" stroke="rgb(10,10,10)" stroke-width="0.6" opacity="1" d="M 184.5 133 Q 188.8 135.8 188 142 Q 184.7 143.3 186 138.5 L 184.5 133 Z " /><path fill="rgb(10,10,10)" stroke="rgb(10,10,10)" stroke-width="0.6" opacity="1" d="M 234.5 144 L 236 144.5 Q 231.2 147.3 232 154 Q 229 155.3 230 151.5 L 234.5 144 Z " /><path fill="rgb(10,10,10)" stroke="rgb(10,10,10)" stroke-width="0.6" opacity="1" d="M 156.5 160 L 162.5 167 L 157 162.5 L 156.5 160 Z " /><path fill="rgb(10,10,10)" stroke="rgb(10,10,10)" stroke-width="0.6" opacity="1" d="M 176.5 160 L 176 161.5 L 172.5 166 L 170.5 167 L 176.5 160 Z " /><path fill="rgb(10,10,10)" stroke="rgb(10,10,10)" stroke-width="0.6" opacity="1" d="M 376.5 223 L 380 223.5 L 370.5 227 L 371.5 225 L 376.5 223 Z " /><path fill="rgb(10,10,10)" stroke="rgb(10,10,10)" stroke-width="0.6" opacity="1" d="M 152.5 252 L 153 254.5 L 147.5 261 L 145.5 262 L 150 256.5 L 152.5 252 Z " /><path fill="rgb(10,10,10)" stroke="rgb(10,10,10)" stroke-width="0.6" opacity="1" d="M 308 298 L 310 298.5 L 310 307.5 L 312 314.5 L 310 313.5 Q 307 307.3 308 298 Z " /><path fill="rgb(10,10,10)" stroke="rgb(10,10,10)" stroke-width="0.6" opacity="1" d="M 170 313 L 172 314.5 L 175 323 Q 172 324.3 173 320.5 L 170 313 Z " /><path fill="rgb(10,10,10)" stroke="rgb(10,10,10)" stroke-width="0.6" opacity="1" d="M 312.5 316 L 319.5 324 L 329 327 L 327.5 329 Q 317.6 325.9 312 318.5 L 312.5 316 Z " /><path fill="rgb(10,10,10)" stroke="rgb(10,10,10)" stroke-width="0.6" opacity="1" d="M 287.5 321 L 287 322.5 L 283.5 328 L 274.5 333 L 275.5 331 L 277.5 331 L 287.5 321 Z " /><path fill="rgb(10,10,10)" stroke="rgb(10,10,10)" stroke-width="0.6" opacity="1" d="M 385.5 327 Q 391.4 325.3 390 329 Q 376.4 330.1 370 339.5 L 366.5 344 L 367 342.5 L 367 340.5 L 376.5 331 L 385.5 327 Z " /><path fill="rgb(10,10,10)" stroke="rgb(10,10,10)" stroke-width="0.6" opacity="1" d="M 394 327 Q 406.8 327.9 413 336.5 L 419 347.5 L 420 355 Q 416.3 356.4 418 350.5 Q 415.1 338.9 406.5 333 Q 402.2 328.2 394 329 L 394 327 Z " /><path fill="rgb(10,10,10)" stroke="rgb(10,10,10)" stroke-width="0.6" opacity="1" d="M 317.5 352 Q 323.4 350.3 322 354 L 313 355 Q 311.7 351.7 316.5 353 L 317.5 352 Z " /><path fill="rgb(10,10,10)" stroke="rgb(10,10,10)" stroke-width="0.6" opacity="1" d="M 290.5 356 Q 296.4 354.3 295 358 L 283 359 Q 281.9 355.5 289.5 357 L 290.5 356 Z " /><path fill="rgb(10,10,10)" stroke="rgb(10,10,10)" stroke-width="0.6" opacity="1" d="M 188.5 358 L 202.5 374 L 207 377.5 L 205.5 377 L 196 371 L 188.5 358 Z " /><path fill="rgb(10,10,10)" stroke="rgb(10,10,10)" stroke-width="0.6" opacity="1" d="M 235.5 361 L 248 361.5 Q 244.7 364.7 236.5 363 L 235.5 361 Z " /><path fill="rgb(10,10,10)" stroke="rgb(10,10,10)" stroke-width="0.6" opacity="1" d="M 418 364 Q 421.3 362.7 420 367.5 Q 417.3 380.3 409.5 388 Q 404.1 394.4 395 396 L 396.5 394 Q 405.2 391.2 410 384.5 Q 417.2 376.9 418 364 Z " /><path fill="rgb(238,185,48)" stroke="rgb(238,185,48)" stroke-width="0.6" opacity="1" d="M 148 111 L 152 113.5 L 157 123 Q 153.3 124.5 154 121.5 L 148 114.5 L 148 111 Z " /><path fill="rgb(238,185,48)" stroke="rgb(238,185,48)" stroke-width="0.6" opacity="1" d="M 165.5 124 Q 175.7 123.8 180 129.5 Q 186.4 136.6 186 150.5 Q 184.7 163.7 176.5 170 Q 172.8 173.8 164.5 173 L 155 167.5 L 150 158.5 L 150 140.5 Q 152.8 130.8 160.5 126 L 165.5 124 Z M 165 128 L 162 129 L 156 135 L 151 146 L 151 154 L 157 165 L 164 170 L 173 168 Q 180 162 182 151 Q 182 138 176 132 Q 173 127 165 128 Z " /><path fill="rgb(238,185,48)" stroke="rgb(238,185,48)" stroke-width="0.6" opacity="1" d="M 376.5 200 Q 392.8 197.8 400 204.5 Q 399.8 211.8 394.5 214 L 381.5 221 L 328.5 238 L 289.5 258 Q 280.8 261.8 266.5 260 L 257 253.5 L 256 238.5 Q 258.8 227.3 266.5 221 Q 273.1 215.6 283.5 214 L 329.5 213 L 376.5 200 Z " /><path fill="rgb(238,185,48)" stroke="rgb(238,185,48)" stroke-width="0.6" opacity="1" d="M 454.5 306 L 458 308.5 L 459 320.5 Q 456.8 324.3 448.5 322 L 445 316.5 L 452 312.5 L 454.5 306 Z " /><path fill="rgb(238,185,48)" stroke="rgb(238,185,48)" stroke-width="0.6" opacity="1" d="M 434.5 317 Q 440 316 441 319.5 L 445 328.5 L 445 334.5 L 441.5 336 L 429 318 L 434.5 317 Z " /><path fill="rgb(238,185,48)" stroke="rgb(238,185,48)" stroke-width="0.6" opacity="1" d="M 106.5 333 L 118.5 333 L 121 335.5 L 115.5 345 Q 100.1 344.1 95 353.5 Q 88.6 360.6 89 374.5 Q 91.3 387.3 100.5 393 Q 105 397.1 114.5 396 Q 124.3 393.3 129 385.5 Q 135.3 377.8 133 361.5 L 137.5 351 Q 145.2 358.8 143 376.5 Q 139.5 393 128.5 402 Q 121.9 407.4 111.5 409 L 109.5 408 L 107.5 408 Q 92.3 406.7 86 396.5 Q 76.7 385.8 79 363.5 Q 82.1 347.1 93.5 339 L 106.5 333 Z " /><path fill="rgb(238,185,48)" stroke="rgb(238,185,48)" stroke-width="0.6" opacity="1" d="M 343.5 341 L 346 341.5 L 342.5 345 L 331.5 349 L 310.5 353 L 261.5 359 L 237.5 360 L 225 356.5 L 229.5 355 L 232.5 356 L 284.5 351 L 343.5 341 Z " /><path fill="rgb(238,185,48)" stroke="rgb(238,185,48)" stroke-width="0.6" opacity="1" d="M 347.5 354 L 398.5 354 L 403 357.5 L 404 363.5 L 399.5 371 L 373.5 373 L 337.5 373 L 335 366.5 L 345 357.5 L 347.5 354 Z " /><path fill="rgb(27,28,29)" stroke="rgb(27,28,29)" stroke-width="0.6" opacity="1" d="M 251.5 108 L 256 110.5 L 257 112.5 L 253 111.5 L 251.5 108 Z " /><path fill="rgb(27,28,29)" stroke="rgb(27,28,29)" stroke-width="0.6" opacity="1" d="M 160.5 131 L 158 134.5 L 157 136.5 L 157 138.5 L 155 145 L 153 144.5 Q 154.5 135.5 160.5 131 Z " /><path fill="rgb(27,28,29)" stroke="rgb(27,28,29)" stroke-width="0.6" opacity="1" d="M 176.5 134 L 176.5 136 L 179 137.5 L 180 143 Q 177 144.3 178 140.5 L 177 138.5 L 177.5 137 L 175 135.5 L 176.5 134 Z " /><path fill="rgb(27,28,29)" stroke="rgb(27,28,29)" stroke-width="0.6" opacity="1" d="M 186.5 142 L 189 143.5 Q 191 151 187.5 153 L 186 152.5 L 187 143.5 L 186.5 142 Z " /><path fill="rgb(27,28,29)" stroke="rgb(27,28,29)" stroke-width="0.6" opacity="1" d="M 147.5 145 L 149 154.5 L 147 153.5 L 147.5 145 Z " /><path fill="rgb(27,28,29)" stroke="rgb(27,28,29)" stroke-width="0.6" opacity="1" d="M 161.5 186 L 162 188.5 L 154 198.5 L 154.5 200 Q 150.7 197.7 156 195.5 L 159.5 189 L 161 188.5 L 161.5 186 Z " /><path fill="rgb(27,28,29)" stroke="rgb(27,28,29)" stroke-width="0.6" opacity="1" d="M 176.5 201 L 176.5 204 L 175 204.5 L 176 206.5 L 173.5 210 L 173 207.5 L 176.5 201 Z " /><path fill="rgb(27,28,29)" stroke="rgb(27,28,29)" stroke-width="0.6" opacity="1" d="M 149.5 205 Q 152.5 206.5 149.5 208 L 148 208.5 L 148 210.5 L 146.5 213 L 146 210.5 L 148.5 207 L 150 206.5 L 149.5 205 Z " /><path fill="rgb(27,28,29)" stroke="rgb(27,28,29)" stroke-width="0.6" opacity="1" d="M 291.5 209 L 309 209.5 L 291.5 210 L 291.5 209 Z " /><path fill="rgb(27,28,29)" stroke="rgb(27,28,29)" stroke-width="0.6" opacity="1" d="M 141.5 219 Q 144.5 220.5 141.5 222 L 140 222.5 L 140 224.5 L 138.5 228 L 138 225.5 L 140.5 221 L 142 220.5 L 141.5 219 Z " /><path fill="rgb(27,28,29)" stroke="rgb(27,28,29)" stroke-width="0.6" opacity="1" d="M 135.5 230 L 136 232.5 L 134.5 235 L 133 235.5 L 133.5 237 Q 130.5 235.5 133.5 234 L 135 233.5 L 134 231.5 L 135.5 230 Z " /><path fill="rgb(27,28,29)" stroke="rgb(27,28,29)" stroke-width="0.6" opacity="1" d="M 162.5 230 L 162 233.5 L 160 240 L 158 240.5 L 158.5 242 L 157 242.5 L 157.5 244 L 156 242.5 L 162.5 230 Z " /><path fill="rgb(27,28,29)" stroke="rgb(27,28,29)" stroke-width="0.6" opacity="1" d="M 290.5 266 L 294 276 Q 290.7 277.3 292 272.5 L 290.5 266 Z " /><path fill="rgb(27,28,29)" stroke="rgb(27,28,29)" stroke-width="0.6" opacity="1" d="M 164.5 297 L 168 302.5 L 165 302.5 L 166 300.5 L 163 298.5 L 164.5 297 Z " /><path fill="rgb(27,28,29)" stroke="rgb(27,28,29)" stroke-width="0.6" opacity="1" d="M 289.5 316 Q 292.1 315.2 291 318.5 L 287 321.5 L 287.5 323 Q 284.5 321.5 287.5 320 L 289 319.5 L 288.5 318 L 290 317.5 L 289.5 316 Z " /><path fill="rgb(27,28,29)" stroke="rgb(27,28,29)" stroke-width="0.6" opacity="1" d="M 315.5 319 Q 321.5 322 319.5 325 L 321.5 324 L 320.5 326 L 318 324.5 L 319 323.5 L 315.5 319 Z " /><path fill="rgb(27,28,29)" stroke="rgb(27,28,29)" stroke-width="0.6" opacity="1" d="M 406.5 333 L 412.5 340 L 408 337 L 406.5 333 Z " /><path fill="rgb(27,28,29)" stroke="rgb(27,28,29)" stroke-width="0.6" opacity="1" d="M 177.5 334 L 180 335.5 L 182 340.5 L 179 340.5 L 177.5 334 Z " /><path fill="rgb(27,28,29)" stroke="rgb(27,28,29)" stroke-width="0.6" opacity="1" d="M 349.5 334 L 350 335.5 L 348 338.5 L 348.5 340 L 346.5 339 L 345 339.5 L 347.5 336 L 349.5 334 Z " /><path fill="rgb(27,28,29)" stroke="rgb(27,28,29)" stroke-width="0.6" opacity="1" d="M 165.5 362 L 170.5 368 L 165.5 362 Z " /><path fill="rgb(27,28,29)" stroke="rgb(27,28,29)" stroke-width="0.6" opacity="1" d="M 366.5 373 L 391 373.5 L 366.5 374 L 366.5 373 Z " /><path fill="rgb(27,28,29)" stroke="rgb(27,28,29)" stroke-width="0.6" opacity="1" d="M 340.5 376 L 354 376.5 L 339.5 378 L 340.5 376 Z " /><path fill="rgb(27,28,29)" stroke="rgb(27,28,29)" stroke-width="0.6" opacity="1" d="M 393 394 L 396.5 396 L 396.5 397 L 391.5 398 L 384 397 L 384.5 395 L 391 395 Q 390 398 393 397 L 393 394 Z " /><path fill="rgb(27,28,29)" stroke="rgb(27,28,29)" stroke-width="0.6" opacity="1" d="M 136.5 398 L 130.5 405 L 136.5 398 Z " /><path fill="rgb(27,28,29)" stroke="rgb(27,28,29)" stroke-width="0.6" opacity="1" d="M 377.5 413 L 379.5 414 L 382.5 413 L 386.5 414 L 388.5 413 L 390.5 414 L 392.5 413 L 392.5 414 L 378.5 415 L 377.5 413 Z " /><path fill="rgb(27,28,29)" stroke="rgb(27,28,29)" stroke-width="0.6" opacity="1" d="M 377.5 416 L 392 416.5 L 377.5 417 L 377.5 416 Z " /><path fill="rgb(68,85,89)" stroke="rgb(68,85,89)" stroke-width="0.6" opacity="1" d="M 293.5 285 L 294 297.5 L 293 297.5 L 293.5 285 Z " /><path fill="rgb(68,85,89)" stroke="rgb(68,85,89)" stroke-width="0.6" opacity="1" d="M 67.5 411 L 72.5 417 L 67.5 411 Z " /><path fill="rgb(102,68,54)" stroke="rgb(102,68,54)" stroke-width="0.6" opacity="1" d="M 340.5 355 L 335.5 361 L 340.5 355 Z " /><path fill="rgb(102,68,54)" stroke="rgb(102,68,54)" stroke-width="0.6" opacity="1" d="M 335.5 371 L 337.5 373 L 350 373.5 L 336.5 374 L 335.5 371 Z " /><path fill="rgb(163,60,57)" stroke="rgb(163,60,57)" stroke-width="0.6" opacity="1" d="M 208.5 130 L 214.5 137 L 208.5 130 Z " /><path fill="rgb(163,60,57)" stroke="rgb(163,60,57)" stroke-width="0.6" opacity="1" d="M 193.5 271 L 194 289.5 L 193 289.5 L 193.5 271 Z " /><path fill="rgb(163,60,57)" stroke="rgb(163,60,57)" stroke-width="0.6" opacity="1" d="M 142.5 284 L 149.5 292 L 142.5 284 Z " /><path fill="rgb(163,60,57)" stroke="rgb(163,60,57)" stroke-width="0.6" opacity="1" d="M 74.5 294 L 67.5 302 L 74.5 294 Z " /><path fill="rgb(163,60,57)" stroke="rgb(163,60,57)" stroke-width="0.6" opacity="1" d="M 234.5 363 L 251 363.5 L 234.5 364 L 234.5 363 Z " /><path fill="rgb(107,111,111)" stroke="rgb(107,111,111)" stroke-width="0.6" opacity="1" d="M 126.5 139 L 140 139.5 L 126.5 140 L 126.5 139 Z " /><path fill="rgb(107,111,111)" stroke="rgb(107,111,111)" stroke-width="0.6" opacity="1" d="M 350.5 347 L 351 349 L 353.5 348 L 361 349.5 L 351.5 350 L 350.5 347 Z " /><path fill="rgb(107,111,111)" stroke="rgb(107,111,111)" stroke-width="0.6" opacity="1" d="M 366.5 348 L 378.5 348 L 379 350 L 367.5 350 L 366.5 348 Z " /><path fill="rgb(194,166,51)" stroke="rgb(194,166,51)" stroke-width="0.6" opacity="1" d="M 149.5 143 L 150 154.5 L 149 154.5 L 149.5 143 Z " /><path fill="rgb(194,166,51)" stroke="rgb(194,166,51)" stroke-width="0.6" opacity="1" d="M 152.5 144 L 153 147.5 L 152 150.5 L 153 154.5 L 151 153.5 Q 149 146 152.5 144 Z " /><path fill="rgb(194,166,51)" stroke="rgb(194,166,51)" stroke-width="0.6" opacity="1" d="M 291.5 213 L 320 213.5 L 291.5 214 L 291.5 213 Z " /><path fill="rgb(194,166,51)" stroke="rgb(194,166,51)" stroke-width="0.6" opacity="1" d="M 374.5 372 L 389 372.5 L 374.5 373 L 374.5 372 Z " /><path fill="rgb(142,128,49)" stroke="rgb(142,128,49)" stroke-width="0.6" opacity="1" d="M 347.5 353 L 398 353.5 L 347.5 354 L 346.5 355 L 347.5 353 Z " /><path fill="rgb(181,181,180)" stroke="rgb(181,181,180)" stroke-width="0.6" opacity="1" d="M 125.5 158 L 144.5 158 L 146 159.5 L 144.5 159 L 125.5 159 L 125.5 158 Z " /><path fill="rgb(181,181,180)" stroke="rgb(181,181,180)" stroke-width="0.6" opacity="1" d="M 208.5 329 L 218 330.5 L 209.5 331 L 208.5 329 Z " /></svg>