<svg width="627" height="627" preserveAspectRatio="xMidYMid meet" viewBox="0 0 512 512" version="1.1" xmlns="http://www.w3.org/2000/svg" ><path fill="rgb(255,255,255)" stroke="rgb(255,255,255)" stroke-width="0.6" opacity="1" d="M 0 0 L 512 0 L 512 512 L 0 512 L 0 0 Z M 170 150 L 169 151 L 153 151 L 123 159 Q 107 165 95 175 L 74 198 L 42 248 L 28 277 L 23 298 Q 21 318 29 330 L 43 341 L 48 350 Q 51 356 60 357 L 95 361 L 134 361 L 142 358 L 146 353 L 152 347 L 157 347 L 159 352 Q 162 358 171 359 Q 185 362 192 356 L 196 350 L 198 348 L 199 351 L 205 354 L 223 354 L 227 352 L 233 343 L 233 337 L 236 334 L 249 334 L 255 332 L 256 335 Q 259 339 266 340 Q 274 341 279 338 Q 284 336 285 329 L 287 327 L 297 327 L 298 334 L 308 341 Q 318 342 323 337 L 328 339 L 337 338 Q 343 335 344 326 L 347 323 L 360 323 L 362 328 L 372 334 Q 379 335 383 331 L 396 330 Q 401 327 401 319 L 407 317 L 408 321 L 417 328 L 439 325 Q 443 324 442 318 L 444 316 L 452 315 L 453 318 L 460 323 Q 466 324 469 321 L 478 321 L 483 314 L 483 309 Q 487 307 485 301 L 488 298 L 489 289 L 489 233 L 484 218 Q 478 209 468 206 L 422 197 L 407 197 L 406 196 L 402 197 L 397 197 L 383 189 L 363 184 L 317 176 L 282 175 L 267 164 L 242 158 L 204 151 L 170 150 Z " /><path fill="rgb(255,255,255)" stroke="rgb(255,255,255)" stroke-width="0.6" opacity="1" d="M 389.5 321 L 395 323.5 L 391.5 326 L 388 323.5 L 389.5 321 Z " /><path fill="rgb(0,0,0)" stroke="rgb(0,0,0)" stroke-width="0.6" opacity="1" d="M 169.5 151 L 204.5 152 L 242.5 159 L 266.5 165 L 282.5 176 L 283.5 175 L 300.5 175 L 304.5 177 L 317.5 177 L 363.5 185 L 382.5 190 L 394.5 197 L 423.5 198 L 464.5 206 Q 476.4 209.1 483 217.5 L 488 228.5 L 488 283.5 L 489 286.5 L 488 295.5 L 485 298.5 L 485 304.5 Q 480.9 306.4 482 313.5 L 477.5 320 L 468.5 320 Q 466.8 323.8 459.5 322 L 454 317.5 L 452.5 314 L 443.5 315 L 442 316.5 Q 442.1 322.1 438.5 324 L 416.5 327 L 409 320.5 L 407.5 317 Q 402.3 315.8 401 318.5 L 395.5 329 L 381.5 330 Q 379.3 334.3 371.5 333 L 363 327.5 L 360.5 322 L 345.5 323 L 344 324.5 Q 342.3 332.8 336.5 337 L 326.5 338 L 322.5 336 Q 318.8 341.8 307.5 340 L 299 333.5 L 296.5 326 Q 286.5 323.5 284 328.5 L 279.5 336 Q 275.4 340.9 264.5 339 L 257 334.5 L 254.5 331 L 248.5 333 L 236.5 333 L 233 335.5 Q 232.8 345.2 227.5 350 Q 221.2 356.7 205.5 354 L 199 348.5 Q 199.8 345.9 196.5 347 L 189.5 356 L 185.5 358 L 170.5 358 Q 161.8 356.8 159 349.5 L 157.5 346 Q 149.2 344.7 147 349.5 L 141.5 357 L 131.5 361 L 96.5 361 L 84.5 360 L 81.5 358 L 58.5 356 L 49 349.5 Q 47.2 342.3 41.5 339 L 31 330.5 Q 23.2 319.8 23 301.5 L 28 278.5 L 43 247.5 L 74 199.5 L 98.5 173 L 127.5 158 L 150.5 152 L 168.5 152 L 169.5 151 Z M 158 155 L 143 158 L 128 166 L 124 171 L 155 171 L 156 172 L 163 172 Q 173 161 189 157 L 189 155 L 158 155 Z M 197 156 Q 175 163 161 176 L 122 174 L 120 170 L 123 168 Q 127 166 124 164 L 101 176 L 79 199 L 46 250 Q 34 269 28 294 L 29 301 L 36 305 L 38 308 L 32 306 Q 30 302 28 306 Q 27 317 31 324 L 38 329 L 36 332 Q 42 341 57 343 L 101 347 L 143 346 Q 156 344 165 338 Q 172 333 175 325 L 188 313 L 210 309 L 212 302 Q 210 296 214 297 L 213 308 L 237 307 L 239 305 L 240 300 Q 241 293 239 292 Q 222 290 214 295 L 211 294 L 212 291 L 212 209 L 213 207 L 216 204 L 231 204 L 236 212 L 236 248 L 235 250 L 233 252 L 218 252 L 215 256 L 215 290 L 217 291 L 239 289 L 240 288 L 240 271 L 241 270 L 241 204 L 239 191 L 238 189 L 225 189 L 213 195 L 199 212 L 183 242 L 180 244 Q 189 219 204 201 Q 211 190 226 186 L 243 186 L 273 192 Q 278 190 277 194 L 249 190 Q 243 189 242 192 L 243 198 L 243 288 L 245 289 L 292 288 L 294 286 L 294 220 L 292 200 L 290 197 L 282 195 Q 278 196 279 193 L 284 194 L 289 193 L 286 188 L 283 184 L 239 176 Q 214 174 204 185 L 202 185 L 209 179 L 223 174 L 242 174 L 273 181 Q 278 182 280 180 L 277 176 L 266 168 L 227 159 L 197 156 Z M 287 179 L 287 181 L 293 183 L 301 194 L 304 196 L 333 198 L 336 200 L 365 203 L 372 206 L 398 209 L 397 205 L 385 194 L 361 188 L 353 188 L 321 181 Q 309 183 305 179 L 287 179 Z M 293 188 L 292 192 L 296 200 L 296 213 L 298 216 L 298 294 L 297 303 L 292 316 L 297 317 L 302 305 L 302 287 L 303 286 L 303 215 L 301 201 L 293 188 Z M 306 199 L 304 201 L 306 208 L 306 282 L 309 287 L 394 287 L 403 286 L 404 285 L 404 252 L 403 251 L 402 216 L 396 212 Q 386 213 382 209 L 306 199 Z M 405 201 L 410 212 L 415 214 L 450 217 L 477 223 L 480 222 L 478 218 L 475 214 L 463 209 L 427 202 L 405 201 Z M 220 206 L 216 209 L 216 247 L 218 248 L 231 248 L 232 247 L 231 210 Q 227 206 220 206 Z M 404 209 Q 403 216 407 220 L 407 238 L 408 239 L 408 289 L 407 299 L 404 303 Q 405 309 402 312 Q 401 315 405 314 L 409 309 L 410 282 L 411 281 L 411 229 L 409 215 L 407 211 L 404 209 Z M 415 216 L 412 219 L 414 224 L 415 285 L 417 286 L 421 285 L 484 285 L 485 284 L 484 228 L 483 226 L 460 222 L 443 221 L 440 219 L 422 218 L 415 216 Z M 416 288 L 414 290 Q 412 296 416 298 L 454 298 L 460 296 L 483 296 Q 485 295 484 290 L 483 288 L 416 288 Z M 354 289 L 353 290 L 308 290 L 306 292 L 306 302 L 308 303 L 400 300 L 402 299 Q 405 297 403 291 L 402 289 L 354 289 Z M 287 290 L 286 291 L 244 292 L 241 300 Q 240 305 243 306 L 291 304 L 293 302 L 294 292 Q 293 289 287 290 Z M 443 301 L 441 303 L 442 310 L 444 311 L 456 311 L 460 303 L 459 301 L 443 301 Z M 423 302 Q 418 304 419 310 L 425 308 L 426 304 L 423 302 Z M 436 302 Q 431 304 431 310 L 433 309 L 438 306 L 436 302 Z M 365 304 L 364 305 L 343 305 L 341 307 L 346 319 L 367 318 L 369 316 L 370 308 L 372 306 Q 371 303 365 304 Z M 392 304 L 387 310 L 388 325 L 394 327 L 395 322 Q 390 323 389 320 Q 387 312 392 310 Q 398 312 396 306 L 392 304 Z M 378 305 L 372 314 L 373 327 Q 374 330 379 329 L 382 324 L 380 323 L 375 321 L 377 319 Q 378 323 380 320 Q 381 314 379 313 L 377 316 Q 374 317 375 314 Q 377 310 382 311 L 381 307 L 378 305 Z M 283 306 L 281 308 L 243 309 L 233 313 L 236 320 L 235 328 L 237 330 L 282 325 L 285 322 L 288 313 L 288 308 L 283 306 Z M 316 307 Q 309 311 308 321 L 310 333 L 315 336 L 319 335 L 323 327 Q 324 316 321 310 L 316 307 Z M 334 307 L 327 320 Q 326 330 333 334 L 337 333 Q 341 331 340 325 L 336 328 L 331 326 L 332 316 L 336 313 L 337 316 L 340 317 L 340 312 L 334 307 Z M 413 310 L 411 317 L 413 322 Q 415 325 416 322 L 415 320 L 415 311 L 413 310 Z M 224 312 Q 220 314 224 316 L 219 317 L 216 321 Q 217 324 215 323 L 210 331 Q 209 340 212 346 L 218 350 L 223 350 L 229 341 L 229 324 L 227 321 L 229 318 L 232 320 L 231 315 Q 230 311 224 312 Z M 207 314 L 206 315 L 193 315 L 182 321 L 174 333 Q 172 344 176 351 Q 178 356 188 354 L 194 345 L 194 329 L 193 327 L 190 329 L 191 334 Q 188 335 189 332 L 186 330 Q 180 332 182 342 L 188 343 L 189 339 Q 193 338 191 344 L 185 346 L 179 340 L 181 332 Q 182 327 189 328 L 190 326 L 193 323 L 214 321 L 217 316 Q 215 312 207 314 Z M 306 315 L 300 321 Q 299 331 305 335 L 308 334 L 305 327 L 306 319 L 306 315 Z M 336 316 L 334 318 Q 332 323 336 325 Q 340 323 338 317 L 336 316 Z M 419 317 L 419 322 L 425 323 L 426 320 L 419 317 Z M 367 320 L 365 322 L 366 327 L 370 328 L 369 322 L 367 320 Z M 206 325 L 197 328 L 198 338 L 200 339 L 206 338 L 209 327 L 206 325 Z M 276 329 L 268 330 L 271 335 L 278 334 L 280 331 L 276 329 Z M 168 338 L 161 344 L 163 351 L 170 354 L 175 353 L 171 348 L 171 338 L 168 338 Z M 206 340 L 200 344 L 201 347 L 207 350 L 211 349 L 208 342 L 206 340 Z M 54 345 L 52 349 L 68 354 L 99 357 L 133 357 L 140 355 Q 144 354 143 349 L 132 349 L 129 351 L 96 351 L 92 349 L 74 349 L 54 345 Z " /><path fill="rgb(0,0,0)" stroke="rgb(0,0,0)" stroke-width="0.6" opacity="1" d="M 113.5 184 L 137.5 184 Q 145.1 188.4 159.5 186 Q 167.3 187.2 171 192.5 L 171 200.5 L 157 231.5 Q 153.6 242.1 145.5 248 L 137.5 251 L 116.5 251 L 115.5 250 L 93.5 250 L 89.5 248 L 67.5 248 L 60 243.5 L 60 236.5 L 67 222.5 Q 77.7 203.2 92.5 188 Q 98.2 183.7 110.5 186 L 113.5 184 Z M 117 188 L 116 189 L 101 189 L 95 191 Q 84 199 78 212 L 64 236 L 63 242 L 68 244 Q 81 243 90 246 L 129 246 L 130 247 L 144 246 L 150 240 L 158 224 L 168 201 L 168 195 L 165 191 Q 159 192 158 189 L 117 188 Z " /><path fill="rgb(0,0,0)" stroke="rgb(0,0,0)" stroke-width="0.6" opacity="1" d="M 197.5 188 L 199 188.5 L 183 206.5 L 157 246.5 L 150.5 253 L 121.5 274 L 122.5 272 Q 143.4 259.4 159 241.5 Q 173.1 214.1 192.5 192 L 197.5 188 Z " /><path fill="rgb(0,0,0)" stroke="rgb(0,0,0)" stroke-width="0.6" opacity="1" d="M 97.5 198 Q 103.7 197.3 105 201.5 Q 105.8 204.1 102.5 203 L 96.5 202 L 93 203 L 95.5 199 L 97.5 198 Z " /><path fill="rgb(0,0,0)" stroke="rgb(0,0,0)" stroke-width="0.6" opacity="1" d="M 133.5 199 Q 141.4 198.1 143 203.5 Q 144.3 207.7 139.5 206 L 137.5 204 Q 131.5 205.5 130 202.5 L 133.5 199 Z " /><path fill="rgb(0,0,0)" stroke="rgb(0,0,0)" stroke-width="0.6" opacity="1" d="M 252.5 208 Q 264.5 207 271.5 211 L 283.5 211 L 289 215.5 L 290 217.5 L 290 247.5 L 285.5 253 L 283.5 252 L 253.5 252 L 248 246.5 L 248 212.5 L 252.5 208 Z M 254 211 L 252 213 L 252 247 Q 265 251 285 249 L 286 248 L 286 217 L 284 214 L 254 211 Z " /><path fill="rgb(0,0,0)" stroke="rgb(0,0,0)" stroke-width="0.6" opacity="1" d="M 92.5 211 Q 103 209 105 215.5 Q 108.1 235.1 96.5 240 L 90.5 241 L 83 235.5 L 81 228.5 Q 83.1 216.1 92.5 211 Z M 94 213 L 92 214 L 84 225 L 85 236 L 90 238 Q 93 236 89 235 L 90 225 L 98 219 L 103 220 L 102 216 Q 100 212 94 213 Z " /><path fill="rgb(0,0,0)" stroke="rgb(0,0,0)" stroke-width="0.6" opacity="1" d="M 128.5 212 Q 136.5 210.5 139 214.5 Q 143.7 218.3 142 228.5 L 134.5 240 Q 131.9 243.4 124.5 242 L 118 236.5 L 117 225.5 Q 119.9 217.4 126.5 213 L 128.5 212 Z M 131 214 L 128 215 L 120 224 L 119 228 L 120 237 L 126 240 L 124 236 Q 123 228 126 225 L 132 220 L 138 222 L 139 219 Q 137 214 131 214 Z " /><path fill="rgb(0,0,0)" stroke="rgb(0,0,0)" stroke-width="0.6" opacity="1" d="M 315.5 217 Q 326 215 329 220.5 L 331 226.5 L 331 252.5 L 327.5 257 Q 315.8 259.8 313 253.5 L 312 251.5 L 312 221.5 L 315.5 217 Z M 317 221 L 315 223 L 315 250 L 316 252 Q 318 255 326 253 L 327 252 L 327 223 Q 325 219 317 221 Z " /><path fill="rgb(0,0,0)" stroke="rgb(0,0,0)" stroke-width="0.6" opacity="1" d="M 336.5 220 L 347.5 221 L 350 223.5 L 351 225.5 L 351 253.5 L 347.5 258 Q 336.5 260.5 334 254.5 L 334 226.5 L 333 224.5 L 336.5 220 Z M 339 223 L 337 225 L 337 253 Q 339 257 346 255 L 348 255 L 347 225 Q 345 221 339 223 Z " /><path fill="rgb(0,0,0)" stroke="rgb(0,0,0)" stroke-width="0.6" opacity="1" d="M 356.5 222 Q 367 220 369 226.5 L 369 255.5 L 365.5 259 Q 356 261 354 255.5 L 353 253.5 L 353 225.5 L 356.5 222 Z M 358 225 L 356 227 L 357 254 Q 358 257 365 256 L 366 255 L 366 227 Q 364 223 358 225 Z " /><path fill="rgb(0,0,0)" stroke="rgb(0,0,0)" stroke-width="0.6" opacity="1" d="M 374.5 224 Q 381.8 222.8 384 226.5 L 386.5 230 L 388 228.5 Q 389.3 224.8 395.5 226 L 399 228.5 L 401 231.5 L 401 257.5 Q 399.8 262.3 392.5 261 L 388 257.5 Q 389.3 252.7 386 254 L 382.5 260 Q 374 262 372 257.5 L 371 255.5 L 371 227.5 L 374.5 224 Z M 376 227 L 374 229 L 374 256 L 376 257 Q 381 259 383 256 L 382 230 Q 381 226 376 227 Z M 393 229 L 391 231 L 391 256 L 394 258 L 398 257 L 397 232 L 393 229 Z " /><path fill="rgb(0,0,0)" stroke="rgb(0,0,0)" stroke-width="0.6" opacity="1" d="M 421.5 230 Q 429.5 228.5 431 233.5 L 431 258.5 L 428.5 261 Q 419.8 262.8 418 257.5 L 418 233.5 L 421.5 230 Z M 423 233 L 421 235 L 421 257 L 427 258 L 428 257 L 428 236 L 423 233 Z " /><path fill="rgb(0,0,0)" stroke="rgb(0,0,0)" stroke-width="0.6" opacity="1" d="M 435.5 232 L 444 234.5 L 445.5 238 L 448 236.5 L 449.5 233 Q 455.8 231.8 457 235.5 L 458.5 239 L 461 237.5 L 462.5 235 Q 470.2 233.7 471.5 239 Q 473 235.5 479.5 237 L 482 239.5 L 482 260.5 Q 481.2 264.7 475.5 264 Q 472 256.5 468.5 263 Q 460.7 264.2 459.5 259 Q 458.3 264.3 450.5 263 L 445.5 259 Q 444 263.5 436.5 262 L 433 258.5 L 433 235.5 L 435.5 232 Z M 438 235 L 436 237 L 436 258 L 441 259 L 442 258 L 442 237 L 438 235 Z M 452 237 L 450 239 L 450 259 L 452 260 L 456 259 L 455 239 L 452 237 Z M 465 238 L 463 240 L 463 259 L 465 260 L 468 259 L 468 242 L 465 238 Z M 477 240 L 475 242 L 475 259 L 478 260 L 479 259 L 479 242 L 477 240 Z " /><path fill="rgb(0,0,0)" stroke="rgb(0,0,0)" stroke-width="0.6" opacity="1" d="M 178.5 247 L 178 248.5 L 168 267.5 L 142.5 300 L 124.5 312 L 115.5 315 L 108 315 Q 106.6 311 113.5 313 Q 138.2 306.2 151 287.5 L 178.5 247 Z " /><path fill="rgb(0,0,0)" stroke="rgb(0,0,0)" stroke-width="0.6" opacity="1" d="M 42.5 272 Q 50.8 270.8 52 276.5 L 53 283.5 Q 51.1 292.6 44.5 297 L 37.5 298 Q 30.5 295.5 33 283.5 L 39.5 274 L 42.5 272 Z M 44 275 L 42 276 Q 36 280 35 288 L 36 294 Q 37 296 44 295 L 50 285 L 49 277 L 44 275 Z " /><path fill="rgb(0,0,0)" stroke="rgb(0,0,0)" stroke-width="0.6" opacity="1" d="M 123.5 276 Q 133.9 274.6 136 281.5 L 137 289.5 L 128.5 301 Q 125 305 116.5 304 L 112 300.5 Q 109.1 296.9 110 289.5 L 116.5 280 L 123.5 276 Z M 126 279 L 119 282 Q 111 286 113 299 L 118 301 L 128 299 L 133 292 L 133 284 Q 132 278 126 279 Z " /><path fill="rgb(0,0,0)" stroke="rgb(0,0,0)" stroke-width="0.6" opacity="1" d="M 57.5 288 Q 60.3 289.3 59 294.5 L 64.5 300 Q 70.3 303.2 80.5 302 Q 90.6 299.6 96 292.5 Q 94.9 289.2 97.5 290 Q 102 292 98.5 294 Q 90.2 304.2 72.5 305 Q 62.5 303.5 58 296.5 L 55 290.5 L 57.5 288 Z " /><path fill="rgb(0,0,0)" stroke="rgb(0,0,0)" stroke-width="0.6" opacity="1" d="M 204.5 292 Q 209.3 290.7 208 294 Q 193.3 294.5 183.5 301 L 156.5 323 L 140.5 332 L 127.5 336 L 118 336 Q 116.9 332.5 124.5 334 L 137.5 331 L 150.5 324 L 184.5 298 L 204.5 292 Z " /><path fill="rgb(0,0,0)" stroke="rgb(0,0,0)" stroke-width="0.6" opacity="1" d="M 39.5 308 L 68.5 313 L 100 314 L 99.5 316 L 78.5 316 L 77.5 315 L 60.5 315 L 45.5 312 L 40.5 310 L 39.5 308 Z " /><path fill="rgb(0,0,0)" stroke="rgb(0,0,0)" stroke-width="0.6" opacity="1" d="M 316.5 314 L 319 315.5 Q 322.4 318.1 321 325.5 L 315.5 330 Q 310 328 312 318.5 L 314.5 315 L 316.5 314 Z M 317 316 Q 313 318 314 325 L 318 327 Q 321 325 319 318 L 317 316 Z " /><path fill="rgb(0,0,0)" stroke="rgb(0,0,0)" stroke-width="0.6" opacity="1" d="M 220.5 324 Q 226.3 323.3 227 327.5 Q 229.2 338.7 223.5 342 L 219.5 343 Q 213.8 340.8 216 330.5 L 220.5 324 Z M 222 327 L 218 331 L 219 339 L 223 340 L 225 337 L 224 330 Q 225 326 222 327 Z " /><path fill="rgb(0,0,0)" stroke="rgb(0,0,0)" stroke-width="0.6" opacity="1" d="M 39 328 L 48.5 331 L 73.5 334 L 114 335 L 112.5 337 L 109.5 338 L 108.5 337 L 64.5 336 L 47.5 333 L 39 330 L 39 328 Z " /><path fill="rgb(57,119,180)" stroke="rgb(57,119,180)" stroke-width="0.6" opacity="1" d="M 197.5 156 L 228.5 160 L 266.5 169 L 278 177.5 L 279 181 L 244.5 174 L 220.5 174 L 207.5 179 L 190 193.5 L 158 241.5 L 142.5 257 L 120 273.5 L 121.5 275 Q 141.4 263.4 157 247.5 L 183 207.5 L 202.5 186 L 220.5 177 L 233.5 176 L 279.5 184 L 286 188.5 L 288 194 L 245.5 186 L 223.5 186 Q 211 190 204 199.5 L 196 210.5 L 183 233.5 L 178 246.5 L 159 276.5 L 140.5 298 L 119.5 311 L 111.5 313 L 90.5 314 L 89.5 313 L 69.5 313 L 64.5 311 L 45.5 309 Q 35.2 307.3 30 300.5 L 29 291.5 L 31 284 L 33 285.5 L 32 291.5 L 36.5 298 Q 46.6 299.6 49 293.5 Q 54.3 288.8 53 277.5 L 48.5 272 L 41.5 272 L 33.5 280 L 33 278.5 L 46 250.5 L 70.5 213 Q 73.8 214.8 70 216.5 L 59 236.5 L 59 241.5 L 63.5 247 L 92.5 250 L 138.5 251 L 147.5 248 L 152 243.5 L 172 199.5 L 172 193.5 L 168.5 189 L 161.5 186 L 151.5 185 L 112.5 184 L 95.5 186 L 91 188 L 101.5 176 L 119.5 166 L 122.5 166 L 119 170.5 L 120.5 174 L 122.5 175 L 153.5 175 Q 154.5 178 159.5 177 L 178.5 164 L 197.5 156 Z M 123 276 L 116 280 Q 110 284 109 292 L 111 301 L 116 304 Q 126 306 130 301 L 137 291 L 136 281 Q 134 274 123 276 Z M 56 288 L 54 290 L 58 298 L 70 305 Q 86 306 94 299 L 96 296 L 99 294 L 100 291 L 97 289 L 95 293 L 83 301 L 67 300 L 59 293 L 59 290 L 56 288 Z " /><path fill="rgb(57,119,180)" stroke="rgb(57,119,180)" stroke-width="0.6" opacity="1" d="M 243.5 190 L 274.5 194 L 291 198.5 L 294 220.5 L 294 285.5 L 292.5 287 L 244.5 289 L 243 287.5 L 243 193.5 L 242 191.5 L 243.5 190 Z M 252 208 L 248 212 L 248 248 Q 250 252 257 253 L 259 252 L 287 253 L 290 249 L 290 217 L 289 215 L 285 211 L 269 210 L 264 208 L 252 208 Z " /><path fill="rgb(57,119,180)" stroke="rgb(57,119,180)" stroke-width="0.6" opacity="1" d="M 293 191 L 297 193.5 L 302 207.5 L 303 273.5 L 302 275.5 L 303 284.5 Q 300 293.5 301 306.5 L 295.5 317 Q 291.3 318.3 293 313.5 Q 297.4 307.4 298 297.5 L 298 214.5 L 296 198.5 L 293 191 Z " /><path fill="rgb(57,119,180)" stroke="rgb(57,119,180)" stroke-width="0.6" opacity="1" d="M 253.5 212 L 278.5 214 L 283.5 215 L 286 217.5 L 286 247.5 L 284.5 249 Q 265.3 250.7 252 246.5 L 252 213.5 L 253.5 212 Z " /><path fill="rgb(57,119,180)" stroke="rgb(57,119,180)" stroke-width="0.6" opacity="1" d="M 338.5 223 L 347 225.5 L 347 251.5 L 348 253.5 L 345.5 255 L 339.5 254 L 337 251.5 L 337 224.5 L 338.5 223 Z " /><path fill="rgb(57,119,180)" stroke="rgb(57,119,180)" stroke-width="0.6" opacity="1" d="M 463 239 L 468 242.5 L 468 258.5 L 466.5 260 L 463 258.5 L 463 239 Z " /><path fill="rgb(57,119,180)" stroke="rgb(57,119,180)" stroke-width="0.6" opacity="1" d="M 44.5 275 L 49 277.5 L 49 286.5 L 43.5 294 L 39.5 295 Q 34.5 293.5 36 285.5 L 41.5 277 L 44.5 275 Z " /><path fill="rgb(57,119,180)" stroke="rgb(57,119,180)" stroke-width="0.6" opacity="1" d="M 287.5 290 L 293 291 Q 294.4 299.2 290.5 303 L 242.5 306 L 241 302.5 L 244.5 292 L 286.5 291 L 287.5 290 Z " /><path fill="rgb(57,119,180)" stroke="rgb(57,119,180)" stroke-width="0.6" opacity="1" d="M 234.5 292 L 240 293.5 Q 240.3 302.8 235.5 307 L 223.5 308 L 216.5 307 L 214.5 308 L 213 305.5 L 214 298.5 L 216.5 294 L 234.5 292 Z " /><path fill="rgb(57,119,180)" stroke="rgb(57,119,180)" stroke-width="0.6" opacity="1" d="M 315.5 308 L 320 309.5 L 322 317 L 320 315.5 L 315.5 314 Q 311.1 316.1 311 322.5 L 312 327.5 L 314.5 330 Q 319.8 330.8 321.5 328 L 321 329.5 L 317.5 335 Q 312.3 336.3 311 333.5 Q 307.6 328.4 309 318.5 L 315.5 308 Z " /><path fill="rgb(57,119,180)" stroke="rgb(57,119,180)" stroke-width="0.6" opacity="1" d="M 333.5 308 L 339 311.5 L 338.5 315 L 333.5 313 Q 328.9 316.4 331 326.5 L 336.5 328 Q 338.3 324.3 340 327.5 L 335.5 333 L 330 331.5 Q 326.7 326.8 328 317.5 L 333.5 308 Z " /><path fill="rgb(57,119,180)" stroke="rgb(57,119,180)" stroke-width="0.6" opacity="1" d="M 372 317 Q 375.3 315.7 374 320.5 L 378.5 324 L 381 323 L 378.5 328 L 374 326.5 L 372 317 Z " /><path fill="rgb(57,119,180)" stroke="rgb(57,119,180)" stroke-width="0.6" opacity="1" d="M 204.5 341 L 208 342.5 L 210 350 L 201 345.5 Q 199.3 340.7 203.5 342 L 204.5 341 Z " /><path fill="rgb(216,62,57)" stroke="rgb(216,62,57)" stroke-width="0.6" opacity="1" d="M 226.5 189 L 237.5 189 L 239 190.5 L 241 258.5 L 240 263.5 L 241 268.5 L 240 269.5 L 240 287.5 L 238.5 289 L 215 290 L 216 285.5 L 215 283.5 L 216 282.5 L 216 253.5 L 217.5 252 L 233.5 252 L 236 249.5 L 236 210.5 L 231.5 204 L 215.5 203 L 212 206.5 L 212 289.5 L 210.5 291 Q 192.6 291.6 181.5 299 L 154.5 321 L 137.5 330 L 120.5 334 L 95.5 334 L 93.5 335 L 91.5 334 L 88.5 335 L 46.5 330 L 35.5 326 L 31 321.5 L 28 314.5 L 28 306.5 Q 29.8 303.3 31.5 307 L 45.5 313 L 61.5 316 L 98.5 317 L 111.5 316 L 123.5 313 Q 139.1 306.6 149 294.5 L 171 264.5 L 199 212.5 L 212.5 196 L 226.5 189 Z " /><path fill="rgb(216,62,57)" stroke="rgb(216,62,57)" stroke-width="0.6" opacity="1" d="M 218.5 207 Q 227.3 206.2 231 210.5 L 230 213.5 L 232 217.5 L 232 246.5 L 230.5 248 L 218.5 248 L 216 245.5 L 216 209.5 L 218.5 207 Z " /><path fill="rgb(216,62,57)" stroke="rgb(216,62,57)" stroke-width="0.6" opacity="1" d="M 129.5 215 Q 136.8 213.8 138 218.5 Q 138.8 221.1 135.5 220 L 131.5 219 L 126 222.5 Q 122.7 227.2 124 236.5 L 124.5 238 L 121 235.5 L 120 226.5 L 127.5 216 L 129.5 215 Z " /><path fill="rgb(216,62,57)" stroke="rgb(216,62,57)" stroke-width="0.6" opacity="1" d="M 414.5 217 L 440.5 220 L 444.5 222 L 467.5 224 L 478.5 226 L 483 228.5 L 484 244 Q 480 245.4 482 238.5 Q 480.5 234.5 473.5 236 L 470.5 237 Q 468.9 233.1 462.5 234 L 458 237 L 456.5 233 L 450.5 232 L 447 234.5 L 445 236 L 443.5 232 L 435.5 231 L 431 234 L 428.5 230 L 422.5 229 L 418 231.5 L 418 258.5 L 421.5 262 L 428.5 262 L 433 259 L 434.5 262 L 441.5 263 L 447.5 261 L 454.5 264 L 459.5 261 Q 461.7 264.7 468.5 264 L 471.5 262 L 478.5 265 L 484 261 L 485 272.5 L 484 275.5 L 485 279.5 L 482.5 285 L 416.5 285 L 415 283.5 L 415 243.5 L 413 218.5 L 414.5 217 Z " /><path fill="rgb(216,62,57)" stroke="rgb(216,62,57)" stroke-width="0.6" opacity="1" d="M 407 219 Q 410.7 217.7 409 223.5 L 410 224.5 L 410 267.5 L 411 271.5 L 410 275.5 L 411 279.5 L 410 280.5 L 410 297.5 L 408 301.5 L 409 303.5 Q 408.6 310.1 404.5 313 L 403 311.5 L 408 291.5 L 408 237.5 L 407 236.5 L 407 219 Z " /><path fill="rgb(216,62,57)" stroke="rgb(216,62,57)" stroke-width="0.6" opacity="1" d="M 392.5 230 L 397 232.5 L 397 255.5 L 395.5 257 L 391 254.5 L 391 231.5 L 392.5 230 Z " /><path fill="rgb(216,62,57)" stroke="rgb(216,62,57)" stroke-width="0.6" opacity="1" d="M 451.5 238 L 455 239.5 L 455 257.5 L 453.5 259 L 450 257.5 L 450 239.5 L 451.5 238 Z " /><path fill="rgb(216,62,57)" stroke="rgb(216,62,57)" stroke-width="0.6" opacity="1" d="M 476.5 241 L 479 242.5 L 479 258.5 L 477.5 260 L 475 258.5 L 475 242.5 L 476.5 241 Z " /><path fill="rgb(216,62,57)" stroke="rgb(216,62,57)" stroke-width="0.6" opacity="1" d="M 354.5 289 L 401.5 289 L 403 290.5 Q 404.5 297.5 400.5 299 L 307.5 302 Q 303.8 299.8 306 291.5 L 307.5 290 L 353.5 290 L 354.5 289 Z " /><path fill="rgb(216,62,57)" stroke="rgb(216,62,57)" stroke-width="0.6" opacity="1" d="M 365.5 304 L 370 305 L 366.5 317 L 347.5 319 L 345 316.5 Q 345.7 309.3 342 306.5 L 343.5 305 L 364.5 305 L 365.5 304 Z " /><path fill="rgb(216,62,57)" stroke="rgb(216,62,57)" stroke-width="0.6" opacity="1" d="M 207.5 314 L 215 315 Q 215.8 319.7 211.5 321 L 194.5 322 L 181 329.5 Q 178 333.5 179 341.5 L 183.5 347 Q 190 348 191 343.5 L 192 329 L 194 329.5 L 194 342.5 L 186.5 353 Q 178.5 354.5 177 349.5 Q 172.5 345 174 334.5 L 182.5 321 L 191.5 316 Q 202.5 318 207.5 314 Z " /><path fill="rgb(216,62,57)" stroke="rgb(216,62,57)" stroke-width="0.6" opacity="1" d="M 221.5 328 L 223 329.5 L 224 336.5 L 220.5 339 Q 217.3 337.3 219 330.5 L 221.5 328 Z " /><path fill="rgb(236,185,48)" stroke="rgb(236,185,48)" stroke-width="0.6" opacity="1" d="M 161.5 155 L 185 156 Q 186.3 159 182.5 158 Q 169.6 162.6 161.5 172 L 156.5 172 L 155.5 171 L 126.5 171 L 125 169.5 L 139.5 160 L 161.5 155 Z " /><path fill="rgb(236,185,48)" stroke="rgb(236,185,48)" stroke-width="0.6" opacity="1" d="M 306.5 200 L 375.5 209 L 388.5 213 L 397.5 213 L 401 215 Q 399.8 221 403 223.5 L 404 281.5 L 401.5 286 L 316.5 286 L 308.5 287 L 307 285.5 L 307 220.5 L 306 218.5 L 307 214.5 L 305 201.5 L 306.5 200 Z M 317 216 L 312 220 L 312 254 L 315 257 L 329 257 L 331 255 L 331 224 L 330 221 Q 327 215 317 216 Z M 337 219 L 333 223 L 334 257 L 340 259 Q 349 261 351 256 L 351 224 L 350 222 L 349 220 L 337 219 Z M 357 221 L 355 222 L 353 224 L 353 256 L 359 260 L 368 259 L 369 256 L 371 258 L 376 261 Q 385 263 387 257 L 394 262 L 401 260 L 401 231 L 400 229 L 394 225 Q 388 224 388 228 Q 384 229 385 227 L 380 223 Q 373 222 371 226 L 371 250 L 369 250 L 369 226 L 368 223 Q 365 220 357 221 Z " /><path fill="rgb(236,185,48)" stroke="rgb(236,185,48)" stroke-width="0.6" opacity="1" d="M 357 226 Q 364.1 224.2 366 228.5 L 366 253.5 L 364.5 255 Q 358.5 256.5 357 253.5 L 357 226 Z " /><path fill="rgb(236,185,48)" stroke="rgb(236,185,48)" stroke-width="0.6" opacity="1" d="M 422.5 234 L 428 236.5 L 428 256.5 L 426.5 258 Q 421.8 258.8 421 255.5 L 421 235.5 L 422.5 234 Z " /><path fill="rgb(236,185,48)" stroke="rgb(236,185,48)" stroke-width="0.6" opacity="1" d="M 436 236 Q 440.7 235 442 238.5 L 442 256.5 L 440.5 258 L 436 256.5 L 436 236 Z " /><path fill="rgb(236,185,48)" stroke="rgb(236,185,48)" stroke-width="0.6" opacity="1" d="M 208.5 294 L 212 295.5 L 210 307.5 L 208.5 309 Q 196.1 308.6 187.5 312 L 174 324.5 Q 171.9 332.4 165.5 336 Q 157 343 143.5 345 L 128.5 345 L 124.5 347 L 101.5 347 L 66.5 344 L 51.5 341 Q 41.9 338.6 37 331.5 L 39.5 331 L 48.5 334 L 59.5 336 L 71.5 336 L 77.5 338 L 112.5 338 L 113.5 337 L 126.5 337 L 142.5 332 L 156.5 324 L 183.5 302 L 194.5 297 L 208.5 294 Z " /><path fill="rgb(236,185,48)" stroke="rgb(236,185,48)" stroke-width="0.6" opacity="1" d="M 282.5 307 L 287 308.5 L 284 321.5 L 280.5 325 L 237.5 329 L 237 326.5 L 235 312.5 L 240.5 310 L 278.5 309 L 282.5 307 Z " /><path fill="rgb(236,185,48)" stroke="rgb(236,185,48)" stroke-width="0.6" opacity="1" d="M 225.5 312 L 230 313.5 Q 231.7 318.3 227.5 317 L 226 320.5 L 229 328 Q 226 329.3 227 325.5 L 221.5 323 L 218 325.5 Q 213.5 329 215 338.5 L 217.5 343 L 221.5 344 L 227 339.5 Q 226 335.8 229 337 Q 227.9 344.6 222.5 349 L 218.5 349 L 212 344.5 L 211 330.5 L 217 322.5 L 218 318 Q 223.4 319.5 225 316.5 L 224 313.5 L 225.5 312 Z " /><path fill="rgb(236,185,48)" stroke="rgb(236,185,48)" stroke-width="0.6" opacity="1" d="M 303.5 318 L 305 319.5 L 304 324.5 L 307 332.5 Q 304.5 336.5 302 330.5 L 301 320.5 L 303.5 318 Z " /><path fill="rgb(236,185,48)" stroke="rgb(236,185,48)" stroke-width="0.6" opacity="1" d="M 270.5 330 Q 277.3 328.3 279 331.5 L 272.5 335 L 270 334 L 269 331.5 L 270.5 330 Z " /><path fill="rgb(236,185,48)" stroke="rgb(236,185,48)" stroke-width="0.6" opacity="1" d="M 167.5 339 Q 172.2 337.9 170 346.5 L 173 353 Q 165.7 353.6 163 348.5 L 162 344.5 L 167.5 339 Z " /><path fill="rgb(236,185,48)" stroke="rgb(236,185,48)" stroke-width="0.6" opacity="1" d="M 54.5 346 L 75.5 350 L 129.5 351 L 141 350 L 139.5 354 L 128.5 357 L 99.5 357 L 88.5 356 L 84.5 354 L 65.5 353 L 53 347.5 L 54.5 346 Z " /><path fill="rgb(55,59,57)" stroke="rgb(55,59,57)" stroke-width="0.6" opacity="1" d="M 287 179 L 318.5 181 L 351.5 188 L 359.5 188 L 383.5 194 L 397 204.5 L 398 209 L 372.5 206 L 365.5 203 L 336.5 200 L 332.5 198 L 304.5 196 L 301 193.5 L 292.5 183 L 287 181 L 287 179 Z " /><path fill="rgb(55,59,57)" stroke="rgb(55,59,57)" stroke-width="0.6" opacity="1" d="M 116.5 188 L 154.5 189 L 164.5 191 L 168 194.5 L 168 200.5 L 157 225.5 L 150 239.5 L 144.5 245 L 129.5 247 L 128.5 246 L 93.5 246 Q 83.4 243.1 69.5 244 L 63 241.5 Q 74.2 212.7 93.5 192 L 101.5 189 L 115.5 189 L 116.5 188 Z M 98 198 L 96 199 L 93 203 L 97 202 Q 102 201 104 204 L 105 201 Q 103 197 98 198 Z M 134 199 L 130 204 L 138 204 L 143 207 L 142 202 Q 140 198 134 199 Z M 93 211 L 83 221 L 81 229 L 82 235 L 90 241 Q 96 242 99 239 Q 104 235 106 227 L 104 214 Q 101 209 93 211 Z M 129 212 L 125 214 L 117 226 Q 115 239 124 242 L 134 241 Q 140 237 142 229 Q 144 219 140 216 Q 138 210 129 212 Z " /><path fill="rgb(55,59,57)" stroke="rgb(55,59,57)" stroke-width="0.6" opacity="1" d="M 405 201 L 424.5 202 L 461.5 209 L 474.5 214 L 477 216.5 L 480 221.5 L 476.5 223 L 449.5 217 L 415.5 214 L 410 211.5 L 405 201 Z " /><path fill="rgb(55,59,57)" stroke="rgb(55,59,57)" stroke-width="0.6" opacity="1" d="M 240.5 211 L 241 223.5 L 240 223.5 L 240.5 211 Z " /><path fill="rgb(55,59,57)" stroke="rgb(55,59,57)" stroke-width="0.6" opacity="1" d="M 94.5 213 Q 101 212 102 216.5 L 103 219.5 L 101.5 219 L 96.5 219 L 90 224.5 L 89 234.5 L 90 238 L 85 234.5 L 84 225.5 L 90.5 215 L 94.5 213 Z " /><path fill="rgb(55,59,57)" stroke="rgb(55,59,57)" stroke-width="0.6" opacity="1" d="M 316.5 221 Q 325 219 327 223.5 L 327 251.5 L 325.5 253 Q 318 255 316 251.5 L 315 222.5 L 316.5 221 Z " /><path fill="rgb(55,59,57)" stroke="rgb(55,59,57)" stroke-width="0.6" opacity="1" d="M 375.5 227 Q 381 226 382 229.5 L 383 255.5 Q 381.8 258.3 376.5 257 L 374 254.5 L 374 228.5 L 375.5 227 Z " /><path fill="rgb(55,59,57)" stroke="rgb(55,59,57)" stroke-width="0.6" opacity="1" d="M 484.5 240 L 485 259 Q 482 260.3 483 256.5 L 482 248.5 L 483 248.5 L 483.5 254 L 484.5 240 Z " /><path fill="rgb(55,59,57)" stroke="rgb(55,59,57)" stroke-width="0.6" opacity="1" d="M 306.5 262 L 307 272.5 L 306 272.5 L 306.5 262 Z " /><path fill="rgb(55,59,57)" stroke="rgb(55,59,57)" stroke-width="0.6" opacity="1" d="M 125.5 279 L 132 282.5 L 133 291.5 L 126.5 299 L 117.5 301 L 113 297.5 L 113 290.5 L 120.5 281 L 125.5 279 Z " /><path fill="rgb(55,59,57)" stroke="rgb(55,59,57)" stroke-width="0.6" opacity="1" d="M 374.5 286 L 387 286.5 L 374.5 287 L 374.5 286 Z " /><path fill="rgb(55,59,57)" stroke="rgb(55,59,57)" stroke-width="0.6" opacity="1" d="M 415.5 288 L 482.5 288 L 484 289.5 Q 485.3 294.8 482.5 296 Q 463.1 294.1 449.5 298 L 415.5 298 Q 412.3 296.3 414 289.5 L 415.5 288 Z " /><path fill="rgb(55,59,57)" stroke="rgb(55,59,57)" stroke-width="0.6" opacity="1" d="M 442.5 301 L 456.5 301 L 460 303.5 L 456.5 310 L 443.5 311 L 441 302.5 L 442.5 301 Z " /><path fill="rgb(55,59,57)" stroke="rgb(55,59,57)" stroke-width="0.6" opacity="1" d="M 374.5 309 L 375 311 L 377 311.5 L 374.5 316 L 373 315.5 L 372.5 317 L 372 313.5 L 374.5 309 Z " /><path fill="rgb(55,59,57)" stroke="rgb(55,59,57)" stroke-width="0.6" opacity="1" d="M 205.5 325 L 209 326.5 Q 209.3 334.8 204.5 338 L 199.5 339 L 198 337.5 L 197 327.5 L 205.5 325 Z " /><path fill="rgb(55,59,57)" stroke="rgb(55,59,57)" stroke-width="0.6" opacity="1" d="M 185.5 330 L 189 331.5 Q 191.2 340.8 186.5 343 L 182 340.5 Q 181 332.5 185.5 330 Z " /><path fill="rgb(30,30,30)" stroke="rgb(30,30,30)" stroke-width="0.6" opacity="1" d="M 151.5 242 L 146.5 248 L 151.5 242 Z " /><path fill="rgb(30,30,30)" stroke="rgb(30,30,30)" stroke-width="0.6" opacity="1" d="M 59.5 294 L 64.5 300 L 59.5 294 Z " /><path fill="rgb(30,30,30)" stroke="rgb(30,30,30)" stroke-width="0.6" opacity="1" d="M 422.5 302 L 426 303.5 L 424.5 308 L 423 307.5 L 425 307 Q 427.1 301.8 422.5 303 L 421 303.5 L 422.5 302 Z " /><path fill="rgb(30,30,30)" stroke="rgb(30,30,30)" stroke-width="0.6" opacity="1" d="M 318.5 314 L 320 316.5 L 318.5 320 L 318 317 L 315.5 318 L 316.5 316 L 318.5 317 L 319 315.5 L 318.5 314 Z " /><path fill="rgb(30,30,30)" stroke="rgb(30,30,30)" stroke-width="0.6" opacity="1" d="M 159.5 350 L 165.5 357 L 159.5 350 Z " /><path fill="rgb(77,90,79)" stroke="rgb(77,90,79)" stroke-width="0.6" opacity="1" d="M 362.5 286 L 374 286.5 L 362.5 287 L 362.5 286 Z " /><path fill="rgb(55,113,131)" stroke="rgb(55,113,131)" stroke-width="0.6" opacity="1" d="M 302.5 240 L 303 255.5 L 302 255.5 L 302.5 240 Z " /><path fill="rgb(55,113,131)" stroke="rgb(55,113,131)" stroke-width="0.6" opacity="1" d="M 155.5 244 L 146.5 254 L 155.5 244 Z " /><path fill="rgb(55,113,131)" stroke="rgb(55,113,131)" stroke-width="0.6" opacity="1" d="M 59.5 293 L 65.5 300 L 59.5 293 Z " /><path fill="rgb(55,113,131)" stroke="rgb(55,113,131)" stroke-width="0.6" opacity="1" d="M 321 323 Q 324 321.8 323 325.5 L 322 328 L 318.5 330 L 321 326.5 L 321 323 Z " /><path fill="rgb(193,175,48)" stroke="rgb(193,175,48)" stroke-width="0.6" opacity="1" d="M 306.5 220 L 307 236.5 L 306 236.5 L 306.5 220 Z " /><path fill="rgb(193,175,48)" stroke="rgb(193,175,48)" stroke-width="0.6" opacity="1" d="M 316.5 286 L 342 286.5 L 316.5 287 L 316.5 286 Z " /><path fill="rgb(183,61,56)" stroke="rgb(183,61,56)" stroke-width="0.6" opacity="1" d="M 240.5 241 L 241 253.5 L 240 253.5 L 240.5 241 Z " /><path fill="rgb(183,61,56)" stroke="rgb(183,61,56)" stroke-width="0.6" opacity="1" d="M 482.5 260 L 485 261.5 L 484.5 270 L 484 261 L 482.5 260 Z " /><path fill="rgb(183,61,56)" stroke="rgb(183,61,56)" stroke-width="0.6" opacity="1" d="M 148.5 294 L 142.5 301 L 148.5 294 Z " /><path fill="rgb(130,130,47)" stroke="rgb(130,130,47)" stroke-width="0.6" opacity="1" d="M 306.5 237 L 307 254.5 L 306 254.5 L 306.5 237 Z " /><path fill="rgb(130,130,47)" stroke="rgb(130,130,47)" stroke-width="0.6" opacity="1" d="M 342.5 286 L 362 286.5 L 342.5 287 L 342.5 286 Z " /><path fill="rgb(123,61,56)" stroke="rgb(123,61,56)" stroke-width="0.6" opacity="1" d="M 240.5 224 L 241 240.5 L 240 240.5 L 240.5 224 Z " /><path fill="rgb(123,61,56)" stroke="rgb(123,61,56)" stroke-width="0.6" opacity="1" d="M 410.5 244 L 411 257.5 L 410 257.5 L 410.5 244 Z " /><path fill="rgb(178,178,178)" stroke="rgb(178,178,178)" stroke-width="0.6" opacity="1" d="M 488.5 241 L 489 251.5 L 488 251.5 L 488.5 241 Z " /><path fill="rgb(130,130,131)" stroke="rgb(130,130,131)" stroke-width="0.6" opacity="1" d="M 488.5 252 L 489 262.5 L 488 262.5 L 488.5 252 Z " /><path fill="rgb(220,220,220)" stroke="rgb(220,220,220)" stroke-width="0.6" opacity="1" d="M 79.5 200 L 80 202.5 L 72.5 212 L 73 210.5 L 79.5 200 Z " /><path fill="rgb(220,220,220)" stroke="rgb(220,220,220)" stroke-width="0.6" opacity="1" d="M 159.5 351 L 164.5 357 L 159.5 351 Z " /></svg>