<svg width="627" height="627" preserveAspectRatio="xMidYMid meet" viewBox="0 0 512 512" version="1.1" xmlns="http://www.w3.org/2000/svg" ><path fill="rgb(255,255,255)" stroke="rgb(255,255,255)" stroke-width="0.6" opacity="1" d="M 0 0 L 512 0 L 512 512 L 0 512 L 0 0 Z M 230 110 L 229 111 L 209 111 L 200 113 L 194 119 L 193 126 L 173 148 L 174 154 L 198 183 L 193 184 L 190 188 L 188 190 L 122 191 L 118 193 Q 105 192 96 195 L 82 201 L 70 214 L 58 246 L 46 304 L 42 347 L 42 372 L 47 385 Q 49 390 57 390 L 58 393 Q 61 398 69 400 L 89 400 L 107 402 L 130 402 L 131 403 L 180 403 L 191 402 L 198 398 L 199 396 L 202 393 L 253 390 L 255 394 Q 258 400 268 401 Q 277 402 283 399 L 289 392 L 301 398 Q 310 399 316 396 Q 322 393 323 385 L 325 383 L 354 382 L 357 380 L 388 378 L 391 383 L 400 387 L 413 386 L 419 379 L 425 383 L 440 383 L 444 381 L 448 372 L 450 370 Q 459 371 464 368 L 469 362 L 469 344 L 471 341 Q 472 335 469 334 L 469 285 L 468 284 L 467 256 L 461 242 Q 456 234 447 231 L 378 219 L 375 214 L 368 208 L 341 204 L 332 201 L 325 201 L 294 194 L 274 194 L 271 190 L 264 184 L 250 183 L 226 151 L 257 124 L 265 128 L 274 127 L 278 122 L 277 116 Q 274 111 268 110 L 230 110 Z " /><path fill="rgb(255,255,255)" stroke="rgb(255,255,255)" stroke-width="0.6" opacity="1" d="M 200.5 126 L 202 126.5 L 196 131.5 L 200.5 126 Z " /><path fill="rgb(255,255,255)" stroke="rgb(255,255,255)" stroke-width="0.6" opacity="1" d="M 236.5 133 L 238 133.5 L 227.5 143 L 227 141.5 L 236.5 133 Z " /><path fill="rgb(255,255,255)" stroke="rgb(255,255,255)" stroke-width="0.6" opacity="1" d="M 322.5 371 Q 326 372 325 377.5 Q 323.5 380.5 322 377.5 L 321 372.5 L 322.5 371 Z " /><path fill="rgb(57,119,180)" stroke="rgb(57,119,180)" stroke-width="0.6" opacity="1" d="M 235.5 122 L 239 123 L 230.5 133 L 215.5 146 L 193.5 146 L 192 143.5 L 199.5 135 L 202 133.5 L 210.5 124 L 229.5 123 L 231.5 124 L 235.5 122 Z " /><path fill="rgb(57,119,180)" stroke="rgb(57,119,180)" stroke-width="0.6" opacity="1" d="M 218.5 186 L 232.5 187 L 234 188.5 Q 235.3 193.8 232.5 195 L 208.5 191 L 197.5 191 L 196 189.5 L 196.5 188 L 209.5 188 L 218.5 186 Z " /><path fill="rgb(57,119,180)" stroke="rgb(57,119,180)" stroke-width="0.6" opacity="1" d="M 239.5 187 L 262.5 189 L 267 192.5 L 268 199.5 L 265.5 200 L 242.5 197 L 238 194.5 Q 236.5 188.5 239.5 187 Z " /><path fill="rgb(57,119,180)" stroke="rgb(57,119,180)" stroke-width="0.6" opacity="1" d="M 200.5 197 L 218.5 197 L 228.5 200 L 265.5 204 L 268.5 206 L 282.5 207 L 304.5 212 L 313.5 212 Q 327.8 217.7 347.5 218 L 356.5 221 L 378.5 223 L 419.5 232 L 428.5 232 L 446.5 236 L 457 244.5 L 460 254 L 432.5 250 L 421.5 250 L 404.5 247 L 399.5 244 L 393.5 244 L 386.5 245 L 375.5 242 L 348.5 240 L 330.5 236 L 293.5 233 L 276.5 229 L 247.5 227 L 231.5 223 L 201.5 222 Q 193.4 224.9 189 231.5 L 183 242.5 Q 180.6 258.6 174 270.5 L 166 302.5 L 163 327.5 L 166.5 331 L 171.5 332 L 199.5 332 L 205 327.5 L 206 325.5 L 206 242.5 L 201.5 237 Q 194 239 192 235.5 L 198.5 228 L 200.5 227 L 222.5 227 L 258.5 231 L 276.5 235 L 296.5 236 L 314.5 240 L 326.5 240 L 344.5 244 L 364.5 245 L 374.5 248 L 400.5 250 L 418.5 254 L 453.5 257 Q 460.1 257.4 463 261.5 Q 461.7 279.8 465 293.5 L 465 338.5 L 462.5 341 L 430.5 342 L 427.5 341 L 426.5 342 L 398.5 342 L 397.5 343 L 396 341.5 L 395 277.5 L 396 273.5 L 395 263.5 L 391.5 260 L 362.5 257 L 358 261.5 L 358 343.5 L 356.5 345 L 295.5 346 L 294.5 347 L 266.5 347 L 265.5 348 L 264 346.5 L 263 258.5 L 264 254.5 L 263 242.5 L 259.5 238 L 213.5 233 L 211 235.5 L 211 348.5 L 209.5 350 L 180.5 352 L 164.5 361 L 155 362 L 155 344.5 L 158 315.5 L 170 259.5 L 183 217.5 L 196.5 199 L 200.5 197 Z M 279 247 L 274 254 L 274 321 L 275 323 L 280 326 L 323 326 L 324 325 L 337 325 L 338 326 L 349 325 L 353 319 L 353 261 L 352 258 L 350 255 L 340 253 L 279 247 Z M 404 263 L 400 269 L 400 320 L 401 322 L 406 325 L 436 325 L 437 324 L 447 325 L 455 324 L 458 320 L 458 273 L 457 270 L 453 267 L 434 266 L 423 263 L 404 263 Z " /><path fill="rgb(57,119,180)" stroke="rgb(57,119,180)" stroke-width="0.6" opacity="1" d="M 274.5 198 Q 279.8 196.8 281 199.5 L 279.5 203 L 273 200.5 L 274.5 198 Z " /><path fill="rgb(57,119,180)" stroke="rgb(57,119,180)" stroke-width="0.6" opacity="1" d="M 287.5 198 L 302.5 200 L 308 202.5 L 309 206.5 L 306.5 207 L 290.5 205 L 287 202.5 L 287.5 198 Z " /><path fill="rgb(57,119,180)" stroke="rgb(57,119,180)" stroke-width="0.6" opacity="1" d="M 282.5 251 L 311.5 254 L 317 256.5 L 317 319.5 L 315.5 321 L 287.5 322 L 285.5 321 L 280.5 322 L 278 319.5 L 278 254.5 L 282.5 251 Z " /><path fill="rgb(57,119,180)" stroke="rgb(57,119,180)" stroke-width="0.6" opacity="1" d="M 257 255 L 259 255.5 L 259 374.5 L 257.5 376 L 241.5 377 L 239 374.5 L 239 326 Q 242.7 329.8 253.5 328 L 257 323.5 L 257 255 Z " /><path fill="rgb(57,119,180)" stroke="rgb(57,119,180)" stroke-width="0.6" opacity="1" d="M 323.5 257 L 342.5 258 L 349 261.5 L 349 318.5 L 347.5 320 L 324.5 320 L 322 317.5 L 322 258.5 L 323.5 257 Z " /><path fill="rgb(57,119,180)" stroke="rgb(57,119,180)" stroke-width="0.6" opacity="1" d="M 380.5 263 L 389.5 264 L 391 265.5 L 388.5 269 L 382.5 268 L 380.5 269 L 378 265.5 L 380.5 263 Z " /><path fill="rgb(57,119,180)" stroke="rgb(57,119,180)" stroke-width="0.6" opacity="1" d="M 83.5 273 Q 90 272 91 276.5 L 91 279 L 84.5 279 Q 76.1 283.1 77 296.5 L 79 301 L 74 298.5 L 72 290.5 L 74 281.5 L 77.5 277 L 83.5 273 Z " /><path fill="rgb(57,119,180)" stroke="rgb(57,119,180)" stroke-width="0.6" opacity="1" d="M 317.5 383 L 319 384.5 L 314.5 391 L 308.5 393 L 303 388.5 L 302 385.5 L 306.5 384 Q 308 387.5 314.5 386 L 317.5 383 Z " /><path fill="rgb(0,0,0)" stroke="rgb(0,0,0)" stroke-width="0.6" opacity="1" d="M 231.5 110 L 264.5 110 Q 273.5 111 277 117.5 Q 278.3 124.8 273.5 126 L 264.5 127 L 255.5 123 L 225 150.5 L 249.5 184 L 263.5 185 L 270 189.5 L 272.5 194 L 289.5 194 L 320.5 201 L 329.5 201 L 335.5 204 L 367.5 209 L 374 214.5 L 377.5 220 L 443.5 231 Q 453.6 233.4 459 240.5 L 466 254.5 Q 464 264 468 267.5 L 470 340.5 L 469 341.5 L 469 359.5 L 463.5 367 L 447 371.5 Q 446.1 378.1 441.5 381 Q 436.8 384.8 426.5 383 L 419.5 377 L 409.5 386 L 398.5 386 L 390 379.5 L 388.5 377 L 356.5 379 L 353.5 381 L 324.5 382 L 322 384.5 Q 321.1 391.1 316.5 394 Q 311.3 398.8 299.5 397 L 288.5 391 L 282.5 398 Q 277.1 401.6 266.5 400 L 257 394.5 L 253.5 389 L 201.5 392 Q 196.9 398.9 188.5 402 L 132.5 403 L 131.5 402 L 91.5 401 L 87.5 399 L 67.5 399 L 59 392.5 L 56.5 389 L 48 384.5 L 42 369.5 L 42 348.5 L 44 326.5 L 46 323.5 L 47 302.5 L 58 248.5 L 64 228.5 L 71 214.5 L 82.5 202 L 94.5 196 L 111.5 193 L 142.5 192 L 147.5 190 L 188.5 190 L 191 187.5 L 192.5 185 Q 198.3 185.8 200 182.5 L 176 154.5 L 174 147.5 L 195 124.5 Q 193.5 115.5 199.5 114 L 205.5 112 L 227.5 112 L 231.5 110 Z M 235 114 L 202 117 L 200 121 L 214 121 L 217 119 L 249 118 L 250 121 L 232 136 Q 223 140 222 148 L 253 122 L 258 116 L 257 114 L 235 114 Z M 265 114 L 260 121 L 267 124 Q 272 124 274 121 L 273 118 Q 271 114 265 114 Z M 235 122 L 210 124 L 190 145 L 196 147 L 216 147 L 241 124 Q 240 121 235 122 Z M 202 124 L 181 147 L 204 126 L 202 124 Z M 188 151 L 188 154 L 213 183 L 233 182 L 234 181 L 217 156 L 214 152 L 188 151 Z M 183 153 L 184 158 L 202 182 L 206 183 L 206 181 L 183 153 Z M 223 154 L 223 158 L 239 181 Q 241 184 242 181 L 223 154 Z M 218 186 L 217 187 L 198 187 L 193 190 L 195 191 L 208 191 L 211 193 L 227 195 Q 232 196 234 194 L 234 186 L 218 186 Z M 240 186 Q 236 188 238 196 L 240 197 L 263 201 L 268 200 L 267 192 L 263 188 L 240 186 Z M 152 194 L 151 195 L 109 197 Q 95 198 86 204 L 72 220 L 63 244 L 55 279 L 54 293 L 50 307 L 46 358 L 50 360 L 60 362 L 77 362 L 94 364 L 150 364 L 151 363 L 151 347 Q 155 340 153 329 L 161 285 L 175 232 Q 180 215 188 203 L 197 196 L 196 194 L 152 194 Z M 202 196 L 196 199 L 184 214 L 169 261 L 157 318 L 154 361 L 155 363 L 164 362 L 180 353 Q 186 354 188 351 L 210 351 L 211 350 L 211 238 L 214 234 L 225 234 L 260 239 L 263 244 L 263 342 L 264 348 L 357 345 L 358 344 L 358 263 L 361 258 L 391 260 L 395 266 L 395 339 L 396 343 L 461 342 L 465 340 L 465 293 L 464 292 L 464 264 L 463 261 L 459 257 L 415 253 L 407 250 L 378 248 L 362 244 L 349 244 L 330 240 L 312 239 L 295 235 L 273 234 L 256 230 L 219 226 L 202 226 L 198 228 L 191 236 Q 193 239 201 237 L 206 244 L 206 325 L 201 331 L 168 331 L 164 328 L 166 307 L 175 271 L 185 240 L 191 230 Q 196 224 205 222 L 234 224 L 251 228 L 273 229 L 297 234 L 333 237 L 343 240 L 378 243 L 389 246 L 401 246 L 425 251 L 439 251 L 457 255 L 461 254 L 456 243 L 446 235 L 432 232 L 424 232 L 377 222 L 355 220 L 346 217 L 337 217 L 312 211 L 301 211 L 286 207 L 277 207 L 264 203 L 227 199 L 217 196 L 202 196 Z M 274 198 L 272 201 Q 274 205 281 203 L 282 200 Q 280 196 274 198 Z M 288 198 L 286 204 L 288 205 L 305 208 L 309 207 L 308 202 L 307 200 L 288 198 Z M 314 203 L 312 208 L 315 210 L 326 210 L 333 213 L 370 218 L 371 215 L 348 208 L 340 208 L 322 203 L 314 203 Z M 217 237 L 215 239 L 215 378 L 217 379 L 235 378 L 236 377 L 236 324 L 234 326 Q 231 330 222 328 L 217 323 L 217 254 L 222 247 Q 231 246 235 251 L 236 251 L 236 241 L 234 238 L 217 237 Z M 192 239 L 187 246 L 180 264 L 177 281 L 173 290 L 167 318 Q 165 326 169 328 L 172 327 L 201 327 L 202 326 L 202 243 Q 199 239 192 239 Z M 241 240 L 239 242 L 239 253 L 244 250 Q 255 248 257 255 L 257 323 L 253 328 L 245 328 L 239 324 L 239 376 L 241 377 L 258 376 L 259 375 L 259 244 L 257 241 L 241 240 Z M 223 250 L 221 252 L 221 324 Q 223 327 231 325 L 232 324 L 232 253 L 231 251 L 223 250 Z M 245 253 L 243 255 L 243 324 L 251 326 L 253 324 L 253 255 Q 251 251 245 253 Z M 364 261 L 362 263 L 362 271 L 364 271 L 366 268 Q 372 267 374 270 Q 377 270 375 263 L 374 261 L 364 261 Z M 380 263 Q 376 265 378 271 L 382 269 Q 388 268 390 272 Q 393 272 391 265 L 390 263 L 380 263 Z M 368 270 L 366 272 L 366 319 L 371 320 L 372 319 L 372 272 L 368 270 Z M 384 272 L 382 274 L 382 319 L 386 320 L 387 319 L 387 274 L 384 272 Z M 362 321 L 362 366 L 364 367 L 374 367 L 375 366 L 375 324 Q 373 320 372 324 L 367 324 L 362 321 Z M 390 321 L 387 324 Q 382 325 381 322 L 378 328 L 378 365 L 380 366 L 390 366 L 391 365 L 391 323 L 390 321 Z M 456 344 L 431 346 L 397 346 L 395 348 L 395 367 L 393 369 L 360 370 L 358 369 L 358 350 L 357 348 L 329 349 L 328 350 L 281 350 L 265 352 L 263 354 L 263 377 L 259 380 L 213 382 L 211 381 L 211 356 L 210 354 L 182 355 L 165 364 L 155 365 L 153 367 L 153 384 L 158 391 L 220 389 L 223 387 L 255 386 Q 258 382 268 384 L 273 376 L 282 369 L 325 367 L 328 371 L 332 379 L 401 372 L 405 364 L 413 358 L 447 357 L 452 366 L 462 365 L 465 361 L 465 346 Q 463 342 456 344 Z M 442 360 L 440 366 L 445 368 L 446 363 L 442 360 Z M 414 361 L 411 362 L 406 370 Q 408 373 415 371 L 417 368 L 419 366 L 421 369 L 435 368 L 436 367 L 435 361 L 421 361 L 419 363 L 414 361 Z M 48 363 L 46 365 L 47 376 L 49 381 Q 53 387 63 388 L 108 390 L 109 391 L 152 391 L 153 390 Q 149 382 150 369 L 149 367 L 141 368 L 135 367 L 79 367 L 48 363 Z M 322 370 L 320 372 L 321 379 L 325 380 Q 327 379 326 374 L 322 370 Z M 314 371 L 301 372 L 299 374 Q 298 379 301 380 L 316 379 L 317 374 L 314 371 Z M 425 371 L 423 373 Q 422 378 427 379 L 429 378 L 426 373 L 425 371 Z M 432 371 L 430 373 L 431 378 L 436 380 L 440 379 L 443 372 L 440 373 L 432 371 Z M 280 373 L 275 379 L 275 382 L 279 384 L 285 381 L 295 381 Q 297 380 296 375 L 295 373 L 280 373 Z M 405 373 Q 401 374 402 379 Q 404 383 412 382 Q 416 380 415 374 L 412 376 Q 406 377 405 373 Z M 395 376 L 393 379 Q 394 383 400 382 L 399 380 Q 401 374 395 376 Z M 318 382 L 314 386 Q 307 387 306 383 L 301 385 L 302 389 L 308 393 L 315 392 L 320 384 Q 321 381 318 382 Z M 295 383 L 293 385 Q 292 391 296 392 L 301 391 L 299 386 L 295 383 Z M 271 385 Q 268 386 269 392 L 276 396 L 283 395 L 287 390 L 286 385 L 280 388 L 271 385 Z M 261 388 L 259 392 Q 261 396 267 395 L 265 390 L 261 388 Z M 66 391 L 64 393 L 67 395 Q 76 394 82 397 L 180 399 L 181 397 L 180 395 L 108 395 L 103 393 Q 81 395 66 391 Z M 187 394 L 185 396 L 187 399 L 193 396 Q 192 393 187 394 Z " /><path fill="rgb(0,0,0)" stroke="rgb(0,0,0)" stroke-width="0.6" opacity="1" d="M 125.5 209 L 152.5 209 Q 154.5 212 160.5 211 L 168 217.5 L 168 228.5 L 156 274.5 L 155 287.5 L 151 298.5 L 151 306.5 L 142.5 320 L 125.5 326 L 84.5 327 L 64.5 324 L 56 318.5 Q 51.7 314.3 53 304.5 L 61 261.5 L 67 238.5 L 75 220.5 L 80.5 215 L 93.5 211 L 120.5 211 L 125.5 209 Z M 126 213 L 125 214 L 99 214 L 84 217 L 81 219 Q 75 223 73 232 L 75 236 L 108 235 L 109 234 L 159 234 L 163 235 L 165 229 L 164 217 L 162 214 L 154 213 L 126 213 Z M 113 238 L 112 239 L 72 240 L 69 245 L 62 273 L 58 296 L 58 306 L 56 309 L 57 316 L 60 318 L 71 322 L 85 322 L 86 323 L 121 323 L 135 321 L 142 317 L 148 305 L 148 298 L 152 288 L 153 275 L 161 240 L 160 238 L 113 238 Z " /><path fill="rgb(0,0,0)" stroke="rgb(0,0,0)" stroke-width="0.6" opacity="1" d="M 279.5 247 L 343.5 254 Q 349.9 254.7 352 259.5 L 353 262.5 L 353 317.5 L 347.5 325 L 286.5 325 L 280.5 326 L 275 321.5 L 274 319.5 L 274 254.5 L 279.5 247 Z M 281 251 L 278 254 L 278 321 L 280 322 L 316 322 L 317 321 L 317 256 L 316 254 L 281 251 Z M 324 256 L 322 258 L 322 320 L 324 321 L 348 321 L 349 320 L 349 261 L 347 258 L 324 256 Z " /><path fill="rgb(0,0,0)" stroke="rgb(0,0,0)" stroke-width="0.6" opacity="1" d="M 83.5 255 Q 90.5 253.5 92 257.5 L 90.5 260 L 84.5 259 L 78.5 261 L 83.5 255 Z " /><path fill="rgb(0,0,0)" stroke="rgb(0,0,0)" stroke-width="0.6" opacity="1" d="M 124.5 255 Q 134.1 253.9 136 260.5 L 134.5 263 Q 132.1 258.4 124.5 259 L 121 260 L 124.5 255 Z " /><path fill="rgb(0,0,0)" stroke="rgb(0,0,0)" stroke-width="0.6" opacity="1" d="M 404.5 263 L 425.5 264 L 436.5 267 L 450.5 267 L 457 271.5 L 458 273.5 L 458 317.5 L 453.5 324 L 410.5 324 L 406.5 325 L 401 320.5 L 400 318.5 L 400 269.5 L 404.5 263 Z M 406 267 L 404 269 L 404 320 L 408 322 Q 413 323 415 320 L 429 320 L 430 319 L 430 270 L 429 268 L 406 267 Z M 436 270 L 434 272 L 434 319 L 436 320 L 453 320 L 454 319 L 454 273 L 451 270 L 436 270 Z " /><path fill="rgb(0,0,0)" stroke="rgb(0,0,0)" stroke-width="0.6" opacity="1" d="M 82.5 270 L 88 271 L 86.5 273 L 84.5 272 L 75 278.5 Q 70.5 284 72 295.5 L 75.5 301 L 79.5 302 L 80 299.5 Q 76.2 297.2 77 290.5 L 81.5 282 Q 84.6 278.4 92 280 L 90 274.5 L 91.5 274 L 96 282.5 L 96 289.5 Q 93.9 299.4 86.5 304 L 79.5 305 L 72 299.5 Q 68.2 294.8 70 284.5 L 77.5 273 L 82.5 270 Z M 89 283 L 85 287 L 87 290 L 91 289 Q 92 284 89 283 Z " /><path fill="rgb(0,0,0)" stroke="rgb(0,0,0)" stroke-width="0.6" opacity="1" d="M 120.5 271 Q 130.3 269.3 133 274.5 L 137 283.5 L 137 288.5 L 133 298.5 L 126.5 305 L 119.5 306 L 113 302 L 109 293.5 L 109 287.5 Q 111.1 278.1 117.5 273 L 120.5 271 Z M 124 273 L 119 275 Q 112 279 111 290 L 113 300 Q 114 304 120 303 L 117 298 L 117 290 L 125 280 Q 130 279 132 282 L 133 279 L 124 273 Z M 128 284 L 125 289 L 131 290 L 132 287 L 128 284 Z " /><path fill="rgb(0,0,0)" stroke="rgb(0,0,0)" stroke-width="0.6" opacity="1" d="M 54.5 334 Q 61 333 63 336.5 Q 66 340.5 65 348.5 L 61.5 353 L 54.5 354 Q 47.5 351.5 50 339.5 L 54.5 334 Z M 56 337 L 52 342 Q 50 350 56 352 L 60 351 L 62 348 L 61 339 L 56 337 Z " /><path fill="rgb(0,0,0)" stroke="rgb(0,0,0)" stroke-width="0.6" opacity="1" d="M 132.5 335 L 138.5 335 L 145 341.5 L 145 348.5 L 139.5 356 L 133.5 357 L 127 353.5 L 126 344.5 L 132.5 335 Z M 137 337 L 134 338 L 128 346 L 129 351 Q 131 356 139 354 L 142 350 L 141 340 L 137 337 Z " /><path fill="rgb(0,0,0)" stroke="rgb(0,0,0)" stroke-width="0.6" opacity="1" d="M 76.5 343 L 84 354 L 97.5 356 Q 107.2 354.2 112 347.5 Q 110.8 343.8 114.5 345 L 116 348 L 112 350.5 L 110.5 353 Q 103.8 359.3 89.5 358 L 78 350.5 L 75 344.5 L 76.5 343 Z " /><path fill="rgb(216,62,57)" stroke="rgb(216,62,57)" stroke-width="0.6" opacity="1" d="M 235.5 114 L 255.5 115 L 257 116.5 L 251 121.5 L 250.5 118 L 229.5 118 L 201.5 121 Q 198 119 202.5 117 L 235.5 114 Z " /><path fill="rgb(216,62,57)" stroke="rgb(216,62,57)" stroke-width="0.6" opacity="1" d="M 313 203 Q 326.3 203.3 336.5 208 L 345.5 208 L 366.5 213 L 370 215.5 Q 370.5 218.5 363.5 217 L 331.5 212 L 321.5 209 L 314.5 209 L 313 207.5 L 313 203 Z " /><path fill="rgb(216,62,57)" stroke="rgb(216,62,57)" stroke-width="0.6" opacity="1" d="M 113.5 238 L 157.5 238 L 160 240.5 L 152 276.5 L 151 288.5 L 147 300.5 L 147 306.5 L 140.5 317 L 135.5 320 L 125.5 322 L 86.5 323 Q 79.7 319.8 68.5 321 L 58 315.5 L 57 307.5 L 63 271.5 L 70 243.5 L 72.5 240 L 112.5 239 L 113.5 238 Z M 87 254 Q 79 255 77 261 L 79 263 L 84 260 L 91 261 L 93 260 L 92 257 L 87 254 Z M 124 255 L 122 256 L 120 260 L 123 260 Q 132 258 135 264 L 137 263 L 136 260 Q 134 253 124 255 Z M 82 270 L 77 273 Q 71 278 69 288 L 71 300 Q 74 307 87 305 Q 94 301 96 292 Q 97 281 94 276 L 88 270 L 82 270 Z M 124 270 L 117 273 L 109 286 Q 108 295 111 301 L 118 306 L 127 306 Q 135 301 137 290 Q 138 280 134 275 Q 131 270 124 270 Z " /><path fill="rgb(216,62,57)" stroke="rgb(216,62,57)" stroke-width="0.6" opacity="1" d="M 240.5 240 L 257.5 242 L 259 243.5 Q 261.3 251.8 257.5 254 Q 254.4 247.6 243.5 249 L 240.5 251 Q 237 249 239 241.5 L 240.5 240 Z " /><path fill="rgb(216,62,57)" stroke="rgb(216,62,57)" stroke-width="0.6" opacity="1" d="M 222.5 251 L 232 252 L 232 323.5 L 230.5 325 Q 223 327 221 323.5 L 221 252.5 L 222.5 251 Z " /><path fill="rgb(216,62,57)" stroke="rgb(216,62,57)" stroke-width="0.6" opacity="1" d="M 406.5 267 L 415.5 267 Q 420.1 269.9 428.5 269 L 430 270.5 L 430 318.5 L 428.5 320 L 407.5 321 L 404 318.5 L 404 269.5 L 406.5 267 Z " /><path fill="rgb(216,62,57)" stroke="rgb(216,62,57)" stroke-width="0.6" opacity="1" d="M 362 323 L 372.5 324 L 375 323 L 375 364.5 L 373.5 366 L 363.5 367 L 362 365.5 L 362 323 Z " /><path fill="rgb(216,62,57)" stroke="rgb(216,62,57)" stroke-width="0.6" opacity="1" d="M 427.5 361 Q 434.3 359.3 436 362.5 L 434.5 367 L 420 368 L 421.5 362 L 427.5 361 Z " /><path fill="rgb(216,62,57)" stroke="rgb(216,62,57)" stroke-width="0.6" opacity="1" d="M 47 364 L 97.5 368 L 143.5 368 L 148.5 367 L 150 368.5 Q 148.4 381.6 152 389.5 L 150.5 391 L 109.5 391 L 83.5 388 L 65.5 388 Q 55.2 386.8 50 380.5 Q 45.2 375.1 47 364 Z " /><path fill="rgb(216,62,57)" stroke="rgb(216,62,57)" stroke-width="0.6" opacity="1" d="M 300 372 L 314.5 372 L 316 373.5 Q 318.3 380.3 311.5 378 L 300.5 380 L 300 377.5 L 300 372 Z " /><path fill="rgb(216,62,57)" stroke="rgb(216,62,57)" stroke-width="0.6" opacity="1" d="M 404.5 374 Q 406.5 377 412.5 376 L 415 375 L 411.5 381 L 407.5 382 L 402 377.5 L 404.5 374 Z " /><path fill="rgb(216,62,57)" stroke="rgb(216,62,57)" stroke-width="0.6" opacity="1" d="M 260.5 388 L 265 389.5 L 266 394 L 259 390.5 L 260.5 388 Z " /><path fill="rgb(55,59,58)" stroke="rgb(55,59,58)" stroke-width="0.6" opacity="1" d="M 263.5 115 Q 270.8 113.8 273 117.5 L 271.5 123 Q 262.3 125.3 260 120.5 L 263.5 115 Z " /><path fill="rgb(55,59,58)" stroke="rgb(55,59,58)" stroke-width="0.6" opacity="1" d="M 199.5 146 L 216 146.5 L 199.5 147 L 199.5 146 Z " /><path fill="rgb(55,59,58)" stroke="rgb(55,59,58)" stroke-width="0.6" opacity="1" d="M 235.5 173 L 241 180.5 L 239 179.5 L 235.5 173 Z " /><path fill="rgb(55,59,58)" stroke="rgb(55,59,58)" stroke-width="0.6" opacity="1" d="M 201.5 196 L 214 196.5 L 201.5 197 L 201.5 196 Z " /><path fill="rgb(55,59,58)" stroke="rgb(55,59,58)" stroke-width="0.6" opacity="1" d="M 195.5 199 L 191 204.5 L 189.5 208 L 187.5 209 L 189 206.5 L 195.5 199 Z " /><path fill="rgb(55,59,58)" stroke="rgb(55,59,58)" stroke-width="0.6" opacity="1" d="M 125.5 213 L 153.5 213 L 160.5 214 L 164 217.5 L 165 227.5 L 164 232.5 L 161.5 235 L 159.5 234 L 108.5 234 L 107.5 235 L 74.5 236 L 73 231.5 Q 75.4 222.4 82.5 218 L 100.5 214 L 124.5 214 L 125.5 213 Z " /><path fill="rgb(55,59,58)" stroke="rgb(55,59,58)" stroke-width="0.6" opacity="1" d="M 201.5 226 L 219 226.5 L 201.5 227 L 201.5 226 Z " /><path fill="rgb(55,59,58)" stroke="rgb(55,59,58)" stroke-width="0.6" opacity="1" d="M 393.5 244 Q 400.8 242.8 403 246.5 L 401.5 247 L 392 245.5 L 393.5 244 Z " /><path fill="rgb(55,59,58)" stroke="rgb(55,59,58)" stroke-width="0.6" opacity="1" d="M 244.5 253 Q 251.3 251.3 253 254.5 L 253 323.5 L 251.5 325 L 247.5 326 L 243 322.5 L 243 254.5 L 244.5 253 Z " /><path fill="rgb(55,59,58)" stroke="rgb(55,59,58)" stroke-width="0.6" opacity="1" d="M 435.5 270 Q 449 267.5 454 273.5 L 454 318.5 L 452.5 320 L 435.5 320 L 434 318.5 L 434 271.5 L 435.5 270 Z " /><path fill="rgb(55,59,58)" stroke="rgb(55,59,58)" stroke-width="0.6" opacity="1" d="M 383.5 272 L 387 273.5 L 387 318.5 L 385.5 320 L 382 318.5 L 382 273.5 L 383.5 272 Z " /><path fill="rgb(55,59,58)" stroke="rgb(55,59,58)" stroke-width="0.6" opacity="1" d="M 123.5 273 Q 130.7 273.9 133 279.5 L 132.5 281 L 129.5 280 Q 123.3 278.8 122 282.5 L 117 289.5 L 117 297.5 L 120 303 L 114 300.5 L 111 290.5 L 113 281.5 L 117.5 276 L 123.5 273 Z " /><path fill="rgb(55,59,58)" stroke="rgb(55,59,58)" stroke-width="0.6" opacity="1" d="M 263.5 317 L 264 329.5 L 263 329.5 L 263.5 317 Z " /><path fill="rgb(55,59,58)" stroke="rgb(55,59,58)" stroke-width="0.6" opacity="1" d="M 322.5 318 L 324.5 320 L 346 320.5 L 323.5 321 L 322.5 318 Z " /><path fill="rgb(55,59,58)" stroke="rgb(55,59,58)" stroke-width="0.6" opacity="1" d="M 181.5 331 L 200 331.5 L 181.5 332 L 181.5 331 Z " /><path fill="rgb(55,59,58)" stroke="rgb(55,59,58)" stroke-width="0.6" opacity="1" d="M 56.5 337 L 61 338.5 L 62 347.5 Q 61 352 54.5 351 Q 51 349 52 342.5 L 56.5 337 Z " /><path fill="rgb(55,59,58)" stroke="rgb(55,59,58)" stroke-width="0.6" opacity="1" d="M 133.5 338 Q 139.5 336.5 141 339.5 L 142 349.5 Q 140.8 355.3 132.5 354 Q 127.3 352.3 129 343.5 L 133.5 338 Z " /><path fill="rgb(55,59,58)" stroke="rgb(55,59,58)" stroke-width="0.6" opacity="1" d="M 398.5 342 L 423 342.5 L 398.5 343 L 398.5 342 Z " /><path fill="rgb(55,59,58)" stroke="rgb(55,59,58)" stroke-width="0.6" opacity="1" d="M 455.5 344 Q 463 342 465 345.5 L 465 360.5 L 460.5 365 L 451.5 366 L 446.5 357 L 439.5 356 Q 429.2 360.2 412.5 358 L 405 362.5 Q 404.7 369.2 400.5 372 L 374.5 375 L 362.5 375 L 356.5 377 L 330 378 Q 330.3 371.4 326.5 368 L 310.5 367 L 295.5 369 L 281.5 369 L 274 373.5 L 268.5 383 L 257.5 384 L 252.5 386 L 222.5 387 L 217.5 389 L 158.5 391 Q 150.3 384.3 153 366.5 L 154.5 365 L 164.5 364 L 181.5 355 L 209.5 354 L 211 355.5 L 211 380.5 L 213.5 383 L 258.5 380 L 263 376.5 L 263 353.5 L 264.5 352 L 284.5 350 L 327.5 350 L 328.5 349 L 356.5 348 L 358 349.5 L 358 368.5 L 360.5 371 L 392.5 369 L 395 366.5 L 395 347.5 L 396.5 346 L 430.5 346 L 455.5 344 Z " /><path fill="rgb(55,59,58)" stroke="rgb(55,59,58)" stroke-width="0.6" opacity="1" d="M 326.5 345 L 344 345.5 L 326.5 346 L 326.5 345 Z " /><path fill="rgb(55,59,58)" stroke="rgb(55,59,58)" stroke-width="0.6" opacity="1" d="M 295.5 346 L 319 346.5 L 295.5 347 L 295.5 346 Z " /><path fill="rgb(55,59,58)" stroke="rgb(55,59,58)" stroke-width="0.6" opacity="1" d="M 154.5 347 L 155 360.5 L 154.5 363 L 154 360.5 L 154.5 347 Z " /><path fill="rgb(55,59,58)" stroke="rgb(55,59,58)" stroke-width="0.6" opacity="1" d="M 266.5 347 L 291 347.5 L 266.5 348 L 266.5 347 Z " /><path fill="rgb(55,59,58)" stroke="rgb(55,59,58)" stroke-width="0.6" opacity="1" d="M 431.5 371 Q 434.2 373.8 440.5 373 L 443 372 L 439.5 379 Q 432.8 380.8 431 377.5 L 430 372.5 L 431.5 371 Z " /><path fill="rgb(55,59,58)" stroke="rgb(55,59,58)" stroke-width="0.6" opacity="1" d="M 294.5 383 L 298 384.5 L 301 390.5 L 296.5 392 Q 292 391 293 384.5 L 294.5 383 Z " /><path fill="rgb(55,59,58)" stroke="rgb(55,59,58)" stroke-width="0.6" opacity="1" d="M 65.5 391 Q 79.9 395.1 100.5 393 L 107.5 395 L 179.5 395 L 181 396.5 L 178.5 399 L 136.5 399 L 135.5 398 L 84.5 397 Q 77.5 394 66.5 395 L 64 392.5 L 65.5 391 Z " /><path fill="rgb(236,185,48)" stroke="rgb(236,185,48)" stroke-width="0.6" opacity="1" d="M 189 151 L 212.5 152 L 216 155.5 L 233 180.5 L 231.5 182 L 212.5 182 L 193 158.5 L 189 151 Z " /><path fill="rgb(236,185,48)" stroke="rgb(236,185,48)" stroke-width="0.6" opacity="1" d="M 152.5 194 L 193.5 194 L 195 195.5 L 188 201.5 L 175 228.5 L 160 285.5 L 153 323.5 L 151 358.5 L 148.5 363 L 145.5 364 L 94.5 364 L 93.5 363 L 78.5 363 L 74.5 361 L 57.5 361 L 47 357.5 L 47 338.5 L 49 335.5 L 49 324.5 L 51 310 Q 55 308.6 53 315.5 L 58.5 322 L 70.5 326 L 115.5 327 L 134.5 324 Q 143 322.5 147 316.5 L 151 308.5 Q 150.8 296.8 155 289.5 L 155 282.5 L 168 231.5 L 168 216.5 L 160.5 210 L 123.5 209 L 122.5 210 L 90.5 211 Q 78.4 212.4 73.5 221 L 74 219.5 L 85.5 205 Q 94 199.5 106.5 198 L 117.5 198 L 122.5 196 L 151.5 195 L 152.5 194 Z M 55 333 L 49 340 Q 47 352 55 355 L 62 354 L 66 348 Q 67 340 64 337 Q 62 332 55 333 Z M 132 335 L 125 345 Q 124 352 127 355 L 134 358 L 140 357 L 146 349 L 145 340 Q 143 333 132 335 Z M 77 342 L 73 345 L 77 351 Q 81 356 90 358 L 93 359 Q 104 359 111 354 L 113 351 L 116 349 L 117 347 L 113 343 L 111 348 Q 107 354 99 355 L 87 354 L 79 347 L 79 344 L 77 342 Z " /><path fill="rgb(236,185,48)" stroke="rgb(236,185,48)" stroke-width="0.6" opacity="1" d="M 215 238 L 233.5 239 L 236 241.5 Q 237.8 249.4 234.5 249 L 231.5 247 L 222.5 246 L 218 249.5 L 217 251.5 L 217 324.5 L 219.5 328 Q 231.7 330.2 236 326 L 236 376.5 L 234.5 378 L 216.5 379 L 215 377.5 L 215 238 Z " /><path fill="rgb(236,185,48)" stroke="rgb(236,185,48)" stroke-width="0.6" opacity="1" d="M 191.5 240 Q 199.5 239 202 243.5 L 202 324.5 L 199.5 327 L 168.5 327 L 167 325.5 L 170 306.5 L 174 289.5 L 177 284.5 L 181 263.5 L 189 242.5 L 191.5 240 Z " /><path fill="rgb(236,185,48)" stroke="rgb(236,185,48)" stroke-width="0.6" opacity="1" d="M 363 262 L 373.5 262 L 375 263.5 L 374 268 L 365.5 267 L 362 268 L 363 262 Z " /><path fill="rgb(236,185,48)" stroke="rgb(236,185,48)" stroke-width="0.6" opacity="1" d="M 367.5 271 L 372 272.5 L 372 318.5 L 370.5 320 L 366 317.5 L 366 272.5 L 367.5 271 Z " /><path fill="rgb(236,185,48)" stroke="rgb(236,185,48)" stroke-width="0.6" opacity="1" d="M 388.5 323 L 391 324.5 L 391 363.5 L 389.5 365 L 379.5 365 L 378 363.5 L 378 331.5 L 379 326.5 L 381.5 324 L 385.5 325 L 388.5 323 Z " /><path fill="rgb(236,185,48)" stroke="rgb(236,185,48)" stroke-width="0.6" opacity="1" d="M 412.5 362 L 417 363.5 L 413.5 370 Q 408.3 371.3 407 368.5 L 410.5 363 L 412.5 362 Z " /><path fill="rgb(236,185,48)" stroke="rgb(236,185,48)" stroke-width="0.6" opacity="1" d="M 281.5 373 L 294.5 373 L 296 374.5 L 294.5 380 L 277.5 383 L 276 378.5 L 279.5 374 L 281.5 373 Z " /><path fill="rgb(236,185,48)" stroke="rgb(236,185,48)" stroke-width="0.6" opacity="1" d="M 270 386 L 279.5 389 L 284.5 386 L 286 390.5 Q 284.1 396.1 275.5 395 L 270 391.5 L 270 386 Z " /><path fill="rgb(30,30,30)" stroke="rgb(30,30,30)" stroke-width="0.6" opacity="1" d="M 81.5 256 L 78.5 261 L 80 261.5 L 78.5 262 L 77 260.5 L 81.5 256 Z " /><path fill="rgb(30,30,30)" stroke="rgb(30,30,30)" stroke-width="0.6" opacity="1" d="M 263.5 330 L 264 341.5 L 263 341.5 L 263.5 330 Z " /><path fill="rgb(30,30,30)" stroke="rgb(30,30,30)" stroke-width="0.6" opacity="1" d="M 139.5 335 L 144.5 341 L 139.5 335 Z " /><path fill="rgb(56,117,140)" stroke="rgb(56,117,140)" stroke-width="0.6" opacity="1" d="M 263.5 282 L 264 301.5 L 263 301.5 L 263.5 282 Z " /><path fill="rgb(56,117,140)" stroke="rgb(56,117,140)" stroke-width="0.6" opacity="1" d="M 395.5 294 L 396 308.5 L 395 308.5 L 395.5 294 Z " /><path fill="rgb(56,117,140)" stroke="rgb(56,117,140)" stroke-width="0.6" opacity="1" d="M 310.5 325 L 323 325.5 L 310.5 326 L 310.5 325 Z " /><path fill="rgb(68,93,92)" stroke="rgb(68,93,92)" stroke-width="0.6" opacity="1" d="M 263.5 302 L 264 316.5 L 263 316.5 L 263.5 302 Z " /><path fill="rgb(68,93,92)" stroke="rgb(68,93,92)" stroke-width="0.6" opacity="1" d="M 395.5 309 L 396 319.5 L 395 319.5 L 395.5 309 Z " /><path fill="rgb(181,169,48)" stroke="rgb(181,169,48)" stroke-width="0.6" opacity="1" d="M 96.5 210 L 107 210.5 L 96.5 211 L 96.5 210 Z " /><path fill="rgb(181,169,48)" stroke="rgb(181,169,48)" stroke-width="0.6" opacity="1" d="M 75.5 216 L 74 218.5 L 74.5 220 L 76 219.5 L 72.5 225 L 72 222.5 L 75.5 216 Z " /><path fill="rgb(102,76,52)" stroke="rgb(102,76,52)" stroke-width="0.6" opacity="1" d="M 109.5 367 L 122 367.5 L 109.5 368 L 109.5 367 Z " /><path fill="rgb(143,90,53)" stroke="rgb(143,90,53)" stroke-width="0.6" opacity="1" d="M 97.5 367 L 109 367.5 L 97.5 368 L 97.5 367 Z " /><path fill="rgb(120,120,120)" stroke="rgb(120,120,120)" stroke-width="0.6" opacity="1" d="M 201.5 124 Q 204.1 123.2 203 126.5 L 181 147 L 182.5 144 L 183.5 145 L 202 126.5 L 201.5 125 L 200 125.5 L 201.5 124 Z " /><path fill="rgb(228,228,228)" stroke="rgb(228,228,228)" stroke-width="0.6" opacity="1" d="M 242.5 128 L 244 128.5 L 237.5 133 L 239.5 130 L 242.5 128 Z " /></svg>