<svg width="627" height="627" preserveAspectRatio="xMidYMid meet" viewBox="0 0 512 512" version="1.1" xmlns="http://www.w3.org/2000/svg" ><path fill="rgb(255,255,255)" stroke="rgb(255,255,255)" stroke-width="0.6" opacity="1" d="M 0 0 L 512 0 L 512 512 L 0 512 L 0 0 Z M 122 71 L 116 74 Q 109 79 108 89 Q 107 97 111 102 L 121 108 Q 127 109 129 106 L 164 110 L 170 112 Q 177 113 180 108 L 182 110 L 169 183 L 166 184 Q 161 186 161 192 Q 159 199 163 201 L 149 283 Q 145 285 144 291 L 145 295 L 142 316 L 136 325 L 116 333 L 107 343 L 108 346 L 112 348 L 112 351 Q 103 358 98 371 L 94 385 Q 91 416 106 430 Q 115 440 133 442 Q 153 441 164 430 Q 179 417 182 392 Q 184 379 180 372 Q 183 367 183 359 L 188 367 L 184 373 Q 183 386 187 394 Q 198 404 218 407 L 237 407 L 349 386 L 352 392 Q 360 403 377 406 Q 396 406 405 395 Q 415 384 419 366 Q 422 342 414 331 L 419 324 Q 419 312 413 307 Q 404 296 389 293 L 372 294 L 353 304 Q 336 317 330 342 L 329 343 L 316 344 L 304 347 L 291 348 L 213 361 L 175 303 L 177 295 L 175 289 L 189 211 Q 190 205 194 203 L 196 195 Q 195 189 191 187 L 202 128 L 203 116 L 206 111 L 212 112 L 219 118 L 256 122 Q 263 123 267 127 Q 275 128 279 125 Q 286 120 287 110 Q 288 98 283 93 L 276 88 L 268 89 L 257 89 L 229 84 Q 218 82 216 88 L 186 85 L 175 78 L 135 75 Q 131 70 122 71 Z " /><path fill="rgb(255,255,255)" stroke="rgb(255,255,255)" stroke-width="0.6" opacity="1" d="M 170 348 L 172 349.5 Q 175.6 350.9 175 356.5 L 173 355.5 Q 169.1 353.4 170 348 Z " /><path fill="rgb(11,11,11)" stroke="rgb(11,11,11)" stroke-width="0.6" opacity="1" d="M 122.5 72 Q 130.3 71.7 133.5 76 L 173.5 79 L 181 82.5 L 183.5 86 L 215.5 89 Q 218.6 83.6 228.5 85 L 240.5 88 L 265.5 91 Q 268.1 87.6 275.5 89 L 284 95.5 Q 286.8 100.7 286 109.5 Q 284.6 118.1 279.5 123 Q 276.3 127.3 267.5 126 L 257.5 121 L 218.5 117 L 214 113.5 L 212.5 111 L 204.5 110 L 202 115.5 L 190 187.5 L 194 190.5 Q 195.6 200.1 191.5 204 L 189 205.5 L 174 288.5 L 176 293.5 L 174 302.5 L 211.5 362 L 328.5 344 L 331 341.5 Q 336.2 318.7 351.5 306 Q 362.6 293.6 386.5 294 Q 405.4 296.6 414 309.5 L 418 319.5 L 418 323.5 L 415.5 327 L 413 328.5 L 418 344.5 L 418 364.5 Q 414.2 386.7 399.5 398 Q 391.7 404.7 377.5 405 Q 361 402.5 353 391.5 L 348.5 385 L 235.5 406 L 218.5 406 L 197.5 400 L 188 393.5 Q 183.9 385.6 185 372.5 L 189 366.5 L 171.5 339 Q 168.5 338.1 170 342.5 L 180 356.5 L 181 366.5 L 179 371.5 Q 182.3 378.7 181 390.5 Q 177.3 419.3 158.5 433 Q 148.4 442.4 126.5 440 Q 111.2 435.8 103 424.5 Q 97 416.5 95 404.5 L 95 385.5 Q 99.8 361.5 114 348 L 109 345.5 L 109 340.5 L 115.5 334 Q 122.1 328.1 134.5 328 L 137 325.5 L 143 315.5 L 146 294.5 L 145 290.5 L 147.5 285 L 150 283.5 L 152 265.5 L 164 200.5 Q 160.3 198.8 162 191.5 L 165.5 185 L 170 183.5 L 183 108.5 L 178.5 107 Q 176.9 111.9 169.5 111 L 163.5 109 L 128.5 105 L 120.5 107 L 112 101.5 L 109 89.5 Q 110.1 80.1 115.5 75 L 122.5 72 Z M 121 75 Q 114 79 112 87 Q 111 95 114 100 L 121 104 L 126 102 L 169 107 Q 170 105 172 108 L 175 107 L 172 101 Q 171 93 174 89 L 177 87 L 178 85 L 168 81 L 137 79 L 128 77 Q 128 73 121 75 Z M 178 88 Q 172 91 174 102 L 177 104 L 186 105 L 172 186 L 174 187 L 186 189 L 188 185 L 201 109 L 201 107 L 211 108 L 212 107 Q 211 98 214 94 L 212 91 L 178 88 Z M 222 88 Q 215 91 214 101 L 216 112 L 221 115 L 233 115 L 258 119 L 259 116 Q 262 115 261 119 L 267 123 L 277 122 Q 282 118 283 111 Q 284 101 281 97 L 276 92 Q 266 90 264 96 L 263 95 L 258 92 L 222 88 Z M 168 187 L 165 192 Q 164 198 168 200 L 166 202 L 156 265 L 152 281 L 153 286 L 148 290 L 150 295 L 145 314 L 146 320 Q 147 322 144 321 L 139 327 L 141 328 L 153 330 L 155 334 L 155 350 L 150 374 L 148 381 L 140 391 L 141 401 L 146 404 L 150 403 L 156 395 L 156 390 L 159 385 L 165 364 L 168 346 Q 169 334 165 328 L 161 324 L 150 322 L 149 320 Q 159 320 165 324 L 170 304 L 168 298 L 173 297 Q 174 290 170 289 L 172 287 L 187 206 L 186 204 Q 185 201 190 202 L 192 194 L 189 191 L 168 187 Z M 376 297 L 368 299 L 355 307 Q 336 321 333 350 Q 339 355 352 355 L 357 340 L 365 327 Q 375 311 400 311 L 397 315 Q 406 318 411 325 L 415 324 L 413 319 L 414 316 L 410 310 Q 401 295 376 297 Z M 173 305 L 167 326 L 195 373 L 204 376 L 215 375 L 217 373 L 215 371 L 173 305 Z M 383 316 L 374 321 Q 359 332 355 354 Q 357 357 364 355 L 366 353 L 371 340 Q 376 332 386 330 L 396 333 Q 403 338 405 349 Q 407 369 399 379 Q 395 386 386 388 Q 372 390 370 381 L 356 383 L 353 386 L 356 391 Q 362 400 375 402 Q 389 403 397 397 Q 413 385 416 360 Q 417 338 408 327 L 397 317 L 383 316 Z M 132 330 Q 118 333 111 343 L 115 346 L 123 348 L 132 348 L 144 344 L 152 344 L 153 343 L 152 334 Q 146 328 132 330 Z M 383 333 L 379 335 Q 371 341 368 351 L 370 354 Q 379 353 384 348 L 391 349 L 394 355 Q 395 358 392 357 L 389 350 L 385 350 L 376 354 L 380 360 L 380 370 L 388 369 L 392 364 Q 391 360 394 361 L 393 367 Q 390 373 381 373 L 379 376 L 375 379 L 373 382 L 380 386 Q 388 387 392 383 Q 400 376 403 364 Q 405 348 400 341 L 392 333 L 383 333 Z M 147 346 L 130 351 L 125 350 Q 118 349 116 352 Q 100 365 97 390 Q 96 411 105 423 Q 113 435 131 438 Q 148 439 157 431 Q 174 419 178 394 L 178 376 L 172 360 L 168 357 L 165 370 L 168 380 Q 170 403 159 414 Q 153 422 142 424 Q 132 424 128 420 Q 119 414 117 401 Q 117 381 125 371 Q 131 361 145 358 L 150 359 Q 153 356 152 349 Q 151 345 147 346 Z M 329 346 L 216 364 L 214 368 L 217 369 L 220 374 L 218 376 L 210 378 L 195 375 L 192 371 L 188 373 L 189 377 L 188 380 L 189 391 Q 202 402 225 404 L 261 399 L 375 377 L 378 373 L 377 367 L 378 365 L 377 360 L 373 356 L 358 358 L 345 357 L 333 353 L 329 346 Z M 170 347 L 169 350 L 176 363 Q 178 366 179 363 L 173 349 L 170 347 Z M 141 361 L 134 365 Q 122 374 119 393 Q 119 406 124 414 L 137 422 Q 148 423 153 417 Q 163 408 166 392 L 165 379 L 163 377 L 155 402 L 148 406 L 138 403 L 134 399 Q 132 388 136 384 Q 138 378 146 378 L 150 363 Q 148 359 141 361 Z M 144 380 L 142 381 Q 134 385 136 398 L 139 399 L 138 398 Q 137 390 140 387 L 145 382 L 144 380 Z " /><path fill="rgb(45,49,48)" stroke="rgb(45,49,48)" stroke-width="0.6" opacity="1" d="M 134 78 L 137 79.5 L 137 81 L 142 81 Q 140.7 77.7 145.5 79 L 153 80 L 153.5 82 L 154.5 80 L 162 81 Q 160.9 84.3 165 83 Q 163.8 80 167.5 81 L 169 84.5 L 170.5 87 L 173 85.5 L 171 82.5 L 172.5 83 L 175 83.5 L 175.5 86 L 177 86.5 L 174 88.5 L 173.5 90 Q 171.8 87.2 170 91.5 L 173 92.5 L 172 95 L 166 94 L 166 101 L 169.5 101 L 171.5 100 L 177 103.5 L 174 102.5 L 173 106.5 L 173.5 108 L 169.5 106 L 167.5 107 L 168.5 105 L 173 103.5 L 169.5 103 L 166.5 104 L 164 105.5 L 164.5 107 L 157 106 Q 158 103 155 104 L 153.5 106 L 151 105 Q 152.1 101.7 148 103 L 146.5 105 L 145 102 L 141 102 Q 142.3 105 138.5 104 L 125.5 102 L 123 103.5 Q 125.5 102 122 100.5 Q 119.1 95.9 120 87.5 L 121 84 L 123 83.5 L 122 82.5 L 125.5 79 L 134 80 L 134 78 Z " /><path fill="rgb(45,49,48)" stroke="rgb(45,49,48)" stroke-width="0.6" opacity="1" d="M 271.5 96 L 273 96.5 Q 268.3 97.9 269 103 L 267 101.5 L 271.5 96 Z " /><path fill="rgb(45,49,48)" stroke="rgb(45,49,48)" stroke-width="0.6" opacity="1" d="M 167.5 198 L 173 200.5 L 169.5 201 L 167 201.5 L 166.5 204 L 166 201.5 L 167.5 198 Z " /><path fill="rgb(45,49,48)" stroke="rgb(45,49,48)" stroke-width="0.6" opacity="1" d="M 150.5 295 L 165 298 L 165.5 301 L 166 298 L 168 299.5 L 170 303.5 L 164.5 324 L 162 323 L 160.5 321 L 159 320.5 L 158.5 322 L 148.5 320 L 148.5 322 L 146 321 L 145 318.5 L 146.5 319 L 148 317.5 L 147 314 L 145 313.5 L 148 298.5 L 150.5 295 Z " /><path fill="rgb(45,49,48)" stroke="rgb(45,49,48)" stroke-width="0.6" opacity="1" d="M 375.5 297 Q 379.5 296.3 378.5 299 L 387 299 L 387.5 297 L 395 299.5 L 395.5 301 L 396.5 299 L 405 304.5 L 404.5 306 L 408 307.5 L 409 313.5 L 408.5 315 L 410 315.5 L 408.5 316 L 405 313.5 L 403 312 L 402.5 314 L 400 313 L 399.5 311 L 390.5 311 L 382.5 314 L 381.5 312 L 381 315 Q 375.8 315 373.5 319 L 372 318.5 L 359.5 335 L 357 335.5 L 358 338.5 L 355 347 L 353 348.5 L 354 350.5 L 351.5 355 L 346 353 L 345.5 355 L 335.5 352 L 333 349.5 Q 331.5 345.1 334.5 346 L 334.5 345 L 333 343.5 L 337.5 333 L 339 332.5 L 337 331.5 L 342.5 322 Q 345.1 322.8 344 319.5 L 349.5 312 Q 351.2 314.7 353 310.5 Q 350.3 308.8 354.5 307 L 367.5 299 L 375.5 297 Z " /><path fill="rgb(45,49,48)" stroke="rgb(45,49,48)" stroke-width="0.6" opacity="1" d="M 382.5 316 L 393.5 316 L 395 317.5 L 395.5 319 L 396.5 317 L 400 319.5 L 400.5 321 L 401.5 320 L 408 326.5 L 412 333.5 L 410 334 L 412 341 L 415 342.5 L 416 359.5 L 414 369 Q 411 367.8 412 371.5 L 411 374 L 413 374.5 L 408.5 383 L 407 383.5 Q 409.5 385 406 386.5 L 396.5 397 Q 390.9 401.6 382 402 Q 383.2 398 377 400 Q 378.3 403 374.5 402 L 366 398.5 L 365.5 397 Q 364 399.5 362.5 396 L 361 395.5 L 360.5 393 L 359.5 394 L 356 390.5 L 354 387.5 Q 357.5 386 355 384.5 Q 354.4 381.8 360.5 383 L 367 381 Q 365.8 384 369.5 383 L 369.5 381 Q 374.8 382.5 374 388 L 377.5 387 L 385.5 388 L 394.5 385 L 398 381.5 L 399.5 377 L 401 377.5 L 402.5 373 Q 405.1 373.8 404 370.5 L 407 360 L 405 359.5 L 405 352 Q 408.3 353.3 407 348.5 L 404.5 343 L 403.5 345 L 399.5 335 Q 397.5 338 395.5 333 L 393 331.5 L 391.5 329 L 391 331 L 385.5 330 L 383.5 331 L 382 330.5 L 380.5 332 L 371 337.5 L 371 339.5 L 370 343 Q 366.2 341.5 367 344.5 L 366 347.5 L 366 349.5 L 364.5 354 L 360 353 Q 361.3 356.3 356.5 355 L 355 352.5 L 359.5 340 L 362 339.5 L 361 336.5 L 373.5 321 L 382.5 316 Z " /><path fill="rgb(45,49,48)" stroke="rgb(45,49,48)" stroke-width="0.6" opacity="1" d="M 388.5 350 L 391 353.5 L 390 356 L 395 358.5 L 393.5 361 L 390 362.5 L 392 363.5 L 387.5 369 L 382.5 370 L 382 367.5 Q 383.3 361.5 380 362.5 L 380 357.5 L 379 353 L 383.5 351 L 388.5 352 L 388.5 350 Z " /><path fill="rgb(45,49,48)" stroke="rgb(45,49,48)" stroke-width="0.6" opacity="1" d="M 195 380 L 206 383 L 204.5 385 L 195 382 L 195 380 Z " /><path fill="rgb(212,61,57)" stroke="rgb(212,61,57)" stroke-width="0.6" opacity="1" d="M 221.5 89 L 229.5 89 L 261 94 Q 255.9 100.7 257 114.5 L 257 116.5 L 255.5 118 Q 240.9 113.6 221.5 114 L 217 111.5 L 215 104.5 L 216 96.5 L 221.5 89 Z " /><path fill="rgb(212,61,57)" stroke="rgb(212,61,57)" stroke-width="0.6" opacity="1" d="M 277.5 94 L 281 97.5 L 282 109.5 Q 281.3 117.8 275.5 121 Q 269.8 121.8 269 117.5 L 268 105.5 Q 269.8 98.3 275.5 95 L 277.5 94 Z " /><path fill="rgb(212,61,57)" stroke="rgb(212,61,57)" stroke-width="0.6" opacity="1" d="M 150 288 L 170.5 291 L 172 292.5 L 170.5 297 Q 156.3 298.2 149 292.5 L 150 288 Z " /><path fill="rgb(212,61,57)" stroke="rgb(212,61,57)" stroke-width="0.6" opacity="1" d="M 382.5 334 Q 395.1 331.9 398 339.5 Q 403.9 347.1 402 362.5 Q 400 375.5 391.5 382 L 380.5 385 L 374 381.5 L 380 376.5 L 381.5 374 Q 390.5 373 394 366.5 L 396 358.5 Q 395.5 351 390.5 348 L 383.5 347 L 370.5 353 L 369 350.5 L 377.5 337 L 382.5 334 Z " /><path fill="rgb(212,61,57)" stroke="rgb(212,61,57)" stroke-width="0.6" opacity="1" d="M 320.5 348 L 328.5 348 L 329 350.5 Q 341.1 361.4 367.5 358 L 372.5 357 L 375 358 L 373.5 360 L 243.5 384 L 220.5 386 Q 200.8 383.8 188 374.5 L 189 372 Q 192.8 370.5 192 373.5 Q 197.3 380.2 210.5 379 L 221 374.5 Q 221.8 368.8 217.5 368 L 215 366.5 Q 214.5 363.5 221.5 365 L 320.5 348 Z " /><path fill="rgb(212,61,57)" stroke="rgb(212,61,57)" stroke-width="0.6" opacity="1" d="M 375.5 368 L 377 371.5 L 374.5 376 L 236.5 402 L 216.5 402 L 199.5 397 L 191 391.5 Q 188 387.3 189 380 Q 200.9 386.8 218 388 L 219.5 393 L 231.5 395 L 350.5 374 L 375.5 368 Z " /><path fill="rgb(55,123,180)" stroke="rgb(55,123,180)" stroke-width="0.6" opacity="1" d="M 268.5 93 L 272 94.5 Q 264.1 100.1 265 114.5 L 268 119.5 L 266 120.5 L 266.5 122 L 262 118.5 L 260 107.5 Q 260.8 98.3 266.5 94 L 268.5 93 Z " /><path fill="rgb(55,123,180)" stroke="rgb(55,123,180)" stroke-width="0.6" opacity="1" d="M 167.5 188 L 185.5 191 L 191 193.5 L 188.5 201 L 171.5 199 L 165 195.5 L 167.5 188 Z " /><path fill="rgb(55,123,180)" stroke="rgb(55,123,180)" stroke-width="0.6" opacity="1" d="M 168.5 201 L 184.5 204 L 186 205.5 L 174 272.5 L 169.5 288 L 156.5 286 L 153 283.5 L 166 205.5 L 168.5 201 Z " /><path fill="rgb(55,123,180)" stroke="rgb(55,123,180)" stroke-width="0.6" opacity="1" d="M 173.5 307 L 211 367.5 L 213 375 Q 199.8 377.5 195 370.5 L 168 325.5 L 171 308 L 173.5 307 Z " /><path fill="rgb(55,123,180)" stroke="rgb(55,123,180)" stroke-width="0.6" opacity="1" d="M 131.5 331 Q 145.9 328.5 152 334.5 Q 153.8 341.3 150.5 343 L 144.5 343 L 125.5 348 L 114.5 345 L 112 342.5 Q 118.6 333.6 131.5 331 Z " /><path fill="rgb(55,123,180)" stroke="rgb(55,123,180)" stroke-width="0.6" opacity="1" d="M 143.5 347 Q 150.3 345.2 152 348.5 Q 152 355 148.5 358 Q 139.9 356.9 135.5 360 L 125 369.5 L 117 386.5 L 117 404.5 Q 119.9 416.1 128.5 422 L 140.5 425 Q 154 423 160 413.5 Q 170 402.5 169 380.5 L 166 372.5 L 166 367.5 L 169.5 359 L 171 360.5 Q 179.7 371.8 177 394.5 Q 172.5 418 156.5 430 L 141.5 437 L 128.5 437 Q 113.5 433.4 106 422.5 Q 96.5 410.5 98 387.5 Q 101.8 363.3 117.5 351 L 128.5 352 L 143.5 347 Z " /><path fill="rgb(238,185,49)" stroke="rgb(238,185,49)" stroke-width="0.6" opacity="1" d="M 121.5 76 Q 126.9 74.1 126 77.5 Q 118.6 81.1 119 92.5 L 122 102.5 L 120.5 102 L 115 98.5 L 113 88.5 Q 114.2 80.7 119.5 77 L 121.5 76 Z " /><path fill="rgb(238,185,49)" stroke="rgb(238,185,49)" stroke-width="0.6" opacity="1" d="M 177.5 89 L 210.5 92 L 212 93.5 L 211 105.5 L 209.5 107 L 201.5 106 L 195 102 L 200 110.5 L 197 121.5 L 187 184.5 L 184.5 188 L 174 184.5 L 186 111.5 L 189 102 L 177.5 103 Q 173 101 175 92.5 L 177.5 89 Z " /><path fill="rgb(238,185,49)" stroke="rgb(238,185,49)" stroke-width="0.6" opacity="1" d="M 401.5 314 Q 410.1 314.9 414 320.5 L 412.5 324 L 401 315.5 L 401.5 314 Z " /><path fill="rgb(238,185,49)" stroke="rgb(238,185,49)" stroke-width="0.6" opacity="1" d="M 144.5 322 L 160.5 325 L 164 327.5 L 166 331.5 L 167 344.5 Q 163.8 369.9 156 390 L 151.5 387 L 148.5 387 Q 144.1 388.6 145 395.5 Q 146.3 399 151 398 L 149.5 402 Q 143.3 403.3 142 399.5 L 141 391.5 L 144.5 385 L 148 382.5 L 156 350.5 L 156 333.5 L 152.5 329 L 141 325.5 L 142.5 324 L 144.5 322 Z " /><path fill="rgb(238,185,49)" stroke="rgb(238,185,49)" stroke-width="0.6" opacity="1" d="M 141.5 362 Q 150.8 358.8 148 367.5 L 144.5 377 Q 137.3 377.9 135 383.5 L 132 394.5 Q 133.1 401.9 138.5 405 L 148.5 407 L 156 401.5 L 163 380 L 165 380.5 L 165 391.5 Q 162.6 406.6 153.5 415 L 144.5 420 L 134.5 420 L 126 414.5 Q 119.6 407.4 120 393.5 Q 121.9 375.9 132.5 367 L 141.5 362 Z " /><path fill="rgb(238,185,49)" stroke="rgb(238,185,49)" stroke-width="0.6" opacity="1" d="M 374.5 363 L 375 366 L 237.5 391 L 220.5 391 L 221.5 389 L 232.5 389 L 263.5 384 L 285.5 379 L 364.5 366 L 374.5 363 Z " /><path fill="rgb(67,65,59)" stroke="rgb(67,65,59)" stroke-width="0.6" opacity="1" d="M 166 94 L 172 96 Q 173.9 100.8 170.5 100 L 166 101 Q 164.8 98 168.5 99 L 170 96.5 L 167.5 95 L 166 95.5 L 166 94 Z " /><path fill="rgb(67,65,59)" stroke="rgb(67,65,59)" stroke-width="0.6" opacity="1" d="M 262.5 94 L 263 95.5 L 262.5 98 L 261 98.5 L 261.5 100 L 259.5 101 L 260 99.5 L 262.5 94 Z " /><path fill="rgb(67,65,59)" stroke="rgb(67,65,59)" stroke-width="0.6" opacity="1" d="M 404.5 343 L 407 352 Q 403.3 353.4 405 347.5 L 404 345.5 L 404.5 343 Z " /><path fill="rgb(67,65,59)" stroke="rgb(67,65,59)" stroke-width="0.6" opacity="1" d="M 405 360 Q 408.3 358.7 407 363.5 L 404 373 L 402 371.5 L 405 360 Z " /><path fill="rgb(77,84,83)" stroke="rgb(77,84,83)" stroke-width="0.6" opacity="1" d="M 149 388 Q 152 387 151 390 L 148 391.5 L 146.5 396 L 146 392.5 L 149 388 Z " /><path fill="rgb(80,106,115)" stroke="rgb(80,106,115)" stroke-width="0.6" opacity="1" d="M 159.5 413 L 154.5 419 L 159.5 413 Z " /><path fill="rgb(80,106,115)" stroke="rgb(80,106,115)" stroke-width="0.6" opacity="1" d="M 163.5 423 L 158.5 429 L 163.5 423 Z " /><path fill="rgb(177,176,176)" stroke="rgb(177,176,176)" stroke-width="0.6" opacity="1" d="M 351.5 305 L 345.5 312 L 351.5 305 Z " /><path fill="rgb(138,137,137)" stroke="rgb(138,137,137)" stroke-width="0.6" opacity="1" d="M 113.5 349 L 108.5 355 L 113.5 349 Z " /><path fill="rgb(174,58,54)" stroke="rgb(174,58,54)" stroke-width="0.6" opacity="1" d="M 214.5 366 L 221 371.5 L 217.5 369 L 214.5 366 Z " /></svg>