<svg width="627" height="627" preserveAspectRatio="xMidYMid meet" viewBox="0 0 512 512" version="1.1" xmlns="http://www.w3.org/2000/svg" ><path fill="rgb(255,255,255)" stroke="rgb(255,255,255)" stroke-width="0.6" opacity="1" d="M 0 0 L 512 0 L 512 512 L 0 512 L 0 0 Z M 344 79 Q 294 83 257 100 Q 250 104 248 113 Q 247 125 250 133 Q 265 166 274 206 L 273 211 L 253 217 Q 245 222 241 232 L 240 269 L 239 270 L 240 272 L 238 292 Q 239 295 236 294 L 213 269 L 215 264 L 217 262 L 232 261 Q 236 259 237 253 L 235 244 L 230 239 L 217 236 L 192 237 L 182 241 Q 176 244 177 255 Q 181 261 193 260 L 196 266 L 186 303 Q 187 306 185 305 L 155 270 L 130 248 L 133 237 L 132 234 L 133 225 L 140 222 L 151 214 L 156 215 L 157 218 L 162 221 Q 169 222 172 219 L 183 221 L 194 220 L 197 215 L 196 206 L 189 202 L 174 201 L 170 197 Q 160 195 158 201 L 144 202 L 135 209 L 123 208 L 117 197 L 111 191 L 101 190 L 96 187 L 87 186 L 74 187 L 69 194 L 71 201 Q 78 206 93 204 L 97 207 L 106 204 L 110 216 L 118 222 Q 117 230 113 235 L 105 272 L 98 281 L 97 282 Q 86 281 80 284 L 69 292 L 72 299 L 67 302 Q 42 322 39 363 Q 38 396 52 415 Q 63 431 88 434 Q 110 432 122 420 Q 143 401 146 363 L 152 358 Q 154 320 137 302 L 128 293 L 123 280 Q 122 270 127 265 L 140 275 L 180 323 L 177 339 L 168 342 Q 159 347 158 359 Q 158 368 162 374 Q 166 379 175 380 L 180 379 Q 181 385 178 388 L 178 395 L 183 398 L 197 402 Q 207 403 214 400 L 216 396 L 215 390 L 210 385 L 193 381 L 194 368 L 197 365 L 234 359 L 242 371 Q 250 380 266 383 L 282 382 L 299 373 Q 309 365 313 353 L 324 356 L 345 356 L 365 352 L 367 356 L 367 362 L 372 379 L 382 395 Q 391 405 407 409 L 426 408 L 442 399 Q 455 388 462 371 L 466 358 L 469 337 L 468 328 L 468 317 L 473 311 Q 470 283 453 271 L 459 234 L 462 232 L 464 229 L 461 196 L 461 163 L 465 146 Q 467 120 455 108 Q 441 90 417 84 Q 386 76 344 79 Z " /><path fill="rgb(255,255,255)" stroke="rgb(255,255,255)" stroke-width="0.6" opacity="1" d="M 96.5 192 L 97 194.5 L 98 201.5 L 95 199.5 Q 93.5 193.5 96.5 192 Z " /><path fill="rgb(255,255,255)" stroke="rgb(255,255,255)" stroke-width="0.6" opacity="1" d="M 200 261 L 210 262 L 209.5 264 L 201.5 264 L 200 261 Z " /><path fill="rgb(210,68,58)" stroke="rgb(210,68,58)" stroke-width="0.6" opacity="1" d="M 355.5 83 L 373.5 83 L 404.5 86 L 425.5 92 L 441 101.5 L 442 119.5 L 432 157.5 L 411 217 Q 407.5 218.1 409 210.5 L 401 172.5 L 391 140.5 Q 383.9 119.6 368.5 107 Q 358.2 99.3 343.5 96 L 326.5 93 L 302.5 92 L 301 90.5 L 329.5 85 L 355.5 83 Z " /><path fill="rgb(210,68,58)" stroke="rgb(210,68,58)" stroke-width="0.6" opacity="1" d="M 360.5 128 L 370.5 128 L 372 129.5 Q 383.2 149.8 389 175.5 Q 387.5 178.5 381.5 177 L 350.5 173 L 336.5 173 L 330 170.5 L 334 143.5 L 339.5 134 L 349.5 129 L 360.5 128 Z " /><path fill="rgb(210,68,58)" stroke="rgb(210,68,58)" stroke-width="0.6" opacity="1" d="M 299.5 219 L 303 220.5 L 301 233.5 L 298.5 239 L 271 243 L 274 225.5 L 276.5 223 L 299.5 219 Z " /><path fill="rgb(210,68,58)" stroke="rgb(210,68,58)" stroke-width="0.6" opacity="1" d="M 253.5 255 L 282.5 262 Q 310.8 265.2 335.5 272 L 342.5 272 L 346 274.5 L 345 285 L 331.5 284 Q 298.8 275.2 262.5 270 L 254.5 268 L 252 265.5 Q 249.8 257.3 253.5 255 Z " /><path fill="rgb(210,68,58)" stroke="rgb(210,68,58)" stroke-width="0.6" opacity="1" d="M 413.5 265 Q 429 263 438.5 267 Q 450.7 271.8 458 281.5 Q 466.5 291 468 307.5 L 466.5 310 Q 461.8 289.2 447.5 278 Q 439.2 269.8 420.5 272 Q 402.6 277.1 393 290.5 L 384 305.5 L 378 325.5 L 374.5 330 Q 366.8 331.7 365 327.5 Q 368.4 293.4 389.5 277 Q 398.7 268.2 413.5 265 Z " /><path fill="rgb(210,68,58)" stroke="rgb(210,68,58)" stroke-width="0.6" opacity="1" d="M 209.5 272 Q 213.2 271 217 277.5 L 243 307.5 Q 240.5 313.5 238 309.5 L 209 277.5 L 209.5 272 Z " /><path fill="rgb(210,68,58)" stroke="rgb(210,68,58)" stroke-width="0.6" opacity="1" d="M 422.5 276 Q 443.2 275.3 451 287.5 Q 466.3 305.7 464 341.5 Q 460.6 378.1 438.5 396 Q 429 405.5 409.5 405 Q 394.3 402.2 386 392.5 Q 370 375 370 341.5 L 372.5 334 Q 378.9 333.4 381 328.5 Q 386 301.5 402.5 286 Q 410.1 278.6 422.5 276 Z M 423 286 Q 412 288 406 293 Q 387 307 383 336 Q 380 366 393 382 Q 399 391 412 393 Q 430 394 438 384 Q 453 370 456 344 Q 459 312 445 297 Q 438 287 423 286 Z " /><path fill="rgb(210,68,58)" stroke="rgb(210,68,58)" stroke-width="0.6" opacity="1" d="M 91.5 286 L 105.5 287 L 111 290.5 Q 112.8 296.6 105.5 294 L 92.5 293 L 79.5 294 L 75 292.5 L 76 290 L 91.5 286 Z " /><path fill="rgb(210,68,58)" stroke="rgb(210,68,58)" stroke-width="0.6" opacity="1" d="M 420.5 290 Q 430.6 288.4 434 293.5 L 422.5 327 L 420 325.5 L 414 293.5 L 420.5 290 Z " /><path fill="rgb(210,68,58)" stroke="rgb(210,68,58)" stroke-width="0.6" opacity="1" d="M 410.5 294 L 413 299.5 L 417 326.5 L 416 329 L 412.5 330 L 396 309.5 L 408.5 295 L 410.5 294 Z " /><path fill="rgb(210,68,58)" stroke="rgb(210,68,58)" stroke-width="0.6" opacity="1" d="M 95.5 311 L 99 312.5 L 95 329.5 L 92.5 332 L 91 324.5 L 95.5 311 Z " /><path fill="rgb(210,68,58)" stroke="rgb(210,68,58)" stroke-width="0.6" opacity="1" d="M 449.5 316 Q 452.9 315.1 451 320.5 Q 454.3 327.7 453 339.5 L 450.5 341 L 449.5 340 L 433.5 340 L 432 338.5 L 431 333.5 L 449.5 316 Z " /><path fill="rgb(210,68,58)" stroke="rgb(210,68,58)" stroke-width="0.6" opacity="1" d="M 421.5 330 L 428 334.5 L 429 341.5 L 423.5 350 Q 417.3 351.3 416 347.5 L 415 336.5 L 419.5 331 L 421.5 330 Z M 423 334 L 418 341 L 419 345 L 424 346 Q 426 342 421 343 Q 420 337 424 336 L 423 334 Z " /><path fill="rgb(210,68,58)" stroke="rgb(210,68,58)" stroke-width="0.6" opacity="1" d="M 89.5 338 L 91 338.5 L 91 346.5 L 87 349 L 88 339.5 L 89.5 338 Z " /><path fill="rgb(210,68,58)" stroke="rgb(210,68,58)" stroke-width="0.6" opacity="1" d="M 388.5 341 L 402 341.5 L 398.5 344 L 388.5 345 L 387 342.5 L 388.5 341 Z " /><path fill="rgb(210,68,58)" stroke="rgb(210,68,58)" stroke-width="0.6" opacity="1" d="M 63.5 348 L 80 358.5 Q 81.3 363.8 78.5 365 L 59 369 L 60 354.5 L 63.5 348 Z " /><path fill="rgb(210,68,58)" stroke="rgb(210,68,58)" stroke-width="0.6" opacity="1" d="M 305.5 352 Q 309.3 350.8 308 354.5 L 295.5 370 L 279.5 378 L 263.5 378 Q 249 374.5 242 363.5 L 240 358 L 250.5 356 L 255.5 362 L 267.5 368 L 279.5 368 L 290.5 363 Q 294.8 354.3 305.5 352 Z " /><path fill="rgb(210,68,58)" stroke="rgb(210,68,58)" stroke-width="0.6" opacity="1" d="M 183.5 356 L 190 359.5 L 191 365.5 L 189 381.5 L 187.5 383 L 185.5 384 L 185 381.5 L 186 366.5 L 183.5 363 L 181 361.5 Q 180.3 356.8 183.5 356 Z " /><path fill="rgb(210,68,58)" stroke="rgb(210,68,58)" stroke-width="0.6" opacity="1" d="M 100.5 376 L 105 379.5 L 117 398.5 L 109.5 407 L 103 410 L 98 385.5 L 98 377 L 100.5 376 Z " /><path fill="rgb(57,62,66)" stroke="rgb(57,62,66)" stroke-width="0.6" opacity="1" d="M 360.5 82 L 371 82.5 L 360.5 83 L 360.5 82 Z " /><path fill="rgb(57,62,66)" stroke="rgb(57,62,66)" stroke-width="0.6" opacity="1" d="M 445.5 103 L 451.5 110 L 445.5 103 Z " /><path fill="rgb(57,62,66)" stroke="rgb(57,62,66)" stroke-width="0.6" opacity="1" d="M 326.5 104 L 330 105 L 330.5 107 L 331 105 L 345 108 L 346.5 111 L 349.5 110 L 364 118.5 L 366.5 122 L 369 123.5 L 367.5 123 L 365 123.5 L 365.5 125 L 353 126 L 352.5 124 L 352 126 L 343 127 Q 344.3 130 340.5 129 L 332 139.5 L 328 155.5 L 328 165 L 326 165.5 L 328 166.5 L 327 171 L 325 171.5 L 325.5 173 Q 317.1 174.1 313 179.5 L 310 185 Q 307 183.8 308 187.5 L 307.5 189 L 309 190.5 Q 305.6 196.6 306 206.5 L 304.5 208 L 304.5 206 L 303 208 L 298.5 208 L 290 210 L 290 206 L 288 204.5 L 289 202 Q 292 203 291 200 Q 288 201 289 198 L 293 197.5 L 290 196.5 L 292 196 Q 291 193 294 194 L 294 191 Q 289.9 192.7 291 188.5 L 292 188.5 L 292.5 190 L 293 185.5 L 292.5 184 L 294 182.5 L 293 179 Q 296 180 295 177 Q 292 178 293 175 L 297 174.5 L 294 173.5 L 296 173 L 294.5 171 L 294.5 170 L 298 169.5 L 295 167.5 L 295.5 165 L 298.5 166 L 298.5 165 L 296 163.5 L 298 163 L 297 158 Q 300 159 299 156 L 297 154.5 L 300 153 L 299 146 L 301 145.5 L 300 142.5 L 303 141 L 301.5 139 L 302.5 137 L 304 135.5 L 303 132 L 305 131.5 L 304 129.5 L 307.5 121 L 310 122 L 311 117.5 L 310.5 116 L 312 116.5 L 311 114.5 L 313 113.5 L 312.5 115 Q 315.1 115.8 314 112.5 L 314.5 110 L 315.5 111 L 319 107.5 L 319.5 105 L 326 106 L 326.5 104 Z " /><path fill="rgb(57,62,66)" stroke="rgb(57,62,66)" stroke-width="0.6" opacity="1" d="M 436.5 146 L 438 146.5 L 432 163 L 430 162.5 L 436.5 146 Z " /><path fill="rgb(57,62,66)" stroke="rgb(57,62,66)" stroke-width="0.6" opacity="1" d="M 455.5 163 L 457.5 166 Q 453.8 164.8 455 168.5 L 451 173.5 L 451.5 175 L 450 174.5 L 449 176.5 L 449.5 178 L 449 175.5 L 455.5 163 Z " /><path fill="rgb(57,62,66)" stroke="rgb(57,62,66)" stroke-width="0.6" opacity="1" d="M 429.5 165 L 431 167.5 L 427 179 L 425 179.5 L 426 181.5 L 416.5 208 L 415 205.5 L 429.5 165 Z " /><path fill="rgb(57,62,66)" stroke="rgb(57,62,66)" stroke-width="0.6" opacity="1" d="M 444.5 182 L 445 185.5 L 441.5 190 L 441 187.5 L 444.5 182 Z " /><path fill="rgb(57,62,66)" stroke="rgb(57,62,66)" stroke-width="0.6" opacity="1" d="M 439.5 190 L 440 192.5 L 437.5 196 Q 434.5 194.5 437.5 193 L 439 193.5 L 440 191.5 L 439.5 190 Z " /><path fill="rgb(57,62,66)" stroke="rgb(57,62,66)" stroke-width="0.6" opacity="1" d="M 163.5 201 L 165.5 201 L 167 202.5 L 168 202.5 L 168.5 201 L 170 203.5 L 166 204 L 167 206.5 L 164 208 Q 165.8 214.6 162 216.5 L 162.5 218 L 158 211.5 L 160 211 Q 161.5 207.3 158.5 208 L 159 206.5 L 161.5 202 L 163.5 201 Z " /><path fill="rgb(57,62,66)" stroke="rgb(57,62,66)" stroke-width="0.6" opacity="1" d="M 267.5 224 L 268 227 L 271 227.5 L 270 231 L 268 231.5 L 270 232.5 L 267 242.5 L 263.5 246 L 259 247 L 258.5 245 L 252.5 247 L 252.5 245 L 251 244.5 L 253 244 L 253 240 L 251 238.5 L 254 236.5 L 252 235.5 L 257.5 228 L 267.5 224 Z " /><path fill="rgb(57,62,66)" stroke="rgb(57,62,66)" stroke-width="0.6" opacity="1" d="M 124 232 L 129 235.5 L 128.5 239 L 126.5 234 Q 122.8 235 124 232 Z " /><path fill="rgb(57,62,66)" stroke="rgb(57,62,66)" stroke-width="0.6" opacity="1" d="M 195.5 240 L 220.5 240 L 223 241 L 224.5 243 L 227.5 242 L 232 245.5 L 233 248.5 L 231 249 Q 229.1 253.8 232.5 253 L 231.5 255 L 230 255.5 L 229.5 258 L 208.5 259 L 193 257 Q 194 254 191 255 L 190.5 257 L 182.5 255 L 180 252.5 L 182 252.5 Q 183.1 249.2 180.5 250 L 181 248.5 L 184.5 243 L 195.5 240 Z " /><path fill="rgb(57,62,66)" stroke="rgb(57,62,66)" stroke-width="0.6" opacity="1" d="M 295.5 242 L 296 244 Q 299.1 244.8 298.5 242 L 307 242 Q 306 245 309 244 L 310.5 242 L 313 243 Q 312 246 315 245 L 316.5 243 L 334 246 L 334.5 248 L 335.5 246 L 339 247 Q 338 250 341 249 L 341.5 247 L 344 248 Q 343 251 346 250 L 347.5 248 L 352 250.5 L 350 259 L 348 259.5 L 349 265.5 L 348 269 Q 343.9 267.3 345 271.5 L 344 271.5 Q 344.8 268.1 340 270 L 339.5 272 L 339 270.5 L 340 268 Q 335.5 266.5 337 271 L 333.5 271 L 334 269.5 L 333.5 267 L 331.5 270 L 331 268 L 326.5 269 L 326 267 L 323.5 268 L 319 266 L 317.5 268 L 315 267 Q 316 264 313 265 L 312.5 267 L 307 265.5 L 308 262 Q 305 260.8 306 264.5 L 305 264.5 L 303 263 L 302.5 265 L 301.5 263 L 300 263.5 L 298 262 L 297.5 264 L 296 260 L 292 261 L 291.5 263 L 291 261.5 L 292 259 L 289 259 Q 290.5 263.5 286 262 L 285.5 258 L 283.5 261 L 281 261 L 279.5 259 L 277 258 L 276.5 260 L 276 258 L 271 259 Q 272.9 253.4 268 255 Q 269.5 259.5 265 258 L 264.5 254 L 262.5 257 L 259.5 255 L 257 256 Q 255.5 249.6 258.5 250 L 268 247 L 268.5 249 L 269 247 L 272.5 248 L 273 246 L 275.5 247 L 277.5 245 L 291 243 L 291.5 245 L 292 243 L 295.5 242 Z " /><path fill="rgb(57,62,66)" stroke="rgb(57,62,66)" stroke-width="0.6" opacity="1" d="M 130.5 253 L 145 264.5 L 150.5 271 L 154 273.5 L 167 288.5 L 169.5 294 L 171 293.5 L 186 313 L 188.5 312 L 189 313.5 L 189 315.5 Q 190.1 318.8 187.5 318 L 186 317.5 L 184.5 321 L 179 316.5 L 152 283.5 L 153 282.5 L 149.5 279 L 148.5 280 L 141 272.5 L 142 271.5 L 138.5 268 Q 136.5 271 134.5 266 L 133 265.5 L 133.5 264 Q 128 263.6 126 259.5 L 127.5 254 Q 129 256.5 130.5 253 Z " /><path fill="rgb(57,62,66)" stroke="rgb(57,62,66)" stroke-width="0.6" opacity="1" d="M 147.5 263 L 154.5 271 L 147.5 263 Z " /><path fill="rgb(57,62,66)" stroke="rgb(57,62,66)" stroke-width="0.6" opacity="1" d="M 92.5 296 L 93 298 Q 97.1 299.3 96 296 L 100 296 Q 98.9 299.3 103 298 L 103.5 296 L 111 299.5 L 110 308.5 L 108.5 310 Q 103.5 306 92.5 308 L 75.5 316 L 71 320.5 L 61 339.5 L 56 359.5 L 56.5 361 L 55 361.5 L 57 362 L 56 372.5 L 61 395.5 L 72.5 411 L 74 412.5 L 77.5 414 L 82 415 L 83.5 418 Q 86.8 419.1 86 416.5 L 87.5 417 Q 91.9 415.5 91 418.5 L 92 418.5 L 93.5 417 L 95 416.5 L 95.5 418 L 96 416 L 101 417 L 102.5 414 L 104.5 413 L 106 413.5 L 107.5 411 L 109 411.5 L 110.5 410 L 121 397 L 123 396.5 L 123 394.5 L 126 387 L 128 386.5 L 127 384.5 L 131 371 Q 134 372 133 369 L 131 368.5 L 132 364 Q 135.3 365.1 134 361 L 130 360 L 130 353 Q 136.4 355.1 134 348 L 132 346.5 L 131.5 345 L 133 344.5 L 131 344 L 127 327.5 Q 121.4 323.2 121 315 L 123 313.5 L 122 311 L 125 309.5 L 125.5 308 L 135 320.5 L 134 324 Q 138.5 322.3 137 327.5 L 140 333.5 L 138 334.5 L 140 335 L 141 337.5 L 139 338.5 L 141 339 L 142 343.5 L 142 369.5 L 141 374 Q 138 373 139 376 L 141 376.5 L 137 388 Q 134 386.8 135 390.5 L 136 392.5 L 124.5 411 L 122 411.5 L 123 412.5 L 113.5 422 L 97.5 429 L 97 427 L 95 428.5 L 92 430 L 91.5 428 L 84 428 L 83.5 430 L 81 429 L 80.5 427 L 80 429 Q 69.5 427.4 63 420.5 L 64 419.5 L 58.5 414 Q 55.2 415.1 56 412.5 L 51 405.5 Q 54 403.5 49 401.5 L 43 378 Q 46.3 379.1 45 375 L 43 374.5 L 44 363.5 L 43.5 362 Q 46.5 362.7 45 359 L 43 357.5 L 47 338.5 L 51 332.5 L 51 328.5 Q 57.2 315.2 67.5 306 Q 73.2 299.7 82.5 297 L 88.5 298 L 92.5 296 Z " /><path fill="rgb(57,62,66)" stroke="rgb(57,62,66)" stroke-width="0.6" opacity="1" d="M 127.5 297 Q 141.3 307.7 146 327.5 L 146 329.5 L 149 342.5 L 144 345 L 145 339.5 L 143 339 Q 140.2 317.4 128 305 L 124 302.5 L 125.5 298 L 127.5 297 Z " /><path fill="rgb(57,62,66)" stroke="rgb(57,62,66)" stroke-width="0.6" opacity="1" d="M 432.5 300 L 434 302.5 L 426 327 L 424 326.5 Q 427.5 325 425 323.5 L 432.5 300 Z " /><path fill="rgb(57,62,66)" stroke="rgb(57,62,66)" stroke-width="0.6" opacity="1" d="M 239.5 314 L 240 316 L 242 314.5 L 243.5 315 L 258 318 L 258.5 320 L 262.5 319 L 314 332 L 314.5 334 L 317 333 L 318 336.5 L 301.5 341 L 281.5 342 L 250.5 332 L 248.5 332 L 212 322.5 L 214 321.5 L 213.5 320 L 235.5 316 L 239.5 314 Z " /><path fill="rgb(57,62,66)" stroke="rgb(57,62,66)" stroke-width="0.6" opacity="1" d="M 119.5 324 L 124 326.5 L 126 332.5 L 125 334.5 L 128 336 L 127 338.5 L 128 344 L 125.5 344 L 120 348.5 L 120.5 350 L 117.5 349 Q 113.8 351 115.5 353 L 114 352.5 L 112.5 355 L 111.5 351 L 113.5 352 L 115 349.5 L 113 344.5 L 117 331 L 119 330.5 L 117 329.5 L 119.5 324 Z " /><path fill="rgb(57,62,66)" stroke="rgb(57,62,66)" stroke-width="0.6" opacity="1" d="M 195 328 L 198.5 328 L 201.5 331 Q 210.3 331.7 215.5 336 L 217.5 336 L 228 338 L 230 342.5 L 226.5 345 L 225.5 343 L 225 345 L 219.5 346 L 217.5 345 L 198.5 349 L 197.5 347 L 197 349 L 193.5 350 L 192.5 348 L 191.5 350 L 190 345.5 L 195 328 Z " /><path fill="rgb(57,62,66)" stroke="rgb(57,62,66)" stroke-width="0.6" opacity="1" d="M 453 328 Q 456 326.8 455 330.5 L 456 336.5 L 453 338 L 453 328 Z " /><path fill="rgb(57,62,66)" stroke="rgb(57,62,66)" stroke-width="0.6" opacity="1" d="M 407.5 333 L 409 333.5 L 408.5 335 L 410 336.5 L 409 339 L 400 339.5 L 400.5 341 L 397 337.5 L 396 335 L 407.5 333 Z " /><path fill="rgb(57,62,66)" stroke="rgb(57,62,66)" stroke-width="0.6" opacity="1" d="M 78.5 337 L 81 338.5 L 81 340.5 L 83 345.5 L 82 345.5 L 78.5 337 Z " /><path fill="rgb(57,62,66)" stroke="rgb(57,62,66)" stroke-width="0.6" opacity="1" d="M 409.5 348 L 409.5 350 L 411.5 349 L 414 350 L 416 357.5 L 411 369.5 L 411.5 371 L 410 372.5 L 408 377.5 L 410 378.5 L 406 379 L 406 381 Q 409.8 379.5 409 382.5 L 406.5 387 L 404 385.5 L 403.5 387 L 400 384.5 Q 402.8 382.7 398.5 381 L 396 380.5 L 391 370.5 L 392 368.5 Q 389.3 366.8 393.5 365 L 394.5 367 L 403.5 357 L 409 353.5 L 408.5 350 L 405 352.5 L 409.5 348 Z " /><path fill="rgb(57,62,66)" stroke="rgb(57,62,66)" stroke-width="0.6" opacity="1" d="M 94.5 350 L 98 352.5 L 94.5 357 L 93 358.5 L 92 361.5 L 93 361.5 Q 92.2 358.5 96 360 Q 98.5 366.3 93.5 365 L 91.5 365 L 90 366.5 L 95.5 370 L 98 370.5 L 97 373 L 99 373.5 Q 97.5 376.5 91.5 375 L 86 370.5 L 84.5 368 Q 81.2 366.9 82 369.5 L 81 369.5 L 80 367.5 L 82.5 367 Q 86.7 368.3 85 363.5 L 84 361.5 Q 85.8 354.3 91.5 351 L 94.5 350 Z " /><path fill="rgb(57,62,66)" stroke="rgb(57,62,66)" stroke-width="0.6" opacity="1" d="M 428 350 Q 431 348.8 430 352.5 L 431 355 L 433.5 354 L 433 355.5 L 434 359 L 437.5 361 L 440 361.5 L 439 363.5 L 444.5 367 L 446.5 366 L 449 366.5 L 447.5 369 L 446.5 367 L 443 369.5 L 443 371.5 L 441.5 375 L 440 374.5 L 437.5 380 Q 435.7 377.3 434 381.5 L 433.5 384 L 430.5 386 L 429.5 383 L 427.5 383 L 426 382.5 L 428 382 L 427.5 379 L 426 379.5 L 427 377 L 425 376.5 L 427 376 L 426 373.5 L 428 373 Q 429.2 369.3 424 371 L 424 368.5 L 427 366.5 L 423 364.5 L 425 364 Q 426 361 423 362 L 423 358.5 L 422.5 357 Q 427.1 358.4 425 352.5 L 428 351.5 L 428 350 Z " /><path fill="rgb(57,62,66)" stroke="rgb(57,62,66)" stroke-width="0.6" opacity="1" d="M 267.5 352 L 272 353.5 L 273 356.5 L 271 357 L 273 360.5 L 272 364 L 269.5 363 L 264.5 364 L 256 357.5 L 257.5 354 L 261.5 355 L 262 353 L 264.5 354 L 267.5 352 Z " /><path fill="rgb(57,62,66)" stroke="rgb(57,62,66)" stroke-width="0.6" opacity="1" d="M 108 367 L 112 368.5 Q 111.2 371.1 114.5 370 L 117.5 371 L 119 370.5 Q 117.9 373.8 120.5 373 L 122 373.5 L 123.5 371 L 126 372.5 L 125.5 374 L 127 375.5 L 127.5 377 Q 124.9 376.2 126 379.5 L 125 382.5 L 126 384.5 L 122 393 Q 117.8 392 116.5 395 L 116 392.5 L 114.5 390 L 113 390.5 L 113 388.5 L 112.5 387 Q 110.7 389.7 109 385.5 L 111 385.5 L 109.5 383 L 107 382.5 L 108 380.5 L 105 379.5 L 105 377.5 L 103.5 375 L 102 375.5 L 104.5 370 L 106.5 370 Q 109.5 370.7 108 367 Z " /><path fill="rgb(57,62,66)" stroke="rgb(57,62,66)" stroke-width="0.6" opacity="1" d="M 90.5 377 L 97 378 Q 98.7 382.1 94.5 381 L 94.5 382 L 98 384.5 L 99 392.5 L 98 395 Q 101 393.8 100 397.5 L 99 400 Q 102.3 398.9 101 403 Q 96.9 401.7 98 405 Q 103.6 403.1 102 408 Q 97.9 406.7 99 410 L 101 411.5 L 98.5 414 L 87.5 415 L 85 413.5 L 85 411.5 L 83.5 410 L 82 406 L 84 404.5 L 85 402 L 83 401.5 L 86 400.5 L 87 398.5 L 84 396.5 L 88 394.5 L 85 394 L 85 391 Q 90.2 392.7 89 389 L 86 387.5 L 88 384.5 L 87.5 383 L 89 382.5 L 87 381.5 L 88 378 L 90.5 377 Z " /><path fill="rgb(57,62,66)" stroke="rgb(57,62,66)" stroke-width="0.6" opacity="1" d="M 194.5 391 L 206 392.5 L 201.5 394 L 199 393 L 197.5 395 L 194 392.5 L 194.5 391 Z " /><path fill="rgb(55,112,180)" stroke="rgb(55,112,180)" stroke-width="0.6" opacity="1" d="M 290.5 103 L 317 104 L 317 106.5 L 308 118.5 L 299 143.5 L 290 189.5 L 288 207.5 L 286.5 209 L 285 207.5 L 278 176.5 L 262 132.5 L 259 116.5 L 264.5 109 L 270.5 106 L 290.5 103 Z " /><path fill="rgb(55,112,180)" stroke="rgb(55,112,180)" stroke-width="0.6" opacity="1" d="M 446.5 105 Q 455.1 111.9 459 123.5 L 460 146.5 Q 457.7 162.7 450 173.5 L 415 224 L 412.5 225 L 412 221.5 L 439 144.5 L 445 119.5 L 445 107.5 L 444.5 106 L 446.5 105 Z " /><path fill="rgb(55,112,180)" stroke="rgb(55,112,180)" stroke-width="0.6" opacity="1" d="M 454.5 171 L 456 176.5 L 455 178.5 L 457 188.5 L 459 228 L 414 231 L 416 225.5 Q 437.6 200.6 454.5 171 Z " /><path fill="rgb(55,112,180)" stroke="rgb(55,112,180)" stroke-width="0.6" opacity="1" d="M 328.5 176 L 369.5 179 L 385.5 181 L 391 183.5 L 397 206.5 L 399 222.5 L 397.5 224 L 369.5 228 Q 360.8 231.3 356 238.5 L 351.5 246 L 305 239 L 304 235.5 L 311 191.5 Q 312.8 183.3 318.5 179 L 328.5 176 Z " /><path fill="rgb(55,112,180)" stroke="rgb(55,112,180)" stroke-width="0.6" opacity="1" d="M 101.5 194 Q 109.9 193.1 113 197.5 L 116 206.5 L 119.5 211 L 132.5 214 L 146.5 205 L 154.5 205 L 156 208.5 L 144.5 212 L 135.5 219 L 125.5 219 Q 116.9 218.1 113 212.5 Q 112.1 203.9 106.5 200 L 100 197.5 L 101.5 194 Z " /><path fill="rgb(55,112,180)" stroke="rgb(55,112,180)" stroke-width="0.6" opacity="1" d="M 169.5 204 L 190 207 Q 187.3 208.7 188 214.5 L 189 217 L 170.5 215 L 166 212.5 Q 165.1 205.6 169.5 204 Z " /><path fill="rgb(55,112,180)" stroke="rgb(55,112,180)" stroke-width="0.6" opacity="1" d="M 119.5 233 L 128 236.5 L 121 264.5 L 121 269.5 L 117.5 276 L 110 274 L 109 270.5 L 116 239.5 L 119.5 233 Z " /><path fill="rgb(55,112,180)" stroke="rgb(55,112,180)" stroke-width="0.6" opacity="1" d="M 201.5 267 L 207 269.5 L 187 347 Q 175.6 344.7 173 352.5 L 170 361.5 L 175.5 371 L 181 373.5 Q 179 377 171.5 375 L 164 369.5 L 163 355.5 L 168.5 346 Q 171.8 342.8 179.5 344 L 182 343.5 L 181 337.5 L 184 324.5 L 189 317.5 L 189 312.5 L 188 310.5 L 198 272.5 L 201.5 267 Z " /><path fill="rgb(55,112,180)" stroke="rgb(55,112,180)" stroke-width="0.6" opacity="1" d="M 107.5 277 Q 116.6 276.4 120 281.5 L 122 288.5 L 121 292.5 L 122 298.5 L 115 329.5 L 105.5 361 L 102.5 360 L 99 362.5 L 100.5 365 L 104 362.5 Q 104.8 367.3 101.5 368 L 97 366.5 L 96 362.5 L 101 354.5 L 107 333.5 L 115 299.5 L 115 287.5 L 110.5 282 L 102.5 283 L 103.5 279 L 107.5 277 Z " /><path fill="rgb(55,112,180)" stroke="rgb(55,112,180)" stroke-width="0.6" opacity="1" d="M 437.5 294 Q 446.6 299.9 449 312.5 L 430.5 330 L 428.5 330 Q 425.8 328.8 427 323.5 L 435 297.5 L 437.5 294 Z " /><path fill="rgb(55,112,180)" stroke="rgb(55,112,180)" stroke-width="0.6" opacity="1" d="M 103.5 311 L 108 313.5 L 103 334.5 L 97.5 349 L 94 346.5 L 102 312.5 L 103.5 311 Z " /><path fill="rgb(55,112,180)" stroke="rgb(55,112,180)" stroke-width="0.6" opacity="1" d="M 70 328 L 74 329.5 L 82 345.5 L 82 351.5 L 78.5 354 L 63 343.5 L 70 328 Z " /><path fill="rgb(55,112,180)" stroke="rgb(55,112,180)" stroke-width="0.6" opacity="1" d="M 241.5 345 L 250.5 345 L 261 348.5 L 260 351 L 195.5 361 L 193 354.5 L 194 352 L 208.5 351 L 241.5 345 Z " /><path fill="rgb(55,112,180)" stroke="rgb(55,112,180)" stroke-width="0.6" opacity="1" d="M 407.5 346 L 410 347.5 L 391.5 367 Q 387.8 368.3 389 364.5 L 386 350.5 L 387.5 349 L 407.5 346 Z " /><path fill="rgb(55,112,180)" stroke="rgb(55,112,180)" stroke-width="0.6" opacity="1" d="M 275.5 352 L 287 356.5 L 288 359.5 Q 283.2 364.8 273.5 365 L 273 362.5 Q 272.2 355.2 275.5 352 Z " /><path fill="rgb(55,112,180)" stroke="rgb(55,112,180)" stroke-width="0.6" opacity="1" d="M 78.5 367 L 82 372.5 L 66 395 L 64 393.5 Q 59.4 385.6 59 373.5 L 78.5 367 Z " /><path fill="rgb(55,112,180)" stroke="rgb(55,112,180)" stroke-width="0.6" opacity="1" d="M 191.5 386 Q 201.6 385.9 208 389.5 L 206 390.5 L 206.5 392 Q 193.7 393.3 187 388.5 L 191.5 386 Z " /><path fill="rgb(55,112,180)" stroke="rgb(55,112,180)" stroke-width="0.6" opacity="1" d="M 182 390 L 198 395.5 L 192.5 397 L 182 392.5 L 182 390 Z " /><path fill="rgb(55,112,180)" stroke="rgb(55,112,180)" stroke-width="0.6" opacity="1" d="M 209.5 393 Q 212.1 392.2 211 395.5 L 209.5 397 L 200 398 L 201.5 394 L 209.5 393 Z " /><path fill="rgb(245,190,54)" stroke="rgb(245,190,54)" stroke-width="0.6" opacity="1" d="M 276.5 97 L 282 98.5 L 280 99 Q 281.4 102.7 275.5 101 L 273 99.5 L 276.5 97 Z " /><path fill="rgb(245,190,54)" stroke="rgb(245,190,54)" stroke-width="0.6" opacity="1" d="M 291.5 97 L 308 97.5 L 291.5 98 L 291.5 97 Z " /><path fill="rgb(245,190,54)" stroke="rgb(245,190,54)" stroke-width="0.6" opacity="1" d="M 325.5 97 L 331 99.5 Q 329.1 102.8 323 101 Q 324.4 97.3 318.5 99 L 318.5 98 L 325.5 97 Z " /><path fill="rgb(245,190,54)" stroke="rgb(245,190,54)" stroke-width="0.6" opacity="1" d="M 262.5 102 Q 266.7 100.9 265 105 L 262 105 L 260.5 107 L 258 107.5 Q 259.5 111.9 256.5 111 L 254 110.5 L 255.5 108 L 260.5 104 L 262.5 102 Z " /><path fill="rgb(245,190,54)" stroke="rgb(245,190,54)" stroke-width="0.6" opacity="1" d="M 343.5 102 Q 348.8 101.2 350.5 104 L 352.5 103 L 359.5 106 L 373 116.5 Q 383.2 128.8 388 146.5 L 385.5 148 Q 378.9 128.1 365.5 115 L 348.5 105 L 344 105 L 343.5 102 Z " /><path fill="rgb(245,190,54)" stroke="rgb(245,190,54)" stroke-width="0.6" opacity="1" d="M 254.5 113 L 255 125.5 L 259 137 L 256 135.5 L 256 130.5 L 252 117.5 L 254.5 113 Z " /><path fill="rgb(245,190,54)" stroke="rgb(245,190,54)" stroke-width="0.6" opacity="1" d="M 263.5 149 L 265 154 Q 269 152.6 267 159.5 L 271 167.5 L 271 171.5 L 270 171.5 L 268 168.5 L 268 166.5 L 266 162.5 L 266 160.5 L 263.5 149 Z " /><path fill="rgb(245,190,54)" stroke="rgb(245,190,54)" stroke-width="0.6" opacity="1" d="M 386 149 L 390 150.5 L 392 157.5 L 388 159 L 388 153.5 L 386 149 Z " /><path fill="rgb(245,190,54)" stroke="rgb(245,190,54)" stroke-width="0.6" opacity="1" d="M 393.5 168 L 396 169.5 L 395 174.5 L 398 178.5 L 396.5 181 L 393 175.5 L 394 172.5 L 392 169.5 L 393.5 168 Z " /><path fill="rgb(245,190,54)" stroke="rgb(245,190,54)" stroke-width="0.6" opacity="1" d="M 271.5 173 L 275 181.5 L 275 185.5 L 274 185.5 L 272 180.5 L 272 178.5 L 271.5 173 Z " /><path fill="rgb(245,190,54)" stroke="rgb(245,190,54)" stroke-width="0.6" opacity="1" d="M 397.5 183 L 400 184.5 Q 398.7 192.8 402 196.5 L 399.5 198 L 398 196.5 L 396 184.5 L 397.5 183 Z " /><path fill="rgb(245,190,54)" stroke="rgb(245,190,54)" stroke-width="0.6" opacity="1" d="M 78.5 191 L 85.5 192 L 91.5 191 L 92 193.5 L 91 198 Q 86.8 200.5 76.5 199 Q 72.8 197.5 74 192 L 78.5 191 Z " /><path fill="rgb(245,190,54)" stroke="rgb(245,190,54)" stroke-width="0.6" opacity="1" d="M 276 194 Q 279 192.8 278 196.5 L 280 204 Q 277 205.3 278 201.5 L 276 194 Z " /><path fill="rgb(245,190,54)" stroke="rgb(245,190,54)" stroke-width="0.6" opacity="1" d="M 401.5 201 L 404 206.5 L 403 209.5 Q 406.3 213.2 405 221.5 L 404 221.5 L 402 213.5 L 403 211.5 L 400 203.5 L 401.5 201 Z " /><path fill="rgb(245,190,54)" stroke="rgb(245,190,54)" stroke-width="0.6" opacity="1" d="M 288.5 213 L 295 214.5 L 293 215 L 292.5 217 L 282.5 217 L 283 215.5 Q 282.1 212.1 287.5 214 L 288.5 213 Z " /><path fill="rgb(245,190,54)" stroke="rgb(245,190,54)" stroke-width="0.6" opacity="1" d="M 276.5 215 L 280 216.5 L 279.5 219 L 270.5 219 Q 271.4 222.2 263.5 221 L 252 228.5 L 247 240.5 L 247 245.5 L 248 256.5 L 247 257.5 L 247 283.5 L 245.5 287 L 244 283.5 L 244 239 Q 247.8 240.1 246 231.5 L 249.5 226 L 252 224.5 L 254.5 221 L 267.5 217 L 271 218 Q 269.6 214.3 275.5 216 L 276.5 215 Z " /><path fill="rgb(245,190,54)" stroke="rgb(245,190,54)" stroke-width="0.6" opacity="1" d="M 123.5 222 L 128 223.5 L 127 231 L 121 229.5 L 123.5 222 Z " /><path fill="rgb(245,190,54)" stroke="rgb(245,190,54)" stroke-width="0.6" opacity="1" d="M 405.5 226 Q 411.2 224.2 409 230.5 L 408.5 233 L 404 230.5 L 405.5 226 Z " /><path fill="rgb(245,190,54)" stroke="rgb(245,190,54)" stroke-width="0.6" opacity="1" d="M 386.5 229 L 390 230.5 Q 391.4 235.1 385.5 233 Q 372.5 234.5 365 241.5 L 358 256.5 L 349 311.5 Q 345.8 326.3 336.5 335 L 330 339.5 L 331 343 L 298.5 350 L 286.5 351 L 206.5 329 L 200 324.5 Q 199 319 202.5 318 L 205.5 316 L 211.5 316 L 213.5 314 L 220.5 314 L 222.5 312 L 228.5 312 Q 229.9 308.8 235 310 L 233.5 313 L 209.5 317 L 205 320.5 L 207.5 324 L 277.5 344 L 295.5 345 L 323.5 338 L 336 328.5 L 344 312.5 L 354 253.5 L 361 238 L 373.5 231 L 375.5 232 L 386.5 229 Z " /><path fill="rgb(245,190,54)" stroke="rgb(245,190,54)" stroke-width="0.6" opacity="1" d="M 448.5 233 L 454 234.5 L 448 266 L 430.5 260 L 414.5 260 L 391.5 269 L 392 267.5 L 397 256.5 L 401 236.5 L 402.5 235 L 407.5 237 L 413.5 235 L 420.5 236 L 423.5 235 L 448.5 233 Z " /><path fill="rgb(245,190,54)" stroke="rgb(245,190,54)" stroke-width="0.6" opacity="1" d="M 391.5 237 L 396 240.5 L 392 258.5 L 388.5 264 L 378.5 267 L 370.5 267 Q 367.7 270.4 361 269 Q 360.5 250.8 370.5 242 L 391.5 237 Z " /><path fill="rgb(245,190,54)" stroke="rgb(245,190,54)" stroke-width="0.6" opacity="1" d="M 385.5 269 Q 391.4 267.3 390 271 L 388 272.5 Q 365.9 291.4 360 326.5 L 365 337 L 333 342 Q 331.8 339 335.5 340 Q 346.3 332.3 351 318.5 L 356 297.5 L 358 279.5 L 360.5 274 L 373.5 271 L 377.5 272 L 385.5 269 Z " /><path fill="rgb(245,190,54)" stroke="rgb(245,190,54)" stroke-width="0.6" opacity="1" d="M 253.5 272 L 264.5 274 L 267.5 276 L 284.5 278 L 287.5 280 L 304.5 282 L 317.5 286 L 319.5 285 L 338.5 290 L 340.5 289 L 343 290 Q 342.6 304.8 338 316.5 L 329.5 329 Q 327.8 331.8 322.5 331 L 248.5 313 L 245 310.5 L 250 297.5 L 252 273.5 L 253.5 272 Z " /><path fill="rgb(245,190,54)" stroke="rgb(245,190,54)" stroke-width="0.6" opacity="1" d="M 208.5 285 L 218 292.5 L 228 305.5 L 200 313 L 206 287.5 L 208.5 285 Z " /><path fill="rgb(245,190,54)" stroke="rgb(245,190,54)" stroke-width="0.6" opacity="1" d="M 244.5 292 L 245 301 L 242 301 L 242 294 Q 244.8 295 244.5 292 Z " /><path fill="rgb(245,190,54)" stroke="rgb(245,190,54)" stroke-width="0.6" opacity="1" d="M 393 315 L 400 319.5 L 408 328.5 L 403.5 331 L 389.5 333 L 388 329.5 L 393 315 Z " /><path fill="rgb(245,190,54)" stroke="rgb(245,190,54)" stroke-width="0.6" opacity="1" d="M 82.5 316 L 84.5 317 L 86 316.5 L 88 323.5 L 83 337.5 L 82.5 340 L 74 323.5 L 82.5 316 Z " /><path fill="rgb(245,190,54)" stroke="rgb(245,190,54)" stroke-width="0.6" opacity="1" d="M 358.5 342 Q 367.8 339.1 365 347 Q 349.4 352.2 327.5 352 L 322 351 L 323.5 349 L 358.5 342 Z " /><path fill="rgb(245,190,54)" stroke="rgb(245,190,54)" stroke-width="0.6" opacity="1" d="M 433 343 L 451 344 L 449 357.5 L 444.5 366 L 444 364 L 441 362.5 L 432 351.5 L 431 346.5 L 433 343 Z " /><path fill="rgb(245,190,54)" stroke="rgb(245,190,54)" stroke-width="0.6" opacity="1" d="M 127.5 346 L 129 347.5 L 129 367.5 L 126.5 371 L 109 366 L 112 355 L 127.5 346 Z " /><path fill="rgb(245,190,54)" stroke="rgb(245,190,54)" stroke-width="0.6" opacity="1" d="M 181.5 349 L 188 351.5 Q 180.4 351.4 178 356.5 L 177 361.5 L 181 369 L 177 367.5 L 178 365.5 L 175 365 L 174 356.5 L 176 352 L 181.5 349 Z " /><path fill="rgb(245,190,54)" stroke="rgb(245,190,54)" stroke-width="0.6" opacity="1" d="M 418 355 L 420 356.5 L 422 358.5 L 423 364.5 L 422 367.5 L 426 385.5 Q 422.3 390.8 411.5 389 L 408 386.5 L 418 355 Z " /><path fill="rgb(245,190,54)" stroke="rgb(245,190,54)" stroke-width="0.6" opacity="1" d="M 83.5 375 L 87 377.5 L 85 382.5 L 84 396.5 L 81 403.5 L 81 411 L 74 407.5 L 72.5 406 Q 67.7 403.9 67 397.5 L 83.5 375 Z " /><path fill="rgb(10,10,11)" stroke="rgb(10,10,11)" stroke-width="0.6" opacity="1" d="M 346.5 80 Q 380.6 77.9 407.5 83 Q 436.4 88.6 453 106.5 Q 465.5 118 464 143.5 L 460 161.5 L 459 181.5 L 463 228.5 L 458 232.5 L 451 270.5 L 460 278.5 Q 470.2 289.8 472 309.5 L 468.5 315 L 466 316.5 L 467 319.5 L 467 346.5 Q 462.4 379.4 442.5 397 L 424.5 407 L 407.5 408 Q 388.9 404.1 380 390.5 L 372 375.5 L 368 360.5 L 368 352.5 L 366.5 351 L 343.5 355 L 324.5 355 L 314.5 351 L 299.5 371 Q 288.5 382 266.5 382 Q 248.5 379 240 366.5 L 234.5 358 L 194.5 364 L 193 365.5 L 192 381.5 L 211.5 387 L 214 389.5 L 215 394.5 L 211.5 400 L 197.5 401 L 185.5 398 L 179 393.5 Q 177.7 385.2 182.5 383 L 188.5 384 L 190 382.5 L 192 362.5 L 188.5 356 Q 184.8 357 186 354 L 188.5 355 L 190 352.5 L 187 346.5 L 190 339.5 L 208 268.5 Q 205.2 266.8 209.5 265 L 212 263.5 L 210.5 261 L 198.5 260 Q 194.7 262.2 200 264.5 L 186.5 311 L 182 307.5 Q 163.5 281.5 140.5 260 Q 135.8 253 127 252 Q 128 255 125 254 L 129 235.5 L 127 232.5 L 129 230.5 L 130 222.5 L 129 220 L 135.5 220 L 146.5 212 L 158 210 Q 158.1 215.6 162.5 218 L 167 216.5 L 166 214.5 L 167.5 215 L 190.5 218 Q 194.9 216.4 194 209.5 L 190.5 206 L 176.5 205 L 169 202.5 L 167.5 201 L 163.5 200 L 159 206 Q 156.2 202.7 147.5 204 L 135.5 212 L 125.5 212 L 118 208.5 Q 116.6 199.9 111.5 195 Q 108.5 192 101.5 193 Q 99.5 196 97.5 191 L 76.5 189 Q 71.8 190.3 73 197.5 L 75.5 200 L 91.5 201 L 93.5 200 L 98.5 204 L 100 200.5 L 99.5 199 Q 106.1 199.4 109 203.5 Q 110.1 212.9 116.5 217 L 122 219.5 L 120 232 L 117 233.5 L 108 273.5 L 109 276 L 102 279.5 L 101 284 Q 107.6 282.3 109.5 286 L 113 285 L 114 290 L 106.5 286 L 90.5 285 L 78.5 288 L 74 291.5 L 75.5 293 L 85 296.5 Q 68.5 301 60 313.5 Q 49.8 326.3 45 344.5 Q 45.9 351.9 43 355.5 L 43 380.5 Q 46.4 404.4 59 418 L 74.5 428 Q 82.3 431.2 94.5 430 Q 112.9 425.9 123 413.5 Q 142.6 393.1 143 353.5 L 142 342 L 144 342.5 L 144 350.5 L 146.5 357 L 149 355.5 Q 150.2 313.3 126.5 296 L 123 297 Q 125.2 283.2 117.5 278 Q 113.8 279 115 276 L 118.5 277 L 124.5 260 Q 142 270 154 285.5 L 184 322.5 L 178.5 343 Q 167.7 341.7 165 348.5 Q 161.2 353.2 161 361.5 Q 161.9 370.1 167.5 374 Q 171.2 377.3 179.5 376 Q 183.3 374.5 182 369 L 184 369.5 L 184 380 L 180.5 378 L 167.5 377 L 162 371.5 L 159 359.5 Q 160.1 348.1 167.5 343 L 175.5 341 L 178 338.5 L 181 322.5 Q 160.8 294.7 136.5 271 L 126.5 263 L 124 265.5 L 121 278.5 Q 125.8 282.2 125 291.5 L 127.5 294 L 135 300.5 Q 152.8 319.2 151 357.5 L 145 361.5 Q 142 403.5 116.5 423 Q 104.6 433.6 80.5 432 Q 63.1 427.9 54 415.5 Q 38.8 396.7 40 361.5 Q 43.8 322.8 66.5 303 L 75 298 L 73.5 296 L 70 293.5 L 73.5 288 Q 82 282.5 96.5 283 L 100 279.5 L 102.5 276 L 106 273.5 L 113 239.5 L 115 231.5 L 118 228.5 L 119 221.5 L 110 213.5 Q 109.8 205.2 104.5 202 Q 102.5 206 96.5 206 L 92.5 203 L 74.5 202 L 71 198.5 Q 69.5 190.5 73.5 188 L 86.5 187 L 95.5 188 L 98.5 191 L 107.5 191 L 116 196.5 L 119 205.5 L 122.5 209 L 134.5 210 L 141.5 204 Q 147.3 200.8 157.5 202 L 162.5 198 L 168.5 198 L 173.5 202 L 192.5 204 L 196 207.5 Q 198 218 191.5 220 L 171.5 218 Q 168.9 221.4 161.5 220 L 158 217.5 L 155.5 213 L 147.5 214 Q 141.9 220.9 132 223.5 L 131 233.5 L 132 235.5 L 129 248.5 Q 146.7 260.3 160 276.5 L 185.5 307 L 197 265.5 L 193.5 259 Q 183.3 259.3 178 254.5 Q 176.6 245.1 181.5 242 L 192.5 238 L 214.5 237 L 226.5 239 L 235 245.5 L 236 252.5 L 232.5 259 Q 226.7 262.7 215.5 261 L 214 262.5 L 211 267.5 L 237.5 296 Q 241.8 291.6 240 282 L 242 282.5 L 242 291.5 L 240 299.5 L 244.5 303 L 246 301.5 L 247 293 Q 250.3 291.7 249 296.5 L 243 311.5 L 247.5 314 L 271 319 Q 272.3 322 268.5 321 L 247.5 315 L 238.5 314 L 231 316 Q 229.8 313 233.5 314 L 237 311.5 L 232.5 308 L 225.5 311 L 208.5 314 L 200 318.5 L 199 324.5 L 201.5 328 L 275.5 350 Q 283.1 352.9 294.5 352 L 332.5 343 L 366.5 338 L 368 336.5 L 365.5 332 L 362 329.5 L 362 320.5 L 368 301.5 Q 375.9 283.4 390.5 272 L 407.5 263 L 419 262 Q 420.1 265.5 412.5 264 Q 391.3 269.8 380 285.5 Q 366.6 301.1 364 327.5 Q 365.8 332.8 374.5 331 L 378 327.5 L 388 299.5 L 402.5 282 L 417.5 274 L 432.5 273 Q 447 275.5 454 285.5 Q 462.8 296 465 312 L 469 310.5 Q 466.8 283.7 449.5 272 Q 439.1 262.9 421 263 Q 419.8 260 423.5 261 L 436.5 263 L 447.5 269 L 450 266.5 L 455 233.5 L 453.5 232 L 438.5 232 L 411 234 L 412.5 231 L 422.5 232 L 423.5 231 L 454.5 230 L 461 227.5 Q 456.5 200 457 167.5 L 458 165.5 L 456 162.5 Q 462 152 462 135.5 Q 459.1 111.9 443.5 101 Q 428.2 89.3 405.5 85 L 377.5 82 L 350.5 82 L 315.5 86 L 291.5 91 L 290 92.5 L 288.5 95 Q 264.7 94.7 254 107.5 Q 249.8 112.3 251 122.5 L 267 166.5 L 278 207.5 L 276 210.5 L 279.5 212 L 283 209.5 Q 278 207.5 281 205.5 Q 280 201.8 283 203 L 285.5 210 L 289.5 209 L 291 212 L 264.5 216 Q 253.5 218 248 225.5 L 243 237.5 L 243 279 L 241 278.5 L 241 236.5 Q 243 224.5 251.5 219 L 274 211.5 L 275 204.5 Q 265.7 163.3 250 128.5 L 249 113.5 Q 250.5 106 255.5 102 L 266.5 96 L 299.5 87 L 346.5 80 Z M 206 239 L 189 241 L 185 243 Q 179 245 180 253 L 189 257 L 208 259 L 227 259 L 233 255 L 232 246 L 222 240 L 206 239 Z M 211 270 L 208 274 L 208 278 L 234 307 L 241 312 L 244 308 L 211 270 Z M 423 275 Q 410 277 403 285 L 390 301 L 385 311 L 379 330 Q 378 334 372 333 L 370 335 L 369 344 Q 370 375 384 392 Q 393 403 410 406 Q 428 407 438 398 Q 460 380 465 344 Q 468 307 453 289 Q 445 274 423 275 Z M 209 281 L 206 284 L 199 314 L 200 316 L 208 312 L 230 307 L 230 305 L 209 281 Z M 195 325 L 190 345 L 192 350 L 210 347 Q 215 345 214 349 L 197 351 L 192 354 L 195 362 L 230 356 L 237 356 L 265 351 L 266 350 L 251 344 L 241 344 L 222 348 Q 215 350 216 346 L 228 345 L 230 343 L 229 340 L 200 329 L 198 327 L 195 325 Z M 363 340 L 319 348 L 317 350 L 328 353 Q 349 353 366 349 Q 368 347 367 342 L 363 340 Z M 307 351 L 301 352 Q 294 362 283 366 L 281 364 L 292 359 L 295 354 L 290 355 L 279 352 L 273 353 L 271 352 L 256 354 L 254 357 L 264 364 Q 267 363 266 366 Q 256 364 251 355 L 238 359 L 243 367 Q 252 378 270 380 Q 286 380 295 372 Q 305 365 310 353 L 307 351 Z M 191 385 L 184 386 Q 180 387 181 393 L 184 395 L 199 399 L 211 398 L 213 395 L 211 389 L 197 385 L 191 385 Z " /><path fill="rgb(10,10,11)" stroke="rgb(10,10,11)" stroke-width="0.6" opacity="1" d="M 292 93 L 313.5 93 L 314 95 L 292.5 95 L 292 93 Z " /><path fill="rgb(10,10,11)" stroke="rgb(10,10,11)" stroke-width="0.6" opacity="1" d="M 345 98 Q 365.7 102.1 377 116.5 Q 391.4 136.3 397 164 Q 394 165.3 395 161.5 L 381 125.5 L 367.5 110 Q 358.5 102 345 100 L 345 98 Z " /><path fill="rgb(10,10,11)" stroke="rgb(10,10,11)" stroke-width="0.6" opacity="1" d="M 275.5 102 Q 281.4 100.3 280 104 Q 268 104.2 261 110 L 259 116 Q 256 117.3 257 113.5 L 262.5 107 L 275.5 102 Z " /><path fill="rgb(10,10,11)" stroke="rgb(10,10,11)" stroke-width="0.6" opacity="1" d="M 320 102 Q 354.6 102.7 371 122.5 L 379 135.5 L 388 159.5 Q 398 190.5 403 226.5 Q 401.3 229.8 399.5 226 L 391.5 227 L 392.5 225 Q 398.5 226.5 400 223.5 L 395 193.5 L 390.5 181 L 335 176 Q 333.7 172.7 338.5 174 L 340.5 173 L 388.5 178 L 390 174.5 L 382 148.5 L 376 134.5 L 370.5 127 L 346.5 129 L 336 136.5 L 333 142.5 L 331 160 Q 327.5 161.1 329 153.5 L 333 137.5 L 339.5 130 L 350.5 126 L 367.5 125 L 369 123.5 Q 354.4 105.1 322.5 104 L 320 103.5 L 320 102 Z " /><path fill="rgb(10,10,11)" stroke="rgb(10,10,11)" stroke-width="0.6" opacity="1" d="M 258 127 Q 261 125.8 260 129.5 L 268 151.5 L 266 150.5 L 258 127 Z " /><path fill="rgb(10,10,11)" stroke="rgb(10,10,11)" stroke-width="0.6" opacity="1" d="M 269.5 156 L 274 168 Q 271 169.3 272 165.5 L 269.5 156 Z " /><path fill="rgb(10,10,11)" stroke="rgb(10,10,11)" stroke-width="0.6" opacity="1" d="M 396 166 Q 399 164.8 398 168.5 L 400 175 Q 397 176.3 398 172.5 L 396 166 Z " /><path fill="rgb(10,10,11)" stroke="rgb(10,10,11)" stroke-width="0.6" opacity="1" d="M 327 169 Q 330 167.8 329 171.5 L 332 173 Q 333.4 177 326.5 175 Q 317.3 176.8 313 183.5 L 309 197.5 L 303 238.5 L 304.5 240 L 330 243 Q 331.4 246.7 325.5 245 L 300.5 241 L 277 245 Q 275.6 241.3 281.5 243 L 299.5 240 L 301 238.5 L 304 219.5 L 302 216 L 305 214.5 L 303.5 210 Q 298.7 211.3 300 208 L 306 206.5 L 311 182.5 L 317.5 176 L 327 173 L 327 169 Z " /><path fill="rgb(10,10,11)" stroke="rgb(10,10,11)" stroke-width="0.6" opacity="1" d="M 401 186 Q 404 184.8 403 188.5 L 405 197.5 L 403 196.5 L 401 186 Z " /><path fill="rgb(10,10,11)" stroke="rgb(10,10,11)" stroke-width="0.6" opacity="1" d="M 406 212 Q 409.7 210.7 408 216.5 L 411 226 Q 414 224.8 413 228.5 L 412 228.5 L 407 222.5 L 406 212 Z " /><path fill="rgb(10,10,11)" stroke="rgb(10,10,11)" stroke-width="0.6" opacity="1" d="M 272.5 221 Q 277.3 219.7 276 223 L 273 224.5 Q 274.3 229.3 271 228 L 269.5 224 Q 258.6 224.6 254 231.5 L 252 238 Q 249 239.3 250 235.5 L 255.5 227 Q 262 222 272.5 221 Z " /><path fill="rgb(10,10,11)" stroke="rgb(10,10,11)" stroke-width="0.6" opacity="1" d="M 372.5 228 Q 377.3 226.7 376 230 Q 364.2 230.9 359 239.5 L 353 251.5 Q 352.4 267.4 347.5 279 L 346 272.5 L 349 266.5 L 352 250.5 L 350 247 L 354 245.5 Q 356.4 236.4 363.5 232 L 372.5 228 Z " /><path fill="rgb(10,10,11)" stroke="rgb(10,10,11)" stroke-width="0.6" opacity="1" d="M 270 230 Q 273 228.8 272 232.5 L 269 243.5 L 271.5 244 Q 276.3 242.7 275 246 Q 262.3 246.5 254 251 L 251 258 L 249 257.5 L 249 241 Q 252.8 239.9 251 248.5 L 253.5 249 L 264.5 246 L 267 243.5 L 270 230 Z " /><path fill="rgb(10,10,11)" stroke="rgb(10,10,11)" stroke-width="0.6" opacity="1" d="M 401 230 L 403 231.5 L 404.5 234 L 401 233 L 399 243 Q 396 244.3 397 240.5 L 398 236.5 L 397 234.5 L 401 233 L 401 230 Z " /><path fill="rgb(10,10,11)" stroke="rgb(10,10,11)" stroke-width="0.6" opacity="1" d="M 371.5 238 L 374 238.5 L 365 246.5 L 362 256 Q 359 257.3 360 253.5 Q 362.4 243.9 369.5 239 L 371.5 238 Z " /><path fill="rgb(10,10,11)" stroke="rgb(10,10,11)" stroke-width="0.6" opacity="1" d="M 332 244 L 348 246 Q 349.3 249.3 344.5 248 L 332 246 L 332 244 Z " /><path fill="rgb(10,10,11)" stroke="rgb(10,10,11)" stroke-width="0.6" opacity="1" d="M 395 249 Q 398 247.8 397 251.5 Q 395.8 261.8 389.5 267 L 387 266.5 Q 395 261.3 395 249 Z " /><path fill="rgb(10,10,11)" stroke="rgb(10,10,11)" stroke-width="0.6" opacity="1" d="M 358 263 Q 361.3 261.7 360 266.5 L 359 269.5 L 360 271.5 Q 356.7 273 358 278 Q 354.3 279.4 356 273.5 L 358 263 Z " /><path fill="rgb(10,10,11)" stroke="rgb(10,10,11)" stroke-width="0.6" opacity="1" d="M 249 265 L 251 266.5 Q 254.4 270.3 261 270 Q 262.3 273 258.5 272 L 251.5 270 L 249 271 L 249 265 Z " /><path fill="rgb(10,10,11)" stroke="rgb(10,10,11)" stroke-width="0.6" opacity="1" d="M 263 271 L 344.5 287 Q 347.5 285.4 346 280 Q 349.7 278.6 348 284.5 L 341 317.5 Q 336.8 327.8 328.5 334 L 317.5 338 L 318.5 336 Q 322.7 337.1 321 333 L 273 322 Q 271.8 319 275.5 320 L 325.5 333 L 335 324.5 L 341 311.5 L 345 290.5 L 341.5 288 L 263 273 L 263 271 Z " /><path fill="rgb(10,10,11)" stroke="rgb(10,10,11)" stroke-width="0.6" opacity="1" d="M 414.5 289 L 416 291 L 409.5 293 L 396 306.5 L 395 310.5 L 396 312.5 Q 394 310.8 392 314.5 L 389 324 L 387 322.5 Q 392.6 304.6 405.5 294 L 414.5 289 Z " /><path fill="rgb(10,10,11)" stroke="rgb(10,10,11)" stroke-width="0.6" opacity="1" d="M 431.5 289 Q 439 290.5 443 295.5 L 449 305.5 L 446 303.5 L 446 301.5 L 437.5 293 Q 435.5 296 433.5 291 L 431.5 289 Z " /><path fill="rgb(10,10,11)" stroke="rgb(10,10,11)" stroke-width="0.6" opacity="1" d="M 91.5 294 Q 104.3 292.3 111.5 296 L 114 295 L 112.5 300 Q 106.2 293.8 91.5 296 L 87 297 Q 85.7 293.7 90.5 295 L 91.5 294 Z " /><path fill="rgb(10,10,11)" stroke="rgb(10,10,11)" stroke-width="0.6" opacity="1" d="M 122 299 Q 125.3 297.7 124 302.5 Q 140.2 315.1 143 340 Q 139.7 341.3 141 336.5 L 132 314.5 L 124.5 306 Q 121 307.3 122 312 Q 119 313.3 120 309.5 L 122 299 Z " /><path fill="rgb(10,10,11)" stroke="rgb(10,10,11)" stroke-width="0.6" opacity="1" d="M 110 306 Q 113 304.8 112 308.5 L 110 317 Q 106.3 318.4 108 312.5 L 106.5 311 L 94.5 310 L 91.5 312 L 86.5 313 Q 77.8 316.3 73 323.5 Q 74.1 326.8 71.5 326 L 67 329.5 Q 70.6 320.1 78.5 315 L 90.5 309 L 103.5 308 L 108.5 310 L 110 306 Z " /><path fill="rgb(10,10,11)" stroke="rgb(10,10,11)" stroke-width="0.6" opacity="1" d="M 450 311 Q 453.7 309.8 452 315 L 449.5 315 L 443.5 320 L 450 312.5 L 450 311 Z " /><path fill="rgb(10,10,11)" stroke="rgb(10,10,11)" stroke-width="0.6" opacity="1" d="M 118 318 L 121 319.5 L 124 324.5 L 120.5 322 L 118.5 324 L 117 322.5 L 118 318 Z " /><path fill="rgb(10,10,11)" stroke="rgb(10,10,11)" stroke-width="0.6" opacity="1" d="M 207 320 Q 211.8 318.1 211 321.5 L 215 323 L 213.5 325 L 207 321.5 L 207 320 Z " /><path fill="rgb(10,10,11)" stroke="rgb(10,10,11)" stroke-width="0.6" opacity="1" d="M 88 325 Q 91.3 323.7 90 328.5 L 91 330.5 L 88 333.5 L 86 347 L 83 345.5 L 85 342.5 L 88 325 Z " /><path fill="rgb(10,10,11)" stroke="rgb(10,10,11)" stroke-width="0.6" opacity="1" d="M 386 326 L 388 327.5 L 387 332.5 L 392.5 334 L 414.5 330 L 419.5 327 L 421 330 L 413.5 335 L 405.5 333 L 388.5 336 L 386 338.5 Q 384.5 344.5 387.5 346 L 408 343 L 409.5 339 L 413 340.5 Q 413.7 343.5 410 342 L 410 345 L 406.5 345 L 387.5 348 L 386 349.5 L 387 361.5 L 385 360.5 L 384 335.5 L 386 326 Z " /><path fill="rgb(10,10,11)" stroke="rgb(10,10,11)" stroke-width="0.6" opacity="1" d="M 105 327 Q 108 325.8 107 329.5 L 100 354.5 L 95.5 360 Q 92.5 360.7 94 357 L 98 354.5 L 95.5 350 L 87 354.5 L 83.5 360 L 80 357.5 L 82 353 L 86 352.5 L 83 350.5 L 84.5 348 L 88.5 351 L 93.5 347 L 98.5 349 Q 103.9 339.8 105 327 Z " /><path fill="rgb(10,10,11)" stroke="rgb(10,10,11)" stroke-width="0.6" opacity="1" d="M 423 327 L 430 331 L 431 337 Q 428 338.3 429 334.5 L 427 331 L 423 330 L 423 327 Z " /><path fill="rgb(10,10,11)" stroke="rgb(10,10,11)" stroke-width="0.6" opacity="1" d="M 114 333 Q 117 331.8 116 335.5 L 111 351.5 L 112 354.5 Q 107.3 358.3 107 366.5 L 103 371.5 L 103 375 Q 96.8 373.9 94.5 378 L 95.5 376 L 100 372.5 L 98.5 371 L 93 367.5 L 94.5 366 Q 95.5 370 101.5 369 L 106 363.5 L 114 333 Z " /><path fill="rgb(10,10,11)" stroke="rgb(10,10,11)" stroke-width="0.6" opacity="1" d="M 253 334 L 262 336 L 260.5 338 L 253 336 L 253 334 Z " /><path fill="rgb(10,10,11)" stroke="rgb(10,10,11)" stroke-width="0.6" opacity="1" d="M 268 338 L 281 341 Q 282.3 344 278.5 343 L 268 340 L 268 338 Z " /><path fill="rgb(10,10,11)" stroke="rgb(10,10,11)" stroke-width="0.6" opacity="1" d="M 310.5 338 Q 315.3 336.7 314 340 L 298 343 Q 296.6 339.3 302.5 341 L 310.5 338 Z " /><path fill="rgb(10,10,11)" stroke="rgb(10,10,11)" stroke-width="0.6" opacity="1" d="M 430 340 Q 433 338.8 432 342.5 L 429 350 L 421.5 354 L 416.5 353 L 411 349 Q 409.7 345.7 414.5 347 Q 415.8 352.3 423.5 351 Q 429.3 347.5 430 340 Z " /><path fill="rgb(10,10,11)" stroke="rgb(10,10,11)" stroke-width="0.6" opacity="1" d="M 61.5 342 L 64.5 347 Q 68.3 346 67 349 L 62.5 347 Q 59 348.3 60 353 Q 57 354.3 58 350.5 L 61.5 342 Z " /><path fill="rgb(10,10,11)" stroke="rgb(10,10,11)" stroke-width="0.6" opacity="1" d="M 408.5 350 L 409 351.5 L 397 362.5 L 408.5 350 Z " /><path fill="rgb(10,10,11)" stroke="rgb(10,10,11)" stroke-width="0.6" opacity="1" d="M 179.5 358 Q 179.5 364 184 365.5 L 182.5 366 L 179 363.5 L 178 359.5 L 179.5 358 Z " /><path fill="rgb(10,10,11)" stroke="rgb(10,10,11)" stroke-width="0.6" opacity="1" d="M 447.5 366 L 447 367.5 Q 443 380.5 432.5 387 L 423 391 Q 421.8 388 425.5 389 L 431.5 385 L 441 376.5 L 444 368 L 447.5 366 Z " /><path fill="rgb(10,10,11)" stroke="rgb(10,10,11)" stroke-width="0.6" opacity="1" d="M 387 367 L 391 369.5 L 392 375.5 L 401.5 386 L 404.5 388 L 406.5 388 L 409.5 390 L 421 390 L 420.5 392 L 410.5 392 Q 400.9 389.1 395 382.5 L 387 367 Z " /><path fill="rgb(10,10,11)" stroke="rgb(10,10,11)" stroke-width="0.6" opacity="1" d="M 84 370 L 92 375 L 90.5 377 L 88 378 L 84.5 373 L 83 372.5 L 84 370 Z " /><path fill="rgb(10,10,11)" stroke="rgb(10,10,11)" stroke-width="0.6" opacity="1" d="M 123.5 391 L 123 392.5 L 112.5 408 Q 108.8 413.2 100.5 414 L 102.5 411 Q 112.9 408.9 117 400.5 L 123.5 391 Z " /><path fill="rgb(10,10,11)" stroke="rgb(10,10,11)" stroke-width="0.6" opacity="1" d="M 62.5 394 L 66 396 Q 66.4 405.1 73.5 409 L 80.5 413 L 82.5 413 L 85 414.5 L 83.5 416 Q 71.2 412.3 65 402.5 L 62.5 394 Z " /><path fill="rgb(37,39,39)" stroke="rgb(37,39,39)" stroke-width="0.6" opacity="1" d="M 293.5 100 Q 303.8 98.8 309 101 L 308.5 103 L 290 103 Q 288.8 100 292.5 101 L 293.5 100 Z " /><path fill="rgb(37,39,39)" stroke="rgb(37,39,39)" stroke-width="0.6" opacity="1" d="M 315.5 109 L 316 110.5 L 314 115 L 312 116.5 L 310 117.5 L 315.5 109 Z " /><path fill="rgb(37,39,39)" stroke="rgb(37,39,39)" stroke-width="0.6" opacity="1" d="M 459.5 171 L 460 181.5 L 459 181.5 L 459.5 171 Z " /><path fill="rgb(37,39,39)" stroke="rgb(37,39,39)" stroke-width="0.6" opacity="1" d="M 332 173 L 339 173.5 L 335 174 L 334.5 176 L 326.5 176 L 326.5 175 Q 333.4 177 332 173 Z " /><path fill="rgb(37,39,39)" stroke="rgb(37,39,39)" stroke-width="0.6" opacity="1" d="M 449.5 176 L 449 177.5 L 445.5 184 L 445 181.5 L 449.5 176 Z " /><path fill="rgb(37,39,39)" stroke="rgb(37,39,39)" stroke-width="0.6" opacity="1" d="M 93.5 190 L 97.5 191 L 99.5 190 L 99.5 191 L 98 191.5 L 99.5 194 L 95.5 192 L 94 192.5 L 93.5 190 Z " /><path fill="rgb(37,39,39)" stroke="rgb(37,39,39)" stroke-width="0.6" opacity="1" d="M 435.5 197 L 435 198.5 L 423.5 215 L 423 213.5 L 435.5 197 Z " /><path fill="rgb(37,39,39)" stroke="rgb(37,39,39)" stroke-width="0.6" opacity="1" d="M 155.5 204 L 159 206.5 L 158 210 L 155.5 211 L 156 209.5 L 157 206.5 L 155.5 204 Z " /><path fill="rgb(37,39,39)" stroke="rgb(37,39,39)" stroke-width="0.6" opacity="1" d="M 415.5 207 L 416 209.5 L 412.5 217 L 412 214.5 L 415.5 207 Z " /><path fill="rgb(37,39,39)" stroke="rgb(37,39,39)" stroke-width="0.6" opacity="1" d="M 398.5 226 L 401.5 228 L 403 227.5 L 401 232.5 L 401.5 234 L 399 232.5 L 401 228.5 L 398.5 226 Z " /><path fill="rgb(37,39,39)" stroke="rgb(37,39,39)" stroke-width="0.6" opacity="1" d="M 240.5 244 L 241 279 Q 244.7 277.6 243 283.5 L 242 283.5 L 240 281.5 L 240.5 244 Z " /><path fill="rgb(37,39,39)" stroke="rgb(37,39,39)" stroke-width="0.6" opacity="1" d="M 416.5 261 L 420.5 261 Q 419.5 264.3 425.5 263 L 425.5 264 L 419.5 264 Q 420.5 261.3 416.5 262 L 416.5 261 Z " /><path fill="rgb(37,39,39)" stroke="rgb(37,39,39)" stroke-width="0.6" opacity="1" d="M 145.5 265 L 150.5 271 L 145.5 265 Z " /><path fill="rgb(37,39,39)" stroke="rgb(37,39,39)" stroke-width="0.6" opacity="1" d="M 208.5 281 L 214.5 288 L 208.5 281 Z " /><path fill="rgb(37,39,39)" stroke="rgb(37,39,39)" stroke-width="0.6" opacity="1" d="M 422.5 287 L 432 288.5 L 427.5 290 L 423.5 289 L 420 290 L 421.5 288 L 422.5 287 Z " /><path fill="rgb(37,39,39)" stroke="rgb(37,39,39)" stroke-width="0.6" opacity="1" d="M 448.5 303 L 450 306.5 L 449.5 308 L 451 309.5 L 451.5 311 L 449 309.5 L 447 305.5 L 448.5 303 Z " /><path fill="rgb(37,39,39)" stroke="rgb(37,39,39)" stroke-width="0.6" opacity="1" d="M 94.5 310 L 93 312.5 L 91.5 320 L 91 317 Q 88 315.8 89 319.5 L 88 319.5 L 89.5 316 Q 92.5 316.9 91 312.5 L 90.5 311 L 92.5 312 L 94.5 310 Z " /><path fill="rgb(37,39,39)" stroke="rgb(37,39,39)" stroke-width="0.6" opacity="1" d="M 100 311 L 102 311.5 L 98.5 322 L 97 321.5 L 100 311 Z " /><path fill="rgb(37,39,39)" stroke="rgb(37,39,39)" stroke-width="0.6" opacity="1" d="M 452.5 314 L 455 322.5 L 453 323 L 451 315.5 L 452.5 314 Z " /><path fill="rgb(37,39,39)" stroke="rgb(37,39,39)" stroke-width="0.6" opacity="1" d="M 186.5 317 L 188 319.5 L 183.5 326 L 183 323.5 L 186.5 317 Z " /><path fill="rgb(37,39,39)" stroke="rgb(37,39,39)" stroke-width="0.6" opacity="1" d="M 441.5 320 L 444 320.5 L 437.5 325 L 441.5 320 Z " /><path fill="rgb(37,39,39)" stroke="rgb(37,39,39)" stroke-width="0.6" opacity="1" d="M 120.5 322 L 125 324.5 L 130 336.5 L 128.5 337 L 125 329.5 L 125.5 328 L 124 327.5 L 124.5 326 L 120.5 322 Z " /><path fill="rgb(37,39,39)" stroke="rgb(37,39,39)" stroke-width="0.6" opacity="1" d="M 241.5 331 L 249 332 L 248.5 335 L 242.5 333 L 241.5 331 Z " /><path fill="rgb(37,39,39)" stroke="rgb(37,39,39)" stroke-width="0.6" opacity="1" d="M 409 337 Q 412 336 411 339 Q 408.8 342 401.5 341 L 400.5 339 L 408.5 339 L 409 337 Z " /><path fill="rgb(37,39,39)" stroke="rgb(37,39,39)" stroke-width="0.6" opacity="1" d="M 295.5 341 Q 298.8 339.9 298 342.5 L 296.5 344 L 286 344 L 286.5 342 L 294.5 342 L 295.5 341 Z " /><path fill="rgb(37,39,39)" stroke="rgb(37,39,39)" stroke-width="0.6" opacity="1" d="M 410.5 342 L 412.5 346 L 414 346.5 L 411 347 Q 412.5 350.7 409.5 350 L 410 348.5 L 409 345.5 L 410.5 342 Z " /><path fill="rgb(37,39,39)" stroke="rgb(37,39,39)" stroke-width="0.6" opacity="1" d="M 125.5 344 L 132 346.5 L 130 348 L 128.5 345 L 123.5 348 L 122 347.5 L 120.5 349 L 114.5 353 L 117.5 349 L 125.5 344 Z " /><path fill="rgb(37,39,39)" stroke="rgb(37,39,39)" stroke-width="0.6" opacity="1" d="M 83.5 346 L 86 347 L 87.5 350 L 89.5 349 L 88.5 351 L 84.5 348 L 83 348.5 L 83.5 346 Z " /><path fill="rgb(37,39,39)" stroke="rgb(37,39,39)" stroke-width="0.6" opacity="1" d="M 452 350 L 454 350.5 L 450.5 359 L 450 356.5 L 452 350 Z " /><path fill="rgb(37,39,39)" stroke="rgb(37,39,39)" stroke-width="0.6" opacity="1" d="M 73.5 351 L 81 355.5 L 77.5 356 L 72 352.5 L 73.5 351 Z " /><path fill="rgb(37,39,39)" stroke="rgb(37,39,39)" stroke-width="0.6" opacity="1" d="M 284.5 351 L 295 351.5 L 284.5 352 L 284.5 351 Z " /><path fill="rgb(37,39,39)" stroke="rgb(37,39,39)" stroke-width="0.6" opacity="1" d="M 432.5 353 L 433 355 L 435 356.5 L 442 365.5 L 439 363.5 L 433 356.5 L 432.5 353 Z " /><path fill="rgb(37,39,39)" stroke="rgb(37,39,39)" stroke-width="0.6" opacity="1" d="M 294.5 354 L 295 355.5 L 288.5 360 L 289.5 358 L 294 355.5 L 294.5 354 Z " /><path fill="rgb(37,39,39)" stroke="rgb(37,39,39)" stroke-width="0.6" opacity="1" d="M 56.5 358 L 59 359 L 57 371.5 L 59 377 Q 55.7 378.3 57 373.5 L 56 364.5 L 57 360.5 L 56.5 358 Z " /><path fill="rgb(37,39,39)" stroke="rgb(37,39,39)" stroke-width="0.6" opacity="1" d="M 81.5 359 L 82 362 L 84 362.5 L 80 364 Q 81.5 368.5 77 367 L 78.5 365 L 81.5 359 Z " /><path fill="rgb(37,39,39)" stroke="rgb(37,39,39)" stroke-width="0.6" opacity="1" d="M 43.5 363 L 44 373.5 L 43 373.5 L 43.5 363 Z " /><path fill="rgb(37,39,39)" stroke="rgb(37,39,39)" stroke-width="0.6" opacity="1" d="M 266 364 L 276 365 Q 277.2 368.7 272 367 Q 273.2 363.3 268 365 L 267.5 367 L 266 364 Z " /><path fill="rgb(37,39,39)" stroke="rgb(37,39,39)" stroke-width="0.6" opacity="1" d="M 84.5 365 L 83.5 367 L 82 367.5 L 86 369.5 L 84 370 L 83.5 372 L 81 366 L 84.5 365 Z " /><path fill="rgb(37,39,39)" stroke="rgb(37,39,39)" stroke-width="0.6" opacity="1" d="M 181.5 365 L 185 366 L 185 369 Q 180.9 367.3 182 371.5 L 181 371.5 L 182 366.5 L 181.5 365 Z " /><path fill="rgb(37,39,39)" stroke="rgb(37,39,39)" stroke-width="0.6" opacity="1" d="M 128.5 371 L 128 372.5 L 128.5 375 L 130.5 372 L 131 373.5 L 129 381 L 127 379.5 L 128 376.5 L 127 374 L 125 373.5 L 128.5 371 Z " /><path fill="rgb(37,39,39)" stroke="rgb(37,39,39)" stroke-width="0.6" opacity="1" d="M 92 375 L 97.5 376 L 99.5 375 L 99.5 376 L 96.5 378 L 96.5 376 L 92 377 L 92 375 Z " /><path fill="rgb(37,39,39)" stroke="rgb(37,39,39)" stroke-width="0.6" opacity="1" d="M 103.5 375 L 118.5 395 L 120 395.5 Q 118.5 398.5 117 395.5 L 103 376.5 L 103.5 375 Z " /><path fill="rgb(37,39,39)" stroke="rgb(37,39,39)" stroke-width="0.6" opacity="1" d="M 78.5 378 L 79 379.5 L 66.5 396 L 62.5 394 L 61.5 396 L 60 392.5 L 63 392.5 L 64.5 395 Q 67.8 396.1 67 393.5 L 78.5 378 Z " /><path fill="rgb(37,39,39)" stroke="rgb(37,39,39)" stroke-width="0.6" opacity="1" d="M 180.5 378 L 184 380 L 185 383.5 L 183.5 384 L 181 383.5 L 180.5 378 Z " /><path fill="rgb(37,39,39)" stroke="rgb(37,39,39)" stroke-width="0.6" opacity="1" d="M 428.5 385 Q 433 387 429.5 389 L 428.5 386 L 426.5 389 L 428 389.5 L 426.5 390 Q 422.5 387.5 428.5 385 Z " /><path fill="rgb(89,83,76)" stroke="rgb(89,83,76)" stroke-width="0.6" opacity="1" d="M 357.5 79 L 373 79.5 L 357.5 80 L 357.5 79 Z " /><path fill="rgb(89,83,76)" stroke="rgb(89,83,76)" stroke-width="0.6" opacity="1" d="M 161.5 215 L 163.5 215 Q 167.3 213.8 166 217.5 L 165 217.5 L 163.5 216 L 163.5 218 L 161.5 215 Z " /><path fill="rgb(89,83,76)" stroke="rgb(89,83,76)" stroke-width="0.6" opacity="1" d="M 410.5 232 L 410.5 234 L 416 234.5 L 406.5 236 L 407.5 234 L 410.5 232 Z " /><path fill="rgb(89,83,76)" stroke="rgb(89,83,76)" stroke-width="0.6" opacity="1" d="M 210.5 279 L 215.5 285 L 210.5 279 Z " /><path fill="rgb(89,83,76)" stroke="rgb(89,83,76)" stroke-width="0.6" opacity="1" d="M 403.5 295 L 398.5 301 L 403.5 295 Z " /><path fill="rgb(89,83,76)" stroke="rgb(89,83,76)" stroke-width="0.6" opacity="1" d="M 75.5 316 L 77 316.5 L 71 321.5 L 75.5 316 Z " /><path fill="rgb(89,83,76)" stroke="rgb(89,83,76)" stroke-width="0.6" opacity="1" d="M 464.5 324 L 465 340.5 L 464 340.5 L 464.5 324 Z " /><path fill="rgb(89,83,76)" stroke="rgb(89,83,76)" stroke-width="0.6" opacity="1" d="M 147.5 343 L 149 343.5 L 149 355.5 L 147 356.5 L 147.5 355 L 146 354.5 L 147 349.5 L 146 347 Q 143 348 144 345 L 147.5 343 Z " /><path fill="rgb(89,83,76)" stroke="rgb(89,83,76)" stroke-width="0.6" opacity="1" d="M 445.5 389 L 440.5 395 L 445.5 389 Z " /><path fill="rgb(89,83,76)" stroke="rgb(89,83,76)" stroke-width="0.6" opacity="1" d="M 57.5 414 L 64 419.5 L 62.5 420 L 57.5 414 Z " /><path fill="rgb(225,179,58)" stroke="rgb(225,179,58)" stroke-width="0.6" opacity="1" d="M 281.5 96 L 318.5 96 L 325 97.5 L 318 98.5 L 323 99 Q 324.3 102.3 319.5 101 L 295.5 99 L 280 101 L 281.5 99 L 281.5 98 L 278 97.5 L 281.5 96 Z M 292 97 L 292 98 L 308 98 L 292 97 Z " /><path fill="rgb(225,179,58)" stroke="rgb(225,179,58)" stroke-width="0.6" opacity="1" d="M 275.5 97 L 274.5 99 L 273 99.5 L 276 101.5 L 270.5 103 L 270 101.5 L 270.5 100 L 267 101.5 L 266.5 104 L 263.5 102 L 263.5 101 L 275.5 97 Z " /><path fill="rgb(225,179,58)" stroke="rgb(225,179,58)" stroke-width="0.6" opacity="1" d="M 327.5 97 L 337 99.5 L 334 100.5 L 336 101 L 334.5 103 L 327 101.5 L 331 99.5 L 327.5 97 Z " /><path fill="rgb(225,179,58)" stroke="rgb(225,179,58)" stroke-width="0.6" opacity="1" d="M 339.5 99 L 351 102 L 349.5 104 Q 348.5 101 343.5 102 L 344 103.5 L 343.5 105 L 339 103.5 Q 342.9 101.3 339.5 99 Z " /><path fill="rgb(225,179,58)" stroke="rgb(225,179,58)" stroke-width="0.6" opacity="1" d="M 253 111 L 255.5 112 L 257 111.5 L 255.5 118 L 254.5 113 L 252.5 117 L 252 114.5 L 253 111 Z " /><path fill="rgb(225,179,58)" stroke="rgb(225,179,58)" stroke-width="0.6" opacity="1" d="M 252.5 119 L 254.5 126 L 255.5 120 L 257 127.5 L 256 127.5 L 255.5 126 L 255 129.5 L 256 133.5 L 255 133.5 L 252.5 119 Z " /><path fill="rgb(225,179,58)" stroke="rgb(225,179,58)" stroke-width="0.6" opacity="1" d="M 259.5 135 L 265 149.5 L 263 149.5 L 264 154.5 L 263 154.5 L 257 137 Q 259.8 138 259.5 135 Z " /><path fill="rgb(225,179,58)" stroke="rgb(225,179,58)" stroke-width="0.6" opacity="1" d="M 388.5 146 L 390 149.5 L 388.5 149 L 385.5 150 L 384 147.5 L 385.5 148 L 388.5 146 Z " /><path fill="rgb(225,179,58)" stroke="rgb(225,179,58)" stroke-width="0.6" opacity="1" d="M 391.5 158 Q 394.1 157.2 393 160.5 L 393.5 162 L 390 160 L 389.5 162 L 388 159.5 L 391.5 158 Z " /><path fill="rgb(225,179,58)" stroke="rgb(225,179,58)" stroke-width="0.6" opacity="1" d="M 390.5 165 L 393.5 166 L 395 165.5 L 396 168.5 L 394.5 168 L 391 169 L 390.5 165 Z " /><path fill="rgb(225,179,58)" stroke="rgb(225,179,58)" stroke-width="0.6" opacity="1" d="M 268.5 169 L 270.5 172 L 271.5 169 L 273 173.5 L 271 173.5 L 272.5 179 L 273.5 175 L 275 180.5 L 274 180.5 L 273.5 179 L 271 178.5 L 268.5 169 Z " /><path fill="rgb(225,179,58)" stroke="rgb(225,179,58)" stroke-width="0.6" opacity="1" d="M 394.5 179 L 397 180.5 L 397.5 179 L 399 183 L 395 184 L 394.5 179 Z " /><path fill="rgb(225,179,58)" stroke="rgb(225,179,58)" stroke-width="0.6" opacity="1" d="M 275.5 183 L 277 188.5 L 276 188.5 L 275.5 187 L 274.5 190 L 273 184.5 L 274 184.5 L 274.5 186 L 275.5 183 Z " /><path fill="rgb(225,179,58)" stroke="rgb(225,179,58)" stroke-width="0.6" opacity="1" d="M 299.5 211 L 299 212.5 Q 298.2 215.9 303 214 L 301.5 212 L 301.5 211 L 304 212.5 L 302.5 215 L 293 217 L 294.5 215 L 294.5 214 L 290 213.5 L 299.5 211 Z " /><path fill="rgb(225,179,58)" stroke="rgb(225,179,58)" stroke-width="0.6" opacity="1" d="M 280.5 214 Q 283.8 212.9 283 215.5 L 282.5 217 L 289 217.5 L 280 219 L 279 215.5 L 280.5 214 Z " /><path fill="rgb(225,179,58)" stroke="rgb(225,179,58)" stroke-width="0.6" opacity="1" d="M 405.5 215 L 406 222.5 Q 404.5 225.5 403 222.5 L 402 216.5 L 403 216.5 L 404.5 222 L 405.5 215 Z " /><path fill="rgb(225,179,58)" stroke="rgb(225,179,58)" stroke-width="0.6" opacity="1" d="M 405.5 225 L 410 226.5 L 411 231.5 L 409 232.5 L 409 230.5 Q 411.2 224.2 405.5 226 L 404 226.5 L 405.5 225 Z " /><path fill="rgb(225,179,58)" stroke="rgb(225,179,58)" stroke-width="0.6" opacity="1" d="M 398.5 227 L 400 230.5 Q 397.8 235 390 233 L 389 229.5 L 392.5 228 L 392 229.5 Q 390.8 233.3 394.5 232 L 399 231 L 398.5 227 Z " /><path fill="rgb(225,179,58)" stroke="rgb(225,179,58)" stroke-width="0.6" opacity="1" d="M 247.5 257 L 248 280.5 L 247 280.5 L 247.5 257 Z " /><path fill="rgb(225,179,58)" stroke="rgb(225,179,58)" stroke-width="0.6" opacity="1" d="M 392.5 265 L 392 266.5 L 391 268.5 L 393 269.5 L 386.5 275 L 388 272.5 L 390 269 L 387 268.5 L 392.5 265 Z " /><path fill="rgb(225,179,58)" stroke="rgb(225,179,58)" stroke-width="0.6" opacity="1" d="M 252.5 271 L 254 271.5 L 252 273.5 L 251.5 283 L 251 272.5 L 252.5 271 Z " /><path fill="rgb(225,179,58)" stroke="rgb(225,179,58)" stroke-width="0.6" opacity="1" d="M 243 284 Q 246 282.8 245 286.5 L 246 286.5 L 246.5 284 L 247 291.5 L 245.5 298 L 244.5 292 L 244 294 L 242 293.5 L 243 284 Z " /><path fill="rgb(225,179,58)" stroke="rgb(225,179,58)" stroke-width="0.6" opacity="1" d="M 362.5 341 L 366 342.5 L 364.5 348 L 363 347.5 L 365 347 Q 367.5 340.7 362.5 342 L 362.5 341 Z " /><path fill="rgb(225,179,58)" stroke="rgb(225,179,58)" stroke-width="0.6" opacity="1" d="M 444.5 343 Q 450.5 341.5 452 344.5 L 451.5 348 L 451 344 L 444.5 344 L 444.5 343 Z " /><path fill="rgb(225,179,58)" stroke="rgb(225,179,58)" stroke-width="0.6" opacity="1" d="M 418.5 354 L 422 356.5 L 421.5 358 L 420 355 L 418 356.5 L 416 357.5 L 418.5 354 Z " /><path fill="rgb(152,65,57)" stroke="rgb(152,65,57)" stroke-width="0.6" opacity="1" d="M 252.5 255 L 252 256.5 L 251.5 265 L 251 256.5 L 252.5 255 Z " /><path fill="rgb(152,65,57)" stroke="rgb(152,65,57)" stroke-width="0.6" opacity="1" d="M 417.5 264 L 428 264.5 L 417.5 265 L 417.5 264 Z " /><path fill="rgb(152,65,57)" stroke="rgb(152,65,57)" stroke-width="0.6" opacity="1" d="M 109.5 288 Q 112.8 288.8 112 293.5 L 108.5 295 L 108.5 294 Q 112.7 295.3 111 290.5 L 109.5 288 Z " /><path fill="rgb(152,65,57)" stroke="rgb(152,65,57)" stroke-width="0.6" opacity="1" d="M 447.5 317 L 440.5 325 L 447.5 317 Z " /><path fill="rgb(152,65,57)" stroke="rgb(152,65,57)" stroke-width="0.6" opacity="1" d="M 387.5 340 L 392 340.5 L 387 342.5 L 388 345.5 L 386 344.5 L 387.5 340 Z " /><path fill="rgb(152,65,57)" stroke="rgb(152,65,57)" stroke-width="0.6" opacity="1" d="M 91.5 343 L 92 346.5 L 87.5 350 L 86 347.5 L 87 347.5 L 88.5 349 L 91.5 343 Z " /><path fill="rgb(152,65,57)" stroke="rgb(152,65,57)" stroke-width="0.6" opacity="1" d="M 242.5 364 L 249.5 372 L 242.5 364 Z " /><path fill="rgb(152,65,57)" stroke="rgb(152,65,57)" stroke-width="0.6" opacity="1" d="M 393.5 381 L 398.5 387 L 393.5 381 Z " /><path fill="rgb(57,103,128)" stroke="rgb(57,103,128)" stroke-width="0.6" opacity="1" d="M 460.5 132 L 461 142.5 L 460 142.5 L 460.5 132 Z " /><path fill="rgb(57,103,128)" stroke="rgb(57,103,128)" stroke-width="0.6" opacity="1" d="M 459.5 219 L 460 227.5 L 454.5 229 L 454.5 228 L 459 228 L 459.5 219 Z " /><path fill="rgb(57,103,128)" stroke="rgb(57,103,128)" stroke-width="0.6" opacity="1" d="M 402.5 355 L 394.5 364 L 402.5 355 Z " /><path fill="rgb(57,103,128)" stroke="rgb(57,103,128)" stroke-width="0.6" opacity="1" d="M 101.5 360 L 103 360.5 L 100 362.5 L 101.5 363 L 103 362.5 Q 101 367 99 363.5 L 101.5 360 Z " /><path fill="rgb(180,155,54)" stroke="rgb(180,155,54)" stroke-width="0.6" opacity="1" d="M 291.5 95 L 307 95.5 L 291.5 96 L 291.5 95 Z " /><path fill="rgb(180,155,54)" stroke="rgb(180,155,54)" stroke-width="0.6" opacity="1" d="M 208.5 282 L 215.5 290 L 208.5 282 Z " /><path fill="rgb(125,125,125)" stroke="rgb(125,125,125)" stroke-width="0.6" opacity="1" d="M 443.5 108 L 444 109.5 L 443 114.5 L 444 116.5 L 442 115.5 Q 440.5 109.5 443.5 108 Z " /><path fill="rgb(125,125,125)" stroke="rgb(125,125,125)" stroke-width="0.6" opacity="1" d="M 456.5 169 L 457 179.5 L 455 178.5 L 456 173.5 L 456 171.5 L 456.5 169 Z " /><path fill="rgb(125,125,125)" stroke="rgb(125,125,125)" stroke-width="0.6" opacity="1" d="M 454.5 272 L 459.5 278 L 454.5 272 Z " /><path fill="rgb(133,121,53)" stroke="rgb(133,121,53)" stroke-width="0.6" opacity="1" d="M 243.5 241 L 244 277.5 L 243 277.5 L 243.5 241 Z " /><path fill="rgb(209,209,209)" stroke="rgb(209,209,209)" stroke-width="0.6" opacity="1" d="M 460.5 167 L 461 183.5 L 460 183.5 L 460.5 167 Z " /><path fill="rgb(209,209,209)" stroke="rgb(209,209,209)" stroke-width="0.6" opacity="1" d="M 147.5 262 L 154.5 270 L 147.5 262 Z " /><path fill="rgb(169,168,168)" stroke="rgb(169,168,168)" stroke-width="0.6" opacity="1" d="M 447.5 100 L 452.5 106 L 447.5 100 Z " /><path fill="rgb(169,168,168)" stroke="rgb(169,168,168)" stroke-width="0.6" opacity="1" d="M 464.5 131 L 465 143.5 L 464 143.5 L 464.5 131 Z " /><path fill="rgb(169,168,168)" stroke="rgb(169,168,168)" stroke-width="0.6" opacity="1" d="M 304.5 366 L 299.5 372 L 304.5 366 Z " /></svg>