<svg width="627" height="627" preserveAspectRatio="xMidYMid meet" viewBox="0 0 512 512" version="1.1" xmlns="http://www.w3.org/2000/svg" ><path fill="rgb(255,255,255)" stroke="rgb(255,255,255)" stroke-width="0.6" opacity="1" d="M 0 0 L 512 0 L 512 512 L 0 512 L 0 0 Z M 344 79 L 305 84 L 277 91 L 256 100 L 248 110 L 248 128 L 267 178 L 273 202 L 273 211 L 252 217 Q 243 223 240 234 L 239 292 L 237 293 L 213 268 L 214 265 L 217 262 L 233 261 L 236 258 L 236 245 Q 231 237 220 236 L 195 236 L 181 241 Q 175 244 176 254 L 185 260 L 193 260 L 195 264 L 195 270 L 188 297 L 185 304 L 158 272 Q 146 258 131 249 L 133 240 L 133 225 L 141 222 L 151 214 L 155 214 L 156 217 L 163 222 Q 169 223 172 220 Q 181 218 185 222 L 194 221 L 198 214 L 197 207 L 192 202 L 175 201 L 168 196 Q 159 196 157 201 L 145 201 L 136 208 L 124 208 Q 119 205 118 198 L 109 190 L 101 190 L 97 187 Q 88 189 85 185 L 75 186 L 69 194 L 70 200 L 77 204 L 92 204 L 97 207 L 106 205 L 110 216 L 118 223 L 113 233 L 105 273 L 103 274 L 101 277 L 96 282 L 85 282 L 73 287 L 69 291 Q 68 296 72 298 L 69 300 L 48 326 L 41 345 L 39 363 Q 38 379 41 392 L 52 416 Q 62 430 82 434 L 100 433 L 117 425 Q 143 406 146 363 L 152 360 Q 155 320 138 302 L 136 300 L 126 291 Q 128 282 123 280 L 126 266 L 134 270 Q 159 294 180 323 L 177 338 L 167 342 Q 159 346 158 357 Q 156 369 162 375 L 169 379 L 180 380 L 181 382 L 177 389 L 178 396 L 194 402 L 211 402 L 216 396 L 215 389 L 211 385 L 197 382 L 194 382 L 194 368 L 197 365 L 235 360 L 242 372 Q 250 380 264 383 L 281 383 L 299 374 L 316 353 L 323 356 L 349 356 L 366 353 L 367 355 L 367 364 L 371 378 L 381 395 Q 390 407 409 410 Q 431 411 442 400 Q 456 388 463 370 L 468 351 L 468 318 L 473 312 Q 471 282 453 270 L 459 234 L 464 230 L 463 200 L 461 197 L 461 162 L 465 149 Q 468 120 456 108 L 440 93 L 416 83 Q 384 77 344 79 Z " /><path fill="rgb(255,255,255)" stroke="rgb(255,255,255)" stroke-width="0.6" opacity="1" d="M 203.5 394 Q 209.5 392.5 211 395.5 Q 208.9 399 202 397 L 203.5 394 Z " /><path fill="rgb(1,1,1)" stroke="rgb(1,1,1)" stroke-width="0.6" opacity="1" d="M 345.5 79 L 383.5 79 L 416.5 84 L 439.5 94 L 453 105.5 Q 460.6 113.4 464 125.5 L 465 144.5 L 460 163.5 L 460 180.5 L 463 212.5 L 463 229.5 L 458 232.5 L 458 239.5 L 452 269.5 Q 470.4 282.1 472 311.5 L 467 317.5 L 468 318.5 L 468 346.5 Q 463.6 378.6 444.5 396 Q 433.5 410 407.5 409 Q 388.1 404.9 379 390.5 L 371 375.5 L 367 360.5 L 367 353.5 L 365.5 352 L 343.5 356 L 324.5 356 L 314.5 352 L 299.5 372 L 281.5 382 L 266.5 383 Q 250 379.5 241 368.5 L 234.5 359 L 196.5 364 L 194 366.5 L 193 381.5 L 194.5 383 L 210.5 386 L 215 390.5 L 215 395.5 L 210.5 401 L 196.5 402 L 182.5 398 L 179 394.5 L 178 388.5 Q 182 386.5 182 380.5 L 180.5 379 L 170.5 379 L 162 372.5 Q 156.9 368.1 159 356.5 Q 160.4 345.9 168.5 342 L 178 337.5 L 181 322.5 Q 161.7 295.8 138.5 273 L 127.5 264 L 125 266.5 L 122 279.5 L 125 283.5 Q 123.5 291.5 127.5 294 L 140 305.5 Q 153.6 323.9 152 357.5 L 145 362.5 Q 142.8 404.3 117.5 423 L 100.5 432 L 80.5 433 Q 63.3 428.7 54 416.5 L 43 396.5 L 40 382.5 L 40 354.5 L 42 343.5 L 51 321.5 L 68.5 301 L 73 299 L 70 291.5 Q 74.6 285.1 83.5 283 Q 95 285.5 99 280.5 L 106 272.5 L 109 251.5 L 114 232.5 L 118 226.5 L 118 221.5 L 111 215.5 L 105.5 203 Q 103.6 207.1 96.5 206 Q 90 200.5 75.5 203 L 71 199.5 L 70 193.5 L 75.5 186 L 94.5 187 Q 97.3 191.7 106.5 190 L 117 197.5 L 121.5 208 L 135.5 209 L 144.5 202 L 155.5 202 L 162.5 197 L 167.5 197 L 174.5 202 L 191.5 203 L 197 208.5 Q 198.4 218.9 191.5 221 Q 184.1 222.4 181.5 219 L 170.5 219 Q 169 222.5 162.5 221 L 157 216.5 L 155.5 214 L 148.5 214 L 140.5 221 L 134.5 222 L 132 224.5 L 132 239.5 L 130 248.5 L 155 269.5 L 184.5 305 L 187 303.5 L 196 268.5 L 196 263.5 L 193.5 259 Q 180.6 260.9 177 253.5 Q 175.8 244.8 180.5 242 L 192.5 237 L 213.5 237 L 215.5 236 L 228.5 239 L 235 244.5 L 236 255.5 L 233.5 259 Q 228 264 215.5 262 L 213 264.5 L 212 268.5 L 237.5 295 L 239 293.5 L 240 280.5 L 240 236.5 Q 242.2 224.7 250.5 219 Q 257.6 212.6 271.5 213 L 274 210.5 L 274 202.5 L 268 178.5 L 249 128.5 L 248 112.5 Q 249.8 104.9 255.5 101 L 275.5 92 L 303.5 85 L 326.5 81 L 342.5 81 L 345.5 79 Z M 356 83 L 319 86 L 305 90 Q 300 89 301 92 L 327 93 L 330 95 L 345 96 Q 358 99 368 106 Q 383 120 391 142 Q 403 176 409 217 L 412 218 L 411 223 Q 410 227 415 225 Q 437 198 455 168 L 461 146 L 460 126 L 452 110 L 445 104 L 445 121 L 441 139 L 415 214 L 413 215 L 437 145 L 443 119 Q 444 106 440 100 L 426 91 L 409 86 L 392 85 L 388 83 L 356 83 Z M 279 96 L 267 99 L 260 103 L 252 113 L 253 130 L 269 171 L 277 201 L 277 206 Q 279 209 280 206 L 280 198 L 275 177 L 256 124 Q 255 114 259 110 L 269 103 L 297 99 L 299 100 L 320 100 L 323 102 L 335 102 L 352 107 L 363 113 L 375 128 L 385 149 L 397 190 L 402 214 L 402 223 L 405 224 L 403 229 L 404 232 Q 405 235 410 234 Q 412 233 411 228 L 406 224 L 405 206 L 397 170 L 385 135 L 373 116 Q 361 102 340 98 L 320 96 L 279 96 Z M 300 103 L 274 105 L 266 108 L 259 115 L 260 129 L 277 174 L 284 209 L 287 210 L 289 206 L 292 179 L 297 161 L 297 153 L 304 130 L 306 129 L 297 165 L 291 203 Q 290 208 293 209 L 304 208 L 306 206 L 308 189 L 313 179 Q 316 173 325 173 L 328 166 L 329 148 L 334 135 L 344 127 L 357 125 L 367 125 L 367 123 Q 353 105 323 105 Q 312 112 308 126 L 306 127 L 309 118 L 317 109 L 318 104 L 300 103 Z M 361 128 L 349 129 L 341 133 L 333 146 L 330 172 L 332 173 L 379 177 Q 387 179 389 176 L 383 153 L 373 131 Q 370 125 361 128 Z M 455 169 Q 438 202 414 229 L 416 231 L 453 229 L 460 227 Q 455 202 457 172 L 455 169 Z M 330 176 L 320 178 L 314 184 L 310 195 L 304 239 L 306 240 L 320 240 L 352 246 L 356 240 L 368 229 L 384 225 L 398 225 L 399 224 L 398 210 L 392 184 L 390 181 Q 380 183 377 179 L 330 176 Z M 76 190 L 73 197 L 76 199 L 91 200 L 93 191 L 76 190 Z M 97 192 Q 93 193 94 201 L 98 202 L 97 200 Q 96 195 99 194 Q 100 191 97 192 Z M 104 193 L 100 198 L 108 201 L 110 204 L 113 214 L 118 217 L 126 219 L 137 219 L 146 212 L 156 209 L 155 205 L 144 206 L 134 213 L 122 212 L 119 210 L 114 199 Q 111 194 104 193 Z M 164 201 L 158 210 L 159 215 Q 160 218 165 217 L 163 213 Q 163 206 167 203 Q 168 199 164 201 Z M 169 205 Q 165 207 166 213 L 169 215 L 189 217 L 188 215 L 190 209 L 190 214 L 193 215 L 194 210 Q 185 204 169 205 Z M 301 210 L 263 217 L 253 222 L 244 235 L 244 284 L 241 300 L 245 302 L 247 297 L 247 282 L 248 281 L 248 241 L 252 231 L 264 222 L 303 216 L 305 212 L 301 210 Z M 302 218 L 275 223 L 273 225 L 271 237 Q 270 242 273 243 L 299 240 L 301 238 L 304 220 L 302 218 Z M 124 221 L 121 225 L 122 232 L 120 233 L 117 238 L 109 274 L 111 275 L 119 276 L 122 267 L 128 236 L 123 234 Q 122 231 127 232 Q 131 230 129 223 L 124 221 Z M 269 224 L 257 229 Q 250 235 252 248 L 264 246 L 268 241 L 271 226 L 269 224 Z M 390 228 L 379 229 L 363 236 L 354 250 L 345 308 L 341 321 L 336 329 L 323 338 L 295 345 L 285 345 L 209 324 L 207 320 L 214 317 L 229 315 L 236 312 L 235 309 L 202 317 L 199 322 L 200 326 Q 205 331 214 332 L 283 351 L 299 351 L 334 342 L 343 342 L 359 338 L 367 338 L 368 336 L 362 331 Q 360 316 365 308 Q 370 293 379 283 Q 392 265 419 260 L 434 261 L 449 267 L 451 261 L 454 240 Q 455 234 453 233 L 429 233 L 424 235 L 411 236 Q 404 237 402 234 L 400 236 L 400 244 L 394 264 L 387 269 L 363 272 L 357 281 Q 356 299 352 315 L 344 332 L 338 337 L 336 337 Q 346 328 350 313 L 358 259 L 363 246 L 375 236 L 391 233 L 400 233 L 400 228 L 390 228 Z M 394 236 L 373 240 L 363 252 L 360 267 L 362 270 L 388 266 L 393 260 L 397 244 L 397 238 L 394 236 Z M 194 241 L 184 244 Q 180 246 180 252 L 183 254 L 193 257 L 230 258 Q 234 256 232 248 L 223 241 L 194 241 Z M 292 243 L 268 247 L 255 252 Q 254 256 259 254 L 259 256 L 254 255 L 252 257 L 252 267 L 260 270 L 268 270 L 280 274 L 293 275 L 344 286 L 347 275 L 346 273 Q 325 271 308 265 L 300 265 Q 294 261 284 262 L 265 257 Q 260 258 261 255 L 296 262 L 305 262 L 328 268 L 347 270 L 348 269 L 351 251 L 348 248 L 325 246 L 315 243 L 292 243 Z M 130 252 L 127 260 L 135 265 Q 160 289 181 318 L 186 321 L 183 326 L 180 343 L 168 346 L 162 357 Q 160 368 165 373 L 172 376 Q 179 378 181 374 L 180 372 L 182 369 L 179 364 Q 178 360 181 361 L 185 366 L 185 382 L 189 383 L 190 382 L 190 367 L 191 366 L 190 358 Q 188 354 183 356 L 181 359 Q 178 360 179 357 Q 181 351 189 353 L 187 349 L 207 269 Q 206 266 201 267 L 198 272 L 189 306 L 189 319 L 188 320 L 186 313 L 156 277 L 130 252 Z M 201 261 L 199 263 L 205 265 Q 210 266 212 264 Q 210 259 201 261 Z M 416 264 Q 402 266 394 273 L 375 294 L 366 316 L 365 329 Q 367 333 375 331 L 379 326 Q 379 315 383 309 L 395 289 Q 405 277 422 272 L 434 272 L 448 278 Q 462 288 465 311 Q 467 314 468 311 Q 468 289 457 280 Q 449 270 436 265 L 416 264 Z M 253 271 L 250 274 L 250 297 L 247 308 L 244 312 L 253 315 L 323 332 L 328 332 L 339 318 L 344 291 L 343 289 L 253 271 Z M 211 272 L 209 274 Q 208 281 212 283 L 240 312 L 243 310 L 241 305 L 220 281 L 211 272 Z M 420 276 L 408 281 Q 386 297 381 329 Q 379 333 373 333 L 371 335 L 370 344 L 373 371 L 384 392 Q 393 401 408 405 L 422 405 L 439 397 Q 452 386 459 369 L 462 360 L 465 340 L 463 313 Q 460 299 453 290 L 439 277 L 420 276 Z M 107 277 L 103 281 Q 102 285 111 283 L 115 289 L 115 300 L 108 330 Q 105 349 96 363 L 96 367 Q 97 370 102 369 L 105 366 L 110 351 L 123 298 Q 124 287 121 282 L 119 279 L 107 277 Z M 209 282 L 206 285 L 200 308 Q 199 313 202 314 Q 208 310 220 310 L 230 306 L 214 287 L 209 282 Z M 89 286 L 80 288 L 74 293 L 81 295 Q 89 296 93 293 Q 104 291 110 295 L 111 290 Q 104 283 89 286 Z M 94 296 Q 90 299 83 298 L 71 304 L 54 324 L 46 343 L 44 353 L 45 391 Q 49 405 57 416 Q 65 425 80 429 L 98 429 L 117 420 Q 128 410 135 395 L 141 375 L 142 362 Q 143 332 132 316 L 124 308 L 121 314 Q 120 322 124 325 L 122 323 L 113 349 L 115 351 L 128 343 L 126 330 L 126 328 L 130 335 L 133 349 Q 134 365 131 378 Q 126 394 117 406 Q 110 414 99 417 L 84 417 L 73 411 Q 64 405 60 396 L 55 374 L 56 358 L 59 344 L 68 326 Q 77 312 95 307 Q 104 306 109 309 L 111 301 Q 106 294 94 296 Z M 127 297 Q 124 298 125 304 L 128 305 L 138 319 L 144 336 Q 142 346 146 350 Q 144 356 148 355 Q 150 323 136 306 L 127 297 Z M 97 310 L 93 314 L 91 323 L 92 332 Q 93 336 89 334 L 86 349 L 90 350 L 91 349 L 91 337 L 94 336 L 95 335 L 96 323 L 99 316 Q 101 309 97 310 Z M 104 311 L 101 314 Q 99 332 94 348 L 99 349 L 100 348 L 108 314 L 104 311 Z M 86 314 L 74 324 L 82 341 L 85 342 L 88 329 L 88 316 L 86 314 Z M 236 315 L 216 321 Q 212 320 213 323 L 286 342 Q 305 342 318 336 Q 321 337 320 334 L 264 319 L 253 318 L 248 315 L 236 315 Z M 198 326 L 191 347 L 192 349 L 228 344 L 229 340 L 202 331 L 198 326 Z M 72 327 Q 64 332 63 345 L 81 355 L 83 351 L 83 347 L 72 327 Z M 361 341 L 357 343 L 342 344 L 334 347 L 326 347 L 322 349 Q 318 348 319 351 L 324 352 L 342 352 L 365 349 Q 367 348 366 343 L 361 341 Z M 242 345 L 198 351 L 193 354 Q 191 359 195 361 L 258 351 Q 264 353 263 349 L 253 345 L 242 345 Z M 127 346 L 114 354 Q 108 357 108 366 L 123 371 Q 126 370 125 373 L 107 369 Q 103 370 104 375 L 97 379 L 101 402 L 105 411 L 109 409 L 118 399 L 107 382 L 108 380 L 120 395 L 128 378 L 127 374 Q 131 370 129 362 L 131 360 L 130 348 L 127 346 Z M 63 348 L 59 358 L 59 368 L 61 369 L 70 367 Q 73 366 72 369 L 59 373 L 59 382 L 63 395 L 66 396 Q 72 383 82 374 Q 83 368 79 367 L 81 361 Q 74 352 63 348 Z M 93 351 L 85 360 L 86 371 L 93 375 L 97 374 L 98 373 L 95 370 Q 90 368 92 360 L 95 358 Q 98 357 97 353 L 93 351 Z M 268 352 L 255 357 Q 259 363 269 364 L 272 354 L 268 352 Z M 276 352 L 273 357 Q 271 363 275 365 L 285 363 Q 289 362 288 356 L 276 352 Z M 305 352 L 301 353 L 297 358 Q 290 365 280 368 L 269 368 L 257 362 L 252 356 Q 243 356 239 360 L 243 367 Q 251 376 266 379 L 283 378 L 296 371 Q 304 364 309 354 L 305 352 Z M 85 374 L 66 399 L 68 404 Q 72 410 81 412 L 85 397 Q 83 391 87 392 L 84 413 L 89 415 L 98 414 L 100 412 L 99 399 L 95 386 L 95 380 L 93 377 L 90 379 L 87 376 L 85 374 Z M 189 386 L 185 387 Q 181 388 182 393 L 195 398 L 199 397 L 198 394 L 199 392 L 210 392 L 210 391 Q 203 384 189 386 Z M 203 394 Q 198 396 202 398 Q 209 400 211 396 L 211 394 L 203 394 Z " /><path fill="rgb(1,1,1)" stroke="rgb(1,1,1)" stroke-width="0.6" opacity="1" d="M 422.5 286 L 431.5 287 L 445 296.5 Q 459 312 456 344.5 L 451 363.5 L 447 371.5 L 432.5 388 L 421.5 393 L 410.5 393 Q 399.7 390.3 394 382.5 Q 387.2 373.8 384 361.5 L 384 337.5 L 383 335.5 L 385 325.5 L 393 307.5 L 408.5 291 L 422.5 286 Z M 419 290 L 416 291 L 413 295 L 410 294 L 396 310 L 413 330 L 417 328 L 413 303 Q 411 296 415 297 L 419 319 L 419 327 L 422 328 L 427 319 L 429 317 L 426 326 L 429 330 L 435 327 L 449 314 Q 448 304 443 299 L 438 294 L 435 297 L 430 313 Q 431 316 428 315 L 434 293 Q 430 287 419 290 Z M 395 313 Q 389 318 388 327 Q 387 332 390 333 L 405 332 L 409 330 L 398 316 L 395 313 Z M 450 316 L 442 323 L 431 334 L 431 339 L 433 340 L 451 340 L 453 340 L 453 326 L 452 325 L 452 317 L 450 316 Z M 421 330 L 414 338 L 415 348 L 420 351 L 425 350 L 429 345 L 428 335 L 421 330 Z M 404 334 L 400 336 L 389 337 L 390 339 L 408 339 L 410 336 Q 409 333 404 334 Z M 389 341 L 387 343 L 389 345 L 398 344 L 407 344 L 407 343 L 406 341 L 389 341 Z M 433 343 L 430 350 L 424 354 L 429 385 L 432 386 L 443 373 L 442 368 L 430 354 L 432 352 L 443 367 L 446 368 L 452 350 L 452 345 L 451 343 L 433 343 Z M 408 346 L 389 348 L 387 350 Q 385 363 392 368 L 410 349 Q 411 345 408 346 Z M 412 350 L 392 371 L 395 380 L 405 387 L 410 373 Q 409 369 412 370 L 408 388 L 412 390 Q 421 391 426 388 L 426 378 L 422 357 L 420 353 L 417 354 L 415 353 L 412 350 Z " /><path fill="rgb(1,1,1)" stroke="rgb(1,1,1)" stroke-width="0.6" opacity="1" d="M 179.5 347 Q 183.3 346 182 349 Q 177.3 348.3 176 352.5 L 173.5 356 L 174 354.5 L 175.5 350 L 179.5 347 Z " /><path fill="rgb(1,1,1)" stroke="rgb(1,1,1)" stroke-width="0.6" opacity="1" d="M 171 359 Q 174.3 357.7 173 362.5 L 175.5 368 L 179 369 Q 180.3 372 176.5 371 Q 169.6 368.4 171 359 Z " /><path fill="rgb(1,1,1)" stroke="rgb(1,1,1)" stroke-width="0.6" opacity="1" d="M 186.5 390 L 195 391 Q 196.3 394 192.5 393 L 187.5 392 L 186.5 390 Z " /><path fill="rgb(211,68,58)" stroke="rgb(211,68,58)" stroke-width="0.6" opacity="1" d="M 356.5 83 L 361.5 84 L 365.5 83 L 366.5 84 L 389.5 84 L 393.5 86 L 409.5 87 L 426.5 92 L 440 100.5 Q 443.6 107.4 442 119.5 L 436 145.5 L 412 216 Q 406.8 217.8 409 210.5 L 400 166.5 L 393 144.5 L 381 120.5 L 367.5 105 Q 357.3 98.2 343.5 95 L 303 92 Q 301.6 88.3 307.5 90 L 317.5 87 L 356.5 83 Z " /><path fill="rgb(211,68,58)" stroke="rgb(211,68,58)" stroke-width="0.6" opacity="1" d="M 361.5 128 Q 370 126 372 130.5 L 382 151.5 L 388 176 L 339.5 173 L 331.5 172 L 330 170.5 L 334 144.5 L 341.5 133 L 347.5 130 Q 357.2 131.7 361.5 128 Z " /><path fill="rgb(211,68,58)" stroke="rgb(211,68,58)" stroke-width="0.6" opacity="1" d="M 301.5 219 L 303 221.5 L 300 237.5 L 298.5 239 L 272 242 L 273 229.5 L 275.5 224 L 301.5 219 Z " /><path fill="rgb(211,68,58)" stroke="rgb(211,68,58)" stroke-width="0.6" opacity="1" d="M 253.5 256 L 346 274 L 345 283.5 L 343.5 285 L 290.5 274 L 277.5 273 L 270.5 270 L 255.5 268 L 252 265.5 Q 250 258 253.5 256 Z " /><path fill="rgb(211,68,58)" stroke="rgb(211,68,58)" stroke-width="0.6" opacity="1" d="M 422.5 264 L 436.5 266 Q 449.2 270.8 457 280.5 Q 466 289.5 467 306.5 L 467.5 310 L 466 308.5 Q 462.8 287.8 448.5 278 L 435.5 272 L 419.5 272 Q 403 276.5 394 288.5 L 384 304.5 L 379 316.5 L 378 325.5 L 374.5 330 Q 366.8 331.7 365 327.5 Q 369.6 290.1 394.5 273 Q 405.3 265.3 422.5 264 Z " /><path fill="rgb(211,68,58)" stroke="rgb(211,68,58)" stroke-width="0.6" opacity="1" d="M 210.5 275 L 213.5 275 L 221 282.5 L 240 304.5 L 242 309.5 L 239.5 311 L 209 276.5 L 210.5 275 Z " /><path fill="rgb(211,68,58)" stroke="rgb(211,68,58)" stroke-width="0.6" opacity="1" d="M 423.5 276 L 438.5 278 L 452 289.5 Q 466 308.5 464 343.5 L 458 369.5 Q 450.6 386.1 437.5 397 L 423.5 404 L 412.5 405 L 401.5 403 L 385 391.5 L 373 368.5 L 370 344.5 L 371 335.5 L 372.5 334 Q 379.8 333.8 382 328.5 Q 386.6 297.1 407.5 282 L 423.5 276 Z M 419 286 L 408 291 L 391 310 L 383 333 L 384 364 L 393 383 Q 398 390 408 393 L 424 393 L 437 386 L 449 370 L 456 347 L 456 320 Q 453 305 445 296 L 434 287 L 419 286 Z " /><path fill="rgb(211,68,58)" stroke="rgb(211,68,58)" stroke-width="0.6" opacity="1" d="M 93.5 286 L 106.5 287 L 111 290.5 L 109.5 294 Q 104.1 290.9 94.5 292 L 85.5 295 L 79.5 294 L 76 291.5 L 82.5 288 L 93.5 286 Z " /><path fill="rgb(211,68,58)" stroke="rgb(211,68,58)" stroke-width="0.6" opacity="1" d="M 422.5 290 Q 430.1 288.9 433 292.5 L 427 317.5 L 421.5 327 L 420 325.5 L 415 293.5 L 422.5 290 Z " /><path fill="rgb(211,68,58)" stroke="rgb(211,68,58)" stroke-width="0.6" opacity="1" d="M 409.5 295 L 412 296.5 L 416 327.5 L 412.5 329 L 397 309.5 L 409.5 295 Z " /><path fill="rgb(211,68,58)" stroke="rgb(211,68,58)" stroke-width="0.6" opacity="1" d="M 96.5 311 L 99 312.5 L 93.5 331 L 92 330.5 L 92 321.5 L 94 313.5 L 96.5 311 Z " /><path fill="rgb(211,68,58)" stroke="rgb(211,68,58)" stroke-width="0.6" opacity="1" d="M 449.5 317 L 453 329.5 L 453 338.5 L 451.5 340 L 433.5 340 Q 430.8 338.8 432 333.5 L 442 324.5 L 443.5 322 L 449.5 317 Z " /><path fill="rgb(211,68,58)" stroke="rgb(211,68,58)" stroke-width="0.6" opacity="1" d="M 420.5 331 Q 426.1 331.5 428 335.5 L 429 342.5 L 423.5 350 Q 417.3 351.3 416 347.5 L 415 336.5 L 418.5 332 L 420.5 331 Z M 422 334 L 418 338 L 420 345 Q 419 348 424 346 L 421 342 L 424 337 Q 425 333 422 334 Z " /><path fill="rgb(211,68,58)" stroke="rgb(211,68,58)" stroke-width="0.6" opacity="1" d="M 388.5 341 L 404.5 341 L 405 343 L 388.5 345 L 387 342.5 L 388.5 341 Z " /><path fill="rgb(211,68,58)" stroke="rgb(211,68,58)" stroke-width="0.6" opacity="1" d="M 62.5 350 L 65.5 350 L 80 360.5 L 78.5 365 L 60.5 368 Q 57.8 366.8 59 361.5 L 62.5 350 Z " /><path fill="rgb(211,68,58)" stroke="rgb(211,68,58)" stroke-width="0.6" opacity="1" d="M 303.5 353 Q 308.9 351.1 308 354.5 Q 303.3 364.8 294.5 371 L 280.5 378 L 271.5 379 Q 253 377.5 244 366.5 L 240 360.5 Q 243.5 356.5 251.5 357 L 255.5 362 L 267.5 368 L 282.5 368 L 298 358 L 300.5 354 L 303.5 353 Z " /><path fill="rgb(211,68,58)" stroke="rgb(211,68,58)" stroke-width="0.6" opacity="1" d="M 182.5 357 Q 187.8 355.8 189 358.5 L 190 369.5 L 189 381.5 L 187.5 383 L 185 381.5 L 186 365.5 L 181 358.5 L 182.5 357 Z " /><path fill="rgb(211,68,58)" stroke="rgb(211,68,58)" stroke-width="0.6" opacity="1" d="M 101.5 376 Q 111.3 385.2 117 398.5 L 108.5 408 L 105.5 410 L 103 407.5 L 98 379.5 L 99 377 L 101.5 376 Z " /><path fill="rgb(55,113,180)" stroke="rgb(55,113,180)" stroke-width="0.6" opacity="1" d="M 289.5 104 L 318 105 L 309 116.5 L 299 142.5 Q 296.2 148.7 297 158.5 L 291 181.5 L 289 202.5 L 286.5 209 L 284 204.5 L 277 171.5 L 260 126.5 L 259 116.5 L 265.5 109 L 275.5 105 L 288.5 105 L 289.5 104 Z " /><path fill="rgb(55,113,180)" stroke="rgb(55,113,180)" stroke-width="0.6" opacity="1" d="M 445 105 Q 448.8 103.5 448 106.5 Q 460.4 117.1 461 139.5 L 458 157.5 L 451 172.5 Q 434.3 200.8 413.5 225 L 412 221.5 L 441 140.5 L 445 123.5 L 445 105 Z " /><path fill="rgb(55,113,180)" stroke="rgb(55,113,180)" stroke-width="0.6" opacity="1" d="M 454 171 L 456 171.5 L 456 188.5 L 459 226.5 L 451.5 229 L 415.5 231 L 414 228.5 Q 438.1 203.2 454 171 Z " /><path fill="rgb(55,113,180)" stroke="rgb(55,113,180)" stroke-width="0.6" opacity="1" d="M 330.5 176 L 370.5 179 L 389.5 182 L 392 184.5 L 399 222.5 L 397.5 224 L 381.5 225 L 366.5 229 L 354 241.5 L 351.5 246 L 321.5 240 L 305.5 239 L 304 237.5 L 311 192.5 Q 313 182.5 320.5 178 L 323.5 177 L 327.5 178 L 330.5 176 Z " /><path fill="rgb(55,113,180)" stroke="rgb(55,113,180)" stroke-width="0.6" opacity="1" d="M 102.5 194 Q 112.1 192.9 114 199.5 Q 114.4 208.6 120.5 212 L 133.5 214 L 144.5 206 L 154.5 205 L 156 208.5 L 144.5 212 L 136.5 219 L 126.5 219 L 116.5 216 L 114 213.5 L 110 202.5 L 107.5 200 L 101 197.5 L 102.5 194 Z " /><path fill="rgb(55,113,180)" stroke="rgb(55,113,180)" stroke-width="0.6" opacity="1" d="M 169.5 205 Q 180.9 204.3 188 207 L 188 216 L 179.5 216 L 171.5 215 L 167 212.5 L 166 208.5 L 169.5 205 Z " /><path fill="rgb(55,113,180)" stroke="rgb(55,113,180)" stroke-width="0.6" opacity="1" d="M 119.5 234 L 127 235 L 121 268.5 L 117.5 276 L 109 272.5 L 119.5 234 Z " /><path fill="rgb(55,113,180)" stroke="rgb(55,113,180)" stroke-width="0.6" opacity="1" d="M 201.5 267 L 206 268 L 206 273.5 L 187 347 Q 175.6 344.7 173 352.5 L 170 363.5 L 175.5 371 L 180 372 L 178.5 375 Q 168 377 165 371.5 L 162 360.5 L 166 348.5 L 168.5 346 Q 172.4 342.7 180 344 L 184 324.5 L 189 319.5 L 189 306.5 L 199 269.5 L 201.5 267 Z " /><path fill="rgb(55,113,180)" stroke="rgb(55,113,180)" stroke-width="0.6" opacity="1" d="M 107.5 277 L 116.5 279 L 121 282.5 L 122 300.5 L 110 348.5 L 105 363.5 L 101.5 368 L 97 366.5 L 96 363.5 L 105 343.5 L 115 301.5 L 115 287.5 L 110.5 282 L 104.5 283 L 103 281.5 L 107.5 277 Z " /><path fill="rgb(55,113,180)" stroke="rgb(55,113,180)" stroke-width="0.6" opacity="1" d="M 437.5 295 L 444 300.5 L 448 308.5 L 448 313.5 L 431.5 329 L 427 329 Q 429.5 309.7 437.5 295 Z " /><path fill="rgb(55,113,180)" stroke="rgb(55,113,180)" stroke-width="0.6" opacity="1" d="M 103.5 312 L 108 314.5 L 100 345.5 L 97.5 348 Q 92.5 349.4 95 342.5 Q 100.4 331.9 101 316.5 L 103.5 312 Z " /><path fill="rgb(55,113,180)" stroke="rgb(55,113,180)" stroke-width="0.6" opacity="1" d="M 71.5 328 L 83 348.5 L 80.5 354 L 63 344.5 Q 64.5 333.5 71.5 328 Z " /><path fill="rgb(55,113,180)" stroke="rgb(55,113,180)" stroke-width="0.6" opacity="1" d="M 242.5 345 L 250.5 345 L 261 349.5 L 259.5 351 L 195.5 361 L 193 354.5 L 195.5 352 L 200.5 351 L 237.5 347 L 242.5 345 Z " /><path fill="rgb(55,113,180)" stroke="rgb(55,113,180)" stroke-width="0.6" opacity="1" d="M 403.5 347 Q 409.6 345.8 409 348.5 L 391.5 367 Q 385.6 362.4 387 350.5 L 388.5 349 L 403.5 347 Z " /><path fill="rgb(55,113,180)" stroke="rgb(55,113,180)" stroke-width="0.6" opacity="1" d="M 275.5 353 Q 284.3 351.8 287 356.5 L 288 359.5 Q 283.9 365 274 364 L 273 358.5 L 275.5 353 Z " /><path fill="rgb(55,113,180)" stroke="rgb(55,113,180)" stroke-width="0.6" opacity="1" d="M 78.5 367 Q 82 368 81 373.5 Q 71.5 382.5 65.5 395 Q 59 387.5 59 373.5 L 61.5 371 L 78.5 367 Z " /><path fill="rgb(55,113,180)" stroke="rgb(55,113,180)" stroke-width="0.6" opacity="1" d="M 190.5 386 Q 201.9 385.2 208 389 Q 209.3 392.3 204.5 391 L 196.5 392 L 186 389 Q 184.7 385.7 189.5 387 L 190.5 386 Z " /><path fill="rgb(55,113,180)" stroke="rgb(55,113,180)" stroke-width="0.6" opacity="1" d="M 183.5 390 L 198 395.5 L 193.5 397 L 184.5 394 L 182 391.5 L 183.5 390 Z " /><path fill="rgb(57,62,66)" stroke="rgb(57,62,66)" stroke-width="0.6" opacity="1" d="M 322.5 105 Q 353.4 105.1 367 122.5 L 365.5 125 L 345.5 126 L 334 134.5 L 329 146.5 L 328 164.5 L 324.5 173 Q 316.1 173.1 313 178.5 L 308 188.5 L 306 205.5 L 303.5 208 L 292.5 209 L 291 203.5 L 296 169.5 L 305 132.5 Q 310.1 115.2 322.5 105 Z " /><path fill="rgb(57,62,66)" stroke="rgb(57,62,66)" stroke-width="0.6" opacity="1" d="M 163.5 201 Q 167.9 199.5 167 202.5 Q 163 205.5 163 212.5 L 165 217 Q 160.3 217.8 159 213.5 Q 157.8 203.8 163.5 201 Z " /><path fill="rgb(57,62,66)" stroke="rgb(57,62,66)" stroke-width="0.6" opacity="1" d="M 266.5 225 L 270 225 L 270 231.5 L 267 242.5 L 264.5 245 L 253.5 248 Q 250 246 252 238.5 L 256.5 229 L 266.5 225 Z " /><path fill="rgb(57,62,66)" stroke="rgb(57,62,66)" stroke-width="0.6" opacity="1" d="M 193.5 241 L 222.5 241 L 231 246.5 L 232 255.5 L 228.5 258 L 208.5 258 L 188.5 256 L 181 252.5 Q 180 246 183.5 244 L 193.5 241 Z " /><path fill="rgb(57,62,66)" stroke="rgb(57,62,66)" stroke-width="0.6" opacity="1" d="M 291.5 243 L 314.5 243 L 323.5 246 L 346.5 248 L 351 250.5 L 348 268.5 L 346.5 270 L 327.5 268 L 305.5 262 L 296.5 262 L 256 254 L 257.5 251 L 268.5 247 L 291.5 243 Z " /><path fill="rgb(57,62,66)" stroke="rgb(57,62,66)" stroke-width="0.6" opacity="1" d="M 128 253 L 130.5 253 L 154 274.5 L 186 312.5 L 188 320.5 L 186 321.5 L 186.5 320 L 184.5 321 Q 161 290.5 133.5 264 L 127 259.5 L 128 253 Z " /><path fill="rgb(57,62,66)" stroke="rgb(57,62,66)" stroke-width="0.6" opacity="1" d="M 93.5 296 Q 106.3 294.2 111 300.5 L 108.5 309 Q 103.4 305.6 93.5 307 Q 79.7 311.7 71 321.5 Q 54.5 339.5 55 374.5 L 60 395.5 Q 64.7 405.8 73.5 412 L 83.5 417 L 94.5 418 Q 110.1 415.1 118 404.5 Q 126.5 393.5 131 378.5 Q 134.5 365.5 133 347.5 L 130 334.5 L 125.5 327 L 125 330.5 Q 128.7 334.2 128 342.5 L 114.5 351 L 113 348.5 L 120 324 L 123.5 326 L 124 323.5 Q 120.2 321.2 121 314.5 L 122 309 L 124.5 309 L 131 314.5 Q 143.5 331 142 361.5 L 140 378.5 L 134 396.5 Q 128.2 409.2 118.5 418 L 100.5 428 L 80.5 429 Q 66.1 425.9 58 416.5 Q 49.2 405.8 45 390.5 L 44 352.5 L 54 323.5 L 70.5 304 L 82.5 298 Q 90.2 299.2 93.5 296 Z " /><path fill="rgb(57,62,66)" stroke="rgb(57,62,66)" stroke-width="0.6" opacity="1" d="M 127.5 297 Q 149.6 314.6 148 355 Q 144 356.4 146 349.5 Q 142.2 344.8 144 334.5 L 139 320.5 Q 134 309.5 125 302.5 L 125 299.5 L 127.5 297 Z " /><path fill="rgb(57,62,66)" stroke="rgb(57,62,66)" stroke-width="0.6" opacity="1" d="M 236.5 315 L 246.5 315 L 252.5 318 L 262.5 319 L 319 334 L 317.5 336 Q 304.9 341.9 286.5 342 L 214 323 Q 212.8 320 216.5 321 L 236.5 315 Z " /><path fill="rgb(57,62,66)" stroke="rgb(57,62,66)" stroke-width="0.6" opacity="1" d="M 196 327 Q 199.7 325.5 199 328.5 L 201.5 331 L 226.5 338 L 229 340.5 L 227.5 344 L 191.5 349 L 191 346.5 L 196 327 Z " /><path fill="rgb(57,62,66)" stroke="rgb(57,62,66)" stroke-width="0.6" opacity="1" d="M 404.5 334 L 410 335.5 L 407.5 339 L 391.5 339 L 391 337 L 404.5 334 Z " /><path fill="rgb(57,62,66)" stroke="rgb(57,62,66)" stroke-width="0.6" opacity="1" d="M 411.5 350 L 415 352.5 L 406 386 Q 398.6 385.4 395 379.5 L 392 370.5 L 411.5 350 Z " /><path fill="rgb(57,62,66)" stroke="rgb(57,62,66)" stroke-width="0.6" opacity="1" d="M 92.5 351 L 97 353.5 L 92 359.5 L 91 367.5 L 98 372.5 L 96.5 374 L 93.5 375 L 86 370.5 L 85 360.5 L 92.5 351 Z " /><path fill="rgb(57,62,66)" stroke="rgb(57,62,66)" stroke-width="0.6" opacity="1" d="M 427.5 351 L 430 352.5 L 442 367.5 L 443 372.5 L 432.5 385 Q 426.8 386.8 429 380.5 L 424 354.5 L 427.5 351 Z " /><path fill="rgb(57,62,66)" stroke="rgb(57,62,66)" stroke-width="0.6" opacity="1" d="M 268.5 352 L 272 353.5 L 268.5 364 Q 259.9 363.1 256 357.5 Q 254.7 353.3 259.5 355 L 268.5 352 Z " /><path fill="rgb(57,62,66)" stroke="rgb(57,62,66)" stroke-width="0.6" opacity="1" d="M 106.5 369 L 125.5 373 L 128 375.5 L 119.5 395 L 105 376.5 L 104 371.5 L 106.5 369 Z " /><path fill="rgb(57,62,66)" stroke="rgb(57,62,66)" stroke-width="0.6" opacity="1" d="M 90.5 378 L 95 379.5 L 95 386.5 Q 100.2 396.3 100 411.5 Q 97 415 90.5 415 L 84 412.5 L 89 379.5 L 90.5 378 Z " /><path fill="rgb(246,190,54)" stroke="rgb(246,190,54)" stroke-width="0.6" opacity="1" d="M 282.5 96 Q 317.9 93.6 344.5 100 Q 364.5 105 375 119.5 Q 400 161 405 222.5 L 403 221.5 L 403 214.5 L 397 185.5 L 386 148.5 L 376 127.5 L 362.5 112 L 351.5 106 L 333.5 101 Q 322.6 103.4 318.5 99 L 292.5 99 L 268.5 102 L 257 110.5 L 255 122.5 L 260 140.5 L 274 176.5 L 279 200 Q 276 201.3 277 197.5 L 269 167.5 L 253 126.5 L 253 112.5 L 259.5 104 L 266.5 100 L 282.5 96 Z " /><path fill="rgb(246,190,54)" stroke="rgb(246,190,54)" stroke-width="0.6" opacity="1" d="M 76.5 191 L 91 192 Q 92.5 197.4 89.5 199 L 76.5 199 L 74 196.5 Q 73.3 191.8 76.5 191 Z " /><path fill="rgb(246,190,54)" stroke="rgb(246,190,54)" stroke-width="0.6" opacity="1" d="M 300.5 211 L 304 212.5 L 302.5 215 L 278.5 218 L 271.5 221 L 263.5 221 L 253 227.5 L 248 238.5 L 248 279.5 L 246 296.5 L 243.5 301 Q 240.8 299.8 242 294.5 L 244 288.5 L 244 238.5 Q 245.8 228.3 252.5 223 L 262.5 218 L 300.5 211 Z " /><path fill="rgb(246,190,54)" stroke="rgb(246,190,54)" stroke-width="0.6" opacity="1" d="M 123.5 222 L 128 223.5 Q 129.5 229.5 126.5 231 L 122 229.5 Q 120.5 223.5 123.5 222 Z " /><path fill="rgb(246,190,54)" stroke="rgb(246,190,54)" stroke-width="0.6" opacity="1" d="M 406.5 225 L 410 227.5 L 408.5 233 L 404 230.5 Q 403.3 225.8 406.5 225 Z " /><path fill="rgb(246,190,54)" stroke="rgb(246,190,54)" stroke-width="0.6" opacity="1" d="M 398.5 228 L 400 230.5 L 397.5 233 L 385.5 233 L 374.5 235 L 362 245.5 L 357 258.5 L 349 312.5 Q 345.2 328.2 334.5 337 L 329 339.5 L 330 343 L 319.5 344 L 299.5 350 L 281.5 350 L 216.5 332 L 204.5 328 L 200 324.5 Q 199 318 203.5 317 L 234 310 L 232.5 313 L 221.5 316 L 214.5 316 L 205 321.5 L 208.5 325 L 273.5 343 Q 283.3 346.7 298.5 345 L 322.5 339 Q 331.5 335.5 337 328.5 L 342 320.5 L 346 307.5 L 355 249.5 Q 358.2 240.2 365.5 235 L 377.5 230 L 398.5 228 Z " /><path fill="rgb(246,190,54)" stroke="rgb(246,190,54)" stroke-width="0.6" opacity="1" d="M 425.5 234 L 452.5 234 L 453 240.5 L 450 260.5 L 447.5 266 L 433.5 260 L 414.5 260 Q 389.4 265.4 377 283.5 Q 367.8 294.8 363 310.5 Q 359.6 318.1 361 330.5 L 367 335.5 L 365.5 337 L 358.5 337 L 334 342 L 335.5 340 L 345 331.5 L 353 314.5 Q 357.3 298.8 358 279.5 L 362.5 273 L 386.5 270 L 395 263.5 L 401 242.5 L 401 236.5 L 402.5 235 L 414.5 236 L 425.5 234 Z " /><path fill="rgb(246,190,54)" stroke="rgb(246,190,54)" stroke-width="0.6" opacity="1" d="M 392.5 237 L 397 238.5 L 392 259.5 L 387.5 265 L 362.5 269 L 361 265.5 L 364 251.5 L 372.5 241 L 381.5 238 L 392.5 237 Z " /><path fill="rgb(246,190,54)" stroke="rgb(246,190,54)" stroke-width="0.6" opacity="1" d="M 252.5 272 L 282.5 279 L 338.5 289 L 343 291.5 L 338 317.5 L 327.5 331 L 309.5 328 L 246 312 L 251 295.5 L 251 273.5 L 252.5 272 Z " /><path fill="rgb(246,190,54)" stroke="rgb(246,190,54)" stroke-width="0.6" opacity="1" d="M 208.5 283 L 211 284.5 L 228 305.5 Q 220.8 310.3 208.5 310 L 202.5 313 L 201 307.5 L 208.5 283 Z " /><path fill="rgb(246,190,54)" stroke="rgb(246,190,54)" stroke-width="0.6" opacity="1" d="M 85.5 315 L 87 316.5 L 87 329.5 L 83.5 340 L 75 323.5 L 85.5 315 Z " /><path fill="rgb(246,190,54)" stroke="rgb(246,190,54)" stroke-width="0.6" opacity="1" d="M 394.5 315 L 401 320.5 L 407 329.5 L 405.5 331 L 389.5 332 L 388 329.5 L 392 317.5 L 394.5 315 Z " /><path fill="rgb(246,190,54)" stroke="rgb(246,190,54)" stroke-width="0.6" opacity="1" d="M 363.5 341 L 366 342.5 L 364.5 348 L 343.5 350 L 340.5 352 L 327.5 352 L 322 351 Q 320.8 348 324.5 349 L 340.5 345 L 355.5 344 L 363.5 341 Z " /><path fill="rgb(246,190,54)" stroke="rgb(246,190,54)" stroke-width="0.6" opacity="1" d="M 433.5 343 L 450.5 343 L 452 344.5 L 446 366 L 442 363.5 L 430 348.5 L 433.5 343 Z " /><path fill="rgb(246,190,54)" stroke="rgb(246,190,54)" stroke-width="0.6" opacity="1" d="M 126.5 347 L 129 348.5 L 130 359.5 L 129 369.5 L 127.5 371 L 111.5 367 L 109 364.5 Q 109.4 357.9 113.5 355 L 126.5 347 Z " /><path fill="rgb(246,190,54)" stroke="rgb(246,190,54)" stroke-width="0.6" opacity="1" d="M 181.5 349 L 187 350.5 Q 187.9 353.5 183.5 352 L 179 354.5 L 178 363.5 L 181 367.5 L 178.5 368 L 175 365.5 L 174 356.5 L 179.5 350 L 181.5 349 Z " /><path fill="rgb(246,190,54)" stroke="rgb(246,190,54)" stroke-width="0.6" opacity="1" d="M 418.5 354 L 421 355.5 L 425 376.5 L 425 388 L 411.5 389 Q 408 388 409 382.5 L 416 357.5 L 418.5 354 Z " /><path fill="rgb(246,190,54)" stroke="rgb(246,190,54)" stroke-width="0.6" opacity="1" d="M 85.5 375 Q 88.3 376.3 87 381.5 L 82 406.5 L 79.5 411 L 70 404.5 L 67 398.5 L 85.5 375 Z " /><path fill="rgb(32,32,32)" stroke="rgb(32,32,32)" stroke-width="0.6" opacity="1" d="M 138.5 273 L 144.5 280 L 138.5 273 Z " /><path fill="rgb(32,32,32)" stroke="rgb(32,32,32)" stroke-width="0.6" opacity="1" d="M 167.5 342 L 161.5 349 L 167.5 342 Z " /><path fill="rgb(32,32,32)" stroke="rgb(32,32,32)" stroke-width="0.6" opacity="1" d="M 404.5 357 L 399.5 363 L 404.5 357 Z " /><path fill="rgb(32,32,32)" stroke="rgb(32,32,32)" stroke-width="0.6" opacity="1" d="M 382.5 394 L 387.5 400 L 382.5 394 Z " /><path fill="rgb(102,77,58)" stroke="rgb(102,77,58)" stroke-width="0.6" opacity="1" d="M 405.5 283 L 398.5 291 L 405.5 283 Z " /><path fill="rgb(67,105,112)" stroke="rgb(67,105,112)" stroke-width="0.6" opacity="1" d="M 81.5 371 L 82 373.5 L 77 377.5 L 81.5 371 Z " /><path fill="rgb(169,67,57)" stroke="rgb(169,67,57)" stroke-width="0.6" opacity="1" d="M 389.5 277 L 382.5 285 L 389.5 277 Z " /><path fill="rgb(169,67,57)" stroke="rgb(169,67,57)" stroke-width="0.6" opacity="1" d="M 400.5 282 L 394.5 289 L 400.5 282 Z " /><path fill="rgb(214,180,54)" stroke="rgb(214,180,54)" stroke-width="0.6" opacity="1" d="M 367.5 111 L 372.5 117 L 367.5 111 Z " /><path fill="rgb(224,224,224)" stroke="rgb(224,224,224)" stroke-width="0.6" opacity="1" d="M 138.5 274 L 144.5 281 L 138.5 274 Z " /><path fill="rgb(224,224,224)" stroke="rgb(224,224,224)" stroke-width="0.6" opacity="1" d="M 166.5 342 L 161.5 348 L 166.5 342 Z " /><path fill="rgb(224,224,224)" stroke="rgb(224,224,224)" stroke-width="0.6" opacity="1" d="M 381.5 394 L 387.5 401 L 381.5 394 Z " /></svg>