<svg width="627" height="627" preserveAspectRatio="xMidYMid meet" viewBox="0 0 512 512" version="1.1" xmlns="http://www.w3.org/2000/svg" ><path fill="rgb(237,237,237)" stroke="rgb(237,237,237)" stroke-width="0.6" opacity="1" d="M 0 0 L 512 0 L 512 512 L 0 512 L 0 0 Z M 221 146 L 210 150 L 202 161 L 202 173 L 207 185 L 202 184 Q 189 183 182 186 L 160 201 Q 135 222 117 251 L 115 252 L 111 247 L 98 237 L 78 233 Q 64 234 57 240 Q 42 252 40 277 L 35 279 L 28 290 L 28 308 L 30 312 L 36 317 L 50 324 L 85 336 L 136 348 L 175 353 L 195 353 L 196 352 L 204 352 L 217 361 L 239 366 Q 257 368 266 359 L 277 346 L 285 326 L 289 327 L 319 326 L 403 302 L 408 302 L 417 310 L 437 315 Q 457 318 467 309 Q 482 296 485 272 Q 487 245 476 233 Q 467 222 449 221 Q 425 218 415 228 L 408 215 Q 403 207 393 204 L 394 202 Q 397 177 387 166 L 377 158 L 360 154 L 332 154 Q 320 156 313 162 Q 299 175 295 198 L 279 204 Q 281 193 277 186 Q 272 174 264 166 L 243 150 L 229 146 L 221 146 Z " /><path fill="rgb(237,237,237)" stroke="rgb(237,237,237)" stroke-width="0.6" opacity="1" d="M 396.5 262 L 398 267 L 389 266 Q 387.7 262.7 392.5 264 L 396.5 262 Z " /><path fill="rgb(237,237,237)" stroke="rgb(237,237,237)" stroke-width="0.6" opacity="1" d="M 363.5 271 L 365 273 L 351 277 L 352.5 275 L 363.5 271 Z " /><path fill="rgb(237,237,237)" stroke="rgb(237,237,237)" stroke-width="0.6" opacity="1" d="M 358.5 279 L 361 279.5 L 351 283 Q 349.8 280 353.5 281 L 358.5 279 Z " /><path fill="rgb(237,237,237)" stroke="rgb(237,237,237)" stroke-width="0.6" opacity="1" d="M 368.5 280 L 373 281.5 Q 373.8 284.1 370.5 283 L 363.5 285 L 364.5 283 L 368.5 280 Z " /><path fill="rgb(146,96,56)" stroke="rgb(146,96,56)" stroke-width="0.6" opacity="1" d="M 218.5 151 L 230.5 151 L 240.5 154 L 257 165.5 L 260.5 170 L 263 171.5 L 273 187.5 L 274 203 L 272 204.5 L 272 206.5 L 268.5 211 L 256.5 214 Q 242.9 211.6 234 204.5 L 237.5 199 L 249.5 204 L 258.5 205 L 263 202.5 L 264 192.5 Q 259.2 179.8 249.5 172 L 232.5 162 L 220.5 161 L 216 164.5 L 215 170.5 L 224 189.5 L 220.5 192 L 213 185.5 Q 206.3 177.7 206 163.5 L 211.5 154 L 218.5 151 Z " /><path fill="rgb(146,96,56)" stroke="rgb(146,96,56)" stroke-width="0.6" opacity="1" d="M 339.5 158 Q 350.7 156.8 357.5 160 L 363.5 159 L 371.5 161 L 379 165.5 Q 381.9 172.1 381 182.5 Q 377.5 211.5 363.5 230 L 361 231.5 L 358.5 235 L 343.5 242 L 328.5 255 L 325.5 255 L 308.5 250 L 304.5 251 L 289.5 248 L 286.5 246 L 282 247 L 281.5 245 L 276.5 246 L 259.5 242 L 259 244 L 273.5 247 L 275.5 249 L 279.5 248 L 298.5 253 L 305.5 253 L 326 257.5 L 325.5 259 L 327 259.5 Q 320.6 266.3 322 280 L 277.5 272 L 264.5 268 L 258.5 268 L 240 262.5 Q 239.9 247.4 249.5 242 L 256.5 238 L 275.5 232 L 288 223.5 L 294 213.5 L 306 179.5 Q 309.5 169.5 317.5 164 Q 322.9 159.4 332.5 159 L 334.5 159 L 339.5 158 Z " /><path fill="rgb(146,96,56)" stroke="rgb(146,96,56)" stroke-width="0.6" opacity="1" d="M 231.5 188 L 236 190.5 L 236 193.5 L 231.5 199 L 226 195.5 L 231.5 188 Z " /><path fill="rgb(146,96,56)" stroke="rgb(146,96,56)" stroke-width="0.6" opacity="1" d="M 233 210 L 248.5 217 L 260.5 218 L 262.5 217 L 266 218.5 L 259.5 226 L 227.5 233 L 225.5 233 L 222.5 234 L 219 229.5 L 230 219.5 L 233 210 Z " /><path fill="rgb(146,96,56)" stroke="rgb(146,96,56)" stroke-width="0.6" opacity="1" d="M 392.5 221 L 398 228.5 L 395.5 229 L 392.5 228 L 390.5 229 L 389 226.5 L 390 222 L 392.5 221 Z " /><path fill="rgb(146,96,56)" stroke="rgb(146,96,56)" stroke-width="0.6" opacity="1" d="M 433.5 225 L 445.5 227 L 447.5 226 L 449.5 227 L 451 226.5 L 450 230 L 440 237.5 Q 432.6 246.1 429 258.5 Q 425.8 269.3 427 284.5 L 429 294.5 L 437 309.5 L 435.5 309 Q 420.1 309.4 413 301.5 L 414 299.5 L 413 298.5 L 417 294.5 L 418 282.5 L 417 279.5 L 413.5 273 L 404 270 L 403.5 268 L 402 268.5 L 405 258.5 L 405 256.5 Q 407.9 239.9 418.5 231 Q 423.7 225.7 433.5 225 Z " /><path fill="rgb(146,96,56)" stroke="rgb(146,96,56)" stroke-width="0.6" opacity="1" d="M 253.5 231 L 255 231.5 L 252.5 236 L 243.5 242 L 226.5 246 L 223 240.5 L 224 238 L 253.5 231 Z " /><path fill="rgb(146,96,56)" stroke="rgb(146,96,56)" stroke-width="0.6" opacity="1" d="M 213.5 234 L 217 235 L 229 263.5 L 229 268 Q 223.6 269.5 222 266.5 L 211 237.5 L 213.5 234 Z " /><path fill="rgb(146,96,56)" stroke="rgb(146,96,56)" stroke-width="0.6" opacity="1" d="M 396.5 249 L 402 250.5 L 398.5 258 L 354.5 269 L 343 277.5 L 335.5 294 L 329.5 295 L 329 292.5 Q 330.2 277.7 338.5 270 L 342 267.5 L 343.5 265 L 348.5 262 L 381.5 253 L 386.5 253 L 396.5 249 Z " /><path fill="rgb(146,96,56)" stroke="rgb(146,96,56)" stroke-width="0.6" opacity="1" d="M 458.5 249 Q 464.7 248.3 466 252.5 L 469 263.5 L 468 267.5 L 469 270.5 Q 468 281 462.5 287 L 461 288.5 Q 459.5 292.5 452.5 291 Q 446.4 287.4 446 279 Q 448.3 282 455.5 281 L 459 278.5 L 463 267.5 L 457.5 259 Q 451.4 260.3 452 257.5 L 451 255.5 L 458.5 249 Z " /><path fill="rgb(146,96,56)" stroke="rgb(146,96,56)" stroke-width="0.6" opacity="1" d="M 94.5 262 Q 100.7 261.3 102 265.5 L 103 272 L 97.5 271 Q 90.3 271.9 88 277.5 L 86.5 280 L 85.5 278 L 84 278.5 Q 85.8 268.3 92.5 263 L 94.5 262 Z " /><path fill="rgb(146,96,56)" stroke="rgb(146,96,56)" stroke-width="0.6" opacity="1" d="M 452.5 262 Q 457.9 260.1 457 263.5 L 459 266.5 L 458 269.5 L 459 271.5 L 455.5 277 L 450.5 278 Q 446.5 275.5 448 267.5 L 452.5 262 Z " /><path fill="rgb(146,96,56)" stroke="rgb(146,96,56)" stroke-width="0.6" opacity="1" d="M 406.5 274 L 412 277.5 Q 415 281.5 414 289.5 L 410.5 295 L 319.5 321 L 292.5 322 L 290.5 322 L 284 321 L 285 310.5 L 284 307 L 286.5 306 L 302.5 306 L 304.5 306 L 324.5 302 L 404 278 L 404.5 276 L 407 275.5 L 406.5 274 Z " /><path fill="rgb(146,96,56)" stroke="rgb(146,96,56)" stroke-width="0.6" opacity="1" d="M 297.5 280 L 324.5 285 L 326 286.5 Q 324.5 289.5 318.5 288 L 297 282.5 L 297.5 280 Z " /><path fill="rgb(146,96,56)" stroke="rgb(146,96,56)" stroke-width="0.6" opacity="1" d="M 248.5 311 Q 254 310 255 313.5 L 256 319.5 L 250.5 328 L 247.5 329 L 243 325.5 Q 241.4 315.4 246.5 312 L 248.5 311 Z " /><path fill="rgb(79,62,45)" stroke="rgb(79,62,45)" stroke-width="0.6" opacity="1" d="M 221.5 165 Q 229.4 164.1 233 167.5 L 233.5 169 L 234.5 167 Q 246.2 171.8 253 181.5 L 251.5 185 L 246.5 184 L 237.5 177 L 232.5 177 L 230.5 177 L 220 169.5 L 221.5 165 Z " /><path fill="rgb(79,62,45)" stroke="rgb(79,62,45)" stroke-width="0.6" opacity="1" d="M 382.5 170 L 386 171.5 L 389 180.5 L 388.5 182 L 390 182.5 L 389 184.5 L 390 199 Q 387 197.8 388 201.5 L 389 206 Q 386 205 387 208 L 389 208.5 L 386 225 L 384 225.5 L 385 229 L 383 229.5 L 384 233.5 L 382 241 L 380 242.5 L 381 245.5 L 379.5 250 L 376.5 249 L 373 250 L 371.5 252 L 359.5 256 L 358.5 254 L 358 256 L 354.5 255 L 347.5 259 L 345.5 258 L 344.5 261 L 343 260.5 L 341.5 262 L 338 263 L 336.5 265 L 332 273 L 330 273.5 L 330 275.5 L 328 281 L 326 280.5 L 326 271.5 L 328.5 265 L 330 263.5 L 329 261.5 L 332.5 256 L 334 256.5 L 339.5 249 L 342.5 247 L 344 247.5 L 345.5 246 L 349.5 243 L 351 243.5 L 351.5 242 L 353.5 242 L 356.5 240 L 362 238 L 370 226 L 372 224.5 L 373 221.5 L 379 205.5 L 381 194 L 383 192.5 L 381 185.5 L 383 185 L 381 171.5 L 382.5 170 Z " /><path fill="rgb(79,62,45)" stroke="rgb(79,62,45)" stroke-width="0.6" opacity="1" d="M 233.5 181 L 237.5 181 L 243 185.5 L 243 189.5 L 242.5 192 L 240 191.5 L 237.5 187 L 231 184.5 L 231.5 182 L 233.5 181 Z " /><path fill="rgb(79,62,45)" stroke="rgb(79,62,45)" stroke-width="0.6" opacity="1" d="M 458 229 L 463 229 L 464.5 231 L 466.5 231 L 471 233.5 L 470.5 235 Q 473.8 233.9 473 236.5 L 474.5 240 L 476 239.5 L 479 246.5 L 477 247.5 L 479 248 Q 482.1 256.6 481 270.5 L 478 284 L 476 284.5 L 477 286.5 L 470.5 299 L 469 298.5 L 464.5 305 L 455.5 310 L 446.5 310 Q 439.3 308.2 436 302.5 L 431 291.5 L 431 287.5 L 432 284 L 430 283.5 L 430 271 Q 433.7 272.2 432 267 L 430 266.5 L 433 255 L 436 253.5 L 435 250.5 L 436 248 L 438 246.5 L 440 242.5 L 449.5 232 L 455.5 230 L 458 231 L 458 229 Z M 457 245 L 455 248 L 449 253 L 448 254 L 448 256 L 447 255 L 444 263 Q 445 267 443 266 L 443 268 Q 444 271 441 270 L 441 280 Q 444 279 443 283 L 443 284 L 446 288 L 445 290 L 454 295 L 464 292 L 467 286 L 469 284 L 472 271 L 471 257 L 471 255 L 466 248 Q 464 243 463 246 L 457 245 Z " /><path fill="rgb(79,62,45)" stroke="rgb(79,62,45)" stroke-width="0.6" opacity="1" d="M 70 238 L 82.5 238 Q 81.9 240.8 85 240 L 85.5 238 L 88 239 Q 87 242 90 241 L 90 244 Q 82.5 244.8 79 250.5 L 71 269 L 69 270.5 L 69.5 272 L 68 273.5 L 69 277 L 67 278.5 L 68 285 Q 64.3 283.8 66 289 L 63.5 289 L 57.5 286 L 55.5 286 L 46 283 L 45.5 281 L 44 281.5 L 46 265 L 48 264.5 L 46 263.5 Q 50.3 249.8 60.5 242 L 66.5 239 L 70 240 L 70 238 Z " /><path fill="rgb(79,62,45)" stroke="rgb(79,62,45)" stroke-width="0.6" opacity="1" d="M 234.5 247 L 237 250.5 L 236.5 252 L 238 252.5 L 234.5 262 L 231 260.5 L 230 258.5 L 231 255.5 L 228 253.5 L 230.5 248 L 231.5 250 L 232 248 L 234.5 247 Z " /><path fill="rgb(79,62,45)" stroke="rgb(79,62,45)" stroke-width="0.6" opacity="1" d="M 175.5 270 L 178.5 271 L 180.5 270 L 189 273 L 190.5 275 L 193.5 274 L 206 278.5 L 207.5 280 L 206 282.5 L 199.5 292 L 197.5 292 L 180 288 Q 181.3 285 177.5 286 L 171 284 L 170.5 286 L 167 284.5 L 167 282.5 L 167 279.5 L 175.5 270 Z " /><path fill="rgb(79,62,45)" stroke="rgb(79,62,45)" stroke-width="0.6" opacity="1" d="M 270 274 L 273.5 276 L 278.5 275 L 285.5 278 L 288 278.5 L 285.5 282 L 273 279 Q 274.1 275.7 270 277 L 270 274 Z " /><path fill="rgb(79,62,45)" stroke="rgb(79,62,45)" stroke-width="0.6" opacity="1" d="M 96.5 275 L 98 276.5 L 99 276.5 L 99.5 275 L 102 279.5 L 95 283.5 L 96 284.5 L 91.5 289 L 90 289.5 L 91 290.5 L 86.5 295 L 84.5 294 L 82.5 294 L 80 292.5 L 81.5 290 L 82.5 291 L 86 287.5 L 89.5 282 L 95 277.5 L 96.5 275 Z " /><path fill="rgb(79,62,45)" stroke="rgb(79,62,45)" stroke-width="0.6" opacity="1" d="M 36.5 283 L 40.5 283 L 47 287 Q 45.8 290 49.5 289 L 51.5 289 L 59 291 L 59.5 293 L 60.5 291 L 72 295 L 73.5 297 L 75.5 296 L 104 304 L 105.5 306 L 108 305 L 108.5 307 L 109.5 305 L 128 310 L 128.5 312 L 133.5 311 L 144 313 L 144.5 315 L 148.5 314 L 166.5 318 L 168 317.5 L 168.5 319 L 171.5 318 L 173.5 319 L 175 318.5 L 176.5 320 L 179.5 319 L 181.5 320 L 183 319.5 Q 182.2 322.9 187 321 L 187.5 319 L 188.5 320 L 203.5 320 L 207 322 Q 211.1 326.7 210 337.5 L 209 342.5 L 206.5 345 Q 202.7 349.2 193.5 348 L 192.5 347 L 177.5 347 L 172.5 348 L 170.5 347 L 165.5 348 L 149 346 L 147.5 344 L 143 345 L 142.5 343 L 137.5 344 L 122 341 L 121.5 339 L 117.5 340 L 82.5 331 L 55.5 322 L 38.5 314 L 34 309.5 Q 30.4 304.1 32 293.5 L 35 286.5 Q 32.2 284.7 36.5 283 Z " /><path fill="rgb(79,62,45)" stroke="rgb(79,62,45)" stroke-width="0.6" opacity="1" d="M 316.5 292 L 317.5 294 L 318.5 292 L 323 293 L 321.5 298 Q 310.1 303.1 293.5 303 L 285.5 301 L 283 300.5 L 284.5 298 L 293.5 297 L 296 298 Q 294.8 295 298.5 296 L 301 297 Q 299.6 293.3 305.5 295 L 316.5 292 Z " /><path fill="rgb(79,62,45)" stroke="rgb(79,62,45)" stroke-width="0.6" opacity="1" d="M 157.5 296 L 174 301.5 L 175 303.5 L 152.5 309 L 150 303.5 L 154.5 297 L 157 298 L 157.5 296 Z " /><path fill="rgb(79,62,45)" stroke="rgb(79,62,45)" stroke-width="0.6" opacity="1" d="M 253.5 298 Q 262.9 296.6 265 302.5 L 264 304.5 L 267 306 L 268 320.5 L 267 325 L 265 326.5 L 266 328.5 L 264 332.5 L 260.5 338 L 258 338.5 L 258.5 340 Q 255.7 343.7 248.5 343 L 245 341.5 L 246 340.5 L 241 335.5 L 240 330.5 L 242.5 329 Q 244.2 332.8 251.5 331 L 256 327.5 L 258 324.5 L 258 322.5 Q 259.6 312.4 254.5 309 L 247 308 L 245.5 306 L 246 304.5 L 246.5 303 Q 248.3 305.7 250 301.5 L 249.5 300 L 253.5 298 Z " /><path fill="rgb(79,62,45)" stroke="rgb(79,62,45)" stroke-width="0.6" opacity="1" d="M 193.5 303 L 193.5 305 Q 196.5 304.1 195 308.5 Q 186.6 314.6 171.5 314 L 169.5 313 L 165 314 Q 162.4 307.3 168.5 309 L 181.5 306 L 183 306.5 Q 182.1 303.5 186.5 305 L 193.5 303 Z " /><path fill="rgb(214,174,112)" stroke="rgb(214,174,112)" stroke-width="0.6" opacity="1" d="M 188.5 189 L 190.5 189 L 198.5 190 L 200.5 189 Q 211.7 190.8 219 196.5 Q 217.7 207.7 210.5 213 L 199 222.5 L 197.5 224 L 191.5 231 L 165 256.5 Q 143.7 277.7 129.5 306 L 102 299 L 101 293.5 L 107 277.5 L 117 258.5 L 135.5 233 L 137 231.5 L 138 229 L 140 229 L 142 225.5 L 147.5 219 L 151 218 L 162.5 205 L 180.5 192 L 188.5 189 Z " /><path fill="rgb(214,174,112)" stroke="rgb(214,174,112)" stroke-width="0.6" opacity="1" d="M 247.5 194 Q 255.1 192.9 258 196.5 L 256 197 L 254.5 199 L 251.5 200 Q 248.8 194.6 246 196.5 L 247.5 194 Z " /><path fill="rgb(214,174,112)" stroke="rgb(214,174,112)" stroke-width="0.6" opacity="1" d="M 221 202 L 223.5 203 Q 225.2 200.3 227 204.5 L 226 213.5 L 227 214.5 L 222 219.5 L 220.5 221 L 203 236.5 L 200.5 240 L 196 242 L 189.5 250 L 188 251.5 L 178 260.5 Q 157.3 279.8 143.5 306 L 137.5 308 L 134 307 L 144 287 L 146 285.5 L 151.5 278 L 154 276.5 L 160.5 267 L 164 264.5 L 167.5 259 L 171 256.5 L 195.5 231 L 216 212.5 L 221 202 Z " /><path fill="rgb(214,174,112)" stroke="rgb(214,174,112)" stroke-width="0.6" opacity="1" d="M 290.5 204 L 291 206.5 Q 287.4 217.4 279.5 224 L 267 229 L 266 225.5 L 270 222.5 L 282.5 208 L 290.5 204 Z " /><path fill="rgb(214,174,112)" stroke="rgb(214,174,112)" stroke-width="0.6" opacity="1" d="M 394.5 210 L 403 215.5 L 409 232 L 411 232.5 Q 410.3 235.8 405.5 235 L 402 225.5 L 396 217 L 392 216 L 394.5 210 Z " /><path fill="rgb(214,174,112)" stroke="rgb(214,174,112)" stroke-width="0.6" opacity="1" d="M 388 234 Q 398 232.2 401 238.5 L 400 241 L 397.5 242 L 387 238.5 L 388 234 Z " /><path fill="rgb(214,174,112)" stroke="rgb(214,174,112)" stroke-width="0.6" opacity="1" d="M 206.5 242 L 209 247.5 L 203.5 249 Q 199 247 202.5 245 L 205.5 243 L 206.5 242 Z " /><path fill="rgb(214,174,112)" stroke="rgb(214,174,112)" stroke-width="0.6" opacity="1" d="M 93.5 245 L 100.5 245 L 106 248 Q 104.5 251.7 107.5 251 L 111 256.5 L 111 259.5 L 108 266 L 106 264.5 L 100.5 258 L 92.5 258 L 85 264.5 L 81 271.5 L 79 284 L 77 284.5 L 79 285 L 75.5 290 L 73.5 291 Q 70 290 71 284.5 L 74 267.5 L 82.5 253 L 84 251.5 L 93.5 245 Z " /><path fill="rgb(214,174,112)" stroke="rgb(214,174,112)" stroke-width="0.6" opacity="1" d="M 207.5 254 L 209.5 255 L 211.5 254 L 217 265.5 L 217 269.5 L 215 274 L 211.5 275 L 182 267 L 182 264.5 L 188.5 258 L 194.5 258 L 207.5 254 Z " /><path fill="rgb(214,174,112)" stroke="rgb(214,174,112)" stroke-width="0.6" opacity="1" d="M 377.5 270 L 385.5 270 L 397 273.5 L 394 274.5 L 392.5 277 L 382.5 278 L 377.5 277 L 375 274.5 L 374 271 L 377.5 270 Z " /><path fill="rgb(214,174,112)" stroke="rgb(214,174,112)" stroke-width="0.6" opacity="1" d="M 230.5 273 L 250 275 Q 251.3 278 247.5 277 L 231 289.5 L 221 308.5 L 221 315.5 L 218 322.5 L 219 323.5 L 219 338.5 L 227 357 Q 231.1 355.7 230 359 L 225.5 357 L 223.5 357 Q 213.6 356.4 209 350.5 Q 216.9 343.4 214 325.5 L 207.5 317 L 199.5 316 L 198 314.5 Q 200.6 290.6 215.5 279 L 230.5 273 Z " /><path fill="rgb(214,174,112)" stroke="rgb(214,174,112)" stroke-width="0.6" opacity="1" d="M 256.5 279 L 263.5 280 L 272 286.5 Q 280.3 296.7 280 315.5 L 279 325.5 L 275 338.5 L 264.5 353 L 252.5 360 L 243.5 361 L 238.5 360 L 230 352.5 L 224 339.5 L 224 337.5 Q 222 320.5 226 309.5 Q 230.6 294.1 241.5 285 L 249.5 280 L 256.5 279 Z M 255 293 L 248 297 L 238 308 L 235 318 L 235 334 L 238 340 L 248 347 Q 257 347 262 342 Q 270 335 272 322 L 272 310 L 268 301 Q 264 294 255 293 Z " /><path fill="rgb(214,174,112)" stroke="rgb(214,174,112)" stroke-width="0.6" opacity="1" d="M 289.5 286 L 294.5 288 L 306 289 Q 307.1 292.5 299.5 291 L 282 294 L 280 289.5 L 289.5 286 Z " /><path fill="rgb(214,174,112)" stroke="rgb(214,174,112)" stroke-width="0.6" opacity="1" d="M 162.5 289 L 192 295 L 193 299 L 188.5 300 L 182.5 297 L 180.5 298 L 163.5 294 L 160 291.5 L 162.5 289 Z " /><path fill="rgb(10,10,10)" stroke="rgb(10,10,10)" stroke-width="0.6" opacity="1" d="M 220.5 147 L 233.5 148 L 244.5 152 Q 257.8 159.2 267 170.5 L 277 188.5 L 278 202.5 L 271.5 213 Q 266.2 218.7 253.5 217 Q 241.5 214.5 233.5 208 Q 230 211 230 217.5 L 222.5 226 L 218 229.5 L 221.5 235 L 256.5 228 L 262 224.5 L 267.5 218 L 277 210.5 L 278 206 Q 283.3 201 293.5 200 L 296 197.5 L 306 171.5 L 316.5 160 L 326.5 156 L 355.5 155 L 366.5 156 L 378.5 160 L 389 169.5 L 391 173.5 L 391 178.5 L 393 180.5 L 393 200.5 L 392 203.5 L 400.5 208 L 407 214.5 L 411 225.5 L 414.5 230 Q 423.9 218.9 447.5 222 L 465.5 226 L 477 235.5 L 483 249.5 L 484 258.5 L 483 267.5 L 484 272.5 L 479 290.5 L 468.5 306 Q 462.8 311.8 453.5 314 L 436.5 314 L 421.5 311 Q 411.7 307.3 405.5 300 L 323.5 324 Q 309.3 327.8 289.5 326 L 283.5 325 L 281 328.5 L 281 333.5 L 277 343.5 L 266.5 357 L 254.5 364 L 238.5 365 L 219.5 361 Q 209.5 358 203.5 351 L 196.5 351 L 195.5 352 L 172.5 352 L 129.5 346 L 74.5 332 L 49.5 323 L 35.5 316 L 31 311.5 L 29 307.5 L 29 289.5 L 34.5 280 L 41 277.5 Q 42.3 253.8 55.5 242 L 65.5 236 L 82.5 235 Q 99.7 236.3 109 245.5 L 114.5 254 Q 133.9 224.9 159.5 202 L 179.5 188 L 184.5 186 L 197.5 185 L 208.5 187 Q 211.8 185.3 208 183.5 Q 201.1 176.4 203 160.5 L 208.5 152 L 220.5 147 Z M 226 149 L 215 151 L 212 153 Q 206 156 205 164 L 207 177 L 211 185 L 220 192 Q 225 193 226 189 Q 219 182 216 171 L 217 165 L 221 162 L 230 162 L 245 169 L 247 173 L 251 174 Q 259 181 263 193 Q 265 202 260 204 L 249 203 L 238 198 L 233 205 Q 240 211 251 214 Q 263 216 269 212 L 274 206 L 276 195 L 274 188 L 266 174 Q 257 162 245 155 L 236 151 L 230 151 L 226 149 Z M 333 157 L 318 163 L 307 175 L 293 214 L 287 223 L 274 232 L 257 237 L 250 241 Q 240 247 239 262 L 243 265 L 251 267 L 322 281 L 323 280 L 324 267 L 327 260 L 327 258 Q 339 243 359 236 Q 368 230 372 218 L 374 217 L 368 230 L 360 238 L 341 248 Q 329 256 325 272 Q 323 280 327 282 L 334 270 L 337 268 L 338 266 L 348 259 L 379 251 L 384 239 L 391 194 L 390 178 L 388 173 L 375 161 L 362 159 L 359 157 L 356 158 L 352 157 L 338 157 L 337 158 L 333 157 Z M 225 164 L 221 165 L 219 170 L 231 179 L 233 178 Q 244 177 247 185 Q 253 187 255 184 L 254 182 Q 244 168 225 164 Z M 222 177 L 227 183 L 228 181 L 222 177 Z M 234 180 L 229 184 L 229 186 L 236 186 Q 240 187 239 194 Q 242 198 244 192 Q 245 185 242 183 L 234 180 Z M 190 187 Q 171 194 159 207 Q 133 230 115 260 L 105 278 L 99 299 L 107 302 L 127 307 L 132 306 Q 135 310 143 310 L 146 307 L 152 294 L 174 267 L 192 249 L 195 248 L 196 246 L 222 223 L 230 212 L 229 206 L 226 201 L 217 193 L 200 187 L 198 188 L 190 187 Z M 232 187 L 230 188 L 225 194 L 231 201 L 237 194 L 237 191 L 232 187 Z M 248 187 L 246 189 L 248 191 L 258 191 L 259 190 Q 257 185 248 187 Z M 247 193 L 244 198 Q 249 202 260 201 L 261 196 L 259 193 L 247 193 Z M 292 203 L 282 207 L 264 226 L 261 233 L 282 225 L 293 207 L 292 203 Z M 394 208 Q 390 209 391 216 L 397 220 L 407 241 L 412 234 L 406 218 L 398 209 L 394 208 Z M 391 220 L 388 228 L 391 230 L 396 231 L 399 230 L 396 224 L 391 220 Z M 433 224 L 420 229 Q 403 242 401 270 L 412 273 L 417 281 L 417 292 L 411 301 L 417 306 L 436 311 Q 441 312 443 309 L 450 311 L 452 311 Q 460 310 465 306 Q 480 293 482 268 L 480 247 L 475 238 Q 471 229 461 228 L 459 229 L 450 225 L 433 224 Z M 256 230 L 227 236 L 222 239 Q 222 244 226 246 L 244 243 L 255 236 L 258 232 L 256 230 Z M 213 232 L 210 237 L 211 244 Q 217 251 219 263 L 225 270 Q 230 271 231 268 L 217 234 L 213 232 Z M 389 232 L 385 239 L 388 241 L 400 244 L 403 243 L 401 236 L 398 233 L 389 232 Z M 71 237 L 65 239 L 52 249 L 45 266 L 44 282 L 49 285 L 65 290 L 68 290 L 68 284 Q 71 283 70 291 L 76 293 L 81 288 Q 80 274 85 268 L 88 266 L 83 279 L 85 283 L 88 281 L 79 293 Q 80 297 87 296 L 92 290 L 94 291 L 90 296 Q 91 299 96 298 L 98 290 L 98 287 L 94 289 L 96 285 L 100 283 L 103 279 L 102 275 Q 93 274 92 279 L 89 279 L 90 277 L 97 272 L 101 273 L 104 272 Q 104 263 99 261 Q 93 260 92 263 L 90 262 Q 92 258 100 259 L 107 269 L 112 261 L 110 252 L 104 245 L 95 240 Q 88 241 86 237 L 71 237 Z M 205 241 L 196 249 Q 191 251 195 253 Q 205 253 211 249 L 210 244 Q 209 240 205 241 Z M 386 243 L 383 247 L 385 249 L 392 247 Q 395 248 394 245 L 386 243 Z M 239 246 L 230 248 L 227 251 L 231 261 L 236 262 L 238 259 Q 237 251 240 249 L 239 246 Z M 402 247 L 356 259 L 344 264 L 333 276 L 327 293 L 329 297 L 336 295 L 344 278 L 352 271 L 400 258 L 403 250 L 402 247 Z M 211 252 L 188 257 Q 181 260 180 268 L 209 276 L 214 276 L 220 272 L 214 255 L 211 252 Z M 397 261 L 389 264 Q 383 263 385 267 L 398 269 L 400 264 L 397 261 Z M 235 265 L 233 267 L 236 269 Q 250 270 262 274 L 274 280 L 285 282 L 295 282 L 301 285 L 325 289 L 326 286 L 325 284 L 295 279 L 235 265 Z M 377 267 L 371 276 L 386 280 L 397 277 L 399 274 L 397 271 L 377 267 Z M 177 269 L 164 284 L 166 285 L 200 293 L 209 280 L 207 277 L 177 269 Z M 368 269 L 352 274 Q 346 277 350 279 L 363 275 L 370 271 L 368 269 Z M 227 272 L 218 276 Q 199 288 197 316 L 199 317 L 207 318 L 213 328 Q 216 344 207 350 Q 215 359 231 360 L 233 360 Q 226 355 223 346 L 225 344 L 229 354 Q 233 360 243 362 Q 255 363 262 357 L 274 344 L 280 330 Q 279 321 282 317 L 280 300 L 273 286 L 263 278 L 256 278 L 254 275 Q 244 270 227 272 Z M 403 273 Q 399 275 403 277 L 383 284 L 313 304 L 284 305 L 283 321 L 288 323 L 297 324 L 314 323 L 329 320 L 411 296 Q 415 294 415 289 L 414 279 Q 410 274 403 273 Z M 366 275 Q 358 280 346 281 L 344 284 L 345 286 L 365 280 L 367 277 L 366 275 Z M 369 279 L 360 285 L 344 288 L 341 291 L 343 293 L 377 283 L 378 280 L 369 279 Z M 39 281 L 37 282 L 33 286 L 31 295 Q 30 304 33 310 L 45 318 L 60 323 Q 61 326 63 324 L 88 333 L 129 343 L 174 349 L 203 348 L 210 343 L 210 326 L 208 322 L 205 320 L 180 319 L 165 317 L 162 315 L 160 316 L 142 313 L 138 311 L 132 311 L 82 298 L 50 288 L 39 281 Z M 288 285 L 278 289 L 282 295 L 308 291 Q 311 292 310 289 L 296 285 L 288 285 Z M 162 286 L 157 293 L 187 301 L 197 300 L 199 297 L 196 294 L 162 286 Z M 315 292 L 287 297 L 282 300 L 285 303 L 305 303 L 322 299 L 325 294 Q 323 290 315 292 Z M 155 296 L 147 308 L 149 310 L 178 304 L 179 301 L 155 296 Z M 194 302 L 159 310 L 157 313 L 168 315 L 178 315 L 193 311 Q 197 310 196 304 L 194 302 Z " /><path fill="rgb(10,10,10)" stroke="rgb(10,10,10)" stroke-width="0.6" opacity="1" d="M 208.5 216 L 210 216.5 L 203.5 222 L 208.5 216 Z " /><path fill="rgb(10,10,10)" stroke="rgb(10,10,10)" stroke-width="0.6" opacity="1" d="M 196.5 227 L 198 227.5 L 188.5 236 L 196.5 227 Z " /><path fill="rgb(10,10,10)" stroke="rgb(10,10,10)" stroke-width="0.6" opacity="1" d="M 456.5 247 Q 460.3 246 459 249 L 456.5 249 L 450 255.5 L 448 261 L 455 259 Q 456.3 262 452.5 261 Q 445.9 263.4 447 273.5 L 452 279.5 L 449.5 280 L 445 277 Q 444.8 286.4 450.5 291 L 457.5 292 L 465 285.5 L 466.5 283 L 467 285.5 L 461.5 292 L 452.5 294 L 447 290.5 Q 441.7 283.3 443 269.5 Q 444.9 254.9 454.5 248 L 456.5 247 Z " /><path fill="rgb(10,10,10)" stroke="rgb(10,10,10)" stroke-width="0.6" opacity="1" d="M 461 247 L 467 249.5 L 468 252.5 L 463.5 249 Q 459.8 250 461 247 Z " /><path fill="rgb(10,10,10)" stroke="rgb(10,10,10)" stroke-width="0.6" opacity="1" d="M 83.5 248 L 85 248.5 L 76.5 259 L 77 257.5 L 83.5 248 Z " /><path fill="rgb(10,10,10)" stroke="rgb(10,10,10)" stroke-width="0.6" opacity="1" d="M 169.5 254 L 170 255.5 L 164 260.5 L 169.5 254 Z " /><path fill="rgb(10,10,10)" stroke="rgb(10,10,10)" stroke-width="0.6" opacity="1" d="M 243.5 281 L 242.5 283 L 235 289.5 L 228.5 299 L 229 297.5 Q 231.8 288.8 238.5 284 L 243.5 281 Z " /><path fill="rgb(10,10,10)" stroke="rgb(10,10,10)" stroke-width="0.6" opacity="1" d="M 254.5 295 Q 262.8 294.8 266 299.5 L 269 308 Q 266 309.3 267 305.5 L 260.5 298 L 254.5 297 L 245 304.5 L 241 311.5 L 242.5 313 L 246.5 309 L 251.5 308 L 257 312.5 L 256.5 315 L 253.5 311 L 248.5 310 L 243 314.5 L 241 324 L 239 324.5 L 239 332.5 L 245.5 342 L 254.5 343 L 263 335.5 L 266 328 L 268 329.5 L 258.5 343 L 249.5 346 L 241 341.5 Q 234.7 333.8 237 317.5 Q 239.6 303.6 249.5 297 L 254.5 295 Z " /><path fill="rgb(10,10,10)" stroke="rgb(10,10,10)" stroke-width="0.6" opacity="1" d="M 433.5 299 L 441 307.5 L 439.5 308 L 433 300.5 L 433.5 299 Z " /><path fill="rgb(10,10,10)" stroke="rgb(10,10,10)" stroke-width="0.6" opacity="1" d="M 226.5 302 L 227 304.5 L 225 311 L 223 309.5 L 226.5 302 Z " /><path fill="rgb(10,10,10)" stroke="rgb(10,10,10)" stroke-width="0.6" opacity="1" d="M 241 325 L 243 326.5 Q 244.3 330 249 329 Q 250.3 332 246.5 331 L 241 326.5 L 241 325 Z " /><path fill="rgb(29,30,31)" stroke="rgb(29,30,31)" stroke-width="0.6" opacity="1" d="M 379 193 Q 382 191.8 381 195.5 L 379 203 L 377 202.5 L 379 193 Z " /><path fill="rgb(29,30,31)" stroke="rgb(29,30,31)" stroke-width="0.6" opacity="1" d="M 276.5 206 L 277 208.5 L 278 211.5 L 276 212.5 L 275.5 210 L 274 209.5 L 276.5 206 Z " /><path fill="rgb(29,30,31)" stroke="rgb(29,30,31)" stroke-width="0.6" opacity="1" d="M 375.5 208 L 377 210.5 L 374.5 217 L 372 216.5 L 375.5 208 Z " /><path fill="rgb(29,30,31)" stroke="rgb(29,30,31)" stroke-width="0.6" opacity="1" d="M 202.5 222 L 204 222.5 L 197.5 227 L 198.5 225 L 202.5 222 Z " /><path fill="rgb(29,30,31)" stroke="rgb(29,30,31)" stroke-width="0.6" opacity="1" d="M 419.5 229 L 413.5 236 L 419.5 229 Z " /><path fill="rgb(29,30,31)" stroke="rgb(29,30,31)" stroke-width="0.6" opacity="1" d="M 451.5 229 L 453 231 L 450.5 232 L 449 231.5 L 446.5 235 Q 443.5 233.5 446.5 232 L 451.5 229 Z " /><path fill="rgb(29,30,31)" stroke="rgb(29,30,31)" stroke-width="0.6" opacity="1" d="M 187.5 236 L 189 236.5 L 170 254.5 L 174.5 248 L 178 245.5 L 182.5 240 L 187.5 236 Z " /><path fill="rgb(29,30,31)" stroke="rgb(29,30,31)" stroke-width="0.6" opacity="1" d="M 436.5 244 L 437 246.5 L 435.5 250 L 434.5 248 L 436 247.5 L 435.5 246 L 437 245.5 L 436.5 244 Z " /><path fill="rgb(29,30,31)" stroke="rgb(29,30,31)" stroke-width="0.6" opacity="1" d="M 431 255 L 433 256.5 L 431 263 L 429 262.5 L 431 255 Z " /><path fill="rgb(29,30,31)" stroke="rgb(29,30,31)" stroke-width="0.6" opacity="1" d="M 76.5 256 L 77 257.5 L 76.5 260 L 75 260.5 L 75.5 262 L 74 262.5 L 74.5 264 L 73 264.5 L 74 266.5 L 71 276 L 69 275.5 Q 71 264 76.5 256 Z " /><path fill="rgb(29,30,31)" stroke="rgb(29,30,31)" stroke-width="0.6" opacity="1" d="M 455.5 259 L 460 262.5 L 461 268 Q 457.7 269.3 459 264.5 L 455 260.5 L 455.5 259 Z " /><path fill="rgb(29,30,31)" stroke="rgb(29,30,31)" stroke-width="0.6" opacity="1" d="M 163.5 260 L 164 261.5 L 159.5 267 L 159 265.5 L 163.5 260 Z " /><path fill="rgb(29,30,31)" stroke="rgb(29,30,31)" stroke-width="0.6" opacity="1" d="M 469.5 261 L 472 261.5 L 472 269.5 L 471 272 L 469 271.5 L 470 262.5 L 469.5 261 Z " /><path fill="rgb(29,30,31)" stroke="rgb(29,30,31)" stroke-width="0.6" opacity="1" d="M 89.5 262 L 90 264.5 L 88.5 267 L 87.5 265 L 85 266.5 L 89.5 262 Z " /><path fill="rgb(29,30,31)" stroke="rgb(29,30,31)" stroke-width="0.6" opacity="1" d="M 151.5 274 L 152 275.5 L 141.5 290 L 141 288.5 L 151.5 274 Z " /><path fill="rgb(29,30,31)" stroke="rgb(29,30,31)" stroke-width="0.6" opacity="1" d="M 240.5 282 L 242 283.5 L 235.5 290 L 240.5 282 Z " /><path fill="rgb(29,30,31)" stroke="rgb(29,30,31)" stroke-width="0.6" opacity="1" d="M 95.5 285 L 94 287.5 L 95 290.5 L 93 291.5 L 93.5 290 L 92 288.5 L 95.5 285 Z " /><path fill="rgb(29,30,31)" stroke="rgb(29,30,31)" stroke-width="0.6" opacity="1" d="M 80.5 287 L 75.5 293 L 74 292.5 L 80.5 287 Z " /><path fill="rgb(29,30,31)" stroke="rgb(29,30,31)" stroke-width="0.6" opacity="1" d="M 429.5 291 L 432 292.5 L 434 298.5 L 432 299.5 L 429.5 291 Z " /><path fill="rgb(29,30,31)" stroke="rgb(29,30,31)" stroke-width="0.6" opacity="1" d="M 282.5 299 L 284.5 302 L 290 302.5 L 284.5 303 L 282.5 299 Z " /><path fill="rgb(29,30,31)" stroke="rgb(29,30,31)" stroke-width="0.6" opacity="1" d="M 283.5 310 L 285 321.5 L 283 320.5 L 283.5 310 Z " /><path fill="rgb(29,30,31)" stroke="rgb(29,30,31)" stroke-width="0.6" opacity="1" d="M 256 320 Q 259 318.8 258 322.5 L 257 325 L 255 325.5 L 255.5 327 L 252 327.5 Q 256 325.3 256 320 Z " /><path fill="rgb(53,53,51)" stroke="rgb(53,53,51)" stroke-width="0.6" opacity="1" d="M 259.5 162 L 265.5 169 L 259.5 162 Z " /><path fill="rgb(53,53,51)" stroke="rgb(53,53,51)" stroke-width="0.6" opacity="1" d="M 233.5 180 L 236 180.5 L 230 183.5 L 229.5 185 L 229 183.5 L 233.5 180 Z " /><path fill="rgb(53,53,51)" stroke="rgb(53,53,51)" stroke-width="0.6" opacity="1" d="M 152.5 208 L 144.5 217 L 152.5 208 Z " /><path fill="rgb(53,53,51)" stroke="rgb(53,53,51)" stroke-width="0.6" opacity="1" d="M 202.5 221 L 202 224.5 L 197.5 229 L 200 225.5 L 199 224.5 L 202.5 221 Z " /><path fill="rgb(53,53,51)" stroke="rgb(53,53,51)" stroke-width="0.6" opacity="1" d="M 188.5 234 L 183.5 240 L 188.5 234 Z " /><path fill="rgb(53,53,51)" stroke="rgb(53,53,51)" stroke-width="0.6" opacity="1" d="M 94.5 241 L 99 243.5 L 91.5 245 L 90.5 243 L 94.5 241 Z " /><path fill="rgb(53,53,51)" stroke="rgb(53,53,51)" stroke-width="0.6" opacity="1" d="M 427 273 L 430 273 L 430 282 L 428 280.5 L 427 273 Z " /><path fill="rgb(53,53,51)" stroke="rgb(53,53,51)" stroke-width="0.6" opacity="1" d="M 140.5 289 L 141 291.5 L 138 293.5 L 138.5 295 L 137 295.5 L 136.5 298 L 137 294.5 L 140.5 289 Z " /><path fill="rgb(53,53,51)" stroke="rgb(53,53,51)" stroke-width="0.6" opacity="1" d="M 178.5 313 L 182 313.5 Q 177.1 316.1 168.5 315 L 168.5 314 L 178.5 313 Z " /><path fill="rgb(80,78,71)" stroke="rgb(80,78,71)" stroke-width="0.6" opacity="1" d="M 269.5 273 L 270 277 Q 274.1 275.7 273 279 L 268 278 Q 269.3 275 265.5 276 L 265.5 275 L 267.5 274 L 269 274.5 L 269.5 273 Z " /><path fill="rgb(80,78,71)" stroke="rgb(80,78,71)" stroke-width="0.6" opacity="1" d="M 171 284 L 180 286 L 178.5 288 L 171 286 L 171 284 Z " /><path fill="rgb(202,167,108)" stroke="rgb(202,167,108)" stroke-width="0.6" opacity="1" d="M 246.5 194 L 246 195.5 L 246.5 197 Q 248.3 194.3 250 198.5 L 248.5 199 L 245 196.5 L 246.5 194 Z " /><path fill="rgb(202,167,108)" stroke="rgb(202,167,108)" stroke-width="0.6" opacity="1" d="M 254.5 194 L 260 195 L 258.5 200 L 254 199.5 L 256 199 L 257.5 197 L 256.5 195 L 254.5 194 Z " /><path fill="rgb(202,167,108)" stroke="rgb(202,167,108)" stroke-width="0.6" opacity="1" d="M 222.5 198 L 227 203.5 L 222.5 202 L 221 203.5 L 220 203.5 L 220 200 Q 222.8 201 222.5 198 Z " /><path fill="rgb(202,167,108)" stroke="rgb(202,167,108)" stroke-width="0.6" opacity="1" d="M 217.5 202 L 218 204.5 L 212.5 211 L 215 207.5 L 217.5 202 Z " /><path fill="rgb(202,167,108)" stroke="rgb(202,167,108)" stroke-width="0.6" opacity="1" d="M 157.5 209 L 151 216.5 L 149.5 218 L 148 218.5 L 157.5 209 Z " /><path fill="rgb(202,167,108)" stroke="rgb(202,167,108)" stroke-width="0.6" opacity="1" d="M 215.5 212 L 210.5 218 L 215.5 212 Z " /><path fill="rgb(202,167,108)" stroke="rgb(202,167,108)" stroke-width="0.6" opacity="1" d="M 209.5 213 L 202.5 221 L 199.5 223 L 205.5 216 L 209.5 213 Z " /><path fill="rgb(202,167,108)" stroke="rgb(202,167,108)" stroke-width="0.6" opacity="1" d="M 272.5 218 L 270 221.5 L 268.5 224 L 266 225.5 L 267 229 L 269 229.5 L 264.5 231 L 264.5 229 L 262.5 230 L 265 226.5 L 272.5 218 Z " /><path fill="rgb(202,167,108)" stroke="rgb(202,167,108)" stroke-width="0.6" opacity="1" d="M 220.5 221 L 214.5 228 L 220.5 221 Z " /><path fill="rgb(202,167,108)" stroke="rgb(202,167,108)" stroke-width="0.6" opacity="1" d="M 190.5 231 L 184.5 238 L 190.5 231 Z " /><path fill="rgb(202,167,108)" stroke="rgb(202,167,108)" stroke-width="0.6" opacity="1" d="M 209.5 231 L 206.5 235 L 203.5 237 L 205.5 234 L 209.5 231 Z " /><path fill="rgb(202,167,108)" stroke="rgb(202,167,108)" stroke-width="0.6" opacity="1" d="M 203.5 243 L 204 245 L 201 246.5 L 207 249.5 L 199.5 251 L 199.5 249 L 198 248.5 L 203.5 243 Z " /><path fill="rgb(202,167,108)" stroke="rgb(202,167,108)" stroke-width="0.6" opacity="1" d="M 172.5 249 L 165.5 257 L 172.5 249 Z " /><path fill="rgb(202,167,108)" stroke="rgb(202,167,108)" stroke-width="0.6" opacity="1" d="M 79.5 278 L 80 286.5 L 74 291.5 L 75.5 290 L 79 285 L 77 284.5 L 79 284 L 79.5 278 Z " /><path fill="rgb(202,167,108)" stroke="rgb(202,167,108)" stroke-width="0.6" opacity="1" d="M 161.5 288 L 166 288.5 L 160 291.5 L 163 293.5 L 161.5 294 L 159 293 L 161.5 288 Z " /><path fill="rgb(202,167,108)" stroke="rgb(202,167,108)" stroke-width="0.6" opacity="1" d="M 167.5 289 L 178 291.5 L 174.5 292 L 167.5 290 L 167.5 289 Z " /><path fill="rgb(202,167,108)" stroke="rgb(202,167,108)" stroke-width="0.6" opacity="1" d="M 240.5 305 L 239 307.5 L 237.5 313 L 237 310.5 L 240.5 305 Z " /><path fill="rgb(202,167,108)" stroke="rgb(202,167,108)" stroke-width="0.6" opacity="1" d="M 271.5 309 L 272 321.5 L 271 321.5 L 271.5 309 Z " /><path fill="rgb(202,167,108)" stroke="rgb(202,167,108)" stroke-width="0.6" opacity="1" d="M 223.5 321 L 224 334.5 L 223 334.5 L 223.5 321 Z " /><path fill="rgb(202,167,108)" stroke="rgb(202,167,108)" stroke-width="0.6" opacity="1" d="M 230.5 353 L 237 358.5 L 234.5 357 L 230.5 353 Z " /><path fill="rgb(103,100,95)" stroke="rgb(103,100,95)" stroke-width="0.6" opacity="1" d="M 188.5 251 L 177.5 263 L 188.5 251 Z " /><path fill="rgb(112,89,57)" stroke="rgb(112,89,57)" stroke-width="0.6" opacity="1" d="M 229.5 219 L 224.5 225 L 229.5 219 Z " /><path fill="rgb(112,89,57)" stroke="rgb(112,89,57)" stroke-width="0.6" opacity="1" d="M 93.5 272 L 95 272.5 L 88.5 278 L 93.5 272 Z " /><path fill="rgb(112,89,57)" stroke="rgb(112,89,57)" stroke-width="0.6" opacity="1" d="M 255.5 320 L 256 322.5 L 251.5 328 L 254 324.5 L 255.5 320 Z " /><path fill="rgb(112,89,57)" stroke="rgb(112,89,57)" stroke-width="0.6" opacity="1" d="M 296.5 322 L 307 322.5 L 296.5 323 L 296.5 322 Z " /><path fill="rgb(133,123,106)" stroke="rgb(133,123,106)" stroke-width="0.6" opacity="1" d="M 188.5 237 L 181.5 245 L 188.5 237 Z " /><path fill="rgb(133,123,106)" stroke="rgb(133,123,106)" stroke-width="0.6" opacity="1" d="M 176.5 249 L 171.5 255 L 176.5 249 Z " /><path fill="rgb(169,151,107)" stroke="rgb(169,151,107)" stroke-width="0.6" opacity="1" d="M 183.5 238 L 177.5 245 L 183.5 238 Z " /><path fill="rgb(145,144,141)" stroke="rgb(145,144,141)" stroke-width="0.6" opacity="1" d="M 213.5 210 L 208.5 216 L 213.5 210 Z " /><path fill="rgb(145,144,141)" stroke="rgb(145,144,141)" stroke-width="0.6" opacity="1" d="M 180.5 352 L 191 352.5 L 180.5 353 L 180.5 352 Z " /></svg>