<svg width="627" height="627" preserveAspectRatio="xMidYMid meet" viewBox="0 0 512 512" version="1.1" xmlns="http://www.w3.org/2000/svg" ><path fill="rgb(255,255,255)" stroke="rgb(255,255,255)" stroke-width="0.6" opacity="1" d="M 0 0 L 512 0 L 512 512 L 0 512 L 0 0 Z M 219 146 L 209 150 L 202 159 L 202 175 L 206 185 L 201 183 L 185 184 L 160 200 Q 135 222 116 250 L 115 251 L 112 247 L 100 237 L 82 233 Q 65 232 57 239 Q 41 250 40 277 L 34 279 L 28 287 L 28 310 L 29 312 L 35 317 L 51 325 L 86 337 L 137 349 L 173 352 L 176 354 Q 191 356 200 352 L 203 352 L 215 361 L 235 366 L 254 366 L 266 360 Q 280 350 283 329 L 285 327 L 322 326 L 404 302 L 409 303 L 418 311 L 437 316 Q 457 318 467 310 Q 481 298 485 277 L 485 252 L 479 236 Q 471 223 453 221 L 426 221 L 414 227 L 407 212 L 397 205 L 394 203 L 394 178 L 391 170 L 378 158 L 364 154 L 327 154 L 316 159 L 303 174 L 295 197 L 279 203 Q 281 191 277 184 L 265 166 Q 257 156 245 150 L 232 146 L 219 146 Z " /><path fill="rgb(0,0,0)" stroke="rgb(0,0,0)" stroke-width="0.6" opacity="1" d="M 221.5 146 Q 252 149 266 168.5 L 276 183.5 L 279 191.5 L 279 201.5 L 278 204 Q 288.8 202.7 296 196.5 L 304 173.5 L 315.5 160 L 330.5 154 L 359.5 154 L 375.5 158 L 389 168.5 Q 396.9 179.1 394 200.5 L 393 203.5 L 406 211.5 L 415.5 229 Q 419.8 222.8 428.5 221 L 448.5 221 L 462.5 224 L 478 235.5 L 484 249.5 L 484 269.5 L 485 271.5 Q 481.9 294.4 468.5 307 Q 458.8 317.8 435.5 315 L 417.5 310 L 407.5 301 L 403.5 301 L 321.5 325 Q 314.1 323.6 311.5 327 L 288.5 327 L 283.5 326 L 280 338.5 L 275 348.5 L 266.5 358 L 253.5 365 L 234.5 365 L 214.5 360 L 203.5 351 L 199.5 351 L 194.5 353 L 175.5 353 L 155.5 351 L 152.5 349 L 135.5 348 L 84.5 336 L 52.5 325 L 36.5 317 L 30 310.5 L 28 306.5 L 28 289.5 Q 29.8 282.3 35.5 279 Q 40.3 279.8 41 276.5 Q 41.2 252.7 54.5 242 Q 62.9 232.4 82.5 234 L 99.5 238 L 112 248.5 L 113 252 L 117 250.5 Q 134 223.5 157.5 203 L 184.5 185 L 201.5 184 L 207 186 L 202 171.5 L 202 161.5 L 208.5 151 L 221.5 146 Z M 217 151 L 215 152 Q 207 155 206 164 L 206 173 L 211 185 L 222 192 L 224 192 L 224 189 L 216 174 L 216 166 L 222 161 Q 230 160 236 163 L 249 171 Q 259 179 264 194 Q 266 203 261 205 L 253 205 L 242 199 L 238 199 L 233 205 Q 241 211 254 214 Q 263 215 269 212 L 274 204 L 273 188 L 260 168 Q 252 158 240 153 Q 231 149 217 151 Z M 343 158 L 342 159 L 329 159 L 316 165 L 305 181 Q 300 203 290 221 L 279 231 Q 260 234 249 243 Q 240 248 240 262 L 246 265 L 271 271 L 321 280 Q 324 278 322 271 L 327 260 L 322 257 L 265 245 Q 260 246 261 243 L 287 248 L 296 248 L 325 255 L 329 255 Q 340 241 360 235 Q 369 228 373 217 L 380 193 L 381 182 Q 383 170 378 165 L 376 162 L 366 159 L 343 158 Z M 222 166 L 220 171 L 229 177 L 242 178 L 246 184 Q 253 186 253 183 L 241 170 L 232 166 L 222 166 Z M 383 169 L 383 191 L 381 200 L 373 224 L 368 232 L 359 240 L 338 251 Q 329 258 326 271 L 326 280 L 328 280 L 335 268 L 349 258 L 379 251 L 385 231 L 385 223 L 388 216 L 389 205 L 389 177 L 387 172 L 383 169 Z M 233 181 L 230 184 L 236 185 L 240 193 Q 242 196 243 193 L 242 185 Q 241 180 233 181 Z M 190 188 Q 175 194 164 203 Q 140 223 122 250 L 101 290 L 100 298 Q 112 305 131 306 L 143 285 L 153 273 L 156 271 L 138 296 L 134 307 L 143 309 Q 156 282 177 263 Q 193 245 213 231 L 228 216 L 229 212 L 228 204 Q 218 187 190 188 Z M 232 188 L 226 194 L 226 197 L 232 200 Q 237 198 236 190 L 232 188 Z M 247 194 L 245 197 Q 248 202 259 200 L 260 196 L 259 194 L 247 194 Z M 291 204 L 282 208 L 276 216 L 274 217 L 263 230 L 264 232 L 281 225 Q 288 219 292 209 L 291 204 Z M 235 209 L 230 220 L 219 231 L 223 234 L 253 227 L 260 227 L 266 217 L 250 217 L 235 209 Z M 394 209 L 391 216 L 396 218 L 408 239 L 411 235 L 403 215 Q 400 210 394 209 Z M 391 221 Q 388 222 389 228 L 393 230 L 397 229 L 396 225 L 391 221 Z M 428 226 L 420 230 Q 403 242 403 270 L 412 272 L 418 281 Q 420 296 412 301 L 421 307 L 439 310 L 430 298 L 427 287 Q 425 253 441 237 L 452 229 L 453 228 L 452 226 L 428 226 Z M 458 229 L 448 234 L 436 249 L 431 264 L 430 275 L 430 287 L 436 303 L 446 310 Q 457 312 463 307 Q 476 297 480 278 L 480 252 L 473 236 Q 469 229 458 229 Z M 253 231 L 225 237 L 223 239 L 226 245 L 244 243 L 256 235 L 257 233 L 253 231 Z M 215 233 L 211 237 L 211 242 L 224 270 Q 229 271 230 268 L 218 241 L 217 235 L 215 233 Z M 389 233 Q 386 234 387 240 Q 392 244 402 242 L 401 236 L 400 234 L 389 233 Z M 72 238 Q 63 239 59 244 Q 43 254 45 282 L 49 284 L 67 289 L 68 288 Q 67 276 70 269 L 78 253 Q 82 245 91 243 Q 94 244 93 241 Q 86 236 72 238 Z M 207 241 L 205 242 Q 198 245 197 252 L 210 249 L 209 243 L 207 241 Z M 95 244 L 87 248 Q 70 260 71 291 L 76 292 L 80 288 Q 79 273 85 266 L 94 259 L 101 259 L 105 266 L 108 267 L 111 263 Q 112 253 108 250 Q 106 242 95 244 Z M 235 247 L 228 252 L 231 260 L 235 261 L 239 249 L 235 247 Z M 397 249 L 391 252 L 354 260 L 344 265 L 334 276 L 328 292 L 330 296 L 336 295 L 343 279 L 353 270 L 399 258 L 402 251 L 397 249 Z M 209 253 L 190 257 L 181 267 L 207 275 Q 216 277 219 272 L 213 255 L 209 253 Z M 95 262 L 93 263 L 85 274 L 84 281 L 97 271 L 101 271 L 103 271 L 102 266 L 98 262 L 95 262 Z M 395 262 L 387 265 L 388 267 L 397 267 L 399 267 Q 401 260 395 262 Z M 377 268 L 372 276 L 378 278 L 393 278 L 397 276 L 398 273 L 397 271 L 377 268 Z M 177 270 L 165 284 Q 180 290 200 292 L 208 281 Q 194 273 177 270 Z M 359 272 L 353 274 Q 350 276 353 277 Q 360 277 363 274 Q 364 270 359 272 Z M 227 273 L 215 279 Q 199 290 198 315 L 209 318 L 214 328 Q 216 344 208 351 Q 215 359 230 359 L 230 357 L 223 349 L 220 333 L 220 318 L 223 307 L 233 289 Q 239 281 250 277 L 251 275 Q 242 271 227 273 Z M 264 273 L 264 275 L 273 279 Q 280 278 284 281 L 295 281 L 299 284 L 311 285 L 321 289 L 325 289 L 326 287 L 322 284 L 315 284 L 264 273 Z M 98 275 L 96 276 L 81 292 L 81 294 L 87 295 L 96 284 L 100 282 Q 103 281 102 277 L 98 275 Z M 408 275 L 400 280 L 318 304 Q 309 302 308 306 L 287 306 L 285 308 L 285 320 L 286 322 L 319 322 L 411 296 L 413 294 L 413 279 L 408 275 Z M 362 277 L 354 281 L 347 281 L 345 284 L 357 283 L 364 279 Q 365 276 362 277 Z M 254 278 L 244 283 Q 227 295 223 319 Q 220 343 230 355 L 244 362 Q 254 362 261 358 L 274 343 L 280 326 L 280 303 L 275 290 L 265 279 L 254 278 Z M 368 280 L 363 283 Q 360 285 363 286 L 374 283 Q 377 284 376 281 L 368 280 Z M 39 282 L 33 289 L 33 309 L 34 311 L 54 321 L 97 335 L 143 345 L 173 348 L 206 347 L 209 343 L 209 326 L 207 323 L 204 320 L 171 319 L 128 311 L 86 300 L 44 286 L 42 284 L 39 282 Z M 287 286 L 279 290 L 283 294 L 307 291 L 308 289 Q 300 285 287 286 Z M 353 287 Q 350 290 344 289 Q 341 291 344 292 L 355 289 Q 356 286 353 287 Z M 162 288 L 158 293 L 163 295 L 185 300 L 196 300 L 198 298 L 177 290 L 162 288 Z M 96 290 L 91 296 L 93 298 L 97 297 Q 98 289 96 290 Z M 312 293 L 285 299 Q 282 301 285 302 L 308 302 L 322 298 L 323 295 L 322 293 L 312 293 Z M 155 297 L 149 305 L 151 308 L 173 304 Q 178 306 177 302 L 160 297 L 155 297 Z M 193 303 L 186 306 L 163 311 Q 158 310 159 313 L 165 314 L 181 314 L 194 311 Q 196 310 195 305 L 193 303 Z " /><path fill="rgb(0,0,0)" stroke="rgb(0,0,0)" stroke-width="0.6" opacity="1" d="M 216.5 208 L 218 209.5 L 196.5 229 L 216.5 208 Z " /><path fill="rgb(0,0,0)" stroke="rgb(0,0,0)" stroke-width="0.6" opacity="1" d="M 456.5 246 Q 465.2 244.8 468 249.5 L 472 257.5 L 473 268.5 L 469 282.5 L 459.5 294 L 452.5 295 L 444 287.5 Q 440.4 280.6 442 268.5 Q 444.2 253.7 454.5 247 L 456.5 246 Z M 459 249 L 457 250 L 451 257 Q 450 262 457 259 L 462 266 Q 463 277 456 281 L 449 280 L 446 281 L 449 289 Q 452 292 460 291 Q 467 286 469 275 Q 471 259 466 252 Q 464 248 459 249 Z M 454 261 L 448 268 L 448 276 Q 449 280 455 279 L 459 273 L 458 264 L 454 261 Z " /><path fill="rgb(0,0,0)" stroke="rgb(0,0,0)" stroke-width="0.6" opacity="1" d="M 172.5 250 L 174 250.5 L 164.5 261 L 164 259.5 L 172.5 250 Z " /><path fill="rgb(0,0,0)" stroke="rgb(0,0,0)" stroke-width="0.6" opacity="1" d="M 254.5 294 L 260.5 295 L 268 301.5 Q 272.8 308.7 271 322.5 Q 268.2 335.7 259.5 343 Q 254.8 346.8 245.5 346 L 240 341.5 Q 233.7 333.8 236 317.5 Q 238.9 303.9 248.5 297 L 254.5 294 Z M 254 298 L 252 299 L 246 307 L 247 309 L 254 308 L 259 316 Q 260 323 257 327 L 251 332 L 245 331 Q 242 326 240 330 L 242 339 L 250 343 L 257 342 Q 266 336 268 323 Q 270 308 264 301 Q 261 297 254 298 Z M 248 311 Q 242 313 242 321 L 243 327 L 248 329 L 252 328 L 256 323 L 255 313 Q 253 309 248 311 Z " /><path fill="rgb(147,96,56)" stroke="rgb(147,96,56)" stroke-width="0.6" opacity="1" d="M 218.5 151 L 229.5 151 L 240.5 154 Q 253.5 160 262 170.5 L 273 189.5 L 274 199.5 L 273 204.5 L 267.5 212 L 257.5 214 Q 243.3 212.2 235 204.5 L 237.5 200 L 242.5 200 L 253.5 206 L 260.5 206 L 264 203.5 L 265 195.5 Q 261.1 181.9 252.5 173 L 237.5 163 L 227.5 160 L 220.5 161 L 216 165.5 L 215 172.5 L 224 189.5 L 220.5 191 L 212 184.5 Q 206.6 178.4 206 167.5 Q 207 156 215.5 152 L 218.5 151 Z " /><path fill="rgb(147,96,56)" stroke="rgb(147,96,56)" stroke-width="0.6" opacity="1" d="M 344.5 158 L 367.5 160 Q 375.3 161.2 379 166.5 L 381 180.5 L 379 195.5 L 372 217.5 L 361.5 233 Q 341.2 239.7 328.5 254 L 321.5 254 L 303.5 249 L 298.5 249 L 295.5 247 L 285.5 247 L 269.5 243 L 260 243 L 261.5 246 L 319.5 257 L 326 260.5 L 322 269.5 L 322 279 L 314.5 279 Q 298.4 273.6 278.5 272 L 243.5 264 L 241 261.5 Q 240.3 248.8 247.5 244 L 257.5 238 L 277.5 232 L 285 226.5 Q 293.7 218.2 298 205.5 L 306 179.5 L 317.5 164 L 327.5 160 L 341.5 160 L 344.5 158 Z " /><path fill="rgb(147,96,56)" stroke="rgb(147,96,56)" stroke-width="0.6" opacity="1" d="M 231.5 189 L 235 190.5 L 236 193.5 L 231.5 199 L 227 196.5 Q 226.3 189.8 231.5 189 Z " /><path fill="rgb(147,96,56)" stroke="rgb(147,96,56)" stroke-width="0.6" opacity="1" d="M 235.5 210 L 248.5 217 L 264 218 L 264 220.5 L 258.5 226 L 222.5 233 L 220 230.5 L 230 220.5 L 235.5 210 Z " /><path fill="rgb(147,96,56)" stroke="rgb(147,96,56)" stroke-width="0.6" opacity="1" d="M 390 222 L 396 225.5 Q 397.8 231.6 390.5 229 L 389 225.5 L 390 222 Z " /><path fill="rgb(147,96,56)" stroke="rgb(147,96,56)" stroke-width="0.6" opacity="1" d="M 427.5 227 L 450.5 227 L 451 228.5 L 439 238.5 L 431 251.5 L 428 260.5 L 426 275.5 L 427 282.5 L 426 284.5 L 431.5 301 L 433 302.5 L 437 309 L 422.5 307 L 414 301.5 L 414 298.5 L 418 293.5 L 419 283.5 Q 417.3 275.2 411.5 271 Q 405.3 271.7 403 268.5 L 404 257.5 L 408 245.5 Q 412.7 235.2 421.5 229 L 427.5 227 Z " /><path fill="rgb(147,96,56)" stroke="rgb(147,96,56)" stroke-width="0.6" opacity="1" d="M 251.5 232 Q 256.8 230.5 255 235 L 243.5 242 L 227.5 245 L 225 244 L 224 238 L 251.5 232 Z " /><path fill="rgb(147,96,56)" stroke="rgb(147,96,56)" stroke-width="0.6" opacity="1" d="M 214.5 234 L 229 267.5 L 224.5 269 L 211 239.5 L 214.5 234 Z " /><path fill="rgb(147,96,56)" stroke="rgb(147,96,56)" stroke-width="0.6" opacity="1" d="M 395.5 250 L 401 251.5 L 398.5 257 L 353.5 269 L 341 280.5 L 341 283.5 L 335.5 294 L 329 295 L 329 290.5 L 335 274.5 L 338.5 271 L 342 268.5 L 344.5 265 L 355.5 260 L 389.5 253 L 395.5 250 Z " /><path fill="rgb(147,96,56)" stroke="rgb(147,96,56)" stroke-width="0.6" opacity="1" d="M 457.5 250 Q 464 249 466 252.5 L 468 257.5 L 469 269.5 L 468 272.5 Q 467.6 285.1 459.5 290 L 453.5 291 L 449 287.5 L 447 280.5 L 448.5 281 L 455.5 282 Q 461.6 278.6 463 270.5 Q 462.5 262.8 459 259 L 452 258 L 457.5 250 Z " /><path fill="rgb(147,96,56)" stroke="rgb(147,96,56)" stroke-width="0.6" opacity="1" d="M 95.5 262 L 102 267.5 L 100.5 271 L 95.5 271 L 90 275.5 L 87.5 279 L 85.5 280 L 85 278.5 L 86 275.5 L 86 272.5 L 95.5 262 Z " /><path fill="rgb(147,96,56)" stroke="rgb(147,96,56)" stroke-width="0.6" opacity="1" d="M 453.5 262 L 458 264.5 L 459 269.5 L 454.5 278 L 449 276.5 L 448 269.5 L 453.5 262 Z " /><path fill="rgb(147,96,56)" stroke="rgb(147,96,56)" stroke-width="0.6" opacity="1" d="M 406.5 276 L 412 278 L 412 293.5 L 410.5 294 L 405.5 297 L 323.5 320 Q 315.5 323 303.5 322 L 302.5 321 L 286 321 L 286 307 L 306.5 307 L 309.5 305 L 321.5 304 L 353.5 293 L 395.5 282 Q 402.9 280.9 406.5 276 Z " /><path fill="rgb(147,96,56)" stroke="rgb(147,96,56)" stroke-width="0.6" opacity="1" d="M 311.5 283 Q 314.8 286.2 322.5 285 L 325 287.5 L 322.5 289 L 313.5 286 L 311.5 283 Z " /><path fill="rgb(147,96,56)" stroke="rgb(147,96,56)" stroke-width="0.6" opacity="1" d="M 249.5 311 L 255 314.5 Q 257 325 251.5 328 Q 244.5 329.5 243 325.5 Q 241.8 315.8 246.5 312 L 249.5 311 Z " /><path fill="rgb(80,62,45)" stroke="rgb(80,62,45)" stroke-width="0.6" opacity="1" d="M 221.5 166 L 231.5 166 L 241.5 171 L 253 182.5 Q 253.5 185.5 246.5 184 L 241.5 178 L 229.5 177 L 220 169.5 L 221.5 166 Z " /><path fill="rgb(80,62,45)" stroke="rgb(80,62,45)" stroke-width="0.6" opacity="1" d="M 313.5 168 L 311 171.5 L 307.5 177 L 308 175.5 L 313.5 168 Z " /><path fill="rgb(80,62,45)" stroke="rgb(80,62,45)" stroke-width="0.6" opacity="1" d="M 383 169 L 386 170.5 L 389 177.5 L 389 204.5 L 387 218.5 L 385 221.5 L 385 229.5 L 380 248.5 L 377.5 251 L 347.5 258 L 334 268.5 L 329 279 L 326 279 L 326 271.5 Q 329.3 257.3 339.5 250 L 357.5 241 L 369 230.5 Q 377.2 217.7 381 200.5 L 383 191.5 L 383 169 Z " /><path fill="rgb(80,62,45)" stroke="rgb(80,62,45)" stroke-width="0.6" opacity="1" d="M 233.5 181 Q 239.3 180.2 241 183.5 L 243 193 Q 238.9 194.7 240 190.5 L 235.5 185 L 231 183.5 L 233.5 181 Z " /><path fill="rgb(80,62,45)" stroke="rgb(80,62,45)" stroke-width="0.6" opacity="1" d="M 429.5 226 L 449 226.5 L 429.5 227 L 429.5 226 Z " /><path fill="rgb(80,62,45)" stroke="rgb(80,62,45)" stroke-width="0.6" opacity="1" d="M 455.5 230 Q 467.7 228.3 472 234.5 L 480 252.5 L 480 276.5 Q 475.8 296.3 462.5 307 Q 457.1 311.1 446.5 310 L 436 302.5 Q 429.3 292.2 430 274.5 Q 431.7 249.2 445.5 236 L 455.5 230 Z M 459 245 L 454 247 Q 444 254 442 268 Q 440 282 445 290 L 452 295 L 461 294 L 470 282 L 473 270 Q 474 257 469 251 Q 466 246 459 245 Z " /><path fill="rgb(80,62,45)" stroke="rgb(80,62,45)" stroke-width="0.6" opacity="1" d="M 72.5 238 Q 84.1 236.9 91 240.5 L 90.5 243 Q 82.8 244.9 79 250.5 L 70 267.5 Q 67 274.5 68 285.5 L 65.5 289 L 45 281.5 Q 43.9 252.4 61.5 242 L 72.5 238 Z " /><path fill="rgb(80,62,45)" stroke="rgb(80,62,45)" stroke-width="0.6" opacity="1" d="M 235.5 247 L 238 248.5 L 234.5 261 L 231 258.5 L 228 251.5 L 235.5 247 Z " /><path fill="rgb(80,62,45)" stroke="rgb(80,62,45)" stroke-width="0.6" opacity="1" d="M 176.5 270 L 207 279 L 199.5 292 L 166 285 L 166 282.5 L 176.5 270 Z " /><path fill="rgb(80,62,45)" stroke="rgb(80,62,45)" stroke-width="0.6" opacity="1" d="M 266.5 273 L 296 280 L 295.5 282 L 283.5 281 L 266 276 L 266.5 273 Z " /><path fill="rgb(80,62,45)" stroke="rgb(80,62,45)" stroke-width="0.6" opacity="1" d="M 95.5 276 Q 100.8 274.8 102 277.5 L 99.5 282 L 96 283.5 L 86.5 295 L 81 293.5 L 95.5 276 Z " /><path fill="rgb(80,62,45)" stroke="rgb(80,62,45)" stroke-width="0.6" opacity="1" d="M 412.5 279 L 413 292.5 L 412 292.5 L 412.5 279 Z " /><path fill="rgb(80,62,45)" stroke="rgb(80,62,45)" stroke-width="0.6" opacity="1" d="M 39.5 282 L 45.5 287 Q 80.1 299.9 118.5 309 L 169.5 319 L 200.5 320 Q 206.1 320.5 208 324.5 L 209 341.5 L 204.5 347 L 172.5 348 L 138.5 344 L 97.5 335 L 54.5 321 L 34 309.5 L 33 289.5 L 39.5 282 Z " /><path fill="rgb(80,62,45)" stroke="rgb(80,62,45)" stroke-width="0.6" opacity="1" d="M 313.5 293 Q 321 291 323 294.5 L 321.5 298 L 306.5 302 L 284.5 302 L 284.5 299 L 313.5 293 Z " /><path fill="rgb(80,62,45)" stroke="rgb(80,62,45)" stroke-width="0.6" opacity="1" d="M 155.5 297 L 175 302 Q 176.3 305.3 171.5 304 L 150.5 308 L 149 305.5 L 155.5 297 Z " /><path fill="rgb(80,62,45)" stroke="rgb(80,62,45)" stroke-width="0.6" opacity="1" d="M 254.5 298 Q 263.1 296.9 265 302.5 Q 269.4 308.6 268 320.5 Q 266.3 334.3 257.5 341 L 247.5 342 L 242 337.5 L 240 329.5 L 241.5 328 L 245.5 332 Q 255.3 332.3 258 325.5 L 259 315.5 L 254.5 308 L 248.5 307 L 246 306.5 L 252.5 299 L 254.5 298 Z " /><path fill="rgb(80,62,45)" stroke="rgb(80,62,45)" stroke-width="0.6" opacity="1" d="M 193.5 303 L 195 308.5 L 192.5 311 L 179.5 314 L 166.5 314 L 162 313 L 163.5 311 L 186.5 306 L 193.5 303 Z " /><path fill="rgb(80,62,45)" stroke="rgb(80,62,45)" stroke-width="0.6" opacity="1" d="M 434.5 303 L 439 310 L 436 309.5 L 437 307.5 L 434.5 303 Z " /><path fill="rgb(80,62,45)" stroke="rgb(80,62,45)" stroke-width="0.6" opacity="1" d="M 286.5 306 L 307 306.5 L 286 307 L 285.5 320 L 285 307.5 L 286.5 306 Z " /><path fill="rgb(80,62,45)" stroke="rgb(80,62,45)" stroke-width="0.6" opacity="1" d="M 285.5 321 L 303 321.5 L 285.5 322 L 285.5 321 Z " /><path fill="rgb(214,174,112)" stroke="rgb(214,174,112)" stroke-width="0.6" opacity="1" d="M 188.5 189 Q 216.1 186.9 226 202.5 Q 228.9 206.1 228 213.5 L 213.5 229 Q 190.3 245.3 172 266.5 Q 153.6 283.6 142.5 308 L 135 307 L 138 297.5 L 148 282.5 L 173.5 252 L 184 242.5 L 186.5 239 L 210 218.5 L 211.5 216 L 218 210.5 Q 221.7 207.7 221 200.5 L 218 199 L 217 206.5 L 196.5 227 L 193 229.5 L 191.5 232 L 166 255.5 L 141 285.5 L 129.5 306 L 111.5 302 L 101 297.5 L 101 292.5 L 104 284.5 L 117 258.5 L 125 246.5 Q 142.1 223.1 163.5 204 Q 174 194.5 188.5 189 Z " /><path fill="rgb(214,174,112)" stroke="rgb(214,174,112)" stroke-width="0.6" opacity="1" d="M 247.5 194 Q 256.9 192.1 260 196.5 L 257.5 200 L 251.5 200 L 246 196.5 L 247.5 194 Z " /><path fill="rgb(214,174,112)" stroke="rgb(214,174,112)" stroke-width="0.6" opacity="1" d="M 289.5 205 Q 292.5 204.1 291 208.5 Q 288.2 217.7 281.5 223 L 269.5 230 L 264 231 L 272.5 219 L 278 214.5 L 283.5 208 L 289.5 205 Z " /><path fill="rgb(214,174,112)" stroke="rgb(214,174,112)" stroke-width="0.6" opacity="1" d="M 394.5 210 L 404 217.5 L 410 234.5 L 406 236 L 401 223.5 L 395.5 217 L 392 214.5 L 394.5 210 Z " /><path fill="rgb(214,174,112)" stroke="rgb(214,174,112)" stroke-width="0.6" opacity="1" d="M 389.5 234 L 398.5 235 L 400 236.5 L 401 240.5 L 396.5 242 L 388 238.5 L 389.5 234 Z " /><path fill="rgb(214,174,112)" stroke="rgb(214,174,112)" stroke-width="0.6" opacity="1" d="M 206.5 242 L 209 247.5 Q 205.6 251.3 199 251 L 203.5 244 L 206.5 242 Z " /><path fill="rgb(214,174,112)" stroke="rgb(214,174,112)" stroke-width="0.6" opacity="1" d="M 97.5 244 Q 104.1 244.9 107 249.5 L 111 260.5 L 107.5 265 L 104 262.5 L 103 259 L 93.5 258 L 83 266.5 Q 79 273.5 79 284.5 L 80 286.5 Q 79.3 291.8 72.5 291 L 72 288.5 Q 71.2 258.2 89.5 247 L 97.5 244 Z " /><path fill="rgb(214,174,112)" stroke="rgb(214,174,112)" stroke-width="0.6" opacity="1" d="M 206.5 254 Q 212 253 213 256.5 L 218 272 L 213.5 275 L 210.5 275 L 183 266.5 L 189.5 258 L 206.5 254 Z " /><path fill="rgb(214,174,112)" stroke="rgb(214,174,112)" stroke-width="0.6" opacity="1" d="M 377.5 269 L 391.5 271 L 397 273.5 L 395.5 275 Q 392 279.5 382.5 278 L 373 274.5 L 377.5 269 Z " /><path fill="rgb(214,174,112)" stroke="rgb(214,174,112)" stroke-width="0.6" opacity="1" d="M 228.5 273 Q 241.4 271.9 249 275 Q 250.3 278 246.5 277 L 232 288.5 L 222 306.5 L 219 319.5 L 219 332.5 L 222 347.5 L 228 355.5 L 228 358 L 222.5 358 L 210 351.5 Q 216.1 344.1 215 329.5 Q 214.6 320.4 208.5 317 L 202.5 315 L 200.5 315 Q 197.3 315.4 199 307.5 Q 202.9 289.9 214.5 280 L 228.5 273 Z " /><path fill="rgb(214,174,112)" stroke="rgb(214,174,112)" stroke-width="0.6" opacity="1" d="M 252.5 279 L 264.5 280 L 274 289.5 L 279 300.5 L 279 325.5 Q 274.8 346.3 260.5 357 Q 254.4 361.9 242.5 361 L 230 353.5 L 225 343.5 L 223 333.5 L 223 323.5 L 225 312.5 L 232 296.5 L 244.5 283 L 252.5 279 Z M 253 294 L 247 297 Q 239 303 236 315 L 236 335 L 239 342 L 246 347 L 252 347 L 260 344 Q 270 337 272 321 Q 273 308 269 302 L 261 294 L 253 294 Z " /><path fill="rgb(214,174,112)" stroke="rgb(214,174,112)" stroke-width="0.6" opacity="1" d="M 288.5 286 L 294.5 286 L 306 289 Q 307.4 293 300.5 291 L 283.5 293 L 281 289.5 L 288.5 286 Z " /><path fill="rgb(214,174,112)" stroke="rgb(214,174,112)" stroke-width="0.6" opacity="1" d="M 162.5 288 L 191.5 295 L 195 297.5 Q 195.9 300.9 190.5 299 L 188.5 299 Q 172.3 297.7 160 292.5 L 162.5 288 Z " /><path fill="rgb(20,20,20)" stroke="rgb(20,20,20)" stroke-width="0.6" opacity="1" d="M 195.5 229 L 197 229.5 L 190.5 234 L 192.5 231 L 195.5 229 Z " /><path fill="rgb(39,39,38)" stroke="rgb(39,39,38)" stroke-width="0.6" opacity="1" d="M 182.5 241 L 184 241.5 L 174 250.5 L 178.5 244 L 182.5 241 Z " /><path fill="rgb(39,39,38)" stroke="rgb(39,39,38)" stroke-width="0.6" opacity="1" d="M 453.5 247 L 448.5 253 L 453.5 247 Z " /><path fill="rgb(39,39,38)" stroke="rgb(39,39,38)" stroke-width="0.6" opacity="1" d="M 30.5 311 L 35.5 317 L 30.5 311 Z " /><path fill="rgb(188,166,110)" stroke="rgb(188,166,110)" stroke-width="0.6" opacity="1" d="M 154.5 212 L 147.5 220 L 154.5 212 Z " /><path fill="rgb(188,166,110)" stroke="rgb(188,166,110)" stroke-width="0.6" opacity="1" d="M 179.5 242 L 172.5 250 L 179.5 242 Z " /><path fill="rgb(188,166,110)" stroke="rgb(188,166,110)" stroke-width="0.6" opacity="1" d="M 183.5 242 L 174.5 252 L 183.5 242 Z " /><path fill="rgb(188,166,110)" stroke="rgb(188,166,110)" stroke-width="0.6" opacity="1" d="M 195.5 243 L 189.5 250 L 195.5 243 Z " /><path fill="rgb(188,166,110)" stroke="rgb(188,166,110)" stroke-width="0.6" opacity="1" d="M 87.5 248 L 82.5 254 L 87.5 248 Z " /><path fill="rgb(188,166,110)" stroke="rgb(188,166,110)" stroke-width="0.6" opacity="1" d="M 177.5 261 L 172.5 267 L 177.5 261 Z " /><path fill="rgb(188,166,110)" stroke="rgb(188,166,110)" stroke-width="0.6" opacity="1" d="M 186.5 261 L 183 265.5 L 184 267.5 L 182 266.5 L 186.5 261 Z " /><path fill="rgb(188,166,110)" stroke="rgb(188,166,110)" stroke-width="0.6" opacity="1" d="M 239.5 288 L 234.5 294 L 239.5 288 Z " /><path fill="rgb(80,79,67)" stroke="rgb(80,79,67)" stroke-width="0.6" opacity="1" d="M 333.5 249 L 328.5 255 L 333.5 249 Z " /><path fill="rgb(121,94,55)" stroke="rgb(121,94,55)" stroke-width="0.6" opacity="1" d="M 213.5 153 L 208.5 159 L 213.5 153 Z " /><path fill="rgb(121,94,55)" stroke="rgb(121,94,55)" stroke-width="0.6" opacity="1" d="M 231.5 188 L 233 188.5 L 227 193.5 L 226.5 196 L 226 193.5 L 231.5 188 Z " /><path fill="rgb(121,94,55)" stroke="rgb(121,94,55)" stroke-width="0.6" opacity="1" d="M 229.5 220 L 220.5 230 L 229.5 220 Z " /><path fill="rgb(127,127,115)" stroke="rgb(127,127,115)" stroke-width="0.6" opacity="1" d="M 216.5 207 L 201.5 223 L 216.5 207 Z " /><path fill="rgb(127,127,115)" stroke="rgb(127,127,115)" stroke-width="0.6" opacity="1" d="M 226.5 216 L 215.5 228 L 226.5 216 Z " /><path fill="rgb(127,127,115)" stroke="rgb(127,127,115)" stroke-width="0.6" opacity="1" d="M 186.5 252 L 180.5 259 L 186.5 252 Z " /><path fill="rgb(127,127,115)" stroke="rgb(127,127,115)" stroke-width="0.6" opacity="1" d="M 170.5 269 L 165.5 275 L 170.5 269 Z " /><path fill="rgb(127,127,115)" stroke="rgb(127,127,115)" stroke-width="0.6" opacity="1" d="M 265.5 280 L 273.5 289 L 265.5 280 Z " /><path fill="rgb(222,222,222)" stroke="rgb(222,222,222)" stroke-width="0.6" opacity="1" d="M 259.5 160 L 264.5 166 L 259.5 160 Z " /><path fill="rgb(222,222,222)" stroke="rgb(222,222,222)" stroke-width="0.6" opacity="1" d="M 29.5 311 L 34.5 317 L 29.5 311 Z " /><path fill="rgb(186,185,185)" stroke="rgb(186,185,185)" stroke-width="0.6" opacity="1" d="M 360.5 278 L 363 278.5 L 355 282 L 356.5 280 L 358 280.5 L 359.5 279 L 360.5 278 Z " /></svg>