<svg width="627" height="627" preserveAspectRatio="xMidYMid meet" viewBox="0 0 512 512" version="1.1" xmlns="http://www.w3.org/2000/svg" ><path fill="rgb(255,255,255)" stroke="rgb(255,255,255)" stroke-width="0.6" opacity="1" d="M 0 0 L 512 0 L 512 512 L 0 512 L 0 0 Z M 285 104 L 265 106 L 244 106 L 239 108 L 196 111 L 192 113 L 167 116 L 152 122 Q 143 126 144 141 L 149 145 L 155 148 L 153 177 L 151 181 L 150 208 Q 148 211 140 209 L 136 213 L 135 241 L 134 242 L 116 242 L 92 247 L 83 247 L 64 254 Q 58 257 56 265 L 44 269 L 35 282 L 34 316 Q 33 318 28 317 L 22 323 L 22 345 L 23 347 Q 29 354 44 352 L 46 355 L 46 362 L 51 372 L 63 383 L 78 388 L 100 388 L 116 381 L 124 373 L 130 361 L 157 364 L 176 364 Q 179 369 179 379 L 186 392 L 202 404 L 217 408 L 237 408 L 254 400 Q 266 390 271 372 L 279 374 Q 296 376 305 369 L 312 359 L 314 357 L 324 356 L 370 353 Q 370 366 375 374 Q 383 387 403 390 Q 425 392 435 382 Q 447 372 447 350 L 453 346 L 456 337 L 483 335 L 489 329 L 489 310 L 484 305 L 484 268 L 482 266 L 482 229 L 475 220 L 475 160 L 484 154 L 484 144 L 481 137 Q 475 125 460 123 L 419 119 L 395 114 L 383 114 L 372 111 L 361 111 L 337 106 Q 325 107 318 104 L 285 104 Z " /><path fill="rgb(0,0,0)" stroke="rgb(0,0,0)" stroke-width="0.6" opacity="1" d="M 286.5 104 L 315.5 104 L 355.5 111 L 367.5 111 Q 375.8 115.2 389.5 114 L 413.5 119 L 433.5 120 L 441.5 123 L 460.5 124 Q 473.9 126.7 480 136.5 L 484 145.5 L 484 151.5 L 479.5 157 L 475 158.5 L 475 220.5 L 482 230.5 L 482 266.5 L 484 269.5 L 484 305.5 L 489 310.5 L 489 326.5 L 482.5 334 L 456.5 336 L 455 337.5 Q 454.8 344.8 449.5 347 L 447 348.5 L 444 366.5 Q 440.2 377.2 431.5 383 Q 422.2 391.7 401.5 389 Q 383.8 386.2 376 373.5 L 372 365.5 L 371 353.5 L 369.5 352 L 313.5 356 L 311 358.5 L 305.5 367 Q 297.9 374.9 281.5 374 L 270.5 371 L 268 373.5 Q 267.1 383.6 262 389.5 L 253.5 399 L 238.5 407 L 219.5 408 L 201.5 403 L 187 391.5 L 180 378.5 Q 180.2 369.3 176.5 364 L 158.5 364 L 147.5 363 L 143.5 361 L 128.5 361 Q 124.5 373 115.5 380 L 101.5 387 L 80.5 388 L 64.5 383 L 52 371.5 L 47 361.5 L 47 354.5 L 43.5 351 Q 29.3 353.3 24 346.5 L 22 342.5 L 22 324.5 L 27.5 318 Q 32.8 319.3 34 316.5 L 34 291.5 L 36 288.5 L 37 278.5 L 42.5 271 Q 45.3 265.8 54.5 267 L 57 264.5 L 63.5 255 L 70.5 251 L 85.5 247 L 96.5 247 L 113.5 243 L 132.5 243 L 136 240.5 L 135 222.5 Q 138.8 220.8 137 213.5 L 141.5 209 Q 148.3 210.8 150 207.5 Q 149.2 201.2 152 198.5 L 152 179.5 L 154 175.5 L 156 146.5 L 148.5 144 L 145 140.5 Q 143.8 127.3 151.5 123 L 168.5 116 L 191.5 114 L 194.5 112 L 217.5 111 L 220.5 109 L 241.5 107 L 283.5 106 L 286.5 104 Z M 300 108 L 216 115 L 203 115 L 200 117 L 188 117 L 170 120 L 155 126 L 149 133 L 151 138 L 182 137 L 185 135 L 282 128 L 311 129 L 329 133 L 375 137 L 379 139 L 392 139 L 396 141 L 427 143 L 430 145 L 444 145 L 465 149 L 479 149 Q 480 141 476 138 L 468 130 L 454 127 L 414 123 L 390 118 L 377 118 L 353 113 L 334 112 L 326 109 L 300 108 Z M 274 132 L 268 134 L 246 134 L 243 136 L 218 137 L 180 141 Q 171 139 172 143 L 200 145 L 206 147 L 218 147 L 231 150 L 243 150 L 249 152 L 261 152 L 264 154 L 276 154 Q 280 147 278 134 L 274 132 Z M 285 132 L 283 134 L 282 142 L 279 205 L 275 248 L 277 251 Q 280 250 279 253 L 264 254 L 262 256 L 268 265 L 268 282 L 277 293 L 282 307 L 288 331 L 289 344 L 291 345 L 302 345 L 381 337 L 386 331 Q 389 314 397 303 L 409 294 L 423 294 L 424 293 Q 433 291 438 295 L 445 306 Q 450 315 450 329 L 452 330 L 456 329 L 451 302 L 444 289 L 434 281 L 410 281 Q 401 282 396 286 L 387 296 L 375 326 L 365 330 L 323 332 L 320 334 L 305 334 L 298 328 L 298 269 L 295 261 L 292 263 Q 283 261 281 265 Q 280 269 284 270 L 293 269 L 294 272 L 291 274 Q 280 276 278 271 Q 276 262 281 261 L 280 253 Q 283 243 282 230 L 284 226 L 284 199 L 289 134 L 285 132 Z M 295 132 L 292 135 L 292 156 L 294 157 Q 314 157 332 161 L 341 161 L 348 156 L 362 155 L 363 154 L 363 142 L 357 139 L 346 139 L 338 138 L 335 136 L 313 135 L 308 133 L 295 132 Z M 370 141 L 368 143 L 368 158 L 367 159 L 367 226 L 366 233 L 370 234 L 372 228 L 372 143 L 370 141 Z M 162 142 L 159 146 L 158 176 Q 154 183 156 197 L 154 200 L 154 215 L 152 230 L 152 241 L 154 242 L 159 240 L 180 240 L 181 241 L 201 241 L 204 243 L 223 243 L 225 245 L 247 247 L 256 251 L 270 251 L 272 249 L 272 237 L 271 235 L 243 235 L 242 234 L 162 234 L 154 233 Q 153 230 158 231 L 160 229 L 160 212 L 167 144 L 162 142 Z M 379 142 L 377 144 Q 375 152 379 154 L 423 153 L 424 152 L 447 152 L 447 150 L 387 144 L 379 142 Z M 172 147 L 169 153 L 168 185 L 165 198 L 164 228 L 166 229 L 231 229 L 239 212 L 239 185 L 240 184 L 240 158 L 241 157 L 238 154 Q 229 156 226 152 L 204 151 L 194 150 L 191 148 L 172 147 Z M 468 153 L 466 155 L 466 227 L 465 228 L 467 230 L 470 229 L 471 228 L 471 155 L 468 153 Z M 450 154 L 448 156 L 379 159 L 376 162 L 376 196 L 378 197 L 391 198 L 400 204 L 411 197 L 428 197 L 431 195 L 451 196 L 461 201 L 462 201 L 462 158 Q 459 153 450 154 Z M 247 155 L 244 158 L 243 209 L 246 210 L 248 207 L 249 157 L 247 155 Z M 255 157 L 253 159 L 252 207 L 254 208 L 273 208 L 275 206 L 277 160 L 276 158 L 255 157 Z M 359 159 L 356 160 L 351 165 L 350 197 Q 352 200 361 198 Q 365 183 363 161 L 359 159 Z M 293 161 L 290 166 L 290 184 L 289 185 L 289 201 L 291 202 L 294 201 L 328 201 L 337 205 L 338 167 L 337 165 L 293 161 Z M 346 161 L 342 164 L 342 200 L 345 202 L 346 201 L 346 167 L 348 163 L 346 161 Z M 422 200 L 408 202 L 402 209 Q 404 221 400 228 L 400 236 L 405 243 L 405 254 L 407 255 L 422 254 L 423 253 Q 422 242 426 237 L 434 230 L 448 229 L 452 213 L 451 205 L 447 200 L 422 200 Z M 378 201 L 376 203 L 376 226 Q 373 227 374 232 Q 375 234 381 233 L 383 231 L 385 219 L 384 205 L 378 201 Z M 352 202 L 348 203 L 341 210 L 341 230 L 337 255 Q 339 258 345 256 Q 348 254 346 247 L 350 239 Q 352 233 361 233 L 362 232 L 362 204 Q 360 200 352 202 Z M 389 202 L 387 204 L 388 207 L 388 217 L 385 231 Q 387 234 396 232 L 397 231 L 397 220 L 399 217 L 397 208 Q 395 203 389 202 Z M 454 204 L 452 227 Q 453 229 460 228 L 463 218 L 462 210 L 457 204 L 454 204 Z M 297 205 L 288 209 L 290 214 L 295 211 L 308 212 L 313 220 L 313 246 L 311 251 L 308 253 Q 300 251 298 255 L 298 260 L 304 273 L 316 272 L 317 271 L 318 250 L 324 220 L 324 211 L 319 205 L 297 205 Z M 327 205 L 325 207 L 326 210 L 324 240 L 320 260 L 320 272 L 330 272 Q 336 253 336 227 L 338 224 Q 339 214 335 210 L 327 205 Z M 253 212 L 245 214 L 236 224 L 236 229 L 238 230 L 271 230 L 272 231 L 273 230 L 273 214 L 272 212 L 253 212 Z M 142 213 L 140 215 L 140 240 Q 141 242 147 241 L 148 240 L 149 215 Q 148 211 142 213 Z M 294 216 L 291 219 L 291 231 L 289 233 Q 288 242 291 247 L 294 249 L 307 249 L 308 248 L 308 218 L 307 216 L 294 216 Z M 476 228 L 472 232 L 466 231 L 455 233 L 437 233 L 432 235 L 427 245 L 427 267 L 431 268 L 432 267 L 432 246 L 433 244 L 440 238 L 471 238 L 473 237 L 473 240 L 473 264 L 475 265 L 478 264 L 478 232 L 477 231 Q 478 227 476 228 Z M 363 236 L 356 238 L 350 246 L 350 312 L 349 313 L 350 319 Q 329 322 304 322 L 302 324 L 305 330 L 339 329 L 353 327 L 354 326 L 355 318 L 355 251 L 356 248 L 362 242 L 393 242 L 396 247 L 396 268 L 398 269 L 401 268 L 400 241 L 395 236 L 363 236 Z M 442 241 L 440 242 Q 435 244 436 251 Q 437 253 443 252 L 446 244 L 442 241 Z M 463 241 L 460 244 Q 458 249 462 251 L 469 251 L 469 243 Q 468 240 463 241 Z M 450 242 Q 446 244 447 251 Q 448 253 454 252 Q 457 250 457 244 Q 456 240 450 242 Z M 384 244 L 381 252 L 383 257 L 391 256 Q 394 254 392 247 Q 390 243 384 244 Z M 148 245 L 147 246 L 125 246 L 122 248 L 88 251 Q 74 253 65 259 L 61 266 L 63 267 L 123 268 L 124 269 L 137 269 L 140 271 L 158 272 L 161 266 Q 167 258 179 256 L 194 255 L 197 253 L 205 252 L 226 252 L 227 251 Q 235 253 234 249 L 194 245 L 148 245 Z M 363 246 Q 358 248 358 255 L 361 257 L 377 257 Q 380 254 379 248 L 378 246 L 363 246 Z M 246 252 L 194 256 Q 188 260 178 259 L 167 264 L 161 272 L 173 276 L 179 284 L 196 279 L 213 279 L 216 277 L 229 277 L 230 276 L 255 276 L 266 279 Q 268 265 262 259 Q 258 251 246 252 Z M 291 253 L 287 254 L 285 258 Q 286 260 292 259 L 295 255 L 291 253 Z M 466 255 L 465 256 L 443 256 L 436 259 Q 434 264 438 266 L 468 264 Q 470 263 469 258 L 466 255 Z M 410 258 L 407 259 L 404 264 L 407 268 L 422 267 Q 425 266 423 260 L 422 258 L 410 258 Z M 337 260 L 335 262 L 335 273 Q 337 276 344 274 L 345 273 L 345 262 Q 343 258 337 260 Z M 361 261 L 359 263 Q 357 268 361 270 L 389 270 L 391 269 Q 393 268 392 263 L 391 261 L 361 261 Z M 471 268 L 446 270 L 421 270 L 418 272 L 361 274 L 359 276 L 359 322 L 358 323 L 360 326 L 371 325 L 374 322 L 376 312 L 385 293 L 398 281 Q 403 278 413 279 L 415 277 L 433 277 L 443 282 Q 457 295 458 322 L 460 323 L 471 323 L 472 322 L 473 313 L 479 307 L 479 270 Q 477 266 471 268 Z M 54 270 L 49 272 Q 41 277 39 288 L 39 320 L 41 321 L 56 321 L 92 325 L 172 330 L 173 329 Q 173 309 176 294 L 175 285 L 168 277 L 154 274 L 103 272 L 99 270 L 54 270 Z M 315 276 L 304 277 L 302 279 Q 300 287 304 289 L 328 289 L 330 288 Q 334 286 332 279 L 330 276 L 315 276 Z M 337 278 Q 334 280 335 286 Q 337 289 344 287 Q 347 286 345 280 Q 343 276 337 278 Z M 239 280 L 221 282 L 199 282 L 182 285 L 179 288 L 176 329 Q 178 332 186 330 L 192 314 L 198 306 L 209 299 L 240 295 Q 254 293 262 298 L 267 305 L 273 319 L 279 348 L 282 350 L 286 349 L 286 340 L 280 313 L 272 292 L 261 281 L 239 280 Z M 342 291 L 325 293 L 304 293 L 302 295 L 302 318 L 304 319 Q 321 316 344 317 L 345 316 L 345 293 L 342 291 Z M 415 297 L 407 299 L 403 304 Q 423 302 434 310 Q 443 316 444 330 Q 446 333 447 330 Q 446 313 439 303 L 433 297 L 415 297 Z M 236 300 L 235 301 L 217 301 L 203 307 L 194 319 L 196 321 L 207 312 L 222 308 Q 242 307 254 316 L 265 330 L 271 349 L 276 348 L 270 322 L 263 306 L 256 300 L 236 300 Z M 401 309 L 398 310 L 386 338 L 382 341 Q 376 340 375 343 L 375 361 L 380 373 Q 387 383 403 384 L 403 382 L 394 372 L 390 358 Q 388 331 400 319 Q 404 312 411 311 L 411 309 L 401 309 Z M 480 309 L 476 313 L 476 329 Q 477 331 483 330 L 484 329 L 485 313 L 480 309 Z M 420 310 L 408 315 Q 397 323 394 338 L 394 361 L 400 377 L 411 384 Q 424 386 430 380 L 438 371 L 443 355 L 443 336 L 435 317 Q 430 310 420 310 Z M 218 313 Q 207 314 202 320 L 190 335 L 189 359 L 182 365 L 182 373 L 189 389 Q 197 401 215 402 L 205 391 Q 199 382 198 370 Q 197 344 208 330 L 224 316 L 230 315 L 230 313 L 218 313 Z M 237 315 L 222 320 Q 206 331 202 353 L 202 375 L 210 393 Q 216 400 227 403 Q 244 405 252 396 Q 262 386 266 370 L 266 344 L 255 323 Q 249 315 237 315 Z M 29 322 L 27 324 L 26 334 L 27 344 L 38 348 L 91 352 L 94 354 L 112 354 L 122 355 L 125 357 L 141 357 L 157 359 L 184 359 Q 187 357 185 349 L 187 346 L 186 336 L 185 334 L 154 334 L 153 333 L 138 333 L 135 331 L 116 331 L 115 330 L 73 328 L 70 326 L 42 325 L 29 322 Z M 461 326 L 459 328 L 461 332 L 471 331 L 472 328 L 471 326 L 461 326 Z M 449 334 Q 445 336 447 342 Q 449 345 450 342 Q 451 335 449 334 Z M 357 343 L 350 345 L 326 346 L 314 348 L 294 348 L 288 353 Q 283 352 284 355 L 322 353 L 325 351 L 339 351 L 356 348 L 369 348 L 370 345 L 369 343 L 357 343 Z M 273 352 L 271 354 L 270 366 Q 273 369 280 369 L 274 361 Q 276 354 273 352 Z M 53 353 L 51 355 Q 51 366 56 372 Q 64 380 78 383 Q 84 385 83 381 L 79 379 Q 68 373 67 357 L 65 354 L 53 353 Z M 72 355 L 70 357 Q 69 365 73 370 Q 79 378 90 382 L 104 382 L 114 377 Q 121 372 123 361 L 122 359 L 72 355 Z M 298 358 L 297 359 L 280 359 L 279 364 Q 282 368 290 369 L 300 367 L 306 360 L 306 358 L 298 358 Z " /><path fill="rgb(0,0,0)" stroke="rgb(0,0,0)" stroke-width="0.6" opacity="1" d="M 281.5 115 L 285 117.5 L 286 125 Q 282.3 126.3 284 120.5 L 281.5 115 Z " /><path fill="rgb(0,0,0)" stroke="rgb(0,0,0)" stroke-width="0.6" opacity="1" d="M 52.5 278 Q 61.9 276.6 65 281.5 L 69 288.5 L 70 296.5 Q 68.4 307.4 60.5 312 L 52.5 312 L 45 305.5 L 42 293.5 Q 43.5 284.5 49.5 280 L 52.5 278 Z M 54 282 L 52 283 L 46 294 L 48 305 Q 50 310 60 309 L 66 301 Q 67 291 64 286 Q 61 281 54 282 Z " /><path fill="rgb(0,0,0)" stroke="rgb(0,0,0)" stroke-width="0.6" opacity="1" d="M 78.5 282 L 83 284.5 L 83 310.5 L 78.5 317 L 74 314.5 L 74 287.5 L 78.5 282 Z " /><path fill="rgb(0,0,0)" stroke="rgb(0,0,0)" stroke-width="0.6" opacity="1" d="M 92.5 283 Q 98.3 282.3 99 286.5 L 98 313.5 L 93.5 318 L 89 315.5 L 88 297.5 L 89 287.5 L 92.5 283 Z " /><path fill="rgb(0,0,0)" stroke="rgb(0,0,0)" stroke-width="0.6" opacity="1" d="M 108.5 284 Q 113.8 282.8 115 285.5 L 116 294.5 L 115 295.5 L 115 313.5 L 110.5 319 Q 105.8 319.8 105 316.5 L 104 305.5 L 105 304.5 L 105 288.5 L 108.5 284 Z " /><path fill="rgb(0,0,0)" stroke="rgb(0,0,0)" stroke-width="0.6" opacity="1" d="M 127.5 284 L 132 287.5 L 132 315.5 L 127.5 320 Q 122.8 320.8 122 317.5 L 121 302.5 L 122 289.5 L 127.5 284 Z " /><path fill="rgb(0,0,0)" stroke="rgb(0,0,0)" stroke-width="0.6" opacity="1" d="M 150.5 284 L 157.5 284 L 165 291.5 Q 167.8 296.7 167 305.5 Q 165.1 315.1 157.5 319 L 151.5 320 L 141 311.5 Q 137.7 306.8 139 297.5 L 146.5 286 L 150.5 284 Z M 153 287 L 151 288 Q 144 291 143 299 Q 142 307 145 312 Q 147 316 153 316 L 158 315 L 164 306 L 164 297 L 161 291 L 153 287 Z " /><path fill="rgb(0,0,0)" stroke="rgb(0,0,0)" stroke-width="0.6" opacity="1" d="M 417.5 326 Q 427.2 324.8 430 330.5 Q 436.5 336.5 434 351.5 Q 431.9 363.9 422.5 369 L 415.5 369 L 407 361.5 L 405 356.5 L 404 345.5 Q 405.7 333.8 413.5 328 L 417.5 326 Z M 421 328 L 418 329 L 411 336 L 408 344 Q 407 356 411 363 Q 414 367 423 366 Q 429 362 431 354 Q 433 340 428 333 Q 426 328 421 328 Z " /><path fill="rgb(0,0,0)" stroke="rgb(0,0,0)" stroke-width="0.6" opacity="1" d="M 234.5 333 Q 244.7 332.8 249 338.5 L 255 350.5 L 255 365.5 Q 252.1 377.1 243.5 383 Q 240 387 231.5 386 L 220 376.5 L 216 365.5 L 216 356.5 Q 218.5 344 226.5 337 L 234.5 333 Z M 234 337 L 229 340 Q 220 346 219 360 Q 219 370 223 377 L 234 383 Q 241 383 245 379 Q 250 374 252 365 Q 254 351 249 345 L 241 337 L 234 337 Z " /><path fill="rgb(0,0,0)" stroke="rgb(0,0,0)" stroke-width="0.6" opacity="1" d="M 418.5 339 Q 424.3 338.3 425 342.5 L 425 349.5 L 421.5 355 L 420 353.5 Q 424.5 352 423 344.5 L 419.5 342 Q 415 343 416 349.5 L 418 353.5 L 416.5 354 Q 412.5 352.5 414 345.5 L 418.5 339 Z " /><path fill="rgb(0,0,0)" stroke="rgb(0,0,0)" stroke-width="0.6" opacity="1" d="M 234.5 349 Q 241.8 347.8 243 352.5 L 244 362.5 L 237.5 370 Q 230 371 229 365.5 L 228 357.5 L 234.5 349 Z M 236 352 Q 229 354 231 365 Q 233 368 239 367 Q 243 364 241 356 L 236 352 Z " /><path fill="rgb(224,75,58)" stroke="rgb(224,75,58)" stroke-width="0.6" opacity="1" d="M 273.5 133 L 278 134.5 Q 279.7 146.7 275.5 153 L 252.5 152 L 222.5 147 L 209.5 147 Q 203.4 143.6 192.5 145 L 188.5 143 L 178 143 Q 176.7 139.3 182.5 141 L 244.5 135 L 266.5 135 L 273.5 133 Z " /><path fill="rgb(224,75,58)" stroke="rgb(224,75,58)" stroke-width="0.6" opacity="1" d="M 161.5 143 L 166 144.5 L 161 209.5 L 159 212.5 L 159 228.5 L 157.5 230 L 154 227.5 L 156 186.5 L 159 173.5 L 160 144.5 L 161.5 143 Z " /><path fill="rgb(224,75,58)" stroke="rgb(224,75,58)" stroke-width="0.6" opacity="1" d="M 172.5 148 L 235.5 154 L 240 156.5 L 239 159.5 L 239 186.5 L 238 187.5 L 238 213.5 L 234 217.5 L 229.5 229 L 165.5 229 L 164 227.5 Q 162.2 218.7 166 215.5 L 166 196.5 L 169 183.5 L 170 151.5 L 172.5 148 Z " /><path fill="rgb(224,75,58)" stroke="rgb(224,75,58)" stroke-width="0.6" opacity="1" d="M 357.5 160 Q 362.3 159.3 363 162.5 Q 365.1 183.1 360.5 197 Q 352.3 199.3 350 195.5 L 351 165.5 L 355.5 161 L 357.5 160 Z " /><path fill="rgb(224,75,58)" stroke="rgb(224,75,58)" stroke-width="0.6" opacity="1" d="M 422.5 200 L 445.5 200 L 450 204.5 L 451 213.5 L 446.5 228 L 433.5 229 L 425 236.5 L 423 240.5 L 422 250.5 L 421.5 253 L 406.5 254 L 405 252.5 L 405 240.5 L 400 234.5 L 400 231.5 Q 403.6 223.6 403 211.5 L 402 209.5 L 406.5 204 L 409.5 202 Q 419 204 422.5 200 Z " /><path fill="rgb(224,75,58)" stroke="rgb(224,75,58)" stroke-width="0.6" opacity="1" d="M 355.5 202 Q 360.8 200.8 362 203.5 L 362 230.5 L 360.5 232 Q 351.5 232 349 238.5 L 343.5 255 L 338 253.5 L 341 234.5 L 341 210.5 L 347.5 204 L 355.5 202 Z " /><path fill="rgb(224,75,58)" stroke="rgb(224,75,58)" stroke-width="0.6" opacity="1" d="M 388 203 Q 393.6 203.1 396 207.5 L 398 217.5 Q 393.8 221.4 396 231 L 387.5 231 L 386 229.5 Q 389.6 218.5 388 203 Z " /><path fill="rgb(224,75,58)" stroke="rgb(224,75,58)" stroke-width="0.6" opacity="1" d="M 326 206 L 334 209.5 Q 338.2 214.3 337 224.5 L 335 227.5 L 334 248.5 L 331 266.5 L 328.5 272 Q 321.8 273.7 320 270.5 L 322 248.5 L 326 229.5 L 327 210.5 L 326 206 Z " /><path fill="rgb(224,75,58)" stroke="rgb(224,75,58)" stroke-width="0.6" opacity="1" d="M 441.5 242 L 445 243.5 L 441.5 252 L 436 250.5 Q 435.3 244.3 439.5 243 L 441.5 242 Z " /><path fill="rgb(224,75,58)" stroke="rgb(224,75,58)" stroke-width="0.6" opacity="1" d="M 148.5 245 L 192.5 245 L 219.5 247 Q 221.2 250.5 227 249 L 226.5 251 L 205.5 251 L 201.5 253 L 174.5 256 Q 164.9 258.4 160 265.5 L 157.5 271 L 124.5 269 L 121.5 267 L 62 266 L 62 263.5 L 67.5 258 L 77.5 254 L 92.5 251 L 111.5 250 L 114.5 248 L 123.5 247 L 145.5 247 L 148.5 245 Z " /><path fill="rgb(224,75,58)" stroke="rgb(224,75,58)" stroke-width="0.6" opacity="1" d="M 278.5 253 L 281 254.5 Q 282 260.5 278 261.5 L 278 272.5 Q 281.1 276.9 290.5 275 L 294 272.5 L 292.5 269 Q 284.3 271.3 282 267.5 L 283.5 263 L 294.5 263 L 296 264.5 L 298 270.5 L 298 328.5 L 303.5 334 L 362.5 331 Q 365.2 328.2 371.5 329 L 376 325.5 L 388 295.5 L 395.5 287 L 408.5 282 L 433.5 282 L 443 288.5 L 450 301.5 L 455 329 L 451 327.5 L 450 317.5 L 445 303.5 L 437.5 294 Q 433.5 290.5 424.5 292 L 406.5 294 L 396 302.5 Q 387.9 313.9 385 330.5 L 379.5 337 L 303.5 344 L 291.5 344 L 290 342.5 L 289 330.5 L 281 300.5 Q 278 288.5 269 282.5 L 269 265.5 L 264 255 L 278.5 253 Z " /><path fill="rgb(224,75,58)" stroke="rgb(224,75,58)" stroke-width="0.6" opacity="1" d="M 53.5 283 Q 60.4 282.1 63 285.5 Q 66.4 290.6 65 300.5 L 58.5 308 L 54.5 308 L 48 302.5 L 47 292.5 L 53.5 283 Z " /><path fill="rgb(224,75,58)" stroke="rgb(224,75,58)" stroke-width="0.6" opacity="1" d="M 326.5 292 L 343.5 292 L 345 293.5 L 345 314.5 L 343.5 316 L 319.5 316 L 315.5 318 L 308.5 317 L 304.5 318 L 303 316.5 L 303 295.5 L 310.5 293 L 325.5 293 L 326.5 292 Z " /><path fill="rgb(224,75,58)" stroke="rgb(224,75,58)" stroke-width="0.6" opacity="1" d="M 418.5 297 L 431.5 297 L 438 302.5 L 445 322 L 443 320.5 L 433.5 309 L 422.5 304 L 405 303 L 406.5 300 L 418.5 297 Z " /><path fill="rgb(224,75,58)" stroke="rgb(224,75,58)" stroke-width="0.6" opacity="1" d="M 479.5 310 L 484 312.5 L 484 327.5 L 482.5 329 Q 477.3 330.3 476 327.5 L 476 313.5 L 479.5 310 Z " /><path fill="rgb(224,75,58)" stroke="rgb(224,75,58)" stroke-width="0.6" opacity="1" d="M 236.5 353 L 240 355.5 Q 242 364 237.5 366 Q 232.8 366.8 232 363.5 Q 230.9 354.9 236.5 353 Z " /><path fill="rgb(224,75,58)" stroke="rgb(224,75,58)" stroke-width="0.6" opacity="1" d="M 298.5 358 Q 305.5 356.5 305 359.5 L 299.5 366 Q 295.9 368.9 288.5 368 L 280 363.5 L 279 360.5 L 280.5 359 L 297.5 359 L 298.5 358 Z " /><path fill="rgb(49,53,52)" stroke="rgb(49,53,52)" stroke-width="0.6" opacity="1" d="M 267.5 110 L 277.5 110 L 278 113 L 279.5 113 L 282 114.5 L 281 116.5 Q 285.1 118.8 284 125 L 286 126.5 L 286.5 128 L 283.5 127 L 277.5 129 L 257.5 129 Q 222.9 133.9 184.5 135 L 179.5 137 L 150.5 138 L 149 133.5 L 154.5 126 L 162.5 122 L 188.5 117 L 199.5 117 L 203.5 115 L 216.5 115 L 267.5 110 Z " /><path fill="rgb(49,53,52)" stroke="rgb(49,53,52)" stroke-width="0.6" opacity="1" d="M 246.5 155 L 249 156.5 L 248 204.5 L 245.5 210 L 243 208.5 L 244 160.5 L 246.5 155 Z " /><path fill="rgb(49,53,52)" stroke="rgb(49,53,52)" stroke-width="0.6" opacity="1" d="M 281.5 156 L 282 167.5 L 281 167.5 L 281.5 156 Z " /><path fill="rgb(49,53,52)" stroke="rgb(49,53,52)" stroke-width="0.6" opacity="1" d="M 345.5 161 L 348 162.5 L 346 166.5 L 346 199.5 L 344.5 201 Q 341.1 201.9 343 196.5 L 342 195.5 L 342 164.5 L 345.5 161 Z " /><path fill="rgb(49,53,52)" stroke="rgb(49,53,52)" stroke-width="0.6" opacity="1" d="M 279.5 190 L 280 202.5 L 279 202.5 L 279.5 190 Z " /><path fill="rgb(49,53,52)" stroke="rgb(49,53,52)" stroke-width="0.6" opacity="1" d="M 297.5 205 L 318.5 205 L 323 209.5 L 324 218.5 L 318 248.5 L 317 269.5 L 314.5 272 L 302 272 L 302 267.5 L 298 259.5 L 298 254.5 Q 300.3 250.8 308.5 253 L 311 250.5 L 313 245.5 L 313 219.5 L 307.5 212 L 294.5 211 L 288 213 L 289.5 207 L 297.5 205 Z " /><path fill="rgb(49,53,52)" stroke="rgb(49,53,52)" stroke-width="0.6" opacity="1" d="M 371.5 207 L 372 218.5 L 371 218.5 L 371.5 207 Z " /><path fill="rgb(49,53,52)" stroke="rgb(49,53,52)" stroke-width="0.6" opacity="1" d="M 252.5 212 L 271.5 212 L 273 213.5 L 273 230 L 237.5 230 L 236 224.5 L 243.5 215 L 252.5 212 Z " /><path fill="rgb(49,53,52)" stroke="rgb(49,53,52)" stroke-width="0.6" opacity="1" d="M 449.5 242 Q 455.5 240.5 457 243.5 Q 457.4 249.9 453.5 252 Q 448.3 253.3 447 250.5 Q 446 244 449.5 242 Z " /><path fill="rgb(49,53,52)" stroke="rgb(49,53,52)" stroke-width="0.6" opacity="1" d="M 465.5 255 L 469 257.5 Q 470.3 262.8 467.5 264 L 437.5 266 Q 434.5 264.5 436 258.5 L 442.5 256 L 464.5 256 L 465.5 255 Z " /><path fill="rgb(49,53,52)" stroke="rgb(49,53,52)" stroke-width="0.6" opacity="1" d="M 337.5 260 Q 343.5 258.5 345 261.5 L 345 272.5 L 343.5 274 Q 336.5 275.5 335 271.5 Q 332.7 262.3 337.5 260 Z " /><path fill="rgb(49,53,52)" stroke="rgb(49,53,52)" stroke-width="0.6" opacity="1" d="M 470.5 268 Q 477.2 266.3 479 269.5 L 479 306.5 L 476.5 309 L 473 311.5 L 472 320.5 L 469.5 323 Q 460.3 325.3 458 320.5 Q 457 296 444.5 283 L 432.5 277 L 414.5 277 L 412.5 279 Q 402.9 277.9 397.5 281 L 384 293.5 Q 376.8 304.8 374 320.5 L 370.5 325 L 359.5 326 L 358 323.5 L 359 322.5 L 359 275.5 L 360.5 274 L 417.5 272 L 423.5 270 L 448.5 270 L 470.5 268 Z " /><path fill="rgb(49,53,52)" stroke="rgb(49,53,52)" stroke-width="0.6" opacity="1" d="M 150.5 288 Q 159.3 286.3 161 291.5 Q 165.2 295.3 164 304.5 L 157.5 315 Q 147.3 317.3 145 311.5 Q 141.9 307.1 143 298.5 Q 144.8 291.3 150.5 288 Z " /><path fill="rgb(49,53,52)" stroke="rgb(49,53,52)" stroke-width="0.6" opacity="1" d="M 303.5 293 L 309 293.5 L 303 294 L 303 317.5 L 304.5 318 L 304.5 319 L 302 317.5 L 302 294.5 L 303.5 293 Z " /><path fill="rgb(49,53,52)" stroke="rgb(49,53,52)" stroke-width="0.6" opacity="1" d="M 400.5 309 L 409.5 309 L 410 311 Q 403.2 312.1 400 318.5 Q 387.7 331.2 390 358.5 L 394 371.5 L 403 384 Q 386.7 383.7 380 372.5 L 375 360.5 L 375 343.5 L 386 337.5 L 391 328.5 L 397.5 310 L 400.5 309 Z " /><path fill="rgb(49,53,52)" stroke="rgb(49,53,52)" stroke-width="0.6" opacity="1" d="M 415.5 311 Q 431.9 308.6 436 318.5 L 443 337.5 L 443 354.5 Q 440.3 371.3 429.5 380 Q 423.8 385.8 410.5 384 L 401 377.5 L 394 359.5 L 394 338.5 Q 397.1 324.1 406.5 316 L 415.5 311 Z M 419 325 L 414 328 Q 405 333 404 346 Q 403 363 415 369 L 425 368 L 431 362 L 435 349 L 434 338 L 431 332 Q 428 325 419 325 Z " /><path fill="rgb(49,53,52)" stroke="rgb(49,53,52)" stroke-width="0.6" opacity="1" d="M 217.5 313 L 228.5 313 L 229 315 L 224.5 314 L 224.5 315 L 226 315.5 Q 215 320.5 208 329.5 L 200 346.5 L 198 370.5 L 201 382.5 L 205 390.5 L 215 402 Q 197.2 400.4 189 388.5 L 183 375.5 L 182 364.5 L 189 358.5 L 190 334.5 L 201.5 320 L 217.5 313 Z " /><path fill="rgb(49,53,52)" stroke="rgb(49,53,52)" stroke-width="0.6" opacity="1" d="M 28.5 322 L 40.5 325 L 68.5 326 L 72.5 328 L 113.5 331 L 132.5 331 L 137.5 333 L 152.5 333 L 153.5 334 L 184.5 334 L 186 335.5 L 187 344.5 Q 183.5 348.5 185 357.5 L 183.5 359 L 156.5 359 L 141.5 357 L 126.5 357 L 121.5 355 L 95.5 354 L 90.5 352 L 38.5 348 Q 29.4 347.6 26 341.5 L 27 323.5 L 28.5 322 Z " /><path fill="rgb(49,53,52)" stroke="rgb(49,53,52)" stroke-width="0.6" opacity="1" d="M 417.5 329 Q 426.3 327.3 428 332.5 Q 432.8 339.7 431 353.5 Q 429.6 361.6 423.5 365 L 416.5 366 L 411 362.5 Q 406.6 356.4 408 344.5 Q 409.6 333.6 417.5 329 Z M 419 339 Q 413 342 414 353 Q 415 356 422 355 Q 427 352 425 343 Q 424 338 419 339 Z " /><path fill="rgb(49,53,52)" stroke="rgb(49,53,52)" stroke-width="0.6" opacity="1" d="M 52.5 353 L 64.5 354 L 67 356.5 Q 67.8 372.7 78.5 379 L 82 381.5 Q 82.9 384.5 78.5 383 Q 64.4 380.1 56 371.5 Q 50.9 365.6 51 354.5 L 52.5 353 Z " /><path fill="rgb(49,53,52)" stroke="rgb(49,53,52)" stroke-width="0.6" opacity="1" d="M 272.5 353 Q 275.5 354.5 274 360.5 L 278.5 367 L 280 369 L 271 367 L 271 354.5 L 272.5 353 Z " /><path fill="rgb(74,133,178)" stroke="rgb(74,133,178)" stroke-width="0.6" opacity="1" d="M 285.5 132 L 288 133.5 L 287 166.5 L 283 209.5 L 283 227.5 L 281 249.5 L 279.5 251 L 276 249.5 L 276 235.5 Q 279 223.5 278 207.5 L 280 202.5 L 280 190.5 L 279 187.5 L 282 168.5 L 282 142.5 L 283 134.5 L 285.5 132 Z " /><path fill="rgb(74,133,178)" stroke="rgb(74,133,178)" stroke-width="0.6" opacity="1" d="M 378 143 L 434 149.5 L 432 150.5 L 434 151.5 L 429.5 152 L 427.5 151 L 426.5 152 L 381.5 154 L 377 151.5 L 378 143 Z " /><path fill="rgb(74,133,178)" stroke="rgb(74,133,178)" stroke-width="0.6" opacity="1" d="M 449.5 155 Q 457.8 154 461 157 L 462 159.5 L 462 200 L 453.5 196 L 429.5 195 L 408.5 197 L 399.5 203 L 391.5 198 L 378.5 197 L 376 194.5 L 377 191.5 L 376 183.5 L 377 182.5 L 377 160.5 L 378.5 159 L 448.5 156 L 449.5 155 Z " /><path fill="rgb(74,133,178)" stroke="rgb(74,133,178)" stroke-width="0.6" opacity="1" d="M 294.5 161 L 332.5 165 L 338 167.5 L 337 168.5 L 337 202.5 L 335.5 204 L 329.5 201 L 305.5 200 L 304.5 201 L 290.5 201 L 289 195.5 L 290 194.5 L 291 163.5 L 292.5 162 L 294.5 161 Z " /><path fill="rgb(74,133,178)" stroke="rgb(74,133,178)" stroke-width="0.6" opacity="1" d="M 377.5 202 L 384 204.5 L 385 215.5 L 380.5 232 L 376.5 233 L 374 229.5 L 376 226.5 L 376 203.5 L 377.5 202 Z " /><path fill="rgb(74,133,178)" stroke="rgb(74,133,178)" stroke-width="0.6" opacity="1" d="M 475.5 229 L 478 234.5 L 478 263.5 L 475.5 265 L 473 262.5 L 473 240.5 L 475 237 L 444.5 238 L 442.5 237 Q 434.5 238 432 244.5 L 432 266.5 L 430.5 268 L 428 266.5 L 427 245.5 L 433.5 235 L 438.5 233 Q 454.4 235.4 463.5 231 Q 465.5 234 471.5 233 L 475.5 229 Z " /><path fill="rgb(74,133,178)" stroke="rgb(74,133,178)" stroke-width="0.6" opacity="1" d="M 153.5 233 L 157.5 234 L 159.5 233 L 160.5 234 L 269.5 235 L 272 237.5 L 271 248.5 L 269.5 250 L 256.5 251 L 248.5 247 L 229.5 245 L 223.5 243 L 201.5 241 L 181.5 241 L 180.5 240 L 157.5 240 L 153.5 241 Q 150.8 239.8 152 234.5 L 153.5 233 Z " /><path fill="rgb(74,133,178)" stroke="rgb(74,133,178)" stroke-width="0.6" opacity="1" d="M 362.5 246 L 377.5 246 L 379 247.5 Q 379 254 375.5 257 L 360.5 256 L 359 254.5 Q 358.1 247.6 362.5 246 Z " /><path fill="rgb(74,133,178)" stroke="rgb(74,133,178)" stroke-width="0.6" opacity="1" d="M 411.5 258 L 421.5 258 L 423 259.5 Q 424.5 265.5 421.5 267 L 405.5 267 L 405 262.5 L 411.5 258 Z " /><path fill="rgb(74,133,178)" stroke="rgb(74,133,178)" stroke-width="0.6" opacity="1" d="M 55.5 270 L 62.5 271 L 72.5 270 L 73.5 271 L 100.5 271 L 126.5 274 L 155.5 275 L 167.5 278 L 174 284.5 L 176 292.5 L 174 299.5 L 173 322.5 L 170.5 330 L 43.5 321 L 39 318.5 L 39 289.5 L 43 278.5 L 48.5 273 L 55.5 270 Z M 52 278 L 49 280 L 42 291 Q 41 301 45 307 L 54 313 L 63 312 L 67 308 L 70 299 Q 71 288 67 284 Q 65 276 52 278 Z M 78 282 L 74 287 L 74 306 L 73 307 L 74 316 L 80 317 L 83 312 L 83 284 L 78 282 Z M 94 282 L 92 283 L 89 287 L 88 295 L 88 315 L 89 317 Q 90 319 96 318 L 98 316 L 99 286 L 94 282 Z M 109 283 L 105 288 Q 107 301 103 308 L 105 318 Q 106 320 112 319 L 115 315 L 115 298 L 116 297 Q 117 288 115 284 L 109 283 Z M 152 283 L 146 286 L 139 297 Q 137 307 141 313 L 153 321 L 160 319 L 165 314 L 168 305 L 165 290 Q 162 282 152 283 Z M 126 284 L 122 288 L 121 299 L 122 319 Q 123 321 130 320 L 132 318 L 132 299 L 133 298 L 132 287 Q 131 283 126 284 Z " /><path fill="rgb(74,133,178)" stroke="rgb(74,133,178)" stroke-width="0.6" opacity="1" d="M 315.5 276 L 329.5 276 L 331 277.5 Q 333.3 285.8 329.5 288 L 303.5 289 Q 299.8 286.8 302 278.5 L 303.5 277 L 315.5 276 Z " /><path fill="rgb(74,133,178)" stroke="rgb(74,133,178)" stroke-width="0.6" opacity="1" d="M 337.5 278 Q 343.5 276.5 345 279.5 Q 346.5 285.5 343.5 287 Q 336.8 288.8 335 285.5 L 337.5 278 Z " /><path fill="rgb(74,133,178)" stroke="rgb(74,133,178)" stroke-width="0.6" opacity="1" d="M 239.5 280 Q 252.1 278.9 260.5 282 L 271 291.5 L 274 295.5 L 279 311.5 L 286 347.5 L 281.5 349 L 279 344.5 L 272 314.5 L 267 303.5 L 260.5 297 Q 254.3 293.2 243.5 294 L 237.5 296 L 209.5 298 Q 199.1 301 194 309.5 L 188 319.5 Q 188.3 326.8 184.5 330 Q 177.8 331.8 176 328.5 L 180 286 L 195.5 283 L 216.5 282 L 218.5 283 L 222.5 281 L 238.5 281 L 239.5 280 Z " /><path fill="rgb(74,133,178)" stroke="rgb(74,133,178)" stroke-width="0.6" opacity="1" d="M 351.5 319 Q 356.5 317.6 354 324.5 L 351.5 327 L 306.5 330 L 304 329 L 302 325.5 L 304.5 323 L 311.5 322 L 340.5 321 L 351.5 319 Z " /><path fill="rgb(74,133,178)" stroke="rgb(74,133,178)" stroke-width="0.6" opacity="1" d="M 466.5 326 L 472 327.5 Q 473.1 330.8 470.5 330 L 460 331 L 461.5 327 L 466.5 326 Z " /><path fill="rgb(74,133,178)" stroke="rgb(74,133,178)" stroke-width="0.6" opacity="1" d="M 234.5 337 Q 245.2 336.8 248 344.5 Q 253.5 351 251 365.5 Q 249.2 375.2 242.5 380 Q 238.9 382.9 231.5 382 L 223 375.5 Q 218.6 369.4 220 357.5 Q 221.5 345.5 229.5 340 L 234.5 337 Z M 234 349 L 228 357 Q 227 365 230 369 L 239 370 L 245 362 L 243 352 Q 241 347 234 349 Z " /><path fill="rgb(74,133,178)" stroke="rgb(74,133,178)" stroke-width="0.6" opacity="1" d="M 71 355 L 122 360 Q 121.1 371.9 112.5 377 L 102.5 382 L 91.5 382 L 76 372.5 Q 70.7 367.3 70 357.5 L 71 355 Z " /><path fill="rgb(241,185,49)" stroke="rgb(241,185,49)" stroke-width="0.6" opacity="1" d="M 282.5 109 L 325.5 110 L 330.5 112 L 347.5 113 L 377.5 119 L 391.5 119 L 408.5 123 L 419.5 123 L 422.5 125 L 454.5 128 L 467.5 131 L 475 137.5 L 479 147.5 L 476.5 148 L 463.5 148 Q 457 144.5 445.5 146 L 442.5 144 L 410.5 142 L 407.5 140 L 393.5 140 L 390.5 138 L 367.5 137 L 364.5 135 L 327.5 132 L 309.5 128 L 287.5 127 L 286 125.5 L 287 120.5 L 281.5 113 L 279 111.5 Q 278.2 108.9 281.5 110 L 282.5 109 Z " /><path fill="rgb(241,185,49)" stroke="rgb(241,185,49)" stroke-width="0.6" opacity="1" d="M 294.5 133 Q 306.5 132 313.5 136 L 352.5 139 L 363 142.5 L 363 153.5 L 361.5 155 L 345.5 156 L 338.5 161 L 332.5 161 L 323.5 160 L 320.5 158 L 293.5 156 L 292 154.5 L 293 153.5 L 293 134.5 L 294.5 133 Z " /><path fill="rgb(241,185,49)" stroke="rgb(241,185,49)" stroke-width="0.6" opacity="1" d="M 369.5 142 L 372 143.5 L 371 149.5 L 371 232.5 L 369.5 234 L 366 231.5 L 367 230.5 L 367 159.5 L 368 158.5 L 368 143.5 L 369.5 142 Z " /><path fill="rgb(241,185,49)" stroke="rgb(241,185,49)" stroke-width="0.6" opacity="1" d="M 467.5 154 L 471 155.5 L 471 226.5 L 468.5 229 L 466 227.5 L 466 183.5 L 467 178.5 L 466 177.5 L 466 155.5 L 467.5 154 Z " /><path fill="rgb(241,185,49)" stroke="rgb(241,185,49)" stroke-width="0.6" opacity="1" d="M 255.5 158 L 276 159 L 274 205.5 L 272.5 207 L 252 207 L 252 184.5 L 253 183.5 L 253 162.5 L 255.5 158 Z " /><path fill="rgb(241,185,49)" stroke="rgb(241,185,49)" stroke-width="0.6" opacity="1" d="M 455 206 Q 459.7 205.3 461 209.5 L 462 218.5 L 458.5 228 Q 453.3 229.3 452 226.5 L 454 222.5 L 455 206 Z " /><path fill="rgb(241,185,49)" stroke="rgb(241,185,49)" stroke-width="0.6" opacity="1" d="M 142.5 214 L 148 214 L 148 228.5 L 147 239.5 L 145.5 241 L 140 237.5 L 141 234.5 L 140 233.5 L 140 217.5 L 142.5 214 Z " /><path fill="rgb(241,185,49)" stroke="rgb(241,185,49)" stroke-width="0.6" opacity="1" d="M 294.5 216 L 305.5 216 L 308 218.5 L 308 246.5 L 306.5 248 L 294.5 249 Q 288.3 244.7 290 232.5 L 291 219.5 L 294.5 216 Z " /><path fill="rgb(241,185,49)" stroke="rgb(241,185,49)" stroke-width="0.6" opacity="1" d="M 366.5 236 L 393.5 236 L 399 240.5 L 401 245.5 L 401 267.5 L 398.5 269 Q 393.6 260.9 396 245.5 L 392.5 241 L 364.5 241 Q 357.4 241.8 355 247.5 L 355 316.5 L 353.5 318 L 350 315.5 L 350 248.5 Q 351.8 241.3 357.5 238 L 366.5 236 Z " /><path fill="rgb(241,185,49)" stroke="rgb(241,185,49)" stroke-width="0.6" opacity="1" d="M 462.5 242 Q 468 241 469 244.5 Q 470.3 249.8 467.5 251 Q 462.3 252.3 461 249.5 Q 459.5 243.5 462.5 242 Z " /><path fill="rgb(241,185,49)" stroke="rgb(241,185,49)" stroke-width="0.6" opacity="1" d="M 384.5 245 Q 391 244 392 248.5 Q 393.5 254.5 390.5 256 Q 383.8 257.7 382 254.5 L 383 246.5 L 384.5 245 Z " /><path fill="rgb(241,185,49)" stroke="rgb(241,185,49)" stroke-width="0.6" opacity="1" d="M 246.5 252 Q 256.9 252.1 261 258.5 Q 266.7 263.8 265 276.5 L 261.5 278 L 257.5 276 L 228.5 276 L 213.5 278 L 197.5 278 L 185.5 280 L 179.5 283 L 172.5 275 L 163 271.5 L 166.5 265 L 176.5 260 Q 187.1 261.1 192.5 257 L 216.5 256 L 219.5 254 L 246.5 252 Z " /><path fill="rgb(241,185,49)" stroke="rgb(241,185,49)" stroke-width="0.6" opacity="1" d="M 360.5 261 L 390.5 261 L 392 262.5 Q 393 268 389.5 269 L 362.5 269 L 360.5 270 Q 357.5 268.5 359 262.5 L 360.5 261 Z " /><path fill="rgb(241,185,49)" stroke="rgb(241,185,49)" stroke-width="0.6" opacity="1" d="M 236.5 300 L 253.5 300 L 263 307.5 L 269 321.5 L 275 346.5 L 271.5 348 L 270 346.5 L 268 334.5 L 257.5 318 L 241.5 309 L 217.5 308 Q 204.8 309.8 197.5 317 L 197 315.5 L 205.5 306 L 215.5 302 L 232.5 302 L 236.5 300 Z " /><path fill="rgb(241,185,49)" stroke="rgb(241,185,49)" stroke-width="0.6" opacity="1" d="M 234.5 316 Q 247.8 315.7 254 322.5 L 265 343.5 L 266 365.5 Q 262.2 387.2 247.5 398 Q 240.5 404 225.5 402 Q 216.3 399.2 211 392.5 L 203 375.5 L 202 356.5 Q 205.7 332.7 221.5 321 L 234.5 316 Z M 233 333 L 227 336 Q 219 342 216 353 Q 214 368 219 377 L 230 386 Q 242 388 247 382 L 255 369 L 255 349 L 250 339 Q 246 331 233 333 Z " /><path fill="rgb(241,185,49)" stroke="rgb(241,185,49)" stroke-width="0.6" opacity="1" d="M 361.5 343 Q 368.3 341.3 370 344.5 L 368.5 347 L 289 354 L 292.5 349 L 311.5 349 L 315.5 347 L 354.5 345 L 361.5 343 Z " /><path fill="rgb(241,185,49)" stroke="rgb(241,185,49)" stroke-width="0.6" opacity="1" d="M 419.5 343 L 422 344.5 Q 423.5 350.5 420.5 352 L 417 349.5 Q 416 344 419.5 343 Z " /><path fill="rgb(27,27,27)" stroke="rgb(27,27,27)" stroke-width="0.6" opacity="1" d="M 158.5 284 L 164.5 291 L 158.5 284 Z " /><path fill="rgb(27,27,27)" stroke="rgb(27,27,27)" stroke-width="0.6" opacity="1" d="M 66.5 306 L 61.5 312 L 66.5 306 Z " /><path fill="rgb(27,27,27)" stroke="rgb(27,27,27)" stroke-width="0.6" opacity="1" d="M 164.5 312 L 159.5 318 L 164.5 312 Z " /><path fill="rgb(27,27,27)" stroke="rgb(27,27,27)" stroke-width="0.6" opacity="1" d="M 414.5 352 L 417.5 354 L 417.5 352 L 420 353 Q 421.3 356.3 416.5 355 L 414.5 352 Z " /><path fill="rgb(27,27,27)" stroke="rgb(27,27,27)" stroke-width="0.6" opacity="1" d="M 430.5 361 L 424.5 368 L 430.5 361 Z " /><path fill="rgb(101,82,54)" stroke="rgb(101,82,54)" stroke-width="0.6" opacity="1" d="M 371.5 192 L 372 206.5 L 371 206.5 L 371.5 192 Z " /><path fill="rgb(101,82,54)" stroke="rgb(101,82,54)" stroke-width="0.6" opacity="1" d="M 346.5 204 L 341.5 210 L 346.5 204 Z " /><path fill="rgb(101,82,54)" stroke="rgb(101,82,54)" stroke-width="0.6" opacity="1" d="M 298.5 328 L 303.5 334 L 298.5 328 Z " /><path fill="rgb(101,82,54)" stroke="rgb(101,82,54)" stroke-width="0.6" opacity="1" d="M 269.5 345 L 271.5 348 Q 275.9 349.5 275 346.5 L 276 346.5 L 274.5 349 Q 269.8 349.8 269 346.5 L 269.5 345 Z " /><path fill="rgb(198,177,48)" stroke="rgb(198,177,48)" stroke-width="0.6" opacity="1" d="M 371.5 149 L 372 173.5 L 371 173.5 L 371.5 149 Z " /><path fill="rgb(72,125,137)" stroke="rgb(72,125,137)" stroke-width="0.6" opacity="1" d="M 168.5 278 L 173.5 284 L 168.5 278 Z " /><path fill="rgb(72,125,137)" stroke="rgb(72,125,137)" stroke-width="0.6" opacity="1" d="M 159.5 284 L 164.5 290 L 159.5 284 Z " /><path fill="rgb(140,140,48)" stroke="rgb(140,140,48)" stroke-width="0.6" opacity="1" d="M 371.5 174 L 372 191.5 L 371 191.5 L 371.5 174 Z " /></svg>