<svg width="1254" height="1254" preserveAspectRatio="xMidYMid meet" viewBox="0 0 512 512" version="1.1" xmlns="http://www.w3.org/2000/svg" ><path fill="rgb(255,255,255)" stroke="rgb(255,255,255)" stroke-width="0.6" opacity="1" d="M 0 0 L 512 0 L 512 512 L 0 512 L 0 0 Z M 273 85 L 272 86 L 180 88 L 157 90 L 153 92 L 147 103 L 148 140 L 147 141 Q 129 140 117 144 L 92 157 L 80 171 L 66 200 L 59 221 L 55 220 Q 46 219 43 222 Q 36 227 35 239 Q 33 255 42 261 L 36 292 L 36 331 L 37 332 L 32 342 Q 30 359 36 369 Q 43 377 58 378 L 69 398 Q 77 407 94 408 Q 114 411 124 402 L 134 390 L 148 391 L 155 393 Q 171 394 183 392 L 183 397 L 190 411 L 204 422 L 214 425 L 230 427 Q 249 428 259 419 Q 275 407 278 382 L 278 373 L 280 372 L 281 376 L 292 382 L 309 385 Q 322 385 330 380 Q 338 375 340 365 L 342 363 L 364 361 L 366 366 L 367 377 L 372 386 Q 381 398 402 400 Q 423 403 433 394 Q 442 387 447 377 L 451 364 L 452 349 Q 456 345 465 345 L 470 338 L 470 302 L 475 299 L 480 292 L 480 133 L 479 132 L 479 108 L 477 101 L 468 94 L 451 92 L 402 90 L 385 88 L 354 88 L 335 86 L 273 85 Z " /><path fill="rgb(224,75,58)" stroke="rgb(224,75,58)" stroke-width="0.6" opacity="1" d="M 296.5 93 L 298.5 94 L 337.5 94 L 338.5 95 L 365.5 95 L 366.5 96 L 405.5 97 L 421.5 99 L 439.5 99 Q 449.6 101.9 463.5 101 L 470 103.5 L 472 126.5 L 473 259.5 L 472 260.5 L 472 282.5 L 473 286.5 L 469.5 293 L 436.5 296 L 428.5 298 L 414.5 298 L 407.5 300 L 352.5 305 L 344.5 307 L 295.5 311 L 294 309.5 L 293 97.5 L 296.5 93 Z " /><path fill="rgb(224,75,58)" stroke="rgb(224,75,58)" stroke-width="0.6" opacity="1" d="M 229.5 182 L 246.5 182 L 249 184.5 L 251 198.5 L 253 247.5 L 249.5 252 L 224 255 Q 226.7 237.6 216.5 232 L 206.5 230 L 204 229.5 L 212 193.5 L 217.5 185 L 229.5 182 Z " /><path fill="rgb(224,75,58)" stroke="rgb(224,75,58)" stroke-width="0.6" opacity="1" d="M 145.5 308 Q 154.5 306.5 156 312.5 L 159 323.5 Q 157.8 331.3 152.5 335 L 146.5 336 L 140 331.5 Q 136.7 326.8 138 317.5 L 143.5 309 L 145.5 308 Z " /><path fill="rgb(224,75,58)" stroke="rgb(224,75,58)" stroke-width="0.6" opacity="1" d="M 417.5 337 Q 423.3 336.3 424 340.5 L 427 352.5 Q 425.8 362.8 419.5 368 L 413 365.5 Q 409.3 360.3 410 350.5 L 415.5 338 L 417.5 337 Z " /><path fill="rgb(224,75,58)" stroke="rgb(224,75,58)" stroke-width="0.6" opacity="1" d="M 40.5 341 L 97.5 351 L 106.5 351 L 151.5 357 L 177.5 357 Q 184.9 353.9 196.5 355 L 198 356.5 L 198 367.5 L 196 377.5 L 192.5 382 L 180.5 385 L 151.5 385 L 72.5 374 L 68.5 372 L 52.5 370 L 42 364.5 Q 37.4 356.6 39 342.5 L 40.5 341 Z " /><path fill="rgb(224,75,58)" stroke="rgb(224,75,58)" stroke-width="0.6" opacity="1" d="M 68 381 L 76.5 381 L 78 382.5 Q 79 393 86 397.5 L 82.5 398 L 72 390.5 L 68 381 Z " /><path fill="rgb(74,133,177)" stroke="rgb(74,133,177)" stroke-width="0.6" opacity="1" d="M 156 146 Q 159.1 145.3 158.5 148 L 189.5 148 L 210.5 150 Q 212 147.5 213.5 151 L 227.5 152 L 247.5 156 Q 255 157.5 259 162.5 L 263 171.5 L 266 201.5 L 268 203.5 L 267 215.5 L 271 249.5 L 270 250.5 L 270 266.5 L 273 305.5 L 272 306.5 L 272 341 L 269 339.5 L 258.5 327 Q 251.1 319.4 235.5 320 Q 219.3 322.3 212 333.5 L 201.5 351 L 196.5 347 L 193.5 347 L 177 349 Q 178 352 175 351 L 172.5 347 L 168.5 350 L 158.5 351 Q 156.2 347.8 149.5 349 L 146 350 L 145.5 348 L 135.5 348 L 128.5 347 L 126.5 348 L 124.5 346 L 112.5 345 L 108 346 Q 109.4 342 102.5 344 L 96.5 343 L 94.5 343 L 55.5 337 L 46.5 335 L 44 332.5 L 44 323.5 L 46 323 L 50.5 329 Q 52.2 331.8 57.5 331 L 59.5 331 Q 65.1 330.6 67 326.5 Q 72.2 322.2 72 312.5 L 71 310.5 L 72 305.5 L 64.5 294 L 53.5 292 L 46 297.5 L 44.5 303 L 43 301.5 L 42 291 Q 45.8 292.1 44 283.5 Q 41.5 282 45 280.5 L 44 277.5 L 46 275.5 L 50 259.5 L 54.5 253 L 72.5 256 L 75 255 L 75.5 257 L 86.5 257 L 93.5 258 L 97 257 Q 95.9 260.7 104.5 259 L 114.5 260 L 117.5 259 L 127.5 262 L 158.5 264 L 160.5 263 L 162.5 265 L 173.5 265 L 175.5 264 L 176 266.5 L 171 280.5 L 172 282.5 L 170 284.5 L 169 290.5 L 169 334.5 L 171.5 341 L 173 339.5 L 175 329.5 L 175 298.5 L 174 290 Q 177.3 291.3 176 286.5 L 175 284 Q 178.7 285.4 177 279.5 L 183 263.5 L 180 257 Q 183.7 258.4 182 252.5 L 189 223.5 Q 186.5 222 190 220.5 L 191 215.5 Q 188.5 214 192 212.5 L 197 188.5 L 191.5 179 L 184.5 176 L 164.5 174 L 161.5 175 L 159.5 173 L 153.5 172 L 105.5 169 L 90 170 Q 91.3 162.5 98.5 159 L 108.5 153 L 119.5 150 L 132.5 148 L 156 148 L 156 146 Z M 237 174 L 236 175 L 227 175 L 226 177 L 224 176 Q 217 176 214 180 L 208 186 L 201 211 L 202 214 L 200 216 L 197 234 Q 191 239 190 250 Q 188 262 193 268 L 202 274 L 204 273 L 210 274 L 216 273 L 223 264 L 225 262 L 238 261 Q 239 257 241 260 L 253 258 L 260 248 L 259 215 L 257 213 L 258 211 L 257 193 Q 253 191 256 190 Q 257 182 253 179 Q 249 172 237 174 Z M 147 301 L 138 305 L 132 315 L 131 323 L 134 335 L 145 343 Q 152 344 156 341 Q 164 335 166 324 Q 166 313 161 308 Q 157 301 147 301 Z M 80 310 L 75 315 L 76 329 L 83 334 L 86 333 L 88 335 L 97 336 Q 98 334 100 337 L 108 336 L 110 338 L 122 338 L 127 331 L 126 327 L 127 319 L 121 314 L 114 315 L 112 313 Q 100 314 92 311 L 85 312 L 80 310 Z " /><path fill="rgb(74,133,177)" stroke="rgb(74,133,177)" stroke-width="0.6" opacity="1" d="M 53 298 Q 59.5 296.8 62 300.5 L 67 315 Q 63.3 313.6 65 319.5 Q 62.9 324.4 56.5 325 L 53 324 L 51 320.5 Q 46.6 316.4 49 305.5 L 53 298 Z " /><path fill="rgb(74,133,177)" stroke="rgb(74,133,177)" stroke-width="0.6" opacity="1" d="M 451.5 302 L 461.5 302 L 463 303.5 L 462 304.5 L 462 335 L 464 335.5 Q 460.8 340.3 452.5 340 L 444 318.5 L 437.5 311 L 430 307 Q 428.8 304 432.5 305 L 451.5 302 Z " /><path fill="rgb(74,133,177)" stroke="rgb(74,133,177)" stroke-width="0.6" opacity="1" d="M 378.5 309 L 386.5 310 L 392 309 L 382 322.5 L 378 333.5 Q 380.5 335 377 336.5 L 375 350.5 L 373.5 352 L 339.5 357 L 329.5 357 L 322.5 359 L 313.5 359 L 307.5 360 L 305.5 362 L 296.5 361 L 290 362 L 288.5 364 L 279 363 L 280 351.5 L 279 350.5 L 279 319.5 L 283.5 317 L 285.5 319 L 297.5 319 L 302.5 317 L 311.5 318 L 322.5 315 L 331.5 316 L 341 315 Q 339.8 312 343.5 313 L 351.5 314 L 358.5 313 L 360.5 311 L 367.5 312 L 375.5 311 L 378.5 309 Z " /><path fill="rgb(74,133,177)" stroke="rgb(74,133,177)" stroke-width="0.6" opacity="1" d="M 290.5 369 L 295 372.5 L 296 374.5 L 291.5 375 L 287 372 Q 285.8 369 289.5 370 L 290.5 369 Z " /><path fill="rgb(74,133,177)" stroke="rgb(74,133,177)" stroke-width="0.6" opacity="1" d="M 88.5 382 Q 92.3 381 91 384 L 94.5 384 L 113.5 387 Q 115 384.5 116.5 388 Q 122.7 387.3 125 390.5 L 117.5 398 L 107.5 402 Q 93 400.5 87 390.5 L 84 384.5 L 88.5 382 Z " /><path fill="rgb(49,52,51)" stroke="rgb(49,52,51)" stroke-width="0.6" opacity="1" d="M 270.5 87 L 281 87.5 L 270.5 88 L 270.5 87 Z " /><path fill="rgb(49,52,51)" stroke="rgb(49,52,51)" stroke-width="0.6" opacity="1" d="M 236.5 88 L 252 88.5 L 236.5 89 L 236.5 88 Z " /><path fill="rgb(49,52,51)" stroke="rgb(49,52,51)" stroke-width="0.6" opacity="1" d="M 238.5 91 L 252 91.5 L 238.5 92 L 238.5 91 Z " /><path fill="rgb(49,52,51)" stroke="rgb(49,52,51)" stroke-width="0.6" opacity="1" d="M 311.5 91 L 326 91.5 L 311.5 92 L 311.5 91 Z " /><path fill="rgb(49,52,51)" stroke="rgb(49,52,51)" stroke-width="0.6" opacity="1" d="M 195.5 92 L 206 92.5 L 195.5 93 L 195.5 92 Z " /><path fill="rgb(49,52,51)" stroke="rgb(49,52,51)" stroke-width="0.6" opacity="1" d="M 343.5 92 L 355 92.5 L 343.5 93 L 343.5 92 Z " /><path fill="rgb(49,52,51)" stroke="rgb(49,52,51)" stroke-width="0.6" opacity="1" d="M 262.5 93 L 285.5 93 L 287 94.5 L 286 96.5 L 286 166.5 L 287 167.5 L 287 309.5 Q 285.8 312.3 280.5 311 L 279 309.5 L 278 279.5 L 279 275.5 L 272 182.5 L 269 167.5 L 261.5 155 L 253.5 150 L 231.5 145 L 178.5 140 L 156.5 140 L 155 138.5 L 155 101.5 L 157.5 98 L 171.5 96 L 193.5 96 L 217.5 94 L 261.5 94 L 262.5 93 Z " /><path fill="rgb(49,52,51)" stroke="rgb(49,52,51)" stroke-width="0.6" opacity="1" d="M 290.5 99 L 291 137.5 L 290 137.5 L 290.5 99 Z " /><path fill="rgb(49,52,51)" stroke="rgb(49,52,51)" stroke-width="0.6" opacity="1" d="M 152.5 103 L 153 140.5 L 154.5 142 L 161 142.5 L 154.5 143 L 152 140.5 L 152.5 103 Z " /><path fill="rgb(49,52,51)" stroke="rgb(49,52,51)" stroke-width="0.6" opacity="1" d="M 474.5 142 L 475 163.5 L 474 163.5 L 474.5 142 Z " /><path fill="rgb(49,52,51)" stroke="rgb(49,52,51)" stroke-width="0.6" opacity="1" d="M 132.5 143 L 139.5 143 Q 138.5 146.5 145.5 145 L 145.5 146 L 138.5 146 Q 139.5 142.5 132.5 144 L 132.5 143 Z " /><path fill="rgb(49,52,51)" stroke="rgb(49,52,51)" stroke-width="0.6" opacity="1" d="M 288.5 143 L 289 161.5 L 288 161.5 L 288.5 143 Z " /><path fill="rgb(49,52,51)" stroke="rgb(49,52,51)" stroke-width="0.6" opacity="1" d="M 477.5 143 L 478 154.5 L 477 154.5 L 477.5 143 Z " /><path fill="rgb(49,52,51)" stroke="rgb(49,52,51)" stroke-width="0.6" opacity="1" d="M 162.5 145 L 180 145.5 L 162.5 146 L 162.5 145 Z " /><path fill="rgb(49,52,51)" stroke="rgb(49,52,51)" stroke-width="0.6" opacity="1" d="M 95.5 157 L 97 158.5 L 91.5 164 L 94.5 159 L 92.5 160 L 93.5 158 L 95.5 157 Z " /><path fill="rgb(49,52,51)" stroke="rgb(49,52,51)" stroke-width="0.6" opacity="1" d="M 478.5 192 L 479 263.5 L 478 263.5 L 478.5 192 Z " /><path fill="rgb(49,52,51)" stroke="rgb(49,52,51)" stroke-width="0.6" opacity="1" d="M 475.5 204 L 476 259.5 L 475 259.5 L 475.5 204 Z " /><path fill="rgb(49,52,51)" stroke="rgb(49,52,51)" stroke-width="0.6" opacity="1" d="M 291.5 208 L 292 233.5 L 291 233.5 L 291.5 208 Z " /><path fill="rgb(49,52,51)" stroke="rgb(49,52,51)" stroke-width="0.6" opacity="1" d="M 257.5 235 L 258 245.5 L 257 245.5 L 257.5 235 Z " /><path fill="rgb(49,52,51)" stroke="rgb(49,52,51)" stroke-width="0.6" opacity="1" d="M 205.5 237 Q 213.5 236 216 240.5 L 217 258.5 L 216 263.5 L 213.5 266 L 202.5 267 L 198 263.5 L 197 248.5 Q 197.5 241 202.5 238 L 205.5 237 Z " /><path fill="rgb(49,52,51)" stroke="rgb(49,52,51)" stroke-width="0.6" opacity="1" d="M 291.5 238 L 292 308.5 L 291 308.5 L 291.5 238 Z " /><path fill="rgb(49,52,51)" stroke="rgb(49,52,51)" stroke-width="0.6" opacity="1" d="M 172 288 L 174 289.5 L 173 305 L 171 304.5 L 171 291.5 L 172 288 Z " /><path fill="rgb(49,52,51)" stroke="rgb(49,52,51)" stroke-width="0.6" opacity="1" d="M 276.5 293 L 277 310.5 L 279 312.5 L 276 310.5 L 276.5 293 Z " /><path fill="rgb(49,52,51)" stroke="rgb(49,52,51)" stroke-width="0.6" opacity="1" d="M 38.5 294 L 39 305 L 41 305.5 L 41 314 L 39 314.5 L 39 324.5 L 38 324.5 L 38.5 294 Z " /><path fill="rgb(49,52,51)" stroke="rgb(49,52,51)" stroke-width="0.6" opacity="1" d="M 468.5 298 L 468 299.5 L 467.5 338 L 467 299.5 L 468.5 298 Z " /><path fill="rgb(49,52,51)" stroke="rgb(49,52,51)" stroke-width="0.6" opacity="1" d="M 278.5 315 L 281 315.5 L 277 317.5 L 276.5 322 L 276 317.5 L 278.5 315 Z " /><path fill="rgb(49,52,51)" stroke="rgb(49,52,51)" stroke-width="0.6" opacity="1" d="M 82.5 317 Q 92.1 319.9 105.5 319 L 119.5 321 L 121 322.5 L 120 330.5 L 118.5 332 L 83.5 328 L 81 325.5 Q 79.3 318.7 82.5 317 Z " /><path fill="rgb(49,52,51)" stroke="rgb(49,52,51)" stroke-width="0.6" opacity="1" d="M 77.5 325 L 80 326.5 L 79 328.5 L 81.5 330 L 83 329.5 L 82.5 332 L 78 328.5 L 77.5 325 Z " /><path fill="rgb(49,52,51)" stroke="rgb(49,52,51)" stroke-width="0.6" opacity="1" d="M 391.5 326 L 392 328.5 L 389 333.5 L 386 347 L 384 345.5 Q 385.5 333.5 391.5 326 Z " /><path fill="rgb(49,52,51)" stroke="rgb(49,52,51)" stroke-width="0.6" opacity="1" d="M 235.5 330 Q 255.5 328.5 262 340.5 Q 271.9 354.6 271 379.5 L 269 389.5 L 263 403.5 L 252.5 415 Q 245.7 420.2 232.5 419 Q 223.1 416.9 218 410.5 Q 207 398 209 372.5 Q 210.9 346.9 226.5 335 L 235.5 330 Z M 241 351 L 237 353 Q 229 358 227 370 Q 225 385 231 393 L 239 399 L 248 398 Q 257 392 259 379 Q 260 367 256 360 L 249 352 L 241 351 Z " /><path fill="rgb(49,52,51)" stroke="rgb(49,52,51)" stroke-width="0.6" opacity="1" d="M 217.5 340 L 218 341.5 Q 210.7 349.6 209 362 Q 206 363.3 207 359.5 L 213 345.5 L 217.5 340 Z " /><path fill="rgb(49,52,51)" stroke="rgb(49,52,51)" stroke-width="0.6" opacity="1" d="M 198.5 350 L 201.5 354 L 203.5 353 L 202.5 355 L 200.5 356 L 197.5 352 L 199 352.5 L 198.5 350 Z " /><path fill="rgb(49,52,51)" stroke="rgb(49,52,51)" stroke-width="0.6" opacity="1" d="M 323.5 365 Q 331 363 333 366.5 Q 327.8 377.8 310.5 377 Q 302.8 375.1 299 369.5 L 300.5 368 L 318.5 367 L 323.5 365 Z " /><path fill="rgb(49,52,51)" stroke="rgb(49,52,51)" stroke-width="0.6" opacity="1" d="M 229.5 370 L 230 372 L 232 372.5 L 232 380.5 L 231 380.5 L 231 374.5 Q 227.6 375.3 229.5 370 Z " /><path fill="rgb(49,52,51)" stroke="rgb(49,52,51)" stroke-width="0.6" opacity="1" d="M 204.5 373 L 205 375 L 207 375.5 L 207 384 L 204.5 385 L 204.5 373 Z " /><path fill="rgb(49,52,51)" stroke="rgb(49,52,51)" stroke-width="0.6" opacity="1" d="M 436.5 383 L 430.5 390 L 436.5 383 Z " /><path fill="rgb(49,52,51)" stroke="rgb(49,52,51)" stroke-width="0.6" opacity="1" d="M 439.5 384 L 433.5 391 L 439.5 384 Z " /><path fill="rgb(49,52,51)" stroke="rgb(49,52,51)" stroke-width="0.6" opacity="1" d="M 158.5 390 L 172 390.5 L 158.5 391 L 158.5 390 Z " /><path fill="rgb(49,52,51)" stroke="rgb(49,52,51)" stroke-width="0.6" opacity="1" d="M 68.5 393 L 73.5 399 L 68.5 393 Z " /><path fill="rgb(49,52,51)" stroke="rgb(49,52,51)" stroke-width="0.6" opacity="1" d="M 85.5 394 L 91 400.5 L 89 401.5 L 90 399.5 L 85.5 394 Z " /><path fill="rgb(49,52,51)" stroke="rgb(49,52,51)" stroke-width="0.6" opacity="1" d="M 88.5 394 L 93.5 400 L 88.5 394 Z " /><path fill="rgb(240,184,49)" stroke="rgb(240,184,49)" stroke-width="0.6" opacity="1" d="M 96.5 176 L 165.5 180 L 171.5 182 L 184.5 183 L 190 187.5 L 187 205.5 Q 182.2 216.2 181 230.5 L 179 233.5 L 175 256.5 L 173.5 258 L 159.5 258 L 150.5 256 L 115.5 254 L 108.5 252 L 95.5 252 L 58.5 248 L 57 246.5 L 74 199.5 L 82 182.5 L 86.5 177 L 96.5 176 Z " /><path fill="rgb(240,184,49)" stroke="rgb(240,184,49)" stroke-width="0.6" opacity="1" d="M 46.5 227 Q 54 225 56 228.5 L 50 247.5 L 46.5 253 L 43 251.5 L 42 236.5 Q 42.4 229.9 46.5 227 Z " /><path fill="rgb(240,184,49)" stroke="rgb(240,184,49)" stroke-width="0.6" opacity="1" d="M 400.5 311 L 402 311.5 L 393.5 319 L 393 317.5 L 400.5 311 Z " /><path fill="rgb(240,184,49)" stroke="rgb(240,184,49)" stroke-width="0.6" opacity="1" d="M 413.5 311 Q 431.5 309.5 437 320.5 L 444 336.5 L 445 354.5 Q 442.6 376.6 429.5 388 Q 423.6 393.1 412.5 393 L 402.5 390 L 391.5 382 L 390 384.5 L 394 389.5 L 390.5 390 Q 380.5 386.5 375 378.5 L 369 365.5 L 369 360.5 Q 370.3 357.8 375.5 359 L 380 355.5 L 382 354 Q 379.5 370.7 388.5 377 L 389 364.5 L 388 363.5 L 388 346.5 Q 390.4 324.9 404.5 315 L 413.5 311 Z M 416 330 L 414 331 Q 405 337 403 350 Q 402 362 407 369 L 415 375 Q 422 376 425 373 L 429 369 L 434 355 L 433 343 L 430 337 Q 428 328 416 330 Z " /><path fill="rgb(240,184,49)" stroke="rgb(240,184,49)" stroke-width="0.6" opacity="1" d="M 387.5 327 L 388 329.5 L 386 335 L 384 333.5 L 387.5 327 Z " /><path fill="rgb(240,184,49)" stroke="rgb(240,184,49)" stroke-width="0.6" opacity="1" d="M 242.5 358 L 249 362.5 L 252 376.5 Q 251 387.5 243.5 392 Q 236.8 392.8 236 387.5 Q 232.1 381.4 234 369.5 Q 235.1 362.1 240.5 359 L 242.5 358 Z " /><path fill="rgb(240,184,49)" stroke="rgb(240,184,49)" stroke-width="0.6" opacity="1" d="M 201.5 382 Q 204.8 381.6 203 389.5 Q 205.7 407.3 217 416.5 L 210.5 417 Q 201.3 414.2 196 407.5 Q 190.6 400.9 189 390.5 L 200 384.5 L 201.5 382 Z " /><path fill="rgb(15,15,15)" stroke="rgb(15,15,15)" stroke-width="0.6" opacity="1" d="M 281.5 87 L 353.5 89 L 373.5 91 L 400.5 91 L 410.5 93 L 433.5 93 Q 444.8 96.2 460.5 95 L 469.5 97 L 474 100.5 L 476 104.5 L 477 116.5 L 477 154.5 L 478 155.5 L 478 289.5 L 473.5 297 L 467 299.5 L 467 338.5 L 464.5 342 L 453.5 344 L 450 346.5 Q 449.7 378.2 431.5 392 Q 424 398 410.5 398 L 389.5 395 Q 380.3 392.2 375 385.5 L 370 375.5 L 372 376.5 L 382.5 389 L 397.5 394 Q 400 388.5 402.5 393 Q 408.6 396.9 420.5 395 Q 431.1 391.6 437 383.5 Q 449.3 368.8 447 339.5 Q 444.1 321.9 432.5 313 L 421.5 308 L 416.5 308 L 412.5 309 Q 411.5 305 405.5 306 Q 394.8 310.3 389 319.5 L 382 333.5 L 379 353.5 L 376.5 356 L 340.5 361 L 339 362.5 Q 336.9 372.4 329.5 377 Q 322.1 383.6 306.5 382 L 290.5 379 L 281 371.5 L 279.5 369 L 276 369 L 276 377.5 Q 273.4 402.9 258.5 416 Q 249.7 425.2 230.5 424 L 217.5 423 L 205.5 420 L 191 408.5 L 183.5 389 L 154.5 390 Q 144.8 387.2 131.5 388 L 122.5 400 Q 115.3 405.8 102.5 406 L 81.5 403 Q 72.8 399.8 68 392.5 L 59.5 376 Q 46.3 375.2 39 368.5 L 35 360.5 L 34 343.5 Q 34.5 337.5 39 335.5 L 39 314 L 41 314.5 L 41 326.5 L 42 334.5 L 44.5 337 L 120.5 349 L 153.5 352 L 169.5 352 L 172.5 351 L 178.5 352 Q 186.1 349.1 197.5 350 L 199 352.5 L 197.5 352 L 179.5 354 L 150.5 354 L 88.5 347 L 39.5 338 Q 35.1 341.1 36 349.5 L 38 361.5 L 44.5 370 L 62.5 375 L 69.5 375 L 74.5 377 L 128.5 385 L 155.5 388 L 175.5 388 L 191.5 385 L 197 380.5 L 199 373 Q 202.7 371.6 201 377.5 L 194.5 386 Q 188.9 385.9 187 389.5 Q 188.4 405.6 198.5 413 Q 206.4 420.1 220.5 421 L 222 418.5 L 215 412.5 Q 205.7 402 205 384 Q 209 382.6 207 389.5 Q 210.4 408.6 223.5 418 Q 229.5 422 239.5 422 Q 255.8 419.3 263 407.5 Q 275.7 392.2 273 361.5 Q 269.2 341.3 255.5 331 L 246.5 327 L 227.5 326 L 213 338.5 L 204 355.5 L 202 371 Q 198.5 372.1 200 364.5 L 201 357.5 L 201.5 355 L 204 353.5 Q 208.1 336.6 220.5 328 Q 227.6 321.1 243.5 323 Q 257.8 326.3 265 336.5 L 272.5 351 L 275 349.5 L 274 316.5 L 275 312.5 L 274 311.5 L 273 254.5 L 268 190.5 L 264 166.5 L 256.5 157 L 236.5 151 L 199.5 146 L 140 145 L 140.5 143 L 148.5 143 L 150 141.5 L 150 100.5 L 155.5 93 L 164.5 91 Q 187.2 93.2 203.5 89 L 251.5 89 L 252.5 88 L 280.5 88 L 281.5 87 Z M 239 91 L 238 92 L 196 92 L 158 95 Q 153 97 152 104 L 152 141 L 155 143 L 201 144 L 209 146 L 235 148 L 253 152 L 260 156 L 267 170 L 271 197 L 275 251 L 275 269 L 276 270 L 276 311 L 279 313 L 286 314 L 290 312 L 289 310 L 289 144 L 288 143 L 288 99 L 290 93 L 289 91 L 239 91 Z M 296 91 L 290 100 L 291 309 L 295 314 L 342 310 L 350 308 L 379 306 L 387 304 L 435 300 L 472 295 L 475 290 L 475 261 L 476 260 L 475 143 L 474 142 L 474 107 L 472 103 L 470 100 L 462 98 Q 447 99 437 96 L 356 93 L 355 92 L 296 91 Z M 458 299 L 448 301 L 426 302 L 422 305 L 436 312 L 446 328 L 448 339 L 451 342 L 462 341 L 465 338 L 465 301 Q 463 298 458 299 Z M 394 306 L 295 317 L 281 315 L 276 318 L 277 323 L 277 359 L 276 360 Q 275 365 278 366 L 296 365 L 303 363 L 312 363 L 319 361 L 344 359 L 376 354 L 377 353 L 381 331 L 390 315 L 399 308 L 394 306 Z M 331 362 L 304 365 L 297 368 L 298 372 Q 302 378 312 380 Q 324 380 330 374 L 336 364 L 331 362 Z M 286 367 L 284 372 Q 289 377 298 379 L 301 378 L 295 369 Q 293 365 286 367 Z M 65 378 L 65 383 L 70 392 Q 76 399 87 402 L 91 401 Q 82 394 80 381 L 79 379 L 65 378 Z M 84 380 L 82 382 L 82 385 L 88 395 L 100 403 Q 112 405 119 400 L 128 389 L 125 386 L 84 380 Z " /><path fill="rgb(15,15,15)" stroke="rgb(15,15,15)" stroke-width="0.6" opacity="1" d="M 126.5 144 L 137.5 144 L 138 146 L 113.5 149 L 114.5 147 L 126.5 144 Z " /><path fill="rgb(15,15,15)" stroke="rgb(15,15,15)" stroke-width="0.6" opacity="1" d="M 93.5 159 L 95 159.5 L 86 171.5 L 90.5 173 L 91.5 172 L 119.5 172 L 182.5 178 L 192 182.5 Q 195.3 186.2 194 194.5 L 185 228.5 L 179 259.5 L 176.5 262 L 155.5 262 L 124 259 L 124.5 257 L 134.5 257 L 155.5 260 L 174.5 260 L 177 257.5 L 177 252.5 L 191 197.5 L 192 186.5 L 185.5 181 L 168.5 178 L 116.5 174 L 90.5 174 L 84.5 175 L 82 177.5 Q 65.2 209.2 55 247.5 L 57.5 250 L 63.5 251 L 122 256 L 121.5 258 L 110.5 258 L 53.5 251 Q 38.9 270.1 41 305 L 39 304.5 L 39 284.5 L 45 259.5 L 40 255.5 Q 35.9 248.5 38 236 L 40 236.5 L 40 249.5 L 44.5 256 L 49 253.5 Q 55.8 242.8 58 227.5 Q 55.5 223 47.5 224 L 43 227.5 L 41 234 Q 38 235.3 39 231.5 L 43.5 224 L 52.5 222 L 58.5 224 L 61 221.5 L 68 201.5 L 80 175.5 L 91.5 160 L 93.5 159 Z " /><path fill="rgb(15,15,15)" stroke="rgb(15,15,15)" stroke-width="0.6" opacity="1" d="M 229.5 177 L 247.5 177 L 252 180.5 L 253 185 L 251 183.5 L 247.5 179 L 223.5 180 Q 215.4 181.4 212 187.5 L 207 203.5 L 201 232.5 L 203.5 234 L 211.5 233 L 220 238.5 Q 223.2 245.3 222 256.5 L 223.5 258 L 247 255 Q 248.3 258.7 242.5 257 L 230.5 260 L 222.5 260 L 221 261.5 Q 220.4 267.9 215.5 270 Q 211.1 273.1 202.5 272 L 195 267.5 Q 191.1 261.9 192 251.5 L 195 239.5 L 199 235.5 L 207 194.5 Q 208.5 185.5 214.5 181 L 229.5 177 Z M 204 235 L 202 236 Q 196 239 195 247 L 196 265 L 205 270 Q 212 271 215 268 L 219 263 L 220 256 L 218 240 Q 215 233 204 235 Z " /><path fill="rgb(15,15,15)" stroke="rgb(15,15,15)" stroke-width="0.6" opacity="1" d="M 253 195 L 255 195.5 L 255 207 L 253 206.5 L 253 195 Z " /><path fill="rgb(15,15,15)" stroke="rgb(15,15,15)" stroke-width="0.6" opacity="1" d="M 254 209 L 256 209.5 L 256 219.5 L 257 220.5 L 257 250.5 L 251.5 256 L 249 256 Q 247.8 253 251.5 254 L 255 249.5 L 255 225.5 L 254 209 Z " /><path fill="rgb(15,15,15)" stroke="rgb(15,15,15)" stroke-width="0.6" opacity="1" d="M 178.5 267 L 179 269.5 L 175 282 Q 172 283.3 173 279.5 L 178.5 267 Z " /><path fill="rgb(15,15,15)" stroke="rgb(15,15,15)" stroke-width="0.6" opacity="1" d="M 53.5 294 Q 63.6 292.4 66 298.5 Q 71.1 304 70 315 Q 66.3 316.1 68 307.5 L 62.5 298 Q 60.2 294.8 53.5 296 Q 47.4 299.6 47 308 Q 44 309.3 45 305.5 L 50.5 296 L 53.5 294 Z " /><path fill="rgb(15,15,15)" stroke="rgb(15,15,15)" stroke-width="0.6" opacity="1" d="M 144.5 304 L 146 306 L 138 311.5 Q 134.3 317.3 136 328.5 L 142.5 337 L 151.5 338 L 158 332.5 Q 162 328.1 161 318.5 Q 159.1 310.9 153.5 307 L 150 306 Q 148.8 303 152.5 304 L 159 308.5 Q 164.8 314.2 163 327.5 Q 160.9 335.4 154.5 339 L 146.5 341 Q 139.3 339.2 136 333.5 Q 132.3 327.7 134 316.5 L 140.5 306 L 144.5 304 Z " /><path fill="rgb(15,15,15)" stroke="rgb(15,15,15)" stroke-width="0.6" opacity="1" d="M 45 313 Q 48.7 311.6 47 317.5 L 53.5 326 L 58.5 327 L 66 321.5 L 67 317 Q 70 315.8 69 319.5 L 62.5 328 L 54.5 329 L 47 322.5 L 45 313 Z " /><path fill="rgb(15,15,15)" stroke="rgb(15,15,15)" stroke-width="0.6" opacity="1" d="M 79.5 313 L 95 314 Q 96.3 317.3 91.5 316 L 80.5 315 L 79 316.5 L 79 325 L 77 324.5 L 77 315.5 L 79.5 313 Z " /><path fill="rgb(15,15,15)" stroke="rgb(15,15,15)" stroke-width="0.6" opacity="1" d="M 110 316 L 122.5 317 L 125 319.5 Q 126 323.3 123 322 L 121.5 319 L 110 318 L 110 316 Z " /><path fill="rgb(15,15,15)" stroke="rgb(15,15,15)" stroke-width="0.6" opacity="1" d="M 123 324 Q 126.7 322.6 125 328.5 Q 124.6 334.1 120.5 336 L 96 334 Q 94.7 330.7 99.5 332 L 120.5 334 Q 124.1 330.8 123 324 Z " /><path fill="rgb(15,15,15)" stroke="rgb(15,15,15)" stroke-width="0.6" opacity="1" d="M 79.5 328 L 82.5 330 L 93 331 Q 94.3 334.7 88.5 333 Q 81.1 332.6 79.5 328 Z " /><path fill="rgb(15,15,15)" stroke="rgb(15,15,15)" stroke-width="0.6" opacity="1" d="M 416.5 332 Q 426.1 330.9 428 337.5 Q 432.5 344 431 356.5 Q 429.8 366.3 423.5 371 L 416.5 373 L 409 367.5 Q 404.4 360.6 406 347.5 Q 407.4 337.4 414.5 333 L 416.5 332 Z M 416 335 L 408 347 Q 406 360 411 367 L 417 371 L 422 370 Q 427 365 429 356 Q 430 345 426 340 Q 425 334 416 335 Z " /><path fill="rgb(15,15,15)" stroke="rgb(15,15,15)" stroke-width="0.6" opacity="1" d="M 384 347 L 386 347.5 L 386 365.5 L 387 369 Q 384 370.3 385 366.5 L 384 365.5 L 384 347 Z " /><path fill="rgb(15,15,15)" stroke="rgb(15,15,15)" stroke-width="0.6" opacity="1" d="M 242.5 353 Q 250.6 353.4 253 359.5 L 257 375.5 L 253 389.5 L 246.5 396 L 240.5 397 L 234 392.5 Q 228.5 385.8 229 374 Q 232.5 372.9 231 380.5 Q 232.8 389.8 239.5 394 Q 248.1 395.1 250 389.5 Q 255.4 382.9 254 369.5 Q 252.9 361.1 247.5 357 L 240.5 356 Q 232.1 360.4 232 372 Q 228.7 373.3 230 368.5 Q 231.5 359.5 237.5 355 L 242.5 353 Z " /><path fill="rgb(119,122,117)" stroke="rgb(119,122,117)" stroke-width="0.6" opacity="1" d="M 239.5 87 L 251 87.5 L 239.5 88 L 239.5 87 Z " /><path fill="rgb(119,122,117)" stroke="rgb(119,122,117)" stroke-width="0.6" opacity="1" d="M 226 92 L 237.5 92 L 238 94 L 226.5 94 L 226 92 Z " /><path fill="rgb(119,122,117)" stroke="rgb(119,122,117)" stroke-width="0.6" opacity="1" d="M 291.5 99 L 292 152.5 L 291 152.5 L 291.5 99 Z " /><path fill="rgb(119,122,117)" stroke="rgb(119,122,117)" stroke-width="0.6" opacity="1" d="M 473.5 131 L 474 142.5 L 473 142.5 L 473.5 131 Z " /><path fill="rgb(119,122,117)" stroke="rgb(119,122,117)" stroke-width="0.6" opacity="1" d="M 286 132 L 288 132.5 L 288 146 L 286 145.5 L 286 132 Z " /><path fill="rgb(119,122,117)" stroke="rgb(119,122,117)" stroke-width="0.6" opacity="1" d="M 170.5 146 L 184 146.5 L 170.5 147 L 170.5 146 Z " /><path fill="rgb(119,122,117)" stroke="rgb(119,122,117)" stroke-width="0.6" opacity="1" d="M 478.5 147 L 479 162.5 L 478 162.5 L 478.5 147 Z " /><path fill="rgb(119,122,117)" stroke="rgb(119,122,117)" stroke-width="0.6" opacity="1" d="M 107.5 150 L 108.5 152 Q 97.7 155.2 92.5 164 L 98 157.5 Q 96.9 154.2 99.5 155 L 107.5 150 Z " /><path fill="rgb(119,122,117)" stroke="rgb(119,122,117)" stroke-width="0.6" opacity="1" d="M 474.5 197 L 475 263.5 L 474 263.5 L 474.5 197 Z " /><path fill="rgb(119,122,117)" stroke="rgb(119,122,117)" stroke-width="0.6" opacity="1" d="M 287 233 L 289 233.5 L 289 311.5 L 284 313 L 285.5 311 L 287 309.5 L 287 233 Z " /><path fill="rgb(119,122,117)" stroke="rgb(119,122,117)" stroke-width="0.6" opacity="1" d="M 191.5 250 L 192 260.5 L 191 260.5 L 191.5 250 Z " /><path fill="rgb(119,122,117)" stroke="rgb(119,122,117)" stroke-width="0.6" opacity="1" d="M 277 293 L 279 293.5 L 279 308 L 277 307.5 L 277 293 Z " /><path fill="rgb(119,122,117)" stroke="rgb(119,122,117)" stroke-width="0.6" opacity="1" d="M 37.5 296 L 38 320.5 L 37 320.5 L 37.5 296 Z " /><path fill="rgb(119,122,117)" stroke="rgb(119,122,117)" stroke-width="0.6" opacity="1" d="M 468.5 302 L 469 336.5 L 468 336.5 L 468.5 302 Z " /><path fill="rgb(119,122,117)" stroke="rgb(119,122,117)" stroke-width="0.6" opacity="1" d="M 173.5 306 L 174 316.5 L 173 316.5 L 173.5 306 Z " /><path fill="rgb(119,122,117)" stroke="rgb(119,122,117)" stroke-width="0.6" opacity="1" d="M 399.5 314 L 394.5 320 L 399.5 314 Z " /><path fill="rgb(119,122,117)" stroke="rgb(119,122,117)" stroke-width="0.6" opacity="1" d="M 432.5 314 L 437.5 320 L 432.5 314 Z " /><path fill="rgb(119,122,117)" stroke="rgb(119,122,117)" stroke-width="0.6" opacity="1" d="M 279.5 316 L 282 316.5 L 278 318.5 L 277.5 331 L 277 318.5 L 279.5 316 Z " /><path fill="rgb(119,122,117)" stroke="rgb(119,122,117)" stroke-width="0.6" opacity="1" d="M 273.5 319 L 274 348 L 271 347.5 L 273 347 L 273.5 319 Z " /><path fill="rgb(119,122,117)" stroke="rgb(119,122,117)" stroke-width="0.6" opacity="1" d="M 218.5 328 L 213.5 334 L 218.5 328 Z " /><path fill="rgb(119,122,117)" stroke="rgb(119,122,117)" stroke-width="0.6" opacity="1" d="M 207.5 351 L 210 351.5 L 206 364 Q 203 365.3 204 361.5 L 207.5 351 Z " /><path fill="rgb(119,122,117)" stroke="rgb(119,122,117)" stroke-width="0.6" opacity="1" d="M 249.5 354 L 254 357.5 L 255 359.5 L 249.5 354 Z " /><path fill="rgb(119,122,117)" stroke="rgb(119,122,117)" stroke-width="0.6" opacity="1" d="M 253.5 390 L 253 391.5 L 248.5 397 L 247 396.5 L 253.5 390 Z " /><path fill="rgb(119,122,117)" stroke="rgb(119,122,117)" stroke-width="0.6" opacity="1" d="M 160.5 391 L 171 391.5 L 160.5 392 L 160.5 391 Z " /><path fill="rgb(119,122,117)" stroke="rgb(119,122,117)" stroke-width="0.6" opacity="1" d="M 405.5 398 L 417 398.5 L 405.5 399 L 405.5 398 Z " /><path fill="rgb(119,122,117)" stroke="rgb(119,122,117)" stroke-width="0.6" opacity="1" d="M 213.5 411 L 221 418.5 L 219.5 420 L 218 419.5 L 220 418.5 L 213.5 411 Z " /><path fill="rgb(98,99,98)" stroke="rgb(98,99,98)" stroke-width="0.6" opacity="1" d="M 212.5 88 L 225 88.5 L 212.5 89 L 212.5 88 Z " /><path fill="rgb(98,99,98)" stroke="rgb(98,99,98)" stroke-width="0.6" opacity="1" d="M 261 91 L 287.5 91 L 288 93 L 261.5 93 L 261 91 Z " /><path fill="rgb(98,99,98)" stroke="rgb(98,99,98)" stroke-width="0.6" opacity="1" d="M 217.5 92 L 225.5 92 L 226 94 L 209 95 Q 207.9 91.3 216.5 93 L 217.5 92 Z " /><path fill="rgb(98,99,98)" stroke="rgb(98,99,98)" stroke-width="0.6" opacity="1" d="M 355.5 93 L 366 93.5 L 355.5 94 L 355.5 93 Z " /><path fill="rgb(98,99,98)" stroke="rgb(98,99,98)" stroke-width="0.6" opacity="1" d="M 171.5 94 Q 177.3 92.3 176 96 L 166 97 Q 164.7 93.3 170.5 95 L 171.5 94 Z " /><path fill="rgb(98,99,98)" stroke="rgb(98,99,98)" stroke-width="0.6" opacity="1" d="M 153 103 L 155 103.5 L 155 139.5 L 155.5 141 L 153 140.5 L 153 103 Z " /><path fill="rgb(98,99,98)" stroke="rgb(98,99,98)" stroke-width="0.6" opacity="1" d="M 286 117 L 288 117.5 L 288 132 L 286 131.5 L 286 117 Z " /><path fill="rgb(98,99,98)" stroke="rgb(98,99,98)" stroke-width="0.6" opacity="1" d="M 286 146 L 288 146.5 L 288 167 L 286 166.5 L 286 146 Z " /><path fill="rgb(98,99,98)" stroke="rgb(98,99,98)" stroke-width="0.6" opacity="1" d="M 244 148 Q 252 148.2 257 152.5 L 254.5 153 L 244 150 L 244 148 Z " /><path fill="rgb(98,99,98)" stroke="rgb(98,99,98)" stroke-width="0.6" opacity="1" d="M 291.5 153 L 292 163.5 L 291 163.5 L 291.5 153 Z " /><path fill="rgb(98,99,98)" stroke="rgb(98,99,98)" stroke-width="0.6" opacity="1" d="M 478.5 163 L 479 179.5 L 478 179.5 L 478.5 163 Z " /><path fill="rgb(98,99,98)" stroke="rgb(98,99,98)" stroke-width="0.6" opacity="1" d="M 92.5 171 L 103 171.5 L 92.5 172 L 92.5 171 Z " /><path fill="rgb(98,99,98)" stroke="rgb(98,99,98)" stroke-width="0.6" opacity="1" d="M 474.5 183 L 475 196.5 L 474 196.5 L 474.5 183 Z " /><path fill="rgb(98,99,98)" stroke="rgb(98,99,98)" stroke-width="0.6" opacity="1" d="M 287 185 L 289 185.5 L 289 233 L 287 232.5 L 287 185 Z " /><path fill="rgb(98,99,98)" stroke="rgb(98,99,98)" stroke-width="0.6" opacity="1" d="M 199.5 239 L 201 239.5 L 198 246 L 196 244.5 L 199.5 239 Z " /><path fill="rgb(98,99,98)" stroke="rgb(98,99,98)" stroke-width="0.6" opacity="1" d="M 216 241 Q 219 239.8 218 243.5 L 219 256 L 217 255.5 L 217 243.5 L 216 241 Z " /><path fill="rgb(98,99,98)" stroke="rgb(98,99,98)" stroke-width="0.6" opacity="1" d="M 195 250 L 197 250.5 L 197 260 L 195 259.5 L 195 250 Z " /><path fill="rgb(98,99,98)" stroke="rgb(98,99,98)" stroke-width="0.6" opacity="1" d="M 474.5 264 L 475 287.5 L 474 287.5 L 474.5 264 Z " /><path fill="rgb(98,99,98)" stroke="rgb(98,99,98)" stroke-width="0.6" opacity="1" d="M 478.5 268 L 479 287.5 L 478 287.5 L 478.5 268 Z " /><path fill="rgb(98,99,98)" stroke="rgb(98,99,98)" stroke-width="0.6" opacity="1" d="M 41.5 298 L 42 318.5 L 41 318.5 L 41.5 298 Z " /><path fill="rgb(98,99,98)" stroke="rgb(98,99,98)" stroke-width="0.6" opacity="1" d="M 273.5 303 L 274 318.5 L 273 318.5 L 273.5 303 Z " /><path fill="rgb(98,99,98)" stroke="rgb(98,99,98)" stroke-width="0.6" opacity="1" d="M 170.5 306 L 171 323.5 L 170 323.5 L 170.5 306 Z " /><path fill="rgb(98,99,98)" stroke="rgb(98,99,98)" stroke-width="0.6" opacity="1" d="M 277.5 331 L 278 347.5 L 277 347.5 L 277.5 331 Z " /><path fill="rgb(98,99,98)" stroke="rgb(98,99,98)" stroke-width="0.6" opacity="1" d="M 223.5 336 L 225 336.5 L 218 342.5 L 223.5 336 Z " /><path fill="rgb(98,99,98)" stroke="rgb(98,99,98)" stroke-width="0.6" opacity="1" d="M 262.5 339 L 267 347 L 265 346.5 L 265.5 345 L 264 344.5 Q 267 342.5 262 340.5 L 262.5 339 Z " /><path fill="rgb(98,99,98)" stroke="rgb(98,99,98)" stroke-width="0.6" opacity="1" d="M 452.5 345 L 451 347.5 L 450.5 354 L 450 347.5 L 452.5 345 Z " /><path fill="rgb(98,99,98)" stroke="rgb(98,99,98)" stroke-width="0.6" opacity="1" d="M 331 363 L 334.5 365 L 333 367.5 L 330.5 372 L 330 369.5 L 333 365 Q 330 366 331 363 Z " /><path fill="rgb(98,99,98)" stroke="rgb(98,99,98)" stroke-width="0.6" opacity="1" d="M 203.5 368 Q 206.1 367.2 205 370.5 L 204 378 L 202 377.5 L 202 369.5 L 203.5 368 Z " /><path fill="rgb(98,99,98)" stroke="rgb(98,99,98)" stroke-width="0.6" opacity="1" d="M 256.5 382 L 258 382.5 L 253.5 392 L 253.5 389 L 255 388.5 L 255 386.5 L 256.5 382 Z " /><path fill="rgb(98,99,98)" stroke="rgb(98,99,98)" stroke-width="0.6" opacity="1" d="M 228 384 Q 231 382.8 230 386.5 L 232 391.5 L 230 390.5 L 228 384 Z " /><path fill="rgb(98,99,98)" stroke="rgb(98,99,98)" stroke-width="0.6" opacity="1" d="M 395.5 386 L 398 390.5 L 396.5 393 L 397 391.5 L 395.5 386 Z " /><path fill="rgb(98,99,98)" stroke="rgb(98,99,98)" stroke-width="0.6" opacity="1" d="M 269 388 L 271 388.5 Q 268.5 400.5 261.5 408 L 261 405.5 L 264 403.5 L 264 401.5 L 269 388 Z " /><path fill="rgb(98,99,98)" stroke="rgb(98,99,98)" stroke-width="0.6" opacity="1" d="M 259.5 408 L 260 409.5 L 250.5 418 L 249 417.5 L 247.5 419 L 246 419.5 L 247.5 417 Q 255.7 414.7 259.5 408 Z " /><path fill="rgb(98,99,98)" stroke="rgb(98,99,98)" stroke-width="0.6" opacity="1" d="M 221.5 414 L 228 417 L 226.5 419 L 221.5 414 Z " /><path fill="rgb(98,99,98)" stroke="rgb(98,99,98)" stroke-width="0.6" opacity="1" d="M 229.5 424 L 240 424.5 L 229.5 425 L 229.5 424 Z " /><path fill="rgb(74,75,75)" stroke="rgb(74,75,75)" stroke-width="0.6" opacity="1" d="M 256.5 87 L 270 87.5 L 256.5 88 L 256.5 87 Z " /><path fill="rgb(74,75,75)" stroke="rgb(74,75,75)" stroke-width="0.6" opacity="1" d="M 225.5 88 L 236 88.5 L 225.5 89 L 225.5 88 Z " /><path fill="rgb(74,75,75)" stroke="rgb(74,75,75)" stroke-width="0.6" opacity="1" d="M 252.5 91 L 260.5 91 L 261 92.5 L 261.5 94 L 239.5 94 L 239 92 L 252.5 91 Z " /><path fill="rgb(74,75,75)" stroke="rgb(74,75,75)" stroke-width="0.6" opacity="1" d="M 300.5 91 L 311 91.5 L 300.5 92 L 300.5 91 Z " /><path fill="rgb(74,75,75)" stroke="rgb(74,75,75)" stroke-width="0.6" opacity="1" d="M 206.5 92 L 217 92.5 L 206.5 93 L 206.5 92 Z " /><path fill="rgb(74,75,75)" stroke="rgb(74,75,75)" stroke-width="0.6" opacity="1" d="M 186.5 93 Q 193.5 91.5 193 94.5 L 193.5 96 L 184.5 96 L 184 94 L 186.5 93 Z " /><path fill="rgb(74,75,75)" stroke="rgb(74,75,75)" stroke-width="0.6" opacity="1" d="M 158.5 95 L 158.5 98 L 156.5 97 L 155 99.5 L 155.5 101 L 153 100.5 L 156.5 96 L 158.5 95 Z " /><path fill="rgb(74,75,75)" stroke="rgb(74,75,75)" stroke-width="0.6" opacity="1" d="M 149.5 101 L 150 136.5 L 149 136.5 L 149.5 101 Z " /><path fill="rgb(74,75,75)" stroke="rgb(74,75,75)" stroke-width="0.6" opacity="1" d="M 286 102 L 288 102.5 L 288 117 L 286 116.5 L 286 102 Z " /><path fill="rgb(74,75,75)" stroke="rgb(74,75,75)" stroke-width="0.6" opacity="1" d="M 477.5 127 L 478 142.5 L 477 142.5 L 477.5 127 Z " /><path fill="rgb(74,75,75)" stroke="rgb(74,75,75)" stroke-width="0.6" opacity="1" d="M 161 140 L 179 140.5 L 177 141 L 176.5 143 L 161 143 L 161 140 Z " /><path fill="rgb(74,75,75)" stroke="rgb(74,75,75)" stroke-width="0.6" opacity="1" d="M 146.5 145 L 162 145.5 L 146.5 146 L 146.5 145 Z " /><path fill="rgb(74,75,75)" stroke="rgb(74,75,75)" stroke-width="0.6" opacity="1" d="M 288.5 162 L 289 185 L 287 184.5 L 287 167.5 L 288.5 162 Z " /><path fill="rgb(74,75,75)" stroke="rgb(74,75,75)" stroke-width="0.6" opacity="1" d="M 291.5 164 L 292 207.5 L 291 207.5 L 291.5 164 Z " /><path fill="rgb(74,75,75)" stroke="rgb(74,75,75)" stroke-width="0.6" opacity="1" d="M 474.5 164 L 475 182.5 L 474 182.5 L 474.5 164 Z " /><path fill="rgb(74,75,75)" stroke="rgb(74,75,75)" stroke-width="0.6" opacity="1" d="M 95.5 174 L 109 174.5 L 95.5 175 L 95.5 174 Z " /><path fill="rgb(74,75,75)" stroke="rgb(74,75,75)" stroke-width="0.6" opacity="1" d="M 478.5 180 L 479 191.5 L 478 191.5 L 478.5 180 Z " /><path fill="rgb(74,75,75)" stroke="rgb(74,75,75)" stroke-width="0.6" opacity="1" d="M 39.5 255 L 45 261.5 L 44 261.5 L 39.5 255 Z " /><path fill="rgb(74,75,75)" stroke="rgb(74,75,75)" stroke-width="0.6" opacity="1" d="M 278.5 275 L 279 278.5 L 278 291.5 L 278.5 293 L 276 292.5 L 276 279 Q 279.5 280.2 278.5 275 Z " /><path fill="rgb(74,75,75)" stroke="rgb(74,75,75)" stroke-width="0.6" opacity="1" d="M 273.5 286 L 274 302.5 L 273 302.5 L 273.5 286 Z " /><path fill="rgb(74,75,75)" stroke="rgb(74,75,75)" stroke-width="0.6" opacity="1" d="M 464.5 302 L 465 336.5 L 464 336.5 L 464.5 302 Z " /><path fill="rgb(74,75,75)" stroke="rgb(74,75,75)" stroke-width="0.6" opacity="1" d="M 406.5 306 L 410 307.5 Q 411.7 312.3 407.5 311 L 406 311.5 L 409 307 L 406.5 306 Z " /><path fill="rgb(74,75,75)" stroke="rgb(74,75,75)" stroke-width="0.6" opacity="1" d="M 404.5 312 L 401.5 316 L 398.5 317 L 401.5 313 L 404.5 312 Z " /><path fill="rgb(74,75,75)" stroke="rgb(74,75,75)" stroke-width="0.6" opacity="1" d="M 228.5 326 L 233 328.5 L 228 332.5 L 230 333.5 L 227.5 335 Q 223 333 226.5 331 L 230 328.5 L 228.5 327 L 228.5 326 Z " /><path fill="rgb(74,75,75)" stroke="rgb(74,75,75)" stroke-width="0.6" opacity="1" d="M 222.5 334 L 225 334.5 L 218.5 341 L 217 339.5 L 222.5 334 Z " /><path fill="rgb(74,75,75)" stroke="rgb(74,75,75)" stroke-width="0.6" opacity="1" d="M 304.5 374 L 310 376.5 L 308 377.5 L 308.5 379 L 303 375.5 L 304.5 374 Z " /><path fill="rgb(74,75,75)" stroke="rgb(74,75,75)" stroke-width="0.6" opacity="1" d="M 158.5 387 L 172 387.5 L 158.5 388 L 158.5 387 Z " /><path fill="rgb(74,75,75)" stroke="rgb(74,75,75)" stroke-width="0.6" opacity="1" d="M 213.5 402 L 216 406.5 L 214 407.5 L 214.5 406 L 213 405.5 L 213.5 404 L 212 403.5 L 213.5 402 Z " /><path fill="rgb(74,75,75)" stroke="rgb(74,75,75)" stroke-width="0.6" opacity="1" d="M 217.5 409 L 219.5 412 L 222 413.5 L 221.5 416 L 216 410.5 L 217.5 409 Z " /><path fill="rgb(74,75,75)" stroke="rgb(74,75,75)" stroke-width="0.6" opacity="1" d="M 260.5 409 L 255.5 415 L 260.5 409 Z " /><path fill="rgb(106,133,163)" stroke="rgb(106,133,163)" stroke-width="0.6" opacity="1" d="M 141.5 146 L 152.5 147 L 156 146 L 155.5 148 L 132.5 148 L 119.5 150 L 107.5 154 L 107 152 L 118.5 149 L 141.5 146 Z " /><path fill="rgb(106,133,163)" stroke="rgb(106,133,163)" stroke-width="0.6" opacity="1" d="M 158 146 L 160.5 147 L 163.5 146 L 168.5 147 L 170.5 147 L 193.5 147 L 195 148.5 L 190.5 149 L 189.5 148 L 158 148 L 158 146 Z " /><path fill="rgb(106,133,163)" stroke="rgb(106,133,163)" stroke-width="0.6" opacity="1" d="M 198.5 148 L 211 149.5 L 201.5 150 L 198.5 148 Z " /><path fill="rgb(106,133,163)" stroke="rgb(106,133,163)" stroke-width="0.6" opacity="1" d="M 212.5 149 L 248.5 155 Q 256.9 157.2 261 163.5 L 264 170.5 L 268 202.5 L 266 201.5 L 263 171.5 Q 261.6 164 256.5 160 L 238.5 154 L 213.5 151 L 212.5 149 Z " /><path fill="rgb(106,133,163)" stroke="rgb(106,133,163)" stroke-width="0.6" opacity="1" d="M 101.5 155 L 102 156.5 L 91 166.5 L 90 170 L 106.5 169 L 107.5 170 L 153.5 172 L 161 174.5 L 159.5 174 L 121.5 171 L 90.5 171 L 88 169.5 L 101.5 155 Z " /><path fill="rgb(106,133,163)" stroke="rgb(106,133,163)" stroke-width="0.6" opacity="1" d="M 164.5 174 L 184.5 176 L 194 181.5 L 197 191.5 L 193 209.5 L 190.5 214 L 190 212.5 L 196 189.5 Q 195.1 182.9 190.5 180 L 183.5 177 L 164.5 175 L 164.5 174 Z " /><path fill="rgb(106,133,163)" stroke="rgb(106,133,163)" stroke-width="0.6" opacity="1" d="M 236.5 174 Q 249 172 253 178.5 L 250.5 177 L 248.5 176 L 227.5 176 L 226 176.5 L 226.5 175 L 235.5 175 L 236.5 174 Z " /><path fill="rgb(106,133,163)" stroke="rgb(106,133,163)" stroke-width="0.6" opacity="1" d="M 221.5 176 L 224 176.5 L 215.5 180 L 217.5 177 L 221.5 176 Z " /><path fill="rgb(106,133,163)" stroke="rgb(106,133,163)" stroke-width="0.6" opacity="1" d="M 213.5 180 L 210 184.5 L 201.5 213 L 201 210.5 L 208 185.5 L 213.5 180 Z " /><path fill="rgb(106,133,163)" stroke="rgb(106,133,163)" stroke-width="0.6" opacity="1" d="M 253.5 180 Q 256.9 182.6 256 189.5 L 255 189.5 L 253.5 180 Z " /><path fill="rgb(106,133,163)" stroke="rgb(106,133,163)" stroke-width="0.6" opacity="1" d="M 255.5 191 L 257 192.5 L 258 210.5 L 257 210.5 L 255.5 191 Z " /><path fill="rgb(106,133,163)" stroke="rgb(106,133,163)" stroke-width="0.6" opacity="1" d="M 267 212 L 269 212.5 L 269 225.5 L 270 237.5 L 269 237.5 L 267 212 Z " /><path fill="rgb(106,133,163)" stroke="rgb(106,133,163)" stroke-width="0.6" opacity="1" d="M 257.5 213 L 259 214.5 L 260 247.5 L 258.5 251 L 258 215.5 L 257.5 213 Z " /><path fill="rgb(106,133,163)" stroke="rgb(106,133,163)" stroke-width="0.6" opacity="1" d="M 201.5 214 L 202 215.5 L 198 229.5 L 198 234.5 L 195.5 237 L 195 235.5 L 197 233.5 L 197 228.5 L 201.5 214 Z " /><path fill="rgb(106,133,163)" stroke="rgb(106,133,163)" stroke-width="0.6" opacity="1" d="M 188.5 223 L 189 226.5 L 185 238.5 L 182 257 L 180 255.5 L 188.5 223 Z " /><path fill="rgb(106,133,163)" stroke="rgb(106,133,163)" stroke-width="0.6" opacity="1" d="M 193.5 240 L 194 241.5 Q 189.8 248.2 191 260.5 L 197.5 271 L 203 273.5 L 201.5 274 L 193 267.5 Q 188.4 261.6 190 249.5 L 193.5 240 Z " /><path fill="rgb(106,133,163)" stroke="rgb(106,133,163)" stroke-width="0.6" opacity="1" d="M 270.5 250 L 272 256.5 L 273 293.5 L 272 293.5 L 270.5 250 Z " /><path fill="rgb(106,133,163)" stroke="rgb(106,133,163)" stroke-width="0.6" opacity="1" d="M 53.5 252 L 73 255.5 L 67.5 256 L 54.5 253 L 50.5 259 L 51 257.5 L 53.5 252 Z " /><path fill="rgb(106,133,163)" stroke="rgb(106,133,163)" stroke-width="0.6" opacity="1" d="M 256.5 253 L 252.5 258 L 240.5 260 L 240.5 259 Q 251.7 259.2 256.5 253 Z " /><path fill="rgb(106,133,163)" stroke="rgb(106,133,163)" stroke-width="0.6" opacity="1" d="M 75 255 L 94 257.5 L 87.5 258 L 75 257 L 75 255 Z " /><path fill="rgb(106,133,163)" stroke="rgb(106,133,163)" stroke-width="0.6" opacity="1" d="M 97.5 258 Q 108 257 115 259.5 L 105.5 260 L 97.5 259 L 97.5 258 Z " /><path fill="rgb(106,133,163)" stroke="rgb(106,133,163)" stroke-width="0.6" opacity="1" d="M 180.5 259 L 183 265.5 L 180 267.5 L 182 264.5 L 181 261 L 179 260.5 L 180.5 259 Z " /><path fill="rgb(106,133,163)" stroke="rgb(106,133,163)" stroke-width="0.6" opacity="1" d="M 237.5 259 L 239 259.5 L 237.5 261 L 224.5 262 L 223 263.5 L 215.5 273 L 209.5 274 L 209.5 273 Q 217 272.5 220 267.5 L 223.5 261 Q 232.5 262 237.5 259 Z " /><path fill="rgb(106,133,163)" stroke="rgb(106,133,163)" stroke-width="0.6" opacity="1" d="M 49.5 260 L 50 262.5 L 44.5 277 L 44 275.5 L 49.5 260 Z " /><path fill="rgb(106,133,163)" stroke="rgb(106,133,163)" stroke-width="0.6" opacity="1" d="M 122.5 260 L 138 261 L 137.5 263 L 122.5 261 L 122.5 260 Z " /><path fill="rgb(106,133,163)" stroke="rgb(106,133,163)" stroke-width="0.6" opacity="1" d="M 140.5 262 Q 151.6 260.9 159 263.5 L 149.5 264 L 140.5 263 L 140.5 262 Z " /><path fill="rgb(106,133,163)" stroke="rgb(106,133,163)" stroke-width="0.6" opacity="1" d="M 161.5 263 L 176.5 263 L 178 264.5 L 176.5 267 L 175.5 264 L 162.5 265 L 161.5 263 Z " /><path fill="rgb(106,133,163)" stroke="rgb(106,133,163)" stroke-width="0.6" opacity="1" d="M 175.5 268 L 175 269.5 L 171.5 281 L 171 278.5 L 175.5 268 Z " /><path fill="rgb(106,133,163)" stroke="rgb(106,133,163)" stroke-width="0.6" opacity="1" d="M 179.5 270 L 180 271.5 L 177 284 L 175 283.5 L 179.5 270 Z " /><path fill="rgb(106,133,163)" stroke="rgb(106,133,163)" stroke-width="0.6" opacity="1" d="M 171.5 283 L 172 284.5 L 171 293 Q 168 294.3 169 290.5 L 171.5 283 Z " /><path fill="rgb(106,133,163)" stroke="rgb(106,133,163)" stroke-width="0.6" opacity="1" d="M 53.5 292 L 59 292.5 Q 51.2 292.4 48 296 L 45.5 302 L 45 299.5 L 49.5 294 L 53.5 292 Z " /><path fill="rgb(106,133,163)" stroke="rgb(106,133,163)" stroke-width="0.6" opacity="1" d="M 63.5 294 L 68 297.5 Q 72 301.5 72 309.5 L 71 309.5 Q 70.3 300.5 66 296 L 63.5 294 Z " /><path fill="rgb(106,133,163)" stroke="rgb(106,133,163)" stroke-width="0.6" opacity="1" d="M 42.5 296 Q 41.7 301.8 45 303.5 L 42.5 305 L 42.5 296 Z " /><path fill="rgb(106,133,163)" stroke="rgb(106,133,163)" stroke-width="0.6" opacity="1" d="M 53.5 297 Q 62.5 295.5 64 301.5 L 67 310.5 L 66 310.5 Q 65.1 302.9 60.5 299 L 53 298 Q 47 303.3 49 317.5 L 51 322 L 55.5 324 L 57.5 325 L 64.5 320 L 60.5 325 L 56.5 326 L 50 321.5 Q 46.3 317.2 47 308.5 Q 48.2 300.7 53.5 297 Z " /><path fill="rgb(106,133,163)" stroke="rgb(106,133,163)" stroke-width="0.6" opacity="1" d="M 174.5 298 L 175 329.5 L 173.5 334 L 173 317.5 L 174.5 298 Z " /><path fill="rgb(106,133,163)" stroke="rgb(106,133,163)" stroke-width="0.6" opacity="1" d="M 169.5 299 L 170 328.5 L 169 328.5 L 169.5 299 Z " /><path fill="rgb(106,133,163)" stroke="rgb(106,133,163)" stroke-width="0.6" opacity="1" d="M 459.5 300 L 462 300 L 464 303.5 L 463 304.5 L 463 333.5 L 463.5 335 L 462 334.5 L 462 304.5 L 461.5 302 L 448 303 L 448.5 301 L 458.5 301 L 459.5 300 Z " /><path fill="rgb(106,133,163)" stroke="rgb(106,133,163)" stroke-width="0.6" opacity="1" d="M 146.5 301 Q 156.9 301.1 161 307.5 Q 165.8 313.2 166 323.5 L 162.5 332 L 163 330.5 L 164 316.5 Q 162.2 308.9 156.5 305 Q 152.8 301.7 144.5 303 L 136 309.5 Q 130.7 315.7 133 329.5 L 139.5 339 Q 142.7 342.8 150.5 342 L 160 335.5 L 161.5 333 L 161 334.5 L 155.5 341 Q 151.9 343.9 144.5 343 L 134 334.5 L 131 322.5 L 132 314.5 L 138 305 L 146.5 301 Z " /><path fill="rgb(106,133,163)" stroke="rgb(106,133,163)" stroke-width="0.6" opacity="1" d="M 438.5 302 L 447 302.5 L 430 305 L 431.5 307 L 432.5 309 L 427 307 L 428 304.5 L 427.5 303 L 438.5 302 Z " /><path fill="rgb(106,133,163)" stroke="rgb(106,133,163)" stroke-width="0.6" opacity="1" d="M 272.5 306 L 273 343.5 L 272 343.5 L 271.5 342 L 270.5 344 L 264 333.5 L 267 335.5 L 270.5 341 L 272 340.5 L 272.5 306 Z " /><path fill="rgb(106,133,163)" stroke="rgb(106,133,163)" stroke-width="0.6" opacity="1" d="M 393.5 307 L 393.5 309 L 395 309.5 L 388 315.5 L 385.5 319 L 387 316.5 L 392 309 L 379.5 310 L 379.5 309 L 393.5 307 Z " /><path fill="rgb(106,133,163)" stroke="rgb(106,133,163)" stroke-width="0.6" opacity="1" d="M 374.5 309 L 378 309.5 L 375.5 311 L 361.5 312 L 361.5 311 L 374.5 309 Z " /><path fill="rgb(106,133,163)" stroke="rgb(106,133,163)" stroke-width="0.6" opacity="1" d="M 434.5 309 L 439 312.5 L 449 328.5 Q 449 336 452.5 340 L 461.5 338 L 460.5 340 L 451.5 341 L 449 337.5 Q 448.8 328.2 445 322.5 L 434.5 309 Z " /><path fill="rgb(106,133,163)" stroke="rgb(106,133,163)" stroke-width="0.6" opacity="1" d="M 85.5 311 L 111.5 313 L 113 314.5 L 111.5 314 L 98.5 314 L 85.5 312 L 85.5 311 Z " /><path fill="rgb(106,133,163)" stroke="rgb(106,133,163)" stroke-width="0.6" opacity="1" d="M 357.5 311 L 360 311.5 L 358.5 313 L 350.5 314 L 351.5 312 L 357.5 311 Z " /><path fill="rgb(106,133,163)" stroke="rgb(106,133,163)" stroke-width="0.6" opacity="1" d="M 71.5 312 L 72 317.5 L 67.5 325 L 69 322.5 L 71.5 312 Z " /><path fill="rgb(106,133,163)" stroke="rgb(106,133,163)" stroke-width="0.6" opacity="1" d="M 76.5 313 L 76 314.5 Q 74.2 326.8 80 331.5 L 76 328.5 L 75 314.5 L 76.5 313 Z " /><path fill="rgb(106,133,163)" stroke="rgb(106,133,163)" stroke-width="0.6" opacity="1" d="M 340.5 313 L 341 315 L 323.5 316 L 323.5 315 L 340.5 313 Z " /><path fill="rgb(106,133,163)" stroke="rgb(106,133,163)" stroke-width="0.6" opacity="1" d="M 114.5 314 Q 124.2 312.9 127 318.5 L 126.5 321 L 124.5 317 L 114.5 315 L 114.5 314 Z " /><path fill="rgb(106,133,163)" stroke="rgb(106,133,163)" stroke-width="0.6" opacity="1" d="M 317.5 315 L 319 315.5 L 317.5 317 L 308 318 L 308.5 316 L 316.5 316 L 317.5 315 Z " /><path fill="rgb(106,133,163)" stroke="rgb(106,133,163)" stroke-width="0.6" opacity="1" d="M 279.5 317 L 283 317.5 L 279 319.5 L 280 354.5 L 278.5 362 L 278 318.5 L 279.5 317 Z " /><path fill="rgb(106,133,163)" stroke="rgb(106,133,163)" stroke-width="0.6" opacity="1" d="M 284.5 317 L 297.5 318 L 299.5 317 L 299.5 318 L 285.5 319 L 284.5 317 Z " /><path fill="rgb(106,133,163)" stroke="rgb(106,133,163)" stroke-width="0.6" opacity="1" d="M 44.5 319 L 51 328.5 L 46 324.5 L 44 323 L 44 332.5 L 46.5 335 L 92.5 342 L 95 343.5 L 93.5 344 L 49.5 337 L 43 333.5 L 42 323.5 L 44.5 319 Z " /><path fill="rgb(106,133,163)" stroke="rgb(106,133,163)" stroke-width="0.6" opacity="1" d="M 235.5 320 L 247.5 321 L 261 329.5 L 259.5 329 L 246.5 322 L 236.5 321 Q 220.8 323.3 213 333.5 L 210.5 337 L 212 334.5 L 219.5 326 Q 225.4 320.9 235.5 320 Z " /><path fill="rgb(106,133,163)" stroke="rgb(106,133,163)" stroke-width="0.6" opacity="1" d="M 384.5 320 L 384 321.5 L 378.5 334 L 378 332.5 L 384.5 320 Z " /><path fill="rgb(106,133,163)" stroke="rgb(106,133,163)" stroke-width="0.6" opacity="1" d="M 66.5 326 L 63.5 330 L 59.5 331 L 59.5 330 L 66.5 326 Z " /><path fill="rgb(106,133,163)" stroke="rgb(106,133,163)" stroke-width="0.6" opacity="1" d="M 86.5 333 L 97 335.5 L 92.5 336 L 87.5 335 L 86.5 333 Z " /><path fill="rgb(106,133,163)" stroke="rgb(106,133,163)" stroke-width="0.6" opacity="1" d="M 378.5 335 L 378 336.5 L 376 351.5 L 374.5 353 L 342.5 357 L 342.5 356 L 362.5 354 L 375 350.5 Q 374.1 340.1 378.5 335 Z " /><path fill="rgb(106,133,163)" stroke="rgb(106,133,163)" stroke-width="0.6" opacity="1" d="M 109 336 L 120.5 337 L 122.5 336 L 121.5 338 L 109.5 338 L 109 336 Z " /><path fill="rgb(106,133,163)" stroke="rgb(106,133,163)" stroke-width="0.6" opacity="1" d="M 96.5 343 L 108 344 L 106.5 346 L 96.5 344 L 96.5 343 Z " /><path fill="rgb(106,133,163)" stroke="rgb(106,133,163)" stroke-width="0.6" opacity="1" d="M 112.5 345 L 124.5 346 L 126 347.5 L 122.5 348 L 112.5 346 L 112.5 345 Z " /><path fill="rgb(106,133,163)" stroke="rgb(106,133,163)" stroke-width="0.6" opacity="1" d="M 128.5 347 L 146 348 Q 147.3 351.3 142.5 350 L 128.5 348 L 128.5 347 Z " /><path fill="rgb(106,133,163)" stroke="rgb(106,133,163)" stroke-width="0.6" opacity="1" d="M 171.5 347 L 175 349.5 L 174.5 351 L 171 348.5 L 169.5 351 L 161 350.5 Q 169.3 351.8 171.5 347 Z " /><path fill="rgb(106,133,163)" stroke="rgb(106,133,163)" stroke-width="0.6" opacity="1" d="M 193.5 347 L 192.5 349 L 177.5 351 L 177 349 L 193.5 347 Z " /><path fill="rgb(106,133,163)" stroke="rgb(106,133,163)" stroke-width="0.6" opacity="1" d="M 329.5 357 L 340 357.5 L 306.5 362 L 307.5 360 L 322.5 359 L 329.5 357 Z " /><path fill="rgb(106,133,163)" stroke="rgb(106,133,163)" stroke-width="0.6" opacity="1" d="M 296.5 361 L 305 361.5 L 290 364 Q 288.6 360 295.5 362 L 296.5 361 Z " /><path fill="rgb(106,133,163)" stroke="rgb(106,133,163)" stroke-width="0.6" opacity="1" d="M 280.5 363 L 288 363.5 L 278.5 365 L 278.5 364 L 280.5 363 Z " /><path fill="rgb(106,133,163)" stroke="rgb(106,133,163)" stroke-width="0.6" opacity="1" d="M 289 368 L 294 369.5 L 299 375.5 L 294.5 377 L 292 375.5 L 296 374.5 L 291.5 369 L 289.5 370 L 289 368 Z " /><path fill="rgb(106,133,163)" stroke="rgb(106,133,163)" stroke-width="0.6" opacity="1" d="M 99.5 384 L 114 386.5 L 108.5 387 L 99.5 385 L 99.5 384 Z " /><path fill="rgb(106,133,163)" stroke="rgb(106,133,163)" stroke-width="0.6" opacity="1" d="M 125.5 390 L 124 392.5 L 119.5 398 L 108.5 402 L 109.5 400 Q 121.4 398.9 125.5 390 Z " /><path fill="rgb(106,133,163)" stroke="rgb(106,133,163)" stroke-width="0.6" opacity="1" d="M 91.5 395 Q 96.3 401.2 107 401.5 L 101.5 402 Q 93.3 400.8 91.5 395 Z " /><path fill="rgb(171,105,100)" stroke="rgb(171,105,100)" stroke-width="0.6" opacity="1" d="M 295.5 92 L 320 92.5 L 295.5 93 L 294 94.5 L 293 96.5 L 292.5 297 L 292 96.5 L 295.5 92 Z " /><path fill="rgb(171,105,100)" stroke="rgb(171,105,100)" stroke-width="0.6" opacity="1" d="M 325.5 93 L 345.5 93 L 348 94.5 L 345.5 95 L 344.5 94 L 325.5 94 L 325.5 93 Z " /><path fill="rgb(171,105,100)" stroke="rgb(171,105,100)" stroke-width="0.6" opacity="1" d="M 351.5 94 L 373 94.5 L 351.5 95 L 351.5 94 Z " /><path fill="rgb(171,105,100)" stroke="rgb(171,105,100)" stroke-width="0.6" opacity="1" d="M 377.5 95 L 390.5 95 L 393 96.5 L 388.5 97 L 377.5 96 L 377.5 95 Z " /><path fill="rgb(171,105,100)" stroke="rgb(171,105,100)" stroke-width="0.6" opacity="1" d="M 395.5 96 L 412 96.5 L 395.5 97 L 395.5 96 Z " /><path fill="rgb(171,105,100)" stroke="rgb(171,105,100)" stroke-width="0.6" opacity="1" d="M 416.5 97 L 444 98.5 L 425.5 99 L 416.5 98 L 416.5 97 Z " /><path fill="rgb(171,105,100)" stroke="rgb(171,105,100)" stroke-width="0.6" opacity="1" d="M 446.5 99 L 466 100.5 L 455.5 101 L 446.5 100 L 446.5 99 Z " /><path fill="rgb(171,105,100)" stroke="rgb(171,105,100)" stroke-width="0.6" opacity="1" d="M 470.5 103 L 473 107.5 L 473 141.5 L 472 141.5 L 472 107.5 L 470.5 103 Z " /><path fill="rgb(171,105,100)" stroke="rgb(171,105,100)" stroke-width="0.6" opacity="1" d="M 473.5 159 L 474 289.5 L 473 289.5 L 473.5 159 Z " /><path fill="rgb(171,105,100)" stroke="rgb(171,105,100)" stroke-width="0.6" opacity="1" d="M 234.5 180 L 246.5 180 L 250 183.5 L 251 193.5 L 250 193.5 L 249 183.5 L 246.5 181 Q 230.1 180.1 218.5 184 L 218.5 183 L 234.5 180 Z " /><path fill="rgb(171,105,100)" stroke="rgb(171,105,100)" stroke-width="0.6" opacity="1" d="M 251.5 195 L 252 207.5 L 251 207.5 L 251.5 195 Z " /><path fill="rgb(171,105,100)" stroke="rgb(171,105,100)" stroke-width="0.6" opacity="1" d="M 251.5 210 L 253 211.5 L 253 224.5 L 252 224.5 L 252 211.5 L 251.5 210 Z " /><path fill="rgb(171,105,100)" stroke="rgb(171,105,100)" stroke-width="0.6" opacity="1" d="M 204.5 222 L 205 227.5 L 204 231 Q 212.9 229.4 217 233.5 L 215.5 233 L 204.5 232 L 203 230.5 L 204.5 222 Z " /><path fill="rgb(171,105,100)" stroke="rgb(171,105,100)" stroke-width="0.6" opacity="1" d="M 253.5 227 L 254 248.5 L 253 248.5 L 253.5 227 Z " /><path fill="rgb(171,105,100)" stroke="rgb(171,105,100)" stroke-width="0.6" opacity="1" d="M 221.5 239 L 224 244.5 L 224 254.5 L 225.5 256 L 233.5 255 L 233.5 256 L 224.5 257 L 223 255.5 Q 224 244.3 221.5 239 Z " /><path fill="rgb(171,105,100)" stroke="rgb(171,105,100)" stroke-width="0.6" opacity="1" d="M 252.5 250 L 250.5 253 L 242.5 254 L 242.5 253 Q 249.9 253.9 252.5 250 Z " /><path fill="rgb(171,105,100)" stroke="rgb(171,105,100)" stroke-width="0.6" opacity="1" d="M 472.5 291 L 470.5 294 L 458.5 295 L 458.5 294 L 470.5 293 L 472.5 291 Z " /><path fill="rgb(171,105,100)" stroke="rgb(171,105,100)" stroke-width="0.6" opacity="1" d="M 451.5 295 L 456 295.5 L 431.5 299 L 421.5 299 L 421.5 298 L 431.5 298 L 451.5 295 Z " /><path fill="rgb(171,105,100)" stroke="rgb(171,105,100)" stroke-width="0.6" opacity="1" d="M 410.5 299 L 419 299.5 L 402.5 301 L 402.5 300 L 410.5 299 Z " /><path fill="rgb(171,105,100)" stroke="rgb(171,105,100)" stroke-width="0.6" opacity="1" d="M 394.5 301 L 401 301.5 L 379.5 304 L 379.5 303 L 394.5 301 Z " /><path fill="rgb(171,105,100)" stroke="rgb(171,105,100)" stroke-width="0.6" opacity="1" d="M 144.5 307 Q 154.6 305.4 157 311.5 Q 161.1 315.9 160 325.5 Q 158.2 332.7 152.5 336 L 157 330.5 Q 160 326.5 159 318.5 L 153.5 309 L 144.5 308 L 139 312.5 L 144.5 307 Z " /><path fill="rgb(171,105,100)" stroke="rgb(171,105,100)" stroke-width="0.6" opacity="1" d="M 338.5 307 L 346 307.5 L 330.5 309 L 330.5 308 L 338.5 307 Z " /><path fill="rgb(171,105,100)" stroke="rgb(171,105,100)" stroke-width="0.6" opacity="1" d="M 318.5 309 L 327 309.5 L 311.5 311 L 311.5 310 L 318.5 309 Z " /><path fill="rgb(171,105,100)" stroke="rgb(171,105,100)" stroke-width="0.6" opacity="1" d="M 293.5 310 L 296.5 312 L 307.5 311 L 307.5 312 L 295.5 313 L 293.5 310 Z " /><path fill="rgb(171,105,100)" stroke="rgb(171,105,100)" stroke-width="0.6" opacity="1" d="M 138.5 329 L 144 335.5 L 138 330.5 L 138.5 329 Z " /><path fill="rgb(171,105,100)" stroke="rgb(171,105,100)" stroke-width="0.6" opacity="1" d="M 416.5 336 L 421 336.5 Q 414.1 336.1 412.5 341 L 416.5 336 Z " /><path fill="rgb(171,105,100)" stroke="rgb(171,105,100)" stroke-width="0.6" opacity="1" d="M 40.5 339 L 61 343.5 L 54.5 344 L 40.5 340 L 39 341.5 L 39 357.5 Q 40.1 364.9 45.5 368 L 75.5 375 L 138 383.5 L 131.5 384 L 54.5 372 Q 44.4 370.6 40 363.5 Q 36 355.5 38 341.5 L 40.5 339 Z " /><path fill="rgb(171,105,100)" stroke="rgb(171,105,100)" stroke-width="0.6" opacity="1" d="M 411.5 342 L 412 344.5 Q 408.3 348.8 410 358.5 Q 410.9 365.1 415.5 368 L 417 368.5 L 415.5 369 Q 407 364 409 348.5 L 411.5 342 Z " /><path fill="rgb(171,105,100)" stroke="rgb(171,105,100)" stroke-width="0.6" opacity="1" d="M 425.5 342 L 428 354.5 L 425.5 362 L 425 358.5 Q 427.8 355.8 427 349.5 L 425.5 342 Z " /><path fill="rgb(171,105,100)" stroke="rgb(171,105,100)" stroke-width="0.6" opacity="1" d="M 62.5 344 L 100.5 350 L 125.5 352 L 127 353.5 L 125.5 353 L 93.5 350 L 62.5 345 L 62.5 344 Z " /><path fill="rgb(171,105,100)" stroke="rgb(171,105,100)" stroke-width="0.6" opacity="1" d="M 129.5 353 L 146 354.5 L 135.5 355 L 129.5 354 L 129.5 353 Z " /><path fill="rgb(171,105,100)" stroke="rgb(171,105,100)" stroke-width="0.6" opacity="1" d="M 192.5 353 Q 198 352 199 355.5 L 198.5 359 L 196.5 354 L 164.5 357 L 148 355.5 L 163.5 355 L 169.5 356 L 192.5 353 Z " /><path fill="rgb(171,105,100)" stroke="rgb(171,105,100)" stroke-width="0.6" opacity="1" d="M 197.5 371 L 198 375.5 L 192.5 383 Q 185.9 386.9 174.5 386 L 174.5 385 Q 184.3 385.8 190.5 383 L 196 378.5 L 197.5 371 Z " /><path fill="rgb(171,105,100)" stroke="rgb(171,105,100)" stroke-width="0.6" opacity="1" d="M 67.5 379 L 77.5 380 L 79 381.5 L 80 386.5 L 79 386.5 L 76.5 381 L 67 380 L 66.5 382 L 66 380.5 L 67.5 379 Z " /><path fill="rgb(171,105,100)" stroke="rgb(171,105,100)" stroke-width="0.6" opacity="1" d="M 67.5 383 Q 70.5 392 78 396.5 L 69 388.5 L 67.5 383 Z " /><path fill="rgb(171,105,100)" stroke="rgb(171,105,100)" stroke-width="0.6" opacity="1" d="M 139.5 383 L 157 385.5 L 147.5 386 L 140.5 385 L 139.5 383 Z " /><path fill="rgb(171,105,100)" stroke="rgb(171,105,100)" stroke-width="0.6" opacity="1" d="M 158.5 386 L 171 386.5 L 158.5 387 L 158.5 386 Z " /><path fill="rgb(171,105,100)" stroke="rgb(171,105,100)" stroke-width="0.6" opacity="1" d="M 84.5 395 L 87 398.5 L 84.5 400 L 81 398.5 L 83.5 398 L 86 399 L 84.5 395 Z " /><path fill="rgb(185,167,100)" stroke="rgb(185,167,100)" stroke-width="0.6" opacity="1" d="M 95.5 175 L 165.5 179 L 184.5 182 L 190 185.5 L 191 190.5 L 176 251.5 L 176 256.5 L 173.5 259 L 124.5 256 L 77 250.5 L 85.5 250 Q 94.9 253.1 108.5 252 L 115.5 254 L 150.5 256 L 159.5 258 L 173.5 258 L 175 256.5 L 179 233.5 L 181 230.5 Q 182.2 216.2 187 205.5 L 190 187.5 L 184.5 183 L 171.5 182 L 165.5 180 L 96.5 176 L 86.5 177 L 84 179.5 L 80.5 186 L 80 184.5 L 85.5 176 L 95.5 175 Z " /><path fill="rgb(185,167,100)" stroke="rgb(185,167,100)" stroke-width="0.6" opacity="1" d="M 77.5 191 L 78 192.5 Q 65.7 216.7 57.5 245 L 57 243.5 Q 64.8 214.8 77.5 191 Z " /><path fill="rgb(185,167,100)" stroke="rgb(185,167,100)" stroke-width="0.6" opacity="1" d="M 46.5 226 Q 55 224 57 228.5 L 48.5 251 L 48 249.5 L 50 247.5 L 56 228.5 Q 54 225 46.5 227 L 43.5 231 L 43 229.5 L 46.5 226 Z " /><path fill="rgb(185,167,100)" stroke="rgb(185,167,100)" stroke-width="0.6" opacity="1" d="M 42.5 232 L 43 235.5 L 42 248.5 L 44.5 253 L 47.5 252 L 46.5 254 L 42 251.5 L 41 236.5 L 42.5 232 Z " /><path fill="rgb(185,167,100)" stroke="rgb(185,167,100)" stroke-width="0.6" opacity="1" d="M 56.5 246 L 58.5 248 L 76 249.5 L 65.5 250 L 57.5 249 L 56 247.5 L 56.5 246 Z " /><path fill="rgb(185,167,100)" stroke="rgb(185,167,100)" stroke-width="0.6" opacity="1" d="M 404.5 308 L 405 311 L 394 319.5 L 388.5 329 L 387.5 327 L 386 327.5 Q 390.2 317.2 398.5 311 L 404.5 308 Z M 398 313 L 393 319 L 399 314 L 398 313 Z " /><path fill="rgb(185,167,100)" stroke="rgb(185,167,100)" stroke-width="0.6" opacity="1" d="M 413.5 310 L 426.5 311 L 439 321.5 L 445 335.5 L 446 355.5 Q 443.1 378.6 428.5 390 L 427 389.5 L 435 382.5 Q 445.4 369.4 445 345.5 Q 443.6 323.9 430.5 314 Q 424.7 309.8 413.5 311 Q 401.9 314.4 396 323.5 L 393.5 328 L 393 326.5 L 401.5 316 L 413.5 310 Z " /><path fill="rgb(185,167,100)" stroke="rgb(185,167,100)" stroke-width="0.6" opacity="1" d="M 392.5 329 L 393 330.5 Q 386 342.5 388 363.5 L 389 372.5 L 388 372.5 L 387 345.5 L 392.5 329 Z " /><path fill="rgb(185,167,100)" stroke="rgb(185,167,100)" stroke-width="0.6" opacity="1" d="M 415.5 330 Q 427.6 328.4 430 336.5 L 433 342.5 L 434 354.5 L 430.5 365 L 430 363.5 Q 434.1 356.6 432 343.5 Q 430.1 335.8 424.5 332 L 415.5 331 L 408 337.5 Q 403.8 344.8 404 356.5 Q 405.1 367.9 412.5 373 L 420.5 374 L 428 368.5 L 429.5 366 L 429 367.5 L 424.5 373 Q 421.5 376 414.5 375 L 407 368.5 Q 402 362 403 349.5 Q 404.6 336.6 413.5 331 L 415.5 330 Z " /><path fill="rgb(185,167,100)" stroke="rgb(185,167,100)" stroke-width="0.6" opacity="1" d="M 383.5 334 L 386 335 Q 381 346.7 383 366.5 L 384 369.5 L 383 369.5 L 382 354 L 380 355.5 L 375.5 359 Q 370.3 357.8 369 360.5 L 368.5 362 L 368 360.5 L 370.5 358 Q 376.7 358.7 379 355.5 L 383.5 334 Z " /><path fill="rgb(185,167,100)" stroke="rgb(185,167,100)" stroke-width="0.6" opacity="1" d="M 241.5 357 Q 247.7 356.3 249 360.5 Q 253.4 366.1 253 376.5 Q 251.8 386.8 245.5 392 L 240.5 393 L 236 389.5 Q 230.5 383 233 368.5 L 239.5 358 L 241.5 357 Z M 243 358 L 241 359 Q 235 362 234 370 Q 232 381 236 388 Q 237 393 244 392 Q 251 387 252 377 L 249 363 L 243 358 Z " /><path fill="rgb(185,167,100)" stroke="rgb(185,167,100)" stroke-width="0.6" opacity="1" d="M 373.5 376 L 382.5 386 L 393.5 390 L 391.5 386 L 396 392 Q 383.7 390.5 377 382.5 L 373.5 376 Z " /><path fill="rgb(185,167,100)" stroke="rgb(185,167,100)" stroke-width="0.6" opacity="1" d="M 200 381 L 203 381.5 L 200 383.5 L 198.5 386 L 189 390.5 Q 191.2 403.8 199.5 411 Q 204.7 417.3 216.5 417 L 212 411.5 L 208 404.5 L 210 405.5 L 219 417.5 L 216.5 419 Q 201.9 417.1 195 407.5 Q 189.6 400.9 188 390.5 Q 189.9 386.9 195.5 387 L 200 382.5 L 200 381 Z " /><path fill="rgb(185,167,100)" stroke="rgb(185,167,100)" stroke-width="0.6" opacity="1" d="M 394.5 384 L 406.5 392 L 416.5 393 L 425.5 390 L 424.5 392 Q 419.1 395.1 409.5 394 L 396.5 387 L 394.5 384 Z " /><path fill="rgb(139,144,146)" stroke="rgb(139,144,146)" stroke-width="0.6" opacity="1" d="M 271.5 86 L 286 86.5 L 271.5 87 L 271.5 86 Z " /><path fill="rgb(139,144,146)" stroke="rgb(139,144,146)" stroke-width="0.6" opacity="1" d="M 294.5 86 L 308 86.5 L 294.5 87 L 294.5 86 Z " /><path fill="rgb(139,144,146)" stroke="rgb(139,144,146)" stroke-width="0.6" opacity="1" d="M 148.5 109 L 149 126.5 L 148 126.5 L 148.5 109 Z " /><path fill="rgb(139,144,146)" stroke="rgb(139,144,146)" stroke-width="0.6" opacity="1" d="M 478.5 130 L 479 146.5 L 478 146.5 L 478.5 130 Z " /><path fill="rgb(139,144,146)" stroke="rgb(139,144,146)" stroke-width="0.6" opacity="1" d="M 142.5 146 L 153 146.5 L 142.5 147 L 142.5 146 Z " /><path fill="rgb(139,144,146)" stroke="rgb(139,144,146)" stroke-width="0.6" opacity="1" d="M 107.5 149 L 107 152.5 L 105.5 154 L 102.5 156 L 103.5 154 L 106 152.5 L 104 151.5 L 107.5 149 Z " /><path fill="rgb(139,144,146)" stroke="rgb(139,144,146)" stroke-width="0.6" opacity="1" d="M 39.5 256 L 44 262.5 L 43 262.5 L 39.5 256 Z " /><path fill="rgb(139,144,146)" stroke="rgb(139,144,146)" stroke-width="0.6" opacity="1" d="M 463.5 304 L 464 333.5 L 463 333.5 L 463.5 304 Z " /><path fill="rgb(139,144,146)" stroke="rgb(139,144,146)" stroke-width="0.6" opacity="1" d="M 171.5 334 Q 176.1 332.6 174 338.5 L 172 339.5 L 173 336 L 170.5 337 L 170 335.5 L 171.5 334 Z " /><path fill="rgb(210,211,211)" stroke="rgb(210,211,211)" stroke-width="0.6" opacity="1" d="M 272.5 85 L 307 85.5 L 272.5 86 L 272.5 85 Z " /><path fill="rgb(210,211,211)" stroke="rgb(210,211,211)" stroke-width="0.6" opacity="1" d="M 232.5 86 L 250 86.5 L 232.5 87 L 232.5 86 Z " /><path fill="rgb(210,211,211)" stroke="rgb(210,211,211)" stroke-width="0.6" opacity="1" d="M 322.5 86 L 335 86.5 L 322.5 87 L 322.5 86 Z " /><path fill="rgb(210,211,211)" stroke="rgb(210,211,211)" stroke-width="0.6" opacity="1" d="M 205.5 87 L 219 87.5 L 205.5 88 L 205.5 87 Z " /><path fill="rgb(210,211,211)" stroke="rgb(210,211,211)" stroke-width="0.6" opacity="1" d="M 147.5 102 L 148 128.5 L 147 128.5 L 147.5 102 Z " /><path fill="rgb(210,211,211)" stroke="rgb(210,211,211)" stroke-width="0.6" opacity="1" d="M 479.5 132 L 480 179.5 L 479 179.5 L 479.5 132 Z " /><path fill="rgb(210,211,211)" stroke="rgb(210,211,211)" stroke-width="0.6" opacity="1" d="M 91.5 157 L 85.5 164 L 91.5 157 Z " /><path fill="rgb(210,211,211)" stroke="rgb(210,211,211)" stroke-width="0.6" opacity="1" d="M 36.5 252 L 43 262.5 L 42 262.5 L 36.5 252 Z " /><path fill="rgb(210,211,211)" stroke="rgb(210,211,211)" stroke-width="0.6" opacity="1" d="M 479.5 267 L 480 291.5 L 479 291.5 L 479.5 267 Z " /><path fill="rgb(210,211,211)" stroke="rgb(210,211,211)" stroke-width="0.6" opacity="1" d="M 36.5 291 L 37 302.5 L 36 302.5 L 36.5 291 Z " /><path fill="rgb(210,211,211)" stroke="rgb(210,211,211)" stroke-width="0.6" opacity="1" d="M 470.5 299 L 473 299.5 L 470 301.5 L 469.5 338 L 469 300.5 L 470.5 299 Z " /><path fill="rgb(210,211,211)" stroke="rgb(210,211,211)" stroke-width="0.6" opacity="1" d="M 36.5 318 L 37 330.5 L 36 330.5 L 36.5 318 Z " /><path fill="rgb(210,211,211)" stroke="rgb(210,211,211)" stroke-width="0.6" opacity="1" d="M 221.5 332 L 223 332.5 L 213.5 343 L 213 341.5 L 221.5 332 Z " /><path fill="rgb(210,211,211)" stroke="rgb(210,211,211)" stroke-width="0.6" opacity="1" d="M 60.5 381 L 64 388.5 L 62 387.5 L 60.5 381 Z " /><path fill="rgb(210,211,211)" stroke="rgb(210,211,211)" stroke-width="0.6" opacity="1" d="M 178.5 391 L 184 392.5 L 183.5 397 L 183 392 Q 177.6 393.3 178.5 391 Z " /><path fill="rgb(210,211,211)" stroke="rgb(210,211,211)" stroke-width="0.6" opacity="1" d="M 154.5 392 L 176 392.5 L 154.5 393 L 154.5 392 Z " /><path fill="rgb(210,211,211)" stroke="rgb(210,211,211)" stroke-width="0.6" opacity="1" d="M 129.5 395 L 123.5 402 L 129.5 395 Z " /><path fill="rgb(210,211,211)" stroke="rgb(210,211,211)" stroke-width="0.6" opacity="1" d="M 265.5 411 L 258.5 419 L 265.5 411 Z " /><path fill="rgb(177,177,176)" stroke="rgb(177,177,176)" stroke-width="0.6" opacity="1" d="M 250.5 86 L 271 86.5 L 250.5 87 L 250.5 86 Z " /><path fill="rgb(177,177,176)" stroke="rgb(177,177,176)" stroke-width="0.6" opacity="1" d="M 308.5 86 L 322 86.5 L 308.5 87 L 308.5 86 Z " /><path fill="rgb(177,177,176)" stroke="rgb(177,177,176)" stroke-width="0.6" opacity="1" d="M 219.5 87 L 232 87.5 L 219.5 88 L 219.5 87 Z " /><path fill="rgb(177,177,176)" stroke="rgb(177,177,176)" stroke-width="0.6" opacity="1" d="M 361.5 88 L 376 88.5 L 361.5 89 L 361.5 88 Z " /><path fill="rgb(177,177,176)" stroke="rgb(177,177,176)" stroke-width="0.6" opacity="1" d="M 478.5 114 L 479 129.5 L 478 129.5 L 478.5 114 Z " /><path fill="rgb(177,177,176)" stroke="rgb(177,177,176)" stroke-width="0.6" opacity="1" d="M 148.5 127 L 149 139.5 Q 147.3 143.8 139.5 142 L 139.5 141 Q 146.2 142.8 148 139.5 L 148.5 127 Z " /><path fill="rgb(177,177,176)" stroke="rgb(177,177,176)" stroke-width="0.6" opacity="1" d="M 479.5 180 L 480 266.5 L 479 266.5 L 479.5 180 Z " /><path fill="rgb(177,177,176)" stroke="rgb(177,177,176)" stroke-width="0.6" opacity="1" d="M 36.5 303 L 37 317.5 L 36 317.5 L 36.5 303 Z " /><path fill="rgb(177,177,176)" stroke="rgb(177,177,176)" stroke-width="0.6" opacity="1" d="M 37.5 328 L 38 334.5 L 34 337.5 Q 38.5 335.5 37.5 328 Z " /><path fill="rgb(177,177,176)" stroke="rgb(177,177,176)" stroke-width="0.6" opacity="1" d="M 214.5 339 L 217 339.5 Q 215 343.2 213 341.5 L 214 343.5 L 210.5 348 L 210 345.5 L 214.5 339 Z " /><path fill="rgb(177,177,176)" stroke="rgb(177,177,176)" stroke-width="0.6" opacity="1" d="M 364.5 360 L 369 362 L 369 366.5 Q 366 365.5 367 370.5 L 366 370.5 Q 367.2 362 364.5 360 Z " /><path fill="rgb(177,177,176)" stroke="rgb(177,177,176)" stroke-width="0.6" opacity="1" d="M 440.5 385 L 434.5 392 L 440.5 385 Z " /><path fill="rgb(177,177,176)" stroke="rgb(177,177,176)" stroke-width="0.6" opacity="1" d="M 67.5 394 L 73.5 401 L 67.5 394 Z " /><path fill="rgb(177,177,176)" stroke="rgb(177,177,176)" stroke-width="0.6" opacity="1" d="M 98.5 407 L 109 407.5 L 98.5 408 L 98.5 407 Z " /><path fill="rgb(177,177,176)" stroke="rgb(177,177,176)" stroke-width="0.6" opacity="1" d="M 225.5 425 L 241 425.5 L 225.5 426 L 225.5 425 Z " /><path fill="rgb(202,91,78)" stroke="rgb(202,91,78)" stroke-width="0.6" opacity="1" d="M 298.5 93 L 323 93.5 L 298.5 94 L 298.5 93 Z " /><path fill="rgb(202,91,78)" stroke="rgb(202,91,78)" stroke-width="0.6" opacity="1" d="M 471.5 107 L 472 125.5 L 471 125.5 L 471.5 107 Z " /><path fill="rgb(202,91,78)" stroke="rgb(202,91,78)" stroke-width="0.6" opacity="1" d="M 472.5 151 L 473 195.5 L 472 195.5 L 472.5 151 Z " /><path fill="rgb(202,91,78)" stroke="rgb(202,91,78)" stroke-width="0.6" opacity="1" d="M 293.5 164 L 294 299.5 L 293 299.5 L 293.5 164 Z " /><path fill="rgb(202,91,78)" stroke="rgb(202,91,78)" stroke-width="0.6" opacity="1" d="M 234.5 181 L 246.5 181 L 249 183.5 L 246.5 182 L 234.5 182 L 234.5 181 Z " /><path fill="rgb(202,91,78)" stroke="rgb(202,91,78)" stroke-width="0.6" opacity="1" d="M 217.5 184 L 219 184.5 L 214 188.5 L 213.5 190 L 213 188.5 L 217.5 184 Z " /><path fill="rgb(202,91,78)" stroke="rgb(202,91,78)" stroke-width="0.6" opacity="1" d="M 472.5 260 L 473 282.5 L 472 282.5 L 472.5 260 Z " /><path fill="rgb(202,91,78)" stroke="rgb(202,91,78)" stroke-width="0.6" opacity="1" d="M 151.5 356 L 164 356.5 L 151.5 357 L 151.5 356 Z " /><path fill="rgb(202,91,78)" stroke="rgb(202,91,78)" stroke-width="0.6" opacity="1" d="M 158.5 385 L 171 385.5 L 158.5 386 L 158.5 385 Z " /></svg>