<svg width="627" height="627" preserveAspectRatio="xMidYMid meet" viewBox="0 0 512 512" version="1.1" xmlns="http://www.w3.org/2000/svg" ><path fill="rgb(255,255,255)" stroke="rgb(255,255,255)" stroke-width="0" opacity="1" d="M 0 0 L 512 0 L 512 512 L 0 512 L 0 0 Z M 279 95 L 278 96 L 260 96 L 259 97 L 241 98 L 208 105 L 187 113 L 172 122 L 160 131 L 160 133 L 146 148 L 135 165 Q 124 183 118 205 Q 106 203 100 209 Q 93 213 91 223 Q 90 231 92 236 Q 77 242 66 253 Q 56 261 49 273 L 41 291 L 38 306 L 38 325 L 39 326 L 39 330 L 35 339 L 35 348 L 39 359 Q 47 371 66 374 L 70 382 L 84 393 L 94 397 L 104 399 Q 128 400 139 387 L 142 388 L 159 388 L 160 389 L 192 389 L 193 388 L 206 388 L 218 386 Q 220 395 226 402 Q 233 410 245 414 L 260 417 L 281 416 L 292 412 L 303 404 L 316 384 Q 320 376 320 366 L 370 358 L 371 364 L 377 375 Q 385 386 403 389 L 426 389 Q 435 387 442 382 Q 452 374 458 361 L 463 345 L 464 336 Q 472 330 474 320 L 476 310 L 476 302 L 477 301 L 477 276 L 476 275 L 476 267 L 474 256 L 466 236 L 460 228 L 449 218 L 445 212 L 442 197 L 434 174 Q 426 156 415 142 Q 395 117 363 106 L 345 101 L 323 97 L 298 96 L 297 95 L 279 95 Z " /><path fill="rgb(255,255,255)" stroke="rgb(255,255,255)" stroke-width="0" opacity="1" d="M 269.5 102 L 303.5 102 L 304.5 103 L 315.5 103 L 316.5 104 L 336.5 106 L 356.5 111 L 374.5 118 L 385.5 124 Q 399.8 132.7 410 145.5 Q 431.9 172.6 439 214.5 Q 442 222 448.5 226 L 456 232.5 Q 464.6 242.9 468 258.5 L 470 269.5 L 470 280.5 L 471 281.5 L 471 295.5 L 470 296.5 L 470 307.5 L 468 317.5 L 464.5 326 L 461 302.5 Q 456.3 288.7 445.5 281 L 435.5 277 L 426.5 277 Q 412.9 279.9 406 289.5 L 395 308.5 L 390 328.5 L 389 340.5 L 384.5 348 L 374.5 351 L 369.5 351 L 363.5 353 L 358.5 353 L 321.5 360 L 321 338.5 L 319 327.5 L 311 311.5 L 311 308.5 L 312 307.5 L 312 282.5 L 308 262.5 L 301 247 L 313.5 255 L 329.5 256 Q 339.6 253.6 345 246.5 L 348.5 241 L 365.5 240 L 366.5 239 L 389 237 L 395 255.5 L 396 273.5 L 391 298.5 L 381 327.5 L 375.5 335 L 357.5 339 L 333.5 342 L 328 344.5 L 329.5 346 L 337.5 346 L 338.5 345 L 344.5 345 L 372.5 340 Q 379.7 338.2 383 332.5 L 398 286.5 L 399 274.5 L 400 273.5 L 400 262.5 L 399 261.5 L 398 250.5 L 392 236.5 L 413.5 231 L 424 223.5 Q 429 218 427 205.5 Q 419.6 166.9 396.5 144 Q 387.4 135.6 374.5 131 L 359.5 128 L 345.5 128 L 334.5 130 L 325.5 134 L 315 143.5 L 309 154.5 L 306 165.5 L 305 180.5 L 304 181.5 L 304 194.5 L 303 195.5 L 303 221.5 Q 297.2 227.2 299 240.5 L 299.5 242 Q 293.5 240.5 292 243.5 Q 291.3 245.8 293.5 245 L 298 249.5 L 306 269.5 L 308 280.5 L 309 305.5 L 307.5 307 L 301.5 301 L 289.5 296 L 278.5 296 Q 261.5 300 253 312.5 L 247 321.5 L 242 333.5 L 239 344.5 L 236 365.5 L 230.5 375 L 216.5 380 L 199.5 381 L 198.5 382 L 151.5 382 L 150.5 381 L 137.5 381 L 136.5 380 L 126.5 380 L 125.5 379 L 110.5 378 L 74.5 371 L 59.5 366 L 46 357.5 Q 40.3 351.7 41 339.5 L 43.5 335 L 54.5 342 L 66.5 346 L 95.5 352 L 102.5 352 L 118.5 355 L 127.5 355 L 128.5 356 L 163.5 357 L 164.5 358 L 185.5 358 L 186.5 357 L 213.5 356 L 225 353 L 224.5 351 L 214.5 351 L 213.5 352 L 203.5 352 L 202.5 353 L 148.5 353 L 147.5 352 L 133.5 352 L 132.5 351 L 105.5 349 L 76.5 344 L 55.5 338 L 46 331.5 L 44 320.5 L 44 310.5 L 45.5 305 Q 45.3 315.7 52.5 319 Q 55.7 321.3 62.5 320 L 73 311.5 L 79 299.5 L 81 284.5 L 79 275.5 L 73.5 268 Q 69.6 264.9 62 265.5 Q 82.1 242.8 115 234 L 117 230.5 L 119 220.5 L 129 191.5 L 139 170.5 Q 148.9 151.4 163.5 137 Q 181.9 118.9 210.5 111 L 239.5 105 L 255.5 104 L 256.5 103 L 268.5 103 L 269.5 102 Z M 230 125 L 229 126 L 210 126 L 209 127 L 192 129 Q 179 132 170 139 Q 156 150 147 167 L 134 194 L 124 226 L 126 233 L 131 235 L 206 238 L 207 239 L 251 241 L 252 242 L 266 242 L 267 243 L 277 241 L 282 236 L 288 221 L 294 189 L 294 181 L 295 180 L 295 155 L 290 142 Q 284 132 272 129 L 257 126 L 230 125 Z M 374 252 Q 372 255 367 253 L 361 258 Q 359 266 365 268 L 375 268 L 385 265 L 387 262 Q 388 255 385 253 Q 382 251 374 252 Z M 205 275 L 195 280 Q 182 289 179 308 Q 179 321 185 329 L 196 335 Q 209 337 216 331 L 225 322 Q 230 314 232 303 L 231 290 L 228 284 Q 222 273 205 275 Z M 91 302 L 84 308 L 86 310 L 88 309 L 94 321 Q 102 330 116 333 L 131 333 Q 141 331 149 325 L 159 315 L 160 311 L 165 313 Q 167 314 166 311 L 159 303 L 155 303 L 158 309 L 156 312 L 144 323 L 132 328 Q 127 327 126 329 Q 109 329 101 321 Q 94 317 92 308 Q 90 306 93 305 Q 94 301 91 302 Z " /><path fill="rgb(255,255,255)" stroke="rgb(255,255,255)" stroke-width="0" opacity="1" d="M 223.5 131 L 243.5 131 L 244.5 132 L 264.5 133 L 278.5 138 L 286 145.5 Q 292.3 156.3 290 175.5 L 289 176.5 L 289 185.5 L 284 213.5 L 281 224.5 L 276 235 L 271.5 237 L 257.5 237 L 256.5 236 L 243.5 236 L 242.5 235 L 229.5 235 L 228.5 234 L 211.5 234 L 210.5 233 L 193.5 233 L 192.5 232 L 175.5 232 L 174.5 231 L 154.5 231 L 153.5 230 L 133.5 230 L 130 229 L 132 215.5 L 142 188.5 Q 152.3 163.8 169.5 146 Q 177 139.5 187.5 136 L 207.5 132 L 222.5 132 L 223.5 131 Z M 184 156 L 177 159 L 171 166 L 171 168 L 174 168 L 181 163 Q 189 161 192 165 Q 195 166 193 162 Q 191 156 184 156 Z M 248 158 L 243 160 L 239 166 L 246 164 Q 253 163 256 167 L 259 172 L 262 171 L 260 165 Q 257 158 248 158 Z M 180 178 L 169 183 Q 160 190 158 203 L 158 211 L 162 221 L 170 226 Q 183 228 188 222 L 196 209 Q 195 204 197 203 L 196 191 L 192 184 Q 188 178 180 178 Z M 240 180 L 231 184 Q 222 190 219 202 Q 217 216 222 223 L 227 227 L 236 230 Q 244 230 249 226 L 256 218 L 260 205 L 259 195 L 254 186 Q 250 180 240 180 Z " /><path fill="rgb(255,255,255)" stroke="rgb(255,255,255)" stroke-width="0" opacity="1" d="M 343.5 134 L 362.5 134 L 367 135 L 375 158.5 L 380 179.5 L 380 184.5 L 384 203.5 L 386 231 L 376.5 233 L 368.5 233 L 367.5 234 L 359.5 234 L 349.5 236 Q 349.1 222.9 341.5 217 Q 334 209.5 316.5 212 L 308 216 L 311 168.5 L 317 150.5 L 325.5 141 L 332.5 137 L 343.5 134 Z " /><path fill="rgb(255,255,255)" stroke="rgb(255,255,255)" stroke-width="0" opacity="1" d="M 373.5 137 Q 388.9 142.1 398 153.5 Q 417.7 176.3 422 214.5 Q 420.8 220.3 416.5 223 Q 406 229.3 391 230 L 390 209.5 L 389 208.5 L 387 187.5 L 385 182.5 L 383 168.5 L 373.5 137 Z " /><path fill="rgb(255,255,255)" stroke="rgb(255,255,255)" stroke-width="0" opacity="1" d="M 177.5 182 Q 187.2 180.8 190 186.5 L 193 194.5 L 192 194.5 L 189.5 191 L 182.5 189 Q 175.3 190.8 172 196.5 Q 167.2 202.7 169 215.5 L 174 223.5 L 172.5 223 L 165 219.5 Q 160.8 214.2 161 204.5 L 166 190.5 L 172.5 184 L 177.5 182 Z " /><path fill="rgb(255,255,255)" stroke="rgb(255,255,255)" stroke-width="0" opacity="1" d="M 238.5 184 Q 248.9 182.6 252 188.5 Q 256 192.5 256 200.5 L 255 200.5 L 253 195 L 247.5 192 L 240.5 192 L 233 197.5 Q 227.7 203.7 228 215.5 Q 229.3 222.7 234 226.5 L 232.5 226 L 226 222.5 Q 220.6 216.9 222 204.5 Q 223.9 194.8 229 189 L 238.5 184 Z " /><path fill="rgb(255,255,255)" stroke="rgb(255,255,255)" stroke-width="0" opacity="1" d="M 185.5 195 L 189 197.5 Q 190.3 203.8 186.5 205 Q 181.1 206.9 182 203.5 L 181 198.5 L 185.5 195 Z " /><path fill="rgb(255,255,255)" stroke="rgb(255,255,255)" stroke-width="0" opacity="1" d="M 245.5 198 Q 249.3 197.3 250 199.5 L 251 205.5 L 246.5 209 L 242 206.5 Q 241.4 201.1 243 199 L 245.5 198 Z " /><path fill="rgb(255,255,255)" stroke="rgb(255,255,255)" stroke-width="0" opacity="1" d="M 109.5 211 Q 116.5 209.5 116 212.5 L 111 229 L 98 233 Q 96.1 230.3 97 223.5 Q 99.3 216.8 104.5 213 L 109.5 211 Z " /><path fill="rgb(255,255,255)" stroke="rgb(255,255,255)" stroke-width="0" opacity="1" d="M 321.5 217 Q 335.5 216.5 341 224.5 Q 344 228.5 344 235.5 Q 342.6 243.6 336.5 247 Q 330.9 251.4 320.5 251 L 309.5 247 L 306 243.5 L 304 237.5 L 304 232.5 Q 305.4 225 310.5 221 L 321.5 217 Z " /><path fill="rgb(255,255,255)" stroke="rgb(255,255,255)" stroke-width="0" opacity="1" d="M 374.5 256 Q 381.2 254.3 383 257.5 Q 383.8 261.3 381.5 262 L 366.5 264 Q 363.8 262.6 365 258 L 374.5 256 Z " /><path fill="rgb(255,255,255)" stroke="rgb(255,255,255)" stroke-width="0" opacity="1" d="M 60.5 270 Q 70.3 268.3 73 273.5 L 76 282.5 L 76 291.5 L 72 304.5 L 64.5 314 L 56.5 316 L 51 312.5 L 52.5 312 L 57.5 314 L 65 310 Q 72.3 301.5 73 285.5 L 71 276.5 L 65.5 271 Q 59.5 272.3 60.5 270 Z " /><path fill="rgb(255,255,255)" stroke="rgb(255,255,255)" stroke-width="0" opacity="1" d="M 58.5 274 Q 65.5 272.5 67 276.5 Q 70.6 281.9 69 292.5 Q 67 303 60.5 309 L 53.5 310 L 50 306.5 L 48 299.5 L 48 293.5 L 53 279.5 L 58.5 274 Z " /><path fill="rgb(255,255,255)" stroke="rgb(255,255,255)" stroke-width="0" opacity="1" d="M 208.5 279 L 216.5 280 L 223 284 L 227 294.5 L 227 303.5 Q 224.3 318.3 214.5 326 Q 208.8 330.8 198.5 331 Q 190.2 329.8 187 323.5 L 184 314.5 L 184 306.5 Q 186.4 292.4 195.5 285 L 208.5 279 Z M 206 282 L 199 285 Q 190 291 187 304 Q 185 315 189 321 Q 191 326 198 327 L 206 327 L 213 323 L 221 311 L 223 302 L 222 293 L 220 289 Q 217 281 206 282 Z " /><path fill="rgb(255,255,255)" stroke="rgb(255,255,255)" stroke-width="0" opacity="1" d="M 427.5 283 L 437.5 284 L 448 291.5 Q 454.6 299.4 457 311.5 Q 455.8 316.3 458 317.5 L 458 336.5 L 455 350.5 L 450 362.5 Q 445.1 372.1 436.5 378 Q 429.6 383.1 417.5 383 Q 407.3 380.3 402 372.5 L 394 355.5 L 393 344.5 L 395 339.5 L 396 326.5 L 400 311.5 Q 404.7 297.7 414.5 289 Q 419.3 284.3 427.5 283 Z M 428 304 L 422 307 L 414 316 L 409 331 L 409 343 L 414 357 L 424 364 L 431 364 L 439 359 Q 445 352 448 341 L 448 323 L 444 313 Q 440 304 428 304 Z " /><path fill="rgb(255,255,255)" stroke="rgb(255,255,255)" stroke-width="0" opacity="1" d="M 206.5 285 Q 213.8 284.2 216 288.5 Q 220.3 293.6 219 304.5 Q 216.9 315.4 209.5 321 Q 206.3 324.8 198.5 324 L 193 320.5 Q 188.6 315.4 190 304.5 Q 192.3 294.8 198.5 289 L 206.5 285 Z " /><path fill="rgb(255,255,255)" stroke="rgb(255,255,255)" stroke-width="0" opacity="1" d="M 279.5 302 L 291.5 303 L 304 311.5 L 313 328.5 L 316 345.5 L 316 354.5 L 315 355.5 L 315 364.5 L 310 381.5 Q 304.8 392.8 296.5 401 Q 287.6 410.1 269.5 410 Q 258.3 407.3 252 399.5 Q 242 388.5 240 369.5 L 242 365.5 L 245 344.5 L 249 331.5 Q 254.2 316.7 265.5 308 L 279.5 302 Z M 282 324 L 274 327 Q 262 335 259 353 L 259 367 L 264 381 Q 268 388 278 390 Q 285 390 290 387 Q 301 379 304 362 L 304 347 L 299 334 Q 295 324 282 324 Z " /><path fill="rgb(255,255,255)" stroke="rgb(255,255,255)" stroke-width="0" opacity="1" d="M 429.5 308 Q 436.1 308.4 439 312.5 Q 445.9 320.6 444 337.5 Q 441.8 350.8 433.5 358 L 425.5 360 Q 419.4 358.6 417 353.5 L 414 346.5 L 413 332.5 L 417 318.5 L 424.5 310 L 429.5 308 Z M 428 322 L 423 327 L 421 334 L 422 342 L 424 345 L 428 347 L 432 346 Q 436 343 437 337 Q 438 329 435 325 Q 434 321 428 322 Z " /><path fill="rgb(255,255,255)" stroke="rgb(255,255,255)" stroke-width="0" opacity="1" d="M 429.5 325 L 432 326 Q 434.1 329.3 433 337.5 L 429.5 343 L 426 340.5 L 425 331.5 L 429.5 325 Z " /><path fill="rgb(255,255,255)" stroke="rgb(255,255,255)" stroke-width="0" opacity="1" d="M 279.5 329 L 287.5 329 L 295 335.5 L 299 344.5 L 300 357.5 L 297 370.5 Q 294.1 378.6 287.5 383 Q 284.2 386.2 276.5 385 L 268 378.5 Q 262.7 370.3 263 356.5 L 266 343.5 Q 269.3 335.8 275.5 331 L 279.5 329 Z M 280 344 Q 275 348 273 355 Q 272 363 275 367 L 281 371 L 285 370 Q 289 367 291 361 Q 293 352 289 348 Q 287 343 280 344 Z " /><path fill="rgb(255,255,255)" stroke="rgb(255,255,255)" stroke-width="0" opacity="1" d="M 282.5 347 L 286 349.5 L 287 360.5 L 283.5 366 L 281.5 367 L 278 364.5 L 277 354.5 L 280.5 348 L 282.5 347 Z " /><path fill="rgb(255,255,255)" stroke="rgb(255,255,255)" stroke-width="0" opacity="1" d="M 389.5 351 L 392 362.5 L 401 378 L 407 382.5 L 405.5 382 Q 388.9 381.1 382 370.5 Q 376.7 364.8 376 356 Q 385 356.2 389.5 351 Z " /><path fill="rgb(255,255,255)" stroke="rgb(255,255,255)" stroke-width="0" opacity="1" d="M 236 376 Q 239.7 374.6 238 380.5 Q 242.6 398.4 255.5 408 L 258 409.5 L 256.5 410 L 244.5 407 L 231 397.5 Q 225.5 392.2 224 384 L 236 377.5 L 236 376 Z " /><path fill="rgb(255,255,255)" stroke="rgb(255,255,255)" stroke-width="0" opacity="1" d="M 75.5 377 L 96.5 382 L 130 386.5 L 117.5 392 L 100.5 392 Q 89.8 390.2 82.5 385 L 75.5 377 Z " /><path fill="rgb(0,0,0)" stroke="rgb(0,0,0)" stroke-width="0" opacity="1" d="M 278.5 95 L 296.5 95 L 297.5 96 L 322.5 97 L 344.5 101 L 362.5 106 Q 395.2 117.3 415 141.5 Q 426.4 155.6 434 173.5 L 442 196.5 L 445 211.5 L 448.5 218 L 460 227.5 L 466 235.5 L 474 255.5 L 476 266.5 L 476 274.5 L 477 275.5 L 477 300.5 L 476 301.5 L 476 309.5 L 474 319.5 Q 471.8 330.3 464 335.5 L 463 344.5 L 458 360.5 Q 452.3 373.8 441.5 382 Q 435.1 387.1 425.5 389 L 402.5 389 Q 385.3 386.2 377 374.5 L 371 363.5 L 370 358 L 320 366 Q 320 376.3 316 383.5 L 303 404 L 291.5 412 L 280.5 416 L 259.5 417 L 244.5 414 Q 233.2 409.8 226 401.5 Q 220 395.3 218 386 L 205.5 388 L 192.5 388 L 191.5 389 L 159.5 389 L 158.5 388 L 141.5 388 L 138.5 387 Q 128.3 400.3 103.5 399 L 93.5 397 L 83.5 393 L 70 381.5 L 65.5 374 Q 47.5 371 39 358.5 L 35 347.5 L 35 338.5 L 39 329.5 L 39 325.5 L 38 324.5 L 38 305.5 L 41 290.5 L 49 272.5 Q 55.8 261.3 65.5 253 Q 76.9 241.9 92 236 Q 90 231.5 91 222.5 Q 92.9 213.4 99.5 209 Q 105.8 203.5 118 205 Q 124.1 182.9 135 164.5 L 146 147.5 L 160 132.5 L 160 131 L 171.5 122 L 186.5 113 L 207.5 105 L 240.5 98 L 258.5 97 L 259.5 96 L 277.5 96 L 278.5 95 Z M 270 102 L 269 103 L 257 103 L 256 104 L 240 105 L 211 111 Q 182 119 164 137 Q 149 151 139 171 L 129 192 L 119 221 L 117 231 L 115 234 Q 82 243 62 266 Q 70 265 74 268 L 79 276 L 81 285 L 79 300 L 73 312 L 63 320 Q 56 321 53 319 Q 45 316 46 305 L 44 311 L 44 321 L 46 332 L 56 338 L 77 344 L 106 349 L 133 351 L 134 352 L 148 352 L 149 353 L 203 353 L 204 352 L 214 352 L 215 351 L 225 351 L 225 353 L 214 356 L 187 357 L 186 358 L 165 358 L 164 357 L 129 356 L 128 355 L 119 355 L 103 352 L 96 352 L 67 346 L 55 342 L 44 335 L 41 340 Q 40 352 46 358 L 60 366 L 75 371 L 111 378 L 126 379 L 127 380 L 137 380 L 138 381 L 151 381 L 152 382 L 199 382 L 200 381 L 217 380 L 231 375 L 236 366 L 239 345 L 242 334 L 247 322 L 253 313 Q 262 300 279 296 L 290 296 L 302 301 L 308 307 L 309 306 L 308 281 L 306 270 L 298 250 L 294 245 Q 291 246 292 244 Q 294 240 300 242 L 299 241 Q 297 227 303 222 L 303 196 L 304 195 L 304 182 L 305 181 L 306 166 L 309 155 L 315 144 L 326 134 L 335 130 L 346 128 L 360 128 L 375 131 Q 387 136 397 144 Q 420 167 427 206 Q 429 218 424 224 L 414 231 L 392 237 L 398 251 L 399 262 L 400 263 L 400 274 L 399 275 L 398 287 L 383 333 Q 380 338 373 340 L 345 345 L 339 345 L 338 346 L 330 346 L 328 345 L 334 342 L 358 339 L 376 335 L 381 328 L 391 299 L 396 274 L 395 256 L 389 237 L 367 239 L 366 240 L 349 241 L 345 247 Q 340 254 330 256 L 314 255 L 301 247 L 308 263 L 312 283 L 312 308 L 311 309 L 311 312 L 319 328 L 321 339 L 322 360 L 359 353 L 364 353 L 370 351 L 375 351 L 385 348 L 389 341 L 390 329 L 395 309 L 406 290 Q 413 280 427 277 L 436 277 L 446 281 Q 456 289 461 303 L 465 326 L 468 318 L 470 308 L 470 297 L 471 296 L 471 282 L 470 281 L 470 270 L 468 259 Q 465 243 456 233 L 449 226 Q 442 222 439 215 Q 432 173 410 146 Q 400 133 386 124 L 375 118 L 357 111 L 337 106 L 317 104 L 316 103 L 305 103 L 304 102 L 270 102 Z M 344 134 L 333 137 L 326 141 L 317 151 L 311 169 L 308 216 L 317 212 Q 334 210 342 217 Q 349 223 350 236 L 360 234 L 368 234 L 369 233 L 377 233 L 386 231 L 384 204 L 380 185 L 380 180 L 375 159 L 367 135 L 363 134 L 344 134 Z M 374 137 L 383 169 L 385 183 L 387 188 L 389 209 L 390 210 L 391 230 Q 406 229 417 223 Q 421 220 422 215 Q 418 176 398 154 Q 389 142 374 137 Z M 110 211 L 105 213 Q 99 217 97 224 Q 96 230 98 233 L 111 229 L 116 213 Q 117 210 110 211 Z M 322 217 L 311 221 Q 305 225 304 233 L 304 238 L 306 244 L 310 247 L 321 251 Q 331 251 337 247 Q 343 244 344 236 Q 344 229 341 225 Q 336 216 322 217 Z M 61 270 Q 59 272 66 271 L 71 277 L 73 286 Q 72 302 65 310 L 58 314 L 53 312 L 51 313 L 57 316 L 65 314 L 72 305 L 76 292 L 76 283 L 73 274 Q 70 268 61 270 Z M 59 274 L 53 280 L 48 294 L 48 300 L 50 307 L 54 310 L 61 309 Q 67 303 69 293 Q 71 282 67 277 Q 66 273 59 274 Z M 428 283 Q 419 284 415 289 Q 405 298 400 312 L 396 327 L 395 340 L 393 345 L 394 356 L 402 373 Q 407 380 418 383 Q 430 383 437 378 Q 445 372 450 363 L 455 351 L 458 337 L 458 318 Q 456 316 457 312 Q 455 299 448 292 L 438 284 L 428 283 Z M 280 302 L 266 308 Q 254 317 249 332 L 245 345 L 242 366 L 240 370 Q 242 389 252 400 Q 258 407 270 410 Q 288 410 297 401 Q 305 393 310 382 L 315 365 L 315 356 L 316 355 L 316 346 L 313 329 L 304 312 L 292 303 L 280 302 Z M 390 351 Q 385 356 376 356 Q 377 365 382 371 Q 388 379 401 382 L 406 382 L 401 378 L 392 363 L 390 351 Z M 236 376 L 236 378 L 224 384 Q 225 392 231 398 L 245 407 L 257 410 L 258 410 L 256 408 Q 243 398 238 381 Q 240 375 236 376 Z M 76 377 L 83 385 Q 90 390 101 392 L 118 392 L 130 387 L 97 382 L 76 377 Z " /><path fill="rgb(0,0,0)" stroke="rgb(0,0,0)" stroke-width="0" opacity="1" d="M 229.5 125 L 256.5 126 L 271.5 129 Q 283.7 132.3 290 141.5 L 295 154.5 L 295 179.5 L 294 180.5 L 294 188.5 L 288 220.5 L 282 235.5 L 276.5 241 L 266.5 243 L 265.5 242 L 251.5 242 L 250.5 241 L 206.5 239 L 205.5 238 L 130.5 235 L 126 233 L 124 225.5 L 134 193.5 L 147 166.5 Q 155.9 150.4 169.5 139 Q 178.9 132.4 191.5 129 L 208.5 127 L 209.5 126 L 228.5 126 L 229.5 125 Z M 224 131 L 223 132 L 208 132 L 188 136 Q 177 140 170 146 Q 152 164 142 189 L 132 216 L 130 229 L 134 230 L 154 230 L 155 231 L 175 231 L 176 232 L 193 232 L 194 233 L 211 233 L 212 234 L 229 234 L 230 235 L 243 235 L 244 236 L 257 236 L 258 237 L 272 237 L 276 235 L 281 225 L 284 214 L 289 186 L 289 177 L 290 176 Q 292 156 286 146 L 279 138 L 265 133 L 245 132 L 244 131 L 224 131 Z " /><path fill="rgb(0,0,0)" stroke="rgb(0,0,0)" stroke-width="0" opacity="1" d="M 183.5 156 Q 190.7 156.3 193 161.5 Q 194.5 165.9 191.5 165 Q 188.6 161.4 180.5 163 L 173.5 168 L 171 168 L 171 165.5 L 176.5 159 L 183.5 156 Z " /><path fill="rgb(0,0,0)" stroke="rgb(0,0,0)" stroke-width="0" opacity="1" d="M 247.5 158 Q 257.3 157.7 260 164.5 L 262 170.5 L 259 172 L 255.5 167 Q 252.7 163.3 245.5 164 L 239 166 L 242.5 160 L 247.5 158 Z " /><path fill="rgb(0,0,0)" stroke="rgb(0,0,0)" stroke-width="0" opacity="1" d="M 179.5 178 Q 188.1 178.4 192 183.5 L 196 190.5 L 197 202.5 Q 194.8 203.8 196 208.5 L 187.5 222 Q 182.5 228 169.5 226 L 162 220.5 L 158 210.5 L 158 202.5 Q 160 189.5 168.5 183 L 179.5 178 Z M 178 182 L 173 184 L 166 191 L 161 205 Q 161 214 165 220 L 171 223 L 173 223 L 169 216 Q 167 203 172 197 Q 175 191 183 189 L 190 191 L 192 195 L 193 195 L 190 187 Q 187 181 178 182 Z M 186 195 L 181 199 L 182 204 Q 181 207 187 205 Q 190 204 189 198 L 186 195 Z " /><path fill="rgb(0,0,0)" stroke="rgb(0,0,0)" stroke-width="0" opacity="1" d="M 239.5 180 Q 249.7 179.8 254 185.5 L 259 194.5 L 260 204.5 L 256 217.5 L 248.5 226 Q 243.8 229.8 235.5 230 L 226.5 227 L 222 222.5 Q 216.9 215.6 219 201.5 Q 222 190 230.5 184 L 239.5 180 Z M 239 184 L 229 189 Q 224 195 222 205 Q 221 217 226 223 L 232 226 L 233 226 L 228 216 Q 228 204 233 198 L 241 192 L 248 192 L 253 195 L 255 201 L 256 201 Q 256 193 252 189 Q 249 183 239 184 Z M 246 198 L 243 199 Q 241 201 242 207 L 247 209 L 251 206 L 250 200 Q 249 197 246 198 Z " /><path fill="rgb(0,0,0)" stroke="rgb(0,0,0)" stroke-width="0" opacity="1" d="M 373.5 252 Q 381.7 250.9 385 253 Q 387.6 255.3 387 261.5 L 384.5 265 L 374.5 268 L 364.5 268 Q 359.3 266.3 361 257.5 L 366.5 253 Q 372 254.5 373.5 252 Z M 375 256 L 365 258 Q 364 263 367 264 L 382 262 Q 384 261 383 258 Q 381 254 375 256 Z " /><path fill="rgb(0,0,0)" stroke="rgb(0,0,0)" stroke-width="0" opacity="1" d="M 204.5 275 Q 222.2 273.3 228 283.5 L 231 289.5 L 232 302.5 Q 230 313.5 225 321.5 L 215.5 331 Q 209.2 336.7 195.5 335 L 185 328.5 Q 178.6 321.4 179 307.5 Q 182.1 289.1 194.5 280 L 204.5 275 Z M 209 279 L 196 285 Q 186 292 184 307 L 184 315 L 187 324 Q 190 330 199 331 Q 209 331 215 326 Q 224 318 227 304 L 227 295 L 223 284 L 217 280 L 209 279 Z " /><path fill="rgb(0,0,0)" stroke="rgb(0,0,0)" stroke-width="0" opacity="1" d="M 205.5 282 Q 217 281.1 220 288.5 L 222 292.5 L 223 301.5 L 221 310.5 L 212.5 323 L 205.5 327 L 197.5 327 Q 191.4 325.6 189 320.5 Q 185.3 314.7 187 303.5 Q 189.7 291.2 198.5 285 L 205.5 282 Z M 207 285 L 199 289 Q 192 295 190 305 Q 189 315 193 321 L 199 324 Q 206 325 210 321 Q 217 315 219 305 Q 220 294 216 289 Q 214 284 207 285 Z " /><path fill="rgb(0,0,0)" stroke="rgb(0,0,0)" stroke-width="0" opacity="1" d="M 90.5 302 Q 94.3 300.8 93 304.5 Q 89.5 306 92 307.5 Q 93.9 316.6 100.5 321 Q 108.9 329.1 125.5 329 Q 126.7 326.8 131.5 328 L 143.5 323 L 156 311.5 L 158 308.5 L 155 303 L 158.5 303 L 166 310.5 Q 167.1 313.8 164.5 313 L 160 311 L 159 314.5 L 148.5 325 Q 141.2 330.7 130.5 333 L 115.5 333 Q 101.7 329.8 94 320.5 L 87.5 309 L 85.5 310 L 84 307.5 L 90.5 302 Z " /><path fill="rgb(0,0,0)" stroke="rgb(0,0,0)" stroke-width="0" opacity="1" d="M 427.5 304 Q 439.9 304.1 444 312.5 L 448 322.5 L 448 340.5 Q 445.3 351.9 439 359 L 430.5 364 L 423.5 364 L 414 356.5 L 409 342.5 L 409 330.5 L 414 315.5 L 421.5 307 L 427.5 304 Z M 430 308 L 425 310 L 417 319 L 413 333 L 414 347 L 417 354 Q 419 359 426 360 L 434 358 Q 442 351 444 338 Q 446 321 439 313 Q 436 308 430 308 Z " /><path fill="rgb(0,0,0)" stroke="rgb(0,0,0)" stroke-width="0" opacity="1" d="M 427.5 322 Q 433.8 320.8 435 324.5 Q 438 328.5 437 336.5 Q 436.1 343.1 431.5 346 L 427.5 347 L 424 344.5 L 422 341.5 L 421 333.5 L 423 326.5 L 427.5 322 Z M 430 325 L 425 332 L 426 341 L 430 343 L 433 338 Q 434 329 432 326 L 430 325 Z " /><path fill="rgb(0,0,0)" stroke="rgb(0,0,0)" stroke-width="0" opacity="1" d="M 281.5 324 Q 294.8 324.3 299 333.5 L 304 346.5 L 304 361.5 Q 301.3 378.8 289.5 387 Q 285.2 390.2 277.5 390 Q 268.4 387.5 264 380.5 L 259 366.5 L 259 352.5 Q 261.8 335.3 273.5 327 L 281.5 324 Z M 280 329 L 276 331 Q 269 336 266 344 L 263 357 Q 263 370 268 379 L 277 385 Q 284 386 288 383 Q 294 379 297 371 L 300 358 L 299 345 L 295 336 L 288 329 L 280 329 Z " /><path fill="rgb(0,0,0)" stroke="rgb(0,0,0)" stroke-width="0" opacity="1" d="M 279.5 344 Q 287.5 342.5 289 347.5 Q 292.5 351.5 291 360.5 Q 289.5 367 284.5 370 L 280.5 371 L 275 366.5 Q 272 362.5 273 354.5 Q 274.6 347.6 279.5 344 Z M 283 347 L 281 348 L 277 355 L 278 365 L 282 367 L 284 366 L 287 361 L 286 350 L 283 347 Z " /></svg>