<svg width="627" height="627" preserveAspectRatio="xMidYMid meet" viewBox="0 0 512 512" version="1.1" xmlns="http://www.w3.org/2000/svg" ><path fill="rgb(255,255,255)" stroke="rgb(255,255,255)" stroke-width="0" opacity="1" d="M 0 0 L 512 0 L 512 512 L 0 512 L 0 0 Z M 194 104 L 193 105 L 176 105 L 175 106 L 155 107 L 133 111 L 110 119 L 96 128 Q 84 138 78 154 L 64 196 L 63 195 L 52 195 L 50 196 Q 43 199 42 208 L 42 225 L 45 231 Q 47 234 52 234 L 39 252 L 33 265 L 28 289 L 28 316 Q 22 320 20 329 Q 18 343 23 351 Q 30 360 44 362 L 49 374 Q 58 386 76 389 Q 90 391 99 387 Q 108 382 115 374 Q 120 377 131 375 L 132 376 L 159 376 L 160 377 L 165 376 L 191 376 L 202 374 Q 204 385 210 394 L 223 404 L 231 407 L 244 408 L 245 409 L 260 408 L 272 403 Q 289 390 292 364 L 301 363 L 309 358 L 381 350 Q 382 364 389 374 L 397 381 L 406 385 L 416 387 Q 434 389 444 381 Q 459 369 461 345 L 466 342 Q 478 343 485 338 L 490 331 L 492 322 L 491 309 L 486 303 L 486 292 L 487 291 L 487 235 L 488 234 L 487 233 L 487 182 L 486 181 L 486 171 L 483 156 L 476 143 Q 467 132 454 127 L 432 121 L 407 118 L 406 117 L 359 113 L 358 112 L 348 112 L 347 111 L 323 110 L 322 109 L 280 107 L 279 106 L 234 105 L 233 104 L 194 104 Z " /><path fill="rgb(255,255,255)" stroke="rgb(255,255,255)" stroke-width="0" opacity="1" d="M 185.5 110 L 265.5 111 L 266.5 112 L 282.5 112 L 283.5 113 L 298.5 113 L 299.5 114 L 338.5 116 L 339.5 117 L 349.5 117 L 350.5 118 L 360.5 118 L 361.5 119 L 371.5 119 L 372.5 120 L 381.5 120 L 382.5 121 L 390.5 121 L 399.5 123 L 407.5 123 L 408.5 124 L 414.5 124 L 437.5 128 L 453.5 133 Q 465.8 137.8 473 147.5 L 479 161.5 L 480 173.5 L 481 174.5 L 482 257 L 449.5 258 L 448.5 259 L 431.5 259 L 430.5 260 L 414.5 260 L 413.5 261 L 396.5 261 L 395.5 262 L 379.5 262 L 378.5 263 L 362.5 263 L 361.5 264 L 329.5 265 L 328.5 266 L 311.5 266 L 310.5 267 L 293.5 267 L 292.5 268 L 277.5 268 L 276.5 269 L 261.5 269 L 260.5 270 L 234 271 L 235 268.5 L 236 249 L 242.5 244 Q 254.8 245.8 259.5 240 L 279.5 240 L 280.5 239 L 295.5 238 L 302 232.5 L 304 226.5 L 305 185.5 L 304 184.5 L 304 163.5 L 301 155.5 L 298.5 153 Q 288.8 147.8 271.5 150 L 270.5 151 L 258.5 152 L 251 156.5 L 247 165.5 L 241 197.5 L 238.5 203 L 235 205.5 L 232 213.5 L 231 230.5 L 232 234.5 L 228 237.5 L 226 243.5 L 229.5 249 L 232 249.5 L 232 262.5 L 231 263.5 L 230 287.5 L 229 288.5 L 229 305.5 Q 217.5 315.8 214 333 Q 210.1 330.6 200.5 332 L 199.5 333 L 188.5 333 L 187.5 334 L 136.5 334 L 135.5 333 L 118.5 333 L 117.5 332 L 94.5 331 L 93.5 330 L 71.5 328 L 42.5 322 L 34 317.5 L 33 312.5 L 33 297.5 L 34 296.5 L 35 278.5 L 40 261.5 L 47 249.5 L 60 233.5 L 64 214.5 L 78 168.5 L 87 147.5 Q 92.3 137.8 100.5 131 L 119.5 121 L 140.5 115 L 160.5 113 L 161.5 112 L 170.5 112 L 171.5 111 L 184.5 111 L 185.5 110 Z M 131 142 L 130 143 L 113 144 L 96 150 L 87 160 L 81 173 Q 72 197 66 225 Q 65 232 68 235 L 76 238 L 87 238 L 88 239 L 131 240 L 132 241 L 159 241 L 160 242 L 214 242 L 216 241 Q 220 238 222 232 L 234 173 Q 236 162 232 157 L 224 150 L 199 144 L 177 143 L 176 142 L 131 142 Z M 320 151 L 316 153 L 311 160 L 311 206 L 312 207 L 312 229 L 314 233 Q 317 237 324 238 L 361 237 L 367 235 L 369 233 L 372 225 L 372 169 L 369 158 L 360 152 L 352 152 L 351 151 L 320 151 Z M 391 153 L 382 155 L 377 163 L 377 179 L 378 180 L 378 228 L 379 231 Q 382 235 388 236 L 414 235 L 420 233 L 424 229 L 425 225 L 425 169 L 423 161 L 416 155 L 391 153 Z M 442 156 L 434 158 L 430 164 L 430 216 L 431 217 L 432 229 L 438 233 L 460 233 Q 461 231 467 232 L 471 230 L 475 221 L 475 182 L 474 181 L 474 172 L 471 164 Q 468 159 463 158 L 442 156 Z M 51 267 L 44 270 Q 38 275 36 284 Q 34 299 40 306 L 47 310 Q 54 311 57 308 Q 62 304 64 298 L 66 289 L 65 280 L 62 274 Q 59 268 51 267 Z M 165 272 L 155 277 Q 148 283 146 294 L 147 306 L 150 312 Q 154 318 164 320 Q 170 320 175 317 L 181 311 L 185 302 Q 184 297 186 296 L 185 287 L 183 282 Q 179 272 165 272 Z M 77 294 Q 76 301 80 305 L 90 313 L 103 317 Q 116 317 124 311 L 133 302 L 134 303 L 136 302 L 131 296 L 128 296 L 129 300 L 127 303 Q 121 309 112 312 L 99 312 L 93 310 L 85 305 L 80 296 L 77 294 Z " /><path fill="rgb(255,255,255)" stroke="rgb(255,255,255)" stroke-width="0" opacity="1" d="M 150.5 146 L 153.5 147 L 179.5 147 L 180.5 148 L 191.5 148 L 192.5 149 L 205.5 150 L 223.5 155 L 229 160.5 L 228 179.5 L 220 214.5 L 219 224.5 L 215 236 L 210.5 238 L 184.5 238 L 183.5 237 L 149.5 237 L 148.5 236 L 122.5 236 L 121.5 235 L 82.5 234 Q 80.7 231.2 74.5 233 L 71 230.5 L 71 223.5 L 73 213.5 L 84 177.5 L 90 163.5 L 96.5 155 L 101.5 152 L 112.5 149 L 125.5 148 L 126.5 147 L 149.5 147 L 150.5 146 Z M 114 166 L 110 168 L 105 174 L 105 176 L 108 176 L 114 172 Q 120 170 122 173 L 125 172 L 124 170 Q 122 165 114 166 Z M 179 167 L 171 173 L 173 175 L 177 173 L 186 174 L 192 179 L 191 173 Q 188 166 179 167 Z M 113 186 L 108 188 Q 99 194 96 206 L 96 216 L 100 224 L 108 228 Q 117 229 122 225 L 129 215 L 131 206 Q 131 197 127 192 L 120 186 L 113 186 Z M 173 187 L 163 192 Q 157 198 154 207 Q 152 220 158 226 L 161 228 L 169 231 Q 175 231 180 228 L 186 222 L 190 211 Q 191 200 187 195 Q 183 187 173 187 Z " /><path fill="rgb(255,255,255)" stroke="rgb(255,255,255)" stroke-width="0" opacity="1" d="M 267.5 155 L 291.5 155 L 298 159.5 Q 300.3 164.3 299 172.5 L 300 173.5 L 300 217.5 L 299 218.5 L 299 227.5 L 295.5 233 L 283.5 234 L 282.5 235 L 262.5 235 L 263 233.5 L 264 213.5 L 260 204 L 254.5 201 L 245 201 L 252 164.5 L 256.5 158 L 267.5 155 Z " /><path fill="rgb(255,255,255)" stroke="rgb(255,255,255)" stroke-width="0" opacity="1" d="M 325.5 155 L 354.5 156 L 362.5 158 L 366 161.5 L 367 164.5 L 367 179.5 L 368 180.5 L 368 216.5 L 367 217.5 L 367 226.5 L 363.5 231 Q 359.7 233.7 351.5 232 L 350.5 233 L 322.5 233 L 318 230.5 L 316 223.5 L 316 175.5 L 315 174.5 L 315 163.5 L 317 157 L 325.5 155 Z " /><path fill="rgb(255,255,255)" stroke="rgb(255,255,255)" stroke-width="0" opacity="1" d="M 387.5 158 L 412.5 159 L 419 162.5 Q 421.4 167.6 420 176.5 L 421 177.5 L 421 219.5 Q 418.7 220.8 420 225.5 L 417.5 229 L 415.5 230 L 404.5 230 L 403.5 231 L 387.5 231 L 384 230 L 382 223.5 L 382 161.5 L 387.5 158 Z " /><path fill="rgb(255,255,255)" stroke="rgb(255,255,255)" stroke-width="0" opacity="1" d="M 437.5 161 L 459.5 162 L 467 165 L 470 176.5 L 471 207.5 L 470 208.5 L 470 222.5 L 466.5 227 L 441.5 229 L 436 225.5 L 435 222.5 L 435 177.5 L 434 176.5 L 434 166.5 L 437.5 161 Z " /><path fill="rgb(255,255,255)" stroke="rgb(255,255,255)" stroke-width="0" opacity="1" d="M 114.5 189 Q 122.6 188.9 125 194.5 L 127 200.5 L 126 200.5 L 123.5 197 L 115.5 196 L 110 199.5 Q 105.4 204.9 105 214.5 L 110 224.5 L 108.5 225 L 102 220.5 Q 98 215.5 100 204.5 Q 102.4 195.4 109.5 191 L 114.5 189 Z " /><path fill="rgb(255,255,255)" stroke="rgb(255,255,255)" stroke-width="0" opacity="1" d="M 171.5 191 Q 181.2 189.8 184 195.5 L 187 204.5 L 186 204.5 L 182.5 199 L 175.5 197 Q 169 198.5 166 203.5 Q 161.8 208.3 163 218.5 L 167 226.5 L 165.5 227 L 159 221.5 L 157 211.5 L 160 200.5 L 166.5 193 L 171.5 191 Z " /><path fill="rgb(255,255,255)" stroke="rgb(255,255,255)" stroke-width="0" opacity="1" d="M 53.5 200 Q 60.3 198.3 62 201.5 L 56 228.5 L 54.5 230 L 48 225.5 L 47 211.5 L 49 203.5 L 51.5 201 L 53.5 200 Z " /><path fill="rgb(255,255,255)" stroke="rgb(255,255,255)" stroke-width="0" opacity="1" d="M 120.5 201 L 124 202.5 Q 125.3 207.8 122.5 209 Q 118.8 209.8 118 207.5 Q 117 202 120.5 201 Z " /><path fill="rgb(255,255,255)" stroke="rgb(255,255,255)" stroke-width="0" opacity="1" d="M 178.5 203 Q 182.5 202.5 183 205.5 L 182 211 Q 177.4 212.3 176 209.5 Q 175 204 178.5 203 Z " /><path fill="rgb(255,255,255)" stroke="rgb(255,255,255)" stroke-width="0" opacity="1" d="M 245.5 205 Q 253.5 204.5 257 208.5 Q 261 215 259 227.5 L 258 232.5 L 254.5 238 Q 250.7 240.7 242.5 239 L 238 237 Q 234.4 231 236 218.5 Q 238.3 217.2 237 212.5 L 241.5 206 L 245.5 205 Z " /><path fill="rgb(255,255,255)" stroke="rgb(255,255,255)" stroke-width="0" opacity="1" d="M 233.5 238 L 238 241 L 235.5 245 Q 228.8 247.3 231 240.5 L 233.5 238 Z " /><path fill="rgb(255,255,255)" stroke="rgb(255,255,255)" stroke-width="0" opacity="1" d="M 468.5 260 L 482 260 L 482 267.5 L 481 273 L 440.5 275 L 439.5 276 L 425.5 276 L 424.5 277 L 410.5 277 L 409.5 278 L 369.5 280 L 368.5 281 L 354.5 281 L 353.5 282 L 314.5 284 L 313.5 285 L 285.5 286 L 279 288.5 L 282.5 290 L 283.5 289 L 326.5 287 L 327.5 286 L 339.5 286 L 340.5 285 L 352.5 285 L 353.5 284 L 367.5 284 L 368.5 283 L 382.5 283 L 383.5 282 L 396.5 282 L 397.5 281 L 410.5 281 L 411.5 280 L 424.5 280 L 425.5 279 L 440.5 279 L 441.5 278 L 481 276 L 481 301.5 L 480 305 L 466 307 Q 462.9 295.3 454.5 288 Q 447 280.5 432.5 280 Q 431 282.5 425.5 281 L 414.5 286 L 404 295.5 Q 396.8 304.3 393 316.5 L 390 329.5 L 389 343 L 368.5 345 L 367.5 346 L 360.5 346 L 359.5 347 L 352.5 347 L 351.5 348 L 343.5 348 L 334.5 350 L 310.5 352 L 309.5 353 L 301.5 353 L 299 354 L 300 351.5 L 300 336.5 L 295 316.5 Q 290.6 306.4 282.5 300 L 268.5 293 L 257.5 292 L 244.5 295 L 232.5 303 L 232 296.5 L 233 295.5 L 233 282.5 L 234 281.5 L 234 274 L 242.5 274 L 243.5 273 L 258.5 273 L 259.5 272 L 275.5 272 L 276.5 271 L 291.5 271 L 292.5 270 L 310.5 270 L 311.5 269 L 377.5 266 L 378.5 265 L 397.5 265 L 398.5 264 L 433.5 263 L 434.5 262 L 448.5 262 L 449.5 261 L 467.5 261 L 468.5 260 Z " /><path fill="rgb(255,255,255)" stroke="rgb(255,255,255)" stroke-width="0" opacity="1" d="M 50.5 271 L 58 274.5 L 61 280.5 L 62 287.5 L 59 299.5 L 53.5 305 L 47.5 306 L 41 300.5 L 44.5 303 L 50.5 304 L 57 298.5 Q 60.7 292.7 59 281.5 L 53.5 274 L 47.5 273 L 44.5 275 L 45.5 273 L 50.5 271 Z " /><path fill="rgb(255,255,255)" stroke="rgb(255,255,255)" stroke-width="0" opacity="1" d="M 47.5 276 Q 53 275 54 278.5 Q 57.5 282.5 56 291.5 L 51.5 300 L 47.5 301 L 42 296.5 L 41 284.5 L 45.5 277 L 47.5 276 Z " /><path fill="rgb(255,255,255)" stroke="rgb(255,255,255)" stroke-width="0" opacity="1" d="M 166.5 276 Q 174.3 276.7 178 281.5 Q 182 286.5 182 295.5 L 178 307.5 L 171.5 314 Q 168 316.5 160.5 315 L 154 310.5 Q 149.8 305.2 150 295.5 L 153 285.5 L 158.5 279 L 166.5 276 Z M 164 279 L 160 281 Q 154 286 152 295 L 152 300 L 155 308 L 161 312 Q 167 313 171 311 Q 177 308 178 300 Q 180 289 176 285 Q 173 278 164 279 Z " /><path fill="rgb(255,255,255)" stroke="rgb(255,255,255)" stroke-width="0" opacity="1" d="M 164.5 282 Q 170.9 281.6 173 285.5 Q 176.1 289.9 175 298.5 L 169.5 308 L 161.5 309 Q 153.9 305.1 156 291.5 L 162.5 283 L 164.5 282 Z " /><path fill="rgb(255,255,255)" stroke="rgb(255,255,255)" stroke-width="0" opacity="1" d="M 427.5 285 Q 439 283.5 445.5 287 L 455 294.5 Q 466.4 307.1 465 332.5 L 462.5 338 L 461 337.5 L 461 329.5 L 458 317.5 L 454 309.5 L 446.5 302 Q 441.7 297.3 430.5 299 Q 420.6 302.1 415 309.5 L 408 321.5 L 404 337.5 L 400.5 342 L 393 343 Q 394.9 338.9 394 330.5 L 398 314.5 Q 403.4 299.9 414.5 291 L 427.5 285 Z " /><path fill="rgb(255,255,255)" stroke="rgb(255,255,255)" stroke-width="0" opacity="1" d="M 253.5 297 Q 265.6 295.4 272.5 299 L 285 308.5 L 293 323.5 L 296 345.5 Q 293.3 347.3 295 353.5 L 293.5 355 L 292 354.5 L 292 345.5 Q 289.2 327.8 278.5 318 L 266.5 312 L 257.5 312 Q 244.9 315.4 238 324.5 L 229 340.5 L 225 359.5 L 221.5 363 L 216 364 L 217 360.5 L 218 341.5 Q 215.5 340 217 334.5 Q 222 317.5 233.5 307 Q 241.1 299.6 253.5 297 Z " /><path fill="rgb(255,255,255)" stroke="rgb(255,255,255)" stroke-width="0" opacity="1" d="M 433.5 305 Q 444.4 306.1 449 313.5 L 454 324.5 L 456 341.5 L 452 360.5 Q 447.8 370.8 439.5 377 Q 435 381.5 424.5 380 L 415 372.5 L 409 358.5 L 408 339.5 Q 410.6 336.6 410 330.5 L 415 318.5 L 424.5 308 L 433.5 305 Z M 434 322 L 429 324 L 423 330 L 419 343 L 420 354 L 423 360 L 429 364 L 437 363 Q 444 358 446 349 Q 448 334 443 328 Q 440 323 434 322 Z " /><path fill="rgb(255,255,255)" stroke="rgb(255,255,255)" stroke-width="0" opacity="1" d="M 482.5 308 Q 485.8 306.9 485 309.5 L 486 310.5 L 486 324.5 Q 485.1 331.1 480.5 334 L 473.5 336 L 468.5 336 L 469 334.5 L 469 315.5 L 468 311 Q 470.7 309.1 477.5 310 L 482.5 308 Z " /><path fill="rgb(255,255,255)" stroke="rgb(255,255,255)" stroke-width="0" opacity="1" d="M 255.5 319 Q 264.4 317.6 269.5 320 L 280 329.5 Q 288.2 341.3 287 362.5 L 282 381.5 L 271.5 396 Q 265.2 403.2 250.5 402 Q 242.5 399.5 238 393.5 Q 228 381.5 230 357.5 L 232 347.5 L 238 333.5 L 247.5 323 L 255.5 319 Z M 260 337 L 252 341 L 245 352 L 243 363 L 244 371 L 247 378 L 255 384 Q 264 386 268 381 L 274 372 L 276 363 Q 277 349 271 343 Q 268 337 260 337 Z " /><path fill="rgb(255,255,255)" stroke="rgb(255,255,255)" stroke-width="0" opacity="1" d="M 29.5 321 L 48.5 328 L 76.5 333 L 100.5 335 L 101.5 336 L 130.5 337 L 131.5 338 L 190.5 338 L 191.5 337 L 209.5 336 L 212 337 L 213 339.5 L 213 356.5 L 211 364.5 L 208.5 367 L 202.5 369 L 183.5 370 L 182.5 371 L 142.5 371 L 141.5 370 L 124.5 370 L 123.5 369 L 102.5 368 L 101.5 367 L 86.5 366 L 85.5 365 L 62.5 362 L 40.5 356 Q 32.8 353.8 28 348.5 L 25 339.5 L 25 332.5 L 27 324.5 L 29.5 321 Z " /><path fill="rgb(255,255,255)" stroke="rgb(255,255,255)" stroke-width="0" opacity="1" d="M 433.5 326 L 439 328 Q 443 333.3 443 343.5 L 439 355.5 L 434.5 360 Q 428 361 426 357.5 Q 421.8 351.7 423 340.5 L 425 333.5 L 430.5 327 L 433.5 326 Z M 433 335 L 431 336 Q 426 339 428 349 Q 429 353 434 352 Q 440 349 438 339 Q 438 335 433 335 Z " /><path fill="rgb(255,255,255)" stroke="rgb(255,255,255)" stroke-width="0" opacity="1" d="M 432 339 L 435 340.5 Q 435.6 345.9 434 348 L 431 346.5 Q 430.4 341.1 432 339 Z " /><path fill="rgb(255,255,255)" stroke="rgb(255,255,255)" stroke-width="0" opacity="1" d="M 259.5 341 Q 266.1 340.4 268 344.5 L 272 354.5 L 272 363.5 Q 270.3 374.8 262.5 380 Q 253.5 381.5 251 376.5 Q 247.2 370.8 247 361.5 L 250 349.5 L 256.5 342 L 259.5 341 Z M 261 351 L 256 353 Q 253 357 254 367 L 260 371 L 264 369 Q 267 365 266 356 L 261 351 Z " /><path fill="rgb(255,255,255)" stroke="rgb(255,255,255)" stroke-width="0" opacity="1" d="M 403.5 345 Q 403.8 369.2 417.5 380 L 419 380.5 L 413.5 381 L 402.5 378 L 393 369.5 L 388 359.5 L 387 348 Q 397.4 349.2 403.5 345 Z " /><path fill="rgb(255,255,255)" stroke="rgb(255,255,255)" stroke-width="0" opacity="1" d="M 259.5 355 Q 262.8 353.9 262 356.5 Q 264.3 357.8 263 362.5 L 260.5 367 Q 257.2 368.1 258 365.5 Q 255.5 364 257 358.5 L 259.5 355 Z " /><path fill="rgb(255,255,255)" stroke="rgb(255,255,255)" stroke-width="0" opacity="1" d="M 51.5 365 L 88.5 372 L 104.5 373 L 107 374.5 Q 98.7 384.2 80.5 384 L 67.5 381 L 55 372.5 L 51.5 365 Z " /><path fill="rgb(255,255,255)" stroke="rgb(255,255,255)" stroke-width="0" opacity="1" d="M 225.5 366 Q 226.2 390.3 240.5 401 L 242 401.5 L 234.5 402 Q 220.6 399.4 214 389.5 Q 209 383.5 208 373.5 L 213.5 369 Q 222 370 225.5 366 Z " /><path fill="rgb(0,0,0)" stroke="rgb(0,0,0)" stroke-width="0" opacity="1" d="M 193.5 104 L 232.5 104 L 233.5 105 L 278.5 106 L 279.5 107 L 321.5 109 L 322.5 110 L 346.5 111 L 347.5 112 L 357.5 112 L 358.5 113 L 405.5 117 L 406.5 118 L 431.5 121 L 453.5 127 Q 467.4 132.1 476 142.5 L 483 155.5 L 486 170.5 L 486 180.5 L 487 181.5 L 487 232.5 L 488 233.5 L 487 234.5 L 487 290.5 L 486 291.5 L 486 302.5 L 491 308.5 L 492 321.5 L 490 330.5 L 484.5 338 Q 477.6 342.6 465.5 342 L 461 344.5 Q 458.7 369.2 443.5 381 Q 434.3 388.8 415.5 387 L 405.5 385 L 396.5 381 L 389 373.5 Q 382 364.4 381 350 L 308.5 358 L 300.5 363 L 292 364 Q 289.1 390.4 271.5 403 L 259.5 408 L 244.5 409 L 243.5 408 L 230.5 407 L 222.5 404 L 210 393.5 Q 204.3 385.3 201.5 374 L 190.5 376 L 164.5 376 L 159.5 377 L 158.5 376 L 131.5 376 L 130.5 375 Q 120.4 376.6 114.5 374 Q 108.5 382.5 98.5 387 Q 89.8 390.8 75.5 389 Q 57.6 385.9 49 373.5 L 44 362 Q 29.8 360.4 23 350.5 Q 17.8 343.3 20 328.5 Q 21.6 319.6 28 315.5 L 28 288.5 L 33 264.5 L 39 251.5 L 52 234 Q 47.1 234.1 45 230.5 L 42 224.5 L 42 207.5 Q 43.4 199.4 49.5 196 L 51.5 195 L 62.5 195 L 64 195.5 L 78 153.5 Q 84 138 95.5 128 L 109.5 119 L 132.5 111 L 154.5 107 L 174.5 106 L 175.5 105 L 192.5 105 L 193.5 104 Z M 186 110 L 185 111 L 172 111 L 171 112 L 162 112 L 161 113 L 141 115 L 120 121 L 101 131 Q 92 138 87 148 L 78 169 L 64 215 L 60 234 L 47 250 L 40 262 L 35 279 L 34 297 L 33 298 L 33 313 L 34 318 L 43 322 L 72 328 L 94 330 L 95 331 L 118 332 L 119 333 L 136 333 L 137 334 L 188 334 L 189 333 L 200 333 L 201 332 Q 210 331 214 333 Q 218 316 229 306 L 229 289 L 230 288 L 231 264 L 232 263 L 232 250 L 230 249 L 226 244 L 228 238 L 232 235 L 231 231 L 232 214 L 235 206 L 239 203 L 241 198 L 247 166 L 251 157 L 259 152 L 271 151 L 272 150 Q 289 148 299 153 L 301 156 L 304 164 L 304 185 L 305 186 L 304 227 L 302 233 L 296 238 L 281 239 L 280 240 L 260 240 Q 255 246 243 244 L 236 249 L 235 269 L 234 271 L 261 270 L 262 269 L 277 269 L 278 268 L 293 268 L 294 267 L 311 267 L 312 266 L 329 266 L 330 265 L 362 264 L 363 263 L 379 263 L 380 262 L 396 262 L 397 261 L 414 261 L 415 260 L 431 260 L 432 259 L 449 259 L 450 258 L 482 257 L 481 175 L 480 174 L 479 162 L 473 148 Q 466 138 454 133 L 438 128 L 415 124 L 409 124 L 408 123 L 400 123 L 391 121 L 383 121 L 382 120 L 373 120 L 372 119 L 362 119 L 361 118 L 351 118 L 350 117 L 340 117 L 339 116 L 300 114 L 299 113 L 284 113 L 283 112 L 267 112 L 266 111 L 186 110 Z M 268 155 L 257 158 L 252 165 L 245 201 L 255 201 L 260 204 L 264 214 L 263 234 L 263 235 L 283 235 L 284 234 L 296 233 L 299 228 L 299 219 L 300 218 L 300 174 L 299 173 Q 300 164 298 160 L 292 155 L 268 155 Z M 54 200 L 52 201 L 49 204 L 47 212 L 48 226 L 55 230 L 56 229 L 62 202 Q 60 198 54 200 Z M 246 205 L 242 206 L 237 213 Q 238 217 236 219 Q 234 231 238 237 L 243 239 Q 251 241 255 238 L 258 233 L 259 228 Q 261 215 257 209 Q 254 204 246 205 Z M 234 238 L 231 241 Q 229 247 236 245 L 238 241 L 234 238 Z M 469 260 L 468 261 L 450 261 L 449 262 L 435 262 L 434 263 L 399 264 L 398 265 L 379 265 L 378 266 L 312 269 L 311 270 L 293 270 L 292 271 L 277 271 L 276 272 L 260 272 L 259 273 L 244 273 L 243 274 L 234 274 L 234 282 L 233 283 L 233 296 L 232 297 L 233 303 L 245 295 L 258 292 L 269 293 L 283 300 Q 291 306 295 317 L 300 337 L 300 352 L 299 354 L 302 353 L 310 353 L 311 352 L 335 350 L 344 348 L 352 348 L 353 347 L 360 347 L 361 346 L 368 346 L 369 345 L 389 343 L 390 330 L 393 317 Q 397 304 404 296 L 415 286 L 426 281 Q 431 283 433 280 Q 447 281 455 288 Q 463 295 466 307 L 480 305 L 481 302 L 481 276 L 442 278 L 441 279 L 426 279 L 425 280 L 412 280 L 411 281 L 398 281 L 397 282 L 384 282 L 383 283 L 369 283 L 368 284 L 354 284 L 353 285 L 341 285 L 340 286 L 328 286 L 327 287 L 284 289 L 283 290 L 279 289 L 286 286 L 314 285 L 315 284 L 354 282 L 355 281 L 369 281 L 370 280 L 410 278 L 411 277 L 425 277 L 426 276 L 440 276 L 441 275 L 481 273 L 482 268 L 482 260 L 469 260 Z M 428 285 L 415 291 Q 403 300 398 315 L 394 331 Q 395 339 393 343 L 401 342 L 404 338 L 408 322 L 415 310 Q 421 302 431 299 Q 442 297 447 302 L 454 310 L 458 318 L 461 330 L 461 338 L 463 338 L 465 333 Q 466 307 455 295 L 446 287 Q 439 284 428 285 Z M 254 297 Q 241 300 234 307 Q 222 317 217 335 Q 216 340 218 342 L 217 361 L 216 364 L 222 363 L 225 360 L 229 341 L 238 325 Q 245 315 258 312 L 267 312 L 279 318 Q 289 328 292 346 L 292 355 L 294 355 L 295 354 Q 293 347 296 346 L 293 324 L 285 309 L 273 299 Q 266 295 254 297 Z M 434 305 L 425 308 L 415 319 L 410 331 Q 411 337 408 340 L 409 359 L 415 373 L 425 380 Q 435 382 440 377 Q 448 371 452 361 L 456 342 L 454 325 L 449 314 Q 444 306 434 305 Z M 483 308 L 478 310 Q 471 309 468 311 L 469 316 L 469 335 L 469 336 L 474 336 L 481 334 Q 485 331 486 325 L 486 311 L 485 310 Q 486 307 483 308 Z M 256 319 L 248 323 L 238 334 L 232 348 L 230 358 Q 228 382 238 394 Q 243 400 251 402 Q 265 403 272 396 L 282 382 L 287 363 Q 288 341 280 330 L 270 320 Q 264 318 256 319 Z M 30 321 L 27 325 L 25 333 L 25 340 L 28 349 Q 33 354 41 356 L 63 362 L 86 365 L 87 366 L 102 367 L 103 368 L 124 369 L 125 370 L 142 370 L 143 371 L 183 371 L 184 370 L 203 369 L 209 367 L 211 365 L 213 357 L 213 340 L 212 337 L 210 336 L 192 337 L 191 338 L 132 338 L 131 337 L 102 336 L 101 335 L 77 333 L 49 328 L 30 321 Z M 404 345 Q 397 349 387 348 L 388 360 L 393 370 L 403 378 L 414 381 L 419 381 L 418 380 Q 404 369 404 345 Z M 52 365 L 55 373 L 68 381 L 81 384 Q 99 384 107 375 L 105 373 L 89 372 L 52 365 Z M 226 366 Q 222 370 214 369 L 208 374 Q 209 384 214 390 Q 221 399 235 402 L 242 402 L 241 401 Q 226 390 226 366 Z " /><path fill="rgb(0,0,0)" stroke="rgb(0,0,0)" stroke-width="0" opacity="1" d="M 130.5 142 L 175.5 142 L 176.5 143 L 198.5 144 L 223.5 150 L 232 156.5 Q 235.6 161.9 234 172.5 L 222 231.5 Q 220.5 238 215.5 241 L 213.5 242 L 159.5 242 L 158.5 241 L 131.5 241 L 130.5 240 L 87.5 239 L 86.5 238 L 75.5 238 L 68 234.5 Q 65 231.5 66 224.5 Q 71.8 196.8 81 172.5 L 87 159.5 L 95.5 150 L 112.5 144 L 129.5 143 L 130.5 142 Z M 151 146 L 150 147 L 127 147 L 126 148 L 113 149 L 102 152 L 97 155 L 90 164 L 84 178 L 73 214 L 71 224 L 71 231 L 75 233 Q 81 231 83 234 L 122 235 L 123 236 L 149 236 L 150 237 L 184 237 L 185 238 L 211 238 L 215 236 L 219 225 L 220 215 L 228 180 L 229 161 L 224 155 L 206 150 L 193 149 L 192 148 L 181 148 L 180 147 L 154 147 L 151 146 Z " /><path fill="rgb(0,0,0)" stroke="rgb(0,0,0)" stroke-width="0" opacity="1" d="M 319.5 151 L 350.5 151 L 351.5 152 L 359.5 152 L 369 157.5 L 372 168.5 L 372 224.5 L 369 232.5 L 366.5 235 L 360.5 237 L 323.5 238 Q 316.9 237.1 314 232.5 L 312 228.5 L 312 206.5 L 311 205.5 L 311 159.5 L 315.5 153 L 319.5 151 Z M 326 155 L 317 157 L 315 164 L 315 175 L 316 176 L 316 224 L 318 231 L 323 233 L 351 233 L 352 232 Q 360 234 364 231 L 367 227 L 367 218 L 368 217 L 368 181 L 367 180 L 367 165 L 366 162 L 363 158 L 355 156 L 326 155 Z " /><path fill="rgb(0,0,0)" stroke="rgb(0,0,0)" stroke-width="0" opacity="1" d="M 390.5 153 L 415.5 155 L 423 160.5 L 425 168.5 L 425 224.5 L 424 228.5 L 419.5 233 L 413.5 235 L 387.5 236 Q 381.8 234.8 379 230.5 L 378 227.5 L 378 179.5 L 377 178.5 L 377 162.5 L 381.5 155 L 390.5 153 Z M 388 158 L 382 162 L 382 224 L 384 230 L 388 231 L 404 231 L 405 230 L 416 230 L 418 229 L 420 226 Q 419 221 421 220 L 421 178 L 420 177 Q 421 168 419 163 L 413 159 L 388 158 Z " /><path fill="rgb(0,0,0)" stroke="rgb(0,0,0)" stroke-width="0" opacity="1" d="M 441.5 156 L 462.5 158 Q 468.3 159.3 471 163.5 L 474 171.5 L 474 180.5 L 475 181.5 L 475 220.5 L 470.5 230 L 466.5 232 Q 461 230.5 459.5 233 L 437.5 233 L 432 228.5 L 431 216.5 L 430 215.5 L 430 163.5 L 433.5 158 L 441.5 156 Z M 438 161 L 434 167 L 434 177 L 435 178 L 435 223 L 436 226 L 442 229 L 467 227 L 470 223 L 470 209 L 471 208 L 470 177 L 467 165 L 460 162 L 438 161 Z " /><path fill="rgb(0,0,0)" stroke="rgb(0,0,0)" stroke-width="0" opacity="1" d="M 113.5 166 Q 121.8 164.7 124 169.5 L 125 171.5 L 121.5 173 Q 119.8 170.3 113.5 172 L 107.5 176 L 105 176 L 105 173.5 L 109.5 168 L 113.5 166 Z " /><path fill="rgb(0,0,0)" stroke="rgb(0,0,0)" stroke-width="0" opacity="1" d="M 178.5 167 Q 188.3 166.3 191 172.5 L 192 179 L 185.5 174 L 176.5 173 L 172.5 175 L 171 172.5 L 178.5 167 Z " /><path fill="rgb(0,0,0)" stroke="rgb(0,0,0)" stroke-width="0" opacity="1" d="M 112.5 186 L 119.5 186 L 127 191.5 Q 131 196.5 131 205.5 L 129 214.5 L 121.5 225 Q 117.3 229.3 107.5 228 L 100 224 L 96 215.5 L 96 205.5 Q 98.9 193.9 107.5 188 L 112.5 186 Z M 115 189 L 110 191 Q 102 195 100 205 Q 98 215 102 221 L 109 225 L 110 225 L 105 215 Q 105 205 110 200 L 116 196 L 124 197 L 126 201 L 127 201 L 125 195 Q 123 189 115 189 Z M 121 201 Q 117 202 118 208 Q 119 210 123 209 Q 125 208 124 203 L 121 201 Z " /><path fill="rgb(0,0,0)" stroke="rgb(0,0,0)" stroke-width="0" opacity="1" d="M 172.5 187 Q 183.3 187.3 187 194.5 Q 191.3 199.6 190 210.5 L 186 221.5 L 179.5 228 Q 175.5 231 168.5 231 L 160.5 228 L 158 225.5 Q 152.2 219.8 154 206.5 Q 156.6 197.6 162.5 192 L 172.5 187 Z M 172 191 L 167 193 L 160 201 L 157 212 L 159 222 L 166 227 L 167 227 L 163 219 Q 162 208 166 204 Q 169 199 176 197 L 183 199 L 184 202 L 186 203 L 184 196 Q 181 190 172 191 Z M 179 203 Q 175 204 176 210 Q 177 212 182 211 L 183 206 Q 183 203 179 203 Z " /><path fill="rgb(0,0,0)" stroke="rgb(0,0,0)" stroke-width="0" opacity="1" d="M 50.5 267 Q 58.8 267.8 62 273.5 L 65 279.5 L 66 288.5 L 64 297.5 Q 61.8 304.3 56.5 308 Q 53.5 311 46.5 310 L 40 305.5 Q 33.7 298.8 36 283.5 Q 37.9 274.9 43.5 270 L 50.5 267 Z M 51 271 L 47 273 L 54 274 L 59 282 Q 61 293 57 299 L 51 304 L 46 303 L 44 304 L 48 306 L 54 305 L 59 300 L 62 288 L 61 281 L 58 275 L 51 271 Z M 48 276 L 46 277 L 41 285 L 42 297 L 48 301 L 52 300 L 56 292 Q 58 283 54 279 Q 53 275 48 276 Z " /><path fill="rgb(0,0,0)" stroke="rgb(0,0,0)" stroke-width="0" opacity="1" d="M 164.5 272 Q 178.6 271.9 183 281.5 L 185 286.5 L 186 295.5 Q 183.8 296.8 185 301.5 L 181 310.5 L 174.5 317 Q 170.5 320 163.5 320 Q 154.3 318.3 150 311.5 L 147 305.5 L 146 293.5 Q 148 283 154.5 277 L 164.5 272 Z M 167 276 L 159 279 L 153 286 L 150 296 Q 150 305 154 311 L 161 315 Q 168 317 172 314 L 178 308 L 182 296 Q 182 287 178 282 Q 174 277 167 276 Z " /><path fill="rgb(0,0,0)" stroke="rgb(0,0,0)" stroke-width="0" opacity="1" d="M 163.5 279 Q 173.3 278.3 176 284.5 Q 179.8 289.2 178 299.5 Q 176.8 307.8 170.5 311 Q 167.3 313.3 160.5 312 L 155 307.5 L 152 299.5 L 152 294.5 Q 153.5 285.5 159.5 281 L 163.5 279 Z M 165 282 L 163 283 L 156 292 Q 154 305 162 309 L 170 308 L 175 299 Q 176 290 173 286 Q 171 282 165 282 Z " /><path fill="rgb(0,0,0)" stroke="rgb(0,0,0)" stroke-width="0" opacity="1" d="M 77 294 L 80 295.5 L 85 305 L 92.5 310 L 98.5 312 L 111.5 312 Q 121.1 309.1 127 302.5 L 129 299.5 L 128 296 L 130.5 296 L 136 301.5 L 133.5 303 L 132.5 302 L 123.5 311 Q 116.4 317.4 102.5 317 L 89.5 313 L 80 304.5 Q 75.9 301.3 77 294 Z " /><path fill="rgb(0,0,0)" stroke="rgb(0,0,0)" stroke-width="0" opacity="1" d="M 433.5 322 Q 440.1 322.9 443 327.5 Q 448.1 334.4 446 348.5 Q 443.9 358.4 436.5 363 L 428.5 364 L 423 359.5 L 420 353.5 L 419 342.5 L 423 329.5 L 428.5 324 L 433.5 322 Z M 434 326 L 431 327 L 425 334 L 423 341 Q 422 352 426 358 Q 428 361 435 360 L 439 356 L 443 344 Q 443 333 439 328 L 434 326 Z " /><path fill="rgb(0,0,0)" stroke="rgb(0,0,0)" stroke-width="0" opacity="1" d="M 432.5 335 Q 437.5 334.5 438 338.5 Q 439.8 349.3 433.5 352 Q 428.5 352.5 428 348.5 Q 426.1 339.1 430.5 336 L 432.5 335 Z M 432 339 Q 430 341 431 347 L 434 348 Q 436 346 435 341 L 432 339 Z " /><path fill="rgb(0,0,0)" stroke="rgb(0,0,0)" stroke-width="0" opacity="1" d="M 259.5 337 Q 267.9 337.1 271 342.5 Q 276.7 349.3 276 362.5 L 274 371.5 L 267.5 381 Q 264 385.5 254.5 384 L 247 377.5 L 244 370.5 L 243 362.5 L 245 351.5 L 251.5 341 L 259.5 337 Z M 260 341 L 257 342 L 250 350 L 247 362 Q 247 371 251 377 Q 253 382 263 380 Q 270 375 272 364 L 272 355 L 268 345 Q 266 340 260 341 Z " /><path fill="rgb(0,0,0)" stroke="rgb(0,0,0)" stroke-width="0" opacity="1" d="M 260.5 351 L 266 355.5 Q 267.3 365.1 264 369 L 259.5 371 L 254 366.5 Q 252.7 356.9 256 353 L 260.5 351 Z M 260 355 L 257 359 Q 256 364 258 366 Q 257 368 261 367 L 263 363 Q 264 358 262 357 Q 263 354 260 355 Z " /></svg>