<svg width="627" height="627" preserveAspectRatio="xMidYMid meet" viewBox="0 0 512 512" version="1.1" xmlns="http://www.w3.org/2000/svg" ><path fill="rgb(255,255,255)" stroke="rgb(255,255,255)" stroke-width="0" opacity="1" d="M 0 0 L 512 0 L 512 512 L 0 512 L 0 0 Z M 215 131 L 214 132 L 195 132 L 194 133 L 174 134 L 164 136 L 154 140 Q 144 148 140 161 Q 131 184 126 211 L 108 212 L 86 216 Q 73 219 66 226 Q 58 232 57 242 L 52 243 L 46 249 L 43 260 L 43 284 L 44 286 L 41 287 L 37 294 L 37 310 L 38 313 Q 41 318 47 318 Q 47 338 56 350 L 69 361 L 80 366 L 91 367 L 92 368 Q 112 368 124 359 Q 136 350 141 333 L 143 348 L 152 364 Q 160 373 173 378 L 184 381 L 193 381 L 194 382 Q 197 380 205 381 L 216 378 L 232 368 Q 241 359 246 346 L 247 349 Q 255 360 273 363 Q 294 365 305 355 Q 313 349 317 338 Q 320 353 329 363 Q 340 375 360 379 L 380 379 L 385 378 Q 397 375 405 368 Q 415 359 421 345 L 424 334 L 424 325 L 425 324 L 424 314 Q 435 315 442 312 L 446 306 L 446 287 L 445 285 L 442 282 Q 439 281 440 276 L 446 276 L 457 271 Q 466 264 470 252 L 474 237 L 474 229 L 475 228 Q 476 194 463 176 L 457 169 L 443 164 L 423 164 L 415 166 Q 414 153 408 144 L 398 135 L 386 134 L 385 133 L 364 133 L 363 132 L 306 132 L 305 131 L 215 131 Z " /><path fill="rgb(255,255,255)" stroke="rgb(255,255,255)" stroke-width="0" opacity="1" d="M 205.5 136 L 335.5 136 L 336.5 137 L 375.5 137 L 376.5 138 L 394.5 139 Q 401 140.5 404 145.5 L 411 164.5 L 411 170.5 L 412 171.5 L 412 176.5 L 415 189.5 L 415 196.5 L 416 197.5 L 416 204.5 L 417 205.5 L 418 223.5 L 419 224.5 L 419 237.5 L 420 238.5 L 420 274.5 L 419 274.5 Q 415.7 253.8 402.5 243 L 392.5 239 L 365.5 238 L 364.5 239 L 347.5 239 L 340.5 241 Q 332.3 244.3 328 251.5 Q 314.6 275.3 307 304 L 289.5 304 L 288.5 305 L 252 305 L 243 278.5 Q 239.3 268.2 231.5 262 L 222.5 258 L 180.5 258 Q 171.3 259.8 167 266.5 L 161 279.5 L 157.5 283 L 155.5 284 L 144.5 284 Q 142.3 283.3 143 279.5 Q 146.5 262 158.5 253 L 165.5 250 L 178.5 249 L 179.5 248 L 215.5 248 L 229.5 251 L 240 259.5 L 246 269.5 L 252 285.5 L 256.5 290 L 258.5 291 L 298.5 291 Q 305.9 289.9 309 284.5 L 319 259.5 Q 317.5 254 320 252.5 L 320 221.5 L 319 220.5 L 319 196.5 L 318 195.5 L 317 164.5 L 316 163.5 L 316 154.5 L 313.5 150 L 309.5 149 L 250.5 149 L 246 151 L 243 157.5 L 238 181.5 L 236 197.5 L 234 202.5 L 234 212.5 L 240.5 220 L 243 221.5 L 242.5 258 L 236.5 251 L 229.5 247 L 221.5 245 L 185.5 244 L 184.5 245 L 171.5 245 L 162.5 247 L 152 253 L 146.5 262 L 146 256.5 L 147 255.5 L 147 246.5 Q 144.5 245 146 239.5 L 143.5 236 Q 140.9 235.2 142 238.5 L 143 239.5 L 143 267.5 L 139 279.5 L 139 283.5 L 140 285.5 L 137.5 291 Q 131.3 292.8 129.5 290 L 107.5 290 L 106.5 289 L 86.5 289 L 85.5 288 L 67.5 288 L 66.5 287 L 58 287 L 59 249.5 L 62 238.5 L 67.5 231 L 71.5 230 L 119.5 230 L 120.5 231 L 132.5 231 L 141.5 233 L 166.5 228 L 213.5 224 L 218 221.5 L 203.5 221 L 202.5 222 L 191.5 222 L 190.5 223 L 163.5 225 L 139.5 230 L 126.5 227 L 79.5 226 Q 78.3 228.2 73.5 227 L 73.5 226 L 84.5 221 L 104.5 217 L 120.5 216 L 121.5 215 L 135.5 215 L 136.5 214 L 168.5 214 L 169.5 215 L 217.5 216 L 223 211.5 L 231 176.5 L 232 165.5 L 234 159.5 L 234 149.5 Q 231.3 145.3 225.5 144 L 189.5 144 L 188.5 145 L 175.5 145 L 174.5 146 L 163.5 147 Q 156.6 148.5 153 153.5 L 146 168.5 L 138 195.5 L 136 208.5 L 137 210.5 L 134.5 211 Q 129.3 212.8 131 207.5 L 146 157.5 L 154.5 145 L 161.5 141 L 171.5 139 L 187.5 138 L 188.5 137 L 204.5 137 L 205.5 136 Z M 334 153 L 330 155 L 326 160 L 326 178 L 327 179 L 327 192 L 328 193 L 328 208 L 330 215 L 336 219 L 401 219 L 405 217 L 408 210 L 404 179 L 401 165 L 398 159 L 396 156 L 388 153 L 334 153 Z M 71 241 L 69 242 Q 63 246 62 254 Q 61 264 65 270 Q 67 273 74 272 Q 80 269 81 261 Q 83 250 79 245 Q 77 240 71 241 Z M 124 242 L 122 243 Q 115 247 114 256 Q 113 266 117 272 L 122 275 L 129 274 Q 134 270 136 263 Q 138 251 133 246 Q 131 241 124 242 Z M 80 270 L 83 279 L 93 284 L 102 283 L 112 275 L 114 275 L 111 270 L 108 272 L 109 274 L 100 280 Q 91 281 88 278 L 83 273 Q 84 268 80 270 Z " /><path fill="rgb(255,255,255)" stroke="rgb(255,255,255)" stroke-width="0" opacity="1" d="M 185.5 148 L 226.5 148 L 230 150.5 L 231 154.5 L 222 202.5 L 220 209.5 L 217.5 212 L 209.5 213 L 208.5 212 L 192.5 212 L 191.5 211 L 140 210 L 140 203.5 L 148 174.5 L 153 160.5 L 158.5 153 L 166.5 150 L 184.5 149 L 185.5 148 Z M 168 161 L 166 162 Q 161 164 161 169 L 169 165 L 173 166 Q 177 167 176 165 Q 175 160 168 161 Z M 205 161 L 203 162 L 199 166 L 201 167 L 205 165 L 212 169 Q 211 171 214 170 L 213 165 Q 211 160 205 161 Z M 165 176 L 162 178 Q 155 182 154 191 L 155 202 L 161 206 L 169 205 Q 175 201 177 192 Q 178 183 175 180 Q 173 175 165 176 Z M 202 176 L 197 178 Q 190 182 188 191 Q 186 199 189 203 L 197 208 Q 202 209 205 206 Q 212 202 213 192 Q 214 185 211 182 Q 209 176 202 176 Z " /><path fill="rgb(255,255,255)" stroke="rgb(255,255,255)" stroke-width="0" opacity="1" d="M 250.5 153 L 311.5 153 Q 312.6 153.1 312 158.5 L 313 159.5 L 314 188.5 L 315 189.5 L 315 209.5 L 316 210.5 L 316 256.5 L 307 281.5 L 302.5 286 L 300.5 287 L 261.5 288 L 256 286 L 246 262.5 L 247 261.5 L 247 228.5 L 246 222 L 256.5 223 L 263.5 219 L 302.5 219 L 308 214.5 L 309 204.5 L 308 203.5 L 307 170.5 L 306 165.5 L 302.5 161 L 296.5 159 L 261.5 159 L 256.5 160 L 253 162.5 L 250 169.5 L 247 189.5 L 244.5 194 L 239.5 197 L 240 195.5 L 241 184.5 L 246 159.5 L 248 154 L 250.5 153 Z M 294 229 Q 289 230 290 238 L 295 241 Q 305 243 310 239 L 311 237 L 310 232 L 308 229 L 294 229 Z " /><path fill="rgb(255,255,255)" stroke="rgb(255,255,255)" stroke-width="0" opacity="1" d="M 333.5 157 L 389.5 157 L 395 160.5 L 400 176.5 L 403 203.5 L 404 204.5 L 404 211.5 L 403 214 L 400.5 215 L 335.5 215 L 332 209.5 L 330 166.5 L 329 163.5 L 331.5 158 L 333.5 157 Z " /><path fill="rgb(255,255,255)" stroke="rgb(255,255,255)" stroke-width="0" opacity="1" d="M 258.5 163 L 298.5 163 L 302 165.5 Q 304.2 170.3 303 178.5 L 304 179.5 L 305 212.5 L 302.5 215 L 267.5 215 L 266.5 216 L 266 212.5 L 267 211.5 L 267 202.5 L 265 196.5 L 262.5 194 Q 257.9 190.9 250 192 L 253 172.5 L 256.5 164 L 258.5 163 Z " /><path fill="rgb(255,255,255)" stroke="rgb(255,255,255)" stroke-width="0" opacity="1" d="M 425.5 168 L 445.5 169 Q 454.6 170.9 459 177.5 L 462 182.5 L 456.5 183 L 455.5 182 L 436.5 182 Q 434.8 184.7 433 180.5 L 425.5 172 L 420 169.5 L 425.5 168 Z " /><path fill="rgb(255,255,255)" stroke="rgb(255,255,255)" stroke-width="0" opacity="1" d="M 416.5 172 Q 424.9 172.6 428 178.5 Q 435 187.5 438 200.5 L 439 213.5 L 440 214.5 L 440 228.5 L 439 229.5 L 439 237.5 L 437 248.5 Q 434.2 259.2 428.5 267 Q 423.1 268.9 424 265.5 L 424 263.5 L 424 230.5 L 423 229.5 L 423 218.5 L 422 217.5 L 422 209.5 L 421 208.5 L 418 179.5 L 416.5 172 Z " /><path fill="rgb(255,255,255)" stroke="rgb(255,255,255)" stroke-width="0" opacity="1" d="M 164.5 179 Q 171.5 177.5 173 181.5 L 174 185.5 L 171.5 184 L 168.5 183 L 162 187.5 Q 158.5 191.5 160 200.5 L 161.5 203 L 158 200.5 Q 155.5 197 157 189.5 Q 158.8 182.3 164.5 179 Z " /><path fill="rgb(255,255,255)" stroke="rgb(255,255,255)" stroke-width="0" opacity="1" d="M 201.5 179 Q 207.1 179.5 209 183.5 L 210 187.5 L 206.5 185 L 202.5 184 L 196 189.5 Q 193.3 192.8 194 199.5 L 197 204.5 L 195.5 205 L 193 204 L 191 200.5 L 190 194.5 L 193 185.5 L 198.5 180 L 201.5 179 Z " /><path fill="rgb(255,255,255)" stroke="rgb(255,255,255)" stroke-width="0" opacity="1" d="M 436.5 185 L 461.5 186 L 465 188.5 L 469 206 L 456.5 204 L 444.5 204 L 442 205 Q 440.5 193.3 436.5 185 Z " /><path fill="rgb(255,255,255)" stroke="rgb(255,255,255)" stroke-width="0" opacity="1" d="M 170.5 187 Q 172.8 187.8 172 191.5 L 168 193 L 168 188 L 169.5 188 L 170.5 187 Z " /><path fill="rgb(255,255,255)" stroke="rgb(255,255,255)" stroke-width="0" opacity="1" d="M 203 189 Q 209.4 186.9 207 194 Q 200.6 196.1 203 189 Z " /><path fill="rgb(255,255,255)" stroke="rgb(255,255,255)" stroke-width="0" opacity="1" d="M 249.5 196 Q 258.9 194.1 262 198.5 Q 264.3 203.2 263 211.5 L 262 215.5 L 259.5 218 Q 256 220.5 248.5 219 Q 241.1 217.9 238 212.5 L 237 207.5 L 239 201.5 L 241.5 199 L 249.5 196 Z " /><path fill="rgb(255,255,255)" stroke="rgb(255,255,255)" stroke-width="0" opacity="1" d="M 447.5 207 L 450.5 208 L 465.5 208 L 470 209 L 470 230.5 L 468.5 232 L 447.5 232 L 443 231 L 443 208.5 L 446.5 208 L 447.5 207 Z " /><path fill="rgb(255,255,255)" stroke="rgb(255,255,255)" stroke-width="0" opacity="1" d="M 294.5 232 L 307 232 L 307 237 L 294.5 237 L 293 235.5 L 294.5 232 Z " /><path fill="rgb(255,255,255)" stroke="rgb(255,255,255)" stroke-width="0" opacity="1" d="M 443 234 L 446.5 235 L 469 235 L 467 246.5 L 464 254 L 444.5 255 L 439 254 L 443 234 Z " /><path fill="rgb(255,255,255)" stroke="rgb(255,255,255)" stroke-width="0" opacity="1" d="M 353.5 242 L 386.5 242 Q 388 244.5 393.5 243 Q 402.5 245.4 407 252.5 L 413 264.5 L 418 280.5 L 413.5 282 L 410 277.5 L 405 263.5 L 398.5 256 L 388.5 253 L 362.5 253 L 351.5 255 L 343 261.5 L 325 298.5 L 319.5 304 L 311.5 304 L 310 302.5 L 324 266.5 Q 328.5 255 336.5 247 L 345.5 243 Q 351.8 244.8 353.5 242 Z " /><path fill="rgb(255,255,255)" stroke="rgb(255,255,255)" stroke-width="0" opacity="1" d="M 72.5 244 L 76 246.5 Q 78.9 250.1 78 257.5 L 77 262.5 L 74 268 L 69.5 269 L 66 264.5 L 65 257.5 Q 67.3 256.3 66 251.5 L 70.5 245 L 72.5 244 Z " /><path fill="rgb(255,255,255)" stroke="rgb(255,255,255)" stroke-width="0" opacity="1" d="M 125.5 245 L 131 248.5 L 133 258.5 L 130 267.5 L 126.5 271 L 124.5 272 L 120 269.5 Q 116 264.5 118 253.5 L 123.5 246 L 125.5 245 Z " /><path fill="rgb(255,255,255)" stroke="rgb(255,255,255)" stroke-width="0" opacity="1" d="M 53.5 247 L 56 247.5 L 54 257.5 L 54 286 L 48 286 L 48 280.5 L 47 279.5 L 47 265.5 L 48 264.5 L 49 252.5 L 53.5 247 Z " /><path fill="rgb(255,255,255)" stroke="rgb(255,255,255)" stroke-width="0" opacity="1" d="M 365.5 257 L 393.5 258 L 400 262.5 L 407 278.5 L 403.5 276 Q 395.2 269.3 382.5 267 L 362.5 267 Q 349.4 269.4 340.5 276 L 341 274.5 Q 343.4 264.9 350.5 260 L 354.5 258 L 364.5 258 L 365.5 257 Z " /><path fill="rgb(255,255,255)" stroke="rgb(255,255,255)" stroke-width="0" opacity="1" d="M 437 257 L 440.5 258 L 460.5 258 L 462 257.5 L 453.5 268 Q 447.3 272 438 272 L 435.5 268 L 433 266.5 L 437 257 Z " /><path fill="rgb(255,255,255)" stroke="rgb(255,255,255)" stroke-width="0" opacity="1" d="M 182.5 262 L 220.5 262 L 227.5 264 L 235 271.5 Q 244.5 288.2 249 309 L 318 308 L 316 319.5 L 314.5 321 L 312.5 322 L 248 323 L 248 316.5 L 245 303.5 Q 238.7 288.3 226.5 279 Q 213.6 268.9 189.5 270 L 176.5 273 L 165.5 279 L 166 277.5 Q 168.3 269.8 173.5 265 L 182.5 262 Z " /><path fill="rgb(255,255,255)" stroke="rgb(255,255,255)" stroke-width="0" opacity="1" d="M 367.5 271 Q 380.7 269.3 386 275.5 L 388.5 282 Q 393.1 283.4 391 277.5 L 389 274.5 L 390.5 274 Q 400.7 277.3 407 284.5 Q 409.6 285.9 409 290.5 L 407 297 Q 410.8 298.5 410 295.5 L 412.5 292 Q 419.1 302.2 420 317 L 414 319.5 Q 412.7 323.7 417.5 322 L 420 321 L 419 335.5 L 414.5 347 Q 412.6 343.4 408 344 L 409.5 348 L 413 350.5 L 403.5 363 L 394.5 369 L 394 362.5 L 392.5 361 L 391 362.5 L 390 369.5 L 387.5 372 L 375.5 375 L 364.5 375 L 357 373.5 L 368 364.5 L 366.5 362 Q 360.6 368.6 351.5 372 Q 341 368.5 334 361.5 L 332 358.5 L 341.5 351 L 350 347.5 Q 348.3 343.3 346.5 346 Q 335.7 347.7 331 355.5 L 330.5 357 L 325 348.5 L 321 336.5 L 320 319.5 L 323 306.5 L 324.5 305 Q 326.8 305.8 326 303.5 L 337.5 298 L 344.5 298 L 348.5 300 L 350 296 L 343.5 294 L 338.5 294 L 331.5 297 L 331 294.5 Q 333.2 287.2 338.5 283 L 347.5 277 L 348 279 Q 360.6 277.1 365.5 284 L 367 280.5 L 360.5 276 L 354.5 275 L 351.5 276 L 351.5 275 L 367.5 271 Z M 377 297 L 371 299 Q 361 305 358 319 L 359 333 L 365 343 L 375 348 Q 387 350 392 344 Q 399 338 401 327 L 401 317 L 397 307 Q 392 296 377 297 Z M 337 320 L 328 324 L 322 330 L 322 332 L 325 332 Q 328 326 336 324 L 343 324 L 344 322 Q 343 318 337 320 Z " /><path fill="rgb(255,255,255)" stroke="rgb(255,255,255)" stroke-width="0" opacity="1" d="M 424 271 L 432.5 271 L 435 273.5 L 436 281 L 424 281 L 424 271 Z " /><path fill="rgb(255,255,255)" stroke="rgb(255,255,255)" stroke-width="0" opacity="1" d="M 185.5 275 L 204.5 275 Q 211.1 275.9 214 280.5 L 215 288 L 219 286.5 L 217 279.5 L 218.5 280 Q 227.9 283.6 233 291.5 Q 235.6 292.9 235 297.5 L 232 302.5 L 236 304 L 237.5 300 L 242 309.5 L 244 322.5 L 238 325 L 239.5 329 L 244 328 L 242 342.5 L 237.5 351 Q 236.3 348 232 349 L 233.5 353 L 236 354.5 Q 232.3 363.3 224.5 368 L 219.5 371 Q 220.4 365.6 217.5 364 L 215 365.5 L 216 369.5 L 213.5 374 L 199.5 377 L 189.5 377 L 178 374.5 Q 187.2 373.7 191 367.5 Q 192.3 363.8 188.5 365 L 185.5 368 L 172.5 373 Q 163 369.5 157 362.5 L 154 358.5 L 158.5 355 L 172.5 352 L 174 350.5 L 172.5 348 L 158.5 351 L 152.5 356 Q 142.9 343.6 145 319.5 Q 149 294.5 166.5 283 Q 174.5 277.5 185.5 275 Z M 179 278 L 177 281 Q 189 281 194 288 L 195 285 Q 191 277 179 278 Z M 161 296 L 155 298 L 153 302 L 159 300 Q 169 298 175 302 Q 179 303 177 299 Q 172 295 161 296 Z M 200 302 L 190 307 L 185 315 L 182 327 Q 182 337 186 343 Q 190 350 199 352 Q 209 353 214 349 L 222 340 L 225 327 L 223 316 L 218 308 L 210 302 L 200 302 Z M 157 322 L 149 326 Q 145 327 146 331 L 149 331 L 157 326 L 169 326 L 170 323 Q 166 321 157 322 Z " /><path fill="rgb(255,255,255)" stroke="rgb(255,255,255)" stroke-width="0" opacity="1" d="M 414 285 L 439.5 285 L 441 286.5 Q 443.6 292.4 442 302.5 L 440 308 L 424.5 310 L 423 308.5 L 419 294.5 L 414 285 Z " /><path fill="rgb(255,255,255)" stroke="rgb(255,255,255)" stroke-width="0" opacity="1" d="M 143.5 287 L 144.5 288 L 155 288.5 L 147.5 299 L 143.5 292 Q 140.9 292.8 142 289.5 L 143.5 287 Z " /><path fill="rgb(255,255,255)" stroke="rgb(255,255,255)" stroke-width="0" opacity="1" d="M 44.5 290 L 64.5 291 L 65.5 292 L 82.5 292 L 83.5 293 L 128.5 294 L 129.5 295 L 140.5 295 L 142 296.5 L 143 305.5 L 142 306.5 L 142 314.5 L 138.5 319 L 130.5 320 L 129.5 319 L 111.5 319 L 110.5 318 L 96.5 318 L 95.5 317 L 79.5 317 L 78.5 316 L 54.5 315 Q 52.7 312.2 46.5 314 L 43 311.5 L 42 309.5 L 42 292.5 L 44.5 290 Z " /><path fill="rgb(255,255,255)" stroke="rgb(255,255,255)" stroke-width="0" opacity="1" d="M 375.5 301 L 384.5 301 L 394 308.5 Q 398.9 315 397 328.5 Q 394.8 336.3 389.5 341 L 384.5 344 L 379.5 345 Q 378.3 342.8 373.5 344 L 367 340 L 362 329.5 L 362 317.5 Q 364 307.5 371.5 303 L 375.5 301 Z M 378 313 L 376 314 L 371 320 Q 370 327 373 330 Q 375 333 382 332 L 387 326 Q 388 318 385 315 L 382 313 L 378 313 Z " /><path fill="rgb(255,255,255)" stroke="rgb(255,255,255)" stroke-width="0" opacity="1" d="M 203.5 305 Q 214.2 305.8 218 313.5 Q 221.3 319.2 221 328.5 Q 218.7 329.8 220 334.5 L 217 340.5 L 211.5 346 Q 207.5 349.5 198.5 348 L 189 340.5 Q 184.8 334.7 186 323.5 Q 187.9 311.9 196.5 307 L 203.5 305 Z M 202 317 L 200 318 L 195 324 L 196 333 L 203 337 L 206 336 L 210 331 Q 211 324 209 321 Q 208 316 202 317 Z " /><path fill="rgb(255,255,255)" stroke="rgb(255,255,255)" stroke-width="0" opacity="1" d="M 378.5 316 L 383 318.5 L 384 323.5 L 381.5 328 L 377.5 329 Q 373.9 327.1 374 321.5 L 376 317 L 378.5 316 Z " /><path fill="rgb(255,255,255)" stroke="rgb(255,255,255)" stroke-width="0" opacity="1" d="M 52 319 L 81 321 Q 81.9 334.9 91.5 341 L 101.5 344 L 111.5 341 L 118 335.5 L 123 324 L 137 324 L 137 329.5 Q 133.2 345.2 122.5 354 L 107.5 362 L 88.5 363 L 74 358.5 Q 81.8 358.8 85 354.5 L 83.5 352 Q 78.7 356.2 68.5 355 L 60 347.5 L 55 338.5 L 56.5 338 Q 59.8 340.7 66.5 340 L 70 339 L 68.5 335 L 67.5 336 L 59.5 336 L 53 333 Q 50.9 328 52 319 Z " /><path fill="rgb(255,255,255)" stroke="rgb(255,255,255)" stroke-width="0" opacity="1" d="M 85 321 L 88.5 322 L 119 323 Q 118.1 332.3 111.5 337 Q 107.4 340.9 98.5 340 Q 91.3 338.2 88 332.5 Q 84 328.6 85 321 Z " /><path fill="rgb(255,255,255)" stroke="rgb(255,255,255)" stroke-width="0" opacity="1" d="M 200.5 321 Q 206 320 207 323.5 Q 208.5 331.5 203.5 333 L 199 332 Q 197.4 329.9 198 324.5 L 200.5 321 Z " /><path fill="rgb(255,255,255)" stroke="rgb(255,255,255)" stroke-width="0" opacity="1" d="M 301.5 326 L 303.5 326 L 314.5 326 L 315 328.5 Q 312.2 343.2 302.5 351 L 288.5 358 L 270.5 358 Q 257.3 355.7 251 346.5 L 247 339.5 L 247 335.5 L 248 334.5 L 248 328 L 258.5 328 L 259 329.5 Q 261.4 338.1 268.5 342 L 276.5 345 L 281.5 345 Q 290.1 343.1 295 337.5 L 301.5 326 Z " /><path fill="rgb(255,255,255)" stroke="rgb(255,255,255)" stroke-width="0" opacity="1" d="M 263 327 L 295.5 327 L 296 329.5 L 289.5 338 Q 285 342.5 274.5 341 L 266 335.5 L 263 327 Z " /><path fill="rgb(0,0,0)" stroke="rgb(0,0,0)" stroke-width="0" opacity="1" d="M 214.5 131 L 304.5 131 L 305.5 132 L 362.5 132 L 363.5 133 L 384.5 133 L 385.5 134 L 397.5 135 L 408 143.5 Q 414 152.7 415 166 L 422.5 164 L 442.5 164 L 456.5 169 L 463 175.5 Q 476.3 194.2 475 227.5 L 474 228.5 L 474 236.5 L 470 251.5 Q 465.7 263.7 456.5 271 L 445.5 276 L 440 276 Q 438.8 280.6 441.5 282 L 445 284.5 L 446 286.5 L 446 305.5 L 441.5 312 Q 434.5 315.2 424 314 L 425 323.5 L 424 324.5 L 424 333.5 L 421 344.5 Q 415.3 358.8 404.5 368 Q 396.5 375 384.5 378 L 379.5 379 L 359.5 379 Q 339.6 375.4 329 362.5 Q 320.2 352.8 316.5 338 Q 312.7 348.7 304.5 355 Q 294.1 364.6 272.5 363 Q 255.3 360.3 247 348.5 L 245.5 346 Q 240.7 359.2 231.5 368 L 215.5 378 L 204.5 381 Q 197 379.5 193.5 382 L 192.5 381 L 183.5 381 L 172.5 378 Q 159.8 373.2 152 363.5 L 143 347.5 L 140.5 333 Q 135.9 349.9 123.5 359 Q 112.3 368.3 91.5 368 L 90.5 367 L 79.5 366 L 68.5 361 L 56 349.5 Q 46.7 338 47 318 Q 40.6 317.8 38 312.5 L 37 309.5 L 37 293.5 L 40.5 287 L 44 286 L 43 283.5 L 43 259.5 L 46 248.5 L 51.5 243 L 57 242 Q 58.4 231.6 65.5 226 Q 73.4 218.9 85.5 216 L 107.5 212 L 126 211 Q 131.2 184.5 140 160.5 Q 144 147.5 153.5 140 L 163.5 136 L 173.5 134 L 193.5 133 L 194.5 132 L 213.5 132 L 214.5 131 Z M 206 136 L 205 137 L 189 137 L 188 138 L 172 139 L 162 141 L 155 145 L 146 158 L 131 208 Q 129 213 135 211 L 137 211 L 136 209 L 138 196 L 146 169 L 153 154 Q 157 149 164 147 L 175 146 L 176 145 L 189 145 L 190 144 L 226 144 Q 231 145 234 150 L 234 160 L 232 166 L 231 177 L 223 212 L 218 216 L 170 215 L 169 214 L 137 214 L 136 215 L 122 215 L 121 216 L 105 217 L 85 221 L 74 226 L 74 227 Q 78 228 80 226 L 127 227 L 140 230 L 164 225 L 191 223 L 192 222 L 203 222 L 204 221 L 218 222 L 214 224 L 167 228 L 142 233 L 133 231 L 121 231 L 120 230 L 72 230 L 68 231 L 62 239 L 59 250 L 58 287 L 67 287 L 68 288 L 86 288 L 87 289 L 107 289 L 108 290 L 130 290 Q 131 293 138 291 L 140 286 L 139 284 L 139 280 L 143 268 L 143 240 L 142 239 Q 141 235 144 236 L 146 240 Q 145 245 147 247 L 147 256 L 146 257 L 147 262 L 152 253 L 163 247 L 172 245 L 185 245 L 186 244 L 222 245 L 230 247 L 237 251 L 243 258 L 243 222 L 241 220 L 234 213 L 234 203 L 236 198 L 238 182 L 243 158 L 246 151 L 251 149 L 310 149 L 314 150 L 316 155 L 316 164 L 317 165 L 318 196 L 319 197 L 319 221 L 320 222 L 320 253 Q 318 254 319 260 L 309 285 Q 306 290 299 291 L 259 291 L 257 290 L 252 286 L 246 270 L 240 260 L 230 251 L 216 248 L 180 248 L 179 249 L 166 250 L 159 253 Q 147 262 143 280 Q 142 283 145 284 L 156 284 L 158 283 L 161 280 L 167 267 Q 171 260 181 258 L 223 258 L 232 262 Q 239 268 243 279 L 252 305 L 289 305 L 290 304 L 307 304 Q 315 275 328 252 Q 332 244 341 241 L 348 239 L 365 239 L 366 238 L 393 239 L 403 243 Q 416 254 419 275 L 420 275 L 420 239 L 419 238 L 419 225 L 418 224 L 417 206 L 416 205 L 416 198 L 415 197 L 415 190 L 412 177 L 412 172 L 411 171 L 411 165 L 404 146 Q 401 141 395 139 L 377 138 L 376 137 L 337 137 L 336 136 L 206 136 Z M 186 148 L 185 149 L 167 150 L 159 153 L 153 161 L 148 175 L 140 204 L 140 210 L 192 211 L 193 212 L 209 212 L 210 213 L 218 212 L 220 210 L 222 203 L 231 155 L 230 151 L 227 148 L 186 148 Z M 251 153 L 248 154 L 246 160 L 240 191 L 241 196 L 245 194 L 247 190 L 250 170 L 253 163 L 257 160 L 262 159 L 297 159 L 303 161 L 306 166 L 307 171 L 308 204 L 309 205 L 308 215 L 303 219 L 264 219 L 257 223 L 246 222 L 247 229 L 247 262 L 246 263 L 256 286 L 262 288 L 301 287 L 303 286 L 307 282 L 316 257 L 316 211 L 315 210 L 315 190 L 314 189 L 313 160 L 312 159 Q 313 153 312 153 L 251 153 Z M 259 163 L 257 164 L 253 173 L 250 192 Q 258 191 263 194 L 265 197 L 267 203 L 267 212 L 266 213 L 267 216 L 268 215 L 303 215 L 305 213 L 304 180 L 303 179 Q 304 170 302 166 L 299 163 L 259 163 Z M 426 168 L 420 170 L 426 172 L 433 181 Q 435 185 437 182 L 456 182 L 457 183 L 462 183 L 459 178 Q 455 171 446 169 L 426 168 Z M 417 172 L 418 180 L 421 209 L 422 210 L 422 218 L 423 219 L 423 230 L 424 231 L 424 264 L 424 266 Q 423 269 429 267 Q 434 259 437 249 L 439 238 L 439 230 L 440 229 L 440 215 L 439 214 L 438 201 Q 435 188 428 179 Q 425 173 417 172 Z M 437 185 Q 441 193 442 205 L 445 204 L 457 204 L 469 206 L 465 189 L 462 186 L 437 185 Z M 250 196 L 242 199 L 239 202 L 237 208 L 238 213 Q 241 218 249 219 Q 256 221 260 218 L 262 216 L 263 212 Q 264 203 262 199 Q 259 194 250 196 Z M 448 207 L 447 208 L 443 209 L 443 231 L 448 232 L 469 232 L 470 231 L 470 209 L 466 208 L 451 208 L 448 207 Z M 443 234 L 439 254 L 445 255 L 464 254 L 467 247 L 469 235 L 447 235 L 443 234 Z M 354 242 Q 352 245 346 243 L 337 247 Q 329 255 324 267 L 310 303 L 312 304 L 320 304 L 325 299 L 343 262 L 352 255 L 363 253 L 389 253 L 399 256 L 405 264 L 410 278 L 414 282 L 418 281 L 413 265 L 407 253 Q 403 245 394 243 Q 388 245 387 242 L 354 242 Z M 54 247 L 49 253 L 48 265 L 47 266 L 47 280 L 48 281 L 48 286 L 54 286 L 54 258 L 56 248 L 54 247 Z M 366 257 L 365 258 L 355 258 L 351 260 Q 343 265 341 275 Q 350 270 363 267 L 383 267 Q 395 269 404 276 L 406 278 L 405 273 L 400 263 L 394 258 L 366 257 Z M 437 257 L 433 267 L 436 268 L 438 272 Q 447 272 454 268 Q 459 264 461 258 L 441 258 L 437 257 Z M 183 262 L 174 265 Q 168 270 166 278 L 177 273 L 190 270 Q 214 269 227 279 Q 239 288 245 304 L 248 317 L 248 323 L 313 322 L 315 321 L 316 320 L 318 308 L 249 309 Q 245 288 235 272 L 228 264 L 221 262 L 183 262 Z M 368 271 L 352 275 L 352 276 L 355 275 L 361 276 L 367 281 L 366 284 Q 361 277 348 279 L 348 277 L 339 283 Q 333 287 331 295 L 332 297 L 339 294 L 344 294 L 350 296 L 349 300 L 345 298 L 338 298 L 326 304 Q 327 306 325 305 L 323 307 L 320 320 L 321 337 L 325 349 L 331 357 L 331 356 Q 336 348 347 346 Q 348 343 350 348 L 342 351 L 332 359 L 334 362 Q 341 369 352 372 Q 361 369 367 362 L 368 365 L 357 374 L 365 375 L 376 375 L 388 372 L 390 370 L 391 363 L 393 361 L 394 363 L 395 369 L 404 363 L 413 351 L 410 348 L 408 344 Q 413 343 415 347 L 419 336 L 420 321 L 418 322 Q 413 324 414 320 L 420 317 Q 419 302 413 292 L 410 296 Q 411 299 407 297 L 409 291 Q 410 286 407 285 Q 401 277 391 274 L 389 275 L 391 278 Q 393 283 389 282 L 386 276 Q 381 269 368 271 Z M 424 271 L 424 281 L 436 281 L 435 274 L 433 271 L 424 271 Z M 186 275 L 178 278 Q 191 277 195 285 L 194 288 Q 190 283 183 281 Q 176 282 177 280 L 178 278 L 167 283 L 153 298 L 154 299 L 161 296 Q 171 294 176 299 Q 178 298 177 302 L 171 300 Q 159 299 153 302 L 153 299 L 148 308 L 145 320 Q 143 344 153 356 L 159 351 L 173 348 L 174 351 L 173 352 L 159 355 L 154 359 L 157 363 Q 163 369 173 373 L 186 368 L 189 365 Q 192 364 191 368 Q 187 374 178 375 L 190 377 L 200 377 L 214 374 L 216 370 L 215 366 L 218 364 Q 220 366 220 371 L 225 368 Q 232 363 236 355 L 234 353 L 232 349 Q 236 348 238 351 L 242 343 L 244 328 L 240 329 L 238 325 L 244 323 L 242 310 L 238 300 L 236 304 L 232 303 L 235 298 Q 236 293 233 292 Q 228 284 219 280 L 217 280 L 219 287 L 215 288 L 214 281 Q 211 276 205 275 L 186 275 Z M 414 285 L 419 295 L 423 309 L 425 310 L 440 308 L 442 303 Q 444 292 441 287 L 440 285 L 414 285 Z M 144 287 L 142 290 Q 141 293 144 292 L 148 299 L 155 289 L 145 288 L 144 287 Z M 45 290 L 42 293 L 42 310 L 43 312 L 47 314 Q 53 312 55 315 L 79 316 L 80 317 L 96 317 L 97 318 L 111 318 L 112 319 L 130 319 L 131 320 L 139 319 L 142 315 L 142 307 L 143 306 L 142 297 L 141 295 L 130 295 L 129 294 L 84 293 L 83 292 L 66 292 L 65 291 L 45 290 Z M 52 319 Q 51 328 53 333 L 60 336 L 68 336 L 69 335 L 70 339 L 67 340 Q 60 341 57 338 L 55 339 L 60 348 L 69 355 Q 79 356 84 352 L 85 355 Q 82 359 74 359 L 89 363 L 108 362 L 123 354 Q 133 345 137 330 L 137 324 L 123 324 L 118 336 L 112 341 L 102 344 L 92 341 Q 82 335 81 321 L 52 319 Z M 85 321 Q 84 329 88 333 Q 91 338 99 340 Q 107 341 112 337 Q 118 332 119 323 L 89 322 L 85 321 Z M 302 326 L 295 338 Q 290 343 282 345 L 277 345 L 269 342 Q 261 338 259 330 L 259 328 L 248 328 L 248 335 L 247 336 L 247 340 L 251 347 Q 257 356 271 358 L 289 358 L 303 351 Q 312 343 315 329 L 315 326 L 304 326 L 302 326 Z M 263 327 L 266 336 L 275 341 Q 285 343 290 338 L 296 330 L 296 327 L 263 327 Z " /><path fill="rgb(0,0,0)" stroke="rgb(0,0,0)" stroke-width="0" opacity="1" d="M 333.5 153 L 387.5 153 L 395.5 156 L 398 158.5 L 401 164.5 L 404 178.5 L 408 209.5 L 404.5 217 L 400.5 219 L 335.5 219 L 330 214.5 L 328 207.5 L 328 192.5 L 327 191.5 L 327 178.5 L 326 177.5 L 326 159.5 L 329.5 155 L 333.5 153 Z M 334 157 L 332 158 L 329 164 L 330 167 L 332 210 L 336 215 L 401 215 L 403 214 L 404 212 L 404 205 L 403 204 L 400 177 L 395 161 L 390 157 L 334 157 Z " /><path fill="rgb(0,0,0)" stroke="rgb(0,0,0)" stroke-width="0" opacity="1" d="M 167.5 161 Q 174.8 159.8 176 164.5 Q 176.9 167.5 172.5 166 L 168.5 165 L 161 169 Q 161.5 164.3 165.5 162 L 167.5 161 Z " /><path fill="rgb(0,0,0)" stroke="rgb(0,0,0)" stroke-width="0" opacity="1" d="M 204.5 161 Q 211.4 160.1 213 164.5 L 214 170 Q 211.3 171.1 212 168.5 L 204.5 165 L 200.5 167 L 199 165.5 L 202.5 162 L 204.5 161 Z " /><path fill="rgb(0,0,0)" stroke="rgb(0,0,0)" stroke-width="0" opacity="1" d="M 164.5 176 Q 172.8 174.7 175 179.5 Q 178.3 183.2 177 191.5 Q 175.3 200.8 168.5 205 L 160.5 206 L 155 201.5 L 154 190.5 Q 155.5 182 161.5 178 L 164.5 176 Z M 165 179 Q 159 182 157 190 Q 156 197 158 201 L 162 203 L 160 201 Q 159 191 162 188 L 169 183 L 172 184 L 174 186 L 173 182 Q 171 178 165 179 Z M 171 187 L 170 188 L 168 188 L 168 193 L 172 192 Q 173 188 171 187 Z " /><path fill="rgb(0,0,0)" stroke="rgb(0,0,0)" stroke-width="0" opacity="1" d="M 201.5 176 Q 208.8 176.3 211 181.5 Q 213.7 184.8 213 191.5 Q 211.5 201.5 204.5 206 Q 202.2 208.7 196.5 208 L 189 202.5 Q 186.3 198.7 188 190.5 Q 190.2 182.2 196.5 178 L 201.5 176 Z M 202 179 L 199 180 L 193 186 L 190 195 L 191 201 L 193 204 L 196 205 L 197 205 L 194 200 Q 193 193 196 190 L 203 184 L 207 185 L 210 188 L 209 184 Q 207 179 202 179 Z M 203 189 Q 201 196 207 194 Q 209 187 203 189 Z " /><path fill="rgb(0,0,0)" stroke="rgb(0,0,0)" stroke-width="0" opacity="1" d="M 293.5 229 L 307.5 229 L 310 231.5 L 311 236.5 L 310 239 Q 305.5 242.6 294.5 241 L 290 237.5 Q 288.8 230.3 293.5 229 Z M 295 232 L 293 236 L 295 237 L 307 237 L 307 232 L 295 232 Z " /><path fill="rgb(0,0,0)" stroke="rgb(0,0,0)" stroke-width="0" opacity="1" d="M 70.5 241 Q 77.4 240.1 79 244.5 Q 82.6 249.9 81 260.5 Q 79.6 268.6 73.5 272 Q 67 273 65 269.5 Q 60.7 264.4 62 253.5 Q 63.2 245.7 68.5 242 L 70.5 241 Z M 73 244 L 71 245 L 66 252 Q 67 256 65 258 L 66 265 L 70 269 L 74 268 L 77 263 L 78 258 Q 79 250 76 247 L 73 244 Z " /><path fill="rgb(0,0,0)" stroke="rgb(0,0,0)" stroke-width="0" opacity="1" d="M 123.5 242 Q 131.1 240.9 133 245.5 Q 137.8 250.7 136 262.5 Q 134.2 270.1 128.5 274 L 121.5 275 L 117 271.5 Q 112.7 266.4 114 255.5 Q 115.5 247 121.5 243 L 123.5 242 Z M 126 245 L 124 246 L 118 254 Q 116 264 120 270 L 125 272 L 127 271 L 130 268 L 133 259 L 131 249 L 126 245 Z " /><path fill="rgb(0,0,0)" stroke="rgb(0,0,0)" stroke-width="0" opacity="1" d="M 80 270 Q 84.1 268.3 83 272.5 L 87.5 278 Q 91.2 281.3 99.5 280 L 109 273.5 L 108 271.5 L 110.5 270 L 114 275 L 111.5 275 L 101.5 283 L 92.5 284 L 83 278.5 L 80 270 Z " /><path fill="rgb(0,0,0)" stroke="rgb(0,0,0)" stroke-width="0" opacity="1" d="M 376.5 297 Q 392.1 296.4 397 306.5 L 401 316.5 L 401 326.5 Q 398.8 337.8 391.5 344 Q 386.5 349.5 374.5 348 L 365 343 L 359 332.5 L 358 318.5 Q 360.5 305 370.5 299 L 376.5 297 Z M 376 301 L 372 303 Q 364 308 362 318 L 362 330 L 367 340 L 374 344 Q 378 343 380 345 L 385 344 L 390 341 Q 395 336 397 329 Q 399 315 394 309 L 385 301 L 376 301 Z " /><path fill="rgb(0,0,0)" stroke="rgb(0,0,0)" stroke-width="0" opacity="1" d="M 199.5 302 L 209.5 302 L 218 307.5 L 223 315.5 L 225 326.5 L 222 339.5 L 213.5 349 Q 208.7 353.2 198.5 352 Q 189.9 349.6 186 342.5 Q 182 336.5 182 326.5 L 185 314.5 L 190 307 L 199.5 302 Z M 204 305 L 197 307 Q 188 312 186 324 Q 185 335 189 341 L 199 348 Q 208 350 212 346 L 217 341 L 220 335 Q 219 330 221 329 Q 221 319 218 314 Q 214 306 204 305 Z " /><path fill="rgb(0,0,0)" stroke="rgb(0,0,0)" stroke-width="0" opacity="1" d="M 377.5 313 L 381.5 313 L 385 315 Q 387.9 317.9 387 325.5 L 381.5 332 Q 375 333 373 329.5 Q 369.6 326.9 371 319.5 L 375.5 314 L 377.5 313 Z M 379 316 L 376 317 L 374 322 Q 374 327 378 329 L 382 328 L 384 324 L 383 319 L 379 316 Z " /><path fill="rgb(0,0,0)" stroke="rgb(0,0,0)" stroke-width="0" opacity="1" d="M 201.5 317 Q 207.7 316.3 209 320.5 Q 211.3 323.7 210 330.5 L 205.5 336 L 202.5 337 L 196 332.5 L 195 323.5 L 199.5 318 L 201.5 317 Z M 201 321 L 198 325 Q 197 330 199 332 L 204 333 Q 209 332 207 324 Q 206 320 201 321 Z " /><path fill="rgb(0,0,0)" stroke="rgb(0,0,0)" stroke-width="0" opacity="1" d="M 336.5 320 Q 342.5 318.5 344 321.5 L 342.5 324 L 335.5 324 Q 328.4 326.4 324.5 332 L 322 332 L 322 329.5 L 327.5 324 L 336.5 320 Z " /><path fill="rgb(0,0,0)" stroke="rgb(0,0,0)" stroke-width="0" opacity="1" d="M 156.5 322 Q 166.1 320.6 170 323 L 168.5 326 L 156.5 326 L 148.5 331 L 146 331 Q 145.3 327.2 148.5 326 L 156.5 322 Z " /></svg>