<svg width="627" height="627" preserveAspectRatio="xMidYMid meet" viewBox="0 0 512 512" version="1.1" xmlns="http://www.w3.org/2000/svg" ><path fill="rgb(255,255,255)" stroke="rgb(255,255,255)" stroke-width="0" opacity="1" d="M 0 0 L 512 0 L 512 512 L 0 512 L 0 0 Z M 137 80 L 136 81 L 123 82 L 114 87 L 108 94 L 102 110 L 66 236 L 64 237 Q 59 241 57 248 L 57 260 L 58 261 L 55 265 L 53 278 L 47 281 L 34 296 L 29 313 Q 28 341 41 356 Q 49 365 62 370 L 78 374 L 105 377 L 106 378 L 125 378 L 126 377 L 137 376 L 160 369 L 167 365 L 171 360 Q 172 353 169 351 L 166 348 L 157 348 L 156 349 L 142 326 L 135 303 L 132 288 L 132 282 L 129 274 L 121 267 L 106 265 L 107 263 L 107 252 L 106 251 L 149 153 L 186 185 L 196 198 L 212 249 L 206 259 L 202 276 L 201 293 L 200 294 L 200 312 L 202 318 Q 205 324 214 325 L 255 327 L 265 330 Q 268 329 267 332 L 259 332 L 258 331 L 239 331 L 238 330 L 207 331 L 193 335 L 185 340 Q 173 350 170 369 L 171 388 L 176 399 L 189 409 L 204 412 L 213 412 L 214 413 L 237 413 L 238 412 L 250 411 L 262 408 L 284 405 L 289 416 Q 295 424 307 427 L 332 430 L 333 431 L 340 431 L 341 432 L 363 432 L 412 423 L 417 423 L 428 420 L 453 416 L 466 410 L 476 399 L 482 385 L 484 375 L 484 361 L 482 352 L 475 339 L 468 334 L 455 331 L 421 331 L 420 332 L 412 332 L 411 330 L 413 328 L 457 325 L 465 322 L 470 314 L 470 273 L 468 262 L 465 256 Q 462 249 454 248 L 450 242 L 443 237 L 427 235 L 425 186 L 423 175 L 420 168 L 410 159 L 389 154 Q 391 143 385 138 Q 381 133 375 132 L 370 132 L 364 134 Q 355 139 355 152 L 354 151 L 332 151 Q 333 144 329 140 L 324 134 L 316 132 L 309 133 L 304 136 L 298 145 L 297 154 Q 284 155 277 162 Q 264 175 260 196 L 251 173 L 243 159 L 230 146 L 169 104 L 166 102 L 163 91 Q 157 78 137 80 Z " /><path fill="rgb(255,255,255)" stroke="rgb(255,255,255)" stroke-width="0" opacity="1" d="M 126.5 86 L 134 86.5 L 130 89.5 L 124 101.5 L 124 105.5 L 110 147.5 L 108 157.5 L 103 170.5 L 84 237 L 71 236 L 107 109.5 L 112 96.5 L 118.5 89 L 126.5 86 Z " /><path fill="rgb(255,255,255)" stroke="rgb(255,255,255)" stroke-width="0" opacity="1" d="M 142.5 86 Q 154.7 84.3 158 91.5 Q 164.1 99.9 162 116.5 L 158 127.5 L 153.5 132 L 144.5 133 L 134 126.5 Q 126.8 119.7 129 103.5 Q 131.1 93.1 138.5 88 L 142.5 86 Z M 146 96 L 142 98 L 137 105 Q 135 114 139 119 L 146 123 L 152 121 L 156 115 L 156 104 L 155 102 Q 152 97 146 96 Z " /><path fill="rgb(255,255,255)" stroke="rgb(255,255,255)" stroke-width="0" opacity="1" d="M 145.5 100 Q 150.3 100.3 152 103.5 L 153 112.5 L 149.5 118 L 145.5 119 L 142 116.5 Q 139.4 113.6 140 107.5 L 143.5 101 L 145.5 100 Z " /><path fill="rgb(255,255,255)" stroke="rgb(255,255,255)" stroke-width="0" opacity="1" d="M 167 109 L 224.5 148 L 237 158.5 L 246 172.5 L 257 202.5 L 257 206.5 L 250 236.5 L 245.5 275 L 222 197.5 Q 216.6 182.9 204.5 175 L 155 135.5 L 160 131.5 L 165 121.5 L 167 109 Z " /><path fill="rgb(255,255,255)" stroke="rgb(255,255,255)" stroke-width="0" opacity="1" d="M 124.5 115 Q 126.3 126.2 133.5 132 Q 139.3 137.3 150 137.5 L 103.5 244 Q 99.3 236 88 236 L 124.5 115 Z " /><path fill="rgb(255,255,255)" stroke="rgb(255,255,255)" stroke-width="0" opacity="1" d="M 312.5 137 Q 321.5 136.5 325 141.5 Q 328.2 145 327 152 L 308.5 152 L 302 153 Q 301.3 142.1 308.5 138 L 312.5 137 Z " /><path fill="rgb(255,255,255)" stroke="rgb(255,255,255)" stroke-width="0" opacity="1" d="M 368.5 137 Q 379.8 135.7 383 142.5 L 385 152.5 Q 383.8 155.3 382.5 153 L 360 152 Q 359.2 142.9 364.5 139 L 368.5 137 Z " /><path fill="rgb(255,255,255)" stroke="rgb(255,255,255)" stroke-width="0" opacity="1" d="M 154.5 139 L 202.5 178 L 213 188.5 L 218 197.5 L 224 215.5 L 245 288 L 227 287 L 218 251.5 L 201 197.5 Q 195.9 186.6 186.5 180 L 150 148.5 L 154.5 139 Z " /><path fill="rgb(255,255,255)" stroke="rgb(255,255,255)" stroke-width="0" opacity="1" d="M 317.5 156 L 362.5 156 L 363.5 157 L 385.5 158 L 404.5 162 L 415 168.5 L 419 177.5 L 420 194.5 L 421 195.5 L 422 239.5 L 423 240.5 L 423 285.5 L 422 286.5 L 422 298.5 L 418.5 303 Q 415 305.5 407.5 304 L 406.5 305 L 372.5 306 L 368 302.5 L 367 289.5 L 368 288.5 L 368 265.5 L 369 260 L 395.5 251 L 408.5 248 L 413 243.5 L 414 241.5 L 414 209.5 L 413 208.5 L 413 188.5 Q 410.5 187 412 181.5 L 406.5 174 L 395.5 171 L 382.5 171 L 375 176.5 L 372 183.5 L 369 211.5 L 368 212.5 L 368 221.5 L 367 222.5 L 365 261.5 L 364 262.5 L 363 298.5 L 367.5 308 L 371.5 310 L 392.5 310 L 393.5 309 L 417.5 308 L 425 302.5 L 427 293.5 L 427 248 L 449.5 251 Q 456.3 252.3 460 256.5 L 463 261.5 L 465 270.5 L 466 302.5 L 465 303.5 L 465 312.5 L 460.5 319 L 450.5 321 L 438.5 321 L 437.5 322 L 425.5 322 L 424.5 323 L 412.5 323 L 411.5 324 L 397.5 324 L 396.5 325 L 382.5 325 L 381.5 326 L 366.5 326 L 365.5 327 L 312.5 327 L 311.5 326 L 261.5 325 Q 255.8 323.8 253 319.5 L 250 305.5 L 250 276.5 L 251 275.5 L 251 263.5 L 252 262.5 L 253 246.5 L 262 202.5 L 272 174.5 L 281.5 164 L 292.5 159 L 303.5 158 L 304.5 157 L 316.5 157 L 317.5 156 Z M 297 168 L 286 170 L 280 173 L 273 184 L 264 217 L 260 239 L 259 253 L 258 254 L 258 264 L 257 265 L 257 299 L 258 302 L 265 307 Q 273 310 286 308 L 287 309 L 345 309 L 348 308 Q 353 305 354 298 L 356 249 L 357 248 L 357 236 L 358 235 L 361 195 L 363 186 L 363 175 L 359 170 L 348 169 L 347 168 L 297 168 Z M 406 257 Q 404 260 399 258 L 394 264 Q 393 270 398 272 Q 407 274 413 271 Q 417 269 415 261 Q 413 256 406 257 Z M 441 274 L 438 275 L 434 281 L 434 303 L 438 306 Q 448 307 456 305 L 459 302 L 459 278 L 455 274 L 441 274 Z " /><path fill="rgb(255,255,255)" stroke="rgb(255,255,255)" stroke-width="0" opacity="1" d="M 301.5 172 L 342.5 172 L 343.5 173 L 353.5 173 L 359 176.5 L 357 203.5 L 355 212.5 L 355 222.5 L 354 223.5 L 354 233.5 L 353 234.5 L 350 296.5 L 348 303 L 342.5 305 L 298.5 305 L 297.5 304 L 271.5 304 Q 270.3 301.8 265.5 303 L 262 299.5 L 261 296.5 L 261 267.5 L 262 266.5 L 262 256.5 L 263 255.5 L 265 233.5 L 270 209.5 L 276 187.5 L 282.5 176 L 287.5 174 L 300.5 173 L 301.5 172 Z M 290 191 L 287 192 Q 281 195 281 201 L 289 197 L 298 198 L 297 194 Q 295 190 290 191 Z M 336 191 L 333 192 Q 328 193 329 198 L 334 197 Q 342 196 344 201 L 347 200 L 345 196 Q 342 191 336 191 Z M 286 211 L 284 212 Q 276 217 274 229 L 274 235 L 277 243 L 284 248 Q 290 249 294 247 Q 300 243 302 235 Q 304 221 298 215 Q 295 209 286 211 Z M 332 211 L 329 212 Q 320 217 318 230 L 318 235 L 321 244 L 329 249 Q 335 250 339 248 L 346 240 L 348 231 L 345 218 Q 342 210 332 211 Z M 326 266 L 324 268 L 325 270 L 323 274 Q 318 281 307 283 L 303 283 L 294 280 Q 287 276 286 267 L 282 270 L 285 277 Q 290 285 302 287 Q 313 287 320 282 L 326 275 Q 328 270 330 273 L 332 272 L 326 266 Z " /><path fill="rgb(255,255,255)" stroke="rgb(255,255,255)" stroke-width="0" opacity="1" d="M 383.5 175 L 399.5 176 L 407 180.5 Q 409.5 184 408 191.5 L 409 192.5 L 410 239.5 L 409 243 L 369.5 256 L 369 246.5 L 370 245.5 L 370 234.5 L 371 233.5 L 371 223.5 L 372 222.5 L 375 190.5 L 377 181.5 L 381.5 176 L 383.5 175 Z " /><path fill="rgb(255,255,255)" stroke="rgb(255,255,255)" stroke-width="0" opacity="1" d="M 286.5 214 Q 294.8 212.7 297 217.5 L 299 222.5 L 298 222.5 L 296.5 220 L 290.5 219 L 284 224.5 Q 281 228.5 282 236.5 L 285 244 L 288 245.5 L 286.5 246 L 279 240.5 Q 275.9 236.1 277 227.5 Q 278.5 219 284.5 215 L 286.5 214 Z " /><path fill="rgb(255,255,255)" stroke="rgb(255,255,255)" stroke-width="0" opacity="1" d="M 331.5 214 L 336.5 214 L 343 219.5 L 345 224.5 L 343 223.5 Q 343.8 221.3 341.5 222 Q 340 218.5 333.5 220 Q 325.4 223.9 326 236.5 Q 327 243.5 332 246.5 L 330.5 247 L 323 241.5 Q 319.9 237.1 321 228.5 Q 322.7 220.7 327.5 216 L 331.5 214 Z " /><path fill="rgb(255,255,255)" stroke="rgb(255,255,255)" stroke-width="0" opacity="1" d="M 293.5 224 L 297 225.5 Q 298 230 295.5 231 L 292 229.5 Q 291 225 293.5 224 Z " /><path fill="rgb(255,255,255)" stroke="rgb(255,255,255)" stroke-width="0" opacity="1" d="M 337 225 Q 340.8 224 342 226.5 Q 343 231 340.5 232 Q 336.1 233.5 337 230.5 L 336 227.5 L 337 225 Z " /><path fill="rgb(255,255,255)" stroke="rgb(255,255,255)" stroke-width="0" opacity="1" d="M 67.5 240 L 76.5 240 L 77.5 241 L 79 240.5 Q 70.2 246.2 73 263.5 L 75 269 L 68.5 268 L 65 266 Q 61.2 261 61 251.5 L 63 244.5 L 67.5 240 Z " /><path fill="rgb(255,255,255)" stroke="rgb(255,255,255)" stroke-width="0" opacity="1" d="M 89.5 240 Q 97.6 240.4 100 246.5 Q 104 251.5 102 262.5 Q 99.3 271.8 91.5 276 L 81 284.5 L 81.5 287 L 103 270.5 Q 102.3 268.3 104.5 269 L 112 270.5 Q 106.4 275.2 108 286 L 96 294.5 Q 89.4 301.4 86 311.5 L 84 320.5 L 84 336.5 L 86 346.5 L 91 357.5 L 101.5 369 L 108 372.5 L 104.5 373 L 103.5 372 L 76.5 369 L 61.5 365 Q 50.2 359.8 43 350.5 Q 32.2 337.3 34 311.5 L 36 302.5 L 40 294.5 L 46.5 287 L 53.5 282 L 57 284 L 58 271.5 L 60.5 265 Q 62.8 265.8 62 269.5 L 61 270.5 L 61 280.5 L 59 286 L 61.5 287 L 78 288 L 79 265.5 Q 75.3 261.2 77 251.5 Q 78.5 245 83.5 242 L 89.5 240 Z M 90 247 L 85 249 L 83 253 Q 81 263 88 266 L 95 265 L 98 260 Q 99 252 96 249 L 93 247 L 90 247 Z " /><path fill="rgb(255,255,255)" stroke="rgb(255,255,255)" stroke-width="0" opacity="1" d="M 427 240 L 440.5 241 L 447 245.5 L 442.5 246 L 435.5 244 L 428.5 244 L 427 242.5 L 427 240 Z " /><path fill="rgb(255,255,255)" stroke="rgb(255,255,255)" stroke-width="0" opacity="1" d="M 88.5 251 Q 93 250 94 252.5 L 95 258.5 L 91.5 263 Q 87.5 263.5 87 260.5 L 86 255.5 L 88.5 251 Z " /><path fill="rgb(255,255,255)" stroke="rgb(255,255,255)" stroke-width="0" opacity="1" d="M 213.5 254 L 223 285.5 L 223 289.5 L 225.5 292 L 244.5 292 Q 245.8 292.3 245 298.5 L 246 304 L 239.5 304 L 238.5 303 L 217.5 303 L 205 301 L 207 274.5 L 210 261.5 L 213.5 254 Z " /><path fill="rgb(255,255,255)" stroke="rgb(255,255,255)" stroke-width="0" opacity="1" d="M 402.5 261 L 410.5 261 L 412 262.5 Q 413 267 410.5 268 L 399.5 269 Q 397 268 398 263.5 L 402.5 261 Z " /><path fill="rgb(255,255,255)" stroke="rgb(255,255,255)" stroke-width="0" opacity="1" d="M 65 271 Q 68.2 273.9 75 273 Q 73 276.4 73.5 284 Q 71.8 281.2 65.5 283 L 64 281.5 L 65 271 Z " /><path fill="rgb(255,255,255)" stroke="rgb(255,255,255)" stroke-width="0" opacity="1" d="M 115.5 271 L 125 275.5 L 127 280.5 L 129 297.5 L 136 322.5 Q 142.3 341.2 154.5 354 L 162.5 352 L 166 354.5 L 165 361 L 154.5 366 L 148.5 366 L 136 354.5 Q 126.8 342.2 121 326.5 L 112 295.5 L 111 279.5 L 115.5 271 Z " /><path fill="rgb(255,255,255)" stroke="rgb(255,255,255)" stroke-width="0" opacity="1" d="M 453.5 277 Q 457 278 456 283.5 L 454.5 283 L 452.5 284 L 437.5 284 L 438 282.5 Q 437.3 278.8 439.5 278 L 452.5 278 L 453.5 277 Z " /><path fill="rgb(255,255,255)" stroke="rgb(255,255,255)" stroke-width="0" opacity="1" d="M 437 287 L 455.5 287 L 456 292 L 437 293 L 437 287 Z " /><path fill="rgb(255,255,255)" stroke="rgb(255,255,255)" stroke-width="0" opacity="1" d="M 106.5 290 Q 108.8 289.3 108 291.5 Q 112.5 317 122 337.5 Q 129.3 353.7 141.5 365 L 146 367.5 L 137.5 371 L 119.5 373 L 111.5 371 L 100 364 L 94 355.5 L 89 343.5 L 88 338.5 L 88 318.5 Q 91.5 302 102.5 293 L 106.5 290 Z " /><path fill="rgb(255,255,255)" stroke="rgb(255,255,255)" stroke-width="0" opacity="1" d="M 455.5 295 L 456 300.5 L 454.5 302 L 439.5 303 Q 435.8 301.5 437 296 L 454.5 296 L 455.5 295 Z " /><path fill="rgb(255,255,255)" stroke="rgb(255,255,255)" stroke-width="0" opacity="1" d="M 205 305 L 207.5 306 L 219.5 306 L 220.5 307 L 246 307 L 247 316.5 L 250 321.5 L 232.5 322 L 231.5 321 L 212.5 320 L 207 316.5 Q 203.7 312.6 205 305 Z " /><path fill="rgb(255,255,255)" stroke="rgb(255,255,255)" stroke-width="0" opacity="1" d="M 392.5 329 L 406.5 329 L 407 331.5 L 405.5 333 L 393.5 333 L 392.5 334 L 379.5 334 L 378.5 335 L 367.5 335 L 366.5 336 L 355.5 336 L 354.5 337 L 330.5 338 L 329.5 339 L 317.5 340 L 313.5 342 L 287.5 342 L 286.5 341 L 273.5 341 L 272 339.5 L 272 330 L 287.5 330 L 288.5 331 L 361.5 332 L 362.5 331 L 391.5 330 L 392.5 329 Z " /><path fill="rgb(255,255,255)" stroke="rgb(255,255,255)" stroke-width="0" opacity="1" d="M 212.5 335 L 225.5 335 L 240 337.5 Q 229.7 338.2 223.5 343 L 214.5 343 L 213.5 342 L 200.5 342 L 192 340.5 L 200.5 337 L 211.5 336 L 212.5 335 Z " /><path fill="rgb(255,255,255)" stroke="rgb(255,255,255)" stroke-width="0" opacity="1" d="M 241.5 335 L 256 335.5 L 245.5 337 L 241.5 336 L 241.5 335 Z " /><path fill="rgb(255,255,255)" stroke="rgb(255,255,255)" stroke-width="0" opacity="1" d="M 412.5 336 L 429.5 337 L 434 338.5 L 409.5 342 L 406.5 340 L 396 337.5 L 411.5 337 L 412.5 336 Z " /><path fill="rgb(255,255,255)" stroke="rgb(255,255,255)" stroke-width="0" opacity="1" d="M 435.5 336 L 458 336.5 L 450.5 338 L 438.5 338 L 435.5 337 L 435.5 336 Z " /><path fill="rgb(255,255,255)" stroke="rgb(255,255,255)" stroke-width="0" opacity="1" d="M 262.5 338 Q 267.9 336.1 267 339.5 Q 269.3 340.8 266.5 342 L 259.5 342 L 258.5 343 L 234.5 346 Q 224.3 348.8 219 356.5 L 215 363.5 L 213 371.5 L 213 384.5 Q 215 396.5 223.5 402 L 233.5 405 L 234.5 404 L 241.5 404 L 283 397 Q 284.7 401.1 280.5 400 L 244.5 407 L 226.5 408 Q 218.6 405.9 215 399.5 Q 207.6 389.4 210 369.5 Q 213.2 353.7 224.5 346 L 234.5 342 L 261.5 339 L 262.5 338 Z " /><path fill="rgb(255,255,255)" stroke="rgb(255,255,255)" stroke-width="0" opacity="1" d="M 373.5 339 L 391.5 339 L 403 341.5 L 401.5 343 L 377.5 345 L 375.5 343 L 360 340.5 L 372.5 340 L 373.5 339 Z " /><path fill="rgb(255,255,255)" stroke="rgb(255,255,255)" stroke-width="0" opacity="1" d="M 446.5 341 L 465.5 341 Q 472 342.5 475 347.5 Q 481.4 357.6 479 376.5 Q 476 395 464.5 405 L 458.5 409 L 439.5 414 L 422.5 416 L 411.5 419 L 388.5 422 L 376.5 425 L 363.5 426 L 362.5 427 L 347.5 427 Q 338.4 424.5 334 417.5 L 329 406.5 L 328 387.5 L 331 374.5 L 340 360 Q 348 353.7 360.5 351 L 367.5 351 L 368.5 350 L 389.5 348 L 390.5 347 L 398.5 347 L 399.5 346 L 407.5 346 L 408.5 345 L 417.5 345 L 426.5 343 L 434.5 343 L 435.5 342 L 445.5 342 L 446.5 341 Z M 454 344 L 453 345 L 415 348 L 414 349 L 407 349 L 406 350 L 399 350 L 391 352 L 383 352 L 382 353 L 363 355 L 354 357 L 344 363 L 335 375 L 332 384 L 332 392 L 331 393 L 332 404 L 337 415 Q 342 422 353 424 L 361 424 L 411 415 L 417 415 L 428 412 L 449 409 L 460 405 L 472 391 L 476 379 Q 474 372 477 371 L 475 356 L 472 351 Q 467 343 454 344 Z " /><path fill="rgb(255,255,255)" stroke="rgb(255,255,255)" stroke-width="0" opacity="1" d="M 334.5 342 L 353.5 342 L 354.5 343 L 362.5 343 L 374 345.5 L 349.5 350 L 348.5 349 L 313 346.5 L 320.5 344 L 333.5 343 L 334.5 342 Z " /><path fill="rgb(255,255,255)" stroke="rgb(255,255,255)" stroke-width="0" opacity="1" d="M 187.5 344 L 210.5 345 L 219 346.5 L 210.5 357 L 209.5 356 L 180 354 Q 181.8 347.7 187.5 344 Z " /><path fill="rgb(255,255,255)" stroke="rgb(255,255,255)" stroke-width="0" opacity="1" d="M 268.5 345 L 303 346.5 L 291 356.5 L 285 368.5 L 283 375.5 L 283 380.5 L 281.5 382 L 254.5 382 L 249 383 Q 250.7 379.6 250 372.5 Q 248.1 364.8 242.5 361 L 233.5 360 L 225 366.5 L 223 370.5 L 222 379.5 L 224 386.5 L 229.5 392 L 235.5 394 Q 243.7 392.7 247.5 387 L 252.5 387 L 258.5 394 L 262 395.5 L 259.5 397 L 241.5 399 L 240.5 400 L 229.5 400 L 220 392.5 L 217 382.5 L 217 373.5 L 222 359.5 L 227.5 354 L 236.5 350 L 261.5 347 L 268.5 345 Z " /><path fill="rgb(255,255,255)" stroke="rgb(255,255,255)" stroke-width="0" opacity="1" d="M 454.5 348 L 464.5 349 L 468 351 Q 472.3 356.4 473 366.5 L 472 366.5 L 471 360.5 L 463.5 352 L 454.5 349 L 454.5 348 Z " /><path fill="rgb(255,255,255)" stroke="rgb(255,255,255)" stroke-width="0" opacity="1" d="M 307.5 349 L 346 352.5 L 333.5 363 L 329.5 363 L 328.5 362 L 317.5 362 L 316.5 361 L 295 359.5 L 300.5 353 L 307.5 349 Z " /><path fill="rgb(255,255,255)" stroke="rgb(255,255,255)" stroke-width="0" opacity="1" d="M 436.5 350 L 448 350.5 L 439.5 356 L 431.5 356 L 430.5 357 L 414.5 358 L 406.5 360 L 381.5 362 L 366.5 365 L 350.5 365 L 347.5 366 L 347.5 365 L 355.5 361 L 364.5 359 L 370.5 359 L 392.5 355 L 417.5 353 L 418.5 352 L 435.5 351 L 436.5 350 Z " /><path fill="rgb(255,255,255)" stroke="rgb(255,255,255)" stroke-width="0" opacity="1" d="M 451.5 353 Q 462.4 352.6 466 359.5 L 469 366.5 L 470 374.5 L 467 386.5 L 459.5 396 L 455.5 398 L 440.5 401 L 428.5 402 L 410.5 406 L 398.5 407 L 354.5 415 L 347.5 415 Q 341.8 413.8 339 409.5 Q 334.1 400.9 336 385.5 L 340 374.5 L 343.5 371 Q 349.2 367.7 359.5 369 L 361.5 370 L 367.5 368 L 382.5 367 L 390.5 365 L 397.5 365 L 398.5 364 L 405.5 364 L 422.5 361 L 430.5 361 L 431.5 360 L 439.5 360 L 451.5 353 Z M 451 364 L 449 365 L 444 370 L 441 379 L 444 389 L 450 393 Q 456 394 459 391 L 464 382 L 463 370 L 458 364 L 451 364 Z M 418 370 L 416 371 Q 410 375 408 383 L 408 388 L 410 394 L 417 399 L 425 398 L 431 389 Q 433 379 429 375 Q 427 369 418 370 Z M 387 374 L 383 376 Q 377 380 376 388 Q 376 395 379 400 L 385 404 L 393 403 Q 398 400 400 393 Q 401 384 398 380 L 392 374 L 387 374 Z M 352 378 L 349 379 L 343 385 L 340 394 L 341 401 L 344 406 L 350 409 L 358 408 Q 363 404 365 398 Q 366 388 363 384 L 356 378 L 352 378 Z " /><path fill="rgb(255,255,255)" stroke="rgb(255,255,255)" stroke-width="0" opacity="1" d="M 178 357 L 196.5 358 L 197.5 359 L 207.5 359 L 209 360.5 L 206 373 L 175 370 L 178 357 Z " /><path fill="rgb(255,255,255)" stroke="rgb(255,255,255)" stroke-width="0" opacity="1" d="M 292 363 L 325.5 365 L 332 366.5 Q 326.7 371.9 326 381 L 288 377 L 292 363 Z " /><path fill="rgb(255,255,255)" stroke="rgb(255,255,255)" stroke-width="0" opacity="1" d="M 233.5 364 Q 241.8 362.7 244 367.5 Q 247.5 371.5 246 380.5 L 239.5 389 L 234.5 390 L 228 385.5 Q 225.1 381.9 226 374.5 Q 226.9 367.9 231.5 365 L 233.5 364 Z " /><path fill="rgb(255,255,255)" stroke="rgb(255,255,255)" stroke-width="0" opacity="1" d="M 451.5 367 L 455.5 367 L 460 371.5 L 461 379.5 L 456.5 388 L 449.5 389 Q 443.6 385.9 445 375.5 L 448 369 L 451.5 367 Z " /><path fill="rgb(255,255,255)" stroke="rgb(255,255,255)" stroke-width="0" opacity="1" d="M 175 373 L 206 376 L 207 389 L 176 386 Q 174 381.4 175 373 Z " /><path fill="rgb(255,255,255)" stroke="rgb(255,255,255)" stroke-width="0" opacity="1" d="M 419.5 373 Q 424.3 373.3 426 376.5 Q 428.6 379.4 428 385.5 Q 427.1 392.1 422.5 395 L 418.5 396 L 413 391.5 Q 410.7 388.3 412 381.5 L 417.5 374 L 419.5 373 Z " /><path fill="rgb(255,255,255)" stroke="rgb(255,255,255)" stroke-width="0" opacity="1" d="M 386.5 378 Q 391.9 377.4 394 379 Q 397 382.2 397 389.5 Q 395.9 396.9 390.5 400 L 387.5 401 L 381 396.5 L 380 385.5 L 384.5 379 L 386.5 378 Z " /><path fill="rgb(255,255,255)" stroke="rgb(255,255,255)" stroke-width="0" opacity="1" d="M 287 380 L 289.5 381 L 325 384 L 325 401 L 317.5 401 L 316.5 400 L 287 397 L 287 380 Z " /><path fill="rgb(255,255,255)" stroke="rgb(255,255,255)" stroke-width="0" opacity="1" d="M 350.5 382 Q 358.5 380.5 360 385.5 Q 362.7 389.3 361 397.5 L 355.5 405 Q 348.3 406.3 346 402.5 Q 343.1 398.9 344 391.5 Q 345.5 385 350.5 382 Z " /><path fill="rgb(255,255,255)" stroke="rgb(255,255,255)" stroke-width="0" opacity="1" d="M 257.5 387 L 273 387.5 L 272 389.5 L 274.5 388 L 282 387 L 282 393 L 277.5 393 L 276.5 394 L 266.5 394 Q 259.3 392.3 257.5 387 Z " /><path fill="rgb(255,255,255)" stroke="rgb(255,255,255)" stroke-width="0" opacity="1" d="M 177 389 L 197.5 391 L 198.5 392 L 207.5 392 L 209 393.5 L 213 401.5 L 209.5 402 L 208.5 401 L 183.5 399 L 181 398 L 177 389 Z " /><path fill="rgb(255,255,255)" stroke="rgb(255,255,255)" stroke-width="0" opacity="1" d="M 288.5 400 L 289.5 401 L 298.5 401 L 299.5 402 L 306.5 402 L 307.5 403 L 326 405 L 326 408.5 L 330 417.5 L 328.5 417 L 299.5 414 Q 298.2 411.7 293.5 413 L 292 411.5 L 288 402.5 L 288.5 400 Z " /><path fill="rgb(255,255,255)" stroke="rgb(255,255,255)" stroke-width="0" opacity="1" d="M 187.5 402 L 198.5 404 L 206.5 404 L 207.5 405 L 215.5 405 L 218 407.5 L 210.5 408 L 209.5 407 L 195.5 406 L 187.5 403 L 187.5 402 Z " /><path fill="rgb(255,255,255)" stroke="rgb(255,255,255)" stroke-width="0" opacity="1" d="M 453.5 402 L 456 402.5 L 439.5 407 L 422.5 409 L 416.5 411 L 411.5 411 L 368.5 419 L 350.5 420 L 350.5 419 L 381.5 415 L 453.5 402 Z " /><path fill="rgb(255,255,255)" stroke="rgb(255,255,255)" stroke-width="0" opacity="1" d="M 297.5 416 L 298.5 417 L 332.5 421 L 337 425.5 L 331.5 426 L 330.5 425 L 323.5 425 L 306.5 422 Q 299.1 420.6 297.5 416 Z " /><path fill="rgb(0,0,0)" stroke="rgb(0,0,0)" stroke-width="0" opacity="1" d="M 136.5 80 Q 156.5 78.5 163 90.5 L 166 101.5 L 168.5 104 L 229.5 146 L 243 158.5 L 251 172.5 L 259.5 196 Q 263.6 174.6 276.5 162 Q 284.3 155.1 297 154 L 298 144.5 L 303.5 136 L 308.5 133 L 315.5 132 L 323.5 134 L 329 139.5 Q 332.7 143.7 332 151 L 353.5 151 L 354.5 152 Q 355.1 139.1 363.5 134 L 369.5 132 L 374.5 132 Q 381.3 133.3 385 137.5 Q 390.5 142.8 389 154 L 409.5 159 L 420 167.5 L 423 174.5 L 425 185.5 L 427 235 L 442.5 237 L 450 241.5 L 453.5 248 Q 461.6 249.4 465 255.5 L 468 261.5 L 470 272.5 L 470 313.5 L 464.5 322 L 456.5 325 L 412.5 328 L 411 329.5 L 411.5 332 L 419.5 332 L 420.5 331 L 454.5 331 L 467.5 334 L 475 339 L 482 351.5 L 484 360.5 L 484 374.5 L 482 384.5 L 476 398.5 L 465.5 410 L 452.5 416 L 427.5 420 L 416.5 423 L 411.5 423 L 362.5 432 L 340.5 432 L 339.5 431 L 332.5 431 L 331.5 430 L 306.5 427 Q 294.6 424.4 289 415.5 L 283.5 405 L 261.5 408 L 249.5 411 L 237.5 412 L 236.5 413 L 213.5 413 L 212.5 412 L 203.5 412 L 188.5 409 L 176 398.5 L 171 387.5 L 170 368.5 Q 173 350 184.5 340 L 192.5 335 L 206.5 331 L 237.5 330 L 238.5 331 L 257.5 331 L 258.5 332 L 267 332 Q 268.3 329 264.5 330 L 254.5 327 L 213.5 325 Q 205.4 323.6 202 317.5 L 200 311.5 L 200 293.5 L 201 292.5 L 202 275.5 L 206 258.5 L 212 248.5 L 196 197.5 L 185.5 185 L 148.5 153 L 106 250.5 L 107 251.5 L 107 262.5 L 106 265 L 120.5 267 L 129 273.5 L 132 281.5 L 132 287.5 L 135 302.5 L 142 325.5 L 155.5 349 L 156.5 348 L 165.5 348 L 169 350.5 Q 171.8 353.2 171 359.5 L 166.5 365 L 159.5 369 L 136.5 376 L 125.5 377 L 124.5 378 L 105.5 378 L 104.5 377 L 77.5 374 L 61.5 370 Q 49.2 364.8 41 355.5 Q 27.6 341.4 29 312.5 L 34 295.5 L 46.5 281 L 53 277.5 L 55 264.5 L 58 260.5 L 57 259.5 L 57 247.5 Q 58.5 240.5 63.5 237 L 66 235.5 L 102 109.5 L 108 93.5 L 113.5 87 L 122.5 82 L 135.5 81 L 136.5 80 Z M 127 86 L 119 89 L 112 97 L 107 110 L 71 236 L 84 237 L 103 171 L 108 158 L 110 148 L 124 106 L 124 102 L 130 90 L 134 87 L 127 86 Z M 143 86 L 139 88 Q 131 93 129 104 Q 127 120 134 127 L 145 133 L 154 132 L 158 128 L 162 117 Q 164 100 158 92 Q 155 84 143 86 Z M 167 109 L 165 122 L 160 132 L 155 136 L 205 175 Q 217 183 222 198 L 246 275 L 250 237 L 257 207 L 257 203 L 246 173 L 237 159 L 225 148 L 167 109 Z M 125 115 L 88 236 Q 99 236 104 244 L 150 138 Q 139 137 134 132 Q 126 126 125 115 Z M 313 137 L 309 138 Q 301 142 302 153 L 309 152 L 327 152 Q 328 145 325 142 Q 322 136 313 137 Z M 369 137 L 365 139 Q 359 143 360 152 L 383 153 Q 384 155 385 153 L 383 143 Q 380 136 369 137 Z M 155 139 L 150 149 L 187 180 Q 196 187 201 198 L 218 252 L 227 287 L 245 288 L 224 216 L 218 198 L 213 189 L 203 178 L 155 139 Z M 318 156 L 317 157 L 305 157 L 304 158 L 293 159 L 282 164 L 272 175 L 262 203 L 253 247 L 252 263 L 251 264 L 251 276 L 250 277 L 250 306 L 253 320 Q 256 324 262 325 L 312 326 L 313 327 L 366 327 L 367 326 L 382 326 L 383 325 L 397 325 L 398 324 L 412 324 L 413 323 L 425 323 L 426 322 L 438 322 L 439 321 L 451 321 L 461 319 L 465 313 L 465 304 L 466 303 L 465 271 L 463 262 L 460 257 Q 456 252 450 251 L 427 248 L 427 294 L 425 303 L 418 308 L 394 309 L 393 310 L 372 310 L 368 308 L 363 299 L 364 263 L 365 262 L 367 223 L 368 222 L 368 213 L 369 212 L 372 184 L 375 177 L 383 171 L 396 171 L 407 174 L 412 182 Q 411 187 413 189 L 413 209 L 414 210 L 414 242 L 413 244 L 409 248 L 396 251 L 369 260 L 368 266 L 368 289 L 367 290 L 368 303 L 373 306 L 407 305 L 408 304 Q 415 306 419 303 L 422 299 L 422 287 L 423 286 L 423 241 L 422 240 L 421 196 L 420 195 L 419 178 L 415 169 L 405 162 L 386 158 L 364 157 L 363 156 L 318 156 Z M 384 175 L 382 176 L 377 182 L 375 191 L 372 223 L 371 224 L 371 234 L 370 235 L 370 246 L 369 247 L 370 256 L 409 243 L 410 240 L 409 193 L 408 192 Q 410 184 407 181 L 400 176 L 384 175 Z M 68 240 L 63 245 L 61 252 Q 61 261 65 266 L 69 268 L 75 269 L 73 264 Q 70 247 78 242 L 77 240 L 68 240 Z M 90 240 L 84 242 Q 79 245 77 252 Q 75 261 79 266 L 78 288 L 62 287 L 59 286 L 61 281 L 61 271 L 62 270 Q 63 266 61 265 L 58 272 L 57 284 L 54 282 L 47 287 L 40 295 L 36 303 L 34 312 Q 32 337 43 351 Q 50 360 62 365 L 77 369 L 104 372 L 105 373 L 108 373 L 102 369 L 91 358 L 86 347 L 84 337 L 84 321 L 86 312 Q 89 301 96 295 L 108 286 Q 106 275 112 271 L 105 269 Q 102 268 103 271 L 82 287 L 81 285 L 92 276 Q 99 272 102 263 Q 104 251 100 247 Q 98 240 90 240 Z M 427 240 L 427 243 L 429 244 L 436 244 L 443 246 L 447 246 L 441 241 L 427 240 Z M 214 254 L 210 262 L 207 275 L 205 301 L 218 303 L 239 303 L 240 304 L 246 304 L 245 299 Q 246 292 245 292 L 226 292 L 223 290 L 223 286 L 214 254 Z M 65 271 L 64 282 L 66 283 Q 72 281 74 284 Q 73 276 75 273 Q 68 274 65 271 Z M 116 271 L 111 280 L 112 296 L 121 327 Q 127 342 136 355 L 149 366 L 155 366 L 165 361 L 166 355 L 163 352 L 155 354 Q 142 341 136 323 L 129 298 L 127 281 L 125 276 L 116 271 Z M 107 290 L 103 293 Q 91 302 88 319 L 88 339 L 89 344 L 94 356 L 100 364 L 112 371 L 120 373 L 138 371 L 146 368 L 142 365 Q 129 354 122 338 Q 113 317 108 292 Q 109 289 107 290 Z M 205 305 Q 204 313 207 317 L 213 320 L 232 321 L 233 322 L 250 322 L 247 317 L 246 307 L 221 307 L 220 306 L 208 306 L 205 305 Z M 393 329 L 392 330 L 363 331 L 362 332 L 289 331 L 288 330 L 272 330 L 272 340 L 274 341 L 287 341 L 288 342 L 314 342 L 318 340 L 330 339 L 331 338 L 355 337 L 356 336 L 367 336 L 368 335 L 379 335 L 380 334 L 393 334 L 394 333 L 406 333 L 407 332 L 407 329 L 393 329 Z M 213 335 L 212 336 L 201 337 L 192 341 L 201 342 L 214 342 L 215 343 L 224 343 Q 230 338 240 338 L 226 335 L 213 335 Z M 242 335 L 242 336 L 246 337 L 256 336 L 242 335 Z M 413 336 L 412 337 L 396 338 L 407 340 L 410 342 L 434 339 L 430 337 L 413 336 Z M 436 336 L 436 337 L 439 338 L 451 338 L 458 337 L 436 336 Z M 263 338 L 262 339 L 235 342 L 225 346 Q 213 354 210 370 Q 208 389 215 400 Q 219 406 227 408 L 245 407 L 281 400 Q 285 401 283 397 L 242 404 L 235 404 L 234 405 L 224 402 Q 215 397 213 385 L 213 372 L 215 364 L 219 357 Q 224 349 235 346 L 259 343 L 260 342 L 267 342 Q 269 341 267 340 Q 268 336 263 338 Z M 374 339 L 373 340 L 360 341 L 376 343 L 378 345 L 402 343 L 403 342 L 392 339 L 374 339 Z M 447 341 L 446 342 L 436 342 L 435 343 L 427 343 L 418 345 L 409 345 L 408 346 L 400 346 L 399 347 L 391 347 L 390 348 L 369 350 L 368 351 L 361 351 Q 348 354 340 360 L 331 375 L 328 388 L 329 407 L 334 418 Q 338 425 348 427 L 363 427 L 364 426 L 377 425 L 389 422 L 412 419 L 423 416 L 440 414 L 459 409 L 465 405 Q 476 395 479 377 Q 481 358 475 348 Q 472 343 466 341 L 447 341 Z M 335 342 L 334 343 L 321 344 L 313 347 L 349 349 L 350 350 L 374 346 L 363 343 L 355 343 L 354 342 L 335 342 Z M 188 344 Q 182 348 180 354 L 210 356 L 211 357 L 219 347 L 211 345 L 188 344 Z M 269 345 L 262 347 L 237 350 L 228 354 L 222 360 L 217 374 L 217 383 L 220 393 L 230 400 L 241 400 L 242 399 L 260 397 L 262 396 L 259 394 L 253 387 L 248 387 Q 244 393 236 394 L 230 392 L 224 387 L 222 380 L 223 371 L 225 367 L 234 360 L 243 361 Q 248 365 250 373 Q 251 380 249 383 L 255 382 L 282 382 L 283 381 L 283 376 L 285 369 L 291 357 L 303 347 L 269 345 Z M 308 349 L 301 353 L 295 360 L 317 361 L 318 362 L 329 362 L 330 363 L 334 363 L 346 353 L 308 349 Z M 178 357 L 175 370 L 206 373 L 209 361 L 208 359 L 198 359 L 197 358 L 178 357 Z M 292 363 L 288 377 L 326 381 Q 327 372 332 367 L 326 365 L 292 363 Z M 234 364 L 232 365 Q 227 368 226 375 Q 225 382 228 386 L 235 390 L 240 389 L 246 381 Q 247 372 244 368 Q 242 363 234 364 Z M 175 373 Q 174 381 176 386 L 207 389 L 206 376 L 175 373 Z M 287 380 L 287 397 L 317 400 L 318 401 L 325 401 L 325 384 L 290 381 L 287 380 Z M 258 387 Q 259 392 267 394 L 277 394 L 278 393 L 282 393 L 282 387 L 275 388 L 272 390 L 273 388 L 258 387 Z M 177 389 L 181 398 L 184 399 L 209 401 L 210 402 L 213 402 L 209 394 L 208 392 L 199 392 L 198 391 L 177 389 Z M 289 400 L 288 403 L 292 412 L 294 413 Q 298 412 300 414 L 329 417 L 330 418 L 326 409 L 326 405 L 308 403 L 307 402 L 300 402 L 299 401 L 290 401 L 289 400 Z M 190 403 L 190 404 L 196 406 L 210 407 L 211 408 L 218 408 L 216 405 L 190 403 Z M 299 417 L 300 419 L 307 422 L 324 425 L 331 425 L 332 426 L 337 426 L 333 421 L 299 417 Z " /><path fill="rgb(0,0,0)" stroke="rgb(0,0,0)" stroke-width="0" opacity="1" d="M 145.5 96 Q 152.1 96.9 155 101.5 L 156 103.5 L 156 114.5 L 151.5 121 L 145.5 123 L 139 118.5 Q 135.3 114.2 137 104.5 L 141.5 98 L 145.5 96 Z M 146 100 L 144 101 L 140 108 Q 139 114 142 117 L 146 119 L 150 118 L 153 113 L 152 104 Q 150 100 146 100 Z " /><path fill="rgb(0,0,0)" stroke="rgb(0,0,0)" stroke-width="0" opacity="1" d="M 296.5 168 L 346.5 168 L 347.5 169 L 358.5 170 L 363 174.5 L 363 185.5 L 361 194.5 L 358 234.5 L 357 235.5 L 357 247.5 L 356 248.5 L 354 297.5 Q 352.9 304.9 347.5 308 L 344.5 309 L 286.5 309 L 285.5 308 Q 272.8 309.7 264.5 307 L 258 301.5 L 257 298.5 L 257 264.5 L 258 263.5 L 258 253.5 L 259 252.5 L 260 238.5 L 264 216.5 L 273 183.5 L 279.5 173 L 285.5 170 L 296.5 168 Z M 302 172 L 301 173 L 288 174 L 283 176 L 276 188 L 270 210 L 265 234 L 263 256 L 262 257 L 262 267 L 261 268 L 261 297 L 262 300 L 266 303 Q 270 302 272 304 L 298 304 L 299 305 L 343 305 L 348 303 L 350 297 L 353 235 L 354 234 L 354 224 L 355 223 L 355 213 L 357 204 L 359 177 L 354 173 L 344 173 L 343 172 L 302 172 Z " /><path fill="rgb(0,0,0)" stroke="rgb(0,0,0)" stroke-width="0" opacity="1" d="M 289.5 191 Q 295 190.5 297 193.5 L 298 198 L 288.5 197 L 281 201 Q 281.3 194.6 286.5 192 L 289.5 191 Z " /><path fill="rgb(0,0,0)" stroke="rgb(0,0,0)" stroke-width="0" opacity="1" d="M 335.5 191 Q 342.1 191.4 345 195.5 L 347 199.5 L 343.5 201 Q 341.6 195.9 333.5 197 L 329 198 Q 328.3 193.3 332.5 192 L 335.5 191 Z " /><path fill="rgb(0,0,0)" stroke="rgb(0,0,0)" stroke-width="0" opacity="1" d="M 285.5 211 Q 295.3 209.3 298 214.5 Q 304 220.5 302 234.5 Q 299.8 242.8 293.5 247 Q 290.3 249.3 283.5 248 L 277 242.5 L 274 234.5 L 274 228.5 Q 275.7 217.2 283.5 212 L 285.5 211 Z M 287 214 L 285 215 Q 278 219 277 228 Q 276 236 279 241 L 287 246 L 288 246 L 285 244 L 282 237 Q 281 229 284 225 L 291 219 L 297 220 L 298 221 L 297 218 Q 295 213 287 214 Z M 294 224 Q 291 225 292 230 L 296 231 Q 298 230 297 226 L 294 224 Z " /><path fill="rgb(0,0,0)" stroke="rgb(0,0,0)" stroke-width="0" opacity="1" d="M 331.5 211 Q 342.1 210.4 345 217.5 L 348 230.5 L 346 239.5 L 338.5 248 Q 335.3 250.3 328.5 249 L 321 243.5 L 318 234.5 L 318 229.5 Q 320 217.5 328.5 212 L 331.5 211 Z M 332 214 L 328 216 Q 323 221 321 229 Q 320 237 323 242 L 331 247 L 332 247 Q 327 244 326 237 Q 325 224 334 220 Q 340 219 342 222 Q 344 221 343 224 L 344 224 L 343 220 L 337 214 L 332 214 Z M 337 225 L 336 228 L 337 231 Q 336 233 341 232 Q 343 231 342 227 Q 341 224 337 225 Z " /><path fill="rgb(0,0,0)" stroke="rgb(0,0,0)" stroke-width="0" opacity="1" d="M 89.5 247 L 92.5 247 L 96 249 Q 98.9 251.9 98 259.5 L 94.5 265 L 87.5 266 Q 81.2 263.3 83 252.5 L 85 249 L 89.5 247 Z M 89 251 L 86 256 L 87 261 Q 88 263 92 263 L 95 259 L 94 253 Q 93 250 89 251 Z " /><path fill="rgb(0,0,0)" stroke="rgb(0,0,0)" stroke-width="0" opacity="1" d="M 405.5 257 Q 413.1 255.9 415 260.5 Q 417 269 412.5 271 Q 407 273.5 397.5 272 Q 393.1 270.4 394 263.5 L 398.5 258 Q 404 259.5 405.5 257 Z M 403 261 L 398 264 Q 397 268 400 269 L 411 268 Q 413 267 412 263 L 411 261 L 403 261 Z " /><path fill="rgb(0,0,0)" stroke="rgb(0,0,0)" stroke-width="0" opacity="1" d="M 325.5 266 L 332 271.5 L 329.5 273 Q 327.8 270.3 326 274.5 L 319.5 282 Q 313.3 287.3 301.5 287 Q 289.9 285.1 285 276.5 L 282 269.5 L 286 267 Q 286.6 276.1 293.5 280 L 302.5 283 L 306.5 283 Q 317.5 281 323 273.5 L 325 269.5 L 324 267.5 L 325.5 266 Z " /><path fill="rgb(0,0,0)" stroke="rgb(0,0,0)" stroke-width="0" opacity="1" d="M 440.5 274 L 454.5 274 L 459 277.5 L 459 301.5 L 455.5 305 Q 448.4 307.4 437.5 306 L 434 302.5 L 434 280.5 L 437.5 275 L 440.5 274 Z M 454 277 L 453 278 L 440 278 Q 437 279 438 283 L 438 284 L 453 284 L 455 283 L 456 284 Q 457 278 454 277 Z M 437 287 L 437 293 L 456 292 L 456 287 L 437 287 Z M 456 295 L 455 296 L 437 296 Q 436 302 440 303 L 455 302 L 456 301 L 456 295 Z " /><path fill="rgb(0,0,0)" stroke="rgb(0,0,0)" stroke-width="0" opacity="1" d="M 453.5 344 Q 467 343 472 350.5 L 475 355.5 L 477 370.5 Q 474.3 372.2 476 378.5 L 472 390.5 L 459.5 405 L 448.5 409 L 427.5 412 L 416.5 415 L 410.5 415 L 360.5 424 L 352.5 424 Q 341.6 422.4 337 414.5 L 332 403.5 L 331 392.5 L 332 391.5 L 332 383.5 L 335 374.5 L 343.5 363 L 353.5 357 L 362.5 355 L 381.5 353 L 382.5 352 L 390.5 352 L 398.5 350 L 405.5 350 L 406.5 349 L 413.5 349 L 414.5 348 L 452.5 345 L 453.5 344 Z M 455 348 L 455 349 L 464 352 Q 469 355 471 363 L 472 363 Q 472 355 468 351 L 465 349 L 455 348 Z M 437 350 L 436 351 L 419 352 L 418 353 L 393 355 L 371 359 L 365 359 L 356 361 L 348 365 L 348 366 L 351 365 L 367 365 L 382 362 L 407 360 L 415 358 L 431 357 L 432 356 L 440 356 L 448 351 L 437 350 Z M 452 353 L 440 360 L 432 360 L 431 361 L 423 361 L 406 364 L 399 364 L 398 365 L 391 365 L 383 367 L 368 368 L 362 370 L 360 369 Q 349 368 344 371 L 340 375 L 336 386 Q 334 401 339 410 Q 342 414 348 415 L 355 415 L 399 407 L 411 406 L 429 402 L 441 401 L 456 398 L 460 396 L 467 387 L 470 375 L 469 367 L 466 360 Q 462 353 452 353 Z M 473 363 L 472 367 L 473 367 L 473 363 Z M 454 402 L 454 403 L 456 403 L 454 402 Z M 448 403 L 442 405 L 430 406 L 424 408 L 383 414 L 382 415 L 351 419 L 351 420 L 369 419 L 412 411 L 417 411 L 423 409 L 440 407 L 453 404 L 448 403 Z " /><path fill="rgb(0,0,0)" stroke="rgb(0,0,0)" stroke-width="0" opacity="1" d="M 450.5 364 L 457.5 364 L 463 369.5 L 464 381.5 L 458.5 391 Q 455.8 393.8 449.5 393 L 444 388.5 L 441 378.5 L 444 369.5 L 448.5 365 L 450.5 364 Z M 452 367 L 448 369 L 445 376 Q 444 386 450 389 L 457 388 L 461 380 L 460 372 L 456 367 L 452 367 Z " /><path fill="rgb(0,0,0)" stroke="rgb(0,0,0)" stroke-width="0" opacity="1" d="M 417.5 370 Q 426.9 368.6 429 374.5 Q 432.7 378.8 431 388.5 L 424.5 398 L 416.5 399 L 410 393.5 L 408 387.5 L 408 382.5 Q 409.8 374.8 415.5 371 L 417.5 370 Z M 420 373 L 418 374 L 412 382 Q 411 388 413 392 L 419 396 L 423 395 Q 427 392 428 386 Q 429 379 426 377 Q 424 373 420 373 Z " /><path fill="rgb(0,0,0)" stroke="rgb(0,0,0)" stroke-width="0" opacity="1" d="M 386.5 374 L 391.5 374 L 398 379.5 Q 401.5 383.5 400 392.5 Q 398.2 399.7 392.5 403 L 384.5 404 L 379 399.5 Q 375.8 395.2 376 387.5 Q 377.4 379.9 382.5 376 L 386.5 374 Z M 387 378 L 385 379 L 380 386 L 381 397 L 388 401 L 391 400 Q 396 397 397 390 Q 397 382 394 379 Q 392 377 387 378 Z " /><path fill="rgb(0,0,0)" stroke="rgb(0,0,0)" stroke-width="0" opacity="1" d="M 351.5 378 L 355.5 378 L 363 383.5 Q 366.3 388.2 365 397.5 Q 362.8 404.3 357.5 408 L 349.5 409 L 344 405.5 L 341 400.5 L 340 393.5 L 343 384.5 L 348.5 379 L 351.5 378 Z M 351 382 Q 346 385 344 392 Q 343 399 346 403 Q 348 406 356 405 L 361 398 Q 363 389 360 386 Q 359 381 351 382 Z " /></svg>