<svg width="627" height="627" preserveAspectRatio="xMidYMid meet" viewBox="0 0 512 512" version="1.1" xmlns="http://www.w3.org/2000/svg" ><path fill="rgb(255,255,255)" stroke="rgb(255,255,255)" stroke-width="0" opacity="1" d="M 0 0 L 512 0 L 512 512 L 0 512 L 0 0 Z M 294 92 L 293 93 L 282 93 L 281 94 L 268 95 L 261 98 Q 254 102 252 112 Q 252 120 257 123 L 248 159 L 242 191 L 242 194 L 237 194 L 237 165 L 235 163 Q 236 160 234 161 L 231 159 L 231 130 L 227 119 Q 224 113 217 112 L 210 114 Q 204 118 202 126 L 203 134 L 209 142 L 209 159 L 207 160 L 202 168 L 202 195 L 185 197 L 172 202 Q 164 207 162 217 L 149 217 L 145 219 Q 135 224 136 240 L 111 274 L 68 273 L 67 272 Q 57 271 52 273 Q 47 276 46 283 L 48 294 L 48 325 L 47 326 L 46 341 L 41 359 L 41 363 L 37 374 L 31 380 L 23 395 L 24 400 L 28 402 Q 32 401 34 403 L 79 406 L 80 407 L 91 407 L 92 408 L 103 408 L 104 409 L 115 409 L 116 410 L 127 410 L 128 411 L 139 411 L 140 412 L 150 412 L 151 413 L 161 413 L 162 414 L 173 414 L 174 415 L 218 418 L 219 419 L 242 420 L 243 421 Q 256 420 266 415 Q 270 412 271 406 L 273 404 L 287 400 Q 293 396 294 387 L 300 386 L 302 390 Q 307 396 316 399 L 335 401 L 336 402 L 344 402 L 345 403 L 355 403 L 356 404 L 364 404 L 365 403 L 368 404 L 387 401 Q 388 397 390 400 L 403 398 L 407 396 L 423 394 L 427 392 L 433 392 L 445 388 L 455 387 L 470 380 L 479 370 L 479 366 L 484 359 L 489 338 L 489 322 L 488 321 L 489 319 L 487 306 L 479 288 L 471 280 L 468 280 L 463 276 L 453 274 L 446 274 L 446 271 L 462 271 L 464 270 L 468 264 L 467 247 L 464 240 L 461 238 L 456 238 L 454 237 L 453 216 L 449 205 L 441 198 L 420 195 L 420 182 L 419 181 L 419 171 L 418 170 L 418 160 L 416 150 L 415 130 L 419 129 L 422 123 L 421 114 L 419 110 Q 415 105 409 103 L 355 93 L 341 93 L 340 92 L 294 92 Z " /><path fill="rgb(255,255,255)" stroke="rgb(255,255,255)" stroke-width="0" opacity="1" d="M 293.5 97 L 340.5 97 L 341.5 98 L 352.5 98 Q 359.9 99.1 363 104.5 L 365 113.5 L 364 117 L 361 118.5 Q 360.3 120.8 362.5 120 L 365 121 L 365 135.5 L 364 136.5 L 364 172.5 L 363 173.5 L 363 208.5 L 362 209.5 L 362 246.5 L 361 247.5 L 360.5 256 L 354 255 L 354 244.5 L 355 243.5 L 355 213.5 L 356 212.5 L 358 120.5 L 354.5 116 L 349.5 114 L 334.5 113 L 333.5 112 L 287.5 112 L 286.5 113 L 271.5 114 L 259.5 118 Q 256 117 257 111.5 L 261.5 103 L 272.5 99 L 292.5 98 L 293.5 97 Z " /><path fill="rgb(255,255,255)" stroke="rgb(255,255,255)" stroke-width="0" opacity="1" d="M 364.5 100 L 404.5 107 L 412.5 110 L 416 113.5 L 417 123.5 Q 416.5 126.5 412.5 126 L 387.5 120 L 369.5 118 L 367 116.5 L 368 115.5 L 368 107.5 L 364.5 100 Z " /><path fill="rgb(255,255,255)" stroke="rgb(255,255,255)" stroke-width="0" opacity="1" d="M 293.5 116 L 339.5 117 L 350.5 119 L 354 121.5 L 352 220.5 L 351 221.5 L 351 250.5 L 350 255 L 337 255 L 337 225.5 L 336 224.5 Q 337.4 215.6 335 210.5 L 328.5 202 L 324.5 200 L 313.5 199 L 312.5 198 L 247 195 L 249 178.5 L 258 136.5 L 261 125.5 L 264.5 121 L 273.5 118 L 292.5 117 L 293.5 116 Z M 276 131 L 271 133 Q 266 136 265 141 L 268 141 L 274 137 Q 279 136 281 138 L 284 137 L 283 135 Q 281 131 276 131 Z M 324 131 L 321 132 Q 316 133 317 138 L 321 137 L 327 137 L 334 142 Q 337 143 335 138 Q 332 132 324 131 Z M 273 149 L 268 151 Q 261 155 259 165 L 259 176 L 263 184 L 273 188 L 280 186 Q 285 182 288 175 Q 290 162 286 156 Q 283 148 273 149 Z M 320 149 L 314 152 L 308 159 L 305 169 L 305 174 L 308 182 L 316 188 Q 326 190 330 185 L 336 175 Q 338 161 333 155 Q 329 149 320 149 Z " /><path fill="rgb(255,255,255)" stroke="rgb(255,255,255)" stroke-width="0" opacity="1" d="M 215.5 117 Q 221.1 117.5 223 121.5 L 226 129.5 L 226 159 L 213 159 L 213 138.5 L 207 130.5 L 207 125.5 L 212.5 118 L 215.5 117 Z " /><path fill="rgb(255,255,255)" stroke="rgb(255,255,255)" stroke-width="0" opacity="1" d="M 368 122 L 386.5 124 L 410 129 L 416 196.5 L 400.5 203 L 396 207.5 L 393 213.5 L 390 225.5 L 388 242.5 L 385 256 L 365 256 L 365 231.5 L 366 230.5 L 368 122 Z M 377 130 L 373 134 Q 375 140 372 142 L 372 197 L 376 200 L 382 200 L 403 194 L 407 188 L 406 154 L 405 153 Q 407 143 404 138 Q 401 133 396 132 L 385 130 L 377 130 Z " /><path fill="rgb(255,255,255)" stroke="rgb(255,255,255)" stroke-width="0" opacity="1" d="M 378.5 133 L 395.5 136 L 401 139.5 L 403 187.5 L 400.5 191 L 382.5 196 L 376 196 L 375 193.5 L 375 178.5 L 376 177.5 L 376 136.5 L 378.5 133 Z " /><path fill="rgb(255,255,255)" stroke="rgb(255,255,255)" stroke-width="0" opacity="1" d="M 271.5 152 L 278.5 152 L 282 154 L 285 160.5 L 282.5 159 L 274.5 158 L 270 161.5 Q 265.3 166.3 267 177.5 L 272 184.5 L 270.5 185 L 264 180.5 Q 260.8 176.2 261 168.5 L 265 157.5 L 269.5 153 L 271.5 152 Z " /><path fill="rgb(255,255,255)" stroke="rgb(255,255,255)" stroke-width="0" opacity="1" d="M 319.5 152 L 324.5 152 L 331 156.5 L 334 164.5 L 333 164.5 L 330.5 160 Q 328.2 157.3 322.5 158 L 316 163.5 Q 312.3 167.8 314 177.5 L 318.5 185 L 320 185.5 L 318.5 186 L 311 181.5 L 308 173.5 L 308 167.5 L 311 158.5 L 315.5 154 L 319.5 152 Z " /><path fill="rgb(255,255,255)" stroke="rgb(255,255,255)" stroke-width="0" opacity="1" d="M 212.5 163 Q 225.3 161.2 232 165.5 L 232 195 L 207 195 L 207 166.5 L 209.5 164 L 212.5 163 Z " /><path fill="rgb(255,255,255)" stroke="rgb(255,255,255)" stroke-width="0" opacity="1" d="M 278.5 163 Q 282.3 162.3 283 164.5 Q 284 169 281.5 170 Q 277.8 170.8 277 168.5 Q 276 164 278.5 163 Z " /><path fill="rgb(255,255,255)" stroke="rgb(255,255,255)" stroke-width="0" opacity="1" d="M 326.5 163 L 330 164.5 L 331 167.5 L 328.5 171 Q 324.5 171.5 324 168.5 Q 323.3 163.8 326.5 163 Z " /><path fill="rgb(255,255,255)" stroke="rgb(255,255,255)" stroke-width="0" opacity="1" d="M 207.5 199 L 258.5 199 L 259.5 200 L 268.5 200 L 274 203.5 L 277 210.5 L 277 215.5 L 276 216.5 L 276 231.5 L 275 232.5 L 275 248.5 L 274 249.5 L 273 268.5 L 264.5 280 L 218.5 279 L 217.5 278 L 195.5 278 L 194.5 277 L 171.5 277 L 170.5 276 L 161 276 L 162 273.5 L 162 251.5 L 163 250.5 L 164 226.5 L 168 212.5 L 172.5 207 L 183.5 202 L 194.5 200 L 206.5 200 L 207.5 199 Z M 179 214 L 177 215 Q 171 218 169 226 Q 168 236 172 241 L 177 244 Q 184 245 188 242 Q 192 238 193 232 Q 194 224 191 220 Q 189 213 179 214 Z M 253 214 L 248 216 Q 242 219 240 227 Q 239 237 243 242 Q 246 246 252 247 L 259 245 Q 264 242 266 235 Q 268 225 264 221 Q 261 214 253 214 Z M 190 252 L 188 254 L 192 262 L 204 270 L 214 272 Q 227 271 235 264 L 241 256 L 241 254 Q 242 251 240 252 L 237 256 L 227 265 L 215 268 Q 204 267 198 262 L 192 255 Q 193 251 190 252 Z " /><path fill="rgb(255,255,255)" stroke="rgb(255,255,255)" stroke-width="0" opacity="1" d="M 274.5 200 L 319.5 203 L 326.5 205 L 330 208.5 L 332 214.5 L 332 225.5 L 333 226.5 L 333 254 L 321.5 256 L 314.5 261 L 316 258.5 L 321 248.5 L 328 239.5 L 328 228.5 L 321.5 220 Q 316.1 216.4 305.5 218 L 296 224.5 Q 291.8 229.8 292 239.5 L 293 241.5 L 277.5 262 L 277 255.5 L 278 254.5 L 278 240.5 L 279 239.5 L 280 208.5 L 275.5 201 L 274.5 200 Z " /><path fill="rgb(255,255,255)" stroke="rgb(255,255,255)" stroke-width="0" opacity="1" d="M 417.5 200 L 436.5 202 Q 443 203.5 446 208.5 L 449 222.5 L 449 238 L 426.5 238 Q 418.6 240.1 415 246.5 L 409.5 258 L 408.5 257 L 389 257 L 396 216.5 Q 397.6 209.5 402.5 206 L 417.5 200 Z " /><path fill="rgb(255,255,255)" stroke="rgb(255,255,255)" stroke-width="0" opacity="1" d="M 180.5 217 L 187 219 Q 190.4 223.2 189 233.5 L 184.5 240 L 178.5 241 L 174 237.5 L 172 228.5 Q 173.1 221.1 178.5 218 L 180.5 217 Z " /><path fill="rgb(255,255,255)" stroke="rgb(255,255,255)" stroke-width="0" opacity="1" d="M 251.5 218 Q 259.4 217.1 261 222.5 L 263 230.5 L 261 237.5 L 256.5 242 L 250.5 243 L 245 238.5 L 244 226.5 L 249.5 219 L 251.5 218 Z " /><path fill="rgb(255,255,255)" stroke="rgb(255,255,255)" stroke-width="0" opacity="1" d="M 149.5 222 L 146 226.5 L 141.5 234 L 141 231.5 L 145.5 224 L 149.5 222 Z " /><path fill="rgb(255,255,255)" stroke="rgb(255,255,255)" stroke-width="0" opacity="1" d="M 155.5 222 L 161 222.5 L 160 223.5 L 159 240.5 L 158 242.5 L 134 275 L 116.5 275 L 116 273.5 L 148 229.5 L 155.5 222 Z " /><path fill="rgb(255,255,255)" stroke="rgb(255,255,255)" stroke-width="0" opacity="1" d="M 304.5 223 L 306 223.5 L 301 228.5 L 297.5 236 L 297 231.5 L 302.5 224 L 304.5 223 Z " /><path fill="rgb(255,255,255)" stroke="rgb(255,255,255)" stroke-width="0" opacity="1" d="M 311.5 223 Q 320.9 221.7 323 227.5 Q 325.5 231 324 238.5 L 319.5 245 L 314 247.5 L 280.5 295 Q 279.7 285.8 273.5 282 L 269 280.5 L 302 236.5 Q 303.4 228.9 308.5 225 L 311.5 223 Z M 316 228 L 313 229 L 311 234 L 312 240 Q 313 243 319 242 Q 323 240 322 232 Q 321 227 316 228 Z " /><path fill="rgb(255,255,255)" stroke="rgb(255,255,255)" stroke-width="0" opacity="1" d="M 316.5 230 L 319 231.5 L 320 235.5 L 316.5 240 Q 313 239 314 233.5 L 316.5 230 Z " /><path fill="rgb(255,255,255)" stroke="rgb(255,255,255)" stroke-width="0" opacity="1" d="M 431.5 241 L 456.5 242 L 462 245.5 L 463 263.5 L 460.5 266 Q 455.8 264.7 454.5 267 L 430.5 267 L 429.5 268 L 410.5 269 L 411 267.5 L 418 248.5 L 423.5 243 L 431.5 241 Z " /><path fill="rgb(255,255,255)" stroke="rgb(255,255,255)" stroke-width="0" opacity="1" d="M 157.5 248 L 158 251.5 L 140.5 275 L 138 274.5 L 157.5 248 Z " /><path fill="rgb(255,255,255)" stroke="rgb(255,255,255)" stroke-width="0" opacity="1" d="M 316.5 250 L 315 252.5 L 307 266.5 L 281.5 303 L 281 300.5 L 316.5 250 Z " /><path fill="rgb(255,255,255)" stroke="rgb(255,255,255)" stroke-width="0" opacity="1" d="M 330.5 258 L 334.5 259 L 390.5 260 L 391.5 261 L 409 261.5 L 406 270 L 390.5 272 Q 389 269.5 383.5 271 L 382.5 272 L 367.5 272 L 356.5 274 L 355.5 273 L 344.5 273 Q 342.8 275.8 336.5 274 L 330.5 277 L 322.5 277 Q 314.5 279.5 310 285.5 Q 310.8 287.8 308.5 287 L 303 291.5 L 292 310.5 L 289 321 L 284 318.5 L 284 306.5 L 285 304.5 L 308 271.5 L 316.5 263 L 321.5 260 L 330.5 258 Z " /><path fill="rgb(255,255,255)" stroke="rgb(255,255,255)" stroke-width="0" opacity="1" d="M 156.5 261 L 157 276 L 146 275.5 L 156.5 261 Z " /><path fill="rgb(255,255,255)" stroke="rgb(255,255,255)" stroke-width="0" opacity="1" d="M 422.5 272 L 440.5 272 L 441 276 Q 433.4 274.7 429.5 278 L 425.5 275 L 414 273.5 L 422.5 272 Z " /><path fill="rgb(255,255,255)" stroke="rgb(255,255,255)" stroke-width="0" opacity="1" d="M 401.5 275 L 409.5 275 L 422 277.5 L 411.5 280 L 408.5 277 L 401.5 276 L 401.5 275 Z " /><path fill="rgb(255,255,255)" stroke="rgb(255,255,255)" stroke-width="0" opacity="1" d="M 380.5 276 L 391.5 276 L 396.5 278 L 407 279.5 Q 398.1 279.1 392.5 282 L 387.5 279 L 375 277.5 L 380.5 276 Z " /><path fill="rgb(255,255,255)" stroke="rgb(255,255,255)" stroke-width="0" opacity="1" d="M 54.5 277 L 98.5 278 L 99.5 279 L 125.5 279 L 126.5 280 L 150.5 280 L 151.5 281 L 175.5 281 L 176.5 282 L 199.5 282 L 200.5 283 L 227.5 283 L 228.5 284 L 251.5 284 L 252.5 285 L 265 285.5 L 263.5 291 L 262.5 290 L 246.5 290 L 245.5 289 L 217.5 289 L 216.5 288 L 193.5 288 L 192.5 287 L 170.5 287 L 169.5 286 L 146.5 286 L 145.5 285 L 119.5 285 L 118.5 284 L 93.5 284 L 92.5 283 L 58.5 282 Q 55.5 283.5 57 289.5 L 59 297.5 L 59 314.5 L 60 319.5 L 59 320.5 L 59 334.5 L 58 335.5 L 57 348.5 L 54 361.5 L 48 378 L 41 377 L 46 361.5 L 51 338.5 L 52 322.5 L 53 321.5 L 53 295.5 L 52 294.5 L 51 281.5 L 54.5 277 Z " /><path fill="rgb(255,255,255)" stroke="rgb(255,255,255)" stroke-width="0" opacity="1" d="M 342.5 278 L 360.5 278 L 361.5 279 L 369.5 279 L 370.5 280 L 385 281.5 L 383.5 283 L 377.5 283 L 371.5 285 L 368.5 283 Q 363.7 284.3 362.5 282 L 336 279.5 L 342.5 278 Z " /><path fill="rgb(255,255,255)" stroke="rgb(255,255,255)" stroke-width="0" opacity="1" d="M 435.5 280 L 445.5 280 L 446 283 L 449 283 L 449.5 280 L 458.5 280 L 463 282.5 L 464 286 L 467.5 284 L 477 292.5 L 478 297.5 L 477 298.5 L 481 302.5 L 484 317.5 L 483 321.5 L 485 325.5 L 484 339.5 L 481 344.5 L 482 349.5 L 476.5 362 Q 473.1 361.1 475 366.5 L 465.5 377 Q 463.8 373.3 462 376.5 L 460.5 380 L 448.5 383 L 447 380 L 443 382.5 Q 443.8 384.8 441.5 384 L 429 387 Q 430.7 382.9 426.5 384 L 425 388 L 410 391 L 408.5 388 L 406 389.5 L 404.5 392 L 390 395 Q 391.5 390.5 387 392 L 386 396 L 369 399 L 369 395 L 367.5 395 Q 366.8 398.8 361.5 398 Q 353.8 395.8 349 390.5 Q 349.8 386.8 347.5 386 L 344 383.5 L 340 373.5 L 340 370 L 342.5 369 L 348 380.5 L 356.5 389 L 362.5 392 L 372.5 393 L 452.5 377 Q 465.1 374.1 471 364.5 Q 481.6 349.1 481 322.5 L 480 321.5 L 480 313.5 L 476 301.5 L 465.5 289 L 455.5 285 L 433.5 285 L 432.5 286 L 422.5 286 L 421.5 287 L 394.5 289 L 372.5 293 Q 360 297 353 306.5 Q 343.8 318.1 342 336 L 338 337 Q 339.2 323.2 344 313 Q 347.3 314.3 346 309.5 L 354.5 299 Q 358.3 300.3 357 296.5 Q 360.9 290.4 370.5 290 L 371.5 291 L 374.5 288 L 389.5 286 Q 391.3 289.8 393 286.5 Q 392.2 283.9 395.5 285 L 396.5 284 Q 404.9 284.9 409 283 Q 407.9 286.3 412 285 Q 410.8 282 414.5 283 L 415.5 282 L 426.5 281 Q 428.7 286.3 431 282.5 Q 430.1 279.5 434.5 281 L 435.5 280 Z " /><path fill="rgb(255,255,255)" stroke="rgb(255,255,255)" stroke-width="0" opacity="1" d="M 323.5 282 L 333.5 282 L 334.5 283 L 352.5 284 L 367 286.5 Q 359.1 287.6 355.5 293 L 350.5 291 L 320.5 289 L 314 287.5 L 323.5 282 Z " /><path fill="rgb(255,255,255)" stroke="rgb(255,255,255)" stroke-width="0" opacity="1" d="M 59.5 285 L 101.5 286 L 102.5 287 L 128.5 287 L 129.5 288 L 154.5 288 L 155.5 289 L 178.5 289 L 179.5 290 L 201.5 290 L 202.5 291 L 225.5 291 L 226.5 292 L 250.5 292 L 251.5 293 L 264 293 L 264 305.5 L 265 306.5 L 265 325.5 L 264 326.5 L 264 340.5 L 263 341.5 L 263 350.5 L 262 351.5 L 260 369.5 L 254 392 L 51 378 L 57 361.5 L 61 341.5 Q 59.2 335.3 62 333.5 L 62 300.5 L 59.5 285 Z " /><path fill="rgb(255,255,255)" stroke="rgb(255,255,255)" stroke-width="0" opacity="1" d="M 267 286 Q 272 285.2 274 288.5 L 276 293.5 L 277 307.5 L 278 308.5 L 278 347.5 L 277 348.5 L 277 357.5 L 276 358.5 L 274 377.5 L 270 394.5 L 266 406.5 L 261.5 412 L 248.5 415 L 249 413.5 L 257 393.5 L 264 364.5 L 266 344.5 L 267 343.5 L 267 332.5 L 268 331.5 L 268 302.5 L 267 301.5 L 267 286 Z " /><path fill="rgb(255,255,255)" stroke="rgb(255,255,255)" stroke-width="0" opacity="1" d="M 437.5 289 Q 459.2 286.3 468 296.5 L 475 310.5 L 477 329.5 L 473 351.5 Q 468.9 363.4 459.5 370 L 447.5 374 L 433.5 376 L 424.5 379 L 414.5 380 L 389.5 386 L 384.5 386 L 378.5 388 L 364.5 388 L 361 386.5 L 363.5 386 L 365.5 386 L 371.5 386 L 415.5 377 L 420.5 375 L 434.5 373 L 442.5 371 L 446 368.5 L 440.5 368 L 389.5 378 L 384.5 380 L 379.5 380 L 368.5 383 L 360.5 383 Q 354 381.5 351 376.5 L 348 370.5 L 348 367 L 351.5 366 L 354.5 370 Q 358.3 373.7 365.5 374 L 376 367.5 L 381.5 358 L 403 354 Q 403 364 410.5 368 Q 413.5 371 420.5 370 L 430 364.5 Q 429.2 361.9 432.5 363 L 437.5 366 L 448.5 367 L 459 360.5 L 462 353.5 L 469 344.5 L 472 331.5 L 472 325.5 L 469 312.5 L 455.5 297 L 451.5 295 L 437.5 295 L 429 300 L 423 310.5 L 422 315 L 382 322 Q 381.1 315.1 376.5 311 L 369.5 307 L 361.5 307 L 357.5 309 L 363.5 302 Q 369.5 297.5 378.5 296 L 397.5 294 L 398.5 293 L 406.5 293 L 407.5 292 L 436.5 290 L 437.5 289 Z " /><path fill="rgb(255,255,255)" stroke="rgb(255,255,255)" stroke-width="0" opacity="1" d="M 310.5 291 L 347.5 294 L 353 295.5 L 349 298.5 L 344 307 L 302 303 Q 303.6 295 310.5 291 Z " /><path fill="rgb(255,255,255)" stroke="rgb(255,255,255)" stroke-width="0" opacity="1" d="M 440.5 298 L 435 304.5 L 432 313 L 426 314 Q 428 304.8 435.5 300 L 440.5 298 Z " /><path fill="rgb(255,255,255)" stroke="rgb(255,255,255)" stroke-width="0" opacity="1" d="M 446.5 299 Q 454.6 298.4 457 303.5 L 455.5 303 Q 447.7 304.2 444 309.5 L 441.5 313 L 436.5 312 L 435 312.5 Q 437.1 304.2 443.5 300 L 446.5 299 Z " /><path fill="rgb(255,255,255)" stroke="rgb(255,255,255)" stroke-width="0" opacity="1" d="M 300.5 306 L 314.5 307 L 315.5 308 L 325.5 308 L 326.5 309 L 335.5 309 L 342 310.5 Q 336.5 317.2 336 328 L 294 324 L 297 310.5 L 300.5 306 Z " /><path fill="rgb(255,255,255)" stroke="rgb(255,255,255)" stroke-width="0" opacity="1" d="M 453.5 307 Q 460.8 306.2 463 310.5 L 467 318.5 L 468 332.5 L 465 343.5 L 461 350 L 457.5 352 L 450.5 352 L 447 350 L 442 338.5 L 442 323.5 Q 444.1 313.1 451.5 308 L 453.5 307 Z M 454 319 Q 449 322 448 328 L 449 337 L 455 341 L 458 340 L 462 334 Q 464 326 461 323 Q 460 318 454 319 Z " /><path fill="rgb(255,255,255)" stroke="rgb(255,255,255)" stroke-width="0" opacity="1" d="M 361.5 311 L 369.5 311 L 377 317.5 L 379 323 L 370.5 324 Q 367.5 321 360.5 322 L 352 327.5 L 350 333 Q 345.5 334.8 347 329.5 Q 349.4 318.4 357.5 313 L 361.5 311 Z " /><path fill="rgb(255,255,255)" stroke="rgb(255,255,255)" stroke-width="0" opacity="1" d="M 434.5 316 L 440 316 L 440 318.5 L 438 323.5 L 438 338.5 L 439 342 L 377.5 355 L 380 351.5 Q 384.4 346.4 383 335.5 Q 381.6 329.4 377 326.5 L 400.5 323 L 411.5 320 L 423.5 319 L 434.5 316 Z " /><path fill="rgb(255,255,255)" stroke="rgb(255,255,255)" stroke-width="0" opacity="1" d="M 454.5 322 L 458 323.5 L 459 332.5 L 456.5 337 Q 452.8 337.8 452 335.5 L 451 328.5 L 452 324.5 L 454.5 322 Z " /><path fill="rgb(255,255,255)" stroke="rgb(255,255,255)" stroke-width="0" opacity="1" d="M 283 324 Q 287.7 324.5 290 328.5 L 293 336.5 L 293 368.5 L 289 389.5 L 283.5 396 L 273 399 L 277 383.5 L 281 360.5 L 283 324 Z " /><path fill="rgb(255,255,255)" stroke="rgb(255,255,255)" stroke-width="0" opacity="1" d="M 360.5 326 L 364 326.5 L 355.5 330 L 356.5 328 L 360.5 326 Z " /><path fill="rgb(255,255,255)" stroke="rgb(255,255,255)" stroke-width="0" opacity="1" d="M 295.5 328 L 305.5 328 L 306.5 329 L 335 331 Q 333.4 333.1 334 338.5 L 332.5 340 L 313.5 348 L 305.5 348 L 304.5 347 L 298 347 L 297 332.5 L 295.5 328 Z " /><path fill="rgb(255,255,255)" stroke="rgb(255,255,255)" stroke-width="0" opacity="1" d="M 367.5 329 Q 376.5 327.5 378 333.5 L 379 343.5 L 373.5 353 L 317.5 375 L 295.5 382 L 296 380.5 L 297 362.5 L 298 358 L 367.5 329 Z M 369 334 L 365 339 L 366 348 Q 367 351 372 350 Q 378 348 376 338 Q 375 333 369 334 Z " /><path fill="rgb(255,255,255)" stroke="rgb(255,255,255)" stroke-width="0" opacity="1" d="M 369.5 337 Q 373.9 335.5 373 338.5 L 374 343.5 L 371.5 347 L 368 345.5 Q 366.3 338.8 369.5 337 Z " /><path fill="rgb(255,255,255)" stroke="rgb(255,255,255)" stroke-width="0" opacity="1" d="M 436.5 346 Q 441.9 344.1 441 347.5 L 446.5 354 Q 450 357 457 356.5 L 454.5 360 Q 451.5 363 445.5 363 L 439 359.5 L 435 353.5 L 435 347.5 L 436.5 346 Z " /><path fill="rgb(255,255,255)" stroke="rgb(255,255,255)" stroke-width="0" opacity="1" d="M 431.5 347 L 432 351.5 Q 430.3 360.8 423.5 365 L 414.5 366 L 409 361.5 L 406 353 L 431.5 347 Z " /><path fill="rgb(255,255,255)" stroke="rgb(255,255,255)" stroke-width="0" opacity="1" d="M 298 350 Q 303.4 348.5 305 351.5 L 298.5 354 L 298 350 Z " /><path fill="rgb(255,255,255)" stroke="rgb(255,255,255)" stroke-width="0" opacity="1" d="M 433 358 L 436 359.5 L 437 361.5 L 434.5 360 Q 431.9 360.7 433 358 Z " /><path fill="rgb(255,255,255)" stroke="rgb(255,255,255)" stroke-width="0" opacity="1" d="M 370.5 359 Q 376.6 357.8 376 360.5 L 373 366 L 363.5 370 Q 357.8 368.8 355 364.5 L 370.5 359 Z " /><path fill="rgb(255,255,255)" stroke="rgb(255,255,255)" stroke-width="0" opacity="1" d="M 327.5 375 L 336.5 376 L 338 377.5 L 343 387.5 L 340.5 388 L 339.5 387 L 331.5 387 L 330.5 386 L 306 383.5 L 327.5 375 Z " /><path fill="rgb(255,255,255)" stroke="rgb(255,255,255)" stroke-width="0" opacity="1" d="M 36.5 380 L 74.5 382 L 75.5 383 L 89.5 383 L 90.5 384 L 103.5 384 L 104.5 385 L 117.5 385 L 118.5 386 L 131.5 386 L 132.5 387 L 145.5 387 L 146.5 388 L 160.5 388 L 161.5 389 L 173.5 389 L 174.5 390 L 184.5 390 L 185.5 391 L 199.5 391 L 200.5 392 L 214.5 392 L 215.5 393 L 252 395 Q 249.7 406.9 243.5 416 Q 238.4 413.6 229.5 415 L 228.5 414 L 218.5 414 L 217.5 413 L 183.5 411 L 182.5 410 L 160.5 409 L 159.5 408 L 125.5 406 L 124.5 405 L 102.5 404 L 101.5 403 L 42.5 399 L 41.5 398 Q 32.5 399 28 397 Q 30.4 387.2 36.5 380 Z " /><path fill="rgb(255,255,255)" stroke="rgb(255,255,255)" stroke-width="0" opacity="1" d="M 307.5 387 L 335.5 390 L 336.5 391 L 346 391 L 349.5 396 L 352 397.5 L 342.5 398 L 341.5 397 L 334.5 397 L 333.5 396 L 316.5 394 Q 309.3 392.3 307.5 387 Z " /><path fill="rgb(0,0,0)" stroke="rgb(0,0,0)" stroke-width="0" opacity="1" d="M 293.5 92 L 339.5 92 L 340.5 93 L 354.5 93 L 408.5 103 Q 415.4 104.5 419 109.5 L 421 113.5 L 422 122.5 L 418.5 129 L 415 130 L 416 149.5 L 418 159.5 L 418 169.5 L 419 170.5 L 419 180.5 L 420 181.5 L 420 195 L 440.5 198 L 449 204.5 L 453 215.5 L 454 236.5 L 455.5 238 L 460.5 238 L 464 240 L 467 246.5 L 468 263.5 L 463.5 270 L 461.5 271 L 446 271 L 446 274 L 452.5 274 L 462.5 276 L 467.5 280 L 470.5 280 L 479 287.5 L 487 305.5 L 489 318.5 L 488 320.5 L 489 321.5 L 489 337.5 L 484 358.5 L 479 365.5 L 479 369.5 L 469.5 380 L 454.5 387 L 444.5 388 L 432.5 392 L 426.5 392 L 422.5 394 L 406.5 396 L 402.5 398 L 389.5 400 Q 388 397.5 386.5 401 L 367.5 404 L 364.5 403 L 363.5 404 L 355.5 404 L 354.5 403 L 344.5 403 L 343.5 402 L 335.5 402 L 334.5 401 L 315.5 399 Q 306.8 396.2 302 389.5 L 299.5 386 L 294 387 Q 292.9 395.7 286.5 400 L 272.5 404 L 271 405.5 Q 270.1 412.1 265.5 415 Q 256.2 420.2 242.5 421 L 241.5 420 L 218.5 419 L 217.5 418 L 173.5 415 L 172.5 414 L 161.5 414 L 160.5 413 L 150.5 413 L 149.5 412 L 139.5 412 L 138.5 411 L 127.5 411 L 126.5 410 L 115.5 410 L 114.5 409 L 103.5 409 L 102.5 408 L 91.5 408 L 90.5 407 L 79.5 407 L 78.5 406 L 33.5 403 Q 32.2 400.7 27.5 402 L 24 399.5 L 23 394.5 L 31 379.5 L 37 373.5 L 41 362.5 L 41 358.5 L 46 340.5 L 47 325.5 L 48 324.5 L 48 293.5 L 46 282.5 Q 46.9 275.9 51.5 273 Q 57 270.5 66.5 272 L 67.5 273 L 111 274 L 136 239.5 Q 135.1 224.1 144.5 219 L 148.5 217 L 162 217 Q 163.6 206.9 171.5 202 L 184.5 197 L 202 195 L 202 167.5 L 206.5 160 L 209 158.5 L 209 141.5 L 203 133.5 L 202 125.5 Q 203.8 117.8 209.5 114 L 216.5 112 Q 223.9 113.1 227 118.5 L 231 129.5 L 231 158.5 L 233.5 161 Q 235.8 160.3 235 162.5 L 237 164.5 L 237 194 L 242 194 L 242 190.5 L 248 158.5 L 257 122.5 Q 251.5 120 252 111.5 Q 253.8 102.3 260.5 98 L 267.5 95 L 280.5 94 L 281.5 93 L 292.5 93 L 293.5 92 Z M 294 97 L 293 98 L 273 99 L 262 103 L 257 112 Q 256 117 260 118 L 272 114 L 287 113 L 288 112 L 334 112 L 335 113 L 350 114 L 355 116 L 358 121 L 356 213 L 355 214 L 355 244 L 354 245 L 354 255 L 361 256 L 361 248 L 362 247 L 362 210 L 363 209 L 363 174 L 364 173 L 364 137 L 365 136 L 365 121 L 363 120 Q 360 121 361 119 L 364 117 L 365 114 L 363 105 Q 360 99 353 98 L 342 98 L 341 97 L 294 97 Z M 365 100 L 368 108 L 368 116 L 367 117 L 370 118 L 388 120 L 413 126 Q 417 127 417 124 L 416 114 L 413 110 L 405 107 L 365 100 Z M 294 116 L 293 117 L 274 118 L 265 121 L 261 126 L 258 137 L 249 179 L 247 195 L 313 198 L 314 199 L 325 200 L 329 202 L 335 211 Q 337 216 336 225 L 337 226 L 337 255 L 350 255 L 351 251 L 351 222 L 352 221 L 354 122 L 351 119 L 340 117 L 294 116 Z M 216 117 L 213 118 L 207 126 L 207 131 L 213 139 L 213 159 L 226 159 L 226 130 L 223 122 Q 221 117 216 117 Z M 368 122 L 366 231 L 365 232 L 365 256 L 385 256 L 388 243 L 390 226 L 393 214 L 396 208 L 401 203 L 416 197 L 410 129 L 387 124 L 368 122 Z M 213 163 L 210 164 L 207 167 L 207 195 L 232 195 L 232 166 Q 225 161 213 163 Z M 208 199 L 207 200 L 195 200 L 184 202 L 173 207 L 168 213 L 164 227 L 163 251 L 162 252 L 162 274 L 161 276 L 171 276 L 172 277 L 195 277 L 196 278 L 218 278 L 219 279 L 265 280 L 273 269 L 274 250 L 275 249 L 275 233 L 276 232 L 276 217 L 277 216 L 277 211 L 274 204 L 269 200 L 260 200 L 259 199 L 208 199 Z M 275 200 L 276 201 L 280 209 L 279 240 L 278 241 L 278 255 L 277 256 L 278 262 L 293 242 L 292 240 Q 292 230 296 225 L 306 218 Q 316 216 322 220 L 328 229 L 328 240 L 321 249 L 316 259 L 325 255 L 333 254 L 333 227 L 332 226 L 332 215 L 330 209 L 327 205 L 320 203 L 275 200 Z M 418 200 L 403 206 Q 398 210 396 217 L 389 257 L 409 257 L 410 258 L 415 247 Q 419 240 427 238 L 449 238 L 449 223 L 446 209 Q 443 204 437 202 L 418 200 Z M 156 222 L 148 230 L 116 274 L 117 275 L 134 275 L 158 243 L 159 241 L 160 224 L 161 223 L 156 222 Z M 148 223 L 146 224 L 141 232 L 142 234 L 149 224 L 148 223 Z M 305 223 L 303 224 L 297 232 L 298 236 L 301 229 L 306 224 L 305 223 Z M 312 223 L 309 225 Q 303 229 302 237 L 269 281 L 274 282 Q 280 286 281 295 L 314 248 L 320 245 L 324 239 Q 326 231 323 228 Q 321 222 312 223 Z M 432 241 L 424 243 L 418 249 L 411 268 L 411 269 L 430 268 L 431 267 L 455 267 Q 456 265 461 266 L 463 264 L 462 246 L 457 242 L 432 241 Z M 158 248 L 138 275 L 141 275 L 158 252 L 158 248 Z M 331 258 L 322 260 L 317 263 L 308 272 L 285 305 L 284 307 L 284 319 L 289 321 L 292 311 L 303 292 L 309 287 Q 311 288 310 286 Q 315 280 323 277 L 331 277 L 337 274 Q 343 276 345 273 L 356 273 L 357 274 L 368 272 L 383 272 L 384 271 Q 389 270 391 272 L 406 270 L 409 262 L 392 261 L 391 260 L 335 259 L 331 258 Z M 310 260 L 308 263 L 310 262 L 310 260 Z M 157 261 L 146 276 L 157 276 L 157 261 Z M 308 263 L 302 271 L 303 272 L 308 265 L 308 263 Z M 302 272 L 300 275 L 302 274 L 302 272 Z M 423 272 L 414 274 L 426 275 L 430 278 Q 433 275 441 276 L 441 272 L 423 272 Z M 300 275 L 281 301 L 282 303 L 300 277 L 300 275 Z M 402 275 L 402 276 L 409 277 L 412 280 L 422 278 L 410 275 L 402 275 Z M 381 276 L 375 278 L 388 279 L 393 282 Q 398 279 407 280 L 397 278 L 392 276 L 381 276 Z M 55 277 L 51 282 L 52 295 L 53 296 L 53 322 L 52 323 L 51 339 L 46 362 L 41 377 L 48 378 L 54 362 L 57 349 L 58 336 L 59 335 L 59 321 L 60 320 L 59 315 L 59 298 L 57 290 Q 55 283 59 282 L 93 283 L 94 284 L 119 284 L 120 285 L 146 285 L 147 286 L 170 286 L 171 287 L 193 287 L 194 288 L 217 288 L 218 289 L 246 289 L 247 290 L 263 290 L 264 291 L 265 286 L 253 285 L 252 284 L 229 284 L 228 283 L 201 283 L 200 282 L 177 282 L 176 281 L 152 281 L 151 280 L 127 280 L 126 279 L 100 279 L 99 278 L 55 277 Z M 343 278 L 336 280 L 363 282 Q 364 284 369 283 L 372 285 L 378 283 L 384 283 L 385 282 L 371 280 L 370 279 L 362 279 L 361 278 L 343 278 Z M 436 280 L 435 281 Q 430 279 431 283 Q 429 286 427 281 L 416 282 L 415 283 Q 411 282 412 285 Q 408 286 409 283 Q 405 285 397 284 L 396 285 Q 392 284 393 287 Q 391 290 390 286 L 375 288 L 372 291 L 371 290 Q 361 290 357 297 Q 358 300 355 299 L 346 310 Q 347 314 344 313 Q 339 323 338 337 L 342 336 Q 344 318 353 307 Q 360 297 373 293 L 395 289 L 422 287 L 423 286 L 433 286 L 434 285 L 456 285 L 466 289 L 476 302 L 480 314 L 480 322 L 481 323 Q 482 349 471 365 Q 465 374 453 377 L 373 393 L 363 392 L 357 389 L 348 381 L 343 369 L 340 370 L 340 374 L 344 384 L 348 386 Q 350 387 349 391 Q 354 396 362 398 Q 367 399 368 395 L 369 395 L 369 399 L 386 396 L 387 392 Q 392 391 390 395 L 405 392 L 406 390 L 409 388 L 410 391 L 425 388 L 427 384 Q 431 383 429 387 L 442 384 Q 444 385 443 383 L 447 380 L 449 383 L 461 380 L 462 377 Q 464 373 466 377 L 475 367 Q 473 361 477 362 L 482 350 L 481 345 L 484 340 L 485 326 L 483 322 L 484 318 L 481 303 L 477 299 L 478 298 L 477 293 L 468 284 L 464 286 L 463 283 L 459 280 L 450 280 L 449 283 L 446 283 L 446 280 L 436 280 Z M 324 282 L 314 288 L 321 289 L 351 291 L 356 293 Q 359 288 367 287 L 353 284 L 335 283 L 334 282 L 324 282 Z M 60 285 L 62 301 L 62 334 Q 59 335 61 342 L 57 362 L 51 378 L 254 392 L 260 370 L 262 352 L 263 351 L 263 342 L 264 341 L 264 327 L 265 326 L 265 307 L 264 306 L 264 293 L 252 293 L 251 292 L 227 292 L 226 291 L 203 291 L 202 290 L 180 290 L 179 289 L 156 289 L 155 288 L 130 288 L 129 287 L 103 287 L 102 286 L 60 285 Z M 267 286 L 267 302 L 268 303 L 268 332 L 267 333 L 267 344 L 266 345 L 264 365 L 257 394 L 249 414 L 249 415 L 262 412 L 266 407 L 270 395 L 274 378 L 276 359 L 277 358 L 277 349 L 278 348 L 278 309 L 277 308 L 276 294 L 274 289 Q 272 285 267 286 Z M 438 289 L 437 290 L 408 292 L 407 293 L 399 293 L 398 294 L 379 296 Q 369 297 364 302 L 359 308 L 362 307 L 370 307 L 377 311 Q 381 315 382 322 L 422 315 L 423 311 L 429 300 L 438 295 L 452 295 L 456 297 L 469 313 L 472 326 L 472 332 L 469 345 L 462 354 L 459 361 L 449 367 L 438 366 L 433 363 Q 429 362 430 365 L 421 370 Q 414 371 411 368 Q 403 364 403 354 L 382 358 L 376 368 L 366 374 Q 358 374 355 370 L 352 366 L 348 367 L 348 371 L 351 377 Q 354 381 361 383 L 369 383 L 380 380 L 385 380 L 390 378 L 441 368 L 446 369 L 443 371 L 435 373 L 421 375 L 416 377 L 372 386 L 366 386 L 365 388 L 379 388 L 385 386 L 390 386 L 415 380 L 425 379 L 434 376 L 448 374 L 460 370 Q 469 363 473 352 L 477 330 L 475 311 L 468 297 Q 459 286 438 289 Z M 311 291 Q 304 295 302 303 L 344 307 L 349 299 L 353 296 L 348 294 L 311 291 Z M 438 299 L 436 300 Q 428 305 426 314 L 432 313 Q 433 304 440 300 L 438 299 Z M 447 299 L 444 300 Q 437 304 435 313 L 437 312 L 442 313 L 444 310 Q 448 304 456 303 Q 454 298 447 299 Z M 301 306 L 297 311 L 294 324 L 336 328 Q 336 317 342 311 L 336 309 L 327 309 L 326 308 L 316 308 L 315 307 L 301 306 Z M 454 307 L 452 308 Q 444 313 442 324 L 442 339 L 447 350 L 451 352 L 458 352 L 461 350 L 465 344 L 468 333 L 467 319 L 463 311 Q 461 306 454 307 Z M 362 311 L 358 313 Q 349 318 347 330 Q 346 335 350 333 L 352 328 L 361 322 Q 368 321 371 324 L 379 323 L 377 318 L 370 311 L 362 311 Z M 435 316 L 424 319 L 412 320 L 401 323 L 377 327 Q 382 329 383 336 Q 384 346 380 352 L 378 355 L 439 342 L 438 339 L 438 324 L 440 319 L 440 316 L 435 316 Z M 283 324 L 281 361 L 277 384 L 273 399 L 284 396 L 289 390 L 293 369 L 293 337 L 290 329 Q 288 324 283 324 Z M 361 326 L 357 328 L 356 330 L 364 327 L 361 326 Z M 296 328 L 297 333 L 298 347 L 305 347 L 306 348 L 314 348 L 333 340 L 334 339 Q 333 333 335 331 L 307 329 L 306 328 L 296 328 Z M 368 329 L 298 358 L 297 363 L 296 381 L 296 382 L 318 375 L 374 353 L 379 344 L 378 334 Q 377 328 368 329 Z M 437 346 L 435 348 L 435 354 L 439 360 L 446 363 Q 452 363 455 360 L 457 357 Q 450 357 447 354 L 441 348 Q 442 344 437 346 Z M 432 347 L 406 353 L 409 362 L 415 366 L 424 365 Q 430 361 432 352 L 432 347 Z M 298 350 L 299 354 L 305 352 Q 303 349 298 350 Z M 433 358 L 433 360 L 436 361 L 436 360 L 433 358 Z M 371 359 L 355 365 Q 358 369 364 370 L 373 366 L 376 361 Q 377 358 371 359 Z M 328 375 L 306 384 L 331 386 L 332 387 L 340 387 L 341 388 L 343 388 L 338 378 L 337 376 L 328 375 Z M 37 380 Q 30 387 28 397 Q 33 399 42 398 L 43 399 L 102 403 L 103 404 L 125 405 L 126 406 L 160 408 L 161 409 L 183 410 L 184 411 L 218 413 L 219 414 L 229 414 L 230 415 Q 238 414 244 416 Q 250 407 252 395 L 216 393 L 215 392 L 201 392 L 200 391 L 186 391 L 185 390 L 175 390 L 174 389 L 162 389 L 161 388 L 147 388 L 146 387 L 133 387 L 132 386 L 119 386 L 118 385 L 105 385 L 104 384 L 91 384 L 90 383 L 76 383 L 75 382 L 37 380 Z M 362 386 L 362 387 L 364 387 L 362 386 Z M 308 387 Q 309 392 317 394 L 334 396 L 335 397 L 342 397 L 343 398 L 352 398 L 350 396 L 346 391 L 337 391 L 336 390 L 308 387 Z " /><path fill="rgb(0,0,0)" stroke="rgb(0,0,0)" stroke-width="0" opacity="1" d="M 376.5 130 L 384.5 130 L 395.5 132 Q 401.3 133.3 404 137.5 Q 406.5 143 405 152.5 L 406 153.5 L 407 187.5 L 402.5 194 L 381.5 200 L 375.5 200 L 372 196.5 L 372 141.5 Q 374.8 139.7 373 133.5 L 376.5 130 Z M 379 133 L 376 137 L 376 178 L 375 179 L 375 194 L 376 196 L 383 196 L 401 191 L 403 188 L 401 140 L 396 136 L 379 133 Z " /><path fill="rgb(0,0,0)" stroke="rgb(0,0,0)" stroke-width="0" opacity="1" d="M 275.5 131 Q 281.1 130.9 283 134.5 L 284 136.5 L 280.5 138 Q 279 135.5 273.5 137 L 267.5 141 L 265 141 Q 265.7 135.6 270.5 133 L 275.5 131 Z " /><path fill="rgb(0,0,0)" stroke="rgb(0,0,0)" stroke-width="0" opacity="1" d="M 323.5 131 Q 331.8 131.8 335 137.5 Q 336.9 142.9 333.5 142 L 326.5 137 L 320.5 137 L 317 138 Q 316.3 133.3 320.5 132 L 323.5 131 Z " /><path fill="rgb(0,0,0)" stroke="rgb(0,0,0)" stroke-width="0" opacity="1" d="M 272.5 149 Q 283.1 148.4 286 155.5 Q 290 162 288 174.5 Q 285.4 181.9 279.5 186 L 272.5 188 L 263 184 L 259 175.5 L 259 164.5 Q 260.9 155.4 267.5 151 L 272.5 149 Z M 272 152 L 270 153 L 265 158 L 261 169 Q 261 176 264 181 L 271 185 L 272 185 L 267 178 Q 265 166 270 162 L 275 158 L 283 159 L 284 160 L 282 154 L 279 152 L 272 152 Z M 279 163 Q 276 164 277 169 Q 278 171 282 170 Q 284 169 283 165 Q 282 162 279 163 Z " /><path fill="rgb(0,0,0)" stroke="rgb(0,0,0)" stroke-width="0" opacity="1" d="M 319.5 149 Q 329.5 148.5 333 154.5 Q 337.9 161 336 174.5 L 329.5 185 Q 325.7 189.7 315.5 188 L 308 181.5 L 305 173.5 L 305 168.5 L 308 158.5 L 313.5 152 L 319.5 149 Z M 320 152 L 316 154 L 311 159 L 308 168 L 308 174 L 311 182 L 316 185 L 318 185 L 314 178 Q 312 168 316 164 L 323 158 Q 328 157 331 160 L 332 163 L 333 163 L 331 157 L 325 152 L 320 152 Z M 327 163 Q 323 164 324 169 Q 325 172 329 171 L 331 168 L 330 165 L 327 163 Z " /><path fill="rgb(0,0,0)" stroke="rgb(0,0,0)" stroke-width="0" opacity="1" d="M 178.5 214 Q 188.9 212.6 191 219.5 Q 194 223.5 193 231.5 Q 191.8 238.3 187.5 242 Q 184.2 245.2 176.5 244 L 172 240.5 Q 167.5 236 169 225.5 Q 170.8 218.3 176.5 215 L 178.5 214 Z M 181 217 L 179 218 Q 173 221 172 229 L 174 238 L 179 241 L 185 240 L 189 234 Q 190 223 187 219 L 181 217 Z " /><path fill="rgb(0,0,0)" stroke="rgb(0,0,0)" stroke-width="0" opacity="1" d="M 252.5 214 Q 261.5 214 264 220.5 Q 267.7 224.8 266 234.5 Q 264.2 241.7 258.5 245 L 251.5 247 Q 245.8 245.8 243 241.5 Q 238.5 237 240 226.5 Q 241.8 219.3 247.5 216 L 252.5 214 Z M 252 218 L 250 219 L 244 227 L 245 239 L 251 243 L 257 242 L 261 238 L 263 231 L 261 223 Q 259 217 252 218 Z " /><path fill="rgb(0,0,0)" stroke="rgb(0,0,0)" stroke-width="0" opacity="1" d="M 315.5 228 Q 321.3 227.3 322 231.5 Q 323.3 239.8 318.5 242 Q 313 243 312 239.5 L 311 233.5 L 313 229 L 315.5 228 Z M 317 230 L 314 234 Q 313 239 317 240 L 320 236 L 319 232 L 317 230 Z " /><path fill="rgb(0,0,0)" stroke="rgb(0,0,0)" stroke-width="0" opacity="1" d="M 189.5 252 Q 193.3 250.8 192 254.5 L 197.5 262 Q 203.7 267.3 214.5 268 L 226.5 265 L 237 255.5 L 239.5 252 Q 241.8 251.3 241 253.5 L 241 255.5 L 234.5 264 Q 227.2 271.2 213.5 272 L 203.5 270 L 192 261.5 L 188 253.5 L 189.5 252 Z " /><path fill="rgb(0,0,0)" stroke="rgb(0,0,0)" stroke-width="0" opacity="1" d="M 453.5 319 Q 460 318 461 322.5 Q 463.5 326 462 333.5 L 457.5 340 L 454.5 341 L 449 336.5 L 448 327.5 Q 449.3 321.8 453.5 319 Z M 455 322 L 452 325 L 451 329 L 452 336 Q 453 338 457 337 L 459 333 L 458 324 L 455 322 Z " /><path fill="rgb(0,0,0)" stroke="rgb(0,0,0)" stroke-width="0" opacity="1" d="M 368.5 334 Q 375 333 376 337.5 Q 378 348 371.5 350 Q 366.8 350.8 366 347.5 L 365 338.5 L 368.5 334 Z M 370 337 Q 366 339 368 346 L 372 347 L 374 344 L 373 339 Q 374 336 370 337 Z " /></svg>