<svg width="627" height="627" preserveAspectRatio="xMidYMid meet" viewBox="0 0 512 512" version="1.1" xmlns="http://www.w3.org/2000/svg" ><path fill="rgb(255,255,255)" stroke="rgb(255,255,255)" stroke-width="0" opacity="1" d="M 0 0 L 512 0 L 512 512 L 0 512 L 0 0 Z M 91 63 L 79 68 L 76 73 L 73 83 L 73 95 L 77 108 L 86 115 L 87 117 L 87 163 L 84 164 L 78 172 Q 76 186 80 196 L 86 201 L 88 201 L 88 207 L 87 207 Q 80 211 78 220 Q 77 230 81 235 Q 85 241 95 243 Q 104 243 109 239 L 115 229 L 114 220 L 111 217 L 108 218 L 105 221 L 103 227 L 98 228 L 94 224 L 96 218 L 103 213 L 106 207 L 106 203 L 111 200 L 115 195 L 117 185 Q 119 174 115 169 L 107 163 L 108 122 L 295 260 L 294 263 L 293 284 L 283 286 L 277 294 L 277 323 L 279 326 L 286 329 L 295 329 L 296 330 L 310 330 L 310 335 L 307 334 L 286 334 Q 282 330 275 331 L 273 268 L 272 267 L 271 256 L 267 248 Q 262 241 252 239 L 237 238 L 236 237 L 205 236 L 200 232 Q 201 222 198 217 Q 194 210 186 209 Q 173 208 167 212 L 161 218 L 159 226 L 159 233 L 155 236 L 143 236 L 142 237 L 134 237 L 124 239 L 111 245 L 101 256 L 91 283 L 89 281 L 84 280 L 76 282 Q 71 285 70 291 L 70 315 L 71 317 L 79 323 Q 74 329 72 340 L 71 381 L 68 382 L 66 386 L 66 407 L 67 410 Q 70 414 76 415 L 90 417 L 95 428 Q 100 434 108 437 L 119 439 L 137 438 L 146 433 L 152 425 L 154 423 L 200 423 L 210 420 Q 211 429 216 436 Q 223 445 237 448 L 260 448 L 269 444 Q 282 435 284 416 Q 285 413 290 414 L 293 411 L 311 410 L 311 415 L 316 426 Q 320 432 328 435 L 342 438 L 359 437 L 369 431 L 375 423 Q 377 422 376 425 L 386 431 L 397 433 L 411 432 L 417 429 Q 430 420 431 399 L 439 398 L 443 393 L 443 370 L 442 369 L 446 363 L 446 339 L 445 337 L 441 333 L 420 333 L 419 330 L 426 329 L 430 325 L 430 315 L 431 314 L 431 294 L 430 290 L 424 284 L 413 283 L 411 284 L 411 272 L 412 271 L 412 243 L 406 229 L 395 220 Q 386 217 374 219 L 372 218 L 337 196 L 210 123 L 134 83 L 122 78 L 119 73 Q 115 66 106 64 L 91 63 Z " /><path fill="rgb(255,255,255)" stroke="rgb(255,255,255)" stroke-width="0" opacity="1" d="M 89.5 68 L 101 68.5 L 96 72.5 Q 90.1 81.1 92 97.5 L 89.5 100 L 80.5 100 L 79 98.5 Q 76.2 92.3 78 81.5 Q 79.2 73.7 84.5 70 L 89.5 68 Z " /><path fill="rgb(255,255,255)" stroke="rgb(255,255,255)" stroke-width="0" opacity="1" d="M 104.5 70 Q 111.8 69.2 114 73.5 L 117.5 81 L 158.5 101 L 219.5 134 L 327.5 196 L 369 221.5 L 361.5 226 L 206.5 135 L 148.5 103 L 108.5 83 L 102 88.5 L 101 95.5 L 105.5 103 L 111.5 104 L 114 103 L 115.5 100 L 116 101.5 L 108.5 111 Q 104.1 114.1 95.5 113 Q 94.3 110.7 89.5 112 L 82 106.5 L 81 103.5 L 82.5 104 Q 91.2 105.2 94 100.5 L 97 77.5 L 102.5 71 L 104.5 70 Z " /><path fill="rgb(255,255,255)" stroke="rgb(255,255,255)" stroke-width="0" opacity="1" d="M 108.5 87 L 113 88 Q 114.8 90.4 114 96.5 L 111.5 100 Q 107 101 106 98.5 L 105 91.5 L 108.5 87 Z " /><path fill="rgb(255,255,255)" stroke="rgb(255,255,255)" stroke-width="0" opacity="1" d="M 121.5 93 L 134 99.5 L 118.5 113 L 115 110.5 Q 120.9 104.4 121.5 93 Z " /><path fill="rgb(255,255,255)" stroke="rgb(255,255,255)" stroke-width="0" opacity="1" d="M 136.5 102 Q 139.1 101.2 138 104.5 L 148 132.5 L 146.5 133 L 122 116 L 125.5 111 L 136.5 102 Z " /><path fill="rgb(255,255,255)" stroke="rgb(255,255,255)" stroke-width="0" opacity="1" d="M 142.5 104 L 178 123 Q 179.3 126 175.5 125 L 152.5 135 L 146 118.5 L 142.5 104 Z " /><path fill="rgb(255,255,255)" stroke="rgb(255,255,255)" stroke-width="0" opacity="1" d="M 112.5 113 Q 225.2 190.8 333 273.5 L 328.5 281 L 239.5 213 L 108 116.5 L 112.5 113 Z " /><path fill="rgb(255,255,255)" stroke="rgb(255,255,255)" stroke-width="0" opacity="1" d="M 91 117 L 102.5 117 L 103 117.5 L 103 163 L 91.5 163 L 91 162.5 L 91 117 Z " /><path fill="rgb(255,255,255)" stroke="rgb(255,255,255)" stroke-width="0" opacity="1" d="M 182.5 126 L 188 144.5 L 191 160.5 L 193 164.5 L 191.5 165 L 155 138.5 L 182.5 126 Z " /><path fill="rgb(255,255,255)" stroke="rgb(255,255,255)" stroke-width="0" opacity="1" d="M 187.5 129 L 220 147.5 L 196 166 L 187.5 129 Z " /><path fill="rgb(255,255,255)" stroke="rgb(255,255,255)" stroke-width="0" opacity="1" d="M 222.5 150 Q 225.5 149.5 224 156.5 L 225 157.5 L 228 190.5 L 226.5 190 L 198 169.5 L 222.5 150 Z " /><path fill="rgb(255,255,255)" stroke="rgb(255,255,255)" stroke-width="0" opacity="1" d="M 228.5 152 L 259 169 Q 260.1 171.7 257.5 171 L 232.5 192 L 230 179.5 L 230 171.5 L 229 170.5 L 228.5 152 Z " /><path fill="rgb(255,255,255)" stroke="rgb(255,255,255)" stroke-width="0" opacity="1" d="M 87.5 167 L 95 167.5 L 93 168 L 91.5 171 L 84.5 171 L 84 169.5 L 87.5 167 Z " /><path fill="rgb(255,255,255)" stroke="rgb(255,255,255)" stroke-width="0" opacity="1" d="M 99.5 167 Q 108.5 165.5 111 170.5 L 112 172.5 L 112 187.5 L 111 192.5 L 107.5 197 L 100.5 198 L 97 195.5 L 95 189.5 L 95 171.5 L 99.5 167 Z M 103 173 Q 98 175 99 183 L 104 186 L 107 185 L 109 182 L 108 176 Q 107 172 103 173 Z " /><path fill="rgb(255,255,255)" stroke="rgb(255,255,255)" stroke-width="0" opacity="1" d="M 262.5 172 L 266 218.5 L 263.5 217 L 234 195.5 Q 233.3 193.3 235.5 194 L 262.5 172 Z " /><path fill="rgb(255,255,255)" stroke="rgb(255,255,255)" stroke-width="0" opacity="1" d="M 83 174 L 91 174 L 91 185.5 Q 93.5 187 92 192.5 L 94 196.5 L 87.5 197 L 83 190.5 L 83 174 Z " /><path fill="rgb(255,255,255)" stroke="rgb(255,255,255)" stroke-width="0" opacity="1" d="M 266 174 L 299 193.5 L 269.5 220 L 266 174 Z " /><path fill="rgb(255,255,255)" stroke="rgb(255,255,255)" stroke-width="0" opacity="1" d="M 102 176 L 106 177.5 Q 107 182 104.5 183 L 102 181.5 L 101 179.5 L 102 176 Z " /><path fill="rgb(255,255,255)" stroke="rgb(255,255,255)" stroke-width="0" opacity="1" d="M 301.5 195 L 303 246 L 298.5 244 L 271 222.5 L 301.5 195 Z " /><path fill="rgb(255,255,255)" stroke="rgb(255,255,255)" stroke-width="0" opacity="1" d="M 305 197 L 338 216.5 L 306.5 246 L 306 204.5 L 305 203.5 L 305 197 Z " /><path fill="rgb(255,255,255)" stroke="rgb(255,255,255)" stroke-width="0" opacity="1" d="M 92 202 L 102 202 L 102 206.5 L 97.5 212 L 92 216.5 L 90 223.5 L 93.5 230 L 100.5 232 L 106 228.5 L 109.5 221 L 111 221.5 L 111 228.5 L 106.5 236 L 99.5 239 L 94.5 239 L 85 233.5 Q 81.1 229.4 82 220.5 Q 83.4 212.4 89.5 209 L 92 207.5 L 92 202 Z " /><path fill="rgb(255,255,255)" stroke="rgb(255,255,255)" stroke-width="0" opacity="1" d="M 172.5 214 L 186.5 214 L 194 219.5 L 196 233 L 188.5 233 L 187.5 234 L 169.5 234 L 164 233 Q 161.8 220.5 168.5 216 L 172.5 214 Z " /><path fill="rgb(255,255,255)" stroke="rgb(255,255,255)" stroke-width="0" opacity="1" d="M 340.5 219 L 341 235.5 L 342 236.5 L 342 257.5 L 334.5 270 L 307 249.5 L 340.5 219 Z " /><path fill="rgb(255,255,255)" stroke="rgb(255,255,255)" stroke-width="0" opacity="1" d="M 344.5 220 L 359 228.5 Q 350.5 237.5 345.5 250 L 344.5 220 Z " /><path fill="rgb(255,255,255)" stroke="rgb(255,255,255)" stroke-width="0" opacity="1" d="M 374.5 224 L 391.5 224 Q 399.4 226.1 403 232.5 L 407 241.5 L 407 279.5 L 406 284 L 350.5 285 L 351 283.5 L 373 236.5 L 379 229.5 L 376.5 229 L 367 240.5 L 345.5 285 L 332 284.5 L 356 239.5 L 365.5 228 L 374.5 224 Z M 388 234 L 384 236 L 379 244 L 380 255 Q 382 260 389 261 L 396 259 Q 400 256 401 251 Q 402 241 398 238 Q 395 233 388 234 Z " /><path fill="rgb(255,255,255)" stroke="rgb(255,255,255)" stroke-width="0" opacity="1" d="M 160.5 237 L 199.5 237 L 201 238.5 L 199.5 240 L 160.5 240 Q 157.5 238.5 160.5 237 Z " /><path fill="rgb(255,255,255)" stroke="rgb(255,255,255)" stroke-width="0" opacity="1" d="M 389.5 237 L 395 239 L 397 242.5 L 397 251.5 L 393.5 256 L 387.5 257 Q 381.9 254.6 382 246.5 L 385.5 239 L 389.5 237 Z " /><path fill="rgb(255,255,255)" stroke="rgb(255,255,255)" stroke-width="0" opacity="1" d="M 150.5 240 L 153.5 240 L 156.5 243 Q 161.3 241.7 162.5 244 L 196.5 244 Q 197.8 241.7 202.5 243 L 205.5 240 L 206.5 241 L 226.5 241 L 227.5 242 L 246.5 243 L 255.5 245 L 264 251.5 L 267 258.5 L 268 275.5 L 269 276.5 L 269 298.5 L 270 299.5 L 270 360.5 L 268.5 360 L 255.5 358 L 244.5 360 L 235.5 364 L 223 375.5 L 215 390.5 L 213 398.5 L 211.5 415 L 211 394.5 L 207.5 390 L 204 388.5 L 205 387.5 L 205 332.5 L 206.5 327 L 209.5 331 Q 214.6 333.4 223.5 332 L 231 326.5 L 232.5 324 L 249.5 323 L 257 320 L 260 313.5 L 260 272.5 Q 257.5 271 259 265.5 L 254.5 259 L 249.5 257 L 223.5 257 L 216.5 259 L 212 263.5 L 209 274.5 L 208 291.5 L 205 300.5 L 205 316.5 L 204 317.5 L 204 325.5 L 203 326.5 L 202 342.5 L 201 343.5 L 201 390 L 127.5 389 L 126.5 388 L 115.5 388 L 114.5 387 L 104.5 387 L 103.5 386 L 88.5 385 L 77.5 383 L 76 381.5 L 76 347.5 L 77 346.5 L 78 334.5 L 85 320.5 L 93 289.5 L 101 265.5 L 110.5 251 L 123.5 244 L 138.5 241 L 149.5 241 L 150.5 240 Z M 129 253 L 128 254 L 119 254 L 111 257 Q 105 261 103 269 L 89 318 Q 88 324 91 327 L 99 330 L 114 331 L 115 332 L 156 333 L 157 334 L 182 334 L 192 332 Q 196 329 197 324 L 199 300 L 200 299 L 200 290 L 201 289 L 201 279 L 202 278 L 202 264 L 201 262 L 196 257 L 188 255 L 164 254 L 163 253 L 129 253 Z M 246 331 L 242 332 L 238 337 L 239 343 L 243 345 L 257 343 Q 260 341 259 335 L 256 331 L 246 331 Z M 105 354 L 103 355 Q 98 356 99 361 L 103 360 L 104 364 Q 110 373 124 376 Q 140 377 148 370 L 154 362 L 158 364 L 159 362 L 153 356 L 150 358 L 152 361 Q 146 370 134 372 L 124 372 L 114 368 L 106 360 L 107 356 L 105 354 Z " /><path fill="rgb(255,255,255)" stroke="rgb(255,255,255)" stroke-width="0" opacity="1" d="M 133.5 257 L 175.5 258 L 176.5 259 L 191.5 260 L 197 262 L 198 264.5 L 198 277.5 L 197 278.5 L 197 287.5 L 196 288.5 L 196 297.5 L 195 298.5 L 193 323.5 L 191 328 L 182.5 330 L 151.5 330 L 150.5 329 L 127.5 329 L 126.5 328 L 105.5 327 Q 104 324.5 98.5 326 L 94 323.5 L 93 318.5 L 97 300.5 L 106 271.5 L 109 264.5 L 113.5 260 L 119.5 258 L 132.5 258 L 133.5 257 Z M 123 271 L 120 273 Q 116 275 116 280 L 125 276 L 131 278 L 132 275 Q 131 270 123 271 Z M 168 272 L 166 273 L 163 278 L 168 277 Q 175 276 178 281 L 180 280 L 179 277 Q 177 271 168 272 Z M 122 288 L 118 290 Q 112 295 110 304 Q 109 313 113 318 L 122 323 L 130 321 Q 135 317 137 310 Q 139 298 134 293 L 129 288 L 122 288 Z M 166 289 L 160 292 L 153 304 Q 151 315 156 320 L 162 324 L 171 324 L 176 321 L 181 311 Q 182 301 179 296 L 172 289 L 166 289 Z " /><path fill="rgb(255,255,255)" stroke="rgb(255,255,255)" stroke-width="0" opacity="1" d="M 224.5 261 L 248.5 261 L 254 264.5 L 256 275.5 L 256 312.5 L 252.5 318 L 242.5 320 L 234.5 320 L 233.5 321 L 233 297.5 L 230 291 L 223.5 288 L 215.5 288 L 212 289 L 214 268.5 L 219.5 262 L 224.5 261 Z " /><path fill="rgb(255,255,255)" stroke="rgb(255,255,255)" stroke-width="0" opacity="1" d="M 299.5 264 L 312 273.5 L 311 285 L 297.5 285 L 297 281.5 L 298 280.5 Q 296.5 270 299.5 264 Z " /><path fill="rgb(255,255,255)" stroke="rgb(255,255,255)" stroke-width="0" opacity="1" d="M 316.5 277 L 327 284.5 L 314.5 285 L 315 283.5 Q 313.8 278.3 316.5 277 Z " /><path fill="rgb(255,255,255)" stroke="rgb(255,255,255)" stroke-width="0" opacity="1" d="M 80.5 285 Q 87.5 283.5 89 287.5 L 83 312.5 L 80.5 317 Q 75.8 317.8 75 314.5 L 74 311.5 L 74 296.5 Q 76.3 295.3 75 290.5 L 78.5 286 L 80.5 285 Z " /><path fill="rgb(255,255,255)" stroke="rgb(255,255,255)" stroke-width="0" opacity="1" d="M 394.5 288 L 420.5 288 L 425 290.5 L 426 292.5 L 426 321.5 L 425 324 L 413.5 326 L 345.5 327 L 344 325.5 L 344 293.5 L 346.5 290 L 348.5 289 L 393.5 289 L 394.5 288 Z " /><path fill="rgb(255,255,255)" stroke="rgb(255,255,255)" stroke-width="0" opacity="1" d="M 287.5 289 L 343 289.5 L 340 294.5 L 340 324.5 L 341 327 L 292.5 325 Q 290.7 322.3 284.5 324 L 282 321.5 L 281 318.5 L 281 303.5 L 282 302.5 L 282 293.5 L 284.5 290 L 287.5 289 Z " /><path fill="rgb(255,255,255)" stroke="rgb(255,255,255)" stroke-width="0" opacity="1" d="M 121.5 291 Q 131.3 289.3 133 295.5 L 134 298.5 L 133 298.5 Q 133.8 296.3 131.5 297 Q 130 294.5 124.5 296 L 118 304.5 L 118 313.5 L 121.5 319 L 123 319.5 L 120.5 320 L 114 314.5 L 113 302.5 Q 114.1 295.1 119.5 292 L 121.5 291 Z " /><path fill="rgb(255,255,255)" stroke="rgb(255,255,255)" stroke-width="0" opacity="1" d="M 164.5 292 L 171.5 292 L 175 294 L 178 300.5 L 176 299.5 Q 176.8 297.3 174.5 298 Q 173.2 295.8 168.5 297 L 163 301.5 Q 159.5 305.5 161 314.5 L 166 321.5 L 163.5 322 L 158 317.5 Q 154.2 312.8 156 302.5 L 161.5 294 L 164.5 292 Z " /><path fill="rgb(255,255,255)" stroke="rgb(255,255,255)" stroke-width="0" opacity="1" d="M 215.5 292 Q 225.2 290.9 228 296.5 L 229 315.5 Q 226.5 317 228 322.5 L 224.5 327 Q 221 329.5 213.5 328 L 210 325.5 L 209 323.5 L 209 302.5 L 210 297.5 L 213.5 293 L 215.5 292 Z " /><path fill="rgb(255,255,255)" stroke="rgb(255,255,255)" stroke-width="0" opacity="1" d="M 128.5 300 Q 132.9 298.5 132 301.5 L 133 303.5 L 130.5 307 L 127 304.5 Q 126.3 300.8 128.5 300 Z " /><path fill="rgb(255,255,255)" stroke="rgb(255,255,255)" stroke-width="0" opacity="1" d="M 172.5 301 L 176 303.5 Q 176.8 307.3 174.5 308 Q 170.1 309.5 171 306.5 L 170 304.5 L 172.5 301 Z " /><path fill="rgb(255,255,255)" stroke="rgb(255,255,255)" stroke-width="0" opacity="1" d="M 405.5 330 L 414 330 L 414 334.5 L 411.5 335 L 315 336 L 315.5 331 L 331.5 331 L 332.5 332 L 371.5 332 L 372.5 331 L 404.5 331 L 405.5 330 Z " /><path fill="rgb(255,255,255)" stroke="rgb(255,255,255)" stroke-width="0" opacity="1" d="M 253.5 334 L 256 337.5 L 255 340 Q 250.4 342 242 341 Q 240.8 336.4 243.5 335 L 252.5 335 L 253.5 334 Z " /><path fill="rgb(255,255,255)" stroke="rgb(255,255,255)" stroke-width="0" opacity="1" d="M 275 336 Q 282.1 334.3 284 338.5 L 283.5 370 L 274 361.5 L 275 336 Z " /><path fill="rgb(255,255,255)" stroke="rgb(255,255,255)" stroke-width="0" opacity="1" d="M 436.5 337 L 441 338 L 442 343.5 L 442 354.5 Q 439.3 356.2 441 362.5 L 439.5 364 Q 429.9 362.6 426 365 L 426 363.5 L 417.5 355 L 408.5 352 L 403.5 352 Q 388.4 354.4 382 365.5 L 378.5 372 Q 375.2 363.8 368.5 359 Q 362.2 352.8 347.5 355 Q 335.2 358.7 329 368.5 L 324 379 Q 320.8 376 312.5 377 L 311.5 378 L 297.5 378 L 296.5 379 L 289 379 L 288 376.5 L 288 357 L 317.5 356 L 318.5 355 L 338.5 355 L 339.5 354 L 359.5 354 L 360.5 353 L 378.5 353 L 379.5 352 L 397.5 352 L 398.5 351 L 416.5 351 L 417.5 350 L 426 350 L 426 358.5 L 428 359 L 429 349.5 L 428 347 L 288 353 L 288 338 L 310 338 Q 311.1 340.7 308.5 340 L 307.5 341 L 295 341 L 295.5 344 L 305.5 344 Q 306.8 341.8 311.5 343 L 313 341.5 L 314.5 339 L 317.5 340 L 365.5 340 L 366.5 339 L 400.5 339 L 401.5 338 L 435.5 338 L 436.5 337 Z " /><path fill="rgb(255,255,255)" stroke="rgb(255,255,255)" stroke-width="0" opacity="1" d="M 403.5 356 Q 415 356 420 362.5 Q 424.7 367.3 426 375.5 L 425 375.5 L 420.5 369 Q 415.5 363.5 403.5 365 Q 395.5 367.5 391 373.5 Q 381.7 384.2 383 405.5 L 385 414.5 L 392.5 426 L 395 427.5 L 393.5 428 L 383.5 425 L 379 420.5 L 377 416.5 L 380 406.5 L 381 380.5 L 380 377.5 L 390.5 362 L 403.5 356 Z " /><path fill="rgb(255,255,255)" stroke="rgb(255,255,255)" stroke-width="0" opacity="1" d="M 348.5 359 Q 357.4 357.6 362.5 360 L 372 368.5 L 377 382.5 L 376 382.5 Q 373.6 373.9 366.5 370 L 358.5 367 L 352.5 367 Q 343.3 369.8 338 376.5 L 331 389.5 L 329 407.5 L 332 420.5 L 339.5 431 L 342 432.5 L 339.5 433 L 330.5 431 L 321 424.5 Q 316 418.3 315 409 Q 320.7 410 323 406.5 Q 326.4 398.9 325 386.5 L 327 380.5 Q 330.7 370.2 338.5 364 L 348.5 359 Z " /><path fill="rgb(255,255,255)" stroke="rgb(255,255,255)" stroke-width="0" opacity="1" d="M 254.5 362 Q 275.4 362.1 283 375.5 Q 291 387 290 407.5 Q 288.8 410 285 409 L 284 389.5 L 277 377 L 270.5 373 L 264.5 371 L 258.5 371 Q 246.8 373.3 240 380.5 L 232 392.5 Q 228.4 399.9 228 410.5 L 225.5 414 L 217.5 415 L 216 413.5 L 216 405.5 L 220 388.5 Q 224.6 377.1 233.5 370 L 242.5 365 L 254.5 362 Z " /><path fill="rgb(255,255,255)" stroke="rgb(255,255,255)" stroke-width="0" opacity="1" d="M 428 368 L 436.5 368 L 438 369.5 L 438 392.5 L 436.5 394 Q 431.1 394.6 431 393.5 L 431 377.5 L 428 368 Z " /><path fill="rgb(255,255,255)" stroke="rgb(255,255,255)" stroke-width="0" opacity="1" d="M 403.5 369 L 411.5 369 L 419 373 L 425 383.5 L 427 398.5 Q 424.5 400 426 405.5 L 422 416.5 L 415.5 424 Q 411.5 428 403.5 428 Q 396.6 426.4 393 421.5 L 388 411.5 L 387 392.5 Q 389.5 378 399.5 371 L 403.5 369 Z M 408 381 L 401 384 L 396 395 Q 395 406 399 412 L 407 416 L 411 415 L 416 410 L 419 401 L 419 395 L 417 388 Q 415 382 408 381 Z " /><path fill="rgb(255,255,255)" stroke="rgb(255,255,255)" stroke-width="0" opacity="1" d="M 354.5 371 Q 365.5 372 370 379.5 L 375 390.5 L 376 402.5 L 372 418.5 L 362.5 430 Q 358.2 433.2 350.5 433 L 340 426.5 L 334 414.5 L 333 397.5 Q 335.3 383.8 343.5 376 L 354.5 371 Z M 355 384 L 351 386 Q 344 390 343 399 Q 342 409 345 415 L 352 420 L 360 419 Q 365 415 367 407 Q 369 396 365 391 Q 363 384 355 384 Z " /><path fill="rgb(255,255,255)" stroke="rgb(255,255,255)" stroke-width="0" opacity="1" d="M 254.5 377 Q 268 376 273 383.5 Q 278.2 389.4 280 398.5 L 280 417.5 L 275 430.5 L 267.5 439 Q 262.2 444.7 249.5 443 Q 242.8 440.8 239 435.5 L 233 421.5 L 233 403.5 Q 235.9 389.9 244.5 382 L 254.5 377 Z M 257 391 L 254 392 Q 246 397 244 407 Q 243 418 247 425 L 255 430 L 262 429 Q 269 424 271 415 Q 273 402 268 397 L 262 391 L 257 391 Z " /><path fill="rgb(255,255,255)" stroke="rgb(255,255,255)" stroke-width="0" opacity="1" d="M 310.5 381 L 319.5 381 L 320 382.5 L 321 383.5 L 321 394.5 Q 318.3 396.2 320 402.5 L 318.5 404 L 316.5 405 L 294 406 L 294 395.5 L 291 383.5 L 294.5 382 L 309.5 382 L 310.5 381 Z " /><path fill="rgb(255,255,255)" stroke="rgb(255,255,255)" stroke-width="0" opacity="1" d="M 72.5 385 L 90.5 389 L 97.5 389 L 106.5 391 L 116.5 391 L 117.5 392 L 129.5 392 L 130.5 393 L 145.5 393 L 146.5 394 L 200.5 394 L 205.5 393 L 207 394.5 L 207 414.5 L 204.5 417 L 191.5 418 L 190.5 419 L 161.5 419 L 160.5 418 L 139.5 418 L 138.5 417 L 127.5 417 L 126.5 416 L 114.5 416 L 113.5 415 L 96.5 414 L 75.5 410 L 71 406.5 L 70 390.5 L 72.5 385 Z " /><path fill="rgb(255,255,255)" stroke="rgb(255,255,255)" stroke-width="0" opacity="1" d="M 406.5 385 Q 411.3 385.3 413 388.5 Q 416 392.5 415 400.5 L 412 408.5 L 409.5 411 L 405.5 412 L 402 409.5 Q 398.2 404.8 400 394.5 L 404.5 386 L 406.5 385 Z M 408 391 L 406 392 L 402 398 L 403 404 L 409 406 Q 414 404 412 395 L 408 391 Z " /><path fill="rgb(255,255,255)" stroke="rgb(255,255,255)" stroke-width="0" opacity="1" d="M 354.5 388 Q 360.1 388.5 362 392.5 Q 364.4 397.6 363 406.5 L 357.5 416 L 354.5 417 L 349 413.5 Q 345 408.5 347 397.5 Q 348.3 391.8 352.5 389 L 354.5 388 Z M 354 395 Q 348 397 350 407 Q 351 411 357 410 Q 362 408 360 399 Q 359 394 354 395 Z " /><path fill="rgb(255,255,255)" stroke="rgb(255,255,255)" stroke-width="0" opacity="1" d="M 407.5 394 Q 410.5 395.5 409 401.5 L 406 403 L 405 397.5 L 407.5 394 Z " /><path fill="rgb(255,255,255)" stroke="rgb(255,255,255)" stroke-width="0" opacity="1" d="M 255.5 395 Q 263.1 393.9 265 398.5 L 267 402.5 L 267 415.5 Q 265.2 422.7 259.5 426 Q 253 427 251 423.5 Q 246.2 418.3 248 406.5 Q 249.8 398.9 255.5 395 Z M 258 402 L 256 403 L 252 408 L 253 417 L 257 419 L 261 418 L 264 412 L 263 406 Q 263 402 258 402 Z " /><path fill="rgb(255,255,255)" stroke="rgb(255,255,255)" stroke-width="0" opacity="1" d="M 354.5 398 L 357 399.5 Q 358.5 405.5 355.5 407 L 353 405.5 Q 351.5 399.5 354.5 398 Z " /><path fill="rgb(255,255,255)" stroke="rgb(255,255,255)" stroke-width="0" opacity="1" d="M 258.5 405 L 261 410.5 L 257.5 416 Q 254 415 255 409.5 L 256 406 L 258.5 405 Z " /><path fill="rgb(255,255,255)" stroke="rgb(255,255,255)" stroke-width="0" opacity="1" d="M 228.5 416 L 231 428.5 Q 234.2 436.8 240.5 442 L 242 442.5 L 236.5 443 Q 226.3 441.3 221 434.5 Q 215.4 429.1 215 418.5 L 216.5 419 Q 225.3 420.3 228.5 416 Z " /><path fill="rgb(255,255,255)" stroke="rgb(255,255,255)" stroke-width="0" opacity="1" d="M 96 418 L 106.5 419 L 108 420.5 Q 110.2 428.9 116.5 433 L 118 433.5 L 116.5 434 L 108.5 432 L 100 426.5 L 96 418 Z " /><path fill="rgb(255,255,255)" stroke="rgb(255,255,255)" stroke-width="0" opacity="1" d="M 112 420 L 128.5 421 L 129.5 422 L 145.5 422 L 148 423.5 Q 144 430 136.5 433 L 126.5 434 Q 118.2 431.9 114 425.5 L 112 420 Z " /><path fill="rgb(0,0,0)" stroke="rgb(0,0,0)" stroke-width="0" opacity="1" d="M 90.5 63 L 105.5 64 Q 114.8 65.8 119 72.5 L 121.5 78 L 133.5 83 L 209.5 123 L 336.5 196 L 371.5 218 L 373.5 219 Q 386.2 217.3 394.5 220 L 406 228.5 L 412 242.5 L 412 270.5 L 411 271.5 L 411 283.5 L 412.5 283 L 423.5 284 L 430 289.5 L 431 293.5 L 431 313.5 L 430 314.5 L 430 324.5 L 425.5 329 L 419 330 L 419.5 333 L 440.5 333 L 445 336.5 L 446 338.5 L 446 362.5 L 442 368.5 L 443 369.5 L 443 392.5 L 438.5 398 L 431 399 Q 430.1 419.8 416.5 429 L 410.5 432 L 396.5 433 L 385.5 431 L 376 424.5 Q 376.8 422.3 374.5 423 L 368.5 431 L 358.5 437 L 341.5 438 L 327.5 435 Q 320 432 316 425.5 L 311 414.5 L 311 410 L 292.5 411 L 289.5 414 Q 285 413 284 415.5 Q 282 435.5 268.5 444 L 259.5 448 L 236.5 448 Q 222.6 445.4 216 435.5 Q 210.9 429.1 210 420 L 199.5 423 L 153.5 423 L 152 424.5 L 145.5 433 L 136.5 438 L 118.5 439 L 107.5 437 Q 99.8 433.8 95 427.5 L 89.5 417 L 75.5 415 Q 69.8 413.8 67 409.5 L 66 406.5 L 66 385.5 L 68 382 L 71 380.5 L 72 339.5 Q 73.6 329.1 79 322.5 L 71 316.5 L 70 314.5 L 70 290.5 Q 71.3 284.8 75.5 282 L 83.5 280 L 88.5 281 L 90.5 283 L 101 255.5 L 110.5 245 L 123.5 239 L 133.5 237 L 141.5 237 L 142.5 236 L 154.5 236 L 159 233 L 159 225.5 L 161 217.5 L 166.5 212 Q 173 207.5 185.5 209 Q 194 210.5 198 216.5 Q 201.1 221.9 200 231.5 L 204.5 236 L 235.5 237 L 236.5 238 L 251.5 239 Q 261.8 240.8 267 247.5 L 271 255.5 L 272 266.5 L 273 267.5 L 275 331 Q 282.3 329.9 285.5 334 L 306.5 334 L 310 335 L 310 330 L 295.5 330 L 294.5 329 L 285.5 329 L 279 325.5 L 277 322.5 L 277 293.5 L 282.5 286 L 293 284 L 294 262.5 L 295 260 L 107.5 122 L 107 162.5 L 115 168.5 Q 118.6 173.9 117 184.5 L 115 194.5 L 110.5 200 L 106 202.5 L 106 206.5 L 103 213 L 96 217.5 L 94 223.5 L 97.5 228 L 103 227 L 105 220.5 L 107.5 218 L 110.5 217 L 114 219.5 L 115 228.5 L 108.5 239 Q 104 243.5 94.5 243 Q 85.3 241.3 81 234.5 Q 76.8 229.7 78 219.5 Q 80.2 211.2 86.5 207 L 88 206.5 L 88 201 L 85.5 201 L 80 195.5 Q 76.1 186.4 78 171.5 L 83.5 164 L 87 163 L 87 116.5 L 85.5 115 L 77 107.5 L 73 94.5 L 73 82.5 L 76 72.5 L 79 68 L 90.5 63 Z M 90 68 L 85 70 Q 79 74 78 82 Q 76 92 79 99 L 81 100 L 90 100 L 92 98 Q 90 81 96 73 L 101 69 L 90 68 Z M 105 70 L 103 71 L 97 78 L 94 101 Q 91 105 83 104 L 81 104 L 82 107 L 90 112 Q 94 111 96 113 Q 104 114 109 111 L 116 102 L 116 100 L 114 103 L 112 104 L 106 103 L 101 96 L 102 89 L 109 83 L 149 103 L 207 135 L 362 226 L 369 222 L 328 196 L 220 134 L 159 101 L 118 81 L 114 74 Q 112 69 105 70 Z M 109 87 L 105 92 L 106 99 Q 107 101 112 100 L 114 97 Q 115 90 113 88 L 109 87 Z M 122 93 Q 121 104 115 111 L 119 113 L 134 100 L 122 93 Z M 137 102 L 126 111 L 122 116 L 147 133 L 148 133 L 138 105 Q 139 101 137 102 Z M 143 104 L 146 119 L 153 135 L 176 125 Q 179 126 178 123 L 143 104 Z M 113 113 L 108 117 L 240 213 L 329 281 L 333 274 Q 225 191 113 113 Z M 91 117 L 91 163 L 92 163 L 103 163 L 103 118 L 103 117 L 91 117 Z M 183 126 L 155 139 L 192 165 L 193 165 L 191 161 L 188 145 L 183 126 Z M 188 129 L 196 166 L 220 148 L 188 129 Z M 223 150 L 198 170 L 227 190 L 228 191 L 225 158 L 224 157 Q 225 149 223 150 Z M 229 152 L 229 171 L 230 172 L 230 180 L 233 192 L 258 171 Q 260 172 259 169 L 229 152 Z M 88 167 L 84 170 L 85 171 L 92 171 L 93 168 L 95 168 L 88 167 Z M 100 167 L 95 172 L 95 190 L 97 196 L 101 198 L 108 197 L 111 193 L 112 188 L 112 173 L 111 171 Q 109 165 100 167 Z M 263 172 L 236 194 Q 233 193 234 196 L 264 217 L 266 219 L 263 172 Z M 83 174 L 83 191 L 88 197 L 94 197 L 92 193 Q 94 187 91 186 L 91 174 L 83 174 Z M 266 174 L 270 220 L 299 194 L 266 174 Z M 302 195 L 271 223 L 299 244 L 303 246 L 302 195 Z M 305 197 L 305 204 L 306 205 L 307 246 L 338 217 L 305 197 Z M 92 202 L 92 208 L 90 209 Q 83 212 82 221 Q 81 229 85 234 L 95 239 L 100 239 L 107 236 L 111 229 L 111 222 L 110 221 L 106 229 L 101 232 L 94 230 L 90 224 L 92 217 L 98 212 L 102 207 L 102 202 L 92 202 Z M 173 214 L 169 216 Q 162 221 164 233 L 170 234 L 188 234 L 189 233 L 196 233 L 194 220 L 187 214 L 173 214 Z M 341 219 L 307 250 L 335 270 L 342 258 L 342 237 L 341 236 L 341 219 Z M 345 220 L 346 250 Q 350 237 359 229 L 345 220 Z M 375 224 L 366 228 L 356 240 L 332 285 L 346 285 L 367 241 L 377 229 L 379 230 L 373 237 L 351 284 L 351 285 L 406 284 L 407 280 L 407 242 L 403 233 Q 399 226 392 224 L 375 224 Z M 161 237 Q 158 239 161 240 L 200 240 L 201 239 L 200 237 L 161 237 Z M 151 240 L 150 241 L 139 241 L 124 244 L 111 251 L 101 266 L 93 290 L 85 321 L 78 335 L 77 347 L 76 348 L 76 382 L 78 383 L 89 385 L 104 386 L 105 387 L 115 387 L 116 388 L 127 388 L 128 389 L 201 390 L 201 344 L 202 343 L 203 327 L 204 326 L 204 318 L 205 317 L 205 301 L 208 292 L 209 275 L 212 264 L 217 259 L 224 257 L 250 257 L 255 259 L 259 266 Q 258 271 260 273 L 260 314 L 257 320 L 250 323 L 233 324 L 231 327 L 224 332 Q 215 333 210 331 L 207 327 L 205 333 L 205 388 L 204 389 L 208 390 L 211 395 L 212 415 L 213 399 L 215 391 L 223 376 L 236 364 L 245 360 L 256 358 L 269 360 L 270 361 L 270 300 L 269 299 L 269 277 L 268 276 L 267 259 L 264 252 L 256 245 L 247 243 L 228 242 L 227 241 L 207 241 L 206 240 L 203 243 Q 198 242 197 244 L 163 244 Q 161 242 157 243 L 154 240 L 151 240 Z M 225 261 L 220 262 L 214 269 L 212 289 L 216 288 L 224 288 L 230 291 L 233 298 L 234 321 L 235 320 L 243 320 L 253 318 L 256 313 L 256 276 L 254 265 L 249 261 L 225 261 Z M 300 264 Q 296 270 298 281 L 297 282 L 298 285 L 311 285 L 312 274 L 300 264 Z M 317 277 Q 314 278 315 284 L 315 285 L 327 285 L 317 277 Z M 81 285 L 79 286 L 75 291 Q 76 295 74 297 L 74 312 L 75 315 Q 76 318 81 317 L 83 313 L 89 288 Q 88 284 81 285 Z M 395 288 L 394 289 L 349 289 L 347 290 L 344 294 L 344 326 L 346 327 L 414 326 L 425 324 L 426 322 L 426 293 L 425 291 L 421 288 L 395 288 Z M 288 289 L 285 290 L 282 294 L 282 303 L 281 304 L 281 319 L 282 322 L 285 324 Q 291 322 293 325 L 341 327 L 340 325 L 340 295 L 343 290 L 288 289 Z M 216 292 L 214 293 L 210 298 L 209 303 L 209 324 L 210 326 L 214 328 Q 221 330 225 327 L 228 323 Q 227 317 229 316 L 228 297 Q 225 291 216 292 Z M 406 330 L 405 331 L 373 331 L 372 332 L 333 332 L 332 331 L 316 331 L 315 336 L 412 335 L 414 335 L 414 330 L 406 330 Z M 275 336 L 274 362 L 284 370 L 284 339 Q 282 334 275 336 Z M 437 337 L 436 338 L 402 338 L 401 339 L 367 339 L 366 340 L 318 340 L 315 339 L 313 342 L 312 343 Q 307 342 306 344 L 296 344 L 295 341 L 308 341 L 309 340 Q 311 341 310 338 L 288 338 L 288 353 L 428 347 L 429 350 L 428 359 L 426 359 L 426 350 L 418 350 L 417 351 L 399 351 L 398 352 L 380 352 L 379 353 L 361 353 L 360 354 L 340 354 L 339 355 L 319 355 L 318 356 L 288 357 L 288 377 L 289 379 L 297 379 L 298 378 L 312 378 L 313 377 Q 321 376 324 379 L 329 369 Q 335 359 348 355 Q 362 353 369 359 Q 375 364 379 372 L 382 366 Q 388 354 404 352 L 409 352 L 418 355 L 426 364 L 426 365 Q 430 363 440 364 L 441 363 Q 439 356 442 355 L 442 344 L 441 338 L 437 337 Z M 404 356 L 391 362 L 380 378 L 381 381 L 380 407 L 377 417 L 379 421 L 384 425 L 394 428 L 395 428 L 393 426 L 385 415 L 383 406 Q 382 384 391 374 Q 396 368 404 365 Q 416 364 421 369 L 425 376 L 426 376 Q 425 367 420 363 Q 415 356 404 356 Z M 349 359 L 339 364 Q 331 370 327 381 L 325 387 Q 326 399 323 407 Q 321 410 315 409 Q 316 418 321 425 L 331 431 L 340 433 L 342 433 L 340 431 L 332 421 L 329 408 L 331 390 L 338 377 Q 343 370 353 367 L 359 367 L 367 370 Q 374 374 376 383 L 377 383 L 372 369 L 363 360 Q 357 358 349 359 Z M 255 362 L 243 365 L 234 370 Q 225 377 220 389 L 216 406 L 216 414 L 218 415 L 226 414 L 228 411 Q 228 400 232 393 L 240 381 Q 247 373 259 371 L 265 371 L 271 373 L 277 377 L 284 390 L 285 409 Q 289 410 290 408 Q 291 387 283 376 Q 275 362 255 362 Z M 428 368 L 431 378 L 431 394 Q 431 395 437 394 L 438 393 L 438 370 L 437 368 L 428 368 Z M 404 369 L 400 371 Q 389 378 387 393 L 388 412 L 393 422 Q 397 426 404 428 Q 412 428 416 424 L 422 417 L 426 406 Q 425 400 427 399 L 425 384 L 419 373 L 412 369 L 404 369 Z M 355 371 L 344 376 Q 335 384 333 398 L 334 415 L 340 427 L 351 433 Q 358 433 363 430 L 372 419 L 376 403 L 375 391 L 370 380 Q 365 372 355 371 Z M 255 377 L 245 382 Q 236 390 233 404 L 233 422 L 239 436 Q 243 441 250 443 Q 262 445 268 439 L 275 431 L 280 418 L 280 399 Q 278 389 273 384 Q 268 376 255 377 Z M 311 381 L 310 382 L 295 382 L 291 384 L 294 396 L 294 406 L 317 405 L 319 404 L 320 403 Q 318 396 321 395 L 321 384 L 320 383 L 320 381 L 311 381 Z M 73 385 L 70 391 L 71 407 L 76 410 L 97 414 L 114 415 L 115 416 L 127 416 L 128 417 L 139 417 L 140 418 L 161 418 L 162 419 L 191 419 L 192 418 L 205 417 L 207 415 L 207 395 L 206 393 L 201 394 L 147 394 L 146 393 L 131 393 L 130 392 L 118 392 L 117 391 L 107 391 L 98 389 L 91 389 L 73 385 Z M 229 416 Q 225 420 217 419 L 215 419 Q 215 429 221 435 Q 226 441 237 443 L 242 443 L 241 442 Q 234 437 231 429 L 229 416 Z M 96 418 L 100 427 L 112 433 L 116 433 Q 110 429 108 421 L 107 419 L 96 418 Z M 112 420 L 114 426 Q 118 432 127 434 L 137 433 Q 144 430 148 424 L 146 422 L 130 422 L 129 421 L 112 420 Z " /><path fill="rgb(0,0,0)" stroke="rgb(0,0,0)" stroke-width="0" opacity="1" d="M 102.5 173 Q 107.3 172.3 108 175.5 L 109 181.5 L 106.5 185 L 103.5 186 L 99 182.5 Q 97.5 174.5 102.5 173 Z M 102 176 L 101 180 L 102 182 L 105 183 Q 107 182 106 178 L 102 176 Z " /><path fill="rgb(0,0,0)" stroke="rgb(0,0,0)" stroke-width="0" opacity="1" d="M 387.5 234 Q 395.5 233 398 237.5 Q 402.2 241.3 401 250.5 Q 399.8 256.3 395.5 259 L 388.5 261 Q 382.4 259.6 380 254.5 L 379 243.5 L 383.5 236 L 387.5 234 Z M 390 237 L 386 239 L 382 247 Q 382 255 388 257 L 394 256 L 397 252 L 397 243 L 395 239 L 390 237 Z " /><path fill="rgb(0,0,0)" stroke="rgb(0,0,0)" stroke-width="0" opacity="1" d="M 128.5 253 L 162.5 253 L 163.5 254 L 187.5 255 L 195.5 257 L 201 261.5 L 202 263.5 L 202 277.5 L 201 278.5 L 201 288.5 L 200 289.5 L 200 298.5 L 199 299.5 L 197 323.5 Q 195.8 329.3 191.5 332 L 181.5 334 L 156.5 334 L 155.5 333 L 114.5 332 L 113.5 331 L 98.5 330 L 91 327 Q 88.3 324.4 89 317.5 L 103 268.5 Q 105.2 261.2 110.5 257 L 118.5 254 L 127.5 254 L 128.5 253 Z M 134 257 L 133 258 L 120 258 L 114 260 L 109 265 L 106 272 L 97 301 L 93 319 L 94 324 L 99 326 Q 104 325 106 327 L 127 328 L 128 329 L 151 329 L 152 330 L 183 330 L 191 328 L 193 324 L 195 299 L 196 298 L 196 289 L 197 288 L 197 279 L 198 278 L 198 265 L 197 262 L 192 260 L 177 259 L 176 258 L 134 257 Z " /><path fill="rgb(0,0,0)" stroke="rgb(0,0,0)" stroke-width="0" opacity="1" d="M 122.5 271 Q 130.5 269.5 132 274.5 L 130.5 278 L 124.5 276 L 116 280 Q 115.9 275.1 119.5 273 L 122.5 271 Z " /><path fill="rgb(0,0,0)" stroke="rgb(0,0,0)" stroke-width="0" opacity="1" d="M 167.5 272 Q 176.8 270.6 179 276.5 L 180 279.5 L 177.5 281 Q 175.1 276.4 167.5 277 L 163 278 L 165.5 273 L 167.5 272 Z " /><path fill="rgb(0,0,0)" stroke="rgb(0,0,0)" stroke-width="0" opacity="1" d="M 121.5 288 L 128.5 288 L 134 292.5 Q 138.5 298 137 309.5 Q 135.2 317.1 129.5 321 L 121.5 323 L 113 317.5 Q 109 313.1 110 303.5 Q 111.9 294.9 117.5 290 L 121.5 288 Z M 122 291 L 120 292 Q 114 295 113 303 L 114 315 L 121 320 L 123 320 L 122 319 L 118 314 L 118 305 L 125 296 Q 130 295 132 297 Q 134 298 133 296 Q 131 289 122 291 Z M 129 300 Q 126 301 127 305 L 131 307 L 133 304 L 132 302 Q 133 298 129 300 Z " /><path fill="rgb(0,0,0)" stroke="rgb(0,0,0)" stroke-width="0" opacity="1" d="M 165.5 289 L 171.5 289 L 179 295.5 Q 182.1 300.9 181 310.5 L 176 321 L 170.5 324 L 161.5 324 L 156 319.5 Q 151.3 314.7 153 303.5 L 159.5 292 L 165.5 289 Z M 165 292 L 162 294 L 156 303 Q 154 313 158 318 L 164 322 L 166 322 L 161 315 Q 160 306 163 302 L 169 297 Q 173 296 175 298 Q 177 297 176 300 L 178 301 L 175 294 L 172 292 L 165 292 Z M 173 301 L 170 305 L 171 307 Q 170 309 175 308 Q 177 307 176 304 L 173 301 Z " /><path fill="rgb(0,0,0)" stroke="rgb(0,0,0)" stroke-width="0" opacity="1" d="M 245.5 331 L 255.5 331 L 259 334.5 Q 260 341 256.5 343 L 242.5 345 L 239 342.5 L 238 336.5 L 241.5 332 L 245.5 331 Z M 254 334 L 253 335 L 244 335 Q 241 336 242 341 Q 250 342 255 340 L 256 338 L 254 334 Z " /><path fill="rgb(0,0,0)" stroke="rgb(0,0,0)" stroke-width="0" opacity="1" d="M 104.5 354 L 107 355.5 L 106 359.5 L 113.5 368 L 123.5 372 L 133.5 372 Q 146.1 369.6 152 360.5 L 150 357.5 L 152.5 356 L 159 361.5 L 157.5 364 L 154 362 L 147.5 370 Q 139.5 377 123.5 376 Q 110.5 373 104 363.5 L 103 360 L 99 361 Q 98.3 356.3 102.5 355 L 104.5 354 Z " /><path fill="rgb(0,0,0)" stroke="rgb(0,0,0)" stroke-width="0" opacity="1" d="M 407.5 381 Q 414.6 381.9 417 387.5 L 419 394.5 L 419 400.5 L 416 409.5 L 410.5 415 L 406.5 416 L 399 411.5 Q 394.5 406 396 394.5 L 401 384 L 407.5 381 Z M 407 385 L 405 386 L 400 395 Q 398 405 402 410 L 406 412 L 410 411 L 412 409 L 415 401 Q 416 393 413 389 Q 411 385 407 385 Z " /><path fill="rgb(0,0,0)" stroke="rgb(0,0,0)" stroke-width="0" opacity="1" d="M 354.5 384 Q 362.6 384.4 365 390.5 Q 368.6 395.9 367 406.5 Q 365.3 414.8 359.5 419 L 351.5 420 L 345 414.5 Q 341.8 408.8 343 398.5 Q 344.5 390 350.5 386 L 354.5 384 Z M 355 388 L 353 389 Q 348 392 347 398 Q 345 408 349 414 L 355 417 L 358 416 L 363 407 Q 364 398 362 393 Q 360 388 355 388 Z " /><path fill="rgb(0,0,0)" stroke="rgb(0,0,0)" stroke-width="0" opacity="1" d="M 256.5 391 L 261.5 391 L 268 396.5 Q 272.6 402.4 271 414.5 Q 269 424.5 261.5 429 L 254.5 430 L 247 424.5 Q 242.6 418.4 244 406.5 Q 246 396.5 253.5 392 L 256.5 391 Z M 256 395 Q 250 399 248 407 Q 246 418 251 424 Q 253 427 260 426 Q 265 423 267 416 L 267 403 L 265 399 Q 263 394 256 395 Z " /><path fill="rgb(0,0,0)" stroke="rgb(0,0,0)" stroke-width="0" opacity="1" d="M 407.5 391 L 412 394.5 Q 413.5 403.5 408.5 406 L 403 403.5 L 402 397.5 L 405.5 392 L 407.5 391 Z M 408 394 L 405 398 L 406 403 L 409 402 Q 410 395 408 394 Z " /><path fill="rgb(0,0,0)" stroke="rgb(0,0,0)" stroke-width="0" opacity="1" d="M 353.5 395 Q 359.3 394.3 360 398.5 Q 361.5 407.5 356.5 410 Q 350.8 410.8 350 406.5 Q 348.5 397.5 353.5 395 Z M 355 398 Q 352 399 353 406 L 356 407 Q 358 406 357 400 L 355 398 Z " /><path fill="rgb(0,0,0)" stroke="rgb(0,0,0)" stroke-width="0" opacity="1" d="M 257.5 402 Q 262.5 401.5 263 405.5 L 264 411.5 L 260.5 418 L 256.5 419 L 253 416.5 L 252 407.5 L 255.5 403 L 257.5 402 Z M 259 405 L 256 406 L 255 410 Q 254 415 258 416 L 261 411 L 259 405 Z " /></svg>