<svg width="627" height="627" preserveAspectRatio="xMidYMid meet" viewBox="0 0 512 512" version="1.1" xmlns="http://www.w3.org/2000/svg" ><path fill="rgb(255,255,255)" stroke="rgb(255,255,255)" stroke-width="0" opacity="1" d="M 0 0 L 512 0 L 512 512 L 0 512 L 0 0 Z M 336 91 L 335 92 L 326 92 L 310 95 L 286 102 L 261 113 L 249 121 Q 227 140 217 168 L 211 168 L 210 167 L 195 167 L 194 166 L 170 166 L 165 162 Q 166 151 163 146 Q 160 140 153 138 L 136 138 L 129 141 Q 121 147 122 162 L 117 167 L 109 167 L 108 168 L 90 170 Q 78 173 71 179 L 59 194 L 51 219 L 40 220 L 34 227 L 32 236 L 32 254 L 34 260 Q 36 263 41 263 L 36 281 L 35 301 L 34 302 L 34 330 L 35 331 Q 37 336 34 335 L 29 342 L 29 366 L 32 373 L 39 377 L 51 379 Q 52 387 57 394 Q 64 403 78 406 L 100 406 Q 108 404 113 399 Q 118 394 120 387 L 129 387 L 130 388 L 169 388 L 174 387 Q 176 399 182 407 L 192 415 L 208 420 L 233 420 L 247 413 L 255 404 L 262 390 L 265 391 L 284 391 L 295 386 Q 303 380 306 369 L 325 368 L 329 386 L 335 395 L 346 402 L 358 405 Q 378 408 388 400 Q 395 396 398 388 Q 403 396 415 398 L 437 398 L 447 393 Q 461 382 462 358 Q 469 359 471 355 L 471 339 L 464 321 L 464 309 L 459 301 L 445 301 L 445 289 Q 442 283 434 283 L 438 273 L 446 287 Q 449 291 456 293 Q 470 294 477 286 L 484 276 L 483 266 L 454 215 L 454 211 L 459 196 L 460 189 L 469 185 L 471 182 L 472 168 L 473 167 L 473 154 L 472 152 L 468 148 L 458 148 L 459 146 L 457 126 L 448 108 L 439 101 L 425 100 L 424 99 L 412 99 L 411 98 Q 402 98 397 102 L 381 96 L 363 92 L 336 91 Z " /><path fill="rgb(255,255,255)" stroke="rgb(255,255,255)" stroke-width="0" opacity="1" d="M 332.5 96 L 354.5 96 L 371.5 99 Q 386.4 105.1 396 116.5 Q 411.6 133.4 419 158.5 L 422 174.5 L 422 200.5 L 419 212.5 L 411 225.5 L 389.5 249 L 389 247.5 L 392 242.5 L 396 228.5 L 397 213.5 L 398 212.5 L 398 200.5 L 397 199.5 L 396 183.5 L 387 154.5 Q 375 127.5 353.5 110 Q 343.4 101.6 329 97.5 L 332.5 96 Z " /><path fill="rgb(255,255,255)" stroke="rgb(255,255,255)" stroke-width="0" opacity="1" d="M 314.5 99 L 327.5 100 L 341.5 106 Q 354.5 113.5 364 124.5 Q 379.5 142 388 166.5 L 394 194.5 L 394 218.5 Q 391.2 220.3 393 226.5 L 388 243.5 Q 384.5 252.5 377.5 258 Q 360.3 270.8 336.5 277 L 341 271.5 L 347 260.5 L 351 246.5 Q 349.5 241 352 239.5 L 352 213.5 L 347 188.5 L 335 160.5 Q 324.4 142.1 308.5 129 L 291.5 119 L 282.5 116 L 269 114.5 L 288.5 106 L 314.5 99 Z " /><path fill="rgb(255,255,255)" stroke="rgb(255,255,255)" stroke-width="0" opacity="1" d="M 386.5 103 Q 402.5 109 413 120.5 L 425 138.5 L 429 149.5 L 432 163.5 L 432 178.5 L 430 189.5 L 425.5 201 L 425 197.5 L 426 196.5 L 426 177.5 L 422 156.5 L 413 134.5 Q 403.5 117.1 388.5 105 L 386.5 103 Z " /><path fill="rgb(255,255,255)" stroke="rgb(255,255,255)" stroke-width="0" opacity="1" d="M 406.5 103 L 413.5 104 L 424 112.5 Q 434.2 124.8 439 142.5 L 440 155.5 L 441 156.5 L 441 166.5 L 440 167.5 L 439 179.5 L 436.5 184 L 436 178.5 L 437 177.5 L 437 164.5 L 434 149.5 L 426 130.5 Q 418.9 118.6 408.5 110 L 401 105.5 L 406.5 103 Z " /><path fill="rgb(255,255,255)" stroke="rgb(255,255,255)" stroke-width="0" opacity="1" d="M 421.5 104 L 438.5 106 L 445 111.5 L 452 125.5 L 453 136.5 L 454 137.5 L 454 145.5 L 453 148 L 445.5 148 L 444.5 149 L 439 129.5 L 434 119.5 L 421.5 104 Z " /><path fill="rgb(255,255,255)" stroke="rgb(255,255,255)" stroke-width="0" opacity="1" d="M 264.5 118 Q 281.7 117.3 292.5 123 Q 308.4 130.6 319 143.5 Q 335.8 162.7 344 190.5 L 348 208.5 L 349 234.5 L 348 235.5 L 347 248.5 L 344 258.5 L 335 274 L 326.5 279 L 309.5 280 L 308.5 279 L 293.5 278 L 281 273.5 L 289 266.5 L 292 261.5 L 296 248.5 L 297 232.5 L 296 231.5 L 296 222.5 L 294 212.5 L 288 195.5 Q 280 178 266.5 166 L 250.5 157 L 235.5 156 L 225.5 161 L 225 159.5 Q 235.4 138.4 252.5 124 L 264.5 118 Z " /><path fill="rgb(255,255,255)" stroke="rgb(255,255,255)" stroke-width="0" opacity="1" d="M 140.5 142 L 152.5 143 L 159 147.5 L 161 162 L 133.5 162 L 127 163 L 127 151.5 L 132.5 144 L 140.5 142 Z " /><path fill="rgb(255,255,255)" stroke="rgb(255,255,255)" stroke-width="0" opacity="1" d="M 445 153 L 466.5 153 L 468 154.5 L 467 177.5 L 464.5 182 L 462.5 183 L 445.5 183 L 444.5 184 L 442 183.5 L 445 169.5 L 445 153 Z " /><path fill="rgb(255,255,255)" stroke="rgb(255,255,255)" stroke-width="0" opacity="1" d="M 237.5 159 Q 251.7 158.8 259.5 165 L 273 177.5 Q 284.3 191.7 290 211.5 L 293 227.5 L 293 243.5 L 289 259.5 L 281.5 270 L 278 271 Q 277.1 265.1 272.5 262 Q 270.3 262.8 271 260.5 L 274 255.5 L 277 243.5 L 277 229.5 L 274 215.5 Q 270.1 204.9 262.5 198 L 253 192.5 Q 251.9 181.1 244.5 176 L 231.5 170 L 222 169 L 226.5 163 L 237.5 159 Z " /><path fill="rgb(255,255,255)" stroke="rgb(255,255,255)" stroke-width="0" opacity="1" d="M 124.5 166 L 163.5 166 L 165 167.5 L 148.5 168 L 147.5 169 L 122 169 Q 120.9 166.3 123.5 167 L 124.5 166 Z " /><path fill="rgb(255,255,255)" stroke="rgb(255,255,255)" stroke-width="0" opacity="1" d="M 168.5 171 L 196.5 171 L 197.5 172 L 211.5 172 L 212.5 173 L 227.5 174 L 239.5 178 L 245 183.5 L 248 189.5 L 250 199.5 L 251 226.5 L 252 227.5 L 252 317.5 L 249.5 316 Q 239.8 309.7 221.5 312 Q 201.4 316.4 191 330.5 Q 184.8 337.8 181.5 348 L 178 346 L 178 324.5 L 179 323.5 L 179 290.5 L 180 289.5 L 180.5 272 Q 184.9 277.1 196.5 275 Q 202.3 273.8 205 269.5 L 205.5 268 L 212.5 268 L 213.5 267 L 229.5 266 L 237 260.5 L 239 252.5 L 239 214.5 L 238 213.5 Q 239.4 204.6 237 199.5 L 231.5 193 L 221.5 191 L 204.5 191 L 193.5 193 L 189 196 L 185 206.5 L 183 228.5 Q 178.8 231.3 178 237.5 L 177 264.5 L 179 269.5 L 176 281.5 L 175 331.5 L 174 332.5 L 174 346 L 170.5 347 L 137.5 347 L 136.5 346 L 104.5 345 L 103.5 344 L 91.5 344 L 90.5 343 L 62.5 341 L 61.5 340 L 42.5 338 L 39 335.5 L 39 295.5 L 40 294.5 L 41 278.5 L 45 268.5 L 50 241.5 L 60 203.5 Q 64.3 189.7 74.5 182 L 89.5 175 L 106.5 172 L 167.5 172 L 168.5 171 Z M 107 187 L 106 188 L 81 189 L 70 193 L 65 199 L 60 212 L 55 231 L 49 263 L 50 269 Q 53 273 59 274 L 77 275 L 78 276 L 93 276 L 94 277 L 161 277 L 164 276 Q 169 273 170 266 L 172 242 L 173 241 L 173 232 L 175 223 L 175 215 L 176 214 L 176 205 L 177 204 L 175 196 L 172 192 L 163 189 L 133 188 L 132 187 L 107 187 Z M 223 278 L 215 280 L 212 284 Q 211 291 216 293 Q 226 295 233 292 L 236 288 Q 237 281 234 279 Q 231 277 223 278 Z M 70 302 L 67 304 L 63 308 L 65 309 L 68 308 L 72 316 L 85 324 L 94 326 Q 109 326 118 319 L 125 310 L 128 311 Q 131 312 130 309 L 125 304 L 122 304 Q 118 306 122 308 L 121 311 Q 116 317 108 320 L 98 322 L 89 321 L 80 317 L 71 308 L 72 304 L 70 302 Z " /><path fill="rgb(255,255,255)" stroke="rgb(255,255,255)" stroke-width="0" opacity="1" d="M 454.5 187 L 455 191.5 L 430 280.5 L 427.5 284 L 403.5 285 L 404 283.5 L 445.5 188 L 453.5 188 L 454.5 187 Z " /><path fill="rgb(255,255,255)" stroke="rgb(255,255,255)" stroke-width="0" opacity="1" d="M 435.5 188 Q 441.6 186.8 441 189.5 L 398.5 285 L 389.5 285 L 389 283.5 L 417 224.5 L 421 219.5 L 432 198.5 L 434 189.5 L 435.5 188 Z " /><path fill="rgb(255,255,255)" stroke="rgb(255,255,255)" stroke-width="0" opacity="1" d="M 91.5 192 L 147.5 192 L 148.5 193 L 165.5 194 L 172 198.5 L 172 212.5 L 170 221.5 L 170 231.5 L 167 248.5 L 166 264.5 L 165 268.5 L 161.5 272 L 159.5 273 L 96.5 273 L 95.5 272 L 79.5 272 L 78.5 271 L 60.5 270 L 56.5 269 L 54 266.5 L 55 249.5 L 63 215.5 L 67 203.5 L 72.5 196 L 77.5 194 L 90.5 193 L 91.5 192 Z M 84 208 L 82 209 Q 76 212 75 218 L 78 218 L 84 214 Q 89 213 91 215 Q 95 216 93 212 L 89 208 L 84 208 Z M 137 208 L 135 209 Q 130 210 131 215 L 135 214 L 142 214 L 148 218 L 150 218 L 149 214 L 142 208 L 137 208 Z M 82 228 L 77 231 L 74 234 L 69 246 Q 68 256 72 261 L 81 267 Q 89 268 93 264 L 96 261 L 100 250 Q 100 240 97 235 L 90 228 L 82 228 Z M 133 228 L 128 231 Q 122 236 120 244 Q 118 255 122 261 L 132 268 Q 139 269 143 266 L 149 260 L 152 250 Q 152 239 148 234 Q 145 226 133 228 Z " /><path fill="rgb(255,255,255)" stroke="rgb(255,255,255)" stroke-width="0" opacity="1" d="M 208.5 195 L 227.5 196 L 233 200.5 Q 235.8 209.2 234 222.5 L 235 223.5 L 235 246.5 L 234 247.5 L 234 256.5 L 230.5 261 L 207 264 L 208 257.5 L 208 241.5 L 206 232.5 L 201.5 228 Q 196.9 225.1 188.5 226 L 187 226.5 L 190 203.5 L 193.5 198 L 198.5 196 L 207.5 196 L 208.5 195 Z " /><path fill="rgb(255,255,255)" stroke="rgb(255,255,255)" stroke-width="0" opacity="1" d="M 254.5 198 L 265 206.5 L 272 223.5 L 273 241.5 L 270 254.5 L 262.5 265 L 257.5 267 L 256 213.5 L 255 212.5 L 255 199.5 L 254.5 198 Z " /><path fill="rgb(255,255,255)" stroke="rgb(255,255,255)" stroke-width="0" opacity="1" d="M 451.5 220 L 475 260.5 L 477 266.5 L 462.5 277 L 444 245.5 L 451.5 220 Z " /><path fill="rgb(255,255,255)" stroke="rgb(255,255,255)" stroke-width="0" opacity="1" d="M 45.5 223 L 50 224.5 L 46 238.5 L 43 259 Q 39.2 259.8 38 256.5 L 37 254.5 L 37 233.5 L 40.5 225 L 45.5 223 Z " /><path fill="rgb(255,255,255)" stroke="rgb(255,255,255)" stroke-width="0" opacity="1" d="M 82.5 231 L 89.5 231 L 93 233 L 96 239.5 L 92.5 237 Q 83.5 235.5 81 240.5 Q 76.3 245.3 78 256.5 L 84 264.5 L 82.5 264 L 75 260.5 Q 70.7 255.3 72 244.5 L 78.5 233 L 82.5 231 Z " /><path fill="rgb(255,255,255)" stroke="rgb(255,255,255)" stroke-width="0" opacity="1" d="M 133.5 231 Q 144.6 229.4 147 236.5 L 149 241.5 L 144.5 238 L 137.5 237 L 132 240.5 Q 128.2 245.2 128 253.5 L 130 260.5 L 134 264.5 L 130.5 265 L 126 261.5 L 123 256.5 L 123 243.5 L 129.5 233 L 133.5 231 Z " /><path fill="rgb(255,255,255)" stroke="rgb(255,255,255)" stroke-width="0" opacity="1" d="M 187.5 231 Q 198.7 228.8 202 234.5 L 203 237.5 L 203 261.5 L 199.5 269 Q 195.5 272 187.5 271 L 183 268.5 L 182 266.5 L 182 239.5 L 185.5 232 L 187.5 231 Z " /><path fill="rgb(255,255,255)" stroke="rgb(255,255,255)" stroke-width="0" opacity="1" d="M 406.5 238 L 406 239.5 L 385 285 L 378.5 286 L 359.5 286 L 358.5 287 L 340.5 287 L 339.5 288 L 286.5 290 L 283 291 L 280 279.5 L 281.5 279 L 293.5 283 L 312.5 284 L 314.5 285 L 315.5 284 L 333.5 283 L 357.5 275 Q 383.6 263.1 402 243.5 L 406.5 238 Z " /><path fill="rgb(255,255,255)" stroke="rgb(255,255,255)" stroke-width="0" opacity="1" d="M 90.5 241 L 94 242.5 L 95 245.5 L 92.5 249 Q 88.8 249.8 88 247.5 Q 87 242 90.5 241 Z " /><path fill="rgb(255,255,255)" stroke="rgb(255,255,255)" stroke-width="0" opacity="1" d="M 140 242 L 145 242 L 145 243.5 L 146 247.5 Q 145.5 250.5 141.5 250 Q 138.3 249.3 139 244.5 L 140 242 Z " /><path fill="rgb(255,255,255)" stroke="rgb(255,255,255)" stroke-width="0" opacity="1" d="M 443.5 250 Q 450.7 266.8 461.5 280 L 468.5 278 L 478.5 269 L 480 271.5 Q 477.5 279.5 471.5 284 Q 466.5 289.5 454.5 288 L 449 282.5 L 440 268.5 L 439 262.5 L 443.5 250 Z " /><path fill="rgb(255,255,255)" stroke="rgb(255,255,255)" stroke-width="0" opacity="1" d="M 268.5 264 Q 273.9 267.1 275 274.5 L 280 299 L 273.5 300 L 260.5 300 L 257 301 L 257 271.5 L 258.5 271 Q 265.3 269.3 268.5 264 Z " /><path fill="rgb(255,255,255)" stroke="rgb(255,255,255)" stroke-width="0" opacity="1" d="M 220.5 282 L 230.5 282 L 232 283.5 Q 233 288 230.5 289 Q 222.3 287.7 217.5 290 Q 214.5 288.4 216 283 L 220.5 282 Z " /><path fill="rgb(255,255,255)" stroke="rgb(255,255,255)" stroke-width="0" opacity="1" d="M 428.5 287 L 440 289 Q 442.3 292.7 441 301 L 436.5 302 L 411.5 302 L 410.5 303 L 394.5 303 L 393.5 304 L 371.5 305 L 360.5 307 L 350.5 313 Q 345.8 311.8 344.5 314 L 331.5 314 L 330.5 315 L 305.5 316 L 304.5 317 L 257 320 L 257 305.5 L 258.5 304 L 273.5 304 L 274.5 303 L 317.5 301 L 318.5 300 L 346.5 299 L 347.5 298 L 375.5 297 L 376.5 296 L 392.5 296 L 393.5 295 L 430.5 293 L 433 292 L 433 289 L 426.5 289 L 425.5 290 L 362.5 293 L 361.5 294 L 347.5 294 L 346.5 295 L 303.5 297 L 302.5 298 L 289.5 298 L 284 299 L 284 294 L 296.5 294 L 297.5 293 L 334.5 292 L 335.5 291 L 351.5 291 L 352.5 290 L 427.5 288 L 428.5 287 Z " /><path fill="rgb(255,255,255)" stroke="rgb(255,255,255)" stroke-width="0" opacity="1" d="M 448.5 305 L 458 306 L 459 308.5 L 459 320.5 Q 466.8 332.2 467 351.5 Q 465.8 354 462 353 Q 462.6 324.2 445.5 312 L 440.5 309 L 425.5 307 L 424.5 308 L 407.5 308 L 406.5 309 L 393.5 309 L 392.5 310 L 378.5 311 Q 364.4 314.9 357 325.5 L 349 339.5 L 345 359.5 L 342.5 363 L 333 363 L 333 355.5 L 337 338.5 L 343 326.5 L 353.5 315 L 361.5 311 L 372.5 310 L 373.5 309 L 396.5 308 L 397.5 307 L 414.5 307 L 415.5 306 L 447.5 306 L 448.5 305 Z " /><path fill="rgb(255,255,255)" stroke="rgb(255,255,255)" stroke-width="0" opacity="1" d="M 412.5 312 L 436.5 312 Q 444.5 314.5 449 320.5 L 452 325.5 L 448.5 323 Q 443.5 319 434.5 319 Q 421.9 321.9 416 331.5 L 409 346.5 L 407 359 Q 404 360.3 405 356.5 L 402 342.5 Q 398.2 332.8 390.5 327 L 380.5 323 L 373.5 323 Q 363 325.5 357.5 333 L 359 330.5 L 363 324 Q 369.6 318.1 380.5 315 L 396.5 314 L 397.5 313 L 411.5 313 L 412.5 312 Z " /><path fill="rgb(255,255,255)" stroke="rgb(255,255,255)" stroke-width="0" opacity="1" d="M 221.5 316 Q 249.7 313.8 260 329.5 Q 271.8 344.7 271 372.5 L 268.5 376 Q 262.6 378.1 264 373.5 Q 266.8 371.7 265 365.5 L 264 364.5 L 264 356.5 L 261 346.5 L 254 335 L 241.5 328 L 228.5 328 Q 215.6 331.6 208 340.5 L 198 357.5 L 194 373.5 L 190.5 378 L 183 379 L 184 373.5 L 184 351.5 Q 189 336.5 199.5 327 Q 208.3 319.3 221.5 316 Z " /><path fill="rgb(255,255,255)" stroke="rgb(255,255,255)" stroke-width="0" opacity="1" d="M 333.5 318 L 343.5 318 L 344 319.5 Q 329.6 334.8 329 363 L 275 367 Q 275.6 338.8 261 324.5 L 268.5 323 L 305.5 321 L 306.5 320 L 332.5 319 L 333.5 318 Z " /><path fill="rgb(255,255,255)" stroke="rgb(255,255,255)" stroke-width="0" opacity="1" d="M 432.5 324 Q 445.8 322.8 450 330.5 Q 459.3 341.2 457 363.5 Q 454.1 381.1 442.5 390 Q 437.7 394.7 426.5 393 L 418 386.5 Q 410.4 376.6 411 358.5 Q 413.7 356.8 412 350.5 L 415 341.5 Q 418.2 333.2 424.5 328 L 432.5 324 Z M 434 338 L 430 340 L 426 344 L 421 357 L 421 365 L 424 374 L 431 379 L 440 378 L 446 371 L 449 360 L 448 349 L 445 343 L 439 338 L 434 338 Z " /><path fill="rgb(255,255,255)" stroke="rgb(255,255,255)" stroke-width="0" opacity="1" d="M 371.5 328 L 382.5 328 L 393 335.5 Q 398.1 342.4 400 352.5 L 400 368.5 Q 397.2 385.7 386.5 395 Q 381 400.5 369.5 400 L 363.5 398 L 355 389.5 L 350 376.5 L 349 364.5 L 352 349.5 L 355 342.5 L 361 334 L 371.5 328 Z M 373 343 L 371 344 Q 363 349 361 360 Q 359 374 365 381 Q 368 385 374 386 L 381 384 L 387 378 L 391 365 Q 391 355 388 350 L 381 343 L 373 343 Z " /><path fill="rgb(255,255,255)" stroke="rgb(255,255,255)" stroke-width="0" opacity="1" d="M 225.5 334 Q 244.8 332.8 251 344.5 L 256 353.5 L 258 360.5 L 259 375.5 L 256 390.5 Q 251.7 402.7 242.5 410 L 231.5 415 L 220.5 415 Q 210 411.9 205 403.5 L 199 389.5 L 198 373.5 Q 201.7 351.2 215.5 339 L 225.5 334 Z M 229 351 L 224 353 L 217 360 L 213 369 Q 214 373 212 375 Q 212 386 217 393 L 225 398 L 236 397 L 242 391 L 246 382 Q 245 377 247 376 Q 247 365 243 359 Q 239 351 229 351 Z " /><path fill="rgb(255,255,255)" stroke="rgb(255,255,255)" stroke-width="0" opacity="1" d="M 36.5 339 L 39.5 341 L 48.5 343 L 71.5 345 L 72.5 346 L 93.5 347 L 94.5 348 L 104.5 348 L 105.5 349 L 119.5 349 L 120.5 350 L 167.5 351 L 168.5 350 L 178.5 350 L 180 351.5 L 180 372.5 Q 177.7 373.7 179 378.5 L 176.5 381 L 169.5 383 L 125.5 383 L 124.5 382 L 100.5 381 L 99.5 380 L 89.5 380 L 88.5 379 L 79.5 379 L 71.5 377 L 57.5 376 L 56.5 375 L 45.5 374 L 37.5 371 L 35 368.5 L 33 347.5 Q 35.2 346.2 34 341.5 L 36.5 339 Z " /><path fill="rgb(255,255,255)" stroke="rgb(255,255,255)" stroke-width="0" opacity="1" d="M 434.5 342 Q 441 341 442 345.5 L 444 349.5 L 445 359.5 L 443 367.5 L 438.5 374 L 430.5 375 Q 423.5 369.5 425 355.5 Q 426.5 347 432.5 343 L 434.5 342 Z M 435 350 L 433 351 L 429 356 L 430 365 L 435 368 L 437 367 L 440 364 L 441 360 L 440 354 Q 440 350 435 350 Z " /><path fill="rgb(255,255,255)" stroke="rgb(255,255,255)" stroke-width="0" opacity="1" d="M 376.5 346 L 384 350.5 L 387 359.5 L 387 364.5 L 385 372.5 L 379.5 380 L 374.5 382 L 368 378.5 Q 363.2 372.3 365 359.5 L 371.5 348 L 376.5 346 Z M 375 355 Q 368 358 370 370 Q 371 374 378 373 L 382 367 L 381 359 Q 380 354 375 355 Z " /><path fill="rgb(255,255,255)" stroke="rgb(255,255,255)" stroke-width="0" opacity="1" d="M 434.5 353 L 437 354.5 Q 437.9 361.3 436 364 Q 432.3 365.5 433 362.5 L 432 357.5 L 434.5 353 Z " /><path fill="rgb(255,255,255)" stroke="rgb(255,255,255)" stroke-width="0" opacity="1" d="M 228.5 355 Q 237.1 353.9 239 359.5 L 242 365.5 L 243 374.5 Q 240.5 376 242 381.5 L 235.5 392 Q 232.6 395.6 224.5 394 L 221 392 Q 215.9 385.8 216 373.5 L 219 363.5 L 225.5 356 L 228.5 355 Z M 229 365 L 227 366 L 223 372 Q 222 378 224 382 L 229 385 L 233 384 L 237 377 Q 238 370 235 368 Q 234 364 229 365 Z " /><path fill="rgb(255,255,255)" stroke="rgb(255,255,255)" stroke-width="0" opacity="1" d="M 376.5 358 Q 379.6 359.4 379 364.5 L 375.5 370 Q 373.3 370.8 374 368.5 Q 371.5 367 373 361.5 L 374 359 L 376.5 358 Z " /><path fill="rgb(255,255,255)" stroke="rgb(255,255,255)" stroke-width="0" opacity="1" d="M 405 363 Q 408.3 361.7 407 366.5 L 410 379.5 L 418.5 392 L 420 392.5 L 413.5 393 Q 405.2 390.9 401 384.5 L 405 363 Z " /><path fill="rgb(255,255,255)" stroke="rgb(255,255,255)" stroke-width="0" opacity="1" d="M 345.5 366 Q 345.5 388 357.5 398 L 360 399.5 L 358.5 400 L 348.5 398 L 337 389.5 Q 330.1 380.9 330 367 Q 334.5 368.7 342.5 368 L 345.5 366 Z " /><path fill="rgb(255,255,255)" stroke="rgb(255,255,255)" stroke-width="0" opacity="1" d="M 229.5 368 L 233 370.5 Q 235 379 230.5 381 Q 226.5 381.5 226 378.5 Q 224.7 370.2 229.5 368 Z " /><path fill="rgb(255,255,255)" stroke="rgb(255,255,255)" stroke-width="0" opacity="1" d="M 292.5 370 L 299.5 370 L 300 371.5 Q 297 379 290.5 383 Q 281.8 388.3 265.5 386 L 262 384.5 L 263.5 380 L 268.5 381 L 274 377.5 L 275 372 L 280.5 371 L 291.5 371 L 292.5 370 Z " /><path fill="rgb(255,255,255)" stroke="rgb(255,255,255)" stroke-width="0" opacity="1" d="M 56.5 380 L 69 382 Q 71 391.9 77.5 398 L 81 400.5 L 78.5 401 Q 65.8 398.8 60 389.5 L 56.5 380 Z " /><path fill="rgb(255,255,255)" stroke="rgb(255,255,255)" stroke-width="0" opacity="1" d="M 193.5 380 L 198 398.5 Q 202.3 408.2 210.5 414 L 212 414.5 L 207.5 415 L 192.5 410 L 184 401.5 L 178 385.5 Q 180.8 381.3 189.5 383 L 193.5 380 Z " /><path fill="rgb(255,255,255)" stroke="rgb(255,255,255)" stroke-width="0" opacity="1" d="M 73.5 382 L 74.5 383 L 82.5 383 L 92.5 385 L 115 386 Q 113.1 392.9 107.5 397 L 102.5 400 L 92.5 402 Q 83.9 400.1 79 394.5 L 73 384.5 L 73.5 382 Z " /><path fill="rgb(0,0,0)" stroke="rgb(0,0,0)" stroke-width="0" opacity="1" d="M 335.5 91 L 362.5 92 L 380.5 96 L 396.5 102 Q 401.5 98 410.5 98 L 411.5 99 L 423.5 99 L 424.5 100 L 438.5 101 L 448 107.5 L 457 125.5 L 459 145.5 L 458 148 L 467.5 148 L 472 151.5 L 473 153.5 L 473 166.5 L 472 167.5 L 471 181.5 L 469 185 L 460 188.5 L 459 195.5 L 454 210.5 L 454 214.5 L 483 265.5 L 484 275.5 L 476.5 286 Q 470.1 293.6 455.5 293 Q 449 291.5 446 286.5 L 437.5 273 L 434 283 Q 442.2 282.6 445 288.5 L 445 301 L 458.5 301 L 464 308.5 L 464 320.5 L 471 338.5 L 471 354.5 Q 468.7 359.1 462 358 Q 460.9 381.6 446.5 393 L 436.5 398 L 414.5 398 Q 403.1 395.9 397.5 388 Q 394.7 396.2 387.5 400 Q 377.6 407.6 357.5 405 L 345.5 402 L 335 394.5 L 329 385.5 L 325 368 L 306 369 Q 303.1 379.7 294.5 386 L 283.5 391 L 264.5 391 L 261.5 390 L 255 403.5 L 246.5 413 L 232.5 420 L 207.5 420 L 191.5 415 L 182 406.5 Q 175.5 398.9 174 387 L 168.5 388 L 129.5 388 L 128.5 387 L 120 387 Q 118.3 394.5 112.5 399 Q 107.7 404.2 99.5 406 L 77.5 406 Q 63.9 403.1 57 393.5 Q 52.3 387.4 51 379 L 38.5 377 L 32 372.5 L 29 365.5 L 29 341.5 L 33.5 335 Q 36.9 335.9 35 330.5 L 34 329.5 L 34 301.5 L 35 300.5 L 36 280.5 L 41 263 Q 36.1 263.1 34 259.5 L 32 253.5 L 32 235.5 L 34 226.5 L 39.5 220 L 51 219 L 59 193.5 L 70.5 179 Q 78.3 172.8 89.5 170 L 107.5 168 L 108.5 167 L 116.5 167 L 122 161.5 Q 120.5 146.5 128.5 141 L 135.5 138 L 152.5 138 Q 159.7 139.8 163 145.5 Q 166.3 151.3 165 161.5 L 169.5 166 L 193.5 166 L 194.5 167 L 209.5 167 L 210.5 168 L 217 168 Q 227.2 139.5 248.5 121 L 260.5 113 L 285.5 102 L 309.5 95 L 325.5 92 L 334.5 92 L 335.5 91 Z M 333 96 L 329 98 Q 343 102 354 110 Q 375 127 387 155 L 396 184 L 397 200 L 398 201 L 398 213 L 397 214 L 396 229 L 392 243 L 389 248 L 390 249 L 411 226 L 419 213 L 422 201 L 422 175 L 419 159 Q 412 133 396 117 Q 386 105 372 99 L 355 96 L 333 96 Z M 315 99 L 289 106 L 269 115 L 283 116 L 292 119 L 309 129 Q 324 142 335 161 L 347 189 L 352 214 L 352 240 Q 350 241 351 247 L 347 261 L 341 272 L 338 276 L 355 271 L 378 258 Q 385 253 388 244 L 393 227 Q 391 220 394 219 L 394 195 L 388 167 Q 379 142 364 125 Q 354 114 342 106 L 328 100 L 315 99 Z M 407 103 L 401 106 L 409 110 Q 419 119 426 131 L 434 150 L 437 165 L 437 178 L 436 179 L 437 184 L 439 180 L 440 168 L 441 167 L 441 157 L 440 156 L 439 143 Q 434 125 424 113 L 414 104 L 407 103 Z M 422 104 L 434 120 L 439 130 L 445 149 L 446 148 L 453 148 L 454 146 L 454 138 L 453 137 L 452 126 L 445 112 L 439 106 L 422 104 Z M 390 105 L 403 120 L 413 135 L 422 157 L 426 178 L 426 197 L 425 198 L 426 201 L 430 190 L 432 179 L 432 164 L 429 150 L 425 139 L 413 121 Q 404 110 390 105 Z M 265 118 L 253 124 Q 235 138 225 160 L 226 161 L 236 156 L 251 157 L 267 166 Q 280 178 288 196 L 294 213 L 296 223 L 296 232 L 297 233 L 296 249 L 292 262 L 289 267 L 281 274 L 294 278 L 309 279 L 310 280 L 327 279 L 335 274 L 344 259 L 347 249 L 348 236 L 349 235 L 348 209 L 344 191 Q 336 163 319 144 Q 308 131 293 123 Q 282 117 265 118 Z M 141 142 L 133 144 L 127 152 L 127 163 L 134 162 L 161 162 L 159 148 L 153 143 L 141 142 Z M 445 153 L 445 170 L 442 184 L 445 184 L 446 183 L 463 183 L 465 182 L 467 178 L 468 155 L 467 153 L 445 153 Z M 238 159 L 227 163 L 222 169 L 232 170 L 245 176 Q 252 181 253 193 L 263 198 Q 270 205 274 216 L 277 230 L 277 244 L 274 256 L 271 261 Q 270 263 273 262 Q 277 265 278 271 L 282 270 L 289 260 L 293 244 L 293 228 L 290 212 Q 284 192 273 178 L 260 165 Q 252 159 238 159 Z M 125 166 L 124 167 Q 121 166 122 169 L 148 169 L 149 168 L 165 168 L 164 166 L 125 166 Z M 169 171 L 168 172 L 107 172 L 90 175 L 75 182 Q 64 190 60 204 L 50 242 L 45 269 L 41 279 L 40 295 L 39 296 L 39 336 L 43 338 L 62 340 L 63 341 L 91 343 L 92 344 L 104 344 L 105 345 L 137 346 L 138 347 L 171 347 L 174 346 L 174 333 L 175 332 L 176 282 L 179 270 L 177 265 L 178 238 Q 179 231 183 229 L 185 207 L 189 196 L 194 193 L 205 191 L 222 191 L 232 193 L 237 200 Q 239 205 238 214 L 239 215 L 239 253 L 237 261 L 230 266 L 214 267 L 213 268 L 206 268 L 205 270 Q 202 274 197 275 Q 185 277 181 272 L 180 290 L 179 291 L 179 324 L 178 325 L 178 346 L 182 348 Q 185 338 191 331 Q 201 316 222 312 Q 240 310 250 316 L 252 318 L 252 228 L 251 227 L 250 200 L 248 190 L 245 184 L 240 178 L 228 174 L 213 173 L 212 172 L 198 172 L 197 171 L 169 171 Z M 455 187 L 454 188 L 446 188 L 404 284 L 404 285 L 428 284 L 430 281 L 455 192 L 455 187 Z M 436 188 L 434 190 L 432 199 L 421 220 L 417 225 L 389 284 L 390 285 L 399 285 L 441 190 Q 442 187 436 188 Z M 209 195 L 208 196 L 199 196 L 194 198 L 190 204 L 187 227 L 189 226 Q 197 225 202 228 L 206 233 L 208 242 L 208 258 L 207 264 L 231 261 L 234 257 L 234 248 L 235 247 L 235 224 L 234 223 Q 236 209 233 201 L 228 196 L 209 195 Z M 255 198 L 255 200 L 255 213 L 256 214 L 258 267 L 263 265 L 270 255 L 273 242 L 272 224 L 265 207 L 255 198 Z M 452 220 L 444 246 L 463 277 L 477 267 L 475 261 L 452 220 Z M 46 223 L 41 225 L 37 234 L 37 255 L 38 257 Q 39 260 43 259 L 46 239 L 50 225 L 46 223 Z M 188 231 L 186 232 L 182 240 L 182 267 L 183 269 L 188 271 Q 196 272 200 269 L 203 262 L 203 238 L 202 235 Q 199 229 188 231 Z M 406 239 L 402 244 Q 384 263 358 275 L 334 283 L 316 284 L 315 285 L 313 284 L 294 283 L 282 279 L 280 280 L 283 291 L 287 290 L 340 288 L 341 287 L 359 287 L 360 286 L 379 286 L 385 285 L 386 281 L 406 241 L 406 239 Z M 444 250 L 439 263 L 440 269 L 449 283 L 455 288 Q 467 290 472 284 Q 478 280 480 272 L 479 269 L 469 278 L 462 280 Q 451 267 444 250 Z M 269 264 Q 265 269 259 271 L 257 272 L 257 301 L 261 300 L 274 300 L 280 299 L 275 275 Q 274 267 269 264 Z M 429 287 L 428 288 L 353 290 L 352 291 L 336 291 L 335 292 L 298 293 L 297 294 L 284 294 L 284 299 L 290 298 L 303 298 L 304 297 L 347 295 L 348 294 L 362 294 L 363 293 L 426 290 L 427 289 L 433 289 L 433 292 L 431 293 L 394 295 L 393 296 L 377 296 L 376 297 L 348 298 L 347 299 L 319 300 L 318 301 L 275 303 L 274 304 L 259 304 L 257 306 L 257 320 L 305 317 L 306 316 L 331 315 L 332 314 L 345 314 Q 346 312 351 313 L 361 307 L 372 305 L 394 304 L 395 303 L 411 303 L 412 302 L 437 302 L 441 301 Q 442 293 440 289 L 429 287 Z M 449 305 L 448 306 L 416 306 L 415 307 L 398 307 L 397 308 L 374 309 L 373 310 L 362 311 L 354 315 L 343 327 L 337 339 L 333 356 L 333 363 L 343 363 L 345 360 L 349 340 L 357 326 Q 364 315 379 311 L 393 310 L 394 309 L 407 309 L 408 308 L 425 308 L 426 307 L 441 309 L 446 312 Q 463 324 462 353 Q 466 354 467 352 Q 467 332 459 321 L 459 309 L 458 306 L 449 305 Z M 413 312 L 412 313 L 398 313 L 397 314 L 381 315 Q 370 318 363 324 L 359 330 L 360 331 Q 365 325 374 323 L 381 323 L 391 327 Q 398 333 402 343 L 405 357 Q 404 360 407 359 L 409 347 L 416 332 Q 422 322 435 319 Q 444 319 449 323 L 451 325 L 449 321 Q 445 315 437 312 L 413 312 Z M 222 316 Q 208 319 200 327 Q 189 337 184 352 L 184 374 L 183 379 L 191 378 L 194 374 L 198 358 L 208 341 Q 216 332 229 328 L 242 328 L 254 335 L 261 347 L 264 357 L 264 365 L 265 366 Q 267 372 264 374 Q 263 378 269 376 L 271 373 Q 272 345 260 330 Q 250 314 222 316 Z M 334 318 L 333 319 L 307 320 L 306 321 L 269 323 L 261 325 Q 276 339 275 367 L 329 363 Q 330 335 344 320 L 344 318 L 334 318 Z M 433 324 L 425 328 Q 418 333 415 342 L 412 351 Q 414 357 411 359 Q 410 377 418 387 L 427 393 Q 438 395 443 390 Q 454 381 457 364 Q 459 341 450 331 Q 446 323 433 324 Z M 372 328 L 361 334 L 355 343 L 352 350 L 349 365 L 350 377 L 355 390 L 364 398 L 370 400 Q 381 401 387 395 Q 397 386 400 369 L 400 353 Q 398 342 393 336 L 383 328 L 372 328 Z M 226 334 L 216 339 Q 202 351 198 374 L 199 390 L 205 404 Q 210 412 221 415 L 232 415 L 243 410 Q 252 403 256 391 L 259 376 L 258 361 L 256 354 L 251 345 Q 245 333 226 334 Z M 37 339 L 34 342 Q 35 346 33 348 L 35 369 L 38 371 L 46 374 L 57 375 L 58 376 L 72 377 L 80 379 L 89 379 L 90 380 L 100 380 L 101 381 L 125 382 L 126 383 L 170 383 L 177 381 L 179 379 Q 178 374 180 373 L 180 352 L 179 350 L 169 350 L 168 351 L 121 350 L 120 349 L 106 349 L 105 348 L 95 348 L 94 347 L 73 346 L 72 345 L 49 343 L 40 341 L 37 339 Z M 405 363 L 401 385 Q 405 391 414 393 L 420 393 L 419 392 L 410 380 L 407 367 Q 408 362 405 363 Z M 346 366 L 343 368 Q 335 369 330 367 Q 330 381 337 390 L 349 398 L 359 400 L 360 400 L 358 398 Q 346 388 346 366 Z M 293 370 L 292 371 L 281 371 L 275 372 L 274 378 L 269 381 L 264 380 L 262 385 L 266 386 Q 282 388 291 383 Q 297 379 300 372 L 300 370 L 293 370 Z M 57 380 L 60 390 Q 66 399 79 401 L 81 401 L 78 398 Q 71 392 69 382 L 57 380 Z M 194 380 L 190 383 Q 181 381 178 386 L 184 402 L 193 410 L 208 415 L 212 415 L 211 414 Q 202 408 198 399 L 194 380 Z M 74 382 L 73 385 L 79 395 Q 84 400 93 402 L 103 400 L 108 397 Q 113 393 115 386 L 93 385 L 83 383 L 75 383 L 74 382 Z " /><path fill="rgb(0,0,0)" stroke="rgb(0,0,0)" stroke-width="0" opacity="1" d="M 106.5 187 L 131.5 187 L 132.5 188 L 162.5 189 L 171.5 192 L 175 195.5 L 177 203.5 L 176 204.5 L 176 213.5 L 175 214.5 L 175 222.5 L 173 231.5 L 173 240.5 L 172 241.5 L 170 265.5 Q 168.9 272.9 163.5 276 L 160.5 277 L 93.5 277 L 92.5 276 L 77.5 276 L 76.5 275 L 58.5 274 Q 52.8 272.8 50 268.5 L 49 262.5 L 55 230.5 L 60 211.5 L 65 198.5 L 69.5 193 L 80.5 189 L 105.5 188 L 106.5 187 Z M 92 192 L 91 193 L 78 194 L 73 196 L 67 204 L 63 216 L 55 250 L 54 267 L 57 269 L 61 270 L 79 271 L 80 272 L 96 272 L 97 273 L 160 273 L 162 272 L 165 269 L 166 265 L 167 249 L 170 232 L 170 222 L 172 213 L 172 199 L 166 194 L 149 193 L 148 192 L 92 192 Z " /><path fill="rgb(0,0,0)" stroke="rgb(0,0,0)" stroke-width="0" opacity="1" d="M 83.5 208 L 88.5 208 L 93 211.5 Q 94.7 216.3 90.5 215 Q 89 212.5 83.5 214 L 77.5 218 L 75 218 Q 75.8 211.9 81.5 209 L 83.5 208 Z " /><path fill="rgb(0,0,0)" stroke="rgb(0,0,0)" stroke-width="0" opacity="1" d="M 136.5 208 L 141.5 208 L 149 213.5 L 150 218 L 147.5 218 L 141.5 214 L 134.5 214 L 131 215 Q 130.3 210.3 134.5 209 L 136.5 208 Z " /><path fill="rgb(0,0,0)" stroke="rgb(0,0,0)" stroke-width="0" opacity="1" d="M 81.5 228 L 89.5 228 L 97 234.5 Q 100.3 240.2 100 249.5 L 96 260.5 L 92.5 264 Q 89 268 80.5 267 L 72 260.5 Q 67.8 255.7 69 245.5 L 74 233.5 L 76.5 231 L 81.5 228 Z M 83 231 L 79 233 L 72 245 Q 71 255 75 261 L 81 264 L 83 264 L 78 257 Q 76 245 81 241 Q 83 235 93 237 L 96 240 L 93 233 L 90 231 L 83 231 Z M 91 241 Q 87 242 88 248 Q 89 250 93 249 L 95 246 L 94 243 L 91 241 Z " /><path fill="rgb(0,0,0)" stroke="rgb(0,0,0)" stroke-width="0" opacity="1" d="M 132.5 228 Q 144.7 226.3 148 233.5 Q 152.4 239.1 152 249.5 L 149 259.5 L 142.5 266 Q 139.2 269.2 131.5 268 L 122 260.5 Q 118.3 254.7 120 243.5 Q 122.3 235.8 127.5 231 L 132.5 228 Z M 134 231 L 130 233 L 123 244 L 123 257 L 126 262 L 131 265 L 134 265 L 130 261 L 128 254 Q 128 245 132 241 L 138 237 L 145 238 L 148 241 L 147 237 Q 145 229 134 231 Z M 140 242 L 139 245 Q 138 249 142 250 Q 146 251 146 248 L 145 244 L 145 242 L 140 242 Z " /><path fill="rgb(0,0,0)" stroke="rgb(0,0,0)" stroke-width="0" opacity="1" d="M 222.5 278 Q 230.7 276.9 234 279 Q 236.6 281.3 236 287.5 L 232.5 292 Q 226.3 294.8 215.5 293 Q 210.5 291.5 212 283.5 L 214.5 280 L 222.5 278 Z M 221 282 L 216 283 Q 214 288 218 290 Q 222 288 231 289 Q 233 288 232 284 L 231 282 L 221 282 Z " /><path fill="rgb(0,0,0)" stroke="rgb(0,0,0)" stroke-width="0" opacity="1" d="M 69.5 302 L 72 303.5 L 71 307.5 L 79.5 317 L 88.5 321 L 97.5 322 L 107.5 320 Q 115.8 316.8 121 310.5 L 122 307.5 Q 118.3 305.8 121.5 304 L 124.5 304 L 130 308.5 Q 131.3 312.3 127.5 311 L 125 310 L 117.5 319 Q 109.5 326.5 93.5 326 L 84.5 324 L 72 315.5 L 67.5 308 L 64.5 309 L 63 307.5 L 66.5 304 L 69.5 302 Z " /><path fill="rgb(0,0,0)" stroke="rgb(0,0,0)" stroke-width="0" opacity="1" d="M 433.5 338 L 438.5 338 L 445 342.5 L 448 348.5 L 449 359.5 L 446 370.5 L 439.5 378 L 430.5 379 L 424 373.5 L 421 364.5 L 421 356.5 L 426 343.5 L 429.5 340 L 433.5 338 Z M 435 342 L 433 343 Q 426 347 425 356 Q 424 369 431 375 L 439 374 L 443 368 L 445 360 L 444 350 L 442 346 Q 441 341 435 342 Z " /><path fill="rgb(0,0,0)" stroke="rgb(0,0,0)" stroke-width="0" opacity="1" d="M 372.5 343 L 380.5 343 L 388 349.5 Q 391.3 355.2 391 364.5 L 387 377.5 L 380.5 384 L 373.5 386 Q 367.8 384.8 365 380.5 Q 359.2 373.8 361 359.5 Q 363.4 349.4 370.5 344 L 372.5 343 Z M 377 346 L 372 348 L 365 360 Q 363 372 368 379 L 375 382 L 380 380 L 385 373 L 387 365 L 387 360 L 384 351 L 377 346 Z " /><path fill="rgb(0,0,0)" stroke="rgb(0,0,0)" stroke-width="0" opacity="1" d="M 434.5 350 Q 439.5 349.5 440 353.5 L 441 359.5 L 440 363.5 L 436.5 367 L 434.5 368 L 430 364.5 L 429 355.5 L 432.5 351 L 434.5 350 Z M 435 353 L 432 358 L 433 363 Q 432 365 436 364 Q 438 361 437 355 L 435 353 Z " /><path fill="rgb(0,0,0)" stroke="rgb(0,0,0)" stroke-width="0" opacity="1" d="M 228.5 351 Q 239.3 351.3 243 358.5 Q 247.2 364.8 247 375.5 Q 244.7 376.8 246 381.5 L 242 390.5 L 235.5 397 L 224.5 398 L 217 392.5 Q 212.1 385.9 212 374.5 Q 214.3 373.2 213 368.5 L 217 359.5 L 223.5 353 L 228.5 351 Z M 229 355 L 226 356 L 219 364 L 216 374 Q 216 386 221 392 L 225 394 Q 233 396 236 392 L 242 382 Q 241 376 243 375 L 242 366 L 239 360 Q 237 354 229 355 Z " /><path fill="rgb(0,0,0)" stroke="rgb(0,0,0)" stroke-width="0" opacity="1" d="M 374.5 355 Q 380.3 354.3 381 358.5 L 382 366.5 L 377.5 373 Q 371 374 370 369.5 Q 368 358 374.5 355 Z M 377 358 L 374 359 L 373 362 Q 372 367 374 369 Q 373 371 376 370 L 379 365 Q 380 359 377 358 Z " /><path fill="rgb(0,0,0)" stroke="rgb(0,0,0)" stroke-width="0" opacity="1" d="M 228.5 365 Q 233.6 364.4 235 367.5 Q 237.8 370.2 237 376.5 L 232.5 384 L 228.5 385 L 224 381.5 Q 221.7 378.3 223 371.5 L 226.5 366 L 228.5 365 Z M 230 368 Q 225 370 226 379 Q 227 382 231 381 Q 235 379 233 371 L 230 368 Z " /></svg>