<svg width="627" height="627" preserveAspectRatio="xMidYMid meet" viewBox="0 0 512 512" version="1.1" xmlns="http://www.w3.org/2000/svg" ><path fill="rgb(255,255,255)" stroke="rgb(255,255,255)" stroke-width="0" opacity="1" d="M 0 0 L 512 0 L 512 512 L 0 512 L 0 0 Z M 357 93 L 346 97 Q 339 101 337 109 Q 335 118 340 121 Q 341 127 337 129 L 332 132 L 325 130 L 319 123 Q 313 111 298 109 L 280 110 L 248 116 Q 241 119 240 128 Q 240 136 244 140 L 254 144 L 285 139 L 291 137 L 294 134 L 299 134 L 308 146 L 312 148 L 315 152 L 315 159 L 321 180 L 322 181 L 319 184 Q 317 191 321 194 Q 320 196 323 195 L 323 199 L 312 220 L 291 251 L 268 273 Q 258 280 245 283 Q 237 284 233 281 L 227 274 L 211 227 Q 211 222 214 222 L 214 217 L 216 215 L 238 211 L 246 207 L 249 201 Q 250 192 247 189 L 239 182 L 234 181 L 209 181 L 180 173 Q 165 172 158 179 Q 152 184 150 192 Q 149 202 153 208 Q 161 218 178 219 L 179 224 Q 182 230 192 229 L 196 245 L 186 253 L 183 252 L 174 244 L 161 237 L 139 231 L 121 231 L 106 234 Q 85 241 72 254 L 56 274 Q 53 278 54 287 L 61 293 L 55 310 L 54 327 L 53 328 L 55 348 L 59 361 Q 65 376 75 387 L 93 401 L 112 409 L 123 410 L 124 411 L 142 410 L 153 407 Q 166 402 176 393 Q 189 381 196 363 L 211 365 L 210 367 Q 209 377 216 379 L 252 379 L 254 378 L 258 373 Q 259 366 257 363 L 254 359 L 248 358 L 246 359 Q 245 356 248 357 Q 255 350 257 339 Q 259 324 254 318 L 287 294 Q 315 269 334 234 Q 334 239 337 242 Q 333 245 334 255 L 328 259 Q 313 271 304 288 L 296 308 L 294 316 L 294 325 L 293 326 L 295 334 Q 298 339 306 338 L 308 355 L 312 368 L 325 390 Q 342 412 377 418 L 389 418 L 404 415 Q 418 410 429 401 Q 440 391 448 378 L 455 361 L 458 346 L 458 322 L 456 311 Q 451 292 440 279 Q 432 268 420 262 L 423 257 L 421 251 L 409 243 L 391 239 L 374 239 L 368 241 L 364 236 L 361 234 L 360 228 L 365 229 L 410 229 L 423 226 L 429 218 L 434 193 L 435 180 L 440 171 Q 441 164 438 162 L 432 157 L 421 156 L 420 155 L 370 155 L 369 156 L 361 156 L 346 159 L 340 164 L 337 155 L 346 150 Q 355 143 359 132 L 367 128 Q 374 124 376 116 Q 378 106 374 102 Q 370 93 357 93 Z " /><path fill="rgb(255,255,255)" stroke="rgb(255,255,255)" stroke-width="0" opacity="1" d="M 353.5 99 Q 365.3 97.2 369 103.5 L 371 112.5 Q 369.6 120.6 363.5 124 L 362 123.5 Q 366 121.5 364 113.5 L 360.5 109 L 353.5 107 Q 347.8 108.3 345 112.5 L 344 116 L 342 115.5 L 342 108.5 L 348.5 101 L 353.5 99 Z " /><path fill="rgb(255,255,255)" stroke="rgb(255,255,255)" stroke-width="0" opacity="1" d="M 353.5 112 L 359 114.5 L 360 118.5 L 350 138.5 L 342.5 146 L 332.5 150 L 325.5 150 Q 316.9 148.1 312 142.5 L 301.5 130 L 296 129 Q 297.7 119.5 293 115.5 L 301.5 115 Q 310.3 118.3 315 125.5 L 322.5 135 Q 325.8 138.2 333.5 137 L 340 133 L 347 118.5 L 351.5 113 L 353.5 112 Z " /><path fill="rgb(255,255,255)" stroke="rgb(255,255,255)" stroke-width="0" opacity="1" d="M 280.5 115 Q 288.5 113.5 290 118.5 Q 292.3 121.7 291 128.5 L 287.5 133 L 260.5 138 L 260 136.5 Q 263.2 134.2 262 127.5 L 257 119.5 L 261.5 118 L 274.5 117 L 280.5 115 Z " /><path fill="rgb(255,255,255)" stroke="rgb(255,255,255)" stroke-width="0" opacity="1" d="M 249.5 121 Q 254.6 120.4 256 123.5 L 258 131.5 L 254.5 138 Q 248 139 247 134.5 Q 244.7 131.3 246 124.5 L 249.5 121 Z " /><path fill="rgb(255,255,255)" stroke="rgb(255,255,255)" stroke-width="0" opacity="1" d="M 320 154 Q 324.3 155.9 332 155 L 337 171.5 L 337 176 L 326 178 L 320 158.5 L 320 154 Z " /><path fill="rgb(255,255,255)" stroke="rgb(255,255,255)" stroke-width="0" opacity="1" d="M 371.5 160 L 417.5 160 L 418.5 161 L 429.5 162 L 434 164.5 L 435 168.5 L 432.5 172 L 417.5 169 L 371.5 169 L 370.5 170 L 354.5 171 L 344.5 174 Q 341.8 172.8 343 167.5 L 346.5 164 L 360.5 161 L 370.5 161 L 371.5 160 Z " /><path fill="rgb(255,255,255)" stroke="rgb(255,255,255)" stroke-width="0" opacity="1" d="M 384.5 172 L 418.5 173 L 429.5 175 L 431 176.5 L 430 177.5 L 430 183.5 L 426 201.5 L 425 212.5 L 423 218.5 L 420.5 221 L 416.5 223 L 404.5 223 L 403.5 224 L 367.5 224 Q 366.3 221.8 361.5 223 L 356 218.5 L 351 200.5 L 347 177 L 359.5 174 L 383.5 173 L 384.5 172 Z M 382 179 L 378 185 L 380 212 Q 382 215 388 214 L 391 211 L 391 183 Q 390 178 382 179 Z M 403 179 L 400 180 L 398 187 L 397 211 Q 398 215 405 214 L 408 211 L 409 199 L 410 198 L 410 188 L 411 187 L 410 182 Q 409 178 403 179 Z M 421 179 L 416 185 L 414 203 L 413 204 L 413 213 Q 414 215 419 214 L 422 208 L 426 186 L 425 182 Q 425 179 421 179 Z M 363 180 L 359 184 L 360 199 L 363 212 Q 365 215 370 215 L 374 210 L 373 208 L 372 191 L 370 183 Q 369 179 363 180 Z " /><path fill="rgb(255,255,255)" stroke="rgb(255,255,255)" stroke-width="0" opacity="1" d="M 172.5 178 L 184.5 179 L 207.5 186 L 232.5 186 L 239.5 188 L 243 191.5 L 244 199.5 L 239.5 205 L 219.5 210 L 193.5 213 L 192.5 214 L 174.5 214 L 161.5 209 L 158 205.5 Q 153.7 201.3 155 191.5 L 160.5 183 L 172.5 178 Z " /><path fill="rgb(255,255,255)" stroke="rgb(255,255,255)" stroke-width="0" opacity="1" d="M 337.5 180 Q 342.9 178.1 342 181.5 L 343 185.5 L 341.5 187 L 325.5 191 Q 323 190 324 185.5 L 329.5 182 L 337.5 180 Z " /><path fill="rgb(255,255,255)" stroke="rgb(255,255,255)" stroke-width="0" opacity="1" d="M 404.5 181 L 407 182 L 408 186.5 L 406 196.5 L 406 205.5 L 403.5 211 L 400 209.5 L 401 185.5 L 404.5 181 Z " /><path fill="rgb(255,255,255)" stroke="rgb(255,255,255)" stroke-width="0" opacity="1" d="M 364.5 182 L 368 184.5 L 369 197.5 L 370 198.5 L 370 207.5 L 371 208.5 L 368.5 212 L 365 209.5 L 362 192.5 L 362 184.5 L 364.5 182 Z " /><path fill="rgb(255,255,255)" stroke="rgb(255,255,255)" stroke-width="0" opacity="1" d="M 382 182 Q 386.6 180.8 388 183.5 L 388 209.5 L 386.5 211 Q 382.5 211.5 382 208.5 L 382 190.5 Q 379.8 189.3 381 184.5 L 382 182 Z " /><path fill="rgb(255,255,255)" stroke="rgb(255,255,255)" stroke-width="0" opacity="1" d="M 421.5 182 Q 424.8 183.8 423 190.5 L 419 211 L 416 211 L 416 202.5 L 417 201.5 L 419 184.5 L 421.5 182 Z " /><path fill="rgb(255,255,255)" stroke="rgb(255,255,255)" stroke-width="0" opacity="1" d="M 341.5 191 L 345 192.5 L 349 214.5 L 354 223.5 L 355 232 L 350.5 232 L 339 237 L 328 195 L 341.5 191 Z " /><path fill="rgb(255,255,255)" stroke="rgb(255,255,255)" stroke-width="0" opacity="1" d="M 324 206 Q 327 204.8 326 208.5 L 331 223.5 L 331 228.5 L 305 267.5 L 282.5 291 Q 268.8 303.3 251.5 312 L 245.5 305 L 231.5 298 L 218 298 L 196 228.5 L 205.5 227 L 207 228.5 L 222 274.5 L 229.5 285 Q 235 289.5 246.5 288 Q 258.6 285.1 267.5 279 Q 282.9 268.9 294 254.5 Q 312.1 232.9 324 206 Z " /><path fill="rgb(255,255,255)" stroke="rgb(255,255,255)" stroke-width="0" opacity="1" d="M 208.5 216 L 210 218.5 L 205.5 222 L 195.5 224 L 186.5 224 L 183 219 L 201.5 218 L 208.5 216 Z " /><path fill="rgb(255,255,255)" stroke="rgb(255,255,255)" stroke-width="0" opacity="1" d="M 122.5 236 Q 161.8 235.8 180 256.5 L 175.5 262 L 171.5 265 Q 161.5 255 146.5 250 L 137.5 248 L 117.5 248 Q 104.3 250.3 94.5 256 Q 81.4 263.9 72 275.5 L 63.5 287 Q 59.5 287.5 59 284.5 L 59 279.5 L 64 270.5 L 80.5 253 L 98.5 242 L 110.5 238 L 121.5 237 L 122.5 236 Z " /><path fill="rgb(255,255,255)" stroke="rgb(255,255,255)" stroke-width="0" opacity="1" d="M 353.5 236 L 356.5 236 L 360 238 L 362 241.5 L 355.5 243 L 352 245.5 L 350 249.5 L 349 256.5 L 353 275.5 Q 356.5 280 357 287.5 L 373 323.5 L 379 330.5 L 379 337.5 Q 377.3 340.8 372.5 341 L 367 337.5 L 366 330.5 Q 354 311.5 346 288.5 L 339 264.5 L 338 253.5 L 340 245.5 L 343.5 240 L 353.5 236 Z " /><path fill="rgb(255,255,255)" stroke="rgb(255,255,255)" stroke-width="0" opacity="1" d="M 376.5 244 L 395.5 245 L 409.5 249 L 417 253.5 Q 418.9 258.9 415.5 258 Q 413.2 261.2 406.5 260 L 403.5 258 L 391.5 255 L 371.5 255 L 361.5 257 L 355.5 260 L 355 250.5 L 360.5 247 L 376.5 244 Z " /><path fill="rgb(255,255,255)" stroke="rgb(255,255,255)" stroke-width="0" opacity="1" d="M 197.5 250 L 200 257.5 Q 177.4 274.9 158 295.5 L 150.5 304 L 138.5 305 L 174.5 268 L 197.5 250 Z " /><path fill="rgb(255,255,255)" stroke="rgb(255,255,255)" stroke-width="0" opacity="1" d="M 119.5 253 L 136.5 253 L 141.5 254 Q 157.8 258.2 168 268.5 L 158.5 277 L 140.5 268 L 121.5 267 Q 97.9 271.9 86 288.5 L 78 301.5 L 74 313.5 Q 75.3 318.3 73 319.5 L 73 337.5 L 78 355.5 Q 83.2 366.8 91.5 375 Q 100.9 384.6 115.5 389 L 120.5 390 L 137.5 390 Q 157 385.5 168 372.5 L 176.5 360 L 191 362 Q 184.8 379 171.5 390 Q 155.6 405.1 125.5 406 L 124.5 405 L 112.5 404 L 103.5 401 Q 88.3 394.3 78 382.5 Q 67.4 370.6 62 353.5 L 59 340.5 L 59 316.5 L 62 303.5 L 67 291.5 Q 75.2 277.2 87.5 267 Q 99.8 256.3 119.5 253 Z " /><path fill="rgb(255,255,255)" stroke="rgb(255,255,255)" stroke-width="0" opacity="1" d="M 371.5 260 L 389.5 260 L 405.5 265 L 413.5 265 L 415.5 265 Q 428.1 270.9 436 281.5 Q 446.1 293.9 451 311.5 L 453 321.5 L 453 345.5 Q 447.2 379.2 425.5 397 Q 414.5 406.5 398.5 411 L 393.5 412 L 371.5 412 Q 343.7 405.8 329 386.5 Q 319.9 375.6 315 360.5 L 312 348.5 L 311 330.5 L 315 309.5 L 319 299.5 Q 325.6 286.1 336.5 277 L 342 291.5 Q 325 306.5 325 338.5 L 326 339.5 L 326 347.5 L 331 362.5 Q 337.2 375.3 347.5 384 Q 356.1 391.4 368.5 395 L 372.5 396 L 391.5 396 Q 412.9 390.4 424 374.5 Q 436.8 358.8 437 330.5 L 433 311.5 Q 427.6 297.4 417.5 288 Q 408.3 279.2 394.5 275 L 389.5 274 L 372.5 274 L 359 278 L 356 265.5 L 357.5 264 L 371.5 260 Z " /><path fill="rgb(255,255,255)" stroke="rgb(255,255,255)" stroke-width="0" opacity="1" d="M 333.5 261 L 336 270.5 Q 323.8 280.3 316 294.5 L 310 308.5 L 307 320.5 L 307 328.5 L 304.5 333 Q 299.8 333.8 299 330.5 L 299 317.5 L 304 299.5 Q 312.8 277.8 329.5 264 L 333.5 261 Z " /><path fill="rgb(255,255,255)" stroke="rgb(255,255,255)" stroke-width="0" opacity="1" d="M 200.5 263 Q 202.8 262.3 202 264.5 L 213 297.5 L 209 298 L 206 286.5 L 196 267.5 L 200.5 263 Z " /><path fill="rgb(255,255,255)" stroke="rgb(255,255,255)" stroke-width="0" opacity="1" d="M 190.5 271 L 193 272.5 L 202 290.5 L 204 299 L 193.5 300 L 183 278.5 L 190.5 271 Z " /><path fill="rgb(255,255,255)" stroke="rgb(255,255,255)" stroke-width="0" opacity="1" d="M 123.5 272 L 133.5 272 L 140 273 L 134 302.5 L 130.5 306 L 124 306 L 124 302.5 L 116 274 L 123.5 272 Z " /><path fill="rgb(255,255,255)" stroke="rgb(255,255,255)" stroke-width="0" opacity="1" d="M 111.5 275 Q 114.5 274.1 113 278.5 L 121 308 L 113.5 311 L 93 288.5 Q 100.1 279.6 111.5 275 Z " /><path fill="rgb(255,255,255)" stroke="rgb(255,255,255)" stroke-width="0" opacity="1" d="M 144.5 275 L 155 280.5 L 138.5 298 L 139 296.5 L 143 276.5 L 144.5 275 Z " /><path fill="rgb(255,255,255)" stroke="rgb(255,255,255)" stroke-width="0" opacity="1" d="M 376 279 L 388.5 279 L 397 281 L 385 317 L 381 316 L 380 313.5 L 376 279 Z " /><path fill="rgb(255,255,255)" stroke="rgb(255,255,255)" stroke-width="0" opacity="1" d="M 369.5 280 Q 372.8 278.9 372 281.5 L 373 282.5 L 377 317 Q 374.3 318.1 375 315.5 L 361 283.5 L 369.5 280 Z " /><path fill="rgb(255,255,255)" stroke="rgb(255,255,255)" stroke-width="0" opacity="1" d="M 178.5 282 L 181 284.5 L 188 299.5 L 177 301 L 171 289.5 L 178.5 282 Z " /><path fill="rgb(255,255,255)" stroke="rgb(255,255,255)" stroke-width="0" opacity="1" d="M 400 283 Q 412.4 287.8 420 298.5 L 392.5 322 L 388 319 L 400 283 Z " /><path fill="rgb(255,255,255)" stroke="rgb(255,255,255)" stroke-width="0" opacity="1" d="M 90.5 292 L 111 313.5 L 107 321 L 80 314 Q 81.9 300.4 90.5 292 Z " /><path fill="rgb(255,255,255)" stroke="rgb(255,255,255)" stroke-width="0" opacity="1" d="M 166.5 294 L 169 295.5 L 172 302 L 158.5 303 L 166.5 294 Z " /><path fill="rgb(255,255,255)" stroke="rgb(255,255,255)" stroke-width="0" opacity="1" d="M 343.5 297 Q 346.1 296.2 345 299.5 L 354 319.5 L 352.5 319 L 335 310.5 L 343.5 297 Z " /><path fill="rgb(255,255,255)" stroke="rgb(255,255,255)" stroke-width="0" opacity="1" d="M 421.5 301 L 429 315.5 L 431 327 L 399.5 330 L 396 331 L 395 324.5 L 421.5 301 Z " /><path fill="rgb(255,255,255)" stroke="rgb(255,255,255)" stroke-width="0" opacity="1" d="M 207.5 303 L 230.5 303 Q 240.1 305.9 246 312.5 L 252 325.5 L 252 337.5 Q 249.7 348.7 242.5 355 L 239.5 357 L 233 343.5 Q 238.3 339.8 237 329.5 Q 235.5 323 230.5 320 Q 227 316 218.5 317 L 209 323.5 Q 205.1 327.6 206 336.5 L 212.5 346 L 217 348.5 L 221 359 L 209.5 360 L 208.5 359 L 202.5 359 L 201.5 358 L 195.5 358 L 168.5 353 L 161.5 353 L 160.5 352 L 154.5 352 L 147.5 350 L 123.5 347 Q 116.3 345.2 113 339.5 Q 109.1 335.4 110 326.5 Q 111.5 318.9 116.5 315 L 125.5 311 L 153.5 309 L 163.5 307 L 173.5 307 L 174.5 306 L 196.5 305 L 207.5 303 Z M 124 320 L 121 322 L 117 329 L 119 336 Q 121 341 131 339 L 136 333 L 135 325 Q 133 319 124 320 Z " /><path fill="rgb(255,255,255)" stroke="rgb(255,255,255)" stroke-width="0" opacity="1" d="M 334.5 314 L 355.5 324 L 358 326.5 L 361 331.5 L 361 335 L 348.5 337 L 341.5 337 L 340.5 338 L 332.5 338 L 331.5 339 Q 328.5 337.5 330 331.5 L 331 330.5 L 332 318.5 L 334.5 314 Z " /><path fill="rgb(255,255,255)" stroke="rgb(255,255,255)" stroke-width="0" opacity="1" d="M 79 317 L 105 324 L 105 333.5 L 103.5 334 L 79.5 341 L 78 336.5 L 78 320.5 L 79 317 Z " /><path fill="rgb(255,255,255)" stroke="rgb(255,255,255)" stroke-width="0" opacity="1" d="M 378 321 Q 386 320 389 325.5 L 392 332.5 L 392 336.5 L 388 345 L 382.5 348 L 376.5 348 L 372 345.5 Q 379.5 346 382 341.5 Q 385.6 338.6 384 330.5 L 378 321 Z " /><path fill="rgb(255,255,255)" stroke="rgb(255,255,255)" stroke-width="0" opacity="1" d="M 218.5 322 Q 227.2 320.8 230 325.5 Q 233.3 329.4 232 337 Q 229 338.3 230 334.5 L 224.5 327 L 219.5 326 L 215 328 L 213 331.5 L 213 338.5 L 214 340.5 L 213 340.5 Q 209.8 337.2 211 329.5 L 214 324 L 218.5 322 Z " /><path fill="rgb(255,255,255)" stroke="rgb(255,255,255)" stroke-width="0" opacity="1" d="M 125.5 324 L 131 326.5 L 132 329.5 L 129.5 334 L 125.5 335 Q 121 334 122 327.5 L 125.5 324 Z " /><path fill="rgb(255,255,255)" stroke="rgb(255,255,255)" stroke-width="0" opacity="1" d="M 429.5 330 L 431 330.5 L 431 344.5 L 428 357 L 396 340.5 L 397 334 L 428.5 331 L 429.5 330 Z " /><path fill="rgb(255,255,255)" stroke="rgb(255,255,255)" stroke-width="0" opacity="1" d="M 219.5 331 Q 223.3 330.3 224 332.5 L 234 359 L 226.5 359 L 226 357.5 L 217 337.5 L 217 333.5 L 219.5 331 Z " /><path fill="rgb(255,255,255)" stroke="rgb(255,255,255)" stroke-width="0" opacity="1" d="M 105.5 337 L 110 345.5 L 90.5 366 Q 82.5 357 80 344 Q 93.9 342.2 105.5 337 Z " /><path fill="rgb(255,255,255)" stroke="rgb(255,255,255)" stroke-width="0" opacity="1" d="M 361.5 338 L 365 344.5 L 342.5 363 L 338 365 Q 332.2 355.7 331 342 L 354.5 340 L 361.5 338 Z " /><path fill="rgb(255,255,255)" stroke="rgb(255,255,255)" stroke-width="0" opacity="1" d="M 394.5 344 L 426 360.5 Q 421.3 372.8 411.5 380 Q 409.3 380.8 410 378.5 L 390 348.5 L 394.5 344 Z " /><path fill="rgb(255,255,255)" stroke="rgb(255,255,255)" stroke-width="0" opacity="1" d="M 113.5 347 L 121 351.5 L 113 382 Q 100.3 378.4 93 368.5 L 113.5 347 Z " /><path fill="rgb(255,255,255)" stroke="rgb(255,255,255)" stroke-width="0" opacity="1" d="M 365.5 348 L 371 350.5 L 371 353.5 L 357.5 385 L 344 373.5 L 341 368.5 L 365.5 348 Z " /><path fill="rgb(255,255,255)" stroke="rgb(255,255,255)" stroke-width="0" opacity="1" d="M 386.5 351 L 389 352.5 L 408 382.5 Q 399.9 390.1 386 391 L 383 352 L 386.5 351 Z " /><path fill="rgb(255,255,255)" stroke="rgb(255,255,255)" stroke-width="0" opacity="1" d="M 124 352 L 133 353 L 141 383.5 Q 133.9 386.9 121.5 385 L 117 384 L 117 379.5 L 124 352 Z " /><path fill="rgb(255,255,255)" stroke="rgb(255,255,255)" stroke-width="0" opacity="1" d="M 375.5 352 L 379 353 L 380 355.5 L 380 365.5 L 381 366.5 L 382 386.5 L 383 391 Q 369.4 391.8 361 386.5 L 375.5 352 Z " /><path fill="rgb(255,255,255)" stroke="rgb(255,255,255)" stroke-width="0" opacity="1" d="M 137 354 L 152.5 356 L 162 365.5 L 164 368.5 L 159.5 374 L 144.5 383 L 137 354 Z " /><path fill="rgb(255,255,255)" stroke="rgb(255,255,255)" stroke-width="0" opacity="1" d="M 159.5 357 L 171 359.5 L 166.5 366 L 159.5 357 Z " /><path fill="rgb(255,255,255)" stroke="rgb(255,255,255)" stroke-width="0" opacity="1" d="M 217.5 364 L 251.5 364 L 253 365.5 Q 254.5 372.5 250.5 374 L 217.5 374 L 215 371.5 Q 213.8 365.3 217.5 364 Z " /><path fill="rgb(0,0,0)" stroke="rgb(0,0,0)" stroke-width="0" opacity="1" d="M 356.5 93 Q 369.5 93 374 101.5 Q 377.7 105.8 376 115.5 Q 373.6 124.1 366.5 128 L 359 131.5 Q 354.9 143.4 345.5 150 L 337 154.5 L 339.5 164 L 345.5 159 L 360.5 156 L 368.5 156 L 369.5 155 L 419.5 155 L 420.5 156 L 431.5 157 L 438 161.5 Q 440.8 164.2 440 170.5 L 435 179.5 L 434 192.5 L 429 217.5 L 422.5 226 L 409.5 229 L 364.5 229 L 360 228 L 361 234 L 364 235.5 L 367.5 241 L 373.5 239 L 390.5 239 L 408.5 243 L 421 250.5 L 423 256.5 L 420 261.5 Q 432 268 440 278.5 Q 450.9 291.6 456 310.5 L 458 321.5 L 458 345.5 L 455 360.5 L 448 377.5 Q 440 391 428.5 401 Q 418.1 410.1 403.5 415 L 388.5 418 L 376.5 418 Q 342.3 412.3 325 389.5 L 312 367.5 L 308 354.5 L 306 338 Q 297.6 339.4 295 333.5 L 293 325.5 L 294 324.5 L 294 315.5 L 296 307.5 L 304 287.5 Q 313.3 270.8 327.5 259 L 334 254.5 Q 332.8 245.3 337 241.5 Q 333.7 239.3 333.5 234 Q 314.7 268.7 286.5 294 L 254 317.5 Q 259.1 324.4 257 338.5 Q 254.7 350.2 247.5 357 Q 245.3 356.3 246 358.5 L 247.5 358 L 253.5 359 L 257 362.5 Q 259.3 365.7 258 372.5 L 253.5 378 L 251.5 379 L 215.5 379 Q 208.6 376.9 210 366.5 L 210.5 365 L 196 363 Q 189.5 381.2 175.5 393 Q 165.9 401.9 152.5 407 L 141.5 410 L 123.5 411 L 122.5 410 L 111.5 409 L 92.5 401 L 75 386.5 Q 65 375.5 59 360.5 L 55 347.5 L 53 327.5 L 54 326.5 L 55 309.5 L 61 292.5 L 54 286.5 Q 52.9 277.9 56 273.5 L 71.5 254 Q 85.2 240.7 105.5 234 L 120.5 231 L 138.5 231 L 160.5 237 L 173.5 244 L 182.5 252 L 185.5 253 L 196 244.5 L 192 229 Q 182.2 230 179 223.5 L 178 219 Q 160.8 218.4 153 207.5 Q 148.7 202.3 150 191.5 Q 152.3 183.8 157.5 179 Q 164.9 172.4 179.5 173 L 208.5 181 L 233.5 181 L 238.5 182 L 247 188.5 Q 250.3 192.2 249 200.5 L 246 207 L 237.5 211 L 215.5 215 L 214 216.5 L 214 221.5 Q 210.5 222 211 226.5 L 227 273.5 L 232.5 281 Q 236.5 284 244.5 283 Q 258.3 280.3 267.5 273 L 291 250.5 L 312 219.5 L 323 198.5 L 323 195 Q 320.3 196.1 321 193.5 Q 317 191.5 319 183.5 L 322 180.5 L 321 179.5 L 315 158.5 L 315 151.5 L 311.5 148 L 308 145.5 L 298.5 134 L 293.5 134 L 290.5 137 L 284.5 139 L 253.5 144 L 244 139.5 Q 240 135.5 240 127.5 Q 241.4 119.4 247.5 116 L 279.5 110 L 297.5 109 Q 312.6 111.4 319 122.5 L 324.5 130 L 331.5 132 L 337 128.5 Q 340.6 126.6 340 120.5 Q 335.3 117.7 337 108.5 Q 339.1 100.6 345.5 97 L 356.5 93 Z M 354 99 L 349 101 L 342 109 L 342 116 L 344 116 L 345 113 Q 348 108 354 107 L 361 109 L 364 114 Q 366 121 362 124 L 364 124 Q 370 121 371 113 L 369 104 Q 365 97 354 99 Z M 354 112 L 352 113 L 347 119 L 340 133 L 334 137 Q 326 138 323 135 L 315 126 Q 310 118 302 115 L 293 116 Q 298 120 296 129 L 302 130 L 312 143 Q 317 148 326 150 L 333 150 L 343 146 L 350 139 L 360 119 L 359 115 L 354 112 Z M 281 115 L 275 117 L 262 118 L 257 120 L 262 128 Q 263 134 260 137 L 261 138 L 288 133 L 291 129 Q 292 122 290 119 Q 289 114 281 115 Z M 250 121 L 246 125 Q 245 131 247 135 Q 248 139 255 138 L 258 132 L 256 124 Q 255 120 250 121 Z M 320 154 L 320 159 L 326 178 L 337 176 L 337 172 L 332 155 Q 324 156 320 154 Z M 372 160 L 371 161 L 361 161 L 347 164 L 343 168 Q 342 173 345 174 L 355 171 L 371 170 L 372 169 L 418 169 L 433 172 L 435 169 L 434 165 L 430 162 L 419 161 L 418 160 L 372 160 Z M 385 172 L 384 173 L 360 174 L 347 177 L 351 201 L 356 219 L 362 223 Q 366 222 368 224 L 404 224 L 405 223 L 417 223 L 421 221 L 423 219 L 425 213 L 426 202 L 430 184 L 430 178 L 431 177 L 430 175 L 419 173 L 385 172 Z M 173 178 L 161 183 L 155 192 Q 154 201 158 206 L 162 209 L 175 214 L 193 214 L 194 213 L 220 210 L 240 205 L 244 200 L 243 192 L 240 188 L 233 186 L 208 186 L 185 179 L 173 178 Z M 338 180 L 330 182 L 324 186 Q 323 190 326 191 L 342 187 L 343 186 L 342 182 Q 343 178 338 180 Z M 342 191 L 328 195 L 339 237 L 351 232 L 355 232 L 354 224 L 349 215 L 345 193 L 342 191 Z M 324 206 Q 312 233 294 255 Q 283 269 268 279 Q 259 285 247 288 Q 235 290 230 285 L 222 275 L 207 229 L 206 227 L 196 229 L 218 298 L 232 298 L 246 305 L 252 312 Q 269 303 283 291 L 305 268 L 331 229 L 331 224 L 326 209 Q 327 205 324 206 Z M 209 216 L 202 218 L 183 219 L 187 224 L 196 224 L 206 222 L 210 219 L 209 216 Z M 123 236 L 122 237 L 111 238 L 99 242 L 81 253 L 64 271 L 59 280 L 59 285 Q 59 287 64 287 L 72 276 Q 81 264 95 256 Q 104 250 118 248 L 138 248 L 147 250 Q 162 255 172 265 L 176 262 L 180 257 Q 162 236 123 236 Z M 354 236 L 344 240 L 340 246 L 338 254 L 339 265 L 346 289 Q 354 311 366 331 L 367 338 L 373 341 Q 377 341 379 338 L 379 331 L 373 324 L 357 288 Q 357 280 353 276 L 349 257 L 350 250 L 352 246 L 356 243 L 362 242 L 360 238 L 357 236 L 354 236 Z M 377 244 L 361 247 L 355 251 L 356 260 L 362 257 L 372 255 L 392 255 L 404 258 L 407 260 Q 413 261 416 258 Q 419 259 417 254 L 410 249 L 396 245 L 377 244 Z M 198 250 L 175 268 L 139 305 L 151 304 L 158 296 Q 177 275 200 258 L 198 250 Z M 120 253 Q 100 256 88 267 Q 75 277 67 292 L 62 304 L 59 317 L 59 341 L 62 354 Q 67 371 78 383 Q 88 394 104 401 L 113 404 L 125 405 L 126 406 Q 156 405 172 390 Q 185 379 191 362 L 177 360 L 168 373 Q 157 385 138 390 L 121 390 L 116 389 Q 101 385 92 375 Q 83 367 78 356 L 73 338 L 73 320 Q 75 318 74 314 L 78 302 L 86 289 Q 98 272 122 267 L 141 268 L 159 277 L 168 269 Q 158 258 142 254 L 137 253 L 120 253 Z M 372 260 L 358 264 L 356 266 L 359 278 L 373 274 L 390 274 L 395 275 Q 408 279 418 288 Q 428 297 433 312 L 437 331 Q 437 359 424 375 Q 413 390 392 396 L 373 396 L 369 395 Q 356 391 348 384 Q 337 375 331 363 L 326 348 L 326 340 L 325 339 Q 325 307 342 292 L 337 277 Q 326 286 319 300 L 315 310 L 311 331 L 312 349 L 315 361 Q 320 376 329 387 Q 344 406 372 412 L 394 412 L 399 411 Q 414 406 426 397 Q 447 379 453 346 L 453 322 L 451 312 Q 446 294 436 282 Q 428 271 416 265 L 414 265 L 406 265 L 390 260 L 372 260 Z M 334 261 L 330 264 Q 313 278 304 300 L 299 318 L 299 331 Q 300 334 305 333 L 307 329 L 307 321 L 310 309 L 316 295 Q 324 280 336 271 L 334 261 Z M 201 263 L 196 268 L 206 287 L 209 298 L 213 298 L 202 265 Q 203 262 201 263 Z M 191 271 L 183 279 L 194 300 L 204 299 L 202 291 L 193 273 L 191 271 Z M 124 272 L 116 274 L 124 303 L 124 306 L 131 306 L 134 303 L 140 273 L 134 272 L 124 272 Z M 112 275 Q 100 280 93 289 L 114 311 L 121 308 L 113 279 Q 114 274 112 275 Z M 145 275 L 143 277 L 139 294 L 140 297 L 155 281 L 145 275 Z M 376 279 L 380 314 L 381 316 L 385 317 L 397 281 L 389 279 L 376 279 Z M 370 280 L 361 284 L 375 316 Q 374 318 377 317 L 373 283 L 372 282 Q 373 279 370 280 Z M 179 282 L 171 290 L 177 301 L 188 300 L 181 285 L 179 282 Z M 400 283 L 388 319 L 393 322 L 420 299 Q 412 288 400 283 Z M 91 292 Q 82 300 80 314 L 107 321 L 111 314 L 91 292 Z M 167 294 L 159 303 L 172 302 L 169 296 L 167 294 Z M 344 297 L 335 311 L 353 319 L 354 320 L 345 300 Q 346 296 344 297 Z M 422 301 L 395 325 L 396 331 L 400 330 L 431 327 L 429 316 L 422 301 Z M 208 303 L 197 305 L 175 306 L 174 307 L 164 307 L 154 309 L 126 311 L 117 315 Q 111 319 110 327 Q 109 335 113 340 Q 116 345 124 347 L 148 350 L 155 352 L 161 352 L 162 353 L 169 353 L 196 358 L 202 358 L 203 359 L 209 359 L 210 360 L 221 359 L 217 349 L 213 346 L 206 337 Q 205 328 209 324 L 219 317 Q 227 316 231 320 Q 235 323 237 330 Q 238 340 233 344 L 240 357 L 243 355 Q 250 349 252 338 L 252 326 L 246 313 Q 240 306 231 303 L 208 303 Z M 335 314 L 332 319 L 331 331 L 330 332 Q 328 338 332 339 L 333 338 L 341 338 L 342 337 L 349 337 L 361 335 L 361 332 L 358 327 L 356 324 L 335 314 Z M 79 317 L 78 321 L 78 337 L 80 341 L 104 334 L 105 334 L 105 324 L 79 317 Z M 378 321 L 384 331 Q 386 339 382 342 Q 379 346 372 346 L 377 348 L 383 348 L 388 345 L 392 337 L 392 333 L 389 326 Q 386 320 378 321 Z M 219 322 L 214 324 L 211 330 Q 210 336 213 339 Q 212 331 215 328 L 220 326 L 225 327 L 230 335 Q 229 338 232 337 Q 233 329 230 326 Q 227 321 219 322 Z M 430 330 L 429 331 L 397 334 L 396 341 L 428 357 L 431 345 L 431 331 L 430 330 Z M 220 331 L 217 334 L 217 338 L 226 358 L 227 359 L 234 359 L 224 333 Q 223 330 220 331 Z M 106 337 Q 94 342 80 344 Q 82 357 91 366 L 110 346 L 106 337 Z M 362 338 L 355 340 L 331 342 Q 332 356 338 365 L 343 363 L 365 345 L 362 338 Z M 395 344 L 390 349 L 410 379 Q 409 381 412 380 Q 421 373 426 361 L 395 344 Z M 114 347 L 93 369 Q 100 378 113 382 L 121 352 L 114 347 Z M 366 348 L 341 369 L 344 374 L 358 385 L 371 354 L 371 351 L 366 348 Z M 387 351 L 383 352 L 386 391 Q 400 390 408 383 L 389 353 L 387 351 Z M 124 352 L 117 380 L 117 384 L 122 385 Q 134 387 141 384 L 133 353 L 124 352 Z M 376 352 L 361 387 Q 369 392 383 391 L 382 387 L 381 367 L 380 366 L 380 356 L 379 353 L 376 352 Z M 137 354 L 145 383 L 160 374 L 164 369 L 162 366 L 153 356 L 137 354 Z M 160 357 L 167 366 L 171 360 L 160 357 Z M 218 364 Q 214 365 215 372 L 218 374 L 251 374 Q 255 372 253 366 L 252 364 L 218 364 Z " /><path fill="rgb(0,0,0)" stroke="rgb(0,0,0)" stroke-width="0" opacity="1" d="M 381.5 179 Q 389.5 177.5 391 182.5 L 391 210.5 L 387.5 214 Q 381.7 214.8 380 211.5 L 378 184.5 L 381.5 179 Z M 382 182 L 381 185 Q 380 189 382 191 L 382 209 Q 383 212 387 211 L 388 210 L 388 184 Q 387 181 382 182 Z " /><path fill="rgb(0,0,0)" stroke="rgb(0,0,0)" stroke-width="0" opacity="1" d="M 402.5 179 Q 408.8 177.8 410 181.5 L 411 186.5 L 410 187.5 L 410 197.5 L 409 198.5 L 408 210.5 L 404.5 214 Q 398 215 397 210.5 L 398 186.5 L 400 180 L 402.5 179 Z M 405 181 L 401 186 L 400 210 L 404 211 L 406 206 L 406 197 L 408 187 L 407 182 L 405 181 Z " /><path fill="rgb(0,0,0)" stroke="rgb(0,0,0)" stroke-width="0" opacity="1" d="M 420.5 179 Q 424.5 178.5 425 181.5 L 426 185.5 L 422 207.5 L 418.5 214 Q 414 215 413 212.5 L 413 203.5 L 414 202.5 L 416 184.5 L 420.5 179 Z M 422 182 L 419 185 L 417 202 L 416 203 L 416 211 L 419 211 L 423 191 Q 425 184 422 182 Z " /><path fill="rgb(0,0,0)" stroke="rgb(0,0,0)" stroke-width="0" opacity="1" d="M 362.5 180 Q 368.8 178.8 370 182.5 L 372 190.5 L 373 207.5 L 374 209.5 L 369.5 215 Q 364.8 214.8 363 211.5 L 360 198.5 L 359 183.5 L 362.5 180 Z M 365 182 L 362 185 L 362 193 L 365 210 L 369 212 L 371 209 L 370 208 L 370 199 L 369 198 L 368 185 L 365 182 Z " /><path fill="rgb(0,0,0)" stroke="rgb(0,0,0)" stroke-width="0" opacity="1" d="M 123.5 320 Q 132.8 318.6 135 324.5 L 136 332.5 L 130.5 339 Q 121.5 340.5 119 335.5 L 117 328.5 L 120.5 322 L 123.5 320 Z M 126 324 L 122 328 Q 121 334 126 335 L 130 334 L 132 330 L 131 327 L 126 324 Z " /></svg>