<svg width="627" height="627" preserveAspectRatio="xMidYMid meet" viewBox="0 0 512 512" version="1.1" xmlns="http://www.w3.org/2000/svg" ><path fill="rgb(255,255,255)" stroke="rgb(255,255,255)" stroke-width="0" opacity="1" d="M 0 0 L 512 0 L 512 512 L 0 512 L 0 0 Z M 313 99 L 309 102 L 308 101 L 294 101 L 293 100 Q 282 99 277 103 L 273 108 L 272 112 Q 271 118 274 121 Q 277 125 283 126 L 305 126 L 306 129 L 313 132 L 320 131 L 323 141 L 321 145 Q 320 150 322 152 L 206 203 L 206 202 L 206 197 L 204 191 L 199 188 L 191 157 L 196 154 L 203 145 Q 215 147 222 142 L 225 138 L 224 130 L 220 125 L 213 123 L 182 121 L 163 117 L 156 117 L 145 121 Q 138 125 135 133 L 135 141 L 139 148 L 148 153 L 157 154 L 158 157 Q 161 161 168 162 L 171 161 L 179 193 L 180 194 L 176 198 Q 175 205 179 208 Q 178 210 181 209 L 183 212 L 184 218 L 169 229 L 166 228 L 163 229 L 164 227 L 163 224 L 152 215 L 147 217 L 145 211 L 133 206 Q 127 205 127 209 Q 123 210 125 206 Q 120 201 109 203 L 106 207 L 103 203 L 90 205 Q 86 206 87 210 Q 84 211 85 208 L 83 207 L 73 211 Q 69 212 70 217 L 68 216 Q 59 218 55 225 L 56 228 L 52 228 L 44 237 Q 47 244 41 242 L 34 253 L 35 257 Q 36 260 33 259 L 29 264 L 27 271 Q 26 276 29 277 Q 30 279 28 278 L 24 283 L 23 296 L 27 298 L 23 303 L 23 316 L 24 318 L 28 320 Q 29 324 26 323 L 25 327 L 29 340 Q 30 343 34 342 L 33 346 L 33 350 L 38 359 L 45 363 L 43 366 L 47 372 L 54 377 L 56 376 Q 59 375 57 381 L 67 388 L 72 387 L 72 391 L 84 397 L 89 395 Q 91 394 90 398 L 94 400 L 106 401 L 109 397 L 109 399 L 114 402 L 115 401 L 126 400 L 128 395 L 132 398 L 144 394 L 145 392 L 146 389 L 149 390 L 158 386 Q 162 384 162 378 L 166 379 L 175 369 L 174 366 L 175 364 L 178 365 L 186 353 L 184 348 L 184 346 L 189 346 L 193 336 Q 194 330 190 329 L 191 327 L 194 333 Q 200 341 214 342 L 200 344 L 196 349 Q 195 355 197 359 L 205 362 L 217 362 L 218 363 L 231 362 L 244 359 L 247 352 L 245 345 L 242 342 L 231 342 L 230 337 L 234 334 L 242 323 L 245 311 L 244 307 L 244 304 L 329 198 L 332 196 L 331 198 L 331 208 L 337 226 L 325 233 L 324 236 L 325 239 L 325 240 L 321 239 L 311 251 L 313 256 L 312 255 L 307 256 L 301 269 L 303 273 Q 304 277 300 275 L 297 279 L 294 291 L 298 296 Q 299 298 296 297 L 293 301 L 293 316 L 295 317 Q 299 316 297 320 L 294 322 L 294 330 L 296 338 L 301 340 Q 302 343 299 345 L 303 358 Q 304 361 309 361 Q 310 359 311 362 L 309 365 L 310 370 L 315 377 Q 316 380 321 379 Q 322 377 323 380 L 322 384 L 333 393 L 337 392 Q 340 391 338 397 L 350 404 L 355 402 L 356 407 L 368 411 L 374 408 Q 376 407 375 411 L 379 413 Q 384 412 386 414 Q 392 415 394 412 Q 393 408 396 409 L 399 413 L 408 413 L 415 411 Q 417 410 416 406 L 423 409 L 435 404 Q 438 403 437 397 L 440 398 L 445 398 L 453 392 L 456 388 L 455 386 Q 453 384 456 383 L 461 384 L 469 375 L 470 370 Q 466 368 470 366 L 472 367 L 474 366 L 476 364 L 481 353 L 481 350 L 478 346 Q 479 343 481 345 L 483 344 L 485 342 L 486 338 L 487 326 L 483 323 L 487 320 L 489 317 L 489 304 L 486 299 Q 482 300 483 298 L 487 295 L 487 288 L 484 279 Q 484 275 480 276 Q 476 274 481 272 Q 480 263 476 258 Q 474 254 468 255 L 470 252 L 470 249 L 465 242 Q 463 237 455 238 L 457 235 L 456 233 L 446 224 L 441 225 Q 437 226 439 221 L 436 217 L 426 213 L 422 214 Q 419 213 420 216 L 418 216 L 417 212 L 413 209 L 400 208 L 397 212 Q 393 214 394 210 L 391 207 L 384 208 L 380 196 L 371 188 L 364 188 L 364 184 L 359 177 L 356 167 L 359 165 Q 364 160 366 152 L 366 147 L 363 139 L 365 139 L 372 136 L 376 137 L 387 137 L 389 136 L 393 130 L 392 122 Q 388 115 377 116 L 370 110 Q 360 108 358 113 L 340 109 L 328 108 L 326 104 L 321 99 L 313 99 Z " /><path fill="rgb(255,255,255)" stroke="rgb(255,255,255)" stroke-width="0" opacity="1" d="M 315.5 104 Q 320.6 103.4 322 106.5 Q 324.7 109.8 324 116.5 L 319.5 125 L 314.5 127 L 312 125.5 L 317 121.5 Q 320.2 118.2 319 110.5 L 315.5 104 Z " /><path fill="rgb(255,255,255)" stroke="rgb(255,255,255)" stroke-width="0" opacity="1" d="M 291.5 105 L 292.5 106 L 305.5 106 L 313 108 Q 314.9 110.7 314 117.5 L 311.5 121 L 291.5 121 L 291 119.5 Q 294.4 116.9 293 109.5 L 291.5 105 Z " /><path fill="rgb(255,255,255)" stroke="rgb(255,255,255)" stroke-width="0" opacity="1" d="M 281.5 106 Q 287 105 288 108.5 L 289 115.5 L 285.5 120 Q 279.3 121.3 278 117.5 L 277 112.5 L 279 107 L 281.5 106 Z " /><path fill="rgb(255,255,255)" stroke="rgb(255,255,255)" stroke-width="0" opacity="1" d="M 329 113 L 358.5 118 L 363 120.5 Q 364.3 126.8 360.5 128 L 344.5 124 L 328 122 L 329 113 Z " /><path fill="rgb(255,255,255)" stroke="rgb(255,255,255)" stroke-width="0" opacity="1" d="M 364.5 115 Q 370 114 371 117.5 L 372 126.5 L 367.5 133 L 364.5 134 L 361 132.5 L 366 129.5 Q 368.8 126.8 368 120.5 L 366 116 L 364.5 115 Z " /><path fill="rgb(255,255,255)" stroke="rgb(255,255,255)" stroke-width="0" opacity="1" d="M 377 121 L 387 123 L 388 128.5 L 385.5 132 Q 378 133.5 375 130.5 Q 378 127.3 377 121 Z " /><path fill="rgb(255,255,255)" stroke="rgb(255,255,255)" stroke-width="0" opacity="1" d="M 152.5 123 L 167.5 123 L 179.5 126 L 211.5 128 L 219 131.5 L 220 135.5 L 219 138 L 216.5 139 L 191.5 141 L 165.5 149 L 152.5 149 L 142 144 Q 139.3 141.4 140 134.5 L 144.5 127 L 152.5 123 Z " /><path fill="rgb(255,255,255)" stroke="rgb(255,255,255)" stroke-width="0" opacity="1" d="M 327.5 127 L 340 127.5 Q 336.5 128 337 132.5 L 339 135.5 L 327 139 L 325 129.5 L 327.5 127 Z " /><path fill="rgb(255,255,255)" stroke="rgb(255,255,255)" stroke-width="0" opacity="1" d="M 343.5 130 Q 350.8 129.2 354 132.5 L 361 143.5 L 361 153.5 L 355.5 162 L 350 147.5 L 350 141.5 L 345.5 136 L 343 134.5 L 342 131.5 L 343.5 130 Z " /><path fill="rgb(255,255,255)" stroke="rgb(255,255,255)" stroke-width="0" opacity="1" d="M 335.5 141 L 343.5 141 L 344 142.5 L 345 145 Q 334 144.7 327.5 150 L 326 146.5 L 335.5 141 Z " /><path fill="rgb(255,255,255)" stroke="rgb(255,255,255)" stroke-width="0" opacity="1" d="M 196.5 145 L 192.5 150 Q 188.8 153.3 180.5 152 L 170.5 157 L 167.5 157 L 163 154.5 L 196.5 145 Z " /><path fill="rgb(255,255,255)" stroke="rgb(255,255,255)" stroke-width="0" opacity="1" d="M 345.5 149 L 354 178 L 344.5 180 L 338.5 184 L 337 181 Q 334.3 179.9 335 182.5 L 242.5 298 Q 240.4 289.6 235 284.5 L 320 174 L 302.5 180 L 206 222 L 210 242.5 L 220 276.5 L 208.5 277 L 206 278 L 195 235.5 L 191.5 228 Q 150.7 256.7 115 290.5 L 116.5 293 L 120 294.5 Q 120.8 296.8 118.5 296 L 117 300 L 124.5 300 L 125.5 301 L 142.5 301 L 143.5 302 L 161.5 302 L 162.5 303 L 179.5 303 L 186 304.5 Q 183.3 306.2 185 312.5 L 186 315.5 L 184.5 315 L 115 308.5 L 116 307.5 L 116 298.5 L 113 293 L 109.5 291 L 106.5 291 Q 103.5 292.5 106.5 294 L 112 298.5 L 113 303.5 L 111 309.5 L 108.5 312 L 103 314.5 Q 103.8 316.8 107.5 316 L 114.5 311 L 118 313.5 L 111.5 318 L 108.5 318 Q 100.1 315.8 96 309.5 Q 93.3 305.7 95 297.5 L 99.5 291 L 106.5 288 L 161.5 240 L 190 218.5 L 187 208 L 195.5 205 L 201 205 Q 200 208.8 202.5 210 L 305.5 164 L 319.5 159 L 332.5 152 L 345.5 149 Z " /><path fill="rgb(255,255,255)" stroke="rgb(255,255,255)" stroke-width="0" opacity="1" d="M 182.5 156 Q 187.8 154.3 186 159.5 L 194 189 L 184 192 L 176 162.5 L 176 158 L 182.5 156 Z " /><path fill="rgb(255,255,255)" stroke="rgb(255,255,255)" stroke-width="0" opacity="1" d="M 350.5 183 L 357.5 183 L 358 184.5 L 359 189 Q 351.4 189.2 348 194.5 Q 344.7 199.2 346 208.5 L 352 228 L 343 231 L 336 207.5 L 336 197.5 L 342.5 186 L 350.5 183 Z " /><path fill="rgb(255,255,255)" stroke="rgb(255,255,255)" stroke-width="0" opacity="1" d="M 306.5 184 L 303 188.5 L 232 281 L 225 279 L 211 225.5 L 306.5 184 Z " /><path fill="rgb(255,255,255)" stroke="rgb(255,255,255)" stroke-width="0" opacity="1" d="M 196.5 193 L 200 194.5 L 201 200 Q 190.9 200.5 183.5 205 L 181 199.5 L 185.5 196 L 196.5 193 Z " /><path fill="rgb(255,255,255)" stroke="rgb(255,255,255)" stroke-width="0" opacity="1" d="M 358.5 193 Q 372.1 190.9 376 198.5 L 379 207.5 L 374 211.5 L 373.5 214 L 370 204.5 L 366.5 200 L 364.5 199 L 351 198.5 L 353.5 195 L 358.5 193 Z " /><path fill="rgb(255,255,255)" stroke="rgb(255,255,255)" stroke-width="0" opacity="1" d="M 351 204 L 363.5 204 L 365 205.5 L 367 210.5 L 355 215 L 354.5 217 L 351 208.5 L 351 204 Z " /><path fill="rgb(255,255,255)" stroke="rgb(255,255,255)" stroke-width="0" opacity="1" d="M 99.5 208 L 102.5 213 Q 109.5 214.5 109 211.5 L 110 208 Q 117 206.8 121 209.5 L 120 212.5 Q 123 215.9 129 215 L 131.5 211 L 141 215.5 L 139 220 L 146.5 223 L 150.5 220 L 158 225 L 156 230.5 L 162 234.5 L 149.5 244 Q 141.1 235.4 128.5 231 L 116.5 228 L 101.5 228 L 91.5 230 L 81.5 234 Q 70.8 239.8 63 248.5 Q 51.5 261.5 46 280.5 L 44 290.5 L 44 314.5 Q 49.3 346.3 69.5 363 Q 84.4 377.1 112.5 378 L 113.5 377 L 124.5 376 L 140.5 369 L 157 354.5 Q 169.2 340.4 173 319 Q 177.9 320.8 186.5 320 L 188 321.5 Q 189.1 325.7 185 324 L 185 327.5 L 184 329.5 L 188 332.5 L 184.5 342 L 180 341 L 177 347.5 L 181 351.5 L 179 353.5 L 177 359 L 171.5 358 L 167 363.5 L 170 367.5 L 163.5 374 L 161.5 372 Q 155.8 371.3 155 375.5 L 156 381 L 149.5 385 Q 149 381.5 144.5 382 L 140 385.5 L 141 388.5 L 132.5 393 L 129.5 389 L 123 390 L 123 395 L 120.5 395 L 119.5 396 L 113 396 Q 113.8 392.2 110.5 391 Q 105.3 389.8 104 392.5 Q 105.8 397.8 100.5 396 L 94 395 Q 95.3 390.4 92.5 389 L 87.5 388 L 84.5 392 L 77 389 L 77 383.5 L 75.5 383 L 70.5 381 L 67.5 383 L 62 378.5 L 63 374.5 L 58.5 370 L 56.5 370 L 53.5 371 L 48 364.5 L 50 360.5 L 47 355 L 42.5 356 L 38 346.5 L 40 342.5 L 36.5 336 L 33 337 L 30 326.5 L 34 323.5 L 33 317.5 L 31.5 316 L 28 314.5 L 28 304.5 L 29.5 304 L 31 302.5 Q 29.7 297.8 32 296.5 L 31 294 Q 25.8 295.8 28 288.5 L 29 283 Q 32.8 283.8 34 280.5 L 35 275.5 Q 31.5 275 32 270.5 L 34 264 L 39 264 L 39 262.5 L 41 256.5 L 39 252.5 L 42 247 L 46.5 248 L 50 241.5 L 48 238.5 L 54.5 233 L 56.5 235 L 61 230.5 L 60 226.5 L 66.5 221 L 70.5 224 L 75 220.5 L 74 216.5 L 81.5 213 L 84 217 L 91 215 L 91 210 L 93.5 210 L 99.5 208 Z " /><path fill="rgb(255,255,255)" stroke="rgb(255,255,255)" stroke-width="0" opacity="1" d="M 389.5 212 Q 388.9 216.6 391.5 218 Q 398.3 219.8 400 216.5 L 401.5 213 L 410.5 214 L 413 215.5 L 412 220 L 421 222 L 423.5 218 L 434 222.5 L 432 228 L 439.5 231 L 443.5 229 L 451 234.5 L 449 239.5 L 454.5 245 L 455.5 244 L 460 243 L 465 250.5 Q 461.5 251 462 255.5 L 465.5 261 L 470.5 260 L 476 269.5 L 471 273.5 L 474.5 281 L 480 281 L 480 283.5 L 482 291.5 L 477 294.5 Q 476.3 300.6 478 303 Q 481.8 302 483 304.5 L 484 316 L 478 317 L 477 324.5 Q 478.2 327.8 482 327 L 480 340 L 475.5 339 Q 471.6 341.1 472 347.5 L 476 351.5 L 475 352.5 L 470.5 362 L 466.5 360 L 462 365.5 L 462 367.5 L 465 371.5 L 458.5 379 L 453.5 377 L 448 382.5 L 449 383.5 L 450 387.5 L 441.5 393 L 437.5 390 L 431 394.5 L 432 398.5 L 422.5 404 L 418.5 399 L 411 402.5 L 412 405.5 L 410.5 407 L 400 408 Q 400.8 404.2 397.5 403 Q 396.2 405.3 391.5 404 L 390 405.5 L 389.5 409 L 388.5 408 L 379 408 L 379 403 L 377.5 403 Q 376.2 400.7 371.5 402 L 368.5 406 L 360 403 Q 361.3 398.4 358.5 397 L 353.5 395 L 350.5 399 L 343 395 Q 344.5 387.8 339.5 386 L 337.5 385 L 333.5 388 L 327 381.5 L 328 380.5 L 329 377.5 L 322.5 372 L 319.5 374 L 314 365.5 L 316 360.5 L 312.5 355 L 308 356 L 304 345.5 L 308 342.5 L 306 335 Q 301.4 336.3 300 333.5 L 299 323 L 303 321.5 Q 303.7 315.3 300.5 313 L 298 312.5 L 298 301 Q 301.8 302 303 299.5 L 304 293.5 L 300 291 L 302 280 L 307 280 L 307 278.5 L 310 272.5 L 306 269.5 L 311.5 260 L 316 261 L 319 254.5 L 317 250.5 L 322.5 244 L 327 246 L 331 240.5 L 329 237.5 L 336.5 231 L 337 233 Q 339.7 231.9 339 234.5 Q 336.5 236 338 241.5 L 341.5 247 Q 343.8 246.3 343 248.5 L 344 251.5 Q 319.6 271.1 318 313.5 L 319 314.5 L 319 323.5 L 321 333.5 L 325 344.5 Q 333.1 362.4 347.5 374 Q 358.4 382.6 373.5 387 L 383.5 389 L 399.5 389 L 409.5 387 L 424.5 381 Q 436.4 373.9 445 363.5 Q 455.3 351.3 460 333.5 L 462 323.5 L 462 300.5 Q 456.5 268.5 436.5 251 Q 425.6 241.4 410.5 236 L 401.5 234 L 379.5 234 L 362.5 240 L 363 238.5 Q 363.7 230.8 359.5 228 L 356 225.5 L 359 224 L 359 218 L 361.5 218 L 369 216 L 370.5 220 L 376.5 219 L 378 217.5 Q 377.3 213.8 379.5 213 L 388.5 213 L 389.5 212 Z " /><path fill="rgb(255,255,255)" stroke="rgb(255,255,255)" stroke-width="0" opacity="1" d="M 103.5 232 L 113.5 232 L 124.5 234 Q 137.2 238.3 146 246.5 L 144.5 249 L 140.5 251 Q 132.4 243.1 119.5 240 L 103.5 239 Q 79.9 243.9 68 260.5 Q 60.6 270.1 57 283.5 L 55 292.5 L 55 312.5 L 57 322.5 L 63 337.5 L 77.5 355 Q 85.2 361.8 96.5 365 Q 105.2 367.8 118.5 366 Q 138.3 361.3 149 347.5 L 159 331.5 L 162 319.5 L 163.5 318 L 169 319.5 Q 163.1 346.6 144.5 361 Q 137 367.5 126.5 371 L 118.5 373 L 100.5 373 Q 75.5 368 63 350.5 Q 54.4 339.1 50 323.5 L 48 313.5 L 48 291.5 Q 53 261 72.5 245 L 87.5 236 L 103.5 232 Z " /><path fill="rgb(255,255,255)" stroke="rgb(255,255,255)" stroke-width="0" opacity="1" d="M 352.5 232 Q 358.4 229.9 357 234.5 L 358 236.5 L 348.5 240 L 344.5 243 L 342 237.5 L 352.5 232 Z " /><path fill="rgb(255,255,255)" stroke="rgb(255,255,255)" stroke-width="0" opacity="1" d="M 188.5 236 Q 191.1 235.2 190 238.5 L 202 279.5 Q 200.6 282.6 195.5 282 Q 193.8 278.7 188 279.5 L 193 275.5 L 193 271.5 L 190 262.5 L 187.5 260 Q 183.1 261.5 184 258.5 Q 186.8 257.8 186 253.5 L 180 242.5 L 188.5 236 Z " /><path fill="rgb(255,255,255)" stroke="rgb(255,255,255)" stroke-width="0" opacity="1" d="M 383.5 238 L 396.5 238 L 413.5 242 Q 431.3 249.3 442 263.5 Q 451.6 275.4 456 292.5 L 457 305.5 L 458 306.5 L 458 317.5 L 457 318.5 L 456 330.5 L 451 345.5 Q 443.8 360.8 431.5 371 Q 421.6 379.1 407.5 383 L 388.5 385 L 387.5 384 L 375.5 383 L 356.5 375 L 340 360.5 Q 330.9 349.6 326 334.5 L 323 320.5 L 323 301.5 L 328 281.5 Q 334.3 266.3 345.5 256 L 348 263.5 Q 337.9 272.9 333 287.5 L 330 299.5 L 330 321.5 Q 335.4 351.1 355.5 366 L 371.5 375 L 378.5 377 L 383.5 378 L 399.5 378 Q 422.9 373.4 435 357.5 Q 443.6 347.6 448 333.5 L 451 318.5 L 451 305.5 L 448 290.5 L 441 274.5 L 426.5 258 Q 418.1 250.9 406.5 247 L 396.5 245 L 384.5 245 L 370.5 248 L 365.5 251 L 363 244.5 L 373.5 240 L 383.5 238 Z " /><path fill="rgb(255,255,255)" stroke="rgb(255,255,255)" stroke-width="0" opacity="1" d="M 355.5 242 Q 359.3 240.8 358 244.5 L 380 315.5 L 377.5 319 L 373.5 320 L 370 316.5 L 355 267.5 L 351 258.5 L 348 245 L 355.5 242 Z " /><path fill="rgb(255,255,255)" stroke="rgb(255,255,255)" stroke-width="0" opacity="1" d="M 106.5 244 L 116 245 L 114 253.5 L 111 277.5 L 105.5 283 L 102 284 L 101 278.5 L 89 249.5 L 99.5 245 Q 105 246.5 106.5 244 Z " /><path fill="rgb(255,255,255)" stroke="rgb(255,255,255)" stroke-width="0" opacity="1" d="M 119 246 Q 130.4 247.2 137 254.5 L 114.5 274 L 115 272.5 L 118 248.5 L 119 246 Z " /><path fill="rgb(255,255,255)" stroke="rgb(255,255,255)" stroke-width="0" opacity="1" d="M 174.5 248 L 178 249.5 L 181 254.5 L 177 259.5 L 180.5 265 L 184.5 264 L 188 274 L 184 275 Q 182.8 280.1 186 281.5 L 174 283 L 174.5 286 L 188.5 286 L 190 285.5 L 191 290.5 L 187 296.5 L 187 299 Q 178.6 300 174 298 L 174 291.5 L 171 277.5 L 161 257.5 L 169.5 250 L 174.5 248 Z " /><path fill="rgb(255,255,255)" stroke="rgb(255,255,255)" stroke-width="0" opacity="1" d="M 390 250 L 400.5 251 L 408 253.5 L 397.5 280 L 390 250 Z " /><path fill="rgb(255,255,255)" stroke="rgb(255,255,255)" stroke-width="0" opacity="1" d="M 85.5 251 L 100 284.5 L 92.5 290 L 68 270.5 Q 73.1 259.6 82.5 253 L 85.5 251 Z " /><path fill="rgb(255,255,255)" stroke="rgb(255,255,255)" stroke-width="0" opacity="1" d="M 379.5 251 Q 386.8 248.4 385 254.5 L 395 287.5 L 393.5 289 L 387 289 L 377 252 L 379.5 251 Z " /><path fill="rgb(255,255,255)" stroke="rgb(255,255,255)" stroke-width="0" opacity="1" d="M 371.5 253 L 382 289.5 L 378.5 292 L 367 255 L 371.5 253 Z " /><path fill="rgb(255,255,255)" stroke="rgb(255,255,255)" stroke-width="0" opacity="1" d="M 410 255 Q 424 259.3 432 270.5 L 433 273.5 L 408.5 295 L 404 297 L 401 292.5 L 399 284.5 L 410 255 Z " /><path fill="rgb(255,255,255)" stroke="rgb(255,255,255)" stroke-width="0" opacity="1" d="M 157.5 260 L 163 268.5 L 168 282.5 L 170 298 L 164 298 L 164 292.5 L 159 274.5 L 153 263 L 157.5 260 Z " /><path fill="rgb(255,255,255)" stroke="rgb(255,255,255)" stroke-width="0" opacity="1" d="M 149.5 267 L 155 277.5 L 156 283 L 153.5 284 L 129.5 285 L 132.5 281 L 149.5 267 Z " /><path fill="rgb(255,255,255)" stroke="rgb(255,255,255)" stroke-width="0" opacity="1" d="M 349.5 269 L 360 298.5 L 358.5 299 Q 349.5 293.3 338 291 Q 340.9 277.6 349.5 269 Z " /><path fill="rgb(255,255,255)" stroke="rgb(255,255,255)" stroke-width="0" opacity="1" d="M 66.5 274 L 92 293.5 L 90 300 L 67.5 300 L 66.5 299 L 60 299 Q 60.3 284.1 66.5 274 Z " /><path fill="rgb(255,255,255)" stroke="rgb(255,255,255)" stroke-width="0" opacity="1" d="M 435.5 276 Q 444.2 287.2 445 305 L 409 308 L 407 300.5 L 435.5 276 Z " /><path fill="rgb(255,255,255)" stroke="rgb(255,255,255)" stroke-width="0" opacity="1" d="M 210.5 282 Q 218.7 280.8 223.5 283 Q 231 286 235 292.5 Q 240.9 300.1 239 315.5 Q 236.6 325.6 229.5 331 Q 225.8 332.3 227 328.5 L 224 320.5 Q 229.6 316.1 228 304.5 L 222.5 296 Q 219.5 293 213.5 293 L 204 297 L 200 304.5 L 200 314.5 L 206.5 323 L 209 324.5 L 212 335.5 L 210.5 335 Q 200.4 334.1 196 327.5 Q 189.2 319.8 190 304.5 Q 192.4 291.9 201.5 286 L 210.5 282 Z " /><path fill="rgb(255,255,255)" stroke="rgb(255,255,255)" stroke-width="0" opacity="1" d="M 151.5 287 L 158 287 L 158 290.5 L 159 297 L 125 296 L 123 289 L 150.5 288 L 151.5 287 Z " /><path fill="rgb(255,255,255)" stroke="rgb(255,255,255)" stroke-width="0" opacity="1" d="M 337.5 293 L 361 303.5 L 364 312.5 L 361.5 314 L 336.5 317 L 335.5 318 L 335 300.5 L 337.5 293 Z " /><path fill="rgb(255,255,255)" stroke="rgb(255,255,255)" stroke-width="0" opacity="1" d="M 383.5 294 Q 397.1 291.9 401 299.5 Q 405 304.5 405 313.5 L 403 320.5 L 397.5 327 L 387.5 330 Q 380.9 329.1 378 324.5 L 380.5 323 Q 382.3 325.8 388.5 324 L 395 318.5 L 396 307.5 L 389.5 300 L 382.5 299 Q 381.3 301.3 380 298.5 Q 378.9 295.2 381.5 296 L 383.5 294 Z " /><path fill="rgb(255,255,255)" stroke="rgb(255,255,255)" stroke-width="0" opacity="1" d="M 212.5 298 Q 220.4 297.1 222 302.5 Q 224.8 305.2 224 311.5 L 222.5 314 L 218.5 307 L 210.5 306 Q 206 308.5 205.5 315 L 204 307.5 Q 205.3 301.8 209.5 299 L 212.5 298 Z " /><path fill="rgb(255,255,255)" stroke="rgb(255,255,255)" stroke-width="0" opacity="1" d="M 60 302 L 63.5 303 L 88.5 303 L 90 304.5 Q 89.2 309.8 92 311.5 L 66.5 331 Q 59.1 320.1 60 302 Z " /><path fill="rgb(255,255,255)" stroke="rgb(255,255,255)" stroke-width="0" opacity="1" d="M 382 304 Q 389.2 302.5 391 307.5 L 392 312.5 L 390 318 L 384.5 320 Q 381.8 318.8 384 317.5 L 384 310.5 L 382 304 Z " /><path fill="rgb(255,255,255)" stroke="rgb(255,255,255)" stroke-width="0" opacity="1" d="M 438.5 308 L 446 308 L 446 316.5 L 443 332.5 L 439.5 339 L 408 320.5 L 410 311 L 437.5 309 L 438.5 308 Z " /><path fill="rgb(255,255,255)" stroke="rgb(255,255,255)" stroke-width="0" opacity="1" d="M 212.5 310 Q 216.5 309.5 217 312.5 L 226 343 L 219.5 343 L 219 341.5 L 210 313.5 L 212.5 310 Z " /><path fill="rgb(255,255,255)" stroke="rgb(255,255,255)" stroke-width="0" opacity="1" d="M 123.5 314 L 136.5 315 L 137.5 316 L 146.5 316 L 147.5 317 L 158 317 L 154 330 L 127 323 L 122 315.5 L 123.5 314 Z " /><path fill="rgb(255,255,255)" stroke="rgb(255,255,255)" stroke-width="0" opacity="1" d="M 92.5 315 L 100 320.5 L 88 355 Q 78.8 351.5 73 343.5 L 68 335.5 L 68 333 L 92.5 315 Z " /><path fill="rgb(255,255,255)" stroke="rgb(255,255,255)" stroke-width="0" opacity="1" d="M 364.5 316 L 370.5 324 L 372 324.5 L 348.5 347 L 345 348 L 339 335.5 L 336 321.5 L 337.5 320 L 357.5 318 L 364.5 316 Z " /><path fill="rgb(255,255,255)" stroke="rgb(255,255,255)" stroke-width="0" opacity="1" d="M 119.5 318 L 122.5 322 L 118 321 L 119.5 318 Z " /><path fill="rgb(255,255,255)" stroke="rgb(255,255,255)" stroke-width="0" opacity="1" d="M 103.5 322 L 111 323 L 119 359.5 L 117.5 361 L 101.5 361 L 91 358 L 91 354.5 L 103.5 322 Z " /><path fill="rgb(255,255,255)" stroke="rgb(255,255,255)" stroke-width="0" opacity="1" d="M 114.5 323 L 127.5 327 L 144 343.5 L 144 345.5 L 137.5 352 L 127.5 358 L 122 359 L 114.5 323 Z " /><path fill="rgb(255,255,255)" stroke="rgb(255,255,255)" stroke-width="0" opacity="1" d="M 406.5 324 L 439 342.5 Q 433.3 354.3 423.5 362 L 417.5 366 L 400 331.5 L 406.5 324 Z " /><path fill="rgb(255,255,255)" stroke="rgb(255,255,255)" stroke-width="0" opacity="1" d="M 133.5 328 L 152 334.5 L 146.5 342 L 133.5 328 Z " /><path fill="rgb(255,255,255)" stroke="rgb(255,255,255)" stroke-width="0" opacity="1" d="M 373.5 328 L 382 333 L 382 337.5 L 372.5 370 Q 357.3 363.7 348 351.5 L 373.5 328 Z " /><path fill="rgb(255,255,255)" stroke="rgb(255,255,255)" stroke-width="0" opacity="1" d="M 395.5 333 L 398 334.5 L 414 368 Q 403.6 373.8 385.5 373 L 376 371 L 382 350.5 L 385 335.5 L 386.5 334 L 388.5 335 L 395.5 333 Z " /><path fill="rgb(255,255,255)" stroke="rgb(255,255,255)" stroke-width="0" opacity="1" d="M 229.5 347 L 241 347 L 241 353.5 L 235.5 356 L 224 357 L 224 350.5 L 222.5 349 Q 219.2 347.9 220 350.5 L 221 355.5 L 219.5 358 L 218.5 357 Q 206.9 358.4 201 356 L 201 349.5 L 202.5 348 L 228.5 348 L 229.5 347 Z " /><path fill="rgb(0,0,0)" stroke="rgb(0,0,0)" stroke-width="0" opacity="1" d="M 312.5 99 L 320.5 99 L 326 103.5 L 328 108 L 339.5 109 L 357.5 113 Q 359.8 107.8 369.5 110 L 376.5 116 Q 388 115 392 121.5 L 393 129.5 L 388.5 136 L 386.5 137 L 375.5 137 L 371.5 136 L 364 139 L 366 146.5 L 366 151.5 Q 364.1 160.1 358.5 165 L 356 166.5 L 359 176.5 L 364 183.5 L 364 188 L 370.5 188 L 380 195.5 L 384 208 L 390.5 207 L 394 209.5 Q 392.9 213.7 397 212 L 399.5 208 L 412.5 209 L 417 211.5 L 418 216 L 420 216 Q 418.9 213.3 421.5 214 L 425.5 213 L 435.5 217 L 439 220.5 Q 437.1 225.9 440.5 225 L 445.5 224 L 456 232.5 L 457 234.5 L 455 237.5 Q 463 236.5 465 241.5 L 470 248.5 L 470 251.5 L 468 255 Q 474.3 253.5 476 257.5 Q 480.3 262.7 481 271.5 Q 475.8 273.8 479.5 276 Q 483.5 275.5 484 278.5 L 487 287.5 L 487 294.5 L 483 297.5 Q 482.2 300.1 485.5 299 L 489 303.5 L 489 316.5 L 486.5 320 L 483 322.5 L 487 325.5 L 486 337.5 L 485 341.5 L 482.5 344 L 480.5 345 Q 479.3 342.8 478 345.5 L 481 349.5 L 481 352.5 L 476 363.5 L 473.5 366 L 471.5 367 L 469.5 366 Q 466.3 367.8 470 369.5 L 469 374.5 L 460.5 384 L 455.5 383 Q 452.8 384.3 455 385.5 L 456 387.5 L 452.5 392 L 444.5 398 L 439.5 398 L 437 397 Q 438.3 402.5 434.5 404 L 422.5 409 L 416 406 Q 417 409.8 414.5 411 L 407.5 413 L 398.5 413 L 395.5 409 Q 392.9 408.2 394 411.5 Q 392 415 385.5 414 Q 384 411.5 378.5 413 L 375 410.5 Q 376.1 407.2 373.5 408 L 367.5 411 L 356 407 L 355 402 L 349.5 404 L 338 396.5 Q 339.9 391.1 336.5 392 L 332.5 393 L 322 383.5 L 323 379.5 Q 321.8 376.7 320.5 379 Q 315.8 379.8 315 376.5 L 310 369.5 L 309 364.5 L 311 361.5 Q 309.7 358.8 308.5 361 Q 303.5 361.5 303 357.5 L 299 344.5 Q 301.8 343.4 301 340 L 296 337.5 L 294 329.5 L 294 321.5 L 297 320 Q 298.7 315.9 294.5 317 L 293 315.5 L 293 300.5 L 295.5 297 Q 298.8 298.1 298 295.5 L 294 290.5 L 297 278.5 L 299.5 275 Q 304.3 276.7 303 272.5 L 301 268.5 L 307 256 L 311.5 255 L 313 255.5 L 311 250.5 L 320.5 239 L 324.5 240 L 325 238.5 L 324 235.5 L 325 233 L 337 225.5 L 331 207.5 L 331 197.5 L 332 195.5 L 329 197.5 L 244 303.5 L 244 306.5 L 245 310.5 L 242 322.5 L 233.5 334 L 230 336.5 L 231 342 L 241.5 342 L 245 344.5 L 247 351.5 L 243.5 359 L 230.5 362 L 217.5 363 L 216.5 362 L 204.5 362 L 197 358.5 Q 194.7 355.3 196 348.5 L 199.5 344 L 214 341.5 Q 200.5 340.5 194 332.5 L 193.5 331 Q 192.8 340.5 189 346 L 184 346 L 184 347.5 L 186 352.5 L 177.5 365 L 174.5 364 L 174 365.5 L 175 368.5 L 165.5 379 L 161.5 378 Q 161.9 384.4 157.5 386 L 148.5 390 L 145.5 389 L 145 391.5 L 143.5 394 L 131.5 398 L 127.5 395 L 125.5 400 L 114.5 401 L 113.5 402 L 109 398.5 L 108.5 397 L 105.5 401 L 93.5 400 L 90 397.5 Q 91.1 394.2 88.5 395 L 83.5 397 L 72 390.5 L 71.5 387 L 66.5 388 L 57 380.5 Q 58.9 375.1 55.5 376 L 53.5 377 L 47 371.5 L 43 365.5 L 45 362.5 L 38 358.5 L 33 349.5 L 33 345.5 L 34 342 Q 30.2 342.8 29 339.5 L 25 326.5 L 26 323 Q 29.3 324.1 28 320 L 24 317.5 L 23 315.5 L 23 302.5 L 26.5 298 L 23 295.5 L 24 282.5 L 27.5 278 Q 29.8 278.8 29 276.5 Q 26 275.5 27 270.5 L 29 263.5 L 32.5 259 Q 36.3 260.3 35 256.5 L 34 252.5 L 40.5 242 Q 46.6 243.8 44 236.5 L 51.5 228 L 56 227.5 L 55 224.5 Q 59.2 218.2 67.5 216 L 70 217 Q 69 212.3 72.5 211 L 82.5 207 L 85 208 Q 84 211 87 210 Q 86.3 206.2 89.5 205 L 102.5 203 L 105.5 207 L 108.5 203 Q 120.1 200.9 125 205.5 Q 123.5 209.9 126.5 209 Q 127.3 205.2 132.5 206 L 145 211 L 146.5 217 L 151.5 215 L 163 223.5 L 164 226.5 L 163 229 L 165.5 228 L 168.5 229 L 184 218 L 183 211.5 L 180.5 209 Q 178.3 209.8 179 207.5 Q 175.3 204.7 176 197.5 L 180 193.5 L 179 192.5 L 171 161 L 167.5 162 Q 160.9 161.1 158 156.5 L 156.5 154 L 147.5 153 L 139 148 L 135 140.5 L 135 132.5 Q 138 125 144.5 121 L 155.5 117 L 162.5 117 L 181.5 121 L 212.5 123 L 219.5 125 L 224 129.5 L 225 137.5 L 221.5 142 Q 214.8 146.5 203 145 L 195.5 154 L 191 156.5 L 199 188 L 204 190.5 L 206 196.5 L 206 201.5 L 205.5 203 L 322 151.5 Q 319.5 150 321 144.5 L 323 140.5 L 320 131 L 312.5 132 L 306 129 L 304.5 126 L 282.5 126 Q 276.8 124.8 274 120.5 Q 271.4 117.6 272 111.5 L 273 107.5 L 276.5 103 Q 281.6 98.7 292.5 100 L 293.5 101 L 307.5 101 L 308.5 102 L 312.5 99 Z M 316 104 L 319 111 Q 320 118 317 122 L 312 126 L 315 127 L 320 125 L 324 117 Q 325 110 322 107 Q 321 103 316 104 Z M 292 105 L 293 110 Q 294 117 291 120 L 292 121 L 312 121 L 314 118 Q 315 111 313 108 L 306 106 L 293 106 L 292 105 Z M 282 106 L 279 107 L 277 113 L 278 118 Q 279 121 286 120 L 289 116 L 288 109 Q 287 105 282 106 Z M 329 113 L 328 122 L 345 124 L 361 128 Q 364 127 363 121 L 359 118 L 329 113 Z M 365 115 L 366 116 L 368 121 Q 369 127 366 130 L 361 133 L 365 134 L 368 133 L 372 127 L 371 118 Q 370 114 365 115 Z M 377 121 Q 378 127 375 131 Q 378 133 386 132 L 388 129 L 387 123 L 377 121 Z M 153 123 L 145 127 L 140 135 Q 139 141 142 144 L 153 149 L 166 149 L 192 141 L 217 139 L 219 138 L 220 136 L 219 132 L 212 128 L 180 126 L 168 123 L 153 123 Z M 328 127 L 325 130 L 327 139 L 339 136 L 337 133 Q 337 128 340 128 L 328 127 Z M 344 130 L 342 132 L 343 135 L 346 136 L 350 142 L 350 148 L 356 162 L 361 154 L 361 144 L 354 133 Q 351 129 344 130 Z M 336 141 L 326 147 L 328 150 Q 334 145 345 145 L 344 143 L 344 141 L 336 141 Z M 192 146 L 163 155 L 168 157 L 171 157 L 181 152 L 189 152 L 196 147 L 192 146 Z M 346 149 L 333 152 L 320 159 L 306 164 L 203 210 Q 200 209 201 205 L 196 205 L 187 208 L 190 219 L 162 240 L 107 288 L 100 291 L 95 298 L 95 308 L 102 315 L 109 312 L 111 310 L 113 304 L 112 299 L 107 294 Q 104 293 107 291 L 110 291 L 113 293 L 116 299 L 116 308 L 115 309 L 185 315 L 186 316 L 185 313 Q 183 306 186 305 L 180 303 L 163 303 L 162 302 L 144 302 L 143 301 L 126 301 L 125 300 L 117 300 L 119 296 Q 121 297 120 295 L 117 293 L 115 291 Q 151 257 192 228 L 195 236 L 206 278 L 209 277 L 220 277 L 210 243 L 206 222 L 303 180 L 320 174 L 235 285 Q 240 290 243 298 L 335 183 Q 334 180 337 181 L 339 184 L 345 180 L 354 178 L 346 149 Z M 183 156 L 176 158 L 176 163 L 184 192 L 194 189 L 186 160 Q 188 154 183 156 Z M 351 183 L 343 186 L 336 198 L 336 208 L 343 231 L 352 228 L 346 209 Q 345 199 348 195 Q 351 189 359 189 L 358 185 L 358 183 L 351 183 Z M 305 185 L 211 226 L 225 279 L 232 281 Q 267 232 306 186 L 305 185 Z M 197 193 L 186 196 L 181 200 L 184 205 Q 191 200 201 200 L 200 195 L 197 193 Z M 359 193 L 354 195 L 351 199 L 365 199 L 367 200 L 370 205 L 374 214 L 374 212 L 379 208 L 376 199 Q 372 191 359 193 Z M 351 204 L 351 209 L 355 217 L 355 215 L 367 211 L 365 206 L 364 204 L 351 204 Z M 100 208 L 94 210 L 91 210 L 91 215 L 84 217 L 82 213 L 74 217 L 75 221 L 71 224 L 67 221 L 60 227 L 61 231 L 57 235 L 55 233 L 48 239 L 50 242 L 47 248 L 42 247 L 39 253 L 41 257 L 39 263 L 39 264 L 34 264 L 32 271 Q 32 275 35 276 L 34 281 Q 33 284 29 283 L 28 289 Q 26 296 31 294 L 32 297 Q 30 298 31 303 L 30 304 L 28 305 L 28 315 L 32 316 L 33 318 L 34 324 L 30 327 L 33 337 L 37 336 L 40 343 L 38 347 L 43 356 L 47 355 L 50 361 L 48 365 L 54 371 L 57 370 L 59 370 L 63 375 L 62 379 L 68 383 L 71 381 L 76 383 L 77 384 L 77 389 L 85 392 L 88 388 L 93 389 Q 95 390 94 395 L 101 396 Q 106 398 104 393 Q 105 390 111 391 Q 114 392 113 396 L 120 396 L 121 395 L 123 395 L 123 390 L 130 389 L 133 393 L 141 389 L 140 386 L 145 382 Q 149 382 150 385 L 156 381 L 155 376 Q 156 371 162 372 L 164 374 L 170 368 L 167 364 L 172 358 L 177 359 L 179 354 L 181 352 L 177 348 L 180 341 L 185 342 L 188 333 L 184 330 L 185 328 L 185 324 Q 189 326 188 322 L 187 320 Q 178 321 173 319 Q 169 340 157 355 L 141 369 L 125 376 L 114 377 L 113 378 Q 84 377 70 363 Q 49 346 44 315 L 44 291 L 46 281 Q 52 262 63 249 Q 71 240 82 234 L 92 230 L 102 228 L 117 228 L 129 231 Q 141 235 150 244 L 162 235 L 156 231 L 158 225 L 151 220 L 147 223 L 139 220 L 141 216 L 132 211 L 129 215 Q 123 216 120 213 L 121 210 Q 117 207 110 208 L 109 212 Q 109 214 103 213 L 100 208 Z M 390 212 L 389 213 L 380 213 Q 377 214 378 218 L 377 219 L 371 220 L 369 216 L 362 218 L 359 218 L 359 224 L 356 226 L 360 228 Q 364 232 363 239 L 380 234 L 402 234 L 411 236 Q 426 241 437 251 Q 456 269 462 301 L 462 324 L 460 334 Q 455 351 445 364 Q 436 374 425 381 L 410 387 L 400 389 L 384 389 L 374 387 Q 358 383 348 374 Q 333 362 325 345 L 321 334 L 319 324 L 319 315 L 318 314 Q 320 271 344 252 L 343 249 Q 344 246 342 247 L 338 242 Q 337 236 339 235 Q 340 232 337 233 L 337 231 L 329 238 L 331 241 L 327 246 L 323 244 L 317 251 L 319 255 L 316 261 L 312 260 L 306 270 L 310 273 L 307 279 L 307 280 L 302 280 L 300 291 L 304 294 L 303 300 Q 302 302 298 301 L 298 313 L 301 313 Q 304 315 303 322 L 299 323 L 300 334 Q 301 336 306 335 L 308 343 L 304 346 L 308 356 L 313 355 L 316 361 L 314 366 L 320 374 L 323 372 L 329 378 L 328 381 L 327 382 L 334 388 L 338 385 L 340 386 Q 345 388 343 395 L 351 399 L 354 395 L 359 397 Q 361 398 360 403 L 369 406 L 372 402 Q 376 401 378 403 L 379 403 L 379 408 L 389 408 L 390 409 L 390 406 L 392 404 Q 396 405 398 403 Q 401 404 400 408 L 411 407 L 412 406 L 411 403 L 419 399 L 423 404 L 432 399 L 431 395 L 438 390 L 442 393 L 450 388 L 449 384 L 448 383 L 454 377 L 459 379 L 465 372 L 462 368 L 462 366 L 467 360 L 471 362 L 475 353 L 476 352 L 472 348 Q 472 341 476 339 L 480 340 L 482 327 Q 478 328 477 325 L 478 317 L 484 316 L 483 305 Q 482 302 478 303 Q 476 301 477 295 L 482 292 L 480 284 L 480 281 L 475 281 L 471 274 L 476 270 L 471 260 L 466 261 L 462 256 Q 462 251 465 251 L 460 243 L 456 244 L 455 245 L 449 240 L 451 235 L 444 229 L 440 231 L 432 228 L 434 223 L 424 218 L 421 222 L 412 220 L 413 216 L 411 214 L 402 213 L 400 217 Q 398 220 392 218 Q 389 217 390 212 Z M 104 232 L 88 236 L 73 245 Q 53 261 48 292 L 48 314 L 50 324 Q 54 339 63 351 Q 75 368 101 373 L 119 373 L 127 371 Q 137 367 145 361 Q 163 347 169 320 L 164 318 L 162 320 L 159 332 L 149 348 Q 138 361 119 366 Q 105 368 97 365 Q 85 362 78 355 L 63 338 L 57 323 L 55 313 L 55 293 L 57 284 Q 61 270 68 261 Q 80 244 104 239 L 120 240 Q 132 243 141 251 L 145 249 L 146 247 Q 137 238 125 234 L 114 232 L 104 232 Z M 353 232 L 342 238 L 345 243 L 349 240 L 358 237 L 357 235 Q 358 230 353 232 Z M 189 236 L 180 243 L 186 254 Q 187 258 184 259 Q 183 262 188 260 L 190 263 L 193 272 L 193 276 L 188 280 Q 194 279 196 282 Q 201 283 202 280 L 190 239 Q 191 235 189 236 Z M 384 238 L 374 240 L 363 245 L 366 251 L 371 248 L 385 245 L 397 245 L 407 247 Q 418 251 427 258 L 441 275 L 448 291 L 451 306 L 451 319 L 448 334 Q 444 348 435 358 Q 423 373 400 378 L 384 378 L 379 377 L 372 375 L 356 366 Q 335 351 330 322 L 330 300 L 333 288 Q 338 273 348 264 L 346 256 Q 334 266 328 282 L 323 302 L 323 321 L 326 335 Q 331 350 340 361 L 357 375 L 376 383 L 388 384 L 389 385 L 408 383 Q 422 379 432 371 Q 444 361 451 346 L 456 331 L 457 319 L 458 318 L 458 307 L 457 306 L 456 293 Q 452 275 442 264 Q 431 249 414 242 L 397 238 L 384 238 Z M 356 242 L 348 245 L 351 259 L 355 268 L 370 317 L 374 320 L 378 319 L 380 316 L 358 245 Q 359 241 356 242 Z M 107 244 Q 105 247 100 245 L 89 250 L 101 279 L 102 284 L 106 283 L 111 278 L 114 254 L 116 245 L 107 244 Z M 119 246 L 118 249 L 115 273 L 115 274 L 137 255 Q 130 247 119 246 Z M 175 248 L 170 250 L 161 258 L 171 278 L 174 292 L 174 298 Q 179 300 187 299 L 187 297 L 191 291 L 190 286 L 189 286 L 175 286 L 174 283 L 186 282 Q 183 280 184 275 L 188 274 L 185 264 L 181 265 L 177 260 L 181 255 L 178 250 L 175 248 Z M 390 250 L 398 280 L 408 254 L 401 251 L 390 250 Z M 86 251 L 83 253 Q 73 260 68 271 L 93 290 L 100 285 L 86 251 Z M 380 251 L 377 252 L 387 289 L 394 289 L 395 288 L 385 255 Q 387 248 380 251 Z M 372 253 L 367 255 L 379 292 L 382 290 L 372 253 Z M 410 255 L 399 285 L 401 293 L 404 297 L 409 295 L 433 274 L 432 271 Q 424 259 410 255 Z M 158 260 L 153 263 L 159 275 L 164 293 L 164 298 L 170 298 L 168 283 L 163 269 L 158 260 Z M 150 267 L 133 281 L 130 285 L 154 284 L 156 283 L 155 278 L 150 267 Z M 350 269 Q 341 278 338 291 Q 349 293 359 299 L 360 299 L 350 269 Z M 67 274 Q 60 284 60 299 L 67 299 L 68 300 L 90 300 L 92 294 L 67 274 Z M 436 276 L 407 301 L 409 308 L 445 305 Q 444 287 436 276 Z M 211 282 L 202 286 Q 192 292 190 305 Q 189 320 196 328 Q 200 334 211 335 L 212 336 L 209 325 L 207 323 L 200 315 L 200 305 L 204 297 L 214 293 Q 220 293 223 296 L 228 305 Q 230 316 224 321 L 227 329 Q 226 332 230 331 Q 237 326 239 316 Q 241 300 235 293 Q 231 286 224 283 Q 219 281 211 282 Z M 152 287 L 151 288 L 123 289 L 125 296 L 159 297 L 158 291 L 158 287 L 152 287 Z M 338 293 L 335 301 L 336 318 L 337 317 L 362 314 L 364 313 L 361 304 L 338 293 Z M 384 294 L 382 296 Q 379 295 380 299 Q 381 301 383 299 L 390 300 L 396 308 L 395 319 L 389 324 Q 382 326 381 323 L 378 325 Q 381 329 388 330 L 398 327 L 403 321 L 405 314 Q 405 305 401 300 Q 397 292 384 294 Z M 213 298 L 210 299 Q 205 302 204 308 L 206 315 Q 206 309 211 306 L 219 307 L 223 314 L 224 312 Q 225 305 222 303 Q 220 297 213 298 Z M 60 302 Q 59 320 67 331 L 92 312 Q 89 310 90 305 L 89 303 L 64 303 L 60 302 Z M 382 304 L 384 311 L 384 318 Q 382 319 385 320 L 390 318 L 392 313 L 391 308 Q 389 303 382 304 Z M 439 308 L 438 309 L 410 311 L 408 321 L 440 339 L 443 333 L 446 317 L 446 308 L 439 308 Z M 213 310 L 210 314 L 219 342 L 220 343 L 226 343 L 217 313 Q 217 310 213 310 Z M 115 311 Q 112 316 104 317 L 109 318 L 112 318 L 118 314 L 115 311 Z M 124 314 L 122 316 L 127 323 L 154 330 L 158 317 L 148 317 L 147 316 L 138 316 L 137 315 L 124 314 Z M 93 315 L 68 333 L 68 336 L 73 344 Q 79 352 88 355 L 100 321 L 93 315 Z M 365 316 L 358 318 L 338 320 L 336 322 L 339 336 L 345 348 L 349 347 L 372 325 L 371 324 L 365 316 Z M 120 318 L 118 320 Q 117 322 122 321 L 120 318 Z M 104 322 L 91 355 L 91 358 L 102 361 L 118 361 L 119 360 L 111 323 L 104 322 Z M 115 324 L 122 359 L 128 358 L 138 352 L 144 346 L 144 344 L 128 327 L 115 324 Z M 407 324 L 400 332 L 418 366 L 424 362 Q 433 354 439 343 L 407 324 Z M 191 327 L 190 329 L 192 330 L 191 327 Z M 374 328 L 348 352 Q 357 364 373 370 L 382 338 L 382 333 L 374 328 Z M 135 329 L 147 342 L 152 335 L 135 329 Z M 396 333 L 389 335 L 387 334 L 385 336 L 382 351 L 376 371 L 386 373 Q 404 374 414 368 L 398 335 L 396 333 Z M 230 347 L 229 348 L 203 348 L 201 350 L 201 356 Q 207 358 219 357 L 220 358 L 221 356 L 220 351 Q 219 348 223 349 L 224 351 L 224 357 L 236 356 L 241 354 L 241 347 L 230 347 Z " /></svg>