<svg width="627" height="627" preserveAspectRatio="xMidYMid meet" viewBox="0 0 512 512" version="1.1" xmlns="http://www.w3.org/2000/svg" ><path fill="rgb(255,255,255)" stroke="rgb(255,255,255)" stroke-width="0" opacity="1" d="M 0 0 L 512 0 L 512 512 L 0 512 L 0 0 Z M 159 130 L 158 131 L 134 133 L 100 141 L 85 147 L 73 155 L 60 171 L 52 192 L 38 254 L 36 272 L 34 279 L 34 286 L 33 287 L 33 296 L 32 297 L 32 328 L 33 333 Q 36 344 43 351 Q 49 359 62 361 L 66 370 Q 70 375 77 377 L 95 377 L 102 373 L 105 367 L 119 367 L 120 368 L 182 368 L 193 365 L 197 375 Q 201 379 208 381 L 227 381 L 231 379 Q 240 373 242 359 L 246 370 Q 250 375 258 377 L 273 377 L 279 374 Q 287 368 287 353 L 309 353 L 310 352 L 335 351 L 336 354 Q 339 358 346 360 L 360 360 L 365 357 L 369 351 L 371 349 L 382 349 L 385 360 L 395 366 L 411 366 L 415 364 L 420 358 Q 423 355 422 349 L 424 347 Q 425 355 428 359 L 436 363 Q 446 365 453 362 Q 461 358 461 345 L 471 341 Q 476 337 478 330 L 480 320 L 480 305 L 481 304 L 481 253 L 480 252 L 480 221 Q 477 219 479 213 L 472 195 L 465 185 L 454 177 L 442 173 L 417 168 L 412 168 L 401 165 L 396 165 L 380 161 L 375 161 L 369 159 L 364 159 L 353 156 L 314 150 L 292 145 L 286 145 L 275 142 L 264 141 L 223 133 L 210 132 L 209 131 L 200 131 L 199 130 L 159 130 Z " /><path fill="rgb(255,255,255)" stroke="rgb(255,255,255)" stroke-width="0" opacity="1" d="M 163.5 134 L 194.5 134 L 195.5 135 L 213.5 136 L 214.5 137 L 249.5 142 L 255.5 144 L 272.5 146 L 283.5 149 L 294.5 150 L 300.5 152 L 305.5 152 L 311.5 154 L 322.5 155 L 333.5 158 L 350.5 160 L 361.5 163 L 372.5 164 L 435.5 177 L 440.5 177 Q 458.2 181.3 467 194.5 L 466.5 196 L 426.5 188 L 409.5 186 L 398.5 183 L 392.5 183 Q 377.2 178.3 358.5 177 L 347.5 174 L 341.5 174 L 324.5 170 L 284.5 164 L 267.5 160 L 262.5 160 L 231.5 154 L 217.5 154 Q 209.4 156.9 205 163.5 L 200 174.5 L 197 188.5 L 183 313.5 L 177 330.5 L 169.5 339 L 160.5 344 L 151.5 346 L 141.5 346 L 140.5 347 L 108.5 347 L 107.5 346 L 87.5 346 L 86.5 345 L 73.5 345 L 72.5 344 L 54.5 343 L 40 339 Q 36.2 332.1 36 320.5 L 39.5 323 L 61.5 328 L 91.5 329 L 92.5 330 L 125.5 330 L 126.5 329 L 136.5 329 L 147.5 326 L 161 314.5 L 164 309.5 L 169 290.5 L 169 284.5 L 172 271.5 L 172 264.5 L 173 263.5 L 176 238.5 L 177 237.5 L 180 209.5 L 182 202.5 L 182 195.5 L 184 186.5 L 184 171.5 Q 181.9 163.2 175.5 159 L 163.5 155 L 131.5 155 L 130.5 156 L 119.5 156 L 118.5 157 L 110.5 157 L 109.5 158 L 92.5 160 L 76.5 166 L 70 171.5 Q 62.9 179.4 60 191.5 L 60 195.5 L 56 207.5 L 48 245.5 L 46 262.5 Q 47.5 269 52.5 272 L 57.5 274 L 71.5 274 L 72.5 275 L 130.5 275 L 131.5 274 Q 143.6 275.6 151.5 273 Q 158.7 271.2 162 265.5 L 165 258.5 L 167 247.5 L 169 227.5 L 172 214.5 L 174 191.5 L 170.5 186 L 164.5 183 L 117.5 183 L 116.5 184 L 101.5 184 L 100.5 185 L 79.5 186 L 66.5 189 L 66 186.5 Q 69.3 176.8 76.5 171 L 86.5 166 L 105.5 162 L 121.5 161 L 122.5 160 L 134.5 160 L 135.5 159 L 160.5 159 L 170.5 161 L 176 164 L 180 171.5 L 180 187.5 L 179 188.5 L 179 195.5 L 175 217.5 L 175 224.5 L 174 225.5 L 165 294.5 L 160 310.5 L 151.5 320 L 144.5 324 L 134.5 326 L 98.5 327 L 97.5 326 L 76.5 326 L 75.5 325 L 55.5 324 L 40.5 320 L 36 317 L 36 300.5 L 37 299.5 L 38 281.5 L 50 216.5 L 61 178.5 Q 65.8 166.8 74.5 159 L 90.5 149 L 108.5 143 L 136.5 137 L 151.5 136 L 152.5 135 L 162.5 135 L 163.5 134 Z M 46 289 L 44 290 Q 38 293 37 301 Q 37 311 44 314 L 52 313 L 56 306 Q 58 297 54 293 Q 52 288 46 289 Z M 142 290 L 140 291 L 133 300 Q 131 308 134 312 L 142 317 Q 148 318 151 315 L 156 308 Q 158 299 155 296 L 150 290 L 142 290 Z M 71 301 L 67 304 Q 66 308 70 306 L 72 311 Q 78 317 88 319 L 102 318 L 113 312 L 116 308 Q 117 305 119 307 Q 121 308 120 305 Q 119 300 114 301 L 115 304 L 113 308 L 100 315 Q 85 317 79 312 L 72 305 L 73 303 Q 74 300 71 301 Z " /><path fill="rgb(255,255,255)" stroke="rgb(255,255,255)" stroke-width="0" opacity="1" d="M 219.5 157 L 230.5 157 L 237.5 159 L 243.5 159 L 289.5 168 L 295.5 168 L 312.5 172 L 318.5 172 Q 333.8 176.7 352.5 178 L 363.5 181 L 368.5 181 L 414.5 190 L 431.5 192 L 442.5 195 L 459.5 197 L 468.5 199 L 471 201.5 L 474 214 L 456.5 211 L 449.5 211 L 442.5 209 L 436.5 209 L 429.5 207 L 423.5 207 L 416.5 205 L 409.5 205 L 402.5 203 L 382.5 201 L 375.5 199 L 355.5 197 L 348.5 195 L 335.5 194 L 328.5 192 L 321.5 192 L 300.5 188 L 280.5 186 L 273.5 184 L 231.5 179 L 224.5 181 L 219 185.5 L 215 192.5 L 212 206.5 L 209 247.5 L 208 248.5 L 208 258.5 L 207 259.5 L 207 270.5 L 206 271.5 L 205 298.5 L 207 307.5 L 212.5 315 L 221.5 319 L 236 319 Q 235.8 325.5 240.5 328 L 287.5 327 L 291 324.5 L 292 319 L 306.5 319 L 307.5 318 L 392.5 318 Q 394.1 322.9 401.5 322 L 402.5 321 L 434.5 321 L 437 320 L 438.5 317 L 474.5 317 Q 475.8 317.3 475 323.5 L 471 334.5 L 467.5 338 L 464 339 L 462 328.5 L 458.5 325 L 456.5 324 L 434.5 324 L 433.5 325 L 398.5 325 L 391 329.5 L 385 343 L 379.5 345 L 301.5 348 L 295 349 Q 296.8 334.9 288.5 330 L 285.5 329 L 267.5 329 L 266.5 330 L 224.5 330 Q 216 331.5 212 337.5 Q 207.4 350.4 197.5 358 L 189.5 362 L 177.5 363 L 176.5 364 L 128.5 364 L 127.5 363 L 108.5 363 L 107.5 362 L 80.5 361 L 79.5 360 L 67.5 359 Q 53.1 355.9 45 346.5 L 43 343.5 L 44.5 343 L 54.5 346 L 62.5 346 L 72.5 348 L 84.5 348 L 85.5 349 L 143.5 350 L 163.5 346 Q 172.5 342 178 334.5 L 183 324.5 L 187 308.5 L 189 284.5 L 191 275.5 L 192 256.5 L 193 255.5 L 193 246.5 L 194 245.5 L 194 237.5 L 196 227.5 L 196 218.5 L 197 217.5 L 197 210.5 L 198 209.5 L 201 182.5 L 207 165.5 L 213.5 159 L 219.5 157 Z " /><path fill="rgb(255,255,255)" stroke="rgb(255,255,255)" stroke-width="0" opacity="1" d="M 229.5 183 L 239.5 183 L 240 184.5 L 236 190.5 L 236 316 L 218.5 315 L 211 308.5 L 209 303.5 L 208 290.5 L 209 289.5 L 210 262.5 L 211 261.5 L 211 251.5 L 212 250.5 L 216 203.5 L 218 194.5 L 223.5 186 L 229.5 183 Z " /><path fill="rgb(255,255,255)" stroke="rgb(255,255,255)" stroke-width="0" opacity="1" d="M 243.5 186 L 262 189 L 262 315.5 L 261.5 316 L 240 316 L 240 189.5 L 243.5 186 Z M 247 197 L 243 201 L 243 262 L 244 264 L 249 267 L 258 266 L 261 259 Q 262 254 260 253 L 260 202 L 259 200 Q 256 195 247 197 Z " /><path fill="rgb(255,255,255)" stroke="rgb(255,255,255)" stroke-width="0" opacity="1" d="M 119.5 187 L 163.5 187 L 170 191.5 L 170 200.5 L 168 207.5 L 162 253.5 L 160 261.5 L 157 266 L 145.5 270 L 80.5 271 L 79.5 270 L 59.5 270 L 52 266.5 Q 49.3 264.2 50 258.5 L 60 208.5 L 63 196.5 L 65.5 193 L 77.5 190 L 101.5 189 L 102.5 188 L 118.5 188 L 119.5 187 Z M 85 204 L 81 206 Q 76 208 76 213 L 86 209 L 92 211 L 94 210 L 93 208 Q 91 204 85 204 Z M 132 204 L 126 209 L 128 211 L 132 209 Q 140 208 143 213 L 145 212 L 143 208 Q 140 203 132 204 Z M 83 221 L 77 224 Q 71 229 69 238 Q 67 249 72 254 L 79 258 Q 87 259 91 255 L 97 244 Q 99 231 94 226 L 89 221 L 83 221 Z M 128 221 L 125 223 Q 117 228 115 239 Q 114 249 119 255 L 124 258 L 129 259 L 136 257 Q 143 252 145 242 Q 146 231 142 227 Q 139 219 128 221 Z " /><path fill="rgb(255,255,255)" stroke="rgb(255,255,255)" stroke-width="0" opacity="1" d="M 266 190 L 279.5 191 L 287 193 L 288 195.5 L 288 316 L 266.5 316 L 266 315.5 L 266 190 Z M 272 200 L 268 204 L 268 263 L 269 265 L 274 268 L 283 267 L 286 261 L 285 257 Q 283 248 286 245 L 286 241 L 285 239 L 285 205 Q 283 198 272 200 Z " /><path fill="rgb(255,255,255)" stroke="rgb(255,255,255)" stroke-width="0" opacity="1" d="M 288.5 190 L 302.5 193 L 322.5 195 L 329.5 197 L 335.5 197 L 336.5 198 L 342.5 198 L 343.5 199 L 349.5 199 L 350.5 200 L 356.5 200 L 357.5 201 L 363.5 201 L 364.5 202 L 384.5 204 L 396 206.5 L 393 210.5 L 393 315 L 304.5 315 L 303.5 316 L 292 316 L 292 195.5 L 288.5 190 Z M 316 206 L 313 207 L 311 211 L 311 270 L 312 272 L 319 276 L 368 277 L 369 278 Q 377 279 380 276 L 382 272 L 382 220 L 380 215 L 372 212 L 342 209 L 326 206 L 316 206 Z " /><path fill="rgb(255,255,255)" stroke="rgb(255,255,255)" stroke-width="0" opacity="1" d="M 247 200 Q 253.2 199.1 256 201 L 257 203.5 L 257 261.5 Q 255.3 264.8 248.5 263 L 246 259.5 L 246 202.5 L 247 200 Z " /><path fill="rgb(255,255,255)" stroke="rgb(255,255,255)" stroke-width="0" opacity="1" d="M 272 203 L 281 204 L 282 206.5 L 282 261.5 L 281 264 L 273.5 264 L 271 261.5 L 271 205.5 L 272 203 Z " /><path fill="rgb(255,255,255)" stroke="rgb(255,255,255)" stroke-width="0" opacity="1" d="M 317.5 209 L 344.5 212 L 345.5 213 L 352.5 213 L 367.5 216 L 374.5 216 L 378 218.5 L 379 220.5 L 379 270.5 L 376.5 274 L 330.5 273 L 329.5 272 L 317.5 272 L 315 269.5 L 314 267.5 L 314 212.5 L 315 210 L 317.5 209 Z " /><path fill="rgb(255,255,255)" stroke="rgb(255,255,255)" stroke-width="0" opacity="1" d="M 398.5 209 L 414 211 L 414 314.5 L 413.5 315 L 397 315 L 397 210.5 L 398.5 209 Z M 404 217 L 402 218 L 398 224 L 398 271 L 403 277 Q 409 278 412 276 L 413 274 L 413 222 L 410 218 L 404 217 Z " /><path fill="rgb(255,255,255)" stroke="rgb(255,255,255)" stroke-width="0" opacity="1" d="M 418 211 L 420.5 212 L 431.5 213 L 434 215.5 L 433.5 315 L 431.5 314 L 430.5 315 L 418 315 L 418 211 Z M 423 220 L 420 221 L 419 224 L 419 275 Q 421 280 430 278 L 433 274 L 433 225 L 431 221 Q 429 219 423 220 Z " /><path fill="rgb(255,255,255)" stroke="rgb(255,255,255)" stroke-width="0" opacity="1" d="M 436.5 212 L 475 218 L 476 224.5 L 477 291.5 L 476 292.5 L 476 314 L 438 314 L 438 215.5 L 436.5 212 Z M 450 223 L 448 224 L 444 229 L 444 274 L 446 278 L 451 280 L 468 280 L 470 279 L 472 275 L 472 231 L 471 229 L 467 225 L 450 223 Z " /><path fill="rgb(255,255,255)" stroke="rgb(255,255,255)" stroke-width="0" opacity="1" d="M 403.5 221 Q 409.6 219.8 409 222.5 L 410 223.5 L 410 271.5 L 409 274 Q 403.5 275.3 402 271.5 L 402 222.5 L 403.5 221 Z " /><path fill="rgb(255,255,255)" stroke="rgb(255,255,255)" stroke-width="0" opacity="1" d="M 423.5 223 L 429 224 L 430 226.5 L 430 272.5 Q 429.3 275.8 424.5 275 L 422 272.5 L 422 224.5 L 423.5 223 Z " /><path fill="rgb(255,255,255)" stroke="rgb(255,255,255)" stroke-width="0" opacity="1" d="M 82.5 224 Q 90.1 222.9 92 227.5 L 94 232.5 L 91.5 231 L 86.5 230 L 79 235.5 L 77 241.5 L 77 247.5 L 81 254.5 L 78.5 255 L 75 252.5 Q 70.5 248 72 237.5 Q 73.4 229.9 78.5 226 L 82.5 224 Z " /><path fill="rgb(255,255,255)" stroke="rgb(255,255,255)" stroke-width="0" opacity="1" d="M 128.5 224 Q 138.3 222.3 140 228.5 L 142 234.5 L 140 233.5 Q 140.8 231.3 138.5 232 L 133.5 230 Q 127.4 231.4 125 236.5 L 123 245.5 L 124 250.5 L 128 255.5 L 126.5 255 L 121 252.5 Q 117.1 248.4 118 239.5 L 121 230.5 L 126.5 225 L 128.5 224 Z " /><path fill="rgb(255,255,255)" stroke="rgb(255,255,255)" stroke-width="0" opacity="1" d="M 449.5 227 L 464.5 228 L 468 230.5 L 469 232.5 L 469 273.5 L 466.5 277 L 449.5 276 L 448 274.5 L 448 228.5 L 449.5 227 Z " /><path fill="rgb(255,255,255)" stroke="rgb(255,255,255)" stroke-width="0" opacity="1" d="M 87 235 Q 90.8 234 92 236.5 Q 92.8 241.3 89.5 242 L 87 240.5 L 86 237.5 L 87 235 Z " /><path fill="rgb(255,255,255)" stroke="rgb(255,255,255)" stroke-width="0" opacity="1" d="M 134.5 235 Q 138.9 233.5 138 236.5 L 139 238.5 L 136.5 242 L 133 240.5 Q 132 236 134.5 235 Z " /><path fill="rgb(255,255,255)" stroke="rgb(255,255,255)" stroke-width="0" opacity="1" d="M 45.5 293 Q 50 292 51 294.5 Q 53.8 297.2 53 303.5 L 49.5 310 L 45.5 311 L 43 310 Q 40 306.8 41 298.5 L 45.5 293 Z " /><path fill="rgb(255,255,255)" stroke="rgb(255,255,255)" stroke-width="0" opacity="1" d="M 143.5 293 L 151 295 Q 153.9 297.9 153 305.5 L 148.5 312 L 140.5 313 Q 135.1 310.4 136 301.5 L 141.5 294 L 143.5 293 Z " /><path fill="rgb(255,255,255)" stroke="rgb(255,255,255)" stroke-width="0" opacity="1" d="M 420.5 317 L 431 317.5 L 420.5 318 L 420.5 317 Z " /><path fill="rgb(255,255,255)" stroke="rgb(255,255,255)" stroke-width="0" opacity="1" d="M 240 319 L 289 319.5 L 286.5 324 L 240.5 324 L 240 319 Z " /><path fill="rgb(255,255,255)" stroke="rgb(255,255,255)" stroke-width="0" opacity="1" d="M 417.5 329 L 440 329.5 L 436 335.5 Q 436.5 341 433.5 343 L 422 343 L 422 338.5 L 417.5 329 Z " /><path fill="rgb(255,255,255)" stroke="rgb(255,255,255)" stroke-width="0" opacity="1" d="M 446.5 329 Q 453.8 327.8 455 332.5 Q 458.6 337.9 457 348.5 L 453 357 L 446.5 359 L 441 354.5 Q 438 349.5 439 340.5 Q 440.3 333.8 444.5 330 L 446.5 329 Z M 449 335 L 447 336 L 443 342 L 444 350 L 449 353 L 452 352 L 455 348 L 454 339 L 449 335 Z " /><path fill="rgb(255,255,255)" stroke="rgb(255,255,255)" stroke-width="0" opacity="1" d="M 457.5 329 L 459 331.5 L 458 331.5 L 457.5 329 Z " /><path fill="rgb(255,255,255)" stroke="rgb(255,255,255)" stroke-width="0" opacity="1" d="M 397.5 330 L 400 330.5 Q 392 336.5 394 352.5 L 399 361.5 L 397.5 362 L 391.5 360 L 389 357.5 Q 385 353.6 386 346 Q 388.7 347.1 388 344.5 L 395.5 331 L 397.5 330 Z " /><path fill="rgb(255,255,255)" stroke="rgb(255,255,255)" stroke-width="0" opacity="1" d="M 406.5 330 L 411.5 330 L 416 334.5 Q 419.6 339.9 418 350.5 Q 416.9 357.9 411.5 361 L 405.5 362 L 401 358.5 Q 396.5 353 398 341.5 Q 399.5 334.6 404.5 331 L 406.5 330 Z M 408 337 L 403 343 Q 402 351 405 354 L 412 355 L 416 349 L 415 341 Q 414 336 408 337 Z " /><path fill="rgb(255,255,255)" stroke="rgb(255,255,255)" stroke-width="0" opacity="1" d="M 280.5 333 Q 288.4 332.1 290 337.5 L 291 349 Q 285.4 351.2 287 345.5 Q 285 337.2 280.5 333 Z " /><path fill="rgb(255,255,255)" stroke="rgb(255,255,255)" stroke-width="0" opacity="1" d="M 242.5 334 L 264 334.5 L 259 340.5 L 255 354 L 241 355 Q 241.6 341.1 233 335.5 L 241.5 335 L 242.5 334 Z " /><path fill="rgb(255,255,255)" stroke="rgb(255,255,255)" stroke-width="0" opacity="1" d="M 270.5 335 Q 278.4 334.1 280 339.5 Q 284.8 345.7 283 358.5 Q 281.3 366.8 275.5 371 L 267.5 372 Q 259.1 366.4 260 351.5 L 264 340.5 L 268.5 336 L 270.5 335 Z M 273 343 L 271 344 L 266 351 Q 264 361 271 364 L 277 363 L 280 357 L 279 348 L 273 343 Z " /><path fill="rgb(255,255,255)" stroke="rgb(255,255,255)" stroke-width="0" opacity="1" d="M 221.5 337 Q 231.9 335.6 234 342.5 Q 238.7 348.4 237 360.5 Q 235.4 369.9 229.5 375 Q 226.6 377.6 220.5 377 L 214 371.5 Q 209.4 364.6 211 351.5 Q 212.9 342.4 219.5 338 L 221.5 337 Z M 224 346 L 218 353 Q 217 362 220 366 L 224 368 L 229 367 L 233 362 Q 235 353 232 350 Q 230 345 224 346 Z " /><path fill="rgb(255,255,255)" stroke="rgb(255,255,255)" stroke-width="0" opacity="1" d="M 448.5 339 L 452 340.5 Q 452.8 346.6 451 349 L 447 347.5 L 446 343.5 L 448.5 339 Z " /><path fill="rgb(255,255,255)" stroke="rgb(255,255,255)" stroke-width="0" opacity="1" d="M 409.5 340 L 412 341.5 L 413 347.5 L 410.5 352 L 407 350.5 L 406 344.5 L 409.5 340 Z " /><path fill="rgb(255,255,255)" stroke="rgb(255,255,255)" stroke-width="0" opacity="1" d="M 434.5 346 L 436 353.5 L 439 358.5 L 437.5 358 Q 432.4 358.6 431 355.5 L 428 347 L 434.5 346 Z " /><path fill="rgb(255,255,255)" stroke="rgb(255,255,255)" stroke-width="0" opacity="1" d="M 271 347 Q 274.8 346 276 348.5 L 277 355.5 L 273.5 361 L 270 359.5 L 269 351.5 L 271 347 Z " /><path fill="rgb(255,255,255)" stroke="rgb(255,255,255)" stroke-width="0" opacity="1" d="M 225.5 349 L 230 352.5 Q 231.7 361.2 227.5 364 L 225.5 365 L 222 362.5 L 221 354.5 L 223.5 350 L 225.5 349 Z " /><path fill="rgb(255,255,255)" stroke="rgb(255,255,255)" stroke-width="0" opacity="1" d="M 348 350 L 365 350.5 Q 362.9 357.4 352.5 356 L 348 350 Z " /><path fill="rgb(255,255,255)" stroke="rgb(255,255,255)" stroke-width="0" opacity="1" d="M 340.5 351 Q 344.9 349.5 344 352.5 L 346 355.5 L 344.5 355 L 340.5 351 Z " /><path fill="rgb(255,255,255)" stroke="rgb(255,255,255)" stroke-width="0" opacity="1" d="M 206.5 355 Q 206.1 369.2 212 376 L 214 376.5 L 209.5 377 L 200 371.5 L 197 363.5 L 206.5 355 Z " /><path fill="rgb(255,255,255)" stroke="rgb(255,255,255)" stroke-width="0" opacity="1" d="M 255.5 357 L 258 366.5 L 261 371.5 L 255.5 372 L 249 366.5 L 247 359 Q 252.5 359.8 255.5 357 Z " /><path fill="rgb(255,255,255)" stroke="rgb(255,255,255)" stroke-width="0" opacity="1" d="M 68 363 L 74 364 Q 74.8 369.6 79 372.5 L 77.5 372 Q 71.2 371.4 69 366.5 L 68 363 Z " /><path fill="rgb(255,255,255)" stroke="rgb(255,255,255)" stroke-width="0" opacity="1" d="M 79 365 L 101 366.5 L 93.5 373 L 86.5 373 L 82 371 L 79 365 Z " /><path fill="rgb(0,0,0)" stroke="rgb(0,0,0)" stroke-width="0" opacity="1" d="M 158.5 130 L 198.5 130 L 199.5 131 L 208.5 131 L 209.5 132 L 222.5 133 L 263.5 141 L 274.5 142 L 285.5 145 L 291.5 145 L 313.5 150 L 352.5 156 L 363.5 159 L 368.5 159 L 374.5 161 L 379.5 161 L 395.5 165 L 400.5 165 L 411.5 168 L 416.5 168 L 441.5 173 L 453.5 177 L 465 185 L 472 194.5 L 479 212.5 Q 477.2 218.8 480 220.5 L 480 251.5 L 481 252.5 L 481 303.5 L 480 304.5 L 480 319.5 L 478 329.5 Q 476.2 337.1 470.5 341 L 461 344.5 Q 461 357.5 452.5 362 Q 446.2 364.8 435.5 363 L 428 359 Q 424.5 354.7 423.5 347 L 422 348.5 Q 422.6 354.6 420 357.5 L 414.5 364 L 410.5 366 L 394.5 366 L 385 359.5 L 382 349 L 370.5 349 L 369 350.5 L 364.5 357 L 359.5 360 L 345.5 360 Q 339 358.5 336 353.5 L 334.5 351 L 309.5 352 L 308.5 353 L 287 353 Q 287.3 367.5 278.5 374 L 272.5 377 L 257.5 377 Q 249.8 375.1 246 369.5 L 241.5 359 Q 239.9 372.9 230.5 379 L 226.5 381 L 207.5 381 Q 200.6 379.5 197 374.5 L 193 365 L 181.5 368 L 119.5 368 L 118.5 367 L 105 367 L 102 373 L 94.5 377 L 76.5 377 Q 69.8 374.8 66 369.5 L 61.5 361 Q 49.5 358.5 43 350.5 Q 36 343.5 33 332.5 L 32 327.5 L 32 296.5 L 33 295.5 L 33 286.5 L 34 285.5 L 34 278.5 L 36 271.5 L 38 253.5 L 52 191.5 L 60 170.5 L 72.5 155 L 84.5 147 L 99.5 141 L 133.5 133 L 157.5 131 L 158.5 130 Z M 164 134 L 163 135 L 153 135 L 152 136 L 137 137 L 109 143 L 91 149 L 75 159 L 65 171 L 56 194 L 42 256 L 39 281 L 38 282 L 38 289 L 37 290 L 38 300 L 39 295 L 46 289 L 52 290 L 56 297 Q 58 307 53 312 Q 51 315 44 314 Q 37 310 37 300 L 36 317 L 41 320 L 56 324 L 76 325 L 77 326 L 98 326 L 99 327 L 135 326 L 145 324 L 152 320 L 160 311 L 165 295 L 174 226 L 175 225 L 175 218 L 179 196 L 179 189 L 180 188 L 180 172 L 176 164 L 171 161 L 161 159 L 136 159 L 135 160 L 123 160 L 122 161 L 106 162 L 87 166 L 77 171 Q 69 177 66 187 L 67 189 L 80 186 L 101 185 L 102 184 L 117 184 L 118 183 L 165 183 L 171 186 L 174 192 L 172 215 L 169 228 L 167 248 L 165 259 L 162 266 Q 159 271 152 273 Q 144 276 132 274 L 131 275 L 73 275 L 72 274 L 58 274 L 53 272 Q 48 269 46 263 L 48 246 L 56 208 L 60 196 L 60 192 Q 63 179 70 172 L 77 166 L 93 160 L 110 158 L 111 157 L 119 157 L 120 156 L 131 156 L 132 155 L 164 155 L 176 159 Q 182 163 184 172 L 184 187 L 182 196 L 182 203 L 180 210 L 177 238 L 176 239 L 173 264 L 172 265 L 172 272 L 169 285 L 169 291 L 164 310 L 161 315 L 148 326 L 137 329 L 127 329 L 126 330 L 93 330 L 92 329 L 62 328 L 40 323 L 36 321 Q 36 332 40 339 L 55 343 L 73 344 L 74 345 L 87 345 L 88 346 L 108 346 L 109 347 L 141 347 L 142 346 L 152 346 L 161 344 L 170 339 L 177 331 L 183 314 L 197 189 L 200 175 L 205 164 Q 209 157 218 154 L 232 154 L 263 160 L 268 160 L 285 164 L 325 170 L 342 174 L 348 174 L 359 177 Q 377 178 393 183 L 399 183 L 410 186 L 427 188 L 467 196 L 467 195 Q 458 181 441 177 L 436 177 L 373 164 L 362 163 L 351 160 L 334 158 L 323 155 L 312 154 L 306 152 L 301 152 L 295 150 L 284 149 L 273 146 L 256 144 L 250 142 L 215 137 L 214 136 L 196 135 L 195 134 L 164 134 Z M 220 157 L 214 159 L 207 166 L 201 183 L 198 210 L 197 211 L 197 218 L 196 219 L 196 228 L 194 238 L 194 246 L 193 247 L 193 256 L 192 257 L 191 276 L 189 285 L 187 309 L 183 325 L 178 335 Q 173 342 164 346 L 144 350 L 86 349 L 85 348 L 73 348 L 63 346 L 55 346 L 45 343 L 43 344 L 45 347 Q 53 356 68 359 L 80 360 L 81 361 L 108 362 L 109 363 L 128 363 L 129 364 L 177 364 L 178 363 L 190 362 L 198 358 Q 207 350 212 338 Q 216 331 225 330 L 267 330 L 268 329 L 286 329 L 289 330 Q 297 335 295 349 L 302 348 L 380 345 L 385 343 L 391 330 L 399 325 L 434 325 L 435 324 L 457 324 L 459 325 L 462 329 L 464 339 L 468 338 L 471 335 L 475 324 Q 476 317 475 317 L 439 317 L 437 320 L 435 321 L 403 321 L 402 322 Q 394 323 393 318 L 308 318 L 307 319 L 292 319 L 291 325 L 288 327 L 241 328 Q 236 326 236 319 L 222 319 L 213 315 L 207 308 L 205 299 L 206 272 L 207 271 L 207 260 L 208 259 L 208 249 L 209 248 L 212 207 L 215 193 L 219 186 L 225 181 L 232 179 L 274 184 L 281 186 L 301 188 L 322 192 L 329 192 L 336 194 L 349 195 L 356 197 L 376 199 L 383 201 L 403 203 L 410 205 L 417 205 L 424 207 L 430 207 L 437 209 L 443 209 L 450 211 L 457 211 L 474 214 L 471 202 L 469 199 L 460 197 L 443 195 L 432 192 L 415 190 L 369 181 L 364 181 L 353 178 Q 334 177 319 172 L 313 172 L 296 168 L 290 168 L 244 159 L 238 159 L 231 157 L 220 157 Z M 230 183 L 224 186 L 218 195 L 216 204 L 212 251 L 211 252 L 211 262 L 210 263 L 209 290 L 208 291 L 209 304 L 211 309 L 219 315 L 236 316 L 236 191 L 240 185 L 240 183 L 230 183 Z M 244 186 L 240 190 L 240 316 L 262 316 L 262 316 L 262 189 L 244 186 Z M 120 187 L 119 188 L 103 188 L 102 189 L 78 190 L 66 193 L 63 197 L 60 209 L 50 259 Q 49 264 52 267 L 60 270 L 80 270 L 81 271 L 146 270 L 157 266 L 160 262 L 162 254 L 168 208 L 170 201 L 170 192 L 164 187 L 120 187 Z M 266 190 L 266 316 L 267 316 L 288 316 L 288 196 L 287 193 L 280 191 L 266 190 Z M 289 190 L 292 196 L 292 316 L 304 316 L 305 315 L 393 315 L 393 211 L 396 207 L 385 204 L 365 202 L 364 201 L 358 201 L 357 200 L 351 200 L 350 199 L 344 199 L 343 198 L 337 198 L 336 197 L 330 197 L 323 195 L 303 193 L 289 190 Z M 399 209 L 397 211 L 397 315 L 414 315 L 414 315 L 414 211 L 399 209 Z M 418 211 L 418 315 L 431 315 L 432 314 L 434 315 L 434 216 L 432 213 L 421 212 L 418 211 Z M 437 212 L 438 216 L 438 314 L 476 314 L 476 293 L 477 292 L 476 225 L 475 218 L 437 212 Z M 46 293 L 41 299 Q 40 307 43 310 L 46 311 L 50 310 L 53 304 Q 54 297 51 295 Q 50 292 46 293 Z M 421 317 L 421 318 L 431 318 L 421 317 Z M 240 319 L 241 324 L 287 324 L 289 320 L 240 319 Z M 418 329 L 422 339 L 422 343 L 434 343 Q 437 341 436 336 L 440 330 L 418 329 Z M 447 329 L 445 330 Q 440 334 439 341 Q 438 350 441 355 L 447 359 L 453 357 L 457 349 Q 459 338 455 333 Q 454 328 447 329 Z M 398 330 L 396 331 L 388 345 Q 389 347 386 346 Q 385 354 389 358 L 392 360 L 398 362 L 399 362 L 394 353 Q 392 337 400 331 L 398 330 Z M 407 330 L 405 331 Q 400 335 398 342 Q 397 353 401 359 L 406 362 L 412 361 Q 417 358 418 351 Q 420 340 416 335 L 412 330 L 407 330 Z M 281 333 Q 285 337 287 346 Q 285 351 291 349 L 290 338 Q 288 332 281 333 Z M 243 334 L 242 335 L 233 336 Q 242 341 241 355 L 255 354 L 259 341 L 264 335 L 243 334 Z M 271 335 L 269 336 L 264 341 L 260 352 Q 259 366 268 372 L 276 371 Q 281 367 283 359 Q 285 346 280 340 Q 278 334 271 335 Z M 222 337 L 220 338 Q 213 342 211 352 Q 209 365 214 372 L 221 377 Q 227 378 230 375 Q 235 370 237 361 Q 239 348 234 343 Q 232 336 222 337 Z M 435 346 L 428 347 L 431 356 Q 432 359 438 358 L 439 359 L 436 354 L 435 346 Z M 348 350 L 353 356 Q 363 357 365 351 L 348 350 Z M 341 351 Q 341 355 345 355 L 344 353 Q 345 350 341 351 Z M 207 355 L 197 364 L 200 372 L 210 377 L 214 377 L 212 376 Q 206 369 207 355 Z M 256 357 Q 253 360 247 359 L 249 367 L 256 372 L 261 372 L 258 367 L 256 357 Z M 68 363 L 69 367 L 76 372 L 78 372 L 74 364 L 68 363 Z M 79 365 L 82 371 L 87 373 L 94 373 L 101 367 L 79 365 Z " /><path fill="rgb(0,0,0)" stroke="rgb(0,0,0)" stroke-width="0" opacity="1" d="M 246.5 197 Q 255.9 195.1 259 199.5 L 260 201.5 L 260 252.5 Q 262.3 253.7 261 258.5 L 257.5 266 L 248.5 267 L 244 263.5 L 243 261.5 L 243 200.5 L 246.5 197 Z M 247 200 L 246 203 L 246 260 L 249 263 Q 255 265 257 262 L 257 204 L 256 201 Q 253 199 247 200 Z " /><path fill="rgb(0,0,0)" stroke="rgb(0,0,0)" stroke-width="0" opacity="1" d="M 271.5 200 Q 282.8 197.8 285 204.5 L 285 238.5 L 286 240.5 L 286 244.5 Q 283.3 248.3 285 256.5 L 286 260.5 L 282.5 267 L 273.5 268 L 269 264.5 L 268 262.5 L 268 203.5 L 271.5 200 Z M 272 203 L 271 206 L 271 262 L 274 264 L 281 264 L 282 262 L 282 207 L 281 204 L 272 203 Z " /><path fill="rgb(0,0,0)" stroke="rgb(0,0,0)" stroke-width="0" opacity="1" d="M 84.5 204 Q 90.9 203.6 93 207.5 L 94 209.5 L 91.5 211 L 85.5 209 L 76 213 Q 76.5 208.3 80.5 206 L 84.5 204 Z " /><path fill="rgb(0,0,0)" stroke="rgb(0,0,0)" stroke-width="0" opacity="1" d="M 131.5 204 Q 140.2 202.8 143 207.5 L 145 211.5 L 142.5 213 Q 140 208 131.5 209 L 127.5 211 L 126 208.5 L 131.5 204 Z " /><path fill="rgb(0,0,0)" stroke="rgb(0,0,0)" stroke-width="0" opacity="1" d="M 315.5 206 L 325.5 206 L 341.5 209 L 371.5 212 L 380 215 L 382 219.5 L 382 271.5 L 380 276 Q 376.8 279 368.5 278 L 367.5 277 L 318.5 276 L 312 271.5 L 311 269.5 L 311 210.5 L 313 207 L 315.5 206 Z M 318 209 L 315 210 L 314 213 L 314 268 L 315 270 L 318 272 L 330 272 L 331 273 L 377 274 L 379 271 L 379 221 L 378 219 L 375 216 L 368 216 L 353 213 L 346 213 L 345 212 L 318 209 Z " /><path fill="rgb(0,0,0)" stroke="rgb(0,0,0)" stroke-width="0" opacity="1" d="M 403.5 217 L 409.5 218 L 413 221.5 L 413 273.5 L 412 276 Q 409.3 277.9 402.5 277 L 398 270.5 L 398 223.5 L 401.5 218 L 403.5 217 Z M 404 221 L 402 223 L 402 272 Q 404 275 409 274 L 410 272 L 410 224 L 409 223 Q 410 220 404 221 Z " /><path fill="rgb(0,0,0)" stroke="rgb(0,0,0)" stroke-width="0" opacity="1" d="M 422.5 220 Q 428.6 219.2 431 221 L 433 224.5 L 433 273.5 L 429.5 278 Q 420.8 279.8 419 274.5 L 419 223.5 L 420 221 L 422.5 220 Z M 424 223 L 422 225 L 422 273 L 425 275 Q 429 276 430 273 L 430 227 L 429 224 L 424 223 Z " /><path fill="rgb(0,0,0)" stroke="rgb(0,0,0)" stroke-width="0" opacity="1" d="M 82.5 221 L 88.5 221 L 94 225.5 Q 98.7 231.4 97 243.5 L 90.5 255 Q 87.3 259.3 78.5 258 L 72 253.5 Q 67.3 248.7 69 237.5 Q 70.9 228.9 76.5 224 L 82.5 221 Z M 83 224 L 79 226 Q 73 230 72 238 Q 71 248 75 253 L 79 255 L 81 255 L 77 248 L 77 242 L 79 236 L 87 230 L 92 231 L 93 232 L 92 228 Q 90 223 83 224 Z M 87 235 L 86 238 L 87 241 L 90 242 Q 93 241 92 237 Q 91 234 87 235 Z " /><path fill="rgb(0,0,0)" stroke="rgb(0,0,0)" stroke-width="0" opacity="1" d="M 127.5 221 Q 139.3 219.2 142 226.5 Q 146.2 231.3 145 241.5 Q 142.9 251.9 135.5 257 L 128.5 259 L 123.5 258 L 119 254.5 Q 114.1 249.4 115 238.5 Q 117.1 228.1 124.5 223 L 127.5 221 Z M 129 224 L 127 225 L 121 231 L 118 240 Q 117 248 121 253 L 125 255 L 127 255 L 124 251 L 123 246 L 125 237 Q 127 231 134 230 L 139 232 Q 141 231 140 234 L 142 235 L 140 229 Q 138 222 129 224 Z M 135 235 Q 132 236 133 241 L 137 242 L 139 239 L 138 237 Q 139 233 135 235 Z " /><path fill="rgb(0,0,0)" stroke="rgb(0,0,0)" stroke-width="0" opacity="1" d="M 449.5 223 L 466.5 225 L 471 228.5 L 472 230.5 L 472 274.5 L 469.5 279 L 467.5 280 L 450.5 280 L 446 278 L 444 273.5 L 444 228.5 L 447.5 224 L 449.5 223 Z M 450 227 L 448 229 L 448 275 L 450 276 L 467 277 L 469 274 L 469 233 L 468 231 L 465 228 L 450 227 Z " /><path fill="rgb(0,0,0)" stroke="rgb(0,0,0)" stroke-width="0" opacity="1" d="M 141.5 290 L 149.5 290 L 155 295.5 Q 157.7 299.3 156 307.5 L 150.5 315 Q 147.6 317.6 141.5 317 L 134 311.5 Q 131.3 307.7 133 299.5 L 139.5 291 L 141.5 290 Z M 144 293 L 142 294 L 136 302 Q 135 310 141 313 L 149 312 L 153 306 Q 154 298 151 295 L 144 293 Z " /><path fill="rgb(0,0,0)" stroke="rgb(0,0,0)" stroke-width="0" opacity="1" d="M 70.5 301 Q 73.8 299.9 73 302.5 L 72 304.5 L 78.5 312 Q 85.4 317.1 99.5 315 L 113 308 L 115 303.5 L 114 301 Q 118.7 300.3 120 304.5 Q 121.1 307.8 118.5 307 Q 117.3 304.8 116 307.5 L 112.5 312 L 101.5 318 L 87.5 319 Q 77.8 316.7 72 310.5 L 70 306 Q 65.9 307.7 67 303.5 L 70.5 301 Z " /><path fill="rgb(0,0,0)" stroke="rgb(0,0,0)" stroke-width="0" opacity="1" d="M 448.5 335 L 454 338.5 L 455 347.5 L 451.5 352 L 448.5 353 L 444 349.5 L 443 341.5 L 446.5 336 L 448.5 335 Z M 449 339 L 446 344 L 447 348 L 451 349 Q 453 347 452 341 L 449 339 Z " /><path fill="rgb(0,0,0)" stroke="rgb(0,0,0)" stroke-width="0" opacity="1" d="M 407.5 337 Q 414 336 415 340.5 L 416 348.5 L 411.5 355 L 405 354 Q 402 350.8 403 342.5 L 407.5 337 Z M 410 340 L 406 345 L 407 351 L 411 352 L 413 348 L 412 342 L 410 340 Z " /><path fill="rgb(0,0,0)" stroke="rgb(0,0,0)" stroke-width="0" opacity="1" d="M 272.5 343 L 279 347.5 L 280 356.5 L 277 363 L 270.5 364 Q 264.2 361.3 266 350.5 L 270.5 344 L 272.5 343 Z M 271 347 L 269 352 L 270 360 L 274 361 L 277 356 L 276 349 Q 275 346 271 347 Z " /><path fill="rgb(0,0,0)" stroke="rgb(0,0,0)" stroke-width="0" opacity="1" d="M 223.5 346 Q 230.4 345.1 232 349.5 Q 234.7 353.3 233 361.5 L 228.5 367 L 223.5 368 L 220 366 Q 216.7 362.1 218 352.5 L 223.5 346 Z M 226 349 L 224 350 L 221 355 L 222 363 L 226 365 L 228 364 Q 232 361 230 353 L 226 349 Z " /></svg>