<svg width="627" height="627" preserveAspectRatio="xMidYMid meet" viewBox="0 0 512 512" version="1.1" xmlns="http://www.w3.org/2000/svg" ><path fill="rgb(255,255,255)" stroke="rgb(255,255,255)" stroke-width="0" opacity="1" d="M 0 0 L 512 0 L 512 512 L 0 512 L 0 0 Z M 231 110 L 230 111 L 206 112 L 199 114 L 194 120 L 195 124 L 173 149 L 175 154 L 200 184 L 192 185 L 189 190 L 147 190 L 146 191 L 120 192 L 119 193 L 112 193 L 95 196 L 82 202 L 71 214 L 64 229 L 58 249 L 47 303 L 45 325 L 44 326 L 44 335 L 43 336 L 43 347 L 42 348 L 42 370 L 47 384 Q 50 389 58 390 L 60 395 L 67 399 L 90 400 L 91 401 L 107 401 L 108 402 L 131 402 L 132 403 L 179 403 L 180 402 L 189 402 Q 197 400 201 393 L 254 389 L 256 394 Q 259 399 267 400 Q 277 401 284 398 L 290 390 Q 293 395 300 397 Q 310 399 316 395 Q 322 391 323 383 L 355 381 L 356 380 L 389 377 L 392 383 L 399 386 Q 407 387 413 385 L 420 377 L 420 379 L 426 383 L 439 383 L 444 380 L 448 370 L 456 370 L 465 367 L 469 361 L 469 343 L 470 342 Q 472 336 469 335 L 469 286 L 468 285 L 468 267 L 467 266 L 466 255 L 460 242 Q 454 234 444 231 L 377 219 L 374 214 L 369 209 L 335 203 L 330 201 L 325 201 L 290 194 L 273 194 Q 270 193 271 190 L 265 185 L 249 183 L 225 151 L 257 123 L 264 127 Q 270 128 274 126 Q 279 125 277 117 L 273 112 L 265 110 L 231 110 Z " /><path fill="rgb(255,255,255)" stroke="rgb(255,255,255)" stroke-width="0" opacity="1" d="M 234.5 114 L 259 114.5 L 222.5 148 L 220.5 148 L 227.5 140 L 251 119.5 L 249.5 117 L 247.5 118 L 230.5 118 L 229.5 119 L 215.5 119 L 214.5 120 L 198.5 121 L 201.5 117 L 217.5 116 L 218.5 115 L 233.5 115 L 234.5 114 Z " /><path fill="rgb(255,255,255)" stroke="rgb(255,255,255)" stroke-width="0" opacity="1" d="M 262.5 115 Q 270.1 113.9 273 117.5 Q 273.8 122.3 270.5 123 Q 262.2 124.3 260 119.5 L 262.5 115 Z " /><path fill="rgb(255,255,255)" stroke="rgb(255,255,255)" stroke-width="0" opacity="1" d="M 234.5 122 L 241 122.5 L 214.5 147 L 198.5 147 L 190 144.5 L 209.5 124 L 233.5 123 L 234.5 122 Z " /><path fill="rgb(255,255,255)" stroke="rgb(255,255,255)" stroke-width="0" opacity="1" d="M 201.5 124 L 204 124.5 L 183 145.5 L 183 147 L 180 146.5 L 201.5 124 Z " /><path fill="rgb(255,255,255)" stroke="rgb(255,255,255)" stroke-width="0" opacity="1" d="M 179.5 151 L 183 153.5 L 207 182.5 L 204 183 L 179.5 151 Z " /><path fill="rgb(255,255,255)" stroke="rgb(255,255,255)" stroke-width="0" opacity="1" d="M 186.5 151 L 202.5 151 L 203.5 152 L 213.5 152 L 215 153.5 L 234 180.5 L 231.5 182 L 215.5 182 L 212.5 183 L 186.5 151 Z " /><path fill="rgb(255,255,255)" stroke="rgb(255,255,255)" stroke-width="0" opacity="1" d="M 219.5 152 L 224 155.5 L 242 181.5 L 240.5 182 L 219.5 152 Z " /><path fill="rgb(255,255,255)" stroke="rgb(255,255,255)" stroke-width="0" opacity="1" d="M 217.5 186 L 235 186.5 L 234 187.5 L 234 195 L 208.5 192 L 207.5 191 L 197.5 191 L 193 189.5 L 194.5 188 L 216.5 187 L 217.5 186 Z " /><path fill="rgb(255,255,255)" stroke="rgb(255,255,255)" stroke-width="0" opacity="1" d="M 238 186 L 262.5 189 L 267 191.5 L 268 201 L 238 196 L 238 186 Z " /><path fill="rgb(255,255,255)" stroke="rgb(255,255,255)" stroke-width="0" opacity="1" d="M 151.5 194 L 193.5 194 L 197 195.5 Q 190.2 197.7 187 203.5 L 180 216.5 L 175 230.5 L 161 283.5 L 153 327.5 L 153 335.5 L 151 345.5 L 151 358.5 L 150 363 L 144.5 364 L 93.5 364 L 92.5 363 L 77.5 363 L 76.5 362 L 56.5 361 Q 55.3 358.7 50.5 360 L 46 357.5 L 47 352.5 L 47 337.5 L 48 336.5 L 51 304.5 L 54 292.5 L 56 276.5 L 64 242.5 L 73 218.5 L 84.5 205 L 95.5 200 L 106.5 198 L 120.5 197 L 121.5 196 L 131.5 196 L 132.5 195 L 150.5 195 L 151.5 194 Z M 125 209 L 124 210 L 94 211 L 82 214 L 79 216 L 74 222 L 67 239 L 61 262 L 53 305 Q 52 313 55 318 Q 58 322 65 324 L 74 326 L 83 326 L 84 327 L 115 327 L 116 326 L 126 326 L 142 321 Q 149 316 151 307 Q 151 295 155 288 L 155 283 L 168 229 L 168 218 L 167 216 L 160 210 Q 155 211 154 209 L 125 209 Z M 56 333 L 54 334 L 49 341 L 50 351 L 56 355 L 61 354 Q 65 351 66 345 L 64 338 Q 62 333 56 333 Z M 133 335 L 131 336 L 125 346 Q 125 352 128 355 L 136 358 L 141 356 L 146 348 L 145 341 L 140 335 L 133 335 Z M 78 342 L 74 344 L 73 347 L 76 347 L 78 352 L 89 358 Q 108 360 115 348 Q 118 349 117 347 L 114 344 Q 112 342 111 345 L 112 347 Q 108 353 99 355 Q 88 356 84 352 L 79 347 L 79 345 L 78 342 Z " /><path fill="rgb(255,255,255)" stroke="rgb(255,255,255)" stroke-width="0" opacity="1" d="M 202.5 196 L 212.5 196 L 225.5 199 L 232.5 199 L 233.5 200 L 263.5 204 L 275.5 207 L 281.5 207 L 299.5 211 L 311.5 212 L 335.5 217 L 341.5 217 L 353.5 220 L 376.5 223 L 422.5 232 L 427.5 232 L 445.5 236 Q 452.9 238.6 457 244.5 L 461 255 L 437.5 251 L 422.5 250 L 399.5 246 L 391.5 246 L 377.5 243 L 370.5 243 L 369.5 242 L 362.5 242 L 361.5 241 L 340.5 239 L 332.5 237 L 325.5 237 L 324.5 236 L 294.5 233 L 271.5 229 L 248.5 227 L 233.5 224 L 225.5 224 L 215.5 222 L 203.5 222 Q 193.6 224.1 189 231.5 L 185 238.5 L 175 269.5 L 166 305.5 L 163 326.5 L 166.5 331 L 178.5 332 L 179.5 331 L 200.5 331 L 205 326.5 L 206 324.5 L 206 242.5 L 201.5 237 L 191.5 237 L 191 235.5 L 196.5 229 L 202.5 226 L 217.5 226 L 218.5 227 L 256.5 231 L 271.5 234 L 294.5 236 L 316.5 240 L 324.5 240 L 347.5 244 L 362.5 245 L 376.5 248 L 406.5 251 L 413.5 253 L 458.5 258 L 463 260.5 L 464 291.5 L 465 292.5 L 465 341 L 422.5 342 L 421.5 343 L 396.5 343 L 395.5 344 L 395 264.5 L 391.5 260 L 361.5 257 L 358 261.5 L 358 345 L 343.5 345 L 342.5 346 L 318.5 346 L 317.5 347 L 290.5 347 L 289.5 348 L 264.5 348 L 263.5 349 L 263 242.5 L 260.5 239 L 251.5 237 L 243.5 237 L 242.5 236 L 234.5 236 L 233.5 235 L 214.5 233 L 212 234 L 211 236.5 L 210.5 351 L 208.5 351 L 186.5 351 Q 185.2 353.2 180.5 352 L 163.5 361 L 153 363 L 154 360.5 L 154 347.5 L 155 346.5 L 155 336.5 L 156 335.5 L 158 315.5 L 170 259.5 L 183 217.5 Q 186.9 206.9 194.5 200 L 202.5 196 Z M 280 247 L 278 248 L 274 254 L 274 320 L 276 324 L 280 326 L 349 325 L 353 319 L 353 263 L 352 259 L 349 255 L 344 254 L 280 247 Z M 404 263 L 400 269 L 400 319 L 401 322 L 406 325 L 454 324 L 456 323 L 458 319 L 458 274 L 457 271 L 455 268 L 451 267 L 435 266 L 426 264 L 416 264 L 415 263 L 404 263 Z " /><path fill="rgb(255,255,255)" stroke="rgb(255,255,255)" stroke-width="0" opacity="1" d="M 272 198 L 282 198 L 282 203 L 273 202 L 272 198 Z " /><path fill="rgb(255,255,255)" stroke="rgb(255,255,255)" stroke-width="0" opacity="1" d="M 286 198 L 306.5 201 L 308 202.5 L 309 208 L 286 204 L 286 198 Z " /><path fill="rgb(255,255,255)" stroke="rgb(255,255,255)" stroke-width="0" opacity="1" d="M 312 203 L 317.5 203 L 338.5 208 L 343.5 208 L 370 214 L 371 218 L 331.5 212 L 325.5 210 L 313 209 L 312 203 Z " /><path fill="rgb(255,255,255)" stroke="rgb(255,255,255)" stroke-width="0" opacity="1" d="M 125.5 213 L 152.5 213 Q 154 215.5 159.5 214 L 163 216 L 165 223.5 L 163 233.5 L 161.5 235 L 158.5 234 L 107.5 234 L 106.5 235 L 83.5 235 L 82.5 236 L 73 236 Q 74.4 224.1 82.5 218 L 94.5 215 L 124.5 214 L 125.5 213 Z " /><path fill="rgb(255,255,255)" stroke="rgb(255,255,255)" stroke-width="0" opacity="1" d="M 215 237 L 217.5 238 L 234.5 239 L 236 240.5 L 236 376.5 L 234.5 378 L 222.5 378 L 221.5 379 L 215 379 L 215 237 Z M 221 247 L 217 253 L 217 323 L 218 326 L 221 328 L 233 328 L 235 325 L 235 252 L 234 249 Q 230 246 221 247 Z " /><path fill="rgb(255,255,255)" stroke="rgb(255,255,255)" stroke-width="0" opacity="1" d="M 112.5 238 L 156.5 238 L 161 239 L 153 273.5 L 151 287.5 L 148 296.5 L 147 305.5 L 142 316 L 134.5 320 L 123.5 322 L 85.5 323 L 84.5 322 L 68.5 321 L 59 316.5 Q 56 313.5 57 306.5 L 58 305.5 L 58 299.5 L 63 271.5 L 71 240 L 82.5 240 L 83.5 239 L 111.5 239 L 112.5 238 Z M 84 255 L 82 256 L 77 261 L 77 263 L 84 260 Q 89 259 91 261 L 93 260 L 92 258 Q 91 254 84 255 Z M 125 255 L 123 256 Q 119 257 120 261 L 124 260 Q 132 259 135 264 L 137 263 L 135 259 L 131 255 L 125 255 Z M 83 270 L 79 272 Q 72 276 70 285 Q 68 296 73 302 L 79 305 Q 86 306 89 303 Q 94 298 96 290 L 96 283 L 93 275 L 87 270 L 83 270 Z M 121 271 L 119 272 Q 111 277 109 288 L 109 294 L 112 302 L 119 306 Q 126 307 129 304 L 133 300 L 137 289 L 137 284 L 134 276 Q 131 269 121 271 Z " /><path fill="rgb(255,255,255)" stroke="rgb(255,255,255)" stroke-width="0" opacity="1" d="M 189.5 240 Q 197.8 239.2 202 242.5 L 202 324.5 L 199.5 327 L 170.5 327 L 169.5 328 L 167 327 L 167 320.5 L 174 288.5 L 176 284.5 L 181 262.5 L 189.5 240 Z " /><path fill="rgb(255,255,255)" stroke="rgb(255,255,255)" stroke-width="0" opacity="1" d="M 239 240 L 257.5 242 L 259 243.5 L 259 375.5 L 258.5 376 L 247.5 376 L 246.5 377 L 239 377 L 239 240 Z M 244 249 L 240 253 L 240 324 L 241 326 L 244 328 L 254 328 L 257 324 L 257 254 L 254 250 L 244 249 Z " /><path fill="rgb(255,255,255)" stroke="rgb(255,255,255)" stroke-width="0" opacity="1" d="M 222.5 250 Q 224.3 252.7 230.5 251 L 232 252.5 L 232 323.5 L 230.5 325 L 222.5 325 L 221 323.5 L 221 251.5 L 222.5 250 Z " /><path fill="rgb(255,255,255)" stroke="rgb(255,255,255)" stroke-width="0" opacity="1" d="M 280.5 251 L 317 255 L 317 319.5 L 318 320.5 L 280.5 322 L 278 319.5 L 278 253.5 L 280.5 251 Z " /><path fill="rgb(255,255,255)" stroke="rgb(255,255,255)" stroke-width="0" opacity="1" d="M 244.5 253 L 252.5 253 L 253 253.5 L 253 323.5 Q 251.5 326.5 245.5 325 L 243 322.5 L 243 254.5 L 244.5 253 Z " /><path fill="rgb(255,255,255)" stroke="rgb(255,255,255)" stroke-width="0" opacity="1" d="M 321.5 256 L 348 259 L 349 261.5 L 349 318.5 L 346.5 321 L 321.5 321 L 322 319.5 L 322 257.5 L 321.5 256 Z " /><path fill="rgb(255,255,255)" stroke="rgb(255,255,255)" stroke-width="0" opacity="1" d="M 362 261 L 375 262 L 374.5 271 L 372.5 268 L 366.5 267 L 364 268 L 363 270.5 L 363 320.5 L 364 323 Q 366.1 324.6 371.5 324 L 374 323 L 374.5 321 L 375 366 L 362 367 L 362 261 Z " /><path fill="rgb(255,255,255)" stroke="rgb(255,255,255)" stroke-width="0" opacity="1" d="M 378 263 L 391 264 L 391 364.5 Q 390.8 365.8 384.5 365 L 378 366 L 378 330.5 Q 380.7 328.8 379 322.5 L 378 320.5 L 379 320.5 L 380.5 323 L 386.5 324 L 390 321.5 L 390 271.5 L 387.5 269 Q 380.8 267.3 379 270.5 L 378.5 273 L 378 263 Z " /><path fill="rgb(255,255,255)" stroke="rgb(255,255,255)" stroke-width="0" opacity="1" d="M 405 267 L 415.5 267 L 416.5 268 L 430 269 L 430 319.5 L 429.5 320 L 413.5 320 Q 412 322.5 406.5 321 L 404 318.5 L 404 269.5 L 405 267 Z " /><path fill="rgb(255,255,255)" stroke="rgb(255,255,255)" stroke-width="0" opacity="1" d="M 367.5 270 L 372 271 L 372 319.5 L 371.5 320 L 366 320 L 366 271.5 L 367.5 270 Z " /><path fill="rgb(255,255,255)" stroke="rgb(255,255,255)" stroke-width="0" opacity="1" d="M 434 270 L 451.5 271 L 454 273.5 L 454 318.5 L 452.5 320 L 434 320 L 434 270 Z " /><path fill="rgb(255,255,255)" stroke="rgb(255,255,255)" stroke-width="0" opacity="1" d="M 382 272 L 387 272.5 L 387 320 L 382 319.5 L 382 272 Z " /><path fill="rgb(255,255,255)" stroke="rgb(255,255,255)" stroke-width="0" opacity="1" d="M 82.5 273 Q 89.4 272.1 91 276.5 L 93 281.5 L 90.5 280 L 84.5 279 L 80 282.5 L 77 289.5 L 77 294.5 L 81 301.5 L 78.5 302 L 75 299.5 Q 71.2 294.8 73 284.5 Q 74.8 277.3 80.5 274 L 82.5 273 Z " /><path fill="rgb(255,255,255)" stroke="rgb(255,255,255)" stroke-width="0" opacity="1" d="M 124.5 273 L 132 277.5 L 134 283.5 L 132 282.5 Q 132.8 280.3 130.5 281 Q 129 278.5 123.5 280 L 117 288.5 L 117 297.5 L 121 302.5 L 118.5 303 L 115 300.5 Q 111.1 296.4 112 287.5 Q 113.5 279 119.5 275 L 124.5 273 Z " /><path fill="rgb(255,255,255)" stroke="rgb(255,255,255)" stroke-width="0" opacity="1" d="M 88.5 283 L 91 286.5 L 90 289 Q 84.4 291.2 86 285.5 L 88.5 283 Z " /><path fill="rgb(255,255,255)" stroke="rgb(255,255,255)" stroke-width="0" opacity="1" d="M 127.5 284 L 131 285.5 Q 131.8 289.3 129.5 290 L 126 288.5 Q 125.3 284.8 127.5 284 Z " /><path fill="rgb(255,255,255)" stroke="rgb(255,255,255)" stroke-width="0" opacity="1" d="M 378.5 302 L 379 308.5 L 378 308.5 L 378.5 302 Z " /><path fill="rgb(255,255,255)" stroke="rgb(255,255,255)" stroke-width="0" opacity="1" d="M 55.5 337 Q 60.3 336.3 61 339.5 L 62 346.5 L 58.5 351 Q 53.8 351.8 53 348.5 L 52 342.5 L 55.5 337 Z " /><path fill="rgb(255,255,255)" stroke="rgb(255,255,255)" stroke-width="0" opacity="1" d="M 134.5 338 Q 139.6 337.4 141 340.5 L 142 348.5 L 138.5 353 L 133.5 354 Q 127.9 352.1 129 343.5 L 132.5 339 L 134.5 338 Z " /><path fill="rgb(255,255,255)" stroke="rgb(255,255,255)" stroke-width="0" opacity="1" d="M 455.5 344 L 465 344 L 465 359.5 L 461.5 364 L 450 366 Q 450.8 359.8 446.5 357 L 438.5 356 L 437.5 357 L 411.5 358 L 405 361.5 L 402 369.5 L 399.5 372 L 374.5 374 L 373.5 375 L 362.5 375 L 352.5 377 L 342.5 377 L 341.5 378 L 331.5 378 L 330.5 379 Q 330.4 371.6 326.5 368 L 324.5 367 L 309.5 367 L 308.5 368 L 295.5 368 L 294.5 369 L 280.5 369 L 274 372.5 L 268.5 383 L 256.5 384 L 255.5 385 L 221.5 387 L 220.5 388 L 184.5 390 L 183.5 391 L 157.5 391 L 154 384.5 L 153 366 L 164.5 364 L 182.5 355 L 211 354 L 211 380.5 L 212 383 L 246.5 381 L 247.5 380 L 258.5 380 L 263 377.5 L 263 352.5 L 263.5 352 L 271.5 352 L 272.5 351 L 327.5 350 L 328.5 349 L 350.5 349 L 351.5 348 L 358 348 L 358 369.5 L 359.5 371 L 392.5 369 L 395 366.5 L 395 347.5 Q 395.1 346.4 400.5 347 L 401.5 346 L 430.5 346 L 431.5 345 L 454.5 345 L 455.5 344 Z " /><path fill="rgb(255,255,255)" stroke="rgb(255,255,255)" stroke-width="0" opacity="1" d="M 441.5 360 L 445 361.5 L 446 367 Q 442.2 368 441 365.5 L 440 361.5 L 441.5 360 Z " /><path fill="rgb(255,255,255)" stroke="rgb(255,255,255)" stroke-width="0" opacity="1" d="M 426.5 361 L 436 361 L 436 367 L 419.5 369 L 420 367.5 Q 417.3 359.3 425.5 362 L 426.5 361 Z " /><path fill="rgb(255,255,255)" stroke="rgb(255,255,255)" stroke-width="0" opacity="1" d="M 412.5 362 Q 418.8 359.8 417 365.5 L 414.5 370 Q 407.8 371.8 406 368.5 L 409.5 363 L 412.5 362 Z " /><path fill="rgb(255,255,255)" stroke="rgb(255,255,255)" stroke-width="0" opacity="1" d="M 46 363 L 57.5 365 L 65.5 365 L 66.5 366 L 76.5 366 L 77.5 367 L 140.5 368 L 141.5 367 L 150 367 L 150 379.5 L 153 391 L 108.5 391 L 107.5 390 L 91.5 390 L 90.5 389 L 66.5 388 L 56.5 386 L 50 380.5 L 47 373.5 Q 47.7 366.4 46 363 Z " /><path fill="rgb(255,255,255)" stroke="rgb(255,255,255)" stroke-width="0" opacity="1" d="M 313.5 371 L 316 372.5 L 317 378 L 299 380 L 300 374.5 L 299 372 L 312.5 372 L 313.5 371 Z " /><path fill="rgb(255,255,255)" stroke="rgb(255,255,255)" stroke-width="0" opacity="1" d="M 320 371 Q 323.8 370 325 372.5 L 326 379 Q 320.8 381.1 322 376.5 L 320 371 Z " /><path fill="rgb(255,255,255)" stroke="rgb(255,255,255)" stroke-width="0" opacity="1" d="M 430 371 L 438.5 374 L 442.5 371 L 443 373.5 L 438.5 379 Q 432 380 431 375.5 L 430 371 Z " /><path fill="rgb(255,255,255)" stroke="rgb(255,255,255)" stroke-width="0" opacity="1" d="M 422.5 372 Q 426.9 370.5 426 373.5 L 429 378.5 L 427.5 379 L 423 375.5 L 422.5 372 Z " /><path fill="rgb(255,255,255)" stroke="rgb(255,255,255)" stroke-width="0" opacity="1" d="M 281.5 373 L 296 373 L 296 378.5 L 292.5 381 L 283.5 381 Q 281.8 383.8 276.5 383 L 275 379.5 L 278.5 374 L 281.5 373 Z " /><path fill="rgb(255,255,255)" stroke="rgb(255,255,255)" stroke-width="0" opacity="1" d="M 404.5 373 Q 405.5 377 411.5 376 L 415.5 373 L 415 374.5 Q 414.8 379.3 411.5 381 L 406.5 382 L 402 377.5 L 402 375.5 L 404.5 373 Z " /><path fill="rgb(255,255,255)" stroke="rgb(255,255,255)" stroke-width="0" opacity="1" d="M 396.5 376 Q 399.1 375.2 398 378.5 L 400.5 382 Q 395.8 381.8 394 378.5 Q 393.3 376.3 395.5 377 L 396.5 376 Z " /><path fill="rgb(255,255,255)" stroke="rgb(255,255,255)" stroke-width="0" opacity="1" d="M 317.5 382 Q 319.8 381.3 319 383.5 L 314.5 391 L 308.5 393 L 303 388.5 L 301 383.5 L 305.5 383 Q 307.1 386.9 313.5 386 L 317.5 382 Z " /><path fill="rgb(255,255,255)" stroke="rgb(255,255,255)" stroke-width="0" opacity="1" d="M 296.5 383 L 301 391.5 L 297.5 392 L 295 391 L 293 387.5 L 293 384 L 296.5 383 Z " /><path fill="rgb(255,255,255)" stroke="rgb(255,255,255)" stroke-width="0" opacity="1" d="M 271.5 385 L 278.5 389 L 284.5 385 L 287 385 Q 286.6 390.8 282.5 394 L 276.5 396 L 270 391.5 L 269 386 L 271.5 385 Z " /><path fill="rgb(255,255,255)" stroke="rgb(255,255,255)" stroke-width="0" opacity="1" d="M 258.5 388 L 265 388 L 265 390.5 L 268 394.5 L 264.5 395 L 259 390.5 L 258.5 388 Z " /><path fill="rgb(255,255,255)" stroke="rgb(255,255,255)" stroke-width="0" opacity="1" d="M 64.5 391 L 75.5 393 L 105.5 394 L 106.5 395 L 159.5 395 L 162.5 396 L 163.5 395 L 181 395 L 179.5 398 L 174.5 399 L 136.5 399 L 135.5 398 L 110.5 398 L 109.5 397 L 77.5 396 L 76.5 395 L 67.5 395 L 64 392.5 L 64.5 391 Z " /><path fill="rgb(255,255,255)" stroke="rgb(255,255,255)" stroke-width="0" opacity="1" d="M 186 394 L 193 394.5 Q 190.9 398.9 185 398 L 186 394 Z " /><path fill="rgb(0,0,0)" stroke="rgb(0,0,0)" stroke-width="0" opacity="1" d="M 230.5 110 L 264.5 110 L 272.5 112 L 277 116.5 Q 278.5 124.5 273.5 126 Q 270.3 128.3 263.5 127 L 256.5 123 L 225 150.5 L 248.5 183 L 264.5 185 L 271 189.5 Q 270.3 193.3 272.5 194 L 289.5 194 L 324.5 201 L 329.5 201 L 334.5 203 L 368.5 209 L 374 213.5 L 376.5 219 L 443.5 231 Q 454.4 233.6 460 241.5 L 466 254.5 L 467 265.5 L 468 266.5 L 468 284.5 L 469 285.5 L 469 334.5 Q 471.5 336 470 341.5 L 469 342.5 L 469 360.5 L 464.5 367 L 455.5 370 L 448 370 L 444 380 L 438.5 383 L 425.5 383 L 420 378.5 L 419.5 377 L 412.5 385 Q 407.4 387.4 398.5 386 L 392 383 L 388.5 377 L 355.5 380 L 354.5 381 L 323 383 Q 322 391.2 315.5 395 Q 310.1 398.6 299.5 397 Q 292.7 395.3 289.5 390 L 283.5 398 Q 277.4 401.4 266.5 400 Q 259.1 398.9 256 393.5 L 253.5 389 L 200.5 393 Q 196.7 399.7 188.5 402 L 179.5 402 L 178.5 403 L 131.5 403 L 130.5 402 L 107.5 402 L 106.5 401 L 90.5 401 L 89.5 400 L 66.5 399 L 60 394.5 L 57.5 390 Q 50.1 388.9 47 383.5 L 42 369.5 L 42 347.5 L 43 346.5 L 43 335.5 L 44 334.5 L 44 325.5 L 45 324.5 L 47 302.5 L 58 248.5 L 64 228.5 L 71 213.5 L 81.5 202 L 94.5 196 L 111.5 193 L 118.5 193 L 119.5 192 L 145.5 191 L 146.5 190 L 189 190 L 191.5 185 L 200 183.5 L 175 153.5 L 173 148.5 L 195 123.5 L 194 119.5 L 198.5 114 L 205.5 112 L 229.5 111 L 230.5 110 Z M 235 114 L 234 115 L 219 115 L 218 116 L 202 117 L 199 121 L 215 120 L 216 119 L 230 119 L 231 118 L 248 118 L 250 117 L 251 120 L 228 140 L 221 148 L 223 148 L 259 115 L 235 114 Z M 263 115 L 260 120 Q 262 124 271 123 Q 274 122 273 118 Q 270 114 263 115 Z M 235 122 L 234 123 L 210 124 L 190 145 L 199 147 L 215 147 L 241 123 L 235 122 Z M 202 124 L 180 147 L 183 147 L 183 146 L 204 125 L 202 124 Z M 180 151 L 204 183 L 207 183 L 183 154 L 180 151 Z M 187 151 L 213 183 L 216 182 L 232 182 L 234 181 L 215 154 L 214 152 L 204 152 L 203 151 L 187 151 Z M 220 152 L 241 182 L 242 182 L 224 156 L 220 152 Z M 218 186 L 217 187 L 195 188 L 193 190 L 198 191 L 208 191 L 209 192 L 234 195 L 234 188 L 235 187 L 218 186 Z M 238 186 L 238 196 L 268 201 L 267 192 L 263 189 L 238 186 Z M 152 194 L 151 195 L 133 195 L 132 196 L 122 196 L 121 197 L 107 198 L 96 200 L 85 205 L 73 219 L 64 243 L 56 277 L 54 293 L 51 305 L 48 337 L 47 338 L 47 353 L 46 358 L 51 360 Q 55 359 57 361 L 77 362 L 78 363 L 93 363 L 94 364 L 145 364 L 150 363 L 151 359 L 151 346 L 153 336 L 153 328 L 161 284 L 175 231 L 180 217 L 187 204 Q 190 198 197 196 L 194 194 L 152 194 Z M 203 196 L 195 200 Q 187 207 183 218 L 170 260 L 158 316 L 156 336 L 155 337 L 155 347 L 154 348 L 154 361 L 153 363 L 164 361 L 181 352 Q 185 353 187 351 L 209 351 L 211 351 L 211 237 L 212 234 L 215 233 L 234 235 L 235 236 L 243 236 L 244 237 L 252 237 L 261 239 L 263 243 L 264 349 L 265 348 L 290 348 L 291 347 L 318 347 L 319 346 L 343 346 L 344 345 L 358 345 L 358 262 L 362 257 L 392 260 L 395 265 L 396 344 L 397 343 L 422 343 L 423 342 L 465 341 L 465 293 L 464 292 L 463 261 L 459 258 L 414 253 L 407 251 L 377 248 L 363 245 L 348 244 L 325 240 L 317 240 L 295 236 L 272 234 L 257 231 L 219 227 L 218 226 L 203 226 L 197 229 L 191 236 L 192 237 L 202 237 L 206 243 L 206 325 L 205 327 L 201 331 L 180 331 L 179 332 L 167 331 L 163 327 L 166 306 L 175 270 L 185 239 L 189 232 Q 194 224 204 222 L 216 222 L 226 224 L 234 224 L 249 227 L 272 229 L 295 233 L 325 236 L 326 237 L 333 237 L 341 239 L 362 241 L 363 242 L 370 242 L 371 243 L 378 243 L 392 246 L 400 246 L 423 250 L 438 251 L 461 255 L 457 245 Q 453 239 446 236 L 428 232 L 423 232 L 377 223 L 354 220 L 342 217 L 336 217 L 312 212 L 300 211 L 282 207 L 276 207 L 264 204 L 234 200 L 233 199 L 226 199 L 213 196 L 203 196 Z M 272 198 L 273 202 L 282 203 L 282 198 L 272 198 Z M 286 198 L 286 204 L 309 208 L 308 203 L 307 201 L 286 198 Z M 312 203 L 313 209 L 326 210 L 332 212 L 371 218 L 370 214 L 344 208 L 339 208 L 318 203 L 312 203 Z M 215 237 L 215 379 L 222 379 L 223 378 L 235 378 L 236 377 L 236 241 L 235 239 L 218 238 L 215 237 Z M 190 240 L 181 263 L 176 285 L 174 289 L 167 321 L 167 327 L 170 328 L 171 327 L 200 327 L 202 325 L 202 243 Q 198 239 190 240 Z M 239 240 L 239 377 L 247 377 L 248 376 L 259 376 L 259 376 L 259 244 L 258 242 L 239 240 Z M 362 261 L 362 367 L 375 366 L 375 321 L 374 323 L 372 324 Q 366 325 364 323 L 363 321 L 363 271 L 364 268 L 367 267 L 373 268 L 375 271 L 375 262 L 362 261 Z M 378 263 L 379 273 L 379 271 Q 381 267 388 269 L 390 272 L 390 322 L 387 324 Q 381 325 380 322 L 378 331 L 378 366 L 385 365 Q 391 366 391 365 L 391 264 L 378 263 Z M 368 270 L 366 272 L 366 320 L 372 320 L 372 320 L 372 271 L 368 270 Z M 382 272 L 382 320 L 387 320 L 387 273 L 382 272 Z M 379 302 L 378 309 L 379 309 L 379 302 Z M 456 344 L 455 345 L 432 345 L 431 346 L 402 346 L 401 347 Q 395 346 395 348 L 395 367 L 393 369 L 360 371 L 358 370 L 358 348 L 352 348 L 351 349 L 329 349 L 328 350 L 273 351 L 272 352 L 264 352 L 263 353 L 263 378 L 259 380 L 248 380 L 247 381 L 212 383 L 211 381 L 211 354 L 183 355 L 165 364 L 153 366 L 154 385 L 158 391 L 184 391 L 185 390 L 221 388 L 222 387 L 256 385 L 257 384 L 269 383 L 274 373 L 281 369 L 295 369 L 296 368 L 309 368 L 310 367 L 325 367 L 327 368 Q 330 372 331 379 L 332 378 L 342 378 L 343 377 L 353 377 L 363 375 L 374 375 L 375 374 L 400 372 L 402 370 L 405 362 L 412 358 L 438 357 L 439 356 L 447 357 Q 451 360 450 366 L 462 364 L 465 360 L 465 344 L 456 344 Z M 442 360 L 440 362 L 441 366 Q 442 368 446 367 L 445 362 L 442 360 Z M 427 361 L 426 362 Q 417 359 420 368 L 420 369 L 436 367 L 436 361 L 427 361 Z M 413 362 L 410 363 L 406 369 Q 408 372 415 370 L 417 366 Q 419 360 413 362 Z M 46 363 Q 48 366 47 374 L 50 381 L 57 386 L 67 388 L 91 389 L 92 390 L 108 390 L 109 391 L 153 391 L 150 380 L 150 367 L 142 367 L 141 368 L 78 367 L 77 366 L 67 366 L 66 365 L 58 365 L 46 363 Z M 314 371 L 313 372 L 299 372 L 300 375 L 299 380 L 317 378 L 316 373 L 314 371 Z M 320 371 L 322 377 Q 321 381 326 379 L 325 373 Q 324 370 320 371 Z M 430 371 L 431 376 Q 432 380 439 379 L 443 374 L 443 371 L 439 374 L 430 371 Z M 423 372 L 423 376 L 428 379 L 429 379 L 426 374 Q 427 370 423 372 Z M 282 373 L 279 374 L 275 380 L 277 383 Q 282 384 284 381 L 293 381 L 296 379 L 296 373 L 282 373 Z M 405 373 L 402 376 L 402 378 L 407 382 L 412 381 Q 415 379 415 375 L 416 373 L 412 376 Q 406 377 405 373 Z M 397 376 L 396 377 Q 393 376 394 379 Q 396 382 401 382 L 398 379 Q 399 375 397 376 Z M 318 382 L 314 386 Q 307 387 306 383 L 301 384 L 303 389 L 309 393 L 315 391 L 319 384 Q 320 381 318 382 Z M 297 383 L 293 384 L 293 388 L 295 391 L 298 392 L 301 392 L 297 383 Z M 272 385 L 269 386 L 270 392 L 277 396 L 283 394 Q 287 391 287 385 L 285 385 L 279 389 L 272 385 Z M 259 388 L 259 391 L 265 395 L 268 395 L 265 391 L 265 388 L 259 388 Z M 65 391 L 64 393 L 68 395 L 77 395 L 78 396 L 110 397 L 111 398 L 136 398 L 137 399 L 175 399 L 180 398 L 181 395 L 164 395 L 163 396 L 160 395 L 107 395 L 106 394 L 76 393 L 65 391 Z M 186 394 L 185 398 Q 191 399 193 395 L 186 394 Z " /><path fill="rgb(0,0,0)" stroke="rgb(0,0,0)" stroke-width="0" opacity="1" d="M 124.5 209 L 153.5 209 Q 154.8 211.3 159.5 210 L 167 215.5 L 168 217.5 L 168 228.5 L 155 282.5 L 155 287.5 Q 151.5 295.5 151 306.5 Q 148.6 316.1 141.5 321 L 125.5 326 L 115.5 326 L 114.5 327 L 83.5 327 L 82.5 326 L 73.5 326 L 64.5 324 Q 58 322.5 55 317.5 Q 51.9 313.1 53 304.5 L 61 261.5 L 67 238.5 L 74 221.5 L 78.5 216 L 81.5 214 L 93.5 211 L 123.5 210 L 124.5 209 Z M 126 213 L 125 214 L 95 215 L 83 218 Q 74 224 73 236 L 83 236 L 84 235 L 107 235 L 108 234 L 159 234 L 162 235 L 163 234 L 165 224 L 163 216 L 160 214 Q 154 216 153 213 L 126 213 Z M 113 238 L 112 239 L 84 239 L 83 240 L 71 240 L 63 272 L 58 300 L 58 306 L 57 307 Q 56 314 59 317 L 69 321 L 85 322 L 86 323 L 124 322 L 135 320 L 142 316 L 147 306 L 148 297 L 151 288 L 153 274 L 161 239 L 157 238 L 113 238 Z " /><path fill="rgb(0,0,0)" stroke="rgb(0,0,0)" stroke-width="0" opacity="1" d="M 220.5 247 Q 229.8 246 234 249 L 235 251.5 L 235 324.5 L 232.5 328 L 220.5 328 L 218 325.5 L 217 322.5 L 217 252.5 L 220.5 247 Z M 223 250 L 221 252 L 221 324 L 223 325 L 231 325 L 232 324 L 232 253 L 231 251 Q 224 253 223 250 Z " /><path fill="rgb(0,0,0)" stroke="rgb(0,0,0)" stroke-width="0" opacity="1" d="M 279.5 247 L 343.5 254 L 348.5 255 L 352 258.5 L 353 262.5 L 353 318.5 L 348.5 325 L 279.5 326 L 276 323.5 L 274 319.5 L 274 253.5 L 277.5 248 L 279.5 247 Z M 281 251 L 278 254 L 278 320 L 281 322 L 318 321 L 317 320 L 317 255 L 281 251 Z M 322 256 L 322 258 L 322 320 L 322 321 L 347 321 L 349 319 L 349 262 L 348 259 L 322 256 Z " /><path fill="rgb(0,0,0)" stroke="rgb(0,0,0)" stroke-width="0" opacity="1" d="M 243.5 249 L 253.5 250 L 257 253.5 L 257 323.5 L 253.5 328 L 243.5 328 L 241 325.5 L 240 323.5 L 240 252.5 L 243.5 249 Z M 245 253 L 243 255 L 243 323 L 246 325 Q 251 326 253 324 L 253 254 L 253 253 L 245 253 Z " /><path fill="rgb(0,0,0)" stroke="rgb(0,0,0)" stroke-width="0" opacity="1" d="M 83.5 255 Q 90.5 253.5 92 257.5 L 93 259.5 L 90.5 261 Q 89 258.5 83.5 260 L 77 263 L 77 260.5 L 81.5 256 L 83.5 255 Z " /><path fill="rgb(0,0,0)" stroke="rgb(0,0,0)" stroke-width="0" opacity="1" d="M 124.5 255 L 130.5 255 L 135 258.5 L 137 262.5 L 134.5 264 Q 132.3 258.7 123.5 260 L 120 261 Q 119.3 257.2 122.5 256 L 124.5 255 Z " /><path fill="rgb(0,0,0)" stroke="rgb(0,0,0)" stroke-width="0" opacity="1" d="M 403.5 263 L 414.5 263 L 415.5 264 L 425.5 264 L 434.5 266 L 450.5 267 L 454.5 268 L 457 270.5 L 458 273.5 L 458 318.5 L 455.5 323 L 453.5 324 L 405.5 325 L 401 321.5 L 400 318.5 L 400 268.5 L 403.5 263 Z M 405 267 L 404 270 L 404 319 L 407 321 Q 412 323 414 320 L 430 320 L 430 320 L 430 269 L 417 268 L 416 267 L 405 267 Z M 434 270 L 434 320 L 453 320 L 454 319 L 454 274 L 452 271 L 434 270 Z " /><path fill="rgb(0,0,0)" stroke="rgb(0,0,0)" stroke-width="0" opacity="1" d="M 82.5 270 L 86.5 270 L 93 274.5 L 96 282.5 L 96 289.5 Q 94.1 298.1 88.5 303 Q 85.5 306 78.5 305 L 73 301.5 Q 68.2 296.3 70 284.5 Q 72.2 276.1 78.5 272 L 82.5 270 Z M 83 273 L 81 274 Q 75 277 73 285 Q 71 295 75 300 L 79 302 L 81 302 L 77 295 L 77 290 L 80 283 L 85 279 L 91 280 L 92 281 L 91 277 Q 89 272 83 273 Z M 89 283 L 86 286 Q 84 291 90 289 L 91 287 L 89 283 Z " /><path fill="rgb(0,0,0)" stroke="rgb(0,0,0)" stroke-width="0" opacity="1" d="M 120.5 271 Q 131.3 269.2 134 275.5 L 137 283.5 L 137 288.5 L 133 299.5 L 128.5 304 Q 125.5 307 118.5 306 L 112 301.5 L 109 293.5 L 109 287.5 Q 111.1 277.1 118.5 272 L 120.5 271 Z M 125 273 L 120 275 Q 113 279 112 288 Q 111 296 115 301 L 119 303 L 121 303 L 117 298 L 117 289 L 124 280 Q 129 279 131 281 Q 133 280 132 283 L 133 283 L 132 278 L 125 273 Z M 128 284 Q 125 285 126 289 L 130 290 Q 132 289 131 286 L 128 284 Z " /><path fill="rgb(0,0,0)" stroke="rgb(0,0,0)" stroke-width="0" opacity="1" d="M 55.5 333 Q 61.9 333.1 64 337.5 L 66 344.5 Q 65.1 351.1 60.5 354 L 55.5 355 L 50 350.5 L 49 340.5 L 53.5 334 L 55.5 333 Z M 56 337 L 52 343 L 53 349 Q 54 352 59 351 L 62 347 L 61 340 Q 60 336 56 337 Z " /><path fill="rgb(0,0,0)" stroke="rgb(0,0,0)" stroke-width="0" opacity="1" d="M 132.5 335 L 139.5 335 L 145 340.5 L 146 347.5 L 140.5 356 L 135.5 358 L 128 355 Q 125.3 352 125 345.5 L 130.5 336 L 132.5 335 Z M 135 338 L 133 339 L 129 344 Q 128 352 134 354 L 139 353 L 142 349 L 141 341 Q 140 337 135 338 Z " /><path fill="rgb(0,0,0)" stroke="rgb(0,0,0)" stroke-width="0" opacity="1" d="M 77.5 342 L 79 344.5 L 79 346.5 L 83.5 352 Q 88.3 356.2 98.5 355 Q 107.6 353.1 112 346.5 L 111 344.5 Q 112.3 341.8 113.5 344 L 117 346.5 Q 117.8 349.1 114.5 348 Q 108.5 360 88.5 358 L 78 351.5 L 76 347 L 73 346.5 L 74 344 L 77.5 342 Z " /></svg>