<svg width="627" height="627" preserveAspectRatio="xMidYMid meet" viewBox="0 0 512 512" version="1.1" xmlns="http://www.w3.org/2000/svg" ><path fill="rgb(255,255,255)" stroke="rgb(255,255,255)" stroke-width="0" opacity="1" d="M 0 0 L 512 0 L 512 512 L 0 512 L 0 0 Z M 221 146 L 210 150 Q 204 154 202 161 L 202 173 L 207 185 L 208 186 L 202 184 Q 189 183 182 186 L 160 201 Q 134 224 115 253 L 111 247 Q 106 240 98 237 L 78 233 L 66 235 L 57 240 Q 41 252 40 278 L 35 279 Q 30 283 28 290 L 28 308 L 30 312 L 36 317 L 50 324 L 85 336 L 136 348 L 154 350 L 155 351 L 162 351 L 163 352 L 174 352 L 175 353 Q 191 355 203 351 Q 208 358 217 361 L 239 366 L 255 365 L 266 359 Q 280 348 283 326 L 289 327 L 313 327 Q 314 325 319 326 L 407 301 L 417 310 L 436 315 Q 457 318 467 309 Q 475 302 480 291 L 483 283 L 485 272 L 484 250 Q 482 239 476 233 L 464 224 L 449 221 L 429 221 Q 420 223 415 229 Q 411 217 405 210 L 393 204 L 394 202 L 394 181 Q 392 171 387 166 L 377 158 L 360 154 L 331 154 Q 320 156 313 162 L 303 175 L 295 198 L 280 204 L 278 205 L 279 203 L 279 192 L 275 181 L 264 166 Q 255 156 243 150 L 229 146 L 221 146 Z " /><path fill="rgb(255,255,255)" stroke="rgb(255,255,255)" stroke-width="0" opacity="1" d="M 218.5 151 L 228.5 151 L 239.5 154 Q 252.8 160.2 262 170.5 L 273 188.5 L 274 201.5 L 268.5 211 Q 263.1 214.6 252.5 213 Q 240.8 210.2 233 203.5 L 237.5 199 L 239.5 199 L 251.5 205 L 260.5 205 Q 264.9 202.9 265 196.5 Q 261 179.5 248.5 171 L 235.5 163 Q 230.1 159.9 220.5 161 L 216 164.5 L 215 171.5 L 224 189.5 Q 222.3 193.8 220.5 191 L 214 186.5 Q 207.3 178.7 206 165.5 L 208 158.5 L 213.5 153 L 218.5 151 Z " /><path fill="rgb(255,255,255)" stroke="rgb(255,255,255)" stroke-width="0" opacity="1" d="M 342.5 158 L 366.5 160 L 375.5 163 L 379 166.5 L 381 174.5 L 381 180.5 L 380 181.5 L 379 193.5 L 373 213.5 Q 368.6 226.1 359.5 234 Q 340.5 241.5 327.5 255 L 295.5 248 L 290.5 248 L 265.5 243 L 258.5 243 L 259.5 245 L 327 258.5 L 322 269.5 L 322 280 L 269.5 270 L 241 263 Q 239.8 249.5 247.5 244 L 257.5 238 L 278.5 231 L 290 220.5 L 297 206.5 L 306 179.5 Q 309.8 169.8 317.5 164 L 330.5 159 L 341.5 159 L 342.5 158 Z " /><path fill="rgb(255,255,255)" stroke="rgb(255,255,255)" stroke-width="0" opacity="1" d="M 220 166 L 229.5 166 L 240.5 171 L 254 183.5 L 247.5 184 L 245 183 L 243.5 180 Q 239.7 175.3 229.5 177 L 220 170 L 220 166 Z " /><path fill="rgb(255,255,255)" stroke="rgb(255,255,255)" stroke-width="0" opacity="1" d="M 381.5 167 Q 387.5 171.5 389 180.5 L 389 203.5 L 388 204.5 L 387 216.5 L 385 221.5 L 385 226.5 L 379 250 L 347.5 258 Q 338.1 261.6 333 269.5 L 326.5 281 L 326 273.5 Q 328.9 257.9 339.5 250 L 358.5 240 L 368 231.5 L 373 223.5 L 379 207.5 L 383 190.5 L 383 171.5 L 381.5 167 Z " /><path fill="rgb(255,255,255)" stroke="rgb(255,255,255)" stroke-width="0" opacity="1" d="M 223.5 178 L 227 180 L 226.5 182 L 223.5 178 Z " /><path fill="rgb(255,255,255)" stroke="rgb(255,255,255)" stroke-width="0" opacity="1" d="M 233.5 181 Q 239.9 181.1 242 185.5 L 243 191.5 L 240 193.5 L 240 191.5 L 240 189.5 L 235.5 185 L 231.5 184 L 230 184.5 L 231.5 182 L 233.5 181 Z " /><path fill="rgb(255,255,255)" stroke="rgb(255,255,255)" stroke-width="0" opacity="1" d="M 231.5 188 L 235 189 L 236 193.5 L 230.5 200 L 226 195.5 L 226 193.5 L 231.5 188 Z " /><path fill="rgb(255,255,255)" stroke="rgb(255,255,255)" stroke-width="0" opacity="1" d="M 247.5 188 L 256.5 188 L 258 189.5 L 248.5 190 L 247.5 188 Z " /><path fill="rgb(255,255,255)" stroke="rgb(255,255,255)" stroke-width="0" opacity="1" d="M 187.5 189 Q 213.5 187.5 225 200.5 Q 229 204 228 212.5 L 227 215.5 L 214.5 228 Q 190.3 246.8 170 269.5 Q 153.1 286.4 143 309 L 134 307 L 138 296.5 L 152 276.5 Q 173.4 250.4 198.5 228 L 218 209.5 L 221 201.5 L 218.5 198 L 218 199.5 L 219 201.5 L 217 206.5 L 201.5 222 L 169 252.5 L 143 283.5 L 135 295.5 L 131 306 L 126.5 306 L 101 299 Q 100.1 291.4 103 286.5 L 115 261.5 Q 132.9 231.9 157.5 209 Q 170.1 196.6 187.5 189 Z " /><path fill="rgb(255,255,255)" stroke="rgb(255,255,255)" stroke-width="0" opacity="1" d="M 246 194 L 256.5 194 L 257.5 195 Q 258.8 192.8 260 195.5 L 260 200 L 251.5 200 L 245 196.5 L 246 194 Z " /><path fill="rgb(255,255,255)" stroke="rgb(255,255,255)" stroke-width="0" opacity="1" d="M 291.5 204 L 292 205.5 Q 288.5 216 281.5 223 Q 273.7 229.3 262.5 232 L 262 230.5 L 270.5 220 L 276 215.5 L 280.5 209 L 291.5 204 Z " /><path fill="rgb(255,255,255)" stroke="rgb(255,255,255)" stroke-width="0" opacity="1" d="M 233.5 209 L 248.5 217 L 263.5 218 Q 270.5 216 274.5 211 L 271.5 215 Q 264 218 260 224.5 Q 260.9 227.5 256.5 226 L 221.5 234 L 219 229 L 220.5 229 L 230 219.5 Q 233.4 215.9 233.5 209 Z " /><path fill="rgb(255,255,255)" stroke="rgb(255,255,255)" stroke-width="0" opacity="1" d="M 393.5 209 Q 400.3 211.3 404 216.5 L 411 233.5 L 406.5 239 L 400 222.5 L 395.5 218 L 392 215.5 Q 390.8 210.3 393.5 209 Z " /><path fill="rgb(255,255,255)" stroke="rgb(255,255,255)" stroke-width="0" opacity="1" d="M 390 221 L 395 223.5 L 398 229.5 L 396.5 229 Q 391.1 229.9 389 227.5 L 390 221 Z " /><path fill="rgb(255,255,255)" stroke="rgb(255,255,255)" stroke-width="0" opacity="1" d="M 428.5 226 L 448.5 226 L 454 227.5 Q 444.1 230.6 439 238.5 Q 425 254.5 427 286.5 L 430 297.5 L 437.5 308 L 440 309.5 L 437.5 310 L 419.5 306 L 412 299.5 Q 420.6 295.1 418 279.5 L 412.5 272 L 403 270 Q 403.8 241.5 421.5 229 L 428.5 226 Z " /><path fill="rgb(255,255,255)" stroke="rgb(255,255,255)" stroke-width="0" opacity="1" d="M 455.5 230 Q 468.8 228.8 473 236.5 L 477 243.5 L 480 254.5 L 480 273.5 Q 476.5 295 462.5 306 Q 457.2 310.2 447.5 310 Q 440.8 307.8 437 302.5 Q 429.9 292.1 430 274.5 L 431 273.5 L 432 261.5 L 435 252.5 Q 439.8 240.3 449.5 233 L 455.5 230 Z M 459 245 L 454 247 L 448 253 Q 444 259 442 269 Q 440 282 445 290 L 452 295 Q 459 296 462 293 L 470 282 L 473 269 Q 473 257 469 251 Q 466 246 459 245 Z " /><path fill="rgb(255,255,255)" stroke="rgb(255,255,255)" stroke-width="0" opacity="1" d="M 256.5 231 L 257 232.5 L 243.5 242 L 225 245 L 223 238 L 256.5 231 Z " /><path fill="rgb(255,255,255)" stroke="rgb(255,255,255)" stroke-width="0" opacity="1" d="M 388 233 L 400 235 L 402 242.5 L 400.5 242 L 395.5 242 L 387 240 L 388 233 Z " /><path fill="rgb(255,255,255)" stroke="rgb(255,255,255)" stroke-width="0" opacity="1" d="M 213.5 234 Q 216.8 232.9 216 235.5 L 230 267.5 Q 227.7 269.9 223 269 L 222 263.5 L 211 239.5 L 211 236.5 L 213.5 234 Z " /><path fill="rgb(255,255,255)" stroke="rgb(255,255,255)" stroke-width="0" opacity="1" d="M 74.5 238 L 85.5 239 L 94 241.5 Q 82.5 244.5 77 253.5 L 70 267.5 L 68 275.5 L 67 289 L 45 282 Q 44.5 254.7 60.5 243 L 65.5 240 L 74.5 238 Z " /><path fill="rgb(255,255,255)" stroke="rgb(255,255,255)" stroke-width="0" opacity="1" d="M 205.5 242 Q 209.3 240.8 208 244.5 L 210 249 L 195.5 252 L 202.5 244 L 205.5 242 Z " /><path fill="rgb(255,255,255)" stroke="rgb(255,255,255)" stroke-width="0" opacity="1" d="M 95.5 244 Q 104.6 244.4 108 250.5 L 111 256.5 L 111 260.5 L 106.5 267 L 101.5 259 L 93.5 258 L 87 262.5 Q 79.1 270.1 80 286.5 L 74.5 292 L 71 291 L 72 274.5 L 75 264.5 Q 79.5 253.5 88.5 247 L 95.5 244 Z " /><path fill="rgb(255,255,255)" stroke="rgb(255,255,255)" stroke-width="0" opacity="1" d="M 385.5 244 L 391 245 Q 392.3 248.3 387.5 247 L 384.5 248 L 385 246.5 L 385.5 244 Z " /><path fill="rgb(255,255,255)" stroke="rgb(255,255,255)" stroke-width="0" opacity="1" d="M 238.5 247 L 238 248.5 Q 235.1 253.4 236 261 L 232 261 L 232 259.5 L 228 250.5 L 229.5 249 L 238.5 247 Z " /><path fill="rgb(255,255,255)" stroke="rgb(255,255,255)" stroke-width="0" opacity="1" d="M 398.5 249 L 402 249.5 L 398.5 257 L 351.5 270 L 343 277.5 L 335.5 294 L 328.5 296 L 328 293.5 L 335 274.5 L 342.5 266 L 352.5 261 L 390.5 252 L 398.5 249 Z " /><path fill="rgb(255,255,255)" stroke="rgb(255,255,255)" stroke-width="0" opacity="1" d="M 457.5 250 Q 462.9 249.4 465 251 L 468 257.5 L 469 270.5 L 466 281.5 L 459.5 290 L 452.5 291 Q 446.9 287.1 446 278.5 L 449.5 281 L 453.5 282 L 459 278.5 Q 463.3 274.3 462 264.5 L 457.5 259 L 452.5 258 L 449.5 260 L 450 258.5 L 455.5 251 L 457.5 250 Z " /><path fill="rgb(255,255,255)" stroke="rgb(255,255,255)" stroke-width="0" opacity="1" d="M 211.5 253 L 219 270.5 L 213.5 275 L 209.5 275 L 181 267 L 188.5 258 L 211.5 253 Z " /><path fill="rgb(255,255,255)" stroke="rgb(255,255,255)" stroke-width="0" opacity="1" d="M 95.5 262 L 101 264.5 L 103 272 Q 100.9 270.4 95.5 271 L 86 279.5 L 84.5 282 L 84 280.5 L 86 272.5 L 91.5 264 L 95.5 262 Z " /><path fill="rgb(255,255,255)" stroke="rgb(255,255,255)" stroke-width="0" opacity="1" d="M 396.5 262 Q 399.3 261.4 398 267.5 L 396.5 267 L 386 265.5 L 396.5 262 Z " /><path fill="rgb(255,255,255)" stroke="rgb(255,255,255)" stroke-width="0" opacity="1" d="M 452.5 262 Q 457.3 261.3 458 264.5 L 459 269.5 L 457 275.5 L 454.5 278 Q 449.8 278.8 449 275.5 L 448 268.5 L 452.5 262 Z " /><path fill="rgb(255,255,255)" stroke="rgb(255,255,255)" stroke-width="0" opacity="1" d="M 234.5 266 L 243 268.5 L 240.5 269 L 235.5 268 L 234.5 266 Z " /><path fill="rgb(255,255,255)" stroke="rgb(255,255,255)" stroke-width="0" opacity="1" d="M 376.5 268 L 397 272 L 398 274.5 L 389.5 278 L 381.5 278 L 372 276 L 376.5 268 Z " /><path fill="rgb(255,255,255)" stroke="rgb(255,255,255)" stroke-width="0" opacity="1" d="M 176.5 270 L 208 279.5 Q 201.5 284.3 200 292 L 165 284 L 176.5 270 Z " /><path fill="rgb(255,255,255)" stroke="rgb(255,255,255)" stroke-width="0" opacity="1" d="M 367.5 270 L 366.5 272 L 350.5 277 L 351.5 275 L 367.5 270 Z " /><path fill="rgb(255,255,255)" stroke="rgb(255,255,255)" stroke-width="0" opacity="1" d="M 227.5 273 L 240.5 273 L 252 275.5 Q 238.3 279.8 231 290.5 L 223 305.5 L 220 316.5 L 219 331.5 Q 221.7 333.3 220 339.5 L 223 348.5 L 231 358.5 L 227.5 359 Q 215.2 356.8 208 349.5 L 211 347.5 Q 216.1 340.6 214 326.5 Q 212.8 320.8 208.5 318 Q 205 314.8 198 316 Q 199.6 290 216.5 278 L 227.5 273 Z " /><path fill="rgb(255,255,255)" stroke="rgb(255,255,255)" stroke-width="0" opacity="1" d="M 262.5 273 L 313.5 284 L 318.5 284 L 325 286 Q 326.4 290 319.5 288 L 310.5 285 L 297.5 283 L 294.5 281 L 284.5 281 Q 279.1 277.9 270.5 278 L 262.5 274 L 262.5 273 Z " /><path fill="rgb(255,255,255)" stroke="rgb(255,255,255)" stroke-width="0" opacity="1" d="M 402.5 274 Q 410 274.5 413 279.5 L 413 291.5 L 410.5 295 L 318.5 321 L 313.5 322 L 287.5 322 L 284 320.5 L 285 319.5 L 285 306 L 307.5 306 Q 308.8 303.8 313.5 305 L 402.5 279 L 406 276.5 L 402.5 275 L 402.5 274 Z " /><path fill="rgb(255,255,255)" stroke="rgb(255,255,255)" stroke-width="0" opacity="1" d="M 95.5 276 Q 102.5 274.5 102 277.5 L 100 282 L 96 282 L 96 283.5 L 85.5 295 L 81 294 L 82 290.5 L 95.5 276 Z " /><path fill="rgb(255,255,255)" stroke="rgb(255,255,255)" stroke-width="0" opacity="1" d="M 365.5 276 L 363.5 279 L 344.5 285 L 345 283.5 Q 344.4 280.8 350.5 282 L 360.5 279 L 365.5 276 Z " /><path fill="rgb(255,255,255)" stroke="rgb(255,255,255)" stroke-width="0" opacity="1" d="M 251.5 279 Q 259.8 277.8 264.5 280 L 274 288.5 L 279 300.5 L 280 320.5 L 278 330.5 L 273 342.5 L 261.5 356 Q 254.7 361.7 241.5 361 L 231 354.5 L 225 343.5 L 223 333.5 L 223 322.5 L 225 311.5 L 232 295.5 L 242.5 284 L 251.5 279 Z M 254 294 L 247 298 Q 239 305 236 318 L 236 334 L 239 341 Q 242 345 249 347 L 259 344 Q 269 337 271 323 Q 273 307 267 300 L 260 294 L 254 294 Z " /><path fill="rgb(255,255,255)" stroke="rgb(255,255,255)" stroke-width="0" opacity="1" d="M 368.5 280 L 377 281.5 L 360.5 286 L 360.5 285 L 368.5 280 Z " /><path fill="rgb(255,255,255)" stroke="rgb(255,255,255)" stroke-width="0" opacity="1" d="M 39.5 282 L 42.5 286 L 84.5 300 L 126.5 311 L 169.5 319 L 204.5 321 L 208 324.5 L 209 326.5 L 209 340.5 L 205.5 346 L 196.5 348 L 172.5 348 L 171.5 347 L 161.5 347 L 160.5 346 L 140.5 344 L 95.5 334 L 52.5 320 L 35 311 L 33 306.5 L 33 289.5 L 37.5 283 L 39.5 282 Z " /><path fill="rgb(255,255,255)" stroke="rgb(255,255,255)" stroke-width="0" opacity="1" d="M 288.5 286 L 294.5 286 L 309 289.5 L 305.5 291 L 282.5 294 L 279 288.5 L 288.5 286 Z " /><path fill="rgb(255,255,255)" stroke="rgb(255,255,255)" stroke-width="0" opacity="1" d="M 352.5 287 L 356 287.5 L 342.5 292 L 342 290.5 L 343.5 289 Q 349.6 289.6 352.5 287 Z " /><path fill="rgb(255,255,255)" stroke="rgb(255,255,255)" stroke-width="0" opacity="1" d="M 161.5 288 L 165.5 288 L 198 296.5 L 195.5 299 L 187.5 300 L 158 292.5 L 161.5 288 Z " /><path fill="rgb(255,255,255)" stroke="rgb(255,255,255)" stroke-width="0" opacity="1" d="M 96.5 289 L 97 291.5 L 96 297 Q 92.2 298 91 295.5 L 96.5 289 Z " /><path fill="rgb(255,255,255)" stroke="rgb(255,255,255)" stroke-width="0" opacity="1" d="M 315.5 293 L 323 293 L 323 297 L 303.5 302 L 284 302 L 283 299.5 L 315.5 293 Z " /><path fill="rgb(255,255,255)" stroke="rgb(255,255,255)" stroke-width="0" opacity="1" d="M 155.5 297 L 178 302.5 L 148.5 309 L 149 307.5 L 155.5 297 Z " /><path fill="rgb(255,255,255)" stroke="rgb(255,255,255)" stroke-width="0" opacity="1" d="M 255.5 298 Q 262.8 298.3 265 303.5 Q 268.6 310.4 267 322.5 Q 264.8 333.8 257.5 340 Q 254.9 343.4 247.5 342 L 243 338.5 L 240 331.5 L 240 327.5 L 241 327.5 L 242.5 330 Q 244.5 333 250.5 332 L 257 326.5 Q 260.3 322.8 259 314.5 L 254.5 308 L 248.5 307 L 243.5 310 L 245 307.5 L 250.5 300 L 255.5 298 Z " /><path fill="rgb(255,255,255)" stroke="rgb(255,255,255)" stroke-width="0" opacity="1" d="M 194.5 303 L 195 305.5 L 194 310 L 176.5 314 L 169.5 314 L 158 311.5 L 185.5 306 L 194.5 303 Z " /><path fill="rgb(255,255,255)" stroke="rgb(255,255,255)" stroke-width="0" opacity="1" d="M 248.5 311 L 254 312 L 256 318.5 Q 255.1 325.1 250.5 328 Q 244 329 243 324.5 Q 241.6 315.1 246.5 312 L 248.5 311 Z " /><path fill="rgb(0,0,0)" stroke="rgb(0,0,0)" stroke-width="0" opacity="1" d="M 220.5 146 L 228.5 146 L 242.5 150 Q 255.1 155.9 264 165.5 L 275 180.5 L 279 191.5 L 279 202.5 L 278 204.5 L 279.5 204 L 295 197.5 L 303 174.5 L 312.5 162 Q 319.5 156 330.5 154 L 359.5 154 L 376.5 158 L 387 165.5 Q 392.3 171.2 394 180.5 L 394 201.5 L 393 203.5 L 405 210 Q 411.2 217.4 414.5 229 Q 419.5 223 428.5 221 L 448.5 221 L 463.5 224 L 476 232.5 Q 481.7 239.3 484 249.5 L 485 271.5 L 483 282.5 L 480 290.5 Q 475.4 301.9 466.5 309 Q 456.8 317.8 435.5 315 L 416.5 310 L 406.5 301 L 318.5 326 Q 313.7 324.7 312.5 327 L 288.5 327 L 283 326 Q 280.1 347.9 265.5 359 L 254.5 365 L 238.5 366 L 216.5 361 Q 207.8 357.7 202.5 351 Q 191.5 355 174.5 353 L 173.5 352 L 162.5 352 L 161.5 351 L 154.5 351 L 153.5 350 L 135.5 348 L 84.5 336 L 49.5 324 L 35.5 317 L 30 311.5 L 28 307.5 L 28 289.5 Q 29.6 282.6 34.5 279 L 40 278 Q 41.2 252.5 56.5 240 L 65.5 235 L 77.5 233 L 97.5 237 Q 105.9 240.1 111 246.5 L 114.5 253 Q 133.6 223.6 159.5 201 L 181.5 186 Q 189.1 182.6 201.5 184 L 207.5 186 L 207 184.5 L 202 172.5 L 202 160.5 Q 204.3 153.8 209.5 150 L 220.5 146 Z M 219 151 L 214 153 L 208 159 L 206 166 Q 207 179 214 187 L 221 191 Q 222 194 224 190 L 215 172 L 216 165 L 221 161 Q 230 160 236 163 L 249 171 Q 261 180 265 197 Q 265 203 261 205 L 252 205 L 240 199 L 238 199 L 233 204 Q 241 210 253 213 Q 263 215 269 211 L 274 202 L 273 189 L 262 171 Q 253 160 240 154 L 229 151 L 219 151 Z M 343 158 L 342 159 L 331 159 L 318 164 Q 310 170 306 180 L 297 207 L 290 221 L 279 231 L 258 238 L 248 244 Q 240 250 241 263 L 270 270 L 322 280 L 322 270 L 327 259 L 260 245 L 259 243 L 266 243 L 291 248 L 296 248 L 328 255 Q 340 241 360 234 Q 369 226 373 214 L 379 194 L 380 182 L 381 181 L 381 175 L 379 167 L 376 163 L 367 160 L 343 158 Z M 220 166 L 220 170 L 230 177 Q 240 175 244 180 L 245 183 L 248 184 L 254 184 L 241 171 L 230 166 L 220 166 Z M 383 168 L 383 172 L 383 191 L 379 208 L 373 224 L 368 232 L 359 240 L 340 250 Q 329 258 326 274 L 327 281 L 333 270 Q 338 262 348 258 L 379 250 L 385 227 L 385 222 L 387 217 L 388 205 L 389 204 L 389 181 Q 388 172 383 168 Z M 226 180 L 227 182 Q 228 179 226 180 Z M 234 181 L 232 182 L 230 185 L 232 184 L 236 185 L 240 190 L 240 192 Q 242 195 243 192 L 242 186 Q 240 181 234 181 Z M 232 188 L 226 194 L 226 196 L 231 200 L 236 194 L 235 189 L 232 188 Z M 248 188 L 249 190 L 258 190 L 257 188 L 248 188 Z M 188 189 Q 170 197 158 209 Q 133 232 115 262 L 103 287 Q 100 291 101 299 L 127 306 L 131 306 L 135 296 L 143 284 L 169 253 L 202 222 L 217 207 L 219 202 L 218 200 L 219 198 L 221 202 L 218 210 L 199 228 Q 173 250 152 277 L 138 297 L 134 307 L 143 309 Q 153 286 170 270 Q 190 247 215 228 L 227 216 L 228 213 Q 229 204 225 201 Q 214 187 188 189 Z M 246 194 L 245 197 L 252 200 L 260 200 L 260 196 Q 259 193 258 195 L 257 194 L 246 194 Z M 292 204 L 281 209 L 276 216 L 271 220 L 262 231 L 263 232 Q 274 229 282 223 Q 289 216 292 206 L 292 204 Z M 234 209 Q 233 216 230 220 L 221 229 L 219 229 L 222 234 L 257 226 Q 261 227 260 225 L 267 217 L 264 218 L 249 217 L 234 209 Z M 394 209 Q 391 210 392 216 L 396 218 L 400 223 L 407 239 L 411 234 L 404 217 Q 400 211 394 209 Z M 390 221 L 389 228 Q 392 230 397 229 L 395 224 L 390 221 Z M 429 226 L 422 229 Q 404 242 403 270 L 413 272 L 418 280 Q 421 295 412 300 L 420 306 L 438 310 L 440 310 L 438 308 L 430 298 L 427 287 Q 425 255 439 239 Q 444 231 454 228 L 449 226 L 429 226 Z M 456 230 L 450 233 Q 440 240 435 253 L 432 262 L 431 274 L 430 275 Q 430 292 437 303 Q 441 308 448 310 Q 457 310 463 306 Q 476 295 480 274 L 480 255 L 477 244 L 473 237 Q 469 229 456 230 Z M 257 231 L 223 238 L 225 245 L 244 242 L 257 233 L 257 231 Z M 388 233 L 387 240 L 396 242 L 401 242 L 402 243 L 400 235 L 388 233 Z M 214 234 L 211 237 L 211 240 L 222 264 L 223 269 Q 228 270 230 268 L 216 236 Q 217 233 214 234 Z M 75 238 L 66 240 L 61 243 Q 44 255 45 282 L 67 289 L 68 276 L 70 268 L 77 254 Q 82 244 94 242 L 86 239 L 75 238 Z M 206 242 L 203 244 L 196 252 L 210 249 L 208 245 Q 209 241 206 242 Z M 96 244 L 89 247 Q 80 254 75 265 L 72 275 L 71 291 L 75 292 L 80 287 Q 79 270 87 263 L 94 258 L 102 259 L 107 267 L 111 261 L 111 257 L 108 251 Q 105 244 96 244 Z M 386 244 L 385 247 L 385 248 L 388 247 Q 392 248 391 245 L 386 244 Z M 234 248 L 228 251 L 232 260 L 232 261 L 236 261 Q 235 254 238 250 Q 239 246 234 248 Z M 399 249 L 391 252 L 353 261 L 343 266 L 335 275 L 328 294 L 329 296 L 336 294 L 343 278 L 352 270 L 399 257 L 402 250 L 399 249 Z M 212 253 L 189 258 L 181 267 L 210 275 L 214 275 L 219 271 L 212 253 Z M 96 262 L 92 264 L 86 273 L 84 281 L 85 282 L 86 280 L 96 271 Q 101 270 103 272 L 101 265 L 96 262 Z M 397 262 L 386 266 L 397 267 L 398 268 Q 399 261 397 262 Z M 235 266 L 236 268 L 240 268 L 235 266 Z M 241 268 L 241 269 L 243 269 L 241 268 Z M 377 268 L 372 276 L 382 278 L 390 278 L 398 275 L 397 272 L 377 268 Z M 177 270 L 165 284 L 200 292 Q 202 284 208 280 L 177 270 Z M 365 271 L 365 272 L 367 272 L 365 271 Z M 361 272 L 352 275 L 351 277 Q 359 276 364 273 L 361 272 Z M 228 273 L 217 278 Q 200 290 198 316 Q 205 315 209 318 Q 213 321 214 327 Q 216 341 211 348 L 208 350 Q 215 357 228 359 L 231 359 L 223 349 L 220 340 Q 222 333 219 332 L 220 317 L 223 306 L 231 291 Q 238 280 252 276 L 241 273 L 228 273 Z M 263 273 L 263 274 L 271 278 Q 279 278 285 281 L 295 281 L 298 283 L 311 285 L 320 288 Q 326 290 325 286 L 319 284 L 314 284 L 263 273 Z M 403 274 L 403 275 L 405 275 L 403 274 Z M 406 275 L 406 277 L 403 279 L 314 305 Q 309 304 308 306 L 285 306 L 285 320 L 284 321 L 288 322 L 314 322 L 319 321 L 411 295 L 413 292 L 413 280 Q 411 275 406 275 Z M 96 276 L 82 291 L 81 294 L 86 295 L 96 284 L 96 282 L 100 282 L 102 278 Q 103 275 96 276 Z M 364 277 L 351 282 Q 344 280 345 284 L 357 282 L 365 278 L 364 277 Z M 252 279 L 243 284 L 232 296 L 225 312 L 223 323 L 223 334 L 225 344 L 231 355 L 242 361 Q 255 362 262 356 L 273 343 L 278 331 L 280 321 L 279 301 L 274 289 L 265 280 Q 260 278 252 279 Z M 369 280 L 361 285 L 361 286 L 377 282 L 369 280 Z M 40 282 L 38 283 L 33 290 L 33 307 L 35 311 L 53 320 L 96 334 L 141 344 L 161 346 L 162 347 L 172 347 L 173 348 L 197 348 L 206 346 L 209 341 L 209 327 L 208 325 L 205 321 L 170 319 L 127 311 L 85 300 L 43 286 L 40 282 Z M 289 286 L 279 289 L 283 294 L 306 291 L 309 290 L 295 286 L 289 286 Z M 353 287 Q 350 290 344 289 L 342 291 L 343 292 L 356 288 L 353 287 Z M 162 288 L 158 293 L 188 300 L 196 299 L 198 297 L 166 288 L 162 288 Z M 97 289 L 91 296 Q 92 298 96 297 L 97 292 L 97 289 Z M 316 293 L 283 300 L 284 302 L 304 302 L 323 297 L 323 293 L 316 293 Z M 156 297 Q 150 301 149 308 L 178 303 L 156 297 Z M 195 303 L 186 306 L 158 312 L 170 314 L 177 314 L 194 310 L 195 306 L 195 303 Z " /><path fill="rgb(0,0,0)" stroke="rgb(0,0,0)" stroke-width="0" opacity="1" d="M 458.5 245 Q 466 245.5 469 250.5 Q 473.4 257.1 473 268.5 L 470 281.5 L 461.5 293 Q 458.5 296 451.5 295 L 445 289.5 Q 440.2 282.3 442 268.5 Q 443.5 259 448 252.5 L 453.5 247 L 458.5 245 Z M 458 250 L 456 251 L 450 259 L 453 258 L 458 259 L 462 265 Q 463 274 459 279 L 454 282 L 450 281 L 446 279 Q 447 287 453 291 L 460 290 L 466 282 L 469 271 L 468 258 L 465 251 Q 463 249 458 250 Z M 453 262 L 448 269 L 449 276 Q 450 279 455 278 L 457 276 L 459 270 L 458 265 Q 457 261 453 262 Z " /><path fill="rgb(0,0,0)" stroke="rgb(0,0,0)" stroke-width="0" opacity="1" d="M 253.5 294 L 259.5 294 L 267 299.5 Q 272.9 307.1 271 322.5 Q 268.5 337 258.5 344 L 248.5 347 Q 242 345.5 239 340.5 L 236 333.5 L 236 317.5 Q 238.5 305 246.5 298 L 253.5 294 Z M 256 298 L 251 300 L 245 308 L 245 309 L 249 307 L 255 308 L 259 315 Q 260 323 257 327 L 251 332 Q 245 333 243 330 L 241 328 L 240 328 L 240 332 L 243 339 L 248 342 Q 255 343 258 340 Q 265 334 267 323 Q 269 310 265 304 Q 263 298 256 298 Z M 249 311 L 247 312 Q 242 315 243 325 Q 244 329 251 328 Q 255 325 256 319 L 254 312 L 249 311 Z " /></svg>