<svg width="1254" height="1254" preserveAspectRatio="xMidYMid meet" viewBox="0 0 512 512" version="1.1" xmlns="http://www.w3.org/2000/svg" ><path fill="rgb(255,255,255)" stroke="rgb(255,255,255)" stroke-width="0.6" opacity="1" d="M 0 0 L 512 0 L 512 512 L 0 512 L 0 0 Z M 96 52 Q 80 55 71 64 L 57 78 L 35 107 L 27 120 L 24 130 L 25 146 L 42 171 L 44 186 L 49 197 L 58 205 L 77 214 Q 83 219 86 229 Q 91 235 100 238 L 112 237 L 114 238 Q 107 245 96 248 L 92 255 L 99 260 Q 113 262 121 258 Q 121 268 115 274 Q 110 282 100 284 L 91 281 L 82 270 L 79 252 L 74 241 L 71 238 L 61 228 L 54 222 Q 45 222 42 227 L 33 240 L 33 248 Q 36 254 45 254 L 51 263 Q 49 281 53 293 L 62 307 Q 74 321 96 325 L 121 325 L 133 322 Q 147 316 158 306 Q 172 292 182 272 Q 187 271 188 274 L 188 299 Q 183 311 185 331 L 181 348 L 181 356 L 174 381 L 174 396 L 159 426 L 160 436 L 171 444 L 183 447 L 214 446 L 230 439 L 235 432 L 235 411 L 234 410 L 234 399 Q 238 395 236 387 L 245 358 L 248 355 L 250 357 L 250 379 L 248 385 L 248 403 L 249 404 L 248 415 L 239 429 L 236 440 L 238 449 L 248 456 L 260 459 L 293 459 L 305 456 L 312 452 L 317 447 L 322 433 L 333 436 L 353 436 L 370 430 L 377 422 L 377 402 L 375 398 L 374 387 L 375 371 L 378 369 L 386 397 L 386 407 L 377 427 L 377 439 L 388 448 L 401 451 Q 428 453 444 443 L 452 431 L 452 412 L 447 395 L 443 372 L 443 352 L 454 321 L 458 300 L 460 298 L 461 304 L 461 331 Q 454 335 453 345 Q 452 355 456 361 L 459 362 L 467 372 Q 465 378 469 380 L 475 379 L 480 374 L 483 363 L 488 355 Q 489 343 485 338 L 472 328 L 472 307 L 473 306 L 471 282 L 466 266 L 438 220 Q 426 206 410 197 L 417 185 L 425 178 Q 438 169 443 152 Q 445 134 440 124 Q 429 106 414 94 L 402 76 L 385 60 L 370 54 L 358 53 L 343 53 L 321 59 Q 302 68 288 81 L 262 66 L 245 61 L 233 60 Q 192 58 172 76 L 163 74 Q 149 62 131 55 L 119 52 L 96 52 Z " /><path fill="rgb(255,255,255)" stroke="rgb(255,255,255)" stroke-width="0.6" opacity="1" d="M 144.5 156 Q 152.4 155.1 154 160.5 Q 155.5 164.9 152.5 164 L 146.5 163 L 139 169.5 L 137 180.5 L 140 185.5 Q 138 189 136 184.5 L 133 172.5 Q 134.6 161.6 142.5 157 L 144.5 156 Z " /><path fill="rgb(255,255,255)" stroke="rgb(255,255,255)" stroke-width="0.6" opacity="1" d="M 230.5 161 L 235.5 161 L 244 168.5 L 245 172.5 L 241.5 170 L 230.5 169 L 222 176.5 L 221 187.5 L 225 195 Q 220.3 195.8 219 191.5 L 216 179.5 Q 217.8 169.3 224.5 164 L 230.5 161 Z " /><path fill="rgb(255,255,255)" stroke="rgb(255,255,255)" stroke-width="0.6" opacity="1" d="M 408.5 203 Q 422.8 209.2 432 220.5 Q 444.4 235.1 451 255.5 L 454 269.5 L 454 294.5 L 450 317.5 L 439 347.5 L 438 365.5 L 440 385.5 L 448 414.5 L 448 428.5 L 440.5 439 L 430.5 444 L 426.5 444 L 425 442.5 L 424 434.5 L 420.5 430 L 410.5 429 L 404.5 434 L 399.5 427 L 393.5 426 L 388.5 429 L 385.5 425 L 383 423.5 Q 388.6 419.1 390 410.5 L 391 398.5 L 387 380.5 L 377 349.5 Q 397.4 330.9 402 296.5 Q 400.5 293.5 399 296.5 Q 391.6 330.6 369.5 350 L 349.5 358 L 322.5 359 L 321 356.5 L 330 330.5 L 331 304.5 Q 329.5 301.5 328 304.5 L 328 317.5 L 326 328.5 Q 316.5 347.5 312 371.5 L 311 407.5 L 312 419.5 L 315 425.5 L 315 438.5 L 307.5 449 L 296.5 453 L 292 441.5 L 288.5 438 L 280.5 438 L 273 443 L 269.5 437 L 258.5 436 L 254.5 439 L 249.5 432 L 244 431.5 L 252 417.5 L 253 405.5 L 252 404.5 L 252 387.5 L 254 380.5 L 254 355.5 L 253 354.5 L 253 341.5 L 248 320.5 L 248 303 L 245 304.5 L 246 334.5 L 249 347.5 L 246.5 349 Q 222.9 340.6 208 323.5 L 195 301.5 L 192 290.5 L 192 274.5 Q 192.5 269 196.5 267 Q 208.3 267.3 213.5 261 L 231.5 261 L 259.5 254 Q 276.9 247.4 288 234.5 L 294 223 L 296 224.5 Q 300 241.5 311.5 251 Q 318 258.5 333.5 257 L 348.5 250 L 363.5 236 L 387.5 228 L 402 215.5 L 408.5 203 Z M 393 384 L 391 386 L 394 388 L 406 388 Q 409 387 406 385 L 404 386 Q 395 388 393 384 Z M 260 386 L 259 387 L 257 389 Q 265 387 269 391 L 272 390 Q 269 385 260 386 Z M 393 393 L 393 395 L 397 397 Q 404 399 404 396 L 403 394 L 393 393 Z M 257 395 L 255 397 L 264 402 L 273 401 L 274 399 Q 262 401 257 395 Z M 257 404 L 255 406 L 264 411 Q 269 412 271 410 L 270 408 L 261 407 L 257 404 Z " /><path fill="rgb(255,255,255)" stroke="rgb(255,255,255)" stroke-width="0.6" opacity="1" d="M 370.5 354 Q 374.3 352.8 373 356.5 Q 367.4 365.9 370 383.5 L 371 384.5 L 371 400.5 L 373 405.5 L 373 418.5 L 365.5 427 Q 360.9 430.4 352.5 430 L 350 422.5 L 345.5 417 L 338.5 417 L 333.5 420 L 328.5 414 Q 321 412.5 319.5 417 L 319 414.5 L 329 395.5 L 329 370.5 L 328 364.5 L 329.5 363 L 353.5 362 L 370.5 354 Z M 334 383 L 332 385 L 337 388 Q 344 390 343 386 Q 336 387 334 383 Z M 334 392 L 332 394 L 340 398 L 343 397 L 334 392 Z " /><path fill="rgb(255,255,255)" stroke="rgb(255,255,255)" stroke-width="0.6" opacity="1" d="M 323.5 417 Q 328.3 416.3 329 419.5 Q 331 427 327.5 429 Q 320.6 429.9 319 425.5 Q 319.1 419.1 323.5 417 Z " /><path fill="rgb(105,157,190)" stroke="rgb(105,157,190)" stroke-width="0.6" opacity="1" d="M 339.5 59 L 366.5 59 L 375.5 61 L 395 75.5 Q 411.3 103.2 434 124.5 L 438 134.5 L 438 150.5 L 431 164.5 L 412 183.5 L 400 209.5 L 395.5 215 L 392 217.5 L 388.5 222 L 381.5 226 L 361.5 232 L 338.5 251 L 326.5 253 Q 316.2 251.8 311 245.5 L 306 238.5 L 300 223.5 L 300 190.5 L 298.5 189 L 297 189.5 L 297 198.5 Q 294.1 224.1 278.5 237 L 267.5 245 L 247.5 253 L 220.5 257 L 218 256 Q 219.1 252.7 215 254 L 213.5 256 L 207 260 L 216 241.5 L 216 236.5 L 224.5 221 L 228.5 223 L 230 220.5 L 227.5 217 L 218.5 215 L 215 217 L 216.5 219 L 219 220 L 219 224.5 L 213.5 233 Q 208.4 236.4 198.5 235 L 191 241.5 L 188 248.5 L 173 263.5 L 172 267.5 Q 175.6 268.9 175 274.5 Q 164.6 294.1 148.5 308 Q 138.7 316.7 123.5 320 L 97.5 321 L 85.5 318 L 71 308.5 Q 70.2 305.9 73.5 307 L 75 304.5 L 72.5 304 L 67.5 304 L 61 297.5 L 60 294.5 L 65 291.5 L 63.5 290 L 61.5 291 L 57 287.5 L 56 276.5 L 61 273.5 L 55 272 Q 53 261.1 57 257 L 50 253.5 L 54 247.5 L 51.5 247 Q 48.2 250.2 40.5 249 Q 36.5 247.5 38 240.5 L 39 238 Q 42.7 236.7 41 242.5 L 44.5 244 L 49 240.5 Q 51.8 238.8 51 233.5 L 47 231 Q 45.5 227.2 48.5 228 L 54.5 227 L 69 242.5 L 75 254.5 L 78 272.5 L 86.5 284 L 98 290.5 L 100 292 Q 97.8 286 104.5 288 L 113 295 L 108 285.5 Q 109.3 282.8 114.5 284 L 126 292 L 126 289.5 L 120.5 284 Q 115.8 284.8 115 281.5 L 127 260.5 L 132 231.5 L 136 218.5 L 147 200 L 155.5 198 L 156.5 199 L 171.5 199 L 182 205 L 179.5 200 Q 172.2 193.8 157.5 195 L 151 197 L 159 181.5 L 160 167.5 L 157 157.5 L 154.5 155 Q 151.7 151.3 144.5 152 L 135 159.5 Q 128.8 165.8 131 180.5 L 133 185.5 L 132 188 L 147 192.5 L 136 208.5 L 129.5 224 L 123.5 228 L 113 214.5 L 112 201.5 L 113 199.5 L 113 197.5 L 123 179.5 Q 121.5 173 125 171.5 L 125 150.5 L 130 129.5 Q 138 110.5 151.5 97 L 154 95.5 L 155.5 93 Q 171.5 77.5 194.5 69 L 208.5 66 L 242.5 66 L 253.5 70 L 261.5 71 L 282 84 L 283 86.5 L 278 91.5 L 279.5 93 L 282 94.5 L 282.5 96 L 299.5 77 Q 315.3 63.8 339.5 59 Z M 361 80 L 338 87 L 326 95 L 324 98 L 318 103 L 305 122 L 299 141 L 300 143 L 298 155 L 298 168 L 300 168 L 303 143 Q 312 129 333 127 L 335 127 L 338 126 L 350 127 L 357 130 Q 360 131 359 129 L 347 123 L 331 123 Q 329 126 324 125 L 305 135 Q 310 117 322 105 Q 334 91 355 85 L 376 85 L 386 89 Q 389 90 388 88 Q 381 81 369 80 L 366 81 L 361 80 Z M 196 82 L 184 86 L 182 89 L 187 87 L 206 87 L 209 89 L 212 88 Q 206 83 196 82 Z M 189 91 L 181 94 L 179 97 L 183 97 L 189 94 Q 201 92 206 97 L 208 96 Q 202 89 189 91 Z M 148 122 L 144 124 L 137 135 Q 141 136 140 134 L 151 128 L 155 129 L 156 126 Q 154 122 148 122 Z M 234 128 L 230 132 L 232 133 L 241 134 L 249 143 L 251 142 L 248 132 Q 244 127 234 128 Z M 313 153 L 310 154 L 308 157 L 311 156 L 313 157 L 315 156 L 328 157 L 342 164 L 344 163 L 333 155 L 322 153 L 320 154 L 313 153 Z M 231 157 L 222 161 L 216 168 L 213 181 L 216 193 L 225 198 L 247 196 L 245 193 L 250 183 L 249 181 L 250 175 L 249 170 L 244 162 Q 241 156 231 157 Z M 168 184 L 164 185 L 162 188 L 164 187 L 181 189 L 189 195 Q 191 196 190 193 L 184 187 L 168 184 Z M 149 212 L 143 214 Q 140 216 143 217 L 153 214 Q 168 215 176 224 L 176 222 L 164 213 L 149 212 Z M 139 230 L 137 232 L 140 232 Q 156 231 163 239 L 164 237 Q 157 227 139 230 Z M 139 246 L 133 249 L 136 249 L 140 250 L 142 249 L 153 253 Q 155 258 157 255 Q 152 246 139 246 Z M 132 262 L 131 263 Q 127 262 128 265 L 143 267 L 148 272 L 149 270 Q 143 263 132 262 Z M 122 275 L 122 277 Q 129 276 133 280 L 135 285 L 138 286 L 139 284 Q 135 275 122 275 Z " /><path fill="rgb(105,157,190)" stroke="rgb(105,157,190)" stroke-width="0.6" opacity="1" d="M 234 174 Q 238.7 173 240 176.5 L 238.5 181 L 233 178.5 L 234 174 Z " /><path fill="rgb(105,157,190)" stroke="rgb(105,157,190)" stroke-width="0.6" opacity="1" d="M 201.5 238 L 212 239 Q 208.5 252.2 199.5 261 L 187.5 268 L 178.5 268 L 177 264.5 L 184 258.5 L 185.5 256 L 190 252.5 L 199.5 239 L 201.5 238 Z " /><path fill="rgb(105,157,190)" stroke="rgb(105,157,190)" stroke-width="0.6" opacity="1" d="M 191.5 304 L 200 319.5 L 212.5 334 L 242 353.5 L 232 382.5 L 230 411.5 L 232 421.5 Q 231.4 432.4 224.5 437 L 216.5 441 L 210 441 Q 210 433.3 205.5 429 L 195.5 428 L 191 431.5 L 190.5 433 Q 190.6 427.4 186.5 426 L 177.5 425 L 173 427 L 170.5 422 L 167 421 L 171 410.5 L 178 399.5 L 177 396.5 L 178 384.5 L 183 369.5 L 189 337.5 L 188 334.5 L 190 320.5 L 189 318.5 L 190 305.5 L 191.5 304 Z M 186 373 L 186 375 Q 193 374 197 378 Q 200 379 199 377 Q 196 371 186 373 Z M 184 383 L 188 388 L 199 388 L 199 386 Q 189 387 184 383 Z M 183 390 L 181 392 L 183 395 L 192 397 L 194 397 Q 197 398 196 395 Q 187 395 183 390 Z " /><path fill="rgb(105,157,190)" stroke="rgb(105,157,190)" stroke-width="0.6" opacity="1" d="M 320.5 363 L 324 364.5 L 326 384.5 L 324 396.5 L 316.5 408 L 316 386.5 L 317 384.5 L 316 382.5 L 317 371.5 L 320.5 363 Z " /><path fill="rgb(105,157,190)" stroke="rgb(105,157,190)" stroke-width="0.6" opacity="1" d="M 178.5 427 L 185 429.5 L 188 440.5 Q 186.8 443.3 181.5 442 L 173 438.5 Q 172.6 429.6 178.5 427 Z " /><path fill="rgb(105,157,190)" stroke="rgb(105,157,190)" stroke-width="0.6" opacity="1" d="M 198.5 430 L 205 432.5 L 206 442 L 191.5 442 L 191 437.5 L 194.5 432 L 198.5 430 Z " /><path fill="rgb(105,157,190)" stroke="rgb(105,157,190)" stroke-width="0.6" opacity="1" d="M 411.5 431 Q 418.4 430.1 420 434.5 L 422 443.5 L 420.5 445 L 405 445 L 404 440.5 L 411.5 431 Z " /><path fill="rgb(105,157,190)" stroke="rgb(105,157,190)" stroke-width="0.6" opacity="1" d="M 247.5 435 Q 252.3 438.3 252 446.5 L 251 451 L 243 447.5 L 242 442.5 L 247.5 435 Z " /><path fill="rgb(105,157,190)" stroke="rgb(105,157,190)" stroke-width="0.6" opacity="1" d="M 281.5 440 L 290 444.5 L 291 452.5 L 289.5 454 L 274 454 Q 273.5 443.3 281.5 440 Z " /><path fill="rgb(100,151,105)" stroke="rgb(100,151,105)" stroke-width="0.6" opacity="1" d="M 103.5 56 L 120.5 57 L 132.5 61 Q 150.4 68.6 164 80.5 L 162.5 83 L 148 94.5 L 135.5 112 L 127 96.5 L 113.5 82 Q 104.8 75.2 88.5 76 L 78 80 L 79.5 82 Q 85.3 77.4 97.5 79 Q 111.2 82.8 119 92.5 Q 129.3 102.2 131 120.5 Q 124.7 129.2 122 141.5 L 120 154.5 L 119 178.5 L 108 197.5 L 108 212.5 L 116 228.5 Q 113.3 235.3 102.5 234 Q 93.6 231.9 89 225.5 Q 87.5 215.5 80.5 211 Q 62.6 205.4 52 192.5 L 49 185.5 L 47 169.5 L 30 144.5 L 29 129.5 L 39 109.5 L 59 83.5 L 75.5 67 L 89.5 59 L 103.5 56 Z M 101 113 L 85 117 L 84 119 L 94 116 Q 113 114 123 121 L 124 119 Q 116 113 101 113 Z M 115 145 Q 102 149 95 159 L 96 160 L 109 150 L 117 147 Q 118 144 115 145 Z " /><path fill="rgb(100,151,105)" stroke="rgb(100,151,105)" stroke-width="0.6" opacity="1" d="M 344.5 58 L 365 58.5 L 344.5 59 L 344.5 58 Z " /><path fill="rgb(100,151,105)" stroke="rgb(100,151,105)" stroke-width="0.6" opacity="1" d="M 210.5 65 L 240 65.5 L 210.5 66 L 210.5 65 Z " /><path fill="rgb(100,151,105)" stroke="rgb(100,151,105)" stroke-width="0.6" opacity="1" d="M 359.5 84 L 375 84.5 L 359.5 85 L 359.5 84 Z " /><path fill="rgb(100,151,105)" stroke="rgb(100,151,105)" stroke-width="0.6" opacity="1" d="M 191.5 86 L 205 86.5 L 191.5 87 L 191.5 86 Z " /><path fill="rgb(100,151,105)" stroke="rgb(100,151,105)" stroke-width="0.6" opacity="1" d="M 330.5 123 L 347 123.5 L 330.5 124 L 330.5 123 Z " /><path fill="rgb(100,151,105)" stroke="rgb(100,151,105)" stroke-width="0.6" opacity="1" d="M 438.5 136 L 439 147.5 L 438 147.5 L 438.5 136 Z " /><path fill="rgb(100,151,105)" stroke="rgb(100,151,105)" stroke-width="0.6" opacity="1" d="M 124.5 152 L 125 170.5 L 124 170.5 L 124.5 152 Z " /><path fill="rgb(100,151,105)" stroke="rgb(100,151,105)" stroke-width="0.6" opacity="1" d="M 299.5 190 L 300 218.5 L 299 218.5 L 299.5 190 Z " /><path fill="rgb(100,151,105)" stroke="rgb(100,151,105)" stroke-width="0.6" opacity="1" d="M 156.5 198 L 169 198.5 L 156.5 199 L 156.5 198 Z " /><path fill="rgb(100,151,105)" stroke="rgb(100,151,105)" stroke-width="0.6" opacity="1" d="M 127.5 230 Q 130.1 229.2 129 232.5 Q 125.2 239.2 125 249.5 L 121.5 253 L 109.5 257 L 101.5 257 L 98 254.5 L 100.5 251 Q 117.6 244.1 127.5 230 Z " /><path fill="rgb(100,151,105)" stroke="rgb(100,151,105)" stroke-width="0.6" opacity="1" d="M 457 261 L 459 262.5 L 467 283.5 Q 470.6 295.4 469 312.5 L 468 313.5 L 468 329.5 L 481 339.5 Q 485.2 344.6 484 354 L 480 351.5 L 477.5 347 Q 474.3 348.8 478 350.5 L 480 360.5 L 478 369 L 476 367.5 L 475 365 Q 471.7 363.7 473 368.5 L 474 371.5 Q 472.5 374.5 471 371.5 L 463 359.5 L 462 350 L 460 350 Q 462 356.2 458 355 L 457 345.5 L 462 335 L 465 333.5 L 464 297.5 L 459 284.5 L 457 261 Z " /><path fill="rgb(100,151,105)" stroke="rgb(100,151,105)" stroke-width="0.6" opacity="1" d="M 315.5 386 L 316.5 408 L 318 407.5 Q 316.5 410.5 315 407.5 L 315.5 386 Z " /><path fill="rgb(100,151,105)" stroke="rgb(100,151,105)" stroke-width="0.6" opacity="1" d="M 341.5 419 L 348 424.5 Q 349.5 430.5 346.5 432 Q 336.9 433.4 333 431 Q 332.6 422.8 338.5 420 L 341.5 419 Z " /><path fill="rgb(100,151,105)" stroke="rgb(100,151,105)" stroke-width="0.6" opacity="1" d="M 166.5 425 L 170 426.5 L 171 435.5 L 168.5 437 L 165 435 L 164 427.5 L 166.5 425 Z " /><path fill="rgb(100,151,105)" stroke="rgb(100,151,105)" stroke-width="0.6" opacity="1" d="M 383.5 428 L 385 429.5 L 385 439 L 383 438.5 L 384 436.5 L 382 429.5 L 383.5 428 Z " /><path fill="rgb(100,151,105)" stroke="rgb(100,151,105)" stroke-width="0.6" opacity="1" d="M 392.5 429 Q 397.8 427.8 399 430.5 Q 402.7 434.8 401 444.5 L 398.5 445 Q 390.5 445.5 387 441.5 Q 386.8 432.3 392.5 429 Z " /><path fill="rgb(100,151,105)" stroke="rgb(100,151,105)" stroke-width="0.6" opacity="1" d="M 264.5 437 L 266 438.5 Q 272.1 442.4 271 453.5 Q 269.3 456.8 262.5 455 L 256.5 454 L 254 451.5 Q 252.4 441.4 258.5 439 L 264.5 437 Z " /><path fill="rgb(100,151,105)" stroke="rgb(100,151,105)" stroke-width="0.6" opacity="1" d="M 206.5 441 L 205.5 443 L 192 442.5 L 206.5 441 Z " /><path fill="rgb(100,151,105)" stroke="rgb(100,151,105)" stroke-width="0.6" opacity="1" d="M 404.5 443 L 405 445 L 421.5 444 L 420.5 446 L 405.5 446 L 404 444.5 L 404.5 443 Z " /><path fill="rgb(100,151,105)" stroke="rgb(100,151,105)" stroke-width="0.6" opacity="1" d="M 290.5 453 L 289.5 455 L 274 454.5 L 290.5 453 Z " /><path fill="rgb(1,1,1)" stroke="rgb(1,1,1)" stroke-width="0.6" opacity="1" d="M 99.5 52 L 115.5 52 L 130.5 56 Q 148.9 63.1 162.5 75 L 171.5 77 Q 183.4 67.4 200.5 63 L 217.5 60 L 230.5 60 Q 235.2 63.8 245.5 62 L 261.5 67 L 288.5 82 Q 301.7 68.2 320.5 60 L 341.5 54 L 358.5 54 L 370.5 55 L 385.5 62 L 403 78.5 L 415 96.5 Q 428.8 108.2 439 123.5 L 443 134.5 L 443 148.5 Q 438.9 164.9 427.5 174 L 416 184.5 L 409 197.5 Q 424.8 205.7 436 218.5 L 465 265.5 L 470 280.5 L 472 306.5 L 471 307.5 L 471 327.5 L 485 339.5 Q 488.6 344.9 487 355.5 L 482 362.5 Q 482.8 368.8 480 371.5 L 473.5 378 L 469.5 379 Q 466.5 377.5 468 371.5 L 455 356.5 L 454 343.5 Q 455.3 335.3 461 331.5 L 461 298.5 L 458.5 293 L 457 294.5 L 454 317.5 L 442 352.5 L 442 371.5 L 446 394.5 L 452 414.5 L 452 428.5 L 444.5 441 Q 429.3 452.8 399.5 450 Q 384.9 448.1 378 438.5 L 378 426.5 L 386 409.5 L 386 392.5 L 377 363 Q 373.5 361.9 375 369.5 L 374 370.5 L 374 388.5 L 375 400.5 L 377 404.5 L 377 418.5 Q 375.2 425.7 369.5 429 L 353.5 435 L 336.5 436 L 320.5 432 Q 317.3 433.8 319 440.5 L 312.5 450 L 304.5 455 L 289.5 459 L 262.5 459 L 246.5 454 L 238 446.5 L 237 438.5 L 240 428.5 L 249 414.5 L 250 403.5 Q 245.6 399.4 248 388.5 L 250 382.5 L 250 356.5 L 246.5 354 L 244 357.5 L 235 386.5 L 234 411.5 L 235 412.5 L 235 428.5 Q 232.9 436.4 226.5 440 L 204.5 447 L 185.5 447 L 169.5 442 L 160 433.5 L 160 424.5 L 175 394.5 L 175 379.5 L 181 359.5 L 181 351.5 L 186 328.5 L 186 308.5 L 188 302.5 L 188 274.5 L 189 272.5 Q 187.8 269.8 182.5 271 L 178 274.5 L 174 283.5 L 158.5 304 Q 147.5 314.5 132.5 321 L 116.5 325 L 99.5 325 Q 72.7 320.8 60 302.5 Q 54.1 295.9 52 285.5 L 51 260.5 L 44.5 253 Q 36.4 253.1 34 247.5 L 34 239.5 L 44.5 226 L 53.5 223 L 73 241.5 L 78 251.5 L 81 269.5 L 90.5 282 Q 94.5 285.5 103.5 284 L 114 276.5 Q 121.3 268.4 123 256 L 111.5 260 L 99.5 260 L 93 254.5 L 95.5 249 Q 111.6 244.1 121 232.5 L 119.5 230 Q 114.9 237.4 103.5 238 Q 93.8 235.7 88 229.5 Q 84 218.5 75.5 212 Q 59 207.5 50 195.5 Q 43 186.5 43 170.5 L 26 145.5 L 25 128.5 L 28 119.5 L 37 105.5 Q 52.9 80.9 74.5 62 Q 84.7 54.7 99.5 52 Z M 101 56 L 91 58 L 75 67 L 60 82 L 40 108 L 30 125 L 28 133 L 29 144 L 47 171 L 48 183 L 52 194 Q 63 205 80 211 Q 86 215 88 225 Q 92 232 102 234 Q 110 235 114 232 L 116 229 L 108 212 L 108 199 L 120 177 L 121 148 L 124 136 L 131 122 Q 130 104 121 95 Q 113 83 99 79 L 87 79 L 86 77 L 91 76 Q 107 76 116 84 L 127 98 L 136 113 L 145 99 L 165 81 Q 150 68 132 60 L 118 56 L 101 56 Z M 341 58 Q 303 66 284 92 Q 285 95 282 94 L 281 92 L 284 86 L 266 72 L 242 65 L 209 65 L 196 68 Q 171 77 154 94 Q 138 109 129 131 L 124 151 L 124 172 Q 121 173 122 180 Q 115 187 112 198 L 113 217 L 124 229 L 128 227 L 132 223 L 136 211 L 148 194 L 148 191 L 136 188 L 134 185 L 138 187 L 141 186 L 138 181 Q 137 173 140 170 L 148 164 L 156 165 L 154 159 L 148 155 L 143 156 Q 135 160 133 170 Q 134 174 131 173 L 135 161 L 145 153 L 153 154 Q 158 158 159 166 L 158 183 L 150 196 Q 151 199 149 198 Q 140 207 135 220 L 125 264 L 114 281 L 109 284 L 107 288 L 108 289 L 101 287 L 99 290 L 89 284 Q 81 279 78 271 L 76 256 L 70 243 L 59 231 L 53 226 L 48 227 L 37 241 Q 36 249 41 250 L 51 249 L 52 249 L 49 255 L 55 257 L 54 261 L 55 272 L 57 273 Q 61 272 60 275 L 55 277 L 56 288 L 61 292 L 59 295 L 62 301 L 68 305 Q 72 304 70 309 Q 79 318 94 321 L 127 320 L 149 309 Q 165 295 176 275 L 173 269 L 173 265 L 188 250 L 191 243 L 199 236 L 212 235 Q 219 231 220 221 L 217 219 L 219 216 L 228 218 L 229 222 L 225 220 L 216 235 L 215 243 L 206 259 L 207 261 L 216 256 L 219 257 Q 256 256 278 239 Q 293 227 297 203 L 297 191 L 299 190 L 299 223 L 308 243 Q 313 250 323 253 L 339 252 L 363 232 L 381 227 L 390 222 L 400 211 L 412 185 L 432 165 L 439 150 L 439 136 L 435 125 Q 414 105 399 80 Q 390 67 375 60 L 367 58 L 341 58 Z M 150 168 L 147 173 Q 148 176 153 175 L 154 170 L 150 168 Z M 408 202 L 400 217 L 388 227 L 364 235 L 346 251 L 332 257 Q 317 257 311 249 Q 300 240 297 225 Q 299 219 296 220 L 289 232 Q 278 246 260 253 L 232 260 L 212 261 Q 207 267 197 266 L 192 271 Q 190 289 194 302 L 206 323 Q 221 341 247 350 L 249 349 L 249 341 L 245 323 L 245 308 L 247 307 L 247 320 L 254 357 Q 256 373 252 383 L 252 406 L 253 407 L 251 418 L 242 434 L 245 434 L 246 435 L 241 442 L 242 448 L 250 452 L 252 451 Q 255 450 254 453 L 260 455 L 270 455 L 271 454 Q 272 443 267 439 L 269 438 L 274 446 L 273 450 L 275 455 L 290 455 L 291 454 L 290 444 L 286 441 Q 285 438 289 439 L 293 446 L 296 454 L 308 450 Q 314 446 316 439 L 316 427 Q 312 421 313 410 L 311 407 L 311 390 L 313 386 L 314 367 Q 319 346 327 329 Q 325 322 329 323 L 329 331 L 320 358 L 328 360 L 349 359 L 370 351 Q 391 333 399 303 Q 398 298 401 299 Q 396 330 377 349 L 377 356 Q 386 374 390 398 L 388 415 L 383 423 L 383 426 L 386 427 L 389 432 Q 386 435 387 442 Q 390 447 400 446 L 401 445 L 402 433 L 405 435 L 404 439 Q 402 444 406 446 L 421 446 L 423 444 L 426 445 Q 435 445 441 440 L 448 431 L 448 411 L 439 375 L 440 348 L 450 321 L 455 294 L 455 272 L 452 256 Q 446 236 434 222 Q 424 208 408 202 Z M 127 229 L 127 231 Q 116 244 100 251 L 97 255 L 101 257 L 112 257 L 123 253 L 126 249 L 127 238 L 129 234 Q 131 228 127 229 Z M 200 238 L 198 239 L 188 254 L 184 257 L 176 266 L 178 268 Q 191 270 197 264 Q 207 256 212 243 L 212 238 L 200 238 Z M 456 258 L 458 283 L 464 300 L 464 331 L 465 332 Q 459 338 456 349 L 459 356 L 460 356 L 460 351 L 462 351 L 462 359 L 471 372 Q 470 376 473 375 L 474 368 L 478 370 L 480 365 Q 481 356 479 352 L 481 354 Q 483 357 485 353 Q 485 343 481 339 L 476 333 L 472 333 L 468 329 L 468 315 L 469 314 L 468 286 L 462 267 L 458 260 L 456 258 Z M 191 302 L 189 308 L 187 345 L 182 370 L 177 386 L 177 401 L 165 421 L 170 422 Q 173 423 172 428 L 175 430 Q 172 432 173 440 L 183 443 L 188 442 Q 189 431 184 428 L 186 426 Q 190 427 189 433 L 196 429 L 197 430 L 190 438 L 192 443 L 206 443 L 207 442 L 206 433 L 203 431 L 205 429 L 208 434 L 211 442 L 215 442 L 225 438 Q 231 435 232 427 L 232 413 L 230 410 L 230 401 L 233 383 L 243 353 L 218 337 Q 201 325 193 304 L 191 302 Z M 371 353 L 354 361 L 344 363 L 330 363 L 328 365 L 329 372 L 328 396 L 317 417 L 319 421 L 318 424 L 319 428 Q 323 431 330 430 L 329 419 L 326 417 Q 325 414 329 415 L 334 424 L 333 431 L 335 432 L 347 432 Q 349 426 352 431 Q 362 431 368 427 L 373 420 L 373 402 L 371 397 L 371 384 L 370 383 L 371 365 L 373 360 L 373 353 L 371 353 Z M 320 363 L 316 373 L 316 386 L 315 387 L 315 408 L 317 409 Q 324 403 326 392 L 326 371 L 324 365 L 320 363 Z M 167 424 Q 163 426 164 434 L 170 438 Q 173 436 171 428 L 167 424 Z M 384 427 Q 380 430 381 438 Q 383 442 385 439 L 385 429 L 384 427 Z " /><path fill="rgb(1,1,1)" stroke="rgb(1,1,1)" stroke-width="0.6" opacity="1" d="M 359.5 81 Q 376.6 80.2 386 86 L 384.5 88 Q 375.4 81.1 356.5 84 Q 332.2 89.7 319 106.5 L 306 128.5 L 304 136.5 L 305 138.5 Q 300.1 141.8 302 151 L 300 150.5 L 300 139.5 Q 306.1 113.1 323.5 98 Q 336.9 84.9 359.5 81 Z " /><path fill="rgb(1,1,1)" stroke="rgb(1,1,1)" stroke-width="0.6" opacity="1" d="M 193.5 83 L 204.5 84 L 206 85.5 L 191 86 L 192.5 84 L 193.5 83 Z " /><path fill="rgb(1,1,1)" stroke="rgb(1,1,1)" stroke-width="0.6" opacity="1" d="M 93 114 L 110.5 114 L 111 116 L 93.5 116 L 93 114 Z " /><path fill="rgb(1,1,1)" stroke="rgb(1,1,1)" stroke-width="0.6" opacity="1" d="M 147.5 123 Q 153.3 122.2 155 125.5 L 153.5 128 L 147.5 128 L 138 134 L 145.5 124 L 147.5 123 Z " /><path fill="rgb(1,1,1)" stroke="rgb(1,1,1)" stroke-width="0.6" opacity="1" d="M 330.5 124 L 346.5 124 L 347 126 Q 332.7 124.5 322.5 128 L 323.5 126 L 330.5 124 Z " /><path fill="rgb(1,1,1)" stroke="rgb(1,1,1)" stroke-width="0.6" opacity="1" d="M 234.5 128 L 240.5 128 L 248 134.5 L 250 142 L 248 140.5 Q 244.4 131.3 232 132 L 234.5 128 Z " /><path fill="rgb(1,1,1)" stroke="rgb(1,1,1)" stroke-width="0.6" opacity="1" d="M 107.5 149 L 104.5 153 L 96.5 159 L 96 157.5 L 107.5 149 Z " /><path fill="rgb(1,1,1)" stroke="rgb(1,1,1)" stroke-width="0.6" opacity="1" d="M 312 154 L 323.5 154 L 324 156 L 312.5 156 L 312 154 Z " /><path fill="rgb(1,1,1)" stroke="rgb(1,1,1)" stroke-width="0.6" opacity="1" d="M 327 155 Q 335.9 155.6 341 161.5 L 339.5 161 L 327 157 L 327 155 Z " /><path fill="rgb(1,1,1)" stroke="rgb(1,1,1)" stroke-width="0.6" opacity="1" d="M 229.5 158 Q 242.7 156.8 246 165.5 Q 250.4 171.9 249 183 L 247 182.5 L 247 174.5 Q 245.6 166.4 239.5 163 Q 236.6 159.4 228.5 161 L 220 167.5 L 216 175.5 L 216 181 Q 212.3 182.3 214 176.5 Q 215.8 166.3 222.5 161 L 229.5 158 Z " /><path fill="rgb(1,1,1)" stroke="rgb(1,1,1)" stroke-width="0.6" opacity="1" d="M 230.5 170 Q 239.9 168.1 243 172.5 Q 246.5 176.7 245 185 Q 248.3 183.7 247 188.5 L 244 193.5 L 243.5 196 L 223 197 Q 221.9 193.7 226 195 L 226 192.5 Q 220 189.5 222 178.5 L 226.5 173 L 230.5 170 Z M 235 173 L 232 177 L 235 181 Q 240 182 241 179 L 240 175 L 235 173 Z " /><path fill="rgb(1,1,1)" stroke="rgb(1,1,1)" stroke-width="0.6" opacity="1" d="M 159.5 195 L 169 196 L 168.5 198 L 156 198 Q 154.8 195 158.5 196 L 159.5 195 Z " /><path fill="rgb(1,1,1)" stroke="rgb(1,1,1)" stroke-width="0.6" opacity="1" d="M 46.5 232 L 51 233 L 47 242 L 45 241.5 Q 49 239.3 49 234 L 45 236.5 L 43 240.5 L 42.5 243 L 41 240.5 Q 41.7 234.2 46.5 232 Z " /><path fill="rgb(1,1,1)" stroke="rgb(1,1,1)" stroke-width="0.6" opacity="1" d="M 328 305 Q 331 303.8 330 307.5 L 331 318.5 L 330 321 L 328 320.5 L 328 305 Z " /><path fill="rgb(1,1,1)" stroke="rgb(1,1,1)" stroke-width="0.6" opacity="1" d="M 343 418 L 347 419.5 L 350 426 Q 347 427.3 348 423.5 L 343 420 L 343 418 Z " /><path fill="rgb(1,1,1)" stroke="rgb(1,1,1)" stroke-width="0.6" opacity="1" d="M 418.5 431 L 423 434.5 L 424 440 Q 420.7 441.3 422 436.5 L 418.5 431 Z " /><path fill="rgb(1,1,1)" stroke="rgb(1,1,1)" stroke-width="0.6" opacity="1" d="M 251.5 437 L 255 442.5 L 254 447 Q 250.5 448.1 252 440.5 L 251.5 437 Z " /><path fill="rgb(37,37,37)" stroke="rgb(37,37,37)" stroke-width="0.6" opacity="1" d="M 70.5 65 L 58.5 78 L 70.5 65 Z " /><path fill="rgb(37,37,37)" stroke="rgb(37,37,37)" stroke-width="0.6" opacity="1" d="M 50.5 196 L 57.5 204 L 50.5 196 Z " /><path fill="rgb(37,37,37)" stroke="rgb(37,37,37)" stroke-width="0.6" opacity="1" d="M 120.5 231 L 121 232.5 L 115 237.5 L 120.5 231 Z " /><path fill="rgb(37,37,37)" stroke="rgb(37,37,37)" stroke-width="0.6" opacity="1" d="M 286.5 234 L 281.5 240 L 286.5 234 Z " /><path fill="rgb(70,70,69)" stroke="rgb(70,70,69)" stroke-width="0.6" opacity="1" d="M 322.5 415 L 322 416.5 L 319.5 420 L 317 418.5 Q 319.8 420.4 322.5 415 Z " /><path fill="rgb(70,70,69)" stroke="rgb(70,70,69)" stroke-width="0.6" opacity="1" d="M 399.5 428 L 404 434.5 L 400 433.5 L 401 431.5 L 399.5 428 Z " /><path fill="rgb(97,100,98)" stroke="rgb(97,100,98)" stroke-width="0.6" opacity="1" d="M 317.5 128 L 317.5 131 L 315.5 130 L 313.5 133 Q 310.5 131.5 313.5 130 L 317.5 128 Z " /><path fill="rgb(111,124,123)" stroke="rgb(111,124,123)" stroke-width="0.6" opacity="1" d="M 73.5 68 L 62.5 80 L 73.5 68 Z " /><path fill="rgb(111,124,123)" stroke="rgb(111,124,123)" stroke-width="0.6" opacity="1" d="M 296.5 79 L 285.5 91 L 296.5 79 Z " /><path fill="rgb(111,124,123)" stroke="rgb(111,124,123)" stroke-width="0.6" opacity="1" d="M 141.5 157 L 136.5 163 L 141.5 157 Z " /><path fill="rgb(111,124,123)" stroke="rgb(111,124,123)" stroke-width="0.6" opacity="1" d="M 430.5 165 L 412.5 184 L 430.5 165 Z " /><path fill="rgb(111,124,123)" stroke="rgb(111,124,123)" stroke-width="0.6" opacity="1" d="M 61.5 234 L 68.5 242 L 61.5 234 Z " /><path fill="rgb(111,124,123)" stroke="rgb(111,124,123)" stroke-width="0.6" opacity="1" d="M 186.5 250 L 173.5 264 L 186.5 250 Z " /><path fill="rgb(103,151,174)" stroke="rgb(103,151,174)" stroke-width="0.6" opacity="1" d="M 282.5 87 L 279.5 92 L 282 93.5 L 280.5 93 L 278 91.5 L 282.5 87 Z " /><path fill="rgb(103,151,174)" stroke="rgb(103,151,174)" stroke-width="0.6" opacity="1" d="M 309.5 135 L 303.5 142 L 309.5 135 Z " /><path fill="rgb(103,151,174)" stroke="rgb(103,151,174)" stroke-width="0.6" opacity="1" d="M 196.5 236 L 191.5 242 L 196.5 236 Z " /><path fill="rgb(103,151,174)" stroke="rgb(103,151,174)" stroke-width="0.6" opacity="1" d="M 206.5 327 L 212.5 334 L 206.5 327 Z " /><path fill="rgb(241,241,241)" stroke="rgb(241,241,241)" stroke-width="0.6" opacity="1" d="M 118.5 231 Q 122 233 117.5 235 L 113.5 237 L 113.5 236 L 115 234.5 L 118.5 231 Z " /><path fill="rgb(224,224,224)" stroke="rgb(224,224,224)" stroke-width="0.6" opacity="1" d="M 70.5 64 L 57.5 78 L 70.5 64 Z " /><path fill="rgb(224,224,224)" stroke="rgb(224,224,224)" stroke-width="0.6" opacity="1" d="M 50.5 197 L 56.5 204 L 50.5 197 Z " /></svg>