<svg width="1254" height="1254" preserveAspectRatio="xMidYMid meet" viewBox="0 0 512 512" version="1.1" xmlns="http://www.w3.org/2000/svg" ><path fill="rgb(255,255,255)" stroke="rgb(255,255,255)" stroke-width="0.6" opacity="1" d="M 0 0 L 512 0 L 512 512 L 0 512 L 0 0 Z M 167 13 L 157 20 Q 155 32 163 35 L 161 51 L 151 57 L 149 55 Q 140 43 123 41 Q 109 41 102 48 L 102 58 L 107 68 L 120 78 L 135 83 L 133 88 L 132 110 L 122 127 Q 120 139 125 145 Q 130 152 142 154 L 145 164 Q 148 169 156 170 Q 166 171 172 167 Q 180 161 183 151 L 188 148 L 189 150 Q 187 163 191 170 L 191 234 L 193 240 L 193 253 L 194 254 L 189 285 L 189 302 Q 191 312 196 320 L 197 339 L 199 342 L 200 352 L 200 378 L 198 382 L 198 396 L 199 397 L 199 411 L 197 414 L 196 433 L 194 441 L 189 451 L 189 459 Q 182 465 179 476 L 180 482 L 190 486 Q 204 488 212 483 L 215 480 L 215 465 L 219 458 Q 218 450 221 447 L 221 422 L 224 406 L 229 393 Q 228 382 231 377 L 233 375 L 234 378 L 235 402 L 239 410 Q 237 419 241 423 L 241 445 L 237 458 L 237 472 L 230 485 L 230 493 Q 233 498 241 499 L 258 498 L 267 491 L 267 478 L 266 477 Q 265 469 269 466 L 269 453 L 265 437 L 264 426 L 264 404 L 267 395 Q 269 388 265 387 Q 263 369 268 359 L 268 355 L 277 355 Q 288 368 294 387 L 294 408 Q 290 411 292 422 L 285 444 L 285 453 Q 276 458 277 473 Q 280 478 288 479 Q 302 481 309 476 L 312 472 L 311 464 Q 310 455 315 452 L 315 430 L 317 427 L 317 420 L 324 396 Q 327 379 321 372 Q 319 367 323 368 Q 332 379 338 395 L 342 411 L 342 427 L 343 428 L 343 446 Q 339 451 341 463 L 335 474 L 335 485 Q 338 489 345 490 Q 358 492 365 487 L 370 481 Q 371 471 368 467 L 370 462 Q 372 441 367 429 L 367 381 L 360 368 L 359 360 L 361 338 L 363 331 L 363 321 L 365 320 L 370 336 L 375 344 L 375 363 L 380 373 L 393 379 L 404 379 L 410 370 L 407 368 L 402 363 Q 402 353 398 348 Q 394 342 386 341 L 382 336 L 377 312 L 366 291 L 360 285 L 352 275 Q 344 264 332 258 L 315 252 L 298 250 L 284 246 L 268 237 L 262 232 Q 265 215 256 211 L 257 207 Q 258 195 250 192 L 251 190 Q 254 176 246 173 L 247 170 Q 249 157 242 154 L 244 148 Q 246 135 239 132 L 240 129 Q 242 115 235 112 L 236 110 L 236 99 L 229 90 L 231 88 L 247 87 L 259 81 Q 269 73 272 58 L 271 51 L 262 46 L 244 46 Q 230 50 222 59 L 210 53 L 213 38 L 217 36 Q 223 34 222 24 L 213 15 L 203 16 L 197 24 L 199 32 L 199 37 L 196 45 L 186 37 Q 179 36 176 39 Q 175 30 180 27 L 179 18 Q 176 12 167 13 Z " /><path fill="rgb(236,190,71)" stroke="rgb(236,190,71)" stroke-width="0.6" opacity="1" d="M 167.5 31 L 172 32.5 L 173 41.5 L 167 45 L 166 32.5 L 167.5 31 Z " /><path fill="rgb(236,190,71)" stroke="rgb(236,190,71)" stroke-width="0.6" opacity="1" d="M 206.5 33 Q 209.8 33.8 209 38.5 L 207 43.5 L 206 55.5 L 213 59.5 Q 217.1 61.8 216 68 L 218.5 68 L 231.5 56 L 239.5 52 L 256.5 49 Q 258.2 51.8 263.5 51 L 267 54.5 Q 266.1 71.1 255.5 78 L 245.5 83 L 225.5 83 L 223 82 Q 225.7 89 224 102.5 L 222 109.5 L 224 116.5 L 225 131.5 L 218 136.5 L 213 144.5 L 213 151.5 L 221.5 161 L 230 163.5 L 232 174.5 L 225.5 177 L 222 180.5 Q 218.5 184.5 220 193.5 L 215 204.5 L 215 213.5 L 218.5 218 L 232.5 225 L 240.5 224 L 246.5 220 L 251 229 Q 240.4 230 236 238.5 L 235 246.5 Q 239.3 250.7 238 260.5 L 243.5 268 L 256.5 276 L 269.5 277 L 278 270.5 Q 282.5 265 281 253.5 L 280 250.5 L 283.5 249 L 291 252.5 L 290 260.5 Q 295.3 264.7 294 275.5 L 300.5 283 Q 306.6 287.4 318.5 286 L 326 280.5 Q 329.4 275.9 329 267.5 L 327 263.5 L 330.5 262 L 345 273.5 L 347 277 L 341.5 277 L 325 289.5 L 323 294.5 Q 323.4 302.6 329.5 305 Q 337.8 306.7 342 312.5 L 344.5 316 Q 353.5 317 356 311.5 L 357 306 L 359 306.5 L 359 328 Q 355.8 325 348.5 325 L 338 333.5 L 337 341.5 L 342.5 351 Q 346.4 356.1 355 355 L 355 366.5 L 363 380.5 L 363 406.5 L 364 408.5 Q 360.5 410 362 416.5 Q 365.8 418.3 364 425.5 L 363 430.5 Q 368 442 366 460.5 L 362.5 466 L 348.5 466 L 345 462.5 L 344 455.5 L 348 439.5 L 347 437.5 L 348 426.5 L 343 397.5 L 337 381 L 344 376.5 L 346 367.5 L 334.5 352 L 326.5 352 L 318.5 357 Q 311.7 351.4 310 342 L 319.5 343 L 331 335.5 L 334 327.5 L 334 321.5 L 328.5 314 L 324 312 L 319.5 305 Q 311.3 303.8 308 307.5 L 301 319.5 L 301 333.5 L 307 346.5 L 295.5 351 L 270.5 351 L 269 347.5 Q 273.6 335.4 272 318 L 268 319.5 L 268 333.5 L 261 371.5 L 261 424.5 L 260 426.5 L 262 434.5 L 261 438.5 L 263 440.5 L 265 465.5 L 260.5 475 L 246.5 476 L 241 472.5 L 241 462.5 L 245 446.5 L 245 419.5 L 238 395.5 L 240.5 395 Q 250.9 396.4 254 390.5 Q 257.8 387.3 256 378.5 Q 253.8 370.2 247.5 366 L 237.5 367 L 226 331.5 L 221.5 323 Q 218.8 322.4 220 328.5 L 225 341.5 Q 223.3 344.8 221.5 341 Q 211.2 336.3 205 327.5 L 200 317 Q 209.8 318.4 213 312.5 L 214 300.5 L 207 283.5 L 203.5 279 L 194 278 L 198.5 263 L 205.5 267 L 214.5 267 L 226 257.5 Q 229.1 253.1 228 244.5 L 218 231.5 L 216 224.5 L 208.5 216 L 198.5 215 L 196 214.5 L 196 202.5 L 197.5 201 L 200.5 202 Q 206.1 201.6 208 197.5 L 210 190.5 L 218 179.5 L 218 172.5 L 205.5 156 Q 195.5 158.5 193 153.5 Q 191.8 148.3 194.5 147 Q 207.4 141.9 215 131.5 Q 219 127.5 219 119.5 Q 217.5 116.5 216 119.5 L 215 124.5 L 204.5 137 Q 197.9 142.4 187.5 144 L 186 141.5 L 187 133.5 Q 184.3 122.3 176.5 116 L 161.5 109 L 155 109 Q 158.3 104.1 157 93.5 L 152.5 86 Q 142.1 84.6 140 91.5 L 139 97 Q 135.3 98.1 137 89.5 L 141 75.5 L 149.5 63 L 164 52.5 L 166 51 L 164 60.5 L 166.5 64 L 170.5 65 L 188 55.5 L 186.5 53 L 169.5 61 L 168 57.5 L 170.5 53 L 175 50.5 L 171 48 L 172.5 45 L 180.5 44 L 182.5 45 L 184.5 42 L 190 46.5 L 195.5 53 L 206.5 33 Z M 249 54 L 239 59 L 232 67 L 225 73 L 221 78 L 228 79 Q 239 81 246 77 L 249 73 Q 242 77 230 75 L 232 71 Q 240 61 253 57 Q 261 59 260 55 L 249 54 Z M 148 71 L 143 75 L 146 78 Q 148 75 154 76 L 155 73 Q 154 69 148 71 Z M 197 72 L 194 76 L 205 79 Q 206 83 208 80 L 207 76 Q 204 71 197 72 Z M 193 87 L 189 89 L 183 97 Q 181 108 186 113 L 189 115 L 201 115 L 208 105 L 206 93 Q 203 86 193 87 Z M 229 270 L 225 272 L 215 285 L 216 295 L 222 312 Q 226 318 236 320 L 244 319 L 250 316 Q 257 311 260 301 L 258 289 L 249 282 L 244 277 Q 240 269 229 270 Z M 278 279 L 275 281 L 270 288 L 270 307 L 273 313 L 284 318 Q 293 319 298 315 L 304 306 L 303 297 L 296 289 L 287 280 L 278 279 Z M 253 324 L 243 329 L 235 339 L 241 354 L 248 359 L 256 358 L 259 355 L 264 342 L 263 328 Q 260 323 253 324 Z " /><path fill="rgb(236,190,71)" stroke="rgb(236,190,71)" stroke-width="0.6" opacity="1" d="M 194.5 90 Q 200.1 89.9 202 93.5 L 200.5 95 L 196.5 94 L 190 97.5 L 188 103 Q 184.7 104.3 186 99.5 L 192.5 91 L 194.5 90 Z " /><path fill="rgb(236,190,71)" stroke="rgb(236,190,71)" stroke-width="0.6" opacity="1" d="M 137 104 Q 140 102.8 139 106.5 Q 143.3 108.8 138.5 111 L 136.5 112 L 136 109.5 L 137 104 Z " /><path fill="rgb(236,190,71)" stroke="rgb(236,190,71)" stroke-width="0.6" opacity="1" d="M 144.5 112 Q 169.9 109.6 179 123.5 Q 184.8 129.2 183 142.5 Q 179.5 153 172.5 160 L 163.5 166 L 156.5 166 L 148 160.5 L 147 156 L 150 157.5 L 151.5 161 L 159.5 163 L 170 155.5 L 173 145.5 L 180 135.5 L 174.5 134 L 174 136.5 L 174 139.5 L 167.5 147 Q 160 152.5 146.5 152 Q 133.6 150.4 128 141.5 Q 125 136.5 126 127.5 L 134.5 117 L 144.5 112 Z M 138 119 L 134 123 L 135 127 L 140 128 Q 143 127 142 123 L 138 119 Z M 160 122 Q 155 123 156 129 Q 157 131 163 130 L 166 124 Q 165 121 160 122 Z " /><path fill="rgb(236,190,71)" stroke="rgb(236,190,71)" stroke-width="0.6" opacity="1" d="M 224.5 136 L 226 137.5 L 229 158.5 L 225.5 160 L 217 153.5 L 217 144.5 L 224.5 136 Z " /><path fill="rgb(236,190,71)" stroke="rgb(236,190,71)" stroke-width="0.6" opacity="1" d="M 229.5 178 L 231.5 179 L 234 179.5 L 234 185.5 L 243 213.5 L 243 217.5 L 240.5 221 L 230.5 221 L 218 212.5 L 218 205.5 L 223 194.5 L 223 185.5 L 229.5 178 Z " /><path fill="rgb(236,190,71)" stroke="rgb(236,190,71)" stroke-width="0.6" opacity="1" d="M 200.5 217 Q 208 217.5 211 222.5 Q 214.5 235.5 224 242.5 L 224 252.5 L 215.5 264 L 207.5 265 L 199 258.5 L 196 246.5 L 196 220.5 L 200.5 217 Z " /><path fill="rgb(236,190,71)" stroke="rgb(236,190,71)" stroke-width="0.6" opacity="1" d="M 197.5 281 L 202 282.5 Q 206.3 285.7 206 293.5 L 211 300.5 L 211 307.5 L 206.5 313 Q 198 315 196 310.5 Q 191.4 300.6 193 284.5 L 197.5 281 Z " /><path fill="rgb(236,190,71)" stroke="rgb(236,190,71)" stroke-width="0.6" opacity="1" d="M 314.5 308 L 317.5 308 L 330 320.5 L 331 328.5 L 324.5 338 L 316.5 340 Q 309.1 338.9 306 333.5 Q 303 329.5 304 321.5 L 314.5 308 Z " /><path fill="rgb(236,190,71)" stroke="rgb(236,190,71)" stroke-width="0.6" opacity="1" d="M 252.5 327 L 260 329 Q 262.1 332.3 261 340.5 Q 259.8 350.8 253.5 356 Q 245.5 357.5 244 352.5 L 239 343.5 L 239 338.5 L 245.5 331 L 252.5 327 Z " /><path fill="rgb(236,190,71)" stroke="rgb(236,190,71)" stroke-width="0.6" opacity="1" d="M 328.5 354 L 335 356.5 L 342 365.5 L 342 373.5 Q 340.7 377.7 334.5 377 L 322 360.5 L 326.5 355 L 328.5 354 Z " /><path fill="rgb(236,190,71)" stroke="rgb(236,190,71)" stroke-width="0.6" opacity="1" d="M 286.5 458 L 293.5 461 L 305.5 462 L 308 462.5 Q 309.5 471.5 304.5 474 L 299.5 475 L 296.5 474 L 287.5 475 L 281 471.5 Q 281.1 462.1 286.5 458 Z " /><path fill="rgb(1,1,1)" stroke="rgb(1,1,1)" stroke-width="0.6" opacity="1" d="M 166.5 14 Q 175.5 12.5 178 17.5 L 179 26.5 Q 174.1 29.6 176 39.5 Q 178.2 43.2 180.5 38 L 185.5 38 L 193 44.5 Q 192.2 47.1 195.5 46 Q 201 41.5 200 30.5 Q 196.7 29.3 198 23.5 L 204.5 16 L 212.5 16 L 221 23.5 L 220 31 Q 216.5 32.1 218 24.5 L 213.5 19 L 207.5 18 L 202 21.5 L 201 28.5 L 214 34.5 Q 208.7 40.7 210 53.5 L 221.5 61 L 224.5 57 Q 235.5 45 259.5 46 L 271 52.5 Q 269.3 73.3 255.5 82 L 247.5 86 L 232.5 88 L 229 87 L 229 91.5 Q 235.4 94.4 235 103 Q 231.7 104.3 233 99.5 L 229.5 95 L 227 98.5 L 227 115.5 L 229 141.5 L 236 178 L 232 175.5 L 233 172.5 L 229 160.5 L 230 154.5 Q 226.3 147.7 227 136.5 L 225 133.5 L 226 131.5 L 223 106.5 L 225 101.5 L 225 84 L 245.5 84 Q 256.1 80.6 262 72.5 Q 267.9 65.9 268 53.5 L 263.5 50 L 246.5 49 L 231.5 55 L 217 67 L 218 63.5 L 211.5 57 L 207 55.5 L 207 46.5 L 210 35.5 L 205.5 32 L 195.5 51 L 191 47.5 L 188.5 43 L 183.5 40 L 181.5 44 L 176.5 43 L 174.5 44 L 174 41.5 L 171 31.5 L 176 27.5 L 177 20.5 Q 174.8 15.8 167.5 16 L 161 20.5 L 160 24 Q 156.3 25.4 158 19.5 L 166.5 14 Z " /><path fill="rgb(1,1,1)" stroke="rgb(1,1,1)" stroke-width="0.6" opacity="1" d="M 158 26 L 160 27.5 L 167 31.5 L 166 44.5 L 163.5 50 Q 160.5 50.9 162 46.5 L 163 33.5 Q 157.3 31.9 158 26 Z " /><path fill="rgb(1,1,1)" stroke="rgb(1,1,1)" stroke-width="0.6" opacity="1" d="M 117.5 42 L 124.5 42 L 134.5 45 L 151.5 58 L 161.5 52 L 162 53.5 Q 151.7 58.2 145 66.5 L 141.5 72 L 128.5 56 Q 124 52.1 116 53 Q 114.6 49 121.5 51 L 132 56.5 L 137.5 64 L 143.5 67 L 148 59.5 L 140.5 51 L 131.5 46 L 114.5 45 L 105 49.5 L 105 56.5 L 115.5 72 Q 123 78 136.5 78 L 140 75.5 L 136 90.5 L 136 107.5 L 134 111.5 L 136.5 113 L 142 109.5 Q 145.8 106.3 144 97.5 L 146.5 95 Q 149.3 91.6 156 93 L 156 104.5 Q 152.8 106 154 111 Q 137.7 110.3 130 119.5 Q 124.8 123.8 125 133.5 Q 125.8 142.8 131.5 147 Q 139.9 154.3 157 152 L 155.5 154 L 154 158.5 L 159.5 160 L 162.5 159 L 160.5 162 Q 152.9 163.1 151 158.5 L 148.5 154 L 146 155.5 L 148.5 163 Q 153.7 167.8 165.5 166 L 176 157.5 L 184 142.5 L 184 132.5 Q 180.8 121.2 172 115.5 L 173.5 116 L 179 119.5 L 186 133.5 L 186 141.5 L 185 143.5 L 188.5 145 Q 204.7 141.2 213 129.5 L 216.5 124 L 217 126.5 L 205.5 140 L 192 148.5 Q 191.3 155.2 195 157.5 L 194 158.5 L 194 196.5 Q 195.5 200.5 202.5 199 L 207 196 L 204.5 200 L 196.5 201 L 195 202.5 L 195 215.5 L 197 218.5 L 195 220.5 L 195 244.5 L 198 255.5 L 198 261.5 L 194 271.5 L 194 278.5 L 196.5 279 Q 204.8 277.8 206 283.5 L 204 285 L 201.5 281 Q 195 280 193 283.5 Q 190.3 302.7 196.5 313 L 207.5 314 L 211.5 309 L 213 310.5 L 209.5 315 L 199.5 316 L 198 317.5 L 203 327 L 201 327.5 L 201 337.5 L 202 350.5 L 203.5 352 L 207 351 L 205.5 353 Q 202 354 203 359.5 L 204 372.5 L 203 374.5 Q 205.5 379.3 213 378 Q 214.4 382 207.5 380 L 203.5 378 Q 199.1 382.6 200 392.5 L 202 395.5 L 201 396.5 L 201 422.5 L 197 442.5 L 192 453.5 L 192 461.5 Q 183.8 466.3 183 478.5 Q 188.3 485.3 202.5 483 L 212 478.5 L 213 468.5 L 210 467 L 216 456.5 L 216 439.5 L 218 436.5 L 218 420.5 L 222 401.5 L 226 392.5 L 226 380.5 L 230 365.5 L 230 356.5 L 229 350.5 L 226.5 348 L 210 336.5 L 211.5 335 L 224.5 344 L 226 341.5 L 221 326 Q 224 324.8 223 328.5 Q 231.1 344.9 235 365.5 L 237.5 369 L 241 367 L 239.5 370 L 237 371.5 L 236 383.5 L 241 394 L 238 395.5 Q 237.4 405.2 241 410 Q 238 411.3 239 407.5 L 234 392.5 Q 235.2 378.7 233 370 L 231 371.5 Q 227.4 378.4 229 390.5 L 223 406.5 L 220 423.5 L 220 447.5 Q 216.6 450.1 218 457.5 L 215 462.5 L 215 477.5 L 209.5 483 L 199.5 486 L 193.5 486 L 184.5 484 L 180 479.5 Q 180.7 466.2 189 460.5 L 189 452.5 L 194 443.5 L 197 431.5 L 199 412.5 L 199 394.5 L 198 383.5 L 200 379.5 L 200 349.5 L 197 329.5 L 197 319.5 Q 191.6 312.9 190 302.5 L 190 276.5 L 193 261.5 L 195 258.5 L 195 253.5 L 193 249.5 L 192 236.5 L 192 174.5 Q 188.2 164.3 190 148.5 L 188.5 147 L 182 149.5 Q 179.9 158.9 173.5 164 Q 168.3 170.8 154.5 169 L 146 163.5 L 142.5 153 L 138.5 153 L 127 145.5 L 123 138.5 L 122 129.5 L 133 108.5 L 134 86.5 L 136 82.5 L 133.5 80 L 119.5 77 L 107 65.5 L 102 55.5 L 102 49.5 Q 106.7 42.7 117.5 42 Z " /><path fill="rgb(1,1,1)" stroke="rgb(1,1,1)" stroke-width="0.6" opacity="1" d="M 168.5 46 L 170 46.5 L 170.5 49 Q 174.3 48 173 51 L 168 54.5 L 167 59.5 Q 168.5 62.5 174.5 61 L 176 60.5 Q 174.4 64.9 167.5 64 Q 163.8 62.8 165 56.5 L 168.5 46 Z " /><path fill="rgb(1,1,1)" stroke="rgb(1,1,1)" stroke-width="0.6" opacity="1" d="M 248.5 55 L 258.5 55 L 259 57 L 249.5 57 L 234 66.5 L 228 74.5 L 229.5 76 L 241 76 Q 242.3 79 238.5 78 L 231.5 79 L 223 77 L 224.5 74 L 231 70 L 238.5 60 L 248.5 55 Z " /><path fill="rgb(1,1,1)" stroke="rgb(1,1,1)" stroke-width="0.6" opacity="1" d="M 150.5 71 L 155 73.5 L 145.5 77 Q 141.5 74.5 147.5 72 L 150.5 71 Z " /><path fill="rgb(1,1,1)" stroke="rgb(1,1,1)" stroke-width="0.6" opacity="1" d="M 196.5 73 Q 205.1 71.9 207 77.5 L 205.5 79 L 195 74.5 L 196.5 73 Z " /><path fill="rgb(1,1,1)" stroke="rgb(1,1,1)" stroke-width="0.6" opacity="1" d="M 146.5 87 Q 151.8 85.8 153 88.5 Q 146.9 87.4 145 90.5 Q 139.3 94.8 140.5 106 Q 137 104 139 96.5 L 143.5 89 L 146.5 87 Z " /><path fill="rgb(1,1,1)" stroke="rgb(1,1,1)" stroke-width="0.6" opacity="1" d="M 192.5 88 L 196 88.5 L 190 92.5 Q 184.4 96.4 184.5 106 L 183 100.5 L 188.5 90 L 192.5 88 Z " /><path fill="rgb(1,1,1)" stroke="rgb(1,1,1)" stroke-width="0.6" opacity="1" d="M 197 88 L 204 91.5 Q 208.2 95.7 207 104 Q 203.5 105.1 205 97.5 L 199.5 90 Q 195.8 91 197 88 Z " /><path fill="rgb(1,1,1)" stroke="rgb(1,1,1)" stroke-width="0.6" opacity="1" d="M 195.5 95 Q 202 94 203 98.5 L 204 109.5 L 199.5 115 Q 191.3 117.3 189 113.5 L 190 110.5 Q 187 108.5 188 102.5 L 193.5 96 L 195.5 95 Z " /><path fill="rgb(1,1,1)" stroke="rgb(1,1,1)" stroke-width="0.6" opacity="1" d="M 233 107 Q 236 105.8 235 109.5 L 234 111.5 Q 240.7 115.3 240 126.5 L 238 131.5 Q 243.9 135.6 244 145.5 L 241 153.5 L 247 161.5 L 247 167.5 L 245 172.5 L 251 180.5 L 251 187.5 L 249 192.5 L 255 197.5 L 256 207.5 L 255 210.5 L 261 217.5 L 261 232.5 L 262.5 234 Q 275.8 247.1 298 250 L 296.5 252 Q 291.5 254 292.5 262 Q 289.3 260.3 291 253.5 L 292 251.5 L 280.5 248 L 279 251 Q 275.7 252.3 277 247.5 L 258.5 232 L 252 229.5 L 253 227.5 L 246.5 219 L 243 220 L 244 214.5 L 235 186.5 L 235 181 Q 238 179.8 237 183.5 L 246 213.5 L 257.5 229 Q 261 227 259 219.5 L 254.5 214 L 252 212.5 L 253 200.5 L 248.5 195 L 246 193.5 L 249 182.5 Q 248.6 177 244.5 175 L 241 172.5 Q 245 169.5 245 162.5 L 239.5 155 L 237 153.5 Q 241.7 149.7 240 139.5 L 234 130.5 Q 238.5 128 237 119.5 L 231 111.5 L 233 107 Z " /><path fill="rgb(1,1,1)" stroke="rgb(1,1,1)" stroke-width="0.6" opacity="1" d="M 137.5 120 L 140 121.5 L 138 125 L 140 126.5 L 137.5 128 Q 134.3 127.3 135 122.5 L 137.5 120 Z " /><path fill="rgb(1,1,1)" stroke="rgb(1,1,1)" stroke-width="0.6" opacity="1" d="M 160.5 122 L 165 124.5 L 162.5 128 L 161.5 125 L 159.5 129 L 157 127.5 L 160.5 122 Z " /><path fill="rgb(1,1,1)" stroke="rgb(1,1,1)" stroke-width="0.6" opacity="1" d="M 222.5 134 L 224 136 L 220 138.5 Q 214 141.8 216 152 Q 212.3 153.1 214 144.5 L 220.5 135 L 222.5 134 Z " /><path fill="rgb(1,1,1)" stroke="rgb(1,1,1)" stroke-width="0.6" opacity="1" d="M 176.5 135 Q 179.8 133.9 179 136.5 Q 172 141.3 171 151 L 165.5 150 L 159 153 Q 157.8 150 161.5 151 Q 169.6 148.1 174 141.5 L 176.5 135 Z " /><path fill="rgb(1,1,1)" stroke="rgb(1,1,1)" stroke-width="0.6" opacity="1" d="M 209.5 163 L 215 170.5 L 210 166.5 L 209.5 163 Z " /><path fill="rgb(1,1,1)" stroke="rgb(1,1,1)" stroke-width="0.6" opacity="1" d="M 227.5 177 L 229 177.5 L 222 186.5 L 222 195.5 L 218 203.5 L 218 214 Q 215 215.3 216 211.5 L 215 206.5 L 220 195.5 L 220 186.5 L 224.5 179 L 227.5 177 Z " /><path fill="rgb(1,1,1)" stroke="rgb(1,1,1)" stroke-width="0.6" opacity="1" d="M 230.5 222 L 241 222.5 Q 239 226 231.5 224 L 230.5 222 Z " /><path fill="rgb(1,1,1)" stroke="rgb(1,1,1)" stroke-width="0.6" opacity="1" d="M 213.5 223 L 217 231 L 215 229.5 Q 211.9 227.5 213.5 223 Z " /><path fill="rgb(1,1,1)" stroke="rgb(1,1,1)" stroke-width="0.6" opacity="1" d="M 245.5 231 L 247 233 L 240 237.5 Q 236.8 239.8 238 246.5 Q 242 251.9 241 261 Q 237.2 262.1 239 253.5 L 236 246.5 L 236 241.5 L 243.5 232 L 245.5 231 Z " /><path fill="rgb(1,1,1)" stroke="rgb(1,1,1)" stroke-width="0.6" opacity="1" d="M 225.5 242 L 227 243.5 L 227 253.5 L 222.5 260 L 221 258.5 Q 227 254 225.5 242 Z " /><path fill="rgb(1,1,1)" stroke="rgb(1,1,1)" stroke-width="0.6" opacity="1" d="M 300 251 Q 333.3 253.4 350 273.5 L 354 280.5 L 371 299.5 L 377 313.5 L 381 335.5 L 385.5 342 Q 393 342 396 346.5 Q 401.3 351.7 401 362.5 L 404.5 368 L 409 370.5 L 403.5 378 Q 400.2 379.1 401 376.5 L 402 374.5 L 397.5 369 Q 398.9 372.3 404 371 L 399 364.5 L 396 350.5 L 391.5 346 L 385.5 344 L 378 348.5 L 377 357.5 L 378 363.5 L 375 361.5 L 376 343.5 L 371 335.5 L 367 321.5 L 364.5 318 L 363 318.5 L 363 328.5 L 361 331.5 L 358 360.5 L 359 367.5 L 367 382.5 L 367 432.5 Q 371.7 442.8 370 459.5 L 367 466.5 Q 370.7 470.8 369 480.5 L 364.5 486 Q 357.6 491.1 343.5 489 L 336 484.5 L 335 475.5 L 341 464.5 L 341 452.5 L 344 443.5 L 344 427.5 L 343 426.5 L 343 412.5 L 338 392.5 Q 332.2 376.8 321.5 366 Q 318.8 365.4 320 371.5 Q 325.6 378.4 324 392.5 L 316 419.5 L 315 449.5 Q 308.3 455.8 311 471.5 L 306.5 476 L 302.5 478 L 287.5 478 Q 280.9 477.1 278 472.5 L 278 464.5 L 285 453.5 L 285 446.5 L 293 420.5 L 294 384.5 Q 288 366.5 276.5 354 Q 269 352 267 355.5 Q 263.1 369.1 265 388.5 L 266 395.5 L 264 400.5 L 264 427.5 L 269 463.5 Q 265 467.5 265 475.5 Q 268.7 479.8 267 489.5 L 263.5 492 L 264 490.5 L 265 481.5 L 262 475.5 L 266 465.5 L 266 456.5 L 264 441.5 L 262 438.5 L 261 425.5 L 262 424.5 L 262 368.5 L 268 338.5 L 269 319 L 271 319.5 L 271 334.5 L 268 350.5 L 269.5 352 L 295.5 352 L 305.5 349 L 308 346.5 Q 300.7 337.8 301 321.5 L 311.5 306 L 313 307.5 L 305 318.5 Q 302.2 321.2 303 327.5 L 306.5 336 L 312.5 340 L 316 340 Q 317.3 343 313.5 342 L 309.5 340 L 309 342.5 Q 311.6 353.4 319.5 359 L 323.5 356 L 323 357.5 L 321 361.5 L 333.5 378 Q 340.3 378.8 342.5 375 L 342 376.5 L 340.5 379 L 335 381.5 L 342 397.5 L 347 425.5 L 347 440.5 L 343 459.5 L 347 466.5 L 341 469.5 Q 336.8 473.3 338 482.5 Q 342.9 488.6 355.5 487 L 366 481.5 L 367 472.5 L 364.5 468 Q 360.5 471 352.5 470 L 349 469 L 349.5 467 L 363.5 467 L 367 460.5 L 367 442.5 L 364 431.5 L 363 410.5 L 364 409.5 L 364 380.5 L 356 367.5 L 356 355.5 L 354.5 354 Q 347.3 355.3 345 351.5 L 346.5 351 L 355.5 352 Q 359.6 344.6 358 331.5 L 355.5 328 L 358.5 330 L 360 328.5 L 360 301.5 L 356 289 L 352 291 Q 352.3 283.5 347.5 280 Q 343.8 281 345 278 L 348.5 279 L 349 276.5 L 343.5 270 Q 338.2 262.8 327.5 261 L 325.5 262 L 317.5 256 L 300 253 L 300 251 Z M 361 293 Q 364 300 363 311 L 369 320 Q 371 333 377 343 L 380 344 L 382 344 L 378 335 Q 377 319 372 308 L 364 295 L 361 293 Z M 307 350 L 293 355 Q 284 353 282 357 L 296 382 L 297 393 L 296 417 L 292 437 L 288 446 L 288 456 Q 280 460 280 472 L 289 476 Q 300 478 307 474 Q 310 470 309 463 L 304 461 Q 303 458 307 459 L 312 450 L 312 428 L 321 395 L 321 382 L 317 371 L 317 360 L 313 354 Q 312 349 307 350 Z " /><path fill="rgb(1,1,1)" stroke="rgb(1,1,1)" stroke-width="0.6" opacity="1" d="M 278 253 L 280 253.5 L 280 264.5 L 278 265.5 L 278 253 Z " /><path fill="rgb(1,1,1)" stroke="rgb(1,1,1)" stroke-width="0.6" opacity="1" d="M 325 264 L 327 265.5 L 328 273.5 L 324.5 281 L 323 279.5 Q 327 276 326 267.5 L 325 264 Z " /><path fill="rgb(1,1,1)" stroke="rgb(1,1,1)" stroke-width="0.6" opacity="1" d="M 228.5 271 Q 234.3 269.3 233 273 Q 226 272 223 276.5 L 218 284.5 L 217.5 294 Q 214 292 216 284.5 L 224.5 273 L 228.5 271 Z " /><path fill="rgb(1,1,1)" stroke="rgb(1,1,1)" stroke-width="0.6" opacity="1" d="M 236 272 L 242 275.5 L 247 281.5 L 245.5 282 L 236 274 L 236 272 Z " /><path fill="rgb(1,1,1)" stroke="rgb(1,1,1)" stroke-width="0.6" opacity="1" d="M 277.5 280 Q 284.2 278.3 286 281.5 Q 276.4 279.9 274 285.5 L 273 308 L 271 307.5 L 271 286.5 L 274.5 282 L 277.5 280 Z " /><path fill="rgb(1,1,1)" stroke="rgb(1,1,1)" stroke-width="0.6" opacity="1" d="M 289.5 284 L 294 287.5 L 296 291.5 L 292 288.5 L 289.5 284 Z " /><path fill="rgb(1,1,1)" stroke="rgb(1,1,1)" stroke-width="0.6" opacity="1" d="M 254.5 287 L 257 288.5 Q 260 292.5 259 300.5 L 251.5 313 L 250 312.5 L 257 301.5 L 257 292.5 L 254.5 287 Z " /><path fill="rgb(1,1,1)" stroke="rgb(1,1,1)" stroke-width="0.6" opacity="1" d="M 206 288 L 208 289.5 L 212 299.5 L 209 297.5 L 206 288 Z " /><path fill="rgb(1,1,1)" stroke="rgb(1,1,1)" stroke-width="0.6" opacity="1" d="M 298.5 294 L 302 296.5 L 303 305.5 L 294.5 316 L 290 317 Q 288.8 314 292.5 315 L 299 309.5 Q 302.6 306.6 301 298.5 L 298.5 294 Z " /><path fill="rgb(1,1,1)" stroke="rgb(1,1,1)" stroke-width="0.6" opacity="1" d="M 355 301 Q 359 299.6 357 306.5 L 355 312 L 353 310.5 Q 356.4 307.7 355 301 Z " /><path fill="rgb(1,1,1)" stroke="rgb(1,1,1)" stroke-width="0.6" opacity="1" d="M 231.5 316 L 240 317 Q 241.3 320.7 235.5 319 L 231.5 316 Z " /><path fill="rgb(1,1,1)" stroke="rgb(1,1,1)" stroke-width="0.6" opacity="1" d="M 256 325 Q 261.5 324.3 263 329.5 L 261 331 L 258.5 327 Q 254.8 328 256 325 Z " /><path fill="rgb(1,1,1)" stroke="rgb(1,1,1)" stroke-width="0.6" opacity="1" d="M 241.5 331 L 243 331.5 Q 237 334.6 238 343 Q 234.3 344.4 236 338.5 L 241.5 331 Z " /><path fill="rgb(1,1,1)" stroke="rgb(1,1,1)" stroke-width="0.6" opacity="1" d="M 340.5 332 L 341 334.5 L 340 341.5 L 341 345 L 339 343.5 L 338 336.5 L 340.5 332 Z " /><path fill="rgb(1,1,1)" stroke="rgb(1,1,1)" stroke-width="0.6" opacity="1" d="M 341.5 362 Q 346.3 364.5 345 372 Q 341.5 373.1 343 365.5 L 341.5 362 Z " /><path fill="rgb(1,1,1)" stroke="rgb(1,1,1)" stroke-width="0.6" opacity="1" d="M 379.5 367 Q 381.5 372 383.5 369 L 387 370.5 L 388.5 373 L 397 376 Q 398.4 379.7 392.5 378 L 383.5 374 L 380 370.5 L 379.5 367 Z " /><path fill="rgb(1,1,1)" stroke="rgb(1,1,1)" stroke-width="0.6" opacity="1" d="M 247.5 368 L 250 369.5 Q 256.8 375.1 255 388 L 253 387.5 L 253 378.5 L 247.5 368 Z " /><path fill="rgb(1,1,1)" stroke="rgb(1,1,1)" stroke-width="0.6" opacity="1" d="M 240 412 Q 243 410.8 242 414.5 L 244 419.5 L 244 446.5 L 240 466.5 L 241 474.5 L 234 484.5 L 234 491.5 Q 239.2 498.1 252 496 L 251.5 498 L 239.5 498 L 231 492.5 L 231 484.5 L 238 469.5 L 237 461.5 L 241 447.5 L 241 420.5 L 240 412 Z " /><path fill="rgb(1,1,1)" stroke="rgb(1,1,1)" stroke-width="0.6" opacity="1" d="M 256.5 476 Q 261.3 474.7 260 478 L 249 479 Q 247.9 475.5 255.5 477 L 256.5 476 Z " /><path fill="rgb(150,91,45)" stroke="rgb(150,91,45)" stroke-width="0.6" opacity="1" d="M 205.5 19 Q 214.5 17.5 217 22.5 L 218 30.5 Q 217 34 211.5 33 L 202 28.5 L 201 23.5 L 205.5 19 Z " /><path fill="rgb(150,91,45)" stroke="rgb(150,91,45)" stroke-width="0.6" opacity="1" d="M 227.5 83 L 245 83.5 L 227.5 84 L 227.5 83 Z " /><path fill="rgb(150,91,45)" stroke="rgb(150,91,45)" stroke-width="0.6" opacity="1" d="M 224.5 85 L 225 98.5 L 224 98.5 L 224.5 85 Z " /><path fill="rgb(150,91,45)" stroke="rgb(150,91,45)" stroke-width="0.6" opacity="1" d="M 228 96 Q 231.7 94.5 231 97.5 Q 234.6 100.4 233 108.5 L 231 113.5 Q 237.4 116.1 237 125.5 L 233 132.5 L 240 139.5 L 240 148.5 L 237 153.5 L 244 160.5 L 244 167.5 L 240 172.5 L 248 179.5 L 248 187.5 L 246 193.5 Q 253.6 196.4 253 207.5 L 252 212.5 Q 259.6 215.4 259 226.5 Q 257 230 255 225.5 L 247 214.5 L 237 182.5 L 230 145.5 L 229 123.5 L 227 115.5 L 227 99.5 L 228 96 Z " /><path fill="rgb(150,91,45)" stroke="rgb(150,91,45)" stroke-width="0.6" opacity="1" d="M 166.5 150 Q 169.1 149.2 168 152.5 L 163.5 158 L 156.5 160 L 154 156.5 L 166.5 150 Z " /><path fill="rgb(150,91,45)" stroke="rgb(150,91,45)" stroke-width="0.6" opacity="1" d="M 195.5 158 Q 206 156 208 162.5 Q 209.7 169.3 215 172.5 L 216 177.5 L 202.5 199 Q 196.3 199.7 194 196.5 L 194 159.5 L 195.5 158 Z " /><path fill="rgb(150,91,45)" stroke="rgb(150,91,45)" stroke-width="0.6" opacity="1" d="M 249.5 231 L 256.5 231 L 276 247.5 Q 279.4 253.6 278 264.5 L 271.5 273 L 262.5 275 Q 249.1 270.9 241 261.5 L 241 252.5 L 238 242.5 L 244.5 234 L 249.5 231 Z " /><path fill="rgb(150,91,45)" stroke="rgb(150,91,45)" stroke-width="0.6" opacity="1" d="M 296.5 252 L 318.5 257 L 324 261.5 L 326 272.5 L 319.5 283 L 308.5 284 L 299 281 L 297.5 279 L 298 277.5 L 294 265.5 L 295 263.5 L 293 256.5 L 296.5 252 Z " /><path fill="rgb(150,91,45)" stroke="rgb(150,91,45)" stroke-width="0.6" opacity="1" d="M 270.5 291 L 271 306.5 L 270 306.5 L 270.5 291 Z " /><path fill="rgb(150,91,45)" stroke="rgb(150,91,45)" stroke-width="0.6" opacity="1" d="M 359.5 304 L 360 326.5 L 359 326.5 L 359.5 304 Z " /><path fill="rgb(150,91,45)" stroke="rgb(150,91,45)" stroke-width="0.6" opacity="1" d="M 270.5 318 L 272 319.5 L 272 334.5 L 271 334.5 L 271 319.5 L 270.5 318 Z " /><path fill="rgb(150,91,45)" stroke="rgb(150,91,45)" stroke-width="0.6" opacity="1" d="M 347.5 328 Q 354.8 326.8 357 330.5 L 358 342.5 Q 357.6 349.1 353.5 352 Q 344.6 352.4 342 346.5 L 340 336.5 L 345.5 329 L 347.5 328 Z " /><path fill="rgb(150,91,45)" stroke="rgb(150,91,45)" stroke-width="0.6" opacity="1" d="M 385.5 344 Q 392.7 345.8 396 351.5 L 398 362.5 L 404 371 L 400.5 371 L 396 368 L 401 376 Q 390.1 376.7 386 369.5 L 385 366 Q 382 364.8 383 368.5 L 380 366.5 Q 376.3 360.7 378 349.5 L 385.5 344 Z " /><path fill="rgb(150,91,45)" stroke="rgb(150,91,45)" stroke-width="0.6" opacity="1" d="M 307.5 350 L 311 351.5 L 317 360.5 L 317 372.5 Q 322.4 379.1 321 392.5 L 312 425.5 L 312 448.5 L 306.5 459 Q 293.4 461.1 288 455.5 L 288 447.5 L 292 437.5 L 297 413.5 L 298 394.5 L 296 380.5 L 283 355 L 294.5 355 L 307.5 350 Z " /><path fill="rgb(150,91,45)" stroke="rgb(150,91,45)" stroke-width="0.6" opacity="1" d="M 274.5 351 L 292 351.5 L 274.5 352 L 274.5 351 Z " /><path fill="rgb(150,91,45)" stroke="rgb(150,91,45)" stroke-width="0.6" opacity="1" d="M 205.5 353 Q 212.5 351.5 214 355.5 L 220 372 L 213.5 377 L 208.5 378 L 204 376 L 203 355.5 L 205.5 353 Z " /><path fill="rgb(150,91,45)" stroke="rgb(150,91,45)" stroke-width="0.6" opacity="1" d="M 363.5 384 L 364 406.5 L 363 406.5 L 363.5 384 Z " /><path fill="rgb(150,91,45)" stroke="rgb(150,91,45)" stroke-width="0.6" opacity="1" d="M 244.5 419 L 245 446.5 L 244 446.5 L 244.5 419 Z " /><path fill="rgb(150,91,45)" stroke="rgb(150,91,45)" stroke-width="0.6" opacity="1" d="M 347.5 426 L 348 436.5 L 347 436.5 L 347.5 426 Z " /><path fill="rgb(150,91,45)" stroke="rgb(150,91,45)" stroke-width="0.6" opacity="1" d="M 366.5 445 L 367 457.5 L 366 457.5 L 366.5 445 Z " /><path fill="rgb(150,91,45)" stroke="rgb(150,91,45)" stroke-width="0.6" opacity="1" d="M 348.5 466 L 363 466.5 L 348.5 467 L 348.5 466 Z " /><path fill="rgb(150,91,45)" stroke="rgb(150,91,45)" stroke-width="0.6" opacity="1" d="M 343.5 467 Q 349.3 471.2 360.5 470 L 366 469 L 366 480.5 L 362.5 484 Q 356.8 488.3 344.5 486 L 338 482.5 L 338 476.5 L 343.5 467 Z " /><path fill="rgb(244,220,142)" stroke="rgb(244,220,142)" stroke-width="0.6" opacity="1" d="M 166.5 17 Q 173.7 16.3 176 20.5 Q 177 27 173.5 29 L 162.5 29 L 160 26.5 L 160 23.5 L 164.5 18 L 166.5 17 Z " /><path fill="rgb(244,220,142)" stroke="rgb(244,220,142)" stroke-width="0.6" opacity="1" d="M 113.5 46 Q 137.8 43.7 146 57.5 L 147 60.5 L 142.5 66 L 135 60.5 L 130.5 54 L 123.5 51 L 114.5 51 L 112 52 L 112.5 54 L 122.5 54 L 140 69.5 L 136.5 77 Q 119.3 77.2 112 67.5 L 105 54.5 L 105 50.5 L 113.5 46 Z " /><path fill="rgb(244,220,142)" stroke="rgb(244,220,142)" stroke-width="0.6" opacity="1" d="M 146 90 L 152 90 L 152 92 L 149.5 92 L 144 96.5 L 142.5 99 L 142 96.5 L 146 90 Z " /><path fill="rgb(244,220,142)" stroke="rgb(244,220,142)" stroke-width="0.6" opacity="1" d="M 228.5 274 L 236.5 274 L 256 291.5 L 255 304.5 L 247.5 314 Q 243.5 317.5 234.5 316 L 224 309.5 L 218 286.5 L 226.5 275 L 228.5 274 Z " /><path fill="rgb(244,220,142)" stroke="rgb(244,220,142)" stroke-width="0.6" opacity="1" d="M 342.5 280 L 349 282.5 L 355 305.5 L 350.5 312 L 344.5 312 L 336.5 304 L 327 298.5 L 327 292.5 L 331.5 287 L 342.5 280 Z " /><path fill="rgb(244,220,142)" stroke="rgb(244,220,142)" stroke-width="0.6" opacity="1" d="M 280.5 282 Q 288 282.5 291 287.5 L 300 297.5 L 300 306.5 L 294.5 313 Q 291.8 315.8 285.5 315 Q 277.3 314.3 274 308.5 L 273 288.5 L 277.5 283 L 280.5 282 Z " /><path fill="rgb(244,220,142)" stroke="rgb(244,220,142)" stroke-width="0.6" opacity="1" d="M 363 297 L 365 298.5 L 373 312.5 L 377 328.5 L 377 334.5 L 380 342.5 L 377 340.5 Q 371.5 332 370 319.5 L 363 308.5 L 363 297 Z " /><path fill="rgb(244,220,142)" stroke="rgb(244,220,142)" stroke-width="0.6" opacity="1" d="M 202 330 L 208 334.5 L 213.5 341 L 228 350.5 L 229 366.5 L 225 381.5 L 225 393.5 L 221 401.5 L 217 421.5 L 216 454.5 L 209.5 465 Q 197.1 466.9 192 461.5 L 192 455.5 L 198 442.5 L 201 427.5 L 202 393.5 L 201 386.5 L 203 380 L 211.5 381 L 220 374.5 L 221 364.5 L 212.5 350 L 204.5 351 L 203 349.5 L 202 330 Z " /><path fill="rgb(244,220,142)" stroke="rgb(244,220,142)" stroke-width="0.6" opacity="1" d="M 242.5 369 Q 248 368 249 371.5 L 253 380.5 L 253 386.5 L 249.5 391 L 241.5 392 Q 234.9 387.1 237 373.5 L 242.5 369 Z " /><path fill="rgb(244,220,142)" stroke="rgb(244,220,142)" stroke-width="0.6" opacity="1" d="M 190.5 464 L 199.5 468 L 210.5 468 L 212 469.5 Q 213.3 477.8 208.5 480 Q 202 484 189.5 482 L 184 478.5 L 184 473.5 L 190.5 464 Z " /><path fill="rgb(244,220,142)" stroke="rgb(244,220,142)" stroke-width="0.6" opacity="1" d="M 239 477 L 254.5 480 L 261.5 478 Q 266.3 480.3 264 489.5 Q 257.9 497.9 240.5 495 L 234 490.5 L 234 486.5 L 239 477 Z " /><path fill="rgb(31,31,31)" stroke="rgb(31,31,31)" stroke-width="0.6" opacity="1" d="M 171.5 44 L 170.5 46 L 167 47.5 L 166.5 51 L 164 50 L 162.5 54 L 161.5 52 L 160 52.5 L 165 48.5 L 166.5 47 L 171.5 44 Z " /><path fill="rgb(31,31,31)" stroke="rgb(31,31,31)" stroke-width="0.6" opacity="1" d="M 180.5 57 L 178.5 60 L 176.5 61 L 174 60.5 L 180.5 57 Z " /><path fill="rgb(31,31,31)" stroke="rgb(31,31,31)" stroke-width="0.6" opacity="1" d="M 211.5 168 L 217 171.5 L 215.5 173 L 211.5 168 Z " /><path fill="rgb(31,31,31)" stroke="rgb(31,31,31)" stroke-width="0.6" opacity="1" d="M 277.5 266 L 279 267.5 L 276 272 L 271.5 275 L 270.5 273 L 278 267.5 L 277.5 266 Z " /><path fill="rgb(31,31,31)" stroke="rgb(31,31,31)" stroke-width="0.6" opacity="1" d="M 217 294 Q 220 292.8 219 296.5 L 221 302.5 L 219 301.5 L 217 294 Z " /><path fill="rgb(31,31,31)" stroke="rgb(31,31,31)" stroke-width="0.6" opacity="1" d="M 227.5 313 L 229.5 316 L 231.5 315 L 231.5 318 L 226 314.5 L 227.5 313 Z " /><path fill="rgb(31,31,31)" stroke="rgb(31,31,31)" stroke-width="0.6" opacity="1" d="M 203.5 327 L 211 334.5 L 209.5 336 L 203.5 327 Z " /><path fill="rgb(31,31,31)" stroke="rgb(31,31,31)" stroke-width="0.6" opacity="1" d="M 339.5 345 L 341 346.5 L 346 350.5 L 343.5 351 L 339.5 345 Z " /><path fill="rgb(31,31,31)" stroke="rgb(31,31,31)" stroke-width="0.6" opacity="1" d="M 258.5 351 L 259 353.5 L 253 358 L 254.5 356 L 258.5 351 Z " /><path fill="rgb(31,31,31)" stroke="rgb(31,31,31)" stroke-width="0.6" opacity="1" d="M 215 357 L 217 357.5 L 216.5 359 L 218 360.5 L 220 365 L 218 364.5 L 218.5 363 L 217 361.5 L 215 357 Z " /><path fill="rgb(31,31,31)" stroke="rgb(31,31,31)" stroke-width="0.6" opacity="1" d="M 376.5 363 L 379 363.5 L 378 365.5 L 380 366.5 L 380 368.5 L 379.5 370 L 376.5 363 Z " /><path fill="rgb(61,61,56)" stroke="rgb(61,61,56)" stroke-width="0.6" opacity="1" d="M 219.5 215 L 231 221.5 L 230.5 224 L 221 218.5 L 220.5 217 L 219 217.5 L 219.5 215 Z " /><path fill="rgb(61,61,56)" stroke="rgb(61,61,56)" stroke-width="0.6" opacity="1" d="M 247.5 327 L 250 327.5 L 243.5 332 L 243.5 329 L 245 329.5 L 246.5 328 L 247.5 327 Z " /><path fill="rgb(93,91,70)" stroke="rgb(93,91,70)" stroke-width="0.6" opacity="1" d="M 326.5 336 L 327.5 338 L 321.5 342 L 326.5 336 Z " /><path fill="rgb(206,185,70)" stroke="rgb(206,185,70)" stroke-width="0.6" opacity="1" d="M 137 97 L 139 97.5 L 139 104 Q 136 102.8 137 106.5 L 136 106.5 L 138 99.5 L 137 97 Z " /><path fill="rgb(206,185,70)" stroke="rgb(206,185,70)" stroke-width="0.6" opacity="1" d="M 356 297 Q 359 295.8 358 299.5 L 359 306 Q 355.5 307.1 357 299.5 L 356 297 Z " /><path fill="rgb(206,185,70)" stroke="rgb(206,185,70)" stroke-width="0.6" opacity="1" d="M 261.5 371 L 262 384.5 L 261 384.5 L 261.5 371 Z " /><path fill="rgb(118,117,117)" stroke="rgb(118,117,117)" stroke-width="0.6" opacity="1" d="M 133.5 62 L 141 70.5 L 140 70.5 L 133.5 62 Z " /><path fill="rgb(118,117,117)" stroke="rgb(118,117,117)" stroke-width="0.6" opacity="1" d="M 198.5 98 L 201 99.5 L 200.5 101 L 200 99 L 197 100.5 Q 195.9 103.8 198.5 103 L 200 102.5 L 197.5 104 L 196 100.5 L 198.5 98 Z " /><path fill="rgb(118,117,117)" stroke="rgb(118,117,117)" stroke-width="0.6" opacity="1" d="M 337.5 305 L 344.5 313 L 337.5 305 Z " /><path fill="rgb(134,133,70)" stroke="rgb(134,133,70)" stroke-width="0.6" opacity="1" d="M 211.5 57 L 215.5 62 L 217 62.5 L 215.5 63 L 211.5 57 Z " /><path fill="rgb(134,133,70)" stroke="rgb(134,133,70)" stroke-width="0.6" opacity="1" d="M 321.5 311 L 328.5 319 L 321.5 311 Z " /><path fill="rgb(151,151,144)" stroke="rgb(151,151,144)" stroke-width="0.6" opacity="1" d="M 240.5 277 L 245.5 283 L 240.5 277 Z " /><path fill="rgb(226,226,226)" stroke="rgb(226,226,226)" stroke-width="0.6" opacity="1" d="M 263.5 75 L 258.5 81 L 263.5 75 Z " /><path fill="rgb(226,226,226)" stroke="rgb(226,226,226)" stroke-width="0.6" opacity="1" d="M 360.5 285 L 365.5 291 L 360.5 285 Z " /></svg>