<svg width="1254" height="1254" preserveAspectRatio="xMidYMid meet" viewBox="0 0 512 512" version="1.1" xmlns="http://www.w3.org/2000/svg" ><path fill="rgb(255,255,255)" stroke="rgb(255,255,255)" stroke-width="0.6" opacity="1" d="M 0 0 L 512 0 L 512 512 L 0 512 L 0 0 Z M 168 13 L 161 16 L 157 21 L 157 28 L 163 36 L 161 51 L 152 57 L 150 57 L 138 46 L 126 42 Q 109 40 102 49 L 102 57 L 108 68 L 119 77 L 135 83 L 132 110 L 123 125 L 122 130 Q 122 139 126 145 Q 131 152 142 154 L 145 163 L 154 169 Q 167 171 173 165 L 182 152 L 189 148 L 190 150 L 192 240 L 194 251 L 194 261 L 189 285 L 190 303 L 196 319 L 200 352 L 200 377 L 198 383 L 198 396 L 199 397 L 199 411 L 195 437 L 189 453 L 189 459 L 181 472 L 180 480 Q 183 486 193 486 Q 204 487 211 483 L 215 479 L 215 464 L 218 460 L 220 451 L 220 431 L 222 416 L 229 392 Q 228 382 231 376 Q 229 369 233 370 L 234 395 Q 240 406 241 423 L 241 443 L 237 461 L 237 473 L 230 488 L 231 494 Q 235 498 243 499 Q 257 500 265 494 L 268 487 L 266 478 L 266 472 L 269 465 L 269 456 L 264 426 L 264 404 L 266 397 L 265 387 L 265 371 L 267 357 L 270 354 L 277 355 L 289 374 L 294 387 Q 295 406 292 422 L 285 446 L 285 453 L 277 467 L 277 473 Q 281 479 291 479 Q 301 480 308 476 L 312 470 L 311 464 L 311 459 L 315 450 L 316 423 L 324 393 Q 326 380 321 374 L 322 367 Q 339 385 343 418 L 343 446 Q 340 452 341 464 Q 336 470 334 480 L 335 485 L 343 489 Q 359 491 367 485 L 370 479 L 368 470 L 368 464 L 371 454 L 367 428 L 367 382 L 359 366 L 359 350 L 363 330 L 363 321 L 365 319 L 372 339 L 376 345 L 375 349 Q 373 365 380 372 L 386 376 L 394 379 L 405 378 L 410 370 L 407 368 L 402 363 L 398 349 Q 394 342 386 341 L 382 337 L 375 308 L 364 290 L 361 287 L 352 276 Q 343 263 328 257 L 284 246 Q 270 241 261 232 L 262 228 Q 263 214 255 210 L 256 208 Q 258 195 250 192 L 251 189 Q 253 176 246 173 L 247 169 Q 249 155 241 153 L 244 146 Q 244 135 238 132 L 240 127 Q 241 116 235 113 L 236 109 L 236 100 L 229 89 L 232 88 Q 250 89 259 80 Q 268 73 271 60 L 270 51 L 260 46 Q 232 45 222 60 L 210 53 L 213 38 L 218 35 L 222 29 L 221 23 L 214 16 Q 201 14 198 22 Q 196 29 200 32 L 196 44 Q 197 47 195 46 L 193 44 Q 190 37 181 37 L 179 40 L 176 39 Q 174 29 180 27 L 180 20 Q 177 13 168 13 Z " /><path fill="rgb(236,190,71)" stroke="rgb(236,190,71)" stroke-width="0.6" opacity="1" d="M 167.5 31 L 172 32.5 L 173 42 L 166 45 L 166 32.5 L 167.5 31 Z " /><path fill="rgb(236,190,71)" stroke="rgb(236,190,71)" stroke-width="0.6" opacity="1" d="M 204.5 33 Q 209.3 32.3 210 35.5 Q 205.5 43 207 56.5 L 209.5 57 L 218 63.5 L 216 68 L 219.5 67 L 235.5 53 Q 243.5 49 255.5 49 L 264.5 51 L 268 54.5 Q 265.7 70.2 255.5 78 Q 247.2 86.2 228.5 84 L 223.5 82 Q 219.7 84.2 225 86.5 Q 225.9 100.4 222 109.5 L 224 111.5 Q 223.2 123.3 226 131.5 L 217 138.5 Q 213 142.5 213 150.5 L 221.5 161 L 230 162 L 232 175 L 223 179.5 L 220 185.5 L 220 192.5 L 215 205.5 L 215 211.5 L 220.5 219 Q 225.9 224.6 236.5 225 L 247 219 L 252 229 Q 242 229 238 236.5 Q 234.8 239.8 236 247.5 Q 239.5 251.5 238 260.5 L 242.5 267 L 257.5 276 L 266.5 277 Q 274.4 274.9 278 268.5 L 281 257.5 L 279 248 L 291 251 L 291 260.5 Q 294.8 265.2 294 274.5 L 300.5 283 Q 306.3 287.2 317.5 286 L 326 279.5 Q 329.3 274.8 328 265.5 L 327 262 Q 341.6 265.4 349 277.5 L 348.5 279 L 340.5 278 Q 330.4 282.4 324 290.5 L 323 295.5 L 328.5 304 Q 336.1 305.9 340 311.5 L 341.5 314 L 348.5 316 L 355 311.5 Q 358.3 307.8 357 299.5 L 354 289 Q 357 287.8 356 291.5 Q 362.5 304 360 325.5 L 359 329 Q 355.9 324.8 346.5 326 L 339 332.5 L 338 343.5 L 342.5 351 Q 346.7 355.2 355 354 L 355 364.5 L 362 377.5 L 364 385.5 L 364 400.5 L 363 401.5 L 363 420.5 L 367 446.5 L 367 457.5 L 361.5 467 Q 349.9 469.1 345 464.5 L 344 455.5 Q 348.7 442.2 347 422.5 L 343 399.5 L 336 380 L 344 375.5 L 345 365.5 L 333.5 352 Q 321.9 350.4 319.5 358 Q 311.8 351.7 309 340.5 L 310.5 341 L 320.5 342 L 330 335.5 Q 334 331.5 334 323.5 L 328.5 315 L 323 310.5 L 319.5 306 L 312.5 305 L 308 308.5 L 301 320.5 L 301 329.5 L 307 348 Q 294.8 353.1 275.5 352 L 269 351 Q 271.9 336.3 271 318 Q 267 316.6 269 323.5 L 262 366.5 L 261 381.5 L 262 382.5 L 262 399.5 L 260 415.5 L 262 439.5 L 265 453.5 L 265 466.5 L 260.5 475 L 246.5 476 L 241 472.5 L 241 458.5 L 244 447.5 L 245 430.5 L 243 411.5 L 238 394 L 245.5 395 L 255 387.5 L 256 380.5 L 252 371.5 L 247.5 367 L 241.5 366 L 235 368 Q 231.3 342.7 222 323 Q 219 321.8 220 325.5 L 225 343 Q 212.6 338.3 205 327.5 L 199 316 Q 210.4 318.2 213 310.5 L 214 300.5 L 203.5 280 L 194 279 L 197 262 L 204.5 267 L 210.5 268 Q 220.1 266.1 224 258.5 L 228 246.5 L 225 238.5 L 219 232.5 L 210.5 218 Q 207 213.5 197.5 215 L 195 216 L 195 201 L 202.5 201 L 207 197.5 Q 210.8 186.3 218 178.5 L 218 172.5 L 205.5 157 L 197.5 155 L 195.5 156 Q 192 154 193 147.5 Q 206.4 141.4 215 130.5 L 219 120 L 216 121.5 Q 213.4 130.4 206.5 135 L 192.5 143 L 186 144 Q 188.5 124.9 177.5 118 Q 169.1 109.7 154 109 Q 157.8 104.4 157 94.5 Q 156.4 88.2 151.5 86 Q 142.5 84.5 141 90.5 Q 137.3 94.8 139 104.5 L 141 109.5 L 135 112 Q 137.9 103.2 137 89.5 L 140 77.5 Q 144.2 66.7 152.5 60 L 165.5 51 L 166 54.5 L 165 61.5 Q 166.3 65.3 172.5 64 L 186 55.5 L 184.5 54 L 169.5 61 L 168 56.5 L 172.5 51 L 174 49 Q 169.2 50.9 170 47.5 Q 172.5 43 180.5 44 L 184 45 L 182 41.5 L 184.5 41 L 191 46.5 L 194.5 52 L 197 50.5 L 204.5 33 Z M 249 55 L 238 60 L 228 72 L 223 76 L 221 78 L 231 79 Q 244 80 249 74 L 249 72 L 241 76 L 231 76 L 229 75 L 233 70 Q 240 56 260 57 L 260 55 L 249 55 Z M 150 71 L 144 76 L 146 78 L 152 75 L 154 76 Q 156 77 155 74 Q 154 70 150 71 Z M 197 72 L 194 75 L 206 81 L 208 80 L 207 78 Q 205 72 197 72 Z M 194 87 L 190 89 L 183 100 Q 182 107 185 111 L 190 115 L 201 116 L 207 105 Q 208 97 205 93 Q 202 87 194 87 Z M 228 271 L 224 273 L 216 283 L 216 293 L 223 313 Q 227 318 236 319 Q 244 320 249 316 Q 258 310 260 298 L 257 288 L 246 280 L 244 278 Q 241 269 228 271 Z M 278 280 L 276 281 L 270 290 L 271 308 L 273 312 L 283 317 Q 293 319 298 314 L 304 304 L 302 296 L 297 291 L 293 286 Q 290 278 278 280 Z M 254 324 L 243 329 L 236 337 L 237 346 L 243 356 L 249 359 L 255 358 L 259 354 L 264 340 L 263 329 Q 261 323 254 324 Z " /><path fill="rgb(236,190,71)" stroke="rgb(236,190,71)" stroke-width="0.6" opacity="1" d="M 194.5 90 Q 200.9 90.1 203 94.5 L 204 98 L 199.5 95 L 193.5 95 Q 187.3 97.8 188 107.5 L 189 110 Q 186 111.3 187 107.5 L 186 98.5 L 191.5 91 L 194.5 90 Z " /><path fill="rgb(236,190,71)" stroke="rgb(236,190,71)" stroke-width="0.6" opacity="1" d="M 144.5 112 Q 169.9 109.6 179 123.5 Q 183.6 128.9 184 138.5 Q 180.1 154.1 169.5 163 Q 165.4 166.9 156.5 166 L 147 159.5 Q 145.1 154.1 148.5 155 L 154.5 162 Q 166.3 163.3 169 155.5 L 177.5 139 L 180 137.5 Q 178.7 133.3 174 134 Q 174.2 143.8 166.5 147 Q 159.7 152.7 146.5 152 Q 134.6 150.4 129 142.5 Q 124.5 138 126 127.5 L 131.5 118 L 144.5 112 Z M 137 120 L 135 126 L 140 128 Q 142 127 141 122 L 137 120 Z M 161 122 Q 156 123 157 129 L 163 130 L 166 125 Q 165 121 161 122 Z " /><path fill="rgb(236,190,71)" stroke="rgb(236,190,71)" stroke-width="0.6" opacity="1" d="M 223.5 136 L 226 137.5 L 229 158.5 L 224.5 160 L 217 153.5 L 216 145.5 L 223.5 136 Z " /><path fill="rgb(236,190,71)" stroke="rgb(236,190,71)" stroke-width="0.6" opacity="1" d="M 228.5 178 L 234 179.5 Q 237.2 199.8 244 216.5 L 241.5 220 Q 238.8 222.8 232.5 222 Q 223.4 220.1 219 213.5 L 218 204.5 L 222 196.5 L 223 184.5 L 228.5 178 Z " /><path fill="rgb(236,190,71)" stroke="rgb(236,190,71)" stroke-width="0.6" opacity="1" d="M 199.5 217 Q 208.6 217.4 212 223.5 Q 215.2 235.3 224 241.5 L 225 249.5 Q 223.1 258.6 216.5 263 Q 213.5 266 206.5 265 L 199 259.5 L 197 253.5 L 195 220.5 L 199.5 217 Z " /><path fill="rgb(236,190,71)" stroke="rgb(236,190,71)" stroke-width="0.6" opacity="1" d="M 196.5 281 Q 203 280 204 284.5 L 212 305.5 Q 211.6 311.1 207.5 313 L 200.5 314 L 196 311.5 Q 191.6 300.4 193 283.5 L 196.5 281 Z " /><path fill="rgb(236,190,71)" stroke="rgb(236,190,71)" stroke-width="0.6" opacity="1" d="M 312.5 308 Q 319.5 306.5 321 310.5 L 330 320.5 L 331 328.5 L 323.5 338 Q 320.8 340.8 314.5 340 L 307 335.5 Q 303 330.5 304 320.5 L 312.5 308 Z " /><path fill="rgb(236,190,71)" stroke="rgb(236,190,71)" stroke-width="0.6" opacity="1" d="M 252.5 327 Q 259.8 325.8 261 330.5 L 262 337.5 L 257 352.5 L 253.5 356 Q 245.5 357.5 244 352.5 L 239 343.5 L 239 336.5 L 242.5 332 L 252.5 327 Z " /><path fill="rgb(236,190,71)" stroke="rgb(236,190,71)" stroke-width="0.6" opacity="1" d="M 327.5 354 Q 334.4 353.1 336 357.5 L 342 364.5 L 343 371.5 L 338.5 377 L 334.5 378 L 323 363.5 L 322 358.5 L 327.5 354 Z " /><path fill="rgb(236,190,71)" stroke="rgb(236,190,71)" stroke-width="0.6" opacity="1" d="M 285.5 458 L 293.5 461 L 302.5 462 L 306.5 461 Q 310 463 308 470.5 Q 302.4 477.4 287.5 475 Q 282 474.6 280 470.5 L 285.5 458 Z " /><path fill="rgb(150,91,45)" stroke="rgb(150,91,45)" stroke-width="0.6" opacity="1" d="M 205.5 19 Q 215.6 17.4 218 23.5 Q 219.5 31.5 214.5 33 L 202 29.5 L 201 23.5 L 203.5 20 L 205.5 19 Z " /><path fill="rgb(150,91,45)" stroke="rgb(150,91,45)" stroke-width="0.6" opacity="1" d="M 228 95 L 230 96.5 Q 234.1 99.4 233 107.5 L 230 111.5 Q 236.7 114.8 237 124.5 L 234 132.5 Q 240.1 135.9 241 144.5 L 236 152.5 L 242 157.5 Q 245 160.5 244 167.5 L 241 172.5 L 246 176.5 Q 249 179.5 248 186.5 L 245 191.5 Q 253.5 194.5 253 206.5 L 251 210.5 L 256 214.5 Q 259.8 217.7 259 225.5 L 258 228 L 255 226.5 L 246 211.5 L 236 176.5 L 228 127.5 L 227 99.5 L 228 95 Z " /><path fill="rgb(150,91,45)" stroke="rgb(150,91,45)" stroke-width="0.6" opacity="1" d="M 166.5 150 Q 169.1 149.2 168 152.5 L 163.5 158 L 156.5 160 L 154 156.5 L 166.5 150 Z " /><path fill="rgb(150,91,45)" stroke="rgb(150,91,45)" stroke-width="0.6" opacity="1" d="M 194.5 158 Q 205.3 156.2 208 162.5 L 215 171.5 L 216 177.5 L 203.5 198 L 197.5 199 L 194 195.5 L 194 161.5 L 193 159.5 L 194.5 158 Z " /><path fill="rgb(150,91,45)" stroke="rgb(150,91,45)" stroke-width="0.6" opacity="1" d="M 249.5 231 L 255.5 231 L 276 246.5 Q 278.8 252.7 278 262.5 Q 276.2 269.7 270.5 273 L 261.5 275 L 242 263.5 L 238 242.5 L 243.5 234 L 249.5 231 Z " /><path fill="rgb(150,91,45)" stroke="rgb(150,91,45)" stroke-width="0.6" opacity="1" d="M 295.5 252 L 314.5 256 L 324 260.5 L 326 271.5 L 320.5 282 Q 316.9 284.9 309.5 284 Q 301.7 282.8 298 277.5 L 296 273.5 L 296 266.5 L 293 255.5 L 295.5 252 Z " /><path fill="rgb(150,91,45)" stroke="rgb(150,91,45)" stroke-width="0.6" opacity="1" d="M 347.5 328 Q 357.1 326.9 359 333.5 L 357 346.5 L 354.5 351 L 351.5 353 Q 344.3 351.2 341 345.5 L 341 342 Q 338 343.3 339 339.5 L 339 337.5 L 341 336 L 341 333.5 L 347.5 328 Z " /><path fill="rgb(150,91,45)" stroke="rgb(150,91,45)" stroke-width="0.6" opacity="1" d="M 385.5 344 Q 393.4 345.1 396 351.5 L 399 363.5 L 403 371 L 397.5 369 L 397 370.5 L 402 374.5 Q 402.5 377.5 395.5 376 L 388 371.5 L 385 364 L 383 365.5 L 384 369.5 L 381 367.5 Q 376.4 361.6 378 349.5 L 385.5 344 Z " /><path fill="rgb(150,91,45)" stroke="rgb(150,91,45)" stroke-width="0.6" opacity="1" d="M 308.5 350 L 311 351.5 L 317 360.5 L 317 370.5 L 321 382.5 L 321 391.5 L 312 427.5 L 312 448.5 L 306.5 459 Q 293.8 460.5 288 456 L 288 447.5 Q 294.6 430.6 297 409.5 L 297 384.5 L 282 355 Q 298.1 355.8 308.5 350 Z " /><path fill="rgb(150,91,45)" stroke="rgb(150,91,45)" stroke-width="0.6" opacity="1" d="M 205.5 353 Q 213.5 351.5 215 356.5 L 219 366.5 L 219 370.5 L 215.5 376 L 207.5 378 L 203 374.5 L 204 361.5 L 203 355.5 L 205.5 353 Z " /><path fill="rgb(150,91,45)" stroke="rgb(150,91,45)" stroke-width="0.6" opacity="1" d="M 343.5 466 Q 348 470.5 357.5 470 L 363.5 468 Q 367.9 471.1 366 480.5 Q 359.9 488.4 343.5 486 L 338 482.5 L 338 476.5 L 343.5 466 Z " /><path fill="rgb(244,220,142)" stroke="rgb(244,220,142)" stroke-width="0.6" opacity="1" d="M 165.5 17 Q 173.5 15.5 176 19.5 L 177 23.5 L 173.5 29 L 169.5 28 L 162.5 29 L 160 22.5 L 163.5 18 L 165.5 17 Z " /><path fill="rgb(244,220,142)" stroke="rgb(244,220,142)" stroke-width="0.6" opacity="1" d="M 113.5 46 Q 137.3 44.3 146 57.5 L 147 61.5 L 141.5 66 L 137 62.5 L 129.5 54 Q 124.7 49.8 114.5 51 L 112 52 L 113.5 54 L 116.5 53 Q 127.3 53.7 132 60.5 L 140 70.5 L 135.5 77 L 124.5 76 L 111 65.5 Q 105.7 60.3 105 50.5 L 113.5 46 Z " /><path fill="rgb(244,220,142)" stroke="rgb(244,220,142)" stroke-width="0.6" opacity="1" d="M 146.5 89 Q 152 88 153 91.5 L 151.5 93 L 148.5 92 L 145 94.5 L 143 101 Q 139.7 102.3 141 97.5 L 146.5 89 Z " /><path fill="rgb(244,220,142)" stroke="rgb(244,220,142)" stroke-width="0.6" opacity="1" d="M 230.5 273 L 237.5 275 L 256 290.5 L 257 298.5 Q 255.1 307.1 249.5 312 Q 245.1 317.6 233.5 316 L 224 309.5 L 218 286.5 Q 219.4 278.4 225.5 275 L 230.5 273 Z " /><path fill="rgb(244,220,142)" stroke="rgb(244,220,142)" stroke-width="0.6" opacity="1" d="M 341.5 280 Q 348.4 279.1 350 283.5 L 354 298.5 L 354 308.5 Q 352.8 314.2 344.5 313 L 327 298.5 L 326 292.5 L 330.5 287 L 341.5 280 Z " /><path fill="rgb(244,220,142)" stroke="rgb(244,220,142)" stroke-width="0.6" opacity="1" d="M 279.5 282 Q 289.3 281.7 292 288.5 L 300 297.5 L 301 304.5 L 294.5 313 L 285.5 315 Q 277.3 314.3 274 308.5 L 273 300.5 L 274 297.5 L 273 288.5 L 277.5 283 L 279.5 282 Z " /><path fill="rgb(244,220,142)" stroke="rgb(244,220,142)" stroke-width="0.6" opacity="1" d="M 361 293 L 363 294.5 L 372 309.5 L 378 334.5 L 382 343.5 Q 380 347 378 342.5 L 368 315.5 L 364 309.5 L 361 293 Z " /><path fill="rgb(244,220,142)" stroke="rgb(244,220,142)" stroke-width="0.6" opacity="1" d="M 201 329 L 203 330.5 L 212.5 340 L 228 350.5 L 230 361.5 Q 225.3 374.8 225 392.5 L 218 418.5 L 216 435.5 L 216 453.5 Q 214.8 461.3 209.5 465 Q 196.6 466.9 192 460.5 L 193 451.5 L 200 429.5 L 203 399.5 L 201 388.5 L 202 380.5 L 203.5 379 L 212.5 380 L 219 375.5 Q 222 372.5 221 365.5 Q 219.2 355.8 212.5 351 L 207.5 350 L 203 351 L 201 329 Z " /><path fill="rgb(244,220,142)" stroke="rgb(244,220,142)" stroke-width="0.6" opacity="1" d="M 240.5 369 Q 247.5 367.5 249 371.5 L 253 379.5 L 253 385.5 L 248.5 391 L 240.5 392 L 238 389.5 L 237 371.5 L 240.5 369 Z " /><path fill="rgb(244,220,142)" stroke="rgb(244,220,142)" stroke-width="0.6" opacity="1" d="M 189.5 464 Q 196.4 468.6 208.5 468 Q 210.3 465.3 212 469.5 Q 213.8 478.3 208.5 480 Q 201.6 483.6 189.5 482 L 184 478.5 Q 183.8 468.3 189.5 464 Z " /><path fill="rgb(244,220,142)" stroke="rgb(244,220,142)" stroke-width="0.6" opacity="1" d="M 238 476 Q 244.3 480 256.5 479 L 263 478 L 264 488.5 L 261.5 492 Q 254.3 496.8 240.5 495 L 234 491.5 L 234 485.5 L 238 476 Z " /><path fill="rgb(12,13,15)" stroke="rgb(12,13,15)" stroke-width="0.6" opacity="1" d="M 167 14 Q 176 13.3 179 19.5 L 177 21 L 174.5 17 L 167 16 L 167 14 Z " /><path fill="rgb(12,13,15)" stroke="rgb(12,13,15)" stroke-width="0.6" opacity="1" d="M 163.5 15 L 165 17 L 160 20.5 L 158 22 L 160.5 17 L 163.5 15 Z " /><path fill="rgb(12,13,15)" stroke="rgb(12,13,15)" stroke-width="0.6" opacity="1" d="M 204.5 17 L 206 19 L 201 21.5 L 199 23 L 202.5 18 L 204.5 17 Z " /><path fill="rgb(12,13,15)" stroke="rgb(12,13,15)" stroke-width="0.6" opacity="1" d="M 212 17 L 220 22.5 L 221 28.5 L 217.5 34 L 212 36.5 L 211 42 L 209 40.5 L 211 34 Q 216.6 33.9 219 29.5 Q 220.1 21.9 215.5 20 L 212 19 L 212 17 Z " /><path fill="rgb(12,13,15)" stroke="rgb(12,13,15)" stroke-width="0.6" opacity="1" d="M 177 25 L 179 26.5 Q 174.1 28.7 175 35 Q 171.3 36.4 173 30.5 L 177 25 Z " /><path fill="rgb(12,13,15)" stroke="rgb(12,13,15)" stroke-width="0.6" opacity="1" d="M 158 26 L 160 27.5 L 165 31 Q 166.7 36.2 163 35 L 161.5 31 L 159 29.5 L 158 26 Z " /><path fill="rgb(12,13,15)" stroke="rgb(12,13,15)" stroke-width="0.6" opacity="1" d="M 199 28 L 201 29.5 L 203 33.5 L 197.5 46 L 197 43.5 L 201 31.5 L 199 28 Z " /><path fill="rgb(12,13,15)" stroke="rgb(12,13,15)" stroke-width="0.6" opacity="1" d="M 185.5 39 L 192 43.5 L 194.5 48 L 196.5 47 L 196 48.5 L 194 50 L 188.5 42 L 185.5 39 Z " /><path fill="rgb(12,13,15)" stroke="rgb(12,13,15)" stroke-width="0.6" opacity="1" d="M 115 43 L 125.5 43 L 126 45 L 115.5 45 L 115 43 Z " /><path fill="rgb(12,13,15)" stroke="rgb(12,13,15)" stroke-width="0.6" opacity="1" d="M 110.5 44 L 112 46 L 104.5 49 L 104 47.5 L 110.5 44 Z " /><path fill="rgb(12,13,15)" stroke="rgb(12,13,15)" stroke-width="0.6" opacity="1" d="M 128 44 L 137.5 47 L 149.5 58 L 151.5 58 L 156.5 55 L 154.5 58 L 144 67.5 L 139.5 76 L 139 73.5 L 141 68.5 L 135 63.5 L 130 57.5 L 131.5 57 L 141.5 68 L 145 65.5 L 149 59.5 Q 142.1 48.4 128 46 L 128 44 Z " /><path fill="rgb(12,13,15)" stroke="rgb(12,13,15)" stroke-width="0.6" opacity="1" d="M 262 48 Q 267.6 48.1 270 52.5 L 268 54 L 266.5 51 L 262 50 L 262 48 Z " /><path fill="rgb(12,13,15)" stroke="rgb(12,13,15)" stroke-width="0.6" opacity="1" d="M 233.5 52 L 232.5 54 L 223 61.5 L 220.5 65 L 219 63.5 L 208 54.5 Q 210.2 50.7 212.5 56 L 221.5 61 L 233.5 52 Z " /><path fill="rgb(12,13,15)" stroke="rgb(12,13,15)" stroke-width="0.6" opacity="1" d="M 268 57 Q 271 55.8 270 59.5 Q 266.9 70.9 259.5 78 L 248.5 84 L 249.5 82 Q 257.6 79.1 262 72.5 Q 267.6 66.6 268 57 Z " /><path fill="rgb(12,13,15)" stroke="rgb(12,13,15)" stroke-width="0.6" opacity="1" d="M 241.5 59 L 238.5 63 L 234 66.5 L 226.5 77 Q 222.8 78 224 75 L 230 70.5 L 237.5 61 L 241.5 59 Z " /><path fill="rgb(12,13,15)" stroke="rgb(12,13,15)" stroke-width="0.6" opacity="1" d="M 106.5 61 L 117.5 73 L 127 77 L 125.5 79 Q 114.8 75.7 109 67.5 L 106.5 61 Z " /><path fill="rgb(12,13,15)" stroke="rgb(12,13,15)" stroke-width="0.6" opacity="1" d="M 196 73 Q 202.7 71.9 205 76.5 L 203.5 78 L 196 75 L 196 73 Z " /><path fill="rgb(12,13,15)" stroke="rgb(12,13,15)" stroke-width="0.6" opacity="1" d="M 137.5 77 Q 140.1 76.2 139 79.5 L 138 84 Q 135 85.3 136 81.5 Q 134.4 78.5 129 80 Q 127.9 76.2 136.5 78 L 137.5 77 Z " /><path fill="rgb(12,13,15)" stroke="rgb(12,13,15)" stroke-width="0.6" opacity="1" d="M 226 84 L 229 85.5 L 228 90.5 Q 233.8 94.1 235 101 L 233 99.5 L 228.5 93 L 226 92.5 L 226 84 Z " /><path fill="rgb(12,13,15)" stroke="rgb(12,13,15)" stroke-width="0.6" opacity="1" d="M 231 85 L 240.5 85 L 241 87 L 231.5 87 L 231 85 Z " /><path fill="rgb(12,13,15)" stroke="rgb(12,13,15)" stroke-width="0.6" opacity="1" d="M 148.5 93 L 153 95.5 L 149 97.5 L 150.5 101 L 154 99.5 L 154.5 95 L 156 100.5 L 152 108.5 L 151.5 111 L 145.5 110 L 142.5 111 L 142.5 110 L 146 108.5 Q 141.8 106.3 144 97.5 L 148.5 93 Z " /><path fill="rgb(12,13,15)" stroke="rgb(12,13,15)" stroke-width="0.6" opacity="1" d="M 193.5 96 Q 201.1 94.5 200 98 L 196 99.5 L 197.5 104 L 203 102 Q 203.3 109.5 198.5 113 L 193.5 114 L 191 113 Q 188.4 109.8 189 102.5 L 193.5 96 Z " /><path fill="rgb(12,13,15)" stroke="rgb(12,13,15)" stroke-width="0.6" opacity="1" d="M 233.5 109 L 234 111.5 L 239 122 Q 236 123.3 237 119.5 L 231 111.5 L 233.5 109 Z " /><path fill="rgb(12,13,15)" stroke="rgb(12,13,15)" stroke-width="0.6" opacity="1" d="M 132 110 L 134 111.5 Q 131.5 113 135 114.5 L 132.5 117 L 129 119.5 L 126 127 L 124 125.5 L 132 110 Z " /><path fill="rgb(12,13,15)" stroke="rgb(12,13,15)" stroke-width="0.6" opacity="1" d="M 213.5 129 L 213 130.5 L 205.5 139 L 191.5 147 Q 184.1 146.1 181.5 150 L 182 148.5 L 183.5 145 L 186.5 146 Q 203.8 141.3 213.5 129 Z " /><path fill="rgb(12,13,15)" stroke="rgb(12,13,15)" stroke-width="0.6" opacity="1" d="M 235 129 Q 238 127.8 237 131.5 L 242 139 L 240 137.5 Q 234 135.9 235 129 Z " /><path fill="rgb(12,13,15)" stroke="rgb(12,13,15)" stroke-width="0.6" opacity="1" d="M 124 137 Q 127 135.8 126 139.5 L 135 149.5 L 133.5 149 L 127 144.5 L 124 137 Z " /><path fill="rgb(12,13,15)" stroke="rgb(12,13,15)" stroke-width="0.6" opacity="1" d="M 241 141 Q 244.7 139.7 243 145.5 L 240 152.5 L 246 161 L 244 159.5 L 239.5 154 Q 236.9 154.8 238 151.5 Q 242.1 148.3 241 141 Z " /><path fill="rgb(12,13,15)" stroke="rgb(12,13,15)" stroke-width="0.6" opacity="1" d="M 180.5 151 L 180 152.5 L 172.5 164 L 163 168 Q 161.8 165 165.5 166 L 176 157.5 L 180.5 151 Z " /><path fill="rgb(12,13,15)" stroke="rgb(12,13,15)" stroke-width="0.6" opacity="1" d="M 154.5 152 L 156 153.5 L 153 158 L 151 156.5 Q 147.3 154.8 150.5 153 L 154.5 152 Z " /><path fill="rgb(12,13,15)" stroke="rgb(12,13,15)" stroke-width="0.6" opacity="1" d="M 191 154 L 193 155.5 L 194 158.5 L 192.5 171 L 191 169.5 L 191 154 Z " /><path fill="rgb(12,13,15)" stroke="rgb(12,13,15)" stroke-width="0.6" opacity="1" d="M 144 157 Q 147 155.8 146 159.5 L 149.5 164 L 155 166 L 153.5 168 L 146 162.5 L 144 157 Z " /><path fill="rgb(12,13,15)" stroke="rgb(12,13,15)" stroke-width="0.6" opacity="1" d="M 244 167 L 246 168.5 L 245 172.5 L 250 180 L 248 178.5 L 244.5 174 L 242 172.5 L 244 167 Z " /><path fill="rgb(12,13,15)" stroke="rgb(12,13,15)" stroke-width="0.6" opacity="1" d="M 248 187 L 250 188.5 L 248 191.5 L 253 195.5 L 255 201 Q 252 202.3 253 198.5 L 246 191.5 L 248 189.5 L 248 187 Z " /><path fill="rgb(12,13,15)" stroke="rgb(12,13,15)" stroke-width="0.6" opacity="1" d="M 192 196 L 194 196.5 L 194 214 L 192 213.5 L 192 196 Z " /><path fill="rgb(12,13,15)" stroke="rgb(12,13,15)" stroke-width="0.6" opacity="1" d="M 240 200 Q 243 198.8 242 202.5 Q 246.5 218.5 256.5 229 L 259 229 Q 257.3 223.8 261 225 L 260 231.5 Q 268.9 241.1 282 246.5 L 279.5 247 Q 262.9 239.6 252 226.5 L 245 216.5 L 240 200 Z " /><path fill="rgb(12,13,15)" stroke="rgb(12,13,15)" stroke-width="0.6" opacity="1" d="M 253.5 208 Q 259.7 212.6 261 221 Q 257.7 222.3 259 217.5 L 255.5 213 L 252 210.5 L 253.5 208 Z " /><path fill="rgb(12,13,15)" stroke="rgb(12,13,15)" stroke-width="0.6" opacity="1" d="M 193 229 L 195 229.5 L 195 239 L 193 238.5 L 193 229 Z " /><path fill="rgb(12,13,15)" stroke="rgb(12,13,15)" stroke-width="0.6" opacity="1" d="M 283.5 247 L 298 250 Q 299.4 254 292.5 252 Q 290.5 248.5 284.5 249 L 283.5 247 Z " /><path fill="rgb(12,13,15)" stroke="rgb(12,13,15)" stroke-width="0.6" opacity="1" d="M 195 254 Q 198.3 252.7 197 257.5 L 198 259.5 L 196 263 L 194 261.5 L 195 254 Z " /><path fill="rgb(12,13,15)" stroke="rgb(12,13,15)" stroke-width="0.6" opacity="1" d="M 318 255 Q 339 260.2 351 275.5 Q 356.6 287.4 367 294.5 L 371 302.5 L 368 300.5 L 360.5 290 Q 357.9 289.2 359 292.5 L 361 298 Q 358 299.3 359 295.5 Q 353.6 276.9 339.5 267 Q 330.3 259.8 318 257 L 318 255 Z " /><path fill="rgb(12,13,15)" stroke="rgb(12,13,15)" stroke-width="0.6" opacity="1" d="M 191 276 Q 194.5 274.9 193 282.5 L 192 296 L 190 295.5 L 190 284.5 L 191 276 Z " /><path fill="rgb(12,13,15)" stroke="rgb(12,13,15)" stroke-width="0.6" opacity="1" d="M 192 305 Q 195.3 303.7 194 308.5 L 202 324.5 L 198.5 325 L 192 305 Z " /><path fill="rgb(12,13,15)" stroke="rgb(12,13,15)" stroke-width="0.6" opacity="1" d="M 361 308 L 363 309.5 L 366 315.5 L 364.5 315 Q 361.5 314.6 363 321 L 361 321 L 361 308 Z " /><path fill="rgb(12,13,15)" stroke="rgb(12,13,15)" stroke-width="0.6" opacity="1" d="M 366.5 317 L 369 320.5 L 373 334.5 L 371 333.5 L 366.5 317 Z " /><path fill="rgb(12,13,15)" stroke="rgb(12,13,15)" stroke-width="0.6" opacity="1" d="M 202.5 326 Q 211.4 338.1 225.5 345 L 227.5 344 L 230 350 L 228 348.5 Q 214.5 342 205 331.5 L 202.5 326 Z " /><path fill="rgb(12,13,15)" stroke="rgb(12,13,15)" stroke-width="0.6" opacity="1" d="M 373.5 336 L 380 345.5 L 378 350 L 376 348.5 L 377 343.5 Q 371.6 341.4 373.5 336 Z " /><path fill="rgb(12,13,15)" stroke="rgb(12,13,15)" stroke-width="0.6" opacity="1" d="M 390.5 344 L 396 347.5 L 398 351.5 L 390.5 344 Z " /><path fill="rgb(12,13,15)" stroke="rgb(12,13,15)" stroke-width="0.6" opacity="1" d="M 309.5 346 L 328 370.5 L 336 385.5 L 334 384.5 L 320.5 364 L 318 363.5 L 317 358.5 L 309.5 349 L 308 347.5 L 309.5 346 Z " /><path fill="rgb(12,13,15)" stroke="rgb(12,13,15)" stroke-width="0.6" opacity="1" d="M 356.5 350 L 358 351.5 L 359 368.5 L 357 367.5 L 356.5 350 Z " /><path fill="rgb(12,13,15)" stroke="rgb(12,13,15)" stroke-width="0.6" opacity="1" d="M 278 353 Q 282.8 351.1 282 354.5 L 281 356.5 L 291 373.5 L 288 371.5 L 278 353 Z " /><path fill="rgb(12,13,15)" stroke="rgb(12,13,15)" stroke-width="0.6" opacity="1" d="M 231 359 Q 234.3 357.7 233 362.5 L 234 365.5 L 231.5 367 L 230 362.5 L 231 359 Z " /><path fill="rgb(12,13,15)" stroke="rgb(12,13,15)" stroke-width="0.6" opacity="1" d="M 201 360 L 203 360.5 L 203 372 L 201 371.5 L 201 360 Z " /><path fill="rgb(12,13,15)" stroke="rgb(12,13,15)" stroke-width="0.6" opacity="1" d="M 399 360 Q 402 358.8 401 362.5 L 406.5 369 L 409 370.5 L 406 376 L 401 378 L 403 374.5 L 401.5 372 Q 407.8 373.9 406 369 L 401 366.5 L 399 360 Z " /><path fill="rgb(12,13,15)" stroke="rgb(12,13,15)" stroke-width="0.6" opacity="1" d="M 379.5 367 L 384.5 372 L 395 376 L 393.5 378 L 391.5 376 L 385.5 375 L 380 369.5 L 379.5 367 Z " /><path fill="rgb(12,13,15)" stroke="rgb(12,13,15)" stroke-width="0.6" opacity="1" d="M 233 368 Q 236 366.8 235 370.5 L 236 377 Q 232.5 378.1 234 370.5 L 233 368 Z " /><path fill="rgb(12,13,15)" stroke="rgb(12,13,15)" stroke-width="0.6" opacity="1" d="M 319 374 Q 322 372.8 321 376.5 L 323 383 Q 319.7 384.3 321 379.5 L 319 374 Z " /><path fill="rgb(12,13,15)" stroke="rgb(12,13,15)" stroke-width="0.6" opacity="1" d="M 235 383 L 237 383.5 L 237 395 L 235 394.5 L 235 383 Z " /><path fill="rgb(12,13,15)" stroke="rgb(12,13,15)" stroke-width="0.6" opacity="1" d="M 263 387 L 265 387.5 L 265 397 L 263 396.5 L 263 387 Z " /><path fill="rgb(12,13,15)" stroke="rgb(12,13,15)" stroke-width="0.6" opacity="1" d="M 337.5 389 L 342 401 Q 339 402.3 340 398.5 L 337.5 389 Z " /><path fill="rgb(12,13,15)" stroke="rgb(12,13,15)" stroke-width="0.6" opacity="1" d="M 225 394 L 227 395.5 L 225 402 L 223 400.5 L 225 394 Z " /><path fill="rgb(12,13,15)" stroke="rgb(12,13,15)" stroke-width="0.6" opacity="1" d="M 364 403 L 366 403.5 L 366 419 L 364 418.5 L 364 403 Z " /><path fill="rgb(12,13,15)" stroke="rgb(12,13,15)" stroke-width="0.6" opacity="1" d="M 344 422 L 346 422.5 L 346 441 L 344 440.5 L 344 422 Z " /><path fill="rgb(12,13,15)" stroke="rgb(12,13,15)" stroke-width="0.6" opacity="1" d="M 217 438 L 219 438.5 L 219 451 L 217 450.5 L 217 438 Z " /><path fill="rgb(12,13,15)" stroke="rgb(12,13,15)" stroke-width="0.6" opacity="1" d="M 194 441 L 196 442.5 L 192 454 L 190 452.5 L 194 441 Z " /><path fill="rgb(12,13,15)" stroke="rgb(12,13,15)" stroke-width="0.6" opacity="1" d="M 311 452 L 313 453.5 L 308.5 461 L 308 458.5 L 311 452 Z " /><path fill="rgb(12,13,15)" stroke="rgb(12,13,15)" stroke-width="0.6" opacity="1" d="M 285 453 Q 288 451.8 287 455.5 L 280.5 464 L 280 461.5 L 285 453 Z " /><path fill="rgb(12,13,15)" stroke="rgb(12,13,15)" stroke-width="0.6" opacity="1" d="M 216 455 L 218 456.5 L 214 463.5 L 214 467 L 211 465.5 Q 215.9 462.3 216 455 Z " /><path fill="rgb(12,13,15)" stroke="rgb(12,13,15)" stroke-width="0.6" opacity="1" d="M 367 458 L 369 459.5 L 367 468 L 364 466.5 L 367 458 Z " /><path fill="rgb(12,13,15)" stroke="rgb(12,13,15)" stroke-width="0.6" opacity="1" d="M 189.5 460 L 191 461.5 L 184.5 469 L 185 467.5 L 189.5 460 Z " /><path fill="rgb(12,13,15)" stroke="rgb(12,13,15)" stroke-width="0.6" opacity="1" d="M 238 460 L 240 460.5 L 240 473.5 L 237 475 L 234 485 L 232 483.5 L 238 473.5 L 238 460 Z " /><path fill="rgb(12,13,15)" stroke="rgb(12,13,15)" stroke-width="0.6" opacity="1" d="M 342 460 Q 345.3 458.7 344 463.5 Q 338.4 468.1 338 477 Q 335 478.3 336 474.5 L 342 463.5 L 342 460 Z " /><path fill="rgb(12,13,15)" stroke="rgb(12,13,15)" stroke-width="0.6" opacity="1" d="M 309 463 Q 312.5 461.9 311 469.5 L 308.5 474 L 306.5 475 L 308 472.5 L 309 463 Z " /><path fill="rgb(12,13,15)" stroke="rgb(12,13,15)" stroke-width="0.6" opacity="1" d="M 265 467 L 267 468.5 L 263.5 477 L 263 472.5 L 265 467 Z " /><path fill="rgb(12,13,15)" stroke="rgb(12,13,15)" stroke-width="0.6" opacity="1" d="M 212 477 L 214 478.5 Q 210.8 483.5 204 484 Q 202.8 481 206.5 482 L 212 478.5 L 212 477 Z " /><path fill="rgb(12,13,15)" stroke="rgb(12,13,15)" stroke-width="0.6" opacity="1" d="M 182.5 479 L 189 482 L 187.5 484 L 182 480.5 L 182.5 479 Z " /><path fill="rgb(12,13,15)" stroke="rgb(12,13,15)" stroke-width="0.6" opacity="1" d="M 335 479 Q 338.3 477.7 337 482.5 L 339.5 486 L 337 485 L 335 479 Z " /><path fill="rgb(12,13,15)" stroke="rgb(12,13,15)" stroke-width="0.6" opacity="1" d="M 231 487 Q 234.7 485.6 233 491.5 Q 234.3 495.8 239 495 L 237.5 497 L 232 493.5 L 231 487 Z " /><path fill="rgb(37,36,35)" stroke="rgb(37,36,35)" stroke-width="0.6" opacity="1" d="M 181.5 38 L 188 39.5 L 186.5 40 L 184.5 40 Q 181.2 38.9 182 41.5 L 180 40.5 L 181.5 38 Z " /><path fill="rgb(37,36,35)" stroke="rgb(37,36,35)" stroke-width="0.6" opacity="1" d="M 176.5 42 L 175.5 44 Q 170 44.5 168 48.5 L 168.5 50 L 166 48.5 L 168 47.5 Q 165.3 45.8 169.5 44 L 176.5 42 Z " /><path fill="rgb(37,36,35)" stroke="rgb(37,36,35)" stroke-width="0.6" opacity="1" d="M 103.5 48 L 106 48.5 L 104 52.5 L 104.5 54 L 102 52.5 L 103.5 48 Z " /><path fill="rgb(37,36,35)" stroke="rgb(37,36,35)" stroke-width="0.6" opacity="1" d="M 162.5 50 L 164 50.5 L 161.5 54 L 160 53.5 L 159.5 55 L 158 54.5 L 156.5 57 Q 153.5 55.5 156.5 54 L 162.5 50 Z " /><path fill="rgb(37,36,35)" stroke="rgb(37,36,35)" stroke-width="0.6" opacity="1" d="M 236.5 50 L 237.5 52 L 233.5 54 L 232.5 52 L 234 52.5 L 234.5 51 L 236 51.5 L 236.5 50 Z " /><path fill="rgb(37,36,35)" stroke="rgb(37,36,35)" stroke-width="0.6" opacity="1" d="M 192.5 88 Q 198.5 86.5 200 89.5 L 189.5 91 L 189.5 90 L 192.5 88 Z " /><path fill="rgb(37,36,35)" stroke="rgb(37,36,35)" stroke-width="0.6" opacity="1" d="M 233.5 101 L 235 102.5 L 236 105.5 L 233.5 111 L 233 108.5 L 234 102.5 L 233.5 101 Z " /><path fill="rgb(37,36,35)" stroke="rgb(37,36,35)" stroke-width="0.6" opacity="1" d="M 168.5 153 L 168 154.5 L 164.5 159 L 162.5 160 L 168.5 153 Z " /><path fill="rgb(37,36,35)" stroke="rgb(37,36,35)" stroke-width="0.6" opacity="1" d="M 155 166 L 161.5 167 L 163 166.5 L 161.5 168 L 158.5 169 L 155 168 L 155 166 Z " /><path fill="rgb(37,36,35)" stroke="rgb(37,36,35)" stroke-width="0.6" opacity="1" d="M 192 182 L 194 182.5 L 194 196 L 192 195.5 L 192 182 Z " /><path fill="rgb(37,36,35)" stroke="rgb(37,36,35)" stroke-width="0.6" opacity="1" d="M 244.5 232 L 239.5 238 L 239 236.5 L 244.5 232 Z " /><path fill="rgb(37,36,35)" stroke="rgb(37,36,35)" stroke-width="0.6" opacity="1" d="M 223.5 331 L 229 344.5 L 226 342.5 L 223.5 331 Z " /><path fill="rgb(37,36,35)" stroke="rgb(37,36,35)" stroke-width="0.6" opacity="1" d="M 306 341 L 308 341.5 L 307.5 343 L 309 343.5 L 308.5 345 L 311 346.5 L 308 347.5 L 309.5 349 L 309.5 350 L 306.5 351 Q 304.6 348.8 308 346.5 L 306 341 Z " /><path fill="rgb(37,36,35)" stroke="rgb(37,36,35)" stroke-width="0.6" opacity="1" d="M 229.5 350 L 233 358.5 L 231.5 359 Q 227.9 355.6 229.5 350 Z " /><path fill="rgb(37,36,35)" stroke="rgb(37,36,35)" stroke-width="0.6" opacity="1" d="M 397.5 350 L 397.5 352 L 399 353.5 L 401 359.5 L 399 360 L 396 351.5 L 397.5 350 Z " /><path fill="rgb(37,36,35)" stroke="rgb(37,36,35)" stroke-width="0.6" opacity="1" d="M 287.5 352 L 289 354 L 281.5 356 L 282 354.5 Q 281.1 351.1 286.5 353 L 287.5 352 Z " /><path fill="rgb(37,36,35)" stroke="rgb(37,36,35)" stroke-width="0.6" opacity="1" d="M 376.5 362 L 379 363.5 L 378 365.5 L 381 367.5 Q 379.5 370.5 378 367.5 L 376.5 362 Z " /><path fill="rgb(37,36,35)" stroke="rgb(37,36,35)" stroke-width="0.6" opacity="1" d="M 290.5 372 L 295 379.5 L 292 379.5 L 293 377.5 L 291 376.5 L 291.5 375 L 289 373.5 L 290.5 372 Z " /><path fill="rgb(37,36,35)" stroke="rgb(37,36,35)" stroke-width="0.6" opacity="1" d="M 362.5 374 L 366 380.5 L 364.5 381 L 361 375.5 L 362.5 374 Z " /><path fill="rgb(37,36,35)" stroke="rgb(37,36,35)" stroke-width="0.6" opacity="1" d="M 199.5 396 L 201 397.5 L 202 406 L 200 405.5 L 200 397.5 L 199.5 396 Z " /><path fill="rgb(37,36,35)" stroke="rgb(37,36,35)" stroke-width="0.6" opacity="1" d="M 278 471 L 284 474.5 L 281.5 476 L 279.5 472 L 278 472.5 L 278 471 Z " /><path fill="rgb(37,36,35)" stroke="rgb(37,36,35)" stroke-width="0.6" opacity="1" d="M 307.5 472 L 307.5 475 L 306 474.5 L 304.5 476 L 303 476.5 L 304.5 474 L 307.5 472 Z " /><path fill="rgb(37,36,35)" stroke="rgb(37,36,35)" stroke-width="0.6" opacity="1" d="M 335.5 482 L 338 482.5 L 337 485 L 339.5 486 L 341.5 485 L 345 486 Q 346.3 489 342.5 488 L 336 484.5 L 335.5 482 Z " /><path fill="rgb(66,61,51)" stroke="rgb(66,61,51)" stroke-width="0.6" opacity="1" d="M 208.5 49 L 210 49.5 L 208 54.5 L 211 56.5 L 209.5 57 L 207 56 Q 205.5 50.6 208.5 49 Z " /><path fill="rgb(66,61,51)" stroke="rgb(66,61,51)" stroke-width="0.6" opacity="1" d="M 247.5 56 L 249 58 L 241.5 61 L 240.5 59 L 242 59.5 L 242.5 58 L 244 58.5 Q 243.2 55.9 246.5 57 L 247.5 56 Z " /><path fill="rgb(66,61,51)" stroke="rgb(66,61,51)" stroke-width="0.6" opacity="1" d="M 137.5 120 L 139 120.5 L 136 122.5 L 137 125 L 140.5 124 L 140 125.5 Q 140.8 128.1 137.5 127 L 135 122.5 L 137.5 120 Z " /><path fill="rgb(66,61,51)" stroke="rgb(66,61,51)" stroke-width="0.6" opacity="1" d="M 159.5 123 L 165 124.5 L 163.5 124 Q 157.2 121.8 159 127.5 L 157 128.5 L 159.5 123 Z " /><path fill="rgb(66,61,51)" stroke="rgb(66,61,51)" stroke-width="0.6" opacity="1" d="M 211.5 165 L 216 171.5 L 215 171.5 L 211.5 165 Z " /><path fill="rgb(66,61,51)" stroke="rgb(66,61,51)" stroke-width="0.6" opacity="1" d="M 193.5 176 L 194 182 Q 191 180.8 192 184.5 L 191 184.5 Q 189.3 176.6 192.5 177 L 193.5 176 Z " /><path fill="rgb(66,61,51)" stroke="rgb(66,61,51)" stroke-width="0.6" opacity="1" d="M 209.5 219 L 212 220.5 L 215 225.5 L 213 224.5 L 211 220 L 209.5 219 Z " /><path fill="rgb(66,61,51)" stroke="rgb(66,61,51)" stroke-width="0.6" opacity="1" d="M 278 262 L 280 262.5 L 274.5 272 L 267 276 L 268.5 274 L 274 270.5 L 278 262 Z " /><path fill="rgb(66,61,51)" stroke="rgb(66,61,51)" stroke-width="0.6" opacity="1" d="M 225.5 273 L 219.5 280 L 220 278.5 L 223.5 274 L 225.5 273 Z " /><path fill="rgb(66,61,51)" stroke="rgb(66,61,51)" stroke-width="0.6" opacity="1" d="M 196.5 279 Q 203.4 278.1 205 282.5 L 206 284.5 L 204 283.5 L 202.5 282 L 195 280.5 L 196.5 279 Z " /><path fill="rgb(66,61,51)" stroke="rgb(66,61,51)" stroke-width="0.6" opacity="1" d="M 338.5 280 L 336.5 283 L 331.5 286 L 332.5 284 L 338.5 280 Z " /><path fill="rgb(66,61,51)" stroke="rgb(66,61,51)" stroke-width="0.6" opacity="1" d="M 275.5 282 L 277 282.5 Q 272.3 283.9 273 289 L 271 287.5 L 275.5 282 Z " /><path fill="rgb(66,61,51)" stroke="rgb(66,61,51)" stroke-width="0.6" opacity="1" d="M 324 296 Q 327 294.8 326 298.5 L 329.5 303 L 326 300.5 L 324 296 Z " /><path fill="rgb(66,61,51)" stroke="rgb(66,61,51)" stroke-width="0.6" opacity="1" d="M 254.5 307 L 254 308.5 L 248.5 315 L 246.5 316 L 254.5 307 Z " /><path fill="rgb(66,61,51)" stroke="rgb(66,61,51)" stroke-width="0.6" opacity="1" d="M 375 352 L 378 352 L 378 359 L 375 357.5 L 377 354 Q 374 355 375 352 Z " /><path fill="rgb(66,61,51)" stroke="rgb(66,61,51)" stroke-width="0.6" opacity="1" d="M 364 385 L 367 386.5 Q 368.2 395.4 366 399 Q 362.5 400.1 364 392.5 L 365 388.5 L 364 385 Z " /><path fill="rgb(66,61,51)" stroke="rgb(66,61,51)" stroke-width="0.6" opacity="1" d="M 286 449 Q 289.5 447.9 288 455.5 L 288.5 457 L 286 456.5 L 287 453 L 285 451.5 L 286 449 Z " /><path fill="rgb(93,84,64)" stroke="rgb(93,84,64)" stroke-width="0.6" opacity="1" d="M 121 52 L 129 54.5 L 126.5 56 L 121 54 L 121 52 Z " /><path fill="rgb(93,84,64)" stroke="rgb(93,84,64)" stroke-width="0.6" opacity="1" d="M 217.5 154 L 222.5 160 L 217 155.5 L 217.5 154 Z " /><path fill="rgb(93,84,64)" stroke="rgb(93,84,64)" stroke-width="0.6" opacity="1" d="M 154.5 158 L 158.5 160 L 160 159.5 L 158.5 162 L 153 160.5 L 155 159.5 L 154.5 158 Z " /><path fill="rgb(93,84,64)" stroke="rgb(93,84,64)" stroke-width="0.6" opacity="1" d="M 210.5 166 L 216 169.5 L 214.5 171 L 210.5 166 Z " /><path fill="rgb(93,84,64)" stroke="rgb(93,84,64)" stroke-width="0.6" opacity="1" d="M 216.5 171 L 218 176.5 L 217 180 L 215 178.5 L 216 173.5 L 216.5 171 Z " /><path fill="rgb(93,84,64)" stroke="rgb(93,84,64)" stroke-width="0.6" opacity="1" d="M 291.5 251 L 293 252.5 L 293 259.5 L 295 266.5 L 293 265.5 L 291 255.5 L 292 252.5 L 291.5 251 Z " /><path fill="rgb(93,84,64)" stroke="rgb(93,84,64)" stroke-width="0.6" opacity="1" d="M 301 303 Q 304 301.8 303 305.5 L 299.5 311 L 299 308.5 Q 302 307.3 301 303 Z " /><path fill="rgb(93,84,64)" stroke="rgb(93,84,64)" stroke-width="0.6" opacity="1" d="M 318.5 307 L 323 310.5 L 324 312.5 L 318.5 307 Z " /><path fill="rgb(93,84,64)" stroke="rgb(93,84,64)" stroke-width="0.6" opacity="1" d="M 246.5 314 L 247.5 316 L 246 315.5 Q 246.8 318.1 243.5 317 L 241 318 Q 239.8 315 243.5 316 L 246.5 314 Z " /><path fill="rgb(93,84,64)" stroke="rgb(93,84,64)" stroke-width="0.6" opacity="1" d="M 348.5 326 L 349 328 L 341.5 333 L 341.5 330 L 344 329.5 L 343.5 328 L 345 328.5 Q 344.2 325.9 347.5 327 L 348.5 326 Z " /><path fill="rgb(93,84,64)" stroke="rgb(93,84,64)" stroke-width="0.6" opacity="1" d="M 245.5 328 L 248 328.5 L 240 333.5 L 239 337 L 237 335.5 L 239.5 332 L 245.5 328 Z " /><path fill="rgb(93,84,64)" stroke="rgb(93,84,64)" stroke-width="0.6" opacity="1" d="M 323.5 338 L 326 338.5 L 319.5 342 L 319 340 L 323.5 338 Z " /><path fill="rgb(93,84,64)" stroke="rgb(93,84,64)" stroke-width="0.6" opacity="1" d="M 258 349 L 260 350.5 L 256.5 356 L 254.5 357 L 256 354.5 L 258 349 Z " /><path fill="rgb(93,84,64)" stroke="rgb(93,84,64)" stroke-width="0.6" opacity="1" d="M 339.5 359 L 345 366.5 L 343 367 L 339.5 359 Z " /><path fill="rgb(121,104,65)" stroke="rgb(121,104,65)" stroke-width="0.6" opacity="1" d="M 139.5 103 L 141 104.5 L 143 108.5 L 141.5 111 L 142 109.5 L 139.5 103 Z " /><path fill="rgb(121,104,65)" stroke="rgb(121,104,65)" stroke-width="0.6" opacity="1" d="M 333 304 L 336 305.5 L 336.5 307 L 338 306.5 L 338.5 309 L 340 308.5 L 339.5 311 L 334.5 305 L 333 305.5 L 333 304 Z " /><path fill="rgb(121,104,65)" stroke="rgb(121,104,65)" stroke-width="0.6" opacity="1" d="M 227.5 313 L 229.5 316 L 231.5 315 L 233 317.5 L 231.5 317 L 226 314.5 L 227.5 313 Z " /><path fill="rgb(121,104,65)" stroke="rgb(121,104,65)" stroke-width="0.6" opacity="1" d="M 294.5 313 L 297 313.5 L 290.5 316 L 290.5 315 L 292.5 314 L 294 314.5 L 294.5 313 Z " /><path fill="rgb(121,104,65)" stroke="rgb(121,104,65)" stroke-width="0.6" opacity="1" d="M 339.5 345 L 345 349.5 L 340 347.5 L 339.5 345 Z " /><path fill="rgb(121,104,65)" stroke="rgb(121,104,65)" stroke-width="0.6" opacity="1" d="M 323.5 354 Q 327.2 356.2 322 358.5 L 321.5 362 L 321 359 L 319 358.5 L 322 356.5 L 323.5 354 Z " /><path fill="rgb(121,104,65)" stroke="rgb(121,104,65)" stroke-width="0.6" opacity="1" d="M 250.5 371 L 255 381 L 253 379.5 L 253.5 378 L 252 377.5 L 252.5 376 L 251 375.5 L 251.5 374 L 250 373.5 L 250.5 371 Z " /><path fill="rgb(199,167,69)" stroke="rgb(199,167,69)" stroke-width="0.6" opacity="1" d="M 225.5 60 L 219.5 67 L 225.5 60 Z " /><path fill="rgb(199,167,69)" stroke="rgb(199,167,69)" stroke-width="0.6" opacity="1" d="M 363.5 401 L 364 420.5 L 363 420.5 L 363.5 401 Z " /><path fill="rgb(158,136,69)" stroke="rgb(158,136,69)" stroke-width="0.6" opacity="1" d="M 341.5 269 L 346.5 275 L 341.5 269 Z " /><path fill="rgb(158,136,69)" stroke="rgb(158,136,69)" stroke-width="0.6" opacity="1" d="M 207.5 330 L 212.5 336 L 207.5 330 Z " /><path fill="rgb(158,136,69)" stroke="rgb(158,136,69)" stroke-width="0.6" opacity="1" d="M 242.5 366 Q 248.9 366.1 251 370.5 L 249 371.5 Q 251.8 369.8 247.5 368 L 245.5 369 L 241 367.5 L 242.5 366 Z " /><path fill="rgb(124,122,116)" stroke="rgb(124,122,116)" stroke-width="0.6" opacity="1" d="M 263.5 407 L 264 418.5 L 263 418.5 L 263.5 407 Z " /><path fill="rgb(124,122,116)" stroke="rgb(124,122,116)" stroke-width="0.6" opacity="1" d="M 241.5 427 L 242 437.5 L 241 437.5 L 241.5 427 Z " /><path fill="rgb(124,122,116)" stroke="rgb(124,122,116)" stroke-width="0.6" opacity="1" d="M 314.5 434 L 315 446.5 L 314 446.5 L 314.5 434 Z " /><path fill="rgb(206,206,206)" stroke="rgb(206,206,206)" stroke-width="0.6" opacity="1" d="M 343.5 425 L 344 437.5 L 343 437.5 L 343.5 425 Z " /><path fill="rgb(163,163,163)" stroke="rgb(163,163,163)" stroke-width="0.6" opacity="1" d="M 224.5 57 L 221.5 61 L 217 58.5 L 219.5 60 L 224.5 57 Z " /><path fill="rgb(163,163,163)" stroke="rgb(163,163,163)" stroke-width="0.6" opacity="1" d="M 366.5 404 L 367 417.5 L 366 417.5 L 366.5 404 Z " /><path fill="rgb(176,163,121)" stroke="rgb(176,163,121)" stroke-width="0.6" opacity="1" d="M 205.5 332 L 210.5 338 L 205.5 332 Z " /></svg>