<svg width="627" height="627" preserveAspectRatio="xMidYMid meet" viewBox="0 0 512 512" version="1.1" xmlns="http://www.w3.org/2000/svg" ><path fill="rgb(255,255,255)" stroke="rgb(255,255,255)" stroke-width="0.6" opacity="1" d="M 0 0 L 512 0 L 512 512 L 0 512 L 0 0 Z M 105 78 L 101 83 L 101 114 L 106 126 Q 112 136 125 137 L 125 141 L 119 151 L 112 176 L 109 181 L 102 176 L 96 177 L 90 189 L 90 203 L 88 203 L 76 184 L 71 165 L 70 151 L 66 146 L 60 147 L 52 159 L 46 183 L 47 220 L 52 235 L 49 241 Q 47 250 52 254 L 51 262 Q 50 285 60 297 L 74 307 L 83 308 L 94 316 L 98 317 L 123 317 L 144 309 L 149 316 L 149 328 L 160 365 L 160 379 L 149 402 L 149 413 L 160 421 L 177 425 Q 202 427 218 418 L 224 410 L 223 390 L 221 387 L 221 375 L 223 372 L 223 360 L 225 358 L 235 359 L 238 369 L 238 388 L 227 413 L 227 422 Q 235 431 250 433 Q 281 436 300 427 L 306 418 L 305 407 L 307 405 L 328 405 L 341 401 L 347 394 L 347 381 L 353 362 L 354 347 L 358 344 L 362 358 L 362 371 L 351 394 L 351 405 Q 356 413 368 414 L 403 414 L 416 409 L 422 400 L 421 358 L 419 352 L 420 326 L 433 290 L 436 273 Q 435 269 438 270 L 440 287 L 440 295 L 434 307 Q 433 316 436 323 L 447 335 L 450 342 L 454 341 Q 461 336 462 324 L 466 321 Q 467 308 462 303 L 456 298 L 451 294 L 451 268 L 446 248 L 425 206 L 414 190 Q 398 170 371 163 L 343 163 L 326 167 Q 310 169 300 165 L 292 161 L 273 142 L 269 141 L 275 128 L 275 111 L 277 108 L 277 94 L 274 90 L 255 91 L 238 99 Q 228 106 223 118 L 213 111 L 207 104 Q 205 100 200 100 L 197 106 Q 191 103 182 104 L 179 108 L 178 109 L 165 109 L 149 115 L 147 114 L 146 106 L 140 95 L 126 82 L 117 78 L 105 78 Z " /><path fill="rgb(255,255,255)" stroke="rgb(255,255,255)" stroke-width="0.6" opacity="1" d="M 108.5 84 Q 117.5 82.5 121.5 86 L 136 98.5 Q 142.5 106 143 119.5 Q 140.1 125.6 133 126 L 129 117.5 Q 130.8 104.8 127 97.5 L 120.5 90 L 116.5 88 Q 112.7 90.2 118 92.5 L 125 107.5 L 125 122.5 L 130 132 L 123.5 132 L 110 121.5 L 106 112.5 L 106 92.5 L 108.5 84 Z " /><path fill="rgb(255,255,255)" stroke="rgb(255,255,255)" stroke-width="0.6" opacity="1" d="M 155 320 L 158.5 321 L 178.5 340 L 189.5 347 L 217 356.5 L 216 390.5 Q 219.8 396.7 219 407.5 L 212.5 415 L 204.5 417 L 198.5 405 L 187.5 404 L 182.5 408 L 176.5 401 L 170.5 400 Q 168.4 403.9 163 403 L 160.5 399 L 157 397.5 L 165 382.5 L 165 367.5 L 164 356.5 L 155 330.5 L 155 320 Z M 171 372 L 169 374 L 179 378 Q 184 379 185 377 L 171 372 Z " /><path fill="rgb(255,255,255)" stroke="rgb(255,255,255)" stroke-width="0.6" opacity="1" d="M 357.5 394 Q 362.3 393.3 363 396.5 Q 365 404 361.5 406 L 355 401.5 Q 354.2 395.7 357.5 394 Z " /><path fill="rgb(255,255,255)" stroke="rgb(255,255,255)" stroke-width="0.6" opacity="1" d="M 391.5 397 L 394.5 397 L 400 401.5 L 402 406.5 L 399.5 409 L 387.5 409 L 386 404.5 L 391.5 397 Z " /><path fill="rgb(255,255,255)" stroke="rgb(255,255,255)" stroke-width="0.6" opacity="1" d="M 169.5 404 Q 175.9 403.6 178 407.5 L 179 417.5 Q 177.8 420.3 172.5 419 L 165.5 417 L 163 414.5 Q 163.4 406.4 169.5 404 Z " /><path fill="rgb(255,255,255)" stroke="rgb(255,255,255)" stroke-width="0.6" opacity="1" d="M 252.5 412 L 259 414.5 L 263 426.5 Q 260.8 430.3 252.5 428 L 244 424.5 Q 244 417 248.5 414 L 252.5 412 Z " /><path fill="rgb(105,157,190)" stroke="rgb(105,157,190)" stroke-width="0.6" opacity="1" d="M 258.5 96 L 269.5 96 L 271 97.5 L 270 126.5 Q 266.7 137.2 258.5 143 L 251.5 147 L 240.5 148 L 231 153.5 Q 230.1 156.9 235.5 155 L 240 154 L 244 162.5 L 246 178 L 248 177.5 L 248 165.5 L 245 153.5 Q 247.6 150.1 254.5 151 L 266.5 145 L 273 150.5 L 277.5 156 L 284 161.5 L 298.5 186 L 300 183.5 L 295 170.5 L 297.5 169 L 310.5 173 L 321.5 172 L 324.5 173 L 334.5 170 L 359.5 167 Q 364.2 170.3 373.5 169 L 388.5 175 L 406 189.5 Q 422.1 204.9 429 229.5 Q 433.3 248.2 431 273.5 L 427 291.5 L 415 324.5 Q 415.8 330.8 413 333.5 L 413 349.5 L 415 353.5 L 417 372.5 L 416 373.5 L 416 400.5 L 412.5 405 L 406.5 406 L 400.5 395 L 390.5 394 L 387 396 Q 388.3 399 384.5 398 L 380.5 393 L 369.5 392 L 365.5 395 Q 364.1 390.3 359 391 Q 360.5 382.8 366 377.5 L 367 356.5 Q 363.2 350.8 363 341.5 L 367.5 336 L 383 322.5 L 396 300.5 L 403 274.5 L 402 270.5 L 403 269.5 L 403 248.5 L 401 240 Q 397 238.6 399 245.5 L 400 247.5 L 398 264.5 L 399 266.5 L 398 277.5 L 391 299.5 Q 381.7 318.7 366.5 332 L 340.5 348 L 323.5 353 L 312.5 354 Q 309.5 352.5 311 346.5 Q 332.5 327 333 286.5 L 331 272.5 L 332 270.5 L 329 259.5 L 326.5 257 Q 323.1 256.1 325 261.5 Q 330.5 273.5 329 292.5 L 327 294.5 L 327 306.5 L 323 319.5 L 313.5 334 L 310.5 328 L 309 329.5 L 306 353.5 L 297 382.5 L 297 399.5 Q 302.2 405.3 300 418.5 L 297.5 422 L 287.5 425 L 281.5 413 L 270.5 412 L 264.5 416 Q 261.9 409.1 252.5 409 L 244.5 413 L 240.5 408 Q 233.6 410.5 235 405.5 L 243 389.5 L 242 386.5 L 244 371.5 L 238 344.5 L 238 335.5 L 240 329.5 L 247.5 322 L 255.5 317 L 275.5 315 L 287.5 319 Q 291 317 286.5 315 L 275.5 312 L 264.5 312 Q 245.6 314.6 237 327.5 L 233.5 335 Q 230.9 335.8 232 332.5 Q 226.4 328.6 229 316.5 L 230 314 L 228 315.5 L 225 324.5 L 226 327.5 L 225 329.5 L 234 349.5 L 232.5 353 L 211.5 350 L 192.5 342 L 177.5 332 L 166.5 321 L 149 308.5 L 151.5 304 L 159.5 300 L 173.5 299 L 177.5 297 L 179.5 298 L 190.5 294 L 198.5 293 L 210.5 287 L 224 275.5 Q 238.6 259.4 237 228 L 234 229.5 Q 233.3 264.3 212.5 279 L 190.5 290 L 176.5 293 L 166.5 293 L 154.5 298 L 148.5 298 L 141.5 304 L 125.5 311 L 95.5 311 L 91 309 Q 89.5 305.2 92.5 306 L 98.5 302 Q 119.2 304.2 132.5 299 Q 142.6 294.6 149 286.5 L 157.5 273 L 161 274 L 157.5 268 Q 149 266 147 270.5 L 151 272 L 151 276.5 L 140.5 289 L 125.5 296 L 121.5 296 L 105.5 297 L 102.5 296 L 85.5 303 L 77.5 303 L 64 293.5 L 57 278.5 L 56 263.5 L 59.5 257 Q 62 261.3 69 260 L 67.5 258 Q 59.2 256.3 55 250.5 L 54 244.5 Q 56.5 239.5 59 244.5 L 62.5 249 L 70.5 251 L 72.5 250 L 75.5 251 L 90 244.5 Q 98 238 100 225.5 L 99 217.5 L 97 214 L 106.5 217 L 113.5 215 L 122 207.5 L 123 203.5 L 122 201.5 L 123 199.5 L 120 194.5 Q 121.8 191.3 123.5 195 L 126.5 196 L 127 194.5 L 123.5 190 Q 116.2 190.8 113 187.5 Q 114.2 177.2 120.5 172 L 132 168.5 L 130.5 165 L 125.5 164 L 121.5 166 L 121 163.5 Q 127.5 138 145.5 124 Q 157.5 114 178.5 113 L 191 116 L 188 110 Q 198.1 110 203.5 116 L 204.5 110 L 213 116.5 L 214.5 119 L 222 124.5 L 222 128.5 L 217 138.5 Q 218.8 141.8 220.5 138 L 223 136.5 Q 225.9 121.5 233 112 L 235 110.5 L 237.5 107 L 248.5 99 L 258.5 96 Z M 260 100 L 254 103 L 242 117 L 234 139 L 225 148 L 227 149 L 234 146 L 241 137 L 246 119 L 252 110 Q 256 104 264 103 Q 266 98 260 100 Z M 178 176 L 176 177 L 174 180 Q 176 183 185 181 L 190 184 L 191 186 L 196 190 L 197 189 L 194 181 Q 191 173 178 176 Z M 176 199 L 170 202 L 161 214 L 161 229 L 164 235 Q 170 241 182 240 L 182 237 L 191 225 L 192 218 L 190 206 Q 187 198 176 199 Z M 255 217 Q 254 264 230 290 L 214 303 L 206 306 Q 203 308 206 309 Q 220 305 229 296 L 244 278 L 252 261 L 257 241 L 257 218 L 255 217 Z M 104 233 Q 104 240 99 245 L 90 253 L 86 254 Q 83 256 86 257 Q 94 256 98 251 L 106 238 Q 108 232 104 233 Z M 111 253 L 107 255 L 102 261 L 111 257 L 122 258 L 124 263 L 128 265 L 125 256 Q 121 252 111 253 Z M 113 264 L 111 265 L 104 273 L 103 279 L 107 280 Q 106 275 111 274 L 117 276 Q 121 274 120 268 Q 119 263 113 264 Z M 376 360 L 374 362 L 379 364 L 390 363 Q 394 364 393 361 L 390 362 Q 380 363 376 360 Z M 254 380 L 252 382 L 255 384 L 269 385 L 270 382 Q 259 384 254 380 Z " /><path fill="rgb(105,157,190)" stroke="rgb(105,157,190)" stroke-width="0.6" opacity="1" d="M 99 183 L 101.5 183 L 108 188.5 L 112.5 194 L 118 198.5 Q 119.6 209.6 112.5 212 L 103.5 213 L 95 206.5 Q 93.3 190.5 99 183 Z " /><path fill="rgb(105,157,190)" stroke="rgb(105,157,190)" stroke-width="0.6" opacity="1" d="M 347.5 349 Q 350.5 348.1 349 352.5 L 342 378.5 L 343 380.5 L 342 391.5 L 337.5 397 L 323 399 L 323 395.5 L 317.5 386 L 311.5 385 L 305.5 388 Q 302 386 303 379.5 L 309.5 359 Q 333.4 358.9 347.5 349 Z " /><path fill="rgb(105,157,190)" stroke="rgb(105,157,190)" stroke-width="0.6" opacity="1" d="M 371.5 395 Q 379.1 393.9 381 398.5 Q 383.8 401.2 383 407.5 L 379.5 410 L 369.5 409 L 365 404.5 L 371.5 395 Z " /><path fill="rgb(105,157,190)" stroke="rgb(105,157,190)" stroke-width="0.6" opacity="1" d="M 188.5 407 Q 195 406 197 409.5 L 200 418 L 183.5 418 L 183 413.5 L 188.5 407 Z " /><path fill="rgb(105,157,190)" stroke="rgb(105,157,190)" stroke-width="0.6" opacity="1" d="M 237.5 411 Q 240.8 409.9 240 412.5 L 241 424 L 233 420.5 Q 232.1 412.6 237.5 411 Z " /><path fill="rgb(1,1,1)" stroke="rgb(1,1,1)" stroke-width="0.6" opacity="1" d="M 106.5 78 L 114.5 78 L 126.5 84 L 140 96.5 Q 145.8 102.2 146 113.5 L 148.5 116 L 163.5 110 L 177.5 110 L 180 107.5 L 181.5 105 Q 192.1 103.4 197.5 107 L 200.5 101 L 208 106.5 L 214.5 114 L 223.5 119 Q 227.8 107.8 236.5 101 L 257.5 91 L 273.5 91 L 276 93.5 L 276 107.5 L 275 108.5 L 275 124.5 L 268 140.5 L 289.5 161 L 299.5 166 L 330.5 167 L 347.5 163 L 367.5 163 Q 394.9 169.6 411 187.5 L 425 207.5 L 446 249.5 L 451 271.5 L 451 295.5 L 452.5 297 L 462 304.5 L 465 310.5 L 466 319.5 L 461 321 Q 461.5 333.2 454.5 339 L 449.5 342 L 448 340.5 L 447 332.5 L 437 321.5 Q 434.1 315.9 435 306.5 L 440 296.5 L 440 284.5 L 438 266 L 435 267.5 L 433 286.5 L 419 325.5 L 418 343.5 L 421 361.5 L 422 397.5 L 415.5 408 L 398.5 414 L 371.5 414 L 358.5 410 L 351 403.5 L 351 395.5 L 362 373.5 L 362 353.5 L 360 345.5 L 357.5 343 L 353 346.5 L 352 362.5 L 347 376.5 L 347 389.5 L 341.5 399 L 324.5 405 L 305.5 405 L 304 406.5 L 305 417.5 L 298.5 426 L 275.5 433 L 253.5 433 L 240.5 430 L 228 421.5 L 228 411.5 L 238 390.5 L 238 366.5 L 237 360.5 L 234.5 358 L 223.5 357 L 222 358.5 L 221 388.5 Q 224.3 396.7 223 409.5 L 217.5 417 Q 202.3 426.3 175.5 424 L 159.5 420 L 150 412.5 L 150 401.5 L 161 378.5 L 161 364.5 L 150 328.5 L 150 315.5 L 144.5 308 L 123.5 316 L 101.5 317 Q 89.7 314.3 82.5 307 L 73.5 306 L 59 293.5 L 53 280.5 L 51 263.5 L 52 251.5 Q 47.8 249.3 50 240.5 Q 54 238.5 52 230.5 L 48 219.5 L 48 210.5 L 46 207.5 L 46 186.5 L 52 160.5 Q 54.8 151.8 61.5 147 Q 68 146 69 150.5 Q 70.2 186.3 88.5 205 L 91 201.5 L 91 187.5 L 96.5 178 L 101.5 177 L 108.5 183 L 113 175.5 L 120 150.5 L 127 138.5 L 113.5 132 L 108 126.5 L 101 111.5 L 101 84.5 L 106.5 78 Z M 108 83 L 106 85 L 105 93 L 105 112 L 110 124 L 125 133 Q 130 134 131 132 L 126 123 L 125 105 L 118 92 L 121 91 L 127 101 L 128 117 L 135 128 L 144 121 Q 144 106 137 99 L 124 86 Q 118 82 108 83 Z M 259 95 L 241 103 L 228 119 L 223 135 L 219 137 Q 223 133 222 124 L 206 109 L 202 108 L 203 114 L 192 109 L 186 111 L 188 114 L 185 113 L 169 113 Q 156 116 147 122 Q 128 137 120 163 L 122 167 L 125 165 Q 130 164 131 168 L 121 171 Q 113 176 112 188 L 116 190 L 124 191 L 125 194 L 123 193 L 119 195 L 122 200 Q 123 206 120 209 L 117 210 Q 120 207 119 199 L 100 181 L 95 190 L 94 207 Q 98 212 106 214 L 107 216 Q 101 217 100 213 L 96 215 L 99 220 L 99 229 L 92 242 Q 86 248 77 250 Q 67 251 63 247 L 61 245 L 72 248 L 85 245 Q 93 239 97 229 L 97 220 Q 82 208 73 190 L 68 175 L 67 160 L 64 151 L 56 162 L 51 182 L 52 221 L 58 241 L 59 242 L 56 240 L 53 245 Q 53 253 59 256 L 56 260 L 56 277 L 64 295 L 77 303 L 87 303 L 101 297 L 129 296 L 142 289 L 150 280 L 152 274 L 152 271 Q 148 272 149 269 L 158 269 L 159 271 L 158 272 L 147 288 L 133 298 Q 120 303 100 301 L 88 308 L 97 312 L 125 312 Q 139 308 149 299 L 154 299 L 167 294 L 176 294 L 190 291 L 212 281 Q 229 269 234 244 Q 232 238 236 239 Q 236 260 225 273 Q 216 285 201 291 Q 184 298 161 299 L 150 304 L 147 308 L 191 342 L 213 351 L 231 354 L 235 353 L 234 346 Q 228 340 226 331 L 227 322 Q 226 317 229 318 Q 227 330 232 337 L 235 338 Q 235 331 239 327 L 255 315 L 256 317 L 249 320 L 239 330 L 237 338 L 237 345 L 243 371 L 242 392 L 234 407 L 236 410 L 232 417 L 232 422 L 239 425 L 242 424 Q 245 429 254 429 Q 261 431 263 427 L 261 417 L 258 413 L 260 412 L 266 420 L 265 423 Q 264 428 267 429 Q 278 431 284 427 L 282 419 L 276 415 Q 275 412 280 413 L 284 418 L 285 424 L 288 426 L 296 424 L 301 418 Q 303 405 298 400 L 298 382 L 308 349 L 309 335 L 311 333 L 314 336 L 324 319 L 328 305 L 329 294 Q 331 274 326 263 Q 325 258 328 259 L 331 271 L 331 285 L 332 286 L 331 307 L 327 320 Q 321 336 310 348 Q 309 353 312 354 L 322 354 L 340 349 L 367 333 Q 396 310 400 263 L 400 248 L 402 247 L 403 254 L 402 256 L 402 277 L 396 298 Q 390 314 379 326 L 362 341 L 367 361 L 365 378 L 358 389 L 358 393 Q 354 395 354 402 L 361 407 L 364 406 L 372 410 L 384 409 L 387 410 Q 398 412 403 408 L 401 401 L 395 397 Q 394 394 399 395 L 403 400 L 406 407 L 413 406 L 417 401 L 417 361 L 414 350 L 414 333 L 428 291 L 431 278 L 432 265 L 432 249 L 430 231 Q 424 207 409 192 Q 394 171 363 167 L 348 167 L 325 172 Q 307 174 297 168 L 293 170 L 299 183 L 298 183 L 285 162 L 267 144 L 255 150 L 247 151 L 244 154 L 248 169 Q 250 175 246 174 Q 246 160 240 153 L 234 155 L 232 153 Q 238 148 251 148 L 260 143 Q 268 137 271 126 L 272 97 L 271 95 L 259 95 Z M 436 239 L 436 253 L 441 264 L 444 282 L 444 298 Q 439 301 438 309 Q 437 318 441 323 Q 443 327 445 324 Q 444 319 447 320 L 450 334 L 453 335 L 458 326 Q 460 316 456 312 L 458 311 L 460 313 L 458 306 L 453 301 L 447 296 L 446 265 Q 444 250 438 241 L 436 239 Z M 155 319 L 155 334 L 163 357 L 164 367 L 164 383 L 156 399 L 165 405 L 171 401 L 177 402 L 178 405 L 170 403 Q 162 406 162 416 L 170 419 Q 178 421 180 418 L 179 408 L 182 409 L 188 405 L 189 406 L 182 414 L 184 419 L 200 419 L 201 418 L 198 409 L 193 407 Q 192 404 197 405 L 201 410 L 202 416 L 205 418 L 214 416 L 219 410 Q 221 397 217 391 L 218 357 L 190 346 Q 171 335 158 319 L 155 319 Z M 348 348 Q 333 358 310 358 L 306 364 L 302 381 L 303 389 L 310 386 L 316 386 L 319 391 L 320 392 Q 318 387 310 388 Q 304 390 304 399 L 305 401 L 320 401 L 321 400 L 320 397 L 321 393 L 325 400 L 335 399 L 339 397 L 343 391 L 343 378 L 350 350 L 348 348 Z M 157 402 Q 153 404 153 411 L 160 415 L 161 414 L 161 404 L 157 402 Z " /><path fill="rgb(1,1,1)" stroke="rgb(1,1,1)" stroke-width="0.6" opacity="1" d="M 261.5 100 L 263 102 Q 254.5 103.8 250 110.5 L 244 121.5 Q 243.8 130.8 240 136.5 L 231.5 146 L 227.5 147 L 231.5 142 L 234 140.5 L 243 116.5 L 255.5 103 L 261.5 100 Z " /><path fill="rgb(1,1,1)" stroke="rgb(1,1,1)" stroke-width="0.6" opacity="1" d="M 179.5 176 Q 189.9 174.6 193 180.5 L 195 187.5 L 192 185.5 L 190.5 183 Q 185.1 178.9 175 179.5 L 179.5 176 Z " /><path fill="rgb(1,1,1)" stroke="rgb(1,1,1)" stroke-width="0.6" opacity="1" d="M 174.5 200 Q 184.9 198.6 188 204.5 Q 192.8 209.7 191 221.5 Q 188.1 231.1 181 236.5 L 180.5 240 L 170.5 238 L 166 234.5 L 167.5 235 L 170 233.5 Q 165.5 231 167 222.5 Q 168.8 214.9 174.5 211 Q 184 209 186 214.5 L 187 220 L 189 219.5 L 189 211.5 L 183.5 204 L 175.5 203 Q 168 205 164.5 211 L 165 209.5 L 170.5 202 L 174.5 200 Z M 178 215 L 176 217 Q 173 224 180 222 L 182 218 L 178 215 Z " /><path fill="rgb(1,1,1)" stroke="rgb(1,1,1)" stroke-width="0.6" opacity="1" d="M 163.5 212 L 164 214.5 L 163 221 Q 159.3 222.3 161 216.5 L 163.5 212 Z " /><path fill="rgb(1,1,1)" stroke="rgb(1,1,1)" stroke-width="0.6" opacity="1" d="M 254 233 L 257 234.5 L 252 258.5 Q 243.2 281.7 226.5 297 L 213.5 305 L 216.5 301 L 235 284.5 Q 250.7 264.4 254 233 Z " /><path fill="rgb(1,1,1)" stroke="rgb(1,1,1)" stroke-width="0.6" opacity="1" d="M 102.5 241 L 102 242.5 L 95.5 251 L 87 256 L 88.5 254 L 101 243.5 L 102.5 241 Z " /><path fill="rgb(1,1,1)" stroke="rgb(1,1,1)" stroke-width="0.6" opacity="1" d="M 110.5 254 Q 123.1 251.9 126 259.5 L 124.5 261 Q 121.8 254.2 110.5 256 L 104.5 259 L 106.5 256 L 110.5 254 Z " /><path fill="rgb(1,1,1)" stroke="rgb(1,1,1)" stroke-width="0.6" opacity="1" d="M 111.5 265 Q 117.8 263.8 119 267.5 Q 120.3 272.8 117.5 274 L 112.5 273 L 106 276.5 Q 107.1 279.8 104.5 279 L 103 275.5 L 111.5 265 Z " /><path fill="rgb(1,1,1)" stroke="rgb(1,1,1)" stroke-width="0.6" opacity="1" d="M 272 313 Q 279.5 311.8 283 315.5 L 279.5 316 L 272 315 L 272 313 Z " /><path fill="rgb(1,1,1)" stroke="rgb(1,1,1)" stroke-width="0.6" opacity="1" d="M 390.5 395 L 392 395.5 L 384.5 405 L 383 399.5 Q 385.2 401.2 387.5 397 L 390.5 395 Z " /><path fill="rgb(1,1,1)" stroke="rgb(1,1,1)" stroke-width="0.6" opacity="1" d="M 251.5 410 L 253 412 Q 247.4 412.1 245 416.5 L 244 422 L 242 421.5 L 242 413.5 L 243.5 414 L 251.5 410 Z " /><path fill="rgb(100,150,105)" stroke="rgb(100,150,105)" stroke-width="0.6" opacity="1" d="M 261.5 95 Q 269.8 92.8 272 96.5 L 271.5 100 L 269.5 96 L 261.5 96 L 261.5 95 Z " /><path fill="rgb(100,150,105)" stroke="rgb(100,150,105)" stroke-width="0.6" opacity="1" d="M 62 153 Q 66.1 151.3 65 155.5 L 67 162.5 L 68 176.5 L 72 188.5 Q 80.7 207.3 96 219.5 L 97 225.5 Q 94.5 236 87.5 242 Q 81.9 248.4 68.5 247 L 60 242.5 Q 54 231.5 52 216.5 L 53 212.5 L 51 210.5 L 51 183.5 L 57 160.5 L 62 153 Z " /><path fill="rgb(100,150,105)" stroke="rgb(100,150,105)" stroke-width="0.6" opacity="1" d="M 176.5 203 Q 184.6 202.9 187 208.5 L 189 218 Q 186 219.3 187 215.5 L 183.5 211 L 176.5 210 L 170 214.5 Q 165.3 219.3 167 230.5 L 168 233 L 165 231.5 Q 161.3 227.2 163 217.5 L 168.5 207 L 176.5 203 Z " /><path fill="rgb(100,150,105)" stroke="rgb(100,150,105)" stroke-width="0.6" opacity="1" d="M 436 240 L 438 241.5 L 445 261.5 Q 444.2 271.3 447 277.5 L 447 296.5 L 449.5 299 L 458 306.5 L 459 310 L 455 309 L 458 320.5 L 454 334 Q 450.3 335.5 451 332.5 L 448 321.5 L 445.5 319 L 443.5 324 Q 437.1 319.4 439 306.5 L 444 298.5 L 444 279.5 L 442 265.5 L 436 251.5 L 436 240 Z " /><path fill="rgb(100,150,105)" stroke="rgb(100,150,105)" stroke-width="0.6" opacity="1" d="M 399.5 248 L 400 261.5 L 399 261.5 L 399.5 248 Z " /><path fill="rgb(100,150,105)" stroke="rgb(100,150,105)" stroke-width="0.6" opacity="1" d="M 431.5 249 L 432 263.5 L 431 263.5 L 431.5 249 Z " /><path fill="rgb(100,150,105)" stroke="rgb(100,150,105)" stroke-width="0.6" opacity="1" d="M 100.5 301 L 121 301.5 L 100.5 302 L 100.5 301 Z " /><path fill="rgb(100,150,105)" stroke="rgb(100,150,105)" stroke-width="0.6" opacity="1" d="M 100.5 311 L 123 311.5 L 100.5 312 L 100.5 311 Z " /><path fill="rgb(100,150,105)" stroke="rgb(100,150,105)" stroke-width="0.6" opacity="1" d="M 413.5 333 L 414 349.5 L 413 349.5 L 413.5 333 Z " /><path fill="rgb(100,150,105)" stroke="rgb(100,150,105)" stroke-width="0.6" opacity="1" d="M 416.5 378 L 417 400.5 L 416 400.5 L 416.5 378 Z " /><path fill="rgb(100,150,105)" stroke="rgb(100,150,105)" stroke-width="0.6" opacity="1" d="M 297.5 382 L 298 399.5 L 297 399.5 L 297.5 382 Z " /><path fill="rgb(100,150,105)" stroke="rgb(100,150,105)" stroke-width="0.6" opacity="1" d="M 310.5 388 Q 316.9 388.1 319 392.5 L 321 398.5 L 318.5 401 L 304 401 Q 302.8 392.2 308.5 389 L 310.5 388 Z " /><path fill="rgb(100,150,105)" stroke="rgb(100,150,105)" stroke-width="0.6" opacity="1" d="M 156.5 402 L 161 404.5 L 160 414 L 154 411.5 Q 152.8 404.3 156.5 402 Z " /><path fill="rgb(100,150,105)" stroke="rgb(100,150,105)" stroke-width="0.6" opacity="1" d="M 273.5 414 L 281 418.5 L 283 426.5 L 281.5 428 L 266.5 428 L 265 423.5 L 270.5 415 L 273.5 414 Z " /><path fill="rgb(100,150,105)" stroke="rgb(100,150,105)" stroke-width="0.6" opacity="1" d="M 184.5 418 L 199 418.5 L 184.5 419 L 184.5 418 Z " /><path fill="rgb(28,28,28)" stroke="rgb(28,28,28)" stroke-width="0.6" opacity="1" d="M 272.5 143 L 289.5 161 L 272.5 143 Z " /><path fill="rgb(28,28,28)" stroke="rgb(28,28,28)" stroke-width="0.6" opacity="1" d="M 164 232 L 168.5 234 L 170 233.5 L 167 235.5 L 167.5 237 L 164 232 Z " /><path fill="rgb(28,28,28)" stroke="rgb(28,28,28)" stroke-width="0.6" opacity="1" d="M 58.5 254 L 60.5 257 L 62 256.5 L 62.5 258 L 65 257 Q 66.3 260 62.5 259 L 59 256.5 L 58.5 254 Z " /><path fill="rgb(110,124,122)" stroke="rgb(110,124,122)" stroke-width="0.6" opacity="1" d="M 166.5 321 L 176.5 332 L 166.5 321 Z " /><path fill="rgb(110,124,122)" stroke="rgb(110,124,122)" stroke-width="0.6" opacity="1" d="M 246.5 322 L 240.5 329 L 246.5 322 Z " /><path fill="rgb(110,124,122)" stroke="rgb(110,124,122)" stroke-width="0.6" opacity="1" d="M 164.5 325 L 172.5 334 L 164.5 325 Z " /><path fill="rgb(217,217,217)" stroke="rgb(217,217,217)" stroke-width="0.6" opacity="1" d="M 273.5 143 L 290.5 161 L 273.5 143 Z " /></svg>