<svg width="627" height="627" preserveAspectRatio="xMidYMid meet" viewBox="0 0 512 512" version="1.1" xmlns="http://www.w3.org/2000/svg" ><path fill="rgb(255,255,255)" stroke="rgb(255,255,255)" stroke-width="0.6" opacity="1" d="M 0 0 L 512 0 L 512 512 L 0 512 L 0 0 Z M 288 43 Q 271 49 260 60 Q 241 63 229 71 L 223 60 Q 215 47 199 44 Q 186 43 178 46 L 162 55 Q 146 66 142 88 Q 140 110 150 121 Q 158 132 173 134 L 161 180 L 162 200 L 167 216 L 151 221 L 151 214 L 156 200 L 156 180 L 149 160 L 146 158 L 143 161 L 140 170 L 138 183 Q 138 199 144 210 L 142 211 L 134 198 Q 120 180 98 171 L 92 173 Q 98 189 108 202 Q 120 219 144 225 Q 148 227 145 229 L 153 243 Q 144 236 131 233 L 115 233 L 95 242 L 93 246 L 102 250 L 126 254 L 142 252 L 149 249 L 155 250 L 159 264 Q 161 272 157 275 Q 157 282 162 285 L 154 290 Q 142 298 139 316 Q 138 334 146 344 L 159 355 Q 165 360 177 359 L 179 362 Q 180 368 177 370 L 177 376 L 184 384 L 187 396 L 189 419 L 194 422 L 204 422 L 205 424 L 201 426 Q 191 432 189 445 Q 188 453 192 457 L 203 465 L 223 470 Q 254 473 273 463 L 281 453 L 282 436 L 287 415 L 289 413 L 300 413 L 302 416 L 305 429 L 306 451 L 308 456 Q 313 463 323 466 L 344 470 L 371 469 L 383 466 L 390 462 Q 396 458 398 451 Q 399 438 394 433 L 381 422 Q 389 402 389 375 L 399 368 Q 413 356 417 335 L 417 322 L 413 307 Q 407 291 397 280 L 370 255 L 386 243 Q 405 227 410 198 L 409 178 L 394 131 L 407 125 Q 417 116 421 101 L 421 83 L 412 63 Q 401 48 381 43 Q 360 42 350 51 Q 342 58 338 68 L 315 61 L 310 61 Q 307 59 308 54 L 306 51 L 295 51 L 295 45 Q 293 42 288 43 Z " /><path fill="rgb(244,243,225)" stroke="rgb(244,243,225)" stroke-width="0.6" opacity="1" d="M 283.5 50 L 288 50.5 L 284.5 57 L 282 58.5 L 280 62.5 L 282.5 64 Q 287.8 57.8 298.5 57 L 300.5 57 L 302 57.5 L 300 58 L 297.5 64 L 292 68.5 L 295.5 70 Q 299.2 64.7 309.5 66 L 311.5 68 L 318.5 68 L 335.5 74 L 353 84.5 L 354.5 86 L 369 99.5 L 379 113.5 L 388 132.5 L 394 155.5 L 402 173.5 L 404 194.5 L 400 212.5 L 390.5 229 L 386 231 L 384 237 L 377 241.5 L 375.5 244 L 361.5 253 L 341.5 262 L 317.5 269 L 308.5 270 L 306.5 269 L 302.5 271 L 276.5 271 L 260.5 269 L 258.5 267 L 250.5 267 L 225.5 259 Q 204.1 250.4 189 235.5 L 185.5 231 L 181 227.5 L 179 223.5 L 180 220.5 L 175.5 214 L 173 213.5 L 169 203.5 L 167 187.5 L 168 182.5 L 167 178.5 L 181 130.5 Q 191.2 107.2 208.5 91 Q 219.7 80.7 234.5 74 L 262.5 65 L 283.5 50 Z M 339 110 L 330 116 L 333 119 L 335 118 L 346 120 L 351 124 L 354 123 L 353 119 Q 349 111 339 110 Z M 245 113 L 238 116 L 232 124 Q 228 126 233 128 Q 240 127 243 122 Q 250 123 254 120 L 255 118 Q 253 112 245 113 Z M 337 138 L 329 141 Q 318 148 317 164 Q 316 183 325 193 Q 334 204 350 209 Q 362 211 369 206 Q 376 201 379 191 Q 380 177 376 169 L 367 155 Q 358 140 337 138 Z M 250 140 Q 235 142 228 150 Q 217 159 210 173 L 207 185 L 208 198 L 211 203 Q 217 212 230 214 Q 245 214 254 206 Q 269 196 272 175 L 271 158 L 268 151 Q 263 141 250 140 Z M 290 185 L 281 190 Q 278 192 281 193 Q 284 189 293 190 L 295 190 L 298 189 L 313 191 L 315 190 L 309 185 L 290 185 Z M 312 192 L 308 194 L 298 193 L 296 193 L 288 196 L 281 202 L 282 211 L 288 216 L 300 222 L 298 229 L 291 233 L 282 233 Q 280 230 275 231 L 270 227 L 264 220 L 265 218 L 265 215 L 260 216 L 256 221 L 258 223 L 261 222 L 272 237 L 272 241 L 279 252 L 290 258 Q 301 260 306 255 L 313 247 L 316 238 L 325 233 L 331 227 L 331 225 L 336 221 L 335 217 L 333 215 Q 330 211 328 216 L 329 218 L 326 226 Q 320 234 304 231 L 305 220 L 314 216 L 321 206 L 320 201 L 314 195 L 312 192 Z " /><path fill="rgb(244,243,225)" stroke="rgb(244,243,225)" stroke-width="0.6" opacity="1" d="M 247 171 L 252 171 L 252 172.5 L 253 176 L 247.5 178 L 246 175.5 L 247 171 Z " /><path fill="rgb(244,243,225)" stroke="rgb(244,243,225)" stroke-width="0.6" opacity="1" d="M 104 180 Q 120.3 187.4 131 201.5 L 140 217.5 L 138.5 217 L 130 215 L 128.5 212 L 124.5 211 L 117 204.5 L 114.5 200 L 111 197.5 L 103 182.5 L 104 180 Z " /><path fill="rgb(244,243,225)" stroke="rgb(244,243,225)" stroke-width="0.6" opacity="1" d="M 162.5 222 L 168 222.5 L 167.5 225 Q 164.8 227.8 158.5 227 L 157 224 L 162.5 222 Z " /><path fill="rgb(244,243,225)" stroke="rgb(244,243,225)" stroke-width="0.6" opacity="1" d="M 172.5 228 Q 175.8 227.6 174 235.5 L 183 269.5 Q 178 275 167.5 275 L 165 274 L 163 254.5 L 157 236.5 L 158.5 233 L 172.5 228 Z " /><path fill="rgb(244,243,225)" stroke="rgb(244,243,225)" stroke-width="0.6" opacity="1" d="M 116.5 238 L 129.5 238 L 142 242 L 139.5 247 L 135.5 248 L 131.5 247 L 123.5 248 L 117.5 247 L 115.5 248 L 109.5 245 L 103 245 L 104.5 242 L 116.5 238 Z " /><path fill="rgb(244,243,225)" stroke="rgb(244,243,225)" stroke-width="0.6" opacity="1" d="M 281.5 238 L 288.5 239 L 296 245.5 L 298 253 Q 288.5 254.4 285 248.5 L 283.5 247 L 281 246 L 279 240.5 L 281.5 238 Z " /><path fill="rgb(244,243,225)" stroke="rgb(244,243,225)" stroke-width="0.6" opacity="1" d="M 362 259 L 368.5 261 L 380 270.5 L 381.5 272 Q 395.3 282.9 402 300 Q 405 298.8 404 302.5 L 410 317.5 L 409 319.5 L 410 320.5 L 410 335.5 L 406 349.5 L 401.5 356 L 400 357.5 L 397 359 L 391.5 366 L 381.5 371 L 367.5 373 L 364.5 371 L 362.5 372 L 359 367.5 L 367 358.5 L 364.5 358 L 354.5 365 L 350 365 L 348.5 363 Q 343.9 361.1 345 353.5 L 351.5 346 L 355 343.5 L 351.5 342 L 341 349 L 340 343.5 Q 342.6 331.6 351.5 326 Q 370 317.5 384 304.5 L 380.5 303 L 377 304 L 372 282.5 L 362 259 Z " /><path fill="rgb(244,243,225)" stroke="rgb(244,243,225)" stroke-width="0.6" opacity="1" d="M 166.5 290 Q 172.5 289 174.5 292 Q 176.2 289.2 181.5 290 L 192 295.5 L 196 303.5 L 193.5 306 L 179 311.5 L 180.5 314 L 197.5 310 Q 202.5 312.5 201 321.5 Q 200.6 327.1 196.5 329 L 184 334.5 Q 185.8 337.8 192.5 336 L 197.5 334 L 200 335 Q 198.9 342.6 193.5 347 L 180.5 353 L 169.5 353 Q 158.6 350.4 153 342.5 L 147 332.5 Q 148 326.5 145 324.5 L 145 316.5 L 147 313.5 L 147 311.5 L 150.5 302 Q 153.1 302.8 152 299.5 Q 157.3 292.8 166.5 290 Z " /><path fill="rgb(43,48,47)" stroke="rgb(43,48,47)" stroke-width="0.6" opacity="1" d="M 186.5 51 L 188 53 L 191 53 L 191 51 L 197 51 Q 196 54 199 53 L 200.5 51 L 213 57.5 L 212 58.5 L 216.5 63 L 219 64.5 L 223 72.5 L 222.5 75 L 220 76.5 L 218.5 79 L 216.5 78 L 215.5 81 L 208.5 85 L 201.5 77 L 200 77.5 L 199.5 76 L 195.5 77 L 193.5 76 L 191 77 L 189.5 75 L 184 78.5 L 182.5 81 L 178 84.5 Q 173 88.8 173 97 Q 169.3 95.8 171 101 Q 174 99.8 173 103.5 L 177 110.5 L 176.5 112 L 184 115.5 L 182 115.5 L 183 117.5 L 181.5 121 L 180 120.5 L 181 122.5 L 177.5 129 Q 160.6 127.4 154 115.5 Q 148.5 108.1 148 97 Q 151 98 150 95 L 148 93.5 L 150 85 L 152 83.5 L 151 81.5 L 154.5 75 L 156 74.5 Q 153.5 73 157 71.5 L 159.5 68 L 165 64.5 L 166.5 61 L 169 60.5 L 168.5 59 L 173.5 56 L 176.5 57 L 179 56 L 180.5 53 L 183.5 52 L 184.5 54 L 186.5 51 Z " /><path fill="rgb(43,48,47)" stroke="rgb(43,48,47)" stroke-width="0.6" opacity="1" d="M 243.5 156 L 249.5 156 L 258 160.5 L 258.5 163 L 261 163.5 L 260 166.5 L 263 167.5 L 264 172.5 L 262 173 L 262 178 L 263.5 178 L 263 179.5 L 262.5 185 Q 258.3 183.1 260 176 L 257 174.5 L 256 171.5 L 256.5 170 L 254 168.5 L 252.5 167 Q 250.5 164 244.5 165 L 240.5 168 L 238 168.5 Q 234.3 173.7 235 183.5 L 235.5 185 L 232 184 L 232 181 L 230 179.5 L 230 177.5 L 232 176 L 232 171.5 L 232.5 170 L 231 169.5 L 235 164.5 L 234.5 163 L 236 163.5 L 239.5 158 L 240.5 160 L 241 157 L 243.5 156 Z " /><path fill="rgb(43,48,47)" stroke="rgb(43,48,47)" stroke-width="0.6" opacity="1" d="M 340.5 166 L 345 167.5 L 346 173.5 Q 344.3 177.7 342.5 175 L 338.5 176 L 338 173.5 Q 339.5 169.1 336.5 170 L 338.5 167 L 340.5 166 Z " /><path fill="rgb(43,48,47)" stroke="rgb(43,48,47)" stroke-width="0.6" opacity="1" d="M 299.5 232 L 301 232.5 L 299 233.5 L 301.5 234 L 303.5 234 L 310 236.5 L 309.5 238 L 312 238.5 L 303.5 252 L 298 247.5 L 295 241.5 L 296 241.5 L 297.5 243 L 297 241.5 L 295.5 239 L 294 239.5 L 295 236.5 L 294.5 235 L 296.5 234 L 298.5 235 L 299.5 232 Z " /><path fill="rgb(43,48,47)" stroke="rgb(43,48,47)" stroke-width="0.6" opacity="1" d="M 283.5 300 L 284 302 Q 291.3 303.8 290.5 300 L 303 300 Q 301.7 304 308 302 L 309.5 300 L 314 301 Q 313 304 316 303 L 316.5 301 L 332.5 304 L 347.5 311 L 349.5 311 L 353 312 Q 351.5 315.7 354.5 315 L 356 314.5 L 356.5 317 L 358 316.5 Q 356.3 320.7 354.5 318 L 353 318.5 L 353.5 320 L 343 327.5 L 341.5 330 L 340 329.5 L 339 335 L 336 335.5 L 337 338.5 L 336 342 Q 333 341 334 344 Q 337.3 342.9 336 347 L 334 347.5 L 336 348 L 335 351.5 L 338 352 Q 340.7 366.5 351.5 374 L 353.5 373 L 365 377 Q 364 380 367 379 L 367 377 L 373 377 Q 371.8 380 375.5 379 L 378 380.5 Q 373.4 386.4 365 388.5 L 364.5 391 L 358.5 394 L 357 393.5 L 355.5 396 L 353.5 395 L 353 397 L 347.5 399 L 344 398 L 342.5 401 L 336 403 L 335.5 401 L 320.5 407 L 320 405 Q 316.2 403.5 317 406.5 L 315 407.5 Q 315.8 404.1 311 406 Q 312.3 409.3 307.5 408 L 305 409 Q 306.2 405.3 301 407 L 300.5 409 L 287 409 Q 288.2 405.3 283 407 L 281.5 409 L 276 408 Q 277 405 274 406 L 273.5 408 L 271 407 Q 272 404 269 405 L 267.5 407 L 256 404 L 254.5 402 L 250.5 401 L 248.5 402 L 241 399.5 L 240.5 397 L 237.5 396 L 235.5 397 L 232 396 Q 233.5 392.3 230.5 393 L 228.5 392 Q 227 394.5 225.5 391 L 215 384.5 L 216 383.5 L 211 378.5 L 210 373.5 L 213 365.5 L 209 360 Q 206 361.3 207 357.5 L 204 351.5 L 206 351 L 205 347.5 L 208 346 L 210.5 342 L 212 340.5 L 220 328 L 223 326.5 L 221 325.5 L 226.5 318 L 229.5 318 Q 233.3 312.3 241.5 311 L 243.5 312 L 244.5 309 L 256.5 305 L 257 307 L 260 305.5 L 259.5 304 L 275.5 301 L 276 303 Q 280.1 304.3 279 301 L 282.5 301 L 283.5 300 Z " /><path fill="rgb(43,48,47)" stroke="rgb(43,48,47)" stroke-width="0.6" opacity="1" d="M 198.5 347 L 199.5 350 L 201 349.5 L 203 356.5 L 201 357.5 L 204 358.5 Q 205.1 366.1 200.5 368 L 198.5 367 L 198 369 Q 193.2 367.1 194 370.5 L 193 372.5 L 195 373.5 Q 193.9 370.2 196.5 371 L 207.5 365 L 209 367.5 L 205.5 372 L 204.5 370 Q 200.8 372 202.5 374 L 196.5 376 L 195.5 374 L 195 376 L 190 377 Q 188.8 380 192.5 379 L 203.5 375 L 204 377 L 206 375.5 L 205.5 374 L 208 375.5 Q 209 379.3 206 378 L 206 382 Q 209 380.8 208 384.5 L 208.5 386 L 207 386.5 L 209 387 L 213 402.5 L 211 403 L 212.5 406 L 214 405.5 L 216 412.5 Q 214 416.2 212 414.5 L 211.5 416 L 208.5 415 L 207.5 418 L 197.5 417 L 194 418 L 193 409.5 L 193 407.5 L 187 381.5 L 189 381 L 187.5 379 L 188 377.5 Q 188.7 374.5 185 376 L 185 373.5 L 184 371.5 L 185.5 372 Q 193.1 373.5 192 370 Q 184.9 371.8 183 367.5 L 182 358.5 L 187.5 355 L 190 356 L 191.5 353 L 198.5 347 Z " /><path fill="rgb(43,48,47)" stroke="rgb(43,48,47)" stroke-width="0.6" opacity="1" d="M 381.5 380 L 381 381.5 L 382.5 383 L 384 382.5 L 383 386.5 L 384 388.5 L 383 394 Q 380 393 381 396 L 383 396.5 L 382 400 L 380 400.5 L 382 401.5 L 381 404 L 379 404.5 L 381 405.5 L 378 418 L 375 419.5 L 374 421.5 L 376 422.5 L 371 423 L 370.5 425 L 365.5 423 L 363 424 L 364.5 426 L 374 427 L 374.5 425 L 376.5 428 L 377 426 L 381 427 Q 379.8 430 383.5 429 L 386 430.5 Q 383.2 432.3 387.5 434 L 390 434.5 L 393 440.5 L 393 450.5 L 388.5 457 L 384 458 L 383.5 460 L 381.5 457 Q 378.5 457.5 380 450.5 L 381 448.5 L 376.5 443 L 375 443.5 L 376 445.5 L 375.5 447 L 377 448.5 L 378 457 L 376 458.5 L 376.5 460 L 375 460.5 L 375.5 462 L 374 461.5 Q 374.8 464.1 371.5 463 L 366.5 464 L 359.5 462 L 358 462.5 L 359 460 Q 363 461.2 361 455 Q 357.7 456.3 359 451.5 L 355.5 445 L 354 447.5 L 357 457.5 L 356 462.5 L 353.5 465 L 348.5 464 L 346 465 Q 347.4 461 340.5 463 L 334.5 464 L 324 461.5 L 323.5 459 L 322.5 461 L 315 456.5 L 310 447.5 L 312 447 L 312 435.5 Q 309 436.5 310 431.5 L 309.5 430 L 311 429.5 L 309 429 L 305 412.5 L 307 411.5 L 309 413 Q 307.7 409.7 312.5 411 L 314 410.5 L 316 412 Q 314.7 408.7 319.5 410 L 322 411 Q 320.8 408 324.5 409 L 326 408.5 L 326.5 410 L 328.5 407 L 339.5 405 L 342.5 403 L 342.5 405 L 352.5 400 L 354.5 401 L 357 400 L 358.5 397 L 361.5 395 L 363.5 395 L 367 393.5 L 366.5 392 L 370.5 389 L 372.5 390 L 373.5 387 Q 378.3 388.7 377 384.5 L 381.5 380 Z " /><path fill="rgb(124,153,104)" stroke="rgb(124,153,104)" stroke-width="0.6" opacity="1" d="M 371.5 51 L 382.5 52 L 394 57 L 395.5 59 L 404 65.5 L 406.5 71 Q 409.1 70.2 408 73.5 L 411 77.5 L 411 79.5 L 413 94.5 L 411 106.5 L 402.5 120 L 391.5 126 L 383 112.5 Q 392.7 108.2 393 94.5 L 389 85.5 L 383.5 79 Q 378.7 73.3 368.5 73 L 356.5 81 L 344 72.5 L 344 68.5 L 351 58 L 361.5 52 L 371.5 51 Z " /><path fill="rgb(124,153,104)" stroke="rgb(124,153,104)" stroke-width="0.6" opacity="1" d="M 338.5 154 Q 347.8 154.8 352 160.5 Q 357.4 166.1 356 178.5 L 354 185 Q 350.2 183.5 351 186.5 L 352 188.5 Q 350 186.8 348 190.5 L 346.5 193 L 347 189.5 Q 352.5 184.5 351 172.5 L 342.5 162 L 337.5 161 L 329.5 167 L 327 167 Q 325.3 162.9 329.5 164 L 329 162.5 L 331.5 157 L 338.5 154 Z " /><path fill="rgb(124,153,104)" stroke="rgb(124,153,104)" stroke-width="0.6" opacity="1" d="M 147.5 167 L 148 169.5 L 147 171.5 L 150 175.5 Q 149.2 181.8 152 184.5 L 151 193.5 L 151 195.5 L 148.5 204 Q 143 201.5 144 192.5 L 145 190.5 L 143 177.5 L 147.5 167 Z " /><path fill="rgb(124,153,104)" stroke="rgb(124,153,104)" stroke-width="0.6" opacity="1" d="M 179.5 236 L 182 236 Q 180.3 240.1 184.5 239 L 199 250 Q 197.8 253 201.5 252 L 210 257.5 L 194.5 275 L 191 277 L 192 268.5 Q 186 264.5 184 256.5 L 180 239.5 L 179.5 236 Z " /><path fill="rgb(124,153,104)" stroke="rgb(124,153,104)" stroke-width="0.6" opacity="1" d="M 215.5 261 L 221.5 262 L 227.5 266 Q 236.2 265.3 239.5 270 L 261.5 275 L 274.5 276 L 276.5 275 L 281.5 277 L 302.5 275 L 307.5 276 L 309.5 276 L 313.5 274 L 315.5 274 L 328.5 272 L 330.5 270 L 336.5 270 L 355.5 262 L 358 263 L 366 280.5 L 366 284.5 L 371 297.5 L 370 301.5 L 371 308.5 L 363.5 313 L 360.5 313 L 341.5 303 L 336.5 303 L 328.5 299 L 315.5 297 L 313.5 298 L 301.5 296 L 292.5 297 L 285.5 296 L 279.5 298 L 275.5 297 L 250.5 303 Q 238.4 305.9 230.5 313 L 226.5 313 L 227 311.5 L 225.5 308 L 220 316.5 L 216 327.5 L 209.5 335 L 207 334.5 L 205 327.5 L 207 316.5 Q 206.2 308.3 201 304.5 Q 207.2 300.2 205 287.5 L 199 278.5 L 205.5 271 L 214 263.5 L 215.5 261 Z " /><path fill="rgb(124,153,104)" stroke="rgb(124,153,104)" stroke-width="0.6" opacity="1" d="M 184.5 275 Q 188 277 186 284.5 L 183.5 285 L 177.5 284 L 171.5 285 L 168 283.5 L 172 282 L 173.5 280 L 184.5 275 Z " /><path fill="rgb(124,153,104)" stroke="rgb(124,153,104)" stroke-width="0.6" opacity="1" d="M 195.5 284 Q 201 287 200 295 Q 196.2 296.5 197 293.5 L 192 287.5 L 195.5 284 Z " /><path fill="rgb(124,153,104)" stroke="rgb(124,153,104)" stroke-width="0.6" opacity="1" d="M 216.5 391 Q 234.3 403.2 258.5 409 L 260.5 409 L 262.5 410 L 264.5 410 L 268.5 411 L 270.5 411 L 282 413.5 L 278 421.5 L 277 446.5 L 269.5 459 L 254.5 464 L 252.5 463 L 236.5 465 L 231 461.5 L 230 457.5 L 235 445.5 L 232.5 445 L 229 447.5 Q 224.5 451 225 459.5 L 226 463.5 L 223.5 464 L 214.5 463 L 210 459.5 L 209 451.5 L 213 442.5 L 211.5 441 L 207 443.5 L 203.5 459 L 197 453.5 L 195 444.5 Q 196.1 436.1 201.5 432 L 211.5 427 L 216.5 427 L 223.5 428 Q 227 426 222.5 424 L 216.5 423 L 211 424 L 210 421.5 Q 212 418.3 214 421.5 Q 212.3 416.7 216.5 418 Q 220.5 416.5 219 409.5 L 219 407.5 L 214 393.5 L 216.5 391 Z " /><path fill="rgb(3,3,3)" stroke="rgb(3,3,3)" stroke-width="0.6" opacity="1" d="M 289.5 44 L 294 45.5 Q 295 51.5 291 52.5 L 293 53 L 293.5 55 L 299.5 52 L 304 53.5 L 290 57 L 291 48.5 Q 289.2 44.3 287.5 47 L 286 46.5 L 289.5 44 Z " /><path fill="rgb(3,3,3)" stroke="rgb(3,3,3)" stroke-width="0.6" opacity="1" d="M 369.5 44 L 379.5 44 L 381.5 46 L 392.5 48 L 405 56 L 416 72.5 L 420 88.5 L 419 93.5 L 420 98.5 L 418 100.5 L 418 104.5 L 414 114.5 L 404.5 124 L 401.5 126 L 400 123.5 L 412 109.5 Q 412 103 415.5 100 L 416.5 102 L 417 98.5 L 415 93.5 L 416 91.5 L 411 73.5 L 397.5 57 L 391.5 53 L 387.5 53 L 376.5 48 L 367.5 49 Q 365.5 46.5 369.5 44 Z " /><path fill="rgb(3,3,3)" stroke="rgb(3,3,3)" stroke-width="0.6" opacity="1" d="M 188.5 45 L 207.5 48 L 215 53.5 Q 213.5 57.9 216.5 57 L 222 60 Q 223.3 63.7 217.5 62 L 211.5 55 Q 207.5 55.8 208.5 53 L 204.5 53 L 202.5 50 L 204 49.5 L 201.5 49 L 200.5 50 L 186.5 50 L 181.5 53 L 177.5 53 L 165 60.5 L 153 75.5 L 150 81.5 L 149 89 Q 145.3 87.7 147 93.5 L 148 95.5 L 147 102 Q 150.3 100.7 149 105.5 L 153 116 L 156 117.5 L 161.5 125 L 165 126.5 L 163 127.5 L 168 128 L 169 130.5 L 165.5 131 L 153 123 L 149 115.5 L 151 115 L 149.5 112 L 147 111.5 Q 144 109.5 145 103.5 L 146 96.5 L 145 96.5 L 144.5 101 L 143 90.5 L 146 89.5 L 145 83.5 Q 149.8 65.3 163.5 56 L 171.5 50 L 188.5 45 Z " /><path fill="rgb(3,3,3)" stroke="rgb(3,3,3)" stroke-width="0.6" opacity="1" d="M 361.5 46 Q 364.8 44.9 364 47.5 L 365 49.5 L 354 54 L 352.5 57 L 348 59 L 346.5 62 L 344 60.5 L 345.5 58 L 348 56.5 L 353.5 50 L 361.5 46 Z " /><path fill="rgb(3,3,3)" stroke="rgb(3,3,3)" stroke-width="0.6" opacity="1" d="M 307.5 63 L 321 65.5 L 317.5 66 L 307.5 64 L 307.5 63 Z " /><path fill="rgb(3,3,3)" stroke="rgb(3,3,3)" stroke-width="0.6" opacity="1" d="M 338 69 Q 344 66.8 342 73.5 L 342.5 75 L 337 71.5 L 338 69 Z " /><path fill="rgb(3,3,3)" stroke="rgb(3,3,3)" stroke-width="0.6" opacity="1" d="M 224.5 70 L 227 71 L 225 78 L 222.5 79 L 222 76.5 Q 225.1 75 224.5 70 Z " /><path fill="rgb(3,3,3)" stroke="rgb(3,3,3)" stroke-width="0.6" opacity="1" d="M 364.5 76 L 368.5 77 L 376.5 76 L 384 81.5 L 390 91.5 L 390 101.5 L 386.5 108 L 379 112 L 379 109.5 L 369 98.5 L 369 96.5 L 359 86.5 L 358 82.5 L 364.5 76 Z " /><path fill="rgb(3,3,3)" stroke="rgb(3,3,3)" stroke-width="0.6" opacity="1" d="M 187.5 78 Q 201.1 75.9 206 82.5 L 206 85 L 208 86.5 L 209 90 L 206 91.5 Q 193.8 101.2 188 116 L 186 117.5 L 183 124 L 181 122.5 L 185 115 L 181.5 113 L 179 109 L 175 107.5 L 174 94.5 L 175 89.5 L 184.5 80 L 187.5 78 Z " /><path fill="rgb(3,3,3)" stroke="rgb(3,3,3)" stroke-width="0.6" opacity="1" d="M 337.5 113 Q 342.8 111.8 344 114.5 L 343.5 116 Q 348.8 114.5 347 119 L 337 115.5 L 342 114.5 L 337.5 114 L 337.5 113 Z " /><path fill="rgb(3,3,3)" stroke="rgb(3,3,3)" stroke-width="0.6" opacity="1" d="M 241.5 116 Q 249.8 113.8 252 117.5 Q 252.4 120.8 244.5 119 L 237 123 L 238.5 118 L 241.5 116 Z " /><path fill="rgb(3,3,3)" stroke="rgb(3,3,3)" stroke-width="0.6" opacity="1" d="M 383.5 118 L 386 119.5 L 388 126 L 391.5 128 L 397.5 125 L 399 127.5 L 391 131 L 392 134.5 L 390.5 134 Q 387.1 134.9 389 129.5 L 383.5 118 Z " /><path fill="rgb(3,3,3)" stroke="rgb(3,3,3)" stroke-width="0.6" opacity="1" d="M 170.5 130 L 174.5 131 L 179 130 L 178 138 Q 173.5 139.8 175 134.5 L 171 133 L 170.5 130 Z " /><path fill="rgb(3,3,3)" stroke="rgb(3,3,3)" stroke-width="0.6" opacity="1" d="M 336.5 140 L 343.5 140 L 354 144 L 356.5 148 L 364 153.5 Q 369 157.8 370 165 L 374 167.5 L 378 187.5 L 374 198.5 L 367.5 205 Q 362.5 204 361.5 207 L 349.5 207 L 332 197.5 L 325.5 188 Q 322.9 188.8 324 185.5 L 321 180 L 323.5 179 L 329.5 188 L 330 185.5 L 329 170.5 L 331 166 L 335.5 164 L 338 164.5 L 336 173.5 L 338.5 177 L 342.5 178 L 348 173.5 L 350 178.5 L 346.5 188 L 345 189.5 L 337 192 Q 335.8 195 339.5 194 L 342.5 195 Q 350 194.5 353 189.5 L 357 183.5 L 358 172.5 Q 355.8 160.7 347.5 155 Q 344.3 151.2 335.5 153 L 328 158 L 324 166.5 L 323 175 Q 326 174 325 177 L 322 175.5 L 321.5 170 L 320.5 177 L 319 162.5 Q 322 159.5 321 152.5 L 326.5 144 L 336.5 140 Z " /><path fill="rgb(3,3,3)" stroke="rgb(3,3,3)" stroke-width="0.6" opacity="1" d="M 245.5 142 L 254.5 142 L 265 150.5 L 268 154.5 L 268 164.5 L 270 174.5 L 265 190.5 L 258.5 199 L 255 200.5 L 253 205 Q 244.5 212.2 226.5 211 L 219 207.5 L 217.5 206 L 214 203.5 L 209 193.5 L 209 181.5 Q 212.5 179.8 211 174 Q 214.3 175.3 213 170.5 L 218.5 162 L 220 160.5 L 226.5 153 L 232 151 L 235.5 146 L 245.5 142 Z M 244 155 L 238 159 L 236 162 L 233 163 L 229 172 L 230 174 L 229 178 Q 228 186 232 190 Q 236 197 246 198 L 256 196 Q 263 191 265 181 Q 266 170 262 165 L 252 155 L 244 155 Z " /><path fill="rgb(3,3,3)" stroke="rgb(3,3,3)" stroke-width="0.6" opacity="1" d="M 147.5 162 L 152 170.5 L 150 171.5 L 147.5 162 Z " /><path fill="rgb(3,3,3)" stroke="rgb(3,3,3)" stroke-width="0.6" opacity="1" d="M 243.5 166 L 248.5 167 L 250.5 166 L 254.5 171 L 248.5 168 L 243 172.5 L 246.5 179 L 251.5 180 L 254.5 178 L 256 178.5 L 256.5 177 L 258 183.5 L 254.5 191 L 245.5 195 L 237 188.5 L 236 178.5 Q 236.4 171.9 240.5 169 L 242 167.5 L 243.5 166 Z " /><path fill="rgb(3,3,3)" stroke="rgb(3,3,3)" stroke-width="0.6" opacity="1" d="M 143.5 168 L 144 170.5 L 141.5 177 L 141 171.5 L 143.5 168 Z " /><path fill="rgb(3,3,3)" stroke="rgb(3,3,3)" stroke-width="0.6" opacity="1" d="M 95.5 172 L 102 175.5 L 100.5 176 L 98.5 175 L 96.5 178 Q 93.6 176.6 95.5 172 Z " /><path fill="rgb(3,3,3)" stroke="rgb(3,3,3)" stroke-width="0.6" opacity="1" d="M 164.5 176 L 166 184 Q 162 182.7 164 189 Q 167.7 187.7 166 193.5 L 164.5 197 Q 161.2 191.8 163 181.5 L 164.5 176 Z " /><path fill="rgb(3,3,3)" stroke="rgb(3,3,3)" stroke-width="0.6" opacity="1" d="M 123.5 189 L 129 193.5 L 130 195.5 L 128.5 196 L 123 190.5 L 123.5 189 Z " /><path fill="rgb(3,3,3)" stroke="rgb(3,3,3)" stroke-width="0.6" opacity="1" d="M 291.5 196 L 295 197.5 L 292 201.5 L 294.5 204 L 309.5 204 L 313 199 L 310 197.5 L 312.5 196 L 314.5 199 L 317 199.5 L 318 210 L 304 218.5 L 302.5 221 L 289.5 215 L 284 209.5 L 283 202.5 L 288 199.5 L 289.5 197 L 291.5 196 Z " /><path fill="rgb(3,3,3)" stroke="rgb(3,3,3)" stroke-width="0.6" opacity="1" d="M 143 204 L 145 205.5 L 147.5 210 L 150.5 208 L 151 211.5 Q 147.8 212.8 149 218.5 L 150 225.5 L 148.5 230 L 148 226 L 146 224.5 L 144 220.5 Q 142.9 217.2 145.5 218 L 147 218.5 L 148 213.5 Q 143.4 210.4 143 204 Z " /><path fill="rgb(3,3,3)" stroke="rgb(3,3,3)" stroke-width="0.6" opacity="1" d="M 169 213 L 172 214.5 Q 170.5 218.9 173.5 218 L 173.5 219 L 169.5 220 L 169 217.5 L 169 213 Z " /><path fill="rgb(3,3,3)" stroke="rgb(3,3,3)" stroke-width="0.6" opacity="1" d="M 174.5 223 L 175 226 L 168.5 228 L 169.5 226 L 174.5 223 Z " /><path fill="rgb(3,3,3)" stroke="rgb(3,3,3)" stroke-width="0.6" opacity="1" d="M 176.5 227 L 177.5 229 L 179.5 229 L 183 231 L 183 234 Q 179.2 235.5 180 232.5 L 176 232.5 L 176.5 227 Z " /><path fill="rgb(3,3,3)" stroke="rgb(3,3,3)" stroke-width="0.6" opacity="1" d="M 152.5 230 Q 155.8 228.9 155 231.5 L 152.5 236 L 151 233 L 153 232.5 L 151 231.5 L 152.5 230 Z " /><path fill="rgb(3,3,3)" stroke="rgb(3,3,3)" stroke-width="0.6" opacity="1" d="M 318.5 232 L 321 232.5 L 312.5 236 L 312.5 235 L 318.5 232 Z " /><path fill="rgb(3,3,3)" stroke="rgb(3,3,3)" stroke-width="0.6" opacity="1" d="M 273 233 L 281 234 Q 282.3 237 278.5 236 L 276.5 235 L 276 237.5 L 278 243.5 L 276 242.5 L 273 237.5 L 273 233 Z " /><path fill="rgb(3,3,3)" stroke="rgb(3,3,3)" stroke-width="0.6" opacity="1" d="M 295.5 233 L 294.5 235 L 292 236.5 L 294 240.5 L 289.5 237 Q 282.6 239 284 235 L 295.5 233 Z " /><path fill="rgb(3,3,3)" stroke="rgb(3,3,3)" stroke-width="0.6" opacity="1" d="M 117.5 234 Q 128.1 232.4 133 236.5 L 128.5 237 L 117.5 236 L 113.5 237 L 114.5 235 L 117.5 234 Z " /><path fill="rgb(3,3,3)" stroke="rgb(3,3,3)" stroke-width="0.6" opacity="1" d="M 153 237 L 156 238.5 L 157 245.5 L 156 245.5 L 153 237 Z " /><path fill="rgb(3,3,3)" stroke="rgb(3,3,3)" stroke-width="0.6" opacity="1" d="M 177.5 237 L 180 244.5 L 178 245.5 L 177.5 237 Z " /><path fill="rgb(3,3,3)" stroke="rgb(3,3,3)" stroke-width="0.6" opacity="1" d="M 312 237 L 314 238.5 L 310.5 246 L 310 243.5 L 312 237 Z " /><path fill="rgb(3,3,3)" stroke="rgb(3,3,3)" stroke-width="0.6" opacity="1" d="M 149.5 243 L 150 245 L 153 246.5 L 151.5 246 L 150 248 L 147.5 248 L 135.5 251 L 136.5 249 Q 145.5 249.2 149 245 L 149.5 243 Z " /><path fill="rgb(3,3,3)" stroke="rgb(3,3,3)" stroke-width="0.6" opacity="1" d="M 365.5 252 Q 369.9 250.5 369 253.5 L 368.5 258 L 364 256.5 L 365 254.5 L 365.5 252 Z " /><path fill="rgb(3,3,3)" stroke="rgb(3,3,3)" stroke-width="0.6" opacity="1" d="M 300.5 253 L 303 253.5 Q 299.7 257.9 291 256 L 291.5 254 L 299.5 254 L 300.5 253 Z " /><path fill="rgb(3,3,3)" stroke="rgb(3,3,3)" stroke-width="0.6" opacity="1" d="M 211 254 L 215 255.5 L 214 258.5 L 216.5 257 L 218 259 L 212.5 261 L 213 259.5 L 211 254 Z " /><path fill="rgb(3,3,3)" stroke="rgb(3,3,3)" stroke-width="0.6" opacity="1" d="M 185.5 266 L 188 267 L 188 271 Q 191 270 190 273 L 185 272 L 186 267.5 L 185.5 266 Z " /><path fill="rgb(3,3,3)" stroke="rgb(3,3,3)" stroke-width="0.6" opacity="1" d="M 161.5 271 L 162 272.5 Q 159.3 274.3 163.5 276 L 172.5 276 L 173 278 L 162.5 277 Q 159.5 278.5 162.5 280 L 166 282.5 L 167 287 L 169 287.5 L 162.5 289 L 163 287.5 L 164 284.5 L 159 276.5 L 161.5 271 Z " /><path fill="rgb(3,3,3)" stroke="rgb(3,3,3)" stroke-width="0.6" opacity="1" d="M 279.5 272 L 292 273 L 291.5 275 L 279.5 275 L 276 273.5 L 279.5 272 Z " /><path fill="rgb(3,3,3)" stroke="rgb(3,3,3)" stroke-width="0.6" opacity="1" d="M 187 276 L 189 277.5 L 194 280.5 L 190 282.5 Q 191.3 287.3 188 286 L 187 276 Z " /><path fill="rgb(3,3,3)" stroke="rgb(3,3,3)" stroke-width="0.6" opacity="1" d="M 201.5 288 Q 204.7 290.3 204 296.5 L 198.5 303 L 197 299 L 201 297.5 L 202 289.5 L 201.5 288 Z " /><path fill="rgb(3,3,3)" stroke="rgb(3,3,3)" stroke-width="0.6" opacity="1" d="M 372.5 293 L 374 302.5 L 377.5 307 L 379.5 306 L 379.5 307 L 374.5 309 L 373 307.5 L 372.5 293 Z " /><path fill="rgb(3,3,3)" stroke="rgb(3,3,3)" stroke-width="0.6" opacity="1" d="M 194.5 307 L 195 309 L 184 312 Q 182.8 309 186.5 310 L 194.5 307 Z " /><path fill="rgb(3,3,3)" stroke="rgb(3,3,3)" stroke-width="0.6" opacity="1" d="M 236.5 311 L 234.5 314 L 227.5 317 L 229.5 314 L 236.5 311 Z " /><path fill="rgb(3,3,3)" stroke="rgb(3,3,3)" stroke-width="0.6" opacity="1" d="M 142.5 313 L 144 324.5 L 142.5 328 L 140 321.5 L 142.5 313 Z " /><path fill="rgb(3,3,3)" stroke="rgb(3,3,3)" stroke-width="0.6" opacity="1" d="M 224.5 315 L 226 319 L 221.5 322 L 221 319.5 L 224.5 315 Z " /><path fill="rgb(3,3,3)" stroke="rgb(3,3,3)" stroke-width="0.6" opacity="1" d="M 204.5 318 L 205 322.5 L 203.5 333 L 203 331 L 200 329.5 L 204.5 318 Z " /><path fill="rgb(3,3,3)" stroke="rgb(3,3,3)" stroke-width="0.6" opacity="1" d="M 201.5 339 L 202 340.5 L 201 343 L 205 345.5 L 204 351 L 202 349.5 L 199.5 346 L 196.5 347 L 197 345.5 L 201.5 339 Z " /><path fill="rgb(3,3,3)" stroke="rgb(3,3,3)" stroke-width="0.6" opacity="1" d="M 337.5 342 L 340.5 353 L 344.5 351 L 344 352.5 L 342 358 L 344 359.5 Q 342.5 362.5 341 359.5 L 339 352.5 Q 335.2 349.4 337.5 342 Z " /><path fill="rgb(3,3,3)" stroke="rgb(3,3,3)" stroke-width="0.6" opacity="1" d="M 168.5 355 L 179 356.5 L 171.5 357 L 168.5 355 Z " /><path fill="rgb(3,3,3)" stroke="rgb(3,3,3)" stroke-width="0.6" opacity="1" d="M 205 360 L 208 361.5 L 209.5 363 L 212 367.5 L 210 368.5 L 205 360 Z " /><path fill="rgb(3,3,3)" stroke="rgb(3,3,3)" stroke-width="0.6" opacity="1" d="M 181.5 362 L 182 369 L 184 369.5 L 182 370 L 181.5 372 L 180 371.5 L 182 376 L 179 374.5 L 179 369.5 Q 182.2 370.1 181.5 362 Z " /><path fill="rgb(3,3,3)" stroke="rgb(3,3,3)" stroke-width="0.6" opacity="1" d="M 356 365 L 358 366.5 L 356 370 L 358 371.5 L 359.5 374 L 354 373 L 352 368 L 356 366.5 L 356 365 Z " /><path fill="rgb(3,3,3)" stroke="rgb(3,3,3)" stroke-width="0.6" opacity="1" d="M 384.5 371 Q 388.9 369.5 388 372.5 L 388.5 374 L 387 375.5 L 388 379.5 L 385.5 381 L 382.5 379 L 380 380 L 381 377.5 L 380 375 L 378 374.5 L 384.5 371 Z " /><path fill="rgb(3,3,3)" stroke="rgb(3,3,3)" stroke-width="0.6" opacity="1" d="M 365.5 375 L 376 375.5 L 365.5 376 L 365.5 375 Z " /><path fill="rgb(3,3,3)" stroke="rgb(3,3,3)" stroke-width="0.6" opacity="1" d="M 209.5 382 L 212 383 L 211 387.5 L 212 390 L 210 388.5 L 209.5 382 Z " /><path fill="rgb(3,3,3)" stroke="rgb(3,3,3)" stroke-width="0.6" opacity="1" d="M 385.5 382 L 386 394.5 L 384.5 397 L 383 392.5 L 385 390.5 L 385.5 382 Z " /><path fill="rgb(3,3,3)" stroke="rgb(3,3,3)" stroke-width="0.6" opacity="1" d="M 382.5 404 L 383 408.5 L 380.5 416 L 380 412.5 L 382.5 404 Z " /><path fill="rgb(3,3,3)" stroke="rgb(3,3,3)" stroke-width="0.6" opacity="1" d="M 279 409 L 288 410.5 L 286 411.5 L 286.5 413 L 284.5 414 L 284 412 L 279 411 L 279 409 Z " /><path fill="rgb(3,3,3)" stroke="rgb(3,3,3)" stroke-width="0.6" opacity="1" d="M 303.5 409 Q 311.1 407.5 310 411 Q 304.9 410 303.5 414 L 303 411 L 300 410.5 L 303.5 409 Z " /><path fill="rgb(3,3,3)" stroke="rgb(3,3,3)" stroke-width="0.6" opacity="1" d="M 209.5 417 L 211 418.5 L 208 420.5 L 210 425 L 214 424 Q 215.3 427.7 209.5 426 L 206 427 L 207 422.5 L 205 421.5 L 207 421 L 209.5 417 Z " /><path fill="rgb(3,3,3)" stroke="rgb(3,3,3)" stroke-width="0.6" opacity="1" d="M 378.5 420 L 380 425 L 382 425.5 L 380.5 426 L 375 424.5 L 378.5 420 Z " /><path fill="rgb(3,3,3)" stroke="rgb(3,3,3)" stroke-width="0.6" opacity="1" d="M 280.5 427 L 282 433 L 280 433.5 L 280 441.5 L 279 441.5 Q 276.8 431.3 280.5 427 Z " /><path fill="rgb(3,3,3)" stroke="rgb(3,3,3)" stroke-width="0.6" opacity="1" d="M 307.5 428 L 310 438.5 L 308.5 448 L 307.5 428 Z " /><path fill="rgb(3,3,3)" stroke="rgb(3,3,3)" stroke-width="0.6" opacity="1" d="M 394.5 439 L 396 440.5 L 396 450.5 Q 394.5 453.5 393 450.5 L 395 448.5 L 395 443 Q 392 444.3 393 440.5 L 394.5 439 Z " /><path fill="rgb(3,3,3)" stroke="rgb(3,3,3)" stroke-width="0.6" opacity="1" d="M 192.5 442 L 194 448.5 L 192.5 451 L 191 444.5 L 192.5 442 Z " /><path fill="rgb(3,3,3)" stroke="rgb(3,3,3)" stroke-width="0.6" opacity="1" d="M 378 456 Q 381.7 454.9 380 463.5 L 376.5 466 L 375 462.5 L 378 456 Z " /><path fill="rgb(3,3,3)" stroke="rgb(3,3,3)" stroke-width="0.6" opacity="1" d="M 227 458 Q 230 456.8 229 460.5 L 232 465.5 L 231 468 L 229 466.5 L 229 464.5 L 227 458 Z " /><path fill="rgb(3,3,3)" stroke="rgb(3,3,3)" stroke-width="0.6" opacity="1" d="M 207.5 459 Q 211.7 460.3 211 465 L 203 462.5 L 206 462 L 207.5 459 Z " /><path fill="rgb(3,3,3)" stroke="rgb(3,3,3)" stroke-width="0.6" opacity="1" d="M 356.5 462 L 358 464.5 L 357.5 466 L 371.5 465 L 371.5 466 L 356.5 467 Q 351.5 464.5 356.5 462 Z " /><path fill="rgb(3,3,3)" stroke="rgb(3,3,3)" stroke-width="0.6" opacity="1" d="M 214.5 465 L 224 466.5 L 217.5 468 L 214.5 465 Z " /><path fill="rgb(3,3,3)" stroke="rgb(3,3,3)" stroke-width="0.6" opacity="1" d="M 253.5 465 L 258 465.5 L 253.5 468 L 249 466.5 L 253.5 465 Z " /><path fill="rgb(11,11,11)" stroke="rgb(11,11,11)" stroke-width="0.6" opacity="1" d="M 287.5 44 L 289 44.5 L 286 46.5 L 284.5 49 L 281.5 49 L 273.5 55 L 271.5 54 Q 273.3 56.5 268.5 59 L 261 63 Q 259.5 59.3 262.5 60 L 274.5 50 L 287.5 44 Z " /><path fill="rgb(11,11,11)" stroke="rgb(11,11,11)" stroke-width="0.6" opacity="1" d="M 368.5 44 L 367.5 49 L 371 49.5 L 364.5 51 L 365 49.5 L 363 45.5 L 368.5 44 Z " /><path fill="rgb(11,11,11)" stroke="rgb(11,11,11)" stroke-width="0.6" opacity="1" d="M 199.5 48 L 204 49.5 L 202 50.5 L 202.5 52 L 196 50.5 L 201 49.5 L 199.5 48 Z " /><path fill="rgb(11,11,11)" stroke="rgb(11,11,11)" stroke-width="0.6" opacity="1" d="M 290.5 50 L 291.5 52 L 293 51.5 L 295 55.5 L 292.5 57 L 292.5 56 L 294 55.5 L 293 53 L 290.5 52 L 290 56.5 L 290.5 58 L 286.5 60 L 287 56.5 L 290.5 50 Z " /><path fill="rgb(11,11,11)" stroke="rgb(11,11,11)" stroke-width="0.6" opacity="1" d="M 352.5 50 L 348 55.5 L 346.5 58 L 344.5 59 L 352.5 50 Z " /><path fill="rgb(11,11,11)" stroke="rgb(11,11,11)" stroke-width="0.6" opacity="1" d="M 169.5 51 L 167.5 54 L 152.5 67 L 157 61.5 L 159.5 58 L 169.5 51 Z " /><path fill="rgb(11,11,11)" stroke="rgb(11,11,11)" stroke-width="0.6" opacity="1" d="M 214.5 52 L 221 59.5 L 219.5 59 L 215 57 L 214.5 52 Z " /><path fill="rgb(11,11,11)" stroke="rgb(11,11,11)" stroke-width="0.6" opacity="1" d="M 300.5 52 L 306 53.5 Q 304.2 57.7 302.5 55 L 300 54.5 L 304 53.5 Q 299.6 53.9 300.5 52 Z " /><path fill="rgb(11,11,11)" stroke="rgb(11,11,11)" stroke-width="0.6" opacity="1" d="M 304.5 57 L 306 59.5 L 304 59.5 L 305 61.5 L 304.5 63 L 306 61.5 L 307.5 62 Q 312.8 60.8 314 63.5 Q 312.5 66.5 306.5 65 L 302.5 64 L 297.5 67 L 297.5 66 L 299 65.5 L 298 64.5 L 303 59.5 L 304.5 57 Z " /><path fill="rgb(11,11,11)" stroke="rgb(11,11,11)" stroke-width="0.6" opacity="1" d="M 396.5 57 L 406 65.5 L 407 67.5 L 405 66.5 L 397.5 58 L 396.5 57 Z " /><path fill="rgb(11,11,11)" stroke="rgb(11,11,11)" stroke-width="0.6" opacity="1" d="M 348.5 59 L 349 60.5 L 344.5 66 L 344 64 L 341 63.5 L 343.5 60 L 346.5 62 L 348.5 59 Z " /><path fill="rgb(11,11,11)" stroke="rgb(11,11,11)" stroke-width="0.6" opacity="1" d="M 254.5 62 L 260 63.5 L 255.5 65 L 255.5 64 L 258 63.5 L 254.5 63 L 253 63.5 L 254.5 62 Z " /><path fill="rgb(11,11,11)" stroke="rgb(11,11,11)" stroke-width="0.6" opacity="1" d="M 247.5 64 Q 253.8 62.1 252 67 L 246.5 67 L 225 77 L 227 72 L 235.5 69 L 235.5 71 L 239 69.5 L 238 67 L 241 67.5 L 240.5 69 L 244 67.5 L 243.5 66 L 245.5 67 L 247.5 64 Z " /><path fill="rgb(11,11,11)" stroke="rgb(11,11,11)" stroke-width="0.6" opacity="1" d="M 317.5 64 L 323 65.5 L 323.5 67 L 324 65 L 329 67.5 L 324.5 69 Q 322.6 65.3 316 67 L 317.5 64 Z " /><path fill="rgb(11,11,11)" stroke="rgb(11,11,11)" stroke-width="0.6" opacity="1" d="M 223.5 66 L 225 67.5 L 226 70.5 L 224 70.5 L 223.5 75 L 221 67.5 L 223.5 66 Z " /><path fill="rgb(11,11,11)" stroke="rgb(11,11,11)" stroke-width="0.6" opacity="1" d="M 330.5 68 L 338 70.5 L 337.5 72 L 342.5 75 L 342.5 73 L 355.5 82 L 358 82 L 359 86.5 L 369 97.5 L 368 97.5 L 359.5 88 Q 346.6 76.4 329 69.5 L 330.5 68 Z " /><path fill="rgb(11,11,11)" stroke="rgb(11,11,11)" stroke-width="0.6" opacity="1" d="M 416.5 73 L 420 83.5 L 418 82.5 L 416.5 73 Z " /><path fill="rgb(11,11,11)" stroke="rgb(11,11,11)" stroke-width="0.6" opacity="1" d="M 146.5 77 L 147 79.5 L 145 87.5 L 146 89.5 L 143 89.5 L 146.5 77 Z " /><path fill="rgb(11,11,11)" stroke="rgb(11,11,11)" stroke-width="0.6" opacity="1" d="M 189.5 77 Q 197.7 75.3 201 78.5 L 199.5 79 L 189.5 78 L 189.5 77 Z " /><path fill="rgb(11,11,11)" stroke="rgb(11,11,11)" stroke-width="0.6" opacity="1" d="M 221.5 77 L 222 79.5 L 209.5 89 L 208 86.5 L 213.5 82 L 216 82 L 217.5 79 L 221.5 77 Z " /><path fill="rgb(11,11,11)" stroke="rgb(11,11,11)" stroke-width="0.6" opacity="1" d="M 186.5 78 L 185.5 80 L 176.5 88 L 184.5 79 L 186.5 78 Z " /><path fill="rgb(11,11,11)" stroke="rgb(11,11,11)" stroke-width="0.6" opacity="1" d="M 143.5 95 L 144.5 101 L 145.5 96 L 146 102.5 L 144.5 107 L 143.5 95 Z " /><path fill="rgb(11,11,11)" stroke="rgb(11,11,11)" stroke-width="0.6" opacity="1" d="M 173.5 95 L 175 105.5 L 174 105.5 L 173.5 95 Z " /><path fill="rgb(11,11,11)" stroke="rgb(11,11,11)" stroke-width="0.6" opacity="1" d="M 417.5 105 L 418 106.5 L 414.5 114 L 414 112.5 L 417.5 105 Z " /><path fill="rgb(11,11,11)" stroke="rgb(11,11,11)" stroke-width="0.6" opacity="1" d="M 150.5 108 L 153 113.5 L 151 113.5 L 149.5 115 L 150 116.5 L 153 121.5 L 152 121.5 L 145 109.5 L 147 110.5 L 148.5 113 L 151 112.5 L 150.5 108 Z " /><path fill="rgb(11,11,11)" stroke="rgb(11,11,11)" stroke-width="0.6" opacity="1" d="M 385.5 108 L 383 111.5 L 386 118.5 L 384.5 118 L 380 114.5 L 379 112.5 L 385.5 108 Z " /><path fill="rgb(11,11,11)" stroke="rgb(11,11,11)" stroke-width="0.6" opacity="1" d="M 176.5 109 Q 179.8 107.9 179 110.5 L 183 113.5 L 181.5 114 L 176.5 109 Z " /><path fill="rgb(11,11,11)" stroke="rgb(11,11,11)" stroke-width="0.6" opacity="1" d="M 336.5 112 Q 348.2 111.3 352 118.5 L 353 121.5 Q 351.5 124.5 350 121.5 L 351 118.5 L 349 117.5 L 347.5 120 L 347 116 L 343 115.5 L 342.5 113 L 337 113.5 L 342 114.5 L 337 115.5 L 345 118.5 L 343.5 118 L 334 116.5 L 334.5 115 L 332.5 116 L 334.5 113 L 336.5 112 Z " /><path fill="rgb(11,11,11)" stroke="rgb(11,11,11)" stroke-width="0.6" opacity="1" d="M 242.5 115 Q 251 113 253 117.5 L 250.5 116 L 242.5 116 L 242.5 115 Z " /><path fill="rgb(11,11,11)" stroke="rgb(11,11,11)" stroke-width="0.6" opacity="1" d="M 239.5 116 L 241 116.5 L 237 119.5 L 238 123.5 L 235.5 125 L 233 124 L 239.5 116 Z " /><path fill="rgb(11,11,11)" stroke="rgb(11,11,11)" stroke-width="0.6" opacity="1" d="M 412.5 116 L 403.5 126 L 399.5 128 L 397 124.5 L 402.5 120 L 400 123.5 L 401 124.5 L 401.5 126 L 412.5 116 Z " /><path fill="rgb(11,11,11)" stroke="rgb(11,11,11)" stroke-width="0.6" opacity="1" d="M 160.5 123 Q 165.7 128.7 175 129 L 173.5 131 L 170.5 130 L 171 131.5 L 170.5 133 L 167 131.5 L 169 130.5 L 168 128 L 163 127.5 L 165 126.5 L 160.5 123 Z " /><path fill="rgb(11,11,11)" stroke="rgb(11,11,11)" stroke-width="0.6" opacity="1" d="M 391 131 Q 394.3 129.7 393 134.5 L 397 145.5 L 395 144.5 L 394.5 143 L 394 145.5 L 394.5 147 L 390 134.5 L 392 134.5 L 391 131 Z " /><path fill="rgb(11,11,11)" stroke="rgb(11,11,11)" stroke-width="0.6" opacity="1" d="M 174.5 134 L 175 138 L 177 138.5 L 173.5 148 L 171 147 L 174.5 134 Z " /><path fill="rgb(11,11,11)" stroke="rgb(11,11,11)" stroke-width="0.6" opacity="1" d="M 244.5 142 L 243.5 144 L 236.5 146 L 236.5 145 L 244.5 142 Z " /><path fill="rgb(11,11,11)" stroke="rgb(11,11,11)" stroke-width="0.6" opacity="1" d="M 255.5 142 L 266 150.5 L 267 152.5 L 265 151.5 L 259.5 145 L 255.5 142 Z " /><path fill="rgb(11,11,11)" stroke="rgb(11,11,11)" stroke-width="0.6" opacity="1" d="M 354.5 145 L 363 151.5 L 361.5 152 L 354.5 145 Z " /><path fill="rgb(11,11,11)" stroke="rgb(11,11,11)" stroke-width="0.6" opacity="1" d="M 234.5 146 L 232 149.5 L 230.5 151 L 227.5 153 L 231.5 148 L 234.5 146 Z " /><path fill="rgb(11,11,11)" stroke="rgb(11,11,11)" stroke-width="0.6" opacity="1" d="M 396.5 147 L 398 151.5 L 397 153.5 L 400 154.5 L 399.5 156 L 397.5 156 Q 394.9 156.8 396 153.5 L 394 148 L 396.5 147 Z " /><path fill="rgb(11,11,11)" stroke="rgb(11,11,11)" stroke-width="0.6" opacity="1" d="M 170.5 148 L 171.5 151 L 173 150.5 L 170.5 157 L 169 151.5 L 170.5 148 Z " /><path fill="rgb(11,11,11)" stroke="rgb(11,11,11)" stroke-width="0.6" opacity="1" d="M 243.5 155 L 252 155.5 L 242.5 157 L 243.5 155 Z " /><path fill="rgb(11,11,11)" stroke="rgb(11,11,11)" stroke-width="0.6" opacity="1" d="M 268.5 157 L 270 168.5 L 269 168.5 L 268.5 157 Z " /><path fill="rgb(11,11,11)" stroke="rgb(11,11,11)" stroke-width="0.6" opacity="1" d="M 397.5 158 L 399.5 159 L 402 159.5 L 404 167.5 L 403 169.5 L 406 170.5 Q 408.3 177.8 403 176 L 401 165.5 L 397.5 158 Z " /><path fill="rgb(11,11,11)" stroke="rgb(11,11,11)" stroke-width="0.6" opacity="1" d="M 146.5 159 L 149 162.5 L 147 162.5 L 146.5 164 L 145.5 162 L 143 163.5 L 146.5 159 Z " /><path fill="rgb(11,11,11)" stroke="rgb(11,11,11)" stroke-width="0.6" opacity="1" d="M 368.5 159 L 373 165.5 L 371.5 165 L 370 163.5 L 368.5 159 Z " /><path fill="rgb(11,11,11)" stroke="rgb(11,11,11)" stroke-width="0.6" opacity="1" d="M 166.5 161 L 167.5 164 L 169.5 163 L 169 164.5 L 168 171 Q 162.8 172.8 165 165.5 L 166.5 161 Z " /><path fill="rgb(11,11,11)" stroke="rgb(11,11,11)" stroke-width="0.6" opacity="1" d="M 336 163 L 343 164 L 342.5 166 L 339.5 165 L 338 165.5 L 337.5 164 L 336 164.5 L 336 163 Z " /><path fill="rgb(11,11,11)" stroke="rgb(11,11,11)" stroke-width="0.6" opacity="1" d="M 324.5 166 L 325 169.5 L 324 171.5 L 325 175 Q 321.3 176.3 323 170.5 L 324.5 166 Z " /><path fill="rgb(11,11,11)" stroke="rgb(11,11,11)" stroke-width="0.6" opacity="1" d="M 346.5 167 L 350 175.5 L 348 174.5 L 346 169.5 L 346.5 167 Z " /><path fill="rgb(11,11,11)" stroke="rgb(11,11,11)" stroke-width="0.6" opacity="1" d="M 246.5 169 L 245 171.5 L 244 174.5 L 247 178.5 L 244 176.5 L 243 172.5 L 246.5 169 Z " /><path fill="rgb(11,11,11)" stroke="rgb(11,11,11)" stroke-width="0.6" opacity="1" d="M 321.5 170 L 323.5 177 Q 326.1 176.2 325 179.5 L 322.5 180 L 320.5 181 L 320 177.5 L 321.5 170 Z " /><path fill="rgb(11,11,11)" stroke="rgb(11,11,11)" stroke-width="0.6" opacity="1" d="M 165.5 172 L 166 180.5 L 165 180.5 L 164.5 176 L 162.5 192 L 162 180.5 L 163 173 L 165.5 172 Z " /><path fill="rgb(11,11,11)" stroke="rgb(11,11,11)" stroke-width="0.6" opacity="1" d="M 264.5 172 L 265 180.5 L 263.5 183 L 263 181.5 L 264.5 172 Z " /><path fill="rgb(11,11,11)" stroke="rgb(11,11,11)" stroke-width="0.6" opacity="1" d="M 328.5 172 L 330 184.5 L 329 184.5 L 328.5 172 Z " /><path fill="rgb(11,11,11)" stroke="rgb(11,11,11)" stroke-width="0.6" opacity="1" d="M 101.5 174 L 108 178.5 L 109 180.5 L 106.5 179 L 98 176 L 99 179.5 L 96 179.5 L 95 177.5 L 97 177.5 L 98.5 175 L 101.5 176 L 101.5 174 Z " /><path fill="rgb(11,11,11)" stroke="rgb(11,11,11)" stroke-width="0.6" opacity="1" d="M 111.5 180 L 125 189.5 L 123 189.5 L 128 195.5 L 116.5 185 L 110 181.5 L 111.5 180 Z " /><path fill="rgb(11,11,11)" stroke="rgb(11,11,11)" stroke-width="0.6" opacity="1" d="M 321.5 183 L 324 188 L 327 189.5 L 332 196.5 L 325 190.5 L 321.5 183 Z " /><path fill="rgb(11,11,11)" stroke="rgb(11,11,11)" stroke-width="0.6" opacity="1" d="M 405.5 185 L 409 186.5 L 409 194.5 L 407.5 195 L 405 194.5 L 405.5 185 Z " /><path fill="rgb(11,11,11)" stroke="rgb(11,11,11)" stroke-width="0.6" opacity="1" d="M 102.5 187 L 108 194.5 L 106.5 194 Q 103.2 195.1 104 192.5 L 101 188.5 L 102.5 187 Z " /><path fill="rgb(11,11,11)" stroke="rgb(11,11,11)" stroke-width="0.6" opacity="1" d="M 238.5 190 L 245 194.5 L 243.5 195 L 238.5 190 Z " /><path fill="rgb(11,11,11)" stroke="rgb(11,11,11)" stroke-width="0.6" opacity="1" d="M 263.5 193 L 261 196.5 L 255.5 203 L 253.5 204 L 255 201.5 L 256.5 199 L 260 197.5 L 263.5 193 Z " /><path fill="rgb(11,11,11)" stroke="rgb(11,11,11)" stroke-width="0.6" opacity="1" d="M 163.5 194 L 164.5 197 L 165.5 194 L 166 199.5 L 164.5 199 Q 161.6 199.4 163.5 194 Z " /><path fill="rgb(11,11,11)" stroke="rgb(11,11,11)" stroke-width="0.6" opacity="1" d="M 294.5 195 L 296 196.5 L 295.5 199 L 292.5 201 L 294.5 197 L 293 196.5 L 294.5 195 Z " /><path fill="rgb(11,11,11)" stroke="rgb(11,11,11)" stroke-width="0.6" opacity="1" d="M 288.5 197 L 288 198.5 L 286.5 201 L 283 202.5 Q 281.8 212.7 289 214.5 L 283 209.5 L 282 202.5 L 288.5 197 Z " /><path fill="rgb(11,11,11)" stroke="rgb(11,11,11)" stroke-width="0.6" opacity="1" d="M 130.5 198 L 134 199.5 L 143 213.5 L 139 212.5 L 133 201 L 131 199.5 L 130.5 198 Z " /><path fill="rgb(11,11,11)" stroke="rgb(11,11,11)" stroke-width="0.6" opacity="1" d="M 316.5 198 Q 320.3 200.3 319 207.5 L 318 207.5 L 316.5 198 Z " /><path fill="rgb(11,11,11)" stroke="rgb(11,11,11)" stroke-width="0.6" opacity="1" d="M 334.5 199 L 343 204.5 L 341.5 204 Q 335.3 202.6 334.5 199 Z " /><path fill="rgb(11,11,11)" stroke="rgb(11,11,11)" stroke-width="0.6" opacity="1" d="M 110.5 201 L 115 203.5 L 114 205.5 L 117.5 208 Q 119.2 205.2 121 209.5 L 120.5 212 L 111 203.5 L 110.5 201 Z " /><path fill="rgb(11,11,11)" stroke="rgb(11,11,11)" stroke-width="0.6" opacity="1" d="M 166.5 201 L 169 208 L 167 209.5 L 166 209.5 L 165 202.5 L 166.5 201 Z " /><path fill="rgb(11,11,11)" stroke="rgb(11,11,11)" stroke-width="0.6" opacity="1" d="M 151.5 205 L 153 205.5 L 151.5 210 L 150.5 208 L 147.5 210 L 146.5 208 L 148.5 209 L 151.5 205 Z " /><path fill="rgb(11,11,11)" stroke="rgb(11,11,11)" stroke-width="0.6" opacity="1" d="M 403 205 Q 408.3 203.2 406 210.5 L 397 228.5 L 380.5 246 L 369.5 253 L 366 251.5 Q 378.7 245.7 386.5 235 L 391 233.5 L 390 231.5 Q 397 224.3 400 214 L 403 213.5 L 401 212.5 L 403 205 Z " /><path fill="rgb(11,11,11)" stroke="rgb(11,11,11)" stroke-width="0.6" opacity="1" d="M 169.5 210 L 172 213.5 L 170.5 213 L 169 214.5 L 168 214.5 L 167 211.5 L 169 211.5 L 169.5 210 Z " /><path fill="rgb(11,11,11)" stroke="rgb(11,11,11)" stroke-width="0.6" opacity="1" d="M 238.5 210 L 242 210.5 Q 236.8 213.3 227.5 212 L 227.5 211 L 238.5 210 Z " /><path fill="rgb(11,11,11)" stroke="rgb(11,11,11)" stroke-width="0.6" opacity="1" d="M 316.5 210 L 311.5 216 L 309.5 217 L 310.5 215 L 316.5 210 Z " /><path fill="rgb(11,11,11)" stroke="rgb(11,11,11)" stroke-width="0.6" opacity="1" d="M 122.5 211 L 135 218.5 L 134.5 221 L 122 212.5 L 122.5 211 Z " /><path fill="rgb(11,11,11)" stroke="rgb(11,11,11)" stroke-width="0.6" opacity="1" d="M 172.5 216 L 178 219.5 Q 176.9 228.6 183 230.5 L 181 231 L 179.5 229 L 177 228.5 L 176.5 227 L 176 232.5 L 180 232.5 Q 176.5 234 179 235.5 Q 179.7 238.5 176 237 L 174 226.5 L 175 221.5 L 172 219.5 L 174 218.5 L 172 218 L 172.5 216 Z " /><path fill="rgb(11,11,11)" stroke="rgb(11,11,11)" stroke-width="0.6" opacity="1" d="M 331 216 L 334 217.5 Q 335.1 220.8 332.5 220 Q 329.7 228.7 322.5 233 L 320.5 234 L 320.5 231 L 326.5 226 L 329 225.5 L 330 223.5 L 330 221.5 L 331 216 Z " /><path fill="rgb(11,11,11)" stroke="rgb(11,11,11)" stroke-width="0.6" opacity="1" d="M 160.5 219 L 160 220.5 L 158.5 222 L 150 227.5 L 152 230.5 L 151.5 232 L 153 232.5 L 151 233 L 152.5 236 L 153.5 234 L 154 236.5 L 152.5 239 L 147 231.5 L 147 226.5 L 148 226.5 L 148.5 230 L 150.5 222 L 152.5 222 L 160.5 219 Z " /><path fill="rgb(11,11,11)" stroke="rgb(11,11,11)" stroke-width="0.6" opacity="1" d="M 266 227 L 276 232.5 L 272.5 234 L 266 228.5 L 266 227 Z " /><path fill="rgb(11,11,11)" stroke="rgb(11,11,11)" stroke-width="0.6" opacity="1" d="M 301.5 228 L 303 230.5 L 301.5 230 L 300 231.5 L 295.5 235 L 293 233.5 L 301.5 228 Z " /><path fill="rgb(11,11,11)" stroke="rgb(11,11,11)" stroke-width="0.6" opacity="1" d="M 183.5 232 Q 195.2 244.8 211 253.5 L 210.5 256 Q 192.7 248.3 181 234.5 L 183 234 L 183.5 232 Z " /><path fill="rgb(11,11,11)" stroke="rgb(11,11,11)" stroke-width="0.6" opacity="1" d="M 308.5 233 L 316 235.5 L 311.5 237 L 308 234.5 L 308.5 233 Z " /><path fill="rgb(11,11,11)" stroke="rgb(11,11,11)" stroke-width="0.6" opacity="1" d="M 112.5 235 L 114 235.5 L 113 238 L 103.5 241 L 102 240.5 L 101.5 242 L 100.5 240 L 112.5 235 Z " /><path fill="rgb(11,11,11)" stroke="rgb(11,11,11)" stroke-width="0.6" opacity="1" d="M 132.5 235 L 139 237 L 140 239.5 L 138.5 239 Q 132.9 238.7 132.5 235 Z " /><path fill="rgb(11,11,11)" stroke="rgb(11,11,11)" stroke-width="0.6" opacity="1" d="M 141.5 238 L 146 240.5 L 146.5 243 L 148 242.5 L 147.5 241 L 149 245 L 141 240.5 L 141.5 238 Z " /><path fill="rgb(11,11,11)" stroke="rgb(11,11,11)" stroke-width="0.6" opacity="1" d="M 276.5 240 L 276 241.5 L 277.5 244 L 280 245.5 L 285.5 252 L 287 253.5 L 289.5 254 L 291 256 Q 281.3 254.6 277 246.5 L 275 241.5 L 276.5 240 Z " /><path fill="rgb(11,11,11)" stroke="rgb(11,11,11)" stroke-width="0.6" opacity="1" d="M 98.5 241 L 98.5 243 Q 101.5 242.2 100 246 L 103.5 246 L 103.5 247 L 102 247.5 L 104.5 248 L 107.5 247 L 113 248.5 L 111 249.5 L 111.5 251 L 95 245.5 L 96.5 242 L 98.5 241 Z " /><path fill="rgb(11,11,11)" stroke="rgb(11,11,11)" stroke-width="0.6" opacity="1" d="M 150.5 243 L 153.5 245 L 156 244 L 156.5 246 L 157.5 244 L 160 255 L 157 253.5 L 155.5 249 L 150 248 L 151.5 246 L 151.5 245 Q 148.7 245.7 150.5 243 Z " /><path fill="rgb(11,11,11)" stroke="rgb(11,11,11)" stroke-width="0.6" opacity="1" d="M 179.5 245 L 181 249.5 L 180 251.5 L 182 251.5 L 184 260.5 L 182 261.5 L 181 259.5 L 183 259.5 L 181.5 255 L 180 255.5 L 178 246.5 L 179.5 245 Z " /><path fill="rgb(11,11,11)" stroke="rgb(11,11,11)" stroke-width="0.6" opacity="1" d="M 215.5 255 L 223 259.5 L 220.5 261 L 218 257 L 214.5 259 L 214 256.5 L 215.5 255 Z " /><path fill="rgb(11,11,11)" stroke="rgb(11,11,11)" stroke-width="0.6" opacity="1" d="M 359.5 255 L 360 257 L 362 257.5 L 358 259 L 359.5 262 L 361 261.5 L 363 265.5 L 360 265.5 L 356.5 260 L 344.5 265 L 343.5 263 L 341 264.5 L 340.5 267 L 338 266.5 L 340 265.5 L 338 264.5 L 354.5 258 L 356.5 259 L 357.5 256 L 359.5 255 Z " /><path fill="rgb(11,11,11)" stroke="rgb(11,11,11)" stroke-width="0.6" opacity="1" d="M 368.5 256 Q 383.6 264.4 394 277.5 Q 404.8 288.2 410 304.5 L 408.5 307 L 398 289.5 L 397.5 286 L 395 285.5 L 393.5 281 L 391 280.5 L 378.5 267 L 367 258.5 L 369 257.5 L 368.5 256 Z " /><path fill="rgb(11,11,11)" stroke="rgb(11,11,11)" stroke-width="0.6" opacity="1" d="M 212.5 258 L 213 259.5 L 212.5 261 L 214 261.5 L 198 277.5 L 197 280.5 L 203 288.5 L 201.5 296 L 201 289.5 L 201.5 288 L 199 286.5 L 197.5 284 L 192 281.5 L 194 280.5 L 192 279.5 L 212.5 258 Z " /><path fill="rgb(11,11,11)" stroke="rgb(11,11,11)" stroke-width="0.6" opacity="1" d="M 224.5 260 L 247 267.5 L 242.5 269 Q 241.3 265.8 235.5 267 L 232.5 264 L 229.5 265 L 226.5 261 L 225 261.5 L 225.5 263 L 223 261.5 L 224.5 260 Z " /><path fill="rgb(11,11,11)" stroke="rgb(11,11,11)" stroke-width="0.6" opacity="1" d="M 183.5 263 L 186 263.5 L 187.5 266 L 190 267.5 L 191 271.5 L 189.5 271 L 186.5 267 L 185 267.5 L 185.5 266 L 183 264.5 L 183.5 263 Z " /><path fill="rgb(11,11,11)" stroke="rgb(11,11,11)" stroke-width="0.6" opacity="1" d="M 336.5 265 L 336 266.5 Q 336.8 269.1 333.5 268 L 331.5 269 L 329 267.5 L 336.5 265 Z " /><path fill="rgb(11,11,11)" stroke="rgb(11,11,11)" stroke-width="0.6" opacity="1" d="M 361.5 267 L 364 267.5 L 365 269.5 L 363 269.5 L 364 271.5 L 362 270.5 L 361.5 267 Z " /><path fill="rgb(11,11,11)" stroke="rgb(11,11,11)" stroke-width="0.6" opacity="1" d="M 254.5 269 L 263 270.5 L 261 271.5 L 261.5 273 L 254 271 L 254.5 269 Z " /><path fill="rgb(11,11,11)" stroke="rgb(11,11,11)" stroke-width="0.6" opacity="1" d="M 321.5 269 L 321 270.5 Q 321.9 273.5 317.5 272 L 314.5 273 L 315 271.5 Q 314.4 268.8 320.5 270 L 321.5 269 Z " /><path fill="rgb(11,11,11)" stroke="rgb(11,11,11)" stroke-width="0.6" opacity="1" d="M 184.5 271 L 190 273.5 L 189 276 L 187 274.5 L 184.5 274 L 182.5 275 L 182 272 L 184.5 271 Z " /><path fill="rgb(11,11,11)" stroke="rgb(11,11,11)" stroke-width="0.6" opacity="1" d="M 266.5 271 L 279 272.5 L 276 273.5 L 279 274.5 L 275.5 275 L 267.5 273 L 266.5 271 Z " /><path fill="rgb(11,11,11)" stroke="rgb(11,11,11)" stroke-width="0.6" opacity="1" d="M 309.5 271 L 311 273 L 301.5 275 L 301.5 274 L 303 273.5 L 302.5 272 L 309.5 271 Z " /><path fill="rgb(11,11,11)" stroke="rgb(11,11,11)" stroke-width="0.6" opacity="1" d="M 365.5 271 L 370 280.5 L 368.5 280 L 366 278.5 L 364 273.5 L 365.5 271 Z " /><path fill="rgb(11,11,11)" stroke="rgb(11,11,11)" stroke-width="0.6" opacity="1" d="M 160.5 272 L 161.5 274 L 160 273.5 L 161.5 278 L 163 277.5 L 162.5 280 L 159.5 276 L 159 278.5 L 160.5 281 Q 157.3 280.3 158 275.5 L 160.5 272 Z " /><path fill="rgb(11,11,11)" stroke="rgb(11,11,11)" stroke-width="0.6" opacity="1" d="M 294.5 272 L 299 272.5 L 296 273.5 L 299 274.5 L 292 275 L 293.5 273 L 294.5 272 Z " /><path fill="rgb(11,11,11)" stroke="rgb(11,11,11)" stroke-width="0.6" opacity="1" d="M 163.5 284 L 164 285.5 L 162 288.5 L 165 289.5 L 158.5 293 L 156.5 293 L 155 293.5 L 155.5 295 L 152 297.5 L 150.5 300 L 147 299 Q 145.5 302.7 148.5 302 L 148 303.5 L 144 310.5 L 145 312.5 L 143.5 318 L 142.5 313 L 140.5 321 L 140 318.5 L 142.5 310 L 145 308.5 L 144.5 306 L 143.5 308 L 143 305.5 L 152.5 292 L 163 285.5 L 163.5 284 Z " /><path fill="rgb(11,11,11)" stroke="rgb(11,11,11)" stroke-width="0.6" opacity="1" d="M 167.5 286 L 183 286.5 L 180 287.5 L 183 288.5 L 179.5 289 Q 178 285.5 171.5 287 L 167.5 289 L 167.5 288 L 169 287.5 L 167.5 286 Z " /><path fill="rgb(11,11,11)" stroke="rgb(11,11,11)" stroke-width="0.6" opacity="1" d="M 188.5 286 L 191 287.5 L 191 290 L 189 291.5 L 187.5 291 L 185 289.5 L 188.5 286 Z " /><path fill="rgb(11,11,11)" stroke="rgb(11,11,11)" stroke-width="0.6" opacity="1" d="M 370.5 290 L 373 291.5 L 372 297.5 L 372.5 299 L 371 297.5 L 370.5 290 Z " /><path fill="rgb(11,11,11)" stroke="rgb(11,11,11)" stroke-width="0.6" opacity="1" d="M 192 291 L 196 293.5 L 199 298.5 L 197 299 L 196.5 301 L 195 298.5 L 197 298 L 195.5 295 L 191 293.5 L 192 291 Z " /><path fill="rgb(11,11,11)" stroke="rgb(11,11,11)" stroke-width="0.6" opacity="1" d="M 277.5 298 L 315 298.5 L 313 299 L 312.5 301 L 311.5 300 L 281.5 300 L 280 300.5 Q 280.8 297.9 277.5 299 L 277.5 298 Z " /><path fill="rgb(11,11,11)" stroke="rgb(11,11,11)" stroke-width="0.6" opacity="1" d="M 202.5 299 L 203 300.5 L 201 306 L 198 306 Q 199.5 310.5 195 309 L 197.5 302 L 198.5 303 L 202.5 299 Z " /><path fill="rgb(11,11,11)" stroke="rgb(11,11,11)" stroke-width="0.6" opacity="1" d="M 271.5 299 Q 274.5 298.2 273 302 L 260 304 L 261.5 302 L 271.5 299 Z " /><path fill="rgb(11,11,11)" stroke="rgb(11,11,11)" stroke-width="0.6" opacity="1" d="M 319 299 L 326 300.5 L 325.5 303 L 319 302 L 319 299 Z " /><path fill="rgb(11,11,11)" stroke="rgb(11,11,11)" stroke-width="0.6" opacity="1" d="M 254.5 303 L 254.5 305 L 256 305.5 L 251.5 307 L 251.5 306 L 253 305.5 L 251 304.5 L 254.5 303 Z " /><path fill="rgb(11,11,11)" stroke="rgb(11,11,11)" stroke-width="0.6" opacity="1" d="M 375.5 304 Q 377 307.5 378.5 305 L 380 305.5 L 378 306.5 L 377.5 309 L 361.5 319 L 361 317 Q 356.9 315.7 358 319 L 360 319.5 L 345 330.5 L 338.5 342 Q 335.1 342.9 337 337.5 L 341 335.5 L 339 335 L 340 331.5 L 349.5 322 L 358 316.5 L 356.5 314 L 347 310 L 346 307.5 L 347.5 307 L 350 308.5 L 349.5 310 L 351.5 309 L 362 315.5 L 363.5 317 L 364.5 315 L 363 314.5 L 373.5 308 L 375.5 308 L 378 307.5 L 375.5 304 Z " /><path fill="rgb(11,11,11)" stroke="rgb(11,11,11)" stroke-width="0.6" opacity="1" d="M 410.5 306 L 415 317.5 L 413 316.5 L 412.5 314 L 412 317.5 L 412.5 319 L 411 319 L 411 311.5 Q 408.3 312.5 409 308.5 L 410 308.5 L 410.5 310 L 411 307.5 L 410.5 306 Z " /><path fill="rgb(11,11,11)" stroke="rgb(11,11,11)" stroke-width="0.6" opacity="1" d="M 201.5 307 L 206 315.5 L 206 322.5 L 204.5 326 L 204 323.5 L 205 318.5 L 203 318.5 L 201 312.5 L 203 312 L 201.5 310 L 199 309.5 L 201 309 L 201.5 307 Z " /><path fill="rgb(11,11,11)" stroke="rgb(11,11,11)" stroke-width="0.6" opacity="1" d="M 238.5 309 L 238.5 311 L 240 311.5 L 236.5 313 L 234 311.5 L 235.5 311 L 237 311.5 L 238.5 309 Z " /><path fill="rgb(11,11,11)" stroke="rgb(11,11,11)" stroke-width="0.6" opacity="1" d="M 223 314 L 226.5 316 L 229 316.5 L 226 318 L 224.5 315 L 221.5 319 L 222 317.5 L 223 314 Z " /><path fill="rgb(11,11,11)" stroke="rgb(11,11,11)" stroke-width="0.6" opacity="1" d="M 224.5 319 L 222 322.5 Q 216.8 338.8 204.5 348 L 204 346.5 L 204 344.5 L 205.5 342 L 209 339.5 L 217 326 Q 220.3 327.3 219 322.5 L 224.5 319 Z " /><path fill="rgb(11,11,11)" stroke="rgb(11,11,11)" stroke-width="0.6" opacity="1" d="M 202.5 321 L 203 324.5 L 200 329.5 L 200.5 331 L 191.5 335 L 192 333.5 L 193.5 332 L 202 324.5 L 202.5 321 Z " /><path fill="rgb(11,11,11)" stroke="rgb(11,11,11)" stroke-width="0.6" opacity="1" d="M 414.5 321 L 416 322.5 L 416 334 L 412 333 L 412 322.5 L 413.5 322 L 414.5 321 Z " /><path fill="rgb(11,11,11)" stroke="rgb(11,11,11)" stroke-width="0.6" opacity="1" d="M 144.5 331 Q 147.1 330.2 146 333.5 Q 149.5 342.5 156.5 348 L 163 352.5 L 162 355 Q 153.4 351.8 148 344.5 L 143 335.5 L 143 332.5 L 144.5 331 Z " /><path fill="rgb(11,11,11)" stroke="rgb(11,11,11)" stroke-width="0.6" opacity="1" d="M 414.5 337 L 415 339.5 L 406 358.5 L 394.5 370 L 388 373 L 386.5 371 L 386.5 370 L 397 365.5 L 396 363.5 Q 406.8 354.8 411.5 340 L 414 339.5 L 414.5 337 Z " /><path fill="rgb(11,11,11)" stroke="rgb(11,11,11)" stroke-width="0.6" opacity="1" d="M 196.5 345 L 196.5 347 L 198 347.5 Q 192.3 354.8 182 357.5 L 183 368.5 L 182 368.5 L 181.5 362 L 181 369 L 179 370.5 L 178 370.5 Q 181.4 367.9 180 360.5 L 177.5 358 Q 168.3 358.7 163 355.5 L 165 355 Q 163.8 352 167.5 353 L 177.5 355 L 185 353 L 186.5 355 L 187.5 353 L 186 352.5 L 196.5 345 Z M 169 355 L 172 357 L 179 357 L 169 355 Z " /><path fill="rgb(11,11,11)" stroke="rgb(11,11,11)" stroke-width="0.6" opacity="1" d="M 348.5 345 Q 351.5 346.5 348.5 348 L 346 349.5 Q 346.7 352.5 343 351 L 346.5 346 L 348.5 345 Z " /><path fill="rgb(11,11,11)" stroke="rgb(11,11,11)" stroke-width="0.6" opacity="1" d="M 338.5 347 L 340 351 L 342 351.5 L 339 352.5 L 338.5 354 L 337 350.5 L 338 350.5 L 338.5 352 L 339 348.5 L 338.5 347 Z " /><path fill="rgb(11,11,11)" stroke="rgb(11,11,11)" stroke-width="0.6" opacity="1" d="M 201.5 349 L 202 351 L 204 352.5 Q 207 354.8 206 360 L 204 358.5 L 205 355 L 202 353.5 L 201.5 349 Z " /><path fill="rgb(11,11,11)" stroke="rgb(11,11,11)" stroke-width="0.6" opacity="1" d="M 341.5 360 L 343.5 360 L 346 361.5 L 350.5 367 Q 353.1 366.2 352 369.5 L 354 372.5 L 351.5 371 L 345 366.5 L 341.5 360 Z " /><path fill="rgb(11,11,11)" stroke="rgb(11,11,11)" stroke-width="0.6" opacity="1" d="M 362.5 360 L 364 360.5 L 358.5 366 L 357 364.5 L 362.5 360 Z " /><path fill="rgb(11,11,11)" stroke="rgb(11,11,11)" stroke-width="0.6" opacity="1" d="M 211.5 365 L 213 367.5 L 209.5 373 L 208 372.5 Q 208.8 375.1 205.5 374 L 200.5 376 L 201.5 374 L 209 369.5 L 209.5 367 L 210.5 369 L 212 366.5 L 211.5 365 Z " /><path fill="rgb(11,11,11)" stroke="rgb(11,11,11)" stroke-width="0.6" opacity="1" d="M 358.5 371 L 365 374 L 363.5 376 Q 362 372.5 360.5 375 L 355 373.5 L 357.5 373 L 359.5 374 L 358.5 371 Z " /><path fill="rgb(11,11,11)" stroke="rgb(11,11,11)" stroke-width="0.6" opacity="1" d="M 179.5 375 L 181.5 376 L 183.5 376 L 186 376.5 L 184 377 L 184.5 379 L 186 378.5 Q 189 381.8 188 388 L 185 386.5 L 185.5 385 L 187 385.5 L 185.5 381 L 184.5 383 L 180.5 377 Q 177.7 377.7 179.5 375 Z " /><path fill="rgb(11,11,11)" stroke="rgb(11,11,11)" stroke-width="0.6" opacity="1" d="M 208 376 Q 211.3 374.7 210 379.5 L 212.5 383 L 220 388.5 Q 219.2 391.1 222.5 390 L 228 393.5 L 227.5 395 L 229.5 394 L 234 396.5 L 233.5 399 L 212 386 Q 213.5 382.3 210.5 383 L 209 382.5 L 208.5 384 L 208 376 Z " /><path fill="rgb(11,11,11)" stroke="rgb(11,11,11)" stroke-width="0.6" opacity="1" d="M 379.5 379 L 380.5 381 L 379 382.5 L 375 385.5 L 374 383.5 L 379 381 L 379.5 379 Z " /><path fill="rgb(11,11,11)" stroke="rgb(11,11,11)" stroke-width="0.6" opacity="1" d="M 370.5 386 L 373 387.5 Q 362.9 396.4 348.5 401 L 347.5 399 L 349 399.5 L 350.5 398 Q 362.4 393.9 370.5 386 Z " /><path fill="rgb(11,11,11)" stroke="rgb(11,11,11)" stroke-width="0.6" opacity="1" d="M 189.5 391 Q 188.8 397.7 192 400.5 L 190.5 400 Q 187.2 401.1 188 398.5 L 189 396.5 L 187 393.5 L 189 393.5 L 189.5 391 Z " /><path fill="rgb(11,11,11)" stroke="rgb(11,11,11)" stroke-width="0.6" opacity="1" d="M 382.5 402 Q 385.8 401.6 384 409.5 L 382 410.5 L 381.5 409 L 380 409.5 L 382.5 402 Z " /><path fill="rgb(11,11,11)" stroke="rgb(11,11,11)" stroke-width="0.6" opacity="1" d="M 189.5 405 L 192 405.5 Q 189.5 415.5 194.5 418 L 198 418.5 L 196 419.5 L 196.5 421 L 193 419.5 L 191.5 417 L 190 417.5 L 189.5 405 Z " /><path fill="rgb(11,11,11)" stroke="rgb(11,11,11)" stroke-width="0.6" opacity="1" d="M 259 405 L 266 406.5 L 265.5 409 L 259 406.5 L 259 405 Z " /><path fill="rgb(11,11,11)" stroke="rgb(11,11,11)" stroke-width="0.6" opacity="1" d="M 327.5 405 L 329 406.5 L 323.5 409 L 323.5 407 L 322 406.5 L 327.5 405 Z " /><path fill="rgb(11,11,11)" stroke="rgb(11,11,11)" stroke-width="0.6" opacity="1" d="M 214.5 406 L 217 407.5 L 216.5 409 Q 219.3 408.4 218 414.5 L 211.5 419 L 211 416 L 216 412.5 L 214.5 406 Z " /><path fill="rgb(11,11,11)" stroke="rgb(11,11,11)" stroke-width="0.6" opacity="1" d="M 270 407 L 279 409.5 L 278.5 411 L 269 409.5 L 270 407 Z " /><path fill="rgb(11,11,11)" stroke="rgb(11,11,11)" stroke-width="0.6" opacity="1" d="M 317.5 407 Q 320.5 406.2 319 410 L 310.5 410 L 310 408 L 317.5 407 Z " /><path fill="rgb(11,11,11)" stroke="rgb(11,11,11)" stroke-width="0.6" opacity="1" d="M 288.5 410 L 300 410.5 L 286.5 412 L 286.5 411 L 288.5 410 Z " /><path fill="rgb(11,11,11)" stroke="rgb(11,11,11)" stroke-width="0.6" opacity="1" d="M 301 411 Q 304 409.8 303 413.5 L 306 414.5 Q 307.9 419.9 304.5 419 L 301 411 Z " /><path fill="rgb(11,11,11)" stroke="rgb(11,11,11)" stroke-width="0.6" opacity="1" d="M 380.5 411 L 380 412.5 L 380.5 416 L 381.5 414 L 382 416.5 L 379 418.5 L 381 419 L 379.5 422 L 378.5 420 L 374.5 425 Q 370.8 426 372 423 L 377 421.5 L 380.5 411 Z " /><path fill="rgb(11,11,11)" stroke="rgb(11,11,11)" stroke-width="0.6" opacity="1" d="M 380.5 423 Q 388.6 425.9 393 432.5 L 396 439.5 L 393 439.5 L 383.5 428 L 376 425.5 L 380 425 L 380.5 423 Z " /><path fill="rgb(11,11,11)" stroke="rgb(11,11,11)" stroke-width="0.6" opacity="1" d="M 205.5 424 L 206 427 L 208 427.5 L 198 434.5 L 193.5 444 L 192.5 442 L 191.5 444 L 191 441.5 Q 192.9 432.4 199.5 428 L 205.5 424 Z " /><path fill="rgb(11,11,11)" stroke="rgb(11,11,11)" stroke-width="0.6" opacity="1" d="M 307.5 439 L 308.5 448 L 309.5 439 L 311 451.5 L 309.5 451 L 307 449.5 L 307.5 439 Z " /><path fill="rgb(11,11,11)" stroke="rgb(11,11,11)" stroke-width="0.6" opacity="1" d="M 279.5 442 L 281 447.5 L 278 456.5 L 272.5 462 L 260.5 467 L 256.5 467 L 256.5 466 L 258 465.5 L 254 464.5 L 259.5 464 L 263.5 465 L 263.5 464 L 261 463.5 L 266.5 462 L 274 457 L 279.5 442 Z " /><path fill="rgb(11,11,11)" stroke="rgb(11,11,11)" stroke-width="0.6" opacity="1" d="M 191.5 449 L 192.5 451 L 193.5 449 L 195 452.5 L 193 452.5 L 192.5 455 L 191.5 449 Z " /><path fill="rgb(11,11,11)" stroke="rgb(11,11,11)" stroke-width="0.6" opacity="1" d="M 393.5 451 L 396 451.5 L 389.5 461 L 378.5 466 L 380 463.5 L 380.5 460 L 382.5 460 Q 389.7 458.2 393 452.5 L 393.5 451 Z " /><path fill="rgb(11,11,11)" stroke="rgb(11,11,11)" stroke-width="0.6" opacity="1" d="M 312.5 453 L 316.5 458 L 325 462.5 L 320.5 464 L 310 456.5 L 309 454.5 L 311 455.5 L 311.5 457 L 312.5 453 Z " /><path fill="rgb(11,11,11)" stroke="rgb(11,11,11)" stroke-width="0.6" opacity="1" d="M 195.5 455 L 204.5 461 L 206 458 Q 209.8 456.5 209 459.5 L 209.5 461 Q 207.8 457.2 206 460.5 Q 206.8 463.1 203.5 462 L 203.5 463 L 207 464.5 L 205.5 465 L 193 456.5 L 195.5 455 Z " /><path fill="rgb(11,11,11)" stroke="rgb(11,11,11)" stroke-width="0.6" opacity="1" d="M 227.5 461 L 229 464.5 L 229 466.5 L 231 468 L 232.5 465 L 234 467.5 L 232.5 469 L 224 469 L 225.5 465 Q 229.3 466.3 228 462.5 L 227.5 461 Z " /><path fill="rgb(11,11,11)" stroke="rgb(11,11,11)" stroke-width="0.6" opacity="1" d="M 211 463 L 218 464.5 L 214 465.5 L 216 466.5 L 212.5 467 L 208 465.5 L 211 465 L 211 463 Z " /><path fill="rgb(11,11,11)" stroke="rgb(11,11,11)" stroke-width="0.6" opacity="1" d="M 327.5 463 L 341 465.5 L 338 466.5 L 341 467.5 L 336.5 468 L 325 464.5 L 326.5 465 L 330 464.5 L 327.5 463 Z " /><path fill="rgb(11,11,11)" stroke="rgb(11,11,11)" stroke-width="0.6" opacity="1" d="M 374.5 463 L 376 465.5 L 374.5 467 L 363.5 468 L 363.5 467 L 372 465.5 L 368 464.5 L 374.5 463 Z " /><path fill="rgb(11,11,11)" stroke="rgb(11,11,11)" stroke-width="0.6" opacity="1" d="M 347.5 465 L 354.5 465 L 359 467.5 L 357.5 469 L 347.5 469 L 346 466.5 L 347.5 465 Z " /><path fill="rgb(25,25,26)" stroke="rgb(25,25,26)" stroke-width="0.6" opacity="1" d="M 201.5 78 L 207 82.5 L 208.5 85 L 210.5 84 L 209.5 86 L 206 83.5 L 202.5 79 L 201.5 78 Z " /><path fill="rgb(25,25,26)" stroke="rgb(25,25,26)" stroke-width="0.6" opacity="1" d="M 345.5 168 L 347 173.5 L 343 176.5 Q 346.8 175.8 346 170.5 L 345.5 168 Z " /><path fill="rgb(25,25,26)" stroke="rgb(25,25,26)" stroke-width="0.6" opacity="1" d="M 115.5 185 L 122 190.5 L 116.5 186 L 115.5 185 Z " /><path fill="rgb(25,25,26)" stroke="rgb(25,25,26)" stroke-width="0.6" opacity="1" d="M 292.5 186 L 293 188 L 285 190 Q 283.8 187 287.5 188 L 292.5 186 Z " /><path fill="rgb(25,25,26)" stroke="rgb(25,25,26)" stroke-width="0.6" opacity="1" d="M 130.5 195 L 132 198 L 130 198.5 L 130.5 200 L 128 196.5 L 129.5 197 L 131 196.5 L 130.5 195 Z " /><path fill="rgb(25,25,26)" stroke="rgb(25,25,26)" stroke-width="0.6" opacity="1" d="M 106.5 197 L 110.5 200 L 110.5 198 L 112 201 L 110 201.5 L 110.5 203 L 106.5 197 Z " /><path fill="rgb(25,25,26)" stroke="rgb(25,25,26)" stroke-width="0.6" opacity="1" d="M 121.5 210 L 125 215.5 L 121.5 213 L 119 211.5 L 121 211.5 L 121.5 210 Z " /><path fill="rgb(25,25,26)" stroke="rgb(25,25,26)" stroke-width="0.6" opacity="1" d="M 171.5 287 Q 177.5 285.5 179 288.5 L 177.5 288 L 170.5 289 L 171.5 287 Z " /><path fill="rgb(25,25,26)" stroke="rgb(25,25,26)" stroke-width="0.6" opacity="1" d="M 336.5 339 L 337 350.5 L 336 350.5 L 336.5 339 Z " /><path fill="rgb(25,25,26)" stroke="rgb(25,25,26)" stroke-width="0.6" opacity="1" d="M 206.5 357 L 213 365.5 L 206 359.5 L 206.5 357 Z " /><path fill="rgb(25,25,26)" stroke="rgb(25,25,26)" stroke-width="0.6" opacity="1" d="M 192.5 406 L 194 408.5 L 193 415.5 L 193.5 417 L 192 415.5 L 192.5 406 Z " /><path fill="rgb(25,25,26)" stroke="rgb(25,25,26)" stroke-width="0.6" opacity="1" d="M 287.5 409 L 301 409.5 L 287.5 410 L 287.5 409 Z " /><path fill="rgb(25,25,26)" stroke="rgb(25,25,26)" stroke-width="0.6" opacity="1" d="M 288.5 411 L 301 411.5 L 288.5 412 L 288.5 411 Z " /><path fill="rgb(25,25,26)" stroke="rgb(25,25,26)" stroke-width="0.6" opacity="1" d="M 278.5 433 L 279 443.5 L 277 444.5 L 278.5 433 Z " /><path fill="rgb(25,25,26)" stroke="rgb(25,25,26)" stroke-width="0.6" opacity="1" d="M 281.5 433 L 281 434.5 L 280.5 445 L 280 434.5 L 281.5 433 Z " /><path fill="rgb(25,25,26)" stroke="rgb(25,25,26)" stroke-width="0.6" opacity="1" d="M 233.5 465 L 244 466.5 L 234.5 467 L 233.5 465 Z " /><path fill="rgb(25,25,26)" stroke="rgb(25,25,26)" stroke-width="0.6" opacity="1" d="M 233.5 468 L 244 468.5 L 233.5 469 L 233.5 468 Z " /><path fill="rgb(64,65,65)" stroke="rgb(64,65,65)" stroke-width="0.6" opacity="1" d="M 258 176 Q 261.5 174.9 260 182.5 L 261.5 185 L 260 185.5 L 262 186.5 L 260.5 189 L 257 186.5 L 258 176 Z " /><path fill="rgb(64,65,65)" stroke="rgb(64,65,65)" stroke-width="0.6" opacity="1" d="M 293.5 236 Q 296.1 235.2 295 238.5 L 298 242.5 L 296 243.5 L 296.5 245 L 296 242.5 L 295 239 L 293 238.5 L 293.5 236 Z " /><path fill="rgb(64,65,65)" stroke="rgb(64,65,65)" stroke-width="0.6" opacity="1" d="M 381.5 270 L 388.5 278 L 381.5 270 Z " /><path fill="rgb(64,65,65)" stroke="rgb(64,65,65)" stroke-width="0.6" opacity="1" d="M 282.5 275 L 294 275.5 L 282.5 276 L 282.5 275 Z " /><path fill="rgb(64,65,65)" stroke="rgb(64,65,65)" stroke-width="0.6" opacity="1" d="M 287.5 412 L 299 412.5 L 286.5 414 L 287.5 412 Z " /><path fill="rgb(229,229,216)" stroke="rgb(229,229,216)" stroke-width="0.6" opacity="1" d="M 298.5 56 L 303 57.5 L 299.5 62 L 300 60.5 L 298.5 56 Z " /><path fill="rgb(229,229,216)" stroke="rgb(229,229,216)" stroke-width="0.6" opacity="1" d="M 251.5 170 L 254 175.5 L 249 179 L 250.5 176 Q 254.3 177.3 253 173.5 L 251.5 170 Z " /><path fill="rgb(229,229,216)" stroke="rgb(229,229,216)" stroke-width="0.6" opacity="1" d="M 103.5 185 L 110 194.5 L 108 193.5 L 103.5 185 Z " /><path fill="rgb(229,229,216)" stroke="rgb(229,229,216)" stroke-width="0.6" opacity="1" d="M 173.5 214 L 177 215.5 L 179 218.5 L 175.5 216 L 173.5 214 Z " /><path fill="rgb(229,229,216)" stroke="rgb(229,229,216)" stroke-width="0.6" opacity="1" d="M 166.5 221 L 172 221.5 L 170.5 225 L 164.5 227 L 164.5 226 L 168 224.5 L 167.5 222 L 166.5 221 Z " /><path fill="rgb(229,229,216)" stroke="rgb(229,229,216)" stroke-width="0.6" opacity="1" d="M 156.5 224 L 158.5 227 L 162 227.5 L 152 229 L 153.5 226 L 156.5 224 Z " /><path fill="rgb(229,229,216)" stroke="rgb(229,229,216)" stroke-width="0.6" opacity="1" d="M 389.5 229 L 388 231.5 L 384.5 236 L 384 234.5 L 386 231 L 389.5 229 Z " /><path fill="rgb(229,229,216)" stroke="rgb(229,229,216)" stroke-width="0.6" opacity="1" d="M 306.5 231 L 317 231.5 L 306.5 232 L 306.5 231 Z " /><path fill="rgb(229,229,216)" stroke="rgb(229,229,216)" stroke-width="0.6" opacity="1" d="M 117.5 247 L 130 248.5 L 122.5 249 L 117.5 248 L 117.5 247 Z " /><path fill="rgb(229,229,216)" stroke="rgb(229,229,216)" stroke-width="0.6" opacity="1" d="M 409.5 318 L 411 320.5 L 411 335.5 L 409.5 340 L 409 336.5 L 410 335.5 L 410 320.5 L 409.5 318 Z " /><path fill="rgb(229,229,216)" stroke="rgb(229,229,216)" stroke-width="0.6" opacity="1" d="M 400.5 356 L 401 357.5 L 393 364.5 L 397 359 L 400 357.5 L 400.5 356 Z " /><path fill="rgb(87,89,86)" stroke="rgb(87,89,86)" stroke-width="0.6" opacity="1" d="M 385.5 268 L 390.5 274 L 385.5 268 Z " /><path fill="rgb(87,89,86)" stroke="rgb(87,89,86)" stroke-width="0.6" opacity="1" d="M 310 435 L 312 435.5 L 312 446 L 310 445.5 L 310 435 Z " /><path fill="rgb(110,112,106)" stroke="rgb(110,112,106)" stroke-width="0.6" opacity="1" d="M 182.5 236 L 187.5 242 L 182.5 236 Z " /><path fill="rgb(117,142,98)" stroke="rgb(117,142,98)" stroke-width="0.6" opacity="1" d="M 371.5 50 L 381 51.5 L 376.5 52 L 371.5 51 L 365.5 52 L 365.5 51 L 371.5 50 Z " /><path fill="rgb(117,142,98)" stroke="rgb(117,142,98)" stroke-width="0.6" opacity="1" d="M 412.5 84 L 414 95.5 L 412.5 102 L 412 95.5 L 413 90.5 L 412.5 84 Z " /><path fill="rgb(117,142,98)" stroke="rgb(117,142,98)" stroke-width="0.6" opacity="1" d="M 143.5 179 L 145 191.5 L 143 192.5 L 143.5 179 Z " /><path fill="rgb(117,142,98)" stroke="rgb(117,142,98)" stroke-width="0.6" opacity="1" d="M 296 199 L 310 199.5 L 308 200.5 L 308.5 202 L 296 203 L 296 199 Z " /><path fill="rgb(117,142,98)" stroke="rgb(117,142,98)" stroke-width="0.6" opacity="1" d="M 145.5 200 L 148.5 204 L 150 203.5 Q 150.8 206.1 147.5 205 L 146 205.5 L 145.5 200 Z " /><path fill="rgb(117,142,98)" stroke="rgb(117,142,98)" stroke-width="0.6" opacity="1" d="M 210.5 258 L 203.5 266 L 210.5 258 Z " /><path fill="rgb(117,142,98)" stroke="rgb(117,142,98)" stroke-width="0.6" opacity="1" d="M 197.5 272 L 192.5 278 L 190 276.5 L 190.5 275 L 191 277 L 194.5 275 L 197.5 272 Z " /><path fill="rgb(117,142,98)" stroke="rgb(117,142,98)" stroke-width="0.6" opacity="1" d="M 205.5 329 L 207.5 335 L 213 332.5 L 206.5 341 L 207 339.5 L 207 337 L 205 335.5 L 206 331.5 L 205.5 329 Z " /><path fill="rgb(117,142,98)" stroke="rgb(117,142,98)" stroke-width="0.6" opacity="1" d="M 230.5 459 L 233.5 464 L 236 464.5 L 233.5 465 Q 228.7 463.7 230.5 459 Z " /><path fill="rgb(206,205,199)" stroke="rgb(206,205,199)" stroke-width="0.6" opacity="1" d="M 122.5 192 L 127.5 198 L 122.5 192 Z " /><path fill="rgb(181,181,176)" stroke="rgb(181,181,176)" stroke-width="0.6" opacity="1" d="M 346.5 469 L 359 469.5 L 346.5 470 L 346.5 469 Z " /><path fill="rgb(134,134,132)" stroke="rgb(134,134,132)" stroke-width="0.6" opacity="1" d="M 212.5 263 L 214 263.5 L 206 270.5 L 212.5 263 Z " /></svg>