<svg width="627" height="627" preserveAspectRatio="xMidYMid meet" viewBox="0 0 512 512" version="1.1" xmlns="http://www.w3.org/2000/svg" ><path fill="rgb(255,255,255)" stroke="rgb(255,255,255)" stroke-width="0.6" opacity="1" d="M 0 0 L 512 0 L 512 512 L 0 512 L 0 0 Z M 251 38 L 247 40 Q 242 43 241 51 Q 240 54 234 52 L 229 56 L 230 62 L 211 68 L 206 62 Q 200 52 187 49 Q 165 47 156 58 Q 145 67 142 84 Q 142 102 151 111 L 160 118 L 151 152 Q 139 163 137 185 Q 138 207 149 220 L 165 234 L 167 238 L 163 241 Q 138 260 129 295 L 130 316 Q 134 331 144 341 L 149 344 L 152 348 L 152 356 L 157 371 Q 158 401 165 425 L 158 430 L 149 444 Q 147 454 151 459 L 158 465 L 175 471 L 207 471 Q 220 470 230 464 L 238 455 L 239 434 L 241 423 L 241 415 L 256 415 L 260 437 L 260 455 L 262 460 L 272 468 Q 283 473 299 475 Q 327 478 343 468 Q 350 463 352 453 Q 351 434 339 427 L 340 414 L 349 377 L 350 362 L 358 356 Q 379 340 384 307 Q 384 290 379 280 L 364 257 L 342 237 Q 357 225 362 203 L 362 188 L 359 179 Q 360 158 357 143 L 370 136 Q 382 127 384 108 Q 384 90 376 81 Q 369 70 355 66 Q 330 64 322 78 L 301 66 L 290 63 L 284 55 L 276 47 L 269 48 L 267 46 L 258 38 L 251 38 Z " /><path fill="rgb(147,96,56)" stroke="rgb(147,96,56)" stroke-width="0.6" opacity="1" d="M 253.5 43 L 257.5 45 L 260 45.5 L 261.5 47 L 271.5 64 L 273 59.5 L 271 53 Q 276.9 52.1 279 56.5 L 282 66 Q 285 64.8 284 68.5 L 286 69.5 Q 285.2 66.9 288.5 68 L 308.5 76 L 319 83.5 L 318 87.5 L 319.5 90 L 328 78 L 331.5 76 L 343.5 71 L 349.5 72 L 352.5 71 L 362.5 75 L 370 81.5 L 378 98.5 L 378 111.5 Q 374.9 125.9 364.5 133 L 351.5 138 L 348.5 137 L 347 139.5 L 351 142.5 L 353 152.5 L 352 154.5 L 353 155.5 L 353 177.5 L 356 184.5 L 357 197.5 Q 353.9 220.9 338.5 232 L 321.5 243 L 302.5 250 Q 301 247.5 299.5 251 L 286.5 254 Q 285 251.5 283.5 255 L 278.5 254 L 265.5 257 L 263.5 257 L 256.5 258 L 254 257 Q 252.5 260.8 255.5 260 L 257.5 259 L 258.5 260 L 274.5 260 L 287.5 258 Q 289 260.5 290.5 257 L 294 258 L 294.5 256 L 297.5 257 L 306.5 253 L 308.5 253 L 322.5 247 L 323.5 248 L 327.5 244 L 337.5 240 L 342 243 L 343.5 245 L 347 247.5 L 348.5 250 L 360 260.5 L 362 263.5 L 374 281.5 L 374 285.5 L 378 294.5 L 378 310.5 L 375 323.5 L 370 333.5 L 356.5 350 L 352.5 352 L 349 350.5 L 346 331.5 L 338 312.5 L 340.5 311 L 343 310.5 L 341.5 309 L 335 303.5 L 332.5 300 L 329.5 298 L 321.5 288 L 320 289.5 L 334 313.5 L 343 339.5 L 344 348.5 L 343 350.5 L 344 351.5 L 344 367.5 L 343 370.5 L 343 372.5 L 342 375.5 L 342 377.5 L 342 383.5 L 334 414.5 L 333 427.5 L 335.5 431 L 341 435.5 Q 347.5 441 346 454.5 L 343 461 L 339.5 463 L 336 464 Q 337.4 451.6 330.5 446 Q 327.2 444.9 328 447.5 Q 332.2 452.3 331 462.5 L 328.5 468 L 323.5 469 L 321.5 469 L 314 468 L 315 461.5 L 308.5 449 Q 305.2 447.9 306 450.5 Q 310.2 454.8 310 463.5 L 306.5 469 L 295.5 468 L 293.5 468 L 288.5 467 Q 287 469.5 285.5 466 Q 275.4 465.4 270 461 L 268.5 458 L 267 456.5 L 266 453.5 L 265 450.5 L 266 449.5 L 266 436.5 L 264 431.5 L 265 429.5 L 262 419.5 L 262 417.5 Q 260.5 411 264 409.5 L 261.5 409 L 243.5 410 L 232.5 409 L 224.5 406 L 222.5 406 L 206.5 402 L 208.5 405 L 223 410 Q 221.7 413.3 226.5 412 L 229.5 413 Q 231 410.5 232.5 414 Q 238.6 412.2 236 419.5 L 234 423.5 L 233 444.5 L 234 447.5 L 231 452.5 L 232 454.5 Q 223.7 462.7 209.5 465 L 207.5 464 Q 199.3 466.8 187.5 466 L 184 465 Q 180.7 462.2 182 453.5 L 186 445 L 182 446 Q 177.9 450.1 177 458.5 L 178 461.5 L 177 464 L 173.5 465 L 170.5 463 L 168.5 463 L 164 459.5 Q 162.4 447.9 168 443.5 Q 166.3 440.3 164.5 444 L 163 445.5 Q 159 449 159.5 457 L 156 455.5 L 155 442.5 L 157 438 L 159 436.5 L 163 434 L 164.5 431 L 176 426.5 L 174 423 L 170 424 Q 171 418.8 168 416.5 L 169 414.5 L 164 392.5 L 165 390.5 L 164 384.5 L 165.5 385 L 172 389 L 173.5 392 Q 176.1 392.8 175 389.5 L 173 386 L 170 384.5 L 160 365.5 L 157 346.5 L 157 332.5 L 158 326.5 L 158 324.5 L 159 319.5 L 159 317.5 L 162 299.5 L 164 297.5 L 166 285.5 L 168 283.5 L 171 272.5 L 169.5 272 L 165 277.5 L 155 306.5 L 151 332.5 L 151 334.5 L 149.5 337 L 145 333.5 L 136 315.5 L 134 307.5 L 134 299.5 L 136 295.5 L 137 285.5 L 145 269 Q 148 270.3 147 266.5 L 150 265 L 154 257 L 156 255.5 L 169 243.5 L 170.5 242 L 175.5 241 L 188.5 249 L 192.5 249 L 199.5 253 L 213 255 L 211.5 253 L 204.5 249 L 202.5 249 L 181.5 240 L 169 232 L 167.5 230 L 164 228 L 157.5 220 L 156 218.5 L 153.5 215 L 152 213.5 L 146 202.5 L 146 200.5 L 143 193.5 L 144 184.5 L 143 180.5 L 147 167.5 L 158 148.5 L 158 143.5 L 160 140.5 L 164 122.5 L 170 109.5 L 180 95 L 188 88.5 L 190.5 85 L 204.5 76 L 215.5 71 L 220.5 71 L 222.5 69 L 224.5 70 L 231.5 67 L 235.5 68 L 237.5 67 L 240 68 L 235 59.5 L 239.5 57 L 254.5 67 Q 258.2 64.7 253 62.5 L 251.5 61 L 246 49.5 L 249.5 44 L 251.5 44 L 253.5 43 Z M 344 90 L 335 94 L 330 101 L 345 126 Q 352 127 355 123 L 361 113 Q 362 104 358 100 L 350 91 L 344 90 Z M 203 105 L 194 109 L 190 114 L 192 118 L 202 112 L 210 111 L 211 109 Q 209 104 203 105 Z M 293 113 L 288 114 L 284 118 Q 286 122 288 119 L 298 123 L 302 128 L 306 127 L 302 119 L 293 113 Z M 199 134 L 191 138 Q 182 144 181 158 Q 181 166 185 171 Q 188 175 195 175 L 197 176 L 194 181 L 192 182 L 187 191 L 184 201 Q 184 220 194 229 Q 196 232 197 229 Q 190 222 188 211 Q 187 192 196 184 L 199 182 L 200 180 Q 208 172 221 170 L 237 171 L 256 181 L 267 197 L 269 207 L 270 210 L 269 216 L 270 218 L 268 220 L 267 227 L 260 236 L 258 237 L 256 239 L 244 244 L 244 242 L 238 246 L 234 246 L 224 247 Q 213 245 208 237 L 205 239 L 209 244 L 216 249 L 223 250 L 226 251 L 248 247 L 263 238 L 269 230 L 271 228 Q 270 221 274 218 L 274 206 L 272 204 L 271 196 L 262 183 Q 252 170 233 167 L 231 167 L 229 166 L 211 169 L 215 155 L 214 147 L 214 145 L 211 141 Q 207 135 199 134 Z M 280 146 L 276 148 Q 265 154 264 171 L 264 173 L 264 176 L 269 185 L 281 190 L 288 189 L 297 183 L 302 171 Q 303 158 297 152 Q 293 144 280 146 Z M 216 176 L 209 179 L 205 187 L 205 189 L 209 196 L 219 203 Q 221 213 216 216 Q 208 217 205 214 L 201 210 L 199 212 L 202 217 L 209 219 L 210 227 L 214 234 L 223 239 L 225 239 L 228 240 L 230 240 L 239 235 Q 246 230 248 221 L 254 218 L 256 215 L 261 216 L 257 209 Q 252 207 253 212 L 253 214 L 251 216 Q 246 221 235 220 L 233 220 L 225 216 L 222 213 L 223 211 L 222 204 L 234 200 L 241 193 L 243 191 L 240 183 Q 232 175 216 176 Z M 203 272 L 187 280 L 179 293 L 179 295 L 176 305 L 180 326 L 192 345 Q 207 364 232 375 L 238 374 L 248 369 L 272 352 L 273 351 L 280 345 L 282 341 L 285 339 L 292 328 L 298 309 Q 299 297 294 292 L 294 290 L 292 287 L 284 279 L 282 276 L 280 277 L 268 272 L 258 273 L 247 277 L 245 280 L 235 287 L 231 286 L 228 281 L 226 279 L 218 275 Q 214 276 215 273 L 203 272 Z " /><path fill="rgb(147,96,56)" stroke="rgb(147,96,56)" stroke-width="0.6" opacity="1" d="M 341.5 95 Q 349.2 95.5 353 99 Q 357.5 103.8 356 115.5 L 346.5 122 Q 342.5 111 335 103.5 L 335 100.5 L 341.5 95 Z " /><path fill="rgb(147,96,56)" stroke="rgb(147,96,56)" stroke-width="0.6" opacity="1" d="M 197.5 139 Q 205.8 138.2 208 143.5 L 210 146.5 L 206.5 148 Q 204.5 145 198.5 146 L 193 149.5 Q 188.2 155.9 190 168 L 186 166.5 L 185 154.5 Q 186.2 144.7 193.5 141 L 197.5 139 Z " /><path fill="rgb(147,96,56)" stroke="rgb(147,96,56)" stroke-width="0.6" opacity="1" d="M 286.5 162 L 290 164.5 L 289 166.5 Q 291.7 168.3 287.5 170 L 284 168 Q 283 163.3 286.5 162 Z " /><path fill="rgb(214,174,112)" stroke="rgb(214,174,112)" stroke-width="0.6" opacity="1" d="M 284.5 150 Q 292.6 150.4 295 156.5 L 298 167.5 L 296.5 174 L 295 172.5 L 294 162 L 286.5 157 L 282.5 157 L 275 162.5 L 272 167.5 L 271 178.5 Q 276.2 180.8 272.5 183 L 268 175.5 L 268 166.5 Q 269.8 156.8 276.5 152 L 284.5 150 Z " /><path fill="rgb(214,174,112)" stroke="rgb(214,174,112)" stroke-width="0.6" opacity="1" d="M 230.5 223 L 241 224 L 236.5 232 Q 232.2 236.9 222 235 L 221 232.5 L 223 232 L 228.5 224 L 230.5 223 Z " /><path fill="rgb(214,174,112)" stroke="rgb(214,174,112)" stroke-width="0.6" opacity="1" d="M 200.5 277 L 215.5 278 L 221.5 281 L 234.5 293 Q 244.4 276.4 271.5 277 L 282.5 282 L 288 287.5 L 293 298.5 L 293 310.5 L 288 326.5 L 270.5 348 Q 255 363.5 231.5 371 Q 209.4 360.6 195 342.5 Q 186.4 332.6 182 318.5 L 181 299.5 Q 183.4 287.4 191.5 281 L 200.5 277 Z " /><path fill="rgb(7,7,7)" stroke="rgb(7,7,7)" stroke-width="0.6" opacity="1" d="M 251 39 L 257 39 L 260 43 L 250 42 Q 251.1 45.3 247 44 L 248.5 41 Q 252.3 42 251 39 Z " /><path fill="rgb(7,7,7)" stroke="rgb(7,7,7)" stroke-width="0.6" opacity="1" d="M 261.5 43 Q 264.8 41.9 264 44.5 L 265 47 Q 268.1 46.3 267.5 49 L 276.5 49 L 282 53.5 L 285.5 62 L 288 63.5 L 288 65 L 294.5 65 Q 293.5 68 298.5 67 L 312 73 L 313.5 75 Q 316.5 76.5 313.5 78 L 305 74 L 303.5 72 L 296.5 68 L 291.5 68 L 287.5 66 L 285.5 67 L 281 56 L 272.5 51 Q 266.3 53.7 271 56.5 Q 272 60.3 269 59 L 264 46 L 262 44.5 L 261.5 43 Z " /><path fill="rgb(7,7,7)" stroke="rgb(7,7,7)" stroke-width="0.6" opacity="1" d="M 245.5 44 L 246 45.5 L 245 52.5 L 253 63.5 L 251.5 64 L 241.5 56 L 233 56 L 232 58.5 L 233 62 L 236 63.5 L 235.5 66 L 226.5 66 L 224.5 68 L 212.5 70 L 207.5 74 L 197.5 78 L 198.5 76 L 205 73 L 205 67.5 L 198 58 L 186.5 53 L 176.5 52 L 170.5 53 Q 167.4 57.6 161 58 L 147 76.5 L 147 97 Q 150 95.8 149 99.5 L 160.5 113 L 163.5 114 L 166 109 L 168.5 108 L 169 110.5 L 159 132.5 L 160 134.5 Q 158 139 156 135.5 L 162 117.5 L 151 108.5 L 144 94.5 L 144 80.5 L 148 68 L 150 66.5 L 158.5 57 L 163.5 55 L 173.5 51 L 184.5 50 L 198 55.5 Q 197.2 58.1 200.5 57 L 209.5 69 L 214.5 69 L 221.5 65 L 230 65 L 231 61.5 L 230 59.5 L 233.5 53 L 243 53 L 243 48.5 L 245.5 44 Z " /><path fill="rgb(7,7,7)" stroke="rgb(7,7,7)" stroke-width="0.6" opacity="1" d="M 342.5 67 L 352.5 67 Q 351.5 70.3 357.5 69 Q 368.3 71.7 374 79.5 L 378 85.5 L 382 100.5 L 381 103.5 L 382 113.5 L 380 115.5 L 378 124.5 L 366.5 137 L 355 142.5 L 356 146.5 L 355 148.5 L 358 160.5 L 358 177.5 L 356.5 180 Q 352.5 178.5 354 171.5 L 355 159.5 L 354 156.5 L 355 151.5 L 351 139 Q 364.7 138.1 371 128.5 L 379 115.5 L 380 101.5 L 379 93.5 L 365.5 76 L 355.5 70 L 339.5 70 L 334 72.5 Q 334.8 75.1 331.5 74 L 321.5 85 L 316 78.5 L 318.5 78 L 320.5 80 L 327.5 73 L 342.5 67 Z " /><path fill="rgb(7,7,7)" stroke="rgb(7,7,7)" stroke-width="0.6" opacity="1" d="M 182.5 76 L 187 78.5 L 188.5 80 L 190.5 81 L 193.5 79 L 194 80.5 L 182 91.5 L 180.5 93 L 179 93.5 L 181.5 90 L 183 88.5 L 187 81.5 L 182.5 76 Z " /><path fill="rgb(7,7,7)" stroke="rgb(7,7,7)" stroke-width="0.6" opacity="1" d="M 170.5 77 L 167 81.5 L 165 83 L 168.5 78 L 170.5 77 Z " /><path fill="rgb(7,7,7)" stroke="rgb(7,7,7)" stroke-width="0.6" opacity="1" d="M 338.5 93 L 340 95 L 333 100.5 L 338 109.5 L 336 108.5 L 332 103.5 L 332 100.5 L 335.5 95 L 338.5 93 Z " /><path fill="rgb(7,7,7)" stroke="rgb(7,7,7)" stroke-width="0.6" opacity="1" d="M 348 93 L 355 97.5 L 356 99.5 L 354.5 99 L 348 95 L 348 93 Z " /><path fill="rgb(7,7,7)" stroke="rgb(7,7,7)" stroke-width="0.6" opacity="1" d="M 176.5 95 L 178 95.5 L 171 107 L 169 105.5 L 170 104.5 L 165 99.5 L 166.5 98 L 172 101 L 176.5 95 Z " /><path fill="rgb(7,7,7)" stroke="rgb(7,7,7)" stroke-width="0.6" opacity="1" d="M 356.5 101 Q 360.3 104.2 360 111.5 L 354.5 121 L 354 119.5 Q 358.9 115.4 357 104.5 L 356.5 101 Z " /><path fill="rgb(7,7,7)" stroke="rgb(7,7,7)" stroke-width="0.6" opacity="1" d="M 198.5 107 Q 206.8 104.8 209 108.5 Q 209.9 111.9 204.5 110 L 193 114 L 192.5 116 Q 189.5 114.5 192.5 113 Q 195.1 113.8 194 110.5 L 198.5 107 Z " /><path fill="rgb(7,7,7)" stroke="rgb(7,7,7)" stroke-width="0.6" opacity="1" d="M 288.5 115 L 294.5 115 L 302 120.5 L 303 125.5 L 301.5 125 Q 296.3 118.7 287 118 L 288.5 115 Z " /><path fill="rgb(7,7,7)" stroke="rgb(7,7,7)" stroke-width="0.6" opacity="1" d="M 196.5 136 Q 204.1 134.9 207 138.5 L 205.5 140 Q 202.9 136.6 195.5 138 L 186.5 146 L 187 144.5 L 190.5 139 L 196.5 136 Z " /><path fill="rgb(7,7,7)" stroke="rgb(7,7,7)" stroke-width="0.6" opacity="1" d="M 156.5 139 L 157 145.5 Q 153.5 147.2 155 153 L 152.5 154 L 152 149.5 L 156.5 139 Z " /><path fill="rgb(7,7,7)" stroke="rgb(7,7,7)" stroke-width="0.6" opacity="1" d="M 208.5 141 Q 213.3 143.5 213 150 Q 209.7 151.3 211 146.5 L 208.5 141 Z " /><path fill="rgb(7,7,7)" stroke="rgb(7,7,7)" stroke-width="0.6" opacity="1" d="M 198.5 147 Q 206.1 145.9 208 150.5 L 207.5 152 L 202.5 150 Q 199 151 200 156.5 Q 200.8 159.8 205.5 159 L 208.5 155 L 213 157.5 Q 212.1 166.1 207 170.5 Q 210.8 172.3 207.5 174 Q 198.2 176.7 194 184.5 L 188.5 194 L 188 191.5 L 199.5 177 Q 202.5 177.7 201 174 L 196 173 L 194.5 170 L 192 168.5 L 191 156.5 L 196.5 148 L 198.5 147 Z " /><path fill="rgb(7,7,7)" stroke="rgb(7,7,7)" stroke-width="0.6" opacity="1" d="M 279.5 147 Q 284.3 145.7 283 149 Q 275.5 149.1 272 154.5 L 269.5 158 L 270 156.5 L 275.5 149 L 279.5 147 Z " /><path fill="rgb(7,7,7)" stroke="rgb(7,7,7)" stroke-width="0.6" opacity="1" d="M 150.5 155 Q 153.1 154.2 152 157.5 L 143 172.5 L 143 180 L 141 180.5 L 141 194 Q 145 192.6 143 199.5 L 146 205.5 L 143.5 207 L 140 199.5 L 140 174.5 L 146 163.5 L 146 160.5 L 150.5 155 Z " /><path fill="rgb(7,7,7)" stroke="rgb(7,7,7)" stroke-width="0.6" opacity="1" d="M 280.5 159 Q 289 157 291 161.5 Q 294.5 165 294 172.5 Q 293.1 180.1 288.5 184 L 286 185.5 L 284.5 188 L 279 186.5 L 277.5 185 Q 272 181 273 170.5 L 277 161 L 280.5 159 Z M 287 161 L 285 162 L 282 166 L 283 169 Q 284 172 289 171 Q 292 170 291 164 L 287 161 Z " /><path fill="rgb(7,7,7)" stroke="rgb(7,7,7)" stroke-width="0.6" opacity="1" d="M 216.5 177 Q 232.8 175.7 240 183.5 L 241 190.5 L 235.5 197 L 221 202.5 Q 222.5 210.1 219 209 Q 221 202.1 217.5 200 L 209 193.5 Q 206 190.5 207 183.5 L 211.5 178 L 216.5 177 Z M 215 180 Q 210 183 215 185 L 218 184 Q 225 186 223 181 L 215 180 Z " /><path fill="rgb(7,7,7)" stroke="rgb(7,7,7)" stroke-width="0.6" opacity="1" d="M 252.5 177 L 260 182.5 L 259.5 184 L 252.5 177 Z " /><path fill="rgb(7,7,7)" stroke="rgb(7,7,7)" stroke-width="0.6" opacity="1" d="M 296.5 179 L 296 180.5 L 291.5 186 L 290 185.5 L 296.5 179 Z " /><path fill="rgb(7,7,7)" stroke="rgb(7,7,7)" stroke-width="0.6" opacity="1" d="M 358.5 202 L 360 206.5 L 356 213.5 L 356 217.5 L 344.5 232 L 343 233.5 Q 338 235.5 341 237.5 Q 342.3 241.7 337.5 240 L 335.5 239 L 323.5 246 L 312 250 L 313.5 247 L 325.5 243 L 332.5 237 L 335 237 L 336.5 234 L 347 224.5 L 353.5 214 L 355 212.5 L 357 208.5 L 356 206.5 L 358.5 202 Z " /><path fill="rgb(7,7,7)" stroke="rgb(7,7,7)" stroke-width="0.6" opacity="1" d="M 146 210 L 149 211.5 L 165 231 L 168 231 L 169.5 233 L 181 241.5 L 178.5 242 L 172.5 239 L 167 242 L 164.5 246 L 159 249 L 153.5 257 Q 150.9 256.2 152 259.5 L 139 276.5 L 133 295.5 L 134 297.5 L 132 308 L 134 309.5 L 133 313.5 L 135 320 Q 138.3 318.7 137 323.5 L 151.5 341 L 153 339.5 L 154.5 327 L 156 339.5 L 155 341.5 L 156 346.5 L 155 353 Q 158.7 351.6 157 357.5 L 158 359.5 L 157 362 Q 160 360.8 159 364.5 L 160 366.5 L 159 368.5 L 160 371 L 162 372.5 L 168 383.5 L 165 381.5 Q 166.1 377.3 162 379 L 160.5 388 Q 161.6 381.4 158 379.5 L 158 372.5 L 159 369.5 L 156 366.5 Q 157.5 360 154 358.5 L 154 348.5 L 142 336.5 L 142 334 L 140 332.5 L 138 328 Q 135 329.3 136 325.5 L 134 323.5 L 132 311.5 L 130 308.5 L 131 306.5 L 130 296.5 L 133 289.5 L 132 287.5 Q 135.3 286 134 281 Q 137 282.3 136 278.5 L 140 269 Q 143 270.3 142 266.5 L 144 263 Q 147 264.3 146 260.5 L 150 257.5 L 150 255.5 L 156.5 249 L 159 247.5 L 166.5 239 L 169 237.5 L 166.5 234 Q 163.5 234.7 165 231 L 162.5 231 L 160 230 L 158.5 228 Q 149.7 221.2 146 210 Z " /><path fill="rgb(7,7,7)" stroke="rgb(7,7,7)" stroke-width="0.6" opacity="1" d="M 255 210 L 258 211.5 L 256.5 213 L 245 222 Q 244.7 231.6 236.5 235 L 234.5 236 L 242 227.5 L 243 223 Q 236.8 225 238 221 L 244.5 221 L 255 212.5 L 255 210 Z " /><path fill="rgb(7,7,7)" stroke="rgb(7,7,7)" stroke-width="0.6" opacity="1" d="M 220 213 L 222 214.5 L 230 220.5 L 228.5 222 L 220.5 217 L 213 219 L 213 225 L 211 225 Q 211.8 219.3 209 217 L 213.5 218 L 220 214.5 L 220 213 Z " /><path fill="rgb(7,7,7)" stroke="rgb(7,7,7)" stroke-width="0.6" opacity="1" d="M 214.5 230 Q 217.3 235.7 224 236 L 222.5 238 L 216 234.5 L 214.5 230 Z " /><path fill="rgb(7,7,7)" stroke="rgb(7,7,7)" stroke-width="0.6" opacity="1" d="M 343 241 Q 350.3 242.4 354 248.5 L 353.5 251 L 343 242.5 L 343 241 Z " /><path fill="rgb(7,7,7)" stroke="rgb(7,7,7)" stroke-width="0.6" opacity="1" d="M 182.5 242 L 195 247 L 193.5 249 L 183.5 244 L 182.5 242 Z " /><path fill="rgb(7,7,7)" stroke="rgb(7,7,7)" stroke-width="0.6" opacity="1" d="M 308.5 249 L 310 250.5 Q 296.2 257 278 258 Q 276.6 254 283.5 256 Q 297.9 254.4 308.5 249 Z " /><path fill="rgb(7,7,7)" stroke="rgb(7,7,7)" stroke-width="0.6" opacity="1" d="M 359 255 L 362.5 257 L 369 265.5 L 369.5 268 L 373 270.5 L 380 286.5 Q 378 290 376 285.5 L 373 276.5 L 360 259.5 L 359 255 Z " /><path fill="rgb(7,7,7)" stroke="rgb(7,7,7)" stroke-width="0.6" opacity="1" d="M 194.5 277 L 192.5 280 L 183.5 288 L 184 286.5 L 187.5 281 L 194.5 277 Z " /><path fill="rgb(7,7,7)" stroke="rgb(7,7,7)" stroke-width="0.6" opacity="1" d="M 277.5 277 L 289 284.5 L 293 292.5 L 291 291.5 L 285.5 283 L 277.5 277 Z " /><path fill="rgb(7,7,7)" stroke="rgb(7,7,7)" stroke-width="0.6" opacity="1" d="M 220.5 278 L 231 286.5 L 230.5 288 L 220.5 278 Z " /><path fill="rgb(7,7,7)" stroke="rgb(7,7,7)" stroke-width="0.6" opacity="1" d="M 244.5 281 L 242.5 284 L 234.5 291 L 232 291 Q 230.8 288 234.5 289 L 244.5 281 Z " /><path fill="rgb(7,7,7)" stroke="rgb(7,7,7)" stroke-width="0.6" opacity="1" d="M 164.5 285 L 165 287.5 L 161 297.5 L 161 301.5 L 159 303.5 L 159 311.5 L 157 313.5 L 156 325 L 154 323.5 L 155 315.5 L 157 312.5 L 156 307.5 L 158 305.5 L 162 288.5 L 164.5 285 Z " /><path fill="rgb(7,7,7)" stroke="rgb(7,7,7)" stroke-width="0.6" opacity="1" d="M 379.5 289 Q 383.3 294.3 382 304.5 L 381 307.5 L 382 313.5 Q 377.5 318 378 327.5 L 374 334.5 Q 365.9 348.4 353.5 358 L 350 359.5 L 348 361 L 348 365.5 L 347 371.5 L 348 375.5 Q 346 380 344 376.5 L 346 371.5 L 347 360.5 L 344 344.5 L 345.5 342 L 348 349.5 L 347 355 L 350.5 356 L 353 355 L 354.5 353 L 373 331.5 L 374 325.5 L 379 315.5 L 378 313.5 L 380 305.5 L 379 295.5 L 379 293.5 L 379.5 289 Z " /><path fill="rgb(7,7,7)" stroke="rgb(7,7,7)" stroke-width="0.6" opacity="1" d="M 181.5 291 L 182 293.5 L 178.5 303 L 178 298.5 L 181.5 291 Z " /><path fill="rgb(7,7,7)" stroke="rgb(7,7,7)" stroke-width="0.6" opacity="1" d="M 326.5 296 L 333.5 304 L 337 306.5 L 336 311.5 L 338 313.5 L 346 338.5 Q 344.5 341.5 343 338.5 L 341 326.5 L 330 302.5 L 326 298.5 L 326.5 296 Z " /><path fill="rgb(7,7,7)" stroke="rgb(7,7,7)" stroke-width="0.6" opacity="1" d="M 184.5 328 Q 191.7 343.8 204.5 354 L 225 369.5 L 223.5 369 Q 205.3 359.7 193 344.5 L 185 332.5 L 184.5 328 Z " /><path fill="rgb(7,7,7)" stroke="rgb(7,7,7)" stroke-width="0.6" opacity="1" d="M 287.5 330 L 287 331.5 Q 282.2 343.2 272.5 350 Q 261 361 245.5 368 L 247.5 365 Q 268.2 354.7 282 337.5 L 287.5 330 Z " /><path fill="rgb(7,7,7)" stroke="rgb(7,7,7)" stroke-width="0.6" opacity="1" d="M 344.5 380 L 346 385.5 L 343.5 389 L 343 382.5 L 344.5 380 Z " /><path fill="rgb(7,7,7)" stroke="rgb(7,7,7)" stroke-width="0.6" opacity="1" d="M 161.5 389 L 164 397.5 L 163 402 Q 166 400.8 165 404.5 L 165 406.5 L 168 417.5 L 167 420 Q 170.3 418.7 169 423.5 L 171 428 Q 162.6 429.3 158 435.5 L 152 446.5 L 152 451.5 L 159.5 461 L 161 456 Q 164.3 454.7 163 459.5 L 167 467 Q 156.9 465.9 152 458.5 L 150 452.5 L 151 446.5 L 150 444.5 L 154 435 L 159 431.5 L 160.5 429 L 163 429 L 164.5 427 Q 167.8 425.3 166 418.5 L 164 414.5 L 165 412.5 L 162 404.5 L 162 399.5 L 160 397.5 L 160 392.5 L 161.5 389 Z " /><path fill="rgb(7,7,7)" stroke="rgb(7,7,7)" stroke-width="0.6" opacity="1" d="M 340.5 398 L 342 402.5 L 339.5 406 L 338 402.5 L 340.5 398 Z " /><path fill="rgb(7,7,7)" stroke="rgb(7,7,7)" stroke-width="0.6" opacity="1" d="M 338.5 407 L 340 411.5 L 337 418.5 L 338 423.5 L 337 425.5 L 339 430 L 344 432.5 Q 349 437.5 350 446.5 Q 348.5 449.5 347 446.5 Q 348.3 440.4 345.5 441 L 343 435 L 334 427.5 L 334 420.5 L 336 418.5 L 338.5 407 Z " /><path fill="rgb(7,7,7)" stroke="rgb(7,7,7)" stroke-width="0.6" opacity="1" d="M 223 408 L 244 411.5 L 239 415.5 L 240 420.5 Q 236.4 422.4 237.5 429 L 236 420.5 Q 239 419.5 238 414.5 L 235.5 412 L 223 410 L 223 408 Z " /><path fill="rgb(7,7,7)" stroke="rgb(7,7,7)" stroke-width="0.6" opacity="1" d="M 256.5 410 Q 262.2 408.2 260 414.5 L 258.5 417 L 254.5 412 L 253 411.5 L 256.5 410 Z " /><path fill="rgb(7,7,7)" stroke="rgb(7,7,7)" stroke-width="0.6" opacity="1" d="M 259.5 418 L 262 422.5 L 260.5 426 L 258 420.5 L 259.5 418 Z " /><path fill="rgb(7,7,7)" stroke="rgb(7,7,7)" stroke-width="0.6" opacity="1" d="M 261.5 428 L 263 431.5 L 263 452.5 L 265 458 L 268 459.5 L 269.5 461 L 280.5 468 L 299 471.5 L 292.5 472 L 285.5 470 L 283.5 471 L 279.5 468 L 270.5 466 L 264 460.5 Q 260.4 451.1 262 436.5 L 260 431.5 L 261.5 428 Z " /><path fill="rgb(7,7,7)" stroke="rgb(7,7,7)" stroke-width="0.6" opacity="1" d="M 236.5 430 L 238 447.5 Q 234.2 451.1 235 458 L 233 459.5 Q 231.7 463 227 462 L 235 452.5 L 236.5 430 Z " /><path fill="rgb(7,7,7)" stroke="rgb(7,7,7)" stroke-width="0.6" opacity="1" d="M 181.5 449 L 182 451.5 L 180 458.5 Q 180.9 465.1 185.5 468 L 198.5 467 L 204.5 468 L 226 462 L 224.5 464 L 218.5 467 L 216.5 466 L 210.5 469 L 205.5 468 Q 198.3 471.3 186.5 470 L 184.5 469 L 176 470 Q 177.3 467 173.5 468 L 171.5 469 L 168 468 L 169.5 466 L 171.5 465 Q 173.2 468.5 179 467 L 180 464.5 Q 176.8 462.2 178 455.5 L 181.5 449 Z " /><path fill="rgb(7,7,7)" stroke="rgb(7,7,7)" stroke-width="0.6" opacity="1" d="M 348.5 452 L 350 456.5 L 344.5 465 Q 337.1 471.6 324.5 473 L 320 471.5 L 330 467.5 L 332 462 Q 335.3 460.7 334 465.5 L 336.5 467 L 343 462.5 Q 347.6 459.1 348.5 452 Z " /><path fill="rgb(7,7,7)" stroke="rgb(7,7,7)" stroke-width="0.6" opacity="1" d="M 311 458 Q 314.8 456.9 313 465.5 L 312 470.5 L 318 472.5 L 308.5 474 L 303 472.5 L 307 472 L 311 465.5 L 311 458 Z " /><path fill="rgb(18,19,20)" stroke="rgb(18,19,20)" stroke-width="0.6" opacity="1" d="M 257.5 39 L 263 42.5 L 261 43.5 L 262 46 L 264 47.5 L 259.5 44 L 256 42.5 L 257.5 42 L 260 43 Q 261.1 39.7 257 41 L 257.5 39 Z " /><path fill="rgb(18,19,20)" stroke="rgb(18,19,20)" stroke-width="0.6" opacity="1" d="M 248.5 40 L 251 40.5 L 247 42.5 L 248 44.5 L 245.5 49 L 244.5 46 L 242.5 53 L 242 48.5 L 248.5 40 Z " /><path fill="rgb(18,19,20)" stroke="rgb(18,19,20)" stroke-width="0.6" opacity="1" d="M 173.5 50 L 183 50.5 L 170 52.5 L 175.5 53 L 182.5 52 L 187 53.5 L 183.5 54 L 177.5 53 L 169.5 55 L 169.5 53 L 167 52.5 L 173.5 50 Z " /><path fill="rgb(18,19,20)" stroke="rgb(18,19,20)" stroke-width="0.6" opacity="1" d="M 280.5 56 L 283.5 61 L 284.5 58 L 286 61.5 L 284 61.5 L 283.5 63 L 280.5 56 Z " /><path fill="rgb(18,19,20)" stroke="rgb(18,19,20)" stroke-width="0.6" opacity="1" d="M 299.5 67 L 307 70.5 L 305.5 71 L 300.5 69 L 299.5 67 Z " /><path fill="rgb(18,19,20)" stroke="rgb(18,19,20)" stroke-width="0.6" opacity="1" d="M 353.5 67 L 363 70.5 L 361.5 71 L 353 69 L 353.5 67 Z " /><path fill="rgb(18,19,20)" stroke="rgb(18,19,20)" stroke-width="0.6" opacity="1" d="M 294.5 68 L 305 72.5 L 303.5 73 L 294.5 69 L 294.5 68 Z " /><path fill="rgb(18,19,20)" stroke="rgb(18,19,20)" stroke-width="0.6" opacity="1" d="M 339.5 70 L 343 70.5 L 334.5 73 L 335.5 71 L 339.5 70 Z " /><path fill="rgb(18,19,20)" stroke="rgb(18,19,20)" stroke-width="0.6" opacity="1" d="M 351.5 70 Q 357.7 69.3 360 72.5 L 358.5 72 L 351.5 71 L 351.5 70 Z " /><path fill="rgb(18,19,20)" stroke="rgb(18,19,20)" stroke-width="0.6" opacity="1" d="M 201.5 73 L 200.5 76 L 202 76.5 L 191.5 84 L 194 80.5 L 195.5 77 L 201.5 73 Z " /><path fill="rgb(18,19,20)" stroke="rgb(18,19,20)" stroke-width="0.6" opacity="1" d="M 176.5 74 L 183 75.5 L 180.5 77 L 175.5 76 L 167.5 82 L 170.5 76 L 176.5 74 Z " /><path fill="rgb(18,19,20)" stroke="rgb(18,19,20)" stroke-width="0.6" opacity="1" d="M 312.5 74 L 318 77.5 L 316 78.5 L 317 80.5 L 314.5 79 L 310 76.5 L 311.5 76 Q 313.3 79.8 315 76.5 L 312.5 74 Z " /><path fill="rgb(18,19,20)" stroke="rgb(18,19,20)" stroke-width="0.6" opacity="1" d="M 185.5 85 L 183 88.5 L 183.5 90 L 185 89.5 L 182 91.5 L 182.5 90 L 180 91.5 L 181 93.5 L 177.5 98 L 177 96.5 L 177.5 95 L 174.5 97 L 185.5 85 Z " /><path fill="rgb(18,19,20)" stroke="rgb(18,19,20)" stroke-width="0.6" opacity="1" d="M 163.5 87 L 165 87.5 L 165 96.5 L 164.5 99 L 162 92.5 L 164 92 L 162 88.5 L 163.5 87 Z " /><path fill="rgb(18,19,20)" stroke="rgb(18,19,20)" stroke-width="0.6" opacity="1" d="M 378.5 87 L 381 94.5 L 380 94.5 L 379.5 93 L 378.5 98 L 376 90.5 L 377 90.5 L 378.5 93 L 379 89.5 L 378.5 87 Z " /><path fill="rgb(18,19,20)" stroke="rgb(18,19,20)" stroke-width="0.6" opacity="1" d="M 332.5 98 L 333.5 100 L 335 99.5 L 333.5 102 L 332.5 100 L 331.5 103 L 331 100.5 L 332.5 98 Z " /><path fill="rgb(18,19,20)" stroke="rgb(18,19,20)" stroke-width="0.6" opacity="1" d="M 146.5 101 L 151 107.5 L 149 106.5 L 146.5 101 Z " /><path fill="rgb(18,19,20)" stroke="rgb(18,19,20)" stroke-width="0.6" opacity="1" d="M 169.5 104 L 169 105.5 L 170.5 107 L 170 108.5 L 169.5 110 L 168.5 108 L 167 108.5 L 169.5 104 Z " /><path fill="rgb(18,19,20)" stroke="rgb(18,19,20)" stroke-width="0.6" opacity="1" d="M 341.5 115 L 341.5 117 L 343 118.5 L 344 121.5 L 342 120.5 L 340 116.5 L 341.5 115 Z " /><path fill="rgb(18,19,20)" stroke="rgb(18,19,20)" stroke-width="0.6" opacity="1" d="M 357.5 117 L 357 118.5 L 353.5 123 L 352.5 121 L 351 121.5 L 355 118.5 L 354 120.5 L 356 119.5 L 357.5 117 Z " /><path fill="rgb(18,19,20)" stroke="rgb(18,19,20)" stroke-width="0.6" opacity="1" d="M 159.5 135 L 159 136.5 L 157.5 143 L 156.5 139 L 154.5 142 L 155 140.5 L 156.5 136 Q 158 138.5 159.5 135 Z " /><path fill="rgb(18,19,20)" stroke="rgb(18,19,20)" stroke-width="0.6" opacity="1" d="M 187.5 142 L 187 143.5 L 187.5 145 L 189 144.5 L 186.5 148 L 185.5 146 L 187 145.5 L 186 143.5 L 187.5 142 Z " /><path fill="rgb(18,19,20)" stroke="rgb(18,19,20)" stroke-width="0.6" opacity="1" d="M 290.5 148 L 297 153.5 L 295 153.5 L 294.5 155 L 292.5 152 L 290 150.5 L 290.5 148 Z " /><path fill="rgb(18,19,20)" stroke="rgb(18,19,20)" stroke-width="0.6" opacity="1" d="M 183.5 150 L 185 152.5 L 184 163.5 L 185 166 Q 182 167.3 183 163.5 L 182 154.5 L 183.5 150 Z " /><path fill="rgb(18,19,20)" stroke="rgb(18,19,20)" stroke-width="0.6" opacity="1" d="M 151.5 151 L 152.5 154 L 154.5 153 L 153 155.5 L 152.5 157 L 152 155 L 149.5 156 L 151 153.5 L 151.5 151 Z " /><path fill="rgb(18,19,20)" stroke="rgb(18,19,20)" stroke-width="0.6" opacity="1" d="M 354.5 159 L 355 170.5 L 354 170.5 L 354.5 159 Z " /><path fill="rgb(18,19,20)" stroke="rgb(18,19,20)" stroke-width="0.6" opacity="1" d="M 231 168 Q 245.7 167.8 253 176.5 L 250.5 177 L 243 173 L 242.5 171 L 240.5 171 L 231 170 L 231 168 Z " /><path fill="rgb(18,19,20)" stroke="rgb(18,19,20)" stroke-width="0.6" opacity="1" d="M 213.5 169 Q 217.3 168 216 171 L 211.5 172 L 210 171.5 L 209.5 173 L 207.5 170 L 209.5 171 L 213.5 169 Z " /><path fill="rgb(18,19,20)" stroke="rgb(18,19,20)" stroke-width="0.6" opacity="1" d="M 298 172 L 300 172.5 L 298 179 L 296 179.5 L 296.5 181 L 296 178.5 L 298 172 Z " /><path fill="rgb(18,19,20)" stroke="rgb(18,19,20)" stroke-width="0.6" opacity="1" d="M 139.5 177 L 140 195.5 L 139 195.5 L 138 187.5 L 139.5 177 Z " /><path fill="rgb(18,19,20)" stroke="rgb(18,19,20)" stroke-width="0.6" opacity="1" d="M 357.5 178 L 359 181.5 L 357 181.5 L 358.5 188 L 359.5 186 L 361 187.5 L 361 203.5 L 358 202.5 L 356.5 206 L 356 204.5 L 358 192.5 L 355 179.5 L 357 179.5 L 357.5 178 Z " /><path fill="rgb(18,19,20)" stroke="rgb(18,19,20)" stroke-width="0.6" opacity="1" d="M 141.5 180 L 143 193.5 L 141 194 L 141.5 180 Z " /><path fill="rgb(18,19,20)" stroke="rgb(18,19,20)" stroke-width="0.6" opacity="1" d="M 187.5 193 L 189 195.5 L 187 207 Q 183.7 208.3 185 203.5 L 187.5 193 Z " /><path fill="rgb(18,19,20)" stroke="rgb(18,19,20)" stroke-width="0.6" opacity="1" d="M 145.5 206 L 147 207.5 L 149 210.5 L 147.5 210 L 146 211.5 L 148 214.5 L 146 213.5 L 143 207.5 L 145.5 206 Z " /><path fill="rgb(18,19,20)" stroke="rgb(18,19,20)" stroke-width="0.6" opacity="1" d="M 202.5 214 L 205 215.5 L 205.5 217 L 207.5 216 L 211 220.5 L 207.5 218 Q 201.9 218.5 202.5 214 Z " /><path fill="rgb(18,19,20)" stroke="rgb(18,19,20)" stroke-width="0.6" opacity="1" d="M 270 218 Q 273 216.8 272 220.5 L 270 226 L 268 224.5 L 270 218 Z " /><path fill="rgb(18,19,20)" stroke="rgb(18,19,20)" stroke-width="0.6" opacity="1" d="M 226.5 220 L 230 222 L 231.5 220 L 233 222.5 L 231.5 222 L 226.5 224 L 227 222.5 L 226.5 220 Z " /><path fill="rgb(18,19,20)" stroke="rgb(18,19,20)" stroke-width="0.6" opacity="1" d="M 341.5 238 L 345 240.5 L 343 241 L 346 245.5 L 341.5 242 L 339 240.5 L 341 240 L 341.5 238 Z " /><path fill="rgb(18,19,20)" stroke="rgb(18,19,20)" stroke-width="0.6" opacity="1" d="M 179.5 239 L 185 242.5 L 183.5 242 L 182 242.5 L 185 244.5 L 183.5 245 L 180 242.5 L 179.5 239 Z " /><path fill="rgb(18,19,20)" stroke="rgb(18,19,20)" stroke-width="0.6" opacity="1" d="M 160.5 244 L 159 246.5 L 157.5 249 L 155.5 250 L 160.5 244 Z " /><path fill="rgb(18,19,20)" stroke="rgb(18,19,20)" stroke-width="0.6" opacity="1" d="M 212.5 244 L 222 247 L 220.5 249 L 217 248 L 216.5 246 L 214.5 246 L 212.5 244 Z " /><path fill="rgb(18,19,20)" stroke="rgb(18,19,20)" stroke-width="0.6" opacity="1" d="M 163.5 246 L 157.5 253 L 159 250.5 L 160.5 249 L 163.5 246 Z " /><path fill="rgb(18,19,20)" stroke="rgb(18,19,20)" stroke-width="0.6" opacity="1" d="M 354 249 L 359 252.5 L 360 254.5 L 359 257.5 L 359.5 259 L 353.5 252 L 351 250.5 L 352.5 250 L 354 250.5 L 354 249 Z " /><path fill="rgb(18,19,20)" stroke="rgb(18,19,20)" stroke-width="0.6" opacity="1" d="M 141.5 274 L 141 275.5 L 137.5 284 L 137 280.5 L 141.5 274 Z " /><path fill="rgb(18,19,20)" stroke="rgb(18,19,20)" stroke-width="0.6" opacity="1" d="M 214 275 L 220 277.5 L 220.5 279 L 222 278.5 Q 220.5 281.5 219 278.5 L 218.5 277 L 216.5 277 Q 212.8 278 214 275 Z " /><path fill="rgb(18,19,20)" stroke="rgb(18,19,20)" stroke-width="0.6" opacity="1" d="M 248.5 278 L 249.5 280 L 244.5 283 Q 241.5 281.5 244.5 280 L 248.5 278 Z " /><path fill="rgb(18,19,20)" stroke="rgb(18,19,20)" stroke-width="0.6" opacity="1" d="M 376.5 286 L 381 288.5 L 382 294.5 L 381 294.5 L 379.5 289 L 379 293.5 L 379.5 295 L 376.5 286 Z " /><path fill="rgb(18,19,20)" stroke="rgb(18,19,20)" stroke-width="0.6" opacity="1" d="M 135.5 287 L 136 288.5 L 133.5 296 L 133 292.5 L 135.5 287 Z " /><path fill="rgb(18,19,20)" stroke="rgb(18,19,20)" stroke-width="0.6" opacity="1" d="M 130.5 310 L 134 321.5 L 133 321.5 L 130.5 310 Z " /><path fill="rgb(18,19,20)" stroke="rgb(18,19,20)" stroke-width="0.6" opacity="1" d="M 294 310 L 296 310.5 Q 294.3 323.8 287.5 332 Q 284.5 330.5 287.5 329 L 289 328.5 L 288.5 327 L 290 326.5 L 289.5 325 L 291 324.5 L 290.5 323 L 292 322.5 L 291 320.5 L 294 310 Z " /><path fill="rgb(18,19,20)" stroke="rgb(18,19,20)" stroke-width="0.6" opacity="1" d="M 155.5 311 L 159 312.5 L 157.5 318 L 156.5 313 L 155.5 315 L 155.5 311 Z " /><path fill="rgb(18,19,20)" stroke="rgb(18,19,20)" stroke-width="0.6" opacity="1" d="M 381.5 314 L 381 315.5 L 379.5 322 L 378.5 318 L 376.5 322 L 376 320.5 L 378.5 315 L 379.5 318 L 381.5 314 Z " /><path fill="rgb(18,19,20)" stroke="rgb(18,19,20)" stroke-width="0.6" opacity="1" d="M 337.5 319 L 340.5 326 L 341.5 323 L 343 326.5 L 341 326.5 L 340.5 329 L 337.5 319 Z " /><path fill="rgb(18,19,20)" stroke="rgb(18,19,20)" stroke-width="0.6" opacity="1" d="M 156.5 321 L 157 324.5 L 155.5 333 L 154.5 327 L 153.5 333 L 153 325 Q 157.7 326.6 156.5 321 Z " /><path fill="rgb(18,19,20)" stroke="rgb(18,19,20)" stroke-width="0.6" opacity="1" d="M 343.5 339 L 347 340.5 L 346.5 344 L 345.5 342 L 344.5 344 L 343.5 339 Z " /><path fill="rgb(18,19,20)" stroke="rgb(18,19,20)" stroke-width="0.6" opacity="1" d="M 365.5 346 L 358.5 354 L 365.5 346 Z " /><path fill="rgb(18,19,20)" stroke="rgb(18,19,20)" stroke-width="0.6" opacity="1" d="M 346.5 360 L 347.5 366 L 348.5 361 L 349 368.5 L 347.5 372 L 346.5 366 L 344.5 373 L 345 371.5 Q 343.8 363.8 346.5 360 Z " /><path fill="rgb(18,19,20)" stroke="rgb(18,19,20)" stroke-width="0.6" opacity="1" d="M 245.5 366 Q 248.5 367.5 245.5 369 L 240.5 371 L 239 370.5 L 238.5 372 L 237.5 370 L 240.5 369 L 242 369.5 L 242.5 368 L 244 368.5 L 245.5 366 Z " /><path fill="rgb(18,19,20)" stroke="rgb(18,19,20)" stroke-width="0.6" opacity="1" d="M 159.5 367 L 161 370.5 L 160 370.5 L 159.5 369 L 158.5 372 L 157 368.5 L 159 368.5 L 159.5 367 Z " /><path fill="rgb(18,19,20)" stroke="rgb(18,19,20)" stroke-width="0.6" opacity="1" d="M 347.5 376 L 347 377.5 L 346.5 382 L 344 380.5 L 343.5 382 L 343 378.5 L 347.5 376 Z " /><path fill="rgb(18,19,20)" stroke="rgb(18,19,20)" stroke-width="0.6" opacity="1" d="M 158.5 380 Q 161.6 381.9 160.5 388 L 161.5 381 L 163 391.5 L 162 391.5 L 161.5 389 L 160.5 392 L 159 390.5 L 158.5 380 Z " /><path fill="rgb(18,19,20)" stroke="rgb(18,19,20)" stroke-width="0.6" opacity="1" d="M 342.5 383 L 343.5 389 L 344.5 387 L 345 389.5 L 343.5 392 L 342.5 390 L 341 396.5 L 342 396.5 L 343.5 394 L 343 395.5 L 341.5 400 L 340.5 398 L 338.5 402 L 338 400.5 L 342.5 383 Z " /><path fill="rgb(18,19,20)" stroke="rgb(18,19,20)" stroke-width="0.6" opacity="1" d="M 341.5 403 L 341 404.5 L 339.5 410 L 338.5 407 L 337 415.5 L 338 415.5 L 338.5 413 L 339 417.5 L 337 418.5 L 336.5 416 L 334.5 420 L 335 418.5 L 338.5 404 L 339.5 406 L 341.5 403 Z " /><path fill="rgb(18,19,20)" stroke="rgb(18,19,20)" stroke-width="0.6" opacity="1" d="M 162.5 405 L 165 413.5 L 163 412.5 L 162.5 405 Z " /><path fill="rgb(18,19,20)" stroke="rgb(18,19,20)" stroke-width="0.6" opacity="1" d="M 241.5 410 L 256 410.5 L 253 411.5 L 258 415.5 L 258.5 417 L 259.5 415 L 261 419.5 L 260 419.5 L 259.5 418 L 258.5 420 L 254.5 413 L 243.5 414 Q 241.7 411.3 240 415.5 L 239.5 419 L 239 415.5 L 244 411.5 L 241.5 410 Z " /><path fill="rgb(18,19,20)" stroke="rgb(18,19,20)" stroke-width="0.6" opacity="1" d="M 236.5 422 L 237.5 429 L 238.5 422 L 239 430.5 L 237.5 446 L 236.5 430 L 235.5 446 L 235 429.5 L 236.5 422 Z " /><path fill="rgb(18,19,20)" stroke="rgb(18,19,20)" stroke-width="0.6" opacity="1" d="M 258.5 422 L 260.5 426 L 261.5 423 L 263 430.5 L 262 430.5 L 261.5 428 L 260.5 431 L 258.5 422 Z " /><path fill="rgb(18,19,20)" stroke="rgb(18,19,20)" stroke-width="0.6" opacity="1" d="M 263.5 432 L 264 451.5 L 267 457.5 L 265 458 L 263.5 453 L 263 456.5 L 264 458.5 L 263 458.5 Q 258.6 450.9 261 436.5 L 262 436.5 L 262.5 453 L 263.5 432 Z " /><path fill="rgb(18,19,20)" stroke="rgb(18,19,20)" stroke-width="0.6" opacity="1" d="M 347.5 447 L 349.5 447 Q 352.5 446.5 351 453.5 L 348 452.5 L 347.5 454 L 347.5 447 Z " /><path fill="rgb(18,19,20)" stroke="rgb(18,19,20)" stroke-width="0.6" opacity="1" d="M 234.5 448 L 235.5 453 L 237.5 448 L 238 449.5 L 235.5 456 L 234.5 453 L 232 454.5 L 234.5 448 Z " /><path fill="rgb(18,19,20)" stroke="rgb(18,19,20)" stroke-width="0.6" opacity="1" d="M 308.5 450 L 312 454.5 L 312 457.5 L 310 456.5 L 311 454.5 L 308 452.5 L 308.5 450 Z " /><path fill="rgb(18,19,20)" stroke="rgb(18,19,20)" stroke-width="0.6" opacity="1" d="M 226.5 460 L 227 462 L 229 462.5 L 224.5 465 L 224.5 464 L 226 462 L 221.5 463 L 221.5 462 L 226.5 460 Z " /><path fill="rgb(18,19,20)" stroke="rgb(18,19,20)" stroke-width="0.6" opacity="1" d="M 275.5 464 L 280.5 467 L 293 469.5 L 288.5 470 L 280.5 468 L 280.5 469 L 283 470.5 L 281.5 470 L 276 468.5 L 280 467.5 L 275.5 464 Z " /><path fill="rgb(18,19,20)" stroke="rgb(18,19,20)" stroke-width="0.6" opacity="1" d="M 203.5 466 L 210 466.5 L 205 467.5 L 210 468.5 L 199.5 470 L 199.5 469 L 205 468.5 L 199 467.5 L 203.5 466 Z " /><path fill="rgb(18,19,20)" stroke="rgb(18,19,20)" stroke-width="0.6" opacity="1" d="M 285.5 470 L 298.5 472 L 298.5 471 L 294 470.5 L 303.5 470 L 307 471.5 L 303 472.5 L 308 473.5 L 299.5 474 L 286.5 472 L 285.5 470 Z " /><path fill="rgb(18,19,20)" stroke="rgb(18,19,20)" stroke-width="0.6" opacity="1" d="M 312.5 470 L 316.5 471 L 323.5 470 L 323.5 471 L 320 471.5 L 324 472.5 L 312.5 474 L 312.5 473 L 318 472.5 Q 312.3 473 312.5 470 Z " /><path fill="rgb(76,63,49)" stroke="rgb(76,63,49)" stroke-width="0.6" opacity="1" d="M 173.5 54 Q 195.5 51.5 202 64.5 L 205 70.5 L 203 70.5 L 202.5 73 L 201 72.5 L 199.5 74 L 191 78.5 L 190.5 81 L 183.5 75 L 175.5 74 L 168.5 78 L 166.5 77 L 165 80.5 L 161 91.5 L 168 106.5 L 164.5 112 L 162 111 L 161.5 113 L 157 109.5 Q 159.8 107.8 155.5 106 L 153 105.5 L 148 96.5 L 147 84.5 Q 147.8 71.2 155.5 65 L 156.5 66 L 160 62.5 Q 158.9 59.2 161.5 60 L 167.5 56 L 169 56.5 Q 168.1 53.5 172.5 55 L 173.5 54 Z " /><path fill="rgb(76,63,49)" stroke="rgb(76,63,49)" stroke-width="0.6" opacity="1" d="M 173.5 77 Q 183.3 75.3 186 80.5 L 186 82.5 L 171.5 99 Q 166.8 99.8 166 96.5 L 165 87.5 Q 165.8 80.3 171.5 78 L 173.5 77 Z " /><path fill="rgb(76,63,49)" stroke="rgb(76,63,49)" stroke-width="0.6" opacity="1" d="M 266.5 178 L 269 179.5 L 268.5 181 L 273 184.5 Q 271 188 269 183.5 L 266.5 178 Z " /><path fill="rgb(76,63,49)" stroke="rgb(76,63,49)" stroke-width="0.6" opacity="1" d="M 219.5 218 Q 224.3 217.3 225 220.5 L 220.5 231 L 217.5 233 L 215 230.5 L 213 220.5 L 219.5 218 Z " /><path fill="rgb(76,63,49)" stroke="rgb(76,63,49)" stroke-width="0.6" opacity="1" d="M 264.5 439 L 265 449.5 L 264 449.5 L 264.5 439 Z " /><path fill="rgb(42,43,44)" stroke="rgb(42,43,44)" stroke-width="0.6" opacity="1" d="M 186.5 81 L 187 83.5 L 177 92.5 L 186.5 81 Z " /><path fill="rgb(42,43,44)" stroke="rgb(42,43,44)" stroke-width="0.6" opacity="1" d="M 266 165 L 268 165.5 L 267 174 Q 263.5 175.1 265 167.5 L 266 165 Z " /><path fill="rgb(42,43,44)" stroke="rgb(42,43,44)" stroke-width="0.6" opacity="1" d="M 185.5 167 Q 187.7 172.3 194.5 173 L 193.5 170 L 197 174.5 L 193.5 175 L 185 169.5 L 185.5 167 Z " /><path fill="rgb(42,43,44)" stroke="rgb(42,43,44)" stroke-width="0.6" opacity="1" d="M 222 167 L 231 167 L 231 170 L 225.5 169 L 222 170 L 222 167 Z " /><path fill="rgb(42,43,44)" stroke="rgb(42,43,44)" stroke-width="0.6" opacity="1" d="M 255.5 180 L 264 186.5 L 261.5 187 L 255.5 180 Z " /><path fill="rgb(42,43,44)" stroke="rgb(42,43,44)" stroke-width="0.6" opacity="1" d="M 255.5 239 Q 258.5 240.5 255.5 242 L 244 246 Q 242.7 242.7 247.5 244 L 255.5 239 Z " /><path fill="rgb(42,43,44)" stroke="rgb(42,43,44)" stroke-width="0.6" opacity="1" d="M 194.5 346 L 205.5 358 L 194.5 346 Z " /><path fill="rgb(42,43,44)" stroke="rgb(42,43,44)" stroke-width="0.6" opacity="1" d="M 198.5 347 L 203.5 353 L 198.5 347 Z " /><path fill="rgb(42,43,44)" stroke="rgb(42,43,44)" stroke-width="0.6" opacity="1" d="M 186.5 470 L 197 470.5 L 186.5 471 L 186.5 470 Z " /><path fill="rgb(129,90,55)" stroke="rgb(129,90,55)" stroke-width="0.6" opacity="1" d="M 273.5 207 L 274 217.5 L 273 217.5 L 273.5 207 Z " /><path fill="rgb(129,90,55)" stroke="rgb(129,90,55)" stroke-width="0.6" opacity="1" d="M 350.5 250 L 357.5 258 L 350.5 250 Z " /><path fill="rgb(129,90,55)" stroke="rgb(129,90,55)" stroke-width="0.6" opacity="1" d="M 165.5 383 L 170.5 389 L 165 385 L 165.5 383 Z " /><path fill="rgb(129,90,55)" stroke="rgb(129,90,55)" stroke-width="0.6" opacity="1" d="M 181.5 455 Q 181 462.2 184 465 L 187 465.5 L 184.5 466 Q 179.2 463.2 181.5 455 Z " /><path fill="rgb(100,86,56)" stroke="rgb(100,86,56)" stroke-width="0.6" opacity="1" d="M 207.5 237 L 211.5 242 Q 209.2 237.7 207 239.5 L 207.5 237 Z " /><path fill="rgb(100,86,56)" stroke="rgb(100,86,56)" stroke-width="0.6" opacity="1" d="M 261 257 Q 264.1 256.3 263.5 259 L 271.5 259 L 271.5 260 L 260 259.5 L 261 257 Z " /><path fill="rgb(100,86,56)" stroke="rgb(100,86,56)" stroke-width="0.6" opacity="1" d="M 278.5 344 L 272.5 351 L 278.5 344 Z " /><path fill="rgb(100,86,56)" stroke="rgb(100,86,56)" stroke-width="0.6" opacity="1" d="M 162.5 432 L 157.5 438 L 162.5 432 Z " /><path fill="rgb(140,98,77)" stroke="rgb(140,98,77)" stroke-width="0.6" opacity="1" d="M 235.5 56 L 238 57.5 L 235 59.5 L 239 64.5 L 237.5 65 L 234 60.5 L 234 57.5 L 235.5 56 Z " /><path fill="rgb(140,98,77)" stroke="rgb(140,98,77)" stroke-width="0.6" opacity="1" d="M 187.5 88 L 181.5 95 L 182 93.5 L 185.5 89 L 187.5 88 Z " /><path fill="rgb(140,98,77)" stroke="rgb(140,98,77)" stroke-width="0.6" opacity="1" d="M 157.5 220 L 163.5 227 L 157.5 220 Z " /><path fill="rgb(140,98,77)" stroke="rgb(140,98,77)" stroke-width="0.6" opacity="1" d="M 329.5 298 L 332.5 300 L 335 303.5 L 329.5 298 Z " /><path fill="rgb(140,98,77)" stroke="rgb(140,98,77)" stroke-width="0.6" opacity="1" d="M 233.5 434 L 234 444.5 L 233 444.5 L 233.5 434 Z " /><path fill="rgb(187,186,186)" stroke="rgb(187,186,186)" stroke-width="0.6" opacity="1" d="M 160.5 243 L 154.5 250 L 160.5 243 Z " /><path fill="rgb(187,186,186)" stroke="rgb(187,186,186)" stroke-width="0.6" opacity="1" d="M 354.5 247 L 360.5 254 L 354.5 247 Z " /><path fill="rgb(187,186,186)" stroke="rgb(187,186,186)" stroke-width="0.6" opacity="1" d="M 365.5 347 L 359.5 354 L 365.5 347 Z " /><path fill="rgb(154,153,152)" stroke="rgb(154,153,152)" stroke-width="0.6" opacity="1" d="M 358.5 161 L 359 172.5 L 358 172.5 L 358.5 161 Z " /><path fill="rgb(186,160,108)" stroke="rgb(186,160,108)" stroke-width="0.6" opacity="1" d="M 205.5 151 L 207 155.5 L 202.5 158 L 201 155 L 206 154 L 205.5 151 Z " /><path fill="rgb(186,160,108)" stroke="rgb(186,160,108)" stroke-width="0.6" opacity="1" d="M 268.5 176 L 270.5 179 L 271.5 177 L 274 180.5 L 271 179.5 L 273 183.5 L 270 181.5 L 268.5 176 Z " /><path fill="rgb(186,160,108)" stroke="rgb(186,160,108)" stroke-width="0.6" opacity="1" d="M 223.5 282 L 229.5 289 L 223.5 282 Z " /><path fill="rgb(186,160,108)" stroke="rgb(186,160,108)" stroke-width="0.6" opacity="1" d="M 239.5 287 L 234.5 293 L 233 292.5 L 239.5 287 Z " /><path fill="rgb(186,160,108)" stroke="rgb(186,160,108)" stroke-width="0.6" opacity="1" d="M 198.5 346 L 204.5 353 L 198.5 346 Z " /></svg>