<svg width="627" height="627" preserveAspectRatio="xMidYMid meet" viewBox="0 0 512 512" version="1.1" xmlns="http://www.w3.org/2000/svg" ><path fill="rgb(255,255,255)" stroke="rgb(255,255,255)" stroke-width="0.6" opacity="1" d="M 0 0 L 512 0 L 512 512 L 0 512 L 0 0 Z M 149 120 L 138 124 Q 117 141 113 174 L 107 180 L 99 181 Q 92 182 89 179 L 75 179 L 74 180 Q 68 174 60 172 L 49 175 Q 37 185 33 202 Q 31 215 37 221 L 45 226 L 49 237 L 54 240 L 62 239 L 65 233 L 80 238 L 83 247 L 90 252 Q 98 251 101 245 Q 107 244 106 247 L 88 258 Q 82 259 82 255 L 76 255 L 64 272 Q 63 281 67 286 Q 78 297 99 299 Q 113 300 125 297 L 155 286 L 145 306 L 143 314 L 128 322 L 121 332 L 121 338 L 135 347 L 147 348 L 150 350 Q 171 351 183 341 L 188 333 L 189 324 L 196 311 L 200 311 L 216 319 L 236 324 L 237 328 L 227 333 Q 217 337 217 352 L 233 362 Q 243 361 248 365 Q 266 365 276 357 Q 285 349 288 335 L 290 333 L 317 333 L 343 329 L 337 341 L 338 347 L 342 350 Q 351 351 356 356 L 365 355 L 369 357 Q 387 358 397 350 Q 406 345 408 332 L 407 318 L 431 306 L 446 295 Q 473 272 480 228 L 480 200 L 477 186 Q 471 168 460 156 Q 443 136 415 129 L 402 129 L 397 133 L 398 140 L 414 149 Q 413 156 416 160 Q 419 164 427 164 L 430 170 Q 431 175 428 177 L 428 183 L 432 189 L 432 193 L 426 196 Q 419 199 421 210 L 416 215 L 411 211 Q 400 209 397 215 L 393 208 L 386 201 Q 375 200 369 203 L 365 194 L 356 188 L 342 192 L 338 185 Q 335 179 328 178 Q 316 178 312 185 L 309 182 L 301 174 Q 284 172 281 182 L 268 174 Q 258 174 255 180 L 250 178 L 251 173 Q 252 164 249 161 Q 244 153 234 152 L 227 140 Q 221 131 210 127 Q 191 125 184 134 L 172 133 L 169 130 Q 164 120 149 120 Z M 57 355 L 46 357 Q 42 356 43 359 L 74 359 L 87 361 L 95 364 Q 98 363 97 366 L 90 369 L 86 374 L 95 379 L 105 381 L 126 381 L 127 380 L 151 381 L 181 390 L 196 392 L 214 392 L 232 390 L 286 379 L 320 379 L 347 384 L 369 386 Q 405 386 433 377 L 435 373 L 427 368 L 425 365 L 446 359 L 471 359 L 471 357 L 463 355 L 450 355 L 437 357 L 424 362 L 420 368 L 430 374 L 411 379 L 386 382 L 353 381 L 317 375 L 281 376 L 219 388 L 185 387 L 168 383 L 162 380 L 142 376 L 117 378 L 99 376 L 91 373 L 102 368 L 103 365 L 97 360 L 86 357 L 57 355 Z " /><path fill="rgb(74,147,76)" stroke="rgb(74,147,76)" stroke-width="0.6" opacity="1" d="M 149.5 125 Q 158 125 162 129.5 L 163.5 131 L 167 135.5 L 167.5 138 L 177.5 137 L 180 140.5 L 178 144.5 L 185.5 138 Q 189.9 132.9 198.5 132 L 200.5 132 L 211.5 133 L 223 142.5 Q 228.3 148.7 229 159.5 L 228 161.5 L 229 164 L 232 163.5 L 231 161.5 L 232 161.5 L 232.5 163 L 233.5 161 Q 240.2 169.8 242 182 L 244 180.5 L 243.5 179 L 251 185.5 L 255 194 L 246.5 193 Q 242.9 194.9 243 200.5 Q 244.1 208.9 249.5 213 Q 254.8 213.8 256.5 211 L 259.5 212 L 261 210.5 L 262 202.5 L 260 195.5 L 266.5 193 L 296.5 193 L 308.5 196 L 313.5 195 L 346.5 204 L 381 219 L 382.5 222 L 384.5 222 L 394.5 226 L 411.5 229 L 422.5 226 Q 424 228.5 425.5 225 Q 434.9 221.4 440 213.5 L 446 203.5 L 446 201.5 L 448 192.5 L 450 190.5 L 449 180.5 L 450 178.5 L 442.5 161 L 442 163.5 Q 448.3 173.2 446 191.5 L 442 200.5 L 442 202.5 Q 437.5 213.5 428.5 220 L 421.5 223 L 420 218.5 L 421.5 215 L 422.5 216 L 427 213.5 L 425 205.5 L 427.5 201 L 436 198.5 L 438 187.5 Q 432.8 185.2 433 177.5 Q 436.6 176.1 436 170.5 L 428.5 159 Q 422.3 159.7 420 156.5 L 419 151.5 L 420 148.5 L 407.5 139 L 402 137 L 402.5 134 L 413.5 134 L 421.5 138 L 424.5 137 Q 442.8 144.2 455 157.5 Q 472.7 174.3 475 206.5 L 475 208.5 L 475 221.5 L 472 236.5 L 462 255.5 L 456.5 262 L 453.5 265 L 448.5 271 L 444 273 L 441.5 277 L 420.5 289 L 400.5 295 L 400 293 L 398 291.5 L 395.5 285 L 394 283.5 L 389.5 276 L 389 280.5 L 400 306.5 L 403 330.5 L 399 342 L 382.5 351 L 369.5 352 L 368 346.5 L 372 339 L 367 341.5 L 362.5 351 Q 353.8 352.8 352 347.5 L 355.5 340 L 358 338.5 L 359 336.5 L 356.5 336 L 350 341.5 L 349 346 L 343 344.5 Q 342.3 334.8 348.5 332 L 350 330.5 L 359.5 324 Q 363.7 327.5 372 326 Q 373.3 322.7 368.5 324 Q 358.2 322.8 353 316.5 L 350.5 313 L 348 311.5 Q 339.8 303.2 341 285.5 Q 342.8 274.8 350 269.5 L 348.5 269 Q 336.7 275.7 337 294.5 L 339 300.5 L 337.5 302 L 329.5 303 L 327.5 302 L 326.5 303 L 299.5 303 L 292 300.5 Q 289.7 284.8 279.5 277 L 278 278.5 Q 290 289.5 289 313.5 Q 285.3 337.8 272.5 353 Q 263.8 360.3 247.5 360 L 245 352.5 L 249 350 L 250 346 L 243 350.5 L 241 357 L 232.5 357 L 231 355.5 L 231 350.5 L 237 342 Q 230.9 342.9 228 348.5 L 226.5 352 L 222 349.5 L 223 347.5 L 222 345.5 L 225.5 341 L 227 339.5 L 241 330.5 L 249 310.5 L 244 310 L 241 297.5 L 242 290.5 L 241 286.5 L 242 283 L 240 284.5 L 239 287 L 236.5 288 L 222.5 272 L 222 273.5 L 223 277.5 L 220.5 281 Q 212.2 288.2 198.5 290 L 195.5 289 L 188.5 291 L 188 289 L 181.5 290 L 176 287.5 L 175.5 285 L 171 281.5 L 170 279.5 L 176.5 276 L 186.5 275 L 188.5 275 L 205.5 271 L 216.5 265 L 217 267 Q 220 268.3 219 264.5 L 235 251.5 Q 241.9 243.9 243 230.5 L 242 230.5 Q 237.6 248.1 224.5 257 L 204.5 268 L 183.5 272 L 181 271 L 180.5 273 L 178.5 272 L 175.5 273 L 150.5 282 L 149 281.5 L 147.5 283 Q 131.4 291.9 108.5 294 L 106.5 293 L 97.5 294 L 83.5 291 L 71 282.5 L 69 277.5 L 70 275.5 L 69 273.5 L 72.5 272 L 78.5 276 L 93.5 280 L 94.5 279 L 108.5 279 L 110.5 279 Q 133.5 276 148.5 265 L 150 265.5 L 151.5 264 Q 169 254 182 239.5 L 197.5 219 L 205.5 223 L 206 220.5 L 195.5 214 L 191.5 214 L 186 216.5 L 193 219.5 Q 184.1 231.1 166.5 234 L 164.5 234 L 145.5 233 L 135.5 237 L 133.5 237 Q 123.6 242.6 106.5 241 Q 85 237.5 69.5 228 L 50.5 224 L 41 217.5 Q 36.9 213 38 203.5 L 39 199 L 41 198.5 L 40 195.5 L 51.5 179 L 56.5 177 Q 65.6 177.4 69 183.5 L 69.5 186 Q 76.1 183.1 86.5 184 L 91 185 L 92.5 187 L 94.5 187 L 99 190.5 L 102 201.5 L 101.5 203 L 103 201.5 L 104 193.5 L 100 187.5 L 101 185 Q 117.8 183.3 127.5 190 L 125.5 187 L 124 185.5 L 123.5 184 L 134.5 183 L 148 187 L 148.5 189 Q 151.5 187.5 148.5 186 L 145 183.5 L 143 180.5 Q 150.5 174 149 158.5 L 143.5 150 L 134.5 149 L 127 154 L 121 168.5 L 123 178.5 L 120.5 182 L 117.5 183 L 114 181.5 Q 113 178.5 118 175.5 Q 119.5 151 133.5 139 L 143.5 137 L 146.5 138 L 151 139 L 147.5 133 L 140 131.5 L 140.5 130 L 139 129.5 L 149.5 125 Z M 199 141 L 194 143 Q 192 146 191 144 L 189 147 L 195 146 L 202 146 L 210 150 L 214 157 L 217 158 L 214 149 Q 210 141 199 141 Z M 194 156 L 183 162 L 175 175 Q 173 190 180 196 L 182 197 L 185 201 L 199 198 L 207 199 L 211 199 L 205 196 L 211 182 Q 212 170 208 165 Q 204 157 194 156 Z M 51 185 L 48 190 L 49 195 L 52 196 L 55 191 L 54 187 L 51 185 Z M 84 194 L 82 195 L 77 201 Q 76 205 80 206 L 87 204 L 90 200 L 89 195 L 84 194 Z M 283 210 L 282 211 L 279 211 L 278 213 L 273 220 L 274 223 L 284 229 Q 295 231 300 227 L 301 225 L 300 218 Q 297 208 283 210 Z M 321 215 L 314 218 L 309 225 L 311 230 L 320 234 Q 326 232 325 236 Q 330 238 329 234 L 334 235 L 338 230 L 336 223 Q 332 215 321 215 Z M 354 223 L 353 225 L 348 229 Q 347 237 353 238 L 354 240 L 356 239 L 364 241 L 372 239 L 373 232 L 366 224 L 356 223 L 354 223 Z M 442 223 Q 436 225 436 233 L 441 235 L 443 235 L 448 231 L 450 229 L 450 226 Q 448 222 442 223 Z M 392 235 L 387 237 L 385 242 L 386 245 Q 390 249 399 250 Q 405 250 407 246 L 406 241 Q 402 234 392 235 Z M 420 236 L 418 238 Q 414 240 415 246 L 418 248 L 427 249 L 428 246 L 431 245 L 433 240 Q 430 235 422 236 L 420 236 Z " /><path fill="rgb(74,147,76)" stroke="rgb(74,147,76)" stroke-width="0.6" opacity="1" d="M 247.5 195 L 251 196.5 L 252.5 198 Q 257 200 255 208.5 L 251.5 211 L 249 210 L 246 203.5 L 246 196.5 L 247.5 195 Z " /><path fill="rgb(74,147,76)" stroke="rgb(74,147,76)" stroke-width="0.6" opacity="1" d="M 402 216 L 409.5 216 L 410 217.5 L 415 221.5 L 414 223.5 L 414.5 225 L 408.5 224 L 404.5 225 L 396 222.5 L 399.5 218 Q 403.3 219 402 216 Z " /><path fill="rgb(74,147,76)" stroke="rgb(74,147,76)" stroke-width="0.6" opacity="1" d="M 358.5 225 Q 366.8 225.8 370 231.5 L 371 235.5 L 368 236.5 L 366.5 238 L 363.5 237 L 359.5 238 L 350 232.5 Q 349.3 226.8 353.5 226 L 358.5 225 Z " /><path fill="rgb(74,147,76)" stroke="rgb(74,147,76)" stroke-width="0.6" opacity="1" d="M 52.5 227 L 60 229 L 61 231.5 L 58.5 235 L 55.5 236 L 51 228.5 L 52.5 227 Z " /><path fill="rgb(74,147,76)" stroke="rgb(74,147,76)" stroke-width="0.6" opacity="1" d="M 449.5 272 L 452 279.5 L 442.5 291 L 433.5 297 L 431 296.5 Q 434.7 292.7 434 284.5 L 437.5 281 L 445.5 275 L 448 275 L 449.5 272 Z " /><path fill="rgb(74,147,76)" stroke="rgb(74,147,76)" stroke-width="0.6" opacity="1" d="M 429.5 286 Q 434.1 284.6 432 290.5 L 430 297.5 L 424.5 304 L 422.5 305 Q 420.5 302 418.5 307 L 408.5 310 L 408 307.5 L 413.5 293 L 429.5 286 Z " /><path fill="rgb(74,147,76)" stroke="rgb(74,147,76)" stroke-width="0.6" opacity="1" d="M 408.5 294 L 410 296.5 L 405.5 307 L 403 306.5 L 400 298.5 L 402 297.5 L 401.5 296 L 408.5 294 Z " /><path fill="rgb(10,10,11)" stroke="rgb(10,10,11)" stroke-width="0.6" opacity="1" d="M 149.5 121 Q 162.9 121.1 168 129.5 L 171.5 134 L 183.5 135 Q 188.5 129.5 197.5 128 L 200.5 129 L 204.5 128 L 206.5 129 L 208.5 128 Q 219.4 130.6 225 138.5 L 233.5 153 Q 243.6 153.9 248 160.5 L 250 172.5 L 248 176.5 L 252.5 182 Q 256.7 174.2 270.5 176 L 279.5 184 Q 284.1 173.6 300.5 175 L 308 181.5 L 311.5 187 Q 316.1 179.6 327.5 179 L 337 184.5 L 341.5 194 L 346.5 191 L 358.5 190 L 366 196.5 L 369.5 205 L 375.5 202 L 379.5 202 L 381.5 203 L 384.5 202 L 391 206.5 L 395.5 216 Q 398.9 210.9 408.5 212 Q 414.4 212.5 416.5 217 L 422 209.5 L 422 201.5 L 426.5 197 L 433 194.5 L 434 188.5 Q 427.5 186 430 174.5 L 432 170.5 L 426.5 163 Q 418.4 163.1 416 157.5 L 415 152.5 L 416 150.5 L 398 137.5 Q 397 131 401.5 130 L 413.5 130 L 427.5 134 Q 448.9 142.6 462 159.5 Q 481.7 181.3 479 225.5 Q 473.5 269 447.5 292 L 430.5 305 L 406 316.5 L 407 328.5 Q 406.2 342.2 397.5 348 Q 387.7 356.7 368.5 356 L 363.5 354 L 356.5 355 L 347.5 350 L 343.5 350 L 339 346.5 L 340 335.5 L 346 327 L 321.5 331 L 317.5 330 L 313.5 332 L 288.5 332 L 287 333.5 Q 284.3 346.8 276.5 355 Q 269.8 361.3 258.5 363 L 256.5 362 Q 254.2 365.2 247.5 364 Q 243.4 359.1 232.5 361 L 219 352.5 L 218 344.5 L 226.5 334 L 238 327.5 L 239 325.5 L 226.5 320 L 224.5 321 L 197.5 309 L 188 323.5 L 185 336.5 L 178.5 343 L 158.5 349 L 151.5 348 L 149.5 349 L 146.5 347 L 134.5 346 L 123 338.5 L 122 332.5 Q 124.1 324.6 130.5 321 L 144 313.5 L 147 303.5 L 157 284 L 126.5 295 Q 125 292.5 123.5 296 Q 112.9 298.9 98.5 298 L 78.5 293 L 67 283.5 L 65 278.5 L 66 274.5 L 65 272.5 L 68.5 267 L 72 264.5 Q 70.8 258.3 74.5 257 L 79.5 256 L 86.5 260 L 109 245.5 L 100.5 243 L 94.5 250 Q 85.8 251.8 84 246.5 Q 84.6 238.4 79.5 236 L 66.5 231 L 60.5 238 L 54.5 239 L 50 235.5 L 46.5 226 L 37 218.5 L 34 211.5 L 34 202.5 Q 37.6 186.6 47.5 177 L 53.5 174 Q 55 176.5 56.5 173 L 61.5 175 L 63.5 174 L 71.5 181 L 77.5 181 L 87.5 180 L 95.5 183 Q 99.5 180 107.5 181 L 110 178.5 L 111.5 176 L 114 174.5 L 116 167.5 L 115 165.5 L 127 136.5 L 136.5 126 Q 139.7 122.2 147.5 123 L 149.5 121 Z M 147 124 L 140 128 L 134 135 L 139 133 L 148 134 L 149 137 L 147 136 Q 137 135 133 139 L 123 151 L 119 166 L 117 168 L 117 176 L 112 181 Q 114 185 122 184 L 121 186 L 114 184 L 101 184 L 99 186 L 103 193 L 101 194 L 100 191 Q 96 184 87 183 Q 77 182 72 185 L 65 178 L 63 178 Q 61 174 60 177 L 56 176 L 51 179 Q 41 188 37 204 Q 35 214 40 218 L 52 226 L 51 233 L 57 236 L 58 237 L 62 233 L 61 227 L 89 237 L 88 239 L 85 240 L 87 246 L 91 248 L 97 244 L 96 241 L 94 239 L 109 242 Q 130 243 143 235 Q 144 238 141 237 L 139 240 L 137 240 L 117 244 L 86 265 L 84 266 L 82 261 L 78 258 L 73 264 L 74 266 L 73 269 L 79 273 L 82 272 L 85 270 L 83 273 L 85 275 Q 88 274 87 277 Q 77 276 71 270 L 67 275 L 70 283 Q 78 292 93 294 L 126 293 L 128 291 L 138 289 L 172 275 L 173 277 L 169 279 L 171 283 L 179 289 L 180 292 L 200 307 L 228 319 L 241 321 L 243 317 L 243 313 L 238 302 L 239 288 L 240 290 L 241 304 L 246 313 L 240 331 L 230 336 L 222 344 L 221 350 L 227 353 L 234 344 L 235 345 Q 229 346 230 356 Q 233 359 241 358 L 243 352 L 247 348 L 248 349 Q 243 350 244 359 L 248 361 L 258 361 L 272 355 L 280 345 L 286 330 L 290 314 L 290 302 L 286 289 L 286 287 Q 291 292 292 302 Q 293 316 289 325 L 291 329 L 302 328 L 304 329 L 316 328 L 318 329 L 330 327 L 332 325 L 334 326 Q 346 326 353 321 L 351 319 Q 340 311 338 295 Q 336 286 340 287 Q 339 302 346 311 Q 351 319 362 323 Q 365 322 364 325 L 361 324 L 358 324 L 352 328 Q 343 332 342 345 Q 343 348 349 347 L 353 340 L 356 338 L 352 343 L 352 349 L 355 351 L 361 352 L 365 350 Q 364 346 367 347 Q 366 352 370 353 Q 385 354 394 347 Q 401 343 403 335 Q 404 307 394 291 L 395 287 Q 401 294 402 307 L 407 312 L 421 307 L 443 292 L 451 282 L 454 280 Q 468 263 474 238 L 473 236 L 476 223 L 476 203 L 473 188 Q 467 170 456 158 Q 445 145 429 138 L 414 133 L 404 133 L 401 137 L 419 149 L 418 153 L 419 156 Q 421 161 429 160 L 435 171 L 435 174 L 431 179 L 437 188 L 437 191 Q 433 192 436 194 L 435 198 Q 434 201 429 200 L 425 204 L 425 213 L 423 213 Q 418 216 419 224 L 423 224 L 433 218 L 439 210 L 442 208 L 439 214 Q 431 225 414 228 Q 407 230 408 226 L 417 225 L 416 222 L 408 214 Q 399 216 395 222 L 401 225 Q 405 224 404 227 L 387 222 L 354 206 L 326 197 Q 322 198 323 195 L 334 198 L 338 197 L 335 188 Q 333 183 327 182 Q 319 183 316 187 Q 311 188 312 193 L 321 194 L 322 196 L 306 194 L 308 191 L 304 182 L 300 178 L 290 179 L 282 188 L 283 190 L 294 190 L 294 192 L 272 192 L 271 190 Q 276 191 278 189 L 275 184 L 267 178 Q 258 179 255 186 L 260 193 L 259 195 L 260 197 Q 261 201 258 200 Q 257 190 250 184 L 241 176 L 242 173 L 245 175 L 248 171 Q 249 165 246 164 L 238 157 L 235 159 L 237 164 L 238 165 L 233 159 L 231 157 L 224 143 L 217 135 L 207 130 L 205 131 L 201 130 L 186 137 Q 183 142 181 139 L 181 137 L 170 137 L 166 133 L 157 125 L 147 124 Z M 351 192 L 341 199 L 344 201 L 363 208 L 365 208 Q 366 200 362 197 L 358 193 L 351 192 Z M 381 204 L 371 208 L 369 211 L 390 221 L 392 220 L 390 211 L 381 204 Z M 166 280 L 155 295 L 147 311 L 147 316 L 131 325 L 125 332 L 125 336 L 131 339 L 137 330 L 139 331 Q 133 332 134 341 L 140 344 L 146 342 L 152 347 L 158 347 L 161 345 L 172 343 L 180 338 L 184 333 L 184 325 L 194 307 L 182 297 L 169 283 L 166 280 Z " /><path fill="rgb(10,10,11)" stroke="rgb(10,10,11)" stroke-width="0.6" opacity="1" d="M 196.5 142 Q 209.7 140.3 213 148.5 L 215 154 L 203.5 146 L 195.5 145 L 192 146 L 193.5 144 L 196.5 142 Z " /><path fill="rgb(10,10,11)" stroke="rgb(10,10,11)" stroke-width="0.6" opacity="1" d="M 134.5 150 Q 138.3 149 137 152 Q 131.8 152 129.5 156 L 129 154.5 L 134.5 150 Z " /><path fill="rgb(10,10,11)" stroke="rgb(10,10,11)" stroke-width="0.6" opacity="1" d="M 191.5 158 Q 204 156.5 207 164.5 L 209 169.5 L 207 168.5 L 203.5 163 Q 200 158.5 190.5 160 L 179.5 169 L 180 167.5 L 182 163 L 191.5 158 Z " /><path fill="rgb(10,10,11)" stroke="rgb(10,10,11)" stroke-width="0.6" opacity="1" d="M 138.5 160 L 144 162.5 L 143.5 164 L 140.5 163 L 137 168.5 L 139.5 172 Q 144.3 172.8 145 169.5 L 146.5 165 L 148 168.5 L 142 183 L 130.5 183 L 129 181.5 L 130 168.5 L 135.5 161 L 138.5 160 Z " /><path fill="rgb(10,10,11)" stroke="rgb(10,10,11)" stroke-width="0.6" opacity="1" d="M 194.5 170 Q 202.8 168.7 205 173.5 L 203.5 175 L 199.5 174 Q 195.2 174.8 196 180.5 L 198.5 184 Q 204 185 205 181.5 L 206.5 180 L 210 182.5 L 202.5 197 L 190 199 L 186 190.5 L 186 180.5 L 192.5 171 L 194.5 170 Z " /><path fill="rgb(10,10,11)" stroke="rgb(10,10,11)" stroke-width="0.6" opacity="1" d="M 51.5 186 Q 55 187 54 192.5 Q 51.5 197.5 49 192.5 Q 48 187 51.5 186 Z " /><path fill="rgb(10,10,11)" stroke="rgb(10,10,11)" stroke-width="0.6" opacity="1" d="M 83.5 195 L 89 196.5 Q 90 202 86.5 203 Q 84.8 205.8 79.5 205 L 78 199.5 L 83.5 195 Z " /><path fill="rgb(10,10,11)" stroke="rgb(10,10,11)" stroke-width="0.6" opacity="1" d="M 194.5 216 L 201 218.5 L 198.5 219 L 196.5 218 Q 186.6 235.1 172.5 248 Q 159.4 260.4 141.5 268 L 142.5 266 Q 166.7 254.2 183 234.5 L 185 231.5 L 182.5 231 L 169 236 Q 167.8 233 171.5 234 Q 184.6 230.6 192 221.5 L 194 218.5 L 194.5 216 Z " /><path fill="rgb(10,10,11)" stroke="rgb(10,10,11)" stroke-width="0.6" opacity="1" d="M 145 234 L 166 235 L 165.5 237 L 154.5 237 L 151 238 L 151 236 L 145 236 L 145 234 Z " /><path fill="rgb(10,10,11)" stroke="rgb(10,10,11)" stroke-width="0.6" opacity="1" d="M 150 241 L 152 242.5 L 146.5 248 L 142.5 248 L 139 243.5 L 142.5 246 Q 149 247 150 242.5 L 150 241 Z " /><path fill="rgb(10,10,11)" stroke="rgb(10,10,11)" stroke-width="0.6" opacity="1" d="M 237.5 244 L 237 245.5 L 228.5 257 L 217.5 265 L 212.5 266 L 213.5 264 Q 227 258.5 235 247.5 L 237.5 244 Z " /><path fill="rgb(10,10,11)" stroke="rgb(10,10,11)" stroke-width="0.6" opacity="1" d="M 124.5 260 L 131 263.5 L 132 266.5 L 126.5 262 L 122 263 L 120.5 265 L 121 263.5 L 122.5 262 L 124.5 260 Z " /><path fill="rgb(10,10,11)" stroke="rgb(10,10,11)" stroke-width="0.6" opacity="1" d="M 206.5 267 L 209 267.5 L 201 271 L 202.5 269 L 206.5 267 Z " /><path fill="rgb(10,10,11)" stroke="rgb(10,10,11)" stroke-width="0.6" opacity="1" d="M 137.5 268 L 140 268.5 Q 138.1 272.6 131.5 272 L 133.5 269 L 135.5 269 L 137.5 268 Z " /><path fill="rgb(10,10,11)" stroke="rgb(10,10,11)" stroke-width="0.6" opacity="1" d="M 149 334 L 151 334.5 Q 147 335.9 148 341 Q 145 342.3 146 338.5 L 149 334 Z " /><path fill="rgb(10,10,11)" stroke="rgb(10,10,11)" stroke-width="0.6" opacity="1" d="M 427.5 361 L 429 363 L 423 366.5 L 424 368.5 L 422.5 368 Q 419.9 368.8 421 365.5 L 427.5 361 Z " /><path fill="rgb(10,10,11)" stroke="rgb(10,10,11)" stroke-width="0.6" opacity="1" d="M 96.5 362 L 102 364 L 100.5 367 L 99 366.5 L 98.5 364 L 96.5 362 Z " /><path fill="rgb(10,10,11)" stroke="rgb(10,10,11)" stroke-width="0.6" opacity="1" d="M 90.5 370 L 90 371.5 L 91.5 375 L 97 376 L 95.5 378 L 88 373.5 L 90.5 370 Z " /><path fill="rgb(10,10,11)" stroke="rgb(10,10,11)" stroke-width="0.6" opacity="1" d="M 199 389 L 209.5 389 L 210 391 L 199.5 391 L 199 389 Z " /><path fill="rgb(139,178,77)" stroke="rgb(139,178,77)" stroke-width="0.6" opacity="1" d="M 295.5 178 L 304 182.5 L 307 188.5 L 305 189.5 L 305.5 191 Q 296.3 188 284 189 L 283 186.5 Q 286.6 179.6 295.5 178 Z " /><path fill="rgb(139,178,77)" stroke="rgb(139,178,77)" stroke-width="0.6" opacity="1" d="M 349.5 194 Q 358.9 192.6 362 197.5 L 364 207 L 343 200 L 345.5 196 L 349.5 194 Z " /><path fill="rgb(139,178,77)" stroke="rgb(139,178,77)" stroke-width="0.6" opacity="1" d="M 443.5 225 L 447 226.5 L 442.5 233 L 438 232 L 441.5 226 L 443.5 225 Z " /><path fill="rgb(139,178,77)" stroke="rgb(139,178,77)" stroke-width="0.6" opacity="1" d="M 143.5 237 Q 148.8 235.8 150 238.5 L 146.5 245 L 144.5 246 L 141 243.5 L 140 238 L 143.5 237 Z " /><path fill="rgb(139,178,77)" stroke="rgb(139,178,77)" stroke-width="0.6" opacity="1" d="M 394.5 237 Q 401.8 237.3 404 242.5 L 401.5 247 Q 391.1 248.4 388 242.5 L 390.5 238 L 394.5 237 Z " /><path fill="rgb(139,178,77)" stroke="rgb(139,178,77)" stroke-width="0.6" opacity="1" d="M 77.5 260 L 82 262.5 L 84 266.5 L 81.5 271 L 77.5 272 Q 73.3 270.3 75 262.5 L 77.5 260 Z " /><path fill="rgb(139,178,77)" stroke="rgb(139,178,77)" stroke-width="0.6" opacity="1" d="M 165.5 281 L 168 282.5 L 181.5 298 L 193 306.5 L 184 322.5 Q 184.5 333.5 178.5 338 Q 168.6 345.6 150.5 345 L 148 340.5 L 152.5 334 L 155 332.5 L 152.5 331 L 147 335.5 L 142.5 343 Q 136.3 344.3 135 340.5 L 136 334.5 L 142 327 L 134 331.5 L 129.5 338 L 126 335.5 L 127 330.5 L 134.5 323 L 147 316.5 Q 152.9 295.4 165.5 281 Z " /><path fill="rgb(139,178,77)" stroke="rgb(139,178,77)" stroke-width="0.6" opacity="1" d="M 236.5 302 Q 239.1 301.2 238 304.5 L 243 314.5 L 239.5 320 L 217 313.5 L 217.5 311 Q 230.8 310.3 236.5 302 Z " /><path fill="rgb(139,178,77)" stroke="rgb(139,178,77)" stroke-width="0.6" opacity="1" d="M 330.5 304 Q 338 302 340 305.5 Q 338.9 319.9 329.5 326 L 307.5 328 L 307.5 326 L 306 325.5 L 313 315.5 L 316.5 305 L 329.5 305 L 330.5 304 Z " /><path fill="rgb(130,93,55)" stroke="rgb(130,93,55)" stroke-width="0.6" opacity="1" d="M 238.5 158 L 245 162 L 247 169.5 L 246 173 L 243.5 174 L 237 160.5 L 239 159.5 L 238.5 158 Z " /><path fill="rgb(130,93,55)" stroke="rgb(130,93,55)" stroke-width="0.6" opacity="1" d="M 265.5 179 Q 272.1 179.9 275 184.5 L 277 189 L 259.5 191 Q 256 190 257 184.5 L 258 182 L 265.5 179 Z " /><path fill="rgb(130,93,55)" stroke="rgb(130,93,55)" stroke-width="0.6" opacity="1" d="M 323.5 183 Q 332.4 182.6 335 188.5 L 337 196.5 L 334.5 197 L 320.5 193 L 314.5 193 L 313 191.5 L 317.5 186 L 323.5 183 Z " /><path fill="rgb(130,93,55)" stroke="rgb(130,93,55)" stroke-width="0.6" opacity="1" d="M 285.5 212 Q 293.9 212.1 297 217.5 L 299 223.5 Q 296 229 285.5 227 L 276 221.5 Q 275 215 279.5 214 L 285.5 212 Z " /><path fill="rgb(130,93,55)" stroke="rgb(130,93,55)" stroke-width="0.6" opacity="1" d="M 179.5 233 L 180 235.5 L 178.5 237 L 167.5 249 L 164.5 251 L 144.5 265 L 143 264.5 L 142.5 266 Q 141 263.5 139.5 267 L 134.5 269 L 129.5 261 L 123.5 260 L 119 263.5 L 115.5 275 L 92.5 276 L 85 273.5 L 88 262 Q 105 255.8 117.5 244 L 124.5 244 L 135.5 240 L 141.5 248 Q 150.5 249.5 152 243.5 L 153.5 238 L 157.5 239 L 161.5 238 L 163.5 238 L 176.5 234 Q 178 236.5 179.5 233 Z " /><path fill="rgb(130,93,55)" stroke="rgb(130,93,55)" stroke-width="0.6" opacity="1" d="M 87.5 239 L 95 241 L 96 243.5 Q 95.3 247.8 89.5 247 L 86 240.5 L 87.5 239 Z " /><path fill="rgb(130,93,55)" stroke="rgb(130,93,55)" stroke-width="0.6" opacity="1" d="M 465 252 L 469 252.5 L 455.5 277 L 453 276.5 L 452 270.5 L 455 265 L 458 263.5 L 465 252 Z " /><path fill="rgb(130,93,55)" stroke="rgb(130,93,55)" stroke-width="0.6" opacity="1" d="M 123.5 263 L 128 263 L 130 266.5 L 131 270.5 L 121.5 274 L 120 269.5 L 123.5 263 Z " /><path fill="rgb(130,93,55)" stroke="rgb(130,93,55)" stroke-width="0.6" opacity="1" d="M 294.5 303 L 311.5 305 L 314 306.5 L 313 308.5 L 313 310.5 L 304 327 L 290.5 328 L 290 325.5 L 293 311.5 L 292.5 310 L 294 309.5 L 294.5 303 Z " /><path fill="rgb(34,33,35)" stroke="rgb(34,33,35)" stroke-width="0.6" opacity="1" d="M 452.5 149 L 457.5 155 L 452.5 149 Z " /><path fill="rgb(34,33,35)" stroke="rgb(34,33,35)" stroke-width="0.6" opacity="1" d="M 142.5 150 L 144.5 154 L 147 154.5 L 149 161 L 147 159.5 L 146 157.5 L 146.5 156 L 142 152.5 L 142.5 150 Z " /><path fill="rgb(34,33,35)" stroke="rgb(34,33,35)" stroke-width="0.6" opacity="1" d="M 450.5 152 L 455.5 158 L 450.5 152 Z " /><path fill="rgb(34,33,35)" stroke="rgb(34,33,35)" stroke-width="0.6" opacity="1" d="M 128.5 155 L 129 157.5 L 126 159.5 L 125.5 162 L 125 159.5 L 128.5 155 Z " /><path fill="rgb(34,33,35)" stroke="rgb(34,33,35)" stroke-width="0.6" opacity="1" d="M 143.5 161 L 145 164 L 149 165.5 L 148.5 167 L 146 165.5 L 145.5 167 L 143.5 161 Z " /><path fill="rgb(34,33,35)" stroke="rgb(34,33,35)" stroke-width="0.6" opacity="1" d="M 209.5 169 L 211 180.5 L 208.5 181 L 205 180 L 204 175.5 L 206 174.5 L 207 180 Q 210.8 181.1 209 172.5 L 208 170.5 L 209.5 169 Z " /><path fill="rgb(34,33,35)" stroke="rgb(34,33,35)" stroke-width="0.6" opacity="1" d="M 124.5 180 L 124 181.5 L 125 183.5 L 122 184 L 121.5 186 L 121 184.5 L 121.5 183 L 120 182.5 L 124.5 180 Z " /><path fill="rgb(34,33,35)" stroke="rgb(34,33,35)" stroke-width="0.6" opacity="1" d="M 269.5 190 L 271 192 L 274.5 192 L 274.5 193 L 269.5 192 L 265 193 Q 263.7 189.7 268.5 191 L 269.5 190 Z " /><path fill="rgb(34,33,35)" stroke="rgb(34,33,35)" stroke-width="0.6" opacity="1" d="M 245 205 Q 248 203.8 247 207.5 L 252 211 L 251.5 213 L 247 209.5 L 245 205 Z " /><path fill="rgb(34,33,35)" stroke="rgb(34,33,35)" stroke-width="0.6" opacity="1" d="M 293.5 213 L 300 218.5 L 301 223 Q 298 224.3 299 220.5 L 293.5 213 Z " /><path fill="rgb(34,33,35)" stroke="rgb(34,33,35)" stroke-width="0.6" opacity="1" d="M 319.5 216 Q 328.6 214.9 332 219.5 L 329.5 220 Q 326.6 216.4 318.5 218 L 315 219 L 312.5 223 L 312 220.5 L 319.5 216 Z " /><path fill="rgb(34,33,35)" stroke="rgb(34,33,35)" stroke-width="0.6" opacity="1" d="M 200.5 217 L 206 221.5 L 204.5 222 L 200 219.5 L 200.5 217 Z " /><path fill="rgb(34,33,35)" stroke="rgb(34,33,35)" stroke-width="0.6" opacity="1" d="M 136.5 240 L 139 240.5 L 140 242.5 L 139 244.5 L 140.5 247 L 136.5 240 Z " /><path fill="rgb(34,33,35)" stroke="rgb(34,33,35)" stroke-width="0.6" opacity="1" d="M 108.5 241 L 119 241.5 L 108.5 242 L 108.5 241 Z " /><path fill="rgb(34,33,35)" stroke="rgb(34,33,35)" stroke-width="0.6" opacity="1" d="M 131.5 264 L 135 269.5 Q 133 267.8 131 271.5 L 133 272.5 L 119.5 277 L 120 275.5 L 118 274 L 118 270 Q 121 268.8 120 272.5 L 124.5 274 L 132 269.5 L 130 266.5 L 131.5 264 Z " /><path fill="rgb(34,33,35)" stroke="rgb(34,33,35)" stroke-width="0.6" opacity="1" d="M 346.5 271 L 347 272.5 L 342.5 280 L 340 279.5 L 346.5 271 Z " /><path fill="rgb(34,33,35)" stroke="rgb(34,33,35)" stroke-width="0.6" opacity="1" d="M 98 276 L 104.5 276 L 105 277.5 L 105.5 279 L 97 278.5 L 98 276 Z " /><path fill="rgb(34,33,35)" stroke="rgb(34,33,35)" stroke-width="0.6" opacity="1" d="M 150.5 333 L 153 333.5 L 148.5 339 L 147 336.5 L 151 334.5 L 150.5 333 Z " /><path fill="rgb(34,33,35)" stroke="rgb(34,33,35)" stroke-width="0.6" opacity="1" d="M 354.5 337 L 353 339.5 L 354 341.5 L 352.5 344 L 351 341.5 L 354.5 337 Z " /><path fill="rgb(34,33,35)" stroke="rgb(34,33,35)" stroke-width="0.6" opacity="1" d="M 453 356 L 464.5 356 L 465 358 L 453.5 358 L 453 356 Z " /><path fill="rgb(34,33,35)" stroke="rgb(34,33,35)" stroke-width="0.6" opacity="1" d="M 89.5 359 L 97 361.5 L 94.5 363 L 89 361 L 89.5 359 Z " /><path fill="rgb(34,33,35)" stroke="rgb(34,33,35)" stroke-width="0.6" opacity="1" d="M 131 377 L 140.5 377 L 141 379 L 131.5 379 L 131 377 Z " /><path fill="rgb(34,33,35)" stroke="rgb(34,33,35)" stroke-width="0.6" opacity="1" d="M 161.5 382 L 176 386.5 L 172.5 387 L 162.5 384 L 161.5 382 Z " /><path fill="rgb(34,33,35)" stroke="rgb(34,33,35)" stroke-width="0.6" opacity="1" d="M 367 383 L 379.5 383 L 380 385 L 367.5 385 L 367 383 Z " /><path fill="rgb(235,194,54)" stroke="rgb(235,194,54)" stroke-width="0.6" opacity="1" d="M 137.5 152 Q 143.1 152.5 145 156.5 L 146 160.5 Q 144.3 163.8 142.5 160 L 138.5 159 L 131 164.5 Q 127.7 169.2 129 178.5 L 127.5 180 L 125 177.5 L 125 166.5 Q 126.8 158.3 132.5 154 L 137.5 152 Z " /><path fill="rgb(235,194,54)" stroke="rgb(235,194,54)" stroke-width="0.6" opacity="1" d="M 190.5 161 Q 203.4 159.1 206 167.5 L 208 174 L 202.5 170 L 195.5 169 L 187 175.5 Q 183.6 180.6 185 190.5 L 189 196.5 L 186.5 198 L 180 192.5 L 177 180.5 Q 178.4 168.4 186.5 163 L 190.5 161 Z " /><path fill="rgb(235,194,54)" stroke="rgb(235,194,54)" stroke-width="0.6" opacity="1" d="M 140.5 164 L 144 165.5 L 142.5 171 L 138 168.5 L 140.5 164 Z " /><path fill="rgb(235,194,54)" stroke="rgb(235,194,54)" stroke-width="0.6" opacity="1" d="M 199.5 175 Q 204.3 174.3 205 177.5 L 201.5 184 L 197 180.5 Q 196.3 175.8 199.5 175 Z " /><path fill="rgb(235,194,54)" stroke="rgb(235,194,54)" stroke-width="0.6" opacity="1" d="M 376.5 206 Q 386.6 204.4 389 210.5 L 391 218.5 L 388.5 219 L 371 210.5 L 372.5 208 L 376.5 206 Z " /><path fill="rgb(235,194,54)" stroke="rgb(235,194,54)" stroke-width="0.6" opacity="1" d="M 320.5 218 Q 330.6 217.9 334 224.5 L 335 229.5 Q 331.8 233.3 323.5 232 L 313 226.5 L 315.5 220 L 320.5 218 Z " /><path fill="rgb(235,194,54)" stroke="rgb(235,194,54)" stroke-width="0.6" opacity="1" d="M 422.5 238 Q 428 237 429 240.5 L 426.5 245 L 419.5 246 L 417 242.5 L 422.5 238 Z " /><path fill="rgb(235,194,54)" stroke="rgb(235,194,54)" stroke-width="0.6" opacity="1" d="M 224.5 280 L 229 282.5 L 232.5 287 L 237 290.5 Q 239.3 299.8 234.5 302 Q 226.1 309.6 210.5 310 Q 193.9 304.6 183 293.5 Q 182.1 290.1 187.5 292 L 195.5 293 Q 214.4 290.9 224.5 280 Z " /><path fill="rgb(235,194,54)" stroke="rgb(235,194,54)" stroke-width="0.6" opacity="1" d="M 341.5 311 L 346 314.5 L 351 322 L 336 325 L 336 321.5 L 341.5 311 Z " /><path fill="rgb(60,61,59)" stroke="rgb(60,61,59)" stroke-width="0.6" opacity="1" d="M 177.5 170 L 179 172.5 L 177 178 L 175 177.5 L 177.5 170 Z " /><path fill="rgb(60,61,59)" stroke="rgb(60,61,59)" stroke-width="0.6" opacity="1" d="M 176.5 187 L 180 192.5 L 179.5 195 Q 174.7 192.3 176.5 187 Z " /><path fill="rgb(60,61,59)" stroke="rgb(60,61,59)" stroke-width="0.6" opacity="1" d="M 275.5 192 L 288 192.5 L 275.5 193 L 275.5 192 Z " /><path fill="rgb(60,61,59)" stroke="rgb(60,61,59)" stroke-width="0.6" opacity="1" d="M 247.5 193 L 251 194.5 L 246 196.5 L 244 198 L 247.5 193 Z " /><path fill="rgb(60,61,59)" stroke="rgb(60,61,59)" stroke-width="0.6" opacity="1" d="M 255 207 Q 258 206 257 209 L 255 209.5 Q 257.8 211.3 253.5 213 L 252 211.5 L 255 207 Z " /><path fill="rgb(60,61,59)" stroke="rgb(60,61,59)" stroke-width="0.6" opacity="1" d="M 284.5 210 Q 289.3 208.7 288 212 L 282.5 213 L 281 212.5 L 280.5 214 L 278 213.5 L 284.5 210 Z " /><path fill="rgb(60,61,59)" stroke="rgb(60,61,59)" stroke-width="0.6" opacity="1" d="M 290 211 L 299 216.5 L 295.5 214 L 293.5 213 L 292 213.5 L 291.5 212 L 290 212.5 L 290 211 Z " /><path fill="rgb(60,61,59)" stroke="rgb(60,61,59)" stroke-width="0.6" opacity="1" d="M 274 217 Q 277.7 215.7 276 221.5 L 280 224.5 L 277.5 226 Q 272.9 223.7 274 217 Z " /><path fill="rgb(60,61,59)" stroke="rgb(60,61,59)" stroke-width="0.6" opacity="1" d="M 356.5 223 L 357 225 L 350 229.5 L 350 232.5 L 353.5 237 L 355 236.5 L 353.5 238 L 351.5 235 L 349 234.5 L 349.5 233 Q 346.1 233.8 348 229 L 350 228.5 L 349.5 227 L 352 226.5 L 351.5 225 L 353 225.5 Q 352.2 222.9 355.5 224 L 356.5 223 Z " /><path fill="rgb(60,61,59)" stroke="rgb(60,61,59)" stroke-width="0.6" opacity="1" d="M 337.5 226 L 338 228.5 L 334.5 233 L 333 231.5 L 336 230.5 L 335 227 L 337.5 226 Z " /><path fill="rgb(60,61,59)" stroke="rgb(60,61,59)" stroke-width="0.6" opacity="1" d="M 421.5 236 Q 428.5 234.5 430 238.5 L 429.5 240 Q 427.4 236.1 420 237.5 L 421.5 236 Z " /><path fill="rgb(60,61,59)" stroke="rgb(60,61,59)" stroke-width="0.6" opacity="1" d="M 240.5 237 L 241 240 L 239 240.5 L 239.5 242 L 238 242.5 L 239 244.5 L 238 244.5 L 237 242.5 L 240.5 237 Z " /><path fill="rgb(60,61,59)" stroke="rgb(60,61,59)" stroke-width="0.6" opacity="1" d="M 405.5 242 L 407 244.5 L 405.5 247 L 403 247.5 L 401 249 L 402.5 247 L 405.5 242 Z " /><path fill="rgb(60,61,59)" stroke="rgb(60,61,59)" stroke-width="0.6" opacity="1" d="M 301.5 327 L 311 328.5 L 304.5 329 L 301.5 327 Z " /><path fill="rgb(75,95,72)" stroke="rgb(75,95,72)" stroke-width="0.6" opacity="1" d="M 132.5 150 L 127.5 156 L 132.5 150 Z " /><path fill="rgb(75,95,72)" stroke="rgb(75,95,72)" stroke-width="0.6" opacity="1" d="M 442 162 L 444 163.5 L 447 169.5 L 444 169.5 L 442 162 Z " /><path fill="rgb(75,95,72)" stroke="rgb(75,95,72)" stroke-width="0.6" opacity="1" d="M 436.5 212 L 430.5 219 L 436.5 212 Z " /><path fill="rgb(75,95,72)" stroke="rgb(75,95,72)" stroke-width="0.6" opacity="1" d="M 438.5 226 L 438 229.5 L 437 232.5 L 437.5 234 L 436 229 L 438 228.5 L 438.5 226 Z " /><path fill="rgb(75,95,72)" stroke="rgb(75,95,72)" stroke-width="0.6" opacity="1" d="M 153.5 234 L 165 234.5 L 153.5 235 L 153.5 234 Z " /><path fill="rgb(75,95,72)" stroke="rgb(75,95,72)" stroke-width="0.6" opacity="1" d="M 385 241 Q 388.3 239.7 387 244.5 L 389.5 246 L 391 245.5 L 390.5 247 L 394 248.5 L 392.5 248 L 386 244.5 L 385 241 Z " /><path fill="rgb(75,95,72)" stroke="rgb(75,95,72)" stroke-width="0.6" opacity="1" d="M 221.5 271 L 228 279.5 L 225 277.5 L 223 274.5 L 221.5 271 Z " /><path fill="rgb(75,95,72)" stroke="rgb(75,95,72)" stroke-width="0.6" opacity="1" d="M 444.5 274 L 445 275.5 L 434 284.5 L 433.5 290 L 432 286 L 412 294.5 L 411.5 296 L 411 294.5 L 412 291 Q 423.9 289.6 431.5 283 L 431.5 285 L 434 283.5 L 434.5 281 L 440.5 277 L 442 277.5 L 444.5 274 Z " /><path fill="rgb(75,95,72)" stroke="rgb(75,95,72)" stroke-width="0.6" opacity="1" d="M 219.5 281 L 220.5 283 L 213.5 287 L 213 285 L 219.5 281 Z " /><path fill="rgb(75,95,72)" stroke="rgb(75,95,72)" stroke-width="0.6" opacity="1" d="M 174.5 290 L 179.5 296 L 174.5 290 Z " /><path fill="rgb(75,95,72)" stroke="rgb(75,95,72)" stroke-width="0.6" opacity="1" d="M 237.5 292 L 238 299.5 L 238.5 303 L 235 301.5 Q 238.9 299.4 237.5 292 Z " /><path fill="rgb(75,95,72)" stroke="rgb(75,95,72)" stroke-width="0.6" opacity="1" d="M 404.5 293 Q 409.3 291.7 408 295 L 400.5 297 L 400 295.5 L 404.5 293 Z " /><path fill="rgb(75,95,72)" stroke="rgb(75,95,72)" stroke-width="0.6" opacity="1" d="M 309 303 L 321.5 303 L 322 305 L 316.5 304 L 314.5 304 L 309 305 L 309 303 Z " /><path fill="rgb(104,137,86)" stroke="rgb(104,137,86)" stroke-width="0.6" opacity="1" d="M 77.5 259 L 82 261.5 L 79.5 260 L 75.5 262 L 77.5 259 Z " /><path fill="rgb(128,130,127)" stroke="rgb(128,130,127)" stroke-width="0.6" opacity="1" d="M 297.5 375 L 309 375.5 L 297.5 376 L 297.5 375 Z " /><path fill="rgb(128,130,127)" stroke="rgb(128,130,127)" stroke-width="0.6" opacity="1" d="M 368.5 382 L 379 382.5 L 368.5 383 L 368.5 382 Z " /><path fill="rgb(218,218,218)" stroke="rgb(218,218,218)" stroke-width="0.6" opacity="1" d="M 297.5 378 L 308 378.5 L 297.5 379 L 297.5 378 Z " /><path fill="rgb(218,218,218)" stroke="rgb(218,218,218)" stroke-width="0.6" opacity="1" d="M 368.5 385 L 380 385.5 L 368.5 386 L 368.5 385 Z " /><path fill="rgb(199,199,198)" stroke="rgb(199,199,198)" stroke-width="0.6" opacity="1" d="M 77.5 179 L 88 179.5 L 77.5 180 L 77.5 179 Z " /><path fill="rgb(153,153,151)" stroke="rgb(153,153,151)" stroke-width="0.6" opacity="1" d="M 55.5 358 L 67 358.5 L 55.5 359 L 55.5 358 Z " /><path fill="rgb(177,177,175)" stroke="rgb(177,177,175)" stroke-width="0.6" opacity="1" d="M 199.5 388 L 210 388.5 L 199.5 389 L 199.5 388 Z " /></svg>