<svg width="627" height="627" preserveAspectRatio="xMidYMid meet" viewBox="0 0 512 512" version="1.1" xmlns="http://www.w3.org/2000/svg" ><path fill="rgb(255,255,255)" stroke="rgb(255,255,255)" stroke-width="0.6" opacity="1" d="M 0 0 L 512 0 L 512 512 L 0 512 L 0 0 Z M 186 97 Q 163 103 149 117 L 145 122 L 131 136 Q 120 135 114 138 L 98 147 L 95 151 L 86 160 L 79 161 L 68 167 L 57 180 L 53 192 Q 51 201 55 206 L 55 209 L 50 217 L 46 232 L 46 239 L 49 249 L 56 253 L 59 260 Q 67 268 79 273 L 100 279 L 122 281 L 158 280 L 163 278 L 167 280 L 161 292 L 159 294 L 150 294 L 139 299 L 132 306 L 130 313 L 85 313 Q 71 311 62 304 L 53 306 L 49 311 L 50 316 L 64 323 Q 67 322 66 325 L 44 332 L 38 337 L 39 346 L 51 360 L 61 359 L 90 347 L 114 341 L 116 342 L 143 342 L 164 347 L 173 347 L 185 351 L 196 351 L 200 353 L 201 355 L 196 359 L 185 371 L 185 374 L 196 383 L 202 383 Q 215 367 233 356 L 248 351 L 302 351 L 318 352 L 316 363 L 317 382 L 327 400 Q 337 411 354 415 L 387 414 Q 405 408 418 396 Q 437 379 443 348 L 446 345 L 465 344 L 472 335 L 475 320 Q 477 304 469 300 L 449 303 L 443 302 L 444 297 L 443 285 L 436 276 L 436 267 L 428 257 Q 429 245 424 240 L 420 236 L 415 221 L 413 219 L 404 211 Q 405 202 402 197 Q 398 190 390 188 L 386 177 Q 382 168 372 167 L 367 155 Q 361 147 348 148 L 344 141 Q 339 131 321 134 L 318 131 L 310 124 Q 296 122 291 128 L 279 120 Q 266 120 261 127 L 252 122 L 240 125 L 232 134 L 229 133 Q 220 132 217 135 Q 215 139 213 136 Q 212 129 215 127 Q 216 113 212 106 L 202 97 L 186 97 Z " /><path fill="rgb(100,151,105)" stroke="rgb(100,151,105)" stroke-width="0.6" opacity="1" d="M 189.5 102 Q 199.1 100.7 203 104 L 205 107.5 Q 211 112.5 209 125.5 Q 203.6 138.1 206 158.5 L 214 183.5 L 214 205.5 L 206 235.5 Q 201.2 247.7 192.5 256 L 191 257.5 L 190 260 L 197 255.5 L 200.5 251 L 202 249.5 L 212 232.5 L 219 203.5 L 218 200.5 L 219 189.5 L 218 185.5 L 219 182.5 L 213 159.5 L 224.5 151 L 232.5 165 L 241 170.5 L 242.5 173 L 246 175.5 L 249 182.5 L 249 189.5 L 248 190.5 L 248 205.5 L 254.5 217 L 257 217 L 258.5 219 L 262.5 221 L 264.5 220 L 266.5 220 L 268 218.5 L 272 213.5 L 272 194.5 Q 276.9 186.9 275 172.5 Q 272.9 163.1 266.5 158 L 258 151.5 L 255 142.5 L 256 139 L 281.5 137 L 298 139 L 294 149.5 L 294 164.5 L 298 171.5 L 297 172.5 L 297 187.5 L 294 195.5 L 291 198.5 L 291 202 L 289 203.5 L 283 213.5 L 284 216.5 L 283 224.5 L 286 231 L 294.5 232 L 300 225.5 L 303 215.5 L 308.5 209 L 312 206.5 Q 319.6 200.1 319 185.5 L 318 184.5 L 318 169.5 L 328.5 156 L 334.5 152 L 356 167.5 L 354.5 170 L 352 171.5 L 345 180.5 L 342 201.5 L 338 209 L 335 210.5 L 333.5 213 L 324 219.5 Q 319.7 222.7 320 230.5 Q 322.4 235.6 330.5 235 Q 338.6 228.1 351.5 226 L 357 220.5 L 362 203.5 L 369.5 195 L 381 192 L 393 212.5 L 391.5 215 L 396 214 L 403 229 Q 394.5 231.6 389.5 239 L 384.5 240 L 381 237.5 L 382 226.5 L 389 217.5 L 386.5 217 Q 377.8 222.3 378 236.5 L 383.5 242 L 389.5 242 L 400.5 232 L 405.5 232 L 408 233 Q 412.8 238.3 413 248 L 402 253.5 Q 397.3 257.3 397 265.5 L 400.5 270 L 408.5 271 L 416.5 266 L 423.5 266 L 429 280 L 421.5 281 L 409 291.5 L 408 296.5 Q 410.8 302.8 420.5 302 Q 425 297.5 435.5 299 L 439 307.5 L 439 309.5 L 440 318 Q 426.2 315.9 420 321 L 418 328.5 L 422.5 333 L 432.5 335 L 435 337.5 L 436.5 340 Q 439.8 339.6 438 347.5 L 435.5 353 L 427.5 349 L 421.5 349 L 414 355.5 L 415 361 L 425 368.5 L 427 374.5 L 418 387 Q 411.1 385.8 407.5 380 L 401.5 380 Q 394.9 382.9 396 393.5 L 398 401.5 L 378.5 410 L 358.5 410 L 337.5 402 L 329 393.5 Q 321.5 385 321 369.5 L 322 366.5 L 321 364.5 L 325 351.5 L 330.5 344 L 334 341.5 L 338.5 336 L 341.5 336 L 350.5 331 L 363.5 331 Q 374 334 380 341.5 Q 387 349 385 365.5 Q 382.2 374.7 375.5 380 Q 370 385 357.5 383 L 345 374.5 L 344 360.5 L 351.5 352 L 362.5 351 L 367 355.5 L 368 363.5 L 367 366 L 360.5 368 L 357 363.5 Q 358.7 359.3 360.5 362 L 362 360.5 L 358.5 358 L 353 363.5 L 353 366.5 Q 355.6 372.4 364.5 372 L 369 370 L 373 363.5 L 373 357.5 L 367.5 349 Q 363.3 344.7 353.5 346 L 344 351.5 L 340 357.5 L 339 370.5 L 345.5 382 L 352.5 387 L 366.5 389 Q 384.5 386 393 373.5 L 403 353.5 L 402 350.5 Q 405.4 344.4 404 333.5 L 402 323.5 L 403 321.5 L 394 302.5 L 385.5 293 L 371 283.5 L 380 276.5 Q 380.8 273.9 377.5 275 Q 369.9 282.4 353.5 281 L 345.5 279 L 343 278.5 Q 344.3 273.3 341.5 272 L 339 273.5 L 339 290.5 L 345.5 306 L 348 307.5 L 348 314.5 L 342.5 322 L 327.5 326 L 318 333.5 L 313.5 340 Q 306.6 340.9 304 337.5 L 304 328.5 L 310 320.5 L 307.5 320 L 302 323.5 L 298.5 330 L 294 328.5 L 293 322.5 L 299.5 314 Q 305.8 307.8 318 309 L 310 289.5 L 308 267.5 L 309 264.5 L 309 262.5 Q 310.1 251.6 317.5 247 L 325.5 243 L 335.5 242 L 354.5 247 L 355 245.5 L 345.5 239 L 331.5 237 Q 315.2 238.2 309 249.5 L 304 260.5 L 304 283.5 L 305 285.5 L 303.5 287 L 286.5 288 L 273 287 L 278 273.5 L 278 260.5 Q 275.4 249.6 267.5 244 L 249.5 233 L 235 230 L 236.5 233 L 253.5 240 L 271 254.5 Q 275.4 259.7 274 270.5 L 266 289.5 L 258.5 300 L 256 301.5 L 251.5 308 L 246 312.5 L 248 318.5 L 233 326.5 Q 228.9 329.4 230 337.5 L 231 339.5 L 225.5 343 L 218 338.5 L 217 331.5 L 219 324.5 L 214 328.5 L 215 331.5 L 214 340 Q 207.6 341.3 206 336.5 L 205 326.5 L 213 315.5 L 210.5 315 L 201.5 322 L 200 317.5 L 206.5 309 L 211.5 306 L 221.5 305 L 226 302.5 L 233 286.5 L 245 268.5 L 214 257 L 217.5 262 L 237 270 Q 236.4 277.4 230.5 281 L 201.5 273 L 198.5 274 L 178 271 Q 179.5 267.2 176.5 268 L 171.5 271 L 150.5 275 L 115.5 275 L 109.5 273 L 95.5 272 L 79.5 267 L 64 256.5 L 67.5 255 L 78.5 258 L 108.5 258 L 114.5 256 L 127.5 255 L 140.5 251 L 159 240.5 L 161.5 237 L 167 238 Q 167.8 233.3 163.5 232 L 156.5 231 L 155 234.5 L 156 238 Q 129.7 257.5 79.5 254 L 63.5 251 L 53 244.5 L 51 234.5 L 55 219.5 L 67 197.5 L 93.5 160 L 97 157.5 L 101.5 152 L 116.5 143 L 129.5 141 L 148 145 L 146.5 142 L 137 138.5 L 142.5 132 L 146 129.5 L 152.5 122 Q 167.2 108.2 189.5 102 Z M 188 108 L 177 112 L 158 126 L 159 128 Q 171 115 192 110 L 199 111 L 201 116 L 201 130 L 197 147 L 199 164 L 201 166 L 206 183 Q 208 195 204 202 Q 202 207 206 206 L 208 198 L 207 177 L 200 158 L 200 139 L 204 124 L 202 112 Q 199 106 188 108 Z M 134 156 L 121 161 L 118 165 Q 124 160 135 159 L 137 159 L 140 158 L 153 160 L 155 160 Q 149 153 134 156 Z M 157 159 L 156 161 L 163 164 L 164 167 L 168 169 L 172 176 Q 171 179 174 178 Q 173 171 168 168 L 171 167 L 177 178 Q 179 181 180 178 L 175 168 L 164 160 L 157 159 Z M 140 165 Q 128 166 121 172 L 111 184 L 108 196 L 109 208 L 116 221 Q 121 227 131 229 L 149 229 L 159 224 Q 167 217 171 207 L 171 189 L 166 179 Q 158 166 140 165 Z M 78 228 L 75 234 Q 80 235 81 231 L 78 228 Z " /><path fill="rgb(100,151,105)" stroke="rgb(100,151,105)" stroke-width="0.6" opacity="1" d="M 246.5 128 L 252.5 128 L 258 133.5 Q 258.8 136.1 255.5 135 L 235.5 141 L 238 137.5 L 240.5 133 L 242 131.5 L 243 129 L 246.5 128 Z " /><path fill="rgb(100,151,105)" stroke="rgb(100,151,105)" stroke-width="0.6" opacity="1" d="M 222.5 138 Q 228.9 138.1 231 142.5 L 212.5 154 L 212 151.5 L 217 142 L 222.5 138 Z " /><path fill="rgb(100,151,105)" stroke="rgb(100,151,105)" stroke-width="0.6" opacity="1" d="M 320.5 139 L 324.5 140 L 330.5 139 L 340 145.5 L 342 150.5 L 340.5 152 L 335.5 147 L 319 140.5 L 320.5 139 Z " /><path fill="rgb(100,151,105)" stroke="rgb(100,151,105)" stroke-width="0.6" opacity="1" d="M 250.5 140 L 253 141.5 L 254 150.5 L 263.5 162 L 270 167.5 Q 274.5 173 273 184.5 L 271 187.5 L 269 202.5 L 270 211.5 L 267 217 L 260.5 218 L 258 217.5 L 256 214.5 Q 248.4 209.1 250 194.5 L 251 193.5 L 251 179.5 L 244.5 168 L 231 159.5 Q 227.2 156.3 228 148.5 Q 237.3 142.3 250.5 140 Z " /><path fill="rgb(100,151,105)" stroke="rgb(100,151,105)" stroke-width="0.6" opacity="1" d="M 349.5 153 L 358.5 155 L 364 160.5 L 365 168 L 347 155.5 L 348.5 154 L 349.5 153 Z " /><path fill="rgb(100,151,105)" stroke="rgb(100,151,105)" stroke-width="0.6" opacity="1" d="M 79.5 167 Q 82.8 165.9 82 168.5 Q 68.3 180.7 62 199 Q 58.7 200.3 60 195.5 L 59 192.5 L 60 190.5 L 60 188.5 L 62 182.5 L 71.5 171 L 79.5 167 Z " /><path fill="rgb(100,151,105)" stroke="rgb(100,151,105)" stroke-width="0.6" opacity="1" d="M 369 172 Q 376.6 172.2 380 177.5 L 382 187 L 374 180.5 L 369 172 Z " /><path fill="rgb(100,151,105)" stroke="rgb(100,151,105)" stroke-width="0.6" opacity="1" d="M 150.5 191 L 155 193.5 L 156 195.5 L 153.5 200 L 150.5 201 L 147 198.5 L 146 195.5 L 147 193 L 150.5 191 Z " /><path fill="rgb(100,151,105)" stroke="rgb(100,151,105)" stroke-width="0.6" opacity="1" d="M 174.5 276 L 178.5 277 L 184.5 276 L 196 277 L 197 279.5 Q 193 297 182 307.5 L 184 312.5 L 180.5 314 L 179.5 313 L 164.5 313 L 157 324 L 151.5 326 L 146 324 L 145 316.5 L 151 306 Q 143.5 306.5 140.5 313 L 137.5 313 L 136 310.5 L 141 306.5 L 142.5 304 L 146.5 301 L 161.5 299 L 166 294.5 L 174.5 276 Z " /><path fill="rgb(100,151,105)" stroke="rgb(100,151,105)" stroke-width="0.6" opacity="1" d="M 346.5 285 L 366.5 287 L 379 294.5 L 380.5 297 L 383 298.5 L 384.5 301 L 387 302.5 L 392 310.5 L 388.5 313 L 355.5 313 L 345 286.5 L 346.5 285 Z " /><path fill="rgb(100,151,105)" stroke="rgb(100,151,105)" stroke-width="0.6" opacity="1" d="M 271.5 292 Q 279 290 281 293.5 L 285 302.5 L 271 311.5 L 268.5 317 L 254.5 317 L 254 312.5 L 271.5 292 Z " /><path fill="rgb(100,151,105)" stroke="rgb(100,151,105)" stroke-width="0.6" opacity="1" d="M 464.5 305 L 470 308.5 L 471 313.5 L 467 332.5 L 464 338 L 446.5 340 L 445 338.5 L 445 312.5 L 444 310.5 L 448.5 308 L 464.5 305 Z M 461 330 L 458 331 L 456 331 L 454 332 Q 448 330 449 334 L 463 333 Q 465 329 461 330 Z " /><path fill="rgb(100,151,105)" stroke="rgb(100,151,105)" stroke-width="0.6" opacity="1" d="M 57.5 309 L 60.5 309 L 70.5 315 L 82.5 318 L 138.5 318 L 140 319.5 L 143.5 328 L 154.5 331 L 163 323.5 L 165.5 317 L 181.5 319 L 185.5 318 L 193.5 319 L 195 320.5 Q 196 327.5 201 330.5 L 201 337.5 L 206.5 343 L 227.5 348 L 236 341.5 L 237 333.5 L 236 331.5 L 239.5 327 Q 246.9 326.4 250.5 322 L 286.5 322 L 287.5 321 L 291.5 333 L 300 337.5 L 304.5 343 L 310 344 L 309.5 346 L 247.5 346 L 240.5 347 L 231.5 351 L 211 367.5 L 202.5 377 L 199.5 378 L 197 373.5 L 202 369.5 L 200.5 368 L 194.5 373 L 192 373 Q 191.3 367.5 196.5 366 L 203 360.5 L 210.5 352 Q 213.5 352.7 212 349 L 209.5 350 L 202.5 347 L 187.5 346 L 157.5 339 L 148.5 339 L 143.5 337 L 130.5 336 L 116.5 336 L 100.5 338 L 68.5 351 L 53.5 354 L 50 351.5 L 43 339.5 L 45.5 337 L 71.5 330 L 82 323.5 L 79.5 322 L 75.5 323 L 56 312.5 L 57.5 309 Z M 105 330 L 96 333 Q 92 332 93 335 Q 106 330 126 332 L 126 330 L 105 330 Z M 253 337 L 254 339 L 283 339 L 283 337 L 253 337 Z " /><path fill="rgb(100,151,105)" stroke="rgb(100,151,105)" stroke-width="0.6" opacity="1" d="M 427.5 320 Q 437.3 318.3 440 323.5 L 440 336.5 L 437.5 337 L 432.5 333 Q 424.5 333.5 421 329.5 L 420 326.5 L 427.5 320 Z " /><path fill="rgb(0,0,0)" stroke="rgb(0,0,0)" stroke-width="0.6" opacity="1" d="M 187.5 97 L 199.5 97 L 212 107.5 Q 215.3 114.7 214 126.5 Q 210 130.1 212 139 L 222.5 133 L 226.5 133 L 231.5 135 L 241.5 125 L 251.5 123 L 260.5 128 Q 266 120.5 279.5 121 L 288 126.5 L 289.5 129 Q 295.5 123 309.5 125 L 316 129.5 L 319.5 135 L 335.5 135 L 342 139.5 L 346.5 149 Q 361.7 147.8 367 156.5 L 371.5 168 Q 380.7 168.8 384 175.5 Q 388.1 178.4 387 186.5 L 389.5 189 Q 396.9 190.1 400 195.5 Q 404.7 200.3 403 211.5 L 405.5 214 L 415 222.5 Q 418 226.5 417 234.5 Q 423.9 239.1 427 247.5 L 427 256.5 L 435 266.5 L 435 275.5 Q 443.8 280.7 444 294.5 Q 441 296.5 442 302.5 Q 443.3 305.3 448.5 304 Q 456.3 300.3 468.5 301 Q 475.4 304.6 475 315.5 L 471 334.5 L 465.5 342 L 461.5 344 L 445.5 344 L 442 347.5 Q 435.6 381.6 412.5 399 Q 400.8 409.3 383.5 414 L 357.5 415 Q 337.5 411 327 397.5 L 318 381.5 L 316 364.5 L 320 352.5 L 318.5 351 L 299.5 351 L 298.5 350 L 261.5 350 L 260.5 351 L 244.5 351 L 232.5 355 Q 214 366.5 200.5 383 L 197.5 383 L 186 373.5 L 187 369.5 L 202 353.5 L 194.5 350 L 183.5 350 L 175.5 347 L 167.5 347 L 140.5 341 L 109.5 341 L 89.5 346 L 61.5 358 L 50.5 359 L 39 343.5 L 38 337.5 L 43.5 333 L 68 324.5 L 66.5 323 Q 55.9 320.6 50 313.5 L 52.5 307 L 61.5 305 L 81.5 313 L 130.5 313 L 133 305.5 L 137.5 301 L 152.5 294 L 159.5 294 L 162 291.5 L 168 278.5 L 162.5 277 Q 156.8 281.3 144.5 279 L 141.5 281 L 123.5 281 L 111.5 280 L 108.5 278 L 98.5 278 L 83.5 274 Q 68.9 269.1 60 258.5 L 56.5 252 Q 50.8 252.8 50 248.5 L 47 238.5 L 47 231.5 L 51 216.5 L 55 210.5 L 55 203.5 Q 52.2 200.8 53 194.5 L 58 179.5 L 69.5 167 Q 74.9 161.4 85.5 161 L 90 157.5 L 99.5 147 L 118.5 137 L 130.5 137 L 137 131.5 L 152.5 115 Q 167.2 103.2 187.5 97 Z M 192 101 Q 170 107 155 119 L 136 139 L 140 141 Q 143 140 142 143 L 135 141 L 118 142 L 101 152 Q 69 184 51 231 Q 50 240 53 246 L 65 252 L 76 254 L 114 254 L 126 252 Q 143 248 156 239 L 158 237 Q 153 234 157 232 L 165 233 L 166 237 L 165 236 L 142 250 L 126 255 L 111 256 L 108 258 Q 81 261 65 254 L 63 257 Q 70 264 81 268 L 98 273 L 115 275 L 155 275 L 171 272 L 177 269 L 177 272 L 191 272 Q 194 276 203 274 L 232 282 L 238 272 L 218 261 L 216 259 L 244 268 Q 233 282 226 302 L 224 304 L 213 305 L 206 309 L 200 317 Q 199 322 202 323 L 210 317 L 212 316 Q 206 321 204 330 L 205 337 Q 207 341 214 341 L 215 340 L 215 328 L 218 326 L 217 329 L 218 340 Q 221 344 230 343 L 231 342 L 232 329 L 237 324 Q 245 323 249 318 L 247 314 L 267 290 L 275 269 Q 275 260 272 256 Q 259 239 238 232 L 236 230 Q 254 233 266 243 Q 275 250 278 263 L 278 273 L 272 286 L 274 287 L 283 288 L 304 288 L 305 287 L 304 281 L 304 263 L 311 248 Q 317 240 330 238 L 347 240 L 353 245 L 353 246 L 341 242 Q 325 240 318 246 Q 310 251 308 261 Q 305 291 317 307 L 300 313 Q 292 316 293 328 L 299 331 L 306 321 L 308 322 L 304 328 L 304 338 L 310 341 L 315 340 L 318 335 L 329 326 Q 338 326 344 322 L 349 314 L 348 306 L 346 304 L 339 289 Q 338 278 340 273 Q 344 272 342 279 L 344 280 L 352 281 L 372 280 L 379 275 L 379 277 L 373 281 L 370 285 L 384 292 Q 394 300 399 314 Q 403 320 402 332 L 404 335 L 402 355 L 391 376 Q 383 385 368 388 Q 356 389 350 384 Q 343 380 340 372 Q 338 360 343 355 Q 347 348 356 346 Q 363 345 367 349 L 372 357 L 371 367 Q 368 372 359 371 Q 353 370 354 363 L 359 360 L 357 363 L 359 368 Q 365 369 368 366 Q 370 353 363 350 L 352 351 L 343 362 Q 342 371 345 376 L 359 384 Q 372 386 378 379 Q 384 373 386 364 Q 387 347 379 340 L 366 331 L 350 331 L 338 336 L 325 350 L 321 363 Q 320 383 328 394 Q 337 406 356 410 L 381 410 L 397 404 L 401 400 L 402 401 L 411 396 L 415 388 L 417 389 L 427 376 L 426 370 L 430 371 Q 434 366 435 357 L 432 352 L 436 355 L 439 345 Q 440 340 437 339 L 439 338 L 440 337 L 440 323 L 437 320 Q 432 321 433 318 L 440 319 L 438 301 L 434 299 L 436 296 L 426 269 L 424 266 L 415 266 L 423 263 L 419 254 L 422 253 Q 423 246 420 243 L 416 239 L 412 241 L 410 237 L 412 234 L 412 228 L 409 221 L 404 216 L 401 218 L 407 230 Q 408 232 405 231 L 404 229 L 382 193 L 378 191 L 369 177 L 336 152 L 330 154 L 331 151 Q 320 142 303 140 L 296 151 L 296 164 L 294 164 L 294 151 L 299 140 L 298 138 L 284 138 L 283 137 L 257 138 L 255 140 L 255 147 L 252 140 L 233 145 L 212 159 L 218 181 Q 220 201 216 217 Q 211 236 201 251 L 197 254 L 195 255 L 207 235 L 214 210 L 213 176 L 206 157 L 206 141 L 210 123 Q 210 112 206 107 Q 202 100 192 101 Z M 276 125 Q 266 127 262 133 L 259 133 L 251 127 L 245 128 L 235 140 L 236 142 L 258 135 L 287 135 L 287 132 Q 284 125 276 125 Z M 300 129 L 292 133 L 290 136 L 307 137 L 313 140 L 316 139 L 313 133 Q 310 127 300 129 Z M 222 138 L 219 140 L 211 151 L 213 155 Q 221 147 233 143 L 228 138 L 222 138 Z M 327 138 L 320 139 L 318 142 L 330 145 L 340 151 L 342 151 L 340 144 Q 336 138 327 138 Z M 348 153 L 345 156 L 364 169 L 366 169 L 365 161 L 359 154 L 348 153 Z M 81 166 L 70 172 L 59 188 L 59 201 L 61 201 Q 69 182 83 168 L 81 166 Z M 369 172 L 369 175 L 375 183 Q 377 188 383 187 L 382 180 Q 379 172 369 172 Z M 387 192 L 385 194 L 394 209 Q 397 215 399 211 Q 400 202 397 199 Q 394 193 387 192 Z M 175 275 L 165 295 L 161 299 Q 148 298 143 303 L 136 311 L 138 313 L 142 313 L 148 308 L 144 318 L 145 324 Q 148 327 156 326 L 166 313 Q 177 311 183 315 L 185 312 L 184 310 L 184 307 L 195 289 L 197 279 L 195 276 L 175 275 Z M 203 280 L 197 295 L 188 307 Q 186 312 190 314 L 196 314 L 212 301 L 222 300 L 228 288 L 224 285 L 203 280 Z M 347 285 L 345 287 L 346 294 L 356 313 L 392 313 L 393 312 L 386 301 Q 379 291 368 287 L 347 285 Z M 301 291 L 288 292 L 286 294 L 292 305 Q 288 310 280 310 Q 274 312 275 317 L 291 317 L 302 308 L 312 305 L 307 293 Q 306 290 301 291 Z M 271 292 L 253 313 L 253 316 L 255 317 L 269 317 L 271 313 Q 277 306 286 303 L 282 295 Q 280 290 271 292 Z M 466 304 L 446 308 L 444 310 L 445 316 L 445 335 L 444 336 L 446 341 L 464 339 L 468 333 L 471 318 Q 472 309 469 306 L 466 304 Z M 58 309 L 56 310 L 54 313 L 75 323 Q 81 322 80 325 Q 66 333 46 336 L 42 340 L 53 355 L 68 352 L 100 339 L 118 336 L 130 336 L 141 337 L 146 339 L 155 339 L 184 346 L 206 348 L 208 350 Q 212 348 211 352 L 191 371 L 193 374 L 196 373 L 197 373 L 196 375 L 199 378 L 202 378 L 225 356 L 240 348 L 251 346 L 323 346 L 326 342 Q 335 329 354 326 Q 369 325 377 332 L 386 343 L 398 343 L 399 342 L 399 329 L 397 320 L 395 317 L 353 317 L 351 320 Q 343 330 326 331 L 320 340 L 315 344 L 306 343 L 300 336 L 294 333 L 289 328 Q 290 322 288 321 L 285 322 L 253 322 L 252 321 L 244 326 L 240 326 L 236 330 L 235 342 L 229 347 Q 221 348 219 344 L 208 343 L 201 337 L 201 330 Q 196 327 196 321 L 194 318 L 165 317 L 162 325 L 156 330 L 147 329 Q 141 327 141 320 L 140 318 L 87 318 Q 71 317 63 309 L 58 309 Z M 391 348 L 389 350 L 390 354 Q 392 364 388 368 L 390 370 Q 397 363 398 350 Q 397 347 391 348 Z " /><path fill="rgb(0,0,0)" stroke="rgb(0,0,0)" stroke-width="0.6" opacity="1" d="M 188.5 108 Q 197.2 106.7 200 110 L 199.5 112 L 197.5 110 L 187 109.5 L 188.5 108 Z " /><path fill="rgb(0,0,0)" stroke="rgb(0,0,0)" stroke-width="0.6" opacity="1" d="M 198 146 L 200 146.5 L 200 159.5 L 198 158.5 L 198 146 Z " /><path fill="rgb(0,0,0)" stroke="rgb(0,0,0)" stroke-width="0.6" opacity="1" d="M 134 156 L 147.5 156 L 148 158 L 134.5 158 L 134 156 Z " /><path fill="rgb(0,0,0)" stroke="rgb(0,0,0)" stroke-width="0.6" opacity="1" d="M 260.5 156 L 270 163.5 L 272 168.5 L 266 163.5 L 260.5 156 Z " /><path fill="rgb(0,0,0)" stroke="rgb(0,0,0)" stroke-width="0.6" opacity="1" d="M 158 160 L 167 162 L 165.5 165 L 158 162 L 158 160 Z " /><path fill="rgb(0,0,0)" stroke="rgb(0,0,0)" stroke-width="0.6" opacity="1" d="M 234.5 164 Q 243.2 166.8 248 173.5 Q 252.5 180 251 192.5 L 250 195 Q 246.7 196.3 248 191.5 L 249 180.5 Q 246.9 172.6 240.5 169 L 234.5 164 Z " /><path fill="rgb(0,0,0)" stroke="rgb(0,0,0)" stroke-width="0.6" opacity="1" d="M 135.5 166 L 152.5 168 L 163 175.5 L 171 191.5 L 171 204.5 Q 167.3 216.3 158.5 223 L 146.5 229 L 132.5 229 Q 120.9 226.1 115 217.5 L 109 205.5 L 109 192.5 Q 112.3 178.8 122.5 172 L 135.5 166 Z M 136 170 L 123 176 Q 114 182 112 195 Q 111 207 115 214 L 128 224 L 136 226 Q 152 228 159 220 Q 165 214 168 204 Q 170 188 163 181 Q 156 168 136 170 Z " /><path fill="rgb(0,0,0)" stroke="rgb(0,0,0)" stroke-width="0.6" opacity="1" d="M 316 171 L 318 171.5 L 318 195 L 316 194.5 L 316 171 Z " /><path fill="rgb(0,0,0)" stroke="rgb(0,0,0)" stroke-width="0.6" opacity="1" d="M 206 183 L 208 183.5 L 208 196 L 206 195.5 L 206 183 Z " /><path fill="rgb(0,0,0)" stroke="rgb(0,0,0)" stroke-width="0.6" opacity="1" d="M 273 183 L 275 184.5 L 273 192 Q 270 193.3 271 189.5 L 273 183 Z " /><path fill="rgb(0,0,0)" stroke="rgb(0,0,0)" stroke-width="0.6" opacity="1" d="M 143.5 186 Q 153.9 184.6 157 190.5 Q 161.7 194.3 160 204.5 L 151.5 215 L 144.5 216 L 135 209.5 Q 131.2 206.3 132 198.5 Q 133.8 191.3 139.5 188 L 143.5 186 Z M 149 191 Q 145 193 146 199 Q 148 202 154 201 Q 157 199 156 193 Q 155 189 149 191 Z " /><path fill="rgb(0,0,0)" stroke="rgb(0,0,0)" stroke-width="0.6" opacity="1" d="M 373.5 191 L 375 193 Q 368.5 192.8 366 197.5 L 363.5 201 L 363 198.5 L 373.5 191 Z " /><path fill="rgb(0,0,0)" stroke="rgb(0,0,0)" stroke-width="0.6" opacity="1" d="M 270 195 L 272 195.5 L 272 213 L 270 212.5 L 270 195 Z " /><path fill="rgb(0,0,0)" stroke="rgb(0,0,0)" stroke-width="0.6" opacity="1" d="M 355.5 219 L 356 220.5 L 350.5 225 L 355.5 219 Z " /><path fill="rgb(0,0,0)" stroke="rgb(0,0,0)" stroke-width="0.6" opacity="1" d="M 398.5 232 L 393.5 238 L 392 236.5 L 398.5 232 Z " /><path fill="rgb(0,0,0)" stroke="rgb(0,0,0)" stroke-width="0.6" opacity="1" d="M 407.5 251 L 404 255.5 L 400 263 L 398 261.5 L 405.5 252 L 407.5 251 Z " /><path fill="rgb(0,0,0)" stroke="rgb(0,0,0)" stroke-width="0.6" opacity="1" d="M 402 380 Q 408.7 378.9 411 383.5 L 410.5 385 Q 408.2 380.9 402 382 L 402 380 Z " /><path fill="rgb(138,101,66)" stroke="rgb(138,101,66)" stroke-width="0.6" opacity="1" d="M 272.5 126 Q 282.3 124.3 285 129.5 L 287 134 L 262.5 135 L 263 133.5 L 266.5 129 L 272.5 126 Z " /><path fill="rgb(138,101,66)" stroke="rgb(138,101,66)" stroke-width="0.6" opacity="1" d="M 137.5 170 Q 153.8 169.8 161 178.5 Q 167.8 185.2 168 198.5 Q 166.4 213.9 156.5 221 Q 149.7 226.7 136.5 226 L 126.5 223 L 115 212.5 L 112 198.5 Q 113.5 182 124.5 175 L 137.5 170 Z M 143 186 L 139 188 L 132 198 Q 131 205 134 209 L 144 216 L 153 215 L 160 206 Q 162 194 157 190 Q 153 184 143 186 Z " /><path fill="rgb(138,101,66)" stroke="rgb(138,101,66)" stroke-width="0.6" opacity="1" d="M 357.5 170 Q 365.9 172.2 370 178.5 L 377 190 Q 366.9 191.6 362 199.5 L 356 217.5 L 350.5 224 L 333.5 232 L 323 233 L 322 224.5 L 342 206.5 L 345 198.5 Q 343.9 187.9 347 181.5 L 357.5 170 Z " /><path fill="rgb(138,101,66)" stroke="rgb(138,101,66)" stroke-width="0.6" opacity="1" d="M 401 217 Q 406.6 217.1 409 221.5 Q 412.9 226 412 234 L 409 232.5 L 401 217 Z " /><path fill="rgb(138,101,66)" stroke="rgb(138,101,66)" stroke-width="0.6" opacity="1" d="M 203.5 280 L 227 287.5 L 221.5 300 L 210.5 301 L 198 310.5 L 195.5 314 Q 189.5 315.5 188 312.5 L 189 309.5 L 188 306.5 L 198 293.5 L 201 282.5 L 203.5 280 Z " /><path fill="rgb(138,101,66)" stroke="rgb(138,101,66)" stroke-width="0.6" opacity="1" d="M 426.5 281 L 432 283.5 L 436 295.5 L 434.5 297 L 424.5 297 L 414.5 301 Q 409.8 299.8 411 292.5 L 419.5 284 L 426.5 281 Z " /><path fill="rgb(138,101,66)" stroke="rgb(138,101,66)" stroke-width="0.6" opacity="1" d="M 390.5 348 Q 396.5 346.5 398 349.5 Q 396.9 362.4 389.5 369 L 389 366.5 L 391 357.5 L 389 349.5 L 390.5 348 Z " /><path fill="rgb(138,101,66)" stroke="rgb(138,101,66)" stroke-width="0.6" opacity="1" d="M 419 351 Q 431.3 349.3 435 357.5 L 429.5 370 L 416 357.5 L 419 351 Z " /><path fill="rgb(216,164,72)" stroke="rgb(216,164,72)" stroke-width="0.6" opacity="1" d="M 299.5 130 Q 310.8 127.8 313 134.5 L 314 139 L 309.5 137 L 293 135 L 294.5 133 L 299.5 130 Z " /><path fill="rgb(216,164,72)" stroke="rgb(216,164,72)" stroke-width="0.6" opacity="1" d="M 303.5 141 Q 318.9 142.6 329 149.5 L 329 152.5 L 323.5 159 L 319 162.5 Q 314.5 167 315 176.5 L 316 177.5 L 316 194.5 Q 311 207 301 214.5 Q 299.3 224.8 292.5 230 L 287 228.5 L 286 214.5 Q 290.5 200.5 299 190.5 L 300 176.5 L 296 161.5 L 296 152.5 L 303.5 141 Z " /><path fill="rgb(216,164,72)" stroke="rgb(216,164,72)" stroke-width="0.6" opacity="1" d="M 387 193 Q 393.4 193.3 396 198.5 Q 399.8 201.8 398 210 L 395 208.5 L 387 193 Z " /><path fill="rgb(216,164,72)" stroke="rgb(216,164,72)" stroke-width="0.6" opacity="1" d="M 416.5 240 L 422 248.5 L 422 252 L 420 250.5 L 415 241.5 L 416.5 240 Z " /><path fill="rgb(216,164,72)" stroke="rgb(216,164,72)" stroke-width="0.6" opacity="1" d="M 414.5 250 L 417 251.5 L 422 262.5 L 420.5 264 L 412.5 265 L 406.5 269 L 402.5 269 Q 399 268 400 262.5 L 407.5 253 L 414.5 250 Z " /><path fill="rgb(216,164,72)" stroke="rgb(216,164,72)" stroke-width="0.6" opacity="1" d="M 301.5 291 L 307 292.5 L 311 303.5 L 293 312.5 L 289.5 317 L 277.5 317 L 276 315.5 L 279.5 311 L 293 305.5 L 288 295.5 L 288 292 L 301.5 291 Z " /><path fill="rgb(216,164,72)" stroke="rgb(216,164,72)" stroke-width="0.6" opacity="1" d="M 353.5 317 L 393.5 317 L 396 319.5 L 399 332.5 L 399 341.5 L 397.5 343 L 387.5 343 L 383 339.5 L 375.5 330 L 369.5 327 L 355.5 325 L 343 328 L 345.5 324 L 351 320.5 L 353.5 317 Z " /><path fill="rgb(216,164,72)" stroke="rgb(216,164,72)" stroke-width="0.6" opacity="1" d="M 335.5 329 Q 339.3 328 338 331 L 328 337.5 L 321.5 346 Q 315.4 347.3 316 344.5 L 326.5 332 L 335.5 329 Z " /><path fill="rgb(216,164,72)" stroke="rgb(216,164,72)" stroke-width="0.6" opacity="1" d="M 402.5 382 L 405.5 382 L 412 387.5 L 413 392.5 L 401.5 400 L 398 391.5 L 398 386.5 L 402.5 382 Z " /><path fill="rgb(26,26,26)" stroke="rgb(26,26,26)" stroke-width="0.6" opacity="1" d="M 167.5 163 Q 163.9 165.8 169 168.5 L 168.5 170 L 164.5 165 L 167.5 163 Z " /><path fill="rgb(52,52,52)" stroke="rgb(52,52,52)" stroke-width="0.6" opacity="1" d="M 421.5 390 L 416.5 396 L 421.5 390 Z " /><path fill="rgb(95,138,100)" stroke="rgb(95,138,100)" stroke-width="0.6" opacity="1" d="M 217.5 361 L 211.5 368 L 217.5 361 Z " /><path fill="rgb(100,121,104)" stroke="rgb(100,121,104)" stroke-width="0.6" opacity="1" d="M 123 160 L 126 160.5 L 119 164 L 119.5 162 L 121 162.5 L 121.5 161 L 123 161.5 L 123 160 Z " /><path fill="rgb(100,121,104)" stroke="rgb(100,121,104)" stroke-width="0.6" opacity="1" d="M 356.5 220 L 351.5 226 L 356.5 220 Z " /><path fill="rgb(100,121,104)" stroke="rgb(100,121,104)" stroke-width="0.6" opacity="1" d="M 260.5 305 L 254 312.5 L 253.5 316 L 253 312.5 L 260.5 305 Z " /><path fill="rgb(100,121,104)" stroke="rgb(100,121,104)" stroke-width="0.6" opacity="1" d="M 201.5 337 L 206.5 343 L 201.5 337 Z " /><path fill="rgb(180,156,71)" stroke="rgb(180,156,71)" stroke-width="0.6" opacity="1" d="M 310.5 204 L 305.5 210 L 310.5 204 Z " /></svg>