<svg width="627" height="627" preserveAspectRatio="xMidYMid meet" viewBox="0 0 512 512" version="1.1" xmlns="http://www.w3.org/2000/svg" ><path fill="rgb(255,255,255)" stroke="rgb(255,255,255)" stroke-width="0.6" opacity="1" d="M 0 0 L 512 0 L 512 512 L 0 512 L 0 0 Z M 181 68 Q 158 70 145 82 Q 125 96 124 128 L 121 130 Q 110 137 108 153 Q 108 165 114 172 Q 120 180 131 184 L 133 187 Q 133 199 139 205 L 135 217 L 122 226 Q 115 229 114 239 L 118 241 L 129 235 L 131 236 L 131 245 L 137 248 L 145 236 L 153 216 Q 159 221 171 220 L 167 231 L 153 250 L 148 255 L 136 256 L 113 263 L 86 279 Q 59 299 54 341 Q 56 371 71 388 Q 94 414 130 427 L 172 439 L 220 445 L 280 445 L 312 442 L 340 437 L 381 424 Q 405 413 425 397 Q 451 377 459 338 L 458 313 Q 454 298 446 288 Q 437 274 421 268 L 407 243 Q 384 215 340 210 L 320 210 L 295 215 L 244 237 L 260 210 Q 267 195 269 177 L 269 161 L 264 143 L 262 119 Q 258 104 250 94 Q 230 66 181 68 Z " /><path fill="rgb(74,147,76)" stroke="rgb(74,147,76)" stroke-width="0.6" opacity="1" d="M 181.5 73 L 197.5 73 L 217.5 77 Q 235.7 82.8 246 96.5 L 256 115.5 Q 259.9 129.6 259.5 148 L 261 147.5 Q 265.2 158.8 264 175.5 Q 262.3 192.8 256 205.5 Q 246.4 227.1 233 244 L 230.5 245 Q 228.5 241 220.5 243 L 208 252.5 Q 202 257 203 268.5 L 208.5 277 L 211 278.5 L 206.5 289 Q 195.6 290.1 192 298.5 Q 186.1 304.6 187 317.5 Q 189.1 326.9 195.5 332 L 210.5 339 L 222.5 339 L 237 331.5 Q 243 328.3 241 318 L 269.5 320 L 289.5 318 L 308 314 L 310 325.5 L 314.5 331 L 317.5 332 L 313 326.5 Q 310.1 322.9 311 315.5 L 312 313 L 325.5 309 L 351.5 294 L 356.5 295 L 359.5 294 L 363.5 295 L 362.5 293 L 355.5 292 L 353.5 293 L 351 291.5 Q 356.6 286.1 357 275.5 Q 355 265.5 347.5 261 L 345 259.5 L 350 247.5 L 350 242.5 Q 348.4 233.6 341.5 230 Q 336.8 226.7 327.5 228 Q 318.1 230.1 313 236.5 Q 308 241.5 308 251.5 L 311 259 L 291.5 267 L 265.5 285 L 254 289 L 253 286.5 L 255 283.5 Q 251.5 282 254 280.5 L 252 275 L 242.5 271 L 229.5 271 L 220.5 272 Q 217.3 270.3 221 268.5 L 236.5 246 L 242.5 244 L 244.5 244 L 246 244.5 L 245 246.5 Q 249.1 252.9 259.5 253 Q 278.3 248.8 288 235.5 Q 292.9 230.4 292 221 Q 311 213.8 339.5 215 Q 370.4 218.6 390 233.5 Q 390.4 236.8 382.5 235 Q 373.3 236.8 369 243.5 L 367 251.5 L 371 260.5 L 388.5 282 L 400.5 288 L 409.5 288 L 412.5 286 L 413 288.5 L 413 293.5 L 406 310.5 L 392.5 328 L 387 332.5 L 384.5 336 L 354.5 356 L 317.5 370 L 281.5 377 L 257.5 379 L 236.5 379 L 206.5 376 L 173.5 367 Q 152.5 358 138 342.5 Q 130.3 333.7 127 320.5 L 127 303.5 Q 130.2 287.7 138 276.5 L 165 242.5 L 178.5 218 Q 190.9 215.9 198.5 209 L 217.5 206 L 220.5 204 L 222 209.5 Q 214.4 232.9 197.5 247 L 196 248.5 Q 177.8 264.8 167 288.5 Q 162.7 298.2 164 313.5 Q 164.8 323.7 170.5 329 L 171 326.5 Q 163.8 317.7 166 299.5 L 169 288.5 L 179 271.5 L 207.5 239 L 209 238.5 L 208 237.5 L 212 233.5 L 223 214.5 L 224 203.5 L 225.5 202 L 240 193.5 L 245 185.5 L 246 179.5 L 244 180.5 Q 241.2 189.2 234.5 194 L 221.5 201 L 205.5 205 L 204.5 202 L 181.5 214 L 167.5 216 Q 158.2 215.3 153 210.5 Q 152 207.8 156.5 205 Q 161.9 208.6 172.5 207 Q 188 202.5 197 191.5 L 211.5 174 L 215.5 177 L 216 174.5 Q 213.6 169.4 205.5 170 L 204.5 172 Q 207.1 171.2 206 174.5 Q 200.8 181.3 191.5 184 L 178.5 187 L 160.5 187 L 132.5 180 L 118 168.5 Q 112.3 162.2 114 148.5 Q 116.3 137.8 124.5 133 L 129 130.5 L 129 121.5 L 133 105.5 Q 138.4 92.9 148.5 85 Q 161 75 181.5 73 Z M 159 86 L 152 89 L 147 96 L 154 93 L 165 93 L 166 91 Q 164 86 159 86 Z M 221 96 L 218 97 L 215 101 L 217 102 L 225 103 L 229 109 L 233 110 L 232 104 Q 229 97 221 96 Z M 153 106 L 148 108 Q 139 114 137 127 Q 136 135 140 139 L 137 140 L 135 140 L 133 141 Q 125 145 123 154 Q 122 158 125 157 Q 125 149 130 146 L 140 142 L 144 143 L 145 141 L 151 142 L 153 142 Q 163 142 170 147 L 172 147 L 161 141 L 166 127 Q 168 115 163 111 Q 160 106 153 106 Z M 212 117 L 208 119 Q 199 124 197 136 Q 196 150 203 156 L 209 155 L 213 156 L 223 155 L 231 138 L 231 132 L 226 120 Q 222 116 212 117 Z M 133 154 L 130 157 L 134 161 L 135 156 L 133 154 Z M 164 161 L 160 165 L 162 167 L 167 165 Q 169 159 164 161 Z M 365 295 L 367 297 Q 372 301 374 309 L 374 315 L 369 325 Q 361 333 347 336 L 343 335 L 335 336 L 333 336 L 322 333 L 319 334 L 330 338 L 347 338 L 365 331 Q 374 326 376 314 Q 377 305 373 302 L 367 295 L 365 295 Z M 173 330 L 172 333 Q 185 349 206 357 L 208 357 L 183 341 L 173 330 Z M 275 341 L 257 347 L 249 356 L 250 366 Q 254 367 251 369 L 238 367 L 212 357 L 208 358 Q 225 368 250 371 L 253 370 L 255 372 L 261 373 L 285 373 L 297 368 L 303 359 L 300 350 Q 292 340 275 341 Z " /><path fill="rgb(74,147,76)" stroke="rgb(74,147,76)" stroke-width="0.6" opacity="1" d="M 138 186 L 143 186 L 143 187.5 L 146 198.5 L 142 201 Q 138 195.5 138 186 Z " /><path fill="rgb(74,147,76)" stroke="rgb(74,147,76)" stroke-width="0.6" opacity="1" d="M 191.5 187 L 195 188.5 L 178.5 202 L 171.5 204 L 162.5 204 L 159 203 L 165.5 195 L 172.5 191 Q 183.8 190.8 191.5 187 Z " /><path fill="rgb(74,147,76)" stroke="rgb(74,147,76)" stroke-width="0.6" opacity="1" d="M 92.5 282 Q 105.8 279.8 110 286.5 Q 113 289.5 112 296.5 Q 107.9 306.9 99 312.5 L 93 325.5 L 87.5 331 Q 83.5 334 75.5 333 L 68 327.5 L 66 316.5 L 68 316 L 67 310.5 Q 74.5 294.5 87.5 284 L 92.5 282 Z " /><path fill="rgb(74,147,76)" stroke="rgb(74,147,76)" stroke-width="0.6" opacity="1" d="M 274.5 343 Q 292.9 342.1 300 352.5 L 301 357.5 L 294.5 367 Q 284.7 373.7 265.5 371 L 263.5 370 L 261.5 371 L 252 365.5 L 250 358.5 L 255.5 350 Q 262.2 343.7 274.5 343 Z " /><path fill="rgb(74,147,76)" stroke="rgb(74,147,76)" stroke-width="0.6" opacity="1" d="M 431.5 378 L 434 379.5 L 421.5 393 Q 383 426 320.5 435 L 322.5 432 L 370.5 416 L 408 395.5 L 407.5 394 L 409.5 394 Q 422.9 388.4 431.5 378 Z " /><path fill="rgb(139,180,78)" stroke="rgb(139,180,78)" stroke-width="0.6" opacity="1" d="M 212.5 121 L 217.5 122 Q 223.7 121.3 225 125.5 L 228 134.5 L 226 134.5 L 225.5 136 L 219.5 128 Q 210.5 127 208 132.5 Q 203.5 138 205 149.5 Q 208.8 151.3 205.5 153 Q 198.1 149.4 200 136.5 Q 201.2 126.7 208.5 123 L 212.5 121 Z " /><path fill="rgb(139,180,78)" stroke="rgb(139,180,78)" stroke-width="0.6" opacity="1" d="M 285.5 224 Q 291.6 222.2 289 229.5 L 281.5 240 Q 272.3 250.3 252.5 250 L 247 245.5 L 249.5 241 L 285.5 224 Z " /><path fill="rgb(139,180,78)" stroke="rgb(139,180,78)" stroke-width="0.6" opacity="1" d="M 141.5 261 L 143 262.5 L 140 264 L 126 289.5 L 122 303.5 L 122 312.5 Q 113.4 318.9 114 334.5 Q 116.9 349.1 127.5 356 L 146.5 367 L 174.5 375 L 187.5 376 L 190.5 378 L 212.5 382 L 255.5 384 L 295.5 380 L 327.5 372 L 327 373.5 Q 323.9 377.9 325 386.5 L 331.5 395 Q 341.6 402.4 361.5 400 Q 383 397 394 383.5 Q 400.1 377.6 400 365.5 L 396 355 L 393 353.5 L 391.5 352 L 380 345.5 L 397 330.5 Q 408.5 319 415 302.5 L 420.5 274 Q 433.1 279.4 441 289.5 L 451 308.5 L 453 320.5 L 451 321.5 L 450 311.5 L 446.5 303 Q 444.5 306 442.5 301 Q 437.8 297.7 428.5 299 L 419 307.5 L 415 317.5 L 411 322.5 L 409 333.5 L 416 346 L 420.5 348 L 431.5 348 L 443 339.5 L 450 325 L 453 325 L 453 332.5 L 454 334.5 L 451 343.5 L 451 345.5 Q 447.9 360.4 438.5 369 L 436 370.5 L 432.5 375 L 430 376.5 L 428.5 379 Q 405.3 397.8 376.5 411 L 327.5 429 L 287.5 438 Q 276.5 437 269.5 440 L 226.5 440 L 216.5 438 L 214.5 439 L 193.5 436 L 191.5 436 L 174.5 434 L 172.5 432 Q 165 434 163 430.5 L 164 428 Q 175.4 431.7 193.5 430 Q 204.4 427.9 210 420.5 L 211 409.5 Q 202.3 398.3 186.5 394 Q 175.9 390.1 159.5 392 L 148 399.5 Q 143.7 402.7 145 411.5 L 155.5 424 L 163 427.5 L 162 430 Q 156.8 431 154.5 428 L 152.5 428 L 131.5 422 L 113.5 414 Q 92.3 403.2 77 386.5 Q 60 370.5 60 337.5 L 63 321 L 65 322.5 L 64 325.5 L 70.5 333 Q 74 337 83.5 335 L 94 327.5 L 100 314.5 L 112 301.5 Q 115.2 298.2 114 290.5 L 107.5 282 Q 104 278.8 97 280 L 98.5 276 L 119.5 266 L 133.5 262 L 138.5 262 Q 140 264.5 141.5 261 Z M 95 351 L 89 353 Q 81 356 80 365 Q 79 374 83 379 Q 92 393 113 396 L 125 393 L 131 385 Q 131 373 125 369 Q 116 354 95 351 Z M 269 395 L 252 402 L 244 414 L 245 423 Q 252 432 267 434 Q 286 435 297 426 L 303 417 L 302 415 L 303 413 L 298 402 Q 289 393 269 395 Z " /><path fill="rgb(139,180,78)" stroke="rgb(139,180,78)" stroke-width="0.6" opacity="1" d="M 218.5 273 L 228.5 274 L 240.5 273 Q 248 273.5 251 278.5 L 253 284.5 L 250 292 L 234.5 298 L 218.5 300 L 214 298 L 213 285.5 L 218.5 273 Z " /><path fill="rgb(139,180,78)" stroke="rgb(139,180,78)" stroke-width="0.6" opacity="1" d="M 204.5 291 Q 208.3 289.8 207 293.5 L 211 302.5 L 217.5 309 L 239 318.5 Q 240.3 330.3 232.5 333 L 220.5 337 L 213.5 337 Q 200.6 335.4 194 327.5 Q 188.7 322.3 189 311.5 Q 191 301 197.5 295 L 204.5 291 Z " /><path fill="rgb(139,180,78)" stroke="rgb(139,180,78)" stroke-width="0.6" opacity="1" d="M 161.5 394 Q 193.6 392.9 208 409.5 L 209 417.5 L 205.5 422 L 198.5 426 Q 189.3 428.8 176.5 428 L 160.5 424 L 150 416.5 L 147 406.5 L 153.5 397 L 161.5 394 Z " /><path fill="rgb(12,12,12)" stroke="rgb(12,12,12)" stroke-width="0.6" opacity="1" d="M 180.5 69 Q 228 67 248 92.5 Q 257.3 103.2 261 119.5 L 263 142.5 L 268 162.5 L 268 174.5 L 267 183.5 L 261 204.5 Q 253 223.5 241 238.5 L 243.5 239 L 294.5 216 L 319.5 211 L 339.5 211 Q 382.9 215.6 405 241.5 L 412 251.5 L 418.5 268 Q 434.5 274 444 286.5 Q 459.8 302.7 458 336.5 Q 451.1 375.1 425.5 395 Q 389.7 425.7 334.5 437 L 302.5 442 L 277.5 444 L 221.5 444 L 171.5 438 L 132.5 427 Q 97 414.5 74 389.5 Q 62.2 376.8 57 357.5 L 56 330.5 Q 62.6 298.1 84.5 281 Q 96.6 270.6 112.5 264 Q 127.5 257 148.5 256 L 151 253.5 L 168 230.5 L 172 219 Q 158.7 220.6 151.5 215 L 143 237.5 L 137.5 246 L 134.5 247 Q 130.3 245.3 132 237.5 L 133 234.5 L 130.5 234 L 120.5 239 L 116.5 239 L 115 235.5 L 124.5 225 L 136 216.5 L 140 204.5 Q 133.9 198.6 134 186.5 L 130.5 183 Q 121.2 179.8 116 172.5 Q 108.1 164.9 110 147.5 Q 112.4 137.4 119.5 132 L 125 128.5 Q 125.7 97.7 143.5 84 Q 157.2 71.7 180.5 69 Z M 175 73 Q 158 76 148 85 Q 136 94 131 109 L 128 131 L 123 134 Q 116 139 113 149 Q 111 163 118 170 Q 124 178 135 182 L 155 187 L 166 188 Q 193 189 207 176 L 210 171 L 212 173 L 211 174 L 196 192 Q 187 201 175 206 Q 171 207 172 204 Q 182 203 188 197 L 198 185 L 169 192 L 167 193 L 168 190 L 162 189 L 156 191 Q 143 200 139 218 Q 134 225 126 228 L 120 235 L 136 229 L 135 237 Q 134 243 137 242 Q 144 231 147 216 L 157 200 L 161 197 L 163 196 L 158 202 L 160 204 Q 163 203 162 206 L 156 205 L 152 211 Q 156 215 164 216 L 181 215 Q 193 211 202 204 L 205 205 Q 209 204 208 207 L 199 208 Q 192 216 179 217 L 167 239 L 136 279 Q 129 290 126 305 L 127 324 Q 131 335 138 344 Q 153 359 175 368 L 194 374 L 224 379 L 228 378 L 230 379 L 266 379 L 267 378 L 269 379 Q 342 373 385 337 L 405 314 L 414 293 L 415 283 L 414 266 L 404 246 Q 384 222 347 215 L 313 215 L 304 217 L 283 224 L 236 246 L 218 271 L 212 285 L 212 296 L 222 307 Q 237 307 248 301 L 302 271 L 322 266 Q 338 265 348 271 L 352 277 L 356 275 Q 356 285 351 291 L 338 302 L 312 313 L 292 317 L 271 319 L 240 317 Q 227 314 218 308 Q 211 304 209 295 L 209 286 L 212 276 L 245 228 L 256 208 L 262 192 L 265 173 L 263 152 L 259 144 L 258 121 Q 254 106 246 96 Q 226 69 175 73 Z M 137 184 Q 137 194 141 201 L 144 202 L 147 198 L 145 189 Q 143 184 137 184 Z M 138 260 L 112 268 L 94 279 L 92 281 L 87 284 L 69 305 L 63 318 L 59 334 Q 57 349 61 360 Q 66 375 75 386 L 97 405 Q 116 418 140 426 L 164 433 L 185 437 L 225 441 L 272 441 L 290 438 L 295 439 Q 377 433 424 392 Q 436 382 444 368 L 444 363 L 452 349 L 455 334 Q 456 320 453 311 L 443 291 Q 434 278 420 272 L 418 274 Q 419 289 415 300 Q 409 314 400 326 L 375 349 L 332 370 L 290 380 L 252 383 L 207 380 L 188 375 L 180 375 L 162 371 L 145 365 L 127 354 Q 117 347 115 334 L 115 330 L 123 320 L 122 316 L 126 293 Q 132 274 145 262 Q 143 259 138 260 Z M 322 269 L 303 274 L 266 296 L 234 309 Q 230 308 231 311 L 242 314 L 261 316 Q 311 316 341 296 Q 348 291 351 283 L 350 279 Q 342 268 322 269 Z M 123 325 L 119 331 Q 118 341 123 346 Q 138 362 164 368 L 164 367 L 147 356 Q 131 346 125 327 L 123 325 Z " /><path fill="rgb(12,12,12)" stroke="rgb(12,12,12)" stroke-width="0.6" opacity="1" d="M 157.5 87 Q 163.1 86.9 165 90.5 Q 165.9 93.9 160.5 92 L 158.5 91 L 148.5 95 L 149 93.5 L 151.5 90 L 157.5 87 Z " /><path fill="rgb(12,12,12)" stroke="rgb(12,12,12)" stroke-width="0.6" opacity="1" d="M 219.5 97 Q 226.8 96.2 229 100.5 L 232 109 L 230 107.5 L 225.5 103 L 216 99.5 L 219.5 97 Z " /><path fill="rgb(12,12,12)" stroke="rgb(12,12,12)" stroke-width="0.6" opacity="1" d="M 152.5 107 Q 159 107 162 110.5 L 165 117 L 163 115.5 L 158.5 110 L 151.5 109 L 144 114.5 L 141.5 118 L 142 116.5 L 147.5 109 L 152.5 107 Z " /><path fill="rgb(12,12,12)" stroke="rgb(12,12,12)" stroke-width="0.6" opacity="1" d="M 154.5 118 L 161 120.5 L 162.5 123 Q 165.9 123.8 164 119 L 166 119 Q 166 132.3 159 139.5 L 160 142 Q 153.3 139.8 141.5 141 L 140 139.5 L 147 137.5 L 146 127.5 L 150.5 120 L 154.5 118 Z M 159 121 L 157 122 L 154 126 L 155 129 L 160 130 Q 163 129 162 124 L 159 121 Z " /><path fill="rgb(12,12,12)" stroke="rgb(12,12,12)" stroke-width="0.6" opacity="1" d="M 211.5 118 Q 223.7 116.3 227 123.5 L 229 129 L 227 127.5 L 222.5 122 Q 219.2 118.8 211.5 120 L 202 127.5 L 200.5 131 L 200 128.5 L 207.5 120 L 211.5 118 Z " /><path fill="rgb(12,12,12)" stroke="rgb(12,12,12)" stroke-width="0.6" opacity="1" d="M 215.5 129 Q 221.7 128.3 223 132.5 L 224 134.5 L 221.5 133 Q 215.8 132.3 215 136.5 L 218.5 142 L 225 139 L 225 143.5 L 220.5 154 L 209.5 154 L 209 152.5 Q 203.9 149.1 206 138.5 L 212.5 130 L 215.5 129 Z " /><path fill="rgb(12,12,12)" stroke="rgb(12,12,12)" stroke-width="0.6" opacity="1" d="M 132.5 143 L 126.5 150 L 126 148.5 L 132.5 143 Z " /><path fill="rgb(12,12,12)" stroke="rgb(12,12,12)" stroke-width="0.6" opacity="1" d="M 239.5 190 L 240 191.5 Q 233.2 199.7 222.5 204 L 220.5 204 L 211 206 Q 209.7 202.7 214.5 204 Q 230.1 200.1 239.5 190 Z " /><path fill="rgb(131,93,55)" stroke="rgb(131,93,55)" stroke-width="0.6" opacity="1" d="M 157.5 122 L 162 124.5 L 158.5 130 L 155 127.5 Q 154.3 122.8 157.5 122 Z " /><path fill="rgb(131,93,55)" stroke="rgb(131,93,55)" stroke-width="0.6" opacity="1" d="M 327.5 230 Q 342.5 228.5 347 237.5 L 348 248.5 L 344.5 255 L 338.5 258 L 335.5 257 L 332.5 258 L 332.5 256 L 329.5 257 L 329 255 Q 325.2 253.5 326 256.5 L 324.5 256 L 321.5 258 L 317 257 L 316.5 259 L 311 255.5 Q 308.5 237.5 319.5 233 L 327.5 230 Z " /><path fill="rgb(131,93,55)" stroke="rgb(131,93,55)" stroke-width="0.6" opacity="1" d="M 390.5 236 L 397 239.5 L 399.5 243 L 405 247.5 Q 414.9 259.1 415 280.5 L 411.5 286 L 395.5 285 L 384 274.5 L 370 256.5 L 369 251.5 L 370 245.5 L 373.5 241 L 377.5 238 L 390.5 236 Z " /><path fill="rgb(131,93,55)" stroke="rgb(131,93,55)" stroke-width="0.6" opacity="1" d="M 220.5 245 Q 228 243 230 246.5 L 213 274 L 209.5 275 L 204 266.5 Q 205.5 254.5 213.5 249 L 220.5 245 Z " /><path fill="rgb(131,93,55)" stroke="rgb(131,93,55)" stroke-width="0.6" opacity="1" d="M 319.5 270 Q 339.2 267.8 348 276.5 L 350 283.5 L 346.5 289 L 342 292.5 L 342.5 294 Q 318.8 311.8 279.5 314 L 275 313 L 274.5 315 L 272.5 314 L 271.5 315 L 258.5 315 L 256.5 314 L 255 314.5 Q 255.8 311.9 252.5 313 L 245.5 314 L 235 312 L 234 309.5 L 241.5 307 L 244 308 L 245.5 306 L 262.5 298 L 299.5 276 L 316.5 271 Q 318 273.5 319.5 270 Z " /><path fill="rgb(131,93,55)" stroke="rgb(131,93,55)" stroke-width="0.6" opacity="1" d="M 121.5 326 L 124 326.5 Q 130.5 344.5 144.5 355 L 154 361.5 L 149.5 363 Q 133 357 123 344.5 Q 119.2 339.8 119 331.5 L 121.5 326 Z " /><path fill="rgb(131,93,55)" stroke="rgb(131,93,55)" stroke-width="0.6" opacity="1" d="M 90 353 L 102.5 354 L 109.5 357 L 111 356.5 L 113 359.5 L 117 361 L 126.5 373 L 128 373.5 L 127 376.5 L 128 379 L 130 379.5 L 127 388.5 L 127.5 390 Q 125.5 387 123.5 392 L 106.5 394 Q 93.4 388.6 85 378.5 Q 80.8 373.7 82 363.5 L 87 356.5 L 86.5 355 L 88.5 356 L 90 353 Z " /><path fill="rgb(238,196,53)" stroke="rgb(238,196,53)" stroke-width="0.6" opacity="1" d="M 151.5 111 Q 157.7 110.3 160 113.5 L 158.5 117 Q 148.9 115.9 147 122.5 L 144 133.5 L 144.5 137 L 141 135.5 L 140 127.5 Q 141.7 117.2 148.5 112 L 151.5 111 Z " /><path fill="rgb(238,196,53)" stroke="rgb(238,196,53)" stroke-width="0.6" opacity="1" d="M 157.5 191 L 164 192.5 L 162 193 L 160.5 195 L 149 208.5 L 138.5 236 L 137 230.5 L 138 227 L 134.5 228 L 132.5 227 L 127.5 230 L 129.5 227 Q 132.8 228.1 132 225.5 L 139 219.5 L 147 201.5 L 155.5 192 L 157.5 191 Z " /><path fill="rgb(238,196,53)" stroke="rgb(238,196,53)" stroke-width="0.6" opacity="1" d="M 320.5 259 Q 342.5 256.5 351 267.5 L 353 272.5 Q 351 276 349 271.5 L 349.5 270 L 334.5 265 L 318.5 265 L 297.5 271 L 275 283 L 275 280 L 278 280 L 279.5 278 L 302.5 264 L 320.5 259 Z " /><path fill="rgb(238,196,53)" stroke="rgb(238,196,53)" stroke-width="0.6" opacity="1" d="M 272.5 283 L 274 285 L 265.5 289 L 266 287.5 L 267.5 286 L 272.5 283 Z " /><path fill="rgb(238,196,53)" stroke="rgb(238,196,53)" stroke-width="0.6" opacity="1" d="M 220 302 Q 226.2 300.7 229 303.5 L 222.5 306 L 220 305 L 220 302 Z " /><path fill="rgb(238,196,53)" stroke="rgb(238,196,53)" stroke-width="0.6" opacity="1" d="M 428.5 302 Q 440.4 299.6 444 305.5 L 447 310.5 L 447 325.5 Q 444.1 337.1 435.5 343 L 423.5 346 L 414 339.5 L 413 326.5 L 421.5 308 L 424 306.5 L 425.5 304 L 428.5 302 Z " /><path fill="rgb(238,196,53)" stroke="rgb(238,196,53)" stroke-width="0.6" opacity="1" d="M 373.5 350 L 384.5 350 L 393 356.5 Q 398.1 359.9 397 369.5 L 397 371.5 Q 394.9 380.9 388.5 386 Q 375.6 397.6 351.5 398 L 349.5 397 L 347.5 397 L 338.5 396 L 329 389.5 Q 326 386.5 327 379.5 L 331.5 372 Q 334.8 373.1 334 370.5 L 357.5 360 L 373.5 350 Z " /><path fill="rgb(238,196,53)" stroke="rgb(238,196,53)" stroke-width="0.6" opacity="1" d="M 271.5 397 Q 290.7 395.8 298 406.5 L 300 415.5 L 296.5 422 L 294 423.5 L 292.5 426 L 282.5 430 L 266.5 431 L 254.5 428 L 251 425.5 Q 245 422.5 247 411.5 L 251.5 405 Q 259.1 398.6 271.5 397 Z " /><path fill="rgb(77,81,69)" stroke="rgb(77,81,69)" stroke-width="0.6" opacity="1" d="M 238.5 88 L 244.5 95 L 238.5 88 Z " /><path fill="rgb(77,81,69)" stroke="rgb(77,81,69)" stroke-width="0.6" opacity="1" d="M 226.5 144 L 227.5 146 L 226 146.5 L 226.5 148 L 225.5 147 L 222 149.5 L 224 145 L 226.5 144 Z " /><path fill="rgb(77,81,69)" stroke="rgb(77,81,69)" stroke-width="0.6" opacity="1" d="M 214.5 227 L 215 228.5 L 209.5 236 L 209 234.5 L 214.5 227 Z " /><path fill="rgb(77,81,69)" stroke="rgb(77,81,69)" stroke-width="0.6" opacity="1" d="M 337 229 L 344 232 L 346 235.5 L 346.5 237 Q 343.8 231.3 337 231 L 337 229 Z " /><path fill="rgb(77,81,69)" stroke="rgb(77,81,69)" stroke-width="0.6" opacity="1" d="M 320.5 231 L 322 231.5 L 312.5 240 L 313 238.5 L 317.5 233 L 320.5 231 Z " /><path fill="rgb(77,81,69)" stroke="rgb(77,81,69)" stroke-width="0.6" opacity="1" d="M 376.5 238 L 374.5 241 Q 370.8 239.8 372 243.5 L 368.5 252 L 368 247.5 L 373.5 239 L 376.5 238 Z " /><path fill="rgb(77,81,69)" stroke="rgb(77,81,69)" stroke-width="0.6" opacity="1" d="M 311.5 241 L 312 243.5 L 311 255.5 L 315 258 Q 316.3 261 312.5 260 L 309.5 261 L 311 258.5 L 309 254.5 L 309 249.5 L 309 247.5 L 311.5 241 Z " /><path fill="rgb(77,81,69)" stroke="rgb(77,81,69)" stroke-width="0.6" opacity="1" d="M 216.5 245 L 220 245.5 L 212.5 249 L 213.5 247 L 216.5 245 Z " /><path fill="rgb(77,81,69)" stroke="rgb(77,81,69)" stroke-width="0.6" opacity="1" d="M 210.5 250 L 210 251.5 L 206 261 L 204 259.5 L 210.5 250 Z " /><path fill="rgb(77,81,69)" stroke="rgb(77,81,69)" stroke-width="0.6" opacity="1" d="M 190.5 255 L 191 256.5 L 185.5 263 L 185 261.5 L 190.5 255 Z " /><path fill="rgb(77,81,69)" stroke="rgb(77,81,69)" stroke-width="0.6" opacity="1" d="M 335 257 L 344 259.5 L 343.5 261 L 337.5 258 L 335 259 L 335 257 Z " /><path fill="rgb(77,81,69)" stroke="rgb(77,81,69)" stroke-width="0.6" opacity="1" d="M 345.5 261 L 353 266.5 L 356 273.5 L 354 274 Q 353.2 265.9 346.5 262 L 345.5 261 Z " /><path fill="rgb(77,81,69)" stroke="rgb(77,81,69)" stroke-width="0.6" opacity="1" d="M 301.5 262 L 304 262.5 L 296.5 266 L 297.5 264 L 301.5 262 Z " /><path fill="rgb(77,81,69)" stroke="rgb(77,81,69)" stroke-width="0.6" opacity="1" d="M 204.5 267 L 211 277.5 L 210 277.5 L 208.5 276 L 204 270.5 L 204.5 267 Z " /><path fill="rgb(77,81,69)" stroke="rgb(77,81,69)" stroke-width="0.6" opacity="1" d="M 286.5 270 L 288 272 L 271.5 282 L 272.5 280 L 286.5 270 Z " /><path fill="rgb(77,81,69)" stroke="rgb(77,81,69)" stroke-width="0.6" opacity="1" d="M 380.5 270 L 393 283.5 L 391.5 284 L 385 278.5 L 380.5 270 Z " /><path fill="rgb(77,81,69)" stroke="rgb(77,81,69)" stroke-width="0.6" opacity="1" d="M 396.5 285 L 410 286.5 Q 408 290 400.5 288 L 396.5 285 Z " /><path fill="rgb(77,81,69)" stroke="rgb(77,81,69)" stroke-width="0.6" opacity="1" d="M 243.5 295 L 246 295.5 L 233 300 Q 231.7 296.7 236.5 298 L 243.5 295 Z " /><path fill="rgb(77,81,69)" stroke="rgb(77,81,69)" stroke-width="0.6" opacity="1" d="M 367.5 297 L 371 299.5 L 373 303.5 L 372 303.5 L 367.5 297 Z " /><path fill="rgb(77,81,69)" stroke="rgb(77,81,69)" stroke-width="0.6" opacity="1" d="M 165 315 Q 168.3 313.7 167 318.5 L 169 324.5 L 167 323.5 L 167.5 322 Q 164.5 322.9 166 318.5 L 165 315 Z " /><path fill="rgb(77,81,69)" stroke="rgb(77,81,69)" stroke-width="0.6" opacity="1" d="M 67.5 327 L 72.5 333 L 70 332 L 68 328.5 L 67.5 327 Z " /><path fill="rgb(77,81,69)" stroke="rgb(77,81,69)" stroke-width="0.6" opacity="1" d="M 193.5 327 L 198.5 333 L 193 328.5 L 193.5 327 Z " /><path fill="rgb(77,81,69)" stroke="rgb(77,81,69)" stroke-width="0.6" opacity="1" d="M 238.5 327 L 239 328.5 L 231.5 335 L 238.5 327 Z " /><path fill="rgb(77,81,69)" stroke="rgb(77,81,69)" stroke-width="0.6" opacity="1" d="M 285.5 370 L 286 372 L 277 373 Q 275.9 369.3 284.5 371 L 285.5 370 Z " /><path fill="rgb(77,81,69)" stroke="rgb(77,81,69)" stroke-width="0.6" opacity="1" d="M 437.5 370 L 437 371.5 L 433.5 376 L 432 375.5 L 437.5 370 Z " /><path fill="rgb(77,81,69)" stroke="rgb(77,81,69)" stroke-width="0.6" opacity="1" d="M 81 372 Q 84.3 370.7 83 375.5 L 87 381.5 L 86 381.5 L 81 372 Z " /><path fill="rgb(77,81,69)" stroke="rgb(77,81,69)" stroke-width="0.6" opacity="1" d="M 429.5 378 L 431 378.5 L 429 379 L 427.5 381 L 424.5 383 L 424.5 382 L 429.5 378 Z " /><path fill="rgb(77,81,69)" stroke="rgb(77,81,69)" stroke-width="0.6" opacity="1" d="M 431.5 383 L 425.5 390 L 431.5 383 Z " /><path fill="rgb(77,81,69)" stroke="rgb(77,81,69)" stroke-width="0.6" opacity="1" d="M 91.5 385 L 104 392.5 L 102.5 393 Q 94.1 390.7 91.5 385 Z " /><path fill="rgb(77,81,69)" stroke="rgb(77,81,69)" stroke-width="0.6" opacity="1" d="M 127.5 388 L 127 389.5 L 125.5 391 L 119.5 395 L 112 395 L 112.5 393 L 120.5 393 L 127.5 388 Z " /><path fill="rgb(77,81,69)" stroke="rgb(77,81,69)" stroke-width="0.6" opacity="1" d="M 270 395 L 280.5 395 L 281 397 L 270.5 397 L 270 395 Z " /><path fill="rgb(77,81,69)" stroke="rgb(77,81,69)" stroke-width="0.6" opacity="1" d="M 406.5 395 L 405.5 397 L 400.5 400 L 401.5 398 L 406.5 395 Z " /><path fill="rgb(77,81,69)" stroke="rgb(77,81,69)" stroke-width="0.6" opacity="1" d="M 293.5 400 L 298 403.5 L 299 405.5 L 293.5 400 Z " /><path fill="rgb(77,81,69)" stroke="rgb(77,81,69)" stroke-width="0.6" opacity="1" d="M 199.5 401 L 208 406.5 L 209 408.5 L 203.5 404 L 199.5 401 Z " /><path fill="rgb(77,81,69)" stroke="rgb(77,81,69)" stroke-width="0.6" opacity="1" d="M 254.5 401 L 247.5 409 L 248 407.5 L 252.5 402 L 254.5 401 Z " /><path fill="rgb(77,81,69)" stroke="rgb(77,81,69)" stroke-width="0.6" opacity="1" d="M 332.5 427 L 334 429 L 326 431 Q 324.8 428 328.5 429 L 332.5 427 Z " /><path fill="rgb(77,81,69)" stroke="rgb(77,81,69)" stroke-width="0.6" opacity="1" d="M 255.5 440 L 269 440.5 L 255.5 441 L 255.5 440 Z " /><path fill="rgb(49,50,49)" stroke="rgb(49,50,49)" stroke-width="0.6" opacity="1" d="M 147.5 85 L 140.5 93 L 147.5 85 Z " /><path fill="rgb(49,50,49)" stroke="rgb(49,50,49)" stroke-width="0.6" opacity="1" d="M 141.5 115 L 142 116.5 L 141.5 119 L 140 119.5 L 141 121.5 L 139.5 137 Q 135.8 132.8 138 122.5 L 141.5 115 Z " /><path fill="rgb(49,50,49)" stroke="rgb(49,50,49)" stroke-width="0.6" opacity="1" d="M 137.5 140 Q 142.3 138.7 141 142 L 132.5 145 Q 129.5 143.5 132.5 142 L 137.5 140 Z " /><path fill="rgb(49,50,49)" stroke="rgb(49,50,49)" stroke-width="0.6" opacity="1" d="M 226.5 146 L 226 147.5 L 221.5 154 L 222 152.5 L 224 148.5 L 223.5 147 Q 225 149.5 226.5 146 Z " /><path fill="rgb(49,50,49)" stroke="rgb(49,50,49)" stroke-width="0.6" opacity="1" d="M 199.5 149 L 206 154.5 L 203 155 L 201 150 L 199.5 149 Z " /><path fill="rgb(49,50,49)" stroke="rgb(49,50,49)" stroke-width="0.6" opacity="1" d="M 197.5 185 L 198 186.5 L 187 196.5 L 197.5 185 Z " /><path fill="rgb(49,50,49)" stroke="rgb(49,50,49)" stroke-width="0.6" opacity="1" d="M 162 204 L 171.5 204 L 172 205.5 L 170.5 207 L 162 207 L 162 204 Z " /><path fill="rgb(49,50,49)" stroke="rgb(49,50,49)" stroke-width="0.6" opacity="1" d="M 108.5 303 L 109 304.5 L 101 311.5 L 108.5 303 Z " /><path fill="rgb(49,50,49)" stroke="rgb(49,50,49)" stroke-width="0.6" opacity="1" d="M 396.5 329 L 389.5 337 L 396.5 329 Z " /><path fill="rgb(49,50,49)" stroke="rgb(49,50,49)" stroke-width="0.6" opacity="1" d="M 55.5 336 L 56 346.5 L 55 346.5 L 55.5 336 Z " /><path fill="rgb(49,50,49)" stroke="rgb(49,50,49)" stroke-width="0.6" opacity="1" d="M 138.5 343 L 144.5 350 L 138.5 343 Z " /><path fill="rgb(49,50,49)" stroke="rgb(49,50,49)" stroke-width="0.6" opacity="1" d="M 134.5 344 L 143.5 354 L 134.5 344 Z " /><path fill="rgb(49,50,49)" stroke="rgb(49,50,49)" stroke-width="0.6" opacity="1" d="M 123.5 345 L 130.5 353 L 123.5 345 Z " /><path fill="rgb(49,50,49)" stroke="rgb(49,50,49)" stroke-width="0.6" opacity="1" d="M 178 428 L 187.5 428 L 188 430 L 178.5 430 L 178 428 Z " /><path fill="rgb(76,110,73)" stroke="rgb(76,110,73)" stroke-width="0.6" opacity="1" d="M 164.5 142 L 171 145 L 169.5 147 L 167 146 L 166.5 144 L 164.5 145 L 164.5 142 Z " /><path fill="rgb(76,110,73)" stroke="rgb(76,110,73)" stroke-width="0.6" opacity="1" d="M 290 222 Q 293.7 220.7 292 226.5 L 288.5 234 L 288 231.5 L 291 226.5 L 290 222 Z " /><path fill="rgb(76,110,73)" stroke="rgb(76,110,73)" stroke-width="0.6" opacity="1" d="M 198.5 246 Q 202 248 197.5 250 L 196.5 249 L 192 252.5 L 198 248 L 198.5 246 Z " /><path fill="rgb(76,110,73)" stroke="rgb(76,110,73)" stroke-width="0.6" opacity="1" d="M 367.5 248 L 370 254.5 L 370 256.5 L 371 258.5 L 369 257.5 L 367.5 248 Z " /><path fill="rgb(76,110,73)" stroke="rgb(76,110,73)" stroke-width="0.6" opacity="1" d="M 295.5 265 L 296 267 L 288.5 270 L 288.5 269 L 295.5 265 Z " /><path fill="rgb(76,110,73)" stroke="rgb(76,110,73)" stroke-width="0.6" opacity="1" d="M 179.5 268 L 182 268.5 Q 180 272.2 178 270.5 L 179 272.5 L 175.5 277 Q 171.7 274.7 177 272.5 L 179.5 268 Z " /><path fill="rgb(76,110,73)" stroke="rgb(76,110,73)" stroke-width="0.6" opacity="1" d="M 172.5 278 L 174 280.5 L 171 282.5 L 171.5 284 L 170 284.5 L 170.5 286 L 169 286.5 L 169 288.5 L 167 290 L 172.5 278 Z " /><path fill="rgb(76,110,73)" stroke="rgb(76,110,73)" stroke-width="0.6" opacity="1" d="M 263.5 285 L 263 286.5 L 262.5 288 L 261 287.5 L 259.5 290 L 258 289.5 L 257.5 291 L 256.5 289 L 258.5 288 L 260 288.5 L 261.5 286 L 263.5 285 Z " /><path fill="rgb(76,110,73)" stroke="rgb(76,110,73)" stroke-width="0.6" opacity="1" d="M 192.5 298 Q 195.5 299.5 192.5 301 L 191 301.5 L 191.5 303 L 189.5 304 L 190 302.5 L 191.5 300 L 193 299.5 L 192.5 298 Z " /><path fill="rgb(76,110,73)" stroke="rgb(76,110,73)" stroke-width="0.6" opacity="1" d="M 373 315 Q 376 313.8 375 317.5 L 370.5 325 Q 367.5 323.5 370.5 322 L 372 322.5 L 373 320.5 L 372 318.5 L 373 315 Z " /><path fill="rgb(76,110,73)" stroke="rgb(76,110,73)" stroke-width="0.6" opacity="1" d="M 367.5 325 L 367 328.5 L 364.5 331 L 363 329.5 L 367.5 325 Z " /><path fill="rgb(76,110,73)" stroke="rgb(76,110,73)" stroke-width="0.6" opacity="1" d="M 91.5 327 Q 95 329 90.5 331 L 85.5 334 L 85 332.5 L 91.5 327 Z " /><path fill="rgb(76,110,73)" stroke="rgb(76,110,73)" stroke-width="0.6" opacity="1" d="M 197.5 332 L 202.5 335 Q 210.5 334.5 214 338.5 L 210.5 339 L 198.5 334 L 197.5 332 Z " /><path fill="rgb(76,110,73)" stroke="rgb(76,110,73)" stroke-width="0.6" opacity="1" d="M 347.5 335 L 349 337 L 345.5 338 L 343.5 337 L 341 338 L 341.5 336 L 343.5 336 L 347.5 335 Z " /><path fill="rgb(76,110,73)" stroke="rgb(76,110,73)" stroke-width="0.6" opacity="1" d="M 187.5 344 L 190.5 348 L 193 348.5 L 193.5 350 L 195 349.5 Q 193.3 352.8 191.5 349 L 186 345.5 L 187.5 344 Z " /><path fill="rgb(76,110,73)" stroke="rgb(76,110,73)" stroke-width="0.6" opacity="1" d="M 259.5 345 L 261 346.5 L 259 346.5 L 256.5 350 L 256.5 347 L 259.5 345 Z " /><path fill="rgb(76,110,73)" stroke="rgb(76,110,73)" stroke-width="0.6" opacity="1" d="M 198.5 351 L 200.5 354 L 202.5 353 L 208 356.5 L 205 356.5 L 204.5 355 L 202.5 356 L 199 353.5 L 198.5 352 L 196.5 353 L 196.5 352 L 198.5 351 Z " /><path fill="rgb(76,110,73)" stroke="rgb(76,110,73)" stroke-width="0.6" opacity="1" d="M 299.5 361 L 301 363.5 L 297 365.5 L 297.5 367 Q 293.7 364.7 299 362.5 L 299.5 361 Z " /><path fill="rgb(76,110,73)" stroke="rgb(76,110,73)" stroke-width="0.6" opacity="1" d="M 222.5 362 L 232 365.5 L 231.5 367 L 229.5 365 L 221 363.5 L 222.5 362 Z " /><path fill="rgb(76,110,73)" stroke="rgb(76,110,73)" stroke-width="0.6" opacity="1" d="M 422.5 384 L 424 384.5 L 411.5 393 L 413.5 390 L 416 390 L 417.5 388 L 422.5 384 Z " /><path fill="rgb(76,110,73)" stroke="rgb(76,110,73)" stroke-width="0.6" opacity="1" d="M 383.5 407 L 385.5 408 L 387 407.5 Q 374.4 415.9 357.5 420 L 358.5 418 L 364.5 416 L 366 416.5 L 367.5 415 L 383.5 407 Z " /><path fill="rgb(76,110,73)" stroke="rgb(76,110,73)" stroke-width="0.6" opacity="1" d="M 351.5 421 L 353.5 421 L 355 421.5 L 342 426 Q 340.7 422.7 345.5 424 L 351.5 421 Z " /><path fill="rgb(76,110,73)" stroke="rgb(76,110,73)" stroke-width="0.6" opacity="1" d="M 325.5 429 L 326 430.5 Q 323 433.9 317 433 Q 315.7 429.7 320.5 431 L 325.5 429 Z " /><path fill="rgb(76,110,73)" stroke="rgb(76,110,73)" stroke-width="0.6" opacity="1" d="M 239.5 440 L 255 440.5 L 239.5 441 L 239.5 440 Z " /><path fill="rgb(115,123,72)" stroke="rgb(115,123,72)" stroke-width="0.6" opacity="1" d="M 99.5 280 L 108 282.5 L 106.5 283 L 99.5 281 L 99.5 280 Z " /><path fill="rgb(115,123,72)" stroke="rgb(115,123,72)" stroke-width="0.6" opacity="1" d="M 439 300 L 443 302.5 L 444.5 305 L 446 306.5 L 442 303.5 L 440.5 301 L 439 301.5 L 439 300 Z " /><path fill="rgb(115,123,72)" stroke="rgb(115,123,72)" stroke-width="0.6" opacity="1" d="M 418.5 311 L 418 312.5 Q 419.1 315.8 416.5 315 L 417 316.5 L 415.5 319 L 414 318.5 L 416 317.5 L 415 315.5 L 418.5 311 Z " /><path fill="rgb(115,123,72)" stroke="rgb(115,123,72)" stroke-width="0.6" opacity="1" d="M 448.5 328 L 448 329.5 L 444.5 336 L 443 336.5 L 442.5 339 L 443.5 335 L 445 334.5 L 444.5 333 L 446 332.5 L 445.5 331 L 447 330.5 L 446.5 329 L 448.5 328 Z " /><path fill="rgb(115,123,72)" stroke="rgb(115,123,72)" stroke-width="0.6" opacity="1" d="M 416.5 344 L 423 346 L 422.5 348 L 419 347 L 418.5 345 Q 416.7 347.5 416.5 344 Z " /><path fill="rgb(115,123,72)" stroke="rgb(115,123,72)" stroke-width="0.6" opacity="1" d="M 330.5 371 L 329 373.5 L 327.5 375 L 327.5 377 L 326 375.5 L 330.5 371 Z " /><path fill="rgb(115,123,72)" stroke="rgb(115,123,72)" stroke-width="0.6" opacity="1" d="M 381.5 391 L 384 391.5 L 374 396 Q 372.8 393 376.5 394 L 379 393.5 L 379.5 392 L 381 392.5 L 381.5 391 Z " /><path fill="rgb(115,123,72)" stroke="rgb(115,123,72)" stroke-width="0.6" opacity="1" d="M 332.5 394 L 335 394.5 L 335.5 396 L 337 395.5 L 337.5 397 L 340 396 L 341 398.5 L 339.5 398 Q 333 397.5 332.5 394 Z " /><path fill="rgb(115,123,72)" stroke="rgb(115,123,72)" stroke-width="0.6" opacity="1" d="M 247.5 407 L 247.5 410 L 246 410.5 L 247 412.5 L 244.5 414 L 245 412.5 L 247.5 407 Z " /><path fill="rgb(115,123,72)" stroke="rgb(115,123,72)" stroke-width="0.6" opacity="1" d="M 249.5 426 L 253 427.5 L 253.5 429 L 255 428.5 L 255.5 430 L 257.5 429 L 259 431.5 L 257.5 431 Q 250.6 430.3 249.5 426 Z " /><path fill="rgb(131,160,75)" stroke="rgb(131,160,75)" stroke-width="0.6" opacity="1" d="M 219.5 133 L 223 135.5 L 220.5 134 L 218 135.5 L 221 141 L 216 138.5 L 219.5 133 Z " /><path fill="rgb(131,160,75)" stroke="rgb(131,160,75)" stroke-width="0.6" opacity="1" d="M 450.5 316 L 451.5 322 L 453.5 319 L 454 332.5 L 453 332.5 L 453 325 L 450 325 L 449.5 327 L 449 325.5 L 450.5 316 Z " /><path fill="rgb(131,160,75)" stroke="rgb(131,160,75)" stroke-width="0.6" opacity="1" d="M 236.5 383 L 256 383.5 L 236.5 384 L 236.5 383 Z " /><path fill="rgb(131,160,75)" stroke="rgb(131,160,75)" stroke-width="0.6" opacity="1" d="M 326.5 388 L 332 394.5 L 327 390.5 L 326.5 388 Z " /><path fill="rgb(131,160,75)" stroke="rgb(131,160,75)" stroke-width="0.6" opacity="1" d="M 163.5 427 L 165 427.5 L 163 430.5 L 163.5 432 L 159 430.5 L 162 430 L 163.5 427 Z " /><path fill="rgb(112,116,107)" stroke="rgb(112,116,107)" stroke-width="0.6" opacity="1" d="M 437.5 279 L 442.5 285 L 437.5 279 Z " /><path fill="rgb(112,116,107)" stroke="rgb(112,116,107)" stroke-width="0.6" opacity="1" d="M 351 292 L 354.5 293 L 359 292 L 357.5 294 L 352.5 295 L 351 292 Z " /><path fill="rgb(112,116,107)" stroke="rgb(112,116,107)" stroke-width="0.6" opacity="1" d="M 75.5 391 L 81.5 398 L 75.5 391 Z " /><path fill="rgb(158,159,156)" stroke="rgb(158,159,156)" stroke-width="0.6" opacity="1" d="M 183.5 68 L 195 68.5 L 183.5 69 L 183.5 68 Z " /><path fill="rgb(158,159,156)" stroke="rgb(158,159,156)" stroke-width="0.6" opacity="1" d="M 268.5 163 L 269 173.5 L 268 173.5 L 268.5 163 Z " /><path fill="rgb(158,159,156)" stroke="rgb(158,159,156)" stroke-width="0.6" opacity="1" d="M 323.5 210 L 337 210.5 L 323.5 211 L 323.5 210 Z " /><path fill="rgb(158,159,156)" stroke="rgb(158,159,156)" stroke-width="0.6" opacity="1" d="M 120.5 317 L 123 318.5 L 119.5 323 L 118 321.5 L 119.5 319 L 120.5 321 L 122 318 L 120.5 317 Z " /><path fill="rgb(158,159,156)" stroke="rgb(158,159,156)" stroke-width="0.6" opacity="1" d="M 438.5 371 Q 441.5 372.5 438.5 374 L 437.5 373 L 433 376.5 L 438.5 371 Z " /><path fill="rgb(218,185,57)" stroke="rgb(218,185,57)" stroke-width="0.6" opacity="1" d="M 152.5 110 Q 158.9 109.6 161 113.5 L 163 120 L 161 119.5 L 160.5 117 L 158.5 118 L 160 115.5 L 158.5 112 L 152.5 111 L 152.5 110 Z " /><path fill="rgb(218,185,57)" stroke="rgb(218,185,57)" stroke-width="0.6" opacity="1" d="M 146.5 113 L 146 114.5 L 142.5 120 L 143 118.5 L 146.5 113 Z " /><path fill="rgb(218,185,57)" stroke="rgb(218,185,57)" stroke-width="0.6" opacity="1" d="M 158.5 190 L 165 191 L 163.5 194 L 162 193.5 L 164 192.5 L 158.5 191 L 158.5 190 Z " /><path fill="rgb(218,185,57)" stroke="rgb(218,185,57)" stroke-width="0.6" opacity="1" d="M 281.5 280 L 280.5 282 L 270.5 288 L 272.5 285 L 274 283 L 270.5 284 L 270.5 283 L 275 281 L 276.5 283 L 281.5 280 Z " /><path fill="rgb(218,185,57)" stroke="rgb(218,185,57)" stroke-width="0.6" opacity="1" d="M 265.5 286 L 266 287.5 L 265.5 289 L 267 289.5 L 261.5 293 L 261 291 L 259 290.5 L 265.5 286 Z " /><path fill="rgb(218,185,57)" stroke="rgb(218,185,57)" stroke-width="0.6" opacity="1" d="M 257.5 291 L 258 293 L 260 293.5 L 253.5 297 L 254.5 295 L 257 293.5 L 255.5 293 L 251.5 295 L 251.5 294 L 257.5 291 Z " /><path fill="rgb(218,185,57)" stroke="rgb(218,185,57)" stroke-width="0.6" opacity="1" d="M 249.5 295 L 250 297 L 252 297.5 Q 241 304.5 224.5 306 L 224.5 305 L 229 303.5 L 227 302.5 L 234.5 300 L 233.5 302 L 232 302.5 L 236.5 303 L 238.5 299 L 249.5 295 Z " /><path fill="rgb(218,185,57)" stroke="rgb(218,185,57)" stroke-width="0.6" opacity="1" d="M 447.5 312 L 448 323.5 L 447 323.5 L 447.5 312 Z " /><path fill="rgb(218,185,57)" stroke="rgb(218,185,57)" stroke-width="0.6" opacity="1" d="M 390.5 353 L 396 360.5 L 395 360.5 L 390.5 353 Z " /></svg>