<svg width="627" height="627" preserveAspectRatio="xMidYMid meet" viewBox="0 0 512 512" version="1.1" xmlns="http://www.w3.org/2000/svg" ><path fill="rgb(255,255,255)" stroke="rgb(255,255,255)" stroke-width="0.6" opacity="1" d="M 0 0 L 512 0 L 512 512 L 0 512 L 0 0 Z M 205 74 L 189 76 L 176 82 L 169 90 L 169 95 L 190 107 L 197 120 Q 198 129 195 134 L 192 136 Q 164 161 146 197 L 133 232 L 127 264 L 127 312 L 134 346 L 134 357 L 130 361 Q 118 363 110 368 L 98 377 Q 80 391 75 418 Q 74 428 77 435 L 82 438 L 89 437 Q 98 426 115 422 L 136 420 L 151 410 L 152 412 Q 156 418 165 421 L 189 426 Q 198 430 204 437 L 209 437 L 214 427 L 214 410 Q 210 396 203 387 L 193 376 L 180 369 L 175 365 Q 182 333 202 315 Q 216 300 234 290 Q 260 275 291 265 L 294 270 L 296 278 Q 297 289 293 295 L 293 305 L 300 310 L 308 310 L 320 304 Q 341 290 341 256 L 363 264 Q 376 265 384 260 L 391 251 L 391 241 L 387 231 L 390 228 L 409 226 L 424 221 L 430 217 L 437 207 Q 438 197 435 193 L 426 184 L 409 179 L 410 174 Q 412 137 394 120 Q 382 105 365 96 L 341 88 L 322 86 Q 290 83 270 92 L 266 92 Q 254 83 239 78 L 221 74 L 205 74 Z " /><path fill="rgb(83,145,181)" stroke="rgb(83,145,181)" stroke-width="0.6" opacity="1" d="M 196.5 81 L 220.5 81 L 236.5 84 L 258 95.5 L 255.5 99 L 245 104 Q 243.8 107 247.5 106 L 254.5 102 L 275.5 97 L 278.5 95 Q 289.7 96.7 295.5 93 L 325.5 93 L 327.5 94 L 329.5 93 L 345.5 96 L 364.5 103 Q 379.3 110.8 389 123.5 Q 404.6 139.9 404 172.5 L 403 175.5 L 404 177.5 L 397.5 180 L 380.5 181 L 369 186.5 Q 367.7 190.7 372.5 189 L 385.5 185 L 398.5 184 L 400.5 185 L 402.5 184 L 417.5 187 L 430 197.5 L 431 204.5 L 429 209 L 426 210.5 L 424.5 213 L 408.5 220 L 392.5 223 L 374.5 224 L 361.5 223 L 346.5 219 L 335 212 L 338 206 L 332.5 205 L 324 210.5 L 323 215 Q 327.3 216 328.5 213 L 332 216.5 L 336 229.5 L 342.5 237 L 345 238.5 L 347.5 242 L 357.5 248 Q 362.1 250.9 370.5 250 L 378 244.5 L 376 229 L 380.5 228 L 382 235.5 L 385 240.5 L 385 248.5 L 379.5 255 L 368.5 258 L 351.5 254 L 333.5 244 Q 331.8 246.8 326.5 246 L 324.5 245 L 305.5 251 L 284.5 262 L 258.5 271 L 238.5 280 L 235.5 283 L 232.5 283 L 234.5 280 L 238 277.5 L 241.5 273 L 244 271.5 L 256 252.5 L 262.5 233 L 264.5 233 L 284.5 215 Q 291.8 209 303 208 Q 304.8 203.5 299.5 205 L 287.5 209 L 262.5 229 L 258.5 222 Q 255.1 221.1 257 226.5 L 253 245.5 L 239.5 267 L 237 268.5 L 230.5 276 Q 217 290 192.5 293 L 189 290.5 L 188 287.5 L 199 271.5 L 205 238.5 L 212.5 226 L 224 216.5 Q 224.8 213.9 221.5 215 L 210.5 220 L 205 225.5 L 201 231.5 L 198 245.5 L 193.5 250 L 186 255.5 Q 150.8 292.8 151 365.5 L 153.5 374 L 156 372.5 Q 153.7 338.7 160 313.5 L 170 284.5 L 186.5 261 L 195.5 254 L 196 260.5 L 192 272.5 L 183 285.5 L 183 292.5 L 184 295 L 191.5 299 L 198.5 299 L 209.5 296 L 221.5 290 L 219.5 293 L 205 303.5 L 202.5 307 L 192 316.5 Q 180.8 328.3 174 344.5 L 166 370.5 L 167 372.5 L 166 381 L 168 379.5 L 172.5 371 L 189.5 382 L 198 390.5 L 206 404.5 Q 208.9 412.1 208 423.5 L 205.5 429 L 191.5 420 L 168.5 416 L 156 405.5 L 156 396.5 L 154.5 396 L 145.5 408 L 130.5 415 L 105.5 418 L 96.5 422 L 85.5 430 L 82 430 L 81 420.5 L 87 400.5 L 100.5 383 L 113.5 373 Q 122 367.5 134.5 366 L 139 361.5 Q 142.3 356.8 141 347.5 L 133 311.5 L 132 280.5 L 133 278.5 L 132 275.5 L 138 237.5 L 149 205.5 Q 168 164 200.5 136 L 220 122 L 221 119.5 Q 218.7 115.7 216.5 121 L 204.5 128 L 203 126.5 L 202 114.5 L 188.5 99 L 176 92.5 Q 175.3 87.8 178.5 87 L 186.5 83 L 196.5 81 Z M 311 128 L 307 130 L 299 140 L 301 142 L 317 135 L 319 136 Q 324 137 325 135 L 324 131 L 317 128 L 314 129 L 311 128 Z M 315 153 L 307 156 Q 300 161 297 171 L 298 184 L 296 185 L 294 188 L 297 187 L 304 188 L 316 194 L 321 193 Q 326 190 328 183 L 326 171 L 318 164 L 311 165 L 306 171 L 303 172 L 306 163 L 317 157 L 325 159 L 331 168 Q 334 184 326 191 Q 324 195 328 194 L 334 186 L 336 180 Q 338 166 332 161 Q 328 152 315 153 Z " /><path fill="rgb(83,145,181)" stroke="rgb(83,145,181)" stroke-width="0.6" opacity="1" d="M 311.5 170 L 315 171.5 L 316 177 L 310 175.5 L 311.5 170 Z " /><path fill="rgb(0,0,0)" stroke="rgb(0,0,0)" stroke-width="0.6" opacity="1" d="M 204.5 75 L 221.5 75 L 235.5 78 Q 252.6 83.4 265.5 93 L 268.5 93 L 275.5 90 L 292.5 87 L 317.5 87 L 319.5 86 L 341.5 89 L 364.5 97 Q 380.9 105.1 392 118.5 Q 400.8 128.7 406 142.5 L 410 162.5 L 410 171.5 L 409 179.5 L 423.5 184 L 433 191.5 Q 437.9 195.6 436 206.5 L 427.5 217 L 409.5 225 L 389.5 227 L 387 229.5 L 387 235.5 Q 392.1 238.9 391 248.5 L 384.5 258 Q 377.4 264.9 361.5 263 L 340 255 Q 340.4 288.1 320.5 302 L 307.5 309 L 299.5 309 L 294 304.5 Q 292.6 294.6 296 289.5 L 296 273.5 L 291.5 264 Q 259.1 274.6 231.5 290 Q 211.8 301.8 197 318.5 Q 180.1 336.1 174 364.5 L 179.5 370 L 193.5 378 L 201 385.5 L 213 408.5 L 213 426.5 L 207.5 437 L 188.5 425 L 166.5 421 L 153 411.5 L 151.5 408 L 149 409.5 L 146.5 413 L 135.5 419 L 115.5 421 L 102.5 425 L 89.5 435 L 81.5 437 L 78 434.5 Q 74.1 428.4 76 416.5 Q 81.1 393.6 95.5 380 L 111.5 368 Q 118.5 363 129.5 362 L 134 358.5 L 135 345.5 L 127 306.5 L 127 268.5 L 133 234.5 L 147 196.5 Q 163.3 164.8 187.5 141 L 196 133.5 L 197 116.5 L 188.5 105 L 170 94.5 L 170 89.5 L 175.5 83 L 190.5 76 L 203.5 76 L 204.5 75 Z M 198 80 Q 185 81 178 87 Q 174 88 175 93 L 190 100 L 200 113 Q 203 118 202 127 L 205 129 L 215 122 L 217 123 L 199 137 Q 170 161 153 196 L 141 225 L 137 239 L 132 275 L 132 309 L 140 347 L 139 361 L 135 365 Q 114 368 103 380 Q 86 393 81 417 Q 78 428 84 432 L 106 419 L 129 416 L 146 409 L 153 398 L 155 399 L 155 407 L 170 417 L 192 421 L 206 431 L 208 428 L 207 406 L 196 387 L 173 369 L 169 375 Q 170 378 167 377 Q 171 341 191 319 Q 213 294 245 278 L 284 263 L 315 248 L 334 245 L 352 255 L 363 258 Q 373 259 380 256 L 385 250 L 385 240 L 381 228 L 375 230 L 377 245 L 370 250 Q 353 248 345 238 L 336 228 L 333 217 L 330 212 L 327 213 Q 325 217 323 214 L 332 206 L 336 206 L 334 212 L 348 220 L 359 223 L 371 224 L 390 224 L 408 221 L 425 214 L 432 204 L 430 196 L 418 186 L 406 184 Q 385 182 373 188 Q 369 189 370 186 L 385 181 L 403 180 L 404 179 L 403 150 Q 399 135 391 125 Q 371 96 326 92 L 299 92 Q 291 95 281 94 L 253 102 L 251 103 L 260 96 L 236 83 L 220 80 L 198 80 Z M 339 221 L 343 233 Q 351 243 366 247 L 370 246 L 365 233 L 355 225 L 350 225 L 339 221 Z M 367 228 L 365 230 L 372 241 L 374 242 Q 371 238 372 230 L 367 228 Z M 322 251 L 300 259 L 297 262 L 301 274 L 301 292 L 298 298 Q 297 303 301 304 L 309 304 L 318 299 Q 328 291 333 278 Q 337 268 335 253 L 334 251 L 322 251 Z " /><path fill="rgb(0,0,0)" stroke="rgb(0,0,0)" stroke-width="0.6" opacity="1" d="M 310.5 129 Q 321 127 324 132.5 L 322.5 135 L 313.5 135 L 301.5 141 L 300 138.5 L 310.5 129 Z " /><path fill="rgb(0,0,0)" stroke="rgb(0,0,0)" stroke-width="0.6" opacity="1" d="M 313.5 154 Q 326.8 152.8 331 160.5 Q 336.8 166.2 335 179.5 L 331.5 187 L 331 183.5 L 332 182.5 L 332 168.5 Q 330.2 161.3 324.5 158 L 313.5 157 L 306 161.5 Q 299.7 168.2 302 183.5 Q 303.5 186.5 305 183.5 L 304 174.5 L 309.5 167 Q 311.5 164 317.5 165 L 326 172.5 L 327 182.5 L 321.5 191 L 315.5 193 L 298 185.5 L 299 181.5 L 298 170.5 L 306.5 157 L 313.5 154 Z M 311 169 L 309 171 Q 307 176 311 178 Q 316 179 317 176 L 316 172 Q 315 168 311 169 Z " /><path fill="rgb(0,0,0)" stroke="rgb(0,0,0)" stroke-width="0.6" opacity="1" d="M 298.5 206 L 300 208 L 287.5 212 L 260 235.5 Q 253.4 265.4 232.5 281 Q 222.9 289.9 209.5 295 L 198.5 298 L 191.5 298 L 184 293.5 L 184 285.5 Q 192.8 275.3 197 260.5 L 197 252 L 182 264.5 L 167 289.5 L 159 313.5 L 155 344.5 L 155 373 Q 151.5 374.1 153 366.5 L 152 365.5 L 152 343.5 L 156 316.5 L 164 290.5 Q 174.9 265.4 194.5 249 L 199 245.5 Q 200.1 228.6 210.5 221 L 222 216 L 220.5 219 L 209 228.5 L 204 238.5 L 200 266.5 Q 196 278.5 188 286.5 L 188 291.5 Q 190.3 294.7 196.5 294 Q 224.5 287 240 267.5 L 252 249.5 L 257 233.5 L 257 223.5 L 258.5 222 L 262.5 230 L 285.5 211 L 298.5 206 Z " /><path fill="rgb(171,198,211)" stroke="rgb(171,198,211)" stroke-width="0.6" opacity="1" d="M 323.5 251 L 333.5 251 L 335 252.5 Q 336.6 284.6 318.5 297 L 309.5 303 L 301.5 304 Q 297.8 302.8 299 296.5 L 301 293.5 L 301 271.5 L 298 261.5 L 310.5 255 L 323.5 251 Z " /><path fill="rgb(57,101,142)" stroke="rgb(57,101,142)" stroke-width="0.6" opacity="1" d="M 201.5 80 L 216 80.5 L 201.5 81 L 201.5 80 Z " /><path fill="rgb(57,101,142)" stroke="rgb(57,101,142)" stroke-width="0.6" opacity="1" d="M 298.5 92 L 326 92.5 L 298.5 93 L 298.5 92 Z " /><path fill="rgb(57,101,142)" stroke="rgb(57,101,142)" stroke-width="0.6" opacity="1" d="M 302.5 169 L 304 183 L 302 182.5 L 302.5 169 Z " /><path fill="rgb(57,101,142)" stroke="rgb(57,101,142)" stroke-width="0.6" opacity="1" d="M 331.5 169 L 332 181.5 L 331 181.5 L 331.5 169 Z " /><path fill="rgb(57,101,142)" stroke="rgb(57,101,142)" stroke-width="0.6" opacity="1" d="M 339 221 Q 345.1 225.3 355.5 226 L 365 233.5 L 370 244.5 Q 368.8 247.3 363.5 246 Q 352.4 243.1 346 235.5 Q 340.1 230.1 339 221 Z " /><path fill="rgb(57,101,142)" stroke="rgb(57,101,142)" stroke-width="0.6" opacity="1" d="M 366 228 L 372 229.5 Q 373.5 236.5 370.5 236 L 366 228 Z " /><path fill="rgb(57,101,142)" stroke="rgb(57,101,142)" stroke-width="0.6" opacity="1" d="M 151.5 343 L 152 365.5 L 151 365.5 L 151.5 343 Z " /><path fill="rgb(57,101,142)" stroke="rgb(57,101,142)" stroke-width="0.6" opacity="1" d="M 155.5 345 L 156 372.5 L 154 373.5 L 155 372.5 L 155.5 345 Z " /><path fill="rgb(29,29,29)" stroke="rgb(29,29,29)" stroke-width="0.6" opacity="1" d="M 330.5 185 L 331 187.5 L 327.5 192 L 326 191.5 L 330.5 185 Z " /><path fill="rgb(29,29,29)" stroke="rgb(29,29,29)" stroke-width="0.6" opacity="1" d="M 242.5 271 L 236.5 278 L 242.5 271 Z " /><path fill="rgb(77,87,87)" stroke="rgb(77,87,87)" stroke-width="0.6" opacity="1" d="M 190.5 252 L 185.5 258 L 190.5 252 Z " /><path fill="rgb(82,141,169)" stroke="rgb(82,141,169)" stroke-width="0.6" opacity="1" d="M 191.5 144 L 186.5 150 L 191.5 144 Z " /><path fill="rgb(81,126,129)" stroke="rgb(81,126,129)" stroke-width="0.6" opacity="1" d="M 198.5 310 L 193.5 316 L 198.5 310 Z " /><path fill="rgb(203,203,203)" stroke="rgb(203,203,203)" stroke-width="0.6" opacity="1" d="M 189.5 138 L 182.5 146 L 189.5 138 Z " /><path fill="rgb(203,203,203)" stroke="rgb(203,203,203)" stroke-width="0.6" opacity="1" d="M 96.5 378 L 91.5 384 L 96.5 378 Z " /></svg>