<svg width="627" height="627" preserveAspectRatio="xMidYMid meet" viewBox="0 0 512 512" version="1.1" xmlns="http://www.w3.org/2000/svg" ><path fill="rgb(255,255,255)" stroke="rgb(255,255,255)" stroke-width="0.6" opacity="1" d="M 0 0 L 512 0 L 512 512 L 0 512 L 0 0 Z M 169 86 L 166 87 L 156 99 L 157 111 L 167 127 L 167 129 Q 161 121 151 119 L 142 120 L 134 129 L 134 137 L 143 144 Q 158 142 166 147 Q 171 152 170 164 L 140 165 L 115 170 Q 90 178 74 194 Q 58 209 49 232 L 42 260 L 41 295 L 34 310 Q 33 318 37 323 Q 41 329 50 331 L 60 355 L 73 373 Q 94 396 125 409 L 159 420 L 195 424 L 225 424 Q 234 421 247 422 L 258 420 L 264 417 L 291 425 L 317 425 L 328 422 L 334 416 L 334 412 L 325 404 L 323 403 Q 348 391 367 374 Q 386 356 398 331 L 408 302 L 411 279 L 414 271 L 423 264 L 429 264 L 440 261 L 459 250 Q 472 239 477 219 L 477 194 L 474 188 L 470 188 Q 463 196 453 200 L 441 199 L 418 200 L 404 209 L 399 201 L 387 190 L 360 182 Q 353 179 352 170 Q 351 167 346 168 Q 337 176 335 191 L 336 214 L 346 234 Q 355 246 370 253 L 376 263 L 373 276 Q 366 286 352 290 Q 331 292 322 282 L 300 258 L 267 208 Q 239 173 183 167 Q 182 158 186 154 L 197 145 Q 212 147 220 141 Q 225 138 226 131 L 225 123 L 213 113 Q 197 113 190 120 L 191 118 Q 193 100 186 92 Q 182 84 169 86 Z " /><path fill="rgb(83,145,181)" stroke="rgb(83,145,181)" stroke-width="0.6" opacity="1" d="M 168.5 92 Q 179.3 90.2 182 96.5 Q 187.3 103.8 185 118.5 L 180 135.5 L 180 143 L 183 141.5 Q 186.9 131.4 194.5 125 Q 199.7 119.3 209 119 Q 207.8 122 211.5 121 L 213.5 120 L 219 125.5 L 219 130.5 L 214.5 137 L 210.5 139 L 203.5 139 L 200.5 138 L 192.5 140 L 182 149.5 L 178 157.5 L 177 167.5 L 175.5 169 Q 172.8 167.8 174 162.5 L 176 159.5 L 176 138.5 L 172 123.5 L 163 110.5 L 162 101.5 L 168.5 92 Z " /><path fill="rgb(83,145,181)" stroke="rgb(83,145,181)" stroke-width="0.6" opacity="1" d="M 136.5 172 L 169.5 172 L 172.5 174 L 175.5 172 L 178.5 174 Q 180.2 171.2 185.5 172 L 208.5 177 L 233.5 188 Q 250.5 198.5 263 213.5 Q 283.1 238.4 299 267.5 L 318.5 287 L 334.5 295 L 354.5 296 Q 364.9 293.9 371 287.5 Q 386.1 274.9 387 249 L 383 251.5 L 381.5 256 L 380 254.5 L 377 250 L 352 231.5 L 342 212.5 L 342 188.5 L 346 176 L 349 177.5 L 353.5 185 L 363.5 191 L 382.5 195 L 388 199.5 L 389.5 202 L 396 207.5 L 398 215.5 Q 392.5 220.3 393 230 L 396 228.5 Q 399.4 217.3 408.5 212 L 420.5 206 L 454.5 206 Q 464.5 203 470.5 196 L 472 197.5 L 472 211.5 Q 469.2 229.2 459.5 240 L 457 241.5 L 452.5 247 L 438.5 255 L 419.5 259 L 407 270.5 L 402 300.5 L 396 318.5 L 380.5 342 L 374 347.5 L 372.5 350 L 341.5 370 L 323.5 376 L 301.5 378 Q 296.6 363.4 285.5 355 L 268.5 344 L 254.5 343 Q 251.5 344.5 254.5 346 L 267.5 349 L 282 360.5 L 283.5 363 L 287 365.5 L 303 393.5 L 312.5 403 L 327 413.5 Q 319.5 421 302.5 419 L 301.5 418 L 287.5 418 L 273.5 414 Q 257.3 408.3 246 397.5 L 241.5 392 L 239 390.5 L 227 370.5 L 223 356.5 L 223 350 Q 219.2 348.5 220 351.5 L 219 362.5 L 222 372.5 L 227 380.5 L 222.5 382 L 194.5 373 L 177.5 364 L 181.5 369 L 200.5 379 L 220.5 385 L 226.5 385 L 232 388.5 L 245.5 404 L 248 405.5 Q 248.9 408.9 243.5 407 L 207.5 402 L 172.5 389 Q 151.6 378.4 134.5 364 L 120 349.5 L 120.5 348 L 130.5 348 L 133.5 347 L 136.5 348 L 138.5 346 L 153.5 345 L 169.5 338 L 172.5 335 L 176 335 Q 174.9 338.3 179 337 Q 178.6 329.9 172.5 327 Q 166.7 324.9 168 329.5 L 169 330.5 L 165.5 334 L 149.5 340 L 138.5 340 L 136.5 342 L 117.5 342 L 87.5 339 L 66.5 333 L 51.5 326 L 41 317.5 L 40 312.5 L 47 296.5 L 46 293.5 L 48 279.5 L 47 276.5 L 48 265.5 L 50 261.5 L 49 259.5 Q 55.4 216.9 82.5 195 Q 102.2 176.2 136.5 172 Z M 164 174 L 164 176 L 175 181 L 189 181 L 191 179 L 190 176 L 187 177 L 175 177 L 164 174 Z M 185 250 L 182 251 L 179 256 L 181 257 L 192 258 L 199 265 L 202 263 L 201 259 L 193 251 L 185 250 Z M 178 275 L 172 278 L 161 294 L 162 310 L 168 315 L 169 314 L 166 308 Q 164 293 169 287 L 179 279 Q 186 278 190 281 L 196 292 L 196 295 L 195 294 L 194 294 L 193 292 L 187 287 L 176 288 L 169 300 Q 168 312 173 316 L 178 318 L 185 316 L 197 317 L 195 314 L 199 308 L 201 298 L 200 295 L 201 293 L 197 283 Q 192 274 178 275 Z " /><path fill="rgb(83,145,181)" stroke="rgb(83,145,181)" stroke-width="0.6" opacity="1" d="M 380.5 346 L 381 347.5 L 359.5 372 Q 342 389 315.5 397 L 309 391.5 Q 304.2 388.7 305 382 Q 323.4 380.7 338.5 375 Q 356.8 367.3 371 355.5 L 372.5 353 L 380.5 346 Z " /><path fill="rgb(0,0,0)" stroke="rgb(0,0,0)" stroke-width="0.6" opacity="1" d="M 167.5 87 Q 182.2 84.8 186 93.5 Q 192.3 101.2 190 117.5 L 189 122 L 200.5 115 L 212.5 114 L 224 122.5 L 225 131.5 L 220.5 139 L 210.5 144 L 194.5 145 L 184 154.5 L 182 166.5 L 183.5 168 L 207.5 172 L 224.5 178 Q 247.4 187.6 263 204.5 L 300 259.5 L 318.5 281 L 334.5 290 L 354.5 290 Q 365.6 286.6 372 278.5 Q 377.7 273.2 376 260.5 L 369.5 252 Q 357.1 245.9 349 235.5 L 337 213.5 L 335 194.5 L 338 181.5 L 345.5 169 L 351 170.5 Q 352.6 179.4 359.5 183 L 383.5 190 L 397 199.5 L 402.5 210 L 417.5 201 Q 425.7 197.7 438.5 199 L 439.5 200 L 454.5 200 L 461.5 197 L 470.5 188 L 472.5 188 L 477 196.5 L 477 214.5 Q 472.5 238 456.5 250 L 439.5 260 Q 433.1 263.6 422.5 263 L 413 270.5 L 410 278.5 L 407 302.5 L 398 327.5 Q 384.9 357.4 361.5 377 Q 344.5 392.3 322 401 L 323.5 405 L 333 411.5 L 333 415.5 L 327.5 421 L 313.5 425 L 295.5 425 L 280.5 422 L 269.5 417 L 260.5 417 Q 233.8 425.8 196.5 424 L 157.5 419 L 124.5 408 Q 91.2 393.8 70 367.5 Q 57.3 351.7 50.5 330 Q 43 328.6 39 323.5 Q 33.7 319.8 35 309.5 L 42 293.5 L 43 258.5 L 49 233.5 Q 59.2 206.7 79.5 190 Q 94.9 176.4 117.5 170 L 138.5 166 L 169.5 165 L 171 163.5 Q 172 151 165.5 146 L 161.5 144 L 144.5 144 L 135 136.5 L 135 128.5 L 141.5 121 L 151.5 120 Q 160.8 123.2 166 130.5 L 167.5 133 Q 170.5 133.9 169 129.5 Q 164.9 116.6 157 107.5 L 157 98.5 L 165.5 88 L 167.5 87 Z M 170 91 L 168 92 L 162 99 L 163 112 L 172 126 L 175 138 L 175 159 L 174 172 L 173 173 L 170 171 L 139 171 L 121 174 Q 100 180 85 192 Q 64 208 54 235 L 49 253 L 49 263 L 47 266 L 46 299 L 40 311 L 40 318 L 51 326 L 68 334 L 90 340 L 109 342 L 148 341 L 163 337 L 169 333 L 170 331 L 171 328 L 178 334 Q 179 337 176 336 L 175 333 L 167 339 L 151 345 Q 140 343 137 347 L 120 347 L 118 349 L 114 346 Q 95 348 84 342 L 79 344 L 94 363 L 94 364 L 77 344 Q 71 338 62 336 L 59 337 Q 64 353 74 366 Q 93 389 123 402 L 163 415 L 182 417 Q 186 418 185 415 Q 143 406 114 382 L 113 380 Q 139 400 175 411 L 195 416 L 215 418 Q 238 420 254 414 Q 259 416 258 413 L 252 409 L 232 409 L 230 406 L 242 407 Q 249 409 249 406 L 246 403 L 233 391 L 232 387 L 231 385 L 225 385 L 208 381 L 184 369 L 183 367 L 196 374 L 221 382 Q 226 383 228 381 L 224 376 L 220 363 L 220 352 L 222 351 Q 225 377 240 393 Q 252 405 269 413 L 289 419 L 303 419 L 304 420 L 320 419 L 329 415 L 314 403 L 304 394 L 287 365 L 268 348 L 257 345 L 255 343 L 269 345 L 286 356 Q 296 365 302 379 L 323 377 L 341 371 L 375 349 Q 389 336 397 318 L 403 300 L 406 276 L 409 269 L 421 259 L 438 256 L 454 247 Q 470 235 473 210 Q 474 199 471 194 L 469 197 L 459 204 L 455 205 L 422 205 L 408 212 L 396 226 L 394 227 Q 393 220 398 218 Q 399 210 396 207 L 383 194 L 364 190 L 354 184 L 348 174 Q 342 179 341 189 L 341 212 L 351 232 L 373 248 L 380 257 L 382 258 L 384 254 L 386 252 Q 385 272 374 284 Q 367 292 356 295 L 336 295 L 320 287 L 300 268 L 275 228 L 264 214 Q 251 198 234 187 L 208 176 L 190 172 L 177 173 L 179 157 L 183 150 L 193 141 L 200 139 L 215 138 L 220 132 L 220 126 L 213 119 Q 199 118 194 125 L 182 141 L 180 142 L 186 119 Q 188 103 182 96 Q 179 90 170 91 Z M 146 125 L 143 126 Q 138 128 139 136 L 145 139 L 164 140 L 166 142 L 163 134 L 154 125 L 146 125 Z M 382 344 Q 365 363 341 373 L 330 377 L 306 381 L 304 383 L 308 392 L 316 398 Q 340 390 358 375 L 383 347 Q 384 343 382 344 Z " /><path fill="rgb(0,0,0)" stroke="rgb(0,0,0)" stroke-width="0.6" opacity="1" d="M 166.5 174 L 171.5 177 L 186.5 178 L 188.5 177 Q 191.5 178.5 188.5 180 L 181.5 181 L 171.5 180 L 165 175.5 L 166.5 174 Z " /><path fill="rgb(0,0,0)" stroke="rgb(0,0,0)" stroke-width="0.6" opacity="1" d="M 185.5 250 L 191.5 251 L 201 259.5 Q 202.7 264.3 198.5 263 L 191.5 257 L 181.5 256 L 180 254.5 L 181.5 252 L 185.5 250 Z " /><path fill="rgb(0,0,0)" stroke="rgb(0,0,0)" stroke-width="0.6" opacity="1" d="M 176.5 276 L 187.5 276 L 198 285.5 Q 201.4 291.6 200 302.5 L 194 313.5 L 195 316 L 176.5 317 L 172 313.5 Q 168.2 308.8 170 298.5 Q 171.8 291.3 177.5 288 L 185.5 287 L 193 293.5 L 194 299 L 196 298.5 L 196 290.5 L 189.5 280 L 181.5 278 Q 171.7 279.2 168 286.5 Q 163.4 293.4 165 306.5 L 168 312.5 Q 166.5 315.5 165 312.5 Q 159.8 306.7 162 293.5 Q 165.1 283.6 172.5 278 L 176.5 276 Z M 187 292 L 185 293 L 182 297 L 183 301 Q 184 304 189 303 Q 192 301 191 296 L 187 292 Z " /><path fill="rgb(0,0,0)" stroke="rgb(0,0,0)" stroke-width="0.6" opacity="1" d="M 120.5 351 Q 152.4 386.9 205 401 L 203.5 403 Q 151.3 388.3 120 352.5 L 120.5 351 Z " /><path fill="rgb(0,0,0)" stroke="rgb(0,0,0)" stroke-width="0.6" opacity="1" d="M 211 403 L 226 405 Q 227.1 408.8 218.5 407 L 211 405 L 211 403 Z " /><path fill="rgb(171,198,211)" stroke="rgb(171,198,211)" stroke-width="0.6" opacity="1" d="M 147.5 125 L 153.5 126 L 163 134.5 L 165 140 L 162.5 139 L 145.5 139 L 140 135.5 Q 138.5 128.5 142.5 127 L 147.5 125 Z " /><path fill="rgb(171,198,211)" stroke="rgb(171,198,211)" stroke-width="0.6" opacity="1" d="M 82.5 343 Q 95.8 347.7 114.5 347 L 118 350.5 L 135.5 369 Q 158.4 388.6 189.5 400 L 220.5 408 L 250.5 409 L 256 412.5 L 254.5 414 L 248.5 414 L 237.5 417 L 215.5 418 Q 209.4 414.6 198.5 416 L 176.5 411 L 146.5 399 Q 116.5 385.5 95 363.5 L 81 344.5 L 82.5 343 Z " /><path fill="rgb(56,102,144)" stroke="rgb(56,102,144)" stroke-width="0.6" opacity="1" d="M 175.5 138 L 176 159.5 L 174.5 162 L 174 160.5 L 175 159.5 L 175.5 138 Z " /><path fill="rgb(56,102,144)" stroke="rgb(56,102,144)" stroke-width="0.6" opacity="1" d="M 142.5 171 L 170 171.5 L 142.5 172 L 142.5 171 Z " /><path fill="rgb(56,102,144)" stroke="rgb(56,102,144)" stroke-width="0.6" opacity="1" d="M 341.5 191 L 342 206.5 L 341 206.5 L 341.5 191 Z " /><path fill="rgb(56,102,144)" stroke="rgb(56,102,144)" stroke-width="0.6" opacity="1" d="M 422.5 205 L 455 205.5 L 422.5 206 L 422.5 205 Z " /><path fill="rgb(56,102,144)" stroke="rgb(56,102,144)" stroke-width="0.6" opacity="1" d="M 185.5 293 L 190 295.5 L 191 298.5 L 188.5 302 L 183 300.5 Q 181.8 294.3 185.5 293 Z " /><path fill="rgb(56,102,144)" stroke="rgb(56,102,144)" stroke-width="0.6" opacity="1" d="M 165.5 295 L 166 305.5 L 165 305.5 L 165.5 295 Z " /><path fill="rgb(56,102,144)" stroke="rgb(56,102,144)" stroke-width="0.6" opacity="1" d="M 60 336 L 73.5 341 L 77 344.5 L 93 366 L 96.5 367 Q 112.8 384.7 134.5 397 L 161.5 409 L 180 414 L 179.5 416 L 170.5 416 Q 138.9 409.6 113.5 397 Q 93.2 385.8 78 369.5 Q 64.9 356.2 60 336 Z " /><path fill="rgb(56,102,144)" stroke="rgb(56,102,144)" stroke-width="0.6" opacity="1" d="M 219.5 352 L 220 362.5 L 219 362.5 L 219.5 352 Z " /><path fill="rgb(56,102,144)" stroke="rgb(56,102,144)" stroke-width="0.6" opacity="1" d="M 291.5 418 L 302 418.5 L 291.5 419 L 291.5 418 Z " /><path fill="rgb(22,22,22)" stroke="rgb(22,22,22)" stroke-width="0.6" opacity="1" d="M 240.5 392 L 245.5 398 L 240.5 392 Z " /><path fill="rgb(81,138,158)" stroke="rgb(81,138,158)" stroke-width="0.6" opacity="1" d="M 254.5 204 L 259.5 210 L 254.5 204 Z " /><path fill="rgb(81,138,158)" stroke="rgb(81,138,158)" stroke-width="0.6" opacity="1" d="M 379.5 342 L 374.5 348 L 379.5 342 Z " /><path fill="rgb(81,138,158)" stroke="rgb(81,138,158)" stroke-width="0.6" opacity="1" d="M 120.5 350 L 126.5 357 L 120.5 350 Z " /><path fill="rgb(65,68,68)" stroke="rgb(65,68,68)" stroke-width="0.6" opacity="1" d="M 75.5 193 L 70.5 199 L 75.5 193 Z " /><path fill="rgb(88,123,124)" stroke="rgb(88,123,124)" stroke-width="0.6" opacity="1" d="M 299.5 267 L 310.5 279 L 299.5 267 Z " /><path fill="rgb(88,123,124)" stroke="rgb(88,123,124)" stroke-width="0.6" opacity="1" d="M 233.5 391 L 243.5 402 L 233.5 391 Z " /><path fill="rgb(169,173,174)" stroke="rgb(169,173,174)" stroke-width="0.6" opacity="1" d="M 257.5 198 L 263.5 205 L 257.5 198 Z " /><path fill="rgb(233,233,233)" stroke="rgb(233,233,233)" stroke-width="0.6" opacity="1" d="M 372.5 367 L 366.5 374 L 372.5 367 Z " /><path fill="rgb(233,233,233)" stroke="rgb(233,233,233)" stroke-width="0.6" opacity="1" d="M 73.5 372 L 84.5 384 L 73.5 372 Z " /></svg>