<svg width="627" height="627" preserveAspectRatio="xMidYMid meet" viewBox="0 0 512 512" version="1.1" xmlns="http://www.w3.org/2000/svg" ><path fill="rgb(255,255,255)" stroke="rgb(255,255,255)" stroke-width="0.6" opacity="1" d="M 0 0 L 512 0 L 512 512 L 0 512 L 0 0 Z M 170 87 L 165 89 L 157 99 L 157 110 L 168 130 L 168 133 L 165 130 L 153 121 Q 144 120 140 123 L 134 130 L 135 139 Q 138 145 148 146 L 152 145 L 163 146 Q 171 150 170 165 L 169 166 L 144 166 L 121 170 Q 97 176 81 190 Q 60 206 50 232 L 43 259 L 41 296 L 35 310 Q 34 319 37 323 L 49 331 L 61 356 L 76 376 Q 116 419 194 425 Q 234 427 264 418 L 294 426 Q 317 429 331 421 L 334 416 L 333 412 L 322 404 L 342 393 L 359 381 Q 378 364 392 342 L 406 308 L 411 280 L 415 270 L 420 266 L 443 260 L 459 250 Q 473 238 477 216 L 477 196 L 474 189 L 470 189 Q 464 198 452 201 L 441 200 Q 415 198 404 210 L 398 202 Q 392 194 383 190 L 361 184 Q 354 180 352 172 L 349 169 L 345 170 Q 336 179 335 195 Q 334 207 337 216 L 346 234 Q 355 245 369 253 L 376 263 Q 377 273 372 278 Q 366 288 352 291 Q 339 292 332 289 L 316 278 L 302 262 Q 285 232 264 207 Q 247 188 222 177 L 204 171 L 184 168 L 182 167 Q 183 158 187 153 L 197 146 L 213 145 L 219 142 L 225 134 Q 226 125 223 122 L 215 115 L 204 115 L 190 122 L 191 116 Q 192 103 187 96 Q 183 86 170 87 Z " /><path fill="rgb(83,145,181)" stroke="rgb(83,145,181)" stroke-width="0.6" opacity="1" d="M 171.5 93 L 180 95.5 L 180 99 L 182 100.5 L 184 102.5 L 185 110.5 L 184 111.5 L 184 124.5 L 179 141 L 175 142 L 172 124.5 Q 164.7 117.3 162 105.5 L 163 103.5 L 162 100.5 L 165 95 L 171.5 93 Z " /><path fill="rgb(83,145,181)" stroke="rgb(83,145,181)" stroke-width="0.6" opacity="1" d="M 205.5 121 Q 214.6 120 218 124.5 L 220 129.5 L 216 136 L 206.5 140 L 202.5 139 Q 188.8 140.3 183 149.5 L 177.5 158 L 176 159.5 L 178 163.5 L 175.5 168 L 174 159.5 L 175 158.5 L 175 144.5 L 176.5 143 L 178.5 143 L 180.5 144 L 188 132.5 L 195.5 125 L 205.5 121 Z " /><path fill="rgb(83,145,181)" stroke="rgb(83,145,181)" stroke-width="0.6" opacity="1" d="M 143.5 172 Q 161.1 169.9 172.5 174 L 175 173.5 L 175.5 172 L 176 175 L 181 174 Q 180 177 183 176 Q 181.6 172 188.5 174 Q 234.4 182.1 260 210.5 L 273 226.5 L 294 260.5 L 315 287 L 319.5 288 L 329.5 295 Q 338.3 298.2 351.5 297 L 361.5 294 L 370 288.5 L 371.5 287 L 382 271.5 L 387 258.5 L 387 250 L 384 251.5 L 380.5 259 L 370.5 247 L 364 244 L 362.5 242 Q 345.4 230.6 341 206.5 L 341 204.5 Q 339.8 186.3 347.5 177 L 354.5 187 L 364.5 192 L 384.5 197 L 392 203.5 L 394 206.5 L 396 208.5 L 397 218.5 L 392 226.5 L 392 229.5 Q 394 233 396 228.5 L 408.5 213 Q 418.8 203.3 441.5 206 L 451.5 207 L 459.5 205 L 469 197.5 L 469.5 196 L 470.5 198 L 472 197.5 L 471 198.5 L 471 218.5 Q 466.6 235.1 455.5 245 L 439.5 255 L 428.5 258 L 425.5 257 L 422.5 260 L 418.5 260 L 410 265.5 L 406 272.5 Q 407.2 280.2 404 283.5 L 404 285.5 L 400 306.5 L 390 330 L 387 331.5 L 385 336.5 L 371.5 351 L 348.5 367 L 316.5 378 L 314.5 378 L 302.5 380 L 289.5 360 L 287 358.5 L 285.5 356 L 266.5 345 L 252 344 Q 250.7 347.3 255.5 346 Q 273.9 351.1 285 363.5 L 286 367 L 289 368.5 L 302 392.5 L 308.5 400 L 313 403.5 L 314.5 405 L 324 411 L 325 413.5 L 322.5 418 L 315.5 420 L 292.5 420 L 270.5 414 L 262 410 L 260.5 407 L 253.5 404 L 238 389.5 L 227 369.5 L 221.5 350 Q 218.2 351.7 219 357.5 L 220 366.5 L 225 379.5 L 218.5 382 L 194.5 374 L 176 364 L 177.5 367 L 196.5 378 L 213.5 384 L 225.5 386 L 232 389.5 L 244.5 404 L 248 407.5 L 246.5 407 L 226.5 405 L 223.5 406 L 200.5 399 L 191.5 398 L 168.5 388 L 153.5 379 L 125 355.5 L 122.5 352 L 119 349.5 L 119.5 348 L 139.5 348 L 160.5 343 L 173.5 335 L 175 338 L 178 336.5 L 176 330 Q 174.3 327.3 168.5 328 Q 165.3 329.8 169 331.5 L 167.5 333 L 156.5 339 L 136.5 343 L 134.5 342 L 133.5 343 L 112.5 343 L 109.5 342 L 107.5 342 L 89.5 340 L 66.5 334 L 51.5 327 L 42 319.5 L 41 310.5 Q 46 304.5 47 294.5 L 47 292.5 L 48 280.5 L 47 277.5 L 51 252.5 L 51 250.5 Q 58.7 212.2 85.5 193 L 99.5 184 L 119.5 176 L 143.5 172 Z M 165 174 L 164 177 L 168 180 L 179 183 Q 188 184 191 180 L 190 178 L 172 177 L 165 174 Z M 186 250 L 179 253 L 178 257 L 180 258 Q 189 256 194 260 L 198 265 L 202 264 L 200 259 Q 196 251 186 250 Z M 180 275 L 171 280 Q 164 285 162 295 Q 159 310 166 316 Q 168 319 169 316 Q 168 312 172 313 L 173 316 L 178 319 L 196 318 Q 199 316 195 315 L 200 304 Q 202 290 196 284 L 187 275 L 184 276 L 180 275 Z " /><path fill="rgb(83,145,181)" stroke="rgb(83,145,181)" stroke-width="0.6" opacity="1" d="M 179.5 280 L 184.5 280 L 192 284.5 L 196 295.5 L 194.5 298 Q 193.1 290.9 187.5 288 Q 176.4 286.4 173 292.5 L 168 301.5 L 168 306.5 L 170 309.5 L 167.5 311 L 166 308.5 L 167 305 Q 163.5 306.1 165 298.5 Q 166.2 288.7 172.5 284 L 175.5 282 L 179.5 280 Z " /><path fill="rgb(83,145,181)" stroke="rgb(83,145,181)" stroke-width="0.6" opacity="1" d="M 371.5 355 Q 375.3 354 374 357 L 372 357.5 L 373 358.5 L 358.5 373 L 355.5 375 L 352 377 L 349.5 381 Q 335.6 392.1 316.5 398 L 309 392.5 L 306 385 L 304 384.5 L 341.5 374 Q 358.7 366.7 371.5 355 Z " /><path fill="rgb(9,8,8)" stroke="rgb(9,8,8)" stroke-width="0.6" opacity="1" d="M 170.5 88 L 174.5 88 L 183 92 L 184.5 94 L 188 100.5 L 189 115.5 L 188 125 L 204.5 116 L 213.5 116 L 222 122.5 L 224 128.5 L 222 136.5 L 217.5 141 L 214.5 143 L 201.5 143 L 201.5 142 L 209.5 142 L 219 135.5 L 222 129.5 L 216.5 121 Q 211.3 117.6 202 119 Q 203.3 122 199.5 121 L 188 130.5 L 182.5 139 L 182 136.5 L 185 122.5 L 187 120.5 L 187 104.5 L 176.5 91 L 168 90.5 L 170.5 88 Z " /><path fill="rgb(9,8,8)" stroke="rgb(9,8,8)" stroke-width="0.6" opacity="1" d="M 164.5 91 Q 167.8 89.9 167 92.5 L 160 100.5 L 160 106.5 L 172 129.5 L 174 137.5 L 174 158.5 L 173 160.5 L 174 162.5 L 173 170.5 L 171.5 172 L 164 171 L 163.5 169 L 151 169 L 150.5 171 L 139.5 171 L 136.5 172 L 133 171 L 131.5 173 L 129.5 172 L 124.5 174 L 122 172.5 Q 123 169 128.5 170 L 131.5 171 L 137.5 168 L 168.5 168 L 171 165.5 Q 172.2 150.3 163.5 145 L 161 143.5 L 163.5 143 L 168 145 L 166 136.5 L 155 125.5 L 157.5 125 L 166 132.5 L 169.5 138 L 171 136.5 L 170 134.5 L 171 132.5 L 159 110.5 L 159 96.5 L 162.5 92 L 164.5 91 Z " /><path fill="rgb(9,8,8)" stroke="rgb(9,8,8)" stroke-width="0.6" opacity="1" d="M 145.5 122 L 154 124.5 L 150.5 125 L 147.5 124 L 141 126.5 L 137 131.5 L 137 135.5 L 141 138.5 Q 140.2 141.1 143.5 140 L 145.5 142 L 160 142.5 L 143.5 144 L 137 139.5 L 136 130.5 L 138 126 L 145.5 122 Z " /><path fill="rgb(9,8,8)" stroke="rgb(9,8,8)" stroke-width="0.6" opacity="1" d="M 194.5 143 L 199 143.5 L 186 151 L 182 158.5 Q 182.7 165.4 180 168 Q 183.1 167.3 182.5 170 L 193.5 170 Q 195.3 173.7 202.5 172 L 205 174.5 L 201.5 176 L 197 175 L 195.5 173 L 191.5 174 L 186 173 Q 187.3 169.7 182.5 171 L 178 172 L 179 160.5 L 187.5 146 L 194.5 143 Z " /><path fill="rgb(9,8,8)" stroke="rgb(9,8,8)" stroke-width="0.6" opacity="1" d="M 346.5 170 L 352 173.5 L 352 176.5 L 356.5 182 L 365.5 188 L 371.5 188 L 373.5 190 L 384.5 192 L 396 200.5 L 398 205.5 Q 401 206.8 400 211 L 403.5 212 L 414.5 204 L 427 201 Q 428.7 205.1 424.5 204 L 420.5 206 L 417 205 L 415.5 208 Q 404.8 211.8 399 220.5 L 396.5 224 L 397 222.5 Q 401 218.9 399 210 Q 396 211.3 397 207.5 L 389.5 199 L 380.5 193 L 372.5 191 L 368.5 192 L 366 191 L 365.5 189 L 363.5 189 Q 355.1 188.4 352 182.5 L 347.5 175 L 344 177.5 Q 341 180.8 342 187 L 340 187.5 L 340 213 Q 343 211.8 342 215.5 L 343 217.5 Q 340.5 219 344 220.5 Q 348.6 232.4 358 239.5 L 358 243 L 348 234.5 L 339 218.5 L 339 211 Q 335.5 212.1 337 204.5 L 336 196.5 L 337 189 Q 340 190.3 339 186.5 L 338 184.5 L 343 173.5 L 346.5 170 Z " /><path fill="rgb(9,8,8)" stroke="rgb(9,8,8)" stroke-width="0.6" opacity="1" d="M 117.5 173 L 121 173.5 L 115 175 L 113.5 177 Q 86.2 186.2 70 206.5 L 60.5 220 L 59 221.5 L 51 240.5 L 52 243 L 50 244.5 L 49 244.5 L 50 235.5 L 60 214.5 L 79.5 192 Q 94.5 178.5 117.5 173 Z " /><path fill="rgb(9,8,8)" stroke="rgb(9,8,8)" stroke-width="0.6" opacity="1" d="M 208.5 174 Q 246.2 185.3 268 212.5 L 302 263.5 L 319.5 283 L 334.5 292 L 346.5 293 L 349.5 292 L 352.5 293 L 357.5 290 L 359 292.5 L 357.5 294 L 341.5 296 L 339.5 294 Q 329.5 294 323.5 290 L 306 274.5 L 275 227.5 L 250.5 200 L 233.5 188 L 208.5 178 L 206 175.5 L 208.5 174 Z " /><path fill="rgb(9,8,8)" stroke="rgb(9,8,8)" stroke-width="0.6" opacity="1" d="M 172 178 L 174.5 179 L 188 179 L 187.5 181 L 175.5 181 L 172 180 L 172 178 Z " /><path fill="rgb(9,8,8)" stroke="rgb(9,8,8)" stroke-width="0.6" opacity="1" d="M 469.5 190 Q 474.3 189.3 475 192.5 L 474 196 L 476 196.5 L 476 216 Q 473 214.8 474 218.5 L 475 220.5 L 474 224 Q 470 222.6 472 229.5 Q 466.2 243.7 454.5 252 L 442 257 L 443.5 255 Q 455.3 248.8 463 238.5 L 465 234 Q 468 235.3 467 231.5 Q 470.3 230.1 469 225 Q 473 226.4 471 219.5 L 473 217.5 L 473 195 L 470.5 194 L 466 195 Q 467 199.7 463.5 201 Q 459.1 202.5 460 199.5 L 469.5 190 Z " /><path fill="rgb(9,8,8)" stroke="rgb(9,8,8)" stroke-width="0.6" opacity="1" d="M 436 201 Q 440.1 199.7 439 203 L 442.5 203 L 450.5 202 L 454 203.5 Q 450.6 206.1 443.5 205 L 436 204 L 436 201 Z " /><path fill="rgb(9,8,8)" stroke="rgb(9,8,8)" stroke-width="0.6" opacity="1" d="M 359 243 Q 368.1 244.5 373 251.5 L 375.5 255 L 378 256.5 Q 377.3 261.3 380.5 262 L 383.5 258 L 384 261.5 L 376 280 Q 373 278.8 374 282.5 Q 369.9 290.5 360 291 L 361.5 289 L 373 278.5 Q 378.4 272.9 377 260.5 L 369.5 252 L 359 244.5 L 359 243 Z " /><path fill="rgb(9,8,8)" stroke="rgb(9,8,8)" stroke-width="0.6" opacity="1" d="M 48.5 246 L 50 249.5 L 48 251.5 L 47 258.5 L 48 262.5 L 46 264.5 L 45 282.5 L 46 288.5 Q 43 293.5 44 302.5 L 40 307.5 L 38 314.5 L 48.5 327 L 64.5 335 L 82 340.5 L 78.5 342 L 57.5 334 L 56 336.5 Q 68.5 365.5 91.5 384 L 116.5 401 L 137 409.5 L 135.5 412 L 119.5 406 L 115.5 402 L 112.5 402 L 102 395.5 Q 102.8 392.9 99.5 394 L 80 377.5 L 78.5 375 L 73 370.5 L 61 353.5 L 50.5 331 Q 42.4 328.1 38 321.5 L 36 316.5 L 37 311.5 L 36 309.5 Q 40.7 305.1 41 297 Q 44 298.3 43 294.5 L 42 286.5 Q 45.8 281.8 44 271.5 L 43 269 Q 47 270.4 45 263.5 L 44 261.5 L 46 256.5 L 45 254 Q 48 255.3 47 251.5 L 46 249.5 L 48.5 246 Z " /><path fill="rgb(9,8,8)" stroke="rgb(9,8,8)" stroke-width="0.6" opacity="1" d="M 184 252 Q 193.1 250.9 197 256.5 L 200 263 Q 193.8 256.3 182 254.5 L 184 254 L 184 252 Z " /><path fill="rgb(9,8,8)" stroke="rgb(9,8,8)" stroke-width="0.6" opacity="1" d="M 438 256 L 441 257.5 Q 441.9 260.5 437.5 259 L 431.5 262 L 429.5 261 L 423.5 264 L 421 262.5 L 424.5 260 L 426.5 261 L 433.5 258 L 435.5 259 L 438 258 L 438 256 Z " /><path fill="rgb(9,8,8)" stroke="rgb(9,8,8)" stroke-width="0.6" opacity="1" d="M 418.5 263 L 420 263.5 L 412 271.5 L 412 274 L 410 274.5 L 410 283.5 Q 406.4 282.8 408 292.5 L 406 294.5 L 406 303 Q 402 301.6 404 308.5 L 400 316.5 L 400 321.5 L 390 343 L 388 344.5 Q 380.5 359.5 368.5 370 L 365 372.5 L 360.5 378 L 347.5 388 L 345 388 Q 346.3 391 342.5 390 L 339.5 393 L 324.5 399 L 320 403.5 L 321 407 L 318.5 407 L 311 400.5 L 308.5 397 L 307 395.5 L 303 391.5 Q 296.1 373.9 285 360.5 L 286.5 361 L 291 364.5 Q 289.9 367.8 292.5 367 L 294 371 L 298 374 L 298 377.5 L 303 382.5 L 302 383.5 L 315.5 400 Q 351 387 373 360.5 L 388 338 L 386 336.5 Q 393.6 328.4 397 317 L 399 315.5 L 401 305 Q 404.5 306.1 403 298.5 L 405 296.5 L 405 287 L 407 286.5 L 407 277.5 Q 410.5 275.8 409 270 Q 412 271.3 411 267.5 Q 412.9 263.4 418.5 263 Z " /><path fill="rgb(9,8,8)" stroke="rgb(9,8,8)" stroke-width="0.6" opacity="1" d="M 176.5 278 L 178 280 L 168 286.5 L 166.5 289 L 167 287.5 L 172.5 280 L 176.5 278 Z " /><path fill="rgb(9,8,8)" stroke="rgb(9,8,8)" stroke-width="0.6" opacity="1" d="M 186 278 L 194 282.5 L 198 291 Q 195 292.3 196 288.5 L 189.5 281 L 186 280 L 186 278 Z " /><path fill="rgb(9,8,8)" stroke="rgb(9,8,8)" stroke-width="0.6" opacity="1" d="M 180.5 289 L 185.5 289 L 191 293.5 L 190.5 295 L 186.5 292 Q 181 293 182 300.5 Q 182.7 304.8 188.5 304 L 192.5 299 L 194 304.5 L 190 313.5 L 189.5 316 L 176.5 317 Q 170.1 312.9 170 302.5 Q 171.5 294 177.5 290 L 180.5 289 Z " /><path fill="rgb(9,8,8)" stroke="rgb(9,8,8)" stroke-width="0.6" opacity="1" d="M 197 293 L 199 293.5 L 199 303 L 197 302.5 L 197 293 Z " /><path fill="rgb(9,8,8)" stroke="rgb(9,8,8)" stroke-width="0.6" opacity="1" d="M 170 329 L 176 332.5 L 175.5 335 L 172.5 334 L 159.5 342 L 151.5 343 L 151.5 342 L 157.5 341 L 170 333.5 L 171 331.5 L 170 329 Z " /><path fill="rgb(9,8,8)" stroke="rgb(9,8,8)" stroke-width="0.6" opacity="1" d="M 85.5 340 L 92.5 343 Q 102.1 340.9 106 344.5 L 99.5 346 L 89.5 343 L 86.5 344 L 83 341.5 L 85.5 340 Z " /><path fill="rgb(9,8,8)" stroke="rgb(9,8,8)" stroke-width="0.6" opacity="1" d="M 382.5 341 L 383 342.5 L 371.5 353 L 382.5 341 Z " /><path fill="rgb(9,8,8)" stroke="rgb(9,8,8)" stroke-width="0.6" opacity="1" d="M 142.5 343 L 149 343.5 L 141.5 346 L 140.5 344 L 142.5 343 Z " /><path fill="rgb(9,8,8)" stroke="rgb(9,8,8)" stroke-width="0.6" opacity="1" d="M 115.5 344 Q 127.5 342.5 135 345.5 L 115 348 Q 116.1 344.2 107.5 346 L 107.5 345 L 115.5 344 Z " /><path fill="rgb(9,8,8)" stroke="rgb(9,8,8)" stroke-width="0.6" opacity="1" d="M 263 346 L 279 353 L 280 356.5 L 278.5 356 L 276 354.5 L 274.5 353 L 263 348 L 263 346 Z " /><path fill="rgb(9,8,8)" stroke="rgb(9,8,8)" stroke-width="0.6" opacity="1" d="M 221 358 Q 224.3 356.7 223 361.5 L 228 377 Q 231 375.8 230 379.5 L 235 388.5 L 232.5 387 L 229 384.5 L 221 358 Z " /><path fill="rgb(9,8,8)" stroke="rgb(9,8,8)" stroke-width="0.6" opacity="1" d="M 235 390 L 240 392.5 L 240 395 L 243.5 397 Q 253.2 407.5 267 413 L 268.5 415 L 277 417 Q 275.7 420.3 280.5 419 L 287.5 421 L 289.5 420 L 295.5 422 L 298 421 L 298.5 423 L 311 423 L 312.5 421 L 316.5 422 Q 325.1 421.1 329 415.5 L 326.5 411 L 322 407.5 L 324.5 407 L 333 413.5 L 329.5 420 L 317.5 424 L 312.5 423 L 311.5 424 L 296.5 424 L 293.5 423 L 288.5 424 L 286.5 422 L 273.5 420 L 265.5 416 Q 262.5 419 255.5 418 L 253.5 420 L 242.5 420 L 239.5 422 L 231.5 421 L 221 422 L 220.5 424 L 197.5 424 L 194.5 422 L 181.5 421 L 176.5 422 L 174.5 420 L 167.5 419 L 162 420 Q 163.3 416.7 158.5 418 L 156.5 417 L 154.5 418 L 148.5 415 L 146.5 416 L 138 411.5 L 144.5 411 Q 149 415.5 157.5 416 L 160 415 Q 158.8 418 162.5 417 L 164.5 416 Q 167.3 419.7 174.5 419 L 176.5 418 L 183.5 420 L 188 419 Q 186.9 422.5 194.5 421 L 202.5 418 L 216.5 421 L 228 421 Q 226.8 418 230.5 419 L 237.5 420 L 241.5 418 L 245.5 419 L 253.5 416 L 256 417 Q 254.8 414 258.5 415 Q 261.5 413.5 258.5 412 L 253.5 410 L 241 398.5 L 237.5 395 L 235 390 Z " /><path fill="rgb(170,197,210)" stroke="rgb(170,197,210)" stroke-width="0.6" opacity="1" d="M 147.5 126 Q 157.6 126.9 162 133.5 L 166 140.5 L 163.5 141 L 145.5 140 L 140 136.5 L 139 131.5 L 141.5 128 L 147.5 126 Z " /><path fill="rgb(170,197,210)" stroke="rgb(170,197,210)" stroke-width="0.6" opacity="1" d="M 79 343 Q 93.9 347.9 114.5 348 L 121 354.5 L 122.5 357 Q 147.5 383 183.5 398 L 211.5 407 L 229.5 410 L 254.5 411 L 257 412 L 255.5 414 Q 237.6 419.6 213.5 419 Q 132.6 407.9 90 358.5 L 79 343 Z " /><path fill="rgb(20,19,19)" stroke="rgb(20,19,19)" stroke-width="0.6" opacity="1" d="M 169.5 88 L 168.5 91 L 172 91.5 L 167.5 93 L 167 91 L 163.5 92 L 164.5 90 L 169.5 88 Z " /><path fill="rgb(20,19,19)" stroke="rgb(20,19,19)" stroke-width="0.6" opacity="1" d="M 158.5 98 L 159 108.5 L 158 108.5 L 158.5 98 Z " /><path fill="rgb(20,19,19)" stroke="rgb(20,19,19)" stroke-width="0.6" opacity="1" d="M 185.5 103 L 187 104.5 L 187 120.5 L 185 121.5 L 186 120.5 L 186 104.5 L 185.5 103 Z " /><path fill="rgb(20,19,19)" stroke="rgb(20,19,19)" stroke-width="0.6" opacity="1" d="M 147.5 122 L 157 124.5 L 155 125.5 L 157.5 129 L 151 125.5 L 154 124.5 L 147.5 123 L 147.5 122 Z " /><path fill="rgb(20,19,19)" stroke="rgb(20,19,19)" stroke-width="0.6" opacity="1" d="M 141.5 123 L 144 123.5 L 142 124.5 L 146 125.5 L 141.5 127 L 141.5 125 L 138 126 Q 135.3 129.5 135.5 137 L 135 130.5 L 139.5 124 L 141.5 123 Z " /><path fill="rgb(20,19,19)" stroke="rgb(20,19,19)" stroke-width="0.6" opacity="1" d="M 144.5 140 L 145.5 141 L 160.5 141 L 165 143.5 L 163.5 143 L 161 143.5 L 161.5 145 L 145 143.5 L 160 142.5 L 145.5 142 L 144.5 140 Z " /><path fill="rgb(20,19,19)" stroke="rgb(20,19,19)" stroke-width="0.6" opacity="1" d="M 210.5 140 L 212 140.5 Q 208.6 143.6 201 142.5 L 212 143.5 L 196.5 145 L 196.5 144 L 199 143.5 L 194.5 143 L 191.5 144 L 191.5 143 L 210.5 140 Z " /><path fill="rgb(20,19,19)" stroke="rgb(20,19,19)" stroke-width="0.6" opacity="1" d="M 145.5 167 L 169 167.5 L 145.5 168 L 145.5 167 Z " /><path fill="rgb(20,19,19)" stroke="rgb(20,19,19)" stroke-width="0.6" opacity="1" d="M 151 169 L 163.5 169 L 164 171 L 151.5 171 L 151 169 Z " /><path fill="rgb(20,19,19)" stroke="rgb(20,19,19)" stroke-width="0.6" opacity="1" d="M 120.5 171 L 123 171.5 L 122.5 173 L 124 175 L 115.5 177 L 115 175 L 121 173.5 L 117.5 173 L 114.5 174 L 114.5 173 L 120.5 171 Z " /><path fill="rgb(20,19,19)" stroke="rgb(20,19,19)" stroke-width="0.6" opacity="1" d="M 204.5 173 L 208 174.5 L 206 175.5 L 207.5 178 L 203 175.5 L 205 174.5 L 204.5 173 Z " /><path fill="rgb(20,19,19)" stroke="rgb(20,19,19)" stroke-width="0.6" opacity="1" d="M 460.5 198 L 460 199.5 Q 459.2 202.1 462.5 201 L 462.5 202 L 459 203 Q 460.3 200 456.5 201 L 455.5 203 L 458 203.5 L 451.5 205 L 451.5 204 L 454 203.5 L 451 202.5 L 460.5 198 Z " /><path fill="rgb(20,19,19)" stroke="rgb(20,19,19)" stroke-width="0.6" opacity="1" d="M 427 201 L 435.5 201 L 436 204 L 442.5 204 L 442.5 205 L 424 204.5 L 427 204 L 427 201 Z " /><path fill="rgb(20,19,19)" stroke="rgb(20,19,19)" stroke-width="0.6" opacity="1" d="M 398.5 218 L 399.5 220 L 402 218.5 L 397 221.5 L 398 223.5 L 395.5 227 L 395 223.5 L 398.5 218 Z " /><path fill="rgb(20,19,19)" stroke="rgb(20,19,19)" stroke-width="0.6" opacity="1" d="M 358.5 240 L 363 243.5 L 361.5 243 Q 358.2 241.9 359 244.5 L 357 243.5 L 358.5 240 Z " /><path fill="rgb(20,19,19)" stroke="rgb(20,19,19)" stroke-width="0.6" opacity="1" d="M 48.5 241 L 49.5 245 L 50.5 243 L 51 245.5 L 47 246.5 L 48.5 241 Z " /><path fill="rgb(20,19,19)" stroke="rgb(20,19,19)" stroke-width="0.6" opacity="1" d="M 49.5 250 L 49 251.5 L 47.5 259 L 47 256.5 L 49.5 250 Z " /><path fill="rgb(20,19,19)" stroke="rgb(20,19,19)" stroke-width="0.6" opacity="1" d="M 442.5 254 L 444 254.5 L 442 255 Q 440.8 258 444.5 257 L 448.5 255 L 448.5 256 L 441.5 259 L 440 255 L 442.5 254 Z " /><path fill="rgb(20,19,19)" stroke="rgb(20,19,19)" stroke-width="0.6" opacity="1" d="M 422.5 260 L 421.5 263 L 423 263.5 L 418.5 266 L 419.5 263 L 415.5 264 L 415.5 263 L 422.5 260 Z " /><path fill="rgb(20,19,19)" stroke="rgb(20,19,19)" stroke-width="0.6" opacity="1" d="M 46.5 264 L 47 273.5 L 45.5 283 L 45 271.5 L 46.5 264 Z " /><path fill="rgb(20,19,19)" stroke="rgb(20,19,19)" stroke-width="0.6" opacity="1" d="M 43.5 271 L 44 282.5 L 42.5 286 L 42 283.5 L 43.5 271 Z " /><path fill="rgb(20,19,19)" stroke="rgb(20,19,19)" stroke-width="0.6" opacity="1" d="M 359.5 289 L 360 291 L 364.5 290 L 364.5 291 L 358.5 294 L 359 292.5 L 358 290.5 L 359.5 289 Z " /><path fill="rgb(20,19,19)" stroke="rgb(20,19,19)" stroke-width="0.6" opacity="1" d="M 333.5 290 Q 338 293.5 347 292.5 L 337.5 293 L 333.5 290 Z " /><path fill="rgb(20,19,19)" stroke="rgb(20,19,19)" stroke-width="0.6" opacity="1" d="M 331.5 293 L 339.5 294 L 341 295.5 L 339.5 295 L 331.5 294 L 331.5 293 Z " /><path fill="rgb(20,19,19)" stroke="rgb(20,19,19)" stroke-width="0.6" opacity="1" d="M 197.5 303 L 198 306.5 L 195.5 311 L 196 307.5 L 197.5 303 Z " /><path fill="rgb(20,19,19)" stroke="rgb(20,19,19)" stroke-width="0.6" opacity="1" d="M 400.5 308 L 401 310.5 L 399 317 L 397 316.5 L 400.5 308 Z " /><path fill="rgb(20,19,19)" stroke="rgb(20,19,19)" stroke-width="0.6" opacity="1" d="M 81.5 339 L 85 340.5 L 83 341.5 L 86 343.5 L 84.5 343 Q 80.1 344.5 81 341.5 L 81.5 339 Z " /><path fill="rgb(20,19,19)" stroke="rgb(20,19,19)" stroke-width="0.6" opacity="1" d="M 89.5 341 L 98 342.5 L 92 343.5 L 96 344.5 L 91.5 345 L 89 343.5 L 92 342.5 L 89.5 341 Z " /><path fill="rgb(20,19,19)" stroke="rgb(20,19,19)" stroke-width="0.6" opacity="1" d="M 150.5 341 L 153 341.5 L 151 342.5 L 154.5 343 L 157.5 342 L 157.5 343 L 147.5 345 L 147.5 344 L 149 343.5 L 145 342.5 L 150.5 341 Z " /><path fill="rgb(20,19,19)" stroke="rgb(20,19,19)" stroke-width="0.6" opacity="1" d="M 104.5 343 L 115 344.5 L 107 345.5 L 115 346.5 L 105.5 347 L 104.5 345 L 106 344.5 L 104.5 343 Z " /><path fill="rgb(20,19,19)" stroke="rgb(20,19,19)" stroke-width="0.6" opacity="1" d="M 134.5 343 L 136.5 344 L 141.5 343 L 141.5 344 L 140 344.5 L 140.5 346 L 130.5 347 L 130.5 346 L 135 345.5 L 130 344.5 L 134.5 343 Z " /><path fill="rgb(20,19,19)" stroke="rgb(20,19,19)" stroke-width="0.6" opacity="1" d="M 279.5 354 L 288 360.5 L 286 361 L 290 367.5 L 287 365.5 L 280 357.5 L 279.5 354 Z " /><path fill="rgb(20,19,19)" stroke="rgb(20,19,19)" stroke-width="0.6" opacity="1" d="M 225.5 368 L 229 376.5 L 228 376.5 L 225.5 371 L 224.5 374 L 223 369.5 L 224 369.5 L 224.5 371 L 225.5 368 Z " /><path fill="rgb(20,19,19)" stroke="rgb(20,19,19)" stroke-width="0.6" opacity="1" d="M 234.5 386 L 237 389.5 L 234.5 391 L 232 387.5 L 235 388.5 L 234.5 386 Z " /><path fill="rgb(20,19,19)" stroke="rgb(20,19,19)" stroke-width="0.6" opacity="1" d="M 240.5 393 L 247.5 401 L 242 397 L 240.5 393 Z " /><path fill="rgb(20,19,19)" stroke="rgb(20,19,19)" stroke-width="0.6" opacity="1" d="M 321 405 L 324 406.5 L 322 407.5 L 324.5 411 L 319 407.5 L 321 407 L 321 405 Z " /><path fill="rgb(20,19,19)" stroke="rgb(20,19,19)" stroke-width="0.6" opacity="1" d="M 137 409 L 142 410.5 L 138 411.5 L 139.5 414 L 136 411.5 L 137 409 Z " /><path fill="rgb(20,19,19)" stroke="rgb(20,19,19)" stroke-width="0.6" opacity="1" d="M 149.5 413 L 158 415.5 L 156.5 416 L 149.5 414 L 149.5 413 Z " /><path fill="rgb(20,19,19)" stroke="rgb(20,19,19)" stroke-width="0.6" opacity="1" d="M 277.5 417 L 288 420.5 L 285.5 421 L 277 419 L 277.5 417 Z " /><path fill="rgb(20,19,19)" stroke="rgb(20,19,19)" stroke-width="0.6" opacity="1" d="M 167 419 L 176 421.5 L 174.5 422 L 167 421 L 167 419 Z " /><path fill="rgb(20,19,19)" stroke="rgb(20,19,19)" stroke-width="0.6" opacity="1" d="M 225.5 419 Q 229.3 418 228 421 L 216 420.5 L 225.5 419 Z " /><path fill="rgb(20,19,19)" stroke="rgb(20,19,19)" stroke-width="0.6" opacity="1" d="M 276.5 420 L 288 423.5 L 286.5 423 L 276.5 421 L 276.5 420 Z " /><path fill="rgb(20,19,19)" stroke="rgb(20,19,19)" stroke-width="0.6" opacity="1" d="M 181.5 421 L 194.5 422 L 197 423.5 L 195.5 424 L 182.5 423 L 181.5 421 Z " /><path fill="rgb(20,19,19)" stroke="rgb(20,19,19)" stroke-width="0.6" opacity="1" d="M 231.5 421 L 239 421.5 L 221 424 L 221.5 422 L 230.5 422 L 231.5 421 Z " /><path fill="rgb(20,19,19)" stroke="rgb(20,19,19)" stroke-width="0.6" opacity="1" d="M 298 421 L 305.5 422 L 311 421 L 310.5 423 L 298 423 L 298 421 Z " /><path fill="rgb(20,19,19)" stroke="rgb(20,19,19)" stroke-width="0.6" opacity="1" d="M 293.5 423 L 311.5 424 L 316.5 423 L 316.5 424 L 314.5 425 L 294.5 425 L 293.5 423 Z " /><path fill="rgb(56,101,142)" stroke="rgb(56,101,142)" stroke-width="0.6" opacity="1" d="M 185.5 294 Q 190.3 293.3 191 296.5 L 188.5 303 L 183 301.5 Q 181.8 295.3 185.5 294 Z " /><path fill="rgb(56,101,142)" stroke="rgb(56,101,142)" stroke-width="0.6" opacity="1" d="M 59.5 336 L 71.5 340 L 76 343.5 L 82 351.5 L 82 354 L 87 357.5 L 88.5 361 L 102 373.5 Q 101.2 376.1 104.5 375 Q 119.9 390.6 141 399 L 141.5 401 L 143.5 401 L 162.5 410 L 164.5 410 L 181 415.5 L 179 416.5 L 179.5 418 L 173.5 416 L 169.5 417 Q 146.3 413 128 405 L 127.5 403 L 125.5 403 Q 101.7 394.3 86 377.5 L 82.5 373 L 75 366.5 L 58 338.5 L 59.5 336 Z " /><path fill="rgb(81,139,170)" stroke="rgb(81,139,170)" stroke-width="0.6" opacity="1" d="M 202.5 121 L 205 121.5 L 196.5 125 L 196.5 124 L 202.5 121 Z " /><path fill="rgb(81,139,170)" stroke="rgb(81,139,170)" stroke-width="0.6" opacity="1" d="M 218.5 132 L 219 133.5 L 212.5 139 L 214.5 136 L 216 134.5 L 218.5 132 Z " /><path fill="rgb(81,139,170)" stroke="rgb(81,139,170)" stroke-width="0.6" opacity="1" d="M 179.5 139 L 181 143.5 L 179.5 143 L 177.5 144 L 175 143.5 L 176.5 142 L 179 141 L 179.5 139 Z " /><path fill="rgb(81,139,170)" stroke="rgb(81,139,170)" stroke-width="0.6" opacity="1" d="M 174.5 161 L 175.5 168 L 177 167.5 Q 175.5 174.5 178.5 174 L 178.5 175 Q 174.8 176.3 176 172.5 L 175 172.5 L 174.5 174 L 172 173.5 L 174 171.5 L 174.5 161 Z " /><path fill="rgb(81,139,170)" stroke="rgb(81,139,170)" stroke-width="0.6" opacity="1" d="M 81.5 196 L 72.5 206 L 81.5 196 Z " /><path fill="rgb(81,139,170)" stroke="rgb(81,139,170)" stroke-width="0.6" opacity="1" d="M 471.5 198 L 472 213.5 L 471 213.5 L 471.5 198 Z " /><path fill="rgb(81,139,170)" stroke="rgb(81,139,170)" stroke-width="0.6" opacity="1" d="M 353.5 233 L 360.5 241 L 353.5 233 Z " /><path fill="rgb(81,139,170)" stroke="rgb(81,139,170)" stroke-width="0.6" opacity="1" d="M 370.5 247 L 375.5 253 L 370.5 247 Z " /><path fill="rgb(81,139,170)" stroke="rgb(81,139,170)" stroke-width="0.6" opacity="1" d="M 448.5 249 L 450 249.5 L 442.5 254 L 443.5 252 L 448.5 249 Z " /><path fill="rgb(81,139,170)" stroke="rgb(81,139,170)" stroke-width="0.6" opacity="1" d="M 308.5 278 L 317.5 288 L 315 287 L 308.5 278 Z " /><path fill="rgb(81,139,170)" stroke="rgb(81,139,170)" stroke-width="0.6" opacity="1" d="M 166.5 310 L 168.5 311 L 171 311.5 L 169 313 L 169 315.5 Q 167.5 318.5 166 315.5 L 168 315 L 166.5 310 Z " /><path fill="rgb(81,139,170)" stroke="rgb(81,139,170)" stroke-width="0.6" opacity="1" d="M 196.5 316 L 195.5 318 L 179.5 319 L 179.5 318 L 196.5 316 Z " /><path fill="rgb(81,139,170)" stroke="rgb(81,139,170)" stroke-width="0.6" opacity="1" d="M 376.5 350 L 379 351.5 L 373.5 358 L 372 357.5 L 374 357 L 372.5 355 L 376.5 350 Z " /><path fill="rgb(81,139,170)" stroke="rgb(81,139,170)" stroke-width="0.6" opacity="1" d="M 369.5 362 L 360.5 372 L 369.5 362 Z " /><path fill="rgb(81,139,170)" stroke="rgb(81,139,170)" stroke-width="0.6" opacity="1" d="M 141.5 369 L 148 374.5 L 144.5 372 L 141.5 369 Z " /><path fill="rgb(81,139,170)" stroke="rgb(81,139,170)" stroke-width="0.6" opacity="1" d="M 224.5 376 L 227 380.5 L 225 381.5 L 225.5 383 Q 220.7 384.3 222 381 L 225 379.5 L 224.5 376 Z " /><path fill="rgb(81,139,170)" stroke="rgb(81,139,170)" stroke-width="0.6" opacity="1" d="M 242.5 394 L 252 402.5 L 247.5 399 L 242.5 394 Z " /><path fill="rgb(81,139,170)" stroke="rgb(81,139,170)" stroke-width="0.6" opacity="1" d="M 238.5 397 L 244.5 404 L 238.5 397 Z " /><path fill="rgb(81,139,170)" stroke="rgb(81,139,170)" stroke-width="0.6" opacity="1" d="M 197.5 399 L 207 401.5 L 203.5 402 L 197.5 400 L 197.5 399 Z " /><path fill="rgb(81,139,170)" stroke="rgb(81,139,170)" stroke-width="0.6" opacity="1" d="M 226.5 405 L 238 406.5 L 228.5 407 L 226.5 405 Z " /><path fill="rgb(81,139,170)" stroke="rgb(81,139,170)" stroke-width="0.6" opacity="1" d="M 324.5 412 L 328 414.5 L 326.5 417 L 323.5 418 L 324.5 412 Z " /><path fill="rgb(62,63,63)" stroke="rgb(62,63,63)" stroke-width="0.6" opacity="1" d="M 78.5 198 L 73.5 204 L 78.5 198 Z " /><path fill="rgb(62,63,63)" stroke="rgb(62,63,63)" stroke-width="0.6" opacity="1" d="M 311.5 274 L 316.5 280 L 311.5 274 Z " /><path fill="rgb(62,63,63)" stroke="rgb(62,63,63)" stroke-width="0.6" opacity="1" d="M 309.5 278 L 314.5 284 L 309.5 278 Z " /><path fill="rgb(62,63,63)" stroke="rgb(62,63,63)" stroke-width="0.6" opacity="1" d="M 118.5 348 Q 116.7 350.5 121.5 353 L 124 354.5 Q 121.5 356.5 119 352.5 L 117 349.5 L 118.5 348 Z " /><path fill="rgb(62,63,63)" stroke="rgb(62,63,63)" stroke-width="0.6" opacity="1" d="M 123.5 356 L 134 364.5 L 132.5 365 L 123.5 356 Z " /><path fill="rgb(62,63,63)" stroke="rgb(62,63,63)" stroke-width="0.6" opacity="1" d="M 368.5 364 L 362.5 371 L 368.5 364 Z " /><path fill="rgb(62,63,63)" stroke="rgb(62,63,63)" stroke-width="0.6" opacity="1" d="M 96.5 367 L 103 371.5 L 101.5 372 L 96.5 367 Z " /><path fill="rgb(62,63,63)" stroke="rgb(62,63,63)" stroke-width="0.6" opacity="1" d="M 156.5 382 L 160 383.5 L 160.5 385 L 162.5 385 L 167 387.5 L 163.5 387 L 159 384.5 L 158.5 383 Q 156.7 385.5 156.5 382 Z " /><path fill="rgb(62,63,63)" stroke="rgb(62,63,63)" stroke-width="0.6" opacity="1" d="M 188.5 397 L 195 399 L 193.5 401 L 187 398.5 L 188.5 397 Z " /><path fill="rgb(43,42,41)" stroke="rgb(43,42,41)" stroke-width="0.6" opacity="1" d="M 118.5 347 L 127 347.5 L 116.5 349 L 116.5 348 L 118.5 347 Z " /><path fill="rgb(43,42,41)" stroke="rgb(43,42,41)" stroke-width="0.6" opacity="1" d="M 133.5 365 L 140 369.5 L 138.5 370 L 133.5 365 Z " /><path fill="rgb(43,42,41)" stroke="rgb(43,42,41)" stroke-width="0.6" opacity="1" d="M 350.5 366 L 353 366.5 L 342 372 L 343.5 370 L 350.5 366 Z " /><path fill="rgb(43,42,41)" stroke="rgb(43,42,41)" stroke-width="0.6" opacity="1" d="M 143.5 373 L 156 381.5 L 154.5 381 L 143.5 373 Z " /><path fill="rgb(43,42,41)" stroke="rgb(43,42,41)" stroke-width="0.6" opacity="1" d="M 77.5 375 L 82.5 381 L 77.5 375 Z " /><path fill="rgb(43,42,41)" stroke="rgb(43,42,41)" stroke-width="0.6" opacity="1" d="M 114.5 382 L 124 388.5 L 122.5 388 L 114.5 382 Z " /><path fill="rgb(43,42,41)" stroke="rgb(43,42,41)" stroke-width="0.6" opacity="1" d="M 249.5 406 L 251 409 L 253 409.5 L 242 410 Q 240.9 406.2 249.5 408 L 249.5 406 Z " /><path fill="rgb(77,86,89)" stroke="rgb(77,86,89)" stroke-width="0.6" opacity="1" d="M 76.5 194 L 70.5 201 L 76.5 194 Z " /><path fill="rgb(77,86,89)" stroke="rgb(77,86,89)" stroke-width="0.6" opacity="1" d="M 381.5 344 L 374.5 352 L 381.5 344 Z " /><path fill="rgb(77,86,89)" stroke="rgb(77,86,89)" stroke-width="0.6" opacity="1" d="M 124.5 355 L 132 362.5 L 130.5 364 L 124.5 355 Z " /><path fill="rgb(77,86,89)" stroke="rgb(77,86,89)" stroke-width="0.6" opacity="1" d="M 99.5 368 L 102 370.5 L 102.5 374 Q 97.4 371 99.5 368 Z " /><path fill="rgb(77,86,89)" stroke="rgb(77,86,89)" stroke-width="0.6" opacity="1" d="M 190 372 L 200 376 L 198.5 378 L 196 377 L 195.5 375 L 193.5 376 L 191.5 373 L 190 373.5 L 190 372 Z " /><path fill="rgb(77,86,89)" stroke="rgb(77,86,89)" stroke-width="0.6" opacity="1" d="M 175.5 391 L 182 394 L 180.5 396 L 178 395 L 177.5 393 L 176 393.5 L 175.5 391 Z " /><path fill="rgb(91,108,113)" stroke="rgb(91,108,113)" stroke-width="0.6" opacity="1" d="M 116.5 343 L 128 343.5 L 116.5 344 L 116.5 343 Z " /><path fill="rgb(91,108,113)" stroke="rgb(91,108,113)" stroke-width="0.6" opacity="1" d="M 93.5 362 L 98.5 368 L 93.5 362 Z " /><path fill="rgb(161,166,168)" stroke="rgb(161,166,168)" stroke-width="0.6" opacity="1" d="M 241.5 410 L 254 410.5 L 241.5 411 L 241.5 410 Z " /><path fill="rgb(161,166,168)" stroke="rgb(161,166,168)" stroke-width="0.6" opacity="1" d="M 203.5 424 L 217 424.5 L 203.5 425 L 203.5 424 Z " /><path fill="rgb(215,215,216)" stroke="rgb(215,215,216)" stroke-width="0.6" opacity="1" d="M 258.5 201 L 263.5 207 L 258.5 201 Z " /></svg>