<svg width="627" height="627" preserveAspectRatio="xMidYMid meet" viewBox="0 0 512 512" version="1.1" xmlns="http://www.w3.org/2000/svg" ><path fill="rgb(255,255,255)" stroke="rgb(255,255,255)" stroke-width="0.6" opacity="1" d="M 0 0 L 512 0 L 512 512 L 0 512 L 0 0 Z M 279 41 L 277 42 L 273 47 Q 268 54 259 57 L 244 56 L 230 46 L 224 47 L 221 51 L 219 66 L 215 73 Q 209 83 191 81 L 186 87 L 195 104 L 195 107 Q 186 116 182 131 Q 178 144 178 161 L 174 171 Q 169 178 160 181 L 153 180 Q 144 179 140 182 L 135 189 L 136 201 L 147 217 Q 151 223 160 225 L 166 224 L 178 216 L 186 214 L 200 215 L 223 222 L 234 223 L 235 225 L 219 239 Q 195 256 189 292 Q 188 325 203 342 L 218 355 Q 230 364 248 368 L 259 375 Q 269 384 271 402 Q 271 420 263 430 Q 257 437 247 440 Q 231 442 224 436 Q 216 431 214 421 Q 213 412 217 408 L 226 402 Q 232 402 234 407 L 233 409 L 229 406 L 226 407 Q 221 409 221 415 L 223 421 L 233 427 Q 241 428 246 424 L 254 412 L 254 400 L 248 389 Q 242 382 232 379 Q 211 378 202 388 Q 191 397 188 414 Q 187 440 200 452 Q 213 467 238 471 Q 260 473 275 466 Q 295 458 308 442 L 323 437 L 328 431 L 331 419 L 343 410 L 342 401 Q 341 392 344 389 L 351 383 L 355 378 L 347 363 L 347 353 L 356 340 L 355 337 L 347 332 L 345 330 L 348 328 Q 355 324 353 311 L 359 306 L 363 299 Q 364 290 360 287 L 360 283 L 366 274 Q 368 259 359 256 Q 358 247 361 243 L 360 236 L 353 229 Q 341 228 336 232 L 332 231 Q 331 222 334 218 L 341 211 Q 344 208 353 209 L 357 206 L 357 201 L 353 193 Q 352 182 356 177 Q 362 168 374 165 Q 378 164 377 158 L 371 152 Q 361 146 359 134 L 361 121 L 370 108 L 369 104 L 364 100 Q 351 101 346 96 Q 336 90 334 78 L 335 70 Q 337 60 332 58 L 327 58 L 316 63 Q 304 64 298 60 Q 290 55 287 46 Q 286 40 279 41 Z " /><path fill="rgb(238,125,53)" stroke="rgb(238,125,53)" stroke-width="0.6" opacity="1" d="M 253.5 80 L 280.5 81 Q 297.1 86.1 309 95 L 310.5 98 L 319 105.5 L 324 112.5 L 332 130.5 Q 335.9 144.1 334 163.5 L 332 174.5 L 324 194.5 L 307 221.5 L 300 236.5 L 296 251.5 L 296 259.5 L 291 274 L 298 268.5 L 300 265.5 L 325.5 242 L 341.5 235 L 352.5 235 Q 356.8 236.8 355 244.5 L 352 252.5 L 361 267.5 L 360 269.5 L 360 271.5 L 354 285.5 Q 358.3 289.7 357 299.5 L 348 307.5 L 347 314.5 L 347 318.5 L 345.5 322 Q 343.2 325.2 336.5 324 L 331.5 321 L 329.5 321 L 296.5 299 L 295 300.5 L 305.5 311 L 311 315.5 L 318 331.5 Q 315.5 333 319 334.5 L 323 349.5 L 325 375.5 Q 321.8 422.3 295.5 446 Q 285.4 455.4 271.5 461 L 254.5 465 L 239.5 465 L 228.5 463 L 221.5 459 L 219.5 459 Q 209.2 454.8 203 446.5 Q 192.4 435.6 194 412.5 Q 197.2 398.7 206.5 391 L 212.5 387 L 227.5 384 Q 239.4 385.6 245 393.5 Q 248.8 398.2 249 406.5 Q 248.1 415.1 242.5 419 L 238.5 421 L 231.5 421 L 228 418.5 L 227 414 L 234.5 415 L 238 412.5 L 240 407.5 L 234.5 399 L 226.5 396 Q 216.5 398 212 405.5 Q 207.3 411.4 209 423.5 L 210 428.5 L 219.5 440 L 231.5 446 L 246.5 446 L 249.5 445 Q 259.9 441.9 266 434.5 Q 274.7 426.2 277 411.5 L 276 408.5 L 277 402.5 L 276 399.5 L 277 397.5 Q 273.2 381.5 264 372 L 255 365.5 L 257.5 362 L 270 354.5 L 271.5 353 L 273.5 352 Q 281.1 359.4 285 370.5 L 288 382.5 L 288 401.5 L 284 416.5 L 276 429.5 L 277.5 431 L 282 426.5 L 292 404.5 L 293 386.5 L 288 366.5 L 264 332.5 L 253 310.5 Q 255.5 309 252 307.5 Q 246.7 293.8 248 273.5 L 250 265.5 L 250 263.5 L 252 252.5 L 262 229.5 L 263 218 Q 277 214.8 285 204.5 L 289 199.5 L 289 196 L 286 197.5 L 278.5 206 Q 264.2 218.2 237.5 218 L 221.5 216 L 205 210.5 Q 215.6 206.1 222.5 198 L 225.5 200 L 227 197.5 L 222.5 192 L 217 191 L 217 196.5 L 214 201 L 201.5 207 L 180.5 210 L 178.5 210 L 162.5 219 L 159.5 218 L 157.5 218 L 153 215.5 L 142 199.5 L 141 190.5 L 144.5 186 L 159.5 187 Q 171.3 183.3 178 174.5 L 183 164.5 L 187 139.5 L 187 137.5 Q 192.7 110.2 212.5 97 L 233.5 85 L 253.5 80 Z M 235 111 L 233 112 Q 229 113 230 118 Q 245 117 250 126 L 252 125 L 249 117 L 243 111 L 237 111 L 235 111 Z M 229 135 L 223 138 Q 214 145 212 158 Q 211 167 215 172 L 220 175 L 216 164 Q 215 153 219 148 Q 222 142 230 140 L 239 141 L 245 149 L 245 152 L 236 146 L 229 148 Q 223 151 221 159 Q 220 168 223 173 L 230 178 L 236 176 L 248 177 L 247 175 L 247 171 L 251 164 Q 253 148 246 142 L 237 135 L 229 135 Z M 148 193 L 146 195 L 152 201 Q 156 202 154 198 L 148 193 Z M 342 253 Q 314 260 297 278 L 299 280 L 322 264 L 342 256 Q 345 255 342 253 Z M 335 276 L 302 283 Q 297 285 301 287 L 331 281 L 333 281 L 341 280 L 345 278 Q 343 274 335 276 Z M 300 292 L 300 294 L 310 297 L 312 297 L 333 303 L 335 302 L 337 303 Q 340 304 339 302 L 334 299 L 332 299 L 313 293 L 300 292 Z " /><path fill="rgb(238,125,53)" stroke="rgb(238,125,53)" stroke-width="0.6" opacity="1" d="M 237.5 153 L 241 154.5 Q 242.3 159.8 239.5 161 L 235 160 Q 233.8 154.5 237.5 153 Z " /><path fill="rgb(238,125,53)" stroke="rgb(238,125,53)" stroke-width="0.6" opacity="1" d="M 321 323 L 337.5 330 Q 341.4 336.5 349 338 L 349 340.5 L 343 347.5 L 341 359.5 L 343 367.5 L 349 376.5 L 340 384.5 Q 335.8 389.8 336 399.5 L 338 406.5 L 327 414.5 Q 322.8 418.8 323 427.5 L 319.5 432 L 314.5 433 L 315 431.5 L 321 420.5 L 329 395.5 L 330 358.5 L 329 356.5 L 329 354.5 L 327 342.5 L 321 323 Z " /><path fill="rgb(11,12,12)" stroke="rgb(11,12,12)" stroke-width="0.6" opacity="1" d="M 278.5 42 Q 284 41 285 44.5 Q 287.8 53.7 294.5 59 Q 300.9 65.6 315.5 64 L 326.5 59 L 330.5 59 Q 335.5 60.5 334 68.5 L 333 77.5 Q 335.2 88.8 342.5 95 L 354.5 101 L 365.5 102 L 369 105.5 L 368 109.5 L 360 120.5 Q 357 125.5 358 134.5 Q 360.5 145 367.5 151 L 375 156.5 L 376 160.5 L 373.5 164 Q 362.5 166 357 173.5 Q 350.5 179 352 192.5 L 356 200.5 L 356 205.5 L 351.5 208 L 342.5 209 L 334 215.5 Q 329.5 220 331 230.5 L 332 233 L 342.5 230 L 351.5 230 L 359 235.5 L 360 243.5 L 357 253.5 L 365 264.5 L 365 273.5 L 359 282.5 L 359 286.5 Q 363 290 362 298.5 L 355.5 307 L 352 309.5 Q 354.3 322.8 347.5 327 L 343 329.5 L 354 336.5 L 354 341.5 L 346 352.5 L 346 362.5 L 354 376.5 L 350.5 382 L 344 386.5 Q 339.7 390.7 341 400.5 L 342 409.5 L 329 419.5 Q 328.6 429.6 323.5 435 L 307.5 441 Q 294.7 456.7 274.5 465 L 260.5 469 L 239.5 470 Q 211.3 466.2 198 447.5 Q 188.1 436.4 189 414.5 Q 192.4 395.4 205.5 386 Q 214.1 378.6 231.5 380 Q 243.4 382.6 249 391.5 Q 254.5 397.5 253 410.5 L 246.5 422 Q 242.2 426.2 233.5 426 Q 226.9 425.1 224 420.5 L 223 410.5 Q 224.3 406.8 230.5 408 Q 232.7 413.2 235 409.5 Q 236 403 231.5 402 L 225.5 401 L 216 407.5 Q 212.3 411.8 213 420.5 Q 214.9 432.1 223.5 437 Q 230.8 443.2 246.5 441 Q 258.7 437.7 265 428.5 Q 273.1 418.6 272 399.5 Q 269.1 381.9 257.5 373 L 247.5 367 L 222.5 357 L 205 342.5 Q 188.8 326.2 190 292.5 Q 195.2 257.2 218.5 240 L 233 228.5 L 236 223.5 L 234.5 222 L 210.5 218 L 199.5 214 L 185.5 213 L 177.5 215 L 165.5 223 L 155.5 223 L 148 216.5 L 137 200.5 L 136 189.5 L 141.5 182 L 151.5 181 L 159.5 182 Q 169.5 178.5 175 170.5 L 179 160.5 L 183 130.5 Q 187.4 116.4 196 106.5 L 196 103.5 L 187 86.5 L 189.5 83 L 205.5 81 L 217 71.5 Q 222.5 64 222 50.5 L 225.5 47 L 230.5 48 L 245.5 58 L 258.5 58 L 272 49.5 L 276.5 43 L 278.5 42 Z M 280 46 L 275 52 Q 269 59 258 62 L 248 62 L 239 59 L 227 51 L 225 53 L 224 65 L 219 75 L 208 84 L 193 85 L 191 87 L 201 104 Q 218 82 252 76 L 281 77 Q 299 82 313 93 Q 335 111 339 147 Q 340 168 334 183 L 306 235 L 301 251 L 301 257 L 303 256 Q 314 243 329 235 L 328 232 Q 326 217 333 212 L 341 206 L 351 205 L 353 203 L 349 195 Q 347 177 355 171 Q 361 164 371 161 Q 373 162 372 159 L 365 153 Q 358 147 355 137 L 356 121 L 365 107 L 362 104 L 350 103 L 341 98 Q 332 92 330 80 L 331 67 L 330 62 L 319 67 L 303 67 L 293 62 Q 285 57 283 48 L 280 46 Z M 261 78 Q 228 81 210 98 Q 195 109 188 128 L 184 144 L 182 165 L 175 177 Q 169 183 159 186 Q 152 187 150 184 L 144 185 L 139 191 L 141 201 L 151 215 L 159 220 L 164 220 L 182 210 L 200 208 Q 203 207 201 212 L 221 217 L 239 219 Q 271 219 285 201 L 285 203 Q 276 214 261 219 L 259 219 Q 252 222 243 221 L 237 230 L 228 238 L 229 241 L 228 240 L 220 244 Q 200 260 194 290 L 195 302 L 194 305 Q 195 323 203 334 Q 205 339 210 338 L 209 341 L 210 343 L 225 354 L 246 363 L 250 363 L 260 370 Q 271 379 275 397 Q 277 420 267 432 Q 260 442 245 445 Q 229 446 222 440 Q 213 434 210 424 Q 208 410 214 405 L 225 398 L 235 400 L 238 406 Q 239 412 235 414 Q 229 415 228 411 Q 225 412 226 418 Q 228 422 235 423 L 245 419 L 250 409 Q 251 399 247 395 Q 241 386 230 383 Q 215 382 208 389 Q 197 397 193 412 L 193 429 L 201 446 Q 214 464 244 467 Q 276 466 293 450 Q 321 427 326 381 L 326 364 L 324 349 Q 320 330 312 315 L 308 311 L 301 303 L 325 320 L 336 325 L 346 324 L 349 319 L 348 314 L 349 309 L 359 297 L 356 289 L 356 281 L 362 272 L 361 265 L 354 255 Q 353 248 356 246 Q 358 235 352 233 L 345 233 L 333 237 L 315 249 L 300 265 L 295 269 L 301 239 L 329 187 Q 335 175 336 159 L 336 147 L 333 130 Q 328 113 317 102 Q 299 79 261 78 Z M 318 320 Q 326 337 329 360 Q 331 381 327 397 L 320 419 L 311 436 L 321 433 L 324 429 L 327 417 L 339 408 L 338 404 Q 336 392 340 387 L 350 378 L 350 375 Q 344 369 342 360 L 343 351 L 351 340 L 343 334 L 340 331 L 338 328 Q 325 326 318 320 Z " /><path fill="rgb(11,12,12)" stroke="rgb(11,12,12)" stroke-width="0.6" opacity="1" d="M 233.5 113 Q 247.1 110.9 250 119.5 L 251 124 L 240.5 117 Q 233 119 231 115.5 L 233.5 113 Z " /><path fill="rgb(11,12,12)" stroke="rgb(11,12,12)" stroke-width="0.6" opacity="1" d="M 227.5 137 Q 232.3 135.7 231 139 Q 223.5 139.1 220 144.5 Q 215.3 148 216 155 Q 213 156.3 214 152.5 Q 216.8 142.8 224.5 138 L 227.5 137 Z " /><path fill="rgb(11,12,12)" stroke="rgb(11,12,12)" stroke-width="0.6" opacity="1" d="M 235 137 Q 243.1 137 246 143.5 Q 251.3 149.2 250 161.5 L 247.5 167 L 247 163.5 L 248 152.5 Q 245.8 144.2 239.5 140 L 235 139 L 235 137 Z " /><path fill="rgb(11,12,12)" stroke="rgb(11,12,12)" stroke-width="0.6" opacity="1" d="M 231.5 148 Q 241.9 146.6 244 153.5 L 245 164.5 L 242 172 L 245 173.5 L 243.5 175 L 228.5 176 Q 221 172 222 159.5 L 227.5 150 L 231.5 148 Z M 237 152 Q 233 153 234 161 L 238 163 L 241 162 L 243 156 Q 242 151 237 152 Z " /><path fill="rgb(11,12,12)" stroke="rgb(11,12,12)" stroke-width="0.6" opacity="1" d="M 219.5 192 L 225 196.5 L 223.5 198 L 221.5 197 Q 215.1 206.5 203 209 L 204.5 207 Q 214.5 203.5 220 195.5 L 219.5 192 Z " /><path fill="rgb(11,12,12)" stroke="rgb(11,12,12)" stroke-width="0.6" opacity="1" d="M 256.5 322 L 282 359.5 L 280 358.5 L 265 338.5 L 259 327 L 256 325.5 L 256.5 322 Z " /><path fill="rgb(60,138,189)" stroke="rgb(60,138,189)" stroke-width="0.6" opacity="1" d="M 278 47 Q 282.8 45.1 282 48.5 L 291.5 62 L 304.5 68 L 316.5 68 L 328.5 63 L 330 68.5 L 329 77.5 Q 330.7 91.3 339.5 98 L 353.5 105 L 364 106 L 357 116.5 L 354 125.5 L 354 136.5 Q 356.8 147.8 364.5 154 L 371 158.5 Q 372.3 162.7 367.5 161 Q 357.8 165.3 352 173.5 Q 345.8 179.8 348 194.5 L 352 202.5 L 350.5 204 L 340.5 205 L 332 211 Q 326.6 216.5 326 227.5 L 328 234.5 Q 314.1 242.1 304 253.5 L 303.5 255 L 302 249.5 L 306 236.5 L 326 201.5 L 335 181.5 Q 340.5 167 340 146.5 Q 335.2 110.3 312.5 92 Q 300.5 82 283.5 77 Q 271.6 73.4 254.5 75 L 230.5 81 Q 212.9 88.9 200.5 102 L 193 90.5 L 192 86 Q 213 87.8 220 74.5 L 225 64.5 L 226 52.5 L 227.5 51 Q 235.5 62.5 254.5 63 Q 269.1 61.1 276 51.5 L 278 47 Z " /><path fill="rgb(60,138,189)" stroke="rgb(60,138,189)" stroke-width="0.6" opacity="1" d="M 255.5 328 L 259 329.5 L 271 347.5 L 263.5 356 Q 257.6 362.1 245.5 362 L 229.5 356 L 211 342.5 L 213.5 341 L 234.5 340 Q 247.7 336.7 255.5 328 Z " /><path fill="rgb(245,202,61)" stroke="rgb(245,202,61)" stroke-width="0.6" opacity="1" d="M 225.5 241 Q 233.9 247.9 250 246 L 246 259.5 L 245 268.5 L 242.5 271 L 223.5 272 L 205 266 L 206 260.5 L 216.5 248 L 225.5 241 Z " /><path fill="rgb(245,202,61)" stroke="rgb(245,202,61)" stroke-width="0.6" opacity="1" d="M 244.5 304 L 248 305.5 L 255 325.5 Q 246.8 333.8 233.5 337 L 212.5 338 L 207.5 337 L 205 334.5 Q 196.4 322.9 195 305 Q 208.4 311.3 231.5 309 L 244.5 304 Z " /><path fill="rgb(88,160,112)" stroke="rgb(88,160,112)" stroke-width="0.6" opacity="1" d="M 256.5 220 L 259 221.5 Q 258.5 235.5 251.5 243 L 243.5 244 L 229 240 Q 228.3 234.5 233.5 233 L 237 230.5 L 242.5 222 Q 251.5 223 256.5 220 Z " /><path fill="rgb(88,160,112)" stroke="rgb(88,160,112)" stroke-width="0.6" opacity="1" d="M 201.5 268 L 204.5 269 L 222.5 275 L 238.5 275 L 243.5 273 L 245 274.5 L 246 299.5 Q 234.8 309.3 210.5 306 L 195 301 L 196 282.5 L 201.5 268 Z " /><path fill="rgb(42,44,44)" stroke="rgb(42,44,44)" stroke-width="0.6" opacity="1" d="M 305.5 67 L 316 67.5 L 305.5 68 L 305.5 67 Z " /><path fill="rgb(42,44,44)" stroke="rgb(42,44,44)" stroke-width="0.6" opacity="1" d="M 258.5 75 L 270 75.5 L 258.5 76 L 258.5 75 Z " /><path fill="rgb(42,44,44)" stroke="rgb(42,44,44)" stroke-width="0.6" opacity="1" d="M 192.5 85 L 203 85.5 L 191.5 87 L 192.5 85 Z " /><path fill="rgb(42,44,44)" stroke="rgb(42,44,44)" stroke-width="0.6" opacity="1" d="M 214.5 155 L 216 155.5 L 214.5 158 Q 217.9 157.1 216 162.5 L 215.5 165 L 214 163.5 L 213 156.5 L 214.5 155 Z " /><path fill="rgb(42,44,44)" stroke="rgb(42,44,44)" stroke-width="0.6" opacity="1" d="M 148 194 L 152 196.5 L 151.5 200 L 150 197.5 L 149.5 195 L 148 195.5 L 148 194 Z " /><path fill="rgb(42,44,44)" stroke="rgb(42,44,44)" stroke-width="0.6" opacity="1" d="M 258 230 L 260 231.5 L 254.5 244 L 251 244.5 L 255 238 L 257 237.5 L 256 235.5 L 258 230 Z " /><path fill="rgb(42,44,44)" stroke="rgb(42,44,44)" stroke-width="0.6" opacity="1" d="M 203.5 263 L 205.5 267 L 210 269.5 L 207.5 270 L 202.5 267 L 201 267.5 L 203.5 263 Z " /><path fill="rgb(42,44,44)" stroke="rgb(42,44,44)" stroke-width="0.6" opacity="1" d="M 316.5 264 L 317.5 266 L 316 265.5 L 314.5 268 L 310.5 269 L 311.5 267 L 316.5 264 Z " /><path fill="rgb(42,44,44)" stroke="rgb(42,44,44)" stroke-width="0.6" opacity="1" d="M 312 295 L 323 297 Q 324.3 300 320.5 299 L 312 297 L 312 295 Z " /><path fill="rgb(42,44,44)" stroke="rgb(42,44,44)" stroke-width="0.6" opacity="1" d="M 194.5 300 L 203 304 L 201.5 306 L 195 302.5 L 194.5 300 Z " /><path fill="rgb(42,44,44)" stroke="rgb(42,44,44)" stroke-width="0.6" opacity="1" d="M 297.5 301 L 301 302.5 L 300 303.5 L 302.5 307 L 297.5 301 Z " /><path fill="rgb(42,44,44)" stroke="rgb(42,44,44)" stroke-width="0.6" opacity="1" d="M 254.5 316 L 255 317.5 L 254.5 319 L 256 319.5 L 255.5 321 L 257 321.5 L 255 322.5 L 253 317.5 L 254.5 316 Z " /><path fill="rgb(42,44,44)" stroke="rgb(42,44,44)" stroke-width="0.6" opacity="1" d="M 255.5 326 L 257 326.5 L 247.5 333 L 247.5 332 L 255.5 326 Z " /><path fill="rgb(42,44,44)" stroke="rgb(42,44,44)" stroke-width="0.6" opacity="1" d="M 242.5 334 L 245 334.5 Q 240.7 338.7 232.5 339 L 233.5 337 L 242.5 334 Z " /><path fill="rgb(42,44,44)" stroke="rgb(42,44,44)" stroke-width="0.6" opacity="1" d="M 215 339 L 224.5 339 L 225 341 L 215.5 341 L 215 339 Z " /><path fill="rgb(42,44,44)" stroke="rgb(42,44,44)" stroke-width="0.6" opacity="1" d="M 268.5 352 L 269 353.5 L 261.5 359 L 262.5 357 L 268 354 L 268.5 352 Z " /><path fill="rgb(42,44,44)" stroke="rgb(42,44,44)" stroke-width="0.6" opacity="1" d="M 281.5 358 L 281.5 360 L 284 361.5 L 286 366.5 L 284 367.5 L 283 364.5 L 283.5 363 L 281 361.5 L 280 359.5 L 281.5 358 Z " /><path fill="rgb(42,44,44)" stroke="rgb(42,44,44)" stroke-width="0.6" opacity="1" d="M 289 386 L 291 386.5 L 291 398 Q 288 399.3 289 395.5 L 290 390.5 L 289 386 Z " /><path fill="rgb(42,44,44)" stroke="rgb(42,44,44)" stroke-width="0.6" opacity="1" d="M 288 406 L 290 407.5 L 286.5 415 L 286 412.5 L 288 406 Z " /><path fill="rgb(42,44,44)" stroke="rgb(42,44,44)" stroke-width="0.6" opacity="1" d="M 200.5 450 L 205.5 456 L 200.5 450 Z " /><path fill="rgb(72,75,66)" stroke="rgb(72,75,66)" stroke-width="0.6" opacity="1" d="M 245.5 168 L 248 168.5 L 246.5 171 L 245.5 169 L 243 170.5 L 243.5 172 Q 240.5 170.5 243.5 169 L 245.5 168 Z " /><path fill="rgb(72,75,66)" stroke="rgb(72,75,66)" stroke-width="0.6" opacity="1" d="M 326.5 259 L 327.5 261 L 322.5 263 L 321.5 261 L 323.5 262 L 324.5 260 L 326 260.5 L 326.5 259 Z " /><path fill="rgb(72,75,66)" stroke="rgb(72,75,66)" stroke-width="0.6" opacity="1" d="M 213 306 L 223 307 Q 224.3 310.7 218.5 309 L 213 308 L 213 306 Z " /><path fill="rgb(72,75,66)" stroke="rgb(72,75,66)" stroke-width="0.6" opacity="1" d="M 285.5 414 L 288 414.5 L 283.5 422 L 283.5 419 L 285 418.5 L 284.5 417 L 286 416.5 L 285.5 414 Z " /><path fill="rgb(204,119,55)" stroke="rgb(204,119,55)" stroke-width="0.6" opacity="1" d="M 244.5 120 L 251 125.5 L 249.5 126 L 244.5 120 Z " /><path fill="rgb(204,119,55)" stroke="rgb(204,119,55)" stroke-width="0.6" opacity="1" d="M 296.5 299 L 298 299.5 L 296 300.5 L 302.5 308 L 295 300.5 L 296.5 299 Z " /><path fill="rgb(204,119,55)" stroke="rgb(204,119,55)" stroke-width="0.6" opacity="1" d="M 288.5 386 L 289 397.5 L 288 397.5 L 288.5 386 Z " /><path fill="rgb(90,110,113)" stroke="rgb(90,110,113)" stroke-width="0.6" opacity="1" d="M 312.5 92 L 320.5 101 L 312.5 92 Z " /><path fill="rgb(90,110,113)" stroke="rgb(90,110,113)" stroke-width="0.6" opacity="1" d="M 339.5 146 L 340 157.5 L 339 157.5 L 339.5 146 Z " /><path fill="rgb(90,110,113)" stroke="rgb(90,110,113)" stroke-width="0.6" opacity="1" d="M 311.5 246 L 304.5 254 L 311.5 246 Z " /><path fill="rgb(90,110,113)" stroke="rgb(90,110,113)" stroke-width="0.6" opacity="1" d="M 225.5 273 Q 234.5 271.5 239 274.5 L 222.5 275 L 222.5 274 L 225.5 273 Z " /><path fill="rgb(90,110,113)" stroke="rgb(90,110,113)" stroke-width="0.6" opacity="1" d="M 217.5 306 L 226 306.5 L 225 309 Q 221.9 309.8 222.5 307 L 217.5 307 L 217.5 306 Z " /><path fill="rgb(90,110,113)" stroke="rgb(90,110,113)" stroke-width="0.6" opacity="1" d="M 306.5 442 L 299.5 450 L 306.5 442 Z " /><path fill="rgb(163,119,55)" stroke="rgb(163,119,55)" stroke-width="0.6" opacity="1" d="M 247.5 275 L 248 286.5 L 247 286.5 L 247.5 275 Z " /><path fill="rgb(117,101,57)" stroke="rgb(117,101,57)" stroke-width="0.6" opacity="1" d="M 221.5 197 L 224.5 199 L 225.5 197 L 226 198.5 Q 224.3 201.8 222.5 198 L 220.5 199 L 221.5 197 Z " /><path fill="rgb(117,101,57)" stroke="rgb(117,101,57)" stroke-width="0.6" opacity="1" d="M 311.5 252 L 305.5 259 L 311.5 252 Z " /><path fill="rgb(205,205,204)" stroke="rgb(205,205,204)" stroke-width="0.6" opacity="1" d="M 200.5 451 L 205.5 457 L 200.5 451 Z " /><path fill="rgb(228,122,74)" stroke="rgb(228,122,74)" stroke-width="0.6" opacity="1" d="M 207.5 101 L 201.5 108 L 207.5 101 Z " /><path fill="rgb(228,122,74)" stroke="rgb(228,122,74)" stroke-width="0.6" opacity="1" d="M 312.5 252 L 304.5 261 L 312.5 252 Z " /><path fill="rgb(228,122,74)" stroke="rgb(228,122,74)" stroke-width="0.6" opacity="1" d="M 334.5 276 Q 342.8 273.8 345 277.5 L 343.5 277 L 334.5 277 L 334.5 276 Z " /><path fill="rgb(228,122,74)" stroke="rgb(228,122,74)" stroke-width="0.6" opacity="1" d="M 292.5 386 L 293 397.5 L 292 397.5 L 292.5 386 Z " /></svg>