<svg width="627" height="627" preserveAspectRatio="xMidYMid meet" viewBox="0 0 512 512" version="1.1" xmlns="http://www.w3.org/2000/svg" ><path fill="rgb(255,255,255)" stroke="rgb(255,255,255)" stroke-width="0.6" opacity="1" d="M 0 0 L 512 0 L 512 512 L 0 512 L 0 0 Z M 367 63 L 347 78 L 320 88 L 316 88 L 297 80 L 272 75 Q 222 72 194 90 L 161 80 L 140 66 L 136 67 L 131 76 Q 130 85 133 90 Q 134 93 131 92 L 127 99 Q 128 113 137 120 L 136 123 L 140 133 L 144 135 L 134 163 L 131 185 Q 132 217 148 235 L 144 238 Q 124 256 120 290 Q 119 317 127 336 Q 135 354 147 369 Q 157 382 174 389 L 181 387 L 193 402 L 192 403 L 184 404 L 175 409 L 167 421 Q 166 428 169 432 Q 171 437 180 436 L 189 443 Q 197 444 201 440 L 209 445 L 220 443 L 232 431 L 245 430 L 252 420 L 261 424 L 259 430 L 262 441 L 270 446 Q 276 447 279 444 L 289 450 Q 299 450 303 444 L 305 445 L 315 444 L 319 440 L 323 430 L 331 432 L 343 431 L 349 428 L 351 425 Q 354 420 361 420 L 364 416 L 364 412 L 353 401 L 360 389 L 361 384 L 366 382 Q 373 377 374 365 L 377 363 Q 384 358 386 348 L 392 319 Q 395 266 371 240 L 363 233 Q 376 216 378 190 Q 378 156 365 137 L 372 126 L 372 117 L 379 104 L 378 91 L 373 89 L 374 86 L 373 68 L 367 63 Z " /><path fill="rgb(255,255,255)" stroke="rgb(255,255,255)" stroke-width="0.6" opacity="1" d="M 256.5 230 L 257 231.5 L 253.5 236 L 249 234.5 Q 248.1 231.1 253.5 233 L 256.5 230 Z " /><path fill="rgb(255,255,255)" stroke="rgb(255,255,255)" stroke-width="0.6" opacity="1" d="M 137.5 341 L 149 359.5 L 146 360 L 137 345.5 L 137.5 341 Z " /><path fill="rgb(141,93,55)" stroke="rgb(141,93,55)" stroke-width="0.6" opacity="1" d="M 366.5 68 L 369 69.5 L 370 82.5 L 367 92 L 365 93.5 Q 368 95.5 363 97.5 L 359.5 103 Q 356.5 102.2 358 106 L 361.5 104 L 368 100 L 371.5 95 L 375 95 L 375 101.5 L 367.5 115 L 363 118.5 L 361.5 121 L 355 123 Q 353.8 126 357.5 125 L 359.5 126 L 363 125 L 364.5 123 L 366 127.5 L 362 130.5 L 360.5 133 L 358 134.5 L 359.5 136 L 366 146.5 L 371 164.5 L 371 166.5 Q 374.3 177.2 373 192.5 L 371 204.5 L 366 218.5 L 355.5 233 L 349 238.5 L 345.5 243 L 330.5 252 L 329 251.5 L 328.5 253 Q 327 250.5 325.5 254 L 321 255 L 322.5 257 L 328.5 255 L 328.5 257 L 330 257.5 Q 320.3 274.3 321 301.5 L 334 365.5 L 334 375.5 L 323.5 390 L 321 391.5 L 319.5 395 L 315 397.5 L 313.5 399 Q 309.4 405.4 300.5 407 L 297.5 405 L 292.5 408 L 286.5 408 L 283.5 407 L 276 401.5 L 275 397 Q 271.7 395.7 273 400.5 L 274 404.5 L 271.5 407 L 255.5 407 L 232 400 L 230.5 398 L 224 394 L 230.5 402 Q 233.9 401.2 232 406 L 227.5 407 L 226 406.5 Q 226.5 409.5 219.5 408 L 211.5 405 L 207.5 406 L 203 404 L 201.5 402 L 199 401 L 195.5 393 L 192 392 L 190.5 390 L 184 384.5 L 177 374 L 175 372.5 Q 156.5 349.5 156 308.5 L 159 293.5 L 159 291.5 Q 161.7 270.7 172 257.5 L 170.5 257 L 160 271.5 L 152 300.5 L 153 302.5 L 152 303.5 L 152 319.5 L 153 321.5 L 152 323.5 L 156 342.5 L 155 346 L 157 346.5 L 155 352.5 L 156 357.5 L 153.5 359 L 148 354.5 Q 139.8 342.7 137 325.5 L 137 323.5 L 135 312.5 L 136 307 L 134 308.5 L 133 311.5 L 134 315.5 L 133 319.5 L 134 323.5 L 134 325.5 L 135 328.5 L 135 330.5 Q 136.5 336.5 133.5 338 L 127 319.5 L 127 317.5 Q 123 305 125 286.5 L 129 273.5 L 128 271.5 L 134 260.5 L 134 258.5 L 143.5 245 L 148 241.5 L 149.5 239 L 152.5 240 L 153.5 239 L 158.5 244 L 174 252.5 L 173.5 254 L 177.5 255 L 181.5 254 L 185 255 Q 186.3 251.7 181.5 253 L 171 248 L 170.5 246 Q 169 248.5 167.5 245 L 150 229.5 L 141 213.5 Q 143.5 212 140 210.5 L 137 198.5 L 137 196.5 L 136 188.5 L 137 185.5 L 136 179.5 L 137 177.5 L 136.5 176 L 138 174.5 L 137 170.5 L 144 147 L 146 146.5 L 146 144.5 L 151 135.5 L 143 129.5 L 141 125.5 L 144.5 124 Q 147.1 127.4 154.5 126 L 154.5 125 Q 142.6 122.4 137 113.5 L 132 101.5 L 134.5 97 Q 138.6 102.4 146.5 104 L 141 97.5 L 136 84.5 L 136 82.5 Q 134.5 75 137.5 72 L 140.5 73 L 159.5 85 L 161.5 85 L 166 86 L 166.5 88 L 168.5 87 L 172 88 L 173.5 90 L 176.5 89 L 184 91 L 185.5 93 L 187.5 93 Q 195.4 93.1 198.5 98 L 205.5 99 L 205.5 98 L 200 93.5 L 201.5 90 L 204.5 89 L 207 90 L 208.5 88 L 214.5 85 L 235.5 81 L 238 82 Q 236.7 78.7 241.5 80 L 246.5 81 L 247.5 80 L 264.5 80 L 269.5 81 L 274 80 L 275.5 82 L 281.5 81 L 288.5 84 L 290.5 84 L 309 89 L 307.5 94 L 299 99 L 300.5 101 L 307.5 97 Q 309.5 100 311.5 95 L 317.5 93 Q 319 95.5 320.5 92 L 328.5 89 L 331.5 90 L 343.5 84 L 345.5 84 L 347 83.5 L 346.5 82 Q 348 84.5 349.5 81 L 353 80 L 354.5 78 L 358 77 L 360.5 73 L 365 71 L 366.5 68 Z M 188 116 L 186 118 L 184 117 L 176 122 Q 171 121 172 124 L 164 129 Q 154 137 149 150 L 143 173 L 143 182 L 147 201 L 151 209 L 151 211 L 153 211 Q 158 224 168 233 L 171 233 L 187 244 L 188 246 L 191 245 L 201 250 L 214 252 L 217 254 L 219 253 Q 222 252 221 255 L 224 254 L 235 255 L 237 255 Q 240 256 239 253 Q 232 255 229 251 L 227 252 L 223 250 L 220 251 L 218 251 L 196 244 L 194 243 L 193 243 Q 180 239 172 230 L 170 229 L 164 224 L 152 205 L 147 186 Q 145 147 167 131 L 168 130 L 184 121 L 187 122 L 187 120 L 191 121 L 192 120 L 194 120 L 196 119 Q 202 118 205 121 L 207 120 Q 222 123 231 132 L 233 133 L 235 137 L 238 138 L 240 142 L 242 143 L 250 162 L 249 166 L 251 166 L 250 170 L 251 176 L 251 178 L 253 183 L 254 179 L 253 177 L 255 167 Q 253 162 257 163 L 256 162 L 260 152 L 262 150 L 261 149 L 268 139 Q 281 123 305 119 L 308 120 L 319 119 Q 320 122 322 120 Q 335 122 343 130 Q 356 142 360 165 Q 362 182 358 194 Q 354 209 345 221 Q 334 234 319 242 L 290 251 L 286 250 L 284 252 L 280 251 L 276 253 L 267 253 L 266 255 L 276 254 L 285 255 Q 288 256 287 253 L 291 254 L 305 250 L 307 250 Q 323 245 335 235 L 336 233 L 344 227 L 346 225 L 358 204 L 364 182 L 363 180 L 364 170 L 361 155 L 356 144 Q 357 140 354 141 L 349 132 L 340 125 L 338 122 L 331 120 Q 329 115 327 118 L 319 116 L 303 116 L 302 117 L 298 116 L 297 118 L 286 121 L 272 130 L 262 142 L 260 143 L 256 153 L 255 154 L 255 156 L 254 158 L 252 157 Q 247 143 238 134 L 235 131 L 233 128 L 218 120 L 216 118 L 214 118 L 212 118 L 202 116 L 194 117 L 188 116 Z M 195 134 L 185 140 L 185 142 L 182 148 L 192 143 L 203 142 Q 205 146 207 142 L 203 136 Q 199 137 200 135 L 199 135 L 195 134 Z M 305 135 L 300 142 L 305 143 L 309 141 L 319 143 L 326 147 L 325 143 L 317 135 L 307 135 L 305 135 Z M 200 156 L 199 158 L 198 157 L 186 162 Q 177 167 174 179 L 174 197 L 179 206 Q 184 212 194 215 L 209 214 L 211 214 L 222 205 L 226 194 L 226 192 L 227 190 Q 227 176 221 169 Q 215 160 204 157 L 201 158 L 200 156 Z M 300 157 L 288 163 L 283 171 Q 279 172 282 174 L 278 182 L 280 197 L 286 208 L 289 208 Q 293 214 303 215 Q 315 216 322 210 Q 330 203 333 191 Q 334 174 326 167 L 316 158 L 300 157 Z M 250 191 L 240 196 L 231 207 L 228 214 L 228 219 L 233 222 L 242 244 L 249 248 Q 256 249 259 246 Q 267 240 270 229 Q 268 223 272 224 L 271 223 L 276 219 L 275 210 L 269 200 Q 264 191 250 191 Z M 180 270 L 178 283 L 180 283 L 182 290 L 189 294 L 197 295 L 208 288 L 209 287 L 210 287 L 209 290 L 213 296 Q 217 302 228 302 L 230 302 L 231 300 L 237 298 L 241 291 L 243 291 Q 246 290 245 293 Q 250 301 261 303 L 273 298 L 278 288 L 282 286 L 287 291 L 295 295 L 297 294 L 299 295 L 307 291 L 312 280 L 309 279 L 307 286 L 305 289 L 302 291 L 299 290 L 294 291 L 288 289 L 281 282 L 278 280 Q 279 284 276 286 L 277 288 L 273 294 L 266 299 Q 257 300 253 297 L 251 295 L 249 293 L 244 286 Q 245 281 242 282 L 238 293 L 229 299 Q 222 300 220 297 L 218 296 L 215 293 L 211 285 Q 212 280 210 281 L 208 284 Q 204 290 195 292 L 188 291 Q 182 288 181 281 L 182 274 Q 183 269 180 270 Z M 175 310 L 174 319 L 179 328 L 188 331 L 196 330 L 198 330 L 200 328 L 206 322 L 207 323 L 209 319 L 206 317 L 204 322 Q 199 328 188 328 Q 186 324 185 327 L 183 326 L 178 322 L 175 310 Z M 311 317 L 310 320 L 307 326 L 299 331 Q 291 332 288 328 L 281 321 L 280 319 L 280 321 L 277 329 Q 274 335 267 336 L 265 336 L 261 337 L 254 334 L 245 321 L 242 327 L 231 336 Q 222 337 218 334 Q 212 331 210 324 L 208 323 Q 209 330 213 334 L 223 339 Q 233 340 238 335 L 242 328 L 246 329 L 247 331 Q 251 339 262 340 Q 269 341 273 337 L 281 326 L 290 332 L 291 334 L 293 333 L 295 334 Q 303 334 307 330 Q 311 327 311 320 L 311 317 Z M 189 349 Q 188 357 193 362 L 204 368 Q 211 369 215 366 L 222 358 L 222 355 L 219 360 L 209 366 L 199 363 Q 192 358 189 349 Z M 228 356 L 226 358 L 229 364 Q 233 370 242 372 Q 251 373 255 369 L 256 368 L 259 366 L 262 360 Q 263 356 261 357 L 258 362 L 257 363 L 255 366 L 249 369 Q 239 370 235 366 L 228 356 Z M 265 356 L 269 365 L 276 369 Q 281 367 280 371 L 286 370 L 289 369 L 291 367 L 298 358 L 296 356 L 295 360 L 287 367 L 283 366 L 280 367 L 274 364 L 272 363 L 268 360 L 267 358 L 265 356 Z " /><path fill="rgb(141,93,55)" stroke="rgb(141,93,55)" stroke-width="0.6" opacity="1" d="M 303.5 160 L 306.5 161 L 308 160.5 L 308.5 162 L 312.5 161 Q 320.6 163.9 325 170.5 Q 330.1 177.4 330 189.5 L 327 199 Q 323.7 197.7 325 202.5 L 321 205.5 L 319.5 208 Q 313.2 213.7 299.5 212 Q 291.2 209.8 287 203.5 L 282 192.5 L 282 180.5 L 285 176.5 L 285 174.5 L 288.5 168 L 290 166.5 Q 293.7 161.7 301.5 161 L 303 161.5 L 303.5 160 Z M 303 170 L 297 172 Q 289 177 288 189 L 290 199 L 293 203 L 303 208 Q 313 208 317 203 L 319 201 L 321 196 Q 323 184 319 178 Q 315 169 303 170 Z " /><path fill="rgb(141,93,55)" stroke="rgb(141,93,55)" stroke-width="0.6" opacity="1" d="M 336.5 349 L 340.5 355 L 345.5 357 L 347.5 357 L 349 358.5 L 354 373.5 L 358 379.5 L 353 393 L 348.5 395 L 342 384.5 L 338 370.5 L 335 350.5 L 336.5 349 Z " /><path fill="rgb(141,93,55)" stroke="rgb(141,93,55)" stroke-width="0.6" opacity="1" d="M 248.5 409 L 252.5 411 L 256.5 410 L 266.5 411 L 268 412.5 L 264.5 417 Q 252.4 418.6 247 413.5 L 248.5 409 Z " /><path fill="rgb(8,8,9)" stroke="rgb(8,8,9)" stroke-width="0.6" opacity="1" d="M 364.5 65 Q 369.8 63.8 371 66.5 Q 374 72.5 373 82.5 L 371 89.5 L 378 92.5 L 378 103.5 L 370 118.5 L 371 123.5 Q 369.9 131.4 364 134.5 L 364 137.5 L 370 147.5 L 370 151.5 L 374 160.5 L 376 171.5 L 376 197.5 L 372 213.5 L 362 232.5 L 365 237 L 373 243.5 L 384 263.5 L 388 275.5 L 391 293.5 L 390 295.5 L 391 296.5 L 391 315.5 L 386 343.5 L 380 358.5 L 376.5 362 L 373 363.5 Q 372.4 375.4 365.5 381 Q 360.8 380.3 360 383.5 Q 357.9 394.4 351 400.5 L 362 410.5 L 363 414.5 L 358.5 420 Q 352.7 419.2 351 422.5 L 346.5 428 Q 338.5 432 324.5 430 L 321.5 429 L 316.5 441 Q 313.6 445.1 305.5 444 L 301.5 443 Q 298.3 450.3 285.5 448 L 278.5 443 L 270.5 445 L 264 440.5 Q 258.9 437.1 261 426.5 L 263 422.5 L 258.5 420 L 250.5 419 L 245.5 428 L 240.5 430 L 229.5 431 L 229 429.5 L 231.5 427 L 242.5 427 L 246 423.5 Q 247.1 415.9 243.5 413 L 233.5 408 Q 229.2 411.7 220.5 411 L 210.5 408 L 208.5 409 Q 203 404 190.5 406 Q 181.5 407 176.5 412 L 176 409.5 L 181.5 406 L 195 403 L 185 388 L 192 392.5 L 200.5 403 L 210.5 407 L 213.5 406 Q 216.7 409.8 224.5 409 L 235 404.5 L 234 402 L 229 399.5 L 230.5 399 Q 244.2 409.3 269.5 408 L 276 405.5 L 277.5 404 Q 280.5 410.5 291.5 409 Q 293.2 406.2 298.5 407 L 302.5 408 L 317.5 397 L 320 397 L 319 401.5 Q 326.7 410.8 338.5 416 Q 345.3 419.2 356.5 418 L 361 414.5 L 345 397.5 L 336.5 380 L 333 382.5 L 324.5 394 L 320.5 396 L 321 394.5 L 334 377.5 L 336 371.5 L 329 340.5 L 329 331.5 L 325 320.5 L 323 305.5 L 323 284.5 L 325 270.5 L 328.5 263 L 329 266.5 Q 323.1 281.1 325 303.5 L 330 331.5 L 336 344.5 L 334.5 344 Q 331.9 343.2 333 346.5 L 340 381.5 L 347.5 396 Q 354.3 396.8 355 391.5 L 359 378.5 L 352 365 L 354 366.5 L 361.5 378 Q 366.3 378.8 367 375.5 Q 371.6 368.6 371.5 357 L 375.5 359 Q 385.5 347.5 386 326.5 L 385 324.5 L 388 319.5 L 389 299.5 L 388 296.5 L 389 294.5 Q 386.2 289.3 387 280.5 L 379 257.5 Q 371.8 244.2 360.5 235 L 358.5 235 L 345.5 247 L 331.5 255 L 329 253.5 Q 345 246.5 356 234.5 L 365 222.5 L 373 202.5 L 374 175.5 L 369 151.5 L 360 134.5 L 369 122.5 L 365.5 121 L 362.5 122 L 371 112.5 L 375 105.5 L 376 96.5 L 373.5 93 L 363 101 L 371 83.5 L 370 81.5 L 371 71.5 L 369 68 L 365.5 68 L 346.5 82 L 307 96 L 308.5 94 L 312 91.5 L 308.5 88 L 298.5 84 L 282.5 80 Q 272.9 81.1 267.5 78 L 244.5 78 L 218.5 83 L 198 91.5 L 200 96 L 160.5 84 L 148.5 78 L 138.5 70 L 135 73.5 L 135 85.5 Q 137.4 95.6 144 101.5 L 142.5 102 L 132.5 96 Q 129.5 97.5 131 103.5 Q 133.8 115.7 143.5 121 L 147 123.5 L 144.5 124 L 141.5 123 L 140 125.5 L 142 129.5 L 140.5 130 Q 136 128 138 119.5 L 131 110.5 Q 127.9 105.1 129 95.5 L 135 91.5 Q 131.2 86.2 132 76.5 L 136.5 68 L 141.5 69 L 159.5 81 L 193.5 91 Q 220 74.5 264.5 76 L 295.5 81 L 317.5 90 L 347.5 79 L 364.5 65 Z M 317 402 L 309 407 L 307 412 L 313 416 L 318 424 L 327 428 Q 338 430 345 426 L 348 422 Q 328 416 317 402 Z M 240 406 L 238 408 L 243 410 L 245 414 Q 251 419 264 419 L 269 412 L 268 410 L 255 410 L 240 406 Z M 278 408 L 274 409 L 263 428 L 264 439 Q 267 443 276 442 Q 279 441 278 436 Q 281 435 280 440 L 288 446 L 297 445 Q 303 441 301 431 L 303 432 L 303 440 L 307 442 L 315 440 L 317 436 Q 318 427 315 423 L 308 416 L 304 409 L 302 410 L 298 409 L 292 411 L 285 411 L 278 408 Z " /><path fill="rgb(8,8,9)" stroke="rgb(8,8,9)" stroke-width="0.6" opacity="1" d="M 225.5 125 L 240 137.5 L 245 145.5 L 243 144.5 L 228.5 128 L 225.5 125 Z " /><path fill="rgb(8,8,9)" stroke="rgb(8,8,9)" stroke-width="0.6" opacity="1" d="M 281.5 125 L 280.5 127 L 268.5 137 L 268 135.5 L 281.5 125 Z " /><path fill="rgb(8,8,9)" stroke="rgb(8,8,9)" stroke-width="0.6" opacity="1" d="M 142 131 L 149 135.5 Q 141 148.5 137 165.5 Q 134 177.5 135 193.5 L 138 209.5 L 142 219.5 L 155.5 237 L 174 250.5 L 171.5 251 L 150.5 237 Q 135.1 248.6 128 268.5 Q 122.1 284.1 124 307.5 L 128 328.5 L 133.5 339 Q 136.9 338.1 135 343.5 Q 143.8 361.7 157.5 375 L 170.5 384 L 175.5 385 L 177 381.5 Q 165.2 368.6 160 350 L 157 348.5 L 158 345.5 Q 152.6 328.4 153 305.5 L 156 285.5 L 164.5 267 L 165 269.5 Q 152.7 290.2 156 326.5 L 164 356.5 L 183 386 L 179.5 385 L 174.5 388 Q 159.9 382.6 151 371.5 L 145 364.5 L 145 362 L 143 360.5 L 135 349.5 L 125 326.5 Q 121 311.5 121 292.5 L 125 269.5 L 130 257.5 L 140.5 243 L 143 241.5 L 147.5 236 Q 150.1 236.8 149 233.5 Q 139.3 223.2 135 207.5 Q 130.8 194.2 133 174.5 Q 136.1 152.1 146 136.5 L 142 131 Z " /><path fill="rgb(8,8,9)" stroke="rgb(8,8,9)" stroke-width="0.6" opacity="1" d="M 307.5 135 L 313.5 135 L 324 142.5 L 325 146 Q 319.3 140.3 307.5 140 L 303 141 L 305.5 136 L 307.5 135 Z " /><path fill="rgb(8,8,9)" stroke="rgb(8,8,9)" stroke-width="0.6" opacity="1" d="M 349.5 135 L 355 143.5 L 352 141.5 L 349.5 135 Z " /><path fill="rgb(8,8,9)" stroke="rgb(8,8,9)" stroke-width="0.6" opacity="1" d="M 193.5 136 Q 203.6 134.4 206 140.5 L 202.5 142 L 195.5 141 L 183 146 L 187.5 139 L 193.5 136 Z " /><path fill="rgb(8,8,9)" stroke="rgb(8,8,9)" stroke-width="0.6" opacity="1" d="M 265.5 139 L 266 140.5 L 261.5 146 L 262 144.5 L 265.5 139 Z " /><path fill="rgb(8,8,9)" stroke="rgb(8,8,9)" stroke-width="0.6" opacity="1" d="M 303.5 157 Q 319 157 325 166.5 Q 330.4 171.5 331 180 Q 327.7 181.3 329 176.5 Q 326.1 168.4 319.5 164 Q 313.8 158.2 300.5 160 Q 290.6 162.1 286 169.5 L 283.5 173 L 284 171.5 L 289.5 163 L 303.5 157 Z " /><path fill="rgb(8,8,9)" stroke="rgb(8,8,9)" stroke-width="0.6" opacity="1" d="M 197.5 158 Q 215.2 157.8 221 169.5 L 222 173.5 L 220 172.5 L 212.5 164 Q 207.8 160.2 199.5 160 Q 185.9 161.9 180 171.5 Q 174.4 178.7 176 192 L 174 191.5 L 174 181.5 Q 177 168.5 186.5 162 L 197.5 158 Z " /><path fill="rgb(8,8,9)" stroke="rgb(8,8,9)" stroke-width="0.6" opacity="1" d="M 199.5 171 Q 209.6 171.9 214 178.5 L 217 190.5 Q 216 201.5 208.5 206 L 198.5 208 L 190 204 Q 184.7 198.5 185 186.5 Q 186.5 178 192.5 174 L 199.5 171 Z M 205 176 L 203 177 L 200 181 Q 199 188 204 189 L 210 188 L 212 185 L 211 180 L 205 176 Z " /><path fill="rgb(8,8,9)" stroke="rgb(8,8,9)" stroke-width="0.6" opacity="1" d="M 300.5 171 L 309.5 171 L 317 176.5 Q 322.6 181.9 320 195.5 L 311.5 206 L 302.5 207 Q 294.6 206 292 199.5 Q 287.9 195.1 289 185.5 Q 290.5 177.9 295.5 174 L 300.5 171 Z M 309 175 L 307 176 L 304 180 Q 303 187 308 188 L 314 187 L 316 184 L 315 179 L 309 175 Z " /><path fill="rgb(8,8,9)" stroke="rgb(8,8,9)" stroke-width="0.6" opacity="1" d="M 248.5 192 Q 259.7 190.8 264 196.5 Q 264.8 199.1 261.5 198 Q 258 193.5 249.5 194 Q 240.8 197.3 236 204.5 L 231 216.5 L 252.5 230 L 260.5 222 Q 269.7 221.7 274 216.5 L 266 200.5 L 272 205.5 L 276 217.5 L 270 222.5 Q 267.8 237.3 258.5 245 Q 255.8 247.8 249.5 247 L 243 242.5 L 237 232.5 Q 237 225 233.5 221 L 229 218.5 L 229 213.5 L 239.5 197 L 248.5 192 Z M 239 223 L 237 225 Q 239 234 244 241 L 250 245 Q 256 246 258 243 Q 266 238 267 226 L 267 223 Q 258 226 254 232 Q 249 233 248 230 Q 243 232 244 228 L 239 223 Z " /><path fill="rgb(8,8,9)" stroke="rgb(8,8,9)" stroke-width="0.6" opacity="1" d="M 350.5 214 L 350 215.5 Q 344.9 226.4 335.5 233 L 334 232.5 L 350.5 214 Z " /><path fill="rgb(8,8,9)" stroke="rgb(8,8,9)" stroke-width="0.6" opacity="1" d="M 156.5 215 L 170 230.5 L 168.5 231 Q 159.6 224.2 156.5 215 Z " /><path fill="rgb(8,8,9)" stroke="rgb(8,8,9)" stroke-width="0.6" opacity="1" d="M 330.5 235 L 332 235.5 L 323.5 241 L 324.5 239 L 330.5 235 Z " /><path fill="rgb(8,8,9)" stroke="rgb(8,8,9)" stroke-width="0.6" opacity="1" d="M 358.5 325 L 364.5 332 L 369.5 333 L 373 330.5 L 370.5 334 L 366.5 335 L 361 330.5 L 358.5 325 Z " /><path fill="rgb(8,8,9)" stroke="rgb(8,8,9)" stroke-width="0.6" opacity="1" d="M 171.5 414 L 174 414.5 L 170 424.5 L 172 431 L 169 429.5 L 168 420.5 L 171.5 414 Z " /><path fill="rgb(8,8,9)" stroke="rgb(8,8,9)" stroke-width="0.6" opacity="1" d="M 186.5 418 L 188 418.5 Q 181.5 422.5 183 434.5 Q 185 441 195.5 439 L 201 435.5 Q 199.6 425.1 205.5 422 L 207 422.5 Q 201.9 425.9 203 435.5 L 206.5 440 L 214.5 441 L 226.5 433 L 226 434.5 L 221.5 440 Q 217.7 443.7 210.5 444 L 200.5 439 L 189.5 442 L 182 437.5 L 180.5 435 L 173 432.5 L 173.5 431 L 179.5 432 Q 182.3 430.8 181 425.5 L 186.5 418 Z " /><path fill="rgb(229,202,143)" stroke="rgb(229,202,143)" stroke-width="0.6" opacity="1" d="M 194.5 162 Q 212.2 160.3 218 170.5 Q 224.9 177.6 223 193.5 Q 220.9 202.9 214.5 208 Q 208.8 212.8 198.5 213 Q 188.2 211.8 183 205.5 Q 175 198.5 177 181.5 Q 179.4 171.4 186.5 166 L 194.5 162 Z M 200 170 L 194 172 Q 186 176 184 186 Q 183 197 188 203 L 198 209 Q 208 210 212 205 L 218 193 Q 219 183 215 179 Q 211 170 200 170 Z " /><path fill="rgb(229,202,143)" stroke="rgb(229,202,143)" stroke-width="0.6" opacity="1" d="M 203.5 178 Q 208.8 176.8 210 179.5 L 211 183.5 L 207.5 188 L 202 186.5 L 201 180.5 L 203.5 178 Z " /><path fill="rgb(229,202,143)" stroke="rgb(229,202,143)" stroke-width="0.6" opacity="1" d="M 358.5 237 L 361.5 237 L 370 245.5 Q 379.3 257.7 384 274.5 L 387 289.5 L 387 318.5 L 386 323 L 382 321.5 L 379 310.5 L 380 306.5 L 376 284 Q 372.3 282.6 374 288.5 Q 377.5 298.5 376 313.5 L 374 324.5 L 369.5 332 L 366.5 332 L 360 325.5 L 348.5 297 L 348 302.5 Q 351 317.5 358 328.5 L 364.5 335 L 369.5 336 L 374 332.5 L 378.5 322 L 382.5 327 L 385 328.5 Q 383.5 346.5 375.5 358 Q 372.2 359.1 373 356.5 L 367.5 343 Q 364.9 342.2 366 345.5 L 370 358.5 L 370 364.5 L 364.5 377 L 359 374.5 L 352 357.5 L 349 340 L 347 340.5 L 347 351.5 L 343.5 353 Q 334.2 344.2 331 329.5 L 327 310.5 L 326 286.5 L 329 267.5 L 335.5 253 Q 349.8 247.8 358.5 237 Z " /><path fill="rgb(229,202,143)" stroke="rgb(229,202,143)" stroke-width="0.6" opacity="1" d="M 316.5 403 Q 327.4 416.4 346 421 L 344.5 425 L 329.5 427 L 319 423.5 L 311.5 414 L 309 412.5 L 308 409.5 L 316.5 403 Z " /><path fill="rgb(245,235,207)" stroke="rgb(245,235,207)" stroke-width="0.6" opacity="1" d="M 308.5 177 Q 313.3 176.3 314 179.5 Q 315.3 184.8 312.5 186 L 307.5 187 Q 304.2 185.3 305 179.5 L 308.5 177 Z " /><path fill="rgb(245,235,207)" stroke="rgb(245,235,207)" stroke-width="0.6" opacity="1" d="M 250.5 195 Q 262.3 196.3 267 204.5 L 272 213.5 L 272 216.5 L 258.5 222 L 250.5 228 L 242.5 221 Q 235.8 220.7 233 216.5 Q 234.8 203.8 243.5 198 L 250.5 195 Z " /><path fill="rgb(245,235,207)" stroke="rgb(245,235,207)" stroke-width="0.6" opacity="1" d="M 159 356 L 161 357.5 L 176 382.5 L 173.5 384 Q 160.6 377.4 152 366.5 L 150.5 364 L 149 362.5 L 147.5 360 L 155.5 362 L 159 356 Z " /><path fill="rgb(245,235,207)" stroke="rgb(245,235,207)" stroke-width="0.6" opacity="1" d="M 192.5 407 L 201.5 407 Q 204.3 410.7 211.5 410 L 213.5 409 Q 217.3 413.7 227.5 412 L 233.5 409 L 244 416.5 L 245 421.5 L 241.5 426 L 230.5 426 L 223 432.5 L 219.5 437 L 209.5 440 L 205 437.5 L 204 430.5 L 209.5 421 L 212 419.5 Q 212.8 416.9 209.5 418 L 201 425.5 L 199 436 Q 196.1 438.9 188.5 438 L 185 435.5 L 184 426.5 L 191.5 417 L 196 414.5 Q 196.8 411.9 193.5 413 Q 185.6 415.1 182 421.5 L 177.5 431 L 173 428.5 L 172 420.5 L 178.5 412 L 192.5 407 Z " /><path fill="rgb(28,30,31)" stroke="rgb(28,30,31)" stroke-width="0.6" opacity="1" d="M 244.5 78 L 268 78.5 L 244.5 79 L 244.5 78 Z " /><path fill="rgb(28,30,31)" stroke="rgb(28,30,31)" stroke-width="0.6" opacity="1" d="M 193 117 L 202.5 117 L 203 119 L 193.5 119 L 193 117 Z " /><path fill="rgb(28,30,31)" stroke="rgb(28,30,31)" stroke-width="0.6" opacity="1" d="M 185.5 118 L 186 120 L 177.5 123 L 175 122.5 L 185.5 118 Z " /><path fill="rgb(28,30,31)" stroke="rgb(28,30,31)" stroke-width="0.6" opacity="1" d="M 210.5 118 L 221 122.5 L 217.5 122 L 210 119.5 L 210.5 118 Z " /><path fill="rgb(28,30,31)" stroke="rgb(28,30,31)" stroke-width="0.6" opacity="1" d="M 293.5 119 L 296 119.5 L 288.5 123 L 287 122.5 L 286.5 124 L 285 123.5 L 283.5 126 L 281.5 127 L 280.5 125 L 282 125.5 L 283.5 123 L 293.5 119 Z " /><path fill="rgb(28,30,31)" stroke="rgb(28,30,31)" stroke-width="0.6" opacity="1" d="M 342.5 127 L 346.5 133 Q 348.3 130.2 350 134.5 L 348.5 136 L 341 128.5 L 342.5 127 Z " /><path fill="rgb(28,30,31)" stroke="rgb(28,30,31)" stroke-width="0.6" opacity="1" d="M 141.5 128 L 143 130.5 L 142 132.5 L 142.5 134 L 139 129.5 L 140.5 130 L 142 129.5 L 141.5 128 Z " /><path fill="rgb(28,30,31)" stroke="rgb(28,30,31)" stroke-width="0.6" opacity="1" d="M 164.5 129 Q 166.7 132.5 160.5 136 L 159 134.5 L 164.5 129 Z " /><path fill="rgb(28,30,31)" stroke="rgb(28,30,31)" stroke-width="0.6" opacity="1" d="M 157.5 137 L 158 139.5 L 153.5 146 L 152 146.5 L 152 148.5 L 150.5 154 L 150 151.5 L 152.5 145 L 154 144.5 L 154 142.5 L 157.5 137 Z " /><path fill="rgb(28,30,31)" stroke="rgb(28,30,31)" stroke-width="0.6" opacity="1" d="M 354.5 142 L 358 150 Q 355 151.3 356 147.5 L 355.5 145 L 353 143.5 L 354.5 142 Z " /><path fill="rgb(28,30,31)" stroke="rgb(28,30,31)" stroke-width="0.6" opacity="1" d="M 261.5 144 Q 265.2 146.2 260 148.5 L 257.5 154 L 257 151.5 L 262 145.5 L 261.5 144 Z " /><path fill="rgb(28,30,31)" stroke="rgb(28,30,31)" stroke-width="0.6" opacity="1" d="M 357 151 L 359 152.5 Q 363.1 159.2 362 170 L 360 169.5 L 360 160.5 L 357 151 Z " /><path fill="rgb(28,30,31)" stroke="rgb(28,30,31)" stroke-width="0.6" opacity="1" d="M 249 158 Q 252 156.8 251 160.5 L 255 163.5 L 254.5 165 L 250 162.5 L 249 158 Z " /><path fill="rgb(28,30,31)" stroke="rgb(28,30,31)" stroke-width="0.6" opacity="1" d="M 222.5 172 L 225 181 Q 221.7 182.3 223 177.5 L 221 174.5 L 222.5 172 Z " /><path fill="rgb(28,30,31)" stroke="rgb(28,30,31)" stroke-width="0.6" opacity="1" d="M 330 190 L 332 190.5 L 330 198 Q 327 199.3 328 195.5 L 330 190 Z " /><path fill="rgb(28,30,31)" stroke="rgb(28,30,31)" stroke-width="0.6" opacity="1" d="M 146 191 Q 149.3 189.7 148 194.5 L 155 210.5 L 153 211.5 L 153.5 210 L 152 209.5 L 152.5 208 L 150 206.5 L 146 191 Z " /><path fill="rgb(28,30,31)" stroke="rgb(28,30,31)" stroke-width="0.6" opacity="1" d="M 264.5 197 L 269.5 203 L 266 200.5 L 267 202.5 L 262 198.5 L 264.5 197 Z " /><path fill="rgb(28,30,31)" stroke="rgb(28,30,31)" stroke-width="0.6" opacity="1" d="M 356.5 199 L 358 201.5 L 356 207 L 354 207.5 L 354 209.5 L 350.5 216 Q 347.3 214.3 351 212.5 L 356.5 199 Z " /><path fill="rgb(28,30,31)" stroke="rgb(28,30,31)" stroke-width="0.6" opacity="1" d="M 161.5 221 L 173 232.5 L 171.5 234 Q 167.3 232.2 170 230.5 L 162.5 223 L 160 222.5 L 161.5 221 Z " /><path fill="rgb(28,30,31)" stroke="rgb(28,30,31)" stroke-width="0.6" opacity="1" d="M 257.5 224 L 252.5 230 L 250 229.5 L 257.5 224 Z " /><path fill="rgb(28,30,31)" stroke="rgb(28,30,31)" stroke-width="0.6" opacity="1" d="M 342.5 226 L 337.5 232 L 342.5 226 Z " /><path fill="rgb(28,30,31)" stroke="rgb(28,30,31)" stroke-width="0.6" opacity="1" d="M 358.5 235 L 353.5 241 L 358.5 235 Z " /><path fill="rgb(28,30,31)" stroke="rgb(28,30,31)" stroke-width="0.6" opacity="1" d="M 183.5 239 Q 192.8 245.9 206 248 L 204.5 250 L 184 242 L 183.5 240 L 182 240.5 L 183.5 239 Z " /><path fill="rgb(28,30,31)" stroke="rgb(28,30,31)" stroke-width="0.6" opacity="1" d="M 315.5 243 L 317 244.5 L 315 244.5 Q 315.8 247.1 312.5 246 L 308 248 L 309.5 246 L 315.5 243 Z " /><path fill="rgb(28,30,31)" stroke="rgb(28,30,31)" stroke-width="0.6" opacity="1" d="M 167.5 262 L 167 263.5 L 165.5 268 L 163 267.5 L 167.5 262 Z " /><path fill="rgb(28,30,31)" stroke="rgb(28,30,31)" stroke-width="0.6" opacity="1" d="M 375 320 Q 378 318.8 377 322.5 L 373.5 331 L 373 328.5 L 375 320 Z " /><path fill="rgb(28,30,31)" stroke="rgb(28,30,31)" stroke-width="0.6" opacity="1" d="M 360.5 327 L 364.5 332 L 359 328.5 L 360.5 327 Z " /><path fill="rgb(28,30,31)" stroke="rgb(28,30,31)" stroke-width="0.6" opacity="1" d="M 212.5 330 L 219 335.5 L 217.5 336 L 213 332.5 L 212.5 330 Z " /><path fill="rgb(28,30,31)" stroke="rgb(28,30,31)" stroke-width="0.6" opacity="1" d="M 145.5 352 L 147 355 L 153 359.5 L 150 359.5 L 149.5 357 L 148 357.5 L 145.5 352 Z " /><path fill="rgb(28,30,31)" stroke="rgb(28,30,31)" stroke-width="0.6" opacity="1" d="M 347.5 352 L 348 354 Q 352.1 352.3 351 356.5 L 354 364.5 L 352.5 365 L 350 356.5 L 347.5 354 L 344 356 L 345.5 354 L 347.5 352 Z " /><path fill="rgb(28,30,31)" stroke="rgb(28,30,31)" stroke-width="0.6" opacity="1" d="M 182.5 383 L 187.5 389 L 185.5 388 Q 183.8 390.8 182 386.5 L 183 384.5 L 182.5 383 Z " /><path fill="rgb(28,30,31)" stroke="rgb(28,30,31)" stroke-width="0.6" opacity="1" d="M 320.5 394 L 320.5 396 L 323.5 394 L 320.5 398 L 318 396.5 L 320.5 394 Z " /><path fill="rgb(28,30,31)" stroke="rgb(28,30,31)" stroke-width="0.6" opacity="1" d="M 351.5 399 L 358 406.5 L 351 400.5 L 351.5 399 Z " /><path fill="rgb(28,30,31)" stroke="rgb(28,30,31)" stroke-width="0.6" opacity="1" d="M 174.5 410 L 176 411.5 L 178 411.5 L 173 415.5 L 173.5 414 L 172 412.5 L 174.5 410 Z " /><path fill="rgb(28,30,31)" stroke="rgb(28,30,31)" stroke-width="0.6" opacity="1" d="M 229.5 428 L 229 429.5 L 229.5 431 L 231 430.5 L 226 434.5 L 226.5 433 L 224 432.5 L 229.5 428 Z " /><path fill="rgb(28,30,31)" stroke="rgb(28,30,31)" stroke-width="0.6" opacity="1" d="M 172.5 429 L 174.5 432 L 173 431.5 L 174 433.5 L 172.5 433 L 170 431.5 L 172 431 L 172.5 429 Z " /><path fill="rgb(28,30,31)" stroke="rgb(28,30,31)" stroke-width="0.6" opacity="1" d="M 264.5 437 L 267.5 441 L 264 439 L 266 442.5 L 263 440.5 L 262 438.5 L 264 438.5 L 264.5 437 Z " /><path fill="rgb(227,169,50)" stroke="rgb(227,169,50)" stroke-width="0.6" opacity="1" d="M 239.5 224 L 250.5 239 L 253.5 239 L 258 235.5 L 264.5 224 Q 267.9 223.1 266 228.5 L 257.5 242 Q 255.8 244.8 250.5 244 L 243 237.5 L 238 225.5 L 239.5 224 Z " /><path fill="rgb(227,169,50)" stroke="rgb(227,169,50)" stroke-width="0.6" opacity="1" d="M 335.5 381 Q 338.1 380.2 337 383.5 Q 341.9 398.1 352.5 407 L 359 412.5 L 356.5 417 L 341.5 416 Q 328.3 411.3 320 401.5 L 335.5 381 Z " /><path fill="rgb(227,169,50)" stroke="rgb(227,169,50)" stroke-width="0.6" opacity="1" d="M 277.5 409 L 284.5 412 L 290.5 412 L 298.5 410 L 301.5 411 L 304 411.5 L 307.5 417 L 314 422.5 L 317 431.5 L 312.5 440 L 306.5 441 L 304 438.5 L 303 428.5 L 299.5 424 L 299 428.5 L 300 438.5 L 295.5 444 L 287.5 445 L 282 440.5 Q 279 436.5 280 428.5 L 281 425 L 278 426.5 L 277 439.5 L 275.5 441 Q 266.5 442.5 265 436.5 L 264 427.5 L 273.5 410 L 277.5 409 Z " /><path fill="rgb(53,53,50)" stroke="rgb(53,53,50)" stroke-width="0.6" opacity="1" d="M 245.5 145 L 247 148.5 L 246.5 150 L 248 150.5 L 247.5 152 L 249 152.5 L 247 153.5 L 244 147.5 L 245.5 145 Z " /><path fill="rgb(53,53,50)" stroke="rgb(53,53,50)" stroke-width="0.6" opacity="1" d="M 360 170 L 363 170.5 L 363 179.5 L 362 179.5 L 360 178 L 360 175.5 L 361 172.5 L 360 170 Z " /><path fill="rgb(53,53,50)" stroke="rgb(53,53,50)" stroke-width="0.6" opacity="1" d="M 280 192 Q 283.3 190.7 282 195.5 L 285 200.5 L 283 201.5 L 283.5 200 L 282 198.5 L 280 192 Z " /><path fill="rgb(53,53,50)" stroke="rgb(53,53,50)" stroke-width="0.6" opacity="1" d="M 218.5 204 L 220 205.5 L 215.5 210 L 208.5 213 L 209.5 211 L 217 206.5 L 218.5 204 Z " /><path fill="rgb(53,53,50)" stroke="rgb(53,53,50)" stroke-width="0.6" opacity="1" d="M 182.5 205 L 187 209.5 L 185.5 211 L 182.5 205 Z " /><path fill="rgb(53,53,50)" stroke="rgb(53,53,50)" stroke-width="0.6" opacity="1" d="M 258.5 228 L 261 228.5 L 256.5 236 L 256 234.5 L 259 229.5 L 258.5 228 Z " /><path fill="rgb(53,53,50)" stroke="rgb(53,53,50)" stroke-width="0.6" opacity="1" d="M 321.5 240 L 324 241.5 L 317.5 245 L 317.5 242 L 321.5 240 Z " /><path fill="rgb(53,53,50)" stroke="rgb(53,53,50)" stroke-width="0.6" opacity="1" d="M 307.5 246 L 308 247.5 L 300.5 250 L 301.5 248 L 307.5 246 Z " /><path fill="rgb(53,53,50)" stroke="rgb(53,53,50)" stroke-width="0.6" opacity="1" d="M 329.5 252 L 331 255.5 L 332 258.5 L 331 258.5 L 330 255 Q 325.9 256.3 327 253 L 329.5 252 Z " /><path fill="rgb(53,53,50)" stroke="rgb(53,53,50)" stroke-width="0.6" opacity="1" d="M 170.5 257 L 171 258.5 Q 165.6 261.3 167.5 264 L 165 263.5 L 170.5 257 Z " /><path fill="rgb(53,53,50)" stroke="rgb(53,53,50)" stroke-width="0.6" opacity="1" d="M 325.5 286 L 326 301.5 L 325 301.5 L 325.5 286 Z " /><path fill="rgb(53,53,50)" stroke="rgb(53,53,50)" stroke-width="0.6" opacity="1" d="M 183.5 287 L 187.5 292 L 189.5 292 Q 197.1 290.5 196 294 Q 186 294.8 182 288.5 L 183.5 287 Z " /><path fill="rgb(53,53,50)" stroke="rgb(53,53,50)" stroke-width="0.6" opacity="1" d="M 245.5 290 L 250.5 296 L 253 297.5 L 253.5 299 L 255.5 298 L 255.5 301 L 248 295.5 L 245.5 290 Z " /><path fill="rgb(53,53,50)" stroke="rgb(53,53,50)" stroke-width="0.6" opacity="1" d="M 239.5 291 L 239 292.5 L 235.5 297 L 234 296.5 L 239.5 291 Z " /><path fill="rgb(53,53,50)" stroke="rgb(53,53,50)" stroke-width="0.6" opacity="1" d="M 350 307 Q 353 305.8 352 309.5 L 354 315.5 L 352 314.5 L 350 307 Z " /><path fill="rgb(53,53,50)" stroke="rgb(53,53,50)" stroke-width="0.6" opacity="1" d="M 203.5 322 L 204 323.5 Q 200 329.5 191.5 331 L 191 329 Q 199.3 328 203.5 322 Z " /><path fill="rgb(53,53,50)" stroke="rgb(53,53,50)" stroke-width="0.6" opacity="1" d="M 208 323 Q 211 321.8 210 325.5 L 214 330.5 L 212 331.5 L 212.5 330 L 210 328.5 L 208 323 Z " /><path fill="rgb(53,53,50)" stroke="rgb(53,53,50)" stroke-width="0.6" opacity="1" d="M 306.5 326 L 307 327.5 Q 304 333.8 295 333 Q 293.6 329.3 299.5 331 L 306.5 326 Z " /><path fill="rgb(53,53,50)" stroke="rgb(53,53,50)" stroke-width="0.6" opacity="1" d="M 248.5 329 L 253 335 L 255 335.5 L 253.5 336 L 249 332.5 L 248.5 329 Z " /><path fill="rgb(53,53,50)" stroke="rgb(53,53,50)" stroke-width="0.6" opacity="1" d="M 270.5 335 L 273 335.5 L 265 339 Q 263.8 336 267.5 337 L 270.5 335 Z " /><path fill="rgb(53,53,50)" stroke="rgb(53,53,50)" stroke-width="0.6" opacity="1" d="M 139.5 339 L 143 345.5 L 141 346.5 L 142 344.5 L 140 343.5 L 140.5 342 Q 137.4 342.7 139.5 339 Z " /><path fill="rgb(53,53,50)" stroke="rgb(53,53,50)" stroke-width="0.6" opacity="1" d="M 156 355 L 158 356.5 L 155.5 361 L 151 360.5 L 156 357.5 L 156 355 Z " /><path fill="rgb(53,53,50)" stroke="rgb(53,53,50)" stroke-width="0.6" opacity="1" d="M 270.5 363 L 274 365.5 L 274.5 367 L 276.5 367 L 280 368.5 L 278.5 368 Q 271.6 368.9 270 364.5 L 270.5 363 Z " /><path fill="rgb(53,53,50)" stroke="rgb(53,53,50)" stroke-width="0.6" opacity="1" d="M 180.5 385 L 185.5 391 L 180.5 385 Z " /><path fill="rgb(53,53,50)" stroke="rgb(53,53,50)" stroke-width="0.6" opacity="1" d="M 325.5 393 L 319.5 400 L 325.5 393 Z " /><path fill="rgb(53,53,50)" stroke="rgb(53,53,50)" stroke-width="0.6" opacity="1" d="M 275.5 401 L 280.5 407 Q 277.8 401.6 275 403.5 L 275.5 401 Z " /><path fill="rgb(53,53,50)" stroke="rgb(53,53,50)" stroke-width="0.6" opacity="1" d="M 278 428 Q 281.5 426.9 280 434.5 L 278 434.5 L 277.5 438 L 277 432.5 L 278 428 Z " /><path fill="rgb(79,76,63)" stroke="rgb(79,76,63)" stroke-width="0.6" opacity="1" d="M 231.5 131 L 237.5 138 L 231.5 131 Z " /><path fill="rgb(79,76,63)" stroke="rgb(79,76,63)" stroke-width="0.6" opacity="1" d="M 285.5 202 L 289.5 207 L 284 203.5 L 285.5 202 Z " /><path fill="rgb(79,76,63)" stroke="rgb(79,76,63)" stroke-width="0.6" opacity="1" d="M 300.5 212 L 309.5 212 L 310 213.5 L 308 214.5 L 308.5 213 Q 302.4 211.8 303 214.5 L 300.5 212 Z " /><path fill="rgb(79,76,63)" stroke="rgb(79,76,63)" stroke-width="0.6" opacity="1" d="M 277.5 287 L 278 289.5 L 274.5 295 Q 271.3 293.3 275 291.5 L 277.5 287 Z " /><path fill="rgb(79,76,63)" stroke="rgb(79,76,63)" stroke-width="0.6" opacity="1" d="M 280.5 321 L 288 328.5 L 286.5 330 Q 282.3 328.7 283 324 Q 278.3 325.5 280.5 321 Z " /><path fill="rgb(79,76,63)" stroke="rgb(79,76,63)" stroke-width="0.6" opacity="1" d="M 244.5 322 L 247 325.5 L 242 327.5 L 240.5 331 L 239 329.5 L 243.5 325 L 245 323.5 L 244.5 322 Z " /><path fill="rgb(79,76,63)" stroke="rgb(79,76,63)" stroke-width="0.6" opacity="1" d="M 251.5 334 L 254 334.5 L 253.5 336 L 255.5 335 L 258 336.5 L 256.5 337 L 254.5 337 L 251.5 334 Z " /><path fill="rgb(79,76,63)" stroke="rgb(79,76,63)" stroke-width="0.6" opacity="1" d="M 222 336 L 229.5 336 L 230 337.5 L 228 338.5 L 228.5 337 L 222.5 338 L 222 336 Z " /><path fill="rgb(79,76,63)" stroke="rgb(79,76,63)" stroke-width="0.6" opacity="1" d="M 259.5 361 L 260 362.5 L 255.5 368 L 254 366.5 L 259.5 361 Z " /><path fill="rgb(110,88,55)" stroke="rgb(110,88,55)" stroke-width="0.6" opacity="1" d="M 247.5 79 L 265 79.5 L 247.5 80 L 247.5 79 Z " /><path fill="rgb(110,88,55)" stroke="rgb(110,88,55)" stroke-width="0.6" opacity="1" d="M 165.5 131 L 160.5 137 L 165.5 131 Z " /><path fill="rgb(110,88,55)" stroke="rgb(110,88,55)" stroke-width="0.6" opacity="1" d="M 343.5 226 L 337.5 233 L 343.5 226 Z " /><path fill="rgb(110,88,55)" stroke="rgb(110,88,55)" stroke-width="0.6" opacity="1" d="M 308.5 283 L 311 283.5 L 307.5 289 L 308 287.5 L 307 285.5 L 308.5 283 Z " /><path fill="rgb(110,88,55)" stroke="rgb(110,88,55)" stroke-width="0.6" opacity="1" d="M 276.5 329 Q 279.5 330.5 276.5 332 L 275.5 331 L 272 333.5 L 276.5 329 Z " /><path fill="rgb(138,106,77)" stroke="rgb(138,106,77)" stroke-width="0.6" opacity="1" d="M 271.5 130 L 273 130.5 L 267 135.5 L 266.5 137 L 266 135.5 L 271.5 130 Z " /><path fill="rgb(138,106,77)" stroke="rgb(138,106,77)" stroke-width="0.6" opacity="1" d="M 354.5 233 L 356 233.5 L 349.5 239 L 354.5 233 Z " /><path fill="rgb(138,106,77)" stroke="rgb(138,106,77)" stroke-width="0.6" opacity="1" d="M 321.5 287 L 322 301.5 L 321 301.5 L 321.5 287 Z " /><path fill="rgb(178,168,143)" stroke="rgb(178,168,143)" stroke-width="0.6" opacity="1" d="M 358.5 236 L 361 236.5 L 354.5 241 L 358.5 236 Z " /><path fill="rgb(178,168,143)" stroke="rgb(178,168,143)" stroke-width="0.6" opacity="1" d="M 387.5 296 L 388 311.5 L 387 311.5 L 387.5 296 Z " /><path fill="rgb(178,168,143)" stroke="rgb(178,168,143)" stroke-width="0.6" opacity="1" d="M 347 340 Q 350 338.8 349 342.5 L 349.5 344 Q 346.1 343.1 348 348.5 L 347 348.5 L 347 340 Z " /><path fill="rgb(178,168,143)" stroke="rgb(178,168,143)" stroke-width="0.6" opacity="1" d="M 317.5 403 L 322.5 409 L 317.5 403 Z " /><path fill="rgb(189,188,184)" stroke="rgb(189,188,184)" stroke-width="0.6" opacity="1" d="M 257.5 223 L 252.5 229 L 248 226.5 L 250.5 228 L 257.5 223 Z " /><path fill="rgb(189,188,184)" stroke="rgb(189,188,184)" stroke-width="0.6" opacity="1" d="M 120.5 291 L 121 301.5 L 120 301.5 L 120.5 291 Z " /><path fill="rgb(189,188,184)" stroke="rgb(189,188,184)" stroke-width="0.6" opacity="1" d="M 352.5 399 L 358 405.5 L 352 400.5 L 352.5 399 Z " /><path fill="rgb(216,215,209)" stroke="rgb(216,215,209)" stroke-width="0.6" opacity="1" d="M 365.5 234 L 370.5 240 L 365.5 234 Z " /><path fill="rgb(216,215,209)" stroke="rgb(216,215,209)" stroke-width="0.6" opacity="1" d="M 179.5 386 L 186 391.5 L 180.5 387 L 179.5 386 Z " /></svg>