<svg width="627" height="627" preserveAspectRatio="xMidYMid meet" viewBox="0 0 512 512" version="1.1" xmlns="http://www.w3.org/2000/svg" ><path fill="rgb(255,255,255)" stroke="rgb(255,255,255)" stroke-width="0.6" opacity="1" d="M 0 0 L 512 0 L 512 512 L 0 512 L 0 0 Z M 367 62 L 350 75 L 319 87 L 315 87 L 296 78 L 275 74 L 232 75 L 206 82 L 195 88 L 162 79 L 142 66 L 137 65 L 131 74 Q 129 84 133 89 L 128 93 Q 126 113 137 120 L 136 122 Q 137 131 144 136 L 138 148 L 132 171 L 133 207 Q 137 222 147 232 Q 134 244 126 262 L 120 286 L 120 310 L 125 331 Q 133 353 147 369 Q 157 381 173 388 L 179 386 L 182 387 L 192 400 L 192 402 Q 180 401 175 407 L 166 421 L 167 429 L 172 433 L 180 435 L 191 443 Q 197 444 200 440 L 209 444 Q 217 445 221 442 L 232 431 Q 241 432 246 429 L 252 420 Q 258 419 260 423 L 259 426 Q 258 435 261 440 Q 264 445 273 446 L 278 444 L 287 449 Q 299 451 302 444 L 307 445 L 316 443 Q 321 440 321 432 L 323 430 L 344 430 L 348 428 L 350 425 L 354 421 L 360 420 L 364 416 L 364 410 L 354 400 L 360 390 L 361 384 Q 362 380 367 381 Q 373 375 374 364 L 378 362 L 382 358 L 387 345 L 392 318 L 392 287 L 389 272 Q 383 251 371 238 L 364 232 L 375 209 L 378 192 L 377 166 Q 374 148 365 136 L 373 124 L 372 117 L 380 102 L 379 90 L 376 88 L 374 87 L 373 67 L 367 62 Z " /><path fill="rgb(142,94,55)" stroke="rgb(142,94,55)" stroke-width="0.6" opacity="1" d="M 366.5 68 L 369 69.5 L 370 81.5 L 365 95.5 L 359 104 Q 368.7 101.8 373.5 93 Q 376.3 94.3 375 99.5 Q 372.3 112.3 363.5 119 L 356 123.5 L 357.5 125 L 367 122 L 362.5 131 L 356 134.5 L 362 137.5 Q 374.2 158.3 373 192.5 L 370 207.5 L 365 219.5 L 352.5 235 L 350 236.5 L 345.5 242 Q 335 250.5 320 254.5 Q 319.4 257.3 325.5 256 L 330 255 L 325 265.5 L 322 278.5 L 322 310.5 L 335 371.5 Q 328.2 386.7 316.5 397 L 314.5 398 L 312.5 398 L 309.5 402 L 301.5 406 L 296.5 404 Q 293.7 408.7 284.5 407 L 277 401.5 Q 277.8 396.8 274.5 396 Q 271.1 395.1 273 400.5 L 274 405 L 261.5 406 L 246.5 404 L 226.5 395 L 232 401.5 L 233 403.5 L 230.5 406 L 220.5 407 L 211.5 403 L 208.5 405 L 195 396.5 L 195 393.5 L 186.5 384 L 178 376.5 L 165 355.5 L 159 337.5 L 157 323.5 L 157 299.5 L 161 279.5 Q 168 270 171 256.5 L 166 260.5 Q 149.5 282.5 152 323.5 L 156 339.5 L 156 357 Q 150.5 358.3 149 354.5 L 139 334.5 L 135 307 L 133 308.5 L 132 314.5 L 135 327.5 L 135 337 L 133 335.5 L 126 314.5 L 125 288.5 L 130 265.5 L 136 253.5 L 149.5 238 L 152.5 238 L 165.5 249 L 184 254 L 182.5 251 Q 162.6 244.9 151 230.5 Q 142.7 219.8 138 205.5 L 136 181.5 L 141 154.5 L 151 134 L 142 127.5 L 141 124.5 L 143.5 124 L 150 125 L 148.5 123 L 137 113.5 Q 132.4 108.1 132 98.5 L 134.5 97 L 149 105 L 144.5 99 L 142 97.5 L 137 88.5 L 136 73.5 L 140.5 71 L 146.5 77 L 163.5 86 L 190.5 92 L 205 98 L 201.5 93 L 200 91.5 L 212.5 85 L 227.5 81 L 241.5 79 L 272.5 79 L 297.5 84 L 309 90 L 306.5 94 L 299 98.5 Q 298.2 101.1 301.5 100 L 314.5 93 L 343.5 84 Q 357.4 78.4 366.5 68 Z M 309 114 L 291 117 L 272 129 Q 260 139 254 155 Q 255 158 253 157 L 243 138 Q 231 120 208 115 L 189 115 L 167 125 Q 148 138 144 165 L 144 190 L 146 197 L 151 209 Q 156 212 157 220 L 162 225 L 162 227 L 189 245 L 208 251 L 222 252 L 227 254 L 238 254 L 238 252 L 219 250 L 197 244 Q 182 238 171 229 Q 152 213 147 184 L 148 176 L 147 174 Q 148 148 161 135 Q 171 123 188 119 L 212 120 L 231 130 Q 248 143 251 172 L 251 180 L 253 180 L 255 163 L 266 141 L 286 124 L 304 118 Q 310 116 309 120 Q 312 121 311 118 L 324 119 L 341 128 Q 356 140 360 165 L 360 183 L 357 197 L 346 219 Q 334 234 316 242 L 299 248 L 276 252 L 268 252 L 267 254 L 281 254 L 283 253 L 284 255 L 284 253 Q 316 251 335 235 Q 347 224 356 210 L 362 192 Q 361 183 364 178 L 362 156 L 352 135 Q 344 124 333 118 L 323 115 L 309 114 Z M 308 133 L 304 135 L 302 141 L 315 141 L 326 147 L 325 141 Q 320 133 308 133 Z M 193 134 L 189 136 Q 182 139 181 147 L 196 141 L 202 142 L 207 141 L 206 138 Q 204 132 193 134 Z M 302 155 L 292 159 Q 280 166 278 184 Q 278 196 283 203 Q 288 211 299 214 Q 313 216 321 211 Q 331 203 334 188 Q 333 170 325 162 L 314 156 L 302 155 Z M 195 156 L 184 162 Q 174 169 172 185 L 177 203 Q 183 212 196 215 Q 210 216 217 210 L 225 199 L 227 192 Q 228 175 221 167 Q 215 154 195 156 Z M 249 190 L 239 195 Q 229 202 228 218 L 231 219 L 233 222 L 240 240 L 249 247 L 260 245 Q 270 238 271 222 L 277 217 Q 277 207 272 202 Q 267 194 258 190 L 249 190 Z M 180 270 L 178 277 L 180 288 L 189 293 L 199 293 L 209 287 L 212 295 L 222 301 Q 230 303 235 299 L 241 291 L 244 289 L 246 294 L 257 301 Q 261 300 260 303 Q 263 304 262 301 L 270 300 Q 277 295 279 285 L 293 293 Q 304 295 308 289 L 312 279 L 311 278 L 306 287 L 301 290 Q 291 291 287 287 L 281 280 L 278 278 L 275 291 L 264 298 L 257 298 L 248 292 L 244 285 Q 245 280 243 281 L 238 292 L 229 298 L 222 298 L 213 290 L 210 279 L 207 284 L 197 290 L 187 289 L 181 280 L 182 273 Q 183 269 180 270 Z M 173 307 Q 172 317 176 323 L 186 330 Q 196 332 201 327 L 204 323 L 207 321 L 211 331 L 221 338 L 235 337 L 243 328 Q 242 325 246 326 L 247 331 L 263 340 L 274 336 Q 279 332 280 325 L 296 334 L 305 331 L 312 320 Q 313 315 311 316 L 307 325 Q 303 329 296 330 L 289 328 L 284 322 Q 283 318 278 319 L 275 331 L 267 336 L 261 336 L 253 332 L 247 322 L 243 320 L 241 327 L 230 335 L 219 334 Q 210 328 208 316 L 202 323 L 195 327 L 184 326 Q 176 321 175 310 Q 176 306 173 307 Z M 188 349 L 191 359 L 202 367 L 215 366 L 223 356 L 222 354 L 220 357 L 210 364 L 202 364 L 190 351 L 188 349 Z M 267 355 L 265 357 L 267 361 L 278 369 Q 288 370 293 365 L 297 358 L 295 357 L 294 361 L 286 366 Q 277 367 274 364 L 267 355 Z M 229 358 L 229 364 L 240 371 L 253 370 L 259 363 L 259 361 L 248 368 Q 238 369 235 365 L 229 358 Z " /><path fill="rgb(142,94,55)" stroke="rgb(142,94,55)" stroke-width="0.6" opacity="1" d="M 300.5 160 L 312.5 160 L 325 170.5 L 329 179.5 L 329 192.5 Q 327.2 202.2 320.5 207 L 311.5 211 L 300.5 211 Q 291.9 209.1 287 203.5 L 282 191.5 L 282 180.5 Q 283.7 170.2 290.5 165 L 300.5 160 Z M 301 169 L 295 172 Q 288 176 287 187 L 289 198 L 302 207 L 312 207 Q 319 202 322 193 Q 323 182 319 177 L 310 169 L 301 169 Z " /><path fill="rgb(142,94,55)" stroke="rgb(142,94,55)" stroke-width="0.6" opacity="1" d="M 336.5 349 L 341.5 355 Q 347.5 353.5 349 356.5 L 353 372.5 L 358 379.5 Q 356.4 388.9 350.5 394 L 346 392.5 L 339 373.5 L 335 350.5 L 336.5 349 Z " /><path fill="rgb(142,94,55)" stroke="rgb(142,94,55)" stroke-width="0.6" opacity="1" d="M 246.5 408 L 251.5 410 L 267 410 L 264.5 416 Q 249.7 417.8 245 409.5 L 246.5 408 Z " /><path fill="rgb(0,0,0)" stroke="rgb(0,0,0)" stroke-width="0.6" opacity="1" d="M 366.5 63 L 372 66.5 Q 376.3 72.2 374 84.5 L 373 87.5 L 379 91.5 L 379 102.5 L 371 117.5 L 372 123.5 L 365 132.5 L 365 137.5 L 372 150.5 L 377 169.5 L 377 192.5 L 374 208.5 L 363 231.5 Q 394.4 256.6 392 315.5 L 390 318.5 L 389 334.5 L 384 351.5 L 377.5 361 L 373 362.5 Q 373.1 375.1 365.5 380 L 360 383.5 L 359 389.5 L 352 399.5 L 364 411.5 L 364 413.5 L 359.5 419 L 351 421.5 L 347.5 427 Q 339.9 432.4 324.5 430 L 322.5 429 L 316.5 441 Q 313.6 445.1 305.5 444 L 301.5 443 Q 298.5 450 286.5 448 L 277.5 443 Q 275.8 445.8 270.5 445 L 263 440.5 Q 258.3 435.7 260 424.5 L 261 421.5 L 259.5 420 L 250.5 419 L 245.5 428 Q 240.8 431.8 230.5 430 L 218.5 442 L 208.5 443 L 199.5 439 Q 196.9 442.9 189.5 442 L 182 436.5 L 180.5 434 L 175.5 434 L 168 428.5 L 167 420.5 Q 170.5 411.5 177.5 406 L 183.5 403 L 193 402 Q 190.2 391 180.5 385 L 172.5 387 Q 158 381 149 369.5 Q 134.6 353.4 126 331.5 L 121 311.5 L 121 291.5 L 120 289.5 L 126 263.5 Q 133.1 246.6 145.5 235 L 148 233.5 L 139 219.5 L 134 206.5 Q 135.4 199.1 132 196.5 L 132 173.5 L 139 147.5 L 145 135.5 Q 138.3 131.3 137 121.5 L 138 119.5 Q 127.5 112.5 128 94.5 L 134 89.5 L 131 82.5 L 131 75.5 L 136.5 66 L 141.5 67 L 161.5 80 L 194.5 89 L 205.5 83 L 231.5 76 L 241.5 76 L 243.5 74 L 270.5 74 L 296.5 79 L 314.5 88 L 318.5 88 L 349.5 76 L 366.5 63 Z M 368 67 Q 357 78 343 84 L 316 92 L 301 100 L 300 99 L 308 94 L 310 91 L 300 84 L 277 79 L 230 80 L 214 84 L 201 90 L 199 93 L 203 94 Q 206 96 203 97 L 190 91 Q 172 89 159 83 L 139 70 L 136 74 L 136 87 L 142 99 L 147 102 L 148 104 L 135 97 L 132 98 Q 131 110 138 116 L 146 121 L 147 124 L 145 123 L 141 125 L 143 130 L 150 134 L 141 153 L 137 168 L 136 181 L 138 207 Q 143 223 153 234 Q 163 245 180 251 L 181 253 L 166 248 L 151 237 Q 129 253 125 286 L 125 312 L 132 337 Q 134 340 135 337 L 135 326 L 137 325 L 139 338 L 149 356 L 154 358 L 156 357 L 156 336 L 152 320 L 153 298 L 156 283 Q 160 268 168 259 L 170 258 L 161 278 L 157 297 Q 155 321 159 340 L 165 357 L 178 378 L 191 389 Q 195 391 195 398 L 207 405 L 212 404 L 220 407 Q 230 409 234 404 L 230 398 L 245 404 L 260 406 L 274 406 L 275 405 L 273 400 Q 272 396 275 397 L 277 403 L 287 408 L 297 405 L 300 406 Q 306 407 309 404 L 312 400 L 316 398 Q 327 388 335 374 L 335 368 L 322 307 Q 319 275 330 258 L 329 254 L 324 256 Q 320 257 321 254 Q 335 251 346 243 L 364 223 L 371 207 L 373 195 L 373 178 L 371 160 Q 368 145 361 135 Q 357 136 358 134 L 362 132 Q 366 130 367 124 L 367 121 L 362 123 L 359 123 L 363 120 Q 373 113 376 99 L 375 93 L 363 102 L 360 102 L 366 95 L 371 80 L 370 70 L 368 67 Z M 360 235 Q 351 246 337 251 Q 330 257 328 268 L 326 286 L 327 316 Q 330 333 337 347 L 344 352 L 348 351 Q 347 343 350 344 L 352 361 L 358 374 L 364 377 L 370 367 L 369 355 L 370 351 L 375 358 L 381 350 L 386 327 L 383 325 L 385 323 L 387 320 L 388 307 L 388 291 L 385 275 Q 380 258 371 246 L 360 235 Z M 138 338 L 136 340 Q 139 354 148 364 Q 158 376 174 383 L 176 382 L 166 367 L 161 353 Q 157 352 159 358 Q 158 361 152 360 Q 142 352 138 338 Z M 335 348 L 338 373 L 345 392 L 351 395 Q 356 390 358 382 L 350 362 L 350 357 L 348 354 L 346 355 Q 340 355 338 351 Q 339 346 335 348 Z M 335 380 Q 330 391 320 399 L 320 402 Q 330 413 348 417 Q 356 419 359 415 L 359 412 Q 345 402 338 386 Q 340 378 335 380 Z M 316 402 L 310 406 L 307 411 L 310 412 L 317 422 L 322 425 L 329 426 L 344 425 L 346 422 L 334 415 L 316 402 Z M 189 406 L 181 409 L 172 419 L 172 429 L 178 431 L 184 419 L 193 413 L 195 414 L 193 415 L 184 426 L 184 435 L 188 437 Q 198 439 201 435 L 200 433 Q 201 423 207 419 L 209 420 Q 202 423 204 437 L 211 440 L 219 438 L 223 433 L 232 426 Q 242 428 245 424 L 244 414 L 234 408 L 229 410 L 218 410 L 216 408 L 211 409 Q 204 410 203 406 L 189 406 Z M 242 407 L 244 409 L 247 414 Q 253 418 265 416 L 268 412 L 267 410 L 255 410 L 242 407 Z M 277 408 L 274 409 L 265 423 L 264 436 L 270 440 L 276 440 L 277 439 L 278 427 L 281 425 L 280 427 L 281 440 Q 284 446 296 444 L 301 438 L 300 426 L 300 424 L 304 431 Q 302 438 306 440 L 314 439 L 317 434 L 315 423 L 306 414 L 303 409 Q 295 408 292 411 L 286 411 L 277 408 Z " /><path fill="rgb(0,0,0)" stroke="rgb(0,0,0)" stroke-width="0.6" opacity="1" d="M 190.5 115 L 205.5 115 L 220.5 120 Q 233.7 126.3 242 137.5 L 252.5 159 L 264 137.5 L 273.5 128 L 295.5 116 L 321.5 115 Q 339.6 119.9 350 132.5 L 353 140.5 L 348 136.5 L 339.5 126 L 321.5 118 L 301.5 118 L 282.5 125 L 265 140.5 L 254 164.5 Q 255.5 174.8 253 179 L 251 178.5 L 251 163.5 Q 246 141 230.5 129 L 209.5 119 L 185.5 119 L 179.5 121 L 180.5 119 L 190.5 115 Z " /><path fill="rgb(0,0,0)" stroke="rgb(0,0,0)" stroke-width="0.6" opacity="1" d="M 171.5 124 L 169.5 127 L 163 131.5 Q 144.7 148.2 147 185.5 L 150 199.5 L 155 210.5 L 152 208.5 Q 146 199.5 144 186.5 L 144 166.5 Q 148.2 141.7 163.5 128 L 171.5 124 Z " /><path fill="rgb(0,0,0)" stroke="rgb(0,0,0)" stroke-width="0.6" opacity="1" d="M 194.5 134 Q 202.5 132.5 205 136.5 L 206 140.5 L 203.5 142 L 197.5 140 L 182 146 L 186.5 138 L 194.5 134 Z " /><path fill="rgb(0,0,0)" stroke="rgb(0,0,0)" stroke-width="0.6" opacity="1" d="M 306.5 134 Q 320.4 132.1 324 140.5 L 325 146 L 315.5 141 L 303.5 141 L 302 139.5 L 304.5 135 L 306.5 134 Z " /><path fill="rgb(0,0,0)" stroke="rgb(0,0,0)" stroke-width="0.6" opacity="1" d="M 357.5 149 Q 365.4 158.1 363 177.5 Q 360.1 212.6 339.5 230 Q 318.6 251.4 279 253 Q 277.6 249.3 283.5 251 Q 324.3 245.8 345 220.5 Q 362.6 201.6 360 162.5 L 357.5 149 Z " /><path fill="rgb(0,0,0)" stroke="rgb(0,0,0)" stroke-width="0.6" opacity="1" d="M 197.5 156 Q 211.7 155.8 218 163.5 L 225 174.5 L 227 188.5 Q 224.3 203.8 213.5 211 Q 207.5 215 197.5 215 Q 183.4 212.1 177 201.5 L 174 194.5 L 173 181.5 Q 175.3 169.8 182.5 163 L 197.5 156 Z M 197 160 L 187 164 Q 180 169 177 178 L 177 195 L 182 205 L 192 211 L 198 212 Q 210 214 215 208 Q 222 203 224 193 Q 226 177 219 170 Q 213 159 197 160 Z " /><path fill="rgb(0,0,0)" stroke="rgb(0,0,0)" stroke-width="0.6" opacity="1" d="M 300.5 156 Q 320.5 154.5 327 166.5 Q 334.2 173.8 333 189.5 Q 330.5 201.5 322.5 208 Q 316.1 216.1 299.5 214 L 285 204.5 Q 277.8 197.2 279 181.5 Q 281 165.5 292.5 159 L 300.5 156 Z M 300 160 L 292 164 Q 285 169 282 178 L 282 193 L 286 203 Q 290 209 299 211 Q 315 213 323 206 L 329 196 L 329 179 L 325 170 L 313 160 L 300 160 Z " /><path fill="rgb(0,0,0)" stroke="rgb(0,0,0)" stroke-width="0.6" opacity="1" d="M 301.5 169 L 308.5 169 L 319 177.5 L 322 184.5 L 322 190.5 L 315.5 203 Q 312.1 208.1 302.5 207 L 290 197.5 L 288 184.5 Q 289.7 176.2 295.5 172 L 301.5 169 Z M 309 175 L 307 176 L 304 181 L 305 185 L 309 187 L 313 186 Q 316 184 315 179 L 309 175 Z " /><path fill="rgb(0,0,0)" stroke="rgb(0,0,0)" stroke-width="0.6" opacity="1" d="M 196.5 170 Q 210.4 168.1 214 176.5 Q 219 182 217 194.5 L 209.5 205 Q 206.6 209.1 198.5 208 Q 191.3 206.2 188 200.5 Q 183.1 195.9 184 185.5 Q 186.1 176.6 192.5 172 L 196.5 170 Z M 203 176 Q 199 178 200 185 L 205 188 L 209 187 Q 212 185 211 180 Q 209 175 203 176 Z " /><path fill="rgb(0,0,0)" stroke="rgb(0,0,0)" stroke-width="0.6" opacity="1" d="M 249.5 190 Q 257.2 188.8 260.5 192 L 273 204.5 Q 277 208 276 216.5 L 270 221.5 L 269 230.5 Q 265.8 239.8 258.5 245 L 248.5 246 L 240 238.5 L 234 222.5 L 229 217.5 L 229 211.5 Q 231.6 200.6 239.5 195 L 249.5 190 Z M 249 194 L 243 197 Q 233 202 232 217 Q 234 220 241 219 L 252 228 L 262 220 Q 270 221 273 217 Q 272 206 266 201 L 258 194 L 249 194 Z M 264 223 L 258 235 L 253 237 L 255 235 L 258 229 L 248 233 L 247 234 Q 242 233 243 227 Q 241 222 239 226 L 242 237 L 251 243 Q 257 244 259 241 L 267 227 Q 269 221 264 223 Z " /><path fill="rgb(0,0,0)" stroke="rgb(0,0,0)" stroke-width="0.6" opacity="1" d="M 156.5 214 L 168.5 228 Q 178.6 237.4 192.5 243 L 220 250 Q 221.3 253 217.5 252 Q 180.4 246.6 161 223.5 L 156.5 214 Z " /><path fill="rgb(0,0,0)" stroke="rgb(0,0,0)" stroke-width="0.6" opacity="1" d="M 226 251 L 237 252 L 236.5 254 L 228.5 254 L 226 253 L 226 251 Z " /><path fill="rgb(0,0,0)" stroke="rgb(0,0,0)" stroke-width="0.6" opacity="1" d="M 179 278 Q 182 276.8 181 280.5 L 186 290 L 196.5 291 L 208 282.5 L 209.5 280 Q 212.9 279.1 211 284.5 Q 212.5 293 218.5 297 L 229.5 298 L 239 290.5 L 242 282 Q 245.3 280.7 244 285.5 L 246 289.5 L 243.5 288 Q 239.8 286.8 241 290.5 L 234.5 298 Q 231 302 222.5 301 L 213 294.5 L 208.5 285 L 197.5 293 L 189.5 293 L 180 285.5 L 179 278 Z " /><path fill="rgb(0,0,0)" stroke="rgb(0,0,0)" stroke-width="0.6" opacity="1" d="M 278 279 L 280 280.5 L 284 286 L 278 282.5 L 278 279 Z " /><path fill="rgb(0,0,0)" stroke="rgb(0,0,0)" stroke-width="0.6" opacity="1" d="M 287.5 288 Q 291.8 291.7 301.5 290 L 304.5 289 L 302.5 292 L 293.5 293 L 287.5 288 Z " /><path fill="rgb(0,0,0)" stroke="rgb(0,0,0)" stroke-width="0.6" opacity="1" d="M 375 288 Q 378.3 286.7 377 291.5 L 379 297.5 Q 377.5 311.8 380 320 L 377 321.5 Q 376.1 330.1 370.5 334 L 365.5 334 L 357 325.5 Q 350.9 315.5 349 302 Q 352.3 300.7 351 305.5 L 359 324.5 L 363.5 329 L 369.5 331 Q 375.1 327.1 376 318.5 L 376 292.5 L 375 288 Z " /><path fill="rgb(0,0,0)" stroke="rgb(0,0,0)" stroke-width="0.6" opacity="1" d="M 276.5 289 L 276 290.5 L 272.5 297 Q 268.5 302.5 257.5 301 L 253 297.5 L 254.5 298 L 262.5 299 Q 271.5 296 276.5 289 Z " /><path fill="rgb(0,0,0)" stroke="rgb(0,0,0)" stroke-width="0.6" opacity="1" d="M 133 308 Q 136.5 306.9 135 314.5 L 136 323 Q 132.3 324.4 134 318.5 L 133 308 Z " /><path fill="rgb(0,0,0)" stroke="rgb(0,0,0)" stroke-width="0.6" opacity="1" d="M 173 308 Q 176.7 306.6 175 312.5 Q 175.9 321.2 181 325 L 176 321.5 L 173 308 Z " /><path fill="rgb(0,0,0)" stroke="rgb(0,0,0)" stroke-width="0.6" opacity="1" d="M 310.5 317 L 312 317.5 Q 310.3 325.8 304.5 330 Q 301 333.5 293.5 333 L 280.5 324 L 273.5 335 Q 269.8 339.8 260.5 339 L 254 334.5 L 255.5 335 L 267.5 336 L 276 329.5 L 278 321.5 L 280.5 319 L 289.5 329 L 299.5 330 L 307 325.5 L 310.5 317 Z " /><path fill="rgb(0,0,0)" stroke="rgb(0,0,0)" stroke-width="0.6" opacity="1" d="M 206 318 L 209 319.5 Q 210.9 328.1 216.5 333 Q 220.6 336.9 229.5 336 L 241.5 327 L 241 328.5 L 233.5 337 L 221.5 338 L 212 331.5 L 206 318 Z " /><path fill="rgb(0,0,0)" stroke="rgb(0,0,0)" stroke-width="0.6" opacity="1" d="M 244.5 320 L 252 333 L 248 330.5 L 245.5 325 L 242.5 326 L 242 323.5 L 244.5 320 Z " /><path fill="rgb(0,0,0)" stroke="rgb(0,0,0)" stroke-width="0.6" opacity="1" d="M 198.5 325 L 201 325.5 Q 197.3 331.3 186.5 330 L 183 327.5 L 186.5 327 L 192.5 328 L 198.5 325 Z " /><path fill="rgb(0,0,0)" stroke="rgb(0,0,0)" stroke-width="0.6" opacity="1" d="M 219.5 357 L 221 358.5 L 217.5 363 Q 213.5 368.5 202.5 367 L 193 360.5 L 193.5 358 Q 197.3 365.7 209.5 365 L 219.5 357 Z " /><path fill="rgb(0,0,0)" stroke="rgb(0,0,0)" stroke-width="0.6" opacity="1" d="M 229.5 360 Q 233.3 370.2 249.5 368 L 256 364 L 251.5 370 L 240.5 371 L 229 362.5 L 229.5 360 Z " /><path fill="rgb(0,0,0)" stroke="rgb(0,0,0)" stroke-width="0.6" opacity="1" d="M 293.5 361 L 294 362.5 L 284.5 369 L 278.5 369 L 276 368 Q 274.8 365 278.5 366 L 282.5 367 Q 290.4 366.4 293.5 361 Z " /><path fill="rgb(230,202,143)" stroke="rgb(230,202,143)" stroke-width="0.6" opacity="1" d="M 195.5 161 Q 212.5 159.5 218 169.5 Q 225 177 223 193.5 L 213.5 208 L 207.5 211 L 197.5 211 L 191.5 210 L 182 202.5 L 177 192.5 L 177 179.5 L 185.5 166 L 195.5 161 Z M 197 169 L 190 173 L 184 183 Q 182 198 189 204 Q 193 208 201 209 L 209 207 Q 216 203 218 195 Q 220 181 214 175 Q 210 167 197 169 Z " /><path fill="rgb(230,202,143)" stroke="rgb(230,202,143)" stroke-width="0.6" opacity="1" d="M 203.5 177 L 210 179.5 Q 210.8 185.3 207.5 187 Q 202 188 201 184.5 Q 199.8 178.3 203.5 177 Z " /><path fill="rgb(230,202,143)" stroke="rgb(230,202,143)" stroke-width="0.6" opacity="1" d="M 360.5 237 L 370 245.5 Q 379.4 257.6 384 274.5 L 387 289.5 L 387 303.5 L 388 304.5 L 386 321 L 382 319.5 L 379 312.5 Q 381.4 293.6 375.5 283 L 374 283.5 L 374 291.5 Q 378 299.5 376 313.5 L 374 323.5 L 369.5 331 L 360 324.5 Q 352.2 312.6 350 296 L 348 296.5 L 348 305.5 L 356 325.5 L 365.5 335 Q 372.5 336.5 374 332.5 L 378 321 L 380 322.5 L 385 327.5 L 385 330.5 L 380 349.5 L 375.5 356 Q 372.2 357.1 373 354.5 L 370 350.5 L 368 340 L 365 341.5 L 370 358.5 L 370 364.5 L 363.5 376 L 359 373.5 L 353 360.5 L 350 339 Q 346.5 337.9 348 345.5 L 345.5 352 L 339 347.5 L 335 340.5 L 329 321.5 L 327 309.5 L 326 286.5 L 331 260.5 L 338.5 251 L 345.5 248 L 360.5 237 Z " /><path fill="rgb(230,202,143)" stroke="rgb(230,202,143)" stroke-width="0.6" opacity="1" d="M 314.5 404 L 318.5 404 Q 329.2 414.8 344 421.5 Q 345.1 424.8 342.5 424 L 341.5 425 L 328.5 425 L 321.5 424 L 318 421.5 L 311.5 412 L 308 409.5 L 314.5 404 Z " /><path fill="rgb(245,235,208)" stroke="rgb(245,235,208)" stroke-width="0.6" opacity="1" d="M 308.5 176 L 314 179.5 L 311.5 186 Q 306 187 305 183.5 Q 304 177 308.5 176 Z " /><path fill="rgb(245,235,208)" stroke="rgb(245,235,208)" stroke-width="0.6" opacity="1" d="M 248.5 195 L 257.5 195 L 266 202.5 L 272 215.5 Q 269.5 220 261.5 219 L 251.5 227 L 243.5 220 L 235.5 218 L 233 215.5 Q 234.1 204.1 241.5 199 L 248.5 195 Z " /><path fill="rgb(245,235,208)" stroke="rgb(245,235,208)" stroke-width="0.6" opacity="1" d="M 144.5 354 L 151.5 361 L 156.5 361 L 162 357 L 166 368.5 L 174 381 L 168.5 380 L 151 365.5 L 144 356.5 L 144.5 354 Z " /><path fill="rgb(245,235,208)" stroke="rgb(245,235,208)" stroke-width="0.6" opacity="1" d="M 191.5 406 L 201.5 406 Q 203.5 410 209.5 410 L 214.5 409 Q 218.3 413.2 228.5 411 L 233.5 409 L 244 415.5 L 245 422.5 Q 241.6 427.1 231.5 425 L 220 434.5 L 218.5 437 Q 215.8 439.8 209.5 439 L 205 435.5 Q 202.9 422.9 210.5 420 L 213 418.5 L 208.5 417 L 202 422.5 L 197.5 436 Q 187.5 438.5 185 433.5 L 185 425.5 L 192.5 416 L 197 413.5 Q 197.9 410.1 192.5 412 L 182 419.5 L 177.5 430 L 172 426.5 L 172 419.5 L 180.5 410 L 191.5 406 Z " /><path fill="rgb(230,170,49)" stroke="rgb(230,170,49)" stroke-width="0.6" opacity="1" d="M 264.5 224 L 266 226.5 L 258.5 240 L 251.5 243 L 243 236.5 L 239 226 Q 243.5 224.3 242 229.5 L 248.5 237 L 254.5 238 L 259 234.5 L 264.5 224 Z " /><path fill="rgb(230,170,49)" stroke="rgb(230,170,49)" stroke-width="0.6" opacity="1" d="M 335 381 Q 338.3 379.7 337 384.5 L 347 402 L 354 407.5 L 358 413.5 Q 356 418 347.5 416 Q 329.6 412.4 320 400.5 L 324.5 395 L 328 392.5 L 335 381 Z " /><path fill="rgb(230,170,49)" stroke="rgb(230,170,49)" stroke-width="0.6" opacity="1" d="M 275.5 409 L 287.5 412 L 298.5 409 L 304 411.5 L 305.5 415 L 314 422.5 Q 317 426.5 316 434.5 L 313.5 438 L 305.5 439 Q 301.8 436.8 304 428.5 L 299.5 422 Q 296.9 421.2 298 424.5 Q 300.8 426.2 300 431.5 L 299 433.5 L 300 437.5 L 295.5 443 L 288.5 444 L 282 439.5 L 280 429.5 L 282 423 L 278 424.5 Q 274.9 428.9 276 437.5 L 274.5 439 Q 266.9 440.1 265 435.5 L 264 428.5 L 273.5 410 L 275.5 409 Z " /><path fill="rgb(24,24,24)" stroke="rgb(24,24,24)" stroke-width="0.6" opacity="1" d="M 179.5 119 L 179 120.5 L 178.5 122 L 177 121.5 L 175.5 123 L 172.5 125 L 170.5 125 L 169 124.5 L 179.5 119 Z " /><path fill="rgb(24,24,24)" stroke="rgb(24,24,24)" stroke-width="0.6" opacity="1" d="M 353.5 139 L 359 149.5 L 356 149.5 L 357 147.5 L 355 146.5 L 355.5 145 L 354 143.5 L 353.5 139 Z " /><path fill="rgb(24,24,24)" stroke="rgb(24,24,24)" stroke-width="0.6" opacity="1" d="M 262.5 193 L 270.5 202 L 262.5 193 Z " /><path fill="rgb(24,24,24)" stroke="rgb(24,24,24)" stroke-width="0.6" opacity="1" d="M 154.5 208 L 158 214.5 L 156 215.5 L 156.5 214 L 154 212.5 L 153 210.5 L 154.5 208 Z " /><path fill="rgb(24,24,24)" stroke="rgb(24,24,24)" stroke-width="0.6" opacity="1" d="M 284.5 285 L 287.5 289 L 289 288.5 Q 287.3 291.8 285.5 288 L 283 286.5 L 284.5 285 Z " /><path fill="rgb(24,24,24)" stroke="rgb(24,24,24)" stroke-width="0.6" opacity="1" d="M 307.5 285 L 309 286.5 L 304 290.5 Q 303 287.8 307.5 285 Z " /><path fill="rgb(24,24,24)" stroke="rgb(24,24,24)" stroke-width="0.6" opacity="1" d="M 205.5 319 L 207.5 322 L 205.5 321 L 200.5 325 L 205.5 319 Z " /><path fill="rgb(24,24,24)" stroke="rgb(24,24,24)" stroke-width="0.6" opacity="1" d="M 188.5 351 L 191 352.5 L 190.5 354 L 192 355.5 L 198.5 363 L 193 358.5 L 192.5 360 L 188.5 351 Z " /><path fill="rgb(24,24,24)" stroke="rgb(24,24,24)" stroke-width="0.6" opacity="1" d="M 369.5 376 L 365.5 381 L 363 380.5 L 369.5 376 Z " /><path fill="rgb(24,24,24)" stroke="rgb(24,24,24)" stroke-width="0.6" opacity="1" d="M 352.5 398 L 364 410.5 L 352 399.5 L 352.5 398 Z " /><path fill="rgb(24,24,24)" stroke="rgb(24,24,24)" stroke-width="0.6" opacity="1" d="M 346.5 399 L 351.5 405 L 346.5 399 Z " /><path fill="rgb(24,24,24)" stroke="rgb(24,24,24)" stroke-width="0.6" opacity="1" d="M 230.5 430 L 220.5 441 L 230.5 430 Z " /><path fill="rgb(119,90,53)" stroke="rgb(119,90,53)" stroke-width="0.6" opacity="1" d="M 263.5 193 L 271.5 202 L 263.5 193 Z " /><path fill="rgb(119,90,53)" stroke="rgb(119,90,53)" stroke-width="0.6" opacity="1" d="M 214.5 291 L 219.5 297 L 214.5 291 Z " /><path fill="rgb(119,90,53)" stroke="rgb(119,90,53)" stroke-width="0.6" opacity="1" d="M 191.5 352 L 200 362.5 L 192 355.5 L 191.5 352 Z " /><path fill="rgb(118,117,117)" stroke="rgb(118,117,117)" stroke-width="0.6" opacity="1" d="M 359.5 236 L 361.5 236 L 370 244.5 L 361.5 237 L 355.5 240 L 357.5 237 L 359.5 236 Z " /><path fill="rgb(118,117,117)" stroke="rgb(118,117,117)" stroke-width="0.6" opacity="1" d="M 357.5 326 L 364.5 334 L 357.5 326 Z " /><path fill="rgb(217,215,208)" stroke="rgb(217,215,208)" stroke-width="0.6" opacity="1" d="M 353.5 398 L 364 409.5 L 353 399.5 L 353.5 398 Z " /><path fill="rgb(217,215,208)" stroke="rgb(217,215,208)" stroke-width="0.6" opacity="1" d="M 231.5 430 L 233 430.5 L 221.5 441 L 231.5 430 Z " /><path fill="rgb(197,187,140)" stroke="rgb(197,187,140)" stroke-width="0.6" opacity="1" d="M 140.5 346 L 141 347.5 L 140.5 349 L 143 350.5 L 141 351.5 L 141.5 350 L 139 348.5 L 140.5 346 Z " /><path fill="rgb(187,186,185)" stroke="rgb(187,186,185)" stroke-width="0.6" opacity="1" d="M 146.5 233 L 141.5 239 L 146.5 233 Z " /></svg>