<svg width="627" height="627" preserveAspectRatio="xMidYMid meet" viewBox="0 0 512 512" version="1.1" xmlns="http://www.w3.org/2000/svg" ><path fill="rgb(255,255,255)" stroke="rgb(255,255,255)" stroke-width="0.6" opacity="1" d="M 0 0 L 512 0 L 512 512 L 0 512 L 0 0 Z M 206 39 Q 191 41 182 48 Q 165 58 163 83 L 150 92 Q 136 102 132 123 Q 131 144 140 156 Q 145 165 157 168 L 161 167 L 164 163 Q 162 146 169 139 Q 176 129 188 124 L 197 125 Q 213 126 222 120 Q 218 131 210 140 L 172 181 Q 161 195 157 217 Q 156 245 170 258 L 189 270 Q 196 274 209 273 Q 220 284 239 287 L 250 301 L 251 330 L 252 331 L 250 333 L 234 338 L 228 344 L 221 363 Q 218 384 228 393 L 234 397 L 239 397 L 241 392 L 245 389 L 248 385 L 248 378 L 244 365 Q 242 355 246 351 L 250 348 Q 248 360 253 366 L 252 420 L 249 438 L 246 440 L 225 441 L 214 443 L 209 448 L 212 453 L 209 455 L 205 462 Q 209 467 220 465 Q 223 466 222 472 L 227 474 L 241 471 L 259 461 L 272 457 L 274 454 L 274 448 L 268 434 L 267 423 L 268 370 L 272 358 Q 273 348 269 343 L 280 338 L 308 331 L 328 329 L 334 322 L 333 314 L 328 308 Q 309 301 295 290 L 292 286 Q 305 284 315 278 L 327 280 Q 334 281 337 278 L 340 279 L 354 297 L 360 301 Q 364 298 365 292 Q 363 285 367 286 L 369 291 Q 370 294 375 293 L 378 288 L 378 274 L 375 264 L 380 261 Q 379 242 370 232 L 358 220 L 348 204 Q 327 176 287 169 Q 266 167 251 171 Q 231 176 219 188 Q 206 200 200 219 L 196 220 L 192 216 L 192 208 L 196 197 L 205 184 L 241 144 Q 255 126 261 100 L 261 80 Q 259 67 252 59 Q 240 38 206 39 Z " /><path fill="rgb(233,131,157)" stroke="rgb(233,131,157)" stroke-width="0.6" opacity="1" d="M 204.5 44 Q 236.2 42.3 248 60.5 L 256 79.5 L 256 98.5 L 250 118.5 L 235.5 142 Q 232.9 141.2 234 144.5 L 229.5 150 L 226 152.5 L 192 193.5 L 188 202.5 L 187 215.5 Q 187.7 221.9 192.5 224 L 198.5 225 L 204 220.5 Q 210.3 199.8 225.5 188 Q 236 180 250.5 176 L 253.5 177 L 264.5 174 L 267.5 175 L 269.5 174 L 271.5 175 L 279.5 174 L 282.5 175 L 287.5 174 L 295.5 177 L 297.5 176 Q 326.7 184.8 344 205.5 L 350 216.5 L 345.5 217 L 336.5 213 L 318.5 198 L 318 201 L 327 208.5 Q 331 212.4 330 220 Q 323.1 222 321 218.5 L 316 211 L 295.5 199 Q 292.5 200.5 295.5 202 Q 308.7 206.3 316 216.5 L 321 228.5 Q 319 232 312.5 231 L 301.5 228 L 285 219 L 286.5 222 L 298 231.5 Q 302.7 235.3 303 243.5 L 300.5 247 Q 296.1 252.1 284.5 250 L 271.5 245 Q 268.5 246.5 271.5 248 L 288 254.5 Q 291.6 255.9 291 261.5 Q 289.3 265.8 281.5 264 L 279.5 263 L 276.5 264 L 266.5 260 L 261.5 260 L 249.5 254 L 236 242.5 L 235 239 L 233 237.5 Q 228.3 231.2 228 220.5 Q 230 206.5 239.5 200 L 252 195 Q 253.3 191.3 247.5 193 Q 235.3 196.3 229 205.5 L 224 215.5 L 224 228.5 Q 228.6 244.4 240.5 253 L 259.5 264 L 277.5 269 L 287.5 268 L 289.5 268 L 299.5 266 L 314 270.5 L 311 272 L 309.5 275 L 297.5 280 L 279 281 L 280.5 284 L 284 285 Q 285 290.6 280.5 292 L 276.5 294 L 271.5 294 Q 261.1 291.4 255.5 284 L 236.5 282 L 231.5 279 L 229.5 279 Q 220.1 277.4 215 271.5 L 216 268 L 203.5 267 L 197.5 268 L 195.5 266 L 184.5 263 L 171 251.5 L 165 241.5 L 162 229.5 L 163 225.5 L 162 214.5 Q 170.4 182.4 192.5 164 L 194 162.5 L 199 159 L 203.5 153 L 205 151.5 L 223 129.5 L 229 117.5 L 229 113 L 231 111.5 L 235 104.5 L 235 100.5 L 232 102.5 L 226.5 111 L 217.5 117 L 204.5 120 L 199.5 119 L 195.5 120 L 191 119 Q 194 113.8 193 103.5 L 189 97.5 L 192 97 L 193.5 99 L 201.5 100 L 209 94.5 Q 212.9 90.4 212 81.5 L 205.5 72 L 196.5 71 L 190 75.5 Q 184.9 78.9 186 88.5 L 188 94 L 183.5 96 L 175.5 85 L 171 81.5 L 169.5 80 L 168 75.5 Q 171.4 60.4 182.5 53 Q 190.9 45.9 204.5 44 Z M 200 57 L 198 58 L 194 63 L 197 63 Q 207 62 211 67 L 213 67 L 212 64 Q 209 57 200 57 Z " /><path fill="rgb(233,131,157)" stroke="rgb(233,131,157)" stroke-width="0.6" opacity="1" d="M 196.5 75 L 200 76.5 L 193.5 84 Q 188.9 85.3 191 79.5 L 196.5 75 Z " /><path fill="rgb(233,131,157)" stroke="rgb(233,131,157)" stroke-width="0.6" opacity="1" d="M 335.5 216 L 336 218 L 347.5 222 L 353.5 222 L 364 231.5 L 365.5 235 L 368 236.5 L 374 248.5 L 374 255.5 Q 371.3 257.6 368.5 253 L 363.5 249 Q 359.7 251.2 365 253.5 L 372 269.5 L 372 276.5 Q 375.3 277.8 374 283.5 L 373 286 L 371 286 L 371 283 L 369 281.5 L 357.5 266 L 356 267.5 L 360 276.5 L 360 291 L 355 291 L 355 289.5 L 348 280 L 333.5 268 L 330 268 L 332 271.5 L 331.5 273 L 333 273.5 L 319.5 274 L 316 271.5 L 315 269.5 L 325 264 Q 323.8 261 327.5 262 L 337.5 265 L 343 260.5 L 344 255.5 L 342 250.5 L 343.5 250 L 352.5 254 L 356.5 254 L 360 251.5 L 361 247.5 Q 357.2 233.3 346.5 226 L 341 223 L 354 239.5 L 356 249 L 342.5 246 L 326 235 L 337 248.5 L 340 257.5 L 335.5 260 L 326.5 258 L 309 248 L 316 256.5 L 318 264 L 312.5 265 L 308.5 263 L 304.5 264 L 297 259.5 L 295 256.5 L 294 254.5 L 305 248.5 Q 308.4 245.9 307 238.5 L 304.5 234 L 303 233.5 Q 304.8 230.3 306.5 234 L 318.5 235 L 324 230.5 L 325 224 Q 332.2 225.5 334 220.5 L 335.5 216 Z " /><path fill="rgb(233,131,157)" stroke="rgb(233,131,157)" stroke-width="0.6" opacity="1" d="M 287.5 291 L 300 298 Q 298.8 301 302.5 300 Q 313.3 309.3 328 314.5 Q 330 322 326.5 324 L 316.5 326 L 314.5 325 L 269.5 336 L 251.5 342 L 241 349.5 Q 237 353 239 362.5 L 240 364.5 L 239 366.5 Q 243.4 371.9 242 382 L 237 383 L 234 374.5 L 234 365.5 L 232.5 364 Q 228.8 365.3 230 371.5 Q 232.8 374.2 232 380.5 L 236 385.5 L 236 390.5 L 234 391.5 L 227 381.5 L 226 367.5 L 228 354.5 L 234.5 343 L 249.5 337 L 261.5 335 L 269.5 331 L 275.5 331 L 283.5 327 L 288.5 327 L 301.5 322 L 303.5 323 L 316 315.5 Q 316.9 312.1 311.5 314 L 285 296.5 Q 284.3 291.8 287.5 291 Z " /><path fill="rgb(7,8,7)" stroke="rgb(7,8,7)" stroke-width="0.6" opacity="1" d="M 207.5 40 L 227.5 42 L 243 50 L 242.5 53 Q 231.2 42.3 209.5 42 L 194.5 45 L 179 53 L 180.5 50 Q 190.8 41.8 207.5 40 Z " /><path fill="rgb(7,8,7)" stroke="rgb(7,8,7)" stroke-width="0.6" opacity="1" d="M 174.5 56 Q 177.1 55.2 176 58.5 Q 166.6 66.1 166 82.5 L 167 85 L 150 95 L 138 112.5 L 136 127 L 138 125.5 L 143.5 124 L 152 138.5 L 152 143 L 156 144.5 L 158.5 149 L 162 147.5 L 167 135 L 170 135.5 L 164 145.5 L 163 161.5 L 160.5 166 Q 146.4 166.1 142 156.5 Q 131.8 145.2 133 122.5 Q 136.4 104.9 147.5 95 Q 150.8 96.1 150 93.5 L 164 82.5 Q 164.6 64.6 174.5 56 Z " /><path fill="rgb(7,8,7)" stroke="rgb(7,8,7)" stroke-width="0.6" opacity="1" d="M 247 56 L 249 57.5 Q 262 69.5 260 96.5 L 258 107.5 L 252 123.5 L 241.5 139 L 241 136.5 L 253 116.5 L 258 96.5 L 258 82.5 L 253 65.5 L 247 56 Z " /><path fill="rgb(7,8,7)" stroke="rgb(7,8,7)" stroke-width="0.6" opacity="1" d="M 197.5 59 Q 207.2 57.9 210 63.5 L 209.5 65 L 203.5 61 L 197.5 62 Q 194.5 60.5 197.5 59 Z " /><path fill="rgb(7,8,7)" stroke="rgb(7,8,7)" stroke-width="0.6" opacity="1" d="M 199.5 80 L 206 81 L 210 89.5 L 204.5 97 L 199 98 L 197.5 96 L 194 87.5 L 197 81 L 199.5 80 Z " /><path fill="rgb(7,8,7)" stroke="rgb(7,8,7)" stroke-width="0.6" opacity="1" d="M 229.5 109 L 230 110.5 L 226 115.5 L 227 117.5 Q 222.7 130.2 214.5 139 Q 211.9 139.8 213 136.5 Q 220.5 130 224 119.5 L 221.5 118 L 210.5 123 L 190.5 123 L 187.5 122 L 173 131 L 174.5 129 L 186 120.5 L 188.5 117 L 191.5 121 L 209.5 121 L 225 115 L 229.5 109 Z " /><path fill="rgb(7,8,7)" stroke="rgb(7,8,7)" stroke-width="0.6" opacity="1" d="M 239.5 140 L 240 142.5 L 236.5 147 Q 233.9 147.8 235 144.5 L 239.5 140 Z " /><path fill="rgb(7,8,7)" stroke="rgb(7,8,7)" stroke-width="0.6" opacity="1" d="M 209.5 142 L 210 144.5 L 184.5 171 L 183 169.5 L 207 143 L 209.5 142 Z " /><path fill="rgb(7,8,7)" stroke="rgb(7,8,7)" stroke-width="0.6" opacity="1" d="M 232.5 148 L 235 148.5 L 225.5 160 L 223 159.5 L 232.5 148 Z " /><path fill="rgb(7,8,7)" stroke="rgb(7,8,7)" stroke-width="0.6" opacity="1" d="M 219.5 164 L 221 164.5 L 217.5 169 L 212.5 172 L 219.5 164 Z " /><path fill="rgb(7,8,7)" stroke="rgb(7,8,7)" stroke-width="0.6" opacity="1" d="M 261.5 170 L 285.5 170 L 303.5 174 Q 323.9 181.1 338 194.5 Q 338.8 197.1 335.5 196 Q 313 171.5 265.5 172 Q 237.5 175 221.5 190 L 221 187.5 Q 236.3 173.8 261.5 170 Z " /><path fill="rgb(7,8,7)" stroke="rgb(7,8,7)" stroke-width="0.6" opacity="1" d="M 210.5 173 L 212 174.5 L 204.5 183 L 203 184.5 L 194 197.5 L 191 206.5 L 191 216.5 L 192 219.5 L 189 217.5 L 188 210.5 L 191 199.5 L 201 183 L 203 181.5 L 210.5 173 Z " /><path fill="rgb(7,8,7)" stroke="rgb(7,8,7)" stroke-width="0.6" opacity="1" d="M 179.5 174 L 180 176.5 Q 169.5 186.5 164 201.5 Q 160 211.5 160 225.5 L 164 242.5 L 171 255 L 167 252.5 L 159 234.5 L 158 217.5 L 163 198.5 L 174 179.5 L 179.5 174 Z " /><path fill="rgb(7,8,7)" stroke="rgb(7,8,7)" stroke-width="0.6" opacity="1" d="M 214.5 194 Q 217.1 193.2 216 196.5 L 208 206.5 L 204 218.5 L 199.5 223 L 195.5 224 L 193.5 221 Q 200.8 222.3 202 217.5 Q 205.8 203.3 214.5 194 Z " /><path fill="rgb(7,8,7)" stroke="rgb(7,8,7)" stroke-width="0.6" opacity="1" d="M 339 197 L 346 202.5 L 354 217.5 L 358.5 222 L 368 230.5 Q 378.3 240.7 379 260.5 L 373 262 Q 378.2 270.6 377 286.5 L 373.5 292 L 369 288.5 L 365.5 283 Q 362.5 282.5 364 289.5 L 360.5 298 Q 355.1 299.9 356 296.5 L 352 290 L 349 288.5 L 340 277 L 352 287.5 Q 350.9 290.8 353.5 290 L 358.5 296 L 361 293.5 L 362 281.5 L 361 274.5 L 363 275.5 L 372.5 289 L 375 286.5 L 375 275.5 L 367 254.5 L 371.5 258 L 374.5 260 L 377 255.5 Q 373.4 237.1 361.5 227 L 354.5 221 L 349 221 L 350.5 219 L 352 216.5 L 339 197 Z " /><path fill="rgb(7,8,7)" stroke="rgb(7,8,7)" stroke-width="0.6" opacity="1" d="M 311.5 210 L 317 214.5 L 316.5 216 L 311.5 210 Z " /><path fill="rgb(7,8,7)" stroke="rgb(7,8,7)" stroke-width="0.6" opacity="1" d="M 230.5 237 L 239.5 248 L 254 258.5 L 252.5 258 Q 240.4 254.1 234 244.5 L 230.5 237 Z " /><path fill="rgb(7,8,7)" stroke="rgb(7,8,7)" stroke-width="0.6" opacity="1" d="M 175 259 L 189.5 267 Q 197.2 270.8 209.5 270 L 215 273.5 Q 214.2 276.1 217.5 275 Q 230.6 285.4 254.5 285 Q 259.9 292.1 269.5 295 L 278.5 295 L 285 289.5 Q 281.8 279.8 291.5 283 Q 305.4 280.9 314.5 274 Q 322.1 277.4 334.5 276 L 336 273 L 338 274.5 L 338.5 276 L 335.5 278 L 321.5 278 L 313.5 277 L 306.5 281 L 289 286.5 L 299.5 295 L 318.5 306 L 325.5 308 L 332 313.5 Q 334.5 324.5 328.5 327 L 324.5 329 L 312.5 329 L 289.5 334 L 268 341.5 L 271 356.5 Q 265 364.8 267 380 L 265 379.5 L 265 364.5 Q 269 360.5 269 352.5 L 264.5 342 Q 257.3 341.3 255 345.5 L 253 357.5 L 256 363.5 L 256 397 L 254 396.5 L 254 364.5 Q 249.8 360.7 251 351.5 L 253 347.5 L 250.5 346 L 244 351.5 L 243 365.5 L 247 382.5 L 244.5 388 L 240 390.5 Q 240.8 395.3 237.5 396 Q 229.4 395.6 227 389.5 L 223 381.5 L 222 364.5 L 228 345.5 L 235.5 338 L 249.5 334 L 253 331.5 Q 251 324.6 255 326 L 256.5 332 Q 262.1 332.1 264 328.5 L 262 297.5 Q 266.3 295.3 261.5 293 L 253.5 287 L 244 287 L 246 293.5 L 242 290.5 L 239.5 286 Q 221.8 283.2 211 273.5 L 210.5 272 L 199.5 272 Q 184.2 269.3 175 260.5 L 175 259 Z M 288 289 L 285 290 L 281 296 L 311 316 L 310 318 L 303 321 L 251 335 L 235 341 L 227 353 L 224 365 Q 223 379 228 388 L 235 393 L 238 392 L 237 385 L 241 387 L 245 384 L 241 367 Q 239 355 243 350 L 251 344 L 265 339 L 307 328 L 323 327 L 328 325 Q 332 323 331 317 L 326 311 L 316 307 L 288 289 Z M 266 296 L 265 299 L 266 328 L 296 321 L 308 316 L 279 297 L 266 296 Z " /><path fill="rgb(7,8,7)" stroke="rgb(7,8,7)" stroke-width="0.6" opacity="1" d="M 255.5 259 L 269 263 L 267.5 265 L 256.5 261 L 255.5 259 Z " /><path fill="rgb(7,8,7)" stroke="rgb(7,8,7)" stroke-width="0.6" opacity="1" d="M 277 265 L 288.5 265 L 289 267 L 277.5 267 L 277 265 Z " /><path fill="rgb(7,8,7)" stroke="rgb(7,8,7)" stroke-width="0.6" opacity="1" d="M 247 295 L 254 298.5 L 253 307.5 L 254 323 L 252 322.5 L 252 309.5 L 251 299.5 L 249.5 298 L 247 296.5 L 247 295 Z " /><path fill="rgb(7,8,7)" stroke="rgb(7,8,7)" stroke-width="0.6" opacity="1" d="M 264 382 L 266 382.5 L 266 428.5 L 267 435.5 L 273 451.5 L 271.5 454 Q 270.7 444.8 266 439.5 L 264 428.5 L 264 382 Z " /><path fill="rgb(7,8,7)" stroke="rgb(7,8,7)" stroke-width="0.6" opacity="1" d="M 253 401 L 255 401.5 L 255 421 L 253 420.5 L 253 401 Z " /><path fill="rgb(7,8,7)" stroke="rgb(7,8,7)" stroke-width="0.6" opacity="1" d="M 252 424 L 254 424.5 L 254 433.5 L 249.5 442 L 241 443 Q 239.6 439 246.5 441 Q 254.2 437 252 424 Z " /><path fill="rgb(7,8,7)" stroke="rgb(7,8,7)" stroke-width="0.6" opacity="1" d="M 227.5 442 L 237.5 442 L 238 444 L 219.5 445 L 214 447.5 L 218 450.5 Q 219.5 454.9 216.5 454 L 209 459.5 L 212.5 462 L 225 463 Q 223.5 468.4 226.5 470 L 239.5 468 L 259.5 457 L 269.5 455 L 268.5 457 L 257.5 460 L 237.5 471 L 224.5 472 L 220.5 464 Q 209.8 465.8 206 460.5 L 210.5 455 L 215 452.5 L 213.5 450 L 211 448.5 L 212.5 445 L 227.5 442 Z " /><path fill="rgb(70,72,70)" stroke="rgb(70,72,70)" stroke-width="0.6" opacity="1" d="M 325.5 205 L 331 209.5 L 327 208.5 L 325.5 205 Z " /><path fill="rgb(70,72,70)" stroke="rgb(70,72,70)" stroke-width="0.6" opacity="1" d="M 291.5 257 L 297 261.5 L 293 260.5 L 291.5 257 Z " /><path fill="rgb(70,72,70)" stroke="rgb(70,72,70)" stroke-width="0.6" opacity="1" d="M 254.5 300 L 261 300.5 L 261.5 303 Q 264.1 302.2 263 305.5 L 262 308.5 L 264 328.5 L 262 328.5 Q 262.9 331.5 258.5 330 L 255.5 331 L 255.5 330 L 258 329.5 L 255 322.5 L 256 319 Q 253 320.3 254 316.5 L 255 313.5 L 253 301.5 L 254.5 300 Z " /><path fill="rgb(70,72,70)" stroke="rgb(70,72,70)" stroke-width="0.6" opacity="1" d="M 262.5 342 L 264 342.5 L 264.5 345 L 266 344.5 L 268 350.5 L 268 358.5 L 263 364.5 L 263 373 Q 266.3 371.7 265 376.5 L 264 382 L 262 382.5 L 262 392 L 264 392.5 L 264 424 Q 260 422.7 262 429 Q 265 427.8 264 431.5 L 264.5 433 Q 261.5 432.2 263 436 L 265 437.5 L 270 447.5 L 268 448.5 L 269 453.5 L 259.5 457 L 257.5 457 L 250.5 462 L 248.5 462 L 245 463 L 244.5 465 L 243 464.5 L 242.5 466 L 241 465.5 Q 241.9 468.5 237.5 467 L 230 470 L 228.5 468 L 226 467 L 225 463.5 L 227 460.5 L 225.5 461 Q 222.2 459.9 223 462.5 L 221.5 462 L 220 460.5 L 219 460.5 Q 219.8 463.1 216.5 462 L 212 460.5 L 213 458.5 L 213.5 456 L 218.5 453 L 220 453.5 Q 221.1 450.2 218.5 451 L 217 448 L 219 447.5 L 216 446.5 L 221.5 445 L 222 447 L 226 447 Q 224.8 444 228.5 445 L 231 444 L 231 446 L 237 446 L 237 444 L 243 444 Q 240.7 450.7 246 449 L 245 443.5 L 246 443.5 L 248 445 L 249.5 442 L 253 440.5 L 252 438.5 Q 255.4 435.7 254 429 Q 257 430.3 256 426.5 L 255 423.5 L 257 416 Q 254 417.3 255 413.5 L 256 412.5 L 256 395 L 258 394.5 L 258 363 Q 253.5 364.8 255 359.5 L 253 353.5 L 256.5 345 L 262.5 342 Z " /><path fill="rgb(241,184,194)" stroke="rgb(241,184,194)" stroke-width="0.6" opacity="1" d="M 167.5 86 Q 173.9 86.7 176 91.5 L 183.5 101 L 185.5 100 L 187 102.5 L 184.5 104 Q 182.3 99.7 180 104.5 L 178.5 106 L 175.5 110 Q 161.4 112.9 155 123.5 L 150.5 133 L 143.5 122 L 140 120.5 L 138 116.5 L 144 104.5 L 155.5 93 L 167.5 86 Z " /><path fill="rgb(241,184,194)" stroke="rgb(241,184,194)" stroke-width="0.6" opacity="1" d="M 187.5 104 L 189 110.5 L 183.5 120 L 181 121.5 L 179.5 124 L 167 133.5 L 159.5 147 L 159 145 L 156 143.5 L 154 134.5 Q 156.6 123.1 165.5 118 L 177.5 113 Q 180.5 107 187 106 L 187.5 104 Z " /><path fill="rgb(241,184,194)" stroke="rgb(241,184,194)" stroke-width="0.6" opacity="1" d="M 249.5 289 Q 256.8 287.8 258 292.5 Q 259.8 298.6 252.5 296 L 248 292.5 L 249.5 289 Z " /><path fill="rgb(241,184,194)" stroke="rgb(241,184,194)" stroke-width="0.6" opacity="1" d="M 267.5 299 L 268.5 301 L 269 299 L 275.5 300 L 280.5 299 L 303 313.5 L 304.5 315 L 304.5 316 L 270 326 L 268.5 324 L 267 322.5 L 267.5 299 Z " /><path fill="rgb(24,27,26)" stroke="rgb(24,27,26)" stroke-width="0.6" opacity="1" d="M 243.5 51 L 248 55.5 L 247 56.5 L 249 59.5 L 246 57.5 L 243.5 54 L 241 52.5 L 243 52.5 L 243.5 51 Z " /><path fill="rgb(24,27,26)" stroke="rgb(24,27,26)" stroke-width="0.6" opacity="1" d="M 178.5 52 L 181 53.5 L 176 57.5 L 175 55.5 L 178.5 52 Z " /><path fill="rgb(24,27,26)" stroke="rgb(24,27,26)" stroke-width="0.6" opacity="1" d="M 180.5 96 Q 187.2 96.3 190 100.5 L 189.5 102 L 189 100 L 181.5 98 L 180.5 96 Z " /><path fill="rgb(24,27,26)" stroke="rgb(24,27,26)" stroke-width="0.6" opacity="1" d="M 160.5 119 L 162 119.5 L 159 121 L 155.5 127 L 156 125.5 L 160.5 119 Z " /><path fill="rgb(24,27,26)" stroke="rgb(24,27,26)" stroke-width="0.6" opacity="1" d="M 176.5 129 L 174.5 132 L 171 134.5 L 169.5 137 L 169.5 135 L 168 134.5 L 172.5 130 L 173.5 131 L 176.5 129 Z " /><path fill="rgb(24,27,26)" stroke="rgb(24,27,26)" stroke-width="0.6" opacity="1" d="M 212.5 137 L 214 139.5 L 210.5 144 L 209.5 142 L 208 142.5 L 212.5 137 Z " /><path fill="rgb(24,27,26)" stroke="rgb(24,27,26)" stroke-width="0.6" opacity="1" d="M 240.5 137 L 241.5 139 L 244 137.5 L 240.5 142 L 239.5 140 L 237 141.5 L 240.5 137 Z " /><path fill="rgb(24,27,26)" stroke="rgb(24,27,26)" stroke-width="0.6" opacity="1" d="M 201.5 153 L 190.5 165 L 201.5 153 Z " /><path fill="rgb(24,27,26)" stroke="rgb(24,27,26)" stroke-width="0.6" opacity="1" d="M 223.5 158 L 223.5 160 L 225 160.5 L 220.5 166 L 220.5 164 L 212 171.5 L 213.5 172 L 217 169.5 L 212.5 174 L 211.5 173 L 210 172.5 L 223.5 158 Z " /><path fill="rgb(24,27,26)" stroke="rgb(24,27,26)" stroke-width="0.6" opacity="1" d="M 182.5 170 L 183 172.5 L 180.5 176 L 179.5 174 L 177 175.5 L 182.5 170 Z " /><path fill="rgb(24,27,26)" stroke="rgb(24,27,26)" stroke-width="0.6" opacity="1" d="M 220.5 188 L 221.5 190 L 223 189.5 L 217 194.5 L 216.5 196 L 215 193.5 L 220.5 188 Z " /><path fill="rgb(24,27,26)" stroke="rgb(24,27,26)" stroke-width="0.6" opacity="1" d="M 338.5 195 L 339 197.5 L 341 200.5 L 336 196.5 L 338.5 195 Z " /><path fill="rgb(24,27,26)" stroke="rgb(24,27,26)" stroke-width="0.6" opacity="1" d="M 233 202 L 235 202.5 Q 228.2 207.1 228 217 Q 225 218.3 226 214.5 L 233 202 Z " /><path fill="rgb(24,27,26)" stroke="rgb(24,27,26)" stroke-width="0.6" opacity="1" d="M 192.5 218 L 194.5 221 L 193 221.5 L 194.5 224 L 190.5 219 L 192 219.5 L 192.5 218 Z " /><path fill="rgb(24,27,26)" stroke="rgb(24,27,26)" stroke-width="0.6" opacity="1" d="M 225 219 Q 228.5 217.9 227 225.5 L 232 237.5 L 230 238.5 L 230.5 237 L 229 236.5 L 229.5 235 L 228 233.5 Q 224.2 228.1 225 219 Z " /><path fill="rgb(24,27,26)" stroke="rgb(24,27,26)" stroke-width="0.6" opacity="1" d="M 351.5 232 Q 357.8 237.5 359 247 Q 356 248.3 357 244.5 L 351.5 232 Z " /><path fill="rgb(24,27,26)" stroke="rgb(24,27,26)" stroke-width="0.6" opacity="1" d="M 171.5 253 L 176.5 259 L 174.5 260 L 170 255.5 L 171 254.5 L 171.5 253 Z " /><path fill="rgb(24,27,26)" stroke="rgb(24,27,26)" stroke-width="0.6" opacity="1" d="M 319.5 259 L 321 264.5 L 318 265.5 L 318.5 267 L 316.5 268 L 316 266.5 Q 320 265 319.5 259 Z " /><path fill="rgb(24,27,26)" stroke="rgb(24,27,26)" stroke-width="0.6" opacity="1" d="M 299.5 263 L 309 266 L 308.5 268 L 298 264.5 L 299.5 263 Z " /><path fill="rgb(24,27,26)" stroke="rgb(24,27,26)" stroke-width="0.6" opacity="1" d="M 342.5 277 L 348.5 284 L 342.5 277 Z " /><path fill="rgb(24,27,26)" stroke="rgb(24,27,26)" stroke-width="0.6" opacity="1" d="M 243.5 292 L 246 293.5 L 246.5 292 L 249.5 296 L 247.5 295 L 246.5 296 L 243.5 292 Z " /><path fill="rgb(24,27,26)" stroke="rgb(24,27,26)" stroke-width="0.6" opacity="1" d="M 253.5 396 L 256 397 L 255.5 407 L 255 401 Q 250.9 402.2 253.5 396 Z " /><path fill="rgb(24,27,26)" stroke="rgb(24,27,26)" stroke-width="0.6" opacity="1" d="M 270.5 452 L 271.5 454 L 272.5 452 L 273 453.5 L 269 456.5 L 269.5 455 L 268 454.5 L 270.5 452 Z " /><path fill="rgb(220,126,151)" stroke="rgb(220,126,151)" stroke-width="0.6" opacity="1" d="M 198.5 74 Q 205.8 74.3 208 79.5 L 204.5 79 L 199 78.5 L 200 76.5 L 198.5 74 Z " /><path fill="rgb(220,126,151)" stroke="rgb(220,126,151)" stroke-width="0.6" opacity="1" d="M 190.5 81 L 191 84 Q 194.8 82.5 194 85.5 L 192.5 90 L 191 89.5 L 192.5 93 L 193.5 91 L 195 93.5 L 193 94.5 L 193.5 96 Q 189 93 189 85.5 L 190.5 81 Z " /><path fill="rgb(220,126,151)" stroke="rgb(220,126,151)" stroke-width="0.6" opacity="1" d="M 188.5 93 L 191 96.5 L 189 97.5 L 191.5 101 Q 190.1 96.3 185 97 L 186.5 94 L 188.5 93 Z " /><path fill="rgb(220,126,151)" stroke="rgb(220,126,151)" stroke-width="0.6" opacity="1" d="M 267.5 173 L 280.5 173 L 283 174.5 L 280.5 175 L 272.5 174 L 270.5 175 L 268.5 174 L 265.5 175 L 265.5 174 L 267.5 173 Z " /><path fill="rgb(220,126,151)" stroke="rgb(220,126,151)" stroke-width="0.6" opacity="1" d="M 325.5 203 L 330.5 209 L 325.5 203 Z " /><path fill="rgb(220,126,151)" stroke="rgb(220,126,151)" stroke-width="0.6" opacity="1" d="M 348.5 212 L 351 216.5 L 346.5 218 L 346.5 217 L 350 216.5 L 348.5 212 Z " /><path fill="rgb(220,126,151)" stroke="rgb(220,126,151)" stroke-width="0.6" opacity="1" d="M 304.5 234 Q 308.3 237.3 307 245.5 L 306 245.5 Q 306.8 237.3 304.5 234 Z " /><path fill="rgb(220,126,151)" stroke="rgb(220,126,151)" stroke-width="0.6" opacity="1" d="M 234.5 246 L 240.5 253 L 234.5 246 Z " /><path fill="rgb(220,126,151)" stroke="rgb(220,126,151)" stroke-width="0.6" opacity="1" d="M 287.5 253 L 292.5 254 L 294.5 253 L 294 254.5 L 295 258 L 297 259.5 L 300 261.5 L 298.5 262 L 289.5 255 L 288 255.5 L 287.5 253 Z " /><path fill="rgb(220,126,151)" stroke="rgb(220,126,151)" stroke-width="0.6" opacity="1" d="M 323.5 260 L 326 261.5 L 325 264 L 319.5 268 L 322 264.5 L 322.5 262 L 324 262.5 L 323.5 260 Z " /><path fill="rgb(220,126,151)" stroke="rgb(220,126,151)" stroke-width="0.6" opacity="1" d="M 203.5 267 L 214 268.5 L 202.5 269 L 203.5 267 Z " /><path fill="rgb(220,126,151)" stroke="rgb(220,126,151)" stroke-width="0.6" opacity="1" d="M 330 268 Q 334.7 267 336 270.5 L 333.5 269 L 331 269.5 L 334 275 L 323 274.5 L 333 273.5 L 331 272.5 Q 333.5 271 330 269.5 L 330 268 Z " /><path fill="rgb(220,126,151)" stroke="rgb(220,126,151)" stroke-width="0.6" opacity="1" d="M 313.5 269 L 316 270.5 L 317.5 273 L 319 273.5 L 317.5 274 L 313 271.5 L 313.5 269 Z " /><path fill="rgb(220,126,151)" stroke="rgb(220,126,151)" stroke-width="0.6" opacity="1" d="M 240.5 351 L 240 352.5 L 239.5 363 L 239 352.5 L 240.5 351 Z " /><path fill="rgb(220,126,151)" stroke="rgb(220,126,151)" stroke-width="0.6" opacity="1" d="M 226.5 361 L 227 366.5 L 226 373.5 L 227 378.5 L 226 378.5 L 225 367.5 L 226.5 361 Z " /><path fill="rgb(220,126,151)" stroke="rgb(220,126,151)" stroke-width="0.6" opacity="1" d="M 232.5 364 Q 235.3 365.3 234 370.5 L 233 370.5 Q 234.7 364.6 231 366 L 230.5 372 L 230 366.5 L 232.5 364 Z " /><path fill="rgb(220,126,151)" stroke="rgb(220,126,151)" stroke-width="0.6" opacity="1" d="M 242.5 376 L 243 383.5 L 239.5 385 L 238.5 383 L 242 382 L 242.5 376 Z " /><path fill="rgb(48,51,50)" stroke="rgb(48,51,50)" stroke-width="0.6" opacity="1" d="M 203.5 72 L 208 75.5 L 207.5 78 L 203.5 72 Z " /><path fill="rgb(48,51,50)" stroke="rgb(48,51,50)" stroke-width="0.6" opacity="1" d="M 167.5 114 L 170 114.5 L 161.5 119 L 162.5 117 L 167.5 114 Z " /><path fill="rgb(48,51,50)" stroke="rgb(48,51,50)" stroke-width="0.6" opacity="1" d="M 155.5 125 Q 158.8 126.8 155 128.5 L 154 134 L 152 132.5 L 156 126.5 L 155.5 125 Z " /><path fill="rgb(48,51,50)" stroke="rgb(48,51,50)" stroke-width="0.6" opacity="1" d="M 333.5 212 L 336 213 L 336.5 215 L 338.5 215 L 345 218.5 L 344.5 220 L 342 219 L 341.5 217 L 339.5 217 L 333.5 212 Z " /><path fill="rgb(48,51,50)" stroke="rgb(48,51,50)" stroke-width="0.6" opacity="1" d="M 303.5 230 L 313 232 L 311.5 234 L 304.5 232 L 303.5 230 Z " /><path fill="rgb(48,51,50)" stroke="rgb(48,51,50)" stroke-width="0.6" opacity="1" d="M 357.5 249 L 359 250.5 Q 358.3 253.8 353.5 253 L 352 250.5 L 353.5 251 L 357.5 249 Z " /><path fill="rgb(96,91,92)" stroke="rgb(96,91,92)" stroke-width="0.6" opacity="1" d="M 196.5 154 L 191.5 160 L 196.5 154 Z " /><path fill="rgb(96,91,92)" stroke="rgb(96,91,92)" stroke-width="0.6" opacity="1" d="M 312.5 209 L 317.5 215 L 312.5 209 Z " /><path fill="rgb(96,91,92)" stroke="rgb(96,91,92)" stroke-width="0.6" opacity="1" d="M 256 363 L 258 363.5 L 258 389 L 256 388.5 L 256 363 Z " /><path fill="rgb(96,91,92)" stroke="rgb(96,91,92)" stroke-width="0.6" opacity="1" d="M 253.5 365 L 254 382.5 L 253 382.5 L 253.5 365 Z " /><path fill="rgb(96,91,92)" stroke="rgb(96,91,92)" stroke-width="0.6" opacity="1" d="M 262 382 L 264 382.5 L 264 392 L 262 391.5 L 262 382 Z " /><path fill="rgb(96,91,92)" stroke="rgb(96,91,92)" stroke-width="0.6" opacity="1" d="M 266.5 400 L 267 415.5 L 266 415.5 L 266.5 400 Z " /><path fill="rgb(124,111,114)" stroke="rgb(124,111,114)" stroke-width="0.6" opacity="1" d="M 311.5 314 L 313.5 315 L 315 314.5 L 313.5 316 L 309 319.5 L 312 315.5 L 311.5 314 Z " /><path fill="rgb(190,127,148)" stroke="rgb(190,127,148)" stroke-width="0.6" opacity="1" d="M 321.5 200 L 324.5 206 L 320 201.5 L 321.5 200 Z " /><path fill="rgb(190,127,148)" stroke="rgb(190,127,148)" stroke-width="0.6" opacity="1" d="M 346.5 226 L 352.5 233 L 346.5 226 Z " /><path fill="rgb(165,118,131)" stroke="rgb(165,118,131)" stroke-width="0.6" opacity="1" d="M 201.5 154 L 190.5 166 L 201.5 154 Z " /><path fill="rgb(165,118,131)" stroke="rgb(165,118,131)" stroke-width="0.6" opacity="1" d="M 335.5 196 L 340.5 202 L 335.5 196 Z " /><path fill="rgb(165,118,131)" stroke="rgb(165,118,131)" stroke-width="0.6" opacity="1" d="M 358.5 225 L 363.5 231 L 358.5 225 Z " /><path fill="rgb(211,211,211)" stroke="rgb(211,211,211)" stroke-width="0.6" opacity="1" d="M 252.5 390 L 253 400.5 L 252 400.5 L 252.5 390 Z " /><path fill="rgb(225,176,184)" stroke="rgb(225,176,184)" stroke-width="0.6" opacity="1" d="M 153.5 94 L 146.5 102 L 153.5 94 Z " /><path fill="rgb(225,176,184)" stroke="rgb(225,176,184)" stroke-width="0.6" opacity="1" d="M 187.5 101 L 189 105.5 L 188 105.5 L 187.5 104 L 187 106 L 184.5 107 L 185 105.5 L 187.5 101 Z " /><path fill="rgb(225,176,184)" stroke="rgb(225,176,184)" stroke-width="0.6" opacity="1" d="M 182.5 102 L 183.5 104 Q 180.2 102.9 181 105.5 L 177 108.5 L 178.5 106 L 180 104.5 L 182.5 102 Z " /><path fill="rgb(225,176,184)" stroke="rgb(225,176,184)" stroke-width="0.6" opacity="1" d="M 187.5 115 L 187 116.5 L 181.5 123 L 181 121.5 L 185 118.5 L 187.5 115 Z " /><path fill="rgb(225,176,184)" stroke="rgb(225,176,184)" stroke-width="0.6" opacity="1" d="M 172.5 128 L 167.5 134 L 172.5 128 Z " /><path fill="rgb(225,176,184)" stroke="rgb(225,176,184)" stroke-width="0.6" opacity="1" d="M 246.5 288 L 254 288.5 L 248 290.5 L 247.5 292 Q 243 290 246.5 288 Z " /><path fill="rgb(225,176,184)" stroke="rgb(225,176,184)" stroke-width="0.6" opacity="1" d="M 258.5 292 L 262 294 L 260.5 297 L 253 296.5 L 258 296 L 258.5 292 Z " /><path fill="rgb(225,176,184)" stroke="rgb(225,176,184)" stroke-width="0.6" opacity="1" d="M 266 298 L 272 298.5 L 269 299 L 268.5 301 L 267.5 299 L 266.5 315 L 266 298 Z " /></svg>