<svg width="627" height="627" preserveAspectRatio="xMidYMid meet" viewBox="0 0 512 512" version="1.1" xmlns="http://www.w3.org/2000/svg" ><path fill="rgb(255,255,255)" stroke="rgb(255,255,255)" stroke-width="0.6" opacity="1" d="M 0 0 L 512 0 L 512 512 L 0 512 L 0 0 Z M 413 42 L 407 45 L 399 57 L 392 52 Q 385 51 383 54 Q 376 58 375 67 L 378 76 L 383 79 L 394 78 L 405 94 L 393 102 Q 377 115 371 138 L 369 137 L 367 122 L 364 118 L 362 106 L 356 95 Q 351 87 342 84 L 329 85 L 312 95 Q 300 105 294 120 L 293 121 L 284 94 L 271 78 L 268 71 L 257 60 L 252 59 L 240 51 L 228 48 Q 210 47 201 55 L 185 81 L 181 103 L 182 120 L 157 103 Q 145 97 129 96 Q 108 95 97 103 L 86 117 Q 83 122 84 131 L 82 134 L 82 148 L 86 158 Q 85 167 88 173 Q 94 187 105 198 L 105 200 L 86 196 L 72 197 L 66 201 L 53 202 L 38 211 L 30 221 L 32 224 L 28 234 Q 27 245 31 252 L 47 279 Q 59 291 77 298 L 78 300 L 67 303 L 49 313 Q 35 323 29 342 L 31 348 L 29 353 Q 27 366 33 373 L 47 385 Q 53 390 64 390 Q 69 396 80 398 Q 98 400 110 395 L 104 412 L 105 429 L 107 433 Q 114 441 126 444 L 144 444 L 148 446 Q 168 447 179 438 L 181 439 Q 193 435 202 427 L 212 416 L 232 397 L 235 397 L 243 402 L 254 404 Q 270 405 282 401 L 295 406 L 306 406 L 326 402 Q 326 412 333 416 L 332 437 L 331 438 Q 321 436 317 440 L 312 446 L 313 454 L 317 456 Q 324 457 328 454 Q 337 453 343 457 L 360 470 L 368 469 Q 372 466 371 459 L 379 462 L 387 460 Q 391 456 389 447 Q 399 446 405 449 L 419 457 L 428 456 L 429 454 Q 431 451 437 452 L 445 446 L 447 443 L 446 437 Q 443 431 436 429 L 423 430 Q 413 431 408 428 L 401 416 L 413 400 L 446 377 Q 468 357 474 321 L 474 299 L 470 279 L 461 254 L 447 226 L 443 214 Q 441 205 445 203 L 457 204 Q 461 202 461 196 L 470 190 Q 480 183 484 169 L 484 161 L 477 149 L 476 143 L 476 138 L 479 133 L 477 134 Q 473 132 477 131 L 476 129 L 466 111 Q 456 96 437 91 L 435 89 L 449 81 L 455 84 Q 462 85 465 82 L 469 75 L 468 68 L 460 61 L 452 62 Q 453 56 450 53 L 444 48 L 437 48 L 428 53 L 426 48 Q 424 40 413 42 Z " /><path fill="rgb(61,144,82)" stroke="rgb(61,144,82)" stroke-width="0.6" opacity="1" d="M 215.5 53 Q 242.8 51.7 254 66.5 L 257.5 74 L 258 70.5 L 257.5 69 L 259.5 68 L 266 75.5 L 271.5 92 L 272.5 88 L 274 88.5 L 274.5 87 Q 289.6 105.9 288 141.5 L 285 154.5 L 285 156.5 L 281 168.5 Q 283 172.2 285 170.5 L 281 185.5 L 277 193 L 279 191.5 L 281.5 187 L 282.5 189 L 284 188.5 Q 283.2 201.2 278 209.5 L 278 215 Q 281 213.8 280 217.5 L 278 223.5 L 274 259.5 L 272 264.5 L 273 273.5 L 272 279.5 L 273 281.5 L 272 284.5 L 274 285.5 L 275 282.5 L 274 274.5 L 275 273.5 L 275 259.5 L 283 209.5 L 282 205.5 Q 287.2 194.7 287 178.5 L 286 175.5 L 288 170.5 Q 287.8 151.3 292.5 137 L 295 136.5 L 295 131.5 Q 298.5 132.5 297 125.5 Q 302 109 313.5 99 L 328.5 90 L 337.5 88 Q 348.4 89.6 353 97.5 Q 361.9 108.9 361 129 L 363 127.5 L 364 127.5 L 365 155.5 L 360 176.5 L 352 194.5 L 348.5 198 L 337.5 203 L 315 223.5 Q 297.3 246.8 289 279.5 L 289 281.5 L 286 293.5 L 284 322.5 L 281.5 325 L 279 324 L 277.5 302 Q 274.1 305.6 276 314.5 L 279 327.5 L 271 334.5 L 268.5 338 L 267 336.5 L 264 327.5 L 264 304.5 L 269 268.5 L 269 243.5 L 265 224.5 L 256 208.5 L 253 183.5 L 258 168.5 L 256 168 L 254 176 L 251 174.5 L 247.5 158 L 247 162.5 L 249 169.5 L 246 170.5 L 246.5 174 L 248 173.5 L 248 175.5 L 251 182.5 L 253 201 L 250.5 202 L 248 201 L 246.5 199 L 234.5 189 L 220.5 188 L 216 190 Q 207.9 157.5 190 133.5 L 186 119.5 L 186 112.5 L 187.5 110 L 190.5 115 L 191 111.5 L 188 103.5 L 187 93.5 Q 188.4 79 195.5 70 L 197.5 70 Q 200.1 70.8 199 67.5 L 203.5 58 L 215.5 53 Z M 231 80 L 222 84 Q 214 89 212 101 Q 211 126 222 140 Q 228 148 240 151 L 245 150 L 244 152 L 245 155 L 248 157 L 247 150 L 250 148 Q 258 142 259 130 L 258 109 Q 255 95 247 87 L 238 81 L 231 80 Z M 329 117 L 322 121 L 315 129 L 309 141 L 306 155 Q 306 167 310 175 L 318 180 L 329 177 Q 344 166 347 144 Q 348 129 342 122 Q 339 116 329 117 Z M 314 183 L 307 199 L 308 202 L 314 187 L 314 183 Z M 304 197 L 302 214 L 295 229 L 285 259 Q 284 262 287 261 Q 292 239 301 220 L 310 208 L 309 207 L 306 207 L 307 203 L 306 201 L 305 201 L 304 197 Z M 283 266 L 281 274 L 282 279 L 285 269 Q 286 265 283 266 Z M 279 283 L 278 293 Q 275 294 277 296 Q 275 302 279 301 Q 278 291 281 286 Q 282 282 279 283 Z " /><path fill="rgb(61,144,82)" stroke="rgb(61,144,82)" stroke-width="0.6" opacity="1" d="M 422.5 65 L 425 66.5 L 420 85.5 L 421 89.5 Q 419.5 92.5 418 89.5 L 419 85 Q 415.3 86.3 417 80.5 L 418 78.5 L 417 68.5 L 422.5 65 Z " /><path fill="rgb(61,144,82)" stroke="rgb(61,144,82)" stroke-width="0.6" opacity="1" d="M 421.5 94 L 430.5 94 L 442.5 97 Q 456 102.5 464 113.5 L 462 114 L 461.5 116 L 456.5 115 L 454 116 Q 452.5 119.8 455.5 119 L 459.5 118 L 466.5 122 L 468 121.5 L 470 127.5 L 465.5 130 L 459.5 129 Q 451.3 133.8 452 147.5 L 454 152.5 L 443.5 155 L 437 161.5 L 433.5 168 L 430.5 171 L 426 176.5 L 429 178 Q 431.2 189.6 438.5 197 L 442 198.5 L 441 201 L 435.5 202 L 433.5 201 L 421.5 202 L 404.5 198 Q 390.9 191.6 382 180.5 Q 375.7 173.3 374 161.5 L 374 144.5 Q 378.6 116.6 397.5 103 Q 406.8 95.8 421.5 94 Z M 407 118 L 405 119 L 399 126 L 400 128 Q 404 121 415 121 Q 414 117 407 118 Z M 409 134 L 401 137 L 398 136 L 400 141 L 398 140 L 394 141 L 396 145 L 393 144 L 392 146 L 398 148 L 397 150 L 399 151 L 398 153 L 403 165 L 410 169 Q 421 171 424 166 L 428 158 Q 429 146 424 141 L 417 134 L 409 134 Z " /><path fill="rgb(61,144,82)" stroke="rgb(61,144,82)" stroke-width="0.6" opacity="1" d="M 139.5 130 L 140 132 Q 153.9 134.2 160 145.5 L 169 163.5 L 170 177.5 L 169 183.5 L 164.5 189 L 156.5 193 Q 135.6 189.4 126 174.5 Q 119.8 167.7 118.5 156 L 117 156.5 L 118 148.5 L 117.5 147 L 119 147.5 Q 119.6 137.6 126.5 134 L 139.5 130 Z M 140 147 L 138 148 L 131 156 L 131 167 L 136 177 Q 141 183 151 186 L 160 184 Q 164 181 165 174 Q 165 160 158 154 Q 153 146 140 147 Z " /><path fill="rgb(61,144,82)" stroke="rgb(61,144,82)" stroke-width="0.6" opacity="1" d="M 459.5 132 L 462.5 133 L 464.5 132 L 469 135.5 Q 473.2 140.3 472 150.5 L 471 154 L 468 154 L 468 146.5 L 463.5 139 L 459.5 138 Q 457.2 142.3 455 137.5 L 459.5 132 Z " /><path fill="rgb(61,144,82)" stroke="rgb(61,144,82)" stroke-width="0.6" opacity="1" d="M 327 135 L 331.5 137 Q 335.9 139.1 335 145 L 337 145.5 L 336 149.5 L 336.5 151 Q 333.5 150.1 335 154.5 L 334.5 156 L 336 156.5 L 334 157 L 332.5 162 L 330.5 161 L 329 161.5 L 330 152.5 L 324.5 148 L 319 151.5 L 315.5 161 Q 312.3 159.3 314 152.5 Q 316.4 142.4 323.5 137 Q 328.3 138.3 327 135 Z " /><path fill="rgb(61,144,82)" stroke="rgb(61,144,82)" stroke-width="0.6" opacity="1" d="M 351.5 221 L 356.5 222 L 359.5 221 L 364 224.5 L 366 234.5 Q 362.8 248.3 353.5 256 L 350.5 258 L 349 255.5 Q 358 250.5 357 235.5 Q 355.1 229.9 346.5 231 L 342 233 L 340.5 235 L 333 244.5 L 332 254.5 Q 333.8 260.8 343.5 259 L 346.5 257 L 348 259.5 Q 343.9 264.4 333.5 263 L 330 260.5 L 329 247.5 Q 333.9 231.4 346.5 223 L 351.5 221 Z " /><path fill="rgb(61,144,82)" stroke="rgb(61,144,82)" stroke-width="0.6" opacity="1" d="M 91.5 239 Q 105.3 238.2 111 245.5 L 109.5 248 L 99.5 247 Q 94 248 95 255.5 L 99.5 262 L 107 265 L 108 267.5 L 99.5 268 Q 90.9 266.1 86 260.5 Q 80.7 256.8 82 246.5 L 86.5 241 L 91.5 239 Z " /><path fill="rgb(61,144,82)" stroke="rgb(61,144,82)" stroke-width="0.6" opacity="1" d="M 85.5 303 L 115.5 304 L 130.5 307 L 134.5 310 L 144.5 313 L 146 312.5 L 148 314 Q 146.3 309.9 150.5 311 L 165 317 L 166.5 319 L 170 320 L 170.5 318 L 200.5 332 L 208.5 338 L 238.5 354 L 250 357.5 L 249.5 359 L 251 359.5 L 247.5 363 L 240.5 364 L 240 362 L 209.5 357 L 207.5 357 L 185.5 356 L 184.5 357 L 171.5 357 L 151.5 362 Q 130.6 369.1 118 384.5 L 115.5 388 Q 107.6 392.6 95.5 393 L 94 392.5 L 93.5 394 L 88.5 393 L 85.5 394 L 86 392.5 L 84.5 391 L 82.5 390 L 75.5 391 L 75.5 387 Q 47.7 387.3 37 370.5 Q 31.8 365.2 33 353.5 L 37 345.5 L 34 345 L 35 339.5 Q 32.5 338 36 336.5 L 38 332.5 Q 35.5 331 39 329.5 L 47.5 319 Q 61.7 306.2 85.5 303 Z M 88 323 Q 76 324 69 330 Q 58 335 58 351 L 58 353 L 62 361 Q 67 367 77 369 L 100 368 L 113 362 Q 123 357 124 343 Q 120 341 123 340 L 120 334 L 108 325 Q 100 322 88 323 Z M 148 337 L 148 339 L 148 341 L 134 341 L 135 343 L 149 343 L 150 343 L 149 346 L 157 344 L 180 345 L 213 353 L 214 351 L 187 344 L 156 341 L 152 339 L 150 337 L 148 337 Z M 215 352 L 215 354 L 227 357 L 229 357 L 215 352 Z " /><path fill="rgb(61,144,82)" stroke="rgb(61,144,82)" stroke-width="0.6" opacity="1" d="M 164.5 383 Q 178.5 381 183 388.5 L 184 396.5 Q 181.2 405.7 174.5 411 Q 165.7 420.7 147.5 421 L 139 417.5 L 137.5 416 L 135 415.5 L 136 412.5 L 134 406.5 L 136 406 L 140.5 397 L 143 395.5 L 146.5 391 L 164.5 383 Z M 164 387 L 156 391 L 148 401 L 148 407 L 157 413 Q 166 413 171 409 L 179 399 L 178 391 L 174 387 L 167 388 L 164 387 Z " /><path fill="rgb(61,144,82)" stroke="rgb(61,144,82)" stroke-width="0.6" opacity="1" d="M 404.5 399 L 408 401.5 L 402.5 408 L 393.5 412 L 389.5 411 L 386.5 412 L 381 408.5 L 380 406.5 L 380.5 404 Q 395 404 404.5 399 Z " /><path fill="rgb(61,144,82)" stroke="rgb(61,144,82)" stroke-width="0.6" opacity="1" d="M 339.5 417 L 348 419.5 L 347 429.5 L 350 439 L 360 442.5 L 359.5 444 L 374.5 446 Q 381.9 447.1 385 452.5 Q 385.8 457.3 382.5 458 L 367.5 454 Q 361.4 447.6 350.5 446 L 351.5 448 Q 361.1 450.4 366 457.5 L 367 463.5 Q 366 467 360.5 466 L 339.5 451 L 327.5 450 L 321.5 452 L 315 449.5 L 319.5 443 L 329.5 442 L 335 438.5 Q 339 432 337 419.5 L 339.5 417 Z " /><path fill="rgb(52,117,184)" stroke="rgb(52,117,184)" stroke-width="0.6" opacity="1" d="M 455.5 65 Q 461.9 64.6 464 68.5 L 465 74.5 L 460.5 80 Q 453.3 81.3 451 77.5 L 448 71.5 L 452.5 66 L 455.5 65 Z " /><path fill="rgb(52,117,184)" stroke="rgb(52,117,184)" stroke-width="0.6" opacity="1" d="M 436.5 71 L 442 72 L 440 77.5 L 431.5 87 L 430 83.5 L 436.5 71 Z " /><path fill="rgb(52,117,184)" stroke="rgb(52,117,184)" stroke-width="0.6" opacity="1" d="M 409.5 137 L 416.5 137 L 423 142.5 Q 427.1 147.9 426 158.5 L 422.5 165 Q 418.2 163.3 421 161.5 Q 422.7 148.3 414.5 145 Q 405.5 143.5 404 149.5 L 402.5 154 L 401.5 152 L 400 152.5 Q 400.8 142.3 407.5 138 L 409.5 137 Z " /><path fill="rgb(52,117,184)" stroke="rgb(52,117,184)" stroke-width="0.6" opacity="1" d="M 139.5 149 L 150.5 150 L 159 158.5 L 163 170 L 160 168.5 L 153.5 161 Q 144.8 159.3 143 164.5 Q 141.3 177.2 149 180.5 L 147.5 183 L 137 174.5 Q 131.3 169.2 133 156.5 L 137.5 150 L 139.5 149 Z " /><path fill="rgb(52,117,184)" stroke="rgb(52,117,184)" stroke-width="0.6" opacity="1" d="M 450.5 181 L 455 182.5 L 456 184.5 Q 453.2 186.2 454 191.5 L 455 194.5 L 451.5 196 L 444 189.5 L 440 183.5 L 444.5 182 L 448 184.5 Q 446.9 181.2 449.5 182 L 450.5 181 Z " /><path fill="rgb(52,117,184)" stroke="rgb(52,117,184)" stroke-width="0.6" opacity="1" d="M 77 200 Q 118.9 201.8 139 226.5 L 143.5 233 L 144 230.5 L 139 224.5 L 142.5 223 L 166 243.5 L 176 257.5 L 177 262 L 179 260.5 L 176 255.5 L 178.5 255 L 185 261.5 L 201 283.5 L 225 324.5 L 239.5 342 L 244 345.5 L 242.5 348 L 231.5 340 L 192.5 303 Q 180.4 290.6 163.5 283 L 157 276.5 L 155.5 273 L 153 277.5 L 152.5 280 L 139.5 280 L 139 282 Q 152.3 280.5 161.5 284 L 175.5 292 Q 203.1 312.9 226.5 338 L 247.5 352 L 249 351.5 L 250 353.5 L 249.5 356 L 228.5 347 Q 200.4 327.1 166.5 313 L 134.5 304 L 125.5 304 L 102.5 299 L 88 298.5 L 90 295 Q 62.9 291.4 49 273.5 L 50.5 271 L 53.5 272 L 52.5 270 L 43 262.5 L 35 249.5 L 33 242.5 L 33 231.5 L 37.5 223 Q 41.3 224 40 221 L 37 219.5 L 44.5 211 Q 54.8 202.3 76.5 205 L 86.5 208 L 86.5 207 L 75 202.5 L 77 202 L 77 200 Z M 80 225 L 72 228 L 62 240 L 62 251 L 68 262 Q 79 275 101 278 Q 118 279 125 269 L 125 266 Q 120 275 107 276 Q 87 275 76 266 Q 66 259 63 246 L 66 236 Q 71 229 80 227 L 96 228 L 112 236 L 124 251 L 126 266 L 128 262 Q 128 249 121 243 Q 109 225 80 225 Z M 91 237 L 85 240 L 80 247 Q 79 255 82 259 Q 88 267 100 270 Q 110 272 115 267 L 119 262 Q 121 249 114 246 Q 107 236 91 237 Z M 132 266 L 133 268 L 141 272 L 143 272 L 132 266 Z M 146 273 L 151 277 L 153 277 L 146 273 Z " /><path fill="rgb(52,117,184)" stroke="rgb(52,117,184)" stroke-width="0.6" opacity="1" d="M 368.5 271 Q 395.8 267.8 406 281.5 Q 412.9 289.6 411 306.5 Q 407 332 390.5 345 Q 387 349 378.5 348 L 376 343.5 L 384 333.5 L 379.5 337 L 361.5 348 L 351.5 349 L 346 345.5 L 346 340.5 L 353 331.5 L 351.5 331 Q 342.2 344.2 319.5 344 L 315 340.5 L 314 334.5 L 319.5 326 L 330 323 L 328.5 321 Q 324.8 324.3 316.5 323 L 313 320.5 L 312 315.5 L 317 307.5 L 315.5 307 L 309.5 312 L 298 314 Q 299.4 306.7 305.5 303 Q 329.3 279.3 368.5 271 Z " /><path fill="rgb(52,117,184)" stroke="rgb(52,117,184)" stroke-width="0.6" opacity="1" d="M 309.5 313 Q 308.3 322.7 314.5 325 Q 317.8 323.9 317 326.5 L 309.5 336 L 307 337.5 L 308.5 338 L 312 337 L 314.5 344 L 317.5 346 L 329.5 347 L 343 342 Q 342.6 347.7 346.5 350 L 360.5 351 L 374 345 L 376.5 350 L 383.5 351 L 389.5 348 L 391 350.5 L 374.5 369 Q 357.6 384.6 334.5 394 L 309.5 401 L 292 401 L 293.5 397 Q 327.4 385.4 350 362.5 L 348.5 362 Q 327.2 381.7 297.5 393 L 271.5 399 L 250.5 399 L 241.5 397 L 237 393.5 Q 237.3 386.2 242.5 384 L 249.5 380 L 253.5 380 L 254.5 381 L 273.5 381 Q 304.2 374.7 323 356.5 L 321.5 356 Q 306.6 368.1 286.5 375 L 273.5 378 L 254.5 378 L 247 373.5 L 248 367.5 L 257.5 358 L 266.5 353 Q 269.1 356.4 276.5 355 Q 294.5 350.5 306 339.5 L 304.5 339 L 281.5 351 L 269.5 352 L 267 347.5 L 281.5 329 L 296.5 317 Q 304.8 316.8 309.5 313 Z " /><path fill="rgb(52,117,184)" stroke="rgb(52,117,184)" stroke-width="0.6" opacity="1" d="M 90.5 333 L 104 333.5 L 103.5 336 Q 93.4 334.9 91 341.5 Q 89.5 349.5 94.5 351 L 105.5 352 L 108.5 350 Q 110.5 352.5 106.5 355 Q 100.7 359.7 88.5 358 Q 81.3 356.2 78 350.5 L 77 345.5 L 83.5 336 L 90.5 333 Z " /><path fill="rgb(52,117,184)" stroke="rgb(52,117,184)" stroke-width="0.6" opacity="1" d="M 389.5 415 Q 397.4 413.2 397 416.5 Q 399.1 426.9 406.5 432 L 413.5 433 L 416 435.5 L 411.5 438 L 407 437 Q 405.8 440 409.5 439 L 424 445.5 L 426 451.5 L 421.5 454 L 402.5 444 L 390.5 442 L 385.5 443 L 380 440 L 379 437.5 L 386.5 435 L 389.5 436 Q 393.5 434.5 392 427.5 L 388 417.5 L 390 416.5 L 389.5 415 Z " /><path fill="rgb(226,58,54)" stroke="rgb(226,58,54)" stroke-width="0.6" opacity="1" d="M 385.5 57 Q 393.3 55.2 395 59.5 L 396 65.5 L 391.5 73 L 384.5 75 L 381 72.5 L 380 63.5 L 385.5 57 Z " /><path fill="rgb(226,58,54)" stroke="rgb(226,58,54)" stroke-width="0.6" opacity="1" d="M 399.5 69 L 405 74.5 L 409 89.5 L 407 90.5 L 396 73.5 L 399.5 69 Z " /><path fill="rgb(226,58,54)" stroke="rgb(226,58,54)" stroke-width="0.6" opacity="1" d="M 227.5 83 L 238.5 84 L 249 93.5 Q 258.1 105.9 257 128.5 Q 255.3 141.8 246.5 148 L 239.5 149 Q 229.3 146.3 224 138.5 Q 212.7 126.3 214 101.5 Q 215.7 90.2 223.5 85 L 227.5 83 Z M 232 100 L 230 101 Q 224 104 222 112 Q 220 126 226 134 L 236 142 L 246 141 Q 252 137 253 129 Q 254 116 249 109 L 242 101 L 232 100 Z " /><path fill="rgb(226,58,54)" stroke="rgb(226,58,54)" stroke-width="0.6" opacity="1" d="M 233.5 102 Q 242.6 102.4 246 108.5 Q 251.1 114.8 250 126 L 248 124.5 L 241.5 116 Q 233.5 114.5 232 119.5 L 231 129.5 L 234 135.5 Q 231.5 139.5 229 133.5 Q 224.1 126.9 224 115.5 Q 224.7 107.7 229.5 104 L 233.5 102 Z " /><path fill="rgb(226,58,54)" stroke="rgb(226,58,54)" stroke-width="0.6" opacity="1" d="M 473 152 L 477 153.5 Q 481.2 158.3 480 168.5 Q 476.9 178.9 469.5 185 L 461.5 191 L 460 189.5 L 459 181.5 L 463.5 180 L 468.5 182 Q 471.8 181.3 471 176.5 L 464 160 L 471 156.5 L 473 152 Z " /><path fill="rgb(226,58,54)" stroke="rgb(226,58,54)" stroke-width="0.6" opacity="1" d="M 433.5 178 L 448 196.5 L 444.5 197 Q 435.4 191.1 432 179.5 L 433.5 178 Z " /><path fill="rgb(226,58,54)" stroke="rgb(226,58,54)" stroke-width="0.6" opacity="1" d="M 222.5 191 L 232.5 192 L 246 202.5 L 248.5 206 L 252 207.5 Q 268.1 227.9 266 266.5 L 263 286.5 L 264 289.5 L 262 297.5 L 261 321.5 L 266 341.5 L 260.5 352 L 252.5 350 L 236 334.5 Q 221.4 317.1 212 294.5 L 214 293.5 L 224.5 309 L 225 306.5 Q 202.6 279.6 198 236 Q 201 234.8 200 238.5 L 201 241 L 203 239.5 Q 198.7 230.8 200 216.5 L 202.5 212 Q 205.1 212.8 204 209.5 Q 206.1 200.1 212.5 195 L 222.5 191 Z M 229 214 L 226 215 Q 219 219 217 228 L 217 242 L 225 261 L 236 268 L 241 267 Q 248 262 249 252 Q 250 232 242 222 Q 238 215 229 214 Z M 238 270 L 241 292 L 240 297 L 238 295 L 233 291 L 243 307 Q 245 327 254 342 L 256 343 Q 247 325 244 302 L 249 282 Q 250 278 247 279 L 245 285 Q 247 290 242 288 L 240 272 L 238 270 Z " /><path fill="rgb(226,58,54)" stroke="rgb(226,58,54)" stroke-width="0.6" opacity="1" d="M 363.5 198 Q 375.1 198.4 380 205.5 Q 385.2 212.3 384 225.5 L 380 238 L 382 236.5 L 384 237.5 Q 379.5 257 366.5 268 Q 335.3 273.3 315.5 290 L 315 287.5 L 330.5 264 L 341.5 265 Q 354.5 261 361 250.5 Q 367.8 243.3 368 229.5 L 362.5 220 L 351.5 219 Q 340.2 223.2 334 232.5 Q 325.7 240.7 327 258.5 L 329 263.5 L 319 278 Q 315.5 279.1 317 271.5 L 318 265 Q 314 263.6 316 270.5 L 314 284.5 L 311.5 290 L 309 289.5 L 309 280.5 L 307 280 L 307 295.5 L 287.5 320 Q 284.1 320.9 286 315.5 L 289 292.5 L 296 266.5 L 307 241.5 L 320 222 L 325 224 Q 327.1 215.1 334.5 210 Q 345.3 200.3 363.5 198 Z " /><path fill="rgb(226,58,54)" stroke="rgb(226,58,54)" stroke-width="0.6" opacity="1" d="M 406.5 201 Q 418.2 207.5 438 205 L 441 222.5 L 457 255.5 L 466 281.5 L 469 297.5 L 469 320.5 Q 463.3 358.3 438.5 377 Q 416.1 398.1 375.5 401 L 375 398.5 L 379 392 L 357.5 411 Q 351.9 415.4 341.5 415 Q 334.3 413.2 331 407.5 L 330 400.5 Q 359.4 389.4 380 369.5 L 397 348.5 L 410 325.5 L 415 308.5 L 415 294.5 L 412 284.5 L 405 275.5 L 405 273 L 412 267.5 Q 419.2 258.2 418 240.5 L 415 223.5 L 406 203.5 L 406.5 201 Z " /><path fill="rgb(226,58,54)" stroke="rgb(226,58,54)" stroke-width="0.6" opacity="1" d="M 227.5 217 Q 237.9 215.6 240 222.5 Q 247.2 231 246 247 Q 242.5 248.1 244 240.5 L 235.5 229 Q 227.9 227.9 226 232.5 Q 222.2 237.2 224 247.5 Q 226.2 255.8 232.5 260 L 236.5 261 L 243 255.5 L 244 249 Q 248 247.6 246 254.5 L 239.5 265 Q 228.8 265.2 226 257.5 Q 218.6 247.9 219 230.5 Q 219.9 221.9 225.5 218 L 227.5 217 Z " /><path fill="rgb(226,58,54)" stroke="rgb(226,58,54)" stroke-width="0.6" opacity="1" d="M 347.5 233 Q 354 232 355 236.5 Q 356.3 247.3 350.5 251 L 348 250.5 L 349 243.5 Q 348 240 342.5 241 L 337 244 L 340.5 237 L 347.5 233 Z " /><path fill="rgb(226,58,54)" stroke="rgb(226,58,54)" stroke-width="0.6" opacity="1" d="M 369.5 405 Q 374.8 403.8 376 406.5 L 381.5 414 L 384 415.5 L 388 432 Q 378.7 430.4 375 435.5 L 373.5 438 L 357.5 438 L 352 434.5 L 351 425.5 L 352 419.5 L 354.5 417 Q 364.9 413.9 369.5 405 Z " /><path fill="rgb(245,195,53)" stroke="rgb(245,195,53)" stroke-width="0.6" opacity="1" d="M 414.5 46 Q 420.9 46.1 423 50.5 Q 425 62 417.5 64 L 411 65 L 413 68.5 L 415 90.5 L 413 89.5 L 409 73.5 L 405.5 68 L 402 65.5 Q 402.5 54.5 408.5 49 L 414.5 46 Z " /><path fill="rgb(245,195,53)" stroke="rgb(245,195,53)" stroke-width="0.6" opacity="1" d="M 438.5 52 Q 444.9 51.6 447 55.5 L 448 62.5 L 445.5 66 L 437.5 68 L 433.5 65 L 433 67.5 L 428 77.5 L 427 84 Q 423.3 85.3 425 79.5 L 429 65.5 L 429 60.5 L 434.5 54 L 438.5 52 Z " /><path fill="rgb(245,195,53)" stroke="rgb(245,195,53)" stroke-width="0.6" opacity="1" d="M 119.5 101 Q 163.8 102.8 183 129.5 Q 199.6 148.7 203 180 Q 206.5 181.1 205 173.5 L 204 170.5 L 206 169.5 L 213 190.5 L 208 194.5 L 201.5 206 L 200 207.5 L 197 213.5 L 195 228 L 193 226.5 L 188 218.5 L 185 192 L 183 192.5 L 183 201.5 L 184 210.5 L 181 208.5 L 168.5 192 L 168 193.5 L 182 212.5 L 179.5 214 L 168.5 208 L 168 209.5 Q 180.4 214.1 188 223.5 L 195 235.5 L 197 255.5 L 207 282.5 L 204 284 Q 193.6 264.2 177.5 249 L 151.5 225 Q 138.4 214.6 121.5 208 L 110 197.5 Q 98.3 185.7 92 168.5 Q 93.8 165.3 95.5 169 L 97 167.5 L 88 152.5 L 87 142 L 89 143.5 Q 90.5 146.5 92 143.5 Q 86.5 137 89 122.5 L 96.5 109 L 104.5 104 L 119.5 101 Z M 132 129 L 126 132 Q 118 136 116 146 Q 115 157 118 165 L 128 181 Q 136 191 151 194 Q 159 195 164 192 Q 170 188 172 180 Q 173 165 169 157 L 159 141 L 145 130 L 132 129 Z " /><path fill="rgb(245,195,53)" stroke="rgb(245,195,53)" stroke-width="0.6" opacity="1" d="M 329.5 119 Q 338.5 118 341 123.5 Q 345.2 129.8 345 140.5 Q 342.4 163.9 327.5 175 L 318.5 178 L 312 173.5 Q 306.4 165.5 309 149.5 Q 312.1 131.6 323.5 122 L 329.5 119 Z M 326 134 L 322 136 Q 313 143 311 156 L 313 168 L 319 172 L 327 171 Q 336 165 338 153 Q 340 142 335 138 Q 333 133 326 134 Z " /><path fill="rgb(245,195,53)" stroke="rgb(245,195,53)" stroke-width="0.6" opacity="1" d="M 446.5 157 Q 459 155.5 462 163.5 Q 466.5 168 467 176.5 L 464.5 177 L 459.5 176 L 443.5 179 L 433 175 L 444.5 158 L 446.5 157 Z " /><path fill="rgb(245,195,53)" stroke="rgb(245,195,53)" stroke-width="0.6" opacity="1" d="M 368.5 158 L 376 178.5 L 386.5 191 L 398 198.5 Q 413.9 217.1 413 252.5 Q 411.9 263.9 404.5 269 L 396.5 270 L 389.5 267 Q 379.9 268.1 375 264.5 Q 388.4 252.9 389 228.5 L 388 227.5 L 388 212.5 L 386 206.5 L 377.5 197 Q 370.4 191.9 357 194 L 366 171.5 L 368.5 158 Z " /><path fill="rgb(245,195,53)" stroke="rgb(245,195,53)" stroke-width="0.6" opacity="1" d="M 231.5 231 Q 237.1 231.5 239 235.5 L 242 245 L 239 243.5 L 237.5 241 L 233.5 240 L 230 242.5 L 229 249 Q 225.7 250.3 227 245.5 L 226 239.5 L 229.5 232 L 231.5 231 Z " /><path fill="rgb(245,195,53)" stroke="rgb(245,195,53)" stroke-width="0.6" opacity="1" d="M 90.5 325 Q 110.1 324.9 119 335.5 L 122 345.5 Q 119.3 355.3 111.5 360 Q 100.4 368.9 78.5 367 Q 67.2 365.3 62 357.5 Q 58.5 353.5 60 344.5 Q 62.7 335.2 70.5 331 L 82.5 326 L 90.5 325 Z M 94 330 L 83 334 Q 77 337 75 345 L 77 354 Q 82 360 92 361 Q 102 361 108 357 Q 114 353 116 346 L 113 337 Q 107 329 94 330 Z " /><path fill="rgb(245,195,53)" stroke="rgb(245,195,53)" stroke-width="0.6" opacity="1" d="M 177.5 360 L 208.5 360 L 244 365 L 241.5 370 Q 226.5 370.5 215.5 375 L 203.5 375 L 196 374 Q 194.6 378 201.5 376 L 204 377 Q 205.3 380 201.5 379 L 187 386 L 188.5 388 L 205.5 380 Q 209.2 382.2 204 384.5 L 201 390.5 L 204 388.5 L 211.5 380 L 219.5 376 L 240.5 372 L 244 378.5 L 235 385.5 L 230.5 394 L 210 411.5 L 198.5 424 L 193.5 428 L 191.5 424 Q 179.2 438.2 155.5 441 L 154.5 439 L 158 436.5 L 155.5 436 Q 146.9 441.4 131.5 440 Q 116.6 438.4 110 428.5 L 109 411.5 Q 112.6 395.6 124.5 388 L 131 383.5 L 128.5 383 L 126.5 384 Q 122.5 381.5 128.5 379 Q 147.1 363.6 177.5 360 Z M 164 381 L 146 389 Q 137 395 133 406 Q 132 413 135 417 L 145 423 L 156 423 Q 168 420 176 413 L 185 401 L 186 389 Q 181 379 164 381 Z " /><path fill="rgb(245,195,53)" stroke="rgb(245,195,53)" stroke-width="0.6" opacity="1" d="M 161.5 390 L 164 391.5 Q 158.5 393 160 401.5 Q 162 405 168.5 404 L 171.5 402 L 172 404.5 Q 167.8 411.8 154.5 410 L 151 407.5 L 150 401.5 L 157.5 392 L 161.5 390 Z " /><path fill="rgb(245,195,53)" stroke="rgb(245,195,53)" stroke-width="0.6" opacity="1" d="M 427.5 433 Q 438.3 432.3 442 438.5 L 443 442 Q 439.3 443.5 440 440.5 L 435.5 437 L 426.5 436 L 425 434.5 L 427.5 433 Z " /><path fill="rgb(245,195,53)" stroke="rgb(245,195,53)" stroke-width="0.6" opacity="1" d="M 417.5 437 L 431.5 439 L 437 442.5 L 438 445.5 Q 437.3 448.8 432.5 448 L 428 445.5 L 425.5 442 L 416 438.5 L 417.5 437 Z " /><path fill="rgb(10,10,10)" stroke="rgb(10,10,10)" stroke-width="0.6" opacity="1" d="M 413.5 43 Q 422.5 42 425 47.5 L 427 56 L 429 54.5 Q 432.8 48.3 443.5 49 L 450 54.5 L 451 62.5 L 452.5 64 L 455 63 L 453.5 65 L 447 70.5 L 448 72.5 L 440 79.5 L 437.5 83 L 437 81.5 L 446 70 L 438.5 71 L 436.5 70 L 433 73.5 L 428 89.5 Q 430.5 93.5 433 87.5 L 434.5 85 L 435 87.5 L 433 90.5 L 452.5 99 L 465 110.5 L 470 121.5 L 468 120.5 Q 463.8 109.2 454.5 103 Q 444 93 423.5 93 Q 397.6 96.1 386 113.5 L 375 135.5 L 373 158.5 Q 376.1 180.9 391.5 191 L 407 199.5 L 404 200 L 414 224.5 L 417 246.5 L 414 261.5 L 407.5 271 L 402 274.5 L 407 278.5 Q 415.3 287.7 414 306.5 L 410 322.5 L 395 349.5 L 372.5 375 Q 354 390.5 329 399.5 Q 327.7 410.3 334.5 413 L 339 415.5 L 336 417.5 L 336 434.5 L 332.5 440 L 321.5 441 L 316 445.5 L 315 450.5 Q 316.3 454.3 322.5 453 Q 326.5 449.5 335.5 451 Q 350.3 455.2 358.5 466 L 364.5 467 L 368 461.5 Q 366.3 454.7 361 451.5 L 362.5 452 L 376.5 458 L 383.5 458 L 386 453.5 L 381 447.5 L 382.5 448 L 385.5 450 L 388 450.5 Q 389.5 458.5 384.5 460 L 379.5 461 L 370.5 457 L 369 459.5 L 370 464.5 L 367.5 468 L 359.5 469 L 338.5 454 L 326.5 453 Q 323.5 456 316.5 455 Q 311.5 453.5 313 445.5 L 316.5 441 Q 320.8 437.3 330.5 439 L 333 436.5 L 334 415.5 L 329 410.5 L 325.5 400 Q 314.1 405.1 297.5 405 L 289.5 404 L 281.5 400 L 274.5 402 L 247.5 402 Q 237.7 400.8 232.5 395 L 197.5 429 L 188.5 435 Q 185.5 438 178.5 437 L 166.5 443 Q 159.5 446 148.5 445 L 144.5 443 L 126.5 443 Q 114.9 440.1 108 432.5 L 106 428.5 L 105 412.5 Q 106.7 401.2 113 394.5 L 110.5 393 Q 99.3 398.8 80.5 397 L 45.5 383 L 34 372.5 Q 28.6 365.9 30 352.5 L 32 347.5 L 31 344.5 L 33 345.5 L 34 349.5 Q 30.7 353.2 32 361.5 Q 35.7 373.8 45.5 380 Q 53.5 386 66.5 387 L 70.5 391 Q 77.3 390.2 79.5 394 L 98.5 394 L 114.5 390 L 118 386.5 L 128.5 375 Q 143.1 364.3 163 360 Q 164.3 363 160.5 362 Q 133.2 369.2 118 388.5 L 119 391.5 Q 111 398.5 108 410.5 L 108 426.5 L 113.5 434 Q 123.3 442.7 143.5 441 L 147.5 440 L 149.5 442 L 160.5 442 L 183.5 433 L 185.5 434 L 197.5 426 L 225.5 398 L 234 392.5 Q 234.6 383.6 241.5 381 L 246 378.5 L 243 371.5 Q 245.6 362.6 252.5 358 L 265 349.5 Q 264.3 342.3 268 339.5 L 278.5 328 L 291 317.5 L 303.5 301 L 329.5 282 L 351.5 272 L 367.5 269 L 370 266.5 Q 383 254.5 386 232.5 L 384 227.5 L 385 215.5 Q 383.5 205.5 376.5 201 Q 371.4 196.1 360.5 197 L 341.5 204 L 318 223.5 L 303.5 246 L 303 243.5 L 315 224.5 L 330.5 209 L 352 195.5 Q 361 180.5 365 160.5 L 366 134.5 L 364 124 L 361 122.5 Q 360.8 99.2 346.5 90 Q 341.8 86.7 332.5 88 L 324.5 91 L 309 102.5 Q 299.9 110.9 297 125.5 L 293 129.5 L 288 159.5 L 286.5 161 L 285 157.5 Q 290.5 145.5 289 126.5 Q 286.4 99.6 272.5 84 L 269 82.5 Q 266.1 69.9 256.5 64 L 253.5 65 Q 243 51.5 218.5 52 Q 207.7 53.7 201 59.5 L 199 66.5 Q 190.9 72.4 188 83.5 L 187 101.5 L 185 103.5 L 185 116.5 L 188 130.5 L 202 157 L 198 155.5 Q 189.5 130.5 170.5 116 Q 152.2 99.8 117.5 100 Q 100.6 101.1 93 111.5 Q 87.1 118.1 87 130.5 L 88 134.5 L 85 136 Q 84.4 151.9 91 161.5 Q 87.5 163 90 164.5 Q 98.8 192.2 119.5 208 Q 145.1 218.4 163 236.5 L 168.5 243 L 173 246.5 Q 174.1 250.7 170 249 Q 165.4 238.7 155.5 232 L 133.5 216 L 130.5 218 Q 119.1 206.4 100.5 202 Q 87.8 198.5 71 200 Q 69.9 196.3 78.5 198 L 85.5 197 L 105.5 201 L 108.5 203 L 110 201.5 L 102 193.5 Q 93.2 183.3 88 169.5 L 87 157.5 L 83 146.5 L 83 134.5 L 85 131.5 Q 84.1 122.1 87 116.5 L 95.5 105 Q 106.4 96.4 126.5 97 Q 162.6 100.4 181 121.5 L 182.5 124 L 184 121.5 Q 181 114.5 182 103.5 L 187 78.5 L 200.5 56 Q 209.2 48.7 225.5 49 L 243.5 54 L 252.5 61 L 259.5 63 L 266 69.5 L 271.5 80 L 277 84.5 Q 289.2 100.4 291 126 Q 294 127.3 293 123.5 Q 299.4 107.9 310.5 97 L 326.5 87 Q 332.1 84.1 341.5 85 Q 350.2 87.8 355 94.5 L 361 105.5 L 363 117.5 L 366 121.5 L 369 146.5 Q 366.9 175.4 355 194.5 L 357.5 196 L 370.5 195 Q 378.9 197.2 383 203.5 L 387 212.5 L 388 235.5 Q 384.3 255.3 372 266.5 L 373.5 268 L 388.5 268 L 399.5 272 Q 407.4 271 410 264.5 Q 416.9 254.4 414 234.5 Q 410 210.5 396.5 196 L 384 188 L 373 169.5 Q 369.2 159.3 371 143.5 Q 375.5 119 390.5 105 L 406 94.5 Q 401.6 82.9 392.5 76 Q 389.8 78.8 383.5 78 L 378 73.5 L 377 62.5 L 382.5 55 L 390.5 53 L 398 58.5 L 400 60 Q 401 49.7 408.5 45 L 413.5 43 Z M 414 45 L 410 47 Q 403 51 401 61 L 402 68 L 405 69 L 407 72 L 411 85 L 409 86 L 406 74 L 400 67 L 395 74 L 409 94 L 412 93 L 414 93 L 417 91 L 419 92 L 423 90 L 425 91 L 431 75 L 436 68 L 438 69 L 445 68 L 449 63 L 448 56 L 443 51 Q 435 50 433 54 L 428 60 Q 429 66 426 69 Q 427 73 424 72 L 426 65 L 425 62 L 417 68 Q 413 69 415 65 L 421 63 L 425 56 L 424 51 Q 422 45 414 45 Z M 388 55 L 384 57 L 379 64 Q 377 74 384 76 L 391 75 L 397 67 L 396 60 Q 394 55 388 55 Z M 371 270 L 347 276 Q 327 284 313 296 L 297 312 L 297 314 L 298 315 Q 294 314 295 318 L 280 330 L 267 346 Q 266 351 269 353 L 268 352 L 265 352 L 257 358 L 246 370 Q 245 376 250 377 L 251 379 L 242 384 Q 236 386 236 394 L 240 397 L 252 400 Q 280 402 298 393 L 300 394 L 287 400 L 293 402 L 315 401 L 337 394 Q 360 384 377 368 Q 388 358 394 345 L 392 345 Q 408 332 412 307 Q 413 289 406 281 Q 396 267 371 270 Z " /><path fill="rgb(10,10,10)" stroke="rgb(10,10,10)" stroke-width="0.6" opacity="1" d="M 457 62 L 466 66.5 L 468 74.5 L 462.5 82 L 455.5 83 L 447.5 80 L 446 80.5 L 450.5 77 Q 452.1 81.9 459.5 81 L 465 76.5 L 466 71.5 L 462.5 66 L 457 64 L 457 62 Z " /><path fill="rgb(10,10,10)" stroke="rgb(10,10,10)" stroke-width="0.6" opacity="1" d="M 236.5 117 Q 242.3 116.2 244 119.5 L 247 125.5 L 248 137.5 Q 246.7 141.7 240.5 141 L 232 129.5 L 232 122.5 L 236.5 117 Z " /><path fill="rgb(10,10,10)" stroke="rgb(10,10,10)" stroke-width="0.6" opacity="1" d="M 406.5 119 Q 410.3 118 409 121 Q 403.8 121 401.5 125 L 401 123.5 L 406.5 119 Z " /><path fill="rgb(10,10,10)" stroke="rgb(10,10,10)" stroke-width="0.6" opacity="1" d="M 473.5 130 Q 472.9 135.1 476 136.5 L 471 138 L 466 131.5 L 468.5 131 Q 471 135.5 473.5 130 Z " /><path fill="rgb(10,10,10)" stroke="rgb(10,10,10)" stroke-width="0.6" opacity="1" d="M 408.5 135 L 410 137 L 407.5 137 L 402 142.5 L 399.5 148 Q 396.9 148.8 398 145.5 L 399 143.5 L 398 141 L 401 141 Q 399.3 136.9 403.5 138 L 408.5 135 Z " /><path fill="rgb(10,10,10)" stroke="rgb(10,10,10)" stroke-width="0.6" opacity="1" d="M 459.5 139 L 465 141.5 Q 468.5 145.5 467 154.5 Q 462.7 156.7 462.5 163 L 454 157 L 455 153.5 L 453 146.5 L 459.5 139 Z " /><path fill="rgb(10,10,10)" stroke="rgb(10,10,10)" stroke-width="0.6" opacity="1" d="M 408.5 146 Q 417.5 144.5 419 150.5 L 420 161.5 L 415.5 169 Q 408.6 169.9 407 165.5 Q 402.7 161.3 404 151.5 L 408.5 146 Z M 411 148 L 409 153 L 413 155 Q 416 154 415 150 L 411 148 Z " /><path fill="rgb(10,10,10)" stroke="rgb(10,10,10)" stroke-width="0.6" opacity="1" d="M 474.5 146 L 482 157.5 L 483 167.5 Q 480.1 181.1 470.5 188 L 460 195.5 L 455.5 203 Q 449.2 203.8 446.5 201 L 442 203.5 L 442 214.5 L 444 221.5 Q 460.4 248.6 470 282.5 L 473 301.5 L 473 318.5 Q 467.4 359.9 440.5 380 L 413 397.5 L 403.5 411 L 400 413.5 Q 400.7 425.3 408.5 430 L 424.5 431 L 434.5 430 L 444 435.5 L 446 442.5 L 440 447.5 L 438.5 450 L 431.5 451 Q 429.8 448.3 428 452.5 L 425.5 456 L 418.5 456 L 402.5 447 L 395 446 Q 393.6 442.3 399.5 444 L 419.5 454 L 424.5 454 Q 427.8 453.3 427 448.5 L 422 442.5 L 423.5 443 L 430.5 449 L 436.5 449 Q 439.8 448.3 439 443.5 L 436.5 440 L 439 441.5 L 440.5 443 Q 442.3 445.8 444 441.5 L 440.5 435 Q 435.3 430.6 424.5 432 L 413.5 433 L 403 428.5 L 398 414 Q 395 415 396 412 L 406 405.5 L 411 398.5 L 408.5 397 L 400.5 400 L 400 398 Q 433.7 388.5 453 363.5 L 467 336.5 Q 471.2 322.7 471 304.5 Q 469.1 283.9 463 267.5 L 443 224.5 L 440 214.5 L 439 202.5 L 444 199.5 L 436 192.5 L 435 189.5 L 437 190.5 L 441.5 196 L 450.5 201 L 455.5 201 L 458 198.5 Q 456.5 192.5 459.5 191 L 461.5 192 L 475 180.5 Q 482 174.5 481 160.5 L 474.5 150 Q 471.9 150.8 473 147.5 L 474.5 146 Z " /><path fill="rgb(10,10,10)" stroke="rgb(10,10,10)" stroke-width="0.6" opacity="1" d="M 324.5 149 L 329 151.5 L 330 158.5 L 324 171 L 316 170 Q 313.8 155.1 322.5 150 L 324.5 149 Z " /><path fill="rgb(10,10,10)" stroke="rgb(10,10,10)" stroke-width="0.6" opacity="1" d="M 444.5 156 L 441.5 160 L 440 161.5 L 437 163.5 L 441 157 L 444.5 156 Z " /><path fill="rgb(10,10,10)" stroke="rgb(10,10,10)" stroke-width="0.6" opacity="1" d="M 148.5 161 Q 157.4 161.6 160 168.5 L 161 176 Q 164 174.8 163 178.5 L 159.5 183 L 156.5 184 L 146 176.5 Q 142.3 173.7 143 166.5 L 146.5 162 L 148.5 161 Z " /><path fill="rgb(10,10,10)" stroke="rgb(10,10,10)" stroke-width="0.6" opacity="1" d="M 435.5 167 L 435 168.5 L 431 176 L 428.5 177 L 428 174.5 L 435.5 167 Z " /><path fill="rgb(10,10,10)" stroke="rgb(10,10,10)" stroke-width="0.6" opacity="1" d="M 210.5 176 L 214 185 Q 211 186.3 212 182.5 L 210.5 176 Z " /><path fill="rgb(10,10,10)" stroke="rgb(10,10,10)" stroke-width="0.6" opacity="1" d="M 432.5 176 L 435.5 178 L 447.5 180 L 451 179 Q 452.3 182 448.5 181 L 444.5 182 L 440.5 181 L 438.5 182 L 432.5 176 Z " /><path fill="rgb(10,10,10)" stroke="rgb(10,10,10)" stroke-width="0.6" opacity="1" d="M 453 178 L 459 179.5 L 458 185 Q 454.7 186.3 456 181.5 L 453 180 L 453 178 Z " /><path fill="rgb(10,10,10)" stroke="rgb(10,10,10)" stroke-width="0.6" opacity="1" d="M 223 188 Q 239.3 188.5 246 199.5 L 245.5 201 Q 238.9 190.3 223 190 L 223 188 Z " /><path fill="rgb(10,10,10)" stroke="rgb(10,10,10)" stroke-width="0.6" opacity="1" d="M 214.5 190 L 215 193 L 207.5 199 L 208 197.5 L 214.5 190 Z " /><path fill="rgb(10,10,10)" stroke="rgb(10,10,10)" stroke-width="0.6" opacity="1" d="M 57.5 202 L 69.5 202 L 70 204 Q 44.6 203.2 35 219.5 L 37 222.5 Q 30 228 32 242.5 Q 36.1 257.9 46 267.5 L 45 269.5 L 57.5 283 L 80.5 297 L 89.5 300 L 102 300 L 101.5 302 L 89.5 302 Q 58.7 304.7 43 322.5 Q 35.4 329.2 33 340 L 31 338.5 Q 36.7 323.2 48.5 314 Q 61.6 303.3 82 301 L 80.5 298 Q 58.4 290.6 45 274.5 L 41 264.5 L 32 251.5 L 29 235.5 L 33 222.5 L 32 218.5 Q 40.5 206 57.5 202 Z " /><path fill="rgb(10,10,10)" stroke="rgb(10,10,10)" stroke-width="0.6" opacity="1" d="M 250 203 L 253.5 205 L 258 213 L 255 211.5 L 250 203 Z " /><path fill="rgb(10,10,10)" stroke="rgb(10,10,10)" stroke-width="0.6" opacity="1" d="M 233.5 241 L 239 244.5 L 241 256.5 Q 239.8 260.3 233.5 259 L 230 250.5 L 230 245.5 L 233.5 241 Z " /><path fill="rgb(10,10,10)" stroke="rgb(10,10,10)" stroke-width="0.6" opacity="1" d="M 342.5 242 Q 347.3 241.3 348 244.5 L 347 251.5 L 340.5 259 L 334 256.5 Q 334.4 246.9 340.5 243 L 342.5 242 Z " /><path fill="rgb(10,10,10)" stroke="rgb(10,10,10)" stroke-width="0.6" opacity="1" d="M 99.5 248 L 108.5 248 L 118 254.5 Q 119.5 262.5 115.5 265 L 102.5 263 L 97 258.5 L 96 251.5 L 99.5 248 Z " /><path fill="rgb(10,10,10)" stroke="rgb(10,10,10)" stroke-width="0.6" opacity="1" d="M 175.5 249 Q 193.8 265.7 206 288.5 L 204 287.5 L 191 267.5 L 175 250.5 L 175.5 249 Z " /><path fill="rgb(10,10,10)" stroke="rgb(10,10,10)" stroke-width="0.6" opacity="1" d="M 209.5 293 L 214 302.5 L 212 301.5 L 209 296.5 L 209.5 293 Z " /><path fill="rgb(10,10,10)" stroke="rgb(10,10,10)" stroke-width="0.6" opacity="1" d="M 120 303 L 128.5 304 L 130 305.5 L 127.5 307 L 120 305 L 120 303 Z " /><path fill="rgb(10,10,10)" stroke="rgb(10,10,10)" stroke-width="0.6" opacity="1" d="M 97.5 337 L 109.5 338 L 111.5 337 L 115 344.5 L 112.5 348 L 99.5 352 L 92 347.5 Q 90.5 339.5 95.5 338 L 97.5 337 Z " /><path fill="rgb(10,10,10)" stroke="rgb(10,10,10)" stroke-width="0.6" opacity="1" d="M 237.5 337 L 242.5 343 L 237 338.5 L 237.5 337 Z " /><path fill="rgb(10,10,10)" stroke="rgb(10,10,10)" stroke-width="0.6" opacity="1" d="M 178 357 L 188.5 357 L 189 359 L 178.5 359 L 178 357 Z " /><path fill="rgb(10,10,10)" stroke="rgb(10,10,10)" stroke-width="0.6" opacity="1" d="M 170.5 358 Q 177.4 356 176 360 L 165 361 Q 163.7 357.3 169.5 359 L 170.5 358 Z " /><path fill="rgb(10,10,10)" stroke="rgb(10,10,10)" stroke-width="0.6" opacity="1" d="M 172.5 388 L 178 391.5 L 178 395.5 L 172.5 401 L 164.5 403 L 160 399.5 Q 160.7 393.2 165.5 391 L 172.5 388 Z " /><path fill="rgb(10,10,10)" stroke="rgb(10,10,10)" stroke-width="0.6" opacity="1" d="M 369.5 401 L 381 402 L 379 406.5 L 388 414.5 L 387 417.5 L 391 430 Q 387.7 431.3 389 426.5 L 383.5 413 L 378 408.5 L 375.5 404 L 369.5 404 L 360.5 413 L 351 418.5 L 350 431.5 L 353.5 438 L 361 439 Q 362.3 442.3 357.5 441 L 350 437.5 Q 346.3 431.7 348 420.5 L 349 418.5 L 348 416.5 Q 362.2 412.2 369.5 401 Z " /><path fill="rgb(10,10,10)" stroke="rgb(10,10,10)" stroke-width="0.6" opacity="1" d="M 389.5 432 L 391 433.5 Q 389 437 381.5 435 L 377 438.5 L 385.5 444 L 389 444 L 387.5 447 Q 384.2 448.1 385 445.5 Q 380.1 439.1 368 441 Q 366.6 437 373.5 439 L 378.5 434 L 389.5 432 Z " /><path fill="rgb(66,74,67)" stroke="rgb(66,74,67)" stroke-width="0.6" opacity="1" d="M 231.5 80 L 235 81 L 234.5 83 L 231.5 81 L 228.5 83 L 229.5 81 L 231.5 80 Z " /><path fill="rgb(66,74,67)" stroke="rgb(66,74,67)" stroke-width="0.6" opacity="1" d="M 244.5 87 L 249 90.5 L 250 94 Q 253 92.8 252 96.5 L 252.5 98 L 248 90 L 244.5 87 Z " /><path fill="rgb(66,74,67)" stroke="rgb(66,74,67)" stroke-width="0.6" opacity="1" d="M 240.5 102 L 246 105.5 L 250 113.5 L 248 112.5 Q 247.2 105.3 241.5 103 L 240.5 102 Z " /><path fill="rgb(66,74,67)" stroke="rgb(66,74,67)" stroke-width="0.6" opacity="1" d="M 187 105 Q 190 103.8 189 107.5 L 191 112.5 L 188 110.5 L 187 105 Z " /><path fill="rgb(66,74,67)" stroke="rgb(66,74,67)" stroke-width="0.6" opacity="1" d="M 394.5 105 L 387.5 113 L 394.5 105 Z " /><path fill="rgb(66,74,67)" stroke="rgb(66,74,67)" stroke-width="0.6" opacity="1" d="M 328.5 117 L 330 119 L 320 123 L 318.5 127 L 318 125.5 L 321.5 121 L 328.5 117 Z " /><path fill="rgb(66,74,67)" stroke="rgb(66,74,67)" stroke-width="0.6" opacity="1" d="M 336.5 118 L 342 121.5 Q 345.8 123.7 345 130.5 L 344 130.5 Q 342.1 121.6 336.5 118 Z " /><path fill="rgb(66,74,67)" stroke="rgb(66,74,67)" stroke-width="0.6" opacity="1" d="M 130.5 130 Q 134.3 129 133 132 Q 125.9 132.1 122.5 137 L 122 135.5 L 130.5 130 Z " /><path fill="rgb(66,74,67)" stroke="rgb(66,74,67)" stroke-width="0.6" opacity="1" d="M 257.5 131 L 258 133.5 L 253.5 142 L 254 140.5 L 257.5 131 Z " /><path fill="rgb(66,74,67)" stroke="rgb(66,74,67)" stroke-width="0.6" opacity="1" d="M 219.5 133 L 227 142.5 L 225 143 L 221 135 Q 217.8 136 219.5 133 Z " /><path fill="rgb(66,74,67)" stroke="rgb(66,74,67)" stroke-width="0.6" opacity="1" d="M 227.5 133 L 233 137 Q 231.7 140.3 236.5 139 L 235.5 136 Q 238.8 136.8 238 141.5 L 236.5 141 L 229 136.5 L 227.5 133 Z " /><path fill="rgb(66,74,67)" stroke="rgb(66,74,67)" stroke-width="0.6" opacity="1" d="M 323.5 136 L 317 143.5 L 314.5 149 L 314 146.5 L 321.5 137 L 323.5 136 Z " /><path fill="rgb(66,74,67)" stroke="rgb(66,74,67)" stroke-width="0.6" opacity="1" d="M 419.5 136 L 425 143.5 L 423 142.5 L 421.5 141 L 419.5 136 Z " /><path fill="rgb(66,74,67)" stroke="rgb(66,74,67)" stroke-width="0.6" opacity="1" d="M 158.5 141 L 164 148.5 L 157 142.5 L 158.5 141 Z " /><path fill="rgb(66,74,67)" stroke="rgb(66,74,67)" stroke-width="0.6" opacity="1" d="M 344 147 L 346 147.5 L 342.5 156 L 342 153.5 L 344 147 Z " /><path fill="rgb(66,74,67)" stroke="rgb(66,74,67)" stroke-width="0.6" opacity="1" d="M 117.5 158 L 123 170.5 L 130 180.5 L 127 178.5 Q 128.1 175.2 125.5 176 L 120 167.5 L 120.5 166 Q 117.5 166.9 119 162.5 L 117.5 158 Z " /><path fill="rgb(66,74,67)" stroke="rgb(66,74,67)" stroke-width="0.6" opacity="1" d="M 203.5 158 L 203 159.5 L 202 165.5 L 202.5 167 Q 199.5 167.9 201 163.5 L 199 159.5 L 203.5 158 Z " /><path fill="rgb(66,74,67)" stroke="rgb(66,74,67)" stroke-width="0.6" opacity="1" d="M 284.5 159 L 285 161 L 287.5 160 L 286.5 162 L 285 163.5 L 283 164.5 L 284.5 159 Z " /><path fill="rgb(66,74,67)" stroke="rgb(66,74,67)" stroke-width="0.6" opacity="1" d="M 340.5 160 L 340 161.5 Q 338.9 168.9 333.5 172 L 333 170.5 L 340.5 160 Z " /><path fill="rgb(66,74,67)" stroke="rgb(66,74,67)" stroke-width="0.6" opacity="1" d="M 402.5 162 L 407.5 168 L 403 164.5 L 402.5 162 Z " /><path fill="rgb(66,74,67)" stroke="rgb(66,74,67)" stroke-width="0.6" opacity="1" d="M 435.5 165 L 436 166.5 L 436 168.5 L 433.5 172 L 435 169.5 L 434 167.5 L 435.5 165 Z " /><path fill="rgb(66,74,67)" stroke="rgb(66,74,67)" stroke-width="0.6" opacity="1" d="M 309.5 170 L 315 177.5 L 313.5 177 L 312 175.5 Q 307.7 174.2 309.5 170 Z " /><path fill="rgb(66,74,67)" stroke="rgb(66,74,67)" stroke-width="0.6" opacity="1" d="M 330.5 173 L 332 173.5 L 321.5 180 L 321 178 L 330.5 173 Z " /><path fill="rgb(66,74,67)" stroke="rgb(66,74,67)" stroke-width="0.6" opacity="1" d="M 136.5 174 L 140.5 179 L 144 182.5 L 140.5 180 L 138 178.5 L 136.5 174 Z " /><path fill="rgb(66,74,67)" stroke="rgb(66,74,67)" stroke-width="0.6" opacity="1" d="M 384.5 183 L 389.5 189 L 384.5 183 Z " /><path fill="rgb(66,74,67)" stroke="rgb(66,74,67)" stroke-width="0.6" opacity="1" d="M 168.5 184 L 168 185.5 L 166.5 189 L 165 191 L 162.5 191 L 159 193 Q 157.8 190 161.5 191 L 166 187.5 L 168.5 184 Z " /><path fill="rgb(66,74,67)" stroke="rgb(66,74,67)" stroke-width="0.6" opacity="1" d="M 142.5 189 L 151 191 Q 152.3 194 148.5 193 Q 142.9 192.2 142.5 189 Z " /><path fill="rgb(66,74,67)" stroke="rgb(66,74,67)" stroke-width="0.6" opacity="1" d="M 443.5 190 L 450 195.5 L 448.5 196 L 443.5 190 Z " /><path fill="rgb(66,74,67)" stroke="rgb(66,74,67)" stroke-width="0.6" opacity="1" d="M 283 195 L 285 196.5 L 280.5 208 L 280 205.5 L 283 195 Z " /><path fill="rgb(66,74,67)" stroke="rgb(66,74,67)" stroke-width="0.6" opacity="1" d="M 133.5 217 L 136 218.5 Q 133.5 220 137 221.5 L 140 226.5 L 132 219.5 L 133.5 217 Z " /><path fill="rgb(66,74,67)" stroke="rgb(66,74,67)" stroke-width="0.6" opacity="1" d="M 361.5 221 L 365 224.5 L 367 230.5 L 365 231.5 L 366 228.5 L 361.5 221 Z " /><path fill="rgb(66,74,67)" stroke="rgb(66,74,67)" stroke-width="0.6" opacity="1" d="M 298 222 L 300 223.5 L 296.5 231 L 296 228.5 L 298 222 Z " /><path fill="rgb(66,74,67)" stroke="rgb(66,74,67)" stroke-width="0.6" opacity="1" d="M 71.5 229 L 66.5 235 L 66 233.5 L 71.5 229 Z " /><path fill="rgb(66,74,67)" stroke="rgb(66,74,67)" stroke-width="0.6" opacity="1" d="M 347 231 Q 352.7 230.2 355 233 L 354.5 235 Q 352.8 231.5 347 233 L 347 231 Z " /><path fill="rgb(66,74,67)" stroke="rgb(66,74,67)" stroke-width="0.6" opacity="1" d="M 365 235 L 367 236.5 L 363.5 244 L 363 241.5 L 365 235 Z " /><path fill="rgb(66,74,67)" stroke="rgb(66,74,67)" stroke-width="0.6" opacity="1" d="M 333.5 236 L 334 238 L 332 239.5 L 330.5 244 L 330 240.5 L 333.5 236 Z " /><path fill="rgb(66,74,67)" stroke="rgb(66,74,67)" stroke-width="0.6" opacity="1" d="M 114.5 237 L 124 248.5 L 122 247.5 L 114 238.5 L 114.5 237 Z " /><path fill="rgb(66,74,67)" stroke="rgb(66,74,67)" stroke-width="0.6" opacity="1" d="M 100 238 L 111 243.5 L 109.5 244 L 100 240 L 100 238 Z " /><path fill="rgb(66,74,67)" stroke="rgb(66,74,67)" stroke-width="0.6" opacity="1" d="M 290 243 L 292 244.5 L 287.5 256 L 287 253.5 L 290 243 Z " /><path fill="rgb(66,74,67)" stroke="rgb(66,74,67)" stroke-width="0.6" opacity="1" d="M 360 247 L 362 247.5 L 354.5 257 L 354 255.5 L 360 247 Z " /><path fill="rgb(66,74,67)" stroke="rgb(66,74,67)" stroke-width="0.6" opacity="1" d="M 351.5 257 L 351 258.5 L 349.5 260 L 342 264 L 343.5 262 Q 349.4 261.4 351.5 257 Z " /><path fill="rgb(66,74,67)" stroke="rgb(66,74,67)" stroke-width="0.6" opacity="1" d="M 225.5 258 L 227 261 L 232 264.5 L 230.5 264 L 226 260.5 L 225.5 258 Z " /><path fill="rgb(66,74,67)" stroke="rgb(66,74,67)" stroke-width="0.6" opacity="1" d="M 199.5 259 L 202 260.5 L 205 269.5 L 203 270.5 L 199.5 259 Z " /><path fill="rgb(66,74,67)" stroke="rgb(66,74,67)" stroke-width="0.6" opacity="1" d="M 69.5 260 L 75.5 267 L 69 261.5 L 69.5 260 Z " /><path fill="rgb(66,74,67)" stroke="rgb(66,74,67)" stroke-width="0.6" opacity="1" d="M 329.5 260 L 336 264.5 L 334.5 265 L 329.5 260 Z " /><path fill="rgb(66,74,67)" stroke="rgb(66,74,67)" stroke-width="0.6" opacity="1" d="M 46.5 276 L 51.5 282 L 46.5 276 Z " /><path fill="rgb(66,74,67)" stroke="rgb(66,74,67)" stroke-width="0.6" opacity="1" d="M 171.5 288 L 185 297.5 L 183.5 298 L 174.5 292 L 171.5 288 Z " /><path fill="rgb(66,74,67)" stroke="rgb(66,74,67)" stroke-width="0.6" opacity="1" d="M 206.5 289 L 209 290 L 212 294.5 L 208.5 292 L 207 292.5 L 207.5 294 L 205 290.5 L 206.5 289 Z " /><path fill="rgb(66,74,67)" stroke="rgb(66,74,67)" stroke-width="0.6" opacity="1" d="M 286 294 L 289 294.5 L 287 298.5 L 288 300.5 L 286 301.5 L 287 296.5 L 286 294 Z " /><path fill="rgb(66,74,67)" stroke="rgb(66,74,67)" stroke-width="0.6" opacity="1" d="M 262 309 L 264 309.5 L 264 326 Q 260.5 327.1 262 319.5 L 263 315.5 L 262 309 Z " /><path fill="rgb(66,74,67)" stroke="rgb(66,74,67)" stroke-width="0.6" opacity="1" d="M 202.5 313 L 208 317.5 L 207.5 319 L 202.5 313 Z " /><path fill="rgb(66,74,67)" stroke="rgb(66,74,67)" stroke-width="0.6" opacity="1" d="M 210.5 321 L 218 327.5 L 216.5 328 L 210.5 321 Z " /><path fill="rgb(66,74,67)" stroke="rgb(66,74,67)" stroke-width="0.6" opacity="1" d="M 312.5 322 L 315 322.5 L 315.5 324 L 319.5 323 L 319.5 324 L 315.5 325 L 312.5 322 Z " /><path fill="rgb(66,74,67)" stroke="rgb(66,74,67)" stroke-width="0.6" opacity="1" d="M 103.5 325 Q 111.9 325.9 116 330 L 115.5 332 Q 111.7 326.7 103.5 326 L 103.5 325 Z " /><path fill="rgb(66,74,67)" stroke="rgb(66,74,67)" stroke-width="0.6" opacity="1" d="M 91.5 331 L 93 331.5 L 87.5 333 L 78.5 340 L 80.5 337 L 82 335.5 L 91.5 331 Z " /><path fill="rgb(66,74,67)" stroke="rgb(66,74,67)" stroke-width="0.6" opacity="1" d="M 343.5 338 L 343 339.5 L 342.5 341 L 341 340.5 L 340.5 342 L 339 341.5 L 337.5 344 L 337.5 341 L 343.5 338 Z " /><path fill="rgb(66,74,67)" stroke="rgb(66,74,67)" stroke-width="0.6" opacity="1" d="M 134 341 L 148.5 341 L 149 343 L 134.5 343 L 134 341 Z " /><path fill="rgb(66,74,67)" stroke="rgb(66,74,67)" stroke-width="0.6" opacity="1" d="M 299.5 342 L 302 342.5 L 297.5 346 L 296 345.5 L 294 347 L 295.5 345 L 298 344.5 L 299.5 342 Z " /><path fill="rgb(66,74,67)" stroke="rgb(66,74,67)" stroke-width="0.6" opacity="1" d="M 114.5 347 L 113 349.5 L 109.5 355 L 106.5 357 L 105 356.5 Q 105.8 359.1 102.5 358 L 103.5 356 L 111 351.5 L 114.5 347 Z " /><path fill="rgb(66,74,67)" stroke="rgb(66,74,67)" stroke-width="0.6" opacity="1" d="M 197.5 348 L 211 350 L 209.5 352 L 197.5 349 L 197.5 348 Z " /><path fill="rgb(66,74,67)" stroke="rgb(66,74,67)" stroke-width="0.6" opacity="1" d="M 310.5 364 L 307.5 368 L 304.5 369 L 306.5 366 L 308 366.5 L 309.5 365 L 310.5 364 Z " /><path fill="rgb(66,74,67)" stroke="rgb(66,74,67)" stroke-width="0.6" opacity="1" d="M 381.5 366 L 376.5 372 L 381.5 366 Z " /><path fill="rgb(66,74,67)" stroke="rgb(66,74,67)" stroke-width="0.6" opacity="1" d="M 222.5 373 Q 226.3 372 225 375 L 219.5 376 Q 218 373.5 216.5 377 L 214.5 378 L 214 376.5 L 222.5 373 Z " /><path fill="rgb(66,74,67)" stroke="rgb(66,74,67)" stroke-width="0.6" opacity="1" d="M 176.5 382 L 184 387.5 L 182.5 388 L 181 385 L 175 383.5 L 176.5 382 Z " /><path fill="rgb(66,74,67)" stroke="rgb(66,74,67)" stroke-width="0.6" opacity="1" d="M 316.5 384 L 317.5 386 L 316 385.5 L 314.5 388 L 312.5 387 L 310.5 390 L 306.5 392 L 306.5 389 L 316.5 384 Z " /><path fill="rgb(66,74,67)" stroke="rgb(66,74,67)" stroke-width="0.6" opacity="1" d="M 152.5 386 L 150.5 389 L 144.5 392 L 145.5 390 L 152.5 386 Z " /><path fill="rgb(66,74,67)" stroke="rgb(66,74,67)" stroke-width="0.6" opacity="1" d="M 138.5 397 L 139 398.5 L 136 406 L 134 404.5 L 138.5 397 Z " /><path fill="rgb(66,74,67)" stroke="rgb(66,74,67)" stroke-width="0.6" opacity="1" d="M 253.5 399 L 268 399.5 L 253.5 400 L 253.5 399 Z " /><path fill="rgb(66,74,67)" stroke="rgb(66,74,67)" stroke-width="0.6" opacity="1" d="M 370.5 399 L 363.5 407 L 370.5 399 Z " /><path fill="rgb(66,74,67)" stroke="rgb(66,74,67)" stroke-width="0.6" opacity="1" d="M 380.5 446 L 383 447.5 L 382 448.5 L 384.5 452 L 379 447.5 L 380.5 446 Z " /><path fill="rgb(42,43,43)" stroke="rgb(42,43,43)" stroke-width="0.6" opacity="1" d="M 251.5 63 L 255.5 65 L 258 65.5 L 255 66.5 L 255.5 68 L 251.5 63 Z " /><path fill="rgb(42,43,43)" stroke="rgb(42,43,43)" stroke-width="0.6" opacity="1" d="M 413 65 Q 416 63.8 415 67.5 L 417 80 Q 414 81.3 415 77.5 L 413 65 Z " /><path fill="rgb(42,43,43)" stroke="rgb(42,43,43)" stroke-width="0.6" opacity="1" d="M 399.5 67 L 405.5 74 L 399.5 67 Z " /><path fill="rgb(42,43,43)" stroke="rgb(42,43,43)" stroke-width="0.6" opacity="1" d="M 470.5 121 L 473 130.5 L 470 128.5 L 469 122.5 L 470.5 121 Z " /><path fill="rgb(42,43,43)" stroke="rgb(42,43,43)" stroke-width="0.6" opacity="1" d="M 288.5 126 L 289 141.5 L 288 141.5 L 288.5 126 Z " /><path fill="rgb(42,43,43)" stroke="rgb(42,43,43)" stroke-width="0.6" opacity="1" d="M 463.5 130 L 468 130.5 L 466 131.5 L 471 138 L 474 138.5 L 471.5 139 L 465.5 132 L 463.5 130 Z " /><path fill="rgb(42,43,43)" stroke="rgb(42,43,43)" stroke-width="0.6" opacity="1" d="M 457.5 131 L 460 131.5 L 456 137 Q 453 138 454 135 Q 457 136.3 456 132.5 L 457.5 131 Z " /><path fill="rgb(42,43,43)" stroke="rgb(42,43,43)" stroke-width="0.6" opacity="1" d="M 410 134 Q 417.5 133.8 421 138.5 L 419.5 139 Q 416.5 135.1 410 136 L 410 134 Z " /><path fill="rgb(42,43,43)" stroke="rgb(42,43,43)" stroke-width="0.6" opacity="1" d="M 447.5 154 Q 452.8 152.8 454 155.5 L 453.5 157 L 447.5 156 L 445.5 157 L 443.5 157 L 442 156.5 L 447.5 154 Z " /><path fill="rgb(42,43,43)" stroke="rgb(42,43,43)" stroke-width="0.6" opacity="1" d="M 203 160 L 205 161.5 L 207 165.5 L 206.5 167 L 208 167.5 L 207.5 169 L 209 169.5 L 207 170.5 L 205 165.5 L 205.5 164 L 204 162.5 L 203 160 Z " /><path fill="rgb(42,43,43)" stroke="rgb(42,43,43)" stroke-width="0.6" opacity="1" d="M 463.5 162 Q 468.6 163.9 468 171.5 L 466 170.5 L 467 168.5 L 465 167.5 L 465.5 166 L 463 164.5 L 463.5 162 Z " /><path fill="rgb(42,43,43)" stroke="rgb(42,43,43)" stroke-width="0.6" opacity="1" d="M 209.5 171 L 210 172.5 L 209.5 174 L 211 175.5 L 211.5 177 L 209 176.5 L 208 172.5 L 209.5 171 Z " /><path fill="rgb(42,43,43)" stroke="rgb(42,43,43)" stroke-width="0.6" opacity="1" d="M 457.5 177 Q 464.4 176.1 467 179.5 L 466.5 181 L 459.5 180 L 457.5 177 Z " /><path fill="rgb(42,43,43)" stroke="rgb(42,43,43)" stroke-width="0.6" opacity="1" d="M 458.5 184 L 460 190.5 L 458 191.5 Q 460.5 190 457 188.5 L 458.5 184 Z " /><path fill="rgb(42,43,43)" stroke="rgb(42,43,43)" stroke-width="0.6" opacity="1" d="M 207.5 197 Q 210.8 198.8 207 200.5 L 204.5 206 L 204 202.5 L 207.5 197 Z " /><path fill="rgb(42,43,43)" stroke="rgb(42,43,43)" stroke-width="0.6" opacity="1" d="M 407.5 199 L 420 202 L 419.5 204 L 406 200.5 L 407.5 199 Z " /><path fill="rgb(42,43,43)" stroke="rgb(42,43,43)" stroke-width="0.6" opacity="1" d="M 439.5 201 L 439 202.5 L 440 211.5 L 439 211.5 L 439 204.5 Q 436.3 205.1 437 202 L 439.5 201 Z " /><path fill="rgb(42,43,43)" stroke="rgb(42,43,43)" stroke-width="0.6" opacity="1" d="M 258.5 212 L 264 223.5 L 261 224 L 262 220.5 L 260 219.5 L 260.5 218 L 259 216.5 L 256.5 213 L 258.5 212 Z " /><path fill="rgb(42,43,43)" stroke="rgb(42,43,43)" stroke-width="0.6" opacity="1" d="M 326.5 212 L 317.5 222 L 326.5 212 Z " /><path fill="rgb(42,43,43)" stroke="rgb(42,43,43)" stroke-width="0.6" opacity="1" d="M 163.5 237 L 168.5 243 L 163.5 237 Z " /><path fill="rgb(42,43,43)" stroke="rgb(42,43,43)" stroke-width="0.6" opacity="1" d="M 302.5 245 L 305 245.5 L 299 260 L 296 259.5 L 298 254 L 300 253.5 L 299.5 252 L 301 251.5 L 300 249.5 L 302.5 245 Z " /><path fill="rgb(42,43,43)" stroke="rgb(42,43,43)" stroke-width="0.6" opacity="1" d="M 177.5 250 L 182.5 256 L 177.5 250 Z " /><path fill="rgb(42,43,43)" stroke="rgb(42,43,43)" stroke-width="0.6" opacity="1" d="M 267 251 L 269 251.5 L 269 262 L 267 261.5 L 267 251 Z " /><path fill="rgb(42,43,43)" stroke="rgb(42,43,43)" stroke-width="0.6" opacity="1" d="M 373.5 265 L 374 267 L 381 267.5 L 373.5 268 Q 370.5 266.5 373.5 265 Z " /><path fill="rgb(42,43,43)" stroke="rgb(42,43,43)" stroke-width="0.6" opacity="1" d="M 291.5 277 L 292 279.5 L 288.5 290 L 288 285.5 L 291.5 277 Z " /><path fill="rgb(42,43,43)" stroke="rgb(42,43,43)" stroke-width="0.6" opacity="1" d="M 158 280 L 165 284.5 L 163.5 284 L 158 282 L 158 280 Z " /><path fill="rgb(42,43,43)" stroke="rgb(42,43,43)" stroke-width="0.6" opacity="1" d="M 214.5 302 L 223 319 Q 226 317.8 225 321.5 L 233 332.5 L 231 331.5 L 218 312.5 L 218.5 311 L 217 310.5 L 217.5 309 L 215 307.5 L 214 305.5 L 214.5 304 L 213 303.5 L 214.5 302 Z " /><path fill="rgb(42,43,43)" stroke="rgb(42,43,43)" stroke-width="0.6" opacity="1" d="M 470.5 304 L 471 314.5 L 470 314.5 L 470.5 304 Z " /><path fill="rgb(42,43,43)" stroke="rgb(42,43,43)" stroke-width="0.6" opacity="1" d="M 147.5 308 L 156 310 Q 157.5 313.7 154.5 313 Q 148.5 311.9 147.5 308 Z " /><path fill="rgb(42,43,43)" stroke="rgb(42,43,43)" stroke-width="0.6" opacity="1" d="M 160.5 312 L 175 317 L 175.5 319 L 177 318.5 L 177.5 320 L 179.5 319 L 188 323 L 186.5 325 L 171 318 L 170.5 316 L 168.5 317 L 161.5 314 L 160 314.5 L 160.5 312 Z " /><path fill="rgb(42,43,43)" stroke="rgb(42,43,43)" stroke-width="0.6" opacity="1" d="M 310 315 Q 313.7 313.6 312 319.5 L 314 322.5 L 312.5 322 L 311 320.5 L 310 315 Z " /><path fill="rgb(42,43,43)" stroke="rgb(42,43,43)" stroke-width="0.6" opacity="1" d="M 320.5 323 Q 324.3 322 323 325 Q 317.1 324.3 315.5 330 L 316 328.5 L 317.5 326 L 319 325.5 L 317 324.5 L 320.5 323 Z " /><path fill="rgb(42,43,43)" stroke="rgb(42,43,43)" stroke-width="0.6" opacity="1" d="M 190 325 L 197 328.5 L 197.5 330 L 199.5 330 L 207 334.5 L 204.5 335 L 190 327 L 190 325 Z " /><path fill="rgb(42,43,43)" stroke="rgb(42,43,43)" stroke-width="0.6" opacity="1" d="M 217.5 328 L 224 333.5 L 222.5 334 L 217.5 328 Z " /><path fill="rgb(42,43,43)" stroke="rgb(42,43,43)" stroke-width="0.6" opacity="1" d="M 279.5 330 L 274.5 336 L 279.5 330 Z " /><path fill="rgb(42,43,43)" stroke="rgb(42,43,43)" stroke-width="0.6" opacity="1" d="M 313.5 333 Q 312.5 341 317.5 343 L 322 344 L 320.5 346 L 313 341.5 L 312 334.5 L 313.5 333 Z " /><path fill="rgb(42,43,43)" stroke="rgb(42,43,43)" stroke-width="0.6" opacity="1" d="M 335.5 342 L 338 342.5 L 328 346 Q 326.7 342.7 331.5 344 L 335.5 342 Z " /><path fill="rgb(42,43,43)" stroke="rgb(42,43,43)" stroke-width="0.6" opacity="1" d="M 372.5 342 L 376 343 L 375.5 348 L 372.5 344 L 364.5 349 Q 363 346.5 361.5 350 L 360 348 Q 368.1 347.3 372.5 342 Z " /><path fill="rgb(42,43,43)" stroke="rgb(42,43,43)" stroke-width="0.6" opacity="1" d="M 391.5 344 Q 394.5 345.5 391.5 347 L 382 350 Q 380.7 346.7 385.5 348 L 391.5 344 Z " /><path fill="rgb(42,43,43)" stroke="rgb(42,43,43)" stroke-width="0.6" opacity="1" d="M 344 345 Q 347 343.8 346 347.5 L 349 348.5 L 350 350.5 L 348.5 350 L 344 346.5 L 344 345 Z " /><path fill="rgb(42,43,43)" stroke="rgb(42,43,43)" stroke-width="0.6" opacity="1" d="M 292.5 346 L 294 348 L 280 353 Q 278.8 350 282.5 351 L 292.5 346 Z " /><path fill="rgb(42,43,43)" stroke="rgb(42,43,43)" stroke-width="0.6" opacity="1" d="M 264.5 352 L 268.5 353 L 271 352 Q 272.3 355.3 267.5 354 L 264.5 353 L 263 353.5 L 264.5 352 Z " /><path fill="rgb(42,43,43)" stroke="rgb(42,43,43)" stroke-width="0.6" opacity="1" d="M 381.5 362 L 376.5 368 L 381.5 362 Z " /><path fill="rgb(42,43,43)" stroke="rgb(42,43,43)" stroke-width="0.6" opacity="1" d="M 291.5 373 L 294 373.5 Q 291 377 284.5 377 L 285.5 375 L 291.5 373 Z " /><path fill="rgb(42,43,43)" stroke="rgb(42,43,43)" stroke-width="0.6" opacity="1" d="M 124.5 378 L 119.5 384 L 124.5 378 Z " /><path fill="rgb(42,43,43)" stroke="rgb(42,43,43)" stroke-width="0.6" opacity="1" d="M 118.5 388 L 120.5 389 L 122.5 388 L 116.5 395 L 119 391.5 L 118.5 388 Z " /><path fill="rgb(42,43,43)" stroke="rgb(42,43,43)" stroke-width="0.6" opacity="1" d="M 304.5 390 L 306 392 L 300.5 394 L 299.5 392 L 301.5 393 L 302 391 L 304.5 390 Z " /><path fill="rgb(42,43,43)" stroke="rgb(42,43,43)" stroke-width="0.6" opacity="1" d="M 220.5 402 L 211.5 412 L 220.5 402 Z " /><path fill="rgb(42,43,43)" stroke="rgb(42,43,43)" stroke-width="0.6" opacity="1" d="M 253.5 402 L 268 402.5 L 253.5 403 L 253.5 402 Z " /><path fill="rgb(42,43,43)" stroke="rgb(42,43,43)" stroke-width="0.6" opacity="1" d="M 339.5 415 L 347.5 416 L 349 415.5 L 348 417.5 L 348.5 419 L 338 416.5 L 339.5 415 Z " /><path fill="rgb(42,43,43)" stroke="rgb(42,43,43)" stroke-width="0.6" opacity="1" d="M 210.5 416 L 202.5 425 L 210.5 416 Z " /><path fill="rgb(42,43,43)" stroke="rgb(42,43,43)" stroke-width="0.6" opacity="1" d="M 415 439 Q 420.3 439 422.5 443 L 424 442.5 L 423 443.5 L 425.5 447 Q 422.7 441 415 441 L 415 439 Z " /><path fill="rgb(42,43,43)" stroke="rgb(42,43,43)" stroke-width="0.6" opacity="1" d="M 387.5 443 L 391 443 Q 390 446 393 445 Q 391.8 442 395.5 443 L 395 444.5 Q 395.4 447.5 389 446 L 387.5 444 L 387.5 443 Z " /><path fill="rgb(42,43,43)" stroke="rgb(42,43,43)" stroke-width="0.6" opacity="1" d="M 356.5 449 L 363 451.5 L 362.5 454 L 359.5 450 L 357.5 451 L 356.5 449 Z " /><path fill="rgb(70,101,97)" stroke="rgb(70,101,97)" stroke-width="0.6" opacity="1" d="M 150.5 135 L 156.5 142 L 150.5 135 Z " /><path fill="rgb(70,101,97)" stroke="rgb(70,101,97)" stroke-width="0.6" opacity="1" d="M 120.5 140 L 120 141.5 Q 117.2 146.7 118 155.5 L 119 158.5 L 117 157.5 L 117 155.5 L 118 143.5 L 120.5 140 Z " /><path fill="rgb(70,101,97)" stroke="rgb(70,101,97)" stroke-width="0.6" opacity="1" d="M 423.5 143 L 426 143.5 L 428 150.5 L 426.5 151 L 423.5 143 Z " /><path fill="rgb(70,101,97)" stroke="rgb(70,101,97)" stroke-width="0.6" opacity="1" d="M 426 157 L 428 157.5 L 424.5 164 L 423 163.5 L 426 157 Z " /><path fill="rgb(70,101,97)" stroke="rgb(70,101,97)" stroke-width="0.6" opacity="1" d="M 247.5 158 L 250 169.5 L 249 169.5 L 247.5 158 Z " /><path fill="rgb(70,101,97)" stroke="rgb(70,101,97)" stroke-width="0.6" opacity="1" d="M 256 168 L 258 168.5 L 253.5 183 L 252 178.5 L 254 178 L 256 171.5 L 256 169.5 L 256 168 Z " /><path fill="rgb(70,101,97)" stroke="rgb(70,101,97)" stroke-width="0.6" opacity="1" d="M 282.5 178 L 283 180 L 285 180 L 287 184 L 283.5 182 L 281 183.5 L 282.5 178 Z " /><path fill="rgb(70,101,97)" stroke="rgb(70,101,97)" stroke-width="0.6" opacity="1" d="M 78.5 204 L 85 206 L 83.5 208 L 77 205.5 L 78.5 204 Z " /><path fill="rgb(70,101,97)" stroke="rgb(70,101,97)" stroke-width="0.6" opacity="1" d="M 41.5 213 L 37 218.5 L 38 220.5 L 36 221 L 36 218.5 L 41.5 213 Z " /><path fill="rgb(70,101,97)" stroke="rgb(70,101,97)" stroke-width="0.6" opacity="1" d="M 79.5 225 L 81 227 L 71.5 231 Q 68.5 229.5 71.5 228 L 79.5 225 Z " /><path fill="rgb(70,101,97)" stroke="rgb(70,101,97)" stroke-width="0.6" opacity="1" d="M 340.5 226 L 343 226.5 L 337 231.5 L 340.5 226 Z " /><path fill="rgb(70,101,97)" stroke="rgb(70,101,97)" stroke-width="0.6" opacity="1" d="M 98.5 227 L 113 235.5 L 110.5 236 L 104 231.5 L 103.5 230 L 101.5 231 L 99 230 L 98.5 227 Z " /><path fill="rgb(70,101,97)" stroke="rgb(70,101,97)" stroke-width="0.6" opacity="1" d="M 114.5 236 L 120.5 243 L 114.5 236 Z " /><path fill="rgb(70,101,97)" stroke="rgb(70,101,97)" stroke-width="0.6" opacity="1" d="M 123.5 247 Q 128 252 128 261.5 L 127 265 L 125 264.5 L 125 253.5 L 124 251.5 L 124.5 250 L 122 248.5 L 123.5 247 Z " /><path fill="rgb(70,101,97)" stroke="rgb(70,101,97)" stroke-width="0.6" opacity="1" d="M 171 249 Q 175.1 247.3 174 251.5 L 179 262 Q 176 263.3 177 259.5 L 171 249 Z " /><path fill="rgb(70,101,97)" stroke="rgb(70,101,97)" stroke-width="0.6" opacity="1" d="M 62.5 250 L 65 251.5 L 68 259.5 L 66 258.5 L 64 254.5 L 64.5 253 L 63 251.5 L 62.5 250 Z " /><path fill="rgb(70,101,97)" stroke="rgb(70,101,97)" stroke-width="0.6" opacity="1" d="M 80 253 L 83 254.5 L 86 259.5 L 82 258.5 L 80 253 Z " /><path fill="rgb(70,101,97)" stroke="rgb(70,101,97)" stroke-width="0.6" opacity="1" d="M 88.5 262 L 91.5 266 L 93 265.5 L 94.5 267 L 99.5 268 L 101 270 Q 93 269.5 88 264.5 L 88.5 262 Z " /><path fill="rgb(70,101,97)" stroke="rgb(70,101,97)" stroke-width="0.6" opacity="1" d="M 117.5 263 L 114.5 267 L 111.5 269 L 112 267.5 L 112.5 265 L 114.5 266 L 117.5 263 Z " /><path fill="rgb(70,101,97)" stroke="rgb(70,101,97)" stroke-width="0.6" opacity="1" d="M 149.5 264 L 157 275.5 L 155 274.5 L 149.5 264 Z " /><path fill="rgb(70,101,97)" stroke="rgb(70,101,97)" stroke-width="0.6" opacity="1" d="M 76.5 266 L 79.5 270 L 81 269.5 L 81.5 271 L 83 270.5 L 80.5 271 L 75 267.5 L 76.5 266 Z " /><path fill="rgb(70,101,97)" stroke="rgb(70,101,97)" stroke-width="0.6" opacity="1" d="M 123.5 267 Q 126.5 268.5 123.5 270 L 121 270.5 Q 123.7 272.3 119.5 274 L 112.5 277 L 112 275.5 L 116.5 273 L 118 273.5 L 123.5 267 Z " /><path fill="rgb(70,101,97)" stroke="rgb(70,101,97)" stroke-width="0.6" opacity="1" d="M 137.5 268 L 153 276.5 L 150.5 277 L 136 269.5 L 137.5 268 Z " /><path fill="rgb(70,101,97)" stroke="rgb(70,101,97)" stroke-width="0.6" opacity="1" d="M 282 270 Q 285 268.8 284 272.5 L 281.5 279 L 281 273.5 L 282 270 Z " /><path fill="rgb(70,101,97)" stroke="rgb(70,101,97)" stroke-width="0.6" opacity="1" d="M 273 271 Q 276 269.8 275 273.5 L 274 280 Q 270 281.4 272 274.5 L 273 271 Z " /><path fill="rgb(70,101,97)" stroke="rgb(70,101,97)" stroke-width="0.6" opacity="1" d="M 99.5 275 L 106.5 276 L 109 275 L 107.5 277 L 100.5 278 L 99.5 275 Z " /><path fill="rgb(70,101,97)" stroke="rgb(70,101,97)" stroke-width="0.6" opacity="1" d="M 279.5 283 L 281 285.5 L 278 295.5 L 278.5 297 Q 275.5 297.9 277 293.5 L 279.5 283 Z " /><path fill="rgb(70,101,97)" stroke="rgb(70,101,97)" stroke-width="0.6" opacity="1" d="M 166.5 284 L 173 288.5 L 172.5 291 L 165 285.5 L 166.5 284 Z " /><path fill="rgb(70,101,97)" stroke="rgb(70,101,97)" stroke-width="0.6" opacity="1" d="M 90.5 299 L 103 299.5 L 90.5 300 L 90.5 299 Z " /><path fill="rgb(70,101,97)" stroke="rgb(70,101,97)" stroke-width="0.6" opacity="1" d="M 192.5 303 L 195.5 309 L 191 304.5 L 192.5 303 Z " /><path fill="rgb(70,101,97)" stroke="rgb(70,101,97)" stroke-width="0.6" opacity="1" d="M 135.5 307 L 138.5 309 L 142 310.5 L 137 311 L 136.5 309 L 134.5 310 L 133.5 308 L 135.5 307 Z " /><path fill="rgb(70,101,97)" stroke="rgb(70,101,97)" stroke-width="0.6" opacity="1" d="M 200.5 310 L 207.5 319 Q 209.2 316.3 211 320.5 L 210 321.5 L 213.5 326 L 200 312.5 L 200.5 310 Z " /><path fill="rgb(70,101,97)" stroke="rgb(70,101,97)" stroke-width="0.6" opacity="1" d="M 311.5 310 L 311 311.5 L 310.5 314 L 308.5 314 L 303.5 316 L 303.5 313 Q 309.5 313.5 311.5 310 Z " /><path fill="rgb(70,101,97)" stroke="rgb(70,101,97)" stroke-width="0.6" opacity="1" d="M 222.5 331 L 227 337 L 229 337.5 L 226.5 338 L 222.5 331 Z " /><path fill="rgb(70,101,97)" stroke="rgb(70,101,97)" stroke-width="0.6" opacity="1" d="M 313.5 331 L 316 331.5 L 314.5 334 L 312 334.5 L 311.5 336 L 311 334.5 L 313.5 331 Z " /><path fill="rgb(70,101,97)" stroke="rgb(70,101,97)" stroke-width="0.6" opacity="1" d="M 351.5 331 L 353 331.5 L 348.5 337 L 347 335.5 L 351.5 331 Z " /><path fill="rgb(70,101,97)" stroke="rgb(70,101,97)" stroke-width="0.6" opacity="1" d="M 308.5 336 L 310 336.5 L 302.5 343 Q 299.5 341.5 302.5 340 L 308.5 336 Z " /><path fill="rgb(70,101,97)" stroke="rgb(70,101,97)" stroke-width="0.6" opacity="1" d="M 398.5 337 L 392.5 344 L 398.5 337 Z " /><path fill="rgb(70,101,97)" stroke="rgb(70,101,97)" stroke-width="0.6" opacity="1" d="M 178.5 343 L 182.5 345 L 186.5 344 L 188 347 L 178 345 L 178.5 343 Z " /><path fill="rgb(70,101,97)" stroke="rgb(70,101,97)" stroke-width="0.6" opacity="1" d="M 235.5 344 L 244 349.5 L 242.5 350 L 235.5 344 Z " /><path fill="rgb(70,101,97)" stroke="rgb(70,101,97)" stroke-width="0.6" opacity="1" d="M 76.5 347 L 83.5 356 L 91 358.5 L 86.5 359 L 77 352 L 76.5 347 Z " /><path fill="rgb(70,101,97)" stroke="rgb(70,101,97)" stroke-width="0.6" opacity="1" d="M 229.5 347 L 230.5 349 L 232.5 349 L 236 350 L 236.5 352 L 238 351.5 L 238.5 353 L 240.5 352 L 249 355 L 247.5 357 L 239.5 353 L 237.5 353 L 229 348.5 L 229.5 347 Z " /><path fill="rgb(70,101,97)" stroke="rgb(70,101,97)" stroke-width="0.6" opacity="1" d="M 271 352 L 275 352.5 L 274.5 354 L 277 354.5 L 269.5 355 L 269.5 354 L 271 352 Z " /><path fill="rgb(70,101,97)" stroke="rgb(70,101,97)" stroke-width="0.6" opacity="1" d="M 221.5 353 L 229 356.5 L 226.5 357 L 221 355 L 221.5 353 Z " /><path fill="rgb(70,101,97)" stroke="rgb(70,101,97)" stroke-width="0.6" opacity="1" d="M 143 392 L 145 392.5 L 139 397.5 L 143 392 Z " /><path fill="rgb(70,101,97)" stroke="rgb(70,101,97)" stroke-width="0.6" opacity="1" d="M 142.5 419 L 152.5 421 L 155.5 420 L 155.5 421 L 144.5 422 L 141 420.5 L 142.5 419 Z " /><path fill="rgb(70,101,97)" stroke="rgb(70,101,97)" stroke-width="0.6" opacity="1" d="M 407 437 L 415 439.5 L 414.5 441 L 407 439 L 407 437 Z " /><path fill="rgb(123,64,60)" stroke="rgb(123,64,60)" stroke-width="0.6" opacity="1" d="M 228.5 102 Q 232.5 104.5 226.5 107 L 225 107.5 L 225.5 109 L 223.5 110 L 224 108.5 L 226.5 104 L 229 103.5 L 228.5 102 Z " /><path fill="rgb(123,64,60)" stroke="rgb(123,64,60)" stroke-width="0.6" opacity="1" d="M 242.5 102 L 245.5 107 L 248 107.5 L 246.5 109 L 241 103.5 L 242.5 102 Z " /><path fill="rgb(123,64,60)" stroke="rgb(123,64,60)" stroke-width="0.6" opacity="1" d="M 250 119 Q 253 117.8 252 121.5 L 253 127.5 L 251 128.5 L 252 126.5 L 250 119 Z " /><path fill="rgb(123,64,60)" stroke="rgb(123,64,60)" stroke-width="0.6" opacity="1" d="M 423.5 204 L 434 204.5 L 423.5 205 L 423.5 204 Z " /><path fill="rgb(123,64,60)" stroke="rgb(123,64,60)" stroke-width="0.6" opacity="1" d="M 226.5 215 Q 230.3 214 229 217 L 226.5 216 L 220.5 225 L 219 222.5 L 224.5 216 L 226.5 215 Z " /><path fill="rgb(123,64,60)" stroke="rgb(123,64,60)" stroke-width="0.6" opacity="1" d="M 199.5 216 L 200 226.5 L 199 226.5 L 199.5 216 Z " /><path fill="rgb(123,64,60)" stroke="rgb(123,64,60)" stroke-width="0.6" opacity="1" d="M 352.5 219 Q 359.3 217.7 362 220.5 L 360.5 221 L 352.5 220 L 352.5 219 Z " /><path fill="rgb(123,64,60)" stroke="rgb(123,64,60)" stroke-width="0.6" opacity="1" d="M 242.5 223 L 242.5 225 L 244 225.5 L 243.5 227 L 245 228.5 L 246 230.5 L 244 231.5 L 241 224.5 L 242.5 223 Z " /><path fill="rgb(123,64,60)" stroke="rgb(123,64,60)" stroke-width="0.6" opacity="1" d="M 239.5 233 L 244 242.5 L 242 243 L 241 239.5 L 241.5 238 L 240 237.5 L 240.5 236 L 239 235.5 L 239.5 233 Z " /><path fill="rgb(123,64,60)" stroke="rgb(123,64,60)" stroke-width="0.6" opacity="1" d="M 224.5 244 L 230 257 L 232 258.5 L 228 255.5 L 224.5 244 Z " /><path fill="rgb(123,64,60)" stroke="rgb(123,64,60)" stroke-width="0.6" opacity="1" d="M 220.5 248 L 221.5 251 L 223 252.5 L 225 255.5 L 223 256.5 L 223.5 255 L 222 254.5 L 222.5 253 L 221 251.5 L 220.5 248 Z " /><path fill="rgb(123,64,60)" stroke="rgb(123,64,60)" stroke-width="0.6" opacity="1" d="M 266.5 250 L 267 260.5 L 266 260.5 L 266.5 250 Z " /><path fill="rgb(123,64,60)" stroke="rgb(123,64,60)" stroke-width="0.6" opacity="1" d="M 246 254 L 248 255.5 Q 243 257.5 246 259.5 L 242.5 265 Q 240.2 268.2 233.5 267 L 230 264.5 L 233 264.5 L 233.5 266 L 238.5 265 L 240 265.5 L 242 262.5 L 245 260.5 L 244 258.5 L 246 254 Z " /><path fill="rgb(123,64,60)" stroke="rgb(123,64,60)" stroke-width="0.6" opacity="1" d="M 328.5 259 L 331.5 263 L 334 264.5 L 332.5 264 L 328 260.5 L 328.5 259 Z " /><path fill="rgb(123,64,60)" stroke="rgb(123,64,60)" stroke-width="0.6" opacity="1" d="M 326.5 267 L 327 268.5 L 318.5 281 L 318 279.5 L 326.5 267 Z " /><path fill="rgb(123,64,60)" stroke="rgb(123,64,60)" stroke-width="0.6" opacity="1" d="M 210.5 283 L 215 291.5 L 213 292 L 211 288.5 L 211.5 287 L 210 286.5 L 210 284.5 L 210.5 283 Z " /><path fill="rgb(123,64,60)" stroke="rgb(123,64,60)" stroke-width="0.6" opacity="1" d="M 214.5 293 L 217 294.5 L 222 303.5 L 218 300.5 L 214.5 293 Z " /><path fill="rgb(123,64,60)" stroke="rgb(123,64,60)" stroke-width="0.6" opacity="1" d="M 244.5 305 L 252 334.5 L 250 333.5 L 243 307.5 L 244.5 305 Z " /><path fill="rgb(123,64,60)" stroke="rgb(123,64,60)" stroke-width="0.6" opacity="1" d="M 375.5 394 L 377 395.5 L 371 398.5 L 375.5 394 Z " /><path fill="rgb(123,64,60)" stroke="rgb(123,64,60)" stroke-width="0.6" opacity="1" d="M 369.5 404 Q 375.5 402.5 377 405.5 L 376.5 407 Q 375.3 403.7 369.5 405 L 366 407.5 L 369.5 404 Z " /><path fill="rgb(123,129,125)" stroke="rgb(123,129,125)" stroke-width="0.6" opacity="1" d="M 304.5 204 Q 307.5 203.5 306 210.5 L 305 210.5 L 304.5 205 L 303.5 207 L 303 205.5 L 304.5 204 Z " /><path fill="rgb(123,129,125)" stroke="rgb(123,129,125)" stroke-width="0.6" opacity="1" d="M 326.5 216 L 327 218.5 L 324.5 220 L 321 220.5 Q 323.5 215.7 326 217.5 L 326.5 216 Z " /><path fill="rgb(123,129,125)" stroke="rgb(123,129,125)" stroke-width="0.6" opacity="1" d="M 205.5 286 L 211 287.5 L 210 290.5 L 210.5 292 L 205.5 286 Z " /><path fill="rgb(123,129,125)" stroke="rgb(123,129,125)" stroke-width="0.6" opacity="1" d="M 308.5 290 L 309 292 L 313.5 290 L 314.5 292 L 308 294 L 308.5 290 Z " /><path fill="rgb(123,129,125)" stroke="rgb(123,129,125)" stroke-width="0.6" opacity="1" d="M 80.5 294 L 84.5 295 L 86.5 295 Q 90.9 293.5 90 296.5 L 88.5 296 L 80.5 295 L 80.5 294 Z " /><path fill="rgb(123,129,125)" stroke="rgb(123,129,125)" stroke-width="0.6" opacity="1" d="M 163.5 315 L 167 316.5 L 167.5 320 L 163 317 L 163.5 315 Z " /><path fill="rgb(123,129,125)" stroke="rgb(123,129,125)" stroke-width="0.6" opacity="1" d="M 148.5 339 L 149 341 L 154 342.5 Q 155.3 346.7 150.5 345 L 149 345.5 L 150 342.5 L 148.5 339 Z " /><path fill="rgb(123,129,125)" stroke="rgb(123,129,125)" stroke-width="0.6" opacity="1" d="M 124.5 382 L 122.5 387 L 120.5 388 L 120 386.5 L 124.5 382 Z " /><path fill="rgb(123,129,125)" stroke="rgb(123,129,125)" stroke-width="0.6" opacity="1" d="M 69.5 387 L 76 387.5 L 74.5 391 L 74.5 389 L 72.5 388 L 72 389.5 L 72.5 391 L 70 389.5 L 69.5 387 Z " /><path fill="rgb(189,164,58)" stroke="rgb(189,164,58)" stroke-width="0.6" opacity="1" d="M 411.5 65 Q 415.7 67.8 414 76.5 L 413 76.5 L 413 68.5 L 411.5 65 Z " /><path fill="rgb(189,164,58)" stroke="rgb(189,164,58)" stroke-width="0.6" opacity="1" d="M 381.5 185 L 386.5 191 L 381.5 185 Z " /><path fill="rgb(189,164,58)" stroke="rgb(189,164,58)" stroke-width="0.6" opacity="1" d="M 183 192 Q 187 190.6 185 197.5 L 186 202 L 183 201.5 L 183 192 Z " /><path fill="rgb(189,164,58)" stroke="rgb(189,164,58)" stroke-width="0.6" opacity="1" d="M 168.5 208 L 179 213.5 Q 177.5 216.5 176 213.5 L 175.5 212 L 174 212.5 L 173.5 211 L 171.5 211 L 168 209.5 L 168.5 208 Z " /><path fill="rgb(189,164,58)" stroke="rgb(189,164,58)" stroke-width="0.6" opacity="1" d="M 157.5 230 L 169.5 243 L 157.5 230 Z " /><path fill="rgb(189,164,58)" stroke="rgb(189,164,58)" stroke-width="0.6" opacity="1" d="M 177.5 249 L 183.5 256 L 177.5 249 Z " /><path fill="rgb(189,164,58)" stroke="rgb(189,164,58)" stroke-width="0.6" opacity="1" d="M 68.5 332 L 63.5 338 L 68.5 332 Z " /><path fill="rgb(189,164,58)" stroke="rgb(189,164,58)" stroke-width="0.6" opacity="1" d="M 184.5 359 L 200 359.5 L 184.5 360 L 184.5 359 Z " /><path fill="rgb(189,164,58)" stroke="rgb(189,164,58)" stroke-width="0.6" opacity="1" d="M 242.5 369 L 242 370.5 L 243 373.5 L 239 372.5 L 238 370.5 L 242.5 369 Z " /><path fill="rgb(189,164,58)" stroke="rgb(189,164,58)" stroke-width="0.6" opacity="1" d="M 196.5 381 L 196.5 384 L 187 388 L 188.5 386 L 196.5 381 Z " /><path fill="rgb(189,164,58)" stroke="rgb(189,164,58)" stroke-width="0.6" opacity="1" d="M 122.5 389 L 116.5 396 L 122.5 389 Z " /><path fill="rgb(189,164,58)" stroke="rgb(189,164,58)" stroke-width="0.6" opacity="1" d="M 220.5 401 L 210.5 412 L 220.5 401 Z " /><path fill="rgb(180,62,59)" stroke="rgb(180,62,59)" stroke-width="0.6" opacity="1" d="M 242.5 86 L 247.5 92 L 242.5 86 Z " /><path fill="rgb(180,62,59)" stroke="rgb(180,62,59)" stroke-width="0.6" opacity="1" d="M 434.5 204 L 439 205.5 L 438.5 211 L 438 205 Q 433.6 206 434.5 204 Z " /><path fill="rgb(180,62,59)" stroke="rgb(180,62,59)" stroke-width="0.6" opacity="1" d="M 246.5 240 L 247 250.5 L 246 250.5 L 244 247 L 246 247 L 246.5 240 Z " /><path fill="rgb(180,62,59)" stroke="rgb(180,62,59)" stroke-width="0.6" opacity="1" d="M 417.5 240 L 418 250.5 L 417 250.5 L 417.5 240 Z " /><path fill="rgb(180,62,59)" stroke="rgb(180,62,59)" stroke-width="0.6" opacity="1" d="M 329.5 262 Q 332.8 263.8 329 265.5 L 327.5 268 Q 324 266 328.5 264 L 330 263.5 L 329.5 262 Z " /><path fill="rgb(180,62,59)" stroke="rgb(180,62,59)" stroke-width="0.6" opacity="1" d="M 307 280 L 309 280.5 L 309 289.5 L 307 290.5 L 307 280 Z " /><path fill="rgb(180,62,59)" stroke="rgb(180,62,59)" stroke-width="0.6" opacity="1" d="M 233.5 290 L 238 294.5 L 236.5 296 Q 232.8 294 234.5 292 Q 231.7 292.7 233.5 290 Z " /><path fill="rgb(180,62,59)" stroke="rgb(180,62,59)" stroke-width="0.6" opacity="1" d="M 238.5 296 L 239.5 299 L 241 299.5 L 241 301.5 L 240.5 303 L 237 297.5 L 238.5 296 Z " /><path fill="rgb(180,62,59)" stroke="rgb(180,62,59)" stroke-width="0.6" opacity="1" d="M 218.5 301 L 222 302.5 L 221.5 304 L 225 306.5 L 224.5 309 L 218.5 301 Z " /><path fill="rgb(180,62,59)" stroke="rgb(180,62,59)" stroke-width="0.6" opacity="1" d="M 469.5 304 L 470 314.5 L 469 314.5 L 469.5 304 Z " /><path fill="rgb(180,62,59)" stroke="rgb(180,62,59)" stroke-width="0.6" opacity="1" d="M 261.5 308 L 262 321.5 L 261 321.5 L 261.5 308 Z " /><path fill="rgb(168,167,165)" stroke="rgb(168,167,165)" stroke-width="0.6" opacity="1" d="M 447.5 73 L 449 75 L 446.5 75 L 441 80.5 L 440.5 83 L 439 81.5 L 447.5 73 Z " /><path fill="rgb(168,167,165)" stroke="rgb(168,167,165)" stroke-width="0.6" opacity="1" d="M 222.5 404 L 217.5 410 L 222.5 404 Z " /><path fill="rgb(168,167,165)" stroke="rgb(168,167,165)" stroke-width="0.6" opacity="1" d="M 419.5 433 L 423 433.5 L 422 437 L 418.5 436 L 416 437 Q 417 440 414 439 Q 413 436 416 437 L 416 434 L 418.5 434 L 419.5 433 Z " /><path fill="rgb(126,117,59)" stroke="rgb(126,117,59)" stroke-width="0.6" opacity="1" d="M 312.5 160 L 315 165.5 L 314.5 168 Q 310.8 165.3 312.5 160 Z " /><path fill="rgb(126,117,59)" stroke="rgb(126,117,59)" stroke-width="0.6" opacity="1" d="M 172.5 197 L 182 211.5 L 180 210.5 L 172.5 197 Z " /><path fill="rgb(126,117,59)" stroke="rgb(126,117,59)" stroke-width="0.6" opacity="1" d="M 112.5 200 L 118.5 207 L 112.5 200 Z " /><path fill="rgb(126,117,59)" stroke="rgb(126,117,59)" stroke-width="0.6" opacity="1" d="M 232.5 371 L 234 373 L 225.5 375 L 225 373.5 L 232.5 371 Z " /><path fill="rgb(126,117,59)" stroke="rgb(126,117,59)" stroke-width="0.6" opacity="1" d="M 202.5 379 L 204 381 L 196.5 383 L 197.5 381 L 202.5 379 Z " /><path fill="rgb(126,117,59)" stroke="rgb(126,117,59)" stroke-width="0.6" opacity="1" d="M 143.5 391 L 143 392.5 L 141 395.5 L 138.5 397 L 143.5 391 Z " /><path fill="rgb(126,117,59)" stroke="rgb(126,117,59)" stroke-width="0.6" opacity="1" d="M 206.5 416 L 201.5 422 L 206.5 416 Z " /><path fill="rgb(210,209,207)" stroke="rgb(210,209,207)" stroke-width="0.6" opacity="1" d="M 117.5 96 L 129 96.5 L 117.5 97 L 117.5 96 Z " /><path fill="rgb(210,209,207)" stroke="rgb(210,209,207)" stroke-width="0.6" opacity="1" d="M 369.5 137 L 372 137.5 L 371 146 L 369 145.5 L 369.5 137 Z " /><path fill="rgb(210,209,207)" stroke="rgb(210,209,207)" stroke-width="0.6" opacity="1" d="M 246.5 349 L 251 351.5 Q 250.1 354.5 254.5 353 L 254.5 354 L 249.5 355 L 250 353.5 Q 251.3 349.8 247.5 351 L 246.5 349 Z " /><path fill="rgb(210,209,207)" stroke="rgb(210,209,207)" stroke-width="0.6" opacity="1" d="M 450.5 371 L 445.5 377 L 450.5 371 Z " /><path fill="rgb(210,209,207)" stroke="rgb(210,209,207)" stroke-width="0.6" opacity="1" d="M 253.5 403 L 267 403.5 L 253.5 404 L 253.5 403 Z " /><path fill="rgb(210,209,207)" stroke="rgb(210,209,207)" stroke-width="0.6" opacity="1" d="M 294.5 405 L 306 405.5 L 294.5 406 L 294.5 405 Z " /><path fill="rgb(210,209,207)" stroke="rgb(210,209,207)" stroke-width="0.6" opacity="1" d="M 211.5 416 L 201.5 427 L 211.5 416 Z " /><path fill="rgb(210,209,207)" stroke="rgb(210,209,207)" stroke-width="0.6" opacity="1" d="M 375 442 Q 381.5 441.8 384 446.5 L 382.5 446 L 375 444 L 375 442 Z " /></svg>