<svg width="627" height="627" preserveAspectRatio="xMidYMid meet" viewBox="0 0 512 512" version="1.1" xmlns="http://www.w3.org/2000/svg" ><path fill="rgb(255,255,255)" stroke="rgb(255,255,255)" stroke-width="0.6" opacity="1" d="M 0 0 L 512 0 L 512 512 L 0 512 L 0 0 Z M 379 44 Q 366 47 359 54 Q 334 75 331 118 L 331 140 L 335 166 L 338 175 L 334 176 Q 329 162 320 152 Q 308 137 287 132 L 288 128 L 287 114 L 284 101 L 278 89 L 280 84 Q 281 77 278 74 L 271 68 L 263 69 L 256 77 L 257 87 L 267 93 L 271 92 Q 280 105 279 130 L 278 131 L 255 132 L 235 139 L 224 122 L 213 112 L 209 102 L 202 96 Q 195 95 192 98 Q 187 101 186 108 L 188 115 L 196 120 Q 204 122 207 117 L 215 122 Q 224 131 229 144 L 226 146 Q 213 156 206 173 L 202 188 L 202 194 L 197 207 Q 196 218 200 224 Q 193 216 180 213 L 168 213 L 155 217 L 159 202 Q 160 180 151 170 Q 142 158 124 155 Q 103 155 93 164 Q 78 174 75 195 L 76 209 L 76 211 Q 68 205 57 203 Q 39 202 31 210 Q 15 221 12 244 Q 11 267 23 279 Q 32 290 50 293 Q 56 292 55 295 L 52 297 Q 42 305 40 321 Q 39 343 49 355 Q 58 367 75 371 L 93 370 Q 105 365 113 356 L 117 389 L 127 424 Q 129 429 125 428 Q 122 412 112 402 Q 93 375 51 372 L 33 373 L 30 376 L 38 387 Q 44 406 56 421 Q 64 431 77 438 L 115 452 L 121 459 L 124 466 Q 131 458 132 444 L 131 423 L 120 382 L 117 360 Q 115 346 120 340 Q 119 336 122 337 L 123 339 L 123 356 L 125 373 L 138 430 Q 140 451 134 465 L 136 468 L 143 457 L 160 442 L 191 432 Q 203 427 212 419 L 223 405 L 240 366 L 248 359 L 249 356 L 247 353 L 232 351 Q 191 350 172 369 Q 150 389 143 423 Q 144 427 141 426 L 138 407 L 130 376 L 128 350 L 144 361 L 157 364 Q 173 363 183 355 Q 196 346 200 328 L 200 315 L 192 299 L 184 292 L 198 285 Q 209 277 212 261 Q 213 248 210 241 L 231 254 L 249 259 L 257 263 L 266 263 L 275 260 L 277 267 L 258 276 Q 246 284 243 301 L 234 309 L 235 318 L 239 320 Q 245 321 248 318 L 252 312 L 252 306 L 260 290 L 283 278 Q 288 277 289 282 L 276 297 L 271 311 L 272 323 L 272 326 L 267 333 L 268 340 L 274 344 L 281 342 L 285 334 L 283 327 L 285 305 L 303 287 L 308 289 Q 313 290 315 287 L 321 291 Q 312 301 308 316 Q 306 330 310 338 L 306 348 L 307 356 L 313 360 L 320 358 L 324 352 Q 326 343 322 341 L 322 320 L 321 319 L 321 315 L 332 299 L 334 297 L 341 324 Q 344 333 351 339 L 350 341 L 352 351 Q 354 357 363 355 L 368 348 L 367 341 L 361 334 Q 360 321 354 315 L 355 312 L 361 316 L 365 321 Q 367 331 373 338 L 384 350 Q 382 359 386 363 Q 388 367 397 366 L 402 360 L 401 351 L 395 344 L 393 336 Q 404 342 420 344 Q 452 347 470 335 L 477 324 L 481 308 Q 483 287 479 273 Q 473 251 461 237 Q 445 217 419 208 L 439 201 L 453 194 L 474 178 Q 496 159 501 124 Q 502 102 491 92 Q 485 85 476 83 L 456 84 Q 437 89 424 100 L 422 99 L 422 80 Q 420 66 413 58 Q 407 49 398 45 L 379 44 Z " /><path fill="rgb(47,49,46)" stroke="rgb(47,49,46)" stroke-width="0.6" opacity="1" d="M 465.5 86 L 474 87 Q 472.8 90 476.5 89 L 476.5 87 L 482 89.5 L 482.5 92 L 492 98.5 L 491 101.5 L 494 102.5 L 497 114 Q 493.7 112.9 495 117 L 497 117.5 L 496 121.5 L 496.5 123 Q 493.5 122.2 495 126 L 497 127.5 L 495 137.5 L 491 143.5 L 491 145.5 Q 487.3 157.8 479.5 166 L 478 165.5 L 477 169.5 L 466.5 180 L 453.5 189 L 452 188.5 L 450.5 190 L 448.5 192 L 442 193 Q 443.7 197.1 439.5 196 L 422.5 203 L 421.5 201 L 421 203 L 401 206 L 400.5 204 L 391 204 L 390.5 206 L 377.5 205 L 375.5 206 L 375 203.5 L 374 199 L 370 197.5 L 371 193 L 374 191.5 L 373.5 190 L 368.5 192 L 366 186 Q 361.9 187.7 363 183.5 L 363 181.5 L 366 173 Q 370.1 174.7 369 170.5 Q 366.5 169 370 167.5 L 372 163 L 374 162.5 L 374 160.5 L 381 148 L 383 147.5 Q 380 145.5 385 143.5 L 394.5 131 L 398 129.5 L 401.5 123 L 402.5 124 L 409 117.5 Q 406.2 115.8 410.5 114 L 412.5 115 L 418 109.5 L 417.5 108 L 425 104.5 L 424.5 103 L 428.5 100 L 430.5 101 L 432 98 L 435.5 96 L 438.5 97 L 441 96 Q 439.3 91.9 443.5 93 L 445.5 92 L 447.5 93 L 448.5 90 L 460 87 Q 458.9 90.3 463 89 L 464.5 87 L 465.5 86 Z M 466 105 Q 448 112 435 122 L 433 126 L 457 111 L 468 107 Q 469 104 466 105 Z M 461 141 L 454 143 L 452 142 L 440 146 L 440 147 L 448 146 L 450 146 L 452 145 L 454 145 L 473 143 L 473 141 L 461 141 Z M 434 147 L 431 149 L 429 151 L 437 148 L 434 147 Z M 421 152 L 405 161 Q 402 162 403 159 L 404 157 L 398 160 Q 399 164 396 163 L 395 168 L 398 167 L 400 165 L 402 165 L 420 154 L 423 155 L 424 153 L 421 152 Z M 429 175 L 429 177 L 437 178 Q 440 179 439 176 L 429 175 Z M 396 184 L 387 189 L 388 191 L 399 185 L 396 184 Z M 382 192 L 380 194 L 377 196 L 375 199 L 378 197 L 379 196 L 381 196 L 383 195 L 384 193 L 382 192 Z " /><path fill="rgb(47,49,46)" stroke="rgb(47,49,46)" stroke-width="0.6" opacity="1" d="M 200.5 99 L 206 103.5 L 207 111.5 L 200.5 117 L 196.5 117 L 193 114.5 L 193.5 113 Q 190.2 114.1 191 111.5 L 190 109.5 L 191 107.5 L 190.5 106 L 193 104.5 L 194.5 102 L 200 101 L 200.5 99 Z " /><path fill="rgb(47,49,46)" stroke="rgb(47,49,46)" stroke-width="0.6" opacity="1" d="M 406.5 114 L 398.5 123 L 406.5 114 Z " /><path fill="rgb(47,49,46)" stroke="rgb(47,49,46)" stroke-width="0.6" opacity="1" d="M 117.5 159 L 133.5 161 L 147 170.5 L 148 175 L 152 177.5 L 155 187.5 L 153 188 Q 152.3 191.1 155 190.5 L 155 201 Q 152 200 153 203 L 155 203.5 L 154 206 L 152 206.5 L 154 207 L 151 218 L 149 218.5 L 149 220.5 L 142 234 Q 137.5 232.3 139 237.5 L 134.5 244 L 132 244.5 L 132.5 246 L 126 243 L 125.5 241 L 123.5 242 L 120 241 L 119.5 243 Q 116.5 241.5 119.5 240 L 121 239.5 L 119 236 L 121 234.5 L 120 232.5 Q 122.8 230.8 122 225.5 L 121 223 L 118 224.5 L 117 234.5 L 118 237.5 L 117.5 240 L 115.5 240 L 114 242 L 111.5 242 L 110 242.5 L 108.5 241 L 106 242 L 105.5 240 L 104.5 245 L 102.5 244 L 102.5 246 L 100 244.5 L 102 243.5 L 99.5 243 L 97 242.5 L 97.5 241 L 96 240.5 L 96 238.5 L 94.5 237 L 94 234.5 L 93.5 233 L 92 233.5 L 94 229.5 Q 92 225.8 90 227.5 L 88.5 223 L 86 222.5 L 84 219.5 L 85 216.5 L 82 215.5 L 80 208 Q 83 209 82 206 L 79 204.5 L 81 202.5 L 81 194 L 79 192.5 L 82 190.5 L 80 190 L 82 184 L 84 182.5 L 85 180.5 L 84 178.5 L 87 177.5 L 86 175.5 L 93 170.5 Q 90.2 168.8 94.5 167 L 104.5 162 L 106 162.5 Q 105.2 159.9 108.5 161 L 117.5 159 Z " /><path fill="rgb(47,49,46)" stroke="rgb(47,49,46)" stroke-width="0.6" opacity="1" d="M 214.5 185 L 215 187.5 L 212.5 192 L 211 191.5 L 212 189 L 214 187.5 L 214.5 185 Z " /><path fill="rgb(47,49,46)" stroke="rgb(47,49,46)" stroke-width="0.6" opacity="1" d="M 202.5 227 L 207 233.5 L 206.5 236 L 202 229.5 L 202.5 227 Z " /><path fill="rgb(47,49,46)" stroke="rgb(47,49,46)" stroke-width="0.6" opacity="1" d="M 447.5 228 L 454 233.5 L 465 248.5 L 464 251 L 467 252.5 L 467 254.5 L 468 258.5 L 466 262.5 L 468 263 L 467 270 Q 464 269 465 272 L 467 272.5 L 466 275 L 464 275.5 L 466 276.5 L 462.5 288 L 460 288.5 L 461 292.5 L 456.5 301 L 455 301.5 Q 457.5 303 454 304.5 L 453 308 L 451 308.5 Q 453.5 310 450 311.5 L 445.5 318 Q 441.8 316.8 443 320.5 L 437.5 327 Q 432 327.5 430 331.5 L 428.5 334 L 425.5 336 L 424 335.5 Q 424.9 338.5 420.5 337 Q 419.5 340 414.5 339 L 401.5 336 L 396 332.5 Q 394.5 328.1 397.5 329 L 399 328.5 L 399.5 330 L 400.5 327 L 408 325 Q 407.3 320.3 411.5 319 L 419 312.5 L 426.5 303 L 428 303.5 L 427 301.5 L 430.5 297 L 433 296.5 L 432 293.5 L 439.5 278 L 442 277.5 L 440.5 276 L 441 274.5 L 442.5 271 L 444 269.5 L 443 267 Q 446 268 445 265 L 443 264.5 L 446 263 L 444 259.5 L 447 258 Q 448 255 445 256 L 445 252.5 L 446 251.5 L 446 238.5 L 445 235 Q 448 236.3 447 232.5 L 446 230.5 L 447.5 228 Z " /><path fill="rgb(47,49,46)" stroke="rgb(47,49,46)" stroke-width="0.6" opacity="1" d="M 318.5 235 L 312.5 242 L 318.5 235 Z " /><path fill="rgb(47,49,46)" stroke="rgb(47,49,46)" stroke-width="0.6" opacity="1" d="M 292.5 283 L 293.5 285 L 294 283 L 298 283.5 L 297.5 285 L 299 285.5 L 286.5 299 L 284.5 300 L 280.5 297 L 279.5 299 L 279 297.5 L 285.5 290 L 289 287.5 L 292.5 283 Z " /><path fill="rgb(47,49,46)" stroke="rgb(47,49,46)" stroke-width="0.6" opacity="1" d="M 335.5 291 L 336 295 Q 341.9 294.1 344 298.5 L 346 302.5 L 344 305.5 L 345.5 306 L 347 305.5 L 347.5 309 L 342.5 307 L 341 307.5 Q 337 303.3 337 296 L 333 293.5 L 335 293 L 335.5 291 Z " /><path fill="rgb(47,49,46)" stroke="rgb(47,49,46)" stroke-width="0.6" opacity="1" d="M 372.5 310 L 373 312.5 L 372 315 Q 376.7 314.3 378 318.5 L 381.5 326 L 383 325.5 L 386 330.5 L 385.5 332 L 388 333.5 L 392 341.5 L 387 345.5 L 388.5 347 L 390.5 348 L 394 346 L 398 352.5 L 398 359.5 L 392 361 L 391.5 363 L 387 356.5 L 389 355.5 L 387 355 L 388 348.5 L 381 342.5 L 380 339 L 376 336.5 L 373 331.5 L 373.5 330 L 372 328.5 L 367 319.5 L 370 319 L 370 314.5 L 372.5 310 Z " /><path fill="rgb(47,49,46)" stroke="rgb(47,49,46)" stroke-width="0.6" opacity="1" d="M 274.5 327 L 274.5 329 L 280 328.5 L 279.5 327 Q 283 329 281 336.5 Q 279.7 341.3 272.5 340 L 270 336.5 L 272 336.5 L 271.5 333 L 270 333.5 L 274.5 327 Z " /><path fill="rgb(47,49,46)" stroke="rgb(47,49,46)" stroke-width="0.6" opacity="1" d="M 214.5 355 Q 218.5 354.3 217.5 357 L 232 357 Q 230.7 353.7 235.5 355 L 240 356.5 L 240 360.5 L 238 362.5 L 234.5 368 L 232 369.5 L 233 371.5 L 232 375 L 229 375.5 L 231 376.5 L 222 399.5 L 208.5 417 L 198.5 424 L 194 424 Q 195.5 427.8 192.5 427 L 185.5 430 L 184.5 428 L 181 429 L 179.5 432 L 173.5 433 L 170.5 432 L 167 433 Q 168.7 437.1 164.5 436 L 161.5 438 L 158 437 Q 159.5 440.7 156.5 440 L 151.5 444 L 149.5 443 L 141.5 449 L 140.5 445 L 139 445.5 Q 138.2 442.5 142 444 L 142.5 446 L 145 440 L 148 438.5 L 147 434.5 L 149 431 Q 143.4 433.2 145 427.5 L 148 425.5 L 146 424.5 L 154 399 Q 158.1 400.7 157 396.5 Q 154.5 395 158 393.5 L 159 389.5 L 167.5 378 L 168.5 379 L 175 372.5 L 175.5 370 L 189.5 361 L 201.5 357 L 214.5 355 Z M 217 369 L 210 373 L 210 374 L 219 371 Q 220 368 217 369 Z " /><path fill="rgb(47,49,46)" stroke="rgb(47,49,46)" stroke-width="0.6" opacity="1" d="M 40.5 376 L 44.5 377 L 48.5 376 L 51.5 377 L 53 376.5 Q 52.1 379.9 57.5 378 L 61 377 L 62.5 379 L 67.5 378 L 70.5 380 L 72.5 380 L 74 381.5 L 75 381.5 L 75.5 380 Q 94.8 386.2 106 400.5 L 107.5 404 L 110 404.5 L 113 408.5 L 112 411.5 L 116 413.5 L 116 416.5 L 119 421 L 117 421.5 L 120 422.5 L 124 433.5 L 122 434.5 L 123 438 L 125 439.5 L 128 448 L 123 449 L 122.5 447 L 119.5 452 L 104 443.5 L 103.5 442 L 102.5 444 L 100 443 L 98.5 441 L 95.5 442 L 89 440 L 88.5 438 L 86.5 439 L 79 434.5 L 77.5 433 Q 76 435.5 74.5 432 L 73 431.5 L 73.5 430 L 70.5 430 L 57 416.5 L 54 408 L 52 406.5 L 47 398.5 L 49 397.5 L 46 396.5 L 46 393.5 L 38 379.5 L 40.5 376 Z M 60 391 L 60 393 L 71 397 L 72 397 L 60 391 Z M 83 401 L 80 403 L 87 406 L 92 412 Q 95 413 93 408 L 83 401 Z M 95 411 Q 94 417 99 418 Q 101 419 100 415 L 95 411 Z M 103 420 L 102 422 L 107 426 Q 111 427 110 425 L 103 420 Z M 115 432 L 113 434 L 118 440 L 118 443 Q 123 445 121 440 L 116 436 L 115 432 Z " /><path fill="rgb(246,195,48)" stroke="rgb(246,195,48)" stroke-width="0.6" opacity="1" d="M 267.5 135 L 278 136 Q 276.8 141.5 280.5 143 L 286 141.5 L 287 138 Q 309.1 142.2 320 158.5 Q 332.5 173.5 330 203.5 Q 325.1 228.1 308.5 241 Q 296.4 251.9 276.5 255 L 273.5 254 Q 268.9 260.4 255.5 258 L 243.5 252 L 241.5 253 Q 220.5 247 209 231.5 Q 200.9 222.6 202 204.5 L 207 193.5 L 207 184.5 L 211 172.5 Q 216.5 159.5 226.5 151 Q 241.3 137.3 267.5 135 Z M 279 159 L 274 163 Q 276 166 285 164 L 293 169 L 291 164 Q 288 158 279 159 Z M 225 161 L 221 163 Q 215 165 216 171 L 224 166 Q 229 167 231 165 L 225 161 Z M 279 176 L 272 180 L 265 193 Q 264 207 271 212 L 274 212 L 269 204 Q 267 192 271 187 L 280 180 L 288 182 L 291 188 L 291 190 L 286 187 L 280 188 L 274 196 Q 272 206 276 210 L 282 213 L 289 212 L 296 203 Q 298 189 293 183 Q 289 176 279 176 Z M 222 178 L 218 180 L 210 192 Q 208 205 214 211 L 217 212 L 213 203 Q 212 191 217 186 L 223 182 L 229 183 L 230 185 Q 235 187 232 189 L 226 188 Q 219 191 218 200 L 220 210 L 227 214 L 232 213 L 238 203 Q 240 189 234 183 Q 231 177 222 178 Z M 244 209 L 240 211 L 235 218 L 247 212 Q 254 212 258 216 L 259 214 Q 255 207 244 209 Z M 271 223 L 269 225 L 270 228 L 259 235 Q 246 237 240 232 Q 238 228 236 232 L 237 234 L 245 238 L 248 245 L 256 251 L 265 250 L 271 242 L 276 228 L 278 229 Q 280 230 279 227 Q 277 222 271 223 Z " /><path fill="rgb(246,195,48)" stroke="rgb(246,195,48)" stroke-width="0.6" opacity="1" d="M 47.5 208 Q 61.6 206.9 69.5 212 L 88 228.5 Q 94.5 235.5 97 246.5 L 88.5 258 L 79.5 254 L 70 253 Q 68.1 258.6 76.5 256 L 87 261.5 L 88 281 L 63.5 288 L 49.5 288 Q 33.1 284.9 25 273.5 Q 16.1 263.4 17 243.5 Q 19.4 222.9 33.5 214 L 47.5 208 Z " /><path fill="rgb(246,195,48)" stroke="rgb(246,195,48)" stroke-width="0.6" opacity="1" d="M 166.5 218 Q 190.5 216.5 199 230.5 Q 208 240 207 259.5 Q 205 275.5 193.5 282 L 187.5 285 L 169.5 286 L 149 282 L 148 262 L 160 256.5 L 155.5 256 L 145 260 Q 143 252.8 137 248.5 L 137 244.5 L 155.5 223 L 166.5 218 Z " /><path fill="rgb(246,195,48)" stroke="rgb(246,195,48)" stroke-width="0.6" opacity="1" d="M 267.5 235 L 268 237.5 L 265 245 Q 263 247.8 256.5 247 L 253 244.5 L 251 240.5 L 256.5 239 L 258 242 L 260 240.5 L 267.5 235 Z " /><path fill="rgb(246,195,48)" stroke="rgb(246,195,48)" stroke-width="0.6" opacity="1" d="M 112.5 243 Q 130.8 243.2 138 254.5 Q 145.9 263.1 145 280.5 Q 142.8 292.3 134.5 298 Q 128.9 302.4 118.5 302 Q 104.5 300 98 290.5 Q 90.3 282.2 91 265.5 Q 92.7 252.7 101.5 247 L 112.5 243 Z " /><path fill="rgb(246,195,48)" stroke="rgb(246,195,48)" stroke-width="0.6" opacity="1" d="M 351.5 272 Q 357 271 358 274.5 Q 368.9 288.1 371 310.5 L 369 315 L 365 312.5 L 349 273 L 351.5 272 Z " /><path fill="rgb(246,195,48)" stroke="rgb(246,195,48)" stroke-width="0.6" opacity="1" d="M 255 284 L 258 284.5 L 250 301 L 248 299.5 L 255 284 Z " /><path fill="rgb(246,195,48)" stroke="rgb(246,195,48)" stroke-width="0.6" opacity="1" d="M 89.5 285 L 98 296.5 L 89 309.5 L 91 310.5 L 98.5 300 L 101.5 299 L 116 306 Q 119.8 313.8 118 328.5 Q 115.1 347.6 103.5 358 Q 97.8 363.8 88.5 366 L 74.5 366 Q 62.1 362.6 55 355 L 47 341.5 Q 43.9 333.1 45 320.5 Q 47.9 304.9 58.5 297 L 72.5 289 L 89.5 285 Z " /><path fill="rgb(246,195,48)" stroke="rgb(246,195,48)" stroke-width="0.6" opacity="1" d="M 278.5 303 L 280 303.5 L 280 313.5 L 278 315.5 L 277.5 324 L 277 304.5 L 278.5 303 Z " /><path fill="rgb(246,195,48)" stroke="rgb(246,195,48)" stroke-width="0.6" opacity="1" d="M 343 310 L 348 310 L 348 311.5 L 356 327.5 L 357 333.5 L 353.5 335 Q 343.4 326.8 343 310 Z " /><path fill="rgb(246,195,48)" stroke="rgb(246,195,48)" stroke-width="0.6" opacity="1" d="M 357.5 338 Q 361.9 336.5 361 339.5 Q 363.8 341.2 363 346.5 L 360.5 351 L 357 349.5 Q 353.8 347.2 355 340.5 L 357.5 338 Z " /><path fill="rgb(103,164,190)" stroke="rgb(103,164,190)" stroke-width="0.6" opacity="1" d="M 381.5 48 Q 403.4 46.6 410 60.5 Q 419.8 74.2 418 99.5 L 417 104.5 L 413.5 108 L 392 128.5 Q 371.9 151.9 358.5 182 L 354 178.5 L 354 165.5 L 352 165 L 352 176.5 L 348.5 177 L 342 174.5 Q 334.8 152.7 335 123.5 L 338 99.5 L 343 83.5 Q 348.7 68.7 359.5 59 Q 367.8 50.8 381.5 48 Z M 362 73 L 357 85 Q 355 90 359 89 L 362 76 L 362 73 Z M 384 80 L 376 89 L 385 81 L 384 80 Z M 375 90 L 362 108 L 363 110 L 375 92 L 375 90 Z M 356 106 L 357 116 L 356 125 Q 355 128 358 127 L 361 116 Q 362 111 358 113 L 358 106 L 356 106 Z M 385 113 L 380 117 Q 365 128 357 146 L 356 146 L 357 136 Q 359 128 355 129 L 352 162 L 354 163 L 356 152 Q 362 137 372 127 L 387 114 L 385 113 Z " /><path fill="rgb(103,164,190)" stroke="rgb(103,164,190)" stroke-width="0.6" opacity="1" d="M 266.5 72 Q 272.9 72.1 275 76.5 L 276 82.5 L 271.5 88 L 267.5 89 L 261 85.5 L 260 77.5 L 262.5 74 L 266.5 72 Z " /><path fill="rgb(103,164,190)" stroke="rgb(103,164,190)" stroke-width="0.6" opacity="1" d="M 336.5 180 L 345.5 180 L 346 182 Q 343 181 344 184 L 349.5 183 Q 358.5 184 363 189.5 Q 361.4 192.5 356 191 L 357.5 193 L 368 199.5 L 373 210.5 Q 370.8 212.4 368.5 209 L 364 207 L 365.5 209 Q 374 215 372 231.5 Q 370.5 234.5 369 231.5 L 365.5 226 L 365 227.5 L 367 231.5 L 367 246.5 L 363.5 252 Q 360.9 252.8 362 249.5 L 359 242 L 357 243.5 Q 360.1 247.9 359 256.5 Q 357.5 265 351.5 269 Q 348.9 269.8 350 266.5 L 346.5 258 L 345 258.5 L 347 268.5 Q 345.3 277.8 338.5 282 L 336 275 Q 332.5 273.9 334 281.5 Q 329.5 300.5 317.5 312 L 315 311 L 316 305.5 L 326 289.5 Q 329.9 282.5 329 272 L 326 272 L 326 279.5 L 322.5 286 L 314 281.5 L 309.5 273 L 308 273.5 L 311 283.5 L 308.5 285 L 299 279.5 L 296 273 L 294 273.5 L 296 279.5 L 292.5 279 L 288 275.5 L 285 264 L 280 262.5 L 281.5 258 Q 308.5 252 322 232.5 Q 335.4 217.9 335 189.5 L 334 181 L 336.5 180 Z " /><path fill="rgb(103,164,190)" stroke="rgb(103,164,190)" stroke-width="0.6" opacity="1" d="M 397.5 209 Q 414.3 207.2 422 214.5 L 423 241.5 Q 416.2 285.7 387.5 308 L 379.5 313 L 376.5 313 L 375 311.5 L 374 299.5 L 369 287.5 Q 394 267 398 225.5 L 397 223.5 L 398 220.5 L 396 210.5 L 397.5 209 Z " /><path fill="rgb(103,164,190)" stroke="rgb(103,164,190)" stroke-width="0.6" opacity="1" d="M 278.5 271 L 281 272.5 Q 282.1 275.8 279.5 275 L 260.5 283 L 259 280.5 L 278.5 271 Z " /><path fill="rgb(103,164,190)" stroke="rgb(103,164,190)" stroke-width="0.6" opacity="1" d="M 148.5 286 Q 178.5 286.5 191 304.5 Q 196.1 311.4 196 323.5 Q 193.3 340.3 182.5 349 Q 172.8 358.8 153.5 359 Q 139 356.5 132 346.5 Q 120.1 333.4 122 306.5 L 139.5 299 L 146.5 305 L 147 303.5 L 141 296.5 L 148.5 286 Z " /><path fill="rgb(103,164,190)" stroke="rgb(103,164,190)" stroke-width="0.6" opacity="1" d="M 474.5 289 L 477 289.5 Q 478.6 316.6 467.5 331 Q 456.7 339.2 438.5 340 L 438.5 337 Q 450 332.5 457 323.5 Q 469.6 310.1 474.5 289 Z " /><path fill="rgb(103,164,190)" stroke="rgb(103,164,190)" stroke-width="0.6" opacity="1" d="M 351.5 299 Q 357.4 296.9 356 301.5 L 359 309 L 349 301.5 L 350.5 300 L 351.5 299 Z " /><path fill="rgb(103,164,190)" stroke="rgb(103,164,190)" stroke-width="0.6" opacity="1" d="M 243.5 305 L 248 307.5 Q 248.1 313.1 244.5 315 L 239.5 316 L 238 310.5 L 240.5 307 L 243.5 305 Z " /><path fill="rgb(103,164,190)" stroke="rgb(103,164,190)" stroke-width="0.6" opacity="1" d="M 313 313 L 317 315.5 L 318 337.5 L 315.5 339 Q 310 331.5 312 316.5 L 313 313 Z " /><path fill="rgb(103,164,190)" stroke="rgb(103,164,190)" stroke-width="0.6" opacity="1" d="M 314.5 342 Q 319.3 341.3 320 344.5 Q 321.3 352.8 316.5 355 L 313.5 356 Q 309 355 310 348.5 L 312 343 L 314.5 342 Z " /><path fill="rgb(5,5,5)" stroke="rgb(5,5,5)" stroke-width="0.6" opacity="1" d="M 378.5 45 L 396.5 46 L 404.5 50 L 411 56.5 Q 423.3 71.5 421 100 L 419 99.5 L 419 81.5 Q 416.2 63.8 405.5 54 Q 398 45.5 380.5 47 L 370.5 50 L 359 57 L 361.5 53 L 378.5 45 Z " /><path fill="rgb(5,5,5)" stroke="rgb(5,5,5)" stroke-width="0.6" opacity="1" d="M 352.5 62 L 354 63.5 L 348 70.5 L 340 87.5 L 335 110.5 L 335 121.5 L 333.5 124 L 332 121.5 L 335 98.5 L 339 84.5 L 345 71.5 L 352.5 62 Z " /><path fill="rgb(5,5,5)" stroke="rgb(5,5,5)" stroke-width="0.6" opacity="1" d="M 266.5 69 L 276 72 Q 279.6 74.8 279 82.5 L 277 88.5 L 280 95.5 L 278 94.5 L 275.5 90 L 272.5 92 L 269 91 Q 267.8 88 271.5 89 L 275 86.5 Q 277.8 83.8 277 77.5 L 272.5 72 L 266.5 71 L 260 75.5 L 259 83.5 L 261 87.5 L 258 85.5 L 257 77.5 L 261.5 71 L 266.5 69 Z " /><path fill="rgb(5,5,5)" stroke="rgb(5,5,5)" stroke-width="0.6" opacity="1" d="M 462.5 84 L 473.5 84 L 488 90 L 487.5 92 Q 479.5 85 463.5 86 L 444.5 91 L 415 109 L 419.5 101 L 423.5 102 Q 438.7 88.7 462.5 84 Z " /><path fill="rgb(5,5,5)" stroke="rgb(5,5,5)" stroke-width="0.6" opacity="1" d="M 490 94 L 492 95.5 Q 502.4 105.6 499 129.5 Q 497.6 140.6 492.5 148 L 492 144.5 Q 499.3 132.8 497 111.5 Q 495.2 100.7 490 94 Z " /><path fill="rgb(5,5,5)" stroke="rgb(5,5,5)" stroke-width="0.6" opacity="1" d="M 196.5 97 Q 206.3 96.7 209 103.5 L 210 108.5 L 209 110.5 L 226 125.5 L 232 135.5 L 230 134.5 L 214.5 116 L 209 113 Q 207.5 116.7 210.5 116 L 210.5 117 L 206.5 116 Q 203.9 119.9 196.5 119 L 188 112.5 Q 186.7 101.2 193.5 98 L 196.5 97 Z M 196 99 L 190 105 L 191 113 L 197 117 L 204 116 L 208 110 L 206 103 Q 204 98 196 99 Z " /><path fill="rgb(5,5,5)" stroke="rgb(5,5,5)" stroke-width="0.6" opacity="1" d="M 280.5 97 L 284 107 Q 281 108.3 282 104.5 L 280.5 97 Z " /><path fill="rgb(5,5,5)" stroke="rgb(5,5,5)" stroke-width="0.6" opacity="1" d="M 276.5 98 L 280 108 Q 277 109.3 278 105.5 L 276.5 98 Z " /><path fill="rgb(5,5,5)" stroke="rgb(5,5,5)" stroke-width="0.6" opacity="1" d="M 411.5 110 L 414 110.5 L 393 130.5 L 394 127.5 L 411.5 110 Z " /><path fill="rgb(5,5,5)" stroke="rgb(5,5,5)" stroke-width="0.6" opacity="1" d="M 280 118 L 282 118.5 L 282 134.5 Q 280.3 137.8 278.5 134 L 255.5 135 L 234 143 L 232.5 145 L 222 153.5 Q 212.6 162.6 208 176.5 Q 205 181.5 206 190.5 L 201 202.5 L 200 211.5 Q 204 234.5 220.5 245 L 233.5 252 L 244.5 255 L 246.5 254 Q 251.8 261 264 260 Q 265.4 264 258.5 262 L 223.5 249 L 208 235.5 L 199 218.5 L 199 202.5 L 203 194.5 Q 203.3 180.3 208 170.5 Q 213.8 157.8 223.5 149 L 230 143.5 L 230.5 141 Q 232 144.5 233.5 142 Q 250.3 130.1 280 132 L 280 118 Z " /><path fill="rgb(5,5,5)" stroke="rgb(5,5,5)" stroke-width="0.6" opacity="1" d="M 213.5 119 L 223 127.5 L 229 137.5 L 226 135.5 L 213.5 119 Z " /><path fill="rgb(5,5,5)" stroke="rgb(5,5,5)" stroke-width="0.6" opacity="1" d="M 332 129 Q 336 127.6 334 134.5 L 338 165.5 L 342 178 L 335.5 179 L 333 181.5 L 334 198.5 Q 331.8 220.8 319.5 233 L 319 231.5 L 323 226.5 L 330 210.5 L 332 190.5 L 329 173.5 L 319 154 L 322 155.5 L 333.5 178 L 339 175.5 L 335 160.5 L 332 129 Z " /><path fill="rgb(5,5,5)" stroke="rgb(5,5,5)" stroke-width="0.6" opacity="1" d="M 390.5 132 L 392 133.5 L 375 156.5 L 362.5 180 L 362 177.5 L 371 159.5 L 383.5 141 Q 386.1 141.8 385 138.5 L 390.5 132 Z " /><path fill="rgb(5,5,5)" stroke="rgb(5,5,5)" stroke-width="0.6" opacity="1" d="M 285.5 133 Q 302.5 136.5 313 146.5 L 311.5 148 Q 302.9 138.1 286.5 136 L 284 135.5 L 285.5 133 Z " /><path fill="rgb(5,5,5)" stroke="rgb(5,5,5)" stroke-width="0.6" opacity="1" d="M 491.5 149 L 492 150.5 L 483 166 L 481 167.5 L 478.5 171 L 477 169.5 L 479.5 166 L 482 164.5 L 491.5 149 Z " /><path fill="rgb(5,5,5)" stroke="rgb(5,5,5)" stroke-width="0.6" opacity="1" d="M 115 157 L 124.5 157 L 125 159 L 115.5 159 L 115 157 Z " /><path fill="rgb(5,5,5)" stroke="rgb(5,5,5)" stroke-width="0.6" opacity="1" d="M 107.5 158 L 113 158.5 L 93 167 L 94.5 164 L 107.5 158 Z " /><path fill="rgb(5,5,5)" stroke="rgb(5,5,5)" stroke-width="0.6" opacity="1" d="M 127.5 158 Q 144.4 159.6 151 171.5 Q 158.6 181.4 158 199.5 L 153 220 L 167.5 214 L 178.5 214 L 189.5 218 L 201 227.5 Q 208.6 235.8 210 249 L 208 247.5 Q 205.3 232.7 195.5 225 Q 188.4 215.6 171.5 216 L 159.5 219 L 144 232.5 L 134 246.5 L 135 249 L 138 250.5 L 143 258.5 L 140 256.5 L 131 246.5 L 137 241.5 L 145 230.5 L 153 214.5 L 156 192.5 L 155 184.5 L 153 182.5 L 151 174 L 147 171.5 L 140.5 164 L 128.5 160 L 127.5 158 Z " /><path fill="rgb(5,5,5)" stroke="rgb(5,5,5)" stroke-width="0.6" opacity="1" d="M 280 160 Q 286.2 159.2 289 163.5 L 288.5 165 L 280 162 L 280 160 Z " /><path fill="rgb(5,5,5)" stroke="rgb(5,5,5)" stroke-width="0.6" opacity="1" d="M 87.5 170 L 90 170.5 L 89 173 L 86 174.5 L 80 186.5 L 79 205.5 L 82 216.5 L 90 228.5 L 89 228.5 L 77.5 216 L 60.5 207 L 44.5 207 L 31.5 214 L 31 211.5 L 35 210 Q 33.7 206.7 38.5 208 L 40.5 206 L 54.5 204 L 64.5 206 L 77.5 214 L 79 211.5 Q 74.6 203.9 77 189.5 L 83 175.5 L 87.5 170 Z " /><path fill="rgb(5,5,5)" stroke="rgb(5,5,5)" stroke-width="0.6" opacity="1" d="M 351 179 L 359.5 183 L 362 181.5 L 361 183.5 L 367 189.5 L 367 194.5 L 375.5 206 L 408.5 206 L 419.5 204 L 442.5 196 L 469 179 L 466.5 183 Q 446.9 200.8 416 206 L 417.5 209 Q 435.4 213.6 447 224.5 L 445.5 226 L 443 225 L 445 232.5 L 446 247.5 Q 440.9 297.4 409.5 321 L 393 330.5 L 394.5 333 Q 404.2 338.8 418.5 340 Q 434.5 332.5 445 319.5 Q 457.3 305.3 464 285.5 L 468 268.5 L 469 254.5 Q 466.3 246.2 460 241.5 L 460 239 L 463 240.5 L 476 265.5 L 480 284.5 L 480 305.5 L 474 327.5 L 467.5 335 L 459.5 339 L 443.5 343 L 420.5 343 L 418.5 341 L 406.5 340 L 392.5 334 L 392 336.5 L 393 340 L 391 338.5 L 373 312.5 L 376.5 315 Q 390.6 309.6 399 298.5 Q 413 283 420 260.5 Q 426.1 244.1 424 219.5 L 423 213 Q 414.1 206.5 396.5 208 L 395 212.5 L 397 224.5 Q 393.1 266.6 368 287.5 L 372 297.5 L 370 298 Q 366.4 281 355.5 270 L 352 269.5 L 355 268 Q 359.6 262.9 360 254 Q 364.8 255.9 364 252.5 L 367 248.5 L 369 237.5 L 368 235 L 370.5 236 Q 375.1 231.1 373 219.5 L 370 212.5 Q 372 215.7 374 212.5 Q 372.6 200.4 364.5 195 L 361 194 L 362.5 192 L 364.5 193 L 366 191.5 L 359.5 185 Q 356.3 182 350 183 L 351 179 Z M 475 280 Q 472 304 459 320 Q 449 332 434 339 Q 430 338 431 341 L 450 340 L 466 334 L 473 326 L 478 303 L 477 290 L 477 281 L 475 280 Z " /><path fill="rgb(5,5,5)" stroke="rgb(5,5,5)" stroke-width="0.6" opacity="1" d="M 219.5 181 L 214.5 187 L 215 185.5 L 217.5 182 L 219.5 181 Z " /><path fill="rgb(5,5,5)" stroke="rgb(5,5,5)" stroke-width="0.6" opacity="1" d="M 282.5 188 L 285.5 188 L 291 192.5 L 292 207.5 Q 290.1 212.6 282.5 212 L 277 208.5 Q 273.9 203.9 275 196 Q 278.3 197.3 277 192.5 L 282.5 188 Z M 281 191 L 278 196 L 284 199 L 286 194 Q 285 190 281 191 Z " /><path fill="rgb(5,5,5)" stroke="rgb(5,5,5)" stroke-width="0.6" opacity="1" d="M 224.5 190 L 231.5 190 L 237 194.5 Q 237.7 207.2 230.5 212 L 227.5 213 L 221 208.5 L 220 196.5 L 224.5 190 Z M 228 191 L 224 194 Q 223 199 227 200 L 230 198 Q 231 192 228 191 Z " /><path fill="rgb(5,5,5)" stroke="rgb(5,5,5)" stroke-width="0.6" opacity="1" d="M 29.5 213 L 30 214.5 L 24 223 Q 20.3 224.5 21 221.5 L 27.5 214 L 29.5 213 Z " /><path fill="rgb(5,5,5)" stroke="rgb(5,5,5)" stroke-width="0.6" opacity="1" d="M 19 225 L 21 226.5 L 16 239.5 L 16 256.5 L 23 274 L 25 275.5 L 28 280 L 23 276.5 L 15 261.5 L 14 238.5 L 19 225 Z " /><path fill="rgb(5,5,5)" stroke="rgb(5,5,5)" stroke-width="0.6" opacity="1" d="M 272.5 225 Q 276.3 224 275 227 Q 272 225.8 273 229.5 L 270.5 233 Q 269 230.5 267.5 234 Q 263.3 238 256 238 Q 254.7 234.7 259.5 236 Q 268.2 233.2 273 226.5 L 272.5 225 Z " /><path fill="rgb(5,5,5)" stroke="rgb(5,5,5)" stroke-width="0.6" opacity="1" d="M 448.5 226 L 458 234.5 L 456.5 236 L 448.5 226 Z " /><path fill="rgb(5,5,5)" stroke="rgb(5,5,5)" stroke-width="0.6" opacity="1" d="M 317.5 234 L 318 235.5 L 302.5 249 L 279 259.5 L 280 268.5 L 282.5 271 L 286 272.5 L 286 274.5 L 292.5 281 L 294 283 L 285 289 L 276 303.5 L 275 311 Q 271.7 312.3 273 307.5 L 277 296.5 L 283.5 289 L 285 287.5 L 290 281.5 L 282.5 276 L 279.5 279 L 260 287.5 L 251 305.5 L 251 310.5 L 247.5 315 L 247 313.5 L 249 307.5 L 243.5 304 L 237 309.5 Q 235.8 315.8 239.5 317 L 245.5 316 L 243.5 319 Q 236.6 319.9 235 315.5 Q 233.7 306.1 239.5 304 L 246 301 L 247.5 304 L 251 302.5 L 259 284 L 265.5 283 L 282 276 L 283 273.5 L 278.5 270 L 262.5 276 L 254 283.5 L 247 298 L 245 296.5 Q 248.5 285 256.5 278 L 278 267.5 Q 278.7 261.3 275.5 259 L 266 261 Q 264.8 258 268.5 259 L 297.5 250 L 317.5 234 Z " /><path fill="rgb(5,5,5)" stroke="rgb(5,5,5)" stroke-width="0.6" opacity="1" d="M 249.5 242 L 251 245 L 254.5 247 L 255.5 249 L 250 244.5 L 249.5 242 Z " /><path fill="rgb(5,5,5)" stroke="rgb(5,5,5)" stroke-width="0.6" opacity="1" d="M 209.5 251 L 211 257.5 L 210 265.5 L 207.5 268 L 207 263.5 Q 210.9 259.9 209.5 251 Z " /><path fill="rgb(5,5,5)" stroke="rgb(5,5,5)" stroke-width="0.6" opacity="1" d="M 143.5 260 Q 147.4 262.3 147 268 Q 144 269.3 145 265.5 L 143.5 260 Z " /><path fill="rgb(5,5,5)" stroke="rgb(5,5,5)" stroke-width="0.6" opacity="1" d="M 206.5 269 L 207 271.5 L 198.5 283 L 182 290 L 183 294 L 185.5 294 L 193 301.5 L 198 312.5 L 199 323.5 Q 196.7 342.7 184.5 352 L 167.5 361 L 153.5 362 L 146.5 361 L 135 355 L 133.5 353 L 127.5 346 L 126 349 Q 122.3 350.4 124 344.5 L 125 339.5 L 122 333 Q 119 331.8 120 335.5 L 116 344.5 L 116 360 Q 112 361.4 114 354.5 Q 112 351 110 355.5 L 104.5 362 L 92.5 369 L 78.5 370 L 71.5 369 L 59 363 Q 60.3 360 56.5 361 L 52 355.5 L 53.5 355 L 68.5 366 Q 73.8 365.2 75.5 368 L 87.5 368 L 103 361 L 107.5 355 L 109 353.5 L 115 344.5 L 120 327.5 L 119 323 L 122 324.5 L 121 327.5 L 131 348 L 135 350.5 L 136.5 352 L 150.5 360 L 163.5 360 L 183 351 L 186.5 346 L 188 344.5 L 195 333.5 Q 194.2 328.2 197 326.5 L 197 315.5 Q 193.2 301.3 182.5 294 L 172 290 L 172.5 288 L 181.5 288 L 189.5 286 L 203 274.5 L 205 273 L 205 270.5 L 206.5 269 Z " /><path fill="rgb(5,5,5)" stroke="rgb(5,5,5)" stroke-width="0.6" opacity="1" d="M 346 273 Q 349 271.8 348 275.5 L 357 298 L 354.5 297 L 348 299 L 348 301.5 L 355.5 309 L 360.5 313 Q 362.8 308.7 365 313.5 L 368 317.5 L 367 319.5 L 369 325.5 L 367 324.5 Q 367.1 318.9 363.5 317 L 349 306 L 357 321.5 L 362 336.5 L 360.5 337 L 358.5 336 L 356.5 337 L 358 334.5 L 357 326.5 L 347 307.5 L 347 302.5 L 337 287 L 335 288.5 Q 330 304 320 314.5 L 320 319.5 L 321 320.5 L 321 340.5 L 323 349.5 Q 322.6 355.1 318.5 357 L 313.5 359 L 308 355.5 L 307 348.5 L 311 340.5 L 311 336.5 Q 307.3 329.3 309 316.5 L 313 304.5 L 323 289.5 L 322 287.5 L 326 284.5 L 322 295.5 L 313 309.5 L 313 311.5 L 311 315.5 L 311 331.5 L 314.5 340 L 319 338.5 L 318 313.5 Q 330 301.3 334 282 L 338.5 283 L 343 279.5 L 346 273 Z M 314 341 L 309 348 L 310 355 Q 312 358 318 356 L 321 351 Q 322 343 319 341 L 317 342 L 314 341 Z " /><path fill="rgb(5,5,5)" stroke="rgb(5,5,5)" stroke-width="0.6" opacity="1" d="M 296 278 L 298 279.5 Q 301.4 285.6 310.5 286 L 312.5 281 Q 315 285.8 321 286 Q 322.3 289 318.5 288 L 314.5 285 L 312 286 Q 313.3 289 309.5 288 L 301.5 286 L 285.5 303 Q 282.5 302.6 284 309 L 282 309 Q 280.3 301.9 284.5 300 L 296 289.5 L 299 283 Q 293.8 284.7 296 278 Z " /><path fill="rgb(5,5,5)" stroke="rgb(5,5,5)" stroke-width="0.6" opacity="1" d="M 33.5 283 Q 42.1 290.4 58.5 290 L 61.5 289 L 64.5 290 L 69 288 L 67.5 290 L 63 291 L 61.5 293 L 55.5 298 L 55 295.5 L 57 292 L 45.5 291 L 33 284.5 L 33.5 283 Z " /><path fill="rgb(5,5,5)" stroke="rgb(5,5,5)" stroke-width="0.6" opacity="1" d="M 94.5 288 L 101 296.5 L 96 292.5 L 94.5 288 Z " /><path fill="rgb(5,5,5)" stroke="rgb(5,5,5)" stroke-width="0.6" opacity="1" d="M 51.5 299 L 54 299.5 L 46 310.5 L 43 328.5 L 46 343.5 L 51 352.5 L 47 349.5 L 42 337.5 L 41 321.5 L 43 312.5 L 51.5 299 Z " /><path fill="rgb(5,5,5)" stroke="rgb(5,5,5)" stroke-width="0.6" opacity="1" d="M 371 300 Q 374.3 298.7 373 303.5 L 374 309 Q 370.3 310.4 372 304.5 L 371 300 Z " /><path fill="rgb(5,5,5)" stroke="rgb(5,5,5)" stroke-width="0.6" opacity="1" d="M 336 301 L 338 302.5 L 342 308.5 L 341 313.5 Q 343.9 326.3 350 335 L 354 337.5 L 352.5 339 L 343 325.5 L 339 313.5 L 339 307.5 L 336 301 Z " /><path fill="rgb(5,5,5)" stroke="rgb(5,5,5)" stroke-width="0.6" opacity="1" d="M 120.5 303 L 122 305 Q 118.3 303.6 120 309.5 L 119 309.5 Q 120.9 304.1 117.5 305 L 117.5 304 L 120.5 303 Z " /><path fill="rgb(5,5,5)" stroke="rgb(5,5,5)" stroke-width="0.6" opacity="1" d="M 273 321 Q 276 319.8 275 323.5 L 277 327 L 272 329.5 L 270 336.5 L 272.5 340 Q 279.8 341.3 281 336.5 L 283 335 L 278.5 342 Q 270.7 343.8 269 339.5 L 268 333.5 L 273 325.5 L 273 321 Z " /><path fill="rgb(5,5,5)" stroke="rgb(5,5,5)" stroke-width="0.6" opacity="1" d="M 280 322 Q 284 320.6 282 327.5 L 283 330 L 281 328.5 L 279 325.5 L 280 322 Z " /><path fill="rgb(5,5,5)" stroke="rgb(5,5,5)" stroke-width="0.6" opacity="1" d="M 370.5 328 L 385.5 347 L 388 348.5 L 385 350 L 383.5 347 L 378 342.5 L 371 332.5 L 370.5 328 Z " /><path fill="rgb(5,5,5)" stroke="rgb(5,5,5)" stroke-width="0.6" opacity="1" d="M 363.5 338 L 366 340.5 L 367 346.5 Q 366.6 352.1 362.5 354 Q 354.5 355.5 353 350.5 L 352 345 Q 355 343.8 354 347.5 L 357.5 352 Q 363 353 364 349.5 L 365 344.5 L 363.5 338 Z " /><path fill="rgb(5,5,5)" stroke="rgb(5,5,5)" stroke-width="0.6" opacity="1" d="M 392 342 L 394 343.5 L 395 346 L 398 347.5 L 401 357.5 Q 400.6 363.1 396.5 365 Q 389.3 366 387 363 L 385 354 Q 388.3 352.7 387 357.5 L 388 362 L 395.5 363 Q 399.7 361.7 399 355.5 Q 398.1 348.9 393.5 346 L 391 345.5 L 392 342 Z " /><path fill="rgb(5,5,5)" stroke="rgb(5,5,5)" stroke-width="0.6" opacity="1" d="M 219.5 352 L 239.5 353 L 247 355.5 L 243.5 361 L 242 362.5 L 236 369.5 L 226 396.5 L 218.5 409 Q 215.9 409.8 217 406.5 L 225 394.5 L 233 370.5 L 243 356 L 239.5 355 L 210.5 355 L 191.5 360 L 173 371 L 174.5 368 L 193.5 357 L 219.5 352 Z " /><path fill="rgb(5,5,5)" stroke="rgb(5,5,5)" stroke-width="0.6" opacity="1" d="M 125 353 L 127 353.5 L 127 363.5 L 139 420 Q 135.7 421.3 137 416.5 L 127 376.5 L 125 353 Z " /><path fill="rgb(5,5,5)" stroke="rgb(5,5,5)" stroke-width="0.6" opacity="1" d="M 115 364 Q 118.8 362.9 117 371.5 L 128 413.5 L 130 428 Q 126 429.4 128 422.5 L 117 382.5 L 115 364 Z " /><path fill="rgb(5,5,5)" stroke="rgb(5,5,5)" stroke-width="0.6" opacity="1" d="M 32 374 L 44.5 374 L 45 376 L 36.5 376 L 35 377.5 L 44 390.5 L 44 393.5 L 54 412.5 L 52.5 413 Q 44.9 403.1 41 389.5 L 31 376.5 L 32 374 Z " /><path fill="rgb(5,5,5)" stroke="rgb(5,5,5)" stroke-width="0.6" opacity="1" d="M 50 374 Q 80.7 374.5 98 389.5 L 99.5 391 L 109 399.5 L 110 403 L 107 401.5 L 100.5 394 L 98 392.5 Q 98.8 389.9 95.5 391 Q 79.6 376.1 50 376 L 50 374 Z " /><path fill="rgb(5,5,5)" stroke="rgb(5,5,5)" stroke-width="0.6" opacity="1" d="M 164.5 378 L 166 379.5 L 156 393.5 L 148 415.5 L 145 430 Q 141.7 431.3 143 426.5 L 153 396.5 L 164.5 378 Z " /><path fill="rgb(5,5,5)" stroke="rgb(5,5,5)" stroke-width="0.6" opacity="1" d="M 111 405 L 115 407.5 Q 123.6 420.7 127 438 Q 124 439.3 125 435.5 L 117 414.5 L 111 405 Z " /><path fill="rgb(5,5,5)" stroke="rgb(5,5,5)" stroke-width="0.6" opacity="1" d="M 215.5 410 L 217 410.5 L 207.5 421 L 205 420.5 L 215.5 410 Z " /><path fill="rgb(5,5,5)" stroke="rgb(5,5,5)" stroke-width="0.6" opacity="1" d="M 201.5 422 L 204 422.5 L 194.5 429 L 167.5 437 L 149.5 447 L 153.5 442 L 167.5 435 L 191.5 428 L 201.5 422 Z " /><path fill="rgb(5,5,5)" stroke="rgb(5,5,5)" stroke-width="0.6" opacity="1" d="M 64 426 L 68 427.5 L 69.5 429 L 80.5 437 L 109.5 446 L 122 454.5 L 123.5 457 L 126 455.5 L 126.5 454 L 127 457.5 L 125 463 Q 122 464.3 123 460.5 L 115.5 451 L 85.5 441 L 68 430.5 Q 68.8 427.9 65.5 429 L 64 426 Z " /><path fill="rgb(5,5,5)" stroke="rgb(5,5,5)" stroke-width="0.6" opacity="1" d="M 139 430 L 141 431.5 L 144 432.5 L 141 444 L 139 443.5 L 139 430 Z " /><path fill="rgb(5,5,5)" stroke="rgb(5,5,5)" stroke-width="0.6" opacity="1" d="M 129 432 L 131 432.5 L 131 440.5 L 130 448 L 128 446.5 L 126 440.5 L 129 439 L 129 432 Z " /><path fill="rgb(5,5,5)" stroke="rgb(5,5,5)" stroke-width="0.6" opacity="1" d="M 144.5 451 L 145 453.5 L 140.5 459 Q 137.9 458.2 139 461.5 L 136.5 465 L 136 461.5 L 139.5 455 L 144.5 451 Z " /><path fill="rgb(23,23,25)" stroke="rgb(23,23,25)" stroke-width="0.6" opacity="1" d="M 357.5 56 L 360.5 57 L 362 56.5 L 355 62.5 L 353.5 65 L 354 63.5 L 353 61.5 L 357.5 56 Z " /><path fill="rgb(23,23,25)" stroke="rgb(23,23,25)" stroke-width="0.6" opacity="1" d="M 484.5 90 L 487.5 92 Q 489.3 89.3 491 93.5 L 490 95.5 L 491.5 98 L 487.5 93 L 484.5 90 Z " /><path fill="rgb(23,23,25)" stroke="rgb(23,23,25)" stroke-width="0.6" opacity="1" d="M 413.5 108 L 416 109.5 L 411 113.5 L 413.5 110 L 412 109.5 L 413.5 108 Z " /><path fill="rgb(23,23,25)" stroke="rgb(23,23,25)" stroke-width="0.6" opacity="1" d="M 334.5 122 L 335 134.5 L 334 134.5 L 334 129.5 Q 330.5 130.5 332 123.5 L 334 123.5 L 334.5 122 Z " /><path fill="rgb(23,23,25)" stroke="rgb(23,23,25)" stroke-width="0.6" opacity="1" d="M 398.5 126 L 392.5 133 L 392 130.5 L 393.5 128 L 393 129.5 L 393.5 131 L 398.5 126 Z " /><path fill="rgb(23,23,25)" stroke="rgb(23,23,25)" stroke-width="0.6" opacity="1" d="M 231.5 134 L 231.5 136 L 233 136.5 L 232.5 138 L 234 140 L 236.5 140 L 236.5 141 L 232.5 143 L 233 141.5 L 230 135.5 L 231.5 134 Z " /><path fill="rgb(23,23,25)" stroke="rgb(23,23,25)" stroke-width="0.6" opacity="1" d="M 228.5 136 L 228.5 138 L 230 138.5 L 229.5 140 L 231 140.5 L 229 141.5 L 227 137.5 L 228.5 136 Z " /><path fill="rgb(23,23,25)" stroke="rgb(23,23,25)" stroke-width="0.6" opacity="1" d="M 491.5 145 L 493 149.5 L 490 150.5 L 490.5 152 L 492 151.5 L 490.5 154 L 489.5 152 L 488 152.5 L 491.5 145 Z " /><path fill="rgb(23,23,25)" stroke="rgb(23,23,25)" stroke-width="0.6" opacity="1" d="M 313.5 147 L 318 150.5 L 320 153.5 L 319 155.5 L 319.5 157 L 312 148.5 L 313.5 147 Z " /><path fill="rgb(23,23,25)" stroke="rgb(23,23,25)" stroke-width="0.6" opacity="1" d="M 91.5 166 L 94 167.5 L 89 171.5 L 89.5 170 L 88 169.5 L 91.5 166 Z " /><path fill="rgb(23,23,25)" stroke="rgb(23,23,25)" stroke-width="0.6" opacity="1" d="M 476.5 170 L 478 171.5 L 469.5 180 L 468 178.5 L 476.5 170 Z " /><path fill="rgb(23,23,25)" stroke="rgb(23,23,25)" stroke-width="0.6" opacity="1" d="M 278 177 L 286 178 L 286.5 180 L 288 179.5 L 285.5 180 L 278 179 L 278 177 Z " /><path fill="rgb(23,23,25)" stroke="rgb(23,23,25)" stroke-width="0.6" opacity="1" d="M 361.5 179 L 363 181.5 L 363 183.5 L 362.5 185 L 360.5 182 L 359 182.5 L 361.5 179 Z " /><path fill="rgb(23,23,25)" stroke="rgb(23,23,25)" stroke-width="0.6" opacity="1" d="M 291.5 183 L 295 191 Q 292 192.3 293 188.5 L 291.5 183 Z " /><path fill="rgb(23,23,25)" stroke="rgb(23,23,25)" stroke-width="0.6" opacity="1" d="M 377.5 205 L 390 205.5 L 377.5 206 L 377.5 205 Z " /><path fill="rgb(23,23,25)" stroke="rgb(23,23,25)" stroke-width="0.6" opacity="1" d="M 29.5 212 L 31 213.5 L 33 213.5 L 26 219.5 L 24.5 222 L 25 220.5 L 30 213.5 L 28 213.5 L 29.5 212 Z " /><path fill="rgb(23,23,25)" stroke="rgb(23,23,25)" stroke-width="0.6" opacity="1" d="M 447.5 225 L 448.5 227 L 450 226.5 L 450 228.5 L 452 231.5 L 446 226.5 L 447.5 225 Z " /><path fill="rgb(23,23,25)" stroke="rgb(23,23,25)" stroke-width="0.6" opacity="1" d="M 90.5 228 L 94 235 L 96 235.5 L 94.5 236 L 90 230.5 L 90.5 228 Z " /><path fill="rgb(23,23,25)" stroke="rgb(23,23,25)" stroke-width="0.6" opacity="1" d="M 147.5 229 L 144.5 233 L 143 232.5 L 144 234.5 Q 142.5 237.5 141 234.5 L 144.5 230 Q 146 232.5 147.5 229 Z " /><path fill="rgb(23,23,25)" stroke="rgb(23,23,25)" stroke-width="0.6" opacity="1" d="M 321.5 231 L 318.5 235 L 316 234.5 L 321.5 231 Z " /><path fill="rgb(23,23,25)" stroke="rgb(23,23,25)" stroke-width="0.6" opacity="1" d="M 454.5 234 L 457.5 236 L 459 235.5 L 461 238.5 L 459.5 240 L 454.5 234 Z " /><path fill="rgb(23,23,25)" stroke="rgb(23,23,25)" stroke-width="0.6" opacity="1" d="M 108.5 241 L 110 243 L 101.5 246 L 102.5 244 L 108.5 241 Z " /><path fill="rgb(23,23,25)" stroke="rgb(23,23,25)" stroke-width="0.6" opacity="1" d="M 120 241 L 131 245.5 L 132 247.5 L 129.5 246 L 120 243 L 120 241 Z " /><path fill="rgb(23,23,25)" stroke="rgb(23,23,25)" stroke-width="0.6" opacity="1" d="M 217.5 241 L 221 244.5 L 221.5 248 L 217.5 241 Z " /><path fill="rgb(23,23,25)" stroke="rgb(23,23,25)" stroke-width="0.6" opacity="1" d="M 98.5 243 L 100 244.5 L 99 246.5 L 100 247.5 L 95.5 252 Q 92.5 250.5 95.5 249 L 98 248.5 L 98 246.5 L 99 244.5 L 98.5 243 Z " /><path fill="rgb(23,23,25)" stroke="rgb(23,23,25)" stroke-width="0.6" opacity="1" d="M 251.5 244 L 252.5 247 L 254 246.5 L 253.5 248 L 255.5 249 L 258 248 Q 259.3 251 255.5 250 L 250 245.5 L 251.5 244 Z " /><path fill="rgb(23,23,25)" stroke="rgb(23,23,25)" stroke-width="0.6" opacity="1" d="M 208 249 Q 212.5 247.3 211 252.5 L 210 252.5 L 209.5 251 L 208.5 261 L 208 249 Z " /><path fill="rgb(23,23,25)" stroke="rgb(23,23,25)" stroke-width="0.6" opacity="1" d="M 142.5 257 L 146 261.5 L 144 261.5 L 143.5 263 L 143 261.5 L 143.5 260 L 142 259.5 L 142.5 257 Z " /><path fill="rgb(23,23,25)" stroke="rgb(23,23,25)" stroke-width="0.6" opacity="1" d="M 25.5 275 L 34 285.5 L 32.5 285 L 25 279.5 L 26.5 280 L 28 278.5 L 25.5 275 Z " /><path fill="rgb(23,23,25)" stroke="rgb(23,23,25)" stroke-width="0.6" opacity="1" d="M 144.5 285 L 146 287.5 L 142.5 293 L 142.5 290 L 144 289.5 L 143.5 288 L 145 287.5 L 144.5 285 Z " /><path fill="rgb(23,23,25)" stroke="rgb(23,23,25)" stroke-width="0.6" opacity="1" d="M 321 286 L 323 286.5 L 322 288.5 L 325 289.5 L 323.5 292 L 321 286 Z " /><path fill="rgb(23,23,25)" stroke="rgb(23,23,25)" stroke-width="0.6" opacity="1" d="M 183.5 293 L 185 293.5 L 183 294.5 L 188.5 301 L 182 294.5 L 183.5 293 Z " /><path fill="rgb(23,23,25)" stroke="rgb(23,23,25)" stroke-width="0.6" opacity="1" d="M 54.5 296 L 55.5 298 L 57 297.5 L 53 300.5 L 53.5 299 L 52 298.5 L 54.5 296 Z " /><path fill="rgb(23,23,25)" stroke="rgb(23,23,25)" stroke-width="0.6" opacity="1" d="M 105.5 298 L 107.5 301 L 109 300.5 L 109.5 302 L 111.5 301 L 115 302 L 113.5 304 L 104 299.5 L 105.5 298 Z " /><path fill="rgb(23,23,25)" stroke="rgb(23,23,25)" stroke-width="0.6" opacity="1" d="M 132.5 300 L 135 300.5 L 126 304 Q 124.7 300.7 129.5 302 L 132 301.5 L 132.5 300 Z " /><path fill="rgb(23,23,25)" stroke="rgb(23,23,25)" stroke-width="0.6" opacity="1" d="M 117.5 303 L 120 303.5 L 117 304.5 L 119 305 L 119.5 310 L 120 305 L 124 303 L 122.5 305 Q 119.3 306.9 121 313 Q 118 314.3 119 310.5 L 116 304.5 L 117.5 303 Z " /><path fill="rgb(23,23,25)" stroke="rgb(23,23,25)" stroke-width="0.6" opacity="1" d="M 418.5 312 L 412.5 319 L 418.5 312 Z " /><path fill="rgb(23,23,25)" stroke="rgb(23,23,25)" stroke-width="0.6" opacity="1" d="M 249.5 313 L 245.5 318 L 246.5 314 Q 248 316.5 249.5 313 Z " /><path fill="rgb(23,23,25)" stroke="rgb(23,23,25)" stroke-width="0.6" opacity="1" d="M 196.5 315 L 197 326.5 L 196 326.5 L 196.5 315 Z " /><path fill="rgb(23,23,25)" stroke="rgb(23,23,25)" stroke-width="0.6" opacity="1" d="M 368.5 321 L 372 328.5 L 369 328.5 L 368 326.5 L 369 323.5 L 368.5 321 Z " /><path fill="rgb(23,23,25)" stroke="rgb(23,23,25)" stroke-width="0.6" opacity="1" d="M 50.5 350 L 55 355.5 L 53.5 355 L 52 355.5 L 52.5 357 L 48 351.5 L 51 352.5 L 50.5 350 Z " /><path fill="rgb(23,23,25)" stroke="rgb(23,23,25)" stroke-width="0.6" opacity="1" d="M 172.5 370 L 174 371.5 L 166.5 379 Q 163.3 377.3 167 375.5 L 169.5 372 L 172.5 370 Z " /><path fill="rgb(23,23,25)" stroke="rgb(23,23,25)" stroke-width="0.6" opacity="1" d="M 42.5 373 L 49.5 373 L 50 376 L 51.5 376 L 51.5 377 L 45.5 376 L 41.5 377 L 41.5 376 Q 46.3 377.3 45 374 L 42.5 373 Z " /><path fill="rgb(23,23,25)" stroke="rgb(23,23,25)" stroke-width="0.6" opacity="1" d="M 100.5 394 L 106.5 401 L 100.5 394 Z " /><path fill="rgb(23,23,25)" stroke="rgb(23,23,25)" stroke-width="0.6" opacity="1" d="M 216.5 408 L 218 410.5 L 216 411.5 L 216.5 410 L 213.5 412 L 216.5 408 Z " /><path fill="rgb(23,23,25)" stroke="rgb(23,23,25)" stroke-width="0.6" opacity="1" d="M 207.5 417 L 205.5 421 L 207 421.5 L 203.5 424 L 203.5 422 L 202 421.5 L 207.5 417 Z " /><path fill="rgb(23,23,25)" stroke="rgb(23,23,25)" stroke-width="0.6" opacity="1" d="M 58.5 418 L 65.5 426 L 63.5 427 Q 59 424.3 60 421.5 L 58.5 420 L 58.5 422 L 57 419.5 L 58.5 418 Z " /><path fill="rgb(23,23,25)" stroke="rgb(23,23,25)" stroke-width="0.6" opacity="1" d="M 150.5 444 L 149.5 447 L 151 447.5 L 146 451.5 L 145.5 453 L 144.5 451 L 142 452.5 L 150.5 444 Z " /><path fill="rgb(23,23,25)" stroke="rgb(23,23,25)" stroke-width="0.6" opacity="1" d="M 126.5 453 Q 129.1 452.2 128 455.5 L 127 455.5 L 126.5 454 L 124.5 457 L 122 455.5 L 123.5 456 L 125 454.5 L 126.5 453 Z " /><path fill="rgb(68,68,64)" stroke="rgb(68,68,64)" stroke-width="0.6" opacity="1" d="M 481.5 90 L 483.5 90 L 490 96.5 L 488.5 97 L 481.5 90 Z " /><path fill="rgb(68,68,64)" stroke="rgb(68,68,64)" stroke-width="0.6" opacity="1" d="M 197.5 99 Q 201.3 98 200 101 L 193 103.5 L 191.5 106 L 190 105.5 L 194.5 100 L 197.5 99 Z " /><path fill="rgb(68,68,64)" stroke="rgb(68,68,64)" stroke-width="0.6" opacity="1" d="M 416.5 109 L 418 109.5 L 412 114.5 L 416.5 109 Z " /><path fill="rgb(68,68,64)" stroke="rgb(68,68,64)" stroke-width="0.6" opacity="1" d="M 454.5 110 Q 457.5 111.5 454.5 113 L 449.5 116 L 450 114.5 Q 448.9 111.2 451.5 112 L 454.5 110 Z " /><path fill="rgb(68,68,64)" stroke="rgb(68,68,64)" stroke-width="0.6" opacity="1" d="M 446.5 114 L 447 116.5 L 433 126 L 434.5 122 L 446.5 114 Z " /><path fill="rgb(68,68,64)" stroke="rgb(68,68,64)" stroke-width="0.6" opacity="1" d="M 407.5 117 L 409 117.5 L 402 123.5 L 407.5 117 Z " /><path fill="rgb(68,68,64)" stroke="rgb(68,68,64)" stroke-width="0.6" opacity="1" d="M 229.5 134 L 229.5 136 L 231 136.5 L 230.5 138 L 232 138.5 L 230 139.5 L 228 135.5 L 229.5 134 Z " /><path fill="rgb(68,68,64)" stroke="rgb(68,68,64)" stroke-width="0.6" opacity="1" d="M 265.5 134 L 277 134.5 L 265.5 135 L 265.5 134 Z " /><path fill="rgb(68,68,64)" stroke="rgb(68,68,64)" stroke-width="0.6" opacity="1" d="M 442.5 144 L 444 144.5 L 442 145.5 L 445.5 146 L 447.5 145 L 447.5 146 L 438.5 148 L 439.5 146 L 442.5 144 Z " /><path fill="rgb(68,68,64)" stroke="rgb(68,68,64)" stroke-width="0.6" opacity="1" d="M 433.5 147 L 437 147.5 L 429 151 L 430.5 149 L 433.5 147 Z " /><path fill="rgb(68,68,64)" stroke="rgb(68,68,64)" stroke-width="0.6" opacity="1" d="M 420.5 152 L 424 152.5 L 423 155 L 419.5 154 L 413.5 159 L 413.5 157 Q 410.5 156.2 412 160 L 409 160 Q 407.5 156.2 410.5 157 L 420.5 152 Z " /><path fill="rgb(68,68,64)" stroke="rgb(68,68,64)" stroke-width="0.6" opacity="1" d="M 401.5 157 L 404.5 161 Q 406.3 157.3 408 160.5 L 401.5 165 Q 405.3 162 399.5 159 L 398.5 162 L 398 159.5 L 401.5 157 Z " /><path fill="rgb(68,68,64)" stroke="rgb(68,68,64)" stroke-width="0.6" opacity="1" d="M 293.5 191 L 295 192.5 L 296 195.5 L 295 197.5 L 295.5 199 Q 292.5 198.1 294 202.5 L 292 201.5 Q 291 196.5 294 197.5 L 294 192.5 L 293.5 191 Z " /><path fill="rgb(68,68,64)" stroke="rgb(68,68,64)" stroke-width="0.6" opacity="1" d="M 391 204 L 400.5 204 L 401 206 L 391.5 206 L 391 204 Z " /><path fill="rgb(68,68,64)" stroke="rgb(68,68,64)" stroke-width="0.6" opacity="1" d="M 121.5 225 L 122 229.5 L 120 233.5 L 121 236 L 119 237.5 L 118.5 240 L 118 237.5 L 117 234.5 L 118.5 229 L 119.5 231 L 121.5 225 Z " /><path fill="rgb(68,68,64)" stroke="rgb(68,68,64)" stroke-width="0.6" opacity="1" d="M 446.5 227 L 447 229.5 L 446 231.5 L 447 235 Q 443.7 236.3 445 231.5 L 444 229 Q 446.8 230 446.5 227 Z " /><path fill="rgb(68,68,64)" stroke="rgb(68,68,64)" stroke-width="0.6" opacity="1" d="M 349.5 299 L 349 300.5 L 353 305.5 L 348 301.5 L 349.5 299 Z " /><path fill="rgb(68,68,64)" stroke="rgb(68,68,64)" stroke-width="0.6" opacity="1" d="M 116.5 346 L 117 357.5 L 116 357.5 L 116.5 346 Z " /><path fill="rgb(68,68,64)" stroke="rgb(68,68,64)" stroke-width="0.6" opacity="1" d="M 217 355 L 231.5 355 L 232 357 L 217.5 357 L 217 355 Z " /><path fill="rgb(68,68,64)" stroke="rgb(68,68,64)" stroke-width="0.6" opacity="1" d="M 216.5 369 Q 220.3 368 219 371 L 209.5 374 L 209.5 373 L 216.5 369 Z " /><path fill="rgb(68,68,64)" stroke="rgb(68,68,64)" stroke-width="0.6" opacity="1" d="M 62.5 391 L 72 396.5 L 70.5 397 L 64 394.5 L 63.5 393 L 62 393.5 L 62.5 391 Z " /><path fill="rgb(68,68,64)" stroke="rgb(68,68,64)" stroke-width="0.6" opacity="1" d="M 82.5 401 L 93 408 Q 94.9 412.8 91.5 412 L 86.5 406 L 81 404 L 82.5 401 Z " /><path fill="rgb(68,68,64)" stroke="rgb(68,68,64)" stroke-width="0.6" opacity="1" d="M 95 411 L 100 414.5 Q 101.5 418.9 98.5 418 L 97.5 415 L 95 414.5 L 95 411 Z " /><path fill="rgb(68,68,64)" stroke="rgb(68,68,64)" stroke-width="0.6" opacity="1" d="M 114.5 432 L 116 436 L 121 439.5 Q 122.5 444.8 118 443 L 118 439.5 L 113 433.5 L 114.5 432 Z " /><path fill="rgb(68,68,64)" stroke="rgb(68,68,64)" stroke-width="0.6" opacity="1" d="M 149.5 443 L 151 443.5 L 144.5 450 L 143 448.5 L 149.5 443 Z " /><path fill="rgb(68,68,64)" stroke="rgb(68,68,64)" stroke-width="0.6" opacity="1" d="M 121.5 446 L 123 449 L 125.5 448 L 123.5 451 L 121 449.5 L 122 447.5 L 121.5 446 Z " /><path fill="rgb(90,93,93)" stroke="rgb(90,93,93)" stroke-width="0.6" opacity="1" d="M 381.5 82 L 383 82.5 L 377 87.5 L 381.5 82 Z " /><path fill="rgb(90,93,93)" stroke="rgb(90,93,93)" stroke-width="0.6" opacity="1" d="M 375.5 121 L 377 121.5 L 370 127.5 L 375.5 121 Z " /><path fill="rgb(90,93,93)" stroke="rgb(90,93,93)" stroke-width="0.6" opacity="1" d="M 447.5 143 L 452 144.5 L 442.5 146 L 442.5 145 L 447.5 143 Z " /><path fill="rgb(90,93,93)" stroke="rgb(90,93,93)" stroke-width="0.6" opacity="1" d="M 429 175 L 439 176 L 437.5 178 L 429 177 L 429 175 Z " /><path fill="rgb(90,93,93)" stroke="rgb(90,93,93)" stroke-width="0.6" opacity="1" d="M 295.5 293 L 288.5 301 L 295.5 293 Z " /><path fill="rgb(104,125,130)" stroke="rgb(104,125,130)" stroke-width="0.6" opacity="1" d="M 361.5 73 L 362 75.5 L 359 86 L 357 84.5 L 361.5 73 Z " /><path fill="rgb(104,125,130)" stroke="rgb(104,125,130)" stroke-width="0.6" opacity="1" d="M 374.5 90 L 375 91.5 L 365.5 105 L 364 105.5 L 364.5 107 L 363 107.5 L 363.5 109 L 362 107.5 L 364.5 104 L 366 103.5 L 366 101.5 L 374.5 90 Z " /><path fill="rgb(104,125,130)" stroke="rgb(104,125,130)" stroke-width="0.6" opacity="1" d="M 381.5 116 L 383 116.5 L 376.5 121 L 379.5 117 L 381.5 116 Z " /><path fill="rgb(104,125,130)" stroke="rgb(104,125,130)" stroke-width="0.6" opacity="1" d="M 365.5 132 L 366 134.5 L 362.5 139 L 361 139.5 L 361.5 141 Q 358.3 139.3 362 137.5 L 365.5 132 Z " /><path fill="rgb(104,125,130)" stroke="rgb(104,125,130)" stroke-width="0.6" opacity="1" d="M 359.5 141 L 360 143.5 L 356.5 151 L 355.5 148 L 354 153 L 356 153.5 L 355 156 L 353 155.5 L 353 146.5 L 355.5 145 L 355.5 147 Q 358.1 147.8 357 144.5 L 360 142.5 L 359.5 141 Z " /><path fill="rgb(104,125,130)" stroke="rgb(104,125,130)" stroke-width="0.6" opacity="1" d="M 352 165 L 354 165.5 L 354 178.5 L 354.5 180 Q 350 175.3 352 165 Z " /><path fill="rgb(104,125,130)" stroke="rgb(104,125,130)" stroke-width="0.6" opacity="1" d="M 367.5 233 L 368 243.5 L 367 243.5 L 367.5 233 Z " /><path fill="rgb(104,125,130)" stroke="rgb(104,125,130)" stroke-width="0.6" opacity="1" d="M 142.5 294 L 141 296.5 L 144 300.5 L 141.5 301 L 140 297.5 L 142.5 294 Z " /><path fill="rgb(104,125,130)" stroke="rgb(104,125,130)" stroke-width="0.6" opacity="1" d="M 183.5 296 L 189.5 303 L 183.5 296 Z " /><path fill="rgb(104,125,130)" stroke="rgb(104,125,130)" stroke-width="0.6" opacity="1" d="M 399.5 296 L 389.5 307 L 399.5 296 Z " /><path fill="rgb(104,125,130)" stroke="rgb(104,125,130)" stroke-width="0.6" opacity="1" d="M 315.5 313 Q 319.5 314.5 318 321.5 L 317 321.5 Q 317.9 314.5 315.5 313 Z " /><path fill="rgb(217,181,57)" stroke="rgb(217,181,57)" stroke-width="0.6" opacity="1" d="M 311.5 149 L 316.5 155 L 311.5 149 Z " /><path fill="rgb(217,181,57)" stroke="rgb(217,181,57)" stroke-width="0.6" opacity="1" d="M 217.5 166 L 217 167.5 L 217.5 170 L 220 168.5 L 216 171 L 217.5 166 Z " /><path fill="rgb(217,181,57)" stroke="rgb(217,181,57)" stroke-width="0.6" opacity="1" d="M 31.5 215 L 26.5 221 L 31.5 215 Z " /><path fill="rgb(217,181,57)" stroke="rgb(217,181,57)" stroke-width="0.6" opacity="1" d="M 78.5 218 L 85.5 226 L 78.5 218 Z " /><path fill="rgb(217,181,57)" stroke="rgb(217,181,57)" stroke-width="0.6" opacity="1" d="M 211.5 234 L 217.5 241 L 211.5 234 Z " /><path fill="rgb(217,181,57)" stroke="rgb(217,181,57)" stroke-width="0.6" opacity="1" d="M 200.5 275 L 195.5 281 L 200.5 275 Z " /><path fill="rgb(217,181,57)" stroke="rgb(217,181,57)" stroke-width="0.6" opacity="1" d="M 254.5 285 L 253 287.5 L 249.5 295 L 249 293.5 L 254.5 285 Z " /><path fill="rgb(217,181,57)" stroke="rgb(217,181,57)" stroke-width="0.6" opacity="1" d="M 170.5 286 L 181 286.5 L 170.5 287 L 170.5 286 Z " /><path fill="rgb(217,181,57)" stroke="rgb(217,181,57)" stroke-width="0.6" opacity="1" d="M 276.5 307 L 277.5 324 L 278 315.5 L 279.5 314 L 280 318.5 L 277.5 325 Q 274.1 321.4 275 313.5 L 276.5 307 Z " /><path fill="rgb(121,113,51)" stroke="rgb(121,113,51)" stroke-width="0.6" opacity="1" d="M 226.5 150 L 220.5 157 L 226.5 150 Z " /><path fill="rgb(121,113,51)" stroke="rgb(121,113,51)" stroke-width="0.6" opacity="1" d="M 315.5 234 L 310.5 240 L 315.5 234 Z " /><path fill="rgb(121,113,51)" stroke="rgb(121,113,51)" stroke-width="0.6" opacity="1" d="M 97.5 298 L 100 298.5 L 92 305.5 L 95.5 300 L 98 299.5 L 97.5 298 Z " /><path fill="rgb(141,142,141)" stroke="rgb(141,142,141)" stroke-width="0.6" opacity="1" d="M 450.5 226 L 457.5 234 L 450.5 226 Z " /><path fill="rgb(195,195,194)" stroke="rgb(195,195,194)" stroke-width="0.6" opacity="1" d="M 357.5 55 L 352.5 61 L 357.5 55 Z " /><path fill="rgb(168,168,168)" stroke="rgb(168,168,168)" stroke-width="0.6" opacity="1" d="M 279.5 122 L 280 130.5 L 277.5 132 L 277.5 131 L 279 130.5 L 279.5 122 Z " /></svg>