<svg width="627" height="627" preserveAspectRatio="xMidYMid meet" viewBox="0 0 512 512" version="1.1" xmlns="http://www.w3.org/2000/svg" ><path fill="rgb(255,255,255)" stroke="rgb(255,255,255)" stroke-width="0.6" opacity="1" d="M 0 0 L 512 0 L 512 512 L 0 512 L 0 0 Z M 200 77 L 187 82 Q 178 88 174 99 L 170 132 L 161 140 Q 151 148 148 162 Q 149 184 161 195 Q 173 208 190 216 L 186 235 L 163 224 Q 148 222 142 228 L 133 241 L 133 256 L 140 271 L 98 284 Q 82 291 71 301 Q 55 313 51 336 Q 51 358 62 370 Q 81 392 113 402 L 119 401 L 173 374 L 153 412 L 154 418 L 165 423 L 198 431 L 249 436 Q 316 437 369 423 Q 412 412 441 387 Q 456 374 461 351 Q 463 324 450 313 Q 438 298 421 290 L 387 278 Q 396 266 399 248 Q 400 235 395 229 Q 390 219 378 218 L 366 220 L 356 225 L 342 235 L 337 225 L 324 210 L 324 207 L 336 199 Q 347 189 351 171 L 351 162 L 346 148 L 328 128 L 329 122 Q 330 100 320 90 Q 314 82 304 79 Q 285 77 278 85 L 268 96 L 267 99 L 261 98 Q 243 97 231 99 L 227 91 Q 220 77 200 77 Z " /><path fill="rgb(74,148,76)" stroke="rgb(74,148,76)" stroke-width="0.6" opacity="1" d="M 201.5 121 Q 206.3 120.3 207 123.5 L 205 124.5 Q 207.7 126.2 203.5 128 L 199 125.5 L 201.5 121 Z " /><path fill="rgb(74,148,76)" stroke="rgb(74,148,76)" stroke-width="0.6" opacity="1" d="M 331.5 148 Q 340.5 146.5 343 151.5 L 344 162.5 L 337.5 166 L 334.5 165 L 328 160.5 L 327 157.5 L 328 155.5 L 327 153.5 L 331.5 148 Z " /><path fill="rgb(74,148,76)" stroke="rgb(74,148,76)" stroke-width="0.6" opacity="1" d="M 161.5 153 Q 168.5 151.5 170 155.5 L 170 157.5 L 165.5 164 L 162.5 165 L 158 162.5 Q 156.9 154.9 161.5 153 Z " /><path fill="rgb(74,148,76)" stroke="rgb(74,148,76)" stroke-width="0.6" opacity="1" d="M 367.5 227 Q 373.5 225.5 375 228.5 Q 376 235 371.5 236 L 367 236 Q 368 233 365 234 L 365 229.5 L 367.5 227 Z " /><path fill="rgb(74,148,76)" stroke="rgb(74,148,76)" stroke-width="0.6" opacity="1" d="M 138.5 276 Q 144.8 274.8 146 278.5 L 157 292 L 170 300.5 L 171 302.5 L 165.5 304 L 163.5 303 L 158.5 305 L 156.5 304 L 154.5 305 L 152.5 305 L 146.5 306 Q 143.6 302.4 135.5 304 L 130 307.5 L 129 317.5 Q 131.7 323.1 139 323 L 135.5 330 L 131.5 331 L 128.5 330 L 109 333 Q 107.6 337 114.5 335 L 134.5 332 L 141.5 340 L 149.5 341 L 157.5 336 L 157 337.5 L 159 344 Q 162 347.7 169.5 348 L 177 343.5 L 179.5 338 L 188 336 L 188.5 338 L 190 337.5 L 183 349.5 L 189.5 358 L 197.5 359 L 205 354.5 L 207 348.5 L 205 341.5 L 208.5 336 L 212.5 335 L 217 338.5 L 220.5 345 L 227.5 348 L 237 341.5 L 238 333.5 L 234.5 329 L 226 325.5 L 226.5 322 L 234.5 323 L 243.5 321 L 259.5 326 L 265 325 L 263.5 328 L 260.5 329 L 254.5 328 L 249 331 L 246 339.5 L 250.5 346 L 258.5 348 L 267.5 341 L 273.5 340 L 276 341 Q 277.3 347.4 272.5 349 L 270 350.5 L 268 359.5 L 273.5 366 L 281.5 367 Q 287.1 366.6 289 362.5 L 291 355.5 L 289 350.5 L 293.5 344 Q 301 343 302 348.5 Q 301.2 356.8 306.5 359 L 315.5 360 L 321 357 L 322.5 354 L 324 353.5 L 323 351.5 L 324 348.5 L 318.5 341 L 313 338.5 L 311 335.5 L 309 324.5 L 311.5 321 L 344 341.5 Q 344.5 349 349.5 352 L 358.5 354 L 367 347.5 L 368 342.5 L 362.5 335 L 355 332.5 L 357 331.5 L 356.5 330 L 368.5 334 L 372 337.5 L 374.5 341 Q 378.1 343.9 385.5 343 L 392 337.5 L 393 331.5 L 387.5 324 L 386 323.5 L 387 321 L 394.5 320 L 401.5 322 L 407.5 321 L 409.5 322 L 412.5 321 L 420 323 Q 421.4 319.3 415.5 321 L 393 318 L 394 312.5 L 388.5 304 Q 379.7 302.2 376.5 306 L 361.5 306 L 360 302.5 L 380 285.5 L 382.5 282 L 389 283 L 389.5 285 L 391.5 284 L 411.5 291 L 425.5 298 L 444 312.5 L 454 327.5 L 456 337.5 L 456 339.5 Q 457.2 351.7 454 359.5 Q 446.5 377 432.5 388 Q 409.7 405.2 379.5 415 L 338.5 425 L 301.5 430 L 299.5 429 L 294.5 430 L 292.5 429 Q 284.9 431.9 273.5 431 L 272.5 430 L 252.5 430 L 242.5 431 L 233.5 429 L 228.5 430 L 186.5 424 L 167.5 419 L 158 414.5 L 161 404.5 L 182 368.5 L 176.5 367 L 116.5 397 L 111.5 397 Q 91.8 389.7 77 377.5 L 75.5 376 L 67 368.5 Q 55.4 358.1 56 335.5 Q 58.3 318.8 68.5 310 L 73 306.5 L 77.5 301 L 99.5 288 L 121.5 280 L 138.5 276 Z M 102 334 L 90 337 L 89 339 L 107 336 L 108 335 L 102 334 Z M 326 354 L 327 356 L 350 366 L 352 366 L 350 363 L 326 354 Z M 244 368 Q 233 384 228 406 L 230 408 L 242 375 L 244 371 L 244 368 Z M 361 370 Q 361 374 368 375 L 370 375 L 361 370 Z " /><path fill="rgb(74,148,76)" stroke="rgb(74,148,76)" stroke-width="0.6" opacity="1" d="M 216 303 L 221 305.5 L 223.5 309 L 234 316.5 L 235 318.5 L 226.5 319 L 218 314.5 L 216 303 Z " /><path fill="rgb(74,148,76)" stroke="rgb(74,148,76)" stroke-width="0.6" opacity="1" d="M 172.5 306 Q 181.9 304.5 185 308 L 185 315.5 L 180 322 Q 175.8 321 176.5 324 L 172.5 324 Q 156.9 326.9 148.5 337 L 146.5 336 L 144.5 337 L 141 334.5 L 140 329.5 L 143.5 326 L 153.5 325 L 168 316.5 L 167.5 315 L 164.5 316 L 163.5 315 L 147.5 315 L 144 316 L 142.5 318 L 140.5 319 L 135.5 318 L 133 315.5 Q 131.8 309.3 135.5 308 L 155.5 309 L 168.5 307 L 170.5 307 L 172.5 306 Z " /><path fill="rgb(139,180,78)" stroke="rgb(139,180,78)" stroke-width="0.6" opacity="1" d="M 198.5 82 L 202.5 83 L 206.5 82 L 220 89 L 230.5 106 L 236.5 103 L 261.5 103 L 265 105.5 L 266.5 108 Q 271.6 95.6 281.5 88 Q 288.2 82.2 302.5 84 Q 312.8 86.8 318 94.5 L 324 110.5 L 324 126.5 L 323 128.5 L 338 144.5 Q 336.8 147.3 331.5 146 L 326 150.5 L 325 160.5 L 329.5 166 Q 332.5 169 339.5 168 L 346 164 L 345 176 Q 333 174.1 329 181.5 L 327 188.5 L 331 196.5 Q 316.7 210.5 295 216 Q 293.6 220 300.5 218 L 307 217 L 308.5 221 L 314.5 223 L 320 218.5 L 321 215 L 328 220.5 L 339 237.5 L 339 240.5 Q 328.8 251.3 323.5 267 L 321 266.5 Q 321.6 251.4 314.5 244 L 314 246.5 Q 318.8 261.2 317 282.5 L 314 297.5 L 304 326.5 L 307 336.5 L 311.5 343 Q 317.9 343.7 320 348.5 L 316.5 355 L 309.5 356 Q 304.5 354.5 306 346.5 L 300.5 341 L 293.5 339 Q 285.9 342.4 285 352.5 L 287 357.5 L 283.5 362 L 278.5 363 L 272 358.5 Q 271.9 352.9 275.5 351 L 279 348.5 L 280 337 L 270.5 336 L 263 339.5 L 260.5 343 L 255.5 344 L 251 340.5 L 250 337.5 L 254.5 332 L 261.5 333 L 277 322.5 Q 290.3 301.3 290 266.5 L 289 264.5 L 290 262.5 L 289 254.5 L 285.5 248 L 284 250.5 L 285 251.5 L 285 284.5 L 280 306.5 L 276 316.5 L 272.5 320 L 259.5 321 Q 236.5 317.5 224 303.5 Q 215.3 294.2 211 280.5 L 207 261.5 L 207 250 Q 201.4 248.1 204 256.5 L 203 259.5 L 205 274.5 L 209 286.5 L 213 314.5 L 224.5 330 L 230.5 331 L 234 334.5 Q 235 341 230.5 342 L 225.5 343 L 221 339.5 L 217.5 333 Q 214.8 330.2 208.5 331 L 203 335.5 L 200 342.5 Q 203.2 344.8 202 351.5 Q 199.9 355.4 193.5 355 L 189 352.5 L 188 347.5 Q 193.8 344.3 194 335.5 L 193 332 Q 180.3 330.4 175 337.5 L 171.5 343 L 166.5 344 L 162 340.5 L 161 336.5 L 164.5 332 L 173.5 331 L 187 319.5 Q 190.9 317.9 190 311.5 L 187 296.5 L 188 294.5 L 186 276 L 190.5 279 L 193.5 279 Q 198.9 276.4 198 267.5 L 194.5 262 Q 188.4 260.8 189 263.5 L 186.5 265 L 187 263.5 L 188 245.5 L 193 220.5 L 195.5 217 L 206 220 Q 207.5 216.3 204.5 217 Q 178.3 207.7 162 188.5 Q 153.7 180.4 153 164.5 L 154.5 160 L 159.5 166 L 164.5 167 L 171 161.5 L 172 155.5 L 168.5 151 L 163.5 150 L 159.5 152 Q 156.3 150.3 160 148.5 L 166.5 141 L 174 134.5 L 176 127.5 Q 175 112.5 178 101.5 L 187.5 87 L 198.5 82 Z M 197 91 L 193 93 L 189 99 L 190 101 Q 193 94 206 96 L 207 94 Q 205 89 197 91 Z M 294 94 L 292 95 L 290 99 Q 300 98 306 103 Q 307 107 309 104 L 307 99 Q 304 93 294 94 Z M 201 104 L 191 109 L 183 124 Q 182 135 187 141 Q 190 147 199 148 Q 207 148 211 144 Q 216 139 218 130 Q 219 117 213 112 L 211 108 L 201 104 Z M 290 108 L 283 112 Q 275 117 274 129 Q 273 138 277 144 Q 281 150 290 152 Q 298 152 303 148 Q 309 143 311 135 Q 313 121 307 116 Q 303 107 290 108 Z M 222 152 L 219 157 L 225 160 L 228 156 Q 227 151 222 152 Z M 248 153 L 244 158 L 245 160 L 250 161 L 253 156 Q 252 152 248 153 Z M 186 163 L 184 164 L 180 169 L 181 171 L 185 168 L 186 171 Q 193 180 207 184 L 218 204 Q 225 212 238 215 Q 254 214 263 205 L 276 185 Q 290 180 300 170 L 306 173 L 305 169 Q 302 163 295 164 L 296 169 L 281 179 L 255 186 Q 214 189 194 173 L 187 167 L 189 165 Q 190 162 186 163 Z M 222 218 L 220 220 L 235 227 Q 253 229 261 221 L 262 219 L 250 224 Q 230 227 222 218 Z M 323 227 L 317 232 L 318 242 L 324 246 Q 332 247 333 242 L 332 233 Q 330 227 323 227 Z M 305 268 L 303 269 L 299 275 L 300 283 Q 302 287 310 286 Q 316 283 314 272 Q 313 267 305 268 Z " /><path fill="rgb(139,180,78)" stroke="rgb(139,180,78)" stroke-width="0.6" opacity="1" d="M 214.5 187 Q 218.1 189.9 225.5 189 L 228.5 191 L 233 190 L 233 192 L 228 192 L 226.5 194 L 220.5 199 L 213 188.5 L 214.5 187 Z " /><path fill="rgb(139,180,78)" stroke="rgb(139,180,78)" stroke-width="0.6" opacity="1" d="M 235.5 194 L 240 195 L 239 197.5 Q 241.2 201.2 243.5 196 Q 248.6 192.6 258.5 194 L 263 196 L 263 198.5 L 255.5 206 Q 249.8 210.8 239.5 211 Q 228.6 210.4 224 203.5 Q 223.3 197.8 227.5 197 L 235.5 194 Z " /><path fill="rgb(139,180,78)" stroke="rgb(139,180,78)" stroke-width="0.6" opacity="1" d="M 315.5 212 Q 319.3 210.8 318 214.5 L 319 216.5 Q 318 221 311.5 220 L 308 217.5 Q 306.8 213.8 310.5 215 L 315.5 212 Z " /><path fill="rgb(139,180,78)" stroke="rgb(139,180,78)" stroke-width="0.6" opacity="1" d="M 323.5 229 L 330 233.5 L 331 239.5 L 327.5 244 L 321 242 L 319 236.5 L 319 234.5 L 321.5 230 L 323.5 229 Z " /><path fill="rgb(139,180,78)" stroke="rgb(139,180,78)" stroke-width="0.6" opacity="1" d="M 142.5 249 L 149 251.5 Q 152.8 254.7 151 263.5 L 144.5 267 Q 138.8 262.8 138 253.5 L 142.5 249 Z " /><path fill="rgb(10,9,10)" stroke="rgb(10,9,10)" stroke-width="0.6" opacity="1" d="M 200.5 78 Q 216.8 78.8 224 88.5 L 231.5 100 L 259.5 99 L 266.5 100 L 274 89 Q 280.2 82.8 290.5 80 L 302.5 80 Q 314.7 83.3 321 92.5 Q 330.2 103.9 327 127.5 L 345 147.5 Q 350 156 350 169.5 Q 346 192.5 329.5 203 L 322 208.5 Q 334.7 220.8 343.5 237 Q 354.7 221.7 378.5 219 Q 388.2 220.8 393 227.5 L 397 236.5 L 397 253.5 Q 393.2 267.7 385 277.5 L 387.5 280 L 403.5 284 L 425.5 294 L 447 310.5 L 458 328.5 Q 461.1 336.9 460 349.5 Q 453.9 377.9 433.5 392 L 402.5 410 L 360.5 424 L 336.5 429 L 305.5 433 L 257.5 435 L 256.5 434 L 221.5 433 L 193.5 429 L 159.5 420 L 154 415.5 L 156 406.5 L 176 373.5 L 173.5 372 L 118.5 400 L 109.5 400 L 86.5 389 L 64 370.5 L 54 352.5 L 53 331.5 L 58 317.5 L 74.5 299 L 100.5 284 L 141 271.5 L 134 254.5 L 134 241.5 Q 135.8 233.3 141.5 229 Q 147.8 223.3 161.5 225 Q 176.2 228.3 185.5 237 L 187 235.5 L 191 215.5 L 171.5 203 L 158 189.5 Q 149.7 180.3 149 163.5 L 152 152.5 L 166.5 136 L 171 132.5 L 174 101.5 Q 176.7 90.7 184.5 85 Q 190.4 79.4 200.5 78 Z M 199 81 L 188 86 L 178 99 L 175 112 Q 177 126 173 135 L 170 137 L 155 153 L 152 162 L 153 175 L 160 188 Q 175 206 199 215 L 200 217 L 195 216 L 190 230 L 185 263 L 185 285 L 189 314 L 185 321 L 175 329 L 165 331 L 161 336 L 159 336 Q 160 332 158 333 L 156 336 L 150 340 L 142 339 L 137 334 L 138 327 L 143 323 L 153 322 L 156 320 L 157 318 Q 146 316 143 322 L 134 321 L 129 316 L 130 310 Q 132 305 139 304 L 146 306 L 147 308 L 141 306 L 135 308 Q 131 310 132 317 L 137 320 Q 145 321 147 316 L 164 316 L 164 318 L 153 324 Q 144 323 141 326 L 139 330 L 140 335 L 145 338 L 152 337 L 155 333 Q 163 326 177 325 L 186 316 L 186 308 L 180 304 L 157 308 Q 150 310 151 306 L 171 304 L 172 302 L 159 291 L 144 275 Q 103 280 78 300 Q 60 311 55 335 Q 54 359 67 370 Q 85 389 113 398 L 117 398 L 163 374 L 179 368 L 181 369 L 159 407 L 157 415 L 162 418 L 187 425 L 210 429 L 241 432 L 301 431 L 333 427 L 363 421 L 404 407 L 434 388 Q 451 375 457 352 L 456 332 L 446 313 Q 422 289 383 281 L 379 286 L 358 303 Q 355 305 358 306 Q 361 305 360 308 L 354 307 L 349 308 L 347 306 L 368 293 Q 388 278 395 251 Q 397 240 393 235 L 393 233 L 391 230 Q 387 224 380 222 Q 359 223 349 235 Q 332 251 323 274 L 315 307 L 313 310 L 315 312 L 341 279 L 343 278 L 315 315 L 315 319 L 321 324 L 344 337 Q 349 338 348 347 L 355 351 L 362 349 L 365 345 L 364 341 L 360 337 L 359 335 L 363 336 Q 367 338 367 344 L 366 348 L 359 353 Q 352 354 350 351 Q 345 349 346 343 L 339 336 L 311 320 L 308 325 L 308 330 L 312 339 L 319 342 Q 324 345 322 355 L 316 359 L 307 358 Q 302 357 303 349 Q 301 343 294 343 L 288 351 L 290 356 L 289 362 L 284 366 L 274 365 L 269 360 L 269 355 L 276 347 L 277 342 L 274 339 L 268 340 L 260 347 L 252 346 L 248 342 L 249 333 L 255 329 L 261 330 L 266 328 L 268 324 Q 253 325 244 320 L 235 322 Q 226 324 227 320 L 235 319 Q 238 320 237 318 L 229 312 L 217 300 L 214 298 L 217 315 Q 219 319 225 319 L 223 324 L 228 328 L 235 330 L 237 334 L 236 342 L 230 346 L 222 345 Q 217 344 218 338 L 213 334 L 209 335 L 204 342 L 205 345 Q 206 348 203 347 L 202 345 L 203 338 L 210 332 L 218 334 L 220 340 L 226 344 L 233 342 Q 236 340 235 335 Q 234 329 227 330 Q 218 324 214 314 L 210 286 L 205 268 Q 203 262 207 263 Q 209 288 222 303 Q 233 316 253 321 L 273 321 L 275 320 L 283 300 L 287 275 L 287 266 L 289 265 Q 289 297 278 320 L 264 331 L 253 332 L 249 338 L 250 341 L 256 345 L 261 344 Q 264 339 271 337 Q 277 336 279 340 L 278 348 L 271 356 L 272 361 L 278 364 Q 286 364 288 359 Q 289 353 286 352 Q 288 344 294 340 L 302 343 Q 306 345 305 353 Q 307 359 316 357 L 321 351 L 320 347 L 313 342 L 306 330 L 306 323 L 316 295 L 319 275 L 318 260 L 316 254 L 318 252 L 322 273 Q 328 254 340 241 L 330 222 L 318 210 L 309 215 L 305 215 Q 321 208 332 197 L 334 195 L 341 187 L 347 173 Q 348 158 343 151 Q 336 138 325 130 Q 328 106 319 95 Q 313 85 300 82 Q 284 82 278 90 L 267 105 L 265 103 L 255 101 Q 240 100 231 104 L 223 92 Q 216 81 199 81 Z M 150 228 L 143 232 L 137 241 L 137 256 Q 141 268 148 277 Q 162 294 183 304 L 185 303 Q 182 291 183 276 L 176 266 L 177 264 L 178 267 L 183 269 Q 182 253 186 242 L 167 229 L 150 228 Z " /><path fill="rgb(10,9,10)" stroke="rgb(10,9,10)" stroke-width="0.6" opacity="1" d="M 196.5 92 L 201.5 93 L 203.5 92 L 205 95 L 199.5 94 L 191 98 L 194.5 93 L 196.5 92 Z " /><path fill="rgb(10,9,10)" stroke="rgb(10,9,10)" stroke-width="0.6" opacity="1" d="M 293.5 95 Q 304.6 93.4 307 100.5 L 306.5 103 Q 302.1 96.5 291 98 L 292.5 96 L 293.5 95 Z " /><path fill="rgb(10,9,10)" stroke="rgb(10,9,10)" stroke-width="0.6" opacity="1" d="M 194.5 108 L 188.5 115 L 189 113.5 L 192.5 109 L 194.5 108 Z " /><path fill="rgb(10,9,10)" stroke="rgb(10,9,10)" stroke-width="0.6" opacity="1" d="M 201.5 118 Q 210.8 116.7 213 122.5 L 216 127.5 L 216 132.5 Q 213.9 140.8 207.5 145 L 200 146 Q 193.2 141 194 127.5 L 199.5 119 L 201.5 118 Z M 202 120 Q 198 121 199 127 Q 200 130 205 129 Q 208 128 207 123 Q 206 119 202 120 Z " /><path fill="rgb(10,9,10)" stroke="rgb(10,9,10)" stroke-width="0.6" opacity="1" d="M 291.5 121 Q 300.9 119.7 303 125.5 L 305 136.5 L 299.5 149 L 291 151 L 289.5 147 L 286 144.5 Q 282.7 139.8 284 130.5 L 288.5 123 L 291.5 121 Z M 293 123 L 291 124 Q 288 125 289 131 L 295 132 Q 298 131 297 126 L 293 123 Z " /><path fill="rgb(10,9,10)" stroke="rgb(10,9,10)" stroke-width="0.6" opacity="1" d="M 222.5 153 L 224 153.5 L 223 156.5 L 225 156.5 Q 226.3 160.3 222.5 159 L 221 154.5 L 222.5 153 Z " /><path fill="rgb(10,9,10)" stroke="rgb(10,9,10)" stroke-width="0.6" opacity="1" d="M 246 155 L 252 155 L 252 158 L 248 156 Q 249.7 161.2 246 160 L 246 155 Z " /><path fill="rgb(10,9,10)" stroke="rgb(10,9,10)" stroke-width="0.6" opacity="1" d="M 183.5 165 Q 186.8 163.9 186 166.5 Q 194.1 176.9 207.5 182 L 226.5 187 L 240.5 188 L 241.5 187 L 255.5 187 L 275.5 182 Q 288.5 177.5 297 168.5 Q 295.5 164.1 298.5 165 L 304 169.5 L 303.5 171 Q 300 164.5 296.5 172 L 275 185.5 Q 269 198.5 258.5 207 Q 251.5 213.5 238.5 214 Q 226.3 212.2 220 204.5 L 207.5 184 Q 194.8 179.7 187 170.5 L 184.5 167 L 182.5 168 L 182 166.5 L 183.5 165 Z M 214 186 L 212 188 L 218 199 Q 220 203 222 200 L 223 199 L 224 199 L 223 205 Q 228 211 239 212 Q 254 212 261 203 L 264 199 L 264 197 Q 263 194 267 195 L 272 186 L 244 190 L 220 188 L 214 186 Z " /><path fill="rgb(10,9,10)" stroke="rgb(10,9,10)" stroke-width="0.6" opacity="1" d="M 381.5 304 Q 389.8 303.2 392 308.5 L 393 313.5 L 388.5 320 L 379.5 321 L 376 318.5 L 377.5 317 Q 379.8 320.2 386.5 319 Q 390.5 317.1 391 311.5 Q 388.8 306.3 381.5 306 Q 376.3 311.4 364 309 L 364.5 307 L 376.5 307 L 381.5 304 Z " /><path fill="rgb(10,9,10)" stroke="rgb(10,9,10)" stroke-width="0.6" opacity="1" d="M 363 317 L 372.5 317 L 373 319 Q 368.9 317.7 370 321 L 377.5 324 L 385.5 324 L 391 328.5 L 392 335.5 L 387.5 341 L 378.5 342 L 373 338.5 L 370.5 334 L 354.5 329 L 353 330.5 L 357 334.5 L 355.5 336 L 353 334.5 L 349 327 L 356.5 327 L 367.5 330 L 374 334.5 L 377.5 339 L 383.5 340 L 390 334.5 Q 389.9 328.1 385.5 326 L 376.5 326 L 363 318.5 L 363 317 Z " /><path fill="rgb(10,9,10)" stroke="rgb(10,9,10)" stroke-width="0.6" opacity="1" d="M 184.5 333 L 192 333 L 192 337 Q 190.3 334.3 184.5 335 L 177 340.5 L 174.5 345 L 166.5 347 L 159 341.5 L 159.5 338 L 164.5 344 Q 174.3 345.8 176 339.5 L 177.5 336 L 184.5 333 Z " /><path fill="rgb(10,9,10)" stroke="rgb(10,9,10)" stroke-width="0.6" opacity="1" d="M 190.5 340 L 192 341.5 Q 186.8 343.8 187 351.5 Q 188.9 357.1 197.5 356 L 203 351.5 L 204.5 349 L 205 352.5 L 202.5 356 L 192.5 358 L 186 353.5 L 185 347.5 L 190.5 340 Z " /><path fill="rgb(131,93,55)" stroke="rgb(131,93,55)" stroke-width="0.6" opacity="1" d="M 289.5 111 Q 299.3 109.3 302 114.5 L 303.5 116 Q 309 118.5 308 127.5 L 307 129.5 L 308 135 L 305.5 136 L 306 134.5 Q 305.6 125.9 300.5 122 L 292.5 120 L 285 126.5 Q 281.9 130.9 283 139.5 L 286 144.5 L 284 145 L 283.5 147 Q 275.1 141.9 277 126.5 Q 278.8 117.3 285.5 113 L 289.5 111 Z " /><path fill="rgb(131,93,55)" stroke="rgb(131,93,55)" stroke-width="0.6" opacity="1" d="M 342.5 177 L 343 181.5 L 335.5 192 L 332.5 194 L 329 187.5 Q 329.9 180.3 335.5 178 L 342.5 177 Z " /><path fill="rgb(131,93,55)" stroke="rgb(131,93,55)" stroke-width="0.6" opacity="1" d="M 264.5 187 Q 271.3 184.8 269 191.5 L 267.5 194 L 264.5 193 L 262.5 193 L 256 191 Q 254.7 187.7 259.5 189 L 264.5 187 Z " /><path fill="rgb(131,93,55)" stroke="rgb(131,93,55)" stroke-width="0.6" opacity="1" d="M 373 223 Q 387 221 391 230.5 L 392 232.5 L 384 237.5 Q 380.2 240.7 381 248.5 L 386.5 257 L 390 258 L 388.5 256 L 385 253.5 Q 381.8 250.2 383 242.5 L 388.5 236 L 394 238.5 L 393 247.5 L 394 251.5 L 390 258.5 L 391 260.5 Q 382.3 280.3 366.5 293 L 347.5 306 L 346 305.5 Q 346.8 308.1 343.5 307 L 339 309 L 339.5 311 L 348.5 308 L 355.5 308 L 375.5 311 Q 377.4 305.9 385.5 307 L 389 309.5 L 390 313.5 L 386.5 318 L 382 317 L 381.5 319 Q 377.9 313.6 366.5 316 L 359 317.5 L 378.5 327 L 382.5 326 L 388 329.5 L 389 335.5 Q 386.8 340.3 378.5 339 L 374 335.5 L 372.5 332 Q 362.5 325.7 347 326 L 353.5 336 Q 360.2 336.3 363 340.5 L 364 344.5 L 360.5 349 L 354.5 350 L 349 346.5 Q 349.3 339.3 344.5 337 L 315 318.5 L 315 315.5 L 357 262.5 L 355.5 262 L 350 265.5 L 350 267.5 L 317.5 307 L 315 305.5 Q 319.6 297.6 320 285.5 L 327 266.5 Q 335.4 247.9 349.5 235 L 362.5 226 L 362.5 228 L 364 228.5 L 363 233.5 L 364 236 L 370.5 238 L 377 233.5 L 377 229.5 L 373 223 Z M 355 242 L 351 245 L 349 244 L 347 247 L 347 249 L 346 248 Q 343 249 344 256 L 349 259 Q 353 260 352 258 L 353 258 L 355 259 L 357 260 Q 356 263 359 262 L 360 260 L 359 257 L 357 257 L 361 252 L 359 247 L 360 245 L 355 242 Z " /><path fill="rgb(131,93,55)" stroke="rgb(131,93,55)" stroke-width="0.6" opacity="1" d="M 155.5 228 L 167.5 230 L 169 231.5 L 166 236.5 L 165.5 239 L 159.5 238 L 158 238.5 L 157.5 237 L 156 237.5 Q 159 235.5 154 233.5 L 155.5 228 Z " /><path fill="rgb(131,93,55)" stroke="rgb(131,93,55)" stroke-width="0.6" opacity="1" d="M 153.5 281 L 158.5 287 L 153.5 281 Z " /><path fill="rgb(236,195,53)" stroke="rgb(236,195,53)" stroke-width="0.6" opacity="1" d="M 199.5 108 Q 209.3 107.7 212 114.5 L 214 119.5 Q 211.7 123.2 209.5 118 L 200.5 117 Q 191.8 121.3 193 135.5 L 197 144 L 189 138.5 Q 185.4 133.6 186 124.5 Q 187.5 114.5 194.5 110 L 199.5 108 Z " /><path fill="rgb(236,195,53)" stroke="rgb(236,195,53)" stroke-width="0.6" opacity="1" d="M 292.5 124 L 296 126.5 L 294.5 131 L 290 129.5 Q 289.3 124.8 292.5 124 Z " /><path fill="rgb(236,195,53)" stroke="rgb(236,195,53)" stroke-width="0.6" opacity="1" d="M 149.5 229 L 152 230.5 Q 151 237 155.5 238 L 162.5 240 L 169 236.5 L 170 233 Q 179.4 234.7 185 241.5 L 183 249.5 L 182 268 L 180 266.5 L 168.5 256 L 170 258.5 L 182 275.5 Q 180.8 290.7 184 301.5 L 181.5 302 Q 162.3 293.2 150 277.5 L 145 269 Q 150.6 268.9 153 264.5 L 154 256.5 L 149.5 249 Q 147.8 246.2 142.5 247 L 137 250 Q 136.3 236.2 145.5 231 L 149.5 229 Z " /><path fill="rgb(236,195,53)" stroke="rgb(236,195,53)" stroke-width="0.6" opacity="1" d="M 353.5 243 L 359 245.5 Q 360.3 253.8 355.5 256 L 348.5 257 Q 345 256 346 250.5 L 351.5 244 L 353.5 243 Z " /><path fill="rgb(236,195,53)" stroke="rgb(236,195,53)" stroke-width="0.6" opacity="1" d="M 191.5 264 L 195 265.5 L 196 272.5 L 192.5 277 L 189 274.5 L 188 268.5 L 191.5 264 Z " /><path fill="rgb(236,195,53)" stroke="rgb(236,195,53)" stroke-width="0.6" opacity="1" d="M 304 270 Q 310.4 268.8 312 273.5 Q 313.3 281.8 308.5 284 Q 303 285 302 281.5 L 301 276.5 L 304 270 Z " /><path fill="rgb(35,34,37)" stroke="rgb(35,34,37)" stroke-width="0.6" opacity="1" d="M 244.5 101 L 255 101.5 L 244.5 102 L 244.5 101 Z " /><path fill="rgb(35,34,37)" stroke="rgb(35,34,37)" stroke-width="0.6" opacity="1" d="M 203 106 L 212 110.5 L 214 114.5 L 207.5 109 L 203 108 L 203 106 Z " /><path fill="rgb(35,34,37)" stroke="rgb(35,34,37)" stroke-width="0.6" opacity="1" d="M 295 109 L 300 110 L 300.5 112 L 302 111.5 L 299.5 112 L 295 111 L 295 109 Z " /><path fill="rgb(35,34,37)" stroke="rgb(35,34,37)" stroke-width="0.6" opacity="1" d="M 284.5 112 L 286 112.5 L 280 117.5 L 278.5 120 L 279 118.5 L 281 114 L 284.5 112 Z " /><path fill="rgb(35,34,37)" stroke="rgb(35,34,37)" stroke-width="0.6" opacity="1" d="M 188.5 113 L 188.5 116 L 187 116.5 L 187 118.5 Q 188 122.3 185 121 L 188.5 113 Z " /><path fill="rgb(35,34,37)" stroke="rgb(35,34,37)" stroke-width="0.6" opacity="1" d="M 187.5 138 L 193.5 145 L 188 140.5 L 187.5 138 Z " /><path fill="rgb(35,34,37)" stroke="rgb(35,34,37)" stroke-width="0.6" opacity="1" d="M 279.5 143 L 284.5 149 L 279 144.5 L 279.5 143 Z " /><path fill="rgb(35,34,37)" stroke="rgb(35,34,37)" stroke-width="0.6" opacity="1" d="M 222.5 152 L 225 153.5 L 226 157.5 L 225 157.5 Q 226.1 154.2 223.5 155 L 223.5 153 L 221 154.5 L 220.5 157 L 220 154.5 L 222.5 152 Z " /><path fill="rgb(35,34,37)" stroke="rgb(35,34,37)" stroke-width="0.6" opacity="1" d="M 251 191 Q 259.9 190.4 264 194 L 263.5 196 L 261.5 194 L 251 193 L 251 191 Z " /><path fill="rgb(35,34,37)" stroke="rgb(35,34,37)" stroke-width="0.6" opacity="1" d="M 232.5 192 Q 240 190 242 193.5 L 231.5 194 L 232.5 192 Z " /><path fill="rgb(35,34,37)" stroke="rgb(35,34,37)" stroke-width="0.6" opacity="1" d="M 305.5 213 L 305.5 215 L 307 215.5 L 300 217 L 301.5 215 L 305.5 213 Z " /><path fill="rgb(35,34,37)" stroke="rgb(35,34,37)" stroke-width="0.6" opacity="1" d="M 348.5 235 L 343.5 241 L 348.5 235 Z " /><path fill="rgb(35,34,37)" stroke="rgb(35,34,37)" stroke-width="0.6" opacity="1" d="M 204 254 Q 207.8 252.9 206 261.5 L 206.5 263 L 204 262.5 L 204 254 Z " /><path fill="rgb(35,34,37)" stroke="rgb(35,34,37)" stroke-width="0.6" opacity="1" d="M 350.5 267 L 351 268.5 L 346.5 274 L 346 272.5 L 350.5 267 Z " /><path fill="rgb(35,34,37)" stroke="rgb(35,34,37)" stroke-width="0.6" opacity="1" d="M 440.5 308 L 446 312.5 L 447 314.5 L 440.5 308 Z " /><path fill="rgb(35,34,37)" stroke="rgb(35,34,37)" stroke-width="0.6" opacity="1" d="M 368.5 316 L 377 316.5 L 376 319 Q 371.8 320 372.5 317 L 368.5 317 L 368.5 316 Z " /><path fill="rgb(82,86,71)" stroke="rgb(82,86,71)" stroke-width="0.6" opacity="1" d="M 279.5 116 L 279 117.5 L 278 120.5 L 280 120.5 Q 278.5 123.5 277 120.5 L 279.5 116 Z " /><path fill="rgb(82,86,71)" stroke="rgb(82,86,71)" stroke-width="0.6" opacity="1" d="M 275.5 137 Q 279.3 135.8 278 139.5 L 279 141.5 L 278.5 144 L 275.5 137 Z " /><path fill="rgb(82,86,71)" stroke="rgb(82,86,71)" stroke-width="0.6" opacity="1" d="M 170 158 L 172 158.5 L 170 163 L 164 166 L 164 164 Q 167.8 165.5 167 162.5 L 170 158 Z " /><path fill="rgb(82,86,71)" stroke="rgb(82,86,71)" stroke-width="0.6" opacity="1" d="M 329.5 164 L 332.5 165 L 336 167.5 L 334.5 167 Q 331.2 168.1 332 165.5 L 329.5 164 Z " /><path fill="rgb(82,86,71)" stroke="rgb(82,86,71)" stroke-width="0.6" opacity="1" d="M 164.5 191 L 170.5 198 L 164.5 191 Z " /><path fill="rgb(82,86,71)" stroke="rgb(82,86,71)" stroke-width="0.6" opacity="1" d="M 319 214 L 322.5 214 L 328 219.5 L 322.5 215 L 319.5 217 L 319 214 Z " /><path fill="rgb(82,86,71)" stroke="rgb(82,86,71)" stroke-width="0.6" opacity="1" d="M 373.5 226 L 376 227.5 L 377 233.5 L 373 236.5 L 375 235 L 375 231.5 L 376 229.5 L 375 227 L 373.5 226 Z " /><path fill="rgb(82,86,71)" stroke="rgb(82,86,71)" stroke-width="0.6" opacity="1" d="M 388.5 234 L 390 236 L 383 240.5 Q 385.8 242.3 381.5 244 L 382 242.5 L 384.5 237 L 386 237.5 Q 384.9 234.2 387.5 235 L 388.5 234 Z " /><path fill="rgb(82,86,71)" stroke="rgb(82,86,71)" stroke-width="0.6" opacity="1" d="M 382.5 249 L 386.5 255 L 390 256 L 388.5 258 L 383 253.5 L 382.5 249 Z " /><path fill="rgb(82,86,71)" stroke="rgb(82,86,71)" stroke-width="0.6" opacity="1" d="M 312.5 272 L 314 274.5 L 313 276.5 L 314 279.5 L 308.5 286 Q 302 287 301 282.5 L 301.5 281 L 303.5 284 Q 310.8 285.3 312 280.5 L 312.5 272 Z " /><path fill="rgb(82,86,71)" stroke="rgb(82,86,71)" stroke-width="0.6" opacity="1" d="M 234.5 389 L 235 392.5 L 231.5 399 L 231 396.5 L 234.5 389 Z " /><path fill="rgb(60,61,57)" stroke="rgb(60,61,57)" stroke-width="0.6" opacity="1" d="M 289.5 109 Q 296.4 107 295 111 Q 289 109.8 286.5 113 Q 283.5 111.5 286.5 110 L 289.5 109 Z " /><path fill="rgb(60,61,57)" stroke="rgb(60,61,57)" stroke-width="0.6" opacity="1" d="M 283.5 112 L 285 113.5 L 280.5 118 L 280.5 115 L 283 114.5 L 283.5 112 Z " /><path fill="rgb(60,61,57)" stroke="rgb(60,61,57)" stroke-width="0.6" opacity="1" d="M 279.5 119 L 278 121.5 L 277 135 L 275 134.5 L 275 125.5 L 279.5 119 Z " /><path fill="rgb(60,61,57)" stroke="rgb(60,61,57)" stroke-width="0.6" opacity="1" d="M 186.5 133 L 189 138.5 L 187 139.5 L 187.5 138 L 186 136.5 L 185 134.5 L 186.5 133 Z " /><path fill="rgb(60,61,57)" stroke="rgb(60,61,57)" stroke-width="0.6" opacity="1" d="M 170.5 257 L 176 262.5 L 174.5 264 L 170.5 257 Z " /><path fill="rgb(60,61,57)" stroke="rgb(60,61,57)" stroke-width="0.6" opacity="1" d="M 150.5 283 L 155.5 289 L 150.5 283 Z " /><path fill="rgb(60,61,57)" stroke="rgb(60,61,57)" stroke-width="0.6" opacity="1" d="M 375.5 284 L 369.5 291 L 375.5 284 Z " /><path fill="rgb(60,61,57)" stroke="rgb(60,61,57)" stroke-width="0.6" opacity="1" d="M 150.5 315 L 161 315.5 L 150.5 316 L 150.5 315 Z " /><path fill="rgb(106,114,88)" stroke="rgb(106,114,88)" stroke-width="0.6" opacity="1" d="M 334.5 192 L 335 193.5 L 332 195 L 331.5 197 L 329 193.5 Q 331.8 197.2 334.5 192 Z " /><path fill="rgb(106,114,88)" stroke="rgb(106,114,88)" stroke-width="0.6" opacity="1" d="M 323.5 227 L 326 228.5 L 319 230.5 L 319 232.5 L 318 235.5 L 319 237.5 L 317.5 240 L 317 233.5 L 320.5 228 L 323.5 227 Z " /><path fill="rgb(106,114,88)" stroke="rgb(106,114,88)" stroke-width="0.6" opacity="1" d="M 186.5 266 L 188 269.5 L 185.5 277 L 185 267.5 L 186.5 266 Z " /><path fill="rgb(106,114,88)" stroke="rgb(106,114,88)" stroke-width="0.6" opacity="1" d="M 252 430 L 268.5 431 L 273 430 L 272.5 432 L 252 432 L 252 430 Z " /><path fill="rgb(131,148,73)" stroke="rgb(131,148,73)" stroke-width="0.6" opacity="1" d="M 242.5 102 L 257 102.5 L 242.5 103 L 242.5 102 Z " /><path fill="rgb(131,148,73)" stroke="rgb(131,148,73)" stroke-width="0.6" opacity="1" d="M 310.5 124 L 311 134.5 L 310 134.5 L 310.5 124 Z " /><path fill="rgb(131,148,73)" stroke="rgb(131,148,73)" stroke-width="0.6" opacity="1" d="M 221.5 218 L 223.5 221 L 225.5 221 L 227 221.5 L 224.5 223 L 220 219.5 L 221.5 218 Z " /><path fill="rgb(131,148,73)" stroke="rgb(131,148,73)" stroke-width="0.6" opacity="1" d="M 325.5 227 L 329 229.5 L 329.5 233 L 325 229.5 L 325.5 227 Z " /><path fill="rgb(131,148,73)" stroke="rgb(131,148,73)" stroke-width="0.6" opacity="1" d="M 285.5 255 L 286 278.5 L 285 278.5 L 285.5 255 Z " /><path fill="rgb(131,148,73)" stroke="rgb(131,148,73)" stroke-width="0.6" opacity="1" d="M 300.5 341 L 305.5 347 L 300.5 341 Z " /><path fill="rgb(71,116,72)" stroke="rgb(71,116,72)" stroke-width="0.6" opacity="1" d="M 327.5 159 L 331 163.5 L 327 162.5 L 327.5 161 L 326 160.5 L 327.5 159 Z " /><path fill="rgb(71,116,72)" stroke="rgb(71,116,72)" stroke-width="0.6" opacity="1" d="M 379.5 285 L 374.5 291 L 379.5 285 Z " /><path fill="rgb(71,116,72)" stroke="rgb(71,116,72)" stroke-width="0.6" opacity="1" d="M 132.5 311 Q 132.1 317 136 318.5 L 132 315.5 L 132.5 311 Z " /><path fill="rgb(71,116,72)" stroke="rgb(71,116,72)" stroke-width="0.6" opacity="1" d="M 218.5 315 L 226 318.5 L 223.5 319 L 218.5 315 Z " /><path fill="rgb(71,116,72)" stroke="rgb(71,116,72)" stroke-width="0.6" opacity="1" d="M 341 360 L 347 362.5 L 345 363.5 L 344.5 362 L 343 362.5 L 342.5 361 L 341 361.5 L 341 360 Z " /><path fill="rgb(71,116,72)" stroke="rgb(71,116,72)" stroke-width="0.6" opacity="1" d="M 243.5 368 L 243 369.5 L 242 372.5 L 242 374.5 L 240.5 378 L 239.5 376 L 241 375.5 L 240.5 374 L 242 373.5 L 241 371.5 L 243.5 368 Z " /><path fill="rgb(192,192,190)" stroke="rgb(192,192,190)" stroke-width="0.6" opacity="1" d="M 234 190 L 246.5 190 L 247 191.5 L 245.5 191 L 234 192 L 234 190 Z " /><path fill="rgb(192,192,190)" stroke="rgb(192,192,190)" stroke-width="0.6" opacity="1" d="M 254.5 435 L 272 435.5 L 254.5 436 L 254.5 435 Z " /><path fill="rgb(216,216,216)" stroke="rgb(216,216,216)" stroke-width="0.6" opacity="1" d="M 323.5 208 L 329 214.5 L 323 209.5 L 323.5 208 Z " /></svg>