<svg width="627" height="627" preserveAspectRatio="xMidYMid meet" viewBox="0 0 512 512" version="1.1" xmlns="http://www.w3.org/2000/svg" ><path fill="rgb(255,255,255)" stroke="rgb(255,255,255)" stroke-width="0.6" opacity="1" d="M 0 0 L 512 0 L 512 512 L 0 512 L 0 0 Z M 93 87 L 83 92 Q 75 98 72 109 Q 70 123 76 130 Q 82 139 97 141 L 101 147 L 105 164 L 104 178 L 89 188 Q 74 201 70 225 Q 69 239 72 250 L 83 288 Q 84 309 80 326 Q 78 350 84 366 L 84 371 L 79 381 Q 78 391 82 396 L 94 404 L 109 407 L 128 419 L 144 423 L 154 423 L 171 419 L 184 419 L 208 426 L 231 425 L 262 416 L 290 420 Q 302 421 312 418 L 339 407 L 368 406 L 390 395 Q 412 392 428 382 Q 438 375 442 364 L 441 351 L 432 343 L 415 343 L 414 344 Q 400 346 393 343 Q 404 330 412 312 Q 418 298 420 280 Q 422 251 415 233 Q 408 213 396 199 Q 370 165 317 159 L 292 160 L 275 164 Q 252 171 236 185 Q 194 217 189 287 L 184 289 L 193 245 Q 195 202 172 186 Q 175 165 184 152 L 187 149 L 195 149 L 206 144 Q 213 138 216 127 Q 217 112 211 106 Q 205 98 196 95 Q 181 93 175 100 Q 165 107 163 122 Q 163 133 169 139 L 168 147 Q 162 163 152 175 Q 141 172 128 173 L 124 167 L 116 138 L 124 125 L 126 117 Q 126 105 121 99 Q 114 85 93 87 Z " /><path fill="rgb(191,132,72)" stroke="rgb(191,132,72)" stroke-width="0.6" opacity="1" d="M 96.5 91 Q 112.4 91.1 118 101.5 L 121 112.5 L 120 115.5 L 121 118.5 Q 118.3 129.8 110 135.5 L 113 140.5 L 114 148.5 L 123 175.5 L 123.5 178 Q 142 175.5 152.5 181 Q 167.7 164.2 174 138.5 Q 166.3 132.7 168 117.5 Q 170.1 107.6 177.5 103 Q 182.5 99 191.5 99 L 204 104 L 205.5 106 Q 212.9 112.1 211 127.5 L 204.5 139 Q 198.3 145.3 185.5 145 L 178.5 142 Q 175.5 143.5 178.5 145 L 181 146.5 L 181 149.5 Q 172.6 159.6 169 174.5 L 168 188.5 L 174 193.5 Q 190.6 209.9 188 245.5 L 180 281.5 L 180 300.5 Q 182.1 313.4 190.5 320 L 196.5 323 L 199.5 321 L 208.5 326 L 242.5 353 Q 259.5 364 285.5 366 L 287.5 365 L 291.5 366 L 293.5 365 L 296.5 366 L 306.5 364 L 308.5 365 L 310.5 364 L 330.5 369 L 331.5 368 L 344.5 368 L 360.5 364 Q 376.6 358.1 387.5 347 L 393.5 347 Q 399.6 350.4 410.5 349 L 428.5 347 L 436 351.5 L 438 359.5 Q 435.1 371.1 426.5 377 L 414.5 384 L 386.5 391 L 367.5 401 L 338.5 402 L 312.5 413 Q 302.1 416.1 287.5 415 L 263.5 411 L 247.5 414 L 225.5 421 L 206.5 421 L 182.5 414 L 171.5 414 L 154.5 418 L 141.5 418 L 127.5 414 L 108.5 402 L 93.5 399 L 86 392.5 Q 82.7 388.8 84 380.5 Q 88.3 375.3 89 366.5 Q 82.3 349.7 85 323.5 L 89 297.5 L 85 274.5 L 76 246.5 L 75 224.5 Q 76.7 207.5 85 198 L 87 196.5 Q 95.2 186.2 108 180.5 L 109 160.5 L 104 144.5 L 104 139.5 L 105 137 Q 86.3 139 80 127.5 Q 75.6 121.9 76 111.5 Q 77.8 101.3 84.5 96 L 96.5 91 Z M 97 101 L 91 103 L 85 111 Q 83 121 87 125 L 94 130 L 105 129 L 112 120 Q 113 110 109 107 Q 105 101 97 101 Z M 186 109 L 183 110 Q 177 113 175 121 Q 174 128 177 132 L 186 138 Q 193 139 197 135 L 202 126 Q 203 118 200 115 Q 196 108 186 109 Z M 102 199 Q 94 200 92 206 L 94 209 L 102 204 L 107 205 L 108 203 L 102 199 Z M 154 204 L 152 205 L 150 209 L 159 210 L 166 216 L 164 209 Q 162 203 154 204 Z M 99 217 Q 91 220 93 232 Q 95 237 103 237 Q 108 234 109 227 L 107 220 Q 106 216 99 217 Z M 151 222 Q 145 225 144 233 Q 144 240 150 242 L 157 241 L 161 232 L 160 227 Q 159 221 151 222 Z M 100 245 L 95 250 Q 97 253 99 249 L 103 254 Q 104 267 110 276 L 120 281 Q 127 282 131 279 L 140 270 L 149 254 L 153 256 L 152 253 Q 151 248 146 249 L 144 253 L 133 256 Q 113 258 105 249 Q 101 250 103 245 L 100 245 Z M 419 361 Q 412 368 403 372 L 380 374 L 364 383 L 353 386 L 339 384 L 325 385 L 301 396 L 288 396 L 270 390 L 251 391 L 232 400 L 221 403 L 208 402 L 190 394 L 181 392 Q 165 393 155 399 L 137 398 L 118 385 L 106 381 Q 100 379 101 383 L 110 384 L 133 399 L 143 402 L 157 401 L 174 395 L 188 396 L 206 404 L 215 406 L 225 405 L 247 395 L 259 392 L 273 393 L 293 399 L 307 397 L 327 387 L 341 387 L 342 388 L 356 388 L 379 377 L 401 375 Q 413 371 420 363 L 419 361 Z " /><path fill="rgb(191,132,72)" stroke="rgb(191,132,72)" stroke-width="0.6" opacity="1" d="M 94.5 105 Q 101.3 102.8 99 109.5 Q 101.8 111.2 97.5 113 L 93.5 114 L 90 111.5 Q 89.3 106.8 92.5 106 L 94.5 105 Z " /><path fill="rgb(191,132,72)" stroke="rgb(191,132,72)" stroke-width="0.6" opacity="1" d="M 190.5 292 L 203.5 293 L 218.5 300 L 251.5 327 Q 262.5 335.5 277 339 L 289.5 353 L 300 359 L 299.5 361 L 279.5 361 L 258.5 356 L 244.5 349 L 213.5 324 Q 205.1 316.4 191.5 314 L 188 310.5 Q 184 305.5 185 295.5 L 190.5 292 Z " /><path fill="rgb(234,191,117)" stroke="rgb(234,191,117)" stroke-width="0.6" opacity="1" d="M 184.5 113 Q 189.8 111.8 191 114.5 L 189.5 120 Q 183.5 121.5 182 118.5 Q 181.3 113.8 184.5 113 Z " /><path fill="rgb(234,191,117)" stroke="rgb(234,191,117)" stroke-width="0.6" opacity="1" d="M 302.5 164 L 326.5 165 L 344.5 169 Q 370.9 178.1 388 196.5 L 401 213.5 L 411 236.5 L 415 254.5 L 415 280.5 Q 408.2 325.2 379.5 348 L 365.5 357 L 365 353.5 Q 370 347 369 334.5 L 364 319.5 Q 375.1 314.1 382 304.5 L 392.5 283 L 393.5 284 L 406.5 284 L 410 283 Q 411.3 279.7 406.5 281 L 396.5 282 L 392 279.5 Q 394.3 262.3 389 252.5 Q 399.5 248.5 406 240.5 L 405.5 238 Q 400.1 246.1 389.5 249 Q 383.1 234.9 372.5 225 L 368 221.5 Q 377.7 211.4 379 194 Q 376 192.8 377 196.5 Q 375.3 211.3 366.5 219 L 345.5 211 L 331.5 210 L 330 208.5 L 331 207.5 L 331 191.5 Q 328.3 175.7 318.5 167 L 318 168.5 Q 331.3 180.2 329 207.5 L 326.5 210 L 320.5 210 L 305.5 214 L 283.5 228 Q 276.9 212.6 264.5 203 Q 256.4 195.9 245 193 Q 243.8 196 247.5 195 Q 260.4 200.1 269 209.5 L 279 223.5 L 281 231.5 L 269 246.5 L 259 273.5 L 260 277 Q 248.4 265.3 231.5 258 Q 221.8 253.7 207.5 254 L 202 255 Q 200.7 258.7 206.5 257 L 212.5 256 Q 242.8 260.8 259 279.5 Q 257.8 296.2 261 308.5 L 270 331 L 251.5 322 L 221.5 297 L 210.5 291 L 194 285.5 Q 198.4 222.9 234.5 192 Q 259.1 168.6 302.5 164 Z " /><path fill="rgb(234,191,117)" stroke="rgb(234,191,117)" stroke-width="0.6" opacity="1" d="M 108 257 L 123.5 261 L 125.5 260 L 134 261 Q 132.7 257.3 138.5 259 L 141 259.5 L 139 264 L 128 262 L 127.5 264 L 118.5 264 L 113 267 L 111.5 269 Q 107 265.1 108 257 Z " /><path fill="rgb(83,153,79)" stroke="rgb(83,153,79)" stroke-width="0.6" opacity="1" d="M 324.5 214 L 333.5 215 L 336.5 214 L 353.5 218 Q 365.9 223.1 374 232.5 L 385 250.5 L 388 263.5 L 388 273.5 L 387 275.5 L 388 277.5 Q 384.3 300.8 368.5 312 L 352.5 319 L 337.5 319 Q 322.4 315.6 315 304.5 Q 307 295 309 275.5 Q 312.3 261.8 322.5 255 L 332.5 251 L 340.5 251 L 351 256.5 L 352.5 258 Q 357 261 357 268.5 L 356 270.5 L 357 274.5 L 350.5 284 L 343.5 286 Q 337.2 285.4 335 280.5 L 334 275.5 L 338.5 270 L 344.5 272 L 345 270.5 L 338.5 267 L 332 271.5 L 331 279.5 L 336.5 287 L 347.5 289 Q 354.7 287.2 358 281.5 L 361 269.5 L 360 267.5 L 361 265.5 Q 357.8 256.2 350.5 251 Q 344.4 246.1 332.5 247 Q 318.1 250.1 311 260.5 Q 303.8 269.8 304 286.5 Q 306.3 300.5 313 309 L 304 314 L 302.5 316 L 300 319.5 L 301.5 319 L 314.5 310 Q 324.7 323.3 347.5 324 L 360.5 320 L 363 321 L 365 324.5 L 367 336.5 L 366 340.5 L 367 342.5 Q 366.3 351.3 362 356.5 L 362.5 358 Q 349.2 364.7 328.5 364 Q 314.1 362.4 303.5 357 Q 289.6 349.4 280 337.5 Q 271.4 327.1 267 312.5 L 264 298.5 L 264 275.5 L 266 272.5 L 266 270.5 L 266 265.5 L 271 252.5 Q 278.1 238.7 289.5 229 Q 302.6 217.1 324.5 214 Z " /><path fill="rgb(83,153,79)" stroke="rgb(83,153,79)" stroke-width="0.6" opacity="1" d="M 128.5 266 L 130.5 266 L 135 267 L 136 269.5 Q 132.5 279 117.5 277 L 114 274.5 L 115 272.5 L 114 271.5 L 118.5 267 L 121 267 L 122.5 269 L 128.5 266 Z " /><path fill="rgb(9,9,10)" stroke="rgb(9,9,10)" stroke-width="0.6" opacity="1" d="M 93.5 88 Q 113.5 86.5 120 98.5 Q 126.2 105.8 124 121.5 Q 121.4 130.4 115 135.5 L 115 138.5 L 124 169.5 L 127.5 174 Q 142.2 172.8 151.5 177 L 164 157.5 L 170 143.5 L 170 138.5 Q 164.2 132.8 164 121.5 Q 165.7 107.7 174.5 101 Q 181 95.5 193.5 96 Q 203.8 97.8 209 104.5 L 214 113.5 L 215 124.5 Q 213.1 138.1 203.5 144 L 193.5 148 L 186.5 148 L 183 151.5 Q 173.5 165 171 185.5 Q 193.6 202.9 192 244.5 L 185 273.5 L 183 289.5 L 185.5 291 L 190 287.5 Q 194.4 219.4 234.5 187 Q 251.1 172.6 274.5 165 L 292.5 161 L 315.5 160 L 340.5 164 L 359.5 171 Q 380.1 180.9 394 197.5 Q 407.8 213.7 415 236.5 L 419 258.5 L 419 277.5 Q 414.1 319.1 391 342.5 L 395.5 345 L 414.5 345 L 415.5 344 L 431.5 344 L 439 349.5 Q 442.5 353.5 441 362.5 Q 437.3 373.8 428.5 380 L 414.5 388 L 389.5 394 L 366.5 405 L 337.5 406 L 314.5 416 Q 304.7 419.8 290.5 419 L 270.5 415 L 259.5 415 L 234.5 423 Q 223.9 425.9 209.5 425 L 183.5 418 L 169.5 418 Q 157.6 423.1 138.5 421 L 123.5 416 L 108.5 406 L 91.5 402 L 82 393.5 L 80 381.5 L 85 370.5 L 85 364.5 Q 79.5 350 81 328.5 Q 85.6 310.1 84 285.5 L 73 248.5 L 71 227.5 L 76 206.5 L 87.5 191 L 89 192.5 L 77 209.5 Q 72.3 221.8 74 240.5 Q 77.3 261.7 85 278.5 L 87 301.5 L 84 323.5 L 84 350.5 Q 88 359 87 372.5 Q 82.5 377 82 385.5 Q 84.4 394.5 91.5 399 L 112.5 405 L 126.5 415 L 132.5 417 Q 142.1 420.4 156.5 419 L 172.5 415 L 181.5 415 L 204.5 422 L 218.5 423 L 239.5 419 L 256.5 413 L 272.5 413 Q 285 417.5 303.5 416 L 315.5 413 L 334.5 404 L 364.5 403 L 373.5 400 L 389.5 391 L 412.5 386 Q 426.7 380.7 435 369.5 Q 439.9 364.9 439 354.5 L 433.5 348 Q 428.8 344.7 419.5 346 L 400.5 348 L 388.5 345 Q 376 357.5 357.5 364 Q 345 368.5 326.5 367 L 310.5 363 L 304.5 363 Q 296.7 366.2 284.5 365 Q 249.8 361.2 230 342.5 L 231.5 341 Q 244.9 353.1 264.5 359 Q 280.3 363.9 302 362 Q 303.5 358.3 300.5 359 Q 287.8 352.2 279 341.5 L 275.5 337 L 256.5 329 L 215.5 297 L 200.5 291 L 190.5 291 L 183 296.5 Q 183.8 309.2 191.5 315 L 205.5 320 L 229 338.5 L 228.5 341 L 210.5 326 L 197.5 319 L 194.5 321 L 186 313.5 Q 178.8 302.7 181 282.5 L 188 253.5 L 190 232.5 L 186 211.5 Q 180.5 196.5 169 187.5 L 169 178.5 Q 173.5 160.5 183 147.5 L 182.5 146 Q 201.5 147.5 208 136.5 Q 212.8 130.8 213 120.5 Q 211.9 107.1 202.5 102 Q 196.9 97.6 186.5 98 Q 175.6 101.1 170 109.5 Q 165.4 115.4 167 127.5 L 173 141.5 Q 165.5 162.8 154 179 L 129.5 176 L 125.5 177 L 120 164.5 L 112 134.5 Q 123.6 128.1 122 108.5 L 113.5 95 L 102.5 90 L 95.5 90 Q 85.1 92.1 80 99.5 Q 74.3 105.3 75 117.5 Q 77.1 129.9 86.5 135 L 92.5 138 Q 100.8 135.8 103 139.5 L 102 142.5 Q 109.5 155.5 108 177.5 L 104.5 182 L 90 190 L 93.5 185 L 106 176.5 Q 107.2 161.7 104 151.5 Q 102.8 143.7 97.5 140 Q 83.2 139.8 78 130.5 Q 72.3 123.7 73 110.5 L 80 95 L 93.5 88 Z M 301 163 L 289 164 L 274 168 Q 253 175 238 188 Q 217 205 205 232 L 196 258 L 193 275 L 193 288 L 195 289 L 205 290 L 218 296 L 253 324 L 267 332 L 272 333 L 263 311 L 260 292 Q 259 270 266 256 L 279 235 Q 294 216 323 211 Q 353 209 369 223 Q 387 236 391 264 Q 392 293 378 308 Q 369 318 354 322 Q 330 325 320 314 Q 307 305 305 285 Q 305 269 312 261 Q 319 250 334 248 Q 345 247 351 252 Q 358 257 360 267 Q 361 277 357 282 L 348 288 Q 339 289 336 285 L 332 280 Q 331 274 334 273 L 334 281 L 341 286 L 351 285 Q 356 282 358 275 Q 359 264 355 260 Q 350 252 341 250 L 333 250 L 320 256 Q 311 263 308 276 L 308 291 L 315 306 Q 322 317 338 320 L 353 320 L 369 313 Q 386 301 389 276 Q 390 263 387 255 Q 383 241 375 233 Q 363 219 343 214 L 318 214 Q 301 218 290 228 Q 269 244 263 276 Q 261 295 265 309 L 271 326 L 279 338 Q 295 359 328 365 L 333 364 L 337 365 Q 367 362 384 346 Q 413 322 417 272 Q 417 249 411 233 Q 405 214 393 201 Q 379 185 361 174 L 346 168 L 330 164 L 301 163 Z " /><path fill="rgb(9,9,10)" stroke="rgb(9,9,10)" stroke-width="0.6" opacity="1" d="M 97 102 Q 105.4 102.4 109 108.5 L 111 118.5 L 104.5 128 L 94.5 129 L 88 124.5 L 86 117 L 90.5 119 L 92 115 Q 99.3 116.3 101 110.5 Q 102 105 98.5 104 L 97 102 Z " /><path fill="rgb(9,9,10)" stroke="rgb(9,9,10)" stroke-width="0.6" opacity="1" d="M 90.5 105 L 92 105.5 L 89 108.5 L 87.5 114 Q 84.9 114.8 86 111.5 L 90.5 105 Z " /><path fill="rgb(9,9,10)" stroke="rgb(9,9,10)" stroke-width="0.6" opacity="1" d="M 189 110 Q 197.1 110 200 116.5 L 201 125.5 L 194.5 135 L 186.5 137 L 178 131.5 L 176 121.5 L 179 114 L 181 115.5 L 179 123.5 L 181.5 125 L 183 122 Q 189.7 123.1 192 118.5 L 193 115.5 L 190.5 112 L 189 110 Z " /><path fill="rgb(9,9,10)" stroke="rgb(9,9,10)" stroke-width="0.6" opacity="1" d="M 97.5 201 Q 105 199 107 202.5 L 104.5 203 Q 97.5 203 94.5 207 L 94 204.5 L 97.5 201 Z " /><path fill="rgb(9,9,10)" stroke="rgb(9,9,10)" stroke-width="0.6" opacity="1" d="M 153.5 205 Q 161.6 204.9 164 210.5 L 165 214 L 163 212.5 Q 159.5 207.8 152 208 L 153.5 205 Z " /><path fill="rgb(9,9,10)" stroke="rgb(9,9,10)" stroke-width="0.6" opacity="1" d="M 98.5 218 L 100 219.5 L 97 223.5 Q 97.8 226.8 102.5 226 L 105 221.5 L 103.5 219 L 107 221.5 Q 109 232 103.5 235 L 98.5 236 Q 92.7 233.8 94 224.5 L 98.5 218 Z " /><path fill="rgb(9,9,10)" stroke="rgb(9,9,10)" stroke-width="0.6" opacity="1" d="M 150.5 223 L 152 224.5 L 149 228.5 L 153.5 232 Q 156.8 231.3 156 226.5 L 154 223 L 159 226.5 L 160 231.5 Q 159.1 238.1 154.5 241 Q 147.3 242.3 146 237.5 Q 144 226 150.5 223 Z " /><path fill="rgb(9,9,10)" stroke="rgb(9,9,10)" stroke-width="0.6" opacity="1" d="M 99.5 246 L 102 247.5 L 104.5 251 L 108 253.5 L 106 257 Q 102.3 258.4 104 252.5 L 98 247.5 L 99.5 246 Z " /><path fill="rgb(9,9,10)" stroke="rgb(9,9,10)" stroke-width="0.6" opacity="1" d="M 147.5 251 L 150 252.5 L 144 256.5 L 142.5 260 L 140.5 257 L 139 255 Q 145.1 255.3 147.5 251 Z " /><path fill="rgb(9,9,10)" stroke="rgb(9,9,10)" stroke-width="0.6" opacity="1" d="M 140.5 263 L 141 265.5 L 132.5 276 L 130.5 277 L 136 270.5 L 137 267.5 L 136.5 266 L 140.5 263 Z " /><path fill="rgb(9,9,10)" stroke="rgb(9,9,10)" stroke-width="0.6" opacity="1" d="M 108.5 268 L 113 271 L 114.5 276 L 117 277.5 L 114.5 278 L 108 270.5 L 108.5 268 Z " /><path fill="rgb(33,34,37)" stroke="rgb(33,34,37)" stroke-width="0.6" opacity="1" d="M 185.5 110 Q 190.3 108.7 189 112 Q 183.1 110.8 181.5 115 Q 178.5 113.5 181.5 112 L 185.5 110 Z " /><path fill="rgb(33,34,37)" stroke="rgb(33,34,37)" stroke-width="0.6" opacity="1" d="M 88.5 189 L 92 190.5 L 87 194.5 L 89 191 L 85.5 193 L 88.5 189 Z " /><path fill="rgb(33,34,37)" stroke="rgb(33,34,37)" stroke-width="0.6" opacity="1" d="M 104.5 257 L 106 258.5 L 110 268.5 L 107 268.5 L 104.5 257 Z " /><path fill="rgb(33,34,37)" stroke="rgb(33,34,37)" stroke-width="0.6" opacity="1" d="M 416.5 261 L 417 271.5 L 416 271.5 L 416.5 261 Z " /><path fill="rgb(33,34,37)" stroke="rgb(33,34,37)" stroke-width="0.6" opacity="1" d="M 388.5 265 L 389 275.5 L 388 275.5 L 388.5 265 Z " /><path fill="rgb(33,34,37)" stroke="rgb(33,34,37)" stroke-width="0.6" opacity="1" d="M 117.5 266 L 113.5 271 L 111 270.5 L 117.5 266 Z " /><path fill="rgb(33,34,37)" stroke="rgb(33,34,37)" stroke-width="0.6" opacity="1" d="M 335.5 269 L 338 269.5 L 332.5 274 L 332 272.5 L 335.5 269 Z " /><path fill="rgb(33,34,37)" stroke="rgb(33,34,37)" stroke-width="0.6" opacity="1" d="M 130.5 275 Q 133.5 276.5 130.5 278 Q 126.5 281 118.5 280 L 116 278.5 L 118.5 278 L 127.5 277 L 129 277.5 L 130.5 275 Z " /><path fill="rgb(92,89,78)" stroke="rgb(92,89,78)" stroke-width="0.6" opacity="1" d="M 230.5 190 L 225.5 196 L 230.5 190 Z " /><path fill="rgb(92,89,78)" stroke="rgb(92,89,78)" stroke-width="0.6" opacity="1" d="M 233.5 192 L 226.5 200 L 233.5 192 Z " /><path fill="rgb(92,89,78)" stroke="rgb(92,89,78)" stroke-width="0.6" opacity="1" d="M 281.5 344 L 286.5 350 L 281.5 344 Z " /><path fill="rgb(92,89,78)" stroke="rgb(92,89,78)" stroke-width="0.6" opacity="1" d="M 331.5 367 L 342 367.5 L 331.5 368 L 331.5 367 Z " /><path fill="rgb(92,89,78)" stroke="rgb(92,89,78)" stroke-width="0.6" opacity="1" d="M 125.5 391 L 131 395.5 L 131.5 397 L 133 396.5 L 133.5 398 L 135.5 398 Q 139.3 397 138 400 Q 129.4 398.5 124 392.5 L 125.5 391 Z " /><path fill="rgb(92,89,78)" stroke="rgb(92,89,78)" stroke-width="0.6" opacity="1" d="M 251.5 391 L 251 392.5 Q 251.8 395.1 248.5 394 L 237 399 L 237.5 397 L 239 397.5 L 239.5 396 L 241 396.5 L 242.5 395 L 251.5 391 Z " /><path fill="rgb(92,89,78)" stroke="rgb(92,89,78)" stroke-width="0.6" opacity="1" d="M 312.5 391 L 315 391.5 L 305.5 396 L 306.5 394 L 312.5 391 Z " /><path fill="rgb(64,63,61)" stroke="rgb(64,63,61)" stroke-width="0.6" opacity="1" d="M 315.5 305 L 322.5 313 L 315.5 305 Z " /><path fill="rgb(64,63,61)" stroke="rgb(64,63,61)" stroke-width="0.6" opacity="1" d="M 118.5 387 L 125 391.5 L 123.5 392 L 118.5 387 Z " /><path fill="rgb(64,63,61)" stroke="rgb(64,63,61)" stroke-width="0.6" opacity="1" d="M 256 390 L 267.5 390 L 268 392 L 256.5 392 L 256 390 Z " /><path fill="rgb(162,125,70)" stroke="rgb(162,125,70)" stroke-width="0.6" opacity="1" d="M 125.5 177 L 138 177.5 L 125.5 178 L 125.5 177 Z " /><path fill="rgb(162,125,70)" stroke="rgb(162,125,70)" stroke-width="0.6" opacity="1" d="M 84.5 331 L 85 342.5 L 84 342.5 L 84.5 331 Z " /><path fill="rgb(126,110,70)" stroke="rgb(126,110,70)" stroke-width="0.6" opacity="1" d="M 409.5 368 L 410.5 370 L 409 369.5 L 407.5 372 L 405.5 373 L 405.5 370 L 407.5 371 L 409.5 368 Z " /><path fill="rgb(126,110,70)" stroke="rgb(126,110,70)" stroke-width="0.6" opacity="1" d="M 374.5 376 L 374 377.5 L 373.5 379 L 372 378.5 L 370.5 381 L 369.5 379 L 371 379.5 L 372.5 377 L 374.5 376 Z " /><path fill="rgb(126,110,70)" stroke="rgb(126,110,70)" stroke-width="0.6" opacity="1" d="M 331.5 384 L 339 385 L 338.5 387 L 336.5 386 L 329.5 387 L 331.5 384 Z " /><path fill="rgb(126,110,70)" stroke="rgb(126,110,70)" stroke-width="0.6" opacity="1" d="M 354.5 385 L 355 387 L 346.5 388 L 346.5 387 L 350.5 386 L 352.5 387 L 354.5 385 Z " /><path fill="rgb(126,110,70)" stroke="rgb(126,110,70)" stroke-width="0.6" opacity="1" d="M 319.5 387 L 319.5 390 L 315.5 392 Q 312.5 390.5 315.5 389 L 319.5 387 Z " /><path fill="rgb(126,110,70)" stroke="rgb(126,110,70)" stroke-width="0.6" opacity="1" d="M 340.5 402 L 351 402.5 L 340.5 403 L 340.5 402 Z " /><path fill="rgb(127,128,118)" stroke="rgb(127,128,118)" stroke-width="0.6" opacity="1" d="M 273.5 213 L 278 219.5 L 276 218.5 L 273.5 213 Z " /><path fill="rgb(127,128,118)" stroke="rgb(127,128,118)" stroke-width="0.6" opacity="1" d="M 192.5 230 L 193 240.5 L 192 240.5 L 192.5 230 Z " /><path fill="rgb(127,128,118)" stroke="rgb(127,128,118)" stroke-width="0.6" opacity="1" d="M 419.5 262 L 420 272.5 L 419 272.5 L 419.5 262 Z " /><path fill="rgb(127,128,118)" stroke="rgb(127,128,118)" stroke-width="0.6" opacity="1" d="M 252.5 272 L 260 277 L 259.5 280 L 252.5 272 Z " /><path fill="rgb(127,128,118)" stroke="rgb(127,128,118)" stroke-width="0.6" opacity="1" d="M 367.5 331 L 368 345.5 L 363 357 L 365 357.5 L 363.5 358 L 362 355.5 Q 367 351 367 341.5 L 366 337.5 L 367.5 331 Z " /><path fill="rgb(127,128,118)" stroke="rgb(127,128,118)" stroke-width="0.6" opacity="1" d="M 80.5 332 L 81 342.5 L 80 342.5 L 80.5 332 Z " /><path fill="rgb(208,178,116)" stroke="rgb(208,178,116)" stroke-width="0.6" opacity="1" d="M 318.5 167 L 328 180.5 L 325 180.5 L 318.5 167 Z " /><path fill="rgb(208,178,116)" stroke="rgb(208,178,116)" stroke-width="0.6" opacity="1" d="M 245 193 L 254 196 L 254.5 198 L 256 197.5 L 253.5 198 L 245 195 L 245 193 Z " /><path fill="rgb(208,178,116)" stroke="rgb(208,178,116)" stroke-width="0.6" opacity="1" d="M 372.5 225 L 377.5 231 L 372.5 225 Z " /><path fill="rgb(208,178,116)" stroke="rgb(208,178,116)" stroke-width="0.6" opacity="1" d="M 207.5 254 L 216 254.5 L 215 257 L 207.5 256 L 202 257 Q 200.7 253.3 206.5 255 L 207.5 254 Z " /><path fill="rgb(208,178,116)" stroke="rgb(208,178,116)" stroke-width="0.6" opacity="1" d="M 389.5 338 L 384.5 344 L 389.5 338 Z " /><path fill="rgb(173,154,112)" stroke="rgb(173,154,112)" stroke-width="0.6" opacity="1" d="M 326.5 180 L 330 189 Q 327 190.3 328 186.5 L 326.5 180 Z " /><path fill="rgb(173,154,112)" stroke="rgb(173,154,112)" stroke-width="0.6" opacity="1" d="M 254.5 197 L 261 201.5 L 259.5 201 L 254.5 197 Z " /><path fill="rgb(173,154,112)" stroke="rgb(173,154,112)" stroke-width="0.6" opacity="1" d="M 376 200 Q 379 198.8 378 202.5 L 372.5 214 L 373 210.5 L 376 200 Z " /><path fill="rgb(173,154,112)" stroke="rgb(173,154,112)" stroke-width="0.6" opacity="1" d="M 278.5 220 L 282 228 L 284 228.5 L 282.5 229 L 280 228 L 278.5 220 Z " /><path fill="rgb(173,154,112)" stroke="rgb(173,154,112)" stroke-width="0.6" opacity="1" d="M 396.5 246 L 399 246.5 L 389.5 251 L 390.5 249 L 396.5 246 Z " /><path fill="rgb(173,154,112)" stroke="rgb(173,154,112)" stroke-width="0.6" opacity="1" d="M 392 281 L 397 282 L 395.5 284 L 392.5 283 L 390 284.5 L 392 281 Z " /><path fill="rgb(208,208,208)" stroke="rgb(208,208,208)" stroke-width="0.6" opacity="1" d="M 289.5 419 L 301 419.5 L 289.5 420 L 289.5 419 Z " /><path fill="rgb(208,208,208)" stroke="rgb(208,208,208)" stroke-width="0.6" opacity="1" d="M 143.5 422 L 154 422.5 L 143.5 423 L 143.5 422 Z " /><path fill="rgb(167,167,166)" stroke="rgb(167,167,166)" stroke-width="0.6" opacity="1" d="M 172.5 186 L 177.5 192 L 172.5 186 Z " /><path fill="rgb(167,167,166)" stroke="rgb(167,167,166)" stroke-width="0.6" opacity="1" d="M 83.5 291 L 84 301.5 L 83 301.5 L 83.5 291 Z " /></svg>