<svg width="627" height="627" preserveAspectRatio="xMidYMid meet" viewBox="0 0 512 512" version="1.1" xmlns="http://www.w3.org/2000/svg" ><path fill="rgb(255,255,255)" stroke="rgb(255,255,255)" stroke-width="0.6" opacity="1" d="M 0 0 L 512 0 L 512 512 L 0 512 L 0 0 Z M 95 86 L 82 92 L 72 107 L 72 121 L 77 132 Q 82 141 97 141 Q 107 152 105 176 L 90 187 L 75 206 L 70 222 L 71 248 L 83 287 L 83 309 L 80 327 L 80 352 L 84 365 L 84 371 L 78 382 Q 77 391 81 396 L 93 404 L 111 408 L 127 419 L 136 422 L 146 423 Q 161 425 170 419 L 184 419 L 205 426 L 228 426 L 261 416 L 270 416 L 287 420 L 311 419 L 339 407 L 370 406 L 386 397 L 416 389 L 429 382 Q 438 376 442 365 L 442 352 L 433 343 L 415 343 L 414 344 L 397 344 L 394 343 L 411 316 Q 418 301 420 283 L 420 253 L 417 238 Q 410 214 396 198 Q 380 178 355 167 L 336 161 L 316 159 L 295 159 L 276 163 Q 252 170 236 184 Q 206 208 194 251 Q 195 254 192 253 L 193 245 L 193 224 L 189 208 Q 183 195 173 186 L 174 173 L 184 153 L 188 149 L 197 149 L 207 144 Q 214 139 216 129 Q 218 112 211 105 Q 205 96 193 94 L 184 95 L 175 99 Q 166 105 163 118 Q 162 133 169 140 Q 164 161 151 175 Q 142 172 129 173 L 124 167 L 116 138 L 126 120 Q 128 105 122 99 Q 115 85 95 86 Z " /><path fill="rgb(255,255,255)" stroke="rgb(255,255,255)" stroke-width="0.6" opacity="1" d="M 189 264 L 191 265.5 Q 187.7 273.7 189 286.5 L 187.5 288 L 185 287.5 L 185 278.5 L 189 264 Z " /><path fill="rgb(191,132,72)" stroke="rgb(191,132,72)" stroke-width="0.6" opacity="1" d="M 96.5 91 L 106.5 92 L 116 99.5 Q 122.7 105.3 121 119.5 L 110 137.5 L 113 141.5 L 114 150.5 L 123 178 L 134.5 177 L 152.5 181 L 155 180 L 168 158.5 L 174 139.5 L 169 131.5 L 168 116.5 L 175.5 105 L 177 105.5 L 180.5 101 L 191.5 99 Q 200.1 100.4 205 105.5 Q 213.4 111.6 211 128.5 L 201.5 141 L 193.5 145 L 185.5 145 L 178 143 L 181 149.5 L 170 170.5 L 168 177.5 L 168 188.5 Q 180.6 197.9 186 214.5 Q 189.9 228.1 188 247.5 L 180 279.5 L 180 303.5 Q 182.9 313.1 189.5 319 L 198.5 322 L 200.5 321 Q 220.4 331.6 234.5 348 L 255.5 360 L 275.5 365 L 295.5 366 L 309.5 364 L 323.5 368 L 348.5 368 L 360.5 365 L 391.5 347 Q 397.5 351 408.5 350 L 420.5 347 L 429.5 347 L 437 353.5 L 438 359.5 Q 435.3 369.8 428.5 376 L 415.5 384 L 401.5 388 L 391.5 389 L 365.5 402 L 337.5 402 L 309.5 414 L 286.5 415 Q 274.5 409.5 254.5 412 L 226.5 421 L 206.5 421 L 183.5 414 L 170.5 414 L 154.5 418 L 143.5 418 L 128.5 414 L 110.5 402 L 94.5 399 L 86 392.5 Q 83 388.5 84 380.5 L 89 370.5 L 89 365.5 Q 82.6 349.9 85 325.5 L 87 321.5 L 86 318.5 Q 89 306.5 88 290.5 L 86 276.5 L 76 247.5 L 75 227.5 Q 76.8 204.8 89.5 193 L 109 179.5 L 109 159.5 L 104 141.5 L 106 138.5 L 104.5 137 L 91.5 136 L 80 127.5 L 76 116.5 L 77 114.5 L 76 112.5 L 79 103.5 L 85.5 96 L 96.5 91 Z M 96 101 L 89 104 L 84 113 L 86 124 L 97 131 L 105 130 Q 111 126 113 118 Q 113 110 109 106 Q 106 100 96 101 Z M 185 109 L 183 110 L 174 122 L 176 132 L 185 138 L 196 136 L 202 128 L 202 117 L 194 109 L 185 109 Z M 100 199 L 97 200 Q 92 202 92 208 L 99 205 L 107 205 L 108 203 Q 107 198 100 199 Z M 153 204 L 149 208 L 162 212 L 163 216 L 166 217 L 165 210 Q 162 204 153 204 Z M 101 216 L 98 217 L 92 225 L 93 234 L 98 237 Q 106 237 109 231 L 107 220 L 101 216 Z M 150 222 L 144 230 Q 143 238 148 242 L 158 241 L 161 234 L 160 227 Q 159 220 150 222 Z M 102 244 L 100 245 L 96 251 L 99 250 L 103 255 Q 103 266 107 273 L 119 281 Q 132 283 136 276 L 148 255 L 153 256 L 149 249 L 134 256 L 120 256 L 110 253 L 106 250 Q 102 251 104 246 L 102 244 Z M 420 360 L 406 371 L 394 374 L 376 375 L 363 383 L 353 386 L 339 384 L 324 385 L 301 396 L 289 396 L 267 389 Q 256 388 249 391 L 232 400 L 222 403 L 208 402 L 188 393 L 170 393 L 154 399 L 149 398 L 147 399 L 140 399 L 117 384 L 109 381 Q 100 379 101 383 L 112 385 L 131 398 L 142 402 L 157 401 L 173 395 L 188 396 Q 199 403 214 406 L 226 405 Q 239 396 257 392 L 269 392 L 291 399 L 305 398 L 328 387 L 342 387 L 343 388 L 356 387 L 358 388 L 382 376 Q 396 378 405 374 L 420 363 L 420 360 Z " /><path fill="rgb(191,132,72)" stroke="rgb(191,132,72)" stroke-width="0.6" opacity="1" d="M 94.5 105 L 100 106.5 Q 101.3 111.8 98.5 113 L 93.5 114 L 90 109.5 L 92.5 106 L 94.5 105 Z " /><path fill="rgb(191,132,72)" stroke="rgb(191,132,72)" stroke-width="0.6" opacity="1" d="M 300.5 164 L 321 164.5 L 300.5 165 L 300.5 164 Z " /><path fill="rgb(191,132,72)" stroke="rgb(191,132,72)" stroke-width="0.6" opacity="1" d="M 414.5 254 L 415 281.5 L 414 281.5 L 414.5 254 Z " /><path fill="rgb(191,132,72)" stroke="rgb(191,132,72)" stroke-width="0.6" opacity="1" d="M 392.5 263 L 393 278.5 L 392 278.5 L 392.5 263 Z " /><path fill="rgb(191,132,72)" stroke="rgb(191,132,72)" stroke-width="0.6" opacity="1" d="M 190.5 292 L 200.5 292 L 213.5 297 Q 236.7 311.2 255.5 330 L 275.5 339 Q 284.9 351.6 299 359.5 L 298.5 361 L 279.5 361 L 261.5 357 L 246.5 350 L 212.5 322 L 199.5 315 L 192.5 314 L 188 310.5 L 185 297.5 L 188.5 293 L 190.5 292 Z " /><path fill="rgb(234,191,117)" stroke="rgb(234,191,117)" stroke-width="0.6" opacity="1" d="M 185.5 113 Q 190.3 112.3 191 115.5 L 188.5 120 L 182 117.5 L 183.5 114 L 185.5 113 Z " /><path fill="rgb(234,191,117)" stroke="rgb(234,191,117)" stroke-width="0.6" opacity="1" d="M 294.5 165 L 325.5 165 L 347.5 170 Q 374.8 180.7 392 201.5 Q 404.9 215.6 411 236.5 L 414 249.5 L 414 286.5 Q 407.8 323.8 384.5 344 Q 376.8 351.7 366 355 Q 370.5 347.3 369 332.5 L 364 320.5 L 379 309.5 L 386 299.5 L 392.5 284 L 402.5 285 L 406 284 L 405.5 282 L 395.5 282 L 392 279.5 L 393 278.5 L 393 263.5 L 390 252.5 Q 399.3 249.3 405 242.5 L 407 239.5 L 405.5 238 L 398.5 245 L 389.5 249 L 382 234.5 L 371.5 223 L 369 221.5 L 377 208.5 L 379 196 L 376 197.5 Q 375.3 212.3 366.5 219 L 354.5 213 L 342.5 210 L 332.5 210 L 331 208.5 Q 333 201.6 329 203 Q 330.5 208.4 327.5 210 Q 298.1 210.6 284.5 227 Q 276.7 211.3 263.5 201 L 249 194 L 250.5 197 Q 264 202.5 272 213.5 L 278 222.5 L 280 232.5 Q 262.4 247.2 260 276 Q 248.8 265.4 233.5 258 L 223.5 255 L 206 255 L 206.5 257 L 217.5 257 Q 245.3 261.7 259 280.5 L 259 302.5 L 265 322.5 L 269 330 L 257.5 326 L 219.5 295 L 207.5 289 L 196.5 288 L 195 286.5 L 194 277.5 Q 198.2 273.7 196 263.5 L 208 227.5 Q 219.4 204.4 238.5 189 Q 259.7 170.2 294.5 165 Z M 319 169 L 323 177 L 325 178 L 323 172 L 319 169 Z M 326 178 L 329 192 L 329 201 L 331 201 Q 333 185 326 178 Z " /><path fill="rgb(234,191,117)" stroke="rgb(234,191,117)" stroke-width="0.6" opacity="1" d="M 109.5 256 Q 118.2 262.8 136.5 260 L 139 259 Q 141.1 264.2 136.5 263 L 131.5 262 L 124.5 264 L 120.5 263 L 112.5 269 Q 107.8 265.8 108 257.5 L 109.5 256 Z " /><path fill="rgb(83,153,79)" stroke="rgb(83,153,79)" stroke-width="0.6" opacity="1" d="M 327.5 214 L 329.5 214 Q 343.5 214 353.5 218 Q 365.2 222.8 373 231.5 L 385 251.5 L 388 266.5 L 388 275.5 L 386 286.5 L 381 298.5 L 367.5 313 Q 357.2 320.2 338.5 319 Q 323.8 316.2 316 306.5 Q 306.9 297.1 309 276.5 Q 311.9 262.9 321.5 256 L 333.5 251 L 340.5 251 Q 349.6 252.9 354 259.5 Q 358.2 264.3 357 274.5 L 352 283 L 340.5 285 Q 334.3 282.3 335 272.5 L 341.5 270 L 345 272 L 343.5 267 L 337.5 267 L 332 272.5 L 331 281.5 L 339.5 289 L 349.5 289 L 359 280.5 Q 362.4 275.4 361 265.5 L 360 261.5 L 351.5 251 Q 344.5 245 329.5 247 L 321.5 250 L 314 256.5 L 306 267.5 L 303 285.5 Q 305.3 299.7 312 309.5 L 302 318.5 L 303.5 319 L 315.5 311 L 329.5 322 L 348.5 324 L 363 321 Q 367.2 328.6 367 341.5 L 366 344.5 L 365 354 L 363 355.5 L 360.5 359 L 347.5 363 L 331.5 364 L 317.5 362 L 302.5 356 L 284 342.5 L 276 332.5 L 266 309.5 L 264 296.5 L 264 277.5 L 266 266.5 L 273 252.5 L 273 249.5 L 282.5 236 L 287 232.5 L 289.5 229 L 308.5 218 L 327.5 214 Z " /><path fill="rgb(83,153,79)" stroke="rgb(83,153,79)" stroke-width="0.6" opacity="1" d="M 129.5 266 L 135 268 L 135 270.5 L 128.5 277 Q 116.5 279.5 114 272.5 L 117.5 268 L 125.5 269 L 129.5 266 Z " /><path fill="rgb(1,1,1)" stroke="rgb(1,1,1)" stroke-width="0.6" opacity="1" d="M 93.5 87 L 107.5 88 L 120 97.5 Q 125.9 104.1 126 116.5 Q 123.6 128.1 116 134.5 L 116 140.5 L 124 168.5 L 127.5 173 L 138.5 173 L 151.5 176 L 168 148.5 L 169 137.5 Q 161.9 131.6 164 116.5 Q 166.4 106.4 173.5 101 Q 180.2 94.2 194.5 95 L 209 103.5 Q 216.8 110.2 216 125.5 Q 213.6 138.1 204.5 144 L 197.5 148 Q 187.9 146.4 184 150.5 L 174 170.5 L 172 185.5 Q 183.9 196.1 190 212.5 L 193 227.5 L 193 242.5 Q 188.8 246.3 191 256.5 L 184 279.5 L 184 289 Q 188.7 290 190 286.5 L 190 271.5 L 192 260.5 L 201 231.5 Q 213.2 204.2 234.5 186 Q 251.2 171.7 274.5 164 L 292.5 160 L 316.5 160 L 317.5 161 L 332.5 161 L 359.5 170 Q 379.7 180.3 394 196.5 Q 408.6 212.9 416 236.5 L 420 256.5 L 420 278.5 L 416 299.5 L 411 313.5 Q 404.2 330.2 392 341.5 L 394.5 344 L 415.5 344 L 416.5 343 L 430.5 343 L 441 351.5 L 441 364.5 Q 437.2 374.2 429.5 380 L 416.5 388 L 385.5 396 L 370.5 405 Q 356.4 409.4 335.5 407 L 311.5 418 L 286.5 419 Q 275.2 414.3 257.5 416 L 229.5 425 L 208.5 426 L 194.5 423 L 185.5 419 L 166.5 419 L 159.5 422 L 137.5 422 Q 120.9 417.1 109.5 407 L 90.5 402 L 81 393.5 Q 77.9 389.1 79 380.5 L 84 371.5 L 84 361.5 L 80 347.5 L 80 328.5 L 83 312.5 L 83 283.5 L 71 244.5 L 70 225.5 L 75 207.5 L 89.5 188 L 105 176.5 L 106 165.5 L 102 147.5 L 96.5 140 Q 83.1 139.9 78 131.5 L 72 118.5 L 72 109.5 Q 74.7 99.2 81.5 93 L 93.5 87 Z M 96 91 L 86 95 Q 78 100 76 111 Q 75 122 79 128 Q 86 139 105 137 L 103 141 L 109 162 L 109 179 L 94 189 Q 79 199 75 220 L 75 245 L 86 279 Q 84 288 88 292 L 88 304 L 86 307 L 86 324 L 85 325 L 85 354 L 88 364 L 88 371 L 83 383 L 85 393 L 95 400 L 111 403 L 129 415 L 141 418 Q 158 420 169 415 L 187 415 L 205 421 L 230 421 L 257 412 Q 273 410 284 415 L 309 415 Q 323 407 341 402 L 367 402 L 391 390 L 415 385 L 427 378 Q 435 373 438 363 Q 439 354 436 351 L 432 347 Q 418 345 412 349 Q 398 351 392 346 L 361 364 L 345 368 Q 325 370 314 364 L 298 364 L 297 365 L 272 364 L 256 359 L 238 349 Q 221 332 200 320 L 198 321 L 191 319 Q 182 313 180 301 L 180 283 L 188 252 L 188 220 Q 185 207 178 198 L 168 189 L 168 181 L 171 170 L 182 150 L 180 144 L 184 145 L 195 145 L 204 141 L 212 128 Q 213 112 206 106 L 203 102 L 194 99 Q 180 97 176 104 L 168 115 Q 165 132 173 139 Q 168 165 153 180 L 140 177 L 125 177 L 115 152 L 114 142 L 111 138 L 119 127 L 122 117 Q 122 106 118 101 Q 114 94 106 91 L 96 91 Z M 296 164 Q 254 170 232 194 Q 214 211 204 235 L 195 265 L 194 287 L 196 288 L 208 290 L 220 296 L 255 325 L 269 332 L 271 331 L 266 323 L 260 303 L 259 280 L 253 272 L 259 277 L 261 277 Q 263 247 281 233 L 279 223 Q 273 211 263 204 L 265 203 Q 277 214 285 229 Q 292 220 304 215 L 319 211 L 328 211 L 330 209 L 334 211 L 343 211 L 355 214 L 372 224 L 381 235 Q 389 247 392 264 L 392 279 L 391 280 L 392 282 L 386 298 L 381 306 L 369 317 L 348 324 L 333 322 L 321 316 L 317 312 L 313 310 Q 307 301 304 288 Q 303 268 313 259 Q 320 250 333 247 L 342 247 L 351 251 Q 358 257 361 268 Q 362 277 358 282 L 349 289 L 339 288 L 332 282 L 332 273 L 339 267 L 342 267 L 344 271 L 336 270 L 335 273 Q 333 283 340 285 L 352 284 L 358 273 L 356 262 Q 352 254 343 251 L 332 251 L 321 256 Q 312 262 309 274 Q 306 296 315 306 Q 322 315 336 319 Q 358 322 369 313 L 382 298 L 388 280 Q 389 264 386 253 L 376 235 Q 364 218 341 214 L 325 214 L 310 217 L 287 231 L 274 247 L 265 268 L 264 274 L 265 308 L 274 330 L 280 339 Q 296 360 330 364 L 346 364 L 361 360 L 362 357 Q 375 354 384 346 Q 408 325 415 286 L 415 251 L 412 237 Q 406 217 394 203 Q 376 180 348 169 L 325 164 L 296 164 Z M 190 292 L 188 293 L 184 298 L 187 311 L 193 315 Q 203 316 210 321 L 246 350 L 263 358 L 276 361 L 301 361 L 301 359 Q 286 352 277 339 Q 262 334 252 326 Q 235 310 216 297 L 203 292 L 190 292 Z " /><path fill="rgb(1,1,1)" stroke="rgb(1,1,1)" stroke-width="0.6" opacity="1" d="M 96.5 101 Q 104.8 100.8 108 105.5 Q 113.1 108.9 112 118.5 L 105.5 128 Q 102.9 131.4 95.5 130 L 87 123.5 L 85 111.5 L 90.5 104 L 96.5 101 Z M 97 104 L 92 106 L 89 110 L 91 113 Q 90 115 98 114 L 101 110 L 100 107 L 97 104 Z " /><path fill="rgb(1,1,1)" stroke="rgb(1,1,1)" stroke-width="0.6" opacity="1" d="M 185.5 109 L 191.5 109 L 201 116.5 L 202 125.5 L 195.5 135 L 183.5 137 L 178 132.5 Q 174.2 129.3 175 121.5 L 183.5 110 L 185.5 109 Z M 187 112 L 183 113 L 181 118 L 186 121 Q 191 122 192 119 L 191 114 L 187 112 Z " /><path fill="rgb(1,1,1)" stroke="rgb(1,1,1)" stroke-width="0.6" opacity="1" d="M 97.5 200 Q 106.3 198.3 108 203.5 L 105.5 205 L 99.5 204 L 93 207 L 97.5 200 Z " /><path fill="rgb(1,1,1)" stroke="rgb(1,1,1)" stroke-width="0.6" opacity="1" d="M 152.5 205 Q 161.5 204 164 209.5 L 166 216 L 164 214.5 L 161.5 211 L 151 208 L 152.5 205 Z " /><path fill="rgb(1,1,1)" stroke="rgb(1,1,1)" stroke-width="0.6" opacity="1" d="M 99.5 217 Q 105.7 216.3 107 220.5 L 108 230.5 L 104.5 235 L 97.5 236 L 94 233.5 L 93 223.5 L 97.5 218 L 99.5 217 Z M 101 220 L 98 225 L 103 226 L 104 222 L 101 220 Z " /><path fill="rgb(1,1,1)" stroke="rgb(1,1,1)" stroke-width="0.6" opacity="1" d="M 151.5 222 L 154.5 222 L 160 227.5 Q 161.8 239.3 154.5 242 Q 147.3 243.3 146 238.5 L 145 228.5 L 149.5 223 L 151.5 222 Z M 153 225 L 150 229 L 155 231 L 156 228 L 153 225 Z " /><path fill="rgb(1,1,1)" stroke="rgb(1,1,1)" stroke-width="0.6" opacity="1" d="M 100.5 245 Q 104.7 243.7 103 248.5 Q 111.8 258.2 131.5 257 L 148.5 250 L 151 254 L 145 255.5 Q 142.2 270.2 132.5 278 Q 128.4 281.9 119.5 281 L 107 270.5 Q 103.1 264.9 104 254.5 L 100.5 250 L 97 248.5 L 100.5 245 Z M 109 255 L 107 257 Q 107 266 112 270 L 114 269 L 115 270 L 114 274 L 120 278 L 130 277 L 136 270 L 132 266 Q 126 265 125 269 Q 123 266 118 267 L 120 264 L 125 265 L 131 263 Q 136 262 138 265 L 140 261 L 140 258 L 137 259 Q 118 262 109 255 Z " /><path fill="rgb(1,1,1)" stroke="rgb(1,1,1)" stroke-width="0.6" opacity="1" d="M 377.5 375 Q 381.3 374 380 377 L 359.5 387 L 356 387 Q 354.7 383.7 359.5 385 L 377.5 375 Z " /><path fill="rgb(1,1,1)" stroke="rgb(1,1,1)" stroke-width="0.6" opacity="1" d="M 114 384 L 134 396 L 132.5 398 L 114 385.5 L 114 384 Z " /><path fill="rgb(1,1,1)" stroke="rgb(1,1,1)" stroke-width="0.6" opacity="1" d="M 324.5 385 L 339.5 385 L 340 387 L 325.5 387 L 308.5 396 L 303 397 Q 301.8 394 305.5 395 L 324.5 385 Z " /><path fill="rgb(1,1,1)" stroke="rgb(1,1,1)" stroke-width="0.6" opacity="1" d="M 254.5 390 L 270.5 390 L 280 393 L 278.5 395 Q 269.8 389.7 253.5 392 L 247.5 394 L 248.5 392 L 254.5 390 Z " /><path fill="rgb(1,1,1)" stroke="rgb(1,1,1)" stroke-width="0.6" opacity="1" d="M 170.5 393 L 186.5 393 L 190 395.5 L 187.5 396 L 186.5 395 L 170.5 395 L 153 401 Q 151.8 398 155.5 399 L 170.5 393 Z " /><path fill="rgb(1,1,1)" stroke="rgb(1,1,1)" stroke-width="0.6" opacity="1" d="M 289 396 L 300.5 396 L 301 398 L 292.5 399 L 289 398 L 289 396 Z " /><path fill="rgb(1,1,1)" stroke="rgb(1,1,1)" stroke-width="0.6" opacity="1" d="M 224.5 402 L 229 402.5 Q 222.7 407.2 209.5 405 L 208.5 403 L 223.5 403 L 224.5 402 Z " /><path fill="rgb(32,32,32)" stroke="rgb(32,32,32)" stroke-width="0.6" opacity="1" d="M 231.5 194 L 226.5 200 L 231.5 194 Z " /><path fill="rgb(32,32,32)" stroke="rgb(32,32,32)" stroke-width="0.6" opacity="1" d="M 218 255 L 235 260.5 L 232.5 261 L 222.5 257 L 218 257 L 218 255 Z " /><path fill="rgb(32,32,32)" stroke="rgb(32,32,32)" stroke-width="0.6" opacity="1" d="M 240.5 263 L 247 267.5 L 245.5 267 L 240.5 263 Z " /><path fill="rgb(62,62,62)" stroke="rgb(62,62,62)" stroke-width="0.6" opacity="1" d="M 234.5 259 L 240 262.5 L 237 262.5 L 236.5 261 L 235 261.5 L 234.5 259 Z " /><path fill="rgb(89,91,80)" stroke="rgb(89,91,80)" stroke-width="0.6" opacity="1" d="M 230.5 189 L 224.5 196 L 230.5 189 Z " /><path fill="rgb(89,91,80)" stroke="rgb(89,91,80)" stroke-width="0.6" opacity="1" d="M 254.5 197 L 258 198.5 L 258.5 200 L 260 199.5 Q 258.5 202.5 257 199.5 L 256.5 198 Q 254.7 200.5 254.5 197 Z " /><path fill="rgb(167,128,71)" stroke="rgb(167,128,71)" stroke-width="0.6" opacity="1" d="M 412.5 366 L 413.5 368 L 411.5 368 L 410 368.5 L 410.5 370 L 408 369.5 L 412.5 366 Z " /><path fill="rgb(127,123,70)" stroke="rgb(127,123,70)" stroke-width="0.6" opacity="1" d="M 277.5 340 L 288.5 352 L 277.5 340 Z " /><path fill="rgb(201,181,116)" stroke="rgb(201,181,116)" stroke-width="0.6" opacity="1" d="M 233.5 193 L 225.5 202 L 233.5 193 Z " /><path fill="rgb(201,181,116)" stroke="rgb(201,181,116)" stroke-width="0.6" opacity="1" d="M 264.5 205 L 269.5 211 L 264.5 205 Z " /><path fill="rgb(201,181,116)" stroke="rgb(201,181,116)" stroke-width="0.6" opacity="1" d="M 373.5 209 L 374.5 211 L 376 210.5 L 371.5 216 Q 368.3 214.3 372 212.5 L 373.5 209 Z " /><path fill="rgb(154,153,130)" stroke="rgb(154,153,130)" stroke-width="0.6" opacity="1" d="M 383.5 192 L 388.5 198 L 383.5 192 Z " /><path fill="rgb(80,129,75)" stroke="rgb(80,129,75)" stroke-width="0.6" opacity="1" d="M 331.5 281 L 337.5 288 L 331.5 281 Z " /><path fill="rgb(80,129,75)" stroke="rgb(80,129,75)" stroke-width="0.6" opacity="1" d="M 302.5 318 L 304 318.5 L 302 319 L 300.5 321 L 297.5 323 L 299.5 320 L 302.5 318 Z " /></svg>