<svg width="1254" height="1254" preserveAspectRatio="xMidYMid meet" viewBox="0 0 512 512" version="1.1" xmlns="http://www.w3.org/2000/svg" ><path fill="rgb(255,255,255)" stroke="rgb(255,255,255)" stroke-width="0.6" opacity="1" d="M 0 0 L 512 0 L 512 512 L 0 512 L 0 0 Z M 240 33 Q 227 36 219 44 L 198 35 L 185 34 L 165 37 L 160 40 Q 154 41 155 49 L 133 55 L 114 67 L 97 88 L 98 94 Q 72 115 63 153 L 64 163 Q 66 166 72 164 L 65 179 L 60 195 L 60 204 L 58 207 Q 56 226 62 237 L 66 239 L 70 238 L 69 242 Q 66 286 90 304 L 96 303 L 109 326 L 126 341 L 132 343 L 133 345 L 133 359 L 130 361 L 124 368 L 119 381 Q 117 399 123 409 L 111 414 Q 103 420 99 430 Q 97 443 102 450 Q 104 454 111 455 L 114 460 Q 122 469 137 472 L 167 472 L 179 467 L 180 465 L 190 456 L 194 467 Q 201 478 219 479 L 250 478 L 260 473 L 268 464 L 277 472 L 286 476 Q 293 475 296 478 L 333 477 L 348 473 L 362 465 Q 369 460 369 447 L 375 442 L 388 441 L 407 432 L 423 415 L 429 401 L 432 386 L 432 367 L 424 339 L 424 324 Q 428 319 436 318 Q 454 305 453 273 Q 452 269 448 270 Q 444 268 446 260 L 438 240 L 432 237 Q 427 249 419 257 L 417 256 L 412 257 Q 400 265 395 281 L 395 303 Q 398 313 406 319 L 406 345 L 411 362 L 411 383 L 401 403 Q 396 409 386 409 L 384 408 L 384 391 L 375 364 L 357 340 L 340 324 L 340 321 L 351 308 L 358 291 L 358 284 Q 361 283 360 287 Q 361 290 366 289 Q 373 283 377 274 L 383 251 Q 385 230 382 217 L 387 218 Q 392 214 393 206 L 392 170 Q 387 150 376 137 L 379 133 Q 377 109 363 97 Q 353 85 337 79 L 338 71 Q 328 57 310 51 L 300 48 L 270 47 Q 274 45 273 39 L 266 33 L 240 33 Z " /><path fill="rgb(224,171,70)" stroke="rgb(224,171,70)" stroke-width="0.6" opacity="1" d="M 248.5 39 L 249.5 40 L 262.5 40 L 264 41.5 L 262.5 45 L 252 54.5 L 251 57.5 L 252 60 L 257.5 60 L 269.5 55 L 290.5 55 L 300.5 56 L 313.5 60 L 325 67.5 L 326.5 70 Q 329.5 69.2 328 73 Q 318.1 72 314 77.5 L 315.5 81 L 322.5 82 L 324.5 81 L 345.5 90 L 362 106.5 L 371 124.5 L 368.5 125 L 359.5 123 L 357 127.5 L 371 140.5 L 384 167.5 Q 382.9 176.1 386 180.5 L 386 204.5 L 383 206 L 374.5 196 L 370.5 195 L 368 196 L 376 223.5 L 376 251.5 L 372 266.5 L 365.5 278 Q 362.5 278.9 364 274.5 Q 362.9 265.1 356.5 261 L 354 262.5 L 353 270.5 L 354 275.5 L 352 277.5 L 351 283.5 L 352 286.5 L 344 305.5 L 338 314 L 334 316.5 L 328.5 324 L 319.5 330 L 316 330 L 316 318.5 L 314.5 317 L 311 319.5 Q 305.2 331.7 295.5 340 Q 282.1 351.6 262.5 357 L 261 354.5 L 262 347.5 L 258.5 346 L 245.5 357 L 208.5 374 L 202.5 375 Q 190.8 369.2 183 359.5 L 175.5 348 L 172 349.5 L 174 357.5 L 171.5 359 L 147 342.5 L 136.5 325 L 133 327.5 L 132 335 Q 122.3 331.7 116 323.5 L 103 302.5 L 99 288.5 L 99 280.5 L 97.5 279 L 93 281.5 Q 90 285.8 91 293 Q 87.3 294.5 88 291.5 L 78 273.5 L 76 262.5 L 76 247.5 L 77 235.5 L 83 217.5 L 79.5 216 L 68.5 228 L 66 227.5 L 66 219.5 L 66 217.5 L 65 212.5 L 66 201.5 L 68 198.5 L 68 191.5 L 72 179.5 L 78 167.5 L 90 153.5 L 91 149.5 L 85.5 148 L 73.5 154 L 72 149.5 L 79 128.5 L 101.5 102 L 122 89.5 L 119.5 85 L 109 86 L 123.5 68 Q 132.8 60.8 146.5 58 L 168.5 58 L 175.5 60 L 177 55.5 L 166 46.5 Q 165.1 43.1 170.5 45 L 175.5 42 L 194.5 42 Q 204.9 43.6 211 49.5 L 207 55.5 L 207 59.5 L 209.5 61 Q 221.9 42.9 248.5 39 Z M 144 93 Q 132 94 127 101 Q 117 109 114 125 Q 114 141 121 151 L 134 162 L 124 186 L 122 201 L 114 222 L 114 228 Q 113 232 106 230 L 103 234 Q 105 238 112 236 Q 115 242 114 252 L 102 260 L 104 262 L 109 262 L 116 259 L 130 282 L 156 303 L 187 317 L 207 322 L 228 322 L 231 320 L 233 321 L 267 314 L 289 303 L 298 296 L 299 294 L 307 287 L 317 291 L 318 287 L 312 282 L 318 266 L 324 262 L 322 259 L 323 250 L 325 247 L 325 207 L 324 206 L 325 204 L 322 187 L 339 178 Q 348 170 352 157 L 352 144 L 345 129 Q 338 119 325 115 L 323 116 L 318 115 L 300 122 L 296 127 L 294 128 L 291 132 L 273 124 L 279 117 L 279 113 L 277 113 L 260 128 L 235 138 Q 225 139 222 135 Q 206 125 200 105 L 198 103 Q 194 105 196 114 L 196 116 L 194 115 L 182 118 L 173 103 Q 164 92 144 93 Z " /><path fill="rgb(224,171,70)" stroke="rgb(224,171,70)" stroke-width="0.6" opacity="1" d="M 142.5 101 L 156.5 101 L 169 109.5 Q 173.7 113.3 174 121.5 L 166.5 125 L 156.5 113 L 145.5 112 L 136 118.5 L 133 123.5 L 132 133.5 L 139 146 L 141 147.5 L 141 149.5 L 140 154 Q 130.9 153.6 127 146.5 L 122 135.5 L 121 125 L 123 124.5 L 122 121.5 Q 124.8 111.3 132.5 106 L 142.5 101 Z " /><path fill="rgb(224,171,70)" stroke="rgb(224,171,70)" stroke-width="0.6" opacity="1" d="M 147.5 119 Q 155.6 118.4 158 123.5 L 160 130.5 L 146.5 142 L 140 136.5 L 139 126.5 L 143.5 121 L 147.5 119 Z " /><path fill="rgb(224,171,70)" stroke="rgb(224,171,70)" stroke-width="0.6" opacity="1" d="M 140 344 L 142 345.5 L 162.5 363 L 175.5 368 L 182.5 366 L 189.5 374 L 201.5 382 L 209.5 382 L 216.5 377 Q 219.3 378.3 218 383.5 L 216 386.5 L 215 414.5 Q 214.1 421.1 209.5 424 L 205.5 425 L 201 421.5 L 202 419.5 L 194.5 414 L 196.5 418 L 187 405.5 L 178 382.5 L 178 375.5 L 175.5 372 L 174 373.5 L 174 387.5 L 177 398.5 L 188 416.5 L 188 420.5 L 186 432.5 L 187 435.5 Q 183.5 437.5 184 443.5 L 185 445.5 L 182 452.5 L 175.5 460 L 165.5 464 L 152.5 464 Q 147.5 461.5 149 452.5 L 154 442.5 L 151.5 441 L 145 446.5 L 142 454.5 L 143 456.5 L 142 460.5 L 143 464 L 139.5 463 L 136.5 464 L 130 459.5 Q 127.1 455.9 128 448.5 L 133 440.5 L 133 437 Q 127.5 435.8 126 439.5 Q 120.5 444.8 122 456 L 118 454.5 Q 114.2 449.8 116 439.5 L 119 431.5 L 116.5 430 L 113 432.5 L 109 441 L 107 439.5 L 106 433.5 Q 109.1 423.6 116.5 418 Q 121.1 415.1 129.5 416 L 135.5 420 L 140 417.5 L 140 344 Z " /><path fill="rgb(224,171,70)" stroke="rgb(224,171,70)" stroke-width="0.6" opacity="1" d="M 195 428 L 199 430.5 L 195 439 Q 191.7 440.3 193 435.5 L 195 428 Z " /><path fill="rgb(139,91,48)" stroke="rgb(139,91,48)" stroke-width="0.6" opacity="1" d="M 176.5 41 L 192 41.5 L 176.5 42 L 176.5 41 Z " /><path fill="rgb(139,91,48)" stroke="rgb(139,91,48)" stroke-width="0.6" opacity="1" d="M 143.5 100 L 156 100.5 L 143.5 101 L 143.5 100 Z " /><path fill="rgb(139,91,48)" stroke="rgb(139,91,48)" stroke-width="0.6" opacity="1" d="M 190.5 122 L 200.5 122 L 202 123.5 L 217.5 140 L 227.5 146 L 232.5 146 Q 239.8 140.8 251.5 140 L 265.5 130 L 270.5 130 Q 289.4 136.1 300 150.5 L 309 165.5 L 317 192.5 L 318 242.5 L 316 254.5 L 314.5 256 Q 299.8 246.2 273.5 248 L 264.5 250 L 262 252.5 Q 260.9 257.2 269.5 255 L 270.5 254 L 290.5 254 L 305.5 257 L 313 261 L 313 264.5 L 307 276 L 303.5 276 L 276.5 264 L 265.5 263 L 264 266.5 L 290.5 275 L 300 281.5 L 300 283.5 L 289.5 294 L 268.5 306 L 252.5 311 L 230.5 314 L 206.5 314 L 187.5 310 L 155.5 295 L 136 278.5 L 126 264.5 L 124 257.5 L 127.5 255 L 139.5 253 L 158.5 253 L 160 251.5 L 158.5 248 Q 137.4 245.9 123.5 251 Q 118.5 247.5 119 238.5 L 122.5 233 L 137.5 233 L 152.5 237 L 160.5 242 L 163.5 242 L 165 238.5 L 144.5 229 L 121.5 228 L 120 226.5 L 129 192.5 L 137 169.5 Q 145.9 149.4 161.5 136 Q 172.3 125.3 190.5 122 Z M 175 159 L 170 162 L 165 168 L 167 173 L 179 167 L 189 169 L 190 164 Q 187 156 175 159 Z M 265 170 L 259 175 L 260 178 Q 262 181 270 179 L 280 187 L 283 186 L 281 178 L 272 170 L 265 170 Z M 177 190 L 173 192 Q 165 197 163 209 L 166 220 L 175 226 L 180 226 Q 188 220 190 208 L 187 196 Q 184 191 177 190 Z M 261 201 L 257 203 L 249 215 Q 247 225 251 231 L 258 236 L 267 235 Q 274 230 276 220 Q 277 211 273 207 L 266 201 L 261 201 Z M 208 215 L 204 218 L 206 219 L 219 219 L 231 224 L 232 222 Q 225 213 208 215 Z M 198 224 L 191 227 L 187 232 L 187 240 L 192 250 L 206 262 L 205 270 L 198 275 L 186 273 L 179 265 L 180 260 Q 183 258 179 256 L 176 257 L 173 261 L 178 276 L 186 280 L 191 290 Q 195 296 203 298 Q 215 300 222 295 L 226 289 L 229 286 Q 237 285 242 281 L 243 279 L 249 274 L 247 269 L 243 265 L 239 276 L 232 280 L 219 278 L 213 273 L 212 263 L 221 260 L 233 253 L 241 243 L 240 236 Q 228 221 198 224 Z " /><path fill="rgb(139,91,48)" stroke="rgb(139,91,48)" stroke-width="0.6" opacity="1" d="M 320.5 122 Q 332.5 123 338 130.5 Q 346.1 138.4 345 155.5 Q 343 167.5 334.5 173 Q 329.5 178 319.5 178 L 317 171.5 L 329 164.5 L 334 149.5 Q 332.3 141.2 326.5 137 Q 323 133 313.5 135 L 301.5 144 L 295 137.5 L 295 135.5 Q 301 125.5 314.5 123 L 317.5 124 L 320.5 122 Z " /><path fill="rgb(139,91,48)" stroke="rgb(139,91,48)" stroke-width="0.6" opacity="1" d="M 363.5 133 L 368.5 139 L 363.5 133 Z " /><path fill="rgb(139,91,48)" stroke="rgb(139,91,48)" stroke-width="0.6" opacity="1" d="M 351.5 143 L 352 156.5 L 351 156.5 L 351.5 143 Z " /><path fill="rgb(139,91,48)" stroke="rgb(139,91,48)" stroke-width="0.6" opacity="1" d="M 386.5 183 L 387 200.5 L 386 200.5 L 386.5 183 Z " /><path fill="rgb(139,91,48)" stroke="rgb(139,91,48)" stroke-width="0.6" opacity="1" d="M 324.5 206 L 325 246.5 L 324 246.5 L 324.5 206 Z " /><path fill="rgb(139,91,48)" stroke="rgb(139,91,48)" stroke-width="0.6" opacity="1" d="M 376.5 227 L 377 248.5 L 376 248.5 L 376.5 227 Z " /><path fill="rgb(139,91,48)" stroke="rgb(139,91,48)" stroke-width="0.6" opacity="1" d="M 433.5 247 Q 442.1 257.4 439 279.5 Q 436.2 281.2 440.5 283 L 446 280 Q 447 300.7 435.5 310 L 427.5 315 L 420.5 315 Q 418.5 311 410.5 313 L 405 307.5 Q 398.7 300.8 401 285.5 Q 403.3 273.8 410.5 267 L 416.5 269 Q 427.4 260.4 433.5 247 Z " /><path fill="rgb(139,91,48)" stroke="rgb(139,91,48)" stroke-width="0.6" opacity="1" d="M 206.5 277 L 210 278.5 L 211.5 281 L 222 286.5 Q 218 294 205.5 293 L 196 287.5 L 194 282.5 Q 195.5 279.5 201.5 281 L 206.5 277 Z " /><path fill="rgb(139,91,48)" stroke="rgb(139,91,48)" stroke-width="0.6" opacity="1" d="M 206.5 321 L 228 321.5 L 206.5 322 L 206.5 321 Z " /><path fill="rgb(139,91,48)" stroke="rgb(139,91,48)" stroke-width="0.6" opacity="1" d="M 139.5 354 L 140 413.5 L 139 413.5 L 139.5 354 Z " /><path fill="rgb(139,91,48)" stroke="rgb(139,91,48)" stroke-width="0.6" opacity="1" d="M 216.5 386 L 217 397.5 L 216 397.5 L 216.5 386 Z " /><path fill="rgb(139,91,48)" stroke="rgb(139,91,48)" stroke-width="0.6" opacity="1" d="M 153.5 464 L 164 464.5 L 153.5 465 L 153.5 464 Z " /><path fill="rgb(0,0,0)" stroke="rgb(0,0,0)" stroke-width="0.6" opacity="1" d="M 242.5 33 L 261.5 33 L 272 38.5 Q 272.8 44.3 269.5 46 L 266 47.5 L 269.5 49 L 270.5 48 L 286.5 48 L 287.5 49 L 300.5 49 L 317.5 55 L 335 68.5 L 338 74.5 L 336 78.5 L 353.5 89 L 365 100.5 Q 376.2 111.8 378 132.5 L 375 136.5 Q 385.7 149.8 391 168.5 L 393 179.5 L 393 200.5 L 391 210.5 L 386.5 217 L 381.5 213 L 380 215.5 L 381 223.5 L 383 225.5 L 383 247.5 L 376 273.5 L 365.5 288 L 361 286.5 L 359.5 282 L 357 283.5 L 357 290.5 L 352 302.5 L 339 320.5 L 339 323.5 Q 358 339.5 372 360.5 L 380 378.5 Q 379.2 386.7 383 390.5 L 383 408.5 L 384.5 410 Q 397.9 409.9 403 401.5 L 412 382.5 L 412 362.5 L 407 345.5 L 407 325.5 L 406 323.5 L 407 318.5 Q 392.2 309.8 395 283.5 Q 399.8 267.3 411.5 258 L 416.5 257 L 418.5 258 L 427 249.5 Q 427.6 241.6 432.5 238 L 438 241.5 L 445 258.5 L 445 269.5 L 446.5 271 L 452 272.5 L 453 285.5 L 446 304.5 L 434.5 317 L 423 322.5 L 423 337.5 L 431 365.5 L 431 386.5 Q 426.3 417.8 404.5 432 L 387.5 440 L 380.5 442 L 372.5 442 L 368 446.5 Q 368.4 460.4 359.5 465 Q 348.4 472.9 332.5 476 Q 323.8 473.7 321.5 478 L 297.5 478 Q 294 474 285.5 475 L 277.5 471 L 267.5 462 L 258.5 472 L 240.5 479 L 220.5 479 L 218.5 477 Q 208.7 478.3 204.5 474 L 195 465.5 L 189.5 455 L 183 459.5 L 177.5 466 L 163.5 472 L 139.5 472 L 124.5 467 L 110.5 454 L 104 450.5 L 99 440.5 L 99 431.5 Q 102.7 421.2 110.5 415 L 124 409.5 L 119 395.5 L 119 382.5 L 126 366.5 L 133 359.5 L 134 343.5 Q 117.1 335.9 107 321.5 Q 99.5 313.1 97 301 Q 93.2 299.5 94 302.5 L 91.5 304 Q 80.5 296 75 282.5 L 71 268.5 L 69 246.5 L 71 236 L 65.5 238 Q 56.1 228.4 59 206.5 L 61 203.5 L 61 193.5 L 66 178.5 L 74 163.5 L 71.5 163 L 67.5 164 Q 61.8 161.8 64 151.5 Q 72.9 116.9 96.5 97 L 99 95.5 L 97 90.5 Q 104.3 74.8 117.5 65 Q 132.1 52.4 157 51 L 155 45.5 L 164.5 38 L 178.5 35 L 194.5 35 L 215.5 45 L 218.5 45 Q 227.8 36.3 242.5 33 Z M 243 39 Q 220 44 210 60 L 207 59 L 212 50 L 205 44 L 195 41 L 176 41 Q 173 45 166 44 L 164 47 L 176 56 L 175 59 L 169 57 Q 138 54 124 67 L 109 84 Q 105 85 109 87 L 120 86 L 121 90 Q 108 94 99 103 L 77 131 L 71 150 L 73 155 L 85 149 Q 90 148 91 151 Q 77 163 70 183 Q 67 188 68 197 L 66 200 L 66 211 L 64 213 L 66 228 L 69 229 L 80 217 L 82 219 L 76 237 L 77 273 Q 81 286 90 295 L 94 283 L 98 280 L 99 282 L 99 292 L 102 303 L 114 323 Q 121 332 133 337 L 133 335 Q 132 328 136 326 L 146 343 L 165 357 L 173 360 L 175 359 L 173 353 Q 172 349 176 350 L 182 360 Q 190 370 203 376 L 209 375 L 246 358 L 260 346 L 262 348 L 260 356 L 262 358 Q 281 353 295 342 Q 306 333 312 319 L 316 321 L 315 328 L 317 332 L 329 325 Q 340 315 347 302 L 353 287 L 354 264 L 357 262 Q 363 267 363 279 L 366 280 L 373 267 L 377 252 L 377 225 Q 374 221 375 214 L 369 199 L 371 196 L 375 197 L 385 208 L 387 204 L 387 181 Q 384 177 385 169 L 373 142 L 358 128 L 360 124 L 370 127 L 372 126 Q 369 114 362 106 L 342 87 L 328 81 L 318 81 L 316 78 L 321 74 L 329 74 L 329 71 Q 323 63 314 59 L 301 55 L 291 54 L 271 54 L 256 60 L 252 59 L 253 55 L 260 49 L 266 42 L 262 39 L 243 39 Z M 434 246 L 423 263 L 416 269 L 412 266 Q 404 272 401 283 L 401 301 L 405 309 L 411 313 Q 418 312 421 315 L 429 315 L 434 312 Q 447 303 446 280 L 442 282 L 439 281 L 440 276 L 440 263 L 436 248 L 434 246 Z M 414 319 L 412 321 L 412 341 L 415 347 Q 414 357 418 363 L 418 383 L 410 402 Q 402 414 384 416 L 377 433 L 379 435 Q 395 434 405 426 Q 416 416 422 402 L 425 382 L 424 360 L 420 351 L 417 337 L 417 322 L 414 319 Z M 333 328 Q 325 336 314 340 L 310 339 Q 312 334 308 335 L 305 339 L 285 355 L 264 364 L 256 364 L 253 359 Q 242 368 227 372 L 224 375 L 223 400 L 221 402 L 219 425 L 207 431 Q 198 436 196 449 Q 195 459 199 464 L 203 466 L 203 464 Q 202 454 205 451 L 211 445 L 212 447 Q 207 453 209 468 L 217 472 Q 224 474 226 471 L 224 468 L 226 456 L 233 450 L 230 460 Q 229 469 234 472 L 246 472 L 256 468 L 265 458 L 267 451 L 267 443 L 270 438 L 271 422 L 273 418 L 273 406 L 276 399 Q 274 384 278 377 Q 277 372 280 373 L 281 376 L 281 403 L 276 427 L 278 431 L 291 425 L 288 418 L 287 409 L 287 391 L 295 374 L 310 361 L 320 358 Q 331 356 335 362 L 334 363 L 319 363 L 306 370 Q 295 379 292 395 L 292 411 L 296 423 L 309 428 L 308 430 L 305 429 Q 290 427 283 433 L 273 444 L 272 448 L 273 460 L 276 462 L 280 450 L 286 444 L 288 446 L 283 455 L 283 466 Q 286 471 296 470 Q 295 461 298 456 L 306 450 L 306 454 L 302 459 L 302 470 L 304 471 L 328 471 Q 331 468 339 469 L 357 461 L 363 452 L 361 443 L 363 439 L 368 440 Q 374 431 377 419 L 377 391 L 375 382 Q 370 365 360 353 L 336 328 L 333 328 Z M 142 342 L 140 344 L 139 355 L 139 417 L 137 419 Q 130 420 130 415 Q 119 415 114 419 L 106 430 Q 104 440 108 445 L 111 446 L 110 445 Q 109 437 113 435 Q 116 429 118 433 L 115 440 Q 114 449 117 455 L 122 458 L 123 457 L 123 447 L 130 437 L 133 439 Q 128 443 127 451 L 129 460 L 137 465 Q 143 467 145 464 L 143 461 Q 142 452 145 448 L 149 445 Q 151 440 153 444 L 148 453 Q 147 462 153 465 L 166 465 L 176 461 L 183 453 Q 182 448 185 447 L 188 422 L 188 415 Q 177 402 174 382 Q 172 375 176 373 L 178 378 L 178 385 L 183 399 L 193 416 L 206 426 L 212 424 L 215 417 L 215 406 L 217 401 L 217 386 L 218 385 Q 220 378 217 376 L 208 382 Q 196 380 190 373 L 183 365 L 178 367 L 173 367 L 163 362 L 147 349 L 142 342 Z M 132 370 L 126 381 L 126 398 L 130 410 Q 132 413 133 410 L 133 371 L 132 370 Z M 194 425 Q 195 432 192 436 L 193 442 Q 199 438 200 430 L 194 425 Z " /><path fill="rgb(0,0,0)" stroke="rgb(0,0,0)" stroke-width="0.6" opacity="1" d="M 143.5 94 Q 166.3 92.2 174 105.5 L 181.5 119 L 198 114.5 L 196 105.5 Q 198 102 200 106.5 L 205 119.5 L 218.5 134 L 227.5 139 L 233.5 139 L 262.5 127 L 277.5 113 L 278 115.5 L 274.5 121 L 272 122.5 L 273.5 125 L 291.5 133 L 301.5 122 L 315.5 116 L 325.5 116 Q 337.1 119.9 344 128.5 L 351 144.5 L 351 156.5 Q 347.1 170.6 336.5 178 L 327.5 183 L 323.5 183 L 321 185.5 L 324 199.5 L 324 246.5 L 321 258.5 L 322 262 L 317 265.5 L 311 282.5 L 318 287.5 L 316.5 290 L 305.5 286 L 288.5 302 L 266.5 313 L 240.5 319 L 229.5 319 L 227.5 321 L 206.5 321 L 186.5 316 L 157.5 303 Q 142.9 294.6 132 282.5 L 116.5 258 L 104.5 262 L 103 259.5 L 115 252.5 L 114 236.5 L 112.5 235 Q 105.8 236.7 104 233.5 L 105.5 231 Q 112.5 232.5 114 228.5 L 114 223.5 L 123 199.5 L 125 184.5 L 135 160.5 L 120 147.5 Q 114.2 138.3 115 122.5 Q 118.2 109.7 126.5 102 Q 132.5 95.5 143.5 94 Z M 143 100 L 133 105 Q 124 111 121 123 L 121 136 L 128 150 L 139 155 L 143 150 L 133 135 Q 132 123 138 118 L 145 113 L 157 114 L 166 126 L 175 122 Q 174 112 169 108 L 157 100 L 143 100 Z M 149 118 L 142 121 L 138 128 L 140 139 L 145 142 L 149 142 L 161 131 L 158 122 Q 155 118 149 118 Z M 189 122 Q 175 125 166 132 Q 147 146 137 169 L 130 188 L 120 227 L 122 228 L 143 229 Q 156 232 165 240 L 164 242 L 152 236 L 135 232 Q 124 231 119 235 Q 117 246 123 251 L 139 248 L 158 248 L 160 252 L 159 253 L 137 253 L 124 257 L 126 266 L 138 282 Q 164 305 204 314 L 231 314 L 255 311 L 270 306 L 291 294 L 301 282 L 290 274 L 267 268 Q 262 266 267 263 L 282 266 L 306 277 L 314 263 L 305 256 L 293 254 L 271 254 L 270 255 Q 263 256 262 254 L 266 250 L 276 248 Q 300 247 315 256 L 317 254 L 318 243 L 317 191 L 310 167 L 299 149 Q 289 136 273 130 L 266 130 L 253 139 L 236 143 L 232 146 L 229 146 L 217 139 L 212 134 L 201 122 L 189 122 Z M 320 122 L 312 123 L 305 126 L 295 136 L 295 139 L 303 145 L 315 135 Q 323 133 326 137 Q 331 140 333 148 Q 334 157 330 163 L 326 167 L 317 171 Q 315 176 319 178 Q 329 179 334 174 Q 343 169 345 157 Q 347 139 339 132 Q 334 122 320 122 Z M 317 140 Q 308 141 305 148 L 317 165 L 324 163 Q 328 160 329 154 L 326 145 Q 324 140 317 140 Z " /><path fill="rgb(0,0,0)" stroke="rgb(0,0,0)" stroke-width="0.6" opacity="1" d="M 175.5 159 Q 187.7 156.7 190 164.5 L 188.5 168 L 177.5 167 L 166.5 172 L 165 168.5 L 170.5 162 L 175.5 159 Z " /><path fill="rgb(0,0,0)" stroke="rgb(0,0,0)" stroke-width="0.6" opacity="1" d="M 265.5 170 L 270.5 170 L 280 176.5 L 283 184.5 L 278.5 186 L 270.5 179 Q 262 181 260 176.5 L 263.5 171 L 265.5 170 Z " /><path fill="rgb(0,0,0)" stroke="rgb(0,0,0)" stroke-width="0.6" opacity="1" d="M 177.5 190 L 187 196.5 Q 190 201.5 189 210.5 Q 186.3 219.8 179.5 225 L 175.5 226 L 166 218.5 Q 163.1 213.9 164 205.5 L 171.5 193 L 177.5 190 Z M 180 198 L 176 204 L 182 206 Q 184 205 183 200 L 180 198 Z " /><path fill="rgb(0,0,0)" stroke="rgb(0,0,0)" stroke-width="0.6" opacity="1" d="M 261.5 201 Q 269.9 201.6 273 207.5 Q 276.7 211.8 275 221.5 Q 272.2 230.2 265.5 235 L 256.5 235 L 250 228.5 L 249 215.5 L 257.5 203 L 261.5 201 Z M 265 209 Q 262 210 263 216 L 266 217 L 269 212 L 265 209 Z " /><path fill="rgb(0,0,0)" stroke="rgb(0,0,0)" stroke-width="0.6" opacity="1" d="M 208.5 215 L 222.5 216 L 232 222.5 L 229.5 224 L 219.5 219 L 206.5 219 L 205 217.5 Q 204.2 214.9 207.5 216 L 208.5 215 Z " /><path fill="rgb(0,0,0)" stroke="rgb(0,0,0)" stroke-width="0.6" opacity="1" d="M 198.5 224 L 220.5 225 Q 233.4 227.6 240 236.5 L 240 243.5 L 234.5 251 L 223.5 258 Q 220.8 260.8 214.5 260 L 212 262.5 Q 209.9 275.1 217.5 278 Q 222.6 281.4 232.5 280 L 240 274.5 L 242.5 266 L 247 269.5 L 248 273.5 L 243 277.5 L 240.5 281 L 226 287.5 L 221.5 294 Q 216.2 299.7 203.5 298 L 192 290.5 L 185.5 279 Q 180 278.6 178 274.5 L 174 259.5 L 178.5 257 L 180 260.5 L 179 265.5 L 186.5 274 L 199.5 275 L 205 270.5 L 206 260.5 L 192 248.5 L 187 238.5 L 187 232.5 L 191.5 227 L 198.5 224 Z M 208 276 L 194 283 L 195 287 L 205 293 Q 215 295 220 290 L 222 286 L 214 282 L 211 278 L 208 276 Z " /><path fill="rgb(244,211,132)" stroke="rgb(244,211,132)" stroke-width="0.6" opacity="1" d="M 315.5 141 Q 322.7 140.3 325 144.5 Q 328.9 147.1 328 154.5 L 323.5 162 L 316.5 164 L 306 147.5 L 315.5 141 Z " /><path fill="rgb(244,211,132)" stroke="rgb(244,211,132)" stroke-width="0.6" opacity="1" d="M 414.5 320 L 416 321.5 L 416 335.5 L 419 350.5 L 423 358.5 L 424 382.5 L 423 395.5 L 421 401.5 Q 415.6 415.1 405.5 424 Q 396 432.5 379.5 434 L 379 431.5 L 384.5 417 Q 401.6 415.6 409 404.5 Q 419.9 392.9 419 369.5 L 415 344.5 L 413 341.5 L 413 321.5 L 414.5 320 Z " /><path fill="rgb(244,211,132)" stroke="rgb(244,211,132)" stroke-width="0.6" opacity="1" d="M 333.5 328 L 358 351.5 Q 368.6 363.9 374 381.5 L 377 395.5 L 377 414.5 Q 374.6 429.6 366.5 439 L 361.5 438 L 360 442.5 Q 363 445.5 362 452.5 L 356.5 460 L 335.5 469 Q 327.8 467.8 324.5 471 L 305.5 471 Q 300 469 302 459.5 L 308 450.5 L 304.5 449 L 297 455.5 L 295 466.5 L 294.5 469 Q 285.9 470.1 284 464.5 L 284 454.5 L 289 444.5 L 285.5 443 L 281 446.5 L 275.5 460 Q 271.6 456.4 273 447.5 L 274 443.5 L 282.5 434 L 288.5 431 L 301.5 429 L 308.5 431 L 310 427.5 L 307.5 425 L 299.5 424 L 297 421.5 L 292 407.5 L 292 397.5 L 298 380.5 L 308.5 369 L 320.5 363 L 334.5 363 L 336 361.5 L 334.5 359 Q 329.4 355.6 319.5 357 L 309.5 360 L 293 374.5 Q 283.5 385.5 286 408.5 L 287 416.5 L 290 423.5 L 278.5 429 L 277 425.5 L 281 407.5 L 281 372.5 L 278.5 371 L 275 382.5 L 275 399.5 L 273 403.5 L 273 414.5 L 270 422.5 L 267 447.5 L 264 457.5 L 255.5 467 L 243.5 472 L 235.5 472 Q 230.9 469.1 230 462.5 L 234 450.5 L 231.5 449 Q 223.1 453.1 223 465.5 L 224 471 Q 212.3 473.1 209 465.5 L 209 455.5 L 213 445.5 L 210.5 444 Q 200.9 448.9 201.5 464 Q 195.5 460 197 448.5 Q 198.7 437.2 206.5 432 L 216.5 428 L 220 424.5 L 222 401.5 L 224 394.5 L 224 375.5 L 226.5 373 Q 241.7 369.7 251.5 361 L 254.5 365 L 266.5 364 L 286.5 355 L 307 337.5 L 309 336 L 311.5 341 Q 325.7 337.7 333.5 328 Z " /><path fill="rgb(244,211,132)" stroke="rgb(244,211,132)" stroke-width="0.6" opacity="1" d="M 131.5 371 L 133 372.5 L 132 376.5 L 133 377.5 L 133 409 Q 130 410.3 131 406.5 L 126 394.5 L 126 382.5 L 131.5 371 Z " /><path fill="rgb(244,211,132)" stroke="rgb(244,211,132)" stroke-width="0.6" opacity="1" d="M 194.5 414 L 202 419.5 Q 202.8 422.1 199.5 421 L 194.5 414 Z " /><path fill="rgb(23,23,23)" stroke="rgb(23,23,23)" stroke-width="0.6" opacity="1" d="M 83.5 296 L 90.5 304 L 83.5 296 Z " /><path fill="rgb(23,23,23)" stroke="rgb(23,23,23)" stroke-width="0.6" opacity="1" d="M 335.5 317 L 328.5 325 L 335.5 317 Z " /><path fill="rgb(23,23,23)" stroke="rgb(23,23,23)" stroke-width="0.6" opacity="1" d="M 346.5 330 L 354.5 339 L 346.5 330 Z " /><path fill="rgb(23,23,23)" stroke="rgb(23,23,23)" stroke-width="0.6" opacity="1" d="M 270.5 464 L 276.5 471 L 270.5 464 Z " /><path fill="rgb(191,165,69)" stroke="rgb(191,165,69)" stroke-width="0.6" opacity="1" d="M 214.5 128 L 220.5 135 L 214.5 128 Z " /><path fill="rgb(191,165,69)" stroke="rgb(191,165,69)" stroke-width="0.6" opacity="1" d="M 155.5 134 L 150.5 140 L 155.5 134 Z " /><path fill="rgb(191,165,69)" stroke="rgb(191,165,69)" stroke-width="0.6" opacity="1" d="M 343.5 172 L 338.5 178 L 343.5 172 Z " /><path fill="rgb(191,165,69)" stroke="rgb(191,165,69)" stroke-width="0.6" opacity="1" d="M 77.5 218 L 72.5 224 L 77.5 218 Z " /><path fill="rgb(143,143,136)" stroke="rgb(143,143,136)" stroke-width="0.6" opacity="1" d="M 335.5 328 L 355.5 349 L 335.5 328 Z " /><path fill="rgb(143,143,136)" stroke="rgb(143,143,136)" stroke-width="0.6" opacity="1" d="M 304.5 339 L 299.5 345 L 304.5 339 Z " /><path fill="rgb(143,143,136)" stroke="rgb(143,143,136)" stroke-width="0.6" opacity="1" d="M 210.5 444 L 213 445.5 L 212.5 448 L 212 445 L 205.5 450 L 210.5 444 Z " /><path fill="rgb(143,143,136)" stroke="rgb(143,143,136)" stroke-width="0.6" opacity="1" d="M 231.5 449 L 226.5 455 L 231.5 449 Z " /><path fill="rgb(142,141,69)" stroke="rgb(142,141,69)" stroke-width="0.6" opacity="1" d="M 220.5 49 L 209.5 61 L 220.5 49 Z " /><path fill="rgb(142,141,69)" stroke="rgb(142,141,69)" stroke-width="0.6" opacity="1" d="M 347.5 91 L 358.5 103 L 347.5 91 Z " /><path fill="rgb(104,104,104)" stroke="rgb(104,104,104)" stroke-width="0.6" opacity="1" d="M 93.5 99 L 87.5 106 L 93.5 99 Z " /><path fill="rgb(205,192,129)" stroke="rgb(205,192,129)" stroke-width="0.6" opacity="1" d="M 306.5 370 L 301.5 376 L 306.5 370 Z " /><path fill="rgb(230,230,230)" stroke="rgb(230,230,230)" stroke-width="0.6" opacity="1" d="M 357.5 91 L 362.5 97 L 357.5 91 Z " /><path fill="rgb(230,230,230)" stroke="rgb(230,230,230)" stroke-width="0.6" opacity="1" d="M 82.5 296 L 89.5 304 L 82.5 296 Z " /><path fill="rgb(230,230,230)" stroke="rgb(230,230,230)" stroke-width="0.6" opacity="1" d="M 269.5 464 L 276.5 472 L 269.5 464 Z " /><path fill="rgb(189,189,189)" stroke="rgb(189,189,189)" stroke-width="0.6" opacity="1" d="M 348.5 331 L 353.5 337 L 348.5 331 Z " /></svg>