<svg width="627" height="627" preserveAspectRatio="xMidYMid meet" viewBox="0 0 512 512" version="1.1" xmlns="http://www.w3.org/2000/svg" ><path fill="rgb(255,255,255)" stroke="rgb(255,255,255)" stroke-width="0" opacity="1" d="M 0 0 L 512 0 L 512 512 L 0 512 L 0 0 Z M 227 29 L 226 30 L 214 30 L 203 32 L 189 39 L 179 53 L 176 68 L 177 97 L 179 105 L 183 112 Q 187 118 197 120 L 198 122 L 198 141 L 199 142 L 199 191 L 200 192 L 200 209 L 188 212 L 174 218 L 135 236 L 105 252 Q 97 257 95 267 L 95 292 L 98 299 L 104 304 L 101 320 L 99 342 L 98 343 L 95 376 L 92 393 L 92 401 L 91 402 L 91 410 L 90 411 L 90 419 L 89 420 L 89 429 L 88 430 L 90 440 Q 94 446 104 448 L 118 447 L 123 444 L 128 437 L 134 377 L 188 349 L 190 348 L 190 361 L 189 362 Q 188 372 191 378 L 197 383 L 207 386 L 218 385 L 224 382 Q 229 378 230 371 L 230 331 L 243 333 L 262 334 L 264 335 L 264 347 L 265 348 L 265 385 L 266 386 L 267 448 L 268 449 L 268 466 L 271 473 Q 275 478 283 480 L 296 480 L 306 475 L 310 467 L 308 407 L 365 365 L 369 400 L 372 407 L 379 412 L 386 414 L 398 413 L 404 410 Q 409 406 410 399 L 406 369 L 404 363 L 399 328 L 397 322 L 391 281 L 389 275 L 394 266 L 394 256 L 395 255 L 394 240 Q 393 233 388 231 L 395 140 L 405 137 Q 412 132 415 124 L 420 104 L 421 89 L 422 88 L 422 69 L 417 55 Q 412 47 403 44 L 377 38 L 353 36 L 352 35 L 343 35 L 342 34 L 332 34 L 331 33 L 288 31 L 287 30 L 227 29 Z " /><path fill="rgb(255,255,255)" stroke="rgb(255,255,255)" stroke-width="0" opacity="1" d="M 229.5 37 L 283.5 38 L 284.5 39 L 315.5 40 L 316.5 41 L 327.5 41 L 328.5 42 L 339.5 42 L 340.5 43 L 367.5 45 L 394.5 50 Q 403.4 52.1 409 57.5 Q 416.4 66.6 414 85.5 L 413 86.5 L 413 94.5 L 409 115.5 L 405 125.5 L 400.5 130 L 390.5 133 L 379.5 133 L 378.5 132 L 365.5 132 L 364.5 131 L 353.5 131 L 352.5 130 L 342.5 130 L 341.5 129 L 330.5 129 L 329.5 128 L 320.5 128 L 319.5 127 L 278.5 124 L 277.5 123 L 224.5 118 L 201.5 114 Q 193.3 112.2 189 106.5 L 185 95.5 L 184 68.5 L 187 54.5 L 195.5 44 L 200.5 41 L 208.5 39 L 228.5 38 L 229.5 37 Z " /><path fill="rgb(255,255,255)" stroke="rgb(255,255,255)" stroke-width="0" opacity="1" d="M 206 123 L 228 126 L 227 132.5 L 228 133.5 L 228 209 L 216.5 211 L 207 209 L 206 123 Z " /><path fill="rgb(255,255,255)" stroke="rgb(255,255,255)" stroke-width="0" opacity="1" d="M 235 127 L 258.5 129 L 259.5 130 L 267.5 130 L 268.5 131 L 277.5 131 L 278.5 132 L 289.5 132 L 290.5 133 L 319.5 135 L 320.5 136 L 352.5 138 L 356 139 L 354 182 L 341.5 180 L 307.5 177 L 306.5 176 L 298.5 176 L 297.5 175 L 287.5 175 L 276.5 173 L 266.5 173 L 265.5 172 L 235 170 L 235 127 Z " /><path fill="rgb(255,255,255)" stroke="rgb(255,255,255)" stroke-width="0" opacity="1" d="M 364.5 139 L 365.5 140 L 378.5 140 L 379.5 141 L 387 141 L 381 230 Q 376.1 232.9 366.5 232 L 359 228.5 L 360 194.5 L 361 193.5 L 362 162.5 L 363 161.5 L 363 148.5 L 364 147.5 L 364.5 139 Z " /><path fill="rgb(255,255,255)" stroke="rgb(255,255,255)" stroke-width="0" opacity="1" d="M 236.5 177 L 237.5 178 L 249.5 178 L 260.5 180 L 291.5 182 L 292.5 183 L 310.5 184 L 319.5 186 L 353 189 L 352 221 L 339.5 220 L 326.5 217 L 312.5 216 L 311.5 215 L 236 208 L 236 183.5 L 235 178.5 L 236.5 177 Z " /><path fill="rgb(255,255,255)" stroke="rgb(255,255,255)" stroke-width="0" opacity="1" d="M 202.5 215 L 208.5 217 L 220.5 218 L 230.5 215 L 235.5 215 L 236.5 216 L 268.5 218 L 269.5 219 L 278.5 219 L 279.5 220 L 288.5 220 L 297.5 222 L 321.5 224 L 328.5 226 L 346.5 228 L 352 230.5 L 354.5 235 L 365.5 239 L 376.5 239 L 383 237 L 383 238.5 L 364.5 257 Q 341.5 277.5 312.5 292 L 292.5 298 L 270.5 298 L 269.5 297 L 259.5 297 L 258.5 296 L 231.5 294 L 230.5 293 L 210.5 291 L 209.5 290 L 174.5 285 L 168.5 283 L 163.5 283 L 118.5 272 L 108.5 268 L 105 264.5 Q 104.3 258.8 108.5 258 Q 152.4 233.4 202.5 215 Z " /><path fill="rgb(255,255,255)" stroke="rgb(255,255,255)" stroke-width="0" opacity="1" d="M 386.5 243 L 387 263.5 L 385 267.5 L 369.5 283 Q 345.3 304.8 315.5 321 L 305.5 325 L 292.5 328 L 268.5 328 L 267.5 327 L 247.5 326 L 246.5 325 L 239.5 325 L 238.5 324 L 231.5 324 L 230.5 323 L 203.5 320 L 155.5 311 L 111.5 299 L 103 292.5 Q 100.3 284.2 102 271.5 L 104.5 273 L 112.5 277 L 129.5 282 L 174.5 292 L 179.5 292 L 204.5 297 L 210.5 297 L 211.5 298 L 217.5 298 L 224.5 300 L 231.5 300 L 232.5 301 L 260.5 303 L 261.5 304 L 273.5 304 L 274.5 305 L 289.5 305 L 310.5 300 L 333.5 288 Q 362.9 269.4 386 244.5 L 386.5 243 Z " /><path fill="rgb(255,255,255)" stroke="rgb(255,255,255)" stroke-width="0" opacity="1" d="M 382.5 280 L 384 283.5 L 390 324.5 L 393 335.5 L 393 341.5 L 401 384.5 L 402 400.5 L 399.5 404 Q 395.2 407.2 387.5 407 L 382.5 406 L 378 402.5 L 376 397.5 L 373 368.5 L 371 360.5 L 381 351.5 Q 383.6 348.6 383 342.5 L 377.5 334 L 368 332 L 367 329.5 L 363 297.5 L 382.5 280 Z " /><path fill="rgb(255,255,255)" stroke="rgb(255,255,255)" stroke-width="0" opacity="1" d="M 355.5 303 Q 358.5 302.5 357 309.5 L 358 310.5 L 358 317.5 L 359 318.5 L 361 335.5 L 313.5 370 L 306 374 L 304 333.5 Q 333.6 322.1 355.5 303 Z " /><path fill="rgb(255,255,255)" stroke="rgb(255,255,255)" stroke-width="0" opacity="1" d="M 110 306 L 133 313 L 131 339.5 L 130 340.5 L 130 350.5 L 129 351.5 L 129 360.5 L 128 361.5 L 128 370.5 L 127 371.5 L 125 398.5 L 124 399.5 L 124 408.5 L 123 409.5 L 123 418.5 L 122 419.5 L 122 427.5 L 120 436.5 L 117.5 439 L 110.5 441 L 105.5 441 Q 98.9 440.1 96 435.5 L 96 422.5 L 98 413.5 L 98 405.5 L 100 396.5 L 100 388.5 L 101 387.5 L 102 371.5 L 104 363.5 L 104 355.5 L 105 354.5 L 105 346.5 L 106 345.5 L 107 330.5 L 110 314.5 L 110 306 Z " /><path fill="rgb(255,255,255)" stroke="rgb(255,255,255)" stroke-width="0" opacity="1" d="M 140 315 L 182 323.5 L 137.5 347 L 137 344.5 L 138 343.5 L 140 315 Z " /><path fill="rgb(255,255,255)" stroke="rgb(255,255,255)" stroke-width="0" opacity="1" d="M 191.5 326 Q 199.2 325.2 203 327 Q 204.3 332.5 200.5 334 L 135.5 369 L 135 364.5 Q 137.8 362.8 136 356.5 L 138.5 354 L 191.5 326 Z " /><path fill="rgb(255,255,255)" stroke="rgb(255,255,255)" stroke-width="0" opacity="1" d="M 210 328 L 223 330 L 223 362.5 L 222 363.5 L 222 372.5 L 219.5 376 Q 215.2 379.2 207.5 379 L 200.5 377 L 197 373.5 L 197 344.5 L 199.5 342 L 207 338 L 210 332.5 L 210 328 Z " /><path fill="rgb(255,255,255)" stroke="rgb(255,255,255)" stroke-width="0" opacity="1" d="M 296.5 334 L 303 464.5 L 297.5 472 L 284.5 473 L 277 468.5 L 275 459.5 L 272 335 Q 276.5 337 285.5 336 L 296.5 334 Z " /><path fill="rgb(255,255,255)" stroke="rgb(255,255,255)" stroke-width="0" opacity="1" d="M 368.5 339 L 375 340 Q 376.6 342.1 376 347.5 L 307.5 398 L 307 385.5 L 306 384.5 L 368.5 339 Z " /><path fill="rgb(0,0,0)" stroke="rgb(0,0,0)" stroke-width="0" opacity="1" d="M 226.5 29 L 286.5 30 L 287.5 31 L 330.5 33 L 331.5 34 L 341.5 34 L 342.5 35 L 351.5 35 L 352.5 36 L 376.5 38 L 402.5 44 Q 411.5 47.5 417 54.5 L 422 68.5 L 422 87.5 L 421 88.5 L 420 103.5 L 415 123.5 Q 411.8 132.3 404.5 137 L 395 140 L 388 230.5 Q 392.6 233.4 394 239.5 L 395 254.5 L 394 255.5 L 394 265.5 L 389 274.5 L 391 280.5 L 397 321.5 L 399 327.5 L 404 362.5 L 406 368.5 L 410 398.5 Q 408.8 406.3 403.5 410 L 397.5 413 L 385.5 414 L 378.5 412 L 372 406.5 L 369 399.5 L 364.5 365 L 308 406.5 L 310 466.5 L 306 475 L 295.5 480 L 282.5 480 Q 274.9 478.1 271 472.5 L 268 465.5 L 268 448.5 L 267 447.5 L 266 385.5 L 265 384.5 L 265 347.5 L 264 346.5 L 264 335 L 261.5 334 L 242.5 333 L 230 331 L 230 370.5 Q 228.8 378.3 223.5 382 L 217.5 385 L 206.5 386 L 196.5 383 L 191 377.5 Q 187.8 371.8 189 361.5 L 190 360.5 L 190 347.5 L 187.5 349 L 134 377 L 128 436.5 L 122.5 444 L 117.5 447 L 103.5 448 Q 94.3 446.3 90 439.5 L 88 429.5 L 89 428.5 L 89 419.5 L 90 418.5 L 90 410.5 L 91 409.5 L 91 401.5 L 92 400.5 L 92 392.5 L 95 375.5 L 98 342.5 L 99 341.5 L 101 319.5 L 104 303.5 L 98 298.5 L 95 291.5 L 95 266.5 Q 97 256.5 104.5 252 L 134.5 236 L 173.5 218 L 187.5 212 L 200 209 L 200 191.5 L 199 190.5 L 199 141.5 L 198 140.5 L 198 121.5 L 196.5 120 Q 187.3 118.3 183 111.5 L 179 104.5 L 177 96.5 L 176 67.5 L 179 52.5 L 188.5 39 L 202.5 32 L 213.5 30 L 225.5 30 L 226.5 29 Z M 230 37 L 229 38 L 209 39 L 201 41 L 196 44 L 187 55 L 184 69 L 185 96 L 189 107 Q 193 112 202 114 L 225 118 L 278 123 L 279 124 L 320 127 L 321 128 L 330 128 L 331 129 L 342 129 L 343 130 L 353 130 L 354 131 L 365 131 L 366 132 L 379 132 L 380 133 L 391 133 L 401 130 L 405 126 L 409 116 L 413 95 L 413 87 L 414 86 Q 416 67 409 58 Q 403 52 395 50 L 368 45 L 341 43 L 340 42 L 329 42 L 328 41 L 317 41 L 316 40 L 285 39 L 284 38 L 230 37 Z M 206 123 L 207 209 L 217 211 L 228 209 L 228 134 L 227 133 L 228 126 L 206 123 Z M 235 127 L 235 170 L 266 172 L 267 173 L 277 173 L 288 175 L 298 175 L 299 176 L 307 176 L 308 177 L 342 180 L 354 182 L 356 139 L 353 138 L 321 136 L 320 135 L 291 133 L 290 132 L 279 132 L 278 131 L 269 131 L 268 130 L 260 130 L 259 129 L 235 127 Z M 365 139 L 364 148 L 363 149 L 363 162 L 362 163 L 361 194 L 360 195 L 359 229 L 367 232 Q 376 233 381 230 L 387 141 L 380 141 L 379 140 L 366 140 L 365 139 Z M 237 177 L 235 179 L 236 184 L 236 208 L 312 215 L 313 216 L 327 217 L 340 220 L 352 221 L 353 189 L 320 186 L 311 184 L 293 183 L 292 182 L 261 180 L 250 178 L 238 178 L 237 177 Z M 203 215 Q 152 233 109 258 Q 104 259 105 265 L 109 268 L 119 272 L 164 283 L 169 283 L 175 285 L 210 290 L 211 291 L 231 293 L 232 294 L 259 296 L 260 297 L 270 297 L 271 298 L 293 298 L 313 292 Q 342 278 365 257 L 383 239 L 383 237 L 377 239 L 366 239 L 355 235 L 352 231 L 347 228 L 329 226 L 322 224 L 298 222 L 289 220 L 280 220 L 279 219 L 270 219 L 269 218 L 237 216 L 236 215 L 231 215 L 221 218 L 209 217 L 203 215 Z M 387 243 L 386 245 Q 363 269 334 288 L 311 300 L 290 305 L 275 305 L 274 304 L 262 304 L 261 303 L 233 301 L 232 300 L 225 300 L 218 298 L 212 298 L 211 297 L 205 297 L 180 292 L 175 292 L 130 282 L 113 277 L 105 273 L 102 272 Q 100 284 103 293 L 112 299 L 156 311 L 204 320 L 231 323 L 232 324 L 239 324 L 240 325 L 247 325 L 248 326 L 268 327 L 269 328 L 293 328 L 306 325 L 316 321 Q 345 305 370 283 L 385 268 L 387 264 L 387 243 Z M 383 280 L 363 298 L 367 330 L 368 332 L 378 334 L 383 343 Q 384 349 381 352 L 371 361 L 373 369 L 376 398 L 378 403 L 383 406 L 388 407 Q 395 407 400 404 L 402 401 L 401 385 L 393 342 L 393 336 L 390 325 L 384 284 L 383 280 Z M 356 303 Q 334 322 304 334 L 306 374 L 314 370 L 361 336 L 359 319 L 358 318 L 358 311 L 357 310 Q 358 302 356 303 Z M 110 306 L 110 315 L 107 331 L 106 346 L 105 347 L 105 355 L 104 356 L 104 364 L 102 372 L 101 388 L 100 389 L 100 397 L 98 406 L 98 414 L 96 423 L 96 436 Q 99 440 106 441 L 111 441 L 118 439 L 120 437 L 122 428 L 122 420 L 123 419 L 123 410 L 124 409 L 124 400 L 125 399 L 127 372 L 128 371 L 128 362 L 129 361 L 129 352 L 130 351 L 130 341 L 131 340 L 133 313 L 110 306 Z M 140 315 L 138 344 L 137 345 L 138 347 L 182 324 L 140 315 Z M 192 326 L 139 354 L 136 357 Q 138 363 135 365 L 136 369 L 201 334 Q 204 333 203 327 Q 199 325 192 326 Z M 210 328 L 210 333 L 207 338 L 200 342 L 197 345 L 197 374 L 201 377 L 208 379 Q 215 379 220 376 L 222 373 L 222 364 L 223 363 L 223 330 L 210 328 Z M 297 334 L 286 336 Q 276 337 272 335 L 275 460 L 277 469 L 285 473 L 298 472 L 303 465 L 297 334 Z M 369 339 L 306 385 L 307 386 L 308 398 L 376 348 Q 377 342 375 340 L 369 339 Z " /></svg>