<svg width="627" height="627" preserveAspectRatio="xMidYMid meet" viewBox="0 0 512 512" version="1.1" xmlns="http://www.w3.org/2000/svg" ><path fill="rgb(255,255,255)" stroke="rgb(255,255,255)" stroke-width="0.6" opacity="1" d="M 0 0 L 512 0 L 512 512 L 0 512 L 0 0 Z M 250 3 Q 242 5 238 10 L 227 6 Q 213 5 207 11 L 203 17 L 201 19 Q 188 18 183 24 Q 177 27 177 37 L 168 40 L 160 49 L 158 62 L 155 63 Q 147 68 145 78 Q 144 87 148 91 L 148 94 L 143 101 Q 141 117 150 122 L 148 126 Q 147 136 152 141 L 159 145 L 160 147 L 161 156 L 164 161 L 173 166 L 177 166 L 185 177 L 185 182 L 194 188 Q 201 189 204 185 L 218 198 L 228 203 L 229 206 L 215 211 L 205 217 Q 180 241 170 279 Q 169 292 174 299 Q 180 306 189 309 L 190 319 L 201 326 L 192 365 L 191 383 Q 196 390 208 391 L 209 393 L 209 410 L 210 411 L 210 432 L 193 451 L 188 462 L 190 471 L 199 476 L 220 475 L 240 463 Q 247 459 248 450 Q 249 442 246 439 L 247 417 Q 251 410 250 399 L 252 397 L 263 397 L 265 401 L 266 430 L 267 431 L 264 442 L 265 455 Q 277 468 300 472 Q 313 474 321 470 L 327 462 L 325 452 L 301 432 L 304 394 L 322 385 L 325 382 L 324 366 L 320 354 Q 321 341 317 334 Q 316 330 319 331 L 321 336 L 322 346 L 330 348 L 331 354 Q 333 357 340 355 Q 348 350 350 340 Q 352 323 346 316 L 347 313 L 346 301 L 332 255 Q 327 237 318 223 L 308 213 L 295 207 Q 291 208 292 206 L 310 194 L 325 174 L 327 175 L 335 174 Q 341 170 339 159 L 347 156 Q 355 152 354 139 L 357 137 Q 363 133 365 126 L 364 119 L 364 114 L 370 102 Q 370 90 364 86 L 366 80 Q 367 69 363 64 L 356 59 L 354 58 L 353 48 L 349 41 L 341 35 L 336 35 L 332 27 Q 326 16 309 17 L 307 15 Q 303 7 294 5 Q 279 3 274 9 L 270 9 L 263 4 L 250 3 Z M 235 491 L 227 496 L 219 493 Q 206 492 200 498 L 194 507 L 200 508 L 201 506 L 211 499 L 219 499 L 228 504 L 229 502 L 235 497 L 246 497 L 253 504 L 260 501 L 269 502 L 275 509 L 279 508 L 278 504 L 267 495 Q 258 493 256 497 L 246 491 L 235 491 Z " /><path fill="rgb(1,1,1)" stroke="rgb(1,1,1)" stroke-width="0.6" opacity="1" d="M 249.5 4 L 262.5 5 L 269.5 10 L 273.5 10 Q 278.7 3.2 293.5 6 L 305 13.5 L 308.5 18 Q 326.8 16.8 332 28.5 L 334.5 35 Q 346.1 35.4 350 43.5 Q 353.8 48.2 353 57.5 L 355.5 60 L 364 66.5 L 365 80.5 L 363 85.5 Q 370 90.5 369 103.5 L 363 113.5 L 363 117.5 L 364 125.5 Q 362.2 132.7 356.5 136 L 354 137.5 Q 354.5 148.5 348.5 153 L 338 158.5 Q 339.8 169.3 334.5 173 L 325.5 174 L 323.5 173 Q 317.4 186.4 306.5 195 L 296.5 202 L 290 204 Q 288.5 207.7 291.5 207 Q 308.7 211.8 318 224.5 L 327 241.5 L 347 310.5 L 345 315.5 L 349 323.5 L 350 336.5 Q 348 348.5 339.5 354 Q 332.5 355.5 331 351.5 L 330.5 346 L 325.5 347 L 322 343.5 L 322 335.5 L 316.5 323 L 315 328.5 L 320 347.5 L 320 356.5 L 323 364.5 L 324 381.5 L 303 393.5 L 300 432.5 L 323 450.5 Q 327.1 453.4 326 461.5 L 319.5 469 Q 312.3 473.3 298.5 471 Q 277.9 467.1 266 454.5 L 265 440.5 Q 268.3 436.8 267 428.5 L 266 427.5 L 265 398.5 L 263.5 397 L 251.5 397 L 250 398.5 L 246 417.5 L 245 437.5 Q 248.1 441.9 247 450.5 Q 246.1 457.1 241.5 460 L 220.5 474 Q 213.1 477.1 201.5 476 Q 193.4 474.6 190 468.5 L 189 460.5 L 195 449.5 L 210 433.5 L 210 408.5 L 209 407.5 L 209 391.5 L 207.5 390 Q 196.7 389.3 192 382.5 L 193 363.5 L 202 324.5 Q 194.2 322.3 190 316.5 L 191 310.5 L 176 299.5 Q 169 293 171 277.5 Q 181.7 239.2 207.5 216 L 213.5 212 L 227.5 208 L 231 205.5 L 229.5 203 Q 214.9 198.1 207 186.5 L 206 183 L 198.5 187 L 193.5 187 L 186 181.5 Q 187 175 183.5 173 L 180 170.5 L 176.5 165 Q 165.8 165.2 163 157.5 Q 159.7 153.8 161 145.5 L 159.5 144 L 153 140.5 Q 147.7 135.8 149 124.5 L 151 121.5 Q 143.3 116.7 143 104.5 L 149 93.5 L 149 89.5 Q 144.1 86.4 146 76.5 Q 148.1 68.2 154.5 64 L 159 61.5 Q 158 47 166.5 42 L 178 36.5 Q 177.8 25.8 185.5 23 L 191.5 20 L 201.5 20 L 203 18.5 L 203 16.5 L 209.5 10 Q 215.4 5.3 227.5 7 L 237.5 11 Q 241.6 5.6 249.5 4 Z M 251 8 Q 242 10 239 16 L 225 11 Q 215 11 211 15 Q 206 17 205 24 L 204 25 L 192 25 L 188 27 Q 179 31 181 42 L 173 43 L 163 56 L 164 65 L 158 67 L 150 79 Q 150 88 155 93 L 148 102 Q 147 115 155 120 L 153 129 L 155 137 Q 157 140 163 140 L 165 143 Q 163 153 168 158 L 175 161 L 176 160 L 177 149 L 183 142 Q 178 134 177 122 L 177 107 L 180 93 L 195 67 Q 205 54 221 47 L 233 42 L 255 38 L 270 39 L 284 42 L 305 53 L 323 75 L 330 92 L 332 102 L 331 126 L 336 127 L 342 138 L 341 151 L 344 152 L 350 143 L 350 134 L 354 134 L 360 126 Q 361 117 357 114 L 364 104 Q 365 91 358 87 L 361 79 L 360 69 L 348 61 L 349 56 L 348 49 L 340 40 L 332 40 L 329 38 Q 330 31 327 29 L 320 22 L 307 23 L 303 18 L 293 10 Q 278 8 273 16 L 260 8 L 251 8 Z M 253 43 L 241 44 L 228 48 L 204 63 Q 188 77 182 101 L 182 124 L 184 124 Q 185 98 198 84 Q 209 70 226 62 L 243 56 Q 253 58 258 54 L 267 54 L 270 56 Q 280 55 287 58 Q 301 63 312 73 Q 319 80 323 92 L 325 93 L 324 86 L 313 67 Q 304 56 291 49 L 270 43 L 253 43 Z M 250 59 L 231 64 L 208 79 Q 189 94 187 125 L 188 140 L 191 142 L 195 141 L 194 127 L 197 125 Q 202 121 200 110 L 206 108 Q 212 105 210 95 Q 211 91 218 93 L 225 85 L 230 86 L 235 85 L 242 77 L 251 78 L 256 72 L 265 75 L 269 74 L 272 71 L 277 76 L 287 75 L 288 78 L 295 82 L 302 82 L 304 89 Q 307 94 314 93 Q 313 100 316 104 L 319 105 L 321 108 L 323 125 Q 325 128 326 125 Q 327 98 316 85 Q 298 56 250 59 Z M 271 76 L 268 78 L 261 77 L 250 82 L 243 82 L 237 88 L 226 89 L 224 93 Q 221 97 214 98 Q 211 100 212 106 L 209 108 L 204 113 L 204 121 L 199 128 L 198 149 L 192 145 L 186 145 L 180 153 Q 178 164 183 169 L 187 171 L 190 168 L 198 166 L 196 161 Q 190 163 192 158 L 188 155 Q 185 154 188 152 L 194 153 L 199 159 Q 201 174 209 184 Q 225 204 259 207 Q 273 209 282 205 L 307 191 Q 318 181 322 165 L 321 126 Q 317 120 318 110 Q 311 106 310 97 L 306 94 L 303 91 L 299 86 L 292 85 L 287 80 L 277 80 L 271 76 Z M 331 129 L 325 133 L 328 139 L 331 137 L 332 139 L 328 142 L 329 146 L 327 148 L 327 154 Q 329 157 335 155 L 339 144 Q 339 136 335 132 L 331 129 Z M 328 157 L 324 169 Q 325 172 332 170 Q 336 169 335 162 Q 333 157 328 157 Z M 195 170 L 193 171 L 188 177 L 189 181 L 195 184 L 201 182 L 200 173 L 195 170 Z M 237 206 L 235 207 Q 227 212 227 225 L 236 232 L 230 241 L 235 244 L 247 247 L 250 246 L 242 224 L 240 208 L 237 206 Z M 284 208 L 282 210 L 284 221 L 283 224 L 283 255 L 281 268 L 281 276 L 283 276 L 297 244 Q 299 234 292 233 Q 291 226 296 226 L 296 222 L 289 211 Q 288 207 284 208 Z M 246 209 L 244 211 L 245 222 Q 250 227 260 228 Q 273 230 279 224 Q 281 213 277 209 L 271 211 Q 256 212 246 209 Z M 225 212 L 212 218 Q 186 239 176 275 L 177 295 Q 182 302 192 306 L 219 312 L 220 311 L 220 297 L 224 286 L 203 279 L 196 275 L 194 274 L 199 272 L 200 271 L 204 246 L 213 239 L 226 240 L 230 232 L 223 227 L 226 217 L 225 212 Z M 298 214 L 296 216 L 300 224 L 296 231 L 300 238 Q 301 246 298 251 L 286 276 L 281 279 L 281 302 Q 285 307 283 318 L 287 325 L 302 325 L 315 320 L 317 318 L 311 289 L 308 284 L 308 269 L 309 268 L 309 246 L 308 245 Q 306 239 310 240 L 313 250 L 313 273 L 312 274 L 312 284 L 320 314 L 323 318 L 336 316 L 343 311 L 325 248 L 314 226 Q 308 217 298 214 Z M 277 228 L 268 232 Q 257 233 252 229 L 249 231 L 253 247 Q 256 251 263 251 L 266 256 L 261 278 L 261 285 L 264 291 L 266 292 L 276 292 L 277 291 L 279 230 L 277 228 Z M 216 242 L 214 245 L 232 250 Q 235 249 234 252 L 209 246 L 206 253 L 203 274 L 227 283 L 231 283 L 244 276 L 251 276 L 253 274 L 255 261 L 252 258 L 250 255 L 259 256 L 257 260 L 253 283 L 257 284 L 262 258 L 255 251 L 216 242 Z M 248 278 L 230 287 L 224 296 L 223 308 Q 229 314 241 316 Q 249 317 253 314 L 251 311 L 256 307 L 252 304 L 260 300 L 259 297 Q 253 299 254 296 L 260 291 L 259 287 L 247 288 L 251 281 L 248 278 Z M 275 294 Q 273 298 265 296 L 261 303 L 261 307 L 257 311 L 257 314 L 253 317 L 251 319 L 250 329 L 248 331 Q 241 330 239 334 Q 220 332 208 325 L 206 327 L 196 370 L 196 381 Q 203 387 215 389 L 238 392 L 290 391 L 311 386 L 320 380 Q 318 350 311 326 L 298 329 L 286 328 L 280 321 Q 277 310 278 296 L 275 294 Z M 196 311 L 194 316 Q 212 327 239 330 L 240 329 L 241 321 L 228 314 L 225 315 L 211 315 L 196 311 Z M 341 316 L 335 320 L 325 321 L 323 323 L 324 341 L 329 344 L 333 330 Q 335 331 334 337 L 337 340 Q 338 346 335 349 L 339 351 L 343 347 L 346 337 Q 347 324 343 318 L 341 316 Z M 245 319 L 242 325 Q 240 330 246 328 Q 249 327 247 321 L 245 319 Z M 217 392 L 214 397 L 214 435 L 204 447 L 204 450 L 211 454 Q 226 455 233 448 L 241 438 L 244 406 L 246 398 L 242 395 Q 226 397 217 392 Z M 294 393 L 289 395 L 271 396 L 269 398 L 271 439 Q 279 448 295 451 Q 303 453 308 449 L 309 445 L 296 434 L 296 422 L 299 410 L 299 396 L 300 395 Q 299 392 294 393 Z M 271 441 L 268 446 L 269 453 Q 281 464 301 467 Q 316 470 322 463 Q 323 454 319 451 L 313 446 L 311 450 L 304 454 Q 280 454 271 441 Z M 241 444 Q 234 454 221 457 Q 204 460 201 450 L 194 460 L 194 468 L 201 472 Q 213 473 221 470 L 235 461 L 242 453 L 242 445 L 241 444 Z " /><path fill="rgb(1,1,1)" stroke="rgb(1,1,1)" stroke-width="0.6" opacity="1" d="M 289.5 103 L 296.5 103 L 306 109.5 L 307 112.5 L 304.5 114 Q 300.7 109.8 291.5 111 L 284.5 112 L 283 108.5 L 289.5 103 Z " /><path fill="rgb(1,1,1)" stroke="rgb(1,1,1)" stroke-width="0.6" opacity="1" d="M 225.5 110 Q 235 108 237 113.5 L 234.5 118 L 226.5 118 L 214.5 124 L 213 121.5 L 221.5 112 L 225.5 110 Z " /><path fill="rgb(1,1,1)" stroke="rgb(1,1,1)" stroke-width="0.6" opacity="1" d="M 295.5 123 Q 304 123 308 127.5 L 310.5 131 L 314 132.5 L 312 134.5 Q 314.3 142.8 310.5 145 L 310 138.5 L 302.5 128 L 294.5 127 L 287 131.5 L 286 135 Q 288.8 131 297.5 132 L 305 138.5 L 306 145.5 L 298.5 155 L 292.5 155 L 284 148.5 Q 281.1 144.9 282 137.5 L 287.5 127 L 295.5 123 Z " /><path fill="rgb(1,1,1)" stroke="rgb(1,1,1)" stroke-width="0.6" opacity="1" d="M 225.5 131 L 232.5 131 L 243 139.5 L 242.5 142 L 238.5 137 Q 234.8 133.7 226.5 135 L 217 142.5 L 216 150 L 214 148.5 L 212 144.5 Q 216.9 142.3 216 136 L 225.5 131 Z " /><path fill="rgb(1,1,1)" stroke="rgb(1,1,1)" stroke-width="0.6" opacity="1" d="M 227.5 139 Q 237.3 137.3 240 142.5 L 241 146 Q 247.4 143.7 245 151.5 L 241 154.5 L 239.5 160 Q 236.5 163 229.5 162 L 222 155.5 L 221 147.5 L 227.5 139 Z " /><path fill="rgb(1,1,1)" stroke="rgb(1,1,1)" stroke-width="0.6" opacity="1" d="M 277 157 L 280 158.5 Q 281.5 166.5 276.5 168 Q 273.3 171.8 265.5 171 L 259 166.5 L 260.5 166 Q 263.5 169 270.5 168 L 277 162.5 L 278 159.5 L 277 157 Z " /><path fill="rgb(1,1,1)" stroke="rgb(1,1,1)" stroke-width="0.6" opacity="1" d="M 286.5 172 L 290 174.5 L 278.5 190 L 270.5 194 L 262.5 194 Q 252.6 191.9 248 184.5 L 244.5 179 Q 241.2 180.1 242 177.5 L 246.5 173 L 248 174.5 L 250.5 178 Q 258 178 262 181.5 L 256.5 183 L 252 182 L 257.5 189 L 266.5 191 L 275.5 189 L 281 183.5 L 286.5 172 Z " /><path fill="rgb(1,1,1)" stroke="rgb(1,1,1)" stroke-width="0.6" opacity="1" d="M 235.5 491 L 243.5 491 L 255.5 498 Q 257.8 493.8 266.5 496 L 277 503.5 L 278 506.5 L 274.5 508 L 268.5 501 L 259.5 500 L 253.5 503 Q 250.1 493.4 234.5 496 L 226.5 503 Q 222.2 496.7 210.5 498 L 201 503.5 L 198.5 508 L 196 503.5 Q 201.5 492.5 219.5 494 L 226.5 497 L 235.5 491 Z " /><path fill="rgb(247,190,49)" stroke="rgb(247,190,49)" stroke-width="0.6" opacity="1" d="M 270.5 77 Q 274.6 81.9 285.5 80 L 291.5 86 L 298.5 87 L 302 90.5 L 305.5 95 L 310 97.5 Q 310.1 106.9 317 109.5 Q 316 119.5 320 124.5 Q 317.8 134.7 322 138.5 L 322 161.5 Q 316.9 181.9 302.5 193 L 278.5 205 L 258.5 206 Q 226.5 203.5 211 184.5 L 205 175.5 L 200 158.5 L 197.5 155 L 188.5 151 L 185 153.5 Q 183.7 158.1 189.5 156 L 191 160.5 L 190 162.5 Q 192.2 166.2 194.5 161 L 197 163.5 Q 198.3 167.7 193.5 166 L 185.5 169 Q 179.3 165.3 180 154.5 L 186.5 146 L 190.5 146 L 197.5 151 L 199 149.5 L 199 128.5 Q 205.7 125.2 204 113.5 L 208.5 109 L 212 106.5 L 214.5 98 Q 222.6 98.1 225 92.5 L 226.5 90 L 236.5 89 L 242.5 83 L 249.5 83 L 260.5 78 L 267.5 79 L 270.5 77 Z M 288 103 L 282 109 L 286 113 L 292 112 Q 301 111 306 115 L 308 114 L 307 110 L 299 103 L 288 103 Z M 227 109 L 221 112 L 212 122 L 215 125 L 226 119 L 235 119 L 238 116 L 237 112 Q 234 108 227 109 Z M 294 123 L 288 126 Q 282 130 281 140 L 283 149 L 293 156 L 300 155 Q 308 152 306 139 L 298 131 L 291 131 Q 293 126 302 128 L 309 139 L 308 148 L 309 150 L 312 146 L 312 136 L 314 134 Q 316 128 311 130 L 309 128 Q 305 121 294 123 Z M 225 131 L 217 136 L 211 144 L 215 155 L 220 159 L 217 153 L 218 143 L 229 135 L 237 137 L 238 139 L 235 138 Q 228 137 225 140 L 220 151 L 222 158 L 231 163 L 240 161 Q 243 160 242 156 L 246 153 L 244 140 L 235 131 L 225 131 Z M 274 153 L 272 155 L 275 156 Q 278 157 277 162 L 271 167 Q 262 168 259 164 L 257 167 L 263 171 Q 274 173 279 168 Q 282 166 281 159 L 274 153 Z M 286 171 L 281 183 Q 278 189 270 190 Q 262 191 258 188 L 255 183 L 258 184 Q 262 185 263 182 L 261 179 L 250 177 L 248 175 L 245 173 L 241 178 L 244 179 L 249 188 L 260 194 Q 274 196 280 190 L 291 175 L 286 171 Z " /><path fill="rgb(247,190,49)" stroke="rgb(247,190,49)" stroke-width="0.6" opacity="1" d="M 193.5 171 Q 199.3 170.3 200 174.5 Q 201.5 181.5 197.5 183 Q 191.7 183.8 190 180.5 L 189 175.5 L 193.5 171 Z " /><path fill="rgb(247,190,49)" stroke="rgb(247,190,49)" stroke-width="0.6" opacity="1" d="M 236.5 207 L 239 208.5 L 241 223.5 L 249 244.5 L 246.5 246 L 231 241 L 236 230.5 L 228 224.5 Q 228 213 234.5 208 L 236.5 207 Z " /><path fill="rgb(247,190,49)" stroke="rgb(247,190,49)" stroke-width="0.6" opacity="1" d="M 222.5 214 Q 226.3 212.8 225 216.5 L 222 227.5 L 229 232.5 L 224.5 239 L 212.5 238 L 203 244.5 L 199 271 L 192 273.5 L 202.5 280 L 223 286.5 L 219 297.5 L 219 309.5 L 217.5 311 L 191.5 305 Q 182.8 301.8 178 294.5 Q 173.8 289.2 176 277.5 Q 186 240.5 211.5 219 L 222.5 214 Z " /><path fill="rgb(247,190,49)" stroke="rgb(247,190,49)" stroke-width="0.6" opacity="1" d="M 292.5 394 Q 297.8 392.8 299 395.5 L 298 396.5 L 298 411.5 L 296 417.5 L 296 434.5 L 308 444.5 L 305.5 449 L 294.5 450 Q 280.1 447.4 272 438.5 L 269 398.5 L 270.5 397 L 287.5 396 L 292.5 394 Z " /><path fill="rgb(247,190,49)" stroke="rgb(247,190,49)" stroke-width="0.6" opacity="1" d="M 270.5 443 L 286.5 453 L 306.5 454 L 314.5 448 L 318 450.5 Q 321.8 453.7 321 461.5 Q 316.3 467.8 304.5 467 L 288.5 463 L 270 452.5 L 269 444.5 L 270.5 443 Z " /><path fill="rgb(231,82,71)" stroke="rgb(231,82,71)" stroke-width="0.6" opacity="1" d="M 252.5 8 L 260.5 9 L 272.5 17 Q 277.4 9.9 289.5 10 Q 297.8 11.7 302 17.5 L 306.5 24 L 319.5 23 L 326 28.5 Q 329.2 30.8 328 37.5 L 330.5 40 L 338.5 40 L 347 48.5 L 348 56.5 L 347 60.5 L 359 68.5 L 360 79.5 L 357 86.5 Q 363.8 90.7 364 101.5 L 357 111.5 L 357 115.5 Q 360 118.5 359 125.5 L 353.5 133 L 349 134.5 Q 350.6 147.1 343.5 151 L 342 149.5 L 342 134.5 L 335.5 126 L 331 124.5 L 332 96.5 L 324 74.5 L 304.5 52 Q 285.6 36.4 249.5 38 Q 211.6 43.1 193 67.5 L 179 92.5 Q 175 106.5 177 126.5 L 182 141.5 L 176 148.5 L 175 158.5 L 173.5 160 L 166 153.5 L 166 141.5 L 164.5 140 L 156 136.5 Q 153 133.5 154 126.5 L 156 118.5 L 151 114.5 Q 147.9 110.1 149 101.5 L 155 94.5 L 155 91.5 Q 150 87.5 151 77.5 L 157.5 68 L 165 64.5 L 164 54.5 L 172.5 44 L 181 41.5 Q 181.4 31.9 187.5 28 L 193.5 25 L 204.5 25 L 206 23.5 Q 206.5 18 210.5 16 Q 215.6 11.1 226.5 12 L 238.5 17 Q 242.9 9.9 252.5 8 Z " /><path fill="rgb(231,82,71)" stroke="rgb(231,82,71)" stroke-width="0.6" opacity="1" d="M 253.5 59 Q 297.8 58.2 315 84.5 Q 326.7 99.1 326 125 Q 322 126.4 324 119.5 Q 320.6 114.9 321 106.5 L 315 100.5 Q 316.5 93.5 312.5 92 Q 306.3 92.7 305 88.5 L 301.5 81 Q 292.1 82.4 289 77.5 L 287.5 74 L 278.5 76 L 274 72.5 L 272.5 70 Q 270.6 74.6 263.5 74 L 255.5 71 L 250.5 77 L 240.5 76 L 234.5 84 L 228.5 85 L 224.5 84 L 217.5 92 Q 211 91 209 94.5 Q 210.8 104.3 205.5 107 Q 200 106 199 109.5 L 200 118.5 L 197 124 L 193 125 Q 196.1 129.6 195 139.5 L 190.5 141 Q 186.8 134.8 188 123.5 Q 191.1 90.6 212.5 76 L 230.5 65 L 253.5 59 Z " /><path fill="rgb(231,82,71)" stroke="rgb(231,82,71)" stroke-width="0.6" opacity="1" d="M 217 243 L 257 253 Q 258.4 257 251.5 255 L 217 245 L 217 243 Z " /><path fill="rgb(231,82,71)" stroke="rgb(231,82,71)" stroke-width="0.6" opacity="1" d="M 209.5 247 L 221.5 251 L 227.5 251 L 247.5 256 L 254 260.5 Q 254.2 269.7 250.5 275 L 241.5 276 L 230.5 282 L 226.5 282 L 204 273.5 L 207 251.5 L 209.5 247 Z " /><path fill="rgb(231,82,71)" stroke="rgb(231,82,71)" stroke-width="0.6" opacity="1" d="M 340.5 317 Q 347.3 323.3 345 338.5 Q 343.8 346.3 338.5 350 L 336 348.5 L 338 339.5 L 334 335.5 Q 335.3 330.3 332.5 329 L 331 330.5 L 330 339.5 L 327.5 343 L 325 340.5 L 323 323.5 L 324.5 322 L 336.5 320 L 340.5 317 Z " /><path fill="rgb(231,82,71)" stroke="rgb(231,82,71)" stroke-width="0.6" opacity="1" d="M 240 445 Q 243.5 443.9 242 451.5 L 234.5 460 L 220.5 469 L 204.5 472 L 194 466.5 L 194 460.5 L 200.5 452 L 203 453.5 L 204.5 456 Q 210.3 459.3 220.5 458 Q 232.6 454.6 240 446.5 L 240 445 Z " /><path fill="rgb(54,126,190)" stroke="rgb(54,126,190)" stroke-width="0.6" opacity="1" d="M 327.5 158 L 334 160.5 L 335 165.5 L 332.5 169 L 326.5 170 L 325 166.5 L 327.5 158 Z " /><path fill="rgb(54,126,190)" stroke="rgb(54,126,190)" stroke-width="0.6" opacity="1" d="M 283.5 208 L 291 213.5 L 296 222.5 L 296 225.5 L 291 229.5 L 297 241.5 L 283 275 Q 279.5 276.1 281 268.5 L 284 239.5 L 284 217.5 L 282 209.5 L 283.5 208 Z " /><path fill="rgb(54,126,190)" stroke="rgb(54,126,190)" stroke-width="0.6" opacity="1" d="M 250.5 229 Q 257.4 233.6 270.5 232 L 279 229 Q 280.3 247.6 277 262.5 L 277 289.5 L 275.5 291 L 265.5 292 L 261 284.5 L 261 279.5 Q 265.9 269.4 266 254.5 L 263.5 251 Q 256.8 250.7 254 246.5 L 249 230.5 L 250.5 229 Z " /><path fill="rgb(54,126,190)" stroke="rgb(54,126,190)" stroke-width="0.6" opacity="1" d="M 274.5 295 L 277 296.5 L 279 318.5 L 285.5 328 L 295.5 330 L 311 327 Q 317.4 350.9 320 379.5 L 308.5 386 L 284.5 391 L 279.5 390 L 277.5 392 L 238.5 392 L 213.5 388 L 196 380.5 L 196 371.5 L 206 327.5 L 207.5 326 Q 220.9 332.6 238.5 335 L 241.5 332 Q 248.5 333.5 250 329.5 Q 249.8 321.3 253.5 317 L 257 314.5 L 264.5 296 L 274.5 295 Z " /><path fill="rgb(54,126,190)" stroke="rgb(54,126,190)" stroke-width="0.6" opacity="1" d="M 196.5 311 Q 207 316.5 223.5 316 L 226.5 314 L 241 320.5 L 239 329 Q 212.3 326.9 194 315.5 L 196.5 311 Z " /><path fill="rgb(54,126,190)" stroke="rgb(54,126,190)" stroke-width="0.6" opacity="1" d="M 216.5 392 L 224.5 395 L 242.5 396 L 246 398.5 L 243 409.5 L 240 439.5 L 231.5 448 L 219.5 454 L 211.5 454 L 204 449.5 L 204 446.5 L 214 435.5 L 215 393.5 L 216.5 392 Z " /><path fill="rgb(101,161,91)" stroke="rgb(101,161,91)" stroke-width="0.6" opacity="1" d="M 253.5 43 Q 296.5 43 314 68.5 L 324 86.5 L 325 92 Q 322 93.3 323 89.5 Q 318.3 77.3 308.5 70 Q 297.5 60.5 281.5 56 L 256.5 54 Q 218.7 57.7 200 80.5 Q 187.6 93.5 184 114 L 182 113.5 L 182 102.5 Q 187.9 75.4 206.5 61 L 226.5 49 L 238.5 45 L 253.5 43 Z " /><path fill="rgb(101,161,91)" stroke="rgb(101,161,91)" stroke-width="0.6" opacity="1" d="M 328.5 130 Q 334 129 335 132.5 Q 339.3 136.7 338 146.5 L 333.5 155 L 327 152.5 L 329.5 148 L 331 146.5 L 328 142.5 L 334 138.5 L 330.5 136 L 327.5 138 L 326 132.5 L 328.5 130 Z " /><path fill="rgb(101,161,91)" stroke="rgb(101,161,91)" stroke-width="0.6" opacity="1" d="M 246.5 209 Q 256.4 213.1 272.5 211 L 276.5 210 Q 280.4 213.6 279 222.5 Q 273.3 228.8 260.5 228 L 250.5 225 L 246 221.5 L 244 212.5 L 246.5 209 Z " /><path fill="rgb(101,161,91)" stroke="rgb(101,161,91)" stroke-width="0.6" opacity="1" d="M 297 215 Q 306.5 216.8 312 223.5 Q 320 233 324 246.5 L 343 309.5 L 336.5 315 L 322.5 318 L 313 286.5 L 312 274.5 L 314 257.5 L 313 247.5 L 309.5 240 L 308 240.5 L 308 255.5 L 309 266.5 L 308 267.5 L 308 284.5 L 311 290.5 L 317 317.5 L 303.5 324 L 288.5 325 L 285 322.5 L 282 304.5 L 281 279.5 L 286 276.5 L 297 254.5 L 301 237.5 L 296 230.5 L 301 224.5 L 297 215 Z " /><path fill="rgb(101,161,91)" stroke="rgb(101,161,91)" stroke-width="0.6" opacity="1" d="M 260.5 257 Q 263.5 256.1 262 260.5 L 255.5 284 Q 252.8 282.8 254 277.5 L 257 262.5 L 260.5 257 Z " /><path fill="rgb(101,161,91)" stroke="rgb(101,161,91)" stroke-width="0.6" opacity="1" d="M 245.5 279 L 251 280.5 L 246 288 L 258.5 288 L 260 289.5 L 257.5 293 L 253 295.5 Q 252.1 298.9 257.5 297 L 259 300.5 L 251 303.5 L 255 306 L 253.5 308 L 250 310.5 L 252 313.5 L 250.5 315 L 242.5 316 Q 230.3 314.3 223 307.5 L 225 293.5 L 230.5 287 L 245.5 279 Z " /><path fill="rgb(37,37,36)" stroke="rgb(37,37,36)" stroke-width="0.6" opacity="1" d="M 324.5 20 L 331.5 28 L 324.5 20 Z " /><path fill="rgb(37,37,36)" stroke="rgb(37,37,36)" stroke-width="0.6" opacity="1" d="M 247.5 497 L 252.5 503 L 247.5 497 Z " /><path fill="rgb(120,93,60)" stroke="rgb(120,93,60)" stroke-width="0.6" opacity="1" d="M 243.5 11 L 238.5 17 L 237 16.5 L 243.5 11 Z " /><path fill="rgb(120,93,60)" stroke="rgb(120,93,60)" stroke-width="0.6" opacity="1" d="M 339.5 40 L 346.5 48 L 339.5 40 Z " /><path fill="rgb(91,112,104)" stroke="rgb(91,112,104)" stroke-width="0.6" opacity="1" d="M 205.5 75 L 200.5 81 L 205.5 75 Z " /><path fill="rgb(189,81,70)" stroke="rgb(189,81,70)" stroke-width="0.6" opacity="1" d="M 271.5 70 L 274 71.5 L 275 73.5 L 271.5 71 L 269 72.5 L 271.5 70 Z " /><path fill="rgb(189,81,70)" stroke="rgb(189,81,70)" stroke-width="0.6" opacity="1" d="M 210.5 77 L 203.5 85 L 210.5 77 Z " /><path fill="rgb(226,226,226)" stroke="rgb(226,226,226)" stroke-width="0.6" opacity="1" d="M 325.5 20 L 331.5 27 L 325.5 20 Z " /><path fill="rgb(226,226,226)" stroke="rgb(226,226,226)" stroke-width="0.6" opacity="1" d="M 246.5 497 L 252.5 504 L 246.5 497 Z " /><path fill="rgb(189,189,189)" stroke="rgb(189,189,189)" stroke-width="0.6" opacity="1" d="M 316.5 443 L 322.5 450 L 316.5 443 Z " /></svg>