<svg width="627" height="627" preserveAspectRatio="xMidYMid meet" viewBox="0 0 512 512" version="1.1" xmlns="http://www.w3.org/2000/svg" ><path fill="rgb(255,255,255)" stroke="rgb(255,255,255)" stroke-width="0.6" opacity="1" d="M 0 0 L 512 0 L 512 512 L 0 512 L 0 0 Z M 223 3 L 210 9 L 202 7 Q 188 6 182 11 L 180 14 L 175 19 L 167 19 L 159 23 Q 153 26 152 35 L 147 37 L 138 46 L 137 58 Q 131 61 130 69 Q 129 79 134 84 L 134 97 L 139 103 L 141 115 L 145 119 L 144 120 Q 138 123 137 131 Q 136 144 141 151 Q 146 159 158 161 L 166 160 L 171 169 L 181 178 L 195 185 L 198 189 L 178 196 L 165 205 L 139 233 L 130 252 L 131 267 L 142 287 L 146 289 L 158 302 L 160 307 L 166 312 Q 174 314 178 320 L 178 340 L 176 346 L 174 377 L 172 380 L 171 402 L 169 405 L 169 420 L 167 423 L 168 434 L 158 441 Q 146 447 149 467 Q 154 474 165 476 L 185 476 L 212 465 L 216 460 L 216 437 L 218 434 L 218 426 L 221 419 L 223 397 L 232 358 Q 230 352 234 353 Q 238 361 236 376 L 238 379 L 239 403 L 241 406 L 242 432 L 244 435 L 244 459 L 253 465 L 264 466 Q 270 471 281 472 Q 298 474 309 469 L 316 460 Q 317 452 314 449 L 324 452 Q 336 454 343 450 L 348 444 Q 347 437 350 435 L 351 407 L 353 401 L 353 390 L 355 380 L 356 359 L 358 353 L 360 322 L 362 319 L 366 267 L 373 263 L 376 260 L 380 249 L 380 231 L 381 230 L 380 221 L 372 214 L 372 204 L 374 201 L 375 174 L 377 163 L 367 123 L 363 113 L 360 114 L 356 118 L 336 160 L 332 217 L 327 220 Q 321 223 322 233 L 312 237 L 292 208 L 280 196 L 262 188 L 260 187 L 280 175 Q 293 164 296 144 L 308 139 Q 316 134 317 122 Q 318 111 314 106 L 309 100 L 302 98 Q 301 91 305 90 L 305 74 L 306 73 L 306 62 L 303 57 Q 304 46 301 41 L 294 35 L 290 27 L 284 20 L 272 18 Q 267 9 256 7 Q 247 6 243 10 Q 236 3 223 3 Z M 230 501 L 223 505 L 215 503 L 204 504 L 201 508 L 229 508 L 232 506 Q 238 505 241 508 L 268 508 L 268 507 L 263 503 Q 253 501 250 505 L 240 501 L 230 501 Z " /><path fill="rgb(247,190,49)" stroke="rgb(247,190,49)" stroke-width="0.6" opacity="1" d="M 231.5 49 L 242.5 51 L 250.5 49 Q 253.2 51.8 259.5 51 L 264.5 50 L 273 54.5 Q 273.1 65.9 281 69.5 L 281 78.5 L 287 87.5 L 290 102.5 L 290 113.5 L 292 115.5 L 292 140.5 Q 287.7 160.7 274.5 172 L 253.5 184 L 241.5 187 L 216.5 187 L 199.5 182 L 187.5 176 L 174 163.5 L 164 141.5 L 162 121.5 L 162 104.5 Q 166 101 164 91.5 L 163 85.5 Q 167 81.5 167 73.5 L 166 67.5 L 172 62.5 L 173.5 60 Q 182.3 61.3 184.5 56 L 194.5 56 L 201.5 52 L 209.5 54 L 218.5 50 Q 221.2 52.8 227.5 52 L 231.5 49 Z M 253 75 L 247 81 L 247 85 L 251 87 L 257 85 L 262 85 L 271 89 L 275 87 L 273 81 Q 268 73 253 75 Z M 190 83 L 184 86 L 175 97 L 177 102 L 189 95 L 199 94 L 202 92 L 201 86 Q 198 81 190 83 Z M 261 97 L 254 100 Q 247 103 246 112 L 247 124 L 260 133 L 265 132 L 272 123 L 271 114 Q 267 106 256 106 L 261 102 Q 268 101 271 105 L 276 115 Q 277 121 274 124 L 276 125 L 279 121 Q 281 108 275 103 Q 270 97 261 97 Z M 192 106 L 186 109 L 177 123 L 179 133 L 185 137 L 181 128 L 183 119 L 193 111 Q 201 110 204 114 L 205 117 L 198 114 L 190 117 L 185 126 L 187 135 L 194 140 L 202 140 L 209 134 L 212 130 Q 213 119 209 114 Q 205 105 192 106 Z M 237 128 L 235 131 Q 236 134 241 133 Q 244 134 243 140 L 236 145 L 229 145 L 225 143 L 223 147 L 231 150 L 242 148 L 247 142 L 246 133 Q 244 128 237 128 Z M 254 147 L 252 153 L 246 159 L 234 163 L 218 160 L 212 155 L 212 151 L 207 152 L 205 157 Q 213 165 227 168 Q 242 169 251 162 L 256 155 L 260 152 L 254 147 Z " /><path fill="rgb(247,190,49)" stroke="rgb(247,190,49)" stroke-width="0.6" opacity="1" d="M 203.5 190 L 207.5 190 L 219.5 200 L 226 201 L 226 203.5 L 216.5 216 L 210 212 L 202 196.5 L 202 191.5 L 203.5 190 Z " /><path fill="rgb(247,190,49)" stroke="rgb(247,190,49)" stroke-width="0.6" opacity="1" d="M 362.5 218 Q 372.6 216.4 375 222.5 L 376 239.5 Q 372 241.5 374 249.5 L 368.5 259 Q 357.8 260.8 354 255.5 L 355.5 252 L 365.5 253 L 367 250.5 L 364.5 248 L 354 247 L 353 244.5 L 357.5 241 L 367.5 241 L 369 239.5 L 366.5 237 L 355.5 237 L 354 235.5 L 358.5 230 L 368.5 230 L 370 228.5 L 367.5 225 L 357.5 225 L 357 221.5 L 362.5 218 Z " /><path fill="rgb(247,190,49)" stroke="rgb(247,190,49)" stroke-width="0.6" opacity="1" d="M 356.5 264 L 361 265.5 Q 361.7 285.2 357 299.5 L 358 305.5 L 355 334.5 L 353 340.5 L 351 372.5 L 349 375.5 L 347 407.5 L 345.5 409 L 341 407.5 Q 340.7 379.2 346 356.5 L 346 342.5 L 348 336.5 L 349 318.5 L 351 311.5 L 351 293.5 Q 355.8 283.8 354 267.5 L 356.5 264 Z " /><path fill="rgb(247,190,49)" stroke="rgb(247,190,49)" stroke-width="0.6" opacity="1" d="M 287 273 L 299.5 281 L 312.5 282 L 323.5 278 L 324 280.5 L 324 297.5 L 321 308.5 L 321 320.5 L 319 327.5 L 316 372.5 L 314 375.5 L 313 400.5 L 310 412.5 L 309 440 L 293 430.5 L 292 412.5 L 293 410.5 L 292 409.5 L 292 386.5 L 290 383.5 L 288 326.5 L 286 323.5 L 285 285.5 Q 289 281.9 287 273 Z " /><path fill="rgb(247,190,49)" stroke="rgb(247,190,49)" stroke-width="0.6" opacity="1" d="M 261.5 293 L 265 294.5 Q 266.3 299.8 263.5 301 Q 255.3 303.3 253 299.5 L 254.5 294 L 261.5 293 Z " /><path fill="rgb(247,190,49)" stroke="rgb(247,190,49)" stroke-width="0.6" opacity="1" d="M 246.5 294 L 249 295.5 Q 250.8 302.3 247.5 304 L 232.5 304 L 231 302.5 Q 229.5 296.5 232.5 295 L 245.5 295 L 246.5 294 Z " /><path fill="rgb(247,190,49)" stroke="rgb(247,190,49)" stroke-width="0.6" opacity="1" d="M 317.5 411 L 326.5 414 L 344.5 414 L 346 415.5 L 343.5 418 L 326.5 418 L 316 413.5 L 317.5 411 Z " /><path fill="rgb(247,190,49)" stroke="rgb(247,190,49)" stroke-width="0.6" opacity="1" d="M 251.5 454 Q 264.5 456 273.5 462 L 301.5 463 L 308.5 460 Q 312 462 307.5 464 Q 300.3 468.8 286.5 467 L 275.5 466 L 266.5 461 L 257.5 461 L 250 456.5 L 251.5 454 Z " /><path fill="rgb(1,1,1)" stroke="rgb(1,1,1)" stroke-width="0.6" opacity="1" d="M 220.5 4 L 232.5 5 L 242.5 11 Q 246.7 6.7 256.5 8 Q 265.9 10.6 270.5 18 L 275.5 18 L 282.5 21 L 290 28.5 L 292.5 36 Q 299.3 35.3 300 40.5 Q 303.6 45.9 302 56.5 Q 307.1 59.9 306 69.5 L 304 77.5 L 305 87.5 Q 301 90.5 301 97.5 Q 302.9 101.1 308.5 101 L 313 105.5 Q 317.2 111.3 316 122.5 Q 314.3 133.8 306.5 139 Q 298.2 138.7 295 143.5 Q 291.7 166.7 275.5 177 L 259 185 L 260.5 189 L 277.5 196 L 293 210.5 L 311.5 238 L 322 233.5 Q 321.5 223.5 327.5 220 L 332 218.5 L 337 158.5 L 356 119.5 L 361.5 114 L 365 118.5 L 374 150.5 Q 377.2 158.3 376 170.5 L 374 174.5 L 374 188.5 L 373 200.5 L 371 204.5 L 371 213.5 L 380 221.5 L 381 227.5 Q 376.6 235.1 379 249.5 Q 376.9 258.4 370.5 263 L 365 266.5 L 362 309.5 L 360 319.5 L 358 348.5 L 356 354.5 L 353 396.5 L 350 408.5 L 349 434.5 Q 345.8 436.8 347 443.5 L 342.5 449 Q 337.1 453.1 326.5 452 L 318.5 450 L 314.5 447 L 313 450.5 Q 316.4 453.1 315 460.5 L 308.5 468 L 297.5 472 L 282.5 472 L 279.5 470 L 270.5 469 L 265.5 466 Q 256.5 467 251.5 464 L 244 457.5 L 245 433.5 L 243 431.5 L 239 379.5 L 237 375.5 L 236 355.5 L 233.5 349 Q 230.1 348.1 232 353.5 L 222 397.5 L 220 419.5 L 218 423.5 L 218 432.5 L 215 438.5 L 216 439.5 L 216 458.5 L 210.5 464 Q 207.7 467.7 200.5 467 L 185.5 475 L 168.5 476 L 159.5 474 L 150 466.5 L 149 457.5 Q 150.8 447.3 157.5 442 L 169 434.5 L 168 422.5 L 170 418.5 L 170 404.5 L 172 400.5 L 176 349.5 L 179 336.5 L 179 319.5 Q 175.1 313.8 167.5 312 L 160 304.5 L 159 301.5 L 142 284.5 L 132 267.5 L 131 250.5 L 141 231.5 L 169.5 202 L 179.5 196 L 199 189.5 L 197.5 186 Q 180.8 179.8 171 166.5 L 167 159 L 156.5 160 Q 147.4 158.1 143 151.5 Q 136 145 138 129.5 L 143.5 121 Q 147.7 122.3 146 117.5 L 141 112.5 L 140 102.5 L 135 97.5 L 134 85.5 L 135 83.5 Q 129.4 79.1 131 67.5 L 138 56.5 L 139 45.5 L 146.5 38 L 153 34.5 Q 153.8 26.3 159.5 23 L 167.5 19 L 175.5 19 L 184.5 10 Q 191 6.5 202.5 8 L 209.5 10 L 220.5 4 Z M 220 9 L 210 16 L 201 12 Q 191 11 187 14 L 180 23 Q 168 21 163 26 Q 157 29 157 38 Q 155 41 150 41 L 142 51 L 142 60 Q 136 63 135 72 Q 135 79 139 83 L 139 96 L 145 103 L 144 105 L 146 114 Q 148 119 156 119 L 157 118 L 157 105 L 159 101 L 157 89 Q 156 81 161 80 L 161 65 L 166 63 L 168 58 Q 170 53 180 55 L 185 50 L 188 51 Q 197 52 200 47 L 207 49 Q 213 49 216 45 L 223 47 Q 231 48 233 43 L 239 46 Q 246 47 248 43 L 255 46 L 263 44 L 270 48 L 275 48 Q 279 52 279 61 L 285 67 L 285 75 Q 293 83 293 100 L 296 101 Q 299 99 297 93 L 301 87 Q 302 79 299 77 L 301 72 Q 303 60 297 57 L 298 54 Q 299 46 296 43 Q 295 38 290 39 L 287 37 L 286 30 Q 282 21 268 23 L 266 19 L 254 12 Q 246 12 243 16 L 232 9 L 220 9 Z M 232 48 L 228 51 Q 221 52 219 49 L 210 53 Q 204 54 202 51 L 196 55 L 185 55 Q 182 60 174 59 L 172 62 L 165 67 L 166 72 Q 167 82 162 86 L 163 91 Q 165 101 161 106 L 163 141 Q 166 154 173 164 Q 189 186 225 188 Q 242 189 254 185 L 275 173 Q 287 163 292 145 Q 294 113 288 89 L 282 79 L 282 70 L 274 60 L 274 55 L 265 49 L 260 50 Q 253 51 251 48 L 244 50 L 232 48 Z M 301 103 L 295 108 L 296 114 L 301 111 L 305 113 L 299 118 L 302 123 L 301 124 Q 299 120 297 124 L 297 136 L 299 137 L 304 136 Q 311 132 312 122 L 311 112 L 309 108 Q 307 103 301 103 Z M 361 122 L 355 132 L 357 134 Q 362 135 364 133 L 362 126 Q 363 121 361 122 Z M 149 123 L 142 132 Q 141 141 144 147 Q 149 154 159 156 Q 163 157 164 154 L 162 145 L 159 140 L 157 141 L 156 139 L 154 134 L 150 135 L 147 134 L 151 131 Q 157 130 159 133 L 158 126 Q 156 121 149 123 Z M 353 137 L 342 158 L 350 163 L 355 160 Q 362 159 364 164 L 372 160 L 367 140 L 366 138 L 353 137 Z M 344 162 L 341 165 Q 343 173 339 177 L 336 219 L 340 221 L 342 220 Q 341 215 344 216 Q 346 228 342 235 L 337 234 L 334 237 Q 335 245 332 249 L 332 266 L 329 278 L 328 304 L 325 316 L 324 340 L 322 343 L 320 377 L 318 381 L 317 406 L 322 408 L 323 407 L 324 395 Q 323 391 326 392 L 325 409 Q 328 412 336 411 L 338 409 L 340 372 L 342 366 Q 340 359 344 360 L 343 379 L 341 383 L 340 409 L 346 410 L 348 408 L 349 385 L 353 345 L 355 339 L 355 328 L 362 265 L 357 262 L 353 269 Q 355 282 351 290 Q 353 296 349 295 L 351 269 L 353 265 Q 353 259 350 257 L 351 253 L 349 248 L 350 243 L 349 237 Q 348 229 353 228 L 352 226 L 352 221 L 358 213 L 358 196 L 360 190 L 361 168 L 356 163 L 351 164 L 349 166 L 348 179 Q 350 184 346 183 L 347 176 Q 350 165 344 162 Z M 370 164 L 367 165 L 364 168 Q 365 175 362 178 L 360 213 L 366 214 L 368 211 L 369 189 L 371 185 L 371 168 L 373 166 Q 374 162 370 164 Z M 204 189 L 201 192 Q 202 204 209 212 L 217 217 L 227 204 L 227 200 L 220 199 L 208 189 L 204 189 Z M 254 189 L 251 193 L 246 197 L 242 202 L 256 213 L 258 209 L 257 192 L 254 189 Z M 243 190 L 240 192 L 220 192 L 217 193 L 233 199 Q 242 199 245 194 Q 247 189 243 190 Z M 193 195 Q 177 200 167 210 Q 146 226 135 252 Q 134 262 137 270 Q 142 281 151 288 L 156 281 Q 162 272 173 269 L 167 259 L 162 254 L 164 252 L 169 255 L 188 239 L 186 245 L 186 277 L 199 282 L 202 288 L 207 290 L 224 290 L 225 291 L 266 289 L 278 286 L 281 283 L 281 257 Q 277 249 279 235 L 277 231 Q 276 225 279 224 L 283 238 L 284 262 L 286 266 Q 292 274 304 277 Q 320 279 327 272 Q 329 256 322 250 L 323 243 L 322 238 L 311 242 L 302 248 L 307 241 L 286 209 Q 279 198 265 195 L 262 199 L 261 212 L 258 217 L 249 211 L 245 216 L 255 266 L 255 272 L 242 287 L 239 287 L 224 273 L 225 247 L 227 244 L 229 217 L 225 213 L 221 218 Q 220 222 215 221 Q 203 212 198 197 L 193 195 Z M 235 202 L 233 203 L 228 209 L 231 215 Q 233 218 241 216 Q 245 214 244 207 Q 242 201 235 202 Z M 364 217 L 358 219 L 355 224 L 358 226 L 368 226 L 369 228 L 368 229 L 357 230 L 353 236 L 355 237 L 366 237 L 368 240 L 368 241 L 355 241 L 352 246 L 357 249 Q 364 247 366 251 L 366 252 L 356 252 L 354 257 Q 358 261 369 260 L 375 250 Q 373 241 377 240 L 375 222 Q 373 216 364 217 Z M 241 219 L 234 220 L 231 228 L 231 240 L 229 244 L 227 272 L 240 283 L 242 283 L 251 271 L 246 236 L 241 219 Z M 334 222 L 332 223 Q 324 227 327 241 L 330 242 L 330 233 L 332 231 L 334 232 L 340 229 L 339 225 L 334 222 Z M 180 251 L 173 259 L 178 271 L 181 272 L 181 252 L 180 251 Z M 286 271 L 286 283 L 284 286 L 285 290 L 284 298 L 287 326 L 289 382 L 291 386 L 291 402 L 293 419 L 292 431 L 309 442 L 310 439 L 311 411 L 314 399 L 315 375 L 317 372 L 320 326 L 322 320 L 322 308 L 325 296 L 325 280 L 325 277 L 314 281 L 300 280 L 286 271 Z M 173 272 L 164 276 Q 156 281 154 292 L 160 296 L 165 288 L 179 278 L 178 276 L 173 272 Z M 181 281 L 170 288 L 163 298 L 164 305 L 181 316 L 186 317 L 187 313 L 180 307 L 184 305 L 192 314 L 194 313 L 193 308 L 186 300 L 189 298 L 193 304 L 199 309 L 200 308 L 199 301 L 190 293 L 192 290 L 203 298 L 201 290 Q 195 281 181 281 Z M 279 288 L 269 294 Q 268 299 271 300 L 280 296 Q 281 289 279 288 Z M 263 292 L 255 294 Q 252 295 253 301 Q 255 304 263 302 Q 267 300 265 294 L 263 292 Z M 208 294 L 207 301 L 213 303 L 226 303 L 226 295 L 208 294 Z M 246 294 L 233 295 Q 229 297 231 304 L 233 305 L 247 305 Q 251 303 249 296 L 246 294 Z M 277 301 Q 269 306 255 305 L 247 309 L 232 309 L 226 306 L 211 306 Q 210 303 205 304 L 203 310 L 201 311 L 198 315 L 186 321 L 182 328 L 181 356 L 178 367 L 177 392 L 175 395 L 172 430 L 176 433 L 188 436 Q 202 438 212 434 L 214 432 L 220 389 L 224 376 L 224 368 L 232 335 L 241 328 L 242 330 L 237 334 L 237 347 L 241 365 L 241 378 L 244 390 L 247 430 L 258 435 Q 279 437 289 429 L 284 365 L 283 324 L 281 320 L 281 303 L 277 301 Z M 318 410 L 316 415 L 327 419 L 343 419 L 346 417 L 345 413 L 343 414 Q 326 416 318 410 Z M 317 418 L 315 423 Q 320 427 329 428 Q 339 429 345 426 L 346 424 L 345 422 L 328 422 L 317 418 Z M 316 427 L 314 429 L 314 442 L 318 445 L 327 448 L 340 447 Q 346 444 344 433 L 343 431 L 326 431 L 316 427 Z M 286 434 L 272 439 Q 258 440 250 437 L 248 439 L 248 449 L 253 452 L 284 461 Q 302 463 310 455 L 307 447 Q 300 436 286 434 Z M 173 436 L 164 442 Q 156 447 154 458 Q 157 463 166 464 L 189 463 L 210 453 L 213 449 Q 214 441 211 438 L 205 440 L 188 440 L 173 436 Z M 249 453 L 249 457 L 256 461 L 265 461 L 277 467 L 288 468 Q 304 470 311 462 L 310 459 L 299 463 L 282 463 L 260 455 L 249 453 Z M 211 454 L 191 465 L 182 467 Q 164 469 156 462 L 154 466 L 169 472 L 189 470 L 202 463 L 210 461 L 212 458 L 211 454 Z " /><path fill="rgb(1,1,1)" stroke="rgb(1,1,1)" stroke-width="0.6" opacity="1" d="M 255.5 75 Q 269.4 74.6 274 83.5 L 272.5 88 L 263.5 85 L 254.5 85 L 249.5 86 L 247 81.5 L 255.5 75 Z " /><path fill="rgb(1,1,1)" stroke="rgb(1,1,1)" stroke-width="0.6" opacity="1" d="M 189.5 84 Q 199 82 201 87.5 Q 201.8 92.3 198.5 93 L 188.5 94 L 176.5 101 L 175 97.5 L 183.5 87 L 189.5 84 Z " /><path fill="rgb(1,1,1)" stroke="rgb(1,1,1)" stroke-width="0.6" opacity="1" d="M 259.5 98 Q 272.1 97.4 276 105.5 L 279 117 L 276 115.5 Q 275.9 107.1 270.5 104 Q 267.3 100.2 258.5 102 L 251 108.5 L 250 112 L 257.5 107 L 262.5 107 L 270 113.5 L 271 123.5 L 264.5 131 L 258.5 132 L 248 123.5 L 247 110.5 Q 248.8 103.3 254.5 100 L 259.5 98 Z " /><path fill="rgb(1,1,1)" stroke="rgb(1,1,1)" stroke-width="0.6" opacity="1" d="M 190.5 107 Q 203.8 105.8 208 113.5 Q 212.5 119 211 130.5 L 201.5 139 L 193.5 139 Q 185.5 136 186 124.5 L 191.5 117 Q 193.2 114.2 198.5 115 L 207 121.5 Q 205.5 129.1 209 128 Q 210.7 116.7 203.5 113 Q 200.7 109.3 193.5 110 L 182 118.5 L 181 129.5 L 183 134.5 L 180 132.5 L 178 120.5 L 185.5 110 L 190.5 107 Z " /><path fill="rgb(1,1,1)" stroke="rgb(1,1,1)" stroke-width="0.6" opacity="1" d="M 236.5 129 Q 244.4 128.1 246 133.5 L 246 141.5 L 239.5 148 L 229.5 149 L 224 145.5 L 226.5 144 Q 228.8 147.2 235.5 146 L 244 139.5 Q 244.7 133.3 240.5 132 L 235 130.5 L 236.5 129 Z " /><path fill="rgb(1,1,1)" stroke="rgb(1,1,1)" stroke-width="0.6" opacity="1" d="M 254.5 148 L 259 151.5 Q 259.8 154.1 256.5 153 L 247.5 163 Q 239.9 167.9 226.5 167 L 216.5 164 L 205 156.5 L 208.5 152 Q 212.7 150.7 211 155.5 Q 218 165 236.5 163 Q 248.1 161.1 253 152.5 L 254.5 148 Z " /><path fill="rgb(1,1,1)" stroke="rgb(1,1,1)" stroke-width="0.6" opacity="1" d="M 345 187 Q 348.8 185.9 347 194.5 L 345 198.5 L 345 214 L 343 213.5 L 343 199.5 L 345 187 Z " /><path fill="rgb(1,1,1)" stroke="rgb(1,1,1)" stroke-width="0.6" opacity="1" d="M 340.5 239 L 342 239.5 L 342 247.5 L 333 327 L 331 326.5 L 331 318.5 L 332 309.5 L 334 305.5 L 334 288.5 Q 337.6 281.6 336 269.5 L 339 257.5 L 339 240.5 L 340.5 239 Z " /><path fill="rgb(1,1,1)" stroke="rgb(1,1,1)" stroke-width="0.6" opacity="1" d="M 348 297 L 350 297.5 L 350 313.5 L 349 319 L 347 318.5 L 347 310.5 L 348 297 Z " /><path fill="rgb(1,1,1)" stroke="rgb(1,1,1)" stroke-width="0.6" opacity="1" d="M 346 323 L 348 323.5 L 348 332.5 L 346 338.5 L 345 358 L 343 357.5 L 343 344.5 L 346 323 Z " /><path fill="rgb(1,1,1)" stroke="rgb(1,1,1)" stroke-width="0.6" opacity="1" d="M 330 330 L 332 330.5 L 332 344.5 L 330 357 L 328 356.5 L 328 347.5 L 330 343.5 L 330 330 Z " /><path fill="rgb(1,1,1)" stroke="rgb(1,1,1)" stroke-width="0.6" opacity="1" d="M 327 363 Q 330.8 361.9 329 370.5 L 327 386 Q 323.2 387.1 325 378.5 L 327 363 Z " /><path fill="rgb(1,1,1)" stroke="rgb(1,1,1)" stroke-width="0.6" opacity="1" d="M 230.5 501 L 237.5 501 L 247 506.5 Q 247.6 509.3 241.5 508 L 239.5 506 L 232.5 505 L 226.5 508 L 202 508 L 203.5 505 L 215.5 504 L 222.5 506 L 230.5 501 Z " /><path fill="rgb(1,1,1)" stroke="rgb(1,1,1)" stroke-width="0.6" opacity="1" d="M 251.5 504 L 263.5 504 L 265 505.5 L 264.5 507 L 250 507 L 251.5 504 Z " /><path fill="rgb(231,82,71)" stroke="rgb(231,82,71)" stroke-width="0.6" opacity="1" d="M 352.5 138 L 362.5 139 L 364.5 138 L 367 141.5 L 371 159.5 L 363.5 163 L 355.5 159 Q 354.1 162.6 348.5 162 L 343 157.5 L 352.5 138 Z " /><path fill="rgb(231,82,71)" stroke="rgb(231,82,71)" stroke-width="0.6" opacity="1" d="M 352.5 164 Q 359.4 163.1 361 167.5 Q 361.5 186 357 199.5 L 357 213.5 L 352 218.5 Q 354.3 228.2 349 230.5 L 348 247.5 Q 351 248.5 350 253.5 L 349 256.5 Q 353.3 258.7 352 266.5 L 348 289.5 L 346 324.5 L 344 329.5 L 342 362.5 L 339 374.5 L 338 399.5 L 337 408.5 L 335.5 410 Q 328 412 326 408.5 L 326 394.5 L 329 380.5 L 334 315.5 L 336 309.5 L 339 268.5 L 341 262.5 L 342 237.5 L 345 224.5 L 345 209.5 L 347 186.5 L 349 180.5 L 349 167.5 L 352.5 164 Z " /><path fill="rgb(231,82,71)" stroke="rgb(231,82,71)" stroke-width="0.6" opacity="1" d="M 370.5 164 L 371 166.5 L 369 196.5 Q 365.6 201.6 367 211.5 L 365.5 213 L 361 212.5 L 361 199.5 L 363 176.5 L 365 174.5 Q 363.2 167.8 366.5 166 L 370.5 164 Z " /><path fill="rgb(231,82,71)" stroke="rgb(231,82,71)" stroke-width="0.6" opacity="1" d="M 241.5 191 Q 245.3 189.8 244 193.5 Q 240.9 199.4 230.5 198 L 221 194 L 221.5 192 L 240.5 192 L 241.5 191 Z " /><path fill="rgb(231,82,71)" stroke="rgb(231,82,71)" stroke-width="0.6" opacity="1" d="M 233.5 203 Q 242.5 201.5 244 207.5 L 240.5 215 L 233.5 216 L 229 208.5 L 233.5 203 Z " /><path fill="rgb(231,82,71)" stroke="rgb(231,82,71)" stroke-width="0.6" opacity="1" d="M 234.5 220 Q 240.5 218.5 242 221.5 L 250 263.5 L 250 271.5 L 242 282 L 239.5 282 L 228 271.5 L 228 257.5 L 230 252.5 L 231 231.5 L 234.5 220 Z " /><path fill="rgb(231,82,71)" stroke="rgb(231,82,71)" stroke-width="0.6" opacity="1" d="M 277.5 289 L 280 290.5 Q 281 296 277.5 297 L 270 299 Q 268.5 293.6 271.5 292 L 277.5 289 Z " /><path fill="rgb(231,82,71)" stroke="rgb(231,82,71)" stroke-width="0.6" opacity="1" d="M 278.5 301 L 280 302.5 L 282 321.5 L 283 359.5 L 285 366.5 L 288 427.5 Q 283.9 432.9 275.5 434 L 255.5 434 L 248 429.5 L 248 420.5 L 246 417.5 L 244 386.5 L 241 373.5 L 241 360.5 L 237 342.5 L 237 334.5 L 243 329.5 L 241.5 327 L 231 334.5 L 224 364.5 L 224 371.5 L 219 389.5 L 214 427.5 L 211.5 433 L 200.5 436 L 191.5 436 L 175.5 432 L 173 429.5 L 175 400.5 L 178 388.5 L 179 364.5 L 182 352.5 L 183 325.5 L 186.5 321 L 198 315.5 L 201.5 311 L 204 309.5 L 205.5 305 Q 214.1 308.4 227.5 307 L 230.5 309 L 248.5 309 L 253.5 306 Q 269.3 306.8 278.5 301 Z " /><path fill="rgb(231,82,71)" stroke="rgb(231,82,71)" stroke-width="0.6" opacity="1" d="M 210.5 455 L 211 457.5 L 209.5 460 L 201.5 462 Q 195.8 467.8 186.5 470 L 166.5 471 L 155 465.5 L 156.5 463 Q 163.9 469.1 178.5 468 L 190.5 466 L 210.5 455 Z " /><path fill="rgb(54,126,190)" stroke="rgb(54,126,190)" stroke-width="0.6" opacity="1" d="M 299.5 104 Q 306 103 308 106.5 Q 312.7 112.4 311 124.5 Q 309.1 132.2 303.5 136 L 298.5 137 L 297 135.5 L 297 123 L 302 124 L 300 117.5 L 305 114 L 303.5 111 Q 298.5 110 297.5 113 L 296 107.5 L 299.5 104 Z " /><path fill="rgb(54,126,190)" stroke="rgb(54,126,190)" stroke-width="0.6" opacity="1" d="M 360.5 123 L 364 132.5 Q 362.1 135.8 356 134 Q 355.3 126.5 360.5 123 Z " /><path fill="rgb(54,126,190)" stroke="rgb(54,126,190)" stroke-width="0.6" opacity="1" d="M 194.5 195 L 197 196.5 Q 202.2 211.8 213.5 221 L 217.5 222 L 224.5 213 Q 230 214 229 221.5 L 224 251.5 L 223 272.5 L 239 287.5 L 238.5 289 Q 241.8 290.1 241 287.5 L 255 272.5 L 255 263.5 L 245 216.5 L 248.5 212 L 257.5 218 L 261 212.5 L 262 201.5 L 264.5 195 Q 276.9 198.1 284 206.5 L 306 238.5 L 306 241.5 Q 300.3 243.1 301 249 L 303.5 249 L 314.5 241 L 323 239 L 321 247.5 L 327 259.5 L 327 269.5 L 324.5 273 Q 317.2 277.7 304.5 277 Q 291.7 273.3 285 263.5 L 283 235.5 L 281 226.5 L 278.5 224 Q 275.5 225.5 277 231.5 L 280 253.5 L 281 281.5 L 275.5 286 L 263.5 289 L 243.5 289 L 225.5 291 Q 216.9 288.1 204.5 289 L 202 286.5 L 197.5 281 Q 189.9 280.1 186 275.5 L 186 244.5 L 188 239.5 L 186.5 238 L 171.5 253 L 168.5 254 L 163.5 252 L 162 253.5 L 166 257.5 L 172 270 L 164.5 272 L 154 282.5 L 150.5 287 Q 135.3 277.7 135 253.5 L 142 237.5 L 159.5 217 L 177.5 202 L 194.5 195 Z " /><path fill="rgb(54,126,190)" stroke="rgb(54,126,190)" stroke-width="0.6" opacity="1" d="M 332.5 223 Q 338 222 339 225.5 L 337.5 231 Q 330.8 229.3 329 232.5 L 330 241 L 328 239.5 L 327 229.5 L 332.5 223 Z " /><path fill="rgb(54,126,190)" stroke="rgb(54,126,190)" stroke-width="0.6" opacity="1" d="M 338.5 234 L 341 235.5 L 339 239.5 L 338 261.5 L 336 267.5 L 336 280.5 L 334 286.5 Q 334.2 307.7 330 324.5 L 330 337.5 L 327 354.5 L 325 385.5 L 322 407 L 317 404.5 L 318 386.5 L 321 371.5 L 322 348.5 L 326 322.5 L 326 311.5 L 329 297.5 L 330 273.5 L 332 268.5 L 334 237.5 L 336.5 235 L 338.5 234 Z " /><path fill="rgb(54,126,190)" stroke="rgb(54,126,190)" stroke-width="0.6" opacity="1" d="M 171.5 273 Q 177.3 272.3 178 276.5 L 176.5 279 Q 167.2 281.7 163 289.5 L 161 295 L 155 292.5 L 155 287.5 L 160.5 279 L 171.5 273 Z " /><path fill="rgb(54,126,190)" stroke="rgb(54,126,190)" stroke-width="0.6" opacity="1" d="M 316 419 L 324.5 422 L 337.5 423 L 343.5 422 Q 348 424 344.5 426 L 331.5 428 L 321.5 426 L 316 422.5 L 316 419 Z " /><path fill="rgb(54,126,190)" stroke="rgb(54,126,190)" stroke-width="0.6" opacity="1" d="M 314 428 Q 322.3 432 335.5 432 L 342.5 431 L 344 435.5 L 343 442.5 L 338.5 447 L 329.5 448 L 316.5 444 L 314 441.5 L 314 428 Z " /><path fill="rgb(54,126,190)" stroke="rgb(54,126,190)" stroke-width="0.6" opacity="1" d="M 172.5 436 Q 185 442.5 206.5 440 L 210.5 439 Q 214.3 441.3 212 449.5 L 208.5 453 L 190.5 462 Q 181.3 465.3 167.5 464 L 159.5 462 L 155 458.5 L 155 453.5 L 160.5 445 L 172.5 436 Z " /><path fill="rgb(101,161,91)" stroke="rgb(101,161,91)" stroke-width="0.6" opacity="1" d="M 220.5 9 L 229.5 9 L 242.5 16 Q 246.3 11.3 256.5 13 L 266 19.5 L 269.5 24 L 276.5 23 L 284 27.5 L 288.5 39 L 295 41.5 Q 298.7 44.3 298 51.5 L 297 57.5 Q 302.8 60.2 301 70.5 Q 298.2 72.2 299 77.5 L 301 84.5 L 297 91.5 Q 299 99 295.5 101 Q 292.8 101.6 294 95.5 Q 292.3 83.7 286 76.5 L 285 68.5 L 286 66.5 L 280 60.5 L 277 50.5 L 274.5 48 L 270.5 48 L 262.5 43 Q 260.5 47 252.5 45 L 247.5 43 L 240.5 46 L 232.5 43 L 224.5 47 L 215.5 45 Q 213 49.5 204.5 48 L 199.5 46 L 193.5 51 L 188.5 51 L 184.5 49 L 178.5 55 Q 170.3 52.8 168 56.5 Q 167.6 62.1 163.5 64 L 160 66.5 L 161 78.5 Q 155.8 81.3 157 90.5 L 159 98.5 L 156 107.5 L 157 117.5 L 154.5 118 Q 148.9 118.1 147 114.5 Q 143.9 110.1 145 101.5 L 140 96.5 L 139 85.5 L 140 83.5 Q 134.5 79.5 136 68.5 L 140.5 61 L 142 60.5 L 142 50.5 L 150.5 41 L 157 38.5 Q 156.7 28.7 163.5 26 L 174.5 23 L 178.5 24 L 187.5 14 L 196.5 12 L 209.5 16 L 220.5 9 Z " /><path fill="rgb(101,161,91)" stroke="rgb(101,161,91)" stroke-width="0.6" opacity="1" d="M 149.5 123 Q 156 122 158 125.5 L 159 132 L 150.5 130 Q 144.5 132.5 148.5 135 Q 153.8 133.8 155 136.5 L 155 141 L 160 141 L 160 142.5 L 164 153.5 Q 162.3 156.8 155.5 155 L 146 148.5 Q 142.2 143.8 142 135.5 L 143 129.5 L 149.5 123 Z " /><path fill="rgb(101,161,91)" stroke="rgb(101,161,91)" stroke-width="0.6" opacity="1" d="M 342.5 163 L 347 166.5 L 342 208.5 L 342 218.5 L 340.5 220 L 336 218.5 L 339 181.5 Q 342.1 175.1 341 164.5 L 342.5 163 Z " /><path fill="rgb(101,161,91)" stroke="rgb(101,161,91)" stroke-width="0.6" opacity="1" d="M 253.5 189 L 256 190.5 L 258 193.5 L 258 207.5 L 255.5 212 L 243 201.5 L 253.5 189 Z " /><path fill="rgb(101,161,91)" stroke="rgb(101,161,91)" stroke-width="0.6" opacity="1" d="M 179.5 252 L 181 252.5 L 181 272 L 179 270.5 L 173 258.5 L 179.5 252 Z " /><path fill="rgb(101,161,91)" stroke="rgb(101,161,91)" stroke-width="0.6" opacity="1" d="M 181.5 281 Q 196.1 281.9 202 291.5 Q 203.9 296.9 200.5 296 Q 197.7 290 190 290 L 190 292.5 L 198 300.5 L 200 306.5 L 198.5 308 L 188.5 298 L 185 299.5 L 193 308.5 L 194 313 L 191.5 313 L 182.5 304 L 180 304 L 181.5 308 L 186 311.5 L 187 315.5 L 182.5 317 L 165 304.5 L 163 298.5 Q 165.9 290.4 172.5 286 L 181.5 281 Z " /><path fill="rgb(101,161,91)" stroke="rgb(101,161,91)" stroke-width="0.6" opacity="1" d="M 209.5 294 L 221.5 295 L 226 297.5 L 224.5 303 L 209.5 302 L 207 299.5 L 209.5 294 Z " /><path fill="rgb(101,161,91)" stroke="rgb(101,161,91)" stroke-width="0.6" opacity="1" d="M 286.5 434 Q 300 437.5 307 447.5 L 309 455.5 Q 299.7 462.7 280.5 460 L 251.5 451 L 248 448.5 L 249 438.5 L 250.5 437 Q 258.9 441.1 273.5 439 L 286.5 434 Z " /><path fill="rgb(46,47,46)" stroke="rgb(46,47,46)" stroke-width="0.6" opacity="1" d="M 283.5 21 L 289.5 28 L 283.5 21 Z " /><path fill="rgb(46,47,46)" stroke="rgb(46,47,46)" stroke-width="0.6" opacity="1" d="M 172.5 168 L 180.5 177 L 172.5 168 Z " /><path fill="rgb(46,47,46)" stroke="rgb(46,47,46)" stroke-width="0.6" opacity="1" d="M 165.5 205 L 160.5 211 L 165.5 205 Z " /><path fill="rgb(46,47,46)" stroke="rgb(46,47,46)" stroke-width="0.6" opacity="1" d="M 161.5 306 L 166.5 312 L 161.5 306 Z " /><path fill="rgb(46,47,46)" stroke="rgb(46,47,46)" stroke-width="0.6" opacity="1" d="M 246.5 505 L 255 507.5 L 247 508 L 246.5 505 Z " /><path fill="rgb(78,115,111)" stroke="rgb(78,115,111)" stroke-width="0.6" opacity="1" d="M 184.5 49 L 186 49.5 L 179.5 55 L 184.5 49 Z " /><path fill="rgb(78,115,111)" stroke="rgb(78,115,111)" stroke-width="0.6" opacity="1" d="M 280.5 61 L 286 67.5 L 285 67.5 L 280.5 61 Z " /><path fill="rgb(78,115,111)" stroke="rgb(78,115,111)" stroke-width="0.6" opacity="1" d="M 223.5 272 L 237.5 287 L 223.5 272 Z " /><path fill="rgb(78,115,111)" stroke="rgb(78,115,111)" stroke-width="0.6" opacity="1" d="M 195.5 291 L 202 296.5 L 202.5 295 L 203 298 L 195.5 291 Z " /><path fill="rgb(78,115,111)" stroke="rgb(78,115,111)" stroke-width="0.6" opacity="1" d="M 185.5 299 L 193 307.5 L 185 300.5 L 185.5 299 Z " /><path fill="rgb(117,137,48)" stroke="rgb(117,137,48)" stroke-width="0.6" opacity="1" d="M 187.5 84 L 186.5 86 L 180.5 90 L 183.5 86 L 187.5 84 Z " /><path fill="rgb(117,137,48)" stroke="rgb(117,137,48)" stroke-width="0.6" opacity="1" d="M 321.5 308 L 322 318.5 L 321 318.5 L 321.5 308 Z " /><path fill="rgb(117,137,48)" stroke="rgb(117,137,48)" stroke-width="0.6" opacity="1" d="M 291.5 386 L 292 401.5 L 291 401.5 L 291.5 386 Z " /><path fill="rgb(117,137,48)" stroke="rgb(117,137,48)" stroke-width="0.6" opacity="1" d="M 327.5 418 L 343 418.5 L 327.5 419 L 327.5 418 Z " /><path fill="rgb(228,228,228)" stroke="rgb(228,228,228)" stroke-width="0.6" opacity="1" d="M 283.5 20 L 289.5 27 L 283.5 20 Z " /><path fill="rgb(228,228,228)" stroke="rgb(228,228,228)" stroke-width="0.6" opacity="1" d="M 171.5 168 L 180.5 178 L 171.5 168 Z " /><path fill="rgb(228,228,228)" stroke="rgb(228,228,228)" stroke-width="0.6" opacity="1" d="M 284.5 169 L 279.5 175 L 284.5 169 Z " /><path fill="rgb(228,228,228)" stroke="rgb(228,228,228)" stroke-width="0.6" opacity="1" d="M 160.5 306 L 165.5 312 L 160.5 306 Z " /></svg>