<svg width="627" height="627" preserveAspectRatio="xMidYMid meet" viewBox="0 0 512 512" version="1.1" xmlns="http://www.w3.org/2000/svg" ><path fill="rgb(254,254,254)" stroke="rgb(254,254,254)" stroke-width="0.6" opacity="1" d="M 0 0 L 512 0 L 512 512 L 0 512 L 0 0 Z M 178 13 L 176 14 Q 168 19 166 30 L 167 32 L 167 35 L 159 45 Q 157 59 165 63 L 164 65 Q 163 74 167 79 L 173 84 L 170 98 Q 170 121 179 135 L 174 145 Q 174 155 178 161 L 185 166 L 187 173 L 193 176 L 203 173 L 205 177 Q 213 186 225 191 Q 227 190 226 194 L 223 197 L 200 208 Q 175 232 163 269 L 163 277 L 167 288 Q 176 303 188 315 L 188 322 L 178 370 L 179 376 L 201 387 L 201 405 L 198 436 L 198 453 L 201 457 L 188 472 L 183 485 L 185 492 Q 190 498 201 499 L 216 497 L 237 483 L 243 474 L 242 461 L 247 451 L 249 433 L 258 389 Q 256 382 260 383 L 261 449 L 264 455 L 262 464 Q 261 472 264 477 Q 280 488 304 491 Q 319 493 329 489 L 334 483 L 333 473 L 325 464 L 308 454 L 310 448 L 311 418 L 314 386 L 326 380 L 330 376 Q 331 364 328 356 Q 326 351 331 352 L 332 355 L 336 357 L 339 356 L 341 357 L 346 356 Q 351 352 353 344 Q 355 324 347 315 L 349 312 L 349 308 Q 335 273 325 235 L 312 211 Q 303 201 288 197 L 285 194 L 301 184 Q 310 177 315 166 L 317 164 L 325 163 L 328 159 L 328 153 L 334 142 Q 335 132 332 127 L 325 121 L 328 99 L 321 72 L 316 63 L 310 57 L 305 51 Q 298 42 286 40 Q 288 28 283 22 L 270 13 L 266 15 L 267 19 L 278 23 L 281 29 Q 283 36 280 38 L 269 33 L 254 33 L 253 34 L 248 33 L 231 34 L 220 40 L 209 42 L 198 49 L 194 54 L 187 60 L 176 76 Q 177 78 173 77 L 169 72 Q 167 64 171 63 L 164 53 Q 163 45 166 42 L 173 37 L 172 35 L 173 24 Q 176 15 190 17 L 191 15 L 190 13 L 178 13 Z " /><path fill="rgb(254,254,254)" stroke="rgb(254,254,254)" stroke-width="0.6" opacity="1" d="M 291.5 212 L 295 222 Q 291.7 223.3 293 218.5 L 291.5 212 Z " /><path fill="rgb(254,254,254)" stroke="rgb(254,254,254)" stroke-width="0.6" opacity="1" d="M 221 213 L 223 213.5 L 223 230 L 221 229.5 L 221 213 Z " /><path fill="rgb(254,254,254)" stroke="rgb(254,254,254)" stroke-width="0.6" opacity="1" d="M 325 334 L 328 335.5 L 329 338.5 L 328 342 Q 324 343.4 326 336.5 L 325 334 Z " /><path fill="rgb(173,110,72)" stroke="rgb(173,110,72)" stroke-width="0.6" opacity="1" d="M 262.5 69 L 265.5 72 L 277.5 74 L 282.5 72 L 289.5 78 L 300 81.5 Q 301.1 88.9 306.5 92 L 309 93.5 Q 309.2 103.8 314 109.5 L 316 136.5 L 315 141.5 L 316 145.5 Q 313.6 168.1 299.5 179 Q 290 187.5 276.5 192 Q 265.7 195.2 250.5 194 Q 220.1 190.4 206 170.5 L 201 160 L 192.5 159 L 187.5 162 L 183 159.5 Q 177.5 154.5 179 142.5 L 183.5 137 Q 193.4 135.6 195.5 142 L 197 139.5 L 195 132.5 Q 198.3 127.8 197 118.5 L 196 115.5 L 202 108.5 L 204 96.5 L 205.5 95 L 215 87.5 L 218.5 81 L 222.5 82 Q 233 80.5 237.5 73 L 241.5 73 L 253.5 74 L 260.5 70 L 262 70.5 L 262.5 69 Z M 286 94 L 283 95 Q 279 96 280 101 L 282 102 L 294 102 L 300 105 Q 305 107 303 102 Q 299 93 286 94 Z M 229 98 L 219 102 L 212 110 L 214 114 Q 220 107 234 107 L 235 103 L 229 98 Z M 292 114 L 286 116 Q 280 120 278 128 Q 277 137 281 141 L 289 145 L 296 144 L 301 136 Q 302 128 298 126 Q 295 121 289 122 L 288 120 L 291 118 L 301 121 Q 306 126 305 138 Q 309 134 307 125 L 307 123 L 304 120 Q 300 114 292 114 Z M 226 120 L 217 124 L 210 135 L 213 144 L 216 146 L 214 141 Q 213 133 217 130 L 225 124 Q 234 123 237 129 L 236 131 L 232 128 L 224 129 Q 219 131 218 138 L 220 146 L 228 151 L 236 149 L 239 144 L 241 144 L 243 140 L 240 128 Q 236 120 226 120 Z M 186 143 L 184 146 L 190 147 L 190 150 L 189 154 L 191 155 Q 190 151 194 152 L 196 152 L 195 149 L 190 143 L 186 143 Z M 269 143 L 269 145 L 272 146 Q 274 147 273 153 L 269 156 Q 260 158 258 154 L 256 157 L 260 159 Q 269 161 274 157 L 277 152 L 276 147 Q 275 142 269 143 Z M 283 161 L 281 165 Q 276 172 267 174 Q 254 175 249 170 L 243 162 L 241 163 L 238 167 L 250 175 L 259 178 L 262 177 L 265 178 L 277 174 L 286 163 L 283 161 Z " /><path fill="rgb(173,110,72)" stroke="rgb(173,110,72)" stroke-width="0.6" opacity="1" d="M 193.5 162 L 199 165.5 Q 199.8 171.3 195.5 172 L 190 169.5 Q 188.8 164.3 191.5 163 L 193.5 162 Z " /><path fill="rgb(173,110,72)" stroke="rgb(173,110,72)" stroke-width="0.6" opacity="1" d="M 215.5 204 Q 221.2 202.2 219 208.5 Q 215.3 215.8 217 228.5 L 219 239.5 Q 213.3 243.1 212 250 L 207 252.5 L 201 267 L 193 264 L 193 266.5 L 213 292.5 L 194 308.5 L 192.5 311 L 190.5 311 L 184 304.5 L 169 281.5 L 168 268.5 Q 179 234.5 201.5 212 L 215.5 204 Z " /><path fill="rgb(173,110,72)" stroke="rgb(173,110,72)" stroke-width="0.6" opacity="1" d="M 312.5 310 Q 318.4 307.9 317 312.5 L 322 341.5 L 311.5 345 L 305 341.5 L 302 331.5 L 301 313.5 L 303.5 311 L 312.5 310 Z " /><path fill="rgb(173,110,72)" stroke="rgb(173,110,72)" stroke-width="0.6" opacity="1" d="M 301.5 456 L 314 463.5 L 311.5 468 Q 306.1 471.6 295.5 470 Q 278.8 467.7 269 458.5 L 272.5 457 Q 278.9 460.1 289.5 459 L 301.5 456 Z " /><path fill="rgb(237,183,140)" stroke="rgb(237,183,140)" stroke-width="0.6" opacity="1" d="M 232.5 200 L 233.5 202 L 234.5 200 L 237 205.5 L 237 212.5 L 239 214.5 L 239 220.5 L 241 222.5 L 241 228.5 L 243 230.5 L 243 238.5 L 245 243.5 L 241.5 245 L 230 235.5 L 230 232.5 L 235 225.5 L 228 221 L 228 209.5 L 232.5 200 Z " /><path fill="rgb(237,183,140)" stroke="rgb(237,183,140)" stroke-width="0.6" opacity="1" d="M 280.5 208 L 282.5 208 L 285 209.5 L 289 219.5 L 286 225.5 Q 293.3 229 291 241 Q 287.2 239.5 288 242.5 L 284 245.5 Q 285 249.3 282 248 L 280.5 208 Z " /><path fill="rgb(237,183,140)" stroke="rgb(237,183,140)" stroke-width="0.6" opacity="1" d="M 273 214 Q 276.5 212.9 275 220.5 L 276 224.5 L 275 232.5 L 277 238.5 L 277 260.5 L 278 262.5 L 277 269.5 L 278 274.5 L 277 276.5 L 279 280.5 L 280 308.5 L 279 315.5 L 281 322.5 L 277.5 325 L 254.5 326 L 251 323.5 L 252 311.5 L 252 309.5 L 253 268.5 L 252 260.5 L 253 258.5 L 251 253.5 L 252 249.5 L 250 246.5 L 250 237.5 L 248 234.5 L 248 227.5 Q 244.2 225.6 246 219 L 248 217.5 L 247 215.5 L 248 215.5 L 250.5 219 L 261.5 229 L 263.5 229 L 267 227 L 273 214 Z " /><path fill="rgb(237,183,140)" stroke="rgb(237,183,140)" stroke-width="0.6" opacity="1" d="M 245 256 L 247 256.5 L 247 266.5 L 246 266.5 L 244 258.5 L 245 256 Z " /><path fill="rgb(237,183,140)" stroke="rgb(237,183,140)" stroke-width="0.6" opacity="1" d="M 279.5 329 L 281 330.5 L 281 349.5 L 283 355.5 L 284 379.5 L 283 383.5 L 286 388 L 309 387 L 307 402.5 L 308 405.5 L 307 406.5 L 307 420.5 L 305 426.5 L 306 434.5 L 305 447.5 L 300.5 452 Q 291.4 455.9 276.5 454 L 267 450.5 L 266 448.5 L 266 389.5 Q 262.9 380.1 264 366.5 L 265 361.5 L 264 353.5 L 266 351.5 L 267 345 L 270 343.5 L 268.5 341 Q 263 341.5 261 345.5 L 259 350.5 L 259 357.5 L 257 359.5 L 257 367.5 L 255 369.5 L 255 378.5 L 253 380.5 Q 254.4 387.9 251 390.5 L 249 409.5 L 247 411.5 L 247 420.5 L 245 422.5 Q 247.3 431.3 243 433.5 L 243 443.5 Q 239.5 445 241 451.5 L 238.5 454 Q 231.8 452.8 229.5 456 L 217.5 456 Q 214.8 453.2 208.5 454 L 203 450.5 L 204 419.5 Q 207.3 415.8 206 407.5 L 205 405.5 L 206 404.5 L 206 390.5 L 207.5 389 L 211.5 388 Q 224.3 391.8 242.5 390 L 248 381.5 L 248 358.5 Q 251.5 354.5 250 345.5 L 249 343.5 L 250 331.5 L 251.5 330 L 267.5 331 L 276.5 330 Q 278 332.5 279.5 329 Z " /><path fill="rgb(9,10,10)" stroke="rgb(9,10,10)" stroke-width="0.6" opacity="1" d="M 180.5 13 L 187.5 14 L 190 14.5 L 188.5 16 L 178.5 17 L 172 23.5 L 171 34.5 L 172 36.5 L 165 41.5 Q 161.7 45.2 163 53.5 L 170 62.5 Q 166.3 64.3 168 71.5 L 173.5 79 L 177 77.5 L 182 66.5 L 201.5 47 Q 207.8 41.3 219.5 41 L 227.5 36 Q 235.3 32.8 247.5 34 L 252.5 35 L 253.5 34 L 268.5 34 L 280.5 39 Q 284.3 36.8 282 28.5 L 276.5 21 L 268 17.5 L 268.5 13 L 277.5 18 L 283 23.5 Q 286.3 28.2 285 37.5 L 284 39.5 Q 298.7 43.8 307 54.5 L 310.5 59 L 315 62.5 L 320 71.5 Q 321.2 82.8 326 90.5 L 326 105.5 L 324 122 L 331 126.5 Q 334.3 131.2 333 140.5 L 327 152.5 L 327 158.5 L 322.5 163 L 316.5 162 Q 310.9 173.9 301.5 182 L 283 193.5 L 287.5 198 L 305.5 206 L 314 214.5 L 325 237.5 Q 334.7 274.3 348 307.5 L 348 311.5 L 346 314.5 Q 354.3 323.8 352 343.5 L 345.5 355 L 335.5 356 L 328 348.5 L 328 343.5 L 330 337.5 L 326 330 Q 322.7 328.7 324 333.5 L 329 365.5 L 329 375.5 L 325.5 379 L 313 384.5 L 309 443.5 L 307 454.5 L 325.5 466 L 331 471.5 Q 334.6 474.4 333 482.5 L 329.5 487 Q 320.5 492.5 303.5 490 Q 279.4 486.6 264 474.5 L 263 465.5 L 265 454.5 L 263 452.5 L 262 444.5 L 261 376 L 258 377.5 L 245 453.5 Q 240 454.5 241 461.5 L 242 472.5 Q 239 482.5 230.5 487 Q 220 497.5 199.5 498 Q 190.5 497 186 491.5 L 185 479.5 L 202 455.5 L 199 452.5 L 199 438.5 L 203 386.5 L 200.5 384 L 183.5 378 L 179 373.5 Q 182.6 342.6 190 315.5 L 170 290.5 Q 163.4 283.1 164 268.5 Q 175.5 233.5 198.5 210 Q 207.4 201.9 221.5 199 L 229 192.5 Q 216.7 187.3 208 178.5 L 202.5 171 L 192.5 175 L 187 170.5 Q 187.8 165.8 184.5 165 L 180 161.5 Q 174.5 156 175 144.5 L 180 134.5 Q 171.2 121.3 171 99.5 L 174 82.5 L 166 75.5 L 165 64.5 L 166 62.5 Q 157.9 58.6 160 44.5 L 168 34.5 Q 166.5 19.5 175.5 15 L 180.5 13 Z M 260 36 L 253 38 L 249 37 L 235 37 L 223 43 L 212 45 L 202 51 L 195 59 L 193 60 L 183 71 L 179 79 L 174 97 L 175 101 L 174 104 Q 175 123 184 134 L 186 133 L 191 134 L 194 129 L 193 118 L 193 114 Q 200 110 201 102 L 200 95 L 208 91 L 212 87 L 216 78 L 218 79 Q 226 80 231 76 L 236 69 L 244 71 Q 256 73 261 66 L 274 71 L 282 69 L 285 69 L 295 77 L 301 77 L 312 94 L 307 91 Q 301 88 301 81 L 290 77 L 283 71 L 277 73 L 268 72 L 264 69 L 254 73 L 242 72 Q 236 70 237 74 Q 232 82 218 81 L 214 88 Q 210 94 203 95 Q 204 110 195 116 L 196 118 L 195 131 L 196 141 L 194 140 Q 192 135 184 136 L 178 143 Q 177 154 182 160 L 187 163 L 193 160 L 192 162 L 188 167 L 189 170 L 194 173 L 198 172 L 200 169 Q 201 163 197 162 L 195 160 L 201 161 Q 202 171 210 177 Q 224 191 250 195 Q 284 197 300 180 Q 312 171 316 153 L 316 118 L 315 109 L 311 103 L 312 96 L 317 109 L 318 118 Q 316 122 320 121 L 323 113 L 322 109 L 324 102 L 323 91 Q 318 85 318 75 Q 313 63 304 56 L 291 45 L 281 43 L 269 37 L 260 36 Z M 322 124 L 318 127 L 319 133 L 322 133 L 323 134 L 320 137 L 319 149 L 325 150 L 330 142 L 329 129 Q 327 124 322 124 Z M 320 151 Q 316 153 317 160 L 322 161 Q 326 160 325 154 Q 324 150 320 151 Z M 231 194 Q 222 200 220 213 L 220 230 L 218 230 Q 216 214 221 205 L 220 202 L 201 212 Q 178 234 167 268 L 167 278 L 172 289 L 192 313 L 195 309 Q 202 299 214 294 L 198 271 L 195 266 L 201 268 L 207 255 L 209 254 L 205 266 L 205 277 L 216 292 L 217 297 L 224 304 L 227 312 L 213 316 Q 206 318 207 314 L 221 312 L 224 310 L 221 304 L 214 297 L 205 302 L 196 312 L 197 315 Q 198 318 194 316 L 189 330 L 182 373 Q 192 381 208 384 L 228 387 L 241 387 L 243 385 L 244 376 L 247 316 L 248 315 L 248 285 L 249 284 L 248 251 Q 245 227 238 208 L 237 197 L 236 195 Q 226 203 226 221 L 233 226 L 228 234 L 228 237 L 238 242 L 242 250 L 241 254 L 244 264 L 244 279 L 245 280 Q 246 286 242 287 Q 235 288 234 285 L 235 280 L 239 278 L 242 274 Q 243 254 232 247 L 230 245 L 234 246 L 237 251 Q 239 254 240 251 L 237 245 Q 234 240 228 240 L 224 230 Q 221 206 232 196 L 231 194 Z M 279 194 L 277 196 Q 287 203 291 216 L 295 244 L 291 245 L 285 253 Q 284 259 287 262 L 292 265 L 301 264 L 305 259 L 304 249 L 297 244 L 298 233 L 300 234 L 300 243 L 303 244 L 307 250 L 306 262 L 299 267 L 290 266 L 283 258 L 284 249 L 292 242 Q 295 228 287 226 L 290 222 Q 289 210 283 205 L 277 200 L 280 229 L 281 272 L 285 327 L 287 380 L 290 385 L 313 382 L 324 377 L 327 374 L 324 347 L 322 345 L 323 342 L 318 310 Q 314 308 317 307 L 312 278 L 312 276 L 311 270 L 311 268 L 312 265 Q 313 247 308 236 Q 307 232 310 233 L 314 248 L 314 279 L 322 319 Q 338 319 345 311 L 324 243 L 312 217 Q 305 206 292 203 L 299 225 Q 301 230 297 229 Q 296 211 287 201 L 279 194 Z M 242 196 L 239 201 L 242 206 L 263 225 L 275 205 L 272 196 L 270 197 L 242 196 Z M 241 209 Q 248 232 251 260 L 251 296 L 249 321 Q 248 326 252 327 Q 270 329 282 325 L 279 255 L 278 254 L 278 233 L 276 215 Q 278 209 275 210 L 263 228 L 241 209 Z M 228 224 L 226 226 L 228 231 L 231 227 L 228 224 Z M 240 279 L 238 280 L 236 284 L 241 285 L 243 281 L 240 279 Z M 342 316 L 326 323 L 327 329 L 336 343 L 340 341 L 339 336 Q 337 330 341 331 L 343 340 L 340 352 L 344 353 Q 349 349 350 341 L 350 332 L 345 318 L 342 316 Z M 278 328 L 277 329 L 251 329 L 249 331 L 248 340 L 245 387 L 242 389 Q 221 390 207 386 L 205 388 L 201 451 Q 206 456 216 457 Q 232 459 242 454 L 243 453 L 245 435 L 262 347 L 267 343 L 263 352 L 265 451 L 268 453 L 281 456 L 296 455 L 304 452 L 306 450 Q 306 421 310 397 L 310 387 L 309 385 Q 300 388 288 387 L 285 384 L 282 330 L 278 328 Z M 338 345 L 334 352 L 337 353 L 339 349 Q 340 344 338 345 Z M 302 455 L 292 458 Q 278 459 270 456 L 268 459 Q 276 467 291 470 Q 296 468 295 472 L 279 468 L 266 462 L 267 474 L 277 480 L 307 488 Q 320 490 328 485 L 331 481 L 329 474 L 320 465 L 310 472 Q 306 473 307 470 L 312 469 L 315 464 L 302 455 Z M 206 457 L 197 468 L 198 471 L 205 475 L 217 475 L 232 467 L 237 462 L 237 458 L 235 459 Q 217 461 206 457 Z M 238 464 Q 230 474 216 477 Q 201 479 196 472 L 195 470 L 187 483 L 188 490 L 199 495 Q 219 496 229 485 L 239 474 L 239 465 L 238 464 Z " /><path fill="rgb(9,10,10)" stroke="rgb(9,10,10)" stroke-width="0.6" opacity="1" d="M 284.5 95 Q 297.8 93.8 302 101.5 Q 303.3 105.3 299.5 104 Q 295.3 99.7 285.5 101 L 282.5 102 Q 278.3 100.3 281 98.5 L 282.5 96 L 284.5 95 Z " /><path fill="rgb(9,10,10)" stroke="rgb(9,10,10)" stroke-width="0.6" opacity="1" d="M 226.5 100 Q 232.3 99.2 234 102.5 L 234 106 L 227.5 106 Q 218 107.7 213 113 Q 212.9 105.7 218.5 103 L 226.5 100 Z " /><path fill="rgb(9,10,10)" stroke="rgb(9,10,10)" stroke-width="0.6" opacity="1" d="M 290.5 115 Q 299.5 114.5 303 119.5 Q 306.9 121.6 306 127 Q 303 128.3 304 124.5 Q 300.4 117.6 290.5 117 L 281.5 123 L 282 121.5 L 285.5 117 L 290.5 115 Z " /><path fill="rgb(9,10,10)" stroke="rgb(9,10,10)" stroke-width="0.6" opacity="1" d="M 224.5 121 Q 235.3 119.7 238 126.5 L 237.5 128 Q 235 122 225.5 123 Q 218.3 124.8 215 130.5 L 214 138 Q 210 139.4 212 132.5 L 217.5 124 L 224.5 121 Z " /><path fill="rgb(9,10,10)" stroke="rgb(9,10,10)" stroke-width="0.6" opacity="1" d="M 286.5 123 Q 297.2 121.2 299 128.5 L 300 135.5 L 295.5 143 L 288.5 144 L 282 140.5 L 279 131.5 L 286.5 123 Z M 288 125 L 286 130 L 291 131 L 292 128 L 288 125 Z " /><path fill="rgb(9,10,10)" stroke="rgb(9,10,10)" stroke-width="0.6" opacity="1" d="M 224.5 129 Q 234.3 127.3 237 132.5 L 239 141.5 L 233.5 149 L 226.5 150 L 220 144.5 L 219 136.5 L 224.5 129 Z M 227 131 L 224 135 L 229 137 L 231 134 L 227 131 Z " /><path fill="rgb(9,10,10)" stroke="rgb(9,10,10)" stroke-width="0.6" opacity="1" d="M 188 144 L 195 149.5 Q 195.8 152.9 191 151 L 192 148.5 L 188 145.5 L 188 144 Z " /><path fill="rgb(9,10,10)" stroke="rgb(9,10,10)" stroke-width="0.6" opacity="1" d="M 272.5 145 L 274 146.5 Q 277 147.5 276 152.5 Q 273.4 157.8 267 158 Q 265.8 155 269.5 156 L 274 152.5 Q 274.8 146.3 272.5 145 Z " /><path fill="rgb(9,10,10)" stroke="rgb(9,10,10)" stroke-width="0.6" opacity="1" d="M 282.5 161 L 284 164.5 L 276.5 173 Q 270.4 177.9 258.5 177 Q 245.6 174.4 239 165.5 L 243 164 L 248.5 171 Q 254.1 175.4 264.5 175 Q 275.8 173.3 281 165.5 L 282.5 161 Z " /><path fill="rgb(9,10,10)" stroke="rgb(9,10,10)" stroke-width="0.6" opacity="1" d="M 219 232 Q 222.7 230.7 221 236.5 L 222 240.5 Q 214.7 244.2 214 254.5 L 217 255.5 Q 215.1 271.9 221 280.5 L 218 282 L 215 271.5 L 212 250.5 Q 214 243 220 239.5 L 220 236.5 L 219 232 Z " /><path fill="rgb(9,10,10)" stroke="rgb(9,10,10)" stroke-width="0.6" opacity="1" d="M 223.5 245 L 225 247 L 219 251.5 Q 220 255.3 217 254 L 221.5 246 L 223.5 245 Z " /><path fill="rgb(9,10,10)" stroke="rgb(9,10,10)" stroke-width="0.6" opacity="1" d="M 298.5 249 Q 302.8 249.8 302 255.5 L 300 259 L 298 258.5 Q 301.3 257.2 300 251.5 L 298.5 249 Z " /><path fill="rgb(9,10,10)" stroke="rgb(9,10,10)" stroke-width="0.6" opacity="1" d="M 223 279 Q 227.7 278.3 229 282.5 Q 229.8 287.3 226.5 288 L 223.5 289 L 218 285.5 L 219.5 284 Q 220.2 287.8 225.5 287 L 227 283.5 L 223 281 L 223 279 Z " /><path fill="rgb(57,126,182)" stroke="rgb(57,126,182)" stroke-width="0.6" opacity="1" d="M 257.5 37 L 272.5 39 L 280.5 44 L 288.5 45 Q 298.2 48.8 304 56.5 Q 312.6 62.9 317 73.5 L 318 82.5 L 322 89.5 L 323 102.5 L 320.5 119 L 318 118.5 L 318 108.5 L 315 104.5 L 313 91.5 L 311.5 90 L 305 84.5 L 301.5 77 L 293.5 76 L 284.5 68 L 281.5 68 Q 278.8 70.8 272.5 70 L 261.5 65 Q 256.6 72.1 242.5 70 L 237.5 68 Q 232.9 78.4 217.5 78 L 215.5 77 L 212 85.5 L 206.5 91 L 199 94.5 L 200 101.5 L 194.5 112 L 192 113.5 L 193 128.5 L 192 132 L 183.5 133 Q 173.5 120 175 95.5 L 182 73.5 L 192.5 61 L 195 59.5 L 202.5 51 Q 209.1 44.1 222.5 44 L 229.5 39 L 248.5 38 L 252.5 39 L 257.5 37 Z " /><path fill="rgb(57,126,182)" stroke="rgb(57,126,182)" stroke-width="0.6" opacity="1" d="M 241.5 196 Q 251.4 200.1 267.5 198 L 271.5 197 L 274 204.5 L 262.5 224 L 241 203.5 L 240 197.5 L 241.5 196 Z " /><path fill="rgb(57,126,182)" stroke="rgb(57,126,182)" stroke-width="0.6" opacity="1" d="M 294.5 250 L 299 251.5 L 300 255.5 Q 299.3 258.8 294.5 258 Q 291.3 257.3 292 252.5 L 294.5 250 Z " /><path fill="rgb(57,126,182)" stroke="rgb(57,126,182)" stroke-width="0.6" opacity="1" d="M 212.5 298 L 220 303.5 L 223 309.5 L 218.5 311 L 216 310 L 214.5 312 Q 207.3 315 197 314 Q 197.8 305.4 205.5 302 L 212.5 298 Z " /><path fill="rgb(57,126,182)" stroke="rgb(57,126,182)" stroke-width="0.6" opacity="1" d="M 221.5 314 L 223.5 315 L 225 314.5 L 222 341.5 L 216.5 348 L 205.5 349 L 195.5 347 L 191.5 344 L 189.5 345 L 187 343.5 L 192 319.5 L 194.5 317 Q 211.2 318.7 221.5 314 Z " /><path fill="rgb(226,71,64)" stroke="rgb(226,71,64)" stroke-width="0.6" opacity="1" d="M 321.5 125 L 328 128.5 L 329 141.5 L 325.5 148 L 320 146.5 L 321.5 142 Q 324.1 142.8 323 139.5 Q 319.5 138 322 136.5 L 323.5 134 L 326 132.5 L 322.5 131 L 320 130.5 L 321.5 125 Z " /><path fill="rgb(226,71,64)" stroke="rgb(226,71,64)" stroke-width="0.6" opacity="1" d="M 295.5 205 Q 305.5 208.5 311 216.5 L 320 234.5 L 344 308.5 L 342.5 312 Q 336 317.5 324.5 318 L 322 315.5 L 315 278.5 L 315 246.5 L 311 233.5 L 308.5 231 L 307 235.5 Q 313.2 248.3 311 269.5 L 310 273.5 L 316 305.5 L 298 310.5 L 300 335.5 L 304.5 345 Q 308 349 317.5 347 L 321.5 346 L 323 347.5 L 326 373.5 Q 313.5 384 290.5 384 L 288 378.5 L 288 360.5 L 287 359.5 L 282 261 L 284 262.5 Q 286.9 270.1 299.5 268 L 307 261.5 L 308 249.5 L 301 241.5 Q 301.9 219.6 294 206.5 L 295.5 205 Z " /><path fill="rgb(226,71,64)" stroke="rgb(226,71,64)" stroke-width="0.6" opacity="1" d="M 224.5 237 L 227.5 241 L 230 241.5 L 221 245 L 224.5 237 Z " /><path fill="rgb(226,71,64)" stroke="rgb(226,71,64)" stroke-width="0.6" opacity="1" d="M 205.5 458 L 226.5 461 L 235 460 L 228.5 468 L 215.5 474 L 205.5 474 L 199 470.5 L 198 467.5 L 205.5 458 Z " /><path fill="rgb(226,71,64)" stroke="rgb(226,71,64)" stroke-width="0.6" opacity="1" d="M 267 463 Q 280.8 473.5 305.5 474 Q 314.1 473.1 317.5 467 L 320.5 467 L 328 473.5 L 330 480.5 L 327.5 484 Q 320.5 488 308.5 487 Q 284.4 484.1 268 473.5 L 267 463 Z " /><path fill="rgb(243,234,212)" stroke="rgb(243,234,212)" stroke-width="0.6" opacity="1" d="M 293.5 245 L 300 246.5 Q 291.8 246 289 250 L 289 259 L 293.5 261 L 296.5 262 L 299.5 260 L 302 261.5 L 297.5 264 L 292.5 264 L 286 256.5 L 286 253.5 L 290.5 246 L 293.5 245 Z " /><path fill="rgb(243,234,212)" stroke="rgb(243,234,212)" stroke-width="0.6" opacity="1" d="M 226.5 247 Q 232.9 247.1 235 251.5 L 240 262.5 L 240 274.5 L 233 280.5 Q 231.8 286.8 235.5 288 Q 244.2 289 247 285 L 246 329.5 L 242 383.5 L 240.5 385 L 231.5 386 L 203.5 382 Q 191.1 379.4 183 372.5 L 186 351.5 L 188.5 346 Q 197.6 353.4 216.5 351 L 223 345.5 L 226 334.5 L 228 309.5 L 220.5 298 L 218 296.5 L 218 292.5 L 206 276.5 L 206 268.5 L 210 257 L 212 258.5 L 214 272.5 L 217 279.5 L 217 286.5 L 219.5 289 L 225.5 290 L 230 286.5 Q 231.3 280.3 227.5 279 L 220 275.5 Q 217.1 268.9 218 258.5 L 222 249 L 226.5 247 Z " /><path fill="rgb(243,234,212)" stroke="rgb(243,234,212)" stroke-width="0.6" opacity="1" d="M 340.5 318 L 345 320.5 Q 349.4 327.1 349 338.5 Q 348.4 346.9 343.5 351 Q 339.8 352.3 341 348.5 Q 344.5 345 344 337.5 L 340.5 329 Q 335.8 327.9 338 336.5 L 339 340.5 L 335.5 342 L 328 327.5 L 328 323.5 L 340.5 318 Z " /><path fill="rgb(243,234,212)" stroke="rgb(243,234,212)" stroke-width="0.6" opacity="1" d="M 236.5 466 L 238 472.5 L 230.5 482 L 215.5 492 L 199.5 494 Q 192 493.5 189 488.5 L 188 483.5 Q 189.4 476 194.5 472 Q 199.9 480.6 216.5 478 L 236 468 L 236.5 466 Z " /><path fill="rgb(42,43,44)" stroke="rgb(42,43,44)" stroke-width="0.6" opacity="1" d="M 310.5 90 Q 314 91 313 96.5 L 311 96.5 L 310.5 101 L 310 94 L 312 92.5 L 310.5 90 Z " /><path fill="rgb(42,43,44)" stroke="rgb(42,43,44)" stroke-width="0.6" opacity="1" d="M 284.5 120 L 281 124.5 Q 282 128.3 279 127 L 282 122.5 L 281.5 121 Q 283 123.5 284.5 120 Z " /><path fill="rgb(42,43,44)" stroke="rgb(42,43,44)" stroke-width="0.6" opacity="1" d="M 242.5 205 L 250.5 214 L 242.5 205 Z " /><path fill="rgb(42,43,44)" stroke="rgb(42,43,44)" stroke-width="0.6" opacity="1" d="M 200.5 212 L 195.5 218 L 200.5 212 Z " /><path fill="rgb(42,43,44)" stroke="rgb(42,43,44)" stroke-width="0.6" opacity="1" d="M 293.5 248 Q 299.8 246.8 301 250.5 Q 299.3 253.8 297.5 250 L 292.5 252 L 293.5 248 Z " /><path fill="rgb(42,43,44)" stroke="rgb(42,43,44)" stroke-width="0.6" opacity="1" d="M 290.5 257 L 293.5 259 L 295.5 259 L 298 259.5 L 295.5 261 L 290.5 257 Z " /><path fill="rgb(42,43,44)" stroke="rgb(42,43,44)" stroke-width="0.6" opacity="1" d="M 248.5 261 L 249 283.5 L 248 283.5 L 248.5 261 Z " /><path fill="rgb(42,43,44)" stroke="rgb(42,43,44)" stroke-width="0.6" opacity="1" d="M 194.5 265 L 194 266.5 L 197.5 271 L 193 266.5 L 194.5 265 Z " /><path fill="rgb(42,43,44)" stroke="rgb(42,43,44)" stroke-width="0.6" opacity="1" d="M 204.5 302 L 197.5 310 L 204.5 302 Z " /><path fill="rgb(42,43,44)" stroke="rgb(42,43,44)" stroke-width="0.6" opacity="1" d="M 196.5 313 L 207 314 L 208.5 316 L 208.5 317 L 195 316.5 L 197 316 L 196.5 313 Z " /><path fill="rgb(42,43,44)" stroke="rgb(42,43,44)" stroke-width="0.6" opacity="1" d="M 255.5 329 L 269 329.5 L 255.5 330 L 255.5 329 Z " /><path fill="rgb(42,43,44)" stroke="rgb(42,43,44)" stroke-width="0.6" opacity="1" d="M 302.5 338 L 307 344.5 L 302 340.5 L 302.5 338 Z " /><path fill="rgb(42,43,44)" stroke="rgb(42,43,44)" stroke-width="0.6" opacity="1" d="M 236.5 461 L 231.5 467 L 236.5 461 Z " /><path fill="rgb(73,75,75)" stroke="rgb(73,75,75)" stroke-width="0.6" opacity="1" d="M 235.5 37 L 248 37.5 L 235.5 38 L 235.5 37 Z " /><path fill="rgb(73,75,75)" stroke="rgb(73,75,75)" stroke-width="0.6" opacity="1" d="M 238.5 126 L 242 134 Q 239 135.3 240 131.5 Q 236.5 130 239 128.5 L 238.5 126 Z " /><path fill="rgb(73,75,75)" stroke="rgb(73,75,75)" stroke-width="0.6" opacity="1" d="M 241.5 167 L 246.5 173 L 241.5 167 Z " /><path fill="rgb(73,75,75)" stroke="rgb(73,75,75)" stroke-width="0.6" opacity="1" d="M 251.5 214 L 258.5 222 L 251.5 214 Z " /><path fill="rgb(73,75,75)" stroke="rgb(73,75,75)" stroke-width="0.6" opacity="1" d="M 299.5 256 L 298.5 259 L 300.5 258 L 299.5 260 L 297.5 261 L 297.5 259 L 295 258.5 L 299.5 256 Z " /><path fill="rgb(73,75,75)" stroke="rgb(73,75,75)" stroke-width="0.6" opacity="1" d="M 300 328 L 302 329.5 L 302 331.5 L 303 336 Q 300 337.3 301 333.5 L 300 328 Z " /><path fill="rgb(73,75,75)" stroke="rgb(73,75,75)" stroke-width="0.6" opacity="1" d="M 304.5 341 Q 305.9 345.8 311 345 L 310.5 347 L 307 346 L 306.5 344 Q 304.8 346.8 303 342.5 L 304.5 341 Z " /><path fill="rgb(73,75,75)" stroke="rgb(73,75,75)" stroke-width="0.6" opacity="1" d="M 217.5 347 L 218.5 349 L 217 348.5 Q 217.9 351.5 213.5 350 L 211 351 L 212.5 349 L 217.5 347 Z " /><path fill="rgb(73,75,75)" stroke="rgb(73,75,75)" stroke-width="0.6" opacity="1" d="M 259 376 L 261 376.5 L 261 384.5 L 260 384.5 L 260 380 L 258 378.5 L 259 376 Z " /><path fill="rgb(73,75,75)" stroke="rgb(73,75,75)" stroke-width="0.6" opacity="1" d="M 263.5 376 L 264 386.5 L 263 386.5 L 263.5 376 Z " /><path fill="rgb(111,112,111)" stroke="rgb(111,112,111)" stroke-width="0.6" opacity="1" d="M 254.5 221 L 259.5 227 L 254.5 221 Z " /><path fill="rgb(111,112,111)" stroke="rgb(111,112,111)" stroke-width="0.6" opacity="1" d="M 294.5 232 L 296 241.5 L 294 240.5 L 294.5 232 Z " /><path fill="rgb(111,112,111)" stroke="rgb(111,112,111)" stroke-width="0.6" opacity="1" d="M 251.5 267 L 252 280.5 L 251 280.5 L 251.5 267 Z " /><path fill="rgb(111,112,111)" stroke="rgb(111,112,111)" stroke-width="0.6" opacity="1" d="M 255.5 326 L 269 326.5 L 255.5 327 L 255.5 326 Z " /><path fill="rgb(219,174,134)" stroke="rgb(219,174,134)" stroke-width="0.6" opacity="1" d="M 320.5 151 L 324 153.5 L 323.5 158 L 321 157 L 319.5 154 L 318 154.5 L 320.5 151 Z " /><path fill="rgb(219,174,134)" stroke="rgb(219,174,134)" stroke-width="0.6" opacity="1" d="M 234.5 197 Q 237.3 196.4 236 202.5 L 237 204.5 L 236 204.5 L 234.5 200 L 233.5 202 L 232 199.5 L 234.5 197 Z " /><path fill="rgb(219,174,134)" stroke="rgb(219,174,134)" stroke-width="0.6" opacity="1" d="M 278 202 L 282 204.5 L 284 207.5 L 281.5 209 L 280 208.5 L 279.5 214 L 278 202 Z " /><path fill="rgb(219,174,134)" stroke="rgb(219,174,134)" stroke-width="0.6" opacity="1" d="M 227.5 211 L 228 221 L 231 222.5 L 229.5 222 L 227 220.5 L 227.5 211 Z " /><path fill="rgb(219,174,134)" stroke="rgb(219,174,134)" stroke-width="0.6" opacity="1" d="M 245.5 213 L 247.5 217 Q 249.3 214.2 251 218.5 L 248 217.5 L 246 219 L 246 222.5 L 245 222.5 L 243 214.5 L 244.5 215 L 246 214.5 L 245.5 213 Z " /><path fill="rgb(219,174,134)" stroke="rgb(219,174,134)" stroke-width="0.6" opacity="1" d="M 271.5 217 L 271 218.5 L 267 227 L 265 226.5 L 271.5 217 Z " /><path fill="rgb(219,174,134)" stroke="rgb(219,174,134)" stroke-width="0.6" opacity="1" d="M 280.5 224 Q 283.9 233.1 282 247.5 L 281 247.5 L 281 231.5 L 280 230.5 L 280 228.5 L 280.5 224 Z " /><path fill="rgb(219,174,134)" stroke="rgb(219,174,134)" stroke-width="0.6" opacity="1" d="M 275.5 225 L 277 237.5 L 276 237.5 L 275.5 225 Z " /><path fill="rgb(219,174,134)" stroke="rgb(219,174,134)" stroke-width="0.6" opacity="1" d="M 229.5 233 L 231.5 237 L 237 240.5 L 234.5 239 L 229 236.5 L 229.5 233 Z " /><path fill="rgb(219,174,134)" stroke="rgb(219,174,134)" stroke-width="0.6" opacity="1" d="M 288 241 L 290 241.5 L 284 246.5 L 285.5 244 L 288 242.5 L 288 241 Z " /><path fill="rgb(219,174,134)" stroke="rgb(219,174,134)" stroke-width="0.6" opacity="1" d="M 240.5 244 L 243.5 245 L 246 244 L 247 256 L 243 258 Q 244.6 247.5 240.5 244 Z " /><path fill="rgb(219,174,134)" stroke="rgb(219,174,134)" stroke-width="0.6" opacity="1" d="M 247.5 261 L 248 278.5 L 247 278.5 L 246.5 273 L 245.5 279 L 245 264.5 L 246 264.5 L 246.5 267 L 247.5 261 Z " /><path fill="rgb(219,174,134)" stroke="rgb(219,174,134)" stroke-width="0.6" opacity="1" d="M 252.5 268 L 253 279.5 L 252 279.5 L 252.5 268 Z " /><path fill="rgb(219,174,134)" stroke="rgb(219,174,134)" stroke-width="0.6" opacity="1" d="M 251.5 296 L 252 309.5 L 251 309.5 L 251.5 296 Z " /><path fill="rgb(219,174,134)" stroke="rgb(219,174,134)" stroke-width="0.6" opacity="1" d="M 279.5 309 L 281 319.5 L 280 319.5 L 279.5 309 Z " /><path fill="rgb(219,174,134)" stroke="rgb(219,174,134)" stroke-width="0.6" opacity="1" d="M 251.5 311 L 252 322.5 L 252.5 325 L 254 325.5 L 251.5 326 L 250 320.5 L 251.5 311 Z " /><path fill="rgb(219,174,134)" stroke="rgb(219,174,134)" stroke-width="0.6" opacity="1" d="M 281.5 333 L 282 349.5 L 281 349.5 L 281.5 333 Z " /><path fill="rgb(219,174,134)" stroke="rgb(219,174,134)" stroke-width="0.6" opacity="1" d="M 249.5 345 L 250 354.5 L 248.5 358 L 248 354.5 L 249.5 345 Z " /><path fill="rgb(219,174,134)" stroke="rgb(219,174,134)" stroke-width="0.6" opacity="1" d="M 247.5 366 L 248 381.5 L 246.5 384 L 246 379.5 L 247.5 366 Z " /><path fill="rgb(219,174,134)" stroke="rgb(219,174,134)" stroke-width="0.6" opacity="1" d="M 264.5 380 L 266 389.5 L 266 426.5 L 265 426.5 L 264.5 380 Z " /><path fill="rgb(219,174,134)" stroke="rgb(219,174,134)" stroke-width="0.6" opacity="1" d="M 308.5 390 L 309 395.5 L 307.5 403 L 307 396.5 L 308.5 390 Z " /><path fill="rgb(219,174,134)" stroke="rgb(219,174,134)" stroke-width="0.6" opacity="1" d="M 205.5 407 L 206 415.5 L 204.5 419 L 204 415.5 L 205.5 407 Z " /><path fill="rgb(219,174,134)" stroke="rgb(219,174,134)" stroke-width="0.6" opacity="1" d="M 203.5 430 L 204 445.5 L 203 450.5 L 203.5 452 Q 200.5 450.5 202 444.5 L 203.5 430 Z " /><path fill="rgb(219,174,134)" stroke="rgb(219,174,134)" stroke-width="0.6" opacity="1" d="M 242.5 444 L 243 446.5 L 242 451.5 L 239.5 454 L 241 451.5 Q 239.5 445.5 242.5 444 Z " /><path fill="rgb(121,92,69)" stroke="rgb(121,92,69)" stroke-width="0.6" opacity="1" d="M 304.5 129 L 305 132 L 307 133.5 L 304.5 138 L 304.5 129 Z " /><path fill="rgb(121,92,69)" stroke="rgb(121,92,69)" stroke-width="0.6" opacity="1" d="M 281.5 168 L 276.5 174 L 281.5 168 Z " /><path fill="rgb(121,92,69)" stroke="rgb(121,92,69)" stroke-width="0.6" opacity="1" d="M 207.5 172 L 215.5 181 L 207.5 172 Z " /><path fill="rgb(214,212,207)" stroke="rgb(214,212,207)" stroke-width="0.6" opacity="1" d="M 238.5 130 L 241 138 Q 237.7 139.3 239 134.5 Q 235.5 133 238 131.5 L 238.5 130 Z " /><path fill="rgb(214,212,207)" stroke="rgb(214,212,207)" stroke-width="0.6" opacity="1" d="M 287.5 203 L 287.5 205 L 290 206.5 L 293 212.5 L 290 212.5 L 288 207.5 L 288.5 206 L 286 204.5 L 287.5 203 Z " /><path fill="rgb(214,212,207)" stroke="rgb(214,212,207)" stroke-width="0.6" opacity="1" d="M 246 280 Q 250 278.7 248 285 L 243.5 287 L 246 283.5 L 246 280 Z " /><path fill="rgb(181,180,178)" stroke="rgb(181,180,178)" stroke-width="0.6" opacity="1" d="M 285.5 120 L 287 120.5 L 284 122.5 Q 286.8 124.3 282.5 126 L 282 124.5 L 285.5 120 Z " /><path fill="rgb(181,180,178)" stroke="rgb(181,180,178)" stroke-width="0.6" opacity="1" d="M 226.5 199 Q 229.5 200.5 226.5 202 L 225 202.5 L 226 204.5 L 223 204.5 L 226.5 199 Z " /><path fill="rgb(169,67,60)" stroke="rgb(169,67,60)" stroke-width="0.6" opacity="1" d="M 300.5 231 L 301 241.5 L 303 243.5 L 300 241.5 L 300.5 231 Z " /><path fill="rgb(169,67,60)" stroke="rgb(169,67,60)" stroke-width="0.6" opacity="1" d="M 235.5 461 L 230.5 467 L 235.5 461 Z " /></svg>