<svg width="1254" height="1254" preserveAspectRatio="xMidYMid meet" viewBox="0 0 512 512" version="1.1" xmlns="http://www.w3.org/2000/svg" ><path fill="rgb(255,255,255)" stroke="rgb(255,255,255)" stroke-width="0.6" opacity="1" d="M 0 0 L 512 0 L 512 512 L 0 512 L 0 0 Z M 233 36 Q 221 40 207 40 L 173 51 L 141 67 L 109 91 Q 73 122 52 168 L 37 216 L 36 237 L 34 246 L 34 269 L 37 297 L 40 303 L 40 310 L 44 320 L 44 324 L 61 363 L 90 405 Q 115 434 151 452 L 188 468 Q 197 468 202 472 L 214 473 L 222 476 L 235 477 L 287 476 L 323 468 Q 327 464 335 464 L 339 461 L 346 460 L 349 457 L 354 456 L 368 448 L 392 432 L 405 421 Q 424 403 440 382 L 461 344 L 473 309 Q 472 299 476 296 L 477 276 L 479 268 L 479 246 Q 475 239 477 226 L 465 181 L 445 140 L 417 104 Q 398 84 375 68 L 351 55 L 338 51 L 334 48 Q 326 48 322 44 L 313 43 L 308 40 Q 293 40 282 36 L 233 36 Z " /><path fill="rgb(224,62,58)" stroke="rgb(224,62,58)" stroke-width="0.6" opacity="1" d="M 350.5 74 Q 383.5 86 404 110.5 L 429 142.5 L 450 182.5 L 448 181.5 Q 437.8 164.2 422.5 152 L 393.5 131 L 362 116.5 L 363 111.5 L 358 96.5 L 344.5 81 L 342 79.5 L 350.5 74 Z M 352 81 L 355 88 L 358 89 L 361 95 Q 364 95 362 89 L 365 88 L 366 86 L 362 87 L 352 81 Z M 367 105 L 367 114 L 369 115 L 371 114 L 369 109 Q 370 104 367 105 Z M 414 129 L 409 138 L 417 142 L 418 145 L 421 146 L 422 149 L 430 153 L 414 129 Z " /><path fill="rgb(224,62,58)" stroke="rgb(224,62,58)" stroke-width="0.6" opacity="1" d="M 254.5 138 L 259.5 139 L 274.5 149 L 290.5 155 L 306.5 158 L 315.5 158 L 320.5 157 L 330 182.5 L 339 222.5 Q 338.5 235.5 342 244.5 L 343 292.5 L 338 337.5 L 324 386.5 Q 314.8 410.3 301 429.5 L 278.5 454 L 266.5 462 L 225.5 462 L 211.5 458 L 204.5 458 L 196.5 454 L 190.5 454 L 184.5 450 L 179.5 450 L 173.5 446 L 169.5 446 L 146.5 434 L 129 419.5 L 121 402.5 L 118 383.5 L 118 364.5 L 121 334.5 L 128 306.5 Q 138.5 274.5 154 247.5 Q 181.3 200.8 219.5 165 L 254.5 138 Z M 315 162 L 312 167 L 317 171 L 319 172 L 318 164 L 315 162 Z M 195 199 L 190 205 L 191 207 L 196 200 L 195 199 Z M 185 209 L 182 215 L 184 216 L 188 211 Q 189 207 185 209 Z M 162 246 L 158 250 Q 156 254 160 253 L 163 249 Q 164 245 162 246 Z " /><path fill="rgb(56,128,189)" stroke="rgb(56,128,189)" stroke-width="0.6" opacity="1" d="M 242.5 49 L 266.5 49 L 279 60.5 L 277.5 64 Q 256.7 66.2 247 79.5 L 245.5 82 L 241.5 83 L 228.5 79 L 191.5 78 L 190.5 79 L 177.5 79 L 154.5 84 L 127 95 Q 125.5 91.3 128.5 92 L 162.5 70 L 181.5 62 L 201.5 57 L 207.5 54 Q 219.5 54 227.5 50 L 241.5 50 L 242.5 49 Z " /><path fill="rgb(56,128,189)" stroke="rgb(56,128,189)" stroke-width="0.6" opacity="1" d="M 359.5 129 L 374.5 134 L 393.5 144 L 422 167.5 Q 445.3 189.7 458 222.5 L 464 247.5 L 464 271.5 Q 460.4 279.4 462 292.5 Q 458.2 300.2 458 311.5 L 450 335.5 Q 432.5 376 403.5 405 L 377.5 426 L 342.5 446 L 313.5 457 Q 298.7 458 288 462 L 291.5 457 L 303 446.5 L 325 414.5 L 336 391.5 L 346 363.5 L 346 357.5 L 349 350.5 L 355 311.5 Q 354.1 299.1 357 290.5 L 357 259.5 L 355 252.5 L 354 232.5 L 349 203.5 L 341 174.5 L 333 153.5 Q 346.3 148.8 354 138.5 L 359.5 129 Z " /><path fill="rgb(246,193,49)" stroke="rgb(246,193,49)" stroke-width="0.6" opacity="1" d="M 287 52 L 294.5 55 L 297.5 54 L 304.5 55 L 309.5 58 L 321.5 59 L 325.5 62 L 338 65 L 336.5 69 Q 333.2 72.2 325.5 71 L 319.5 67 L 314.5 67 L 305.5 63 L 295.5 63 L 287 54.5 L 287 52 Z " /><path fill="rgb(246,193,49)" stroke="rgb(246,193,49)" stroke-width="0.6" opacity="1" d="M 183.5 90 L 218.5 90 L 234.5 92 L 238 94.5 L 237 100.5 L 238 110.5 L 246 128.5 Q 218.9 145.9 197 168.5 Q 151.1 214.6 123 278.5 L 118 295.5 L 115 299.5 L 115 304.5 L 108 325.5 L 107 338.5 L 104 346.5 L 103 356.5 L 103 377.5 L 104 388.5 L 107 399 L 102 395.5 L 79 364.5 L 61 325.5 L 53 296.5 L 52 281.5 L 50 274.5 L 50 238.5 L 56 203.5 L 65 176.5 L 79 148.5 Q 88.2 133.2 101.5 122 L 119.5 110 L 143.5 99 L 183.5 90 Z M 231 98 L 229 100 L 230 108 L 233 109 L 233 99 L 231 98 Z M 96 366 L 95 370 L 91 372 L 94 379 Q 96 383 98 380 L 98 367 L 96 366 Z " /><path fill="rgb(7,7,7)" stroke="rgb(7,7,7)" stroke-width="0.6" opacity="1" d="M 250.5 39 L 297.5 43 Q 303.8 47.2 314.5 47 L 319.5 50 L 324.5 50 L 331.5 54 L 346.5 58 L 381.5 78 L 419 112.5 Q 433.9 128.6 445 148.5 L 461 183.5 L 462 190.5 L 466 199.5 L 466 205.5 L 469 212.5 L 469 218.5 L 473 232.5 L 474 272.5 L 473 282.5 L 470 290.5 L 469 303.5 L 457 340.5 L 438 376.5 Q 421.6 399.1 401.5 418 L 369.5 442 L 366.5 442 L 355.5 450 L 352.5 450 L 339.5 457 L 332.5 458 L 328.5 461 L 320.5 462 L 316.5 465 L 306.5 466 L 300.5 469 L 285.5 470 L 273.5 473 L 236.5 473 L 226.5 470 L 216.5 470 L 194.5 465 L 164.5 454 L 128.5 434 L 98 406.5 Q 70.8 376.2 54 335.5 L 43 297.5 L 40 278.5 L 39 252.5 L 40 251.5 L 40 234.5 L 44 210.5 L 48 194.5 L 59 164.5 Q 79.5 123.5 111.5 94 L 144.5 70 L 174.5 55 L 181.5 54 L 185.5 51 Q 194.2 51.2 198.5 47 L 210.5 46 L 215.5 43 L 237.5 42 L 250.5 39 Z M 246 44 Q 235 48 220 47 L 209 51 L 202 51 L 194 55 L 188 55 L 183 59 L 177 59 L 146 75 L 118 95 L 113 101 L 115 103 L 120 103 L 145 91 L 187 82 L 222 82 L 235 85 Q 239 84 238 87 Q 223 88 211 84 L 186 85 L 153 91 L 121 104 L 93 123 L 76 144 L 60 174 L 55 191 L 52 196 L 44 237 L 44 278 L 48 295 L 48 303 L 52 312 L 52 317 L 56 329 L 76 370 L 99 400 L 102 401 L 103 404 L 112 410 L 115 408 L 111 398 Q 112 389 109 384 L 109 356 L 113 330 Q 120 298 132 272 Q 158 215 199 174 Q 223 149 252 130 L 252 125 L 248 121 L 243 108 L 244 87 L 248 86 L 249 84 L 259 74 L 267 70 L 281 68 L 285 65 L 275 51 L 269 45 L 246 44 Z M 281 47 L 279 49 L 280 53 L 289 65 L 294 67 L 313 70 L 328 77 L 333 77 L 342 71 Q 346 70 345 65 L 337 59 L 333 59 L 326 55 L 321 55 L 312 51 L 305 51 L 292 47 L 281 47 Z M 351 68 L 343 74 L 338 75 Q 334 76 335 81 L 342 85 L 354 101 L 358 121 Q 392 132 417 153 L 437 174 L 459 205 L 461 204 L 461 196 Q 457 192 457 185 L 454 182 L 453 176 L 437 145 L 409 109 L 407 107 L 405 105 L 375 79 L 361 71 L 351 68 Z M 277 71 L 259 79 Q 251 85 247 96 L 247 108 L 256 124 Q 267 135 283 142 L 291 145 L 306 147 Q 327 148 340 141 Q 349 134 354 122 L 353 109 L 343 92 Q 333 80 318 75 L 302 71 L 277 71 Z M 357 125 L 351 137 L 341 146 Q 331 146 328 152 L 333 164 L 345 206 L 350 236 Q 349 250 352 260 L 352 294 Q 349 304 350 319 L 342 361 Q 328 411 299 446 L 280 462 L 282 466 L 298 465 L 308 461 L 316 461 L 320 458 L 327 457 L 331 454 L 346 449 L 359 441 L 362 441 L 386 425 L 405 409 L 417 395 L 420 393 L 433 376 L 453 340 L 465 302 Q 464 285 469 275 L 469 246 L 466 240 L 465 229 L 461 222 L 461 218 Q 449 191 430 171 Q 414 152 393 139 L 366 126 L 357 125 Z M 255 132 Q 233 145 216 162 L 214 165 L 212 166 L 210 169 L 208 170 Q 164 212 136 271 L 119 318 L 119 323 L 115 336 L 115 346 L 113 351 L 112 363 L 112 381 L 116 405 L 124 423 L 149 441 L 152 441 L 165 449 Q 172 448 174 453 L 178 453 L 184 457 L 188 457 L 197 461 L 202 461 L 212 465 L 223 465 L 233 468 L 246 469 L 267 468 L 286 454 Q 315 427 330 387 L 338 362 L 339 351 L 342 345 Q 341 335 345 331 L 347 301 L 349 294 L 349 264 L 347 257 L 345 224 L 334 177 L 325 154 L 323 151 L 294 150 L 273 142 L 262 134 L 255 132 Z " /><path fill="rgb(78,153,84)" stroke="rgb(78,153,84)" stroke-width="0.6" opacity="1" d="M 289.5 74 L 316.5 79 Q 331 84 340 94.5 Q 349.5 102 349 119.5 Q 346.1 131.1 337.5 137 L 322.5 142 L 307.5 143 L 287.5 139 L 277.5 135 L 259 120.5 L 252 107.5 L 251 98.5 Q 254.1 88.1 261.5 82 L 271.5 77 L 289.5 74 Z " /><path fill="rgb(37,37,37)" stroke="rgb(37,37,37)" stroke-width="0.6" opacity="1" d="M 256.5 39 L 286 41.5 L 279.5 42 L 256.5 40 L 256.5 39 Z " /><path fill="rgb(37,37,37)" stroke="rgb(37,37,37)" stroke-width="0.6" opacity="1" d="M 237.5 40 L 243 40.5 Q 237.1 43.1 227.5 42 L 227.5 41 L 237.5 40 Z " /><path fill="rgb(37,37,37)" stroke="rgb(37,37,37)" stroke-width="0.6" opacity="1" d="M 213.5 43 L 215 43.5 Q 212.4 46.9 205.5 46 L 205.5 45 L 213.5 43 Z " /><path fill="rgb(37,37,37)" stroke="rgb(37,37,37)" stroke-width="0.6" opacity="1" d="M 298.5 43 L 309 45.5 L 304.5 46 L 298.5 44 L 298.5 43 Z " /><path fill="rgb(37,37,37)" stroke="rgb(37,37,37)" stroke-width="0.6" opacity="1" d="M 245.5 44 L 268.5 45 L 275 50.5 L 280 56.5 L 274 51.5 L 270.5 47 L 245.5 45 L 238.5 46 L 238.5 45 L 245.5 44 Z " /><path fill="rgb(37,37,37)" stroke="rgb(37,37,37)" stroke-width="0.6" opacity="1" d="M 219.5 47 L 227 47.5 L 212.5 50 L 212.5 49 L 219.5 47 Z " /><path fill="rgb(37,37,37)" stroke="rgb(37,37,37)" stroke-width="0.6" opacity="1" d="M 185.5 50 L 188 50.5 L 178.5 54 L 178.5 53 L 185.5 50 Z " /><path fill="rgb(37,37,37)" stroke="rgb(37,37,37)" stroke-width="0.6" opacity="1" d="M 325.5 50 L 334 53.5 L 331.5 54 L 325.5 50 Z " /><path fill="rgb(37,37,37)" stroke="rgb(37,37,37)" stroke-width="0.6" opacity="1" d="M 201.5 51 L 206 51.5 L 194.5 55 L 194.5 54 L 201.5 51 Z " /><path fill="rgb(37,37,37)" stroke="rgb(37,37,37)" stroke-width="0.6" opacity="1" d="M 336.5 54 L 346 57.5 L 342.5 58 L 336.5 54 Z " /><path fill="rgb(37,37,37)" stroke="rgb(37,37,37)" stroke-width="0.6" opacity="1" d="M 187.5 55 L 192 55.5 Q 185.8 55.3 183.5 59 L 185.5 56 L 187.5 55 Z " /><path fill="rgb(37,37,37)" stroke="rgb(37,37,37)" stroke-width="0.6" opacity="1" d="M 322.5 55 L 332 58.5 L 330.5 59 L 322.5 56 L 322.5 55 Z " /><path fill="rgb(37,37,37)" stroke="rgb(37,37,37)" stroke-width="0.6" opacity="1" d="M 176.5 59 L 181 59.5 L 171.5 63 L 171.5 62 L 176.5 59 Z " /><path fill="rgb(37,37,37)" stroke="rgb(37,37,37)" stroke-width="0.6" opacity="1" d="M 341.5 62 L 345 64.5 Q 345.8 70.3 341.5 71 L 339.5 72 L 340.5 70 L 344 67.5 L 341.5 62 Z " /><path fill="rgb(37,37,37)" stroke="rgb(37,37,37)" stroke-width="0.6" opacity="1" d="M 167.5 63 L 170 63.5 L 162.5 67 L 162.5 66 L 167.5 63 Z " /><path fill="rgb(37,37,37)" stroke="rgb(37,37,37)" stroke-width="0.6" opacity="1" d="M 350.5 68 L 357 70.5 L 355.5 71 L 349.5 70 L 343.5 74 L 345.5 71 L 350.5 68 Z " /><path fill="rgb(37,37,37)" stroke="rgb(37,37,37)" stroke-width="0.6" opacity="1" d="M 142.5 70 L 144 70.5 L 127.5 82 L 129.5 79 L 142.5 70 Z " /><path fill="rgb(37,37,37)" stroke="rgb(37,37,37)" stroke-width="0.6" opacity="1" d="M 370.5 70 Q 395.2 85.8 415 106.5 Q 437 129 451 159.5 L 450 159.5 Q 431.5 120.5 400.5 94 Q 388.9 81 372.5 73 L 370.5 70 Z " /><path fill="rgb(37,37,37)" stroke="rgb(37,37,37)" stroke-width="0.6" opacity="1" d="M 335.5 73 L 332.5 77 L 325 75.5 L 326.5 75 L 331.5 76 L 335.5 73 Z " /><path fill="rgb(37,37,37)" stroke="rgb(37,37,37)" stroke-width="0.6" opacity="1" d="M 257.5 74 L 249 83.5 L 247.5 86 L 244 87 L 243.5 97 Q 244.3 90.7 240.5 89 L 230 87.5 L 238 87 L 239.5 85 L 245.5 86 L 252.5 78 L 257.5 74 Z " /><path fill="rgb(37,37,37)" stroke="rgb(37,37,37)" stroke-width="0.6" opacity="1" d="M 145.5 75 L 147 75.5 L 129.5 88 L 133.5 83 L 145.5 75 Z " /><path fill="rgb(37,37,37)" stroke="rgb(37,37,37)" stroke-width="0.6" opacity="1" d="M 315.5 75 L 324 78.5 L 322.5 79 L 315.5 75 Z " /><path fill="rgb(37,37,37)" stroke="rgb(37,37,37)" stroke-width="0.6" opacity="1" d="M 337.5 75 L 339 75.5 L 336 77.5 L 337 81.5 L 335 80.5 Q 334.3 75.8 337.5 75 Z " /><path fill="rgb(37,37,37)" stroke="rgb(37,37,37)" stroke-width="0.6" opacity="1" d="M 366.5 75 L 378 82.5 L 375.5 81 Q 368.8 79.3 366.5 75 Z " /><path fill="rgb(37,37,37)" stroke="rgb(37,37,37)" stroke-width="0.6" opacity="1" d="M 258.5 79 L 260 79.5 L 249 92.5 L 248 107.5 L 252 115.5 L 250 114.5 Q 245.2 108.3 247 95.5 Q 250.7 85.2 258.5 79 Z " /><path fill="rgb(37,37,37)" stroke="rgb(37,37,37)" stroke-width="0.6" opacity="1" d="M 327.5 80 L 343 91.5 L 346 95.5 L 342 92.5 L 338.5 88 L 328.5 82 L 327.5 80 Z " /><path fill="rgb(37,37,37)" stroke="rgb(37,37,37)" stroke-width="0.6" opacity="1" d="M 189.5 81 L 219 81.5 L 189.5 82 L 189.5 81 Z " /><path fill="rgb(37,37,37)" stroke="rgb(37,37,37)" stroke-width="0.6" opacity="1" d="M 338.5 82 L 347 89.5 Q 355.6 95.9 357 109.5 L 356 109.5 L 354 100.5 L 341.5 85 L 338.5 82 Z " /><path fill="rgb(37,37,37)" stroke="rgb(37,37,37)" stroke-width="0.6" opacity="1" d="M 379.5 83 L 405 104.5 L 406.5 107 L 409 108.5 L 433 139.5 L 430 137.5 Q 413.6 111.4 390.5 92 Q 382.5 88.7 379.5 83 Z " /><path fill="rgb(37,37,37)" stroke="rgb(37,37,37)" stroke-width="0.6" opacity="1" d="M 195.5 84 L 211 84.5 L 195.5 85 L 195.5 84 Z " /><path fill="rgb(37,37,37)" stroke="rgb(37,37,37)" stroke-width="0.6" opacity="1" d="M 121.5 85 L 118.5 89 L 96 109.5 L 70.5 144 L 71 142.5 Q 87.4 113.9 111.5 93 L 121.5 85 Z " /><path fill="rgb(37,37,37)" stroke="rgb(37,37,37)" stroke-width="0.6" opacity="1" d="M 123.5 91 L 120.5 95 L 116 98.5 L 115 100.5 L 119.5 102 L 121.5 101 L 121.5 102 L 114.5 103 L 113 100.5 L 117.5 95 L 123.5 91 Z " /><path fill="rgb(37,37,37)" stroke="rgb(37,37,37)" stroke-width="0.6" opacity="1" d="M 346.5 97 L 351 104.5 L 350 104.5 L 346.5 97 Z " /><path fill="rgb(37,37,37)" stroke="rgb(37,37,37)" stroke-width="0.6" opacity="1" d="M 113.5 108 L 111.5 111 L 99.5 119 L 102.5 115 L 113.5 108 Z " /><path fill="rgb(37,37,37)" stroke="rgb(37,37,37)" stroke-width="0.6" opacity="1" d="M 357.5 111 Q 356.2 118.8 360.5 121 L 362 121.5 L 359.5 122 Q 355.1 119 357.5 111 Z " /><path fill="rgb(37,37,37)" stroke="rgb(37,37,37)" stroke-width="0.6" opacity="1" d="M 353.5 113 L 354 121.5 L 350.5 127 L 350 125.5 Q 354.3 121.8 353.5 113 Z " /><path fill="rgb(37,37,37)" stroke="rgb(37,37,37)" stroke-width="0.6" opacity="1" d="M 252.5 117 L 258.5 125 L 267 132.5 L 262.5 129 L 256 123.5 L 252.5 117 Z " /><path fill="rgb(37,37,37)" stroke="rgb(37,37,37)" stroke-width="0.6" opacity="1" d="M 97.5 119 L 86 131.5 Q 72.5 148 63.5 169 L 63 167.5 Q 74.3 141.8 92.5 123 L 97.5 119 Z " /><path fill="rgb(37,37,37)" stroke="rgb(37,37,37)" stroke-width="0.6" opacity="1" d="M 248.5 121 Q 253.3 122.2 252 129.5 L 240.5 138 L 242.5 135 L 251 129.5 Q 251.9 122.3 248.5 121 Z " /><path fill="rgb(37,37,37)" stroke="rgb(37,37,37)" stroke-width="0.6" opacity="1" d="M 356.5 125 L 362 125.5 Q 356.5 125 355 128.5 L 352.5 134 L 352 132.5 L 356.5 125 Z " /><path fill="rgb(37,37,37)" stroke="rgb(37,37,37)" stroke-width="0.6" opacity="1" d="M 349.5 128 L 350 129.5 L 339.5 141 L 325.5 146 L 321.5 146 L 321.5 145 Q 338.6 144.1 346 133.5 L 349.5 128 Z " /><path fill="rgb(37,37,37)" stroke="rgb(37,37,37)" stroke-width="0.6" opacity="1" d="M 254.5 132 L 261.5 134 Q 269.2 141.8 281 145.5 L 279.5 146 L 261.5 135 L 254.5 133 L 249.5 137 L 252.5 133 L 254.5 132 Z " /><path fill="rgb(37,37,37)" stroke="rgb(37,37,37)" stroke-width="0.6" opacity="1" d="M 351.5 135 L 352 136.5 L 346 141.5 L 351.5 135 Z " /><path fill="rgb(37,37,37)" stroke="rgb(37,37,37)" stroke-width="0.6" opacity="1" d="M 384.5 135 L 397 142.5 L 395.5 142 L 384.5 135 Z " /><path fill="rgb(37,37,37)" stroke="rgb(37,37,37)" stroke-width="0.6" opacity="1" d="M 274.5 137 L 285 141.5 L 282.5 142 L 274.5 137 Z " /><path fill="rgb(37,37,37)" stroke="rgb(37,37,37)" stroke-width="0.6" opacity="1" d="M 241.5 141 L 240.5 143 L 214.5 164 L 215.5 162 L 241.5 141 Z " /><path fill="rgb(37,37,37)" stroke="rgb(37,37,37)" stroke-width="0.6" opacity="1" d="M 433.5 141 L 437 144.5 L 445 160.5 L 444 160.5 L 433.5 141 Z " /><path fill="rgb(37,37,37)" stroke="rgb(37,37,37)" stroke-width="0.6" opacity="1" d="M 286.5 142 L 295 144.5 L 290.5 145 L 286.5 142 Z " /><path fill="rgb(37,37,37)" stroke="rgb(37,37,37)" stroke-width="0.6" opacity="1" d="M 69.5 145 L 70 146.5 L 59.5 164 L 59 162.5 L 69.5 145 Z " /><path fill="rgb(37,37,37)" stroke="rgb(37,37,37)" stroke-width="0.6" opacity="1" d="M 282.5 146 L 293 149.5 L 290.5 150 L 282.5 147 L 282.5 146 Z " /><path fill="rgb(37,37,37)" stroke="rgb(37,37,37)" stroke-width="0.6" opacity="1" d="M 305.5 146 L 318 146.5 L 305.5 147 L 305.5 146 Z " /><path fill="rgb(37,37,37)" stroke="rgb(37,37,37)" stroke-width="0.6" opacity="1" d="M 336.5 146 L 340 146.5 L 330 150.5 L 328.5 154 L 328 151.5 L 336.5 146 Z " /><path fill="rgb(37,37,37)" stroke="rgb(37,37,37)" stroke-width="0.6" opacity="1" d="M 408.5 146 L 416 152.5 L 412.5 150 L 408.5 146 Z " /><path fill="rgb(37,37,37)" stroke="rgb(37,37,37)" stroke-width="0.6" opacity="1" d="M 303.5 151 L 317 151.5 L 303.5 152 L 303.5 151 Z " /><path fill="rgb(37,37,37)" stroke="rgb(37,37,37)" stroke-width="0.6" opacity="1" d="M 320.5 151 L 325 153.5 L 327 158.5 L 326 158.5 L 322.5 152 L 320.5 151 Z " /><path fill="rgb(37,37,37)" stroke="rgb(37,37,37)" stroke-width="0.6" opacity="1" d="M 417.5 153 Q 434.1 166.4 446 184.5 L 443 182.5 L 437 173.5 L 417.5 153 Z " /><path fill="rgb(37,37,37)" stroke="rgb(37,37,37)" stroke-width="0.6" opacity="1" d="M 218.5 154 L 211.5 162 L 199 173.5 L 185.5 188 L 197 175.5 L 210.5 161 L 218.5 154 Z " /><path fill="rgb(37,37,37)" stroke="rgb(37,37,37)" stroke-width="0.6" opacity="1" d="M 412.5 154 L 430 170.5 L 439 181.5 L 435 178.5 L 417.5 159 L 412.5 154 Z " /><path fill="rgb(37,37,37)" stroke="rgb(37,37,37)" stroke-width="0.6" opacity="1" d="M 329.5 155 L 333 162.5 L 332 162.5 L 329.5 155 Z " /><path fill="rgb(37,37,37)" stroke="rgb(37,37,37)" stroke-width="0.6" opacity="1" d="M 58.5 165 L 59 166.5 L 54.5 176 L 54 174.5 L 58.5 165 Z " /><path fill="rgb(37,37,37)" stroke="rgb(37,37,37)" stroke-width="0.6" opacity="1" d="M 454.5 167 L 458 175.5 L 457 175.5 L 454.5 167 Z " /><path fill="rgb(37,37,37)" stroke="rgb(37,37,37)" stroke-width="0.6" opacity="1" d="M 207.5 170 L 198 180.5 L 181.5 200 L 185 195.5 L 207.5 170 Z " /><path fill="rgb(37,37,37)" stroke="rgb(37,37,37)" stroke-width="0.6" opacity="1" d="M 449.5 170 L 454 180.5 L 453 180.5 L 449.5 170 Z " /><path fill="rgb(37,37,37)" stroke="rgb(37,37,37)" stroke-width="0.6" opacity="1" d="M 439.5 183 L 453 202.5 L 451 201.5 L 439.5 183 Z " /><path fill="rgb(37,37,37)" stroke="rgb(37,37,37)" stroke-width="0.6" opacity="1" d="M 339.5 184 L 342 192.5 L 341 192.5 L 339.5 184 Z " /><path fill="rgb(37,37,37)" stroke="rgb(37,37,37)" stroke-width="0.6" opacity="1" d="M 50.5 186 L 51 187.5 L 47.5 198 L 47 194.5 L 50.5 186 Z " /><path fill="rgb(37,37,37)" stroke="rgb(37,37,37)" stroke-width="0.6" opacity="1" d="M 184.5 189 L 181 193.5 L 168.5 210 L 170 207.5 L 184.5 189 Z " /><path fill="rgb(37,37,37)" stroke="rgb(37,37,37)" stroke-width="0.6" opacity="1" d="M 457.5 189 L 461 195.5 L 461 203.5 L 458.5 205 L 451 195.5 L 454 197.5 L 457.5 202 Q 462.5 203.4 460 196.5 Q 455.8 193.9 457.5 189 Z " /><path fill="rgb(37,37,37)" stroke="rgb(37,37,37)" stroke-width="0.6" opacity="1" d="M 54.5 191 L 55 192.5 L 51.5 203 L 51 199.5 L 54.5 191 Z " /><path fill="rgb(37,37,37)" stroke="rgb(37,37,37)" stroke-width="0.6" opacity="1" d="M 338.5 196 L 341 204.5 L 340 204.5 L 338.5 196 Z " /><path fill="rgb(37,37,37)" stroke="rgb(37,37,37)" stroke-width="0.6" opacity="1" d="M 46.5 199 L 47 202.5 L 44 210.5 L 40.5 234 L 40 228.5 L 46.5 199 Z " /><path fill="rgb(37,37,37)" stroke="rgb(37,37,37)" stroke-width="0.6" opacity="1" d="M 466.5 201 L 473 226.5 L 473 231.5 L 472 231.5 L 469 212.5 L 466 205.5 L 466.5 201 Z " /><path fill="rgb(37,37,37)" stroke="rgb(37,37,37)" stroke-width="0.6" opacity="1" d="M 50.5 204 L 51 206.5 L 48.5 215 L 48 211.5 L 50.5 204 Z " /><path fill="rgb(37,37,37)" stroke="rgb(37,37,37)" stroke-width="0.6" opacity="1" d="M 176.5 206 L 174 209.5 L 161.5 227 L 162 225.5 L 176.5 206 Z " /><path fill="rgb(37,37,37)" stroke="rgb(37,37,37)" stroke-width="0.6" opacity="1" d="M 457.5 212 Q 461.6 213.9 461 220.5 L 460 220.5 L 457.5 212 Z " /><path fill="rgb(37,37,37)" stroke="rgb(37,37,37)" stroke-width="0.6" opacity="1" d="M 342.5 214 L 345 228.5 L 344 228.5 L 342.5 214 Z " /><path fill="rgb(37,37,37)" stroke="rgb(37,37,37)" stroke-width="0.6" opacity="1" d="M 164.5 215 L 163 217.5 L 158.5 224 L 160 221.5 L 164.5 215 Z " /><path fill="rgb(37,37,37)" stroke="rgb(37,37,37)" stroke-width="0.6" opacity="1" d="M 347.5 219 L 349 228.5 L 348 228.5 L 347.5 219 Z " /><path fill="rgb(37,37,37)" stroke="rgb(37,37,37)" stroke-width="0.6" opacity="1" d="M 461.5 222 L 465 228.5 L 465 232.5 L 464 232.5 L 464 228.5 L 461.5 222 Z " /><path fill="rgb(37,37,37)" stroke="rgb(37,37,37)" stroke-width="0.6" opacity="1" d="M 157.5 225 L 157 226.5 L 151.5 235 L 153 232.5 L 157.5 225 Z " /><path fill="rgb(37,37,37)" stroke="rgb(37,37,37)" stroke-width="0.6" opacity="1" d="M 45.5 229 L 46 235.5 L 45 236.5 L 45 277.5 L 47 288.5 L 46 288.5 L 44 277.5 L 44 236.5 L 45.5 229 Z " /><path fill="rgb(37,37,37)" stroke="rgb(37,37,37)" stroke-width="0.6" opacity="1" d="M 150.5 236 L 150 237.5 L 132.5 271 L 132 269.5 L 150.5 236 Z " /><path fill="rgb(37,37,37)" stroke="rgb(37,37,37)" stroke-width="0.6" opacity="1" d="M 350.5 236 L 351 248.5 L 350 248.5 L 350.5 236 Z " /><path fill="rgb(37,37,37)" stroke="rgb(37,37,37)" stroke-width="0.6" opacity="1" d="M 39.5 237 L 40 251.5 L 39 251.5 L 39.5 237 Z " /><path fill="rgb(37,37,37)" stroke="rgb(37,37,37)" stroke-width="0.6" opacity="1" d="M 466.5 240 L 469 245.5 L 469 274.5 L 466.5 284 L 466 279.5 L 468 273.5 L 468 246.5 L 466.5 240 Z " /><path fill="rgb(37,37,37)" stroke="rgb(37,37,37)" stroke-width="0.6" opacity="1" d="M 346.5 243 L 347 255.5 L 346 255.5 L 346.5 243 Z " /><path fill="rgb(37,37,37)" stroke="rgb(37,37,37)" stroke-width="0.6" opacity="1" d="M 352.5 260 L 353 292.5 L 352 292.5 L 352.5 260 Z " /><path fill="rgb(37,37,37)" stroke="rgb(37,37,37)" stroke-width="0.6" opacity="1" d="M 39.5 262 L 41 283.5 L 40 283.5 L 39.5 262 Z " /><path fill="rgb(37,37,37)" stroke="rgb(37,37,37)" stroke-width="0.6" opacity="1" d="M 348.5 263 L 349 293.5 L 348 293.5 L 348.5 263 Z " /><path fill="rgb(37,37,37)" stroke="rgb(37,37,37)" stroke-width="0.6" opacity="1" d="M 133.5 278 L 134 279.5 L 130.5 287 L 130 285.5 L 133.5 278 Z " /><path fill="rgb(37,37,37)" stroke="rgb(37,37,37)" stroke-width="0.6" opacity="1" d="M 472.5 283 L 473 287.5 L 470.5 296 L 470 290.5 L 472.5 283 Z " /><path fill="rgb(37,37,37)" stroke="rgb(37,37,37)" stroke-width="0.6" opacity="1" d="M 124.5 289 L 125 290.5 L 119.5 306 L 119 303.5 L 124.5 289 Z " /><path fill="rgb(37,37,37)" stroke="rgb(37,37,37)" stroke-width="0.6" opacity="1" d="M 464.5 296 L 465 301.5 L 462.5 308 L 462 305.5 L 464.5 296 Z " /><path fill="rgb(37,37,37)" stroke="rgb(37,37,37)" stroke-width="0.6" opacity="1" d="M 469.5 298 L 470 303.5 L 466.5 313 L 466 309.5 Q 469.6 305.6 469.5 298 Z " /><path fill="rgb(37,37,37)" stroke="rgb(37,37,37)" stroke-width="0.6" opacity="1" d="M 44.5 303 L 48 317.5 L 47 317.5 L 44.5 303 Z " /><path fill="rgb(37,37,37)" stroke="rgb(37,37,37)" stroke-width="0.6" opacity="1" d="M 350.5 305 L 351 316.5 L 350 316.5 L 350.5 305 Z " /><path fill="rgb(37,37,37)" stroke="rgb(37,37,37)" stroke-width="0.6" opacity="1" d="M 118.5 307 L 119 309.5 L 116.5 316 L 116 313.5 L 118.5 307 Z " /><path fill="rgb(37,37,37)" stroke="rgb(37,37,37)" stroke-width="0.6" opacity="1" d="M 52.5 313 L 56 324.5 L 55 324.5 L 52 316.5 L 52.5 313 Z " /><path fill="rgb(37,37,37)" stroke="rgb(37,37,37)" stroke-width="0.6" opacity="1" d="M 48.5 319 L 59 346.5 L 58 346.5 L 48 321.5 L 48.5 319 Z " /><path fill="rgb(37,37,37)" stroke="rgb(37,37,37)" stroke-width="0.6" opacity="1" d="M 118.5 323 L 119 325.5 L 116.5 334 L 116 329.5 L 118.5 323 Z " /><path fill="rgb(37,37,37)" stroke="rgb(37,37,37)" stroke-width="0.6" opacity="1" d="M 56.5 326 L 64 344.5 L 63 344.5 L 56 328.5 L 56.5 326 Z " /><path fill="rgb(37,37,37)" stroke="rgb(37,37,37)" stroke-width="0.6" opacity="1" d="M 113.5 326 L 114 328.5 L 111.5 340 L 111 334.5 L 113.5 326 Z " /><path fill="rgb(37,37,37)" stroke="rgb(37,37,37)" stroke-width="0.6" opacity="1" d="M 452.5 337 L 453 339.5 L 449.5 345 L 449 343.5 L 452.5 337 Z " /><path fill="rgb(37,37,37)" stroke="rgb(37,37,37)" stroke-width="0.6" opacity="1" d="M 345.5 343 L 346 346.5 L 343.5 354 L 343 351.5 L 345.5 343 Z " /><path fill="rgb(37,37,37)" stroke="rgb(37,37,37)" stroke-width="0.6" opacity="1" d="M 64.5 346 Q 79.1 378.4 103 401.5 L 101.5 401 L 99 399.5 Q 76.7 376.6 64.5 346 Z " /><path fill="rgb(37,37,37)" stroke="rgb(37,37,37)" stroke-width="0.6" opacity="1" d="M 114.5 346 L 115 349.5 L 113.5 359 L 113 350.5 L 114.5 346 Z " /><path fill="rgb(37,37,37)" stroke="rgb(37,37,37)" stroke-width="0.6" opacity="1" d="M 453.5 347 L 454 348.5 L 446.5 362 L 446 360.5 L 453.5 347 Z " /><path fill="rgb(37,37,37)" stroke="rgb(37,37,37)" stroke-width="0.6" opacity="1" d="M 59.5 348 Q 79.3 389.2 110.5 419 L 119 426.5 L 111.5 420 L 97 406.5 Q 73.7 380.8 59.5 348 Z " /><path fill="rgb(37,37,37)" stroke="rgb(37,37,37)" stroke-width="0.6" opacity="1" d="M 108.5 356 L 109 381.5 L 108 381.5 L 108.5 356 Z " /><path fill="rgb(37,37,37)" stroke="rgb(37,37,37)" stroke-width="0.6" opacity="1" d="M 112.5 362 L 113 380.5 L 112 380.5 L 112.5 362 Z " /><path fill="rgb(37,37,37)" stroke="rgb(37,37,37)" stroke-width="0.6" opacity="1" d="M 445.5 363 L 446 364.5 L 438.5 376 L 438 374.5 L 445.5 363 Z " /><path fill="rgb(37,37,37)" stroke="rgb(37,37,37)" stroke-width="0.6" opacity="1" d="M 436.5 368 L 436 369.5 L 429.5 379 L 432 375.5 L 436.5 368 Z " /><path fill="rgb(37,37,37)" stroke="rgb(37,37,37)" stroke-width="0.6" opacity="1" d="M 338.5 371 L 339 373.5 L 335.5 381 L 335 379.5 L 338.5 371 Z " /><path fill="rgb(37,37,37)" stroke="rgb(37,37,37)" stroke-width="0.6" opacity="1" d="M 437.5 377 L 435 380.5 Q 421.2 402.7 401.5 419 L 382.5 434 L 385.5 430 Q 402.2 419.2 415 404.5 L 437.5 377 Z " /><path fill="rgb(37,37,37)" stroke="rgb(37,37,37)" stroke-width="0.6" opacity="1" d="M 428.5 380 L 427 382.5 L 419.5 393 L 417.5 394 L 423 387.5 L 428.5 380 Z " /><path fill="rgb(37,37,37)" stroke="rgb(37,37,37)" stroke-width="0.6" opacity="1" d="M 329.5 384 L 330 386.5 L 322.5 402 L 322 400.5 L 329.5 384 Z " /><path fill="rgb(37,37,37)" stroke="rgb(37,37,37)" stroke-width="0.6" opacity="1" d="M 416.5 395 L 412 400.5 L 404.5 409 L 395.5 417 L 403.5 408 L 411 401.5 L 416.5 395 Z " /><path fill="rgb(37,37,37)" stroke="rgb(37,37,37)" stroke-width="0.6" opacity="1" d="M 103.5 403 L 108.5 408 L 111.5 408 L 113.5 403 L 115 407.5 L 111.5 410 Q 104.8 408.5 103.5 403 Z " /><path fill="rgb(37,37,37)" stroke="rgb(37,37,37)" stroke-width="0.6" opacity="1" d="M 119.5 410 Q 122.5 422 131.5 428 L 138 432.5 L 136.5 433 L 124 422.5 L 119 412.5 L 119.5 410 Z " /><path fill="rgb(37,37,37)" stroke="rgb(37,37,37)" stroke-width="0.6" opacity="1" d="M 321.5 412 L 321 413.5 L 314.5 425 L 315 423.5 L 321.5 412 Z " /><path fill="rgb(37,37,37)" stroke="rgb(37,37,37)" stroke-width="0.6" opacity="1" d="M 313.5 418 L 312 420.5 Q 308.1 430.6 300.5 437 L 303 433.5 L 313.5 418 Z " /><path fill="rgb(37,37,37)" stroke="rgb(37,37,37)" stroke-width="0.6" opacity="1" d="M 388.5 421 L 385.5 425 L 379.5 429 L 382.5 425 L 388.5 421 Z " /><path fill="rgb(37,37,37)" stroke="rgb(37,37,37)" stroke-width="0.6" opacity="1" d="M 313.5 426 L 312 428.5 L 299.5 445 L 303 440.5 L 313.5 426 Z " /><path fill="rgb(37,37,37)" stroke="rgb(37,37,37)" stroke-width="0.6" opacity="1" d="M 120.5 427 L 128 433.5 L 124.5 431 L 120.5 427 Z " /><path fill="rgb(37,37,37)" stroke="rgb(37,37,37)" stroke-width="0.6" opacity="1" d="M 377.5 429 L 376.5 431 L 366.5 437 L 366.5 436 L 377.5 429 Z " /><path fill="rgb(37,37,37)" stroke="rgb(37,37,37)" stroke-width="0.6" opacity="1" d="M 139.5 433 L 150 440.5 L 148.5 441 L 139.5 433 Z " /><path fill="rgb(37,37,37)" stroke="rgb(37,37,37)" stroke-width="0.6" opacity="1" d="M 129.5 434 L 149 445.5 L 147.5 446 L 133.5 438 L 129.5 434 Z " /><path fill="rgb(37,37,37)" stroke="rgb(37,37,37)" stroke-width="0.6" opacity="1" d="M 299.5 438 L 298 440.5 L 285.5 454 L 297 441.5 L 299.5 438 Z " /><path fill="rgb(37,37,37)" stroke="rgb(37,37,37)" stroke-width="0.6" opacity="1" d="M 298.5 446 L 291.5 454 L 298.5 446 Z " /><path fill="rgb(37,37,37)" stroke="rgb(37,37,37)" stroke-width="0.6" opacity="1" d="M 340.5 449 L 342 449.5 L 334.5 453 L 334.5 452 L 340.5 449 Z " /><path fill="rgb(37,37,37)" stroke="rgb(37,37,37)" stroke-width="0.6" opacity="1" d="M 352.5 450 L 355 450.5 L 347.5 454 L 347.5 453 L 352.5 450 Z " /><path fill="rgb(37,37,37)" stroke="rgb(37,37,37)" stroke-width="0.6" opacity="1" d="M 178.5 453 L 187 456.5 L 183.5 457 L 178.5 453 Z " /><path fill="rgb(37,37,37)" stroke="rgb(37,37,37)" stroke-width="0.6" opacity="1" d="M 165.5 454 L 173 457.5 L 171.5 458 L 165.5 454 Z " /><path fill="rgb(37,37,37)" stroke="rgb(37,37,37)" stroke-width="0.6" opacity="1" d="M 283.5 454 L 278.5 460 L 269.5 466 L 270.5 464 L 283.5 454 Z " /><path fill="rgb(37,37,37)" stroke="rgb(37,37,37)" stroke-width="0.6" opacity="1" d="M 289.5 454 L 286.5 458 L 281 461.5 L 282.5 465 L 288 465.5 L 281.5 466 L 280 461.5 L 289.5 454 Z " /><path fill="rgb(37,37,37)" stroke="rgb(37,37,37)" stroke-width="0.6" opacity="1" d="M 343.5 454 L 346 454.5 L 337.5 458 L 337.5 457 L 343.5 454 Z " /><path fill="rgb(37,37,37)" stroke="rgb(37,37,37)" stroke-width="0.6" opacity="1" d="M 175.5 458 L 178.5 458 L 184 461.5 L 182.5 462 L 175.5 458 Z " /><path fill="rgb(37,37,37)" stroke="rgb(37,37,37)" stroke-width="0.6" opacity="1" d="M 318.5 458 L 317.5 460 L 310.5 461 L 310.5 460 Q 316.5 461 318.5 458 Z " /><path fill="rgb(37,37,37)" stroke="rgb(37,37,37)" stroke-width="0.6" opacity="1" d="M 332.5 458 L 336 458.5 L 326.5 462 L 326.5 461 L 332.5 458 Z " /><path fill="rgb(37,37,37)" stroke="rgb(37,37,37)" stroke-width="0.6" opacity="1" d="M 205.5 462 L 220 464.5 L 211.5 465 L 205.5 463 L 205.5 462 Z " /><path fill="rgb(37,37,37)" stroke="rgb(37,37,37)" stroke-width="0.6" opacity="1" d="M 200.5 466 L 210 468.5 L 207.5 469 L 200.5 467 L 200.5 466 Z " /><path fill="rgb(37,37,37)" stroke="rgb(37,37,37)" stroke-width="0.6" opacity="1" d="M 227.5 466 L 241 467.5 L 232.5 468 L 227.5 467 L 227.5 466 Z " /><path fill="rgb(37,37,37)" stroke="rgb(37,37,37)" stroke-width="0.6" opacity="1" d="M 306.5 466 L 310 466.5 L 301.5 469 L 301.5 468 L 306.5 466 Z " /><path fill="rgb(37,37,37)" stroke="rgb(37,37,37)" stroke-width="0.6" opacity="1" d="M 245.5 468 L 263 468.5 L 245.5 469 L 245.5 468 Z " /><path fill="rgb(37,37,37)" stroke="rgb(37,37,37)" stroke-width="0.6" opacity="1" d="M 219.5 470 L 231 471.5 L 226.5 472 L 219.5 471 L 219.5 470 Z " /><path fill="rgb(37,37,37)" stroke="rgb(37,37,37)" stroke-width="0.6" opacity="1" d="M 285.5 470 L 292 470.5 L 274.5 473 L 274.5 472 L 285.5 470 Z " /><path fill="rgb(37,37,37)" stroke="rgb(37,37,37)" stroke-width="0.6" opacity="1" d="M 245.5 473 L 261 473.5 L 245.5 474 L 245.5 473 Z " /><path fill="rgb(139,146,154)" stroke="rgb(139,146,154)" stroke-width="0.6" opacity="1" d="M 260.5 37 L 276 37.5 L 260.5 38 L 260.5 37 Z " /><path fill="rgb(139,146,154)" stroke="rgb(139,146,154)" stroke-width="0.6" opacity="1" d="M 244.5 47 L 268.5 48 L 272 51.5 L 271.5 53 L 266.5 49 L 242.5 49 L 241.5 50 L 227.5 50 Q 219.5 54 207.5 54 L 201.5 57 L 181.5 62 L 162.5 70 L 127 92 Q 125.5 95.8 128.5 95 L 144.5 87 L 171.5 80 L 191.5 78 L 216.5 78 L 228.5 79 L 243.5 83 L 247 80.5 L 251.5 75 L 261.5 68 L 279 62.5 L 273 53.5 L 281 60.5 L 282 63.5 L 278.5 66 L 271.5 66 L 263.5 69 L 248 80.5 L 245.5 84 L 239.5 84 L 222.5 80 L 196.5 79 L 170.5 82 L 149.5 87 L 126 97 Q 127.3 94 123.5 95 L 122 98 L 124 98.5 L 121.5 99 L 120 97.5 L 124.5 93 Q 148 73 179.5 61 L 204.5 53 Q 215.8 52.8 223.5 49 L 244.5 47 Z " /><path fill="rgb(139,146,154)" stroke="rgb(139,146,154)" stroke-width="0.6" opacity="1" d="M 280.5 73 Q 285.3 71.7 284 75 L 272 77 Q 270.8 74 274.5 75 L 280.5 73 Z " /><path fill="rgb(139,146,154)" stroke="rgb(139,146,154)" stroke-width="0.6" opacity="1" d="M 294 73 L 309 75 Q 310.3 78.3 305.5 77 L 294 75 L 294 73 Z " /><path fill="rgb(139,146,154)" stroke="rgb(139,146,154)" stroke-width="0.6" opacity="1" d="M 266.5 77 L 269 77.5 L 257 86.5 L 252 94.5 L 251 104.5 Q 254.6 120.4 266.5 128 L 274 132.5 L 272.5 133 L 262 125.5 L 260.5 124 L 251 110.5 L 249 98.5 Q 252 87 260.5 81 L 266.5 77 Z " /><path fill="rgb(139,146,154)" stroke="rgb(139,146,154)" stroke-width="0.6" opacity="1" d="M 314 77 L 322 80.5 L 319.5 81 L 314 79 L 314 77 Z " /><path fill="rgb(139,146,154)" stroke="rgb(139,146,154)" stroke-width="0.6" opacity="1" d="M 323.5 81 L 337 89.5 L 335.5 90 L 324.5 83 L 323.5 81 Z " /><path fill="rgb(139,146,154)" stroke="rgb(139,146,154)" stroke-width="0.6" opacity="1" d="M 342.5 82 L 348.5 89 L 342.5 82 Z " /><path fill="rgb(139,146,154)" stroke="rgb(139,146,154)" stroke-width="0.6" opacity="1" d="M 109.5 92 L 92.5 110 L 109.5 92 Z " /><path fill="rgb(139,146,154)" stroke="rgb(139,146,154)" stroke-width="0.6" opacity="1" d="M 340.5 93 L 350 107.5 L 351 119.5 L 344.5 132 L 344 130.5 Q 350.7 124.7 349 110.5 L 340.5 93 Z " /><path fill="rgb(139,146,154)" stroke="rgb(139,146,154)" stroke-width="0.6" opacity="1" d="M 418.5 108 L 423.5 114 L 418.5 108 Z " /><path fill="rgb(139,146,154)" stroke="rgb(139,146,154)" stroke-width="0.6" opacity="1" d="M 97.5 122 L 89.5 131 L 97.5 122 Z " /><path fill="rgb(139,146,154)" stroke="rgb(139,146,154)" stroke-width="0.6" opacity="1" d="M 358.5 128 L 364.5 128 L 391.5 141 L 423 166.5 Q 443.2 186.3 456 213.5 L 463 232.5 L 466 247.5 L 466 265 L 464 264.5 L 464 247.5 Q 460.5 224 451 206.5 Q 438.4 183.6 420.5 166 L 393.5 144 L 374.5 134 L 359.5 129 L 356.5 135 L 356 132.5 L 358.5 128 Z " /><path fill="rgb(139,146,154)" stroke="rgb(139,146,154)" stroke-width="0.6" opacity="1" d="M 342.5 132 L 343 133.5 L 335.5 140 L 318 144 Q 316.6 140.3 322.5 142 L 333.5 139 L 342.5 132 Z " /><path fill="rgb(139,146,154)" stroke="rgb(139,146,154)" stroke-width="0.6" opacity="1" d="M 274.5 134 L 287 139.5 L 285.5 140 L 275.5 136 L 274.5 134 Z " /><path fill="rgb(139,146,154)" stroke="rgb(139,146,154)" stroke-width="0.6" opacity="1" d="M 354.5 135 L 355 136.5 L 347.5 145 Q 342.3 151.3 333 152 L 346 191.5 L 352 219.5 L 355 252.5 L 357 259.5 L 357 290.5 L 355 306 Q 351.3 307.4 353 301.5 Q 357.3 284.3 355 260.5 L 353 251.5 L 352 231.5 L 347 202.5 L 336 164.5 L 331 153.5 Q 334.7 148.2 342.5 147 L 353 137.5 L 354.5 135 Z " /><path fill="rgb(139,146,154)" stroke="rgb(139,146,154)" stroke-width="0.6" opacity="1" d="M 288 139 L 299.5 142 L 306 142 Q 307.4 146 300.5 144 L 288 141 L 288 139 Z " /><path fill="rgb(139,146,154)" stroke="rgb(139,146,154)" stroke-width="0.6" opacity="1" d="M 304.5 154 L 316 154.5 L 304.5 155 L 304.5 154 Z " /><path fill="rgb(139,146,154)" stroke="rgb(139,146,154)" stroke-width="0.6" opacity="1" d="M 223.5 158 L 218.5 164 L 223.5 158 Z " /><path fill="rgb(139,146,154)" stroke="rgb(139,146,154)" stroke-width="0.6" opacity="1" d="M 208.5 160 L 196.5 173 L 208.5 160 Z " /><path fill="rgb(139,146,154)" stroke="rgb(139,146,154)" stroke-width="0.6" opacity="1" d="M 190.5 179 L 184.5 186 L 190.5 179 Z " /><path fill="rgb(139,146,154)" stroke="rgb(139,146,154)" stroke-width="0.6" opacity="1" d="M 344.5 246 L 345 257.5 L 344 257.5 L 344.5 246 Z " /><path fill="rgb(139,146,154)" stroke="rgb(139,146,154)" stroke-width="0.6" opacity="1" d="M 476.5 249 L 477 260.5 L 476 260.5 L 476.5 249 Z " /><path fill="rgb(139,146,154)" stroke="rgb(139,146,154)" stroke-width="0.6" opacity="1" d="M 46.5 251 L 47 262.5 L 46 262.5 L 46.5 251 Z " /><path fill="rgb(139,146,154)" stroke="rgb(139,146,154)" stroke-width="0.6" opacity="1" d="M 345.5 262 L 346 273.5 L 345 273.5 L 345.5 262 Z " /><path fill="rgb(139,146,154)" stroke="rgb(139,146,154)" stroke-width="0.6" opacity="1" d="M 464 268 Q 467.7 266.6 466 272.5 L 464 278.5 L 463 296.5 L 456 324.5 L 451 337.5 Q 433.9 375.9 406.5 404 Q 379.6 430.1 343.5 447 L 312.5 459 L 287.5 463 L 287.5 462 L 313.5 457 L 350.5 442 L 377.5 426 L 408 400.5 Q 433.8 372.8 450 335.5 L 461 297.5 L 462 278.5 L 464 268 Z " /><path fill="rgb(139,146,154)" stroke="rgb(139,146,154)" stroke-width="0.6" opacity="1" d="M 353 308 Q 356.3 306.7 355 311.5 L 349 350.5 L 346 357.5 L 346 363.5 L 336 391.5 L 320 423.5 L 298.5 451 L 298 449.5 L 320 420.5 L 335 389.5 L 347 350.5 L 353 308 Z " /><path fill="rgb(139,146,154)" stroke="rgb(139,146,154)" stroke-width="0.6" opacity="1" d="M 115.5 358 L 116 368.5 L 115 368.5 L 115.5 358 Z " /><path fill="rgb(139,146,154)" stroke="rgb(139,146,154)" stroke-width="0.6" opacity="1" d="M 427.5 394 L 421.5 401 L 427.5 394 Z " /><path fill="rgb(139,146,154)" stroke="rgb(139,146,154)" stroke-width="0.6" opacity="1" d="M 419.5 403 L 413.5 410 L 419.5 403 Z " /><path fill="rgb(139,146,154)" stroke="rgb(139,146,154)" stroke-width="0.6" opacity="1" d="M 95.5 407 L 107.5 420 L 95.5 407 Z " /><path fill="rgb(139,146,154)" stroke="rgb(139,146,154)" stroke-width="0.6" opacity="1" d="M 408.5 414 L 403.5 420 L 408.5 414 Z " /><path fill="rgb(139,146,154)" stroke="rgb(139,146,154)" stroke-width="0.6" opacity="1" d="M 292.5 443 L 285.5 451 L 292.5 443 Z " /><path fill="rgb(139,146,154)" stroke="rgb(139,146,154)" stroke-width="0.6" opacity="1" d="M 295.5 452 L 297 452.5 L 287.5 461 L 285 461.5 L 285.5 463 Q 282 461 286.5 459 L 295.5 452 Z " /><path fill="rgb(139,146,154)" stroke="rgb(139,146,154)" stroke-width="0.6" opacity="1" d="M 242.5 465 L 264 465.5 L 242.5 466 L 242.5 465 Z " /><path fill="rgb(66,66,66)" stroke="rgb(66,66,66)" stroke-width="0.6" opacity="1" d="M 247.5 38 L 261 38.5 L 247.5 39 L 247.5 38 Z " /><path fill="rgb(66,66,66)" stroke="rgb(66,66,66)" stroke-width="0.6" opacity="1" d="M 267.5 39 L 278 39.5 L 267.5 40 L 267.5 39 Z " /><path fill="rgb(66,66,66)" stroke="rgb(66,66,66)" stroke-width="0.6" opacity="1" d="M 245.5 45 L 257 45.5 L 245.5 46 L 245.5 45 Z " /><path fill="rgb(66,66,66)" stroke="rgb(66,66,66)" stroke-width="0.6" opacity="1" d="M 282.5 47 L 286 47.5 L 281 49.5 L 282 52.5 L 280 51.5 L 282.5 47 Z " /><path fill="rgb(66,66,66)" stroke="rgb(66,66,66)" stroke-width="0.6" opacity="1" d="M 289.5 48 L 301 50.5 L 298.5 51 L 289.5 49 L 289.5 48 Z " /><path fill="rgb(66,66,66)" stroke="rgb(66,66,66)" stroke-width="0.6" opacity="1" d="M 274.5 52 L 281.5 60 L 274.5 52 Z " /><path fill="rgb(66,66,66)" stroke="rgb(66,66,66)" stroke-width="0.6" opacity="1" d="M 335.5 60 L 344 65.5 L 341.5 70 L 343 67.5 L 340.5 63 L 335.5 60 Z " /><path fill="rgb(66,66,66)" stroke="rgb(66,66,66)" stroke-width="0.6" opacity="1" d="M 337.5 76 L 337 77.5 L 341 83.5 L 338.5 82 L 336 80.5 L 337.5 76 Z " /><path fill="rgb(66,66,66)" stroke="rgb(66,66,66)" stroke-width="0.6" opacity="1" d="M 127.5 80 L 126.5 82 L 120.5 86 L 121.5 84 L 127.5 80 Z " /><path fill="rgb(66,66,66)" stroke="rgb(66,66,66)" stroke-width="0.6" opacity="1" d="M 195.5 80 L 211 80.5 L 195.5 81 L 195.5 80 Z " /><path fill="rgb(66,66,66)" stroke="rgb(66,66,66)" stroke-width="0.6" opacity="1" d="M 250.5 80 L 245.5 86 L 240 85.5 Q 248.6 86.1 250.5 80 Z " /><path fill="rgb(66,66,66)" stroke="rgb(66,66,66)" stroke-width="0.6" opacity="1" d="M 375.5 81 L 382 86.5 L 378.5 84 L 375.5 81 Z " /><path fill="rgb(66,66,66)" stroke="rgb(66,66,66)" stroke-width="0.6" opacity="1" d="M 193.5 85 L 213 85.5 L 193.5 86 L 193.5 85 Z " /><path fill="rgb(66,66,66)" stroke="rgb(66,66,66)" stroke-width="0.6" opacity="1" d="M 392.5 85 L 405 96.5 L 397.5 90 L 392.5 85 Z " /><path fill="rgb(66,66,66)" stroke="rgb(66,66,66)" stroke-width="0.6" opacity="1" d="M 117.5 87 L 112.5 93 L 117.5 87 Z " /><path fill="rgb(66,66,66)" stroke="rgb(66,66,66)" stroke-width="0.6" opacity="1" d="M 240.5 89 Q 244.8 90.8 243 98.5 L 242 98.5 Q 243 90.7 240.5 89 Z " /><path fill="rgb(66,66,66)" stroke="rgb(66,66,66)" stroke-width="0.6" opacity="1" d="M 390.5 92 L 401.5 104 L 390.5 92 Z " /><path fill="rgb(66,66,66)" stroke="rgb(66,66,66)" stroke-width="0.6" opacity="1" d="M 110.5 93 L 94.5 110 L 110.5 93 Z " /><path fill="rgb(66,66,66)" stroke="rgb(66,66,66)" stroke-width="0.6" opacity="1" d="M 119.5 95 L 118 97.5 L 117 99.5 L 120 101.5 L 116.5 102 L 116 99.5 L 119.5 95 Z " /><path fill="rgb(66,66,66)" stroke="rgb(66,66,66)" stroke-width="0.6" opacity="1" d="M 415.5 107 L 422.5 115 L 415.5 107 Z " /><path fill="rgb(66,66,66)" stroke="rgb(66,66,66)" stroke-width="0.6" opacity="1" d="M 408.5 110 L 413.5 116 L 408.5 110 Z " /><path fill="rgb(66,66,66)" stroke="rgb(66,66,66)" stroke-width="0.6" opacity="1" d="M 93.5 111 L 88.5 117 L 93.5 111 Z " /><path fill="rgb(66,66,66)" stroke="rgb(66,66,66)" stroke-width="0.6" opacity="1" d="M 414.5 117 L 419.5 123 L 414.5 117 Z " /><path fill="rgb(66,66,66)" stroke="rgb(66,66,66)" stroke-width="0.6" opacity="1" d="M 87.5 118 L 85 121.5 L 79.5 129 L 81 126.5 L 87.5 118 Z " /><path fill="rgb(66,66,66)" stroke="rgb(66,66,66)" stroke-width="0.6" opacity="1" d="M 246.5 118 L 251 124.5 L 247 121.5 L 246.5 118 Z " /><path fill="rgb(66,66,66)" stroke="rgb(66,66,66)" stroke-width="0.6" opacity="1" d="M 427.5 121 L 434 128.5 L 430 125.5 L 427.5 121 Z " /><path fill="rgb(66,66,66)" stroke="rgb(66,66,66)" stroke-width="0.6" opacity="1" d="M 91.5 126 L 86.5 132 L 91.5 126 Z " /><path fill="rgb(66,66,66)" stroke="rgb(66,66,66)" stroke-width="0.6" opacity="1" d="M 357.5 126 L 363 126.5 L 356 128.5 L 355.5 130 L 355 128.5 L 357.5 126 Z " /><path fill="rgb(66,66,66)" stroke="rgb(66,66,66)" stroke-width="0.6" opacity="1" d="M 263.5 128 L 275 136.5 L 273.5 137 L 263.5 128 Z " /><path fill="rgb(66,66,66)" stroke="rgb(66,66,66)" stroke-width="0.6" opacity="1" d="M 254.5 133 L 258 133.5 L 250.5 137 L 252.5 134 L 254.5 133 Z " /><path fill="rgb(66,66,66)" stroke="rgb(66,66,66)" stroke-width="0.6" opacity="1" d="M 345.5 133 L 339.5 140 L 336.5 141 L 336.5 140 L 345.5 133 Z " /><path fill="rgb(66,66,66)" stroke="rgb(66,66,66)" stroke-width="0.6" opacity="1" d="M 276.5 137 L 284 140.5 L 282.5 141 L 276.5 137 Z " /><path fill="rgb(66,66,66)" stroke="rgb(66,66,66)" stroke-width="0.6" opacity="1" d="M 303.5 145 L 321 145.5 L 303.5 146 L 303.5 145 Z " /><path fill="rgb(66,66,66)" stroke="rgb(66,66,66)" stroke-width="0.6" opacity="1" d="M 305.5 152 L 316 152.5 L 305.5 153 L 305.5 152 Z " /><path fill="rgb(66,66,66)" stroke="rgb(66,66,66)" stroke-width="0.6" opacity="1" d="M 217.5 154 L 211.5 161 L 217.5 154 Z " /><path fill="rgb(66,66,66)" stroke="rgb(66,66,66)" stroke-width="0.6" opacity="1" d="M 419.5 154 L 436.5 172 L 419.5 154 Z " /><path fill="rgb(66,66,66)" stroke="rgb(66,66,66)" stroke-width="0.6" opacity="1" d="M 224.5 155 L 218.5 162 L 224.5 155 Z " /><path fill="rgb(66,66,66)" stroke="rgb(66,66,66)" stroke-width="0.6" opacity="1" d="M 417.5 159 L 427.5 170 L 417.5 159 Z " /><path fill="rgb(66,66,66)" stroke="rgb(66,66,66)" stroke-width="0.6" opacity="1" d="M 58.5 163 L 59 164.5 L 55.5 171 L 55 169.5 L 58.5 163 Z " /><path fill="rgb(66,66,66)" stroke="rgb(66,66,66)" stroke-width="0.6" opacity="1" d="M 215.5 163 L 198.5 181 L 215.5 163 Z " /><path fill="rgb(66,66,66)" stroke="rgb(66,66,66)" stroke-width="0.6" opacity="1" d="M 206.5 164 L 200.5 171 L 206.5 164 Z " /><path fill="rgb(66,66,66)" stroke="rgb(66,66,66)" stroke-width="0.6" opacity="1" d="M 196.5 175 L 186.5 186 L 196.5 175 Z " /><path fill="rgb(66,66,66)" stroke="rgb(66,66,66)" stroke-width="0.6" opacity="1" d="M 196.5 183 L 191.5 189 L 196.5 183 Z " /><path fill="rgb(66,66,66)" stroke="rgb(66,66,66)" stroke-width="0.6" opacity="1" d="M 459.5 196 L 460 202 Q 455.3 202.8 454 198.5 L 457.5 201 L 459 199.5 L 459.5 196 Z " /><path fill="rgb(66,66,66)" stroke="rgb(66,66,66)" stroke-width="0.6" opacity="1" d="M 45.5 200 L 46 202.5 L 43.5 210 L 43 206.5 L 45.5 200 Z " /><path fill="rgb(66,66,66)" stroke="rgb(66,66,66)" stroke-width="0.6" opacity="1" d="M 345.5 238 L 346 248.5 L 345 248.5 L 345.5 238 Z " /><path fill="rgb(66,66,66)" stroke="rgb(66,66,66)" stroke-width="0.6" opacity="1" d="M 351.5 240 L 352 251.5 L 351 251.5 L 351.5 240 Z " /><path fill="rgb(66,66,66)" stroke="rgb(66,66,66)" stroke-width="0.6" opacity="1" d="M 474.5 241 L 475 273.5 L 474 273.5 L 474.5 241 Z " /><path fill="rgb(66,66,66)" stroke="rgb(66,66,66)" stroke-width="0.6" opacity="1" d="M 38.5 243 L 39 274.5 L 38 274.5 L 38.5 243 Z " /><path fill="rgb(66,66,66)" stroke="rgb(66,66,66)" stroke-width="0.6" opacity="1" d="M 147.5 251 L 147 252.5 L 137.5 271 L 138 269.5 L 147.5 251 Z " /><path fill="rgb(66,66,66)" stroke="rgb(66,66,66)" stroke-width="0.6" opacity="1" d="M 347.5 262 L 348 294.5 L 347 294.5 L 347.5 262 Z " /><path fill="rgb(66,66,66)" stroke="rgb(66,66,66)" stroke-width="0.6" opacity="1" d="M 353.5 264 L 354 287.5 L 353 287.5 L 353.5 264 Z " /><path fill="rgb(66,66,66)" stroke="rgb(66,66,66)" stroke-width="0.6" opacity="1" d="M 351.5 302 L 352 312.5 L 351 312.5 L 351.5 302 Z " /><path fill="rgb(66,66,66)" stroke="rgb(66,66,66)" stroke-width="0.6" opacity="1" d="M 55.5 341 L 59 348.5 L 58 348.5 L 55.5 341 Z " /><path fill="rgb(66,66,66)" stroke="rgb(66,66,66)" stroke-width="0.6" opacity="1" d="M 64.5 344 L 71 356.5 L 69 355.5 L 64.5 344 Z " /><path fill="rgb(66,66,66)" stroke="rgb(66,66,66)" stroke-width="0.6" opacity="1" d="M 450.5 355 L 451 356.5 L 446.5 364 L 446 362.5 L 450.5 355 Z " /><path fill="rgb(66,66,66)" stroke="rgb(66,66,66)" stroke-width="0.6" opacity="1" d="M 113.5 359 L 114 384.5 L 113 384.5 L 113.5 359 Z " /><path fill="rgb(66,66,66)" stroke="rgb(66,66,66)" stroke-width="0.6" opacity="1" d="M 107.5 360 L 108 375.5 L 107 375.5 L 107.5 360 Z " /><path fill="rgb(66,66,66)" stroke="rgb(66,66,66)" stroke-width="0.6" opacity="1" d="M 441.5 372 L 440 374.5 L 434.5 383 L 435 381.5 L 441.5 372 Z " /><path fill="rgb(66,66,66)" stroke="rgb(66,66,66)" stroke-width="0.6" opacity="1" d="M 72.5 373 L 77 379.5 L 74 377.5 L 72.5 373 Z " /><path fill="rgb(66,66,66)" stroke="rgb(66,66,66)" stroke-width="0.6" opacity="1" d="M 432.5 373 L 432 374.5 L 426.5 382 L 428 379.5 L 432.5 373 Z " /><path fill="rgb(66,66,66)" stroke="rgb(66,66,66)" stroke-width="0.6" opacity="1" d="M 95.5 393 L 101.5 400 L 95.5 393 Z " /><path fill="rgb(66,66,66)" stroke="rgb(66,66,66)" stroke-width="0.6" opacity="1" d="M 425.5 394 L 419.5 401 L 425.5 394 Z " /><path fill="rgb(66,66,66)" stroke="rgb(66,66,66)" stroke-width="0.6" opacity="1" d="M 90.5 399 L 96.5 406 L 90.5 399 Z " /><path fill="rgb(66,66,66)" stroke="rgb(66,66,66)" stroke-width="0.6" opacity="1" d="M 410.5 401 L 404.5 408 L 410.5 401 Z " /><path fill="rgb(66,66,66)" stroke="rgb(66,66,66)" stroke-width="0.6" opacity="1" d="M 103.5 402 L 108.5 407 L 111.5 407 L 113 406.5 L 108.5 408 L 103.5 402 Z " /><path fill="rgb(66,66,66)" stroke="rgb(66,66,66)" stroke-width="0.6" opacity="1" d="M 418.5 402 L 402.5 419 L 418.5 402 Z " /><path fill="rgb(66,66,66)" stroke="rgb(66,66,66)" stroke-width="0.6" opacity="1" d="M 97.5 407 L 109.5 420 L 97.5 407 Z " /><path fill="rgb(66,66,66)" stroke="rgb(66,66,66)" stroke-width="0.6" opacity="1" d="M 401.5 409 L 394.5 417 L 401.5 409 Z " /><path fill="rgb(66,66,66)" stroke="rgb(66,66,66)" stroke-width="0.6" opacity="1" d="M 111.5 420 L 117.5 427 L 111.5 420 Z " /><path fill="rgb(66,66,66)" stroke="rgb(66,66,66)" stroke-width="0.6" opacity="1" d="M 124.5 420 L 131.5 428 L 124.5 420 Z " /><path fill="rgb(66,66,66)" stroke="rgb(66,66,66)" stroke-width="0.6" opacity="1" d="M 394.5 424 L 391.5 428 L 387.5 431 L 390.5 427 L 394.5 424 Z " /><path fill="rgb(66,66,66)" stroke="rgb(66,66,66)" stroke-width="0.6" opacity="1" d="M 296.5 441 L 284.5 454 L 296.5 441 Z " /><path fill="rgb(66,66,66)" stroke="rgb(66,66,66)" stroke-width="0.6" opacity="1" d="M 241.5 467 L 264 467.5 L 241.5 468 L 241.5 467 Z " /><path fill="rgb(66,66,66)" stroke="rgb(66,66,66)" stroke-width="0.6" opacity="1" d="M 234.5 473 L 245 473.5 L 234.5 474 L 234.5 473 Z " /><path fill="rgb(66,66,66)" stroke="rgb(66,66,66)" stroke-width="0.6" opacity="1" d="M 261.5 473 L 277 473.5 L 261.5 474 L 261.5 473 Z " /><path fill="rgb(121,121,120)" stroke="rgb(121,121,120)" stroke-width="0.6" opacity="1" d="M 248.5 37 L 260 37.5 L 248.5 38 L 248.5 37 Z " /><path fill="rgb(121,121,120)" stroke="rgb(121,121,120)" stroke-width="0.6" opacity="1" d="M 257.5 47 L 268 47.5 L 257.5 48 L 257.5 47 Z " /><path fill="rgb(121,121,120)" stroke="rgb(121,121,120)" stroke-width="0.6" opacity="1" d="M 269.5 48 L 274.5 54 L 269.5 48 Z " /><path fill="rgb(121,121,120)" stroke="rgb(121,121,120)" stroke-width="0.6" opacity="1" d="M 358.5 73 L 368 78.5 L 366.5 78 L 358.5 73 Z " /><path fill="rgb(121,121,120)" stroke="rgb(121,121,120)" stroke-width="0.6" opacity="1" d="M 196.5 79 L 208 79.5 L 196.5 80 L 196.5 79 Z " /><path fill="rgb(121,121,120)" stroke="rgb(121,121,120)" stroke-width="0.6" opacity="1" d="M 321.5 79 L 328 82.5 L 325.5 84 L 325.5 82 L 323.5 81 L 321.5 82 L 321.5 79 Z " /><path fill="rgb(121,121,120)" stroke="rgb(121,121,120)" stroke-width="0.6" opacity="1" d="M 369.5 79 L 376 83.5 L 373.5 82 L 369.5 79 Z " /><path fill="rgb(121,121,120)" stroke="rgb(121,121,120)" stroke-width="0.6" opacity="1" d="M 377.5 84 L 387 91.5 L 383.5 89 L 377.5 84 Z " /><path fill="rgb(121,121,120)" stroke="rgb(121,121,120)" stroke-width="0.6" opacity="1" d="M 196.5 86 L 210 86.5 L 196.5 87 L 196.5 86 Z " /><path fill="rgb(121,121,120)" stroke="rgb(121,121,120)" stroke-width="0.6" opacity="1" d="M 336.5 88 L 341.5 94 L 336.5 88 Z " /><path fill="rgb(121,121,120)" stroke="rgb(121,121,120)" stroke-width="0.6" opacity="1" d="M 113.5 89 L 107.5 96 L 113.5 89 Z " /><path fill="rgb(121,121,120)" stroke="rgb(121,121,120)" stroke-width="0.6" opacity="1" d="M 403.5 93 L 417.5 108 L 403.5 93 Z " /><path fill="rgb(121,121,120)" stroke="rgb(121,121,120)" stroke-width="0.6" opacity="1" d="M 395.5 98 L 407.5 111 L 395.5 98 Z " /><path fill="rgb(121,121,120)" stroke="rgb(121,121,120)" stroke-width="0.6" opacity="1" d="M 96.5 106 L 90.5 113 L 96.5 106 Z " /><path fill="rgb(121,121,120)" stroke="rgb(121,121,120)" stroke-width="0.6" opacity="1" d="M 252.5 113 L 255 113.5 L 254 115.5 L 256 115.5 L 255 117.5 Q 257 121.2 259 119.5 Q 256.5 123.5 254 117.5 L 252.5 113 Z " /><path fill="rgb(121,121,120)" stroke="rgb(121,121,120)" stroke-width="0.6" opacity="1" d="M 409.5 113 L 415.5 120 L 409.5 113 Z " /><path fill="rgb(121,121,120)" stroke="rgb(121,121,120)" stroke-width="0.6" opacity="1" d="M 258.5 122 L 263.5 128 L 258.5 122 Z " /><path fill="rgb(121,121,120)" stroke="rgb(121,121,120)" stroke-width="0.6" opacity="1" d="M 249.5 125 L 250 128.5 L 244.5 133 L 245.5 131 L 249 128.5 L 249.5 125 Z " /><path fill="rgb(121,121,120)" stroke="rgb(121,121,120)" stroke-width="0.6" opacity="1" d="M 420.5 126 L 426 132.5 L 423 130.5 L 420.5 126 Z " /><path fill="rgb(121,121,120)" stroke="rgb(121,121,120)" stroke-width="0.6" opacity="1" d="M 266.5 127 Q 264.8 129 268.5 131 L 271.5 132 L 273 131.5 L 272 132.5 L 274.5 136 L 265 128.5 L 266.5 127 Z " /><path fill="rgb(121,121,120)" stroke="rgb(121,121,120)" stroke-width="0.6" opacity="1" d="M 384.5 129 L 392 133.5 L 390.5 133 Q 384.9 132.2 384.5 129 Z " /><path fill="rgb(121,121,120)" stroke="rgb(121,121,120)" stroke-width="0.6" opacity="1" d="M 88.5 131 L 86 134.5 L 83.5 138 L 85 135.5 L 88.5 131 Z " /><path fill="rgb(121,121,120)" stroke="rgb(121,121,120)" stroke-width="0.6" opacity="1" d="M 345.5 131 L 338.5 139 L 345.5 131 Z " /><path fill="rgb(121,121,120)" stroke="rgb(121,121,120)" stroke-width="0.6" opacity="1" d="M 393.5 134 L 400 138.5 L 397.5 137 L 393.5 134 Z " /><path fill="rgb(121,121,120)" stroke="rgb(121,121,120)" stroke-width="0.6" opacity="1" d="M 253.5 135 L 252.5 137 L 240.5 145 L 241.5 143 L 253.5 135 Z " /><path fill="rgb(121,121,120)" stroke="rgb(121,121,120)" stroke-width="0.6" opacity="1" d="M 352.5 137 L 346.5 144 L 352.5 137 Z " /><path fill="rgb(121,121,120)" stroke="rgb(121,121,120)" stroke-width="0.6" opacity="1" d="M 430.5 140 L 436 148.5 L 435 148.5 L 430.5 140 Z " /><path fill="rgb(121,121,120)" stroke="rgb(121,121,120)" stroke-width="0.6" opacity="1" d="M 268.5 141 L 276 145.5 L 274.5 145 Q 268.9 144.7 268.5 141 Z " /><path fill="rgb(121,121,120)" stroke="rgb(121,121,120)" stroke-width="0.6" opacity="1" d="M 306.5 142 L 318 143 L 317.5 145 L 306 145 L 306.5 142 Z " /><path fill="rgb(121,121,120)" stroke="rgb(121,121,120)" stroke-width="0.6" opacity="1" d="M 213.5 156 L 191.5 179 L 213.5 156 Z " /><path fill="rgb(121,121,120)" stroke="rgb(121,121,120)" stroke-width="0.6" opacity="1" d="M 413.5 157 L 418.5 163 L 413.5 157 Z " /><path fill="rgb(121,121,120)" stroke="rgb(121,121,120)" stroke-width="0.6" opacity="1" d="M 425.5 158 L 434.5 168 L 425.5 158 Z " /><path fill="rgb(121,121,120)" stroke="rgb(121,121,120)" stroke-width="0.6" opacity="1" d="M 220.5 160 L 196.5 185 L 220.5 160 Z " /><path fill="rgb(121,121,120)" stroke="rgb(121,121,120)" stroke-width="0.6" opacity="1" d="M 423.5 167 L 431.5 176 L 423.5 167 Z " /><path fill="rgb(121,121,120)" stroke="rgb(121,121,120)" stroke-width="0.6" opacity="1" d="M 187.5 183 L 182.5 189 L 187.5 183 Z " /><path fill="rgb(121,121,120)" stroke="rgb(121,121,120)" stroke-width="0.6" opacity="1" d="M 456.5 192 L 458 198 L 452 193.5 L 454.5 195 Q 457.4 195.7 456.5 192 Z " /><path fill="rgb(121,121,120)" stroke="rgb(121,121,120)" stroke-width="0.6" opacity="1" d="M 170.5 204 L 168 207.5 L 165.5 211 L 167 208.5 L 170.5 204 Z " /><path fill="rgb(121,121,120)" stroke="rgb(121,121,120)" stroke-width="0.6" opacity="1" d="M 164.5 225 L 164 226.5 L 157.5 236 L 159 233.5 L 164.5 225 Z " /><path fill="rgb(121,121,120)" stroke="rgb(121,121,120)" stroke-width="0.6" opacity="1" d="M 46.5 239 L 47 250.5 L 46 250.5 L 46.5 239 Z " /><path fill="rgb(121,121,120)" stroke="rgb(121,121,120)" stroke-width="0.6" opacity="1" d="M 475.5 242 L 476 272.5 L 475 272.5 L 475.5 242 Z " /><path fill="rgb(121,121,120)" stroke="rgb(121,121,120)" stroke-width="0.6" opacity="1" d="M 152.5 244 L 153 245.5 L 148.5 252 L 149 250.5 L 152.5 244 Z " /><path fill="rgb(121,121,120)" stroke="rgb(121,121,120)" stroke-width="0.6" opacity="1" d="M 466.5 248 L 467 269.5 L 466 269.5 L 466.5 248 Z " /><path fill="rgb(121,121,120)" stroke="rgb(121,121,120)" stroke-width="0.6" opacity="1" d="M 140.5 250 L 140 251.5 L 136.5 258 L 137 256.5 L 140.5 250 Z " /><path fill="rgb(121,121,120)" stroke="rgb(121,121,120)" stroke-width="0.6" opacity="1" d="M 135.5 259 L 136 260.5 L 131.5 269 L 131 267.5 L 135.5 259 Z " /><path fill="rgb(121,121,120)" stroke="rgb(121,121,120)" stroke-width="0.6" opacity="1" d="M 354.5 260 L 355 290.5 L 354 290.5 L 354.5 260 Z " /><path fill="rgb(121,121,120)" stroke="rgb(121,121,120)" stroke-width="0.6" opacity="1" d="M 46.5 263 L 47 273.5 L 46 273.5 L 46.5 263 Z " /><path fill="rgb(121,121,120)" stroke="rgb(121,121,120)" stroke-width="0.6" opacity="1" d="M 37.5 266 L 38 276.5 L 37 276.5 L 37.5 266 Z " /><path fill="rgb(121,121,120)" stroke="rgb(121,121,120)" stroke-width="0.6" opacity="1" d="M 346.5 269 L 347 288.5 L 346 288.5 L 346.5 269 Z " /><path fill="rgb(121,121,120)" stroke="rgb(121,121,120)" stroke-width="0.6" opacity="1" d="M 106.5 358 L 107 377.5 L 106 377.5 L 106.5 358 Z " /><path fill="rgb(121,121,120)" stroke="rgb(121,121,120)" stroke-width="0.6" opacity="1" d="M 114.5 365 L 115 378.5 L 114 378.5 L 114.5 365 Z " /><path fill="rgb(121,121,120)" stroke="rgb(121,121,120)" stroke-width="0.6" opacity="1" d="M 68.5 369 L 73 375.5 L 71 374.5 L 68.5 369 Z " /><path fill="rgb(121,121,120)" stroke="rgb(121,121,120)" stroke-width="0.6" opacity="1" d="M 91.5 402 L 112.5 424 L 91.5 402 Z " /><path fill="rgb(121,121,120)" stroke="rgb(121,121,120)" stroke-width="0.6" opacity="1" d="M 405.5 404 L 398.5 412 L 405.5 404 Z " /><path fill="rgb(121,121,120)" stroke="rgb(121,121,120)" stroke-width="0.6" opacity="1" d="M 315.5 411 L 314 413.5 L 301.5 433 L 304 429.5 L 315.5 411 Z " /><path fill="rgb(121,121,120)" stroke="rgb(121,121,120)" stroke-width="0.6" opacity="1" d="M 123.5 415 L 129 423.5 L 127 422.5 L 123.5 415 Z " /><path fill="rgb(121,121,120)" stroke="rgb(121,121,120)" stroke-width="0.6" opacity="1" d="M 135.5 428 L 142 433.5 L 139.5 432 L 135.5 428 Z " /><path fill="rgb(121,121,120)" stroke="rgb(121,121,120)" stroke-width="0.6" opacity="1" d="M 151.5 439 L 160 443.5 L 158.5 444 L 151.5 439 Z " /><path fill="rgb(121,121,120)" stroke="rgb(121,121,120)" stroke-width="0.6" opacity="1" d="M 292.5 444 L 286.5 451 L 292.5 444 Z " /><path fill="rgb(121,121,120)" stroke="rgb(121,121,120)" stroke-width="0.6" opacity="1" d="M 301.5 445 L 292.5 455 L 301.5 445 Z " /><path fill="rgb(121,121,120)" stroke="rgb(121,121,120)" stroke-width="0.6" opacity="1" d="M 285.5 459 Q 282.3 461 285.5 463 L 290 463.5 L 284.5 464 L 283 461.5 L 285.5 459 Z " /><path fill="rgb(121,121,120)" stroke="rgb(121,121,120)" stroke-width="0.6" opacity="1" d="M 250.5 466 L 262 466.5 L 250.5 467 L 250.5 466 Z " /><path fill="rgb(121,121,120)" stroke="rgb(121,121,120)" stroke-width="0.6" opacity="1" d="M 235.5 474 L 277 474.5 L 235.5 475 L 235.5 474 Z " /><path fill="rgb(93,93,94)" stroke="rgb(93,93,94)" stroke-width="0.6" opacity="1" d="M 261.5 38 L 275 38.5 L 261.5 39 L 261.5 38 Z " /><path fill="rgb(93,93,94)" stroke="rgb(93,93,94)" stroke-width="0.6" opacity="1" d="M 242.5 46 L 265 46.5 L 242.5 47 L 242.5 46 Z " /><path fill="rgb(93,93,94)" stroke="rgb(93,93,94)" stroke-width="0.6" opacity="1" d="M 282.5 48 L 289 48.5 L 282 50.5 L 281.5 52 L 281 49.5 L 282.5 48 Z " /><path fill="rgb(93,93,94)" stroke="rgb(93,93,94)" stroke-width="0.6" opacity="1" d="M 275.5 54 L 281.5 61 L 275.5 54 Z " /><path fill="rgb(93,93,94)" stroke="rgb(93,93,94)" stroke-width="0.6" opacity="1" d="M 178.5 60 L 181 60.5 L 172.5 64 L 172.5 63 L 178.5 60 Z " /><path fill="rgb(93,93,94)" stroke="rgb(93,93,94)" stroke-width="0.6" opacity="1" d="M 340.5 63 L 343 67.5 L 340 69.5 L 342 65.5 L 340.5 63 Z " /><path fill="rgb(93,93,94)" stroke="rgb(93,93,94)" stroke-width="0.6" opacity="1" d="M 255.5 74 L 245.5 85 L 255.5 74 Z " /><path fill="rgb(93,93,94)" stroke="rgb(93,93,94)" stroke-width="0.6" opacity="1" d="M 389.5 92 L 394.5 98 L 389.5 92 Z " /><path fill="rgb(93,93,94)" stroke="rgb(93,93,94)" stroke-width="0.6" opacity="1" d="M 120.5 95 L 119 97.5 L 121 100.5 L 118.5 101 L 118 98.5 L 120.5 95 Z " /><path fill="rgb(93,93,94)" stroke="rgb(93,93,94)" stroke-width="0.6" opacity="1" d="M 106.5 96 L 97.5 106 L 106.5 96 Z " /><path fill="rgb(93,93,94)" stroke="rgb(93,93,94)" stroke-width="0.6" opacity="1" d="M 412.5 103 L 419.5 111 L 412.5 103 Z " /><path fill="rgb(93,93,94)" stroke="rgb(93,93,94)" stroke-width="0.6" opacity="1" d="M 402.5 104 L 407.5 110 L 402.5 104 Z " /><path fill="rgb(93,93,94)" stroke="rgb(93,93,94)" stroke-width="0.6" opacity="1" d="M 408.5 111 L 413.5 117 L 408.5 111 Z " /><path fill="rgb(93,93,94)" stroke="rgb(93,93,94)" stroke-width="0.6" opacity="1" d="M 254.5 118 L 263 127.5 L 257 122.5 L 254.5 118 Z " /><path fill="rgb(93,93,94)" stroke="rgb(93,93,94)" stroke-width="0.6" opacity="1" d="M 249.5 124 L 251 128.5 L 247 131.5 Q 250.8 130.8 250 125.5 L 249.5 124 Z " /><path fill="rgb(93,93,94)" stroke="rgb(93,93,94)" stroke-width="0.6" opacity="1" d="M 345.5 132 L 339.5 139 L 345.5 132 Z " /><path fill="rgb(93,93,94)" stroke="rgb(93,93,94)" stroke-width="0.6" opacity="1" d="M 226.5 154 L 221.5 160 L 226.5 154 Z " /><path fill="rgb(93,93,94)" stroke="rgb(93,93,94)" stroke-width="0.6" opacity="1" d="M 214.5 156 L 207.5 164 L 214.5 156 Z " /><path fill="rgb(93,93,94)" stroke="rgb(93,93,94)" stroke-width="0.6" opacity="1" d="M 422.5 156 L 435.5 170 L 422.5 156 Z " /><path fill="rgb(93,93,94)" stroke="rgb(93,93,94)" stroke-width="0.6" opacity="1" d="M 415.5 158 L 429.5 173 L 415.5 158 Z " /><path fill="rgb(93,93,94)" stroke="rgb(93,93,94)" stroke-width="0.6" opacity="1" d="M 217.5 162 L 197.5 183 L 217.5 162 Z " /><path fill="rgb(93,93,94)" stroke="rgb(93,93,94)" stroke-width="0.6" opacity="1" d="M 199.5 171 L 188.5 183 L 199.5 171 Z " /><path fill="rgb(93,93,94)" stroke="rgb(93,93,94)" stroke-width="0.6" opacity="1" d="M 195.5 185 L 190.5 191 L 195.5 185 Z " /><path fill="rgb(93,93,94)" stroke="rgb(93,93,94)" stroke-width="0.6" opacity="1" d="M 185.5 186 L 180.5 192 L 185.5 186 Z " /><path fill="rgb(93,93,94)" stroke="rgb(93,93,94)" stroke-width="0.6" opacity="1" d="M 457.5 193 L 459 199.5 Q 456.5 203.5 454 197.5 L 452 194.5 L 456.5 198 Q 459.1 198.8 458 195.5 L 457.5 193 Z " /><path fill="rgb(93,93,94)" stroke="rgb(93,93,94)" stroke-width="0.6" opacity="1" d="M 38.5 232 L 39 242.5 L 38 242.5 L 38.5 232 Z " /><path fill="rgb(93,93,94)" stroke="rgb(93,93,94)" stroke-width="0.6" opacity="1" d="M 45.5 243 L 46 270.5 L 45 270.5 L 45.5 243 Z " /><path fill="rgb(93,93,94)" stroke="rgb(93,93,94)" stroke-width="0.6" opacity="1" d="M 37.5 247 L 38 265.5 L 37 265.5 L 37.5 247 Z " /><path fill="rgb(93,93,94)" stroke="rgb(93,93,94)" stroke-width="0.6" opacity="1" d="M 467.5 251 L 468 264.5 L 467 264.5 L 467.5 251 Z " /><path fill="rgb(93,93,94)" stroke="rgb(93,93,94)" stroke-width="0.6" opacity="1" d="M 114.5 354 L 115 364.5 L 114 364.5 L 114.5 354 Z " /><path fill="rgb(93,93,94)" stroke="rgb(93,93,94)" stroke-width="0.6" opacity="1" d="M 412.5 398 L 402.5 409 L 412.5 398 Z " /><path fill="rgb(93,93,94)" stroke="rgb(93,93,94)" stroke-width="0.6" opacity="1" d="M 90.5 400 L 96.5 407 L 90.5 400 Z " /><path fill="rgb(93,93,94)" stroke="rgb(93,93,94)" stroke-width="0.6" opacity="1" d="M 102.5 400 L 110.5 406 L 113 404.5 L 111.5 407 L 108.5 407 L 102.5 400 Z " /><path fill="rgb(93,93,94)" stroke="rgb(93,93,94)" stroke-width="0.6" opacity="1" d="M 415.5 406 L 403.5 419 L 415.5 406 Z " /><path fill="rgb(93,93,94)" stroke="rgb(93,93,94)" stroke-width="0.6" opacity="1" d="M 122.5 414 L 127 421.5 L 124 419.5 L 122.5 414 Z " /><path fill="rgb(93,93,94)" stroke="rgb(93,93,94)" stroke-width="0.6" opacity="1" d="M 110.5 420 L 116.5 427 L 110.5 420 Z " /><path fill="rgb(93,93,94)" stroke="rgb(93,93,94)" stroke-width="0.6" opacity="1" d="M 368.5 433 L 366.5 436 L 362.5 438 L 363.5 436 L 368.5 433 Z " /><path fill="rgb(93,93,94)" stroke="rgb(93,93,94)" stroke-width="0.6" opacity="1" d="M 303.5 442 L 289.5 457 L 303.5 442 Z " /><path fill="rgb(93,93,94)" stroke="rgb(93,93,94)" stroke-width="0.6" opacity="1" d="M 284.5 459 L 283 461.5 L 284.5 464 L 287 464.5 L 284.5 465 L 282 461.5 L 284.5 459 Z " /><path fill="rgb(93,93,94)" stroke="rgb(93,93,94)" stroke-width="0.6" opacity="1" d="M 238.5 466 L 250 466.5 L 238.5 467 L 238.5 466 Z " /><path fill="rgb(178,170,154)" stroke="rgb(178,170,154)" stroke-width="0.6" opacity="1" d="M 248.5 36 L 259 36.5 L 248.5 37 L 248.5 36 Z " /><path fill="rgb(178,170,154)" stroke="rgb(178,170,154)" stroke-width="0.6" opacity="1" d="M 284.5 50 L 321.5 57 L 341 65.5 L 338.5 70 L 328.5 74 L 316 68.5 L 318.5 68 Q 322.2 73.3 332.5 72 L 340 66.5 L 337.5 64 L 321.5 58 L 286.5 51 L 285 53.5 L 293.5 63 L 295 63.5 L 293.5 64 L 283 51.5 L 284.5 50 Z " /><path fill="rgb(178,170,154)" stroke="rgb(178,170,154)" stroke-width="0.6" opacity="1" d="M 297.5 64 L 304.5 64 L 315 67.5 L 311.5 68 Q 306.6 64.4 297.5 65 L 297.5 64 Z " /><path fill="rgb(178,170,154)" stroke="rgb(178,170,154)" stroke-width="0.6" opacity="1" d="M 199.5 87 L 219 88.5 L 186.5 89 L 186.5 88 L 199.5 87 Z " /><path fill="rgb(178,170,154)" stroke="rgb(178,170,154)" stroke-width="0.6" opacity="1" d="M 399.5 88 L 406.5 96 L 399.5 88 Z " /><path fill="rgb(178,170,154)" stroke="rgb(178,170,154)" stroke-width="0.6" opacity="1" d="M 223.5 89 L 236.5 90 L 241 93.5 L 240 107.5 L 249 127.5 Q 220.2 147.7 196 172.5 Q 157 213 131 266.5 Q 120.7 287.7 114 312.5 L 107 344.5 L 105.5 365 L 104 359.5 L 109 326.5 L 111 323.5 L 116 301.5 Q 125.6 271.6 140 246.5 Q 168.8 195.3 210.5 157 L 232 141 L 233.5 139 L 248 127.5 L 240 112.5 L 239 97.5 L 240 94.5 L 235.5 91 L 223.5 90 L 223.5 89 Z " /><path fill="rgb(178,170,154)" stroke="rgb(178,170,154)" stroke-width="0.6" opacity="1" d="M 170.5 90 L 174 90.5 L 147.5 97 L 147.5 96 L 170.5 90 Z " /><path fill="rgb(178,170,154)" stroke="rgb(178,170,154)" stroke-width="0.6" opacity="1" d="M 105.5 95 L 96.5 105 L 105.5 95 Z " /><path fill="rgb(178,170,154)" stroke="rgb(178,170,154)" stroke-width="0.6" opacity="1" d="M 143.5 97 L 146 97.5 Q 111.2 108.7 89 132.5 Q 66.3 161.3 55 201.5 L 49 236.5 L 48 266.5 Q 57 355 107.5 402 L 109.5 401 L 110 404 L 107.5 404 L 102 398.5 Q 73.3 368.2 58 324.5 L 51 299.5 L 47 272.5 L 47 241.5 L 49 233.5 L 50 217.5 Q 53.8 210.8 54 200.5 L 65 170.5 Q 77.6 140.1 100.5 120 Q 119.1 105.6 143.5 97 Z " /><path fill="rgb(178,170,154)" stroke="rgb(178,170,154)" stroke-width="0.6" opacity="1" d="M 395.5 100 L 406 109.5 L 407 111.5 L 395.5 100 Z " /><path fill="rgb(178,170,154)" stroke="rgb(178,170,154)" stroke-width="0.6" opacity="1" d="M 413.5 102 L 420.5 110 L 413.5 102 Z " /><path fill="rgb(178,170,154)" stroke="rgb(178,170,154)" stroke-width="0.6" opacity="1" d="M 67.5 143 L 66 145.5 L 63.5 150 L 64 148.5 L 67.5 143 Z " /><path fill="rgb(178,170,154)" stroke="rgb(178,170,154)" stroke-width="0.6" opacity="1" d="M 304.5 155 L 316 155.5 L 304.5 156 L 304.5 155 Z " /><path fill="rgb(178,170,154)" stroke="rgb(178,170,154)" stroke-width="0.6" opacity="1" d="M 460.5 174 L 464 182.5 L 463 182.5 L 460.5 174 Z " /><path fill="rgb(178,170,154)" stroke="rgb(178,170,154)" stroke-width="0.6" opacity="1" d="M 35.5 247 L 36 264.5 L 35 264.5 L 35.5 247 Z " /><path fill="rgb(178,170,154)" stroke="rgb(178,170,154)" stroke-width="0.6" opacity="1" d="M 476.5 261 L 477 273.5 L 476 273.5 L 476.5 261 Z " /><path fill="rgb(178,170,154)" stroke="rgb(178,170,154)" stroke-width="0.6" opacity="1" d="M 344.5 265 L 346 285.5 L 344.5 293 L 344.5 265 Z " /><path fill="rgb(178,170,154)" stroke="rgb(178,170,154)" stroke-width="0.6" opacity="1" d="M 116.5 363 L 117 380.5 L 116 380.5 L 115 369.5 L 116.5 363 Z " /><path fill="rgb(178,170,154)" stroke="rgb(178,170,154)" stroke-width="0.6" opacity="1" d="M 104 371 L 106 371.5 L 106 382.5 L 108 396.5 L 110 399.5 L 108 400 L 104 371 Z " /><path fill="rgb(178,170,154)" stroke="rgb(178,170,154)" stroke-width="0.6" opacity="1" d="M 88.5 400 L 94.5 407 L 88.5 400 Z " /><path fill="rgb(178,170,154)" stroke="rgb(178,170,154)" stroke-width="0.6" opacity="1" d="M 417.5 406 L 404.5 420 L 417.5 406 Z " /><path fill="rgb(178,170,154)" stroke="rgb(178,170,154)" stroke-width="0.6" opacity="1" d="M 108.5 420 L 115.5 428 L 108.5 420 Z " /><path fill="rgb(178,170,154)" stroke="rgb(178,170,154)" stroke-width="0.6" opacity="1" d="M 291.5 443 L 285.5 450 L 291.5 443 Z " /><path fill="rgb(178,170,154)" stroke="rgb(178,170,154)" stroke-width="0.6" opacity="1" d="M 250.5 464 L 263 464.5 L 250.5 465 L 250.5 464 Z " /><path fill="rgb(178,170,154)" stroke="rgb(178,170,154)" stroke-width="0.6" opacity="1" d="M 196.5 468 L 205 470.5 L 202.5 471 L 196.5 469 L 196.5 468 Z " /><path fill="rgb(178,170,154)" stroke="rgb(178,170,154)" stroke-width="0.6" opacity="1" d="M 234.5 475 L 277 475.5 L 234.5 476 L 234.5 475 Z " /><path fill="rgb(203,65,61)" stroke="rgb(203,65,61)" stroke-width="0.6" opacity="1" d="M 350.5 73 L 356.5 74 L 377.5 86 L 407 112.5 Q 435.9 143.1 452 186.5 L 448 183.5 Q 438.7 166.8 424.5 155 Q 409.1 140.9 390 130.5 L 391.5 130 Q 418.9 145.6 439 168.5 L 449.5 183 L 450 181.5 L 423 133.5 L 398.5 105 Q 379.6 84.4 350.5 74 L 342 79.5 L 350 86.5 Q 360.8 95.7 363 113.5 L 362 116.5 L 372 121.5 L 370.5 122 L 361 117.5 Q 362.6 106.9 359 101.5 L 344.5 82 L 340 79.5 L 341.5 77 Q 348.6 77.6 350.5 73 Z " /><path fill="rgb(203,65,61)" stroke="rgb(203,65,61)" stroke-width="0.6" opacity="1" d="M 351.5 81 L 361.5 87 L 366 86 L 364.5 88 L 362 89 Q 363.5 95.4 360.5 95 L 357.5 89 L 355 87.5 L 351.5 81 Z " /><path fill="rgb(203,65,61)" stroke="rgb(203,65,61)" stroke-width="0.6" opacity="1" d="M 367 105 Q 370.3 103.7 369 108.5 L 371 113.5 L 368.5 115 L 367 113.5 L 367 105 Z " /><path fill="rgb(203,65,61)" stroke="rgb(203,65,61)" stroke-width="0.6" opacity="1" d="M 373.5 122 L 384.5 126 L 389 129.5 L 387.5 129 L 373.5 123 L 373.5 122 Z " /><path fill="rgb(203,65,61)" stroke="rgb(203,65,61)" stroke-width="0.6" opacity="1" d="M 413.5 129 L 430 153 L 422 148.5 L 420.5 146 L 418 144.5 L 416.5 142 L 409 138 L 413.5 129 Z " /><path fill="rgb(203,65,61)" stroke="rgb(203,65,61)" stroke-width="0.6" opacity="1" d="M 254.5 137 L 258.5 137 Q 271.7 148.8 291.5 154 Q 301.8 157.3 316.5 156 L 318.5 155 L 323 158.5 Q 334.4 187.1 340 221.5 L 344 260.5 L 344 296.5 L 339 338.5 L 335 349.5 L 331 369.5 L 323 392.5 Q 308.8 427.3 283.5 451 L 270.5 461 L 263.5 464 L 242.5 464 L 228 462.5 L 266.5 462 Q 282.2 453.2 293 439.5 L 314 408.5 L 330 368.5 L 340 324.5 L 343 292.5 L 343 265.5 L 342 264.5 L 342 244.5 L 336 206.5 Q 330.6 179.4 320.5 157 L 306.5 158 L 284.5 153 Q 269.8 148.2 259.5 139 L 254.5 138 Q 224.4 157.4 201 183.5 Q 160.3 225.8 136 284.5 L 128 306.5 L 121 334.5 L 118 364.5 L 118 383.5 L 121 402.5 L 127 416.5 L 135.5 426 L 160 441.5 L 158.5 441 Q 141 434 129 421.5 L 119 398.5 Q 114.9 381.1 117 357.5 L 120 333.5 L 128 302.5 Q 139.9 268.4 157 239.5 Q 185.2 194.7 223.5 160 L 254.5 137 Z " /><path fill="rgb(203,65,61)" stroke="rgb(203,65,61)" stroke-width="0.6" opacity="1" d="M 314.5 162 L 318 163.5 L 319 172 L 317 170.5 L 312 166.5 L 314.5 162 Z " /><path fill="rgb(203,65,61)" stroke="rgb(203,65,61)" stroke-width="0.6" opacity="1" d="M 194.5 199 L 196 199.5 L 190.5 207 L 190 204.5 L 194.5 199 Z " /><path fill="rgb(203,65,61)" stroke="rgb(203,65,61)" stroke-width="0.6" opacity="1" d="M 185 209 Q 188.7 207.5 188 210.5 L 183.5 216 L 182 214.5 L 185 209 Z " /><path fill="rgb(203,65,61)" stroke="rgb(203,65,61)" stroke-width="0.6" opacity="1" d="M 161.5 246 Q 164.1 245.2 163 248.5 L 159.5 253 Q 156.5 253.9 158 249.5 L 161.5 246 Z " /><path fill="rgb(203,65,61)" stroke="rgb(203,65,61)" stroke-width="0.6" opacity="1" d="M 290.5 431 Q 293.1 430.2 292 433.5 L 289 435 L 287.5 438 L 286 436 L 289 434.5 L 290.5 431 Z " /><path fill="rgb(203,65,61)" stroke="rgb(203,65,61)" stroke-width="0.6" opacity="1" d="M 161.5 442 L 169 445.5 L 167.5 446 L 161.5 442 Z " /><path fill="rgb(203,65,61)" stroke="rgb(203,65,61)" stroke-width="0.6" opacity="1" d="M 170.5 446 Q 177.1 445.4 179 449.5 L 177.5 450 L 170.5 446 Z " /><path fill="rgb(203,65,61)" stroke="rgb(203,65,61)" stroke-width="0.6" opacity="1" d="M 180.5 450 L 184.5 450 L 190 453.5 L 188.5 454 L 180.5 451 L 180.5 450 Z " /><path fill="rgb(203,65,61)" stroke="rgb(203,65,61)" stroke-width="0.6" opacity="1" d="M 191.5 454 L 196.5 454 L 204 457.5 L 201.5 458 L 191.5 455 L 191.5 454 Z " /><path fill="rgb(203,65,61)" stroke="rgb(203,65,61)" stroke-width="0.6" opacity="1" d="M 205.5 458 L 211.5 458 L 225 461.5 L 219.5 462 Q 214.6 458.4 205.5 459 L 205.5 458 Z " /><path fill="rgb(208,208,208)" stroke="rgb(208,208,208)" stroke-width="0.6" opacity="1" d="M 232.5 36 L 248 36.5 L 220.5 39 L 220.5 38 L 232.5 36 Z " /><path fill="rgb(208,208,208)" stroke="rgb(208,208,208)" stroke-width="0.6" opacity="1" d="M 259.5 36 L 281.5 36 L 301 39.5 L 294.5 40 Q 280.2 35.3 259.5 37 L 259.5 36 Z " /><path fill="rgb(208,208,208)" stroke="rgb(208,208,208)" stroke-width="0.6" opacity="1" d="M 212.5 39 L 219 39.5 L 212.5 40 L 188.5 47 L 189.5 45 L 212.5 39 Z " /><path fill="rgb(208,208,208)" stroke="rgb(208,208,208)" stroke-width="0.6" opacity="1" d="M 302.5 40 L 307.5 40 L 317 43.5 L 312.5 44 L 302.5 41 L 302.5 40 Z " /><path fill="rgb(208,208,208)" stroke="rgb(208,208,208)" stroke-width="0.6" opacity="1" d="M 318.5 44 L 343.5 52 L 374.5 68 Q 397.8 83.7 417 103.5 L 437 128.5 L 434 126.5 Q 419.2 104.8 399.5 88 Q 381.4 71.6 358.5 60 Q 340.3 50.7 318.5 45 L 318.5 44 Z " /><path fill="rgb(208,208,208)" stroke="rgb(208,208,208)" stroke-width="0.6" opacity="1" d="M 179.5 48 L 182 48.5 Q 130.2 67.7 96 104.5 Q 67.4 134.4 50 175.5 L 38 217.5 L 37 237.5 L 35 247.5 L 35 264.5 L 38 294.5 L 49 334.5 L 65 367.5 L 88 400.5 L 98.5 412 Q 134.2 450.3 191 467.5 L 187.5 468 L 166.5 460 L 131.5 441 Q 108.3 425.3 90 404.5 L 61 362.5 L 44 323.5 L 44 319.5 L 40 309.5 L 40 302.5 L 37 296.5 L 34 268.5 L 34 245.5 L 36 236.5 L 37 215.5 L 52 167.5 Q 73.3 122.3 108.5 91 L 140.5 67 L 179.5 48 Z " /><path fill="rgb(208,208,208)" stroke="rgb(208,208,208)" stroke-width="0.6" opacity="1" d="M 437.5 130 L 445 140.5 L 444 140.5 L 437.5 130 Z " /><path fill="rgb(208,208,208)" stroke="rgb(208,208,208)" stroke-width="0.6" opacity="1" d="M 445.5 142 Q 461.8 164.7 469 196.5 L 468 196.5 L 468 192.5 L 460 170.5 L 445.5 142 Z " /><path fill="rgb(208,208,208)" stroke="rgb(208,208,208)" stroke-width="0.6" opacity="1" d="M 469.5 198 Q 473.9 202.6 473 212.5 L 472 212.5 L 469.5 198 Z " /><path fill="rgb(208,208,208)" stroke="rgb(208,208,208)" stroke-width="0.6" opacity="1" d="M 473.5 214 L 477 225.5 Q 474.9 238.6 479 245.5 L 479 267.5 L 477 275.5 L 476 295.5 Q 471.8 299.3 473 308.5 L 461 343.5 L 440 381.5 Q 424 403 404.5 421 L 383.5 437 L 383.5 436 Q 402.9 423.4 418 406.5 L 444 373.5 L 464 333.5 L 464 329.5 L 471 311.5 L 472 301.5 L 476 287.5 L 477 242.5 L 476 241.5 L 476 226.5 L 473.5 214 Z " /><path fill="rgb(208,208,208)" stroke="rgb(208,208,208)" stroke-width="0.6" opacity="1" d="M 381.5 437 L 378.5 441 L 357.5 453 L 357.5 452 L 381.5 437 Z " /><path fill="rgb(208,208,208)" stroke="rgb(208,208,208)" stroke-width="0.6" opacity="1" d="M 354.5 453 L 356 453.5 L 343.5 460 L 343.5 459 L 354.5 453 Z " /><path fill="rgb(208,208,208)" stroke="rgb(208,208,208)" stroke-width="0.6" opacity="1" d="M 338.5 460 L 342 460.5 L 319.5 468 L 319.5 467 L 338.5 460 Z " /><path fill="rgb(208,208,208)" stroke="rgb(208,208,208)" stroke-width="0.6" opacity="1" d="M 192.5 468 L 206 471.5 L 201.5 472 L 192.5 469 L 192.5 468 Z " /><path fill="rgb(208,208,208)" stroke="rgb(208,208,208)" stroke-width="0.6" opacity="1" d="M 314.5 468 L 318 468.5 L 308.5 472 L 286.5 476 L 277.5 476 L 277.5 475 L 302.5 472 L 314.5 468 Z " /><path fill="rgb(208,208,208)" stroke="rgb(208,208,208)" stroke-width="0.6" opacity="1" d="M 207.5 472 L 234.5 476 L 274 476.5 L 234.5 477 L 221.5 476 Q 216.8 472.2 207.5 473 L 207.5 472 Z " /><path fill="rgb(218,179,60)" stroke="rgb(218,179,60)" stroke-width="0.6" opacity="1" d="M 286.5 51 L 317 57.5 L 309.5 58 L 304.5 55 L 295.5 54 L 292.5 55 L 287 52 L 287 54.5 L 295.5 63 Q 308 61.5 314 66.5 L 311.5 67 Q 306.3 62.6 295.5 64 L 291 60.5 L 285 52.5 L 286.5 51 Z " /><path fill="rgb(218,179,60)" stroke="rgb(218,179,60)" stroke-width="0.6" opacity="1" d="M 318.5 58 L 332.5 62 L 340 66.5 Q 337 73.5 325.5 72 L 315 67.5 L 319.5 67 Q 322.6 72.4 332.5 71 L 338 67.5 Q 339.3 63.3 334.5 65 L 332.5 63 L 318.5 59 L 318.5 58 Z " /><path fill="rgb(218,179,60)" stroke="rgb(218,179,60)" stroke-width="0.6" opacity="1" d="M 180.5 89 L 222.5 89 L 235.5 91 L 240 94.5 L 239 108.5 L 248 127.5 Q 216.2 148.7 191 176.5 Q 149.7 220.2 124 279.5 L 109 326.5 L 104 359.5 L 104 376.5 L 107 395.5 L 106 395.5 Q 101.5 379 103 356.5 L 104 346.5 L 107 338.5 L 108 325.5 L 115 304.5 L 115 299.5 L 118 295.5 L 123 278.5 L 136 251.5 Q 163.9 199.9 204.5 161 L 246 128.5 L 238 110.5 L 237 99.5 L 238 94.5 L 234.5 92 L 218.5 90 L 183.5 90 L 175.5 91 L 168.5 94 L 161.5 94 L 151.5 98 L 146.5 98 L 130.5 106 L 127.5 106 Q 104.5 116.5 89 134.5 Q 77.7 148.2 70 165.5 L 57 199.5 L 52 221.5 Q 53.1 232.1 50 238.5 L 50 274.5 L 52 281.5 L 53 296.5 L 57 312.5 L 70 347.5 Q 83.8 377.2 105.5 399 L 107 397.5 L 108 397.5 L 109 402 L 98 392.5 Q 72.6 363.9 59 323.5 L 51 292.5 L 48 266.5 L 48 246.5 Q 55.1 165.6 99.5 122 L 124.5 106 L 143.5 98 L 180.5 89 Z " /><path fill="rgb(218,179,60)" stroke="rgb(218,179,60)" stroke-width="0.6" opacity="1" d="M 230.5 98 L 233 98.5 L 233 109 L 230 107.5 L 229 99.5 L 230.5 98 Z " /><path fill="rgb(218,179,60)" stroke="rgb(218,179,60)" stroke-width="0.6" opacity="1" d="M 96 366 L 98 366.5 L 98 379.5 Q 96 383 94 378.5 L 91 371.5 L 95 369.5 L 96 366 Z " /><path fill="rgb(181,133,131)" stroke="rgb(181,133,131)" stroke-width="0.6" opacity="1" d="M 349.5 72 L 358 73 Q 356.8 76 360.5 75 L 369 80.5 L 367.5 81 L 356.5 74 L 350.5 73 L 340.5 78 L 341.5 76 L 349.5 72 Z " /><path fill="rgb(181,133,131)" stroke="rgb(181,133,131)" stroke-width="0.6" opacity="1" d="M 340.5 80 L 348 85.5 L 346.5 86 L 340.5 80 Z " /><path fill="rgb(181,133,131)" stroke="rgb(181,133,131)" stroke-width="0.6" opacity="1" d="M 370.5 81 L 379 86.5 L 377.5 86 L 370.5 81 Z " /><path fill="rgb(181,133,131)" stroke="rgb(181,133,131)" stroke-width="0.6" opacity="1" d="M 348.5 87 Q 357.8 95 361 108 Q 357.7 109.3 359 104.5 L 348.5 87 Z " /><path fill="rgb(181,133,131)" stroke="rgb(181,133,131)" stroke-width="0.6" opacity="1" d="M 380.5 88 L 395 99.5 L 393.5 100 L 380.5 88 Z " /><path fill="rgb(181,133,131)" stroke="rgb(181,133,131)" stroke-width="0.6" opacity="1" d="M 360.5 110 L 361 117.5 L 362.5 119 Q 368.3 118.2 370 121.5 L 368.5 121 L 362.5 120 L 360 117.5 L 360.5 110 Z " /><path fill="rgb(181,133,131)" stroke="rgb(181,133,131)" stroke-width="0.6" opacity="1" d="M 415.5 121 Q 430 135.7 438 156 L 440 156.5 Q 437 158.5 442 160.5 L 445 169 Q 448 167.8 447 171.5 L 450 177.5 L 448 176.5 L 434 148.5 L 415 122.5 L 415.5 121 Z " /><path fill="rgb(181,133,131)" stroke="rgb(181,133,131)" stroke-width="0.6" opacity="1" d="M 371.5 122 L 396 134.5 L 394.5 135 Q 385.5 127.5 372.5 124 L 371.5 122 Z " /><path fill="rgb(181,133,131)" stroke="rgb(181,133,131)" stroke-width="0.6" opacity="1" d="M 397.5 135 L 411 144.5 L 409.5 145 L 397.5 135 Z " /><path fill="rgb(181,133,131)" stroke="rgb(181,133,131)" stroke-width="0.6" opacity="1" d="M 259.5 136 L 267 141.5 L 265.5 142 L 259 137.5 L 259.5 136 Z " /><path fill="rgb(181,133,131)" stroke="rgb(181,133,131)" stroke-width="0.6" opacity="1" d="M 268.5 143 L 273.5 146 L 275 145.5 L 276.5 147 L 285.5 151 L 297 153 L 295.5 155 L 277.5 149 L 269.5 145 L 268.5 143 Z " /><path fill="rgb(181,133,131)" stroke="rgb(181,133,131)" stroke-width="0.6" opacity="1" d="M 412.5 146 L 421 152.5 L 419.5 153 L 412.5 146 Z " /><path fill="rgb(181,133,131)" stroke="rgb(181,133,131)" stroke-width="0.6" opacity="1" d="M 237.5 147 L 239 147.5 L 229.5 155 L 232.5 151 L 237.5 147 Z " /><path fill="rgb(181,133,131)" stroke="rgb(181,133,131)" stroke-width="0.6" opacity="1" d="M 316 154 L 321 154 L 322.5 156 Q 326 159 326 165.5 L 325 165.5 Q 324.6 158.9 320.5 156 L 317.5 155 L 316 155.5 L 316 154 Z " /><path fill="rgb(181,133,131)" stroke="rgb(181,133,131)" stroke-width="0.6" opacity="1" d="M 219.5 163 L 199.5 184 L 200 182.5 L 205.5 176 L 208 174.5 L 217.5 164 L 219.5 163 Z " /><path fill="rgb(181,133,131)" stroke="rgb(181,133,131)" stroke-width="0.6" opacity="1" d="M 433.5 164 L 451.5 187 L 452 183.5 L 450 179.5 L 452 180.5 L 454 186.5 L 450.5 188 L 433 165.5 L 433.5 164 Z " /><path fill="rgb(181,133,131)" stroke="rgb(181,133,131)" stroke-width="0.6" opacity="1" d="M 326.5 167 L 330 177.5 L 329 177.5 L 326.5 167 Z " /><path fill="rgb(181,133,131)" stroke="rgb(181,133,131)" stroke-width="0.6" opacity="1" d="M 330.5 179 L 338 205.5 L 336 204.5 L 330.5 179 Z " /><path fill="rgb(181,133,131)" stroke="rgb(181,133,131)" stroke-width="0.6" opacity="1" d="M 178.5 208 L 178 209.5 L 172.5 217 L 172 215.5 L 178.5 208 Z " /><path fill="rgb(181,133,131)" stroke="rgb(181,133,131)" stroke-width="0.6" opacity="1" d="M 338 214 Q 342 212.6 340 219.5 L 341 222.5 L 340 222.5 L 338 214 Z " /><path fill="rgb(181,133,131)" stroke="rgb(181,133,131)" stroke-width="0.6" opacity="1" d="M 170.5 218 L 171 219.5 L 157.5 239 L 157 237.5 L 170.5 218 Z " /><path fill="rgb(181,133,131)" stroke="rgb(181,133,131)" stroke-width="0.6" opacity="1" d="M 342 241 L 344 241.5 L 344 257.5 L 345 264.5 L 344 264.5 L 343 243.5 L 342 241 Z " /><path fill="rgb(181,133,131)" stroke="rgb(181,133,131)" stroke-width="0.6" opacity="1" d="M 154 242 L 156 242.5 Q 139.2 269.2 128.5 302 L 128 299.5 L 136 281.5 L 136 279.5 L 149 251 L 151 250.5 L 150.5 249 L 152 247.5 L 154 242 Z " /><path fill="rgb(181,133,131)" stroke="rgb(181,133,131)" stroke-width="0.6" opacity="1" d="M 344.5 293 L 345 299.5 L 344 314 Q 340.7 315.3 342 310.5 L 344.5 293 Z " /><path fill="rgb(181,133,131)" stroke="rgb(181,133,131)" stroke-width="0.6" opacity="1" d="M 127.5 303 L 128 304.5 L 123 319.5 L 118.5 343 L 118 337.5 L 123 314.5 L 127.5 303 Z " /><path fill="rgb(181,133,131)" stroke="rgb(181,133,131)" stroke-width="0.6" opacity="1" d="M 340.5 330 L 341 333.5 L 338.5 341 L 338 339.5 L 340.5 330 Z " /><path fill="rgb(181,133,131)" stroke="rgb(181,133,131)" stroke-width="0.6" opacity="1" d="M 338.5 342 L 339 343.5 L 337 350 L 335 349.5 L 338.5 342 Z " /><path fill="rgb(181,133,131)" stroke="rgb(181,133,131)" stroke-width="0.6" opacity="1" d="M 335.5 352 L 336 356.5 L 327 385.5 L 323.5 392 L 323 390.5 L 331 369.5 L 335.5 352 Z " /><path fill="rgb(181,133,131)" stroke="rgb(181,133,131)" stroke-width="0.6" opacity="1" d="M 116 353 Q 119.3 351.7 118 356.5 L 116.5 363 L 116 353 Z " /><path fill="rgb(181,133,131)" stroke="rgb(181,133,131)" stroke-width="0.6" opacity="1" d="M 116.5 381 L 119 398.5 L 124 412 Q 121 413.3 122 409.5 Q 115.1 398.6 116.5 381 Z " /><path fill="rgb(181,133,131)" stroke="rgb(181,133,131)" stroke-width="0.6" opacity="1" d="M 320.5 397 L 321 399.5 L 319.5 403 L 318 404.5 L 313.5 412 L 314 410.5 L 320.5 397 Z " /><path fill="rgb(181,133,131)" stroke="rgb(181,133,131)" stroke-width="0.6" opacity="1" d="M 124.5 413 L 129 421.5 L 127 420.5 Q 122.8 417.9 124.5 413 Z " /><path fill="rgb(181,133,131)" stroke="rgb(181,133,131)" stroke-width="0.6" opacity="1" d="M 312.5 413 L 313 414.5 L 311 419 Q 308 417.8 309 421.5 L 300.5 433 L 301 431.5 L 312.5 413 Z " /><path fill="rgb(181,133,131)" stroke="rgb(181,133,131)" stroke-width="0.6" opacity="1" d="M 130.5 423 L 140 430.5 L 138.5 431 L 130.5 423 Z " /><path fill="rgb(181,133,131)" stroke="rgb(181,133,131)" stroke-width="0.6" opacity="1" d="M 143.5 433 L 163 443.5 L 160.5 444 L 144.5 435 L 143.5 433 Z " /><path fill="rgb(181,133,131)" stroke="rgb(181,133,131)" stroke-width="0.6" opacity="1" d="M 164.5 444 L 177.5 450 L 205.5 459 Q 214.6 458.4 219.5 462 L 250 464.5 L 236.5 465 L 213.5 462 L 186 455 L 185.5 453 L 184 453.5 Q 184.9 450.1 179.5 452 L 166.5 447 L 164.5 444 Z " /><path fill="rgb(181,133,131)" stroke="rgb(181,133,131)" stroke-width="0.6" opacity="1" d="M 284.5 450 L 280.5 455 L 269.5 463 L 263.5 465 L 264.5 463 L 270.5 461 L 284.5 450 Z " /></svg>