<svg width="627" height="627" preserveAspectRatio="xMidYMid meet" viewBox="0 0 512 512" version="1.1" xmlns="http://www.w3.org/2000/svg" ><path fill="rgb(255,255,255)" stroke="rgb(255,255,255)" stroke-width="0.6" opacity="1" d="M 0 0 L 512 0 L 512 512 L 0 512 L 0 0 Z M 391 25 Q 344 39 315 71 L 291 68 L 256 69 L 235 75 L 226 80 L 223 80 Q 206 70 186 63 L 162 57 L 146 57 L 145 56 Q 129 54 122 59 Q 115 64 113 75 L 113 108 L 119 135 Q 128 160 144 179 L 143 192 L 144 218 Q 142 221 135 219 L 129 224 L 131 234 L 143 247 L 125 254 Q 120 256 124 258 L 138 253 L 144 267 L 155 275 L 156 277 L 143 285 L 138 291 L 161 279 L 206 299 L 199 309 L 167 341 L 151 362 Q 139 377 138 402 Q 130 403 127 398 Q 118 392 114 381 L 114 364 L 118 357 L 129 347 Q 137 341 139 330 Q 140 319 136 314 Q 130 305 118 303 Q 94 302 84 313 Q 61 330 57 366 Q 56 383 60 395 Q 65 410 74 421 Q 86 436 106 444 L 130 451 L 145 451 Q 144 461 149 468 L 162 477 L 175 481 L 186 482 L 216 481 L 230 475 L 246 484 L 267 487 Q 282 488 293 485 L 306 478 L 317 482 L 330 483 L 351 482 Q 361 480 368 474 L 380 474 L 393 468 Q 399 464 401 455 Q 403 440 397 434 L 383 422 L 389 408 L 389 383 Q 386 369 376 363 L 381 339 L 380 312 L 376 300 L 369 289 Q 392 277 411 261 L 427 244 Q 441 244 450 250 Q 454 251 453 249 Q 445 241 431 241 L 438 229 L 443 214 L 455 216 L 456 214 L 455 212 L 435 210 L 433 209 L 440 192 L 439 184 L 438 182 L 423 182 L 416 160 L 409 147 Q 420 126 422 97 L 421 61 Q 418 42 409 29 Q 404 22 391 25 Z " /><path fill="rgb(218,146,69)" stroke="rgb(218,146,69)" stroke-width="0.6" opacity="1" d="M 395.5 32 L 403 34.5 Q 411 48.5 414 67.5 L 414 103.5 L 411 119.5 L 401 143.5 L 401 147.5 L 413 174.5 L 414 185.5 L 419.5 191 L 429.5 190 L 431 195.5 Q 428.1 205.1 421.5 211 Q 379.1 212.6 355 232.5 Q 354.2 235.1 357.5 234 Q 381.5 219 416.5 215 L 418 220 L 431.5 217 L 433 221.5 L 421.5 238 L 410.5 236 L 383.5 236 L 380.5 238 L 363.5 239 L 354 242.5 L 355.5 245 L 375.5 241 L 415.5 241 L 417 243.5 L 408.5 253 Q 387.7 272.2 360.5 285 L 329.5 297 L 304.5 302 L 288.5 302 L 286 304.5 Q 290.5 309 301.5 307 L 305.5 305 L 308.5 306 L 320.5 304 L 340.5 297 L 361.5 292 Q 370.8 299.8 373 314.5 L 373 343.5 Q 369.4 348.4 370 357.5 L 358 392.5 L 354 409.5 L 353 426.5 L 350.5 429 L 345 430.5 L 346.5 433 Q 360.6 432.9 365 442.5 Q 368.8 448.2 369 457.5 Q 367.1 466.6 360.5 471 L 359 470.5 L 359 455.5 L 354.5 449 L 353 451.5 L 356 460.5 L 353 471.5 L 350.5 474 Q 345.3 477 337 476 L 340 464.5 L 336 452 Q 331.9 450.3 333 454.5 Q 337.2 458.3 335 468.5 L 329.5 475 Q 316.4 476.8 311 472 Q 314.2 466 314 455.5 L 308 439.5 L 303.5 435 L 298 431.5 L 298 421.5 L 301 409.5 Q 305.1 397.1 313.5 389 L 334 373.5 L 343.5 358 L 349 354.5 L 353 341.5 L 355.5 339 L 359 337.5 L 361 329.5 L 360 327.5 L 361 324.5 L 358 313.5 L 353.5 307 Q 349.3 305.7 351 310.5 L 355 317.5 L 356 332.5 L 354.5 332 L 348.5 329 L 347 332.5 L 348 344.5 L 345 352 L 343 350.5 L 341 347 L 337 348.5 L 336 360.5 Q 331.6 370.6 323.5 377 L 313.5 383 L 310 374 L 307 375.5 L 307 387.5 L 297 405.5 L 295 415 Q 291.7 416.3 293 411.5 L 287 383.5 L 285.5 382 L 282 384.5 L 284 393.5 L 283 398.5 L 285 401.5 L 285 410.5 L 289 428.5 L 284 431.5 L 295.5 437 L 305 446.5 Q 308.5 453 307 464.5 L 299.5 474 L 294.5 476 L 293 473.5 L 295 466.5 L 293 457.5 L 288.5 452 L 286 453.5 L 290 463.5 L 290 471.5 L 284.5 479 L 270.5 479 L 269 477.5 L 270 466.5 L 265 455 Q 260.9 453.3 262 457.5 Q 266.8 462.7 265 474.5 L 262.5 478 Q 241.5 479.5 234 467.5 L 229 454.5 L 229 445.5 L 223 420.5 L 223 409.5 L 216 383.5 L 216 365.5 L 213.5 361 L 212 362.5 L 212 372.5 L 210.5 374 L 202.5 369 L 202 371.5 L 213 390.5 L 219 429.5 L 216.5 430 Q 206.1 424.9 188.5 427 Q 174.1 429.1 165 436.5 L 166.5 439 L 183.5 433 L 202.5 432 Q 216.2 433.3 222 442.5 Q 221.8 457.7 227 467.5 Q 224 472.5 216.5 473 L 215 470.5 L 217 462.5 Q 216.6 453.9 211.5 450 L 209 451.5 Q 213.7 456.3 212 467.5 L 207.5 474 L 193.5 475 L 193 472.5 L 194 462.5 L 190 452 Q 185.5 450.3 187 455.5 L 188 456.5 L 188 472.5 L 184.5 475 Q 165.4 473.6 155 463.5 Q 152.1 457.9 153 448.5 L 147 437.5 L 145 429.5 L 145 397.5 Q 146.9 386.4 152.5 379 L 157.5 381 L 186.5 382 L 191 378.5 Q 189.2 365.8 180.5 360 L 167 355.5 L 167 353.5 L 174 346.5 L 181 337 L 184 338.5 Q 186.1 348.4 193.5 353 Q 195.5 356 201.5 355 L 203 353.5 L 204 314.5 L 213 300 L 218.5 299 L 241.5 305 L 264.5 306 Q 268 304 263.5 302 L 250.5 301 L 215.5 293 L 189.5 284 L 172 275.5 L 173.5 274 L 192.5 266 L 215.5 261 L 228.5 261 L 233 258.5 L 229.5 256 L 226.5 257 L 223.5 256 L 198.5 260 L 179.5 266 L 168.5 272 L 164.5 272 L 150 262.5 L 147 257.5 L 149.5 255 Q 158.4 256.2 162 254 L 160.5 251 L 159 250.5 L 164.5 247 L 216.5 247 L 220.5 249 L 230.5 250 Q 234 248 229.5 246 L 209.5 242 L 179.5 242 L 178.5 243 L 160.5 243 L 152.5 245 L 140 234.5 L 138 228 L 149.5 225 L 152 222.5 L 151 189.5 L 152 177.5 Q 139.7 162.8 131 144.5 L 121 108.5 L 122 103.5 L 120 97.5 L 121 96.5 L 121 78.5 L 123 70.5 L 126.5 66 Q 130.9 62.9 139.5 64 L 140.5 65 L 159.5 65 L 180.5 70 L 197.5 76 L 222.5 89 L 225.5 89 L 228.5 87 Q 238.3 99.2 243 116.5 L 251.5 126 L 257 122.5 L 259 121 Q 263.3 133.9 273.5 142 L 281.5 147 L 286.5 147 L 291 143.5 L 296 131.5 L 297 113 L 302.5 115 L 308 106.5 L 309 84.5 L 308 80 L 324 82 L 322 75.5 Q 349.9 44.9 395.5 32 Z M 390 51 L 373 61 L 356 80 L 349 92 L 349 96 Q 356 99 366 98 Q 367 101 364 100 L 362 103 L 370 107 Q 373 106 371 111 L 378 116 L 389 130 L 393 132 L 396 129 L 400 119 L 405 95 L 404 88 L 405 84 Q 404 66 398 54 Q 396 50 390 51 Z M 139 80 L 137 81 L 132 87 L 131 94 L 132 113 L 135 126 Q 141 145 152 159 L 158 163 L 172 140 L 173 134 L 177 131 L 181 126 L 180 123 Q 175 124 176 122 L 195 115 L 193 109 L 172 90 L 149 80 L 139 80 Z M 340 137 L 335 139 L 332 145 L 334 146 L 346 146 L 355 151 L 358 149 L 355 143 Q 350 137 340 137 Z M 222 156 L 214 160 L 207 170 L 209 174 L 212 174 Q 216 167 225 164 L 229 164 L 231 159 Q 228 155 222 156 Z M 345 172 L 337 175 L 328 184 L 323 198 L 324 211 L 327 219 L 337 226 L 347 226 L 354 223 L 363 209 L 363 203 L 356 190 L 347 185 Q 338 185 333 188 L 334 185 L 345 178 Q 355 177 359 182 Q 365 187 368 197 Q 371 212 363 217 L 365 220 L 377 213 Q 378 209 375 210 Q 371 208 375 207 L 373 194 L 367 182 Q 361 172 345 172 Z M 227 188 L 213 196 Q 208 202 206 214 Q 205 225 209 232 L 206 236 L 209 238 L 218 239 Q 223 241 222 238 L 219 235 Q 213 231 212 224 Q 210 211 215 205 L 226 195 L 230 194 Q 239 193 244 197 L 247 202 L 249 203 L 251 208 L 251 210 L 250 209 Q 245 202 236 200 L 224 204 L 218 216 Q 217 227 221 233 L 233 240 L 249 239 L 254 236 L 259 224 L 258 213 L 252 198 L 240 189 L 227 188 Z M 299 223 L 297 225 Q 288 224 284 227 L 276 234 L 277 241 Q 282 247 291 250 Q 294 249 293 252 L 298 254 L 297 258 L 286 265 L 272 265 L 263 261 L 260 258 L 261 255 L 260 252 L 252 254 L 248 260 L 250 262 L 254 259 L 263 267 L 275 271 L 281 283 Q 286 288 295 290 L 306 288 Q 315 282 317 269 L 332 261 L 339 250 L 342 252 L 344 251 L 342 245 L 337 243 L 331 245 L 333 249 L 331 254 L 319 262 L 306 261 L 302 258 Q 300 251 304 250 L 305 248 L 310 247 L 318 237 L 319 232 L 317 228 Q 311 222 299 223 Z M 258 321 L 256 323 L 256 332 L 263 346 L 272 353 L 276 352 L 286 363 L 288 362 L 280 349 L 277 346 L 274 348 L 273 349 Q 263 342 260 329 Q 262 320 258 321 Z " /><path fill="rgb(218,146,69)" stroke="rgb(218,146,69)" stroke-width="0.6" opacity="1" d="M 391.5 56 L 394 57.5 L 399 72.5 L 399 97.5 L 397 102.5 L 398 109.5 L 393 124 L 389.5 122 L 385 118.5 L 383.5 116 L 381 114.5 L 382 108.5 Q 378.8 103.5 372 103 L 373.5 101 L 375 97.5 Q 369.3 90.5 356 92 Q 362.3 75.1 376.5 65 L 391.5 56 Z " /><path fill="rgb(218,146,69)" stroke="rgb(218,146,69)" stroke-width="0.6" opacity="1" d="M 287 76 Q 298.7 74.4 304 80.5 L 305 86.5 L 304 94.5 L 305 102.5 L 302 111 L 298 108.5 L 287 76 Z " /><path fill="rgb(218,146,69)" stroke="rgb(218,146,69)" stroke-width="0.6" opacity="1" d="M 238.5 207 L 243 208 L 244 214.5 Q 243 218 237.5 217 Q 234.3 216.3 235 211.5 L 238.5 207 Z " /><path fill="rgb(0,0,0)" stroke="rgb(0,0,0)" stroke-width="0.6" opacity="1" d="M 392.5 25 Q 405.4 23.1 409 30.5 Q 424.1 53.9 422 94.5 L 419 115.5 L 415 130.5 L 409 142.5 L 409 148.5 L 415 159.5 L 419 170.5 L 420 180.5 L 422.5 183 L 436.5 183 L 439 185.5 Q 439 201 431 208.5 L 435.5 211 L 454 213 Q 455.3 216.3 450.5 215 L 441.5 214 L 437 228.5 L 430 238.5 L 430 243 L 424 244.5 L 405.5 264 Q 388.1 278.1 367 288.5 L 378 306.5 L 381 320.5 L 381 334.5 L 375 362.5 Q 392 373.5 389 404.5 L 382 422.5 L 395 432.5 Q 402.2 439.3 400 455.5 L 392.5 467 L 377.5 474 L 365.5 474 Q 360.5 479.5 351.5 481 L 329.5 482 L 328.5 481 L 315.5 481 L 305.5 477 Q 297.1 484.1 283.5 486 L 256.5 486 L 244.5 483 L 229.5 473 L 226.5 476 L 216.5 480 Q 207.5 478.5 203.5 482 L 187.5 482 L 184.5 480 L 172.5 480 L 163.5 477 L 152 469.5 L 147 462.5 L 146 451.5 L 144.5 450 L 127.5 450 L 107.5 444 Q 89.4 436.1 77 422.5 Q 66.8 411.2 61 395.5 L 58 382.5 L 58 365.5 Q 60.6 330.6 82.5 315 Q 93.5 303 117.5 304 Q 130.3 306.3 136 315.5 Q 139.4 320.6 138 330.5 L 129.5 345 L 119 353.5 Q 110.4 360.9 113 379.5 Q 115.8 390.8 123.5 397 Q 127.6 402.9 137.5 403 L 139 401.5 L 139 395.5 L 143 379.5 L 149 366.5 Q 169.6 335.1 198 311.5 L 207 297.5 L 178.5 287 L 160.5 278 L 140.5 289 L 142.5 286 L 157 277.5 L 154.5 273 L 146 267.5 L 139 256.5 L 139 252 L 125.5 256 L 126.5 254 L 141.5 249 L 144 246.5 L 132 233.5 L 130 223.5 L 133.5 220 L 143.5 220 L 145 218.5 L 143 193.5 Q 147.4 189.4 145 178.5 Q 126.7 158.3 118 128.5 L 113 103.5 L 113 78.5 L 115 69.5 L 121.5 60 L 127.5 57 L 145.5 57 L 146.5 58 L 162.5 58 L 186.5 64 L 222.5 81 L 225.5 81 L 236.5 75 L 254.5 70 L 267.5 70 L 270.5 68 L 288.5 68 L 315.5 72 Q 344.8 39.3 392.5 25 Z M 397 31 Q 349 44 320 77 L 322 81 L 314 79 Q 308 78 307 81 L 308 84 L 308 104 L 305 112 L 301 114 L 305 105 L 305 80 L 302 77 L 293 75 Q 287 74 286 77 L 298 109 L 296 112 L 295 132 L 290 144 L 287 146 Q 275 145 271 138 L 259 121 L 257 119 L 256 123 L 252 125 L 243 116 L 241 110 L 242 107 L 247 118 L 253 123 L 255 121 L 255 110 L 257 109 L 259 118 L 268 133 L 281 143 L 287 143 L 291 136 L 293 122 L 291 97 L 284 79 L 281 74 Q 275 73 274 76 L 265 76 L 263 78 Q 271 89 273 106 L 271 107 L 265 87 L 259 77 Q 245 78 236 83 L 232 88 L 230 86 L 226 88 L 223 88 L 190 72 L 170 66 L 153 64 L 127 65 Q 121 69 120 79 L 121 113 L 127 137 Q 136 160 151 178 L 150 191 L 151 223 L 137 228 L 139 235 L 153 246 Q 162 242 178 244 L 181 242 L 184 243 L 210 243 L 222 246 Q 227 244 226 248 L 208 246 L 167 246 L 156 250 L 159 251 L 160 254 Q 150 252 146 257 L 149 263 L 165 273 L 199 261 L 223 257 Q 231 255 233 259 L 232 260 L 218 260 L 193 265 L 172 274 L 170 276 L 190 285 L 217 294 L 260 303 Q 265 301 264 305 L 241 304 L 215 298 L 203 315 L 202 326 L 203 352 Q 202 355 197 354 L 185 341 L 187 339 L 191 348 L 197 352 L 200 351 L 199 339 L 199 324 L 200 323 Q 201 318 199 319 L 185 333 L 185 335 L 183 335 L 168 352 Q 163 354 166 356 L 152 375 L 153 377 Q 147 385 144 398 L 144 430 Q 146 441 152 448 Q 151 458 154 464 Q 164 475 187 475 L 189 472 L 189 457 L 187 454 L 189 453 L 193 462 Q 195 470 191 474 L 193 476 L 209 475 L 213 468 Q 215 458 211 454 L 213 452 L 216 461 Q 217 468 214 472 L 216 474 Q 225 474 228 468 L 224 457 L 222 441 L 212 433 L 199 431 L 180 433 L 169 438 L 167 437 Q 175 430 188 428 Q 209 426 220 432 L 214 391 L 206 376 L 202 372 L 204 370 L 212 375 L 213 366 Q 212 362 215 363 L 216 388 L 222 409 L 222 420 L 229 450 L 229 457 L 233 468 Q 240 481 263 479 L 266 474 L 265 463 L 266 460 L 269 466 L 268 478 L 269 480 L 286 479 L 290 474 Q 292 461 287 456 L 289 453 Q 293 457 294 465 Q 295 472 292 475 L 294 477 L 302 474 L 308 464 Q 309 452 305 446 Q 298 435 285 432 L 290 429 L 286 412 L 286 402 L 284 399 L 283 389 Q 282 383 285 382 L 287 387 L 293 416 Q 292 420 295 419 L 298 406 L 308 387 L 308 377 L 310 376 L 313 385 L 324 378 Q 334 371 338 357 L 338 349 L 340 348 L 341 351 L 345 353 Q 351 347 348 332 L 350 330 L 355 335 L 356 334 Q 358 317 352 310 L 353 308 Q 358 314 360 324 Q 361 332 358 337 L 354 338 L 348 355 Q 347 358 343 357 L 332 375 L 315 387 Q 298 401 297 432 L 304 436 Q 310 443 313 454 Q 314 465 310 472 Q 316 478 331 476 L 336 469 L 337 458 L 339 463 Q 340 470 336 474 L 338 477 L 351 475 L 356 467 L 355 456 L 356 452 L 359 458 L 358 471 L 361 472 Q 367 468 369 461 Q 371 445 363 439 L 356 433 L 347 432 L 345 431 Q 347 427 353 429 L 354 428 L 354 415 L 357 400 L 371 357 L 374 342 L 374 315 Q 371 299 362 291 L 321 303 L 303 306 L 290 306 L 288 303 L 304 303 Q 308 300 317 301 L 351 290 Q 383 277 407 256 L 418 243 L 417 241 L 407 240 Q 379 238 360 244 Q 355 245 356 242 L 368 239 L 380 239 L 383 237 L 411 237 L 422 239 L 434 222 L 433 217 Q 424 216 420 219 L 419 214 L 402 216 L 381 222 L 363 231 L 360 231 L 358 232 Q 381 213 422 212 Q 430 206 432 195 L 431 189 L 420 190 L 415 186 Q 412 163 402 148 L 402 144 L 412 120 L 415 95 L 414 64 L 412 54 L 404 35 Q 402 31 397 31 Z M 105 310 L 90 317 L 71 339 L 64 360 Q 61 397 78 416 Q 89 428 105 436 L 130 444 L 143 444 L 138 429 L 138 412 L 122 402 L 111 391 L 107 378 Q 105 360 113 353 L 119 348 Q 127 341 132 331 Q 133 319 128 315 L 122 310 L 105 310 Z M 374 369 L 366 385 L 361 404 L 359 431 L 363 432 Q 371 438 374 450 L 374 463 L 372 466 L 374 468 L 380 467 Q 385 464 386 456 L 385 448 L 383 446 L 385 445 Q 390 449 388 461 L 389 463 Q 393 461 394 455 Q 396 442 391 437 L 379 427 L 365 427 L 363 426 L 367 423 L 375 422 Q 381 416 383 405 Q 386 379 374 369 Z " /><path fill="rgb(0,0,0)" stroke="rgb(0,0,0)" stroke-width="0.6" opacity="1" d="M 389.5 52 Q 396.8 50.8 398 55.5 L 403 71.5 L 404 95.5 L 400 116.5 L 393.5 130 L 391.5 130 L 379 117.5 L 376.5 114 L 372 110.5 L 374 107 L 363 102.5 L 368 100 L 366.5 98 L 365.5 97 L 351.5 97 L 349 94.5 L 357 79.5 L 376.5 59 L 389.5 52 Z M 392 55 L 372 68 Q 361 78 355 92 Q 357 95 366 93 L 373 96 L 374 99 L 372 100 L 370 103 L 381 109 L 379 114 L 387 120 L 390 125 L 393 126 L 399 108 L 400 95 Q 403 70 394 57 Q 395 54 392 55 Z " /><path fill="rgb(0,0,0)" stroke="rgb(0,0,0)" stroke-width="0.6" opacity="1" d="M 137.5 81 L 148.5 81 L 171.5 91 L 193 109.5 L 194 113.5 L 191.5 116 Q 180.5 116.5 174 121.5 L 175.5 123 L 179 124 Q 179.8 129.5 174.5 131 L 171 133.5 L 173 136.5 L 156.5 162 Q 144.5 149.5 138 131.5 L 132 108.5 L 132 88.5 L 137.5 81 Z M 139 85 L 136 89 L 137 119 L 146 143 L 157 156 L 166 143 L 164 139 L 164 137 L 173 128 L 169 122 L 179 115 L 189 112 L 188 110 Q 178 97 164 90 L 150 85 L 139 85 Z " /><path fill="rgb(0,0,0)" stroke="rgb(0,0,0)" stroke-width="0.6" opacity="1" d="M 338.5 138 Q 350.9 137.1 355 144.5 L 357 148.5 L 354.5 150 Q 347.7 143 333 145 Q 332.3 140.3 336.5 139 L 338.5 138 Z " /><path fill="rgb(0,0,0)" stroke="rgb(0,0,0)" stroke-width="0.6" opacity="1" d="M 220.5 157 Q 228.3 155.3 230 159.5 L 228.5 163 Q 215.3 164.8 209.5 174 L 208 169.5 L 216.5 159 L 220.5 157 Z " /><path fill="rgb(0,0,0)" stroke="rgb(0,0,0)" stroke-width="0.6" opacity="1" d="M 344.5 173 Q 361.3 172.7 367 183.5 L 373 196.5 L 373 211 Q 377.1 209.7 376 213 L 365 218 Q 370.6 211.8 369 197.5 Q 366.4 185.6 357.5 180 L 347.5 177 Q 337.9 177.4 334 183.5 L 331 191 L 340.5 186 L 347.5 186 L 359 195.5 Q 362.8 200.2 361 210.5 L 353.5 222 L 344.5 226 L 337.5 226 L 327 216.5 Q 322.9 208.1 325 193.5 Q 327.9 181.9 336.5 176 L 344.5 173 Z M 346 191 Q 342 193 344 201 Q 346 204 353 202 Q 356 200 354 194 Q 352 190 346 191 Z " /><path fill="rgb(0,0,0)" stroke="rgb(0,0,0)" stroke-width="0.6" opacity="1" d="M 226.5 189 L 237.5 189 L 252 200.5 L 258 213.5 L 258 225.5 L 250.5 237 Q 243.3 239.8 232.5 239 L 221 230.5 Q 217.6 225.9 218 217.5 Q 219.8 208.3 226.5 204 Q 229.7 200.2 237.5 201 L 247 206.5 Q 254 212 252 226.5 L 250 231 L 253 229.5 L 255 217.5 Q 253.3 203.7 244.5 197 Q 239 192 226.5 194 L 215 202.5 Q 209.8 209.3 211 222.5 Q 212.6 232.9 220 237.5 L 217.5 238 L 208 237 Q 206.5 233.2 209.5 234 Q 212.8 232.3 209 230.5 Q 205.7 223.3 207 211.5 Q 209.4 198.9 218.5 193 L 226.5 189 Z M 239 206 L 237 207 L 234 212 L 235 216 L 239 218 L 244 217 Q 246 215 245 210 L 239 206 Z " /><path fill="rgb(0,0,0)" stroke="rgb(0,0,0)" stroke-width="0.6" opacity="1" d="M 298.5 224 Q 312.5 222 317 229.5 L 317 236.5 L 307.5 247 L 302 250.5 L 301 258.5 Q 306 264 317.5 263 Q 327.4 260.9 332 253.5 L 334 248.5 L 332 245.5 L 337.5 244 L 343 248.5 L 341.5 251 L 337.5 249 L 335 255.5 L 329.5 261 L 317 266.5 Q 314.6 281.6 303.5 288 L 293.5 289 Q 284.8 286.2 280 279.5 L 273.5 269 Q 261.5 268 256 260.5 L 254.5 258 L 249 260 L 251.5 255 L 258.5 253 Q 261.8 254.8 258 256.5 L 261.5 261 L 271.5 266 L 285.5 266 L 298 257.5 L 299 252.5 L 287.5 248 L 278 240.5 L 277 233.5 L 285.5 227 L 295.5 226 L 298.5 224 Z M 302 227 L 283 232 L 280 236 L 281 239 Q 286 245 295 247 Q 302 248 306 245 L 314 237 L 314 232 Q 311 226 302 227 Z M 294 266 L 281 272 L 282 277 L 292 284 Q 306 287 309 279 L 308 272 Q 305 265 294 266 Z " /><path fill="rgb(0,0,0)" stroke="rgb(0,0,0)" stroke-width="0.6" opacity="1" d="M 433 242 Q 444.3 242.5 451 248.5 L 449.5 248 L 433 244 L 433 242 Z " /><path fill="rgb(0,0,0)" stroke="rgb(0,0,0)" stroke-width="0.6" opacity="1" d="M 257 322 Q 261 320.6 259 327.5 L 264 341.5 L 272.5 350 Q 275.8 351.1 275 348.5 Q 277.5 344.5 280 350.5 L 284 358.5 L 278 353.5 L 276.5 351 L 271.5 352 L 264 345.5 L 257 332.5 L 257 322 Z " /><path fill="rgb(0,0,0)" stroke="rgb(0,0,0)" stroke-width="0.6" opacity="1" d="M 171.5 358 Q 179.9 359.1 184 364.5 Q 189 369.5 190 378.5 Q 188.3 382.8 180.5 381 L 179.5 380 L 157 380 Q 155.7 376.3 161.5 378 L 162.5 377 L 179.5 377 L 185.5 378 L 187 375.5 L 178.5 363 Q 172.3 361.6 171.5 358 Z " /><path fill="rgb(247,220,171)" stroke="rgb(247,220,171)" stroke-width="0.6" opacity="1" d="M 296.5 266 Q 304.6 267.4 308 273.5 Q 309.3 278.8 306.5 280 Q 303.5 286 292.5 284 L 283 276.5 L 282 271 L 296.5 266 Z " /><path fill="rgb(247,220,171)" stroke="rgb(247,220,171)" stroke-width="0.6" opacity="1" d="M 108.5 310 Q 124.3 308.3 129 317.5 L 132 327.5 L 129 335.5 L 119.5 346 L 112 352.5 L 106 367.5 L 106 377.5 L 110 390.5 L 122.5 404 L 130.5 409 L 133.5 409 L 137 412.5 L 137 427.5 L 142 442.5 Q 140 446 132.5 444 L 102.5 434 Q 89.3 427.3 80 416.5 Q 72.1 407.9 68 395.5 L 64 377.5 L 64 364.5 Q 65.8 349.3 72 338.5 L 88.5 319 Q 96.4 312.4 108.5 310 Z " /><path fill="rgb(247,220,171)" stroke="rgb(247,220,171)" stroke-width="0.6" opacity="1" d="M 374.5 371 L 381 381.5 L 383 400.5 L 380 412.5 L 373.5 422 Q 364.8 420.8 362 425.5 L 363.5 427 L 378.5 428 L 389 435.5 Q 395 441.5 393 455.5 L 390.5 460 L 388 459.5 L 388 448.5 L 384.5 443 L 382 444.5 Q 386 448 385 456.5 Q 384.1 463.1 379.5 466 L 374 465.5 L 374 446.5 L 365.5 433 L 359 429.5 L 361 407.5 L 367 384.5 L 372 372 L 374.5 371 Z " /><path fill="rgb(97,78,60)" stroke="rgb(97,78,60)" stroke-width="0.6" opacity="1" d="M 140.5 64 L 153 64.5 L 140.5 65 L 140.5 64 Z " /><path fill="rgb(97,78,60)" stroke="rgb(97,78,60)" stroke-width="0.6" opacity="1" d="M 120.5 79 L 121 96.5 L 120 96.5 L 120.5 79 Z " /><path fill="rgb(97,78,60)" stroke="rgb(97,78,60)" stroke-width="0.6" opacity="1" d="M 139.5 85 L 148.5 85 L 162.5 90 Q 175.8 96.2 185 106.5 L 188 113 Q 174.9 114 168 122.5 L 170.5 126 Q 173.1 125.2 172 128.5 L 164 136.5 L 164 139.5 L 165 143.5 L 157.5 155 L 154 153.5 Q 142.8 140.2 138 120.5 Q 133.9 107.6 136 88.5 L 139.5 85 Z " /><path fill="rgb(97,78,60)" stroke="rgb(97,78,60)" stroke-width="0.6" opacity="1" d="M 150.5 190 L 151 209.5 L 150 209.5 L 150.5 190 Z " /><path fill="rgb(97,78,60)" stroke="rgb(97,78,60)" stroke-width="0.6" opacity="1" d="M 346.5 191 Q 353 190 354 194.5 Q 355 201 350.5 202 L 345 200.5 L 344 193.5 L 346.5 191 Z " /><path fill="rgb(97,78,60)" stroke="rgb(97,78,60)" stroke-width="0.6" opacity="1" d="M 297.5 228 Q 309.6 225.9 314 231.5 Q 313.8 241.3 306.5 244 L 295.5 247 Q 286.1 244.9 281 238.5 Q 279.8 233.3 282.5 232 L 297.5 228 Z " /><path fill="rgb(97,78,60)" stroke="rgb(97,78,60)" stroke-width="0.6" opacity="1" d="M 383.5 236 L 411 236.5 L 383.5 237 L 383.5 236 Z " /><path fill="rgb(97,78,60)" stroke="rgb(97,78,60)" stroke-width="0.6" opacity="1" d="M 169.5 246 L 208 246.5 L 169.5 247 L 169.5 246 Z " /><path fill="rgb(97,78,60)" stroke="rgb(97,78,60)" stroke-width="0.6" opacity="1" d="M 272.5 265 L 283 265.5 L 272.5 266 L 272.5 265 Z " /><path fill="rgb(97,78,60)" stroke="rgb(97,78,60)" stroke-width="0.6" opacity="1" d="M 288.5 302 L 304 302.5 L 287.5 304 L 288.5 302 Z " /><path fill="rgb(97,78,60)" stroke="rgb(97,78,60)" stroke-width="0.6" opacity="1" d="M 290.5 306 L 302 306.5 L 290.5 307 L 290.5 306 Z " /><path fill="rgb(97,78,60)" stroke="rgb(97,78,60)" stroke-width="0.6" opacity="1" d="M 198.5 319 L 200 320.5 L 198.5 320 L 190 327.5 L 198.5 319 Z " /><path fill="rgb(97,78,60)" stroke="rgb(97,78,60)" stroke-width="0.6" opacity="1" d="M 373.5 319 L 374 338.5 L 373 338.5 L 373.5 319 Z " /><path fill="rgb(97,78,60)" stroke="rgb(97,78,60)" stroke-width="0.6" opacity="1" d="M 257.5 321 L 257 322.5 L 256.5 332 L 256 322.5 L 257.5 321 Z " /><path fill="rgb(97,78,60)" stroke="rgb(97,78,60)" stroke-width="0.6" opacity="1" d="M 202.5 325 L 203 339.5 L 202 339.5 L 202.5 325 Z " /><path fill="rgb(97,78,60)" stroke="rgb(97,78,60)" stroke-width="0.6" opacity="1" d="M 160.5 380 L 180 380.5 L 160.5 381 L 160.5 380 Z " /><path fill="rgb(97,78,60)" stroke="rgb(97,78,60)" stroke-width="0.6" opacity="1" d="M 144.5 401 L 145 428.5 L 144 428.5 L 144.5 401 Z " /><path fill="rgb(97,78,60)" stroke="rgb(97,78,60)" stroke-width="0.6" opacity="1" d="M 297.5 422 L 298 431.5 L 300 433.5 L 297 431.5 L 297.5 422 Z " /><path fill="rgb(97,78,60)" stroke="rgb(97,78,60)" stroke-width="0.6" opacity="1" d="M 188.5 427 L 207 427.5 L 188.5 428 L 188.5 427 Z " /><path fill="rgb(97,78,60)" stroke="rgb(97,78,60)" stroke-width="0.6" opacity="1" d="M 188.5 457 L 189 471.5 L 188 471.5 L 188.5 457 Z " /><path fill="rgb(234,148,160)" stroke="rgb(234,148,160)" stroke-width="0.6" opacity="1" d="M 275.5 75 Q 280.8 73.8 282 76.5 L 291 99.5 L 292 122.5 L 291 132.5 L 285.5 143 L 282.5 143 L 270 133.5 Q 261 122.5 256.5 107 L 255 108.5 Q 256.2 117.4 254 121 Q 249.3 121.8 248 117.5 L 234 89.5 L 234 85.5 Q 242.8 78.3 258.5 78 L 264 86.5 L 271.5 109 L 274 107.5 L 270 89.5 L 265 79.5 L 265 76 L 275.5 75 Z " /><path fill="rgb(234,148,160)" stroke="rgb(234,148,160)" stroke-width="0.6" opacity="1" d="M 198.5 321 L 200 349.5 L 196.5 351 Q 188.3 344.7 185 333.5 L 198.5 321 Z " /><path fill="rgb(234,148,160)" stroke="rgb(234,148,160)" stroke-width="0.6" opacity="1" d="M 164.5 358 Q 178 360.5 184 370.5 L 186 376.5 L 181.5 378 L 180.5 377 L 155.5 377 L 153 374.5 L 164.5 358 Z " /><path fill="rgb(30,30,30)" stroke="rgb(30,30,30)" stroke-width="0.6" opacity="1" d="M 323.5 63 L 315.5 72 L 323.5 63 Z " /><path fill="rgb(30,30,30)" stroke="rgb(30,30,30)" stroke-width="0.6" opacity="1" d="M 216.5 167 L 210.5 174 L 216.5 167 Z " /><path fill="rgb(30,30,30)" stroke="rgb(30,30,30)" stroke-width="0.6" opacity="1" d="M 312.5 279 L 305.5 287 L 312.5 279 Z " /><path fill="rgb(30,30,30)" stroke="rgb(30,30,30)" stroke-width="0.6" opacity="1" d="M 197.5 311 L 168.5 341 L 197.5 311 Z " /><path fill="rgb(30,30,30)" stroke="rgb(30,30,30)" stroke-width="0.6" opacity="1" d="M 189.5 347 L 192 347.5 Q 189.2 349.2 193.5 351 L 195 350.5 L 194.5 353 L 189.5 347 Z " /><path fill="rgb(30,30,30)" stroke="rgb(30,30,30)" stroke-width="0.6" opacity="1" d="M 278.5 354 L 283.5 359 L 286 359.5 L 285.5 362 L 278.5 354 Z " /><path fill="rgb(193,142,68)" stroke="rgb(193,142,68)" stroke-width="0.6" opacity="1" d="M 373.5 67 L 366.5 75 L 373.5 67 Z " /><path fill="rgb(193,142,68)" stroke="rgb(193,142,68)" stroke-width="0.6" opacity="1" d="M 217.5 167 L 211.5 174 L 217.5 167 Z " /><path fill="rgb(193,142,68)" stroke="rgb(193,142,68)" stroke-width="0.6" opacity="1" d="M 254.5 259 L 259.5 265 L 254.5 259 Z " /><path fill="rgb(193,142,68)" stroke="rgb(193,142,68)" stroke-width="0.6" opacity="1" d="M 278.5 355 L 286.5 362 L 288 361.5 L 285.5 363 L 278.5 355 Z " /><path fill="rgb(193,142,68)" stroke="rgb(193,142,68)" stroke-width="0.6" opacity="1" d="M 180.5 360 L 185.5 366 L 180.5 360 Z " /><path fill="rgb(62,62,60)" stroke="rgb(62,62,60)" stroke-width="0.6" opacity="1" d="M 232.5 86 L 242 105.5 L 240.5 105 L 239 104.5 L 239.5 103 L 238 101.5 L 233 92.5 L 233.5 91 L 231 89.5 L 232.5 86 Z " /><path fill="rgb(62,62,60)" stroke="rgb(62,62,60)" stroke-width="0.6" opacity="1" d="M 263.5 455 L 267 460.5 L 264 460.5 L 263 458.5 L 264 456.5 L 263.5 455 Z " /><path fill="rgb(112,112,80)" stroke="rgb(112,112,80)" stroke-width="0.6" opacity="1" d="M 296.5 437 L 303.5 445 L 296.5 437 Z " /><path fill="rgb(140,138,139)" stroke="rgb(140,138,139)" stroke-width="0.6" opacity="1" d="M 198.5 320 L 200 322.5 L 199 322.5 L 198.5 321 L 185.5 333 L 189.5 328 L 198.5 320 Z " /><path fill="rgb(220,220,220)" stroke="rgb(220,220,220)" stroke-width="0.6" opacity="1" d="M 322.5 63 L 314.5 72 L 313 71.5 L 322.5 63 Z " /><path fill="rgb(220,220,220)" stroke="rgb(220,220,220)" stroke-width="0.6" opacity="1" d="M 196.5 311 L 167.5 341 L 196.5 311 Z " /><path fill="rgb(220,220,220)" stroke="rgb(220,220,220)" stroke-width="0.6" opacity="1" d="M 124.5 349 L 119.5 355 L 124.5 349 Z " /><path fill="rgb(203,145,148)" stroke="rgb(203,145,148)" stroke-width="0.6" opacity="1" d="M 177.5 363 L 182.5 369 L 177.5 363 Z " /></svg>