<svg width="627" height="627" preserveAspectRatio="xMidYMid meet" viewBox="0 0 512 512" version="1.1" xmlns="http://www.w3.org/2000/svg" ><path fill="rgb(254,254,254)" stroke="rgb(254,254,254)" stroke-width="0.6" opacity="1" d="M 0 0 L 512 0 L 512 512 L 0 512 L 0 0 Z M 394 25 Q 345 39 316 72 L 293 68 Q 250 66 225 81 Q 206 70 185 63 L 170 59 L 147 56 L 129 57 L 124 59 L 118 65 L 114 78 L 114 105 L 120 133 Q 129 160 146 180 L 144 191 Q 143 206 146 218 L 143 220 L 133 221 L 130 225 Q 132 239 143 246 L 144 248 L 125 255 Q 122 257 125 258 L 140 253 Q 139 262 145 266 L 157 275 L 158 277 L 142 287 L 138 292 L 161 279 L 164 279 L 195 293 L 207 296 L 207 300 L 202 307 L 168 342 L 151 365 L 140 392 L 139 401 L 137 403 L 129 399 Q 117 392 114 376 Q 113 365 117 360 Q 131 348 139 332 Q 141 319 136 314 Q 130 305 117 303 Q 96 303 86 313 Q 63 330 58 365 Q 58 401 75 420 Q 89 436 111 445 Q 125 451 146 451 L 150 467 Q 156 474 167 478 L 187 482 Q 215 485 231 474 L 246 483 L 267 487 Q 292 488 307 478 L 330 483 L 349 482 Q 359 480 367 475 Q 382 475 392 469 Q 399 465 401 456 Q 403 441 397 434 L 384 423 Q 389 412 391 399 Q 391 373 376 363 L 382 336 Q 383 320 380 310 L 369 287 Q 392 277 411 261 L 428 243 L 452 249 L 454 249 L 446 244 L 430 240 L 440 226 L 442 214 L 450 215 Q 456 217 455 213 L 433 210 L 441 189 L 439 182 L 425 183 L 422 181 Q 419 161 410 147 Q 420 125 423 97 Q 426 53 409 29 Q 405 23 394 25 Z " /><path fill="rgb(254,254,254)" stroke="rgb(254,254,254)" stroke-width="0.6" opacity="1" d="M 253 215 L 255 215.5 L 255 225 L 253 224.5 L 253 215 Z " /><path fill="rgb(217,145,68)" stroke="rgb(217,145,68)" stroke-width="0.6" opacity="1" d="M 394 34 Q 401.1 34.1 404.5 39 L 406 38.5 L 404 44.5 L 407.5 50 Q 410.8 48.9 410 51.5 L 407 53.5 Q 407.8 50.9 404.5 52 L 400.5 53 L 395.5 49 L 389.5 49 L 377.5 56 L 375 55 L 368.5 65 L 364.5 63 L 362 65.5 L 361 72.5 L 353.5 81 L 349 84.5 L 350 91.5 L 347 92.5 L 348.5 97 L 355 99 Q 353.7 102.3 358.5 101 L 361 99.5 L 361 101.5 L 362.5 104 L 365 105.5 Q 365.5 111.1 369.5 113 L 378 118.5 L 382.5 125 L 386 126 L 388.5 131 L 393.5 133 L 399 130 L 398 126.5 L 402 123.5 L 404.5 120 L 408.5 119 L 410 122.5 L 407 123.5 L 408 128 L 405 129.5 L 406 134 Q 400.3 133 398 136.5 L 401 142.5 L 399 146.5 L 404.5 156 L 406 156.5 L 405 159.5 Q 410.5 162 406 164.5 L 410.5 172 L 412 173.5 L 411 178 L 414 179.5 L 412 184.5 L 418 189.5 L 420.5 194 L 424.5 195 L 427.5 193 L 429 197 Q 425.2 198.5 426 195.5 L 424 196.5 Q 427 197.5 426 202.5 L 421 210 L 406.5 208 L 400 211 L 398.5 214 L 391 212 Q 393.1 217.2 388.5 216 L 385 215 L 383.5 218 L 378 214.5 L 379 212.5 L 377 208.5 L 379 204.5 L 377 197 L 374 195.5 L 376 191.5 L 376 189.5 L 373.5 185 L 366 180.5 L 367 177.5 L 357 172.5 Q 359.8 170.8 355.5 169 L 347.5 169 L 347 171.5 L 344.5 173 L 339.5 171 L 330 178.5 L 329 180.5 L 330 182.5 L 327 183.5 L 325 188.5 L 326 193 Q 321.1 191.2 323 197.5 L 324 205.5 L 322 215.5 L 327.5 221 L 330 221 L 332.5 225 L 334 224.5 L 334.5 227 Q 336.4 231.1 343.5 230 L 346 229 L 347.5 226 L 353 229.5 Q 349.1 231.6 350 237 L 354.5 236 L 356.5 237 L 358.5 234 L 362 235 L 361 240 L 356 239 L 355 243.5 L 356 247 L 361 247 Q 359.2 242.1 365.5 244 L 370.5 246 L 372.5 245 L 374.5 246 L 378.5 241 L 391.5 242 L 405.5 247 Q 410.3 244.5 408.5 242 L 414.5 241 L 416 244 L 412 246.5 L 410.5 249 Q 401.7 245.8 404 253.5 L 400 256 L 398.5 258 L 390 260 L 389 262.5 L 390 265.5 L 389 268 L 386.5 267 L 364 280.5 Q 364.6 283.3 358.5 282 L 356.5 282 L 355 283.5 L 354.5 286 L 351 285 Q 352.1 288.5 344.5 287 L 341 289 L 339.5 292 L 336 291 Q 337.7 295.1 333.5 294 L 328 293 Q 329.7 297.1 325.5 296 L 320.5 294 L 317.5 297 L 300 299 Q 301.1 302.3 297 301 Q 298.3 298 294.5 299 L 293 302 L 287 304.5 L 290.5 310 L 303 309 Q 301.8 306 305.5 307 L 310.5 309 L 312.5 307 L 326 305 L 327.5 302 L 334 303 L 335.5 300 L 338.5 302 L 342.5 300 L 345.5 301 L 348.5 297 Q 352.9 298.5 352 295.5 L 354.5 294 L 359 295 L 363 304 L 368.5 306 L 370 305.5 L 369 309.5 L 370.5 312 L 372 311.5 L 371 317.5 L 372 321.5 L 370 326 L 373.5 325 L 375 333.5 L 369 342.5 Q 373 343.9 372 349 Q 367.5 347.3 369 352.5 L 370 356 L 364 359.5 L 366 363.5 L 365 366.5 L 366 370 Q 361.3 369.3 360 373.5 L 362 382.5 L 359 384 L 360 391 Q 355.5 389.3 357 394.5 L 358 396.5 Q 354.3 397.2 355 402.5 L 356 405.5 L 353 407 L 354 418 L 350 420.5 L 349 426.5 L 349.5 428 Q 345.1 426.5 346 429.5 L 346 431.5 L 348.5 436 L 356.5 437 L 358.5 436 L 358 437.5 L 362 443.5 L 352 450.5 L 351 454.5 Q 354.2 457.8 353 465.5 L 348 469.5 Q 350.5 476.4 345.5 475 L 342 474 Q 343 471 340 472 L 340 468.5 L 344 465.5 L 342.5 461 L 340 459.5 L 341 456.5 L 338 455 L 336.5 450 Q 330.3 449.3 329 453.5 L 330.5 457 Q 332.7 451.7 335 455.5 Q 331.2 458.7 333 467.5 L 335 470.5 Q 333.3 473.8 331.5 470 Q 324.5 468.5 325 471.5 L 324.5 474 L 321.5 475 L 320 471 L 315 469.5 L 314 466.5 Q 316 468.2 318 464.5 L 319 460.5 Q 315.5 458.8 317 453 L 314 451.5 L 318 445.5 L 311 442 L 307 436.5 L 309 433.5 L 301 427.5 L 300 422.5 L 301 420 L 304 418.5 L 302 413.5 L 305 412 L 307 403.5 L 313 397.5 Q 312 392 315.5 391 L 328 382.5 L 328 380 L 330 378.5 L 332.5 375 Q 338.1 374.6 340 370.5 L 341 366.5 L 340 364 L 349 358.5 L 349 356 L 351 354.5 L 353 350.5 L 353.5 348 L 356 346.5 L 358 338 Q 361.3 339.1 360 335 L 363 335 L 363 332.5 L 365 325.5 L 364 323 L 362 322.5 L 363 319 L 360 317.5 L 362 309.5 L 357.5 303 L 349 308.5 L 352 316.5 L 350 319.5 L 357 323.5 Q 358.3 328.8 355.5 330 L 349.5 329 L 345 330 L 345 333 L 347 334.5 L 346 338 Q 349.7 336.6 348 342.5 L 342.5 346 L 339 345 Q 341 351.9 337.5 354 Q 333.3 352.7 335 357.5 L 336 360 L 331 362.5 L 327 370.5 L 328 372.5 L 327 372.5 L 326.5 371 L 321.5 373 L 316 372 L 318 379 L 312 377.5 L 313 374.5 L 308.5 373 L 306 374 Q 303.8 377.6 305 386.5 L 306 389 L 301 390 L 302 397.5 L 299 398.5 L 297.5 402 L 293 400.5 L 293 396 Q 288.1 397.8 290 391.5 L 293 387.5 L 287 382.5 L 285.5 379 L 282.5 383 L 281 383.5 L 281 390 L 283 391.5 L 284 399.5 L 282 404.5 L 284 409 Q 287 407.8 286 411.5 L 285 419 L 283 419.5 L 287 426.5 L 284 431.5 L 289 440 L 295.5 443 L 300.5 443 L 302 442.5 L 301 444.5 L 304 449.5 L 303 452 Q 300 451 301 454 L 305 455 L 306 467 L 297.5 467 L 297 469.5 L 299 469.5 Q 300.7 475.4 297 474 L 296 463.5 L 297 459.5 L 296 457.5 L 298 454.5 L 295.5 453 L 293.5 453 L 289 451.5 L 288.5 449 L 285 454.5 L 287 455 L 288 457.5 L 287 462 L 291 464.5 Q 292 470 288.5 471 Q 285.9 470.2 287 473.5 L 283 476.5 L 283.5 478 L 273 477 L 276 469.5 L 273 464 Q 268.9 465.7 270 461.5 L 271 459.5 L 267.5 454 L 264 454 L 262 457.5 L 260 460.5 Q 264.5 463 263 471.5 L 256.5 476 L 252.5 475 L 249.5 477 L 248 474.5 L 248.5 473 L 241 471 L 240 467.5 L 241 464.5 Q 240.3 461.3 235.5 462 L 234 462.5 L 235 458 Q 230.5 459.8 232 454.5 L 234 446.5 L 230 445 L 231 438 L 228 436.5 L 228 433 L 230 431.5 L 229 426 Q 225.3 427.5 226 424.5 L 225 422.5 Q 228 419.3 227 413 Q 222.1 414.8 224 408.5 L 225 401 Q 220.5 402.8 222 397.5 L 223 392 Q 218.5 393.8 220 388.5 L 222 382.5 L 217 378.5 L 218 371 Q 221.3 372.3 220 367.5 Q 219.4 361.2 214.5 359 L 209 360.5 L 209 368.5 L 207.5 369 L 204.5 367 L 201 370.5 L 202 371.5 L 203 378 L 210 382 L 209 385.5 L 212 387.5 L 209 392.5 Q 214.1 394.8 213 402 L 216 403.5 L 214 411.5 L 215 415 L 218 416.5 L 218 420.5 Q 215 419.5 216 424.5 L 215.5 427 L 211.5 428 L 211 425.5 Q 211.9 422.1 206.5 424 Q 202.5 427 194.5 426 Q 192.8 423.2 187.5 424 L 184 426.5 L 183.5 428 L 179.5 427 L 178 430 L 174 429 Q 175.3 432.3 170.5 431 L 168 432 L 166 437.5 L 167 440 L 171.5 438 L 176.5 440 L 184.5 436 L 186.5 437 Q 189.7 433.2 198.5 435 L 204.5 437 L 210 435 L 211.5 437 L 220.5 443 L 222 442.5 L 219.5 450 L 214.5 451 L 211.5 449 L 208 451.5 L 210 452 L 208 461 L 212 462 Q 213.5 467.4 210.5 469 L 206 472.5 L 204.5 475 L 194 473.5 L 196 473 L 198 464.5 L 197 460 L 193 458.5 L 195 450.5 L 189.5 449 L 183 452.5 L 184.5 457 L 187 457.5 L 187 467.5 L 181.5 471 L 173 473 Q 175.1 467.8 170.5 469 L 167 470 Q 168.5 466.3 165.5 467 L 164 464.5 L 165 462.5 L 161.5 461 L 159.5 462 L 155 455.5 L 158 450.5 Q 152.4 446.6 152 437.5 L 154 432.5 L 149 429 L 147.5 425 L 146 424.5 L 146 405.5 L 149 401.5 L 151 388.5 L 150 385 L 154.5 382 L 159.5 386 Q 163.6 381.1 174.5 383 L 179.5 385 L 184 384 Q 182.9 380.7 187 382 L 188.5 384 L 190 380 L 193 379.5 L 192 375.5 L 193 367.5 L 184 361.5 L 179.5 354 L 173.5 356 L 173 353.5 Q 172.3 348.8 175.5 348 L 179 345.5 L 178 342 Q 181.3 343.3 180 338.5 L 181 338.5 Q 179.9 341.8 182.5 341 L 185 342 L 184 348.5 L 194 353.5 Q 191.5 355 195 356.5 Q 193.6 361.5 200.5 359 L 205.5 352 L 208 350.5 L 206 332.5 L 207 329.5 L 206 327.5 L 207 319.5 L 210 314.5 L 209 311.5 L 210.5 307 L 211.5 308 L 215 304.5 L 216.5 302 L 220 301 Q 218.8 304 222.5 303 Q 224.3 307.8 232.5 306 Q 233.8 302.8 239.5 304 L 241 307 L 244.5 308 L 246.5 307 L 250 308 L 251.5 306 L 251.5 308 L 255.5 309 L 259 307 L 259.5 309 L 266 309 L 267 304.5 L 266 302 L 264 300.5 Q 263.3 297.3 258.5 298 L 253.5 301 L 251 300 Q 252.8 294.8 245.5 297 L 242.5 298 L 241 295 L 233.5 297 L 232 293 L 225.5 294 L 222.5 290 L 217 292 Q 218.8 287.5 213.5 289 L 207.5 286 Q 205.8 289.8 204 286.5 Q 204.8 283.9 201.5 285 L 196.5 281 L 194 282 L 193.5 284 L 191.5 281 L 187 282 L 185 277.5 L 190 268 L 196 269 L 197.5 266 L 204.5 267 L 204.5 265 L 208 266 L 209.5 264 L 219.5 265 Q 223.3 260.8 233.5 263 L 236 260.5 L 235.5 256 L 221.5 256 Q 218 252.8 211 254 L 210 258 L 202 257 Q 203.7 261.1 199.5 260 L 195.5 258 L 192.5 262 L 189.5 260 L 185.5 263 L 177.5 264 L 176 265.5 L 175.5 268 L 172.5 267 L 170.5 270 L 166.5 265 L 160.5 263 L 157.5 264 L 154 262 L 152 258.5 L 153 256 L 156.5 257 L 158.5 256 L 161 257 L 162 253 Q 165.3 254.1 164 250 L 162 249.5 Q 163.3 246.8 168.5 248 L 181.5 250 L 182.5 249 L 196.5 249 L 202.5 251 L 204.5 249 L 216.5 248 L 218 251 L 224.5 252 L 229.5 249 L 233 250 L 232 244.5 Q 233.9 241.3 240 243 L 241.5 240 Q 247.5 239 249.5 242 L 255.5 235 Q 257.3 237.7 259 233.5 Q 257.1 228.1 260.5 229 Q 266.5 226.5 262.5 224 L 260.5 225 L 259 217.5 L 261 209.5 Q 257.3 197.7 248.5 191 L 244.5 189 L 242.5 190 L 241.5 187 L 236.5 188 L 235 185 L 229.5 187 L 227.5 188 L 223.5 187 L 220.5 188 L 218.5 187 L 216 188 L 214 196 L 212 197.5 L 207 206.5 L 208 208.5 L 205 211.5 L 204 218.5 L 205 224 L 208 225.5 L 207 231.5 Q 210.8 233.3 207.5 235 L 206 235.5 L 208 236 L 209 242 L 202.5 240 Q 201 242.5 199.5 239 L 177.5 239 L 176 240.5 L 176.5 242 L 171.5 242 L 165.5 238 L 161.5 241 L 154.5 242 L 152.5 241 L 149 242 L 148 234.5 L 149 228.5 L 151 226.5 L 150 224 L 154 221.5 L 155 205 Q 152 206.3 153 202.5 L 157 180.5 L 154 179.5 Q 155 174 151.5 173 Q 148.2 174.1 149 171.5 Q 152.5 170 150 168.5 L 152.5 163 L 157 162 Q 156 165 159 164 Q 157.8 161 161.5 162 L 169 149.5 L 169.5 147 L 172 145.5 L 173 143.5 L 172 142.5 L 177 137.5 L 174.5 135 L 173 133 Q 180.3 134 183 129.5 L 185 124 L 182 122.5 L 186 121 L 187.5 119 L 189.5 118 L 194 119 L 196.5 114 Q 199.8 115.1 199 112.5 L 194 107.5 Q 195.3 102.3 192.5 101 L 188 102 Q 189.1 98.7 185 100 L 185 97.5 L 176.5 87 L 170.5 88 L 168 87 L 166.5 85 L 163.5 86 L 164 84.5 L 162.5 83 L 159.5 84 L 160 82.5 L 158.5 79 L 153.5 80 L 149.5 79 L 145.5 80 L 140.5 79 L 137.5 80 Q 135.7 77.3 134 81.5 Q 135.1 84.8 132.5 84 L 124.5 90 L 122 89.5 L 121 83.5 L 125 82 L 127 75.5 L 126 72.5 L 128 68 L 130 67.5 L 129.5 66 L 140.5 68 L 148.5 67 L 152.5 68 Q 153.9 64.7 159 66 L 160.5 69 L 168.5 71 L 170.5 70 L 174.5 71 L 178 70 L 179.5 73 L 184 72 Q 181.3 79.1 188.5 77 L 190.5 78 L 195.5 76 L 197.5 79 Q 199.3 75.3 201 78.5 Q 199.8 82.3 203.5 81 L 209.5 87 L 214.5 87 L 217 86 L 218.5 90 L 226.5 91 L 228.5 90 L 232 91 L 231 96.5 L 236 99 L 235 102.5 L 238.5 107 L 240 108.5 L 239 112 Q 242.3 110.7 241 115.5 L 244.5 120 Q 247.5 119.1 246 123.5 L 253.5 129 L 255 125 L 258 126.5 Q 256.3 131.3 260.5 130 L 264 132 L 267.5 140 L 270.5 140 L 276 144 L 277.5 146 L 279.5 146 L 281 147.5 L 283.5 149 L 286.5 148 L 288.5 149 L 294 144.5 Q 298.1 142.6 297 135.5 L 296 132.5 L 299 131 L 302 123.5 L 298 121 Q 296.5 117.3 299.5 118 L 302.5 116 L 303.5 117 L 307.5 113 L 311 110.5 L 312 104.5 L 310 101.5 Q 314.5 96.8 313 87 Q 310 88 311 85 L 313.5 84 L 318.5 87 L 325 83.5 L 326 79.5 L 325 77.5 L 334.5 67 Q 338.9 68.5 338 65.5 L 344.5 59 Q 352.3 57.8 356 52.5 L 356.5 50 L 358.5 51 L 371 43.5 L 372.5 42 L 374.5 43 L 384 39 Q 382.3 34.9 386.5 36 L 392.5 37 L 394 34 Z M 343 134 L 342 135 Q 337 134 339 138 L 334 138 L 334 140 L 331 142 Q 329 146 333 145 L 335 149 L 338 150 L 348 148 L 349 150 L 355 153 L 361 150 Q 362 146 359 147 L 357 145 Q 358 142 354 139 L 352 138 L 343 134 Z M 218 155 L 218 158 Q 212 157 210 163 Q 211 167 209 166 L 208 169 L 207 172 L 211 177 L 211 174 L 220 172 L 222 169 L 223 166 L 229 167 L 231 164 Q 230 160 235 162 Q 236 159 233 160 Q 228 158 231 157 L 227 155 L 223 156 L 218 155 Z M 314 220 L 313 221 L 298 221 L 297 223 L 294 224 L 294 223 L 292 221 L 290 222 L 287 226 L 284 225 L 283 228 L 280 227 L 274 231 Q 272 236 276 235 L 275 238 L 279 244 L 280 246 L 285 246 L 286 252 L 294 253 L 295 258 Q 293 261 288 260 L 285 263 L 273 264 L 273 263 L 267 261 L 266 259 L 267 253 L 265 252 L 261 251 Q 262 247 258 249 L 256 252 L 252 254 L 250 256 L 247 257 L 246 260 L 250 265 L 256 264 L 258 268 L 262 266 L 264 269 L 266 268 L 267 270 L 271 271 L 275 278 L 282 282 L 286 289 L 291 288 L 292 291 L 297 290 L 296 292 L 299 293 Q 302 289 310 290 L 317 279 L 316 277 L 319 275 L 318 272 L 321 270 L 322 267 L 326 267 L 333 263 L 336 258 L 337 255 L 339 256 L 347 250 Q 348 247 345 248 L 344 244 L 343 242 L 335 241 L 333 245 Q 330 246 334 248 Q 335 250 331 249 L 331 252 L 325 256 L 322 260 L 318 258 L 307 260 L 304 255 Q 305 250 311 251 L 313 251 L 313 247 L 319 239 Q 322 237 320 236 Q 318 230 322 231 L 319 224 L 314 220 Z M 258 321 L 255 322 L 255 332 L 257 332 L 258 335 L 257 337 L 257 340 L 261 345 L 265 347 Q 268 346 266 350 L 269 350 Q 268 353 271 352 L 270 355 L 283 362 L 286 362 Q 285 365 289 364 L 290 362 Q 293 360 288 358 Q 290 352 287 353 L 282 347 L 278 343 L 273 345 L 269 340 Q 266 341 267 337 L 264 336 L 265 334 L 264 330 L 265 325 Q 263 321 258 321 Z " /><path fill="rgb(217,145,68)" stroke="rgb(217,145,68)" stroke-width="0.6" opacity="1" d="M 390.5 59 L 396 62.5 L 395 68.5 Q 399.2 72.3 397 82.5 L 396 85.5 L 399 92 L 397 92.5 L 399 93.5 L 397 94 L 397 97.5 L 392 103.5 L 396.5 106 L 398 105.5 L 396.5 108 Q 393.5 107.1 395 111.5 L 396 115 L 388.5 116 L 384 112.5 L 385 109.5 L 382 109 L 380.5 107 L 379 104.5 L 380 98.5 L 376 95.5 L 374.5 93 L 367.5 91 L 366 91.5 L 364 83.5 L 366 77 L 368.5 78 L 373 75.5 L 378 66 Q 383.5 67.3 385 63.5 L 386.5 62 L 390.5 59 Z " /><path fill="rgb(217,145,68)" stroke="rgb(217,145,68)" stroke-width="0.6" opacity="1" d="M 405.5 59 L 411 60.5 L 411 65.5 Q 413.8 64.9 413 68 L 404 71 L 405 64.5 L 403 61.5 L 405.5 59 Z " /><path fill="rgb(217,145,68)" stroke="rgb(217,145,68)" stroke-width="0.6" opacity="1" d="M 299.5 78 L 304 79.5 L 302 80 L 303 94 Q 297.9 95.3 296.5 92 L 294 91.5 L 295 88.5 L 292 87 L 293 82.5 L 292 80.5 L 299.5 78 Z " /><path fill="rgb(217,145,68)" stroke="rgb(217,145,68)" stroke-width="0.6" opacity="1" d="M 408 83 L 413 84.5 Q 414.8 93.3 409.5 95 L 406 94 L 406 87.5 Q 409.3 88.3 408 83 Z " /><path fill="rgb(217,145,68)" stroke="rgb(217,145,68)" stroke-width="0.6" opacity="1" d="M 127.5 93 L 132 93 L 132 102 L 130 103.5 L 129 105.5 L 132 107.5 L 131 109.5 L 131 111.5 L 131 115 Q 134 113.8 133 117.5 L 132 120.5 L 134 124.5 L 131.5 126 L 126 123 L 127 115.5 L 126 113.5 L 128 108.5 L 125 105.5 Q 126.2 99.7 123 98.5 L 127.5 93 Z " /><path fill="rgb(217,145,68)" stroke="rgb(217,145,68)" stroke-width="0.6" opacity="1" d="M 413.5 98 L 414 102.5 L 411 104 Q 412.5 110.3 408.5 112 L 406.5 113 L 404 109.5 L 404 107.5 L 405 103 L 411.5 99 L 413 99.5 L 413.5 98 Z " /><path fill="rgb(217,145,68)" stroke="rgb(217,145,68)" stroke-width="0.6" opacity="1" d="M 300.5 100 L 304 102.5 L 303.5 107 L 298 102.5 L 300.5 100 Z " /><path fill="rgb(217,145,68)" stroke="rgb(217,145,68)" stroke-width="0.6" opacity="1" d="M 136.5 134 L 139 138 L 142 139.5 L 143 145.5 Q 141.7 149.8 137 149 L 133 139.5 L 136.5 134 Z " /><path fill="rgb(217,145,68)" stroke="rgb(217,145,68)" stroke-width="0.6" opacity="1" d="M 144.5 152 L 147.5 154 L 150 153 L 149 156.5 L 151 159.5 L 145.5 163 L 141 154.5 L 144.5 152 Z " /><path fill="rgb(217,145,68)" stroke="rgb(217,145,68)" stroke-width="0.6" opacity="1" d="M 357 185 L 362.5 188 L 364 187.5 L 363 190.5 L 364 192.5 L 361 194 L 357 185 Z " /><path fill="rgb(217,145,68)" stroke="rgb(217,145,68)" stroke-width="0.6" opacity="1" d="M 223 200 L 226 201.5 L 222 204 L 221 206.5 L 222 209 L 219 210.5 L 218.5 212 L 216 207.5 L 219 206 L 220.5 203 L 223 201.5 L 223 200 Z " /><path fill="rgb(217,145,68)" stroke="rgb(217,145,68)" stroke-width="0.6" opacity="1" d="M 412.5 216 Q 416.9 214.5 416 217.5 L 419.5 223 L 425 226.5 Q 426.5 232.5 423.5 234 L 418.5 235 L 416.5 235 L 397.5 236 L 390.5 232 L 386 234.5 L 386.5 236 L 372.5 235 L 368.5 236 L 365 230 L 368.5 232 L 370.5 228 L 378.5 230 L 393 221.5 Q 392.1 218.1 397.5 220 L 401 221 L 402.5 219 L 406.5 222 L 411 218.5 L 412.5 216 Z " /><path fill="rgb(217,145,68)" stroke="rgb(217,145,68)" stroke-width="0.6" opacity="1" d="M 428 218 L 433 218.5 L 431 219 Q 432 223.7 428.5 225 L 425 222.5 L 428 221 L 428 218 Z " /><path fill="rgb(217,145,68)" stroke="rgb(217,145,68)" stroke-width="0.6" opacity="1" d="M 358.5 219 L 366.5 220 L 368 221.5 L 369 223.5 L 367.5 224 L 366 223.5 Q 367.3 227.3 363.5 226 L 357 225 L 358 221.5 L 358.5 219 Z " /><path fill="rgb(217,145,68)" stroke="rgb(217,145,68)" stroke-width="0.6" opacity="1" d="M 224.5 236 L 227 240.5 Q 224.9 244.9 219 244 L 220.5 242 L 224.5 236 Z " /><path fill="rgb(217,145,68)" stroke="rgb(217,145,68)" stroke-width="0.6" opacity="1" d="M 367.5 449 L 368 451.5 L 367 457.5 L 368 460 L 365.5 461 L 362 454.5 L 365.5 450 L 367.5 449 Z " /><path fill="rgb(217,145,68)" stroke="rgb(217,145,68)" stroke-width="0.6" opacity="1" d="M 220.5 455 L 223 456.5 L 224.5 461 L 226 462.5 L 223.5 465 L 219.5 461 L 218 459.5 L 220.5 455 Z " /><path fill="rgb(8,8,9)" stroke="rgb(8,8,9)" stroke-width="0.6" opacity="1" d="M 394.5 26 Q 407.1 23.9 410 31.5 L 415 41.5 L 421 64.5 L 422 95.5 L 419 115.5 L 409 147.5 Q 417.7 161.8 421 181.5 L 423.5 184 L 437.5 183 Q 441 185 439 192.5 L 431 209.5 L 441 213.5 L 440 215.5 L 441 217.5 L 439 224.5 L 429 239.5 L 429 242 L 421 248.5 L 412.5 258 Q 392.3 275.8 367 288.5 Q 382.7 302.8 381 334.5 L 375 362.5 Q 384.2 369.3 388 381.5 L 389 404.5 L 382 422.5 L 395 432.5 Q 401.7 439.3 400 454.5 Q 398.5 463 392.5 467 L 385.5 471 Q 378.5 474 367.5 473 Q 360.1 479.6 347.5 481 L 320.5 481 L 306.5 476 L 303.5 479 L 290.5 484 L 271.5 486 L 248.5 483 L 230.5 473 Q 215.2 483.7 186.5 481 Q 164 479.5 152 467.5 L 148 459.5 Q 150 452 146.5 450 Q 99.7 448.3 78 421.5 Q 59.9 402.6 59 366.5 Q 62.5 331.5 84.5 315 Q 95.1 305.1 114.5 304 Q 128.5 305 135 313.5 Q 140 319 138 331.5 L 134 339.5 L 117 357.5 Q 112 364 113 376.5 Q 115.8 389.7 124.5 397 L 137.5 404 L 140 401.5 Q 141.3 385.8 147 374.5 L 158 355.5 Q 176.1 331.1 199 311.5 L 209 297.5 L 204.5 294 Q 181.3 289.2 164.5 278 L 159 277.5 L 160 276.5 L 156.5 273 L 143 261.5 L 141 253.5 L 143.5 249 L 146 247.5 L 133 232.5 L 131 224.5 L 134.5 221 Q 143.9 222.9 147 218.5 L 145 193.5 L 147 179.5 Q 129 158.5 120 128.5 L 115 103.5 L 115 78.5 Q 116.2 66.2 123.5 60 L 128.5 58 L 156.5 58 L 187.5 65 L 224.5 82 Q 249.3 67.8 289.5 69 L 315.5 73 Q 345.2 39.7 394.5 26 Z M 396 31 Q 348 44 320 77 L 322 81 Q 317 77 307 78 L 305 76 L 288 75 L 286 75 L 283 74 L 265 75 L 263 78 L 261 76 L 237 82 L 232 86 L 230 85 L 225 88 L 192 72 L 180 68 L 155 63 L 128 64 Q 121 69 120 81 L 120 103 L 125 128 Q 134 157 152 178 L 150 192 Q 149 209 152 222 L 137 228 L 140 235 L 152 246 L 157 247 L 156 249 L 159 250 L 160 253 L 150 254 L 147 257 L 150 263 L 165 273 Q 170 271 169 275 Q 181 284 198 288 L 250 302 Q 257 301 256 304 L 235 302 L 221 298 L 215 298 L 204 315 L 201 317 Q 175 339 156 368 L 148 385 L 143 410 L 144 427 L 146 435 L 153 449 L 152 454 L 154 463 Q 164 475 187 476 Q 191 474 191 468 L 193 467 L 191 475 L 193 476 L 209 476 L 214 469 L 214 461 L 216 460 Q 217 468 214 473 L 216 475 Q 225 474 229 468 L 224 441 Q 217 433 205 431 Q 190 429 182 433 L 178 433 L 189 429 Q 208 427 220 433 L 222 433 L 215 390 L 205 373 L 207 372 L 213 378 L 214 377 Q 213 373 216 374 L 216 385 L 221 403 L 229 454 L 234 468 Q 242 480 264 480 L 267 475 Q 266 470 269 471 L 267 479 L 269 481 L 286 480 L 292 471 Q 291 463 294 464 L 292 478 L 302 475 Q 308 472 309 464 Q 311 450 305 444 Q 300 435 289 433 Q 288 430 292 431 L 286 398 Q 285 390 288 391 L 293 417 Q 291 421 295 420 Q 300 402 309 388 L 309 380 L 311 379 Q 309 384 313 386 L 325 378 Q 336 370 340 354 Q 339 349 342 350 L 345 355 Q 352 348 350 332 L 356 336 L 358 332 Q 359 320 355 315 L 356 312 L 360 324 Q 361 334 357 338 L 352 337 Q 353 351 345 357 L 343 356 L 335 371 Q 326 381 314 388 Q 299 403 297 432 L 302 435 Q 311 441 313 454 Q 314 465 310 472 L 313 474 L 326 477 L 332 476 L 337 469 L 337 461 L 339 460 Q 340 469 336 475 L 338 477 L 352 475 L 357 468 L 357 457 L 359 456 L 358 471 L 359 473 L 365 470 L 371 458 Q 371 447 367 442 Q 362 433 350 432 Q 349 429 354 430 L 355 429 L 357 408 L 373 354 L 376 336 L 375 313 Q 371 299 362 290 L 358 290 L 322 302 Q 318 303 319 300 Q 374 287 410 254 L 420 242 L 423 240 Q 431 232 436 220 L 435 216 L 422 218 L 420 217 Q 423 215 421 214 L 424 212 Q 431 204 434 193 L 433 188 L 429 189 L 420 188 L 416 182 L 411 163 L 403 146 Q 415 125 417 95 Q 419 59 407 37 L 402 31 L 396 31 Z M 109 309 Q 96 311 89 318 Q 69 333 64 363 Q 63 399 81 418 Q 101 442 143 446 L 145 445 L 139 423 L 139 411 L 121 400 Q 110 391 108 374 Q 108 361 114 354 Q 128 344 134 328 Q 135 320 131 317 Q 125 307 109 309 Z M 374 368 L 371 371 L 362 403 L 359 419 L 359 431 L 364 433 Q 373 439 375 454 Q 375 462 372 467 L 374 469 L 382 467 L 386 461 Q 385 456 388 457 L 387 462 Q 386 465 389 464 Q 395 461 396 452 Q 397 442 393 438 Q 387 429 377 426 L 368 426 L 367 424 L 376 423 Q 383 414 385 400 Q 386 377 374 368 Z " /><path fill="rgb(8,8,9)" stroke="rgb(8,8,9)" stroke-width="0.6" opacity="1" d="M 389.5 53 Q 396.5 51.5 398 55.5 Q 403 64.3 403 77 Q 399 78.4 401 71.5 Q 400 61 394.5 55 L 390.5 55 L 383.5 59 L 367 73.5 Q 359 81 355 92.5 L 356.5 94 L 370.5 95 L 375 97.5 L 373.5 100 Q 369.8 98.8 371 102.5 L 380 107 L 381 109.5 L 379 112.5 L 390 122.5 L 392.5 126 Q 401 114.8 401 96 Q 404.5 94.9 403 102.5 L 398 122.5 L 393.5 130 L 392 128.5 L 374 111.5 Q 373.2 108.5 377 110 L 377 108 L 366 102.5 L 367.5 101 L 371 98.5 L 369.5 97 L 352.5 96 L 351 94.5 Q 359.8 73.8 376.5 61 L 389.5 53 Z " /><path fill="rgb(8,8,9)" stroke="rgb(8,8,9)" stroke-width="0.6" opacity="1" d="M 402 81 L 404 81.5 L 404 93 L 402 92.5 L 402 81 Z " /><path fill="rgb(8,8,9)" stroke="rgb(8,8,9)" stroke-width="0.6" opacity="1" d="M 137.5 82 L 148.5 82 L 167.5 89 Q 183 97.5 194 110.5 L 195 113.5 L 177.5 119 L 173 122.5 L 172.5 125 L 169 122.5 L 172.5 119 Q 178.6 114.6 188.5 114 L 191 111.5 L 184.5 104 L 162.5 89 L 148.5 84 L 138.5 84 Q 134.3 87 136 95 Q 132.3 96.1 134 87.5 L 137.5 82 Z " /><path fill="rgb(8,8,9)" stroke="rgb(8,8,9)" stroke-width="0.6" opacity="1" d="M 292.5 94 Q 296.6 97.4 296 105.5 L 294 104.5 L 292.5 94 Z " /><path fill="rgb(8,8,9)" stroke="rgb(8,8,9)" stroke-width="0.6" opacity="1" d="M 134 97 L 136 97.5 L 136 108.5 L 144 136.5 L 153 152.5 L 157.5 157 L 168 140.5 Q 163 138.5 166 136.5 L 173.5 128 Q 176.9 128.8 175 124 L 180 124 L 178.5 128 L 169 135.5 Q 168.1 138.5 172.5 137 L 171 139.5 L 158.5 161 L 154 157.5 L 139 129.5 L 134 108.5 L 134 97 Z " /><path fill="rgb(8,8,9)" stroke="rgb(8,8,9)" stroke-width="0.6" opacity="1" d="M 263.5 125 L 275.5 139 L 280 142.5 L 278.5 142 L 268 133.5 L 263.5 125 Z " /><path fill="rgb(8,8,9)" stroke="rgb(8,8,9)" stroke-width="0.6" opacity="1" d="M 339.5 139 L 346.5 139 L 357 146.5 Q 358.5 150.9 355.5 150 Q 349.4 142.9 335 145 L 337.5 140 L 339.5 139 Z " /><path fill="rgb(8,8,9)" stroke="rgb(8,8,9)" stroke-width="0.6" opacity="1" d="M 221.5 158 Q 229.3 156.3 231 160.5 L 228.5 163 L 218.5 166 L 210 172 Q 210.1 164.5 215.5 161 L 221.5 158 Z " /><path fill="rgb(8,8,9)" stroke="rgb(8,8,9)" stroke-width="0.6" opacity="1" d="M 346.5 173 L 355.5 174 L 365 180.5 Q 374.8 189.2 373 209.5 L 373.5 212 L 375 214 L 367 217 Q 371 211.8 371 201.5 Q 368.8 186.7 358.5 180 L 346.5 177 Q 337.3 178.8 333 185.5 L 329 195.5 L 330.5 196 L 335.5 190 Q 339.3 185.3 349.5 187 L 358 193.5 Q 362 198.5 362 207.5 Q 360.4 218.4 352.5 223 L 338.5 225 L 330 218.5 L 327 210.5 L 326 199.5 Q 327.6 185.6 335.5 178 L 346.5 173 Z M 349 190 L 344 194 Q 343 201 348 203 L 354 202 Q 357 200 356 195 Q 354 190 349 190 Z " /><path fill="rgb(8,8,9)" stroke="rgb(8,8,9)" stroke-width="0.6" opacity="1" d="M 227.5 190 Q 245.2 188.3 251 198.5 L 258 213.5 L 258 224.5 L 252.5 235 L 251 234.5 Q 257.7 228.7 256 214.5 Q 253.5 204 246.5 198 L 237.5 193 L 229.5 193 Q 220.8 195.8 216 202.5 Q 210 209.5 212 224.5 L 219 237 L 212 234.5 L 213 232.5 Q 207.4 225.6 209 211.5 Q 211.3 198.8 220.5 193 L 227.5 190 Z " /><path fill="rgb(8,8,9)" stroke="rgb(8,8,9)" stroke-width="0.6" opacity="1" d="M 233.5 202 Q 243.7 201.8 248 207.5 Q 253.8 213.2 252 226.5 Q 249.9 234.4 243.5 238 L 235.5 239 Q 226.6 237.4 223 230.5 Q 219.4 225.6 220 216.5 L 226.5 205 L 233.5 202 Z M 241 205 L 238 206 Q 234 208 235 215 Q 236 219 244 218 L 247 214 L 246 209 L 241 205 Z " /><path fill="rgb(8,8,9)" stroke="rgb(8,8,9)" stroke-width="0.6" opacity="1" d="M 299.5 225 Q 311.3 223.7 317 228.5 L 318 234.5 L 310.5 245 L 302 250.5 L 301 257.5 Q 305.5 265 319.5 263 Q 329.3 260.3 334 252.5 L 336 247.5 L 336.5 245 L 342 247.5 L 340.5 249 Q 338.8 246.3 337 250.5 L 330.5 260 L 317 267.5 Q 315.6 279.6 307.5 285 Q 303.7 289.2 294.5 288 Q 285.4 285.5 281 278.5 L 275.5 269 Q 264.4 268.1 259 261.5 L 256.5 258 L 252 259 L 255.5 254 L 259 253 L 258 256.5 L 270.5 266 L 284.5 267 Q 293.9 264.9 299 258.5 L 300 251.5 L 283.5 244 L 280 240.5 L 278 235.5 L 283.5 229 L 299.5 225 Z M 300 227 L 285 231 Q 280 232 281 238 Q 286 246 298 248 Q 304 249 307 245 L 315 237 L 316 232 L 313 228 L 300 227 Z M 295 265 Q 290 270 281 269 L 281 274 L 285 280 Q 289 285 298 286 L 307 283 L 311 278 L 310 273 Q 306 265 295 265 Z " /><path fill="rgb(8,8,9)" stroke="rgb(8,8,9)" stroke-width="0.6" opacity="1" d="M 182 243 L 194.5 243 L 195 245 L 182.5 245 L 182 243 Z " /><path fill="rgb(8,8,9)" stroke="rgb(8,8,9)" stroke-width="0.6" opacity="1" d="M 279.5 351 L 284 357.5 L 282 356.5 L 279.5 351 Z " /><path fill="rgb(212,142,68)" stroke="rgb(212,142,68)" stroke-width="0.6" opacity="1" d="M 396.5 32 Q 403.4 31.1 405 35.5 L 406 37.5 Q 403.7 41.2 401.5 36 L 394 34 L 392.5 37 L 384 36 Q 385.5 39.8 382.5 39 L 373.5 43 L 371 42 L 369.5 45 L 357.5 51 L 355 51.5 L 356 52.5 L 352.5 56 Q 342.5 58 338 65.5 Q 338.9 68.5 334.5 67 L 325 78.5 L 326 81.5 L 323.5 85 L 317.5 87 L 313.5 84 L 311 85 Q 310.3 88.1 313 87.5 L 313 95.5 L 310 102.5 L 312 107.5 L 308.5 113 L 303.5 117 L 301.5 116 L 298 118 Q 296.5 121.8 299.5 121 L 302 125.5 L 299 131 L 296 132.5 L 297 140.5 L 292.5 146 L 287.5 149 L 284.5 148 L 282.5 149 L 281 146 L 278.5 147 L 276 146 L 274.5 144 L 266 138.5 L 264 132 L 258 130 Q 259 125.8 256 124.5 L 257.5 121 L 260 121.5 Q 265.5 135 276.5 143 L 286.5 147 L 291 143.5 Q 298 133.3 297 116 L 299 115.5 L 297 115 Q 295.5 111.3 298.5 112 L 303.5 115 Q 311.3 105.8 310 87.5 L 309 80.5 L 311.5 79 L 323.5 82 Q 326.5 80.5 323.5 79 L 321 77.5 L 326.5 71 Q 353.7 43.7 396.5 32 Z " /><path fill="rgb(212,142,68)" stroke="rgb(212,142,68)" stroke-width="0.6" opacity="1" d="M 406.5 39 Q 417.1 59.4 416 91.5 Q 413.6 123.6 402 146.5 L 409 160.5 L 415 182.5 L 418.5 189 L 429.5 190 L 431.5 189 L 433 192.5 Q 429.9 203.9 422.5 211 Q 389.3 213.3 366.5 226 L 366 223.5 L 367.5 224 L 369 223.5 L 366.5 220 Q 360.5 221.5 359 218.5 Q 363.2 213.2 363 203.5 Q 361.1 191.9 352.5 187 L 339.5 185 L 339.5 187 L 334.5 190 L 332 189.5 L 338.5 181 L 340.5 180 L 346 183 L 344.5 180 L 342 179.5 L 350.5 178 Q 360.5 180 365 187.5 Q 370.7 194.8 369 209.5 L 364 219 L 377.5 214 L 383.5 218 L 385 215 L 391 216 Q 388.8 210.4 394.5 212 L 398.5 214 L 400 211 L 407.5 208 L 421 210 L 426 202.5 L 426 198.5 L 423.5 194 Q 418.8 194.8 418 191.5 L 415.5 187 L 412 184.5 L 414 179.5 L 411 178 L 412 172 L 408 169.5 L 406 164.5 Q 410.5 162 405 159.5 L 406 156.5 L 403 154.5 L 399 144.5 L 401 141.5 L 398 136.5 Q 400.3 133 406 134 L 405 129.5 L 408 128 L 407 123.5 L 410 122.5 L 408.5 119 L 402 122.5 L 400.5 125 L 398 126.5 L 399 130 L 393.5 133 L 387 129.5 L 386 126 L 379 121.5 L 376.5 117 L 366 109.5 L 363.5 104 L 361 102.5 L 359.5 100 L 355 101 Q 356.3 98 352.5 99 L 347 95.5 L 348.5 91 L 350 91.5 L 349 84.5 L 359 75.5 Q 362.7 72.7 362 65.5 L 364.5 63 L 368.5 65 L 375 55 L 378.5 56 L 386.5 50 L 395.5 49 Q 397.5 53 403.5 53 L 407 52 L 407.5 54 L 410 50 L 405 47.5 L 404 43.5 L 406.5 39 Z M 393 51 Q 380 55 372 64 Q 357 76 350 96 L 352 97 L 365 98 L 365 101 L 364 103 L 373 107 L 372 111 L 378 115 L 394 132 Q 399 126 401 117 L 405 97 Q 407 71 399 55 Q 398 50 393 51 Z M 406 59 L 403 62 L 405 65 L 404 71 L 413 68 Q 414 65 411 66 L 411 61 L 406 59 Z M 408 83 Q 409 88 406 88 L 406 94 L 410 95 Q 415 93 413 85 L 408 83 Z M 414 98 L 413 100 L 412 99 L 405 103 L 404 108 L 404 110 L 407 113 L 409 112 Q 413 110 411 104 L 414 103 L 414 98 Z M 357 185 L 361 194 L 364 193 L 363 191 L 364 188 L 363 188 L 357 185 Z " /><path fill="rgb(212,142,68)" stroke="rgb(212,142,68)" stroke-width="0.6" opacity="1" d="M 391.5 56 L 396 58.5 Q 401.9 72.1 401 92.5 L 399 107.5 L 393.5 124 L 381 114 L 382 109 L 385 109.5 L 384 112.5 Q 385.6 116.9 392.5 116 L 396 115 L 395 108 L 398 106.5 L 397.5 105 L 395.5 105 L 392 103.5 L 397 97.5 L 397 94 L 399 93.5 L 397 92.5 L 399 92 L 396 83.5 L 397 71.5 Q 394 69.5 395 63.5 L 396 62.5 L 392.5 59 L 385 62 L 382.5 66 Q 377.1 64.1 378 67.5 L 371.5 77 L 368.5 78 L 366 77 L 364 86.5 L 366.5 92 L 371 91 Q 369.7 94.3 374.5 93 L 377.5 97 L 380 98.5 L 378.5 106 L 374 102.5 L 376 97.5 Q 369.8 90.9 356 93 Q 363 74.1 379.5 63 L 391.5 56 Z " /><path fill="rgb(212,142,68)" stroke="rgb(212,142,68)" stroke-width="0.6" opacity="1" d="M 131.5 64 L 159.5 65 Q 181.6 68.6 199 76 L 197.5 79 L 195.5 76 L 189.5 78 L 184 77 L 184 72 L 182.5 72 L 179.5 73 L 178 70 L 171.5 71 L 169.5 70 L 165.5 71 L 159 67.5 Q 159.9 64.1 154.5 66 L 149.5 68 L 141.5 67 L 138.5 68 L 130.5 67 L 128 68 L 126 74.5 L 127 76.5 L 125 82 L 121.5 83 L 122 81.5 Q 121.1 69.1 128.5 65 L 131.5 64 Z " /><path fill="rgb(212,142,68)" stroke="rgb(212,142,68)" stroke-width="0.6" opacity="1" d="M 289.5 76 L 303.5 77 L 305 78.5 L 306 101.5 L 304.5 106 L 301.5 100 L 298 102.5 L 304 107.5 L 301.5 112 L 287 77.5 L 289.5 76 Z M 300 78 L 292 81 L 293 83 L 292 87 L 295 89 L 294 92 L 297 92 Q 298 95 303 94 L 302 80 L 304 80 L 300 78 Z " /><path fill="rgb(212,142,68)" stroke="rgb(212,142,68)" stroke-width="0.6" opacity="1" d="M 200.5 77 L 224.5 89 L 231 87 L 240 107 L 237 105.5 L 235 101.5 L 236 99 L 231 96.5 L 232 91 L 227.5 90 L 224.5 91 L 217 88.5 Q 218.1 85.2 215.5 86 L 209.5 87 L 203.5 81 L 201 81 L 200.5 77 Z " /><path fill="rgb(212,142,68)" stroke="rgb(212,142,68)" stroke-width="0.6" opacity="1" d="M 136.5 79 L 139.5 80 L 144.5 79 L 148.5 80 L 152.5 79 L 154.5 80 L 158.5 79 L 160 82.5 L 159.5 84 L 164 83 L 162.5 86 Q 153.9 80.6 140.5 80 L 134 84.5 L 133 109.5 Q 137.1 135.4 150 152.5 L 147.5 154 L 144.5 152 L 141 154.5 L 145.5 163 L 151 159.5 L 149 156.5 L 150.5 154 L 156 162 L 151 164.5 L 150 168.5 Q 152.7 170.2 148.5 172 Q 134.6 154.4 127 130.5 L 122 108.5 L 121 85.5 L 122 85.5 L 122.5 90 L 124.5 90 L 134 84 L 136.5 79 Z M 128 93 L 123 99 Q 126 100 125 106 L 128 109 L 126 114 L 127 116 L 126 123 L 132 126 L 134 125 L 132 121 L 133 118 Q 134 114 131 115 L 131 112 L 131 110 L 132 108 L 129 106 L 130 104 L 132 102 L 132 93 L 128 93 Z M 137 134 L 133 140 L 137 149 Q 142 150 143 146 L 142 140 L 139 138 L 137 134 Z " /><path fill="rgb(212,142,68)" stroke="rgb(212,142,68)" stroke-width="0.6" opacity="1" d="M 166.5 85 L 169.5 87 L 172.5 88 L 176.5 87 L 185 97.5 L 185 100 L 188 100 L 189.5 102 L 192.5 101 Q 195.3 102.3 194 107.5 L 199 114 Q 194.9 115.7 196 111.5 L 187.5 102 Q 177.9 92.1 164 86.5 L 166.5 85 Z " /><path fill="rgb(212,142,68)" stroke="rgb(212,142,68)" stroke-width="0.6" opacity="1" d="M 240.5 108 Q 244.1 119.4 252.5 126 Q 255.8 124.9 255 127.5 Q 253.3 130.8 251.5 127 L 246 123.5 Q 247.5 119.1 244.5 120 Q 240.1 117.9 241 112 Q 238 113.3 239 109.5 L 240.5 108 Z " /><path fill="rgb(212,142,68)" stroke="rgb(212,142,68)" stroke-width="0.6" opacity="1" d="M 191.5 116 Q 195.7 114.9 194 119 L 188.5 118 L 186 119 Q 187.3 122 183.5 121 Q 180.5 122.5 183.5 124 L 185 125.5 L 180.5 132 L 174.5 133 L 177.5 129 L 182 125.5 Q 180.5 122 175 122.5 L 180.5 119 L 191.5 116 Z " /><path fill="rgb(212,142,68)" stroke="rgb(212,142,68)" stroke-width="0.6" opacity="1" d="M 342.5 134 L 352 137.5 L 353.5 139 Q 358.6 142 356.5 145 Q 352.5 136 339 138 Q 337.3 133.9 341.5 135 L 342.5 134 Z " /><path fill="rgb(212,142,68)" stroke="rgb(212,142,68)" stroke-width="0.6" opacity="1" d="M 174.5 135 L 177 137.5 Q 171 141 172 144.5 L 170.5 147 L 168 148.5 L 169 150.5 L 161.5 162 L 160 160.5 Q 165.6 146.6 175 136.5 L 174.5 135 Z " /><path fill="rgb(212,142,68)" stroke="rgb(212,142,68)" stroke-width="0.6" opacity="1" d="M 334 138 L 338 138.5 L 334 141.5 L 335.5 146 Q 350.1 144.4 356.5 151 L 359 150 L 358 147.5 L 361 147 L 359.5 151 L 354.5 153 L 349 149.5 L 347.5 148 L 337.5 150 L 335 149 L 332.5 145 Q 329.5 145.9 331 141.5 L 334 140 L 334 138 Z " /><path fill="rgb(212,142,68)" stroke="rgb(212,142,68)" stroke-width="0.6" opacity="1" d="M 218 155 L 222.5 156 L 226.5 155 L 231 156.5 L 227.5 157 L 223.5 156 Q 215.2 158.2 211 164.5 L 209 172.5 L 211 176.5 L 210 176.5 L 207 171.5 L 208 168.5 L 208.5 166 Q 211.5 166.9 210 162.5 Q 211.6 157 218 158 L 218 155 Z " /><path fill="rgb(212,142,68)" stroke="rgb(212,142,68)" stroke-width="0.6" opacity="1" d="M 230.5 163 L 229 165.5 Q 229.9 168.5 225.5 167 L 222.5 166 L 222 168.5 L 219.5 172 L 212.5 174 L 218.5 167 L 230.5 163 Z " /><path fill="rgb(212,142,68)" stroke="rgb(212,142,68)" stroke-width="0.6" opacity="1" d="M 347 169 Q 355.6 166.7 358 171.5 L 357.5 173 L 367 177.5 L 365.5 180 Q 360.4 172.1 347.5 172 L 346 172.5 L 347 169 Z " /><path fill="rgb(212,142,68)" stroke="rgb(212,142,68)" stroke-width="0.6" opacity="1" d="M 339.5 171 L 344 172.5 Q 335.5 175 331 181.5 L 326.5 192 L 325 187.5 L 328.5 182 L 330 182.5 L 329 180.5 L 333.5 175 L 339.5 171 Z " /><path fill="rgb(212,142,68)" stroke="rgb(212,142,68)" stroke-width="0.6" opacity="1" d="M 150.5 173 L 154 175.5 L 154.5 180 L 157 180.5 L 153 205 L 155 205.5 L 155 216.5 L 154 221.5 L 151.5 224 L 153 221.5 L 151 193.5 L 153 177.5 L 150.5 173 Z " /><path fill="rgb(212,142,68)" stroke="rgb(212,142,68)" stroke-width="0.6" opacity="1" d="M 368.5 183 L 376 187.5 L 375 190.5 Q 377.5 192 374 193.5 L 375.5 197 L 377 198.5 L 379 206.5 L 377 209.5 L 377.5 211 Q 371.4 212.8 374 205.5 L 375 202.5 Q 373.5 189.8 368.5 183 Z " /><path fill="rgb(212,142,68)" stroke="rgb(212,142,68)" stroke-width="0.6" opacity="1" d="M 232 185 Q 235.7 183.5 235 186.5 L 238.5 188 L 241.5 187 L 242.5 190 L 244.5 189 L 255 197.5 L 261 212.5 L 259.5 217 Q 257.4 199.6 245.5 192 Q 240.2 187.8 230.5 188 Q 219.5 190 214 197.5 Q 205.8 205.8 208 224.5 L 211 231.5 L 210.5 234 L 207 231.5 L 208 225.5 L 205 224 L 204 216.5 L 208 207.5 L 207 205.5 L 212 196 L 214 194.5 L 216 188 L 219.5 187 L 222.5 188 L 226.5 187 L 228.5 188 L 232 187 L 232 185 Z " /><path fill="rgb(212,142,68)" stroke="rgb(212,142,68)" stroke-width="0.6" opacity="1" d="M 323 193 Q 327.5 191.3 326 196.5 L 325 203.5 L 327 214.5 L 332.5 223 Q 336 227.5 345.5 226 L 354.5 222 L 356 222.5 L 357.5 221 L 357 222.5 Q 355.6 227.5 362.5 225 L 365 226.5 L 355 232.5 L 356.5 234 L 364.5 230 L 368.5 236 L 381.5 235 L 386.5 236 L 386.5 234 L 392.5 232 Q 396.6 238.9 410.5 236 L 417.5 234 L 421.5 235 L 425 232.5 Q 426.5 225.5 422.5 224 L 418 221.5 L 416 216 L 411 217.5 L 409.5 220 L 406.5 222 L 401 219 Q 402.3 222 398.5 221 L 393 220 L 391.5 223 L 377.5 230 L 371 227.5 L 393.5 219 L 418.5 214 L 419 216.5 L 420.5 219 L 428 218 Q 429.5 221.8 426.5 221 Q 423 223 427.5 225 L 431 222.5 Q 429.5 218.1 432.5 219 L 432.5 218 L 429 217.5 L 434 217 Q 432.1 230.8 422.5 238 L 380.5 237 L 362.5 240 L 357 242.5 Q 356.1 245.5 360.5 244 L 377.5 241 L 376 243.5 L 374.5 246 L 371.5 245 L 367.5 246 Q 366.1 242.8 361 244 Q 362.7 249.2 356 247 L 355 242.5 L 356 239 L 361 240 L 362 235 L 358.5 234 L 356.5 237 L 352.5 236 L 350 237 Q 349.1 231.6 353 229.5 L 347.5 226 L 346 229 L 338.5 230 L 330 222.5 Q 330.8 219.9 327.5 221 L 322 213.5 L 324 198.5 L 323 193 Z " /><path fill="rgb(212,142,68)" stroke="rgb(212,142,68)" stroke-width="0.6" opacity="1" d="M 231.5 194 L 240 195.5 L 237 197.5 Q 237.8 200.1 234.5 199 L 234.5 200 L 239 200 L 241 196.5 L 242.5 197 L 250 203.5 L 254 213 L 251 211.5 L 245.5 204 Q 241.7 199.8 232.5 201 L 223 207.5 Q 218.3 212.3 219 222.5 Q 220.3 231.7 226.5 236 L 237.5 241 L 241.5 239 L 250.5 238 L 257 231.5 L 259.5 223 L 260.5 225 L 262.5 224 Q 266.5 226.5 260.5 229 Q 257.1 228.1 259 233.5 L 253 237.5 L 249.5 242 Q 247.5 239 241.5 240 L 240 243 Q 233.9 241.3 232 244.5 L 233 247.5 L 231.5 247 Q 208.8 240.7 178.5 242 L 152.5 245 L 142 235.5 L 139 229 L 142 228.5 L 139 227.5 L 149.5 224 L 151 226.5 L 149 228.5 L 148 238.5 L 149 242 L 153.5 241 L 155.5 242 L 167.5 238 Q 168.8 243.3 176.5 242 L 177.5 239 L 199.5 239 L 201.5 241 L 204.5 240 L 209 242 L 208 237.5 L 214.5 237 L 222 239.5 L 220.5 242 L 219 244 Q 224.9 244.9 227 240.5 L 224.5 236 L 222.5 237 L 216 231.5 Q 211.5 225 213 212.5 Q 215.1 203.1 221.5 198 L 231.5 194 Z M 223 200 L 223 202 L 221 203 L 219 206 L 216 208 L 219 212 L 219 211 L 222 209 L 221 207 L 222 204 L 226 202 L 223 200 Z " /><path fill="rgb(212,142,68)" stroke="rgb(212,142,68)" stroke-width="0.6" opacity="1" d="M 238.5 207 Q 245 206 246 210.5 Q 246.8 216.3 242.5 217 Q 237 218 236 214.5 Q 234.8 208.3 238.5 207 Z " /><path fill="rgb(212,142,68)" stroke="rgb(212,142,68)" stroke-width="0.6" opacity="1" d="M 313.5 220 L 319 223.5 L 322 231 Q 318.3 229.7 320 235.5 Q 322.5 237 319 238.5 L 313 246.5 L 312.5 251 L 310.5 251 Q 304.8 250.3 304 254.5 L 307 260 L 317.5 258 L 322 260 L 324.5 256 L 331 251.5 Q 329.8 247.8 333.5 249 L 335 248.5 L 327.5 258 Q 322.1 263.1 310.5 262 L 303 257.5 Q 301.5 250.5 305.5 249 L 317 239.5 Q 320 236.5 319 229.5 Q 313.6 221.4 297.5 224 Q 284.6 225.1 278 232.5 L 277 237.5 L 283.5 245 Q 288 249.5 296.5 250 L 299 252.5 Q 298.7 259.8 293.5 262 Q 287.3 267.3 274.5 266 Q 265.1 263.9 260 257.5 L 261 252 Q 253.4 250.9 251 256.5 L 250 260.5 L 252.5 261 L 255 260.5 L 254.5 259 L 261.5 265 L 274.5 270 L 277 272.5 Q 280.3 281.3 287.5 286 Q 291.7 290.3 301.5 289 L 312 282.5 L 320.5 266 Q 330.6 263.5 336 257 Q 336.8 261.7 332.5 263 L 325.5 267 L 322 267 L 320.5 270 L 318 271.5 L 319 274.5 L 316 276.5 L 317 278.5 L 309.5 290 Q 302 289.5 298.5 293 L 296 291.5 L 296.5 290 L 292 291 L 290.5 288 L 285.5 289 L 281.5 282 L 275 277.5 L 270.5 271 L 267 269.5 L 265.5 268 L 263.5 269 L 262 266 L 257.5 268 L 256 264 L 249.5 265 L 246 259.5 L 247 257 L 250 255.5 L 251.5 254 L 256 252 L 257.5 249 Q 261.9 247.5 261 250.5 L 264.5 252 L 267 252.5 L 266 258.5 L 267 261 L 273.5 263 L 284.5 263 L 287.5 260 Q 293.3 260.8 295 257.5 L 293.5 253 L 286 252 L 285 246 L 280 246 L 278.5 244 L 275 237.5 L 276 235 Q 272.3 236.3 274 230.5 L 279.5 227 L 282.5 228 L 283.5 225 L 287 226 L 289.5 222 L 291.5 221 L 294 222.5 L 293.5 224 L 297 222.5 L 297.5 221 L 312.5 221 L 313.5 220 Z " /><path fill="rgb(212,142,68)" stroke="rgb(212,142,68)" stroke-width="0.6" opacity="1" d="M 393.5 240 L 413 241.5 L 408 242.5 L 409 243.5 L 405.5 247 L 391.5 242 L 380 241.5 L 393.5 240 Z " /><path fill="rgb(212,142,68)" stroke="rgb(212,142,68)" stroke-width="0.6" opacity="1" d="M 334.5 241 L 342.5 242 L 344 243.5 L 345 248 Q 348 247 347 250 L 338.5 256 L 336.5 255 L 335 255.5 L 339.5 249 L 342.5 251 L 344 248.5 Q 342.7 242.7 334.5 244 L 333.5 247 L 333 244.5 L 334.5 241 Z " /><path fill="rgb(212,142,68)" stroke="rgb(212,142,68)" stroke-width="0.6" opacity="1" d="M 415.5 241 Q 419.3 239.8 418 243.5 Q 386.3 278.6 336 294 Q 334.5 290.3 337.5 291 L 339.5 292 L 341 289 Q 343.8 285.8 351 287 L 352.5 285 L 354.5 286 L 355 283.5 L 356.5 282 L 358.5 282 Q 364.6 283.3 364 280.5 L 386.5 267 L 389 268 L 390 263.5 L 390 261.5 L 391.5 260 L 400 258 L 401.5 256 Q 405.3 254.5 404 249 Q 410.1 250.8 412 247.5 L 414.5 244 L 416 242.5 L 415.5 241 Z " /><path fill="rgb(212,142,68)" stroke="rgb(212,142,68)" stroke-width="0.6" opacity="1" d="M 171.5 246 Q 204 243.6 228 249.5 L 221.5 252 L 218 251 L 216.5 248 L 204.5 249 L 201.5 251 Q 195 247 182.5 249 L 175.5 250 L 163.5 248 L 162.5 250 Q 165.5 249.2 164 253 L 162 251.5 L 160 248.5 L 171.5 246 Z " /><path fill="rgb(212,142,68)" stroke="rgb(212,142,68)" stroke-width="0.6" opacity="1" d="M 159.5 254 L 162 254.5 L 161 257 L 157.5 256 L 155.5 257 L 153 256 L 152 258.5 L 154 262 L 159.5 264 L 163.5 263 L 168 266.5 L 170.5 270 L 172.5 267 L 175.5 268 L 177.5 264 Q 186.2 264.2 190.5 260 Q 192.3 263.8 194 260.5 L 195.5 258 L 202 260 Q 200.2 254.8 207.5 257 L 210 258 L 211 254 Q 218 252.8 221.5 256 L 236 256 Q 237.3 261.5 233.5 263 L 222.5 263 Q 219.3 266.8 210.5 265 L 208 264 L 206.5 266 L 204.5 265 L 204.5 267 L 197.5 266 L 196 269 L 190 268 L 185 277.5 L 187 282 L 191.5 281 L 193.5 284 L 194 282 L 196.5 281 Q 198.8 285 204 285 L 205.5 288 L 209.5 286 Q 211.6 289.9 217 289 Q 215.3 293.1 219.5 292 L 222.5 290 L 225.5 294 L 232 293 L 233 296.5 L 231.5 297 L 189.5 284 L 172 275.5 L 173 273 L 204.5 263 L 223.5 260 L 232.5 260 L 234 258.5 L 232.5 257 L 220.5 257 Q 190.3 260.8 167.5 272 L 165.5 272 Q 155.4 267.6 149 259.5 L 148 257.5 L 150.5 255 L 159.5 254 Z " /><path fill="rgb(212,142,68)" stroke="rgb(212,142,68)" stroke-width="0.6" opacity="1" d="M 358.5 291 L 364 293.5 L 374 313.5 L 375 329.5 L 374 329.5 L 373.5 325 L 370 326 L 372 318.5 L 371 313.5 L 372 311.5 L 370 311.5 L 369 307.5 L 370 305.5 L 367.5 305 L 363 304 L 359 295 L 353.5 294 L 352 297 L 347 298.5 L 345.5 301 L 341.5 300 L 337.5 302 Q 335.8 298.2 334 301.5 Q 334.9 304.9 329.5 303 L 327.5 302 L 326 305 L 316.5 306 L 308.5 309 L 303 307 Q 304.4 310.7 298.5 309 L 290.5 310 L 288 306.5 L 304.5 306 L 326.5 302 L 358.5 291 Z " /><path fill="rgb(212,142,68)" stroke="rgb(212,142,68)" stroke-width="0.6" opacity="1" d="M 328 293 L 335 294.5 Q 316.8 302.3 291.5 303 L 291.5 302 L 293 300.5 L 297 299 Q 295.9 302.3 300 301 Q 298.9 297.3 307.5 299 L 317.5 297 L 322.5 294 L 328 296 L 328 293 Z " /><path fill="rgb(212,142,68)" stroke="rgb(212,142,68)" stroke-width="0.6" opacity="1" d="M 237.5 295 Q 241.9 293.5 241 296.5 L 244.5 298 L 251 297 Q 249.5 300.8 252.5 300 L 252.5 301 L 235 296.5 L 237.5 295 Z " /><path fill="rgb(212,142,68)" stroke="rgb(212,142,68)" stroke-width="0.6" opacity="1" d="M 258.5 298 Q 263.3 297.3 264 300.5 L 265.5 302 L 265.5 303 L 254 300.5 L 258.5 298 Z " /><path fill="rgb(212,142,68)" stroke="rgb(212,142,68)" stroke-width="0.6" opacity="1" d="M 215.5 299 L 247.5 305 L 266 306 L 266 309 L 259 309 L 257.5 307 L 253.5 309 L 251 307.5 L 251.5 306 L 250 308 L 247.5 308 L 245.5 307 L 243.5 308 L 241 307 L 239.5 304 Q 233.8 302.8 232.5 306 L 225.5 306 L 220 303 L 218.5 301 L 215 303.5 L 211.5 308 L 210 307.5 L 209 313.5 L 210 316.5 L 207 319.5 L 206 328.5 L 207 331.5 L 206 336.5 L 208 350.5 L 202 355.5 L 200.5 359 Q 193.6 361.5 195 356.5 L 193.5 353 L 184 348.5 L 185 342 L 181 341 L 182.5 336 L 184 336.5 L 182 337.5 L 185 338 Q 187.6 348.5 196.5 354 L 201.5 355 L 204 351.5 L 204 338.5 L 203 325.5 L 205 312.5 L 215.5 299 Z " /><path fill="rgb(212,142,68)" stroke="rgb(212,142,68)" stroke-width="0.6" opacity="1" d="M 355.5 303 L 360 305.5 L 362 311.5 L 360 317.5 L 363 319 L 362 322.5 L 364 323 L 365 328.5 L 363 335 Q 359.2 336.5 360 333.5 L 361 321.5 L 353.5 307 Q 350.9 306.2 352 309.5 L 357 322.5 L 355.5 322 Q 350.8 322.8 350 319.5 L 352 316.5 L 349 308.5 L 355.5 303 Z " /><path fill="rgb(212,142,68)" stroke="rgb(212,142,68)" stroke-width="0.6" opacity="1" d="M 257.5 321 L 259 321.5 L 257 327.5 Q 258.7 339.3 265 346.5 L 263.5 346 L 261 344.5 L 257 339.5 L 257 336.5 L 258 334.5 L 257 332 L 255 331.5 L 255 322 L 257.5 321 Z " /><path fill="rgb(212,142,68)" stroke="rgb(212,142,68)" stroke-width="0.6" opacity="1" d="M 260 322 L 265 324.5 L 264 329.5 L 265 333.5 L 264 335.5 L 267 337 Q 265.5 340.7 268.5 340 L 272.5 345 L 277.5 343 L 282 346.5 L 286.5 353 Q 289.9 352.1 288 357.5 Q 293 359.5 290 361.5 L 288.5 364 Q 284.8 365 286 362 L 282.5 362 L 270 354.5 L 271 352 L 269 351.5 L 270.5 351 L 274.5 353 Q 276.8 348.8 279 353.5 L 287.5 363 Q 290.8 361.3 287 359.5 L 277.5 346 L 275 347.5 Q 275.8 350.1 272.5 349 Q 261.1 340.2 260 322 Z " /><path fill="rgb(212,142,68)" stroke="rgb(212,142,68)" stroke-width="0.6" opacity="1" d="M 350.5 329 L 355.5 330 L 357 329.5 L 354.5 334 L 350.5 329 Z " /><path fill="rgb(212,142,68)" stroke="rgb(212,142,68)" stroke-width="0.6" opacity="1" d="M 345 330 Q 349.1 328.3 348 332.5 L 349 343.5 L 344.5 353 L 340.5 347 L 339 345 L 343.5 346 L 348 342.5 L 348 338.5 Q 345.3 339.5 346 335.5 L 347 333 Q 343.7 334.1 345 330 Z " /><path fill="rgb(212,142,68)" stroke="rgb(212,142,68)" stroke-width="0.6" opacity="1" d="M 374.5 334 L 375 335.5 L 372 352.5 L 357 402.5 L 354 427.5 L 352.5 429 L 346 428.5 L 350 427.5 L 349 423.5 L 352.5 418 Q 355.9 418.9 354 413.5 L 353 407 L 356 405.5 L 355 399.5 L 358 395.5 L 357 391 Q 361.5 392.8 360 387.5 L 359 384 L 362 382.5 L 360 373.5 Q 361.3 369.3 366 370 L 365 364.5 L 366 361.5 Q 361.8 359.3 366.5 357 L 370 356 L 369 349 Q 373.5 350.8 372 345.5 L 369 340.5 L 374.5 334 Z " /><path fill="rgb(212,142,68)" stroke="rgb(212,142,68)" stroke-width="0.6" opacity="1" d="M 179.5 339 L 180 342 L 178 343.5 L 179 345.5 L 173 350.5 L 174 354.5 L 173.5 356 L 179.5 354 L 185.5 363 Q 191.1 363.5 193 367.5 L 192 378.5 L 192.5 380 Q 188.8 378.8 190 382.5 L 187 384 Q 188.1 380.7 184 382 Q 185.3 385.3 180.5 384 L 176.5 385 L 174.5 383 L 164.5 383 L 159.5 386 L 154.5 382 L 150 385 L 151 393.5 Q 148 395.5 149 401.5 L 146 405.5 L 146 425 L 149 426.5 Q 147.9 429.8 150.5 429 Q 154.8 429.7 154 435.5 L 152 439.5 L 158 451.5 L 155 455.5 L 159.5 462 L 163.5 461 L 165 463.5 L 164 465.5 L 167 467 Q 165.3 471.1 169.5 470 L 173 469 Q 174.7 473.1 170.5 472 L 156 463.5 Q 152.2 458.8 154 448.5 Q 147.1 439.4 145 425.5 L 145 401.5 L 150 382.5 L 153.5 378 Q 155.5 381.5 161.5 381 L 162.5 380 L 179.5 380 L 188.5 381 Q 192 380 191 374.5 Q 187.4 365.1 179.5 360 L 167 355 L 179.5 339 Z " /><path fill="rgb(212,142,68)" stroke="rgb(212,142,68)" stroke-width="0.6" opacity="1" d="M 353 339 L 358 339.5 L 354.5 348 L 352 349.5 L 353 352.5 L 351 356 Q 348 354.8 349 358.5 L 340 364 L 341 367.5 L 336.5 374 L 333.5 375 L 333 373.5 L 342.5 358 Q 347.3 358.8 348 355.5 Q 353.5 349.8 353 339 Z " /><path fill="rgb(212,142,68)" stroke="rgb(212,142,68)" stroke-width="0.6" opacity="1" d="M 338.5 353 L 338 354.5 Q 336.1 366.6 328.5 373 L 327.5 371 L 325.5 376 L 314.5 384 L 312 383.5 Q 312.9 376.1 309 373.5 L 311.5 373 L 313 375.5 L 312 377.5 L 318 379 L 316 372 L 323.5 373 L 328 369.5 L 333.5 360 Q 336.8 361.1 336 358.5 L 335 354 L 338.5 353 Z " /><path fill="rgb(212,142,68)" stroke="rgb(212,142,68)" stroke-width="0.6" opacity="1" d="M 210.5 359 Q 218 358 219 363.5 L 220 371 Q 216 369.6 218 376.5 L 217 376.5 L 216 363 L 214 364.5 L 211.5 375 L 203 368.5 L 205.5 367 L 209 369 L 209 360.5 L 210.5 359 Z " /><path fill="rgb(212,142,68)" stroke="rgb(212,142,68)" stroke-width="0.6" opacity="1" d="M 202.5 372 Q 211.8 379.7 215 393.5 L 220 423.5 L 220 431.5 L 218.5 431 Q 208.4 426.6 193.5 427 Q 177.1 428.9 167 436 L 168 432 L 174 431 L 175.5 429 L 178 430 L 179.5 427 L 183.5 428 L 185.5 425 L 191.5 424 Q 194.1 427.4 201.5 426 L 211 424 L 212.5 422 L 211 424.5 L 212 426.5 L 211.5 428 L 217 425.5 L 216 421 Q 219.7 422.4 218 416.5 L 215 415 L 214 410.5 Q 216.8 408.8 216 403.5 L 213 402 Q 214 394.5 209 391.5 L 212 387.5 L 209 385.5 L 210 382 L 203 378 L 202.5 372 Z " /><path fill="rgb(212,142,68)" stroke="rgb(212,142,68)" stroke-width="0.6" opacity="1" d="M 306.5 374 L 308 375.5 L 308 387.5 L 298 406.5 L 296 415 Q 291.5 416.8 293 411.5 L 290 396 Q 294.9 394.2 293 400.5 L 297.5 402 L 300.5 397 L 302 397.5 L 301 390 L 306 389 Q 303.8 385.4 305 376.5 L 306.5 374 Z " /><path fill="rgb(212,142,68)" stroke="rgb(212,142,68)" stroke-width="0.6" opacity="1" d="M 330.5 377 L 330 378.5 L 328 380 L 328 382.5 Q 327.3 385.8 322.5 385 L 313 393.5 L 313 397.5 L 305 407.5 L 305 412 L 302 413.5 L 304 418.5 L 301 420 L 300 423.5 L 302.5 429 L 309 433.5 L 307 436.5 L 311 442 L 318 445.5 L 314 451.5 L 317 453 Q 316 459.3 319 462.5 L 315.5 467 L 314 466.5 L 316.5 471 Q 321.3 469.3 320 473.5 L 320.5 475 Q 313.9 474.6 311 470.5 Q 315.7 464.6 314 452.5 Q 312.1 441.4 304.5 436 L 298 431.5 L 301 412.5 L 313.5 389 L 330.5 377 Z " /><path fill="rgb(212,142,68)" stroke="rgb(212,142,68)" stroke-width="0.6" opacity="1" d="M 217.5 379 L 222 382.5 L 219.5 391 L 217.5 379 Z " /><path fill="rgb(212,142,68)" stroke="rgb(212,142,68)" stroke-width="0.6" opacity="1" d="M 285.5 379 L 289.5 385 L 293 387.5 L 289.5 395 L 288 384.5 L 285.5 382 Q 282.5 383.5 284 389.5 Q 285.9 411.8 291 430 L 285 431.5 Q 296.7 435.3 304 443.5 Q 309.7 449.8 308 463.5 Q 305.9 471.4 299.5 475 L 295.5 476 L 294 472.5 L 295 463.5 Q 294.3 455.3 288.5 452 Q 285.3 453.8 289 455.5 L 291 463.5 L 288.5 462 Q 285.5 462.9 287 458.5 L 287 456.5 L 285.5 455 L 287 452.5 L 288.5 449 L 290.5 453 L 294.5 454 L 296.5 453 L 298 455.5 L 296 458.5 L 297 462.5 L 296 470.5 L 297 474 Q 300.7 475.4 299 469.5 L 297 469.5 L 297 467 L 305.5 467 L 306 464.5 L 305 455 L 301 454 L 303 450.5 L 303 448.5 L 301 444.5 L 302 442.5 L 300.5 443 L 295.5 443 L 289 440 L 284 431.5 L 287 424.5 L 283 419.5 L 285 419 L 286 409 L 284 407.5 L 282 401.5 Q 285.8 399.7 284 392.5 L 283 390 L 281 389.5 L 281 383 L 284 381.5 L 285.5 379 Z " /><path fill="rgb(212,142,68)" stroke="rgb(212,142,68)" stroke-width="0.6" opacity="1" d="M 220 392 Q 224.9 390.2 223 396.5 L 222 401 Q 227.6 399.1 225 407.5 L 223.5 412 L 220 392 Z " /><path fill="rgb(212,142,68)" stroke="rgb(212,142,68)" stroke-width="0.6" opacity="1" d="M 224 413 Q 229.3 411.2 227 418.5 L 225.5 422 Q 222.7 419.2 224 413 Z " /><path fill="rgb(212,142,68)" stroke="rgb(212,142,68)" stroke-width="0.6" opacity="1" d="M 225.5 424 L 226 426 Q 230.9 424.2 229 430.5 L 230 433 Q 226.7 431.7 228 436.5 L 231 438 L 230 445 L 234 446.5 L 232 458 Q 236.1 456.3 235 460.5 L 234 462.5 L 235.5 462 Q 240.3 461.3 241 464.5 L 240 468.5 L 241 471 L 249 473.5 L 248 475.5 L 248.5 477 L 236 468.5 L 231 457.5 L 225.5 424 Z " /><path fill="rgb(212,142,68)" stroke="rgb(212,142,68)" stroke-width="0.6" opacity="1" d="M 190.5 432 Q 203.3 431.2 212.5 434 L 223 440.5 Q 223.6 455.9 228 467.5 Q 225.1 472.1 218.5 473 L 216 469.5 L 217 459.5 Q 216 452.5 211 449.5 L 212.5 449 L 216.5 451 L 221 448.5 L 222 442.5 L 218.5 441 L 210 437 L 208.5 435 L 201.5 437 Q 198.3 433.2 189.5 435 L 185.5 437 L 182.5 436 L 176.5 440 L 173.5 440 L 170.5 438 L 167 440 L 166 437.5 L 167.5 438 L 190.5 432 Z M 221 455 L 218 460 L 220 461 L 224 465 L 226 463 L 225 461 L 223 457 L 221 455 Z " /><path fill="rgb(212,142,68)" stroke="rgb(212,142,68)" stroke-width="0.6" opacity="1" d="M 346.5 432 L 358 435.5 L 354.5 437 L 347 434.5 L 346.5 432 Z " /><path fill="rgb(212,142,68)" stroke="rgb(212,142,68)" stroke-width="0.6" opacity="1" d="M 359.5 436 L 363 438 Q 368.9 443.4 370 454.5 Q 369.3 466.3 361.5 471 L 360.5 469 L 359 469.5 L 360 456.5 L 355.5 449 L 355 451.5 L 356 467.5 L 351.5 474 L 348 475 Q 346.5 469.6 349.5 468 L 353 465.5 Q 353.9 457.1 351 452.5 L 354.5 448 Q 360.1 447.6 362 443.5 L 358 437.5 L 359.5 436 Z M 368 449 L 366 450 L 362 455 L 366 461 L 368 460 L 367 458 L 368 452 L 368 449 Z " /><path fill="rgb(212,142,68)" stroke="rgb(212,142,68)" stroke-width="0.6" opacity="1" d="M 189.5 449 L 195 450.5 L 193.5 458 L 189.5 452 L 188 454.5 Q 191.8 459.2 190 469.5 L 187.5 474 L 184.5 475 L 176 472.5 L 187 467.5 L 187 457.5 L 184.5 457 L 183 452.5 L 189.5 449 Z " /><path fill="rgb(212,142,68)" stroke="rgb(212,142,68)" stroke-width="0.6" opacity="1" d="M 209.5 450 Q 214.6 455.4 213 467.5 L 209.5 474 L 205.5 475 L 206 473.5 L 209.5 469 L 212 467.5 Q 213.3 461.4 210.5 462 L 208 461 L 210 452 L 208 451.5 L 209.5 450 Z " /><path fill="rgb(212,142,68)" stroke="rgb(212,142,68)" stroke-width="0.6" opacity="1" d="M 333.5 450 L 338 451.5 Q 336.5 455.9 339.5 455 L 340 457.5 L 341.5 461 L 344 462.5 L 342.5 467 L 340 468.5 L 340 472 Q 343 471 342 474 L 345 474 L 345 476 L 337.5 476 L 337 474.5 Q 341.1 470 340 460.5 L 335.5 452 L 330.5 457 L 329 455.5 L 331.5 451 L 333.5 450 Z " /><path fill="rgb(212,142,68)" stroke="rgb(212,142,68)" stroke-width="0.6" opacity="1" d="M 264.5 454 Q 269.3 453.3 270 456.5 L 271 460.5 L 270 464 Q 274.1 462.3 273 466.5 L 276 470.5 L 273 477 L 283.5 478 L 284.5 475 L 287 473.5 Q 285.9 470.2 288.5 471 L 291 469.5 Q 290.1 476.1 285.5 479 L 269.5 480 L 269 477.5 L 270 464.5 L 264.5 454 Z " /><path fill="rgb(212,142,68)" stroke="rgb(212,142,68)" stroke-width="0.6" opacity="1" d="M 262.5 456 Q 267.8 461.8 266 474.5 L 262.5 479 L 251 478 L 252.5 475 L 257.5 476 L 263 471.5 Q 264.3 462.7 260 459.5 L 262.5 456 Z " /><path fill="rgb(212,142,68)" stroke="rgb(212,142,68)" stroke-width="0.6" opacity="1" d="M 334.5 457 Q 338.3 459.3 336 467.5 Q 334.5 470.5 333 467.5 Q 330.8 459.3 334.5 457 Z " /><path fill="rgb(212,142,68)" stroke="rgb(212,142,68)" stroke-width="0.6" opacity="1" d="M 193.5 459 L 197 460 L 198 468.5 L 196 473 L 194 473.5 L 199 474 Q 200.3 477 196.5 476 L 192 473.5 Q 196 470 194 460.5 L 193.5 459 Z " /><path fill="rgb(212,142,68)" stroke="rgb(212,142,68)" stroke-width="0.6" opacity="1" d="M 325 470 Q 332.1 468.3 334 472.5 Q 332 477 323.5 475 L 323.5 474 L 325 473.5 L 325 471.5 L 325 470 Z " /><path fill="rgb(246,219,170)" stroke="rgb(246,219,170)" stroke-width="0.6" opacity="1" d="M 298.5 268 L 303 269.5 L 302 270.5 L 306 274.5 L 307 277.5 Q 305.6 282 300 281 Q 301.1 284.3 297 283 L 297 281 L 292 281 L 292 279.5 L 284 274.5 L 287.5 270 L 291.5 271 Q 293 267.5 294.5 270 L 298.5 268 Z " /><path fill="rgb(246,219,170)" stroke="rgb(246,219,170)" stroke-width="0.6" opacity="1" d="M 103.5 312 Q 107.5 311.3 106.5 314 L 111.5 314 L 120.5 312 L 122 315 L 127 315 Q 125.9 318.3 130 317 L 130 319.5 L 129 322 L 131 323.5 L 132 327.5 L 129 329 Q 127.7 337.4 121.5 342 L 116.5 345 L 114.5 344 L 113 346.5 L 114 350 Q 110.3 348.6 112 354.5 L 110 359 L 107 360.5 L 108 362.5 L 107 365 Q 104 363.8 105 367.5 L 106 377.5 L 105.5 379 L 108 380.5 L 107 385.5 Q 111.9 388.6 112 396.5 L 112.5 399 Q 118.4 399.5 120.5 404 L 125 404 L 124 406.5 L 127.5 410 Q 133.5 408.5 135 411.5 L 135 420.5 L 137 422.5 L 138 429.5 L 137 432 L 140 433.5 L 139 439 L 141 439.5 L 129 443 Q 131.3 437 124.5 439 L 120 441 L 119 437 L 115.5 438 Q 117.3 435.5 112.5 433 L 105 434 Q 106.7 429.9 102.5 431 L 96.5 424 Q 90.1 423.9 88 419.5 L 84.5 413 L 81 413 Q 82.1 409.7 78 411 L 78 406.5 L 77 400.5 L 73 395 Q 68.9 396.7 70 392.5 L 71 389.5 L 69 377 Q 66 378.3 67 374.5 L 66 372.5 L 67 364 Q 70.7 365.4 69 359.5 L 70 357.5 L 68 353.5 L 72 350.5 L 73 344.5 L 72 342 L 75 340.5 L 74 337 Q 77.8 338.5 77 335.5 L 80 331 L 82 329.5 L 88.5 322 L 95 319 Q 93.3 314.9 97.5 316 L 100.5 314 L 102 314.5 L 103.5 312 Z " /><path fill="rgb(246,219,170)" stroke="rgb(246,219,170)" stroke-width="0.6" opacity="1" d="M 373.5 374 L 378 375 L 377 378.5 L 380 380.5 L 377 386.5 L 380.5 388 L 382 387.5 L 380 398.5 L 382 404.5 L 379 406 L 380 410.5 L 375.5 418 L 372 419 L 372 421 L 368.5 423 L 365.5 421 Q 363.8 423.7 362 419.5 Q 360 412 363.5 410 Q 366.1 410.8 365 407.5 L 365.5 406 Q 362.9 406.8 364 403.5 L 367 402 L 368 398.5 L 366 394.5 L 369 392.5 L 368 386.5 L 371 385 L 370 380.5 L 373.5 374 Z " /><path fill="rgb(246,219,170)" stroke="rgb(246,219,170)" stroke-width="0.6" opacity="1" d="M 368 428 L 376.5 428 L 378 429.5 L 379.5 432 L 388 436 L 389.5 438 Q 394 440 390.5 442 L 381 445.5 L 382 449 L 384 449.5 L 383 456.5 L 384 459.5 L 381 460.5 L 379.5 463 Q 373.8 464.6 376 459 L 380 460 L 379 454 L 377 452.5 L 375 443.5 L 375 441.5 L 372.5 437 L 366 431.5 L 368 428 Z " /><path fill="rgb(91,77,62)" stroke="rgb(91,77,62)" stroke-width="0.6" opacity="1" d="M 139.5 84 Q 154.9 84.4 164 90 L 164.5 92 L 166.5 92 Q 180.8 98.8 190 110.5 Q 191.1 113.8 188.5 113 L 187 113.5 L 185 112 L 183.5 114 L 169 121.5 L 170.5 125 L 174 126 L 172.5 129 L 170 129.5 L 171 130.5 L 165 136.5 L 168 140.5 L 166.5 140 L 165 141.5 L 165 143.5 L 158.5 156 L 157.5 154 L 156.5 156 L 145 137.5 L 137 112.5 L 139 111.5 L 137 111 L 136 106.5 L 138 105.5 L 136 105 L 136 90.5 L 137.5 90 L 137 88.5 L 139.5 84 Z " /><path fill="rgb(91,77,62)" stroke="rgb(91,77,62)" stroke-width="0.6" opacity="1" d="M 114.5 85 L 115 96.5 L 114 96.5 L 114.5 85 Z " /><path fill="rgb(91,77,62)" stroke="rgb(91,77,62)" stroke-width="0.6" opacity="1" d="M 260.5 117 L 261 118.5 L 261 120.5 L 262.5 122 L 263 124.5 L 262.5 126 L 259 118.5 L 260.5 117 Z " /><path fill="rgb(91,77,62)" stroke="rgb(91,77,62)" stroke-width="0.6" opacity="1" d="M 347.5 191 Q 353.8 189.8 355 193.5 Q 356.5 201.5 351.5 203 L 351 201 L 346.5 202 L 344 195.5 L 347.5 191 Z " /><path fill="rgb(91,77,62)" stroke="rgb(91,77,62)" stroke-width="0.6" opacity="1" d="M 294.5 228 L 310.5 228 L 316 231.5 L 314 232 L 315 234.5 L 307.5 244 L 299.5 248 L 296 247 L 294.5 245 L 292.5 246 L 281 237.5 Q 280.3 232.8 283.5 232 L 294.5 228 Z " /><path fill="rgb(91,77,62)" stroke="rgb(91,77,62)" stroke-width="0.6" opacity="1" d="M 248.5 233 L 248 236.5 L 246.5 239 L 241 238.5 L 246 236.5 L 248.5 233 Z " /><path fill="rgb(91,77,62)" stroke="rgb(91,77,62)" stroke-width="0.6" opacity="1" d="M 390 238 L 398.5 239 L 404 238 L 403.5 240 L 390 240 L 390 238 Z " /><path fill="rgb(91,77,62)" stroke="rgb(91,77,62)" stroke-width="0.6" opacity="1" d="M 190.5 327 L 185.5 333 L 190.5 327 Z " /><path fill="rgb(91,77,62)" stroke="rgb(91,77,62)" stroke-width="0.6" opacity="1" d="M 299.5 438 L 304.5 444 L 299.5 438 Z " /><path fill="rgb(230,146,157)" stroke="rgb(230,146,157)" stroke-width="0.6" opacity="1" d="M 275.5 75 Q 282.5 73.5 284 77.5 Q 294.1 93.9 294 120.5 L 292 132.5 L 286.5 143 L 282.5 143 L 273 135.5 Q 262.1 124.6 258 108 L 256 108.5 L 256 118.5 L 255 122 L 250 119.5 L 234 87.5 L 234 84 L 259.5 77 Q 268.8 89.5 272 107 Q 275 108.3 274 104.5 Q 271.3 88.7 264 77.5 L 265.5 76 L 275.5 75 Z " /><path fill="rgb(230,146,157)" stroke="rgb(230,146,157)" stroke-width="0.6" opacity="1" d="M 199.5 319 Q 202.5 318.1 201 322.5 L 200 323.5 L 200 338.5 L 201 350.5 L 198.5 352 L 195 350 Q 188.5 343.7 186 332.5 L 199.5 319 Z " /><path fill="rgb(230,146,157)" stroke="rgb(230,146,157)" stroke-width="0.6" opacity="1" d="M 164.5 357 Q 178.1 359.9 185 369.5 L 188 376.5 Q 186.8 379.3 181.5 378 L 180.5 377 L 162.5 377 L 158.5 378 L 154 375.5 Q 157.2 364.2 164.5 357 Z " /><path fill="rgb(43,46,48)" stroke="rgb(43,46,48)" stroke-width="0.6" opacity="1" d="M 134.5 57 L 149 57.5 L 134.5 58 L 134.5 57 Z " /><path fill="rgb(43,46,48)" stroke="rgb(43,46,48)" stroke-width="0.6" opacity="1" d="M 371.5 65 L 365.5 72 L 371.5 65 Z " /><path fill="rgb(43,46,48)" stroke="rgb(43,46,48)" stroke-width="0.6" opacity="1" d="M 374.5 66 L 367.5 74 L 374.5 66 Z " /><path fill="rgb(43,46,48)" stroke="rgb(43,46,48)" stroke-width="0.6" opacity="1" d="M 273.5 74 L 285.5 75 L 287 74.5 L 286 77.5 L 286.5 80 L 288 81.5 L 293 93.5 L 291 94.5 Q 289 82.5 282.5 75 L 273.5 75 L 273.5 74 Z " /><path fill="rgb(43,46,48)" stroke="rgb(43,46,48)" stroke-width="0.6" opacity="1" d="M 260.5 76 L 265 79.5 L 266 82.5 L 265.5 84 L 267 85.5 L 269 91.5 L 267 90.5 L 260.5 76 Z " /><path fill="rgb(43,46,48)" stroke="rgb(43,46,48)" stroke-width="0.6" opacity="1" d="M 303.5 76 L 308 78 L 309 88 Q 305.3 89.3 307 83.5 L 304.5 77 L 303.5 76 Z " /><path fill="rgb(43,46,48)" stroke="rgb(43,46,48)" stroke-width="0.6" opacity="1" d="M 401 77 Q 405.9 75.4 404 81 L 402 81.5 L 402 93 Q 405.7 91.7 404 97.5 L 403 97.5 L 401 95.5 L 401 77 Z " /><path fill="rgb(43,46,48)" stroke="rgb(43,46,48)" stroke-width="0.6" opacity="1" d="M 133.5 91 L 134 95 Q 137 94 136 97 Q 132.5 95.9 134 103.5 L 133 103.5 L 133.5 91 Z " /><path fill="rgb(43,46,48)" stroke="rgb(43,46,48)" stroke-width="0.6" opacity="1" d="M 235.5 91 L 235.5 93 L 237 93.5 L 236.5 95 L 238 95.5 L 237.5 97 L 239 97.5 L 238.5 99 L 240 99.5 L 238 100.5 L 234 92.5 L 235.5 91 Z " /><path fill="rgb(43,46,48)" stroke="rgb(43,46,48)" stroke-width="0.6" opacity="1" d="M 351.5 95 L 364 96.5 L 352.5 97 L 351.5 95 Z " /><path fill="rgb(43,46,48)" stroke="rgb(43,46,48)" stroke-width="0.6" opacity="1" d="M 307 96 Q 310.3 94.7 309 99.5 L 305 113 L 302 112.5 Q 307.5 106.8 307 96 Z " /><path fill="rgb(43,46,48)" stroke="rgb(43,46,48)" stroke-width="0.6" opacity="1" d="M 240.5 101 L 243 106.5 L 242.5 108 L 244 108.5 L 243.5 110 L 245 110.5 L 244.5 112 L 246 112.5 L 245.5 114 L 247 114.5 L 246.5 116 L 248 116.5 L 247.5 118 L 250 119.5 L 249.5 122 L 240 104.5 L 240.5 103 L 239 102.5 L 240.5 101 Z " /><path fill="rgb(43,46,48)" stroke="rgb(43,46,48)" stroke-width="0.6" opacity="1" d="M 294 125 L 296 126.5 Q 295 138.5 288.5 145 L 286.5 146 L 286 144.5 L 291 140.5 L 290 138.5 Q 294 133.3 294 125 Z " /><path fill="rgb(43,46,48)" stroke="rgb(43,46,48)" stroke-width="0.6" opacity="1" d="M 279.5 141 L 285 144 L 283.5 146 L 278 142.5 L 279.5 141 Z " /><path fill="rgb(43,46,48)" stroke="rgb(43,46,48)" stroke-width="0.6" opacity="1" d="M 214.5 169 L 211.5 173 L 209 171.5 L 209.5 170 L 210 172 L 214.5 169 Z " /><path fill="rgb(43,46,48)" stroke="rgb(43,46,48)" stroke-width="0.6" opacity="1" d="M 408.5 213 Q 414.4 211.3 413 215 L 402.5 216 L 382 222 L 383.5 220 L 408.5 213 Z " /><path fill="rgb(43,46,48)" stroke="rgb(43,46,48)" stroke-width="0.6" opacity="1" d="M 423.5 238 L 422.5 240 L 419.5 242 L 416 241 Q 414.9 237.5 422.5 239 L 423.5 238 Z " /><path fill="rgb(43,46,48)" stroke="rgb(43,46,48)" stroke-width="0.6" opacity="1" d="M 417.5 245 L 409.5 254 L 417.5 245 Z " /><path fill="rgb(43,46,48)" stroke="rgb(43,46,48)" stroke-width="0.6" opacity="1" d="M 198.5 262 L 200 264 L 180.5 269 L 181.5 267 L 198.5 262 Z " /><path fill="rgb(43,46,48)" stroke="rgb(43,46,48)" stroke-width="0.6" opacity="1" d="M 201 319 L 203 319.5 L 203 343 L 201 342.5 L 201 319 Z " /><path fill="rgb(43,46,48)" stroke="rgb(43,46,48)" stroke-width="0.6" opacity="1" d="M 258 324 Q 262 322.6 260 329.5 L 263 337.5 L 262.5 339 L 265 340.5 L 266 342.5 Q 264.5 345.5 263 342.5 L 261 337.5 L 261.5 336 Q 258.9 336.8 260 333.5 L 258 324 Z " /><path fill="rgb(43,46,48)" stroke="rgb(43,46,48)" stroke-width="0.6" opacity="1" d="M 127.5 339 L 116.5 351 L 127.5 339 Z " /><path fill="rgb(43,46,48)" stroke="rgb(43,46,48)" stroke-width="0.6" opacity="1" d="M 130.5 343 L 121.5 353 L 130.5 343 Z " /><path fill="rgb(43,46,48)" stroke="rgb(43,46,48)" stroke-width="0.6" opacity="1" d="M 267.5 345 L 272.5 351 L 266 346.5 L 267.5 345 Z " /><path fill="rgb(43,46,48)" stroke="rgb(43,46,48)" stroke-width="0.6" opacity="1" d="M 192.5 347 L 198 353.5 L 192 348.5 L 192.5 347 Z " /><path fill="rgb(43,46,48)" stroke="rgb(43,46,48)" stroke-width="0.6" opacity="1" d="M 168 356 L 181 362.5 L 179.5 363 L 168 358 L 168 356 Z " /><path fill="rgb(43,46,48)" stroke="rgb(43,46,48)" stroke-width="0.6" opacity="1" d="M 214 364 L 216 364.5 L 216 374 Q 213 372.8 214 376.5 L 212 377.5 Q 215 372.3 214 364 Z " /><path fill="rgb(43,46,48)" stroke="rgb(43,46,48)" stroke-width="0.6" opacity="1" d="M 185.5 367 L 190 376 Q 187 377.3 188 373.5 L 187.5 371 L 185 369.5 L 185.5 367 Z " /><path fill="rgb(43,46,48)" stroke="rgb(43,46,48)" stroke-width="0.6" opacity="1" d="M 389.5 390 L 390 400.5 L 389 400.5 L 389.5 390 Z " /><path fill="rgb(43,46,48)" stroke="rgb(43,46,48)" stroke-width="0.6" opacity="1" d="M 326.5 481 L 342 481.5 L 326.5 482 L 326.5 481 Z " /><path fill="rgb(238,212,165)" stroke="rgb(238,212,165)" stroke-width="0.6" opacity="1" d="M 295.5 266 Q 305.1 266.4 309 272.5 L 310 277.5 Q 306.5 284 297.5 285 Q 287.7 283.8 284 276.5 L 282 270 Q 290.6 270.8 295.5 266 Z M 299 268 L 295 270 Q 293 268 292 271 L 288 270 L 284 275 L 292 280 L 292 281 L 297 281 L 297 283 Q 301 284 300 281 Q 306 282 307 278 L 306 275 L 302 271 L 303 270 L 299 268 Z " /><path fill="rgb(238,212,165)" stroke="rgb(238,212,165)" stroke-width="0.6" opacity="1" d="M 108.5 310 Q 124.3 308.2 130 316.5 L 127 317 L 127 315 L 122 315 L 122 313.5 L 118.5 312 L 106 314 L 104.5 312 L 104.5 311 L 108.5 310 Z " /><path fill="rgb(238,212,165)" stroke="rgb(238,212,165)" stroke-width="0.6" opacity="1" d="M 101.5 312 L 103 312.5 L 101.5 315 L 99.5 314 L 95 316 Q 96.5 319.8 93.5 319 L 83 327.5 L 82 331 L 80 332.5 L 77 337 Q 72.9 335.3 74 339.5 L 73.5 342 L 72 343.5 L 73 345.5 L 70.5 352 L 68 353.5 L 70 358.5 L 69 364 Q 65.3 362.9 67 371.5 L 66 373.5 L 67 377 Q 70 375.8 69 379.5 L 71 391.5 L 70 395 Q 73.8 393.5 73 396.5 L 77 400.5 L 78 411 Q 82.1 409.7 81 413 L 84.5 413 L 91.5 423 Q 97.1 422.9 99 426.5 L 102.5 431 L 105 431 Q 103.5 434.8 106.5 434 L 112.5 433 Q 117.3 435.5 115.5 438 L 119 437 L 120 440.5 L 118.5 440 Q 97.1 433.9 84 419.5 Q 64.7 401.3 65 363.5 Q 69.1 334.6 87.5 320 L 101.5 312 Z " /><path fill="rgb(238,212,165)" stroke="rgb(238,212,165)" stroke-width="0.6" opacity="1" d="M 130.5 318 L 133 327.5 Q 130.4 338.4 122.5 344 L 117 348.5 L 110.5 358 L 110 356.5 Q 113.3 355 112 350 Q 115 351.3 114 347.5 L 113 345.5 L 115.5 344 L 117.5 345 L 124 339.5 L 129 329 L 132 327.5 L 131 322 L 129 320.5 L 130.5 318 Z " /><path fill="rgb(238,212,165)" stroke="rgb(238,212,165)" stroke-width="0.6" opacity="1" d="M 108.5 359 L 110 360.5 L 108 363.5 L 107 375.5 L 108 379.5 L 106.5 379 L 105 378.5 L 106 368.5 L 105 365 L 107 363.5 L 108 361.5 L 108.5 359 Z " /><path fill="rgb(238,212,165)" stroke="rgb(238,212,165)" stroke-width="0.6" opacity="1" d="M 373.5 370 L 377 372.5 Q 384.9 381.6 384 399.5 Q 382.7 414.2 374.5 422 L 370.5 423 L 370 421 L 373.5 419 L 377 416.5 Q 376.4 410.9 380 409.5 L 379 406 L 382 404.5 L 380 397.5 L 382 387.5 L 380.5 388 L 377 386.5 L 380 380.5 L 377 378.5 L 378 375 L 373.5 374 L 370 382.5 L 371 385 L 368.5 386 L 368 383.5 L 373.5 370 Z " /><path fill="rgb(238,212,165)" stroke="rgb(238,212,165)" stroke-width="0.6" opacity="1" d="M 108.5 381 Q 111.8 394.7 121.5 402 L 124 403.5 L 120.5 404 L 111 397.5 L 112 393.5 L 107 384.5 L 108.5 381 Z " /><path fill="rgb(238,212,165)" stroke="rgb(238,212,165)" stroke-width="0.6" opacity="1" d="M 367.5 387 L 369 392.5 L 366 394.5 L 368 399.5 L 367 402 L 364 403.5 Q 362.9 406.8 365.5 406 L 365 407.5 Q 366.1 410.8 363.5 410 L 362 410.5 L 367.5 387 Z " /><path fill="rgb(238,212,165)" stroke="rgb(238,212,165)" stroke-width="0.6" opacity="1" d="M 125.5 405 L 138 411.5 Q 137.4 431.8 144 444 L 132.5 444 L 131 442.5 L 141 439.5 L 139 439 L 140 433.5 L 137 432 L 138 423.5 L 137 421 L 135 420.5 L 135 411.5 Q 133.5 408.5 127.5 410 L 124 406.5 L 125.5 405 Z " /><path fill="rgb(238,212,165)" stroke="rgb(238,212,165)" stroke-width="0.6" opacity="1" d="M 361.5 412 Q 360.2 419.8 364.5 422 L 366.5 421 Q 369.5 422.5 366.5 424 L 364 425.5 L 364.5 427 L 376.5 427 Q 386.1 429.4 391 436.5 Q 395 441.5 395 450.5 L 391.5 460 L 390.5 458 L 389.5 460 Q 390.9 448.6 385.5 444 L 385 446.5 L 386 456.5 Q 384.9 463.9 379.5 467 L 378 465 L 374 465 L 374 463.5 L 376 454.5 Q 374.6 438.4 363.5 432 L 360 429.5 Q 359 419 361.5 412 Z M 368 428 L 366 432 L 373 437 L 375 442 L 375 444 L 377 453 L 379 454 L 380 460 L 376 459 Q 374 465 380 463 L 381 461 L 384 460 L 383 457 L 384 450 L 382 449 L 381 446 L 391 442 Q 394 440 390 438 L 388 436 L 380 432 L 378 430 L 377 428 L 368 428 Z " /><path fill="rgb(189,138,67)" stroke="rgb(189,138,67)" stroke-width="0.6" opacity="1" d="M 371.5 64 L 366.5 70 L 371.5 64 Z " /><path fill="rgb(189,138,67)" stroke="rgb(189,138,67)" stroke-width="0.6" opacity="1" d="M 374.5 67 L 368.5 74 L 374.5 67 Z " /><path fill="rgb(189,138,67)" stroke="rgb(189,138,67)" stroke-width="0.6" opacity="1" d="M 415.5 246 L 410.5 252 L 415.5 246 Z " /><path fill="rgb(160,132,67)" stroke="rgb(160,132,67)" stroke-width="0.6" opacity="1" d="M 382.5 114 L 392.5 125 L 382.5 114 Z " /><path fill="rgb(160,132,67)" stroke="rgb(160,132,67)" stroke-width="0.6" opacity="1" d="M 182.5 242 L 195 242.5 L 182.5 243 L 182.5 242 Z " /><path fill="rgb(126,110,66)" stroke="rgb(126,110,66)" stroke-width="0.6" opacity="1" d="M 381.5 118 L 387.5 125 L 381.5 118 Z " /><path fill="rgb(126,110,66)" stroke="rgb(126,110,66)" stroke-width="0.6" opacity="1" d="M 373.5 207 L 374 211 L 378 212.5 L 376 213.5 L 374.5 212 Q 371.8 210.8 373.5 207 Z " /><path fill="rgb(126,110,66)" stroke="rgb(126,110,66)" stroke-width="0.6" opacity="1" d="M 289 303 L 292.5 304 L 295 303 Q 293.6 306.7 299.5 305 L 299.5 306 L 289 305 L 289 303 Z " /><path fill="rgb(104,103,100)" stroke="rgb(104,103,100)" stroke-width="0.6" opacity="1" d="M 389.5 237 L 404 237.5 L 397.5 239 L 389.5 238 L 389.5 237 Z " /><path fill="rgb(104,103,100)" stroke="rgb(104,103,100)" stroke-width="0.6" opacity="1" d="M 440.5 244 L 452 247 L 450.5 249 L 441.5 246 L 440.5 244 Z " /><path fill="rgb(104,103,100)" stroke="rgb(104,103,100)" stroke-width="0.6" opacity="1" d="M 82.5 316 L 77.5 322 L 82.5 316 Z " /><path fill="rgb(104,103,100)" stroke="rgb(104,103,100)" stroke-width="0.6" opacity="1" d="M 193.5 316 L 177.5 333 L 193.5 316 Z " /><path fill="rgb(104,103,100)" stroke="rgb(104,103,100)" stroke-width="0.6" opacity="1" d="M 198.5 319 L 191.5 327 L 198.5 319 Z " /><path fill="rgb(104,103,100)" stroke="rgb(104,103,100)" stroke-width="0.6" opacity="1" d="M 179.5 363 L 184.5 369 L 179.5 363 Z " /><path fill="rgb(146,139,137)" stroke="rgb(146,139,137)" stroke-width="0.6" opacity="1" d="M 375.5 361 L 381 367.5 L 375 362.5 L 375.5 361 Z " /><path fill="rgb(146,139,137)" stroke="rgb(146,139,137)" stroke-width="0.6" opacity="1" d="M 136.5 409 Q 141 411 139 419.5 L 138 419.5 Q 139.2 411 136.5 409 Z " /><path fill="rgb(146,139,137)" stroke="rgb(146,139,137)" stroke-width="0.6" opacity="1" d="M 191.5 481 L 203 481.5 L 191.5 482 L 191.5 481 Z " /><path fill="rgb(181,175,168)" stroke="rgb(181,175,168)" stroke-width="0.6" opacity="1" d="M 422.5 248 L 412.5 259 L 422.5 248 Z " /><path fill="rgb(210,210,210)" stroke="rgb(210,210,210)" stroke-width="0.6" opacity="1" d="M 136.5 56 L 147 56.5 L 136.5 57 L 136.5 56 Z " /><path fill="rgb(210,210,210)" stroke="rgb(210,210,210)" stroke-width="0.6" opacity="1" d="M 131.5 343 L 122.5 353 L 131.5 343 Z " /><path fill="rgb(210,210,210)" stroke="rgb(210,210,210)" stroke-width="0.6" opacity="1" d="M 329.5 482 L 341 482.5 L 329.5 483 L 329.5 482 Z " /><path fill="rgb(210,210,210)" stroke="rgb(210,210,210)" stroke-width="0.6" opacity="1" d="M 266.5 486 L 277 486.5 L 266.5 487 L 266.5 486 Z " /></svg>