<svg width="627" height="627" preserveAspectRatio="xMidYMid meet" viewBox="0 0 512 512" version="1.1" xmlns="http://www.w3.org/2000/svg" ><path fill="rgb(255,255,255)" stroke="rgb(255,255,255)" stroke-width="0.6" opacity="1" d="M 0 0 L 512 0 L 512 512 L 0 512 L 0 0 Z M 154 28 L 143 31 L 126 39 L 104 54 L 76 67 L 60 78 Q 49 88 45 105 L 46 136 L 57 169 L 59 186 L 61 191 L 71 198 L 85 198 L 99 191 L 107 184 L 100 203 Q 98 228 110 240 L 125 254 L 150 272 L 147 281 Q 146 289 149 293 Q 150 303 146 310 L 146 341 L 149 350 L 145 389 L 137 417 L 136 418 L 127 419 L 120 423 Q 112 429 109 441 Q 108 452 112 459 L 120 466 L 139 472 L 178 471 L 193 464 L 200 455 Q 203 435 210 420 L 213 401 L 215 399 Q 221 402 231 401 L 233 404 L 233 430 Q 230 434 224 434 Q 213 440 211 455 Q 210 465 214 471 L 222 478 L 240 484 L 274 484 Q 284 482 292 477 L 300 468 L 304 457 L 307 458 L 335 458 L 350 453 Q 358 448 360 437 L 360 404 L 355 386 L 359 383 L 361 389 Q 369 400 383 406 Q 390 411 391 423 L 385 427 Q 377 432 375 444 Q 374 452 377 458 L 385 465 L 402 470 L 431 469 L 444 463 Q 452 457 454 446 L 453 401 L 448 385 L 436 369 L 436 334 L 431 311 L 452 298 Q 460 291 464 280 Q 465 275 462 274 L 468 255 Q 470 242 465 236 L 461 234 L 459 233 L 456 213 L 447 197 Q 443 190 433 191 L 428 196 L 428 223 L 424 240 L 414 259 L 401 271 L 391 266 L 376 262 L 347 262 L 315 270 L 301 270 L 299 268 L 310 260 L 323 245 L 332 224 Q 342 237 362 242 L 371 241 Q 379 236 380 225 Q 399 208 413 187 Q 420 176 422 161 Q 424 145 420 136 L 410 120 Q 378 96 352 66 L 337 57 L 329 55 Q 306 53 297 64 L 270 49 L 255 45 L 244 44 L 212 44 L 195 48 L 189 40 Q 180 25 154 28 Z " /><path fill="rgb(174,116,66)" stroke="rgb(174,116,66)" stroke-width="0.6" opacity="1" d="M 156.5 35 Q 177.3 33.2 184 45.5 L 187 54.5 L 184.5 58 L 207.5 52 L 230.5 50 L 250.5 52 L 272.5 58 L 288.5 67 L 294.5 73 L 297.5 73 L 302 69.5 L 303.5 67 Q 312.2 60.2 330.5 63 L 345.5 70 L 365 88.5 L 366.5 91 L 407 127.5 L 414 140.5 L 416 154.5 L 414 164.5 L 406 184.5 Q 392.8 204.3 375 219.5 L 371 225.5 Q 371.7 231.7 368.5 234 L 360.5 234 L 347.5 228 L 334 215.5 Q 318 195 321 155.5 L 323 150.5 L 323 136.5 L 325 124.5 L 327 120.5 L 327 95.5 L 324 83.5 L 317.5 75 Q 313.8 73.8 315 77.5 Q 319.8 81.8 319 90 L 311.5 85 L 310 87.5 L 319 102.5 L 319 123.5 L 314 152.5 L 315 159.5 L 314 160.5 L 314 179.5 L 317 196.5 L 325 212.5 L 325 220.5 Q 319.4 243.4 303.5 256 Q 273.9 280.2 227 286 L 228 281 L 211.5 289 L 195.5 291 Q 171.3 288.3 160 272.5 L 151.5 263 Q 129.1 251.9 114 233.5 Q 106.6 223.9 107 206.5 L 110 194.5 L 119 178.5 L 118 174.5 L 119 165.5 L 131 143.5 L 146 90.5 L 155.5 78 L 172 66.5 L 168.5 65 L 157 71 L 157 68.5 L 168 55.5 L 168 53 Q 158.8 55 154 62.5 L 141 85.5 L 123 145.5 L 109 170.5 L 95.5 184 L 86.5 190 L 75.5 192 L 68 187.5 Q 64 179.5 64 167.5 Q 56 149 52 126.5 L 53 125.5 L 53 103.5 Q 56.8 89.8 66.5 82 L 76.5 75 L 105.5 62 L 133.5 43 L 156.5 35 Z M 166 99 L 155 106 L 150 113 L 152 117 L 163 110 L 178 110 Q 181 109 180 104 L 172 99 L 169 100 L 166 99 Z M 266 112 Q 262 113 263 118 L 280 125 L 288 135 L 292 134 Q 293 126 289 123 L 278 113 L 266 112 Z M 157 136 L 150 140 Q 139 148 137 165 Q 136 177 142 183 L 141 184 L 139 187 Q 150 186 156 190 L 166 190 L 180 185 L 199 185 L 200 184 L 208 185 L 219 190 Q 222 191 221 189 L 215 184 L 198 179 L 187 179 L 178 181 L 183 167 L 183 155 L 178 144 L 169 136 L 157 136 Z M 260 149 L 250 155 Q 239 163 238 181 Q 237 195 246 200 L 247 200 L 242 189 Q 241 169 250 161 L 260 154 Q 269 152 274 156 Q 281 160 283 170 Q 285 188 278 197 L 275 197 L 278 193 L 280 184 L 278 174 L 268 165 Q 259 164 256 167 L 248 176 L 246 182 L 247 184 L 246 190 L 249 197 L 258 204 L 268 205 L 274 208 L 275 204 L 278 202 L 285 192 L 288 181 Q 289 168 285 161 L 273 150 L 271 150 L 260 149 Z M 181 190 L 170 194 L 163 203 L 168 218 L 183 228 Q 186 230 184 239 L 179 243 Q 167 245 162 241 Q 154 236 150 227 L 151 218 L 150 213 Q 142 213 140 218 L 140 219 L 145 219 L 145 225 L 150 237 Q 153 244 162 245 L 166 251 Q 166 264 172 272 L 181 279 L 190 282 Q 204 282 212 275 L 214 272 L 217 270 L 226 255 L 236 248 L 247 235 L 251 237 L 253 236 L 248 228 Q 241 226 240 230 Q 239 233 242 232 L 239 239 L 232 245 L 218 250 Q 200 251 192 244 Q 187 240 187 232 Q 191 227 201 227 L 211 221 L 218 212 Q 220 203 216 201 Q 206 188 181 190 Z " /><path fill="rgb(174,116,66)" stroke="rgb(174,116,66)" stroke-width="0.6" opacity="1" d="M 158.5 141 Q 170.3 139.2 174 145.5 L 178 158 L 174 156.5 L 170.5 151 Q 156.5 149 152 156.5 L 147 167.5 L 147 176.5 L 149 184 L 144 181.5 L 142 177.5 L 141 163.5 Q 143.6 150.6 152.5 144 L 158.5 141 Z " /><path fill="rgb(174,116,66)" stroke="rgb(174,116,66)" stroke-width="0.6" opacity="1" d="M 291.5 271 Q 294.3 270.4 293 276.5 L 284.5 288 L 283 289.5 L 260.5 304 L 239.5 311 L 202 313 L 201 306.5 L 202 300.5 L 207.5 295 L 237.5 292 L 251.5 289 Q 274 282.5 291.5 271 Z " /><path fill="rgb(174,116,66)" stroke="rgb(174,116,66)" stroke-width="0.6" opacity="1" d="M 187.5 275 L 199 275.5 L 187.5 276 L 187.5 275 Z " /><path fill="rgb(174,116,66)" stroke="rgb(174,116,66)" stroke-width="0.6" opacity="1" d="M 300.5 370 L 301 403.5 L 300 403.5 L 300.5 370 Z " /><path fill="rgb(174,116,66)" stroke="rgb(174,116,66)" stroke-width="0.6" opacity="1" d="M 307.5 379 L 308 391.5 L 307 391.5 L 307.5 379 Z " /><path fill="rgb(174,116,66)" stroke="rgb(174,116,66)" stroke-width="0.6" opacity="1" d="M 125.5 445 L 126 458.5 L 125 458.5 L 125.5 445 Z " /><path fill="rgb(174,116,66)" stroke="rgb(174,116,66)" stroke-width="0.6" opacity="1" d="M 255.5 459 L 256 472.5 L 255 472.5 L 255.5 459 Z " /><path fill="rgb(174,116,66)" stroke="rgb(174,116,66)" stroke-width="0.6" opacity="1" d="M 402.5 462 L 414 462.5 L 402.5 463 L 402.5 462 Z " /><path fill="rgb(231,197,145)" stroke="rgb(231,197,145)" stroke-width="0.6" opacity="1" d="M 184.5 251 Q 191.3 249.2 193 252.5 Q 188.4 254.4 189 261.5 Q 190.5 264.5 192 261.5 L 195.5 256 L 204.5 254 Q 207.2 256.8 213.5 256 L 216 258.5 Q 215.4 266.9 209.5 270 L 199.5 275 L 183.5 275 L 175 268.5 L 173 260.5 L 179.5 253 L 184.5 251 Z " /><path fill="rgb(231,197,145)" stroke="rgb(231,197,145)" stroke-width="0.6" opacity="1" d="M 357.5 269 L 374.5 269 L 388.5 273 Q 403 279.5 412 291.5 L 416 296.5 L 425 316.5 Q 429.7 334.3 428 358.5 L 427 363.5 L 428 369.5 Q 439.7 381.3 445 399.5 L 446 438.5 L 445 443.5 L 446 449.5 L 440.5 457 L 429.5 462 L 420.5 462 L 417 459.5 L 416 445.5 L 417 443.5 Q 415 440 413 444.5 Q 409 448 411 457.5 L 413 462 L 400.5 462 L 397 459.5 L 396 445.5 L 397 440.5 Q 395.5 437.5 394 440.5 Q 389.2 446.9 391 459 Q 386.3 459.8 385 455.5 L 384 441.5 L 392.5 431 L 401 427.5 L 398 422.5 L 396 411.5 L 389.5 402 Q 376.2 395.3 367 384.5 L 361 372.5 L 360 355.5 L 357.5 352 Q 353.3 357.8 354 368.5 L 356 375.5 L 326.5 389 L 309.5 393 L 308 391.5 L 308 379.5 L 306 376.5 L 305 364 L 301 365.5 L 300 370.5 L 300 410.5 L 297 428.5 L 296 455.5 L 292 466.5 L 287.5 471 L 277.5 476 L 261.5 477 L 256 472.5 L 256 456.5 L 257 454 Q 252.3 453.3 251 457.5 L 250 473.5 L 251 477 Q 237.9 478.9 232 472.5 L 231 458.5 L 234 451.5 L 231.5 450 L 227 456.5 L 226 468.5 L 224.5 470 L 220 466.5 L 219 452.5 Q 221.9 444.4 228.5 440 L 237.5 436 L 250.5 435 L 252 433.5 L 241 429.5 L 240 427.5 L 240 399.5 L 237 381.5 L 230.5 368 L 228 369.5 Q 227.4 378.6 231 383.5 L 231 392.5 L 225.5 394 Q 191.4 387.6 172.5 366 L 171 368.5 L 184.5 383 L 206 397.5 L 205 409.5 L 195 447.5 L 187.5 459 L 170.5 465 L 156.5 465 L 155.5 466 L 147 460.5 L 146 451.5 L 149 442 L 144 445.5 L 141 458.5 L 143 464 Q 130.6 465.8 126 458.5 Q 123.7 444.7 129 438.5 L 126.5 437 L 122 442.5 L 118.5 454 Q 114.8 451.8 116 444.5 Q 118.9 432.9 127.5 427 L 140.5 424 L 143.5 425 Q 148.3 422.8 144 420.5 L 151 397.5 L 156 361 L 162 364 L 154 344.5 L 153 314.5 L 156.5 303 L 171.5 313 L 180.5 315 L 184 317.5 L 182.5 320 L 179 322.5 Q 174.1 327.1 175 337.5 Q 176.9 345.2 182.5 349 Q 187.8 354.7 200.5 353 L 213 343.5 L 215 331.5 L 210 320 Q 263 318.8 290 290.5 L 299.5 277 L 312.5 278 L 342.5 270 L 356.5 270 L 357.5 269 Z " /><path fill="rgb(231,197,145)" stroke="rgb(231,197,145)" stroke-width="0.6" opacity="1" d="M 197.5 296 L 198 298.5 Q 195.1 303.1 196 311.5 L 195.5 314 L 193 312.5 L 192 304.5 L 197.5 296 Z " /><path fill="rgb(1,1,1)" stroke="rgb(1,1,1)" stroke-width="0.6" opacity="1" d="M 157.5 28 Q 177.9 27.6 187 38.5 L 193.5 49 L 215.5 44 L 241.5 44 L 245.5 46 L 255.5 46 L 269.5 50 L 297.5 65 Q 306.7 53.7 329.5 56 L 336.5 58 L 354.5 70 Q 380.3 98.7 411 122.5 L 419 134.5 L 422 147.5 L 422 157.5 L 417 176.5 L 413 184.5 Q 399.2 206.2 380 222.5 Q 377.8 233.8 370.5 240 L 360.5 241 L 349.5 237 L 333 223.5 L 331.5 222 L 329 225.5 L 325 239.5 L 311.5 257 L 298 267.5 L 299.5 270 L 318.5 270 L 350.5 262 L 372.5 262 L 390.5 267 L 400.5 272 L 416 257.5 L 426 235.5 L 428 226.5 L 428 197.5 L 432.5 192 Q 444.8 191.1 448 199.5 L 456 215.5 L 458 233.5 L 459.5 235 Q 464.3 234.3 465 237.5 Q 469.2 242.8 467 254.5 L 461 273.5 Q 464.3 274.7 463 280.5 L 453.5 295 Q 443.7 304.2 430 309.5 L 435 331.5 L 436 370.5 Q 447.6 381.4 452 399.5 Q 449.8 411.2 454 416.5 L 454 441.5 Q 452.3 455.3 443.5 462 L 431.5 468 L 405.5 470 L 390.5 467 L 379 458.5 Q 374.6 453.3 376 442.5 Q 377.9 433.9 383.5 429 L 392 423.5 Q 391 410.5 382.5 405 Q 370.8 399.2 363 389.5 L 358.5 382 L 354 384.5 L 360 408.5 L 360 433.5 Q 357.5 447 347.5 453 L 331.5 458 L 309.5 458 L 303.5 456 L 301 458.5 L 298 468.5 L 289.5 477 L 270.5 484 L 242.5 484 L 227.5 480 L 216 471.5 Q 210.3 466.2 212 453.5 Q 214.2 441.7 222.5 436 L 233 430.5 L 233 402.5 L 231.5 401 L 213.5 398 L 212 399.5 L 209 420.5 L 201 443.5 L 201 449.5 L 193.5 462 L 178.5 470 Q 169.7 468.2 166.5 472 L 141.5 472 L 125.5 468 L 114 459.5 Q 108 453.5 110 439.5 Q 113.8 428.3 122.5 422 Q 126.6 418.1 135.5 419 L 138 416.5 L 143 402.5 L 146 387.5 L 146 378.5 L 149 360.5 L 149 345.5 L 146 337.5 L 146 314.5 L 150 292.5 Q 146.5 288.5 148 279.5 L 151 271.5 L 127.5 255 L 108 235.5 Q 100.6 224.9 100 207.5 L 102 196.5 L 110 180 Q 99.2 191.5 82.5 198 L 71.5 198 L 62 190.5 L 60 186.5 L 59 172.5 L 47 136.5 Q 48.7 126.8 45 122.5 L 45 108.5 Q 48.8 86.8 63.5 76 L 75.5 68 L 105.5 54 L 125.5 40 L 144.5 31 L 157.5 28 Z M 154 35 L 133 43 L 106 61 L 78 74 L 65 83 Q 56 91 52 105 L 53 137 L 64 170 L 67 188 L 74 192 L 86 191 L 96 185 L 111 169 L 124 145 L 142 85 L 153 65 Q 158 56 167 54 L 156 70 L 157 72 L 170 65 L 172 67 L 155 78 L 145 92 L 130 145 L 119 165 L 118 180 L 109 196 L 107 204 Q 105 225 115 236 Q 132 254 155 266 L 160 274 Q 170 287 190 291 L 210 290 L 227 282 L 226 287 L 247 284 L 268 277 Q 289 269 306 255 Q 320 243 325 223 L 325 212 Q 319 204 317 194 L 314 174 L 315 172 L 315 151 L 320 118 L 320 103 L 311 86 L 320 92 Q 321 83 316 79 Q 315 75 318 76 Q 325 83 326 96 L 326 121 L 323 134 L 322 153 L 320 157 Q 318 195 334 217 Q 344 230 363 235 L 370 234 L 374 222 L 401 193 L 407 184 L 416 159 L 416 145 L 407 127 L 347 70 L 329 62 Q 311 60 303 67 L 298 73 L 272 57 L 250 51 L 234 51 L 233 50 L 210 51 L 186 57 L 188 54 L 183 44 Q 176 32 154 35 Z M 437 198 L 435 200 Q 436 221 432 238 Q 428 252 420 263 L 406 276 L 421 294 L 427 303 L 434 302 L 444 296 L 454 284 Q 459 281 453 279 L 460 261 L 460 244 L 458 243 L 455 249 L 451 248 L 452 243 Q 454 215 442 202 L 437 198 Z M 359 268 L 339 270 L 313 277 L 299 276 L 292 287 Q 280 301 262 309 L 241 316 L 223 319 L 211 319 L 208 322 L 214 331 Q 215 340 211 345 L 201 352 Q 190 354 186 350 Q 178 346 176 338 L 176 331 L 180 323 L 183 321 L 185 317 Q 181 313 174 313 L 156 302 L 154 304 L 152 316 L 153 344 L 160 359 L 160 361 L 155 359 L 150 398 L 143 419 L 144 424 Q 134 423 128 426 L 118 436 L 115 447 L 116 453 L 120 455 L 124 441 Q 126 436 128 440 L 125 445 L 125 460 L 136 465 Q 142 467 144 464 L 142 459 L 142 454 L 145 446 L 148 444 L 145 453 L 147 463 L 153 466 Q 176 468 189 459 L 196 448 L 206 409 L 207 397 L 185 382 L 179 376 L 172 369 L 174 367 Q 192 389 227 395 L 232 394 Q 233 381 229 375 Q 227 369 231 370 L 236 382 L 239 399 L 240 430 L 241 432 Q 247 431 246 434 L 245 435 Q 236 434 232 437 L 226 441 Q 216 447 219 467 L 225 471 L 227 471 Q 226 459 230 453 Q 232 450 233 453 L 230 460 Q 229 469 232 474 Q 235 478 242 478 L 252 478 L 253 477 L 251 474 Q 249 461 253 456 L 255 457 L 255 474 L 262 478 L 277 477 L 288 472 L 293 467 L 297 455 Q 297 428 301 405 L 301 370 L 302 369 Q 301 364 304 365 Q 306 368 305 377 L 307 379 L 307 393 L 309 394 L 327 390 L 355 378 L 357 376 L 355 369 Q 354 361 357 357 Q 356 353 359 354 L 360 372 L 366 385 Q 374 395 387 401 L 395 412 L 399 428 L 391 431 L 383 442 L 383 455 L 389 460 L 392 460 L 392 458 L 393 445 L 396 443 L 395 447 Q 394 456 397 461 L 402 463 L 414 463 L 415 462 L 412 458 L 413 446 L 416 444 L 415 447 Q 414 456 417 461 L 421 463 L 429 463 L 441 458 L 447 449 L 446 401 Q 441 381 429 370 L 429 341 L 426 318 Q 422 302 413 292 Q 398 267 359 268 Z M 292 270 Q 274 282 252 288 L 235 292 L 213 293 L 206 295 L 202 300 L 201 307 Q 200 313 204 314 L 239 312 L 260 305 L 283 291 L 293 278 Q 294 271 292 270 Z M 157 275 L 154 278 Q 153 289 156 296 Q 166 309 187 312 L 188 311 Q 187 302 190 298 Q 176 294 166 286 L 157 275 Z M 198 295 Q 190 299 192 313 Q 193 316 198 315 L 197 312 Q 196 303 199 300 Q 201 294 198 295 Z M 193 319 L 188 321 Q 181 324 180 334 L 182 342 L 193 348 L 203 347 L 209 338 Q 210 330 207 326 Q 204 318 193 319 Z M 347 386 L 333 393 L 312 399 L 308 402 Q 312 405 311 414 L 324 417 L 325 420 L 323 419 L 307 420 L 304 424 L 303 450 L 311 452 L 315 451 L 314 449 L 315 441 Q 313 435 317 436 L 316 441 Q 316 449 321 452 Q 336 453 346 448 L 353 439 L 354 427 Q 356 403 349 388 L 347 386 Z " /><path fill="rgb(1,1,1)" stroke="rgb(1,1,1)" stroke-width="0.6" opacity="1" d="M 165.5 100 Q 177 98 180 104.5 L 178.5 109 L 163.5 109 L 151 117 Q 149.7 108.6 155.5 106 L 165.5 100 Z " /><path fill="rgb(1,1,1)" stroke="rgb(1,1,1)" stroke-width="0.6" opacity="1" d="M 267.5 112 L 278.5 114 L 289 123.5 Q 292 126.5 291 133.5 L 288.5 135 L 277.5 123 Q 274.7 119.3 267.5 120 L 263 116.5 L 265.5 113 L 267.5 112 Z " /><path fill="rgb(1,1,1)" stroke="rgb(1,1,1)" stroke-width="0.6" opacity="1" d="M 158.5 136 L 167.5 136 L 177 143.5 L 182 153.5 L 182 167.5 L 177 180.5 L 180.5 182 Q 186.6 178.6 197.5 180 L 213.5 184 L 220 188.5 L 219.5 190 L 208.5 185 L 181.5 184 L 164.5 190 L 156.5 190 Q 150.8 185.5 140 187 Q 138.8 184 142.5 185 L 144 183.5 L 140 179.5 Q 136.4 172.6 138 160.5 Q 141.4 147.4 150.5 140 L 158.5 136 Z M 161 140 L 151 145 Q 144 151 141 162 Q 139 174 143 182 L 149 185 L 151 184 L 147 176 L 147 170 L 151 159 Q 155 153 163 151 L 171 152 L 174 158 L 178 160 L 178 155 L 174 145 Q 170 139 161 140 Z M 167 158 Q 162 159 163 167 L 167 169 L 172 168 L 174 165 L 173 162 Q 172 157 167 158 Z " /><path fill="rgb(1,1,1)" stroke="rgb(1,1,1)" stroke-width="0.6" opacity="1" d="M 260.5 149 L 272.5 150 L 284 160.5 L 287 168.5 L 288 177.5 L 285 190.5 L 276.5 202 L 274 203.5 Q 275.5 207.9 272.5 207 Q 268 202.9 258.5 204 L 249 195.5 Q 245.7 190.8 247 181.5 Q 248.8 172.3 255.5 168 Q 258.4 163.9 266.5 165 L 278 174.5 L 279 188.5 L 270.5 201 L 269 203 L 271.5 203 L 280 194.5 Q 284.7 186.2 284 172.5 Q 282.3 161.2 274.5 156 Q 270.4 152.1 261.5 153 Q 251.7 155.8 247 163.5 Q 239.6 172.6 242 191.5 L 244 196.5 L 241 194.5 Q 237.9 188.1 239 177.5 Q 241.3 161.8 251.5 154 L 260.5 149 Z M 267 172 L 263 178 L 264 182 Q 265 184 271 183 Q 274 182 273 176 L 267 172 Z " /><path fill="rgb(1,1,1)" stroke="rgb(1,1,1)" stroke-width="0.6" opacity="1" d="M 181.5 190 L 201.5 192 L 215 199.5 L 218 204.5 L 218 210.5 L 209.5 221 L 199.5 227 L 189.5 228 L 187 230.5 Q 185.7 241.8 192.5 245 Q 201.3 252.7 220.5 250 Q 234 246.5 241 236.5 L 243 233.5 L 240 229.5 L 245.5 228 L 251 231.5 L 252 236 L 246.5 234 L 232.5 249 L 225 254.5 Q 219.6 269.1 207.5 277 Q 200.5 281 189.5 281 Q 177.7 278.8 172 270.5 L 168 263.5 L 167 251.5 L 162.5 245 L 153 239.5 L 143.5 218 Q 140.2 219.1 141 216.5 Q 143.3 213.3 149.5 214 L 150 216.5 L 149 225.5 Q 152.2 234.8 159.5 240 Q 165.1 245.4 177.5 244 L 184 239.5 Q 186.5 229.5 181.5 227 L 171 219.5 Q 164 214.5 164 202.5 L 168.5 195 L 181.5 190 Z M 186 250 L 178 253 L 172 261 L 174 269 Q 177 274 185 276 L 200 276 L 209 272 Q 216 269 217 259 L 214 255 Q 207 256 205 253 L 195 255 L 191 261 L 189 261 L 194 252 Q 192 248 186 250 Z " /><path fill="rgb(86,64,48)" stroke="rgb(86,64,48)" stroke-width="0.6" opacity="1" d="M 326.5 95 L 327 120.5 L 326 120.5 L 326.5 95 Z " /><path fill="rgb(86,64,48)" stroke="rgb(86,64,48)" stroke-width="0.6" opacity="1" d="M 319.5 103 L 320 117.5 L 319 117.5 L 319.5 103 Z " /><path fill="rgb(86,64,48)" stroke="rgb(86,64,48)" stroke-width="0.6" opacity="1" d="M 52.5 107 L 53 125.5 L 52 125.5 L 52.5 107 Z " /><path fill="rgb(86,64,48)" stroke="rgb(86,64,48)" stroke-width="0.6" opacity="1" d="M 166.5 109 L 178 109.5 L 166.5 110 L 166.5 109 Z " /><path fill="rgb(86,64,48)" stroke="rgb(86,64,48)" stroke-width="0.6" opacity="1" d="M 182.5 154 L 183 166.5 L 182 166.5 L 182.5 154 Z " /><path fill="rgb(86,64,48)" stroke="rgb(86,64,48)" stroke-width="0.6" opacity="1" d="M 265.5 173 Q 271.8 171.8 273 175.5 Q 274.3 181.8 270.5 183 Q 265.3 184.3 264 181.5 Q 262.3 174.8 265.5 173 Z " /><path fill="rgb(86,64,48)" stroke="rgb(86,64,48)" stroke-width="0.6" opacity="1" d="M 186.5 179 L 198 179.5 L 186.5 180 L 186.5 179 Z " /><path fill="rgb(86,64,48)" stroke="rgb(86,64,48)" stroke-width="0.6" opacity="1" d="M 183.5 184 L 199 184.5 L 183.5 185 L 183.5 184 Z " /><path fill="rgb(86,64,48)" stroke="rgb(86,64,48)" stroke-width="0.6" opacity="1" d="M 436.5 198 L 442 201.5 Q 454.1 214.9 452 242.5 L 451 247.5 L 454.5 249 L 458.5 244 L 460 244.5 L 460 259.5 L 453 280 Q 456 278.8 455 282.5 L 443.5 296 L 430.5 303 L 426.5 303 L 421 293.5 L 406 275.5 L 421 261.5 Q 429.6 250.1 433 233.5 Q 436.6 219.1 435 199.5 L 436.5 198 Z " /><path fill="rgb(86,64,48)" stroke="rgb(86,64,48)" stroke-width="0.6" opacity="1" d="M 203.5 313 L 220 313.5 L 203.5 314 L 203.5 313 Z " /><path fill="rgb(86,64,48)" stroke="rgb(86,64,48)" stroke-width="0.6" opacity="1" d="M 193.5 319 Q 202.7 318.8 206 324.5 Q 210.2 328.3 209 337.5 L 203.5 346 Q 199.9 348.9 192.5 348 L 182 341.5 L 181 329.5 L 186.5 322 L 193.5 319 Z " /><path fill="rgb(86,64,48)" stroke="rgb(86,64,48)" stroke-width="0.6" opacity="1" d="M 152.5 320 L 153 331.5 L 152 331.5 L 152.5 320 Z " /><path fill="rgb(86,64,48)" stroke="rgb(86,64,48)" stroke-width="0.6" opacity="1" d="M 428.5 340 L 429 363.5 L 428 363.5 L 428.5 340 Z " /><path fill="rgb(86,64,48)" stroke="rgb(86,64,48)" stroke-width="0.6" opacity="1" d="M 446.5 411 L 447 443.5 L 446 443.5 L 446.5 411 Z " /><path fill="rgb(86,64,48)" stroke="rgb(86,64,48)" stroke-width="0.6" opacity="1" d="M 383.5 444 L 384 454.5 L 383 454.5 L 383.5 444 Z " /><path fill="rgb(226,147,155)" stroke="rgb(226,147,155)" stroke-width="0.6" opacity="1" d="M 166.5 159 Q 172.3 158.3 173 162.5 Q 173.8 167.3 170.5 168 Q 165.3 169.3 164 166.5 Q 162.8 160.3 166.5 159 Z " /><path fill="rgb(226,147,155)" stroke="rgb(226,147,155)" stroke-width="0.6" opacity="1" d="M 155 277 L 157 278.5 L 160.5 283 Q 171.4 293.3 188 297 L 188 309.5 L 186.5 311 Q 166.6 308.4 157 295.5 L 154 283.5 L 155 277 Z " /><path fill="rgb(226,147,155)" stroke="rgb(226,147,155)" stroke-width="0.6" opacity="1" d="M 345.5 387 L 349 388.5 L 353 405.5 L 353 427.5 L 352 439.5 L 345.5 447 L 334.5 451 L 322.5 452 Q 315.9 449 317 438.5 L 319 434.5 L 317.5 434 L 314 436.5 L 313 447.5 L 314 449.5 L 309.5 451 L 304 450 L 305 422.5 L 307.5 420 L 323.5 420 L 324.5 421 L 326 418.5 L 320.5 415 Q 313.8 416.8 312 413.5 L 310 401.5 L 334.5 393 L 345.5 387 Z " /><path fill="rgb(38,38,38)" stroke="rgb(38,38,38)" stroke-width="0.6" opacity="1" d="M 363.5 86 L 371.5 95 L 363.5 86 Z " /><path fill="rgb(38,38,38)" stroke="rgb(38,38,38)" stroke-width="0.6" opacity="1" d="M 380.5 95 L 386.5 102 L 380.5 95 Z " /><path fill="rgb(38,38,38)" stroke="rgb(38,38,38)" stroke-width="0.6" opacity="1" d="M 244.5 237 L 234.5 248 L 244.5 237 Z " /><path fill="rgb(38,38,38)" stroke="rgb(38,38,38)" stroke-width="0.6" opacity="1" d="M 111.5 239 L 124.5 253 L 111.5 239 Z " /><path fill="rgb(38,38,38)" stroke="rgb(38,38,38)" stroke-width="0.6" opacity="1" d="M 310.5 249 L 305.5 255 L 310.5 249 Z " /><path fill="rgb(38,38,38)" stroke="rgb(38,38,38)" stroke-width="0.6" opacity="1" d="M 216.5 268 L 210.5 275 L 216.5 268 Z " /><path fill="rgb(38,38,38)" stroke="rgb(38,38,38)" stroke-width="0.6" opacity="1" d="M 355.5 445 L 349.5 452 L 355.5 445 Z " /><path fill="rgb(87,87,76)" stroke="rgb(87,87,76)" stroke-width="0.6" opacity="1" d="M 320.5 159 L 321 170.5 L 320 170.5 L 320.5 159 Z " /><path fill="rgb(87,87,76)" stroke="rgb(87,87,76)" stroke-width="0.6" opacity="1" d="M 290.5 288 L 285.5 294 L 290.5 288 Z " /><path fill="rgb(131,112,64)" stroke="rgb(131,112,64)" stroke-width="0.6" opacity="1" d="M 244.5 238 L 235.5 248 L 244.5 238 Z " /><path fill="rgb(118,118,118)" stroke="rgb(118,118,118)" stroke-width="0.6" opacity="1" d="M 126.5 427 L 119.5 435 L 126.5 427 Z " /><path fill="rgb(236,236,236)" stroke="rgb(236,236,236)" stroke-width="0.6" opacity="1" d="M 378.5 92 L 385.5 100 L 378.5 92 Z " /><path fill="rgb(210,210,210)" stroke="rgb(210,210,210)" stroke-width="0.6" opacity="1" d="M 352.5 67 L 357.5 73 L 352.5 67 Z " /><path fill="rgb(210,210,210)" stroke="rgb(210,210,210)" stroke-width="0.6" opacity="1" d="M 111.5 240 L 123.5 253 L 111.5 240 Z " /><path fill="rgb(210,210,210)" stroke="rgb(210,210,210)" stroke-width="0.6" opacity="1" d="M 315.5 253 L 310.5 259 L 315.5 253 Z " /><path fill="rgb(210,210,210)" stroke="rgb(210,210,210)" stroke-width="0.6" opacity="1" d="M 355.5 446 L 350.5 452 L 355.5 446 Z " /></svg>