<svg width="627" height="627" preserveAspectRatio="xMidYMid meet" viewBox="0 0 512 512" version="1.1" xmlns="http://www.w3.org/2000/svg" ><path fill="rgb(254,254,254)" stroke="rgb(254,254,254)" stroke-width="0.6" opacity="1" d="M 0 0 L 512 0 L 512 512 L 0 512 L 0 0 Z M 157 28 Q 137 32 124 41 L 101 56 L 66 74 Q 50 85 45 108 Q 44 124 47 137 L 57 169 L 60 187 L 63 193 L 72 198 L 87 197 L 104 186 L 108 181 L 111 179 L 103 194 L 100 207 Q 101 228 111 240 L 125 253 L 150 272 L 148 280 Q 146 289 150 294 L 146 314 Q 143 336 149 350 Q 148 387 138 416 L 136 418 Q 125 418 120 424 Q 112 429 110 440 Q 108 451 112 458 Q 121 470 141 472 L 175 471 Q 185 469 193 463 L 201 451 L 213 400 L 215 398 L 231 401 L 233 405 L 233 430 L 224 435 Q 215 441 212 453 Q 210 468 217 474 L 227 480 L 242 484 L 272 484 Q 284 482 292 476 L 299 468 L 304 457 L 308 458 Q 335 461 350 452 Q 358 447 360 435 Q 363 406 355 389 Q 352 381 359 383 L 366 394 L 383 406 Q 389 412 392 423 L 386 427 Q 378 432 376 443 Q 374 455 380 461 L 388 466 L 405 470 L 428 469 Q 438 467 445 462 Q 453 456 454 443 Q 456 418 452 399 Q 448 380 436 370 L 435 331 L 430 311 L 452 297 L 463 282 L 462 275 L 467 257 L 466 238 Q 464 233 458 234 L 457 219 L 449 201 Q 445 192 433 191 L 428 197 Q 430 220 425 237 Q 420 252 411 263 L 402 271 L 398 271 Q 388 264 374 262 L 350 262 L 314 270 L 301 270 L 299 266 L 308 261 Q 325 247 332 223 Q 342 236 360 241 Q 369 243 373 239 L 376 236 L 381 223 Q 399 207 412 187 Q 420 175 422 159 Q 424 132 410 121 Q 379 96 352 67 Q 343 60 331 56 Q 307 54 297 65 Q 276 48 243 44 L 216 44 L 194 48 L 190 43 Q 182 27 157 28 Z " /><path fill="rgb(173,115,65)" stroke="rgb(173,115,65)" stroke-width="0.6" opacity="1" d="M 159.5 35 Q 161.8 38 167 37 Q 165.7 40.7 171.5 39 L 174 38 L 177.5 44 Q 180.8 42.9 180 45.5 L 181 48 L 185 50.5 Q 182.2 52.2 183 57.5 L 184 60 L 188 61 L 189.5 58 L 193 59 L 194.5 56 L 201 57 L 202.5 54 L 204.5 53 Q 206.8 56 212 55 L 213.5 52 L 220.5 53 L 223.5 52 L 233.5 53 L 236.5 52 L 239.5 54 L 244 52 L 245.5 54 L 249.5 55 L 253.5 53 L 256 54 Q 254.5 57.8 257.5 57 L 260.5 58 L 262.5 57 L 265.5 59 L 269 58 L 270.5 61 L 272 59.5 L 273 59.5 L 275.5 64 L 285.5 69 L 287.5 68 L 289 72 L 296.5 74 Q 298 71.5 299.5 75 L 302.5 73 L 305.5 69 L 308 67.5 L 307.5 66 L 312.5 67 L 317.5 64 L 319.5 62 L 325 62 Q 323.8 65 327.5 64 L 333.5 67 L 336 66 L 337.5 69 L 341 68 L 341 71 L 345.5 73 L 347 72.5 L 345 75.5 L 358 84.5 L 367.5 95 L 370 96.5 L 372.5 100 L 382 106.5 L 387.5 113 L 393 114 L 400.5 125 L 403 126.5 L 405.5 130 Q 408.5 129.1 407 133.5 Q 407.4 140.1 411.5 143 L 412.5 141 L 415 153.5 L 413 159.5 L 414 162 L 411.5 161 L 409 171.5 L 410 173.5 L 407 175.5 L 408 179 L 404 180.5 L 401 189 L 394 194.5 L 395.5 196 L 395.5 197 L 391 199.5 L 389.5 202 L 382 208.5 L 380 211.5 L 380.5 213 L 378.5 212 L 375 214 L 372.5 221 L 371 222.5 L 368.5 223 Q 365.2 221.9 366 224.5 L 365 225.5 L 368.5 229 L 370 230.5 L 367.5 231 L 357 232 L 355.5 229 L 355 231 Q 351.7 232.3 353 227.5 L 348.5 221 L 344.5 222 L 328.5 201 L 327 200.5 L 329 197.5 L 325 194.5 L 327 191.5 L 323 188.5 Q 322 183.5 325 184.5 L 325 179.5 L 324 175 L 322 173.5 L 321 161.5 L 322 158 Q 325.3 159.3 324 154.5 L 325 147.5 L 323 143.5 L 324 141 L 326 139.5 L 327 132.5 L 325 127.5 L 326 125 L 328 123.5 L 329 111.5 Q 325.5 110 327 103.5 Q 331 101.5 329 93.5 L 325 90.5 L 327 86.5 L 326 84 Q 322.5 85.1 324 77.5 Q 321.8 73.2 314.5 74 L 309 82.5 L 310 86 L 308 86.5 L 310 94 Q 315.6 91.8 314 97.5 L 317 99 L 316 102.5 L 320 104 Q 321.5 109.4 318.5 111 L 317 111.5 L 318 116.5 Q 315.2 118.2 316 123.5 L 318 126.5 L 317 131 L 315 132.5 L 314 137 L 316 138.5 L 315 141.5 L 316 144.5 L 314 144.5 Q 314.8 148.5 312 147.5 L 312 155.5 L 314 157.5 L 314 176.5 Q 310.3 178.4 312 185 L 316 186 L 316 191.5 L 314 193.5 L 318 195 L 318 199 Q 315 198 316 201 Q 320.8 199.1 320 202.5 L 318 205.5 L 321.5 210 L 324 210.5 L 322 212 L 322 216.5 Q 325.5 218.2 324 224 Q 320.3 222.5 321 225.5 Q 324 227.5 319 229.5 L 320 234 Q 316.2 232.5 317 235.5 L 317.5 237 L 315 238.5 L 316 240.5 L 313.5 241 L 310 243.5 Q 311.3 251.8 305.5 253 L 302.5 252 L 295.5 261 L 292.5 260 L 290 261 Q 291.5 264.7 288.5 264 L 286 263 Q 287.8 267.5 282.5 266 L 273 270.5 L 273.5 272 L 270 271 Q 271.7 275.1 267.5 274 L 265 273 L 263.5 276 L 260.5 275 L 259 279 L 254.5 277 L 250.5 280 L 247.5 279 L 244.5 283 Q 240.8 284 242 281 L 238.5 281 L 229.5 283 L 220 279 L 218.5 283 L 216 284.5 L 214.5 287 L 211.5 285 L 208.5 289 Q 204.7 285.6 205 279 L 211 276 L 211.5 274 L 213.5 274 L 219 271.5 L 220 268.5 L 219 265 Q 223.7 265.8 225 261.5 L 227 256.5 L 226.5 255 L 235 250.5 L 234 249.5 L 237.5 246 L 240 245.5 L 239.5 244 L 241.5 245 L 244 244 L 245 241.5 L 245 239.5 L 249 236.5 L 250.5 237 L 254 235.5 L 251 228 L 248.5 227 L 247 227.5 L 245.5 225 L 240 226.5 Q 242.5 228 239 229.5 L 237.5 234 L 234.5 233 L 235 234.5 L 236.5 238 L 239 237 L 236.5 241 L 230 242.5 L 229.5 245 L 228 243 L 225.5 243 L 222 245 L 220.5 249 L 213.5 246 L 204.5 249 Q 200.8 247 202.5 245 Q 200.8 242.2 195.5 243 L 190 238.5 L 195 231.5 L 195 228 L 201.5 228 L 209 223.5 L 211.5 219 L 213 219.5 L 215.5 215 L 217 215.5 Q 215.9 212.2 218.5 213 L 220 210 L 218 209.5 L 221 209 L 221 203.5 L 214.5 196 Q 210.1 197.5 211 194.5 L 207 191.5 L 205 186.5 L 208 186 Q 206.5 189.7 209.5 189 L 213.5 188 L 214 190.5 Q 213.2 193.1 216.5 192 L 220 191 L 221 187.5 L 218.5 184 Q 213.1 185.9 214 182.5 L 211.5 181 L 208.5 182 L 207 179 L 198.5 180 L 198.5 178 L 188.5 176 L 185 178.5 Q 185.9 181.5 181.5 180 L 179 179 L 179 176 Q 182.8 177.5 182 174.5 L 181 171.5 L 184 170 L 185 165 L 182 163.5 L 182 161.5 L 183 156 Q 186 157.3 185 153.5 L 184 151 L 181 149.5 L 181 147 L 179 145.5 L 180 143 L 177 141.5 L 175.5 139 L 172.5 139 L 167 135.5 Q 168.3 131.8 164.5 133 L 162.5 132 L 158 133 L 156.5 137 L 153.5 136 L 153 138 Q 148.2 136.1 149 139.5 L 148 142 Q 145 140.8 146 144.5 L 141.5 151 L 141 149.5 L 142 147.5 L 138 150.5 L 139 156 L 136 157.5 L 138 164.5 L 136 167.5 Q 139 168.5 138 173.5 L 137 176.5 L 138 181 Q 142.8 179.1 142 182.5 L 143 185 Q 138.9 183.7 140 187 L 149 188 L 150.5 192 L 157 190 L 158.5 193 L 164 193 Q 162.3 188.9 166.5 190 L 167 192.5 L 165.5 194 L 160 197.5 L 159 201.5 Q 161 205.2 163 203.5 Q 161.9 206.8 164.5 206 L 164.5 207 L 162 208.5 L 162 211 Q 166.8 209.1 166 212.5 L 164.5 215 Q 168.9 213.5 168 216.5 Q 171.5 218 169 219.5 L 173.5 227 Q 178.5 226 179.5 229 L 182.5 228 L 183 230.5 Q 184.5 237.5 181.5 237 L 179 238 L 175.5 243 L 171.5 242 L 169.5 243 L 167 241.5 L 166.5 239 L 159 233.5 L 157.5 230 L 154.5 229 L 153.5 231 L 153 229.5 L 153.5 228 L 151 226.5 L 152 220.5 L 151 218.5 Q 154.7 217.7 154 212.5 L 150.5 210 L 145.5 212 L 143.5 211 L 138.5 218 L 136 218.5 L 139.5 224 L 143.5 225 L 146 225.5 L 146 228 L 144 229.5 L 147 230.5 L 149.5 238 L 157 242 L 156 247 L 162 246 L 163.5 252 L 165 251.5 L 166 257 Q 162 255.6 164 262.5 L 167.5 267 Q 171.3 265.8 170 269.5 L 171 271.5 L 171 273.5 L 169.5 279 L 165 278 Q 161.7 275 163 267 Q 158.8 268 157.5 265 Q 155.5 269 153.5 265 Q 150.1 265.8 152 261 L 149.5 261 L 146 259.5 Q 147.3 254.3 144.5 253 L 138.5 254 L 139 252.5 L 138 250.5 L 139 247 L 132.5 248 L 127 243.5 L 125 240.5 L 125 238.5 L 123.5 234 L 118 235.5 L 119 237.5 L 118 237.5 L 117 235.5 L 117 233.5 L 116 229 Q 113 230.3 114 226.5 L 111 225 L 112 221.5 L 109 220 Q 107.1 215.2 110.5 216 L 112 213.5 Q 108.5 212 110 205.5 L 112 197.5 L 111 194.5 L 116 189.5 L 118.5 182 L 120 180.5 L 119.5 177 L 122 175.5 L 119 167.5 L 127 158.5 Q 123 156.5 127 154.5 Q 125.5 150.1 128.5 151 L 129 148.5 L 130.5 146 L 134 144.5 L 133 136.5 L 136 134.5 L 135 129 L 138 127.5 L 137 123.5 L 141 120.5 L 140 115 Q 143 116.3 142 112.5 L 141 110.5 L 142.5 108 L 148 110.5 Q 147 114.3 150 113 L 150 116.5 L 153.5 118 L 155.5 117 L 157.5 117 L 161 114.5 L 160 112 L 164.5 113 L 166 110 L 175.5 111 L 181 107.5 Q 181.8 101.8 177.5 101 L 176 99.5 L 175 97 Q 163.8 94.6 160 100.5 L 158.5 104 L 153 105.5 L 153.5 107 L 156 105.5 L 151.5 108 L 144 102.5 Q 147.5 101 145 99.5 Q 143.5 95.1 146.5 96 L 148 93.5 L 147 91.5 L 150 90 L 149 85 Q 152.7 86.5 152 83.5 L 168 71.5 L 166 70.5 L 168.5 70 L 171 69.5 L 173 63.5 Q 168 61 168.5 53 L 167 53.5 L 165.5 51 L 159 52 Q 160.5 60.1 154.5 62 L 152.5 62 L 149 64.5 L 150 69 Q 145.2 67.1 146 70.5 L 147.5 73 L 144 74.5 L 145 77 L 142 78.5 L 143 81.5 L 141 81.5 L 142 84.5 L 138 86 L 139 91.5 L 136 92.5 L 138 94 L 138 97 Q 132.8 94.9 134 99.5 L 135 103 L 132 104.5 L 134 110 Q 128.8 107.9 130 112.5 L 132 115.5 L 130.5 118 L 128 118.5 L 129 122.5 L 126 124 Q 125 127 128 126 L 128 130 L 124 131.5 L 125 134.5 L 122 138.5 L 123 141 L 120 142.5 L 122 145.5 L 118 147.5 L 120 150.5 L 117 152 Q 118.5 155.8 115.5 155 L 114 159 L 112 160.5 L 106.5 172 L 103 172 L 101.5 174 L 97 176.5 Q 97.4 182.9 93.5 185 L 90.5 184 L 88.5 184 L 86.5 183 L 81.5 189 L 83 189.5 L 79.5 190 L 74.5 189 L 72 190 L 70 184 L 68 183.5 L 71 177.5 L 67.5 173 L 65 174 L 65 166.5 L 63 161.5 L 64 159.5 L 62 156.5 L 63 153 L 60.5 152 L 59 152.5 L 60 146.5 L 57 145 L 58 139.5 L 56 134.5 L 57 130.5 L 54.5 129 L 53 129.5 L 53 127.5 L 53 121.5 Q 56.3 122.3 55 117 L 53 116.5 L 53 106.5 L 56 104.5 L 55 99 L 60 98 L 61 94.5 L 60 91 L 63 89.5 L 64 87.5 L 63.5 86 L 65.5 86 L 73 80.5 L 73 78 L 76 78 L 77.5 76 L 80 75.5 Q 79.1 72.5 83.5 74 L 86.5 72 L 89 71.5 L 89.5 70 L 92 71 Q 90.3 66.5 95.5 68 L 96.5 65 L 99.5 67 L 101.5 64 L 103.5 64 L 107 61.5 Q 106.2 58.5 110 60 L 110 58 L 113.5 58 L 116 57 L 117.5 54 L 119.5 55 L 120 52 L 123 52 L 124.5 50 Q 126 52.5 127.5 49 L 130 47.5 Q 129.3 44.5 133 46 L 133 44 L 135.5 44 L 137.5 45 L 139 41 L 141 42.5 L 142 42.5 Q 140.8 38.8 144.5 40 L 147.5 41 Q 149.4 37.3 156 39 L 157.5 36 L 159.5 35 Z M 269 109 L 268 112 L 261 116 L 261 118 Q 265 117 264 120 L 268 121 L 270 124 L 274 123 L 277 125 Q 276 128 281 126 L 284 131 L 283 133 L 286 136 Q 292 137 294 134 L 294 130 Q 291 130 292 125 L 289 125 L 290 121 L 280 114 L 280 113 L 278 112 L 276 110 L 269 109 Z M 267 145 L 265 146 L 265 148 L 261 147 Q 256 146 258 151 L 256 150 L 255 152 L 252 151 L 248 156 L 243 158 L 242 163 L 238 169 L 240 170 L 236 176 L 236 185 L 238 185 L 236 188 L 237 191 L 239 192 L 238 194 L 239 199 L 245 201 L 247 201 L 248 199 L 251 201 L 253 200 L 251 203 L 253 203 L 255 203 L 257 206 L 258 208 L 261 209 L 262 205 L 266 206 L 268 205 L 269 209 L 277 207 L 276 203 Q 278 198 285 198 Q 287 197 286 192 L 286 190 L 288 190 L 289 188 Q 290 184 288 185 L 288 184 L 290 182 L 291 180 L 290 171 L 287 170 Q 286 165 289 164 L 288 160 L 279 155 L 278 153 L 276 149 L 274 150 L 272 147 Q 268 148 267 145 Z " /><path fill="rgb(173,115,65)" stroke="rgb(173,115,65)" stroke-width="0.6" opacity="1" d="M 157 142 L 166.5 142 L 167 144.5 L 169 147.5 L 166.5 151 L 158.5 148 L 158 150.5 L 158.5 152 L 155.5 151 L 152.5 155 L 149.5 157 L 147 156 L 146 153.5 L 148 149.5 L 149.5 147 L 157.5 147 L 158 144.5 L 157 142 Z " /><path fill="rgb(173,115,65)" stroke="rgb(173,115,65)" stroke-width="0.6" opacity="1" d="M 261.5 157 Q 271 156.2 275 160 L 276 163.5 L 271 166 L 269.5 163 Q 267.8 165.8 262.5 165 L 258.5 163 L 252.5 167 L 250 163.5 L 258 161 L 259.5 158 L 261.5 157 Z " /><path fill="rgb(173,115,65)" stroke="rgb(173,115,65)" stroke-width="0.6" opacity="1" d="M 144.5 159 Q 148.9 161.1 148 167 L 145 165.5 L 143 161.5 L 144.5 159 Z " /><path fill="rgb(173,115,65)" stroke="rgb(173,115,65)" stroke-width="0.6" opacity="1" d="M 249.5 168 L 250 170.5 L 248.5 175 L 245 170.5 L 249.5 168 Z " /><path fill="rgb(173,115,65)" stroke="rgb(173,115,65)" stroke-width="0.6" opacity="1" d="M 197.5 187 L 203 188.5 L 193.5 191 Q 190.5 189.5 193.5 188 L 197.5 187 Z " /><path fill="rgb(173,115,65)" stroke="rgb(173,115,65)" stroke-width="0.6" opacity="1" d="M 287.5 275 L 290 279.5 L 279 288 Q 280 292.7 276.5 294 L 275 292.5 L 272 294.5 L 273 297 L 269.5 298 L 266 297 Q 267.5 300.8 264.5 300 L 262 299 Q 263.4 302.7 257.5 301 Q 256.3 304 252 303 L 251 307 L 247.5 305 L 244.5 309 L 239.5 307 L 236.5 311 L 227.5 309 L 225 310.5 L 225.5 312 L 216 313 Q 217.3 309.7 212.5 311 L 210.5 311 Q 205.3 312.3 204 309.5 L 203 299 L 208.5 298 L 211.5 299 L 216 297 L 214.5 295 L 214.5 294 Q 226.3 292.8 233 295 L 234.5 292 L 241.5 294 L 242.5 291 L 247.5 290 L 251 291 L 252.5 288 L 257 289 L 258.5 286 L 261.5 288 L 263 284 L 268 285 Q 266.5 281.3 269.5 282 Q 271.3 285.8 273 282.5 L 273.5 280 L 277 281 L 278.5 278 L 280.5 279 L 287.5 275 Z " /><path fill="rgb(173,115,65)" stroke="rgb(173,115,65)" stroke-width="0.6" opacity="1" d="M 174.5 277 L 177.5 279 L 178.5 277 Q 182 279.1 180 286 L 176.5 284 L 174 285 Q 175 280.8 172 279.5 L 174.5 277 Z " /><path fill="rgb(173,115,65)" stroke="rgb(173,115,65)" stroke-width="0.6" opacity="1" d="M 188.5 282 Q 196.5 280.5 198 285.5 L 196.5 287 Q 188.2 285.7 184.5 289 L 183 286.5 L 185.5 283 L 188.5 282 Z " /><path fill="rgb(230,196,144)" stroke="rgb(230,196,144)" stroke-width="0.6" opacity="1" d="M 182.5 252 L 190.5 253 L 193.5 252 L 193.5 253 L 191 254.5 L 189.5 256 L 188 259 L 186 260.5 L 189.5 262 L 198 257 L 199.5 254 Q 204.1 256.9 212.5 256 L 214 257.5 L 213 263.5 L 207.5 271 L 205.5 270 L 205 272 L 198.5 274 L 195.5 272 L 193 273 Q 194.5 276.8 191.5 276 L 190 273 L 184.5 274 L 183.5 271 L 180.5 272 L 181 270.5 L 179.5 266 L 176.5 268 L 174 260.5 L 181 254.5 L 182.5 252 Z " /><path fill="rgb(230,196,144)" stroke="rgb(230,196,144)" stroke-width="0.6" opacity="1" d="M 350.5 270 L 354.5 271 L 357.5 270 L 364.5 271 L 374.5 270 L 377 271 L 378.5 273 L 382.5 273 L 395.5 278 L 412 291 L 414 298 Q 417 296.8 416 300.5 L 422 309.5 L 424 317.5 L 423 319.5 L 426 321 Q 424.9 332.9 428 341.5 L 428 371 Q 431.3 369.7 430 374.5 L 436.5 385 L 439 386.5 L 444 397.5 L 444 399.5 L 446 413.5 Q 443 414.5 444 419.5 Q 447.7 428 446 441 L 444 441.5 L 446 444.5 L 445 447 L 443 448.5 L 440 457 L 434.5 458 L 432 458.5 L 431.5 461 L 426.5 459 L 426 461 L 420.5 459 L 419 459.5 L 418 455.5 L 419 446 L 417 446 Q 418.9 441.2 415.5 442 Q 410.8 444.5 411 451 Q 407.3 449.8 409 455 Q 412 453.8 411 457.5 L 409 460.5 L 410 463 L 406.5 462 L 404.5 463 Q 403.3 460 399 461 L 397 456.5 Q 401 454.4 399 447 L 397 446.5 L 397 444.5 L 398 440 Q 393.3 439.3 392 443.5 L 391 450 Q 387.3 448.6 389 454.5 L 386.5 453 L 383 451.5 L 384 442.5 L 386 440.5 L 385 438.5 L 388 436.5 Q 385.3 434.8 389.5 433 L 398 431 L 399.5 428 L 402 426.5 L 399 425 L 401 421 L 399 419.5 Q 395.5 418 397 411.5 L 388.5 400 L 380 395.5 L 378.5 393 L 375 391.5 L 373.5 389 L 372 387.5 L 371 385 L 368 385 Q 369.5 381.3 366.5 382 L 363 375 L 365 373.5 L 361 370.5 L 361 366.5 Q 364.3 367.3 363 362 L 361 361.5 L 361 355 L 357.5 353 L 353 360.5 L 355 376 L 348.5 378 L 346.5 377 L 340.5 383 L 329.5 386 L 327 385 L 325.5 387 L 323.5 388 L 321 387 L 320 391 L 308.5 392 L 307 389.5 L 308 381.5 L 307 380.5 L 307 367.5 L 303.5 364 L 300 366.5 L 299 388.5 L 300 394 Q 296 392.7 298 399 L 300 399.5 L 300 411.5 L 298 413.5 L 298 432.5 L 296 434.5 L 295 440.5 L 295 442.5 L 294 444.5 Q 297 446.5 296 452.5 L 293.5 456 Q 290.9 455.2 292 458.5 L 293 462.5 L 292 465 L 284 470.5 L 282.5 473 Q 278.5 472.3 279.5 475 L 273.5 475 L 271.5 477 L 261.5 477 L 261 474.5 L 257.5 470 L 255 468.5 Q 253 461 256.5 459 L 258 458.5 L 257 456.5 L 258 454.5 Q 256.3 450.3 254.5 453 L 252 454.5 L 251 460 L 248 461.5 L 250 468.5 L 249 471.5 L 250 473.5 L 249 477 L 241.5 477 L 234 473.5 L 235 469 L 232 467.5 L 231 461.5 L 235 450 L 232.5 449 L 228 452.5 L 225 461.5 L 226 465.5 L 221 467 L 219 453.5 L 223 451 L 223 447.5 L 228 441 L 242.5 436 Q 244 439.3 249 438 L 251 434.5 L 248 429 L 243.5 431 L 241.5 431 L 240 430.5 L 241 429.5 L 241 404.5 L 236 376.5 L 237 374 L 233 372.5 L 229.5 368 L 227 369 L 226 374 L 228 374 Q 226.3 379.2 230 378 L 230 384 Q 227 382.8 228 386.5 L 223.5 392 L 214.5 391 L 213 389.5 L 211.5 387 L 208.5 388 Q 207 384.5 205.5 387 L 198 385 Q 199.3 381.7 194.5 383 L 191.5 379 L 184 375 L 182.5 373 L 180 372 L 178.5 369 L 175 369 L 173.5 367 L 171 367.5 L 172 371 L 174 372.5 L 180.5 382 L 197 391.5 L 197.5 394 Q 206.3 390.8 204 398.5 L 205 403.5 L 204 411.5 L 200 416.5 L 201 420.5 L 199 425.5 L 200 427.5 L 195 439.5 L 196 442.5 L 192.5 450 L 190 451.5 L 187.5 456 L 186 457.5 Q 185.3 461.8 179.5 461 Q 178 458.5 176.5 462 L 171 461 L 168.5 465 L 152.5 465 L 151 463.5 L 149.5 459 L 147 458.5 L 147 449.5 L 150 448 L 149 444.5 L 150.5 442 L 147 441 L 145.5 444 Q 142.9 443.2 144 446.5 L 140 448 L 142 453.5 L 141 461 L 139 462.5 L 138 462.5 Q 138.8 459.9 135.5 461 L 131.5 463 L 130 460 Q 125.5 461.8 127 456.5 L 126 447 L 128 445.5 L 127 443.5 L 130 442 L 129 437 L 122 439 L 120.5 444 L 119 436.5 L 121 433 L 131.5 427 L 133.5 428 L 137.5 424 Q 144.3 425.3 147 422.5 L 145 416.5 L 147 414.5 L 147 409.5 L 149 407.5 L 150 400 L 152 398.5 L 151 392.5 L 152 390 L 154 388.5 L 152 382.5 L 154 378 Q 157 379.3 156 375.5 L 157 372 Q 153.3 373.1 155 364.5 L 157.5 364 L 163 365 L 158 349.5 L 157.5 347 L 155 345.5 L 156 338 Q 152.5 339.1 154 331.5 L 154 329.5 L 153 317.5 L 154 314 Q 157 315.3 156 311.5 L 159.5 307 L 171.5 314 L 182 317.5 L 175 328.5 L 175 337.5 L 182 350 L 192 352 L 192 354 L 198 354 Q 196.6 350 203.5 352 L 209 347.5 L 215 338.5 L 215 335 L 217 335 L 217 329 L 213 327.5 L 214 321.5 L 213.5 320 Q 221.7 318.9 225 321 Q 223.7 317.3 229.5 319 L 258 312 Q 256.7 308.7 261.5 310 L 283 297.5 L 285.5 293 L 288.5 291 L 295 286 Q 294 281.3 297.5 280 Q 301.6 275.6 312.5 278 L 316 279 Q 314.8 276 318.5 277 L 323.5 276 L 326 277 L 327.5 275 L 333.5 274 L 335.5 272 L 341.5 272 Q 343 274.5 344.5 271 L 350.5 270 Z " /><path fill="rgb(7,7,7)" stroke="rgb(7,7,7)" stroke-width="0.6" opacity="1" d="M 158.5 29 Q 179.8 28.8 188 41.5 L 193.5 50 Q 212.5 43 240.5 45 Q 275.2 48.8 296.5 66 Q 306.5 55.5 328.5 57 Q 340.9 59.1 348.5 66 L 370 85.5 L 376.5 93 L 412 124.5 Q 421.7 135.3 421 156.5 Q 419 173 412 184.5 Q 398.4 206.9 379 223.5 L 372.5 238 Q 368.5 241 360.5 240 Q 343.2 234.9 333 222.5 L 331.5 220 L 321 244.5 L 304.5 262 L 298 266.5 L 299.5 271 L 315.5 271 L 350.5 263 L 371.5 263 Q 387.2 264.8 397.5 272 L 401.5 272 L 414 260.5 Q 430.3 240.8 430 204.5 L 429 197.5 L 432.5 192 Q 443.3 192.3 447 199.5 L 456 219.5 L 457 234.5 L 458.5 236 L 462.5 235 Q 468.5 241.1 466 255.5 L 460 273.5 Q 462.8 275.2 462 280.5 Q 457.1 292.1 447.5 299 L 429 308 L 434 333.5 L 434 366.5 L 444 381.5 L 451 400.5 Q 454.5 418.5 453 441.5 Q 451.8 456.8 441.5 463 L 426.5 468 L 407.5 469 L 390.5 466 L 379 457.5 Q 376.2 452.3 377 443.5 Q 378.9 431.9 387.5 427 L 393 423.5 Q 390.8 409.2 380.5 403 Q 369.9 397.6 363 388.5 L 358.5 381 L 353 384.5 Q 361.5 403.5 359 433.5 Q 357.6 445.6 349.5 451 Q 334.9 459.9 308.5 457 L 302.5 455 L 298 467.5 L 291.5 475 L 282.5 480 L 270.5 483 L 242.5 483 L 229.5 480 Q 220.8 477.2 216 470.5 Q 211.9 465.1 213 454.5 Q 214.6 442.6 222.5 437 L 234 430.5 L 234 402.5 L 231.5 400 L 213.5 397 L 212 398.5 L 209 416.5 L 199 452.5 L 189.5 464 Q 172.1 474.1 141.5 471 Q 123.3 469.3 114 458.5 Q 109.2 452.3 111 439.5 Q 113.8 429.3 121.5 424 L 138 417.5 Q 149.1 388.1 150 348.5 L 147 338.5 L 147 313.5 L 151 293.5 Q 148.1 288.9 149 280.5 L 151 270.5 Q 129.4 258.1 113 240.5 L 103 222.5 L 102 200.5 L 112 180.5 L 112 177 L 88.5 195 Q 82.4 198.4 71.5 197 L 63 190.5 L 58 167.5 L 48 135.5 Q 44.8 124.2 46 108.5 Q 49.6 87.6 63.5 77 L 97.5 59 L 125.5 41 L 144.5 32 L 158.5 29 Z M 157 34 L 134 42 Q 103 63 69 79 Q 53 90 50 114 L 53 138 L 62 166 L 67 189 L 75 193 L 84 192 L 95 186 Q 110 174 119 156 L 129 131 L 142 87 L 153 66 L 163 56 L 165 57 Q 158 62 154 72 L 155 74 L 164 68 L 166 69 L 157 76 Q 147 82 144 94 L 131 139 L 122 160 L 117 167 L 116 183 Q 108 191 106 205 L 107 220 L 115 236 L 129 249 L 157 269 L 161 275 Q 171 289 192 292 Q 212 293 223 284 L 225 285 L 223 288 L 235 287 L 261 280 Q 286 271 305 256 Q 321 243 326 219 L 326 212 Q 320 202 317 190 L 315 168 L 316 149 L 321 119 L 321 104 Q 318 95 312 90 L 314 88 L 320 94 L 321 93 Q 321 84 317 80 L 318 77 L 322 84 L 325 95 L 325 122 L 320 152 L 321 188 Q 325 205 335 218 L 351 231 Q 356 236 369 235 L 377 219 L 404 189 Q 413 177 416 161 L 416 144 L 407 126 Q 375 100 348 71 Q 340 62 325 61 Q 305 61 297 72 Q 275 52 237 49 Q 206 48 186 57 L 188 54 L 186 47 L 172 35 L 157 34 Z M 436 197 L 434 199 Q 435 217 432 232 L 427 248 Q 419 266 404 277 L 408 279 Q 419 289 427 304 Q 439 301 448 293 L 457 281 L 453 278 Q 460 268 462 253 L 461 243 L 460 241 L 454 247 L 453 245 Q 455 218 444 204 L 438 197 L 436 197 Z M 356 267 L 311 276 L 298 275 L 290 288 Q 281 298 268 305 L 254 311 L 242 313 L 235 316 L 233 315 L 229 317 L 207 317 L 212 327 L 212 341 L 210 344 L 201 351 L 190 351 L 184 348 Q 178 344 177 337 Q 176 322 186 318 L 187 316 L 171 311 L 157 301 L 154 301 L 151 319 L 152 341 L 158 357 L 158 359 L 154 358 Q 153 393 142 420 L 143 422 L 142 423 L 131 424 L 124 428 Q 117 433 115 444 Q 114 453 119 458 Q 121 461 122 458 L 121 455 L 123 444 L 125 443 L 123 451 L 125 460 Q 131 467 145 466 L 143 459 L 144 449 L 146 448 L 145 451 L 147 463 L 153 467 Q 175 468 188 460 L 196 448 L 206 410 L 208 395 Q 193 389 182 379 L 175 372 L 176 370 Q 195 390 229 396 L 233 395 L 232 388 L 233 385 L 230 376 Q 229 371 232 372 L 234 384 L 236 386 L 239 413 L 239 427 L 238 428 Q 237 433 240 434 L 229 438 Q 221 443 218 452 Q 216 463 220 469 L 227 473 L 229 473 L 228 471 Q 226 464 230 465 L 232 474 Q 236 478 245 479 Q 252 481 254 478 L 252 473 Q 250 467 254 468 L 256 476 L 261 479 L 268 479 L 281 476 L 288 472 Q 295 467 297 457 L 298 437 L 302 407 L 302 380 L 303 379 L 303 370 L 305 369 L 306 394 L 308 395 Q 336 389 357 376 L 356 360 Q 359 359 358 363 L 358 365 Q 360 379 368 388 L 387 402 Q 396 410 398 427 L 391 430 Q 384 434 382 442 Q 380 452 384 457 Q 387 462 394 461 L 393 458 L 393 448 L 395 447 Q 393 456 397 461 L 403 464 L 415 464 L 416 463 L 413 457 L 413 449 L 415 448 Q 413 459 420 463 Q 434 465 441 458 L 446 452 L 449 438 L 448 410 L 445 394 Q 440 382 432 374 L 430 368 Q 432 337 426 316 Q 421 300 412 290 Q 395 267 356 267 Z M 291 270 Q 271 281 248 288 L 227 292 L 206 294 Q 201 297 200 305 L 201 314 L 208 316 L 218 316 L 229 313 L 231 314 L 240 311 L 242 312 L 267 302 L 283 291 L 294 276 Q 297 268 291 270 Z M 157 275 L 153 282 Q 153 293 158 299 Q 168 311 188 313 L 189 312 Q 188 302 191 297 L 189 294 L 178 292 L 165 284 L 157 275 Z M 195 295 L 192 299 L 191 305 L 192 315 L 194 316 L 199 315 L 198 311 Q 197 303 200 299 Q 202 292 195 295 Z M 191 319 L 187 321 L 180 330 Q 179 338 182 342 L 190 348 Q 200 350 204 346 L 209 341 L 211 336 L 209 327 Q 205 317 191 319 Z M 348 385 L 324 395 L 310 398 L 307 401 Q 311 404 310 413 L 313 416 Q 318 414 317 418 L 307 419 L 304 422 L 302 450 L 310 453 Q 315 454 316 452 L 315 450 Q 314 446 317 447 L 318 451 L 322 453 L 332 453 L 348 447 L 353 440 L 355 429 L 354 405 L 350 389 L 348 385 Z " /><path fill="rgb(7,7,7)" stroke="rgb(7,7,7)" stroke-width="0.6" opacity="1" d="M 166.5 101 Q 175.9 99.6 179 104.5 L 177.5 108 L 170.5 107 Q 158.6 108.6 152.5 116 L 151 113.5 L 159.5 104 L 166.5 101 Z " /><path fill="rgb(7,7,7)" stroke="rgb(7,7,7)" stroke-width="0.6" opacity="1" d="M 267.5 113 Q 279.9 112.6 285 119.5 Q 290.2 124 290 133 L 284 128.5 L 281.5 125 L 273.5 120 L 265 117.5 L 267.5 113 Z " /><path fill="rgb(7,7,7)" stroke="rgb(7,7,7)" stroke-width="0.6" opacity="1" d="M 158.5 137 Q 172.7 135.8 177 144.5 Q 182.5 152 181 166.5 L 176 180.5 L 176 185 L 163.5 189 L 157.5 189 L 153 186.5 L 149 178.5 L 148 168.5 Q 149.5 159.5 155.5 155 Q 158.7 150.7 167.5 152 L 174 156.5 L 177 164 L 179 163.5 L 179 154.5 Q 177.1 144.9 169.5 141 L 161.5 139 L 149.5 145 L 149 142.5 L 158.5 137 Z M 168 157 L 166 158 L 162 163 L 163 167 Q 164 170 171 169 L 174 165 L 173 160 L 168 157 Z " /><path fill="rgb(7,7,7)" stroke="rgb(7,7,7)" stroke-width="0.6" opacity="1" d="M 147.5 145 L 148 147.5 L 142.5 155 L 142 152.5 L 147.5 145 Z " /><path fill="rgb(7,7,7)" stroke="rgb(7,7,7)" stroke-width="0.6" opacity="1" d="M 261.5 150 Q 275 149 280 156.5 Q 288.2 164.8 286 183.5 L 282 194.5 L 277.5 199 L 279 196.5 Q 286.2 187.7 284 169.5 Q 281.3 159.8 273.5 155 Q 269.1 151.9 260.5 153 L 249 160.5 L 243 173 L 241 171.5 Q 244.1 161.1 251.5 155 L 261.5 150 Z " /><path fill="rgb(7,7,7)" stroke="rgb(7,7,7)" stroke-width="0.6" opacity="1" d="M 261.5 166 Q 273.3 164.7 276 172.5 Q 275 177.5 278 178.5 L 278 187.5 Q 276.3 196.8 269.5 201 L 267 202.5 Q 267.6 205.3 261.5 204 Q 254.1 202.9 251 197.5 Q 247.2 192.8 248 183.5 Q 249.4 172.9 256.5 168 L 261.5 166 Z M 268 171 L 266 172 L 262 177 Q 262 182 267 184 L 272 183 L 275 177 L 268 171 Z " /><path fill="rgb(7,7,7)" stroke="rgb(7,7,7)" stroke-width="0.6" opacity="1" d="M 183.5 191 L 201.5 193 Q 210.7 195.8 216 202.5 L 217 210.5 L 209.5 220 L 196.5 227 L 188.5 228 L 187 229.5 L 187 239.5 L 193.5 246 L 200.5 250 L 213.5 252 L 228.5 248 L 236.5 242 L 237 243.5 L 225 253.5 Q 220 265.5 210.5 273 Q 204 279.5 191.5 280 Q 177.8 278.7 172 269.5 L 169 263.5 L 167 250.5 L 164.5 245 Q 156.2 242.8 152 236.5 Q 146.5 229.8 146 219 Q 149.7 217.7 148 223.5 Q 151.4 235.1 160.5 241 Q 166 246 178.5 244 L 185 240.5 L 185 228.5 L 183.5 227 L 172 219.5 L 165 207.5 L 165 201.5 L 171.5 194 L 183.5 191 Z M 185 249 L 178 252 L 172 259 Q 171 266 175 270 L 187 277 Q 202 279 209 272 L 218 261 L 215 255 L 213 253 Q 204 255 201 251 L 196 254 L 194 255 L 195 252 Q 192 248 185 249 Z " /><path fill="rgb(7,7,7)" stroke="rgb(7,7,7)" stroke-width="0.6" opacity="1" d="M 242 229 Q 248.5 228.8 251 233.5 L 249.5 235 L 246.5 233 L 240.5 241 L 239 239.5 L 244 232.5 L 242 229 Z " /><path fill="rgb(167,111,65)" stroke="rgb(167,111,65)" stroke-width="0.6" opacity="1" d="M 157.5 35 L 159 35.5 L 156 37.5 Q 156.5 40.5 149.5 39 L 145.5 41 L 142 40 L 141.5 43 L 141 41 Q 138 39.8 139 43.5 L 136.5 45 L 134 43.5 Q 143.2 36.7 157.5 35 Z " /><path fill="rgb(167,111,65)" stroke="rgb(167,111,65)" stroke-width="0.6" opacity="1" d="M 160.5 35 Q 178.2 34.3 184 45.5 L 188 51.5 L 186 52.5 Q 189 54.5 184 56.5 Q 183.1 59.5 187.5 58 L 203.5 53 L 203.5 54 L 201 55.5 Q 201.9 58.5 197.5 57 L 194.5 56 L 193 59 L 189.5 58 L 188 61 L 184 60 L 183 53.5 L 185 50.5 L 181 48 L 180 44 L 175 41.5 L 174 38 L 167 39 Q 168.3 35.3 162.5 37 L 160.5 35 Z " /><path fill="rgb(167,111,65)" stroke="rgb(167,111,65)" stroke-width="0.6" opacity="1" d="M 132.5 44 L 133 46 Q 129.3 44.5 130 47.5 L 125.5 51 L 123 50 Q 124.1 53.3 120 52 L 120 54.5 L 118.5 54 L 116 55.5 L 114.5 57 L 110 58 L 110 60 Q 106.3 58.5 107 61.5 L 102.5 65 L 101 64.5 L 99.5 67 Q 96.5 67.7 98 64 L 132.5 44 Z " /><path fill="rgb(167,111,65)" stroke="rgb(167,111,65)" stroke-width="0.6" opacity="1" d="M 222.5 50 L 244.5 51 L 253 53.5 L 246.5 55 L 244 54 Q 245.3 51 241.5 52 Q 240 55.5 238.5 53 L 234.5 52 L 224.5 53 L 221.5 52 L 217.5 53 L 213.5 52 L 212 55 L 205 53.5 L 206.5 52 L 222.5 50 Z " /><path fill="rgb(167,111,65)" stroke="rgb(167,111,65)" stroke-width="0.6" opacity="1" d="M 163.5 51 L 167 52.5 L 167.5 54 L 169 53.5 L 169 58.5 L 173 63.5 L 173 66.5 L 169.5 71 L 167 69.5 L 171 66.5 L 169.5 65 L 166 66 L 164.5 64 L 163 63.5 Q 161.9 66.8 164.5 66 L 163.5 68 L 162 67.5 L 160.5 69 L 157.5 71 L 156 68.5 L 167 54 Q 161.8 54 159.5 58 L 159 52 L 163.5 51 Z " /><path fill="rgb(167,111,65)" stroke="rgb(167,111,65)" stroke-width="0.6" opacity="1" d="M 254.5 53 L 272 58 Q 273.5 61.7 270.5 61 L 269 58 L 264.5 59 L 261.5 57 L 258.5 58 L 256 57 Q 257.5 53.2 254.5 54 L 254.5 53 Z " /><path fill="rgb(167,111,65)" stroke="rgb(167,111,65)" stroke-width="0.6" opacity="1" d="M 273.5 59 L 296.5 73 Q 304.2 64.2 318.5 62 L 319 64 L 315.5 66 Q 314 63.5 312.5 67 L 307.5 66 L 306.5 69 L 304 70.5 L 302.5 73 L 299.5 75 Q 298 71.5 296.5 74 L 289 72 L 287.5 68 L 284.5 69 L 274 62.5 L 273.5 59 Z " /><path fill="rgb(167,111,65)" stroke="rgb(167,111,65)" stroke-width="0.6" opacity="1" d="M 153.5 61 L 156 61.5 L 150.5 68 L 149 64.5 L 153.5 61 Z " /><path fill="rgb(167,111,65)" stroke="rgb(167,111,65)" stroke-width="0.6" opacity="1" d="M 325 62 Q 338.4 63.5 346 71.5 L 346.5 73 L 347.5 72 L 351.5 76 L 392 113.5 L 389.5 114 L 382 107.5 L 379.5 104 L 370 97.5 L 368.5 95 L 358 85.5 L 355.5 82 L 345 75.5 L 346 73 L 343 73 Q 344 70 341 71 L 341 68 L 338.5 68 L 336 67.5 L 334.5 66 L 331.5 67 L 325 64 L 325 62 Z " /><path fill="rgb(167,111,65)" stroke="rgb(167,111,65)" stroke-width="0.6" opacity="1" d="M 94.5 66 L 95.5 68 L 92 68 Q 93.5 71.7 90.5 71 L 89 70.5 L 87.5 73 L 85.5 72 Q 84.3 75 80 74 L 78.5 77 L 76 76 Q 77.1 79.3 73 78 L 73 80.5 L 63 88.5 L 61.5 91 Q 58.9 90.2 60 93.5 L 61 95.5 L 60 98 L 55 99 L 56 104.5 L 53.5 106 L 53 102.5 Q 57.6 88.1 68.5 80 L 86.5 70 L 88 70.5 L 89.5 69 L 94.5 66 Z " /><path fill="rgb(167,111,65)" stroke="rgb(167,111,65)" stroke-width="0.6" opacity="1" d="M 165.5 70 L 168 71.5 L 152 83.5 L 150 85 L 155.5 78 L 165.5 70 Z " /><path fill="rgb(167,111,65)" stroke="rgb(167,111,65)" stroke-width="0.6" opacity="1" d="M 145.5 73 L 148 73.5 L 142.5 84 L 141 81.5 L 143 81.5 L 142 78.5 L 145 77 L 144 74.5 L 145.5 73 Z " /><path fill="rgb(167,111,65)" stroke="rgb(167,111,65)" stroke-width="0.6" opacity="1" d="M 314.5 74 Q 321.8 73.2 324 77.5 L 324 83.5 L 326 85.5 Q 328.7 87.3 324.5 89 Q 322.8 79.7 316.5 75 Q 313.9 74.2 315 77.5 L 317 79.5 L 319 89.5 L 317.5 91 L 312.5 86 Q 309.2 84.9 310 87.5 L 320 103.5 L 317.5 104 L 316 101.5 L 317 99 L 314 97.5 L 314 94 Q 309.2 95.9 310 92.5 L 308 86.5 L 310 86 L 309 80.5 L 314.5 74 Z " /><path fill="rgb(167,111,65)" stroke="rgb(167,111,65)" stroke-width="0.6" opacity="1" d="M 141.5 85 L 142 86.5 L 138.5 95 L 136 94 L 137.5 91 L 139 91.5 L 138 86 L 141.5 85 Z " /><path fill="rgb(167,111,65)" stroke="rgb(167,111,65)" stroke-width="0.6" opacity="1" d="M 148.5 86 L 150 90 L 147 91.5 L 148 94.5 L 145 96 L 146 100.5 Q 141.3 103.3 147.5 106 L 153.5 108 L 153 106.5 L 154.5 104 L 158 104.5 L 151 113 Q 146.9 114.7 148 110.5 L 142.5 108 L 141 111.5 L 142 115 L 140 116.5 L 141 120.5 L 137.5 123 L 137 120.5 L 148.5 86 Z " /><path fill="rgb(167,111,65)" stroke="rgb(167,111,65)" stroke-width="0.6" opacity="1" d="M 325.5 91 L 329 93.5 L 329 101.5 Q 325.5 103 327 109.5 L 329 111.5 L 329 122.5 L 328 125 L 326 126.5 L 325 126.5 L 326 95.5 L 325.5 91 Z " /><path fill="rgb(167,111,65)" stroke="rgb(167,111,65)" stroke-width="0.6" opacity="1" d="M 134 97 L 138 97.5 L 135 107 L 132 105.5 L 133.5 103 Q 136.1 103.8 135 100.5 L 134 97 Z " /><path fill="rgb(167,111,65)" stroke="rgb(167,111,65)" stroke-width="0.6" opacity="1" d="M 164.5 97 L 174.5 97 L 175 98.5 L 176 100.5 L 174.5 100 Q 164.7 98.7 160.5 103 L 160 100.5 L 164.5 97 Z " /><path fill="rgb(167,111,65)" stroke="rgb(167,111,65)" stroke-width="0.6" opacity="1" d="M 177.5 101 Q 181.8 101.8 181 107.5 Q 178.5 112 170.5 111 L 166 110 L 164.5 113 L 160 112 L 161 114.5 L 156.5 118 L 154.5 117 L 151.5 118 L 150.5 116 L 152.5 117 Q 159.5 108 175.5 108 L 179 109 L 180 104.5 L 177.5 101 Z " /><path fill="rgb(167,111,65)" stroke="rgb(167,111,65)" stroke-width="0.6" opacity="1" d="M 268.5 109 L 276 110 L 277.5 112 L 280 112.5 L 277.5 113 L 269.5 111 L 267 110.5 L 268.5 109 Z " /><path fill="rgb(167,111,65)" stroke="rgb(167,111,65)" stroke-width="0.6" opacity="1" d="M 319.5 110 L 320 119.5 L 315.5 142 L 315 139.5 L 316 137 Q 312.7 138.3 314 133.5 L 315 131 Q 318.3 132.3 317 127.5 L 318 125.5 Q 315 124.5 316 119.5 Q 318.8 117.8 318 112.5 L 317.5 111 L 319.5 110 Z " /><path fill="rgb(167,111,65)" stroke="rgb(167,111,65)" stroke-width="0.6" opacity="1" d="M 52.5 111 L 53 117 Q 56.7 115.8 55 121 Q 51.5 119.9 53 127.5 L 57 130.5 L 56 136.5 L 58 141.5 L 57 145 L 60 146.5 L 59 152.5 L 61.5 153 Q 64.1 152.2 63 155.5 L 63 157.5 L 64 160.5 L 63 164.5 Q 66.5 166 65 172.5 L 64 172.5 L 53 130.5 Q 55.5 129 52 127.5 L 52.5 111 Z " /><path fill="rgb(167,111,65)" stroke="rgb(167,111,65)" stroke-width="0.6" opacity="1" d="M 393.5 114 L 406 125.5 L 414 139.5 L 415 148.5 L 414 148.5 L 412.5 141 L 411.5 143 L 408 138.5 L 407 130 L 403 127.5 L 401.5 125 L 397 121.5 L 393.5 114 Z " /><path fill="rgb(167,111,65)" stroke="rgb(167,111,65)" stroke-width="0.6" opacity="1" d="M 131.5 116 L 132 117.5 L 128.5 128 L 128 126 Q 125 127 126 124 L 129 122.5 L 128 118.5 L 131 117.5 L 131.5 116 Z " /><path fill="rgb(167,111,65)" stroke="rgb(167,111,65)" stroke-width="0.6" opacity="1" d="M 264.5 119 Q 274.8 119.8 280 125.5 L 277 126 L 276.5 124 Q 275 126.5 273.5 123 L 269.5 124 L 268 121 L 264.5 119 Z " /><path fill="rgb(167,111,65)" stroke="rgb(167,111,65)" stroke-width="0.6" opacity="1" d="M 289.5 125 L 292 125 Q 290.3 130.2 294 129 L 294 134 Q 292 136.8 285.5 136 L 283 132.5 L 284 130.5 L 283.5 129 L 288.5 135 L 291 133.5 Q 291.6 127 289.5 125 Z " /><path fill="rgb(167,111,65)" stroke="rgb(167,111,65)" stroke-width="0.6" opacity="1" d="M 324.5 129 Q 328.3 131.3 327 138.5 L 326 141 L 324 142.5 L 323 142.5 L 324.5 129 Z " /><path fill="rgb(167,111,65)" stroke="rgb(167,111,65)" stroke-width="0.6" opacity="1" d="M 125.5 130 L 128 130.5 L 122.5 145 L 120 144 L 121.5 141 L 123 139.5 L 122 137.5 Q 127 135.5 124 133.5 L 125.5 130 Z " /><path fill="rgb(167,111,65)" stroke="rgb(167,111,65)" stroke-width="0.6" opacity="1" d="M 134.5 130 L 136 134.5 L 133 136.5 L 134 144.5 L 129 147.5 L 130 149.5 L 127 151 L 134.5 130 Z " /><path fill="rgb(167,111,65)" stroke="rgb(167,111,65)" stroke-width="0.6" opacity="1" d="M 162.5 132 L 167 133 L 168 136.5 L 166.5 136 L 157.5 137 L 158 135.5 Q 156.7 131.3 161.5 133 L 162.5 132 Z " /><path fill="rgb(167,111,65)" stroke="rgb(167,111,65)" stroke-width="0.6" opacity="1" d="M 153.5 136 L 154.5 138 L 146.5 144 L 146 142 L 148 140.5 L 149 138 Q 153.8 139.7 153.5 136 Z " /><path fill="rgb(167,111,65)" stroke="rgb(167,111,65)" stroke-width="0.6" opacity="1" d="M 173.5 139 L 177 140.5 L 178.5 143 L 180 144.5 L 178 145.5 L 174.5 140 L 173.5 139 Z " /><path fill="rgb(167,111,65)" stroke="rgb(167,111,65)" stroke-width="0.6" opacity="1" d="M 158.5 141 Q 171.5 139.5 175 147.5 L 178 157.5 L 177 157.5 Q 178.1 154.2 175.5 155 Q 173.5 158 171.5 153 L 167 150.5 L 169 146.5 L 167 142 L 158.5 142 L 158.5 141 Z " /><path fill="rgb(167,111,65)" stroke="rgb(167,111,65)" stroke-width="0.6" opacity="1" d="M 155.5 142 L 157 143.5 L 158 147 L 150 146.5 L 155.5 142 Z " /><path fill="rgb(167,111,65)" stroke="rgb(167,111,65)" stroke-width="0.6" opacity="1" d="M 314.5 144 Q 317.3 145.3 316 150.5 L 314.5 163 Q 315.3 157.2 312 155.5 L 312 147 Q 315.1 148.1 314.5 144 Z " /><path fill="rgb(167,111,65)" stroke="rgb(167,111,65)" stroke-width="0.6" opacity="1" d="M 322.5 144 Q 326.3 146.3 325 153.5 L 324 158 Q 321 156.8 322 160.5 L 321 160.5 L 322.5 144 Z " /><path fill="rgb(167,111,65)" stroke="rgb(167,111,65)" stroke-width="0.6" opacity="1" d="M 266.5 145 Q 267.8 148 272 147 L 273.5 150 L 275.5 149 L 277 152.5 L 274.5 151 Q 269.9 148.1 261.5 149 L 258 150 Q 256.3 145.9 260.5 147 L 264.5 148 L 264.5 146 L 266.5 145 Z " /><path fill="rgb(167,111,65)" stroke="rgb(167,111,65)" stroke-width="0.6" opacity="1" d="M 141.5 147 L 143 149.5 L 141 149.5 L 142 151.5 L 137.5 161 L 136 157.5 L 139 156 L 138 150.5 L 141.5 147 Z " /><path fill="rgb(167,111,65)" stroke="rgb(167,111,65)" stroke-width="0.6" opacity="1" d="M 179.5 147 Q 182.1 146.2 181 149.5 L 184 151 L 185 156 Q 181.7 154.7 183 159.5 L 182 159.5 Q 182.6 150.7 179.5 147 Z " /><path fill="rgb(167,111,65)" stroke="rgb(167,111,65)" stroke-width="0.6" opacity="1" d="M 158.5 148 L 166 150.5 L 159.5 152 L 158.5 148 Z " /><path fill="rgb(167,111,65)" stroke="rgb(167,111,65)" stroke-width="0.6" opacity="1" d="M 147.5 149 L 147 154.5 L 148.5 156 Q 150 158.5 151.5 155 L 154 153.5 L 155.5 151 L 158 152.5 L 151 158.5 L 148.5 164 L 144.5 159 L 143 162.5 L 146.5 167 L 148 167.5 L 147 169.5 L 148 173.5 L 147 175.5 L 150 182.5 L 149.5 185 L 144 181.5 Q 140.2 175.3 141 164.5 Q 141.8 154.3 147.5 149 Z " /><path fill="rgb(167,111,65)" stroke="rgb(167,111,65)" stroke-width="0.6" opacity="1" d="M 119.5 151 L 119 152.5 L 108.5 170 L 108 166.5 Q 112 164.3 112 159 Q 115 160.3 114 156.5 L 117 155 Q 115.5 151.2 118.5 152 L 119.5 151 Z " /><path fill="rgb(167,111,65)" stroke="rgb(167,111,65)" stroke-width="0.6" opacity="1" d="M 251.5 151 L 254 152.5 L 246 159.5 L 240.5 171 L 238 170 L 241 165.5 Q 238.5 164 242 162.5 L 243 158 L 248 156 L 251.5 151 Z " /><path fill="rgb(167,111,65)" stroke="rgb(167,111,65)" stroke-width="0.6" opacity="1" d="M 126.5 152 L 127 154.5 L 125 156.5 Q 129 158.5 125 160.5 L 119 168.5 Q 122.6 169.9 122 175.5 L 119 177.5 L 120 180.5 L 118.5 182 L 116 189.5 L 111 196.5 L 112 198.5 L 110 211.5 L 112 214.5 L 109 216 Q 107.1 220.8 110.5 220 L 112 222.5 L 111 225 L 114 226.5 L 116 231.5 L 118.5 235 L 123.5 234 L 125 238.5 L 125 240.5 L 127 243.5 L 133.5 248 L 139 247 L 138 250.5 L 139 252.5 L 138.5 254 L 144.5 253 L 147 260.5 L 144.5 259 Q 129.6 250.9 119 238.5 L 118.5 236 L 117 236.5 L 117.5 235 L 114 232.5 L 107 215.5 L 107 203.5 Q 109.8 190.8 117 182.5 L 118 166.5 L 126.5 152 Z " /><path fill="rgb(167,111,65)" stroke="rgb(167,111,65)" stroke-width="0.6" opacity="1" d="M 260.5 154 Q 275.6 152.9 280 162.5 L 282 168.5 Q 279.5 166.7 277 171.5 L 278.5 174 L 282 172 L 282.5 170 L 283 183.5 L 281.5 188 L 280.5 185 L 279 189.5 L 281 189.5 L 279.5 193 L 278.5 191 L 277 191.5 Q 280.7 187.2 279 177.5 L 271.5 167 L 267 164.5 L 269.5 163 L 271 166 L 276 163.5 L 275 160 Q 271 156.2 261.5 157 L 258 159.5 Q 258.9 162.5 254.5 161 L 250 163.5 L 252.5 167 L 259.5 163 L 262 164.5 Q 254.7 166.7 251 172.5 Q 245.9 178.4 247 190.5 L 252 199.5 L 249.5 200 L 246 199 Q 240.7 192.5 242 178.5 Q 243.9 165.9 251.5 159 L 260.5 154 Z M 250 168 L 245 171 L 249 175 L 250 171 L 250 168 Z " /><path fill="rgb(167,111,65)" stroke="rgb(167,111,65)" stroke-width="0.6" opacity="1" d="M 281.5 156 L 288 159.5 L 289 163.5 L 286.5 168 L 281.5 156 Z " /><path fill="rgb(167,111,65)" stroke="rgb(167,111,65)" stroke-width="0.6" opacity="1" d="M 411.5 161 L 414 162 Q 410.2 183.3 396.5 196 Q 393.2 197.1 394 194.5 L 401 189 L 405.5 179 Q 409.3 180.3 408 176.5 L 407.5 175 L 410 173.5 L 409 169.5 L 411.5 161 Z " /><path fill="rgb(167,111,65)" stroke="rgb(167,111,65)" stroke-width="0.6" opacity="1" d="M 287.5 170 L 290 171 L 291 179.5 L 290 182 L 288 183.5 L 287.5 185 Q 290.1 184.2 289 187.5 L 286 191.5 Q 287.3 196.8 284.5 198 L 280.5 199 L 281 197.5 L 285 191.5 L 285 189.5 Q 288.6 182.1 287.5 170 Z " /><path fill="rgb(167,111,65)" stroke="rgb(167,111,65)" stroke-width="0.6" opacity="1" d="M 107.5 171 L 95.5 184 L 96 182.5 Q 95.6 176.1 99.5 174 L 101.5 174 L 103 172 L 106.5 172 L 107.5 171 Z " /><path fill="rgb(167,111,65)" stroke="rgb(167,111,65)" stroke-width="0.6" opacity="1" d="M 239.5 172 L 240 174.5 L 239 175.5 L 239 188.5 L 245 201 L 239 199 L 238 193.5 L 238.5 192 L 237 190.5 L 236 187.5 L 237.5 185 L 236 184.5 L 236 175.5 L 239.5 172 Z " /><path fill="rgb(167,111,65)" stroke="rgb(167,111,65)" stroke-width="0.6" opacity="1" d="M 314.5 172 L 316 186 L 312 185 L 312 178.5 Q 315.1 177.1 314.5 172 Z " /><path fill="rgb(167,111,65)" stroke="rgb(167,111,65)" stroke-width="0.6" opacity="1" d="M 67.5 173 L 71 178.5 L 68 183.5 L 70 184 L 72 190 L 78.5 189 L 82.5 190 L 82.5 189 L 81 188.5 L 86.5 183 L 87.5 184 L 89.5 185 L 93 184 L 91.5 186 Q 86 192.5 73.5 192 L 68 188.5 L 66 180.5 Q 68.5 179 65 177.5 Q 63.5 173.1 66.5 174 L 67.5 173 Z " /><path fill="rgb(167,111,65)" stroke="rgb(167,111,65)" stroke-width="0.6" opacity="1" d="M 321.5 173 L 322 175 Q 325.3 173.7 324 178.5 L 325 185 L 323 186.5 L 322 186.5 L 321.5 173 Z " /><path fill="rgb(167,111,65)" stroke="rgb(167,111,65)" stroke-width="0.6" opacity="1" d="M 137.5 174 Q 140.1 173.2 139 176.5 L 141 181 Q 137.3 182.5 138 179.5 L 137 176.5 L 137.5 174 Z " /><path fill="rgb(167,111,65)" stroke="rgb(167,111,65)" stroke-width="0.6" opacity="1" d="M 188.5 176 L 199 178.5 L 198.5 180 L 207 179 L 208.5 182 L 212.5 181 L 214 184 L 220 185.5 L 221 188.5 L 220 191 L 214 192 L 215 189.5 L 210.5 188 L 208 189 Q 206.5 185.3 209.5 186 L 219.5 189 L 217.5 186 Q 205.9 179.6 187.5 180 L 177 182 L 178.5 177 L 179 179 L 185 180 L 186.5 177 L 188.5 176 Z " /><path fill="rgb(167,111,65)" stroke="rgb(167,111,65)" stroke-width="0.6" opacity="1" d="M 182.5 184 Q 197.5 182 207 185.5 L 205 186.5 L 208.5 193 L 211 194.5 Q 210.1 197.5 214.5 196 L 221 203.5 L 221 209 Q 216.9 210.7 218 206.5 L 219 204.5 L 215 199 L 204.5 193 L 196 191.5 Q 197.5 188 203 188.5 L 197.5 187 L 192 189.5 L 192.5 191 L 183.5 190 L 173.5 192 L 167 196.5 L 163.5 206 L 162.5 203 Q 160.7 205.8 159 201.5 L 162.5 195 L 167 194 L 168 191.5 L 165 189.5 L 169 188 L 170.5 190 L 171.5 188 L 170 187.5 L 182.5 184 Z " /><path fill="rgb(167,111,65)" stroke="rgb(167,111,65)" stroke-width="0.6" opacity="1" d="M 145.5 187 L 164 190 Q 165.8 195.3 158.5 193 L 157 190 L 150.5 192 L 149 188 Q 144.6 189 145.5 187 Z " /><path fill="rgb(167,111,65)" stroke="rgb(167,111,65)" stroke-width="0.6" opacity="1" d="M 325 195 L 329 197.5 L 327 200.5 L 331 203.5 Q 335.5 215 344.5 222 L 348.5 221 L 353 227.5 L 353 230.5 L 351.5 230 L 337 218.5 Q 328.2 209.1 325 195 Z " /><path fill="rgb(167,111,65)" stroke="rgb(167,111,65)" stroke-width="0.6" opacity="1" d="M 394.5 197 L 396 197.5 L 380 212.5 L 373 222.5 L 370.5 230 L 365 225.5 L 366 223 L 369.5 224 L 371 221 L 374 219.5 L 375 214 L 382 209.5 L 388.5 202 L 391 200.5 L 392.5 198 L 394.5 197 Z " /><path fill="rgb(167,111,65)" stroke="rgb(167,111,65)" stroke-width="0.6" opacity="1" d="M 252.5 201 Q 255.7 204.8 263 204.5 L 260.5 209 L 258 207.5 L 256.5 206 L 254.5 203 L 252.5 203 L 251 202.5 L 252.5 201 Z " /><path fill="rgb(167,111,65)" stroke="rgb(167,111,65)" stroke-width="0.6" opacity="1" d="M 275.5 202 L 277 207 L 269 209 Q 267.3 204.9 271.5 206 L 274 207 L 275.5 202 Z " /><path fill="rgb(167,111,65)" stroke="rgb(167,111,65)" stroke-width="0.6" opacity="1" d="M 319 203 L 321 204.5 L 324 209.5 Q 321.5 211.5 319 207.5 L 318 205.5 L 319 203 Z " /><path fill="rgb(167,111,65)" stroke="rgb(167,111,65)" stroke-width="0.6" opacity="1" d="M 150.5 210 L 154 212.5 Q 154.6 218.1 151 219.5 L 152 223.5 L 151 226.5 L 159 231.5 L 164.5 239 L 168 240.5 L 167.5 242 L 169 242.5 L 167.5 243 Q 157.8 240.3 153 232.5 L 148 218.5 Q 153.3 216.3 149.5 214 Q 140.5 212.5 139 218.5 L 141.5 219 L 143.5 218 L 146 224.5 L 142.5 224 L 138 222.5 L 136 218.5 L 140 216.5 L 143.5 211 L 148.5 212 L 150.5 210 Z " /><path fill="rgb(167,111,65)" stroke="rgb(167,111,65)" stroke-width="0.6" opacity="1" d="M 324.5 211 L 325 220.5 L 324 220.5 L 322 212 L 324.5 211 Z " /><path fill="rgb(167,111,65)" stroke="rgb(167,111,65)" stroke-width="0.6" opacity="1" d="M 169 219 L 172 220.5 L 173.5 222 L 182 227.5 L 179.5 229 L 171 224.5 L 169 219 Z " /><path fill="rgb(167,111,65)" stroke="rgb(167,111,65)" stroke-width="0.6" opacity="1" d="M 210.5 220 L 209 222.5 L 207.5 225 L 201.5 228 L 196.5 228 L 196.5 227 Q 205.9 226 210.5 220 Z " /><path fill="rgb(167,111,65)" stroke="rgb(167,111,65)" stroke-width="0.6" opacity="1" d="M 321 224 L 324 224.5 L 320.5 233 L 319 229.5 Q 324 227.5 321 225.5 L 321 224 Z " /><path fill="rgb(167,111,65)" stroke="rgb(167,111,65)" stroke-width="0.6" opacity="1" d="M 241.5 225 L 247 226.5 L 247.5 228 L 249.5 228 L 251 229.5 L 253 233.5 L 247.5 229 L 242.5 227 L 240 226.5 L 241.5 225 Z " /><path fill="rgb(167,111,65)" stroke="rgb(167,111,65)" stroke-width="0.6" opacity="1" d="M 146.5 226 Q 148.5 236.5 156 241.5 L 151.5 238 L 148 236.5 L 146.5 230 L 144 229.5 L 146.5 226 Z " /><path fill="rgb(167,111,65)" stroke="rgb(167,111,65)" stroke-width="0.6" opacity="1" d="M 192.5 228 Q 196.7 226.7 195 231.5 L 190 238.5 L 195.5 243 Q 201.3 242.2 203 245.5 L 203.5 249 Q 192.7 247.3 188 239.5 L 187 230.5 L 192.5 228 Z " /><path fill="rgb(167,111,65)" stroke="rgb(167,111,65)" stroke-width="0.6" opacity="1" d="M 239.5 229 L 240 231 L 242 231.5 L 240 232.5 L 242 233 L 239.5 237 L 236.5 238 L 234 233.5 L 236.5 233 L 239 232.5 L 239.5 229 Z " /><path fill="rgb(167,111,65)" stroke="rgb(167,111,65)" stroke-width="0.6" opacity="1" d="M 355.5 229 L 357 232 L 367.5 231 L 370 231.5 L 368.5 234 Q 358.6 235.4 354 231.5 L 355.5 229 Z " /><path fill="rgb(167,111,65)" stroke="rgb(167,111,65)" stroke-width="0.6" opacity="1" d="M 183.5 230 L 184 239.5 L 176.5 243 L 179 239.5 L 180.5 238 L 183 237 L 183.5 230 Z " /><path fill="rgb(167,111,65)" stroke="rgb(167,111,65)" stroke-width="0.6" opacity="1" d="M 247.5 234 L 251 236.5 L 249 236.5 L 245 239.5 L 244 242.5 L 242.5 244 L 240.5 244 L 239 244.5 L 239.5 246 L 234 249.5 L 233.5 252 L 226 255.5 L 227 258.5 L 221.5 265 L 219 264.5 L 228.5 251 Q 238.2 246.7 244 238.5 L 247.5 234 Z " /><path fill="rgb(167,111,65)" stroke="rgb(167,111,65)" stroke-width="0.6" opacity="1" d="M 317 234 L 320 234.5 L 316.5 240 Q 313.5 238.5 316.5 237 L 318 236.5 L 317 234 Z " /><path fill="rgb(167,111,65)" stroke="rgb(167,111,65)" stroke-width="0.6" opacity="1" d="M 312.5 241 L 314.5 242 L 316 241.5 L 310.5 248 L 310 243.5 L 312.5 241 Z " /><path fill="rgb(167,111,65)" stroke="rgb(167,111,65)" stroke-width="0.6" opacity="1" d="M 230.5 242 L 234 242.5 L 221.5 249 L 222 247.5 Q 220.9 244.2 223.5 245 L 228 243 L 229.5 245 L 230.5 242 Z " /><path fill="rgb(167,111,65)" stroke="rgb(167,111,65)" stroke-width="0.6" opacity="1" d="M 157.5 243 L 165 247.5 L 166 252.5 L 165 252.5 L 164.5 251 L 162 250.5 Q 163.9 245.1 160.5 246 L 156 247 L 157.5 243 Z " /><path fill="rgb(167,111,65)" stroke="rgb(167,111,65)" stroke-width="0.6" opacity="1" d="M 213.5 246 L 220 249.5 L 206 250 L 207.5 248 L 213.5 246 Z " /><path fill="rgb(167,111,65)" stroke="rgb(167,111,65)" stroke-width="0.6" opacity="1" d="M 302.5 252 L 305 253.5 L 296.5 261 L 296 259.5 L 302.5 252 Z " /><path fill="rgb(167,111,65)" stroke="rgb(167,111,65)" stroke-width="0.6" opacity="1" d="M 166.5 255 L 170 266.5 L 167.5 267 Q 162.7 264.5 164 257 Q 166.8 258 166.5 255 Z " /><path fill="rgb(167,111,65)" stroke="rgb(167,111,65)" stroke-width="0.6" opacity="1" d="M 292.5 260 Q 295.8 258.9 295 261.5 Q 279.4 272.4 259.5 279 L 259 276.5 L 261.5 275 L 263.5 276 L 265 273 L 270 274 Q 268.5 270.3 271.5 271 L 273.5 272 L 274.5 269 L 286 266 Q 284.5 262.2 287.5 263 L 290 264 Q 288.5 260.2 291.5 261 L 292.5 260 Z " /><path fill="rgb(167,111,65)" stroke="rgb(167,111,65)" stroke-width="0.6" opacity="1" d="M 153.5 265 L 155.5 267 Q 157.5 263 159.5 267 L 163 267 L 163 274.5 L 164.5 277 L 156.5 268 L 153.5 265 Z " /><path fill="rgb(167,111,65)" stroke="rgb(167,111,65)" stroke-width="0.6" opacity="1" d="M 218.5 266 L 220 268.5 L 217.5 273 L 212.5 275 L 211 274.5 L 209.5 276 L 205 279 Q 204.7 285.6 208.5 289 L 211.5 285 L 214 286.5 L 212.5 288 L 208.5 290 L 192.5 291 L 185 289.5 L 188.5 287 Q 196 289 198 285.5 Q 196.5 280.5 188.5 282 L 184 284.5 L 183 287.5 L 183.5 289 L 176 285.5 L 178 284 Q 177 287 180 286 L 179 277.5 L 180.5 278 L 184.5 280 L 200.5 280 Q 210.6 276.1 217 268.5 L 218.5 266 Z " /><path fill="rgb(167,111,65)" stroke="rgb(167,111,65)" stroke-width="0.6" opacity="1" d="M 170.5 268 L 178 278.5 L 175.5 277 L 172 279.5 L 174 284.5 L 170.5 282 L 166 278.5 L 167.5 279 L 171 277.5 L 170 272.5 L 171 270.5 L 170.5 268 Z " /><path fill="rgb(167,111,65)" stroke="rgb(167,111,65)" stroke-width="0.6" opacity="1" d="M 289.5 271 L 291.5 272 L 293 271.5 Q 293.7 278.7 290 281.5 L 278.5 293 L 279 291.5 Q 277.5 287.1 280.5 288 L 290 279.5 L 287.5 275 L 279.5 279 L 277 279.5 L 275.5 281 L 273.5 280 L 271.5 284 L 268 282 Q 269.5 285.8 266.5 285 L 263 284 L 261.5 288 L 258.5 286 L 257 289 L 252.5 288 L 251 291 L 244.5 290 L 242 291.5 L 241.5 294 L 234.5 292 L 233 295 L 220 293.5 Q 261.7 289.2 289.5 271 Z " /><path fill="rgb(167,111,65)" stroke="rgb(167,111,65)" stroke-width="0.6" opacity="1" d="M 254.5 277 L 258 279.5 L 245.5 283 L 246 281.5 L 247.5 279 L 251.5 280 L 254.5 277 Z " /><path fill="rgb(167,111,65)" stroke="rgb(167,111,65)" stroke-width="0.6" opacity="1" d="M 220 279 L 226 281.5 L 215.5 287 L 216 285.5 L 217.5 283 L 220 281.5 L 220 279 Z " /><path fill="rgb(167,111,65)" stroke="rgb(167,111,65)" stroke-width="0.6" opacity="1" d="M 227.5 281 L 232.5 283 L 242 281 L 243.5 283 L 243.5 284 L 227.5 287 L 228 285.5 L 227 283.5 L 227.5 281 Z " /><path fill="rgb(167,111,65)" stroke="rgb(167,111,65)" stroke-width="0.6" opacity="1" d="M 210.5 294 L 216 295 Q 217.3 298 213.5 297 L 209.5 299 L 206.5 298 L 203 299 L 204 309.5 L 205.5 311 L 211.5 310 L 216 311 Q 214.7 314.3 219.5 313 L 219.5 314 L 203.5 314 L 202 312.5 L 201 304.5 L 204.5 296 L 210.5 294 Z " /><path fill="rgb(167,111,65)" stroke="rgb(167,111,65)" stroke-width="0.6" opacity="1" d="M 266 297 L 269.5 298 L 271.5 297 L 271.5 298 L 251 307 L 252 303 L 262 301 L 263.5 299 L 266 300 L 266 297 Z " /><path fill="rgb(167,111,65)" stroke="rgb(167,111,65)" stroke-width="0.6" opacity="1" d="M 227.5 309 L 234 310 Q 235.4 314 228.5 312 L 223.5 313 L 223.5 312 L 226 311.5 L 225.5 310 L 227.5 309 Z " /><path fill="rgb(87,65,47)" stroke="rgb(87,65,47)" stroke-width="0.6" opacity="1" d="M 267.5 172 L 273 174.5 L 274 176.5 L 272 177 L 273 180.5 L 267.5 184 L 263 180.5 Q 261.8 174.3 265.5 173 L 267.5 172 Z " /><path fill="rgb(87,65,47)" stroke="rgb(87,65,47)" stroke-width="0.6" opacity="1" d="M 437.5 199 L 442 201.5 L 447 209.5 Q 444.5 211 448 212.5 L 451 223.5 L 450 226 Q 454 224.6 452 231.5 L 451 238.5 L 452 246 L 450 247.5 L 452 248.5 L 452.5 247 Q 454.5 250 456.5 245 L 460.5 244 L 461 252.5 L 460.5 255 L 459 255.5 L 461 256.5 L 457 269 Q 453.3 267.6 455 273.5 L 453 277.5 L 454 281 L 456 281.5 L 445.5 294 L 426.5 304 Q 420.4 290.6 410.5 281 L 406 277.5 L 421 259.5 L 423 254 L 427 252 L 427 247.5 Q 432.4 237.7 433 224 L 435 222.5 L 434 216 L 436 215.5 L 436 200.5 L 437.5 199 Z " /><path fill="rgb(87,65,47)" stroke="rgb(87,65,47)" stroke-width="0.6" opacity="1" d="M 190.5 319 Q 200.6 317.4 204 322.5 L 205.5 324 Q 210.6 327.4 209 337.5 L 202.5 346 L 196.5 348 L 194.5 347 L 191.5 348 L 185 344.5 L 184.5 342 L 183 342.5 L 180 335.5 L 182 335 Q 183.5 331.3 180.5 332 L 181 330.5 Q 182 322.6 188.5 320 L 190.5 319 Z " /><path fill="rgb(223,145,153)" stroke="rgb(223,145,153)" stroke-width="0.6" opacity="1" d="M 165.5 159 Q 171.8 157.8 173 161.5 L 170.5 168 Q 165.3 169.3 164 166.5 Q 162.5 160.5 165.5 159 Z " /><path fill="rgb(223,145,153)" stroke="rgb(223,145,153)" stroke-width="0.6" opacity="1" d="M 155 277 L 169.5 289 L 189 296.5 L 188 310.5 L 186.5 312 Q 167 308.5 157 295.5 Q 153.6 290.9 154 282.5 L 155 277 Z " /><path fill="rgb(223,145,153)" stroke="rgb(223,145,153)" stroke-width="0.6" opacity="1" d="M 346.5 386 L 352 398.5 L 354 425.5 L 352 439.5 L 345.5 447 Q 336.3 452.3 321.5 452 Q 315.6 448.9 317 438.5 L 319 434.5 Q 317.5 431.5 316 434.5 L 313 445.5 L 315 450.5 L 311.5 452 L 303 448.5 L 305 421.5 L 306.5 420 L 320.5 419 L 325 420 L 323.5 417 L 313.5 415 L 311 412.5 L 309 400.5 L 337.5 391 L 346.5 386 Z " /><path fill="rgb(219,188,139)" stroke="rgb(219,188,139)" stroke-width="0.6" opacity="1" d="M 185.5 250 L 193 251.5 L 189.5 253 L 182.5 252 L 178.5 257 L 174 260.5 L 176.5 268 L 179.5 266 L 181 270.5 L 180.5 272 L 183.5 271 L 184.5 274 L 190 273 L 191.5 276 L 194.5 273 L 196.5 272 L 200.5 274 L 205 272 L 205.5 270 L 206.5 272 Q 201.1 276.6 191.5 277 Q 181.2 275.8 176 269.5 Q 172.2 266.3 173 258.5 L 176.5 254 L 185.5 250 Z " /><path fill="rgb(219,188,139)" stroke="rgb(219,188,139)" stroke-width="0.6" opacity="1" d="M 199.5 253 L 212.5 255 L 217 258.5 L 210.5 268 L 210 266.5 Q 214.3 264.3 214 257.5 L 212.5 256 Q 204.1 256.9 199.5 254 L 198 257 L 191.5 261 L 193 258.5 L 194.5 256 L 199.5 253 Z " /><path fill="rgb(219,188,139)" stroke="rgb(219,188,139)" stroke-width="0.6" opacity="1" d="M 189.5 256 L 191 256.5 L 189 260.5 L 189.5 262 L 186 260.5 L 188 257.5 L 189.5 256 Z " /><path fill="rgb(219,188,139)" stroke="rgb(219,188,139)" stroke-width="0.6" opacity="1" d="M 356.5 268 Q 392.7 267.8 409 287.5 L 411 290.5 L 402.5 283 L 395.5 278 L 381.5 272 Q 380 275.5 378.5 273 L 375.5 271 L 365.5 270 L 358.5 271 L 355.5 270 L 353.5 270 L 344.5 271 L 342.5 273 L 336 271.5 L 356.5 268 Z " /><path fill="rgb(219,188,139)" stroke="rgb(219,188,139)" stroke-width="0.6" opacity="1" d="M 332.5 272 L 335 272.5 L 326 275 L 324.5 277 L 319.5 276 L 316 277 Q 317.3 280 313.5 279 L 300.5 278 L 295 282.5 Q 296.5 286.9 293.5 286 L 288 290.5 L 298.5 276 L 310.5 277 L 332.5 272 Z " /><path fill="rgb(219,188,139)" stroke="rgb(219,188,139)" stroke-width="0.6" opacity="1" d="M 412.5 292 L 422 308.5 L 419 306.5 L 416 298 L 414 296.5 L 412.5 292 Z " /><path fill="rgb(219,188,139)" stroke="rgb(219,188,139)" stroke-width="0.6" opacity="1" d="M 195.5 296 L 199 297.5 Q 195.7 302.2 197 311.5 L 198 314.5 L 195.5 316 Q 190.6 312.9 192 303.5 L 195.5 296 Z " /><path fill="rgb(219,188,139)" stroke="rgb(219,188,139)" stroke-width="0.6" opacity="1" d="M 282.5 296 L 283 297.5 L 268.5 307 L 259.5 310 L 259.5 309 Q 273.2 304.7 282.5 296 Z " /><path fill="rgb(219,188,139)" stroke="rgb(219,188,139)" stroke-width="0.6" opacity="1" d="M 155.5 302 L 156.5 304 Q 158.5 301 160.5 306 L 163 307.5 L 160.5 308 Q 158.8 305.3 157 309.5 L 156 314 Q 153 312.8 154 316.5 L 153 316.5 L 155.5 302 Z " /><path fill="rgb(219,188,139)" stroke="rgb(219,188,139)" stroke-width="0.6" opacity="1" d="M 164.5 308 Q 172.7 314.7 185 316 L 183.5 319 L 181 320.5 L 178.5 324 L 179 322.5 L 182 317.5 L 167.5 312 L 164.5 308 Z " /><path fill="rgb(219,188,139)" stroke="rgb(219,188,139)" stroke-width="0.6" opacity="1" d="M 256.5 310 L 258 312 L 253.5 312 L 245.5 316 L 240.5 316 L 240.5 315 L 256.5 310 Z " /><path fill="rgb(219,188,139)" stroke="rgb(219,188,139)" stroke-width="0.6" opacity="1" d="M 422.5 310 L 426 321 L 423 319.5 L 424 317.5 L 422.5 310 Z " /><path fill="rgb(219,188,139)" stroke="rgb(219,188,139)" stroke-width="0.6" opacity="1" d="M 235.5 316 L 239 316.5 L 225 319 L 223.5 321 L 213.5 320 L 213 322.5 L 212.5 326 L 210 321.5 L 210.5 320 L 209 319.5 L 228.5 318 L 235.5 316 Z " /><path fill="rgb(219,188,139)" stroke="rgb(219,188,139)" stroke-width="0.6" opacity="1" d="M 152.5 319 Q 151.3 327.2 155 330.5 L 154 338 L 156 339.5 L 154.5 345 Q 150.7 333.7 152.5 319 Z " /><path fill="rgb(219,188,139)" stroke="rgb(219,188,139)" stroke-width="0.6" opacity="1" d="M 426.5 323 L 429 340.5 L 429 368.5 L 430 371 L 428 370.5 L 428 341.5 Q 424.8 333.6 426.5 323 Z " /><path fill="rgb(219,188,139)" stroke="rgb(219,188,139)" stroke-width="0.6" opacity="1" d="M 177.5 326 L 177 327.5 L 176 337.5 L 177 339.5 L 176 339.5 L 175 328.5 L 177.5 326 Z " /><path fill="rgb(219,188,139)" stroke="rgb(219,188,139)" stroke-width="0.6" opacity="1" d="M 213.5 328 L 217 329 L 217 334.5 Q 214 333.5 215 338.5 L 213 339.5 L 214 329.5 L 213.5 328 Z " /><path fill="rgb(219,188,139)" stroke="rgb(219,188,139)" stroke-width="0.6" opacity="1" d="M 178.5 343 L 183.5 349 L 185 349.5 L 182 350 L 178.5 343 Z " /><path fill="rgb(219,188,139)" stroke="rgb(219,188,139)" stroke-width="0.6" opacity="1" d="M 155.5 346 L 159 348.5 L 158 352.5 L 163 365 L 156.5 363 L 155 363.5 L 155.5 361 L 159.5 363 L 162 362.5 L 155 348.5 L 155.5 346 Z " /><path fill="rgb(219,188,139)" stroke="rgb(219,188,139)" stroke-width="0.6" opacity="1" d="M 208.5 347 L 207.5 349 L 201.5 352 L 201.5 351 L 208.5 347 Z " /><path fill="rgb(219,188,139)" stroke="rgb(219,188,139)" stroke-width="0.6" opacity="1" d="M 359 355 L 361 355 L 361 361.5 Q 364.3 360.7 363 366 Q 360 364.8 361 368.5 L 360 368.5 L 359 355 Z " /><path fill="rgb(219,188,139)" stroke="rgb(219,188,139)" stroke-width="0.6" opacity="1" d="M 355.5 356 L 356 359.5 L 355 368.5 L 356 375.5 L 341.5 383 L 346.5 377 L 349.5 378 L 355 376 L 353 359.5 L 355.5 356 Z " /><path fill="rgb(219,188,139)" stroke="rgb(219,188,139)" stroke-width="0.6" opacity="1" d="M 302.5 364 L 307 367.5 L 306.5 377 Q 307.2 368.8 303.5 365 L 302 365.5 L 302 378.5 L 301 379.5 L 300.5 405 L 300 399 Q 296 400.2 298 394 Q 301.7 395.4 300 389.5 L 299 380.5 L 300 379.5 L 300 366.5 L 302.5 364 Z " /><path fill="rgb(219,188,139)" stroke="rgb(219,188,139)" stroke-width="0.6" opacity="1" d="M 154.5 367 L 155 372 Q 158 370.8 157 374.5 L 156 378 L 154 379.5 L 153 379.5 L 154.5 367 Z " /><path fill="rgb(219,188,139)" stroke="rgb(219,188,139)" stroke-width="0.6" opacity="1" d="M 229.5 368 L 229 369.5 L 230 378 L 228 378 L 228 374 L 226 372.5 L 227 369 L 229.5 368 Z " /><path fill="rgb(219,188,139)" stroke="rgb(219,188,139)" stroke-width="0.6" opacity="1" d="M 176.5 369 L 180 370.5 L 181.5 372 L 184 373 L 185.5 375 L 193 380.5 L 192.5 382 Q 181.3 376.9 176.5 369 Z " /><path fill="rgb(219,188,139)" stroke="rgb(219,188,139)" stroke-width="0.6" opacity="1" d="M 430.5 372 L 440 385.5 L 444 396.5 L 443 396.5 Q 442.3 388.7 437.5 385 L 434 382.5 L 430 374.5 L 430.5 372 Z " /><path fill="rgb(219,188,139)" stroke="rgb(219,188,139)" stroke-width="0.6" opacity="1" d="M 233.5 373 L 237 374 L 236 378.5 L 237 384.5 L 236 384.5 L 233.5 373 Z " /><path fill="rgb(219,188,139)" stroke="rgb(219,188,139)" stroke-width="0.6" opacity="1" d="M 175.5 374 L 190 386.5 L 187.5 387 L 177 378.5 L 175.5 374 Z " /><path fill="rgb(219,188,139)" stroke="rgb(219,188,139)" stroke-width="0.6" opacity="1" d="M 365.5 381 L 368 382 L 368 385 Q 371.8 383.5 371 386.5 L 372 389 L 375 390.5 L 376.5 393 L 380 394.5 L 381 396.5 L 377.5 394 L 366 383.5 L 365.5 381 Z " /><path fill="rgb(219,188,139)" stroke="rgb(219,188,139)" stroke-width="0.6" opacity="1" d="M 230.5 382 L 232 393.5 L 229.5 395 L 216 391.5 L 219.5 391 L 223.5 392 L 228 386.5 L 228 384 Q 230.8 385 230.5 382 Z " /><path fill="rgb(219,188,139)" stroke="rgb(219,188,139)" stroke-width="0.6" opacity="1" d="M 152.5 383 L 154 390 L 152 391.5 L 151 391.5 L 152.5 383 Z " /><path fill="rgb(219,188,139)" stroke="rgb(219,188,139)" stroke-width="0.6" opacity="1" d="M 336.5 383 L 339 383.5 L 320.5 391 L 320 389.5 L 321 387 L 324.5 388 L 327 387 L 328.5 385 L 330.5 386 L 336.5 383 Z " /><path fill="rgb(219,188,139)" stroke="rgb(219,188,139)" stroke-width="0.6" opacity="1" d="M 206.5 386 L 209.5 388 L 211.5 387 L 214 390.5 L 212.5 391 L 204 387.5 L 206.5 386 Z " /><path fill="rgb(219,188,139)" stroke="rgb(219,188,139)" stroke-width="0.6" opacity="1" d="M 237.5 387 Q 243.1 404.4 241 429.5 L 240.5 431 L 242.5 430 L 244.5 430 L 248 429 L 250 432.5 L 248.5 433 L 240.5 432 L 239 430.5 L 240 429.5 L 240 409.5 L 237.5 387 Z " /><path fill="rgb(219,188,139)" stroke="rgb(219,188,139)" stroke-width="0.6" opacity="1" d="M 193.5 388 L 207 395.5 L 204.5 410 L 204 404.5 L 205 399.5 L 204 394 Q 197.9 395.7 196 392.5 L 195.5 390 L 193.5 388 Z " /><path fill="rgb(219,188,139)" stroke="rgb(219,188,139)" stroke-width="0.6" opacity="1" d="M 307.5 391 L 312.5 392 L 316.5 391 L 316.5 392 L 308.5 394 L 307.5 391 Z " /><path fill="rgb(219,188,139)" stroke="rgb(219,188,139)" stroke-width="0.6" opacity="1" d="M 150.5 393 L 152 400 Q 149 398.8 150 402.5 L 147.5 409 L 147 406.5 L 150.5 393 Z " /><path fill="rgb(219,188,139)" stroke="rgb(219,188,139)" stroke-width="0.6" opacity="1" d="M 382.5 397 L 390 401.5 L 397 411.5 L 397 415.5 L 396 415.5 Q 393.9 405.6 386.5 401 L 382.5 397 Z " /><path fill="rgb(219,188,139)" stroke="rgb(219,188,139)" stroke-width="0.6" opacity="1" d="M 443.5 398 Q 446.3 397.4 445 403.5 L 446 407.5 L 445 407.5 L 443.5 398 Z " /><path fill="rgb(219,188,139)" stroke="rgb(219,188,139)" stroke-width="0.6" opacity="1" d="M 146.5 410 L 147 414.5 L 145 417.5 L 147 422.5 L 145 423 L 143 418.5 L 146.5 410 Z " /><path fill="rgb(219,188,139)" stroke="rgb(219,188,139)" stroke-width="0.6" opacity="1" d="M 446.5 411 L 448 434.5 L 446 448.5 L 440.5 457 L 440 454.5 L 443 447 L 445 445.5 L 445 443.5 L 444 441.5 L 446 441 Q 447.2 426.6 444 415.5 L 446.5 411 Z " /><path fill="rgb(219,188,139)" stroke="rgb(219,188,139)" stroke-width="0.6" opacity="1" d="M 203.5 412 L 203 413.5 L 201 426 Q 198 427.3 199 423.5 L 201 417.5 L 200 415.5 L 203.5 412 Z " /><path fill="rgb(219,188,139)" stroke="rgb(219,188,139)" stroke-width="0.6" opacity="1" d="M 299.5 412 L 300 415.5 L 298.5 427 L 298 413.5 L 299.5 412 Z " /><path fill="rgb(219,188,139)" stroke="rgb(219,188,139)" stroke-width="0.6" opacity="1" d="M 134.5 424 L 137 424.5 L 132.5 428 L 129.5 427 L 121 433 L 119 438.5 L 120.5 444 L 122 439 L 129 437 L 130 442 L 127 443.5 L 128 447 L 126 447.5 L 126 455.5 L 127 460 Q 130.8 458.5 130 461.5 L 130.5 463 L 126 459.5 L 125 445.5 L 128 438 L 123 441.5 L 119.5 453 L 118.5 448 L 117.5 453 L 116 443.5 Q 117.5 434.1 123.5 429 L 134.5 424 Z " /><path fill="rgb(219,188,139)" stroke="rgb(219,188,139)" stroke-width="0.6" opacity="1" d="M 199.5 428 L 199 429.5 L 197 440 Q 194 441.3 195 437.5 L 199.5 428 Z " /><path fill="rgb(219,188,139)" stroke="rgb(219,188,139)" stroke-width="0.6" opacity="1" d="M 397.5 428 L 399 428.5 L 398 431 Q 392 430.1 389 433.5 L 389.5 435 L 387 435.5 L 387.5 437 L 385 438.5 L 386 440.5 L 383.5 446 L 383 441.5 L 389.5 432 L 397.5 428 Z " /><path fill="rgb(219,188,139)" stroke="rgb(219,188,139)" stroke-width="0.6" opacity="1" d="M 297.5 433 L 298 437.5 L 296.5 448 L 294 444.5 L 296 441.5 L 296 439.5 Q 294.8 434.3 297.5 433 Z " /><path fill="rgb(219,188,139)" stroke="rgb(219,188,139)" stroke-width="0.6" opacity="1" d="M 250.5 434 L 251 436 Q 248 435 249 438 L 244.5 438 L 241 435.5 L 250.5 434 Z " /><path fill="rgb(219,188,139)" stroke="rgb(219,188,139)" stroke-width="0.6" opacity="1" d="M 236.5 436 L 239 436.5 L 228 441 L 223 447.5 L 223 451 L 219.5 453 L 219 451.5 L 227.5 440 L 236.5 436 Z " /><path fill="rgb(219,188,139)" stroke="rgb(219,188,139)" stroke-width="0.6" opacity="1" d="M 395.5 440 Q 398.8 438.9 398 441.5 L 396.5 441 L 394 442.5 L 392.5 447 L 392 443.5 L 395.5 440 Z " /><path fill="rgb(219,188,139)" stroke="rgb(219,188,139)" stroke-width="0.6" opacity="1" d="M 147.5 441 L 151 442.5 L 149 445.5 L 150 448 L 147.5 449 L 147 447.5 L 149 442 L 147.5 441 Z " /><path fill="rgb(219,188,139)" stroke="rgb(219,188,139)" stroke-width="0.6" opacity="1" d="M 396.5 444 L 397.5 447 Q 400.8 446.6 399 454.5 L 396 456.5 L 396.5 444 Z " /><path fill="rgb(219,188,139)" stroke="rgb(219,188,139)" stroke-width="0.6" opacity="1" d="M 416.5 444 L 417 446 L 419 446.5 L 419 454.5 L 418 457.5 L 419.5 460 L 423 459 Q 421.9 462.3 426 461 L 426.5 459 L 430 461.5 L 421.5 463 L 418 460.5 Q 414.1 454.6 416.5 444 Z " /><path fill="rgb(219,188,139)" stroke="rgb(219,188,139)" stroke-width="0.6" opacity="1" d="M 391.5 448 L 393 460 Q 385.9 459.6 383 453.5 L 383.5 452 L 388.5 455 L 389 450 Q 391.8 451 391.5 448 Z " /><path fill="rgb(219,188,139)" stroke="rgb(219,188,139)" stroke-width="0.6" opacity="1" d="M 193.5 449 L 194 450.5 L 188.5 458 L 183.5 461 L 186 457.5 L 187.5 456 L 191.5 450 L 193.5 449 Z " /><path fill="rgb(219,188,139)" stroke="rgb(219,188,139)" stroke-width="0.6" opacity="1" d="M 232.5 449 L 235 450 L 231.5 461 L 231 457.5 L 233 450.5 L 229 453.5 Q 225.3 459.3 227 470.5 L 225.5 472 Q 217.7 468.3 218 456.5 L 219 456.5 L 221 467 L 226 465.5 L 225 460.5 L 230.5 450 L 232.5 449 Z " /><path fill="rgb(219,188,139)" stroke="rgb(219,188,139)" stroke-width="0.6" opacity="1" d="M 411.5 449 Q 411.1 458.2 414 463 Q 409.2 464.9 410 461.5 L 410 459.5 L 411 455 Q 407.3 456.2 409 451 Q 411.8 452 411.5 449 Z " /><path fill="rgb(219,188,139)" stroke="rgb(219,188,139)" stroke-width="0.6" opacity="1" d="M 255.5 452 L 258 455.5 L 257 457.5 L 257.5 459 L 255.5 460 L 255 458.5 L 257 454.5 Q 255 451 253 455.5 Q 249.3 461.3 251 472.5 L 253 476.5 Q 251.8 479.3 246.5 478 L 246.5 477 Q 250.3 478.3 249 474.5 L 250 472.5 L 249 469.5 L 250 466.5 L 248 461.5 L 251 460 L 253.5 453 L 255.5 452 Z " /><path fill="rgb(219,188,139)" stroke="rgb(219,188,139)" stroke-width="0.6" opacity="1" d="M 295.5 453 L 296 455.5 Q 294.6 466.1 287.5 471 L 280.5 474 L 280.5 473 L 284 471.5 L 286.5 468 L 292 465 L 293 459.5 L 292 456 L 295 454.5 L 295.5 453 Z " /><path fill="rgb(219,188,139)" stroke="rgb(219,188,139)" stroke-width="0.6" opacity="1" d="M 141.5 454 L 143 462.5 L 142.5 464 L 144 464.5 L 137.5 465 L 133 463.5 L 138 461 L 138.5 463 L 139 461 L 141 461 L 141.5 454 Z " /><path fill="rgb(219,188,139)" stroke="rgb(219,188,139)" stroke-width="0.6" opacity="1" d="M 433.5 457 L 436.5 458 L 438.5 457 L 437.5 459 L 432.5 461 L 433.5 457 Z " /><path fill="rgb(219,188,139)" stroke="rgb(219,188,139)" stroke-width="0.6" opacity="1" d="M 178.5 460 L 182 461.5 L 169.5 465 L 171 462.5 Q 170.1 459.5 174.5 461 L 176.5 462 L 178.5 460 Z " /><path fill="rgb(219,188,139)" stroke="rgb(219,188,139)" stroke-width="0.6" opacity="1" d="M 231.5 466 L 233.5 469 Q 236.1 468.2 235 471.5 L 234 473.5 L 241 476.5 L 238.5 477 L 233 473.5 L 231.5 466 Z " /><path fill="rgb(219,188,139)" stroke="rgb(219,188,139)" stroke-width="0.6" opacity="1" d="M 255.5 469 L 261 473.5 L 260 475.5 L 267 477.5 L 261.5 478 L 257 475.5 L 255.5 469 Z " /><path fill="rgb(29,31,33)" stroke="rgb(29,31,33)" stroke-width="0.6" opacity="1" d="M 221.5 49 L 237 49.5 L 221.5 50 L 221.5 49 Z " /><path fill="rgb(29,31,33)" stroke="rgb(29,31,33)" stroke-width="0.6" opacity="1" d="M 370.5 86 L 376.5 93 L 370.5 86 Z " /><path fill="rgb(29,31,33)" stroke="rgb(29,31,33)" stroke-width="0.6" opacity="1" d="M 148.5 143 L 149.5 145 L 151 144.5 L 148 146.5 L 147.5 145 L 145 146.5 L 148.5 143 Z " /><path fill="rgb(29,31,33)" stroke="rgb(29,31,33)" stroke-width="0.6" opacity="1" d="M 315.5 155 L 316 165.5 L 315 165.5 L 315.5 155 Z " /><path fill="rgb(29,31,33)" stroke="rgb(29,31,33)" stroke-width="0.6" opacity="1" d="M 315.5 168 L 316 178.5 L 315 178.5 L 315.5 168 Z " /><path fill="rgb(29,31,33)" stroke="rgb(29,31,33)" stroke-width="0.6" opacity="1" d="M 186.5 181 L 188 183 L 176 185 Q 174.8 182 178.5 183 L 186.5 181 Z " /><path fill="rgb(29,31,33)" stroke="rgb(29,31,33)" stroke-width="0.6" opacity="1" d="M 145.5 214 Q 150.3 212.3 149 216.5 L 148 219 L 141 217.5 L 144.5 217 L 146.5 218 L 148 215 L 145.5 214 Z " /><path fill="rgb(29,31,33)" stroke="rgb(29,31,33)" stroke-width="0.6" opacity="1" d="M 239.5 238 L 239 239.5 L 240 241.5 L 234 246.5 L 237 242.5 L 235 242.5 L 239.5 238 Z " /><path fill="rgb(29,31,33)" stroke="rgb(29,31,33)" stroke-width="0.6" opacity="1" d="M 311.5 248 L 304.5 256 L 311.5 248 Z " /><path fill="rgb(29,31,33)" stroke="rgb(29,31,33)" stroke-width="0.6" opacity="1" d="M 314.5 252 L 308.5 259 L 314.5 252 Z " /><path fill="rgb(29,31,33)" stroke="rgb(29,31,33)" stroke-width="0.6" opacity="1" d="M 415.5 265 L 408.5 273 L 415.5 265 Z " /><path fill="rgb(29,31,33)" stroke="rgb(29,31,33)" stroke-width="0.6" opacity="1" d="M 287.5 285 L 282.5 291 L 287.5 285 Z " /><path fill="rgb(29,31,33)" stroke="rgb(29,31,33)" stroke-width="0.6" opacity="1" d="M 205.5 314 L 218 315.5 L 207.5 316 L 205.5 314 Z " /><path fill="rgb(29,31,33)" stroke="rgb(29,31,33)" stroke-width="0.6" opacity="1" d="M 207 317 L 221 317.5 L 207.5 319 L 207 317 Z " /><path fill="rgb(29,31,33)" stroke="rgb(29,31,33)" stroke-width="0.6" opacity="1" d="M 151.5 318 L 152 332.5 L 151 332.5 L 151.5 318 Z " /><path fill="rgb(29,31,33)" stroke="rgb(29,31,33)" stroke-width="0.6" opacity="1" d="M 208.5 338 L 209 340.5 L 203 345.5 L 208.5 338 Z " /><path fill="rgb(29,31,33)" stroke="rgb(29,31,33)" stroke-width="0.6" opacity="1" d="M 434.5 344 L 435 366.5 L 434 366.5 L 434.5 344 Z " /><path fill="rgb(29,31,33)" stroke="rgb(29,31,33)" stroke-width="0.6" opacity="1" d="M 302 366 Q 305 364.8 304 368.5 L 302.5 379 L 302 366 Z " /><path fill="rgb(29,31,33)" stroke="rgb(29,31,33)" stroke-width="0.6" opacity="1" d="M 448.5 423 L 449 437.5 L 448 437.5 L 448.5 423 Z " /><path fill="rgb(57,58,58)" stroke="rgb(57,58,58)" stroke-width="0.6" opacity="1" d="M 365.5 88 L 372.5 96 L 365.5 88 Z " /><path fill="rgb(57,58,58)" stroke="rgb(57,58,58)" stroke-width="0.6" opacity="1" d="M 239 179 L 242 179.5 L 241 186.5 L 241.5 188 L 240 186.5 L 239 179 Z " /><path fill="rgb(57,58,58)" stroke="rgb(57,58,58)" stroke-width="0.6" opacity="1" d="M 107.5 180 L 102.5 186 L 107.5 180 Z " /><path fill="rgb(57,58,58)" stroke="rgb(57,58,58)" stroke-width="0.6" opacity="1" d="M 205.5 182 L 213 185.5 L 210.5 186 L 205 184.5 L 205.5 182 Z " /><path fill="rgb(57,58,58)" stroke="rgb(57,58,58)" stroke-width="0.6" opacity="1" d="M 276.5 198 L 275.5 202 L 273 203.5 Q 274.3 207.3 270.5 206 Q 267.5 204.5 270.5 203 L 276.5 198 Z " /><path fill="rgb(91,89,83)" stroke="rgb(91,89,83)" stroke-width="0.6" opacity="1" d="M 359.5 82 L 364.5 88 L 359.5 82 Z " /><path fill="rgb(91,89,83)" stroke="rgb(91,89,83)" stroke-width="0.6" opacity="1" d="M 390.5 203 L 383.5 211 L 390.5 203 Z " /><path fill="rgb(91,89,83)" stroke="rgb(91,89,83)" stroke-width="0.6" opacity="1" d="M 119.5 239 L 125.5 246 L 119.5 239 Z " /><path fill="rgb(91,89,83)" stroke="rgb(91,89,83)" stroke-width="0.6" opacity="1" d="M 429.5 345 L 430 364.5 L 429 364.5 L 429.5 345 Z " /><path fill="rgb(91,89,83)" stroke="rgb(91,89,83)" stroke-width="0.6" opacity="1" d="M 359.5 416 L 360 427.5 L 359 427.5 L 359.5 416 Z " /><path fill="rgb(128,105,66)" stroke="rgb(128,105,66)" stroke-width="0.6" opacity="1" d="M 434.5 199 L 436 200.5 L 436 215 L 434 214.5 L 434.5 199 Z " /><path fill="rgb(128,105,66)" stroke="rgb(128,105,66)" stroke-width="0.6" opacity="1" d="M 156.5 268 L 161.5 274 L 156.5 268 Z " /><path fill="rgb(128,105,66)" stroke="rgb(128,105,66)" stroke-width="0.6" opacity="1" d="M 287.5 284 L 281.5 291 L 287.5 284 Z " /><path fill="rgb(164,152,139)" stroke="rgb(164,152,139)" stroke-width="0.6" opacity="1" d="M 156.5 276 L 165.5 286 L 156.5 276 Z " /><path fill="rgb(164,152,139)" stroke="rgb(164,152,139)" stroke-width="0.6" opacity="1" d="M 368.5 386 L 373.5 392 L 368.5 386 Z " /><path fill="rgb(125,120,116)" stroke="rgb(125,120,116)" stroke-width="0.6" opacity="1" d="M 391.5 210 L 386.5 216 L 391.5 210 Z " /><path fill="rgb(125,120,116)" stroke="rgb(125,120,116)" stroke-width="0.6" opacity="1" d="M 306.5 382 L 307 393.5 L 306 393.5 L 306.5 382 Z " /><path fill="rgb(212,212,212)" stroke="rgb(212,212,212)" stroke-width="0.6" opacity="1" d="M 276.5 197 L 273.5 201 L 270.5 202 L 273.5 198 Q 275 200.5 276.5 197 Z " /><path fill="rgb(212,212,212)" stroke="rgb(212,212,212)" stroke-width="0.6" opacity="1" d="M 435.5 345 L 436 365.5 L 435 365.5 L 435.5 345 Z " /><path fill="rgb(180,180,180)" stroke="rgb(180,180,180)" stroke-width="0.6" opacity="1" d="M 360.5 75 L 379.5 95 L 360.5 75 Z " /><path fill="rgb(180,180,180)" stroke="rgb(180,180,180)" stroke-width="0.6" opacity="1" d="M 428.5 202 L 429 214.5 L 428 214.5 L 428.5 202 Z " /><path fill="rgb(180,180,180)" stroke="rgb(180,180,180)" stroke-width="0.6" opacity="1" d="M 406.5 469 L 417 469.5 L 406.5 470 L 406.5 469 Z " /></svg>