<svg width="627" height="627" preserveAspectRatio="xMidYMid meet" viewBox="0 0 512 512" version="1.1" xmlns="http://www.w3.org/2000/svg" ><path fill="rgb(255,255,255)" stroke="rgb(255,255,255)" stroke-width="0.6" opacity="1" d="M 0 0 L 512 0 L 512 512 L 0 512 L 0 0 Z M 153 22 L 144 26 Q 131 34 130 51 L 126 50 Q 116 50 111 54 L 102 67 Q 100 83 105 93 L 102 95 Q 90 105 84 120 L 79 139 L 79 171 L 70 188 Q 68 207 76 216 L 87 225 L 78 241 L 74 254 L 74 271 L 78 278 L 78 310 L 83 332 Q 91 353 104 369 Q 126 396 165 408 L 170 418 L 177 424 L 174 431 L 170 434 L 142 434 L 123 441 Q 118 443 118 449 L 119 455 L 124 457 L 125 459 L 126 468 L 133 471 Q 143 472 149 468 L 151 475 L 155 477 L 169 476 L 193 463 L 196 463 Q 198 464 197 470 Q 199 477 211 475 Q 214 477 212 484 L 221 490 L 234 488 L 254 474 L 266 469 L 278 469 L 283 471 L 295 472 L 304 471 L 309 465 L 307 457 L 297 449 L 279 446 L 275 442 L 276 431 Q 289 427 297 418 L 314 416 L 339 407 L 367 389 Q 387 372 399 348 L 407 324 L 407 306 L 418 298 Q 427 289 431 275 Q 432 263 426 260 L 426 257 L 439 243 L 443 231 Q 444 220 440 215 Q 435 206 422 206 L 429 194 L 432 184 Q 433 174 429 169 L 420 161 L 402 161 L 399 161 L 402 156 L 403 148 L 402 139 L 399 133 Q 395 126 386 125 Q 376 124 370 127 L 357 135 Q 343 148 334 166 L 327 183 L 322 206 L 321 207 L 301 207 Q 297 203 289 205 L 273 193 L 263 178 Q 259 163 259 145 L 255 128 Q 249 108 236 95 L 215 78 L 219 70 Q 221 51 213 44 L 203 37 L 188 37 L 183 40 L 176 30 Q 170 20 153 22 Z " /><path fill="rgb(246,215,84)" stroke="rgb(246,215,84)" stroke-width="0.6" opacity="1" d="M 287.5 212 L 297.5 214 L 328.5 214 L 335.5 213 L 340 215.5 L 342 218.5 L 342 228.5 L 343.5 230 L 355.5 225 L 368.5 225 L 375 230.5 L 376 240.5 L 372 248.5 L 373.5 250 L 385.5 250 L 391 254.5 L 391 264.5 L 386 275.5 L 393 280.5 L 394 295.5 L 391 303.5 L 401 306.5 L 399 326.5 L 390 349.5 Q 380.1 368.6 364.5 382 Q 340.2 404.1 302 411 L 306 401 L 303.5 401 L 296 408.5 L 292.5 413 L 274.5 424 L 263.5 427 L 252.5 427 L 231.5 420 L 212 404.5 L 205.5 395 L 203 396.5 L 210 410 L 197.5 410 L 181.5 407 L 153.5 397 Q 125.6 383.9 107 361.5 Q 95.7 346.8 89 327.5 L 85 307.5 L 85 279 L 92.5 276 L 97 286.5 L 105.5 296 L 116.5 298 L 125 292.5 L 127 287 L 129 288.5 L 138.5 298 Q 142.5 301.5 151.5 300 L 162 292.5 L 167.5 283 Q 172.5 289 183.5 289 Q 192.9 287.4 197 280.5 L 202 270.5 L 202 267 L 211.5 271 L 221.5 271 L 232 262.5 Q 236.6 256.9 237 248 L 247.5 250 Q 255.8 247.8 260 241.5 Q 263 236.5 262 227.5 L 263.5 226 L 273.5 226 L 284 218.5 L 287.5 212 Z M 282 240 Q 259 244 246 257 Q 228 271 222 297 L 223 325 Q 228 337 236 347 Q 246 357 261 364 L 279 370 L 298 372 Q 339 373 360 353 Q 369 345 374 333 L 373 328 L 373 324 Q 380 317 382 307 L 380 298 Q 376 292 367 292 L 370 284 L 368 276 L 357 266 L 343 262 L 332 262 L 330 255 Q 323 245 310 242 Q 303 243 301 240 L 282 240 Z " /><path fill="rgb(246,215,84)" stroke="rgb(246,215,84)" stroke-width="0.6" opacity="1" d="M 155.5 220 Q 165.3 228.2 164 247.5 L 156.5 259 L 147.5 261 L 139 256.5 L 136 249.5 L 136 237.5 L 134.5 236 Q 128.9 240.4 131 252.5 L 132 256.5 Q 130 260 123.5 259 L 118 254.5 L 117 242.5 Q 118.4 233.9 124.5 230 L 141.5 231 L 155 221.5 L 155.5 220 Z " /><path fill="rgb(246,215,84)" stroke="rgb(246,215,84)" stroke-width="0.6" opacity="1" d="M 330.5 268 L 331.5 269 L 348.5 269 L 360 274.5 Q 364.9 277.6 363 287.5 L 355.5 296 L 350 299.5 L 353.5 301 Q 359 296.5 370.5 298 L 376 302.5 L 376 309.5 L 366.5 323 L 347 334.5 Q 346.5 337.5 353.5 336 L 368 330 L 366 338.5 L 356.5 349 Q 344.2 359.2 326.5 364 Q 314.8 367.3 298.5 366 L 298.5 365 L 306 358.5 L 307 350.5 L 303 342 Q 315.3 340.5 322 332.5 Q 325.7 328.7 326 321.5 L 320.5 311 Q 317.9 311.8 319 308.5 L 329 300.5 Q 332 296.5 331 288.5 L 322 276.5 L 329 270.5 L 330.5 268 Z " /><path fill="rgb(246,215,84)" stroke="rgb(246,215,84)" stroke-width="0.6" opacity="1" d="M 177.5 412 L 192.5 415 Q 206.1 413.6 214 416 Q 215.5 419.8 212.5 419 Q 205.9 423.4 194.5 423 Q 181.2 421.4 177.5 412 Z " /><path fill="rgb(205,54,48)" stroke="rgb(205,54,48)" stroke-width="0.6" opacity="1" d="M 154.5 29 Q 167.2 28.3 172 35.5 L 176 44.5 L 176 49.5 L 178.5 52 Q 183.8 42.8 198.5 43 L 210 51.5 Q 213.9 57.6 212 69.5 L 208.5 76 L 195.5 72 L 169.5 72 Q 147.7 77.2 136 92.5 L 131 102 Q 118.4 102.5 114 93.5 Q 107.8 86.7 108 73.5 Q 109.1 64.1 115.5 60 L 125.5 57 L 138 62 Q 135.6 58.1 137 48.5 Q 139.1 38.1 146.5 33 L 154.5 29 Z " /><path fill="rgb(205,54,48)" stroke="rgb(205,54,48)" stroke-width="0.6" opacity="1" d="M 176.5 77 L 193.5 78 L 204.5 81 Q 223.3 89.3 235 104.5 Q 244 115.5 248 131.5 L 252 146.5 L 252 156.5 L 256 179.5 Q 260.5 191.5 269.5 199 L 279 206.5 L 280 213.5 L 274.5 220 L 263.5 221 L 256.5 218 L 255 220.5 Q 258 225.5 257 234.5 L 252.5 242 L 241.5 244 Q 238 239.3 231 240 L 230 255.5 L 222.5 265 L 212.5 266 L 200.5 257 L 196 271.5 L 187.5 282 L 178.5 283 L 168 275.5 Q 168.8 272.9 165.5 274 L 160 286.5 L 155.5 292 Q 152.6 296.1 144.5 295 L 134 288.5 L 128.5 277 L 118.5 291 L 111.5 293 L 103 287.5 L 99 279.5 Q 100.3 269.3 96.5 264 L 88.5 273 Q 82.3 274.3 81 270.5 L 80 257.5 Q 84.4 239.4 93.5 226 L 96 224.5 L 84 214.5 L 78 204.5 L 77 188.5 Q 78.6 179.1 85 174.5 L 86 161.5 L 85 148.5 Q 88.1 143.1 87 133.5 L 91 121.5 Q 96.6 107.6 107.5 99 L 112.5 98 L 122.5 107 L 131.5 109 L 145.5 90 L 162.5 80 L 176.5 77 Z M 183 111 L 179 117 L 181 118 L 192 118 L 200 124 L 202 123 L 201 118 Q 197 109 183 111 Z M 105 118 L 103 119 Q 98 122 98 128 L 108 124 L 114 124 L 115 121 Q 113 116 105 118 Z M 182 139 L 172 144 L 165 154 L 163 166 L 164 174 L 167 180 Q 168 184 173 183 L 167 170 Q 167 158 171 152 L 181 144 L 192 145 L 197 153 L 192 150 Q 183 149 180 153 L 174 162 Q 172 173 176 179 L 186 186 L 196 184 L 204 173 L 205 161 L 210 158 L 211 155 L 209 154 L 204 153 L 207 151 L 208 144 L 202 148 L 198 144 Q 193 138 182 139 Z M 106 140 L 97 147 L 90 145 Q 89 150 93 152 Q 94 155 90 153 L 87 154 L 88 156 L 91 157 L 92 159 L 92 169 L 96 177 Q 99 183 101 179 L 96 170 Q 94 156 99 151 L 106 145 L 114 146 L 116 150 L 108 151 Q 101 155 100 166 L 103 177 L 112 184 Q 103 190 101 205 L 104 207 L 118 207 L 117 213 Q 115 221 119 224 L 119 227 L 111 242 Q 110 251 113 257 L 125 265 Q 132 265 136 261 L 144 266 L 158 265 Q 166 260 169 250 L 168 232 L 160 217 L 160 213 L 166 198 L 166 193 L 157 186 L 155 184 Q 149 173 136 170 L 124 173 L 125 170 L 125 158 L 121 147 Q 117 139 106 140 Z " /><path fill="rgb(205,54,48)" stroke="rgb(205,54,48)" stroke-width="0.6" opacity="1" d="M 134.5 175 Q 141.1 175.4 144 179.5 L 153.5 190 L 161 195.5 Q 151.5 206.5 128.5 204 Q 120.4 200 107 202 Q 109 189.4 118.5 183 Q 124.4 176.9 134.5 175 Z " /><path fill="rgb(205,54,48)" stroke="rgb(205,54,48)" stroke-width="0.6" opacity="1" d="M 139.5 208 L 144 210.5 Q 140.1 216.6 130.5 217 L 129 211.5 L 139.5 208 Z " /><path fill="rgb(1,1,1)" stroke="rgb(1,1,1)" stroke-width="0.6" opacity="1" d="M 151.5 23 Q 172 21 178 33.5 L 181.5 41 Q 187.2 35.2 200.5 37 Q 209.8 40.2 215 47.5 L 219 57.5 L 219 67.5 L 214 78.5 Q 228.7 86.8 239 99.5 Q 249.6 112.4 255 130.5 L 258 143.5 L 259 162.5 L 263 180.5 L 274.5 196 L 288.5 206 L 321.5 207 L 323 205.5 L 327 185.5 L 336 163.5 Q 345.3 145.3 360.5 133 L 375.5 126 L 386.5 126 L 397 131.5 L 401 138.5 L 402 147.5 L 401 155.5 L 398 161.5 L 400.5 163 L 403.5 161 L 417.5 161 L 429 170.5 Q 432.3 175.2 431 184.5 L 425 199.5 L 419 208 L 426.5 207 Q 434.1 208.4 438 213.5 Q 443.7 218.8 442 231.5 L 437 243.5 L 424 258.5 Q 431.3 262.7 430 275.5 Q 425.5 291.5 413.5 300 L 407 304.5 L 406 324.5 L 398 347.5 Q 386.1 370.6 367.5 387 L 338.5 406 L 314.5 415 L 296.5 417 Q 288.5 426 275 429.5 L 274 440.5 L 278.5 447 L 296.5 450 L 307 458.5 L 308 464.5 L 303.5 470 L 285.5 471 L 280.5 469 L 262.5 469 L 253.5 473 L 231.5 488 L 219.5 489 L 212 482.5 L 213 475.5 Q 211 472 203.5 474 L 197 468.5 L 195.5 463 L 190.5 463 L 166.5 476 L 154.5 476 L 149.5 467 Q 143.6 471.6 131.5 470 L 126 465.5 L 127 458.5 L 119 453.5 Q 117.8 444.8 122.5 442 Q 131.5 436 144.5 434 L 171.5 434 L 175 430.5 L 178 423.5 Q 169.5 417.5 165.5 407 Q 128.4 396.6 107 370.5 Q 92.4 354.6 84 332.5 L 78 305.5 L 78 275.5 Q 71.2 270.3 74 255.5 Q 77.8 238.8 87 227.5 L 87 223.5 L 75 212.5 Q 69.9 204.6 70 191.5 L 72 182.5 L 79 172.5 L 79 143.5 L 83 124.5 L 93 105.5 L 106 92.5 L 106 90.5 L 102 81.5 L 102 69.5 Q 104.6 58.1 113.5 53 L 126.5 51 L 129.5 53 L 136 34.5 L 142.5 28 L 151.5 23 Z M 154 29 L 147 32 Q 134 39 137 61 L 128 57 L 116 59 L 109 67 L 108 71 Q 106 86 113 94 Q 118 102 130 103 L 139 90 Q 151 76 173 72 L 193 72 L 209 77 Q 213 74 213 68 Q 214 56 210 51 L 200 43 Q 184 42 179 51 L 176 49 Q 176 38 171 34 Q 166 27 154 29 Z M 174 77 L 164 79 L 148 88 Q 137 96 132 108 L 124 107 L 112 97 L 107 99 Q 96 108 90 123 L 86 136 L 85 174 L 77 186 L 77 204 L 84 216 L 96 225 L 94 226 Q 84 240 79 259 Q 78 268 81 272 L 85 274 L 90 273 L 95 267 L 97 265 L 98 267 L 98 278 L 103 289 L 110 293 L 119 292 L 127 280 L 129 278 L 134 290 L 147 296 L 153 295 L 160 288 L 166 274 L 180 284 L 189 282 L 198 269 L 199 260 L 201 258 L 202 260 Q 206 266 216 267 L 224 265 L 230 257 L 231 243 L 234 240 L 241 244 L 252 243 L 257 237 L 257 224 L 256 223 L 258 219 L 266 222 L 276 220 L 280 215 L 279 206 L 271 199 Q 261 192 257 181 L 253 162 L 253 149 L 247 126 L 235 104 Q 223 88 204 80 L 192 77 L 174 77 Z M 379 131 Q 365 133 359 142 Q 346 153 339 170 L 330 195 L 328 207 L 341 210 L 345 215 L 346 221 L 349 223 L 357 220 Q 368 218 374 222 L 381 233 L 380 245 L 391 247 Q 395 250 396 257 Q 396 267 392 273 Q 398 278 400 288 Q 400 296 396 301 L 397 303 L 409 298 Q 421 290 425 274 L 424 266 L 420 262 L 414 263 L 410 263 L 423 253 Q 432 246 436 233 Q 438 222 434 217 L 430 213 L 417 213 L 399 223 L 396 223 L 406 215 Q 420 203 426 182 L 424 173 L 416 166 L 402 167 L 396 170 L 383 182 L 369 195 Q 375 181 386 173 L 397 152 Q 399 141 394 137 Q 390 130 379 131 Z M 288 211 L 283 219 Q 278 227 263 225 L 261 227 Q 262 236 259 242 L 249 249 Q 240 250 236 247 L 236 252 L 232 262 Q 228 269 219 271 Q 208 271 204 265 L 198 278 Q 193 285 185 288 Q 173 288 168 282 L 161 293 L 149 300 L 139 297 L 130 289 L 130 287 L 128 285 L 126 290 L 117 297 L 106 295 L 98 287 L 94 274 L 84 280 L 84 308 L 88 328 Q 96 352 112 369 Q 129 387 154 398 L 182 408 L 208 411 L 212 410 L 205 399 L 206 396 L 211 405 L 232 421 L 250 427 Q 265 429 275 425 L 293 414 L 299 407 L 304 402 L 305 404 L 303 408 Q 298 410 302 412 Q 340 405 365 383 Q 380 370 390 352 L 400 326 L 401 307 L 392 304 L 395 296 L 394 281 L 387 276 L 392 264 L 391 254 Q 387 246 374 249 L 377 241 Q 378 232 374 228 L 369 224 L 357 224 L 345 229 L 343 228 Q 344 219 341 216 L 335 212 L 328 213 L 298 213 L 288 211 Z M 175 410 L 175 412 L 185 421 L 192 423 Q 207 425 215 419 L 216 416 Q 207 412 191 414 L 175 410 Z M 221 421 Q 215 427 206 428 Q 200 432 200 441 L 202 442 L 214 444 L 220 449 L 243 445 L 245 443 L 246 434 L 221 421 Z M 185 425 L 178 436 L 174 439 L 141 440 L 130 444 L 126 449 Q 122 450 126 452 L 135 452 L 141 448 L 152 445 Q 159 444 158 447 Q 144 448 135 455 L 131 460 L 133 465 L 143 465 L 156 461 L 166 453 Q 169 452 168 455 L 156 466 Q 155 471 159 472 Q 176 469 187 459 Q 193 456 205 457 L 212 453 L 213 451 L 209 447 L 199 446 L 195 443 L 198 430 L 185 425 Z M 269 430 L 266 432 L 253 432 L 251 434 L 250 445 L 242 451 L 222 453 L 208 459 L 203 466 Q 200 467 205 469 L 220 468 L 234 460 Q 237 459 236 462 L 226 467 L 217 478 L 220 483 L 233 482 L 253 468 L 266 463 Q 279 462 288 466 L 302 466 L 303 462 L 295 454 L 276 451 L 272 448 L 269 443 L 270 434 Q 271 429 269 430 Z " /><path fill="rgb(1,1,1)" stroke="rgb(1,1,1)" stroke-width="0.6" opacity="1" d="M 183.5 111 L 191.5 111 L 200 117.5 L 202 122.5 L 199.5 123 L 192.5 118 L 181.5 117 L 180 115.5 L 183.5 111 Z " /><path fill="rgb(1,1,1)" stroke="rgb(1,1,1)" stroke-width="0.6" opacity="1" d="M 106.5 118 Q 112.8 116.8 114 120.5 L 112.5 124 L 106.5 124 L 99 127 Q 98 120.6 103.5 119 L 106.5 118 Z " /><path fill="rgb(1,1,1)" stroke="rgb(1,1,1)" stroke-width="0.6" opacity="1" d="M 182.5 139 Q 193.5 138.5 198 144.5 L 200.5 148 L 207 146 L 203 153.5 L 208.5 155 L 211 155.5 L 205 159.5 Q 205.4 177.4 194.5 184 L 185.5 185 L 176 177.5 Q 173 172.5 174 163.5 Q 175.8 155.8 181.5 152 L 190.5 150 L 196.5 154 L 198 151.5 L 190.5 144 L 182.5 143 Q 174.9 144.8 171 150.5 Q 165.2 157.2 167 171.5 L 172 181.5 L 170.5 182 Q 162 176 164 159.5 Q 165.8 149.3 172.5 144 L 182.5 139 Z M 190 156 L 188 157 L 185 161 L 189 166 L 194 163 L 193 159 L 190 156 Z " /><path fill="rgb(1,1,1)" stroke="rgb(1,1,1)" stroke-width="0.6" opacity="1" d="M 106.5 140 Q 117.3 140.3 121 147.5 L 125 158.5 L 125 168.5 L 123 172.5 L 125.5 174 Q 129.3 169.3 139.5 171 L 151 179.5 L 159.5 189 L 165 192.5 L 164 203.5 L 159 215.5 L 168 232.5 L 169 247.5 Q 166.6 257.6 159.5 263 Q 155 267.1 145.5 266 L 135.5 261 Q 132 265.5 122.5 264 L 114 256.5 L 111 249.5 L 111 244.5 L 120 223.5 Q 116.2 221.2 117 214.5 L 119 208.5 L 117.5 207 L 104.5 207 L 102 204.5 L 103 196.5 L 112 182.5 L 103 175.5 Q 99.7 170.8 101 161.5 Q 102.8 154.3 108.5 151 Q 115.2 152.8 117 149.5 L 113.5 145 L 104.5 145 L 97 152.5 Q 93.8 158.3 95 168.5 L 99 177.5 L 95 174.5 Q 90.9 169.1 92 158.5 L 88 154.5 L 90.5 154 L 94 152.5 L 90 146 L 96.5 148 L 106.5 140 Z M 113 156 L 110 161 L 111 164 L 115 165 Q 119 164 118 158 L 113 156 Z M 132 175 L 118 183 Q 109 189 106 201 L 108 202 Q 122 201 132 205 Q 153 206 162 196 L 155 190 L 144 179 L 142 176 L 132 175 Z M 157 203 L 155 204 L 152 208 L 138 220 L 129 220 L 125 216 Q 127 208 123 209 L 122 212 L 123 223 L 130 227 Q 141 228 147 223 Q 155 216 159 205 L 157 203 Z M 139 208 L 131 209 L 128 213 L 131 217 L 136 217 L 144 212 Q 146 205 139 208 Z M 156 219 Q 150 227 140 231 Q 130 232 125 229 Q 118 233 116 243 Q 114 252 118 257 L 125 260 L 133 258 L 131 249 L 133 241 Q 132 237 135 238 Q 134 250 138 257 Q 141 261 149 262 L 157 260 L 164 250 Q 167 230 158 222 Q 159 218 156 219 Z " /><path fill="rgb(1,1,1)" stroke="rgb(1,1,1)" stroke-width="0.6" opacity="1" d="M 281.5 241 L 300.5 241 Q 302.8 244.2 309.5 243 Q 323.3 246.3 330 256.5 L 332.5 263 Q 357.1 261.9 367 275.5 Q 370 278.5 369 285.5 L 365 291.5 L 366.5 293 L 374.5 294 L 380 299.5 L 381 308.5 Q 378.7 318.2 372 323.5 L 372 326.5 L 373 333.5 Q 368.8 344.3 360.5 351 Q 337.7 374.2 288.5 371 Q 251.6 365.4 233 341.5 Q 220.5 328 222 300.5 Q 227.3 273.8 244.5 259 Q 258.1 245.1 281.5 241 Z M 289 245 L 278 246 L 268 249 L 247 262 Q 233 274 227 295 L 227 322 L 239 344 Q 254 360 280 365 Q 291 366 297 362 L 302 356 L 301 348 L 292 340 L 294 338 L 304 338 L 317 332 L 321 326 L 319 316 L 310 310 L 308 308 L 321 303 L 326 296 L 325 286 L 319 280 L 311 278 Q 314 273 321 273 L 327 265 L 326 258 L 312 247 Q 302 244 289 245 Z M 331 268 L 320 277 L 323 278 L 330 288 Q 332 297 328 301 L 317 308 L 325 321 Q 326 327 323 330 Q 317 340 302 341 Q 301 347 306 350 L 305 359 L 298 365 Q 294 364 295 367 Q 335 369 356 351 L 367 339 L 369 331 L 368 328 L 352 336 Q 347 337 348 334 L 367 324 Q 373 320 376 312 L 375 300 L 371 297 Q 361 296 357 299 L 353 299 L 359 295 L 364 287 Q 365 279 362 276 Q 353 265 331 268 Z " /><path fill="rgb(239,151,45)" stroke="rgb(239,151,45)" stroke-width="0.6" opacity="1" d="M 188.5 157 L 193 159.5 L 191.5 165 L 186 163.5 Q 185 158 188.5 157 Z " /><path fill="rgb(239,151,45)" stroke="rgb(239,151,45)" stroke-width="0.6" opacity="1" d="M 297.5 213 L 329 213.5 L 297.5 214 L 297.5 213 Z " /><path fill="rgb(239,151,45)" stroke="rgb(239,151,45)" stroke-width="0.6" opacity="1" d="M 281.5 240 L 301 240.5 L 281.5 241 L 281.5 240 Z " /><path fill="rgb(239,151,45)" stroke="rgb(239,151,45)" stroke-width="0.6" opacity="1" d="M 287.5 246 Q 302.1 244.4 311.5 248 L 325 257.5 L 326 265.5 L 320.5 272 L 310 276.5 L 312.5 280 L 316.5 280 L 323 284.5 Q 326.6 287.4 325 295.5 L 320.5 302 L 306 308 Q 304.3 312.5 309.5 311 L 318 316.5 Q 320.8 319.2 320 325.5 L 313.5 333 L 304.5 337 L 294.5 337 L 291 339.5 L 292.5 342 L 301 348.5 Q 302.6 358.6 296.5 361 Q 290.7 365.7 278.5 364 Q 251.3 358.3 237 339.5 L 228 321.5 L 227 299.5 Q 231.9 276.4 246.5 263 L 267.5 250 L 276.5 247 L 287.5 246 Z " /><path fill="rgb(239,151,45)" stroke="rgb(239,151,45)" stroke-width="0.6" opacity="1" d="M 331.5 261 L 343 262.5 L 332.5 263 L 331.5 261 Z " /><path fill="rgb(239,151,45)" stroke="rgb(239,151,45)" stroke-width="0.6" opacity="1" d="M 84.5 281 L 85 302.5 L 84 302.5 L 84.5 281 Z " /><path fill="rgb(239,151,45)" stroke="rgb(239,151,45)" stroke-width="0.6" opacity="1" d="M 298.5 366 L 310 366.5 L 298.5 367 L 298.5 366 Z " /><path fill="rgb(239,151,45)" stroke="rgb(239,151,45)" stroke-width="0.6" opacity="1" d="M 220.5 422 L 245 433.5 Q 245.8 440.8 242.5 444 L 219.5 448 L 213.5 443 L 204.5 442 L 201 439.5 L 201 436.5 L 206.5 428 Q 216.4 427.9 220.5 422 Z " /><path fill="rgb(239,151,45)" stroke="rgb(239,151,45)" stroke-width="0.6" opacity="1" d="M 267.5 431 L 270 432.5 L 269 433.5 L 269 446.5 L 275.5 452 L 294.5 455 L 302 461.5 L 299.5 466 Q 287.6 466.9 280.5 463 L 262.5 463 L 252.5 467 L 230.5 482 L 219 482 L 218 477.5 L 225.5 468 L 238 460.5 Q 238.9 457.1 233.5 459 L 219.5 467 L 204 468 Q 203.1 462.1 207.5 460 L 220.5 454 L 240.5 452 L 250 446.5 Q 253.1 442.1 252 433.5 L 253.5 432 L 266.5 432 L 267.5 431 Z " /><path fill="rgb(245,239,214)" stroke="rgb(245,239,214)" stroke-width="0.6" opacity="1" d="M 377.5 132 Q 389 130.5 393 136.5 Q 398.1 140.9 396 152.5 L 382.5 175 L 379 177.5 L 367 194.5 L 369.5 196 L 395.5 171 Q 402.1 166.1 413.5 166 L 423 172.5 Q 425.9 176.1 425 183.5 Q 419 202.5 405.5 214 L 395 222.5 Q 393.9 225.8 396.5 225 L 415.5 214 L 429.5 214 L 433 216.5 Q 437.2 221.8 435 233.5 Q 431.3 245.3 422.5 252 L 408 262.5 Q 406.9 265.8 409.5 265 L 419.5 263 L 423 265.5 L 424 274.5 Q 419.4 288.9 408.5 297 L 397 302 L 400 293.5 L 400 284.5 L 393 272.5 Q 397 267.5 397 258.5 Q 396.6 249.4 390.5 246 L 381 242.5 L 382 232.5 L 373.5 221 Q 367.7 217.3 356.5 219 L 348.5 222 L 346 214.5 L 340.5 209 L 329 205.5 Q 333.8 180.8 344 161.5 Q 352.4 146.9 365.5 137 L 377.5 132 Z " /><path fill="rgb(245,239,214)" stroke="rgb(245,239,214)" stroke-width="0.6" opacity="1" d="M 113.5 157 L 117 158.5 Q 117.8 163.3 114.5 164 L 111 162.5 Q 110.3 157.8 113.5 157 Z " /><path fill="rgb(245,239,214)" stroke="rgb(245,239,214)" stroke-width="0.6" opacity="1" d="M 156.5 204 L 158 206.5 L 146.5 222 Q 141.2 227.2 129.5 226 L 123 221.5 Q 121.8 215.4 124.5 216 L 127.5 220 L 137.5 221 L 153 207.5 L 154.5 205 L 156.5 204 Z " /><path fill="rgb(245,239,214)" stroke="rgb(245,239,214)" stroke-width="0.6" opacity="1" d="M 183 427 L 195.5 429 L 197 430.5 L 194 442.5 L 198.5 447 L 208.5 448 L 212 450.5 L 202.5 457 L 186.5 458 L 170.5 468 L 158.5 471 L 157 465.5 L 169 454.5 L 167.5 452 L 157 457.5 L 155.5 460 L 139.5 465 L 134.5 465 L 131 462.5 L 134.5 456 L 143.5 451 L 159 446.5 Q 156.8 442.8 148.5 445 Q 138.6 446.1 133.5 452 L 127.5 452 L 126 449.5 L 129.5 445 L 140.5 441 L 149.5 441 L 151.5 439 L 174.5 439 L 179 435.5 L 183 427 Z " /><path fill="rgb(40,39,38)" stroke="rgb(40,39,38)" stroke-width="0.6" opacity="1" d="M 101.5 96 L 96.5 102 L 101.5 96 Z " /><path fill="rgb(40,39,38)" stroke="rgb(40,39,38)" stroke-width="0.6" opacity="1" d="M 106.5 99 L 100.5 106 L 106.5 99 Z " /><path fill="rgb(40,39,38)" stroke="rgb(40,39,38)" stroke-width="0.6" opacity="1" d="M 101.5 142 L 96.5 148 L 90 145.5 L 91.5 145 L 96.5 147 L 101.5 142 Z " /><path fill="rgb(40,39,38)" stroke="rgb(40,39,38)" stroke-width="0.6" opacity="1" d="M 146.5 182 L 151.5 188 L 146.5 182 Z " /><path fill="rgb(40,39,38)" stroke="rgb(40,39,38)" stroke-width="0.6" opacity="1" d="M 382.5 182 L 377.5 188 L 382.5 182 Z " /><path fill="rgb(40,39,38)" stroke="rgb(40,39,38)" stroke-width="0.6" opacity="1" d="M 239.5 343 L 244.5 349 L 239.5 343 Z " /><path fill="rgb(112,112,100)" stroke="rgb(112,112,100)" stroke-width="0.6" opacity="1" d="M 129.5 288 L 137.5 297 L 129.5 288 Z " /><path fill="rgb(112,112,100)" stroke="rgb(112,112,100)" stroke-width="0.6" opacity="1" d="M 110.5 374 L 115.5 380 L 110.5 374 Z " /><path fill="rgb(112,112,100)" stroke="rgb(112,112,100)" stroke-width="0.6" opacity="1" d="M 376.5 378 L 371.5 384 L 376.5 378 Z " /><path fill="rgb(112,112,100)" stroke="rgb(112,112,100)" stroke-width="0.6" opacity="1" d="M 175 410 Q 178 408.8 177 412.5 L 183.5 420 L 175 410 Z " /><path fill="rgb(112,112,100)" stroke="rgb(112,112,100)" stroke-width="0.6" opacity="1" d="M 164.5 457 L 157.5 465 L 164.5 457 Z " /><path fill="rgb(206,195,83)" stroke="rgb(206,195,83)" stroke-width="0.6" opacity="1" d="M 134.5 236 L 136 241.5 L 135 241.5 L 134.5 237 L 132 238.5 L 134.5 236 Z " /><path fill="rgb(206,195,83)" stroke="rgb(206,195,83)" stroke-width="0.6" opacity="1" d="M 110.5 365 L 119.5 375 L 110.5 365 Z " /><path fill="rgb(204,203,198)" stroke="rgb(204,203,198)" stroke-width="0.6" opacity="1" d="M 359.5 142 L 353.5 149 L 359.5 142 Z " /><path fill="rgb(204,203,198)" stroke="rgb(204,203,198)" stroke-width="0.6" opacity="1" d="M 387.5 178 L 379.5 187 L 387.5 178 Z " /><path fill="rgb(204,203,198)" stroke="rgb(204,203,198)" stroke-width="0.6" opacity="1" d="M 123.5 210 Q 126.1 209.2 125 212.5 L 124 214.5 L 124.5 216 L 122 214.5 L 122.5 212 L 124 212.5 L 123.5 210 Z " /><path fill="rgb(141,53,47)" stroke="rgb(141,53,47)" stroke-width="0.6" opacity="1" d="M 225.5 94 L 230.5 100 L 225.5 94 Z " /><path fill="rgb(150,147,68)" stroke="rgb(150,147,68)" stroke-width="0.6" opacity="1" d="M 372.5 374 L 367.5 380 L 372.5 374 Z " /><path fill="rgb(233,233,233)" stroke="rgb(233,233,233)" stroke-width="0.6" opacity="1" d="M 356.5 135 L 351.5 141 L 356.5 135 Z " /><path fill="rgb(200,147,48)" stroke="rgb(200,147,48)" stroke-width="0.6" opacity="1" d="M 238.5 341 L 245.5 349 L 238.5 341 Z " /></svg>