<svg width="627" height="627" preserveAspectRatio="xMidYMid meet" viewBox="0 0 512 512" version="1.1" xmlns="http://www.w3.org/2000/svg" ><path fill="rgb(254,254,254)" stroke="rgb(254,254,254)" stroke-width="0.6" opacity="1" d="M 0 0 L 512 0 L 512 512 L 0 512 L 0 0 Z M 152 23 L 144 27 Q 132 35 131 52 L 127 51 Q 115 50 111 55 Q 104 60 102 70 Q 100 85 106 93 L 103 95 Q 91 106 84 122 Q 76 141 79 172 Q 72 178 70 191 Q 69 201 72 207 Q 77 218 87 226 Q 76 240 73 262 Q 73 272 78 277 Q 75 306 82 327 Q 90 351 105 369 Q 127 396 165 408 L 170 417 L 177 422 L 175 430 L 170 434 Q 140 431 125 441 L 118 450 L 119 454 L 126 457 L 125 462 L 126 467 L 134 471 L 150 468 L 152 475 L 156 477 Q 165 478 170 475 L 192 463 L 197 465 L 196 467 L 197 470 Q 200 477 212 474 L 211 479 L 212 484 L 219 489 L 232 488 L 255 473 L 265 469 L 277 469 L 294 472 Q 304 473 308 467 L 307 458 L 298 450 L 278 446 L 275 443 L 276 431 L 296 418 Q 319 416 337 407 Q 353 399 367 388 Q 387 371 399 346 L 407 321 L 408 303 L 419 296 Q 427 289 430 277 Q 432 263 425 260 L 425 258 L 438 243 L 442 232 Q 444 220 439 215 Q 434 206 420 207 Q 428 199 431 186 Q 433 175 429 170 Q 424 162 415 160 L 399 162 L 403 149 Q 403 139 399 134 L 388 126 Q 365 125 356 137 Q 342 150 334 168 L 321 207 Q 300 209 286 204 L 284 202 L 274 194 Q 265 187 262 175 L 257 138 L 252 122 L 236 96 Q 228 85 215 80 L 219 69 Q 221 50 212 44 L 201 37 Q 188 36 182 40 L 178 34 Q 173 26 165 23 L 152 23 Z " /><path fill="rgb(203,53,47)" stroke="rgb(203,53,47)" stroke-width="0.6" opacity="1" d="M 154.5 29 Q 168.9 28.1 173 37.5 L 177 51 L 179.5 51 L 186.5 45 L 198.5 43 L 209 49.5 L 213 63.5 L 208.5 76 L 191.5 72 L 171.5 72 L 155.5 77 L 140 87 L 130 103 Q 117.9 101.6 113 91.5 Q 107.9 84.6 108 72.5 Q 109.1 64.1 114.5 60 Q 118.8 56.3 128.5 58 L 136.5 63 L 138 60.5 L 137 49.5 Q 139.3 36.8 148.5 31 L 154.5 29 Z " /><path fill="rgb(203,53,47)" stroke="rgb(203,53,47)" stroke-width="0.6" opacity="1" d="M 176.5 77 L 186.5 77 L 203.5 81 Q 220.2 87.3 231 99.5 Q 243.1 112.9 249 132.5 L 252 145.5 L 255 173.5 L 259 185.5 L 272.5 201 L 279 205.5 L 280 213.5 L 275.5 219 Q 271.5 222 263.5 221 L 256.5 218 L 255 220.5 Q 258 224.5 257 232.5 Q 255.6 240.6 249.5 244 L 244.5 245 L 232.5 239 L 231 244.5 L 232 246.5 Q 230.6 257.1 224.5 263 Q 221 267.5 211.5 266 L 201.5 258 L 199 258 Q 198.5 273.7 188.5 281 Q 185.2 284.2 177.5 283 L 168 275.5 L 166.5 273 L 164 274.5 Q 162 288 152.5 294 L 143.5 295 L 133 286.5 L 128.5 277 L 117.5 292 L 110.5 293 L 102 285.5 L 98 275.5 L 96.5 264 L 88.5 273 L 83 273 L 81 269.5 L 80 257.5 L 83 246.5 L 95 224.5 L 85 215.5 Q 75 207.5 77 187.5 L 85 173.5 Q 82.4 143.4 90 123.5 Q 96.7 107.2 109.5 97 Q 116.9 106.1 130.5 109 Q 137.2 96.7 147.5 88 Q 158.4 78.9 176.5 77 Z M 185 111 L 181 113 L 179 117 L 181 118 L 194 119 L 200 124 L 202 123 L 201 119 L 192 111 L 185 111 Z M 107 118 L 103 120 L 98 126 L 100 129 Q 103 123 114 124 L 115 122 Q 113 117 107 118 Z M 183 139 L 174 143 Q 165 148 164 161 Q 163 176 171 183 L 173 183 Q 168 178 167 169 Q 167 158 171 152 Q 174 146 182 144 Q 194 143 197 151 L 196 153 L 190 150 L 182 152 Q 176 156 174 164 Q 173 175 178 181 L 188 186 L 196 184 Q 205 177 205 161 L 211 155 L 210 153 L 207 155 L 203 154 L 208 148 L 208 144 L 201 148 L 199 146 Q 194 139 183 139 Z M 107 140 L 95 147 Q 92 142 90 146 L 94 152 L 93 154 L 90 153 L 87 154 L 92 159 Q 91 169 95 176 L 100 179 L 96 170 Q 94 157 99 151 L 109 144 L 117 149 L 116 151 L 115 150 L 108 152 Q 102 155 101 163 Q 100 171 103 176 L 112 183 L 102 199 L 102 205 L 106 207 L 118 207 L 119 210 L 117 215 Q 116 222 120 225 L 111 245 Q 110 253 114 258 L 122 264 Q 133 266 136 260 L 146 266 L 153 266 L 162 261 Q 167 256 169 248 L 168 233 L 159 216 L 165 201 L 166 193 L 157 186 L 151 180 L 140 171 Q 130 170 126 173 L 123 173 L 125 167 L 124 154 L 121 148 Q 117 140 107 140 Z " /><path fill="rgb(203,53,47)" stroke="rgb(203,53,47)" stroke-width="0.6" opacity="1" d="M 134.5 175 L 141.5 177 Q 148.5 188.6 161 193 L 158.5 198 L 142.5 204 L 127.5 204 Q 119.1 200.7 107 202 Q 109.2 188.6 119.5 182 Q 124.7 176.2 134.5 175 Z " /><path fill="rgb(203,53,47)" stroke="rgb(203,53,47)" stroke-width="0.6" opacity="1" d="M 138.5 208 L 144 209.5 L 142.5 212 L 134.5 217 L 130.5 217 Q 127.8 215.8 129 210.5 L 130.5 209 L 138.5 208 Z " /><path fill="rgb(245,214,83)" stroke="rgb(245,214,83)" stroke-width="0.6" opacity="1" d="M 289.5 212 L 292 213.5 L 293.5 216 Q 301.5 218 303.5 214 L 318.5 214 Q 322.3 218.2 332.5 216 L 339.5 220 L 342 220.5 L 342 226 Q 337.5 224.5 339 229 L 343 229.5 L 342.5 231 L 346.5 232 L 355.5 228 L 370.5 227 L 371 229.5 L 372 231.5 L 371 233.5 Q 373 237.2 375 235.5 Q 376 240.5 373 239.5 L 373 245 L 371 245.5 L 371 250 L 375.5 252 L 378.5 251 L 381.5 252 L 385.5 251 L 385 252.5 L 388.5 258 Q 391.5 257.5 390 264.5 L 385 268.5 L 382 274.5 L 386 276 L 387 280 L 392 283.5 L 389 289.5 L 393 292.5 L 391 294 L 391 298.5 Q 387.5 300 390 301.5 L 389.5 303 L 377.5 294 L 375 295 Q 376.9 290.2 373.5 291 L 370.5 293 L 370 290.5 L 373 282.5 L 368.5 274 L 365 272.5 L 363 267 L 353.5 262 Q 351 266.5 348.5 261 L 340.5 263 L 336.5 257 L 330 254.5 L 329 246 L 324.5 247 L 317.5 243 L 315.5 244 L 314.5 241 Q 311.2 237.8 303.5 239 L 298 240 L 296.5 238 L 288.5 237 L 283.5 238 L 280.5 237 L 275 239 L 273.5 242 L 267 239.5 L 264 233.5 L 266.5 229 L 270 229 L 271.5 227 L 274.5 229 L 279.5 223 Q 286.3 223.8 287 218.5 L 289.5 212 Z " /><path fill="rgb(245,214,83)" stroke="rgb(245,214,83)" stroke-width="0.6" opacity="1" d="M 153.5 223 L 160 225 L 158 229.5 L 160 232.5 L 161 244.5 L 160 248 L 157 249.5 L 158 253.5 L 151.5 257 L 148.5 256 L 144.5 257 Q 141.5 255.5 144.5 254 L 146 252.5 L 139 248.5 L 139 237.5 L 140.5 236 L 146 232.5 L 147 229 L 149 227.5 L 148.5 226 L 153.5 223 Z " /><path fill="rgb(245,214,83)" stroke="rgb(245,214,83)" stroke-width="0.6" opacity="1" d="M 123.5 230 L 127 231.5 Q 125.7 235.7 130.5 234 L 134.5 233 L 134 234.5 L 130.5 242 L 128 241 Q 130 247.9 126.5 250 L 118.5 251 L 117 247.5 L 118.5 243 L 120 243.5 L 123 238.5 L 124 231.5 L 123.5 230 Z " /><path fill="rgb(245,214,83)" stroke="rgb(245,214,83)" stroke-width="0.6" opacity="1" d="M 238.5 252 L 243 254.5 L 244 256.5 Q 242.5 261.8 237 261 L 233 269 L 230 268.5 L 232 262 L 238 259.5 L 236 253 L 238.5 252 Z " /><path fill="rgb(245,214,83)" stroke="rgb(245,214,83)" stroke-width="0.6" opacity="1" d="M 205.5 269 L 207 269.5 L 207.5 272 L 214.5 275 L 220.5 274 L 225.5 270 L 229 277 Q 226 275.8 227 279.5 L 226.5 282 L 221 285.5 L 222 290.5 Q 219.2 292.2 220 297.5 L 221 302 L 219 302.5 L 219 314 Q 222.3 312.7 221 317.5 L 220 322.5 L 223.5 330 L 226.5 333 L 227 335.5 Q 225.9 338.8 228.5 338 Q 232.6 349.4 242.5 355 L 248 357 L 249.5 360 L 256.5 364 Q 258.5 361 260.5 366 L 265.5 368 L 268.5 366 L 270 370 L 274.5 368 L 277.5 372 Q 283.6 375.9 295.5 374 L 305.5 372 L 308.5 374 L 323.5 374 L 328 370.5 Q 327.2 367.9 330.5 369 L 334 370 Q 332.1 365.2 335.5 366 L 339.5 368 L 347 364 Q 345.5 360.3 348.5 361 L 350.5 362 L 358 356.5 L 359.5 352 L 361.5 350 L 366.5 350 L 372 340.5 L 371 338.5 L 376 335.5 L 377 327.5 L 376 321.5 L 381 315.5 L 380 313 Q 384.1 314.7 383 310.5 L 381 307.5 L 389.5 304 L 392 308 L 397.5 307 L 400 308 L 400 313 L 398.5 313 L 394 316.5 L 398 322.5 L 398 325.5 L 397 328 L 394 329.5 L 393 335.5 L 394 338.5 L 390 340.5 L 387 351 L 385 352.5 L 386 355 L 381 357.5 L 380 362 L 376 364.5 L 376 367 L 374 368.5 L 371.5 372 L 368.5 374 L 361.5 382 Q 354.8 381.3 354 386.5 Q 354.9 389.5 350.5 388 L 348 392 L 344 392 Q 345.5 395.7 342.5 395 L 340.5 394 L 327.5 402 L 323.5 400 L 318 402.5 L 317 404.5 L 317.5 406 L 312.5 405 L 311 408 L 306 405.5 L 309 401.5 L 303.5 399 L 298 403.5 L 297 405.5 L 298 407.5 L 285 412 L 284 416 L 268.5 423 L 248.5 423 L 245.5 425 L 239.5 416 L 231.5 417 L 227 416 L 220.5 407 Q 215 408 214 404.5 Q 213.6 399 209.5 397 L 207 396.5 L 205 395 L 203 401.5 L 206 407 L 197 406 Q 198.2 409.7 193 408 L 191.5 406 L 185 404 Q 186 407 183 406 L 181.5 403 L 175 404 L 173.5 401 L 165.5 399 L 163.5 400 L 163.5 398 L 161.5 397 L 159 398 L 157.5 395 L 149.5 393 L 141.5 387 L 140.5 388 L 136.5 384 Q 132.1 385.5 133 382.5 L 132 380 Q 125.4 378.9 122 373.5 L 118.5 370 L 110 363 Q 111 356.6 105.5 355 Q 102.5 355.9 104 351.5 L 101 350 L 101 346.5 L 91.5 326 L 90 324.5 L 91 321.5 L 90 318 Q 87 319.3 88 315.5 L 89 309.5 L 88 307 Q 84 308.4 86 301.5 L 87 293.5 L 89 290.5 Q 85.5 289 87 282.5 L 92 280 L 93.5 283 L 95 284.5 L 94 289.5 L 99 292 L 100.5 295 L 106 296 L 107.5 300 L 114.5 299 L 117.5 300 L 119 297 Q 122.1 297.8 121.5 295 L 126.5 295 L 135.5 296 L 137 297.5 L 137 300 L 141 300 L 142.5 302 L 151.5 300 L 153.5 300 L 162 295.5 L 163.5 291 L 166 289.5 L 165 286 Q 170.9 285.3 172.5 291 L 177 291 Q 175.9 287.3 184.5 289 L 188.5 290 L 191 289 L 191 287 L 194.5 285 L 202 279 L 203 273.5 L 202 270 L 205.5 269 Z " /><path fill="rgb(245,214,83)" stroke="rgb(245,214,83)" stroke-width="0.6" opacity="1" d="M 331.5 269 L 338.5 269 L 340.5 271 L 347.5 272 L 350.5 275 L 358 275 L 361 283.5 L 354 288.5 Q 356.1 294.4 351.5 293 L 350 295.5 L 351 298.5 L 351 300.5 Q 349.9 304.7 354 303 Q 352.8 300 356.5 301 L 359.5 302 L 363 301 L 364.5 299 L 364.5 301 L 369.5 299 L 369.5 301 L 372 302.5 L 373 308.5 L 372 310.5 L 373 313 L 369 315.5 L 368 319 L 359 321.5 L 357 326.5 L 357.5 328 L 354.5 327 L 346 331 Q 347.9 335.8 344.5 335 L 344.5 336 Q 347.9 335.2 346 340 L 348.5 340 L 350 337 L 358 342.5 L 355.5 346 L 351.5 349 Q 345.5 347.5 344 350.5 L 341.5 355 L 327 360.5 L 327.5 362 L 321.5 361 L 320 364 Q 312.9 362.8 309 357.5 L 308 349.5 L 309 347.5 L 306 346.5 L 309.5 342 L 312.5 344 L 316.5 339 L 318 337.5 L 322.5 331 L 324.5 332 L 327 326.5 L 325 320.5 L 327 317.5 Q 322 315.3 324 307 L 326 307 L 328 303.5 L 333 296.5 L 333 286 L 330 284.5 L 330 281.5 Q 325.3 280.1 326 275 Q 330.7 276 332 272.5 L 331.5 269 Z " /><path fill="rgb(245,214,83)" stroke="rgb(245,214,83)" stroke-width="0.6" opacity="1" d="M 361 333 L 366 336.5 L 359 338 L 361 333 Z " /><path fill="rgb(245,214,83)" stroke="rgb(245,214,83)" stroke-width="0.6" opacity="1" d="M 189.5 414 Q 194.9 412.1 194 415.5 L 195 418 Q 201.2 416 200 420 L 193 421 Q 194.3 417.3 188.5 419 L 187 416.5 L 189.5 414 Z " /><path fill="rgb(9,9,10)" stroke="rgb(9,9,10)" stroke-width="0.6" opacity="1" d="M 151.5 24 Q 171 22 177 33.5 L 181.5 42 Q 187.5 36.5 200.5 38 Q 209.5 40.4 214 47.5 Q 219.3 53.7 218 66.5 L 213 78.5 L 225.5 87 L 238 99.5 Q 248.4 112.6 254 130.5 L 262 178.5 Q 266 189.5 274.5 196 L 287.5 206 Q 301.7 209.8 321.5 208 L 330 179.5 L 339 159.5 Q 347.4 144.4 360.5 134 Q 369.1 126.1 386.5 127 Q 395.4 128.6 399 135.5 L 402 147.5 Q 401 157.5 396 163.5 L 398.5 164 L 413.5 161 Q 422.9 162.1 427 168.5 Q 431.4 173.7 430 184.5 Q 426.8 199.3 417 207.5 L 420.5 209 L 425.5 208 Q 433.3 208.7 437 213.5 Q 442.7 218.8 441 231.5 Q 436.1 249 423 258.5 Q 430.3 262.7 429 275.5 Q 424.5 291.5 412.5 300 L 406 304.5 L 405 323.5 L 397 347.5 Q 385.8 370.3 367.5 386 L 338.5 405 L 314.5 414 L 295.5 417 L 275 429.5 L 274 442.5 L 277.5 447 L 299.5 452 L 305 456.5 Q 308.2 458.8 307 465.5 L 304.5 469 L 293.5 471 L 278.5 468 L 263.5 468 L 252.5 473 L 233.5 486 Q 228.5 489 219.5 488 L 213 483.5 L 214 473 L 202.5 473 L 198 469.5 L 197 466.5 L 198 463.5 Q 196.8 460.8 191.5 462 L 166.5 475 L 156.5 476 L 152 472.5 L 151 468.5 L 150.5 466 L 134.5 470 L 127 466.5 L 126 461.5 L 128 457.5 L 120 452.5 Q 118.9 443.9 124.5 442 L 139.5 436 L 170.5 435 L 175 431.5 L 178 422.5 L 172 417.5 L 165.5 407 Q 129.1 395.4 107 369.5 Q 91 351.5 83 325.5 L 79 305.5 L 79 275.5 Q 72.2 270.3 75 255.5 L 80 240.5 L 88 224.5 L 79 216.5 Q 70.9 208.1 71 191.5 Q 72.8 178.8 80 171.5 Q 77.8 143.8 84 124.5 L 92 108.5 L 107 92.5 L 107 90.5 Q 101.6 83.9 103 70.5 Q 104.9 58.9 113.5 54 L 125.5 52 L 130.5 54 L 132 52.5 L 133 42.5 Q 136.2 33.2 143.5 28 L 151.5 24 Z M 154 28 L 146 32 Q 135 40 136 60 L 136 62 Q 132 57 125 56 L 115 59 Q 108 63 107 73 Q 107 85 112 92 L 123 102 L 130 104 L 139 91 Q 151 77 173 73 Q 195 71 208 78 Q 213 74 214 65 Q 214 55 210 50 L 199 42 Q 185 42 180 50 L 177 48 L 177 44 L 172 35 L 163 28 L 154 28 Z M 176 76 Q 158 78 148 87 Q 137 96 131 108 Q 118 106 112 97 L 109 97 Q 95 107 89 124 Q 81 143 84 174 L 76 188 Q 74 206 82 214 L 93 224 L 79 257 Q 76 270 84 274 L 89 274 L 97 267 Q 96 282 104 290 L 111 294 L 118 293 Q 124 289 127 281 L 129 279 L 135 291 L 145 296 Q 153 297 157 292 Q 163 286 165 275 L 177 284 L 188 283 Q 199 276 200 259 L 212 267 Q 220 268 224 265 Q 234 258 233 241 L 245 246 L 252 244 L 258 234 L 257 220 L 263 222 Q 272 223 276 220 L 281 214 L 280 206 L 273 200 Q 262 193 258 181 Q 254 164 253 145 L 249 130 Q 243 113 233 101 Q 222 88 207 81 L 188 76 L 176 76 Z M 377 131 L 362 139 Q 350 148 343 162 Q 332 181 327 208 L 329 209 Q 337 208 341 211 Q 346 215 346 224 L 357 221 Q 367 220 374 223 L 380 233 Q 381 241 378 245 L 391 248 L 395 257 Q 396 268 390 274 L 394 276 L 398 283 Q 400 293 396 299 L 394 300 L 396 294 Q 398 284 394 280 L 387 275 L 393 261 L 391 253 L 385 248 L 374 249 L 378 239 L 376 230 Q 373 224 366 223 L 354 224 L 343 228 L 344 224 L 343 218 L 334 211 L 326 212 L 298 212 L 286 210 L 283 217 Q 279 224 270 225 L 262 224 L 260 226 L 260 237 L 256 244 L 249 248 L 239 247 L 237 245 L 230 263 Q 226 268 219 270 L 210 269 L 201 265 L 197 278 Q 193 285 184 287 Q 172 287 168 280 L 162 290 L 152 298 Q 142 300 138 296 L 128 285 L 124 291 L 115 297 Q 107 297 104 293 L 97 284 L 94 273 L 83 280 L 83 304 L 90 334 Q 100 356 116 373 Q 148 406 207 412 Q 212 413 213 411 L 208 403 L 209 401 L 211 405 Q 224 423 251 428 L 269 427 Q 282 423 292 415 L 303 405 L 299 412 Q 317 411 331 404 Q 350 395 366 382 Q 393 359 402 317 L 402 306 L 401 304 L 399 302 L 411 296 Q 421 289 425 275 Q 426 268 423 265 L 419 261 L 414 262 L 412 260 L 422 254 Q 433 246 437 230 Q 438 221 434 217 L 427 212 L 419 212 L 402 220 L 400 220 L 421 197 L 426 184 Q 427 174 423 171 L 414 165 L 404 166 Q 392 171 384 179 L 379 185 L 372 191 L 389 169 L 397 153 Q 399 142 395 138 Q 391 129 377 131 Z M 174 409 L 172 411 L 175 415 Q 181 422 193 424 Q 210 425 218 417 L 217 415 Q 192 415 174 409 Z M 221 420 L 206 427 Q 200 431 199 441 L 203 443 L 214 445 L 220 450 L 244 445 Q 248 441 247 432 L 234 427 L 221 420 Z M 182 425 L 177 436 L 174 438 L 142 439 Q 131 441 124 448 L 126 453 L 134 453 L 147 447 L 148 449 L 135 455 L 130 461 Q 129 465 133 466 L 141 466 L 156 461 L 164 456 L 165 456 L 155 467 Q 154 471 158 472 L 165 472 L 189 459 L 203 458 L 215 451 Q 210 446 200 446 L 196 444 L 196 437 L 199 427 L 182 425 Z M 266 430 L 265 431 L 252 431 L 250 433 L 249 445 L 241 450 Q 221 451 208 458 L 201 466 L 205 470 L 220 468 L 230 462 L 232 463 L 222 470 L 216 479 L 220 484 L 229 484 L 256 467 L 266 464 L 276 464 L 290 467 L 301 467 Q 304 466 303 461 L 295 454 L 275 450 L 271 447 L 270 442 L 271 432 L 266 430 Z " /><path fill="rgb(9,9,10)" stroke="rgb(9,9,10)" stroke-width="0.6" opacity="1" d="M 184.5 112 Q 197 110.5 200 118.5 L 201 122 L 191.5 117 L 181.5 117 L 180 115.5 L 184.5 112 Z " /><path fill="rgb(9,9,10)" stroke="rgb(9,9,10)" stroke-width="0.6" opacity="1" d="M 106.5 119 Q 112.3 118.2 114 121.5 Q 112.5 124.5 106.5 123 L 99 127 L 102.5 121 L 106.5 119 Z " /><path fill="rgb(9,9,10)" stroke="rgb(9,9,10)" stroke-width="0.6" opacity="1" d="M 184.5 140 L 193.5 142 L 200.5 149 L 202.5 149 L 206 147 L 202 154.5 L 208 156.5 L 203 159.5 L 204 165.5 Q 202.9 177.4 195.5 183 L 184.5 184 L 177 177.5 Q 174 172.5 175 163.5 L 180.5 154 Q 183.4 149.9 191.5 151 L 198 155.5 L 199.5 158 L 200 155.5 L 194.5 146 Q 190.7 141.3 180.5 143 L 170 151.5 L 167 162 Q 163.7 163.3 165 158.5 L 172.5 145 Q 176.6 140.6 184.5 140 Z M 188 156 L 184 161 L 185 164 Q 186 167 192 166 L 195 162 L 194 159 Q 193 155 188 156 Z " /><path fill="rgb(9,9,10)" stroke="rgb(9,9,10)" stroke-width="0.6" opacity="1" d="M 107.5 141 Q 116.6 141.4 120 147.5 Q 125.3 154.7 124 168.5 L 122 175 L 130.5 172 L 138.5 172 L 149 178.5 L 156.5 187 L 165 192.5 L 164 200.5 L 158 214.5 L 168 236.5 L 168 247.5 Q 165.7 258.2 157.5 263 L 146.5 265 L 135.5 259 Q 132.5 265 121.5 263 L 115 257.5 L 112 245.5 L 115 234.5 L 121 224.5 Q 116.8 220.7 119 210.5 L 120 207.5 L 118.5 206 L 103.5 205 L 102 203.5 L 107 190.5 L 114 181 L 105 176.5 Q 100.5 172 102 161.5 L 108.5 152 L 115.5 151 L 120 153 Q 119.2 146.9 113.5 144 L 107.5 143 L 98 150.5 Q 93.5 156.3 95 167 L 93 167 L 93 157.5 Q 90.3 158.1 91 155 L 95 152.5 L 93 148.5 L 94.5 149 Q 98.8 142.8 107.5 141 Z M 114 155 L 112 156 Q 109 157 110 163 Q 111 166 116 165 L 119 161 L 118 158 L 114 155 Z M 134 174 L 120 181 Q 109 188 105 202 L 107 203 Q 119 202 127 205 Q 148 207 159 199 L 162 194 L 155 189 L 147 181 Q 143 174 134 174 Z M 158 202 L 154 204 L 150 209 L 138 219 L 130 220 L 125 214 L 126 212 L 125 207 L 121 212 L 122 222 L 132 228 Q 142 228 147 223 Q 156 216 160 204 Q 161 201 158 202 Z M 131 207 L 128 211 Q 127 217 131 218 Q 138 218 142 214 L 147 208 L 131 207 Z M 156 218 Q 150 227 139 230 Q 129 231 124 228 Q 116 233 115 246 Q 114 253 118 257 L 126 261 Q 132 261 134 257 L 132 248 Q 131 243 134 244 Q 134 252 139 258 L 146 262 Q 153 263 157 260 L 165 248 Q 166 229 158 220 L 156 218 Z " /><path fill="rgb(9,9,10)" stroke="rgb(9,9,10)" stroke-width="0.6" opacity="1" d="M 282.5 242 Q 314.2 239.3 328 254.5 L 331.5 264 Q 355.8 262.7 366 275.5 L 368 284.5 L 364 292.5 Q 365.5 295.5 371.5 294 L 379 299.5 L 380 308.5 L 378 314.5 L 371 324.5 L 372 333.5 Q 368.3 343.8 360.5 350 Q 346.7 362.7 325.5 368 L 316.5 370 L 287.5 370 Q 252.1 364.4 234 341.5 Q 221.5 328 223 300.5 Q 228.1 274.6 244.5 260 Q 258.6 246.1 282.5 242 Z M 288 244 Q 263 247 249 260 Q 229 275 225 306 Q 225 328 236 340 Q 250 359 278 365 Q 291 367 298 361 L 303 355 L 302 348 L 296 342 L 294 339 Q 306 340 314 334 L 321 326 Q 322 318 319 316 L 311 310 L 309 308 L 320 304 Q 325 301 327 294 Q 328 287 325 285 L 315 278 L 313 276 L 320 274 L 327 266 Q 328 258 325 256 Q 313 243 288 244 Z M 331 266 L 328 270 L 323 274 L 320 278 L 324 280 Q 329 283 330 291 L 328 299 L 315 310 L 318 311 L 324 320 L 322 330 L 314 337 L 301 342 L 306 351 L 303 360 Q 300 365 293 365 L 295 368 L 311 368 L 331 364 Q 345 359 357 350 Q 366 344 370 332 L 369 327 L 355 334 L 353 332 L 367 324 Q 374 319 377 310 L 377 302 Q 375 296 368 296 L 359 298 L 355 298 L 365 286 L 364 278 L 353 269 L 331 266 Z " /><path fill="rgb(237,149,44)" stroke="rgb(237,149,44)" stroke-width="0.6" opacity="1" d="M 187.5 157 L 193 158.5 Q 194.3 163.8 191.5 165 L 186 163.5 Q 184.8 158.3 187.5 157 Z " /><path fill="rgb(237,149,44)" stroke="rgb(237,149,44)" stroke-width="0.6" opacity="1" d="M 287.5 245 Q 312.6 244.4 325 256.5 L 326 265.5 L 320.5 272 L 311 276.5 L 312.5 279 Q 321 280.5 325 286.5 L 326 293.5 L 320.5 302 L 306 308.5 L 314.5 313 L 320 318.5 Q 321.6 330.6 313.5 333 Q 305.8 339.3 292 338 Q 290.5 341.7 293.5 341 L 301 347.5 L 302 354.5 L 297.5 360 Q 291.2 365.7 277.5 364 Q 251.2 357.8 237 339.5 Q 224.6 326.4 227 298.5 Q 233.2 271.7 252.5 258 Q 265.9 247.4 287.5 245 Z " /><path fill="rgb(237,149,44)" stroke="rgb(237,149,44)" stroke-width="0.6" opacity="1" d="M 220.5 421 L 246 432.5 L 245 441.5 L 241.5 445 L 219.5 449 L 213.5 444 L 202.5 442 L 200 439.5 L 205.5 428 Q 215.3 426.8 220.5 421 Z " /><path fill="rgb(237,149,44)" stroke="rgb(237,149,44)" stroke-width="0.6" opacity="1" d="M 266.5 431 L 270 432.5 L 269 442.5 Q 269.7 448.9 274.5 451 L 294.5 455 L 302 460.5 L 303 463.5 Q 299.9 467.9 290.5 466 Q 280.1 461.9 264.5 463 L 253.5 467 L 230.5 482 L 219.5 483 L 217 478.5 L 226.5 467 L 238 461 Q 239.3 457.7 234.5 459 L 219.5 467 L 205.5 469 L 202 466.5 L 206.5 460 L 219.5 454 L 241.5 451 L 249 446.5 Q 252.2 443.2 251 435.5 L 253.5 432 L 266.5 431 Z " /><path fill="rgb(244,238,213)" stroke="rgb(244,238,213)" stroke-width="0.6" opacity="1" d="M 372.5 134 L 385.5 135 L 387 134.5 L 388.5 136 L 394 139 L 393 144 Q 397 142.7 395 149 L 393 150.5 L 394 155.5 L 390 158.5 L 388 168 L 384.5 170 L 381.5 174 L 376 178.5 L 374 186 L 369 188.5 L 369 191.5 L 366 196 Q 371.1 196.8 372.5 192 L 375.5 192 L 388 179.5 Q 386.5 175.1 389.5 176 Q 390.9 172.8 396 174 L 397.5 172 L 399.5 173 L 403.5 168 L 413.5 169 L 415.5 168 L 422 172.5 L 421 176 Q 424.3 174.7 423 179.5 L 424 183.5 L 421 185 L 422 187.5 L 421 190 L 418 191.5 L 419 194.5 L 408.5 208 L 403 210.5 L 394 223.5 L 396.5 224 L 401 224 L 402.5 222 L 407.5 218 L 410.5 220 L 415 218 L 416.5 214 Q 424.7 212.9 428 215 L 430.5 219 Q 436.6 217.3 434 224 Q 430.7 222.9 432 227 Q 435.5 225.9 434 233.5 L 431 235 L 432 238.5 L 428 241.5 Q 430.1 247.3 425.5 246 L 421 252 L 419 253.5 L 411 257.5 L 408 262.5 L 409.5 264 L 422 265 L 421 272.5 L 422 276.5 L 420.5 279 L 418.5 279 L 417 280.5 L 418 283.5 L 414 292 L 409.5 291 L 405 298 L 400 294.5 L 401 283.5 L 400 281.5 L 399.5 279 Q 396.2 280.1 397 277.5 Q 392 275.5 395 273.5 L 395 270 L 397 268.5 L 396 264.5 L 399 263 L 399 256.5 L 397 254.5 L 394 250.5 L 395 249.5 L 388.5 243 L 385.5 244 Q 379.3 242.3 381 232.5 L 383 229 L 380 227.5 Q 381.1 224.2 378.5 225 L 369 218.5 L 368.5 217 L 357 217 Q 358.3 220.3 353.5 219 L 351.5 220 L 348 219 Q 349.5 215.2 346.5 216 Q 342.3 214.7 343 210 Q 340 211.3 341 207.5 L 338.5 207 L 334 207 L 332.5 205 L 330 204 L 332 197.5 L 331 194.5 L 335 193 L 334 187 Q 338.1 188.7 337 184.5 L 336 182.5 L 339 181 L 338 177.5 L 341 176 L 340 171 Q 344.5 172.8 343 167.5 L 344 165.5 L 344.5 163 Q 347.1 163.8 346 160.5 L 351 156.5 L 352 150 Q 357.6 152.2 356 146.5 Q 358.5 148.3 361 143.5 L 360.5 142 L 369 139 Q 367.5 135.3 370.5 136 L 372.5 134 Z " /><path fill="rgb(244,238,213)" stroke="rgb(244,238,213)" stroke-width="0.6" opacity="1" d="M 144.5 215 L 148 216.5 L 145.5 220 L 139.5 224 L 140 220.5 L 140 218 Q 143.7 219.5 143 216.5 L 144.5 215 Z " /><path fill="rgb(244,238,213)" stroke="rgb(244,238,213)" stroke-width="0.6" opacity="1" d="M 191.5 428 L 197 429.5 L 195 430.5 L 196 435 L 194 435.5 L 194 444.5 L 195 447 L 201 448 Q 199.8 451 203.5 450 L 207 449 L 208 451.5 L 202 454 L 200.5 456 L 192.5 457 L 189.5 456 L 176.5 463 L 168.5 460 L 168 461.5 L 170 465 L 172 465.5 L 169 466 Q 170.8 470.9 164.5 469 L 159.5 471 L 158 467.5 L 159 463 L 162.5 463 L 167 460 L 170 453.5 L 167.5 450 L 164.5 452 L 158 449 L 159 444.5 L 159.5 442 L 172.5 442 L 178 439 L 180.5 434 L 183 432.5 Q 182.1 429.1 187.5 431 L 191.5 428 Z " /><path fill="rgb(244,238,213)" stroke="rgb(244,238,213)" stroke-width="0.6" opacity="1" d="M 143.5 441 L 152 441.5 Q 145.9 440.4 144 443.5 L 145 447 Q 138.1 449 136 445.5 L 136.5 443 L 140.5 444 L 141 442 L 143.5 441 Z " /><path fill="rgb(244,238,213)" stroke="rgb(244,238,213)" stroke-width="0.6" opacity="1" d="M 151 449 Q 154.7 447.5 154 450.5 Q 158.5 452.3 157 459 L 152.5 458 L 150.5 461 L 138.5 463 L 134 460.5 L 136.5 456 L 139.5 457 L 145 454 L 146.5 450 L 150.5 452 L 151 449 Z " /><path fill="rgb(239,209,82)" stroke="rgb(239,209,82)" stroke-width="0.6" opacity="1" d="M 286.5 211 L 290 211.5 Q 286.4 212.9 287 218.5 L 282.5 223 Q 277.8 222.3 277 225.5 L 274.5 229 L 270 227 Q 271.3 230.3 266.5 229 L 264 233.5 L 268.5 241 L 273.5 242 L 275 239 L 282.5 237 L 287.5 238 L 295.5 237 L 298 238 Q 296.6 241.7 302.5 240 L 310.5 239 L 316 242.5 L 315.5 244 L 318.5 243 L 324.5 247 L 329 246 Q 327.5 253.2 331.5 256 Q 337.9 256.1 340 260.5 L 339.5 263 Q 332.8 264.7 331 261.5 Q 330 252.5 323.5 249 Q 309.4 238.1 281.5 241 Q 252.3 246.8 237 266.5 L 229 280 Q 225.7 281.1 227 277 L 229 275.5 L 225.5 270 L 220.5 274 L 212.5 275 L 206 270.5 L 206.5 269 L 202 270 L 203 275.5 L 202 279 L 193 285 L 193 287 L 189.5 289 L 185.5 290 L 177 289 Q 178.3 292.7 172.5 291 L 165 285.5 L 167.5 282 Q 172.3 288.7 184.5 288 Q 193.8 285.3 198 277.5 L 202.5 266 L 203.5 268 L 205.5 268 Q 210 272 219.5 271 L 231 262.5 L 237.5 247 Q 241.2 250.3 249.5 249 L 258 242.5 Q 262.6 236.4 262 226 Q 277.2 227.5 283 218.5 L 286.5 211 Z M 239 252 L 236 253 L 237 259 L 238 261 L 244 257 L 243 255 L 239 252 Z M 236 261 L 232 262 L 230 269 L 233 269 L 237 264 Q 238 260 236 261 Z " /><path fill="rgb(239,209,82)" stroke="rgb(239,209,82)" stroke-width="0.6" opacity="1" d="M 291.5 212 L 305 213.5 Q 302.2 217.7 293.5 216 L 291.5 212 Z " /><path fill="rgb(239,209,82)" stroke="rgb(239,209,82)" stroke-width="0.6" opacity="1" d="M 317.5 213 L 335.5 213 L 341 216.5 L 342 219.5 Q 339.8 221.4 337.5 218 Q 332.1 214.4 321.5 216 L 317.5 213 Z " /><path fill="rgb(239,209,82)" stroke="rgb(239,209,82)" stroke-width="0.6" opacity="1" d="M 155.5 219 L 159 225 L 153.5 223 L 149.5 226 L 155.5 219 Z " /><path fill="rgb(239,209,82)" stroke="rgb(239,209,82)" stroke-width="0.6" opacity="1" d="M 359.5 224 Q 371 223 375 229.5 L 376 241.5 L 372 248.5 L 377.5 250 L 383.5 249 L 390 253.5 L 391 264.5 L 386 275.5 L 394 281.5 L 395 292.5 L 390 303.5 L 401 306.5 L 399 326.5 L 391 347.5 Q 379.4 369.9 360.5 385 Q 337.5 404 302.5 411 Q 299.3 409.3 303 407.5 L 306 400 L 301 403.5 L 298.5 407 L 298 404.5 L 301.5 400 L 305.5 399 L 309 401.5 L 306 405.5 L 311 408 L 312.5 405 L 317.5 406 L 318 403.5 L 319.5 401 L 324.5 400 L 327.5 402 L 341.5 394 L 344 395 L 344 392 Q 348.8 393.9 348 390.5 Q 349.3 387 354 388 L 358.5 382 Q 363.3 382.8 364 379.5 L 368.5 374 L 371.5 372 L 374 367 Q 377 368.3 376 364.5 L 380 362 L 383.5 355 Q 386.8 356.1 386 353.5 L 385 351 Q 388 352.3 387 348.5 Q 387.4 341.9 391.5 339 L 394 338.5 L 393 334.5 L 395.5 328 L 397 326.5 L 398 322.5 L 394 316.5 L 400 313 L 400 308 L 398.5 308 L 395.5 307 L 392 308 L 389.5 304 L 381.5 307 Q 381.8 299.2 377.5 296 L 376 295.5 L 378.5 294 L 389.5 303 L 390 301.5 Q 387.5 300 391 298.5 L 391 294 L 393 292.5 L 389 289.5 L 392 283.5 L 387 280 L 386 276 L 382 274.5 L 387.5 266 L 390 264.5 Q 391.5 257.5 388.5 258 L 385 252.5 L 385.5 251 L 379.5 252 L 376.5 251 L 373 252 Q 374 249 371 250 L 371 245 L 373 245 L 373 239.5 Q 376 240.5 375 235.5 Q 373 237.2 371 233.5 L 372 231.5 L 370 228.5 L 370.5 227 L 355.5 228 L 353.5 230 L 344.5 232 L 342 230.5 L 359.5 224 Z " /><path fill="rgb(239,209,82)" stroke="rgb(239,209,82)" stroke-width="0.6" opacity="1" d="M 147.5 227 L 149 229 L 147 230.5 L 143.5 235 L 139 237.5 L 139 248.5 L 140.5 250 L 146 252.5 L 144.5 254 Q 141.5 255.5 144.5 257 L 150.5 256 L 153.5 257 L 158 253.5 L 157 249.5 L 160 248 L 161 238.5 L 158 228.5 L 161 227 L 164 236.5 L 164 246.5 L 157.5 258 Q 154.7 261.7 147.5 261 L 138 254.5 L 135 240.5 L 136 237.5 Q 134.5 234.5 133 237.5 L 132.5 240 L 132 237.5 L 135 233.5 L 131.5 233 L 127 234 L 126 230.5 L 127.5 230 L 136.5 232 L 147.5 227 Z " /><path fill="rgb(239,209,82)" stroke="rgb(239,209,82)" stroke-width="0.6" opacity="1" d="M 123.5 229 L 125 229.5 L 123 230.5 L 123 232.5 Q 124.2 241.2 119.5 244 L 118 243.5 L 117.5 247 L 117 240.5 L 123.5 229 Z " /><path fill="rgb(239,209,82)" stroke="rgb(239,209,82)" stroke-width="0.6" opacity="1" d="M 128 241 L 130.5 242 L 132 241.5 L 131 249.5 L 133 256.5 Q 130.5 260.5 122.5 259 Q 117.7 256.8 117 250.5 L 118.5 251 Q 125.8 252.3 128 248.5 L 128 241 Z " /><path fill="rgb(239,209,82)" stroke="rgb(239,209,82)" stroke-width="0.6" opacity="1" d="M 344.5 261 Q 350.5 260 351.5 264 L 354.5 262 L 363 267 L 365 271.5 L 363.5 271 L 352.5 265 L 341 262.5 L 344.5 261 Z " /><path fill="rgb(239,209,82)" stroke="rgb(239,209,82)" stroke-width="0.6" opacity="1" d="M 330.5 268 Q 353.4 266.1 363 277.5 L 364 284.5 Q 362.2 291.7 356.5 295 L 351.5 298 L 350 294.5 L 354 293 L 355.5 287 L 361 283.5 L 358 275 L 350.5 275 L 347.5 272 L 339 271 Q 340.1 267.3 331.5 269 L 332 270.5 L 329.5 275 Q 324.7 273.3 326 277.5 L 331.5 286 L 333 286.5 L 333 296.5 L 328 305 L 324 307 L 324 314.5 L 327 318.5 Q 325.5 321.5 324 318.5 L 324 316.5 L 317 309.5 L 328 300.5 L 331 290.5 Q 329 281 322 276.5 L 330.5 268 Z " /><path fill="rgb(239,209,82)" stroke="rgb(239,209,82)" stroke-width="0.6" opacity="1" d="M 365.5 273 L 371 276.5 L 373 284.5 L 369 291.5 L 369.5 293 Q 365.1 294.5 366 291.5 Q 370 288 369 279.5 L 365.5 273 Z " /><path fill="rgb(239,209,82)" stroke="rgb(239,209,82)" stroke-width="0.6" opacity="1" d="M 92.5 275 Q 95.1 274.2 94 277.5 Q 96.4 289.1 104.5 295 L 114.5 298 Q 122.4 295.9 126 289.5 L 127.5 287 L 130 288.5 L 134.5 295 Q 139.2 299.8 148.5 300 Q 156.8 298.3 161 292.5 L 164.5 287 L 166 289.5 L 162 292.5 L 160.5 297 L 152.5 301 L 150.5 301 L 141 302 Q 142.2 298.3 137 300 L 137 297.5 L 135.5 296 L 121 295 L 119 298.5 L 115.5 300 L 110.5 299 L 107.5 300 L 106 296 L 99 293.5 Q 99.8 290.9 96.5 292 Q 93 291 94 285.5 L 95 283 L 92 281.5 Q 92.8 278.9 89.5 280 Q 85.5 281.5 87 288.5 L 89 291.5 L 87 293.5 L 86 307 L 88 308.5 L 89 314.5 L 88 318 Q 91 316.8 90 320.5 L 91 323.5 L 90 326 L 93 327.5 L 101 350 L 104 351.5 Q 102.5 355.9 105.5 355 Q 111 356.6 110 363 L 120 370 L 122 373.5 Q 125.4 378.9 132 380 L 133 384 Q 139 383 140.5 388 Q 142 385.5 143.5 389 L 159 396.5 L 160.5 398 L 162.5 398 L 164 398.5 L 163.5 400 L 167.5 399 L 175 402.5 L 176.5 404 L 181.5 403 L 183 406 L 186.5 404 L 193 406 Q 191.8 409.7 197 408 Q 195.8 405 199.5 406 L 206 407 L 203 400.5 L 204.5 398 L 211 410 L 191.5 409 L 159.5 400 Q 128.8 387.2 109 363.5 Q 95 347 88 323.5 L 84 301.5 L 84 281.5 L 86.5 278 L 92.5 275 Z " /><path fill="rgb(239,209,82)" stroke="rgb(239,209,82)" stroke-width="0.6" opacity="1" d="M 227.5 281 L 227 282.5 Q 220.1 295.1 222 316.5 L 228 333.5 L 226.5 333 L 223.5 330 L 220 322.5 L 220 318.5 L 221 314 L 219 313.5 L 219 302 Q 222.3 303.3 221 298.5 L 220 293.5 L 222 289.5 L 221 285.5 L 227.5 281 Z " /><path fill="rgb(239,209,82)" stroke="rgb(239,209,82)" stroke-width="0.6" opacity="1" d="M 359.5 298 Q 371 295.5 375 300.5 L 376 308.5 Q 372.6 319.6 363.5 325 L 346 334 Q 344.3 329.9 348.5 331 L 355.5 327 L 357.5 328 L 359 324.5 L 360.5 320 L 368 319 L 371.5 313 L 373 311.5 L 372 309.5 L 373 307.5 L 370.5 301 L 369 300.5 L 369.5 299 L 364.5 301 L 364.5 299 L 363 301 L 360.5 301 L 357.5 302 L 354 301 Q 355.1 304.3 351 303 L 352.5 300 L 359.5 298 Z " /><path fill="rgb(239,209,82)" stroke="rgb(239,209,82)" stroke-width="0.6" opacity="1" d="M 381.5 309 L 383 313 Q 379.2 311.5 380 314.5 L 381 316.5 Q 374.7 317.8 376 326.5 L 377 331.5 L 374.5 337 L 371.5 338 L 372 336.5 L 374 327.5 L 372 323.5 L 381.5 309 Z " /><path fill="rgb(239,209,82)" stroke="rgb(239,209,82)" stroke-width="0.6" opacity="1" d="M 325.5 324 L 327 327.5 L 324.5 332 L 322.5 331 L 321 331.5 L 325.5 324 Z " /><path fill="rgb(239,209,82)" stroke="rgb(239,209,82)" stroke-width="0.6" opacity="1" d="M 367.5 328 L 369 330.5 Q 366.4 341.4 358.5 347 Q 337.4 367.7 296 367 L 297.5 365 L 305 358.5 L 307 349.5 L 303 341 Q 314.4 340.4 320.5 333 L 319 335.5 L 318 339 L 314 341.5 L 312.5 344 L 309.5 342 L 306 346.5 L 309 347.5 L 308 353.5 Q 308.5 359.1 312.5 361 L 320 364 L 321.5 361 L 327.5 362 L 327.5 360 L 338.5 357 L 344 352.5 L 345.5 349 L 351.5 349 L 357 344.5 L 358 342.5 L 350 337 L 348.5 340 L 346 340 Q 347.9 335.2 344.5 336 L 344.5 335 L 351.5 336 L 367.5 328 Z M 361 333 L 359 338 L 366 337 L 361 333 Z " /><path fill="rgb(239,209,82)" stroke="rgb(239,209,82)" stroke-width="0.6" opacity="1" d="M 227 335 L 230 336.5 L 241.5 351 Q 252.8 360.7 268 366.5 L 265.5 368 L 257.5 363 L 255.5 363 L 248 358.5 L 246.5 357 L 231 343.5 L 228.5 338 Q 225.5 338.7 227 335 Z " /><path fill="rgb(239,209,82)" stroke="rgb(239,209,82)" stroke-width="0.6" opacity="1" d="M 370.5 339 L 372 341.5 L 366.5 350 L 362 349.5 L 370.5 339 Z " /><path fill="rgb(239,209,82)" stroke="rgb(239,209,82)" stroke-width="0.6" opacity="1" d="M 357.5 353 L 358 356.5 L 349.5 362 L 347 361 Q 348.5 364.8 345.5 364 L 337.5 368 L 336 365 Q 349 361.7 357.5 353 Z " /><path fill="rgb(239,209,82)" stroke="rgb(239,209,82)" stroke-width="0.6" opacity="1" d="M 333.5 366 L 334 370 L 328 369 L 326.5 372 L 323.5 374 L 308.5 374 L 305 371.5 Q 322.4 371.9 333.5 366 Z " /><path fill="rgb(239,209,82)" stroke="rgb(239,209,82)" stroke-width="0.6" opacity="1" d="M 275.5 368 L 301 372.5 Q 293.9 375.4 282.5 374 L 276 370.5 L 275.5 368 Z " /><path fill="rgb(239,209,82)" stroke="rgb(239,209,82)" stroke-width="0.6" opacity="1" d="M 205.5 395 L 207 396.5 L 213 400.5 L 216.5 407 Q 222 406 223 409.5 L 227 416 L 234.5 417 L 239.5 416 L 245 424.5 L 242.5 425 Q 224.2 418.8 213 405.5 L 205.5 395 Z " /><path fill="rgb(239,209,82)" stroke="rgb(239,209,82)" stroke-width="0.6" opacity="1" d="M 292.5 409 L 296 409.5 L 274.5 424 Q 265.8 427.8 252.5 427 L 246 426 L 247.5 424 L 248.5 423 L 268.5 423 L 284 416 L 285 412 L 292.5 409 Z " /><path fill="rgb(239,209,82)" stroke="rgb(239,209,82)" stroke-width="0.6" opacity="1" d="M 176 411 L 189 414.5 L 187 417.5 L 193 419 Q 191.7 422.3 196.5 421 L 200 420 L 200 418 L 195 418 L 195 416.5 L 194 414.5 L 195.5 415 L 215 416 L 213.5 419 Q 206.2 423.2 194.5 423 Q 181.9 421.6 176 413.5 L 176 411 Z " /><path fill="rgb(40,42,43)" stroke="rgb(40,42,43)" stroke-width="0.6" opacity="1" d="M 175.5 76 L 188 76.5 L 175.5 77 L 175.5 76 Z " /><path fill="rgb(40,42,43)" stroke="rgb(40,42,43)" stroke-width="0.6" opacity="1" d="M 102.5 96 L 97.5 102 L 102.5 96 Z " /><path fill="rgb(40,42,43)" stroke="rgb(40,42,43)" stroke-width="0.6" opacity="1" d="M 355.5 138 L 350.5 144 L 355.5 138 Z " /><path fill="rgb(40,42,43)" stroke="rgb(40,42,43)" stroke-width="0.6" opacity="1" d="M 92.5 146 L 96 148.5 L 94.5 149 L 93 148.5 L 95 151.5 L 92 149.5 L 92.5 146 Z " /><path fill="rgb(40,42,43)" stroke="rgb(40,42,43)" stroke-width="0.6" opacity="1" d="M 84.5 154 L 85 171.5 L 84 171.5 L 84.5 154 Z " /><path fill="rgb(40,42,43)" stroke="rgb(40,42,43)" stroke-width="0.6" opacity="1" d="M 130.5 207 L 139 207.5 L 129.5 209 L 130.5 207 Z " /><path fill="rgb(40,42,43)" stroke="rgb(40,42,43)" stroke-width="0.6" opacity="1" d="M 305.5 212 L 317 212.5 L 305.5 213 L 305.5 212 Z " /><path fill="rgb(40,42,43)" stroke="rgb(40,42,43)" stroke-width="0.6" opacity="1" d="M 402.5 216 L 400.5 221 L 397.5 222 L 402.5 216 Z " /><path fill="rgb(40,42,43)" stroke="rgb(40,42,43)" stroke-width="0.6" opacity="1" d="M 371.5 318 L 366.5 324 L 371.5 318 Z " /><path fill="rgb(40,42,43)" stroke="rgb(40,42,43)" stroke-width="0.6" opacity="1" d="M 294.5 370 L 310 370.5 L 294.5 371 L 294.5 370 Z " /><path fill="rgb(40,42,43)" stroke="rgb(40,42,43)" stroke-width="0.6" opacity="1" d="M 374.5 372 L 369.5 378 L 374.5 372 Z " /><path fill="rgb(234,228,207)" stroke="rgb(234,228,207)" stroke-width="0.6" opacity="1" d="M 377.5 132 Q 390.1 130.4 394 137.5 Q 397.7 141.8 396 151.5 L 388.5 167 L 388 163.5 L 391.5 157 L 394 155.5 L 393 149 Q 397 150.2 395 144 L 393 142.5 L 394 139 L 387 136 L 386.5 134 L 377.5 135 L 373 133.5 L 377.5 132 Z " /><path fill="rgb(234,228,207)" stroke="rgb(234,228,207)" stroke-width="0.6" opacity="1" d="M 371.5 134 L 370.5 136 Q 367.5 135.2 369 139 L 365.5 139 L 360 142.5 L 361 143.5 L 357.5 147 L 356 146.5 Q 357.5 151.8 353 150 L 361.5 140 L 371.5 134 Z " /><path fill="rgb(234,228,207)" stroke="rgb(234,228,207)" stroke-width="0.6" opacity="1" d="M 355.5 137 L 350.5 143 L 355.5 137 Z " /><path fill="rgb(234,228,207)" stroke="rgb(234,228,207)" stroke-width="0.6" opacity="1" d="M 351.5 151 L 351 152.5 Q 352 158 348.5 159 L 346 160.5 Q 347.1 163.8 344.5 163 L 343 163.5 L 351.5 151 Z " /><path fill="rgb(234,228,207)" stroke="rgb(234,228,207)" stroke-width="0.6" opacity="1" d="M 113.5 156 L 117 158.5 L 115.5 164 L 111 162.5 Q 110 157 113.5 156 Z " /><path fill="rgb(234,228,207)" stroke="rgb(234,228,207)" stroke-width="0.6" opacity="1" d="M 342 165 L 344 166.5 L 343 171 Q 338.9 169.3 340 173.5 L 341 176 L 338 177.5 L 339 181 L 336 182.5 L 337 187 Q 332.5 185.3 334 190.5 L 335 193 L 331.5 194 L 332 192.5 L 342 165 Z " /><path fill="rgb(234,228,207)" stroke="rgb(234,228,207)" stroke-width="0.6" opacity="1" d="M 408.5 166 Q 419.4 165.6 423 172.5 Q 425.9 176.1 425 183.5 Q 418.5 203.5 403.5 215 L 395 222.5 L 396 224.5 L 394 223.5 L 404.5 209 L 411 205.5 L 419 193.5 L 418 191.5 L 421 190 L 422 187.5 L 421 185 L 424 183.5 L 423 176 L 421 174.5 L 422 172.5 L 414.5 168 L 408.5 169 L 404 167.5 L 408.5 166 Z " /><path fill="rgb(234,228,207)" stroke="rgb(234,228,207)" stroke-width="0.6" opacity="1" d="M 386.5 168 L 387 169.5 L 374.5 185 L 375 183.5 Q 375.3 176.3 380.5 174 L 383 172.5 L 384.5 170 L 386.5 168 Z " /><path fill="rgb(234,228,207)" stroke="rgb(234,228,207)" stroke-width="0.6" opacity="1" d="M 401.5 168 L 403 168.5 L 399.5 173 L 396 172 Q 397.3 175.3 392.5 174 L 392.5 173 L 401.5 168 Z " /><path fill="rgb(234,228,207)" stroke="rgb(234,228,207)" stroke-width="0.6" opacity="1" d="M 387.5 177 L 388 179.5 L 375.5 192 L 373.5 192 L 387.5 177 Z " /><path fill="rgb(234,228,207)" stroke="rgb(234,228,207)" stroke-width="0.6" opacity="1" d="M 371.5 186 L 373 186.5 L 368 194.5 L 368.5 196 Q 365.2 197.1 366 194.5 L 371.5 186 Z " /><path fill="rgb(234,228,207)" stroke="rgb(234,228,207)" stroke-width="0.6" opacity="1" d="M 330.5 196 L 332 198.5 L 330 204 L 334 205 Q 332.6 208.7 338.5 207 L 341 207.5 L 341 210 L 343 211.5 L 340.5 210 L 328 206.5 L 330.5 196 Z " /><path fill="rgb(234,228,207)" stroke="rgb(234,228,207)" stroke-width="0.6" opacity="1" d="M 157.5 203 L 158 205.5 Q 154.1 215.6 146.5 222 Q 141.2 227.7 128.5 226 L 124 222.5 L 122 214 L 125 215.5 L 127.5 220 L 135.5 221 L 140 219 L 139 221.5 L 139.5 224 L 148 217.5 L 146.5 215 L 145 214.5 L 153.5 205 L 157.5 203 Z " /><path fill="rgb(234,228,207)" stroke="rgb(234,228,207)" stroke-width="0.6" opacity="1" d="M 419.5 213 Q 430.8 211.7 434 218.5 L 430.5 219 L 428 215 L 419.5 214 L 419.5 213 Z " /><path fill="rgb(234,228,207)" stroke="rgb(234,228,207)" stroke-width="0.6" opacity="1" d="M 414.5 214 L 416 214.5 L 415 218 L 409.5 220 L 408 217 L 414.5 214 Z " /><path fill="rgb(234,228,207)" stroke="rgb(234,228,207)" stroke-width="0.6" opacity="1" d="M 345.5 215 L 348 216 Q 346.3 220.1 350.5 219 L 352.5 220 L 357 219 L 357.5 217 L 369 217 L 370.5 220 L 380 225 L 381.5 229 L 383 230.5 Q 381.5 233.5 380 230.5 L 380 228.5 L 373.5 222 Q 367.4 218.1 355.5 220 L 347 223 L 345.5 215 Z " /><path fill="rgb(234,228,207)" stroke="rgb(234,228,207)" stroke-width="0.6" opacity="1" d="M 406.5 218 L 405.5 220 L 401 222 Q 402.3 225.3 397.5 224 L 397.5 223 L 406.5 218 Z " /><path fill="rgb(234,228,207)" stroke="rgb(234,228,207)" stroke-width="0.6" opacity="1" d="M 434.5 220 L 436 228.5 Q 434.6 239.1 428.5 245 L 428 241.5 L 432 238.5 L 431 235 L 434 233.5 L 434 227.5 Q 431 228.3 432 224 Q 435.5 225.2 434.5 220 Z " /><path fill="rgb(234,228,207)" stroke="rgb(234,228,207)" stroke-width="0.6" opacity="1" d="M 381.5 240 L 387.5 244 L 388.5 243 L 395 249.5 L 393.5 250 Q 390 243.5 380 245 L 381.5 240 Z " /><path fill="rgb(234,228,207)" stroke="rgb(234,228,207)" stroke-width="0.6" opacity="1" d="M 425.5 246 L 427 246.5 L 410.5 261 L 410 259.5 L 413.5 255 L 419 253.5 L 421 250.5 L 425.5 246 Z " /><path fill="rgb(234,228,207)" stroke="rgb(234,228,207)" stroke-width="0.6" opacity="1" d="M 394.5 251 L 397 256 L 399 256.5 L 399 263 L 396 264.5 L 397 270 Q 393.7 268.7 395 273.5 L 394 274.5 L 396.5 278 L 392 272.5 Q 397.2 267.2 396 255.5 L 394.5 251 Z " /><path fill="rgb(234,228,207)" stroke="rgb(234,228,207)" stroke-width="0.6" opacity="1" d="M 415.5 262 L 421 264.5 L 419.5 265 L 410 263.5 L 415.5 262 Z " /><path fill="rgb(234,228,207)" stroke="rgb(234,228,207)" stroke-width="0.6" opacity="1" d="M 422.5 266 L 424 273.5 Q 421.7 284.7 414.5 291 L 415 289.5 L 418 281.5 L 417 279 L 419.5 278 L 421 278.5 L 422 273.5 L 421 269.5 L 422.5 266 Z " /><path fill="rgb(234,228,207)" stroke="rgb(234,228,207)" stroke-width="0.6" opacity="1" d="M 398 279 L 401 280.5 L 400 282.5 L 401 290.5 L 400 294.5 L 405 298 L 409.5 291 L 413 292.5 Q 406.6 299.8 396 302 Q 399.8 296 400 285.5 L 398 279 Z " /><path fill="rgb(234,228,207)" stroke="rgb(234,228,207)" stroke-width="0.6" opacity="1" d="M 183.5 426 L 184 428 L 186.5 429 L 187 427 L 185 426.5 L 186.5 426 L 191 428.5 Q 188.7 432 183 431 L 181.5 434 L 179 435.5 L 178 439 L 172.5 442 L 159.5 442 L 158 443.5 L 158.5 445 L 156.5 445 L 145.5 446 L 144 443.5 Q 145.9 440.4 152 441.5 L 143.5 441 L 141 442 L 140.5 444 L 136.5 443 L 137.5 447 L 142 447.5 L 133.5 452 L 126.5 452 L 124 449.5 L 128.5 445 L 142.5 440 L 173.5 439 L 178 435.5 L 183.5 426 Z " /><path fill="rgb(234,228,207)" stroke="rgb(234,228,207)" stroke-width="0.6" opacity="1" d="M 194.5 442 L 197.5 446 L 208.5 448 L 212 450.5 L 210.5 452 L 200.5 457 L 200.5 456 L 203.5 454 L 208 451.5 L 207 449 L 201 450 Q 202.3 446.7 197.5 448 L 195 447 L 194.5 442 Z " /><path fill="rgb(234,228,207)" stroke="rgb(234,228,207)" stroke-width="0.6" opacity="1" d="M 158.5 446 L 158 447.5 L 159.5 449 L 166 452 L 167.5 450 L 170 453.5 L 167 460 L 162.5 463 L 159 463 L 158 467.5 L 158.5 471 L 156 469.5 L 157 464.5 L 164.5 457 L 169 453.5 L 165.5 453 L 157.5 458 Q 157.5 451.3 154 449 Q 149.9 447.3 151 451.5 L 148 449.5 L 158.5 446 Z " /><path fill="rgb(234,228,207)" stroke="rgb(234,228,207)" stroke-width="0.6" opacity="1" d="M 145.5 450 L 145 451.5 Q 146.3 455.3 142.5 454 Q 140.5 459 138.5 456 L 134 458.5 L 135.5 462 L 141.5 463 L 149.5 461 L 149.5 462 L 139.5 465 L 133.5 465 L 131 460.5 Q 136.2 453.2 145.5 450 Z " /><path fill="rgb(234,228,207)" stroke="rgb(234,228,207)" stroke-width="0.6" opacity="1" d="M 189.5 456 L 192 456.5 L 182.5 461 L 183.5 459 L 189.5 456 Z " /><path fill="rgb(234,228,207)" stroke="rgb(234,228,207)" stroke-width="0.6" opacity="1" d="M 168.5 460 L 177 463.5 L 169 468 Q 167.8 465 171.5 466 L 171.5 465 L 170 463.5 L 168.5 460 Z " /><path fill="rgb(78,70,65)" stroke="rgb(78,70,65)" stroke-width="0.6" opacity="1" d="M 145.5 89 L 140.5 95 L 145.5 89 Z " /><path fill="rgb(78,70,65)" stroke="rgb(78,70,65)" stroke-width="0.6" opacity="1" d="M 107.5 98 L 102.5 104 L 107.5 98 Z " /><path fill="rgb(78,70,65)" stroke="rgb(78,70,65)" stroke-width="0.6" opacity="1" d="M 95.5 171 L 97 173.5 L 96.5 175 L 98 175.5 L 97.5 178 Q 93.8 176 95.5 171 Z " /><path fill="rgb(78,70,65)" stroke="rgb(78,70,65)" stroke-width="0.6" opacity="1" d="M 394.5 301 L 395 303 L 398.5 302 L 399 304 L 401 304.5 L 394.5 305 L 394 302.5 L 394.5 301 Z " /><path fill="rgb(78,70,65)" stroke="rgb(78,70,65)" stroke-width="0.6" opacity="1" d="M 155.5 438 L 172 438.5 L 155.5 439 L 155.5 438 Z " /><path fill="rgb(112,110,95)" stroke="rgb(112,110,95)" stroke-width="0.6" opacity="1" d="M 83.5 284 L 84 297.5 L 83 297.5 L 83.5 284 Z " /><path fill="rgb(112,110,95)" stroke="rgb(112,110,95)" stroke-width="0.6" opacity="1" d="M 299.5 406 L 294.5 412 L 299.5 406 Z " /><path fill="rgb(143,55,49)" stroke="rgb(143,55,49)" stroke-width="0.6" opacity="1" d="M 167.5 31 L 172.5 37 L 167.5 31 Z " /><path fill="rgb(143,55,49)" stroke="rgb(143,55,49)" stroke-width="0.6" opacity="1" d="M 206.5 158 L 205 160.5 L 204.5 168 L 204 160.5 L 206.5 158 Z " /><path fill="rgb(143,55,49)" stroke="rgb(143,55,49)" stroke-width="0.6" opacity="1" d="M 143.5 178 L 149.5 185 L 143.5 178 Z " /><path fill="rgb(143,55,49)" stroke="rgb(143,55,49)" stroke-width="0.6" opacity="1" d="M 105.5 206 L 116 206.5 L 105.5 207 L 105.5 206 Z " /><path fill="rgb(162,141,66)" stroke="rgb(162,141,66)" stroke-width="0.6" opacity="1" d="M 244.5 259 L 239.5 265 L 244.5 259 Z " /><path fill="rgb(162,141,66)" stroke="rgb(162,141,66)" stroke-width="0.6" opacity="1" d="M 226.5 301 L 227 313.5 L 226 313.5 L 226.5 301 Z " /><path fill="rgb(162,141,66)" stroke="rgb(162,141,66)" stroke-width="0.6" opacity="1" d="M 239.5 342 L 244.5 348 L 239.5 342 Z " /><path fill="rgb(194,192,187)" stroke="rgb(194,192,187)" stroke-width="0.6" opacity="1" d="M 426.5 247 L 421.5 253 L 426.5 247 Z " /><path fill="rgb(153,151,148)" stroke="rgb(153,151,148)" stroke-width="0.6" opacity="1" d="M 79.5 146 L 80 161.5 L 79 161.5 L 79.5 146 Z " /><path fill="rgb(153,151,148)" stroke="rgb(153,151,148)" stroke-width="0.6" opacity="1" d="M 379.5 184 L 373.5 191 L 379.5 184 Z " /><path fill="rgb(153,151,148)" stroke="rgb(153,151,148)" stroke-width="0.6" opacity="1" d="M 305.5 207 L 317 207.5 L 305.5 208 L 305.5 207 Z " /><path fill="rgb(153,151,148)" stroke="rgb(153,151,148)" stroke-width="0.6" opacity="1" d="M 431.5 250 L 425.5 257 L 431.5 250 Z " /><path fill="rgb(153,151,148)" stroke="rgb(153,151,148)" stroke-width="0.6" opacity="1" d="M 108.5 371 L 116.5 380 L 108.5 371 Z " /><path fill="rgb(153,151,148)" stroke="rgb(153,151,148)" stroke-width="0.6" opacity="1" d="M 203.5 456 L 202.5 458 L 193 457.5 L 203.5 456 Z " /><path fill="rgb(201,184,80)" stroke="rgb(201,184,80)" stroke-width="0.6" opacity="1" d="M 305.5 213 L 317 213.5 L 305.5 214 L 305.5 213 Z " /><path fill="rgb(201,184,80)" stroke="rgb(201,184,80)" stroke-width="0.6" opacity="1" d="M 327.5 300 L 322.5 306 L 327.5 300 Z " /><path fill="rgb(201,184,80)" stroke="rgb(201,184,80)" stroke-width="0.6" opacity="1" d="M 370.5 318 L 365.5 324 L 370.5 318 Z " /><path fill="rgb(201,184,80)" stroke="rgb(201,184,80)" stroke-width="0.6" opacity="1" d="M 236.5 345 L 241.5 351 L 236.5 345 Z " /><path fill="rgb(201,184,80)" stroke="rgb(201,184,80)" stroke-width="0.6" opacity="1" d="M 374.5 371 L 365.5 381 L 374.5 371 Z " /><path fill="rgb(201,184,80)" stroke="rgb(201,184,80)" stroke-width="0.6" opacity="1" d="M 207.5 415 L 215.5 415 L 216 417.5 L 215 417.5 Q 215.4 414.3 207.5 416 L 207.5 415 Z " /></svg>