<svg width="627" height="627" preserveAspectRatio="xMidYMid meet" viewBox="0 0 512 512" version="1.1" xmlns="http://www.w3.org/2000/svg" ><path fill="rgb(255,255,255)" stroke="rgb(255,255,255)" stroke-width="0.6" opacity="1" d="M 0 0 L 512 0 L 512 512 L 0 512 L 0 0 Z M 406 45 L 404 46 L 397 53 L 388 71 L 379 68 L 372 68 L 370 66 L 366 62 L 345 63 L 329 72 L 322 62 L 312 52 L 307 52 Q 298 57 297 69 L 297 92 L 285 98 Q 269 110 261 129 Q 256 136 246 139 L 247 144 Q 251 151 262 149 L 253 170 L 245 177 L 237 178 L 235 180 L 236 185 L 244 191 L 253 195 L 252 197 L 243 203 Q 234 201 232 205 L 234 216 Q 238 222 246 224 Q 252 223 251 226 L 242 233 L 234 231 L 211 231 L 200 235 L 188 218 Q 178 207 163 203 L 139 203 L 121 211 L 106 227 L 90 268 L 81 274 L 74 274 L 68 269 L 64 269 L 60 274 Q 59 284 64 289 L 62 293 Q 61 304 66 310 L 79 321 Q 86 327 101 325 L 111 332 L 126 331 L 142 323 Q 151 316 156 304 L 160 289 L 160 279 L 165 268 L 171 263 L 173 264 L 167 279 L 166 318 L 163 326 L 158 330 L 145 334 L 138 343 Q 136 362 127 376 L 118 381 L 114 386 L 106 391 Q 99 396 97 406 Q 95 420 101 428 Q 105 434 114 437 Q 127 439 133 433 L 151 411 L 167 373 L 177 365 L 199 360 L 210 353 L 211 354 L 205 362 L 206 377 Q 220 389 228 408 L 229 419 L 235 427 L 235 440 Q 240 447 253 448 Q 268 450 278 446 L 283 440 L 283 432 L 276 418 L 276 413 L 273 405 L 252 382 L 248 374 L 261 365 L 263 362 L 270 355 L 292 355 L 314 379 L 318 390 L 332 409 Q 339 419 338 437 L 342 442 Q 341 451 344 457 Q 349 465 362 466 Q 380 468 390 462 L 395 455 L 395 447 L 391 437 Q 384 431 382 421 L 370 406 L 364 394 L 360 374 L 343 348 L 350 343 L 365 349 L 391 353 L 398 360 Q 399 369 395 374 L 392 376 Q 384 380 382 390 Q 381 405 388 413 L 404 424 Q 413 425 419 421 Q 434 407 438 383 L 438 364 L 434 350 L 434 343 L 430 333 L 422 325 L 395 314 L 382 304 L 383 299 L 383 277 L 373 249 L 384 255 L 391 256 Q 400 257 406 253 Q 414 249 415 238 L 418 235 Q 426 236 431 233 L 439 228 Q 447 221 451 210 L 451 188 L 447 181 L 438 175 L 431 165 L 430 139 L 426 125 Q 422 114 414 108 L 416 104 L 414 99 L 420 86 L 420 66 L 413 49 Q 411 45 406 45 Z " /><path fill="rgb(151,94,56)" stroke="rgb(151,94,56)" stroke-width="0.6" opacity="1" d="M 308 58 L 310.5 58 L 317 64.5 L 329 84.5 L 330 104.5 L 331.5 106 L 334 104.5 L 335.5 102 L 338.5 106 Q 343.1 111.9 353.5 112 L 355.5 112 L 366.5 119 L 382.5 121 L 386 118.5 L 386.5 116 L 399.5 116 Q 403.8 111.2 412 112 L 418 124 L 411.5 123 L 409 128 L 416.5 128 L 422 131 Q 425.1 136.6 424 147.5 L 422 146.5 L 421 143 Q 418.2 139.7 409.5 141 L 404 149.5 L 404 159.5 L 410.5 170 L 413 171.5 L 411.5 174 L 398.5 175 L 381.5 182 L 365 196.5 L 359 207.5 L 355.5 220 L 334.5 215 Q 323.8 210.2 317 201.5 L 313 194.5 L 308 171.5 L 306.5 170 Q 303.2 173.2 304 180.5 Q 306.8 198.7 317.5 209 L 335.5 221 Q 344.2 225.3 357.5 225 L 362 229.5 L 372 264.5 L 372 266.5 L 371 270.5 L 375.5 274 L 377 273.5 L 379 289.5 L 378 292.5 L 376 306.5 L 372 315.5 L 354.5 335 Q 349.8 339.8 340.5 340 Q 337 337 337 330.5 L 329.5 320 L 328 324.5 L 333 340.5 Q 342.1 361.9 356 378.5 L 357 383.5 L 356 385.5 L 358 390.5 L 358 392.5 L 362 402.5 L 377 423.5 L 378 428.5 L 354.5 437 L 346.5 438 L 343 434.5 L 341 417.5 L 337 406.5 L 325 391.5 Q 323.1 379.4 316 372.5 L 288 343.5 L 281 329.5 L 281 324 L 277 325.5 L 277 330.5 L 285 346.5 Q 278.8 350.3 267.5 349 L 251.5 345 L 224 331.5 L 226 314.5 L 224.5 311 L 223 312.5 L 223 319.5 L 218 335.5 L 208.5 348 L 197.5 355 L 172.5 361 L 162 370.5 Q 153.6 384.6 149 402.5 L 142 414 L 131.5 415 Q 123.4 412.1 119 405.5 L 116 397.5 L 116 392.5 L 121.5 385 Q 128.2 384.7 131 380.5 Q 140.6 366.1 143 344.5 L 148 338 L 158.5 336 L 168 328.5 L 172 318.5 L 173 276.5 L 178 263.5 L 194.5 244 L 208.5 237 L 216.5 236 L 227.5 237 L 230.5 236 L 252.5 243 L 264.5 243 L 273 239 L 273 244 L 274.5 244 Q 284.4 232.9 289 216.5 L 299 147.5 Q 302.7 130 311 118 L 315 116.5 L 305 103.5 L 302 94.5 L 301 82.5 L 304 64.5 L 308 58 Z M 309 68 L 307 75 Q 306 96 316 107 L 323 110 L 325 104 L 323 88 L 312 70 Q 313 67 309 68 Z M 345 125 L 341 127 L 337 135 L 348 130 L 350 131 L 353 130 Q 355 131 354 128 Q 352 123 345 125 Z M 348 143 L 343 146 L 338 152 L 336 161 L 337 170 L 348 179 L 360 178 L 367 169 L 367 159 L 362 148 Q 359 141 348 143 Z " /><path fill="rgb(151,94,56)" stroke="rgb(151,94,56)" stroke-width="0.6" opacity="1" d="M 353.5 67 L 362 68 L 360.5 70 L 356 72 Q 354.8 75 358.5 74 Q 363.2 70.7 372.5 72 L 386.5 76 L 390 79.5 L 391.5 82 L 397 86.5 Q 398.9 91.9 395.5 91 L 385 87 L 386.5 89 L 409 103.5 L 406.5 108 Q 400.9 112.4 390.5 112 L 381.5 110 L 368.5 101 L 367 102.5 L 373 108.5 L 374.5 111 L 379 114.5 Q 379.4 117.8 371.5 116 Q 358.6 112.4 351 103.5 L 347.5 98 Q 344.9 97.2 346 100.5 L 348 105.5 L 344.5 106 L 338 100.5 L 335 95.5 L 335 88.5 L 332 77.5 Q 338.6 68.1 353.5 67 Z " /><path fill="rgb(151,94,56)" stroke="rgb(151,94,56)" stroke-width="0.6" opacity="1" d="M 411.5 145 Q 418.4 144.1 420 148.5 Q 423 153.8 422 162 L 419 160.5 Q 420.1 151.9 414.5 150 Q 409.3 151.3 408 148.5 L 411.5 145 Z " /><path fill="rgb(151,94,56)" stroke="rgb(151,94,56)" stroke-width="0.6" opacity="1" d="M 349.5 147 Q 356.8 146 359 149 Q 364.5 153.8 364 165.5 L 363 170.5 L 360.5 173 L 359 172.5 Q 362.2 170.2 361 163.5 L 355.5 155 L 348.5 154 Q 342.9 156.9 342 163 Q 338.5 164.1 340 156.5 L 347.5 148 L 349.5 147 Z " /><path fill="rgb(151,94,56)" stroke="rgb(151,94,56)" stroke-width="0.6" opacity="1" d="M 400.5 178 L 433.5 178 L 444 185.5 L 446 189.5 L 447 199.5 L 446 202.5 Q 444.6 218.6 433.5 225 Q 423.5 232.5 404.5 231 L 387.5 225 L 377 216.5 L 375 211.5 L 376 208 Q 369.6 207 368 212.5 Q 367.2 215.1 370.5 214 L 373 216.5 L 376 232.5 L 387.5 245 L 394.5 246 Q 403.2 243.7 407.5 237 L 410 237 Q 408.6 244.3 402.5 248 L 391.5 251 L 388.5 250 Q 380.8 249.5 377 246 L 372 239.5 L 367 227.5 L 360 220.5 L 360 216.5 L 364 204.5 L 366.5 202 L 369 200.5 L 373.5 194 L 377 191.5 L 380.5 187 Q 388.5 180.5 400.5 178 Z M 437 188 Q 431 190 433 199 L 438 200 L 441 196 L 440 191 L 437 188 Z M 394 191 L 390 197 L 392 202 L 396 204 Q 401 205 402 203 L 401 195 Q 400 190 394 191 Z " /><path fill="rgb(151,94,56)" stroke="rgb(151,94,56)" stroke-width="0.6" opacity="1" d="M 393.5 382 L 395 383.5 Q 398 393.9 406.5 399 L 423 405 Q 422.3 412.5 416.5 416 L 405.5 419 L 396 415 L 394 411.5 L 387 399.5 L 387 390.5 L 393.5 382 Z " /><path fill="rgb(0,0,0)" stroke="rgb(0,0,0)" stroke-width="0.6" opacity="1" d="M 405.5 46 L 412 49.5 L 419 65.5 L 419 85.5 L 413 99.5 L 415 103.5 L 413 107.5 Q 421.3 115.2 426 126.5 L 429 137.5 L 430 164.5 L 438.5 177 L 447 182.5 Q 453.7 189.8 451 206.5 Q 447.1 220.6 436.5 228 Q 429.2 234.2 416.5 235 L 414 237.5 Q 413.6 247.6 406.5 251 Q 401.9 255.9 391.5 255 L 383.5 254 L 373.5 247 L 372 250.5 L 382 275.5 L 383 296.5 Q 379.8 297.8 381 303.5 L 393.5 315 L 422.5 327 L 429 333.5 L 434 344.5 Q 432.9 356.1 437 362.5 L 437 383.5 Q 432.1 407.6 416.5 421 Q 412.1 424.1 403.5 423 L 390 413.5 Q 381.5 406 383 388.5 L 396 373.5 Q 400.3 369.3 399 359.5 L 394.5 354 L 387.5 351 L 364.5 348 L 349.5 342 L 342 346.5 L 346 356.5 Q 354.4 363.1 359 373.5 L 363 393.5 L 368 404.5 L 380 419.5 L 385 431.5 L 393 443.5 L 394 454.5 L 388.5 461 Q 379.4 467.4 361.5 465 Q 351.2 463.8 346 457.5 Q 341.6 452.3 343 441.5 L 339 436.5 L 338 421.5 L 333 408.5 L 320 390.5 L 315 377.5 L 293.5 355 L 268.5 354 L 257.5 366 L 247 373.5 L 249 379.5 L 272 405.5 L 276 414.5 L 276 420.5 L 282 431.5 L 282 439.5 L 277.5 445 L 267.5 448 L 257.5 448 L 244.5 445 L 236 438.5 L 235 424.5 L 230 418.5 L 229 407.5 L 223 395.5 L 207 376.5 L 206 361.5 L 212.5 353 L 218 348.5 L 219 343 L 214 346.5 L 209.5 352 L 198.5 359 L 176.5 364 L 165 373.5 L 149 411.5 L 130.5 433 L 124.5 436 L 115.5 437 L 103 428.5 L 98 418.5 L 97 408.5 Q 99 396.5 107.5 391 L 115 385.5 L 117.5 382 Q 125.6 380.6 129 374.5 Q 136.2 362.2 138 344.5 L 144.5 335 L 157.5 331 L 164 325.5 L 166 320.5 L 166 287.5 L 174 262.5 L 171.5 261 L 165 265.5 L 159 278.5 L 159 289.5 L 154 305.5 L 142.5 321 L 122.5 331 L 110.5 331 L 101.5 325 L 91.5 325 L 82.5 322 L 69 311.5 Q 62.2 305.8 62 293.5 L 66 290.5 Q 60.5 285 61 273.5 L 64.5 269 L 73.5 275 L 81.5 275 L 92 266.5 L 101 239.5 L 107 227.5 L 122.5 211 L 141.5 203 L 159.5 203 Q 179.4 207.6 190 221.5 L 198.5 236 L 213.5 231 L 230.5 231 Q 234.5 234.5 243.5 233 L 252 225.5 L 252 223 L 245.5 223 L 235 215.5 L 233 205.5 L 236.5 203 L 242.5 204 L 253 196.5 L 254 193.5 Q 252.8 190.8 247.5 192 L 238 185.5 L 236 180.5 L 246.5 177 L 254 170.5 L 264 149 Q 253 149.8 248 143.5 L 247 139.5 L 256.5 135 L 262 129.5 Q 269.3 111.3 283.5 100 L 297 92.5 Q 293.6 64.6 306.5 53 L 312.5 54 L 322 63.5 L 328.5 73 L 347.5 63 L 362.5 62 L 371.5 68 L 376.5 68 L 387.5 72 L 398 53.5 L 405.5 46 Z M 407 51 L 391 76 L 399 81 L 403 67 L 405 65 Q 404 62 408 63 L 409 73 L 405 70 L 401 82 L 403 95 L 409 97 L 415 85 L 415 67 L 410 54 L 407 51 Z M 310 57 L 303 66 L 301 76 L 302 97 Q 305 109 314 116 L 312 117 Q 302 130 298 149 L 289 215 Q 284 231 275 243 L 273 238 L 266 242 L 252 242 L 233 236 L 210 236 L 193 245 Q 178 257 172 278 L 171 319 L 168 328 L 163 333 L 148 338 L 142 346 Q 140 366 131 379 Q 129 384 122 384 L 116 391 Q 115 401 119 407 Q 125 416 141 416 L 150 403 Q 154 385 162 372 L 172 362 L 197 356 L 207 350 L 217 339 L 223 321 L 223 313 L 225 312 L 224 332 L 253 346 L 270 350 L 287 350 L 278 331 Q 276 324 280 325 Q 282 337 288 345 L 321 381 L 324 391 L 336 407 L 341 419 L 342 435 L 347 439 L 373 432 L 379 429 L 378 424 L 361 400 Q 356 392 357 379 Q 338 357 329 326 Q 327 321 331 322 L 336 331 L 340 341 Q 350 340 356 335 L 373 315 Q 378 307 379 296 Q 381 283 377 276 Q 379 270 374 272 L 372 271 L 372 262 L 367 243 L 362 229 L 357 224 L 349 224 L 337 221 L 321 211 Q 308 201 305 182 L 306 175 Q 305 171 308 172 Q 308 192 318 204 Q 330 219 357 220 L 358 219 L 360 207 L 369 194 Q 376 185 388 180 L 402 175 Q 410 177 414 173 L 426 174 L 430 173 L 426 165 Q 428 159 424 160 L 423 164 Q 424 153 420 148 L 415 144 L 411 145 L 408 149 L 410 151 L 414 150 L 419 157 L 419 165 L 421 165 L 420 169 Q 419 172 413 171 Q 406 166 404 157 L 404 152 L 408 144 L 412 141 L 419 142 L 423 149 L 425 150 L 423 132 Q 420 127 411 128 Q 407 126 412 124 Q 418 123 420 126 L 419 122 L 412 111 L 397 116 L 387 115 L 384 120 Q 373 121 366 118 L 357 111 L 349 111 L 341 107 L 337 103 Q 335 99 333 104 L 331 105 L 330 86 L 318 65 L 310 57 Z M 348 67 Q 337 70 331 78 L 335 91 L 335 97 L 339 103 L 346 107 L 349 106 L 347 102 L 349 100 L 350 103 Q 357 112 370 116 L 380 116 L 380 115 L 372 107 L 369 103 L 383 111 L 388 112 Q 402 114 408 108 L 410 104 L 393 93 L 391 90 L 397 92 L 399 91 L 397 86 L 386 75 L 375 72 L 362 72 L 361 73 L 359 71 L 364 69 L 364 67 L 348 67 Z M 298 97 L 285 105 Q 272 115 266 131 L 253 142 L 255 144 L 269 143 L 271 140 L 276 136 L 258 172 L 248 181 L 241 184 L 247 188 Q 259 190 266 185 L 276 172 Q 275 168 278 169 L 275 179 Q 271 186 262 189 L 255 202 L 248 207 L 240 208 L 237 211 L 238 214 L 249 220 L 260 219 L 263 220 L 260 221 L 255 229 L 247 236 L 253 238 Q 266 240 273 235 L 279 229 L 285 214 L 287 205 L 289 179 L 291 177 L 293 153 L 301 127 L 308 117 L 308 114 L 300 102 L 300 99 L 298 97 Z M 403 177 Q 389 180 380 187 L 363 206 L 359 221 L 363 223 Q 370 231 373 243 Q 378 249 387 251 Q 399 253 405 248 L 411 239 L 410 235 L 398 245 L 387 244 L 385 241 Q 389 244 398 243 Q 400 242 399 237 L 395 233 Q 393 231 392 234 L 390 233 L 383 226 L 379 228 Q 378 233 381 235 L 381 237 L 376 232 L 373 216 L 372 214 Q 368 215 369 213 Q 370 208 375 209 L 377 218 L 390 227 L 408 232 L 425 230 L 434 226 Q 444 219 447 205 Q 449 190 443 184 L 433 177 L 403 177 Z M 140 208 L 125 215 L 110 231 L 103 246 Q 102 260 95 270 Q 91 276 83 279 L 71 278 L 68 276 L 65 278 L 67 288 Q 72 296 84 298 Q 93 298 98 294 L 106 282 L 110 267 L 110 258 L 115 244 L 120 236 L 131 227 L 132 227 L 130 228 L 117 243 L 109 280 L 102 293 L 89 301 Q 77 303 72 298 L 67 300 L 72 310 Q 80 319 95 321 Q 117 322 124 309 L 126 307 L 122 315 L 112 323 L 110 326 L 125 326 L 141 318 Q 148 311 152 301 Q 156 290 156 276 L 162 264 Q 165 257 175 257 Q 178 256 175 254 Q 163 254 158 259 L 150 270 L 148 271 L 152 262 Q 157 254 167 252 L 181 253 L 184 248 L 173 239 L 171 237 Q 181 239 186 246 L 194 240 L 186 224 Q 174 204 140 208 Z M 380 309 L 371 325 L 366 329 L 356 340 L 373 346 L 392 348 L 397 351 L 403 361 Q 405 372 398 376 L 398 385 L 403 393 Q 408 398 417 400 L 426 400 Q 431 395 433 386 L 433 367 L 429 350 L 429 343 L 424 334 L 418 328 L 394 319 L 380 309 Z M 226 337 L 224 339 L 222 351 L 209 365 L 210 375 L 231 403 L 234 418 L 239 422 L 261 416 L 269 417 L 271 416 L 268 406 L 245 381 L 243 373 L 264 355 L 245 347 L 226 337 Z M 393 381 L 387 389 L 387 401 L 393 413 L 404 419 L 411 419 L 419 415 L 424 406 L 408 399 L 402 394 L 396 384 L 393 381 Z M 111 394 Q 104 398 102 407 L 102 419 L 107 428 L 118 433 L 128 431 L 136 422 L 136 419 L 133 419 L 124 414 Q 114 409 113 396 L 111 394 Z M 262 419 L 259 421 L 250 421 L 241 424 L 239 426 L 239 436 L 248 442 L 258 444 Q 272 446 278 440 L 278 432 L 274 422 Q 270 418 262 419 Z M 380 432 L 347 444 L 349 456 L 362 461 Q 381 464 390 456 Q 392 440 384 435 L 380 432 Z " /><path fill="rgb(0,0,0)" stroke="rgb(0,0,0)" stroke-width="0.6" opacity="1" d="M 310.5 70 L 313 71.5 L 323 88.5 L 324 105.5 L 321.5 109 L 316 105.5 Q 306 95.5 308 73.5 L 310.5 70 Z M 311 76 L 311 90 L 315 101 Q 316 105 321 104 L 321 91 L 315 79 L 311 76 Z " /><path fill="rgb(0,0,0)" stroke="rgb(0,0,0)" stroke-width="0.6" opacity="1" d="M 346.5 125 Q 352.3 124.2 354 127.5 L 352.5 130 Q 342.6 128.6 339.5 134 L 339 131.5 L 342.5 127 L 346.5 125 Z " /><path fill="rgb(0,0,0)" stroke="rgb(0,0,0)" stroke-width="0.6" opacity="1" d="M 349.5 143 Q 358.6 142.9 362 148.5 L 367 159.5 L 367 166.5 L 361.5 176 Q 358 180.5 348.5 179 L 338 169.5 L 337 155.5 L 343.5 146 L 349.5 143 Z M 351 146 L 348 147 L 339 159 L 340 164 Q 339 168 342 167 L 344 159 Q 346 154 355 155 L 360 163 L 359 173 L 360 175 Q 364 172 365 166 Q 365 155 360 150 Q 357 146 351 146 Z M 351 157 L 349 159 Q 348 164 351 165 L 354 164 L 355 160 L 351 157 Z " /><path fill="rgb(0,0,0)" stroke="rgb(0,0,0)" stroke-width="0.6" opacity="1" d="M 435.5 189 L 440 190.5 Q 441.5 197.5 437.5 199 L 433 197.5 Q 432 191 435.5 189 Z " /><path fill="rgb(0,0,0)" stroke="rgb(0,0,0)" stroke-width="0.6" opacity="1" d="M 393.5 192 Q 400 191 401 195.5 Q 402.5 202.5 398.5 204 L 392 200.5 L 391 195.5 L 393.5 192 Z " /><path fill="rgb(0,0,0)" stroke="rgb(0,0,0)" stroke-width="0.6" opacity="1" d="M 276.5 205 L 277 207.5 L 270.5 216 L 264.5 219 L 267.5 215 L 272 211.5 L 276.5 205 Z " /><path fill="rgb(0,0,0)" stroke="rgb(0,0,0)" stroke-width="0.6" opacity="1" d="M 155.5 235 L 169 236 L 168.5 238 L 153.5 238 L 139 246.5 L 132.5 255 L 133 253.5 L 134 249.5 L 142.5 241 L 155.5 235 Z " /><path fill="rgb(0,0,0)" stroke="rgb(0,0,0)" stroke-width="0.6" opacity="1" d="M 146.5 274 L 147 278.5 L 144 288.5 Q 145.1 296.7 143 300 Q 139.3 301.4 141 295.5 L 144 277.5 L 146.5 274 Z " /><path fill="rgb(75,57,42)" stroke="rgb(75,57,42)" stroke-width="0.6" opacity="1" d="M 307.5 74 L 308 86.5 L 307 86.5 L 307.5 74 Z " /><path fill="rgb(75,57,42)" stroke="rgb(75,57,42)" stroke-width="0.6" opacity="1" d="M 312.5 77 L 314 78.5 Q 322.7 86.5 321 104 L 315 99.5 L 311 88.5 L 311 78.5 L 312.5 77 Z " /><path fill="rgb(75,57,42)" stroke="rgb(75,57,42)" stroke-width="0.6" opacity="1" d="M 330.5 93 L 332 105.5 L 330 104.5 L 330.5 93 Z " /><path fill="rgb(75,57,42)" stroke="rgb(75,57,42)" stroke-width="0.6" opacity="1" d="M 403.5 99 L 410 103.5 L 409.5 105 L 407.5 102 L 403.5 99 Z " /><path fill="rgb(75,57,42)" stroke="rgb(75,57,42)" stroke-width="0.6" opacity="1" d="M 424.5 163 Q 427.1 162.2 426 165.5 L 429 174 L 417 173 L 424.5 163 Z " /><path fill="rgb(75,57,42)" stroke="rgb(75,57,42)" stroke-width="0.6" opacity="1" d="M 406.5 177 L 429 177.5 L 406.5 178 L 406.5 177 Z " /><path fill="rgb(75,57,42)" stroke="rgb(75,57,42)" stroke-width="0.6" opacity="1" d="M 140.5 208 Q 174 205 186 223.5 L 194 239.5 L 185.5 246 Q 177 233.5 154.5 235 Q 142.3 238.8 135 247.5 L 132 255.5 L 134 254.5 L 141.5 244 L 153.5 238 L 169.5 238 Q 178.7 240.8 184 247.5 L 179.5 253 L 170.5 251 Q 159.1 252.6 153 259.5 L 144 276.5 L 141 300.5 L 135 313.5 L 138 311.5 L 144 298.5 L 144 290.5 L 148 272.5 Q 152.3 262.8 160.5 257 Q 165 253.3 174 255 Q 175.3 258.3 170.5 257 L 162 263.5 L 156 275.5 Q 155.6 291.1 151 302.5 Q 146.8 312.8 138.5 319 L 124.5 326 L 110 326 L 111.5 324 L 121 316.5 L 126 306 L 124 307.5 L 116.5 316 Q 109.8 322.3 95.5 321 Q 80 319 72 309.5 L 67 299.5 L 70.5 298 Q 76.3 303.2 89.5 301 Q 98.2 298.2 103 291.5 L 109 279.5 L 116 246.5 L 126.5 231 L 135 226 L 133.5 224 L 121 233.5 L 110 256.5 L 110 264.5 L 105 283.5 L 94.5 296 L 80.5 297 L 68 288.5 Q 64.8 285.2 66 277.5 L 68.5 277 L 80.5 280 L 94 271.5 Q 101.5 260 104 243.5 L 111 229.5 L 124.5 215 L 140.5 208 Z " /><path fill="rgb(75,57,42)" stroke="rgb(75,57,42)" stroke-width="0.6" opacity="1" d="M 217.5 236 L 228 236.5 L 217.5 237 L 217.5 236 Z " /><path fill="rgb(75,57,42)" stroke="rgb(75,57,42)" stroke-width="0.6" opacity="1" d="M 252.5 242 L 265 242.5 L 252.5 243 L 252.5 242 Z " /><path fill="rgb(75,57,42)" stroke="rgb(75,57,42)" stroke-width="0.6" opacity="1" d="M 171.5 286 L 172 318.5 L 171 318.5 L 171.5 286 Z " /><path fill="rgb(75,57,42)" stroke="rgb(75,57,42)" stroke-width="0.6" opacity="1" d="M 379.5 309 L 391.5 318 L 422 331.5 L 429 342.5 L 429 350.5 L 433 367.5 L 433 384.5 Q 431.7 394.7 425.5 400 Q 407 401 401 389.5 Q 396.8 385.7 398 376.5 Q 404.5 372.5 403 360.5 L 397.5 351 L 391.5 348 Q 371.4 346.9 357 341 Q 356 334.6 361.5 333 L 371 324.5 L 379.5 309 Z " /><path fill="rgb(75,57,42)" stroke="rgb(75,57,42)" stroke-width="0.6" opacity="1" d="M 285.5 346 L 287 350 L 272 349.5 L 283.5 348 L 285.5 346 Z " /><path fill="rgb(75,57,42)" stroke="rgb(75,57,42)" stroke-width="0.6" opacity="1" d="M 110.5 394 L 113 395.5 Q 114.3 409.7 124.5 415 L 136 419 L 128.5 430 Q 124.2 433.7 114.5 432 L 106 425.5 Q 100.6 419.9 102 407.5 Q 103.8 398.3 110.5 394 Z " /><path fill="rgb(75,57,42)" stroke="rgb(75,57,42)" stroke-width="0.6" opacity="1" d="M 376.5 433 Q 382.5 431.5 384 434.5 L 390 446.5 L 390 454.5 L 381.5 460 L 362.5 461 Q 354 460 349 455.5 L 347 443.5 L 376.5 433 Z " /><path fill="rgb(224,190,137)" stroke="rgb(224,190,137)" stroke-width="0.6" opacity="1" d="M 405.5 53 L 409 54.5 L 415 69.5 L 415 82.5 L 408.5 96 L 404 94.5 L 402 81.5 L 405 73 L 409 74 L 408 61 Q 404.2 59.5 405 62.5 L 402 66.5 L 399 79 L 392 75.5 L 405.5 53 Z " /><path fill="rgb(224,190,137)" stroke="rgb(224,190,137)" stroke-width="0.6" opacity="1" d="M 297.5 98 L 307 115.5 L 299 129.5 L 292 153.5 L 287 200.5 L 284 213.5 L 278 228.5 L 273.5 233 Q 266.5 239 251.5 237 L 250 234 L 254 231.5 L 260.5 222 L 274 213.5 L 280 201.5 Q 278 198 276 202.5 Q 272.8 211.3 265.5 216 Q 260.3 220.8 248.5 219 L 239 213.5 L 238 210.5 L 251.5 206 L 257 200.5 Q 258.2 192.7 263.5 189 L 274 181.5 L 279 171.5 L 279 166 L 276 167.5 Q 273.4 178.4 265.5 184 L 256.5 188 L 250.5 188 L 243 184.5 L 244.5 182 L 247.5 182 L 259 171.5 L 279 132 L 272 136.5 L 270 141 Q 266.6 144.9 257.5 144 L 255 143 L 257.5 139 L 264 134.5 Q 271.3 117.3 284.5 106 L 297.5 98 Z " /><path fill="rgb(224,190,137)" stroke="rgb(224,190,137)" stroke-width="0.6" opacity="1" d="M 380.5 227 L 388 231.5 L 391.5 236 L 394.5 234 L 398 236.5 L 396.5 242 Q 386.7 242.8 383 237.5 L 379 228.5 L 380.5 227 Z " /><path fill="rgb(224,190,137)" stroke="rgb(224,190,137)" stroke-width="0.6" opacity="1" d="M 226.5 338 L 242.5 347 Q 253.7 348.8 261 354.5 L 255.5 362 L 242 371.5 Q 241.2 377.8 244 380.5 L 266 404.5 L 270 414.5 L 267.5 415 L 249.5 417 L 238.5 421 L 234 416.5 Q 235 405 230 399.5 L 212 376.5 L 210 364.5 L 223 350.5 Q 222.2 341.7 226.5 338 Z " /><path fill="rgb(224,190,137)" stroke="rgb(224,190,137)" stroke-width="0.6" opacity="1" d="M 260.5 420 Q 271 418 274 423.5 L 277 430.5 L 278 438.5 Q 272.1 445.6 256.5 443 Q 246 442 240 436.5 Q 237.5 426.5 242.5 424 Q 248.5 421 258.5 422 L 260.5 420 Z " /><path fill="rgb(23,23,23)" stroke="rgb(23,23,23)" stroke-width="0.6" opacity="1" d="M 404.5 46 L 398.5 53 L 404.5 46 Z " /><path fill="rgb(23,23,23)" stroke="rgb(23,23,23)" stroke-width="0.6" opacity="1" d="M 261.5 129 L 256.5 135 L 261.5 129 Z " /><path fill="rgb(23,23,23)" stroke="rgb(23,23,23)" stroke-width="0.6" opacity="1" d="M 391.5 377 L 384.5 385 L 391.5 377 Z " /><path fill="rgb(126,91,55)" stroke="rgb(126,91,55)" stroke-width="0.6" opacity="1" d="M 440.5 218 L 435.5 224 L 440.5 218 Z " /><path fill="rgb(126,91,55)" stroke="rgb(126,91,55)" stroke-width="0.6" opacity="1" d="M 170.5 362 L 162.5 371 L 170.5 362 Z " /><path fill="rgb(236,236,236)" stroke="rgb(236,236,236)" stroke-width="0.6" opacity="1" d="M 308.5 372 L 313.5 378 L 308.5 372 Z " /><path fill="rgb(193,178,133)" stroke="rgb(193,178,133)" stroke-width="0.6" opacity="1" d="M 217.5 356 L 212.5 362 L 217.5 356 Z " /><path fill="rgb(211,211,211)" stroke="rgb(211,211,211)" stroke-width="0.6" opacity="1" d="M 260.5 129 L 255.5 135 L 260.5 129 Z " /><path fill="rgb(211,211,211)" stroke="rgb(211,211,211)" stroke-width="0.6" opacity="1" d="M 390.5 377 L 384.5 384 L 390.5 377 Z " /></svg>