<svg width="627" height="627" preserveAspectRatio="xMidYMid meet" viewBox="0 0 512 512" version="1.1" xmlns="http://www.w3.org/2000/svg" ><path fill="rgb(255,255,255)" stroke="rgb(255,255,255)" stroke-width="0.6" opacity="1" d="M 0 0 L 512 0 L 512 512 L 0 512 L 0 0 Z M 110 67 L 107 68 Q 98 74 95 85 Q 92 105 100 114 L 83 106 L 63 106 L 43 115 L 37 122 L 37 128 L 43 140 Q 51 151 66 155 L 82 155 L 83 154 L 85 156 L 82 175 L 75 191 L 68 197 Q 56 205 54 224 L 56 238 L 61 247 L 69 254 L 84 260 L 94 269 L 111 275 L 133 275 L 142 272 L 143 274 L 147 294 L 153 305 L 158 336 Q 160 346 156 352 Q 154 363 159 369 L 158 385 L 152 399 L 152 403 L 144 419 L 144 427 L 149 431 L 159 434 L 174 434 L 189 428 L 188 437 Q 192 443 201 444 L 222 444 L 233 439 L 238 433 L 238 419 L 237 418 L 240 411 Q 242 399 238 395 L 238 375 L 242 365 Q 241 350 247 343 L 253 344 L 279 344 L 290 341 L 295 344 L 292 351 L 293 362 L 297 365 Q 302 363 304 367 L 303 374 L 296 392 L 289 402 Q 286 407 287 416 L 292 420 L 302 423 Q 319 425 329 419 L 335 411 L 335 399 L 339 392 L 339 376 L 343 364 Q 342 360 345 361 L 346 364 Q 349 369 359 367 L 365 360 Q 366 351 362 348 L 368 339 L 370 337 Q 377 342 379 353 L 379 374 L 372 395 L 372 401 L 365 415 L 365 426 Q 369 431 377 432 Q 397 435 409 428 L 415 420 Q 412 403 419 397 L 417 385 L 417 366 L 421 349 L 421 328 L 413 313 L 413 297 L 420 275 Q 423 268 422 258 L 424 254 Q 422 247 426 248 L 428 255 L 428 279 L 433 292 L 427 309 Q 426 324 433 332 Q 442 343 460 347 Q 468 348 474 345 L 475 341 L 473 339 L 469 335 L 471 323 L 471 308 L 465 297 Q 460 288 448 288 L 443 280 L 443 243 L 440 230 Q 435 214 425 203 L 393 175 Q 383 169 370 167 L 341 167 Q 333 170 323 169 L 306 174 L 287 175 L 284 177 L 255 177 L 247 174 Q 243 175 244 172 Q 264 173 275 163 L 286 149 L 284 140 Q 274 127 257 122 Q 240 120 231 125 L 228 125 Q 238 118 239 104 Q 241 90 236 84 L 230 78 L 224 79 L 216 97 L 204 104 L 198 103 L 182 90 L 169 86 Q 140 82 129 95 L 126 94 L 119 87 L 117 70 L 110 67 Z " /><path fill="rgb(245,241,221)" stroke="rgb(245,241,221)" stroke-width="0.6" opacity="1" d="M 228 85 L 232 87.5 L 234 102.5 Q 231.8 115.8 223.5 123 Q 220 127 211.5 126 L 203 118.5 L 202 113.5 L 221 99.5 L 228 85 Z " /><path fill="rgb(245,241,221)" stroke="rgb(245,241,221)" stroke-width="0.6" opacity="1" d="M 149.5 92 L 170.5 92 L 184.5 98 L 189 102.5 L 189 110.5 L 179.5 122 L 171.5 125 L 166 121.5 L 164.5 116 L 162 117.5 L 155.5 127 L 150 125.5 L 149 120.5 L 150 116.5 L 148.5 115 L 143 120.5 L 138.5 126 Q 133.3 127.3 132 124.5 L 132 118.5 L 139 107.5 L 136.5 107 L 126 111 L 126 106.5 L 133.5 98 Q 139.5 93 149.5 92 Z " /><path fill="rgb(245,241,221)" stroke="rgb(245,241,221)" stroke-width="0.6" opacity="1" d="M 170.5 167 Q 176.9 166.6 179 170.5 L 180 172.5 L 177.5 173 Q 165.9 173.4 162 181.5 L 161 191.5 L 163 194.5 L 161.5 195 Q 156.4 191.6 158 181.5 L 161 173.5 L 165.5 169 L 170.5 167 Z " /><path fill="rgb(245,241,221)" stroke="rgb(245,241,221)" stroke-width="0.6" opacity="1" d="M 225.5 171 L 244 182.5 Q 239.5 189 241 201.5 L 247.5 212 L 255.5 215 L 263 221.5 L 266 231.5 L 270.5 236 Q 275.7 242.3 288.5 241 L 292 244.5 Q 292.9 253.1 298.5 257 Q 306.6 263.4 321.5 263 Q 335.5 260 343 250.5 L 348 237.5 L 348 227.5 L 353 217.5 L 353 209.5 L 343.5 196 L 335 189.5 L 334 179.5 L 338.5 174 L 369.5 173 Q 392.4 176.6 403 192.5 Q 413 203.5 415 222.5 L 406 230.5 L 398.5 241 Q 393.8 244.8 384.5 244 Q 379.3 240.2 369.5 241 Q 360.8 242.3 358 249.5 Q 354.3 253.8 356 263.5 Q 357.3 272.3 364.5 275 L 378 285.5 L 379 297.5 L 388.5 307 L 400.5 309 L 405.5 307 Q 408.5 308.5 407 314.5 L 416 330.5 L 416 342.5 L 411 366.5 L 411 382.5 Q 415.4 386.6 413 397.5 Q 406.3 404.8 391.5 404 L 382.5 402 L 378 398.5 L 384 378.5 L 385 360.5 L 383 346.5 Q 373.4 328.6 359 315.5 L 352 300.5 L 351 289.5 L 348.5 286 Q 345.3 288.3 346 294.5 L 350 310.5 L 323.5 326 L 301.5 334 L 280.5 338 L 248.5 338 L 247 332.5 Q 251.1 322.6 250 307.5 L 255 298.5 L 255 282.5 L 247.5 272 L 240 266.5 L 238 253.5 L 228.5 241 Q 223.5 237 213.5 238 L 205 232.5 Q 214.2 221.2 219 205.5 L 224 183.5 L 224 172.5 L 225.5 171 Z " /><path fill="rgb(245,241,221)" stroke="rgb(245,241,221)" stroke-width="0.6" opacity="1" d="M 81.5 197 L 114.5 197 L 130.5 200 L 149.5 208 L 158 216.5 Q 165.9 224.1 165 240.5 Q 162 253.5 152.5 260 Q 140.1 270.6 116.5 270 L 97 264 L 98.5 262 L 99.5 263 L 116.5 263 L 128.5 260 L 141 251.5 L 136.5 245 L 132 246.5 L 134 250.5 L 120.5 257 L 94.5 257 L 81.5 254 Q 71.4 250.1 65 242.5 L 61 232.5 L 61 217.5 Q 64.4 206.9 72.5 201 L 81.5 197 Z M 78 206 L 74 210 Q 72 221 79 223 Q 85 224 86 220 L 85 209 Q 84 205 78 206 Z M 136 214 L 134 215 L 127 224 Q 126 230 131 232 L 139 231 L 143 226 L 142 217 L 136 214 Z " /><path fill="rgb(245,241,221)" stroke="rgb(245,241,221)" stroke-width="0.6" opacity="1" d="M 415 202 L 422 207.5 Q 431.6 219.4 436 236.5 L 437 277.5 L 440 287.5 Q 438.5 290.5 437 287.5 L 434 282.5 Q 436.1 259.9 431 244.5 L 423 230.5 L 421 215.5 L 415 202 Z " /><path fill="rgb(52,55,54)" stroke="rgb(52,55,54)" stroke-width="0.6" opacity="1" d="M 108.5 73 L 112 74.5 L 112 81.5 L 115 90.5 L 125 100.5 L 120.5 107 L 107.5 113 Q 98.8 106.8 99 91.5 Q 100.3 78.8 108.5 73 Z " /><path fill="rgb(52,55,54)" stroke="rgb(52,55,54)" stroke-width="0.6" opacity="1" d="M 194.5 106 L 198 108.5 Q 196.8 121.8 204.5 126 L 215 131 L 214 134.5 L 220.5 135 L 239.5 127 L 255.5 127 Q 271.8 132.2 281 144.5 Q 280.4 152.9 274.5 156 L 273 157.5 L 257.5 166 L 240.5 167 Q 226.4 163.9 218 156 L 217 152 Q 212.9 150.3 214 154.5 Q 221.3 158.7 219 172.5 L 216 196.5 L 210 213.5 Q 202.5 229.5 189.5 240 Q 180.5 247.5 167.5 251 L 167.5 249 L 166 248.5 L 168 244.5 L 168 229.5 Q 165 215.5 155.5 208 L 139.5 199 L 124.5 195 L 115.5 195 L 111.5 193 L 102.5 192 L 86.5 192 L 81.5 194 L 80 190.5 L 86 178.5 Q 87.8 157.8 94 141.5 Q 99.3 126.3 110.5 117 L 119.5 111 L 124.5 117 L 128 116 Q 126 126.7 132.5 130 L 138.5 130 L 145.5 124 L 150 131 L 156.5 131 L 164.5 126 Q 166.5 129.5 172.5 129 Q 183.1 125.6 189 117.5 L 194.5 106 Z M 108 135 L 106 136 L 100 143 L 108 139 L 114 140 L 115 138 Q 113 134 108 135 Z M 244 137 L 223 146 L 217 145 L 213 147 L 223 150 L 235 158 L 236 157 L 229 151 L 227 149 L 245 140 Q 260 138 267 146 L 267 144 Q 260 135 244 137 Z M 174 144 L 171 148 L 173 149 L 181 150 L 186 155 Q 188 156 187 152 L 180 144 L 174 144 Z M 105 154 L 101 156 Q 94 160 92 170 Q 90 184 100 188 Q 108 189 112 186 Q 117 182 118 175 Q 119 165 116 160 Q 113 154 105 154 Z M 170 163 L 165 165 Q 155 170 154 183 L 156 194 L 164 200 L 177 199 Q 184 194 186 183 L 185 174 L 183 170 Q 180 162 170 163 Z " /><path fill="rgb(52,55,54)" stroke="rgb(52,55,54)" stroke-width="0.6" opacity="1" d="M 63.5 111 L 81.5 111 Q 92.8 114.7 100 122.5 L 94.5 131 L 80.5 121 L 73.5 119 L 64.5 119 L 59 121 Q 57.7 124.3 62.5 123 L 74.5 122 L 87 129.5 L 89 133.5 L 86.5 137 L 78 140.5 Q 77.1 143.5 81.5 142 L 88.5 138 L 89 140 L 91 140.5 L 85.5 149 L 67.5 150 Q 53.4 146.1 46 135.5 L 42 126.5 L 42 122.5 Q 49.9 113.9 63.5 111 Z " /><path fill="rgb(52,55,54)" stroke="rgb(52,55,54)" stroke-width="0.6" opacity="1" d="M 103.5 158 Q 111.2 156.3 113 160.5 L 114 165 L 106.5 164 L 101 167.5 Q 96.3 171.3 98 181.5 L 97.5 184 Q 94 181 94 174.5 L 95 167.5 L 101.5 159 L 103.5 158 Z " /><path fill="rgb(52,55,54)" stroke="rgb(52,55,54)" stroke-width="0.6" opacity="1" d="M 342.5 172 L 362 172.5 L 342.5 173 L 342.5 172 Z " /><path fill="rgb(52,55,54)" stroke="rgb(52,55,54)" stroke-width="0.6" opacity="1" d="M 415.5 226 L 418 227.5 L 417 265.5 L 406.5 303 Q 402.1 306.1 393.5 305 L 384 299.5 L 381 285.5 L 374.5 276 L 361 268.5 Q 357.9 264.1 359 255.5 L 366.5 245 L 376.5 244 Q 382 248.5 393.5 247 Q 401.1 245.2 405 239.5 L 415.5 226 Z " /><path fill="rgb(52,55,54)" stroke="rgb(52,55,54)" stroke-width="0.6" opacity="1" d="M 375.5 404 L 390.5 408 L 401.5 408 L 408.5 405 L 410 406.5 L 410 420.5 L 401.5 426 L 383.5 427 L 381 426 L 383 415 L 380 416.5 Q 380.7 423.7 376.5 426 L 370 423.5 L 370 415.5 L 375.5 404 Z " /><path fill="rgb(0,0,0)" stroke="rgb(0,0,0)" stroke-width="0.6" opacity="1" d="M 109.5 68 L 116 70.5 L 118 86.5 L 124.5 95 L 129.5 96 Q 140.3 84.3 164.5 86 L 177.5 89 L 194 100.5 L 196.5 104 L 202.5 105 Q 212.9 102.9 218 95.5 L 224.5 80 L 228.5 79 L 236 85.5 L 239 101.5 L 234 116.5 L 226 125.5 L 229.5 127 L 241.5 122 L 253.5 122 Q 273.2 127.3 284 141.5 L 285 148.5 L 271.5 164 L 262.5 169 L 241.5 172 L 238 171 Q 236.8 174 240.5 173 Q 252.7 180.8 275.5 178 L 304.5 175 L 321.5 170 L 339.5 169 L 342.5 167 L 365.5 167 L 381.5 171 L 391.5 176 L 407.5 190 L 413.5 193 L 427 206.5 Q 437.1 218.9 441 237.5 L 443 246.5 L 443 282.5 L 447.5 289 Q 460.1 289.9 465 298.5 L 470 307.5 L 470 323.5 L 468 334.5 L 474 342.5 L 471.5 345 L 459.5 346 L 447.5 342 L 433 329.5 Q 426.9 322.1 428 307.5 L 433 296.5 L 433 289.5 L 429 279.5 Q 431.7 255.5 425 242 L 423 242.5 L 423 254.5 L 421 257.5 L 421 266.5 L 412 297.5 L 412 311.5 L 421 329.5 L 421 343.5 L 417 360.5 L 417 389.5 L 418 396.5 L 415 401.5 L 415 417.5 L 408.5 427 Q 398 433.5 379.5 432 Q 370.9 430.6 366 425.5 L 366 414.5 L 373 400.5 L 373 394.5 L 380 372.5 L 380 352.5 Q 377.5 342 370.5 336 Q 365.7 334.3 367 338.5 Q 362 341.5 361 348.5 Q 365.1 351.4 364 359.5 L 358.5 366 Q 348 368 346 361.5 L 344.5 359 L 342 360.5 L 339 372.5 L 339 388.5 L 334 398.5 L 334 410.5 L 328.5 418 Q 319.3 423.3 304.5 423 L 293.5 420 L 288 415.5 L 289 404.5 L 296 393.5 L 303 376.5 L 305 365.5 L 302.5 365 L 294 361.5 L 293 351.5 Q 296.8 349.3 296 342.5 Q 293.8 338.8 285.5 341 L 280.5 343 L 245.5 343 L 244 344.5 L 241 356.5 L 241 364.5 L 238 371.5 L 238 397.5 Q 241 401.5 240 409.5 Q 235.3 411.2 237 419.5 L 238 430.5 L 232.5 438 L 221.5 443 L 200.5 443 Q 193 441.6 189 436.5 L 190 426 L 173.5 433 L 158.5 433 Q 148.4 432.1 144 425.5 L 147 412.5 L 152 404.5 L 158 387.5 L 159 365.5 Q 154.6 361.4 157 350.5 L 158 349.5 L 158 333.5 L 154 304.5 L 147 290.5 L 144 273.5 L 141.5 271 L 132.5 274 L 110.5 274 L 102.5 272 Q 91.9 268.1 85.5 260 L 73.5 256 L 60 243.5 Q 54.5 235 55 220.5 Q 57.7 207.7 65.5 200 L 74 193.5 L 82 177.5 L 86 154.5 L 82.5 153 Q 78.1 156.1 69.5 155 Q 53.6 151.4 45 140.5 L 38 127.5 L 38 121.5 L 41.5 117 L 61.5 107 L 78.5 106 L 85.5 108 L 102.5 118 Q 105.8 116.3 102 114.5 L 95 100.5 L 95 87.5 Q 97.8 76.3 105.5 70 L 109.5 68 Z M 109 73 Q 101 78 99 89 Q 97 107 108 113 L 121 107 L 125 100 L 122 97 L 115 91 L 112 81 L 112 75 L 109 73 Z M 229 83 L 220 100 L 201 112 Q 200 119 204 122 L 212 127 Q 219 128 223 125 Q 233 118 235 102 Q 235 92 232 86 L 229 83 Z M 150 91 Q 138 92 132 98 L 125 107 Q 124 112 127 113 L 136 109 L 131 119 L 132 126 Q 133 129 140 127 L 143 123 L 149 118 L 148 121 L 149 126 Q 150 129 157 128 L 162 120 L 165 118 Q 164 124 168 125 Q 178 126 183 121 L 190 111 L 189 101 L 184 96 L 170 91 L 150 91 Z M 195 106 L 188 119 L 175 128 Q 166 130 164 125 Q 160 130 153 131 L 147 124 L 139 130 L 133 130 L 128 125 L 129 118 L 124 116 L 120 110 L 112 116 Q 102 124 96 136 Q 88 154 86 179 L 80 191 L 82 194 L 87 192 L 103 192 L 112 193 L 114 195 L 124 195 L 139 199 L 157 209 Q 166 216 168 231 Q 170 242 166 249 L 168 251 Q 182 247 193 238 Q 204 227 211 212 L 216 198 L 219 173 Q 221 159 215 155 L 215 153 Q 223 164 240 167 L 256 167 L 272 159 Q 280 155 281 145 Q 272 133 257 127 L 239 127 L 221 135 L 215 135 L 217 131 L 208 128 Q 198 123 198 109 L 195 106 Z M 63 111 Q 49 114 42 123 Q 42 134 48 139 Q 55 147 67 150 L 87 149 Q 91 144 92 136 L 81 142 L 79 141 L 87 137 Q 90 136 89 132 Q 84 124 75 122 L 63 122 L 62 120 L 65 119 L 73 119 L 80 121 L 96 131 L 100 123 Q 93 115 83 111 L 63 111 Z M 225 168 L 223 170 L 223 183 L 219 202 Q 214 218 204 231 L 204 234 L 202 234 L 185 249 L 168 256 L 164 256 L 147 270 Q 150 299 165 316 Q 176 329 195 334 L 198 333 L 198 326 L 193 311 Q 191 304 195 305 L 205 343 L 205 354 L 203 356 Q 201 369 207 375 L 207 391 L 201 412 L 213 417 Q 228 419 235 412 Q 237 399 233 392 L 233 377 L 238 362 L 245 313 L 252 297 Q 251 293 254 294 L 254 299 L 249 308 Q 250 322 246 333 Q 245 338 248 339 L 280 339 L 302 335 Q 330 327 351 311 L 347 295 Q 346 289 349 288 L 350 290 L 351 301 L 358 316 L 378 340 L 383 349 L 384 362 L 383 379 L 377 400 L 388 404 Q 402 406 411 402 L 414 398 L 414 385 L 412 383 L 412 367 L 417 343 L 417 331 L 408 315 Q 410 308 407 306 L 401 308 L 389 306 L 380 298 L 379 285 L 364 273 Q 358 271 357 264 Q 355 254 359 250 L 367 243 L 359 255 Q 357 264 361 269 L 373 275 L 381 286 L 383 299 L 393 305 Q 402 307 407 303 L 417 268 L 418 228 L 416 226 L 404 241 L 393 247 Q 384 248 380 245 L 378 243 L 385 245 L 398 243 L 405 234 L 416 224 Q 415 205 406 195 Q 395 176 370 172 L 338 173 L 333 180 L 335 192 L 342 196 L 352 209 L 352 218 L 347 228 L 347 238 L 343 249 Q 336 259 322 262 L 313 262 L 298 255 L 293 244 L 289 241 Q 288 238 292 239 Q 297 242 297 251 Q 301 258 312 259 L 328 258 L 335 254 L 343 244 L 344 229 L 350 218 L 350 208 L 342 200 L 331 188 Q 329 179 333 177 L 331 173 L 323 176 L 307 177 L 300 180 L 289 180 L 287 182 L 275 183 Q 261 184 251 181 L 244 193 Q 243 203 248 209 L 253 213 L 251 213 Q 244 209 242 202 Q 240 188 246 182 Q 233 177 225 168 Z M 82 196 L 70 202 L 60 218 L 60 234 L 64 243 Q 70 251 82 255 L 96 258 L 121 258 L 135 251 L 134 249 Q 133 245 137 246 L 140 252 L 137 252 L 129 259 L 117 262 L 99 262 L 98 261 Q 93 259 94 263 Q 103 270 119 271 L 137 269 L 155 260 Q 164 253 166 240 Q 166 226 161 219 L 150 207 L 131 199 L 114 196 L 82 196 Z M 416 200 L 414 202 L 420 216 L 422 231 L 430 245 L 433 258 L 433 282 L 439 290 L 441 289 L 438 277 L 438 242 L 435 230 Q 429 211 416 200 Z M 442 292 Q 434 297 432 308 Q 431 320 435 327 L 442 333 L 444 333 L 442 328 Q 441 323 444 324 L 444 329 L 448 336 L 459 342 Q 466 344 468 341 L 464 335 L 466 325 Q 468 308 462 301 Q 457 291 442 292 Z M 160 315 L 163 337 Q 164 345 161 350 L 161 363 L 163 366 L 163 385 L 157 403 L 168 407 Q 180 409 188 405 L 190 402 L 188 390 L 188 371 L 192 360 L 193 340 L 173 327 L 169 323 L 160 315 Z M 352 315 Q 331 332 299 338 L 297 341 L 305 349 L 300 347 L 296 354 Q 295 360 300 361 L 306 360 Q 309 358 308 352 L 307 349 L 319 353 L 320 355 L 320 366 L 328 368 Q 333 366 331 357 L 334 354 Q 342 355 346 352 L 349 361 Q 351 364 358 363 L 360 359 Q 361 350 356 348 L 365 336 L 365 331 Q 359 326 356 318 L 352 315 Z M 198 340 L 196 342 L 196 360 L 193 367 L 193 393 L 194 394 Q 196 404 190 408 L 191 412 L 191 422 L 193 422 L 197 415 L 197 408 L 202 397 L 203 386 Q 205 372 199 367 L 200 342 L 198 340 Z M 314 355 Q 308 365 306 380 L 300 393 L 308 397 L 318 398 Q 327 400 332 396 L 335 391 L 335 373 L 340 359 L 337 357 L 332 369 Q 330 373 322 371 Q 314 368 316 357 L 314 355 Z M 299 397 Q 291 401 292 414 L 298 416 L 301 412 L 303 410 L 302 413 L 304 418 Q 319 420 327 415 L 331 409 Q 333 402 330 400 L 326 401 L 311 401 L 299 397 Z M 376 404 L 370 415 L 370 424 Q 372 427 378 426 L 379 425 L 380 417 L 383 415 L 381 423 L 383 427 Q 402 430 410 421 L 410 407 L 409 405 L 401 408 L 392 408 L 376 404 Z M 157 406 L 149 418 L 149 425 L 155 427 L 159 419 L 161 417 L 159 424 L 161 429 L 176 429 L 185 425 L 188 420 Q 190 411 187 409 L 183 410 L 165 410 L 157 406 Z M 202 416 L 194 427 L 193 435 L 201 438 L 205 429 L 207 427 L 205 435 L 207 439 Q 225 441 233 433 L 233 420 L 232 418 L 225 420 L 213 420 L 202 416 Z " /><path fill="rgb(0,0,0)" stroke="rgb(0,0,0)" stroke-width="0.6" opacity="1" d="M 108.5 135 L 115 138.5 L 112.5 139 L 107.5 139 L 101 142 L 104.5 137 L 108.5 135 Z " /><path fill="rgb(0,0,0)" stroke="rgb(0,0,0)" stroke-width="0.6" opacity="1" d="M 244.5 137 Q 258.7 135.8 265 142.5 L 263.5 143 Q 256.6 138.4 243.5 140 L 226 148.5 L 235 156.5 L 232.5 157 L 222.5 149 Q 216.3 149.7 214 146.5 L 215.5 145 L 222.5 146 L 244.5 137 Z " /><path fill="rgb(0,0,0)" stroke="rgb(0,0,0)" stroke-width="0.6" opacity="1" d="M 174.5 144 L 178.5 144 L 187 151.5 Q 188.1 154.8 185.5 154 L 179.5 149 L 172 149 L 174.5 144 Z " /><path fill="rgb(0,0,0)" stroke="rgb(0,0,0)" stroke-width="0.6" opacity="1" d="M 105.5 154 Q 112.1 154.4 115 158.5 Q 119.2 163.3 118 173.5 Q 116.3 182.8 109.5 187 L 100.5 188 L 94 182.5 Q 90.5 178.5 92 169.5 Q 93.7 161.2 99.5 157 L 105.5 154 Z M 106 157 L 100 160 Q 95 164 94 172 Q 93 181 98 184 L 98 182 Q 96 171 101 168 L 108 164 L 114 165 L 113 161 Q 111 157 106 157 Z M 107 167 Q 103 168 104 173 L 109 174 L 111 170 L 107 167 Z " /><path fill="rgb(0,0,0)" stroke="rgb(0,0,0)" stroke-width="0.6" opacity="1" d="M 167.5 164 Q 178.6 162.4 182 168.5 Q 187 174 185 186.5 L 177.5 198 Q 172.9 200.9 164.5 200 L 157 194.5 L 154 182.5 Q 156 171.5 163.5 166 L 167.5 164 Z M 171 166 L 166 168 Q 159 172 157 182 Q 155 194 163 197 L 165 196 L 162 192 Q 161 184 164 181 L 172 174 L 178 174 Q 179 178 181 175 L 180 171 Q 178 166 171 166 Z M 172 177 Q 168 178 169 184 L 174 185 Q 177 184 176 180 L 172 177 Z " /><path fill="rgb(0,0,0)" stroke="rgb(0,0,0)" stroke-width="0.6" opacity="1" d="M 78.5 207 Q 84.3 206.3 85 210.5 Q 87.2 219.8 82.5 222 Q 76 223 75 218.5 Q 73 209 78.5 207 Z " /><path fill="rgb(0,0,0)" stroke="rgb(0,0,0)" stroke-width="0.6" opacity="1" d="M 135.5 215 L 141 217.5 L 142 224.5 L 138.5 230 L 130.5 231 Q 127.2 229.3 128 223.5 L 133.5 216 L 135.5 215 Z " /><path fill="rgb(0,0,0)" stroke="rgb(0,0,0)" stroke-width="0.6" opacity="1" d="M 259 215 L 263 216.5 L 272.5 234 L 276 236.5 L 273.5 237 L 267 231.5 Q 266.6 221.4 260.5 217 L 259 215 Z " /><path fill="rgb(0,0,0)" stroke="rgb(0,0,0)" stroke-width="0.6" opacity="1" d="M 206.5 236 L 213.5 239 Q 221.9 238.1 226.5 241 L 232 246.5 L 237 253.5 L 239 267.5 L 241.5 270 L 251 276.5 Q 254.8 280.1 254 287 Q 250.7 288.3 252 283.5 L 246.5 277 L 239 271.5 L 236 266.5 L 235 254.5 L 226.5 244 L 223.5 242 L 209.5 240 L 206.5 236 Z " /><path fill="rgb(0,0,0)" stroke="rgb(0,0,0)" stroke-width="0.6" opacity="1" d="M 277.5 237 L 287 238 Q 288.1 241.5 280.5 240 L 277.5 237 Z " /><path fill="rgb(230,153,165)" stroke="rgb(230,153,165)" stroke-width="0.6" opacity="1" d="M 83.5 196 L 110 196.5 L 83.5 197 L 83.5 196 Z " /><path fill="rgb(230,153,165)" stroke="rgb(230,153,165)" stroke-width="0.6" opacity="1" d="M 201.5 235 L 210.5 241 L 223.5 243 L 232 250.5 Q 236.4 257.1 236 268.5 L 241.5 275 L 250 281.5 Q 253.3 285.2 252 293.5 L 244 313.5 L 237 361.5 L 233 373.5 L 233 395.5 Q 236.1 400.9 235 410.5 Q 228.2 418.2 211.5 416 L 202 411.5 L 207 393.5 L 207 373.5 Q 202.3 367.7 204 355.5 L 205 354.5 L 205 339.5 L 200 316.5 L 195 303 Q 191.3 301.5 192 304.5 L 193 313.5 L 197 325.5 L 197 333 Q 177.8 329.5 167 316.5 Q 150.4 299.3 148 269 Q 158.1 265 164.5 256 L 169.5 256 L 182.5 251 L 198 240 L 201.5 235 Z " /><path fill="rgb(230,153,165)" stroke="rgb(230,153,165)" stroke-width="0.6" opacity="1" d="M 437.5 248 L 438 277.5 L 437 277.5 L 437.5 248 Z " /><path fill="rgb(230,153,165)" stroke="rgb(230,153,165)" stroke-width="0.6" opacity="1" d="M 99.5 257 L 119 257.5 L 99.5 258 L 99.5 257 Z " /><path fill="rgb(230,153,165)" stroke="rgb(230,153,165)" stroke-width="0.6" opacity="1" d="M 443.5 292 Q 456.1 292.4 461 300.5 L 466 311.5 L 466 320.5 L 463 335.5 L 467 340.5 Q 465.8 343.3 460.5 342 L 448 333.5 L 443.5 323 L 441 324.5 L 443 330.5 Q 439.5 332.7 436 326.5 Q 431 319.9 433 306.5 Q 434.8 297.3 441.5 293 L 443.5 292 Z " /><path fill="rgb(230,153,165)" stroke="rgb(230,153,165)" stroke-width="0.6" opacity="1" d="M 161 318 Q 165.7 317.3 167 321.5 L 172.5 328 L 192 340.5 L 191 352.5 L 192 355.5 L 188 367.5 L 188 393.5 L 189 401.5 Q 183.8 408.8 169.5 407 L 158 403 L 164 382.5 L 164 366.5 Q 159.7 362.3 161 352.5 L 163 348.5 L 164 339.5 L 161 318 Z " /><path fill="rgb(230,153,165)" stroke="rgb(230,153,165)" stroke-width="0.6" opacity="1" d="M 299.5 348 L 307 352.5 Q 308 359 303.5 360 Q 298 361 297 357.5 Q 295.8 350.3 299.5 348 Z " /><path fill="rgb(230,153,165)" stroke="rgb(230,153,165)" stroke-width="0.6" opacity="1" d="M 411.5 366 L 412 382.5 L 411 382.5 L 411.5 366 Z " /><path fill="rgb(230,153,165)" stroke="rgb(230,153,165)" stroke-width="0.6" opacity="1" d="M 298.5 398 L 311.5 402 L 324.5 402 L 328.5 401 Q 331.8 402.8 330 409.5 L 326.5 414 L 319.5 417 L 304.5 418 Q 301.8 416.8 303 411.5 L 305 405 L 302 406.5 L 297.5 415 Q 292.8 415.8 292 412.5 Q 292.1 402.1 298.5 398 Z " /><path fill="rgb(230,153,165)" stroke="rgb(230,153,165)" stroke-width="0.6" opacity="1" d="M 201.5 417 Q 211.3 422.2 228.5 420 L 231.5 419 L 233 420.5 L 233 431.5 L 229.5 435 L 218.5 439 L 208.5 439 L 206 438 L 208 425 L 204 427.5 L 200.5 437 L 194 434.5 L 195 426.5 L 201.5 417 Z " /><path fill="rgb(116,82,53)" stroke="rgb(116,82,53)" stroke-width="0.6" opacity="1" d="M 329.5 173 L 332 174.5 L 331 188.5 L 338.5 198 L 348 205.5 L 350 215.5 L 344 227.5 L 343 242.5 L 332.5 255 Q 324.8 259.3 312.5 259 L 303.5 256 L 298 250.5 Q 297.3 242.3 291.5 239 L 276.5 236 L 270 230.5 Q 268.6 219.9 261.5 215 Q 251.5 213.5 247 206.5 Q 243.4 201.1 245 190.5 L 249 182 L 257.5 183 L 261.5 182 L 262.5 183 L 277.5 183 L 300.5 180 L 309.5 177 L 323.5 176 L 329.5 173 Z " /><path fill="rgb(116,82,53)" stroke="rgb(116,82,53)" stroke-width="0.6" opacity="1" d="M 352.5 315 L 355 316.5 Q 357.3 325.2 364 329.5 L 365 334.5 L 356 347.5 Q 360.9 350.6 359 360.5 L 353.5 363 L 349 359.5 L 347 352 L 332.5 354 L 331 355.5 Q 333 366 326.5 368 L 321 365.5 L 320 355.5 L 319.5 353 Q 305.4 350.6 298 341.5 L 299.5 339 Q 331.1 332.1 352.5 315 Z " /><path fill="rgb(116,82,53)" stroke="rgb(116,82,53)" stroke-width="0.6" opacity="1" d="M 198.5 340 L 200 341.5 L 200 355.5 L 199 367.5 Q 204.7 372.8 203 385.5 L 201 398.5 L 197 406.5 L 197 413.5 L 192.5 421 Q 189.8 421.6 191 415.5 L 192 413.5 L 191 406.5 Q 195.9 403.4 194 393.5 L 193 392.5 L 193 367.5 L 196 360.5 Q 194.4 347.4 198.5 340 Z " /><path fill="rgb(116,82,53)" stroke="rgb(116,82,53)" stroke-width="0.6" opacity="1" d="M 313.5 355 L 316 356.5 Q 314 368 320.5 371 L 329.5 372 L 336.5 358 L 339 359.5 L 335 371.5 L 334 392.5 L 330.5 396 L 317.5 398 L 313.5 396 L 308.5 397 L 301 394 L 301 389.5 L 306 380.5 L 313.5 355 Z " /><path fill="rgb(116,82,53)" stroke="rgb(116,82,53)" stroke-width="0.6" opacity="1" d="M 155.5 407 L 163.5 410 L 179.5 411 L 185.5 409 Q 189.5 410.5 188 417.5 Q 187.6 423.1 183.5 425 L 177.5 428 L 161.5 429 L 159 425.5 L 161 416 L 159 417.5 L 154.5 427 L 149 424.5 Q 149.2 412.7 155.5 407 Z " /><path fill="rgb(27,27,27)" stroke="rgb(27,27,27)" stroke-width="0.6" opacity="1" d="M 415.5 194 L 423.5 203 L 415.5 194 Z " /><path fill="rgb(27,27,27)" stroke="rgb(27,27,27)" stroke-width="0.6" opacity="1" d="M 62.5 246 L 68.5 253 L 62.5 246 Z " /><path fill="rgb(126,126,126)" stroke="rgb(126,126,126)" stroke-width="0.6" opacity="1" d="M 392.5 181 L 401.5 191 L 392.5 181 Z " /><path fill="rgb(126,126,126)" stroke="rgb(126,126,126)" stroke-width="0.6" opacity="1" d="M 150.5 208 L 158.5 217 L 150.5 208 Z " /><path fill="rgb(126,126,126)" stroke="rgb(126,126,126)" stroke-width="0.6" opacity="1" d="M 364.5 243 L 359.5 249 L 364.5 243 Z " /><path fill="rgb(126,126,126)" stroke="rgb(126,126,126)" stroke-width="0.6" opacity="1" d="M 380.5 298 L 386.5 305 L 380.5 298 Z " /><path fill="rgb(220,218,211)" stroke="rgb(220,218,211)" stroke-width="0.6" opacity="1" d="M 280.5 156 L 275.5 162 L 280.5 156 Z " /><path fill="rgb(220,218,211)" stroke="rgb(220,218,211)" stroke-width="0.6" opacity="1" d="M 416.5 194 L 424.5 203 L 416.5 194 Z " /><path fill="rgb(220,218,211)" stroke="rgb(220,218,211)" stroke-width="0.6" opacity="1" d="M 61.5 246 L 67.5 253 L 61.5 246 Z " /></svg>