<svg width="627" height="627" preserveAspectRatio="xMidYMid meet" viewBox="0 0 512 512" version="1.1" xmlns="http://www.w3.org/2000/svg" ><path fill="rgb(255,255,255)" stroke="rgb(255,255,255)" stroke-width="0.6" opacity="1" d="M 0 0 L 512 0 L 512 512 L 0 512 L 0 0 Z M 109 68 L 107 69 Q 98 75 95 87 Q 92 105 100 113 L 104 117 L 103 118 Q 94 109 81 106 L 61 107 L 42 116 L 37 122 L 37 127 L 43 139 Q 51 151 69 155 L 86 154 L 81 178 L 73 194 L 69 197 Q 58 205 55 220 L 55 232 L 61 246 L 69 253 L 85 260 L 97 270 L 114 275 L 129 275 L 142 272 L 147 292 L 153 304 L 158 335 Q 159 346 156 353 Q 155 362 159 368 Q 160 380 157 389 L 152 400 L 152 404 L 145 417 L 144 427 L 150 431 L 162 434 Q 181 435 190 426 L 188 433 L 189 438 L 193 441 L 204 444 Q 222 446 233 439 L 238 432 L 238 418 L 237 417 L 240 411 Q 241 400 238 393 L 238 376 Q 243 363 244 346 L 247 343 L 253 344 L 270 344 L 291 341 L 295 344 L 292 353 L 293 361 Q 296 367 305 365 Q 299 388 288 407 L 287 416 Q 292 422 304 423 Q 320 424 330 418 L 334 412 L 335 398 L 339 391 Q 337 373 343 364 Q 341 359 345 360 L 347 364 L 352 367 L 360 366 L 364 361 Q 366 351 361 348 L 367 339 L 370 337 Q 377 342 379 352 L 378 379 L 372 397 L 372 402 L 366 414 L 365 426 L 369 429 L 380 432 Q 400 434 411 426 L 415 420 L 415 403 L 419 396 L 417 384 L 417 366 L 422 337 L 421 329 L 413 314 L 413 298 L 423 257 L 423 245 L 425 244 L 428 256 L 429 281 L 433 292 L 428 306 Q 426 323 434 332 Q 443 343 461 347 L 473 345 L 475 342 L 472 339 L 468 334 L 471 320 Q 472 305 465 298 Q 459 289 447 288 L 444 285 L 443 279 L 443 246 L 440 232 Q 435 215 425 204 L 415 193 L 390 174 L 367 167 L 341 167 L 305 174 L 273 178 L 254 177 L 245 174 Q 241 175 242 172 Q 264 173 276 161 Q 283 156 286 147 L 285 142 Q 274 127 255 122 Q 238 120 230 126 L 227 126 Q 237 118 239 104 Q 240 90 235 84 L 229 78 L 225 79 L 217 96 L 204 104 L 196 102 L 192 98 Q 183 88 166 86 Q 141 84 130 95 L 125 94 L 119 88 L 116 70 Q 115 67 109 68 Z " /><path fill="rgb(245,241,221)" stroke="rgb(245,241,221)" stroke-width="0.6" opacity="1" d="M 227.5 85 Q 230.8 83.9 230 86.5 L 232 88.5 L 233 106.5 Q 230.1 118.1 221.5 124 Q 218.8 126.8 212.5 126 L 205 120.5 Q 201.8 118 203 112 L 205 111.5 Q 202.2 109.7 206.5 108 Q 216.4 105.9 221 98.5 L 227.5 85 Z " /><path fill="rgb(245,241,221)" stroke="rgb(245,241,221)" stroke-width="0.6" opacity="1" d="M 147.5 92 L 168.5 92 L 181.5 96 L 188 101.5 L 190 107.5 L 181.5 120 Q 177.4 124.4 169.5 125 L 165 121.5 L 163.5 116 L 155.5 127 L 152 128 Q 149.1 125.1 150 117.5 L 151 115.5 L 149.5 114 L 145 118.5 L 137.5 127 L 133 124.5 L 133 115.5 L 139 107.5 L 136.5 106 Q 133.6 110.6 126.5 111 L 125 108.5 L 132.5 98 L 147.5 92 Z " /><path fill="rgb(245,241,221)" stroke="rgb(245,241,221)" stroke-width="0.6" opacity="1" d="M 171.5 167 L 179 170.5 L 181 175 L 172.5 173 L 165 177.5 Q 161.2 181.1 162 188 Q 158.3 189.5 159 186.5 L 158 180.5 Q 159.4 172.4 165.5 169 L 171.5 167 Z " /><path fill="rgb(245,241,221)" stroke="rgb(245,241,221)" stroke-width="0.6" opacity="1" d="M 224 170 L 245 181.5 L 241 191.5 L 241 198.5 Q 242.7 209.3 250.5 214 L 263 220.5 Q 264.9 230.1 270.5 236 Q 276.4 241.1 287.5 241 L 292 244.5 Q 294.1 254.4 301.5 259 Q 309.1 264.4 324.5 262 Q 334.9 258.9 341 251.5 L 346 242.5 L 347 230.5 L 353 215.5 L 353 210.5 Q 351.4 201.6 344.5 198 L 337 192.5 Q 332.9 188.1 334 178.5 L 336.5 174 Q 347 170.5 362.5 172 Q 387 174.5 400 188.5 L 401.5 192 L 404 193.5 L 413 210.5 L 415 222.5 L 409 226.5 L 397.5 241 Q 393.4 244.9 384.5 244 Q 378.9 240.1 368.5 241 L 360 246.5 Q 354.7 251.2 356 262.5 Q 358.4 271.5 365.5 276 Q 373.6 277.4 377 283.5 L 378 294.5 L 384.5 304 Q 389.5 309.5 401.5 308 L 403.5 307 L 407 309.5 Q 408.7 320.8 415 327.5 L 416 340.5 L 412 362.5 L 412 385.5 L 414 394.5 L 408.5 401 L 392.5 404 L 382.5 402 L 378 398.5 L 384 375.5 L 385 356.5 L 382 344.5 L 357 311.5 L 348.5 286 Q 344.8 288.3 347 296.5 L 351 309.5 Q 331.3 324.8 304.5 333 L 278.5 338 L 247.5 338 L 247 335.5 Q 246.1 328.1 249 324.5 L 249 310.5 L 255 295.5 L 255 283.5 L 248.5 274 L 243 271 L 239 264.5 L 238 254.5 L 230.5 243 Q 224.3 237.7 212.5 238 L 205 232.5 L 205 229.5 L 217 209.5 L 223 186.5 L 224 170 Z " /><path fill="rgb(245,241,221)" stroke="rgb(245,241,221)" stroke-width="0.6" opacity="1" d="M 84.5 196 L 114.5 197 L 136.5 202 Q 150.9 206.6 159 217.5 Q 165 225 165 238.5 Q 162.8 252.3 153.5 259 Q 144.7 266.2 131.5 269 L 111.5 269 L 97 263.5 Q 98.3 260.8 103.5 262 L 113.5 263 Q 130.3 261.8 138.5 252 L 141 251.5 L 138.5 247 L 133 246 L 134 249.5 Q 124.1 261.1 99.5 258 L 81.5 254 L 66 243.5 L 61 233.5 L 61 217.5 Q 63.4 207.4 70.5 202 L 84.5 196 Z M 79 206 L 77 207 L 74 211 Q 72 221 79 223 L 84 222 L 87 217 L 86 211 Q 85 205 79 206 Z M 135 215 L 133 216 L 127 224 L 128 230 L 132 232 Q 140 232 143 226 L 142 218 Q 140 214 135 215 Z " /><path fill="rgb(245,241,221)" stroke="rgb(245,241,221)" stroke-width="0.6" opacity="1" d="M 418 206 Q 421.7 204.5 421 207.5 L 429 218.5 L 436 236.5 L 438 251.5 L 438 266.5 L 437 274.5 Q 440.1 280.1 439 289 L 437 287.5 L 435 285.5 L 433 270.5 L 432 249.5 L 424 231.5 L 418 206 Z " /><path fill="rgb(52,54,53)" stroke="rgb(52,54,53)" stroke-width="0.6" opacity="1" d="M 110 72 L 113 73.5 L 114 82 Q 111 80.8 112 84.5 L 113 88 L 116 89.5 L 123.5 98 Q 126.1 97.2 125 100.5 L 123.5 103 L 121 103.5 L 122 105.5 L 118.5 108 L 117 107.5 L 115.5 110 L 106.5 113 L 99 101.5 L 101 101 L 99.5 99 L 99 96.5 L 98 93.5 L 99 89 Q 102 90.3 101 86.5 L 102 83.5 L 102 81.5 L 107.5 73 L 107.5 75 L 110 73.5 L 110 72 Z " /><path fill="rgb(52,54,53)" stroke="rgb(52,54,53)" stroke-width="0.6" opacity="1" d="M 193.5 106 Q 196.8 104.9 196 107.5 L 199 108.5 Q 197.4 119.1 203 122.5 L 202.5 124 L 215 130.5 L 215.5 133 L 220.5 134 L 224.5 132 L 226 132.5 L 227.5 131 L 236.5 127 L 237.5 129 L 238 127 L 240.5 126 L 241.5 128 L 242 126 L 250.5 126 Q 249.9 128.8 253 128 L 253.5 126 L 256 127 L 257.5 129 L 257.5 127 L 277 139.5 L 278.5 141 Q 282 142 281 147.5 L 277.5 153 L 276.5 152 L 272 156.5 L 271.5 159 L 266.5 162 L 264.5 161 L 263.5 164 L 254.5 167 L 252.5 166 L 250 167.5 L 249.5 166 L 242 166 L 241.5 168 L 238 167 L 237.5 165 L 236.5 167 Q 223.1 163.4 216 153.5 L 214 152 L 215 154.5 L 214.5 156 L 216 157.5 Q 219 160.8 218 167 Q 221.3 165.7 220 170.5 L 217 192 L 215 192.5 L 216 196.5 L 212.5 205 L 211 205.5 L 213 206.5 Q 208.1 220.1 199.5 230 L 197 230.5 L 198 231.5 L 191.5 238 L 189 238.5 L 189.5 240 L 184.5 244 L 182.5 243 L 182.5 245 L 169.5 251 L 167.5 248 Q 164.9 248.8 166 245.5 L 167 240 L 169 239.5 L 169 233 L 165.5 234 L 165.5 233 L 168 231.5 L 160 212.5 L 155.5 208 L 139.5 200 L 133.5 199 L 133.5 201 L 132.5 198 L 120.5 196 L 120.5 198 L 119 195 L 114 195.5 L 114.5 197 L 114 194.5 L 112 193 L 111.5 196 L 111 194 Q 106.2 192.1 107 195.5 L 105.5 195 L 104 193 L 99 193 L 98.5 191 L 88 191 Q 89.3 194 85.5 193 L 84 193.5 Q 84.8 190.9 81.5 192 L 79 190.5 L 81 186 Q 85.1 187.7 84 183.5 L 84 181.5 L 86 173 Q 89 174 88 171 L 86 170.5 L 89 169 L 87 165.5 L 90 163.5 L 88 163 L 90 154 Q 93 155.3 92 151.5 L 93 149 L 91 148.5 L 99.5 130 L 101 129.5 Q 98.5 128 102 126.5 L 106.5 120 L 109 118.5 L 110.5 116 L 119.5 110 L 119.5 112 Q 122.8 110.9 122 113.5 L 126.5 116 L 128 115.5 L 127 118 L 129.5 117 L 129 118.5 Q 127.7 127.8 133.5 130 L 143 127.5 L 143.5 125 L 148 127.5 L 148.5 130 L 150.5 131 L 152.5 131 L 155.5 130 L 157 130.5 L 158.5 129 L 160.5 126 L 162.5 126 L 164.5 125 L 167.5 126 L 169 125.5 L 169.5 128 L 174 127 L 174.5 129 L 175 126 Q 183.1 125.2 187 118.5 L 187.5 117 L 189 117.5 L 193.5 106 Z M 109 135 L 101 138 L 102 141 L 100 142 L 101 144 L 105 142 L 106 141 Q 108 137 114 139 L 109 135 Z M 238 138 L 237 141 L 231 143 L 229 143 L 225 145 Q 226 147 223 146 Q 221 143 220 147 L 218 145 Q 215 144 216 148 L 223 149 L 229 153 L 226 148 L 243 140 Q 248 142 247 138 Q 241 137 239 140 L 238 138 Z M 252 138 L 252 140 L 261 141 Q 264 140 261 138 L 260 140 Q 257 137 252 138 Z M 175 143 Q 176 146 173 145 L 173 148 L 179 148 L 185 153 L 187 153 L 185 148 L 181 145 L 179 143 L 175 143 Z M 104 155 L 93 164 Q 92 166 96 165 L 95 164 L 97 164 L 105 157 L 105 159 L 111 158 Q 109 160 113 163 L 112 165 L 108 164 L 107 167 L 102 166 L 101 169 L 100 170 L 100 172 L 99 174 Q 95 173 97 177 L 99 178 L 94 178 L 94 171 L 93 180 L 96 181 L 98 185 L 96 183 L 94 185 L 102 188 L 104 187 L 106 188 L 109 187 Q 116 183 117 173 Q 118 164 115 160 Q 113 154 104 155 Z M 174 163 Q 163 165 158 173 L 159 176 L 158 176 L 158 178 L 157 180 Q 153 180 155 188 L 155 190 L 157 191 L 158 191 L 157 193 L 158 195 L 164 198 L 165 200 Q 173 201 177 198 Q 184 193 185 182 Q 186 178 183 179 L 184 177 L 183 171 L 174 163 Z " /><path fill="rgb(52,54,53)" stroke="rgb(52,54,53)" stroke-width="0.6" opacity="1" d="M 66.5 110 L 68.5 112 L 78 112 L 78.5 110 L 86 112 L 86.5 114 L 88 113.5 L 88.5 115 L 90.5 115 L 99 120.5 L 98 123.5 L 99 125.5 L 90.5 130 L 87 127.5 L 86.5 125 L 78.5 123 L 80.5 126 L 88 130.5 L 88 132.5 Q 89.5 136.9 86.5 136 L 85 138.5 L 86.5 138 L 91 141.5 L 86.5 149 L 84.5 148 L 84 150 L 80.5 149 L 69.5 151 L 54 144 Q 54.8 139.3 50.5 138 L 46 135.5 L 42 127.5 L 44 126.5 L 42.5 122 L 41 122.5 L 45.5 119 L 48 118.5 L 49.5 116 L 60.5 112 L 63 113 Q 61.8 110 65.5 111 L 66.5 110 Z M 56 123 L 54 125 Q 53 131 56 130 L 57 131 L 55 127 L 56 125 L 56 123 Z " /><path fill="rgb(52,54,53)" stroke="rgb(52,54,53)" stroke-width="0.6" opacity="1" d="M 348.5 203 L 348.5 205 L 351 206.5 L 350.5 210 L 349 207.5 L 349.5 206 L 347 204.5 L 348.5 203 Z " /><path fill="rgb(52,54,53)" stroke="rgb(52,54,53)" stroke-width="0.6" opacity="1" d="M 414.5 224 L 417 225.5 L 416.5 227 L 418 228.5 L 419 229.5 L 419 255.5 L 418 260 Q 415 259 416 262 L 418 262.5 L 417 266 L 415 266.5 L 417 267.5 L 414 269 L 415.5 271 L 415 272.5 L 413 281 Q 410 280 411 283 L 413 283.5 L 410 285.5 L 412 286 L 410.5 289 L 409 289.5 L 411 290 L 409 300 L 407 300 Q 408.9 304.8 405.5 304 L 403 305 L 401.5 303 L 395 304 L 394.5 307 L 394 305 L 392 303.5 L 390.5 304 L 387.5 305 L 383.5 299 L 382 299.5 L 382.5 298 Q 379.9 298.8 381 295.5 L 380 293 L 382.5 294 L 383 291 L 379 289.5 Q 377.5 285.1 380.5 286 L 380 284.5 L 378.5 282 L 377 282.5 L 378 279.5 L 376.5 277 L 375 277.5 L 375.5 279 L 372 277.5 L 371.5 275 L 370.5 277 L 369 274.5 L 368.5 272 L 365.5 273 L 361.5 268 L 359 267.5 L 360 263.5 L 357 262.5 L 359 262.5 L 358 251.5 L 361 250.5 L 364.5 246 Q 367.8 247.1 367 244.5 L 368 244.5 L 368.5 246 L 369 244 Q 375.4 245.5 375 242.5 L 376.5 243 L 383 244 L 384 248 L 390.5 248 L 391 246.5 L 392 244 L 398 243.5 L 398.5 241 L 402.5 242 L 404 237.5 L 404.5 235 L 406 235.5 L 406.5 234 L 409 233.5 L 409 231.5 Q 408.3 226.8 411.5 226 L 413.5 227 L 414.5 224 Z " /><path fill="rgb(52,54,53)" stroke="rgb(52,54,53)" stroke-width="0.6" opacity="1" d="M 274.5 235 L 280 237 L 278.5 239 L 275 238 L 274.5 236 L 273 236.5 L 274.5 235 Z " /><path fill="rgb(52,54,53)" stroke="rgb(52,54,53)" stroke-width="0.6" opacity="1" d="M 284 238 L 290 239 L 290.5 241 L 292 240.5 L 292.5 243 L 295 243.5 L 293.5 245 L 289.5 241 L 284 240 L 284 238 Z " /><path fill="rgb(52,54,53)" stroke="rgb(52,54,53)" stroke-width="0.6" opacity="1" d="M 255.5 339 L 268 339.5 L 255.5 340 L 255.5 339 Z " /><path fill="rgb(52,54,53)" stroke="rgb(52,54,53)" stroke-width="0.6" opacity="1" d="M 361.5 340 L 357 345.5 L 356.5 347 L 356 345.5 L 361.5 340 Z " /><path fill="rgb(52,54,53)" stroke="rgb(52,54,53)" stroke-width="0.6" opacity="1" d="M 377.5 403 L 388 406 L 388.5 408 L 389.5 406 L 400.5 407 L 402 406.5 L 404 408 L 405.5 406 L 408 405 L 409 418 L 411 418.5 L 406.5 424 L 403.5 423 L 402.5 426 Q 394.6 429.6 381.5 428 L 380 425.5 L 382 415 L 379 416.5 L 381 417.5 L 377.5 425 Q 374.2 423.9 375 426.5 L 373.5 426 L 369 423.5 Q 369.3 411.6 374 405 Q 377.8 406.3 377.5 403 Z " /><path fill="rgb(230,153,165)" stroke="rgb(230,153,165)" stroke-width="0.6" opacity="1" d="M 200 235 L 212 241 Q 210.8 244 214.5 243 L 216.5 242 L 225.5 244 L 230 247 L 235 259.5 L 234 262.5 L 236 268.5 L 242.5 275 L 248 278.5 Q 251.4 283.1 251 291.5 L 250 298.5 L 244 313.5 L 245 315.5 L 242.5 322 L 241 322.5 L 242 331.5 Q 238.7 335.2 240 343.5 L 238 346.5 L 239 348.5 L 236 354.5 L 236 364.5 L 232 373.5 L 232 380.5 L 233 385.5 L 232 393.5 L 234 397.5 L 233 399.5 L 234 408.5 L 232 413 L 215.5 416 L 205.5 414 L 202 410.5 L 207 393.5 L 208 376.5 L 204 365.5 L 204 359.5 L 205 358.5 L 205 336.5 L 197 308.5 L 193.5 302 Q 190.5 303.5 192 309.5 L 195 317.5 L 194 320.5 L 198 332.5 L 195.5 333 Q 176.5 328 166 314.5 L 156 299.5 L 149 279.5 L 148 269 L 162.5 257 L 166.5 256 L 168.5 256 Q 187.9 249.9 200 236.5 L 200 235 Z " /><path fill="rgb(230,153,165)" stroke="rgb(230,153,165)" stroke-width="0.6" opacity="1" d="M 442.5 293 L 453 294 L 454.5 297 L 461 300.5 L 465 307.5 L 466 316.5 L 464 328.5 L 462 330.5 Q 462.4 337.6 467 340.5 Q 465.8 343.3 460.5 342 Q 452.9 340.1 449 334.5 L 443.5 323 Q 440.9 322.2 442 325.5 L 441 328 L 437 326.5 L 433 314.5 L 434 309.5 L 433 307.5 L 435 300.5 L 439.5 295 L 442.5 293 Z " /><path fill="rgb(230,153,165)" stroke="rgb(230,153,165)" stroke-width="0.6" opacity="1" d="M 162 320 L 166 321.5 L 169.5 326 L 191 338.5 L 192 344.5 L 191 347.5 L 192 351.5 Q 188.7 355.2 190 363.5 L 188 365.5 L 187 381.5 L 189 398.5 L 187 403 L 182.5 406 L 178.5 406 L 169.5 405 L 165.5 406 L 157 401.5 Q 164.8 388.8 165 368.5 Q 160.8 363.2 161 353.5 L 163 349.5 L 163 330.5 L 161 322.5 L 162 320 Z " /><path fill="rgb(230,153,165)" stroke="rgb(230,153,165)" stroke-width="0.6" opacity="1" d="M 301.5 349 L 307 352.5 Q 306.6 358.1 302.5 360 L 298 358.5 L 297 352.5 L 301.5 349 Z " /><path fill="rgb(230,153,165)" stroke="rgb(230,153,165)" stroke-width="0.6" opacity="1" d="M 300.5 399 L 305.5 401 L 307.5 400 L 314.5 403 L 322.5 403 Q 323.9 399.8 329 401 L 330 405.5 L 326.5 414 L 306.5 418 L 304 417 L 303 412.5 L 306 405.5 L 304.5 403 L 296.5 416 L 293 410.5 L 297 400 L 300.5 399 Z " /><path fill="rgb(230,153,165)" stroke="rgb(230,153,165)" stroke-width="0.6" opacity="1" d="M 200.5 417 L 207.5 419 L 210.5 422 L 212.5 420 L 222.5 420 L 225.5 421 Q 227 417.8 232 419 L 232 431.5 L 227.5 436 L 209.5 439 L 206 433.5 L 208 424.5 Q 206 421 204 425.5 Q 204.6 432.1 200.5 434 L 197.5 436 L 194 435 Q 193.9 423.3 200.5 417 Z " /><path fill="rgb(10,10,10)" stroke="rgb(10,10,10)" stroke-width="0.6" opacity="1" d="M 108.5 69 Q 114.8 67.8 116 71.5 L 116 84.5 L 125.5 96 L 128.5 97 L 134.5 92 L 143.5 90 L 145.5 88 L 163.5 87 L 182.5 92 L 192 99.5 L 193.5 102 Q 196.3 105.7 203.5 105 Q 213.1 102.6 218 95.5 L 223 82.5 L 225.5 80 L 228.5 79 L 234 83.5 Q 238.4 90.1 238 101.5 Q 235.9 117.9 225.5 126 L 222 128.5 L 223.5 130 L 235.5 124 L 250.5 123 Q 271.6 126.9 283 140.5 L 285 145.5 Q 281.3 157.3 271.5 163 Q 261.7 171.7 242.5 171 L 234 169 L 235.5 172 L 249.5 178 L 271.5 179 L 287.5 177 L 289.5 178 L 293.5 176 L 322.5 172 L 333.5 169 L 365.5 168 L 387.5 174 L 399.5 182 L 423 202.5 Q 433.7 214.8 439 232.5 L 442 247.5 L 442 280.5 L 445.5 289 Q 459.9 290.6 466 300.5 Q 470.4 307.1 470 318.5 L 467 328.5 L 467 334.5 L 473 342.5 Q 469.9 346.9 461.5 346 Q 445.2 342.8 436 332.5 Q 428.3 324.2 429 307.5 L 434 291.5 L 430 279.5 L 429 253.5 L 423.5 239 L 422 240.5 L 422 254.5 L 420 267.5 L 412 296.5 L 411 309.5 Q 413.4 321.6 420 329.5 L 420 342.5 Q 414.2 360.2 416 385.5 L 417 398.5 L 413 404.5 L 414 417.5 L 411.5 423 L 410 424.5 Q 400.1 432.6 380.5 431 Q 371.2 430.3 366 425.5 L 367 413.5 L 374 399.5 L 374 393.5 L 379 379.5 L 381 357.5 Q 379.4 342.1 369.5 335 L 367 336.5 L 360 347.5 Q 364.2 351.3 363 360.5 L 359.5 365 L 351.5 366 L 344.5 358 L 343 359.5 L 338 375.5 L 338 390.5 L 334 397.5 L 333 411.5 L 328.5 417 L 318.5 421 L 305.5 422 Q 295.2 421 289 417 L 288 411.5 L 305 372.5 L 306 363 L 299.5 364 L 294 360.5 L 293 352.5 L 297 344.5 Q 296 339 288.5 340 Q 272.9 344.4 251.5 343 L 245.5 342 L 243 344.5 Q 242 361.5 237 374.5 L 237 394.5 Q 239.8 400.7 239 410.5 Q 235.1 412.1 236 418.5 L 237 431.5 L 231.5 438 Q 222 444 205.5 443 L 191 439 L 190 431.5 L 201 401.5 L 204 386.5 L 204 376.5 L 201 370.5 L 200 356.5 L 201 355.5 L 201 340.5 L 197 338 L 196 340.5 L 195 359.5 L 192 367.5 L 191 383.5 L 193 401.5 Q 189.3 403.8 190 410.5 L 191 417.5 Q 190.5 425 185.5 428 Q 175.8 434.3 157.5 432 L 149.5 430 L 145 426.5 L 147 413.5 L 153 403.5 Q 154 393.5 159 387.5 L 161 375.5 L 157 354.5 Q 160.8 345.8 159 331.5 L 154 303.5 L 147 288.5 L 145 275.5 L 141.5 270 Q 131.7 275.2 115.5 274 Q 102.2 272.8 93.5 267 L 84.5 259 Q 70.5 256 63 246.5 L 57 234.5 L 56 224.5 Q 57 208 66.5 200 L 75 192.5 L 83 175.5 L 87 153.5 L 84.5 152 Q 79.1 155.1 69.5 154 Q 53.1 150.9 45 139.5 L 39 128.5 L 38 122.5 L 43.5 116 L 61.5 108 L 75.5 107 L 88.5 110 L 103.5 119 L 105 116.5 L 97 104.5 L 96 88.5 Q 98.4 76.4 106.5 70 L 108.5 69 Z M 111 71 L 108 73 Q 99 79 98 92 L 98 101 L 104 112 L 108 114 L 121 107 L 125 101 Q 126 97 124 98 L 116 91 L 113 73 L 111 71 Z M 228 82 L 224 87 L 221 97 L 214 104 L 201 110 Q 200 119 205 123 L 215 128 L 224 124 Q 233 117 235 103 L 233 87 L 228 82 Z M 152 90 L 144 91 L 135 95 L 124 108 L 125 114 L 125 115 L 121 109 L 113 114 Q 100 124 94 140 L 89 155 L 84 181 L 78 193 L 79 195 L 81 194 Q 84 193 83 196 Q 76 196 72 200 L 62 211 L 58 223 L 60 236 L 64 243 Q 71 252 83 256 L 98 259 L 106 259 L 106 261 L 98 260 Q 91 259 92 262 Q 100 269 114 271 Q 137 272 151 263 Q 160 257 164 247 L 166 245 L 165 250 L 166 252 Q 183 248 194 237 Q 217 216 220 174 Q 223 160 216 157 L 217 154 Q 224 165 241 168 L 253 168 L 272 159 Q 280 155 282 145 L 264 129 L 253 125 L 235 127 L 223 133 Q 216 135 218 130 L 208 127 Q 201 123 199 115 L 200 109 L 195 105 L 191 106 L 190 102 Q 186 94 176 93 Q 174 89 173 92 Q 164 89 152 90 Z M 67 109 L 51 115 L 41 123 L 42 130 L 49 140 Q 56 148 69 151 L 72 150 L 78 151 L 86 150 L 89 147 L 93 137 L 92 134 L 90 133 L 85 128 L 82 124 L 95 132 L 101 123 L 89 113 L 80 109 L 76 110 L 67 109 Z M 224 167 L 222 169 L 222 182 L 220 185 L 221 187 Q 217 214 203 232 L 186 247 L 171 254 L 164 255 Q 157 264 146 269 L 147 273 L 146 276 L 152 291 L 152 295 L 163 313 Q 175 331 200 335 L 195 315 L 197 313 L 204 343 Q 205 355 202 364 L 206 375 L 206 390 L 200 412 L 207 416 Q 211 415 210 418 L 201 415 L 196 420 L 192 430 L 192 435 Q 194 439 201 439 L 203 435 Q 202 431 205 432 L 204 436 L 206 440 Q 220 442 229 437 L 234 432 L 234 417 L 229 418 Q 225 419 226 416 L 232 415 L 237 408 L 234 390 L 235 371 L 237 368 L 246 318 Q 244 311 248 312 L 245 338 L 254 340 L 289 338 L 309 333 L 323 328 L 352 311 L 349 300 Q 348 296 351 297 L 358 316 L 376 338 L 383 352 L 383 374 L 376 399 L 385 404 Q 390 402 389 406 L 376 403 L 370 412 L 369 424 L 374 427 L 379 426 L 382 428 Q 399 430 409 423 L 411 420 L 411 406 L 410 404 L 405 406 Q 400 407 401 404 L 411 402 L 415 397 L 413 382 Q 412 356 418 338 L 417 330 L 411 320 Q 408 315 409 306 L 407 304 L 409 302 L 419 258 L 419 229 L 416 225 L 417 223 Q 414 203 403 191 L 391 179 L 383 175 L 365 171 L 343 171 L 337 172 L 335 174 L 333 173 L 292 180 L 290 179 L 276 182 Q 260 184 251 179 L 249 180 Q 233 177 224 167 Z M 413 197 L 412 200 L 420 219 L 422 232 Q 428 238 430 248 L 432 258 L 433 283 L 438 291 L 442 289 L 439 276 L 439 263 L 440 262 Q 439 222 418 202 L 413 197 Z M 443 291 L 439 293 L 432 306 Q 430 323 438 331 L 445 336 L 446 334 L 446 332 L 448 336 L 460 343 Q 467 345 469 342 L 465 337 Q 464 327 467 322 Q 469 309 464 303 Q 458 292 443 291 Z M 158 313 L 162 337 Q 163 345 160 350 L 160 362 Q 164 365 163 375 L 163 377 L 160 392 L 156 399 Q 155 404 159 406 L 154 406 L 148 419 L 148 425 L 155 428 L 157 425 Q 156 421 159 422 L 158 425 Q 157 429 161 430 Q 174 431 183 427 L 188 420 L 188 410 L 187 408 L 184 409 Q 179 410 180 407 L 187 406 L 191 400 L 189 390 L 189 371 L 193 356 L 194 339 L 170 324 L 164 318 L 158 313 Z M 352 314 L 327 329 L 299 338 L 297 341 Q 305 351 320 354 L 319 360 Q 319 367 324 369 L 329 368 Q 333 364 333 357 L 346 353 L 349 361 L 355 364 L 358 363 L 361 358 L 357 348 L 366 334 L 366 331 L 356 317 L 352 314 Z M 300 346 Q 295 349 296 359 Q 298 362 304 361 Q 308 359 309 353 L 300 346 Z M 311 355 L 308 371 L 299 393 L 310 398 Q 315 396 314 400 L 299 396 L 292 406 L 291 415 L 298 417 L 300 413 L 302 412 L 301 416 L 303 419 Q 317 420 326 416 Q 330 414 331 408 Q 333 401 330 399 L 327 400 Q 323 401 324 398 L 331 397 L 335 392 L 335 379 L 340 359 L 336 357 L 334 359 L 333 367 L 328 371 L 321 370 Q 315 367 317 357 L 311 355 Z " /><path fill="rgb(10,10,10)" stroke="rgb(10,10,10)" stroke-width="0.6" opacity="1" d="M 134.5 109 L 136 109.5 Q 130 113.5 131 124.5 L 134 128.5 L 132.5 128 L 130 126.5 L 129 118.5 L 130 115.5 Q 126.2 113.7 129.5 112 L 134.5 109 Z " /><path fill="rgb(10,10,10)" stroke="rgb(10,10,10)" stroke-width="0.6" opacity="1" d="M 188.5 114 L 188 115.5 L 179.5 125 L 177 124.5 L 188.5 114 Z " /><path fill="rgb(10,10,10)" stroke="rgb(10,10,10)" stroke-width="0.6" opacity="1" d="M 147.5 118 Q 147.4 126.8 152 130 L 147 126.5 L 145.5 123 L 137.5 129 L 138.5 127 L 144 122.5 L 147.5 118 Z " /><path fill="rgb(10,10,10)" stroke="rgb(10,10,10)" stroke-width="0.6" opacity="1" d="M 162 119 Q 165.3 117.7 164 122.5 L 166.5 126 L 162.5 124 L 155 130 L 156.5 128 L 162 119 Z " /><path fill="rgb(10,10,10)" stroke="rgb(10,10,10)" stroke-width="0.6" opacity="1" d="M 108.5 136 L 113 137 Q 114.1 140.5 106.5 139 L 102 141 L 104.5 137 L 108.5 136 Z " /><path fill="rgb(10,10,10)" stroke="rgb(10,10,10)" stroke-width="0.6" opacity="1" d="M 239.5 139 L 241 141 L 223.5 149 L 222 146 L 225.5 146 L 239.5 139 Z " /><path fill="rgb(10,10,10)" stroke="rgb(10,10,10)" stroke-width="0.6" opacity="1" d="M 174 145 Q 182.2 144.1 185 149.5 L 186 153 L 179.5 148 L 174 147 L 174 145 Z " /><path fill="rgb(10,10,10)" stroke="rgb(10,10,10)" stroke-width="0.6" opacity="1" d="M 105.5 155 L 113 157.5 L 114 159.5 L 112.5 160 Q 111.3 155.8 104.5 157 L 98.5 161 L 98 159 L 105.5 155 Z " /><path fill="rgb(10,10,10)" stroke="rgb(10,10,10)" stroke-width="0.6" opacity="1" d="M 108 164 L 115 167 Q 114 164 117 165 L 115 179.5 L 109.5 186 L 102.5 187 Q 97.8 183.2 99 173.5 L 103.5 166 L 106 166.5 Q 103 167.5 104 172.5 L 108.5 174 Q 111.8 173.3 111 168.5 L 108 164 Z " /><path fill="rgb(10,10,10)" stroke="rgb(10,10,10)" stroke-width="0.6" opacity="1" d="M 166.5 165 L 169 165.5 L 161.5 171 L 161 169.5 L 166.5 165 Z " /><path fill="rgb(10,10,10)" stroke="rgb(10,10,10)" stroke-width="0.6" opacity="1" d="M 174 165 Q 179.6 165.1 182 169.5 L 183 173.5 L 181 172.5 L 176.5 167 Q 172.8 168 174 165 Z " /><path fill="rgb(10,10,10)" stroke="rgb(10,10,10)" stroke-width="0.6" opacity="1" d="M 173.5 175 L 177.5 175 L 184 180.5 Q 185 193 177.5 197 Q 173.9 200.8 167 200 L 163 191.5 L 163 184.5 L 168.5 176 L 171 176.5 L 168 181.5 L 170.5 185 Q 176.3 185.8 177 181.5 L 173.5 175 Z " /><path fill="rgb(10,10,10)" stroke="rgb(10,10,10)" stroke-width="0.6" opacity="1" d="M 86 193 L 101.5 193 L 102 195 L 86.5 195 L 86 193 Z " /><path fill="rgb(10,10,10)" stroke="rgb(10,10,10)" stroke-width="0.6" opacity="1" d="M 145.5 204 L 158 212.5 L 157.5 214 L 145.5 204 Z " /><path fill="rgb(10,10,10)" stroke="rgb(10,10,10)" stroke-width="0.6" opacity="1" d="M 79.5 207 L 84 209.5 L 85 219 L 80 215.5 L 78.5 212 L 77 217.5 L 81 220 L 79.5 222 L 76 219.5 L 75 211.5 L 77.5 208 L 79.5 207 Z " /><path fill="rgb(10,10,10)" stroke="rgb(10,10,10)" stroke-width="0.6" opacity="1" d="M 135.5 216 L 141 218.5 L 142 223.5 L 138.5 228 L 139 226.5 L 137.5 224 L 133 227 L 135 231 Q 130.3 232 129 228.5 L 128 224.5 L 131.5 218 L 135.5 216 Z " /><path fill="rgb(10,10,10)" stroke="rgb(10,10,10)" stroke-width="0.6" opacity="1" d="M 160.5 216 L 165 224 L 163 222.5 L 160.5 216 Z " /><path fill="rgb(10,10,10)" stroke="rgb(10,10,10)" stroke-width="0.6" opacity="1" d="M 135 247 L 139 249.5 Q 139.8 252.1 136.5 251 Q 128.9 261.2 112 261 Q 110.9 257.3 119.5 259 Q 129.2 256.7 135 250.5 L 135 247 Z " /><path fill="rgb(10,10,10)" stroke="rgb(10,10,10)" stroke-width="0.6" opacity="1" d="M 212 417 L 223.5 417 L 224 419 L 212.5 419 L 212 417 Z " /><path fill="rgb(115,82,53)" stroke="rgb(115,82,53)" stroke-width="0.6" opacity="1" d="M 331.5 173 L 332 175.5 L 330 183.5 Q 332.1 192.9 338.5 198 L 348 205.5 L 350 214.5 L 344 229.5 L 344.5 231 L 343 232.5 L 344 238.5 Q 341.9 247.9 335.5 253 L 331.5 256 L 330 255.5 Q 330.8 258.1 327.5 257 Q 321.4 260.9 309.5 259 Q 301.9 257.1 298 251.5 Q 296.8 243.7 291.5 240 Q 289 236.8 283 238 L 282.5 236 L 277.5 237 L 271 232.5 L 264.5 217 Q 253.3 214.3 247 206.5 Q 242.9 202.1 244 192.5 L 248.5 182 L 255.5 181 L 256.5 182 L 280.5 182 L 287.5 181 L 289 181.5 L 289.5 180 L 297.5 180 L 331.5 173 Z " /><path fill="rgb(115,82,53)" stroke="rgb(115,82,53)" stroke-width="0.6" opacity="1" d="M 171.5 177 L 176 179.5 L 174.5 183 Q 171.2 181.9 172 184.5 L 169 182.5 Q 168.3 177.8 171.5 177 Z " /><path fill="rgb(115,82,53)" stroke="rgb(115,82,53)" stroke-width="0.6" opacity="1" d="M 352.5 314 L 353 316 L 356 317.5 L 366 332.5 L 356 346.5 L 360 354.5 L 360 358.5 L 357.5 362 L 352.5 363 L 345.5 352 L 336.5 354 Q 335 351.5 333.5 355 Q 330.9 354.2 332 357.5 L 331 363.5 L 327.5 368 Q 321 369 320 364.5 L 321 354.5 L 307.5 349 L 298 340.5 L 299 338 Q 330.8 331.6 352.5 314 Z " /><path fill="rgb(115,82,53)" stroke="rgb(115,82,53)" stroke-width="0.6" opacity="1" d="M 198.5 339 Q 202.3 342.3 201 350.5 L 199 363.5 L 203 376.5 L 202 383.5 L 203 390 L 201 390.5 L 202 393.5 L 198 404.5 L 197 412.5 L 192.5 420 L 191 418.5 L 191 405.5 Q 195.3 403.3 194 395.5 Q 190.7 386.3 192 372.5 L 196 354.5 L 196 344.5 L 198.5 339 Z " /><path fill="rgb(115,82,53)" stroke="rgb(115,82,53)" stroke-width="0.6" opacity="1" d="M 312.5 355 L 317 357.5 L 316 364.5 L 319.5 370 L 325.5 373 L 332 368.5 L 336.5 358 L 338.5 357 L 339 359.5 Q 333.3 371.3 335 390.5 L 330.5 396 Q 324 400 311.5 398 Q 303.9 397.1 300 392.5 L 309 369.5 L 309 365 L 311 364.5 L 310 360.5 L 312.5 355 Z " /><path fill="rgb(115,82,53)" stroke="rgb(115,82,53)" stroke-width="0.6" opacity="1" d="M 154.5 407 L 156.5 408 L 158.5 408 Q 167.1 411.4 180.5 410 L 185.5 408 L 187 409.5 L 187 421.5 L 184 423 L 182.5 425 Q 175.2 431.2 159.5 429 L 159 426.5 L 161 414.5 L 160 414.5 Q 155.8 419 156 427 Q 150.3 428 148 424.5 Q 148.6 413.1 154.5 407 Z " /><path fill="rgb(31,31,31)" stroke="rgb(31,31,31)" stroke-width="0.6" opacity="1" d="M 193.5 105 L 195 105.5 L 192 107.5 L 189.5 114 L 188 114.5 L 188.5 116 Q 185.5 114.5 188.5 113 L 190 112.5 L 190 110.5 L 191 106 L 193.5 105 Z " /><path fill="rgb(31,31,31)" stroke="rgb(31,31,31)" stroke-width="0.6" opacity="1" d="M 124.5 112 L 130 115.5 L 128.5 115 L 124.5 116 L 122.5 113 L 125 114.5 L 124.5 112 Z " /><path fill="rgb(31,31,31)" stroke="rgb(31,31,31)" stroke-width="0.6" opacity="1" d="M 164.5 122 Q 165.5 127 172.5 126 L 175 125 Q 176.3 128 172.5 127 L 169.5 128 L 164 124.5 L 164.5 122 Z " /><path fill="rgb(31,31,31)" stroke="rgb(31,31,31)" stroke-width="0.6" opacity="1" d="M 78.5 123 L 81 123.5 L 81.5 125 L 83 124.5 L 82.5 127 L 78.5 123 Z " /><path fill="rgb(31,31,31)" stroke="rgb(31,31,31)" stroke-width="0.6" opacity="1" d="M 216 145 L 219.5 147 L 222 145.5 L 223.5 149 L 225.5 148 L 229 152.5 L 227.5 153 Q 223.9 147.8 216 148 L 216 145 Z " /><path fill="rgb(31,31,31)" stroke="rgb(31,31,31)" stroke-width="0.6" opacity="1" d="M 101.5 156 L 102 158.5 L 95.5 165 L 96 163.5 L 97.5 160 L 100 159.5 Q 97.3 157.8 101.5 156 Z " /><path fill="rgb(31,31,31)" stroke="rgb(31,31,31)" stroke-width="0.6" opacity="1" d="M 113.5 158 L 117 164.5 L 115 165 L 113 160.5 L 113.5 158 Z " /><path fill="rgb(31,31,31)" stroke="rgb(31,31,31)" stroke-width="0.6" opacity="1" d="M 173.5 163 L 176 164.5 L 168.5 167 L 168.5 164 L 173.5 163 Z " /><path fill="rgb(31,31,31)" stroke="rgb(31,31,31)" stroke-width="0.6" opacity="1" d="M 155 180 L 157 180.5 L 157 191 L 155 189.5 L 155 187.5 L 155 180 Z " /><path fill="rgb(31,31,31)" stroke="rgb(31,31,31)" stroke-width="0.6" opacity="1" d="M 332 186 Q 335.3 184.7 334 189.5 L 336 193.5 L 334 192.5 L 332 186 Z " /><path fill="rgb(31,31,31)" stroke="rgb(31,31,31)" stroke-width="0.6" opacity="1" d="M 338.5 196 L 346 200.5 L 344.5 202 L 339.5 197 L 338.5 196 Z " /><path fill="rgb(31,31,31)" stroke="rgb(31,31,31)" stroke-width="0.6" opacity="1" d="M 132.5 198 L 146 203.5 L 144 204.5 L 143.5 203 L 142 203.5 L 141.5 202 L 139.5 202 Q 133 202 132.5 198 Z " /><path fill="rgb(31,31,31)" stroke="rgb(31,31,31)" stroke-width="0.6" opacity="1" d="M 245.5 205 L 248 210 L 257 214.5 L 254.5 215 L 246 208.5 L 245.5 205 Z " /><path fill="rgb(31,31,31)" stroke="rgb(31,31,31)" stroke-width="0.6" opacity="1" d="M 163.5 224 Q 168.1 222.7 166 228.5 L 168 231.5 L 165.5 233 L 165.5 232 L 167 230 L 165 228.5 L 163.5 224 Z " /><path fill="rgb(31,31,31)" stroke="rgb(31,31,31)" stroke-width="0.6" opacity="1" d="M 266 225 Q 269 223.8 268 227.5 L 270 232.5 L 269 232.5 L 266 225 Z " /><path fill="rgb(31,31,31)" stroke="rgb(31,31,31)" stroke-width="0.6" opacity="1" d="M 138.5 226 L 141 226.5 L 135.5 231 L 135 229.5 L 138.5 226 Z " /><path fill="rgb(31,31,31)" stroke="rgb(31,31,31)" stroke-width="0.6" opacity="1" d="M 408.5 230 L 409 231.5 L 403.5 239 L 403 237.5 L 408.5 230 Z " /><path fill="rgb(31,31,31)" stroke="rgb(31,31,31)" stroke-width="0.6" opacity="1" d="M 363.5 245 L 366 245.5 L 360 249.5 L 360.5 251 L 359 249.5 L 363.5 245 Z " /><path fill="rgb(31,31,31)" stroke="rgb(31,31,31)" stroke-width="0.6" opacity="1" d="M 297.5 251 L 299 255 L 303 256.5 L 300.5 257 Q 295.7 255.7 297.5 251 Z " /><path fill="rgb(31,31,31)" stroke="rgb(31,31,31)" stroke-width="0.6" opacity="1" d="M 357 255 Q 360.8 253.9 359 262.5 L 360 266.5 L 358 265.5 L 359 263.5 Q 355.3 261.6 357 255 Z " /><path fill="rgb(31,31,31)" stroke="rgb(31,31,31)" stroke-width="0.6" opacity="1" d="M 360.5 268 L 364 270.5 L 365.5 273 L 368 274.5 L 366.5 274 L 361 270.5 L 360.5 268 Z " /><path fill="rgb(31,31,31)" stroke="rgb(31,31,31)" stroke-width="0.6" opacity="1" d="M 375.5 279 L 377 280.5 L 381 285.5 L 379.5 286 L 375.5 279 Z " /><path fill="rgb(31,31,31)" stroke="rgb(31,31,31)" stroke-width="0.6" opacity="1" d="M 197 338 L 201 340.5 Q 199 337.3 197 340.5 L 196.5 343 L 196 340.5 L 197 338 Z " /><path fill="rgb(31,31,31)" stroke="rgb(31,31,31)" stroke-width="0.6" opacity="1" d="M 160.5 349 L 161 361.5 L 160 361.5 L 160.5 349 Z " /><path fill="rgb(31,31,31)" stroke="rgb(31,31,31)" stroke-width="0.6" opacity="1" d="M 380 418 L 382 419.5 L 379.5 426 L 377.5 427 L 378 425.5 L 380 418 Z " /><path fill="rgb(71,71,69)" stroke="rgb(71,71,69)" stroke-width="0.6" opacity="1" d="M 68 110 L 77.5 110 L 78 112 L 68.5 112 L 68 110 Z " /><path fill="rgb(71,71,69)" stroke="rgb(71,71,69)" stroke-width="0.6" opacity="1" d="M 108.5 157 L 113 160.5 L 114 162.5 L 109.5 159 Q 106.7 159.7 108.5 157 Z " /><path fill="rgb(71,71,69)" stroke="rgb(71,71,69)" stroke-width="0.6" opacity="1" d="M 93.5 171 L 94 178 L 96 178.5 L 94.5 181 Q 91.4 177.9 93.5 171 Z " /><path fill="rgb(71,71,69)" stroke="rgb(71,71,69)" stroke-width="0.6" opacity="1" d="M 247.5 181 L 248 182.5 L 244.5 189 L 243 188.5 L 247.5 181 Z " /><path fill="rgb(71,71,69)" stroke="rgb(71,71,69)" stroke-width="0.6" opacity="1" d="M 96.5 182 L 97.5 185 L 99.5 186 L 100.5 184 L 101 187 L 94 184.5 L 95.5 183 L 96.5 182 Z " /><path fill="rgb(71,71,69)" stroke="rgb(71,71,69)" stroke-width="0.6" opacity="1" d="M 88 191 L 98.5 191 L 99 193 L 88.5 193 L 88 191 Z " /><path fill="rgb(71,71,69)" stroke="rgb(71,71,69)" stroke-width="0.6" opacity="1" d="M 154.5 208 L 160 212.5 L 159.5 214 L 154.5 208 Z " /><path fill="rgb(71,71,69)" stroke="rgb(71,71,69)" stroke-width="0.6" opacity="1" d="M 257.5 214 L 260 215.5 L 260.5 217 L 262.5 216 L 263.5 218 L 261.5 217 L 259 216.5 L 258.5 215 L 256.5 216 L 257.5 214 Z " /><path fill="rgb(71,71,69)" stroke="rgb(71,71,69)" stroke-width="0.6" opacity="1" d="M 383.5 244 L 390.5 245 L 392 244.5 L 391 248 L 384.5 248 L 384 246.5 L 383.5 244 Z " /><path fill="rgb(71,71,69)" stroke="rgb(71,71,69)" stroke-width="0.6" opacity="1" d="M 401.5 303 L 404.5 305 L 404.5 306 L 402.5 307 L 402 305 Q 399 304 400 307 L 395 307 Q 393.2 301.8 400.5 304 L 401.5 303 Z " /><path fill="rgb(71,71,69)" stroke="rgb(71,71,69)" stroke-width="0.6" opacity="1" d="M 297.5 340 L 302.5 346 L 297.5 340 Z " /><path fill="rgb(71,71,69)" stroke="rgb(71,71,69)" stroke-width="0.6" opacity="1" d="M 408 405 L 411 406.5 L 411 417.5 L 409 418 L 408 405 Z " /><path fill="rgb(224,222,211)" stroke="rgb(224,222,211)" stroke-width="0.6" opacity="1" d="M 153.5 91 L 164 91.5 L 153.5 92 L 153.5 91 Z " /><path fill="rgb(224,222,211)" stroke="rgb(224,222,211)" stroke-width="0.6" opacity="1" d="M 232.5 91 L 234 101.5 L 233 101.5 L 232.5 91 Z " /><path fill="rgb(224,222,211)" stroke="rgb(224,222,211)" stroke-width="0.6" opacity="1" d="M 185.5 98 Q 189.6 99.9 190 105.5 L 189 105.5 L 185.5 98 Z " /><path fill="rgb(224,222,211)" stroke="rgb(224,222,211)" stroke-width="0.6" opacity="1" d="M 205.5 108 L 204.5 112 Q 201.9 111.2 203 114.5 L 202 114.5 L 203.5 109 L 205.5 108 Z " /><path fill="rgb(224,222,211)" stroke="rgb(224,222,211)" stroke-width="0.6" opacity="1" d="M 132.5 117 Q 131.1 124.4 135 126.5 L 132 124.5 L 132.5 117 Z " /><path fill="rgb(224,222,211)" stroke="rgb(224,222,211)" stroke-width="0.6" opacity="1" d="M 157.5 183 L 159 188 Q 163.1 186.7 162 190 L 158.5 191 L 157.5 183 Z " /><path fill="rgb(224,222,211)" stroke="rgb(224,222,211)" stroke-width="0.6" opacity="1" d="M 115.5 269 L 127 269.5 L 115.5 270 L 115.5 269 Z " /><path fill="rgb(224,222,211)" stroke="rgb(224,222,211)" stroke-width="0.6" opacity="1" d="M 439.5 284 L 441 287.5 L 437.5 290 L 436 287.5 L 437 287.5 L 439 289 L 439.5 284 Z " /><path fill="rgb(224,222,211)" stroke="rgb(224,222,211)" stroke-width="0.6" opacity="1" d="M 254.5 338 L 270 338.5 L 254.5 339 L 254.5 338 Z " /><path fill="rgb(96,94,93)" stroke="rgb(96,94,93)" stroke-width="0.6" opacity="1" d="M 333.5 179 L 333 180.5 L 334 185.5 L 331.5 184 Q 328.9 184.8 330 181.5 L 333.5 179 Z " /><path fill="rgb(124,118,118)" stroke="rgb(124,118,118)" stroke-width="0.6" opacity="1" d="M 442.5 251 L 443 266.5 L 442 266.5 L 442.5 251 Z " /><path fill="rgb(196,195,190)" stroke="rgb(196,195,190)" stroke-width="0.6" opacity="1" d="M 254.5 343 L 268 343.5 L 254.5 344 L 254.5 343 Z " /><path fill="rgb(220,148,159)" stroke="rgb(220,148,159)" stroke-width="0.6" opacity="1" d="M 250.5 283 Q 253.1 286.5 252 293.5 L 250.5 298 L 250 292.5 L 251 287.5 L 250.5 283 Z " /><path fill="rgb(220,148,159)" stroke="rgb(220,148,159)" stroke-width="0.6" opacity="1" d="M 441.5 326 L 443 329.5 L 440.5 331 L 437.5 327 L 441 328 L 441.5 326 Z " /><path fill="rgb(220,148,159)" stroke="rgb(220,148,159)" stroke-width="0.6" opacity="1" d="M 232.5 386 L 234 395.5 L 233 395.5 L 232.5 386 Z " /><path fill="rgb(220,148,159)" stroke="rgb(220,148,159)" stroke-width="0.6" opacity="1" d="M 298.5 397 L 302 398.5 L 297 400 L 294.5 406 L 294 404.5 L 298.5 397 Z " /><path fill="rgb(220,148,159)" stroke="rgb(220,148,159)" stroke-width="0.6" opacity="1" d="M 233.5 398 Q 236.9 401.6 235 410.5 L 230.5 414 L 230.5 413 Q 233.1 413.8 232 410.5 Q 236 408.5 234 400.5 L 233.5 398 Z " /><path fill="rgb(220,148,159)" stroke="rgb(220,148,159)" stroke-width="0.6" opacity="1" d="M 188.5 399 L 189 401.5 L 183.5 406 L 185.5 403 L 187 401.5 L 188.5 399 Z " /><path fill="rgb(220,148,159)" stroke="rgb(220,148,159)" stroke-width="0.6" opacity="1" d="M 313.5 401 L 320.5 402 L 323.5 401 L 322.5 403 Q 313.5 405 313.5 401 Z " /><path fill="rgb(220,148,159)" stroke="rgb(220,148,159)" stroke-width="0.6" opacity="1" d="M 230.5 418 L 233 418.5 L 233 430.5 L 232 430.5 L 232 419.5 L 230.5 419 L 230.5 418 Z " /><path fill="rgb(220,148,159)" stroke="rgb(220,148,159)" stroke-width="0.6" opacity="1" d="M 193.5 433 L 194 435 L 197.5 436 L 201.5 433 L 202 434.5 L 199.5 438 L 193 434.5 L 193.5 433 Z " /></svg>