<svg width="627" height="627" preserveAspectRatio="xMidYMid meet" viewBox="0 0 512 512" version="1.1" xmlns="http://www.w3.org/2000/svg" ><path fill="rgb(255,255,255)" stroke="rgb(255,255,255)" stroke-width="0.6" opacity="1" d="M 0 0 L 512 0 L 512 512 L 0 512 L 0 0 Z M 370 33 L 354 41 Q 342 51 340 71 L 339 72 L 329 72 L 320 77 L 306 56 Q 298 45 284 42 L 271 43 L 267 50 L 278 58 L 286 70 L 291 88 L 291 92 L 284 101 L 265 97 L 249 97 L 248 96 Q 232 93 227 102 L 227 113 L 233 125 Q 240 134 253 137 L 271 137 L 276 135 L 277 137 Q 276 147 279 154 L 279 171 L 274 183 L 259 196 L 250 197 L 230 197 L 203 191 Q 175 188 164 200 L 158 198 L 148 185 L 147 176 L 145 172 L 139 173 Q 131 178 130 189 L 128 190 L 122 197 Q 120 212 128 218 L 127 220 L 128 226 L 135 231 L 142 234 L 140 241 Q 138 261 143 275 L 143 290 L 130 309 Q 128 331 136 343 Q 138 355 133 362 L 133 371 L 138 377 L 138 381 L 120 386 L 110 392 Q 101 399 100 415 L 98 416 Q 86 424 89 448 L 102 457 L 136 466 L 164 468 L 169 470 L 196 470 L 212 475 L 240 476 L 241 477 L 281 477 L 282 476 L 310 475 L 315 473 L 327 473 L 386 462 L 404 455 L 409 450 Q 411 431 403 422 L 401 420 L 397 417 Q 394 405 387 398 L 373 386 L 355 381 L 342 380 L 338 376 L 338 366 L 332 351 Q 331 335 337 327 L 335 318 L 335 303 L 341 281 L 344 279 L 349 269 L 349 247 L 354 250 L 359 250 L 365 235 L 368 233 Q 374 227 377 217 L 378 202 L 386 197 Q 395 190 398 177 Q 400 159 392 152 L 391 120 Q 393 116 399 118 L 411 112 Q 420 105 423 92 L 423 77 L 419 72 Q 406 71 400 75 L 374 87 Q 367 88 366 83 L 367 57 L 377 42 L 377 36 L 370 33 Z " /><path fill="rgb(245,220,172)" stroke="rgb(245,220,172)" stroke-width="0.6" opacity="1" d="M 276.5 47 Q 288.8 46.7 294 53.5 Q 291.4 58.8 285 59 L 280.5 53 L 274 50 L 275.5 48 L 276.5 47 Z " /><path fill="rgb(245,220,172)" stroke="rgb(245,220,172)" stroke-width="0.6" opacity="1" d="M 353.5 51 L 362 54.5 L 361 63 L 348 62 L 353.5 51 Z " /><path fill="rgb(245,220,172)" stroke="rgb(245,220,172)" stroke-width="0.6" opacity="1" d="M 297.5 56 L 300 57.5 L 304 64.5 L 293.5 71 L 289 64.5 L 289 61.5 L 291.5 58 L 297.5 56 Z " /><path fill="rgb(245,220,172)" stroke="rgb(245,220,172)" stroke-width="0.6" opacity="1" d="M 304.5 68 L 309 70.5 L 313 80.5 L 311.5 82 L 303.5 83 L 297.5 87 Q 293.8 82.7 294 74.5 L 304.5 68 Z " /><path fill="rgb(245,220,172)" stroke="rgb(245,220,172)" stroke-width="0.6" opacity="1" d="M 284 172 L 286 173.5 L 299.5 189 Q 308.3 196.7 324.5 197 L 330 202.5 L 331 210.5 L 329 213.5 L 331 215.5 L 333 225.5 L 342 236.5 L 345 259.5 L 343 265 L 341 263.5 L 337.5 259 L 336 260.5 L 336 281.5 L 328.5 292 Q 323.5 293.4 326 286.5 Q 324.5 283.5 323 286.5 Q 320.6 295.1 313.5 299 Q 307.2 304.7 295.5 305 L 295 302.5 Q 298.9 294.7 297 282 L 294.5 281 L 293 282.5 L 292 293.5 L 287 306.5 L 286 321.5 L 287 331.5 L 286 341 L 281.5 339 L 278 350 L 280 351.5 L 281 358.5 L 280 361.5 L 285 375.5 L 285 382.5 Q 278.8 389.3 263.5 387 L 256 381.5 L 256 376.5 L 260 365.5 L 260 346.5 Q 253.1 342.4 256 328.5 L 257 326.5 L 254.5 326 L 253 324.5 Q 256.4 318.4 255 307.5 L 252.5 302 L 249 300.5 L 249 282.5 L 247.5 281 L 245 282.5 L 243 296.5 L 246 305.5 L 244.5 307 L 230.5 307 Q 211 305 198 296.5 L 203 284.5 L 203 272.5 Q 201 269 199 273.5 L 199 281.5 L 194 294.5 Q 187.6 306.1 177.5 314 L 165 324.5 L 161 336.5 L 161 345.5 L 164 357.5 L 168 364.5 L 168 371.5 Q 162.4 377.9 148.5 376 Q 141.9 375.1 139 370.5 Q 137.7 362.2 141 358.5 L 141 346.5 L 140 336.5 L 136 330.5 L 136 309.5 L 148 292.5 L 149 276.5 L 146 266.5 L 146 237.5 Q 151.7 215.2 167.5 203 L 179.5 197 L 207.5 197 L 232.5 203 L 256 203 L 257.5 207 L 269 198.5 L 267 195 L 276 189.5 L 283 177.5 L 284 172 Z " /><path fill="rgb(245,220,172)" stroke="rgb(245,220,172)" stroke-width="0.6" opacity="1" d="M 349.5 199 L 357.5 204 Q 359.5 199 361.5 202 Q 364.1 201.2 363 204.5 Q 361.3 208.8 353.5 207 L 349 203.5 L 349.5 199 Z " /><path fill="rgb(245,220,172)" stroke="rgb(245,220,172)" stroke-width="0.6" opacity="1" d="M 330.5 296 L 332 297.5 L 330 301.5 L 329 314.5 L 331 321.5 L 329 325.5 L 330 331.5 Q 324 336.5 326 349.5 L 333 372.5 Q 328.7 378.7 316.5 377 L 306.5 375 L 304 372.5 L 303 364.5 L 307 351.5 L 307 341.5 L 302 324.5 L 302 310.5 L 316.5 304 L 320.5 300 L 325.5 300 L 330.5 296 Z " /><path fill="rgb(245,220,172)" stroke="rgb(245,220,172)" stroke-width="0.6" opacity="1" d="M 293.5 311 L 296 311.5 L 297 322.5 Q 294 323.5 295 328.5 L 300 333.5 L 300 357.5 Q 295.8 361.3 297 370.5 L 299 375 Q 290.2 377 288 371.5 Q 284.6 362.9 286 349.5 L 292 335.5 L 292 312.5 L 293.5 311 Z " /><path fill="rgb(245,220,172)" stroke="rgb(245,220,172)" stroke-width="0.6" opacity="1" d="M 179.5 318 L 182 318.5 L 182 327.5 L 189 343.5 L 189 356.5 L 188 367.5 Q 194.5 369.4 193 378 L 178.5 379 Q 174.4 377 174 371.5 L 175 367.5 L 168 351.5 L 168 330.5 L 172 323 L 179.5 318 Z " /><path fill="rgb(245,220,172)" stroke="rgb(245,220,172)" stroke-width="0.6" opacity="1" d="M 330.5 380 L 337 382.5 L 338 392.5 Q 336.5 395.5 335 392.5 Q 333.9 385.1 329 381.5 L 330.5 380 Z " /><path fill="rgb(160,105,60)" stroke="rgb(160,105,60)" stroke-width="0.6" opacity="1" d="M 367.5 39 L 371 40.5 L 364.5 51 L 355 49 L 356.5 47 L 359.5 43 L 367.5 39 Z " /><path fill="rgb(160,105,60)" stroke="rgb(160,105,60)" stroke-width="0.6" opacity="1" d="M 348.5 65 L 357.5 66 L 361 69.5 L 361 79.5 L 359.5 81 L 354.5 78 Q 347 80 345 76.5 L 344 72.5 L 348.5 65 Z " /><path fill="rgb(160,105,60)" stroke="rgb(160,105,60)" stroke-width="0.6" opacity="1" d="M 410.5 77 Q 416.5 75.5 418 78.5 L 419 86.5 Q 416.2 101.2 406.5 109 L 396.5 113 L 389.5 113 L 387 107.5 L 400 98.5 L 411 85.5 L 408.5 85 L 389.5 102 L 383 103 Q 381.8 96.1 376 92.5 L 410.5 77 Z " /><path fill="rgb(160,105,60)" stroke="rgb(160,105,60)" stroke-width="0.6" opacity="1" d="M 373.5 128 L 379 129.5 L 382 134.5 L 383 142.5 L 382 148 Q 378.5 149.1 380 141.5 L 376.5 135 L 369 134 L 373.5 128 Z " /><path fill="rgb(160,105,60)" stroke="rgb(160,105,60)" stroke-width="0.6" opacity="1" d="M 230.5 312 L 247.5 312 L 249 313.5 L 248 332.5 L 251 335.5 Q 250.1 344.4 255 347.5 L 255 363.5 L 253 371.5 L 250.5 374 L 232.5 374 L 229 370.5 L 227 367.5 Q 228 358.5 225 353.5 L 219 342.5 L 218 330.5 L 220 324.5 L 230.5 312 Z " /><path fill="rgb(160,105,60)" stroke="rgb(160,105,60)" stroke-width="0.6" opacity="1" d="M 234 378 L 249.5 378 L 251 379.5 Q 250 386.5 255 387.5 L 255 401.5 L 263.5 410 Q 269.7 413.8 280.5 413 Q 283.1 409.1 290.5 410 L 295 405.5 L 296 398.5 L 290 383.5 L 292.5 380 Q 300.8 377.8 303 381.5 L 304 392.5 L 308.5 397 Q 315.2 402.8 327.5 403 L 336.5 399 L 340.5 399 L 343 396.5 L 344 387.5 L 345.5 386 L 369.5 390 L 375 393.5 Q 373.8 397.3 377.5 396 L 383 400.5 Q 390.7 407.8 393 420.5 L 402 429.5 L 405 447.5 L 398.5 452 L 380.5 458 L 320.5 469 L 287.5 472 L 233.5 472 Q 224.5 469 211.5 470 L 200 467 Q 201.8 449.1 213 439.5 L 211.5 439 L 203 447.5 Q 197.9 453.4 197 463.5 L 194.5 466 L 149.5 463 L 126.5 459 L 103.5 452 L 94 444.5 L 93 439.5 L 95 433.5 L 94 431.5 Q 96.5 422.5 104 418.5 L 108 402.5 L 118.5 392 L 137.5 386 L 140 392.5 L 144.5 397 Q 149 402 158 401 L 158.5 403 L 165 403 L 166.5 401 L 178 396.5 L 179 385.5 L 179.5 383 L 190 382 Q 189 385 192 384 L 193.5 382 L 197.5 388 L 209.5 393 L 222.5 393 L 233 387.5 L 234 378 Z M 126 402 L 124 404 Q 129 409 140 409 L 154 417 Q 157 416 155 420 L 149 423 L 137 440 L 140 440 L 146 430 L 158 421 L 168 422 L 198 422 L 199 421 L 216 421 L 233 431 L 252 434 L 272 434 L 273 433 L 274 431 L 254 431 L 237 429 L 216 418 L 197 418 L 196 419 L 170 419 L 167 417 L 164 418 L 143 407 L 126 402 Z M 369 405 Q 362 413 351 417 L 325 423 L 314 423 L 313 425 L 330 425 L 339 430 Q 346 436 349 448 Q 351 451 352 448 L 347 436 L 339 428 Q 334 426 339 423 L 343 424 L 345 421 L 346 423 L 346 421 Q 362 417 370 407 L 369 405 Z " /><path fill="rgb(160,105,60)" stroke="rgb(160,105,60)" stroke-width="0.6" opacity="1" d="M 327.5 380 L 329 380.5 L 327 384.5 Q 330.8 387.7 330 395.5 L 328.5 397 L 317.5 397 L 309 391.5 L 308 382.5 L 309.5 381 L 326.5 381 L 327.5 380 Z " /><path fill="rgb(160,105,60)" stroke="rgb(160,105,60)" stroke-width="0.6" opacity="1" d="M 283.5 388 L 288 389.5 L 291 398.5 L 291 404.5 L 287.5 406 L 280.5 392 Q 277.1 391.1 279 396.5 L 282 406.5 L 276.5 408 L 268.5 407 L 261 402.5 L 259 392.5 L 260.5 391 L 279.5 390 L 281 390.5 L 282.5 389 L 283.5 388 Z " /><path fill="rgb(0,0,0)" stroke="rgb(0,0,0)" stroke-width="0.6" opacity="1" d="M 368.5 34 Q 375.8 32.8 377 37.5 L 377 40.5 Q 368.7 46.2 366 57.5 L 366 83.5 Q 366.8 88.8 373.5 88 L 401.5 75 L 416.5 72 L 423 77.5 Q 423.2 102.2 408.5 112 L 398.5 117 Q 391.8 115.2 390 118.5 Q 394.1 132.9 392 153.5 L 396 160.5 L 398 174.5 L 393 187.5 L 383.5 197 L 377 201.5 L 376 217.5 L 374 222.5 L 364 234.5 L 357.5 250 Q 351.5 249.4 349.5 245 L 348 248.5 L 349 249.5 L 349 266.5 L 342.5 278 L 340 279.5 L 340 284.5 L 335 299.5 L 335 320.5 L 336 326.5 L 333 331.5 L 331 350.5 L 337 365.5 L 338 377.5 L 341.5 381 L 355.5 382 L 370.5 386 L 385 396.5 Q 392.6 404.4 396 416.5 Q 403.7 421.8 407 431.5 L 409 447.5 L 403.5 454 L 386.5 461 L 321.5 473 L 310.5 473 L 305.5 475 L 278.5 477 L 242.5 477 L 241.5 476 L 227.5 476 L 224.5 474 L 209.5 474 L 193.5 469 L 166.5 469 L 156.5 468 L 153.5 466 L 134.5 465 L 106.5 458 L 91 448.5 Q 86.6 444.4 89 433.5 Q 91.1 423.1 97.5 417 L 101 414.5 Q 102.4 397.4 113.5 390 L 126.5 384 L 137.5 383 L 139 381.5 L 139 376.5 Q 133.2 373.3 133 364.5 Q 138.5 356.5 136 340.5 L 133 335.5 L 130 323.5 L 130 310.5 L 144 289.5 L 144 275.5 L 140 258.5 L 140 243.5 L 143 233.5 L 134.5 230 L 129 224.5 L 128 219.5 L 129 217.5 Q 120.6 212.4 123 196.5 L 127.5 191 L 131 188.5 Q 132 177 140.5 173 Q 145.3 172.3 146 175.5 L 147 184.5 L 154.5 197 L 163.5 201 L 177.5 193 Q 185.9 189.9 198.5 191 L 231.5 198 L 250.5 198 L 258.5 197 L 275 182.5 L 280 169.5 L 280 153.5 Q 276.1 146.9 277 135.5 L 275.5 134 Q 269 138.5 256.5 137 Q 242.6 134.4 235 125.5 L 227 110.5 L 227 103.5 L 231.5 98 L 248.5 97 L 249.5 98 L 265.5 98 L 284.5 102 L 292 91.5 L 292 87.5 L 287 69.5 L 276.5 56 L 268 49.5 L 270.5 44 L 280.5 42 Q 298.9 46.1 308 59.5 L 318.5 78 L 330.5 72 L 341 72 Q 341.9 49.7 356.5 40 L 368.5 34 Z M 366 39 L 358 44 L 355 49 L 365 52 L 373 41 Q 372 37 366 39 Z M 277 46 L 272 49 L 279 53 Q 288 59 291 71 L 295 72 L 293 75 L 295 86 L 298 89 L 304 84 L 313 83 L 314 82 L 310 71 L 305 66 L 306 65 L 300 56 Q 294 58 295 54 Q 289 46 277 46 Z M 353 50 L 346 63 L 349 63 Q 357 62 361 65 Q 364 62 363 55 Q 360 50 353 50 Z M 348 65 Q 343 68 344 77 L 360 81 L 361 80 L 361 69 Q 358 63 348 65 Z M 335 75 L 323 80 L 319 84 L 318 89 L 315 85 L 310 85 L 301 89 L 290 101 L 288 106 L 288 108 L 271 103 L 253 102 L 250 100 Q 236 98 231 105 Q 230 118 237 123 Q 244 131 258 133 L 273 132 L 278 129 Q 280 130 279 126 L 264 123 L 246 113 L 244 110 L 248 110 L 266 120 L 276 122 L 286 121 L 281 133 L 282 152 L 284 161 L 292 177 L 302 185 L 312 190 Q 323 190 329 195 L 335 205 Q 333 219 340 226 L 342 225 Q 340 219 344 220 L 344 231 L 348 240 L 356 245 L 358 243 L 366 222 L 369 224 L 372 218 Q 370 207 374 202 L 371 200 L 369 205 L 363 210 Q 356 212 357 208 L 364 206 L 363 201 L 358 203 L 351 198 L 348 200 Q 347 206 351 207 L 350 207 L 344 202 L 342 193 L 337 188 Q 332 186 337 183 Q 341 182 339 187 Q 345 194 355 197 L 368 196 Q 372 195 370 188 L 358 180 Q 352 178 356 175 L 361 176 L 370 183 L 373 183 L 379 176 L 380 169 L 372 164 Q 363 166 364 162 Q 373 161 378 164 Q 384 166 382 178 L 379 180 L 372 188 Q 371 195 375 196 Q 383 196 387 191 L 393 181 Q 395 163 388 155 L 387 123 L 384 112 L 375 97 Q 369 86 357 84 L 360 94 L 355 97 L 356 99 Q 357 104 354 105 L 350 105 L 343 101 L 341 98 L 349 102 L 353 101 L 353 98 L 347 90 L 353 92 L 357 91 L 356 89 L 349 82 L 335 82 L 337 80 L 338 78 L 335 75 Z M 410 77 L 378 90 L 375 93 L 385 104 L 391 102 L 406 87 L 408 87 L 402 96 L 387 108 L 389 113 Q 400 114 406 110 Q 417 102 420 86 Q 421 80 418 79 Q 416 75 410 77 Z M 284 169 Q 283 179 277 187 L 265 197 L 266 200 L 259 204 L 259 203 L 257 202 L 234 202 L 208 196 L 181 196 L 169 201 Q 151 214 145 238 L 145 266 L 148 276 L 147 293 L 135 310 L 135 331 L 139 336 L 140 347 Q 142 357 138 363 L 139 373 L 150 377 Q 163 379 169 373 L 169 365 L 165 358 L 162 345 L 162 336 L 166 325 L 177 316 Q 194 304 200 281 Q 198 272 202 273 L 202 285 L 197 297 L 204 301 L 219 306 L 238 308 Q 245 310 247 307 L 244 297 Q 243 289 246 286 Q 245 282 248 283 L 248 301 L 249 302 Q 248 306 253 304 L 254 308 L 254 318 L 252 328 L 255 328 L 255 341 L 259 347 L 259 366 L 255 377 L 255 383 L 265 388 Q 279 390 286 384 L 286 376 L 281 362 L 280 350 L 281 345 Q 280 340 283 341 L 285 344 Q 288 342 286 335 L 288 332 L 287 321 L 288 307 L 294 290 Q 292 282 296 283 Q 298 296 293 304 L 295 306 Q 309 305 317 298 L 323 290 L 325 288 L 327 294 L 329 293 Q 335 289 337 281 L 337 262 L 339 261 L 343 271 L 345 263 L 343 237 L 333 224 Q 330 215 331 203 L 325 196 Q 308 195 299 187 Q 290 181 286 171 L 284 169 Z M 141 177 L 135 185 L 135 200 L 129 195 L 126 201 L 128 212 L 137 218 L 138 221 L 132 224 Q 135 228 144 228 L 146 226 L 149 217 L 159 205 L 156 202 Q 144 195 143 179 L 141 177 Z M 332 294 L 329 297 L 321 299 L 315 304 L 301 310 L 301 324 L 306 341 L 306 352 L 302 365 L 303 374 L 310 377 L 317 378 Q 329 379 334 374 L 334 370 L 327 350 L 327 338 L 330 334 Q 328 325 332 322 L 330 315 Q 329 303 333 298 Q 334 293 332 294 Z M 196 301 L 194 302 L 186 313 L 186 326 L 194 346 L 192 366 L 198 370 Q 215 373 223 366 L 223 361 Q 217 351 214 339 L 215 326 L 224 314 L 224 311 L 204 305 L 196 301 Z M 293 311 L 291 313 L 291 334 L 292 335 L 286 347 Q 284 363 288 374 L 290 375 L 298 376 L 301 375 L 298 371 Q 297 361 301 357 L 301 333 L 296 329 L 297 313 L 293 311 Z M 230 312 L 218 329 L 218 341 L 227 361 Q 225 369 229 372 L 232 374 L 252 374 L 255 366 L 255 347 Q 250 343 251 335 L 248 332 L 249 314 L 248 312 L 230 312 Z M 181 316 L 175 320 L 167 331 L 167 351 L 174 368 L 173 372 L 173 375 L 178 380 L 184 380 L 186 378 Q 192 380 194 377 L 194 373 L 188 366 L 190 356 L 190 345 L 182 325 Q 184 318 181 316 Z M 223 369 L 218 372 L 200 373 L 198 375 L 199 384 L 204 387 L 214 390 Q 219 391 221 389 Q 222 382 219 379 Q 218 374 221 375 L 226 387 L 230 386 Q 231 376 227 372 L 223 369 Z M 168 376 Q 160 381 145 379 Q 141 381 143 390 Q 148 396 159 398 Q 164 399 166 397 L 164 388 L 165 383 Q 169 385 168 393 L 172 395 L 175 394 Q 176 384 172 379 L 168 376 Z M 334 377 L 325 381 L 312 381 L 311 380 L 308 382 L 309 393 L 320 398 Q 328 400 330 397 Q 332 388 328 386 L 330 383 L 336 396 L 339 395 Q 340 384 336 379 L 334 377 Z M 235 378 Q 231 380 233 387 L 222 393 L 212 393 L 199 388 L 196 384 L 195 382 L 180 382 L 178 384 L 178 396 L 176 398 Q 168 397 167 401 Q 151 403 144 396 L 139 386 Q 125 386 118 392 L 108 402 L 104 413 L 104 418 L 95 428 L 93 446 L 105 453 L 124 459 L 155 464 L 196 466 Q 200 452 207 443 L 209 444 Q 201 452 199 467 L 216 471 L 232 471 L 233 472 L 289 472 L 303 470 L 317 470 L 380 459 L 403 451 L 405 449 L 403 431 L 393 420 Q 390 405 381 398 L 369 389 L 345 385 Q 341 387 343 396 L 340 399 Q 332 398 331 402 Q 318 403 311 398 L 304 392 L 304 382 L 303 380 L 293 379 L 290 383 L 290 387 L 295 399 L 295 406 L 290 410 Q 282 409 280 413 Q 268 413 262 408 L 255 401 L 255 388 L 251 383 L 251 380 L 250 378 L 235 378 Z M 286 387 L 277 391 L 264 390 L 259 392 L 260 403 L 271 408 L 281 408 L 282 407 L 279 395 L 281 393 L 288 407 L 291 405 Q 292 394 288 389 L 286 387 Z " /><path fill="rgb(0,0,0)" stroke="rgb(0,0,0)" stroke-width="0.6" opacity="1" d="M 371.5 108 Q 380.1 106.9 382 112.5 L 380.5 114 L 370 109.5 L 371.5 108 Z " /><path fill="rgb(0,0,0)" stroke="rgb(0,0,0)" stroke-width="0.6" opacity="1" d="M 314.5 110 Q 320 109 321 112.5 L 319.5 115 L 313.5 115 L 306 120 L 309.5 113 L 314.5 110 Z " /><path fill="rgb(0,0,0)" stroke="rgb(0,0,0)" stroke-width="0.6" opacity="1" d="M 371.5 125 L 377.5 125 L 383 130.5 Q 386.4 135.6 385 145.5 L 379.5 154 L 371.5 155 L 368 152.5 L 364 142.5 L 364 136.5 Q 365.4 128.4 371.5 125 Z M 375 127 L 373 128 L 368 134 Q 370 137 376 135 L 380 143 L 378 151 L 380 151 L 383 147 Q 385 135 380 131 L 375 127 Z " /><path fill="rgb(0,0,0)" stroke="rgb(0,0,0)" stroke-width="0.6" opacity="1" d="M 315.5 129 L 322.5 129 L 331 136.5 L 332 142 Q 329 143.3 330 139.5 L 324.5 132 L 320.5 131 Q 314.2 131.7 312 136.5 Q 307.8 140.4 310 150 Q 314 151.4 312 144.5 Q 315 139.5 322.5 139 Q 328.5 142.5 328 152.5 L 326 156.5 L 327 159.5 Q 324.8 163.3 316.5 161 L 308 153.5 L 306 143.5 Q 308 133.5 315.5 129 Z " /><path fill="rgb(0,0,0)" stroke="rgb(0,0,0)" stroke-width="0.6" opacity="1" d="M 331 144 Q 334.8 142.9 333 151.5 L 332 155 L 330 153.5 L 331 144 Z " /><path fill="rgb(0,0,0)" stroke="rgb(0,0,0)" stroke-width="0.6" opacity="1" d="M 129 404 L 140.5 407 L 160.5 418 L 197.5 419 L 198.5 418 L 214.5 418 L 238.5 430 L 271 432 L 270.5 434 L 253.5 434 L 241.5 433 L 231.5 430 L 216.5 421 L 196.5 421 L 195.5 422 L 169.5 422 L 156.5 421 L 145 429.5 L 141.5 435 L 142 433.5 L 150.5 422 L 156 420 Q 157.5 416.2 154.5 417 Q 144.2 408.5 129 406 L 129 404 Z " /><path fill="rgb(0,0,0)" stroke="rgb(0,0,0)" stroke-width="0.6" opacity="1" d="M 360.5 412 L 362 412.5 L 353.5 417 L 354.5 415 L 360.5 412 Z " /><path fill="rgb(0,0,0)" stroke="rgb(0,0,0)" stroke-width="0.6" opacity="1" d="M 343.5 419 L 345 421 L 335 424.5 L 337.5 428 Q 330.8 423 318 425 L 318.5 423 L 330.5 423 L 343.5 419 Z " /><path fill="rgb(0,0,0)" stroke="rgb(0,0,0)" stroke-width="0.6" opacity="1" d="M 341.5 431 Q 348.3 435.3 350 444.5 L 348 443.5 L 341.5 431 Z " /><path fill="rgb(238,164,174)" stroke="rgb(238,164,174)" stroke-width="0.6" opacity="1" d="M 334.5 76 L 337 77.5 L 332 81.5 Q 330.9 84.8 333.5 84 Q 335.8 79.8 344.5 82 Q 351.9 83.1 355 88.5 Q 356.3 92.3 352.5 91 L 346.5 89 L 345 90.5 L 352 97.5 L 350.5 102 L 338 96 L 342.5 102 Q 345.7 106.3 354.5 105 L 357 99.5 L 356 97.5 L 361 93.5 L 359 86 Q 367.8 88.4 373 95.5 L 380 108 L 371.5 107 L 369 110.5 L 384 115 L 387 126.5 L 387 136 Q 383.7 137.3 385 132.5 L 380.5 126 Q 378.2 122.8 371.5 124 L 366 128.5 Q 362.4 133.9 364 144.5 L 369.5 155 L 377.5 156 L 384 150.5 L 385 145 L 387 145.5 L 387 153.5 L 393 167.5 L 393 177.5 Q 390.3 187.8 382.5 193 L 373 195 Q 370.8 184.5 377.5 182 L 383 177.5 Q 385.2 165.2 377.5 163 L 361.5 162 L 353 167.5 Q 352.2 170.1 355.5 169 Q 360.2 163.2 372.5 165 L 379 169.5 L 379 173.5 L 371.5 183 L 360.5 175 L 354.5 174 L 353 177.5 L 369 188.5 Q 370.3 194.8 366.5 196 Q 346.7 197.8 340 186.5 L 338.5 181 L 333 184.5 L 336.5 189 L 340 191.5 Q 343.7 194.3 343 201.5 L 350.5 209 L 362.5 211 L 370 204.5 Q 368.5 200.1 371.5 201 L 373 200.5 L 371 207.5 L 371 218.5 L 368.5 222 L 367 220.5 L 364 219 L 363 227.5 L 357 243 L 353.5 243 L 348 237.5 L 344 228.5 Q 346.3 220.3 342.5 218 L 341 224 L 338 222.5 Q 334.1 216.4 336 204.5 L 330.5 195 L 323.5 191 L 311.5 189 Q 300.9 185.1 294 177.5 Q 280.5 161.5 282 130.5 L 288 121.5 L 284.5 120 L 274.5 121 L 265.5 119 L 247.5 109 L 238.5 108 Q 235.5 109.5 238.5 111 L 241.5 111 L 263.5 124 L 277 127 L 275.5 130 Q 268.3 133.3 256.5 132 Q 241.9 129.1 235 118.5 Q 230.5 113.8 232 104 Q 237.8 99.5 250.5 101 L 259.5 102 L 262.5 104 L 271.5 104 L 282.5 108 L 288.5 108 L 289 105.5 L 294.5 97 L 297 95.5 L 300.5 90 L 314.5 85 L 317.5 89 L 320 87.5 Q 319 82 322.5 81 L 334.5 76 Z M 316 109 L 310 112 L 305 119 L 307 122 L 314 116 L 320 116 L 322 112 L 316 109 Z M 314 129 Q 307 133 306 142 L 307 154 L 317 162 L 328 161 L 334 152 L 332 137 L 325 129 L 314 129 Z " /><path fill="rgb(238,164,174)" stroke="rgb(238,164,174)" stroke-width="0.6" opacity="1" d="M 319.5 132 L 326 134.5 Q 331.5 138.5 330 149.5 L 328 148.5 Q 328.1 140.4 322.5 138 L 319.5 138 L 311 143 L 311 139.5 L 316.5 133 L 319.5 132 Z " /><path fill="rgb(238,164,174)" stroke="rgb(238,164,174)" stroke-width="0.6" opacity="1" d="M 140.5 179 Q 143.5 178.1 142 182.5 L 145 191.5 L 157 205.5 Q 147.6 213.6 143.5 227 L 134 225 L 135.5 222 L 140 220.5 L 138.5 218 L 130 212.5 Q 125.9 208 127 198.5 L 131 197 L 134.5 202 Q 137.1 202.8 136 199.5 L 135 187.5 L 140.5 179 Z " /><path fill="rgb(238,164,174)" stroke="rgb(238,164,174)" stroke-width="0.6" opacity="1" d="M 232.5 202 L 255.5 202 L 257 203.5 L 255.5 203 L 232.5 203 L 232.5 202 Z " /><path fill="rgb(238,164,174)" stroke="rgb(238,164,174)" stroke-width="0.6" opacity="1" d="M 195.5 302 L 203.5 306 L 223 311.5 L 214 325.5 L 213 337.5 Q 216 352.5 223 363.5 Q 216.8 371.3 201.5 370 L 193 365.5 L 195 346.5 L 187 326.5 L 187 312.5 L 195.5 302 Z " /><path fill="rgb(238,164,174)" stroke="rgb(238,164,174)" stroke-width="0.6" opacity="1" d="M 222.5 370 L 227 373.5 L 229 384.5 L 226.5 386 L 219 372.5 L 222.5 370 Z " /><path fill="rgb(238,164,174)" stroke="rgb(238,164,174)" stroke-width="0.6" opacity="1" d="M 210.5 373 L 218 373 L 218 378.5 L 221 387.5 Q 219.5 390.5 213.5 389 L 203.5 386 L 199 382.5 Q 197.2 375.8 200.5 374 L 210.5 373 Z " /><path fill="rgb(238,164,174)" stroke="rgb(238,164,174)" stroke-width="0.6" opacity="1" d="M 167.5 377 L 171 378.5 Q 174.8 383.2 174 392.5 L 171.5 394 L 169 391.5 L 169 387.5 L 164 378 L 167.5 377 Z " /><path fill="rgb(238,164,174)" stroke="rgb(238,164,174)" stroke-width="0.6" opacity="1" d="M 144 380 L 163 380.5 L 162 382.5 L 165 395.5 Q 163.8 398.3 158.5 397 Q 149 395.4 144 389.5 L 144 380 Z " /><path fill="rgb(29,29,29)" stroke="rgb(29,29,29)" stroke-width="0.6" opacity="1" d="M 329 155 L 332 155.5 L 326 160.5 L 329 155 Z " /><path fill="rgb(29,29,29)" stroke="rgb(29,29,29)" stroke-width="0.6" opacity="1" d="M 139.5 173 L 133.5 180 L 139.5 173 Z " /><path fill="rgb(29,29,29)" stroke="rgb(29,29,29)" stroke-width="0.6" opacity="1" d="M 392.5 188 L 385.5 196 L 392.5 188 Z " /><path fill="rgb(29,29,29)" stroke="rgb(29,29,29)" stroke-width="0.6" opacity="1" d="M 141.5 433 Q 145.2 435.2 140 437.5 L 138.5 439 L 142 434.5 L 141.5 433 Z " /><path fill="rgb(118,117,117)" stroke="rgb(118,117,117)" stroke-width="0.6" opacity="1" d="M 346.5 91 L 351.5 97 L 346.5 91 Z " /><path fill="rgb(118,117,117)" stroke="rgb(118,117,117)" stroke-width="0.6" opacity="1" d="M 344.5 202 L 349.5 208 L 344.5 202 Z " /><path fill="rgb(211,158,165)" stroke="rgb(211,158,165)" stroke-width="0.6" opacity="1" d="M 330.5 146 L 331 150.5 L 330 154 Q 326.3 155.3 328 149.5 L 330 149.5 L 330.5 146 Z " /><path fill="rgb(211,158,165)" stroke="rgb(211,158,165)" stroke-width="0.6" opacity="1" d="M 155.5 202 L 158 205.5 L 152 210.5 L 157 204.5 L 155.5 202 Z " /><path fill="rgb(123,102,59)" stroke="rgb(123,102,59)" stroke-width="0.6" opacity="1" d="M 404.5 87 L 391.5 101 L 404.5 87 Z " /><path fill="rgb(123,102,59)" stroke="rgb(123,102,59)" stroke-width="0.6" opacity="1" d="M 116.5 393 L 110.5 400 L 116.5 393 Z " /><path fill="rgb(123,102,59)" stroke="rgb(123,102,59)" stroke-width="0.6" opacity="1" d="M 103.5 418 L 97.5 425 L 103.5 418 Z " /><path fill="rgb(206,200,178)" stroke="rgb(206,200,178)" stroke-width="0.6" opacity="1" d="M 281.5 339 L 285 341.5 Q 283 338.3 281 341.5 L 280.5 344 L 280 340.5 L 281.5 339 Z " /><path fill="rgb(227,227,227)" stroke="rgb(227,227,227)" stroke-width="0.6" opacity="1" d="M 138.5 173 L 133.5 179 L 138.5 173 Z " /><path fill="rgb(227,227,227)" stroke="rgb(227,227,227)" stroke-width="0.6" opacity="1" d="M 392.5 189 L 385.5 197 L 392.5 189 Z " /><path fill="rgb(203,142,77)" stroke="rgb(203,142,77)" stroke-width="0.6" opacity="1" d="M 183.5 196 L 204 196.5 L 183.5 197 L 183.5 196 Z " /><path fill="rgb(203,142,77)" stroke="rgb(203,142,77)" stroke-width="0.6" opacity="1" d="M 145.5 240 L 146 262.5 L 145 262.5 L 145.5 240 Z " /><path fill="rgb(203,142,77)" stroke="rgb(203,142,77)" stroke-width="0.6" opacity="1" d="M 336.5 263 L 337 278.5 L 336 278.5 L 336.5 263 Z " /><path fill="rgb(203,142,77)" stroke="rgb(203,142,77)" stroke-width="0.6" opacity="1" d="M 247.5 282 L 249 283.5 L 249 295.5 L 248 295.5 L 248 283.5 L 247.5 282 Z " /><path fill="rgb(203,142,77)" stroke="rgb(203,142,77)" stroke-width="0.6" opacity="1" d="M 135.5 310 L 136 326.5 L 135 326.5 L 135.5 310 Z " /><path fill="rgb(203,142,77)" stroke="rgb(203,142,77)" stroke-width="0.6" opacity="1" d="M 301.5 310 L 302 323.5 L 301 323.5 L 301.5 310 Z " /><path fill="rgb(203,142,77)" stroke="rgb(203,142,77)" stroke-width="0.6" opacity="1" d="M 300.5 338 L 301 354.5 L 300 354.5 L 300.5 338 Z " /><path fill="rgb(203,142,77)" stroke="rgb(203,142,77)" stroke-width="0.6" opacity="1" d="M 326.5 338 L 327 349.5 L 326 349.5 L 326.5 338 Z " /><path fill="rgb(203,142,77)" stroke="rgb(203,142,77)" stroke-width="0.6" opacity="1" d="M 306.5 341 L 307 351.5 L 306 351.5 L 306.5 341 Z " /></svg>