<svg width="627" height="627" preserveAspectRatio="xMidYMid meet" viewBox="0 0 512 512" version="1.1" xmlns="http://www.w3.org/2000/svg" ><path fill="rgb(255,255,255)" stroke="rgb(255,255,255)" stroke-width="0.6" opacity="1" d="M 0 0 L 512 0 L 512 512 L 0 512 L 0 0 Z M 252 85 L 249 88 L 251 96 L 248 95 Q 235 93 230 99 L 230 102 L 234 108 Q 217 111 206 122 Q 193 132 186 149 L 181 170 L 181 188 Q 174 191 173 201 L 165 206 L 159 215 L 161 223 Q 166 231 181 228 Q 185 238 195 245 L 192 251 Q 191 259 195 263 Q 201 270 213 270 L 211 276 Q 197 287 188 303 Q 181 314 179 330 Q 178 341 180 347 L 120 353 L 101 357 L 74 368 L 64 380 Q 63 387 67 391 Q 76 400 90 405 L 130 416 L 178 423 L 214 426 L 234 426 L 235 427 L 303 427 L 367 422 L 412 413 Q 428 409 441 400 L 448 390 Q 449 383 446 380 L 434 369 L 407 361 L 419 333 L 424 305 L 422 291 Q 420 285 413 286 Q 414 273 409 267 L 403 262 L 398 263 L 383 274 L 375 276 L 327 267 Q 303 266 287 273 L 284 272 L 285 266 L 289 262 Q 304 259 314 250 Q 341 229 345 185 Q 345 150 329 132 Q 313 110 280 105 L 275 97 Q 269 85 252 85 Z " /><path fill="rgb(244,207,62)" stroke="rgb(244,207,62)" stroke-width="0.6" opacity="1" d="M 259.5 93 Q 267.8 93.8 271 99.5 L 271 102.5 L 276.5 110 L 287.5 111 L 289.5 113 L 298.5 115 Q 313.8 121.8 324 133.5 Q 341.7 151.8 339 190.5 Q 334.5 226 312.5 244 L 304 248 L 302.5 251 L 286.5 257 L 281 262.5 Q 277.7 267.2 279 276.5 L 285.5 284 Q 289.9 285.5 289 282.5 L 288 280 L 286 279.5 L 297.5 275 L 299.5 275 L 308.5 273 L 318.5 274 L 323.5 273 L 330.5 274 L 332.5 273 L 342.5 276 L 345.5 275 L 351.5 278 L 376.5 282 L 385.5 279 L 396 271.5 L 397.5 270 L 402.5 268 L 407 274.5 L 407 296.5 L 406 299.5 Q 408 303 410 298.5 L 413.5 294 L 417 295 L 418 301.5 L 417 302.5 L 417 317.5 L 413 328.5 L 413 333.5 L 407 348.5 Q 398.7 365.7 384.5 377 L 366.5 387 L 352.5 390 L 346.5 393 L 333.5 395 L 331.5 394 Q 322.6 398.1 308.5 397 L 301.5 396 L 300.5 397 L 284.5 397 L 275.5 396 L 264.5 397 L 249.5 394 L 247.5 395 L 218.5 387 L 203 376.5 L 198.5 371 L 194 367.5 Q 184.3 355.2 184 333.5 Q 187.7 303.7 205.5 288 L 207 286.5 L 216.5 276 Q 219.1 276.8 218 273.5 L 220.5 270 L 224.5 269 L 226.5 269 Q 241.7 263.7 250 251.5 L 264.5 233 L 267 231.5 L 270 226.5 L 270 222.5 L 264.5 215 L 259.5 212 L 247.5 210 L 243 205.5 L 231.5 192 L 221 189.5 L 221 187.5 L 222 180.5 Q 221.4 169.6 214.5 165 Q 211.8 162.2 205.5 163 Q 198.3 164.8 195 170.5 L 191 179.5 L 190 188.5 L 194.5 200 L 200 202.5 L 192.5 205 L 185.5 202 L 183.5 203 L 178 200.5 L 183.5 192 L 186 190.5 Q 184 176.5 188 168.5 L 187 164.5 Q 191.3 140.8 206.5 128 L 210 127 L 211.5 124 Q 214.8 125.1 214 122.5 L 234.5 113 L 236.5 114 Q 241.1 110.9 249 112 Q 250.7 107.9 246.5 109 L 240 106 L 239 101.5 Q 240.3 98.8 245.5 100 L 260.5 107 L 261 104.5 L 258 94.5 L 259.5 93 Z M 208 140 L 204 142 L 199 149 L 200 151 L 209 146 L 216 147 L 217 145 Q 215 139 208 140 Z M 278 144 L 274 146 L 272 149 L 274 150 L 285 151 L 288 153 L 293 158 L 294 157 L 293 152 L 284 144 L 278 144 Z M 271 168 L 267 170 L 257 181 L 254 190 L 257 202 L 264 211 L 276 208 L 287 209 L 285 207 L 292 192 L 292 185 L 290 183 Q 291 176 288 174 L 279 168 L 271 168 Z M 374 295 L 358 301 L 349 301 L 336 297 L 318 297 L 317 298 L 315 300 L 333 301 L 339 304 L 350 306 L 360 305 L 362 306 L 377 300 L 380 305 Q 380 313 375 318 Q 370 324 361 327 Q 357 326 358 329 Q 371 330 377 322 L 381 324 L 381 329 L 379 333 L 377 334 L 373 340 Q 365 347 352 350 Q 348 349 349 352 Q 359 354 365 350 L 367 351 L 366 355 L 353 365 L 333 371 L 323 370 L 320 371 L 303 369 L 293 365 L 281 356 L 280 354 L 272 341 Q 270 317 281 308 Q 285 306 282 304 L 279 306 Q 268 313 266 329 L 267 343 L 276 359 Q 290 374 318 377 Q 346 378 362 366 L 372 356 Q 375 353 374 346 Q 384 338 388 325 L 383 316 L 386 306 L 384 299 Q 382 293 374 295 Z " /><path fill="rgb(244,207,62)" stroke="rgb(244,207,62)" stroke-width="0.6" opacity="1" d="M 275.5 172 Q 281.9 172.7 284 177.5 L 285 184 L 287 184.5 L 287 191 Q 283.7 192.3 285 187.5 L 283.5 182 Q 282 184.5 280.5 181 L 271.5 180 L 265 185.5 L 262 191.5 L 263 197.5 Q 261.5 200.5 260 197.5 L 261 189.5 L 260 185.5 L 266.5 175 L 275.5 172 Z " /><path fill="rgb(234,137,43)" stroke="rgb(234,137,43)" stroke-width="0.6" opacity="1" d="M 206.5 167 Q 213.8 167.3 216 172.5 L 217 174.5 L 215.5 177 L 209.5 174 L 202 178.5 Q 197.9 183 199 192.5 L 201 196.5 Q 199 200 197 195.5 Q 193 190.5 195 179.5 L 200.5 170 L 206.5 167 Z " /><path fill="rgb(234,137,43)" stroke="rgb(234,137,43)" stroke-width="0.6" opacity="1" d="M 168.5 351 L 179.5 351 L 182 353.5 Q 186.1 369.9 197.5 379 Q 211.3 392.2 233.5 397 L 269.5 402 L 314.5 402 L 345.5 398 L 369.5 391 Q 389.6 382.5 402 366.5 L 403.5 364 Q 429.7 366.3 443 381.5 L 444 389.5 L 439.5 396 L 430.5 402 L 408.5 410 L 368.5 418 L 309.5 423 L 227.5 423 L 166.5 418 L 119.5 410 L 89.5 401 L 70 388.5 Q 67.2 385.8 68 379.5 L 75.5 371 L 87.5 365 L 112.5 358 L 144.5 353 L 168.5 351 Z M 161 361 L 136 366 L 121 373 L 116 381 L 118 386 Q 127 394 142 397 L 166 401 Q 169 402 168 400 L 167 398 L 154 397 L 138 393 L 125 387 Q 119 386 120 379 Q 126 371 138 368 L 168 363 Q 169 359 161 361 Z M 404 376 L 402 378 L 405 379 L 408 385 L 407 388 L 402 393 L 380 402 L 339 409 Q 333 407 334 411 L 375 406 L 395 400 L 406 394 L 411 387 L 410 382 L 404 376 Z M 188 384 L 186 386 L 187 391 L 196 397 L 213 403 L 254 409 L 273 409 L 273 407 L 247 406 L 216 401 L 200 396 L 189 389 Q 191 383 188 384 Z M 204 409 L 204 411 L 229 416 L 247 416 L 247 414 Q 222 415 204 409 Z " /><path fill="rgb(11,11,12)" stroke="rgb(11,11,12)" stroke-width="0.6" opacity="1" d="M 251.5 86 Q 267 86 273 95.5 L 279.5 106 Q 311.9 110.6 328 131.5 Q 338 143 342 160.5 L 343 194.5 Q 339.8 211.8 333 225.5 Q 326 238 315.5 247 L 305.5 254 L 287.5 261 L 285 263.5 Q 281.8 267 283 274 L 305.5 269 L 322.5 268 L 341.5 270 Q 356.3 275.7 375.5 277 L 386.5 273 L 398.5 264 L 404.5 264 L 410 270.5 Q 413 276.5 412 286.5 L 413.5 288 L 416.5 287 L 420 289.5 L 422 293.5 L 422 312.5 Q 418.1 341.1 405 360.5 L 406 363 Q 401.3 362.3 400 366.5 L 389.5 378 Q 373.7 390.7 350.5 396 L 314.5 401 L 269.5 401 Q 242.4 399.1 220.5 392 Q 202.1 384.9 191 370.5 L 180.5 350 Q 174.7 351.7 176 348 L 181 346.5 L 180 330.5 Q 182.2 314.2 189 302.5 L 215 270.5 L 199.5 265 L 194 259.5 L 193 250.5 L 196 243.5 L 184 232.5 L 179.5 226 L 168.5 227 L 162 222.5 L 160 214.5 L 164.5 207 L 173 202.5 Q 174.6 192.1 182 187.5 Q 180.5 164 187 148.5 Q 193.3 132.8 205.5 123 Q 218 112.5 236 107.5 Q 231.6 105.5 231 99.5 Q 235.1 94.1 246.5 96 L 252.5 98 Q 255.8 96.3 252 94.5 L 250 87.5 L 251.5 86 Z M 256 89 L 254 91 L 259 104 L 243 98 L 235 101 L 236 104 L 242 108 L 243 110 Q 223 113 210 124 Q 196 135 189 152 L 185 171 L 185 190 L 181 192 L 176 203 L 178 204 Q 187 203 193 206 L 203 204 L 205 200 L 200 192 Q 199 184 202 181 L 210 175 Q 217 176 220 182 L 219 188 L 221 192 L 222 194 L 216 196 Q 208 204 197 209 L 187 206 Q 175 204 169 208 L 163 215 L 164 220 L 172 225 L 182 223 L 183 220 L 191 222 Q 202 231 219 235 Q 244 237 255 224 Q 258 223 257 226 L 251 230 L 241 243 Q 234 252 223 257 Q 219 258 220 255 Q 229 255 234 248 L 243 235 Q 238 238 229 237 L 226 239 L 224 237 L 211 236 L 206 233 L 196 251 L 197 259 Q 201 264 209 266 Q 230 268 239 258 L 255 239 L 264 231 L 266 228 L 265 220 L 261 216 Q 257 217 258 214 L 263 215 L 268 223 L 267 230 L 263 233 L 247 254 Q 239 266 221 268 L 212 281 L 194 301 Q 186 313 183 331 L 184 349 Q 188 362 196 372 Q 208 386 228 392 L 245 396 L 274 399 L 311 399 L 345 395 Q 371 390 389 375 Q 416 351 420 305 L 418 293 L 414 291 L 410 296 L 408 297 L 410 286 Q 410 272 403 266 L 399 267 L 388 276 L 380 279 L 366 279 Q 349 273 329 271 L 304 272 L 287 277 L 284 281 L 280 276 Q 279 265 284 261 L 302 253 L 318 241 Q 338 221 341 183 Q 341 151 326 135 Q 310 113 278 108 L 272 100 Q 267 91 256 89 Z M 210 178 Q 206 179 207 185 L 211 187 L 214 186 L 215 181 Q 214 177 210 178 Z M 186 223 L 184 225 L 187 232 L 199 241 L 203 233 L 186 223 Z " /><path fill="rgb(11,11,12)" stroke="rgb(11,11,12)" stroke-width="0.6" opacity="1" d="M 205.5 142 Q 213 140 215 143.5 Q 213.3 146.8 206.5 145 L 201 148 L 205.5 142 Z " /><path fill="rgb(11,11,12)" stroke="rgb(11,11,12)" stroke-width="0.6" opacity="1" d="M 278.5 145 Q 286.8 144.8 290 149.5 L 292 155.5 L 286.5 151 L 274 147.5 L 278.5 145 Z " /><path fill="rgb(11,11,12)" stroke="rgb(11,11,12)" stroke-width="0.6" opacity="1" d="M 206.5 164 Q 215.5 164 218 170.5 L 219 174 L 217 172.5 L 213.5 168 L 205.5 166 L 198 171.5 L 195.5 175 L 195 172.5 L 199.5 167 L 206.5 164 Z " /><path fill="rgb(11,11,12)" stroke="rgb(11,11,12)" stroke-width="0.6" opacity="1" d="M 271.5 169 L 278.5 169 L 286 174.5 L 289 182 L 287 180.5 L 281.5 173 Q 278.5 170 271.5 171 L 262 178.5 L 260 184 L 258 182.5 L 265.5 172 L 271.5 169 Z " /><path fill="rgb(11,11,12)" stroke="rgb(11,11,12)" stroke-width="0.6" opacity="1" d="M 272.5 181 Q 280.1 179.9 282 184.5 Q 285.7 188.8 284 198.5 L 281 204 L 285.5 201 L 285 202.5 L 283 207 Q 271.5 206 264 209 L 264 207 Q 268.8 208.9 268 205.5 Q 262.7 201.8 264 191.5 L 270.5 182 L 272.5 181 Z M 276 183 L 274 184 Q 270 185 271 190 Q 272 194 278 193 Q 281 192 280 187 L 276 183 Z " /><path fill="rgb(11,11,12)" stroke="rgb(11,11,12)" stroke-width="0.6" opacity="1" d="M 225 192 Q 233.4 192.4 237 198.5 L 245.5 210 L 253 213 L 251.5 215 L 240 206.5 L 231.5 196 L 225 194 L 225 192 Z " /><path fill="rgb(11,11,12)" stroke="rgb(11,11,12)" stroke-width="0.6" opacity="1" d="M 205.5 252 L 211 255 L 211.5 252 L 217 256.5 Q 217.8 259.1 214.5 258 Q 207.9 257.6 205 253.5 L 205.5 252 Z " /><path fill="rgb(11,11,12)" stroke="rgb(11,11,12)" stroke-width="0.6" opacity="1" d="M 374.5 296 Q 381 295 383 298.5 L 384 309.5 L 382 316.5 Q 386 318.5 386 324.5 L 382 335.5 L 372 346.5 L 373 350.5 L 364.5 362 Q 354.4 370.4 339.5 374 L 310.5 375 Q 287.8 371.2 276 356.5 L 268 339.5 L 268 324.5 Q 270.3 314.8 276.5 309 L 277 310.5 Q 268.5 319 270 337.5 Q 273.9 353.6 285.5 362 Q 300.4 373.6 327.5 373 Q 353.6 370.6 367 355.5 L 370 349.5 L 366.5 348 L 360 350 L 361.5 348 Q 371.8 343.8 378 335.5 Q 383.2 331.2 383 321.5 L 379.5 319 L 369.5 325 L 378 315.5 L 382 304.5 L 377.5 298 L 361.5 304 L 346.5 304 L 335 301 Q 333.7 297.7 338.5 299 Q 346 303.5 359.5 302 L 374.5 296 Z " /><path fill="rgb(11,11,12)" stroke="rgb(11,11,12)" stroke-width="0.6" opacity="1" d="M 94.5 360 L 96 362 L 87.5 364 L 88.5 362 L 94.5 360 Z " /><path fill="rgb(11,11,12)" stroke="rgb(11,11,12)" stroke-width="0.6" opacity="1" d="M 80.5 366 L 78.5 369 L 69 375.5 L 67 384 Q 63.7 385.3 65 380.5 Q 66.8 373.3 72.5 370 L 80.5 366 Z " /><path fill="rgb(11,11,12)" stroke="rgb(11,11,12)" stroke-width="0.6" opacity="1" d="M 433.5 371 L 445 379.5 Q 448 382.8 447 389 Q 443.5 390.1 445 382.5 L 439.5 376 L 433.5 371 Z " /><path fill="rgb(11,11,12)" stroke="rgb(11,11,12)" stroke-width="0.6" opacity="1" d="M 67.5 387 Q 75.3 396.8 88 401.5 L 85.5 402 Q 74.5 398 68 389.5 L 67.5 387 Z " /><path fill="rgb(11,11,12)" stroke="rgb(11,11,12)" stroke-width="0.6" opacity="1" d="M 444.5 391 L 445 393.5 Q 441.1 400.6 432.5 403 L 434.5 400 L 443 393.5 L 444.5 391 Z " /><path fill="rgb(11,11,12)" stroke="rgb(11,11,12)" stroke-width="0.6" opacity="1" d="M 419.5 407 L 422 407.5 L 413 411 Q 411.8 408 415.5 409 L 419.5 407 Z " /><path fill="rgb(11,11,12)" stroke="rgb(11,11,12)" stroke-width="0.6" opacity="1" d="M 239 424 L 252 424.5 L 250.5 426 L 239 426 L 239 424 Z " /><path fill="rgb(11,11,12)" stroke="rgb(11,11,12)" stroke-width="0.6" opacity="1" d="M 287 424 L 297.5 424 L 298 426 L 287.5 426 L 287 424 Z " /><path fill="rgb(78,147,76)" stroke="rgb(78,147,76)" stroke-width="0.6" opacity="1" d="M 222.5 194 Q 233.2 194.8 237 202.5 L 245.5 213 Q 251.2 216.8 260.5 217 L 264 219.5 L 265 227.5 L 236.5 259 Q 228.5 266.5 212.5 266 Q 201.5 265 197 257.5 L 196 252.5 L 203 240.5 L 204 235 L 206.5 234 L 210 236.5 L 203 251.5 L 207.5 257 L 221.5 258 Q 234.4 252.9 242 242.5 L 251.5 230 L 259 226.5 L 258 224 L 252 223 L 251 225.5 L 251.5 227 Q 241.8 234.8 224.5 235 L 210.5 232 L 185.5 219 L 175.5 218 L 172 220.5 L 179 221.5 L 178 224 Q 169.8 225.4 166 221.5 Q 163 219.5 164 213.5 L 167.5 209 Q 174.7 205.3 187.5 207 L 203.5 213 L 202.5 211 L 199 210 L 200.5 208 L 216.5 196 L 222.5 194 Z M 227 207 L 224 211 L 225 213 L 228 212 L 229 209 L 227 207 Z " /><path fill="rgb(78,147,76)" stroke="rgb(78,147,76)" stroke-width="0.6" opacity="1" d="M 186.5 224 L 202 232.5 L 198.5 240 L 196.5 240 L 188 231.5 L 185 226.5 L 187 225.5 L 186.5 224 Z " /><path fill="rgb(39,41,44)" stroke="rgb(39,41,44)" stroke-width="0.6" opacity="1" d="M 343.5 172 L 344 186.5 L 343 186.5 L 343.5 172 Z " /><path fill="rgb(39,41,44)" stroke="rgb(39,41,44)" stroke-width="0.6" opacity="1" d="M 192.5 190 L 195 191.5 L 194 193.5 L 196 194.5 L 195.5 197 L 192.5 190 Z " /><path fill="rgb(39,41,44)" stroke="rgb(39,41,44)" stroke-width="0.6" opacity="1" d="M 200.5 199 L 203.5 200 L 205 199.5 L 202.5 204 L 200.5 201 L 199 200.5 L 200.5 199 Z " /><path fill="rgb(39,41,44)" stroke="rgb(39,41,44)" stroke-width="0.6" opacity="1" d="M 260.5 202 L 265 206.5 L 264 207.5 L 263.5 209 L 260 204.5 L 260.5 202 Z " /><path fill="rgb(39,41,44)" stroke="rgb(39,41,44)" stroke-width="0.6" opacity="1" d="M 227.5 208 L 229 209.5 L 225.5 212 Q 222.5 210.5 225.5 209 L 225.5 211 L 228 209.5 L 227.5 208 Z " /><path fill="rgb(39,41,44)" stroke="rgb(39,41,44)" stroke-width="0.6" opacity="1" d="M 213.5 236 L 217 237.5 L 215 238 L 212 245 L 210 243.5 L 214 237.5 L 213.5 236 Z " /><path fill="rgb(39,41,44)" stroke="rgb(39,41,44)" stroke-width="0.6" opacity="1" d="M 183.5 330 L 184 342.5 L 183 342.5 L 183.5 330 Z " /><path fill="rgb(39,41,44)" stroke="rgb(39,41,44)" stroke-width="0.6" opacity="1" d="M 414.5 364 L 424 366 L 425 368.5 L 423.5 368 L 415.5 366 L 414.5 364 Z " /><path fill="rgb(39,41,44)" stroke="rgb(39,41,44)" stroke-width="0.6" opacity="1" d="M 394.5 368 L 388.5 375 L 394.5 368 Z " /><path fill="rgb(39,41,44)" stroke="rgb(39,41,44)" stroke-width="0.6" opacity="1" d="M 124.5 372 L 119.5 378 L 119 375.5 L 124.5 372 Z " /><path fill="rgb(39,41,44)" stroke="rgb(39,41,44)" stroke-width="0.6" opacity="1" d="M 117 380 Q 120 378.8 119 382.5 L 124.5 389 L 119 385.5 L 117 380 Z " /><path fill="rgb(39,41,44)" stroke="rgb(39,41,44)" stroke-width="0.6" opacity="1" d="M 408 386 L 410 387.5 L 405.5 393 L 399.5 396 L 401.5 393 L 408 387.5 L 408 386 Z " /><path fill="rgb(39,41,44)" stroke="rgb(39,41,44)" stroke-width="0.6" opacity="1" d="M 432.5 401 L 435 402.5 L 427.5 406 L 426.5 404 L 432.5 401 Z " /><path fill="rgb(39,41,44)" stroke="rgb(39,41,44)" stroke-width="0.6" opacity="1" d="M 97.5 404 L 105 407.5 L 104.5 409 L 97 405.5 L 97.5 404 Z " /><path fill="rgb(39,41,44)" stroke="rgb(39,41,44)" stroke-width="0.6" opacity="1" d="M 412.5 409 L 413 410.5 L 404.5 413 L 405.5 411 L 412.5 409 Z " /><path fill="rgb(39,41,44)" stroke="rgb(39,41,44)" stroke-width="0.6" opacity="1" d="M 252.5 424 L 286.5 424 L 287 426 L 251 425.5 L 252.5 424 Z " /><path fill="rgb(75,75,61)" stroke="rgb(75,75,61)" stroke-width="0.6" opacity="1" d="M 210 236 L 213 236.5 L 209 239 L 208 241.5 L 208 243.5 L 206.5 247 L 206 244.5 L 210 236 Z " /><path fill="rgb(75,75,61)" stroke="rgb(75,75,61)" stroke-width="0.6" opacity="1" d="M 245.5 250 L 239.5 257 L 245.5 250 Z " /><path fill="rgb(75,75,61)" stroke="rgb(75,75,61)" stroke-width="0.6" opacity="1" d="M 397.5 370 L 392.5 376 L 397.5 370 Z " /><path fill="rgb(75,75,61)" stroke="rgb(75,75,61)" stroke-width="0.6" opacity="1" d="M 405.5 379 L 410 382.5 Q 411.3 387.3 408 386 Q 408.7 380.4 405.5 379 Z " /><path fill="rgb(75,75,61)" stroke="rgb(75,75,61)" stroke-width="0.6" opacity="1" d="M 124.5 387 L 126.5 390 L 128 389.5 L 128.5 391 L 130.5 390 L 139 394.5 L 136.5 395 L 131 393 L 130.5 391 L 128.5 392 L 123 388.5 L 124.5 387 Z " /><path fill="rgb(75,75,61)" stroke="rgb(75,75,61)" stroke-width="0.6" opacity="1" d="M 389.5 399 L 387.5 402 L 382 403 Q 380.8 400 384.5 401 L 389.5 399 Z " /><path fill="rgb(75,75,61)" stroke="rgb(75,75,61)" stroke-width="0.6" opacity="1" d="M 279.5 401 L 305 401.5 L 279.5 402 L 279.5 401 Z " /><path fill="rgb(75,75,61)" stroke="rgb(75,75,61)" stroke-width="0.6" opacity="1" d="M 228.5 423 L 236 423.5 L 231 424 Q 232.3 427 228.5 426 Q 225.5 424.5 228.5 423 Z " /><path fill="rgb(230,198,66)" stroke="rgb(230,198,66)" stroke-width="0.6" opacity="1" d="M 256 91 L 264 93.5 L 262.5 94 L 259.5 93 L 257.5 96 L 256 91 Z " /><path fill="rgb(230,198,66)" stroke="rgb(230,198,66)" stroke-width="0.6" opacity="1" d="M 209.5 179 L 209 180.5 L 209.5 183 L 213 182 L 212 179.5 L 214 180.5 Q 214.8 185.3 211.5 186 L 208 183.5 L 209.5 179 Z " /><path fill="rgb(230,198,66)" stroke="rgb(230,198,66)" stroke-width="0.6" opacity="1" d="M 290.5 183 Q 293.8 184.8 292 191.5 L 290.5 195 L 290 192.5 L 291 184.5 L 290.5 183 Z " /><path fill="rgb(230,198,66)" stroke="rgb(230,198,66)" stroke-width="0.6" opacity="1" d="M 315.5 272 Q 325.4 270.6 331 273.5 L 324.5 274 L 319.5 273 L 309.5 274 L 309.5 273 L 315.5 272 Z " /><path fill="rgb(230,198,66)" stroke="rgb(230,198,66)" stroke-width="0.6" opacity="1" d="M 407.5 277 L 408 293.5 L 407 293.5 L 407.5 277 Z " /><path fill="rgb(230,198,66)" stroke="rgb(230,198,66)" stroke-width="0.6" opacity="1" d="M 368.5 280 L 379 280.5 Q 376.6 283.1 370.5 282 L 368.5 280 Z " /><path fill="rgb(230,198,66)" stroke="rgb(230,198,66)" stroke-width="0.6" opacity="1" d="M 414.5 292 Q 417.8 290.9 417 293.5 L 418 299.5 L 417 299.5 Q 419.1 293.6 414.5 295 L 412 294.5 L 414.5 292 Z " /><path fill="rgb(230,198,66)" stroke="rgb(230,198,66)" stroke-width="0.6" opacity="1" d="M 336.5 302 L 345 304.5 L 342.5 305 L 336.5 303 L 336.5 302 Z " /><path fill="rgb(230,198,66)" stroke="rgb(230,198,66)" stroke-width="0.6" opacity="1" d="M 417.5 302 L 418 312.5 L 417 312.5 L 417.5 302 Z " /><path fill="rgb(230,198,66)" stroke="rgb(230,198,66)" stroke-width="0.6" opacity="1" d="M 271.5 326 L 272 336.5 L 271 336.5 L 271.5 326 Z " /><path fill="rgb(230,198,66)" stroke="rgb(230,198,66)" stroke-width="0.6" opacity="1" d="M 197.5 371 L 203 375.5 L 202.5 377 L 197.5 371 Z " /><path fill="rgb(230,198,66)" stroke="rgb(230,198,66)" stroke-width="0.6" opacity="1" d="M 275 396 L 300.5 397 L 308 396 L 307.5 398 L 275 398 L 275 396 Z " /><path fill="rgb(128,115,56)" stroke="rgb(128,115,56)" stroke-width="0.6" opacity="1" d="M 317.5 126 L 323.5 133 L 317.5 126 Z " /><path fill="rgb(128,115,56)" stroke="rgb(128,115,56)" stroke-width="0.6" opacity="1" d="M 321.5 297 L 324.5 299 L 324.5 300 L 316.5 300 L 316 298 L 321.5 297 Z " /><path fill="rgb(128,115,56)" stroke="rgb(128,115,56)" stroke-width="0.6" opacity="1" d="M 376.5 336 L 371.5 342 L 376.5 336 Z " /><path fill="rgb(128,115,56)" stroke="rgb(128,115,56)" stroke-width="0.6" opacity="1" d="M 276.5 357 L 281.5 363 L 276.5 357 Z " /><path fill="rgb(128,115,56)" stroke="rgb(128,115,56)" stroke-width="0.6" opacity="1" d="M 154.5 362 L 156 364 L 147.5 366 L 147 364 L 150.5 363 L 152.5 363 L 154.5 362 Z " /><path fill="rgb(128,115,56)" stroke="rgb(128,115,56)" stroke-width="0.6" opacity="1" d="M 194.5 393 L 199 395.5 L 198.5 398 L 192 394.5 L 194.5 393 Z " /><path fill="rgb(128,115,56)" stroke="rgb(128,115,56)" stroke-width="0.6" opacity="1" d="M 156.5 397 L 161.5 399 L 164 398 Q 165.3 401.7 159.5 400 L 156.5 397 Z " /><path fill="rgb(128,115,56)" stroke="rgb(128,115,56)" stroke-width="0.6" opacity="1" d="M 251.5 406 L 261.5 407 L 263 408.5 L 256.5 409 L 252.5 408 L 251.5 406 Z " /><path fill="rgb(174,136,53)" stroke="rgb(174,136,53)" stroke-width="0.6" opacity="1" d="M 212.5 280 L 206.5 287 L 212.5 280 Z " /><path fill="rgb(174,136,53)" stroke="rgb(174,136,53)" stroke-width="0.6" opacity="1" d="M 243.5 423 L 296 423.5 L 243.5 424 L 243.5 423 Z " /><path fill="rgb(97,102,93)" stroke="rgb(97,102,93)" stroke-width="0.6" opacity="1" d="M 185.5 173 L 186 189.5 L 185 189.5 L 185.5 173 Z " /><path fill="rgb(97,102,93)" stroke="rgb(97,102,93)" stroke-width="0.6" opacity="1" d="M 282.5 398 L 304 398.5 L 282.5 399 L 282.5 398 Z " /><path fill="rgb(97,102,93)" stroke="rgb(97,102,93)" stroke-width="0.6" opacity="1" d="M 253.5 426 L 284 426.5 L 253.5 427 L 253.5 426 Z " /><path fill="rgb(80,126,176)" stroke="rgb(80,126,176)" stroke-width="0.6" opacity="1" d="M 274.5 184 L 280 187.5 L 277.5 192 L 272 190.5 Q 271 185 274.5 184 Z " /><path fill="rgb(80,126,176)" stroke="rgb(80,126,176)" stroke-width="0.6" opacity="1" d="M 239.5 236 L 241 238.5 L 231.5 249 Q 226.5 255 215.5 255 Q 210.3 253.3 212 244.5 L 216.5 238 L 218.5 239 L 221.5 238 L 221.5 240 L 223 240.5 L 221.5 243 L 228.5 238 Q 235.9 238.9 239.5 236 Z " /><path fill="rgb(140,139,137)" stroke="rgb(140,139,137)" stroke-width="0.6" opacity="1" d="M 181.5 173 L 182 187.5 L 181 187.5 L 181.5 173 Z " /><path fill="rgb(140,139,137)" stroke="rgb(140,139,137)" stroke-width="0.6" opacity="1" d="M 208.5 278 L 201.5 286 L 208.5 278 Z " /></svg>