<svg width="627" height="627" preserveAspectRatio="xMidYMid meet" viewBox="0 0 512 512" version="1.1" xmlns="http://www.w3.org/2000/svg" ><path fill="rgb(255,255,255)" stroke="rgb(255,255,255)" stroke-width="0" opacity="1" d="M 0 0 L 512 0 L 512 512 L 0 512 L 0 0 Z M 242 37 L 236 39 L 229 48 L 229 58 L 231 68 L 231 94 L 230 95 L 230 101 L 216 94 L 194 89 L 174 90 L 137 101 L 121 103 Q 117 104 118 110 L 123 114 L 140 122 Q 108 132 86 153 Q 58 176 43 212 L 37 228 L 33 244 L 32 256 L 31 257 L 31 267 L 30 268 L 30 289 L 31 290 L 32 308 L 36 326 L 41 341 Q 54 375 77 400 Q 108 434 154 454 L 187 466 L 191 466 L 203 470 L 226 473 L 227 474 L 254 475 L 255 476 L 258 475 L 282 475 L 283 474 L 291 474 L 292 473 L 310 471 Q 330 467 349 460 Q 391 445 421 417 Q 448 392 465 356 L 476 324 L 479 310 L 480 293 L 481 292 L 481 265 L 480 264 L 479 248 L 475 230 Q 463 191 439 165 Q 421 144 397 131 L 375 121 L 372 121 L 359 116 L 341 113 Q 340 110 343 111 Q 352 104 356 93 L 355 89 L 352 86 L 341 87 L 340 88 L 301 90 Q 287 93 278 99 L 275 101 L 276 81 L 282 58 L 279 50 Q 272 41 260 38 L 242 37 Z " /><path fill="rgb(255,255,255)" stroke="rgb(255,255,255)" stroke-width="0" opacity="1" d="M 243.5 47 Q 262.7 46.3 271 56.5 L 265 84.5 L 265 115.5 L 269 132.5 L 265.5 136 L 260.5 138 L 246.5 139 L 238.5 137 L 231 131.5 L 235 123.5 L 240 104.5 Q 238.5 99 241 97.5 L 241 62.5 L 240 61.5 L 239 50.5 L 243.5 47 Z " /><path fill="rgb(255,255,255)" stroke="rgb(255,255,255)" stroke-width="0" opacity="1" d="M 340.5 97 L 341 98.5 Q 330.5 109.5 315.5 116 L 310 121.5 L 309 124.5 L 312.5 129 Q 326.2 131.8 336.5 138 L 362.5 158 L 376 165.5 L 366.5 169 L 355.5 170 L 354.5 171 L 326.5 171 L 303.5 166 L 285.5 158 L 278.5 157 L 276 159.5 L 276 183.5 Q 273.8 184.8 275 189.5 L 264 219.5 L 264 226 Q 245.6 220.2 234 206.5 Q 225.8 197.2 223 182.5 L 223 158 L 218.5 157 L 198.5 168 L 179.5 174 L 168.5 175 L 167.5 176 L 140.5 176 L 129 173.5 Q 147.2 160.7 161.5 144 Q 172.8 134.8 189.5 131 L 193 127.5 L 190.5 124 L 178.5 119 L 148.5 114 L 139 110.5 L 170.5 101 L 189.5 99 L 210.5 103 L 227 112.5 L 224 123 Q 218 119.4 209 119 Q 207.5 122.8 210.5 122 L 221 129.5 Q 222.3 133.7 217.5 132 L 209 137.5 Q 208.4 140.3 214.5 139 L 215.5 138 L 225.5 138 Q 234.8 148.7 256.5 147 L 265.5 145 L 274.5 140 L 290.5 140 L 292 138.5 L 289.5 136 L 280 132.5 L 292 125.5 L 291.5 124 L 283.5 124 L 278.5 126 Q 275 121.5 276 112.5 Q 284.7 104.7 297.5 101 L 308.5 100 L 309.5 99 L 329.5 99 L 340.5 97 Z " /><path fill="rgb(255,255,255)" stroke="rgb(255,255,255)" stroke-width="0" opacity="1" d="M 326.5 122 L 335.5 122 L 346.5 124 Q 366.2 128.3 382.5 136 Q 411.1 149.4 431 171.5 Q 452.1 194.4 463 227.5 L 470 262.5 L 470 293.5 L 464 326.5 L 451 359.5 Q 434.5 391 408.5 413 Q 392.7 426.7 373.5 437 L 335.5 453 L 297.5 462 L 281.5 463 L 280.5 464 L 254.5 465 L 253.5 464 L 235.5 464 L 234.5 463 L 219.5 462 L 208.5 459 L 203.5 459 Q 181.4 454.1 162.5 446 Q 120.5 428.5 91 398.5 Q 65.3 373.2 51 336.5 L 47 324.5 L 42 301.5 Q 43.8 295.3 41 293.5 L 41 263.5 L 42 262.5 L 44 243.5 L 53 215.5 Q 67.1 183.6 91.5 162 Q 118.9 136.4 161.5 126 L 168 127 Q 169.1 129.7 166.5 129 Q 145.6 141.6 130.5 160 L 113 170.5 L 112 175.5 L 114.5 179 L 132.5 185 L 147.5 186 L 148.5 187 L 160.5 187 L 161.5 186 L 170.5 186 L 185.5 183 L 198.5 179 L 212 173 Q 214.1 176.3 213 184.5 L 219 202.5 Q 225.9 214.7 236.5 223 L 263.5 238 L 268.5 238 L 272 235.5 L 275 218.5 L 281 205.5 L 286 187.5 L 287.5 170 L 292.5 173 L 316.5 180 L 330.5 181 L 331.5 182 L 348.5 182 L 349.5 181 L 357.5 181 L 372.5 178 L 386.5 172 L 390 168.5 L 391 164.5 L 388.5 161 L 369.5 151 L 344.5 131 L 326.5 123 L 326.5 122 Z " /><path fill="rgb(0,0,0)" stroke="rgb(0,0,0)" stroke-width="0" opacity="1" d="M 241.5 37 L 259.5 38 Q 271.7 41.3 279 49.5 L 282 57.5 L 276 80.5 L 275 100.5 L 277.5 99 Q 287.1 92.6 300.5 90 L 339.5 88 L 340.5 87 L 351.5 86 L 355 88.5 L 356 92.5 Q 351.5 104 342.5 111 Q 339.9 110.3 341 113 L 358.5 116 L 371.5 121 L 374.5 121 L 396.5 131 Q 421 144.5 439 164.5 Q 463.4 190.6 475 229.5 L 479 247.5 L 480 263.5 L 481 264.5 L 481 291.5 L 480 292.5 L 479 309.5 L 476 323.5 L 465 355.5 Q 448.4 391.9 420.5 417 Q 390.9 444.9 348.5 460 Q 330.4 466.9 309.5 471 L 291.5 473 L 290.5 474 L 282.5 474 L 281.5 475 L 257.5 475 L 254.5 476 L 253.5 475 L 226.5 474 L 225.5 473 L 202.5 470 L 190.5 466 L 186.5 466 L 153.5 454 Q 108.3 433.7 77 399.5 Q 54.1 374.9 41 340.5 L 36 325.5 L 32 307.5 L 31 289.5 L 30 288.5 L 30 267.5 L 31 266.5 L 31 256.5 L 32 255.5 L 33 243.5 L 37 227.5 L 43 211.5 Q 58.5 176.5 85.5 153 Q 107.8 132.3 140 121.5 L 122.5 114 L 118 109.5 Q 117 104 120.5 103 L 136.5 101 L 173.5 90 L 193.5 89 L 215.5 94 L 230 101 L 230 94.5 L 231 93.5 L 231 67.5 L 229 57.5 L 229 47.5 L 235.5 39 L 241.5 37 Z M 244 47 L 239 51 L 240 62 L 241 63 L 241 98 Q 239 99 240 105 L 235 124 L 231 132 L 239 137 L 247 139 L 261 138 L 266 136 L 269 133 L 265 116 L 265 85 L 271 57 Q 263 46 244 47 Z M 341 97 L 330 99 L 310 99 L 309 100 L 298 101 Q 285 105 276 113 Q 275 121 279 126 L 284 124 L 292 124 L 292 126 L 280 133 L 290 136 L 292 139 L 291 140 L 275 140 L 266 145 L 257 147 Q 235 149 226 138 L 216 138 L 215 139 Q 208 140 209 138 L 218 132 Q 222 134 221 130 L 211 122 Q 207 123 209 119 Q 218 119 224 123 L 227 113 L 211 103 L 190 99 L 171 101 L 139 111 L 149 114 L 179 119 L 191 124 L 193 128 L 190 131 Q 173 135 162 144 Q 147 161 129 174 L 141 176 L 168 176 L 169 175 L 180 174 L 199 168 L 219 157 L 223 158 L 223 183 Q 226 197 234 207 Q 246 220 264 226 L 264 220 L 275 190 Q 274 185 276 184 L 276 160 L 279 157 L 286 158 L 304 166 L 327 171 L 355 171 L 356 170 L 367 169 L 376 166 L 363 158 L 337 138 Q 326 132 313 129 L 309 125 L 310 122 L 316 116 Q 331 110 341 99 L 341 97 Z M 327 122 L 327 123 L 345 131 L 370 151 L 389 161 L 391 165 L 390 169 L 387 172 L 373 178 L 358 181 L 350 181 L 349 182 L 332 182 L 331 181 L 317 180 L 293 173 L 288 170 L 286 188 L 281 206 L 275 219 L 272 236 L 269 238 L 264 238 L 237 223 Q 226 215 219 203 L 213 185 Q 214 176 212 173 L 199 179 L 186 183 L 171 186 L 162 186 L 161 187 L 149 187 L 148 186 L 133 185 L 115 179 L 112 176 L 113 171 L 131 160 Q 146 142 167 129 Q 169 130 168 127 L 162 126 Q 119 136 92 162 Q 67 184 53 216 L 44 244 L 42 263 L 41 264 L 41 294 Q 44 295 42 302 L 47 325 L 51 337 Q 65 373 91 399 Q 120 429 163 446 Q 181 454 204 459 L 209 459 L 220 462 L 235 463 L 236 464 L 254 464 L 255 465 L 281 464 L 282 463 L 298 462 L 336 453 L 374 437 Q 393 427 409 413 Q 434 391 451 360 L 464 327 L 470 294 L 470 263 L 463 228 Q 452 194 431 172 Q 411 149 383 136 Q 366 128 347 124 L 336 122 L 327 122 Z " /></svg>