<svg width="627" height="627" preserveAspectRatio="xMidYMid meet" viewBox="0 0 512 512" version="1.1" xmlns="http://www.w3.org/2000/svg" ><path fill="rgb(255,255,255)" stroke="rgb(255,255,255)" stroke-width="0" opacity="1" d="M 0 0 L 512 0 L 512 512 L 0 512 L 0 0 Z M 284 19 Q 263 23 250 34 Q 223 55 222 101 L 206 101 L 189 104 Q 168 110 155 123 L 150 122 L 136 122 L 116 127 Q 101 133 90 143 Q 77 155 69 171 L 61 196 L 60 214 L 59 215 L 60 237 L 61 238 L 61 245 L 65 267 L 74 297 L 90 340 L 103 396 Q 108 413 116 428 L 129 446 Q 140 458 155 466 L 172 473 L 188 476 L 198 476 L 199 475 L 206 475 Q 214 483 227 487 L 250 493 L 278 493 L 283 492 L 297 488 L 314 478 L 319 479 L 341 479 L 349 477 Q 366 472 378 462 Q 391 451 400 436 L 409 418 L 415 400 L 422 373 L 430 333 L 448 270 L 452 249 L 453 229 L 454 228 L 453 205 L 449 185 Q 443 166 432 153 Q 420 138 404 129 L 389 123 L 375 120 L 354 120 L 349 122 L 345 122 Q 333 111 316 105 L 298 101 L 275 101 L 277 90 L 282 79 Q 286 72 295 69 L 307 69 L 308 70 Q 316 72 320 68 Q 326 63 328 53 L 328 43 L 323 31 Q 312 16 284 19 Z " /><path fill="rgb(255,255,255)" stroke="rgb(255,255,255)" stroke-width="0" opacity="1" d="M 284.5 29 Q 306.2 26.3 315 36.5 Q 319.2 41.3 318 51.5 L 313.5 60 L 292.5 59 Q 280.6 63.1 274 72.5 Q 268.3 80.3 266 91.5 Q 267.2 96.3 265 97.5 L 265 122.5 L 268 136.5 L 274.5 146 Q 279 147 280 144.5 Q 281.2 139.7 279 138.5 L 282.5 138 L 290 142.5 L 291 145.5 L 287.5 150 Q 279.5 155 268.5 157 Q 263 155.5 261.5 158 L 233.5 158 L 215.5 154 L 207 148.5 L 206 145.5 L 210.5 140 L 214.5 139 L 214 140.5 Q 213.3 145.3 216.5 146 L 223 141.5 L 227 132.5 L 230 118.5 L 232 93.5 L 235 76.5 Q 240.6 54.6 255.5 42 Q 266.8 32.3 284.5 29 Z " /><path fill="rgb(255,255,255)" stroke="rgb(255,255,255)" stroke-width="0" opacity="1" d="M 209.5 111 Q 216.5 110.3 220 112 L 218 129 Q 206.6 130.2 200 137.5 L 198 142 L 186.5 143 Q 178.2 132.9 166 128 L 167.5 125 L 187.5 115 L 209.5 111 Z " /><path fill="rgb(255,255,255)" stroke="rgb(255,255,255)" stroke-width="0" opacity="1" d="M 275 111 Q 313.7 109 334 126.5 Q 322.1 132.1 313.5 141 L 301.5 142 L 300.5 143 Q 298.3 136.2 292.5 133 L 282.5 129 L 277.5 129 L 276 127.5 L 275 111 Z " /><path fill="rgb(255,255,255)" stroke="rgb(255,255,255)" stroke-width="0" opacity="1" d="M 358.5 130 L 377.5 131 L 396.5 137 Q 411.5 144.5 422 156.5 Q 433.4 169.1 439 187.5 L 443 208.5 L 443 234.5 L 442 235.5 L 442 244.5 L 438 266.5 L 422 321.5 L 411 369.5 L 410 378.5 L 402 406.5 L 391 430.5 L 374.5 451 Q 365 460 351.5 465 L 335.5 469 L 324 469 Q 333.6 456.9 340 440.5 L 349 406.5 L 351 388.5 L 352 387.5 L 352 380.5 L 353 379.5 L 353 371.5 L 354 370.5 L 357 332.5 L 372 245.5 L 372 237.5 L 373 236.5 L 373 207.5 L 372 206.5 L 371 194.5 L 365 175.5 Q 359.8 164.2 351.5 156 Q 341.9 146.6 327 142.5 L 341.5 134 L 358.5 130 Z " /><path fill="rgb(255,255,255)" stroke="rgb(255,255,255)" stroke-width="0" opacity="1" d="M 138.5 132 L 146.5 132 L 156.5 134 Q 168.5 138 176 146.5 Q 176.8 148.8 174.5 148 L 160 159.5 Q 148.2 172.7 143 192.5 L 141 203.5 L 141 212.5 L 140 213.5 L 140 232.5 L 141 233.5 L 142 252.5 L 146 272.5 L 156 308.5 L 156 312.5 L 158 316.5 L 164 344.5 L 168 381.5 L 169 382.5 L 169 390.5 L 174 419.5 L 183 446.5 L 189 457.5 L 195 464.5 L 184.5 465 Q 152 458.5 135 436.5 Q 123.5 423 117 404.5 L 112 388.5 L 100 336.5 L 77 271.5 L 70 232.5 L 70 206.5 L 73 189.5 L 83 166.5 L 100.5 147 L 117.5 137 L 138.5 132 Z " /><path fill="rgb(255,255,255)" stroke="rgb(255,255,255)" stroke-width="0" opacity="1" d="M 304.5 151 L 320.5 151 L 330.5 154 Q 341.2 158.3 348 166.5 Q 357.8 177.7 362 194.5 L 364 204.5 L 364 212.5 L 365 213.5 L 365 234.5 L 364 235.5 L 364 246.5 L 363 247.5 L 361 271.5 L 360 272.5 L 360 278.5 L 359 279.5 L 356 305.5 L 352 326.5 L 347 381.5 L 342 409.5 L 337 427.5 L 328 447.5 Q 320.9 459.4 310.5 468 Q 299.6 476.6 284.5 481 L 273.5 482 L 272.5 483 L 253.5 483 L 238.5 480 L 217.5 471 Q 205.3 464.1 197 453.5 L 185 432.5 L 177 405.5 L 167 333.5 L 156 290.5 L 150 257.5 L 149 238.5 L 148 237.5 L 148 215.5 L 149 214.5 L 149 206.5 L 151 196.5 L 154 187.5 Q 159.7 171.7 171.5 162 L 184.5 154 Q 189.1 151.1 197.5 152 Q 203.7 160.8 215.5 164 L 237.5 168 L 257.5 168 L 282.5 163 Q 292.1 160.1 297.5 153 L 304.5 151 Z " /><path fill="rgb(0,0,0)" stroke="rgb(0,0,0)" stroke-width="0" opacity="1" d="M 283.5 19 Q 312.1 15.9 323 30.5 L 328 42.5 L 328 52.5 Q 326.3 62.8 319.5 68 Q 316.3 71.8 307.5 70 L 306.5 69 L 294.5 69 Q 286.4 71.9 282 78.5 L 277 89.5 L 275 101 L 297.5 101 L 315.5 105 Q 332.8 110.7 344.5 122 L 348.5 122 L 353.5 120 L 374.5 120 L 388.5 123 L 403.5 129 Q 420.4 138.2 432 152.5 Q 443.3 165.7 449 184.5 L 453 204.5 L 454 227.5 L 453 228.5 L 452 248.5 L 448 269.5 L 430 332.5 L 422 372.5 L 415 399.5 L 409 417.5 L 400 435.5 Q 391.2 451.2 377.5 462 Q 365.5 472 348.5 477 L 340.5 479 L 318.5 479 L 313.5 478 L 296.5 488 L 282.5 492 L 277.5 493 L 249.5 493 L 226.5 487 Q 214.5 482.5 205.5 475 L 198.5 475 L 197.5 476 L 187.5 476 L 171.5 473 L 154.5 466 Q 139.8 457.7 129 445.5 L 116 427.5 Q 107.9 413.1 103 395.5 L 90 339.5 L 74 296.5 L 65 266.5 L 61 244.5 L 61 237.5 L 60 236.5 L 59 214.5 L 60 213.5 L 61 195.5 L 69 170.5 Q 77 154.5 89.5 143 Q 100.5 133 115.5 127 L 135.5 122 L 149.5 122 L 154.5 123 Q 167.9 109.9 188.5 104 L 205.5 101 L 222 101 Q 223.1 55.4 249.5 34 Q 262.7 22.7 283.5 19 Z M 285 29 Q 267 32 256 42 Q 241 55 235 77 L 232 94 L 230 119 L 227 133 L 223 142 L 217 146 Q 213 145 214 141 L 215 139 L 211 140 L 206 146 L 207 149 L 216 154 L 234 158 L 262 158 Q 263 156 269 157 Q 280 155 288 150 L 291 146 L 290 143 L 283 138 L 279 139 Q 281 140 280 145 Q 279 147 275 146 L 268 137 L 265 123 L 265 98 Q 267 96 266 92 Q 268 80 274 73 Q 281 63 293 59 L 314 60 L 318 52 Q 319 41 315 37 Q 306 26 285 29 Z M 210 111 L 188 115 L 168 125 L 166 128 Q 178 133 187 143 L 198 142 L 200 138 Q 207 130 218 129 L 220 112 Q 217 110 210 111 Z M 275 111 L 276 128 L 278 129 L 283 129 L 293 133 Q 298 136 301 143 L 302 142 L 314 141 Q 322 132 334 127 Q 314 109 275 111 Z M 359 130 L 342 134 L 327 143 Q 342 147 352 156 Q 360 164 365 176 L 371 195 L 372 207 L 373 208 L 373 237 L 372 238 L 372 246 L 357 333 L 354 371 L 353 372 L 353 380 L 352 381 L 352 388 L 351 389 L 349 407 L 340 441 Q 334 457 324 469 L 336 469 L 352 465 Q 365 460 375 451 L 391 431 L 402 407 L 410 379 L 411 370 L 422 322 L 438 267 L 442 245 L 442 236 L 443 235 L 443 209 L 439 188 Q 433 169 422 157 Q 411 145 397 137 L 378 131 L 359 130 Z M 139 132 L 118 137 L 101 147 L 83 167 L 73 190 L 70 207 L 70 233 L 77 272 L 100 337 L 112 389 L 117 405 Q 124 423 135 437 Q 152 459 185 465 L 195 465 L 189 458 L 183 447 L 174 420 L 169 391 L 169 383 L 168 382 L 164 345 L 158 317 L 156 313 L 156 309 L 146 273 L 142 253 L 141 234 L 140 233 L 140 214 L 141 213 L 141 204 L 143 193 Q 148 173 160 160 L 175 148 Q 177 149 176 147 Q 168 138 157 134 L 147 132 L 139 132 Z M 305 151 L 298 153 Q 292 160 283 163 L 258 168 L 238 168 L 216 164 Q 204 161 198 152 Q 189 151 185 154 L 172 162 Q 160 172 154 188 L 151 197 L 149 207 L 149 215 L 148 216 L 148 238 L 149 239 L 150 258 L 156 291 L 167 334 L 177 406 L 185 433 L 197 454 Q 205 464 218 471 L 239 480 L 254 483 L 273 483 L 274 482 L 285 481 Q 300 477 311 468 Q 321 459 328 448 L 337 428 L 342 410 L 347 382 L 352 327 L 356 306 L 359 280 L 360 279 L 360 273 L 361 272 L 363 248 L 364 247 L 364 236 L 365 235 L 365 214 L 364 213 L 364 205 L 362 195 Q 358 178 348 167 Q 341 158 331 154 L 321 151 L 305 151 Z " /></svg>