<svg width="627" height="627" preserveAspectRatio="xMidYMid meet" viewBox="0 0 512 512" version="1.1" xmlns="http://www.w3.org/2000/svg" ><path fill="rgb(255,255,255)" stroke="rgb(255,255,255)" stroke-width="0" opacity="1" d="M 0 0 L 512 0 L 512 512 L 0 512 L 0 0 Z M 241 57 L 240 58 L 224 59 L 208 64 L 186 77 Q 160 95 155 132 L 149 131 L 134 131 L 121 134 L 103 144 Q 88 155 80 174 L 76 189 L 76 203 L 64 210 Q 50 221 46 242 L 46 258 L 47 263 Q 51 277 59 287 Q 67 296 78 302 L 91 307 L 101 309 L 121 308 L 136 303 L 140 300 L 142 300 L 159 314 L 169 319 L 182 323 L 193 324 L 194 325 L 221 324 L 238 319 Q 254 312 265 300 Q 267 299 266 302 Q 276 312 291 318 L 311 323 L 329 323 L 346 319 Q 363 312 375 299 L 385 303 L 396 304 L 397 305 L 413 304 L 424 301 Q 435 296 445 288 Q 461 273 466 247 Q 468 216 454 201 L 437 185 L 424 179 L 414 178 L 412 177 L 411 169 L 407 158 L 399 146 L 383 131 L 368 124 L 351 121 L 338 122 L 330 124 Q 324 99 308 84 Q 296 71 280 64 L 263 59 L 241 57 Z M 129 328 L 127 329 Q 113 343 103 361 L 94 381 L 91 397 Q 91 415 101 424 Q 108 431 121 434 Q 133 436 141 433 L 153 426 Q 161 419 164 406 L 164 386 L 161 375 Q 152 351 137 334 L 132 328 L 129 328 Z M 375 328 Q 352 351 343 388 L 343 406 L 344 411 L 349 421 Q 356 430 370 434 L 385 434 L 398 428 L 408 416 L 412 401 L 411 385 L 405 367 Q 395 347 382 331 Q 380 327 375 328 Z M 257 341 L 255 342 L 234 372 L 224 393 L 220 411 L 221 426 Q 224 436 230 443 Q 238 451 252 454 L 264 454 Q 273 453 279 448 L 290 436 L 293 429 L 295 419 L 293 399 L 288 385 Q 278 363 264 346 Q 262 341 257 341 Z " /><path fill="rgb(255,255,255)" stroke="rgb(255,255,255)" stroke-width="0" opacity="1" d="M 236.5 66 L 251.5 66 L 273.5 71 Q 291 78 303 90.5 L 313 103.5 Q 320.5 115 323 131.5 L 325.5 134 L 340.5 130 L 356.5 130 Q 381.6 134.9 394 152.5 L 402 167.5 L 404 176.5 L 404 183.5 L 405.5 185 Q 409 187.5 416.5 186 L 428.5 190 L 444 201.5 Q 457.3 214.7 458 240.5 L 454 259.5 Q 448.3 273.8 437.5 283 Q 429.1 290.1 417.5 294 L 408.5 296 L 392.5 296 L 383.5 294 L 375.5 290 L 371.5 290 Q 361.4 302.9 345.5 310 L 330.5 314 L 316.5 315 L 293.5 310 Q 278.6 303.9 269 292.5 L 267.5 290 L 263.5 289 L 261 290 L 261 291.5 L 251.5 301 Q 240.6 309.6 225.5 314 L 216.5 316 L 198.5 317 L 197.5 316 L 184.5 315 L 171.5 311 L 161.5 306 L 149 297 L 143.5 290 L 140.5 290 Q 132.8 296.2 121.5 299 L 116.5 300 L 98.5 300 Q 76.4 295.6 65 280.5 Q 54.5 268.5 54 246.5 L 56 236.5 L 61 225.5 L 69.5 216 L 85 206.5 L 84 193.5 L 87 178.5 Q 92.7 163.7 103.5 154 Q 112 146.5 123.5 142 L 143.5 139 L 160.5 142 L 163 139.5 L 163 131.5 L 165 121.5 L 173 103.5 Q 180.3 91.3 191.5 83 L 213.5 71 L 236.5 66 Z " /><path fill="rgb(255,255,255)" stroke="rgb(255,255,255)" stroke-width="0" opacity="1" d="M 129.5 338 Q 143.2 353.3 152 373.5 L 156 388.5 L 156 403.5 Q 153.6 415.1 145.5 421 L 133.5 426 L 123.5 426 Q 112.2 423.8 106 416.5 L 100 403.5 L 100 391.5 Q 103.4 375.4 111 363.5 L 129.5 338 Z " /><path fill="rgb(255,255,255)" stroke="rgb(255,255,255)" stroke-width="0" opacity="1" d="M 376.5 338 Q 378.8 337.3 378 339.5 Q 390.9 354.1 399 373.5 L 403 387.5 L 403 403.5 Q 400.8 416.3 391.5 422 L 381.5 426 L 372.5 426 Q 361.4 423.6 356 415.5 L 351 404.5 L 351 389.5 L 359 365.5 L 376.5 338 Z " /><path fill="rgb(255,255,255)" stroke="rgb(255,255,255)" stroke-width="0" opacity="1" d="M 257.5 352 Q 259.8 351.3 259 353.5 Q 272.3 369.2 281 389.5 L 286 407.5 L 286 420.5 Q 284.1 432.6 276.5 439 L 270.5 443 L 256.5 446 L 244.5 443 L 235 435.5 L 229 422.5 L 229 407.5 L 233 392.5 L 238 381.5 L 257.5 352 Z " /><path fill="rgb(0,0,0)" stroke="rgb(0,0,0)" stroke-width="0" opacity="1" d="M 240.5 57 L 262.5 59 L 279.5 64 Q 296.3 71.2 308 83.5 Q 324.1 99.2 330 124 L 337.5 122 L 350.5 121 L 367.5 124 L 382.5 131 L 399 145.5 L 407 157.5 L 411 168.5 L 412 176.5 L 413.5 178 L 423.5 179 L 436.5 185 L 454 200.5 Q 467.6 215.9 466 246.5 Q 461.2 273.2 444.5 288 Q 435.5 296 423.5 301 L 412.5 304 L 396.5 305 L 395.5 304 L 384.5 303 L 374.5 299 Q 363.2 312.2 345.5 319 L 328.5 323 L 310.5 323 L 290.5 318 Q 276 312 266 301.5 Q 266.8 299.3 264.5 300 Q 253.6 312.1 237.5 319 L 220.5 324 L 193.5 325 L 192.5 324 L 181.5 323 L 168.5 319 L 158.5 314 L 141.5 300 L 139.5 300 L 135.5 303 L 120.5 308 L 100.5 309 L 90.5 307 L 77.5 302 Q 66.5 295.9 59 286.5 Q 50.9 276.6 47 262.5 L 46 257.5 L 46 241.5 Q 50.2 221.2 63.5 210 L 76 203 L 76 188.5 L 80 173.5 Q 87.6 155.1 102.5 144 L 120.5 134 L 133.5 131 L 148.5 131 L 155 132 Q 160.5 95.2 185.5 77 L 207.5 64 L 223.5 59 L 239.5 58 L 240.5 57 Z M 237 66 L 214 71 L 192 83 Q 180 91 173 104 L 165 122 L 163 132 L 163 140 L 161 142 L 144 139 L 124 142 Q 112 146 104 154 Q 93 164 87 179 L 84 194 L 85 207 L 70 216 L 61 226 L 56 237 L 54 247 Q 55 269 65 281 Q 76 296 99 300 L 117 300 L 122 299 Q 133 296 141 290 L 144 290 L 149 297 L 162 306 L 172 311 L 185 315 L 198 316 L 199 317 L 217 316 L 226 314 Q 241 310 252 301 L 261 292 L 261 290 L 264 289 L 268 290 L 269 293 Q 279 304 294 310 L 317 315 L 331 314 L 346 310 Q 361 303 372 290 L 376 290 L 384 294 L 393 296 L 409 296 L 418 294 Q 429 290 438 283 Q 448 274 454 260 L 458 241 Q 457 215 444 202 L 429 190 L 417 186 Q 409 188 406 185 L 404 184 L 404 177 L 402 168 L 394 153 Q 382 135 357 130 L 341 130 L 326 134 L 323 132 Q 321 115 313 104 L 303 91 Q 291 78 274 71 L 252 66 L 237 66 Z " /><path fill="rgb(0,0,0)" stroke="rgb(0,0,0)" stroke-width="0" opacity="1" d="M 128.5 328 L 131.5 328 L 137 333.5 Q 151.7 351.3 161 374.5 L 164 385.5 L 164 405.5 Q 161.2 418.7 152.5 426 L 140.5 433 Q 132.6 435.6 120.5 434 Q 108.3 431.3 101 423.5 Q 91.3 414.7 91 396.5 L 94 380.5 L 103 360.5 Q 113.1 343.1 126.5 329 L 128.5 328 Z M 130 338 L 111 364 Q 103 375 100 392 L 100 404 L 106 417 Q 112 424 124 426 L 134 426 L 146 421 Q 154 415 156 404 L 156 389 L 152 374 Q 143 353 130 338 Z " /><path fill="rgb(0,0,0)" stroke="rgb(0,0,0)" stroke-width="0" opacity="1" d="M 374.5 328 Q 380.3 327.2 382 330.5 Q 395.3 346.7 405 366.5 L 411 384.5 L 412 400.5 L 408 415.5 L 397.5 428 L 384.5 434 L 369.5 434 Q 356 430.5 349 420.5 L 344 410.5 L 343 405.5 L 343 387.5 Q 352.2 351.2 374.5 328 Z M 377 338 L 359 366 L 351 390 L 351 405 L 356 416 Q 361 424 373 426 L 382 426 L 392 422 Q 401 416 403 404 L 403 388 L 399 374 Q 391 354 378 340 Q 379 337 377 338 Z " /><path fill="rgb(0,0,0)" stroke="rgb(0,0,0)" stroke-width="0" opacity="1" d="M 256.5 341 Q 262.1 341.5 264 345.5 Q 277.9 363.1 288 384.5 L 293 398.5 L 295 418.5 L 293 428.5 L 290 435.5 L 278.5 448 Q 272.5 452.5 263.5 454 L 251.5 454 Q 237.9 451.1 230 442.5 Q 223.5 436 221 425.5 L 220 410.5 L 224 392.5 L 234 371.5 L 254.5 342 L 256.5 341 Z M 258 352 L 238 382 L 233 393 L 229 408 L 229 423 L 235 436 L 245 443 L 257 446 L 271 443 L 277 439 Q 284 433 286 421 L 286 408 L 281 390 Q 272 369 259 354 Q 260 351 258 352 Z " /></svg>