<svg width="627" height="627" preserveAspectRatio="xMidYMid meet" viewBox="0 0 512 512" version="1.1" xmlns="http://www.w3.org/2000/svg" ><path fill="rgb(255,255,255)" stroke="rgb(255,255,255)" stroke-width="0" opacity="1" d="M 0 0 L 512 0 L 512 512 L 0 512 L 0 0 Z M 228 77 L 227 78 L 210 79 L 191 83 L 159 94 Q 127 108 104 130 Q 67 163 45 211 L 38 228 L 28 261 L 23 287 L 21 311 L 13 315 L 10 318 L 10 328 Q 13 329 12 327 Q 18 318 32 317 L 39 307 Q 48 296 65 293 L 83 293 L 101 301 L 114 316 Q 118 317 120 315 Q 134 314 142 321 Q 153 329 155 346 L 165 348 L 173 352 Q 182 359 185 373 L 185 382 L 183 390 L 178 398 Q 171 407 155 407 L 151 413 Q 145 421 133 423 L 123 423 L 116 421 Q 106 417 100 410 L 97 410 L 84 422 L 68 428 L 53 428 Q 43 426 37 421 L 29 413 L 26 404 L 10 405 L 10 413 L 21 413 L 24 420 L 37 431 L 47 435 L 58 436 L 59 437 L 78 434 Q 90 429 99 420 Q 106 429 121 431 Q 132 433 140 430 Q 148 427 154 421 Q 156 422 155 420 L 160 415 L 168 414 L 179 408 Q 189 400 193 385 Q 194 374 192 367 Q 190 357 184 352 Q 177 342 164 340 L 158 328 L 153 321 L 155 311 L 162 291 Q 169 276 179 264 Q 196 242 228 235 L 249 235 L 259 237 Q 272 242 283 250 Q 310 273 319 316 L 319 322 L 310 336 L 309 342 Q 301 343 295 348 Q 283 356 280 373 L 280 386 L 286 400 Q 294 411 312 414 L 314 418 Q 322 428 337 431 Q 347 432 354 430 Q 364 427 371 420 Q 381 431 399 436 Q 412 438 421 435 Q 431 432 438 426 Q 444 421 448 413 Q 449 410 451 412 L 470 412 Q 480 410 487 404 Q 499 395 502 377 L 501 360 L 494 345 Q 486 333 470 330 L 466 322 Q 462 315 455 313 L 453 286 L 448 258 L 435 218 L 415 179 L 401 159 L 380 136 L 380 134 L 379 134 L 362 118 L 342 104 L 311 89 L 275 79 L 258 78 L 257 77 L 228 77 Z " /><path fill="rgb(255,255,255)" stroke="rgb(255,255,255)" stroke-width="0" opacity="1" d="M 238.5 85 L 241.5 86 L 261.5 86 L 262.5 87 L 280.5 89 L 317.5 101 Q 354.4 118.1 380 146.5 Q 410 178.5 428 222.5 L 436 245.5 L 441 265.5 L 444 281.5 L 444 288.5 L 445 289.5 L 446 309 Q 440.4 310 439 305.5 L 433.5 298 Q 424.1 287.9 408 286 Q 392.4 205.9 339.5 162 Q 321 146.5 296.5 137 L 266.5 129 L 235.5 127 L 234.5 128 L 222.5 128 L 221.5 129 L 214.5 129 L 204.5 131 L 176.5 140 Q 143.8 154.3 121 178.5 Q 97.7 202.7 83 235.5 L 72 265.5 L 68 285 Q 42.8 287.1 31 303.5 L 30.5 305 L 30 296.5 L 36 262.5 L 40 247.5 L 54 210.5 Q 75.7 166.2 110.5 135 Q 136 111.5 171.5 98 L 189.5 92 L 207.5 88 L 220.5 87 L 221.5 86 L 237.5 86 L 238.5 85 Z " /><path fill="rgb(255,255,255)" stroke="rgb(255,255,255)" stroke-width="0" opacity="1" d="M 226.5 136 L 254.5 136 Q 256.3 138.8 262.5 137 L 281.5 141 L 296.5 146 Q 329.2 159.8 351 184.5 Q 370 205.5 383 232.5 L 393 257.5 L 399 285 Q 377.3 284.5 366.5 296 Q 353.3 236.2 313.5 203 Q 296 188.5 271.5 181 L 250.5 177 L 226.5 177 L 225.5 178 L 208.5 180 L 180.5 191 Q 161.3 201.8 147 217.5 Q 118.4 248.4 107.5 297 L 93.5 288 L 76 283.5 Q 91.9 214.9 136.5 175 Q 153.3 160.3 174.5 150 L 195.5 142 L 211.5 138 L 225.5 137 L 226.5 136 Z " /><path fill="rgb(255,255,255)" stroke="rgb(255,255,255)" stroke-width="0" opacity="1" d="M 229.5 185 L 255.5 186 L 278.5 192 Q 304.1 202.4 321 221.5 Q 349.8 252.2 359 302.5 L 355.5 307 L 339.5 308 L 327.5 314 L 323 297.5 L 312 272.5 Q 302.9 256.6 289.5 245 Q 277.6 234.4 260.5 229 L 245.5 226 L 231.5 226 L 212.5 230 L 197.5 237 Q 184.5 244.5 175 255.5 L 160 276.5 L 152 293.5 L 147 308.5 L 147 312.5 L 145.5 314 L 133.5 308 L 117.5 307 L 115 304.5 Q 126.1 244.6 164.5 212 Q 178 200.5 195.5 193 L 215.5 187 L 228.5 186 L 229.5 185 Z " /><path fill="rgb(255,255,255)" stroke="rgb(255,255,255)" stroke-width="0" opacity="1" d="M 391.5 293 L 405.5 293 L 415.5 296 Q 425.6 300.4 432 308.5 L 437.5 317 Q 454.3 316.7 460 327.5 L 465.5 337 L 474.5 339 L 484 345 L 492 358.5 L 494 367.5 L 494 374.5 Q 491.2 391.2 479.5 399 L 466.5 404 L 452.5 404 Q 450.7 401.3 444.5 403 L 439 412.5 L 430.5 421 L 421.5 426 L 413.5 428 L 401.5 428 Q 385 424.5 376 413.5 L 374.5 411 L 369.5 410 Q 360.9 423.4 338.5 423 Q 325.9 420.6 320 411.5 L 316.5 407 Q 299.4 405.1 292 393.5 L 288 382.5 L 288 373.5 Q 290.6 362.6 297.5 356 Q 302.5 350 313.5 350 L 316 347.5 Q 318.1 331.1 328.5 323 Q 337.1 314.6 354.5 315 L 359.5 316 L 372.5 301 Q 379.9 294.9 391.5 293 Z " /><path fill="rgb(0,0,0)" stroke="rgb(0,0,0)" stroke-width="0" opacity="1" d="M 227.5 77 L 256.5 77 L 257.5 78 L 274.5 79 L 310.5 89 L 341.5 104 L 361.5 118 L 378.5 134 L 380 134 L 380 135.5 L 401 158.5 L 415 178.5 L 435 217.5 L 448 257.5 L 453 285.5 L 455 313 Q 461.9 315.1 466 321.5 L 470 330 Q 486.1 332.5 494 344.5 L 501 359.5 L 502 376.5 Q 498.7 394.7 486.5 404 Q 479.7 409.7 469.5 412 L 450.5 412 Q 449.3 409.8 448 412.5 Q 444.4 420.9 437.5 426 Q 430.7 432.2 420.5 435 Q 411.8 437.8 398.5 436 Q 381 431.5 370.5 420 Q 363.9 426.9 353.5 430 Q 346.8 432.3 336.5 431 Q 321.8 427.8 314 417.5 L 311.5 414 Q 294.3 411.3 286 399.5 L 280 385.5 L 280 372.5 Q 283.1 356.1 294.5 348 Q 300.6 343.3 309 342 L 310 335.5 L 319 321.5 L 319 315.5 Q 310.4 273.1 282.5 250 Q 272.3 241.7 258.5 237 L 248.5 235 L 227.5 235 Q 195.8 241.8 179 263.5 Q 169 275.5 162 290.5 L 155 310.5 L 153 320.5 L 158 327.5 L 163.5 340 Q 177.2 342.3 184 351.5 Q 189.7 357.3 192 366.5 Q 194.4 373.6 193 384.5 Q 189.5 400 178.5 408 L 167.5 414 L 159.5 415 L 155 419.5 Q 155.8 421.8 153.5 421 Q 148.4 427.4 139.5 430 Q 132 432.5 120.5 431 Q 106.3 428.7 98.5 420 Q 90 429 77.5 434 L 58.5 437 L 57.5 436 L 46.5 435 L 36.5 431 L 24 419.5 L 21 413 L 10 413 L 10 405 L 25.5 404 L 29 412.5 L 36.5 421 Q 42.9 426.1 52.5 428 L 67.5 428 L 83.5 422 L 96.5 410 L 99.5 410 Q 105.7 417.3 115.5 421 L 122.5 423 L 132.5 423 Q 144.6 420.6 151 412.5 L 154.5 407 Q 170.9 406.9 178 397.5 L 183 389.5 L 185 381.5 L 185 372.5 Q 182.4 358.6 172.5 352 L 164.5 348 L 155 346 Q 153.4 328.9 141.5 321 Q 134.1 314.4 119.5 315 Q 118.2 317.3 113.5 316 L 100.5 301 L 82.5 293 L 64.5 293 Q 48.2 296.2 39 306.5 L 31.5 317 Q 17.8 317.8 12 326.5 Q 12.7 329.1 10 328 L 10 317.5 L 12.5 315 L 21 311 L 23 286.5 L 28 260.5 L 38 227.5 L 45 210.5 Q 67 163 103.5 130 Q 127 108 158.5 94 L 190.5 83 L 209.5 79 L 226.5 78 L 227.5 77 Z M 239 85 L 238 86 L 222 86 L 221 87 L 208 88 L 190 92 L 172 98 Q 136 112 111 135 Q 76 166 54 211 L 40 248 L 36 263 L 30 297 L 31 305 L 31 304 Q 43 287 68 285 L 72 266 L 83 236 Q 98 203 121 179 Q 144 154 177 140 L 205 131 L 215 129 L 222 129 L 223 128 L 235 128 L 236 127 L 267 129 L 297 137 Q 321 147 340 162 Q 392 206 408 286 Q 424 288 434 298 L 439 306 Q 440 310 446 309 L 445 290 L 444 289 L 444 282 L 441 266 L 436 246 L 428 223 Q 410 179 380 147 Q 354 118 318 101 L 281 89 L 263 87 L 262 86 L 242 86 L 239 85 Z M 227 136 L 226 137 L 212 138 L 196 142 L 175 150 Q 153 160 137 175 Q 92 215 76 284 L 94 288 L 108 297 Q 118 248 147 218 Q 161 202 181 191 L 209 180 L 226 178 L 227 177 L 251 177 L 272 181 Q 296 188 314 203 Q 353 236 367 296 Q 377 284 399 285 L 393 258 L 383 233 Q 370 205 351 185 Q 329 160 297 146 L 282 141 L 263 137 Q 256 139 255 136 L 227 136 Z M 230 185 L 229 186 L 216 187 L 196 193 Q 178 200 165 212 Q 126 245 115 305 L 118 307 L 134 308 L 146 314 L 147 313 L 147 309 L 152 294 L 160 277 L 175 256 Q 185 245 198 237 L 213 230 L 232 226 L 246 226 L 261 229 Q 278 234 290 245 Q 303 257 312 273 L 323 298 L 328 314 L 340 308 L 356 307 L 359 303 Q 350 252 321 222 Q 304 202 279 192 L 256 186 L 230 185 Z M 392 293 Q 380 295 373 301 L 360 316 L 355 315 Q 337 315 329 323 Q 318 331 316 348 L 314 350 Q 302 350 298 356 Q 291 363 288 374 L 288 383 L 292 394 Q 299 405 317 407 L 320 412 Q 326 421 339 423 Q 361 423 370 410 L 375 411 L 376 414 Q 385 425 402 428 L 414 428 L 422 426 L 431 421 L 439 413 L 445 403 Q 451 401 453 404 L 467 404 L 480 399 Q 491 391 494 375 L 494 368 L 492 359 L 484 345 L 475 339 L 466 337 L 460 328 Q 454 317 438 317 L 432 309 Q 426 300 416 296 L 406 293 L 392 293 Z " /></svg>