<svg width="627" height="627" preserveAspectRatio="xMidYMid meet" viewBox="0 0 512 512" version="1.1" xmlns="http://www.w3.org/2000/svg" ><path fill="rgb(255,255,255)" stroke="rgb(255,255,255)" stroke-width="0.6" opacity="1" d="M 0 0 L 512 0 L 512 512 L 0 512 L 0 0 Z M 267 34 L 266 35 L 235 35 L 232 36 L 194 65 L 127 107 Q 119 112 116 121 L 116 192 L 119 199 Q 124 206 134 209 L 149 209 L 165 202 L 206 175 L 206 378 L 205 380 L 201 383 L 166 383 L 156 387 Q 149 392 146 401 L 146 462 L 150 470 Q 156 477 169 479 L 179 478 L 380 478 L 389 473 L 396 463 L 397 458 L 397 404 L 396 399 L 391 391 L 380 383 L 349 383 L 347 382 L 343 379 L 343 56 L 340 47 Q 335 36 322 34 L 267 34 Z " /><path fill="rgb(224,68,63)" stroke="rgb(224,68,63)" stroke-width="0.6" opacity="1" d="M 242.5 46 L 319.5 46 L 328 52.5 L 331 58.5 L 331 383.5 L 335 390 L 344.5 395 L 374.5 395 L 382 400.5 L 385 408.5 L 385 454.5 L 377.5 465 L 372.5 467 L 170.5 467 L 159 459.5 L 157 454.5 L 157 408.5 L 161.5 399 L 168.5 395 L 206.5 395 L 216 387.5 L 218 382.5 L 218 164.5 L 214.5 158 L 205.5 158 Q 182.7 179.2 153.5 194 L 144.5 197 L 138.5 197 L 130 191.5 L 127 184.5 L 127 126.5 L 132.5 118 L 179.5 90 L 231.5 51 L 242.5 46 Z " /><path fill="rgb(0,0,0)" stroke="rgb(0,0,0)" stroke-width="0.6" opacity="1" d="M 268.5 34 L 318.5 34 Q 332.7 36.8 339 47.5 L 343 59.5 L 343 371.5 L 342 378.5 L 345.5 383 L 375.5 383 Q 385.9 385.1 391 392.5 L 397 407.5 L 397 453.5 Q 394.9 466.4 386.5 473 L 376.5 478 L 168.5 478 Q 156.6 476.4 151 468.5 L 146 458.5 L 146 403.5 Q 148.8 393.3 156.5 388 L 168.5 383 L 202.5 383 L 206 379.5 L 206 174.5 L 203.5 174 Q 188.4 187.9 169.5 198 L 148.5 208 L 136.5 209 L 122 200.5 L 116 188.5 L 116 123.5 Q 118.8 114.3 125.5 109 L 192.5 67 L 230.5 38 L 238.5 35 L 267.5 35 L 268.5 34 Z M 241 46 L 232 50 L 178 90 L 134 116 L 127 125 L 127 188 L 129 193 L 139 198 L 145 198 L 156 194 Q 184 180 207 159 L 214 159 L 218 167 L 218 380 L 215 388 L 204 395 L 167 395 L 163 397 L 157 405 L 157 457 L 159 462 L 169 467 L 375 467 L 380 465 L 385 457 L 385 406 L 382 399 L 378 395 L 347 395 L 340 392 Q 333 388 331 381 L 331 57 L 329 53 L 322 46 L 241 46 Z " /><path fill="rgb(39,39,39)" stroke="rgb(39,39,39)" stroke-width="0.6" opacity="1" d="M 330.5 38 L 338.5 47 L 330.5 38 Z " /><path fill="rgb(221,221,221)" stroke="rgb(221,221,221)" stroke-width="0.6" opacity="1" d="M 331.5 38 L 338.5 46 L 331.5 38 Z " /></svg>