<svg width="627" height="627" preserveAspectRatio="xMidYMid meet" viewBox="0 0 512 512" version="1.1" xmlns="http://www.w3.org/2000/svg" ><path fill="rgb(255,255,255)" stroke="rgb(255,255,255)" stroke-width="0.6" opacity="1" d="M 0 0 L 512 0 L 512 512 L 0 512 L 0 0 Z M 257 27 L 251 30 L 239 45 L 216 90 L 212 89 L 170 62 L 155 56 L 147 57 Q 139 62 137 73 L 137 116 L 139 120 Q 141 130 138 134 L 106 134 L 105 133 L 73 133 L 65 136 L 59 145 Q 58 153 61 159 L 89 202 L 91 210 L 88 213 L 52 230 L 41 237 L 31 249 Q 29 260 35 265 L 53 277 L 85 292 L 88 296 L 87 303 L 63 337 L 56 352 L 57 366 L 62 370 L 73 374 L 113 374 L 117 372 Q 127 371 130 377 L 130 395 L 128 412 L 128 436 L 131 445 L 140 451 Q 150 452 157 449 L 195 428 L 204 426 L 210 434 L 236 476 Q 240 482 249 485 Q 260 487 265 482 L 273 474 L 295 438 L 307 427 L 315 427 L 345 444 L 364 452 L 375 451 Q 382 444 384 432 L 384 405 L 386 379 L 390 375 L 435 375 L 445 374 L 453 370 L 458 363 Q 459 347 452 339 L 425 300 L 430 295 Q 454 285 475 271 Q 481 267 483 259 L 481 249 L 468 236 L 424 214 L 427 205 L 451 172 L 457 156 L 455 148 Q 450 140 440 139 L 385 138 L 378 135 Q 376 124 380 120 L 381 92 L 383 89 Q 384 76 381 69 L 373 61 L 356 63 L 321 83 L 304 90 L 293 75 L 272 33 Q 268 26 257 27 Z " /><path fill="rgb(247,193,45)" stroke="rgb(247,193,45)" stroke-width="0.6" opacity="1" d="M 243.5 113 L 273.5 113 L 275.5 115 Q 286.9 114.1 294.5 117 L 311.5 123 Q 341.1 135.4 361 157.5 Q 382.8 179.7 394 212.5 L 401 242.5 L 401 279.5 L 398 295.5 L 388 325.5 L 383 335.5 Q 370.2 358.2 351.5 375 Q 330.6 393.6 301.5 404 Q 278 412 244.5 410 Q 179.8 398.8 146 356.5 Q 127.7 334.8 118 304.5 L 113 281.5 L 113 254.5 L 112 252.5 L 114 250.5 L 114 235.5 L 119 215.5 L 128 194.5 Q 140.9 168.4 161.5 150 Q 191.8 120.8 243.5 113 Z M 198 220 L 196 221 Q 187 228 184 241 L 184 254 L 190 267 L 199 273 L 212 272 Q 219 266 222 256 Q 224 239 219 230 L 209 220 L 198 220 Z M 306 220 L 304 221 Q 294 228 292 242 Q 290 257 296 266 Q 300 272 309 274 Q 317 275 321 271 Q 328 265 330 254 Q 332 238 327 230 L 318 220 L 306 220 Z M 212 300 L 208 304 L 216 321 Q 228 336 251 340 L 271 339 Q 283 336 291 329 Q 302 321 307 307 L 306 302 Q 305 299 300 300 L 290 316 Q 281 326 266 330 L 248 329 L 230 320 Q 221 314 218 304 L 212 300 Z " /><path fill="rgb(247,193,45)" stroke="rgb(247,193,45)" stroke-width="0.6" opacity="1" d="M 309.5 229 Q 317 228 318 233.5 L 320 243.5 L 317.5 244 L 304 237.5 L 307.5 230 L 309.5 229 Z " /><path fill="rgb(240,139,42)" stroke="rgb(240,139,42)" stroke-width="0.6" opacity="1" d="M 257.5 39 Q 264.3 38.3 265 43.5 L 288 88.5 L 299.5 101 L 304.5 102 L 323.5 94 L 360.5 73 L 369.5 73 Q 374.3 76.7 372 87.5 L 371 100.5 L 369 103.5 L 368 138.5 L 374.5 146 L 383.5 148 L 428.5 148 Q 431.7 151.8 440.5 150 L 445 154.5 L 442 165.5 L 415 203.5 Q 411.7 208.2 413 217.5 L 416.5 222 L 458.5 243 L 471 254.5 L 471 258.5 L 466.5 264 Q 448.3 276.8 425.5 285 L 416 293.5 L 415 304.5 L 444 347.5 L 447 354.5 L 447 359.5 L 441.5 364 L 432.5 365 L 385.5 365 L 378 370.5 L 374 385.5 L 374 424.5 Q 370.2 427.7 372 436.5 L 368.5 441 L 359.5 439 L 317.5 416 L 307.5 415 Q 296.5 417 291 424.5 L 267 463.5 L 257.5 474 Q 245.6 473.9 242 465.5 L 218 426.5 L 208.5 416 L 199.5 415 L 180.5 423 L 153.5 439 L 142.5 440 L 138 432.5 L 138 415.5 Q 141.5 396.5 140 372.5 L 135.5 365 Q 129.7 359.8 116.5 362 L 115.5 363 L 79.5 363 L 77.5 364 L 69.5 362 L 66 358.5 L 74 340.5 L 98 305.5 L 99 292.5 L 92.5 284 L 54.5 265 L 42 255.5 L 42 251.5 L 48.5 245 L 92.5 223 L 102 214.5 L 103 206.5 L 74 160.5 L 70 151.5 L 70 147.5 Q 72 143.4 77.5 143 L 100.5 143 L 117.5 145 L 140.5 145 L 148 139.5 L 149 116.5 L 148 115.5 L 148 82.5 L 147 79.5 L 149 77.5 Q 147.8 70.3 151.5 68 L 168.5 74 L 208.5 100 L 218.5 101 L 227 94.5 L 246 55.5 L 257.5 39 Z M 238 103 Q 189 111 159 138 Q 138 155 124 179 L 108 215 L 103 235 L 103 248 L 102 249 L 102 279 L 107 305 Q 118 341 140 366 Q 175 408 240 420 L 279 420 L 302 415 L 325 406 L 355 386 Q 381 364 397 331 L 409 296 L 412 268 L 411 237 L 402 203 Q 391 176 374 156 Q 349 126 311 111 L 280 103 L 238 103 Z " /><path fill="rgb(240,139,42)" stroke="rgb(240,139,42)" stroke-width="0.6" opacity="1" d="M 184.5 240 L 185 253.5 L 184 253.5 L 184.5 240 Z " /><path fill="rgb(0,0,0)" stroke="rgb(0,0,0)" stroke-width="0.6" opacity="1" d="M 256.5 28 Q 269 26.5 272 34.5 L 293 76.5 L 303.5 91 L 320.5 84 L 355.5 64 L 372.5 62 L 379 67.5 Q 384.1 74.4 382 88.5 L 381 99.5 L 379 103.5 L 378 135.5 L 381.5 138 L 436.5 139 L 448.5 143 L 455 149.5 L 456 157.5 L 449 172.5 L 426 204.5 L 423 213.5 L 426.5 217 L 465.5 236 L 479 247.5 Q 483 251 482 259.5 L 475.5 269 L 458.5 280 L 425 297.5 L 425 302.5 Q 442.4 323.6 456 348.5 L 457 362.5 L 452.5 369 L 442.5 374 L 387.5 375 L 386 376.5 L 385 378.5 L 385 401.5 L 383 406.5 L 383 433.5 Q 381 445.5 372.5 451 L 362.5 451 L 314.5 426 L 305.5 426 L 295 435.5 L 273 471.5 L 261.5 483 L 251.5 485 Q 242.4 483.1 238 476.5 L 205.5 426 L 199.5 425 L 156.5 448 L 147.5 451 L 142.5 451 L 133 445.5 L 128 433.5 L 128 413.5 L 130 396.5 L 130 374.5 Q 126.2 369.8 116.5 371 L 113.5 373 L 79.5 373 L 75.5 374 L 63.5 370 L 57 363.5 L 57 351.5 L 65 335.5 L 88 302.5 L 89 294.5 L 51.5 275 L 34 261.5 Q 30.2 258.3 31 250.5 L 39.5 239 L 87.5 214 L 92 209.5 L 89 199.5 L 61 156.5 L 60 144.5 L 65.5 137 L 74.5 133 L 102.5 133 L 107.5 135 L 137.5 135 L 139 133.5 L 139 117.5 L 138 116.5 L 138 79.5 L 137 76.5 Q 138.3 63.8 146.5 58 L 155.5 57 L 172.5 65 L 206.5 87 L 215.5 91 L 219 87.5 L 239 46.5 L 250.5 31 L 256.5 28 Z M 258 38 Q 249 45 245 56 L 226 95 L 218 101 L 207 98 L 169 73 L 152 67 L 148 72 L 147 79 L 147 113 L 149 118 Q 151 131 147 140 L 140 145 L 119 145 L 102 143 L 74 143 L 70 147 Q 69 156 73 161 L 102 206 L 101 215 L 93 222 L 49 244 L 41 252 L 41 256 L 55 266 L 93 285 L 98 293 L 98 304 L 71 344 L 66 355 L 66 360 Q 68 364 74 364 L 113 364 L 114 363 L 130 363 L 134 365 L 140 375 Q 141 397 138 415 L 139 439 L 143 441 L 154 440 L 181 424 L 200 416 L 209 417 L 217 427 L 243 469 L 252 475 L 258 475 L 268 464 L 292 425 Q 297 418 307 416 L 318 417 L 360 440 L 370 441 L 373 436 Q 372 426 375 422 L 375 383 L 379 371 L 390 365 L 434 365 L 444 364 L 447 361 Q 448 350 444 346 L 416 304 L 416 295 L 426 286 Q 448 278 467 265 Q 472 263 472 255 L 459 242 L 420 223 L 413 215 L 416 204 L 442 168 Q 446 163 445 154 L 440 149 L 388 148 L 375 145 L 368 138 L 368 124 L 370 121 L 371 90 L 373 88 Q 375 76 370 72 L 359 73 Q 334 89 306 101 L 300 100 L 289 89 L 265 42 L 261 38 L 258 38 Z " /><path fill="rgb(0,0,0)" stroke="rgb(0,0,0)" stroke-width="0.6" opacity="1" d="M 241.5 103 L 274.5 103 L 308.5 111 Q 347 126 372 154.5 Q 390.8 175.7 402 204.5 L 410 234.5 L 411 279.5 L 408 296.5 L 397 328.5 L 390 342.5 Q 376 366.5 355.5 384 L 325.5 404 L 302.5 414 L 274.5 420 L 243.5 420 L 217.5 415 L 186.5 402 Q 161.5 388 143 367.5 Q 123.4 346.6 112 317.5 L 103 281.5 L 103 252.5 L 102 250.5 L 104 246.5 L 104 233.5 L 109 213.5 L 125 178.5 Q 138.6 156.6 157.5 140 Q 175.8 124.3 199.5 114 L 216.5 108 L 241.5 103 Z M 239 113 Q 191 121 163 148 Q 141 166 128 193 L 118 216 L 113 237 L 113 251 L 112 252 L 112 280 L 119 311 Q 130 341 150 363 Q 182 399 241 410 L 279 410 L 305 404 Q 331 394 351 377 Q 375 356 389 326 L 399 296 L 402 269 L 402 245 L 394 210 Q 383 180 364 160 Q 342 134 309 121 L 285 114 L 239 113 Z " /><path fill="rgb(0,0,0)" stroke="rgb(0,0,0)" stroke-width="0.6" opacity="1" d="M 199.5 220 L 208.5 221 L 218 229.5 L 221 238.5 L 222 251.5 Q 219.9 264.4 211.5 271 Q 208.2 274.2 200.5 273 L 191 266.5 L 185 253.5 L 185 240.5 Q 187.5 228.5 195.5 222 L 199.5 220 Z M 203 228 L 201 229 L 195 237 Q 193 244 197 246 L 211 238 L 210 233 Q 208 228 203 228 Z " /><path fill="rgb(0,0,0)" stroke="rgb(0,0,0)" stroke-width="0.6" opacity="1" d="M 307.5 220 L 317.5 221 L 326 229.5 Q 331 238.5 329 254.5 Q 327.4 263.9 321.5 269 Q 317.8 274.3 307.5 273 L 298 266.5 Q 290.7 258.3 293 240.5 Q 295.5 228.5 303.5 222 L 307.5 220 Z M 311 228 L 308 229 L 303 238 L 317 245 L 321 243 Q 321 235 317 231 L 311 228 Z " /><path fill="rgb(0,0,0)" stroke="rgb(0,0,0)" stroke-width="0.6" opacity="1" d="M 301.5 300 L 306 303.5 L 305 309.5 L 292.5 326 Q 284.2 334.2 271.5 338 L 249.5 339 Q 228.4 334.6 217 320.5 L 209 303.5 L 213.5 301 L 217 303.5 Q 220.8 314.8 229.5 321 L 248.5 330 L 268.5 330 Q 282.9 325.9 291 315.5 Q 294.1 305.6 301.5 300 Z " /><path fill="rgb(30,30,30)" stroke="rgb(30,30,30)" stroke-width="0.6" opacity="1" d="M 150.5 362 L 158.5 371 L 150.5 362 Z " /><path fill="rgb(30,30,30)" stroke="rgb(30,30,30)" stroke-width="0.6" opacity="1" d="M 57.5 364 L 62.5 370 L 57.5 364 Z " /><path fill="rgb(30,30,30)" stroke="rgb(30,30,30)" stroke-width="0.6" opacity="1" d="M 271.5 473 L 264.5 481 L 271.5 473 Z " /><path fill="rgb(61,61,46)" stroke="rgb(61,61,46)" stroke-width="0.6" opacity="1" d="M 366.5 373 L 361.5 379 L 366.5 373 Z " /><path fill="rgb(93,94,49)" stroke="rgb(93,94,49)" stroke-width="0.6" opacity="1" d="M 153.5 143 L 145.5 152 L 153.5 143 Z " /><path fill="rgb(128,126,42)" stroke="rgb(128,126,42)" stroke-width="0.6" opacity="1" d="M 47.5 245 L 41.5 252 L 47.5 245 Z " /><path fill="rgb(128,126,42)" stroke="rgb(128,126,42)" stroke-width="0.6" opacity="1" d="M 359.5 367 L 354.5 373 L 359.5 367 Z " /><path fill="rgb(205,183,44)" stroke="rgb(205,183,44)" stroke-width="0.6" opacity="1" d="M 149.5 360 L 160.5 372 L 149.5 360 Z " /><path fill="rgb(231,231,231)" stroke="rgb(231,231,231)" stroke-width="0.6" opacity="1" d="M 272.5 473 L 264.5 482 L 272.5 473 Z " /><path fill="rgb(91,151,191)" stroke="rgb(91,151,191)" stroke-width="0.6" opacity="1" d="M 201.5 229 Q 207.3 228.2 209 231.5 L 210 239 L 196 245 L 195 236.5 L 201.5 229 Z " /></svg>