<svg width="627" height="627" preserveAspectRatio="xMidYMid meet" viewBox="0 0 512 512" version="1.1" xmlns="http://www.w3.org/2000/svg" ><path fill="rgb(255,255,255)" stroke="rgb(255,255,255)" stroke-width="0.6" opacity="1" d="M 0 0 L 512 0 L 512 512 L 0 512 L 0 0 Z M 247 72 L 224 74 L 202 80 Q 180 88 165 101 Q 149 114 138 133 L 129 156 Q 131 164 127 168 Q 126 186 134 197 Q 143 209 163 212 L 181 212 L 196 206 L 208 193 Q 211 178 219 169 Q 228 156 247 153 L 258 153 L 273 159 Q 281 166 284 178 L 284 194 L 279 209 L 258 240 L 215 282 L 139 358 Q 129 369 125 386 L 125 412 L 131 425 Q 139 436 156 439 L 358 439 L 373 432 L 384 418 L 388 399 L 385 379 L 380 370 L 371 361 L 359 357 L 349 356 L 261 356 L 260 355 L 297 322 Q 328 293 353 258 L 369 226 L 375 201 L 375 165 L 371 146 Q 364 124 350 109 Q 333 89 307 79 L 289 74 L 280 74 L 277 72 L 247 72 Z " /><path fill="rgb(224,68,63)" stroke="rgb(224,68,63)" stroke-width="0.6" opacity="1" d="M 244.5 81 L 278.5 82 L 303.5 88 Q 330 98 346 118.5 Q 368.4 142.1 366 190.5 L 365 191.5 L 365 204.5 L 362 216.5 L 348 248.5 L 323 281.5 L 276.5 328 L 241 360.5 L 242.5 366 L 357.5 366 Q 366.1 367.9 371 373.5 Q 380.5 383 378 404.5 Q 375.8 418.3 366.5 425 L 354.5 430 L 158.5 430 Q 144.9 428.6 139 419.5 L 133 405.5 L 133 393.5 L 137 379.5 L 149 361.5 L 225.5 285 L 258 253.5 L 278 229.5 L 288 212.5 L 293 197.5 L 293 174.5 Q 289.6 159.9 279.5 152 Q 270 143 250.5 144 Q 223.7 145.7 212 162.5 L 199 189.5 L 192.5 197 Q 183.3 205.3 163.5 203 Q 147.9 201.1 141 190.5 L 137 181.5 L 137 163.5 Q 144.4 130.4 166.5 112 Q 182.8 97.3 205.5 89 L 228.5 83 L 241.5 83 L 244.5 81 Z " /><path fill="rgb(0,0,0)" stroke="rgb(0,0,0)" stroke-width="0.6" opacity="1" d="M 248.5 72 L 250.5 73 L 276.5 73 L 279.5 75 L 289.5 75 L 308.5 81 Q 335.3 91.7 352 112.5 Q 376.9 140.6 375 195.5 L 368 224.5 L 351 258.5 Q 324.4 295.9 290.5 326 L 257 355.5 L 258.5 357 L 354.5 357 Q 371.8 359.8 380 371.5 L 386 386.5 L 387 401.5 L 382 418.5 L 370.5 432 L 353.5 439 L 159.5 439 Q 140.4 435.6 131 422.5 Q 122 411.5 125 388.5 Q 129.2 372.2 138 360.5 L 237.5 261 L 255 244.5 Q 269.3 228.8 280 209.5 L 284 197.5 L 284 173.5 Q 280.2 162.8 271.5 157 L 260.5 153 L 242.5 153 Q 227.7 156.7 219 166.5 Q 210.5 176.5 207 191.5 L 194.5 205 L 180.5 211 L 162.5 211 Q 145.7 208.8 137 198.5 Q 126.7 188.8 128 167.5 L 130 164.5 L 131 152.5 L 141 129.5 Q 149.9 114.9 162.5 104 Q 177.1 91.1 196.5 83 L 223.5 75 L 233.5 75 L 236.5 73 L 248.5 72 Z M 244 81 L 243 82 L 230 82 L 206 88 Q 184 96 168 110 Q 145 128 137 160 L 137 184 L 142 194 Q 148 200 159 203 L 183 203 L 193 198 L 200 190 L 214 162 L 229 150 L 239 146 L 251 145 Q 272 144 282 155 Q 289 163 292 175 L 292 199 L 287 213 L 279 227 L 256 255 L 241 269 L 147 363 L 136 380 L 133 391 L 133 408 L 138 420 Q 143 427 154 430 L 357 430 L 367 426 Q 377 419 379 404 Q 381 384 373 375 L 362 366 L 246 366 L 244 365 L 242 361 L 273 333 L 325 281 L 347 252 Q 357 236 363 217 L 366 204 L 366 191 L 367 190 Q 369 144 349 121 Q 332 98 304 87 L 283 82 L 244 81 Z " /><path fill="rgb(35,35,35)" stroke="rgb(35,35,35)" stroke-width="0.6" opacity="1" d="M 251.5 247 L 246.5 253 L 251.5 247 Z " /><path fill="rgb(35,35,35)" stroke="rgb(35,35,35)" stroke-width="0.6" opacity="1" d="M 233.5 276 L 227.5 283 L 233.5 276 Z " /><path fill="rgb(35,35,35)" stroke="rgb(35,35,35)" stroke-width="0.6" opacity="1" d="M 208.5 289 L 142.5 356 L 208.5 289 Z " /><path fill="rgb(17,17,17)" stroke="rgb(17,17,17)" stroke-width="0.6" opacity="1" d="M 245.5 253 L 238.5 261 L 245.5 253 Z " /><path fill="rgb(17,17,17)" stroke="rgb(17,17,17)" stroke-width="0.6" opacity="1" d="M 240.5 269 L 234.5 276 L 240.5 269 Z " /><path fill="rgb(17,17,17)" stroke="rgb(17,17,17)" stroke-width="0.6" opacity="1" d="M 313.5 303 L 301.5 316 L 313.5 303 Z " /><path fill="rgb(125,67,62)" stroke="rgb(125,67,62)" stroke-width="0.6" opacity="1" d="M 164.5 113 L 158.5 120 L 164.5 113 Z " /><path fill="rgb(125,67,62)" stroke="rgb(125,67,62)" stroke-width="0.6" opacity="1" d="M 321.5 283 L 280.5 325 L 321.5 283 Z " /><path fill="rgb(125,67,62)" stroke="rgb(125,67,62)" stroke-width="0.6" opacity="1" d="M 213.5 296 L 149.5 361 L 213.5 296 Z " /><path fill="rgb(63,60,58)" stroke="rgb(63,60,58)" stroke-width="0.6" opacity="1" d="M 214.5 283 L 209.5 289 L 214.5 283 Z " /><path fill="rgb(63,60,58)" stroke="rgb(63,60,58)" stroke-width="0.6" opacity="1" d="M 226.5 283 L 219.5 291 L 226.5 283 Z " /><path fill="rgb(199,67,62)" stroke="rgb(199,67,62)" stroke-width="0.6" opacity="1" d="M 279.5 152 L 284.5 158 L 279.5 152 Z " /><path fill="rgb(199,67,62)" stroke="rgb(199,67,62)" stroke-width="0.6" opacity="1" d="M 243.5 267 L 226.5 285 L 243.5 267 Z " /><path fill="rgb(199,67,62)" stroke="rgb(199,67,62)" stroke-width="0.6" opacity="1" d="M 262.5 340 L 257.5 346 L 262.5 340 Z " /><path fill="rgb(88,79,78)" stroke="rgb(88,79,78)" stroke-width="0.6" opacity="1" d="M 221.5 276 L 215.5 283 L 221.5 276 Z " /><path fill="rgb(224,224,224)" stroke="rgb(224,224,224)" stroke-width="0.6" opacity="1" d="M 252.5 245 L 244.5 254 L 252.5 245 Z " /><path fill="rgb(224,224,224)" stroke="rgb(224,224,224)" stroke-width="0.6" opacity="1" d="M 207.5 289 L 142.5 355 L 207.5 289 Z " /><path fill="rgb(224,224,224)" stroke="rgb(224,224,224)" stroke-width="0.6" opacity="1" d="M 323.5 356 L 336 356.5 L 323.5 357 L 323.5 356 Z " /><path fill="rgb(242,242,242)" stroke="rgb(242,242,242)" stroke-width="0.6" opacity="1" d="M 214.5 282 L 208.5 289 L 214.5 282 Z " /><path fill="rgb(242,242,242)" stroke="rgb(242,242,242)" stroke-width="0.6" opacity="1" d="M 336.5 356 L 349 356.5 L 336.5 357 L 336.5 356 Z " /><path fill="rgb(165,67,62)" stroke="rgb(165,67,62)" stroke-width="0.6" opacity="1" d="M 336.5 108 L 341.5 114 L 336.5 108 Z " /><path fill="rgb(165,67,62)" stroke="rgb(165,67,62)" stroke-width="0.6" opacity="1" d="M 250.5 260 L 244.5 267 L 250.5 260 Z " /><path fill="rgb(123,123,123)" stroke="rgb(123,123,123)" stroke-width="0.6" opacity="1" d="M 227.5 270 L 222.5 276 L 227.5 270 Z " /><path fill="rgb(123,123,123)" stroke="rgb(123,123,123)" stroke-width="0.6" opacity="1" d="M 258.5 355 L 270 356.5 L 259.5 357 L 258.5 355 Z " /><path fill="rgb(159,159,159)" stroke="rgb(159,159,159)" stroke-width="0.6" opacity="1" d="M 233.5 264 L 228.5 270 L 233.5 264 Z " /><path fill="rgb(159,159,159)" stroke="rgb(159,159,159)" stroke-width="0.6" opacity="1" d="M 270.5 356 L 296 356.5 L 270.5 357 L 270.5 356 Z " /><path fill="rgb(186,186,186)" stroke="rgb(186,186,186)" stroke-width="0.6" opacity="1" d="M 239.5 258 L 234.5 264 L 239.5 258 Z " /><path fill="rgb(186,186,186)" stroke="rgb(186,186,186)" stroke-width="0.6" opacity="1" d="M 296.5 356 L 310 356.5 L 296.5 357 L 296.5 356 Z " /><path fill="rgb(206,206,206)" stroke="rgb(206,206,206)" stroke-width="0.6" opacity="1" d="M 314.5 303 L 309.5 309 L 314.5 303 Z " /><path fill="rgb(206,206,206)" stroke="rgb(206,206,206)" stroke-width="0.6" opacity="1" d="M 310.5 356 L 323 356.5 L 310.5 357 L 310.5 356 Z " /></svg>