<svg width="627" height="627" preserveAspectRatio="xMidYMid meet" viewBox="0 0 512 512" version="1.1" xmlns="http://www.w3.org/2000/svg" ><path fill="rgb(255,255,255)" stroke="rgb(255,255,255)" stroke-width="0.6" opacity="1" d="M 0 0 L 512 0 L 512 512 L 0 512 L 0 0 Z M 252 50 L 240 51 L 226 55 L 209 65 Q 201 70 197 80 L 194 83 Q 174 85 161 94 L 138 110 Q 112 131 101 167 L 101 192 L 112 212 Q 130 232 158 244 L 193 255 L 214 257 L 239 257 L 272 249 Q 296 239 315 223 L 319 218 L 339 199 L 349 215 Q 363 230 388 235 Q 398 236 404 233 L 410 224 L 410 201 L 407 192 Q 401 177 389 168 L 401 151 L 409 129 Q 411 114 407 106 L 400 99 L 381 100 L 362 110 Q 346 121 339 141 L 337 142 L 326 130 L 308 111 L 280 92 L 295 73 L 296 64 Q 282 48 252 50 Z M 258 264 Q 244 266 234 271 L 224 279 L 225 287 L 241 306 L 219 320 L 194 345 L 188 348 Q 183 333 173 323 L 159 310 L 140 303 Q 130 302 124 305 L 117 315 Q 115 354 137 371 L 122 393 L 116 413 Q 115 425 119 432 L 128 438 Q 141 439 150 436 L 174 421 L 187 405 Q 206 427 232 443 L 258 455 L 283 461 L 318 461 L 342 456 Q 368 448 387 432 L 405 413 L 412 397 L 412 376 L 407 359 Q 399 340 386 327 Q 374 313 358 304 L 340 297 L 331 296 L 321 283 Q 303 259 258 264 Z " /><path fill="rgb(1,1,1)" stroke="rgb(1,1,1)" stroke-width="0.6" opacity="1" d="M 251.5 51 Q 281.8 48.8 295 63.5 L 294 72.5 Q 284 80 279 92.5 Q 304.6 106.4 323 127.5 L 336.5 143 Q 340.3 144.3 339 140.5 Q 346.9 123.4 360.5 112 Q 369.5 104 382.5 100 L 399.5 100 L 406 105.5 Q 410.5 112 409 124.5 Q 404.1 151.6 387 166.5 Q 400 177 407 193.5 L 410 203.5 L 410 220.5 Q 408.5 228.1 403.5 232 Q 397.7 235.7 386.5 234 Q 360.5 228.5 347 210.5 L 338.5 197 L 309.5 226 L 278.5 245 L 259.5 252 L 240.5 256 L 217.5 256 L 215.5 257 L 204.5 256 L 201.5 254 L 191.5 254 L 159.5 244 Q 129.4 231.1 110 207.5 L 101 188.5 L 101 169.5 Q 111.3 133.3 136.5 112 L 160.5 95 Q 173.5 86 193.5 84 L 198 79.5 L 207.5 67 L 224.5 56 L 237.5 52 L 250.5 52 L 251.5 51 Z M 242 59 L 230 62 L 214 72 L 207 80 L 209 82 L 214 80 L 235 80 L 237 82 L 249 82 L 273 89 L 287 72 L 288 68 Q 283 60 272 59 L 242 59 Z M 208 88 L 198 89 L 189 94 Q 202 104 209 121 L 215 137 L 219 156 Q 222 176 216 189 Q 215 194 218 195 L 236 189 L 253 189 L 266 194 L 270 200 L 269 211 L 258 229 Q 253 236 243 238 Q 216 238 205 222 L 193 239 L 189 242 L 187 246 L 204 249 Q 231 251 253 247 Q 286 238 310 218 L 340 186 L 346 173 L 344 163 L 321 136 Q 300 111 271 96 L 258 91 L 243 88 L 208 88 Z M 180 94 Q 154 102 139 120 Q 117 139 108 171 Q 106 187 111 196 L 122 200 L 139 200 L 154 191 L 155 197 Q 149 204 138 206 L 124 206 L 123 205 L 118 207 Q 140 232 178 243 L 181 243 L 186 239 L 201 219 L 211 194 L 213 183 L 213 152 L 211 142 Q 206 121 195 107 L 183 94 L 180 94 Z M 388 106 Q 373 109 365 118 Q 350 130 343 150 L 343 153 L 351 166 L 351 176 L 344 189 L 344 194 L 353 208 Q 367 224 394 227 Q 402 228 403 223 Q 405 196 394 184 L 383 173 Q 377 172 378 166 L 383 162 Q 396 150 401 130 L 400 109 Q 397 103 388 106 Z M 239 195 Q 225 196 216 202 L 208 214 L 208 217 Q 216 227 231 231 Q 245 233 251 227 Q 261 219 263 202 Q 255 194 239 195 Z " /><path fill="rgb(1,1,1)" stroke="rgb(1,1,1)" stroke-width="0.6" opacity="1" d="M 163.5 138 Q 175.6 137.9 180 145.5 Q 184.4 151.1 184 161.5 Q 182.1 173.1 173.5 178 Q 170.2 181.2 162.5 180 Q 154.6 177.9 151 171.5 L 148 162.5 L 148 156.5 Q 149.6 145.6 157.5 141 L 163.5 138 Z M 165 143 L 159 146 L 154 155 Q 157 151 167 152 L 173 161 Q 175 169 171 172 L 174 173 L 179 163 Q 180 154 177 150 L 171 143 L 165 143 Z " /><path fill="rgb(1,1,1)" stroke="rgb(1,1,1)" stroke-width="0.6" opacity="1" d="M 262.5 264 L 282.5 264 L 296.5 267 Q 313.2 273.3 323 286.5 L 330.5 297 L 340.5 298 L 357.5 305 Q 376.5 316 390 332.5 L 407 360.5 L 412 378.5 L 412 392.5 L 405 410.5 L 382.5 434 Q 363.8 448.3 338.5 456 L 313.5 461 L 286.5 461 L 259.5 455 L 231.5 442 Q 207.7 426.8 189 406.5 L 187.5 404 Q 184.2 402.9 185 405.5 L 168.5 424 L 150.5 435 L 138.5 438 L 130.5 438 Q 123.1 436.9 120 431.5 Q 115.4 424.6 117 411.5 Q 122 385.5 139 371.5 Q 128.3 362.2 122 348.5 L 117 330.5 L 117 317.5 Q 118.5 309.9 123.5 306 Q 129.6 302.6 140.5 304 Q 163.8 310.2 176 327.5 L 188.5 350 L 216.5 323 L 242 306.5 L 240 301.5 L 226 286.5 L 225 278.5 L 229.5 274 L 245.5 267 L 262.5 264 Z M 267 271 L 249 273 L 232 281 L 232 285 L 249 303 L 279 294 L 293 294 L 296 292 L 307 293 L 317 293 L 318 292 L 316 289 Q 308 279 297 274 L 284 271 L 267 271 Z M 283 300 Q 245 307 221 328 L 183 366 L 180 373 Q 179 383 183 389 L 193 402 Q 211 423 237 437 L 266 450 L 279 453 L 292 453 L 293 454 Q 317 457 331 450 Q 319 440 313 425 L 311 423 L 308 427 Q 300 438 285 442 Q 267 444 262 435 Q 252 427 248 415 L 249 405 L 257 399 L 274 396 Q 291 394 300 400 L 302 399 L 299 380 L 301 356 L 308 334 L 322 312 L 330 305 L 319 300 L 283 300 Z M 337 305 L 333 308 Q 321 318 314 333 L 306 357 L 306 371 L 305 372 L 305 388 L 311 412 Q 318 428 329 441 L 338 448 Q 365 442 383 426 L 395 413 L 395 410 L 393 411 Q 371 413 363 402 L 366 397 L 374 403 L 383 406 Q 394 407 401 403 Q 405 400 405 394 Q 407 373 400 362 Q 392 344 380 332 Q 365 312 337 305 Z M 129 311 L 124 317 Q 122 333 127 344 Q 134 360 147 371 L 147 374 L 143 377 Q 129 389 124 411 L 125 427 L 133 431 Q 152 431 163 421 Q 174 412 182 399 L 182 396 L 175 383 L 175 370 L 183 359 Q 180 340 169 330 Q 160 318 147 312 L 129 311 Z M 266 403 L 254 408 L 254 412 L 260 425 Q 265 432 274 435 L 286 435 L 295 431 L 307 417 Q 308 411 305 409 L 292 403 L 266 403 Z " /><path fill="rgb(1,1,1)" stroke="rgb(1,1,1)" stroke-width="0.6" opacity="1" d="M 349.5 346 L 357.5 346 L 366 352.5 L 371 362.5 L 371 372.5 Q 368.9 380.9 362.5 385 Q 358.5 388.5 349.5 387 L 340 380.5 L 336 373.5 L 335 364.5 L 339 354.5 L 345.5 348 L 349.5 346 Z M 350 351 L 348 352 L 340 364 Q 339 372 342 377 L 348 381 L 350 381 Q 348 376 349 366 L 357 360 L 363 360 L 364 361 L 363 356 Q 360 349 350 351 Z " /><path fill="rgb(238,125,53)" stroke="rgb(238,125,53)" stroke-width="0.6" opacity="1" d="M 208.5 88 L 238.5 88 L 268.5 96 Q 298.4 110.6 319 134.5 L 343 162.5 Q 345.9 166.1 345 173.5 L 339 185.5 L 310.5 216 Q 288.7 235.7 256.5 245 L 249.5 247 L 239.5 247 L 236.5 249 L 208.5 249 L 189 245 L 204.5 224 L 222.5 236 Q 231.6 239.9 246.5 238 Q 254.6 235.1 259 228.5 L 270 210.5 L 271 200.5 L 266.5 193 L 255.5 189 L 231.5 189 L 218.5 194 Q 215.8 192.8 217 187.5 L 219 182.5 L 219 151.5 Q 213 114.5 191 93.5 L 196.5 90 Q 205.3 91.8 208.5 88 Z " /><path fill="rgb(238,125,53)" stroke="rgb(238,125,53)" stroke-width="0.6" opacity="1" d="M 386.5 107 L 397.5 107 L 400 109.5 L 401 126.5 L 395 144.5 Q 388.4 156.4 378 164.5 L 378 169.5 L 393 183.5 L 400 196.5 L 403 217.5 L 402 222.5 L 398.5 226 L 382.5 225 L 375.5 222 Q 359.7 215.3 350 202.5 L 344 189.5 Q 353.9 182.9 351 163.5 L 344 152.5 L 344 148.5 Q 351.2 130.7 364.5 119 Q 372.9 110.4 386.5 107 Z " /><path fill="rgb(238,125,53)" stroke="rgb(238,125,53)" stroke-width="0.6" opacity="1" d="M 237.5 196 Q 254.3 194.2 262 201.5 L 261 209.5 L 250.5 226 L 240.5 231 L 233.5 231 Q 217.6 227.4 209 216.5 Q 210.8 206.8 217.5 202 L 237.5 196 Z " /><path fill="rgb(60,139,190)" stroke="rgb(60,139,190)" stroke-width="0.6" opacity="1" d="M 285.5 300 L 316.5 300 L 328 304.5 Q 299.7 328.7 299 380.5 L 301 399 L 290.5 396 L 274.5 395 L 257.5 398 L 248 405.5 L 247 412.5 Q 252.2 429.8 265.5 439 Q 272 444.5 286.5 442 Q 299.5 438 307 428.5 L 310.5 423 L 328 449.5 L 319.5 453 L 293.5 454 Q 286.5 451 275.5 452 L 264.5 449 L 237.5 437 Q 213.8 423.7 196 404.5 L 184 389.5 L 180 379.5 L 180 374.5 L 183 366.5 L 222.5 327 Q 247 306.5 285.5 300 Z " /><path fill="rgb(60,139,190)" stroke="rgb(60,139,190)" stroke-width="0.6" opacity="1" d="M 129.5 311 Q 140.7 309.8 147.5 313 Q 158.6 317.9 166 326.5 Q 178.1 338.4 183 357.5 L 175 368.5 L 174 381.5 L 182 397.5 L 168.5 415 Q 156.9 428.9 133.5 431 L 126 426.5 L 124 413.5 L 130 394.5 Q 136.6 382.1 147 373.5 L 147 369.5 Q 134.8 359.8 128 344.5 L 124 328.5 L 124 319.5 Q 124.7 313.2 129.5 311 Z " /><path fill="rgb(60,139,190)" stroke="rgb(60,139,190)" stroke-width="0.6" opacity="1" d="M 267.5 403 Q 293.9 399.6 306 410.5 L 307 415.5 L 293.5 431 L 284.5 435 L 275.5 435 Q 266.3 432.2 261 425.5 L 254 409.5 L 257.5 406 L 267.5 403 Z " /><path fill="rgb(245,202,61)" stroke="rgb(245,202,61)" stroke-width="0.6" opacity="1" d="M 179.5 95 L 182.5 95 L 194 106.5 Q 204.7 120.8 210 140.5 L 213 156.5 L 213 177.5 L 210 194.5 L 199 220.5 L 180.5 242 Q 142.1 232.9 120 207.5 L 120.5 206 L 141.5 206 Q 151.1 203.6 156 196.5 Q 157.3 191.3 154.5 190 L 139.5 199 L 124.5 200 L 112 194.5 L 108 183.5 L 108 175.5 Q 118.5 134 148.5 112 Q 161.3 100.8 179.5 95 Z M 162 138 L 155 142 L 148 153 Q 146 166 151 173 Q 155 180 165 181 L 176 178 Q 182 174 184 165 Q 186 152 181 146 Q 176 137 162 138 Z " /><path fill="rgb(245,202,61)" stroke="rgb(245,202,61)" stroke-width="0.6" opacity="1" d="M 267.5 271 L 279.5 271 L 296.5 275 L 314 287.5 L 317 291.5 Q 315 295 307.5 293 L 294.5 292 L 275.5 294 L 248.5 302 L 234.5 285 L 232 283.5 L 233.5 280 L 248.5 274 L 267.5 271 Z " /><path fill="rgb(245,202,61)" stroke="rgb(245,202,61)" stroke-width="0.6" opacity="1" d="M 351.5 351 Q 359 351 362 355.5 L 363 359 L 356.5 359 L 349 364.5 L 348 377.5 L 349 380 L 343 376.5 Q 339.3 372.2 341 362.5 L 349.5 352 L 351.5 351 Z " /><path fill="rgb(88,161,112)" stroke="rgb(88,161,112)" stroke-width="0.6" opacity="1" d="M 242.5 59 L 269.5 59 L 280.5 62 L 288 67.5 L 272.5 88 L 268.5 88 L 252.5 82 L 240.5 81 L 237.5 82 L 234.5 80 L 212.5 80 L 208.5 81 L 207 79.5 L 215.5 71 L 228.5 63 L 242.5 59 Z " /><path fill="rgb(88,161,112)" stroke="rgb(88,161,112)" stroke-width="0.6" opacity="1" d="M 165.5 143 Q 172.8 142.8 175 147.5 Q 179.5 152 179 161.5 L 173.5 172 L 173 169.5 L 173 159.5 L 166.5 152 Q 157.8 150.7 155 154 L 155 151.5 L 160.5 145 L 165.5 143 Z " /><path fill="rgb(88,161,112)" stroke="rgb(88,161,112)" stroke-width="0.6" opacity="1" d="M 337.5 305 Q 366.1 313.4 382 334.5 Q 394.7 348.3 402 367.5 Q 405.9 377.1 405 391.5 L 403 399.5 L 399.5 403 L 395.5 405 L 379.5 405 L 367.5 397 L 364.5 397 L 363 402.5 Q 372 413.7 394 411 L 393 414.5 L 379.5 428 Q 362.2 441.7 337.5 448 Q 306.8 424.8 305 372.5 Q 307.8 365.3 307 354.5 L 315 331.5 Q 322.8 316.3 335.5 306 L 337.5 305 Z M 349 346 L 345 348 Q 337 353 335 364 Q 334 374 338 379 L 349 387 Q 360 389 365 384 L 371 374 L 371 362 L 367 353 L 358 346 L 349 346 Z " /><path fill="rgb(42,42,42)" stroke="rgb(42,42,42)" stroke-width="0.6" opacity="1" d="M 112.5 210 L 121.5 220 L 112.5 210 Z " /><path fill="rgb(42,42,42)" stroke="rgb(42,42,42)" stroke-width="0.6" opacity="1" d="M 349.5 213 L 354.5 219 L 349.5 213 Z " /><path fill="rgb(42,42,42)" stroke="rgb(42,42,42)" stroke-width="0.6" opacity="1" d="M 319.5 216 L 313.5 223 L 319.5 216 Z " /><path fill="rgb(42,42,42)" stroke="rgb(42,42,42)" stroke-width="0.6" opacity="1" d="M 204.5 222 L 211 227.5 L 205.5 223 L 203.5 224 L 204.5 222 Z " /><path fill="rgb(42,42,42)" stroke="rgb(42,42,42)" stroke-width="0.6" opacity="1" d="M 234.5 286 L 239.5 292 L 234.5 286 Z " /><path fill="rgb(42,42,42)" stroke="rgb(42,42,42)" stroke-width="0.6" opacity="1" d="M 379.5 321 L 384.5 327 L 379.5 321 Z " /><path fill="rgb(42,42,42)" stroke="rgb(42,42,42)" stroke-width="0.6" opacity="1" d="M 193.5 345 L 189.5 350 L 187 348.5 L 188.5 349 L 193.5 345 Z " /><path fill="rgb(76,80,69)" stroke="rgb(76,80,69)" stroke-width="0.6" opacity="1" d="M 363.5 119 L 358.5 125 L 363.5 119 Z " /><path fill="rgb(87,118,116)" stroke="rgb(87,118,116)" stroke-width="0.6" opacity="1" d="M 372.5 324 L 377.5 330 L 372.5 324 Z " /><path fill="rgb(87,118,116)" stroke="rgb(87,118,116)" stroke-width="0.6" opacity="1" d="M 217.5 331 L 184.5 365 L 217.5 331 Z " /><path fill="rgb(87,118,116)" stroke="rgb(87,118,116)" stroke-width="0.6" opacity="1" d="M 141.5 364 L 146.5 370 L 141.5 364 Z " /><path fill="rgb(87,118,116)" stroke="rgb(87,118,116)" stroke-width="0.6" opacity="1" d="M 325.5 444 L 330 449.5 L 327.5 451 L 327.5 450 L 329 449.5 L 327 449 L 325.5 444 Z " /><path fill="rgb(132,122,54)" stroke="rgb(132,122,54)" stroke-width="0.6" opacity="1" d="M 180.5 94 L 182.5 94 L 193 104.5 L 182.5 95 L 180.5 94 Z " /><path fill="rgb(228,228,228)" stroke="rgb(228,228,228)" stroke-width="0.6" opacity="1" d="M 112.5 211 L 121.5 221 L 112.5 211 Z " /><path fill="rgb(228,228,228)" stroke="rgb(228,228,228)" stroke-width="0.6" opacity="1" d="M 379.5 320 L 385.5 327 L 379.5 320 Z " /><path fill="rgb(199,123,52)" stroke="rgb(199,123,52)" stroke-width="0.6" opacity="1" d="M 386.5 156 L 378.5 165 L 386.5 156 Z " /><path fill="rgb(199,123,52)" stroke="rgb(199,123,52)" stroke-width="0.6" opacity="1" d="M 336.5 188 L 331.5 194 L 336.5 188 Z " /><path fill="rgb(199,123,52)" stroke="rgb(199,123,52)" stroke-width="0.6" opacity="1" d="M 323.5 202 L 318.5 208 L 323.5 202 Z " /><path fill="rgb(199,123,52)" stroke="rgb(199,123,52)" stroke-width="0.6" opacity="1" d="M 351.5 204 L 358.5 212 L 351.5 204 Z " /><path fill="rgb(152,152,152)" stroke="rgb(152,152,152)" stroke-width="0.6" opacity="1" d="M 192.5 410 L 198.5 417 L 192.5 410 Z " /><path fill="rgb(191,191,191)" stroke="rgb(191,191,191)" stroke-width="0.6" opacity="1" d="M 337.5 198 L 331.5 205 L 337.5 198 Z " /><path fill="rgb(191,191,191)" stroke="rgb(191,191,191)" stroke-width="0.6" opacity="1" d="M 215.5 323 L 209.5 330 L 215.5 323 Z " /><path fill="rgb(191,191,191)" stroke="rgb(191,191,191)" stroke-width="0.6" opacity="1" d="M 133.5 366 L 138 372.5 L 132 377.5 L 137 370.5 L 133.5 366 Z " /><path fill="rgb(213,191,60)" stroke="rgb(213,191,60)" stroke-width="0.6" opacity="1" d="M 141.5 118 L 133.5 127 L 141.5 118 Z " /><path fill="rgb(213,191,60)" stroke="rgb(213,191,60)" stroke-width="0.6" opacity="1" d="M 188.5 234 L 182.5 241 L 188.5 234 Z " /><path fill="rgb(213,191,60)" stroke="rgb(213,191,60)" stroke-width="0.6" opacity="1" d="M 234.5 285 L 240.5 292 L 234.5 285 Z " /><path fill="rgb(170,169,60)" stroke="rgb(170,169,60)" stroke-width="0.6" opacity="1" d="M 120.5 205 L 122 205.5 L 120 206 L 126 213.5 L 119 207.5 L 120.5 205 Z " /></svg>