<svg width="627" height="627" preserveAspectRatio="xMidYMid meet" viewBox="0 0 512 512" version="1.1" xmlns="http://www.w3.org/2000/svg" ><path fill="rgb(255,255,255)" stroke="rgb(255,255,255)" stroke-width="0.6" opacity="1" d="M 0 0 L 512 0 L 512 512 L 0 512 L 0 0 Z M 164 92 Q 148 95 138 104 Q 118 120 107 144 L 97 171 L 92 198 L 83 210 L 75 236 Q 74 245 78 249 L 59 299 L 52 332 L 53 366 L 63 387 Q 83 412 125 416 Q 151 419 169 413 Q 188 407 202 395 L 219 374 L 228 353 L 233 331 L 234 314 L 248 272 L 248 215 L 246 209 L 245 185 L 238 161 L 237 146 L 232 130 L 220 111 Q 204 89 164 92 Z M 341 94 L 325 98 L 311 106 Q 293 119 286 144 L 283 156 L 283 166 Q 276 180 274 200 L 273 232 L 272 233 L 272 266 L 283 307 L 283 322 L 285 325 L 287 354 Q 291 374 303 388 Q 323 413 363 419 L 401 418 L 425 410 L 437 403 Q 448 394 455 382 L 461 360 L 461 338 L 457 310 Q 450 279 438 253 L 440 247 L 440 233 L 434 213 L 427 202 Q 427 180 421 164 L 411 138 L 399 120 Q 389 106 373 98 Q 361 92 341 94 Z " /><path fill="rgb(0,0,0)" stroke="rgb(0,0,0)" stroke-width="0.6" opacity="1" d="M 167.5 92 Q 201.8 90.7 217 108.5 Q 226.3 118.2 232 131.5 L 236 144.5 L 237 159.5 L 244 183.5 L 244 193.5 L 246 197.5 L 246 210.5 L 247 211.5 L 247 261.5 L 248 266.5 L 246 277.5 L 233 314.5 L 232 331.5 L 228 350.5 L 217 374.5 L 197.5 397 Q 184.2 407.7 165.5 413 L 149.5 416 L 126.5 416 Q 122.7 411.8 112.5 414 L 93.5 408 Q 76.3 400.7 65 387.5 Q 57.3 378.7 54 365.5 Q 55.6 357.4 52 354.5 L 52 335.5 L 60 297.5 L 79 248.5 Q 73.9 245.1 76 234.5 L 83 211.5 L 93 197.5 L 98 169.5 L 107 145.5 Q 117.8 121.8 136.5 106 Q 148.3 95.3 167.5 92 Z M 167 99 Q 152 102 142 110 Q 108 139 100 194 L 102 195 L 118 195 L 119 194 L 120 172 L 125 154 Q 131 140 140 130 Q 150 117 169 113 Q 191 111 201 122 Q 212 132 215 151 Q 217 168 213 180 L 199 206 Q 205 210 215 210 Q 222 204 226 194 L 230 179 L 229 144 Q 225 128 216 118 Q 207 107 195 101 L 186 99 L 167 99 Z M 166 118 Q 155 121 148 128 Q 132 142 126 165 L 128 170 L 141 162 L 156 159 L 168 159 Q 171 163 181 161 L 198 168 L 203 176 L 208 178 L 210 174 L 210 147 L 200 128 L 185 118 L 166 118 Z M 151 166 L 139 169 L 131 174 Q 122 179 125 195 L 131 197 L 160 198 L 194 204 Q 200 198 203 189 L 201 181 Q 194 171 181 167 L 151 166 Z M 235 179 L 230 196 L 218 214 L 221 222 Q 221 245 213 262 L 207 267 L 198 267 L 185 263 L 180 274 Q 179 285 182 293 L 197 303 L 210 319 L 213 320 L 221 290 Q 231 273 237 253 L 240 225 L 240 202 L 237 189 L 237 181 L 235 179 Z M 101 201 L 97 203 Q 83 216 83 243 L 87 246 L 94 247 L 124 247 L 135 248 L 138 250 L 159 251 L 188 257 L 199 261 L 207 260 L 211 252 L 216 229 L 215 221 L 203 212 L 173 206 L 135 203 L 130 201 L 101 201 Z M 87 252 Q 73 273 67 301 Q 78 289 95 283 Q 105 273 106 254 L 105 252 L 87 252 Z M 112 254 L 110 256 L 108 270 L 104 278 L 105 280 L 120 277 L 149 279 Q 164 281 175 288 L 175 286 L 175 275 L 178 263 L 177 261 L 144 255 L 112 254 Z M 239 258 Q 234 278 224 294 L 212 340 L 198 363 Q 187 376 171 383 L 155 388 L 145 388 L 142 390 L 130 390 L 110 387 L 91 380 L 77 371 Q 66 362 61 349 L 59 347 L 60 365 L 72 387 Q 91 406 128 409 Q 175 412 197 390 Q 211 377 219 358 L 224 340 L 224 332 L 229 306 Q 237 291 241 272 L 241 259 L 239 258 Z M 111 283 L 93 288 L 78 298 L 64 313 L 62 320 Q 59 346 70 359 L 89 374 L 108 382 L 124 385 Q 164 387 185 370 Q 203 355 211 330 L 211 326 L 206 319 Q 190 299 165 288 L 144 283 L 111 283 Z " /><path fill="rgb(0,0,0)" stroke="rgb(0,0,0)" stroke-width="0.6" opacity="1" d="M 343.5 94 L 360.5 95 L 370.5 98 Q 386.5 105.5 397 118.5 Q 409.3 132.2 416 151.5 Q 425 172.5 426 201.5 L 434 214.5 L 440 236.5 L 440 245.5 Q 436.4 246.9 437 252.5 L 448 280.5 L 456 308.5 L 461 339.5 L 461 355.5 L 457 374.5 L 454 381.5 L 437.5 401 L 425.5 409 L 401.5 417 Q 391.8 415.3 387.5 419 L 366.5 419 L 345.5 415 L 325.5 406 L 305 388.5 Q 293.1 374.9 288 354.5 Q 283.5 334 284 308.5 L 273 267.5 L 273 236.5 L 272 234.5 L 273 233.5 L 273 216.5 L 275 212.5 L 275 198.5 L 278 182.5 L 284 164.5 L 284 154.5 L 287 142.5 Q 293.9 120.9 309.5 108 L 323.5 99 L 343.5 94 Z M 343 101 L 327 105 L 312 115 L 297 135 L 291 154 L 291 167 L 290 168 L 290 180 L 294 196 L 306 211 L 319 207 L 309 189 L 305 172 Q 304 159 307 151 L 318 130 Q 327 118 344 115 Q 366 114 377 124 Q 397 142 401 177 L 400 196 L 417 197 L 419 196 Q 415 150 393 124 Q 384 111 369 104 L 358 101 L 343 101 Z M 342 120 L 326 128 Q 311 139 310 163 L 310 176 L 313 179 Q 319 170 330 166 L 349 161 L 370 161 L 372 163 Q 379 162 383 165 L 395 172 Q 393 146 378 132 Q 368 117 342 120 Z M 344 168 L 326 175 L 316 187 L 316 194 L 326 206 L 351 201 L 372 200 L 375 198 L 393 197 L 394 196 Q 397 181 390 177 Q 385 170 376 168 L 344 168 Z M 286 183 L 284 185 L 281 203 L 281 218 L 280 219 L 281 248 L 287 269 L 297 293 L 301 315 L 304 320 L 309 313 L 321 303 Q 329 298 331 287 Q 332 274 329 267 L 320 269 L 308 268 L 300 259 L 295 235 Q 293 221 300 217 L 300 213 L 291 200 L 288 191 L 288 185 L 286 183 Z M 393 203 L 392 204 L 374 204 L 370 206 L 333 210 L 314 214 L 305 218 L 301 225 L 301 236 L 305 256 L 310 263 L 317 263 L 346 256 L 375 253 L 378 251 L 402 250 L 405 248 L 416 247 L 431 247 L 433 245 L 432 229 L 424 209 L 418 203 L 393 203 Z M 428 252 L 416 253 L 409 256 Q 408 273 416 283 L 442 299 L 443 302 L 447 304 L 440 277 L 431 254 Q 432 251 428 252 Z M 402 255 L 381 258 L 371 258 L 336 264 L 334 266 L 335 290 L 337 291 L 356 283 L 384 279 L 402 280 L 410 282 L 404 264 L 404 256 L 402 255 Z M 281 264 L 281 276 L 290 308 L 293 348 L 297 364 L 308 383 Q 318 394 332 402 L 350 409 L 366 412 L 387 412 L 405 410 L 422 404 L 433 397 L 446 383 L 453 366 L 454 356 Q 456 350 452 351 L 445 366 Q 437 376 425 383 L 410 389 L 403 391 L 394 391 L 391 393 L 371 393 L 368 391 L 354 390 Q 333 384 321 371 Q 309 361 303 346 L 297 325 L 293 295 L 283 267 Q 284 263 281 264 Z M 376 285 L 359 287 L 341 293 Q 328 299 319 308 L 304 326 Q 306 347 316 361 Q 333 385 372 388 L 391 388 L 409 385 L 431 374 Q 446 363 451 341 L 451 318 L 446 311 Q 435 297 419 289 L 401 285 L 376 285 Z " /><path fill="rgb(224,68,63)" stroke="rgb(224,68,63)" stroke-width="0.6" opacity="1" d="M 346.5 168 L 376.5 169 Q 385.6 170.9 390 177.5 Q 396 182.5 394 195.5 L 392.5 197 L 353.5 200 L 324 205 L 316 191.5 L 316 187.5 L 326.5 175 L 334.5 171 L 346.5 168 Z " /><path fill="rgb(224,68,63)" stroke="rgb(224,68,63)" stroke-width="0.6" opacity="1" d="M 234 180 Q 237.8 178.9 236 187.5 L 239 198.5 L 240 223.5 L 236 253.5 L 220 290.5 Q 214.5 302.8 213 318 L 207 313.5 L 198.5 304 L 183 292.5 L 180 283.5 L 180 275.5 L 184.5 264 L 195.5 267 L 207.5 267 L 213 262.5 L 219 245.5 L 222 222.5 Q 218.3 219.7 219 212.5 L 231 194.5 L 234 180 Z " /><path fill="rgb(224,68,63)" stroke="rgb(224,68,63)" stroke-width="0.6" opacity="1" d="M 427.5 253 L 431 254.5 L 439 275.5 L 446 302 L 443 300.5 L 441.5 298 L 416 281.5 Q 409.5 272 409 256.5 L 412.5 254 L 426.5 254 L 427.5 253 Z " /><path fill="rgb(224,68,63)" stroke="rgb(224,68,63)" stroke-width="0.6" opacity="1" d="M 239 260 L 241 260.5 L 241 268.5 Q 236.8 289.8 228 306.5 L 224 327.5 L 224 337.5 L 218 358.5 Q 209.8 377.3 195.5 390 Q 173.4 410.9 128.5 409 Q 91.7 405.8 72 385.5 L 61 365.5 L 59 348 Q 62 346.8 61 350.5 Q 65.9 363.1 75.5 371 Q 88.8 381.7 107.5 387 L 116.5 389 L 142.5 390 Q 181.1 386.6 199 362.5 L 213 338.5 L 225 292.5 Q 234.9 278.5 239 260 Z " /><path fill="rgb(224,68,63)" stroke="rgb(224,68,63)" stroke-width="0.6" opacity="1" d="M 376.5 285 L 397.5 285 L 419.5 290 Q 432.5 296.5 442 306.5 L 450 317.5 L 451 337.5 Q 447.2 358.2 434.5 370 Q 424.2 379.2 409.5 384 L 386.5 388 L 372.5 388 Q 368.1 384.9 359.5 386 L 343.5 381 Q 327.5 373.5 317 360.5 Q 306.2 347.8 305 325.5 L 319.5 308 L 339.5 294 L 356.5 288 L 372.5 287 L 376.5 285 Z " /><path fill="rgb(55,120,189)" stroke="rgb(55,120,189)" stroke-width="0.6" opacity="1" d="M 170.5 99 L 183.5 99 L 195.5 102 Q 207.2 107.8 215 117.5 Q 223.9 127.6 228 142.5 Q 232.2 155.8 230 175.5 L 225 194.5 Q 221.5 203.5 214.5 209 Q 204.8 209.7 200 205.5 L 214 179.5 L 215 147.5 Q 210.6 127.9 196.5 118 L 185.5 113 L 165.5 113 Q 149.1 117.1 140 128.5 Q 129.7 139.2 124 154.5 L 119 173.5 L 119 193.5 L 117.5 195 L 102.5 194 L 100 193.5 L 105 170.5 L 118 139.5 Q 127.8 122.3 142.5 110 Q 153.4 101.4 170.5 99 Z " /><path fill="rgb(55,120,189)" stroke="rgb(55,120,189)" stroke-width="0.6" opacity="1" d="M 167.5 118 L 186.5 119 L 201 129.5 Q 207.5 137.5 210 149.5 L 210 169.5 L 208 177 L 203 174.5 L 196.5 167 L 183.5 161 L 168.5 159 L 152.5 159 L 138.5 162 L 127 169 Q 129.6 146.8 142.5 134 L 145 132.5 L 149.5 127 Q 156.5 120.5 167.5 118 Z " /><path fill="rgb(55,120,189)" stroke="rgb(55,120,189)" stroke-width="0.6" opacity="1" d="M 153.5 166 Q 188 163 201 181.5 L 202 191.5 L 192.5 204 L 162.5 198 L 129.5 196 L 125 193.5 Q 123 178.5 131.5 174 L 137.5 170 L 153.5 166 Z " /><path fill="rgb(55,120,189)" stroke="rgb(55,120,189)" stroke-width="0.6" opacity="1" d="M 86.5 252 L 104.5 253 L 106 254.5 Q 103.9 272.9 93.5 283 L 85.5 286 L 68 299 Q 74.1 273 86.5 252 Z " /><path fill="rgb(55,120,189)" stroke="rgb(55,120,189)" stroke-width="0.6" opacity="1" d="M 113.5 283 L 139.5 283 L 165.5 289 Q 185.9 297.6 200 312.5 L 211 327.5 Q 203.2 354.7 183.5 370 Q 161.9 387.4 119.5 384 Q 87.4 378.1 70 357.5 L 63 341.5 L 62 321.5 Q 66.1 305.6 78.5 298 L 94.5 288 L 113.5 283 Z " /><path fill="rgb(247,190,49)" stroke="rgb(247,190,49)" stroke-width="0.6" opacity="1" d="M 345.5 120 Q 355.9 119.1 362.5 122 Q 374.1 126.9 381 136.5 Q 391.7 149.6 394 170 L 377.5 162 L 345.5 161 L 329.5 165 Q 319.5 169 313.5 177 L 311 177 L 312 152.5 L 315 143.5 Q 320.1 132.6 329.5 126 L 345.5 120 Z " /><path fill="rgb(247,190,49)" stroke="rgb(247,190,49)" stroke-width="0.6" opacity="1" d="M 393.5 203 L 416.5 203 L 423 208.5 Q 431.8 222.2 433 243.5 L 426.5 247 L 378.5 250 L 375.5 252 L 346.5 255 L 317.5 262 L 310.5 262 L 305 251.5 L 302 236.5 L 302 224.5 L 306.5 218 L 331.5 211 L 368.5 207 L 371.5 205 L 390.5 205 L 393.5 203 Z " /><path fill="rgb(247,190,49)" stroke="rgb(247,190,49)" stroke-width="0.6" opacity="1" d="M 392.5 256 Q 400.8 253.8 403 257.5 Q 403.6 272.2 409 281 Q 398.7 277.3 381.5 279 L 356.5 282 L 336.5 290 L 335 288.5 L 335 265 L 368.5 259 L 389.5 258 L 392.5 256 Z " /><path fill="rgb(247,190,49)" stroke="rgb(247,190,49)" stroke-width="0.6" opacity="1" d="M 281 267 Q 284 265.8 283 269.5 L 293 297.5 L 296 323.5 L 302 345.5 Q 309.4 362.6 322.5 374 Q 335.2 385.8 354.5 391 Q 370.7 394.3 391.5 393 Q 425.2 390.2 442 370.5 L 451.5 357 L 452 366.5 L 445 382.5 L 432.5 396 Q 410.7 413.2 370.5 412 L 348.5 408 L 335.5 403 Q 319.9 395.1 309 382.5 L 298 363.5 L 294 348.5 L 291 308.5 L 281 272.5 L 281 267 Z " /><path fill="rgb(82,158,91)" stroke="rgb(82,158,91)" stroke-width="0.6" opacity="1" d="M 343.5 101 L 360.5 102 L 369.5 105 Q 381.7 110.8 390 120.5 Q 414.9 148.3 419 196 L 401.5 196 L 400 194.5 L 401 173.5 Q 396.7 142.3 378.5 125 Q 370.6 117.9 358.5 115 L 341.5 115 Q 324.6 119.1 316 131.5 L 307 149.5 Q 303.6 159.1 305 173.5 L 309 189.5 L 318 206.5 L 305.5 211 L 295 196.5 L 291 182.5 L 290 168.5 Q 292.8 161.3 292 150.5 L 297 135.5 Q 303.4 121.9 314.5 113 L 325.5 106 L 343.5 101 Z " /><path fill="rgb(82,158,91)" stroke="rgb(82,158,91)" stroke-width="0.6" opacity="1" d="M 286.5 183 L 288 185.5 L 287 189.5 L 290 198.5 L 300 215.5 Q 292.1 220.6 295 236.5 L 300 259.5 L 307.5 268 L 316.5 270 L 327.5 267 L 330 270.5 L 330 289.5 Q 326.1 299.6 317.5 305 L 306 315.5 L 304.5 318 Q 299.9 319.4 302 313.5 L 298 294.5 Q 287.7 272.3 281 246.5 L 280 219.5 L 284 186.5 L 286.5 183 Z " /><path fill="rgb(82,158,91)" stroke="rgb(82,158,91)" stroke-width="0.6" opacity="1" d="M 101.5 201 L 132.5 202 L 175.5 207 L 203.5 213 L 214 220.5 L 215 231.5 L 211 249.5 L 206.5 259 L 199.5 261 L 185.5 256 L 160.5 251 L 142.5 250 L 124.5 247 L 88.5 246 L 83 242.5 Q 83.5 216 97.5 203 L 101.5 201 Z " /><path fill="rgb(82,158,91)" stroke="rgb(82,158,91)" stroke-width="0.6" opacity="1" d="M 112.5 254 L 147.5 256 L 174.5 261 L 178 263.5 Q 173.1 272.3 175 287 L 150.5 279 L 133.5 277 L 116.5 277 L 104 280 L 112.5 254 Z " /><path fill="rgb(36,36,36)" stroke="rgb(36,36,36)" stroke-width="0.6" opacity="1" d="M 147.5 128 L 142.5 134 L 147.5 128 Z " /><path fill="rgb(36,36,36)" stroke="rgb(36,36,36)" stroke-width="0.6" opacity="1" d="M 318.5 308 L 313.5 314 L 318.5 308 Z " /><path fill="rgb(36,36,36)" stroke="rgb(36,36,36)" stroke-width="0.6" opacity="1" d="M 201.5 384 L 196.5 390 L 201.5 384 Z " /><path fill="rgb(73,70,62)" stroke="rgb(73,70,62)" stroke-width="0.6" opacity="1" d="M 197.5 363 L 190.5 371 L 197.5 363 Z " /><path fill="rgb(83,104,95)" stroke="rgb(83,104,95)" stroke-width="0.6" opacity="1" d="M 132.5 109 L 127.5 115 L 132.5 109 Z " /><path fill="rgb(154,67,62)" stroke="rgb(154,67,62)" stroke-width="0.6" opacity="1" d="M 198.5 304 L 206.5 313 L 198.5 304 Z " /><path fill="rgb(154,67,62)" stroke="rgb(154,67,62)" stroke-width="0.6" opacity="1" d="M 69.5 364 L 75.5 371 L 69.5 364 Z " /><path fill="rgb(54,115,144)" stroke="rgb(54,115,144)" stroke-width="0.6" opacity="1" d="M 192.5 361 L 187.5 367 L 192.5 361 Z " /><path fill="rgb(200,180,48)" stroke="rgb(200,180,48)" stroke-width="0.6" opacity="1" d="M 326.5 128 L 321.5 134 L 326.5 128 Z " /><path fill="rgb(200,180,48)" stroke="rgb(200,180,48)" stroke-width="0.6" opacity="1" d="M 373.5 128 L 378.5 134 L 373.5 128 Z " /><path fill="rgb(200,180,48)" stroke="rgb(200,180,48)" stroke-width="0.6" opacity="1" d="M 315.5 366 L 322.5 374 L 315.5 366 Z " /><path fill="rgb(133,134,48)" stroke="rgb(133,134,48)" stroke-width="0.6" opacity="1" d="M 318.5 172 L 313.5 178 L 318.5 172 Z " /><path fill="rgb(133,134,48)" stroke="rgb(133,134,48)" stroke-width="0.6" opacity="1" d="M 309.5 383 L 315.5 390 L 309.5 383 Z " /></svg>