<svg width="627" height="627" preserveAspectRatio="xMidYMid meet" viewBox="0 0 512 512" version="1.1" xmlns="http://www.w3.org/2000/svg" ><path fill="rgb(255,255,255)" stroke="rgb(255,255,255)" stroke-width="0.6" opacity="1" d="M 0 0 L 512 0 L 512 512 L 0 512 L 0 0 Z M 229 73 L 209 77 L 194 82 Q 176 89 163 101 Q 139 119 132 154 Q 130 168 135 175 L 148 183 L 158 185 L 194 185 L 203 182 Q 212 173 217 160 Q 225 151 240 148 Q 263 146 274 157 Q 280 164 283 175 L 283 187 L 275 203 L 262 211 L 251 214 L 234 214 L 223 218 L 215 228 L 213 243 L 213 263 L 217 275 L 227 281 L 248 282 L 258 284 Q 270 286 279 293 L 289 306 L 292 316 L 292 333 L 284 349 Q 276 359 261 362 L 237 362 L 218 353 Q 208 345 205 331 Q 201 324 193 322 L 150 323 Q 141 324 136 329 L 129 340 L 129 357 L 133 372 Q 139 386 148 397 Q 166 417 194 429 L 223 437 L 250 439 L 272 439 L 275 437 L 285 437 L 311 430 Q 331 421 347 408 Q 375 385 382 341 Q 386 289 363 265 Q 353 252 338 245 L 336 242 L 343 239 L 361 218 L 368 201 L 370 191 L 370 159 L 367 145 Q 361 124 348 110 Q 328 87 297 77 L 276 73 L 229 73 Z " /><path fill="rgb(224,68,63)" stroke="rgb(224,68,63)" stroke-width="0.6" opacity="1" d="M 234.5 81 L 270.5 81 L 301.5 88 Q 327 98 343 117.5 Q 353.6 129.9 359 147.5 L 362 162.5 L 362 186.5 Q 357.6 217.1 337.5 232 L 321 242.5 Q 320.3 248.3 324.5 249 Q 343 254.5 354 267.5 Q 365.1 279.9 371 297.5 L 374 312.5 L 374 337.5 L 370 356.5 L 361 377.5 Q 352.1 392.1 339.5 403 Q 305.1 434.1 235.5 430 L 233.5 428 L 222.5 428 L 206.5 424 L 184.5 415 Q 166.1 404.9 153 389.5 L 142 370.5 L 137 352.5 L 137 342.5 L 144.5 334 L 159.5 330 L 190.5 330 L 197 335.5 Q 200.3 350.3 210.5 358 L 233.5 370 L 259.5 371 L 272.5 368 L 289 356.5 L 299 339.5 Q 302 332.5 301 321.5 L 300 311.5 L 296 300.5 L 282.5 285 L 266.5 277 L 244.5 273 L 230.5 273 L 224 268.5 L 221 257.5 L 221 245.5 L 222 243.5 L 221 240.5 Q 221.6 229.6 228.5 225 L 233.5 223 L 247.5 223 L 265.5 219 Q 277.1 214.6 284 205.5 Q 292 195.5 292 177.5 Q 289.1 155.9 274.5 146 Q 261.8 136.7 236.5 140 L 226.5 143 L 207 158.5 L 202 170.5 L 197.5 175 L 191.5 177 L 162.5 177 L 148.5 174 L 141 167.5 L 140 157.5 Q 145 128 163.5 112 Q 177.3 97.8 197.5 90 L 221.5 83 L 232.5 83 L 234.5 81 Z " /><path fill="rgb(0,0,0)" stroke="rgb(0,0,0)" stroke-width="0.6" opacity="1" d="M 233.5 73 L 270.5 73 L 299.5 79 Q 331 90 350 113.5 Q 361.2 127.8 367 147.5 L 370 163.5 L 370 185.5 Q 365 218.5 344.5 236 L 334 242 Q 332.5 245.8 335.5 245 Q 349.4 251.1 359 261.5 Q 371.4 274.6 378 293.5 L 382 314.5 L 382 335.5 Q 374.6 385.1 342.5 410 Q 329.3 420.8 312.5 428 L 285.5 436 Q 275.8 434.3 271.5 438 L 236.5 438 Q 232.7 433.8 222.5 436 L 191.5 427 Q 164.6 414.9 147 393.5 Q 137 381.5 132 364.5 Q 128 355 130 339.5 L 137.5 329 L 145.5 325 L 158.5 324 L 160.5 322 L 189.5 322 Q 199.5 324 204 331.5 Q 207.5 348 219.5 356 L 236.5 363 L 260.5 363 L 273.5 359 L 285 349.5 L 293 332.5 L 293 315.5 L 290 305.5 L 277.5 291 L 261.5 284 L 246.5 281 L 226.5 280 L 218 273.5 L 214 263.5 L 214 242.5 L 216 227.5 L 223.5 219 L 233.5 215 L 249.5 215 L 264.5 211 L 278 200.5 L 283 189.5 L 283 170.5 Q 279.6 159.9 271.5 154 Q 260.7 145.3 239.5 147 Q 222.3 149.8 214 161.5 Q 210.7 174.2 201.5 181 L 190.5 185 L 161.5 185 L 147.5 182 L 135 172.5 L 132 158.5 Q 137.9 123.9 159.5 105 Q 173.2 92.2 191.5 84 L 208.5 78 L 233.5 73 Z M 234 81 Q 190 85 166 109 Q 144 126 139 159 L 141 170 L 149 175 L 159 177 L 195 177 L 198 176 L 203 171 L 208 159 L 229 143 L 241 140 L 260 141 L 276 148 Q 288 157 291 176 Q 291 194 284 205 Q 277 214 266 218 L 250 222 Q 236 220 229 224 Q 222 227 221 237 L 221 262 L 223 270 L 232 274 L 247 274 L 267 278 L 283 286 L 295 301 L 299 311 L 300 321 Q 301 332 298 340 L 289 355 L 273 367 L 256 371 L 245 371 L 243 369 L 233 369 L 211 357 Q 201 349 198 335 L 193 330 L 156 330 L 144 333 L 137 342 Q 137 374 153 391 Q 169 410 194 420 L 224 429 L 250 431 L 273 431 L 298 426 Q 321 419 339 405 Q 366 384 374 343 L 374 308 L 372 299 Q 367 281 356 269 Q 345 254 325 248 L 322 244 L 337 234 Q 356 220 362 192 Q 367 142 345 119 Q 327 97 299 86 L 276 81 L 234 81 Z " /><path fill="rgb(21,21,21)" stroke="rgb(21,21,21)" stroke-width="0.6" opacity="1" d="M 198.5 325 L 203.5 331 L 198.5 325 Z " /><path fill="rgb(148,148,148)" stroke="rgb(148,148,148)" stroke-width="0.6" opacity="1" d="M 158.5 105 L 153.5 111 L 158.5 105 Z " /><path fill="rgb(225,225,225)" stroke="rgb(225,225,225)" stroke-width="0.6" opacity="1" d="M 339.5 101 L 345.5 108 L 339.5 101 Z " /><path fill="rgb(225,225,225)" stroke="rgb(225,225,225)" stroke-width="0.6" opacity="1" d="M 353.5 400 L 348.5 406 L 353.5 400 Z " /></svg>