<svg width="627" height="627" preserveAspectRatio="xMidYMid meet" viewBox="0 0 512 512" version="1.1" xmlns="http://www.w3.org/2000/svg" ><path fill="rgb(255,255,255)" stroke="rgb(255,255,255)" stroke-width="0.6" opacity="1" d="M 0 0 L 512 0 L 512 512 L 0 512 L 0 0 Z M 249 73 L 227 75 L 197 83 Q 178 90 165 102 Q 139 121 133 159 Q 132 170 137 176 L 148 183 L 162 186 L 193 186 L 204 182 L 209 177 L 217 162 Q 225 151 241 149 Q 262 147 273 156 Q 281 163 284 176 Q 286 193 278 202 L 266 211 Q 252 216 234 216 L 224 220 L 217 228 L 214 243 L 215 266 L 219 276 L 227 281 L 260 285 L 279 293 Q 292 301 294 321 Q 294 340 285 351 Q 276 362 258 364 Q 232 366 220 355 Q 209 347 205 332 Q 201 325 192 323 L 160 323 L 145 326 L 138 330 Q 132 335 130 344 Q 130 361 135 373 Q 141 388 151 399 Q 166 415 188 426 L 217 436 L 248 440 Q 314 440 348 408 Q 377 384 383 337 Q 385 314 380 298 Q 374 279 363 266 Q 353 253 338 246 Q 334 247 336 243 L 344 239 Q 366 222 371 188 Q 373 162 367 145 Q 360 124 347 110 Q 316 73 249 73 Z " /><path fill="rgb(224,68,63)" stroke="rgb(224,68,63)" stroke-width="0.6" opacity="1" d="M 253.5 82 Q 264.7 81.2 271.5 85 L 276.5 83 L 301.5 89 L 313.5 96 L 318.5 97 L 330.5 105 L 341 115.5 L 342.5 117 L 357 140.5 L 357 145.5 L 361 153.5 Q 358.8 163.7 363 167.5 L 363 181.5 L 359 203.5 L 346.5 225 L 342 228.5 L 339.5 232 L 334 234.5 L 332.5 236 L 323 242.5 L 322 246.5 L 326.5 251 Q 340.1 253.9 348 262.5 L 349.5 265 L 360 274.5 L 371 296.5 Q 370 302.5 373 304.5 L 373 312.5 L 375 314.5 L 375 326.5 L 374 334.5 L 375 336.5 L 373 338.5 L 371 356.5 L 366 364.5 L 367 367.5 L 351.5 392 L 349 393.5 L 343.5 400 L 342 401.5 L 320.5 417 L 292.5 427 L 290.5 426 L 285.5 429 L 283.5 428 L 265.5 431 L 249.5 429 L 238.5 431 L 228.5 428 L 226.5 429 L 224.5 428 L 222.5 428 L 217.5 426 L 215.5 427 L 208.5 424 Q 206.5 427 204.5 422 L 196.5 421 Q 191.2 415.5 183 414 Q 184.3 410.7 179.5 412 L 156 391.5 L 146 377.5 L 140 362.5 L 139 341.5 L 144.5 335 L 150.5 333 L 152.5 334 L 154.5 332 L 165.5 331 L 167.5 332 L 168.5 331 L 185.5 331 L 187.5 332 L 190.5 331 L 196 334.5 L 205 351.5 L 211.5 359 Q 226.7 374.3 259.5 372 Q 280.4 368.9 291 355.5 L 295 350.5 L 302 334.5 L 302 314.5 Q 298.8 313.3 300 307.5 L 291.5 293 L 288 290.5 L 286.5 288 L 272.5 280 L 262.5 277 Q 261 279.5 259.5 276 L 251.5 276 L 251 274.5 L 248.5 273 Q 247.5 276 242.5 275 L 240.5 274 L 238.5 274 Q 226.7 275.8 224 268.5 L 223 240.5 L 226 228 Q 229.8 229.5 229 226.5 L 232.5 225 L 234.5 226 L 236.5 224 Q 250.6 225.1 259.5 221 L 261.5 221 Q 275.5 217 284 207.5 L 292 192.5 L 293 175.5 L 290 169.5 L 290 165.5 L 284.5 156 Q 276.8 147.7 265.5 143 Q 254.8 139.7 239.5 141 Q 221.1 144.3 211 155 L 201 174 L 189.5 178 L 164.5 178 L 158.5 176 L 156.5 177 Q 148.9 176.1 145 171.5 Q 139.9 168.1 141 158.5 L 148 135.5 L 157.5 121 L 160 119.5 L 167.5 111 L 170 109.5 L 171.5 107 L 182.5 99 L 198.5 91 L 202.5 91 L 210.5 87 L 216.5 87 L 218.5 85 L 225.5 85 L 232.5 83 L 239 85 L 239.5 83 L 252.5 83 L 253.5 82 Z " /><path fill="rgb(5,5,5)" stroke="rgb(5,5,5)" stroke-width="0.6" opacity="1" d="M 237.5 75 L 258.5 76 L 269.5 75 Q 273.8 78.7 283.5 77 L 290.5 80 L 292.5 79 L 294.5 81 L 305.5 83 L 324 92 L 325.5 94 L 333 98.5 L 336.5 103 L 349 113.5 L 359 129.5 L 367 149.5 Q 365.5 156 369 157.5 L 369 192.5 L 367 194.5 L 365 206.5 L 358 221.5 L 347.5 234 L 339 238 L 337.5 241 L 333 244.5 L 354 258.5 L 355.5 260 L 369 275.5 L 379 298.5 Q 376.8 307.3 381 309.5 L 381 342.5 L 379 344.5 L 379 352.5 Q 376.2 354.2 377 359.5 Q 372.6 362.6 373 370.5 L 367 379.5 L 367 383 L 364 384.5 Q 357.1 400.6 343.5 410 L 338 412 L 336.5 415 L 332 416 L 330.5 419 L 297.5 433 L 294.5 432 L 288.5 435 L 286 434 Q 287.4 438 280.5 436 L 278.5 437 L 276.5 436 L 274.5 437 L 271.5 436 Q 261.9 438.9 248.5 438 L 235.5 436 L 229.5 437 L 224.5 434 L 216.5 434 L 214.5 432 L 197.5 429 L 190.5 424 L 183 421.5 Q 183.8 418.9 180.5 420 L 172 416 L 170.5 413 L 166 410.5 L 163.5 407 L 146 390.5 L 138 376.5 L 138 372.5 L 134 365.5 Q 134.9 355.1 131 349.5 L 135.5 334 L 144.5 328 L 148 328 Q 146.6 324 153.5 326 L 155.5 325 L 163.5 326 L 175.5 324 L 196.5 326 L 200 328 L 201 332 L 205 333 L 208 344.5 L 220.5 358 L 240.5 366 L 246.5 366 L 253.5 365 L 260 366 Q 258.6 362.3 264.5 364 L 274.5 361 L 286 351.5 L 294 338.5 L 296 320.5 L 294 316.5 L 293 307.5 L 289 300 L 280 294 L 278.5 291 L 263.5 284 L 261.5 285 L 256 284 L 254.5 282 L 251.5 283 L 242 282 Q 243.1 278.3 234.5 280 L 231.5 281 L 220 274.5 Q 216.8 272.2 218 265.5 L 216 263.5 L 216 236.5 Q 219.5 235 218 228.5 L 221.5 224 L 224 222.5 L 225.5 221 Q 230.1 216.1 240.5 217 L 245 218 Q 243.8 215 247.5 216 L 249.5 217 L 264.5 213 L 276 206 L 277.5 203 L 281 200.5 L 286 188.5 L 286 174.5 L 280 161.5 L 275.5 157 L 273 155.5 Q 273.8 152.9 270.5 154 L 261 150 L 260.5 148 L 235.5 148 L 224.5 153 L 214 162.5 Q 212.1 171.1 206.5 176 Q 203.9 175.2 205 178.5 L 196.5 184 L 188.5 185 L 187.5 184 L 167.5 184 L 164.5 185 L 156.5 184 L 153.5 182 L 151.5 183 L 142.5 179 L 138 174.5 L 134 161.5 Q 138 158 136 148.5 L 142 132.5 L 153.5 115 Q 170 95.5 195.5 85 Q 203.3 85.3 206.5 81 L 220.5 79 L 222.5 77 Q 232.8 78.8 237.5 75 Z M 234 80 Q 230 83 222 82 L 220 84 L 214 84 L 200 90 L 196 90 L 175 103 L 173 105 L 163 113 L 149 131 L 141 149 Q 142 156 139 159 Q 140 162 137 161 Q 136 164 139 163 L 141 170 L 150 177 L 159 178 L 161 180 L 164 179 L 169 180 Q 189 182 201 176 L 212 158 L 219 151 L 231 145 L 241 143 L 243 143 Q 264 142 276 150 L 277 153 L 282 156 L 287 165 L 289 176 L 291 179 L 289 189 L 290 191 L 283 206 L 270 216 L 261 218 L 259 220 L 243 221 L 240 223 L 237 222 L 227 224 L 223 230 L 220 240 L 221 244 L 220 250 L 221 267 L 224 272 L 230 276 L 243 276 L 245 278 L 251 277 L 272 282 L 286 290 L 293 300 L 295 301 L 299 312 L 299 331 L 300 332 L 293 351 L 287 357 Q 284 356 285 360 L 275 366 Q 269 365 268 368 L 266 368 L 261 370 L 242 370 L 223 365 L 221 362 L 210 356 L 199 335 L 194 330 L 183 330 L 181 328 L 179 329 L 177 328 L 175 330 L 156 330 L 155 331 L 153 330 L 142 335 L 137 343 L 137 358 L 141 371 Q 150 391 166 405 Q 180 416 199 424 L 203 424 L 218 430 L 244 434 L 267 434 Q 271 430 283 432 L 289 429 L 291 430 L 315 422 L 341 406 Q 355 392 366 375 L 366 372 L 372 361 L 372 356 L 374 354 L 376 342 L 376 308 L 371 291 L 361 273 L 359 271 L 356 268 L 353 265 L 348 259 L 328 248 Q 323 249 325 243 L 344 231 L 358 211 L 364 192 L 365 180 L 364 158 L 358 139 Q 349 120 335 107 L 322 96 L 313 92 L 311 90 L 296 86 L 294 84 L 287 84 L 285 82 L 265 80 L 263 80 L 246 80 L 245 81 L 234 80 Z " /><path fill="rgb(11,12,12)" stroke="rgb(11,12,12)" stroke-width="0.6" opacity="1" d="M 248.5 75 L 259 75.5 L 248.5 76 L 248.5 75 Z " /><path fill="rgb(11,12,12)" stroke="rgb(11,12,12)" stroke-width="0.6" opacity="1" d="M 233.5 80 L 242 80.5 L 230.5 82 L 230.5 81 L 233.5 80 Z " /><path fill="rgb(11,12,12)" stroke="rgb(11,12,12)" stroke-width="0.6" opacity="1" d="M 264.5 80 Q 272.9 78.6 277 81.5 L 273.5 82 L 264.5 81 L 264.5 80 Z " /><path fill="rgb(11,12,12)" stroke="rgb(11,12,12)" stroke-width="0.6" opacity="1" d="M 205.5 81 L 204.5 83 L 197.5 85 L 197.5 84 L 205.5 81 Z " /><path fill="rgb(11,12,12)" stroke="rgb(11,12,12)" stroke-width="0.6" opacity="1" d="M 333.5 99 L 340 104.5 L 337.5 103 L 333.5 99 Z " /><path fill="rgb(11,12,12)" stroke="rgb(11,12,12)" stroke-width="0.6" opacity="1" d="M 168.5 100 L 154.5 115 L 156 112.5 L 161.5 106 L 168.5 100 Z " /><path fill="rgb(11,12,12)" stroke="rgb(11,12,12)" stroke-width="0.6" opacity="1" d="M 349.5 114 L 357 124.5 L 354 122.5 L 349.5 114 Z " /><path fill="rgb(11,12,12)" stroke="rgb(11,12,12)" stroke-width="0.6" opacity="1" d="M 151.5 117 L 152 118.5 L 145.5 127 L 147 124.5 L 151.5 117 Z " /><path fill="rgb(11,12,12)" stroke="rgb(11,12,12)" stroke-width="0.6" opacity="1" d="M 241 142 L 254 142.5 L 241.5 144 L 241 142 Z " /><path fill="rgb(11,12,12)" stroke="rgb(11,12,12)" stroke-width="0.6" opacity="1" d="M 255.5 143 Q 263.4 142.1 267 145.5 L 264.5 146 Q 261.8 143.2 255.5 144 L 255.5 143 Z " /><path fill="rgb(11,12,12)" stroke="rgb(11,12,12)" stroke-width="0.6" opacity="1" d="M 227.5 146 L 226.5 148 L 219.5 151 L 219.5 150 L 227.5 146 Z " /><path fill="rgb(11,12,12)" stroke="rgb(11,12,12)" stroke-width="0.6" opacity="1" d="M 135.5 151 L 136 158.5 L 134.5 161 L 134 157.5 L 135.5 151 Z " /><path fill="rgb(11,12,12)" stroke="rgb(11,12,12)" stroke-width="0.6" opacity="1" d="M 369.5 163 L 370 186.5 L 369 186.5 L 369.5 163 Z " /><path fill="rgb(11,12,12)" stroke="rgb(11,12,12)" stroke-width="0.6" opacity="1" d="M 288.5 168 L 291 177.5 L 290 177.5 L 288.5 168 Z " /><path fill="rgb(11,12,12)" stroke="rgb(11,12,12)" stroke-width="0.6" opacity="1" d="M 364.5 168 L 365 179.5 L 364 179.5 L 364.5 168 Z " /><path fill="rgb(11,12,12)" stroke="rgb(11,12,12)" stroke-width="0.6" opacity="1" d="M 283.5 169 Q 288.2 175.3 286 188.5 L 284 189.5 L 285 188.5 L 285 174.5 L 283.5 169 Z " /><path fill="rgb(11,12,12)" stroke="rgb(11,12,12)" stroke-width="0.6" opacity="1" d="M 208.5 174 L 207 176.5 L 203.5 181 L 201.5 182 L 202.5 180 L 205 178.5 Q 203.9 175.2 206.5 176 L 208.5 174 Z " /><path fill="rgb(11,12,12)" stroke="rgb(11,12,12)" stroke-width="0.6" opacity="1" d="M 168.5 179 L 188 179.5 L 168.5 180 L 168.5 179 Z " /><path fill="rgb(11,12,12)" stroke="rgb(11,12,12)" stroke-width="0.6" opacity="1" d="M 167.5 184 L 188 184.5 L 167.5 185 L 167.5 184 Z " /><path fill="rgb(11,12,12)" stroke="rgb(11,12,12)" stroke-width="0.6" opacity="1" d="M 362.5 211 L 363 212.5 L 358.5 220 L 359 218.5 L 362.5 211 Z " /><path fill="rgb(11,12,12)" stroke="rgb(11,12,12)" stroke-width="0.6" opacity="1" d="M 249.5 220 L 255 220.5 L 242.5 222 L 242.5 221 L 249.5 220 Z " /><path fill="rgb(11,12,12)" stroke="rgb(11,12,12)" stroke-width="0.6" opacity="1" d="M 346.5 234 L 343.5 238 L 335.5 243 L 336.5 241 L 339 239.5 L 340.5 238 L 346.5 234 Z " /><path fill="rgb(11,12,12)" stroke="rgb(11,12,12)" stroke-width="0.6" opacity="1" d="M 356.5 260 L 365 269.5 L 357 262.5 L 356.5 260 Z " /><path fill="rgb(11,12,12)" stroke="rgb(11,12,12)" stroke-width="0.6" opacity="1" d="M 272.5 282 L 283 288.5 L 281.5 288 L 273.5 284 L 272.5 282 Z " /><path fill="rgb(11,12,12)" stroke="rgb(11,12,12)" stroke-width="0.6" opacity="1" d="M 290.5 304 L 294 312.5 L 293 312.5 L 290.5 304 Z " /><path fill="rgb(11,12,12)" stroke="rgb(11,12,12)" stroke-width="0.6" opacity="1" d="M 299.5 315 L 300 330.5 L 299 330.5 L 299.5 315 Z " /><path fill="rgb(11,12,12)" stroke="rgb(11,12,12)" stroke-width="0.6" opacity="1" d="M 381.5 316 L 382 334.5 L 381 334.5 L 381.5 316 Z " /><path fill="rgb(11,12,12)" stroke="rgb(11,12,12)" stroke-width="0.6" opacity="1" d="M 295.5 320 L 296 327.5 L 294.5 331 L 294 328.5 L 295.5 320 Z " /><path fill="rgb(11,12,12)" stroke="rgb(11,12,12)" stroke-width="0.6" opacity="1" d="M 161.5 324 L 172 324.5 L 156.5 326 L 156.5 325 L 161.5 324 Z " /><path fill="rgb(11,12,12)" stroke="rgb(11,12,12)" stroke-width="0.6" opacity="1" d="M 176.5 324 Q 188.2 322.8 196 325.5 L 188.5 326 L 176.5 325 L 176.5 324 Z " /><path fill="rgb(11,12,12)" stroke="rgb(11,12,12)" stroke-width="0.6" opacity="1" d="M 197.5 326 L 204 331.5 L 203.5 333 L 201 332 L 200 328 L 197.5 326 Z " /><path fill="rgb(11,12,12)" stroke="rgb(11,12,12)" stroke-width="0.6" opacity="1" d="M 142.5 328 L 144 328.5 L 136.5 334 L 140.5 329 L 142.5 328 Z " /><path fill="rgb(11,12,12)" stroke="rgb(11,12,12)" stroke-width="0.6" opacity="1" d="M 214.5 351 L 222 357.5 L 220.5 358 L 214.5 351 Z " /><path fill="rgb(11,12,12)" stroke="rgb(11,12,12)" stroke-width="0.6" opacity="1" d="M 291.5 352 L 285.5 359 L 285 357 L 291.5 352 Z " /><path fill="rgb(11,12,12)" stroke="rgb(11,12,12)" stroke-width="0.6" opacity="1" d="M 211.5 356 L 218 361.5 L 214.5 359 L 211.5 356 Z " /><path fill="rgb(11,12,12)" stroke="rgb(11,12,12)" stroke-width="0.6" opacity="1" d="M 376.5 360 L 376 361.5 L 373.5 369 L 373 367.5 L 376.5 360 Z " /><path fill="rgb(11,12,12)" stroke="rgb(11,12,12)" stroke-width="0.6" opacity="1" d="M 134.5 366 L 138 374.5 L 137 374.5 L 134.5 366 Z " /><path fill="rgb(11,12,12)" stroke="rgb(11,12,12)" stroke-width="0.6" opacity="1" d="M 243.5 370 L 259 370.5 L 243.5 371 L 243.5 370 Z " /><path fill="rgb(11,12,12)" stroke="rgb(11,12,12)" stroke-width="0.6" opacity="1" d="M 148.5 393 L 166 409.5 L 165.5 411 L 148.5 393 Z " /><path fill="rgb(11,12,12)" stroke="rgb(11,12,12)" stroke-width="0.6" opacity="1" d="M 175.5 417 L 183 420 L 182.5 422 L 175.5 417 Z " /><path fill="rgb(11,12,12)" stroke="rgb(11,12,12)" stroke-width="0.6" opacity="1" d="M 300.5 426 L 299.5 428 L 290.5 430 L 290.5 429 L 300.5 426 Z " /><path fill="rgb(11,12,12)" stroke="rgb(11,12,12)" stroke-width="0.6" opacity="1" d="M 203.5 430 L 216 433.5 L 213.5 434 L 203.5 431 L 203.5 430 Z " /><path fill="rgb(11,12,12)" stroke="rgb(11,12,12)" stroke-width="0.6" opacity="1" d="M 236.5 432 L 263.5 433 L 269.5 432 L 269.5 433 L 243.5 434 L 236.5 433 L 236.5 432 Z " /><path fill="rgb(11,12,12)" stroke="rgb(11,12,12)" stroke-width="0.6" opacity="1" d="M 225.5 433 L 225.5 435 L 227 435.5 L 223.5 436 L 217 434.5 L 225.5 433 Z " /><path fill="rgb(11,12,12)" stroke="rgb(11,12,12)" stroke-width="0.6" opacity="1" d="M 235.5 436 L 248 437.5 L 237.5 438 L 235.5 436 Z " /><path fill="rgb(11,12,12)" stroke="rgb(11,12,12)" stroke-width="0.6" opacity="1" d="M 271.5 436 L 274 436.5 L 272.5 438 L 261.5 438 L 261.5 437 L 271.5 436 Z " /><path fill="rgb(215,67,63)" stroke="rgb(215,67,63)" stroke-width="0.6" opacity="1" d="M 235.5 82 L 253 82.5 L 239 83 Q 240.3 86.3 235.5 85 L 233 83.5 L 235.5 82 Z " /><path fill="rgb(215,67,63)" stroke="rgb(215,67,63)" stroke-width="0.6" opacity="1" d="M 261.5 82 L 271.5 82 L 273 83.5 L 269.5 85 Q 267.5 82 261.5 83 L 261.5 82 Z " /><path fill="rgb(215,67,63)" stroke="rgb(215,67,63)" stroke-width="0.6" opacity="1" d="M 335.5 109 L 340.5 115 L 335.5 109 Z " /><path fill="rgb(215,67,63)" stroke="rgb(215,67,63)" stroke-width="0.6" opacity="1" d="M 348.5 262 L 349 264 L 355 268.5 L 350.5 265 L 348 263.5 L 348.5 262 Z " /><path fill="rgb(215,67,63)" stroke="rgb(215,67,63)" stroke-width="0.6" opacity="1" d="M 361.5 277 L 367 286.5 L 365 285.5 L 361.5 277 Z " /><path fill="rgb(215,67,63)" stroke="rgb(215,67,63)" stroke-width="0.6" opacity="1" d="M 285.5 288 L 288 289.5 L 290.5 293 L 293 294.5 L 292.5 296 L 285.5 288 Z " /><path fill="rgb(215,67,63)" stroke="rgb(215,67,63)" stroke-width="0.6" opacity="1" d="M 301.5 326 L 302 334.5 L 300 335.5 L 301.5 326 Z " /><path fill="rgb(215,67,63)" stroke="rgb(215,67,63)" stroke-width="0.6" opacity="1" d="M 193.5 332 L 198 335.5 L 200 340.5 L 199 340.5 L 194.5 333 L 193.5 332 Z " /><path fill="rgb(215,67,63)" stroke="rgb(215,67,63)" stroke-width="0.6" opacity="1" d="M 350.5 392 L 350 393.5 L 342.5 402 L 342 400 L 349 394.5 L 350.5 392 Z " /><path fill="rgb(215,67,63)" stroke="rgb(215,67,63)" stroke-width="0.6" opacity="1" d="M 249.5 429 L 265 430.5 L 244.5 431 L 244.5 430 L 249.5 429 Z " /><path fill="rgb(64,60,59)" stroke="rgb(64,60,59)" stroke-width="0.6" opacity="1" d="M 334.5 107 L 341.5 115 L 334.5 107 Z " /><path fill="rgb(64,60,59)" stroke="rgb(64,60,59)" stroke-width="0.6" opacity="1" d="M 172.5 185 L 183 185.5 L 172.5 186 L 172.5 185 Z " /><path fill="rgb(64,60,59)" stroke="rgb(64,60,59)" stroke-width="0.6" opacity="1" d="M 286.5 290 L 291.5 296 L 286.5 290 Z " /><path fill="rgb(64,60,59)" stroke="rgb(64,60,59)" stroke-width="0.6" opacity="1" d="M 300.5 317 L 301 329.5 L 300 329.5 L 300.5 317 Z " /><path fill="rgb(64,60,59)" stroke="rgb(64,60,59)" stroke-width="0.6" opacity="1" d="M 289.5 355 L 284.5 361 L 289.5 355 Z " /><path fill="rgb(64,60,59)" stroke="rgb(64,60,59)" stroke-width="0.6" opacity="1" d="M 350.5 394 L 341.5 404 L 350.5 394 Z " /><path fill="rgb(33,37,37)" stroke="rgb(33,37,37)" stroke-width="0.6" opacity="1" d="M 247.5 74 L 260 74.5 L 247.5 75 L 247.5 74 Z " /><path fill="rgb(33,37,37)" stroke="rgb(33,37,37)" stroke-width="0.6" opacity="1" d="M 248.5 80 L 260 80.5 L 248.5 81 L 248.5 80 Z " /><path fill="rgb(33,37,37)" stroke="rgb(33,37,37)" stroke-width="0.6" opacity="1" d="M 340.5 104 L 345.5 110 L 340.5 104 Z " /><path fill="rgb(33,37,37)" stroke="rgb(33,37,37)" stroke-width="0.6" opacity="1" d="M 215.5 241 L 216 257.5 L 215 257.5 L 215.5 241 Z " /><path fill="rgb(33,37,37)" stroke="rgb(33,37,37)" stroke-width="0.6" opacity="1" d="M 152.5 398 L 160.5 407 L 152.5 398 Z " /><path fill="rgb(33,37,37)" stroke="rgb(33,37,37)" stroke-width="0.6" opacity="1" d="M 353.5 400 L 348.5 406 L 353.5 400 Z " /><path fill="rgb(33,37,37)" stroke="rgb(33,37,37)" stroke-width="0.6" opacity="1" d="M 245.5 432 L 264 432.5 L 245.5 433 L 245.5 432 Z " /><path fill="rgb(33,37,37)" stroke="rgb(33,37,37)" stroke-width="0.6" opacity="1" d="M 248.5 438 L 260 438.5 L 248.5 439 L 248.5 438 Z " /><path fill="rgb(154,67,62)" stroke="rgb(154,67,62)" stroke-width="0.6" opacity="1" d="M 363.5 169 L 364 179.5 L 363 179.5 L 363.5 169 Z " /><path fill="rgb(154,67,62)" stroke="rgb(154,67,62)" stroke-width="0.6" opacity="1" d="M 170.5 178 L 186 178.5 L 170.5 179 L 170.5 178 Z " /><path fill="rgb(154,67,62)" stroke="rgb(154,67,62)" stroke-width="0.6" opacity="1" d="M 375.5 319 L 376 330.5 L 375 330.5 L 375.5 319 Z " /><path fill="rgb(188,64,60)" stroke="rgb(188,64,60)" stroke-width="0.6" opacity="1" d="M 245.5 81 L 263 81.5 L 245.5 82 L 245.5 81 Z " /><path fill="rgb(188,64,60)" stroke="rgb(188,64,60)" stroke-width="0.6" opacity="1" d="M 244.5 431 L 265 431.5 L 244.5 432 L 244.5 431 Z " /><path fill="rgb(213,213,213)" stroke="rgb(213,213,213)" stroke-width="0.6" opacity="1" d="M 248.5 73 L 259 73.5 L 248.5 74 L 248.5 73 Z " /><path fill="rgb(213,213,213)" stroke="rgb(213,213,213)" stroke-width="0.6" opacity="1" d="M 339.5 102 L 346.5 110 L 339.5 102 Z " /><path fill="rgb(213,213,213)" stroke="rgb(213,213,213)" stroke-width="0.6" opacity="1" d="M 214.5 242 L 215 255.5 L 214 255.5 L 214.5 242 Z " /><path fill="rgb(213,213,213)" stroke="rgb(213,213,213)" stroke-width="0.6" opacity="1" d="M 355.5 399 L 347.5 408 L 355.5 399 Z " /><path fill="rgb(213,213,213)" stroke="rgb(213,213,213)" stroke-width="0.6" opacity="1" d="M 247.5 439 L 262 439.5 L 247.5 440 L 247.5 439 Z " /><path fill="rgb(89,89,88)" stroke="rgb(89,89,88)" stroke-width="0.6" opacity="1" d="M 221.5 243 L 222 255.5 L 221 255.5 L 221.5 243 Z " /><path fill="rgb(89,89,88)" stroke="rgb(89,89,88)" stroke-width="0.6" opacity="1" d="M 169.5 323 L 184 323.5 L 169.5 324 L 169.5 323 Z " /><path fill="rgb(181,181,181)" stroke="rgb(181,181,181)" stroke-width="0.6" opacity="1" d="M 355.5 258 L 361.5 265 L 355.5 258 Z " /><path fill="rgb(218,87,85)" stroke="rgb(218,87,85)" stroke-width="0.6" opacity="1" d="M 222.5 242 L 223 256.5 L 222 256.5 L 222.5 242 Z " /></svg>