<svg width="627" height="627" preserveAspectRatio="xMidYMid meet" viewBox="0 0 512 512" version="1.1" xmlns="http://www.w3.org/2000/svg" ><path fill="rgb(255,255,255)" stroke="rgb(255,255,255)" stroke-width="0.6" opacity="1" d="M 0 0 L 512 0 L 512 512 L 0 512 L 0 0 Z M 300 50 L 298 51 L 289 71 L 280 68 L 265 66 Q 230 68 212 85 Q 198 97 190 115 L 184 137 L 183 150 L 178 166 Q 172 177 162 185 L 156 197 Q 154 213 161 221 Q 176 239 207 242 L 230 242 L 255 237 Q 280 229 298 214 Q 313 201 324 183 Q 333 167 336 146 Q 338 111 322 95 L 304 79 L 315 62 L 314 56 Q 311 48 300 50 Z M 423 243 L 421 244 L 413 262 L 392 256 Q 376 255 366 258 Q 351 262 341 271 Q 327 282 319 300 Q 312 318 310 342 Q 307 354 300 362 L 293 367 Q 283 373 279 385 L 279 400 L 289 417 Q 305 433 335 437 L 357 437 L 378 433 Q 404 425 422 409 Q 450 386 457 342 Q 459 303 441 284 L 428 273 L 428 270 L 437 256 L 436 250 Q 433 243 423 243 Z M 129 245 L 125 247 L 121 252 L 124 264 L 123 265 L 113 265 L 99 269 L 79 282 Q 66 293 60 311 L 56 327 L 55 338 L 58 365 L 67 396 Q 69 416 63 428 Q 62 441 67 448 Q 75 459 93 462 Q 115 464 129 457 Q 149 449 165 435 Q 197 406 207 355 Q 209 332 204 317 Q 199 300 189 289 Q 175 268 144 265 L 142 264 L 141 250 Q 139 243 129 245 Z " /><path fill="rgb(240,139,45)" stroke="rgb(240,139,45)" stroke-width="0.6" opacity="1" d="M 302.5 56 Q 307.3 55.3 308 58.5 L 306 65.5 L 297.5 77 L 294 75.5 L 302.5 56 Z " /><path fill="rgb(240,139,45)" stroke="rgb(240,139,45)" stroke-width="0.6" opacity="1" d="M 110.5 272 L 124.5 272 Q 128.5 275.5 137.5 274 Q 141.6 269.6 152.5 272 Q 174.2 278.3 186 294.5 Q 194.6 305.9 199 321.5 Q 202.2 333.8 201 350.5 Q 192.3 403.8 158.5 432 Q 144.9 443.9 126.5 451 L 112.5 455 L 89.5 455 Q 77.9 452.1 72 443.5 Q 68.8 437.7 70 427.5 L 74 410.5 L 74 397.5 L 71 382.5 L 64 362.5 L 62 348.5 L 62 333.5 L 67 310.5 L 75 295.5 L 85.5 284 Q 95.6 275.6 110.5 272 Z " /><path fill="rgb(72,146,70)" stroke="rgb(72,146,70)" stroke-width="0.6" opacity="1" d="M 424.5 249 L 431 251.5 Q 429.3 264.3 420.5 270 L 416 266.5 L 424.5 249 Z " /><path fill="rgb(72,146,70)" stroke="rgb(72,146,70)" stroke-width="0.6" opacity="1" d="M 374.5 262 Q 399.4 259.1 410 270.5 Q 409.2 273.1 412.5 272 L 416.5 275 L 426.5 278 L 437 287.5 Q 453 306 451 342.5 Q 444.4 383.9 417.5 405 Q 400.1 420.6 374.5 428 L 358.5 431 L 333.5 431 L 322.5 429 L 303.5 421 L 290 408.5 Q 284.1 401.9 284 389.5 Q 285.8 379.3 292.5 374 L 308 360.5 L 315 345.5 L 320 315.5 L 324 302.5 Q 331.5 285 345.5 274 Q 357.1 265.1 374.5 262 Z " /><path fill="rgb(239,92,75)" stroke="rgb(239,92,75)" stroke-width="0.6" opacity="1" d="M 252.5 73 Q 272 71 284.5 76 Q 290.9 84.1 303.5 86 L 315 95.5 Q 330.7 110.3 330 141.5 Q 323.3 187.8 292.5 210 Q 274.7 224.7 249.5 232 L 225.5 236 L 209.5 236 Q 181.6 233.9 167 218.5 Q 160.2 212.3 162 197.5 L 165 190.5 L 179 175.5 L 185 164.5 L 189 150.5 L 193 124.5 L 201 106.5 L 217.5 88 Q 231.2 76.7 252.5 73 Z " /><path fill="rgb(239,92,75)" stroke="rgb(239,92,75)" stroke-width="0.6" opacity="1" d="M 129.5 251 Q 135 250 136 253.5 L 136 265.5 L 133.5 268 L 130 266.5 L 128 252.5 L 129.5 251 Z " /><path fill="rgb(10,10,10)" stroke="rgb(10,10,10)" stroke-width="0.6" opacity="1" d="M 299.5 51 Q 309.9 49.6 313 55.5 L 314 60.5 L 303 79.5 L 320 93.5 Q 328.9 103.6 333 118.5 Q 336.1 128.9 335 143.5 Q 327.9 187.9 299.5 211 Q 279.6 228.6 250.5 237 L 227.5 241 L 208.5 241 Q 178.5 238.5 163 221.5 L 157 209.5 L 157 197.5 L 161 187.5 L 175 172.5 L 180 163.5 L 183 154.5 L 187 127.5 L 191 114.5 Q 197.8 98.8 209.5 88 Q 221.5 77 238.5 71 Q 252.4 65.9 273.5 68 L 289.5 72 L 292 68.5 L 296 54.5 L 299.5 51 Z M 302 55 L 299 58 L 293 77 L 298 79 Q 306 71 310 59 Q 309 54 302 55 Z M 262 71 Q 230 73 214 90 Q 201 101 194 119 Q 188 135 187 156 L 183 167 Q 177 179 166 188 L 161 197 Q 159 212 166 219 Q 180 234 208 237 Q 235 239 254 232 Q 279 224 297 208 Q 324 186 331 143 L 331 131 L 329 119 L 318 98 L 306 86 L 291 80 L 285 75 L 275 72 L 262 71 Z " /><path fill="rgb(10,10,10)" stroke="rgb(10,10,10)" stroke-width="0.6" opacity="1" d="M 421.5 245 Q 432.3 243.2 435 249.5 L 436 254.5 L 426 271.5 L 442 286.5 Q 456.6 304.9 456 338.5 Q 454.4 355.9 449 369.5 Q 439.8 391.3 423.5 406 Q 408.7 419.7 388.5 428 L 362.5 435 L 337.5 436 Q 302.9 432.6 286 411.5 L 280 398.5 L 280 385.5 Q 283.1 374.6 291.5 369 L 302 360.5 L 311 342.5 L 316 311.5 L 320 299.5 Q 327.1 283.6 339.5 273 Q 350.5 263.5 366.5 259 Q 375.9 255.9 389.5 257 Q 402.3 258.7 411.5 264 L 416 258.5 L 419 247.5 L 421.5 245 Z M 425 248 L 422 251 L 421 257 L 415 269 L 421 271 L 431 258 L 432 253 Q 430 248 425 248 Z M 377 261 Q 356 264 344 275 Q 332 284 325 299 Q 317 317 315 343 L 307 361 L 296 371 Q 286 375 284 387 Q 282 402 289 409 Q 304 428 336 432 Q 360 434 377 428 Q 401 420 419 405 Q 446 383 452 339 Q 453 304 437 287 L 427 277 L 413 272 L 403 264 Q 392 260 377 261 Z " /><path fill="rgb(10,10,10)" stroke="rgb(10,10,10)" stroke-width="0.6" opacity="1" d="M 129.5 246 Q 136.4 245.1 139 248.5 L 141 252.5 L 141 264.5 L 142.5 266 L 148.5 266 L 163.5 270 Q 176.8 276.2 186 286.5 Q 198.6 299.9 204 320.5 Q 207.7 334.3 206 353.5 Q 196.2 409.2 159.5 438 Q 146.7 448.2 130.5 455 L 114.5 460 L 93.5 461 Q 77 459 69 448.5 Q 63.5 442 64 429.5 L 68 415.5 L 68 394.5 L 59 364.5 Q 55.5 349 57 328.5 Q 62.1 295.6 83.5 279 L 101.5 269 Q 110 265 123.5 266 L 125 264.5 L 122 251.5 L 124.5 248 L 129.5 246 Z M 130 250 L 126 253 L 129 268 L 135 269 L 137 267 L 137 253 Q 136 249 130 250 Z M 114 270 Q 98 273 88 281 Q 66 297 61 330 L 62 359 L 72 395 Q 74 415 68 428 Q 66 440 72 446 Q 79 455 93 457 L 110 457 L 128 452 Q 149 444 164 429 Q 193 402 202 354 Q 204 335 200 321 Q 195 304 185 292 Q 173 275 150 270 Q 140 269 135 273 Q 127 274 124 270 L 114 270 Z " /><path fill="rgb(77,82,68)" stroke="rgb(77,82,68)" stroke-width="0.6" opacity="1" d="M 290.5 409 L 297.5 417 L 290.5 409 Z " /><path fill="rgb(77,82,68)" stroke="rgb(77,82,68)" stroke-width="0.6" opacity="1" d="M 339.5 431 L 352 431.5 L 339.5 432 L 339.5 431 Z " /><path fill="rgb(54,55,54)" stroke="rgb(54,55,54)" stroke-width="0.6" opacity="1" d="M 342.5 276 L 335.5 284 L 342.5 276 Z " /><path fill="rgb(54,55,54)" stroke="rgb(54,55,54)" stroke-width="0.6" opacity="1" d="M 451.5 327 L 452 337.5 L 451 337.5 L 451.5 327 Z " /><path fill="rgb(30,32,34)" stroke="rgb(30,32,34)" stroke-width="0.6" opacity="1" d="M 305.5 198 L 296.5 208 L 305.5 198 Z " /><path fill="rgb(30,32,34)" stroke="rgb(30,32,34)" stroke-width="0.6" opacity="1" d="M 304.5 363 L 299.5 369 L 304.5 363 Z " /><path fill="rgb(30,32,34)" stroke="rgb(30,32,34)" stroke-width="0.6" opacity="1" d="M 171.5 426 L 165.5 433 L 171.5 426 Z " /><path fill="rgb(173,173,173)" stroke="rgb(173,173,173)" stroke-width="0.6" opacity="1" d="M 210.5 86 L 204.5 93 L 210.5 86 Z " /><path fill="rgb(136,137,136)" stroke="rgb(136,137,136)" stroke-width="0.6" opacity="1" d="M 313.5 86 L 318.5 92 L 313.5 86 Z " /><path fill="rgb(136,137,136)" stroke="rgb(136,137,136)" stroke-width="0.6" opacity="1" d="M 170.5 176 L 165.5 182 L 170.5 176 Z " /><path fill="rgb(102,103,102)" stroke="rgb(102,103,102)" stroke-width="0.6" opacity="1" d="M 174.5 179 L 169.5 185 L 174.5 179 Z " /><path fill="rgb(130,97,58)" stroke="rgb(130,97,58)" stroke-width="0.6" opacity="1" d="M 201.5 335 L 202 348.5 L 201 348.5 L 201.5 335 Z " /><path fill="rgb(220,133,56)" stroke="rgb(220,133,56)" stroke-width="0.6" opacity="1" d="M 177.5 285 L 182.5 291 L 177.5 285 Z " /><path fill="rgb(186,87,72)" stroke="rgb(186,87,72)" stroke-width="0.6" opacity="1" d="M 214.5 90 L 208.5 97 L 214.5 90 Z " /><path fill="rgb(186,87,72)" stroke="rgb(186,87,72)" stroke-width="0.6" opacity="1" d="M 306.5 196 L 296.5 207 L 306.5 196 Z " /><path fill="rgb(176,132,50)" stroke="rgb(176,132,50)" stroke-width="0.6" opacity="1" d="M 167.5 423 L 162.5 429 L 167.5 423 Z " /></svg>