<svg width="627" height="627" preserveAspectRatio="xMidYMid meet" viewBox="0 0 512 512" version="1.1" xmlns="http://www.w3.org/2000/svg" ><path fill="rgb(255,255,255)" stroke="rgb(255,255,255)" stroke-width="0.6" opacity="1" d="M 0 0 L 512 0 L 512 512 L 0 512 L 0 0 Z M 290 78 L 283 85 L 283 89 L 281 90 Q 269 97 266 114 L 265 115 L 252 116 L 243 99 L 240 96 Q 233 94 233 86 L 228 81 Q 217 79 215 87 L 216 98 L 222 101 Q 230 102 234 97 Q 243 103 245 117 L 238 122 L 231 131 L 228 132 L 222 123 Q 209 106 186 100 Q 170 98 161 103 Q 151 109 147 121 L 147 146 Q 151 160 159 170 Q 168 182 183 186 L 182 188 Q 168 197 166 217 Q 166 229 171 236 Q 175 243 185 245 L 201 245 L 216 238 L 225 230 L 222 242 L 218 247 Q 219 250 226 249 L 231 233 L 237 228 L 240 230 L 236 239 L 236 249 L 232 252 Q 231 256 235 257 L 239 256 L 241 254 L 241 240 L 245 234 L 257 234 L 259 237 L 258 248 Q 256 256 262 258 L 266 257 Q 267 251 264 250 L 265 246 L 263 230 L 267 228 L 273 238 Q 270 249 277 252 L 282 251 Q 283 245 279 245 L 278 235 L 269 224 L 272 218 L 278 230 Q 287 243 305 247 Q 319 249 326 244 Q 334 238 337 228 L 336 208 L 327 191 L 347 180 Q 359 169 364 151 L 364 128 L 358 115 Q 351 106 339 104 L 325 104 L 305 112 L 284 130 L 283 127 L 271 117 Q 273 102 283 95 L 290 98 L 296 98 L 303 90 L 302 83 Q 299 77 290 78 Z M 418 253 L 413 255 Q 408 257 408 264 L 396 277 L 392 288 L 391 289 L 378 290 L 369 273 L 367 271 L 360 265 L 360 261 Q 358 253 347 255 Q 339 257 341 269 L 348 274 Q 356 275 359 271 L 362 272 Q 370 278 371 292 L 364 296 L 357 304 L 356 305 L 351 299 Q 338 281 315 273 L 296 273 L 287 277 Q 278 284 275 296 L 275 318 Q 278 331 286 341 Q 294 352 308 358 Q 311 357 310 360 L 308 361 Q 299 369 295 382 Q 292 402 301 412 L 312 418 L 331 418 L 345 410 L 352 404 Q 349 407 350 415 L 348 416 L 346 420 Q 347 423 352 422 L 355 419 L 356 409 Q 360 402 367 401 L 362 416 L 362 423 L 359 426 L 361 429 L 367 428 L 368 427 L 368 415 L 373 406 L 377 408 L 384 406 L 386 410 L 386 420 L 384 427 L 390 431 L 393 429 Q 394 424 391 423 L 392 419 L 392 410 L 390 403 L 393 401 Q 401 407 400 423 L 404 425 L 408 424 Q 409 418 405 418 L 404 408 L 395 397 L 398 391 L 405 405 Q 414 417 432 421 Q 447 422 454 414 Q 460 408 462 398 L 461 380 L 451 366 L 451 363 L 455 363 L 466 357 Q 477 348 485 335 L 490 319 L 490 300 L 484 288 Q 479 280 469 278 L 452 278 L 438 283 Q 423 291 413 304 L 397 292 L 397 288 L 402 278 L 411 270 Q 413 275 423 273 L 429 265 L 427 258 Q 425 253 418 253 Z M 158 258 L 151 265 L 151 269 L 149 270 Q 137 277 135 293 L 133 295 L 122 295 L 113 279 L 106 273 L 103 265 Q 100 259 92 260 L 85 267 L 85 274 L 93 280 Q 101 281 104 276 Q 112 283 114 297 L 110 299 L 103 308 L 98 310 L 94 303 L 75 285 L 56 278 L 45 278 L 35 282 Q 25 288 22 301 L 22 325 L 33 348 Q 40 359 54 363 L 53 365 Q 43 372 39 386 Q 36 406 45 415 L 56 421 L 73 421 L 92 410 L 94 409 L 93 418 L 89 421 Q 88 425 92 426 L 96 425 L 98 423 Q 97 413 101 410 L 108 404 L 110 406 Q 105 412 106 426 L 103 429 L 106 433 L 111 432 L 113 428 L 111 422 L 113 413 L 116 410 L 121 412 L 126 411 Q 127 408 129 413 L 128 432 L 133 434 L 137 433 Q 138 427 134 426 L 134 410 L 133 409 L 134 406 L 136 404 L 143 415 L 143 426 L 148 428 L 152 425 L 148 420 Q 149 412 146 408 L 139 400 L 140 397 L 142 395 L 150 408 Q 159 418 175 422 Q 187 424 194 419 L 203 409 L 206 399 Q 207 375 194 367 L 207 359 Q 225 346 230 320 Q 232 300 225 291 L 218 283 L 206 279 Q 192 278 185 282 L 169 292 L 155 307 L 140 297 Q 141 281 152 274 L 157 277 L 165 277 L 170 271 L 169 263 Q 167 256 158 258 Z " /><path fill="rgb(255,255,255)" stroke="rgb(255,255,255)" stroke-width="0.6" opacity="1" d="M 232 218 L 235 219.5 L 233.5 223 L 229 225 L 232 218 Z " /><path fill="rgb(255,255,255)" stroke="rgb(255,255,255)" stroke-width="0.6" opacity="1" d="M 359 391 L 362 392.5 L 359.5 397 L 354.5 401 L 354 399.5 L 359 391 Z " /><path fill="rgb(255,255,255)" stroke="rgb(255,255,255)" stroke-width="0.6" opacity="1" d="M 102 395 L 105 396.5 L 100.5 402 L 99 400.5 L 102 395 Z " /><path fill="rgb(2,2,2)" stroke="rgb(2,2,2)" stroke-width="0.6" opacity="1" d="M 289.5 79 Q 300.2 77.2 302 84.5 L 302 90.5 L 295.5 97 L 289.5 97 L 282.5 94 Q 271.8 101.3 270 117.5 L 283 127.5 L 284.5 132 L 303.5 114 L 323.5 105 L 335.5 104 L 347.5 107 L 358 116.5 L 364 129.5 L 364 147.5 Q 358.3 170.8 341.5 183 L 325 191 L 335 206.5 L 337 224.5 Q 334.6 237.1 325.5 243 L 319.5 246 L 308.5 247 Q 288.6 243.4 279 229.5 L 273 217 Q 269.2 215.5 270 218.5 L 268 224.5 L 276 232.5 Q 279.2 235.8 278 243.5 L 282 249.5 L 276.5 251 L 274 248.5 L 274 237.5 L 266.5 227 L 262 229.5 Q 264.9 236.1 264 246.5 L 263 250.5 L 266 255.5 L 261.5 257 Q 257 255 259 246.5 L 260 237.5 L 257.5 233 L 248.5 234 L 244.5 233 Q 237.8 238.3 240 252.5 L 236.5 256 L 232 254.5 L 236 248.5 L 236 240.5 L 241 228.5 L 236.5 226 L 230 232.5 Q 225.8 236.3 227 245.5 L 224.5 248 L 219 246.5 L 223 241.5 L 225 231.5 L 232.5 224 L 236 221.5 L 233.5 216 L 232 217.5 Q 225.8 229.3 215.5 237 L 201.5 244 L 187.5 245 Q 177.4 242.6 172 235.5 Q 166.1 228.4 167 214.5 Q 169.8 197.3 181.5 189 L 184 187.5 L 182.5 185 Q 168.1 180.4 160 169.5 L 148 146.5 L 147 123.5 Q 150.7 110.7 160.5 104 L 171.5 100 L 182.5 100 Q 207.2 105.8 221 122.5 L 228.5 133 Q 231.8 134.1 231 131.5 L 241.5 120 L 246 117.5 Q 244.3 103.7 235.5 97 L 232.5 96 Q 230.1 101.6 220.5 100 Q 213.3 98.3 215 87.5 L 221.5 81 L 226.5 81 L 232 85.5 L 235.5 94 L 244 101.5 L 251.5 117 L 265.5 116 L 267 114.5 Q 269.3 98.3 280.5 91 L 284 88.5 L 284 84.5 L 289.5 79 Z M 289 83 L 287 85 L 288 93 Q 289 95 295 94 Q 299 93 298 86 Q 296 81 289 83 Z M 225 84 L 222 85 L 218 91 L 222 96 Q 229 97 230 93 L 229 87 L 225 84 Z M 170 105 L 160 110 Q 153 115 151 125 L 152 147 Q 156 160 164 169 Q 176 181 196 186 L 224 186 L 232 184 L 237 175 L 237 171 Q 229 165 227 154 L 228 142 L 219 127 Q 208 115 194 107 Q 184 103 170 105 Z M 327 109 L 316 112 L 299 123 L 287 136 L 289 142 L 288 158 L 281 170 L 278 172 Q 274 174 276 183 L 281 186 L 295 190 Q 324 193 339 181 Q 356 170 360 146 Q 362 126 354 118 Q 347 106 327 109 Z M 254 120 L 244 124 Q 233 130 231 146 Q 230 158 235 164 Q 241 173 254 175 Q 266 176 273 172 L 283 161 L 285 153 Q 287 138 281 132 L 269 121 L 254 120 Z M 243 174 L 238 183 L 236 195 L 237 202 Q 241 208 251 210 Q 261 211 268 208 L 271 205 L 272 198 L 272 178 L 271 176 L 263 179 Q 249 180 243 174 Z M 231 187 L 218 191 Q 204 193 197 189 L 191 189 L 183 194 Q 175 200 172 211 Q 169 227 176 235 L 187 240 L 201 240 L 215 233 Q 226 223 233 209 L 232 203 L 232 196 Q 235 194 234 189 L 231 187 Z M 278 189 L 276 191 Q 278 200 274 204 L 274 214 L 284 230 Q 293 240 309 243 Q 319 244 324 240 L 332 228 Q 334 212 329 204 L 319 193 L 309 195 L 295 194 L 278 189 Z M 238 206 L 238 217 L 242 226 L 250 230 L 258 229 Q 265 224 267 214 L 267 211 L 263 213 Q 245 215 238 206 Z " /><path fill="rgb(2,2,2)" stroke="rgb(2,2,2)" stroke-width="0.6" opacity="1" d="M 247.5 134 Q 254.8 132.8 256 137.5 L 256 144.5 L 250.5 151 L 244 148.5 L 243 140.5 L 247.5 134 Z M 249 136 L 246 141 L 250 142 L 252 139 L 249 136 Z " /><path fill="rgb(2,2,2)" stroke="rgb(2,2,2)" stroke-width="0.6" opacity="1" d="M 270.5 134 Q 274.3 133 273 136 L 268 138 L 269.5 142 Q 274.3 142.8 275 139.5 Q 273.9 136.2 276.5 137 Q 280 139 278 146.5 Q 277 152 269.5 151 Q 264 149 266 139.5 L 270.5 134 Z " /><path fill="rgb(2,2,2)" stroke="rgb(2,2,2)" stroke-width="0.6" opacity="1" d="M 252 159 L 257.5 163 L 262.5 163 L 269 159 L 264.5 165 Q 254.8 166.8 252 161.5 L 252 159 Z " /><path fill="rgb(2,2,2)" stroke="rgb(2,2,2)" stroke-width="0.6" opacity="1" d="M 416.5 254 Q 423.7 253.3 426 257.5 L 428 265.5 L 422.5 272 L 414.5 272 L 409.5 269 Q 398.5 276 396 291.5 L 409 302.5 L 410.5 305 L 412.5 305 Q 422.7 292.2 437.5 284 L 450.5 279 L 465.5 278 Q 476 280 482 286.5 L 489 298.5 L 490 314.5 L 484 334.5 L 466.5 355 L 449 364.5 L 459 376.5 Q 463 384.5 461 398.5 Q 458.4 410.4 449.5 416 Q 443.5 421.5 430.5 420 Q 414.3 416.2 406 404.5 L 399 390 Q 395.2 388.5 396 391.5 L 394 396.5 L 403 406.5 L 404 417.5 L 408 422.5 L 402.5 424 Q 398.2 422.3 401 420.5 Q 401.5 405.5 392.5 400 L 389 401.5 Q 388.2 406.8 391 408.5 L 391 419.5 L 390 422.5 L 393 428.5 L 388.5 430 Q 384.3 429.2 385 423.5 Q 388.1 419.1 387 410.5 L 384.5 405 Q 381.8 407.8 375.5 407 L 371.5 405 Q 365.7 410.7 368 424.5 L 364.5 428 Q 358.6 430.1 360 425.5 L 363 422.5 L 363 414.5 L 368 401.5 Q 365.8 396.8 363.5 401 L 355 408.5 L 354 415.5 L 355 417.5 Q 354.2 421.8 348.5 421 L 347 418.5 L 351 415.5 Q 350.1 402.1 358.5 398 L 363 394.5 L 360.5 389 L 359 390.5 L 344.5 409 L 327.5 418 L 313.5 418 Q 303.8 415.3 299 407.5 L 295 396.5 L 295 385.5 Q 297.9 371.4 306.5 363 L 311 359.5 L 309.5 358 Q 295.6 351.9 287 340.5 Q 279.5 331.5 276 318.5 L 275 297.5 L 278 288.5 L 288.5 277 L 297.5 273 L 312.5 273 Q 336.3 280.7 350 298.5 L 355.5 306 Q 359.3 307.3 358 303.5 L 372 291.5 Q 370.1 276.9 360.5 270 L 352.5 274 L 348.5 274 L 342 268.5 Q 340 258 346.5 256 Q 357 254 359 260.5 L 359 264.5 L 370 275.5 Q 374.5 280 375 288.5 L 377.5 291 L 391.5 290 L 393 288.5 Q 395.7 273.2 406.5 266 L 409 264.5 Q 408.1 257.6 412.5 256 L 416.5 254 Z M 351 258 L 349 259 Q 344 261 345 268 Q 347 271 354 270 L 357 266 L 356 262 L 351 258 Z M 417 258 L 415 259 Q 411 261 413 268 L 418 270 L 421 269 Q 425 268 424 262 L 420 258 L 417 258 Z M 304 277 L 292 280 Q 281 287 279 302 Q 279 326 290 339 L 306 352 L 329 359 Q 347 361 360 356 L 363 349 L 363 346 Q 356 339 353 329 L 353 316 L 354 315 L 353 310 L 342 296 L 327 283 L 312 277 L 304 277 Z M 458 282 Q 441 285 430 294 L 413 313 L 415 318 Q 416 333 409 341 L 404 345 Q 400 347 402 355 L 407 358 L 421 362 Q 451 365 466 351 Q 482 339 486 316 Q 488 298 480 291 Q 474 281 458 282 Z M 378 294 L 369 298 Q 360 304 357 315 Q 355 329 360 337 Q 366 345 379 348 L 390 348 L 399 345 L 410 331 L 410 314 L 404 302 L 392 294 L 378 294 Z M 368 348 L 365 352 L 364 361 L 364 376 L 366 378 L 364 382 Q 364 392 369 399 L 379 403 L 385 402 Q 392 397 394 387 L 393 384 L 386 386 L 375 385 L 373 383 L 371 381 L 377 383 Q 389 385 395 380 L 397 378 L 398 373 L 398 351 L 397 349 L 390 352 L 380 352 L 368 348 Z M 355 360 L 347 363 L 327 363 L 323 361 Q 315 360 312 364 Q 301 372 299 388 Q 298 399 302 406 Q 306 412 314 414 Q 330 416 339 409 Q 351 399 359 384 L 359 363 L 360 362 L 355 360 Z M 405 361 L 402 364 Q 404 373 400 378 L 402 391 L 411 405 Q 418 413 431 416 Q 442 418 448 413 Q 455 408 457 397 L 456 382 Q 453 371 445 365 L 441 366 L 423 366 L 405 361 Z " /><path fill="rgb(2,2,2)" stroke="rgb(2,2,2)" stroke-width="0.6" opacity="1" d="M 159.5 258 Q 166.8 258.2 169 263.5 Q 170.6 273.6 164.5 276 L 156.5 276 L 151.5 273 Q 140.5 280 139 296.5 L 154.5 308 Q 166.5 292.5 184.5 283 L 193.5 280 L 203.5 279 L 216.5 284 L 226 293.5 Q 231.3 303.3 229 320.5 Q 224.3 341.8 210.5 354 L 193 365.5 L 204 381.5 L 205 398.5 L 202 408.5 L 191.5 419 Q 185.4 422.9 173.5 421 Q 160.3 417.3 152 408.5 L 141.5 393 L 139 394.5 L 138 399.5 L 145 407.5 Q 148.3 411.2 147 419.5 L 151 425.5 L 146.5 427 Q 140.2 424.2 143 412.5 L 135.5 403 L 132 408.5 L 134 411.5 L 134 424.5 L 133 426.5 L 136 431.5 L 131.5 433 Q 126.8 430.8 129 421.5 L 130 413.5 L 127.5 409 L 119.5 411 L 115.5 409 Q 109.6 412.1 111 422.5 L 112 428.5 Q 111.3 432.7 105.5 432 L 104 428.5 L 107 425.5 L 107 414.5 L 111 405.5 L 107.5 403 L 101 407.5 Q 96.8 411.3 98 420.5 L 93.5 425 L 89 423.5 L 91.5 419 L 94 417.5 Q 94.3 404.3 103.5 400 L 106 398.5 L 103.5 393 L 102 394.5 Q 96.2 405.7 86.5 413 L 70.5 421 L 57.5 421 Q 47.8 418.3 43 410.5 L 39 398.5 L 39 389.5 Q 41.9 373.9 52.5 366 L 55 364.5 L 53.5 363 L 34 347.5 L 23 325.5 L 22 304.5 Q 24.5 290 34.5 283 L 43.5 279 L 55.5 279 Q 67 280.5 74.5 286 L 95 305.5 L 98.5 311 L 105 306.5 L 111.5 299 L 115 296.5 Q 113.4 281.6 103.5 275 Q 100.6 279.6 93.5 280 L 86 273.5 Q 84.2 262.7 91.5 261 Q 100.8 259.6 103 265.5 Q 101.9 273.1 106.5 275 L 113 280.5 L 121.5 296 L 133.5 295 L 136 292.5 Q 138.7 277.2 149.5 270 L 152 268.5 L 152 264.5 L 157.5 259 L 159.5 258 Z M 161 262 L 157 263 Q 153 264 155 271 L 160 274 L 164 273 Q 167 271 166 266 L 161 262 Z M 95 264 L 93 265 Q 88 267 89 274 L 93 276 L 98 275 L 100 272 L 99 267 L 95 264 Z M 45 283 L 37 287 Q 29 294 26 307 Q 25 332 37 346 Q 49 359 71 364 L 91 364 L 104 361 L 107 353 L 107 350 L 98 338 L 96 331 L 97 323 L 97 317 L 89 305 Q 80 292 65 285 Q 57 282 45 283 Z M 195 284 Q 182 287 174 294 L 156 314 L 158 324 Q 158 337 152 345 L 149 347 Q 143 349 145 359 Q 150 364 161 365 L 186 364 L 208 352 Q 221 341 225 320 L 225 305 L 219 291 L 208 284 L 195 284 Z M 123 299 L 113 303 Q 103 309 100 323 Q 99 335 104 342 Q 110 351 124 353 Q 136 354 143 349 Q 150 344 153 335 Q 155 318 149 310 Q 143 297 123 299 Z M 111 352 Q 106 363 107 380 L 119 387 Q 131 389 137 385 Q 141 383 141 378 L 140 367 L 141 365 Q 143 356 140 354 L 134 356 L 121 356 L 111 352 Z M 100 365 L 97 367 Q 86 365 82 369 L 70 368 L 66 366 Q 57 366 53 371 Q 45 378 43 391 Q 42 402 46 409 L 61 417 Q 77 418 85 410 Q 97 401 103 386 L 102 382 L 103 369 Q 105 363 100 365 Z M 148 365 L 145 368 Q 147 377 143 382 Q 143 393 149 400 L 165 413 L 172 416 L 180 417 Q 188 418 193 414 L 201 402 Q 203 385 197 377 L 187 367 L 181 369 L 162 369 L 148 365 Z M 109 384 L 107 386 Q 107 396 112 403 L 117 406 L 128 405 Q 134 400 137 392 L 136 388 L 128 391 Q 115 391 109 384 Z " /><path fill="rgb(2,2,2)" stroke="rgb(2,2,2)" stroke-width="0.6" opacity="1" d="M 372.5 308 Q 379.5 306.5 381 310.5 L 382 319.5 Q 380.8 325.3 372.5 324 Q 366.8 321.8 369 311.5 L 372.5 308 Z M 375 310 L 371 315 L 376 316 L 378 312 L 375 310 Z " /><path fill="rgb(2,2,2)" stroke="rgb(2,2,2)" stroke-width="0.6" opacity="1" d="M 395.5 308 Q 401.9 308.1 404 312.5 Q 405.7 323.2 398.5 325 Q 392.8 325.8 392 321.5 L 391 314.5 L 395.5 308 Z " /><path fill="rgb(2,2,2)" stroke="rgb(2,2,2)" stroke-width="0.6" opacity="1" d="M 117.5 312 L 125 317.5 Q 126 326.5 120.5 329 Q 113 330 112 324.5 Q 110.5 315.5 115.5 313 L 117.5 312 Z M 117 315 L 115 320 L 119 321 L 121 318 L 117 315 Z " /><path fill="rgb(2,2,2)" stroke="rgb(2,2,2)" stroke-width="0.6" opacity="1" d="M 139.5 312 L 146 314.5 L 147 323.5 L 142.5 329 Q 136 330 135 325.5 Q 133.2 314.7 139.5 312 Z M 139 315 L 137 320 L 143 321 L 144 317 L 139 315 Z " /><path fill="rgb(2,2,2)" stroke="rgb(2,2,2)" stroke-width="0.6" opacity="1" d="M 378.5 332 Q 380.7 336.8 387.5 337 L 392 334.5 L 393.5 332 L 395 333.5 L 388.5 340 L 383.5 340 L 377 334.5 L 378.5 332 Z " /><path fill="rgb(2,2,2)" stroke="rgb(2,2,2)" stroke-width="0.6" opacity="1" d="M 121.5 336 L 125.5 341 Q 134.8 342.8 136.5 337 L 138 338.5 L 133.5 343 L 125.5 344 Q 119.4 342.4 121.5 336 Z " /><path fill="rgb(2,2,2)" stroke="rgb(2,2,2)" stroke-width="0.6" opacity="1" d="M 370 361 Q 377.3 365.4 391 364.5 L 389.5 366 L 378.5 366 L 370 363 L 370 361 Z " /><path fill="rgb(2,2,2)" stroke="rgb(2,2,2)" stroke-width="0.6" opacity="1" d="M 112.5 365 L 122 368 L 120.5 370 Q 113.3 368.9 112.5 365 Z " /><path fill="rgb(58,132,190)" stroke="rgb(58,132,190)" stroke-width="0.6" opacity="1" d="M 222.5 85 L 229 87.5 L 230 92.5 Q 228.1 96.1 222.5 96 L 219 93.5 Q 217.8 86.3 222.5 85 Z " /><path fill="rgb(58,132,190)" stroke="rgb(58,132,190)" stroke-width="0.6" opacity="1" d="M 170.5 105 Q 185.6 103.4 194.5 108 Q 210.4 116.1 221 129.5 L 227 139.5 Q 225 153.5 229 161.5 L 237 170.5 L 237 173.5 L 232.5 183 Q 219.1 188.6 197.5 186 Q 174.5 181 162 165.5 L 153 148.5 L 151 126.5 Q 153.2 114.7 161.5 109 L 170.5 105 Z " /><path fill="rgb(58,132,190)" stroke="rgb(58,132,190)" stroke-width="0.6" opacity="1" d="M 254.5 120 Q 271.8 118.7 278 128.5 Q 286.1 135.4 285 151.5 Q 282.2 165.7 271.5 172 Q 264.6 176.1 251.5 174 Q 241.4 171.6 236 164.5 L 232 156.5 L 231 145.5 Q 233.4 130.4 244.5 124 L 254.5 120 Z M 248 133 L 242 142 L 244 149 Q 245 152 252 151 L 257 144 L 256 138 Q 254 133 248 133 Z M 271 133 L 265 141 L 266 149 Q 268 153 275 151 L 279 146 L 278 138 L 271 133 Z M 251 158 L 253 164 L 258 166 L 266 165 L 269 158 L 267 160 L 262 163 L 257 162 L 255 160 L 251 158 Z " /><path fill="rgb(58,132,190)" stroke="rgb(58,132,190)" stroke-width="0.6" opacity="1" d="M 93.5 265 Q 98.3 264.3 99 267.5 L 100 271.5 Q 98.8 276.2 91.5 275 L 89 269.5 L 93.5 265 Z " /><path fill="rgb(58,132,190)" stroke="rgb(58,132,190)" stroke-width="0.6" opacity="1" d="M 46.5 283 L 55.5 283 L 65.5 286 Q 78.6 291.9 87 302.5 L 96 314.5 L 97 321.5 Q 94 322.5 95 327.5 Q 97.1 341.9 106 349.5 L 106 354.5 L 101.5 361 L 88.5 364 L 72.5 364 L 57.5 360 L 43.5 351 L 36 343.5 Q 26 331 26 308.5 L 28 299.5 L 37.5 287 L 46.5 283 Z " /><path fill="rgb(58,132,190)" stroke="rgb(58,132,190)" stroke-width="0.6" opacity="1" d="M 365 360 Q 372 368.3 390.5 366 L 398 363 L 397 375.5 L 394.5 380 Q 388.7 384.2 377.5 383 Q 368.4 381.1 364 374.5 L 365 360 Z " /><path fill="rgb(58,132,190)" stroke="rgb(58,132,190)" stroke-width="0.6" opacity="1" d="M 100.5 365 L 103 366.5 L 102 382.5 L 103 384.5 Q 96.9 399.4 85.5 409 L 75.5 415 L 57.5 416 L 46 407.5 Q 42 401 44 388.5 Q 46.3 376.3 54.5 370 L 64.5 366 L 68.5 368 L 82.5 369 L 97.5 367 L 100.5 365 Z " /><path fill="rgb(58,132,190)" stroke="rgb(58,132,190)" stroke-width="0.6" opacity="1" d="M 365 380 L 375.5 386 L 383.5 387 L 392.5 384 L 393 386.5 Q 391.5 396.5 384.5 401 L 375.5 402 L 368 396.5 Q 363.8 390.4 365 380 Z " /><path fill="rgb(230,70,72)" stroke="rgb(230,70,72)" stroke-width="0.6" opacity="1" d="M 290.5 83 L 297 85.5 L 298 90.5 Q 296.1 94.1 290.5 94 Q 286.9 92.1 287 86.5 L 290.5 83 Z " /><path fill="rgb(230,70,72)" stroke="rgb(230,70,72)" stroke-width="0.6" opacity="1" d="M 328.5 109 Q 347 108 354 118.5 Q 361 126.5 360 142.5 Q 356.1 169.1 337.5 181 Q 323.6 191.6 297.5 190 L 284.5 187 L 277 182.5 L 276 174.5 Q 284 168.5 288 158.5 L 289 139.5 L 288 135.5 L 299.5 123 L 314.5 113 L 328.5 109 Z " /><path fill="rgb(230,70,72)" stroke="rgb(230,70,72)" stroke-width="0.6" opacity="1" d="M 158.5 263 Q 163.8 261.8 165 264.5 Q 166.5 271.5 162.5 273 Q 157.3 274.3 156 271.5 L 155 266.5 L 158.5 263 Z " /><path fill="rgb(230,70,72)" stroke="rgb(230,70,72)" stroke-width="0.6" opacity="1" d="M 197.5 284 L 209.5 285 L 219 291.5 L 224 301.5 L 225 316.5 Q 221.2 341.7 204.5 354 L 187.5 363 Q 177.9 366.4 163.5 365 L 150.5 362 L 146 358.5 L 145 350.5 L 155 341.5 Q 159.2 334.2 158 321.5 L 157 312.5 L 175.5 293 Q 184.6 286.6 197.5 284 Z " /><path fill="rgb(230,70,72)" stroke="rgb(230,70,72)" stroke-width="0.6" opacity="1" d="M 380.5 294 L 393.5 295 L 403 301 L 410 314.5 L 410 328.5 Q 407.2 337.7 400.5 343 L 388.5 348 L 380.5 348 Q 366.6 345.4 360 335.5 Q 355.8 328.8 357 316.5 Q 359.9 303.9 369.5 298 L 380.5 294 Z M 374 307 L 372 308 L 368 313 L 369 322 L 374 325 L 379 324 L 382 320 L 381 311 Q 380 306 374 307 Z M 397 307 L 395 308 L 390 315 L 392 323 Q 394 326 400 325 L 405 318 L 404 312 L 397 307 Z M 378 331 L 376 333 L 377 336 L 384 340 Q 390 341 392 338 L 396 333 L 394 331 L 390 336 L 384 336 L 378 331 Z " /><path fill="rgb(230,70,72)" stroke="rgb(230,70,72)" stroke-width="0.6" opacity="1" d="M 367.5 349 Q 374.7 348.3 377.5 352 L 391.5 352 L 398 350 L 398 359.5 L 396.5 361 Q 390.7 365.2 379.5 364 L 365 356.5 L 367.5 349 Z " /><path fill="rgb(230,70,72)" stroke="rgb(230,70,72)" stroke-width="0.6" opacity="1" d="M 403 362 L 419.5 366 L 444.5 366 L 451 372.5 L 456 382.5 L 457 394.5 L 452 407.5 L 446.5 413 Q 440.8 417.3 428.5 415 Q 416.9 412.1 411 403.5 L 402 389.5 L 400 379.5 L 402 375.5 L 403 362 Z " /><path fill="rgb(230,70,72)" stroke="rgb(230,70,72)" stroke-width="0.6" opacity="1" d="M 108.5 364 Q 115.7 372.3 132.5 371 L 139.5 367 Q 142.8 368.8 141 375.5 L 137.5 384 Q 132.3 388.8 120.5 387 Q 111.3 385.3 107 378.5 L 107 365.5 L 108.5 364 Z " /><path fill="rgb(246,193,49)" stroke="rgb(246,193,49)" stroke-width="0.6" opacity="1" d="M 278.5 190 L 295.5 195 L 313.5 195 L 318.5 194 Q 332.7 201.8 332 224.5 Q 329.9 233.9 323.5 239 Q 318.7 243.7 307.5 242 Q 292.8 239.2 285 229.5 L 274 211.5 L 274 206.5 L 278.5 190 Z " /><path fill="rgb(246,193,49)" stroke="rgb(246,193,49)" stroke-width="0.6" opacity="1" d="M 238 207 L 248.5 213 L 266 213 Q 265 223.3 257.5 228 L 248.5 229 L 242 223.5 L 238 214.5 L 238 207 Z " /><path fill="rgb(246,193,49)" stroke="rgb(246,193,49)" stroke-width="0.6" opacity="1" d="M 349.5 259 Q 354.3 258.3 355 261.5 L 356 266.5 Q 354.8 270.3 348.5 269 Q 345.3 268.3 346 263.5 L 349.5 259 Z " /><path fill="rgb(246,193,49)" stroke="rgb(246,193,49)" stroke-width="0.6" opacity="1" d="M 303.5 278 L 312.5 278 L 324.5 283 L 341 295.5 L 353 311.5 L 353 331.5 L 362 345.5 L 362 348.5 L 358.5 355 L 348.5 358 L 334.5 358 L 333.5 359 L 311.5 354 Q 298.6 348.9 291 338.5 Q 279.6 325.4 280 300.5 L 282 292.5 L 291.5 281 L 303.5 278 Z " /><path fill="rgb(246,193,49)" stroke="rgb(246,193,49)" stroke-width="0.6" opacity="1" d="M 124.5 299 Q 143.1 298.4 149 310.5 Q 153.7 317.8 153 330.5 Q 150.8 343.3 141.5 349 Q 135 353.5 122.5 352 Q 109.8 349.8 104 340.5 Q 99.5 334 101 321.5 Q 103.9 309.9 112.5 304 L 124.5 299 Z M 117 312 L 115 313 Q 110 316 111 325 L 117 330 L 121 330 L 126 323 L 125 316 Q 124 311 117 312 Z M 139 312 L 134 318 L 135 328 Q 137 331 143 330 L 148 324 L 146 314 Q 145 311 139 312 Z M 122 335 L 120 337 Q 119 343 125 344 Q 137 346 139 339 L 138 336 L 131 341 L 126 340 L 122 335 Z " /><path fill="rgb(246,193,49)" stroke="rgb(246,193,49)" stroke-width="0.6" opacity="1" d="M 111.5 353 Q 118.4 358.6 132.5 357 L 139.5 355 Q 142.8 356.8 141 363.5 Q 135.8 370.3 121.5 368 L 109 361.5 Q 108.3 355.3 111.5 353 Z " /><path fill="rgb(246,193,49)" stroke="rgb(246,193,49)" stroke-width="0.6" opacity="1" d="M 353.5 361 L 359 362.5 L 359 381.5 Q 351.7 397.7 338.5 408 Q 331 414 317.5 414 Q 307.4 412.6 303 405.5 Q 298.2 399.3 300 386.5 Q 302.4 372.4 311.5 365 Q 314.7 361.2 322.5 362 L 327.5 364 L 345.5 364 L 353.5 361 Z " /><path fill="rgb(91,160,95)" stroke="rgb(91,160,95)" stroke-width="0.6" opacity="1" d="M 241 175 Q 248.8 179.3 261.5 180 L 271 177 L 272 185.5 L 266.5 190 L 253.5 191 L 241 186 L 243.5 190 Q 250 195.5 264.5 193 L 271 191 Q 273.1 202.4 267.5 207 L 260.5 210 L 253.5 210 Q 242.5 208.5 237 201.5 L 237 191.5 L 241 175 Z " /><path fill="rgb(91,160,95)" stroke="rgb(91,160,95)" stroke-width="0.6" opacity="1" d="M 231.5 187 Q 234.3 188.3 233 193.5 L 232 205.5 L 232 207.5 Q 226.1 223.6 213.5 233 L 199.5 240 L 187.5 240 L 176 233.5 Q 170 227.5 172 213.5 Q 174 200 183.5 194 L 191.5 189 L 195.5 189 Q 201.5 193 212.5 192 L 226.5 190 L 231.5 187 Z " /><path fill="rgb(91,160,95)" stroke="rgb(91,160,95)" stroke-width="0.6" opacity="1" d="M 417.5 258 L 424 263.5 L 419.5 269 Q 414 270 413 266.5 Q 411.8 260.3 415.5 259 L 417.5 258 Z " /><path fill="rgb(91,160,95)" stroke="rgb(91,160,95)" stroke-width="0.6" opacity="1" d="M 454.5 283 Q 473.3 281.2 480 291.5 Q 487.3 299.7 485 317.5 Q 481.1 337.1 468.5 348 Q 460.2 356.2 447.5 360 Q 437.9 362.9 424.5 362 L 407.5 358 L 403 354.5 L 402 347.5 Q 415.3 340.3 416 320.5 L 414 311.5 L 419.5 305 L 423 302.5 L 431.5 293 L 444.5 286 L 454.5 283 Z " /><path fill="rgb(91,160,95)" stroke="rgb(91,160,95)" stroke-width="0.6" opacity="1" d="M 146 366 L 158.5 369 L 181.5 369 L 187.5 368 Q 202.3 375.7 201 399.5 Q 198.9 409.4 191.5 414 L 180.5 417 Q 163.3 415.3 155 404.5 L 153.5 402 L 150 399.5 Q 144.4 393.6 143 383.5 L 145 378.5 L 146 366 Z " /><path fill="rgb(91,160,95)" stroke="rgb(91,160,95)" stroke-width="0.6" opacity="1" d="M 108 385 Q 114.7 391.6 129.5 391 L 136 389 Q 135.8 399.3 128.5 404 L 118.5 406 L 112 402 Q 107.6 396 108 385 Z " /><path fill="rgb(49,50,49)" stroke="rgb(49,50,49)" stroke-width="0.6" opacity="1" d="M 211.5 119 L 218.5 127 L 211.5 119 Z " /><path fill="rgb(49,50,49)" stroke="rgb(49,50,49)" stroke-width="0.6" opacity="1" d="M 236.5 226 L 241 228.5 L 238.5 227 L 233.5 230 L 236.5 226 Z " /><path fill="rgb(49,50,49)" stroke="rgb(49,50,49)" stroke-width="0.6" opacity="1" d="M 217.5 284 L 223.5 291 L 217.5 284 Z " /><path fill="rgb(102,75,69)" stroke="rgb(102,75,69)" stroke-width="0.6" opacity="1" d="M 347.5 171 L 339.5 180 L 347.5 171 Z " /><path fill="rgb(102,75,69)" stroke="rgb(102,75,69)" stroke-width="0.6" opacity="1" d="M 172.5 295 L 167.5 301 L 172.5 295 Z " /><path fill="rgb(102,75,69)" stroke="rgb(102,75,69)" stroke-width="0.6" opacity="1" d="M 367.5 299 L 362.5 305 L 367.5 299 Z " /><path fill="rgb(102,75,69)" stroke="rgb(102,75,69)" stroke-width="0.6" opacity="1" d="M 442.5 365 L 450 370.5 L 444.5 366 L 442.5 365 Z " /><path fill="rgb(102,75,69)" stroke="rgb(102,75,69)" stroke-width="0.6" opacity="1" d="M 139.5 366 L 140.5 368 Q 139 365.5 137.5 369 L 134.5 370 L 134.5 369 L 136 367.5 L 139.5 366 Z " /><path fill="rgb(82,103,102)" stroke="rgb(82,103,102)" stroke-width="0.6" opacity="1" d="M 242.5 125 L 236.5 132 L 242.5 125 Z " /><path fill="rgb(82,103,102)" stroke="rgb(82,103,102)" stroke-width="0.6" opacity="1" d="M 273.5 134 L 275 137.5 L 273.5 141 L 274 139.5 Q 275.1 136.2 272.5 137 L 272.5 136 L 274 135.5 L 273.5 134 Z " /><path fill="rgb(231,231,231)" stroke="rgb(231,231,231)" stroke-width="0.6" opacity="1" d="M 236.5 227 L 240 228.5 L 238.5 228 L 233.5 231 L 236.5 227 Z " /><path fill="rgb(231,231,231)" stroke="rgb(231,231,231)" stroke-width="0.6" opacity="1" d="M 217.5 283 L 224.5 291 L 217.5 283 Z " /><path fill="rgb(231,231,231)" stroke="rgb(231,231,231)" stroke-width="0.6" opacity="1" d="M 95.5 405 L 96 407.5 L 94.5 410 L 93.5 408 L 91 409.5 L 95.5 405 Z " /><path fill="rgb(129,129,129)" stroke="rgb(129,129,129)" stroke-width="0.6" opacity="1" d="M 117.5 315 L 119 315.5 L 116 317.5 Q 114.9 320.8 117.5 320 L 117.5 321 L 115 319.5 L 117.5 315 Z " /><path fill="rgb(198,181,48)" stroke="rgb(198,181,48)" stroke-width="0.6" opacity="1" d="M 346.5 400 L 341.5 406 L 346.5 400 Z " /><path fill="rgb(138,138,48)" stroke="rgb(138,138,48)" stroke-width="0.6" opacity="1" d="M 319.5 194 L 327.5 203 L 319.5 194 Z " /><path fill="rgb(88,140,86)" stroke="rgb(88,140,86)" stroke-width="0.6" opacity="1" d="M 327.5 363 L 346 363.5 L 327.5 364 L 327.5 363 Z " /><path fill="rgb(88,140,86)" stroke="rgb(88,140,86)" stroke-width="0.6" opacity="1" d="M 188.5 368 L 194.5 375 L 188.5 368 Z " /></svg>