<svg width="627" height="627" preserveAspectRatio="xMidYMid meet" viewBox="0 0 512 512" version="1.1" xmlns="http://www.w3.org/2000/svg" ><path fill="rgb(255,255,255)" stroke="rgb(255,255,255)" stroke-width="0.6" opacity="1" d="M 0 0 L 512 0 L 512 512 L 0 512 L 0 0 Z M 235 69 L 206 76 L 186 88 Q 166 104 157 131 L 153 134 Q 138 136 130 143 Q 118 152 112 166 L 109 188 L 111 203 L 118 208 L 145 208 L 150 222 L 163 232 L 173 235 Q 190 237 199 229 Q 208 224 210 211 L 213 208 L 275 208 L 277 211 L 281 222 Q 288 233 306 235 Q 320 235 329 229 Q 338 222 341 209 L 343 207 L 366 207 L 368 206 L 374 198 L 373 171 L 364 152 Q 354 138 335 135 L 324 109 L 313 94 Q 289 66 235 69 Z M 122 284 L 101 290 L 84 301 Q 65 316 58 343 L 55 346 Q 42 347 35 354 Q 22 363 18 381 L 18 410 L 20 413 L 27 416 L 45 416 L 50 430 Q 56 438 68 442 Q 88 445 97 436 Q 105 431 106 419 L 109 416 L 156 416 L 160 429 Q 166 438 178 442 L 196 442 L 208 436 Q 216 430 217 418 L 219 416 L 239 415 Q 244 412 245 404 Q 248 373 234 360 Q 226 350 213 347 L 205 324 L 196 309 Q 185 294 167 287 L 153 284 L 122 284 Z M 375 284 L 349 291 L 335 300 Q 315 316 307 344 L 282 356 Q 271 365 267 381 L 267 410 L 275 416 L 297 416 L 301 429 Q 307 438 319 442 L 337 442 L 347 437 Q 356 431 358 419 L 361 416 L 408 416 L 413 431 Q 420 440 434 443 Q 448 444 457 438 Q 467 433 468 418 L 470 416 L 489 415 L 494 408 L 493 378 L 483 359 Q 476 350 464 348 L 460 345 L 460 340 L 455 325 L 446 310 Q 434 294 415 287 L 400 284 L 375 284 Z " /><path fill="rgb(0,0,0)" stroke="rgb(0,0,0)" stroke-width="0.6" opacity="1" d="M 233.5 70 Q 262.2 68.3 282.5 75 Q 303 82 315 97.5 L 327 116.5 L 333.5 136 Q 355.7 138.8 365 154.5 L 372 169.5 L 372 181.5 Q 375.8 184.7 374 193.5 L 368.5 204 L 362.5 207 L 341.5 207 L 340 208.5 Q 337.1 222.6 326.5 229 Q 318.4 234.9 303.5 234 Q 290.3 231.2 283 222.5 L 275.5 208 L 211.5 208 L 209 210.5 Q 207.3 221.8 199.5 227 L 191.5 232 L 175.5 235 Q 158.4 231.6 150 219.5 L 145.5 208 L 120.5 208 L 112 202.5 Q 108.2 192.3 110 176.5 Q 114.3 155.8 128.5 145 L 142.5 137 L 152.5 135 L 158 130.5 Q 165.8 104.8 184.5 90 L 208.5 76 L 233.5 70 Z M 246 75 L 218 78 L 189 93 Q 169 109 161 136 L 157 139 Q 143 140 136 146 L 123 161 L 132 162 L 137 169 L 136 181 Q 131 188 117 186 L 115 188 L 115 199 L 122 203 L 144 203 L 145 202 L 147 189 L 153 180 Q 159 172 170 169 L 189 169 L 202 177 Q 210 185 211 201 L 213 202 L 274 202 L 276 200 Q 275 188 280 184 Q 287 171 304 168 L 320 169 L 329 174 Q 336 180 340 191 Q 338 200 343 202 L 366 201 L 368 198 L 368 185 L 358 181 Q 350 178 352 165 L 360 159 L 357 153 Q 349 142 332 140 L 327 136 L 324 123 L 311 101 Q 302 89 288 82 L 263 75 L 246 75 Z M 360 162 L 355 168 L 356 176 L 363 180 L 367 179 Q 368 170 365 165 Q 364 161 360 162 Z M 123 164 L 121 165 Q 115 169 116 180 L 118 181 L 131 181 Q 135 178 133 169 Q 131 163 123 164 Z M 175 173 L 161 179 Q 152 185 150 197 Q 149 210 154 218 Q 161 228 177 230 Q 187 230 194 226 Q 205 219 207 204 Q 207 189 199 182 Q 193 171 175 173 Z M 303 173 L 291 179 Q 284 184 281 193 L 281 208 L 285 218 Q 291 226 304 229 Q 317 230 325 225 Q 335 218 337 204 L 336 193 L 331 184 Q 324 171 303 173 Z " /><path fill="rgb(0,0,0)" stroke="rgb(0,0,0)" stroke-width="0.6" opacity="1" d="M 227.5 87 Q 239.2 84.3 242 90.5 L 243 92.5 L 243 138.5 L 237.5 146 L 179.5 146 L 175 142.5 L 175 135.5 L 183 116.5 L 196.5 101 Q 208.4 90.4 227.5 87 Z M 236 91 L 225 92 L 215 95 L 200 104 Q 183 115 179 140 L 181 141 L 237 141 L 238 140 L 238 93 L 236 91 Z " /><path fill="rgb(0,0,0)" stroke="rgb(0,0,0)" stroke-width="0.6" opacity="1" d="M 255.5 87 L 267.5 87 L 280.5 91 Q 295.7 97.3 305 109.5 L 314 128.5 L 315 140.5 L 311.5 145 L 258.5 146 L 253 141.5 L 252 139.5 L 252 91.5 L 255.5 87 Z M 259 91 L 257 93 L 257 140 L 259 141 L 310 141 L 311 140 Q 310 119 299 109 Q 287 92 259 91 Z " /><path fill="rgb(0,0,0)" stroke="rgb(0,0,0)" stroke-width="0.6" opacity="1" d="M 305.5 185 L 311.5 185 L 321 191.5 Q 325.2 195.3 324 204.5 L 316.5 214 Q 313.7 217.7 306.5 217 Q 298.8 215.1 295 209.5 Q 291.5 205.5 293 196.5 L 299.5 188 L 305.5 185 Z M 306 189 L 303 190 L 297 198 L 298 208 L 307 213 L 315 212 L 321 203 L 320 196 Q 318 187 306 189 Z " /><path fill="rgb(0,0,0)" stroke="rgb(0,0,0)" stroke-width="0.6" opacity="1" d="M 174.5 186 Q 187.4 184.1 191 191.5 Q 195.2 195.3 194 204.5 L 187.5 214 Q 184 218.5 174.5 217 L 166 211.5 L 162 203.5 L 162 199.5 L 168.5 189 L 174.5 186 Z M 176 189 L 170 192 L 166 200 L 167 208 L 175 213 L 186 212 Q 190 209 191 203 L 188 194 Q 185 188 176 189 Z " /><path fill="rgb(0,0,0)" stroke="rgb(0,0,0)" stroke-width="0.6" opacity="1" d="M 125.5 284 L 148.5 284 L 166.5 288 Q 183.6 294.4 194 307.5 L 203 321.5 L 211.5 348 Q 227.6 350.9 235 362.5 L 244 383.5 L 244 404.5 Q 243.2 411.6 237.5 414 L 233.5 416 L 217.5 416 L 216 417.5 Q 214.4 430.4 205.5 436 L 193.5 442 L 180.5 442 Q 168.7 438.3 162 429.5 L 155.5 416 L 107.5 416 L 105 418.5 Q 104.6 428.6 98.5 433 Q 92.4 439.4 82.5 442 L 70.5 442 Q 59.4 439.1 53 431.5 L 45.5 416 L 28.5 416 L 20 410.5 L 18 406.5 L 18 384.5 Q 21.5 366 33.5 356 L 44.5 349 L 54.5 347 L 58 344.5 Q 64.5 319 81.5 304 L 105.5 289 L 125.5 284 Z M 122 290 Q 100 294 87 306 Q 69 321 62 348 L 35 361 Q 29 365 28 373 L 37 375 Q 43 378 41 391 L 36 395 L 25 396 Q 21 398 23 407 Q 26 411 33 412 L 46 411 Q 49 409 47 403 L 55 390 Q 61 383 71 381 L 84 381 L 96 387 Q 105 394 107 410 L 109 411 L 156 411 L 158 409 L 159 400 L 164 392 Q 171 384 182 381 L 194 381 L 205 386 L 214 398 L 217 410 L 220 412 Q 231 414 237 410 L 239 407 L 239 394 L 238 392 L 230 391 L 225 386 L 226 376 L 233 370 L 231 366 Q 224 355 210 352 L 205 348 L 205 342 L 202 332 L 190 311 Q 181 299 167 293 L 156 290 L 122 290 Z M 233 373 Q 227 376 229 386 L 236 390 L 239 389 L 237 377 L 233 373 Z M 26 378 Q 22 382 23 390 L 25 391 L 36 391 L 38 388 L 37 380 L 36 378 L 26 378 Z M 72 386 L 62 390 Q 54 395 51 406 Q 49 422 56 429 Q 61 435 71 437 Q 84 439 91 434 Q 99 428 102 417 Q 104 402 97 396 Q 91 384 72 386 Z M 180 386 L 171 391 L 162 404 L 162 419 L 166 428 Q 171 435 181 437 Q 197 439 204 432 Q 211 426 213 414 Q 213 400 206 394 Q 199 384 180 386 Z " /><path fill="rgb(0,0,0)" stroke="rgb(0,0,0)" stroke-width="0.6" opacity="1" d="M 378.5 284 L 394.5 284 L 414.5 288 Q 432.6 294.9 444 308.5 L 455 327.5 L 459 338.5 L 459 344.5 L 461.5 348 Q 476.6 350.9 484 361.5 L 492 377.5 Q 490.8 384.2 494 386.5 L 494 405.5 L 487.5 414 L 483.5 416 L 468.5 416 L 467 417.5 Q 465.5 432.5 454.5 438 L 448.5 441 L 432.5 442 Q 419 438 412 427.5 L 408.5 416 L 359.5 416 L 357 418.5 Q 355.1 429.6 347.5 435 L 333.5 442 L 321.5 442 Q 310.4 438.6 304 430.5 L 299 422.5 Q 300.3 417.3 297.5 416 L 277.5 416 L 269 410.5 L 267 406.5 L 267 384.5 Q 270.5 365.5 283.5 356 L 297.5 348 L 304.5 347 L 308 343.5 Q 315 318 332.5 303 L 355.5 289 L 378.5 284 Z M 373 290 L 357 294 L 341 303 L 321 325 L 311 348 L 308 351 L 300 352 L 288 359 L 277 372 L 277 375 L 286 375 L 292 384 L 291 391 L 286 395 L 273 396 L 271 398 L 273 409 Q 280 414 296 412 L 299 409 L 299 402 L 305 392 Q 311 384 323 381 L 335 381 L 346 386 Q 357 392 357 410 L 359 411 L 407 411 L 409 409 Q 408 400 412 396 Q 419 385 433 381 L 446 381 L 459 388 L 466 397 Q 469 401 468 410 L 471 412 L 487 410 L 489 407 L 489 394 L 488 392 L 480 391 L 475 386 L 476 376 L 483 370 L 481 366 Q 473 355 458 351 Q 452 342 451 330 L 442 314 Q 432 300 415 293 L 403 290 L 373 290 Z M 481 374 L 478 380 Q 478 387 483 389 Q 488 390 489 388 L 487 377 Q 486 373 481 374 Z M 278 377 L 276 378 L 273 381 L 272 387 L 274 392 L 286 391 L 288 387 L 287 380 Q 284 376 278 377 Z M 328 385 L 312 391 L 303 404 L 303 419 L 308 429 L 322 437 L 334 437 L 345 432 Q 352 426 354 414 L 353 404 L 346 393 Q 340 385 328 385 Z M 434 386 L 424 390 Q 415 396 413 408 Q 412 419 416 426 Q 422 434 433 437 Q 450 439 457 431 Q 462 426 464 417 Q 466 402 459 396 Q 453 384 434 386 Z " /><path fill="rgb(0,0,0)" stroke="rgb(0,0,0)" stroke-width="0.6" opacity="1" d="M 125.5 300 Q 132.8 298.8 134 303.5 L 135 305.5 L 135 350.5 L 130.5 356 L 80.5 357 L 74 352.5 L 74 346.5 L 82 328.5 L 97.5 311 L 112.5 303 L 125.5 300 Z M 126 304 L 111 308 L 101 314 L 86 330 L 79 344 L 78 351 L 80 352 L 129 352 L 130 351 L 130 306 L 126 304 Z " /><path fill="rgb(0,0,0)" stroke="rgb(0,0,0)" stroke-width="0.6" opacity="1" d="M 377.5 300 L 384 303.5 L 385 305.5 L 385 351.5 L 380.5 356 L 327.5 356 Q 322.5 354.5 324 346.5 Q 329.5 327 342.5 315 L 362.5 303 L 374.5 302 L 377.5 300 Z M 376 304 L 359 309 L 351 314 L 334 333 L 329 345 L 329 351 L 331 352 L 379 352 L 380 351 L 380 306 L 376 304 Z " /><path fill="rgb(0,0,0)" stroke="rgb(0,0,0)" stroke-width="0.6" opacity="1" d="M 147.5 301 Q 172.4 300.6 182 315.5 Q 194.8 327.2 194 352.5 L 189.5 356 L 149.5 356 L 145 352.5 L 144 350.5 L 144 305.5 L 147.5 301 Z M 151 305 L 149 307 L 149 350 L 151 351 L 190 351 L 191 350 L 189 336 L 180 320 Q 171 306 151 305 Z " /><path fill="rgb(0,0,0)" stroke="rgb(0,0,0)" stroke-width="0.6" opacity="1" d="M 397.5 301 Q 422.5 302 433 317.5 L 443 336.5 Q 445.9 342.1 445 351.5 L 439.5 356 L 399.5 356 L 394 348.5 L 394 305.5 L 397.5 301 Z M 401 305 L 399 307 L 399 350 L 401 351 L 439 351 L 440 350 Q 440 332 432 323 Q 423 307 401 305 Z " /><path fill="rgb(0,0,0)" stroke="rgb(0,0,0)" stroke-width="0.6" opacity="1" d="M 73.5 397 Q 83.9 395.6 87 401.5 L 91 409.5 L 91 413.5 L 82.5 425 L 73.5 426 L 65 420.5 Q 61 417 62 408.5 L 67.5 400 L 73.5 397 Z M 77 400 L 73 401 L 66 410 L 66 417 L 74 422 L 83 421 L 87 415 L 85 405 Q 83 400 77 400 Z " /><path fill="rgb(0,0,0)" stroke="rgb(0,0,0)" stroke-width="0.6" opacity="1" d="M 325.5 397 L 332.5 398 L 341 405.5 Q 343.7 419.2 336.5 423 Q 333.6 427.1 325.5 426 L 314 416.5 Q 312.1 403.6 319.5 400 L 325.5 397 Z M 328 400 L 323 402 L 317 411 L 318 418 Q 322 423 333 422 L 339 414 L 338 407 Q 336 400 328 400 Z " /><path fill="rgb(0,0,0)" stroke="rgb(0,0,0)" stroke-width="0.6" opacity="1" d="M 435.5 397 Q 446.2 396.3 450 402.5 Q 454 406 453 414.5 L 447.5 423 Q 444.3 426.8 436.5 426 L 426 418.5 L 424 409.5 L 429.5 400 L 435.5 397 Z M 439 400 L 434 402 L 428 410 L 429 418 L 437 422 L 445 421 L 449 415 L 447 405 Q 445 400 439 400 Z " /><path fill="rgb(0,0,0)" stroke="rgb(0,0,0)" stroke-width="0.6" opacity="1" d="M 182.5 398 L 192.5 398 L 200 405.5 Q 202.7 419.2 195.5 423 Q 192.3 427.3 183.5 426 L 176 421.5 Q 171.9 417 173 407.5 L 178.5 400 L 182.5 398 Z M 187 400 L 182 402 L 176 410 L 178 419 Q 182 423 192 422 L 198 414 L 197 407 Q 195 400 187 400 Z " /><path fill="rgb(211,60,56)" stroke="rgb(211,60,56)" stroke-width="0.6" opacity="1" d="M 246.5 75 L 263.5 76 L 285.5 82 Q 300.4 88.6 310 100.5 L 323 122.5 L 326 135.5 L 331.5 141 Q 348.9 142.6 357 153.5 L 359 158.5 L 352 163.5 L 351 172.5 Q 351.7 178.9 356.5 181 Q 359.2 183.8 365.5 183 L 368 185.5 Q 370.3 196.3 365.5 200 L 360.5 202 L 342.5 202 L 341 200.5 L 340 188.5 Q 336.2 178.8 328.5 173 Q 320.2 165.8 303.5 167 Q 287.9 170.9 280 182.5 L 277 187.5 L 275 200.5 L 273.5 202 L 212.5 202 L 211 200.5 Q 211.2 183.3 201.5 176 L 190.5 169 L 170.5 168 Q 159.3 170.8 153 178.5 L 147 186.5 L 144 202 L 139.5 203 L 138.5 202 L 120.5 202 L 115 197.5 L 115 187.5 L 116.5 186 Q 131.2 188.7 136 181.5 L 137 166.5 L 133.5 162 L 124 160.5 L 135.5 147 Q 143.5 140 157.5 139 L 162 134.5 Q 169.4 109.4 187.5 95 L 216.5 79 L 231.5 76 L 245.5 76 L 246.5 75 Z M 225 87 Q 207 91 196 101 Q 180 114 174 137 Q 173 144 178 146 L 239 146 L 241 145 L 243 141 L 243 91 L 242 89 L 241 87 L 225 87 Z M 255 87 L 252 90 L 252 142 L 258 146 L 313 145 L 316 141 Q 315 117 302 105 L 281 90 L 270 87 L 255 87 Z " /><path fill="rgb(211,60,56)" stroke="rgb(211,60,56)" stroke-width="0.6" opacity="1" d="M 259.5 91 Q 286.5 93 299 109.5 Q 309.3 119.7 311 138.5 L 306.5 141 L 258.5 141 L 257 139.5 L 257 93.5 L 259.5 91 Z " /><path fill="rgb(211,60,56)" stroke="rgb(211,60,56)" stroke-width="0.6" opacity="1" d="M 359.5 163 L 364 164.5 L 366 168.5 L 367 177.5 L 362.5 179 L 357 175.5 L 356 166.5 L 359.5 163 Z " /><path fill="rgb(211,60,56)" stroke="rgb(211,60,56)" stroke-width="0.6" opacity="1" d="M 303.5 173 Q 323 172 330 183.5 Q 337.2 189.8 336 204.5 Q 334 218 324.5 224 Q 316.9 229.9 301.5 228 Q 291.6 224.9 286 217.5 L 281 206.5 L 281 196.5 Q 283 184.5 291.5 179 L 303.5 173 Z M 304 185 L 300 187 L 292 198 Q 291 206 294 210 Q 297 215 305 217 Q 313 218 317 215 L 324 207 Q 326 195 321 190 Q 316 183 304 185 Z " /><path fill="rgb(211,60,56)" stroke="rgb(211,60,56)" stroke-width="0.6" opacity="1" d="M 306.5 189 Q 316.3 188.7 319 195.5 L 320 203.5 L 314.5 211 L 305.5 212 L 298 206.5 L 297 198.5 L 302.5 191 L 306.5 189 Z " /><path fill="rgb(211,60,56)" stroke="rgb(211,60,56)" stroke-width="0.6" opacity="1" d="M 72.5 386 Q 87.3 385.2 94 392.5 L 101 404.5 L 101 418.5 L 91.5 432 Q 85.2 436.7 74.5 437 Q 62.3 435.2 56 427.5 L 52 420.5 L 51 410.5 Q 52.3 396.8 61.5 391 L 72.5 386 Z M 75 396 L 68 399 L 62 407 Q 60 416 64 421 Q 68 427 78 427 L 83 426 L 91 416 Q 92 406 88 402 Q 84 396 75 396 Z " /><path fill="rgb(211,60,56)" stroke="rgb(211,60,56)" stroke-width="0.6" opacity="1" d="M 436.5 401 Q 444.6 400.4 447 405.5 L 448 414.5 L 444.5 420 L 435.5 421 L 430 417.5 L 429 408.5 L 434.5 402 L 436.5 401 Z " /><path fill="rgb(47,52,52)" stroke="rgb(47,52,52)" stroke-width="0.6" opacity="1" d="M 121.5 290 L 154.5 290 L 162.5 292 Q 180.1 297.4 190 310.5 L 201 329.5 L 205 341.5 L 205 347.5 L 209.5 352 Q 223.9 355.1 231 365.5 L 233 369.5 L 226 375.5 L 224 382.5 L 229.5 391 L 237.5 392 L 239 393.5 L 239 406.5 L 236.5 410 Q 230.8 413.3 220.5 412 L 217 409.5 Q 215.3 393.2 204.5 386 L 193.5 381 L 181.5 381 Q 169.6 384.1 163 392.5 L 158 401.5 L 158 408.5 L 155.5 411 L 108.5 411 L 107 409.5 Q 105.7 393.8 95.5 387 L 83.5 381 L 69.5 381 Q 59.1 384.1 53 391.5 L 47 402.5 L 47 408.5 L 43.5 412 Q 29.6 413.9 24 407.5 L 23 397.5 Q 26.6 393.6 35.5 395 L 41 390.5 L 42 381.5 L 37.5 375 L 29.5 374 L 28 372.5 Q 30.4 363.4 37.5 359 L 50.5 352 L 57.5 351 L 62 347.5 Q 68.2 322.7 84.5 308 Q 98 294 121.5 290 Z M 126 300 L 112 303 L 98 311 L 82 328 L 74 347 L 74 354 L 81 357 L 131 356 L 135 352 L 135 305 L 134 303 Q 132 299 126 300 Z M 150 300 L 144 305 L 144 352 L 149 356 L 191 356 L 195 352 Q 194 329 183 317 Q 173 302 150 300 Z " /><path fill="rgb(47,52,52)" stroke="rgb(47,52,52)" stroke-width="0.6" opacity="1" d="M 126.5 304 L 130 305.5 L 130 350.5 L 128.5 352 L 80.5 352 L 78 349.5 L 79 343.5 L 86 329.5 L 100.5 314 Q 110.9 306.4 126.5 304 Z " /><path fill="rgb(47,52,52)" stroke="rgb(47,52,52)" stroke-width="0.6" opacity="1" d="M 400.5 305 Q 421.3 307.7 431 321.5 Q 439.9 331.1 440 349.5 L 438.5 351 L 400.5 351 L 399 349.5 L 399 306.5 L 400.5 305 Z " /><path fill="rgb(47,52,52)" stroke="rgb(47,52,52)" stroke-width="0.6" opacity="1" d="M 480.5 374 Q 486.3 373.3 487 377.5 L 489 387.5 Q 487.8 390.3 482.5 389 Q 477 386 479 375.5 L 480.5 374 Z " /><path fill="rgb(47,52,52)" stroke="rgb(47,52,52)" stroke-width="0.6" opacity="1" d="M 25.5 378 Q 34.7 375.7 37 380.5 L 38 387.5 L 35.5 391 L 24.5 391 L 23 389.5 L 24 379.5 L 25.5 378 Z " /><path fill="rgb(47,52,52)" stroke="rgb(47,52,52)" stroke-width="0.6" opacity="1" d="M 433.5 386 Q 452 384 458 394.5 Q 465.2 400.8 464 415.5 Q 462 427.5 453.5 433 Q 446.6 438.6 432.5 437 Q 421.6 433.9 416 425.5 Q 411.9 419.1 413 407.5 Q 415.5 397 422.5 391 L 433.5 386 Z M 436 397 L 431 399 Q 425 402 424 410 L 425 418 L 436 426 Q 443 427 447 424 L 453 415 Q 454 407 451 404 Q 447 396 436 397 Z " /><path fill="rgb(47,52,52)" stroke="rgb(47,52,52)" stroke-width="0.6" opacity="1" d="M 324.5 401 Q 335 399 337 405.5 L 339 412.5 L 333.5 421 L 325.5 422 L 319 418.5 L 317 411.5 L 322.5 402 L 324.5 401 Z " /><path fill="rgb(80,153,193)" stroke="rgb(80,153,193)" stroke-width="0.6" opacity="1" d="M 121.5 165 Q 129.8 163.7 132 168.5 L 133 176.5 L 129.5 181 L 117.5 181 L 116 179.5 Q 115.8 169.3 121.5 165 Z " /><path fill="rgb(80,153,193)" stroke="rgb(80,153,193)" stroke-width="0.6" opacity="1" d="M 376.5 290 Q 400.3 287.7 415.5 294 Q 431.3 300.7 441 313.5 L 449 326.5 L 456.5 352 Q 472.7 354.3 480 365.5 L 482 371 L 475 375.5 L 474 385.5 L 478.5 391 L 489 394.5 Q 491.3 405.3 486.5 409 Q 480.5 412 470.5 411 L 469 409.5 Q 469.9 401.1 467 396.5 L 461.5 389 L 446.5 381 L 430.5 381 L 424.5 383 L 411 395.5 L 406.5 411 L 359.5 411 L 358 409.5 L 357 399.5 L 346.5 386 Q 338.3 378.2 319.5 381 Q 309.6 384.1 304 391.5 L 299 400.5 L 298 409.5 L 296.5 411 L 279.5 411 L 273 407.5 L 272 397 Q 286.5 398.9 292 390.5 L 293 384.5 L 288 375 L 278.5 374 L 277 372.5 L 288.5 359 L 298.5 353 L 307.5 352 L 312 347.5 Q 317.3 325.8 331.5 313 L 334 311.5 L 341.5 303 L 355.5 295 L 376.5 290 Z M 376 300 L 367 301 L 359 304 L 346 312 Q 328 324 323 349 L 324 355 L 326 356 L 383 356 L 385 354 L 385 304 Q 384 299 376 300 Z M 397 301 L 394 305 L 394 350 L 399 356 L 441 356 L 445 353 Q 446 341 443 335 L 433 317 Q 426 308 415 303 Q 408 300 397 301 Z " /><path fill="rgb(80,153,193)" stroke="rgb(80,153,193)" stroke-width="0.6" opacity="1" d="M 374.5 305 L 380 306.5 L 380 349.5 L 377.5 352 L 330.5 352 L 329 350.5 L 329 345.5 L 335 332.5 L 350.5 315 L 360.5 309 L 364.5 309 L 374.5 305 Z " /><path fill="rgb(80,153,193)" stroke="rgb(80,153,193)" stroke-width="0.6" opacity="1" d="M 149 306 L 163.5 308 Q 173.8 312.2 180 320.5 L 188 334.5 L 190 349.5 L 188.5 351 L 150.5 351 L 149 349.5 L 149 306 Z " /><path fill="rgb(80,153,193)" stroke="rgb(80,153,193)" stroke-width="0.6" opacity="1" d="M 232.5 374 L 236 376.5 L 238 387.5 L 233.5 389 L 230 385.5 L 229 378.5 L 232.5 374 Z " /><path fill="rgb(80,153,193)" stroke="rgb(80,153,193)" stroke-width="0.6" opacity="1" d="M 324.5 386 L 339.5 388 L 345 392.5 L 352 402.5 L 353 416.5 L 343.5 432 L 331.5 437 L 325.5 437 Q 313.6 435.4 308 427.5 L 303 417.5 L 303 407.5 Q 304.2 397.7 310.5 393 L 324.5 386 Z M 324 397 L 320 399 Q 314 402 313 410 L 314 418 L 325 426 Q 335 428 339 423 L 342 418 L 341 405 L 332 397 L 324 397 Z " /><path fill="rgb(80,153,193)" stroke="rgb(80,153,193)" stroke-width="0.6" opacity="1" d="M 74.5 401 Q 82.6 400.4 85 405.5 L 87 412.5 L 82.5 420 L 73.5 421 L 67 415.5 L 66 410.5 L 72.5 402 L 74.5 401 Z " /><path fill="rgb(243,194,52)" stroke="rgb(243,194,52)" stroke-width="0.6" opacity="1" d="M 232.5 92 L 238 93.5 L 238 139.5 L 236.5 141 L 181.5 141 L 179 138.5 Q 184.5 116 200.5 104 L 216.5 95 L 232.5 92 Z " /><path fill="rgb(243,194,52)" stroke="rgb(243,194,52)" stroke-width="0.6" opacity="1" d="M 176.5 173 Q 192.7 172.8 199 182.5 Q 207.3 189.7 206 206.5 Q 203.6 216.1 197.5 222 Q 190.6 230.1 174.5 229 Q 160.1 226.9 154 216.5 Q 149.1 208.9 151 194.5 Q 154.1 184.6 161.5 179 L 176.5 173 Z M 175 185 L 169 188 L 162 198 Q 161 207 165 212 Q 169 217 178 218 L 188 215 L 194 207 Q 196 196 192 192 Q 187 184 175 185 Z " /><path fill="rgb(243,194,52)" stroke="rgb(243,194,52)" stroke-width="0.6" opacity="1" d="M 174.5 190 Q 184.3 188.3 187 193.5 Q 191.5 196 190 204.5 L 184.5 212 L 176.5 213 L 168 207.5 L 167 197.5 L 172.5 191 L 174.5 190 Z " /><path fill="rgb(243,194,52)" stroke="rgb(243,194,52)" stroke-width="0.6" opacity="1" d="M 276.5 378 Q 284.5 376.5 287 380.5 Q 289 388 285.5 390 L 275.5 392 Q 271.8 390.8 273 384.5 L 276.5 378 Z " /><path fill="rgb(243,194,52)" stroke="rgb(243,194,52)" stroke-width="0.6" opacity="1" d="M 183.5 386 Q 199 386 206 394.5 Q 213.2 400.8 212 415.5 Q 210 426.5 202.5 432 L 195.5 436 L 183.5 437 Q 172.2 435.3 167 427.5 L 162 417.5 L 162 406.5 Q 163.8 396.8 170.5 392 L 183.5 386 Z M 183 397 L 179 399 L 172 409 L 174 420 Q 177 426 187 427 L 196 424 L 201 418 L 200 405 L 192 397 L 183 397 Z " /><path fill="rgb(243,194,52)" stroke="rgb(243,194,52)" stroke-width="0.6" opacity="1" d="M 184.5 401 Q 194.1 399.9 196 406.5 L 197 414.5 L 191.5 421 L 185.5 422 L 178 417.5 L 177 408.5 L 182.5 402 L 184.5 401 Z " /><path fill="rgb(25,25,25)" stroke="rgb(25,25,25)" stroke-width="0.6" opacity="1" d="M 193.5 398 L 199.5 405 L 193.5 398 Z " /><path fill="rgb(25,25,25)" stroke="rgb(25,25,25)" stroke-width="0.6" opacity="1" d="M 462.5 430 L 456.5 437 L 462.5 430 Z " /><path fill="rgb(91,70,62)" stroke="rgb(91,70,62)" stroke-width="0.6" opacity="1" d="M 185.5 96 L 179.5 103 L 185.5 96 Z " /><path fill="rgb(91,70,62)" stroke="rgb(91,70,62)" stroke-width="0.6" opacity="1" d="M 193.5 103 L 188.5 109 L 193.5 103 Z " /><path fill="rgb(91,70,62)" stroke="rgb(91,70,62)" stroke-width="0.6" opacity="1" d="M 289.5 173 L 281.5 182 L 289.5 173 Z " /><path fill="rgb(96,111,111)" stroke="rgb(96,111,111)" stroke-width="0.6" opacity="1" d="M 181.5 92 L 176.5 98 L 181.5 92 Z " /><path fill="rgb(219,219,219)" stroke="rgb(219,219,219)" stroke-width="0.6" opacity="1" d="M 357.5 145 L 362.5 151 L 357.5 145 Z " /><path fill="rgb(219,219,219)" stroke="rgb(219,219,219)" stroke-width="0.6" opacity="1" d="M 463.5 430 L 457.5 437 L 463.5 430 Z " /></svg>