<svg width="627" height="627" preserveAspectRatio="xMidYMid meet" viewBox="0 0 512 512" version="1.1" xmlns="http://www.w3.org/2000/svg" ><path fill="rgb(255,255,255)" stroke="rgb(255,255,255)" stroke-width="0.6" opacity="1" d="M 0 0 L 512 0 L 512 512 L 0 512 L 0 0 Z M 252 46 L 212 51 L 175 63 Q 139 78 114 103 Q 81 133 63 177 L 51 216 L 47 250 L 48 278 L 50 293 L 59 327 Q 76 373 108 405 Q 135 432 173 449 Q 200 462 238 466 L 284 465 L 320 457 Q 363 442 395 414 Q 428 385 447 342 L 460 302 L 465 261 Q 465 216 452 184 Q 436 141 407 111 Q 377 78 333 60 L 299 50 L 279 47 L 252 46 Z " /><path fill="rgb(222,67,62)" stroke="rgb(222,67,62)" stroke-width="0.6" opacity="1" d="M 248.5 63 Q 262.6 61.9 272 64 Q 270.8 67 274.5 66 L 274.5 68 L 277 68 L 278.5 66 L 285 65 Q 283.7 68.3 288.5 67 L 292.5 68 L 296.5 67 L 301.5 70 L 304.5 68 L 307.5 72 L 311.5 71 L 316.5 74 L 318.5 73 L 321 74 L 322.5 76 Q 324.5 73 326.5 78 L 329.5 77 L 331.5 80 L 335 79 Q 333.8 82 337.5 81 Q 340.5 86 347.5 87 L 349.5 86 L 351 90 L 356 91.5 L 360 94.5 L 369 99.5 Q 368.2 102.1 371.5 101 L 375 103.5 L 376 107 Q 379 106 378 109 L 382.5 109 L 385 110 L 387 114.5 L 390.5 120 L 398 125.5 L 399 128.5 L 398 130.5 L 408 137.5 L 410.5 144 Q 414.9 142.5 414 145.5 L 414 147.5 Q 413.2 150.1 416.5 149 L 418 151.5 L 417 153.5 L 420.5 159 L 424 160.5 L 423 162.5 L 426 163 L 425 168.5 L 430 172.5 L 433 181.5 L 432 183.5 L 436 186.5 L 435 191 L 438 192.5 L 440 200.5 L 439 203 L 441 204.5 L 442 207.5 L 441 211 L 443 212.5 L 444 217.5 L 443 221 Q 446.3 219.7 445 224.5 L 446 228.5 L 445 235 Q 448.5 233.9 447 241.5 L 448 247 L 446 247.5 L 446 256 L 448 256.5 L 448 267.5 L 447 277 Q 443 275.6 445 282.5 L 446 288.5 L 445 291 Q 441.7 289.7 443 294.5 L 444 299.5 L 441 301 L 442 307.5 L 439 309 L 440 313.5 L 437 315 L 435 322.5 L 436 325.5 L 432.5 331 L 431 332.5 L 432 334.5 Q 429 335.8 430 340 L 427 341.5 L 428 344 L 425 345.5 L 419 358.5 L 409 371.5 L 409 374 L 406 375.5 L 400.5 384 L 392 391.5 L 389.5 395 L 380 403.5 L 378.5 405 L 365 414.5 Q 365.9 417.5 361.5 416 L 358 421 L 349 424 Q 350.7 428.1 346.5 427 L 344 427.5 L 344 429 L 340 429 L 338.5 431 L 337 430.5 Q 338.3 434.3 334.5 433 L 332.5 432 Q 331.3 435 327 434 L 325.5 437 L 322 436 Q 323.8 440.9 317.5 439 L 315.5 440 L 313.5 439 L 310 440 L 308.5 443 L 302 442 L 300.5 445 L 293 444 Q 294.3 447 290.5 446 L 283.5 447 L 280 446 Q 281.3 449.3 276.5 448 L 272 447 L 271.5 449 L 262.5 449 L 250.5 448 L 244 449 Q 245.1 445.5 237.5 447 L 232 448 Q 233.3 444.3 227.5 446 L 224 447 Q 225.3 443.7 220.5 445 L 216.5 444 L 211.5 445 L 207.5 440 L 203 442 Q 204.3 439 200.5 440 L 197.5 441 L 196 438 L 189.5 436 L 185.5 437 L 184.5 434 L 181 435 L 179.5 431 L 174.5 430 L 172 431 Q 173.7 426.9 169.5 428 L 164.5 423 L 154 421 L 154 419 Q 150.2 420.5 151 417.5 L 144.5 410 L 137 409 L 136 405 L 130 401.5 L 127.5 398 L 116 390.5 Q 116.9 382.6 111.5 381 L 108.5 379 L 106 378 L 104 370.5 L 101.5 368 L 99 366.5 L 98 363 L 96 361.5 L 89 348 L 85 346.5 L 86 343.5 L 83 336 Q 79.2 337.5 80 334.5 L 81 332.5 L 78 327.5 Q 80.5 326 77 324.5 L 73 317.5 L 75 316.5 L 74 314 L 72 312.5 L 73 309.5 L 72 307 L 70 305.5 L 71.5 303 L 73.5 303 L 75 301.5 L 74 299 L 78 297.5 L 78 295.5 L 78.5 294 L 82 294.5 L 81.5 291 L 81 293 L 78 292.5 L 82 289.5 L 77 289 L 73.5 297 L 71 296 Q 72.5 302.4 69.5 302 Q 66.3 301.3 67 296.5 L 68.5 294 L 67 292.5 L 68 288 L 66 286.5 L 67 279 L 63 277 L 63 268.5 L 65 255.5 Q 61 252 63 242.5 L 65 235 Q 68.8 236.1 67 227.5 L 65 222.5 L 67 222 Q 65.7 218.3 71.5 220 L 74 219 L 73 214 L 71 215.5 L 70 218 Q 66.7 219.3 68 214.5 L 71 209.5 L 70 206 L 72 204.5 L 73 202 L 71 200.5 L 75 196.5 L 77 186.5 L 83 176.5 Q 83.7 167.2 88.5 162 L 91 160.5 L 94 152 L 97 150.5 L 98 146 L 100 144.5 L 103.5 139 L 107 136.5 L 109 131 L 118 125 L 133 107 L 140 103.5 L 141.5 101 L 153 94.5 Q 152.1 91.5 156.5 93 L 163 88.5 Q 162.1 85.5 166.5 87 L 180.5 79 L 183 80 L 184.5 77 L 188 78 L 189.5 75 L 194 76 Q 192.1 71.2 195.5 72 L 200 74 L 201.5 72 L 203.5 73 L 207 72 L 208.5 69 L 215 70 L 216.5 67 L 225.5 68 L 228 67 L 229.5 64 L 243 66 Q 241.7 62.3 247.5 64 L 248.5 63 Z M 230 68 L 224 72 L 226 74 L 228 73 Q 227 69 231 71 L 230 68 Z M 257 69 L 256 70 Q 252 69 253 73 Q 254 75 260 74 L 261 72 L 257 69 Z M 271 72 L 273 75 Q 277 74 276 77 L 280 76 L 276 74 L 276 72 L 271 72 Z M 291 74 L 286 77 L 284 79 L 289 78 L 293 79 L 294 79 L 291 74 Z M 192 77 L 187 83 L 193 81 L 194 79 L 192 77 Z M 304 77 L 301 81 L 304 87 L 305 79 L 304 77 Z M 238 80 L 230 86 L 233 87 L 235 84 L 239 87 L 239 86 L 239 84 Q 241 85 240 81 L 238 80 Z M 268 80 L 269 84 L 268 83 L 266 85 Q 268 88 273 87 L 272 81 L 268 80 Z M 317 82 L 315 85 L 318 84 L 321 86 Q 323 87 322 84 L 320 83 L 317 82 Z M 332 83 Q 333 87 328 85 L 328 90 L 328 92 L 330 92 L 331 86 L 334 88 L 336 89 L 337 85 L 332 83 Z M 313 87 L 310 90 L 317 92 L 318 90 L 313 87 Z M 347 89 L 348 93 L 345 98 Q 344 100 348 99 L 350 99 L 353 98 L 355 98 L 355 94 L 347 89 Z M 167 91 Q 168 95 163 93 L 164 96 L 163 99 L 167 100 L 168 97 L 165 96 L 168 94 L 169 97 L 170 93 L 167 91 Z M 278 91 L 278 93 L 282 95 Q 280 99 285 98 L 286 94 Q 284 90 278 91 Z M 296 92 L 296 94 L 292 95 L 291 97 Q 297 99 299 96 L 298 94 L 296 92 Z M 197 96 L 195 100 L 197 99 Q 204 101 203 97 L 197 96 Z M 151 98 L 149 99 L 145 105 L 146 107 Q 150 108 148 103 L 153 104 L 151 98 Z M 216 101 L 213 104 Q 211 110 215 112 L 219 111 Q 220 108 217 109 L 218 102 L 216 101 Z M 319 109 L 317 110 L 314 114 Q 313 118 316 117 L 317 114 L 319 112 L 319 109 Z M 133 111 L 133 114 L 136 113 Q 138 112 137 116 Q 139 119 140 116 L 140 111 L 133 111 Z M 177 111 Q 178 115 172 113 L 172 115 L 177 116 L 180 112 L 177 111 Z M 267 114 L 265 120 L 270 121 L 267 114 Z M 334 118 L 332 120 L 333 124 Q 335 127 337 123 L 334 121 L 334 118 Z M 124 119 L 122 121 L 123 126 L 127 127 L 126 121 L 124 119 Z M 316 123 L 315 130 Q 317 133 319 129 Q 321 130 320 126 L 316 123 Z M 211 124 L 209 126 L 209 127 L 204 127 Q 202 131 207 130 L 209 130 L 210 128 L 214 126 L 211 124 Z M 116 128 L 108 138 L 109 139 L 114 135 Q 118 136 116 132 L 121 133 L 120 131 Q 116 132 118 128 L 116 128 Z M 394 129 L 390 135 Q 392 139 394 136 L 394 129 Z M 181 133 L 177 137 Q 175 142 181 140 L 180 138 L 182 134 L 181 133 Z M 403 136 L 398 141 L 397 140 L 395 141 L 395 149 L 399 150 L 404 147 L 403 145 L 405 143 L 406 139 L 403 136 Z M 306 143 L 303 145 Q 296 143 297 147 L 301 148 L 306 146 L 306 143 Z M 123 144 L 122 145 L 120 147 L 129 149 L 131 149 Q 135 150 134 147 Q 125 149 123 144 Z M 371 145 L 369 148 L 373 149 L 374 153 L 376 153 L 376 147 L 371 145 Z M 276 147 L 276 158 L 279 159 L 280 156 Q 283 154 278 152 Q 280 146 276 147 Z M 413 148 L 411 149 L 408 153 L 413 154 L 414 151 L 413 148 Z M 102 149 L 100 151 L 100 154 Q 94 151 95 157 Q 98 158 96 160 L 98 162 L 99 159 L 104 156 L 101 155 L 104 150 L 102 149 Z M 308 158 L 306 164 L 301 166 L 308 168 Q 307 162 310 160 Q 311 157 308 158 Z M 173 159 L 168 166 Q 166 171 170 170 Q 170 164 174 162 Q 175 158 173 159 Z M 419 160 L 415 166 L 420 167 L 421 161 L 419 160 Z M 92 164 L 88 169 Q 89 174 86 176 Q 85 179 88 178 Q 92 176 91 169 L 94 167 Q 96 163 92 164 Z M 403 168 L 400 171 L 402 174 Q 401 177 406 175 Q 408 171 403 172 L 404 170 L 403 168 Z M 96 172 L 99 180 Q 98 185 102 183 L 102 180 L 98 174 L 96 172 Z M 416 172 L 414 173 L 414 175 L 413 178 L 419 179 Q 422 178 419 176 L 416 172 Z M 421 172 L 422 177 Q 424 180 429 179 L 428 175 L 421 172 Z M 319 176 L 313 183 L 319 179 L 322 179 Q 324 175 319 176 Z M 185 180 L 181 182 L 187 185 Q 192 186 193 184 L 189 182 L 187 180 L 185 180 Z M 83 181 Q 79 183 83 185 L 82 187 Q 81 189 85 188 L 86 184 L 83 181 Z M 414 182 L 410 185 L 411 187 L 416 185 L 414 182 Z M 200 185 L 202 189 L 199 192 L 201 194 L 204 188 L 200 185 Z M 125 186 L 123 188 L 128 194 L 131 192 Q 133 187 129 188 Q 127 191 125 186 Z M 422 186 L 419 190 Q 418 193 421 192 L 422 194 L 422 191 L 420 191 L 424 188 Q 425 185 422 186 Z M 80 190 L 77 194 Q 79 199 75 198 Q 73 203 78 202 L 80 202 L 81 202 L 78 200 L 79 196 Q 78 192 81 193 Q 82 189 80 190 Z M 335 190 Q 331 191 332 196 L 334 195 L 338 193 Q 340 189 335 190 Z M 374 195 L 373 200 L 376 201 L 376 204 Q 371 202 372 206 L 376 207 L 380 206 L 379 201 L 383 202 L 384 198 L 380 197 L 376 197 Q 377 194 374 195 Z M 135 198 L 133 201 L 136 203 Q 135 206 138 205 L 137 199 L 135 198 Z M 226 207 L 226 210 L 232 213 L 233 213 L 233 208 L 226 207 Z M 289 208 Q 286 210 289 211 Q 294 212 296 210 Q 296 206 289 208 Z M 145 212 Q 143 217 147 219 L 149 219 L 151 217 L 151 216 Q 147 217 149 212 L 145 212 Z M 432 223 L 429 226 L 427 228 L 427 229 Q 430 230 429 227 L 433 225 L 432 223 Z M 263 224 L 259 226 L 261 229 Q 266 230 267 228 L 263 224 Z M 251 230 L 249 233 L 246 235 L 249 238 L 251 237 L 251 230 Z M 90 233 Q 85 236 90 238 L 94 236 L 96 236 L 90 233 Z M 404 235 L 403 238 L 395 237 L 395 239 Q 394 242 397 241 L 399 241 L 406 240 Q 408 234 404 235 Z M 435 236 Q 434 241 439 242 L 442 240 Q 446 241 444 236 L 441 238 L 435 236 Z M 69 237 L 67 239 L 67 248 L 69 248 L 70 245 L 69 243 L 70 240 Q 71 236 69 237 Z M 413 244 L 412 247 L 416 249 L 420 246 Q 418 242 416 247 L 413 244 Z M 198 248 L 197 250 L 202 253 Q 204 254 203 251 L 200 248 L 198 248 Z M 101 251 L 100 254 L 107 258 L 107 255 L 101 251 Z M 386 252 L 379 255 Q 383 262 386 255 L 386 252 Z M 288 253 L 288 256 L 291 255 L 296 257 L 296 256 L 288 253 Z M 325 253 L 323 254 L 321 254 L 319 256 L 323 257 L 326 256 Q 327 252 325 253 Z M 75 254 L 77 263 L 80 264 L 79 259 L 82 257 L 83 254 L 81 255 L 75 254 Z M 141 259 L 140 265 L 145 266 L 150 265 Q 151 261 146 263 L 144 261 L 141 259 Z M 445 259 L 442 263 L 443 265 L 444 267 L 446 266 Q 447 258 445 259 Z M 67 263 L 67 271 L 71 269 L 74 273 L 75 273 L 72 269 L 72 266 L 69 266 Q 70 262 67 263 Z M 428 263 L 428 265 L 431 266 L 433 270 L 431 271 L 425 270 L 424 268 L 422 266 L 421 270 L 426 274 L 427 273 L 427 275 L 428 278 L 426 278 Q 425 282 428 281 L 430 275 L 434 273 L 436 273 L 435 268 L 437 267 L 438 265 L 436 266 L 428 263 Z M 232 267 Q 229 269 232 270 L 234 269 L 237 273 Q 240 274 238 269 Q 237 266 232 267 Z M 410 267 L 408 268 L 406 271 L 412 272 L 414 271 L 413 268 L 410 267 Z M 111 274 L 109 276 Q 107 282 111 282 L 113 278 Q 115 273 111 274 Z M 179 274 L 177 277 L 183 279 Q 186 280 184 275 L 179 274 Z M 80 275 L 75 279 L 77 282 L 78 280 L 82 277 Q 83 274 80 275 Z M 442 279 L 442 282 L 438 283 L 440 286 L 436 286 L 438 290 L 444 285 Q 446 278 442 279 Z M 86 285 L 86 289 Q 87 292 92 291 L 91 288 L 89 287 L 86 285 Z M 364 288 L 363 293 L 367 292 L 370 291 L 364 288 Z M 191 289 L 191 296 Q 194 300 196 294 L 194 291 L 191 289 Z M 140 294 L 139 295 Q 134 294 136 299 L 139 298 L 141 299 Q 145 300 144 298 L 140 294 Z M 405 294 L 400 295 L 397 299 L 400 300 L 406 297 Q 407 293 405 294 Z M 326 296 L 325 299 L 320 297 L 322 301 Q 327 302 328 299 Q 329 295 326 296 Z M 355 296 L 352 297 L 351 302 L 353 304 L 355 299 L 355 296 Z M 437 301 L 435 303 Q 430 302 432 306 L 430 305 L 428 306 L 426 310 L 429 309 L 430 313 Q 434 314 432 308 L 438 305 Q 440 300 437 301 Z M 272 305 L 271 306 L 269 308 L 269 309 Q 277 311 276 307 L 272 305 Z M 426 310 L 424 312 L 422 314 L 419 313 L 417 317 Q 422 319 421 315 L 425 314 L 428 315 L 430 314 L 426 313 L 426 310 Z M 251 313 L 253 316 L 255 315 L 259 317 Q 261 318 260 315 Q 258 311 251 313 Z M 76 315 L 77 318 Q 75 322 79 321 L 81 323 L 78 319 L 79 317 Q 80 314 76 315 Z M 134 315 L 135 318 L 134 321 Q 137 322 136 319 L 139 319 L 139 317 L 134 315 Z M 421 317 L 423 321 Q 428 322 429 320 L 421 317 Z M 271 320 L 268 326 L 274 323 Q 275 318 271 320 Z M 245 323 L 243 324 L 241 327 L 245 328 Q 249 329 247 325 L 245 323 Z M 181 324 L 180 329 Q 179 334 183 332 L 184 326 L 181 324 Z M 429 324 L 426 327 Q 424 332 430 330 L 433 325 L 432 325 L 429 324 Z M 102 331 L 97 338 Q 95 345 101 343 L 100 341 L 101 338 L 103 336 L 104 333 L 102 331 Z M 310 341 L 307 343 Q 311 344 310 349 L 313 348 L 310 341 Z M 89 343 L 89 348 L 93 350 L 94 347 L 91 346 Q 92 342 89 343 Z M 419 343 L 417 345 Q 415 352 419 354 L 420 353 L 421 345 Q 422 342 419 343 Z M 179 345 Q 175 347 177 354 L 180 353 Q 181 346 179 345 Z M 411 345 L 406 347 L 407 349 L 409 348 L 412 349 Q 415 350 414 348 L 411 345 Z M 385 350 Q 383 355 391 353 L 393 353 L 385 350 Z M 102 353 L 98 357 L 97 362 L 102 362 L 100 359 L 103 358 L 104 354 L 102 353 Z M 406 353 L 404 356 L 402 355 Q 396 354 395 357 L 401 358 L 402 359 Q 401 355 407 357 L 409 357 Q 411 351 406 353 Z M 219 356 Q 215 360 216 367 L 220 366 Q 221 359 219 356 Z M 183 358 L 180 365 L 186 363 L 185 361 L 183 358 Z M 378 359 L 376 362 L 380 363 L 381 366 L 386 367 L 384 361 L 378 359 Z M 169 362 L 165 363 Q 164 366 168 365 L 167 370 L 170 371 L 171 363 L 169 362 Z M 112 371 L 109 372 L 108 375 L 111 379 L 113 373 L 112 371 Z M 123 371 L 121 373 L 123 376 L 124 378 L 126 377 L 124 375 L 123 371 Z M 395 371 Q 394 378 400 380 L 402 379 L 404 376 L 403 372 L 395 371 Z M 180 378 L 180 380 L 176 381 L 177 384 Q 175 389 182 387 L 183 388 L 181 385 L 183 379 L 180 378 Z M 120 379 Q 121 386 118 388 L 121 389 Q 123 390 122 387 L 126 385 Q 127 381 125 382 L 122 382 Q 123 378 120 379 Z M 198 385 L 198 387 L 201 389 L 208 390 Q 209 393 211 389 Q 209 385 202 387 L 198 385 Z M 318 386 L 315 388 L 322 391 L 321 387 L 318 386 Z M 391 389 L 385 392 L 387 394 L 392 390 L 391 389 Z M 143 390 L 140 393 Q 136 393 138 401 L 140 403 L 136 401 L 133 402 L 134 404 L 140 406 L 143 405 L 140 400 L 141 398 L 143 396 L 144 394 L 143 390 Z M 306 390 L 304 392 L 308 401 L 308 392 L 306 390 Z M 377 390 L 377 393 L 368 396 L 369 398 L 368 402 Q 372 403 370 398 L 373 397 L 380 397 L 380 392 L 377 390 Z M 338 392 L 338 395 L 341 396 L 342 399 Q 341 403 345 401 L 343 397 L 341 394 L 338 392 Z M 359 401 L 359 407 L 356 408 L 354 412 L 363 411 L 365 409 Q 366 406 362 407 L 363 404 Q 364 399 359 401 Z M 340 404 L 341 414 L 344 415 Q 346 409 342 408 Q 343 403 340 404 Z M 184 407 L 175 408 L 173 410 L 180 411 L 181 416 L 186 415 L 185 413 Q 186 406 184 407 Z M 156 410 L 155 415 L 153 416 L 154 418 L 159 420 L 162 419 L 158 417 L 156 415 Q 160 412 156 410 Z M 334 415 Q 330 421 327 418 L 325 421 L 328 422 Q 331 423 330 421 L 335 417 L 334 415 Z M 352 415 L 349 420 L 347 423 L 352 421 L 353 417 L 352 415 Z M 173 419 L 173 422 L 173 424 L 171 427 L 175 426 L 176 428 L 176 424 L 176 421 L 173 419 Z M 325 423 L 325 429 L 324 429 L 322 433 L 323 435 L 325 434 L 326 433 L 326 431 L 327 429 L 325 423 Z M 245 427 L 242 436 Q 244 440 246 437 L 245 430 L 245 427 Z M 190 429 L 187 431 Q 183 430 184 433 L 187 434 L 191 432 L 190 429 Z M 274 430 L 273 435 L 274 438 Q 276 443 270 441 L 268 444 L 264 445 Q 263 449 269 447 L 270 445 L 270 443 L 275 442 L 277 436 L 276 433 Q 277 429 274 430 Z M 294 431 L 293 433 L 288 437 L 287 440 L 284 445 L 293 442 L 295 436 L 294 431 Z M 308 432 L 304 441 L 308 440 L 310 437 L 308 432 Z M 222 437 L 220 439 L 216 438 L 216 440 L 214 443 L 225 441 Q 227 435 222 437 Z " /><path fill="rgb(2,2,2)" stroke="rgb(2,2,2)" stroke-width="0.6" opacity="1" d="M 240.5 48 L 274.5 48 L 277.5 50 L 290.5 50 Q 292.8 54.3 301.5 52 L 303.5 54 L 309.5 54 L 311.5 56 L 316.5 56 L 318.5 58 L 322.5 58 L 324.5 60 L 328.5 60 L 338.5 64 L 364 78 Q 362.7 81.3 367.5 80 L 376 85.5 L 377.5 88 L 383 90 L 385.5 94 L 393 98 L 408.5 115 L 411 116.5 L 415.5 125 L 422 130.5 Q 425.7 140.3 433 146.5 L 434 151.5 L 444 167.5 L 444 171.5 L 448 177.5 L 450 187.5 Q 454.6 190.4 455 197.5 L 454 199.5 L 459 213.5 L 458 216.5 L 461 223.5 L 460 229 L 462 229.5 L 462 238.5 L 463 242.5 L 462 243.5 L 462 268.5 L 463 271.5 L 462 283 Q 458.7 281.7 460 286.5 L 461 289.5 L 459 292.5 L 459 294.5 L 458 303.5 L 456 306.5 L 457 308.5 L 454 312.5 L 454 318.5 L 452 320.5 L 450 330.5 L 446 336.5 L 446 340.5 L 440 349.5 L 440 352.5 L 434 364 Q 431 362.8 432 366.5 L 414 393 L 409 395.5 L 402.5 404 L 391 413.5 L 385.5 420 L 382 421 L 380.5 423 Q 379.1 427 374 426 L 370.5 431 L 367.5 431 L 360.5 437 L 350.5 441 L 347.5 444 L 341.5 445 L 336.5 449 L 317.5 456 L 315.5 456 Q 306.8 455.8 302.5 460 L 298.5 459 L 291.5 462 L 289.5 461 L 287.5 463 L 278.5 464 L 266 462 Q 267.3 465 263.5 464 L 262.5 465 L 249.5 465 L 246 464 Q 247.3 460.7 242.5 462 L 231.5 464 L 224 463 Q 225.3 459.7 220.5 461 L 218.5 462 L 211.5 459 L 208.5 460 L 203.5 457 L 197.5 457 L 173.5 448 L 170.5 445 L 157.5 440 L 147 433.5 Q 147.8 430.9 144.5 432 L 142 431 L 140.5 428 Q 135.8 428.8 135 425.5 L 132.5 422 L 128 420.5 L 125.5 417 L 124 415.5 L 111 405.5 L 105.5 399 L 102 396.5 L 96.5 387 L 92 384.5 L 84.5 372 L 83 370.5 L 69 346.5 L 63 332.5 L 62 325.5 L 59 321.5 L 59 317.5 L 57 315.5 L 55 302.5 L 53 300.5 L 53 291.5 L 51 289.5 L 51 275.5 L 49 273.5 L 49 262.5 L 50 258.5 L 49 257.5 L 49 240.5 L 51 237.5 L 51 223.5 L 53 221.5 L 55 204.5 L 57 202.5 L 57 197.5 L 59 195.5 L 61 185.5 L 67 174.5 L 67 170.5 L 85 138.5 L 100.5 119 L 102 117.5 L 120.5 98 L 125 95.5 L 126.5 94 L 138 85.5 Q 137.2 82.9 140.5 84 L 150 79 L 151.5 76 L 154.5 76 L 162.5 70 L 170.5 68 L 175.5 64 L 189.5 60 L 191.5 58 L 195.5 58 L 197.5 56 L 203.5 56 L 213.5 52 L 222.5 52 L 224.5 50 L 237.5 50 L 240.5 48 Z M 249 60 L 221 63 L 211 65 L 209 67 L 204 67 L 196 71 L 191 71 L 167 83 L 164 83 L 134 103 L 132 106 L 121 114 L 98 141 L 82 167 L 70 195 L 70 200 L 67 204 L 66 215 L 64 217 Q 64 225 61 230 L 62 233 Q 64 241 60 244 Q 58 265 62 280 L 61 283 L 70 319 L 76 331 L 77 337 L 85 351 Q 84 354 87 353 L 94 368 L 97 369 L 114 392 L 125 401 L 128 403 L 128 406 L 142 414 L 143 417 Q 151 424 164 428 L 173 435 L 180 436 L 199 445 L 204 445 L 215 449 L 222 449 L 224 451 L 235 452 Q 241 450 240 454 L 243 453 L 270 453 Q 277 450 289 451 L 291 449 L 299 449 Q 301 446 307 447 L 335 437 L 363 421 L 364 420 L 370 417 L 372 414 L 380 409 L 382 406 L 392 398 L 401 387 L 404 385 L 410 376 L 413 374 L 415 369 L 418 367 L 419 363 L 422 361 L 423 357 L 432 343 L 433 337 L 438 329 L 441 321 L 441 316 L 446 306 L 445 304 L 450 285 L 449 281 L 453 252 L 451 250 L 450 227 L 446 213 L 446 207 L 441 197 L 440 189 L 437 185 L 435 177 L 418 147 L 416 145 L 409 135 L 408 133 L 406 130 L 402 127 L 400 124 L 399 122 L 397 120 L 378 103 L 375 100 L 361 91 L 359 88 L 349 83 Q 345 84 346 81 L 323 71 L 319 71 L 317 69 L 313 69 L 304 65 L 299 65 L 296 63 Q 286 64 282 61 L 249 60 Z " /><path fill="rgb(224,67,62)" stroke="rgb(224,67,62)" stroke-width="0.6" opacity="1" d="M 229.5 68 L 231 71 Q 227.2 69.5 228 72.5 L 225.5 74 L 224 71.5 L 229.5 68 Z " /><path fill="rgb(224,67,62)" stroke="rgb(224,67,62)" stroke-width="0.6" opacity="1" d="M 256.5 69 L 261 71.5 L 259.5 74 Q 254.3 75.3 253 72.5 Q 251.8 68.8 255.5 70 L 256.5 69 Z " /><path fill="rgb(224,67,62)" stroke="rgb(224,67,62)" stroke-width="0.6" opacity="1" d="M 276.5 71 L 276 72.5 L 277.5 75 L 280 75.5 L 276 77 Q 277.3 73.7 272.5 75 L 271 72 L 276.5 71 Z " /><path fill="rgb(224,67,62)" stroke="rgb(224,67,62)" stroke-width="0.6" opacity="1" d="M 290.5 74 L 294 78.5 L 292.5 79 L 288.5 78 L 284 79 L 285.5 77 L 290.5 74 Z " /><path fill="rgb(224,67,62)" stroke="rgb(224,67,62)" stroke-width="0.6" opacity="1" d="M 191.5 77 L 194 78.5 L 193 81 L 187 83 L 191.5 77 Z " /><path fill="rgb(224,67,62)" stroke="rgb(224,67,62)" stroke-width="0.6" opacity="1" d="M 303.5 77 L 305 78.5 L 303.5 87 L 301 80.5 L 303.5 77 Z " /><path fill="rgb(224,67,62)" stroke="rgb(224,67,62)" stroke-width="0.6" opacity="1" d="M 237.5 80 L 240 81 Q 241.5 84.8 238.5 84 L 239 85.5 L 238.5 87 L 234.5 84 L 233 87 L 230 85.5 L 237.5 80 Z " /><path fill="rgb(224,67,62)" stroke="rgb(224,67,62)" stroke-width="0.6" opacity="1" d="M 268 80 L 272 81 L 273 87 Q 267.5 88.3 266 84.5 L 268 83 L 268 80 Z " /><path fill="rgb(224,67,62)" stroke="rgb(224,67,62)" stroke-width="0.6" opacity="1" d="M 316.5 82 L 319.5 83 L 322 83.5 Q 323.1 86.8 320.5 86 L 317.5 84 L 315 85 L 316.5 82 Z " /><path fill="rgb(224,67,62)" stroke="rgb(224,67,62)" stroke-width="0.6" opacity="1" d="M 332 83 L 337 84.5 L 335.5 89 Q 332.9 88.2 334 91.5 L 331 93 L 332.5 89 L 334 87.5 L 331 86 L 330 92 L 328 91.5 L 328 89.5 L 328 85 Q 333.2 86.7 332 83 Z " /><path fill="rgb(224,67,62)" stroke="rgb(224,67,62)" stroke-width="0.6" opacity="1" d="M 201.5 87 Q 202.8 90 207 89 Q 208.5 92.7 205.5 92 L 203 93 L 203 89 Q 199.8 90 201.5 87 Z " /><path fill="rgb(224,67,62)" stroke="rgb(224,67,62)" stroke-width="0.6" opacity="1" d="M 312.5 87 L 318 89.5 L 317 92 L 310 89.5 L 312.5 87 Z " /><path fill="rgb(224,67,62)" stroke="rgb(224,67,62)" stroke-width="0.6" opacity="1" d="M 347 89 L 355 93.5 L 354.5 98 L 352.5 98 L 349.5 99 L 347.5 99 Q 344.2 100.1 345 97.5 L 348 92.5 L 347 89 Z " /><path fill="rgb(224,67,62)" stroke="rgb(224,67,62)" stroke-width="0.6" opacity="1" d="M 161.5 91 L 163 93 L 167 93 L 168.5 91 L 170 95.5 L 166.5 100 L 163 98.5 L 164 95.5 L 161.5 91 Z " /><path fill="rgb(224,67,62)" stroke="rgb(224,67,62)" stroke-width="0.6" opacity="1" d="M 278 91 Q 284.3 89.5 286 93.5 L 284.5 98 Q 280.3 99.3 282 94.5 L 278 92.5 L 278 91 Z " /><path fill="rgb(224,67,62)" stroke="rgb(224,67,62)" stroke-width="0.6" opacity="1" d="M 296 92 L 298 93.5 L 299 95.5 Q 296.9 99 290 97 Q 291 100 288 99 L 289.5 97 L 296 93.5 L 296 92 Z " /><path fill="rgb(224,67,62)" stroke="rgb(224,67,62)" stroke-width="0.6" opacity="1" d="M 196.5 96 L 203 97 Q 204.1 100.5 196.5 99 L 195 99.5 L 196.5 96 Z " /><path fill="rgb(224,67,62)" stroke="rgb(224,67,62)" stroke-width="0.6" opacity="1" d="M 331.5 96 L 334 97.5 Q 334.8 100.9 330 99 L 330 101.5 L 327.5 102 L 326 100.5 L 325.5 99 Q 330.9 100.9 330 97.5 L 331.5 96 Z " /><path fill="rgb(224,67,62)" stroke="rgb(224,67,62)" stroke-width="0.6" opacity="1" d="M 150.5 98 L 153 104 L 148 103 Q 150.1 108.2 145.5 107 L 145 104.5 L 148.5 99 L 150.5 98 Z " /><path fill="rgb(224,67,62)" stroke="rgb(224,67,62)" stroke-width="0.6" opacity="1" d="M 215.5 101 L 218 101.5 L 217 109 Q 220 108 219 111 L 214.5 112 Q 211.3 110.3 213 103.5 L 215.5 101 Z " /><path fill="rgb(224,67,62)" stroke="rgb(224,67,62)" stroke-width="0.6" opacity="1" d="M 318.5 109 L 319 112 L 317 113.5 L 316 117 Q 312.7 118.3 314 113.5 L 316.5 110 L 318.5 109 Z " /><path fill="rgb(224,67,62)" stroke="rgb(224,67,62)" stroke-width="0.6" opacity="1" d="M 133 111 L 140 111 L 140 115.5 Q 138.5 118.5 137 115.5 Q 138.1 112.2 135.5 113 L 133 114 L 133 111 Z " /><path fill="rgb(224,67,62)" stroke="rgb(224,67,62)" stroke-width="0.6" opacity="1" d="M 177 111 L 180 111.5 L 177 116 L 172 115 L 172 113 Q 178.3 115 177 111 Z " /><path fill="rgb(224,67,62)" stroke="rgb(224,67,62)" stroke-width="0.6" opacity="1" d="M 266.5 114 L 270 121 Q 275.2 118.9 274 123.5 L 270 125 L 268.5 128 L 267 126.5 L 270 125 Q 272.2 119.4 266.5 121 L 265 115.5 L 266.5 114 Z " /><path fill="rgb(224,67,62)" stroke="rgb(224,67,62)" stroke-width="0.6" opacity="1" d="M 333.5 118 L 334 121 L 337 122.5 Q 335 127 333 123.5 L 332 119.5 L 333.5 118 Z " /><path fill="rgb(224,67,62)" stroke="rgb(224,67,62)" stroke-width="0.6" opacity="1" d="M 123.5 119 L 126 120.5 L 127 127 L 123 126 L 122 120.5 L 123.5 119 Z " /><path fill="rgb(224,67,62)" stroke="rgb(224,67,62)" stroke-width="0.6" opacity="1" d="M 316 123 L 320 125.5 Q 321.5 129.9 318.5 129 Q 316.8 132.8 315 129.5 L 316 123 Z " /><path fill="rgb(224,67,62)" stroke="rgb(224,67,62)" stroke-width="0.6" opacity="1" d="M 210.5 124 L 214 125.5 L 210 128 L 208.5 130 L 206.5 130 Q 202.3 131.1 204 127 L 209 127 L 209 125.5 L 210.5 124 Z " /><path fill="rgb(224,67,62)" stroke="rgb(224,67,62)" stroke-width="0.6" opacity="1" d="M 115.5 128 L 118 128 Q 116.5 131.8 119.5 131 L 120.5 133 L 116 132 Q 117.7 136.1 113.5 135 L 108.5 139 L 108 137.5 L 115.5 128 Z " /><path fill="rgb(224,67,62)" stroke="rgb(224,67,62)" stroke-width="0.6" opacity="1" d="M 393.5 129 L 394 135.5 Q 392 139 390 134.5 L 393.5 129 Z " /><path fill="rgb(224,67,62)" stroke="rgb(224,67,62)" stroke-width="0.6" opacity="1" d="M 180.5 133 L 182 133.5 L 180 137.5 L 181 140 Q 175.4 142.2 177 136.5 L 180.5 133 Z " /><path fill="rgb(224,67,62)" stroke="rgb(224,67,62)" stroke-width="0.6" opacity="1" d="M 118.5 136 L 121 140.5 L 119.5 140 L 118 141.5 L 116 142.5 L 116 140 L 118 138.5 L 118.5 136 Z " /><path fill="rgb(224,67,62)" stroke="rgb(224,67,62)" stroke-width="0.6" opacity="1" d="M 402.5 136 L 406 138.5 L 404.5 143 L 403 144.5 L 404 147 L 398.5 150 L 395 148.5 L 395 140.5 L 396.5 140 L 397.5 141 L 402.5 136 Z " /><path fill="rgb(224,67,62)" stroke="rgb(224,67,62)" stroke-width="0.6" opacity="1" d="M 305.5 143 L 306 145.5 L 300.5 148 L 297 147 Q 295.6 143 302.5 145 L 305.5 143 Z " /><path fill="rgb(224,67,62)" stroke="rgb(224,67,62)" stroke-width="0.6" opacity="1" d="M 103 144 L 109 147 Q 110.3 150.7 104.5 149 L 101 154.5 L 104 155.5 L 99 158.5 L 97.5 162 L 96 159.5 Q 98.5 158 95 156.5 Q 93.7 151.5 100 154 L 100 150.5 L 104 149 L 103 144 Z " /><path fill="rgb(224,67,62)" stroke="rgb(224,67,62)" stroke-width="0.6" opacity="1" d="M 122.5 144 Q 124.9 149.3 134 147 Q 135.3 150.3 130.5 149 L 128.5 149 L 120 147 L 121.5 145 L 122.5 144 Z " /><path fill="rgb(224,67,62)" stroke="rgb(224,67,62)" stroke-width="0.6" opacity="1" d="M 278 145 L 282 146.5 L 278 147 Q 276.8 153 281 154.5 L 279 159 L 276 157.5 L 276 147.5 Q 278.8 148.1 278 145 Z " /><path fill="rgb(224,67,62)" stroke="rgb(224,67,62)" stroke-width="0.6" opacity="1" d="M 370.5 145 L 376 147 L 376 152.5 Q 373.3 151.5 374 155.5 L 372 154.5 L 374 153 L 374 150.5 L 369 147.5 L 370.5 145 Z " /><path fill="rgb(224,67,62)" stroke="rgb(224,67,62)" stroke-width="0.6" opacity="1" d="M 412.5 148 L 414 150.5 L 413 154 L 408 152.5 L 410.5 149 L 412.5 148 Z " /><path fill="rgb(224,67,62)" stroke="rgb(224,67,62)" stroke-width="0.6" opacity="1" d="M 248.5 149 L 250 151 Q 246.3 149.5 247 152.5 Q 245 157 243 153.5 L 244.5 150 L 246.5 151 L 248.5 149 Z " /><path fill="rgb(224,67,62)" stroke="rgb(224,67,62)" stroke-width="0.6" opacity="1" d="M 307.5 158 Q 310.8 156.9 310 159.5 Q 306.8 162 308 168 L 301 165.5 L 306 163.5 L 307.5 158 Z " /><path fill="rgb(224,67,62)" stroke="rgb(224,67,62)" stroke-width="0.6" opacity="1" d="M 172.5 159 Q 175.1 158.2 174 161.5 Q 169.7 163.9 170 170 Q 166.3 171.3 168 165.5 L 172.5 159 Z " /><path fill="rgb(224,67,62)" stroke="rgb(224,67,62)" stroke-width="0.6" opacity="1" d="M 418.5 160 L 421 161 L 419.5 167 L 415 165.5 L 418.5 160 Z " /><path fill="rgb(224,67,62)" stroke="rgb(224,67,62)" stroke-width="0.6" opacity="1" d="M 91.5 164 Q 95.7 162.9 94 167 L 91 168.5 Q 91.8 175.8 87.5 178 Q 84.9 178.8 86 175.5 Q 89.3 174.3 88 168.5 L 91.5 164 Z " /><path fill="rgb(224,67,62)" stroke="rgb(224,67,62)" stroke-width="0.6" opacity="1" d="M 402.5 168 L 404 169.5 L 403 172 Q 407.5 170.5 406 175 Q 401.2 176.9 402 173.5 L 400 170.5 L 402.5 168 Z " /><path fill="rgb(224,67,62)" stroke="rgb(224,67,62)" stroke-width="0.6" opacity="1" d="M 96 172 L 98 173.5 L 102 179.5 L 102 183 Q 97.5 184.8 99 179.5 L 96 172 Z " /><path fill="rgb(224,67,62)" stroke="rgb(224,67,62)" stroke-width="0.6" opacity="1" d="M 415.5 172 L 418.5 176 Q 421.5 177.5 418.5 179 L 413 177.5 L 414 174.5 L 413.5 173 L 415.5 172 Z " /><path fill="rgb(224,67,62)" stroke="rgb(224,67,62)" stroke-width="0.6" opacity="1" d="M 421 172 L 428 174.5 L 429 179 Q 423.5 180.3 422 176.5 L 421 172 Z " /><path fill="rgb(224,67,62)" stroke="rgb(224,67,62)" stroke-width="0.6" opacity="1" d="M 307.5 175 L 310.5 176 L 313.5 175 L 313 176.5 L 310.5 180 L 308 178.5 L 307.5 175 Z " /><path fill="rgb(224,67,62)" stroke="rgb(224,67,62)" stroke-width="0.6" opacity="1" d="M 318.5 176 Q 323.8 174.5 322 179 L 318.5 179 L 313 183 L 318.5 176 Z " /><path fill="rgb(224,67,62)" stroke="rgb(224,67,62)" stroke-width="0.6" opacity="1" d="M 184.5 180 L 187 180 L 188.5 182 L 193 183.5 Q 191.8 186.3 186.5 185 L 181 181.5 L 184.5 180 Z " /><path fill="rgb(224,67,62)" stroke="rgb(224,67,62)" stroke-width="0.6" opacity="1" d="M 82.5 181 L 86 183.5 L 84.5 188 Q 81.2 189.1 82 186.5 L 83 184.5 Q 79.3 182.8 82.5 181 Z " /><path fill="rgb(224,67,62)" stroke="rgb(224,67,62)" stroke-width="0.6" opacity="1" d="M 413.5 182 L 415.5 185 L 410.5 187 L 409.5 185 L 413.5 182 Z " /><path fill="rgb(224,67,62)" stroke="rgb(224,67,62)" stroke-width="0.6" opacity="1" d="M 427.5 183 L 434 188.5 Q 434.8 191.9 430 190 Q 432.1 184.8 427.5 186 Q 424.5 184.5 427.5 183 Z " /><path fill="rgb(224,67,62)" stroke="rgb(224,67,62)" stroke-width="0.6" opacity="1" d="M 199.5 185 L 204 187.5 L 200.5 194 L 199 191.5 L 202 188.5 L 199.5 185 Z " /><path fill="rgb(224,67,62)" stroke="rgb(224,67,62)" stroke-width="0.6" opacity="1" d="M 124.5 186 Q 126.5 191 128.5 188 Q 132.7 186.7 131 191.5 L 127.5 194 L 123 187.5 L 124.5 186 Z " /><path fill="rgb(224,67,62)" stroke="rgb(224,67,62)" stroke-width="0.6" opacity="1" d="M 421.5 186 Q 424.8 184.9 424 187.5 L 420 190.5 L 422 191 L 421.5 194 L 421 192 Q 418 193.3 419 189.5 L 421.5 186 Z " /><path fill="rgb(224,67,62)" stroke="rgb(224,67,62)" stroke-width="0.6" opacity="1" d="M 106.5 187 L 105 189.5 L 102.5 193 L 101 191.5 L 106.5 187 Z " /><path fill="rgb(224,67,62)" stroke="rgb(224,67,62)" stroke-width="0.6" opacity="1" d="M 79.5 190 Q 82.5 189.2 81 193 Q 78 191.8 79 195.5 L 78 200 L 81 201.5 L 79.5 202 L 77.5 202 Q 72.9 203.2 75 198 Q 78.7 199.3 77 193.5 L 79.5 190 Z " /><path fill="rgb(224,67,62)" stroke="rgb(224,67,62)" stroke-width="0.6" opacity="1" d="M 241 190 L 244 191.5 L 243 194 L 246 195.5 L 244.5 198 Q 241.1 198.8 243 194 L 241 194 L 241 190 Z " /><path fill="rgb(224,67,62)" stroke="rgb(224,67,62)" stroke-width="0.6" opacity="1" d="M 334.5 190 Q 339.8 188.5 338 193 L 334 194.5 L 332 196 Q 331 191.3 334.5 190 Z " /><path fill="rgb(224,67,62)" stroke="rgb(224,67,62)" stroke-width="0.6" opacity="1" d="M 324.5 194 L 328 195.5 L 326.5 198 Q 321.3 199.3 320 196.5 Q 322.2 198.2 324.5 194 Z " /><path fill="rgb(224,67,62)" stroke="rgb(224,67,62)" stroke-width="0.6" opacity="1" d="M 374 195 Q 377 194 376 197 L 379.5 197 L 384 198 L 382.5 202 L 379 201 L 380 206 L 375.5 207 L 372 206 Q 370.8 202.3 376 204 L 376 201 L 373 199.5 L 374 195 Z " /><path fill="rgb(224,67,62)" stroke="rgb(224,67,62)" stroke-width="0.6" opacity="1" d="M 134.5 198 L 137 199 L 138 205 Q 135 206.3 136 202.5 L 133 201 L 134.5 198 Z " /><path fill="rgb(224,67,62)" stroke="rgb(224,67,62)" stroke-width="0.6" opacity="1" d="M 225.5 207 L 233 208 L 233 213 L 231.5 213 L 226 210 L 225.5 207 Z " /><path fill="rgb(224,67,62)" stroke="rgb(224,67,62)" stroke-width="0.6" opacity="1" d="M 288.5 208 Q 296.4 206.2 296 209.5 Q 294.5 212.5 288.5 211 Q 285.5 209.5 288.5 208 Z " /><path fill="rgb(224,67,62)" stroke="rgb(224,67,62)" stroke-width="0.6" opacity="1" d="M 80.5 210 L 83 211.5 L 82 216 L 80 215.5 L 81 213.5 L 79 212.5 L 78.5 215 Q 74.5 212.5 80.5 210 Z " /><path fill="rgb(224,67,62)" stroke="rgb(224,67,62)" stroke-width="0.6" opacity="1" d="M 145 212 L 149 212 Q 147.1 216.8 150.5 216 L 150.5 217 L 149 219 L 146.5 219 Q 143.5 217.4 145 212 Z " /><path fill="rgb(224,67,62)" stroke="rgb(224,67,62)" stroke-width="0.6" opacity="1" d="M 257.5 222 L 259.5 226 L 262.5 224 L 267 227.5 Q 265.8 230.3 260.5 229 L 259 226 L 255 223.5 L 257.5 222 Z " /><path fill="rgb(224,67,62)" stroke="rgb(224,67,62)" stroke-width="0.6" opacity="1" d="M 431.5 223 L 433 224.5 L 429 227 Q 430.3 230 426.5 229 L 427 227.5 L 428.5 226 L 431.5 223 Z " /><path fill="rgb(224,67,62)" stroke="rgb(224,67,62)" stroke-width="0.6" opacity="1" d="M 250.5 230 L 251 237 L 248.5 238 L 246 234.5 L 249 233 L 250.5 230 Z " /><path fill="rgb(224,67,62)" stroke="rgb(224,67,62)" stroke-width="0.6" opacity="1" d="M 346.5 232 L 348 236 L 350 237.5 L 347.5 241 L 346 240.5 L 348 236 L 345 234.5 L 346.5 232 Z " /><path fill="rgb(224,67,62)" stroke="rgb(224,67,62)" stroke-width="0.6" opacity="1" d="M 89.5 233 L 96 235.5 L 93.5 236 L 89.5 238 Q 84.5 235.5 89.5 233 Z " /><path fill="rgb(224,67,62)" stroke="rgb(224,67,62)" stroke-width="0.6" opacity="1" d="M 404 235 Q 408 233.7 406 240 L 398.5 241 L 396.5 241 Q 393.9 241.8 395 238.5 L 394.5 237 L 402.5 238 L 404 235 Z " /><path fill="rgb(224,67,62)" stroke="rgb(224,67,62)" stroke-width="0.6" opacity="1" d="M 435 236 L 440.5 238 L 444 236 Q 446.1 241.2 441.5 240 L 438.5 242 Q 434.3 240.7 435 236 Z " /><path fill="rgb(224,67,62)" stroke="rgb(224,67,62)" stroke-width="0.6" opacity="1" d="M 68.5 237 Q 71.1 236.2 70 239.5 L 69 242.5 L 70 244.5 L 69 248 L 67 247.5 L 67 238.5 L 68.5 237 Z " /><path fill="rgb(224,67,62)" stroke="rgb(224,67,62)" stroke-width="0.6" opacity="1" d="M 412.5 244 L 415.5 247 Q 417.7 241.8 420 245.5 L 415.5 249 L 412 246.5 L 412.5 244 Z " /><path fill="rgb(224,67,62)" stroke="rgb(224,67,62)" stroke-width="0.6" opacity="1" d="M 96 248 L 100 249.5 L 103.5 254 L 107 255 L 106.5 258 L 100 254 Q 101.7 249.9 97.5 251 L 96 248 Z " /><path fill="rgb(224,67,62)" stroke="rgb(224,67,62)" stroke-width="0.6" opacity="1" d="M 197.5 248 L 199.5 248 L 203 250.5 Q 204.1 253.8 201.5 253 L 197 250 L 197.5 248 Z " /><path fill="rgb(224,67,62)" stroke="rgb(224,67,62)" stroke-width="0.6" opacity="1" d="M 404 249 Q 407.7 247.8 406 253 L 400.5 256 L 399 253 Q 403.8 254.9 403 251.5 L 404 249 Z " /><path fill="rgb(224,67,62)" stroke="rgb(224,67,62)" stroke-width="0.6" opacity="1" d="M 265.5 250 L 267 251.5 L 270 256.5 L 268 257 Q 269.4 253.3 263.5 255 L 264 253.5 L 265.5 250 Z " /><path fill="rgb(224,67,62)" stroke="rgb(224,67,62)" stroke-width="0.6" opacity="1" d="M 385.5 252 L 386 254.5 Q 382.5 261.5 379 254.5 L 385.5 252 Z " /><path fill="rgb(224,67,62)" stroke="rgb(224,67,62)" stroke-width="0.6" opacity="1" d="M 288 253 L 296 255.5 L 295.5 257 L 290.5 255 L 288 256 L 288 253 Z " /><path fill="rgb(224,67,62)" stroke="rgb(224,67,62)" stroke-width="0.6" opacity="1" d="M 324.5 253 Q 327.1 252.2 326 255.5 L 322.5 257 L 319 256 L 320.5 254 L 322.5 254 L 324.5 253 Z " /><path fill="rgb(224,67,62)" stroke="rgb(224,67,62)" stroke-width="0.6" opacity="1" d="M 351 253 Q 355.1 251.3 354 255.5 L 352 259 L 347 257.5 L 352 257 L 351 253 Z " /><path fill="rgb(224,67,62)" stroke="rgb(224,67,62)" stroke-width="0.6" opacity="1" d="M 75 254 L 80.5 255 L 83 254 L 81.5 257 L 79 258.5 L 80 264 L 77 262.5 L 75 254 Z " /><path fill="rgb(224,67,62)" stroke="rgb(224,67,62)" stroke-width="0.6" opacity="1" d="M 141 259 L 144 260.5 L 145.5 263 Q 151.3 261.3 150 265 L 144.5 266 L 140 265 L 141 259 Z " /><path fill="rgb(224,67,62)" stroke="rgb(224,67,62)" stroke-width="0.6" opacity="1" d="M 444.5 259 Q 447.5 258.5 446 265.5 L 443.5 267 L 443 264.5 L 442 262.5 L 444.5 259 Z " /><path fill="rgb(224,67,62)" stroke="rgb(224,67,62)" stroke-width="0.6" opacity="1" d="M 67 263 Q 70.3 261.9 69 266 L 72 266 L 72 268.5 L 75 272.5 L 73.5 273 L 71 269 L 67 271 L 67 263 Z " /><path fill="rgb(224,67,62)" stroke="rgb(224,67,62)" stroke-width="0.6" opacity="1" d="M 428 263 L 435.5 266 L 437.5 265 L 436.5 267 L 435 267.5 L 436 272.5 L 433.5 273 L 430 274.5 L 428 281 Q 424.7 282.1 426 278 L 428 277.5 L 427 274.5 L 426.5 273 L 425.5 274 L 421 269.5 L 422 266 L 424 267.5 L 425 270 L 430.5 271 L 433 270 L 430.5 266 L 428 264.5 L 428 263 Z " /><path fill="rgb(224,67,62)" stroke="rgb(224,67,62)" stroke-width="0.6" opacity="1" d="M 231.5 267 Q 236.8 265.8 238 268.5 Q 239.9 273.9 236.5 273 L 233.5 269 L 231.5 270 Q 228.5 268.5 231.5 267 Z " /><path fill="rgb(224,67,62)" stroke="rgb(224,67,62)" stroke-width="0.6" opacity="1" d="M 409.5 267 L 413 268 L 414 270.5 L 411.5 272 L 406 271 L 407.5 268 L 409.5 267 Z " /><path fill="rgb(224,67,62)" stroke="rgb(224,67,62)" stroke-width="0.6" opacity="1" d="M 229.5 270 L 231 273 L 233 274.5 L 230.5 273 L 226.5 274 Q 223.5 272.5 226.5 271 L 229.5 270 Z " /><path fill="rgb(224,67,62)" stroke="rgb(224,67,62)" stroke-width="0.6" opacity="1" d="M 110.5 274 Q 114.7 272.7 113 277.5 L 110.5 282 Q 107.5 282.5 109 275.5 L 110.5 274 Z " /><path fill="rgb(224,67,62)" stroke="rgb(224,67,62)" stroke-width="0.6" opacity="1" d="M 178.5 274 L 184 275 Q 185.9 279.8 182.5 279 L 177 277 L 178.5 274 Z " /><path fill="rgb(224,67,62)" stroke="rgb(224,67,62)" stroke-width="0.6" opacity="1" d="M 79.5 275 Q 82.8 273.9 82 276.5 L 78 279.5 L 76.5 282 L 75 278.5 L 79.5 275 Z " /><path fill="rgb(224,67,62)" stroke="rgb(224,67,62)" stroke-width="0.6" opacity="1" d="M 442 279 Q 446 277.6 444 284.5 L 437.5 290 L 436 286 L 440 285.5 L 438 282.5 L 442 282 L 442 279 Z " /><path fill="rgb(224,67,62)" stroke="rgb(224,67,62)" stroke-width="0.6" opacity="1" d="M 75.5 285 Q 78.9 284.2 77 289 L 81.5 289 L 81.5 290 L 78 292.5 L 81 293 L 81.5 291 L 82 294.5 L 78 294.5 L 77 296.5 L 76.5 299 Q 73.2 297.9 74 300.5 L 75 303 L 72.5 304 Q 69.3 302.1 71 296 L 73.5 297 L 77 289.5 L 74 288 L 75.5 285 Z " /><path fill="rgb(224,67,62)" stroke="rgb(224,67,62)" stroke-width="0.6" opacity="1" d="M 86 285 L 89 286.5 L 90.5 288 L 92 291 Q 87.3 292 86 288.5 L 86 285 Z " /><path fill="rgb(224,67,62)" stroke="rgb(224,67,62)" stroke-width="0.6" opacity="1" d="M 219 287 L 224 288.5 L 222.5 293 L 221 295 L 218 295 Q 216.9 291.7 221 293 L 221 290.5 L 219 287 Z " /><path fill="rgb(224,67,62)" stroke="rgb(224,67,62)" stroke-width="0.6" opacity="1" d="M 364 288 L 370 290.5 L 366.5 292 L 363 293 L 364 288 Z " /><path fill="rgb(224,67,62)" stroke="rgb(224,67,62)" stroke-width="0.6" opacity="1" d="M 191 289 L 194 290.5 L 196 293.5 Q 193.5 299.5 191 295.5 L 191 289 Z " /><path fill="rgb(224,67,62)" stroke="rgb(224,67,62)" stroke-width="0.6" opacity="1" d="M 281.5 292 L 284 293.5 Q 283.2 296.5 287 295 L 287 297 L 284 297 Q 285 300 282 299 L 280.5 297 L 279 294.5 L 281.5 292 Z " /><path fill="rgb(224,67,62)" stroke="rgb(224,67,62)" stroke-width="0.6" opacity="1" d="M 139.5 294 L 144 297.5 Q 144.9 300.5 140.5 299 L 138.5 300 L 136 299 Q 133.9 293.8 138.5 295 L 139.5 294 Z " /><path fill="rgb(224,67,62)" stroke="rgb(224,67,62)" stroke-width="0.6" opacity="1" d="M 404.5 294 Q 407.5 293.2 406 297 L 399.5 300 L 397 299 L 399.5 295 L 404.5 294 Z " /><path fill="rgb(224,67,62)" stroke="rgb(224,67,62)" stroke-width="0.6" opacity="1" d="M 88.5 296 L 91.5 299 L 95.5 296 L 95.5 297 Q 92.9 296.2 94 299.5 L 93 302 L 90 302 Q 91.5 298.2 88.5 299 Q 85.5 297.5 88.5 296 Z " /><path fill="rgb(224,67,62)" stroke="rgb(224,67,62)" stroke-width="0.6" opacity="1" d="M 326 296 Q 329 294.8 328 298.5 Q 327 302 321.5 301 L 320 297 L 324.5 299 L 326 296 Z " /><path fill="rgb(224,67,62)" stroke="rgb(224,67,62)" stroke-width="0.6" opacity="1" d="M 354.5 296 L 355 298.5 L 352.5 304 L 351 301.5 L 352 297 L 354.5 296 Z " /><path fill="rgb(224,67,62)" stroke="rgb(224,67,62)" stroke-width="0.6" opacity="1" d="M 436.5 301 Q 439.9 300.2 438 305 L 432 307.5 Q 433.3 313.6 430.5 313 L 427.5 315 L 424.5 314 L 421 315 Q 419.7 318.3 424.5 317 L 429 319.5 Q 427.8 322.3 422.5 321 L 421 317 Q 415.8 319.1 417 314.5 L 419.5 314 L 422 314 L 423.5 312 L 426 307 L 421 305.5 L 422.5 304 L 426 305 L 426.5 307 L 429.5 305 L 432 306 Q 430.3 301.9 434.5 303 L 436.5 301 Z " /><path fill="rgb(224,67,62)" stroke="rgb(224,67,62)" stroke-width="0.6" opacity="1" d="M 271.5 305 L 276 306.5 Q 277.1 311.2 268.5 309 L 269 307.5 L 270.5 306 L 271.5 305 Z " /><path fill="rgb(224,67,62)" stroke="rgb(224,67,62)" stroke-width="0.6" opacity="1" d="M 251 313 Q 257.9 311 260 314.5 Q 261.1 317.8 258.5 317 L 254.5 315 L 252.5 316 L 251 313 Z " /><path fill="rgb(224,67,62)" stroke="rgb(224,67,62)" stroke-width="0.6" opacity="1" d="M 75.5 315 Q 79.9 313.5 79 316.5 L 78 318.5 L 81 322.5 L 78.5 321 Q 75.5 321.9 77 317.5 L 75.5 315 Z " /><path fill="rgb(224,67,62)" stroke="rgb(224,67,62)" stroke-width="0.6" opacity="1" d="M 134 315 L 139 317 L 139 319 L 136 319 Q 137 322 134 321 L 135 317.5 L 134 315 Z " /><path fill="rgb(224,67,62)" stroke="rgb(224,67,62)" stroke-width="0.6" opacity="1" d="M 200.5 317 L 210 321 Q 211.1 324.3 207 323 Q 208.3 319.3 202.5 321 L 200 320 L 200.5 317 Z " /><path fill="rgb(224,67,62)" stroke="rgb(224,67,62)" stroke-width="0.6" opacity="1" d="M 271 320 Q 275.1 318.3 274 322.5 L 268 326 L 271 320 Z " /><path fill="rgb(224,67,62)" stroke="rgb(224,67,62)" stroke-width="0.6" opacity="1" d="M 188 321 L 193 323.5 L 192.5 325 L 188 323 L 186.5 326 L 186 323 Q 189 324 188 321 Z " /><path fill="rgb(224,67,62)" stroke="rgb(224,67,62)" stroke-width="0.6" opacity="1" d="M 418.5 321 L 419 323 L 417 324.5 L 414.5 325 L 412 323.5 L 413.5 322 L 416.5 323 L 418.5 321 Z " /><path fill="rgb(224,67,62)" stroke="rgb(224,67,62)" stroke-width="0.6" opacity="1" d="M 239 323 L 241 324.5 L 242.5 324 L 245.5 323 L 247 328 L 243.5 327 L 241 326.5 L 239 323 Z " /><path fill="rgb(224,67,62)" stroke="rgb(224,67,62)" stroke-width="0.6" opacity="1" d="M 181 324 L 184 325.5 L 183 332 Q 178.5 333.8 180 328.5 L 181 324 Z " /><path fill="rgb(224,67,62)" stroke="rgb(224,67,62)" stroke-width="0.6" opacity="1" d="M 428.5 324 L 431.5 325 L 433 324.5 L 429.5 330 Q 424.3 331.8 426 326.5 L 428.5 324 Z " /><path fill="rgb(224,67,62)" stroke="rgb(224,67,62)" stroke-width="0.6" opacity="1" d="M 101.5 331 L 104 332.5 L 103 336 L 101 337.5 L 100 340.5 L 101 343 Q 94.6 345.3 97 337.5 L 101.5 331 Z " /><path fill="rgb(224,67,62)" stroke="rgb(224,67,62)" stroke-width="0.6" opacity="1" d="M 189.5 332 L 192 333.5 L 188 335 Q 189.3 338.3 184.5 337 Q 182.8 340.8 181 337.5 L 188 335 L 189.5 332 Z " /><path fill="rgb(224,67,62)" stroke="rgb(224,67,62)" stroke-width="0.6" opacity="1" d="M 116 333 Q 119 331.8 118 335.5 Q 116.7 339.7 112 339 Q 110.8 335.3 116 337 L 116 333 Z " /><path fill="rgb(224,67,62)" stroke="rgb(224,67,62)" stroke-width="0.6" opacity="1" d="M 266 336 L 268 337.5 Q 271 338.8 270 343 L 272 344.5 L 268 341.5 L 266 336 Z " /><path fill="rgb(224,67,62)" stroke="rgb(224,67,62)" stroke-width="0.6" opacity="1" d="M 309.5 341 L 313 347.5 L 310 349 Q 311 343.9 307 342.5 L 309.5 341 Z " /><path fill="rgb(224,67,62)" stroke="rgb(224,67,62)" stroke-width="0.6" opacity="1" d="M 89 343 Q 92 341.8 91 345.5 L 94 347 L 92.5 350 L 89 347.5 L 89 343 Z " /><path fill="rgb(224,67,62)" stroke="rgb(224,67,62)" stroke-width="0.6" opacity="1" d="M 418.5 343 Q 421.8 341.9 421 344.5 L 420 352.5 L 418.5 354 Q 415 352 417 344.5 L 418.5 343 Z " /><path fill="rgb(224,67,62)" stroke="rgb(224,67,62)" stroke-width="0.6" opacity="1" d="M 178.5 345 Q 181.5 346.5 180 352.5 L 177 354 Q 175 347.1 178.5 345 Z " /><path fill="rgb(224,67,62)" stroke="rgb(224,67,62)" stroke-width="0.6" opacity="1" d="M 410.5 345 L 414 347.5 Q 414.8 350.1 411.5 349 L 408.5 348 L 406.5 349 L 405.5 347 L 410.5 345 Z " /><path fill="rgb(224,67,62)" stroke="rgb(224,67,62)" stroke-width="0.6" opacity="1" d="M 385 350 L 393 352.5 L 390.5 353 L 385.5 353 L 381.5 355 L 382.5 353 Q 386.7 354.1 385 350 Z " /><path fill="rgb(224,67,62)" stroke="rgb(224,67,62)" stroke-width="0.6" opacity="1" d="M 101.5 353 L 104 354 L 102.5 358 L 100 358.5 L 102 362 L 97 361.5 L 98 356.5 L 101.5 353 Z " /><path fill="rgb(224,67,62)" stroke="rgb(224,67,62)" stroke-width="0.6" opacity="1" d="M 405.5 353 Q 410.8 351.3 409 356.5 L 406.5 357 Q 401.1 355.1 402 358.5 L 400.5 358 L 395 356.5 Q 396.3 353.8 401.5 355 L 404 356 L 405.5 353 Z " /><path fill="rgb(224,67,62)" stroke="rgb(224,67,62)" stroke-width="0.6" opacity="1" d="M 218.5 356 Q 221.3 358.7 220 365.5 L 214.5 369 L 214 367 Q 218 368.4 216 361.5 L 218.5 356 Z " /><path fill="rgb(224,67,62)" stroke="rgb(224,67,62)" stroke-width="0.6" opacity="1" d="M 134.5 357 L 136 359.5 L 132.5 365 L 132 362.5 L 134.5 357 Z " /><path fill="rgb(224,67,62)" stroke="rgb(224,67,62)" stroke-width="0.6" opacity="1" d="M 182.5 358 L 184.5 361 L 186 363 L 180 365 L 182.5 358 Z " /><path fill="rgb(224,67,62)" stroke="rgb(224,67,62)" stroke-width="0.6" opacity="1" d="M 377.5 359 L 384 361 L 386 367 L 381 365.5 L 379.5 363 L 376 361.5 L 377.5 359 Z " /><path fill="rgb(224,67,62)" stroke="rgb(224,67,62)" stroke-width="0.6" opacity="1" d="M 396.5 361 L 399 362.5 L 397.5 365 Q 393.3 363.7 395 368.5 Q 393 372 391 367.5 L 392 365 Q 389 366.3 390 362.5 L 392 363.5 Q 391.2 366.5 395 365 L 396.5 361 Z " /><path fill="rgb(224,67,62)" stroke="rgb(224,67,62)" stroke-width="0.6" opacity="1" d="M 168.5 362 L 171 362.5 L 170 371 L 167 369.5 L 168 365 Q 163.9 366.3 165 363 L 168.5 362 Z " /><path fill="rgb(224,67,62)" stroke="rgb(224,67,62)" stroke-width="0.6" opacity="1" d="M 111.5 371 L 113 372.5 L 110.5 379 L 108 374.5 L 109 372 L 111.5 371 Z " /><path fill="rgb(224,67,62)" stroke="rgb(224,67,62)" stroke-width="0.6" opacity="1" d="M 122.5 371 L 124 375 L 126 376.5 L 123.5 378 L 123 375.5 L 121 372.5 L 122.5 371 Z " /><path fill="rgb(224,67,62)" stroke="rgb(224,67,62)" stroke-width="0.6" opacity="1" d="M 395 371 L 403 372 L 404 375.5 L 401.5 379 L 399.5 380 Q 393.8 378.3 395 371 Z " /><path fill="rgb(224,67,62)" stroke="rgb(224,67,62)" stroke-width="0.6" opacity="1" d="M 180 378 L 183 378.5 L 181 384.5 L 183 387.5 L 181.5 387 Q 175.2 389.2 177 383.5 L 176 381 L 180 379.5 L 180 378 Z " /><path fill="rgb(224,67,62)" stroke="rgb(224,67,62)" stroke-width="0.6" opacity="1" d="M 120 379 Q 123 377.8 122 381.5 L 124.5 382 Q 127.5 381.2 126 385 L 122 386.5 L 125 392.5 L 122 390.5 L 120.5 389 L 118 388 Q 121 385.5 120 379 Z " /><path fill="rgb(224,67,62)" stroke="rgb(224,67,62)" stroke-width="0.6" opacity="1" d="M 198 385 L 201.5 387 Q 209 385 211 388.5 Q 209.2 392.7 207.5 390 L 200.5 389 L 198 386.5 L 198 385 Z " /><path fill="rgb(224,67,62)" stroke="rgb(224,67,62)" stroke-width="0.6" opacity="1" d="M 317.5 386 L 321 387 L 322 391 L 315 387.5 L 317.5 386 Z " /><path fill="rgb(224,67,62)" stroke="rgb(224,67,62)" stroke-width="0.6" opacity="1" d="M 390.5 389 L 392 389.5 L 386.5 394 L 385 391.5 L 390.5 389 Z " /><path fill="rgb(224,67,62)" stroke="rgb(224,67,62)" stroke-width="0.6" opacity="1" d="M 142.5 390 L 144 393.5 L 143 396 L 141 397.5 L 140 399.5 L 143 404.5 L 139.5 406 L 134 404 L 133 401.5 L 135.5 401 L 139.5 403 L 138 400.5 Q 136.3 392.6 139.5 393 L 142.5 390 Z " /><path fill="rgb(224,67,62)" stroke="rgb(224,67,62)" stroke-width="0.6" opacity="1" d="M 214.5 390 L 217 391.5 Q 215.8 395.3 219.5 394 L 221 396.5 L 218.5 398 L 217 394 Q 211.8 396.1 213 391.5 L 214.5 390 Z " /><path fill="rgb(224,67,62)" stroke="rgb(224,67,62)" stroke-width="0.6" opacity="1" d="M 305.5 390 L 308 391.5 L 308 400.5 L 309.5 401 L 312 401.5 Q 312.8 404.1 309.5 403 L 306 399.5 Q 307 393.5 304 391.5 L 305.5 390 Z " /><path fill="rgb(224,67,62)" stroke="rgb(224,67,62)" stroke-width="0.6" opacity="1" d="M 377 390 L 380 391.5 L 380 397 L 372.5 397 L 370 398 Q 371.7 403.2 368 402 L 369 397.5 L 368 395.5 L 377 392.5 L 377 390 Z " /><path fill="rgb(224,67,62)" stroke="rgb(224,67,62)" stroke-width="0.6" opacity="1" d="M 338 392 L 341 393.5 L 343 396.5 L 345 401 Q 340.9 402.7 342 398.5 L 341 396 L 338 394.5 L 338 392 Z " /><path fill="rgb(224,67,62)" stroke="rgb(224,67,62)" stroke-width="0.6" opacity="1" d="M 359 401 Q 364.2 398.9 363 403.5 L 362 407 Q 365.8 405.5 365 408.5 L 362.5 411 L 354 412 L 355.5 408 L 359 406.5 L 359 401 Z " /><path fill="rgb(224,67,62)" stroke="rgb(224,67,62)" stroke-width="0.6" opacity="1" d="M 186.5 404 L 188 405.5 L 185 407 L 186 415 L 181 416 L 179.5 411 L 173 409.5 L 174.5 408 L 185 407 L 186.5 404 Z " /><path fill="rgb(224,67,62)" stroke="rgb(224,67,62)" stroke-width="0.6" opacity="1" d="M 340 404 Q 343.3 402.7 342 407.5 Q 345.5 409.2 344 415 L 348 416.5 Q 349.3 420.3 345.5 419 L 344 415 L 341 413.5 L 340 404 Z " /><path fill="rgb(224,67,62)" stroke="rgb(224,67,62)" stroke-width="0.6" opacity="1" d="M 155.5 410 Q 160.3 412.3 156 414.5 L 157.5 417 L 162 418.5 L 158.5 420 L 154 418 L 152.5 415 L 151 413 L 155 415 L 155.5 410 Z " /><path fill="rgb(224,67,62)" stroke="rgb(224,67,62)" stroke-width="0.6" opacity="1" d="M 333.5 415 L 335 416.5 L 330 420.5 Q 330.8 423.1 327.5 422 L 325 421 L 326.5 418 Q 330 421.2 333.5 415 Z " /><path fill="rgb(224,67,62)" stroke="rgb(224,67,62)" stroke-width="0.6" opacity="1" d="M 351.5 415 L 353 416.5 L 352 421 L 346.5 423 L 349 419.5 L 351.5 415 Z " /><path fill="rgb(224,67,62)" stroke="rgb(224,67,62)" stroke-width="0.6" opacity="1" d="M 172.5 419 L 175.5 421 L 176 423.5 L 175.5 428 L 175 426 L 171 427 L 173 423.5 L 173 421.5 L 172.5 419 Z " /><path fill="rgb(224,67,62)" stroke="rgb(224,67,62)" stroke-width="0.6" opacity="1" d="M 278.5 420 L 279 421.5 L 278 425 Q 280.3 422.2 286 423 L 284.5 426 L 280 425 L 278.5 428 L 275 421 L 278.5 420 Z " /><path fill="rgb(224,67,62)" stroke="rgb(224,67,62)" stroke-width="0.6" opacity="1" d="M 190.5 423 L 191.5 425 Q 188.2 423.9 189 426.5 L 186.5 428 Q 183.5 426.5 186.5 425 L 190.5 423 Z " /><path fill="rgb(224,67,62)" stroke="rgb(224,67,62)" stroke-width="0.6" opacity="1" d="M 324.5 423 L 327 428.5 L 326 430.5 L 326 432.5 L 324.5 434 L 322.5 435 L 322 432.5 L 323.5 429 L 325 428.5 L 324.5 423 Z " /><path fill="rgb(224,67,62)" stroke="rgb(224,67,62)" stroke-width="0.6" opacity="1" d="M 244.5 427 L 245 429.5 L 246 436.5 L 244.5 438 Q 242.5 433 240.5 436 Q 237.5 436.7 239 433 Q 242.7 431.5 242 434.5 L 243 434.5 Q 241.5 428.5 244.5 427 Z " /><path fill="rgb(224,67,62)" stroke="rgb(224,67,62)" stroke-width="0.6" opacity="1" d="M 189.5 429 L 191 431.5 L 186.5 434 L 184 433 Q 182.8 430 186.5 431 L 189.5 429 Z " /><path fill="rgb(224,67,62)" stroke="rgb(224,67,62)" stroke-width="0.6" opacity="1" d="M 274 430 Q 277 428.8 276 432.5 L 277 435.5 L 274.5 442 L 270 442.5 L 270 444.5 L 268.5 447 Q 262.6 448.7 264 445 L 268 443.5 L 269.5 441 Q 275.8 443.2 274 437.5 L 273 434.5 L 274 430 Z " /><path fill="rgb(224,67,62)" stroke="rgb(224,67,62)" stroke-width="0.6" opacity="1" d="M 293.5 431 L 295 435.5 L 292.5 442 L 284 445 L 287 439.5 L 287.5 437 L 293 432.5 L 293.5 431 Z " /><path fill="rgb(224,67,62)" stroke="rgb(224,67,62)" stroke-width="0.6" opacity="1" d="M 307.5 432 L 310 436.5 L 308 440 L 304 441 L 307.5 432 Z " /><path fill="rgb(224,67,62)" stroke="rgb(224,67,62)" stroke-width="0.6" opacity="1" d="M 221.5 437 Q 227.2 435.4 225 441 L 214 443 L 216 439.5 L 215.5 438 L 219.5 439 L 221.5 437 Z " /><path fill="rgb(217,66,62)" stroke="rgb(217,66,62)" stroke-width="0.6" opacity="1" d="M 245.5 62 Q 249.3 61 248 64 Q 241.7 62.5 242.5 66 L 236.5 66 L 232 64.5 L 233.5 63 L 245.5 62 Z " /><path fill="rgb(217,66,62)" stroke="rgb(217,66,62)" stroke-width="0.6" opacity="1" d="M 266 62 L 268.5 63 L 288.5 64 L 292.5 66 L 295 66.5 L 289.5 68 L 285 67 Q 286.4 63 279.5 65 L 272 66 L 272 64 L 266 64 L 266 62 Z " /><path fill="rgb(217,66,62)" stroke="rgb(217,66,62)" stroke-width="0.6" opacity="1" d="M 226.5 64 L 229 64.5 L 228 67 L 221.5 68 L 218 66.5 L 226.5 64 Z " /><path fill="rgb(217,66,62)" stroke="rgb(217,66,62)" stroke-width="0.6" opacity="1" d="M 216.5 66 L 215 68.5 Q 215.8 71.1 212.5 70 L 208.5 69 L 207 72 L 202.5 73 L 200 72 Q 201.3 75 197.5 74 Q 194.5 72.5 197.5 71 L 216.5 66 Z " /><path fill="rgb(217,66,62)" stroke="rgb(217,66,62)" stroke-width="0.6" opacity="1" d="M 305.5 68 L 312.5 71 L 314.5 71 L 336 78 Q 334.7 81.3 339.5 80 L 373 100 L 372.5 102 L 369 101 L 367.5 98 Q 361.9 98.1 360 94.5 L 356 91.5 L 351 90 L 349.5 86 L 346.5 87 L 335 81 Q 336.3 78 332.5 79 L 331 79.5 L 329.5 77 L 326.5 78 Q 324.5 73 322.5 76 L 319.5 74 L 317.5 73 L 314.5 74 Q 312.5 69 310.5 72 L 306 70.5 L 305.5 68 Z " /><path fill="rgb(217,66,62)" stroke="rgb(217,66,62)" stroke-width="0.6" opacity="1" d="M 188.5 74 L 189 75.5 L 188 78 L 184.5 77 L 183 80 L 180.5 79 L 169.5 86 L 163 87 L 161.5 90 L 153 93 L 151.5 96 L 140 102.5 L 137.5 106 L 133 107 L 118 125 L 109 131 L 104.5 139 L 102 140.5 L 100 146 L 98 147.5 L 95.5 152 L 94 153.5 L 89.5 162 L 87 163.5 L 83 176.5 L 77 186.5 L 75 196.5 L 71.5 200 L 71 197.5 Q 83.2 161.4 104 135 L 106 133.5 L 108 130 L 110 128.5 L 116 121 L 132 107.5 L 133.5 106 L 136 105 L 137.5 103 Q 150.2 91.7 166.5 84 L 168 84.5 L 169.5 83 L 188.5 74 Z " /><path fill="rgb(217,66,62)" stroke="rgb(217,66,62)" stroke-width="0.6" opacity="1" d="M 374.5 102 L 382 108.5 L 378 109 L 376 105.5 L 374.5 102 Z " /><path fill="rgb(217,66,62)" stroke="rgb(217,66,62)" stroke-width="0.6" opacity="1" d="M 387.5 113 Q 410.6 133.9 426 162.5 L 423.5 163 L 424 161.5 L 422.5 159 L 419 157.5 L 417 152.5 L 418 150.5 L 414 149 L 413 146.5 L 414 144 L 409 142.5 Q 409.7 136.3 405.5 135 L 398 130.5 L 399 127.5 L 392.5 120 L 389 118.5 L 387.5 113 Z " /><path fill="rgb(217,66,62)" stroke="rgb(217,66,62)" stroke-width="0.6" opacity="1" d="M 426.5 164 L 440 194.5 L 446 218.5 L 446 220.5 L 445.5 225 L 445 221 Q 442 222.3 443 218.5 L 444 213.5 L 443 211 Q 440 212.3 441 208.5 L 442 205.5 L 441 203 L 439 201.5 L 440 199.5 L 436.5 191 L 435 189.5 L 436 186.5 L 432 183.5 L 433 180.5 L 428.5 171 L 425 168.5 L 426.5 164 Z " /><path fill="rgb(217,66,62)" stroke="rgb(217,66,62)" stroke-width="0.6" opacity="1" d="M 71.5 202 L 73 203.5 L 72 206 Q 69 204.8 70 208.5 L 71 211.5 Q 67.2 212.3 68 217.5 L 69 220 L 67 221.5 L 66 221.5 L 67 217.5 L 67 215.5 Q 66.8 206.3 71.5 202 Z " /><path fill="rgb(217,66,62)" stroke="rgb(217,66,62)" stroke-width="0.6" opacity="1" d="M 65.5 223 L 67 235 Q 64 233.8 65 237.5 L 63.5 242 L 63 234.5 L 65 227.5 L 65 225.5 L 65.5 223 Z " /><path fill="rgb(217,66,62)" stroke="rgb(217,66,62)" stroke-width="0.6" opacity="1" d="M 446.5 226 L 449 237.5 L 449 274.5 L 446.5 287 L 445 277 L 447 276.5 L 447 268.5 L 448 256 L 446 255.5 L 446 247 Q 449.7 248.3 448 242.5 L 447 235 Q 443 236.4 445 229.5 L 446.5 226 Z " /><path fill="rgb(217,66,62)" stroke="rgb(217,66,62)" stroke-width="0.6" opacity="1" d="M 63.5 253 L 65 258.5 L 63.5 268 L 62 260.5 L 63.5 253 Z " /><path fill="rgb(217,66,62)" stroke="rgb(217,66,62)" stroke-width="0.6" opacity="1" d="M 63 277 L 67 279 L 67 285.5 L 66 288 Q 69.3 286.7 68 291.5 L 67 294 L 69 294.5 L 66 296.5 L 67 294.5 L 65 290.5 L 64 286.5 L 65 284.5 L 63 277 Z " /><path fill="rgb(217,66,62)" stroke="rgb(217,66,62)" stroke-width="0.6" opacity="1" d="M 445.5 289 L 446 291.5 L 445 294.5 L 444.5 299 L 443 291 Q 445.8 292 445.5 289 Z " /><path fill="rgb(217,66,62)" stroke="rgb(217,66,62)" stroke-width="0.6" opacity="1" d="M 67.5 300 L 71 302 L 70 307 L 72 308.5 L 73 311.5 L 72 314 L 74 315.5 L 74.5 317 L 73 317.5 L 79 326.5 L 78 329.5 L 81 333.5 L 80 336 Q 83.7 334.5 83 337.5 L 86 344.5 L 84 345.5 L 74 323.5 Q 76.5 322 73 320.5 L 70 311.5 Q 72.5 310 69 308.5 L 67.5 300 Z " /><path fill="rgb(217,66,62)" stroke="rgb(217,66,62)" stroke-width="0.6" opacity="1" d="M 443.5 300 L 444 303.5 L 440 317.5 L 437 321.5 L 436 328.5 L 421 358.5 Q 405 384.5 382.5 404 L 376 408 L 374.5 410 L 372 411 L 370.5 413 L 349.5 427 L 349 424 L 358 421 L 361.5 416 Q 365.9 417.5 365 414.5 L 375.5 406 L 380 405 L 388.5 395 L 392 392.5 L 399.5 384 L 403 381.5 L 407.5 374 Q 410.1 374.8 409 371.5 L 419 358.5 L 426.5 344 L 428 342.5 L 428.5 340 Q 431.5 340.9 430 336.5 L 432 333.5 L 431 331 L 434 329.5 L 436 323.5 L 435 321.5 L 437 315 L 440 313.5 L 439 309 L 442 307.5 L 441 301 L 443.5 300 Z " /><path fill="rgb(217,66,62)" stroke="rgb(217,66,62)" stroke-width="0.6" opacity="1" d="M 85.5 347 L 89 348 Q 88.3 353.9 94 355.5 L 96 363 L 98 364.5 L 100.5 368 L 104 370.5 L 106 378 L 110 379 L 111.5 381 Q 115.9 383.1 116 389.5 L 112 386.5 L 110 383.5 Q 94.7 367.4 85.5 347 Z " /><path fill="rgb(217,66,62)" stroke="rgb(217,66,62)" stroke-width="0.6" opacity="1" d="M 118.5 392 L 130 400.5 L 131.5 403 L 136 405 L 137 409 Q 146.8 408.4 150 415.5 L 151 419 L 156.5 421 L 164.5 423 Q 166.1 428.8 172 428 Q 170.5 431.7 173.5 431 L 175.5 430 L 181 432.5 Q 179.8 436.3 183.5 435 L 186 435.5 L 183.5 437 L 146.5 417 Q 129.6 406.1 118.5 392 Z " /><path fill="rgb(217,66,62)" stroke="rgb(217,66,62)" stroke-width="0.6" opacity="1" d="M 345.5 426 L 348 427.5 L 337.5 433 L 337 430.5 L 338.5 431 L 340 429 L 344 429 L 344 427.5 L 345.5 426 Z " /><path fill="rgb(217,66,62)" stroke="rgb(217,66,62)" stroke-width="0.6" opacity="1" d="M 332.5 432 L 336 433.5 L 326.5 437 L 327 435.5 Q 326.1 432.5 330.5 434 L 332.5 432 Z " /><path fill="rgb(217,66,62)" stroke="rgb(217,66,62)" stroke-width="0.6" opacity="1" d="M 189.5 436 L 196 438 L 198 441.5 L 196.5 441 L 186 437.5 L 189.5 436 Z " /><path fill="rgb(217,66,62)" stroke="rgb(217,66,62)" stroke-width="0.6" opacity="1" d="M 322 436 L 325 437.5 L 321.5 440 L 313.5 441 L 311.5 443 L 300.5 446 L 302 443.5 Q 301.2 440.9 304.5 442 L 308.5 443 L 310 440 L 314.5 439 L 316.5 440 L 322 439 L 322 436 Z " /><path fill="rgb(217,66,62)" stroke="rgb(217,66,62)" stroke-width="0.6" opacity="1" d="M 200.5 440 L 203 440 L 204.5 442 L 207.5 440 L 212 445.5 L 210.5 445 Q 203 445 199 441.5 L 200.5 440 Z " /><path fill="rgb(217,66,62)" stroke="rgb(217,66,62)" stroke-width="0.6" opacity="1" d="M 216.5 444 L 224 445 Q 222.8 448 226.5 447 L 232 446 Q 230.7 449.7 236.5 448 L 244 447 Q 242.6 451 249.5 449 L 261.5 448 L 270 449.5 L 242.5 450 L 236.5 449 L 234.5 449 Q 223.1 449.9 216.5 446 L 214.5 446 L 213 445.5 L 216.5 444 Z " /><path fill="rgb(217,66,62)" stroke="rgb(217,66,62)" stroke-width="0.6" opacity="1" d="M 293 444 L 298 445.5 L 295.5 446 L 291.5 448 L 275.5 450 L 272 449 Q 270.7 445.7 275.5 447 L 280 448 Q 278.8 445 282.5 446 L 289.5 447 L 293 446 L 293 444 Z " /><path fill="rgb(11,13,13)" stroke="rgb(11,13,13)" stroke-width="0.6" opacity="1" d="M 238.5 48 L 240 48.5 Q 237 51.5 229.5 50 L 229.5 49 L 238.5 48 Z " /><path fill="rgb(11,13,13)" stroke="rgb(11,13,13)" stroke-width="0.6" opacity="1" d="M 275.5 48 L 286 49.5 L 277.5 50 L 275.5 48 Z " /><path fill="rgb(11,13,13)" stroke="rgb(11,13,13)" stroke-width="0.6" opacity="1" d="M 248.5 60 L 265 60.5 L 248.5 61 L 248.5 60 Z " /><path fill="rgb(11,13,13)" stroke="rgb(11,13,13)" stroke-width="0.6" opacity="1" d="M 233.5 61 L 243 61.5 L 229.5 63 L 229.5 62 L 233.5 61 Z " /><path fill="rgb(11,13,13)" stroke="rgb(11,13,13)" stroke-width="0.6" opacity="1" d="M 272.5 61 Q 281.1 59.9 286 62.5 L 282.5 63 L 272.5 62 L 272.5 61 Z " /><path fill="rgb(11,13,13)" stroke="rgb(11,13,13)" stroke-width="0.6" opacity="1" d="M 215.5 64 L 219 64.5 L 209.5 67 L 210.5 65 L 215.5 64 Z " /><path fill="rgb(11,13,13)" stroke="rgb(11,13,13)" stroke-width="0.6" opacity="1" d="M 340.5 65 L 348 68.5 L 346.5 69 Q 340.9 68.2 340.5 65 Z " /><path fill="rgb(11,13,13)" stroke="rgb(11,13,13)" stroke-width="0.6" opacity="1" d="M 358.5 74 L 367 79.5 L 364 80 Q 365.3 77 361.5 78 L 358.5 74 Z " /><path fill="rgb(11,13,13)" stroke="rgb(11,13,13)" stroke-width="0.6" opacity="1" d="M 137.5 85 L 135.5 88 L 126.5 94 L 127.5 92 L 137.5 85 Z " /><path fill="rgb(11,13,13)" stroke="rgb(11,13,13)" stroke-width="0.6" opacity="1" d="M 393.5 99 L 408.5 115 L 393.5 99 Z " /><path fill="rgb(11,13,13)" stroke="rgb(11,13,13)" stroke-width="0.6" opacity="1" d="M 118.5 100 L 102 117.5 L 100.5 119 L 99 119.5 L 118.5 100 Z " /><path fill="rgb(11,13,13)" stroke="rgb(11,13,13)" stroke-width="0.6" opacity="1" d="M 381.5 105 L 389.5 114 L 381.5 105 Z " /><path fill="rgb(11,13,13)" stroke="rgb(11,13,13)" stroke-width="0.6" opacity="1" d="M 413.5 120 L 421 128.5 L 416.5 125 L 414 123.5 L 413.5 120 Z " /><path fill="rgb(11,13,13)" stroke="rgb(11,13,13)" stroke-width="0.6" opacity="1" d="M 96.5 123 L 97 124.5 L 86.5 137 L 88 134.5 L 96.5 123 Z " /><path fill="rgb(11,13,13)" stroke="rgb(11,13,13)" stroke-width="0.6" opacity="1" d="M 425.5 135 L 430 141.5 L 426 138.5 L 425.5 135 Z " /><path fill="rgb(11,13,13)" stroke="rgb(11,13,13)" stroke-width="0.6" opacity="1" d="M 84.5 139 L 85 140.5 L 76.5 153 L 77 151.5 L 84.5 139 Z " /><path fill="rgb(11,13,13)" stroke="rgb(11,13,13)" stroke-width="0.6" opacity="1" d="M 433.5 148 L 439 157.5 L 437 156.5 L 433.5 148 Z " /><path fill="rgb(11,13,13)" stroke="rgb(11,13,13)" stroke-width="0.6" opacity="1" d="M 422.5 154 L 427 160.5 L 425 159.5 L 422.5 154 Z " /><path fill="rgb(11,13,13)" stroke="rgb(11,13,13)" stroke-width="0.6" opacity="1" d="M 74.5 156 L 75 157.5 L 70.5 165 L 71 163.5 L 74.5 156 Z " /><path fill="rgb(11,13,13)" stroke="rgb(11,13,13)" stroke-width="0.6" opacity="1" d="M 66.5 172 L 67 174.5 L 63.5 180 L 64 178.5 L 66.5 172 Z " /><path fill="rgb(11,13,13)" stroke="rgb(11,13,13)" stroke-width="0.6" opacity="1" d="M 68.5 201 L 69 202.5 L 66.5 211 L 66 207.5 L 68.5 201 Z " /><path fill="rgb(11,13,13)" stroke="rgb(11,13,13)" stroke-width="0.6" opacity="1" d="M 448.5 223 Q 451.5 227.5 450 236.5 L 449 236.5 L 448.5 223 Z " /><path fill="rgb(11,13,13)" stroke="rgb(11,13,13)" stroke-width="0.6" opacity="1" d="M 50.5 228 L 51 237.5 L 49.5 240 L 49 237.5 L 50.5 228 Z " /><path fill="rgb(11,13,13)" stroke="rgb(11,13,13)" stroke-width="0.6" opacity="1" d="M 450.5 241 L 451 250 L 453 251.5 L 450.5 273 L 450.5 241 Z " /><path fill="rgb(11,13,13)" stroke="rgb(11,13,13)" stroke-width="0.6" opacity="1" d="M 61.5 242 L 62 243.5 L 61 244.5 L 61 268.5 L 62 278.5 L 61 278.5 L 60 243.5 L 61.5 242 Z " /><path fill="rgb(11,13,13)" stroke="rgb(11,13,13)" stroke-width="0.6" opacity="1" d="M 462.5 243 L 463 268.5 L 462 268.5 L 462.5 243 Z " /><path fill="rgb(11,13,13)" stroke="rgb(11,13,13)" stroke-width="0.6" opacity="1" d="M 49.5 274 Q 53.3 276.3 51 284.5 L 50 284.5 L 49.5 274 Z " /><path fill="rgb(11,13,13)" stroke="rgb(11,13,13)" stroke-width="0.6" opacity="1" d="M 68.5 310 L 72 319.5 L 70 318.5 L 68.5 310 Z " /><path fill="rgb(11,13,13)" stroke="rgb(11,13,13)" stroke-width="0.6" opacity="1" d="M 440.5 318 L 441 320.5 L 436.5 331 L 436 329.5 L 440.5 318 Z " /><path fill="rgb(11,13,13)" stroke="rgb(11,13,13)" stroke-width="0.6" opacity="1" d="M 59.5 322 L 63 330.5 L 62 330.5 L 59.5 322 Z " /><path fill="rgb(11,13,13)" stroke="rgb(11,13,13)" stroke-width="0.6" opacity="1" d="M 431.5 341 L 432 342.5 L 427.5 349 L 428 347.5 L 431.5 341 Z " /><path fill="rgb(11,13,13)" stroke="rgb(11,13,13)" stroke-width="0.6" opacity="1" d="M 71.5 351 L 79 363.5 L 77 362.5 L 71.5 351 Z " /><path fill="rgb(11,13,13)" stroke="rgb(11,13,13)" stroke-width="0.6" opacity="1" d="M 92.5 362 L 98 369.5 L 96.5 369 L 94 367.5 L 92.5 362 Z " /><path fill="rgb(11,13,13)" stroke="rgb(11,13,13)" stroke-width="0.6" opacity="1" d="M 84.5 372 L 91 381.5 L 88 379.5 L 84.5 372 Z " /><path fill="rgb(11,13,13)" stroke="rgb(11,13,13)" stroke-width="0.6" opacity="1" d="M 426.5 375 L 425 377.5 L 418.5 387 L 418 385.5 L 426.5 375 Z " /><path fill="rgb(11,13,13)" stroke="rgb(11,13,13)" stroke-width="0.6" opacity="1" d="M 102.5 376 L 125 400.5 L 122.5 399 L 114 391.5 L 102 377.5 L 102.5 376 Z " /><path fill="rgb(11,13,13)" stroke="rgb(11,13,13)" stroke-width="0.6" opacity="1" d="M 95 387 L 99 389.5 L 102 395.5 L 100 394.5 L 95 387 Z " /><path fill="rgb(11,13,13)" stroke="rgb(11,13,13)" stroke-width="0.6" opacity="1" d="M 412.5 393 L 407 399.5 L 396.5 411 L 388.5 418 L 391 414.5 L 392.5 412 L 404 402.5 L 410.5 394 L 412.5 393 Z " /><path fill="rgb(11,13,13)" stroke="rgb(11,13,13)" stroke-width="0.6" opacity="1" d="M 105.5 399 L 110.5 405 L 105.5 399 Z " /><path fill="rgb(11,13,13)" stroke="rgb(11,13,13)" stroke-width="0.6" opacity="1" d="M 128.5 404 L 139 412.5 L 136.5 411 L 128 406 L 128.5 404 Z " /><path fill="rgb(11,13,13)" stroke="rgb(11,13,13)" stroke-width="0.6" opacity="1" d="M 116.5 410 L 124 415.5 L 125.5 417 L 127.5 420 L 116.5 410 Z " /><path fill="rgb(11,13,13)" stroke="rgb(11,13,13)" stroke-width="0.6" opacity="1" d="M 143.5 416 L 160 426.5 L 158.5 426 Q 148.4 422.2 143.5 416 Z " /><path fill="rgb(11,13,13)" stroke="rgb(11,13,13)" stroke-width="0.6" opacity="1" d="M 355.5 424 L 353.5 427 L 347.5 430 L 348.5 428 L 355.5 424 Z " /><path fill="rgb(11,13,13)" stroke="rgb(11,13,13)" stroke-width="0.6" opacity="1" d="M 165.5 429 L 178 435.5 L 176.5 436 L 166.5 431 L 165.5 429 Z " /><path fill="rgb(11,13,13)" stroke="rgb(11,13,13)" stroke-width="0.6" opacity="1" d="M 180.5 436 L 191 440.5 L 188.5 441 Q 181.3 439.9 180.5 436 Z " /><path fill="rgb(11,13,13)" stroke="rgb(11,13,13)" stroke-width="0.6" opacity="1" d="M 329.5 437 L 331 437.5 L 322.5 441 L 322.5 440 L 329.5 437 Z " /><path fill="rgb(11,13,13)" stroke="rgb(11,13,13)" stroke-width="0.6" opacity="1" d="M 158.5 440 L 172 446.5 L 170.5 447 L 158.5 441 L 158.5 440 Z " /><path fill="rgb(11,13,13)" stroke="rgb(11,13,13)" stroke-width="0.6" opacity="1" d="M 204.5 445 L 219 448.5 L 214.5 449 L 206.5 447 L 204.5 445 Z " /><path fill="rgb(11,13,13)" stroke="rgb(11,13,13)" stroke-width="0.6" opacity="1" d="M 222.5 449 L 233 450.5 L 223.5 451 L 222.5 449 Z " /><path fill="rgb(11,13,13)" stroke="rgb(11,13,13)" stroke-width="0.6" opacity="1" d="M 286.5 449 L 290 449.5 Q 287.8 453.3 279.5 451 L 279.5 450 L 286.5 449 Z " /><path fill="rgb(11,13,13)" stroke="rgb(11,13,13)" stroke-width="0.6" opacity="1" d="M 234.5 451 L 267.5 452 L 277.5 451 L 277.5 452 L 242.5 453 L 240 454 Q 241.4 450 234.5 452 L 234.5 451 Z " /><path fill="rgb(11,13,13)" stroke="rgb(11,13,13)" stroke-width="0.6" opacity="1" d="M 242.5 462 L 246 462 Q 244.8 465 248.5 464 L 248.5 465 Q 239.9 466.1 235 463.5 L 242.5 462 Z " /><path fill="rgb(11,13,13)" stroke="rgb(11,13,13)" stroke-width="0.6" opacity="1" d="M 266 462 L 278 463.5 L 263.5 465 L 263.5 464 Q 267.3 465 266 462 Z " /><path fill="rgb(40,45,45)" stroke="rgb(40,45,45)" stroke-width="0.6" opacity="1" d="M 251.5 47 L 264 47.5 L 251.5 48 L 251.5 47 Z " /><path fill="rgb(40,45,45)" stroke="rgb(40,45,45)" stroke-width="0.6" opacity="1" d="M 398.5 103 L 404.5 110 L 398.5 103 Z " /><path fill="rgb(40,45,45)" stroke="rgb(40,45,45)" stroke-width="0.6" opacity="1" d="M 113.5 104 L 107.5 111 L 113.5 104 Z " /><path fill="rgb(40,45,45)" stroke="rgb(40,45,45)" stroke-width="0.6" opacity="1" d="M 390.5 114 L 396.5 121 L 390.5 114 Z " /><path fill="rgb(40,45,45)" stroke="rgb(40,45,45)" stroke-width="0.6" opacity="1" d="M 48.5 248 L 49 262.5 L 48 262.5 L 48.5 248 Z " /><path fill="rgb(40,45,45)" stroke="rgb(40,45,45)" stroke-width="0.6" opacity="1" d="M 463.5 251 L 464 261.5 L 463 261.5 L 463.5 251 Z " /><path fill="rgb(40,45,45)" stroke="rgb(40,45,45)" stroke-width="0.6" opacity="1" d="M 397.5 390 L 389.5 399 L 397.5 390 Z " /><path fill="rgb(77,66,65)" stroke="rgb(77,66,65)" stroke-width="0.6" opacity="1" d="M 61.5 247 L 62 264.5 L 61 264.5 L 61.5 247 Z " /><path fill="rgb(181,66,63)" stroke="rgb(181,66,63)" stroke-width="0.6" opacity="1" d="M 390.5 115 L 395.5 121 L 390.5 115 Z " /><path fill="rgb(181,66,63)" stroke="rgb(181,66,63)" stroke-width="0.6" opacity="1" d="M 449.5 248 L 450 263.5 L 449 263.5 L 449.5 248 Z " /><path fill="rgb(181,66,63)" stroke="rgb(181,66,63)" stroke-width="0.6" opacity="1" d="M 396.5 390 L 389.5 398 L 396.5 390 Z " /><path fill="rgb(137,68,64)" stroke="rgb(137,68,64)" stroke-width="0.6" opacity="1" d="M 114.5 389 L 124.5 400 L 114.5 389 Z " /><path fill="rgb(96,94,94)" stroke="rgb(96,94,94)" stroke-width="0.6" opacity="1" d="M 250.5 451 L 262 451.5 L 250.5 452 L 250.5 451 Z " /><path fill="rgb(215,215,215)" stroke="rgb(215,215,215)" stroke-width="0.6" opacity="1" d="M 251.5 46 L 264 46.5 L 251.5 47 L 251.5 46 Z " /><path fill="rgb(215,215,215)" stroke="rgb(215,215,215)" stroke-width="0.6" opacity="1" d="M 398.5 102 L 406.5 111 L 398.5 102 Z " /><path fill="rgb(215,215,215)" stroke="rgb(215,215,215)" stroke-width="0.6" opacity="1" d="M 113.5 103 L 105.5 112 L 113.5 103 Z " /><path fill="rgb(215,215,215)" stroke="rgb(215,215,215)" stroke-width="0.6" opacity="1" d="M 47.5 249 L 48 262.5 L 47 262.5 L 47.5 249 Z " /><path fill="rgb(213,84,81)" stroke="rgb(213,84,81)" stroke-width="0.6" opacity="1" d="M 248.5 62 L 266 62.5 L 248.5 63 L 248.5 62 Z " /><path fill="rgb(213,84,81)" stroke="rgb(213,84,81)" stroke-width="0.6" opacity="1" d="M 123.5 114 L 117.5 121 L 123.5 114 Z " /><path fill="rgb(213,84,81)" stroke="rgb(213,84,81)" stroke-width="0.6" opacity="1" d="M 248.5 450 L 264 450.5 L 248.5 451 L 248.5 450 Z " /><path fill="rgb(158,158,158)" stroke="rgb(158,158,158)" stroke-width="0.6" opacity="1" d="M 405.5 402 L 399.5 409 L 405.5 402 Z " /></svg>