<svg width="627" height="627" preserveAspectRatio="xMidYMid meet" viewBox="0 0 512 512" version="1.1" xmlns="http://www.w3.org/2000/svg" ><path fill="rgb(255,255,255)" stroke="rgb(255,255,255)" stroke-width="0.6" opacity="1" d="M 0 0 L 512 0 L 512 512 L 0 512 L 0 0 Z M 237 47 L 219 49 L 198 54 L 173 63 Q 139 78 115 101 Q 82 131 63 175 L 51 213 L 47 253 L 48 281 Q 51 286 50 296 L 59 329 Q 75 371 103 401 Q 131 431 171 449 Q 199 463 238 466 L 288 465 L 305 462 L 325 456 Q 365 441 395 415 Q 422 391 440 358 L 447 344 L 458 313 Q 457 301 462 296 L 464 277 L 463 224 L 456 193 L 444 163 L 434 145 L 409 112 Q 377 77 330 58 L 291 48 L 237 47 Z " /><path fill="rgb(224,68,63)" stroke="rgb(224,68,63)" stroke-width="0.6" opacity="1" d="M 245.5 62 L 281.5 63 L 284.5 65 L 294.5 65 L 320.5 72 Q 366.2 88.8 396 121.5 Q 422.4 148.1 437 186.5 Q 444.5 206.5 448 230.5 L 449 274.5 Q 446.6 298.1 440 317.5 L 424 353.5 Q 406.4 383.9 380.5 406 Q 355.2 427.2 321.5 440 L 285.5 449 L 269.5 449 L 265.5 451 L 247.5 451 L 234.5 450 L 232.5 448 L 216.5 447 L 179.5 435 Q 137.3 416.2 109 383.5 Q 86.2 357.3 73 321.5 L 64 286.5 L 64 270.5 L 62 267.5 L 62 246.5 L 64 243.5 L 64 227.5 L 68 208.5 L 81 173.5 Q 98.7 135.7 128.5 110 Q 150.3 90.8 178.5 78 L 216.5 66 L 232.5 65 L 234.5 63 L 245.5 62 Z " /><path fill="rgb(0,0,0)" stroke="rgb(0,0,0)" stroke-width="0.6" opacity="1" d="M 238.5 47 L 276.5 47 L 279.5 49 L 291.5 49 L 302.5 51 L 329.5 59 Q 380.2 79.3 413 117.5 L 434 146.5 Q 446.4 167.6 455 192.5 L 463 228.5 L 464 274.5 L 462 277.5 L 461 296.5 Q 456 302 457 313.5 L 446 343.5 Q 428 382.5 398.5 410 Q 368.3 439.3 324.5 455 L 304.5 461 L 282.5 465 L 239.5 466 L 200.5 459 L 158.5 442 Q 124.5 423.5 100 395.5 Q 70 362 55 313.5 L 50 291.5 L 50 281.5 L 48 276.5 L 48 238.5 L 49 229.5 L 51 226.5 L 51 216.5 L 56 196.5 L 64 174.5 L 75 152.5 Q 93.2 120.2 120.5 97 Q 142.4 77.9 170.5 65 L 196.5 55 L 217.5 50 L 235.5 49 L 238.5 47 Z M 245 62 L 218 65 L 182 76 Q 152 88 131 107 Q 99 134 80 174 L 67 209 L 63 229 L 63 245 L 62 246 L 63 286 L 72 322 Q 85 356 107 383 Q 136 416 180 436 L 218 448 L 247 451 L 285 450 L 302 447 L 322 441 Q 360 427 388 401 Q 410 380 426 352 L 441 318 L 446 300 L 449 276 L 448 226 L 441 196 Q 427 153 400 125 Q 374 95 336 77 L 321 71 L 295 64 L 271 62 L 245 62 Z " /><path fill="rgb(202,67,62)" stroke="rgb(202,67,62)" stroke-width="0.6" opacity="1" d="M 397.5 389 L 385.5 402 L 397.5 389 Z " /><path fill="rgb(27,27,27)" stroke="rgb(27,27,27)" stroke-width="0.6" opacity="1" d="M 399.5 103 L 405.5 110 L 399.5 103 Z " /><path fill="rgb(27,27,27)" stroke="rgb(27,27,27)" stroke-width="0.6" opacity="1" d="M 396.5 391 L 387.5 401 L 396.5 391 Z " /><path fill="rgb(83,67,64)" stroke="rgb(83,67,64)" stroke-width="0.6" opacity="1" d="M 386.5 111 L 395.5 121 L 386.5 111 Z " /><path fill="rgb(53,53,53)" stroke="rgb(53,53,53)" stroke-width="0.6" opacity="1" d="M 106.5 402 L 111.5 408 L 106.5 402 Z " /><path fill="rgb(242,242,242)" stroke="rgb(242,242,242)" stroke-width="0.6" opacity="1" d="M 103.5 400 L 112.5 410 L 103.5 400 Z " /><path fill="rgb(223,223,223)" stroke="rgb(223,223,223)" stroke-width="0.6" opacity="1" d="M 399.5 102 L 406.5 110 L 399.5 102 Z " /></svg>