<svg width="627" height="627" preserveAspectRatio="xMidYMid meet" viewBox="0 0 512 512" version="1.1" xmlns="http://www.w3.org/2000/svg" ><path fill="rgb(222,67,62)" stroke="rgb(222,67,62)" stroke-width="0.6" opacity="1" d="M 84 68 L 90.5 68 Q 89.7 71.5 96 70 L 96.5 68 L 427.5 68 L 429.5 72 L 436 73 L 438.5 77 Q 441.5 76.1 440 80.5 L 442.5 86 L 446 87.5 L 444 91.5 L 444 422.5 L 446 426.5 L 444 427 L 443.5 429 L 442 428.5 L 439 437 L 435.5 439 L 434 442 L 430.5 441 L 425.5 444 L 87.5 444 L 85.5 443 L 82.5 445 Q 80.3 440.7 78 442.5 L 76 435.5 L 72.5 431 Q 69.2 429.9 70 432.5 L 68 431.5 L 70 427 Q 66.2 428.5 67 425.5 L 66 422.5 L 67 419 Q 70.7 420.2 69 415 L 67 413.5 L 66 412.5 L 66 397.5 L 67 395.5 L 66 389.5 L 67 380.5 L 66 379.5 L 66 361.5 L 67 359.5 L 66 350.5 L 67 348.5 L 66 336.5 L 67 331.5 L 66 321.5 L 67 309.5 L 66 298.5 L 67 297.5 L 67 276.5 L 66 269.5 L 67 266.5 L 66 264.5 L 67 258.5 L 66 255.5 L 67 251.5 L 66 242.5 L 67 238.5 L 66 234.5 L 67 230.5 L 66 217.5 L 67 210.5 L 66 207.5 L 67 205.5 L 66 199.5 L 67 192.5 L 66 188.5 L 67 183.5 L 66 182.5 L 66 168.5 L 67 164.5 L 67 162.5 L 66 137.5 L 67 134.5 L 66 127.5 L 67 122.5 L 66 121.5 L 66 108.5 L 67 104.5 L 67 102.5 L 66 91.5 L 69 90 L 70 84.5 L 69 81 L 73 79.5 L 72 76 L 78.5 74 L 84 69.5 L 84 68 Z M 104 70 L 102 72 L 105 73 L 109 72 L 111 73 L 118 72 L 118 70 L 104 70 Z M 167 70 L 167 74 L 169 76 L 167 77 L 167 78 L 172 76 L 174 77 L 174 76 L 171 74 L 172 72 L 167 70 Z M 200 70 L 202 72 L 205 76 Q 209 77 207 73 Q 206 69 200 70 Z M 232 70 Q 229 72 232 73 L 242 72 Q 240 68 232 70 Z M 247 70 L 245 71 L 241 77 L 246 78 L 248 78 L 244 76 L 248 73 L 250 73 L 260 72 L 260 70 L 247 70 Z M 271 70 L 269 72 Q 272 75 271 81 L 275 80 L 273 72 L 271 70 Z M 278 70 L 276 72 L 281 77 L 284 72 Q 283 69 278 70 Z M 314 70 L 314 72 L 323 73 L 325 72 L 324 70 L 314 70 Z M 340 70 Q 336 72 341 74 L 345 72 L 347 73 Q 350 72 347 70 L 343 71 L 340 70 Z M 356 70 L 353 71 L 354 74 L 357 72 L 368 73 L 366 76 L 367 77 L 370 75 L 372 70 L 366 71 L 356 70 Z M 403 70 L 401 71 L 402 73 L 406 72 L 408 74 L 410 72 L 409 70 L 407 71 L 403 70 Z M 414 70 L 412 72 L 413 74 Q 416 71 425 72 L 425 70 L 414 70 Z M 335 75 L 333 77 Q 336 79 335 84 Q 339 85 337 77 L 335 75 Z M 77 76 L 73 83 L 73 84 L 75 83 L 76 87 L 83 87 L 83 85 L 79 84 Q 78 80 83 82 L 82 79 L 78 80 L 77 76 Z M 433 76 L 433 81 L 434 83 L 436 82 L 438 82 L 437 78 L 433 76 Z M 359 77 L 357 79 Q 356 83 360 81 L 360 84 L 369 87 L 370 85 L 366 82 L 364 81 L 363 81 L 360 80 L 359 77 Z M 425 79 L 423 81 L 425 87 L 430 86 L 433 90 L 434 90 L 431 83 L 427 84 L 425 79 Z M 132 82 L 130 83 L 125 89 L 129 87 L 131 88 L 130 91 L 134 88 L 133 86 L 133 85 L 132 82 Z M 385 82 L 387 85 Q 390 84 388 88 L 385 90 L 387 91 L 390 87 L 389 85 L 385 82 Z M 184 83 L 183 85 L 184 87 L 178 89 L 183 91 L 187 85 L 184 83 Z M 90 84 L 89 85 Q 84 84 85 87 L 83 88 L 84 92 Q 89 94 87 88 L 91 86 L 90 84 Z M 117 84 L 115 86 Q 113 93 117 93 L 120 88 L 119 88 L 117 84 Z M 249 87 L 243 88 L 241 91 Q 248 93 250 89 L 249 87 Z M 265 87 L 263 89 L 268 91 L 271 89 L 265 87 Z M 230 88 L 228 90 L 230 94 L 233 95 L 230 88 Z M 437 91 L 438 95 L 437 98 L 443 99 L 442 97 L 443 93 L 441 92 L 437 91 Z M 427 93 L 427 95 L 425 98 L 427 100 L 431 98 L 429 95 L 427 93 Z M 305 94 L 303 98 L 304 100 L 307 102 L 306 99 Q 308 93 305 94 Z M 192 96 L 190 98 L 195 101 L 197 102 Q 198 98 196 99 L 196 98 L 192 96 Z M 125 103 Q 126 107 123 106 L 124 110 L 128 107 Q 132 108 131 106 Q 130 102 125 103 Z M 141 106 L 140 107 Q 137 106 138 110 L 140 113 L 142 108 L 141 106 Z M 72 109 L 70 111 Q 68 117 72 119 L 74 115 L 72 109 Z M 379 110 L 378 111 Q 375 110 376 114 L 379 116 L 381 117 L 379 110 Z M 104 114 L 103 117 L 100 118 L 98 122 L 103 121 L 106 115 L 104 114 Z M 307 114 L 306 115 L 302 117 L 301 120 L 307 122 L 306 119 L 310 116 L 307 114 Z M 160 116 L 161 123 L 164 125 L 166 120 L 160 116 Z M 273 119 L 272 120 Q 267 118 268 122 L 265 123 Q 262 125 265 126 L 268 125 L 269 124 L 274 120 L 273 119 Z M 72 122 Q 68 123 70 130 L 73 131 Q 75 124 72 122 Z M 120 123 L 119 124 Q 115 123 116 126 L 119 127 L 121 131 L 122 130 L 122 128 L 120 123 Z M 83 128 L 83 132 L 88 131 L 90 131 Q 89 127 83 128 Z M 108 134 L 104 137 L 102 136 Q 97 135 99 139 L 102 138 Q 104 141 110 140 L 109 137 Q 110 133 108 134 Z M 169 134 L 171 139 L 169 140 L 166 144 L 172 142 L 175 136 L 169 134 Z M 285 134 L 285 138 L 288 139 L 287 143 Q 286 145 290 144 L 292 141 L 288 136 Q 289 132 285 134 Z M 377 136 L 375 140 L 379 142 Q 378 145 381 144 L 383 140 L 385 142 L 387 143 L 385 138 L 382 139 L 377 136 Z M 72 138 L 70 140 L 70 156 Q 72 159 74 155 Q 77 157 75 163 L 78 165 L 77 162 L 78 153 L 73 154 L 74 152 L 73 145 Q 74 137 72 138 Z M 368 142 L 362 148 Q 361 151 364 150 L 365 148 L 369 146 Q 370 141 368 142 Z M 317 143 L 317 145 L 313 148 Q 312 151 317 149 L 317 155 L 319 154 L 318 149 L 319 147 Q 320 142 317 143 Z M 127 146 L 129 151 L 127 154 Q 126 157 129 156 L 132 150 L 127 146 Z M 103 151 L 100 159 L 101 161 Q 105 162 103 158 L 107 156 Q 108 153 105 154 L 104 152 L 103 151 Z M 407 152 L 405 156 Q 401 157 404 159 L 402 160 Q 396 158 398 164 L 397 163 L 395 164 L 394 163 L 389 159 L 391 164 L 390 167 Q 386 166 388 170 L 395 171 L 395 169 L 393 165 Q 396 164 395 167 Q 401 166 403 169 L 402 162 L 405 161 Q 404 156 407 157 L 407 152 Z M 254 163 L 248 164 L 250 167 Q 255 168 256 165 L 254 163 Z M 187 164 L 185 166 L 187 172 L 190 171 L 189 169 L 190 166 L 187 164 Z M 381 170 L 378 176 L 384 174 L 381 170 Z M 219 173 L 217 177 L 214 178 L 215 181 Q 214 183 218 182 L 219 185 L 223 184 L 222 180 L 220 181 L 219 179 L 219 173 Z M 117 176 L 115 178 L 118 178 L 119 181 L 123 182 Q 125 185 127 180 Q 130 181 128 177 L 126 178 L 117 176 Z M 275 178 L 275 180 L 270 183 L 271 185 L 275 183 Q 274 180 278 181 L 277 180 L 275 178 Z M 283 178 L 277 183 L 278 187 L 274 190 L 278 190 L 283 181 L 283 178 Z M 315 178 Q 316 182 313 184 L 311 185 L 311 188 L 317 185 L 325 185 L 325 182 Q 319 184 317 181 Q 318 177 315 178 Z M 367 178 Q 365 185 369 187 L 370 180 L 367 178 Z M 347 180 L 345 182 L 347 188 L 346 191 L 347 193 L 352 192 L 347 180 Z M 70 186 L 72 191 L 73 190 L 77 188 L 77 186 L 70 186 Z M 119 186 L 121 191 L 120 192 L 118 192 L 121 195 L 122 194 L 125 193 L 123 188 L 119 186 Z M 327 188 Q 324 191 317 190 L 319 193 L 321 192 L 322 195 L 326 192 L 327 193 Q 331 194 329 190 L 327 188 Z M 335 190 Q 336 194 331 192 L 331 194 Q 335 195 337 192 L 339 193 Q 342 194 341 192 L 335 190 Z M 413 193 L 414 198 L 421 198 L 418 195 L 416 193 L 413 193 Z M 277 194 L 274 195 L 273 198 Q 271 204 278 201 Q 279 196 277 194 Z M 368 194 L 366 197 L 368 196 Q 373 195 374 198 Q 377 199 376 196 Q 374 192 368 194 Z M 251 197 L 251 199 L 250 203 L 257 201 L 251 197 Z M 88 203 L 86 205 L 92 207 L 93 208 L 92 204 L 88 203 Z M 425 203 L 425 206 Q 422 205 423 208 L 426 207 L 429 208 Q 431 201 425 203 Z M 441 203 L 441 215 L 443 214 L 443 204 L 441 203 Z M 306 204 L 304 206 L 297 205 L 295 211 L 297 210 L 299 208 L 307 208 Q 309 203 306 204 Z M 314 206 L 312 208 L 313 210 L 316 211 L 318 210 L 319 208 L 314 206 Z M 147 208 L 143 210 L 145 214 L 149 215 L 152 214 L 153 212 L 147 211 L 147 210 L 147 208 Z M 70 210 L 71 220 L 73 221 L 76 216 L 75 214 L 73 212 L 70 210 Z M 246 212 L 244 214 L 249 217 L 252 213 L 249 214 L 246 212 Z M 428 212 L 426 214 L 428 218 L 429 216 L 432 214 Q 433 210 428 212 Z M 318 215 Q 317 219 312 218 L 313 220 Q 318 221 319 219 Q 320 214 318 215 Z M 103 216 L 101 219 L 105 221 L 108 221 L 103 216 Z M 383 218 L 382 223 L 384 225 L 388 224 L 386 220 L 383 218 Z M 269 225 Q 266 227 267 232 L 272 231 L 270 230 L 269 225 Z M 427 226 L 427 234 L 430 234 L 429 233 L 430 230 L 431 230 Q 430 232 434 231 L 433 226 L 432 228 L 427 226 Z M 115 228 L 115 232 Q 110 232 111 239 L 110 241 L 115 238 L 115 234 L 125 234 L 124 231 L 119 232 L 118 230 L 115 228 Z M 153 229 L 153 236 L 151 236 L 153 238 L 155 235 Q 157 228 153 229 Z M 351 235 L 348 241 L 352 240 Q 356 242 355 238 L 351 235 Z M 395 236 L 393 240 Q 388 238 389 243 L 395 246 L 398 246 L 394 243 L 396 239 L 399 240 L 397 236 L 395 236 Z M 427 239 L 427 241 L 430 242 L 433 246 Q 436 247 434 242 L 427 239 Z M 345 243 L 340 247 Q 339 249 343 248 L 344 249 Q 343 244 346 245 L 345 243 Z M 426 245 L 427 248 Q 425 255 431 253 L 433 258 L 434 258 L 433 253 L 433 251 L 432 250 L 429 250 Q 431 243 426 245 Z M 76 249 L 73 250 L 74 255 L 80 257 L 80 255 L 79 255 L 78 250 L 76 249 Z M 183 256 L 184 263 L 187 262 L 188 261 L 183 256 Z M 85 260 L 83 262 L 86 263 L 84 268 L 86 268 L 88 265 L 87 262 L 85 260 Z M 251 264 L 247 270 L 251 272 L 251 264 Z M 427 267 L 428 271 L 424 272 L 430 274 L 431 270 L 427 267 Z M 145 273 L 142 276 L 149 279 L 150 276 L 145 273 Z M 239 275 L 240 278 L 239 280 L 243 281 L 244 284 L 247 285 L 248 283 L 247 279 L 239 275 Z M 94 276 L 94 280 L 99 282 L 102 281 Q 106 279 103 277 L 97 280 L 96 278 L 94 276 Z M 369 276 L 372 281 L 374 282 L 376 282 L 371 278 L 369 276 Z M 315 278 L 313 280 L 315 284 L 318 285 L 315 278 Z M 301 279 L 301 281 L 304 285 Q 308 286 306 281 L 301 279 Z M 78 280 Q 76 284 70 283 L 72 287 L 75 285 L 78 286 L 79 284 L 78 280 Z M 253 300 L 248 304 L 250 309 L 253 303 Q 256 304 255 302 L 253 300 Z M 387 301 L 385 303 L 387 307 L 389 306 L 390 307 L 389 304 Q 390 300 387 301 Z M 72 310 L 70 312 Q 68 319 72 321 Q 79 319 79 323 L 79 324 L 83 322 Q 85 314 80 316 L 79 320 L 75 319 L 72 310 Z M 117 316 L 117 318 L 114 319 Q 111 318 112 322 L 116 321 L 120 322 L 121 323 L 119 319 Q 120 315 117 316 Z M 364 316 L 361 317 L 361 327 L 363 327 L 364 319 L 364 316 Z M 72 324 L 70 326 L 70 343 L 71 344 L 73 345 L 74 346 L 73 344 L 74 335 L 73 332 Q 75 324 72 324 Z M 288 333 L 284 338 Q 283 341 287 340 L 288 336 L 288 333 Z M 413 339 Q 411 343 415 342 L 416 342 L 415 344 L 418 345 L 419 347 L 422 347 L 421 345 L 419 339 L 417 340 L 413 339 Z M 190 342 L 191 346 L 189 351 L 191 352 L 193 350 L 194 344 L 190 342 Z M 387 345 L 384 346 Q 381 348 384 349 Q 389 350 391 348 L 387 345 Z M 349 356 L 347 359 L 343 360 Q 340 362 343 363 L 349 361 L 351 358 L 349 356 Z M 318 362 L 316 364 L 318 367 L 323 367 L 318 362 Z M 339 366 Q 340 369 337 368 Q 335 373 339 375 L 340 372 L 342 370 L 342 368 L 339 366 Z M 442 367 L 438 368 L 437 372 L 441 371 L 443 371 L 442 367 Z M 424 372 L 417 376 L 421 377 L 425 375 L 424 372 Z M 317 373 L 311 374 Q 308 380 314 379 L 318 375 L 317 373 Z M 256 376 L 251 379 L 255 381 L 256 383 L 256 381 L 256 379 Q 260 380 259 378 L 256 376 Z M 297 376 L 295 377 L 293 380 L 297 379 L 299 380 L 297 385 L 302 382 L 305 382 L 306 378 Q 304 374 297 376 Z M 373 376 L 375 381 L 375 382 L 380 382 L 379 379 L 379 376 L 373 376 Z M 434 384 L 432 386 L 438 390 L 442 389 L 443 387 L 441 386 L 434 384 Z M 399 388 L 396 392 L 401 392 L 402 390 L 403 388 L 401 389 L 399 388 Z M 256 390 L 248 393 Q 247 395 252 394 L 253 397 Q 256 398 255 394 Q 259 392 256 390 Z M 422 390 L 420 392 L 425 392 L 426 397 Q 430 398 428 392 Q 427 389 422 390 Z M 384 400 Q 380 402 381 408 Q 385 410 384 406 Q 381 404 386 402 L 384 400 Z M 425 404 L 423 414 L 425 413 Q 428 412 427 415 L 429 415 L 427 412 L 429 407 Q 430 402 425 404 Z M 307 412 L 302 418 L 305 419 L 304 418 L 307 414 L 307 412 Z M 85 414 L 85 416 L 87 415 Q 90 414 89 417 Q 94 419 93 415 L 85 414 Z M 124 414 L 124 416 L 124 418 Q 122 425 127 423 L 128 416 L 124 414 Z M 80 417 Q 78 421 82 420 L 85 424 L 88 422 L 87 418 L 80 417 Z M 265 417 L 263 419 L 270 421 Q 274 422 272 418 L 265 417 Z M 76 421 L 77 425 L 73 423 Q 69 423 71 429 Q 74 426 82 427 Q 83 424 80 425 L 79 423 Q 80 420 76 421 Z M 278 421 L 276 426 L 280 424 L 282 424 L 282 422 L 278 421 Z M 98 426 L 94 431 L 98 432 Q 99 435 101 431 L 99 429 L 98 426 Z M 136 426 L 133 427 Q 132 431 135 430 L 136 432 L 136 430 L 140 428 L 136 426 Z M 303 429 L 299 431 L 300 437 L 301 434 L 304 433 L 305 431 L 303 429 Z M 430 429 L 427 431 L 424 430 L 422 433 L 430 432 L 430 429 Z M 175 430 L 172 433 L 167 431 L 166 434 L 172 436 L 173 437 L 175 435 L 175 433 L 175 430 Z M 394 430 L 392 435 L 387 433 L 390 440 L 389 439 L 386 440 L 387 442 L 392 441 Q 395 442 393 437 Q 398 438 400 436 L 399 433 L 395 434 L 394 430 Z M 88 431 L 86 434 L 87 439 Q 81 440 78 437 L 81 441 L 88 441 L 90 439 L 93 434 L 95 435 L 95 433 L 89 434 L 88 431 Z M 267 431 L 265 432 L 263 435 Q 266 432 273 433 Q 274 430 267 431 Z M 331 432 L 333 436 Q 334 440 332 439 L 330 442 L 340 442 L 341 441 L 335 439 L 333 434 Q 334 431 331 432 Z M 157 433 L 154 435 Q 150 434 151 437 L 156 439 L 161 439 Q 162 436 159 437 L 157 433 Z M 259 433 L 257 438 L 253 441 L 259 442 L 259 440 L 260 437 Q 261 432 259 433 Z M 320 433 L 320 436 L 325 439 L 326 438 L 320 433 Z M 201 435 L 197 441 L 200 442 L 203 441 L 201 435 Z M 359 435 Q 355 437 359 439 L 358 440 L 355 441 Q 354 443 361 442 L 362 440 L 360 438 L 363 437 L 364 435 L 361 436 L 359 435 Z M 102 436 L 103 441 Q 104 443 110 442 L 111 439 L 102 436 Z M 377 436 L 376 437 Q 373 436 374 440 L 373 439 L 370 441 L 376 442 L 378 439 Q 379 435 377 436 Z M 151 437 L 149 438 L 146 442 L 151 441 L 154 442 L 155 439 L 151 437 Z M 220 437 L 216 442 L 220 441 L 222 442 L 223 439 L 220 437 Z " /><path fill="rgb(254,254,254)" stroke="rgb(254,254,254)" stroke-width="0.6" opacity="1" d="M 0 0 L 512 0 L 512 512 L 0 512 L 0 0 Z M 89 51 Q 76 53 68 59 Q 55 68 51 87 L 51 428 Q 53 440 60 448 Q 69 459 86 462 L 427 462 Q 438 460 446 454 Q 460 444 462 423 L 462 91 Q 460 74 451 65 Q 442 54 425 51 L 89 51 Z " /><path fill="rgb(1,1,1)" stroke="rgb(1,1,1)" stroke-width="0.6" opacity="1" d="M 83.5 53 L 85.5 54 L 430.5 54 L 445 61.5 L 448.5 67 L 454 70.5 L 456 73.5 L 458 84.5 L 460 86.5 L 460 101.5 L 459 107.5 L 460 110.5 L 459 113.5 L 460 114.5 L 460 242.5 L 459 244.5 L 460 245.5 L 460 328.5 L 459 331.5 L 460 332.5 L 460 389.5 L 459 392.5 L 460 402.5 L 459 406.5 L 460 409.5 L 459 412.5 L 460 414.5 L 459 420.5 L 460 427.5 L 457 431.5 L 457 436.5 L 452.5 445 L 450 445.5 L 450 447.5 L 448.5 449 Q 445.8 448 443 452.5 Q 444.3 456.3 440.5 455 L 432.5 459 L 424 459 L 423.5 461 L 417 461 Q 418.3 456.9 415 458 L 414.5 461 L 100 461 L 100 458 L 92 458 Q 93.6 462.9 88 461 L 87.5 459 L 78.5 459 Q 77.3 456 73 457 Q 74.5 453.3 71.5 454 L 59 443.5 L 55 431.5 L 56 429 L 54 427.5 L 52 424.5 L 52 89.5 L 55 82.5 L 54 80.5 L 65.5 62 L 83.5 53 Z M 424 63 L 423 64 L 89 64 L 74 71 L 72 74 L 70 75 L 63 91 L 63 423 Q 65 436 74 443 L 78 446 Q 84 445 86 449 L 96 448 L 101 449 L 428 449 L 431 446 L 441 442 L 447 432 Q 446 426 449 425 L 449 89 L 443 74 L 434 68 L 432 66 L 427 65 L 424 63 Z " /><path fill="rgb(224,67,62)" stroke="rgb(224,67,62)" stroke-width="0.6" opacity="1" d="M 103.5 70 L 117.5 70 L 118 72 L 110.5 73 L 108.5 72 L 104.5 73 L 102 71.5 L 103.5 70 Z " /><path fill="rgb(224,67,62)" stroke="rgb(224,67,62)" stroke-width="0.6" opacity="1" d="M 167 70 L 172 71.5 L 171 74 L 174 75.5 L 173.5 77 L 171.5 76 L 166.5 78 L 166.5 77 L 169 75.5 L 167 74 L 167 70 Z " /><path fill="rgb(224,67,62)" stroke="rgb(224,67,62)" stroke-width="0.6" opacity="1" d="M 200 70 Q 205.5 68.8 207 72.5 Q 208.7 77.3 204.5 76 L 201.5 72 L 200 70 Z " /><path fill="rgb(224,67,62)" stroke="rgb(224,67,62)" stroke-width="0.6" opacity="1" d="M 231.5 70 Q 239.8 67.8 242 71.5 L 231.5 73 Q 228.5 71.5 231.5 70 Z " /><path fill="rgb(224,67,62)" stroke="rgb(224,67,62)" stroke-width="0.6" opacity="1" d="M 246.5 70 L 259.5 70 L 260 72 L 249.5 73 L 247.5 73 L 244 75.5 L 248 77.5 L 245.5 78 L 241 76.5 L 244.5 71 L 246.5 70 Z " /><path fill="rgb(224,67,62)" stroke="rgb(224,67,62)" stroke-width="0.6" opacity="1" d="M 270.5 70 L 273 71.5 L 275 79.5 L 271 81 Q 272 74.8 269 71.5 L 270.5 70 Z " /><path fill="rgb(224,67,62)" stroke="rgb(224,67,62)" stroke-width="0.6" opacity="1" d="M 277.5 70 Q 282.8 68.8 284 71.5 L 280.5 77 L 276 71.5 L 277.5 70 Z " /><path fill="rgb(224,67,62)" stroke="rgb(224,67,62)" stroke-width="0.6" opacity="1" d="M 314 70 L 323.5 70 L 325 71.5 L 322.5 73 L 314 72 L 314 70 Z " /><path fill="rgb(224,67,62)" stroke="rgb(224,67,62)" stroke-width="0.6" opacity="1" d="M 339.5 70 L 342.5 71 L 346.5 70 Q 349.5 71.5 346.5 73 L 344.5 72 L 340.5 74 Q 336 72 339.5 70 Z " /><path fill="rgb(224,67,62)" stroke="rgb(224,67,62)" stroke-width="0.6" opacity="1" d="M 355.5 70 L 365.5 71 L 372 70 L 370 75 L 366.5 77 L 366 75.5 L 367.5 73 L 356.5 72 L 353.5 74 L 353 71 L 355.5 70 Z " /><path fill="rgb(224,67,62)" stroke="rgb(224,67,62)" stroke-width="0.6" opacity="1" d="M 402.5 70 L 406.5 71 L 408.5 70 L 409.5 72 L 408 73.5 L 405.5 72 L 401.5 73 L 400.5 71 L 402.5 70 Z " /><path fill="rgb(224,67,62)" stroke="rgb(224,67,62)" stroke-width="0.6" opacity="1" d="M 413.5 70 L 424.5 70 L 425 72 Q 416.3 70.5 413 74 L 412 71.5 L 413.5 70 Z " /><path fill="rgb(224,67,62)" stroke="rgb(224,67,62)" stroke-width="0.6" opacity="1" d="M 334.5 75 L 337 76.5 Q 338.8 85.1 335 84 Q 336 78.8 333 76.5 L 334.5 75 Z " /><path fill="rgb(224,67,62)" stroke="rgb(224,67,62)" stroke-width="0.6" opacity="1" d="M 76.5 76 L 77.5 80 L 81.5 79 L 83 82 Q 78.2 80.1 79 83.5 L 83 85 Q 82 88 85 87 Q 83.7 83.7 88.5 85 L 91 84 L 88.5 88 Q 85.1 87.2 87 92 L 84 92 L 82.5 87 L 76 87 L 76 84.5 L 73.5 84 L 72 83.5 L 76.5 76 Z " /><path fill="rgb(224,67,62)" stroke="rgb(224,67,62)" stroke-width="0.6" opacity="1" d="M 433 76 L 437 77.5 L 438 81.5 L 435.5 82 L 433.5 83 L 433 80.5 L 433 76 Z " /><path fill="rgb(224,67,62)" stroke="rgb(224,67,62)" stroke-width="0.6" opacity="1" d="M 358.5 77 L 360 80 L 362.5 81 L 364 80.5 L 365.5 82 L 370 84.5 L 368.5 87 L 360 83.5 L 360 81 Q 355.9 82.7 357 78.5 L 358.5 77 Z " /><path fill="rgb(224,67,62)" stroke="rgb(224,67,62)" stroke-width="0.6" opacity="1" d="M 424.5 79 L 427 84 L 430.5 83 L 434 89.5 L 432.5 90 L 429.5 86 L 425 87 Q 426.9 91.8 423.5 91 L 421 87.5 L 425 87 L 423 80.5 L 424.5 79 Z " /><path fill="rgb(224,67,62)" stroke="rgb(224,67,62)" stroke-width="0.6" opacity="1" d="M 339.5 80 L 342 83.5 L 339 85 Q 340.3 89.1 337 88 Q 336 83.8 339 84.5 L 339.5 80 Z " /><path fill="rgb(224,67,62)" stroke="rgb(224,67,62)" stroke-width="0.6" opacity="1" d="M 131.5 82 L 133 84.5 L 132.5 86 L 134 87.5 L 130 90.5 L 131 87.5 L 128.5 87 L 125 89 L 129.5 83 L 131.5 82 Z " /><path fill="rgb(224,67,62)" stroke="rgb(224,67,62)" stroke-width="0.6" opacity="1" d="M 385 82 L 389 84.5 L 390 86.5 L 386.5 91 L 383.5 93 L 383 91 L 385 89.5 L 388 88 Q 389.5 84.2 386.5 85 L 385 82 Z " /><path fill="rgb(224,67,62)" stroke="rgb(224,67,62)" stroke-width="0.6" opacity="1" d="M 183.5 83 L 187 84.5 L 182.5 91 L 178 88.5 L 184 86.5 L 182.5 85 L 183.5 83 Z " /><path fill="rgb(224,67,62)" stroke="rgb(224,67,62)" stroke-width="0.6" opacity="1" d="M 116.5 84 L 118.5 88 L 120 87.5 L 116.5 93 Q 113.3 93.4 115 85.5 L 116.5 84 Z " /><path fill="rgb(224,67,62)" stroke="rgb(224,67,62)" stroke-width="0.6" opacity="1" d="M 198.5 87 L 200.5 88 L 202 87.5 L 199 92.5 L 199 97.5 L 197 102 L 195 100.5 L 190 97.5 L 194.5 96 L 195.5 99 Q 198.9 99.9 197 94.5 L 196 92 Q 199.7 93.5 199 90.5 L 198.5 87 Z " /><path fill="rgb(224,67,62)" stroke="rgb(224,67,62)" stroke-width="0.6" opacity="1" d="M 248.5 87 L 250 88.5 Q 248.1 92.8 241 91 L 242.5 88 L 248.5 87 Z " /><path fill="rgb(224,67,62)" stroke="rgb(224,67,62)" stroke-width="0.6" opacity="1" d="M 264.5 87 L 271 88.5 L 267.5 91 L 263 88.5 L 264.5 87 Z " /><path fill="rgb(224,67,62)" stroke="rgb(224,67,62)" stroke-width="0.6" opacity="1" d="M 229.5 88 L 233 95 L 230 93.5 L 228 89.5 L 229.5 88 Z " /><path fill="rgb(224,67,62)" stroke="rgb(224,67,62)" stroke-width="0.6" opacity="1" d="M 436.5 91 L 440.5 92 L 443 92.5 L 442 96.5 L 443 99 L 437 97.5 L 438 94.5 L 436.5 91 Z " /><path fill="rgb(224,67,62)" stroke="rgb(224,67,62)" stroke-width="0.6" opacity="1" d="M 327.5 92 Q 330.9 91.1 329 96.5 L 330.5 99 L 329 97.5 L 326 93.5 L 327.5 92 Z " /><path fill="rgb(224,67,62)" stroke="rgb(224,67,62)" stroke-width="0.6" opacity="1" d="M 426.5 93 L 429 94.5 L 431 97.5 L 426.5 100 L 425 97.5 L 427 94.5 L 426.5 93 Z " /><path fill="rgb(224,67,62)" stroke="rgb(224,67,62)" stroke-width="0.6" opacity="1" d="M 304.5 94 Q 307.9 93.1 306 98.5 L 307 102 L 303.5 100 L 303 97.5 L 304.5 94 Z " /><path fill="rgb(224,67,62)" stroke="rgb(224,67,62)" stroke-width="0.6" opacity="1" d="M 125 103 Q 129.7 102 131 105.5 Q 131.9 108.5 127.5 107 L 123.5 110 L 123 106 Q 126.3 107.1 125 103 Z " /><path fill="rgb(224,67,62)" stroke="rgb(224,67,62)" stroke-width="0.6" opacity="1" d="M 140.5 106 L 142 107.5 L 139.5 113 L 138 109.5 Q 136.9 106.2 139.5 107 L 140.5 106 Z " /><path fill="rgb(224,67,62)" stroke="rgb(224,67,62)" stroke-width="0.6" opacity="1" d="M 71.5 109 L 74 114.5 L 71.5 119 Q 68.3 117.3 70 110.5 L 71.5 109 Z " /><path fill="rgb(224,67,62)" stroke="rgb(224,67,62)" stroke-width="0.6" opacity="1" d="M 378.5 110 L 381 117 L 379 115.5 L 376 114 Q 374.5 110.2 377.5 111 L 378.5 110 Z " /><path fill="rgb(224,67,62)" stroke="rgb(224,67,62)" stroke-width="0.6" opacity="1" d="M 103.5 114 L 106 115 L 102.5 121 L 98 122 L 99.5 118 L 103 116.5 L 103.5 114 Z " /><path fill="rgb(224,67,62)" stroke="rgb(224,67,62)" stroke-width="0.6" opacity="1" d="M 306.5 114 L 310 115.5 L 306 118.5 L 307 122 L 301 119.5 L 302 117 L 305.5 115 L 306.5 114 Z " /><path fill="rgb(224,67,62)" stroke="rgb(224,67,62)" stroke-width="0.6" opacity="1" d="M 370.5 115 L 371 116.5 L 368 118 L 366.5 121 Q 363.2 122.1 364 119.5 L 370.5 115 Z " /><path fill="rgb(224,67,62)" stroke="rgb(224,67,62)" stroke-width="0.6" opacity="1" d="M 160 116 L 166 119.5 L 163.5 125 L 161 122.5 L 160 116 Z " /><path fill="rgb(224,67,62)" stroke="rgb(224,67,62)" stroke-width="0.6" opacity="1" d="M 272.5 119 L 274 119.5 L 269 123.5 L 267.5 125 L 264.5 126 Q 261.5 124.5 264.5 123 L 268 121.5 Q 267.1 118.5 271.5 120 L 272.5 119 Z " /><path fill="rgb(224,67,62)" stroke="rgb(224,67,62)" stroke-width="0.6" opacity="1" d="M 71.5 122 Q 75 124.1 73 131 L 70 129.5 Q 68.5 123.5 71.5 122 Z " /><path fill="rgb(224,67,62)" stroke="rgb(224,67,62)" stroke-width="0.6" opacity="1" d="M 119.5 123 L 122 127.5 L 122 129.5 L 120.5 131 L 119 127 L 116 125.5 Q 115.2 122.9 118.5 124 L 119.5 123 Z " /><path fill="rgb(224,67,62)" stroke="rgb(224,67,62)" stroke-width="0.6" opacity="1" d="M 144 123 Q 147.8 121.5 147 124.5 L 146.5 127 Q 141.3 125.3 143 130.5 L 146 134.5 L 142.5 137 L 142 134.5 L 143 131.5 L 141 127 L 143 125.5 L 144 123 Z " /><path fill="rgb(224,67,62)" stroke="rgb(224,67,62)" stroke-width="0.6" opacity="1" d="M 83 128 Q 88.5 126.8 90 130.5 L 87.5 131 L 83 132 L 81.5 135 Q 78.5 133.5 81.5 132 Q 84.9 132.8 83 128 Z " /><path fill="rgb(224,67,62)" stroke="rgb(224,67,62)" stroke-width="0.6" opacity="1" d="M 240 132 L 243 133.5 L 245 139 L 243 139 Q 244.5 135.3 241.5 136 L 240 132 Z " /><path fill="rgb(224,67,62)" stroke="rgb(224,67,62)" stroke-width="0.6" opacity="1" d="M 107.5 134 Q 110.1 133.2 109 136.5 L 110 140 Q 104 141.2 101.5 138 L 99 139 Q 97.3 134.9 101.5 136 L 103.5 137 L 107.5 134 Z " /><path fill="rgb(224,67,62)" stroke="rgb(224,67,62)" stroke-width="0.6" opacity="1" d="M 169 134 L 175 136 L 171.5 142 L 165.5 144 L 168.5 140 L 171 138.5 L 169 134 Z " /><path fill="rgb(224,67,62)" stroke="rgb(224,67,62)" stroke-width="0.6" opacity="1" d="M 285 134 Q 288.7 132.5 288 135.5 L 292 140.5 L 289.5 144 Q 286.2 145.1 287 142.5 L 288 139 L 285 137.5 L 285 134 Z " /><path fill="rgb(224,67,62)" stroke="rgb(224,67,62)" stroke-width="0.6" opacity="1" d="M 376.5 136 L 381.5 139 L 384.5 138 L 387 143 L 385 141.5 L 382.5 140 L 381 144 Q 378 145.3 379 141.5 L 375 140 L 376.5 136 Z " /><path fill="rgb(224,67,62)" stroke="rgb(224,67,62)" stroke-width="0.6" opacity="1" d="M 71.5 138 Q 74.5 137.5 73 144.5 L 74 151.5 L 73 154 L 78 153 L 77 161.5 L 78 164.5 L 75 162.5 Q 76.5 156.5 73.5 155 Q 71.8 158.8 70 155.5 L 70 139.5 L 71.5 138 Z " /><path fill="rgb(224,67,62)" stroke="rgb(224,67,62)" stroke-width="0.6" opacity="1" d="M 367.5 142 Q 370.5 141.1 369 145.5 L 365 147.5 L 363.5 150 Q 360.9 150.8 362 147.5 L 367.5 142 Z " /><path fill="rgb(224,67,62)" stroke="rgb(224,67,62)" stroke-width="0.6" opacity="1" d="M 317 143 Q 320.3 141.7 319 146.5 L 318 148.5 L 319 153.5 L 317 154.5 L 317 149 Q 312.2 150.9 313 147.5 L 317 144.5 L 317 143 Z " /><path fill="rgb(224,67,62)" stroke="rgb(224,67,62)" stroke-width="0.6" opacity="1" d="M 127 146 L 132 149.5 L 129 156 Q 126 157.3 127 153.5 L 129 150.5 L 127 146 Z " /><path fill="rgb(224,67,62)" stroke="rgb(224,67,62)" stroke-width="0.6" opacity="1" d="M 189.5 146 L 191 150 Q 187.3 148.7 189 154.5 L 190 157 Q 185.9 158.7 187 154.5 L 186 151.5 L 189 150 L 189.5 146 Z " /><path fill="rgb(224,67,62)" stroke="rgb(224,67,62)" stroke-width="0.6" opacity="1" d="M 102.5 151 L 104 151.5 L 104.5 154 Q 108.3 153 107 156 L 103 157.5 Q 104.7 162.3 100.5 161 L 100 158.5 L 102.5 151 Z " /><path fill="rgb(224,67,62)" stroke="rgb(224,67,62)" stroke-width="0.6" opacity="1" d="M 406.5 152 L 407 157 Q 403.7 155.7 405 160.5 L 402 162 L 403 169 Q 400.7 166.2 395 167 L 396 169.5 L 390.5 171 L 388 170 Q 386.5 166.2 389.5 167 L 391 163.5 L 389 159 L 394 162.5 L 394.5 164 L 396.5 163 L 398 163.5 Q 396.3 158.3 401.5 160 L 404 158.5 Q 401.5 157 405 155.5 L 406.5 152 Z " /><path fill="rgb(224,67,62)" stroke="rgb(224,67,62)" stroke-width="0.6" opacity="1" d="M 258.5 161 L 260 161.5 L 259 163.5 L 261 166.5 L 259 167.5 L 259 164 L 257 162.5 L 258.5 161 Z " /><path fill="rgb(224,67,62)" stroke="rgb(224,67,62)" stroke-width="0.6" opacity="1" d="M 253.5 163 L 256 164.5 Q 255 168 249.5 167 L 248 164 L 253.5 163 Z " /><path fill="rgb(224,67,62)" stroke="rgb(224,67,62)" stroke-width="0.6" opacity="1" d="M 186.5 164 L 190 165.5 L 189 168.5 L 190 170.5 L 187 172 L 185 165.5 L 186.5 164 Z " /><path fill="rgb(224,67,62)" stroke="rgb(224,67,62)" stroke-width="0.6" opacity="1" d="M 380.5 170 L 383.5 174 L 378 176 L 380.5 170 Z " /><path fill="rgb(224,67,62)" stroke="rgb(224,67,62)" stroke-width="0.6" opacity="1" d="M 218.5 173 L 219 178.5 L 219.5 181 L 221.5 180 L 223 183.5 L 219 185 L 217.5 182 Q 214.2 183.1 215 180.5 L 214 178 L 217 176.5 L 218.5 173 Z " /><path fill="rgb(224,67,62)" stroke="rgb(224,67,62)" stroke-width="0.6" opacity="1" d="M 349 175 L 351 175.5 L 347 182.5 L 352 191.5 L 346.5 193 L 346 190.5 L 347 187.5 L 345 181.5 L 349 175 Z " /><path fill="rgb(224,67,62)" stroke="rgb(224,67,62)" stroke-width="0.6" opacity="1" d="M 116.5 176 L 125.5 178 L 128 177 Q 129.5 180.7 126.5 180 Q 124.5 185 122.5 182 L 119 180.5 L 117.5 178 L 115 177.5 L 116.5 176 Z " /><path fill="rgb(224,67,62)" stroke="rgb(224,67,62)" stroke-width="0.6" opacity="1" d="M 139 177 L 144 178 L 144 180 L 139 180 Q 140 183 137 182 Q 136 179 139 180 L 139 177 Z " /><path fill="rgb(224,67,62)" stroke="rgb(224,67,62)" stroke-width="0.6" opacity="1" d="M 275 178 L 277 179.5 L 279.5 181 Q 281.8 175.8 284 179.5 L 278 190 L 274 189.5 L 278 186.5 L 277 182.5 L 277.5 181 Q 274.2 179.9 275 182.5 L 271 185 L 270 182.5 L 275 179.5 L 275 178 Z " /><path fill="rgb(224,67,62)" stroke="rgb(224,67,62)" stroke-width="0.6" opacity="1" d="M 315 178 Q 318 176.8 317 180.5 Q 318.9 183.8 325 182 L 325 185 L 316.5 185 L 311 188 L 311 185 L 313 183.5 Q 316 182.3 315 178 Z " /><path fill="rgb(224,67,62)" stroke="rgb(224,67,62)" stroke-width="0.6" opacity="1" d="M 367 178 L 370 179.5 L 368.5 187 Q 365 184.9 367 178 Z " /><path fill="rgb(224,67,62)" stroke="rgb(224,67,62)" stroke-width="0.6" opacity="1" d="M 70 186 L 76.5 186 L 77 188 L 73 189.5 L 71.5 191 L 70 186 Z " /><path fill="rgb(224,67,62)" stroke="rgb(224,67,62)" stroke-width="0.6" opacity="1" d="M 119 186 L 123 187.5 L 125 192.5 L 122 193.5 L 120.5 195 L 118 191.5 L 119.5 192 L 121 190.5 L 119 186 Z " /><path fill="rgb(224,67,62)" stroke="rgb(224,67,62)" stroke-width="0.6" opacity="1" d="M 326.5 188 L 329 189.5 Q 330.7 194.3 326.5 193 L 325.5 192 L 322 194.5 L 320.5 192 L 318.5 193 L 317 190 Q 323.7 191.4 326.5 188 Z " /><path fill="rgb(224,67,62)" stroke="rgb(224,67,62)" stroke-width="0.6" opacity="1" d="M 335 190 L 341 191.5 Q 341.8 194.1 338.5 193 L 336.5 192 Q 335.3 195 331 194 L 331 192 Q 336.2 193.7 335 190 Z " /><path fill="rgb(224,67,62)" stroke="rgb(224,67,62)" stroke-width="0.6" opacity="1" d="M 413 193 L 416 193 L 417.5 195 L 421 197.5 L 414 198 L 413 193 Z " /><path fill="rgb(224,67,62)" stroke="rgb(224,67,62)" stroke-width="0.6" opacity="1" d="M 276.5 194 Q 279.5 195.6 278 201 Q 271.3 203.6 273 197.5 L 274 195 L 276.5 194 Z " /><path fill="rgb(224,67,62)" stroke="rgb(224,67,62)" stroke-width="0.6" opacity="1" d="M 367.5 194 Q 374.2 192.3 376 195.5 Q 377.3 199.3 373.5 198 Q 372.5 195 367.5 196 L 366 196.5 L 367.5 194 Z " /><path fill="rgb(224,67,62)" stroke="rgb(224,67,62)" stroke-width="0.6" opacity="1" d="M 250.5 197 L 257 200.5 L 250 203 L 251 198.5 L 250.5 197 Z " /><path fill="rgb(224,67,62)" stroke="rgb(224,67,62)" stroke-width="0.6" opacity="1" d="M 87.5 203 L 92 204 L 93 207.5 L 91.5 207 L 86 204.5 L 87.5 203 Z " /><path fill="rgb(224,67,62)" stroke="rgb(224,67,62)" stroke-width="0.6" opacity="1" d="M 425 203 Q 431.4 200.9 429 208 L 425.5 207 L 423 208 Q 422 205 425 206 L 425 203 Z " /><path fill="rgb(224,67,62)" stroke="rgb(224,67,62)" stroke-width="0.6" opacity="1" d="M 441 203 L 443 203.5 L 443 213.5 L 441 214.5 L 441 203 Z " /><path fill="rgb(224,67,62)" stroke="rgb(224,67,62)" stroke-width="0.6" opacity="1" d="M 147 204 Q 152.2 201.9 151 206.5 L 147 208 L 146 210.5 L 153 212 L 151.5 214 L 148.5 215 L 145 213.5 L 143 210 L 147 207.5 L 147 204 Z " /><path fill="rgb(224,67,62)" stroke="rgb(224,67,62)" stroke-width="0.6" opacity="1" d="M 305.5 204 L 308.5 208 Q 311.5 209.5 308.5 211 L 307 208 L 298.5 208 L 297 209.5 L 295 211 L 296.5 205 L 303.5 206 L 305.5 204 Z " /><path fill="rgb(224,67,62)" stroke="rgb(224,67,62)" stroke-width="0.6" opacity="1" d="M 313.5 206 L 319 207.5 L 318 210 L 315.5 211 L 313 210 L 312 207.5 L 313.5 206 Z " /><path fill="rgb(224,67,62)" stroke="rgb(224,67,62)" stroke-width="0.6" opacity="1" d="M 70 210 L 73 211.5 L 74.5 214 L 76 215.5 L 72.5 221 L 71 219.5 L 70 210 Z " /><path fill="rgb(224,67,62)" stroke="rgb(224,67,62)" stroke-width="0.6" opacity="1" d="M 329 210 Q 332.1 209.3 331.5 212 L 337 212 L 337 214 L 332.5 215 L 331 212 Q 328 213 329 210 Z " /><path fill="rgb(224,67,62)" stroke="rgb(224,67,62)" stroke-width="0.6" opacity="1" d="M 245.5 212 L 248.5 214 L 251.5 213 L 248.5 217 L 244 213.5 L 245.5 212 Z " /><path fill="rgb(224,67,62)" stroke="rgb(224,67,62)" stroke-width="0.6" opacity="1" d="M 427.5 212 Q 433.4 210.3 432 214 L 429 215.5 L 427.5 218 L 426 213.5 L 427.5 212 Z " /><path fill="rgb(224,67,62)" stroke="rgb(224,67,62)" stroke-width="0.6" opacity="1" d="M 317.5 215 Q 320.5 214.1 319 218.5 Q 317.8 221.3 312.5 220 L 311.5 218 Q 316.7 218.7 317.5 215 Z " /><path fill="rgb(224,67,62)" stroke="rgb(224,67,62)" stroke-width="0.6" opacity="1" d="M 102.5 216 L 108 220.5 L 104.5 221 L 101 218.5 L 102.5 216 Z " /><path fill="rgb(224,67,62)" stroke="rgb(224,67,62)" stroke-width="0.6" opacity="1" d="M 383 218 L 386 219.5 L 388 223.5 L 383.5 225 L 382 222.5 L 383 218 Z " /><path fill="rgb(224,67,62)" stroke="rgb(224,67,62)" stroke-width="0.6" opacity="1" d="M 268.5 225 L 270 230 L 272 230.5 L 262 235 Q 260.3 229.8 267 232 L 267 226.5 L 268.5 225 Z " /><path fill="rgb(224,67,62)" stroke="rgb(224,67,62)" stroke-width="0.6" opacity="1" d="M 427 226 L 432 228 L 432.5 226 L 434 231 Q 430.3 232.5 431 229.5 L 430 229.5 L 429 232.5 L 429.5 234 L 427 234 L 427 226 Z " /><path fill="rgb(224,67,62)" stroke="rgb(224,67,62)" stroke-width="0.6" opacity="1" d="M 115 228 L 118 229.5 L 118.5 232 L 123.5 231 L 125 234 L 115 234 L 115 237.5 L 109.5 241 L 111 238.5 Q 110.3 232.3 115 231.5 L 115 228 Z " /><path fill="rgb(224,67,62)" stroke="rgb(224,67,62)" stroke-width="0.6" opacity="1" d="M 153 229 Q 157 227.6 155 234.5 L 152.5 238 L 151 236 L 153 235.5 L 153 229 Z " /><path fill="rgb(224,67,62)" stroke="rgb(224,67,62)" stroke-width="0.6" opacity="1" d="M 328.5 235 L 331 236.5 L 329.5 236 Q 327 239.2 321 238 Q 319.9 234.5 327.5 236 L 328.5 235 Z " /><path fill="rgb(224,67,62)" stroke="rgb(224,67,62)" stroke-width="0.6" opacity="1" d="M 350.5 235 L 355 237.5 Q 356.3 241.7 351.5 240 L 348 241 L 350.5 235 Z " /><path fill="rgb(224,67,62)" stroke="rgb(224,67,62)" stroke-width="0.6" opacity="1" d="M 387.5 236 L 389 240 Q 393.7 241 395 237.5 L 397 236 L 399 240 L 395.5 239 L 394 242.5 L 398 245.5 L 394.5 246 L 389 242.5 Q 390.1 239.2 387.5 240 L 386 237.5 L 387.5 236 Z " /><path fill="rgb(224,67,62)" stroke="rgb(224,67,62)" stroke-width="0.6" opacity="1" d="M 369 238 L 373 239.5 Q 371.9 242.8 374.5 242 L 375.5 244 L 369 239.5 L 369 238 Z " /><path fill="rgb(224,67,62)" stroke="rgb(224,67,62)" stroke-width="0.6" opacity="1" d="M 427 239 L 434 241.5 Q 435.9 246.9 432.5 246 L 429.5 242 L 427 240.5 L 427 239 Z " /><path fill="rgb(224,67,62)" stroke="rgb(224,67,62)" stroke-width="0.6" opacity="1" d="M 94.5 240 L 96 242.5 L 90.5 246 L 91.5 244 Q 95.9 245.2 94.5 240 Z " /><path fill="rgb(224,67,62)" stroke="rgb(224,67,62)" stroke-width="0.6" opacity="1" d="M 344.5 243 L 346 245 Q 342.7 243.7 344 248.5 L 342.5 248 Q 339.2 249.1 340 246.5 L 344.5 243 Z " /><path fill="rgb(224,67,62)" stroke="rgb(224,67,62)" stroke-width="0.6" opacity="1" d="M 153.5 244 Q 154.5 247 159.5 246 L 163 244 L 161.5 247 Q 160 244.5 158.5 248 L 153 246 L 153.5 244 Z " /><path fill="rgb(224,67,62)" stroke="rgb(224,67,62)" stroke-width="0.6" opacity="1" d="M 426 245 Q 430.9 243.2 429 249.5 L 431.5 250 L 433 250.5 L 433 252.5 L 434 257.5 L 432.5 258 L 431 253 Q 424.6 255.3 427 247.5 L 426 245 Z " /><path fill="rgb(224,67,62)" stroke="rgb(224,67,62)" stroke-width="0.6" opacity="1" d="M 75.5 249 L 78 250 L 78.5 255 L 80 254.5 L 79.5 257 L 74 254.5 L 73 250 L 75.5 249 Z " /><path fill="rgb(224,67,62)" stroke="rgb(224,67,62)" stroke-width="0.6" opacity="1" d="M 182.5 256 L 188 260.5 L 186.5 262 L 184 263 L 182.5 256 Z " /><path fill="rgb(224,67,62)" stroke="rgb(224,67,62)" stroke-width="0.6" opacity="1" d="M 84.5 260 L 87 261.5 L 88 264.5 L 85.5 268 L 84 267.5 L 86 263 L 83 261.5 L 84.5 260 Z " /><path fill="rgb(224,67,62)" stroke="rgb(224,67,62)" stroke-width="0.6" opacity="1" d="M 250.5 264 L 251 272 L 247 269.5 L 250.5 264 Z " /><path fill="rgb(224,67,62)" stroke="rgb(224,67,62)" stroke-width="0.6" opacity="1" d="M 427 267 L 431 269.5 L 430 274 L 424 271.5 L 428 271 L 427 267 Z " /><path fill="rgb(224,67,62)" stroke="rgb(224,67,62)" stroke-width="0.6" opacity="1" d="M 144.5 273 L 150 275.5 L 149 278.5 L 150.5 281 L 147.5 279 L 142 275.5 L 144.5 273 Z " /><path fill="rgb(224,67,62)" stroke="rgb(224,67,62)" stroke-width="0.6" opacity="1" d="M 208 274 Q 213.4 272.5 215 275.5 L 217 278.5 L 214.5 277 Q 209.3 278.3 208 275.5 L 208 274 Z " /><path fill="rgb(224,67,62)" stroke="rgb(224,67,62)" stroke-width="0.6" opacity="1" d="M 239 275 L 247 279 L 248 282.5 L 247 285 L 244 283.5 L 242.5 281 L 239 279.5 L 240 277.5 L 239 275 Z " /><path fill="rgb(224,67,62)" stroke="rgb(224,67,62)" stroke-width="0.6" opacity="1" d="M 94 276 L 96 277.5 L 97 280 L 102.5 277 Q 106 279 101.5 281 L 98.5 282 L 94 279.5 L 94 276 Z " /><path fill="rgb(224,67,62)" stroke="rgb(224,67,62)" stroke-width="0.6" opacity="1" d="M 369 276 L 371 277.5 L 376 281.5 L 373.5 282 L 372 280.5 L 369 276 Z " /><path fill="rgb(224,67,62)" stroke="rgb(224,67,62)" stroke-width="0.6" opacity="1" d="M 314.5 278 L 318 285 L 315 283.5 L 313 279.5 L 314.5 278 Z " /><path fill="rgb(224,67,62)" stroke="rgb(224,67,62)" stroke-width="0.6" opacity="1" d="M 301 279 L 306 280.5 Q 308.1 286.4 303.5 285 L 301 280.5 L 301 279 Z " /><path fill="rgb(224,67,62)" stroke="rgb(224,67,62)" stroke-width="0.6" opacity="1" d="M 77.5 280 L 79 283.5 L 78 286 L 74.5 285 L 71.5 287 L 70 283 Q 76 284.3 77.5 280 Z " /><path fill="rgb(224,67,62)" stroke="rgb(224,67,62)" stroke-width="0.6" opacity="1" d="M 252.5 300 L 255 301.5 Q 255.8 304.1 252.5 303 L 249.5 309 L 248 303.5 L 252.5 300 Z " /><path fill="rgb(224,67,62)" stroke="rgb(224,67,62)" stroke-width="0.6" opacity="1" d="M 386.5 301 Q 390.3 299.8 389 303.5 L 390 306.5 L 388.5 306 L 386.5 307 L 385 302.5 L 386.5 301 Z " /><path fill="rgb(224,67,62)" stroke="rgb(224,67,62)" stroke-width="0.6" opacity="1" d="M 71.5 310 L 74.5 319 L 78.5 320 L 80 316 Q 85.3 314.2 83 321.5 L 78.5 324 L 79 322.5 Q 79.4 319.3 71.5 321 Q 68 319 70 311.5 L 71.5 310 Z " /><path fill="rgb(224,67,62)" stroke="rgb(224,67,62)" stroke-width="0.6" opacity="1" d="M 117 316 Q 120 314.8 119 318.5 L 123 324.5 L 121 325 L 119.5 322 L 115.5 321 L 112 322 Q 110.5 318.3 113.5 319 L 117 317.5 L 117 316 Z " /><path fill="rgb(224,67,62)" stroke="rgb(224,67,62)" stroke-width="0.6" opacity="1" d="M 363.5 316 L 364 318.5 L 363 327 L 361 326.5 L 361 317 L 363.5 316 Z " /><path fill="rgb(224,67,62)" stroke="rgb(224,67,62)" stroke-width="0.6" opacity="1" d="M 71.5 324 Q 74.8 323.6 73 331.5 L 74 334.5 L 73 343.5 L 74 345.5 L 72.5 345 L 71 343.5 L 70 342.5 L 70 325.5 L 71.5 324 Z " /><path fill="rgb(224,67,62)" stroke="rgb(224,67,62)" stroke-width="0.6" opacity="1" d="M 287.5 333 L 288 335.5 L 286.5 340 Q 282.8 341.3 284 337.5 L 287.5 333 Z " /><path fill="rgb(224,67,62)" stroke="rgb(224,67,62)" stroke-width="0.6" opacity="1" d="M 187.5 334 L 183.5 339 Q 179.1 340.5 180 337.5 L 182.5 335 L 187.5 334 Z " /><path fill="rgb(224,67,62)" stroke="rgb(224,67,62)" stroke-width="0.6" opacity="1" d="M 413 339 L 416.5 340 L 419 339 L 420.5 345 L 422 347 L 419 347 L 417.5 345 L 415 344 Q 416 341 413 342 L 413 339 Z " /><path fill="rgb(224,67,62)" stroke="rgb(224,67,62)" stroke-width="0.6" opacity="1" d="M 189.5 342 L 194 343.5 L 193 349.5 L 190.5 352 L 189 350.5 L 191 345.5 L 189.5 342 Z " /><path fill="rgb(224,67,62)" stroke="rgb(224,67,62)" stroke-width="0.6" opacity="1" d="M 386.5 345 L 391 347.5 Q 389.5 350.5 383.5 349 Q 380.5 347.5 383.5 346 L 386.5 345 Z " /><path fill="rgb(224,67,62)" stroke="rgb(224,67,62)" stroke-width="0.6" opacity="1" d="M 348.5 356 L 351 357.5 L 348.5 361 L 342.5 363 Q 339.5 361.5 342.5 360 L 347 358.5 L 348.5 356 Z " /><path fill="rgb(224,67,62)" stroke="rgb(224,67,62)" stroke-width="0.6" opacity="1" d="M 317.5 362 L 323 366.5 L 317.5 367 L 316 363.5 L 317.5 362 Z " /><path fill="rgb(224,67,62)" stroke="rgb(224,67,62)" stroke-width="0.6" opacity="1" d="M 181 364 Q 186.2 361.9 185 366.5 L 189 372.5 L 185 371.5 Q 187.1 365.6 182.5 367 L 181 364 Z " /><path fill="rgb(224,67,62)" stroke="rgb(224,67,62)" stroke-width="0.6" opacity="1" d="M 112.5 365 L 115 366.5 L 111.5 371 Q 108.5 369.5 111.5 368 L 113 366.5 L 112.5 365 Z " /><path fill="rgb(224,67,62)" stroke="rgb(224,67,62)" stroke-width="0.6" opacity="1" d="M 339 366 L 342 367.5 L 342 370 L 340 371.5 L 338.5 375 Q 335.5 373.4 337 368 Q 340 369 339 366 Z " /><path fill="rgb(224,67,62)" stroke="rgb(224,67,62)" stroke-width="0.6" opacity="1" d="M 441.5 367 L 443 370.5 L 440.5 371 L 437 372 L 438 368 L 441.5 367 Z " /><path fill="rgb(224,67,62)" stroke="rgb(224,67,62)" stroke-width="0.6" opacity="1" d="M 423.5 372 L 425 374.5 L 420.5 377 L 417 376 L 415.5 378 L 418.5 374 L 423.5 372 Z " /><path fill="rgb(224,67,62)" stroke="rgb(224,67,62)" stroke-width="0.6" opacity="1" d="M 316.5 373 L 318 374.5 L 313.5 379 Q 308.5 380.2 311 374 L 316.5 373 Z " /><path fill="rgb(224,67,62)" stroke="rgb(224,67,62)" stroke-width="0.6" opacity="1" d="M 249.5 376 L 252.5 378 L 257.5 376 L 259 379 L 255 379.5 L 256 382.5 L 255 382.5 L 253.5 381 L 249 378 L 249.5 376 Z " /><path fill="rgb(224,67,62)" stroke="rgb(224,67,62)" stroke-width="0.6" opacity="1" d="M 296.5 376 Q 304 374 306 377.5 L 304.5 382 L 301.5 382 L 297 385 L 299 379.5 L 296.5 379 L 293 380 L 294.5 377 L 296.5 376 Z " /><path fill="rgb(224,67,62)" stroke="rgb(224,67,62)" stroke-width="0.6" opacity="1" d="M 373 376 L 379 376 L 379 378.5 L 380 382 Q 373.8 379.5 375 384.5 L 371 386 L 372.5 383 L 375 381.5 L 373 376 Z " /><path fill="rgb(224,67,62)" stroke="rgb(224,67,62)" stroke-width="0.6" opacity="1" d="M 433.5 384 L 440.5 386 L 443 386.5 L 441.5 389 L 437.5 390 L 432 385.5 L 433.5 384 Z " /><path fill="rgb(224,67,62)" stroke="rgb(224,67,62)" stroke-width="0.6" opacity="1" d="M 398.5 388 L 400.5 389 L 402.5 388 L 402 389.5 L 400.5 392 L 396 391.5 L 398.5 388 Z " /><path fill="rgb(224,67,62)" stroke="rgb(224,67,62)" stroke-width="0.6" opacity="1" d="M 255.5 390 Q 258.8 391.8 255 393.5 Q 256.3 398.3 253 397 L 251.5 394 Q 247.1 395.5 248 392.5 L 255.5 390 Z " /><path fill="rgb(224,67,62)" stroke="rgb(224,67,62)" stroke-width="0.6" opacity="1" d="M 421.5 390 Q 426.8 388.8 428 391.5 Q 430 398.4 426 397 L 424.5 392 L 420 391.5 L 421.5 390 Z " /><path fill="rgb(224,67,62)" stroke="rgb(224,67,62)" stroke-width="0.6" opacity="1" d="M 383.5 400 L 386 401.5 Q 381 403.5 384 405.5 Q 385.1 409.7 381 408 Q 380 402.3 383.5 400 Z " /><path fill="rgb(224,67,62)" stroke="rgb(224,67,62)" stroke-width="0.6" opacity="1" d="M 425 404 Q 430.2 401.9 429 406.5 L 427 411.5 L 429 414.5 L 427 415 Q 428.3 412 424.5 413 L 423 413.5 L 425 404 Z " /><path fill="rgb(224,67,62)" stroke="rgb(224,67,62)" stroke-width="0.6" opacity="1" d="M 306.5 412 L 307 413.5 L 304 417.5 L 304.5 419 L 302 417.5 L 306.5 412 Z " /><path fill="rgb(224,67,62)" stroke="rgb(224,67,62)" stroke-width="0.6" opacity="1" d="M 94.5 413 L 93 415.5 Q 93.8 418.9 89 417 Q 90.3 414 86.5 415 L 85 415.5 Q 84.4 412.8 90.5 414 L 92.5 415 L 94.5 413 Z " /><path fill="rgb(224,67,62)" stroke="rgb(224,67,62)" stroke-width="0.6" opacity="1" d="M 124 414 L 128 415.5 L 127 423 Q 121.8 424.8 124 417.5 L 124 415.5 L 124 414 Z " /><path fill="rgb(224,67,62)" stroke="rgb(224,67,62)" stroke-width="0.6" opacity="1" d="M 80 417 L 87 418 L 88 421.5 L 84.5 424 L 81.5 420 Q 78.5 420.7 80 417 Z " /><path fill="rgb(224,67,62)" stroke="rgb(224,67,62)" stroke-width="0.6" opacity="1" d="M 264.5 417 L 272 418 Q 273.7 422.1 269.5 421 L 263 418.5 L 264.5 417 Z " /><path fill="rgb(224,67,62)" stroke="rgb(224,67,62)" stroke-width="0.6" opacity="1" d="M 76 421 Q 79.7 419.5 79 422.5 L 79.5 425 Q 83.3 424 82 427 Q 74 425.7 71 429 Q 69.5 422.6 72.5 423 L 77 425 L 76 421 Z " /><path fill="rgb(224,67,62)" stroke="rgb(224,67,62)" stroke-width="0.6" opacity="1" d="M 278 421 L 282 422 L 281.5 424 L 279.5 424 L 276 426 L 278 421 Z " /><path fill="rgb(224,67,62)" stroke="rgb(224,67,62)" stroke-width="0.6" opacity="1" d="M 97.5 426 L 99 429 L 101 430.5 Q 99.2 434.8 97.5 432 L 94 431 L 97.5 426 Z " /><path fill="rgb(224,67,62)" stroke="rgb(224,67,62)" stroke-width="0.6" opacity="1" d="M 135.5 426 L 140 427.5 L 136 430 L 135.5 432 L 135 430 Q 131.7 431.1 133 427 L 135.5 426 Z " /><path fill="rgb(224,67,62)" stroke="rgb(224,67,62)" stroke-width="0.6" opacity="1" d="M 343 427 L 348 429.5 L 349.5 431 L 349.5 432 L 343 428.5 L 343 427 Z " /><path fill="rgb(224,67,62)" stroke="rgb(224,67,62)" stroke-width="0.6" opacity="1" d="M 126 428 L 128 429.5 L 121.5 433 L 120.5 431 L 126 429.5 L 126 428 Z " /><path fill="rgb(224,67,62)" stroke="rgb(224,67,62)" stroke-width="0.6" opacity="1" d="M 302.5 429 L 305 430.5 L 303.5 433 L 301 433.5 L 299 442 L 296 440.5 Q 300.3 438 299 431 L 302.5 429 Z " /><path fill="rgb(224,67,62)" stroke="rgb(224,67,62)" stroke-width="0.6" opacity="1" d="M 429.5 429 L 430 432 L 422 433 L 423.5 430 L 426.5 431 L 429.5 429 Z " /><path fill="rgb(224,67,62)" stroke="rgb(224,67,62)" stroke-width="0.6" opacity="1" d="M 174.5 430 L 175 432.5 L 178.5 440 L 180 440.5 Q 178.5 443.5 177 440.5 Q 177.8 437.9 174.5 439 L 166 433.5 L 167 431 L 171.5 433 L 174.5 430 Z " /><path fill="rgb(224,67,62)" stroke="rgb(224,67,62)" stroke-width="0.6" opacity="1" d="M 393.5 430 L 395 434 L 398.5 433 L 400 435.5 Q 398.4 438.5 393 437 Q 394.9 441.8 391.5 441 L 386.5 442 L 385.5 440 L 388.5 439 L 390 439.5 L 387 433 L 391.5 435 L 393.5 430 Z " /><path fill="rgb(224,67,62)" stroke="rgb(224,67,62)" stroke-width="0.6" opacity="1" d="M 87.5 431 L 89 434 L 95 433 L 94.5 435 L 92.5 434 L 89.5 439 L 87.5 441 L 80.5 441 L 78 437 Q 80.5 440 87 439 L 86 433.5 L 87.5 431 Z " /><path fill="rgb(224,67,62)" stroke="rgb(224,67,62)" stroke-width="0.6" opacity="1" d="M 188.5 431 Q 189.8 434 194 433 L 195 436.5 L 193 437 L 191.5 435 L 188 433 L 188.5 431 Z " /><path fill="rgb(224,67,62)" stroke="rgb(224,67,62)" stroke-width="0.6" opacity="1" d="M 266.5 431 Q 274.1 429.5 273 433 Q 266.2 432.1 263 435 L 264.5 432 L 266.5 431 Z " /><path fill="rgb(224,67,62)" stroke="rgb(224,67,62)" stroke-width="0.6" opacity="1" d="M 330.5 432 Q 333.8 430.9 333 433.5 L 335 439 L 341 440.5 L 339.5 442 L 330 442 L 331.5 439 Q 334.5 439.9 333 435.5 L 330.5 432 Z " /><path fill="rgb(224,67,62)" stroke="rgb(224,67,62)" stroke-width="0.6" opacity="1" d="M 156.5 433 L 158.5 437 Q 162.3 436 161 439 Q 154.6 437.5 155 440.5 L 152.5 442 L 150.5 441 L 146 442 L 148.5 438 L 151 436.5 Q 150.2 433.9 153.5 435 L 156.5 433 Z " /><path fill="rgb(224,67,62)" stroke="rgb(224,67,62)" stroke-width="0.6" opacity="1" d="M 245.5 433 L 246 435 L 252 435 L 252 437.5 L 249.5 439 L 245 434.5 L 245.5 433 Z " /><path fill="rgb(224,67,62)" stroke="rgb(224,67,62)" stroke-width="0.6" opacity="1" d="M 258.5 433 Q 261.5 432.1 260 436.5 L 259 439.5 L 258.5 442 L 253 440.5 L 257 437.5 L 258.5 433 Z " /><path fill="rgb(224,67,62)" stroke="rgb(224,67,62)" stroke-width="0.6" opacity="1" d="M 319.5 433 L 325.5 437 L 327 436.5 L 326 439 L 320 436 L 319.5 433 Z " /><path fill="rgb(224,67,62)" stroke="rgb(224,67,62)" stroke-width="0.6" opacity="1" d="M 200.5 435 L 203 440.5 L 199.5 442 L 197 440.5 L 200.5 435 Z " /><path fill="rgb(224,67,62)" stroke="rgb(224,67,62)" stroke-width="0.6" opacity="1" d="M 358.5 435 L 360.5 436 L 364 435 L 362.5 437 L 360 438 L 361.5 440 L 360.5 442 Q 354.4 443.3 355 440.5 L 357.5 440 L 359 438.5 Q 355.3 436.8 358.5 435 Z " /><path fill="rgb(224,67,62)" stroke="rgb(224,67,62)" stroke-width="0.6" opacity="1" d="M 102 436 L 111 439 L 109.5 442 Q 104.3 443.3 103 440.5 L 102 436 Z " /><path fill="rgb(224,67,62)" stroke="rgb(224,67,62)" stroke-width="0.6" opacity="1" d="M 373.5 436 L 375.5 437 L 378 436 L 375.5 442 L 370 440.5 L 372.5 439 L 374 439.5 L 373.5 436 Z " /><path fill="rgb(224,67,62)" stroke="rgb(224,67,62)" stroke-width="0.6" opacity="1" d="M 219.5 437 L 223 438.5 L 221.5 442 L 219.5 441 L 216 442 L 219.5 437 Z " /><path fill="rgb(217,65,61)" stroke="rgb(217,65,61)" stroke-width="0.6" opacity="1" d="M 85.5 67 L 427.5 67 Q 436.8 70.2 442 77.5 L 441.5 79 L 443 80.5 L 446 86.5 L 444.5 86 L 441 84.5 L 440 77 L 436 74.5 Q 436.9 71.5 432.5 73 L 428 70.5 L 427.5 68 L 96.5 68 Q 97.3 71.5 91 70 Q 92.4 66 85.5 68 L 85.5 67 Z " /><path fill="rgb(217,65,61)" stroke="rgb(217,65,61)" stroke-width="0.6" opacity="1" d="M 82.5 68 L 84 69.5 L 78.5 74 L 72 76 L 73 79.5 L 69 81 L 70 87.5 L 69 90 L 66.5 91 L 66 89.5 L 67 86.5 L 69 79 Q 72 80.3 71 76.5 L 74 75 L 75.5 73 L 82.5 68 Z " /><path fill="rgb(217,65,61)" stroke="rgb(217,65,61)" stroke-width="0.6" opacity="1" d="M 445.5 89 L 446 91.5 L 446 421.5 L 447 422.5 L 445.5 426 L 444 422.5 L 444 91.5 L 445.5 89 Z " /><path fill="rgb(217,65,61)" stroke="rgb(217,65,61)" stroke-width="0.6" opacity="1" d="M 66.5 143 L 67 162.5 L 66 162.5 L 66.5 143 Z " /><path fill="rgb(217,65,61)" stroke="rgb(217,65,61)" stroke-width="0.6" opacity="1" d="M 66.5 276 L 67 297.5 L 66 297.5 L 66.5 276 Z " /><path fill="rgb(217,65,61)" stroke="rgb(217,65,61)" stroke-width="0.6" opacity="1" d="M 66.5 309 L 67 320.5 L 66 320.5 L 66.5 309 Z " /><path fill="rgb(217,65,61)" stroke="rgb(217,65,61)" stroke-width="0.6" opacity="1" d="M 66.5 413 L 67 415 Q 70.7 413.8 69 419 Q 66 417.8 67 421.5 L 66 421.5 L 66.5 413 Z " /><path fill="rgb(217,65,61)" stroke="rgb(217,65,61)" stroke-width="0.6" opacity="1" d="M 444 427 L 446 427.5 L 440.5 438 Q 437.2 436.9 438 439.5 L 437 442 L 425.5 447 L 423.5 446 L 422.5 447 L 99.5 447 L 96.5 446 L 89.5 447 L 83 446 L 84.5 444 L 86.5 443 L 87.5 444 L 425.5 444 L 431.5 441 L 434 442 L 435.5 439 L 439 435.5 L 442.5 428 L 444 428.5 L 444 427 Z " /><path fill="rgb(217,65,61)" stroke="rgb(217,65,61)" stroke-width="0.6" opacity="1" d="M 70 431 L 75 433.5 L 78 442.5 L 70 435.5 L 69 433.5 L 70 431 Z " /><path fill="rgb(10,11,11)" stroke="rgb(10,11,11)" stroke-width="0.6" opacity="1" d="M 97.5 52 L 414.5 52 L 429 53.5 L 85.5 54 L 85.5 53 L 97.5 52 Z " /><path fill="rgb(10,11,11)" stroke="rgb(10,11,11)" stroke-width="0.6" opacity="1" d="M 79.5 54 L 78.5 56 L 72.5 58 L 72.5 57 L 79.5 54 Z " /><path fill="rgb(10,11,11)" stroke="rgb(10,11,11)" stroke-width="0.6" opacity="1" d="M 431.5 54 L 440 57.5 L 437.5 58 L 432.5 56 L 431.5 54 Z " /><path fill="rgb(10,11,11)" stroke="rgb(10,11,11)" stroke-width="0.6" opacity="1" d="M 443.5 59 L 452.5 69 L 447 65.5 L 443.5 59 Z " /><path fill="rgb(10,11,11)" stroke="rgb(10,11,11)" stroke-width="0.6" opacity="1" d="M 423.5 63 L 426.5 65 L 426.5 66 L 422.5 65 L 90.5 65 L 80.5 68 L 81.5 66 L 88.5 64 L 422.5 64 L 423.5 63 Z " /><path fill="rgb(10,11,11)" stroke="rgb(10,11,11)" stroke-width="0.6" opacity="1" d="M 61.5 66 L 62 68.5 L 55.5 78 L 55 76.5 L 61.5 66 Z " /><path fill="rgb(10,11,11)" stroke="rgb(10,11,11)" stroke-width="0.6" opacity="1" d="M 76.5 69 L 78 69.5 L 69 77.5 L 67.5 81 L 67 79.5 L 69.5 75 L 72 73.5 L 73.5 71 L 76.5 69 Z " /><path fill="rgb(10,11,11)" stroke="rgb(10,11,11)" stroke-width="0.6" opacity="1" d="M 435.5 69 L 443 74 L 444 77.5 L 441 75.5 L 438.5 72 L 435.5 69 Z " /><path fill="rgb(10,11,11)" stroke="rgb(10,11,11)" stroke-width="0.6" opacity="1" d="M 456.5 75 L 460 85.5 L 458 84.5 L 456.5 75 Z " /><path fill="rgb(10,11,11)" stroke="rgb(10,11,11)" stroke-width="0.6" opacity="1" d="M 447.5 86 L 449 88.5 L 449 424.5 L 447 425.5 L 448 424.5 L 448 89.5 L 447.5 86 Z " /><path fill="rgb(10,11,11)" stroke="rgb(10,11,11)" stroke-width="0.6" opacity="1" d="M 64.5 88 L 65 91.5 L 64 92.5 L 64 421.5 L 67 431.5 L 65 430.5 L 63 422.5 L 63 90.5 L 64.5 88 Z " /><path fill="rgb(10,11,11)" stroke="rgb(10,11,11)" stroke-width="0.6" opacity="1" d="M 53.5 427 L 54 429 L 56 430.5 L 55 434.5 L 59 442.5 L 58 442.5 L 53 431.5 L 53.5 427 Z " /><path fill="rgb(10,11,11)" stroke="rgb(10,11,11)" stroke-width="0.6" opacity="1" d="M 442.5 437 L 442 438.5 L 440.5 442 L 436.5 444 L 442.5 437 Z " /><path fill="rgb(10,11,11)" stroke="rgb(10,11,11)" stroke-width="0.6" opacity="1" d="M 59.5 444 L 69.5 453 L 73 454 L 71.5 456 L 59.5 444 Z " /><path fill="rgb(10,11,11)" stroke="rgb(10,11,11)" stroke-width="0.6" opacity="1" d="M 82.5 446 Q 86.1 449.9 95 448.5 L 85.5 449 L 82.5 446 Z " /><path fill="rgb(10,11,11)" stroke="rgb(10,11,11)" stroke-width="0.6" opacity="1" d="M 427.5 447 L 429 447.5 L 427.5 449 L 100.5 449 L 100.5 448 L 426.5 448 L 427.5 447 Z " /><path fill="rgb(10,11,11)" stroke="rgb(10,11,11)" stroke-width="0.6" opacity="1" d="M 446.5 449 L 449 449.5 L 443.5 454 L 443 452.5 L 446.5 449 Z " /><path fill="rgb(28,34,34)" stroke="rgb(28,34,34)" stroke-width="0.6" opacity="1" d="M 90.5 65 L 423 65.5 L 90.5 66 L 90.5 65 Z " /><path fill="rgb(28,34,34)" stroke="rgb(28,34,34)" stroke-width="0.6" opacity="1" d="M 460.5 90 L 461 422.5 L 460 422.5 L 460.5 90 Z " /><path fill="rgb(28,34,34)" stroke="rgb(28,34,34)" stroke-width="0.6" opacity="1" d="M 64.5 92 L 65 421.5 L 64 421.5 L 64.5 92 Z " /><path fill="rgb(28,34,34)" stroke="rgb(28,34,34)" stroke-width="0.6" opacity="1" d="M 60.5 446 L 65.5 452 L 60.5 446 Z " /><path fill="rgb(95,88,84)" stroke="rgb(95,88,84)" stroke-width="0.6" opacity="1" d="M 447.5 90 L 448 422.5 L 447 422.5 L 447.5 90 Z " /><path fill="rgb(204,203,204)" stroke="rgb(204,203,204)" stroke-width="0.6" opacity="1" d="M 461.5 90 L 462 422.5 L 461 422.5 L 461.5 90 Z " /><path fill="rgb(135,136,135)" stroke="rgb(135,136,135)" stroke-width="0.6" opacity="1" d="M 51.5 92 L 52 422.5 L 51 422.5 L 51.5 92 Z " /><path fill="rgb(166,167,167)" stroke="rgb(166,167,167)" stroke-width="0.6" opacity="1" d="M 90.5 461 L 423 461.5 L 90.5 462 L 90.5 461 Z " /><path fill="rgb(111,52,50)" stroke="rgb(111,52,50)" stroke-width="0.6" opacity="1" d="M 99.5 447 L 423 447.5 L 99.5 448 L 99.5 447 Z " /><path fill="rgb(175,62,58)" stroke="rgb(175,62,58)" stroke-width="0.6" opacity="1" d="M 89.5 66 L 424 66.5 L 89.5 67 L 89.5 66 Z " /><path fill="rgb(159,61,55)" stroke="rgb(159,61,55)" stroke-width="0.6" opacity="1" d="M 65.5 91 L 66 421.5 L 65 421.5 L 65.5 91 Z " /><path fill="rgb(213,89,85)" stroke="rgb(213,89,85)" stroke-width="0.6" opacity="1" d="M 446.5 91 L 447 421.5 L 446 421.5 L 446.5 91 Z " /><path fill="rgb(190,191,190)" stroke="rgb(190,191,190)" stroke-width="0.6" opacity="1" d="M 91.5 51 L 418 51.5 L 91.5 52 L 91.5 51 Z " /></svg>