<svg width="627" height="627" preserveAspectRatio="xMidYMid meet" viewBox="0 0 512 512" version="1.1" xmlns="http://www.w3.org/2000/svg" ><path fill="rgb(255,255,255)" stroke="rgb(255,255,255)" stroke-width="0.6" opacity="1" d="M 0 0 L 512 0 L 512 512 L 0 512 L 0 0 Z M 251 67 L 249 68 L 238 81 L 193 161 L 54 394 L 42 415 L 39 424 Q 38 433 42 438 Q 46 444 54 446 L 459 446 L 465 444 Q 472 440 474 431 Q 475 420 471 415 Q 369 248 273 76 L 263 67 L 251 67 Z " /><path fill="rgb(224,68,63)" stroke="rgb(224,68,63)" stroke-width="0.6" opacity="1" d="M 256.5 81 L 261 83.5 Q 356.6 253.9 457 419.5 L 459 428.5 L 455.5 432 L 58.5 432 L 54 428.5 L 54 424.5 L 89 362.5 L 207 165.5 L 249 90.5 L 256.5 81 Z " /><path fill="rgb(0,0,0)" stroke="rgb(0,0,0)" stroke-width="0.6" opacity="1" d="M 253.5 67 L 260.5 67 L 272 75.5 Q 368.8 248.7 471 416.5 Q 474.3 421.2 473 430.5 L 465.5 442 L 455.5 446 L 57.5 446 Q 48.5 444.5 44 438.5 Q 38.7 433.8 40 422.5 L 54 395.5 L 193 162.5 L 238 82.5 L 249.5 69 L 253.5 67 Z M 257 80 L 249 89 L 207 164 L 85 368 L 54 423 L 53 430 L 57 432 L 458 432 L 460 429 L 459 422 L 454 413 Q 356 250 262 84 L 257 80 Z " /></svg>