<svg width="627" height="627" preserveAspectRatio="xMidYMid meet" viewBox="0 0 512 512" version="1.1" xmlns="http://www.w3.org/2000/svg" ><path fill="rgb(254,254,254)" stroke="rgb(254,254,254)" stroke-width="0.6" opacity="1" d="M 0 0 L 512 0 L 512 512 L 0 512 L 0 0 Z M 253 67 L 249 69 L 240 79 L 66 375 L 40 422 Q 39 432 43 438 Q 47 444 57 446 L 457 446 L 465 443 Q 471 439 473 432 Q 475 420 470 415 L 271 74 Q 267 65 253 67 Z " /><path fill="rgb(224,67,62)" stroke="rgb(224,67,62)" stroke-width="0.6" opacity="1" d="M 257.5 84 L 260 91 L 251 95 L 255 85 L 257.5 84 Z " /><path fill="rgb(224,67,62)" stroke="rgb(224,67,62)" stroke-width="0.6" opacity="1" d="M 265.5 98 L 271 106.5 L 271 112.5 L 274 119 Q 278.7 118 280 121.5 L 285 132.5 L 283 135.5 L 285 138.5 L 283 143 L 287.5 140 L 291 140 L 293 144.5 L 293 149.5 L 292 154.5 L 293.5 154 Q 299.6 152.8 299 155.5 L 302 161.5 L 301 166.5 L 308 169.5 Q 311.3 174.2 310 183.5 L 311.5 185 L 314.5 184 Q 318.9 186.1 318 192 Q 315 191 316 194 L 325 199.5 L 327 202.5 L 325 207.5 L 327 211 L 330.5 210 L 335 218 L 332 219.5 L 341 226.5 L 344 231.5 L 343 236.5 L 346 240.5 Q 344.3 243.8 342.5 240 Q 339.2 238.9 340 241.5 L 341.5 243 L 349.5 244 L 353 247.5 L 353 250 L 355 251.5 L 357 256.5 L 356 258.5 L 357 262 L 352.5 260 L 352 261.5 L 355.5 269 L 357 268.5 L 356 266.5 L 360.5 263 L 363 264 L 365 268.5 L 365 275.5 L 364 277.5 L 365 280.5 L 363 281.5 L 362.5 278 L 361 282 Q 357.2 280.5 358 283.5 L 362.5 286 L 368 282.5 L 369.5 279 L 371 280.5 L 375 288.5 Q 371.5 290 374 291.5 L 375.5 296 L 381 297.5 L 382.5 299 L 391.5 319 L 398 323.5 L 401 334.5 L 403.5 337 L 406 338.5 L 412.5 353 L 415 354.5 L 417 360.5 L 416 363.5 L 426 370 L 427 376.5 L 425 381 L 429 382.5 L 430.5 385 Q 433.8 383.9 433 386.5 L 436 389.5 L 438 400 Q 443.5 399.3 445 404.5 L 447 412.5 L 445 415.5 L 447 418.5 L 443 421.5 L 444 426 L 449 425 L 448 420.5 L 452.5 419 L 456 423.5 L 451 426.5 L 449.5 429 L 429.5 428 L 421.5 429 L 418.5 428 L 415.5 429 L 412.5 428 L 411.5 429 L 383.5 429 L 380.5 428 L 376.5 429 L 374.5 428 L 373.5 429 L 334.5 429 L 332.5 428 L 331.5 429 L 308.5 429 L 306.5 428 L 298.5 429 L 296.5 428 L 295.5 429 L 279.5 429 L 277.5 428 L 276.5 429 L 262.5 429 L 260.5 428 L 249.5 429 L 246.5 428 L 245.5 429 L 199.5 429 L 196.5 428 L 187.5 429 L 185.5 428 L 172.5 429 L 168.5 428 L 163.5 429 L 161.5 428 L 158.5 429 L 156.5 428 L 151.5 429 L 146.5 428 L 145.5 429 L 110.5 429 L 108.5 428 L 107.5 429 L 89.5 429 L 79.5 428 L 76.5 429 L 59.5 429 L 57 428 L 56.5 426 L 55 426.5 Q 53.9 423.2 56.5 424 L 58 421 L 65.5 423 L 69 420.5 L 69 417.5 L 64 410.5 L 87 374.5 L 87 372.5 L 97 354 L 101 351.5 Q 108.6 331.6 121 316.5 Q 118 314.5 123 312.5 L 129.5 300 L 131 298.5 L 137 287 L 141 285.5 L 140 281.5 L 145 274 L 151 270.5 L 149 266.5 L 157.5 255 L 160.5 254 L 165 256 L 163.5 251 L 161 249.5 Q 160.7 239.7 167.5 237 L 172 236 L 171 230.5 L 177.5 219 L 180 217.5 L 182 215.5 L 182 209.5 L 188 206 L 189 198.5 L 193.5 193 L 195 194.5 L 196.5 194 Q 200.3 195 199 192 Q 195.5 193.1 197 185.5 L 200 181 L 203 179.5 L 208 167 L 212 165.5 L 213 161.5 L 212 159.5 L 216.5 153 L 220 154.5 L 222.5 158 L 223 155.5 L 220 145.5 L 227 137.5 L 227 135 L 231 133.5 L 230 129.5 L 234 127.5 L 232 124.5 L 236.5 119 L 241 116.5 L 242 112.5 L 241 110.5 L 247.5 100 L 252 101 Q 250.8 98 254.5 99 L 261.5 101 L 265.5 98 Z M 256 106 L 253 112 L 254 114 L 256 113 L 260 114 L 261 110 L 256 106 Z M 250 109 L 246 114 L 244 113 L 243 115 L 245 116 L 243 119 L 245 120 L 244 123 L 250 125 Q 251 122 248 123 L 247 119 Q 244 116 249 113 L 250 115 L 252 118 L 253 113 L 251 113 L 253 110 L 250 109 Z M 277 122 L 273 123 L 273 125 L 269 124 L 268 127 L 267 128 L 267 129 L 268 131 L 274 130 Q 272 125 276 126 Q 280 124 277 122 Z M 269 154 L 270 162 L 274 163 L 271 159 L 271 156 L 269 154 Z M 229 156 L 227 158 L 232 163 Q 235 164 233 160 L 229 156 Z M 250 162 L 246 169 L 249 169 L 251 165 Q 252 161 250 162 Z M 289 168 L 287 171 L 283 174 L 285 178 Q 289 179 287 174 L 292 170 L 289 168 Z M 267 183 L 264 186 L 263 187 L 264 189 L 269 189 L 267 183 Z M 294 186 L 292 188 L 293 196 L 296 197 L 295 194 L 296 191 Q 298 185 294 186 Z M 214 195 L 212 198 L 218 200 Q 220 201 219 198 L 214 195 Z M 310 196 L 308 200 L 306 199 L 302 200 Q 297 203 298 206 Q 297 209 300 208 Q 304 206 301 205 L 304 203 L 306 207 L 307 203 L 314 200 L 310 196 Z M 246 199 L 242 202 L 241 204 L 247 203 Q 248 206 250 204 L 254 205 L 255 203 L 255 200 L 250 202 L 248 200 L 246 199 Z M 282 203 L 273 204 L 271 210 Q 277 212 275 206 L 286 207 L 287 204 L 282 203 Z M 204 206 L 201 211 Q 200 213 204 212 Q 205 208 207 211 Q 211 212 209 208 Q 205 209 204 206 Z M 222 210 L 219 217 L 219 218 L 223 216 L 222 210 Z M 260 214 L 258 218 Q 262 217 264 220 Q 267 221 265 217 L 260 214 Z M 185 215 L 185 221 L 189 222 Q 194 224 193 220 L 187 218 Q 188 214 185 215 Z M 278 224 L 278 227 L 283 230 L 285 226 L 283 227 L 278 224 Z M 216 226 Q 211 228 215 230 Q 218 229 216 233 L 219 232 L 217 229 Q 218 225 216 226 Z M 273 229 L 267 232 L 268 234 L 274 234 L 273 229 Z M 313 231 L 312 234 L 314 234 L 316 234 L 319 235 L 320 232 L 313 231 Z M 178 232 L 175 235 L 174 234 L 173 234 L 175 237 L 179 235 Q 180 231 178 232 Z M 285 243 L 284 244 Q 278 243 281 249 L 283 248 L 287 245 Q 288 242 285 243 Z M 302 244 L 298 248 L 299 250 L 296 257 L 299 258 L 302 253 L 301 250 L 302 248 L 306 250 L 308 249 L 308 246 L 303 246 L 302 244 Z M 201 251 L 201 253 L 204 254 L 206 257 Q 209 255 205 254 Q 206 249 201 251 Z M 190 252 L 191 255 L 190 262 L 191 263 L 193 262 L 194 253 L 196 253 L 190 252 Z M 333 253 L 333 257 Q 331 262 335 261 L 337 255 L 333 253 Z M 253 258 L 252 261 L 253 266 L 256 262 L 255 260 L 253 258 Z M 165 260 L 163 261 L 162 264 L 168 265 L 169 261 L 165 260 Z M 179 271 L 175 274 L 178 277 L 178 276 Q 179 273 185 274 L 187 274 L 179 271 Z M 313 271 L 310 272 L 309 277 L 311 279 Q 317 280 316 278 L 313 276 L 313 271 Z M 271 280 Q 272 286 268 289 L 270 288 L 273 286 L 274 284 L 273 282 L 271 280 Z M 235 282 Q 232 287 236 289 Q 239 290 238 287 L 242 287 L 242 284 L 239 286 L 239 285 L 235 282 Z M 191 289 Q 191 294 186 292 L 188 297 L 189 295 L 194 294 L 191 289 Z M 159 290 L 158 292 L 163 296 L 166 295 L 159 290 Z M 272 291 Q 270 294 265 293 L 264 297 L 256 302 L 258 303 L 258 306 L 257 308 L 259 308 L 261 304 L 259 304 L 260 301 Q 267 300 271 295 L 273 293 L 272 291 Z M 155 294 L 153 299 Q 156 300 155 297 L 158 298 L 159 297 L 155 294 Z M 151 300 L 151 302 L 149 303 L 147 306 L 153 304 Q 154 299 151 300 Z M 268 302 L 268 306 L 263 309 Q 261 314 265 313 L 268 309 L 270 307 L 271 305 L 268 302 Z M 298 304 L 295 308 L 297 310 L 298 310 L 297 307 L 300 306 L 298 304 Z M 273 314 L 274 318 L 279 320 L 282 322 L 284 316 L 283 314 L 273 314 Z M 349 314 L 349 316 L 343 317 L 344 319 L 353 319 L 354 316 L 349 314 Z M 304 316 L 302 317 L 298 322 L 299 323 L 306 318 Q 307 315 304 316 Z M 215 320 L 214 323 L 213 324 L 211 327 Q 216 328 217 324 Q 218 319 215 320 Z M 216 330 L 214 332 Q 209 331 211 335 L 215 337 L 217 338 L 216 334 L 216 332 L 216 330 Z M 308 335 L 303 336 L 304 339 L 306 340 L 307 341 L 310 338 Q 311 334 308 335 Z M 265 336 Q 263 340 268 339 L 269 342 L 272 343 L 268 338 Q 269 334 265 336 Z M 346 336 L 343 339 L 341 341 L 348 338 Q 349 335 346 336 Z M 182 342 L 178 344 Q 175 346 178 347 L 183 346 L 182 342 Z M 323 346 L 321 349 L 320 351 L 323 349 L 325 350 Q 328 351 327 349 L 323 346 Z M 276 350 L 276 352 L 285 353 L 285 350 L 276 350 Z M 200 354 L 198 360 L 201 360 Q 203 361 202 358 L 202 356 Q 203 353 200 354 Z M 353 358 Q 354 362 351 364 Q 350 368 353 367 L 355 364 L 357 366 Q 356 369 362 367 L 364 364 L 363 361 L 361 359 L 360 364 L 357 360 L 353 358 Z M 280 360 L 278 362 L 281 363 L 279 369 L 285 367 L 286 365 Q 289 363 285 362 Q 286 359 280 360 Z M 344 361 L 345 364 L 344 369 L 346 370 L 347 367 L 346 363 L 344 361 Z M 153 363 L 153 368 Q 156 369 155 365 Q 158 364 157 368 L 160 367 L 159 364 L 153 363 Z M 357 372 Q 354 374 357 375 Q 361 374 359 379 L 360 381 Q 364 380 363 375 Q 362 371 357 372 Z M 205 374 L 203 380 L 206 381 L 208 376 L 205 374 Z M 348 377 Q 343 379 347 381 Q 355 384 353 378 L 348 377 Z M 255 378 L 254 379 Q 249 378 250 381 L 256 384 L 257 380 Q 258 377 255 378 Z M 378 384 L 376 389 L 381 388 L 382 389 L 384 387 L 384 384 L 383 386 L 378 384 Z M 337 386 L 336 390 Q 332 389 333 392 L 337 393 L 338 390 L 341 389 L 342 387 L 337 386 Z M 385 386 L 383 391 L 385 393 L 390 392 Q 391 388 387 390 L 387 386 L 385 386 Z M 282 394 L 279 396 Q 276 398 279 399 L 284 398 L 283 397 Q 284 393 282 394 Z M 393 395 L 391 396 L 389 396 L 388 398 L 395 399 L 395 397 Q 396 394 393 395 Z M 434 397 L 435 402 L 439 404 L 436 399 L 434 397 Z M 74 404 L 73 407 L 75 411 L 77 412 Q 78 408 75 407 L 76 405 L 74 404 Z " /><path fill="rgb(2,1,1)" stroke="rgb(2,1,1)" stroke-width="0.6" opacity="1" d="M 255 69 L 259 69 Q 257.8 72 261.5 71 L 264.5 70 L 270.5 79 L 273 80.5 Q 272.3 84.5 275 83.5 L 275 87.5 L 278.5 93 Q 282.7 91.7 281 96.5 L 286.5 108 L 289 107 L 289 111 L 291 112.5 Q 294 113.8 293 118 Q 296 116.8 295 120.5 L 298.5 128 Q 301.8 126.9 301 129.5 Q 304 130.8 303 135 L 305 135.5 L 305 137.5 L 307.5 142 L 309 143.5 L 312 147.5 L 311 149.5 L 315 152.5 L 315 155 L 317 155 Q 315.5 158.8 318.5 158 L 320 162.5 L 320.5 165 L 323 165 L 323 169 L 325 169 L 325 173 L 327 174.5 L 328 179.5 L 330.5 182 Q 333.8 180.9 333 183.5 L 335 186.5 L 335 188.5 L 336 191.5 L 335 193.5 Q 336.3 197 341 196 L 343 204 L 345 205.5 Q 342.5 207 346 208.5 L 347.5 211 L 349 212.5 Q 352 213.8 351 218 L 353 218.5 L 352 220.5 L 353 223 L 356 224.5 L 359 229.5 L 358.5 231 Q 361.8 229.9 361 232.5 L 363 236.5 L 362 238.5 L 365 244 L 369 245.5 L 371.5 252 L 373 253.5 Q 370.5 255 374 256.5 L 375.5 260 L 379 262.5 L 378 264.5 L 381 266 L 380 268.5 L 382 273 L 384 274.5 L 387 276 L 393 290 Q 396 288.8 395 292.5 L 403 307 L 405 308.5 L 417 331 Q 420 329.8 419 333.5 L 422 341 Q 426.1 339.3 425 343.5 L 431 355 L 433 356.5 L 435 359.5 L 434 361.5 L 438.5 367 Q 441.5 366.1 440 370.5 L 444 372 Q 442.3 379.1 446.5 381 L 449 382.5 Q 447.9 385.8 450.5 385 Q 454.8 388.9 454 397 L 456 398.5 L 461 405 L 464 406.5 L 466 411.5 L 465 414.5 L 468 420 L 472 422.5 L 471 427.5 L 472 429.5 L 469 436 L 462 440.5 L 460.5 443 L 54.5 443 L 49 441 L 45.5 434 Q 40.7 435.7 42 431.5 Q 45.8 429.8 44 422.5 L 43 419.5 L 46 418 L 48 412.5 L 49 410.5 L 48 408.5 L 51 407 L 56.5 397 L 58 395.5 L 63.5 383 L 67 378.5 L 69.5 374 Q 72.5 374.9 71 370.5 L 86 348.5 L 85 346 L 87 344.5 L 88 341 L 92 338.5 L 95 329 L 98 327.5 L 101 319 Q 104 320.3 103 316.5 L 109.5 306 L 112 304.5 L 129 271 L 132 269.5 L 135 264.5 L 134 262.5 L 139 256.5 L 139 254 L 144 251.5 L 145 244 L 147 242.5 L 149.5 238 L 152 236.5 L 155 228 L 157 226.5 L 156 224.5 L 159 223 Q 157.5 219.2 160.5 220 Q 165.9 217.2 165 209 L 168 207.5 L 169.5 205 L 171 203.5 L 175 193 L 179 191.5 L 181 182 L 183 180.5 L 187 179 L 188 173.5 L 188 171.5 L 188 169 Q 192.1 170.7 191 166.5 L 195 163.5 L 197 155.5 L 201.5 150 L 204 148.5 L 205 141 L 208.5 139 L 212.5 131 Q 215.5 131.9 214 127.5 L 218 124.5 L 221 115 L 224 113.5 L 226 109.5 L 225.5 108 L 227 106.5 L 229.5 101 L 232 99.5 Q 231 95.8 234 97 L 234 93.5 L 235 91 L 238 89.5 L 239 84 L 241 82.5 L 242 79 L 248 78 L 247 74.5 L 250 70 L 255 71 L 255 69 Z M 255 77 L 255 80 L 251 81 L 247 90 L 246 91 L 243 96 Q 244 99 241 98 L 233 114 L 231 115 Q 232 119 229 121 L 227 122 L 221 136 L 216 141 Q 215 150 209 154 L 209 156 L 204 163 L 201 167 L 200 170 L 196 178 L 194 180 L 191 181 L 190 184 L 191 186 L 190 187 L 189 190 L 188 192 L 185 192 Q 187 198 183 197 L 183 201 L 177 207 L 177 211 L 170 221 L 168 222 L 169 224 L 165 230 L 163 235 L 161 235 L 153 251 Q 150 250 151 255 L 149 255 L 145 263 Q 146 267 143 266 L 143 269 L 137 276 L 137 279 L 134 280 L 133 284 L 132 285 L 131 288 L 123 301 Q 124 304 122 303 L 119 307 Q 120 310 117 309 L 111 323 L 108 324 L 97 347 L 94 348 L 92 352 L 90 353 L 91 356 L 89 361 L 85 363 L 83 368 Q 84 371 81 370 L 77 379 L 75 380 L 71 391 L 68 392 L 65 398 L 64 399 L 56 416 L 54 418 Q 50 419 53 421 L 51 424 Q 50 431 54 434 Q 59 432 58 436 Q 61 437 60 434 Q 63 433 62 436 L 186 436 L 186 434 Q 189 433 188 436 L 227 436 L 227 434 Q 230 433 229 436 L 318 436 L 318 434 Q 322 433 321 436 Q 325 437 324 434 Q 327 433 326 436 L 384 436 L 384 434 Q 390 432 389 436 L 399 436 L 399 434 Q 402 433 401 436 L 408 436 L 408 434 Q 411 433 410 436 L 413 436 L 414 434 L 414 436 L 447 436 L 447 434 Q 453 432 452 436 Q 458 438 456 433 L 460 432 L 463 424 L 461 417 L 457 415 L 451 407 L 452 402 L 445 396 Q 446 392 443 393 L 440 382 L 437 381 L 435 379 L 434 375 Q 429 373 432 371 L 431 367 L 429 365 Q 422 361 421 351 L 419 350 L 412 339 Q 413 335 411 336 L 400 318 L 399 316 L 389 301 L 390 298 L 387 296 L 386 292 L 383 292 Q 385 287 381 288 L 379 284 L 379 279 L 375 276 L 373 273 L 371 271 L 370 267 L 371 265 L 370 262 L 368 260 L 365 260 Q 366 256 363 257 L 361 252 L 361 250 L 358 244 L 354 240 L 352 235 L 349 233 L 350 230 L 348 227 L 345 225 L 341 219 L 342 217 L 339 215 L 340 213 L 333 204 Q 336 202 332 201 Q 333 196 331 197 L 328 193 L 325 191 L 324 185 L 319 181 L 320 179 L 319 178 L 314 171 Q 315 166 312 167 Q 313 161 307 160 L 307 157 L 307 155 L 306 153 L 299 146 L 298 142 Q 299 137 295 139 L 292 129 L 288 126 Q 284 123 284 116 L 275 103 L 273 101 L 273 95 Q 269 97 270 93 L 267 91 L 264 84 L 265 82 L 263 81 Q 259 82 260 80 L 255 77 Z " /><path fill="rgb(221,67,62)" stroke="rgb(221,67,62)" stroke-width="0.6" opacity="1" d="M 255.5 81 Q 261.3 80.3 262 84.5 L 337 213.5 L 339 219.5 L 377 282.5 L 379 288.5 L 401 323.5 L 406 335 L 408 336.5 L 439 388.5 L 441 394.5 L 458 420.5 L 459 427.5 L 456.5 431 L 454.5 432 L 453.5 431 L 56.5 431 L 54 428.5 L 54 422.5 L 63 406.5 L 71 395.5 L 94 353.5 L 98 349.5 L 107 331.5 L 255.5 81 Z M 258 84 L 255 85 L 251 95 L 260 91 L 258 84 Z M 266 98 L 262 101 L 255 99 Q 251 98 252 101 L 248 100 L 241 111 L 242 113 L 241 117 L 237 119 L 232 125 L 234 128 L 230 130 L 231 134 L 227 135 L 227 138 L 220 146 L 223 156 L 223 158 L 220 155 L 217 153 L 212 160 L 213 162 L 212 166 L 208 167 L 203 180 L 200 181 L 197 186 Q 195 193 199 192 Q 200 195 197 194 L 195 195 L 194 193 L 189 199 L 188 206 L 182 210 L 182 216 L 180 218 L 180 220 L 178 219 L 171 231 L 172 236 L 168 237 Q 161 240 161 250 L 164 251 L 165 256 L 161 254 L 158 255 L 149 267 L 151 271 L 145 274 L 140 282 L 141 286 L 137 287 L 131 299 L 130 300 L 123 313 Q 118 315 121 317 Q 109 332 101 352 L 97 354 L 87 373 L 87 375 L 64 411 L 69 418 L 69 421 L 66 423 L 58 421 L 57 424 Q 54 423 55 427 L 57 426 L 57 428 L 60 429 L 77 429 L 80 428 L 90 429 L 108 429 L 109 428 L 111 429 L 146 429 L 147 428 L 152 429 L 157 428 L 159 429 L 162 428 L 164 429 L 169 428 L 173 429 L 186 428 L 188 429 L 197 428 L 200 429 L 246 429 L 247 428 L 250 429 L 261 428 L 263 429 L 277 429 L 278 428 L 280 429 L 296 429 L 297 428 L 299 429 L 307 428 L 309 429 L 332 429 L 333 428 L 335 429 L 374 429 L 375 428 L 377 429 L 381 428 L 384 429 L 412 429 L 413 428 L 416 429 L 419 428 L 422 429 L 430 428 L 450 429 L 451 427 L 456 424 L 453 419 L 448 421 L 449 425 L 444 426 L 443 422 L 447 419 L 445 416 L 447 413 L 445 405 Q 444 399 438 400 L 439 403 L 438 404 L 434 397 L 436 399 L 438 400 L 436 390 L 433 387 Q 434 384 431 385 L 429 383 L 425 381 L 427 377 L 426 370 L 416 364 L 417 361 L 415 355 L 413 353 L 406 339 L 404 337 L 401 335 L 398 324 L 392 319 L 383 299 L 381 298 L 376 296 L 374 292 Q 372 290 375 289 L 371 281 L 370 279 L 368 283 L 363 286 L 358 284 Q 357 280 361 282 L 363 278 L 363 282 L 365 281 L 364 278 L 365 276 L 365 269 L 363 264 L 361 263 L 356 267 L 357 269 L 356 269 L 352 261 L 352 259 L 357 262 L 356 259 L 357 257 L 355 252 L 353 250 L 353 248 L 350 244 L 342 243 L 340 242 L 338 240 L 339 238 L 343 240 Q 344 244 346 241 L 343 237 L 344 232 L 341 227 L 332 220 L 335 218 L 331 210 L 327 211 L 325 208 L 327 203 L 325 200 L 316 194 Q 315 191 318 192 Q 319 186 315 184 L 312 185 L 310 184 Q 311 174 308 170 L 301 167 L 302 162 L 299 156 Q 300 153 294 154 L 292 155 L 293 150 L 293 145 L 291 140 L 288 140 L 283 143 L 285 139 L 284 136 L 283 139 L 280 138 L 282 137 L 285 133 L 280 122 Q 279 118 274 119 L 271 113 L 271 107 L 266 98 Z " /><path fill="rgb(221,67,62)" stroke="rgb(221,67,62)" stroke-width="0.6" opacity="1" d="M 255.5 106 L 261 109.5 L 259.5 114 L 255.5 113 L 254 113.5 L 253 111.5 L 255.5 106 Z " /><path fill="rgb(221,67,62)" stroke="rgb(221,67,62)" stroke-width="0.6" opacity="1" d="M 249.5 109 L 253 109.5 L 251 112.5 L 253 113 L 251.5 118 L 250 114.5 L 248.5 113 Q 244.1 115.8 247 118.5 L 248 123 L 250 124.5 L 250.5 126 L 244 123 L 245 119.5 L 243 119 L 245 115.5 L 243 115 L 243.5 113 L 246 114 L 249.5 109 Z " /><path fill="rgb(221,67,62)" stroke="rgb(221,67,62)" stroke-width="0.6" opacity="1" d="M 276.5 122 Q 280 124 275.5 126 Q 272.5 125.1 274 129.5 L 268 131 L 266.5 129 L 266.5 128 L 268 126.5 L 269 124 L 272.5 125 L 273 123 L 276.5 122 Z " /><path fill="rgb(221,67,62)" stroke="rgb(221,67,62)" stroke-width="0.6" opacity="1" d="M 267.5 153 L 271 155.5 L 271 158.5 L 274 163 L 270 161.5 L 267.5 153 Z " /><path fill="rgb(221,67,62)" stroke="rgb(221,67,62)" stroke-width="0.6" opacity="1" d="M 228.5 156 L 233 159.5 Q 234.5 163.9 231.5 163 L 227 157.5 L 228.5 156 Z " /><path fill="rgb(221,67,62)" stroke="rgb(221,67,62)" stroke-width="0.6" opacity="1" d="M 249.5 162 Q 252.1 161.2 251 164.5 L 248.5 169 L 246 168.5 L 249.5 162 Z " /><path fill="rgb(221,67,62)" stroke="rgb(221,67,62)" stroke-width="0.6" opacity="1" d="M 288.5 168 L 292 169.5 L 287 173.5 Q 288.7 179.3 285 178 L 283 173.5 L 287 170.5 L 288.5 168 Z " /><path fill="rgb(221,67,62)" stroke="rgb(221,67,62)" stroke-width="0.6" opacity="1" d="M 279.5 180 L 282 181.5 L 278 182 Q 279.5 186.5 275 185 L 276.5 182 L 279.5 180 Z " /><path fill="rgb(221,67,62)" stroke="rgb(221,67,62)" stroke-width="0.6" opacity="1" d="M 266.5 183 L 269 188.5 L 263.5 189 L 262.5 187 L 264 185.5 L 266.5 183 Z " /><path fill="rgb(221,67,62)" stroke="rgb(221,67,62)" stroke-width="0.6" opacity="1" d="M 293.5 186 Q 298.1 184.7 296 190.5 L 295 193.5 L 296 197 L 293 195.5 L 292 187.5 L 293.5 186 Z " /><path fill="rgb(221,67,62)" stroke="rgb(221,67,62)" stroke-width="0.6" opacity="1" d="M 249.5 194 L 251 200 L 256 201.5 L 253.5 205 L 249.5 204 Q 248 206.5 246.5 203 L 240.5 204 L 241.5 202 L 245.5 199 L 248 200 L 249.5 194 Z " /><path fill="rgb(221,67,62)" stroke="rgb(221,67,62)" stroke-width="0.6" opacity="1" d="M 213.5 195 L 219 197.5 Q 220.1 200.8 217.5 200 L 212 198 L 213.5 195 Z " /><path fill="rgb(221,67,62)" stroke="rgb(221,67,62)" stroke-width="0.6" opacity="1" d="M 309.5 196 L 314 199.5 L 307 203 L 305.5 207 L 303.5 203 L 301 204.5 Q 303.8 206.2 299.5 208 Q 296.9 208.8 298 205.5 Q 297 202.8 301.5 200 L 305.5 199 L 307.5 200 L 309.5 196 Z " /><path fill="rgb(221,67,62)" stroke="rgb(221,67,62)" stroke-width="0.6" opacity="1" d="M 281.5 203 L 287 204 L 285.5 207 L 275 206 L 275 210 Q 270.2 208.1 271 211.5 L 265.5 214 L 268.5 210 Q 273.1 211.3 271 205.5 L 272.5 204 L 281.5 203 Z " /><path fill="rgb(221,67,62)" stroke="rgb(221,67,62)" stroke-width="0.6" opacity="1" d="M 203.5 206 Q 204.8 209 209 208 Q 210.7 212.1 206.5 211 Q 205 208.5 203.5 212 Q 200.2 213.1 201 210.5 L 203.5 206 Z " /><path fill="rgb(221,67,62)" stroke="rgb(221,67,62)" stroke-width="0.6" opacity="1" d="M 221.5 210 L 223 215.5 L 218.5 218 L 219 216.5 L 221.5 210 Z " /><path fill="rgb(221,67,62)" stroke="rgb(221,67,62)" stroke-width="0.6" opacity="1" d="M 259.5 214 L 265 217 Q 266.5 220.8 263.5 220 Q 262.3 217 258 218 L 259.5 214 Z " /><path fill="rgb(221,67,62)" stroke="rgb(221,67,62)" stroke-width="0.6" opacity="1" d="M 185 215 Q 188 213.8 187 217.5 L 193 220 Q 194.3 223.7 188.5 222 L 185 221 L 185 215 Z " /><path fill="rgb(221,67,62)" stroke="rgb(221,67,62)" stroke-width="0.6" opacity="1" d="M 271.5 215 L 273 216.5 Q 269.1 218.8 272.5 221 L 268 217.5 Q 267.2 214.9 270.5 216 L 271.5 215 Z " /><path fill="rgb(221,67,62)" stroke="rgb(221,67,62)" stroke-width="0.6" opacity="1" d="M 278 224 L 282.5 227 L 285 226 L 282.5 230 L 278 226.5 L 278 224 Z " /><path fill="rgb(221,67,62)" stroke="rgb(221,67,62)" stroke-width="0.6" opacity="1" d="M 215.5 226 Q 218.1 225.2 217 228.5 L 219 231.5 L 216 233 Q 217.5 229.2 214.5 230 Q 211 228 215.5 226 Z " /><path fill="rgb(221,67,62)" stroke="rgb(221,67,62)" stroke-width="0.6" opacity="1" d="M 203.5 229 L 205 232 L 209 233.5 Q 210.5 237.9 207.5 237 L 205 236 L 205 232 Q 201.2 233.5 202 230.5 L 203.5 229 Z " /><path fill="rgb(221,67,62)" stroke="rgb(221,67,62)" stroke-width="0.6" opacity="1" d="M 272.5 229 L 274 234 L 267.5 234 L 267 232 L 272.5 229 Z " /><path fill="rgb(221,67,62)" stroke="rgb(221,67,62)" stroke-width="0.6" opacity="1" d="M 313 231 L 320 232 L 318.5 235 L 315.5 234 L 313.5 234 L 312 233.5 L 313 231 Z " /><path fill="rgb(221,67,62)" stroke="rgb(221,67,62)" stroke-width="0.6" opacity="1" d="M 177.5 232 Q 180.1 231.2 179 234.5 L 174.5 237 L 173 233.5 L 174 233.5 L 174.5 235 L 177.5 232 Z " /><path fill="rgb(221,67,62)" stroke="rgb(221,67,62)" stroke-width="0.6" opacity="1" d="M 284.5 243 Q 287.8 241.9 287 244.5 L 283 247.5 L 281 249 Q 278.5 242.7 283.5 244 L 284.5 243 Z " /><path fill="rgb(221,67,62)" stroke="rgb(221,67,62)" stroke-width="0.6" opacity="1" d="M 301.5 244 L 303 246 L 308 246 L 308 248.5 L 305.5 250 L 302 247.5 L 301 249.5 L 302 252.5 L 298.5 258 L 296 256.5 L 299 249.5 L 298 247.5 L 301.5 244 Z " /><path fill="rgb(221,67,62)" stroke="rgb(221,67,62)" stroke-width="0.6" opacity="1" d="M 199.5 249 Q 200.8 252 205 251 L 207 255.5 Q 205.5 258.5 204 255.5 L 202.5 254 L 201 251 Q 197.8 252 199.5 249 Z " /><path fill="rgb(221,67,62)" stroke="rgb(221,67,62)" stroke-width="0.6" opacity="1" d="M 190 252 L 196 252.5 L 194 253 L 193 262 L 190.5 263 L 190 261.5 L 191 254.5 L 190 252 Z " /><path fill="rgb(221,67,62)" stroke="rgb(221,67,62)" stroke-width="0.6" opacity="1" d="M 332.5 253 L 337 255 L 334.5 261 Q 331.1 261.9 333 256.5 L 332.5 253 Z " /><path fill="rgb(221,67,62)" stroke="rgb(221,67,62)" stroke-width="0.6" opacity="1" d="M 253 258 L 255 259.5 L 256 261.5 L 252.5 266 L 252 260.5 L 253 258 Z " /><path fill="rgb(221,67,62)" stroke="rgb(221,67,62)" stroke-width="0.6" opacity="1" d="M 164.5 260 L 169 261 L 167.5 265 L 162 263.5 L 162.5 261 L 164.5 260 Z " /><path fill="rgb(221,67,62)" stroke="rgb(221,67,62)" stroke-width="0.6" opacity="1" d="M 239.5 264 L 245 267.5 L 244 272 L 241 272 L 241 266.5 Q 237.9 267.1 239.5 264 Z " /><path fill="rgb(221,67,62)" stroke="rgb(221,67,62)" stroke-width="0.6" opacity="1" d="M 257.5 267 L 260 268.5 L 262.5 272 Q 265.5 271.1 264 275.5 L 260 272.5 L 260.5 271 L 256 268.5 L 257.5 267 Z " /><path fill="rgb(221,67,62)" stroke="rgb(221,67,62)" stroke-width="0.6" opacity="1" d="M 349 269 L 351 269.5 L 346.5 275 L 345 274.5 L 349 269 Z " /><path fill="rgb(221,67,62)" stroke="rgb(221,67,62)" stroke-width="0.6" opacity="1" d="M 178.5 271 L 187 273.5 L 184.5 274 Q 179.3 272.8 178 275.5 L 177.5 277 L 175 273.5 L 178.5 271 Z " /><path fill="rgb(221,67,62)" stroke="rgb(221,67,62)" stroke-width="0.6" opacity="1" d="M 312.5 271 L 313 276 L 316 277.5 Q 316.6 280.3 310.5 279 L 309 276.5 L 310 272 L 312.5 271 Z " /><path fill="rgb(221,67,62)" stroke="rgb(221,67,62)" stroke-width="0.6" opacity="1" d="M 271 280 L 273 281.5 L 274 283.5 L 273 286 L 269.5 288 L 266.5 290 L 264 289 L 265 293 Q 270.7 293.8 273 291 L 271 294.5 Q 267.4 300.4 260 301 L 259 303.5 L 261 304 L 259 308 L 256.5 308 L 258 305.5 L 258 303 L 256 301.5 L 264 296.5 L 265 293 L 261.5 294 L 258 289.5 L 261.5 290 L 265.5 288 L 268 289 L 271 284.5 L 271 280 Z " /><path fill="rgb(221,67,62)" stroke="rgb(221,67,62)" stroke-width="0.6" opacity="1" d="M 234.5 282 L 240.5 285 L 242 284.5 L 242 287 L 238 287 Q 239.3 290 235.5 289 Q 232.4 287.4 234.5 282 Z " /><path fill="rgb(221,67,62)" stroke="rgb(221,67,62)" stroke-width="0.6" opacity="1" d="M 176.5 287 L 175 289.5 L 176 293.5 L 174.5 293 L 173 294.5 L 169.5 297 L 168 294 L 173 293 L 172 288.5 L 173.5 289 L 176.5 287 Z " /><path fill="rgb(221,67,62)" stroke="rgb(221,67,62)" stroke-width="0.6" opacity="1" d="M 190.5 289 L 194 293.5 L 189 295 L 187.5 297 L 186 292 Q 191.3 293.9 190.5 289 Z " /><path fill="rgb(221,67,62)" stroke="rgb(221,67,62)" stroke-width="0.6" opacity="1" d="M 158.5 290 L 166 294.5 L 162.5 296 L 158 291.5 L 158.5 290 Z " /><path fill="rgb(221,67,62)" stroke="rgb(221,67,62)" stroke-width="0.6" opacity="1" d="M 154.5 294 L 159 296.5 L 157.5 298 L 155 297 Q 156 300 153 299 L 154.5 294 Z " /><path fill="rgb(221,67,62)" stroke="rgb(221,67,62)" stroke-width="0.6" opacity="1" d="M 368.5 298 L 369 303 Q 372.8 304.5 372 301.5 Q 373.5 298.5 375 301.5 L 372 303 L 370.5 306 Q 367.9 306.8 369 303.5 L 367 299.5 L 368.5 298 Z " /><path fill="rgb(221,67,62)" stroke="rgb(221,67,62)" stroke-width="0.6" opacity="1" d="M 151 300 Q 154.3 298.7 153 303.5 L 147 306 L 148.5 303 L 151 301.5 L 151 300 Z " /><path fill="rgb(221,67,62)" stroke="rgb(221,67,62)" stroke-width="0.6" opacity="1" d="M 322.5 300 L 324 303 L 327 304.5 L 324 306 Q 325.5 302.3 322.5 303 Q 319.5 301.5 322.5 300 Z " /><path fill="rgb(221,67,62)" stroke="rgb(221,67,62)" stroke-width="0.6" opacity="1" d="M 267.5 302 L 271 304.5 L 269.5 307 L 268 308.5 L 264.5 313 Q 261.1 313.8 263 309 L 268 305.5 L 267.5 302 Z " /><path fill="rgb(221,67,62)" stroke="rgb(221,67,62)" stroke-width="0.6" opacity="1" d="M 297.5 304 L 300 305.5 L 297 307 L 298 309.5 L 296.5 310 L 295 307.5 L 297.5 304 Z " /><path fill="rgb(221,67,62)" stroke="rgb(221,67,62)" stroke-width="0.6" opacity="1" d="M 273 314 L 282.5 314 L 284 315.5 L 281.5 322 L 278.5 320 L 274 317.5 L 273 314 Z " /><path fill="rgb(221,67,62)" stroke="rgb(221,67,62)" stroke-width="0.6" opacity="1" d="M 349 314 L 354 315.5 L 352.5 319 L 343.5 319 L 343 317 L 349 315.5 L 349 314 Z " /><path fill="rgb(221,67,62)" stroke="rgb(221,67,62)" stroke-width="0.6" opacity="1" d="M 303.5 316 Q 306.8 314.9 306 317.5 L 298.5 323 L 298 321.5 L 301.5 317 L 303.5 316 Z " /><path fill="rgb(221,67,62)" stroke="rgb(221,67,62)" stroke-width="0.6" opacity="1" d="M 215 320 Q 218.3 318.7 217 323.5 Q 215.7 327.7 211 327 L 212.5 324 L 214 322.5 L 215 320 Z " /><path fill="rgb(221,67,62)" stroke="rgb(221,67,62)" stroke-width="0.6" opacity="1" d="M 180 330 L 183 331.5 Q 181.5 335.9 184.5 335 L 183.5 337 L 183 335 L 180 333.5 L 180 330 Z " /><path fill="rgb(221,67,62)" stroke="rgb(221,67,62)" stroke-width="0.6" opacity="1" d="M 215.5 330 L 216 331.5 L 216 333.5 L 217 338 L 215 336.5 L 211 335 Q 209.3 330.9 213.5 332 L 215.5 330 Z " /><path fill="rgb(221,67,62)" stroke="rgb(221,67,62)" stroke-width="0.6" opacity="1" d="M 307.5 335 Q 311.3 333.8 310 337.5 L 306.5 341 L 305.5 340 L 304 338.5 L 303 336 L 307.5 335 Z " /><path fill="rgb(221,67,62)" stroke="rgb(221,67,62)" stroke-width="0.6" opacity="1" d="M 265 336 Q 268.8 334.5 268 337.5 L 272 343 L 269 341.5 L 267.5 339 Q 263.3 340.1 265 336 Z " /><path fill="rgb(221,67,62)" stroke="rgb(221,67,62)" stroke-width="0.6" opacity="1" d="M 345.5 336 Q 348.8 334.9 348 337.5 L 341 341 L 342.5 339 L 345.5 336 Z " /><path fill="rgb(221,67,62)" stroke="rgb(221,67,62)" stroke-width="0.6" opacity="1" d="M 244.5 341 L 246 341.5 L 244 342 L 247 347.5 L 246 347.5 L 244.5 346 Q 239.5 343.5 244.5 341 Z " /><path fill="rgb(221,67,62)" stroke="rgb(221,67,62)" stroke-width="0.6" opacity="1" d="M 181.5 342 L 183 345.5 L 177.5 347 Q 174.5 345.5 177.5 344 L 181.5 342 Z " /><path fill="rgb(221,67,62)" stroke="rgb(221,67,62)" stroke-width="0.6" opacity="1" d="M 256.5 342 L 256 343.5 L 254.5 349 L 252 347.5 L 254 343 L 256.5 342 Z " /><path fill="rgb(221,67,62)" stroke="rgb(221,67,62)" stroke-width="0.6" opacity="1" d="M 322.5 346 L 327 348.5 Q 327.8 351.1 324.5 350 L 322.5 349 L 319.5 351 L 321 348.5 L 322.5 346 Z " /><path fill="rgb(221,67,62)" stroke="rgb(221,67,62)" stroke-width="0.6" opacity="1" d="M 276 350 L 284.5 350 L 285 352.5 L 287 355.5 L 285 354.5 Q 285.5 351.5 278.5 353 L 276 352 L 276 350 Z " /><path fill="rgb(221,67,62)" stroke="rgb(221,67,62)" stroke-width="0.6" opacity="1" d="M 199.5 354 Q 202.8 352.9 202 355.5 L 202 357.5 Q 203.1 360.8 200.5 360 L 198 359.5 L 199.5 354 Z " /><path fill="rgb(221,67,62)" stroke="rgb(221,67,62)" stroke-width="0.6" opacity="1" d="M 353 358 L 357 359.5 L 359.5 364 L 361 359 L 363 360.5 L 364 363.5 L 361.5 367 Q 356.1 368.9 357 365.5 L 354.5 364 L 353 367 Q 349.7 368.3 351 363.5 Q 354 362.3 353 358 Z " /><path fill="rgb(221,67,62)" stroke="rgb(221,67,62)" stroke-width="0.6" opacity="1" d="M 279.5 360 Q 285.6 358.8 285 361.5 Q 288.5 363 286 364.5 L 284.5 367 L 279 369 L 281 363 L 278 361.5 L 279.5 360 Z " /><path fill="rgb(221,67,62)" stroke="rgb(221,67,62)" stroke-width="0.6" opacity="1" d="M 344 361 L 346 362.5 L 347 366.5 L 346 370 L 344 368.5 L 345 363.5 L 344 361 Z " /><path fill="rgb(221,67,62)" stroke="rgb(221,67,62)" stroke-width="0.6" opacity="1" d="M 153 363 L 159 364 L 160 366.5 L 157 368 Q 158 371 155 370 Q 156 367 153 368 L 153 363 Z " /><path fill="rgb(221,67,62)" stroke="rgb(221,67,62)" stroke-width="0.6" opacity="1" d="M 356.5 372 Q 362 371 363 374.5 Q 363.8 380.3 359.5 381 L 359 378.5 Q 360.7 373.7 356.5 375 Q 353.5 373.5 356.5 372 Z " /><path fill="rgb(221,67,62)" stroke="rgb(221,67,62)" stroke-width="0.6" opacity="1" d="M 205 374 L 208 375.5 L 205.5 381 L 203 379.5 L 205 374 Z " /><path fill="rgb(221,67,62)" stroke="rgb(221,67,62)" stroke-width="0.6" opacity="1" d="M 313.5 376 Q 316.9 375.1 315 380.5 L 317.5 384 L 314.5 382 L 312 377.5 L 313.5 376 Z " /><path fill="rgb(221,67,62)" stroke="rgb(221,67,62)" stroke-width="0.6" opacity="1" d="M 347.5 377 L 352.5 378 L 354 377.5 L 353 381 Q 346.9 382.7 345 379.5 L 347.5 377 Z " /><path fill="rgb(221,67,62)" stroke="rgb(221,67,62)" stroke-width="0.6" opacity="1" d="M 254.5 378 Q 257.8 376.9 257 379.5 L 256 384 L 250 381 Q 248.7 377.7 253.5 379 L 254.5 378 Z " /><path fill="rgb(221,67,62)" stroke="rgb(221,67,62)" stroke-width="0.6" opacity="1" d="M 377.5 384 L 383 386 L 383.5 384 L 384 387 L 382 388.5 L 380.5 388 L 376 389 L 377.5 384 Z " /><path fill="rgb(221,67,62)" stroke="rgb(221,67,62)" stroke-width="0.6" opacity="1" d="M 337 386 L 342 387 L 340.5 389 L 338 390 L 336.5 393 L 333 391.5 Q 332.2 388.9 335.5 390 L 337 386 Z " /><path fill="rgb(221,67,62)" stroke="rgb(221,67,62)" stroke-width="0.6" opacity="1" d="M 385 386 L 387 386 L 387 390 Q 390.8 388.5 390 391.5 L 384.5 393 L 383 390.5 L 385 386 Z " /><path fill="rgb(221,67,62)" stroke="rgb(221,67,62)" stroke-width="0.6" opacity="1" d="M 191.5 391 L 194 394.5 L 192 398 L 186 400 L 187.5 398 Q 189.8 393.8 192 395.5 L 191.5 391 Z " /><path fill="rgb(221,67,62)" stroke="rgb(221,67,62)" stroke-width="0.6" opacity="1" d="M 281.5 394 Q 284.1 393.2 283 396.5 L 283.5 398 L 278.5 399 Q 275.5 397.5 278.5 396 L 281.5 394 Z " /><path fill="rgb(221,67,62)" stroke="rgb(221,67,62)" stroke-width="0.6" opacity="1" d="M 392.5 395 Q 395.8 393.9 395 396.5 L 394.5 399 L 388 398 L 388.5 396 L 390.5 396 L 392.5 395 Z " /><path fill="rgb(221,67,62)" stroke="rgb(221,67,62)" stroke-width="0.6" opacity="1" d="M 76.5 403 L 75 405.5 L 77 412 L 75 410.5 L 73 406.5 L 74 404 L 76.5 403 Z " /><path fill="rgb(7,7,7)" stroke="rgb(7,7,7)" stroke-width="0.6" opacity="1" d="M 252.5 68 Q 260.7 66.3 264 69.5 L 259 71 Q 260.2 67.3 255 69 L 253.5 71 L 250 70 L 247 74.5 L 248 78 L 242 79 L 241 84 Q 238 82.8 239 86.5 L 236.5 91 L 235 92.5 L 234 97 Q 231 95.8 232 99.5 L 228.5 102 L 229 100.5 L 242 77.5 L 248.5 70 L 252.5 68 Z " /><path fill="rgb(7,7,7)" stroke="rgb(7,7,7)" stroke-width="0.6" opacity="1" d="M 265.5 70 L 275 82.5 L 273 83 L 271.5 79 L 268 76.5 Q 268.5 70.8 265.5 70 Z " /><path fill="rgb(7,7,7)" stroke="rgb(7,7,7)" stroke-width="0.6" opacity="1" d="M 263.5 80 L 264 82.5 L 267 89.5 L 265 88.5 L 261 81.5 L 263.5 80 Z " /><path fill="rgb(7,7,7)" stroke="rgb(7,7,7)" stroke-width="0.6" opacity="1" d="M 251 81 L 253 81.5 L 231.5 118 L 231 115 L 233 113.5 L 241 98 Q 244 99.3 243 95.5 L 245.5 91 L 247 89.5 L 251 81 Z " /><path fill="rgb(7,7,7)" stroke="rgb(7,7,7)" stroke-width="0.6" opacity="1" d="M 275.5 84 L 281 92.5 L 278.5 93 L 275 87.5 L 275.5 84 Z " /><path fill="rgb(7,7,7)" stroke="rgb(7,7,7)" stroke-width="0.6" opacity="1" d="M 267.5 91 L 270 92.5 Q 268.9 96.7 273 95 L 273 100.5 L 275 102.5 L 284 115.5 L 285 120.5 L 283 119.5 L 267.5 91 Z " /><path fill="rgb(7,7,7)" stroke="rgb(7,7,7)" stroke-width="0.6" opacity="1" d="M 281.5 94 L 289 106.5 L 286.5 108 L 281 96.5 L 281.5 94 Z " /><path fill="rgb(7,7,7)" stroke="rgb(7,7,7)" stroke-width="0.6" opacity="1" d="M 227.5 103 L 228 105.5 L 227 108 L 225 108.5 Q 227.5 110 224 111.5 L 222.5 115 Q 219.9 114.2 221 117.5 L 216.5 126 L 214 127.5 Q 215.5 131.9 212.5 131 L 208.5 139 L 205.5 141 L 207 138.5 L 227.5 103 Z " /><path fill="rgb(7,7,7)" stroke="rgb(7,7,7)" stroke-width="0.6" opacity="1" d="M 293.5 115 L 303 130.5 L 301 129.5 Q 301.8 126.9 298.5 128 L 295 118 Q 291.5 119.1 293.5 115 Z " /><path fill="rgb(7,7,7)" stroke="rgb(7,7,7)" stroke-width="0.6" opacity="1" d="M 230.5 119 L 230 120.5 L 197.5 176 L 197 173.5 L 200 169.5 L 200.5 167 L 203.5 163 L 209 155.5 L 209 153.5 Q 215.1 149.6 216 140.5 L 221 135.5 L 227 122 L 229 120.5 L 230.5 119 Z " /><path fill="rgb(7,7,7)" stroke="rgb(7,7,7)" stroke-width="0.6" opacity="1" d="M 285.5 122 L 288 126 L 292 128.5 L 295 139 Q 299.1 137.3 298 141.5 L 299 145.5 L 305.5 153 L 307 154.5 L 307 156.5 L 306.5 159 L 285 123.5 L 285.5 122 Z " /><path fill="rgb(7,7,7)" stroke="rgb(7,7,7)" stroke-width="0.6" opacity="1" d="M 303.5 132 L 317 154.5 L 315 155 L 313.5 151 L 311 149.5 L 312 147.5 L 309 142 L 306 140.5 L 304 136.5 L 304.5 135 Q 301.4 135.7 303.5 132 Z " /><path fill="rgb(7,7,7)" stroke="rgb(7,7,7)" stroke-width="0.6" opacity="1" d="M 204.5 142 L 205 144.5 L 202.5 150 L 199 152.5 L 197.5 155 L 198 153.5 L 204.5 142 Z " /><path fill="rgb(7,7,7)" stroke="rgb(7,7,7)" stroke-width="0.6" opacity="1" d="M 196.5 156 L 197 159.5 L 193.5 165 L 191 166.5 Q 192.1 169.8 189.5 169 L 190 167.5 L 196.5 156 Z " /><path fill="rgb(7,7,7)" stroke="rgb(7,7,7)" stroke-width="0.6" opacity="1" d="M 307.5 160 Q 312.8 161.5 312 167 Q 315.3 165.7 314 170.5 L 318.5 178 L 320 178.5 Q 318.5 181.5 317 178.5 L 307.5 160 Z " /><path fill="rgb(7,7,7)" stroke="rgb(7,7,7)" stroke-width="0.6" opacity="1" d="M 325.5 170 L 332 182 L 328 179.5 L 327 173 Q 323.5 174.1 325.5 170 Z " /><path fill="rgb(7,7,7)" stroke="rgb(7,7,7)" stroke-width="0.6" opacity="1" d="M 186 173 L 188 173.5 L 187 179 L 183 180.5 L 181.5 182 L 182 180.5 L 186 173 Z " /><path fill="rgb(7,7,7)" stroke="rgb(7,7,7)" stroke-width="0.6" opacity="1" d="M 196.5 177 L 196 178.5 L 189.5 190 Q 186.5 188.5 189.5 187 L 191 185.5 L 190 183.5 L 191 181 L 194 179.5 L 195.5 178 L 196.5 177 Z " /><path fill="rgb(7,7,7)" stroke="rgb(7,7,7)" stroke-width="0.6" opacity="1" d="M 319.5 181 L 324 184.5 L 325 191 L 328 192.5 L 330.5 197 Q 333.5 196.1 332 200.5 Q 335.8 202.3 332.5 204 L 319.5 181 Z " /><path fill="rgb(7,7,7)" stroke="rgb(7,7,7)" stroke-width="0.6" opacity="1" d="M 180.5 183 L 181 184.5 L 177.5 193 Q 174.2 191.9 175 194.5 L 171 205 L 168 206.5 L 166.5 209 L 165 208.5 L 180.5 183 Z " /><path fill="rgb(7,7,7)" stroke="rgb(7,7,7)" stroke-width="0.6" opacity="1" d="M 334.5 187 L 336 188.5 L 341 195.5 L 337.5 196 L 335 192.5 L 336 190.5 L 334.5 187 Z " /><path fill="rgb(7,7,7)" stroke="rgb(7,7,7)" stroke-width="0.6" opacity="1" d="M 188.5 191 L 188 192.5 L 183.5 200 L 183 197 Q 187 198.2 185 192 L 187.5 192 L 188.5 191 Z " /><path fill="rgb(7,7,7)" stroke="rgb(7,7,7)" stroke-width="0.6" opacity="1" d="M 342.5 199 L 361 230.5 L 358.5 231 L 359 229.5 L 354.5 223 L 353 221.5 L 352 219.5 L 352.5 218 Q 349.5 218.9 351 214.5 L 349 211 L 346 209.5 L 344 206.5 L 345 204 L 343 202.5 L 342.5 199 Z " /><path fill="rgb(7,7,7)" stroke="rgb(7,7,7)" stroke-width="0.6" opacity="1" d="M 182.5 201 L 182 202.5 L 177.5 210 L 177 206.5 L 182.5 201 Z " /><path fill="rgb(7,7,7)" stroke="rgb(7,7,7)" stroke-width="0.6" opacity="1" d="M 333.5 205 L 340 212.5 L 339 215 L 342 216.5 Q 340.5 219.5 339 216.5 L 333.5 205 Z " /><path fill="rgb(7,7,7)" stroke="rgb(7,7,7)" stroke-width="0.6" opacity="1" d="M 164.5 210 L 165 213.5 L 160.5 220 L 157.5 223 L 156 223.5 L 164.5 210 Z " /><path fill="rgb(7,7,7)" stroke="rgb(7,7,7)" stroke-width="0.6" opacity="1" d="M 176.5 211 L 176 212.5 L 167.5 227 L 166 226.5 L 169 222.5 L 168.5 221 L 170 219.5 L 176.5 211 Z " /><path fill="rgb(7,7,7)" stroke="rgb(7,7,7)" stroke-width="0.6" opacity="1" d="M 341.5 219 L 345 225 L 348 226.5 L 350 229.5 L 348.5 232 L 341.5 219 Z " /><path fill="rgb(7,7,7)" stroke="rgb(7,7,7)" stroke-width="0.6" opacity="1" d="M 155.5 225 L 157 228 Q 153.7 226.7 155 231.5 L 150.5 238 L 148 239.5 L 147 244 Q 143.7 242.7 145 247.5 L 142.5 253 L 139 254 L 139 256.5 L 134.5 262 L 135 260.5 L 155.5 225 Z " /><path fill="rgb(7,7,7)" stroke="rgb(7,7,7)" stroke-width="0.6" opacity="1" d="M 361.5 232 L 379 261.5 L 376.5 260 L 374 258.5 L 372 254.5 L 373 252 L 370 250.5 L 367.5 244 Q 364.2 245.1 365 242.5 L 362 237.5 L 363 235.5 L 361.5 232 Z " /><path fill="rgb(7,7,7)" stroke="rgb(7,7,7)" stroke-width="0.6" opacity="1" d="M 160.5 235 L 163 235.5 L 157.5 244 L 157 242.5 L 160.5 235 Z " /><path fill="rgb(7,7,7)" stroke="rgb(7,7,7)" stroke-width="0.6" opacity="1" d="M 353.5 240 L 358 243.5 L 361 249.5 L 361 251.5 L 363 255.5 L 361 254.5 L 353.5 240 Z " /><path fill="rgb(7,7,7)" stroke="rgb(7,7,7)" stroke-width="0.6" opacity="1" d="M 153.5 250 L 153 251.5 L 145.5 265 L 145 262.5 L 148.5 255 L 151 254.5 Q 149.5 250.1 152.5 251 L 153.5 250 Z " /><path fill="rgb(7,7,7)" stroke="rgb(7,7,7)" stroke-width="0.6" opacity="1" d="M 363.5 257 Q 366.1 256.2 365 259.5 L 367.5 260 L 370 261.5 L 371 264.5 L 370 266.5 L 371 269.5 L 370 269.5 L 363.5 257 Z " /><path fill="rgb(7,7,7)" stroke="rgb(7,7,7)" stroke-width="0.6" opacity="1" d="M 133.5 263 L 135 265.5 L 130.5 271 L 129 272.5 L 110.5 306 L 108 307.5 L 103 319 Q 100 317.8 101 321.5 L 96.5 329 L 95 330.5 L 89.5 341 Q 86.9 340.2 88 343.5 L 87 346 L 85 347.5 L 86 349.5 L 74 365.5 L 71 374 L 68 375.5 L 67 380 L 65 380 Q 66.5 383.8 63.5 383 L 62 383.5 L 133.5 263 Z " /><path fill="rgb(7,7,7)" stroke="rgb(7,7,7)" stroke-width="0.6" opacity="1" d="M 379.5 263 L 443 372 L 440 370.5 Q 441.5 366.1 438.5 367 L 434 360.5 L 435 358.5 L 433 355 L 431 353.5 Q 424.9 349.8 425 341 Q 420.9 342.7 422 338.5 L 419 331 Q 416 332.3 417 328.5 L 412 322.5 L 405 307 Q 402 308.3 403 304.5 L 398 299.5 L 395 290 L 393 288.5 L 390 285.5 L 387 276 L 384 274.5 L 382 271.5 L 380 268.5 L 381 266 L 378 264.5 L 379.5 263 Z " /><path fill="rgb(7,7,7)" stroke="rgb(7,7,7)" stroke-width="0.6" opacity="1" d="M 142.5 269 L 142 270.5 L 137.5 278 L 137 275.5 L 142.5 269 Z " /><path fill="rgb(7,7,7)" stroke="rgb(7,7,7)" stroke-width="0.6" opacity="1" d="M 371.5 271 L 373 272.5 L 375 276 L 379 278.5 L 378.5 283 L 371.5 271 Z " /><path fill="rgb(7,7,7)" stroke="rgb(7,7,7)" stroke-width="0.6" opacity="1" d="M 136.5 279 L 135 281.5 L 129.5 292 L 129 290.5 L 131 287.5 L 131.5 285 L 133 283.5 L 134 280 L 136.5 279 Z " /><path fill="rgb(7,7,7)" stroke="rgb(7,7,7)" stroke-width="0.6" opacity="1" d="M 384 292 L 387 293.5 Q 385.9 296.8 388.5 296 L 390 298.5 L 389 300.5 L 391 303.5 L 390 303.5 L 384 292 Z " /><path fill="rgb(7,7,7)" stroke="rgb(7,7,7)" stroke-width="0.6" opacity="1" d="M 121.5 303 L 123 303.5 L 111.5 322 L 111 320.5 Q 116 316.3 117 309 Q 120 310.3 119 306.5 L 121.5 303 Z " /><path fill="rgb(7,7,7)" stroke="rgb(7,7,7)" stroke-width="0.6" opacity="1" d="M 391.5 305 L 397 313.5 L 396 313.5 L 391.5 305 Z " /><path fill="rgb(7,7,7)" stroke="rgb(7,7,7)" stroke-width="0.6" opacity="1" d="M 397.5 315 L 400 316 L 410.5 336 Q 413.1 335.2 412 338.5 L 417 347.5 L 415 346.5 L 397.5 315 Z " /><path fill="rgb(7,7,7)" stroke="rgb(7,7,7)" stroke-width="0.6" opacity="1" d="M 110.5 323 L 110 324.5 L 97.5 346 L 97 344.5 L 105 332.5 L 108 324 L 110.5 323 Z " /><path fill="rgb(7,7,7)" stroke="rgb(7,7,7)" stroke-width="0.6" opacity="1" d="M 96.5 347 L 96 348.5 L 91.5 356 L 90 353 L 92 351.5 L 94 348 L 96.5 347 Z " /><path fill="rgb(7,7,7)" stroke="rgb(7,7,7)" stroke-width="0.6" opacity="1" d="M 417.5 349 L 421 350.5 Q 420.2 355.8 423 357.5 L 421 356.5 L 417.5 349 Z " /><path fill="rgb(7,7,7)" stroke="rgb(7,7,7)" stroke-width="0.6" opacity="1" d="M 423.5 359 L 428.5 365 L 431 366.5 L 432 370.5 Q 429 372.5 434 374.5 L 435 379 L 437 380.5 L 440 382 L 443 393 Q 446 391.8 445 395.5 L 452 401.5 L 451 406.5 L 453 409.5 L 452 409.5 L 423.5 359 Z " /><path fill="rgb(7,7,7)" stroke="rgb(7,7,7)" stroke-width="0.6" opacity="1" d="M 88.5 361 L 87 363.5 L 71.5 390 L 71 388.5 L 75 380 L 77 378.5 L 81 370 Q 84 371.3 83 367.5 L 85 363 L 88.5 361 Z " /><path fill="rgb(7,7,7)" stroke="rgb(7,7,7)" stroke-width="0.6" opacity="1" d="M 444.5 374 L 451 384.5 L 449 385 L 447.5 381 L 444 378.5 L 444.5 374 Z " /><path fill="rgb(7,7,7)" stroke="rgb(7,7,7)" stroke-width="0.6" opacity="1" d="M 60.5 387 L 61 388.5 L 58 397 L 54 399.5 L 51 407 L 48.5 408 L 50 405.5 L 60.5 387 Z " /><path fill="rgb(7,7,7)" stroke="rgb(7,7,7)" stroke-width="0.6" opacity="1" d="M 453.5 389 L 463 404.5 L 461 405 L 456 397 Q 452.3 398.4 454 392.5 L 453.5 389 Z " /><path fill="rgb(7,7,7)" stroke="rgb(7,7,7)" stroke-width="0.6" opacity="1" d="M 70.5 391 L 70 392.5 L 54 419.5 L 52 426.5 L 55.5 432 L 57.5 433 L 455.5 433 L 460 429.5 L 460.5 428 L 461 429.5 L 460 432 L 456 433 Q 457.6 437.9 452 436 Q 453.2 432 447 434 L 446.5 436 L 414 436 L 413.5 434 L 413 436 L 410 436 Q 411 433 408 434 L 407.5 436 L 401 436 Q 402 433 399 434 L 398.5 436 L 389 436 Q 390.2 432 384 434 L 383.5 436 L 326 436 Q 327 433 324 434 Q 325.1 437.3 321 436 Q 322.1 432.7 318 434 L 317.5 436 L 229 436 Q 230 433 227 434 L 226.5 436 L 188 436 Q 189 433 186 434 L 185.5 436 L 62 436 Q 63 433 60 434 Q 61 437 58 436 Q 59.4 432.3 53.5 434 Q 50.2 430.8 51 423.5 L 53 420.5 Q 50.5 419 54 417.5 L 55.5 416 L 63.5 399 L 65 397.5 L 68 392 L 70.5 391 Z " /><path fill="rgb(7,7,7)" stroke="rgb(7,7,7)" stroke-width="0.6" opacity="1" d="M 464.5 408 L 471 420.5 L 469.5 420 L 468 418.5 L 465 412.5 Q 467.5 411 464 409.5 L 464.5 408 Z " /><path fill="rgb(7,7,7)" stroke="rgb(7,7,7)" stroke-width="0.6" opacity="1" d="M 47.5 409 L 49 411.5 L 48 415 L 46 415 Q 47.5 418.8 44.5 418 L 43 421.5 L 44 429.5 L 41 431 L 41 421.5 L 47.5 409 Z " /><path fill="rgb(7,7,7)" stroke="rgb(7,7,7)" stroke-width="0.6" opacity="1" d="M 455.5 414 L 461 417 L 463 423.5 L 461.5 427 L 455.5 414 Z " /><path fill="rgb(7,7,7)" stroke="rgb(7,7,7)" stroke-width="0.6" opacity="1" d="M 471.5 430 L 471 431.5 L 471 434.5 L 465.5 441 L 461.5 443 L 462 441.5 L 463.5 439 L 469 436 L 471.5 430 Z " /><path fill="rgb(7,7,7)" stroke="rgb(7,7,7)" stroke-width="0.6" opacity="1" d="M 43 434 L 47 435.5 L 49 441 L 54.5 443 L 460 443.5 L 454.5 445 L 58.5 445 Q 49.3 444.3 45 438.5 L 43 434 Z " /><path fill="rgb(208,74,70)" stroke="rgb(208,74,70)" stroke-width="0.6" opacity="1" d="M 57.5 431 L 454 431.5 L 57.5 432 L 57.5 431 Z " /><path fill="rgb(113,73,68)" stroke="rgb(113,73,68)" stroke-width="0.6" opacity="1" d="M 59.5 432 L 454 432.5 L 59.5 433 L 59.5 432 Z " /><path fill="rgb(180,179,179)" stroke="rgb(180,179,179)" stroke-width="0.6" opacity="1" d="M 58.5 445 L 455 445.5 L 58.5 446 L 58.5 445 Z " /></svg>