<svg width="627" height="627" preserveAspectRatio="xMidYMid meet" viewBox="0 0 512 512" version="1.1" xmlns="http://www.w3.org/2000/svg" ><path fill="rgb(254,254,254)" stroke="rgb(254,254,254)" stroke-width="0.6" opacity="1" d="M 0 0 L 512 0 L 512 512 L 0 512 L 0 0 Z M 68 96 L 55 97 L 44 102 L 32 116 L 28 134 L 28 382 Q 29 397 37 406 Q 44 414 57 417 L 457 417 Q 467 414 474 408 Q 482 400 484 387 L 484 127 Q 482 116 477 110 Q 471 102 462 98 L 445 96 L 415 96 L 414 97 L 404 96 L 402 97 L 400 96 L 358 96 L 357 97 L 350 96 L 285 96 L 284 97 L 280 96 L 246 96 L 245 97 L 241 96 L 215 96 L 214 97 L 210 96 L 194 96 L 193 97 L 190 96 L 172 96 L 171 97 L 168 96 L 149 96 L 148 97 L 143 96 L 115 96 L 114 97 L 111 96 L 68 96 Z " /><path fill="rgb(223,67,62)" stroke="rgb(223,67,62)" stroke-width="0.6" opacity="1" d="M 455.5 113 L 457 114.5 L 460 116 Q 459.3 122.5 463.5 125 L 467.5 123 L 468 126.5 L 467 133.5 L 468 138.5 L 467 139.5 L 467 177.5 L 468 179.5 L 467 187.5 L 468 189.5 L 467 194.5 L 468 197.5 L 467 208.5 L 468 211.5 L 467 218.5 L 468 220.5 L 467 221.5 L 467 359.5 L 468 362.5 L 467 364.5 L 468 366.5 L 467 367.5 L 467 385.5 L 468 388.5 L 467 391 L 465 391 Q 466.5 394.7 463.5 394 L 461.5 393 L 457 399.5 L 457.5 401 L 419 399.5 L 420 397 L 416 395.5 L 417.5 393 L 420 391.5 L 418.5 388 Q 414.3 386.7 416 391.5 L 410 393 L 409 399 L 415 399.5 L 395 400 L 392.5 395 L 391 398.5 L 391.5 400 L 290.5 400 L 290 398.5 L 288.5 397 Q 280.3 399.3 278 395.5 Q 276.9 392.2 279.5 393 L 283 387.5 L 281.5 386 L 277.5 385 L 277 387.5 L 278 389.5 L 274 391.5 L 276 395.5 L 273.5 396 Q 270.5 395.2 272 399 L 287 399.5 L 228.5 400 L 230.5 397 L 233.5 399 L 246 399 L 245 395 L 237.5 396 L 237 393.5 L 239 389.5 Q 240.3 385.8 236.5 387 L 234.5 391 L 231 389.5 L 226.5 382 L 221.5 385 L 215 387.5 L 219.5 389 L 222.5 387 L 224 389.5 L 223.5 391 L 225 389.5 L 227.5 388 L 230 393.5 L 227 394.5 L 225.5 397 L 224 392 L 221.5 391 L 218.5 397 L 216 395.5 L 214.5 393 Q 205.6 394.3 202 392 L 200.5 397 Q 193.8 395.2 192 398.5 L 205 399.5 L 188.5 400 L 189 398.5 L 187.5 397 L 185.5 398 L 184 395 Q 178.8 393.3 180 397 L 185 399.5 L 107.5 400 L 107.5 399 L 115.5 398 L 123.5 399 L 127.5 398 L 131 399 L 129 394 L 126.5 393 L 126 395 L 114.5 393 L 110.5 395 Q 108.5 392 106.5 397 L 102 395.5 L 103 391 Q 100 392.3 101 388.5 L 101.5 387 L 100 388.5 L 97 390 L 99 394.5 Q 98 398 92.5 397 L 89 388 Q 85.3 386.9 87 395.5 L 85 399 L 103 399.5 L 58.5 400 L 56 401 L 53 396.5 L 53 392.5 L 49.5 389 Q 46.2 390.1 47 387.5 L 46 384 L 44 385.5 L 43 385.5 L 44 367.5 L 43 366.5 L 43 145.5 L 44 138.5 L 43 129.5 L 47 126.5 L 49 119 L 56 117 L 57.5 115 L 66.5 114 L 67.5 117 L 69.5 116 L 78.5 117 L 80 118.5 L 79 120.5 Q 81.8 125 84.5 124 Q 88.7 125.1 87 121 L 83 119.5 L 85 115.5 L 84.5 114 L 98 114.5 L 98.5 117 L 99.5 114 L 106 114.5 L 105 116.5 L 108 118 Q 109.3 122.1 106 121 L 106 124.5 L 107.5 124 L 110.5 122 L 112.5 122 L 115 122 L 116.5 120 L 119.5 118 L 120 121 L 123.5 120 L 130 121 L 128 116.5 L 128.5 114 L 134 114.5 L 133 116.5 L 137.5 119 Q 139 115.5 140.5 118 L 144 119 L 142 114.5 L 149.5 114 L 148 116.5 Q 146.7 121.1 152.5 119 Q 154.4 115.3 161 117 L 160 114.5 L 176 114 Q 174.7 117.7 180.5 116 L 187.5 120 L 188 117.5 L 186.5 115 L 183.5 116 L 182.5 114 L 191 114.5 L 190 117 L 193.5 116 L 197 118 L 196 114.5 L 200 114 L 201.5 116 L 204.5 118 L 206 114 L 215 114.5 L 214 118 L 220 117 L 219 114.5 L 228.5 114 L 227 116.5 L 227.5 118 Q 229.8 115 235 116 L 235.5 114 L 250.5 114 L 249.5 116 Q 246.2 114.9 247 117.5 Q 248.8 120.8 250.5 117 L 253 118.5 L 252 121.5 L 257 124 L 256 118.5 L 257.5 116 L 265 117 L 264 114.5 L 273.5 114 L 272 116.5 Q 270.9 119.8 273.5 119 L 275 118.5 L 274 122.5 L 276 123.5 L 281 115.5 L 280.5 114 L 284 114 Q 282.8 117 286.5 116 L 286.5 114 L 293 114.5 L 288 117 L 288 120.5 L 291 125 Q 296.2 126.7 295 123 Q 290.9 124.7 292 120.5 L 296 117.5 L 294 114.5 L 297.5 114 L 297 115.5 Q 296.1 118.9 301.5 117 L 302.5 114 L 314 114.5 L 313 115.5 L 316.5 119 Q 323.4 121.5 322 116.5 L 320.5 114 L 333 114.5 L 332 119 L 329 120.5 L 330.5 123 L 339 121 Q 340.4 117.3 334.5 119 L 335.5 117 L 337 117.5 L 336 114.5 L 340.5 114 L 340.5 116 L 346.5 118 L 348 115 L 346 114.5 L 352 114 Q 350.8 117 354.5 116 L 356.5 118 Q 358 114.5 359.5 117 Q 363.9 118.5 363 115.5 L 362.5 114 L 368 114.5 L 366 122 L 368.5 123 L 370 117 L 379.5 117 Q 380.8 120.3 386.5 119 L 392.5 117 L 395 121 L 398 119.5 L 399.5 116 L 405.5 119 L 407 117.5 L 404.5 114 L 408 114.5 L 407 117 L 410.5 119 L 413 118 Q 414.5 114.2 411.5 115 L 411.5 114 L 415 114.5 L 414 117 L 417 118.5 L 418.5 122 L 421 121 L 422.5 117 Q 430.5 116 434.5 119 L 436 114 L 443.5 115 L 449.5 114 L 446.5 118 L 445 118.5 L 448 128 Q 444.7 129.1 446 125 L 443.5 125 Q 440 127 444.5 129 Q 447.9 128.2 446 133 L 448 133 Q 446.1 128.2 449.5 129 L 451 126.5 L 450 123 L 452 121.5 L 452.5 119 L 458 117.5 Q 458.8 114.9 455.5 116 Q 452.5 114.5 455.5 113 Z M 164 115 L 162 117 L 163 120 L 162 120 L 160 123 L 166 125 L 164 120 L 166 117 L 164 115 Z M 52 119 L 49 122 Q 51 125 53 121 L 55 124 Q 51 123 52 126 L 57 127 L 56 122 L 52 119 Z M 239 119 L 241 121 L 241 124 L 245 125 L 246 121 Q 244 118 239 119 Z M 304 120 L 304 122 Q 299 120 300 124 L 302 125 Q 301 122 305 123 L 305 126 L 309 126 Q 312 125 309 123 Q 304 124 306 120 L 304 120 Z M 351 120 L 347 122 L 343 121 Q 339 123 344 125 L 347 123 L 351 124 L 352 125 Q 354 119 351 120 Z M 465 129 L 460 135 L 460 138 L 460 140 L 464 141 L 465 139 Q 462 140 463 137 L 465 137 L 466 135 Q 467 128 465 129 Z M 314 131 L 314 137 Q 317 138 316 135 L 323 135 Q 321 130 314 131 Z M 399 131 L 396 132 L 396 136 L 394 139 L 397 140 L 400 139 L 398 133 L 403 133 L 399 131 Z M 267 138 L 268 142 L 267 145 L 268 146 L 270 145 L 271 141 L 268 140 L 267 138 Z M 336 138 L 333 142 L 334 143 L 340 143 L 339 140 L 336 138 Z M 67 142 L 62 147 L 64 148 L 67 147 L 68 145 L 67 142 Z M 143 146 L 141 149 Q 142 153 147 152 L 148 150 L 143 146 Z M 47 149 L 47 165 L 49 165 L 49 163 L 50 160 L 52 158 L 53 155 L 49 154 L 50 152 Q 51 147 47 149 Z M 286 150 Q 282 152 284 158 L 289 160 L 290 158 L 286 156 L 288 152 L 286 150 Z M 77 153 L 74 157 Q 69 156 71 161 L 77 159 L 78 157 L 77 153 Z M 273 162 L 268 163 Q 265 165 268 166 L 272 165 L 274 165 L 273 162 Z M 308 166 Q 309 170 306 172 L 308 173 L 312 167 L 308 166 Z M 419 167 L 421 174 L 420 177 L 424 176 L 423 171 L 419 167 Z M 385 169 L 385 172 L 390 174 Q 389 176 393 175 L 394 172 L 389 171 Q 390 167 385 169 Z M 143 173 Q 140 181 144 180 L 146 177 Q 149 178 148 175 L 143 173 Z M 150 178 L 148 181 L 154 183 Q 157 184 156 181 L 150 178 Z M 464 185 L 464 190 Q 461 189 462 192 L 465 193 L 466 189 Q 467 184 464 185 Z M 63 186 L 60 189 Q 57 188 58 192 L 63 193 L 64 190 L 63 186 Z M 311 186 L 311 188 L 317 191 L 320 191 L 318 188 L 318 186 L 311 186 Z M 345 186 L 345 188 L 350 192 L 351 191 L 352 189 L 345 186 Z M 70 190 L 68 192 L 69 195 Q 68 198 72 197 L 73 193 L 70 190 Z M 199 190 L 199 195 L 206 193 L 206 190 L 199 190 Z M 103 192 L 102 195 L 100 201 L 103 199 L 109 201 L 108 199 L 103 192 Z M 354 194 L 354 198 L 357 199 Q 364 201 366 198 L 365 194 L 363 197 L 359 196 L 356 196 L 354 194 Z M 269 200 L 265 202 L 263 202 L 264 204 Q 262 208 266 207 L 270 201 L 269 200 Z M 414 202 L 409 204 Q 406 206 409 207 L 414 206 L 414 202 Z M 342 203 L 335 206 L 342 211 Q 344 206 341 207 L 340 205 L 344 207 Q 346 202 342 203 Z M 59 204 Q 60 211 54 213 Q 53 216 57 215 L 57 213 L 61 207 Q 62 203 59 204 Z M 155 210 L 154 213 L 153 217 L 156 218 L 156 211 L 155 210 Z M 465 212 L 464 223 L 466 222 Q 467 215 465 212 Z M 285 213 L 282 214 L 278 219 Q 276 227 280 226 L 280 223 L 286 214 L 285 213 Z M 302 232 L 300 235 L 304 237 L 306 238 L 305 234 L 302 232 Z M 464 232 L 464 242 L 466 242 L 466 233 L 464 232 Z M 47 236 Q 45 241 49 243 Q 54 244 55 242 Q 56 238 51 240 L 50 238 Q 51 235 47 236 Z M 227 236 L 225 238 L 230 241 L 234 239 L 233 236 L 229 237 L 227 236 Z M 440 236 L 438 238 Q 441 239 440 243 Q 445 245 443 238 L 440 236 Z M 460 240 Q 457 241 458 247 L 461 248 L 465 252 L 466 251 L 465 245 L 463 244 L 460 240 Z M 283 243 L 273 244 L 276 248 L 281 246 L 283 247 L 285 244 L 283 243 Z M 427 243 L 425 247 L 428 248 L 430 250 L 427 243 Z M 450 243 L 448 245 Q 447 250 450 251 L 453 244 L 450 243 Z M 295 244 L 293 246 L 296 250 Q 299 251 298 248 L 300 248 L 299 245 L 295 244 Z M 441 245 L 439 247 L 442 248 L 443 251 L 447 253 L 444 250 L 445 248 L 441 245 Z M 365 249 L 363 254 L 366 255 L 368 252 Q 370 253 369 250 L 368 250 L 365 249 Z M 282 250 Q 283 254 281 253 L 279 256 L 284 257 L 283 254 L 284 252 L 282 250 Z M 351 250 L 350 251 Q 343 249 345 256 L 348 257 L 351 252 L 351 250 Z M 368 261 L 366 263 L 370 267 L 372 267 L 370 263 L 368 261 Z M 442 263 L 440 266 Q 443 267 439 269 Q 438 272 443 270 L 443 264 L 442 263 Z M 55 268 L 54 269 Q 51 268 52 272 L 56 274 L 58 271 L 55 268 Z M 393 273 L 392 277 L 400 277 L 400 275 Q 395 276 393 273 Z M 357 275 L 356 276 L 354 278 Q 351 279 356 281 L 356 279 L 360 277 Q 361 274 357 275 Z M 56 280 L 53 283 L 60 285 Q 61 282 57 283 L 58 281 L 56 280 Z M 416 283 L 413 284 Q 411 291 415 293 L 418 291 L 416 288 L 418 284 L 416 283 Z M 310 284 Q 310 288 307 287 L 308 293 Q 310 296 311 293 L 310 289 Q 314 286 310 284 Z M 447 285 L 440 288 L 442 292 L 448 291 Q 449 285 447 285 Z M 241 288 L 237 291 L 239 296 L 242 295 Q 243 287 241 288 Z M 78 289 L 77 295 L 82 297 Q 85 298 83 294 L 78 289 Z M 100 289 L 100 294 L 103 296 L 102 294 L 104 291 L 100 289 Z M 104 297 L 106 301 Q 105 304 108 303 L 108 307 L 108 308 L 113 306 L 109 303 L 114 301 L 113 298 L 111 299 L 104 297 Z M 458 297 L 458 307 L 461 307 L 461 298 L 458 297 Z M 449 298 L 444 305 L 447 305 Q 446 300 451 299 L 449 298 Z M 57 302 L 54 304 Q 56 310 64 309 Q 65 305 63 306 L 60 306 Q 62 300 57 302 Z M 181 302 L 181 310 L 185 309 L 184 307 L 186 305 L 186 304 L 184 302 L 181 302 Z M 275 302 L 270 303 L 269 306 Q 268 308 272 307 L 276 305 L 275 302 Z M 119 303 L 114 307 L 116 310 L 116 309 L 120 307 Q 121 302 119 303 Z M 219 306 L 213 311 Q 209 312 210 309 L 207 311 L 209 314 L 211 313 L 213 313 L 213 321 L 215 321 Q 218 319 216 311 L 219 309 Q 222 308 219 306 Z M 229 306 Q 227 313 231 315 L 235 314 L 231 312 Q 233 305 229 306 Z M 49 311 L 47 313 L 47 327 L 49 328 L 50 317 L 52 317 L 53 313 L 49 311 Z M 327 316 L 326 317 L 324 319 L 333 319 L 333 317 L 327 316 Z M 464 317 Q 465 321 462 323 L 464 324 L 463 328 L 466 328 L 466 318 L 464 317 Z M 444 324 L 443 327 Q 444 329 441 328 L 440 330 L 445 329 L 447 326 L 444 324 Z M 265 329 L 263 331 L 269 334 L 272 333 L 271 330 L 269 331 L 265 329 Z M 385 329 L 385 332 Q 385 335 391 333 L 390 337 L 393 335 L 395 336 L 398 335 Q 398 332 392 333 L 392 332 L 390 331 L 385 329 Z M 326 330 L 320 337 L 326 333 Q 329 334 328 332 L 326 330 Z M 455 334 Q 452 339 456 341 Q 463 343 462 339 L 458 338 L 455 334 Z M 224 343 L 222 345 Q 216 344 218 348 L 221 349 L 225 346 Q 226 342 224 343 Z M 255 346 L 252 349 L 255 355 L 257 348 L 255 346 Z M 205 348 L 203 351 L 205 354 L 210 353 L 205 348 Z M 47 353 L 49 357 L 55 357 L 47 353 Z M 377 354 L 374 355 L 371 359 L 373 361 Q 375 362 374 359 L 378 356 L 377 354 Z M 60 363 L 60 365 L 68 367 L 69 373 L 72 374 L 71 366 L 70 364 L 66 365 L 60 363 Z M 243 363 L 243 367 Q 238 365 239 369 L 245 371 L 247 366 L 243 363 Z M 47 367 L 47 383 L 51 381 Q 54 382 52 377 L 49 376 L 50 372 L 52 372 Q 56 370 53 368 L 51 370 L 47 367 Z M 233 367 L 229 373 L 235 373 L 235 367 L 233 367 Z M 336 369 L 336 380 L 339 381 Q 345 379 341 376 Q 336 377 338 373 L 342 371 L 336 369 Z M 249 370 L 248 371 Q 244 370 245 374 L 248 374 L 247 376 Q 249 379 254 377 Q 255 374 251 375 L 251 370 L 249 370 Z M 119 371 L 117 374 L 118 380 L 123 379 Q 123 373 119 371 Z M 321 376 L 321 378 L 312 377 L 313 379 L 320 379 L 321 386 L 324 388 Q 326 381 322 380 Q 324 383 326 380 L 321 376 Z M 443 377 L 439 381 L 440 387 L 442 386 L 444 387 L 445 390 L 451 388 L 450 385 L 443 386 L 442 384 L 444 381 L 443 377 Z M 384 380 L 383 382 L 382 381 Q 376 379 377 383 L 383 386 L 386 382 L 384 380 Z M 127 382 Q 128 388 124 390 L 122 392 L 120 391 L 118 393 L 126 393 Q 124 387 130 389 L 130 384 L 127 382 Z M 152 383 L 148 385 L 149 391 L 147 390 L 143 399 L 153 399 L 154 398 L 151 397 L 149 394 L 152 393 Q 150 387 154 388 L 153 387 Q 154 382 152 383 Z M 312 383 L 311 387 L 312 389 L 312 388 L 313 388 L 312 391 L 316 390 L 314 385 L 312 383 Z M 428 385 L 423 394 L 427 399 L 438 399 L 438 396 L 434 394 Q 435 389 431 391 L 430 397 L 428 392 L 427 391 L 431 387 Q 432 384 428 385 Z M 297 386 L 296 389 L 298 393 Q 302 392 300 397 L 301 399 Q 306 401 305 398 L 306 395 L 311 399 L 321 398 L 328 399 Q 336 401 338 397 Q 335 395 336 391 Q 333 390 334 395 L 330 397 L 328 393 L 322 392 L 319 397 L 317 396 L 314 397 L 308 393 Q 300 394 301 392 L 301 389 L 300 391 L 299 391 L 300 388 L 297 386 Z M 186 388 L 185 391 L 187 391 L 187 392 L 185 391 Q 179 389 180 393 L 185 395 L 186 394 L 188 394 L 189 391 L 186 388 Z M 61 389 L 60 394 L 56 395 L 58 399 Q 65 400 67 397 L 68 395 Q 67 392 71 393 L 71 391 L 69 392 L 61 389 Z M 350 389 L 349 393 L 350 397 L 351 399 Q 363 401 367 397 L 366 394 L 363 396 L 361 395 Q 356 394 355 397 L 352 396 Q 354 388 350 389 Z M 170 392 L 165 395 L 160 395 L 158 399 L 162 397 L 166 399 L 167 397 L 171 395 Q 172 391 170 392 Z M 452 392 L 450 393 L 446 399 L 455 399 L 456 398 L 454 395 Q 455 391 452 392 Z M 256 393 L 255 394 L 253 396 L 251 397 L 252 399 L 257 398 L 256 393 Z M 402 394 L 398 395 L 400 398 L 402 397 L 405 399 L 406 398 L 402 394 Z M 378 395 Q 375 398 368 397 L 369 399 L 375 398 L 378 399 L 381 398 L 378 395 Z " /><path fill="rgb(2,1,1)" stroke="rgb(2,1,1)" stroke-width="0.6" opacity="1" d="M 56.5 98 L 456.5 98 L 471.5 105 L 475 108.5 Q 481.5 116 483 128.5 L 483 384.5 Q 480.8 401.8 469.5 410 L 455.5 416 L 57.5 416 Q 43.3 412.8 36 402.5 L 30 386.5 L 31 384.5 L 30 383.5 L 30 131.5 L 31 128.5 L 30 126.5 Q 32.4 112.4 41.5 105 L 56.5 98 Z M 62 109 L 50 114 L 42 125 L 41 130 L 41 386 L 45 395 Q 49 401 58 404 L 76 404 L 77 405 L 154 405 L 155 404 L 158 405 L 263 405 L 264 404 L 266 405 L 431 405 L 432 404 L 455 404 L 462 401 Q 471 396 472 384 L 472 129 L 468 120 Q 463 110 451 109 L 62 109 Z " /><path fill="rgb(224,68,63)" stroke="rgb(224,68,63)" stroke-width="0.6" opacity="1" d="M 67.5 114 L 83.5 114 L 85 115.5 L 83 119.5 L 87 121 L 87.5 117 L 89 119.5 L 87 124 L 83.5 123 L 82.5 124 L 79 120.5 L 80 118.5 L 78.5 117 L 68.5 116 L 66 115.5 L 67.5 114 Z " /><path fill="rgb(224,68,63)" stroke="rgb(224,68,63)" stroke-width="0.6" opacity="1" d="M 106.5 114 Q 112.3 112.7 113.5 116 Q 115 112.5 116.5 115 L 127.5 114 L 128 116.5 L 130 121 L 124 121 L 124 124.5 L 122 123.5 L 120 118.5 L 118.5 119 L 115 120 Q 116.3 123 112.5 122 L 110.5 122 L 107.5 124 L 106 124.5 Q 107.8 119.3 102.5 121 L 102 118.5 L 105 115.5 L 106.5 114 Z " /><path fill="rgb(224,68,63)" stroke="rgb(224,68,63)" stroke-width="0.6" opacity="1" d="M 134.5 114 Q 142.3 112.2 144 116.5 Q 142.8 121.1 148 119 L 150.5 114 L 153.5 116 Q 154.5 113 159.5 114 L 161 117 L 148 119 Q 150.1 124.2 145.5 123 L 144 119 L 139.5 117 L 135.5 119 L 133 115.5 L 134.5 114 Z " /><path fill="rgb(224,68,63)" stroke="rgb(224,68,63)" stroke-width="0.6" opacity="1" d="M 176 114 Q 182 112.8 184.5 116 L 186.5 115 L 189 118.5 L 186.5 119 Q 181.2 119.7 180.5 116 L 176 116 L 176 114 Z " /><path fill="rgb(224,68,63)" stroke="rgb(224,68,63)" stroke-width="0.6" opacity="1" d="M 191.5 114 L 197 115.5 Q 198.1 118.8 195.5 118 L 192.5 116 L 190 117 L 191.5 114 Z " /><path fill="rgb(224,68,63)" stroke="rgb(224,68,63)" stroke-width="0.6" opacity="1" d="M 215.5 114 L 220 115.5 Q 219.2 118.5 223 117 L 223 119 L 216.5 117 L 214 118 L 215.5 114 Z " /><path fill="rgb(224,68,63)" stroke="rgb(224,68,63)" stroke-width="0.6" opacity="1" d="M 229.5 114 Q 236.4 112 235 116 Q 229.8 115 227.5 118 L 227 116.5 L 229.5 114 Z " /><path fill="rgb(224,68,63)" stroke="rgb(224,68,63)" stroke-width="0.6" opacity="1" d="M 251.5 114 L 258.5 115 L 263.5 114 L 265 117 L 257.5 116 L 256 121.5 L 257 124 L 252 121.5 L 253 118.5 L 250.5 117 Q 248.8 120.8 247 117.5 Q 246.2 114.9 249.5 116 L 251.5 114 Z " /><path fill="rgb(224,68,63)" stroke="rgb(224,68,63)" stroke-width="0.6" opacity="1" d="M 274.5 114 L 278.5 115 L 281 115.5 L 276 123.5 L 278 127 Q 275 128.3 276 124.5 Q 273 123.3 274 119 Q 271 120.3 272 116.5 L 274.5 114 Z " /><path fill="rgb(224,68,63)" stroke="rgb(224,68,63)" stroke-width="0.6" opacity="1" d="M 293.5 114 L 296 117.5 L 292 120.5 L 292 123 Q 296.1 121.7 295 125 Q 290.2 126.9 291 123.5 Q 287 122.1 288 117 L 293.5 114 Z " /><path fill="rgb(224,68,63)" stroke="rgb(224,68,63)" stroke-width="0.6" opacity="1" d="M 314.5 114 Q 320.8 112.8 322 116.5 Q 323.4 121.5 316.5 119 Q 310.5 116.5 314.5 114 Z " /><path fill="rgb(224,68,63)" stroke="rgb(224,68,63)" stroke-width="0.6" opacity="1" d="M 333.5 114 L 337 115.5 L 336.5 118 L 334 118.5 L 339 119 Q 340.3 122.3 335.5 121 L 330.5 123 L 329 120.5 L 332 119 L 333.5 114 Z " /><path fill="rgb(224,68,63)" stroke="rgb(224,68,63)" stroke-width="0.6" opacity="1" d="M 341.5 114 L 348 115 L 346.5 118 L 340 115.5 L 341.5 114 Z " /><path fill="rgb(224,68,63)" stroke="rgb(224,68,63)" stroke-width="0.6" opacity="1" d="M 352 114 L 359.5 115 L 361.5 114 L 363 117 L 358.5 116 Q 356.5 120 354.5 116 Q 350.8 117 352 114 Z " /><path fill="rgb(224,68,63)" stroke="rgb(224,68,63)" stroke-width="0.6" opacity="1" d="M 368.5 114 L 403.5 114 L 406.5 117 L 408.5 114 L 413 115 Q 414.5 118.7 411.5 118 L 409 119 L 407.5 117 L 403.5 119 L 399.5 116 L 396.5 121 L 395 119.5 Q 394.3 116.3 389.5 117 Q 387.5 120 381.5 119 L 379.5 117 L 370 117 L 368.5 123 L 366 122 L 368.5 114 Z " /><path fill="rgb(224,68,63)" stroke="rgb(224,68,63)" stroke-width="0.6" opacity="1" d="M 415.5 114 L 426.5 115 L 436 114 L 434.5 119 Q 430.5 116 422.5 117 L 421 121 L 418.5 122 L 415.5 117 L 414 115.5 L 415.5 114 Z " /><path fill="rgb(224,68,63)" stroke="rgb(224,68,63)" stroke-width="0.6" opacity="1" d="M 450.5 114 L 458 116 L 456.5 119 L 451 120.5 L 452 123 Q 449 121.8 450 125.5 L 451 127.5 L 448 129 Q 449.7 134.2 446 133 Q 447.9 128.2 444.5 129 Q 440 127 443.5 125 Q 448.5 126.4 446 119.5 L 445.5 118 L 450.5 114 Z " /><path fill="rgb(224,68,63)" stroke="rgb(224,68,63)" stroke-width="0.6" opacity="1" d="M 163.5 115 L 166 116.5 L 164 119.5 L 166 125 L 160 123 L 161.5 120 L 163 119.5 L 162 116.5 L 163.5 115 Z " /><path fill="rgb(224,68,63)" stroke="rgb(224,68,63)" stroke-width="0.6" opacity="1" d="M 51.5 119 L 56 121.5 L 57 127 L 52 125.5 Q 51.2 122.9 54.5 124 L 52.5 121 Q 50.8 124.8 49 121.5 L 51.5 119 Z " /><path fill="rgb(224,68,63)" stroke="rgb(224,68,63)" stroke-width="0.6" opacity="1" d="M 239 119 Q 244.4 117.5 246 120.5 L 245 125 L 241 123.5 L 240.5 121 L 239 119 Z " /><path fill="rgb(224,68,63)" stroke="rgb(224,68,63)" stroke-width="0.6" opacity="1" d="M 303.5 120 L 306 120 Q 304.3 124.1 308.5 123 Q 311.5 124.5 308.5 126 L 305 125.5 L 304.5 123 Q 301.2 121.9 302 124.5 L 300 123.5 Q 299.1 120.5 303.5 122 L 303.5 120 Z " /><path fill="rgb(224,68,63)" stroke="rgb(224,68,63)" stroke-width="0.6" opacity="1" d="M 350.5 120 Q 353.9 119.1 352 124.5 L 350.5 124 L 346.5 123 L 343.5 125 Q 339 123 342.5 121 L 346.5 122 L 350.5 120 Z " /><path fill="rgb(224,68,63)" stroke="rgb(224,68,63)" stroke-width="0.6" opacity="1" d="M 464.5 129 Q 467.3 128.4 466 134.5 L 464.5 137 L 463 136.5 Q 461.9 139.8 464.5 139 L 463.5 141 L 460 139.5 L 460 137.5 L 460 134.5 L 464.5 129 Z " /><path fill="rgb(224,68,63)" stroke="rgb(224,68,63)" stroke-width="0.6" opacity="1" d="M 273.5 131 Q 279.3 130.3 280 134.5 L 278 135 Q 279.2 131.3 274 133 Q 275 136 272 135 L 273.5 131 Z " /><path fill="rgb(224,68,63)" stroke="rgb(224,68,63)" stroke-width="0.6" opacity="1" d="M 309.5 131 L 310 135.5 L 308.5 138 L 306 137 L 304.5 140 L 302 138.5 L 306 137 L 307.5 132 L 309.5 131 Z " /><path fill="rgb(224,68,63)" stroke="rgb(224,68,63)" stroke-width="0.6" opacity="1" d="M 314 131 L 319.5 131 Q 322.3 136.5 330 136 Q 331.3 140.1 328 139 Q 329.3 135.7 324.5 137 Q 322.6 133.3 316 135 Q 317 138 314 137 L 314 131 Z " /><path fill="rgb(224,68,63)" stroke="rgb(224,68,63)" stroke-width="0.6" opacity="1" d="M 398.5 131 L 401.5 131 L 406 134.5 L 404.5 137 Q 401.1 137.8 403 133 L 398 133 L 400 138.5 L 396.5 140 L 394 139 L 396 135.5 L 395.5 132 L 398.5 131 Z " /><path fill="rgb(224,68,63)" stroke="rgb(224,68,63)" stroke-width="0.6" opacity="1" d="M 354 132 L 358 133.5 L 357.5 136 L 354.5 135 L 351.5 137 L 350.5 135 Q 355.8 136.5 354 132 Z " /><path fill="rgb(224,68,63)" stroke="rgb(224,68,63)" stroke-width="0.6" opacity="1" d="M 266.5 138 L 268 139.5 L 271 141 L 269.5 145 L 267.5 146 L 267 144.5 L 268 141.5 L 266.5 138 Z " /><path fill="rgb(224,68,63)" stroke="rgb(224,68,63)" stroke-width="0.6" opacity="1" d="M 335.5 138 L 338.5 140 L 340 143 L 333.5 143 L 333 141.5 L 335.5 138 Z " /><path fill="rgb(224,68,63)" stroke="rgb(224,68,63)" stroke-width="0.6" opacity="1" d="M 66.5 142 L 68 144.5 L 67 147 L 63.5 148 L 62 146.5 L 66.5 142 Z " /><path fill="rgb(224,68,63)" stroke="rgb(224,68,63)" stroke-width="0.6" opacity="1" d="M 196.5 142 L 198 142.5 L 194 145 L 192.5 147 L 191 147.5 L 192.5 146 L 196.5 142 Z " /><path fill="rgb(224,68,63)" stroke="rgb(224,68,63)" stroke-width="0.6" opacity="1" d="M 449.5 143 L 450 146 L 454 147 L 455.5 144 L 457.5 144 L 461 145.5 Q 459.4 148.5 454 147 L 455 149.5 L 450.5 151 L 450 148.5 L 448 144.5 L 449.5 143 Z " /><path fill="rgb(224,68,63)" stroke="rgb(224,68,63)" stroke-width="0.6" opacity="1" d="M 142.5 146 L 148 149.5 L 147 152 Q 142.3 152.8 141 148.5 L 142.5 146 Z " /><path fill="rgb(224,68,63)" stroke="rgb(224,68,63)" stroke-width="0.6" opacity="1" d="M 47 149 Q 51.1 147.3 50 151.5 L 49 153.5 L 53 155 L 51.5 158 L 50 159.5 L 49 162.5 L 48.5 165 L 47 164.5 L 47 149 Z " /><path fill="rgb(224,68,63)" stroke="rgb(224,68,63)" stroke-width="0.6" opacity="1" d="M 285.5 150 L 288 151.5 L 286 155.5 L 290 157.5 L 289 160 L 284 157.5 Q 282.5 151.5 285.5 150 Z " /><path fill="rgb(224,68,63)" stroke="rgb(224,68,63)" stroke-width="0.6" opacity="1" d="M 101.5 151 L 103 151.5 L 98.5 157 L 97 155 Q 101.1 156.7 100 152.5 L 101.5 151 Z " /><path fill="rgb(224,68,63)" stroke="rgb(224,68,63)" stroke-width="0.6" opacity="1" d="M 76.5 153 L 78 156.5 L 77 159 L 71 161 Q 68.9 155.8 73.5 157 L 76.5 153 Z " /><path fill="rgb(224,68,63)" stroke="rgb(224,68,63)" stroke-width="0.6" opacity="1" d="M 272.5 162 L 274 164.5 L 271.5 165 L 267.5 166 Q 264.5 164.5 267.5 163 L 272.5 162 Z " /><path fill="rgb(224,68,63)" stroke="rgb(224,68,63)" stroke-width="0.6" opacity="1" d="M 234 164 L 240 165.5 L 232.5 169 L 232 167 Q 235.3 168.1 234 164 Z " /><path fill="rgb(224,68,63)" stroke="rgb(224,68,63)" stroke-width="0.6" opacity="1" d="M 307.5 165 L 312 167 L 307.5 173 L 306 171.5 L 308 166.5 L 307.5 165 Z " /><path fill="rgb(224,68,63)" stroke="rgb(224,68,63)" stroke-width="0.6" opacity="1" d="M 418.5 167 L 423 170.5 L 424 175.5 L 420 177 L 421 173.5 L 418.5 167 Z " /><path fill="rgb(224,68,63)" stroke="rgb(224,68,63)" stroke-width="0.6" opacity="1" d="M 384.5 169 Q 389.9 167.1 389 170.5 L 394 171.5 L 392.5 175 Q 389.2 176.1 390 173.5 L 385 172 L 384.5 169 Z " /><path fill="rgb(224,68,63)" stroke="rgb(224,68,63)" stroke-width="0.6" opacity="1" d="M 142.5 173 L 148 175 Q 149.3 178 145.5 177 L 144 180 Q 140.1 180.9 142.5 173 Z " /><path fill="rgb(224,68,63)" stroke="rgb(224,68,63)" stroke-width="0.6" opacity="1" d="M 445.5 173 L 447 173.5 L 444 179 Q 449.2 177.3 448 181 Q 443.3 181.8 442 177.5 L 445.5 173 Z " /><path fill="rgb(224,68,63)" stroke="rgb(224,68,63)" stroke-width="0.6" opacity="1" d="M 149.5 178 L 156 181 Q 157.3 184 153.5 183 L 148 181 L 149.5 178 Z " /><path fill="rgb(224,68,63)" stroke="rgb(224,68,63)" stroke-width="0.6" opacity="1" d="M 79 185 Q 82.3 183.7 81 188.5 L 84 195.5 L 81 197 L 81 189.5 Q 77.8 190.3 79 185 Z " /><path fill="rgb(224,68,63)" stroke="rgb(224,68,63)" stroke-width="0.6" opacity="1" d="M 422.5 185 L 424 188 L 429 191.5 L 427.5 192 L 422 186.5 L 422.5 185 Z " /><path fill="rgb(224,68,63)" stroke="rgb(224,68,63)" stroke-width="0.6" opacity="1" d="M 464 185 Q 467.3 183.7 466 188.5 L 464.5 193 L 462 192 Q 461 189 464 190 L 464 185 Z " /><path fill="rgb(224,68,63)" stroke="rgb(224,68,63)" stroke-width="0.6" opacity="1" d="M 62.5 186 L 64 189.5 L 62.5 193 L 58 192 Q 56.5 188.2 59.5 189 L 62.5 186 Z " /><path fill="rgb(224,68,63)" stroke="rgb(224,68,63)" stroke-width="0.6" opacity="1" d="M 311 186 L 317.5 186 L 318 187.5 L 320 190.5 L 316.5 191 L 311 187.5 L 311 186 Z " /><path fill="rgb(224,68,63)" stroke="rgb(224,68,63)" stroke-width="0.6" opacity="1" d="M 345 186 L 352 189 L 350.5 191 L 349.5 192 L 345 187.5 L 345 186 Z " /><path fill="rgb(224,68,63)" stroke="rgb(224,68,63)" stroke-width="0.6" opacity="1" d="M 378.5 186 L 381 186 Q 379.5 189.7 382.5 189 L 384 191.5 L 380.5 194 L 381 192.5 L 381 189 Q 376.2 190.9 377 187.5 L 378.5 186 Z " /><path fill="rgb(224,68,63)" stroke="rgb(224,68,63)" stroke-width="0.6" opacity="1" d="M 69.5 190 L 73 192.5 L 71.5 197 Q 67.8 198.3 69 194.5 L 68 191.5 L 69.5 190 Z " /><path fill="rgb(224,68,63)" stroke="rgb(224,68,63)" stroke-width="0.6" opacity="1" d="M 199 190 L 206 190 L 206 193 L 199 195 L 199 190 Z " /><path fill="rgb(224,68,63)" stroke="rgb(224,68,63)" stroke-width="0.6" opacity="1" d="M 102.5 192 L 107.5 199 L 109 201 L 102.5 199 L 100 200.5 L 102 194.5 L 102.5 192 Z " /><path fill="rgb(224,68,63)" stroke="rgb(224,68,63)" stroke-width="0.6" opacity="1" d="M 354 194 L 356 195.5 L 358.5 196 L 362.5 197 L 364.5 194 L 366 197.5 Q 364 201 356.5 199 L 354 198 L 354 194 Z " /><path fill="rgb(224,68,63)" stroke="rgb(224,68,63)" stroke-width="0.6" opacity="1" d="M 278.5 196 Q 281.8 197.8 278 199.5 L 278 203 Q 273.2 201.1 274 204.5 L 275 208 Q 270.5 209.8 272 204.5 Q 275 203.3 274 199 Q 279.3 200.9 278.5 196 Z " /><path fill="rgb(224,68,63)" stroke="rgb(224,68,63)" stroke-width="0.6" opacity="1" d="M 268.5 200 L 270 200.5 L 265.5 207 Q 262.5 207.9 264 203.5 L 263 201.5 L 264.5 202 L 268.5 200 Z " /><path fill="rgb(224,68,63)" stroke="rgb(224,68,63)" stroke-width="0.6" opacity="1" d="M 413.5 202 L 414 205.5 L 408.5 207 Q 405.5 205.5 408.5 204 L 413.5 202 Z " /><path fill="rgb(224,68,63)" stroke="rgb(224,68,63)" stroke-width="0.6" opacity="1" d="M 305.5 203 L 308 211 Q 304.7 212.3 306 207.5 L 304 204.5 L 305.5 203 Z " /><path fill="rgb(224,68,63)" stroke="rgb(224,68,63)" stroke-width="0.6" opacity="1" d="M 341.5 203 Q 346.1 201.8 344 207 L 342 207 Q 343.9 211.8 340.5 211 L 335.5 205 L 341.5 203 Z " /><path fill="rgb(224,68,63)" stroke="rgb(224,68,63)" stroke-width="0.6" opacity="1" d="M 59 204 Q 62 202.8 61 206.5 L 57 212.5 L 56.5 215 Q 52.8 216.3 54 212.5 Q 60 210.9 59 204 Z " /><path fill="rgb(224,68,63)" stroke="rgb(224,68,63)" stroke-width="0.6" opacity="1" d="M 154.5 210 L 156 210.5 L 156 218 L 153 216.5 L 154 212.5 L 154.5 210 Z " /><path fill="rgb(224,68,63)" stroke="rgb(224,68,63)" stroke-width="0.6" opacity="1" d="M 464.5 212 Q 467.3 214.7 466 221.5 L 464 222.5 L 464.5 212 Z " /><path fill="rgb(224,68,63)" stroke="rgb(224,68,63)" stroke-width="0.6" opacity="1" d="M 284.5 213 L 286 213.5 L 280 222.5 L 280 226 Q 276.3 227.1 278 218.5 L 281.5 214 L 284.5 213 Z " /><path fill="rgb(224,68,63)" stroke="rgb(224,68,63)" stroke-width="0.6" opacity="1" d="M 301.5 232 L 305 233.5 L 306 238 L 304 236.5 L 300 235 L 301.5 232 Z " /><path fill="rgb(224,68,63)" stroke="rgb(224,68,63)" stroke-width="0.6" opacity="1" d="M 464 232 L 466 232.5 L 466 242 L 464 241.5 L 464 232 Z " /><path fill="rgb(224,68,63)" stroke="rgb(224,68,63)" stroke-width="0.6" opacity="1" d="M 47 236 Q 50.8 234.5 50 237.5 L 50.5 240 Q 55.9 238.1 55 241.5 Q 53.8 244.3 48.5 243 Q 45.5 241.4 47 236 Z " /><path fill="rgb(224,68,63)" stroke="rgb(224,68,63)" stroke-width="0.6" opacity="1" d="M 226.5 236 L 228.5 237 L 232.5 236 L 234 239 L 229.5 241 L 225 237.5 L 226.5 236 Z " /><path fill="rgb(224,68,63)" stroke="rgb(224,68,63)" stroke-width="0.6" opacity="1" d="M 439.5 236 L 443 237.5 Q 445.2 244.8 440 243 Q 441 238.8 438 237.5 L 439.5 236 Z " /><path fill="rgb(224,68,63)" stroke="rgb(224,68,63)" stroke-width="0.6" opacity="1" d="M 459.5 240 L 462.5 244 L 465 245 L 466 250.5 L 464.5 252 L 460.5 248 L 458 246.5 Q 456.8 241.3 459.5 240 Z " /><path fill="rgb(224,68,63)" stroke="rgb(224,68,63)" stroke-width="0.6" opacity="1" d="M 282.5 243 L 285 243.5 L 282.5 247 L 280.5 246 L 275.5 248 L 273 244 L 282.5 243 Z " /><path fill="rgb(224,68,63)" stroke="rgb(224,68,63)" stroke-width="0.6" opacity="1" d="M 426.5 243 L 430 249.5 L 427.5 248 L 425 246.5 L 426.5 243 Z " /><path fill="rgb(224,68,63)" stroke="rgb(224,68,63)" stroke-width="0.6" opacity="1" d="M 449.5 243 L 453 244 L 449.5 251 Q 446.8 249.8 448 244.5 L 449.5 243 Z " /><path fill="rgb(224,68,63)" stroke="rgb(224,68,63)" stroke-width="0.6" opacity="1" d="M 294.5 244 L 299 245 L 300 247.5 L 298 248 Q 299 251 296 250 L 293 245.5 L 294.5 244 Z " /><path fill="rgb(224,68,63)" stroke="rgb(224,68,63)" stroke-width="0.6" opacity="1" d="M 440.5 245 L 445 247.5 L 444 249.5 L 446.5 253 L 443 250.5 L 441.5 248 L 439 246.5 L 440.5 245 Z " /><path fill="rgb(224,68,63)" stroke="rgb(224,68,63)" stroke-width="0.6" opacity="1" d="M 364.5 249 L 367.5 250 L 369 249.5 Q 370.1 252.8 367.5 252 L 366 255 L 363 253.5 L 364.5 249 Z " /><path fill="rgb(224,68,63)" stroke="rgb(224,68,63)" stroke-width="0.6" opacity="1" d="M 282 250 L 284 251.5 L 283 253.5 L 284 257 Q 287.3 255.9 286 260 Q 282.7 261.1 284 257 L 280.5 257 L 279 254.5 L 282 253 L 282 250 Z " /><path fill="rgb(224,68,63)" stroke="rgb(224,68,63)" stroke-width="0.6" opacity="1" d="M 350.5 250 L 351 251.5 L 348 257 L 345 255.5 Q 342.8 248.8 349.5 251 L 350.5 250 Z " /><path fill="rgb(224,68,63)" stroke="rgb(224,68,63)" stroke-width="0.6" opacity="1" d="M 150.5 255 L 153 256.5 L 146.5 261 L 146 259 L 148 257.5 L 150.5 255 Z " /><path fill="rgb(224,68,63)" stroke="rgb(224,68,63)" stroke-width="0.6" opacity="1" d="M 367.5 261 L 370 262.5 L 374 270.5 L 372 271.5 Q 374.1 265.6 369.5 267 L 366 262.5 L 367.5 261 Z " /><path fill="rgb(224,68,63)" stroke="rgb(224,68,63)" stroke-width="0.6" opacity="1" d="M 441.5 263 L 443 263.5 L 443 270 Q 438.2 271.9 439 268.5 Q 442.5 267 440 265.5 L 441.5 263 Z " /><path fill="rgb(224,68,63)" stroke="rgb(224,68,63)" stroke-width="0.6" opacity="1" d="M 54.5 268 L 58 270.5 L 55.5 274 L 52 271.5 Q 50.9 268.2 53.5 269 L 54.5 268 Z " /><path fill="rgb(224,68,63)" stroke="rgb(224,68,63)" stroke-width="0.6" opacity="1" d="M 392.5 273 Q 394.8 276 400 275 L 399.5 277 L 392 277 L 392.5 273 Z " /><path fill="rgb(224,68,63)" stroke="rgb(224,68,63)" stroke-width="0.6" opacity="1" d="M 356.5 275 Q 361.3 273.7 360 277 L 356 278.5 Q 354.8 282.3 358.5 281 L 360 284 L 356 284 Q 357.3 288.1 354 287 L 356 281.5 Q 351 279.5 354 277.5 L 355.5 276 L 356.5 275 Z " /><path fill="rgb(224,68,63)" stroke="rgb(224,68,63)" stroke-width="0.6" opacity="1" d="M 445.5 275 L 448 279 L 451 280.5 L 449.5 281 L 445 276.5 L 445.5 275 Z " /><path fill="rgb(224,68,63)" stroke="rgb(224,68,63)" stroke-width="0.6" opacity="1" d="M 55.5 280 L 58 280.5 L 57 283 Q 61.1 281.7 60 285 L 53 282.5 L 55.5 280 Z " /><path fill="rgb(224,68,63)" stroke="rgb(224,68,63)" stroke-width="0.6" opacity="1" d="M 415.5 283 L 418 283.5 L 416 287.5 L 418 290.5 L 414.5 293 Q 411 290.9 413 284 L 415.5 283 Z " /><path fill="rgb(224,68,63)" stroke="rgb(224,68,63)" stroke-width="0.6" opacity="1" d="M 309.5 284 Q 314.2 286.3 310 288.5 L 311 292.5 Q 309.5 295.5 308 292.5 L 307 287 Q 310.1 288.1 309.5 284 Z " /><path fill="rgb(224,68,63)" stroke="rgb(224,68,63)" stroke-width="0.6" opacity="1" d="M 446.5 285 Q 449.5 284.6 448 291 L 441.5 292 L 440 288 L 446.5 285 Z " /><path fill="rgb(224,68,63)" stroke="rgb(224,68,63)" stroke-width="0.6" opacity="1" d="M 163.5 286 L 167 288.5 L 167.5 291 L 170 291.5 L 167.5 293 L 166 290 L 162 287.5 L 163.5 286 Z " /><path fill="rgb(224,68,63)" stroke="rgb(224,68,63)" stroke-width="0.6" opacity="1" d="M 240.5 288 Q 243.5 287.5 242 294.5 L 239 296 L 237 290.5 L 240.5 288 Z " /><path fill="rgb(224,68,63)" stroke="rgb(224,68,63)" stroke-width="0.6" opacity="1" d="M 77.5 289 L 83 293.5 Q 84.5 297.9 81.5 297 L 77 294.5 L 77.5 289 Z " /><path fill="rgb(224,68,63)" stroke="rgb(224,68,63)" stroke-width="0.6" opacity="1" d="M 89 289 Q 93.1 287.3 92 291.5 L 95 295.5 L 93 296 Q 94.5 291.5 90 293 L 88.5 295 L 89 293.5 L 89 289 Z " /><path fill="rgb(224,68,63)" stroke="rgb(224,68,63)" stroke-width="0.6" opacity="1" d="M 100 289 L 104 290.5 L 102 293.5 L 103 295.5 L 100 293.5 L 100 289 Z " /><path fill="rgb(224,68,63)" stroke="rgb(224,68,63)" stroke-width="0.6" opacity="1" d="M 395 291 Q 400.2 288.9 399 293.5 L 401 297 L 399 297 Q 400.5 293.3 397.5 294 L 395 293 L 395 291 Z " /><path fill="rgb(224,68,63)" stroke="rgb(224,68,63)" stroke-width="0.6" opacity="1" d="M 104 297 L 110.5 299 L 112.5 298 L 114 300.5 L 109 302.5 L 113 305.5 L 107.5 308 L 108 306.5 L 108 303 Q 105 304.3 106 300.5 L 104 297 Z " /><path fill="rgb(224,68,63)" stroke="rgb(224,68,63)" stroke-width="0.6" opacity="1" d="M 458 297 L 461 297.5 L 461 307 L 458 306.5 L 458 297 Z " /><path fill="rgb(224,68,63)" stroke="rgb(224,68,63)" stroke-width="0.6" opacity="1" d="M 448.5 298 L 451 298.5 Q 446.3 299.9 447 305 L 444 304.5 L 448.5 298 Z " /><path fill="rgb(224,68,63)" stroke="rgb(224,68,63)" stroke-width="0.6" opacity="1" d="M 56.5 302 Q 61.8 300.3 60 305.5 L 62.5 306 Q 65.5 305.2 64 309 Q 55.8 310.3 54 303.5 L 56.5 302 Z " /><path fill="rgb(224,68,63)" stroke="rgb(224,68,63)" stroke-width="0.6" opacity="1" d="M 181 302 L 184 302 L 185.5 304 L 185.5 305 L 184 306.5 L 185 309 Q 189.1 307.3 188 311.5 L 185 313 Q 186.9 308.2 183.5 309 L 181 310 L 181 302 Z " /><path fill="rgb(224,68,63)" stroke="rgb(224,68,63)" stroke-width="0.6" opacity="1" d="M 274.5 302 L 276 304.5 L 271.5 307 Q 268.2 308.1 269 305.5 L 269.5 303 L 274.5 302 Z " /><path fill="rgb(224,68,63)" stroke="rgb(224,68,63)" stroke-width="0.6" opacity="1" d="M 118.5 303 Q 121.5 302.1 120 306.5 L 116 308.5 L 115.5 310 L 114 306.5 L 118.5 303 Z " /><path fill="rgb(224,68,63)" stroke="rgb(224,68,63)" stroke-width="0.6" opacity="1" d="M 218.5 306 Q 221.5 307.5 218.5 309 L 216 310.5 Q 218.3 318.8 214.5 321 L 213 320.5 L 213 313 L 210.5 313 L 208.5 314 L 207 310.5 L 210 309 Q 208.8 312 212.5 311 L 218.5 306 Z " /><path fill="rgb(224,68,63)" stroke="rgb(224,68,63)" stroke-width="0.6" opacity="1" d="M 229 306 Q 233 304.6 231 311.5 L 235 313.5 L 230.5 315 Q 227 312.9 229 306 Z " /><path fill="rgb(224,68,63)" stroke="rgb(224,68,63)" stroke-width="0.6" opacity="1" d="M 294.5 307 L 296 308.5 L 292 311 L 290.5 313 L 293 309.5 L 294.5 307 Z " /><path fill="rgb(224,68,63)" stroke="rgb(224,68,63)" stroke-width="0.6" opacity="1" d="M 48.5 311 L 53 313 L 51.5 317 L 50 316.5 L 48.5 328 L 47 326.5 L 47 312.5 L 48.5 311 Z " /><path fill="rgb(224,68,63)" stroke="rgb(224,68,63)" stroke-width="0.6" opacity="1" d="M 85.5 314 L 85 315.5 L 87 320 L 85 318.5 L 81 317 L 80.5 321 L 79 318.5 L 85.5 314 Z " /><path fill="rgb(224,68,63)" stroke="rgb(224,68,63)" stroke-width="0.6" opacity="1" d="M 326.5 316 L 333 317 L 332.5 319 L 324 319 L 325.5 317 L 326.5 316 Z " /><path fill="rgb(224,68,63)" stroke="rgb(224,68,63)" stroke-width="0.6" opacity="1" d="M 464 317 L 466 317.5 L 466 328 L 463 327.5 L 464 324 L 462 322.5 Q 465 321.3 464 317 Z " /><path fill="rgb(224,68,63)" stroke="rgb(224,68,63)" stroke-width="0.6" opacity="1" d="M 396.5 321 L 398 327 L 394.5 329 L 394 327 Q 397 328.3 396 324.5 L 395 322.5 L 396.5 321 Z " /><path fill="rgb(224,68,63)" stroke="rgb(224,68,63)" stroke-width="0.6" opacity="1" d="M 444 324 L 447 325.5 L 444.5 329 L 439.5 330 L 440.5 328 Q 443.8 329.1 443 326.5 L 444 324 Z " /><path fill="rgb(224,68,63)" stroke="rgb(224,68,63)" stroke-width="0.6" opacity="1" d="M 264.5 329 L 268.5 331 L 270.5 330 L 272 332.5 L 268.5 334 L 263 330.5 L 264.5 329 Z " /><path fill="rgb(224,68,63)" stroke="rgb(224,68,63)" stroke-width="0.6" opacity="1" d="M 384.5 329 L 389.5 331 L 392 331.5 L 392 333 Q 398.4 331.5 398 334.5 L 394.5 336 L 392.5 335 L 390 336.5 L 391 333 Q 384.6 334.5 385 331.5 L 384.5 329 Z " /><path fill="rgb(224,68,63)" stroke="rgb(224,68,63)" stroke-width="0.6" opacity="1" d="M 325.5 330 L 328 331.5 Q 328.8 334.1 325.5 333 L 319.5 337 L 325.5 330 Z " /><path fill="rgb(224,68,63)" stroke="rgb(224,68,63)" stroke-width="0.6" opacity="1" d="M 377.5 333 Q 382.3 331.7 381 335 Q 375.8 334 373.5 337 L 374.5 335 L 377.5 333 Z " /><path fill="rgb(224,68,63)" stroke="rgb(224,68,63)" stroke-width="0.6" opacity="1" d="M 454.5 334 L 457.5 338 L 462 339 Q 463.1 342.5 455.5 341 Q 452.4 339.4 454.5 334 Z " /><path fill="rgb(224,68,63)" stroke="rgb(224,68,63)" stroke-width="0.6" opacity="1" d="M 102 339 L 104 339.5 L 102 343.5 L 103 345.5 L 100 347 Q 99.2 341.3 102 339 Z " /><path fill="rgb(224,68,63)" stroke="rgb(224,68,63)" stroke-width="0.6" opacity="1" d="M 223.5 343 Q 226.1 342.2 225 345.5 L 220.5 349 L 218 348 Q 216.3 343.5 221.5 345 L 223.5 343 Z " /><path fill="rgb(224,68,63)" stroke="rgb(224,68,63)" stroke-width="0.6" opacity="1" d="M 254.5 346 L 257 347.5 L 254.5 355 L 252 348.5 L 254.5 346 Z " /><path fill="rgb(224,68,63)" stroke="rgb(224,68,63)" stroke-width="0.6" opacity="1" d="M 463.5 346 Q 467.3 344.8 466 348.5 L 463.5 349 Q 459.8 347.8 461 351.5 Q 459.4 354.5 454 353 L 454 349 L 460.5 349 L 462.5 347 L 463.5 346 Z " /><path fill="rgb(224,68,63)" stroke="rgb(224,68,63)" stroke-width="0.6" opacity="1" d="M 204.5 348 L 210 352.5 L 204.5 354 L 203 350.5 L 204.5 348 Z " /><path fill="rgb(224,68,63)" stroke="rgb(224,68,63)" stroke-width="0.6" opacity="1" d="M 47 353 L 55 356.5 L 48.5 357 L 47 353 Z " /><path fill="rgb(224,68,63)" stroke="rgb(224,68,63)" stroke-width="0.6" opacity="1" d="M 376.5 354 L 378 355.5 L 374 358.5 Q 375.1 361.8 372.5 361 L 371 358.5 L 373.5 355 L 376.5 354 Z " /><path fill="rgb(224,68,63)" stroke="rgb(224,68,63)" stroke-width="0.6" opacity="1" d="M 452.5 355 Q 456.8 356.3 456 361 Q 460.1 359.7 459 363 L 454 359.5 L 452.5 355 Z " /><path fill="rgb(224,68,63)" stroke="rgb(224,68,63)" stroke-width="0.6" opacity="1" d="M 136.5 359 L 138 363 L 136 363 L 136 370.5 L 134 371 L 133 366.5 L 136 361.5 L 136.5 359 Z " /><path fill="rgb(224,68,63)" stroke="rgb(224,68,63)" stroke-width="0.6" opacity="1" d="M 216.5 360 Q 219.8 358.9 219 361.5 L 220 365 Q 225.2 363.3 224 367 L 220 367 L 218.5 365 L 216 364 L 215 361.5 L 216.5 360 Z " /><path fill="rgb(224,68,63)" stroke="rgb(224,68,63)" stroke-width="0.6" opacity="1" d="M 60 363 L 65.5 365 L 69.5 364 L 71 365.5 L 72 374 L 69 372.5 L 67.5 367 L 60 365 L 60 363 Z " /><path fill="rgb(224,68,63)" stroke="rgb(224,68,63)" stroke-width="0.6" opacity="1" d="M 243 363 L 247 365.5 L 245 371 L 251 370 L 251 375 Q 255.1 373.7 254 377 Q 246.8 378.5 245 373.5 L 243.5 370 L 239 369 Q 237.8 365.3 243 367 L 243 363 Z " /><path fill="rgb(224,68,63)" stroke="rgb(224,68,63)" stroke-width="0.6" opacity="1" d="M 154.5 366 L 156 369 Q 159 368 158 371 Q 155 372 156 369 L 152.5 369 L 151.5 367 L 154.5 366 Z " /><path fill="rgb(224,68,63)" stroke="rgb(224,68,63)" stroke-width="0.6" opacity="1" d="M 47 367 L 51 370 L 52.5 368 Q 56 370 51.5 372 L 50 371.5 L 49 375.5 L 52 377 Q 53.9 381.8 50.5 381 L 47 383 L 47 367 Z " /><path fill="rgb(224,68,63)" stroke="rgb(224,68,63)" stroke-width="0.6" opacity="1" d="M 232.5 367 L 235 367 L 235 373 L 229 372.5 L 232.5 367 Z " /><path fill="rgb(224,68,63)" stroke="rgb(224,68,63)" stroke-width="0.6" opacity="1" d="M 450.5 367 L 452.5 369 L 458 369 L 458 371 L 453.5 373 L 450.5 367 Z " /><path fill="rgb(224,68,63)" stroke="rgb(224,68,63)" stroke-width="0.6" opacity="1" d="M 116.5 368 Q 122.4 371.6 123 379 L 118 380 L 117 373.5 L 118 371 Q 114.2 372.5 115 369.5 L 116.5 368 Z " /><path fill="rgb(224,68,63)" stroke="rgb(224,68,63)" stroke-width="0.6" opacity="1" d="M 336 369 L 342 370.5 L 338 372.5 Q 336.3 377.3 340.5 376 Q 344.5 378.5 338.5 381 L 336 379.5 L 336 369 Z " /><path fill="rgb(224,68,63)" stroke="rgb(224,68,63)" stroke-width="0.6" opacity="1" d="M 420 371 L 428 373.5 L 424 375 L 424 373 Q 418.8 374.7 420 371 Z " /><path fill="rgb(224,68,63)" stroke="rgb(224,68,63)" stroke-width="0.6" opacity="1" d="M 321 376 L 326 379.5 Q 322.4 381.4 323.5 388 Q 318.9 385.7 320 379 L 312.5 379 L 312 377 L 320.5 378 L 321 376 Z " /><path fill="rgb(224,68,63)" stroke="rgb(224,68,63)" stroke-width="0.6" opacity="1" d="M 442.5 377 L 444 380.5 L 442 383.5 L 443 386 L 449.5 385 L 451 387.5 L 444.5 390 L 443.5 387 L 441.5 386 L 440 386.5 L 439 380.5 L 442.5 377 Z " /><path fill="rgb(224,68,63)" stroke="rgb(224,68,63)" stroke-width="0.6" opacity="1" d="M 383.5 380 L 386 381.5 L 382.5 386 L 377 383 Q 375.6 379.3 381.5 381 L 383 381.5 L 383.5 380 Z " /><path fill="rgb(224,68,63)" stroke="rgb(224,68,63)" stroke-width="0.6" opacity="1" d="M 127 382 L 130 383.5 L 130 389 Q 124.4 386.8 126 392.5 L 129 394 L 131 399 L 124.5 398 L 116.5 399 L 112.5 398 L 103.5 400 L 102.5 399 L 85 399 Q 88.3 396 87 388 Q 90 386.8 89 390.5 L 92.5 397 Q 98 398 99 394.5 L 97 390 L 100 388.5 L 101.5 387 L 101 388.5 L 103 393.5 L 102 395.5 L 106.5 397 Q 108.5 392 110.5 395 L 118 393 L 119.5 391 L 122 392 L 123.5 390 Q 127.9 387.9 127 382 Z " /><path fill="rgb(224,68,63)" stroke="rgb(224,68,63)" stroke-width="0.6" opacity="1" d="M 226.5 382 L 232.5 391 L 236 389.5 L 236.5 387 Q 240.3 385.8 239 389.5 L 237 393.5 L 237.5 396 L 245 395 L 246 399 L 233.5 399 L 230.5 397 L 225.5 400 L 215.5 399 L 205.5 400 L 192 398.5 L 202 395.5 Q 200.5 391.1 203.5 392 L 214.5 393 L 216 394.5 L 217.5 397 L 220 395.5 L 221.5 391 L 224 392 L 225.5 397 L 229 392.5 L 229 389.5 L 226.5 388 L 225 391 L 223 390.5 L 224 388.5 L 221.5 387 L 216.5 389 Q 213.5 387.5 216.5 386 L 222.5 384 Q 224.5 387 226.5 382 Z " /><path fill="rgb(224,68,63)" stroke="rgb(224,68,63)" stroke-width="0.6" opacity="1" d="M 151.5 383 Q 154.5 382.1 153 386.5 L 153.5 388 Q 150.1 387.1 152 392.5 L 149 393.5 L 150.5 397 L 154 397.5 L 152.5 399 L 143 399 L 146.5 390 L 149 391 L 148 385 L 151.5 383 Z " /><path fill="rgb(224,68,63)" stroke="rgb(224,68,63)" stroke-width="0.6" opacity="1" d="M 312 383 L 314 384.5 L 316 390 L 312 391 L 310 387.5 L 312 383 Z " /><path fill="rgb(224,68,63)" stroke="rgb(224,68,63)" stroke-width="0.6" opacity="1" d="M 277.5 385 L 283 387.5 L 279.5 393 Q 276.9 392.2 278 395.5 L 279.5 397 Q 287.8 394.8 290 398.5 Q 290.8 401.1 287.5 400 L 272 399 Q 270.5 395.2 273.5 396 L 276 395.5 L 274 391.5 L 278 389.5 L 277.5 385 Z " /><path fill="rgb(224,68,63)" stroke="rgb(224,68,63)" stroke-width="0.6" opacity="1" d="M 427.5 385 Q 431.9 383.5 431 386.5 L 427 390.5 L 428 391.5 L 429.5 397 L 431 391 Q 435.1 389.3 434 393.5 L 438 396 L 437.5 399 L 426.5 399 L 423 393.5 L 427.5 385 Z " /><path fill="rgb(224,68,63)" stroke="rgb(224,68,63)" stroke-width="0.6" opacity="1" d="M 297 386 L 300 387.5 L 302 390.5 L 301 393 L 307.5 393 L 313.5 397 L 316.5 396 L 318.5 397 L 321.5 392 L 328 393 L 329.5 397 L 334 394.5 Q 332.7 389.7 336 391 Q 335 395.3 338 396.5 Q 336 401 327.5 399 L 320.5 398 L 310.5 399 L 305.5 395 L 305 397.5 Q 305.9 400.9 300.5 399 L 300 396.5 Q 301.7 391.7 297.5 393 L 296 388.5 L 297 386 Z " /><path fill="rgb(224,68,63)" stroke="rgb(224,68,63)" stroke-width="0.6" opacity="1" d="M 185.5 388 L 189 390.5 L 187.5 394 L 186 393.5 L 184 396.5 L 186.5 398 L 189 397 L 187.5 400 L 180 397 L 177 393 Q 181.3 394 180.5 391 L 184.5 391 L 185.5 388 Z " /><path fill="rgb(224,68,63)" stroke="rgb(224,68,63)" stroke-width="0.6" opacity="1" d="M 416 388 L 420 389.5 L 418.5 393 L 416 394.5 L 417.5 397 Q 420.8 395.9 420 398.5 L 415.5 400 L 409 399 L 410 393 L 416 391.5 L 416 388 Z " /><path fill="rgb(224,68,63)" stroke="rgb(224,68,63)" stroke-width="0.6" opacity="1" d="M 61 389 L 68.5 392 L 71 391 L 71 393 Q 67.2 391.5 68 394.5 L 67 397 Q 64.8 400 57.5 399 L 56 395 L 60 394 L 61 389 Z " /><path fill="rgb(224,68,63)" stroke="rgb(224,68,63)" stroke-width="0.6" opacity="1" d="M 350 389 Q 353.5 387.9 352 395.5 L 354.5 397 Q 355.5 394 360.5 395 L 362.5 396 L 365.5 394 L 367 397 Q 374.6 398.3 378.5 395 Q 383 397 379.5 399 L 374.5 398 L 368.5 399 L 365.5 397 L 363.5 399 L 350.5 399 L 350 396.5 L 349 392.5 L 350 389 Z " /><path fill="rgb(224,68,63)" stroke="rgb(224,68,63)" stroke-width="0.6" opacity="1" d="M 268.5 391 L 270 393.5 L 266.5 399 L 262 397.5 L 263 395 Q 269.8 397.4 268.5 391 Z " /><path fill="rgb(224,68,63)" stroke="rgb(224,68,63)" stroke-width="0.6" opacity="1" d="M 81.5 392 L 83 394.5 L 79.5 399 L 74 397.5 L 78.5 396 L 81 395.5 L 80 393.5 L 81.5 392 Z " /><path fill="rgb(224,68,63)" stroke="rgb(224,68,63)" stroke-width="0.6" opacity="1" d="M 169.5 392 Q 172.5 391.2 171 395 L 167 396.5 L 165.5 399 L 161.5 397 L 158 399 L 159.5 395 L 164.5 395 L 169.5 392 Z " /><path fill="rgb(224,68,63)" stroke="rgb(224,68,63)" stroke-width="0.6" opacity="1" d="M 395 392 L 398 393.5 Q 397.2 396.1 400.5 395 L 402.5 395 L 406 397.5 L 404.5 399 L 401.5 397 L 399.5 398 L 398 395 L 395 393.5 L 395 392 Z " /><path fill="rgb(224,68,63)" stroke="rgb(224,68,63)" stroke-width="0.6" opacity="1" d="M 451.5 392 Q 455.3 390.8 454 394.5 L 456 397.5 L 454.5 399 L 446 399 L 449.5 393 L 451.5 392 Z " /><path fill="rgb(224,68,63)" stroke="rgb(224,68,63)" stroke-width="0.6" opacity="1" d="M 255.5 393 L 257 397.5 L 251.5 399 L 250.5 397 L 253 395.5 L 254.5 394 L 255.5 393 Z " /><path fill="rgb(217,66,61)" stroke="rgb(217,66,61)" stroke-width="0.6" opacity="1" d="M 58.5 111 L 451.5 111 L 452.5 112 L 454.5 111 L 462 114 L 464.5 118 L 466 119.5 L 468 122.5 L 463.5 125 Q 459.3 122.5 460 116 L 457 114.5 L 455.5 113 L 442.5 115 L 441.5 114 L 58.5 114 L 56 115 Q 57.3 118 53.5 117 L 49 119 L 45.5 128 L 43.5 129 L 43 126.5 L 47.5 118 L 50 116.5 L 51.5 114 L 58.5 111 Z " /><path fill="rgb(217,66,61)" stroke="rgb(217,66,61)" stroke-width="0.6" opacity="1" d="M 468.5 124 L 470 126.5 L 470 386.5 L 468.5 390 Q 464.8 381.8 467 367.5 L 468 365.5 L 467 363.5 L 468 360.5 L 467 359.5 L 467 221.5 L 468 219.5 L 467 212.5 L 468 209.5 L 467 198.5 L 468 195.5 L 467 190.5 L 468 188.5 L 467 180.5 L 468 178.5 L 467 177.5 L 467 139.5 L 468 134.5 L 467 127.5 L 468.5 124 Z " /><path fill="rgb(217,66,61)" stroke="rgb(217,66,61)" stroke-width="0.6" opacity="1" d="M 44 384 Q 47 382.8 46 386.5 L 47 389 Q 51.7 388.3 53 392.5 L 53 396.5 L 56 401 L 58.5 400 L 453.5 400 Q 456.5 401.5 453.5 403 L 432.5 402 L 431.5 403 L 156.5 403 L 154.5 403 L 60.5 402 L 58.5 403 L 48 396.5 L 43 386.5 L 44 384 Z " /><path fill="rgb(217,66,61)" stroke="rgb(217,66,61)" stroke-width="0.6" opacity="1" d="M 465 391 L 468 391.5 L 459.5 401 L 457 399.5 L 461.5 393 L 465 394 L 465 391 Z " /><path fill="rgb(8,21,21)" stroke="rgb(8,21,21)" stroke-width="0.6" opacity="1" d="M 61.5 109 L 451 109.5 L 61.5 110 L 61.5 109 Z " /><path fill="rgb(8,21,21)" stroke="rgb(8,21,21)" stroke-width="0.6" opacity="1" d="M 471.5 128 L 472 383.5 L 471 383.5 L 471.5 128 Z " /><path fill="rgb(8,21,21)" stroke="rgb(8,21,21)" stroke-width="0.6" opacity="1" d="M 76.5 404 L 154 404.5 L 76.5 405 L 76.5 404 Z " /><path fill="rgb(8,21,21)" stroke="rgb(8,21,21)" stroke-width="0.6" opacity="1" d="M 157.5 404 L 263 404.5 L 157.5 405 L 157.5 404 Z " /><path fill="rgb(8,21,21)" stroke="rgb(8,21,21)" stroke-width="0.6" opacity="1" d="M 265.5 404 L 431 404.5 L 265.5 405 L 265.5 404 Z " /><path fill="rgb(40,44,44)" stroke="rgb(40,44,44)" stroke-width="0.6" opacity="1" d="M 60.5 97 L 452 97.5 L 60.5 98 L 60.5 97 Z " /><path fill="rgb(40,44,44)" stroke="rgb(40,44,44)" stroke-width="0.6" opacity="1" d="M 41.5 131 L 42 382.5 L 41 382.5 L 41.5 131 Z " /><path fill="rgb(40,44,44)" stroke="rgb(40,44,44)" stroke-width="0.6" opacity="1" d="M 29.5 133 L 30 381.5 L 29 381.5 L 29.5 133 Z " /><path fill="rgb(175,59,54)" stroke="rgb(175,59,54)" stroke-width="0.6" opacity="1" d="M 42.5 131 L 43 382.5 L 42 382.5 L 42.5 131 Z " /><path fill="rgb(175,59,54)" stroke="rgb(175,59,54)" stroke-width="0.6" opacity="1" d="M 470.5 132 L 471 380.5 L 470 380.5 L 470.5 132 Z " /><path fill="rgb(75,74,74)" stroke="rgb(75,74,74)" stroke-width="0.6" opacity="1" d="M 61.5 416 L 452 416.5 L 61.5 417 L 61.5 416 Z " /><path fill="rgb(146,64,59)" stroke="rgb(146,64,59)" stroke-width="0.6" opacity="1" d="M 63.5 110 L 442 110.5 L 63.5 111 L 63.5 110 Z " /><path fill="rgb(128,55,53)" stroke="rgb(128,55,53)" stroke-width="0.6" opacity="1" d="M 76.5 403 L 155 403.5 L 76.5 404 L 76.5 403 Z " /><path fill="rgb(128,55,53)" stroke="rgb(128,55,53)" stroke-width="0.6" opacity="1" d="M 156.5 403 L 431 403.5 L 156.5 404 L 156.5 403 Z " /><path fill="rgb(225,225,224)" stroke="rgb(225,225,224)" stroke-width="0.6" opacity="1" d="M 67.5 96 L 84 96.5 L 67.5 97 L 67.5 96 Z " /><path fill="rgb(225,225,224)" stroke="rgb(225,225,224)" stroke-width="0.6" opacity="1" d="M 92.5 96 L 111 96.5 L 92.5 97 L 92.5 96 Z " /><path fill="rgb(225,225,224)" stroke="rgb(225,225,224)" stroke-width="0.6" opacity="1" d="M 114.5 96 L 143 96.5 L 114.5 97 L 114.5 96 Z " /><path fill="rgb(225,225,224)" stroke="rgb(225,225,224)" stroke-width="0.6" opacity="1" d="M 148.5 96 L 168 96.5 L 148.5 97 L 148.5 96 Z " /><path fill="rgb(225,225,224)" stroke="rgb(225,225,224)" stroke-width="0.6" opacity="1" d="M 171.5 96 L 190 96.5 L 171.5 97 L 171.5 96 Z " /><path fill="rgb(225,225,224)" stroke="rgb(225,225,224)" stroke-width="0.6" opacity="1" d="M 193.5 96 L 210 96.5 L 193.5 97 L 193.5 96 Z " /><path fill="rgb(225,225,224)" stroke="rgb(225,225,224)" stroke-width="0.6" opacity="1" d="M 214.5 96 L 233 96.5 L 214.5 97 L 214.5 96 Z " /><path fill="rgb(225,225,224)" stroke="rgb(225,225,224)" stroke-width="0.6" opacity="1" d="M 245.5 96 L 280 96.5 L 245.5 97 L 245.5 96 Z " /><path fill="rgb(225,225,224)" stroke="rgb(225,225,224)" stroke-width="0.6" opacity="1" d="M 292.5 96 L 305 96.5 L 292.5 97 L 292.5 96 Z " /><path fill="rgb(225,225,224)" stroke="rgb(225,225,224)" stroke-width="0.6" opacity="1" d="M 323.5 96 L 350 96.5 L 323.5 97 L 323.5 96 Z " /><path fill="rgb(225,225,224)" stroke="rgb(225,225,224)" stroke-width="0.6" opacity="1" d="M 357.5 96 L 400 96.5 L 357.5 97 L 357.5 96 Z " /><path fill="rgb(225,225,224)" stroke="rgb(225,225,224)" stroke-width="0.6" opacity="1" d="M 414.5 96 L 445 96.5 L 414.5 97 L 414.5 96 Z " /><path fill="rgb(225,225,224)" stroke="rgb(225,225,224)" stroke-width="0.6" opacity="1" d="M 28.5 133 L 29 143.5 L 28 143.5 L 28.5 133 Z " /><path fill="rgb(225,225,224)" stroke="rgb(225,225,224)" stroke-width="0.6" opacity="1" d="M 28.5 165 L 29 178.5 L 28 178.5 L 28.5 165 Z " /><path fill="rgb(225,225,224)" stroke="rgb(225,225,224)" stroke-width="0.6" opacity="1" d="M 28.5 218 L 29 230.5 L 28 230.5 L 28.5 218 Z " /><path fill="rgb(225,225,224)" stroke="rgb(225,225,224)" stroke-width="0.6" opacity="1" d="M 28.5 253 L 29 264.5 L 28 264.5 L 28.5 253 Z " /><path fill="rgb(133,130,131)" stroke="rgb(133,130,131)" stroke-width="0.6" opacity="1" d="M 483.5 130 L 484 381.5 L 483 381.5 L 483.5 130 Z " /><path fill="rgb(133,130,131)" stroke="rgb(133,130,131)" stroke-width="0.6" opacity="1" d="M 61.5 403 L 75 403.5 L 61.5 404 L 61.5 403 Z " /><path fill="rgb(133,130,131)" stroke="rgb(133,130,131)" stroke-width="0.6" opacity="1" d="M 432.5 403 L 451 403.5 L 432.5 404 L 432.5 403 Z " /><path fill="rgb(221,221,221)" stroke="rgb(221,221,221)" stroke-width="0.6" opacity="1" d="M 28.5 144 L 29 164.5 L 28 164.5 L 28.5 144 Z " /><path fill="rgb(221,221,221)" stroke="rgb(221,221,221)" stroke-width="0.6" opacity="1" d="M 28.5 192 L 29 217.5 L 28 217.5 L 28.5 192 Z " /><path fill="rgb(221,221,221)" stroke="rgb(221,221,221)" stroke-width="0.6" opacity="1" d="M 28.5 231 L 29 252.5 L 28 252.5 L 28.5 231 Z " /><path fill="rgb(221,221,221)" stroke="rgb(221,221,221)" stroke-width="0.6" opacity="1" d="M 28.5 265 L 29 276.5 L 28 276.5 L 28.5 265 Z " /><path fill="rgb(221,221,221)" stroke="rgb(221,221,221)" stroke-width="0.6" opacity="1" d="M 28.5 282 L 29 292.5 L 28 292.5 L 28.5 282 Z " /><path fill="rgb(221,221,221)" stroke="rgb(221,221,221)" stroke-width="0.6" opacity="1" d="M 28.5 295 L 29 355.5 L 28 355.5 L 28.5 295 Z " /><path fill="rgb(221,221,221)" stroke="rgb(221,221,221)" stroke-width="0.6" opacity="1" d="M 28.5 360 L 29 370.5 L 28 370.5 L 28.5 360 Z " /><path fill="rgb(212,108,104)" stroke="rgb(212,108,104)" stroke-width="0.6" opacity="1" d="M 60.5 402 L 75 402.5 L 60.5 403 L 60.5 402 Z " /><path fill="rgb(212,108,104)" stroke="rgb(212,108,104)" stroke-width="0.6" opacity="1" d="M 432.5 402 L 452 402.5 L 432.5 403 L 432.5 402 Z " /></svg>