<svg width="1254" height="1254" preserveAspectRatio="xMidYMid meet" viewBox="0 0 512 512" version="1.1" xmlns="http://www.w3.org/2000/svg" ><path fill="rgb(255,255,255)" stroke="rgb(255,255,255)" stroke-width="0.6" opacity="1" d="M 0 0 L 512 0 L 512 512 L 0 512 L 0 0 Z M 240 32 L 239 33 L 205 33 L 204 34 L 169 34 L 154 40 Q 141 50 137 68 L 137 77 L 135 83 Q 135 101 131 117 L 119 237 Q 117 258 126 269 Q 134 277 146 281 L 179 290 Q 190 291 197 287 Q 211 271 238 267 L 260 268 Q 273 271 283 279 Q 297 291 300 314 L 300 328 L 298 340 L 289 358 Q 277 374 253 378 Q 224 379 209 367 Q 197 359 191 346 Q 180 329 155 327 L 139 328 Q 127 331 119 338 L 108 350 L 103 362 L 101 372 Q 101 394 109 409 L 127 435 Q 163 474 234 480 L 271 478 L 299 472 Q 333 461 358 439 Q 384 416 399 382 L 407 356 L 411 330 L 411 305 Q 408 298 409 288 L 407 285 L 407 279 L 403 266 Q 393 236 373 216 Q 356 197 332 186 Q 310 176 281 174 L 250 176 L 224 184 L 229 138 L 232 135 L 256 135 L 257 134 L 362 134 L 373 133 L 383 127 L 381 122 L 369 125 L 234 125 L 228 127 L 221 136 L 214 188 Q 212 195 217 197 L 220 197 L 223 194 L 238 188 L 259 184 L 289 184 L 308 187 L 328 194 L 356 211 Q 395 241 402 305 L 401 340 L 396 364 Q 386 396 366 419 Q 345 443 313 457 L 281 467 L 251 471 L 216 469 L 194 464 Q 162 455 141 436 Q 117 417 110 381 Q 109 361 117 352 Q 126 338 147 336 Q 166 335 177 343 Q 186 350 191 362 Q 206 382 237 387 Q 268 388 285 374 Q 304 359 309 331 Q 311 294 293 278 Q 280 262 255 258 Q 237 256 225 260 L 211 266 L 190 280 L 175 280 L 166 278 L 146 272 L 137 267 Q 129 262 128 252 L 128 232 L 130 225 L 132 192 L 134 184 L 134 174 L 138 147 L 138 135 L 140 127 L 145 73 L 151 53 Q 158 44 172 42 L 268 42 L 269 41 L 287 41 L 288 42 L 344 42 L 345 41 L 368 42 L 381 47 L 387 56 L 390 70 L 390 101 L 386 116 L 388 120 L 392 117 Q 398 112 399 101 L 399 66 Q 397 55 392 48 Q 385 38 372 34 L 340 33 L 339 32 L 269 32 L 268 33 L 240 32 Z M 264 59 L 254 63 Q 246 68 244 78 Q 243 89 247 95 Q 252 103 263 105 Q 275 106 281 100 L 289 87 Q 291 73 284 68 Q 278 59 264 59 Z M 184 61 L 175 65 Q 166 70 164 82 Q 164 93 169 99 Q 174 105 184 107 Q 196 108 202 102 Q 208 97 210 87 Q 211 76 206 72 Q 200 61 184 61 Z M 341 61 L 332 66 Q 326 71 324 80 Q 323 91 328 97 Q 333 104 343 106 Q 354 107 360 102 Q 367 98 369 89 Q 371 74 364 69 L 354 61 L 341 61 Z M 172 137 L 162 141 L 153 154 Q 151 168 157 174 Q 161 180 171 182 Q 183 183 189 177 Q 195 172 197 162 Q 198 149 191 144 Q 186 136 172 137 Z M 263 198 L 255 202 Q 247 207 245 218 Q 245 230 251 237 L 264 243 Q 276 244 282 238 Q 289 233 290 222 Q 290 213 286 208 Q 280 197 263 198 Z M 167 212 L 157 216 Q 148 222 146 235 L 150 249 Q 154 256 164 258 Q 176 259 182 254 Q 189 249 191 239 Q 192 227 187 222 Q 181 212 167 212 Z M 332 229 L 322 235 Q 316 240 314 250 Q 314 260 319 266 L 333 274 Q 346 276 352 269 Q 357 264 359 256 Q 361 241 353 236 Q 347 227 332 229 Z M 357 301 L 347 305 Q 338 310 336 321 Q 335 332 340 338 Q 345 344 354 347 Q 365 348 371 344 Q 379 338 381 327 Q 382 315 376 310 Q 370 301 357 301 Z M 156 371 L 147 375 Q 139 380 137 392 Q 136 401 140 406 Q 145 414 157 417 Q 166 418 171 414 Q 179 409 182 399 Q 183 386 178 381 Q 173 370 156 371 Z M 322 377 L 311 382 Q 303 387 301 399 L 301 404 L 305 414 Q 309 421 319 423 Q 332 425 338 419 Q 344 415 346 406 Q 348 393 343 388 Q 338 377 322 377 Z M 226 407 L 219 410 Q 209 416 207 429 L 209 440 L 211 443 Q 216 449 225 452 Q 236 454 242 449 Q 250 443 253 433 Q 254 421 249 417 Q 243 406 226 407 Z " /><path fill="rgb(7,7,7)" stroke="rgb(7,7,7)" stroke-width="0.6" opacity="1" d="M 205.5 35 L 356.5 35 L 378.5 39 L 389 47.5 L 395 59.5 L 397 77.5 L 396 78.5 L 396 98.5 L 393 112 Q 389.3 113.3 391 107.5 L 393 101.5 L 393 67.5 Q 391.5 51 380.5 44 L 371.5 40 L 277.5 40 L 271.5 39 L 270.5 40 L 167.5 40 Q 155.5 43 149 51.5 L 146.5 55 L 147 53.5 L 153.5 43 L 166.5 37 L 204.5 36 L 205.5 35 Z " /><path fill="rgb(7,7,7)" stroke="rgb(7,7,7)" stroke-width="0.6" opacity="1" d="M 145.5 56 L 145 57.5 L 141 80.5 L 141 93.5 L 139 98.5 L 139 109.5 L 134 143.5 L 132 174.5 L 130 181.5 L 130 193.5 L 128 201.5 L 128 213.5 L 125 233.5 L 125 250.5 Q 126.9 262.6 134.5 269 Q 155.4 281.6 186.5 284 L 194.5 281 Q 204.9 270.9 219.5 265 L 235.5 261 L 253.5 261 Q 281.5 265 295 283.5 Q 302.3 293.2 305 307.5 L 306 329.5 Q 301.4 355.4 285.5 370 Q 269.7 384.7 238.5 384 Q 210.7 380.3 196 363.5 Q 189.6 349.9 178.5 341 Q 167.7 332.3 147.5 333 Q 125.9 334.9 116 348.5 L 109 360.5 Q 109.8 366.8 107 369.5 L 107 381.5 Q 115.4 419.6 141.5 440 Q 160.1 455.9 185.5 465 L 219.5 473 L 252.5 474 Q 322 468 359 429.5 Q 384.5 406 397 369.5 L 403 347.5 Q 401.5 336 405 329.5 L 405 305.5 L 401 279.5 L 393 255.5 Q 381.1 230.4 361.5 213 Q 345.3 198.2 323.5 189 L 299.5 182 Q 289.7 182.8 283.5 180 L 266.5 180 L 240.5 184 L 228.5 188 L 218.5 194 Q 215.3 192.3 217 185.5 L 219 180.5 L 219 169.5 L 221 163.5 L 221 153.5 Q 224.7 146.2 224 134.5 L 226.5 131 L 234.5 128 L 366.5 128 L 378 126 L 376.5 128 L 367.5 131 L 233.5 131 L 226 136.5 L 226 146.5 L 224 152.5 L 221 186.5 L 225.5 188 L 229.5 185 L 250.5 179 L 266.5 177 L 284.5 177 L 310.5 182 L 337.5 192 Q 359.6 203.4 375 221.5 L 389 240.5 L 402 270.5 L 408 300.5 L 408 330.5 L 406 347.5 L 401 367.5 L 391 392.5 Q 379 415 361.5 432 Q 336.6 455.6 300.5 468 L 268.5 475 L 238.5 477 L 200.5 472 L 170.5 462 Q 145.2 450.8 128 431.5 L 115 414.5 L 109 401.5 L 105 386.5 L 105 364.5 L 111 349.5 L 118.5 341 Q 130.9 329.4 155.5 330 Q 176.5 332 187 344.5 Q 193.3 358.2 204.5 367 Q 220.1 382.9 253.5 381 L 272.5 375 L 291 359.5 Q 305.4 343.4 303 310.5 Q 299.2 289.3 285.5 278 Q 275.6 268.9 260.5 265 L 236.5 264 Q 210.5 268 196.5 284 L 180.5 287 L 171.5 286 L 168.5 284 L 163.5 284 L 150.5 280 L 133.5 272 L 128 266.5 Q 120.6 256.9 122 238.5 L 124 230.5 L 124 215.5 L 126 194.5 L 128 188.5 L 128 173.5 L 130 165.5 L 130 153.5 L 132 146.5 L 140 67.5 Q 140.7 59.7 145.5 56 Z " /><path fill="rgb(7,7,7)" stroke="rgb(7,7,7)" stroke-width="0.6" opacity="1" d="M 261.5 62 Q 265.3 61 264 64 Q 255.6 63.8 252 69.5 L 249.5 73 L 250 71.5 L 254.5 65 L 261.5 62 Z " /><path fill="rgb(7,7,7)" stroke="rgb(7,7,7)" stroke-width="0.6" opacity="1" d="M 268 62 Q 276.6 62.1 281 67.5 Q 287.4 73.1 286 86.5 Q 283.5 95.5 276.5 100 L 265.5 103 Q 253.8 101.8 249 93.5 L 251 92 L 253.5 96 Q 258.2 100.8 267.5 101 L 280 94.5 Q 285.7 89.2 284 76.5 L 277.5 67 L 268 64 L 268 62 Z " /><path fill="rgb(7,7,7)" stroke="rgb(7,7,7)" stroke-width="0.6" opacity="1" d="M 346.5 62 L 351 63 L 350.5 65 L 341.5 65 L 330.5 73 L 331 71.5 L 335.5 66 L 346.5 62 Z " /><path fill="rgb(7,7,7)" stroke="rgb(7,7,7)" stroke-width="0.6" opacity="1" d="M 181.5 64 Q 186.3 62.7 185 66 Q 175.1 66.8 171 74.5 Q 167.7 79.4 169 88 Q 165.3 89.1 167 80.5 Q 168.8 71.3 175.5 67 L 181.5 64 Z " /><path fill="rgb(7,7,7)" stroke="rgb(7,7,7)" stroke-width="0.6" opacity="1" d="M 189 64 Q 199.3 65 204 72.5 Q 208.3 77.6 207 88.5 Q 204.5 97.5 197.5 102 L 194 101.5 L 201 96.5 Q 206.5 91.5 205 79.5 Q 202.6 70.9 195.5 67 L 189 66 L 189 64 Z " /><path fill="rgb(7,7,7)" stroke="rgb(7,7,7)" stroke-width="0.6" opacity="1" d="M 353 64 L 362 69.5 Q 368.2 74.3 367 86.5 Q 365.1 95.6 358.5 100 L 351.5 102 L 352.5 100 Q 359.7 98.2 363 92.5 Q 366.3 87.8 365 78.5 L 356.5 67 L 353 66 L 353 64 Z " /><path fill="rgb(7,7,7)" stroke="rgb(7,7,7)" stroke-width="0.6" opacity="1" d="M 168 90 L 170 91.5 L 174.5 98 L 180.5 102 L 184 102 Q 185.3 105 181.5 104 L 176.5 102 L 170 95.5 L 168 90 Z " /><path fill="rgb(7,7,7)" stroke="rgb(7,7,7)" stroke-width="0.6" opacity="1" d="M 329 92 L 331 93.5 L 336.5 100 L 332 97.5 L 329 92 Z " /><path fill="rgb(7,7,7)" stroke="rgb(7,7,7)" stroke-width="0.6" opacity="1" d="M 181.5 141 Q 188.7 141.8 191 147.5 L 192 150.5 L 189 148.5 L 186.5 145 L 181.5 141 Z " /><path fill="rgb(7,7,7)" stroke="rgb(7,7,7)" stroke-width="0.6" opacity="1" d="M 165.5 142 L 158.5 150 L 159 148.5 L 161.5 144 L 165.5 142 Z " /><path fill="rgb(7,7,7)" stroke="rgb(7,7,7)" stroke-width="0.6" opacity="1" d="M 158.5 169 Q 161.5 175 168 176 L 166.5 178 L 159 171.5 L 158.5 169 Z " /><path fill="rgb(7,7,7)" stroke="rgb(7,7,7)" stroke-width="0.6" opacity="1" d="M 256.5 204 L 258 204.5 L 253 208.5 L 250 217 Q 247 218.3 248 214.5 L 253.5 206 L 256.5 204 Z " /><path fill="rgb(7,7,7)" stroke="rgb(7,7,7)" stroke-width="0.6" opacity="1" d="M 277.5 204 L 283 207.5 L 285 212.5 L 283 211.5 L 278.5 205 L 277.5 204 Z " /><path fill="rgb(7,7,7)" stroke="rgb(7,7,7)" stroke-width="0.6" opacity="1" d="M 176.5 217 L 184 222.5 L 185 224.5 L 179.5 220 L 176.5 217 Z " /><path fill="rgb(7,7,7)" stroke="rgb(7,7,7)" stroke-width="0.6" opacity="1" d="M 248 224 Q 251 222.8 250 226.5 L 254.5 234 L 260 237.5 L 257.5 238 L 250 231.5 L 248 224 Z " /><path fill="rgb(7,7,7)" stroke="rgb(7,7,7)" stroke-width="0.6" opacity="1" d="M 283.5 230 L 283 231.5 L 279.5 236 L 277.5 237 L 283.5 230 Z " /><path fill="rgb(7,7,7)" stroke="rgb(7,7,7)" stroke-width="0.6" opacity="1" d="M 328.5 233 L 331 233.5 L 322 240.5 L 320 246 L 318 244.5 L 326.5 234 L 328.5 233 Z " /><path fill="rgb(7,7,7)" stroke="rgb(7,7,7)" stroke-width="0.6" opacity="1" d="M 345.5 234 L 352 238.5 L 353 240.5 L 347.5 236 L 345.5 234 Z " /><path fill="rgb(7,7,7)" stroke="rgb(7,7,7)" stroke-width="0.6" opacity="1" d="M 151.5 242 L 157.5 250 Q 162.9 254.8 174 253 L 173.5 255 L 163.5 255 Q 155.6 252.9 152 246.5 L 151.5 242 Z " /><path fill="rgb(7,7,7)" stroke="rgb(7,7,7)" stroke-width="0.6" opacity="1" d="M 185.5 243 L 186 245.5 L 181.5 251 L 175.5 253 L 176.5 251 L 184 245.5 L 185.5 243 Z " /><path fill="rgb(7,7,7)" stroke="rgb(7,7,7)" stroke-width="0.6" opacity="1" d="M 354.5 257 L 355 260.5 L 347.5 269 L 342.5 270 L 343.5 268 L 351 263.5 L 354.5 257 Z " /><path fill="rgb(7,7,7)" stroke="rgb(7,7,7)" stroke-width="0.6" opacity="1" d="M 321.5 262 L 326.5 268 L 321 263.5 L 321.5 262 Z " /><path fill="rgb(7,7,7)" stroke="rgb(7,7,7)" stroke-width="0.6" opacity="1" d="M 355.5 304 Q 363.1 302.5 362 306 Q 347.7 304.9 343 314.5 L 340.5 320 L 340 316.5 L 347.5 307 L 355.5 304 Z " /><path fill="rgb(7,7,7)" stroke="rgb(7,7,7)" stroke-width="0.6" opacity="1" d="M 364 305 Q 370.6 306.1 374 311.5 L 375 313.5 L 369.5 309 L 364 307 L 364 305 Z " /><path fill="rgb(7,7,7)" stroke="rgb(7,7,7)" stroke-width="0.6" opacity="1" d="M 374.5 334 L 374 335.5 L 371.5 340 L 360.5 345 L 356 345 Q 354.6 341 361.5 343 Q 370.2 340.7 374.5 334 Z " /><path fill="rgb(7,7,7)" stroke="rgb(7,7,7)" stroke-width="0.6" opacity="1" d="M 343.5 335 L 349.5 342 L 343 337.5 L 343.5 335 Z " /><path fill="rgb(7,7,7)" stroke="rgb(7,7,7)" stroke-width="0.6" opacity="1" d="M 154.5 374 L 156 376 Q 148.6 376.6 145 382.5 L 142 391 L 140 389.5 Q 141.9 379.9 149.5 376 L 154.5 374 Z " /><path fill="rgb(7,7,7)" stroke="rgb(7,7,7)" stroke-width="0.6" opacity="1" d="M 168.5 376 L 174 379 L 177 385.5 L 175 384.5 L 170.5 378 L 168.5 376 Z " /><path fill="rgb(7,7,7)" stroke="rgb(7,7,7)" stroke-width="0.6" opacity="1" d="M 320 380 L 328.5 380 L 340 387.5 Q 345.5 392.8 344 404 L 342 403.5 L 342 395.5 L 334.5 385 Q 329.8 380.5 320 382 L 320 380 Z " /><path fill="rgb(7,7,7)" stroke="rgb(7,7,7)" stroke-width="0.6" opacity="1" d="M 314.5 383 L 307.5 391 L 308 389.5 L 312.5 384 L 314.5 383 Z " /><path fill="rgb(7,7,7)" stroke="rgb(7,7,7)" stroke-width="0.6" opacity="1" d="M 305.5 395 L 306 405.5 L 304 404.5 Q 302 397 305.5 395 Z " /><path fill="rgb(7,7,7)" stroke="rgb(7,7,7)" stroke-width="0.6" opacity="1" d="M 177 396 Q 180 394.8 179 398.5 Q 176.9 406.9 170.5 411 L 165 413 L 166.5 411 L 174 405.5 L 177 396 Z " /><path fill="rgb(7,7,7)" stroke="rgb(7,7,7)" stroke-width="0.6" opacity="1" d="M 141.5 399 L 143 403.5 L 148 408.5 L 146.5 409 L 141 402.5 L 141.5 399 Z " /><path fill="rgb(7,7,7)" stroke="rgb(7,7,7)" stroke-width="0.6" opacity="1" d="M 306.5 407 L 313.5 416 L 319 418 L 317.5 420 L 307 411.5 L 306.5 407 Z " /><path fill="rgb(7,7,7)" stroke="rgb(7,7,7)" stroke-width="0.6" opacity="1" d="M 340 408 L 342 409.5 L 334.5 418 L 330.5 419 L 331.5 417 L 340 410.5 L 340 408 Z " /><path fill="rgb(7,7,7)" stroke="rgb(7,7,7)" stroke-width="0.6" opacity="1" d="M 221.5 412 L 219.5 415 L 216 417.5 Q 211.3 422.3 212 432.5 Q 213.2 440.3 218.5 444 L 223 446 L 221.5 448 L 213 440.5 L 210 428.5 Q 211.1 417.6 218.5 413 L 221.5 412 Z " /><path fill="rgb(7,7,7)" stroke="rgb(7,7,7)" stroke-width="0.6" opacity="1" d="M 239.5 412 L 247 417.5 Q 251 422.5 250 432.5 Q 248.5 441 242.5 445 L 240.5 446 L 245 440.5 Q 249.3 435.3 248 424.5 L 239.5 412 Z " /><path fill="rgb(32,32,32)" stroke="rgb(32,32,32)" stroke-width="0.6" opacity="1" d="M 185.5 35 L 205 35.5 L 185.5 36 L 185.5 35 Z " /><path fill="rgb(32,32,32)" stroke="rgb(32,32,32)" stroke-width="0.6" opacity="1" d="M 154.5 46 L 149.5 52 L 154.5 46 Z " /><path fill="rgb(32,32,32)" stroke="rgb(32,32,32)" stroke-width="0.6" opacity="1" d="M 146.5 52 L 148 54.5 L 145.5 60 L 144.5 57 L 143 57.5 L 146.5 52 Z " /><path fill="rgb(32,32,32)" stroke="rgb(32,32,32)" stroke-width="0.6" opacity="1" d="M 335.5 68 L 331 73.5 L 329 80 Q 326 81.3 327 77.5 L 330.5 71 L 331.5 72 L 335.5 68 Z " /><path fill="rgb(32,32,32)" stroke="rgb(32,32,32)" stroke-width="0.6" opacity="1" d="M 249.5 70 L 251 72.5 L 247.5 78 L 246 77.5 L 249.5 70 Z " /><path fill="rgb(32,32,32)" stroke="rgb(32,32,32)" stroke-width="0.6" opacity="1" d="M 396.5 78 L 397 94.5 L 396 94.5 L 396.5 78 Z " /><path fill="rgb(32,32,32)" stroke="rgb(32,32,32)" stroke-width="0.6" opacity="1" d="M 326 82 Q 329.3 80.7 328 85.5 L 330 92 Q 327 93.3 328 89.5 L 326 82 Z " /><path fill="rgb(32,32,32)" stroke="rgb(32,32,32)" stroke-width="0.6" opacity="1" d="M 341.5 100 L 350.5 101 L 352 100.5 L 351.5 102 L 353 102.5 L 341 103 L 341.5 100 Z " /><path fill="rgb(32,32,32)" stroke="rgb(32,32,32)" stroke-width="0.6" opacity="1" d="M 236.5 127 L 269 127.5 L 236.5 128 L 236.5 127 Z " /><path fill="rgb(32,32,32)" stroke="rgb(32,32,32)" stroke-width="0.6" opacity="1" d="M 277.5 127 L 288 127.5 L 277.5 128 L 277.5 127 Z " /><path fill="rgb(32,32,32)" stroke="rgb(32,32,32)" stroke-width="0.6" opacity="1" d="M 290.5 127 L 367 127.5 L 290.5 128 L 290.5 127 Z " /><path fill="rgb(32,32,32)" stroke="rgb(32,32,32)" stroke-width="0.6" opacity="1" d="M 233.5 131 L 357 131.5 L 233.5 132 L 233.5 131 Z " /><path fill="rgb(32,32,32)" stroke="rgb(32,32,32)" stroke-width="0.6" opacity="1" d="M 230.5 132 L 232 132.5 L 227 136.5 L 226.5 139 L 226 136.5 L 230.5 132 Z " /><path fill="rgb(32,32,32)" stroke="rgb(32,32,32)" stroke-width="0.6" opacity="1" d="M 171.5 139 L 173 141 L 165.5 144 L 163.5 143 L 162 143.5 L 171.5 139 Z " /><path fill="rgb(32,32,32)" stroke="rgb(32,32,32)" stroke-width="0.6" opacity="1" d="M 159.5 146 L 159 147.5 L 160 149.5 L 157 157 L 155 155.5 L 159.5 146 Z " /><path fill="rgb(32,32,32)" stroke="rgb(32,32,32)" stroke-width="0.6" opacity="1" d="M 155 161 Q 158.3 159.7 157 164.5 L 158 166.5 L 157.5 168 L 160 169.5 L 159 171.5 L 163.5 177 Q 155.7 172.1 155 161 Z " /><path fill="rgb(32,32,32)" stroke="rgb(32,32,32)" stroke-width="0.6" opacity="1" d="M 191 165 L 194 165.5 L 188.5 174 Q 184.7 171.7 190 169.5 L 191 165 Z " /><path fill="rgb(32,32,32)" stroke="rgb(32,32,32)" stroke-width="0.6" opacity="1" d="M 183.5 175 L 187 175.5 Q 182 180 172.5 180 L 168 179 Q 166.8 176 170.5 177 L 177.5 178 L 183.5 175 Z " /><path fill="rgb(32,32,32)" stroke="rgb(32,32,32)" stroke-width="0.6" opacity="1" d="M 266.5 180 L 284 180.5 L 266.5 181 L 266.5 180 Z " /><path fill="rgb(32,32,32)" stroke="rgb(32,32,32)" stroke-width="0.6" opacity="1" d="M 221.5 181 L 223.5 187 L 228.5 185 L 228.5 186 L 222.5 188 Q 219.4 186.4 221.5 181 Z " /><path fill="rgb(32,32,32)" stroke="rgb(32,32,32)" stroke-width="0.6" opacity="1" d="M 264.5 200 Q 276.8 198.7 281 205.5 L 280.5 208 Q 276.8 206 278.5 204 L 276.5 205 Q 273.3 200.7 264.5 202 L 258.5 205 L 256.5 204 Q 258.3 206.5 253.5 209 L 254 205.5 L 256.5 203 L 264.5 200 Z " /><path fill="rgb(32,32,32)" stroke="rgb(32,32,32)" stroke-width="0.6" opacity="1" d="M 364.5 210 L 372.5 219 L 364.5 210 Z " /><path fill="rgb(32,32,32)" stroke="rgb(32,32,32)" stroke-width="0.6" opacity="1" d="M 361.5 213 L 368.5 221 L 361.5 213 Z " /><path fill="rgb(32,32,32)" stroke="rgb(32,32,32)" stroke-width="0.6" opacity="1" d="M 164.5 215 Q 174.4 213.6 179 217.5 L 176.5 219 Q 173.3 215.2 164.5 217 Q 157.3 218.8 154 224.5 L 152 231 Q 148.2 232.5 149 229.5 L 153.5 222 Q 155.3 224.8 157 220.5 L 157.5 218 L 164.5 215 Z " /><path fill="rgb(32,32,32)" stroke="rgb(32,32,32)" stroke-width="0.6" opacity="1" d="M 180.5 218 L 188 228.5 L 185 228.5 L 179 220.5 L 184 223.5 L 180.5 218 Z " /><path fill="rgb(32,32,32)" stroke="rgb(32,32,32)" stroke-width="0.6" opacity="1" d="M 123.5 220 L 124 230.5 L 123 230.5 L 123.5 220 Z " /><path fill="rgb(32,32,32)" stroke="rgb(32,32,32)" stroke-width="0.6" opacity="1" d="M 285.5 224 L 287 224.5 L 283.5 232 L 281 231.5 L 285.5 224 Z " /><path fill="rgb(32,32,32)" stroke="rgb(32,32,32)" stroke-width="0.6" opacity="1" d="M 186 231 Q 189 229.8 188 233.5 L 189 236.5 L 186.5 244 L 184 243.5 L 187 233.5 L 186 231 Z " /><path fill="rgb(32,32,32)" stroke="rgb(32,32,32)" stroke-width="0.6" opacity="1" d="M 339 231 L 347 233.5 L 345 234.5 L 345.5 236 L 339 233 L 339 231 Z " /><path fill="rgb(32,32,32)" stroke="rgb(32,32,32)" stroke-width="0.6" opacity="1" d="M 125.5 233 L 126 250.5 L 125 250.5 L 125.5 233 Z " /><path fill="rgb(32,32,32)" stroke="rgb(32,32,32)" stroke-width="0.6" opacity="1" d="M 282.5 233 L 279.5 237 L 266.5 241 L 258 238.5 L 261.5 237 L 268.5 239 L 278.5 234 L 278.5 236 L 282.5 233 Z " /><path fill="rgb(32,32,32)" stroke="rgb(32,32,32)" stroke-width="0.6" opacity="1" d="M 347.5 236 L 351.5 240 L 354 240.5 L 357 248.5 L 354 249 Q 352.9 239.9 347.5 236 Z " /><path fill="rgb(32,32,32)" stroke="rgb(32,32,32)" stroke-width="0.6" opacity="1" d="M 317.5 256 L 320 257.5 L 322 261.5 L 321 263.5 L 325.5 267 L 327.5 267 L 335 269 Q 336.5 272.8 333.5 272 Q 324.6 269.9 320 263.5 L 317.5 256 Z " /><path fill="rgb(32,32,32)" stroke="rgb(32,32,32)" stroke-width="0.6" opacity="1" d="M 239.5 260 L 250 260.5 L 239.5 261 L 239.5 260 Z " /><path fill="rgb(32,32,32)" stroke="rgb(32,32,32)" stroke-width="0.6" opacity="1" d="M 285.5 278 L 291.5 285 L 285.5 278 Z " /><path fill="rgb(32,32,32)" stroke="rgb(32,32,32)" stroke-width="0.6" opacity="1" d="M 404.5 305 L 405 329.5 L 404 329.5 L 404.5 305 Z " /><path fill="rgb(32,32,32)" stroke="rgb(32,32,32)" stroke-width="0.6" opacity="1" d="M 370.5 307 L 377 315.5 L 375.5 318 L 369 309.5 L 374 312.5 L 370.5 307 Z " /><path fill="rgb(32,32,32)" stroke="rgb(32,32,32)" stroke-width="0.6" opacity="1" d="M 408.5 309 L 409 325.5 L 408 325.5 L 408.5 309 Z " /><path fill="rgb(32,32,32)" stroke="rgb(32,32,32)" stroke-width="0.6" opacity="1" d="M 339.5 319 L 342 319.5 L 341 329.5 L 344 334.5 L 342.5 337 Q 338.4 331.6 338 322.5 L 339.5 319 Z " /><path fill="rgb(32,32,32)" stroke="rgb(32,32,32)" stroke-width="0.6" opacity="1" d="M 349.5 340 Q 353.1 343.9 362 342.5 L 356 343 L 355.5 345 L 348 341.5 L 349.5 340 Z " /><path fill="rgb(32,32,32)" stroke="rgb(32,32,32)" stroke-width="0.6" opacity="1" d="M 121.5 343 L 116.5 349 L 121.5 343 Z " /><path fill="rgb(32,32,32)" stroke="rgb(32,32,32)" stroke-width="0.6" opacity="1" d="M 197.5 359 L 204.5 367 L 197.5 359 Z " /><path fill="rgb(32,32,32)" stroke="rgb(32,32,32)" stroke-width="0.6" opacity="1" d="M 290.5 359 L 285.5 365 L 290.5 359 Z " /><path fill="rgb(32,32,32)" stroke="rgb(32,32,32)" stroke-width="0.6" opacity="1" d="M 107.5 369 L 108 381.5 L 107 381.5 L 107.5 369 Z " /><path fill="rgb(32,32,32)" stroke="rgb(32,32,32)" stroke-width="0.6" opacity="1" d="M 104.5 370 L 105 382.5 L 104 382.5 L 104.5 370 Z " /><path fill="rgb(32,32,32)" stroke="rgb(32,32,32)" stroke-width="0.6" opacity="1" d="M 161 373 L 170 376.5 L 167.5 377 L 161 374.5 L 161 373 Z " /><path fill="rgb(32,32,32)" stroke="rgb(32,32,32)" stroke-width="0.6" opacity="1" d="M 171.5 377 L 173.5 381 L 176 381.5 L 174.5 383 L 170 378.5 L 171.5 377 Z " /><path fill="rgb(32,32,32)" stroke="rgb(32,32,32)" stroke-width="0.6" opacity="1" d="M 319.5 380 L 320 383 L 313.5 386 L 314.5 382 L 319.5 380 Z " /><path fill="rgb(32,32,32)" stroke="rgb(32,32,32)" stroke-width="0.6" opacity="1" d="M 307.5 389 L 310 389.5 L 306.5 397 L 305.5 395 L 304 395.5 L 307.5 389 Z " /><path fill="rgb(32,32,32)" stroke="rgb(32,32,32)" stroke-width="0.6" opacity="1" d="M 140.5 391 L 142 391.5 L 141 395.5 L 143 399.5 L 141 399.5 L 140.5 401 L 139 392.5 L 140.5 391 Z " /><path fill="rgb(32,32,32)" stroke="rgb(32,32,32)" stroke-width="0.6" opacity="1" d="M 148.5 408 Q 152.2 413.8 163.5 412 L 165 411.5 L 163.5 414 Q 151.3 415.7 147 409.5 L 148.5 408 Z " /><path fill="rgb(32,32,32)" stroke="rgb(32,32,32)" stroke-width="0.6" opacity="1" d="M 227.5 409 L 229 411 L 221.5 414 L 219 412.5 L 227.5 409 Z " /><path fill="rgb(32,32,32)" stroke="rgb(32,32,32)" stroke-width="0.6" opacity="1" d="M 339.5 409 L 341 411.5 L 334 415.5 L 339.5 409 Z " /><path fill="rgb(32,32,32)" stroke="rgb(32,32,32)" stroke-width="0.6" opacity="1" d="M 237.5 410 L 242 412.5 L 240 413.5 L 240.5 415 L 237 412.5 L 237.5 410 Z " /><path fill="rgb(32,32,32)" stroke="rgb(32,32,32)" stroke-width="0.6" opacity="1" d="M 307.5 412 L 312.5 418 L 307.5 412 Z " /><path fill="rgb(32,32,32)" stroke="rgb(32,32,32)" stroke-width="0.6" opacity="1" d="M 352.5 434 L 347.5 440 L 352.5 434 Z " /><path fill="rgb(32,32,32)" stroke="rgb(32,32,32)" stroke-width="0.6" opacity="1" d="M 244.5 440 L 240.5 447 L 227.5 450 L 223 449 L 223.5 446 L 232.5 448 Q 240.5 446 244.5 440 Z " /><path fill="rgb(32,32,32)" stroke="rgb(32,32,32)" stroke-width="0.6" opacity="1" d="M 233.5 473 L 253 473.5 L 233.5 474 L 233.5 473 Z " /><path fill="rgb(58,120,187)" stroke="rgb(58,120,187)" stroke-width="0.6" opacity="1" d="M 262.5 65 L 268.5 66 L 270.5 65 L 280 72.5 L 283 83.5 L 281 85.5 L 279 94 L 269.5 99 L 264.5 98 L 262.5 99 L 253 93.5 L 249 85.5 L 250 80.5 L 250 78.5 L 250 75.5 L 257.5 67 L 262.5 65 Z " /><path fill="rgb(58,120,187)" stroke="rgb(58,120,187)" stroke-width="0.6" opacity="1" d="M 169.5 143 L 171.5 143 Q 184.7 141.3 188 149.5 L 191 155.5 L 191 163.5 L 185.5 172 L 184 174 L 181.5 174 L 173 177 Q 174.3 173.3 168.5 175 L 164 173 L 158 163.5 L 160 151.5 L 167.5 144 L 169.5 143 Z " /><path fill="rgb(58,120,187)" stroke="rgb(58,120,187)" stroke-width="0.6" opacity="1" d="M 165.5 218 L 170.5 219 L 172.5 219 L 182 224 L 185 232.5 L 184 237.5 L 184 239.5 L 177.5 249 L 172.5 252 L 165.5 252 L 155 244.5 L 152 239.5 L 152 231.5 L 159.5 221 L 165.5 218 Z " /><path fill="rgb(222,69,64)" stroke="rgb(222,69,64)" stroke-width="0.6" opacity="1" d="M 181.5 68 L 192.5 68 L 202 76.5 L 204 81.5 L 203 85.5 Q 205.5 87 202 88.5 Q 201.1 95.1 196.5 98 Q 192.2 101.7 183.5 101 L 173 93.5 L 170 82.5 L 174 74.5 L 179.5 69 L 181.5 68 Z " /><path fill="rgb(222,69,64)" stroke="rgb(222,69,64)" stroke-width="0.6" opacity="1" d="M 335.5 235 Q 347.3 234.7 351 242.5 L 353 252.5 L 351 259.5 L 347.5 264 Q 343.5 268 335.5 268 Q 325.7 266.8 322 259.5 L 321 248.5 Q 322.2 240.2 328.5 237 L 335.5 235 Z " /><path fill="rgb(222,69,64)" stroke="rgb(222,69,64)" stroke-width="0.6" opacity="1" d="M 320.5 384 Q 333.9 383.1 338 391.5 L 340 402.5 Q 339 411.5 332.5 415 L 322.5 417 Q 313.5 416 310 409.5 L 307 400.5 L 310 391.5 L 316.5 385 L 320.5 384 Z " /><path fill="rgb(245,188,49)" stroke="rgb(245,188,49)" stroke-width="0.6" opacity="1" d="M 342.5 67 Q 355.8 65.8 360 73.5 L 363 84.5 Q 361.8 92.3 356.5 96 Q 352.1 100 342.5 99 L 333 92.5 Q 329.7 87.8 331 78.5 L 336.5 70 L 342.5 67 Z " /><path fill="rgb(245,188,49)" stroke="rgb(245,188,49)" stroke-width="0.6" opacity="1" d="M 356.5 308 L 362.5 308 L 372 314.5 Q 375.8 319.2 374 329.5 L 367.5 338 Q 362.8 341.3 353.5 340 L 345 333.5 Q 341.9 329.1 343 320.5 L 350.5 310 L 356.5 308 Z " /><path fill="rgb(245,188,49)" stroke="rgb(245,188,49)" stroke-width="0.6" opacity="1" d="M 228.5 413 Q 238.9 413.1 243 419.5 Q 246.7 423.3 246 431.5 L 240.5 442 Q 236 446.5 225.5 445 L 217 439.5 Q 213.2 434.8 215 424.5 L 219.5 417 L 228.5 413 Z " /><path fill="rgb(110,109,108)" stroke="rgb(110,109,108)" stroke-width="0.6" opacity="1" d="M 215.5 34 L 233 34.5 L 215.5 35 L 215.5 34 Z " /><path fill="rgb(110,109,108)" stroke="rgb(110,109,108)" stroke-width="0.6" opacity="1" d="M 342.5 34 L 354 34.5 L 342.5 35 L 342.5 34 Z " /><path fill="rgb(110,109,108)" stroke="rgb(110,109,108)" stroke-width="0.6" opacity="1" d="M 194.5 40 L 275 40.5 L 194.5 41 L 194.5 40 Z " /><path fill="rgb(110,109,108)" stroke="rgb(110,109,108)" stroke-width="0.6" opacity="1" d="M 281.5 40 L 366 40.5 L 281.5 41 L 281.5 40 Z " /><path fill="rgb(110,109,108)" stroke="rgb(110,109,108)" stroke-width="0.6" opacity="1" d="M 175.5 71 L 173 74.5 L 171.5 78 L 171 76.5 L 175.5 71 Z " /><path fill="rgb(110,109,108)" stroke="rgb(110,109,108)" stroke-width="0.6" opacity="1" d="M 236.5 126 L 366 126.5 L 236.5 127 L 236.5 126 Z " /><path fill="rgb(110,109,108)" stroke="rgb(110,109,108)" stroke-width="0.6" opacity="1" d="M 249.5 132 L 357 132.5 L 249.5 133 L 249.5 132 Z " /><path fill="rgb(110,109,108)" stroke="rgb(110,109,108)" stroke-width="0.6" opacity="1" d="M 126.5 235 L 127 250.5 L 126 250.5 L 126.5 235 Z " /><path fill="rgb(110,109,108)" stroke="rgb(110,109,108)" stroke-width="0.6" opacity="1" d="M 350.5 261 L 345.5 267 L 344 266.5 L 350.5 261 Z " /><path fill="rgb(110,109,108)" stroke="rgb(110,109,108)" stroke-width="0.6" opacity="1" d="M 330.5 267 L 341 268.5 L 332.5 269 L 330.5 267 Z " /><path fill="rgb(110,109,108)" stroke="rgb(110,109,108)" stroke-width="0.6" opacity="1" d="M 403.5 309 L 404 321.5 L 403 321.5 L 403.5 309 Z " /><path fill="rgb(110,109,108)" stroke="rgb(110,109,108)" stroke-width="0.6" opacity="1" d="M 103.5 370 L 104 381.5 L 103 381.5 L 103.5 370 Z " /><path fill="rgb(110,109,108)" stroke="rgb(110,109,108)" stroke-width="0.6" opacity="1" d="M 318.5 383 L 329 383.5 L 318.5 384 L 318.5 383 Z " /><path fill="rgb(110,109,108)" stroke="rgb(110,109,108)" stroke-width="0.6" opacity="1" d="M 131.5 428 L 139.5 437 L 131.5 428 Z " /><path fill="rgb(110,109,108)" stroke="rgb(110,109,108)" stroke-width="0.6" opacity="1" d="M 131.5 436 L 136.5 442 L 131.5 436 Z " /><path fill="rgb(110,109,108)" stroke="rgb(110,109,108)" stroke-width="0.6" opacity="1" d="M 237.5 472 L 251 472.5 L 237.5 473 L 237.5 472 Z " /><path fill="rgb(58,57,58)" stroke="rgb(58,57,58)" stroke-width="0.6" opacity="1" d="M 174.5 35 L 185 35.5 L 174.5 36 L 174.5 35 Z " /><path fill="rgb(58,57,58)" stroke="rgb(58,57,58)" stroke-width="0.6" opacity="1" d="M 392.5 71 L 393 98.5 L 392 98.5 L 392.5 71 Z " /><path fill="rgb(58,57,58)" stroke="rgb(58,57,58)" stroke-width="0.6" opacity="1" d="M 302.5 313 L 303 327.5 L 302 327.5 L 302.5 313 Z " /><path fill="rgb(58,57,58)" stroke="rgb(58,57,58)" stroke-width="0.6" opacity="1" d="M 306.5 314 L 307 327.5 L 306 327.5 L 306.5 314 Z " /><path fill="rgb(58,57,58)" stroke="rgb(58,57,58)" stroke-width="0.6" opacity="1" d="M 144.5 329 L 155 329.5 L 144.5 330 L 144.5 329 Z " /><path fill="rgb(58,57,58)" stroke="rgb(58,57,58)" stroke-width="0.6" opacity="1" d="M 291.5 357 L 281.5 368 L 291.5 357 Z " /><path fill="rgb(58,57,58)" stroke="rgb(58,57,58)" stroke-width="0.6" opacity="1" d="M 238.5 380 L 250 380.5 L 238.5 381 L 238.5 380 Z " /><path fill="rgb(58,57,58)" stroke="rgb(58,57,58)" stroke-width="0.6" opacity="1" d="M 142.5 405 L 147.5 411 L 142.5 405 Z " /><path fill="rgb(58,57,58)" stroke="rgb(58,57,58)" stroke-width="0.6" opacity="1" d="M 366.5 420 L 353.5 434 L 366.5 420 Z " /><path fill="rgb(58,57,58)" stroke="rgb(58,57,58)" stroke-width="0.6" opacity="1" d="M 369.5 424 L 361.5 433 L 369.5 424 Z " /><path fill="rgb(58,57,58)" stroke="rgb(58,57,58)" stroke-width="0.6" opacity="1" d="M 133.5 437 L 138.5 443 L 133.5 437 Z " /><path fill="rgb(84,84,84)" stroke="rgb(84,84,84)" stroke-width="0.6" opacity="1" d="M 233.5 34 L 263 34.5 L 233.5 35 L 233.5 34 Z " /><path fill="rgb(84,84,84)" stroke="rgb(84,84,84)" stroke-width="0.6" opacity="1" d="M 267.5 34 L 342 34.5 L 267.5 35 L 267.5 34 Z " /><path fill="rgb(84,84,84)" stroke="rgb(84,84,84)" stroke-width="0.6" opacity="1" d="M 181.5 40 L 194 40.5 L 181.5 41 L 181.5 40 Z " /><path fill="rgb(84,84,84)" stroke="rgb(84,84,84)" stroke-width="0.6" opacity="1" d="M 397.5 70 L 398 88.5 L 397 88.5 L 397.5 70 Z " /><path fill="rgb(84,84,84)" stroke="rgb(84,84,84)" stroke-width="0.6" opacity="1" d="M 265.5 176 L 285 176.5 L 265.5 177 L 265.5 176 Z " /><path fill="rgb(84,84,84)" stroke="rgb(84,84,84)" stroke-width="0.6" opacity="1" d="M 267.5 181 L 283 181.5 L 267.5 182 L 267.5 181 Z " /><path fill="rgb(84,84,84)" stroke="rgb(84,84,84)" stroke-width="0.6" opacity="1" d="M 365.5 210 L 372.5 218 L 365.5 210 Z " /><path fill="rgb(84,84,84)" stroke="rgb(84,84,84)" stroke-width="0.6" opacity="1" d="M 360.5 213 L 368.5 222 L 360.5 213 Z " /><path fill="rgb(84,84,84)" stroke="rgb(84,84,84)" stroke-width="0.6" opacity="1" d="M 198.5 359 L 204.5 366 L 198.5 359 Z " /><path fill="rgb(130,133,134)" stroke="rgb(130,133,134)" stroke-width="0.6" opacity="1" d="M 199.5 34 L 215 34.5 L 199.5 35 L 199.5 34 Z " /><path fill="rgb(130,133,134)" stroke="rgb(130,133,134)" stroke-width="0.6" opacity="1" d="M 166.5 144 L 160.5 151 L 161 149.5 L 164.5 145 L 166.5 144 Z " /><path fill="rgb(130,133,134)" stroke="rgb(130,133,134)" stroke-width="0.6" opacity="1" d="M 159.5 152 L 160 153.5 L 158.5 163 L 157 157.5 L 159.5 152 Z " /><path fill="rgb(130,133,134)" stroke="rgb(130,133,134)" stroke-width="0.6" opacity="1" d="M 161.5 219 L 160.5 221 L 155.5 225 L 159.5 220 L 161.5 219 Z " /><path fill="rgb(130,133,134)" stroke="rgb(130,133,134)" stroke-width="0.6" opacity="1" d="M 183.5 242 L 183 243.5 L 178.5 249 L 182 244.5 L 183.5 242 Z " /><path fill="rgb(130,133,134)" stroke="rgb(130,133,134)" stroke-width="0.6" opacity="1" d="M 283.5 278 L 289.5 285 L 283.5 278 Z " /><path fill="rgb(130,133,134)" stroke="rgb(130,133,134)" stroke-width="0.6" opacity="1" d="M 301.5 314 L 302 324.5 L 301 324.5 L 301.5 314 Z " /><path fill="rgb(130,133,134)" stroke="rgb(130,133,134)" stroke-width="0.6" opacity="1" d="M 122.5 344 L 117.5 350 L 122.5 344 Z " /><path fill="rgb(130,133,134)" stroke="rgb(130,133,134)" stroke-width="0.6" opacity="1" d="M 288.5 359 L 282.5 366 L 288.5 359 Z " /><path fill="rgb(130,133,134)" stroke="rgb(130,133,134)" stroke-width="0.6" opacity="1" d="M 194.5 363 L 200.5 370 L 194.5 363 Z " /><path fill="rgb(130,133,134)" stroke="rgb(130,133,134)" stroke-width="0.6" opacity="1" d="M 146.5 383 L 146 384.5 L 143.5 397 L 142 392.5 L 146.5 383 Z " /><path fill="rgb(130,133,134)" stroke="rgb(130,133,134)" stroke-width="0.6" opacity="1" d="M 364.5 421 L 355.5 431 L 364.5 421 Z " /><path fill="rgb(83,157,92)" stroke="rgb(83,157,92)" stroke-width="0.6" opacity="1" d="M 265 203 Q 270.8 201.5 272.5 205 L 274 204.5 L 274.5 206 L 276 205.5 L 280.5 211 L 282 211.5 L 281.5 213 L 283 213.5 L 282 217 L 284 217.5 L 284 224 Q 280.7 222.7 282 227.5 L 279.5 232 L 277 233.5 L 276.5 235 L 275 234.5 L 274.5 236 L 273 235.5 L 272.5 237 L 269.5 236 L 266 238 Q 267.4 234.3 261.5 236 L 259 235.5 L 257.5 233 L 253 230.5 L 252 223 Q 248.3 224.3 250 218.5 L 252 212 Q 255 213.3 254 209.5 L 260.5 205 L 265 205 L 265 203 Z " /><path fill="rgb(83,157,92)" stroke="rgb(83,157,92)" stroke-width="0.6" opacity="1" d="M 159.5 376 L 163.5 378 L 165.5 377 L 174 383.5 L 173.5 385 L 175 385.5 L 174 389 L 176 390.5 L 175 395.5 L 176 397.5 L 174 400.5 L 174.5 402 L 173 402.5 L 173.5 404 L 172 405.5 Q 169.5 409.7 163 409 Q 164.3 412 160.5 411 L 157.5 410 L 155 411 Q 156.3 407.3 150.5 409 L 147.5 405 L 144 402.5 L 143 397.5 L 146 384.5 L 149.5 380 L 155.5 377 L 157.5 378 L 159.5 376 Z " /><path fill="rgb(219,220,219)" stroke="rgb(219,220,219)" stroke-width="0.6" opacity="1" d="M 239.5 32 L 261 32.5 L 239.5 33 L 239.5 32 Z " /><path fill="rgb(219,220,219)" stroke="rgb(219,220,219)" stroke-width="0.6" opacity="1" d="M 268.5 32 L 281 32.5 L 268.5 33 L 268.5 32 Z " /><path fill="rgb(219,220,219)" stroke="rgb(219,220,219)" stroke-width="0.6" opacity="1" d="M 289.5 32 L 306 32.5 L 289.5 33 L 289.5 32 Z " /><path fill="rgb(219,220,219)" stroke="rgb(219,220,219)" stroke-width="0.6" opacity="1" d="M 325.5 32 L 339 32.5 L 325.5 33 L 325.5 32 Z " /><path fill="rgb(219,220,219)" stroke="rgb(219,220,219)" stroke-width="0.6" opacity="1" d="M 204.5 33 L 219 33.5 L 204.5 34 L 204.5 33 Z " /><path fill="rgb(219,220,219)" stroke="rgb(219,220,219)" stroke-width="0.6" opacity="1" d="M 195.5 41 L 268 41.5 L 195.5 42 L 195.5 41 Z " /><path fill="rgb(219,220,219)" stroke="rgb(219,220,219)" stroke-width="0.6" opacity="1" d="M 287.5 41 L 344 41.5 L 287.5 42 L 287.5 41 Z " /><path fill="rgb(219,220,219)" stroke="rgb(219,220,219)" stroke-width="0.6" opacity="1" d="M 348.5 41 L 364 41.5 L 348.5 42 L 348.5 41 Z " /><path fill="rgb(219,220,219)" stroke="rgb(219,220,219)" stroke-width="0.6" opacity="1" d="M 390.5 72 L 391 97.5 L 390 97.5 L 390.5 72 Z " /><path fill="rgb(219,220,219)" stroke="rgb(219,220,219)" stroke-width="0.6" opacity="1" d="M 233.5 134 L 256 134.5 L 233.5 135 L 233.5 134 Z " /><path fill="rgb(219,220,219)" stroke="rgb(219,220,219)" stroke-width="0.6" opacity="1" d="M 157.5 173 L 162.5 179 L 157.5 173 Z " /><path fill="rgb(219,220,219)" stroke="rgb(219,220,219)" stroke-width="0.6" opacity="1" d="M 267.5 174 L 281 174.5 L 267.5 175 L 267.5 174 Z " /><path fill="rgb(219,220,219)" stroke="rgb(219,220,219)" stroke-width="0.6" opacity="1" d="M 266.5 183 L 284 183.5 L 266.5 184 L 266.5 183 Z " /><path fill="rgb(219,220,219)" stroke="rgb(219,220,219)" stroke-width="0.6" opacity="1" d="M 366.5 209 L 372.5 216 L 366.5 209 Z " /><path fill="rgb(219,220,219)" stroke="rgb(219,220,219)" stroke-width="0.6" opacity="1" d="M 362.5 217 L 367.5 223 L 362.5 217 Z " /><path fill="rgb(219,220,219)" stroke="rgb(219,220,219)" stroke-width="0.6" opacity="1" d="M 101.5 371 L 102 381.5 L 101 381.5 L 101.5 371 Z " /><path fill="rgb(219,220,219)" stroke="rgb(219,220,219)" stroke-width="0.6" opacity="1" d="M 211.5 442 L 216.5 448 L 211.5 442 Z " /><path fill="rgb(219,220,219)" stroke="rgb(219,220,219)" stroke-width="0.6" opacity="1" d="M 233.5 479 L 246 479.5 L 233.5 480 L 233.5 479 Z " /><path fill="rgb(200,201,201)" stroke="rgb(200,201,201)" stroke-width="0.6" opacity="1" d="M 306.5 32 L 325 32.5 L 306.5 33 L 306.5 32 Z " /><path fill="rgb(200,201,201)" stroke="rgb(200,201,201)" stroke-width="0.6" opacity="1" d="M 219.5 33 L 231 33.5 L 219.5 34 L 219.5 33 Z " /><path fill="rgb(200,201,201)" stroke="rgb(200,201,201)" stroke-width="0.6" opacity="1" d="M 172.5 41 L 195 41.5 L 172.5 42 L 172.5 41 Z " /><path fill="rgb(200,201,201)" stroke="rgb(200,201,201)" stroke-width="0.6" opacity="1" d="M 398.5 69 L 399 94.5 L 398 94.5 L 398.5 69 Z " /><path fill="rgb(200,201,201)" stroke="rgb(200,201,201)" stroke-width="0.6" opacity="1" d="M 364.5 96 L 359.5 102 L 364.5 96 Z " /><path fill="rgb(200,201,201)" stroke="rgb(200,201,201)" stroke-width="0.6" opacity="1" d="M 235.5 125 L 365 125.5 L 235.5 126 L 235.5 125 Z " /><path fill="rgb(200,201,201)" stroke="rgb(200,201,201)" stroke-width="0.6" opacity="1" d="M 122.5 345 L 117.5 351 L 122.5 345 Z " /><path fill="rgb(200,201,201)" stroke="rgb(200,201,201)" stroke-width="0.6" opacity="1" d="M 217.5 411 L 212.5 417 L 217.5 411 Z " /><path fill="rgb(200,201,201)" stroke="rgb(200,201,201)" stroke-width="0.6" opacity="1" d="M 361.5 423 L 356.5 429 L 361.5 423 Z " /><path fill="rgb(180,181,181)" stroke="rgb(180,181,181)" stroke-width="0.6" opacity="1" d="M 231.5 33 L 272 33.5 L 231.5 34 L 231.5 33 Z " /><path fill="rgb(180,181,181)" stroke="rgb(180,181,181)" stroke-width="0.6" opacity="1" d="M 248.5 133 L 355 133.5 L 248.5 134 L 248.5 133 Z " /><path fill="rgb(180,181,181)" stroke="rgb(180,181,181)" stroke-width="0.6" opacity="1" d="M 127.5 231 L 128 242.5 L 127 242.5 L 127.5 231 Z " /><path fill="rgb(180,181,181)" stroke="rgb(180,181,181)" stroke-width="0.6" opacity="1" d="M 402.5 308 L 403 322.5 L 402 322.5 L 402.5 308 Z " /><path fill="rgb(180,181,181)" stroke="rgb(180,181,181)" stroke-width="0.6" opacity="1" d="M 410.5 310 L 411 323.5 L 410 323.5 L 410.5 310 Z " /><path fill="rgb(180,181,181)" stroke="rgb(180,181,181)" stroke-width="0.6" opacity="1" d="M 341.5 413 L 336.5 419 L 341.5 413 Z " /><path fill="rgb(180,181,181)" stroke="rgb(180,181,181)" stroke-width="0.6" opacity="1" d="M 133.5 429 L 139.5 436 L 133.5 429 Z " /><path fill="rgb(180,181,181)" stroke="rgb(180,181,181)" stroke-width="0.6" opacity="1" d="M 238.5 471 L 251 471.5 L 238.5 472 L 238.5 471 Z " /><path fill="rgb(157,158,158)" stroke="rgb(157,158,158)" stroke-width="0.6" opacity="1" d="M 272.5 33 L 334 33.5 L 272.5 34 L 272.5 33 Z " /><path fill="rgb(157,158,158)" stroke="rgb(157,158,158)" stroke-width="0.6" opacity="1" d="M 175.5 34 L 199 34.5 L 175.5 35 L 175.5 34 Z " /><path fill="rgb(157,158,158)" stroke="rgb(157,158,158)" stroke-width="0.6" opacity="1" d="M 391.5 73 L 392 95.5 L 391 95.5 L 391.5 73 Z " /><path fill="rgb(157,158,158)" stroke="rgb(157,158,158)" stroke-width="0.6" opacity="1" d="M 267.5 175 L 282 175.5 L 267.5 176 L 267.5 175 Z " /><path fill="rgb(157,158,158)" stroke="rgb(157,158,158)" stroke-width="0.6" opacity="1" d="M 267.5 182 L 284 182.5 L 267.5 183 L 267.5 182 Z " /><path fill="rgb(157,158,158)" stroke="rgb(157,158,158)" stroke-width="0.6" opacity="1" d="M 366.5 210 L 372.5 217 L 366.5 210 Z " /><path fill="rgb(157,158,158)" stroke="rgb(157,158,158)" stroke-width="0.6" opacity="1" d="M 360.5 214 L 368.5 223 L 360.5 214 Z " /><path fill="rgb(157,158,158)" stroke="rgb(157,158,158)" stroke-width="0.6" opacity="1" d="M 178.5 343 L 184.5 350 L 178.5 343 Z " /><path fill="rgb(157,158,158)" stroke="rgb(157,158,158)" stroke-width="0.6" opacity="1" d="M 199.5 359 L 204.5 365 L 199.5 359 Z " /><path fill="rgb(157,158,158)" stroke="rgb(157,158,158)" stroke-width="0.6" opacity="1" d="M 231.5 478 L 252 478.5 L 231.5 479 L 231.5 478 Z " /><path fill="rgb(182,148,103)" stroke="rgb(182,148,103)" stroke-width="0.6" opacity="1" d="M 342.5 66 Q 357.5 64 361 73.5 Q 364.8 77.2 364 85.5 L 361.5 90 L 361 88.5 L 363 81.5 Q 361.8 73.7 356.5 70 Q 352.3 65.7 342.5 67 L 334 72.5 Q 329.5 77 331 87.5 L 337 96.5 L 332 92.5 L 329 82.5 Q 330.5 73.5 336.5 69 L 342.5 66 Z " /><path fill="rgb(182,148,103)" stroke="rgb(182,148,103)" stroke-width="0.6" opacity="1" d="M 177.5 70 L 174 74.5 L 171.5 81 L 171 78.5 L 177.5 70 Z " /><path fill="rgb(182,148,103)" stroke="rgb(182,148,103)" stroke-width="0.6" opacity="1" d="M 360.5 91 L 361 92.5 L 350.5 100 L 342.5 100 L 338 97.5 L 339.5 97 Q 342.1 100.4 349.5 99 L 360 92.5 L 360.5 91 Z " /><path fill="rgb(182,148,103)" stroke="rgb(182,148,103)" stroke-width="0.6" opacity="1" d="M 322.5 260 L 327.5 266 L 322.5 260 Z " /><path fill="rgb(182,148,103)" stroke="rgb(182,148,103)" stroke-width="0.6" opacity="1" d="M 355.5 307 Q 368.9 306.1 373 314.5 Q 376.8 319.2 375 329.5 L 367.5 339 Q 363.2 342.7 353.5 341 L 346 336.5 Q 340.7 331.8 342 320.5 Q 344.1 312.6 350.5 309 L 355.5 307 Z M 357 308 L 351 310 L 343 321 Q 342 329 345 334 L 354 340 Q 363 341 368 338 L 374 330 Q 376 319 372 315 L 363 308 L 357 308 Z " /><path fill="rgb(182,148,103)" stroke="rgb(182,148,103)" stroke-width="0.6" opacity="1" d="M 228.5 412 L 237 414.5 L 235.5 414 L 228.5 413 L 218 418.5 Q 213.2 423.7 215 435.5 L 215.5 437 L 214 435.5 L 214 424.5 L 219.5 416 L 228.5 412 Z " /><path fill="rgb(182,148,103)" stroke="rgb(182,148,103)" stroke-width="0.6" opacity="1" d="M 238.5 415 L 244 419.5 Q 247.9 423.6 247 432.5 Q 245.2 440.2 239.5 444 Q 234.8 447.3 225.5 446 L 216 439.5 L 216.5 438 L 219.5 442 Q 224 446.5 234.5 445 L 243 439.5 Q 246.7 435.2 246 426.5 L 239.5 416 L 238.5 415 Z " /></svg>