<svg width="627" height="627" preserveAspectRatio="xMidYMid meet" viewBox="0 0 512 512" version="1.1" xmlns="http://www.w3.org/2000/svg" ><path fill="rgb(254,254,254)" stroke="rgb(254,254,254)" stroke-width="0.6" opacity="1" d="M 0 0 L 512 0 L 512 512 L 0 512 L 0 0 Z M 272 12 Q 258 16 249 24 Q 234 37 230 62 L 230 83 L 233 98 L 239 115 L 260 156 L 247 154 Q 230 153 219 157 Q 202 163 191 174 L 166 202 Q 148 227 133 257 L 59 416 L 49 442 L 45 461 Q 44 479 52 489 Q 60 498 75 501 L 94 500 L 110 495 L 157 470 Q 222 429 278 378 Q 307 352 330 321 Q 345 301 351 273 L 351 251 Q 348 236 342 225 L 343 222 L 355 222 L 392 229 Q 430 230 449 212 Q 464 200 467 177 Q 467 155 456 145 Q 444 130 420 129 Q 431 117 439 100 L 444 78 L 443 66 L 436 50 Q 425 34 403 30 Q 386 28 376 32 Q 360 37 349 47 L 330 67 L 328 68 Q 327 41 312 26 Q 304 17 293 13 L 272 12 Z " /><path fill="rgb(238,119,41)" stroke="rgb(238,119,41)" stroke-width="0.6" opacity="1" d="M 416 140 L 420 141.5 L 421.5 144 L 427.5 145 L 430.5 143 L 431 145 L 436 144 L 442.5 154 Q 448.3 153.2 450 156.5 L 449 159 Q 452.8 157.5 452 160.5 L 451 166.5 L 453 169.5 Q 451.9 178.1 455 182.5 L 451 184 L 444 198.5 L 443.5 201 L 438.5 200 Q 434.1 202.1 435 208 L 432.5 207 L 429.5 209 L 427.5 208 L 420.5 213 Q 413.4 211.9 411.5 216 Q 405.3 213.2 395.5 214 L 390.5 215 L 388.5 214 L 382.5 216 L 379.5 212 L 373.5 211 L 371.5 212 L 365.5 211 L 360.5 212 L 359 209 L 354.5 207 L 348.5 207 L 346.5 209 L 336.5 209 L 334 208 Q 332.7 204.7 337.5 206 L 348 198.5 L 348.5 196 L 353 197 Q 351.5 193.2 354.5 194 L 356.5 195 L 369 190.5 L 370.5 188 L 377 189 Q 375.3 184.9 379.5 186 L 382.5 188 L 390.5 187 L 392.5 188 Q 394.9 182.8 404 185 Q 403 182 406 183 Q 404.7 186.3 409.5 185 L 413 182.5 L 413 178.5 L 408.5 173 L 404 174.5 L 403.5 176 L 390 176 Q 391.1 172.3 382.5 174 L 380 175 L 378.5 178 Q 373.5 179 374.5 176 L 367.5 176 L 363 179 L 361.5 182 L 350.5 181 L 344.5 188 L 341 187 L 339.5 189 L 336 183.5 L 339 178 L 342.5 179 L 347 177 L 348 174.5 L 347 172.5 L 349.5 172 L 351 171.5 L 350.5 170 Q 357 170 360 166.5 L 361.5 165 L 374 158.5 Q 373.2 155.9 376.5 157 L 389 150.5 L 388 148.5 L 390.5 148 L 392.5 149 L 402 143.5 L 402.5 142 L 411 143 L 412.5 141 L 416 142 L 416 140 Z " /><path fill="rgb(238,119,41)" stroke="rgb(238,119,41)" stroke-width="0.6" opacity="1" d="M 232.5 165 L 247.5 165 L 249 166.5 L 248 170 L 254.5 172 L 257.5 170 L 260.5 171 L 263.5 170 L 265 173 L 273.5 178 L 277 176 L 278.5 179 L 282 180.5 L 284.5 184 L 289.5 187 L 293 186 L 298.5 194 L 301 195.5 L 302.5 198 L 315 206.5 L 316 211.5 L 320 217 L 322 218.5 L 325.5 223 Q 328.8 221.9 328 224.5 L 327 226.5 L 329 228.5 Q 327 236 330.5 238 L 336 240 L 335 249.5 L 333 252.5 L 337 256.5 L 337 273.5 Q 333.5 275.5 334 281.5 L 335 283.5 L 333 286.5 L 334 291 L 331 291.5 L 332 294 L 329 295.5 Q 330.1 298.8 327.5 298 Q 325.9 303.8 320 303 L 317.5 299 L 310 295 L 311 291.5 L 305 284.5 L 304 278 L 296 273.5 L 294.5 272 L 290.5 266 Q 283 265.1 280.5 259 L 275 258 L 273.5 261 Q 270.5 260.2 272 264 L 274 265.5 L 278 268 L 280 271.5 L 286 276 L 288 279.5 L 297 287 Q 296 291.7 299.5 293 Q 303.3 291.8 302 295.5 Q 299.5 297 303 298.5 L 305 305 L 308 306.5 L 307 310 L 311 311.5 L 309.5 314 L 307 315.5 L 309.5 320 Q 311.3 317.3 313 321.5 L 312 323.5 L 311.5 326 L 305 328.5 L 304 332.5 L 303.5 335 L 300 336.5 L 298.5 339 L 293 341.5 Q 293.8 346.3 290.5 347 L 287 348 L 282.5 355 L 279.5 356 L 277.5 356 L 275 357.5 Q 276 363 272.5 364 L 270.5 365 L 270 363.5 L 271 360.5 L 268 359 L 269 354.5 L 266 351.5 Q 267.3 346.3 264.5 345 L 263 343.5 L 252.5 328 L 243 320.5 L 241.5 317 L 238.5 317 L 233.5 313 L 229 318.5 L 231.5 322 Q 234.8 320.9 234 323.5 L 244 334.5 L 243 335.5 L 246.5 339 L 251 341 Q 250 346.6 254.5 348 L 256 348.5 L 255 350.5 Q 258.5 352 256 353.5 L 255 357.5 L 257.5 361 L 259.5 362 L 262 362.5 L 261 370 L 263 371.5 L 256 376 L 252 384 L 248 386.5 L 246.5 388 L 240 392.5 L 238.5 394 L 232 398 L 230.5 400 L 228 404 L 224.5 406 L 220.5 404 Q 215.1 407.4 214 414 L 208 413 L 211 406 L 204 405 L 205 402.5 L 204 400 L 199 397.5 L 201 394.5 L 194 390 L 194 388 L 188.5 384 L 178.5 377 L 174 380.5 Q 174.7 386.9 179.5 389 L 184 390 L 185.5 393 L 187 393.5 L 186 396.5 L 192 401.5 L 193.5 404 Q 196.5 403.1 195 407.5 L 200 411.5 L 199 414.5 Q 203.5 417 198 419.5 L 197 426.5 L 194.5 429 L 190.5 430 Q 178.1 441.6 162 449.5 L 163 451.5 L 160.5 452 L 155.5 455 L 153.5 454 L 150 460 L 145 457.5 L 143.5 455 L 142 453.5 L 142 451.5 L 137.5 443 L 134.5 444 L 133 441 Q 129.3 442.4 131 436.5 L 116.5 427 L 114 432.5 L 124.5 445 L 128 447.5 L 130 449 L 130 451.5 L 133 455.5 Q 131.8 460.8 134.5 462 Q 137.8 460.9 137 463.5 L 136 466.5 L 135.5 469 Q 133.5 465 131.5 469 L 118 475.5 Q 118.7 478.5 115 477 L 115 480 L 112.5 480 L 110 479 Q 111.5 482.7 108.5 482 L 105.5 481 L 99 484.5 L 99.5 486 L 93 485 Q 94.9 489.8 91.5 489 Q 86.8 485.2 76.5 487 L 74.5 485 L 73 488 L 70 488 Q 71.5 484.3 68.5 485 L 66 484 L 64 479.5 L 65 475.5 L 59.5 473 L 58 473.5 L 59 459.5 L 58 455.5 L 62 452.5 L 63 443.5 L 62 440 Q 66.1 441.7 65 437.5 L 64 435 L 68 432.5 L 69 427.5 L 68 425 L 71 423.5 L 75 413.5 L 74 411 L 77 409.5 L 79 404.5 Q 76 402.5 81 400.5 L 80 397 Q 84.1 398.7 83 394.5 L 85 391 L 91 391.5 L 89 392.5 L 92.5 394 L 101 392 L 103.5 397 L 107.5 398 L 109.5 397 L 118.5 402 L 122.5 399 L 125 398.5 L 121 395.5 L 120 392 L 108.5 385 L 105.5 385 L 103 386 L 99.5 381 L 92.5 380 L 90.5 381 L 88 379.5 L 91 377.5 L 90 375 L 93 373.5 L 96 369.5 L 97 362.5 L 103 349.5 L 110 340.5 L 111 332 L 117.5 332 Q 119.1 336.9 126.5 336 Q 127.8 333 132 334 Q 130.5 337.8 133.5 337 L 138 336 L 137 338.5 L 143.5 342 L 146 340.5 L 147.5 343 L 154.5 348 L 156.5 347 L 160 348 L 161 344.5 L 160 342.5 L 161 341.5 L 157.5 338 L 154 337 L 150.5 332 L 146.5 331 L 143.5 333 L 143 329 L 138 330 L 139 327.5 L 130.5 323 Q 129.1 327 124 326 Q 125.8 320.7 118.5 323 L 117 319.5 L 120.5 315 L 123 313.5 L 123 306.5 L 132 292.5 L 133 287.5 L 132 285 L 135 283.5 L 141.5 274 L 142 276 L 146.5 278 L 150.5 275 L 163.5 274 L 166.5 279 Q 171.8 279.8 173.5 277 L 174 279 L 178.5 278 L 180 281 L 184 280 L 185.5 283 L 190.5 285 L 196 282.5 L 197 280.5 L 187.5 273 L 185 274 Q 186.5 270.3 183.5 271 L 180 272 L 181 269.5 L 172.5 265 L 168.5 266 L 164.5 265 L 157.5 267 L 155.5 265 L 146 265 Q 144.7 259.7 148 260.5 L 148 257.5 L 148 255.5 L 147 253.5 L 151 253 Q 149.5 249.2 152.5 250 L 156 247.5 Q 155.3 240.7 159 238.5 L 158 235 L 162 233.5 L 169 221.5 L 168 219.5 L 171.5 218 L 177.5 219 L 181 218 Q 179.8 214.3 185 216 Q 183.6 220 190.5 218 L 193 217 Q 191.7 220.7 197.5 219 L 202 218 L 201 220.5 L 202.5 222 L 213 223 Q 211.8 226 215.5 225 L 221.5 229 L 225 229 L 226.5 232 L 233 233 L 234.5 231 L 237 229.5 L 233 229 L 231.5 224 L 228.5 222 Q 225.3 218 219 218 Q 220.5 214.2 217.5 215 L 207.5 211 L 204 212 Q 205.5 208.3 202.5 209 L 200.5 209 L 197.5 210 L 196 207 L 189.5 206 Q 187.5 210 179.5 208 L 180 206.5 L 180.5 202 L 182.5 202 L 184 200.5 L 184 198.5 L 184.5 197 L 188.5 198 Q 192 197 191 191.5 L 196.5 186 L 202 183.5 L 204.5 180 L 206 178.5 L 218 172.5 L 217 170 L 222.5 171 L 231 168.5 L 232.5 165 Z " /><path fill="rgb(238,119,41)" stroke="rgb(238,119,41)" stroke-width="0.6" opacity="1" d="M 317.5 305 L 324 307 L 322.5 310 Q 317.3 311.3 316 308.5 L 317.5 305 Z " /><path fill="rgb(5,5,5)" stroke="rgb(5,5,5)" stroke-width="0.6" opacity="1" d="M 272.5 13 L 292.5 14 Q 306.3 18.7 314 29.5 Q 326.5 44.4 327 70 L 332 66.5 L 347.5 49 L 370.5 35 Q 382.3 29.3 401.5 31 Q 423.3 34.3 434 48.5 L 442 67.5 L 442 84.5 L 435 105.5 L 418 130 Q 445.7 130.9 458 148.5 Q 465.5 158 466 174.5 Q 463 202 444.5 214 Q 426.3 228.8 392.5 228 L 356.5 221 L 340.5 221 Q 337.3 222.8 341 224.5 L 349 246.5 L 350 271.5 Q 345 299 331 317.5 Q 310 347 283.5 371 Q 224.7 426.2 154.5 470 Q 132.4 484.4 106.5 495 Q 94.6 500.6 76.5 500 Q 61.3 498.7 54 489.5 Q 45.2 480.3 46 461.5 Q 48.7 441.2 56 425.5 L 130 264.5 Q 145.7 232.7 165 204.5 L 188.5 177 Q 199.2 166.7 213.5 160 Q 225.7 154.2 244.5 155 L 260.5 158 L 262 155.5 L 239 111.5 L 233 92.5 L 231 80.5 L 231 63.5 Q 234.5 35.5 252.5 22 Q 260.4 15.4 272.5 13 Z M 277 21 Q 264 22 258 29 Q 241 41 239 69 Q 239 89 245 104 L 268 149 L 272 162 L 284 168 L 285 167 L 287 150 L 287 132 L 285 112 L 278 85 L 280 83 L 289 111 L 292 132 Q 294 152 290 168 L 291 173 L 297 176 L 303 164 L 311 139 L 316 118 L 320 87 Q 321 54 308 36 Q 300 21 277 21 Z M 390 39 Q 366 43 353 56 Q 336 70 327 91 L 320 133 L 313 154 L 315 155 L 340 126 Q 356 109 377 96 L 379 97 L 366 108 L 327 149 L 308 175 L 305 183 L 313 189 L 315 189 Q 331 172 351 159 L 395 136 L 408 127 L 427 103 L 434 83 Q 436 63 427 54 Q 416 38 390 39 Z M 409 138 Q 360 155 327 187 L 320 195 L 324 200 L 351 187 Q 367 181 388 178 L 408 178 L 408 180 Q 359 183 328 206 L 335 214 L 337 213 L 358 213 L 387 219 Q 422 222 440 207 Q 453 198 457 180 L 457 167 L 451 154 Q 439 136 409 138 Z M 232 164 Q 211 168 199 180 Q 183 192 174 210 Q 211 209 231 228 L 232 230 Q 214 216 185 213 L 171 214 Q 152 238 139 268 L 142 268 L 167 269 L 178 272 L 190 278 L 192 281 Q 178 274 161 271 Q 146 269 137 273 L 111 326 L 113 327 L 123 327 L 136 330 L 155 340 L 158 344 L 135 333 Q 125 329 110 330 L 84 384 L 86 385 L 105 388 L 118 395 L 119 397 L 99 389 L 84 388 L 76 401 L 64 429 L 55 458 Q 53 473 58 481 Q 63 489 75 491 Q 90 492 101 488 Q 123 480 141 467 Q 138 454 131 446 L 119 434 L 118 432 Q 125 433 128 438 Q 139 448 145 465 Q 177 446 206 424 Q 202 406 192 396 L 182 386 L 179 382 L 188 387 Q 202 400 210 420 Q 240 400 266 375 Q 263 349 249 335 L 233 317 L 239 320 L 258 342 Q 266 352 268 369 L 271 371 Q 295 350 314 325 L 314 319 L 309 303 L 293 279 L 278 265 L 276 262 L 284 266 L 285 269 L 289 270 Q 310 287 317 318 L 319 319 Q 337 299 342 266 Q 342 250 338 239 Q 329 217 314 203 Q 296 182 270 170 L 255 165 L 232 164 Z " /><path fill="rgb(66,143,69)" stroke="rgb(66,143,69)" stroke-width="0.6" opacity="1" d="M 386.5 40 Q 415.1 37.9 426 53.5 Q 433 60.5 433 74.5 L 432 77.5 L 433 84.5 Q 425.9 110.9 407.5 126 L 398.5 133 L 352.5 157 Q 330.8 170.8 313.5 189 L 307 183.5 Q 308.1 180.2 305.5 181 L 307 178.5 Q 327.7 144.2 356.5 118 L 361 114.5 L 367.5 107 L 381 95.5 L 379.5 94 Q 355.1 107.6 337 127.5 L 317.5 150 L 316 146.5 L 323 122.5 L 328 89.5 Q 338 69 354.5 55 Q 366.8 43.8 386.5 40 Z " /><path fill="rgb(109,80,48)" stroke="rgb(109,80,48)" stroke-width="0.6" opacity="1" d="M 273.5 22 L 290.5 23 Q 302.5 27.5 309 37.5 L 318 62.5 L 317 64.5 Q 319.8 73.7 319 86.5 L 317 93.5 L 318 97.5 L 317 99.5 L 318 101.5 Q 311.8 142.1 298 174 L 295.5 175 L 292 172.5 L 291 166.5 L 292 164.5 L 291.5 163 L 293 162.5 L 292 157.5 L 293 155.5 L 292 153 L 294 152.5 L 292 152 L 293 140.5 L 292 137 Q 295 138 294 135 L 292 134.5 L 293 132.5 L 292 126.5 L 292.5 125 Q 289.3 125.4 291 117.5 L 286 96.5 L 278.5 81 L 277 83.5 L 282 98.5 L 286 129.5 L 285 132.5 L 286 133.5 L 286 147.5 L 285 151.5 L 286 157.5 L 285 163.5 L 282.5 167 L 273 161.5 L 269 148.5 L 251 116.5 L 242 89.5 Q 244.5 88 241 86.5 L 240 63.5 Q 242.9 40.9 257.5 30 L 273.5 22 Z " /><path fill="rgb(233,117,41)" stroke="rgb(233,117,41)" stroke-width="0.6" opacity="1" d="M 412.5 139 L 419.5 139 L 433.5 142 L 449 152.5 Q 456.3 160.2 456 175.5 L 454.5 181 L 451 161.5 L 452 159 Q 448.3 160.5 449 157.5 L 449.5 156 L 441 152.5 L 436 144 L 431 145 L 430.5 143 L 427.5 145 L 420 142.5 L 418.5 140 L 413.5 142 L 411 141 Q 412.1 144.8 403.5 143 L 402 142.5 L 400.5 145 L 391.5 149 L 389 147.5 L 404.5 140 L 412.5 139 Z " /><path fill="rgb(233,117,41)" stroke="rgb(233,117,41)" stroke-width="0.6" opacity="1" d="M 387.5 148 L 389 150.5 Q 383.6 156.2 374 157 L 372.5 160 L 360 165 L 358.5 168 L 350 170.5 L 350.5 172 L 349 170.5 Q 366.1 157.1 387.5 148 Z " /><path fill="rgb(233,117,41)" stroke="rgb(233,117,41)" stroke-width="0.6" opacity="1" d="M 227.5 166 Q 232.3 164.3 231 168.5 L 229.5 170 L 220.5 171 L 218 169.5 L 227.5 166 Z " /><path fill="rgb(233,117,41)" stroke="rgb(233,117,41)" stroke-width="0.6" opacity="1" d="M 249.5 166 Q 268 168.5 280.5 177 Q 301.4 189.6 317 207.5 Q 329.5 221 337 239.5 Q 341.7 251.8 340 270.5 L 334.5 290 L 333 285.5 L 335 282.5 L 334 278.5 L 337 273.5 L 337 256.5 L 333 251.5 L 335 249.5 L 336 240 L 329 236.5 Q 330.6 228.4 327 225.5 L 328 223 L 323 220.5 L 322 217 L 320 215.5 L 316 211.5 L 313.5 205 L 301 196.5 L 299.5 194 L 296 191.5 L 293 186 L 289.5 187 L 282 181.5 L 280.5 179 L 277 177.5 L 275.5 176 L 271.5 178 L 265 173 L 263.5 170 L 258.5 171 L 256.5 170 L 253.5 172 L 248 170 L 249.5 166 Z " /><path fill="rgb(233,117,41)" stroke="rgb(233,117,41)" stroke-width="0.6" opacity="1" d="M 215.5 170 L 217 171.5 Q 219.7 173.3 215.5 175 L 206 178.5 L 204.5 180 L 200.5 185 Q 193.3 185.8 191 191.5 Q 192 197 188.5 198 L 184.5 197 L 184 198.5 L 184 200.5 L 182.5 202 L 180 202.5 L 179 207.5 L 187.5 208 L 192.5 206 L 196 207 L 197.5 210 L 201.5 208 L 204 209 Q 202.3 213.1 206.5 212 L 208.5 211 L 210.5 213 L 219 215 Q 217.3 219.1 221.5 218 L 230 222 L 231.5 224 L 233 227.5 L 228.5 224 Q 216.8 215.2 200.5 211 Q 191.1 207.9 177.5 209 L 176 207.5 L 195.5 184 L 215.5 170 Z " /><path fill="rgb(233,117,41)" stroke="rgb(233,117,41)" stroke-width="0.6" opacity="1" d="M 347.5 171 L 347 172.5 L 348 174.5 L 347 177 L 342.5 179 L 339 178 L 336 185.5 L 341 189 L 342.5 187 L 344.5 188 L 350.5 181 L 361.5 182 L 363 179 Q 366 174.5 375 176 Q 373.7 179.3 378.5 178 L 380 175 L 390 174 L 390.5 176 L 404 176 L 405.5 173 Q 410.3 172.3 411 175.5 Q 413.8 177.2 413 182.5 L 406 185 Q 407 182 404 183 L 403.5 185 L 395.5 185 L 391.5 188 L 383.5 187 L 381.5 188 L 378 185.5 L 388.5 183 L 408.5 182 L 411 181 Q 412.5 177.3 409.5 178 L 408.5 177 L 386.5 177 Q 349.3 182.3 323.5 199 L 321 194.5 L 347.5 171 Z " /><path fill="rgb(233,117,41)" stroke="rgb(233,117,41)" stroke-width="0.6" opacity="1" d="M 451 184 Q 454.8 182.5 454 185.5 Q 450.1 197.1 441.5 204 Q 424.1 220.1 388.5 218 L 353.5 211 L 340.5 211 L 334.5 212 L 330 205 Q 349.6 191.6 377 186 Q 378.7 190.1 374.5 189 L 370.5 188 L 367.5 192 L 355.5 195 L 353 194 Q 354.7 198.1 350.5 197 L 348.5 196 L 345.5 201 Q 339.5 201.5 337.5 206 L 334 206 L 335.5 208 L 346.5 209 Q 348 205.5 354.5 207 L 359 209 L 360.5 212 L 370.5 211 L 372.5 212 L 377.5 211 L 381 213.5 L 382.5 216 L 389.5 214 L 394.5 215 L 403.5 214 L 412.5 216 L 415.5 213 L 420.5 213 L 428.5 208 L 430.5 209 Q 432 205.5 433.5 208 Q 436.5 208.9 435 204.5 L 438.5 200 L 443.5 201 L 445 197.5 L 451 184 Z " /><path fill="rgb(233,117,41)" stroke="rgb(233,117,41)" stroke-width="0.6" opacity="1" d="M 170.5 215 Q 189.5 212.5 201 217.5 L 193 219 L 191.5 217 L 185 218 Q 186.2 214.3 181 216 Q 182.3 219 178.5 218 L 175.5 219 L 171.5 218 L 168 219.5 L 169 221.5 L 160.5 235 Q 156.8 233.8 158 237.5 Q 160.5 239 157 240.5 L 154.5 249 L 151 250 Q 152.5 254.5 148 253 L 170.5 215 Z " /><path fill="rgb(233,117,41)" stroke="rgb(233,117,41)" stroke-width="0.6" opacity="1" d="M 202 218 Q 220 221.9 233 232.5 L 228.5 233 L 225 230.5 Q 225.9 227.5 221.5 229 L 213 225 Q 214.3 221.3 208.5 223 L 201 220.5 L 202 218 Z " /><path fill="rgb(233,117,41)" stroke="rgb(233,117,41)" stroke-width="0.6" opacity="1" d="M 147.5 254 L 149 256.5 L 148 261 Q 144.3 259.8 146 265 L 155.5 265 L 157 266.5 L 155.5 266 L 143 267 L 142.5 265 L 141 265.5 L 147.5 254 Z " /><path fill="rgb(233,117,41)" stroke="rgb(233,117,41)" stroke-width="0.6" opacity="1" d="M 275 258 L 280.5 259 L 293 268.5 L 294.5 272 L 296 273.5 L 304 278 L 305 284.5 L 311 292.5 L 310 295 L 320 301.5 Q 319.2 304.1 322.5 303 L 329 298 L 330.5 294 L 332 292.5 L 331.5 291 L 334 291.5 L 319.5 316 Q 315.3 317.3 317 312.5 Q 307.6 282.9 285.5 266 L 275 260 L 275 258 Z M 318 305 L 316 309 Q 317 311 323 310 L 324 307 L 318 305 Z " /><path fill="rgb(233,117,41)" stroke="rgb(233,117,41)" stroke-width="0.6" opacity="1" d="M 272.5 261 L 274.5 264 L 294 281.5 Q 305.1 293.1 310 310 Q 306.3 311.5 307 308.5 L 308 306.5 L 305 305 L 301 296.5 L 302 293 L 297 290.5 Q 298.5 286.1 295.5 287 L 288 278 L 284.5 276 L 280 270 L 276.5 268 L 274 264 Q 270.5 265.1 272.5 261 Z " /><path fill="rgb(233,117,41)" stroke="rgb(233,117,41)" stroke-width="0.6" opacity="1" d="M 164.5 265 L 171.5 266 L 174.5 265 L 181 269.5 L 179.5 272 Q 171.6 267.4 160 266.5 L 164.5 265 Z " /><path fill="rgb(233,117,41)" stroke="rgb(233,117,41)" stroke-width="0.6" opacity="1" d="M 183.5 271 L 186.5 274 L 188.5 273 L 197 280.5 L 194.5 284 L 189.5 285 L 184 281.5 L 182.5 280 L 180 281 L 178.5 278 L 174 279 L 173.5 277 Q 171.8 279.8 166.5 279 L 163.5 274 L 150.5 275 L 145.5 278 L 142 276 L 141.5 274 L 133.5 285 L 132 286.5 L 133 289.5 L 123 306.5 Q 124.8 313.3 121.5 315 L 119 316.5 L 117 321.5 Q 118.6 324.5 124 323 Q 125.8 327.9 119.5 326 L 114 325 Q 123.2 296 139.5 273 L 156.5 272 L 176.5 276 L 193.5 283 Q 197.5 280.5 191.5 278 L 181 272.5 L 183.5 271 Z " /><path fill="rgb(233,117,41)" stroke="rgb(233,117,41)" stroke-width="0.6" opacity="1" d="M 233.5 313 L 243 318.5 L 244.5 322 L 255 330.5 L 263 345 L 266 346.5 L 266 351.5 L 269 356.5 L 268 359 L 271 360.5 L 270 364.5 L 271.5 364 L 275 361.5 L 276.5 356 L 278.5 355 L 280.5 356 L 284 353.5 L 287 348 L 293 344.5 L 294.5 340 L 300 337.5 L 301.5 335 L 305 333.5 L 304 330.5 L 306.5 327 L 311 326 Q 296 346.7 276.5 364 L 271.5 368 L 269 365.5 Q 266.9 351.6 260 342.5 L 241.5 321 L 232 314.5 L 233.5 313 Z " /><path fill="rgb(233,117,41)" stroke="rgb(233,117,41)" stroke-width="0.6" opacity="1" d="M 310.5 313 L 312 319.5 Q 309.5 321.5 307 317.5 L 308.5 314 L 310.5 313 Z " /><path fill="rgb(233,117,41)" stroke="rgb(233,117,41)" stroke-width="0.6" opacity="1" d="M 229.5 317 L 246 332.5 L 260 354.5 Q 264.3 362.2 264 374.5 Q 239.2 398.7 210.5 419 L 205 406.5 L 199 398.5 L 200.5 399 L 204 400 L 205 402.5 L 204 405 L 211 406 L 208 413 L 214 414 Q 215.1 407.4 220.5 404 L 224.5 406 L 228 404 L 230.5 400 L 233.5 398 L 240 394 L 243.5 389 L 248 388 L 250.5 384 L 252 382.5 L 256 376 L 263 371.5 L 261 370 L 261 365.5 L 262 362.5 L 258.5 361 L 256 359.5 L 255 356.5 L 257 352.5 L 255 349.5 L 255.5 348 L 251 344.5 Q 252.5 340.1 249.5 341 L 243 335.5 Q 246 333.5 241 331.5 L 234 322 L 230 320.5 L 229.5 317 Z " /><path fill="rgb(233,117,41)" stroke="rgb(233,117,41)" stroke-width="0.6" opacity="1" d="M 130.5 323 L 139 327.5 L 138 330 L 125 326.5 L 130.5 323 Z " /><path fill="rgb(233,117,41)" stroke="rgb(233,117,41)" stroke-width="0.6" opacity="1" d="M 110.5 331 Q 122.8 330.2 131 333.5 L 126.5 336 L 122.5 336 Q 119.7 330.4 111 332 L 110 340.5 L 103 349.5 L 97 362.5 L 96 369.5 L 91.5 375 L 90 376.5 L 89.5 379 L 88 379.5 L 91.5 381 L 97.5 380 L 103 384.5 L 104.5 386 L 108.5 385 L 120 392 L 122.5 397 L 125 398.5 Q 123.5 401.5 122 398.5 L 119.5 395 L 107.5 388 L 86 382.5 L 107 335.5 L 110.5 331 Z " /><path fill="rgb(233,117,41)" stroke="rgb(233,117,41)" stroke-width="0.6" opacity="1" d="M 146.5 331 Q 152.1 331.5 154 335.5 L 155.5 337 L 161 341.5 Q 159.3 344.8 157.5 341 L 144 332.5 L 146.5 331 Z " /><path fill="rgb(233,117,41)" stroke="rgb(233,117,41)" stroke-width="0.6" opacity="1" d="M 138.5 336 L 142.5 338 L 160 347.5 L 157.5 348 L 155.5 347 L 154.5 348 L 149.5 343 L 146 341.5 L 145.5 340 L 142.5 342 L 137 338.5 L 138.5 336 Z " /><path fill="rgb(233,117,41)" stroke="rgb(233,117,41)" stroke-width="0.6" opacity="1" d="M 178.5 377 L 190 384 L 190 386 L 195.5 390 L 201 394.5 L 199.5 397 Q 190.2 385.3 176 378.5 L 178.5 377 Z " /><path fill="rgb(233,117,41)" stroke="rgb(233,117,41)" stroke-width="0.6" opacity="1" d="M 175.5 382 L 193 398.5 L 203 415.5 L 204 423.5 L 162.5 453 L 163 451.5 L 162 449.5 L 197 426.5 Q 195.9 418.4 201 416.5 L 199 412.5 L 199.5 411 L 195 407.5 Q 196.5 403.1 193.5 404 L 189.5 399 L 186 396.5 L 187 393.5 L 184 391.5 L 182.5 390 L 175 384.5 L 175.5 382 Z " /><path fill="rgb(233,117,41)" stroke="rgb(233,117,41)" stroke-width="0.6" opacity="1" d="M 83.5 390 Q 93.7 388.8 100 391.5 L 91.5 394 L 89 392.5 L 91 391.5 L 85 391 L 83 397 Q 79.2 395.5 80 398.5 L 81 400.5 Q 76 402.5 79 404.5 L 75.5 411 L 74 412.5 L 75 414.5 L 69.5 425 L 68 426.5 L 69 429.5 L 65.5 435 L 64 436.5 L 65 440 Q 60.9 438.3 62 442.5 L 63 446.5 L 60.5 454 L 58 455.5 L 59 470.5 L 58 473.5 L 60.5 474 L 65 475.5 L 64 480.5 L 66 484 L 70 485 Q 68.5 489.5 73 488 L 74.5 485 L 76.5 487 Q 86.2 485.4 91 488.5 Q 85.4 491.4 75.5 490 Q 66.1 488.5 61 482.5 Q 55.5 476 56 463.5 L 57 454.5 L 62 437.5 L 77 401.5 L 83.5 390 Z " /><path fill="rgb(233,117,41)" stroke="rgb(233,117,41)" stroke-width="0.6" opacity="1" d="M 101 392 L 106.5 393 L 120 400.5 L 117.5 402 L 108.5 397 L 105.5 398 L 101 394.5 L 101 392 Z " /><path fill="rgb(233,117,41)" stroke="rgb(233,117,41)" stroke-width="0.6" opacity="1" d="M 116.5 427 L 131 436.5 L 130.5 440 Q 124.9 432.3 116 429 L 115 431.5 L 131 447.5 Q 137.6 454.4 139 466.5 L 136 468.5 L 136 466.5 L 137 462 L 133 460.5 L 133 455.5 L 130 449 L 128 447.5 L 121 441.5 L 114 431.5 L 116.5 427 Z " /><path fill="rgb(233,117,41)" stroke="rgb(233,117,41)" stroke-width="0.6" opacity="1" d="M 135 443 L 139 444.5 L 143 452.5 L 142 455 L 145 456.5 L 146.5 459 L 150 460 L 153.5 454 L 156.5 455 L 161 452 L 159.5 455 L 144 463 L 142 455.5 L 135 443 Z " /><path fill="rgb(233,117,41)" stroke="rgb(233,117,41)" stroke-width="0.6" opacity="1" d="M 133.5 467 L 135 470 Q 117.1 482.1 93 488 Q 91.3 483.5 96.5 485 L 99.5 486 Q 97.8 484 101.5 482 L 107.5 481 L 110 482 Q 108.5 478.2 111.5 479 L 115 480 L 115 477 Q 118.7 478.5 118 475.5 L 123.5 474 L 133.5 467 Z " /><path fill="rgb(35,38,38)" stroke="rgb(35,38,38)" stroke-width="0.6" opacity="1" d="M 352.5 56 L 343.5 66 L 352.5 56 Z " /><path fill="rgb(35,38,38)" stroke="rgb(35,38,38)" stroke-width="0.6" opacity="1" d="M 319.5 75 L 320 86.5 L 319 86.5 L 319.5 75 Z " /><path fill="rgb(35,38,38)" stroke="rgb(35,38,38)" stroke-width="0.6" opacity="1" d="M 350.5 115 L 342.5 124 L 350.5 115 Z " /><path fill="rgb(35,38,38)" stroke="rgb(35,38,38)" stroke-width="0.6" opacity="1" d="M 412.5 121 L 407.5 127 L 412.5 121 Z " /><path fill="rgb(35,38,38)" stroke="rgb(35,38,38)" stroke-width="0.6" opacity="1" d="M 339.5 126 L 334.5 132 L 339.5 126 Z " /><path fill="rgb(35,38,38)" stroke="rgb(35,38,38)" stroke-width="0.6" opacity="1" d="M 408.5 138 L 423 138.5 L 408.5 139 L 408.5 138 Z " /><path fill="rgb(35,38,38)" stroke="rgb(35,38,38)" stroke-width="0.6" opacity="1" d="M 308.5 197 L 313.5 203 L 308.5 197 Z " /><path fill="rgb(35,38,38)" stroke="rgb(35,38,38)" stroke-width="0.6" opacity="1" d="M 453.5 205 L 447.5 212 L 453.5 205 Z " /><path fill="rgb(35,38,38)" stroke="rgb(35,38,38)" stroke-width="0.6" opacity="1" d="M 284.5 270 L 292.5 279 L 284.5 270 Z " /><path fill="rgb(35,38,38)" stroke="rgb(35,38,38)" stroke-width="0.6" opacity="1" d="M 242.5 323 L 250.5 332 L 242.5 323 Z " /><path fill="rgb(35,38,38)" stroke="rgb(35,38,38)" stroke-width="0.6" opacity="1" d="M 282.5 371 L 277.5 377 L 282.5 371 Z " /><path fill="rgb(35,38,38)" stroke="rgb(35,38,38)" stroke-width="0.6" opacity="1" d="M 182.5 386 L 191.5 396 L 182.5 386 Z " /><path fill="rgb(68,76,68)" stroke="rgb(68,76,68)" stroke-width="0.6" opacity="1" d="M 250.5 23 L 245.5 29 L 250.5 23 Z " /><path fill="rgb(68,76,68)" stroke="rgb(68,76,68)" stroke-width="0.6" opacity="1" d="M 356.5 117 L 346.5 128 L 356.5 117 Z " /><path fill="rgb(68,76,68)" stroke="rgb(68,76,68)" stroke-width="0.6" opacity="1" d="M 344.5 120 L 337.5 128 L 344.5 120 Z " /><path fill="rgb(68,76,68)" stroke="rgb(68,76,68)" stroke-width="0.6" opacity="1" d="M 333.5 132 L 328.5 138 L 333.5 132 Z " /><path fill="rgb(213,113,53)" stroke="rgb(213,113,53)" stroke-width="0.6" opacity="1" d="M 114.5 320 L 115 321.5 L 114 325 L 119 325.5 L 113 326 L 114.5 320 Z " /><path fill="rgb(213,113,53)" stroke="rgb(213,113,53)" stroke-width="0.6" opacity="1" d="M 121.5 437 L 128.5 445 L 121.5 437 Z " /><path fill="rgb(75,68,41)" stroke="rgb(75,68,41)" stroke-width="0.6" opacity="1" d="M 195.5 183 L 188.5 191 L 195.5 183 Z " /><path fill="rgb(75,68,41)" stroke="rgb(75,68,41)" stroke-width="0.6" opacity="1" d="M 147.5 271 L 158 271.5 L 147.5 272 L 147.5 271 Z " /><path fill="rgb(141,108,46)" stroke="rgb(141,108,46)" stroke-width="0.6" opacity="1" d="M 324.5 190 L 321 194.5 L 322 197.5 L 320 196.5 L 324.5 190 Z " /><path fill="rgb(141,108,46)" stroke="rgb(141,108,46)" stroke-width="0.6" opacity="1" d="M 238.5 324 L 243.5 330 L 238.5 324 Z " /><path fill="rgb(141,108,46)" stroke="rgb(141,108,46)" stroke-width="0.6" opacity="1" d="M 290.5 350 L 282.5 359 L 290.5 350 Z " /><path fill="rgb(180,112,47)" stroke="rgb(180,112,47)" stroke-width="0.6" opacity="1" d="M 285.5 272 L 291.5 279 L 285.5 272 Z " /><path fill="rgb(180,112,47)" stroke="rgb(180,112,47)" stroke-width="0.6" opacity="1" d="M 243.5 323 L 250.5 331 L 243.5 323 Z " /><path fill="rgb(109,110,109)" stroke="rgb(109,110,109)" stroke-width="0.6" opacity="1" d="M 300.5 354 L 289.5 366 L 300.5 354 Z " /></svg>