<svg width="627" height="627" preserveAspectRatio="xMidYMid meet" viewBox="0 0 512 512" version="1.1" xmlns="http://www.w3.org/2000/svg" ><path fill="rgb(255,255,255)" stroke="rgb(255,255,255)" stroke-width="0.6" opacity="1" d="M 0 0 L 512 0 L 512 512 L 0 512 L 0 0 Z M 274 11 Q 262 13 254 19 L 238 36 L 232 49 L 230 59 L 230 86 L 233 101 L 240 119 Q 252 134 259 154 L 258 156 L 251 154 Q 232 152 220 156 Q 203 162 192 172 L 163 205 L 132 257 L 59 414 L 47 447 L 45 457 L 45 475 L 51 489 L 61 497 L 73 501 L 91 501 L 107 497 Q 132 486 155 472 Q 230 425 293 365 Q 315 343 333 318 L 346 294 L 351 275 L 351 248 L 342 225 L 344 222 L 355 222 L 379 228 L 392 229 L 423 227 Q 438 222 449 213 Q 462 202 467 183 Q 470 156 457 145 L 442 133 L 422 128 Q 437 112 443 89 L 443 64 L 436 49 Q 426 34 407 30 L 377 31 Q 361 36 350 45 L 336 61 L 329 66 Q 327 41 313 26 L 296 13 Q 287 10 274 11 Z " /><path fill="rgb(239,120,42)" stroke="rgb(239,120,42)" stroke-width="0.6" opacity="1" d="M 411.5 139 Q 438.2 138.3 449 153.5 L 455 164.5 L 455 182.5 Q 450.6 197.6 439.5 206 Q 429.4 213.9 414.5 217 L 383.5 217 L 359.5 211 L 340.5 211 L 334.5 212 L 331 206.5 Q 347.4 193.4 370.5 187 L 394.5 182 L 409.5 182 L 411 180.5 L 408.5 177 L 387.5 177 L 370.5 179 L 351.5 185 L 323 198 L 323 195.5 L 338.5 178 Q 369.4 152.9 411.5 139 Z " /><path fill="rgb(239,120,42)" stroke="rgb(239,120,42)" stroke-width="0.6" opacity="1" d="M 228.5 166 L 253.5 166 L 271.5 172 Q 296.3 184.7 314 204.5 Q 327.8 218.2 336 237.5 L 339 247.5 L 339 276.5 Q 333.1 301.1 318.5 317 Q 314.8 312.7 315 304.5 L 307 289.5 L 285.5 265 L 275.5 260 L 274 263.5 L 298 286.5 L 310 308.5 L 313 324.5 Q 295.2 347.7 273.5 367 L 270.5 368 Q 267.5 366.5 269 360.5 L 261 343.5 Q 253.8 330.2 242.5 321 L 235.5 316 L 231 316 L 235 323.5 L 255 344.5 Q 263.2 356.3 264 375.5 L 224.5 409 L 210.5 418 L 202 400.5 L 189.5 386 L 181.5 380 L 176.5 379 L 176 381.5 L 179.5 387 L 195 400.5 Q 202.2 408.8 204 422.5 Q 178.3 446.6 145 462 Q 140.6 445.9 128.5 436 L 119.5 430 L 116 430 L 117 433.5 L 134 451.5 L 139 466.5 Q 122.9 478.4 102.5 486 L 92.5 489 L 70.5 489 L 60 481.5 Q 54.3 474.2 56 459.5 L 66 427.5 L 80 395.5 L 85.5 390 L 100.5 391 L 120.5 400 L 122 396.5 L 108.5 388 L 93.5 384 L 87.5 384 L 86 382.5 L 109.5 332 L 120.5 331 L 134.5 334 Q 148 338.5 157.5 347 L 160.5 347 L 162 344.5 Q 145.9 326.4 114 325 L 115 319.5 L 137.5 274 L 151.5 272 L 173.5 275 L 194.5 283 L 196 280.5 Q 178.6 263.6 143 266 Q 152.9 236.9 171.5 215 L 197.5 216 L 210.5 220 L 232.5 232 L 234 228.5 L 223.5 220 L 203.5 211 L 188.5 208 L 177 208 L 179 202.5 L 192.5 187 Q 206 172 228.5 166 Z " /><path fill="rgb(0,0,0)" stroke="rgb(0,0,0)" stroke-width="0.6" opacity="1" d="M 272.5 12 L 292.5 13 Q 306 18 314 28.5 Q 326.5 43.3 328 68 L 340 57.5 L 352.5 44 L 376.5 32 Q 386.7 28.2 402.5 30 Q 423.1 33.9 434 47.5 L 443 66.5 L 443 85.5 Q 436.8 112.3 419 127.5 L 443.5 135 L 458 147.5 Q 469 158.5 466 183.5 Q 461.3 199.8 450.5 210 Q 439.1 220.6 422.5 226 L 413.5 228 L 393.5 229 L 382.5 228 L 359.5 222 L 342.5 222 L 341 224.5 L 350 246.5 L 351 271.5 L 345 292.5 L 331 318.5 Q 309.1 349.1 281.5 374 Q 224.4 426.4 157.5 469 L 106.5 496 L 86.5 501 L 75.5 501 L 59.5 495 L 52 487.5 L 46 475.5 L 46 456.5 L 48 445.5 L 57 420.5 Q 92.2 338.7 131 260.5 Q 146.1 230.1 165 203.5 L 195.5 170 L 218.5 157 L 233.5 154 L 245.5 154 L 260 157 L 258 147.5 Q 243.7 126.3 234 100.5 L 230 81.5 L 230 62.5 Q 234.9 32.9 255.5 19 L 272.5 12 Z M 273 22 Q 261 25 254 33 Q 244 42 241 57 L 242 94 L 248 111 L 268 147 L 272 162 L 284 167 L 285 166 L 285 148 L 286 147 L 285 115 L 280 91 L 277 86 Q 275 80 279 81 L 282 86 L 287 100 L 293 132 Q 295 154 291 172 L 297 175 Q 314 142 318 97 L 317 58 Q 314 42 305 33 Q 299 25 289 22 L 273 22 Z M 387 40 Q 368 44 356 54 Q 337 69 327 92 L 324 120 L 318 144 L 315 150 L 317 153 L 338 127 Q 356 107 381 94 L 383 95 L 357 117 Q 326 145 305 183 L 314 189 Q 330 172 350 159 L 404 130 L 426 105 L 433 87 Q 436 67 429 57 Q 422 46 409 41 L 387 40 Z M 408 139 Q 369 153 340 176 L 320 197 L 324 199 L 352 186 L 371 180 L 387 179 L 389 177 L 409 178 L 410 181 L 397 181 L 371 186 Q 346 193 329 207 L 335 213 L 345 211 L 360 212 L 385 218 L 415 218 Q 429 215 440 207 Q 452 198 456 182 L 456 166 L 449 152 Q 437 136 408 139 Z M 229 165 Q 208 171 195 184 Q 183 194 175 208 L 177 209 L 189 209 L 204 212 L 224 221 L 231 227 Q 235 229 232 231 L 211 219 L 197 215 L 187 214 L 171 215 Q 153 237 141 266 L 143 267 L 164 267 Q 180 270 192 278 L 194 282 L 174 274 L 164 272 L 137 273 L 112 325 L 114 326 L 124 326 L 141 331 L 161 345 L 160 347 Q 149 338 135 333 Q 124 330 110 331 L 106 336 L 85 384 L 87 385 L 95 385 L 109 389 L 119 395 Q 123 397 120 399 L 101 390 L 85 389 L 79 396 L 65 428 L 55 461 Q 54 473 58 481 Q 62 487 71 490 L 92 490 L 106 486 L 132 473 L 140 467 L 135 452 L 119 434 L 118 431 L 126 435 Q 139 446 146 464 Q 178 447 205 424 Q 204 409 196 401 L 182 387 Q 176 386 177 380 L 180 380 L 191 388 L 201 401 L 210 419 L 213 419 L 224 411 L 265 376 Q 264 357 256 345 L 233 320 L 233 317 L 243 322 Q 262 340 271 369 L 280 363 L 313 326 L 313 317 L 310 306 L 299 287 L 275 264 L 277 261 L 287 267 L 306 290 L 314 305 L 316 317 L 320 318 L 336 291 L 340 276 L 340 249 L 337 238 Q 330 219 317 207 Q 298 185 272 171 L 253 165 L 229 165 Z " /><path fill="rgb(67,145,70)" stroke="rgb(67,145,70)" stroke-width="0.6" opacity="1" d="M 388.5 40 Q 416.5 38.5 427 54.5 L 432 64.5 L 433 84.5 L 426 103.5 L 404.5 129 L 350.5 158 Q 329.6 171.1 313.5 189 L 306 182.5 Q 329.2 141.2 363.5 111 L 383 94.5 L 380.5 93 Q 352.6 108.1 333 131.5 L 316.5 152 L 316 149.5 L 324 121.5 L 328 90.5 Q 336.6 71.1 351.5 58 Q 365.4 44.4 388.5 40 Z " /><path fill="rgb(110,81,48)" stroke="rgb(110,81,48)" stroke-width="0.6" opacity="1" d="M 273.5 22 L 291.5 23 Q 301.2 27.3 307 35.5 Q 314.2 44.8 317 58.5 L 318 96.5 L 316 114.5 L 311 136.5 L 298 174 L 291 171.5 Q 294.8 154.3 293 131.5 L 287 98.5 L 278.5 80 Q 275.8 81.3 277 86.5 L 280 92.5 L 284 110.5 L 286 146.5 L 285 147.5 L 285 164.5 L 283.5 166 L 280.5 166 L 272 160.5 L 268 145.5 Q 252.8 123.2 243 95.5 L 241 86.5 L 241 57.5 Q 245.2 38.7 258.5 29 L 273.5 22 Z " /><path fill="rgb(110,81,48)" stroke="rgb(110,81,48)" stroke-width="0.6" opacity="1" d="M 229.5 165 L 250 165.5 L 229.5 166 L 229.5 165 Z " /><path fill="rgb(110,81,48)" stroke="rgb(110,81,48)" stroke-width="0.6" opacity="1" d="M 336.5 179 L 328 188.5 L 321.5 197 L 320 195.5 L 336.5 179 Z " /><path fill="rgb(110,81,48)" stroke="rgb(110,81,48)" stroke-width="0.6" opacity="1" d="M 176.5 208 L 189 208.5 L 176.5 209 L 176.5 208 Z " /><path fill="rgb(110,81,48)" stroke="rgb(110,81,48)" stroke-width="0.6" opacity="1" d="M 387.5 217 L 411 217.5 L 387.5 218 L 387.5 217 Z " /><path fill="rgb(110,81,48)" stroke="rgb(110,81,48)" stroke-width="0.6" opacity="1" d="M 339.5 251 L 340 274.5 L 339 274.5 L 339.5 251 Z " /><path fill="rgb(110,81,48)" stroke="rgb(110,81,48)" stroke-width="0.6" opacity="1" d="M 141.5 265 L 142.5 266 L 164 266.5 L 142.5 267 L 141.5 265 Z " /><path fill="rgb(110,81,48)" stroke="rgb(110,81,48)" stroke-width="0.6" opacity="1" d="M 284.5 273 L 294 281.5 L 292.5 281 L 284.5 273 Z " /><path fill="rgb(110,81,48)" stroke="rgb(110,81,48)" stroke-width="0.6" opacity="1" d="M 236.5 323 L 253 340.5 L 249.5 338 L 246 335.5 L 236.5 323 Z " /><path fill="rgb(110,81,48)" stroke="rgb(110,81,48)" stroke-width="0.6" opacity="1" d="M 113.5 325 L 124 325.5 L 113.5 326 L 113.5 325 Z " /><path fill="rgb(110,81,48)" stroke="rgb(110,81,48)" stroke-width="0.6" opacity="1" d="M 125.5 441 L 132 448.5 L 129 446.5 L 125.5 441 Z " /><path fill="rgb(110,81,48)" stroke="rgb(110,81,48)" stroke-width="0.6" opacity="1" d="M 71.5 489 L 89 489.5 L 71.5 490 L 71.5 489 Z " /><path fill="rgb(29,29,29)" stroke="rgb(29,29,29)" stroke-width="0.6" opacity="1" d="M 356.5 117 L 347.5 127 L 356.5 117 Z " /><path fill="rgb(29,29,29)" stroke="rgb(29,29,29)" stroke-width="0.6" opacity="1" d="M 292.5 349 L 279.5 363 L 292.5 349 Z " /><path fill="rgb(62,62,48)" stroke="rgb(62,62,48)" stroke-width="0.6" opacity="1" d="M 324.5 178 L 317.5 186 L 324.5 178 Z " /><path fill="rgb(210,118,41)" stroke="rgb(210,118,41)" stroke-width="0.6" opacity="1" d="M 292.5 348 L 278.5 363 L 292.5 348 Z " /><path fill="rgb(128,115,41)" stroke="rgb(128,115,41)" stroke-width="0.6" opacity="1" d="M 335.5 181 L 328.5 189 L 335.5 181 Z " /><path fill="rgb(128,115,41)" stroke="rgb(128,115,41)" stroke-width="0.6" opacity="1" d="M 234.5 321 L 245 332.5 L 235 323.5 L 234.5 321 Z " /><path fill="rgb(128,115,41)" stroke="rgb(128,115,41)" stroke-width="0.6" opacity="1" d="M 120.5 436 L 129 445.5 L 124 441.5 L 120.5 436 Z " /><path fill="rgb(195,195,195)" stroke="rgb(195,195,195)" stroke-width="0.6" opacity="1" d="M 454.5 206 L 449.5 212 L 454.5 206 Z " /></svg>