<svg width="627" height="627" preserveAspectRatio="xMidYMid meet" viewBox="0 0 512 512" version="1.1" xmlns="http://www.w3.org/2000/svg" ><path fill="rgb(255,255,255)" stroke="rgb(255,255,255)" stroke-width="0.6" opacity="1" d="M 0 0 L 512 0 L 512 512 L 0 512 L 0 0 Z M 240 37 L 237 38 L 229 47 Q 227 60 231 68 L 231 93 L 229 100 L 218 94 L 198 89 L 176 89 L 137 101 L 120 103 L 117 107 L 118 111 L 122 114 L 137 122 Q 108 132 87 151 Q 59 174 43 210 L 32 245 L 30 267 L 31 307 L 41 343 Q 54 375 75 399 Q 106 433 152 454 L 185 466 L 191 466 L 204 471 L 225 473 L 230 475 L 253 475 L 254 476 L 283 475 L 309 472 L 346 462 Q 389 447 420 419 Q 448 394 465 358 L 478 319 L 481 293 L 480 249 L 474 224 Q 462 189 440 165 Q 422 144 397 130 L 377 121 L 372 121 L 358 115 L 342 113 L 344 111 Q 352 105 356 95 Q 357 87 353 86 Q 342 84 339 88 L 303 89 Q 287 92 276 98 L 276 81 L 282 61 Q 283 52 279 49 Q 268 34 240 37 Z " /><path fill="rgb(220,54,53)" stroke="rgb(220,54,53)" stroke-width="0.6" opacity="1" d="M 330 122 Q 356.1 124.1 376.5 133 Q 406.5 145.5 427 167.5 Q 451.2 191.3 463 227.5 L 470 263.5 L 470 293.5 L 464 326.5 L 452 357.5 Q 437.6 386.1 415.5 407 Q 399.1 423.6 377.5 435 L 332.5 454 L 297.5 462 Q 286.3 460.3 280.5 464 L 236.5 464 L 232.5 462 L 219.5 462 L 212.5 459 L 195.5 457 L 155.5 443 Q 112.7 424.3 84 391.5 Q 62.3 367.7 50 334.5 L 43 306.5 L 43 295.5 L 41 293.5 L 41 264.5 L 43 260.5 L 44 243.5 L 54 213.5 Q 66.4 186.4 86.5 167 Q 105.2 147.7 131.5 136 L 153.5 128 L 167 127 L 165.5 129 Q 147.8 140.3 134 155.5 L 130.5 160 L 112 171.5 Q 110.8 177.8 114.5 179 L 135.5 186 L 161.5 187 L 185.5 184 L 210.5 174 L 213 176.5 L 213 186.5 L 219 204.5 L 234.5 222 L 260.5 237 L 270.5 238 L 273 235.5 L 276 216.5 L 284 198.5 L 287 185.5 L 287 177.5 L 289.5 171 L 291.5 173 L 319.5 181 L 349.5 182 L 372.5 179 L 386.5 173 L 391 168.5 Q 392 162 388.5 160 L 370.5 151 L 344.5 130 L 330 123.5 L 330 122 Z " /><path fill="rgb(0,0,0)" stroke="rgb(0,0,0)" stroke-width="0.6" opacity="1" d="M 241.5 37 L 262.5 39 Q 273.1 42.4 279 50.5 Q 281.9 54.1 281 61.5 L 275 82.5 L 275 100 L 300.5 90 L 337.5 89 Q 342.2 85.2 352.5 87 Q 356.3 88.3 355 94.5 L 343.5 110 L 340 111.5 L 342.5 114 L 358.5 116 L 369.5 121 L 374.5 121 L 401.5 134 Q 421.5 146 437 162.5 Q 459.9 186.1 472 220.5 L 479 247.5 Q 476.7 259.8 481 265.5 L 481 290.5 L 479 294.5 L 479 309.5 L 476 323.5 L 465 355.5 Q 449.2 389.7 423.5 414 Q 393 444 348.5 460 L 309.5 471 L 293.5 472 L 289.5 474 L 280.5 475 L 252.5 475 L 251.5 474 L 227.5 474 L 224.5 472 L 202.5 470 L 192.5 466 L 186.5 466 L 153.5 454 Q 109.8 434.2 79 401.5 Q 54.8 376.2 41 340.5 L 32 307.5 L 32 291.5 L 30 287.5 L 30 268.5 L 31 257.5 L 33 254.5 L 33 243.5 L 43 211.5 Q 58 178 83.5 155 L 103.5 139 L 139 121.5 Q 139.8 118.9 136.5 120 L 123.5 114 L 118 108.5 Q 117.3 103.8 120.5 103 L 135.5 102 L 173.5 90 L 197.5 90 L 215.5 94 L 228.5 101 L 231 94.5 L 231 63.5 Q 227.9 58.1 229 48.5 L 236.5 39 L 241.5 37 Z M 248 46 L 239 51 Q 237 60 241 64 L 241 98 L 239 101 L 239 109 L 235 124 L 231 132 Q 235 137 244 139 Q 262 142 269 134 L 265 116 L 265 86 L 271 57 Q 264 46 248 46 Z M 337 97 L 330 99 L 300 100 Q 287 103 279 110 L 275 115 Q 275 122 279 126 L 285 124 Q 291 122 291 126 L 284 130 L 281 134 Q 288 134 291 139 L 290 140 L 274 140 Q 267 146 257 147 Q 235 149 227 138 L 215 139 Q 210 140 211 138 L 218 133 Q 223 135 221 130 L 211 122 L 210 120 Q 219 119 224 123 L 227 114 L 211 102 L 195 99 L 173 100 L 142 110 L 140 112 L 150 115 L 179 119 L 189 123 L 192 129 L 190 131 L 178 134 L 164 142 Q 149 160 129 174 L 136 176 L 179 175 L 199 169 L 218 158 L 222 158 L 223 160 L 223 187 L 232 206 Q 244 219 263 226 L 275 193 L 276 161 L 279 158 L 286 158 L 305 167 L 324 171 Q 353 174 374 167 L 375 166 L 337 137 Q 327 131 314 129 Q 309 128 310 123 L 317 116 L 334 107 L 341 99 L 337 97 Z M 328 122 L 328 124 L 345 131 L 368 150 L 387 160 Q 391 161 390 169 L 387 172 L 373 178 L 349 182 L 333 182 Q 328 178 318 180 L 294 173 L 289 170 L 287 172 L 286 188 L 282 203 L 274 220 L 272 235 L 269 238 L 261 236 L 234 220 L 219 203 L 214 188 L 214 177 L 212 173 Q 191 185 161 187 Q 150 189 147 185 L 134 185 L 116 179 Q 112 178 113 173 L 131 161 L 136 155 Q 150 139 169 129 L 168 126 L 155 127 L 132 135 Q 112 143 98 156 Q 76 174 61 199 L 52 217 L 44 242 L 41 264 L 41 295 L 46 325 Q 58 364 83 392 Q 113 426 159 445 L 201 459 L 209 459 L 222 463 L 254 464 L 255 465 L 279 465 Q 284 461 297 463 L 336 454 L 378 436 Q 398 425 415 409 Q 435 389 450 364 L 465 327 L 470 299 L 470 259 L 464 229 Q 452 191 427 167 Q 408 146 381 134 L 347 123 L 328 122 Z " /><path fill="rgb(61,139,67)" stroke="rgb(61,139,67)" stroke-width="0.6" opacity="1" d="M 338.5 97 L 341 98.5 L 337.5 103 Q 329.5 111 317.5 115 L 310 122.5 Q 309.3 128.3 313.5 129 L 337.5 138 Q 354 154 375 165.5 L 368.5 169 L 355.5 171 L 324.5 171 L 306.5 167 L 286.5 158 L 279.5 157 L 276 160.5 L 275 191.5 L 262.5 226 Q 245.4 219.6 234 207.5 L 224 188.5 L 223 159.5 L 220.5 157 L 197.5 169 L 181.5 174 L 168.5 176 L 138.5 176 L 131 173.5 L 132.5 171 Q 151.1 158.1 165.5 141 Q 173.9 133.9 187.5 132 L 192 128.5 Q 192.8 123.8 189.5 123 L 175.5 118 Q 155.8 116.7 141 112 Q 139.8 109 143.5 110 L 169.5 101 L 192.5 99 L 211.5 103 L 227 113.5 L 225 122 L 210.5 119 Q 207.5 120.5 210.5 122 L 221 130.5 L 219.5 133 L 217.5 132 L 210 137.5 Q 209.1 140.9 214.5 139 L 226.5 138 Q 235.3 149.7 258.5 147 Q 268.6 145.6 274.5 140 L 291 140 L 289.5 136 L 282 134 Q 280.5 130.2 283.5 131 L 292 125.5 Q 290.3 122.3 283.5 124 L 278.5 125 Q 274.8 121.8 276 113.5 Q 283.8 104.8 296.5 101 L 309.5 99 L 331.5 99 L 338.5 97 Z " /><path fill="rgb(246,178,48)" stroke="rgb(246,178,48)" stroke-width="0.6" opacity="1" d="M 244.5 47 Q 262.9 46.1 270 56.5 L 265 81.5 L 265 119.5 Q 268.6 124.4 268 133.5 L 260.5 138 L 243.5 138 Q 235.9 136.6 232 131.5 L 236 123.5 L 240 107.5 L 241 62.5 L 240 50 L 244.5 47 Z " /><path fill="rgb(29,29,29)" stroke="rgb(29,29,29)" stroke-width="0.6" opacity="1" d="M 157.5 148 L 148.5 158 L 157.5 148 Z " /><path fill="rgb(29,29,29)" stroke="rgb(29,29,29)" stroke-width="0.6" opacity="1" d="M 421.5 161 L 426.5 167 L 421.5 161 Z " /><path fill="rgb(29,29,29)" stroke="rgb(29,29,29)" stroke-width="0.6" opacity="1" d="M 421.5 401 L 414.5 409 L 421.5 401 Z " /><path fill="rgb(188,54,53)" stroke="rgb(188,54,53)" stroke-width="0.6" opacity="1" d="M 144.5 145 L 134.5 156 L 144.5 145 Z " /><path fill="rgb(128,52,51)" stroke="rgb(128,52,51)" stroke-width="0.6" opacity="1" d="M 226.5 213 L 232.5 220 L 226.5 213 Z " /><path fill="rgb(128,52,51)" stroke="rgb(128,52,51)" stroke-width="0.6" opacity="1" d="M 89.5 397 L 96.5 405 L 89.5 397 Z " /><path fill="rgb(190,190,190)" stroke="rgb(190,190,190)" stroke-width="0.6" opacity="1" d="M 429.5 154 L 437.5 163 L 429.5 154 Z " /><path fill="rgb(190,190,190)" stroke="rgb(190,190,190)" stroke-width="0.6" opacity="1" d="M 78.5 401 L 88.5 412 L 78.5 401 Z " /><path fill="rgb(190,190,190)" stroke="rgb(190,190,190)" stroke-width="0.6" opacity="1" d="M 431.5 406 L 423.5 415 L 431.5 406 Z " /></svg>