<svg width="627" height="627" preserveAspectRatio="xMidYMid meet" viewBox="0 0 512 512" version="1.1" xmlns="http://www.w3.org/2000/svg" ><path fill="rgb(254,254,254)" stroke="rgb(254,254,254)" stroke-width="0.6" opacity="1" d="M 0 0 L 512 0 L 512 512 L 0 512 L 0 0 Z M 382 20 L 375 23 L 370 30 L 365 49 L 357 63 L 340 57 L 327 55 Q 310 55 299 60 L 282 69 L 252 91 L 236 97 L 231 101 L 232 108 L 243 117 L 254 122 Q 246 138 234 151 Q 219 166 201 177 L 136 209 L 108 229 Q 67 263 56 327 L 56 356 L 63 389 Q 72 416 89 436 Q 112 464 148 479 L 176 488 L 207 492 Q 249 492 280 479 Q 307 467 329 449 Q 374 409 397 347 Q 407 321 413 292 Q 421 251 425 207 L 429 195 L 431 196 Q 446 198 455 193 Q 457 192 456 187 L 450 182 Q 444 178 442 171 L 439 130 Q 436 115 428 106 Q 417 91 399 84 L 403 69 L 416 46 L 413 35 Q 405 20 382 20 Z " /><path fill="rgb(101,64,130)" stroke="rgb(101,64,130)" stroke-width="0.6" opacity="1" d="M 289.5 118 Q 294.9 116.1 294 119.5 Q 289.9 123.9 291 133.5 L 291.5 135 L 290 135.5 L 290 142 L 292 142.5 L 291 149.5 L 294 159.5 L 293 168.5 L 294 171.5 Q 291.2 173.2 292 178.5 L 294.5 182 L 302.5 184 Q 306.9 180.9 315.5 182 L 323.5 178 L 327.5 178 L 341 169.5 Q 340.2 166.9 343.5 168 L 347 165.5 L 348.5 164 L 361 154 L 361.5 152 L 362 153.5 L 361.5 155 L 364 156.5 L 367 163.5 L 367 165.5 L 375.5 181 L 379 184.5 L 392 195.5 L 393 203.5 L 391 210.5 L 392 214.5 Q 388.5 216 390 222.5 L 390 224.5 Q 386.8 234.3 388 248.5 L 386 250.5 L 386 258.5 L 384 263.5 L 383 274.5 L 383.5 276 L 382 277.5 L 383 280.5 L 381 286 Q 384.8 287.5 384 284.5 L 390 270.5 L 395 252.5 L 396 247.5 L 400 230.5 L 400 228.5 Q 399 222.5 402 220.5 L 402 218.5 L 404 202 L 408.5 203 L 410.5 202 L 412.5 205 L 413 203 L 416 203.5 L 414 204 L 415 210.5 L 414 216.5 L 412 218.5 L 410 238.5 L 411 240.5 L 409 245.5 L 410 248 Q 406.3 246.7 408 252.5 L 408 254.5 L 405 270.5 L 405 272.5 L 404 275.5 L 405 277.5 L 401 290.5 Q 403.5 292 400 293.5 L 401 296.5 L 397 307.5 L 398 309.5 L 392 324.5 L 392 326.5 L 383 352.5 L 379 358.5 L 379 360.5 L 370 380.5 L 356 403 L 354 404.5 L 343 420 L 338 423.5 L 336.5 426 L 328 433.5 L 324.5 438 L 322 439.5 L 320.5 441 L 302.5 455 L 295 458 Q 296.3 461 292.5 460 Q 289 464.7 282 464 L 280.5 466 L 274.5 469 L 272.5 469 L 264.5 473 L 255.5 474 L 250.5 477 Q 238.4 476.4 230.5 480 L 227.5 479 Q 223.9 481.9 216.5 481 Q 215.2 477.8 209.5 479 Q 208 482.5 201.5 481 L 183.5 477 L 181.5 477 L 175.5 477 L 154.5 470 L 137 461.5 Q 137.9 458.5 133.5 460 L 112 443.5 L 110.5 441 L 105 436.5 Q 84.1 416.9 74 386.5 L 74 384.5 L 70 372.5 L 70.5 371 L 69 370.5 L 70 367.5 L 67 358.5 L 68 354.5 Q 64.6 351.9 66 344.5 L 67 338.5 L 66 332.5 L 68 326.5 L 67 323.5 L 69 321.5 L 71 310.5 L 71 308.5 L 74 300.5 L 74 295.5 L 79 287.5 L 79 285.5 L 83 275 L 85 273.5 L 93 260 L 95 258.5 L 102.5 249 L 111 241.5 L 114.5 237 L 128.5 226 L 144.5 218 L 150.5 213 L 166.5 207 L 207 187 L 208.5 185 Q 227.7 173.2 243 157.5 L 262 131.5 L 266 122 L 269.5 121 L 273.5 122 L 285.5 119 L 287.5 119 L 289.5 118 Z " /><path fill="rgb(2,3,2)" stroke="rgb(2,3,2)" stroke-width="0.6" opacity="1" d="M 388.5 21 L 403 27.5 L 405.5 31 Q 409.9 29.5 409 32.5 L 414 40.5 L 412 44.5 L 413 47.5 L 409 51.5 L 406 60.5 L 401 67.5 L 400 75.5 L 398.5 77 Q 395.2 75.9 396 78.5 L 398.5 86 L 409 91 L 410.5 94 L 413.5 94 L 419 98.5 L 422.5 104 L 424 105.5 L 428 107 L 429 110.5 L 429.5 113 L 432 114.5 L 438 134.5 L 436 142 L 438 142.5 L 438 160.5 L 437 165 Q 440.7 163.7 439 169.5 L 442 172.5 Q 441.2 180.5 445 183 L 454 186 L 454 189 L 452 190.5 L 451.5 193 L 431.5 195 L 430 191 L 428 192.5 L 424 198.5 L 421 219.5 L 422 222.5 L 420 232 L 418 233.5 L 419 241.5 L 413 275.5 L 414 279.5 L 412 284 L 410 285.5 L 412 289.5 L 409 295.5 L 410 298.5 L 407 302.5 L 407 307.5 L 403 319.5 L 404 321.5 L 401 324.5 L 400 334.5 L 398.5 336 Q 395.1 335.1 397 340.5 L 382 377.5 L 358.5 415 L 355 416.5 L 350.5 425 L 344 430.5 L 342 432 L 342 434.5 L 338 436 Q 339.5 439.7 336.5 439 L 327 446.5 L 325.5 449 L 323 450.5 L 321.5 453 L 317 454 L 313.5 459 L 305 463 Q 306.3 466 302.5 465 Q 294.2 473.2 281 475 Q 282.4 478.7 276.5 477 L 269.5 481 L 257 483 L 256.5 485 L 248.5 485 L 241.5 488 L 237 487 L 236.5 489 L 227.5 489 L 224.5 490 L 223.5 489 L 200.5 489 L 198.5 490 L 184.5 487 L 182.5 488 L 176.5 485 L 169 485 Q 170.3 481.7 165.5 483 L 146.5 477 L 142 473.5 Q 143.1 470.2 140.5 471 Q 130 469.7 124 465 L 122.5 462 L 116 459 L 114.5 456 L 113.5 457 L 107 450.5 L 105.5 449 L 97.5 440 Q 93.1 441.5 94 438.5 L 93 436 L 90 434.5 L 89 429 L 84 426.5 L 83 424.5 L 82.5 422 L 81 420.5 L 78 415.5 L 76.5 412 Q 73.9 412.8 75 409.5 Q 71 407.5 71 401.5 L 72 399.5 L 64 386.5 L 65 384.5 L 62 379.5 L 63 377.5 L 61 368.5 L 61.5 367 Q 58.9 367.8 60 364.5 L 58 359.5 L 60 347 L 58 346.5 L 58 336 Q 61.7 337.4 60 331.5 L 58 321.5 L 60 317 L 62 315.5 L 61 309.5 L 63 304.5 L 62 302.5 L 65 299.5 L 69 284 Q 72.3 285.3 71 280.5 L 83.5 260 Q 86.5 260.9 85 256.5 L 93.5 245 L 109 230.5 L 110.5 228 L 115.5 226 L 126.5 216 Q 133.1 216.6 135 212.5 L 136.5 210 L 151.5 202 L 160.5 200 L 164.5 196 L 170.5 195 L 192 183.5 Q 191.1 180.5 195.5 182 Q 196.8 179 201 180 Q 199.8 177 203.5 178 L 206.5 174 L 220 166.5 L 223.5 161 L 233 155.5 L 246.5 138 L 248 136.5 L 252 131.5 L 252 129.5 L 254 126.5 L 257 121 L 238 111.5 L 237.5 109 L 235 110 L 233 102 L 235 100.5 L 236 98 L 243.5 98 L 252.5 93 L 255 92.5 Q 253.9 89.2 256.5 90 L 262.5 84 L 267 84 L 268.5 81 L 285 70 Q 283.8 67 287.5 68 L 292 67 L 293.5 64 L 297.5 62 L 302.5 62 L 309.5 58 L 317 58 Q 316 61 319 60 L 319.5 58 L 337.5 58 L 357 66 L 365 53.5 L 365 49.5 L 370 43.5 L 369 37 L 371 35.5 L 370 33.5 L 371 29 Q 375.7 29.8 377 25.5 L 378 22 L 388.5 21 Z M 386 28 L 380 31 Q 377 30 378 37 L 374 40 L 375 44 L 372 45 L 374 49 L 372 55 L 369 56 L 368 62 L 357 75 L 358 80 L 363 82 Q 365 81 364 85 Q 358 86 356 83 Q 357 79 355 80 L 350 75 L 350 71 L 348 70 L 338 65 L 336 64 L 335 64 L 323 63 L 321 62 L 320 62 L 318 64 L 309 66 L 307 65 Q 303 64 304 67 L 294 72 L 292 74 L 279 81 L 277 84 L 272 85 L 270 88 Q 265 95 255 97 L 252 101 Q 248 100 247 103 Q 243 102 244 105 L 242 106 Q 246 112 255 113 Q 257 110 260 114 L 281 113 L 292 108 L 297 108 L 299 106 L 308 104 L 310 105 L 308 106 Q 307 114 301 120 L 302 123 L 299 128 L 299 134 L 297 136 L 299 135 L 300 138 Q 301 145 298 149 L 300 150 Q 299 154 302 156 L 301 158 L 301 172 L 303 174 Q 302 177 308 175 L 310 175 L 319 171 L 321 171 L 344 159 L 347 154 Q 349 149 355 149 L 356 145 L 365 138 L 366 142 L 369 144 L 368 148 L 374 158 L 373 160 L 376 166 Q 374 172 379 170 L 383 176 Q 385 175 384 180 Q 385 183 390 182 L 396 190 L 396 192 L 399 191 L 408 194 L 411 174 L 414 173 L 417 180 L 427 186 Q 429 185 428 189 L 431 188 L 434 189 L 441 188 L 443 185 L 441 184 L 439 182 Q 434 179 434 173 L 431 138 Q 433 130 429 131 L 429 125 L 423 113 L 420 110 L 414 103 L 410 98 L 400 93 L 389 93 L 388 92 Q 386 90 389 89 Q 388 84 391 85 Q 390 79 393 76 Q 392 68 395 69 L 397 61 L 401 55 L 403 53 L 407 45 L 407 42 L 400 32 L 392 30 Q 393 27 386 28 Z M 294 114 L 283 119 L 279 118 L 268 119 Q 261 123 260 133 L 257 134 L 256 138 Q 257 141 253 139 L 252 144 L 248 147 L 241 158 L 236 161 L 231 167 Q 227 166 228 169 L 213 179 L 210 183 L 204 187 Q 199 186 200 189 L 172 203 L 164 205 L 159 209 L 156 209 L 138 218 L 132 223 L 130 225 L 126 226 Q 122 232 115 233 L 109 242 L 97 251 L 95 257 L 79 280 L 71 299 L 69 310 L 67 313 L 67 320 L 65 323 L 65 335 L 65 337 L 66 346 L 65 349 L 65 360 Q 69 362 67 371 L 71 380 L 73 392 L 73 394 L 77 398 L 83 412 L 85 413 L 91 424 L 93 425 L 94 429 L 97 430 L 98 433 L 104 438 L 106 439 L 112 447 L 144 469 L 149 469 L 171 478 Q 175 476 174 480 L 176 479 L 196 482 Q 202 480 201 484 L 223 484 L 223 482 L 242 481 L 245 479 L 259 477 L 261 475 L 276 471 L 291 463 Q 295 464 294 461 L 303 457 L 304 456 Q 318 448 328 436 Q 332 437 330 433 L 334 433 L 335 431 L 338 429 L 345 419 L 347 417 L 357 403 L 359 401 L 373 378 L 374 373 L 379 367 Q 381 355 387 349 L 393 327 L 395 325 L 395 321 L 399 313 L 399 306 L 401 304 L 401 298 L 405 288 L 405 279 L 407 278 Q 406 271 409 267 L 409 256 L 411 254 Q 410 245 413 240 L 413 228 L 415 224 L 415 211 L 417 210 L 416 204 L 417 198 L 419 196 L 417 188 Q 412 190 414 199 L 412 201 L 408 200 Q 402 199 401 203 L 402 208 L 400 214 Q 401 217 398 216 L 399 221 L 397 236 L 395 239 L 396 242 L 392 254 L 391 253 L 389 253 L 389 243 L 391 241 L 391 227 L 393 224 L 393 203 Q 396 203 395 195 L 388 191 L 382 184 L 377 181 L 374 176 Q 375 171 373 172 L 369 168 L 369 164 L 365 157 L 365 151 L 363 150 L 359 152 L 356 156 L 349 161 L 347 164 L 343 165 L 341 168 L 325 177 L 315 179 L 313 181 L 297 181 L 297 180 L 295 177 L 296 168 L 295 152 L 293 148 L 293 127 L 297 119 L 297 116 L 294 114 Z " /><path fill="rgb(66,141,68)" stroke="rgb(66,141,68)" stroke-width="0.6" opacity="1" d="M 327.5 65 L 328 67 L 335 66 L 335.5 68 L 338.5 67 L 344 69.5 L 343.5 71 L 345.5 70 L 347 74.5 L 355.5 84 L 360 86.5 L 361.5 89 Q 365.9 87.5 365 90.5 L 367.5 91 L 371.5 94 L 374.5 93 L 382 95.5 L 381.5 97 L 385 96.5 L 383 95.5 L 394.5 94 L 396.5 94 L 410 101.5 L 411.5 103 L 420 112.5 L 420.5 115 L 423 116.5 L 423 120 L 425 121.5 L 428 129.5 L 427 131.5 L 430 139.5 L 428.5 142 L 430 142.5 L 430 152.5 L 432 170.5 L 431 172.5 L 437 184.5 L 431.5 186 L 422 181.5 L 417.5 172 L 416 172.5 L 414 160.5 L 415 157.5 L 414 154 L 409 155.5 L 410 166.5 L 407.5 186 L 406 185.5 L 408 191 L 404.5 192 L 398 189 L 396.5 186 L 392 183.5 L 386.5 177 L 384 175.5 L 381.5 170 L 380 168.5 L 376 161.5 L 376.5 160 Q 373.9 160.8 375 157.5 L 368 137.5 L 370 136.5 L 367.5 135 L 365.5 135 L 360 138.5 L 358.5 141 L 355 143.5 L 349.5 150 L 346 152.5 L 344.5 155 L 341 156 L 339.5 158 Q 331.7 165.2 320.5 169 L 319 168.5 Q 319.9 171.5 315.5 170 L 311.5 172 L 304.5 173 L 303 171.5 L 303 157.5 L 304 154 Q 300.7 155.1 302 151 L 304 150.5 L 302.5 147 L 301 147.5 L 301 145.5 L 302 131.5 L 302 129.5 L 303 127.5 L 302 124.5 L 305 116 L 307 114.5 L 308 112.5 Q 305.5 111 309 109.5 Q 307.9 106.2 310.5 107 L 312 103 L 307.5 101 L 303.5 103 L 301.5 102 L 299 103 L 297.5 105 L 291.5 108 L 291.5 106 L 283.5 110 L 281.5 109 Q 280.5 112 275.5 111 L 272 110 Q 273.3 113 269.5 112 L 263.5 111 L 259 112 L 257.5 110 L 253.5 111 L 251 110 L 249.5 108 L 247.5 107 L 245 106.5 L 245.5 104 L 252 103 L 253.5 101 L 262 97 L 263.5 94 L 275 88 L 277.5 84 L 287.5 77 L 297 74 Q 295.7 70.7 300.5 72 L 303 71 Q 301.8 68 305.5 69 L 311.5 67 L 313 67.5 Q 312.2 64.9 315.5 66 L 318.5 67 L 327.5 65 Z M 314 70 L 309 72 L 311 76 Q 312 79 317 78 L 318 74 L 316 75 L 313 75 L 314 73 L 314 70 Z M 288 82 L 286 84 L 289 86 L 289 90 L 291 92 Q 289 88 287 92 L 287 94 L 294 94 L 293 84 L 288 82 Z M 305 82 Q 307 88 303 90 L 307 91 L 308 86 L 312 86 L 311 84 L 305 82 Z M 319 86 L 319 90 L 318 93 L 320 92 Q 324 93 322 89 L 319 86 Z M 278 89 L 277 92 L 277 94 L 276 92 L 270 95 L 271 96 L 279 96 L 278 95 L 279 92 Q 280 88 278 89 Z M 324 92 L 321 95 L 319 96 Q 318 99 322 98 L 323 96 Q 322 92 327 94 Q 328 91 324 92 Z M 303 93 L 301 96 L 297 98 L 299 100 L 304 98 L 303 93 Z M 280 96 L 279 106 L 283 107 L 282 106 L 283 104 L 285 104 L 287 104 L 287 98 Q 285 95 280 96 Z M 398 99 L 395 103 Q 393 109 397 111 Q 400 107 410 109 L 411 106 L 408 105 L 399 108 L 397 105 L 398 102 L 398 99 Z M 382 114 L 380 116 L 383 119 L 384 117 L 389 117 L 388 116 Q 389 112 382 114 Z M 416 114 L 411 115 L 414 119 L 418 117 L 416 114 Z M 310 125 L 310 127 L 313 128 L 312 132 L 310 133 Q 307 134 308 131 L 308 128 L 305 129 Q 303 134 307 136 L 311 135 Q 316 133 315 126 L 310 125 Z M 413 127 L 415 132 Q 417 137 412 135 L 413 131 L 409 133 L 411 135 L 412 138 Q 415 139 414 136 L 420 134 L 421 132 L 418 131 L 417 129 L 413 127 Z M 369 131 Q 368 134 371 133 L 371 136 L 373 136 L 375 139 Q 373 148 377 152 L 379 153 L 379 146 L 377 141 L 383 139 L 384 136 L 377 135 L 376 132 L 375 132 L 369 131 Z M 352 136 L 349 139 L 352 144 L 354 142 Q 349 140 352 138 L 352 136 Z M 424 144 L 423 146 L 420 147 L 418 146 Q 415 148 418 149 Q 423 150 425 147 L 424 144 Z M 331 146 L 325 149 L 327 150 L 327 153 L 329 152 L 332 150 L 338 156 L 341 153 Q 342 149 339 150 L 338 153 L 336 149 L 332 148 L 331 146 Z M 323 150 L 320 151 L 321 157 L 323 156 L 326 154 L 325 152 Q 326 149 323 150 Z M 395 152 Q 391 153 392 158 L 389 159 L 390 161 L 398 161 L 398 159 L 393 158 L 394 155 L 396 155 L 395 152 Z M 425 154 L 423 156 L 426 161 L 428 160 L 426 159 L 425 154 Z M 317 158 L 315 160 L 317 161 L 317 163 L 314 161 L 311 162 Q 313 167 323 165 L 322 164 L 324 163 L 324 161 L 322 162 L 320 163 L 321 160 Q 322 156 317 158 Z M 387 158 L 385 160 L 386 163 L 385 162 L 382 163 Q 380 167 384 166 Q 385 169 387 165 L 389 162 L 388 162 L 387 158 Z M 402 161 L 401 164 L 400 168 L 400 170 L 394 172 L 392 172 L 394 173 L 395 176 L 397 175 L 396 174 L 396 173 L 399 174 L 401 173 Q 400 170 404 171 L 404 169 L 405 164 L 402 161 Z M 426 169 Q 421 170 422 175 L 427 173 L 427 171 L 426 169 Z M 389 172 Q 388 178 393 179 L 394 177 L 391 175 Q 392 171 389 172 Z " /><path fill="rgb(9,10,9)" stroke="rgb(9,10,9)" stroke-width="0.6" opacity="1" d="M 376.5 23 L 378 23.5 L 373.5 29 L 372 27.5 L 376.5 23 Z " /><path fill="rgb(9,10,9)" stroke="rgb(9,10,9)" stroke-width="0.6" opacity="1" d="M 395.5 31 L 400 32 L 405 38.5 L 398.5 33 L 395.5 31 Z " /><path fill="rgb(9,10,9)" stroke="rgb(9,10,9)" stroke-width="0.6" opacity="1" d="M 409.5 32 L 414 38.5 L 410 35.5 L 409.5 32 Z " /><path fill="rgb(9,10,9)" stroke="rgb(9,10,9)" stroke-width="0.6" opacity="1" d="M 377.5 37 L 377 38.5 L 373.5 48 L 372 45 L 375 43.5 L 374 39.5 L 377.5 37 Z " /><path fill="rgb(9,10,9)" stroke="rgb(9,10,9)" stroke-width="0.6" opacity="1" d="M 413.5 41 L 415 44.5 L 406.5 59 L 406 57.5 L 413 45.5 L 412 42.5 L 413.5 41 Z " /><path fill="rgb(9,10,9)" stroke="rgb(9,10,9)" stroke-width="0.6" opacity="1" d="M 313.5 57 L 334 57.5 L 319 58 Q 320 61 317 60 Q 318.3 56.7 313.5 58 L 313.5 57 Z " /><path fill="rgb(9,10,9)" stroke="rgb(9,10,9)" stroke-width="0.6" opacity="1" d="M 338.5 58 L 348 61.5 L 345.5 62 L 339.5 60 L 338.5 58 Z " /><path fill="rgb(9,10,9)" stroke="rgb(9,10,9)" stroke-width="0.6" opacity="1" d="M 360.5 59 L 360 60.5 L 357 66 L 351 63.5 L 352.5 64 L 355.5 65 L 360.5 59 Z " /><path fill="rgb(9,10,9)" stroke="rgb(9,10,9)" stroke-width="0.6" opacity="1" d="M 320.5 61 L 321 63 L 323 63.5 L 321.5 65 L 305.5 67 L 298.5 71 L 300.5 68 L 304 66.5 Q 303.2 63.9 306.5 65 L 308.5 66 L 318 64 L 319.5 62 L 320.5 61 Z " /><path fill="rgb(9,10,9)" stroke="rgb(9,10,9)" stroke-width="0.6" opacity="1" d="M 367.5 62 L 366 64.5 L 360.5 72 L 358.5 73 L 362 68.5 L 367.5 62 Z " /><path fill="rgb(9,10,9)" stroke="rgb(9,10,9)" stroke-width="0.6" opacity="1" d="M 404.5 62 L 404 63.5 L 401.5 70 L 401 67.5 L 404.5 62 Z " /><path fill="rgb(9,10,9)" stroke="rgb(9,10,9)" stroke-width="0.6" opacity="1" d="M 335.5 63 L 336 65 L 340 66.5 L 338.5 67 Q 333.6 63.9 325 64.5 L 335.5 63 Z " /><path fill="rgb(9,10,9)" stroke="rgb(9,10,9)" stroke-width="0.6" opacity="1" d="M 283.5 69 L 285 69.5 L 267 82.5 Q 267.9 85.5 263.5 84 L 263.5 83 L 283.5 69 Z " /><path fill="rgb(9,10,9)" stroke="rgb(9,10,9)" stroke-width="0.6" opacity="1" d="M 349.5 71 Q 350 77.5 354.5 80 L 356 81.5 L 350 76.5 L 349.5 71 Z " /><path fill="rgb(9,10,9)" stroke="rgb(9,10,9)" stroke-width="0.6" opacity="1" d="M 392.5 72 L 393 75.5 Q 390 78.8 391 85 L 389 84.5 L 392.5 72 Z " /><path fill="rgb(9,10,9)" stroke="rgb(9,10,9)" stroke-width="0.6" opacity="1" d="M 396 77 Q 399.8 75.5 399 78.5 L 398 84.5 L 398.5 86 L 396 77 Z " /><path fill="rgb(9,10,9)" stroke="rgb(9,10,9)" stroke-width="0.6" opacity="1" d="M 364 83 L 375 87.5 L 373 90.5 L 374.5 93 L 360 85.5 L 364 85 L 364 83 Z " /><path fill="rgb(9,10,9)" stroke="rgb(9,10,9)" stroke-width="0.6" opacity="1" d="M 259.5 86 L 256.5 90 Q 253.9 89.2 255 92.5 L 251.5 94 L 249 93.5 L 259.5 86 Z " /><path fill="rgb(9,10,9)" stroke="rgb(9,10,9)" stroke-width="0.6" opacity="1" d="M 377.5 88 L 387.5 89 L 389 88.5 Q 385.5 90 388 91.5 Q 387.4 94.3 393.5 93 L 393.5 94 L 378.5 94 L 377 92.5 L 378 89.5 L 377.5 88 Z " /><path fill="rgb(9,10,9)" stroke="rgb(9,10,9)" stroke-width="0.6" opacity="1" d="M 405.5 88 Q 417.2 93.8 425 103.5 L 427 106.5 L 425.5 107 L 424 104 L 420 101.5 L 416.5 96 L 409 92.5 L 407.5 91 L 405.5 88 Z " /><path fill="rgb(9,10,9)" stroke="rgb(9,10,9)" stroke-width="0.6" opacity="1" d="M 398.5 93 L 409.5 98 L 414 102.5 L 413.5 104 L 398.5 93 Z " /><path fill="rgb(9,10,9)" stroke="rgb(9,10,9)" stroke-width="0.6" opacity="1" d="M 247.5 94 L 246.5 96 Q 244.8 98.8 239.5 98 L 239.5 97 L 247.5 94 Z " /><path fill="rgb(9,10,9)" stroke="rgb(9,10,9)" stroke-width="0.6" opacity="1" d="M 258.5 95 L 260 95.5 L 252.5 100 L 254.5 97 L 258.5 95 Z " /><path fill="rgb(9,10,9)" stroke="rgb(9,10,9)" stroke-width="0.6" opacity="1" d="M 234.5 99 L 236 99.5 L 235 102 Q 231.7 100.7 233 105.5 L 235 108.5 L 233 107.5 L 232 101.5 L 234.5 99 Z " /><path fill="rgb(9,10,9)" stroke="rgb(9,10,9)" stroke-width="0.6" opacity="1" d="M 306.5 102 L 310 103.5 L 307.5 104 L 299.5 106 L 299.5 105 L 306.5 102 Z " /><path fill="rgb(9,10,9)" stroke="rgb(9,10,9)" stroke-width="0.6" opacity="1" d="M 237.5 109 L 239.5 113 L 242 114.5 L 240.5 114 L 236 110.5 L 237.5 109 Z " /><path fill="rgb(9,10,9)" stroke="rgb(9,10,9)" stroke-width="0.6" opacity="1" d="M 284.5 110 L 287 110.5 L 280.5 113 L 259.5 114 L 258.5 112 L 271.5 113 L 284.5 110 Z " /><path fill="rgb(9,10,9)" stroke="rgb(9,10,9)" stroke-width="0.6" opacity="1" d="M 305.5 113 L 305 114.5 L 301.5 122 L 301 119.5 L 305.5 113 Z " /><path fill="rgb(9,10,9)" stroke="rgb(9,10,9)" stroke-width="0.6" opacity="1" d="M 296.5 116 L 297 118.5 L 293.5 126 L 293 124.5 L 296.5 116 Z " /><path fill="rgb(9,10,9)" stroke="rgb(9,10,9)" stroke-width="0.6" opacity="1" d="M 277.5 118 L 279 118.5 L 277.5 120 L 267.5 120 L 265 122.5 L 263.5 125 L 263 123.5 L 267.5 119 L 277.5 118 Z " /><path fill="rgb(9,10,9)" stroke="rgb(9,10,9)" stroke-width="0.6" opacity="1" d="M 433.5 118 L 437 129.5 L 436 129.5 L 433 121.5 L 433.5 118 Z " /><path fill="rgb(9,10,9)" stroke="rgb(9,10,9)" stroke-width="0.6" opacity="1" d="M 300.5 126 L 301 128.5 L 299.5 137 L 298.5 135 L 297 135.5 L 299 133.5 L 299 127.5 L 300.5 126 Z " /><path fill="rgb(9,10,9)" stroke="rgb(9,10,9)" stroke-width="0.6" opacity="1" d="M 250.5 131 L 252 131.5 L 248 138 L 245 139.5 L 230.5 158 L 226.5 160 L 239 146.5 L 250.5 131 Z " /><path fill="rgb(9,10,9)" stroke="rgb(9,10,9)" stroke-width="0.6" opacity="1" d="M 292.5 132 L 293 143.5 L 292 143.5 L 292.5 132 Z " /><path fill="rgb(9,10,9)" stroke="rgb(9,10,9)" stroke-width="0.6" opacity="1" d="M 437.5 135 L 439 137.5 Q 437.3 156.7 441 170.5 L 439 169.5 L 439 165.5 Q 436 166.5 437 161.5 L 438 160.5 L 438 142 Q 434.7 143.3 436 138.5 L 437.5 135 Z " /><path fill="rgb(9,10,9)" stroke="rgb(9,10,9)" stroke-width="0.6" opacity="1" d="M 363.5 137 Q 368.3 136.3 369 139.5 L 371 150.5 L 368 148.5 L 369 143.5 L 366 142 L 365 138 L 359.5 142 L 363.5 137 Z " /><path fill="rgb(9,10,9)" stroke="rgb(9,10,9)" stroke-width="0.6" opacity="1" d="M 431.5 138 L 433.5 167 L 434.5 165 L 435 166.5 L 434 172.5 L 435 175.5 L 434 175.5 L 431 155.5 L 431.5 138 Z " /><path fill="rgb(9,10,9)" stroke="rgb(9,10,9)" stroke-width="0.6" opacity="1" d="M 251.5 144 L 249 147.5 L 241.5 157 L 242 155.5 L 247.5 147 L 251.5 144 Z " /><path fill="rgb(9,10,9)" stroke="rgb(9,10,9)" stroke-width="0.6" opacity="1" d="M 299.5 144 L 302 154.5 L 300 153.5 L 300 150 L 298 148.5 L 299.5 144 Z " /><path fill="rgb(9,10,9)" stroke="rgb(9,10,9)" stroke-width="0.6" opacity="1" d="M 293.5 148 Q 296.2 151.8 295 159.5 L 294 159.5 L 293.5 148 Z " /><path fill="rgb(9,10,9)" stroke="rgb(9,10,9)" stroke-width="0.6" opacity="1" d="M 360.5 151 L 354.5 158 L 356 155.5 L 358.5 152 L 360.5 151 Z " /><path fill="rgb(9,10,9)" stroke="rgb(9,10,9)" stroke-width="0.6" opacity="1" d="M 346.5 154 L 346 155.5 L 343.5 159 L 340.5 160 L 344.5 155 L 346.5 154 Z " /><path fill="rgb(9,10,9)" stroke="rgb(9,10,9)" stroke-width="0.6" opacity="1" d="M 301.5 157 L 302 171.5 L 301 171.5 L 301.5 157 Z " /><path fill="rgb(9,10,9)" stroke="rgb(9,10,9)" stroke-width="0.6" opacity="1" d="M 373.5 159 L 383 175.5 L 381 174.5 L 379 170 Q 374.1 171.8 376 165.5 L 373.5 159 Z " /><path fill="rgb(9,10,9)" stroke="rgb(9,10,9)" stroke-width="0.6" opacity="1" d="M 221.5 163 L 220 165.5 L 218.5 168 L 213.5 170 L 214.5 168 L 221.5 163 Z " /><path fill="rgb(9,10,9)" stroke="rgb(9,10,9)" stroke-width="0.6" opacity="1" d="M 411 163 Q 416.6 161.1 414 169.5 Q 414.9 178.1 421 181.5 L 419.5 182 L 413.5 173 L 411 173.5 L 409.5 185 L 409 177.5 L 411 163 Z " /><path fill="rgb(9,10,9)" stroke="rgb(9,10,9)" stroke-width="0.6" opacity="1" d="M 331.5 164 L 329.5 167 L 320.5 171 L 321.5 169 L 331.5 164 Z " /><path fill="rgb(9,10,9)" stroke="rgb(9,10,9)" stroke-width="0.6" opacity="1" d="M 228 167 L 230 167.5 L 215.5 179 L 219.5 174 L 228 169 L 228 167 Z " /><path fill="rgb(9,10,9)" stroke="rgb(9,10,9)" stroke-width="0.6" opacity="1" d="M 294.5 170 Q 293.8 176.7 297 179.5 L 296.5 181 L 310 181.5 L 298.5 183 L 294 180.5 L 293 176.5 L 294.5 170 Z " /><path fill="rgb(9,10,9)" stroke="rgb(9,10,9)" stroke-width="0.6" opacity="1" d="M 442.5 174 L 447.5 182 L 450 183.5 L 448.5 184 L 445 183 L 442 177.5 L 442.5 174 Z " /><path fill="rgb(9,10,9)" stroke="rgb(9,10,9)" stroke-width="0.6" opacity="1" d="M 204.5 175 L 205 176.5 L 201 178 Q 202.3 181 198.5 180 L 199.5 178 L 204.5 175 Z " /><path fill="rgb(9,10,9)" stroke="rgb(9,10,9)" stroke-width="0.6" opacity="1" d="M 436.5 179 L 438.5 182 L 441 183.5 L 442.5 185 L 440.5 188 L 433.5 189 L 430.5 188 L 428 189 Q 426.5 185.3 429.5 186 L 438.5 187 Q 441.8 185.3 438 183.5 L 436.5 179 Z " /><path fill="rgb(9,10,9)" stroke="rgb(9,10,9)" stroke-width="0.6" opacity="1" d="M 378.5 181 L 382 183.5 L 384 187.5 L 381 185.5 L 378.5 181 Z " /><path fill="rgb(9,10,9)" stroke="rgb(9,10,9)" stroke-width="0.6" opacity="1" d="M 190.5 183 L 192 183.5 L 183.5 188 L 183.5 187 L 190.5 183 Z " /><path fill="rgb(9,10,9)" stroke="rgb(9,10,9)" stroke-width="0.6" opacity="1" d="M 451.5 184 L 455 186.5 Q 456 192 452.5 193 L 452 190.5 L 454 189 L 454 186 L 451.5 184 Z " /><path fill="rgb(9,10,9)" stroke="rgb(9,10,9)" stroke-width="0.6" opacity="1" d="M 394.5 187 L 403 191.5 L 400.5 192 L 398.5 191 L 396 192 L 394.5 187 Z " /><path fill="rgb(9,10,9)" stroke="rgb(9,10,9)" stroke-width="0.6" opacity="1" d="M 416.5 188 L 417.5 190 L 415 190.5 Q 417 199 412.5 201 L 414 198.5 Q 412 190 416.5 188 Z " /><path fill="rgb(9,10,9)" stroke="rgb(9,10,9)" stroke-width="0.6" opacity="1" d="M 388.5 191 L 395 194.5 Q 396.8 202.4 393.5 202 L 394 200.5 Q 395 194 390.5 193 L 388.5 191 Z " /><path fill="rgb(9,10,9)" stroke="rgb(9,10,9)" stroke-width="0.6" opacity="1" d="M 446.5 193 L 450 193.5 L 439.5 195 L 439.5 194 L 446.5 193 Z " /><path fill="rgb(9,10,9)" stroke="rgb(9,10,9)" stroke-width="0.6" opacity="1" d="M 425.5 197 L 425 198.5 L 423 220 L 421 218.5 L 423 202.5 L 425.5 197 Z " /><path fill="rgb(9,10,9)" stroke="rgb(9,10,9)" stroke-width="0.6" opacity="1" d="M 155.5 209 L 157 209.5 L 148.5 214 L 149.5 212 L 155.5 209 Z " /><path fill="rgb(9,10,9)" stroke="rgb(9,10,9)" stroke-width="0.6" opacity="1" d="M 135.5 210 L 135 211.5 L 133.5 214 L 127.5 216 L 127.5 215 L 135.5 210 Z " /><path fill="rgb(9,10,9)" stroke="rgb(9,10,9)" stroke-width="0.6" opacity="1" d="M 392.5 213 L 393 223.5 L 391.5 226 L 391 224.5 L 392.5 213 Z " /><path fill="rgb(9,10,9)" stroke="rgb(9,10,9)" stroke-width="0.6" opacity="1" d="M 400.5 213 L 401 219.5 L 397.5 235 L 397 229.5 Q 399.8 226.8 399 220.5 L 398 216 Q 401.1 217.1 400.5 213 Z " /><path fill="rgb(9,10,9)" stroke="rgb(9,10,9)" stroke-width="0.6" opacity="1" d="M 143.5 215 L 145 215.5 L 130.5 224 L 130.5 223 L 143.5 215 Z " /><path fill="rgb(9,10,9)" stroke="rgb(9,10,9)" stroke-width="0.6" opacity="1" d="M 414.5 216 L 415 223.5 L 413.5 227 L 413 224.5 L 414.5 216 Z " /><path fill="rgb(9,10,9)" stroke="rgb(9,10,9)" stroke-width="0.6" opacity="1" d="M 121.5 219 L 115.5 226 L 114 225.5 L 121.5 219 Z " /><path fill="rgb(9,10,9)" stroke="rgb(9,10,9)" stroke-width="0.6" opacity="1" d="M 421.5 223 L 422 226.5 L 415.5 269 L 415 261.5 L 417 256.5 L 419 234.5 L 418 232 Q 421.7 233.3 420 227.5 L 421.5 223 Z " /><path fill="rgb(9,10,9)" stroke="rgb(9,10,9)" stroke-width="0.6" opacity="1" d="M 108.5 230 L 94.5 245 L 97 241.5 L 104.5 233 L 108.5 230 Z " /><path fill="rgb(9,10,9)" stroke="rgb(9,10,9)" stroke-width="0.6" opacity="1" d="M 119.5 231 L 115.5 236 L 109.5 241 L 115 234.5 L 116.5 233 L 119.5 231 Z " /><path fill="rgb(9,10,9)" stroke="rgb(9,10,9)" stroke-width="0.6" opacity="1" d="M 390.5 232 L 391 240.5 L 389 241.5 L 390.5 232 Z " /><path fill="rgb(9,10,9)" stroke="rgb(9,10,9)" stroke-width="0.6" opacity="1" d="M 412.5 232 L 413 239.5 L 411.5 245 L 411 239.5 L 412.5 232 Z " /><path fill="rgb(9,10,9)" stroke="rgb(9,10,9)" stroke-width="0.6" opacity="1" d="M 103.5 246 L 100 250.5 L 95.5 256 L 96 254.5 L 97 251 L 103.5 246 Z " /><path fill="rgb(9,10,9)" stroke="rgb(9,10,9)" stroke-width="0.6" opacity="1" d="M 91.5 247 L 91 248.5 L 85 256.5 L 85 260 L 81 262.5 L 71 280.5 L 71 284 L 69 282.5 Q 78.1 262.6 91.5 247 Z " /><path fill="rgb(9,10,9)" stroke="rgb(9,10,9)" stroke-width="0.6" opacity="1" d="M 388.5 247 L 389.5 253 L 391 252.5 L 391.5 254 L 393 253.5 L 387.5 272 L 386.5 270 L 385 270.5 L 387.5 259 Q 389.3 261.8 391 257.5 L 388.5 256 L 387 256.5 L 388.5 247 Z " /><path fill="rgb(9,10,9)" stroke="rgb(9,10,9)" stroke-width="0.6" opacity="1" d="M 94.5 257 L 93 259.5 L 83.5 274 L 83 272.5 L 94.5 257 Z " /><path fill="rgb(9,10,9)" stroke="rgb(9,10,9)" stroke-width="0.6" opacity="1" d="M 408.5 260 L 409 266.5 L 407.5 271 L 407 266.5 L 408.5 260 Z " /><path fill="rgb(9,10,9)" stroke="rgb(9,10,9)" stroke-width="0.6" opacity="1" d="M 82.5 275 L 82 276.5 L 71.5 301 L 71 298.5 L 78 281.5 L 82.5 275 Z " /><path fill="rgb(9,10,9)" stroke="rgb(9,10,9)" stroke-width="0.6" opacity="1" d="M 413.5 280 L 413 281.5 L 411.5 288 L 410 284 Q 413 285.3 412 281.5 L 413.5 280 Z " /><path fill="rgb(9,10,9)" stroke="rgb(9,10,9)" stroke-width="0.6" opacity="1" d="M 66.5 290 L 67 293.5 L 63.5 301 L 63 298.5 L 66.5 290 Z " /><path fill="rgb(9,10,9)" stroke="rgb(9,10,9)" stroke-width="0.6" opacity="1" d="M 409.5 299 L 409 300.5 L 403.5 320 L 403 317.5 L 407 307.5 L 407 302.5 L 409.5 299 Z " /><path fill="rgb(9,10,9)" stroke="rgb(9,10,9)" stroke-width="0.6" opacity="1" d="M 62.5 304 L 63 306.5 Q 60 308.5 61 314.5 L 62 317 L 60 318.5 L 59 318.5 Q 58.8 309.3 62.5 304 Z " /><path fill="rgb(9,10,9)" stroke="rgb(9,10,9)" stroke-width="0.6" opacity="1" d="M 66.5 320 L 67 324.5 L 65.5 335 L 65 322.5 L 66.5 320 Z " /><path fill="rgb(9,10,9)" stroke="rgb(9,10,9)" stroke-width="0.6" opacity="1" d="M 402.5 323 L 403 324.5 L 400.5 332 L 400 329.5 L 402.5 323 Z " /><path fill="rgb(9,10,9)" stroke="rgb(9,10,9)" stroke-width="0.6" opacity="1" d="M 58.5 324 L 60 336 L 58 336.5 L 58 347 Q 61.7 345.6 60 351.5 L 58.5 359 L 57 353.5 L 57 328.5 L 58.5 324 Z " /><path fill="rgb(9,10,9)" stroke="rgb(9,10,9)" stroke-width="0.6" opacity="1" d="M 396.5 341 L 397 342.5 L 393.5 351 L 393 347.5 L 396.5 341 Z " /><path fill="rgb(9,10,9)" stroke="rgb(9,10,9)" stroke-width="0.6" opacity="1" d="M 386.5 346 L 387 348.5 L 383.5 354 L 384 352.5 L 386.5 346 Z " /><path fill="rgb(9,10,9)" stroke="rgb(9,10,9)" stroke-width="0.6" opacity="1" d="M 65.5 348 L 67 360.5 L 65 359.5 L 65.5 348 Z " /><path fill="rgb(9,10,9)" stroke="rgb(9,10,9)" stroke-width="0.6" opacity="1" d="M 392.5 352 L 393 353.5 L 389.5 361 L 389 357.5 L 392.5 352 Z " /><path fill="rgb(9,10,9)" stroke="rgb(9,10,9)" stroke-width="0.6" opacity="1" d="M 59.5 364 L 60 367 L 62 367.5 L 61 371.5 L 63 378.5 L 61 377.5 L 59.5 364 Z " /><path fill="rgb(9,10,9)" stroke="rgb(9,10,9)" stroke-width="0.6" opacity="1" d="M 379.5 381 L 379 382.5 L 372.5 394 L 373 392.5 L 379.5 381 Z " /><path fill="rgb(9,10,9)" stroke="rgb(9,10,9)" stroke-width="0.6" opacity="1" d="M 71.5 382 L 77 396.5 L 73 393.5 L 73 391.5 L 71.5 382 Z " /><path fill="rgb(9,10,9)" stroke="rgb(9,10,9)" stroke-width="0.6" opacity="1" d="M 65.5 389 L 72 400.5 L 70.5 403 L 65.5 389 Z " /><path fill="rgb(9,10,9)" stroke="rgb(9,10,9)" stroke-width="0.6" opacity="1" d="M 362.5 394 L 363 395.5 L 358.5 401 L 359 399.5 L 362.5 394 Z " /><path fill="rgb(9,10,9)" stroke="rgb(9,10,9)" stroke-width="0.6" opacity="1" d="M 368.5 400 L 367 402.5 L 362.5 410 L 362 408.5 L 368.5 400 Z " /><path fill="rgb(9,10,9)" stroke="rgb(9,10,9)" stroke-width="0.6" opacity="1" d="M 355.5 404 L 355 405.5 L 346.5 417 L 348 414.5 L 355.5 404 Z " /><path fill="rgb(9,10,9)" stroke="rgb(9,10,9)" stroke-width="0.6" opacity="1" d="M 81.5 406 L 89 417.5 L 85 414.5 L 83 411.5 L 81.5 406 Z " /><path fill="rgb(9,10,9)" stroke="rgb(9,10,9)" stroke-width="0.6" opacity="1" d="M 75.5 412 L 78 413.5 L 81 418.5 L 80.5 421 L 75.5 412 Z " /><path fill="rgb(9,10,9)" stroke="rgb(9,10,9)" stroke-width="0.6" opacity="1" d="M 356.5 415 L 358 415.5 L 352.5 423 L 352 421.5 L 356.5 415 Z " /><path fill="rgb(9,10,9)" stroke="rgb(9,10,9)" stroke-width="0.6" opacity="1" d="M 89.5 419 L 105 438.5 L 104 438.5 L 100.5 434 L 98 432.5 L 96.5 430 L 94 428.5 L 93 425 L 91 423.5 L 89.5 419 Z " /><path fill="rgb(9,10,9)" stroke="rgb(9,10,9)" stroke-width="0.6" opacity="1" d="M 341.5 422 L 339 425.5 L 337.5 429 L 335 430.5 L 333.5 433 L 331 432.5 L 341.5 422 Z " /><path fill="rgb(9,10,9)" stroke="rgb(9,10,9)" stroke-width="0.6" opacity="1" d="M 349.5 425 L 348 427.5 L 342.5 434 L 342 432 L 344 430.5 L 349.5 425 Z " /><path fill="rgb(9,10,9)" stroke="rgb(9,10,9)" stroke-width="0.6" opacity="1" d="M 336.5 439 L 330.5 446 L 323.5 451 L 324.5 449 L 327 447.5 L 329.5 444 L 336.5 439 Z " /><path fill="rgb(9,10,9)" stroke="rgb(9,10,9)" stroke-width="0.6" opacity="1" d="M 95.5 440 L 99 441.5 L 105.5 449 L 107 450.5 L 113.5 457 L 116 457.5 L 117.5 459 L 124 463.5 L 123.5 465 Q 106.5 454.4 95.5 440 Z " /><path fill="rgb(9,10,9)" stroke="rgb(9,10,9)" stroke-width="0.6" opacity="1" d="M 107.5 440 L 120 451.5 L 118.5 452 L 112 446.5 L 107.5 440 Z " /><path fill="rgb(9,10,9)" stroke="rgb(9,10,9)" stroke-width="0.6" opacity="1" d="M 321.5 441 L 316.5 447 L 306.5 454 L 307.5 452 L 321.5 441 Z " /><path fill="rgb(9,10,9)" stroke="rgb(9,10,9)" stroke-width="0.6" opacity="1" d="M 121.5 452 L 132 459.5 L 130.5 460 L 121.5 452 Z " /><path fill="rgb(9,10,9)" stroke="rgb(9,10,9)" stroke-width="0.6" opacity="1" d="M 304.5 454 L 304 455.5 L 302.5 457 L 294 461 Q 295.3 464 291.5 463 L 292.5 461 L 304.5 454 Z " /><path fill="rgb(9,10,9)" stroke="rgb(9,10,9)" stroke-width="0.6" opacity="1" d="M 133.5 460 Q 146.5 470 165 474.5 L 161.5 475 L 148.5 469 L 143.5 469 L 133.5 460 Z " /><path fill="rgb(9,10,9)" stroke="rgb(9,10,9)" stroke-width="0.6" opacity="1" d="M 288.5 463 L 290 463.5 L 273.5 471 L 273.5 470 L 288.5 463 Z " /><path fill="rgb(9,10,9)" stroke="rgb(9,10,9)" stroke-width="0.6" opacity="1" d="M 132.5 469 L 142 471 L 143.5 475 L 146 476.5 L 144.5 476 L 133.5 471 L 132.5 469 Z " /><path fill="rgb(9,10,9)" stroke="rgb(9,10,9)" stroke-width="0.6" opacity="1" d="M 270.5 471 L 272 471.5 L 261.5 475 L 261.5 474 L 270.5 471 Z " /><path fill="rgb(9,10,9)" stroke="rgb(9,10,9)" stroke-width="0.6" opacity="1" d="M 166.5 475 L 180 478.5 L 174.5 480 L 174 478 Q 166.9 478.7 166.5 475 Z " /><path fill="rgb(9,10,9)" stroke="rgb(9,10,9)" stroke-width="0.6" opacity="1" d="M 258.5 475 L 260 475.5 L 250.5 479 L 245.5 479 L 245.5 478 L 258.5 475 Z " /><path fill="rgb(9,10,9)" stroke="rgb(9,10,9)" stroke-width="0.6" opacity="1" d="M 181.5 479 L 193 480.5 L 183.5 481 L 181.5 479 Z " /><path fill="rgb(9,10,9)" stroke="rgb(9,10,9)" stroke-width="0.6" opacity="1" d="M 240.5 479 L 244 479.5 Q 240.7 482.7 232.5 481 L 232.5 480 L 240.5 479 Z " /><path fill="rgb(9,10,9)" stroke="rgb(9,10,9)" stroke-width="0.6" opacity="1" d="M 158.5 481 L 169 483 L 168.5 485 L 158.5 482 L 158.5 481 Z " /><path fill="rgb(9,10,9)" stroke="rgb(9,10,9)" stroke-width="0.6" opacity="1" d="M 195.5 481 L 213.5 482 L 214.5 481 L 229.5 481 L 229.5 482 Q 221.6 480.8 222.5 484 L 201 484 Q 202.4 480 195.5 482 L 195.5 481 Z " /><path fill="rgb(9,10,9)" stroke="rgb(9,10,9)" stroke-width="0.6" opacity="1" d="M 200.5 489 L 224 489.5 L 200.5 490 L 200.5 489 Z " /><path fill="rgb(68,142,70)" stroke="rgb(68,142,70)" stroke-width="0.6" opacity="1" d="M 313.5 70 L 314 72.5 L 313 74.5 L 315.5 75 L 318 74 L 316.5 78 Q 311.8 78.8 311 75.5 L 309 72 L 313.5 70 Z " /><path fill="rgb(68,142,70)" stroke="rgb(68,142,70)" stroke-width="0.6" opacity="1" d="M 287.5 82 L 293 84 L 294 94 L 287 94 L 287 91.5 Q 290 90.5 289 85.5 L 286 83.5 L 287.5 82 Z " /><path fill="rgb(68,142,70)" stroke="rgb(68,142,70)" stroke-width="0.6" opacity="1" d="M 305 82 L 311 83.5 L 312 85.5 L 308 86 L 306.5 91 L 303 89.5 Q 306.5 87.8 305 82 Z " /><path fill="rgb(68,142,70)" stroke="rgb(68,142,70)" stroke-width="0.6" opacity="1" d="M 318.5 86 L 322 88.5 Q 323.7 93.3 319.5 92 L 318 92.5 L 319 89.5 L 318.5 86 Z " /><path fill="rgb(68,142,70)" stroke="rgb(68,142,70)" stroke-width="0.6" opacity="1" d="M 277.5 89 Q 280.1 88.2 279 91.5 L 278 94.5 L 278.5 96 L 270.5 96 L 270 94.5 L 276 92 L 276.5 94 L 277 91.5 L 277.5 89 Z " /><path fill="rgb(68,142,70)" stroke="rgb(68,142,70)" stroke-width="0.6" opacity="1" d="M 323.5 92 Q 328.3 90.7 327 94 Q 322.2 92.1 323 95.5 L 322 98 Q 317.9 99.3 319 96 L 321 94.5 L 323.5 92 Z " /><path fill="rgb(68,142,70)" stroke="rgb(68,142,70)" stroke-width="0.6" opacity="1" d="M 302.5 93 L 304 97.5 L 298.5 100 L 297 97.5 L 301 96 L 302.5 93 Z " /><path fill="rgb(68,142,70)" stroke="rgb(68,142,70)" stroke-width="0.6" opacity="1" d="M 280 96 Q 285.4 94.5 287 97.5 L 287 104 L 284.5 104 L 283 103.5 L 282 105.5 L 282.5 107 L 279 106 L 280 96 Z " /><path fill="rgb(68,142,70)" stroke="rgb(68,142,70)" stroke-width="0.6" opacity="1" d="M 397.5 99 L 398 101.5 L 397 104.5 L 398.5 108 L 407.5 105 L 411 106 L 409.5 109 Q 400 107 396.5 111 Q 393.3 109.3 395 102.5 L 397.5 99 Z " /><path fill="rgb(68,142,70)" stroke="rgb(68,142,70)" stroke-width="0.6" opacity="1" d="M 315 111 L 318 111.5 L 315 113 L 313.5 118 L 311 116.5 Q 308.9 110.7 313.5 112 L 315 112.5 L 315 111 Z " /><path fill="rgb(68,142,70)" stroke="rgb(68,142,70)" stroke-width="0.6" opacity="1" d="M 346.5 114 L 348 115.5 L 345 117 L 342.5 121 L 338 119.5 L 345 117 L 346.5 114 Z " /><path fill="rgb(68,142,70)" stroke="rgb(68,142,70)" stroke-width="0.6" opacity="1" d="M 381.5 114 Q 388.5 112.5 388 115.5 L 388.5 117 L 384 117 L 382.5 119 L 380 115.5 L 381.5 114 Z " /><path fill="rgb(68,142,70)" stroke="rgb(68,142,70)" stroke-width="0.6" opacity="1" d="M 415.5 114 L 417.5 117 L 413.5 119 L 411 115 L 415.5 114 Z " /><path fill="rgb(68,142,70)" stroke="rgb(68,142,70)" stroke-width="0.6" opacity="1" d="M 310 125 L 315 126 Q 316.3 133.3 310.5 135 L 306.5 136 Q 303.5 134.4 305 129 L 307.5 128 L 308 130.5 Q 306.9 133.8 309.5 133 L 312 132 L 313 128 L 310 126.5 L 310 125 Z " /><path fill="rgb(68,142,70)" stroke="rgb(68,142,70)" stroke-width="0.6" opacity="1" d="M 417.5 126 L 423 127.5 Q 424.5 131.9 421.5 131 L 420 134 L 414 136 Q 415 139 412 138 L 410.5 135 L 409 133 L 413 131 L 412 135 Q 416.5 136.8 415 131.5 L 413 127 L 417 128.5 L 417.5 131 Q 421.9 132.5 421 129.5 L 417.5 126 Z " /><path fill="rgb(68,142,70)" stroke="rgb(68,142,70)" stroke-width="0.6" opacity="1" d="M 377.5 129 L 376 131.5 L 377 135 L 384 136 L 382.5 139 L 377 140.5 L 379 145.5 L 379 152.5 L 377 151.5 Q 373.5 147.5 375 138.5 L 372.5 136 L 371 136 L 371 133 Q 368 134 369 131 L 374.5 132 L 377.5 129 Z " /><path fill="rgb(68,142,70)" stroke="rgb(68,142,70)" stroke-width="0.6" opacity="1" d="M 351.5 136 L 352 137.5 Q 349 139.5 354 141.5 L 351.5 144 L 349 138.5 L 351.5 136 Z " /><path fill="rgb(68,142,70)" stroke="rgb(68,142,70)" stroke-width="0.6" opacity="1" d="M 423.5 144 L 425 146.5 Q 423.3 149.8 417.5 149 Q 414.5 147.5 417.5 146 L 419.5 147 L 423 146 L 423.5 144 Z " /><path fill="rgb(68,142,70)" stroke="rgb(68,142,70)" stroke-width="0.6" opacity="1" d="M 330.5 146 L 332 147.5 L 336 149 L 337.5 153 L 338.5 150 Q 342.3 148.8 341 152.5 L 337.5 156 L 331.5 150 L 329 151.5 L 327 153 Q 328.3 148.9 325 150 L 326 154 L 323 155.5 L 321 157 L 320 151 L 325 150 L 326.5 147 L 330.5 146 Z " /><path fill="rgb(68,142,70)" stroke="rgb(68,142,70)" stroke-width="0.6" opacity="1" d="M 394.5 152 L 396 154.5 L 394 155 L 393 157.5 L 398 159 L 397.5 161 L 390 161 L 389 158.5 L 392 158 Q 391 153.3 394.5 152 Z " /><path fill="rgb(68,142,70)" stroke="rgb(68,142,70)" stroke-width="0.6" opacity="1" d="M 410.5 154 Q 415.3 152.3 414 156.5 L 415 159.5 L 413 158.5 Q 414.3 153.7 411 155 L 409.5 160 L 409 155.5 L 410.5 154 Z " /><path fill="rgb(68,142,70)" stroke="rgb(68,142,70)" stroke-width="0.6" opacity="1" d="M 424.5 154 L 426 159 L 428 159.5 L 425.5 161 L 423 155.5 L 424.5 154 Z " /><path fill="rgb(68,142,70)" stroke="rgb(68,142,70)" stroke-width="0.6" opacity="1" d="M 316.5 158 Q 321.9 156.1 321 159.5 L 320 162.5 L 321.5 162 L 323.5 161 L 324 163 L 322 163.5 L 322.5 165 Q 313 167 311 161.5 L 313.5 161 L 315 159.5 L 316.5 158 Z " /><path fill="rgb(68,142,70)" stroke="rgb(68,142,70)" stroke-width="0.6" opacity="1" d="M 386.5 158 L 387.5 162 L 389 161.5 L 387 164.5 Q 385.3 168.8 383.5 166 Q 380.5 166.7 382 163 L 384.5 162 L 386 162.5 L 385 159.5 L 386.5 158 Z " /><path fill="rgb(68,142,70)" stroke="rgb(68,142,70)" stroke-width="0.6" opacity="1" d="M 401.5 161 L 405 163.5 L 404 168.5 L 403.5 171 Q 400.2 169.9 401 172.5 L 398.5 174 L 395.5 173 L 395.5 174 L 397 174.5 L 393 177.5 L 392.5 179 Q 388 177.6 389 172 Q 392 170.8 391 174.5 L 393.5 176 L 393.5 173 L 392 171.5 L 393.5 172 L 400 169.5 L 400 167.5 L 401 163.5 L 401.5 161 Z " /><path fill="rgb(68,142,70)" stroke="rgb(68,142,70)" stroke-width="0.6" opacity="1" d="M 425.5 169 L 427 170.5 L 426.5 173 L 422 175 Q 421.3 170.3 425.5 169 Z " /><path fill="rgb(68,142,70)" stroke="rgb(68,142,70)" stroke-width="0.6" opacity="1" d="M 417.5 172 Q 417.9 178.1 422 180.5 L 420.5 181 L 416 173.5 L 417.5 172 Z " /><path fill="rgb(182,115,159)" stroke="rgb(182,115,159)" stroke-width="0.6" opacity="1" d="M 382.5 30 Q 399.8 29.2 405 40.5 L 406 43.5 L 393 66.5 L 386.5 89 Q 367.4 87.6 358 76.5 L 359.5 73 L 363 70.5 L 374 52.5 L 380.5 31 L 382.5 30 Z " /><path fill="rgb(94,62,117)" stroke="rgb(94,62,117)" stroke-width="0.6" opacity="1" d="M 145.5 216 L 144.5 218 L 138.5 221 L 139.5 219 L 145.5 216 Z " /><path fill="rgb(94,62,117)" stroke="rgb(94,62,117)" stroke-width="0.6" opacity="1" d="M 110.5 241 L 103.5 249 L 110.5 241 Z " /><path fill="rgb(94,62,117)" stroke="rgb(94,62,117)" stroke-width="0.6" opacity="1" d="M 407.5 256 L 408 261.5 L 406.5 269 L 406 262.5 L 407.5 256 Z " /><path fill="rgb(94,62,117)" stroke="rgb(94,62,117)" stroke-width="0.6" opacity="1" d="M 385.5 259 L 386 262.5 L 384.5 271 L 384 263.5 L 385.5 259 Z " /><path fill="rgb(94,62,117)" stroke="rgb(94,62,117)" stroke-width="0.6" opacity="1" d="M 389.5 333 L 390 334.5 L 384.5 349 L 384 347.5 L 389.5 333 Z " /><path fill="rgb(94,62,117)" stroke="rgb(94,62,117)" stroke-width="0.6" opacity="1" d="M 96.5 427 L 101.5 433 L 96.5 427 Z " /><path fill="rgb(94,62,117)" stroke="rgb(94,62,117)" stroke-width="0.6" opacity="1" d="M 185.5 478 L 196 479.5 L 191.5 480 L 185.5 479 L 185.5 478 Z " /><path fill="rgb(55,55,56)" stroke="rgb(55,55,56)" stroke-width="0.6" opacity="1" d="M 110.5 240 L 105.5 246 L 110.5 240 Z " /><path fill="rgb(32,32,31)" stroke="rgb(32,32,31)" stroke-width="0.6" opacity="1" d="M 302.5 159 L 303 170.5 L 302 170.5 L 302.5 159 Z " /><path fill="rgb(81,74,83)" stroke="rgb(81,74,83)" stroke-width="0.6" opacity="1" d="M 234.5 150 L 229.5 156 L 234.5 150 Z " /><path fill="rgb(81,74,83)" stroke="rgb(81,74,83)" stroke-width="0.6" opacity="1" d="M 361.5 151 L 363 151.5 L 355.5 158 L 361.5 151 Z " /><path fill="rgb(81,74,83)" stroke="rgb(81,74,83)" stroke-width="0.6" opacity="1" d="M 341.5 435 L 336.5 441 L 341.5 435 Z " /><path fill="rgb(81,74,83)" stroke="rgb(81,74,83)" stroke-width="0.6" opacity="1" d="M 104.5 436 L 109.5 442 L 104.5 436 Z " /><path fill="rgb(81,74,83)" stroke="rgb(81,74,83)" stroke-width="0.6" opacity="1" d="M 97.5 443 L 102.5 449 L 97.5 443 Z " /><path fill="rgb(116,113,117)" stroke="rgb(116,113,117)" stroke-width="0.6" opacity="1" d="M 300 133 L 302 133.5 L 302 142.5 L 300 141.5 L 300 133 Z " /><path fill="rgb(116,113,117)" stroke="rgb(116,113,117)" stroke-width="0.6" opacity="1" d="M 335.5 426 L 336 427.5 L 328.5 434 L 335.5 426 Z " /><path fill="rgb(154,154,154)" stroke="rgb(154,154,154)" stroke-width="0.6" opacity="1" d="M 103.5 233 L 97.5 240 L 103.5 233 Z " /><path fill="rgb(216,216,216)" stroke="rgb(216,216,216)" stroke-width="0.6" opacity="1" d="M 206.5 491 L 217 491.5 L 206.5 492 L 206.5 491 Z " /><path fill="rgb(64,108,66)" stroke="rgb(64,108,66)" stroke-width="0.6" opacity="1" d="M 412.5 103 L 418.5 110 L 412.5 103 Z " /><path fill="rgb(64,108,66)" stroke="rgb(64,108,66)" stroke-width="0.6" opacity="1" d="M 430.5 142 L 431 152.5 L 430 152.5 L 430.5 142 Z " /><path fill="rgb(64,108,66)" stroke="rgb(64,108,66)" stroke-width="0.6" opacity="1" d="M 354.5 145 L 349.5 151 L 354.5 145 Z " /></svg>