<svg width="627" height="627" preserveAspectRatio="xMidYMid meet" viewBox="0 0 512 512" version="1.1" xmlns="http://www.w3.org/2000/svg" ><path fill="rgb(254,255,255)" stroke="rgb(254,255,255)" stroke-width="0.6" opacity="1" d="M 0 0 L 512 0 L 512 512 L 0 512 L 0 0 Z M 254 25 L 252 26 L 212 110 L 208 110 L 135 73 Q 125 72 123 78 L 123 89 L 135 164 L 50 176 L 44 184 L 47 191 L 105 256 L 71 287 L 46 312 L 44 317 L 45 321 L 50 325 L 129 342 L 129 349 L 112 421 Q 111 431 118 433 L 126 433 L 198 402 L 205 404 L 249 484 L 256 487 L 262 485 Q 287 448 307 407 L 317 402 L 389 434 L 397 433 L 400 429 L 400 422 L 385 345 L 387 343 L 465 324 L 468 319 L 467 313 L 454 299 L 409 256 L 409 254 L 467 187 L 466 180 L 458 175 L 404 166 L 380 164 L 393 84 L 392 78 L 386 73 Q 346 90 310 110 L 306 110 L 264 29 Q 262 23 254 25 Z " /><path fill="rgb(246,192,44)" stroke="rgb(246,192,44)" stroke-width="0.6" opacity="1" d="M 238.5 113 L 267.5 114 L 276 113 L 277.5 115 L 282 114 L 283.5 116 L 289.5 115 L 291 118 L 294.5 117 L 301.5 121 L 305.5 121 L 317.5 125 L 324.5 132 L 326.5 132 L 329 131 L 330.5 133 L 335 134 L 336 136.5 L 335.5 138 L 344 142.5 L 345.5 144 L 349 146 Q 347.5 149.8 350.5 149 Q 358.5 150 361 156.5 L 361 159.5 L 366.5 166 L 369 167.5 L 370 172 L 373 173.5 L 375 182 Q 378.7 180.5 378 183.5 L 378.5 186 L 382 188.5 L 388 203.5 L 387 205.5 L 391 208.5 L 398 240.5 L 398 248.5 L 397 251 L 399 251.5 L 399 260.5 L 397 260.5 L 399 264 Q 396 262.8 397 266.5 L 399 266.5 L 398 268.5 L 399 273.5 L 398 276 L 396 277.5 L 397 285.5 L 395 288.5 L 395 293.5 L 391 303.5 L 391 307.5 L 383 325 Q 379 323.6 381 330.5 L 375.5 338 Q 372.5 337.1 374 341.5 L 372 341.5 L 370.5 343 L 368 348.5 L 367.5 351 L 365.5 351 L 357 359.5 Q 357.8 365.3 353.5 366 L 349 366.5 L 349.5 368 L 346 369.5 L 344 375 L 337.5 378 L 336 377.5 L 334.5 380 L 330 382.5 L 327.5 386 L 319 388 Q 320.7 392.1 316.5 391 L 314 390 L 312.5 393 L 307.5 395 L 304 394.5 L 302.5 397 L 298.5 396 L 298.5 398 L 294.5 399 L 292 398 L 290.5 400 L 286.5 401 L 283.5 400 L 283.5 402 L 273.5 403 L 269 402 L 268.5 404 L 267.5 402 L 267 404 L 249.5 404 Q 250.5 400.8 244.5 402 L 236.5 403 L 233 401.5 L 233.5 400 L 226.5 401 L 225 398 L 219.5 400 L 218 396 L 214.5 397 Q 212.5 392 210.5 395 L 207 394 L 205.5 392 L 203.5 393 Q 202.1 389.8 197 391 L 197 389 L 194 389 Q 195.5 385.3 192.5 386 L 184.5 383 L 169 372.5 L 163.5 365 L 160 364 L 155.5 358 L 153 356.5 L 151.5 353 L 147 350.5 L 140.5 339 L 138 337.5 Q 139 333.8 136 335 L 136 331.5 L 135 325.5 L 132.5 323 L 130 321.5 L 126 313.5 L 120 291.5 L 121 289 L 119 287.5 L 118 281.5 L 119 278 Q 116 279.3 117 275.5 L 116 274.5 L 116 241.5 L 117.5 237 L 119 237.5 L 118 230.5 L 119 228 L 121 226.5 L 120 222.5 L 125.5 208 L 127 206.5 L 126 204.5 L 130 194.5 L 143 174.5 L 143 172.5 L 146.5 168 Q 149.8 169.1 149 166.5 L 154.5 159 L 164 150.5 L 170.5 143 L 175 141.5 L 177 137 L 181 137 L 182.5 135 L 190 132 L 191.5 129 L 200.5 125 L 203 124.5 Q 202.2 121.1 207 123 L 207 121 L 212.5 121 L 215.5 119 L 218 120 L 219.5 117 L 226 118 L 227.5 115 L 234.5 116 L 234.5 114 L 238.5 113 Z M 191 218 L 189 220 Q 190 222 187 221 L 181 229 Q 183 235 179 234 L 180 240 L 179 243 L 181 244 L 181 247 L 193 256 L 201 255 L 210 251 L 215 239 L 214 229 L 212 227 L 207 222 L 201 218 L 194 219 L 191 218 Z M 314 218 L 308 220 Q 305 219 306 223 L 301 227 L 301 230 L 299 232 L 297 232 Q 300 234 299 242 L 303 251 L 311 254 L 312 256 L 315 255 L 319 256 Q 322 257 321 255 L 326 253 L 334 241 L 334 233 L 330 228 L 328 221 L 324 218 L 322 219 L 314 218 Z M 211 279 L 207 282 L 205 287 L 208 288 L 207 291 L 209 292 L 210 296 L 213 297 L 217 306 L 218 308 L 220 307 L 226 312 Q 224 316 229 315 L 228 317 L 236 318 L 236 320 L 238 319 L 250 322 L 252 325 L 254 324 L 265 324 L 265 322 L 269 321 L 274 322 Q 277 323 275 319 L 279 320 L 279 319 L 288 314 L 289 312 L 296 309 L 306 294 L 306 292 L 309 286 L 308 281 Q 307 278 302 279 L 298 284 L 295 285 L 296 288 L 293 296 L 289 298 L 286 303 L 282 305 L 280 307 L 277 306 Q 273 305 275 309 L 273 310 L 269 308 L 267 312 L 265 311 L 263 309 L 250 312 L 246 310 L 246 308 L 244 309 L 240 306 L 237 307 L 234 303 Q 228 305 229 302 L 223 297 Q 224 292 222 293 L 219 288 L 220 285 L 211 279 Z " /><path fill="rgb(246,192,44)" stroke="rgb(246,192,44)" stroke-width="0.6" opacity="1" d="M 122.5 174 L 127 175.5 L 126 182 Q 122.7 180.7 124 185.5 Q 116.9 188.6 118 198 L 115 198.5 Q 118.5 200 116 201.5 L 114.5 203 L 114 205.5 L 112.5 208 L 111 209.5 L 112 212.5 L 111 215 L 109 216.5 L 110 220.5 L 107 222 L 109 227.5 L 107 232 Q 104 230.8 105 234.5 L 106 237.5 Q 103 239.6 100 234.5 Q 101 228 96.5 227 L 92 224.5 L 89.5 221 L 86 218.5 Q 87.1 215.2 84.5 216 L 75.5 204 L 63 193.5 Q 63.8 190.9 60.5 192 L 58 188.5 L 59.5 185 L 63 186 L 64.5 183 L 77.5 184 L 77.5 182 L 87.5 181 L 90 182 L 91.5 180 L 100.5 179 L 104.5 180 L 104.5 178 L 111 177 Q 109.8 180 113.5 179 L 118 178 L 119.5 176 L 122.5 174 Z " /><path fill="rgb(246,192,44)" stroke="rgb(246,192,44)" stroke-width="0.6" opacity="1" d="M 408 272 L 415 275.5 L 419.5 281 L 427 284.5 L 430.5 291 L 432.5 291 L 442 300.5 L 443.5 304 L 445.5 304 L 453 311.5 L 452 313.5 L 454 314.5 L 453.5 317 L 450.5 315 L 446.5 320 L 441.5 319 L 437.5 322 L 432 320 L 430.5 324 L 424 322 L 422.5 325 L 416 324 L 413.5 328 L 407 326 L 405.5 328 L 403.5 329 L 400.5 327 L 398 328.5 L 399 330.5 L 395.5 332 L 393 331 L 393 328 L 395 326.5 L 394 324 Q 400 326.3 398 319.5 L 400.5 314 L 402 313.5 Q 398.5 312 401 310.5 L 402.5 307 L 404 307.5 L 403 304.5 L 404 300 L 406 298.5 L 405 295.5 L 406 293 Q 409 294 408 291 Q 404.3 292.4 406 286.5 L 408.5 282 L 410 282.5 L 410 277.5 L 408 272 Z " /><path fill="rgb(246,192,44)" stroke="rgb(246,192,44)" stroke-width="0.6" opacity="1" d="M 139.5 356 L 144 361.5 L 143 362.5 L 150 369.5 L 151.5 371 L 156.5 377 L 158.5 378 L 160.5 378 L 168 383 L 169.5 388 L 174 389 L 175.5 392 L 184 394.5 L 181 396.5 L 182 399 L 177 398 L 175.5 401 L 165.5 405 L 163.5 404 L 155.5 410 L 153 408.5 L 151.5 411 L 148.5 410 L 148.5 412 L 147 411.5 L 145.5 413 L 144 412.5 Q 145.3 416.3 141.5 415 L 139 414 L 137.5 417 L 131.5 419 L 129 418 L 127.5 421 L 124.5 419 L 123 419.5 L 123.5 417 L 126 416.5 L 124 410.5 L 127 408.5 L 126 402.5 L 127 399 L 129 397.5 L 128 392.5 L 131 388.5 L 130 383.5 L 131 381 L 133 380.5 L 132 374.5 L 134 372.5 L 136 358.5 L 137.5 357 L 139.5 356 Z " /><path fill="rgb(5,4,4)" stroke="rgb(5,4,4)" stroke-width="0.6" opacity="1" d="M 253.5 26 Q 262.5 24.5 264 30.5 L 305.5 111 L 308.5 112 L 372.5 79 L 381.5 75 L 387.5 75 Q 393.5 77.5 391 88.5 L 379 156.5 L 379 165 L 395.5 166 L 456.5 176 Q 463.1 176.9 466 181.5 L 465 188.5 L 413 247.5 L 408 253.5 L 408 256.5 L 466 312.5 L 467 318.5 L 462.5 324 L 385.5 342 L 383 344.5 L 388 364.5 L 399 427.5 L 395.5 432 L 388.5 433 L 321.5 402 L 315.5 401 L 306 406.5 L 270 470.5 L 259.5 485 Q 250.8 486.8 249 481.5 L 205.5 403 L 197.5 401 L 124.5 432 L 118.5 432 L 114 428.5 L 113 421.5 L 131 342.5 L 103.5 335 L 53.5 325 L 47 321.5 L 46 313.5 L 62.5 296 L 106 255.5 L 105 252.5 L 46 187.5 L 46 180.5 L 54.5 176 L 122.5 166 L 130.5 166 L 137 163.5 L 125 94.5 L 124 78.5 L 126.5 75 L 133.5 74 L 209.5 112 L 214 109.5 L 249 31.5 L 253.5 26 Z M 257 33 L 223 106 L 224 108 L 242 104 Q 271 102 293 107 L 295 107 Q 278 67 257 33 Z M 132 81 L 130 83 L 140 148 L 144 158 L 147 154 Q 167 130 198 117 L 199 115 L 132 81 Z M 382 82 L 321 112 L 318 116 Q 340 126 358 142 L 364 150 L 373 157 L 385 87 Q 387 80 382 82 Z M 246 110 Q 196 116 168 143 Q 122 179 113 252 Q 113 285 122 309 Q 132 336 150 357 Q 168 377 194 391 L 225 403 L 251 407 Q 282 408 305 399 Q 334 388 355 368 Q 392 335 401 273 L 401 245 L 396 218 Q 386 184 366 161 Q 345 134 312 120 L 280 111 L 246 110 Z M 129 172 L 94 178 L 79 179 L 55 183 L 53 185 L 104 243 L 107 244 L 108 243 L 112 219 L 117 204 L 132 175 Q 133 170 129 172 Z M 385 172 L 383 174 Q 402 200 406 242 L 409 243 L 459 185 L 458 183 L 436 179 L 385 172 Z M 106 265 L 52 317 L 57 319 L 124 333 L 126 333 L 112 299 L 108 279 L 108 271 L 106 265 Z M 409 266 L 407 268 L 406 282 L 401 305 L 389 334 L 396 334 L 428 325 L 433 325 L 457 319 L 460 317 L 458 314 L 409 266 Z M 136 351 L 120 420 Q 119 425 122 426 L 183 401 L 190 397 Q 171 386 156 372 L 140 354 L 136 351 Z M 378 352 L 367 365 Q 350 384 326 397 L 378 421 L 392 426 L 384 378 L 379 354 L 378 352 Z M 218 407 L 216 409 L 254 477 L 257 478 Q 279 446 297 411 L 296 408 L 271 413 L 247 413 L 227 410 L 218 407 Z " /><path fill="rgb(5,4,4)" stroke="rgb(5,4,4)" stroke-width="0.6" opacity="1" d="M 192.5 221 Q 206.8 218.7 210 227.5 Q 213.5 231.5 212 240.5 L 205.5 250 Q 201.5 253.5 192.5 252 L 184 245.5 Q 180.5 241.5 182 232.5 Q 183 224.6 189.5 222 L 192.5 221 Z " /><path fill="rgb(5,4,4)" stroke="rgb(5,4,4)" stroke-width="0.6" opacity="1" d="M 311.5 221 Q 325.8 218.7 329 227.5 L 332 237.5 Q 330.5 246 324.5 250 Q 320.5 253.5 311.5 252 L 303 245.5 Q 299.9 241.1 301 232.5 Q 302.8 225.3 308.5 222 L 311.5 221 Z " /><path fill="rgb(5,4,4)" stroke="rgb(5,4,4)" stroke-width="0.6" opacity="1" d="M 210.5 281 L 215 282.5 Q 218.4 297.6 229.5 305 Q 240.8 315.2 263.5 314 Q 283.4 310.9 293 297.5 L 301.5 281 L 306 282.5 Q 303.9 298.9 293.5 307 Q 284.7 315.2 271.5 319 L 247.5 320 Q 226.8 315.2 216 300.5 Q 209.7 294.3 209 282.5 L 210.5 281 Z " /><path fill="rgb(238,137,41)" stroke="rgb(238,137,41)" stroke-width="0.6" opacity="1" d="M 386 174 L 396.5 174 L 457 184 L 456 187.5 L 440.5 205 L 439 206.5 L 410.5 239 L 408.5 240 L 405 226.5 L 406 224.5 L 396 193.5 L 393 190.5 L 386 174 Z " /><path fill="rgb(238,137,41)" stroke="rgb(238,137,41)" stroke-width="0.6" opacity="1" d="M 103.5 268 L 106 269.5 L 107 283.5 L 113 303.5 Q 110.5 305 114 306.5 Q 116.7 320.8 124 330.5 L 121.5 332 L 117.5 330 L 107.5 329 L 55 317 L 62.5 307 L 103.5 268 Z " /><path fill="rgb(238,137,41)" stroke="rgb(238,137,41)" stroke-width="0.6" opacity="1" d="M 376.5 355 L 379 358.5 L 383 379.5 L 383 386.5 L 388 405.5 L 387 407.5 L 391 422.5 L 388.5 423 L 385.5 423 L 379.5 419 L 376.5 419 L 370.5 415 L 330 398 L 331.5 394 Q 351.4 383.4 366 367.5 L 376.5 355 Z " /><path fill="rgb(238,137,41)" stroke="rgb(238,137,41)" stroke-width="0.6" opacity="1" d="M 220.5 409 L 228.5 412 L 248.5 415 L 249.5 414 L 277.5 414 L 292.5 410 L 294 413.5 L 256.5 476 L 254 474.5 L 223 420.5 L 219 410.5 L 220.5 409 Z " /><path fill="rgb(90,149,190)" stroke="rgb(90,149,190)" stroke-width="0.6" opacity="1" d="M 256.5 35 L 258 36.5 L 294 105.5 L 291.5 106 L 261.5 102 L 260.5 103 L 240.5 103 L 224.5 107 L 224 104.5 L 256.5 35 Z " /><path fill="rgb(90,149,190)" stroke="rgb(90,149,190)" stroke-width="0.6" opacity="1" d="M 131 82 L 180.5 105 L 197 114.5 L 195.5 116 Q 165.8 130.8 145 154.5 L 143.5 156 L 142 154.5 L 131 82 Z " /><path fill="rgb(90,149,190)" stroke="rgb(90,149,190)" stroke-width="0.6" opacity="1" d="M 382.5 83 Q 385.1 82.2 384 85.5 L 373 154 L 370.5 155 L 356.5 140 Q 341.2 124.7 320 117 L 319 114.5 L 382.5 83 Z " /><path fill="rgb(236,185,47)" stroke="rgb(236,185,47)" stroke-width="0.6" opacity="1" d="M 247.5 111 Q 271.5 109.5 289 114.5 L 282 116 Q 283.3 112.7 278.5 114 L 276 115 Q 277.1 111.3 268.5 113 L 267.5 114 L 247.5 114 L 238.5 113 L 234 114.5 L 234.5 116 L 227.5 115 L 226 118 L 219.5 117 L 218 120 L 214.5 119 Q 213.5 122 208.5 121 L 208.5 120 Q 225.4 112.9 247.5 111 Z " /><path fill="rgb(236,185,47)" stroke="rgb(236,185,47)" stroke-width="0.6" opacity="1" d="M 290.5 115 Q 316.2 120.3 334 133.5 L 331.5 134 L 329 133 L 327.5 131 L 324.5 132 L 317.5 125 L 305.5 121 L 301.5 121 L 293.5 117 L 291 118 L 290.5 115 Z " /><path fill="rgb(236,185,47)" stroke="rgb(236,185,47)" stroke-width="0.6" opacity="1" d="M 205.5 121 L 207 123 Q 202.2 121.1 203 124.5 L 200.5 125 L 190 130.5 Q 190.8 133.1 187.5 132 L 181 135 Q 182.3 138 178.5 137 L 179.5 135 L 205.5 121 Z " /><path fill="rgb(236,185,47)" stroke="rgb(236,185,47)" stroke-width="0.6" opacity="1" d="M 335.5 135 L 354 149.5 L 351.5 150 L 349 149 Q 350.5 145.3 347.5 146 L 344 144 L 341.5 140 L 335 137.5 L 335.5 135 Z " /><path fill="rgb(236,185,47)" stroke="rgb(236,185,47)" stroke-width="0.6" opacity="1" d="M 175.5 138 L 177 138.5 L 173.5 143 L 170.5 143 L 164 149.5 L 155.5 159 L 151 162.5 L 149 168 L 143.5 171 L 146 167.5 L 166.5 145 L 175.5 138 Z " /><path fill="rgb(236,185,47)" stroke="rgb(236,185,47)" stroke-width="0.6" opacity="1" d="M 361.5 157 Q 380.8 177.7 391 207.5 L 389.5 207 L 387 205.5 L 388 203.5 L 379.5 186 L 377 184.5 L 378 182 Q 373.1 183.8 375 177.5 L 371.5 172 Q 368.9 172.8 370 169.5 L 367.5 166 L 363 162.5 L 361.5 157 Z " /><path fill="rgb(236,185,47)" stroke="rgb(236,185,47)" stroke-width="0.6" opacity="1" d="M 142.5 172 Q 144.4 174.3 141 176.5 L 130 194.5 L 126 205.5 L 127 208 L 124 209.5 L 120 225.5 L 121 228 L 119 229.5 L 118 234.5 L 119 237.5 L 117 237.5 L 116.5 241 L 116 235.5 Q 123.3 197.8 142.5 172 Z " /><path fill="rgb(236,185,47)" stroke="rgb(236,185,47)" stroke-width="0.6" opacity="1" d="M 129.5 173 Q 132.8 174.8 129 176.5 L 118 200 L 115 198.5 L 118 198 L 118 193.5 L 124 185.5 L 124 182 Q 128 183.4 126 176.5 L 126.5 175 L 125 174.5 L 129.5 173 Z " /><path fill="rgb(236,185,47)" stroke="rgb(236,185,47)" stroke-width="0.6" opacity="1" d="M 120.5 174 L 122 174.5 L 118 176 Q 119.3 179.3 114.5 178 L 111 179 Q 112.3 175.7 107.5 177 L 107.5 176 L 120.5 174 Z " /><path fill="rgb(236,185,47)" stroke="rgb(236,185,47)" stroke-width="0.6" opacity="1" d="M 100.5 177 L 106 177.5 L 104 178.5 L 104.5 180 L 93 178.5 L 100.5 177 Z " /><path fill="rgb(236,185,47)" stroke="rgb(236,185,47)" stroke-width="0.6" opacity="1" d="M 86.5 179 L 92 179.5 L 90 180 L 88.5 182 L 80.5 181 L 77 182.5 L 77.5 184 L 66 182.5 L 86.5 179 Z " /><path fill="rgb(236,185,47)" stroke="rgb(236,185,47)" stroke-width="0.6" opacity="1" d="M 59.5 183 L 64 183.5 L 63 186 L 59.5 185 L 58.5 190 L 55.5 186 L 57 185.5 L 55 184.5 L 59.5 183 Z " /><path fill="rgb(236,185,47)" stroke="rgb(236,185,47)" stroke-width="0.6" opacity="1" d="M 61.5 192 L 63 193.5 L 64.5 193 L 67 194.5 L 65 195.5 L 77 205.5 L 84.5 216 Q 87.1 215.2 86 218.5 L 92 223.5 L 93.5 226 L 100 230.5 Q 99 237 103.5 238 L 106 237.5 L 105 232 L 107 230.5 L 108.5 228 L 109 230.5 L 107 242 L 99 235.5 L 63 195.5 L 61.5 192 Z " /><path fill="rgb(236,185,47)" stroke="rgb(236,185,47)" stroke-width="0.6" opacity="1" d="M 116.5 201 L 117 202.5 Q 110.6 212.1 110 226 L 107 224.5 Q 105.9 221.2 108.5 222 L 110 217.5 L 109 215 L 111 213.5 L 112 210.5 L 111 208 L 114 206.5 L 113 204.5 L 116 203 L 116.5 201 Z " /><path fill="rgb(236,185,47)" stroke="rgb(236,185,47)" stroke-width="0.6" opacity="1" d="M 393.5 215 Q 401.8 237.2 400 269.5 L 398 268.5 L 397 264 Q 400 265 399 262 L 397 260.5 L 399 260.5 L 399 251.5 L 397 249.5 L 398 240.5 L 395 223.5 L 393 220.5 L 393.5 215 Z " /><path fill="rgb(236,185,47)" stroke="rgb(236,185,47)" stroke-width="0.6" opacity="1" d="M 190.5 218 L 193.5 219 L 200.5 218 L 207 221.5 L 205.5 222 Q 202.3 218.2 194.5 219 L 184 225.5 L 181.5 231 L 181 228.5 L 186.5 221 Q 189.8 222.1 189 219.5 L 190.5 218 Z " /><path fill="rgb(236,185,47)" stroke="rgb(236,185,47)" stroke-width="0.6" opacity="1" d="M 313.5 218 L 321.5 219 L 323.5 218 L 328 221 L 330 226.5 L 329 226.5 L 325.5 222 Q 321.8 218.2 313.5 219 L 306 222 L 307.5 220 L 313.5 218 Z " /><path fill="rgb(236,185,47)" stroke="rgb(236,185,47)" stroke-width="0.6" opacity="1" d="M 210.5 226 L 214 228.5 L 215 238.5 L 212.5 244 L 212 242.5 L 214 234.5 L 210.5 226 Z " /><path fill="rgb(236,185,47)" stroke="rgb(236,185,47)" stroke-width="0.6" opacity="1" d="M 331.5 229 Q 335.7 231.8 334 240.5 L 326 253 L 321 254.5 Q 321.8 257.1 318.5 256 L 314.5 255 L 312 256 L 310.5 254 L 303 251 L 299 238.5 L 300 238.5 L 300 241.5 L 305.5 250 L 316.5 254 Q 324.9 252.9 329 247.5 Q 333.2 243.2 333 234.5 L 331.5 229 Z " /><path fill="rgb(236,185,47)" stroke="rgb(236,185,47)" stroke-width="0.6" opacity="1" d="M 179 234 Q 182.8 232.9 181 241.5 L 186.5 250 Q 190.9 255.1 202.5 253 L 210 247.5 L 211.5 245 L 211 246.5 L 210 251 L 200.5 255 L 192.5 256 L 181 246.5 L 181 244 L 179 242.5 L 180 239.5 L 179 234 Z " /><path fill="rgb(236,185,47)" stroke="rgb(236,185,47)" stroke-width="0.6" opacity="1" d="M 115.5 242 L 116 274.5 L 117 278 Q 120 276.8 119 280.5 L 118 286.5 L 119 289 L 121 290.5 L 120 294.5 L 126 309.5 L 126 313.5 L 131.5 323 L 135 325.5 L 136 333.5 L 135 333.5 Q 122.6 313.4 117 286.5 Q 112.5 267.3 115.5 242 Z " /><path fill="rgb(236,185,47)" stroke="rgb(236,185,47)" stroke-width="0.6" opacity="1" d="M 408 268 L 425 282.5 L 423.5 282 Q 417.2 281.4 415 276.5 L 413.5 274 L 408 272 L 408 268 Z " /><path fill="rgb(236,185,47)" stroke="rgb(236,185,47)" stroke-width="0.6" opacity="1" d="M 398.5 274 L 399 278.5 L 397.5 285 L 396 276 Q 398.8 277 398.5 274 Z " /><path fill="rgb(236,185,47)" stroke="rgb(236,185,47)" stroke-width="0.6" opacity="1" d="M 408.5 275 L 410 282.5 L 408 282.5 L 406.5 286 L 406 283.5 L 408.5 275 Z " /><path fill="rgb(236,185,47)" stroke="rgb(236,185,47)" stroke-width="0.6" opacity="1" d="M 210.5 279 L 213 279.5 L 208 282.5 Q 208 292 213 296.5 L 211.5 297 L 208.5 292 L 207 290.5 L 208 287.5 L 205 286.5 L 206.5 282 L 210.5 279 Z " /><path fill="rgb(236,185,47)" stroke="rgb(236,185,47)" stroke-width="0.6" opacity="1" d="M 301.5 279 Q 306.8 277.8 308 280.5 L 309 285.5 L 306 291.5 L 306 293.5 L 295.5 309 L 289 312 L 287.5 314 L 279 318.5 L 278.5 320 L 276 318.5 Q 290.5 313.5 299 302.5 L 306 290.5 L 307 281.5 L 301.5 280 L 293.5 295 L 293 292.5 L 296 287.5 L 295 284.5 L 298 283.5 L 301.5 279 Z " /><path fill="rgb(236,185,47)" stroke="rgb(236,185,47)" stroke-width="0.6" opacity="1" d="M 214.5 280 L 220 284.5 L 219 287.5 L 220 290.5 L 219 290.5 L 214.5 280 Z " /><path fill="rgb(236,185,47)" stroke="rgb(236,185,47)" stroke-width="0.6" opacity="1" d="M 427.5 285 L 458 316.5 L 447.5 320 L 449 317.5 L 450.5 315 L 453.5 317 L 453.5 314 L 452 313.5 L 453 311.5 L 442 302.5 L 442 300.5 L 432.5 291 L 428 288.5 L 427.5 285 Z " /><path fill="rgb(236,185,47)" stroke="rgb(236,185,47)" stroke-width="0.6" opacity="1" d="M 396.5 286 L 397 289.5 Q 389.2 325.2 369.5 349 Q 366.9 349.8 368 346.5 L 370.5 343 L 372 341.5 L 374 341.5 Q 372.5 337.1 375.5 338 L 381 330.5 L 381 325 L 383 323.5 L 391 307.5 L 396.5 286 Z " /><path fill="rgb(236,185,47)" stroke="rgb(236,185,47)" stroke-width="0.6" opacity="1" d="M 405.5 289 L 406 291 Q 409 290 408 293 L 406 294.5 L 405 297.5 L 406 300 Q 402.7 298.7 404 303.5 L 403 305.5 L 404 307.5 L 401 308.5 L 400 311.5 L 401.5 314 L 399 315.5 L 398 324 Q 394.3 325.5 395 322.5 Q 402.4 307.9 405.5 289 Z " /><path fill="rgb(236,185,47)" stroke="rgb(236,185,47)" stroke-width="0.6" opacity="1" d="M 213.5 298 L 221.5 308 L 224 309.5 L 222.5 309 L 219.5 307 L 217.5 308 L 217 305.5 L 213.5 298 Z " /><path fill="rgb(236,185,47)" stroke="rgb(236,185,47)" stroke-width="0.6" opacity="1" d="M 230.5 303 L 235 304.5 L 236.5 307 L 239.5 306 L 243.5 309 L 245.5 308 L 245.5 310 L 248 311.5 L 246.5 311 Q 234.7 309.4 230.5 303 Z " /><path fill="rgb(236,185,47)" stroke="rgb(236,185,47)" stroke-width="0.6" opacity="1" d="M 259.5 309 L 263 309 L 264.5 311 L 264.5 312 L 252.5 313 L 250 311.5 L 259.5 309 Z " /><path fill="rgb(236,185,47)" stroke="rgb(236,185,47)" stroke-width="0.6" opacity="1" d="M 226 312 L 239 318.5 L 235.5 320 L 235.5 318 L 228 316.5 L 228.5 315 Q 224.3 316.1 226 312 Z " /><path fill="rgb(236,185,47)" stroke="rgb(236,185,47)" stroke-width="0.6" opacity="1" d="M 240.5 319 L 258.5 322 L 275 319 Q 276.5 322.7 273.5 322 L 268.5 321 L 265 322 L 264.5 324 L 253.5 324 L 251.5 325 L 250 322 L 241.5 321 L 240.5 319 Z " /><path fill="rgb(236,185,47)" stroke="rgb(236,185,47)" stroke-width="0.6" opacity="1" d="M 424 322 L 428 324.5 L 414.5 328 L 416 325.5 L 417.5 324 L 422.5 325 L 424 322 Z " /><path fill="rgb(236,185,47)" stroke="rgb(236,185,47)" stroke-width="0.6" opacity="1" d="M 393 326 Q 396 325 395 328 Q 391.7 326.9 393 331 Q 396 330 395 333 Q 389.8 335.1 391 330.5 L 393 326 Z " /><path fill="rgb(236,185,47)" stroke="rgb(236,185,47)" stroke-width="0.6" opacity="1" d="M 407 326 L 411 327.5 Q 411.9 330.5 407.5 329 L 398.5 332 L 399 330.5 L 398 328.5 L 401.5 327 L 404.5 329 L 407 328 L 407 326 Z " /><path fill="rgb(236,185,47)" stroke="rgb(236,185,47)" stroke-width="0.6" opacity="1" d="M 138.5 338 L 143 341.5 L 144.5 345 L 146 344.5 L 146 346.5 L 147 349.5 L 144 347.5 L 138.5 338 Z " /><path fill="rgb(236,185,47)" stroke="rgb(236,185,47)" stroke-width="0.6" opacity="1" d="M 368.5 350 L 364 355.5 L 348.5 372 L 328.5 386 L 330 383.5 L 331.5 381 L 335 379.5 L 334.5 378 L 336 378.5 L 336.5 377 L 339.5 378 L 344 375 L 347.5 368 L 350 367.5 L 349.5 366 Q 356 367 357 362.5 L 357 359.5 L 365.5 351 L 368.5 350 Z " /><path fill="rgb(236,185,47)" stroke="rgb(236,185,47)" stroke-width="0.6" opacity="1" d="M 148.5 352 L 153 354.5 L 154.5 358 L 160 362.5 L 161.5 364 L 168 369.5 L 170 373.5 L 162.5 367 L 153 358.5 L 148.5 352 Z " /><path fill="rgb(236,185,47)" stroke="rgb(236,185,47)" stroke-width="0.6" opacity="1" d="M 136 353 L 141 356.5 L 138.5 357 L 136 358.5 Q 136.4 368.4 132.5 374 L 132 371.5 L 136 353 Z " /><path fill="rgb(236,185,47)" stroke="rgb(236,185,47)" stroke-width="0.6" opacity="1" d="M 143.5 360 L 157.5 375 L 161 377.5 L 157.5 377 L 154 374.5 L 151.5 371 L 150 369.5 L 143 362.5 L 143.5 360 Z " /><path fill="rgb(236,185,47)" stroke="rgb(236,185,47)" stroke-width="0.6" opacity="1" d="M 171.5 374 L 184.5 383 L 194 386 L 194 389 Q 197.7 387.5 197 390.5 L 195.5 390 Q 179.8 384.1 171.5 374 Z " /><path fill="rgb(236,185,47)" stroke="rgb(236,185,47)" stroke-width="0.6" opacity="1" d="M 131.5 375 L 133 380.5 L 131 381 L 130 387.5 L 131 389.5 Q 127 390.5 128 396.5 L 129 399 Q 126 397.8 127 401.5 L 126 407.5 L 126.5 409 L 124.5 410 L 124 406.5 L 131.5 375 Z " /><path fill="rgb(236,185,47)" stroke="rgb(236,185,47)" stroke-width="0.6" opacity="1" d="M 168 384 L 182 392.5 L 179.5 393 L 174 390.5 L 172.5 389 L 168 386.5 L 168 384 Z " /><path fill="rgb(236,185,47)" stroke="rgb(236,185,47)" stroke-width="0.6" opacity="1" d="M 324.5 386 L 327 386.5 L 319.5 391 L 319 388 L 324.5 386 Z " /><path fill="rgb(236,185,47)" stroke="rgb(236,185,47)" stroke-width="0.6" opacity="1" d="M 314 390 L 318 391.5 L 310 395 Q 308.8 392 312.5 393 L 314 390 Z " /><path fill="rgb(236,185,47)" stroke="rgb(236,185,47)" stroke-width="0.6" opacity="1" d="M 198.5 391 L 204.5 393 L 207 392 L 208.5 394 L 210.5 395 Q 212.5 392 214.5 397 L 218 396 L 219 399.5 L 217.5 399 L 202.5 394 L 198.5 391 Z " /><path fill="rgb(236,185,47)" stroke="rgb(236,185,47)" stroke-width="0.6" opacity="1" d="M 184.5 394 L 188 396.5 L 157.5 410 L 160.5 406 L 164.5 404 L 166.5 405 L 177 399.5 L 178.5 398 L 182 399 L 181 396.5 L 184.5 394 Z " /><path fill="rgb(236,185,47)" stroke="rgb(236,185,47)" stroke-width="0.6" opacity="1" d="M 304.5 394 L 307.5 395 L 309 395.5 Q 294.1 402.6 274.5 405 L 242.5 405 L 225.5 402 L 221 399.5 L 225 398 L 226.5 401 L 233.5 400 L 233.5 402 L 243.5 403 L 249 402 L 249.5 404 L 267 404 L 267.5 402 L 268.5 404 L 269 402 L 279.5 403 L 284 401.5 L 283.5 400 L 289.5 401 L 292 400 L 293.5 398 L 296.5 399 L 299 397.5 L 298.5 396 L 302.5 397 L 304.5 394 Z " /><path fill="rgb(236,185,47)" stroke="rgb(236,185,47)" stroke-width="0.6" opacity="1" d="M 153.5 408 L 155.5 411 L 121 424 L 123.5 411 L 126 416.5 L 123 417.5 L 123.5 420 Q 125 417.5 126.5 421 L 129 419.5 L 130.5 418 L 133.5 419 L 139 415.5 L 140.5 414 L 144 415 L 144.5 412 L 147 413 L 148.5 410 L 151.5 411 L 153.5 408 Z " /><path fill="rgb(26,28,32)" stroke="rgb(26,28,32)" stroke-width="0.6" opacity="1" d="M 251.5 103 L 265 103.5 L 251.5 104 L 251.5 103 Z " /><path fill="rgb(26,28,32)" stroke="rgb(26,28,32)" stroke-width="0.6" opacity="1" d="M 113.5 251 L 114 265.5 L 113 265.5 L 113.5 251 Z " /><path fill="rgb(26,28,32)" stroke="rgb(26,28,32)" stroke-width="0.6" opacity="1" d="M 412.5 269 L 418.5 276 L 412.5 269 Z " /><path fill="rgb(26,28,32)" stroke="rgb(26,28,32)" stroke-width="0.6" opacity="1" d="M 82.5 286 L 71.5 298 L 82.5 286 Z " /><path fill="rgb(26,28,32)" stroke="rgb(26,28,32)" stroke-width="0.6" opacity="1" d="M 436.5 292 L 457.5 314 L 436.5 292 Z " /><path fill="rgb(26,28,32)" stroke="rgb(26,28,32)" stroke-width="0.6" opacity="1" d="M 252.5 320 L 263 320.5 L 252.5 321 L 252.5 320 Z " /><path fill="rgb(26,28,32)" stroke="rgb(26,28,32)" stroke-width="0.6" opacity="1" d="M 250.5 406 L 265 406.5 L 250.5 407 L 250.5 406 Z " /><path fill="rgb(55,56,50)" stroke="rgb(55,56,50)" stroke-width="0.6" opacity="1" d="M 70.5 298 L 64.5 305 L 70.5 298 Z " /><path fill="rgb(87,85,62)" stroke="rgb(87,85,62)" stroke-width="0.6" opacity="1" d="M 251.5 110 L 266 110.5 L 251.5 111 L 251.5 110 Z " /><path fill="rgb(87,85,62)" stroke="rgb(87,85,62)" stroke-width="0.6" opacity="1" d="M 105.5 265 L 100.5 271 L 105.5 265 Z " /><path fill="rgb(87,85,62)" stroke="rgb(87,85,62)" stroke-width="0.6" opacity="1" d="M 89.5 280 L 84.5 286 L 89.5 280 Z " /><path fill="rgb(87,85,62)" stroke="rgb(87,85,62)" stroke-width="0.6" opacity="1" d="M 443.5 289 L 448.5 295 L 443.5 289 Z " /><path fill="rgb(87,85,62)" stroke="rgb(87,85,62)" stroke-width="0.6" opacity="1" d="M 458.5 304 L 463.5 310 L 458.5 304 Z " /><path fill="rgb(87,85,62)" stroke="rgb(87,85,62)" stroke-width="0.6" opacity="1" d="M 63.5 305 L 53.5 316 L 63.5 305 Z " /><path fill="rgb(87,85,62)" stroke="rgb(87,85,62)" stroke-width="0.6" opacity="1" d="M 250.5 413 L 266 413.5 L 250.5 414 L 250.5 413 Z " /><path fill="rgb(187,153,47)" stroke="rgb(187,153,47)" stroke-width="0.6" opacity="1" d="M 114.5 250 L 115 266.5 L 114 266.5 L 114.5 250 Z " /><path fill="rgb(187,153,47)" stroke="rgb(187,153,47)" stroke-width="0.6" opacity="1" d="M 413.5 271 L 418.5 277 L 413.5 271 Z " /><path fill="rgb(187,153,47)" stroke="rgb(187,153,47)" stroke-width="0.6" opacity="1" d="M 79.5 290 L 70.5 300 L 79.5 290 Z " /><path fill="rgb(187,153,47)" stroke="rgb(187,153,47)" stroke-width="0.6" opacity="1" d="M 434.5 291 L 457.5 315 L 434.5 291 Z " /><path fill="rgb(187,153,47)" stroke="rgb(187,153,47)" stroke-width="0.6" opacity="1" d="M 249.5 405 L 267 405.5 L 249.5 406 L 249.5 405 Z " /><path fill="rgb(137,122,48)" stroke="rgb(137,122,48)" stroke-width="0.6" opacity="1" d="M 162.5 148 L 153.5 158 L 162.5 148 Z " /><path fill="rgb(137,122,48)" stroke="rgb(137,122,48)" stroke-width="0.6" opacity="1" d="M 353.5 148 L 360.5 156 L 353.5 148 Z " /><path fill="rgb(137,122,48)" stroke="rgb(137,122,48)" stroke-width="0.6" opacity="1" d="M 425.5 282 L 433.5 291 L 425.5 282 Z " /><path fill="rgb(137,122,48)" stroke="rgb(137,122,48)" stroke-width="0.6" opacity="1" d="M 360.5 360 L 353.5 368 L 360.5 360 Z " /><path fill="rgb(137,122,48)" stroke="rgb(137,122,48)" stroke-width="0.6" opacity="1" d="M 149.5 366 L 155.5 373 L 149.5 366 Z " /><path fill="rgb(96,110,115)" stroke="rgb(96,110,115)" stroke-width="0.6" opacity="1" d="M 159.5 140 L 145.5 155 L 159.5 140 Z " /><path fill="rgb(96,110,115)" stroke="rgb(96,110,115)" stroke-width="0.6" opacity="1" d="M 356.5 140 L 367.5 152 L 356.5 140 Z " /><path fill="rgb(96,110,115)" stroke="rgb(96,110,115)" stroke-width="0.6" opacity="1" d="M 437.5 283 L 442.5 289 L 437.5 283 Z " /><path fill="rgb(96,110,115)" stroke="rgb(96,110,115)" stroke-width="0.6" opacity="1" d="M 364.5 367 L 359.5 373 L 364.5 367 Z " /><path fill="rgb(212,212,213)" stroke="rgb(212,212,213)" stroke-width="0.6" opacity="1" d="M 70.5 287 L 65.5 293 L 70.5 287 Z " /><path fill="rgb(141,141,141)" stroke="rgb(141,141,141)" stroke-width="0.6" opacity="1" d="M 57.5 300 L 48.5 310 L 57.5 300 Z " /><path fill="rgb(176,175,175)" stroke="rgb(176,175,175)" stroke-width="0.6" opacity="1" d="M 427.5 273 L 433.5 280 L 427.5 273 Z " /><path fill="rgb(176,175,175)" stroke="rgb(176,175,175)" stroke-width="0.6" opacity="1" d="M 64.5 293 L 58.5 300 L 64.5 293 Z " /><path fill="rgb(221,133,71)" stroke="rgb(221,133,71)" stroke-width="0.6" opacity="1" d="M 69.5 300 L 63.5 307 L 69.5 300 Z " /><path fill="rgb(221,133,71)" stroke="rgb(221,133,71)" stroke-width="0.6" opacity="1" d="M 59.5 310 L 55 315.5 L 54.5 317 L 54 315.5 L 59.5 310 Z " /><path fill="rgb(221,133,71)" stroke="rgb(221,133,71)" stroke-width="0.6" opacity="1" d="M 365.5 367 L 360.5 373 L 365.5 367 Z " /></svg>