<svg width="627" height="627" preserveAspectRatio="xMidYMid meet" viewBox="0 0 512 512" version="1.1" xmlns="http://www.w3.org/2000/svg" ><path fill="rgb(254,254,254)" stroke="rgb(254,254,254)" stroke-width="0.6" opacity="1" d="M 0 0 L 512 0 L 512 512 L 0 512 L 0 0 Z M 239 58 Q 201 61 181 82 L 166 100 L 160 112 L 156 124 L 156 129 L 154 133 L 150 132 Q 134 130 124 134 Q 108 139 98 149 Q 85 160 79 177 Q 75 187 76 203 L 65 210 Q 51 221 46 242 L 47 264 Q 50 277 58 287 Q 72 305 100 310 Q 126 312 141 301 Q 159 321 193 326 Q 242 328 264 302 L 291 319 L 310 324 Q 355 326 374 301 L 396 306 Q 428 306 444 290 Q 461 275 466 249 Q 468 217 454 202 Q 442 182 414 179 L 408 161 L 400 148 Q 385 127 354 122 Q 340 121 332 125 L 321 102 L 310 87 Q 296 71 275 63 Q 259 58 239 58 Z M 128 329 Q 101 353 91 395 Q 90 414 100 424 Q 109 434 126 436 Q 143 436 152 428 Q 164 419 165 399 Q 165 383 160 373 Q 151 352 138 336 L 132 329 L 128 329 Z M 375 329 Q 352 352 343 388 Q 340 411 349 422 Q 357 433 375 436 Q 389 436 397 430 Q 409 421 412 403 Q 413 382 406 370 Q 396 348 382 332 Q 381 328 375 329 Z M 257 342 L 255 343 L 230 380 Q 223 393 220 411 Q 219 432 229 443 Q 237 452 252 455 Q 273 457 283 446 Q 293 437 295 421 Q 295 401 289 388 Q 279 366 265 348 L 260 342 L 257 342 Z " /><path fill="rgb(254,254,254)" stroke="rgb(254,254,254)" stroke-width="0.6" opacity="1" d="M 129 340 L 131 341.5 L 139 351.5 L 139 354 L 141 355.5 L 146 362.5 L 153 378.5 Q 151.8 384.2 155 385.5 L 156 401.5 L 155 407.5 L 147.5 420 L 139.5 425 Q 133.8 423.8 132.5 427 L 124.5 427 Q 122.8 424.2 117.5 425 L 109 419.5 L 107.5 418 L 104 413.5 L 102 404.5 L 100 402.5 L 100 394.5 L 102 392.5 L 102 385.5 Q 105 384.5 104 379.5 L 108 374.5 L 108 371.5 L 115 358.5 L 121.5 350 L 124 348.5 L 127.5 342 L 129 340 Z " /><path fill="rgb(217,231,237)" stroke="rgb(217,231,237)" stroke-width="0.6" opacity="1" d="M 225.5 70 L 235.5 72 L 237 71.5 L 236 74 L 241 73.5 L 240 71 L 254.5 71 L 259.5 76 L 268 74 L 268.5 72 L 270.5 75 L 275 74 L 276.5 77 L 279 78.5 L 282.5 84 L 287.5 82 L 296 88 L 296 90 L 298 90 L 298 92 L 303.5 96 L 306 97 L 311.5 109 Q 315.9 107.5 315 110.5 L 312.5 112 L 310.5 111 L 308.5 116 Q 306.8 112.3 305 115.5 L 305.5 118 L 313.5 118 L 315 117.5 L 314 121.5 L 319 125.5 Q 319.7 128.5 316 127 L 316 129.5 L 316.5 131 L 313 129 L 315.5 135 L 320 131.5 L 321 133.5 L 319 137 L 328.5 136 L 332.5 137 Q 334.8 132.7 343.5 135 L 347.5 138 L 351 133.5 L 350.5 132 L 354 132.5 L 352 133.5 L 361 136.5 L 363.5 140 L 369.5 138 L 377 142.5 L 376 144.5 L 378.5 147 L 386 148.5 L 382 149 L 378.5 155 L 374.5 156 L 372 156.5 L 377.5 166 L 379 165.5 L 379 156.5 L 383 153.5 L 385 152 Q 386.7 156.1 382.5 155 L 383 156.5 L 384.5 158 L 386.5 155 L 389 156 L 386 150.5 L 388 150 L 390.5 154 Q 393.1 153.2 392 156.5 L 391 160.5 L 394 166 L 399 169.5 L 396 170 L 394.5 176 L 390 178.5 Q 389.4 181.3 395.5 180 L 399.5 174 L 401 177.5 L 398 182.5 L 405 187.5 L 406.5 189 L 415 187 Q 413.8 192.5 417.5 194 L 425.5 193 L 440 202.5 Q 439 210 444.5 211 L 449 214.5 L 451 221.5 L 447 228.5 L 448 231 L 453 232 L 454 236 Q 458.5 234.3 457 239.5 L 454 241 Q 455 248.5 450 251.5 L 452 252 L 450.5 257 L 448 257.5 L 449 264.5 Q 444.3 265.3 445 271.5 L 432.5 285 L 429.5 284 L 420.5 290 L 420.5 289 L 424 288 Q 425.3 285 421.5 286 L 418 285 L 419 290.5 L 418 294 Q 413.8 295 414.5 292 L 410.5 292 L 407 294.5 L 407.5 296 Q 402.5 297 403.5 294 L 399.5 294 L 394.5 290 Q 392.3 295.3 390 291.5 Q 391.1 288.2 388.5 289 L 386 285 L 381 287.5 L 387 291 Q 388.7 295.1 384.5 294 L 379.5 288 L 372.5 289 L 369 288 Q 371.1 293.2 366.5 292 L 359.5 297 L 357.5 296 Q 353.4 297.9 353 303.5 L 354 306 L 350.5 305 Q 349 308.5 342.5 307 L 340 309.5 Q 341.1 313.7 337 312 Q 338.4 308 331.5 310 L 327 312 Q 328.3 315.3 323.5 314 L 318.5 312 L 314 314 Q 315 311 312 312 L 310.5 314 L 310 311.5 L 308.5 308 L 300.5 310 L 295.5 309 L 293.5 310 L 292.5 307 L 290 305.5 L 291 302.5 L 285.5 300 L 281.5 301 L 278.5 297 L 280 297.5 L 281 294 Q 284 295.3 283 291.5 L 282 291.5 L 280 294.5 L 278.5 294 L 277 295.5 L 275.5 295 L 272 292.5 L 272.5 291 L 274.5 292 L 276 289 L 273 287.5 Q 273.8 284.1 269 286 L 270.5 289 L 273 289.5 L 270.5 290 L 264.5 286 L 262 287 L 260.5 289 L 256.5 292 L 258 289.5 L 256 288 Q 257 291 254 290 L 254 293 L 256 293.5 L 253.5 295 L 250.5 294 L 246.5 303 L 241.5 304 L 239.5 303 L 236 308 L 232 309 Q 233.7 313.1 229.5 312 Q 228 308.5 221.5 310 L 215 313 L 213.5 317 L 210 316 Q 211.3 312.7 206.5 314 L 207 312.5 Q 208.1 309.2 205.5 310 L 200 312 L 198.5 314 Q 196.2 310.8 189.5 312 L 183.5 314 L 183 312 L 177.5 308 L 167.5 307 L 164 303.5 L 165 301.5 L 157.5 297 L 156 297.5 L 157 293 L 153 293 Q 154.5 288.5 150 290 L 151 293.5 L 145.5 289 L 140.5 290 L 137.5 289 L 125 295.5 L 124.5 298 L 123 296 L 120.5 296 L 118.5 295 L 111.5 298 L 110.5 295 L 107 296 Q 108.7 301.2 105 300 L 102.5 296 L 95.5 297 Q 98.7 295 95.5 293 L 92 294 L 91.5 296 L 90 293 L 86.5 291 Q 79 293 77 289.5 L 75.5 288 Q 72.3 287.3 73 282.5 L 74 280.5 L 64 274.5 L 65.5 275 L 69 273.5 L 65.5 266 L 62 267.5 L 61.5 269 L 60 266.5 L 62 261.5 L 58 256.5 L 62 253.5 L 61 249.5 L 64 248 L 62.5 244 L 59.5 245 L 60 243.5 L 61 233 L 64.5 234 Q 68 232 63.5 230 L 62 230.5 L 70 223.5 L 69 220.5 L 73 217.5 L 72.5 216 L 74.5 217 L 77.5 215 L 79.5 216 Q 84 214.6 83 209 L 87.5 208 L 88 210 L 84 212.5 Q 83.2 215.9 88 214 L 88 216 L 91.5 216 L 94 214.5 L 89 211.5 Q 88.1 208.5 92.5 210 L 94 210.5 L 90.5 207 L 88 206.5 L 88.5 191 L 92.5 198 L 99 199 L 97.5 195 L 95 195 L 95 186.5 L 93 186 L 91.5 190 L 89.5 189 L 88 189.5 L 87 185.5 L 89 185.5 L 91.5 178 L 92 180 Q 95.3 181.3 94 176.5 L 92 176.5 L 97.5 167 L 99 170 Q 102.8 168.5 102 171.5 L 98 177.5 L 100.5 178 L 103.5 172 L 107 174 L 107 166.5 L 105.5 166 L 101 169 L 99 164.5 L 101 164 L 102.5 162 L 109.5 154 L 109 155.5 L 111 164 L 114.5 162 L 117.5 166 L 118 163.5 L 117 159 L 113 160 Q 113.8 154.3 111 152 L 115.5 152 L 121.5 147 L 132.5 146 L 136 144 Q 134.8 141 138.5 142 L 143.5 143 L 148.5 142 L 149 144.5 L 150.5 147 L 155.5 145 L 160 147 L 159 144.5 L 163 143.5 L 163.5 141 L 166 140.5 Q 164.5 133.5 167.5 134 L 170 129.5 L 167 121.5 L 170.5 120 L 172 119.5 L 170 118.5 L 175 110.5 L 174 108.5 L 179 100 L 182.5 98 L 191.5 88 L 194.5 86 L 213 75.5 L 212.5 74 Q 213.5 77 218.5 76 L 226 71.5 L 225.5 70 Z M 222 75 L 218 79 Q 216 83 220 82 L 222 82 L 221 80 Q 218 78 223 76 L 222 75 Z M 270 76 L 270 78 Q 275 80 272 82 Q 268 81 269 84 L 273 86 L 272 89 L 275 88 L 275 81 Q 278 81 277 78 L 270 76 Z M 289 84 L 287 86 L 289 88 Q 288 94 291 97 Q 293 100 294 97 L 292 92 L 290 92 L 292 89 L 289 84 Z M 199 85 L 199 88 L 205 91 L 206 88 L 202 87 L 199 85 Z M 287 88 L 285 92 L 280 94 Q 279 98 286 96 L 286 94 L 288 91 L 287 88 Z M 301 95 Q 299 100 302 102 L 298 101 Q 295 103 298 104 L 306 102 Q 307 99 304 100 L 301 95 Z M 255 99 L 254 101 L 252 104 L 255 104 Q 254 101 258 102 Q 260 98 255 99 Z M 183 106 L 181 108 L 179 107 Q 174 106 176 112 L 182 109 L 185 110 Q 187 105 183 106 Z M 246 111 L 240 116 L 243 120 L 244 117 L 247 118 L 246 116 L 247 113 L 246 111 Z M 178 119 L 176 122 L 175 124 L 176 126 L 180 125 Q 181 120 178 119 Z M 184 129 L 182 133 L 188 135 L 188 134 L 185 132 L 184 129 Z M 304 132 L 301 135 Q 299 141 303 140 L 305 135 L 304 132 Z M 169 136 L 165 144 L 167 145 L 170 149 L 172 148 L 170 147 L 171 144 L 169 143 L 171 140 L 169 136 Z M 361 142 L 363 146 Q 362 151 368 148 L 366 144 L 361 142 Z M 152 148 L 152 150 Q 155 151 153 153 L 155 154 L 157 154 L 156 152 L 159 150 L 159 148 L 152 148 Z M 284 154 L 288 157 L 290 156 L 291 154 L 289 155 L 284 154 Z M 143 156 L 140 160 L 144 161 L 145 162 L 144 160 L 145 157 L 143 156 Z M 161 162 Q 162 168 159 170 L 164 168 L 164 166 Q 166 160 161 162 Z M 153 166 L 151 168 L 148 167 Q 144 166 146 170 Q 152 172 154 169 Q 155 165 153 166 Z M 233 176 L 234 184 L 236 183 Q 238 184 237 181 L 237 179 L 233 176 Z M 399 187 L 396 190 L 394 192 L 400 190 L 401 188 L 399 187 Z M 425 195 L 425 200 Q 421 199 422 202 L 434 202 L 435 204 L 433 207 L 436 206 Q 438 207 437 204 L 437 202 L 430 196 L 425 195 Z M 420 207 L 418 210 L 423 211 L 425 210 Q 426 207 423 208 Q 421 211 420 207 Z M 186 209 L 183 212 L 184 214 L 187 212 L 189 213 L 190 212 L 186 209 Z M 76 217 L 73 220 L 74 221 L 76 220 L 78 224 L 80 219 L 76 217 Z M 452 234 L 450 236 L 451 238 L 450 240 L 452 242 L 453 240 L 452 238 L 453 236 L 452 234 Z M 68 237 L 63 239 L 66 243 L 70 241 L 72 242 L 73 243 Q 74 239 72 240 L 70 240 L 68 237 Z M 445 237 L 445 239 L 445 248 L 443 248 Q 442 252 445 251 L 449 245 L 447 241 L 448 239 L 445 237 Z M 81 239 Q 78 241 81 242 L 83 241 L 85 244 Q 88 245 86 241 L 84 240 L 81 239 Z M 171 240 L 172 245 L 175 246 L 173 251 L 175 250 L 179 251 Q 180 246 177 244 L 175 243 L 171 240 Z M 337 244 Q 338 248 335 250 L 337 252 Q 342 253 343 251 L 339 249 L 340 246 L 337 244 Z M 315 254 L 313 256 L 316 261 L 318 256 L 315 254 Z M 233 259 L 232 264 L 235 264 L 244 264 L 244 261 L 242 262 Q 234 264 233 259 Z M 359 264 L 359 267 L 364 269 L 366 269 Q 368 270 367 266 Q 361 267 359 264 Z M 70 266 L 72 270 L 81 267 L 70 266 Z M 279 268 L 277 270 L 278 274 Q 283 275 284 271 Q 285 266 279 268 Z M 435 271 L 430 272 Q 427 274 430 275 L 438 275 L 438 274 L 435 271 Z M 371 275 L 371 277 L 377 279 L 379 278 L 379 275 L 371 275 Z M 395 276 L 391 278 L 392 282 Q 395 283 394 280 L 398 280 L 399 278 L 395 276 Z M 120 280 L 117 284 L 118 289 L 116 290 L 113 291 Q 112 295 118 293 L 121 290 L 122 281 L 120 280 Z M 236 280 L 233 286 L 234 293 L 237 294 L 239 293 L 237 292 L 238 290 L 236 288 L 236 283 L 236 280 Z M 360 281 L 361 285 L 357 288 L 363 290 L 365 285 L 360 281 Z M 255 283 L 253 284 L 251 287 L 249 286 L 252 290 L 256 288 L 255 283 Z M 402 283 L 399 286 L 397 285 L 394 286 L 400 290 L 400 292 L 407 292 Q 408 289 405 290 L 402 283 Z M 83 284 L 80 288 L 81 290 L 86 286 Q 87 282 83 284 Z M 334 284 L 332 288 L 331 287 L 327 290 L 329 292 Q 334 293 335 291 Q 336 283 334 284 Z M 157 285 L 157 287 L 156 286 L 153 288 L 160 292 Q 163 293 161 288 L 157 285 Z M 97 286 L 95 288 L 97 293 L 101 291 Q 102 288 99 289 L 99 288 L 97 286 Z M 349 291 L 346 294 L 349 302 L 350 294 L 349 291 Z M 232 293 L 232 298 Q 226 296 226 300 L 229 300 L 232 302 L 235 300 L 238 302 L 242 301 Q 249 303 247 297 L 245 298 Q 240 299 242 294 L 239 295 L 240 298 L 234 297 Q 235 292 232 293 Z M 171 299 L 171 302 L 167 305 Q 166 307 173 306 L 177 301 L 171 299 Z M 296 302 L 294 304 L 292 306 L 298 308 L 300 307 L 298 306 L 297 304 L 296 302 Z M 331 303 L 327 307 Q 322 306 324 311 L 332 308 L 331 303 Z M 182 306 L 181 309 L 186 312 L 188 309 L 182 306 Z " /><path fill="rgb(217,231,237)" stroke="rgb(217,231,237)" stroke-width="0.6" opacity="1" d="M 375 345 L 380 347.5 Q 377.8 356.1 382.5 355 L 386 354 L 390.5 369 Q 393.8 367.9 393 370.5 L 396 372 L 394.5 374 L 392.5 373 L 389 374.5 L 394.5 376 L 396 375.5 L 398.5 383 L 400 384.5 L 396 386.5 L 397.5 389 L 399 388.5 L 396 393.5 L 398 395.5 L 399 404.5 L 396.5 405 L 393 406 L 394 396.5 L 391.5 395 Q 388.3 396.8 392 398.5 L 390 400.5 Q 390.9 403.5 386.5 402 L 389 405.5 L 390.5 408 L 393 409.5 L 392 411.5 L 393 414 L 396.5 412 L 394.5 415 L 391.5 414 L 390 417.5 L 391 419.5 L 385.5 423 L 381.5 421 L 377 423 Q 378.5 426.8 375.5 426 L 372.5 422 L 370.5 421 L 367.5 422 L 362 418.5 L 363 411.5 L 360.5 408 L 354.5 407 L 352 406.5 Q 356.2 402.7 354 392.5 L 353 388 L 358 385.5 Q 359.1 377.3 357 374 Q 361.1 375.7 360 371.5 L 365 367.5 L 364 362.5 L 373 351.5 L 375 345 Z M 371 360 L 371 362 L 369 361 Q 366 360 367 364 L 374 366 L 375 368 Q 370 367 372 371 L 377 368 L 381 369 L 382 369 L 381 366 L 387 363 L 388 362 L 384 360 L 380 365 L 376 364 L 374 362 L 371 360 Z M 361 373 L 362 378 L 360 378 L 361 382 Q 363 385 368 384 Q 369 380 364 382 L 365 376 L 361 373 Z M 388 382 L 386 384 L 388 388 Q 394 389 393 387 L 388 382 Z M 355 391 L 355 403 L 357 403 Q 359 401 358 396 L 362 393 L 355 391 Z M 372 410 L 374 416 L 380 415 Q 385 417 384 413 L 382 414 L 372 410 Z M 370 413 L 368 417 L 366 417 Q 362 416 363 419 L 369 420 L 372 416 Q 373 412 370 413 Z " /><path fill="rgb(5,5,5)" stroke="rgb(5,5,5)" stroke-width="0.6" opacity="1" d="M 231.5 60 Q 259 57.5 276.5 65 Q 299.2 73.8 313 91.5 Q 324.7 105.8 330.5 126 Q 341.5 122 358.5 124 Q 384 129.5 398 146.5 L 408 163.5 L 411 177.5 L 413.5 180 Q 439.6 183.4 452 200.5 Q 466.2 215.8 465 246.5 Q 460 277 439.5 292 Q 428.5 300.5 412.5 304 L 389.5 304 L 374.5 299 Q 363.2 312.2 345.5 319 Q 332 324.5 311.5 323 L 290.5 318 L 277.5 311 L 265.5 300 L 263.5 300 L 260.5 304 Q 247.8 316.3 228.5 322 Q 213.8 326.7 192.5 325 L 166.5 318 L 139.5 300 Q 126.3 310.3 101.5 309 Q 73.6 305.4 60 287.5 Q 46 273 47 243.5 Q 51.3 220.3 67.5 209 L 77 203.5 Q 75.6 184.1 82 172.5 Q 88.9 156.9 101.5 147 Q 110.6 139.1 123.5 135 Q 133.8 131.8 148.5 133 L 154.5 134 L 157 129.5 L 157 124.5 L 161 111.5 L 166 101.5 Q 173.9 88.4 185.5 79 Q 202.9 63.9 231.5 60 Z M 235 66 Q 203 70 186 88 Q 173 99 166 117 L 162 133 L 162 141 L 161 142 L 146 139 Q 131 139 121 143 L 105 153 Q 87 166 83 193 L 84 208 L 71 215 Q 56 225 53 248 Q 53 270 64 282 Q 77 300 107 303 L 126 300 L 141 292 L 144 292 L 146 296 Q 164 316 200 319 Q 245 318 264 291 L 266 291 L 284 307 Q 296 315 315 317 Q 355 317 372 292 L 376 292 L 392 298 L 415 297 Q 428 294 437 286 Q 456 272 459 242 L 457 224 L 447 205 Q 439 195 427 189 Q 420 185 408 186 L 405 184 Q 406 172 402 166 L 392 150 Q 379 135 357 130 L 340 130 L 326 134 L 320 117 L 306 94 Q 293 79 274 71 L 253 66 L 235 66 Z " /><path fill="rgb(5,5,5)" stroke="rgb(5,5,5)" stroke-width="0.6" opacity="1" d="M 128.5 330 Q 135.3 329.3 136 334.5 Q 149.6 351.4 159 372.5 Q 163.6 383.9 164 399.5 Q 162.1 420.1 148.5 429 Q 139.4 436.4 120.5 434 Q 106.1 430.9 99 420.5 Q 90.2 410.8 93 389.5 Q 103.7 354.2 126.5 331 L 128.5 330 Z M 130 338 Q 108 359 99 392 Q 97 409 104 417 Q 111 425 123 428 Q 138 430 146 423 Q 155 417 157 404 L 157 390 L 152 373 Q 143 353 130 338 Z " /><path fill="rgb(5,5,5)" stroke="rgb(5,5,5)" stroke-width="0.6" opacity="1" d="M 374.5 330 L 378.5 330 L 384 335.5 Q 397.2 351.8 406 372.5 Q 411.4 383.6 411 400.5 Q 409 419 397.5 428 Q 389.2 436.2 370.5 434 Q 357.6 431.4 351 422.5 L 344 407.5 L 343 396.5 Q 344.6 379.1 351 366.5 Q 360.3 345.8 374.5 330 Z M 377 338 L 357 369 L 350 392 Q 348 408 355 417 Q 361 425 373 428 Q 388 430 395 422 Q 401 416 404 406 Q 406 388 401 377 Q 392 356 379 340 L 377 338 Z " /><path fill="rgb(5,5,5)" stroke="rgb(5,5,5)" stroke-width="0.6" opacity="1" d="M 256.5 343 Q 262.3 342.3 263 346.5 Q 278.3 366.2 289 390.5 Q 293.9 401.6 294 417.5 Q 292.4 438.9 278.5 448 Q 269.2 455.2 251.5 454 Q 235.7 450.8 228 439.5 Q 220.3 430.2 221 412.5 Q 230.3 369.3 256.5 343 Z M 258 351 Q 244 368 234 389 Q 228 400 227 416 Q 227 428 233 436 Q 240 446 256 448 Q 269 448 276 442 Q 284 435 287 423 Q 289 404 283 393 Q 273 369 258 351 Z " /><path fill="rgb(219,232,238)" stroke="rgb(219,232,238)" stroke-width="0.6" opacity="1" d="M 221.5 75 L 223 75.5 Q 218 77.5 221 79.5 L 222 81.5 L 219.5 82 Q 216.5 82.9 218 78.5 L 221.5 75 Z " /><path fill="rgb(219,232,238)" stroke="rgb(219,232,238)" stroke-width="0.6" opacity="1" d="M 270 76 L 277 78 Q 277.8 81.1 275 80.5 L 275 87.5 L 272 89 L 273 85.5 L 269 84 Q 267.8 81 271.5 82 Q 275.2 79.7 270 77.5 L 270 76 Z " /><path fill="rgb(219,232,238)" stroke="rgb(219,232,238)" stroke-width="0.6" opacity="1" d="M 288.5 84 L 292 88.5 L 290 91.5 L 292 92 L 294 96.5 Q 292.5 99.5 291 96.5 Q 288.2 93.8 289 87.5 L 287 85.5 L 288.5 84 Z " /><path fill="rgb(219,232,238)" stroke="rgb(219,232,238)" stroke-width="0.6" opacity="1" d="M 198.5 85 L 201.5 87 L 206 88 L 204.5 91 L 199 87.5 L 198.5 85 Z " /><path fill="rgb(219,232,238)" stroke="rgb(219,232,238)" stroke-width="0.6" opacity="1" d="M 286.5 88 L 288 90.5 L 286 93.5 L 285.5 96 Q 278.6 98 280 94 L 285 91.5 L 286.5 88 Z " /><path fill="rgb(219,232,238)" stroke="rgb(219,232,238)" stroke-width="0.6" opacity="1" d="M 211.5 89 L 215 91.5 L 214 93.5 L 213.5 96 Q 210.2 97.1 211 94.5 L 212 90.5 L 211.5 89 Z " /><path fill="rgb(219,232,238)" stroke="rgb(219,232,238)" stroke-width="0.6" opacity="1" d="M 258.5 93 L 260.5 94 L 263 94.5 Q 262.2 97.5 266 96 L 266 98 L 262.5 99 L 263 97.5 Q 263.9 94.1 258.5 96 Q 255.5 94.5 258.5 93 Z " /><path fill="rgb(219,232,238)" stroke="rgb(219,232,238)" stroke-width="0.6" opacity="1" d="M 300.5 95 L 304 100 Q 307 99 306 102 L 297.5 104 Q 294.5 102.5 297.5 101 L 302 102 Q 299 100 300.5 95 Z " /><path fill="rgb(219,232,238)" stroke="rgb(219,232,238)" stroke-width="0.6" opacity="1" d="M 255 99 Q 259.5 97.5 258 102 Q 253.9 100.7 255 104 L 251.5 104 L 253.5 101 L 255 99 Z " /><path fill="rgb(219,232,238)" stroke="rgb(219,232,238)" stroke-width="0.6" opacity="1" d="M 182.5 106 Q 187.1 104.8 185 110 L 181.5 109 L 176 112 Q 173.5 105.7 178.5 107 L 180.5 108 L 182.5 106 Z " /><path fill="rgb(219,232,238)" stroke="rgb(219,232,238)" stroke-width="0.6" opacity="1" d="M 245.5 111 L 247 112.5 L 246 115.5 L 247 118 L 242.5 120 L 240 115.5 L 245.5 111 Z " /><path fill="rgb(219,232,238)" stroke="rgb(219,232,238)" stroke-width="0.6" opacity="1" d="M 310.5 111 L 313 112.5 Q 311.5 116.9 314.5 116 L 313.5 118 L 305.5 118 L 305 115.5 Q 307 112.3 309 115.5 L 310.5 111 Z " /><path fill="rgb(219,232,238)" stroke="rgb(219,232,238)" stroke-width="0.6" opacity="1" d="M 177.5 119 Q 180.8 119.8 180 124.5 L 176 125.5 L 174.5 124 L 176 121.5 L 177.5 119 Z " /><path fill="rgb(219,232,238)" stroke="rgb(219,232,238)" stroke-width="0.6" opacity="1" d="M 172.5 121 L 173 123.5 L 172 125.5 L 175 126.5 L 176 128.5 Q 174 133 172 129.5 Q 173.5 125.1 170.5 126 Q 166.5 123.5 172.5 121 Z " /><path fill="rgb(219,232,238)" stroke="rgb(219,232,238)" stroke-width="0.6" opacity="1" d="M 316 127 Q 320.9 125.2 319 131.5 Q 316.5 137.5 314 133.5 L 313 129 L 316.5 131 L 316 129.5 L 316 127 Z " /><path fill="rgb(219,232,238)" stroke="rgb(219,232,238)" stroke-width="0.6" opacity="1" d="M 183.5 129 L 185 132 L 188 133.5 L 187.5 135 L 182 133 L 183.5 129 Z " /><path fill="rgb(219,232,238)" stroke="rgb(219,232,238)" stroke-width="0.6" opacity="1" d="M 303.5 132 L 305 134.5 L 303 140 Q 299 141.4 301 134.5 L 303.5 132 Z " /><path fill="rgb(219,232,238)" stroke="rgb(219,232,238)" stroke-width="0.6" opacity="1" d="M 168.5 136 L 171 139.5 L 169 142.5 L 171 143.5 L 170 147 L 172 147.5 L 169.5 149 L 167 145 L 165 143.5 L 168.5 136 Z " /><path fill="rgb(219,232,238)" stroke="rgb(219,232,238)" stroke-width="0.6" opacity="1" d="M 360.5 142 L 366 143.5 L 368 148 Q 361.7 150.5 363 145.5 L 360.5 142 Z " /><path fill="rgb(219,232,238)" stroke="rgb(219,232,238)" stroke-width="0.6" opacity="1" d="M 152 148 L 158.5 148 L 159 150 L 156 151.5 L 157 153.5 L 154.5 154 L 153 152.5 Q 155.5 151 152 149.5 L 152 148 Z " /><path fill="rgb(219,232,238)" stroke="rgb(219,232,238)" stroke-width="0.6" opacity="1" d="M 382 149 Q 386.8 147.1 386 150.5 L 389 156 L 386.5 155 L 384.5 158 L 383 156.5 L 380.5 155 L 379 156.5 L 379 166 L 376 164.5 Q 376 158.5 372 156.5 L 374.5 156 L 381 152.5 L 382 149 Z " /><path fill="rgb(219,232,238)" stroke="rgb(219,232,238)" stroke-width="0.6" opacity="1" d="M 281.5 152 L 283 154 L 286.5 154 L 288.5 155 L 291 154 L 289.5 156 L 287.5 157 L 281.5 152 Z " /><path fill="rgb(219,232,238)" stroke="rgb(219,232,238)" stroke-width="0.6" opacity="1" d="M 110.5 154 L 113 155.5 Q 111.1 160.9 114.5 160 L 117 159 L 118 165.5 L 117 165.5 L 114.5 162 L 109.5 166 L 109 164 Q 112 165.3 111 161.5 L 109 155.5 L 110.5 154 Z " /><path fill="rgb(219,232,238)" stroke="rgb(219,232,238)" stroke-width="0.6" opacity="1" d="M 142.5 156 L 145 156.5 L 144 159.5 L 145 161.5 L 143.5 161 L 140 160 L 142.5 156 Z " /><path fill="rgb(219,232,238)" stroke="rgb(219,232,238)" stroke-width="0.6" opacity="1" d="M 167 156 L 169 156.5 L 165.5 162 Q 162.5 161.1 164 165.5 L 163.5 168 L 159 170 Q 161.8 167.7 161 162 L 164 162 L 164 158 Q 168.1 159.3 167 156 Z " /><path fill="rgb(219,232,238)" stroke="rgb(219,232,238)" stroke-width="0.6" opacity="1" d="M 99.5 165 L 101 169 L 107 166 L 107 173.5 L 105.5 174 L 103 172.5 Q 103.8 177.3 100.5 178 L 98 177.5 L 102 170 Q 98.2 171.5 99 168.5 L 98 166.5 L 99.5 165 Z " /><path fill="rgb(219,232,238)" stroke="rgb(219,232,238)" stroke-width="0.6" opacity="1" d="M 152.5 166 Q 155.1 165.2 154 168.5 Q 152.1 171.8 146 170 Q 144.5 166.2 147.5 167 L 150.5 168 L 152.5 166 Z " /><path fill="rgb(219,232,238)" stroke="rgb(219,232,238)" stroke-width="0.6" opacity="1" d="M 198 166 Q 201 165 200 168 L 198 168 Q 199.9 172.8 196.5 172 L 194 168 Q 199.2 169.7 198 166 Z " /><path fill="rgb(219,232,238)" stroke="rgb(219,232,238)" stroke-width="0.6" opacity="1" d="M 396 170 Q 401.3 168.2 399 175.5 L 395.5 180 Q 389.4 181.3 390 178.5 L 396 174.5 L 396 170 Z " /><path fill="rgb(219,232,238)" stroke="rgb(219,232,238)" stroke-width="0.6" opacity="1" d="M 232.5 176 L 237 178.5 L 237 180.5 Q 238.1 183.8 235.5 183 L 234 183.5 L 232.5 176 Z " /><path fill="rgb(219,232,238)" stroke="rgb(219,232,238)" stroke-width="0.6" opacity="1" d="M 93 186 L 95 186.5 L 95 195 L 97.5 195 L 99 199 L 91 196.5 L 88 190.5 L 90.5 190 L 93 188.5 L 93 186 Z " /><path fill="rgb(219,232,238)" stroke="rgb(219,232,238)" stroke-width="0.6" opacity="1" d="M 398.5 187 L 401 188 L 399.5 190 L 394 192 L 395.5 190 L 398.5 187 Z " /><path fill="rgb(219,232,238)" stroke="rgb(219,232,238)" stroke-width="0.6" opacity="1" d="M 425 195 L 429.5 196 L 437 201.5 L 437 203.5 Q 438.1 206.8 435.5 206 L 433 207 L 435 203.5 L 433.5 202 L 422 202 Q 420.9 198.7 425 200 L 425 195 Z " /><path fill="rgb(219,232,238)" stroke="rgb(219,232,238)" stroke-width="0.6" opacity="1" d="M 89.5 206 L 92 207 L 94 210.5 L 92.5 210 Q 88.1 208.5 89 211.5 L 94 214.5 L 88 216 L 88 214 Q 83.2 215.9 84 212.5 L 88 210 L 89.5 206 Z " /><path fill="rgb(219,232,238)" stroke="rgb(219,232,238)" stroke-width="0.6" opacity="1" d="M 419.5 207 Q 421 210.5 422.5 208 Q 425.8 206.9 425 209.5 L 422.5 211 L 418 210 L 419.5 207 Z " /><path fill="rgb(219,232,238)" stroke="rgb(219,232,238)" stroke-width="0.6" opacity="1" d="M 185.5 209 L 190 211.5 L 188.5 213 L 186.5 212 L 183.5 214 L 183 211.5 L 185.5 209 Z " /><path fill="rgb(219,232,238)" stroke="rgb(219,232,238)" stroke-width="0.6" opacity="1" d="M 75.5 217 L 80 218.5 L 77.5 224 L 76 220 L 73.5 221 L 73 219.5 L 75.5 217 Z " /><path fill="rgb(219,232,238)" stroke="rgb(219,232,238)" stroke-width="0.6" opacity="1" d="M 443.5 217 Q 446.1 216.2 445 219.5 L 447 224 L 443 222.5 L 444.5 220 L 443 219.5 L 443.5 217 Z " /><path fill="rgb(219,232,238)" stroke="rgb(219,232,238)" stroke-width="0.6" opacity="1" d="M 451.5 234 L 453 235.5 L 452 237.5 L 453 239.5 L 451.5 242 L 450 239.5 L 451 237.5 L 450 235.5 L 451.5 234 Z " /><path fill="rgb(219,232,238)" stroke="rgb(219,232,238)" stroke-width="0.6" opacity="1" d="M 67.5 237 L 69.5 240 L 71.5 240 Q 74.1 239.2 73 242.5 L 71.5 242 L 69.5 241 L 65.5 243 L 63 239 L 67.5 237 Z " /><path fill="rgb(219,232,238)" stroke="rgb(219,232,238)" stroke-width="0.6" opacity="1" d="M 444.5 237 L 448 238.5 L 447 240.5 L 449 244.5 L 445 251 Q 441.7 252.1 443 248 L 445 247.5 L 445 238.5 L 444.5 237 Z " /><path fill="rgb(219,232,238)" stroke="rgb(219,232,238)" stroke-width="0.6" opacity="1" d="M 80.5 239 L 83.5 240 L 86 240.5 Q 87.5 244.9 84.5 244 L 82.5 241 L 80.5 242 Q 77.5 240.5 80.5 239 Z " /><path fill="rgb(219,232,238)" stroke="rgb(219,232,238)" stroke-width="0.6" opacity="1" d="M 171 240 L 175 242.5 L 176.5 244 Q 180.3 245.5 179 251 L 174.5 250 L 173 250.5 L 175 245.5 L 172 244.5 L 171 240 Z " /><path fill="rgb(219,232,238)" stroke="rgb(219,232,238)" stroke-width="0.6" opacity="1" d="M 61.5 244 L 64 245.5 Q 65.1 248.8 62.5 248 L 61 251.5 L 62 253.5 L 58 256 L 58 246.5 L 59.5 245 L 61.5 244 Z " /><path fill="rgb(219,232,238)" stroke="rgb(219,232,238)" stroke-width="0.6" opacity="1" d="M 337 244 L 340 245.5 L 339 248.5 L 343 250.5 Q 341.8 253.3 336.5 252 L 335 249.5 Q 338 248.3 337 244 Z " /><path fill="rgb(219,232,238)" stroke="rgb(219,232,238)" stroke-width="0.6" opacity="1" d="M 419.5 251 L 425 254 L 422.5 258 L 419.5 251 Z " /><path fill="rgb(219,232,238)" stroke="rgb(219,232,238)" stroke-width="0.6" opacity="1" d="M 314.5 254 L 318 255.5 L 315.5 261 L 313 255.5 L 314.5 254 Z " /><path fill="rgb(219,232,238)" stroke="rgb(219,232,238)" stroke-width="0.6" opacity="1" d="M 449.5 256 L 451 258.5 L 450 261 Q 447 259.8 448 263.5 L 445.5 265 L 443 264 Q 441.3 259.9 445.5 261 L 448 260.5 L 449.5 256 Z " /><path fill="rgb(219,232,238)" stroke="rgb(219,232,238)" stroke-width="0.6" opacity="1" d="M 231.5 258 Q 233 263.5 241.5 262 L 244 261 L 243.5 264 L 234.5 264 L 232 263.5 L 231.5 258 Z " /><path fill="rgb(219,232,238)" stroke="rgb(219,232,238)" stroke-width="0.6" opacity="1" d="M 66 264 Q 71.3 262.8 70.5 266 L 80.5 266 L 79.5 268 Q 73.5 267 71.5 270 L 70 266 L 66 266.5 L 69 273.5 L 65.5 275 L 64 272.5 L 65.5 270 Q 60.7 271.7 62 267.5 L 66 266 L 66 264 Z " /><path fill="rgb(219,232,238)" stroke="rgb(219,232,238)" stroke-width="0.6" opacity="1" d="M 359 264 Q 361.3 266.8 367 266 Q 368.5 269.8 365.5 269 L 363.5 269 L 359 266.5 L 359 264 Z " /><path fill="rgb(219,232,238)" stroke="rgb(219,232,238)" stroke-width="0.6" opacity="1" d="M 278.5 268 Q 285.4 265.5 284 270.5 Q 282.7 274.8 278 274 L 277 269.5 L 278.5 268 Z " /><path fill="rgb(219,232,238)" stroke="rgb(219,232,238)" stroke-width="0.6" opacity="1" d="M 435 268 L 438 268.5 L 436 271.5 L 438 275 L 429.5 275 L 428 273.5 L 436 270.5 L 435 268 Z " /><path fill="rgb(219,232,238)" stroke="rgb(219,232,238)" stroke-width="0.6" opacity="1" d="M 371 275 L 379 275 L 379 277.5 L 376.5 279 L 371 276.5 L 371 275 Z " /><path fill="rgb(219,232,238)" stroke="rgb(219,232,238)" stroke-width="0.6" opacity="1" d="M 394.5 276 L 399 277.5 L 398 280 L 394 280 Q 395 283 392 282 L 391 277.5 L 394.5 276 Z " /><path fill="rgb(219,232,238)" stroke="rgb(219,232,238)" stroke-width="0.6" opacity="1" d="M 119.5 280 L 122 281 L 121 289.5 L 117.5 293 Q 111.7 295.1 113 290.5 L 115.5 290 L 118 288.5 L 117 283.5 L 119.5 280 Z " /><path fill="rgb(219,232,238)" stroke="rgb(219,232,238)" stroke-width="0.6" opacity="1" d="M 235.5 280 L 236 282.5 L 236 287.5 L 238 289.5 L 237 292 L 239 292.5 L 236.5 294 L 234 293 L 235.5 298 Q 241.3 300.1 240 295.5 L 239.5 294 L 242 294 Q 239.9 299.2 244.5 298 L 247 297 Q 249.3 303.4 241.5 301 L 237.5 302 L 234.5 300 L 231.5 302 L 228.5 300 L 226 299.5 Q 225.6 296.5 232 298 Q 230.5 291.7 234 292.5 L 234 288.5 L 233 285.5 L 235.5 280 Z " /><path fill="rgb(219,232,238)" stroke="rgb(219,232,238)" stroke-width="0.6" opacity="1" d="M 359.5 281 L 365 284.5 L 363 290 Q 366.8 288.5 366 291.5 Q 364.7 295 360 294 Q 358.3 289.9 362.5 291 L 362.5 290 L 357 288 L 358 290.5 L 355 292 Q 354.3 287.3 358.5 286 L 361 284.5 L 359.5 281 Z " /><path fill="rgb(219,232,238)" stroke="rgb(219,232,238)" stroke-width="0.6" opacity="1" d="M 80.5 283 L 86 284 L 84.5 287 L 80.5 290 L 80 287.5 L 79.5 286 L 75 287 Q 73.2 282.1 79.5 284 L 80.5 283 Z " /><path fill="rgb(219,232,238)" stroke="rgb(219,232,238)" stroke-width="0.6" opacity="1" d="M 254.5 283 L 256 288 L 258 289.5 L 256 293 Q 252.7 294.1 254 290 Q 257 291 256 288 L 251.5 290 L 248.5 286 L 250.5 287 L 252.5 284 L 254.5 283 Z " /><path fill="rgb(219,232,238)" stroke="rgb(219,232,238)" stroke-width="0.6" opacity="1" d="M 401.5 283 L 404.5 290 Q 408.3 289 407 292 L 400 292 L 400 289.5 L 394 285.5 L 396.5 285 L 398.5 286 L 401.5 283 Z " /><path fill="rgb(219,232,238)" stroke="rgb(219,232,238)" stroke-width="0.6" opacity="1" d="M 333.5 284 Q 336.5 283.5 335 290.5 Q 333.8 293.3 328.5 292 L 327 289.5 L 330.5 287 L 332 287.5 L 333.5 284 Z " /><path fill="rgb(219,232,238)" stroke="rgb(219,232,238)" stroke-width="0.6" opacity="1" d="M 156.5 285 L 161 287.5 Q 162.9 292.9 159.5 292 L 153 287.5 L 156.5 285 Z " /><path fill="rgb(219,232,238)" stroke="rgb(219,232,238)" stroke-width="0.6" opacity="1" d="M 384.5 285 L 386 286.5 L 390 289 Q 391.7 293.1 387.5 292 L 381 287.5 L 384.5 285 Z " /><path fill="rgb(219,232,238)" stroke="rgb(219,232,238)" stroke-width="0.6" opacity="1" d="M 96.5 286 L 99 287.5 L 98.5 289 Q 102.3 288 101 291 L 96 293.5 L 95.5 296 Q 90.7 297.3 92 294 L 96 292.5 L 95 287.5 L 96.5 286 Z " /><path fill="rgb(219,232,238)" stroke="rgb(219,232,238)" stroke-width="0.6" opacity="1" d="M 269 286 Q 273.8 284.1 273 287.5 L 276 289 L 274.5 292 L 271 290.5 L 273 289.5 L 269 287.5 L 269 286 Z " /><path fill="rgb(219,232,238)" stroke="rgb(219,232,238)" stroke-width="0.6" opacity="1" d="M 150 290 Q 154.5 288.5 153 293 L 157 293 L 157 296.5 L 154.5 297 L 151 293.5 L 150 290 Z " /><path fill="rgb(219,232,238)" stroke="rgb(219,232,238)" stroke-width="0.6" opacity="1" d="M 282.5 291 L 283 294 L 281 295.5 L 280 298 L 284.5 296 L 285 298 L 281.5 300 L 277 297 Q 275.5 293.3 278.5 294 L 280 294.5 L 282.5 291 Z " /><path fill="rgb(219,232,238)" stroke="rgb(219,232,238)" stroke-width="0.6" opacity="1" d="M 348.5 291 L 350 293.5 L 349 302 Q 352 301 351 304 L 346.5 306 L 344.5 303 L 349 304 L 347 300.5 L 346 293.5 L 348.5 291 Z " /><path fill="rgb(219,232,238)" stroke="rgb(219,232,238)" stroke-width="0.6" opacity="1" d="M 178.5 298 L 180 298.5 L 175 302.5 L 172.5 306 Q 166.4 307.3 167 304.5 L 171 302 Q 169.5 298.2 172.5 299 L 176.5 300 L 178.5 298 Z " /><path fill="rgb(219,232,238)" stroke="rgb(219,232,238)" stroke-width="0.6" opacity="1" d="M 297.5 300 L 302.5 302 Q 303.9 298.8 309 300 L 307.5 303 L 303 302 Q 304.7 306.1 300.5 305 L 299 302 L 297 303.5 L 298 306 L 300 306.5 L 297.5 308 L 292 306 L 293.5 304 L 297 302 L 297.5 300 Z " /><path fill="rgb(219,232,238)" stroke="rgb(219,232,238)" stroke-width="0.6" opacity="1" d="M 190.5 302 L 193 303.5 Q 189.5 305 192 306.5 L 190.5 310 Q 187.3 308.3 191 306.5 L 189 304.5 L 190.5 302 Z " /><path fill="rgb(219,232,238)" stroke="rgb(219,232,238)" stroke-width="0.6" opacity="1" d="M 220.5 303 L 221 304.5 Q 217.5 306 220 307.5 Q 220.7 310.5 217 309 L 216 305.5 L 218.5 304 L 220 304.5 L 220.5 303 Z " /><path fill="rgb(219,232,238)" stroke="rgb(219,232,238)" stroke-width="0.6" opacity="1" d="M 330.5 303 L 332 308 L 324 311 Q 321.9 305.8 326.5 307 L 330.5 303 Z " /><path fill="rgb(219,232,238)" stroke="rgb(219,232,238)" stroke-width="0.6" opacity="1" d="M 182 306 L 188 308.5 L 185.5 312 L 181 308.5 L 182 306 Z " /><path fill="rgb(219,232,238)" stroke="rgb(219,232,238)" stroke-width="0.6" opacity="1" d="M 382.5 356 Q 385.8 354.9 385 357.5 L 383.5 360 L 388 361.5 L 386.5 363 L 381 366 L 382 368.5 L 380.5 369 L 376.5 368 L 372 371 Q 370.3 366.9 374.5 368 L 373.5 366 L 367 364 Q 365.5 360.3 368.5 361 L 371 362 L 372.5 360 L 375.5 364 L 379.5 365 L 383 360.5 L 381 357.5 L 382.5 356 Z " /><path fill="rgb(219,232,238)" stroke="rgb(219,232,238)" stroke-width="0.6" opacity="1" d="M 361 373 L 365 375.5 L 364 382 Q 369.2 380.3 368 384 Q 362.5 385.3 361 381.5 L 360 377.5 L 362 377.5 L 361 373 Z " /><path fill="rgb(219,232,238)" stroke="rgb(219,232,238)" stroke-width="0.6" opacity="1" d="M 372.5 379 L 377 381 Q 375.9 377.7 380 379 Q 381.5 382.8 378.5 382 L 376 382.5 Q 375.2 385.1 378.5 384 L 377.5 386 L 372.5 379 Z " /><path fill="rgb(219,232,238)" stroke="rgb(219,232,238)" stroke-width="0.6" opacity="1" d="M 387.5 382 L 393 386.5 Q 393.6 389.3 387.5 388 L 386 383.5 L 387.5 382 Z " /><path fill="rgb(219,232,238)" stroke="rgb(219,232,238)" stroke-width="0.6" opacity="1" d="M 355 391 L 362 392.5 L 358 395.5 Q 359.5 401.5 356.5 403 L 355 402.5 L 355 391 Z " /><path fill="rgb(219,232,238)" stroke="rgb(219,232,238)" stroke-width="0.6" opacity="1" d="M 391.5 395 L 394 396.5 L 393 406 L 397.5 404 L 399 406.5 L 396 408 L 397 411.5 L 393 414 L 392 410.5 L 391.5 408 L 389 406.5 L 385.5 402 L 384 400.5 L 386.5 402 Q 390.9 403.5 390 400.5 L 392 398.5 Q 388.3 396.8 391.5 395 Z " /><path fill="rgb(219,232,238)" stroke="rgb(219,232,238)" stroke-width="0.6" opacity="1" d="M 372 410 L 381.5 414 L 384 413 Q 385.4 416.7 379.5 415 L 374 416 L 372.5 413 L 369 420 L 363 418.5 Q 362.2 415.9 365.5 417 L 368 416.5 L 369.5 413 Q 373.7 414.1 372 410 Z " /><path fill="rgb(125,176,204)" stroke="rgb(125,176,204)" stroke-width="0.6" opacity="1" d="M 257 353 L 259 354.5 Q 273.1 371.4 282 393.5 Q 287.2 404.3 286 421.5 Q 284.1 433.6 276.5 440 Q 268.6 448.1 250.5 446 Q 238.9 442.6 233 433.5 L 229 423.5 L 229 408.5 L 237 384.5 L 257 353 Z " /><path fill="rgb(213,227,233)" stroke="rgb(213,227,233)" stroke-width="0.6" opacity="1" d="M 239.5 67 L 248.5 67 L 251.5 69 Q 261.7 68.3 267.5 72 L 269.5 71 L 290.5 81 L 294 84.5 L 295.5 87 L 308 97.5 L 313 108 L 315 108.5 L 311.5 109 L 306 97 L 302 96 L 302 94 L 300 94 L 300 92 L 294.5 88 L 287.5 82 L 282.5 84 L 277.5 77 L 275 75.5 L 273.5 74 L 270.5 75 L 268.5 72 L 268 74 L 259.5 76 L 254.5 71 L 236.5 71 L 230.5 72 Q 227.5 70.5 230.5 69 Q 237.2 70.2 239.5 67 Z " /><path fill="rgb(213,227,233)" stroke="rgb(213,227,233)" stroke-width="0.6" opacity="1" d="M 224.5 69 L 228 69.5 L 225 70.5 L 224.5 73 Q 219.2 72.2 218.5 76 L 214.5 76 L 212.5 76 L 193 86 L 191.5 88 L 182.5 98 L 179 101.5 L 174 109.5 L 175 111.5 L 168.5 122 L 167 121.5 L 170 129.5 L 167.5 134 Q 164.5 133.5 166 140.5 L 162 142.5 L 162.5 144 L 160 143.5 L 164 139.5 L 164 132.5 L 168 115.5 L 180 95 L 183 93.5 L 188.5 87 L 195 84 L 196.5 81 L 211.5 73 Q 220.8 73.8 224.5 69 Z " /><path fill="rgb(213,227,233)" stroke="rgb(213,227,233)" stroke-width="0.6" opacity="1" d="M 314.5 111 L 317 112.5 L 321 123.5 L 321 128.5 L 325.5 135 L 354.5 131 L 359.5 134 L 369.5 135 Q 371.7 139.9 378 139 L 380.5 143 L 386 146.5 L 387.5 149 L 390 150.5 L 391.5 152 L 401 166.5 Q 400 172.5 403 174.5 L 403 183.5 L 406.5 187 L 413 187.5 L 405 189 L 403.5 186 L 398 182.5 L 401 177.5 L 399 169.5 L 395.5 166 L 394 164.5 Q 390.4 163.1 391 157.5 L 392 154 L 388 151.5 L 384.5 148 L 378.5 147 L 376 144.5 L 377 142.5 L 369.5 138 L 366.5 138 L 363.5 140 L 359.5 135 L 352 133.5 L 354 132.5 L 350.5 132 L 350 134.5 L 347.5 138 Q 344.4 133.1 334.5 135 L 329.5 137 L 325.5 136 L 319 137 L 321 133.5 Q 318 131.5 319 125.5 L 316.5 123 L 314 121.5 L 315 114.5 Q 311.3 112.8 314.5 111 Z " /><path fill="rgb(213,227,233)" stroke="rgb(213,227,233)" stroke-width="0.6" opacity="1" d="M 136.5 141 L 148 141.5 L 139.5 143 L 136 142 L 134.5 144 L 132.5 146 L 121.5 147 L 115.5 152 L 111 152 L 109.5 154 L 102.5 162 L 99 165.5 Q 91.2 173.2 88.5 186 L 87 185.5 L 88 207.5 L 84.5 209 L 86 206.5 L 86 184.5 L 94 166 L 96 164.5 L 101.5 158 L 105 155.5 L 106.5 153 L 108.5 152 L 111 151.5 Q 109.7 147.3 114.5 149 L 124.5 143 Q 132.5 144 136.5 141 Z " /><path fill="rgb(213,227,233)" stroke="rgb(213,227,233)" stroke-width="0.6" opacity="1" d="M 149.5 142 L 155.5 144 L 157.5 143 L 160 147 L 155.5 145 L 150.5 147 L 148 143.5 L 149.5 142 Z " /><path fill="rgb(213,227,233)" stroke="rgb(213,227,233)" stroke-width="0.6" opacity="1" d="M 415 188 Q 430.1 189.6 439 198.5 Q 437.9 201.8 440.5 201 L 444 207 L 449 209.5 L 451 214.5 L 453 216.5 L 454 224.5 L 453 227 L 457 229 L 457 236 Q 453.3 237.5 454 234.5 L 453 232 L 448 231 L 447 227.5 L 451 219.5 L 445.5 211 L 440 206.5 Q 441 201 437.5 200 Q 432.2 193.8 421.5 193 L 417.5 194 Q 414 192.7 415 188 Z " /><path fill="rgb(213,227,233)" stroke="rgb(213,227,233)" stroke-width="0.6" opacity="1" d="M 82.5 210 L 83 212.5 L 78.5 216 L 76.5 216 L 74.5 217 L 72.5 216 L 71.5 219 L 69 220.5 L 70 223.5 L 62 230.5 Q 58.9 234.9 60 243.5 L 58 246.5 L 58 256.5 L 62 263.5 L 60 266.5 L 62 269.5 L 61 272 L 64 273.5 L 65.5 276 L 68.5 276 L 74 280.5 L 73 285.5 L 77 288 L 78.5 291 Q 87.2 289.7 90 293 L 91.5 296 L 98.5 297 L 102.5 296 L 106 300.5 L 99.5 301 L 94 300 L 94 298 L 87.5 298 Q 88.5 295.3 84.5 296 L 73 289.5 L 73.5 288 L 68 284.5 L 67 282.5 L 67 280.5 L 65.5 279 L 62 276.5 Q 63 272.8 60 274 L 60 270.5 L 58 268.5 Q 58.8 260.7 55 257.5 L 56 244.5 L 55 242.5 L 58 237.5 L 58 232.5 L 60 228 L 62 226.5 L 63 224 L 67 221.5 L 72.5 215 L 82.5 210 Z " /><path fill="rgb(213,227,233)" stroke="rgb(213,227,233)" stroke-width="0.6" opacity="1" d="M 456.5 240 L 457 249 Q 454 247.8 455 251.5 L 456 253.5 Q 451.9 255.4 453 262.5 L 445 276 Q 441.3 274.5 442 277.5 L 435 283 L 431.5 288 L 418 294 L 419.5 290 L 430.5 284 L 432.5 285 L 445 271.5 L 445 268.5 L 451 259.5 L 452 252 L 450 251.5 Q 455 248.5 454 241 L 456.5 240 Z " /><path fill="rgb(213,227,233)" stroke="rgb(213,227,233)" stroke-width="0.6" opacity="1" d="M 264.5 286 L 272 291.5 L 274.5 295 L 281.5 301 L 284.5 301 L 286.5 300 L 291 302.5 L 290 305.5 L 294 308.5 L 291.5 310 L 278 302 L 276.5 300 L 273 298 L 270.5 293 Q 268.9 289.1 262.5 290 L 259 292 Q 259.8 296.7 255.5 298 L 251 299 L 248.5 304 L 232 312 Q 230.5 308.3 233.5 309 L 236 308 L 239.5 303 L 242.5 304 L 248 301.5 L 250.5 294 L 254.5 295 L 256 292 L 262 289 L 263.5 287 L 264.5 286 Z " /><path fill="rgb(213,227,233)" stroke="rgb(213,227,233)" stroke-width="0.6" opacity="1" d="M 369 288 L 373.5 289 L 379.5 288 L 384 293.5 L 381.5 294 L 376.5 290 L 372.5 290 L 369 292.5 L 366.5 296 L 363.5 298 L 354.5 305 L 353 301.5 L 357.5 296 L 361.5 297 Q 363.1 291.3 369 292 L 369 288 Z " /><path fill="rgb(213,227,233)" stroke="rgb(213,227,233)" stroke-width="0.6" opacity="1" d="M 137.5 289 L 142.5 290 L 145.5 289 L 154.5 298 L 156.5 298 L 159.5 297 L 165 301.5 L 164 303.5 L 167.5 307 L 177.5 308 L 183 312 L 183.5 314 L 195.5 312 L 198.5 314 L 210 314 L 211.5 316 L 211.5 317 L 196.5 316 L 193.5 317 L 169.5 311 L 161 305.5 L 159.5 303 L 157.5 303 L 152 300 Q 153.5 296.2 150.5 297 L 149 294 L 143.5 291 L 139.5 291 L 125.5 298 L 126.5 294 L 129.5 294 L 137.5 289 Z " /><path fill="rgb(213,227,233)" stroke="rgb(213,227,233)" stroke-width="0.6" opacity="1" d="M 394.5 290 Q 396.8 295.1 404 294 Q 402.7 297.3 407.5 296 L 408.5 293 L 415 292 L 416.5 294 L 416.5 295 L 413.5 294 Q 407.7 299.2 394.5 297 L 389.5 296 L 387 293.5 Q 386.1 290.5 390.5 292 Q 392.5 295 394.5 290 Z " /><path fill="rgb(213,227,233)" stroke="rgb(213,227,233)" stroke-width="0.6" opacity="1" d="M 118.5 295 L 123 296 L 121 300 L 116.5 300 L 109.5 301 L 107 300 Q 105.9 296.5 113.5 298 L 118.5 295 Z " /><path fill="rgb(213,227,233)" stroke="rgb(213,227,233)" stroke-width="0.6" opacity="1" d="M 350.5 305 L 353 306.5 L 340 312 L 342.5 307 Q 349 308.5 350.5 305 Z " /><path fill="rgb(213,227,233)" stroke="rgb(213,227,233)" stroke-width="0.6" opacity="1" d="M 306.5 308 L 310 309.5 L 311 312.5 L 310.5 314 L 314 312 Q 315.8 316.9 309.5 315 L 302.5 312 L 300.5 313 L 294 310.5 L 299.5 309 L 301.5 309 L 306.5 308 Z " /><path fill="rgb(213,227,233)" stroke="rgb(213,227,233)" stroke-width="0.6" opacity="1" d="M 221.5 310 Q 228.8 308.8 231 312.5 L 214.5 317 L 215 315.5 Q 213.9 312.2 216.5 313 L 221.5 310 Z " /><path fill="rgb(213,227,233)" stroke="rgb(213,227,233)" stroke-width="0.6" opacity="1" d="M 331.5 310 L 336.5 310 L 338.5 312 L 338.5 313 L 335.5 312 Q 332 316 323.5 315 L 317 313.5 L 321.5 312 Q 322.8 315 327 314 Q 325.8 311 329.5 312 L 331.5 310 Z " /><path fill="rgb(213,227,233)" stroke="rgb(213,227,233)" stroke-width="0.6" opacity="1" d="M 376.5 341 Q 379.8 339.9 379 342.5 L 381 347 L 384 348.5 Q 382.5 352.9 385.5 352 L 397 370.5 L 397 374.5 L 401 382.5 L 402 403.5 L 401 410.5 L 397 417 L 392 420.5 Q 393.3 424.3 389.5 423 L 386.5 425 L 384.5 424 L 375.5 427 L 361.5 422 L 357 417.5 L 357 414.5 L 352 407.5 L 354.5 407 L 362 409.5 L 363 413.5 L 362 418.5 Q 363.9 422.1 369.5 422 L 371.5 422 L 374 423.5 L 375.5 426 L 378.5 423 L 383.5 421 Q 385 424.5 386.5 422 L 391 419.5 L 390 415.5 L 392.5 415 L 397 412.5 L 399 403.5 L 398 395.5 L 396 392.5 L 399 389.5 L 400 383 L 397 381.5 Q 397.8 376.2 395 374.5 L 396 372 L 393 370.5 Q 393.8 367.9 390.5 369 L 386 354 L 380 355 Q 382 347.2 377.5 345 Q 374.2 343.9 375 346.5 Q 372.7 354.7 366 358.5 L 364 365.5 L 365 367.5 L 360 371.5 L 360 374 Q 356.3 372.5 357 375.5 L 358 385.5 L 353 388 L 354 403.5 L 352 404.5 L 352 387.5 L 356 378.5 L 356 374.5 L 362 364.5 L 364 357.5 L 376.5 341 Z " /><path fill="rgb(211,221,225)" stroke="rgb(211,221,225)" stroke-width="0.6" opacity="1" d="M 251.5 68 Q 262 67.5 268 71.5 L 266.5 72 Q 261.2 68.2 251.5 69 L 251.5 68 Z " /><path fill="rgb(211,221,225)" stroke="rgb(211,221,225)" stroke-width="0.6" opacity="1" d="M 281.5 76 L 289 80.5 L 287.5 80 Q 281.9 79.2 281.5 76 Z " /><path fill="rgb(211,221,225)" stroke="rgb(211,221,225)" stroke-width="0.6" opacity="1" d="M 294.5 84 L 302 90.5 L 306 95.5 L 296.5 87 L 294 85.5 L 294.5 84 Z " /><path fill="rgb(211,221,225)" stroke="rgb(211,221,225)" stroke-width="0.6" opacity="1" d="M 336.5 132 L 340 132.5 L 329.5 135 L 329.5 134 L 336.5 132 Z " /><path fill="rgb(211,221,225)" stroke="rgb(211,221,225)" stroke-width="0.6" opacity="1" d="M 378.5 140 L 393 152.5 L 391.5 152 L 390 150.5 L 386 147.5 L 384.5 145 L 378.5 140 Z " /><path fill="rgb(211,221,225)" stroke="rgb(211,221,225)" stroke-width="0.6" opacity="1" d="M 393.5 154 L 400 164.5 L 398 163.5 L 393.5 154 Z " /><path fill="rgb(211,221,225)" stroke="rgb(211,221,225)" stroke-width="0.6" opacity="1" d="M 85.5 188 L 86 206.5 L 85 206.5 L 84 196.5 L 85.5 188 Z " /><path fill="rgb(211,221,225)" stroke="rgb(211,221,225)" stroke-width="0.6" opacity="1" d="M 439.5 199 L 447 207.5 L 445.5 207 L 444 205.5 L 440.5 201 Q 437.7 201.7 439.5 199 Z " /><path fill="rgb(211,221,225)" stroke="rgb(211,221,225)" stroke-width="0.6" opacity="1" d="M 69.5 217 L 67 220.5 L 64.5 224 L 66 221.5 L 69.5 217 Z " /><path fill="rgb(211,221,225)" stroke="rgb(211,221,225)" stroke-width="0.6" opacity="1" d="M 453.5 218 L 456 228.5 L 455 228.5 L 453 225.5 L 454 222.5 L 453.5 218 Z " /><path fill="rgb(211,221,225)" stroke="rgb(211,221,225)" stroke-width="0.6" opacity="1" d="M 55.5 244 L 56 256.5 L 55 256.5 L 55.5 244 Z " /><path fill="rgb(211,221,225)" stroke="rgb(211,221,225)" stroke-width="0.6" opacity="1" d="M 442 276 L 444 276.5 L 442 280 L 433.5 287 L 435 284.5 L 436.5 283 L 442 276 Z " /><path fill="rgb(211,221,225)" stroke="rgb(211,221,225)" stroke-width="0.6" opacity="1" d="M 63.5 278 L 67 279 L 68 281.5 L 67.5 284 L 63.5 278 Z " /><path fill="rgb(211,221,225)" stroke="rgb(211,221,225)" stroke-width="0.6" opacity="1" d="M 196.5 316 L 209 316.5 L 196.5 317 L 196.5 316 Z " /><path fill="rgb(211,221,225)" stroke="rgb(211,221,225)" stroke-width="0.6" opacity="1" d="M 355.5 376 L 356 378.5 L 352.5 387 L 352 385.5 L 355.5 376 Z " /><path fill="rgb(211,221,225)" stroke="rgb(211,221,225)" stroke-width="0.6" opacity="1" d="M 401.5 384 Q 404.6 391.9 403 404.5 L 401.5 409 L 401 404.5 L 402 403.5 L 402 389.5 L 401.5 384 Z " /><path fill="rgb(211,221,225)" stroke="rgb(211,221,225)" stroke-width="0.6" opacity="1" d="M 351.5 392 L 352 403.5 L 351 403.5 L 351.5 392 Z " /><path fill="rgb(211,221,225)" stroke="rgb(211,221,225)" stroke-width="0.6" opacity="1" d="M 352.5 408 L 357 416.5 L 356 416.5 L 352.5 408 Z " /><path fill="rgb(211,221,225)" stroke="rgb(211,221,225)" stroke-width="0.6" opacity="1" d="M 400.5 411 L 400 412.5 L 392.5 422 L 392 420.5 L 397 417 L 400.5 411 Z " /><path fill="rgb(32,31,32)" stroke="rgb(32,31,32)" stroke-width="0.6" opacity="1" d="M 185.5 88 L 180.5 94 L 185.5 88 Z " /><path fill="rgb(32,31,32)" stroke="rgb(32,31,32)" stroke-width="0.6" opacity="1" d="M 395.5 304 L 406 304.5 L 395.5 305 L 395.5 304 Z " /><path fill="rgb(112,113,114)" stroke="rgb(112,113,114)" stroke-width="0.6" opacity="1" d="M 141.5 300 L 146.5 306 L 141.5 300 Z " /><path fill="rgb(200,204,206)" stroke="rgb(200,204,206)" stroke-width="0.6" opacity="1" d="M 63.5 211 L 58.5 217 L 63.5 211 Z " /><path fill="rgb(118,161,178)" stroke="rgb(118,161,178)" stroke-width="0.6" opacity="1" d="M 234.5 435 L 239.5 441 L 234.5 435 Z " /></svg>