<svg width="627" height="627" preserveAspectRatio="xMidYMid meet" viewBox="0 0 512 512" version="1.1" xmlns="http://www.w3.org/2000/svg" ><path fill="rgb(255,255,255)" stroke="rgb(255,255,255)" stroke-width="0.6" opacity="1" d="M 0 0 L 512 0 L 512 512 L 0 512 L 0 0 Z M 227 77 L 196 81 L 157 94 Q 127 107 105 128 Q 67 162 44 211 L 27 262 L 22 288 L 21 310 L 10 317 L 10 328 L 12 329 L 13 326 Q 18 318 31 318 L 37 310 Q 46 297 65 293 L 82 293 L 100 301 L 115 317 L 121 315 Q 135 315 143 322 Q 150 327 153 337 L 154 346 L 174 353 Q 182 360 185 373 Q 186 388 179 396 Q 173 407 156 406 L 152 411 Q 146 420 133 423 Q 110 423 101 410 L 96 410 L 83 422 L 68 428 Q 48 430 39 422 Q 30 416 27 406 L 26 404 L 12 404 Q 9 406 10 412 Q 12 415 20 413 L 23 420 L 37 432 L 48 436 L 58 437 Q 85 437 98 422 Q 107 429 122 432 Q 145 434 155 422 L 156 420 L 161 415 L 167 415 L 179 409 Q 191 401 194 384 Q 195 363 186 353 Q 179 342 165 340 L 159 328 L 154 322 L 155 311 L 161 294 Q 168 276 180 263 Q 197 242 228 235 Q 246 233 259 237 Q 274 242 285 252 Q 311 275 319 316 L 319 321 L 309 337 L 309 341 L 295 347 Q 284 354 280 369 L 280 388 L 285 400 Q 293 412 311 414 L 313 418 Q 321 429 338 432 Q 359 433 370 422 L 390 434 L 400 437 Q 425 439 438 427 Q 445 422 448 414 L 450 412 L 473 412 L 487 405 Q 498 396 502 381 L 502 361 L 495 345 L 491 340 Q 485 331 472 330 L 467 322 L 457 313 L 455 312 L 454 287 L 449 259 L 435 216 L 414 176 Q 400 154 382 137 Q 365 117 342 103 L 311 88 L 274 78 L 227 77 Z " /><path fill="rgb(83,155,78)" stroke="rgb(83,155,78)" stroke-width="0.6" opacity="1" d="M 238.5 85 L 262.5 86 L 268.5 88 L 282.5 89 L 316.5 100 Q 354.1 117.4 380 146.5 Q 409.1 177.4 427 219.5 Q 435.9 240.1 441 264.5 L 444 279.5 L 446 307.5 L 441.5 309 L 428.5 293 Q 422.4 287.6 411.5 287 L 407 283.5 Q 391.7 204.8 340.5 162 Q 321.7 146.8 297.5 137 L 268.5 129 L 236.5 127 L 208.5 130 L 169.5 143 Q 141.8 156.3 122 177.5 Q 104.7 195.2 92 217.5 L 82 237.5 L 71 268.5 L 69 282.5 L 66.5 285 Q 42.6 287.1 31.5 302 Q 28.5 300.5 30 294.5 Q 45.7 190.2 110.5 135 Q 136.9 110.9 173.5 97 L 206.5 88 L 238.5 85 Z " /><path fill="rgb(0,0,0)" stroke="rgb(0,0,0)" stroke-width="0.6" opacity="1" d="M 228.5 77 L 255.5 77 L 259.5 79 L 274.5 79 L 310.5 89 L 341.5 104 Q 363.2 117.3 380 135.5 Q 399.8 154.7 415 178.5 L 435 217.5 L 448 257.5 L 453 285.5 L 454 311.5 L 456.5 314 L 466 321.5 L 470.5 331 Q 487.4 332.6 494 344.5 L 501 359.5 L 502 376.5 Q 498.9 393.9 487.5 403 Q 480.5 409.5 469.5 412 L 451.5 412 L 449.5 411 L 438.5 425 Q 426.5 438.5 398.5 436 L 381.5 429 L 369.5 420 Q 360 432.5 336.5 431 Q 322.5 428 315 418.5 L 310.5 413 Q 294.3 411.3 287 400.5 L 280 385.5 L 280 372.5 Q 282.9 356.9 293.5 349 L 310 340.5 L 310 335.5 L 319 322.5 L 319 311.5 Q 309.6 271.4 282.5 249 Q 271.8 240.7 257.5 236 L 224.5 235 Q 194.4 242.4 178 263.5 Q 158.6 285.6 153 321.5 L 158 327.5 L 162 338.5 L 164.5 341 Q 177.4 342.1 183 350.5 Q 194.8 360.7 193 384.5 Q 189.8 399.3 179.5 407 L 167.5 414 L 160.5 414 L 155 418.5 L 150.5 424 Q 141.4 433.4 120.5 431 L 112.5 429 L 97.5 420 Q 89.8 429.3 77.5 434 L 56.5 436 Q 33.3 434.2 24 418.5 L 20.5 413 Q 12.3 415.3 10 411.5 Q 8.8 406.3 11.5 405 L 25.5 405 L 26 406.5 Q 29.6 418.3 39.5 424 Q 49.6 430.9 69.5 428 L 84.5 422 L 98.5 410 Q 108.5 425 135.5 423 Q 145.1 420.1 151 413.5 L 155.5 407 Q 171.5 407.5 178 398.5 Q 187.5 390 185 369.5 Q 182.1 357.9 173.5 352 L 155 344.5 Q 153.2 327.3 141.5 320 Q 134.7 313.3 119.5 315 L 114.5 316 L 99.5 300 L 84.5 293 L 61.5 293 Q 47.4 296.4 39 305.5 L 30.5 317 Q 17.1 317.1 12 325.5 L 10 327 Q 7.8 316.5 14.5 314 Q 20.1 313.6 22 309.5 L 23 286.5 L 28 260.5 L 38 227.5 L 45 210.5 Q 66.7 163.7 102.5 131 Q 126.4 108.4 158.5 94 L 190.5 83 L 209.5 79 L 225.5 79 L 228.5 77 Z M 239 85 L 238 86 L 210 87 Q 186 91 168 99 Q 131 114 106 139 Q 73 169 53 212 L 39 249 L 30 293 L 30 303 L 32 304 L 33 302 Q 43 287 67 286 L 69 284 L 72 267 L 83 237 Q 96 206 117 184 Q 139 157 173 142 L 206 131 L 237 127 L 267 129 L 297 137 Q 325 148 346 167 Q 392 210 407 285 L 410 287 L 423 290 L 431 295 L 439 308 L 444 310 L 446 309 L 446 293 L 444 289 L 444 278 L 441 263 L 429 224 Q 412 182 385 152 Q 358 119 318 100 L 281 88 L 239 85 Z M 227 136 Q 173 142 142 170 Q 92 210 76 284 L 78 285 L 94 288 L 108 297 L 120 259 Q 129 238 143 223 Q 157 205 178 193 L 210 180 L 225 179 L 228 177 L 252 177 L 284 185 Q 305 193 320 208 Q 335 223 346 242 L 358 267 L 368 296 L 379 288 L 385 286 L 398 285 L 399 284 Q 388 226 356 190 Q 333 161 297 145 L 267 137 L 227 136 Z M 230 185 Q 184 189 161 215 Q 125 247 115 305 Q 120 311 134 308 L 146 314 Q 154 280 174 258 Q 194 232 233 226 Q 269 226 288 243 Q 301 255 311 272 L 329 314 L 341 308 L 357 307 L 359 304 Q 351 247 317 217 Q 301 200 279 191 L 253 185 L 230 185 Z M 389 293 L 375 299 L 363 313 L 361 315 L 345 315 L 332 320 Q 318 328 316 348 L 314 350 Q 306 349 302 352 Q 292 359 288 372 L 288 386 L 293 397 Q 300 406 316 407 L 321 415 Q 326 421 336 423 Q 357 425 367 415 L 368 413 L 374 411 L 375 414 Q 383 424 399 428 Q 421 431 431 422 L 447 403 L 453 404 L 469 404 L 484 397 Q 491 390 494 379 L 493 360 L 485 346 L 475 338 L 467 337 L 460 327 Q 455 316 439 317 L 431 307 Q 420 290 389 293 Z " /><path fill="rgb(244,184,50)" stroke="rgb(244,184,50)" stroke-width="0.6" opacity="1" d="M 392.5 293 Q 419 292 430 306.5 L 437.5 317 L 449.5 319 L 459 326.5 L 466.5 338 L 474.5 339 L 485 347.5 L 492 359.5 L 494 374.5 Q 490.9 390.9 479.5 399 L 466.5 404 L 453.5 404 Q 452 400.5 445.5 402 Q 439.8 413.3 430.5 421 Q 421.1 429.1 402.5 428 Q 384.9 425.1 376 413.5 L 374.5 410 L 369.5 410 Q 364.1 418.1 353.5 421 L 334.5 422 Q 324.8 419.3 320 411.5 L 318 407 Q 302.4 405.8 294 396.5 L 288 382.5 L 288 374.5 Q 291.6 360.6 301.5 353 Q 304.8 349.8 312.5 351 L 316 348.5 Q 318.4 329.4 331.5 321 L 339.5 317 L 354.5 315 L 360.5 316 L 374.5 300 Q 381.6 294.6 392.5 293 Z " /><path fill="rgb(224,92,65)" stroke="rgb(224,92,65)" stroke-width="0.6" opacity="1" d="M 227.5 136 L 254.5 136 Q 255.8 139.2 261.5 138 L 263.5 137 Q 317.1 146.9 347 180.5 L 355 191 L 357 192.5 Q 389 227.7 398 285 Q 377.2 283.5 367.5 294 L 359 267.5 L 349 245.5 Q 335.3 219.7 313.5 202 Q 297.1 188.4 274.5 181 L 254.5 177 L 226.5 177 Q 177.3 184.3 150 213.5 Q 118.3 244.1 108 295 L 92.5 287 L 79.5 285 L 77 282.5 Q 91.6 217.6 132.5 179 Q 149.5 162 172.5 151 L 195.5 142 L 212.5 138 L 222.5 138 L 227.5 136 Z " /><path fill="rgb(95,161,196)" stroke="rgb(95,161,196)" stroke-width="0.6" opacity="1" d="M 230.5 185 L 233.5 186 L 237.5 185 L 238.5 186 L 255.5 186 L 279.5 192 Q 303.2 201.8 319 219.5 Q 337.2 237.8 348 263.5 L 358 296.5 L 358 304.5 L 355.5 307 L 339.5 308 L 328.5 313 Q 320.9 287.6 309 266.5 L 288.5 243 Q 277.1 232.4 259.5 228 Q 247.4 224.1 229.5 226 L 213.5 229 L 196.5 237 L 173 257.5 L 156 283.5 L 147 307.5 L 147 313 L 143.5 313 L 134.5 308 L 118.5 307 L 116 304.5 Q 124 253 153.5 223 L 161 216.5 L 162.5 214 Q 176.1 200.6 195.5 193 L 215.5 187 Q 225.1 188.1 230.5 185 Z " /><path fill="rgb(41,41,41)" stroke="rgb(41,41,41)" stroke-width="0.6" opacity="1" d="M 105.5 139 L 98.5 147 L 105.5 139 Z " /><path fill="rgb(41,41,41)" stroke="rgb(41,41,41)" stroke-width="0.6" opacity="1" d="M 160.5 215 L 153.5 223 L 160.5 215 Z " /><path fill="rgb(41,41,41)" stroke="rgb(41,41,41)" stroke-width="0.6" opacity="1" d="M 97.5 420 L 102 422.5 L 99.5 421 L 94.5 424 L 97.5 420 Z " /><path fill="rgb(41,41,41)" stroke="rgb(41,41,41)" stroke-width="0.6" opacity="1" d="M 369.5 420 L 375 423.5 L 371.5 421 L 368.5 422 L 369.5 420 Z " /><path fill="rgb(83,84,70)" stroke="rgb(83,84,70)" stroke-width="0.6" opacity="1" d="M 128.5 171 L 122.5 178 L 128.5 171 Z " /><path fill="rgb(83,84,70)" stroke="rgb(83,84,70)" stroke-width="0.6" opacity="1" d="M 156.5 207 L 158 207.5 L 150.5 214 L 156.5 207 Z " /><path fill="rgb(111,118,118)" stroke="rgb(111,118,118)" stroke-width="0.6" opacity="1" d="M 290.5 245 L 296.5 252 L 290.5 245 Z " /><path fill="rgb(111,118,118)" stroke="rgb(111,118,118)" stroke-width="0.6" opacity="1" d="M 181.5 249 L 175.5 256 L 181.5 249 Z " /><path fill="rgb(230,230,230)" stroke="rgb(230,230,230)" stroke-width="0.6" opacity="1" d="M 375.5 130 L 381.5 137 L 375.5 130 Z " /><path fill="rgb(230,230,230)" stroke="rgb(230,230,230)" stroke-width="0.6" opacity="1" d="M 159.5 415 L 156 419.5 L 154.5 422 L 155 420.5 L 159.5 415 Z " /><path fill="rgb(230,230,230)" stroke="rgb(230,230,230)" stroke-width="0.6" opacity="1" d="M 97.5 421 L 102 423.5 L 99.5 422 L 95.5 424 L 97.5 421 Z " /><path fill="rgb(158,158,158)" stroke="rgb(158,158,158)" stroke-width="0.6" opacity="1" d="M 99.5 133 L 90.5 143 L 99.5 133 Z " /><path fill="rgb(206,174,49)" stroke="rgb(206,174,49)" stroke-width="0.6" opacity="1" d="M 369.5 410 L 364.5 416 L 369.5 410 Z " /><path fill="rgb(92,150,164)" stroke="rgb(92,150,164)" stroke-width="0.6" opacity="1" d="M 160.5 216 L 154.5 223 L 160.5 216 Z " /><path fill="rgb(144,144,49)" stroke="rgb(144,144,49)" stroke-width="0.6" opacity="1" d="M 437.5 414 L 431.5 421 L 437.5 414 Z " /></svg>