<svg width="627" height="627" preserveAspectRatio="xMidYMid meet" viewBox="0 0 512 512" version="1.1" xmlns="http://www.w3.org/2000/svg" ><path fill="rgb(255,255,255)" stroke="rgb(255,255,255)" stroke-width="0.6" opacity="1" d="M 0 0 L 512 0 L 512 512 L 0 512 L 0 0 Z M 357 38 Q 324 41 306 57 Q 285 73 276 100 L 274 101 L 274 95 L 271 85 L 261 67 L 254 60 L 242 60 L 229 66 L 220 77 L 221 88 Q 231 96 237 109 L 243 128 L 243 138 L 209 122 L 182 116 L 154 116 L 134 121 Q 112 128 97 141 Q 75 159 63 186 L 55 210 L 55 218 L 52 227 L 51 239 L 52 286 L 59 319 L 67 344 Q 87 396 122 435 Q 138 452 160 464 L 180 472 L 191 474 L 217 473 L 249 462 L 264 462 L 290 472 L 301 474 L 324 474 L 340 470 Q 359 462 374 450 Q 412 417 434 369 Q 446 344 453 315 L 459 286 L 461 259 Q 463 193 432 161 Q 418 144 396 137 L 394 135 L 405 126 Q 431 102 440 61 L 433 54 L 398 41 L 380 38 L 357 38 Z " /><path fill="rgb(211,57,54)" stroke="rgb(211,57,54)" stroke-width="0.6" opacity="1" d="M 153.5 128 L 184.5 128 L 200.5 131 Q 224.4 139.6 244 152.5 L 245 156.5 L 240.5 158 L 223.5 154 L 222 157.5 L 244.5 169 L 266.5 170 L 277.5 166 L 301.5 152 Q 307.7 149.2 317.5 150 L 326.5 151 L 329.5 150 L 338.5 152 L 360.5 150 L 375.5 144 L 381.5 144 Q 409.3 150.2 424 169.5 L 437 188.5 L 447 214.5 Q 452.2 237.8 450 268.5 L 448 271.5 L 447 290.5 L 440 321.5 L 424 364.5 Q 402.8 408.8 368.5 440 Q 356 451.5 338.5 458 L 324.5 462 L 299.5 462 L 263.5 450 L 248.5 450 L 215.5 462 L 186.5 462 L 164.5 454 Q 142.4 441.1 126 422.5 Q 99.8 392.7 83 353.5 L 69 313.5 L 69 305.5 L 65 294.5 L 64 279.5 L 62 274.5 L 63 268.5 Q 60.2 263.3 61 254.5 L 65 215.5 L 75 187.5 Q 84.6 166.1 101.5 152 Q 113.7 140.7 130.5 134 L 153.5 128 Z " /><path fill="rgb(211,57,54)" stroke="rgb(211,57,54)" stroke-width="0.6" opacity="1" d="M 279.5 139 Q 288.9 140.1 294 145.5 L 278.5 154 Q 274.8 151.8 277 143.5 L 279.5 139 Z " /><path fill="rgb(0,0,0)" stroke="rgb(0,0,0)" stroke-width="0.6" opacity="1" d="M 358.5 38 L 374.5 38 L 397.5 42 L 429.5 54 L 439 60.5 Q 429.7 105.2 399.5 129 L 392 134.5 L 393.5 137 Q 419.4 145.1 434 164.5 Q 448 181 455 204.5 L 460 228.5 L 460 254.5 L 461 256.5 L 460 257.5 L 460 270.5 L 458 273.5 L 458 286.5 L 451 319.5 L 433 368.5 Q 411.2 414.7 375.5 447 Q 360.2 460.7 339.5 469 L 324.5 473 L 305.5 474 L 288.5 471 L 263.5 461 L 248.5 461 L 217.5 472 L 195.5 474 L 178.5 471 L 154.5 460 Q 133.5 447 118 428.5 Q 86.6 392.4 68 343.5 L 59 315.5 L 53 286.5 Q 55.3 274.2 51 268.5 L 51 240.5 L 52 229.5 L 55 220.5 L 55 212.5 L 64 185.5 Q 75.3 160.8 94.5 144 Q 109.5 131 129.5 123 L 152.5 117 L 174.5 117 L 176.5 116 L 203.5 121 L 242.5 139 L 244 137.5 L 244 127.5 Q 238.5 100.5 221 85.5 L 221 76.5 L 227.5 68 L 243.5 60 L 251.5 60 L 260 66.5 L 270 84.5 L 274 102 L 277 100.5 Q 285.2 74.2 304.5 59 Q 324.4 41.4 358.5 38 Z M 360 48 Q 328 50 311 66 Q 289 84 281 116 Q 280 121 283 122 Q 320 85 387 77 Q 393 74 392 80 L 391 81 L 383 81 L 361 86 L 338 94 Q 315 103 298 117 L 285 131 L 289 133 L 312 140 L 336 142 L 354 141 L 369 137 Q 384 131 396 121 Q 420 100 429 65 L 415 57 L 388 49 L 360 48 Z M 246 69 L 235 74 L 230 80 L 231 86 L 243 101 L 250 118 L 254 138 L 254 161 L 256 162 L 266 161 L 268 155 L 267 107 Q 264 86 254 72 Q 252 68 246 69 Z M 155 127 Q 122 133 102 151 Q 84 166 74 188 L 64 218 L 61 248 L 63 289 L 69 310 L 69 316 L 79 346 Q 96 389 124 422 Q 139 439 159 451 Q 170 460 188 463 L 215 463 L 248 451 L 264 451 L 300 463 L 324 463 L 342 458 Q 357 451 369 441 Q 405 409 426 362 L 441 321 L 448 290 L 450 270 Q 452 240 448 216 L 437 187 L 422 166 Q 407 149 382 143 L 376 143 Q 365 149 350 151 L 318 150 L 317 149 L 302 151 L 272 168 L 263 170 L 245 168 L 225 159 Q 220 157 224 155 L 237 158 L 244 158 L 245 153 Q 225 138 200 130 L 185 127 L 155 127 Z M 279 139 L 276 145 Q 274 153 278 155 L 294 147 L 295 145 L 284 139 L 279 139 Z " /><path fill="rgb(77,145,67)" stroke="rgb(77,145,67)" stroke-width="0.6" opacity="1" d="M 360.5 48 L 374.5 48 L 397.5 52 L 428 63 Q 419.7 100.9 393.5 122 L 369.5 136 Q 355.5 141.5 336.5 142 L 314.5 140 L 286 130.5 L 299.5 116 Q 315.9 103.4 336.5 95 L 362.5 86 L 391.5 81 L 393 79.5 Q 394.1 76.2 391.5 77 L 387.5 76 L 384.5 78 L 373.5 78 L 358.5 81 L 323.5 93 Q 299.9 104.8 282 121 L 283 109.5 L 290 92.5 Q 298.5 76 312.5 65 Q 330.8 50.8 360.5 48 Z " /><path fill="rgb(119,79,45)" stroke="rgb(119,79,45)" stroke-width="0.6" opacity="1" d="M 246.5 69 Q 252.7 68.3 254 72.5 Q 262.6 84.9 266 102.5 L 268 118.5 L 268 152.5 L 264.5 161 Q 256.3 163.3 254 159.5 L 254 135.5 L 250 116.5 Q 243.6 96.4 230 83.5 L 230 79.5 Q 235.7 71.7 246.5 69 Z " /><path fill="rgb(31,31,31)" stroke="rgb(31,31,31)" stroke-width="0.6" opacity="1" d="M 221.5 86 L 226.5 92 L 221.5 86 Z " /><path fill="rgb(31,31,31)" stroke="rgb(31,31,31)" stroke-width="0.6" opacity="1" d="M 410.5 118 L 405.5 124 L 410.5 118 Z " /><path fill="rgb(31,31,31)" stroke="rgb(31,31,31)" stroke-width="0.6" opacity="1" d="M 424.5 154 L 430.5 161 L 424.5 154 Z " /><path fill="rgb(124,56,50)" stroke="rgb(124,56,50)" stroke-width="0.6" opacity="1" d="M 156.5 127 L 183 127.5 L 156.5 128 L 156.5 127 Z " /><path fill="rgb(124,56,50)" stroke="rgb(124,56,50)" stroke-width="0.6" opacity="1" d="M 127.5 424 L 135.5 433 L 127.5 424 Z " /><path fill="rgb(124,56,50)" stroke="rgb(124,56,50)" stroke-width="0.6" opacity="1" d="M 381.5 427 L 371.5 438 L 381.5 427 Z " /><path fill="rgb(124,56,50)" stroke="rgb(124,56,50)" stroke-width="0.6" opacity="1" d="M 248.5 450 L 264 450.5 L 248.5 451 L 248.5 450 Z " /><path fill="rgb(124,56,50)" stroke="rgb(124,56,50)" stroke-width="0.6" opacity="1" d="M 189.5 462 L 213 462.5 L 189.5 463 L 189.5 462 Z " /><path fill="rgb(124,56,50)" stroke="rgb(124,56,50)" stroke-width="0.6" opacity="1" d="M 300.5 462 L 323 462.5 L 300.5 463 L 300.5 462 Z " /><path fill="rgb(181,56,53)" stroke="rgb(181,56,53)" stroke-width="0.6" opacity="1" d="M 414.5 159 L 422.5 168 L 414.5 159 Z " /><path fill="rgb(237,237,237)" stroke="rgb(237,237,237)" stroke-width="0.6" opacity="1" d="M 411.5 118 L 404.5 126 L 411.5 118 Z " /><path fill="rgb(237,237,237)" stroke="rgb(237,237,237)" stroke-width="0.6" opacity="1" d="M 122.5 434 L 130.5 443 L 122.5 434 Z " /><path fill="rgb(81,85,79)" stroke="rgb(81,85,79)" stroke-width="0.6" opacity="1" d="M 300.5 62 L 295.5 68 L 300.5 62 Z " /><path fill="rgb(113,113,113)" stroke="rgb(113,113,113)" stroke-width="0.6" opacity="1" d="M 387.5 435 L 381.5 442 L 387.5 435 Z " /><path fill="rgb(212,212,212)" stroke="rgb(212,212,212)" stroke-width="0.6" opacity="1" d="M 425.5 154 L 430.5 160 L 425.5 154 Z " /><path fill="rgb(148,148,148)" stroke="rgb(148,148,148)" stroke-width="0.6" opacity="1" d="M 91.5 146 L 86.5 152 L 91.5 146 Z " /><path fill="rgb(74,122,65)" stroke="rgb(74,122,65)" stroke-width="0.6" opacity="1" d="M 323.5 93 L 325 93.5 L 316.5 98 L 317.5 96 L 323.5 93 Z " /><path fill="rgb(74,122,65)" stroke="rgb(74,122,65)" stroke-width="0.6" opacity="1" d="M 294.5 120 L 286 129.5 L 287 131.5 L 285 130.5 L 294.5 120 Z " /></svg>