<svg width="627" height="627" preserveAspectRatio="xMidYMid meet" viewBox="0 0 512 512" version="1.1" xmlns="http://www.w3.org/2000/svg" ><path fill="rgb(255,255,255)" stroke="rgb(255,255,255)" stroke-width="0.6" opacity="1" d="M 0 0 L 512 0 L 512 512 L 0 512 L 0 0 Z M 215 23 L 203 29 L 194 41 L 195 49 L 198 50 Q 216 64 220 93 L 201 99 L 189 107 Q 173 120 165 141 L 160 157 L 155 186 L 147 206 L 138 220 L 112 250 L 93 284 L 86 305 L 82 325 L 82 368 L 86 387 Q 94 415 111 435 Q 132 461 166 475 L 204 486 L 240 489 L 275 488 L 307 481 Q 338 471 360 452 Q 381 433 393 406 L 401 380 L 403 362 L 402 321 L 391 285 L 373 253 L 332 205 L 325 191 L 316 152 L 306 129 L 308 126 L 327 132 L 359 132 L 371 129 Q 396 121 414 104 Q 424 95 431 82 Q 432 74 427 72 Q 410 51 387 38 L 358 26 L 341 23 Q 296 21 275 42 Q 261 53 254 70 L 251 71 Q 249 47 237 32 L 228 23 L 215 23 Z " /><path fill="rgb(172,193,67)" stroke="rgb(172,193,67)" stroke-width="0.6" opacity="1" d="M 217.5 104 Q 224.7 101.7 222 109.5 Q 227.8 115.8 240.5 115 L 250.5 113 L 255 108.5 L 254 104 L 264.5 104 L 276.5 110 L 293 126.5 L 304 147.5 L 312 185.5 L 320 205.5 L 334.5 225 L 340 229.5 L 341.5 232 L 347 236.5 Q 368.9 262.1 384 294.5 L 390 313.5 L 394 346.5 L 391 377.5 L 382 405.5 Q 373.8 422.8 361.5 436 L 356 440.5 L 354.5 443 Q 336.2 459.7 310.5 469 L 269.5 478 L 241.5 479 L 201.5 475 L 171.5 466 Q 140.1 453.4 120 429.5 Q 105.5 412 97 388.5 L 92 363.5 L 92 329.5 L 96 307.5 L 104 289.5 L 105 283.5 L 121 255.5 L 147 225.5 L 156 211.5 L 164 192.5 L 169 163.5 L 176 141.5 Q 182.8 125.3 195.5 115 Q 204 107 217.5 104 Z " /><path fill="rgb(0,0,0)" stroke="rgb(0,0,0)" stroke-width="0.6" opacity="1" d="M 217.5 23 L 225.5 23 L 237 33.5 Q 248.4 49.8 251 74 L 253 72.5 Q 262.3 52.8 278.5 40 Q 299.4 21.4 341.5 24 Q 394.2 34.3 423 68.5 L 429 75.5 L 430 81.5 Q 422.3 96.3 409.5 106 Q 393.6 120.1 371.5 128 L 354.5 132 L 329.5 132 L 305 125 L 305 128.5 L 315 150.5 L 324 190.5 L 330 203.5 L 374 255.5 L 393 291.5 L 401 319.5 L 401 333.5 L 403 336.5 L 403 359.5 L 401 362.5 L 400 380.5 L 391 407.5 Q 380.8 429.8 364.5 446 Q 341.6 468.6 307.5 480 L 275.5 487 L 224.5 488 L 221.5 486 L 202.5 485 L 178.5 479 L 163.5 473 Q 133.9 459.6 114 436.5 Q 96.2 416.3 87 387.5 L 82 363.5 L 82 329.5 L 87 303.5 L 95 281.5 L 114 248.5 L 140 218.5 L 147 207.5 L 156 185.5 L 161 155.5 L 166 140.5 Q 174.9 118.4 192.5 105 L 205.5 98 L 221 93.5 Q 216.9 65.1 199.5 50 L 195 46.5 L 196 38.5 L 203.5 30 L 217.5 23 Z M 221 31 L 210 36 L 204 43 Q 216 54 223 70 L 230 92 L 230 103 L 233 106 L 243 106 L 244 105 L 244 84 L 242 67 Q 237 49 228 36 Q 226 31 221 31 Z M 317 33 Q 292 38 277 53 Q 267 63 261 77 L 263 79 L 286 70 L 307 66 L 336 66 L 338 68 L 346 68 L 366 73 L 378 78 L 379 81 L 358 75 L 332 72 L 299 73 Q 279 76 265 85 L 262 89 L 306 116 L 325 122 L 337 123 L 355 123 L 369 120 Q 387 114 401 103 L 420 83 L 418 77 Q 400 54 372 41 L 350 34 L 317 33 Z M 219 103 Q 205 106 196 114 Q 184 123 177 138 L 168 165 L 163 194 L 154 214 L 121 255 L 106 280 L 95 309 L 91 332 L 91 363 L 96 388 Q 105 411 119 430 Q 138 452 168 465 L 204 476 L 236 479 L 268 479 L 301 473 Q 333 463 356 443 Q 373 427 383 405 L 392 376 L 394 349 L 392 321 L 384 293 L 363 256 L 346 235 L 337 226 L 321 206 L 313 186 L 305 149 L 293 126 L 277 109 L 263 103 Q 255 101 253 105 L 254 109 L 249 113 L 242 114 L 229 113 L 223 109 L 224 105 Q 225 102 219 103 Z " /><path fill="rgb(77,145,67)" stroke="rgb(77,145,67)" stroke-width="0.6" opacity="1" d="M 319.5 33 L 346.5 34 L 370.5 41 Q 394.7 52.3 412 70.5 L 416.5 77 L 420 79.5 L 420 82.5 L 413.5 89 L 410 91.5 L 399.5 103 L 375.5 117 Q 361.1 123.1 340.5 123 L 338.5 122 L 336.5 122 L 322.5 121 L 304.5 115 L 263 88.5 L 265.5 85 Q 281.2 76.2 302.5 73 L 331.5 72 Q 358.5 74 379.5 82 Q 383.5 79.5 377.5 77 L 344.5 67 L 302.5 66 Q 296.7 69.7 286.5 69 L 262 78 Q 266.9 61.1 279.5 51 L 300.5 38 L 319.5 33 Z " /><path fill="rgb(77,145,67)" stroke="rgb(77,145,67)" stroke-width="0.6" opacity="1" d="M 91.5 335 L 92 358.5 L 91 358.5 L 91.5 335 Z " /><path fill="rgb(119,79,45)" stroke="rgb(119,79,45)" stroke-width="0.6" opacity="1" d="M 218.5 32 Q 224.5 30.5 226 33.5 Q 235.2 44.8 240 60.5 L 244 83.5 L 244 104.5 Q 241.8 108.3 233.5 106 L 231 103.5 L 230 90.5 L 222 66.5 L 204 42.5 Q 209.2 35.2 218.5 32 Z " /><path fill="rgb(23,23,23)" stroke="rgb(23,23,23)" stroke-width="0.6" opacity="1" d="M 187.5 109 L 181.5 116 L 187.5 109 Z " /><path fill="rgb(23,23,23)" stroke="rgb(23,23,23)" stroke-width="0.6" opacity="1" d="M 337.5 213 L 347.5 224 L 337.5 213 Z " /><path fill="rgb(23,23,23)" stroke="rgb(23,23,23)" stroke-width="0.6" opacity="1" d="M 337.5 226 L 345.5 235 L 337.5 226 Z " /><path fill="rgb(23,23,23)" stroke="rgb(23,23,23)" stroke-width="0.6" opacity="1" d="M 362.5 435 L 355.5 443 L 362.5 435 Z " /><path fill="rgb(72,74,65)" stroke="rgb(72,74,65)" stroke-width="0.6" opacity="1" d="M 117.5 440 L 123.5 447 L 117.5 440 Z " /><path fill="rgb(205,205,205)" stroke="rgb(205,205,205)" stroke-width="0.6" opacity="1" d="M 338.5 213 L 346.5 222 L 338.5 213 Z " /><path fill="rgb(205,205,205)" stroke="rgb(205,205,205)" stroke-width="0.6" opacity="1" d="M 369.5 441 L 361.5 450 L 369.5 441 Z " /><path fill="rgb(136,136,136)" stroke="rgb(136,136,136)" stroke-width="0.6" opacity="1" d="M 414.5 59 L 421.5 67 L 414.5 59 Z " /><path fill="rgb(128,129,65)" stroke="rgb(128,129,65)" stroke-width="0.6" opacity="1" d="M 277.5 110 L 291.5 125 L 277.5 110 Z " /></svg>