<svg width="627" height="627" preserveAspectRatio="xMidYMid meet" viewBox="0 0 512 512" version="1.1" xmlns="http://www.w3.org/2000/svg" ><path fill="rgb(254,254,254)" stroke="rgb(254,254,254)" stroke-width="0.6" opacity="1" d="M 0 0 L 512 0 L 512 512 L 0 512 L 0 0 Z M 269 51 L 263 54 Q 244 77 243 115 L 228 109 L 225 107 L 222 95 L 214 81 Q 199 61 171 56 Q 150 54 138 59 Q 134 61 135 67 Q 103 67 87 83 L 71 99 L 67 105 L 67 109 L 74 115 Q 51 135 45 174 L 46 198 L 50 201 L 56 202 L 87 202 L 105 200 L 123 195 L 141 186 L 142 191 Q 143 195 149 194 L 149 215 L 152 224 L 134 233 Q 118 244 115 267 Q 114 292 126 305 L 140 316 L 159 324 L 155 337 Q 154 361 165 373 Q 178 391 209 390 L 204 411 Q 204 430 213 442 Q 224 458 249 462 Q 269 462 281 453 Q 298 442 301 417 Q 302 406 299 400 L 301 397 L 316 403 Q 344 405 357 391 Q 368 381 371 362 L 370 345 L 365 329 Q 381 329 391 320 Q 404 310 408 291 Q 410 262 397 250 L 388 242 L 397 225 Q 400 218 399 208 L 401 206 L 417 209 L 462 207 L 468 203 Q 469 151 442 127 L 446 124 L 449 120 L 444 111 L 428 96 L 416 89 L 399 83 Q 404 81 403 73 L 392 67 L 372 64 L 361 64 L 344 67 Q 328 72 317 81 Q 301 92 294 113 Q 289 118 279 119 L 276 119 Q 277 107 281 100 L 289 85 L 300 70 Q 301 61 297 58 Q 288 49 269 51 Z " /><path fill="rgb(115,75,153)" stroke="rgb(115,75,153)" stroke-width="0.6" opacity="1" d="M 157.5 65 L 166.5 65 L 167 68 L 169.5 68 L 180.5 71 L 184 69 L 185.5 73 L 186.5 71 L 189 75 L 193.5 76 L 195 75.5 Q 194.3 82.3 199.5 83 L 204 86.5 L 205.5 88 L 207 93 L 211 96 L 211 100 L 215 100 L 215 102.5 L 216 105 L 214 103.5 L 211.5 102 L 206.5 104 L 203 103 L 201.5 101 L 196.5 100 L 189 101 Q 190.1 104.5 182.5 103 L 181 103.5 Q 181.9 100.5 177.5 102 L 174 103 L 172.5 106 L 168.5 105 L 165.5 107 L 162.5 106 Q 161.1 110 156 109 L 154.5 111 L 152.5 111 L 149 112 Q 150.3 115.7 144.5 114 L 141 115 Q 142.8 119.9 136.5 118 L 129 122 Q 130.5 125.7 127.5 125 L 122.5 126 L 120 128.5 L 120.5 130 Q 115 129 114 132.5 L 112.5 136 Q 105.3 134.8 104 139.5 L 102.5 141 L 94 149.5 L 94 152.5 L 98.5 156 Q 101.3 150.3 108 150 L 110 145 Q 115.5 146.3 117 142.5 L 118.5 138 L 121.5 139 L 123.5 135 Q 131.1 136.1 133 131.5 L 133.5 129 Q 135.3 132.8 137 129.5 Q 135.7 125.3 140.5 127 Q 142 123.5 143.5 126 L 145 125.5 L 144 123.5 L 147 123.5 L 148.5 125 L 153 122 L 153.5 120 L 156.5 121 L 166 117.5 L 167.5 115 L 169 117 L 172.5 117 L 175 116 L 176.5 113 L 182 115 Q 180.3 109.8 184 111 Q 183 114 186 113 L 187.5 111 L 189.5 111 L 196.5 110 L 207 111 L 206 115 L 212.5 118 L 215 118.5 L 216 131.5 L 213 136.5 L 214 139.5 L 211 141 L 211 145 Q 208 144 209 147 L 211 147.5 L 208 149 Q 209.9 153.8 206.5 153 L 202.5 152 L 199.5 153 L 194 152 L 195 154.5 L 193.5 154 Q 189.5 153.3 190.5 156 L 186 156 Q 187.1 152.7 183 154 Q 184.7 159.2 181 158 Q 182.3 155 178.5 156 L 171 160 Q 173.3 166 166.5 164 L 162.5 169 L 156 171.5 L 157 177.5 L 151.5 180 L 147 177.5 L 148 172 L 145 170.5 L 143.5 168 L 140.5 171 L 129 178 Q 130.7 182.1 126.5 181 L 124.5 181 Q 119.8 180.3 119 183.5 L 120 186 L 114 185 L 112.5 188 L 111 186 L 106.5 186 L 105 190 L 98 192 Q 99.3 188.7 94.5 190 L 92 189 L 93.5 191 L 93.5 192 L 85.5 191 L 73.5 192 L 73.5 190 L 68.5 189 L 63 190 Q 64.1 193.7 55.5 192 L 54 189 Q 57 190.3 56 186.5 L 57 178.5 L 56 176 Q 53 177.3 54 173.5 L 57.5 169 Q 60.5 169.5 59 162.5 L 61 157.5 L 60 155.5 L 63 154 L 65 147.5 L 64 145 L 67 143.5 L 70 136.5 L 69.5 135 L 74 134 L 83.5 122 L 87 119.5 Q 84 117.5 89 115.5 L 87.5 111 L 89 110.5 L 86.5 109 L 85 109.5 L 84.5 107 L 81.5 108 L 81 105.5 Q 80 100 83.5 99 L 90 95.5 L 91.5 93 L 96 90.5 L 97 87 L 100.5 88 L 101 85 L 104.5 86 L 109 83.5 L 108 81.5 L 110.5 83 L 114 80.5 L 115.5 79 Q 116.8 82 121 81 L 122.5 77 L 129.5 79 L 139.5 79 L 145.5 76 L 147.5 77 Q 151 75.7 150 71 L 155 67.5 L 154.5 66 L 157.5 65 Z " /><path fill="rgb(115,75,153)" stroke="rgb(115,75,153)" stroke-width="0.6" opacity="1" d="M 284.5 127 L 287.5 129 L 290 129.5 L 288 140.5 L 291 145.5 Q 288.5 147 292 148.5 L 290 150 L 288.5 146 Q 281 148 279 144.5 Q 280.5 140.1 277.5 141 L 276 135 L 279 133.5 Q 277.3 127.7 281 129 L 281.5 131 L 284.5 127 Z " /><path fill="rgb(115,75,153)" stroke="rgb(115,75,153)" stroke-width="0.6" opacity="1" d="M 340.5 169 L 349.5 172 L 352 171 Q 351 168 354 169 L 355.5 171 L 359.5 169 L 361.5 173 L 370.5 175 L 375 179.5 L 381.5 187 Q 384.8 185.9 384 188.5 L 384.5 191 L 386 192.5 L 385 196.5 L 386 199 L 388 200.5 L 387 201.5 L 387 215.5 L 389 221 L 385 220 L 383 225.5 L 384 228.5 Q 382 226.8 380 230.5 L 374.5 240 L 369.5 239 L 361 244.5 L 359.5 246 L 352 244 L 349 236.5 L 350 234.5 L 347.5 231 L 340 232 L 338.5 230 L 332 226.5 L 332 224.5 L 330.5 223 L 328 224 L 327.5 226 L 324 219 L 327 217.5 L 327.5 215 Q 330.5 215.9 329 211.5 L 331 205.5 L 330 198.5 L 332 198.5 L 333 194.5 L 331.5 192 L 330 192.5 L 331 185.5 L 327 182.5 Q 330 180.3 329 175 L 338 173 L 340.5 169 Z " /><path fill="rgb(115,75,153)" stroke="rgb(115,75,153)" stroke-width="0.6" opacity="1" d="M 378.5 248 L 380 248.5 L 379 251 L 388 256 L 389.5 258 L 392 259.5 Q 387.5 262 393 264.5 L 394.5 266 L 396 268.5 L 395 274.5 L 396 277 Q 399 275.8 398 279.5 L 399 284.5 L 398 287 L 395 288.5 L 396 294.5 L 393 296 L 394 301 L 390 303.5 L 381.5 314 Q 378.5 313.2 380 317 L 377 317 L 376.5 315 L 375 318 L 371.5 317 L 369 318 Q 370.3 321 366.5 320 L 359.5 319 L 355 320 L 353.5 318 L 351 317 Q 352.3 314 348.5 315 L 349 313.5 L 347 307.5 L 351 303.5 L 350 302.5 L 351.5 301 L 354 300.5 L 355 298.5 L 354 295 L 357 293.5 L 356 291 L 359 289.5 L 357 286.5 L 361 283.5 L 360 278 Q 363 279.3 362 275.5 L 361 273 Q 365 274.2 363 268 L 360 266.5 Q 359.3 262.5 362 263.5 L 362 259.5 L 364 255 L 367 255 Q 366 258 369 257 Q 367.7 253.7 372.5 255 L 378 251.5 L 377 249.5 L 378.5 248 Z " /><path fill="rgb(115,75,153)" stroke="rgb(115,75,153)" stroke-width="0.6" opacity="1" d="M 193 306 L 202.5 307 L 204.5 306 L 204 307.5 L 206.5 313 Q 211.9 311.1 211 314.5 L 214.5 316 L 216 315.5 L 218.5 319 L 225.5 321 L 229.5 320 L 231 323 L 236 324.5 L 240.5 330 L 242 329.5 L 241 343.5 L 239 347.5 L 240 350.5 L 239 353 L 242 353.5 L 237 357 L 233.5 364 L 230.5 366 L 224 370.5 L 219.5 377 Q 218 374.5 216.5 378 L 211 377 L 211 380 L 205 380 Q 206.1 376.7 202 378 Q 203.1 381.5 195.5 380 L 193.5 376 L 189.5 374 L 184.5 375 L 181 374 L 179 366 L 170 363 L 171 359.5 L 170 356.5 L 171 354.5 L 166 351.5 L 167 337.5 L 165 332.5 L 166.5 330 L 167 332 Q 170.3 333.1 169 329 L 167 328.5 L 168.5 326 L 171 325.5 L 170 323 L 175 320.5 Q 173.8 315.3 176.5 314 Q 182.6 315.3 182 312.5 L 183.5 310 L 185.5 310 L 188.5 308 L 191.5 309 L 193 306 Z " /><path fill="rgb(115,75,153)" stroke="rgb(115,75,153)" stroke-width="0.6" opacity="1" d="M 246.5 373 L 252 374 L 253.5 376 L 256 375.5 L 256 374 L 261 374 L 262.5 378 L 268 376 L 269.5 379 L 272.5 377 L 276.5 383 L 278 382.5 L 277.5 381 L 282.5 387 L 281 386.5 L 282.5 390 Q 286.9 388.5 286 391.5 L 285.5 395 L 288 396.5 L 287 398.5 L 289 401.5 L 288 405 L 290 405.5 L 287 423.5 L 289 426.5 L 288 429 Q 283.9 427.3 285 431.5 L 281 436.5 L 282 440 L 278.5 440 L 270 446.5 L 269.5 448 L 266 447 L 264.5 450 L 260.5 448 L 258 449 L 256.5 452 L 248.5 452 L 248 450.5 Q 245.1 446.4 238.5 446 L 236 447.5 L 234.5 445 L 231.5 446 L 230 442 L 227 440.5 L 224.5 434 L 220 433 L 218 423.5 L 219 419.5 L 217 416 L 215 416 L 215 410 Q 219 411.4 217 404.5 L 216 401.5 L 219 397.5 L 218 395 Q 222.1 396.7 221 392.5 L 226 385 L 230 384 L 232.5 380 L 235 379.5 L 235.5 378 L 239 379 L 238 376.5 L 242 375 Q 240.9 378.3 245 377 L 246.5 373 Z " /><path fill="rgb(5,5,4)" stroke="rgb(5,5,4)" stroke-width="0.6" opacity="1" d="M 268.5 52 Q 290.2 49.3 298 60.5 L 299 69.5 L 280 98.5 L 275 114.5 L 275 121 L 290.5 117 L 295 113.5 Q 301.2 94.2 315.5 83 Q 333.5 66 367.5 65 L 390.5 68 L 401 72.5 L 402 76.5 L 397 83.5 L 412.5 89 L 425.5 96 L 445 113.5 Q 447.8 115.2 447 120.5 L 441 125.5 L 454 143.5 L 461 158.5 L 467 185.5 L 467 202.5 L 464.5 205 L 422.5 208 L 399.5 205 L 398 206.5 Q 399 219 395 226.5 L 386 241.5 L 398 252.5 Q 408.6 264.4 407 288.5 Q 403.9 306.9 392.5 317 L 382.5 324 L 363 329.5 Q 370.3 340.7 370 359.5 Q 367.1 382.1 352.5 393 Q 341.3 403.8 317.5 402 Q 306 400.5 298.5 395 L 298 397.5 L 300 414.5 Q 297.2 439.2 281.5 451 Q 273.6 457.6 261.5 460 L 243.5 460 Q 225 455.5 215 442.5 L 207 426.5 L 206 404.5 L 211 389.5 L 208.5 389 Q 196.1 389.9 187.5 387 Q 175.5 383 168 374.5 Q 155 363 156 337.5 L 158 327.5 L 161 322.5 L 141.5 316 L 128 305.5 Q 115.6 293.4 116 268.5 Q 118.7 247.2 131.5 236 Q 140.1 228.1 153 224.5 Q 148.4 213.6 150 196.5 L 151 194.5 L 143 190.5 L 140.5 184 Q 125.8 194.8 104.5 199 L 84.5 201 L 56.5 201 L 49 200 L 47 196.5 L 46 176.5 Q 49.9 138.9 71.5 119 L 76 115.5 L 73.5 112 L 68 107.5 Q 73.4 92.9 85.5 85 L 105.5 73 L 118.5 69 L 135.5 68 L 137 66.5 L 136 62.5 L 139.5 59 L 144.5 58 L 168.5 57 Q 196.6 60.9 211 78.5 L 219 90.5 L 224 107.5 L 226.5 110 L 242.5 117 L 245 113.5 L 245 101.5 L 251 77.5 Q 255.6 62.6 265.5 53 L 268.5 52 Z M 274 58 L 270 59 Q 262 65 259 76 L 251 107 L 251 139 L 255 156 L 259 156 L 269 151 L 268 146 L 268 116 L 271 104 Q 278 82 292 69 L 292 65 Q 287 57 274 58 Z M 159 63 L 149 64 L 145 67 L 148 72 L 147 76 L 144 75 L 119 76 Q 101 80 90 91 L 77 106 L 87 113 L 88 115 L 85 117 Q 59 136 53 176 L 53 191 L 56 194 Q 85 196 109 191 Q 129 186 142 173 L 146 174 Q 145 182 150 186 L 154 185 L 161 174 Q 175 156 207 156 Q 215 147 218 134 L 219 116 L 216 112 L 207 110 Q 184 108 168 113 Q 136 122 114 140 L 112 142 L 100 151 L 98 151 Q 115 133 137 121 Q 158 109 187 105 Q 203 103 215 107 L 217 106 Q 214 93 207 85 Q 192 64 159 63 Z M 361 72 Q 334 75 320 89 Q 308 98 302 113 L 304 115 L 313 114 Q 342 113 362 122 Q 383 131 400 145 L 403 150 L 409 153 L 410 156 L 414 160 Q 393 142 367 129 L 344 121 L 331 119 Q 310 116 299 123 Q 297 139 303 149 Q 309 161 321 169 Q 331 162 346 160 Q 367 159 379 169 Q 392 177 396 196 L 404 199 L 416 201 L 459 199 L 460 198 Q 460 158 441 138 L 432 129 L 428 125 L 439 118 Q 429 106 416 98 L 387 89 L 387 86 L 393 78 Q 381 71 361 72 Z M 227 117 L 225 119 Q 226 132 223 141 L 215 157 L 230 164 L 240 172 L 250 161 Q 244 148 245 128 Q 239 119 227 117 Z M 288 124 L 274 131 Q 273 142 276 150 L 278 151 L 297 152 L 292 131 L 293 126 L 288 124 Z M 275 157 Q 262 159 255 166 Q 243 174 240 192 Q 239 211 248 221 L 254 226 L 270 235 L 279 237 Q 298 237 308 227 Q 319 218 322 200 Q 323 182 315 174 Q 308 164 296 159 Q 287 156 275 157 Z M 193 163 Q 180 165 173 172 Q 161 180 157 197 L 157 214 L 165 230 Q 172 238 183 243 Q 188 246 199 245 L 203 240 L 222 227 L 240 224 L 241 223 Q 234 213 233 199 L 234 188 L 236 183 L 235 179 Q 224 161 193 163 Z M 343 167 Q 330 169 324 177 L 328 190 L 327 209 L 320 226 Q 335 227 344 236 L 355 249 Q 367 248 375 242 Q 387 233 391 216 Q 393 192 382 182 Q 371 165 343 167 Z M 156 231 Q 144 234 137 241 Q 125 250 123 269 Q 123 286 130 297 Q 140 311 161 315 L 165 315 L 178 303 L 197 296 Q 192 287 191 275 L 194 254 L 192 251 Q 179 250 172 245 L 156 231 Z M 232 231 L 227 232 L 213 240 Q 202 248 198 264 Q 196 285 205 296 Q 214 308 231 312 L 248 312 L 264 304 Q 275 295 279 278 Q 281 256 271 246 Q 264 236 252 232 L 232 231 Z M 312 232 L 300 240 L 289 243 L 281 243 L 279 245 Q 285 253 286 267 Q 287 283 281 294 L 298 298 L 306 302 L 317 312 Q 329 311 337 304 Q 349 295 352 277 Q 353 255 343 246 Q 336 237 325 233 L 312 232 Z M 379 247 L 369 253 Q 361 253 357 257 L 358 262 Q 361 290 348 303 L 342 308 L 339 312 L 343 315 L 358 322 Q 377 323 387 313 Q 396 304 400 290 Q 402 269 394 259 Q 390 249 379 247 Z M 280 301 L 276 302 L 261 314 L 248 318 L 251 331 Q 254 352 246 364 L 248 365 L 262 365 L 272 368 L 288 379 L 301 374 Q 315 365 318 344 Q 319 327 312 318 Q 303 302 280 301 Z M 196 303 L 180 310 Q 167 319 163 337 L 163 349 L 170 366 Q 179 378 196 382 Q 209 384 217 380 L 234 369 Q 242 361 245 347 Q 247 330 241 322 L 239 319 Q 227 319 219 315 L 203 303 L 196 303 Z M 331 315 L 321 320 L 325 335 Q 326 357 316 369 L 297 385 Q 305 394 322 396 Q 339 396 348 388 Q 360 379 363 361 Q 364 338 353 329 L 331 315 Z M 253 371 Q 235 373 226 382 Q 214 391 212 410 Q 212 429 221 439 Q 230 450 248 454 Q 267 455 277 446 Q 289 436 293 418 Q 294 397 285 387 Q 275 372 253 371 Z " /><path fill="rgb(74,137,69)" stroke="rgb(74,137,69)" stroke-width="0.6" opacity="1" d="M 273.5 59 L 288 61.5 L 286 62.5 L 290 64.5 L 291 68.5 L 285.5 75 Q 282.2 73.9 283 76.5 L 285 76.5 L 273 94.5 L 273 96.5 L 270.5 103 L 269.5 101 L 269 104.5 L 270 106.5 L 269 111 L 267 111.5 L 268 117.5 L 267 118.5 L 267 142.5 L 268 148.5 L 266.5 152 L 264.5 153 L 261.5 152 L 257.5 156 L 255 153.5 L 256 150.5 L 254 150 L 255 146.5 L 253 146 L 253.5 142 L 255 142.5 L 255 140 L 253 138.5 L 252 133.5 L 252 131.5 L 251 123.5 L 252 122.5 L 252 107.5 L 254 103.5 L 253 99 L 255 98.5 L 254 95 L 256 94.5 L 255 90.5 L 257 84 L 259 83.5 L 258 80 L 260 79.5 L 259 77.5 L 261 72 L 263 71.5 L 263 69.5 L 267.5 62 L 269 60 L 272.5 60 L 273.5 59 Z M 272 64 L 270 66 L 272 70 L 277 72 L 279 72 L 281 73 L 283 73 Q 280 68 274 67 L 272 64 Z M 264 77 L 264 79 Q 267 81 262 83 L 265 83 Q 267 82 266 86 L 271 89 L 272 88 L 275 86 L 274 83 L 270 85 Q 266 83 270 82 L 264 77 Z M 261 93 L 258 96 Q 257 100 261 101 L 264 100 L 264 103 L 260 111 L 263 114 L 268 99 L 262 97 L 261 93 Z " /><path fill="rgb(74,137,69)" stroke="rgb(74,137,69)" stroke-width="0.6" opacity="1" d="M 360.5 73 Q 372 71.5 378.5 75 L 383 74 L 383.5 76 L 387.5 75 L 387.5 77 L 390.5 76 L 390.5 78 L 392 78.5 L 389 80 L 387.5 84 Q 384.1 83.1 386 88.5 Q 387.7 92.3 394 91.5 L 393.5 93 L 398.5 92 L 409 96 L 409 98 Q 413.8 96.1 413 99.5 L 416.5 102 L 418.5 102 L 423.5 104 L 438 117.5 L 431.5 122 L 430.5 121 L 427 124.5 L 430.5 129 L 440 137.5 L 444 145 L 446 146.5 Q 449.5 148 447 149.5 L 447.5 152 L 450 152.5 L 451 154.5 L 450.5 156 L 452 157.5 L 457 175 L 455 175.5 L 457 176 Q 460.3 183.4 459 196.5 L 455.5 198 L 453.5 197 L 444.5 199 L 414.5 200 L 398.5 197 L 397 195.5 L 398.5 196 L 400 195.5 L 396.5 189 L 395 189.5 L 389 179.5 L 389.5 178 Q 381.4 167 368 163 L 367.5 161 L 365.5 162 Q 356.4 158.1 341.5 160 L 336.5 162 L 336.5 160 L 331 161.5 L 333 162.5 L 322.5 168 L 322 166 L 319.5 167 L 317 162.5 L 315.5 160 L 312.5 160 L 307 154.5 L 307.5 153 L 306 151.5 Q 298 141.6 300 123 Q 303 124 302 121 L 306.5 121 L 313.5 120 L 323.5 121 L 333.5 120 L 348 123 L 349.5 125 L 351.5 125 L 359 127 L 359.5 129 L 362.5 128 Q 385.2 137.8 403 152.5 L 402 155 L 404.5 154 L 406 157 L 408.5 157 L 414.5 162 L 416 160.5 L 412 156.5 L 407.5 151 L 386 135 Q 387.3 132 383.5 133 L 376 129 L 374.5 126 L 369.5 124 L 367.5 124 L 363 122.5 L 365 121.5 L 358.5 119 L 355.5 120 L 353 118.5 L 353.5 117 L 351.5 118 L 345.5 115 L 340.5 116 L 332.5 113 L 328.5 114 L 326.5 113 L 325 113.5 L 324.5 111 L 313 112 Q 314.1 115.5 306.5 114 L 303 111.5 L 307 104 Q 310 105.3 309 101.5 L 320.5 89 L 324 88 L 325.5 85 L 334.5 80 L 336.5 81 Q 340.9 75.4 350.5 75 L 352 75.5 Q 351.2 72.9 354.5 74 L 356.5 75 L 360.5 73 Z M 381 79 L 378 83 L 381 82 L 384 83 L 385 81 L 381 79 Z M 337 83 L 337 86 L 341 85 L 346 87 L 346 86 Q 344 81 337 83 Z M 330 87 Q 325 89 329 91 L 332 90 L 334 99 L 340 101 L 337 97 L 340 96 L 342 96 Q 344 90 339 92 L 339 94 L 336 89 L 330 87 Z M 383 90 L 379 93 L 381 93 L 382 97 L 383 98 L 377 96 Q 375 100 379 99 L 380 103 L 386 101 L 387 94 L 383 90 Z M 396 97 L 394 99 L 398 103 L 399 102 Q 397 100 400 99 Q 401 95 396 97 Z M 412 101 L 410 106 L 410 108 Q 409 110 413 109 L 412 107 L 414 103 L 412 101 Z M 389 107 L 383 111 L 385 113 L 392 109 L 389 107 Z M 354 109 L 351 113 L 356 114 L 357 115 L 356 113 L 359 111 Q 360 107 354 109 Z M 397 116 L 395 118 Q 394 124 397 123 L 398 125 Q 394 126 395 123 L 393 124 L 391 126 Q 395 125 397 128 L 404 126 L 405 127 L 404 123 L 407 121 L 404 120 L 401 124 L 397 116 Z M 413 119 L 411 120 L 411 122 L 408 123 L 409 125 L 416 123 L 413 122 L 413 119 Z M 315 123 L 313 125 L 314 127 L 313 130 L 319 129 L 319 132 L 318 135 L 320 141 L 324 142 L 322 139 L 323 129 Q 321 124 315 123 Z M 331 126 L 333 133 L 337 134 L 336 132 L 334 128 Q 337 127 336 130 Q 340 131 339 129 Q 337 125 331 126 Z M 383 126 L 384 130 L 388 128 L 394 130 L 391 126 L 386 127 L 383 126 Z M 427 130 L 422 135 Q 421 138 425 136 L 427 133 L 430 135 L 431 136 L 427 130 Z M 415 132 L 410 134 L 406 140 L 411 142 L 414 135 L 420 138 Q 423 139 422 136 L 415 132 Z M 366 135 L 365 139 L 360 138 L 361 140 L 369 140 L 370 137 L 368 135 L 366 135 Z M 306 136 Q 304 143 308 145 L 314 144 Q 317 142 312 140 L 314 138 L 314 136 L 306 136 Z M 425 137 L 424 138 Q 421 137 422 141 L 425 142 L 427 145 L 429 144 L 430 140 L 425 137 Z M 324 142 L 324 148 L 330 154 L 330 153 L 334 150 L 333 154 Q 328 153 330 158 L 331 160 L 337 157 L 336 154 L 338 149 L 333 148 L 330 148 Q 331 144 329 145 L 326 145 Q 327 141 324 142 Z M 372 145 Q 374 149 371 148 L 370 151 L 368 149 L 364 151 L 365 153 Q 364 156 368 154 L 368 156 L 373 156 L 373 154 L 375 151 L 374 153 L 376 154 L 378 149 L 383 148 Q 387 149 386 147 L 384 146 L 379 145 L 376 146 L 372 145 Z M 421 146 L 419 151 L 422 152 L 422 151 L 425 149 Q 427 144 421 146 Z M 443 150 L 441 152 L 444 156 L 441 162 L 441 164 L 442 166 Q 445 164 445 158 L 448 159 Q 449 156 446 157 L 446 156 L 444 152 L 443 150 Z M 436 152 L 437 155 L 436 160 L 431 159 L 429 162 L 439 164 L 440 154 L 436 152 Z M 360 154 L 360 156 L 365 158 L 368 157 Q 366 153 360 154 Z M 399 157 L 399 160 L 402 161 L 400 165 L 402 166 Q 401 162 404 163 L 402 167 Q 401 172 406 173 L 407 173 L 405 169 L 407 165 L 406 161 L 399 157 Z M 380 160 L 378 164 L 382 166 L 390 163 L 386 160 L 380 160 Z M 424 162 L 422 165 L 430 168 L 431 167 L 424 162 Z M 397 170 L 395 171 L 394 174 L 393 171 L 390 173 L 395 180 L 399 178 L 398 175 L 399 172 Q 400 169 397 170 Z M 450 170 L 448 175 L 444 174 Q 442 179 447 178 L 449 177 L 448 179 L 450 181 L 451 178 L 454 177 L 452 173 Q 453 169 450 170 Z M 441 178 L 440 181 L 438 180 L 435 182 L 436 184 L 436 187 Q 433 186 434 189 L 432 190 L 429 189 Q 425 188 426 191 L 436 193 L 438 193 L 440 192 Q 438 185 446 188 L 448 185 L 447 182 L 445 183 L 442 182 L 443 180 Q 444 177 441 178 Z " /><path fill="rgb(74,137,69)" stroke="rgb(74,137,69)" stroke-width="0.6" opacity="1" d="M 274.5 158 L 282.5 160 L 288.5 158 Q 290 161.5 291.5 159 L 300 162.5 L 301.5 164 Q 303 161.5 304.5 165 L 308 167.5 L 310.5 171 L 313 172.5 L 319 182.5 L 321 191.5 L 321 200.5 Q 318.3 216.3 308.5 225 L 298.5 232 L 296.5 231 L 296.5 233 Q 289 237 276.5 236 L 260 229 L 259.5 227 L 257.5 227 L 249 220.5 L 244 211.5 L 244.5 210 L 243 208.5 L 241 199.5 L 242 194.5 L 241 191 L 243 190.5 L 241 189.5 L 244.5 180 L 246 180.5 L 245 178.5 L 250.5 171 L 253 169.5 L 256.5 165 L 261 164 L 261.5 162 Q 263 164.5 264.5 161 L 274.5 158 Z M 278 161 L 276 163 Q 278 166 286 164 L 285 163 Q 285 159 278 161 Z M 295 165 L 286 169 L 289 172 Q 290 168 298 170 L 300 168 L 298 167 L 295 165 Z M 307 172 L 303 177 Q 304 180 301 179 L 300 182 L 302 186 L 306 184 Q 304 177 311 179 L 312 178 L 308 174 L 307 172 Z M 283 173 L 281 179 L 284 180 L 286 176 Q 287 171 283 173 Z M 304 192 L 304 194 L 305 196 Q 307 195 306 199 Q 308 202 309 199 L 308 197 L 310 194 L 308 195 L 307 194 L 304 192 Z M 272 193 L 265 196 L 269 198 L 270 196 L 273 196 L 272 193 Z M 253 199 L 248 207 L 248 211 Q 250 214 251 211 L 250 207 Q 253 206 252 209 L 258 207 L 257 204 L 255 205 Q 256 208 252 206 Q 250 202 254 203 L 255 201 L 253 199 Z M 307 203 L 307 205 L 310 206 L 311 211 Q 313 214 314 211 L 313 205 L 311 204 L 310 204 L 307 203 Z M 261 216 L 261 220 L 257 222 L 262 224 L 266 218 L 266 216 L 261 216 Z M 290 216 L 287 221 L 288 224 L 290 225 L 290 216 Z M 270 217 L 270 219 L 277 223 L 278 221 Q 276 216 270 217 Z M 275 223 L 272 224 L 271 230 L 276 227 L 275 223 Z M 288 225 L 284 232 L 290 230 Q 296 228 292 225 L 288 227 L 288 225 Z " /><path fill="rgb(74,137,69)" stroke="rgb(74,137,69)" stroke-width="0.6" opacity="1" d="M 154.5 232 L 158 232.5 L 154 233.5 L 158.5 234 L 175.5 248 L 188.5 253 L 190.5 252 L 194 254.5 L 191 261.5 L 190 274.5 L 195 293.5 L 192.5 297 L 185.5 299 L 183.5 298 L 178 301.5 L 176.5 304 L 170 307.5 L 167.5 311 L 164.5 313 L 159 314 Q 160.3 311 156.5 312 L 154.5 311 L 151.5 312 L 146 308.5 L 145.5 307 L 143.5 308 L 139 304.5 L 137.5 303 L 129 293.5 L 130 291.5 L 128 291.5 L 129 289.5 L 127 289 L 125 280.5 L 125.5 279 L 124 278.5 L 124 266 L 126 264.5 L 125 261.5 L 133.5 245 L 134.5 246 L 139 241.5 L 138.5 240 L 141.5 238 L 143 238.5 L 144.5 236 L 146.5 235 Q 148 237.5 149.5 234 L 154.5 232 Z M 152 237 L 150 242 L 154 241 L 158 242 L 159 240 L 152 237 Z M 141 244 L 136 249 Q 135 257 138 260 L 142 259 Q 141 255 144 256 L 146 249 L 142 247 L 143 250 L 141 254 L 138 253 L 139 247 L 142 246 L 141 244 Z M 167 248 L 165 251 L 163 251 L 164 253 L 164 254 L 169 254 L 169 256 L 164 258 L 166 260 L 173 259 L 172 256 L 174 251 L 171 253 Q 167 254 168 252 L 168 250 L 171 251 L 171 249 L 167 248 Z M 144 261 L 144 264 L 149 265 L 148 267 L 151 267 L 157 268 L 158 264 L 150 265 L 151 263 L 151 261 L 144 261 Z M 184 261 L 183 266 L 181 265 L 179 268 L 181 267 Q 183 266 182 270 L 186 267 Q 188 260 184 261 Z M 130 262 L 127 271 L 128 274 Q 127 277 130 276 L 132 271 L 134 269 L 132 267 Q 134 261 130 262 Z M 134 279 L 133 282 L 131 285 L 132 290 L 136 288 L 138 286 L 139 283 L 137 282 L 136 285 L 134 284 L 136 282 Q 138 278 134 279 Z M 150 293 L 148 295 L 150 300 L 153 299 L 150 293 Z M 145 298 L 142 302 L 147 305 Q 149 306 148 303 L 146 301 L 146 300 L 145 298 Z M 166 301 L 163 304 L 164 309 L 166 308 L 169 303 L 166 301 Z " /><path fill="rgb(74,137,69)" stroke="rgb(74,137,69)" stroke-width="0.6" opacity="1" d="M 285.5 302 L 294 304 L 294.5 306 L 296 305.5 L 295.5 307 L 298.5 308 Q 300 305.5 301.5 309 L 305 311.5 L 307.5 315 L 311 317.5 L 317 331.5 L 317 336 L 315 337.5 Q 318.8 339.3 317 346.5 L 314 357 L 312 357.5 L 312 359.5 L 307.5 366 Q 304.2 364.9 305 367.5 L 300.5 373 L 297.5 375 L 295.5 374 L 295.5 376 L 287.5 378 L 271.5 367 L 265 366 L 264.5 364 L 259.5 365 L 248.5 364 L 247 364.5 L 248 361.5 L 253 346.5 L 252 334.5 L 252 332.5 L 249 323.5 L 251 323.5 L 250 320.5 L 250.5 319 L 249 318.5 L 262 315 L 262.5 313 L 264 313.5 L 265.5 312 Q 268.8 307 275 306 L 275 304 L 284.5 304 L 285.5 302 Z M 269 314 L 265 319 L 266 320 L 268 319 L 269 316 Q 274 315 276 318 L 279 317 L 279 314 L 269 314 Z M 301 315 L 298 316 L 299 319 L 298 323 L 294 326 L 302 326 L 302 317 L 301 315 Z M 256 323 L 254 326 L 257 327 L 256 334 L 261 333 L 258 331 L 260 325 L 256 323 Z M 302 336 L 300 338 L 301 340 L 305 338 L 306 341 Q 308 344 310 340 Q 313 341 312 338 Q 310 334 302 336 Z M 256 344 L 258 351 L 260 352 L 260 355 L 265 353 L 265 351 L 261 352 Q 259 348 264 349 L 266 349 L 265 345 L 261 346 L 256 344 Z M 299 350 L 300 354 L 299 357 L 304 354 L 308 356 L 310 355 Q 311 350 307 352 Q 305 348 304 351 L 299 350 Z M 285 358 L 283 360 L 284 367 L 282 366 L 280 368 L 285 370 L 287 366 L 287 362 L 289 364 L 296 364 L 297 360 L 292 361 L 285 358 Z " /><path fill="rgb(71,102,165)" stroke="rgb(71,102,165)" stroke-width="0.6" opacity="1" d="M 227.5 118 Q 237.1 120.4 243 126.5 L 244 140.5 L 248 161.5 L 239.5 171 Q 230.8 161.5 217 158 L 216 155.5 L 222 145.5 L 227 129.5 L 226 125.5 L 227.5 118 Z " /><path fill="rgb(71,102,165)" stroke="rgb(71,102,165)" stroke-width="0.6" opacity="1" d="M 192.5 164 Q 222.1 161.4 233 177.5 L 235 181.5 L 233 186.5 L 233 206.5 L 239 223 Q 213.9 224.1 202 239.5 L 198.5 244 L 185.5 243 L 171 234.5 L 168.5 231 L 166 229.5 Q 157.5 220 157 202.5 Q 159.1 183.1 171.5 174 Q 179.8 166.8 192.5 164 Z " /><path fill="rgb(71,102,165)" stroke="rgb(71,102,165)" stroke-width="0.6" opacity="1" d="M 237.5 231 Q 258.8 232.2 269 244.5 L 277 258.5 L 278 268.5 L 277 272.5 L 278 275.5 Q 275.4 293.9 263.5 303 L 247.5 311 L 235.5 312 Q 220.6 309.9 212 301.5 L 209.5 298 L 207 296.5 L 201 286.5 L 199 277.5 L 199 265.5 Q 201.5 249 212.5 241 Q 221.8 232.8 237.5 231 Z " /><path fill="rgb(71,102,165)" stroke="rgb(71,102,165)" stroke-width="0.6" opacity="1" d="M 311.5 233 Q 333 233 342 245.5 Q 351.7 255.3 351 275.5 Q 348.3 293.8 336.5 303 Q 329.1 309.6 316.5 311 Q 306.7 298.3 288.5 294 L 286.5 294 L 282 292.5 Q 287.7 282.7 287 266.5 L 284 252.5 L 280 245.5 L 281.5 244 L 293.5 243 Q 304.5 240 311.5 233 Z " /><path fill="rgb(71,102,165)" stroke="rgb(71,102,165)" stroke-width="0.6" opacity="1" d="M 330.5 316 L 348.5 326 L 356 333.5 Q 363.2 342.8 362 360.5 Q 359.6 378.6 347.5 387 L 332.5 394 L 316.5 394 Q 304.3 392.3 298 384.5 L 299.5 383 L 313 373.5 Q 323.6 363.1 326 344.5 L 325 342.5 L 326 338.5 L 325 336.5 L 326 333.5 L 322 319 L 330.5 316 Z " /><path fill="rgb(76,139,71)" stroke="rgb(76,139,71)" stroke-width="0.6" opacity="1" d="M 271.5 64 L 273.5 67 Q 280.1 67.9 283 72.5 L 280.5 73 L 278.5 72 L 276.5 72 L 272 69.5 L 270 65.5 L 271.5 64 Z " /><path fill="rgb(76,139,71)" stroke="rgb(76,139,71)" stroke-width="0.6" opacity="1" d="M 264 77 L 270 81.5 Q 266.3 83.2 269.5 85 L 273.5 83 L 275 86 L 272 87.5 L 270.5 89 L 266 85.5 Q 267.1 82.2 264.5 83 L 262 82.5 Q 267 80.5 264 78.5 L 264 77 Z " /><path fill="rgb(76,139,71)" stroke="rgb(76,139,71)" stroke-width="0.6" opacity="1" d="M 380.5 79 L 385 80.5 L 384 83 L 380.5 82 L 378 83 L 380.5 79 Z " /><path fill="rgb(76,139,71)" stroke="rgb(76,139,71)" stroke-width="0.6" opacity="1" d="M 337 83 Q 344.1 81.2 346 85.5 L 348 88.5 L 343.5 91 L 346 87.5 L 344.5 86 L 340.5 85 L 337 86 L 337 83 Z " /><path fill="rgb(76,139,71)" stroke="rgb(76,139,71)" stroke-width="0.6" opacity="1" d="M 329.5 87 L 336 89 L 338.5 94 L 339 92 Q 343.5 90.3 342 95.5 L 339.5 96 L 337 96.5 L 340 101 L 334 98.5 L 332 90 L 328.5 91 Q 325 89 329.5 87 Z " /><path fill="rgb(76,139,71)" stroke="rgb(76,139,71)" stroke-width="0.6" opacity="1" d="M 382.5 90 L 387 93.5 L 386 101 L 380 103 L 378.5 99 Q 375.5 99.7 377 96 L 382.5 98 L 382 96.5 L 381 93 L 379 92.5 L 382.5 90 Z " /><path fill="rgb(76,139,71)" stroke="rgb(76,139,71)" stroke-width="0.6" opacity="1" d="M 260.5 93 L 262 97 L 268 98.5 L 262.5 114 L 260 110.5 L 264 102.5 L 263.5 100 L 260.5 101 Q 257.3 100.3 258 95.5 L 260.5 93 Z " /><path fill="rgb(76,139,71)" stroke="rgb(76,139,71)" stroke-width="0.6" opacity="1" d="M 395.5 97 Q 400.9 95.1 400 98.5 Q 396.5 100 399 101.5 L 397.5 103 L 394 98.5 L 395.5 97 Z " /><path fill="rgb(76,139,71)" stroke="rgb(76,139,71)" stroke-width="0.6" opacity="1" d="M 322 99 L 331 102.5 L 326.5 110 Q 321.9 111.3 324 105.5 Q 320.7 104 322 99 Z " /><path fill="rgb(76,139,71)" stroke="rgb(76,139,71)" stroke-width="0.6" opacity="1" d="M 411.5 101 L 414 102.5 L 412 106.5 L 413 109 L 415 110.5 L 412.5 109 Q 409.2 110.1 410 107.5 L 410 105.5 L 411.5 101 Z " /><path fill="rgb(76,139,71)" stroke="rgb(76,139,71)" stroke-width="0.6" opacity="1" d="M 388.5 107 L 392 108.5 L 384.5 113 L 383 110.5 L 388.5 107 Z " /><path fill="rgb(76,139,71)" stroke="rgb(76,139,71)" stroke-width="0.6" opacity="1" d="M 353.5 109 Q 360.4 107 359 111 L 356 112.5 L 357 114.5 L 355.5 114 L 351 112.5 L 353.5 109 Z " /><path fill="rgb(76,139,71)" stroke="rgb(76,139,71)" stroke-width="0.6" opacity="1" d="M 396.5 116 L 400.5 124 L 403.5 120 L 407 120.5 L 404 122.5 L 405 126.5 L 403.5 126 L 396.5 128 Q 395.3 125 391 126 L 394 130 L 387.5 128 L 384 130 L 382 126.5 L 383.5 126 L 385.5 127 L 391 126 L 392.5 124 L 395 123 Q 393.5 117.6 396.5 116 Z " /><path fill="rgb(76,139,71)" stroke="rgb(76,139,71)" stroke-width="0.6" opacity="1" d="M 412.5 119 L 413 122 L 416 122.5 L 409 125 L 408 122.5 L 411 121.5 L 410.5 120 L 412.5 119 Z " /><path fill="rgb(76,139,71)" stroke="rgb(76,139,71)" stroke-width="0.6" opacity="1" d="M 314.5 123 Q 320.9 123.7 323 128.5 L 322 138.5 L 324 142 Q 327 140.8 326 144.5 L 328.5 145 L 331.5 143 L 330 145.5 Q 328.8 149.3 332.5 148 L 338 149 L 336 153.5 L 337 156.5 L 330.5 160 L 330 157.5 L 330 154.5 L 324 147.5 L 324 142 L 320 140.5 L 318 134.5 L 319 131.5 L 318.5 129 L 313 130 L 314 126.5 L 313 124.5 L 314.5 123 Z " /><path fill="rgb(76,139,71)" stroke="rgb(76,139,71)" stroke-width="0.6" opacity="1" d="M 331 126 Q 337.3 124.5 339 128.5 L 336 131.5 L 337 134 L 333 132.5 L 331 126 Z " /><path fill="rgb(76,139,71)" stroke="rgb(76,139,71)" stroke-width="0.6" opacity="1" d="M 426.5 130 L 431.5 136 Q 433.3 133.3 435 137.5 L 433.5 139 L 428 135 L 426.5 133 L 425 136 Q 420.9 134.7 422 138 L 426.5 137 L 430 139.5 L 428.5 144 L 426.5 145 L 425 142 L 422 140.5 Q 423.3 136.8 419.5 138 L 414 135 L 410.5 142 L 406 139.5 L 409.5 134 L 416.5 132 L 422 136 L 426.5 130 Z " /><path fill="rgb(76,139,71)" stroke="rgb(76,139,71)" stroke-width="0.6" opacity="1" d="M 304 133 Q 307.3 131.9 306 136 L 313.5 136 L 314 137.5 L 312 139.5 Q 317.3 141.8 313.5 144 L 307.5 145 Q 304 142.9 306 136 Q 302.7 137.1 304 133 Z " /><path fill="rgb(76,139,71)" stroke="rgb(76,139,71)" stroke-width="0.6" opacity="1" d="M 365.5 135 L 367.5 135 L 370 136.5 L 368.5 140 L 360.5 140 L 360 138 L 364.5 139 L 365.5 135 Z " /><path fill="rgb(76,139,71)" stroke="rgb(76,139,71)" stroke-width="0.6" opacity="1" d="M 348 140 L 351 141.5 L 350 144 Q 347 142.8 348 146.5 Q 349.5 149.5 351 146.5 L 352.5 144 L 355 144.5 L 348.5 150 Q 345 148.7 346 144 Q 340.8 145.7 342 142 L 348 144 L 348 140 Z " /><path fill="rgb(76,139,71)" stroke="rgb(76,139,71)" stroke-width="0.6" opacity="1" d="M 341.5 145 L 342 148 L 346 149.5 Q 347.3 153.3 343.5 152 L 342 148 L 340 146.5 L 341.5 145 Z " /><path fill="rgb(76,139,71)" stroke="rgb(76,139,71)" stroke-width="0.6" opacity="1" d="M 372 145 L 375.5 146 L 378.5 145 L 383.5 146 L 386 146.5 Q 385.2 149.1 388.5 148 L 390 147.5 Q 387.8 152.3 385.5 148 L 378 149 L 375.5 154 L 364.5 158 L 360 156 L 360 154 L 365 154 L 365 152.5 L 364 150.5 L 368 149 L 369.5 151 L 370.5 148 Q 373.5 148.7 372 145 Z " /><path fill="rgb(76,139,71)" stroke="rgb(76,139,71)" stroke-width="0.6" opacity="1" d="M 420.5 146 Q 426.8 144.1 425 149 L 422 150.5 L 424 153.5 L 420.5 151 Q 417.5 151.9 419 147.5 L 420.5 146 Z " /><path fill="rgb(76,139,71)" stroke="rgb(76,139,71)" stroke-width="0.6" opacity="1" d="M 442.5 150 L 444 151.5 L 446 155.5 L 445.5 157 Q 449.3 156 448 159 L 444.5 158 Q 445.3 164.3 441.5 166 L 441 163.5 L 441 161.5 L 444 155.5 L 441 151.5 L 442.5 150 Z " /><path fill="rgb(76,139,71)" stroke="rgb(76,139,71)" stroke-width="0.6" opacity="1" d="M 436 152 L 440 153.5 L 439 164 L 429 162 L 430.5 159 L 435.5 160 L 437 154.5 L 436 152 Z " /><path fill="rgb(76,139,71)" stroke="rgb(76,139,71)" stroke-width="0.6" opacity="1" d="M 388 154 L 391 155.5 Q 392.3 159.3 388.5 158 Q 384 160 387.5 162 L 392 159.5 L 394 158 L 392.5 160 L 388.5 164 L 381.5 166 L 378 164 L 379.5 160 Q 386.5 161.5 388 157.5 L 388 154 Z " /><path fill="rgb(76,139,71)" stroke="rgb(76,139,71)" stroke-width="0.6" opacity="1" d="M 399 157 L 406 160.5 L 407 164.5 L 405 168.5 L 407 172.5 L 405.5 173 L 402 169.5 L 400 163.5 L 402 160.5 L 399 159.5 L 399 157 Z " /><path fill="rgb(76,139,71)" stroke="rgb(76,139,71)" stroke-width="0.6" opacity="1" d="M 277.5 161 Q 285.4 159.3 285 162.5 L 285.5 164 Q 278 166 276 162.5 L 277.5 161 Z " /><path fill="rgb(76,139,71)" stroke="rgb(76,139,71)" stroke-width="0.6" opacity="1" d="M 423.5 162 L 431 166.5 L 429.5 168 L 422 164.5 L 423.5 162 Z " /><path fill="rgb(76,139,71)" stroke="rgb(76,139,71)" stroke-width="0.6" opacity="1" d="M 294.5 165 L 297.5 167 L 300 167.5 L 297.5 170 Q 290.3 168.3 288.5 172 L 286 168.5 L 294.5 165 Z " /><path fill="rgb(76,139,71)" stroke="rgb(76,139,71)" stroke-width="0.6" opacity="1" d="M 396.5 170 Q 399.8 168.9 399 171.5 L 398 174.5 L 399 178 L 394.5 180 L 390 172.5 L 392.5 171 L 393.5 174 L 394.5 171 L 396.5 170 Z " /><path fill="rgb(76,139,71)" stroke="rgb(76,139,71)" stroke-width="0.6" opacity="1" d="M 450 170 Q 453 168.8 452 172.5 L 454 176.5 L 451 178 L 449.5 181 L 448 178.5 L 449 176.5 L 446.5 178 Q 441.9 179.2 444 174 L 447.5 175 L 450 170 Z " /><path fill="rgb(76,139,71)" stroke="rgb(76,139,71)" stroke-width="0.6" opacity="1" d="M 306.5 172 L 308 173.5 L 312 177.5 L 310.5 179 Q 303.8 176.8 306 183.5 L 301.5 186 L 300 181.5 L 301 179 Q 304 180.3 303 176.5 L 306.5 172 Z " /><path fill="rgb(76,139,71)" stroke="rgb(76,139,71)" stroke-width="0.6" opacity="1" d="M 283 173 Q 287.1 171.3 286 175.5 L 284 180 L 281 178.5 L 283 173 Z " /><path fill="rgb(76,139,71)" stroke="rgb(76,139,71)" stroke-width="0.6" opacity="1" d="M 440.5 178 Q 443.8 176.9 443 179.5 L 442 181.5 L 444.5 183 L 447 181.5 L 448 184.5 L 445.5 188 Q 438.2 185.4 440 191.5 L 437.5 193 L 435.5 193 L 426 191 Q 424.8 188 428.5 189 L 431.5 190 L 434 189 Q 433 186 436 187 L 436 183.5 L 435 181.5 L 437.5 180 L 439.5 181 L 440.5 178 Z " /><path fill="rgb(76,139,71)" stroke="rgb(76,139,71)" stroke-width="0.6" opacity="1" d="M 396.5 189 L 400 195.5 L 398.5 196 L 395 190.5 L 396.5 189 Z " /><path fill="rgb(76,139,71)" stroke="rgb(76,139,71)" stroke-width="0.6" opacity="1" d="M 304 192 L 307 193.5 L 307.5 195 L 309.5 194 L 308 196.5 L 309 198.5 Q 307.5 201.5 306 198.5 Q 307.1 195.2 304.5 196 L 304 193.5 L 304 192 Z " /><path fill="rgb(76,139,71)" stroke="rgb(76,139,71)" stroke-width="0.6" opacity="1" d="M 271.5 193 L 273 196 L 270 196 L 268.5 198 L 265 195.5 L 271.5 193 Z " /><path fill="rgb(76,139,71)" stroke="rgb(76,139,71)" stroke-width="0.6" opacity="1" d="M 252.5 199 L 255 200.5 L 253.5 203 Q 250.5 202.2 252 206 Q 255.7 207.5 255 204.5 L 257 203.5 L 258 207 L 261 208.5 Q 259.5 211.5 258 208.5 Q 258.7 205.5 255 207 Q 256.1 210.3 252 209 Q 253 206 250 207 L 251 210.5 Q 249.5 213.5 248 210.5 L 248 206.5 L 252.5 199 Z " /><path fill="rgb(76,139,71)" stroke="rgb(76,139,71)" stroke-width="0.6" opacity="1" d="M 307 203 L 309.5 204 L 311 203.5 L 312.5 205 L 314 210.5 Q 312.5 213.5 311 210.5 L 309.5 206 L 307 204.5 L 307 203 Z " /><path fill="rgb(76,139,71)" stroke="rgb(76,139,71)" stroke-width="0.6" opacity="1" d="M 261 216 L 266 216 L 266 217.5 L 261.5 224 L 257 221.5 L 261 220 L 261 216 Z " /><path fill="rgb(76,139,71)" stroke="rgb(76,139,71)" stroke-width="0.6" opacity="1" d="M 289.5 216 L 290 225 L 293 226.5 L 284 232 L 288 223.5 L 287 220.5 L 289.5 216 Z " /><path fill="rgb(76,139,71)" stroke="rgb(76,139,71)" stroke-width="0.6" opacity="1" d="M 270 217 Q 276.4 215.8 278 220.5 L 276.5 223 L 270 218.5 L 270 217 Z " /><path fill="rgb(76,139,71)" stroke="rgb(76,139,71)" stroke-width="0.6" opacity="1" d="M 274.5 223 L 276 226.5 L 271 230 L 272 224 L 274.5 223 Z " /><path fill="rgb(76,139,71)" stroke="rgb(76,139,71)" stroke-width="0.6" opacity="1" d="M 151.5 237 L 159 239.5 L 157.5 242 L 153.5 241 L 150 242 L 151.5 237 Z " /><path fill="rgb(76,139,71)" stroke="rgb(76,139,71)" stroke-width="0.6" opacity="1" d="M 140.5 244 L 142 245.5 L 139 247 L 138 252.5 L 140.5 254 L 143 249.5 L 142 247 L 146 248.5 L 144 256 Q 141 254.8 142 258.5 L 138 260 Q 134.7 257.2 136 248.5 L 140.5 244 Z " /><path fill="rgb(76,139,71)" stroke="rgb(76,139,71)" stroke-width="0.6" opacity="1" d="M 166.5 248 L 171 249 L 170.5 251 L 167.5 250 L 168 251.5 Q 167.2 254.1 170.5 253 L 174 251 L 172 255.5 L 173 259 L 165.5 260 L 164 257.5 L 169 256 L 169 254 L 164 254 L 164 252.5 L 163 250.5 L 165 250.5 L 166.5 248 Z " /><path fill="rgb(76,139,71)" stroke="rgb(76,139,71)" stroke-width="0.6" opacity="1" d="M 144 261 L 150.5 261 L 151 262.5 L 150 265 L 158 264 L 156.5 268 L 150.5 267 L 148 266.5 L 149 264.5 L 144 264 Q 146.4 271.1 140 269 L 139 264.5 L 144 264 L 144 261 Z " /><path fill="rgb(76,139,71)" stroke="rgb(76,139,71)" stroke-width="0.6" opacity="1" d="M 184 261 Q 188 259.6 186 266.5 L 182 269.5 Q 183.1 266.2 180.5 267 L 179 267.5 L 180.5 265 L 182.5 266 L 184 261 Z " /><path fill="rgb(76,139,71)" stroke="rgb(76,139,71)" stroke-width="0.6" opacity="1" d="M 130 262 Q 133.7 260.6 132 266.5 L 133.5 269 L 132 270.5 L 130 276 Q 127 277.3 128 273.5 L 127 270.5 L 130 262 Z " /><path fill="rgb(76,139,71)" stroke="rgb(76,139,71)" stroke-width="0.6" opacity="1" d="M 182 275 Q 187.2 272.9 186 277.5 L 182.5 284 Q 177.5 281.5 182.5 279 L 184 278.5 L 182 275 Z " /><path fill="rgb(76,139,71)" stroke="rgb(76,139,71)" stroke-width="0.6" opacity="1" d="M 133.5 279 Q 137.3 277.8 136 281.5 L 139 283 L 137.5 286 L 136 287.5 L 132 290 L 131 284.5 L 133 281.5 L 133.5 279 Z " /><path fill="rgb(76,139,71)" stroke="rgb(76,139,71)" stroke-width="0.6" opacity="1" d="M 149.5 293 L 153 298.5 L 150 300 L 148.5 296 L 145 300.5 L 148 302.5 Q 149.1 305.8 146.5 305 L 142 301.5 L 144.5 298 L 148 295.5 L 149.5 293 Z " /><path fill="rgb(76,139,71)" stroke="rgb(76,139,71)" stroke-width="0.6" opacity="1" d="M 165.5 301 L 169 302.5 L 166 308 L 163.5 309 L 163 303.5 L 165.5 301 Z " /><path fill="rgb(76,139,71)" stroke="rgb(76,139,71)" stroke-width="0.6" opacity="1" d="M 276.5 302 L 284.5 302 L 285 304 L 275 303.5 L 276.5 302 Z " /><path fill="rgb(76,139,71)" stroke="rgb(76,139,71)" stroke-width="0.6" opacity="1" d="M 268.5 314 L 278.5 314 L 279 316.5 L 275.5 318 Q 274.3 314.8 268.5 316 L 267.5 319 L 265.5 320 L 265 318.5 L 268.5 314 Z " /><path fill="rgb(76,139,71)" stroke="rgb(76,139,71)" stroke-width="0.6" opacity="1" d="M 300.5 315 L 302 316.5 L 302 326 L 294 326 Q 295.5 329.8 292.5 329 L 289 328 Q 287.6 324.3 293.5 326 L 298 322.5 Q 299.3 318.3 294.5 320 L 292 319 L 293.5 317 L 298 318 L 299.5 316 L 300.5 315 Z " /><path fill="rgb(76,139,71)" stroke="rgb(76,139,71)" stroke-width="0.6" opacity="1" d="M 255.5 323 L 260 325 L 258 330.5 L 261 332.5 L 256 334 L 257 327 L 254 325.5 L 255.5 323 Z " /><path fill="rgb(76,139,71)" stroke="rgb(76,139,71)" stroke-width="0.6" opacity="1" d="M 301.5 336 Q 309.8 333.8 312 337.5 Q 313.3 341.3 309.5 340 Q 307.8 343.8 306 340.5 L 304.5 338 L 296 342 L 297.5 339 L 300 340 L 301.5 336 Z " /><path fill="rgb(76,139,71)" stroke="rgb(76,139,71)" stroke-width="0.6" opacity="1" d="M 256 344 L 260.5 346 L 264.5 345 L 266 348.5 L 263.5 349 Q 259.3 347.9 261 352 L 264.5 351 L 265 352.5 L 260 355 L 260 352 L 258 350.5 L 256 344 Z " /><path fill="rgb(76,139,71)" stroke="rgb(76,139,71)" stroke-width="0.6" opacity="1" d="M 294 344 L 297 345.5 L 298 350 Q 303.6 352.2 302 346.5 L 302.5 344 L 306.5 352 Q 311.3 350.3 310 354.5 L 307.5 356 L 303.5 354 L 299 357 L 300 353.5 L 295.5 348 Q 292.1 348.8 294 344 Z " /><path fill="rgb(76,139,71)" stroke="rgb(76,139,71)" stroke-width="0.6" opacity="1" d="M 284.5 358 L 291.5 361 L 297 360 L 296 364 Q 289.1 362 287 365.5 L 284.5 370 L 280 368 L 281.5 366 L 284 367 L 283 359.5 L 284.5 358 Z " /><path fill="rgb(112,74,148)" stroke="rgb(112,74,148)" stroke-width="0.6" opacity="1" d="M 149.5 65 L 157 65.5 L 154 66.5 L 155 67.5 L 151.5 71 Q 148.5 70.1 150 74.5 L 146.5 77 L 146.5 76 L 149 74.5 L 147 69.5 L 148 67.5 L 146 67.5 L 149.5 65 Z " /><path fill="rgb(112,74,148)" stroke="rgb(112,74,148)" stroke-width="0.6" opacity="1" d="M 167 65 L 183 68.5 L 178.5 71 L 167 68 L 167 65 Z " /><path fill="rgb(112,74,148)" stroke="rgb(112,74,148)" stroke-width="0.6" opacity="1" d="M 184.5 69 L 194 74.5 Q 194.8 77.1 191.5 76 L 189 75 L 186.5 71 L 185.5 73 L 184.5 69 Z " /><path fill="rgb(112,74,148)" stroke="rgb(112,74,148)" stroke-width="0.6" opacity="1" d="M 131.5 75 L 145 76.5 Q 140.1 80.6 129.5 79 L 122.5 77 L 121 81 Q 116.3 82 115 78.5 L 131.5 75 Z " /><path fill="rgb(112,74,148)" stroke="rgb(112,74,148)" stroke-width="0.6" opacity="1" d="M 195.5 75 L 198 79 L 206 84.5 L 214 100 L 211 100 L 211 96 L 207 93 L 207 89.5 L 204 88 L 200.5 83 L 195 78.5 L 195.5 75 Z " /><path fill="rgb(112,74,148)" stroke="rgb(112,74,148)" stroke-width="0.6" opacity="1" d="M 112.5 79 L 114 80.5 L 110.5 83 L 108 81.5 L 109 83.5 L 103.5 86 L 101 85 L 100.5 88 L 97 87 L 94.5 92 L 90 94.5 L 88.5 97 L 81.5 101 L 87.5 94 L 92 92 L 94.5 88 L 112.5 79 Z " /><path fill="rgb(112,74,148)" stroke="rgb(112,74,148)" stroke-width="0.6" opacity="1" d="M 196.5 100 L 203 101 L 201.5 104 L 189.5 104 L 189 101 L 196.5 100 Z " /><path fill="rgb(112,74,148)" stroke="rgb(112,74,148)" stroke-width="0.6" opacity="1" d="M 177.5 102 Q 181.9 100.5 181 103.5 L 182.5 103 L 188 103.5 Q 152.8 108.3 129.5 125 L 129 122 L 136.5 118 L 141 118 Q 139.3 113.9 143.5 115 L 149 114 L 150.5 112 L 152.5 111 L 154.5 111 L 156 109 L 159.5 109 L 164.5 106 L 166.5 107 Q 168 103.5 169.5 106 L 174 104.5 Q 173.2 101.9 176.5 103 L 177.5 102 Z " /><path fill="rgb(112,74,148)" stroke="rgb(112,74,148)" stroke-width="0.6" opacity="1" d="M 211.5 102 L 214 103.5 L 215 105.5 L 213.5 105 L 207 104.5 L 211.5 102 Z " /><path fill="rgb(112,74,148)" stroke="rgb(112,74,148)" stroke-width="0.6" opacity="1" d="M 181.5 111 L 182 115 L 176.5 113 L 175 116 L 169 117 L 168 114.5 L 181.5 111 Z " /><path fill="rgb(112,74,148)" stroke="rgb(112,74,148)" stroke-width="0.6" opacity="1" d="M 207.5 111 L 215.5 113 L 218 115.5 Q 219.2 139.7 208.5 152 L 208 149 L 211 147.5 L 209 147 Q 208 144 211 145 L 211 141 L 212.5 141 L 214 137.5 L 213 134.5 Q 216.7 133.8 216 128.5 L 215 118.5 L 213.5 117 L 210.5 118 L 206 115 L 207.5 111 Z " /><path fill="rgb(112,74,148)" stroke="rgb(112,74,148)" stroke-width="0.6" opacity="1" d="M 88.5 115 L 84.5 122 L 81 124.5 L 74 134 L 69 135.5 L 70 138.5 L 65.5 145 L 64 146.5 L 65 148.5 Q 62 149.8 63 154 L 60 155.5 L 61 158.5 Q 57.8 162 59 169 L 56 170.5 L 54.5 173 L 55 171.5 Q 60.2 136.2 83.5 119 L 88.5 115 Z " /><path fill="rgb(112,74,148)" stroke="rgb(112,74,148)" stroke-width="0.6" opacity="1" d="M 163.5 115 L 167 115.5 L 164.5 119 L 156.5 121 L 153 120.5 L 151.5 122 L 147 125 L 146.5 123 L 145 123.5 Q 144.2 120.9 147.5 122 L 163.5 115 Z " /><path fill="rgb(112,74,148)" stroke="rgb(112,74,148)" stroke-width="0.6" opacity="1" d="M 143.5 123 L 145 125.5 L 143.5 126 Q 142 123.5 140.5 127 Q 135.7 125.3 137 129.5 Q 135 132.7 133 129.5 L 131.5 133 L 122 136.5 L 121.5 139 Q 118.2 140.1 119 137.5 L 143.5 123 Z " /><path fill="rgb(112,74,148)" stroke="rgb(112,74,148)" stroke-width="0.6" opacity="1" d="M 290.5 124 L 291 126.5 Q 290.8 140.4 295 149 L 293 149.5 L 293.5 151 L 277.5 150 L 276 148.5 L 275 137.5 L 276 137.5 L 277.5 141 Q 280.5 140.1 279 144.5 L 280.5 146 L 289.5 147 L 291 144.5 L 288 139.5 L 290 129.5 L 287.5 129 L 284.5 127 L 281.5 131 L 281 129 Q 277.3 127.7 279 133.5 L 275.5 136 L 275 131.5 Q 280.8 125.8 290.5 124 Z " /><path fill="rgb(112,74,148)" stroke="rgb(112,74,148)" stroke-width="0.6" opacity="1" d="M 122.5 126 L 126 126.5 L 102 144 L 98.5 149 L 96 150.5 L 97 153 L 107.5 145 L 109 145.5 L 110.5 144 L 117.5 138 L 117 139.5 Q 117.8 144.3 114.5 145 Q 109.1 143.1 110 146.5 L 108 150 Q 101 150.6 97.5 156 Q 93.3 155.2 94 149.5 L 104 141 L 107.5 136 Q 112.8 137.3 114 134.5 L 116.5 130 L 121 129.5 Q 118.2 127.7 122.5 126 Z " /><path fill="rgb(112,74,148)" stroke="rgb(112,74,148)" stroke-width="0.6" opacity="1" d="M 194 152 L 201.5 153 L 205.5 152 L 208 153.5 L 206.5 155 L 191 156 L 194 152 Z " /><path fill="rgb(112,74,148)" stroke="rgb(112,74,148)" stroke-width="0.6" opacity="1" d="M 178.5 156 Q 181.8 154.9 181 157.5 L 181.5 159 Q 167.4 162.9 160 173.5 L 157.5 177 L 156 171.5 L 164 167.5 L 166.5 164 L 171 164 Q 169.1 159.2 172.5 160 L 178.5 156 Z " /><path fill="rgb(112,74,148)" stroke="rgb(112,74,148)" stroke-width="0.6" opacity="1" d="M 142 168 L 145 169.5 L 146.5 172 L 148 174 L 141.5 172 L 136.5 177 L 135 176.5 L 132.5 180 L 120.5 186 L 119 183.5 L 125.5 180 L 129 181 Q 127.5 177.3 130.5 178 Q 134.5 172.3 142 171 L 142 168 Z " /><path fill="rgb(112,74,148)" stroke="rgb(112,74,148)" stroke-width="0.6" opacity="1" d="M 343 168 L 352 169 L 350.5 171 L 348.5 171 L 343 169.5 L 343 168 Z " /><path fill="rgb(112,74,148)" stroke="rgb(112,74,148)" stroke-width="0.6" opacity="1" d="M 338.5 169 L 340 169.5 L 338 173 L 329 175 L 327.5 181 Q 324.8 181.6 326 175.5 L 338.5 169 Z " /><path fill="rgb(112,74,148)" stroke="rgb(112,74,148)" stroke-width="0.6" opacity="1" d="M 360.5 169 Q 374.1 171.9 381 181.5 L 386 188.5 Q 383.5 190 387 191.5 L 390 203.5 L 389 211.5 L 390 215.5 L 388.5 218 L 387 215.5 L 387 201.5 L 388 199 L 386 197.5 L 385 193.5 L 386 191 L 383 189.5 L 384 187 L 381.5 187 L 375 180.5 L 370.5 175 L 366.5 175 L 360 171.5 L 360.5 169 Z " /><path fill="rgb(112,74,148)" stroke="rgb(112,74,148)" stroke-width="0.6" opacity="1" d="M 54 176 L 56 177.5 L 57 185.5 L 56 189 L 54 188.5 L 54 176 Z " /><path fill="rgb(112,74,148)" stroke="rgb(112,74,148)" stroke-width="0.6" opacity="1" d="M 147.5 178 L 152.5 180 L 155.5 179 L 155 180.5 L 152.5 184 L 149.5 185 L 147.5 178 Z " /><path fill="rgb(112,74,148)" stroke="rgb(112,74,148)" stroke-width="0.6" opacity="1" d="M 327.5 183 L 331 185.5 L 330 192.5 L 332 192.5 L 333 196.5 L 331.5 199 L 330 198.5 L 331 208.5 L 329 215 L 326 216.5 L 325.5 219 L 324 220.5 L 327.5 226 L 328 224 L 332 223 L 333 225.5 L 333.5 228 L 340 230 L 341.5 232 L 347.5 231 L 350 235.5 L 349 237.5 L 352 244 L 361 246 L 363.5 242 L 372.5 239 L 374.5 240 L 382.5 228 L 384 228.5 L 383 224.5 L 385 220 L 388 221.5 Q 384.3 234.3 374.5 241 Q 366.9 246.9 354.5 248 L 344.5 236 Q 336 227 321 224.5 L 323 223.5 L 321 222.5 Q 331.5 212 329 188.5 L 327.5 183 Z " /><path fill="rgb(112,74,148)" stroke="rgb(112,74,148)" stroke-width="0.6" opacity="1" d="M 106.5 186 Q 111.9 184.1 111 187.5 L 111.5 189 L 101.5 191 L 101.5 190 Q 106.3 191.7 105 187.5 L 106.5 186 Z " /><path fill="rgb(112,74,148)" stroke="rgb(112,74,148)" stroke-width="0.6" opacity="1" d="M 68.5 189 L 74 190.5 Q 68.4 194.9 56.5 193 L 56.5 192 L 62.5 192 Q 61.5 188.8 67.5 190 L 68.5 189 Z " /><path fill="rgb(112,74,148)" stroke="rgb(112,74,148)" stroke-width="0.6" opacity="1" d="M 85.5 191 L 91 191.5 L 74.5 193 L 74.5 192 L 85.5 191 Z " /><path fill="rgb(112,74,148)" stroke="rgb(112,74,148)" stroke-width="0.6" opacity="1" d="M 379 249 Q 386.5 249.1 390 254.5 L 399 271.5 L 399 279.5 L 398 279.5 L 398 277 L 396 275.5 L 395 269.5 L 396 267.5 L 393 266 L 390 261.5 L 391.5 259 L 388 258 L 386.5 256 Q 384.9 250.3 379 251 L 379 249 Z " /><path fill="rgb(112,74,148)" stroke="rgb(112,74,148)" stroke-width="0.6" opacity="1" d="M 375.5 250 L 378 251.5 Q 375.2 255.8 369 255 Q 370 258 367 257 L 365.5 255 L 365.5 254 L 375.5 250 Z " /><path fill="rgb(112,74,148)" stroke="rgb(112,74,148)" stroke-width="0.6" opacity="1" d="M 362.5 255 Q 365.1 254.2 364 257.5 Q 360.8 258.9 362 264 Q 359 262.8 360 266.5 L 363 268 L 363 273 L 361 274.5 L 362 278 Q 359 276.8 360 280.5 L 361 283.5 L 358 285.5 L 360 268.5 L 358 257.5 L 362.5 255 Z " /><path fill="rgb(112,74,148)" stroke="rgb(112,74,148)" stroke-width="0.6" opacity="1" d="M 398.5 285 L 399 290.5 Q 394.9 306.9 382.5 315 L 380.5 316 L 380 314 L 383 312.5 L 392.5 301 L 394 299.5 L 393 296 L 396 294.5 L 395 288.5 L 398 287 L 398.5 285 Z " /><path fill="rgb(112,74,148)" stroke="rgb(112,74,148)" stroke-width="0.6" opacity="1" d="M 357.5 287 L 359 289.5 L 356 291 L 357 293.5 L 354 295 L 355 298.5 L 353.5 301 L 351.5 301 L 350 302.5 L 351 303.5 L 347 307.5 L 349 313.5 L 348.5 315 L 351 315 L 352.5 317 L 355 318 Q 353.7 321.3 358.5 320 L 365.5 319 L 369 320 L 370.5 318 L 372.5 317 L 375 318 L 376.5 315 L 378 317.5 Q 370.3 322.8 355.5 321 L 344 315 L 343.5 313 L 341 312.5 L 341.5 311 L 340 310.5 L 349 304 L 357.5 287 Z " /><path fill="rgb(112,74,148)" stroke="rgb(112,74,148)" stroke-width="0.6" opacity="1" d="M 195.5 304 Q 202.2 302.2 204 305.5 Q 202.3 308.8 195.5 307 L 193 306 L 191.5 309 L 187 308 L 185.5 310 L 183 310.5 L 182 314 L 177 313.5 Q 183.8 306.3 195.5 304 Z " /><path fill="rgb(112,74,148)" stroke="rgb(112,74,148)" stroke-width="0.6" opacity="1" d="M 204 307 Q 214.9 316.8 233.5 320 L 235.5 320 L 240 321.5 Q 245.4 330.1 244 345.5 L 242 353 Q 238.2 354.5 239 351.5 L 240 348.5 L 239 345.5 L 241 343.5 L 242 329.5 Q 239 331.5 236 325.5 L 234.5 323 Q 230.1 324.5 231 321.5 L 226.5 320 L 223.5 321 L 216 316.5 L 215.5 315 L 212.5 316 L 211 313 L 205 311.5 L 204 307 Z " /><path fill="rgb(112,74,148)" stroke="rgb(112,74,148)" stroke-width="0.6" opacity="1" d="M 174.5 316 L 175 320.5 L 170 323 L 171 325.5 L 168 326.5 L 167 328.5 L 169 329 Q 170.3 333.1 167 332 L 166.5 330 L 165.5 332 L 165 330.5 L 174.5 316 Z " /><path fill="rgb(112,74,148)" stroke="rgb(112,74,148)" stroke-width="0.6" opacity="1" d="M 165.5 333 Q 168.3 338.3 167 347.5 L 166 351.5 L 171 354.5 L 170 358.5 L 170 360.5 L 169.5 362 L 165 353.5 L 164 337.5 L 165.5 333 Z " /><path fill="rgb(112,74,148)" stroke="rgb(112,74,148)" stroke-width="0.6" opacity="1" d="M 241.5 354 L 241 355.5 L 233.5 368 L 220.5 377 L 221 375.5 L 226.5 368 L 232 366 L 233.5 364 L 237 357 L 241.5 354 Z " /><path fill="rgb(112,74,148)" stroke="rgb(112,74,148)" stroke-width="0.6" opacity="1" d="M 170 363 L 179 366 L 181 374 L 188.5 375 L 190.5 374 L 195 377.5 L 195.5 380 L 201.5 380 Q 200.8 377 205 378 Q 203.7 381.7 209.5 380 L 209.5 381 L 195.5 381 L 180.5 375 L 177 371.5 L 176.5 370 Q 174.8 372.8 173 368.5 L 170 363 Z " /><path fill="rgb(112,74,148)" stroke="rgb(112,74,148)" stroke-width="0.6" opacity="1" d="M 248.5 373 Q 264.4 371.1 272 377.5 L 269.5 379 L 268 376 L 262.5 378 L 261 374 L 256 374 L 256 375.5 L 253.5 376 L 252 374 L 248.5 374 L 248.5 373 Z " /><path fill="rgb(112,74,148)" stroke="rgb(112,74,148)" stroke-width="0.6" opacity="1" d="M 238.5 375 L 239 377.5 Q 239.8 380.1 236.5 379 L 235 378.5 L 233.5 381 Q 231.8 378.3 230 382.5 L 228.5 384 L 226 385 L 221 395 Q 217.3 393.5 218 396.5 L 219 398.5 L 216 403.5 L 217 410 L 215 410 L 215 416 L 217 417.5 L 219 422.5 L 218 424.5 L 220 433 L 226 435.5 L 228.5 442 L 230 443.5 L 231.5 446 L 234.5 445 L 236.5 448 L 240.5 446 L 248 450.5 L 248.5 452 L 256.5 452 L 258 449 L 262.5 448 Q 264.3 451.8 266 448.5 Q 265.2 445.9 268.5 447 L 270 447.5 L 271.5 445 L 280.5 440 L 276.5 445 Q 267 454 247.5 453 Q 230.8 449.7 222 438.5 Q 215.4 431.6 214 419.5 L 215 417 L 213 416.5 L 215 406.5 L 214 402.5 Q 218.6 387.1 230.5 379 L 238.5 375 Z " /><path fill="rgb(112,74,148)" stroke="rgb(112,74,148)" stroke-width="0.6" opacity="1" d="M 218.5 376 L 219 377.5 L 211 380 Q 209.3 375.5 214.5 377 L 216.5 378 L 218.5 376 Z " /><path fill="rgb(112,74,148)" stroke="rgb(112,74,148)" stroke-width="0.6" opacity="1" d="M 274.5 378 L 284 386.5 L 286 389.5 L 282.5 390 L 281 386.5 L 282 385.5 L 278.5 382 L 276.5 383 Q 270.5 380.5 274.5 378 Z " /><path fill="rgb(112,74,148)" stroke="rgb(112,74,148)" stroke-width="0.6" opacity="1" d="M 286.5 393 L 288 394.5 L 291 400.5 L 292 415.5 L 290 419.5 L 291 422.5 L 282.5 439 L 281 436.5 L 285 429 Q 288.7 430.5 288 427.5 L 288 425.5 L 287 422.5 L 290 405.5 L 288 405 L 289 400.5 Q 285.5 399 288 397.5 L 286.5 395 L 285 394.5 L 286.5 393 Z " /><path fill="rgb(29,28,28)" stroke="rgb(29,28,28)" stroke-width="0.6" opacity="1" d="M 199.5 77 L 206.5 85 L 199.5 77 Z " /><path fill="rgb(29,28,28)" stroke="rgb(29,28,28)" stroke-width="0.6" opacity="1" d="M 267.5 122 L 268 138.5 L 267 138.5 L 267.5 122 Z " /><path fill="rgb(29,28,28)" stroke="rgb(29,28,28)" stroke-width="0.6" opacity="1" d="M 311.5 159 L 317.5 166 L 311.5 159 Z " /><path fill="rgb(29,28,28)" stroke="rgb(29,28,28)" stroke-width="0.6" opacity="1" d="M 381.5 171 L 386.5 177 L 381.5 171 Z " /><path fill="rgb(29,28,28)" stroke="rgb(29,28,28)" stroke-width="0.6" opacity="1" d="M 415.5 200 L 430 200.5 L 415.5 201 L 415.5 200 Z " /><path fill="rgb(29,28,28)" stroke="rgb(29,28,28)" stroke-width="0.6" opacity="1" d="M 312.5 221 L 307.5 227 L 312.5 221 Z " /><path fill="rgb(70,79,72)" stroke="rgb(70,79,72)" stroke-width="0.6" opacity="1" d="M 430.5 109 L 437.5 117 L 430.5 109 Z " /><path fill="rgb(70,79,72)" stroke="rgb(70,79,72)" stroke-width="0.6" opacity="1" d="M 251.5 111 L 252 122.5 L 251 122.5 L 251.5 111 Z " /><path fill="rgb(70,79,72)" stroke="rgb(70,79,72)" stroke-width="0.6" opacity="1" d="M 429.5 122 L 431 122.5 L 428 124.5 L 431 128.5 L 427 125.5 L 429.5 122 Z " /><path fill="rgb(70,79,72)" stroke="rgb(70,79,72)" stroke-width="0.6" opacity="1" d="M 459.5 191 L 460 196.5 Q 459 200 453.5 199 L 453.5 198 L 459 196.5 L 459.5 191 Z " /><path fill="rgb(70,79,72)" stroke="rgb(70,79,72)" stroke-width="0.6" opacity="1" d="M 132.5 298 L 139.5 306 L 132.5 298 Z " /><path fill="rgb(70,79,72)" stroke="rgb(70,79,72)" stroke-width="0.6" opacity="1" d="M 310.5 305 L 318 311.5 L 316.5 312 L 310.5 305 Z " /><path fill="rgb(53,53,54)" stroke="rgb(53,53,54)" stroke-width="0.6" opacity="1" d="M 86.5 94 L 80.5 101 L 86.5 94 Z " /><path fill="rgb(53,53,54)" stroke="rgb(53,53,54)" stroke-width="0.6" opacity="1" d="M 218.5 116 L 219 126.5 L 218 126.5 L 218.5 116 Z " /><path fill="rgb(53,53,54)" stroke="rgb(53,53,54)" stroke-width="0.6" opacity="1" d="M 433.5 130 L 439.5 137 L 433.5 130 Z " /><path fill="rgb(53,53,54)" stroke="rgb(53,53,54)" stroke-width="0.6" opacity="1" d="M 160.5 235 L 166.5 242 L 160.5 235 Z " /><path fill="rgb(53,53,54)" stroke="rgb(53,53,54)" stroke-width="0.6" opacity="1" d="M 269.5 297 L 264.5 303 L 269.5 297 Z " /><path fill="rgb(53,53,54)" stroke="rgb(53,53,54)" stroke-width="0.6" opacity="1" d="M 353.5 381 L 347.5 388 L 353.5 381 Z " /><path fill="rgb(53,53,54)" stroke="rgb(53,53,54)" stroke-width="0.6" opacity="1" d="M 282.5 439 L 277.5 445 L 282.5 439 Z " /><path fill="rgb(90,90,95)" stroke="rgb(90,90,95)" stroke-width="0.6" opacity="1" d="M 313.5 84 L 307.5 91 L 313.5 84 Z " /><path fill="rgb(90,90,95)" stroke="rgb(90,90,95)" stroke-width="0.6" opacity="1" d="M 61.5 193 L 79 193.5 L 61.5 194 L 61.5 193 Z " /><path fill="rgb(102,71,117)" stroke="rgb(102,71,117)" stroke-width="0.6" opacity="1" d="M 198.5 77 L 203.5 83 L 198.5 77 Z " /><path fill="rgb(102,71,117)" stroke="rgb(102,71,117)" stroke-width="0.6" opacity="1" d="M 390.5 307 L 385.5 313 L 390.5 307 Z " /><path fill="rgb(102,71,117)" stroke="rgb(102,71,117)" stroke-width="0.6" opacity="1" d="M 249.5 372 L 260 372.5 L 249.5 373 L 249.5 372 Z " /><path fill="rgb(102,71,117)" stroke="rgb(102,71,117)" stroke-width="0.6" opacity="1" d="M 226.5 382 L 221.5 388 L 226.5 382 Z " /><path fill="rgb(124,125,127)" stroke="rgb(124,125,127)" stroke-width="0.6" opacity="1" d="M 62.5 201 L 78 201.5 L 62.5 202 L 62.5 201 Z " /><path fill="rgb(207,207,207)" stroke="rgb(207,207,207)" stroke-width="0.6" opacity="1" d="M 360.5 64 L 372 64.5 L 360.5 65 L 360.5 64 Z " /><path fill="rgb(207,207,207)" stroke="rgb(207,207,207)" stroke-width="0.6" opacity="1" d="M 437.5 104 L 443.5 111 L 437.5 104 Z " /><path fill="rgb(207,207,207)" stroke="rgb(207,207,207)" stroke-width="0.6" opacity="1" d="M 416.5 208 L 430 208.5 L 416.5 209 L 416.5 208 Z " /><path fill="rgb(167,167,168)" stroke="rgb(167,167,168)" stroke-width="0.6" opacity="1" d="M 72.5 117 L 66.5 124 L 72.5 117 Z " /></svg>