<svg width="1254" height="1254" preserveAspectRatio="xMidYMid meet" viewBox="0 0 512 512" version="1.1" xmlns="http://www.w3.org/2000/svg" ><path fill="rgb(255,255,255)" stroke="rgb(255,255,255)" stroke-width="0.6" opacity="1" d="M 0 0 L 512 0 L 512 512 L 0 512 L 0 0 Z M 455 90 L 372 110 L 340 116 L 278 132 L 272 132 L 252 138 L 238 140 L 209 148 L 204 148 L 184 154 L 133 165 L 37 189 L 31 196 L 31 246 L 37 279 L 53 319 L 78 355 Q 104 384 142 402 L 181 416 L 216 422 L 265 422 L 292 418 L 315 412 Q 371 395 410 359 Q 441 330 460 288 L 474 248 L 480 213 L 480 196 L 481 195 L 480 148 L 474 113 L 468 95 Q 465 88 455 90 Z " /><path fill="rgb(225,67,66)" stroke="rgb(225,67,66)" stroke-width="0.6" opacity="1" d="M 432.5 104 L 435 105.5 L 443 142.5 L 445 182.5 L 439 227.5 L 429 259.5 Q 412.1 300.6 381.5 328 Q 358.8 348.3 328.5 361 L 309.5 367 L 288.5 371 L 249.5 372 L 227.5 369 L 211.5 365 L 170.5 347 Q 141.2 329.3 120 303.5 Q 82.6 258.4 67 191.5 L 71.5 189 L 133.5 174 L 159.5 169 L 200.5 158 L 214.5 156 L 234.5 150 L 291.5 138 L 315.5 131 L 337.5 127 L 432.5 104 Z M 321 154 L 316 156 L 312 161 L 313 164 L 315 165 L 330 166 L 337 172 Q 341 173 342 170 L 338 162 Q 333 154 321 154 Z M 401 161 L 395 162 L 392 167 Q 398 175 409 180 Q 420 182 422 175 Q 423 169 420 167 Q 414 160 401 161 Z M 202 182 L 193 186 L 185 196 L 184 206 L 189 208 Q 193 205 193 199 Q 197 192 207 191 L 209 187 Q 207 182 202 182 Z M 319 185 L 315 187 Q 308 192 305 201 L 305 216 L 310 227 Q 315 235 326 237 L 337 234 Q 344 229 346 219 L 346 209 L 340 195 L 328 185 L 319 185 Z M 213 209 L 207 212 Q 199 218 197 230 Q 196 244 203 252 L 215 261 Q 225 263 230 259 Q 238 254 240 243 Q 241 227 234 220 L 222 209 L 213 209 Z M 381 218 L 378 221 L 383 231 L 395 240 L 403 239 L 406 235 L 405 228 Q 398 217 381 218 Z M 143 241 L 132 246 L 123 257 L 125 264 L 130 267 Q 136 268 139 264 Q 146 258 148 247 L 147 243 L 143 241 Z M 306 242 L 302 248 Q 295 257 280 258 Q 268 259 261 256 L 256 251 L 253 252 L 246 262 L 252 263 L 259 275 Q 265 283 277 286 Q 289 287 295 282 Q 302 276 306 266 Q 305 260 308 259 L 308 252 L 311 249 L 310 245 L 306 242 Z M 354 272 L 352 274 L 352 280 L 357 292 L 367 299 L 372 298 L 376 293 L 375 286 L 362 274 L 354 272 Z M 184 284 L 178 288 L 167 301 L 167 310 Q 169 316 178 314 Q 189 307 188 287 L 184 284 Z M 305 311 L 301 315 Q 299 329 303 337 L 310 342 L 315 341 L 320 334 Q 317 322 310 315 L 305 311 Z M 247 313 L 242 318 L 236 331 L 237 342 L 242 345 L 250 344 L 254 337 Q 255 324 251 317 L 247 313 Z " /><path fill="rgb(225,67,66)" stroke="rgb(225,67,66)" stroke-width="0.6" opacity="1" d="M 318.5 193 Q 327 191 329 195.5 L 327.5 198 L 318 202.5 L 312.5 209 Q 309.8 207.8 311 202.5 Q 311.7 196.2 316.5 194 L 318.5 193 Z " /><path fill="rgb(69,143,69)" stroke="rgb(69,143,69)" stroke-width="0.6" opacity="1" d="M 455.5 99 Q 460.5 98 461.5 101 L 463 100.5 L 462 104.5 L 463 108 L 465 109.5 L 464 112.5 L 465 116 L 467 117.5 L 466 121.5 L 467 126 L 469 127.5 L 468 132.5 L 469 138 Q 472.3 136.7 471 141.5 L 470 150.5 L 471 159 Q 474.5 157.9 473 165.5 L 472 166.5 L 472 196.5 L 473 203 Q 469 201.6 471 208.5 L 470 216.5 L 471 221 Q 467.7 219.7 469 224.5 L 466 239.5 L 467 242 Q 464 240.8 465 244.5 L 456 274.5 L 456.5 276 L 454 276.5 L 455 280.5 L 452 281.5 L 450 288.5 L 450.5 290 L 448 290.5 L 449 293.5 L 446 294.5 L 444 299.5 L 444.5 301 L 443 302.5 L 436 313.5 L 436.5 315 L 434 315.5 Q 420.5 338.5 400.5 355 Q 383.6 369.6 363 380.5 L 363.5 382 L 361.5 382 L 360 383.5 L 357.5 384 L 356 385.5 L 354.5 385 L 351 386.5 L 351.5 388 L 348.5 387 L 319.5 398 L 296 402 Q 297.3 405 293.5 404 L 286.5 403 L 285.5 404 L 248.5 404 L 239.5 403 L 235 404 Q 236.3 400.3 230.5 402 L 224.5 401 L 222 402 Q 223.3 399 219.5 400 Q 195.2 394.8 175.5 385 L 174 385.5 L 173.5 383 L 160.5 377 L 159 377.5 L 158.5 375 Q 127.5 358.5 106 332.5 L 82.5 302 L 81 302.5 L 81 300.5 L 76.5 292 L 75 292.5 L 75 290.5 L 70.5 282 L 69 282.5 L 69 280.5 L 57.5 255 L 56 254.5 L 57 251.5 L 47 225.5 L 41 202.5 L 41 197.5 L 42.5 196 L 61 193 Q 62.5 209.6 68 222 L 70 223.5 L 69 225.5 Q 86.1 274.7 116 310 L 118 311.5 L 139 331 L 140.5 333 L 160.5 349 L 190.5 365 Q 215.6 376.9 250.5 379 L 255 378 L 255.5 380 L 274 380 L 275.5 378 L 287.5 379 L 317.5 373 Q 336.8 367.3 352 357.5 L 351.5 356 L 353.5 356 Q 379.5 342.5 398 321.5 Q 412.4 306.9 422 287.5 L 421.5 286 L 424 285.5 L 432 269.5 L 431 267 L 434 265.5 L 442 241.5 L 441 239 L 443 237.5 L 444 233.5 L 443 231 L 445 229.5 L 446 225.5 L 445 223 Q 448 224.3 447 220.5 L 448 216.5 L 447 213 Q 450 214.3 449 210.5 L 450 201.5 L 449 196 Q 452.8 197.1 451 188.5 L 452 187.5 L 452 161.5 L 451 156 Q 447.5 157.1 449 149.5 L 450 139.5 L 449 135 Q 446 136.3 447 132.5 L 448 128.5 L 447 124 L 445 122.5 L 446 117.5 L 442 103.5 L 455.5 99 Z " /><path fill="rgb(69,143,69)" stroke="rgb(69,143,69)" stroke-width="0.6" opacity="1" d="M 215.5 216 Q 221.3 215.3 222 219.5 L 218.5 224 Q 214 229.2 205 229 Q 205.4 220.6 211.5 217 L 215.5 216 Z " /><path fill="rgb(5,5,5)" stroke="rgb(5,5,5)" stroke-width="0.6" opacity="1" d="M 453.5 93 Q 463.5 90.5 466 95.5 L 472 114.5 L 472 121.5 L 474 124.5 Q 472.7 132.8 476 136.5 Q 474.4 148.6 478 155.5 L 478 205.5 L 476 211.5 L 476 222.5 L 474 225.5 L 474 234.5 Q 470.8 236.8 472 243.5 L 470 246.5 L 468 258.5 L 466 260.5 L 466 265.5 L 464 267.5 L 464 271.5 L 458 286.5 Q 439.2 328.7 407.5 358 Q 374.5 388.5 327.5 405 L 296.5 414 L 273.5 418 Q 261.9 416.9 254.5 420 L 228.5 420 L 188.5 415 L 149.5 403 L 114.5 384 Q 95.2 370.8 80 353.5 L 56 319.5 L 42 286.5 L 37 266.5 L 37 258.5 L 35 256.5 L 35 243.5 L 32 237.5 L 32 202 L 36 203 L 34 194.5 L 41.5 190 L 83.5 180 L 88.5 180 L 91.5 178 L 96.5 178 L 107.5 174 L 112.5 174 L 140.5 166 L 145.5 166 L 156.5 162 L 179.5 158 L 199.5 152 L 453.5 93 Z M 454 96 L 439 102 L 444 121 L 446 141 L 448 147 L 448 165 L 446 165 L 446 146 Q 443 141 444 132 L 442 129 L 442 122 L 438 110 L 438 105 L 435 101 L 407 108 L 401 108 L 382 114 L 376 114 L 373 116 L 367 116 L 356 120 L 342 122 L 339 124 L 333 124 L 322 128 L 316 128 L 296 134 L 243 145 L 239 147 L 234 147 L 223 151 L 209 153 L 206 155 L 200 155 L 156 167 L 151 167 L 139 171 L 133 171 L 130 173 L 100 179 L 97 181 L 92 181 L 89 183 L 75 185 L 65 189 L 68 207 L 82 247 Q 97 280 119 306 Q 144 336 181 355 L 216 369 L 249 375 L 282 375 L 287 373 L 295 373 L 299 371 L 314 369 L 316 367 L 320 367 L 336 361 L 351 353 L 381 332 L 407 304 L 420 284 L 430 264 L 442 226 Q 441 218 444 215 L 444 205 L 446 202 L 446 185 L 447 184 L 447 168 L 449 167 L 448 203 L 440 242 L 425 280 L 401 315 Q 380 339 351 356 L 321 369 L 281 377 L 248 377 L 209 369 Q 169 356 141 331 Q 110 304 90 268 L 72 227 L 62 189 L 43 193 L 37 197 L 43 217 L 43 222 L 45 224 L 45 229 L 47 231 L 51 246 L 59 262 L 59 265 Q 77 304 104 334 L 136 363 L 174 387 L 187 393 L 212 401 L 225 404 L 251 407 L 294 406 L 319 401 L 338 395 Q 379 379 408 350 L 411 348 L 432 324 L 456 282 L 460 272 L 460 268 L 464 261 L 464 256 L 468 246 L 468 240 L 470 237 Q 469 230 472 227 L 472 217 L 474 212 L 474 195 L 475 194 L 474 149 Q 470 143 472 132 L 470 128 L 468 113 L 466 110 L 466 105 L 462 98 Q 460 94 454 96 Z M 37 216 L 35 218 L 39 261 L 43 271 L 43 276 L 47 286 L 47 290 L 63 324 L 82 350 Q 108 379 145 397 L 183 410 L 219 416 L 265 416 Q 275 412 290 413 L 292 409 L 277 410 L 237 409 L 214 405 L 189 397 L 159 383 L 121 356 L 94 329 L 72 298 Q 51 262 39 218 L 37 216 Z " /><path fill="rgb(5,5,5)" stroke="rgb(5,5,5)" stroke-width="0.6" opacity="1" d="M 316.5 158 Q 331.9 155.6 337 163.5 L 339 167.5 L 336.5 168 Q 331 161.5 319.5 161 L 314 162 L 316.5 158 Z " /><path fill="rgb(5,5,5)" stroke="rgb(5,5,5)" stroke-width="0.6" opacity="1" d="M 396.5 164 Q 413.3 161.3 419 169.5 Q 420.3 175.8 416.5 177 L 408.5 177 L 396 167.5 L 395 165.5 L 396.5 164 Z " /><path fill="rgb(5,5,5)" stroke="rgb(5,5,5)" stroke-width="0.6" opacity="1" d="M 197.5 186 Q 204.3 184.3 206 187.5 L 197.5 191 L 193 195.5 L 187.5 205 L 186 202.5 Q 186.9 192.4 193.5 188 L 197.5 186 Z " /><path fill="rgb(5,5,5)" stroke="rgb(5,5,5)" stroke-width="0.6" opacity="1" d="M 318.5 188 L 327.5 188 L 338 195.5 L 342 203.5 L 343 217.5 Q 342 226.5 336.5 231 Q 333 235 324.5 234 Q 316.2 231.9 312 225.5 Q 305.9 216.9 307 202 Q 310.8 200.9 309 209.5 L 313.5 212 L 319.5 204 L 328.5 201 L 332 197.5 L 326.5 190 L 318.5 190 L 310 197.5 Q 311 201.3 308 200 Q 309.1 193.4 314.5 190 L 318.5 188 Z M 335 200 L 333 206 L 338 208 L 339 204 L 335 200 Z " /><path fill="rgb(5,5,5)" stroke="rgb(5,5,5)" stroke-width="0.6" opacity="1" d="M 211.5 212 L 221.5 212 L 232 220.5 Q 237.7 228.3 237 242.5 Q 235.9 251.9 229.5 256 Q 224.5 260 213.5 258 L 205 250.5 L 200 238.5 L 200 226.5 L 202 220.5 L 206.5 215 L 211.5 212 Z M 212 214 L 209 216 L 202 227 Q 201 232 205 233 L 215 230 L 225 223 L 227 220 Q 224 212 212 214 Z " /><path fill="rgb(5,5,5)" stroke="rgb(5,5,5)" stroke-width="0.6" opacity="1" d="M 382.5 221 Q 396.8 220.7 403 228.5 Q 404.5 235.5 400.5 237 Q 388.7 237.3 385 229.5 L 381 222.5 L 382.5 221 Z " /><path fill="rgb(5,5,5)" stroke="rgb(5,5,5)" stroke-width="0.6" opacity="1" d="M 143.5 244 L 145 248.5 L 137.5 262 L 129.5 264 L 126 257.5 Q 126.7 251.2 131.5 249 L 143.5 244 Z " /><path fill="rgb(5,5,5)" stroke="rgb(5,5,5)" stroke-width="0.6" opacity="1" d="M 305.5 245 L 309 246.5 L 305 250.5 L 305 259.5 L 301 271.5 L 294.5 279 Q 288.9 284.4 276.5 283 Q 267.9 281.1 263 275.5 L 252.5 260 L 250.5 261 L 249 259.5 L 254.5 254 Q 261.7 263.3 280.5 261 Q 296.1 258.6 304 248.5 L 305.5 245 Z M 259 261 L 257 263 L 260 263 Q 259 269 263 272 Q 268 279 278 281 L 286 281 L 295 276 L 296 270 Q 292 264 285 263 L 277 264 L 262 263 L 259 261 Z " /><path fill="rgb(5,5,5)" stroke="rgb(5,5,5)" stroke-width="0.6" opacity="1" d="M 354 275 Q 365.9 276.8 372 285.5 L 373 292.5 Q 372 297 365.5 296 L 359 290.5 L 354 275 Z " /><path fill="rgb(5,5,5)" stroke="rgb(5,5,5)" stroke-width="0.6" opacity="1" d="M 183.5 287 Q 186.8 285.9 186 288.5 L 183 305.5 L 177.5 311 Q 170.5 312.5 169 308.5 L 168 304.5 Q 171.2 295.2 178.5 290 L 183.5 287 Z " /><path fill="rgb(5,5,5)" stroke="rgb(5,5,5)" stroke-width="0.6" opacity="1" d="M 305.5 314 L 311 318.5 L 317 328.5 L 317 335.5 Q 315.7 340.3 308.5 339 L 304 333.5 L 303 318.5 L 305.5 314 Z " /><path fill="rgb(5,5,5)" stroke="rgb(5,5,5)" stroke-width="0.6" opacity="1" d="M 246.5 316 L 250 321.5 L 251 337.5 L 247.5 342 Q 240.5 343.5 239 339.5 L 239 329.5 L 246.5 316 Z " /><path fill="rgb(40,47,42)" stroke="rgb(40,47,42)" stroke-width="0.6" opacity="1" d="M 478.5 160 L 479 179.5 L 478 179.5 L 478.5 160 Z " /><path fill="rgb(40,47,42)" stroke="rgb(40,47,42)" stroke-width="0.6" opacity="1" d="M 449.5 172 L 450 182.5 L 449 182.5 L 449.5 172 Z " /><path fill="rgb(40,47,42)" stroke="rgb(40,47,42)" stroke-width="0.6" opacity="1" d="M 478.5 183 L 479 196.5 L 478 196.5 L 478.5 183 Z " /><path fill="rgb(40,47,42)" stroke="rgb(40,47,42)" stroke-width="0.6" opacity="1" d="M 36.5 217 L 39 218.5 L 38.5 220 L 38 218 Q 34 216.6 36 223.5 L 35 223.5 Q 33.8 218.3 36.5 217 Z " /><path fill="rgb(40,47,42)" stroke="rgb(40,47,42)" stroke-width="0.6" opacity="1" d="M 39.5 230 L 43 232.5 L 41 233 Q 47.2 256.7 58.5 276 L 59.5 274 L 61 276.5 L 59 276.5 L 61.5 281 L 63 280.5 L 62 283.5 L 64.5 287 L 65.5 285 L 66 286.5 L 65 289.5 Q 86 328 117.5 356 Q 142.8 379.7 176.5 395 L 210.5 407 L 237.5 412 L 246 412 Q 244.9 408.3 253.5 410 L 254.5 412 Q 251.5 411.2 253 415 L 260 415.5 L 247 416 L 246.5 414 L 232.5 414 L 206.5 412 L 181.5 407 L 137.5 391 L 137.5 393 L 135 391.5 L 137 390.5 L 128.5 386 L 126.5 386 L 125 385.5 L 127 384.5 Q 102.4 369.6 84 348.5 Q 67.1 328.9 55.5 304 L 54 304.5 L 55 300.5 L 51 292.5 L 42 261.5 L 39 240.5 L 39.5 230 Z " /><path fill="rgb(40,47,42)" stroke="rgb(40,47,42)" stroke-width="0.6" opacity="1" d="M 177.5 290 L 172.5 296 L 177.5 290 Z " /><path fill="rgb(40,47,42)" stroke="rgb(40,47,42)" stroke-width="0.6" opacity="1" d="M 122.5 308 L 127.5 314 L 122.5 308 Z " /><path fill="rgb(40,47,42)" stroke="rgb(40,47,42)" stroke-width="0.6" opacity="1" d="M 132.5 323 L 138.5 330 L 132.5 323 Z " /><path fill="rgb(40,47,42)" stroke="rgb(40,47,42)" stroke-width="0.6" opacity="1" d="M 103.5 339 L 112.5 349 L 103.5 339 Z " /><path fill="rgb(40,47,42)" stroke="rgb(40,47,42)" stroke-width="0.6" opacity="1" d="M 110.5 339 L 119.5 349 L 110.5 339 Z " /><path fill="rgb(40,47,42)" stroke="rgb(40,47,42)" stroke-width="0.6" opacity="1" d="M 81.5 355 L 93.5 368 L 81.5 355 Z " /><path fill="rgb(40,47,42)" stroke="rgb(40,47,42)" stroke-width="0.6" opacity="1" d="M 252.5 374 L 276 374.5 L 252.5 375 L 252.5 374 Z " /><path fill="rgb(40,47,42)" stroke="rgb(40,47,42)" stroke-width="0.6" opacity="1" d="M 259.5 377 L 273 377.5 L 259.5 378 L 259.5 377 Z " /><path fill="rgb(40,47,42)" stroke="rgb(40,47,42)" stroke-width="0.6" opacity="1" d="M 258.5 406 L 273 406.5 L 258.5 407 L 258.5 406 Z " /><path fill="rgb(40,47,42)" stroke="rgb(40,47,42)" stroke-width="0.6" opacity="1" d="M 228.5 420 L 254 420.5 L 228.5 421 L 228.5 420 Z " /><path fill="rgb(75,77,76)" stroke="rgb(75,77,76)" stroke-width="0.6" opacity="1" d="M 39.5 225 L 41 227.5 L 40.5 229 L 42 231 L 39.5 230 L 37.5 231 L 38 229.5 L 39.5 225 Z " /><path fill="rgb(75,77,76)" stroke="rgb(75,77,76)" stroke-width="0.6" opacity="1" d="M 41 233 L 43 234.5 L 49 250.5 L 48.5 252 Q 51.1 251.2 50 254.5 L 48 253.5 L 44 242.5 L 44.5 241 Q 41.9 241.8 43 238.5 L 41 233 Z " /><path fill="rgb(75,77,76)" stroke="rgb(75,77,76)" stroke-width="0.6" opacity="1" d="M 55.5 266 L 59 273.5 L 57 274.5 L 54 267.5 L 55.5 266 Z " /><path fill="rgb(75,77,76)" stroke="rgb(75,77,76)" stroke-width="0.6" opacity="1" d="M 260.5 273 L 266.5 280 L 260.5 273 Z " /><path fill="rgb(75,77,76)" stroke="rgb(75,77,76)" stroke-width="0.6" opacity="1" d="M 46.5 283 Q 50.7 281.7 49 286.5 L 51 291.5 L 49 292.5 L 46.5 283 Z " /><path fill="rgb(75,77,76)" stroke="rgb(75,77,76)" stroke-width="0.6" opacity="1" d="M 67.5 290 L 67.5 292 L 70 293.5 L 71 295.5 L 69 296.5 L 69.5 295 L 67 293.5 L 66 291.5 L 67.5 290 Z " /><path fill="rgb(75,77,76)" stroke="rgb(75,77,76)" stroke-width="0.6" opacity="1" d="M 52.5 295 L 55 301.5 L 54.5 304 L 53 301.5 L 53.5 300 L 52 299.5 L 52.5 298 L 51 296.5 L 52.5 295 Z " /><path fill="rgb(75,77,76)" stroke="rgb(75,77,76)" stroke-width="0.6" opacity="1" d="M 71.5 297 L 71.5 299 L 74 300.5 L 76 303.5 Q 74.5 306.5 73 303.5 L 70 298.5 L 71.5 297 Z " /><path fill="rgb(75,77,76)" stroke="rgb(75,77,76)" stroke-width="0.6" opacity="1" d="M 55 305 L 57 305.5 L 56.5 307 L 58 308.5 L 60 311.5 L 59.5 313 L 61 313.5 L 60.5 315 L 62 315.5 L 61.5 317 L 63 317.5 L 62.5 319 L 65 320.5 L 71 332.5 L 69 331.5 L 63 321.5 L 63.5 320 L 61 318.5 L 55 305 Z " /><path fill="rgb(75,77,76)" stroke="rgb(75,77,76)" stroke-width="0.6" opacity="1" d="M 128.5 314 L 138.5 325 L 128.5 314 Z " /><path fill="rgb(75,77,76)" stroke="rgb(75,77,76)" stroke-width="0.6" opacity="1" d="M 396.5 320 L 387.5 330 L 396.5 320 Z " /><path fill="rgb(75,77,76)" stroke="rgb(75,77,76)" stroke-width="0.6" opacity="1" d="M 99.5 335 L 104 341.5 L 100 338.5 L 99.5 335 Z " /><path fill="rgb(75,77,76)" stroke="rgb(75,77,76)" stroke-width="0.6" opacity="1" d="M 113.5 349 L 120.5 357 L 114 352.5 L 113.5 349 Z " /><path fill="rgb(75,77,76)" stroke="rgb(75,77,76)" stroke-width="0.6" opacity="1" d="M 406.5 350 L 399.5 358 L 406.5 350 Z " /><path fill="rgb(75,77,76)" stroke="rgb(75,77,76)" stroke-width="0.6" opacity="1" d="M 88.5 353 L 93.5 360 L 94.5 359 L 98 362.5 L 96.5 363 L 88 355.5 L 88.5 353 Z " /><path fill="rgb(75,77,76)" stroke="rgb(75,77,76)" stroke-width="0.6" opacity="1" d="M 153.5 380 L 155.5 383 L 157.5 383 L 160 384.5 L 160.5 386 L 162 385.5 L 162.5 387 L 164 386.5 L 164.5 388 L 166 387.5 L 166.5 389 L 168 388.5 L 168.5 390 L 170 389.5 L 167.5 390 L 152 381.5 L 153.5 380 Z " /><path fill="rgb(75,77,76)" stroke="rgb(75,77,76)" stroke-width="0.6" opacity="1" d="M 130.5 386 L 137 390.5 L 134.5 391 L 131 388.5 L 130.5 387 L 129 387.5 L 130.5 386 Z " /><path fill="rgb(75,77,76)" stroke="rgb(75,77,76)" stroke-width="0.6" opacity="1" d="M 138 391 L 150 395.5 L 147.5 397 L 140 394 L 139.5 392 L 138 392.5 L 138 391 Z " /><path fill="rgb(75,77,76)" stroke="rgb(75,77,76)" stroke-width="0.6" opacity="1" d="M 182.5 395 L 189 397.5 L 186.5 399 L 184 398 L 183.5 396 L 181.5 397 L 182.5 395 Z " /><path fill="rgb(75,77,76)" stroke="rgb(75,77,76)" stroke-width="0.6" opacity="1" d="M 191.5 398 L 201 401.5 L 197.5 403 L 191 401 L 191.5 398 Z " /><path fill="rgb(75,77,76)" stroke="rgb(75,77,76)" stroke-width="0.6" opacity="1" d="M 232.5 414 L 246.5 414 L 247 416 L 227 415.5 L 232.5 414 Z " /><path fill="rgb(24,24,24)" stroke="rgb(24,24,24)" stroke-width="0.6" opacity="1" d="M 448.5 156 L 449 167 L 447 167.5 L 447 183.5 L 446 183.5 L 446 165.5 L 448 164.5 L 448.5 156 Z " /><path fill="rgb(24,24,24)" stroke="rgb(24,24,24)" stroke-width="0.6" opacity="1" d="M 199.5 185 Q 205.8 183.8 207 187.5 L 205 188.5 L 204.5 186 Q 198.5 187.3 199.5 185 Z " /><path fill="rgb(24,24,24)" stroke="rgb(24,24,24)" stroke-width="0.6" opacity="1" d="M 330.5 194 L 332 197.5 L 328 200.5 L 331 195.5 L 330.5 194 Z " /><path fill="rgb(24,24,24)" stroke="rgb(24,24,24)" stroke-width="0.6" opacity="1" d="M 33.5 195 L 36 203 L 32 202 L 33.5 195 Z " /><path fill="rgb(24,24,24)" stroke="rgb(24,24,24)" stroke-width="0.6" opacity="1" d="M 336.5 201 Q 339.8 201.8 339 206.5 L 335.5 208 L 333.5 205 L 336.5 207 L 338 203.5 L 336.5 201 Z " /><path fill="rgb(24,24,24)" stroke="rgb(24,24,24)" stroke-width="0.6" opacity="1" d="M 222.5 215 L 227 219.5 L 226 220.5 L 224.5 223 L 225 221.5 Q 225.5 215.8 222.5 215 Z " /><path fill="rgb(24,24,24)" stroke="rgb(24,24,24)" stroke-width="0.6" opacity="1" d="M 202.5 226 L 204.5 232 L 207 232.5 L 204.5 233 Q 200.5 231.5 202.5 226 Z " /><path fill="rgb(24,24,24)" stroke="rgb(24,24,24)" stroke-width="0.6" opacity="1" d="M 32.5 238 Q 36.4 242.6 35 252.5 L 34 252.5 L 34 243.5 L 32.5 238 Z " /><path fill="rgb(24,24,24)" stroke="rgb(24,24,24)" stroke-width="0.6" opacity="1" d="M 267.5 260 L 281 260.5 L 267.5 261 L 267.5 260 Z " /><path fill="rgb(24,24,24)" stroke="rgb(24,24,24)" stroke-width="0.6" opacity="1" d="M 122.5 313 L 131.5 323 L 122.5 313 Z " /><path fill="rgb(24,24,24)" stroke="rgb(24,24,24)" stroke-width="0.6" opacity="1" d="M 398.5 313 L 389.5 323 L 398.5 313 Z " /><path fill="rgb(24,24,24)" stroke="rgb(24,24,24)" stroke-width="0.6" opacity="1" d="M 397.5 318 L 384.5 332 L 397.5 318 Z " /><path fill="rgb(24,24,24)" stroke="rgb(24,24,24)" stroke-width="0.6" opacity="1" d="M 104.5 333 L 109.5 339 L 104.5 333 Z " /><path fill="rgb(24,24,24)" stroke="rgb(24,24,24)" stroke-width="0.6" opacity="1" d="M 418.5 339 L 410.5 348 L 418.5 339 Z " /><path fill="rgb(24,24,24)" stroke="rgb(24,24,24)" stroke-width="0.6" opacity="1" d="M 277.5 409 L 291.5 409 L 292 410.5 L 289.5 413 L 276.5 414 L 275.5 411 L 254 410.5 L 276.5 410 L 277.5 409 Z " /><path fill="rgb(106,101,101)" stroke="rgb(106,101,101)" stroke-width="0.6" opacity="1" d="M 473.5 168 L 474 193.5 L 473 193.5 L 473.5 168 Z " /><path fill="rgb(106,101,101)" stroke="rgb(106,101,101)" stroke-width="0.6" opacity="1" d="M 445.5 174 L 446 185.5 L 445 185.5 L 445.5 174 Z " /><path fill="rgb(106,101,101)" stroke="rgb(106,101,101)" stroke-width="0.6" opacity="1" d="M 204.5 184 L 208 186.5 L 205.5 190 L 207 187.5 L 205.5 185 L 204.5 184 Z " /><path fill="rgb(106,101,101)" stroke="rgb(106,101,101)" stroke-width="0.6" opacity="1" d="M 190.5 202 L 191 203.5 Q 188 210 185 204.5 Q 187.5 208 190 203.5 L 190.5 202 Z " /><path fill="rgb(106,101,101)" stroke="rgb(106,101,101)" stroke-width="0.6" opacity="1" d="M 220.5 215 L 225 220.5 L 222 222.5 L 224 219.5 L 220.5 215 Z " /><path fill="rgb(106,101,101)" stroke="rgb(106,101,101)" stroke-width="0.6" opacity="1" d="M 269.5 259 L 280 259.5 L 269.5 260 L 269.5 259 Z " /><path fill="rgb(106,101,101)" stroke="rgb(106,101,101)" stroke-width="0.6" opacity="1" d="M 80.5 311 L 93 328.5 L 90 326.5 L 80 312.5 L 80.5 311 Z " /><path fill="rgb(106,101,101)" stroke="rgb(106,101,101)" stroke-width="0.6" opacity="1" d="M 122.5 314 L 132.5 325 L 122.5 314 Z " /><path fill="rgb(106,101,101)" stroke="rgb(106,101,101)" stroke-width="0.6" opacity="1" d="M 395.5 315 L 390.5 321 L 395.5 315 Z " /><path fill="rgb(106,101,101)" stroke="rgb(106,101,101)" stroke-width="0.6" opacity="1" d="M 113.5 376 L 121 380.5 L 119.5 381 L 113.5 376 Z " /><path fill="rgb(106,101,101)" stroke="rgb(106,101,101)" stroke-width="0.6" opacity="1" d="M 124.5 383 L 131 387.5 L 129.5 387 L 124.5 383 Z " /><path fill="rgb(106,101,101)" stroke="rgb(106,101,101)" stroke-width="0.6" opacity="1" d="M 170.5 404 L 180 406 L 178.5 408 L 171.5 406 L 170.5 404 Z " /><path fill="rgb(165,101,101)" stroke="rgb(165,101,101)" stroke-width="0.6" opacity="1" d="M 333.5 158 L 338.5 164 L 333.5 158 Z " /><path fill="rgb(165,101,101)" stroke="rgb(165,101,101)" stroke-width="0.6" opacity="1" d="M 394.5 163 L 394 164.5 L 397 169.5 L 393 166.5 L 394.5 163 Z " /><path fill="rgb(165,101,101)" stroke="rgb(165,101,101)" stroke-width="0.6" opacity="1" d="M 193.5 186 L 188.5 192 L 193.5 186 Z " /><path fill="rgb(165,101,101)" stroke="rgb(165,101,101)" stroke-width="0.6" opacity="1" d="M 198.5 192 L 193.5 198 L 198.5 192 Z " /><path fill="rgb(165,101,101)" stroke="rgb(165,101,101)" stroke-width="0.6" opacity="1" d="M 305.5 201 L 306 213.5 L 305 213.5 L 305.5 201 Z " /><path fill="rgb(165,101,101)" stroke="rgb(165,101,101)" stroke-width="0.6" opacity="1" d="M 207.5 212 L 202.5 218 L 207.5 212 Z " /><path fill="rgb(165,101,101)" stroke="rgb(165,101,101)" stroke-width="0.6" opacity="1" d="M 198.5 227 L 199 237.5 L 198 237.5 L 198.5 227 Z " /><path fill="rgb(165,101,101)" stroke="rgb(165,101,101)" stroke-width="0.6" opacity="1" d="M 340.5 228 L 335.5 234 L 340.5 228 Z " /><path fill="rgb(165,101,101)" stroke="rgb(165,101,101)" stroke-width="0.6" opacity="1" d="M 304.5 243 Q 309.3 242.3 310 245.5 L 307.5 244 L 303.5 246 L 303 244.5 L 304.5 243 Z " /><path fill="rgb(165,101,101)" stroke="rgb(165,101,101)" stroke-width="0.6" opacity="1" d="M 302.5 247 L 297.5 253 L 302.5 247 Z " /><path fill="rgb(165,101,101)" stroke="rgb(165,101,101)" stroke-width="0.6" opacity="1" d="M 267.5 258 L 282 258.5 L 267.5 259 L 267.5 258 Z " /><path fill="rgb(165,101,101)" stroke="rgb(165,101,101)" stroke-width="0.6" opacity="1" d="M 247.5 259 L 249.5 262 L 254 263.5 L 256 267.5 L 254 266.5 L 251.5 263 L 247 261.5 L 247.5 259 Z " /><path fill="rgb(165,101,101)" stroke="rgb(165,101,101)" stroke-width="0.6" opacity="1" d="M 259.5 273 L 266.5 281 L 259.5 273 Z " /><path fill="rgb(165,101,101)" stroke="rgb(165,101,101)" stroke-width="0.6" opacity="1" d="M 118.5 302 L 125.5 310 L 118.5 302 Z " /><path fill="rgb(165,101,101)" stroke="rgb(165,101,101)" stroke-width="0.6" opacity="1" d="M 127.5 312 L 139.5 325 L 127.5 312 Z " /><path fill="rgb(165,101,101)" stroke="rgb(165,101,101)" stroke-width="0.6" opacity="1" d="M 397.5 312 L 379.5 331 L 397.5 312 Z " /><path fill="rgb(165,101,101)" stroke="rgb(165,101,101)" stroke-width="0.6" opacity="1" d="M 301.5 315 L 302 330.5 L 301 330.5 L 301.5 315 Z " /><path fill="rgb(165,101,101)" stroke="rgb(165,101,101)" stroke-width="0.6" opacity="1" d="M 255.5 373 L 273 373.5 L 255.5 374 L 255.5 373 Z " /><path fill="rgb(198,96,96)" stroke="rgb(198,96,96)" stroke-width="0.6" opacity="1" d="M 444.5 159 L 445 173.5 L 444 173.5 L 444.5 159 Z " /><path fill="rgb(198,96,96)" stroke="rgb(198,96,96)" stroke-width="0.6" opacity="1" d="M 394.5 162 L 396 162.5 L 393 164.5 L 393 166.5 L 402 175.5 L 392 166.5 L 394.5 162 Z " /><path fill="rgb(198,96,96)" stroke="rgb(198,96,96)" stroke-width="0.6" opacity="1" d="M 318.5 185 Q 326.7 183.3 330 186.5 L 328.5 187 L 318.5 186 L 318.5 185 Z " /><path fill="rgb(198,96,96)" stroke="rgb(198,96,96)" stroke-width="0.6" opacity="1" d="M 334.5 189 L 339.5 195 L 334.5 189 Z " /><path fill="rgb(198,96,96)" stroke="rgb(198,96,96)" stroke-width="0.6" opacity="1" d="M 184.5 204 L 186.5 207 L 190.5 205 L 188.5 208 L 184 205.5 L 184.5 204 Z " /><path fill="rgb(198,96,96)" stroke="rgb(198,96,96)" stroke-width="0.6" opacity="1" d="M 345.5 208 L 346 218.5 L 345 218.5 L 345.5 208 Z " /><path fill="rgb(198,96,96)" stroke="rgb(198,96,96)" stroke-width="0.6" opacity="1" d="M 380.5 218 L 388 218.5 L 380.5 219 L 379 220.5 L 378.5 223 L 378 220.5 L 380.5 218 Z " /><path fill="rgb(198,96,96)" stroke="rgb(198,96,96)" stroke-width="0.6" opacity="1" d="M 310.5 246 L 311 248.5 L 308 251.5 Q 309.3 258.3 306.5 261 L 306 259.5 L 307 251.5 L 310.5 246 Z " /><path fill="rgb(198,96,96)" stroke="rgb(198,96,96)" stroke-width="0.6" opacity="1" d="M 235.5 252 L 229.5 259 L 235.5 252 Z " /><path fill="rgb(198,96,96)" stroke="rgb(198,96,96)" stroke-width="0.6" opacity="1" d="M 299.5 276 L 294.5 282 L 299.5 276 Z " /><path fill="rgb(198,96,96)" stroke="rgb(198,96,96)" stroke-width="0.6" opacity="1" d="M 177.5 288 L 170.5 296 L 177.5 288 Z " /><path fill="rgb(198,96,96)" stroke="rgb(198,96,96)" stroke-width="0.6" opacity="1" d="M 167.5 309 Q 169 314.5 177.5 313 L 179 312.5 Q 177.5 315.5 171.5 314 L 167.5 309 Z " /><path fill="rgb(198,96,96)" stroke="rgb(198,96,96)" stroke-width="0.6" opacity="1" d="M 126.5 310 L 141.5 326 L 126.5 310 Z " /><path fill="rgb(198,96,96)" stroke="rgb(198,96,96)" stroke-width="0.6" opacity="1" d="M 252.5 372 L 275 372.5 L 252.5 373 L 252.5 372 Z " /><path fill="rgb(111,133,112)" stroke="rgb(111,133,112)" stroke-width="0.6" opacity="1" d="M 444.5 100 L 445 102 L 442 103.5 L 444 111.5 L 442 110.5 L 440 102.5 L 444.5 100 Z " /><path fill="rgb(111,133,112)" stroke="rgb(111,133,112)" stroke-width="0.6" opacity="1" d="M 472.5 174 L 473 191.5 L 472 191.5 L 472.5 174 Z " /><path fill="rgb(111,133,112)" stroke="rgb(111,133,112)" stroke-width="0.6" opacity="1" d="M 107.5 296 L 112 302.5 L 109 300.5 L 107.5 296 Z " /><path fill="rgb(111,133,112)" stroke="rgb(111,133,112)" stroke-width="0.6" opacity="1" d="M 409.5 305 L 409 306.5 L 403.5 314 L 404 312.5 L 409.5 305 Z " /><path fill="rgb(111,133,112)" stroke="rgb(111,133,112)" stroke-width="0.6" opacity="1" d="M 118.5 310 L 125 317.5 L 119 312.5 L 118.5 310 Z " /><path fill="rgb(111,133,112)" stroke="rgb(111,133,112)" stroke-width="0.6" opacity="1" d="M 389.5 321 L 384.5 327 L 389.5 321 Z " /><path fill="rgb(111,133,112)" stroke="rgb(111,133,112)" stroke-width="0.6" opacity="1" d="M 129.5 322 L 139 330.5 L 137.5 331 L 134 326 L 129.5 322 Z " /><path fill="rgb(111,133,112)" stroke="rgb(111,133,112)" stroke-width="0.6" opacity="1" d="M 416.5 339 L 415 341.5 L 412.5 345 L 408.5 348 L 416.5 339 Z " /><path fill="rgb(111,133,112)" stroke="rgb(111,133,112)" stroke-width="0.6" opacity="1" d="M 364.5 348 L 366 348.5 L 357.5 354 L 358.5 352 L 364.5 348 Z " /><path fill="rgb(111,133,112)" stroke="rgb(111,133,112)" stroke-width="0.6" opacity="1" d="M 81.5 356 L 87.5 363 L 81.5 356 Z " /><path fill="rgb(111,133,112)" stroke="rgb(111,133,112)" stroke-width="0.6" opacity="1" d="M 199.5 367 L 223 374.5 L 220.5 375 L 200.5 369 L 199.5 367 Z " /><path fill="rgb(111,133,112)" stroke="rgb(111,133,112)" stroke-width="0.6" opacity="1" d="M 249.5 404 L 285 404.5 L 282.5 406 L 251.5 406 L 249.5 404 Z " /><path fill="rgb(91,139,91)" stroke="rgb(91,139,91)" stroke-width="0.6" opacity="1" d="M 458 97 L 462 99.5 L 464 105.5 L 462 104.5 Q 462.8 99.8 459.5 99 L 458 97 Z " /><path fill="rgb(91,139,91)" stroke="rgb(91,139,91)" stroke-width="0.6" opacity="1" d="M 450 161 L 452 161.5 L 452 175 L 450 174.5 L 450 161 Z " /><path fill="rgb(91,139,91)" stroke="rgb(91,139,91)" stroke-width="0.6" opacity="1" d="M 450 178 L 452 178.5 L 452 188 L 450 187.5 L 450 178 Z " /><path fill="rgb(91,139,91)" stroke="rgb(91,139,91)" stroke-width="0.6" opacity="1" d="M 39.5 197 L 41 198.5 L 43 210.5 L 42 210.5 L 39.5 197 Z " /><path fill="rgb(91,139,91)" stroke="rgb(91,139,91)" stroke-width="0.6" opacity="1" d="M 215.5 215 Q 220.9 213.1 220 216.5 L 224 219 L 222 222.5 L 219.5 224 L 222 220.5 L 218.5 216 Q 214.5 216.8 215.5 215 Z " /><path fill="rgb(91,139,91)" stroke="rgb(91,139,91)" stroke-width="0.6" opacity="1" d="M 49.5 232 L 55 247.5 L 53 246.5 L 49 235.5 L 49.5 232 Z " /><path fill="rgb(91,139,91)" stroke="rgb(91,139,91)" stroke-width="0.6" opacity="1" d="M 439.5 244 L 440 246.5 Q 438.2 258.7 432.5 267 L 431 266.5 L 433 265.5 L 433 263.5 Q 432.3 259.5 435 260.5 L 435 256 L 436.5 256 L 437 253.5 L 439.5 244 Z " /><path fill="rgb(91,139,91)" stroke="rgb(91,139,91)" stroke-width="0.6" opacity="1" d="M 78 247 L 80 247.5 L 80 249.5 L 85 258.5 L 83 259 L 78 247 Z " /><path fill="rgb(91,139,91)" stroke="rgb(91,139,91)" stroke-width="0.6" opacity="1" d="M 463.5 252 L 464 254.5 L 453 284.5 L 448.5 292 L 448 290.5 L 454 279.5 L 463.5 252 Z " /><path fill="rgb(91,139,91)" stroke="rgb(91,139,91)" stroke-width="0.6" opacity="1" d="M 57.5 255 L 61 262 L 59 261.5 L 59 259.5 L 57.5 255 Z " /><path fill="rgb(91,139,91)" stroke="rgb(91,139,91)" stroke-width="0.6" opacity="1" d="M 77.5 293 L 87 307.5 L 85.5 308 L 80 298 L 78 296.5 L 77.5 293 Z " /><path fill="rgb(91,139,91)" stroke="rgb(91,139,91)" stroke-width="0.6" opacity="1" d="M 438.5 310 L 438 311.5 L 430.5 323 L 431 321.5 L 438.5 310 Z " /><path fill="rgb(91,139,91)" stroke="rgb(91,139,91)" stroke-width="0.6" opacity="1" d="M 428.5 325 L 426 328.5 L 422.5 333 L 424 330.5 L 428.5 325 Z " /><path fill="rgb(91,139,91)" stroke="rgb(91,139,91)" stroke-width="0.6" opacity="1" d="M 102.5 328 L 108 334.5 L 102 329.5 L 102.5 328 Z " /><path fill="rgb(91,139,91)" stroke="rgb(91,139,91)" stroke-width="0.6" opacity="1" d="M 153.5 343 L 157 344 Q 155.8 347 159.5 346 L 162.5 350 L 153.5 343 Z " /><path fill="rgb(91,139,91)" stroke="rgb(91,139,91)" stroke-width="0.6" opacity="1" d="M 407.5 348 L 401.5 355 L 407.5 348 Z " /><path fill="rgb(91,139,91)" stroke="rgb(91,139,91)" stroke-width="0.6" opacity="1" d="M 180.5 358 L 181.5 360 L 183.5 360 L 189 362 L 188.5 364 L 180 359.5 L 180.5 358 Z " /><path fill="rgb(91,139,91)" stroke="rgb(91,139,91)" stroke-width="0.6" opacity="1" d="M 325.5 368 L 327 368.5 L 316.5 373 L 316.5 372 L 318 370 L 321.5 370 L 325.5 368 Z " /><path fill="rgb(91,139,91)" stroke="rgb(91,139,91)" stroke-width="0.6" opacity="1" d="M 382.5 368 L 382 369.5 L 380.5 371 L 374 374 L 373.5 376 L 373 374.5 L 382.5 368 Z " /><path fill="rgb(91,139,91)" stroke="rgb(91,139,91)" stroke-width="0.6" opacity="1" d="M 163.5 378 L 171 382.5 L 170.5 384 L 163 380 L 163.5 378 Z " /><path fill="rgb(91,139,91)" stroke="rgb(91,139,91)" stroke-width="0.6" opacity="1" d="M 348.5 387 L 350 387.5 L 344.5 391 L 343 390.5 Q 343.8 393.1 340.5 392 L 336.5 394 L 333.5 395 L 332 394.5 Q 332.9 397.5 328.5 396 L 326 395.5 L 348.5 387 Z " /><path fill="rgb(91,139,91)" stroke="rgb(91,139,91)" stroke-width="0.6" opacity="1" d="M 311.5 399 L 316 399.5 L 305.5 402 L 306.5 400 L 311.5 399 Z " /><path fill="rgb(137,135,135)" stroke="rgb(137,135,135)" stroke-width="0.6" opacity="1" d="M 416.5 350 L 409.5 358 L 416.5 350 Z " /><path fill="rgb(137,135,135)" stroke="rgb(137,135,135)" stroke-width="0.6" opacity="1" d="M 88.5 363 L 94.5 370 L 88.5 363 Z " /><path fill="rgb(137,135,135)" stroke="rgb(137,135,135)" stroke-width="0.6" opacity="1" d="M 230.5 421 L 250 421.5 L 230.5 422 L 230.5 421 Z " /><path fill="rgb(210,211,211)" stroke="rgb(210,211,211)" stroke-width="0.6" opacity="1" d="M 479.5 147 L 480 157.5 L 479 157.5 L 479.5 147 Z " /><path fill="rgb(210,211,211)" stroke="rgb(210,211,211)" stroke-width="0.6" opacity="1" d="M 480.5 164 L 481 194.5 L 480 194.5 L 480.5 164 Z " /><path fill="rgb(210,211,211)" stroke="rgb(210,211,211)" stroke-width="0.6" opacity="1" d="M 31.5 195 L 32 245.5 L 31 245.5 L 31.5 195 Z " /><path fill="rgb(210,211,211)" stroke="rgb(210,211,211)" stroke-width="0.6" opacity="1" d="M 427.5 339 L 421.5 346 L 427.5 339 Z " /><path fill="rgb(210,211,211)" stroke="rgb(210,211,211)" stroke-width="0.6" opacity="1" d="M 417.5 350 L 409.5 359 L 417.5 350 Z " /><path fill="rgb(210,211,211)" stroke="rgb(210,211,211)" stroke-width="0.6" opacity="1" d="M 78.5 354 L 94.5 371 L 78.5 354 Z " /><path fill="rgb(174,174,172)" stroke="rgb(174,174,172)" stroke-width="0.6" opacity="1" d="M 263.5 265 L 271 265.5 L 263 266 L 264 268.5 L 262 267.5 L 263.5 265 Z " /><path fill="rgb(237,217,155)" stroke="rgb(237,217,155)" stroke-width="0.6" opacity="1" d="M 281.5 265 Q 290.9 265.6 295 271.5 L 292.5 275 Q 288.5 280 278.5 279 Q 268.9 276.6 264 269.5 L 263 266 L 280.5 266 L 281.5 265 Z " /></svg>