<svg width="1254" height="1254" preserveAspectRatio="xMidYMid meet" viewBox="0 0 512 512" version="1.1" xmlns="http://www.w3.org/2000/svg" ><path fill="rgb(255,255,255)" stroke="rgb(255,255,255)" stroke-width="0.6" opacity="1" d="M 0 0 L 512 0 L 512 512 L 0 512 L 0 0 Z M 253 33 L 243 37 Q 236 40 235 48 L 237 70 L 237 90 L 236 91 L 224 83 L 209 79 L 164 79 L 149 72 L 145 73 L 141 78 L 142 83 L 150 94 L 158 100 L 159 102 L 151 104 L 134 112 L 101 135 Q 74 159 57 193 L 44 227 L 40 244 L 37 272 L 38 305 L 46 342 Q 59 378 82 405 Q 110 437 152 457 L 171 465 L 202 474 L 241 479 L 286 478 L 327 470 L 366 455 Q 389 443 409 426 Q 441 398 460 356 L 471 319 L 475 287 L 475 269 L 471 235 L 461 203 Q 447 170 425 146 Q 404 123 376 108 L 357 100 L 332 94 L 340 81 L 343 72 Q 344 65 340 63 L 336 63 L 322 73 L 309 77 L 286 81 L 271 88 L 278 52 L 276 43 Q 270 32 253 33 Z " /><path fill="rgb(220,54,53)" stroke="rgb(220,54,53)" stroke-width="0.6" opacity="1" d="M 321.5 104 L 325.5 105 L 330 104 Q 331.4 107.7 325.5 106 L 326.5 108 Q 329.8 111 336 110 L 334.5 107 Q 330.8 108 332 105 L 353.5 110 L 380.5 122 Q 406.3 137.3 425 159.5 L 444 188.5 L 446 197 Q 449.3 195.7 448 200.5 L 446 199.5 Q 447 195.8 444 197 L 446 204 L 450 202 L 458 223.5 L 460 235 L 457 235 L 457 243.5 Q 460.3 245 459 250 Q 462.3 251.3 461 246.5 Q 458 243.3 459 237 Q 462.7 235.7 461 241.5 L 465 261.5 L 465 293.5 L 463 297.5 Q 464.4 310.3 461 317 Q 457 318.4 459 311.5 L 457 312.5 L 457 319.5 L 460 320 L 460 322.5 L 457 333 L 453.5 331 L 452 336 L 456 335 Q 441.5 383.7 407.5 414 Q 391.1 429.6 370.5 441 L 328.5 459 L 283.5 468 L 245.5 469 L 244.5 468 L 228.5 468 L 203.5 464 Q 178.6 458.4 157.5 449 Q 118.2 430.8 91 400.5 L 72 372.5 L 74 369.5 L 72 368.5 Q 73 372.3 70 371 L 70 368 Q 73 369 72 366 L 68 367 L 70 361 L 66 363 L 68 357 L 64 359 L 60 350.5 L 52 323.5 L 49 307.5 L 47 278.5 L 49 254 L 51 254.5 L 51 267.5 L 53 268 L 54 253.5 L 51.5 252 L 50 252.5 L 54 229.5 L 62 205.5 Q 71.1 183.1 85.5 166 L 87 167.5 L 92 163.5 L 93 161.5 L 90 161 L 87.5 165 L 87 163.5 L 108.5 141 Q 133 118 171.5 109 L 181 113 L 179.5 116 L 178 118 L 182 118 Q 180.4 113.1 186 115 L 184.5 118 L 168.5 128 L 148.5 148 L 134 158.5 L 136.5 165 L 142.5 167 L 158.5 168 L 186.5 164 L 201.5 160 Q 219.7 154.7 233.5 145 Q 241 159.5 252.5 170 L 273.5 185 L 288.5 191 L 293 186.5 L 295 168.5 L 293 163.5 L 293 155.5 Q 290 153.5 291 147.5 L 289 144 L 291.5 145 L 321.5 145 Q 328.1 147.9 338.5 147 L 355.5 151 L 365.5 156 L 369.5 156 Q 374.8 155.3 374 148.5 L 362 132 L 360 130.5 L 338.5 114 L 324.5 108 L 319 108 L 321.5 104 Z M 346 110 L 343 112 L 341 114 L 348 117 L 351 112 L 346 110 Z M 358 125 L 358 128 L 364 132 L 364 131 L 358 125 Z M 162 130 L 156 136 L 157 137 L 159 136 L 163 131 L 162 130 Z M 233 147 L 230 152 Q 231 156 236 155 L 233 147 Z M 293 147 L 293 152 L 297 153 L 299 150 Q 298 146 293 147 Z M 315 147 L 303 148 L 301 150 L 304 151 L 316 150 L 322 151 L 338 151 L 338 149 L 315 147 Z M 184 166 L 181 168 Q 175 166 176 170 Q 184 171 187 168 Q 188 165 184 166 Z M 180 228 L 169 232 Q 161 236 159 245 L 155 244 Q 154 249 158 247 L 161 252 L 164 252 Q 168 244 179 241 L 189 242 L 195 238 L 194 234 Q 190 227 180 228 Z M 316 230 L 312 232 L 308 237 L 309 240 L 312 242 Q 324 240 330 245 L 340 255 Q 344 256 345 253 Q 346 244 342 242 L 330 231 L 316 230 Z M 461 264 L 461 291 L 463 291 L 463 265 L 461 264 Z M 179 265 L 176 269 L 180 267 L 182 268 L 184 267 L 190 269 L 191 267 L 187 265 L 179 265 Z M 180 270 L 171 274 L 161 284 L 157 292 Q 158 299 155 303 L 155 313 L 157 322 L 161 330 Q 167 339 180 342 Q 190 343 195 338 L 197 339 L 196 342 L 199 340 L 198 338 Q 208 329 210 312 Q 211 293 204 283 L 193 272 Q 188 269 180 270 Z M 317 272 Q 307 273 302 279 L 296 286 L 291 298 L 291 325 L 297 336 L 308 344 L 313 345 L 325 344 L 332 340 Q 344 331 346 311 L 345 297 L 339 285 L 327 274 L 317 272 Z M 51 298 L 52 310 L 54 311 L 53 304 Q 55 297 51 298 Z M 191 342 L 189 344 L 178 344 L 177 346 L 189 346 L 192 344 L 191 342 Z M 215 348 L 210 353 L 210 360 L 218 371 Q 225 379 238 382 L 259 382 L 274 375 L 287 359 Q 288 350 283 349 Q 277 348 276 352 Q 277 356 273 354 L 270 358 Q 269 360 273 359 L 274 359 L 273 362 Q 266 369 254 371 Q 236 372 228 365 L 223 359 L 227 360 L 225 352 Q 221 351 223 357 Q 219 358 221 351 Q 220 347 215 348 Z M 248 384 L 249 386 L 258 386 L 258 384 L 248 384 Z M 84 386 L 91 398 L 93 399 L 96 402 L 87 389 L 84 386 Z M 220 461 Q 217 463 220 464 Q 228 466 227 462 L 220 461 Z M 293 461 L 292 462 Q 285 460 286 464 L 295 464 L 295 463 L 293 461 Z " /><path fill="rgb(220,54,53)" stroke="rgb(220,54,53)" stroke-width="0.6" opacity="1" d="M 314.5 283 Q 326 282 330 288.5 L 335 296.5 L 335 300.5 L 333 299.5 L 331 291.5 L 325.5 286 Q 320.7 284.3 322 288.5 L 320.5 291 L 330 298.5 L 332 304 Q 335.8 305.5 335 302.5 L 337 303.5 L 337 313.5 L 335.5 315 Q 332.1 315.9 334 310.5 Q 331.4 300.4 325 295 Q 320.6 290.6 309.5 292 L 301 296 Q 302.1 289.4 307.5 286 L 314.5 283 Z " /><path fill="rgb(220,54,53)" stroke="rgb(220,54,53)" stroke-width="0.6" opacity="1" d="M 191.5 300 L 195 301.5 L 193.5 307 L 190 305.5 L 189 302.5 L 191.5 300 Z " /><path fill="rgb(5,5,5)" stroke="rgb(5,5,5)" stroke-width="0.6" opacity="1" d="M 253.5 36 Q 268.4 35.1 274 43.5 L 275 50.5 L 268 90.5 L 271.5 92 L 285.5 84 L 321.5 76 L 335.5 66 L 338.5 66 Q 341.3 67.3 340 72.5 L 337 80.5 L 327 95.5 L 328.5 97 L 333.5 97 L 356.5 103 L 382.5 115 Q 407.5 129 426 149.5 L 442 170.5 L 459 204.5 L 469 239.5 L 472 268.5 L 472 286.5 L 467 323.5 L 463 339.5 L 455 360.5 Q 437.1 399.1 406.5 425 Q 375 452 330.5 466 L 305.5 472 L 276.5 476 L 234.5 476 Q 227.9 473.1 217.5 474 L 189.5 468 L 155.5 456 Q 118.7 439.1 92 413 Q 64.4 383.9 49 341.5 Q 38.9 311.1 40 269.5 Q 49.1 182.6 100.5 138 Q 125.3 114.3 163 103.5 L 161.5 99 L 151 92 L 144 81.5 L 144 76.5 L 148.5 75 Q 158.9 84.1 179.5 83 L 180.5 82 L 207.5 82 L 225.5 87 L 235.5 94 L 238.5 94 L 240 92.5 L 240 67.5 Q 236.8 58.7 238 45.5 L 243.5 39 L 253.5 36 Z M 256 39 L 246 43 L 242 48 L 252 54 Q 263 55 269 50 L 270 46 Q 266 39 256 39 Z M 269 52 L 261 56 Q 250 58 246 53 L 242 55 L 243 68 L 242 106 L 240 119 L 232 115 Q 231 111 237 113 L 239 105 L 238 100 L 222 89 L 206 85 L 183 85 L 182 86 L 161 85 L 153 82 L 151 86 Q 171 108 207 114 L 216 114 L 216 116 Q 201 116 192 121 Q 177 127 168 138 L 165 142 L 147 157 L 149 160 L 169 160 L 195 155 L 216 147 L 235 135 L 239 134 L 240 142 L 249 157 Q 263 173 285 182 L 287 179 L 286 155 L 274 131 L 286 137 L 304 139 L 313 138 Q 341 138 362 147 L 363 143 Q 351 128 334 119 L 314 112 L 294 111 L 305 107 L 317 99 L 332 83 L 337 70 L 335 72 Q 328 78 318 81 L 287 87 L 273 95 L 268 100 L 268 111 L 271 113 L 274 112 Q 277 111 276 114 L 264 120 L 265 118 L 264 107 L 265 83 L 267 79 L 267 71 L 271 54 L 269 52 Z M 323 100 L 314 105 L 312 109 L 314 110 L 323 111 L 341 119 L 357 131 L 369 146 L 370 152 L 365 152 L 358 148 L 347 146 L 344 144 Q 334 145 329 142 L 298 142 L 291 140 L 286 142 L 291 162 L 291 185 L 289 187 Q 267 181 254 167 Q 242 157 237 142 L 233 142 L 209 154 L 184 161 Q 177 160 174 163 L 140 163 L 137 160 L 149 152 L 179 124 L 194 118 L 195 115 L 193 112 L 187 112 L 171 105 L 153 110 L 128 123 L 105 141 Q 79 164 63 196 L 50 230 L 44 266 L 44 298 Q 47 303 46 314 L 56 350 Q 70 382 92 406 Q 120 435 159 453 L 197 466 L 234 472 L 280 472 Q 286 469 297 470 L 301 468 L 307 468 L 324 464 L 363 449 Q 391 434 412 414 Q 436 390 452 357 L 463 327 L 468 294 L 467 251 L 461 222 L 446 187 L 424 155 Q 406 133 382 119 L 348 104 L 323 100 Z " /><path fill="rgb(5,5,5)" stroke="rgb(5,5,5)" stroke-width="0.6" opacity="1" d="M 178.5 232 L 188.5 233 L 191 235.5 L 189.5 238 L 179.5 237 Q 168.2 240.2 162.5 249 L 161 246.5 Q 162.8 239.3 168.5 236 L 178.5 232 Z " /><path fill="rgb(5,5,5)" stroke="rgb(5,5,5)" stroke-width="0.6" opacity="1" d="M 316.5 233 Q 333.3 232.3 339 242.5 L 342 251 L 339.5 251 L 327.5 240 Q 322.9 237.1 314.5 238 L 312.5 239 L 311 236.5 L 316.5 233 Z " /><path fill="rgb(5,5,5)" stroke="rgb(5,5,5)" stroke-width="0.6" opacity="1" d="M 179.5 274 Q 194.9 273.1 200 282.5 Q 208.7 292.8 206 314.5 Q 204.6 328.6 195.5 335 Q 190 339.5 178.5 338 Q 168.3 335.3 163 327.5 L 159 317.5 L 159 312 Q 162.5 310.9 161 318.5 Q 163.8 328.8 171.5 334 Q 175.7 335.3 174 330.5 Q 167.5 324.5 170 309.5 Q 171.5 300.5 177.5 296 Q 181.6 292.1 190.5 293 Q 199 293.5 201.5 300 L 204 295.5 Q 200.9 285.6 193.5 280 Q 189.3 275.7 179.5 277 L 167 285.5 L 161 296.5 L 161 303 Q 157 304.4 159 297.5 Q 161.6 283.6 171.5 277 L 179.5 274 Z M 192 296 L 188 298 L 186 302 Q 185 309 191 310 Q 198 311 199 306 L 198 301 L 192 296 Z " /><path fill="rgb(5,5,5)" stroke="rgb(5,5,5)" stroke-width="0.6" opacity="1" d="M 315.5 276 Q 330.6 275.9 336 285.5 L 342 301.5 L 342 316.5 Q 339 330.5 329.5 338 L 319.5 342 L 313.5 342 Q 303.8 340.2 299 333.5 L 293 317.5 L 293 303.5 Q 295.2 299.7 297.5 305 L 301 301.5 L 303.5 298 Q 308.5 294 319.5 296 L 327 302.5 L 331 312.5 L 331 322.5 L 325 335.5 L 327.5 337 Q 341.7 327.7 340 302.5 Q 337.4 289.6 328.5 283 Q 324 278.5 314.5 279 Q 305.4 281.4 301 288.5 L 296 301 L 294 299.5 L 297 289.5 L 303.5 281 L 315.5 276 Z M 306 299 L 300 306 L 302 311 L 306 313 L 313 308 L 312 302 Q 311 298 306 299 Z " /><path fill="rgb(5,5,5)" stroke="rgb(5,5,5)" stroke-width="0.6" opacity="1" d="M 215.5 351 L 218 352.5 L 219 359.5 L 226.5 368 L 235.5 373 L 243.5 375 L 253.5 375 L 265.5 371 L 278 359.5 Q 276.5 353.5 279.5 352 L 283 353.5 Q 281.7 367.7 271.5 373 Q 261.4 380.9 241.5 379 Q 225 376.5 217 365.5 L 213 353.5 L 215.5 351 Z " /><path fill="rgb(62,138,67)" stroke="rgb(62,138,67)" stroke-width="0.6" opacity="1" d="M 264.5 42 L 264.5 44 L 267.5 46 L 269 45.5 Q 270.1 48.8 267.5 48 L 265.5 50 L 259 51 Q 260.2 55 254 53 Q 255.3 49.7 250.5 51 L 246 50 L 245 46.5 L 250.5 43 L 263.5 43 L 264.5 42 Z " /><path fill="rgb(62,138,67)" stroke="rgb(62,138,67)" stroke-width="0.6" opacity="1" d="M 268.5 55 L 269 58 Q 265.7 56.7 267 61.5 L 267.5 63 Q 264.5 62.1 266 66.5 L 265 71.5 L 266 75 Q 262.7 73.7 264 78.5 L 264.5 80 Q 261.5 79.5 263 86.5 L 264 89 L 262 89.5 L 262 98.5 L 261 110 Q 264.3 108.7 263 113.5 L 262 117.5 L 262 119.5 Q 260.3 124.8 265.5 123 L 279 114.5 L 276.5 110 L 273.5 111 L 270 108.5 L 271 104.5 L 270 100.5 L 276 95.5 L 275.5 94 L 277.5 94 Q 288 87.5 303 87 L 304.5 85 L 309.5 86 L 331 78 L 328 84.5 L 314.5 98 L 305 103.5 L 305.5 105 L 303.5 105 L 295 107.5 L 294.5 109 L 292.5 109 L 288 111.5 L 289.5 114 L 292.5 113 L 305.5 114 L 308 113 Q 306.6 117 313.5 115 L 333.5 122 L 335 121.5 L 337.5 125 L 353 134.5 L 359 143 L 349.5 140 L 347 141 Q 348.3 137.7 343.5 139 L 339.5 138 L 337 139 Q 338.3 135.7 333.5 137 L 329 138 Q 330.4 134.3 324.5 136 L 323.5 137 L 300 137 Q 301.1 133.5 293.5 135 L 291 136 Q 292.4 132.3 286.5 134 L 284 135 Q 285.3 132 281.5 133 L 274.5 128 L 272.5 129 L 270 129.5 L 277.5 140 L 279 140.5 L 279 142.5 L 280.5 144 L 281 146.5 L 282 153 L 284 154.5 L 283 157.5 L 284 161 L 286 161.5 L 286 179.5 L 285 179.5 L 284.5 178 L 281.5 179 Q 263.5 168.5 249 154.5 L 246.5 149 L 245 149.5 L 245 147.5 L 243.5 146 L 244 144.5 L 242.5 141 Q 239.9 141.8 241 138.5 L 242 136.5 L 238.5 131 L 226.5 139 L 208 147.5 L 207.5 149 L 203.5 148 Q 182.7 158 152 157 L 153.5 155 L 184 127.5 L 184.5 126 L 186.5 126 Q 196.4 119.4 211 119 Q 209.6 115 216.5 117 Q 218.2 119.8 220 115.5 L 217.5 112 L 211 113 Q 212.3 109.3 206.5 111 L 177.5 102 L 176 102.5 L 174.5 101 L 172 100.5 L 170.5 99 L 156 87.5 L 156.5 84 L 158.5 87 L 167.5 88 L 171 87 L 171.5 89 L 181 89 Q 179.7 85.7 184.5 87 L 208.5 89 L 211 88 Q 209.7 91.3 214.5 90 Q 228.8 92.7 236.5 102 L 238 101.5 L 238 104 L 236 105.5 L 237 109.5 L 234.5 110 L 229 111.5 L 230 116 L 237.5 121 L 240.5 121 L 243 118.5 L 244 107.5 L 243 103 Q 246.5 104.1 245 96.5 L 246 95.5 L 246 66.5 L 245 58 Q 242 59 243 56 L 251.5 58 L 258.5 57 L 262.5 58 L 268.5 55 Z " /><path fill="rgb(210,54,53)" stroke="rgb(210,54,53)" stroke-width="0.6" opacity="1" d="M 330 104 L 334 104.5 L 332 105 Q 330.8 108 334.5 107 L 337 110.5 L 335.5 110 L 330 110.5 L 330.5 112 L 328.5 108 L 325 106.5 L 330 106 L 330 104 Z " /><path fill="rgb(210,54,53)" stroke="rgb(210,54,53)" stroke-width="0.6" opacity="1" d="M 345.5 110 L 351 112 L 347.5 117 L 341 113.5 L 342.5 112 L 345.5 110 Z " /><path fill="rgb(210,54,53)" stroke="rgb(210,54,53)" stroke-width="0.6" opacity="1" d="M 181 113 L 188 115 L 186.5 117 L 185 117.5 L 186 115 Q 180.4 113.1 182 118 L 184 118.5 L 181.5 120 L 181.5 118 Q 176.7 119.3 178 116 L 181 114.5 L 181 113 Z " /><path fill="rgb(210,54,53)" stroke="rgb(210,54,53)" stroke-width="0.6" opacity="1" d="M 357.5 125 L 364 130.5 L 363.5 132 L 359.5 129 L 359.5 131 L 358 127.5 L 357.5 125 Z " /><path fill="rgb(210,54,53)" stroke="rgb(210,54,53)" stroke-width="0.6" opacity="1" d="M 161.5 130 L 163 130.5 L 158.5 136 L 156.5 137 L 156 135.5 L 161.5 130 Z " /><path fill="rgb(210,54,53)" stroke="rgb(210,54,53)" stroke-width="0.6" opacity="1" d="M 158.5 138 L 149.5 148 L 158.5 138 Z " /><path fill="rgb(210,54,53)" stroke="rgb(210,54,53)" stroke-width="0.6" opacity="1" d="M 366.5 138 L 372 144.5 L 369 142.5 L 366.5 138 Z " /><path fill="rgb(210,54,53)" stroke="rgb(210,54,53)" stroke-width="0.6" opacity="1" d="M 408.5 142 L 422.5 157 L 408.5 142 Z " /><path fill="rgb(210,54,53)" stroke="rgb(210,54,53)" stroke-width="0.6" opacity="1" d="M 105.5 143 L 91.5 158 L 105.5 143 Z " /><path fill="rgb(210,54,53)" stroke="rgb(210,54,53)" stroke-width="0.6" opacity="1" d="M 233.5 144 L 236 147.5 L 235 147.5 L 233.5 145 Q 230.3 146.8 234 148.5 L 236 155 Q 231.3 155.8 230 151.5 L 232 147.5 L 230 146.5 L 233.5 144 Z " /><path fill="rgb(210,54,53)" stroke="rgb(210,54,53)" stroke-width="0.6" opacity="1" d="M 106.5 146 L 106 147.5 L 103.5 151 L 101.5 152 L 101 150.5 L 106.5 146 Z " /><path fill="rgb(210,54,53)" stroke="rgb(210,54,53)" stroke-width="0.6" opacity="1" d="M 293 147 Q 297.7 146 299 149.5 L 296.5 153 L 293 151.5 L 293 147 Z " /><path fill="rgb(210,54,53)" stroke="rgb(210,54,53)" stroke-width="0.6" opacity="1" d="M 314.5 147 L 338 149 L 337.5 151 L 321.5 151 L 315.5 150 L 303.5 151 L 301 149.5 L 302.5 148 L 314.5 147 Z " /><path fill="rgb(210,54,53)" stroke="rgb(210,54,53)" stroke-width="0.6" opacity="1" d="M 220.5 151 L 222 151.5 L 214.5 155 L 214.5 154 L 220.5 151 Z " /><path fill="rgb(210,54,53)" stroke="rgb(210,54,53)" stroke-width="0.6" opacity="1" d="M 135.5 157 L 135 158.5 L 137 164.5 L 135 163.5 L 134 158.5 L 135.5 157 Z " /><path fill="rgb(210,54,53)" stroke="rgb(210,54,53)" stroke-width="0.6" opacity="1" d="M 90.5 159 L 90.5 161 L 93 161.5 L 82.5 176 L 81 174.5 L 87 166 L 83.5 168 L 86.5 164 Q 88.3 166.8 90 162.5 L 89.5 161 L 87 162.5 L 90.5 159 Z " /><path fill="rgb(210,54,53)" stroke="rgb(210,54,53)" stroke-width="0.6" opacity="1" d="M 247.5 164 L 252.5 170 L 247.5 164 Z " /><path fill="rgb(210,54,53)" stroke="rgb(210,54,53)" stroke-width="0.6" opacity="1" d="M 183.5 166 Q 188.3 164.7 187 168 Q 183.5 171 176 170 Q 174.7 166.3 180.5 168 L 183.5 166 Z " /><path fill="rgb(210,54,53)" stroke="rgb(210,54,53)" stroke-width="0.6" opacity="1" d="M 431.5 168 L 436 174.5 L 433 172.5 L 431.5 168 Z " /><path fill="rgb(210,54,53)" stroke="rgb(210,54,53)" stroke-width="0.6" opacity="1" d="M 77.5 176 L 77 177.5 L 76 180.5 L 78.5 179 L 80 180.5 L 79 183 Q 75.2 184.5 76 181.5 L 73 182.5 L 77.5 176 Z " /><path fill="rgb(210,54,53)" stroke="rgb(210,54,53)" stroke-width="0.6" opacity="1" d="M 292.5 186 L 288.5 191 L 285 190.5 Q 291 190.5 292.5 186 Z " /><path fill="rgb(210,54,53)" stroke="rgb(210,54,53)" stroke-width="0.6" opacity="1" d="M 446.5 194 L 448 196.5 L 446 197 L 447.5 201 L 448.5 199 L 450 201.5 L 448 202 Q 449 205 446 204 L 444 197 Q 447.1 198.1 446.5 194 Z " /><path fill="rgb(210,54,53)" stroke="rgb(210,54,53)" stroke-width="0.6" opacity="1" d="M 172.5 230 L 174 230.5 Q 165.7 233.2 161.5 240 L 168.5 232 L 172.5 230 Z " /><path fill="rgb(210,54,53)" stroke="rgb(210,54,53)" stroke-width="0.6" opacity="1" d="M 460.5 233 L 461 237 Q 457 235.6 459 242.5 L 461 250 Q 457.3 251.3 459 245.5 L 457 243.5 L 457 235 Q 460.8 236.3 460.5 233 Z " /><path fill="rgb(210,54,53)" stroke="rgb(210,54,53)" stroke-width="0.6" opacity="1" d="M 334.5 234 L 341.5 242 L 334.5 234 Z " /><path fill="rgb(210,54,53)" stroke="rgb(210,54,53)" stroke-width="0.6" opacity="1" d="M 194.5 236 L 195 237.5 L 188.5 242 L 188.5 241 L 194 237.5 L 194.5 236 Z " /><path fill="rgb(210,54,53)" stroke="rgb(210,54,53)" stroke-width="0.6" opacity="1" d="M 330.5 245 L 339.5 254 L 342.5 254 L 344.5 251 L 345 252.5 Q 344.3 255.8 339.5 255 L 330.5 245 Z " /><path fill="rgb(210,54,53)" stroke="rgb(210,54,53)" stroke-width="0.6" opacity="1" d="M 325 246 L 327.5 246 L 333 251.5 L 330.5 250 L 325 248 L 325 246 Z " /><path fill="rgb(210,54,53)" stroke="rgb(210,54,53)" stroke-width="0.6" opacity="1" d="M 49.5 249 L 50.5 253 L 52.5 252 Q 55.3 253.3 54 258.5 L 53 268 L 51 267.5 L 51 254.5 Q 47.3 255.3 49.5 249 Z " /><path fill="rgb(210,54,53)" stroke="rgb(210,54,53)" stroke-width="0.6" opacity="1" d="M 461 264 L 463 264.5 L 463 291 L 461 290.5 L 461 264 Z " /><path fill="rgb(210,54,53)" stroke="rgb(210,54,53)" stroke-width="0.6" opacity="1" d="M 178.5 265 L 186.5 265 L 191 267 L 189.5 269 L 183.5 267 L 181.5 268 L 179.5 267 L 176 269 L 178.5 265 Z " /><path fill="rgb(210,54,53)" stroke="rgb(210,54,53)" stroke-width="0.6" opacity="1" d="M 179.5 270 L 187 270.5 L 176.5 272 L 176.5 271 L 179.5 270 Z " /><path fill="rgb(210,54,53)" stroke="rgb(210,54,53)" stroke-width="0.6" opacity="1" d="M 332.5 278 L 338.5 285 L 332.5 278 Z " /><path fill="rgb(210,54,53)" stroke="rgb(210,54,53)" stroke-width="0.6" opacity="1" d="M 47.5 282 L 48 294.5 L 47 294.5 L 47.5 282 Z " /><path fill="rgb(210,54,53)" stroke="rgb(210,54,53)" stroke-width="0.6" opacity="1" d="M 309.5 284 L 308.5 286 L 303.5 290 L 307.5 285 L 309.5 284 Z " /><path fill="rgb(210,54,53)" stroke="rgb(210,54,53)" stroke-width="0.6" opacity="1" d="M 325.5 284 L 330 287.5 L 328.5 287 L 327 287.5 L 333 291.5 L 331 291.5 L 334.5 301 L 335.5 298 L 337 302.5 L 335 302.5 L 332 305.5 L 331 305.5 L 328 300.5 L 330 300.5 L 327.5 296 L 325.5 295 L 323.5 296 L 322.5 294 L 324.5 295 L 321.5 291 L 320 290.5 L 322 286 L 326 285.5 L 325.5 284 Z " /><path fill="rgb(210,54,53)" stroke="rgb(210,54,53)" stroke-width="0.6" opacity="1" d="M 51 298 Q 55 296.6 53 303.5 L 54 311 L 52 309.5 L 51 298 Z " /><path fill="rgb(210,54,53)" stroke="rgb(210,54,53)" stroke-width="0.6" opacity="1" d="M 209.5 301 L 210 311.5 L 209 311.5 L 209.5 301 Z " /><path fill="rgb(210,54,53)" stroke="rgb(210,54,53)" stroke-width="0.6" opacity="1" d="M 155.5 302 L 156 312.5 L 155 312.5 L 155.5 302 Z " /><path fill="rgb(210,54,53)" stroke="rgb(210,54,53)" stroke-width="0.6" opacity="1" d="M 458.5 311 L 459 317 Q 462.7 315.6 461 321.5 L 460 321.5 L 460 320 L 457 319.5 L 457 312.5 L 458.5 311 Z " /><path fill="rgb(210,54,53)" stroke="rgb(210,54,53)" stroke-width="0.6" opacity="1" d="M 336.5 314 L 337 315.5 L 335 324 L 333 322.5 L 334 315 L 336.5 314 Z " /><path fill="rgb(210,54,53)" stroke="rgb(210,54,53)" stroke-width="0.6" opacity="1" d="M 339.5 330 L 339 331.5 L 331.5 340 L 338 332.5 L 339.5 330 Z " /><path fill="rgb(210,54,53)" stroke="rgb(210,54,53)" stroke-width="0.6" opacity="1" d="M 202.5 331 L 198 336.5 L 199 339.5 L 196 341.5 L 197 338.5 L 195 337.5 L 202.5 331 Z " /><path fill="rgb(210,54,53)" stroke="rgb(210,54,53)" stroke-width="0.6" opacity="1" d="M 190.5 342 L 192 343.5 L 188.5 346 L 177 346 L 177.5 344 L 188.5 344 L 190.5 342 Z " /><path fill="rgb(210,54,53)" stroke="rgb(210,54,53)" stroke-width="0.6" opacity="1" d="M 278.5 349 Q 286 348 287 353.5 Q 288 360 284.5 362 L 284 360.5 Q 287.3 359.3 286 353.5 Q 285 349 278.5 350 L 276 351.5 L 278.5 349 Z " /><path fill="rgb(210,54,53)" stroke="rgb(210,54,53)" stroke-width="0.6" opacity="1" d="M 223 352 Q 226 350.8 225 354.5 L 227 360 L 223.5 359 L 222 359.5 L 221 357.5 L 223 357 L 223 352 Z " /><path fill="rgb(210,54,53)" stroke="rgb(210,54,53)" stroke-width="0.6" opacity="1" d="M 272.5 354 Q 277.8 352.3 276 357.5 L 272.5 359 Q 269.2 360.1 270 357.5 L 272.5 354 Z " /><path fill="rgb(210,54,53)" stroke="rgb(210,54,53)" stroke-width="0.6" opacity="1" d="M 70.5 366 L 72 367.5 L 74 370.5 Q 72 375 70 371.5 L 72 371 Q 73.3 366.9 70 368 L 69.5 370 L 68 367.5 L 70.5 366 Z " /><path fill="rgb(210,54,53)" stroke="rgb(210,54,53)" stroke-width="0.6" opacity="1" d="M 280.5 367 L 273.5 375 L 280.5 367 Z " /><path fill="rgb(210,54,53)" stroke="rgb(210,54,53)" stroke-width="0.6" opacity="1" d="M 248 384 L 257.5 384 L 258 386 L 248.5 386 L 248 384 Z " /><path fill="rgb(210,54,53)" stroke="rgb(210,54,53)" stroke-width="0.6" opacity="1" d="M 83.5 386 L 87 388.5 L 96 401.5 L 92.5 399 L 90.5 400 L 85 393.5 L 87 394.5 L 90.5 399 L 91 397.5 L 85.5 391 L 84.5 392 L 81 388.5 L 85 390.5 L 83.5 386 Z " /><path fill="rgb(210,54,53)" stroke="rgb(210,54,53)" stroke-width="0.6" opacity="1" d="M 93.5 403 L 104.5 415 L 93.5 403 Z " /><path fill="rgb(210,54,53)" stroke="rgb(210,54,53)" stroke-width="0.6" opacity="1" d="M 406.5 414 L 401.5 420 L 406.5 414 Z " /><path fill="rgb(210,54,53)" stroke="rgb(210,54,53)" stroke-width="0.6" opacity="1" d="M 219.5 461 L 227 462 Q 228.1 465.8 219.5 464 Q 216.5 462.5 219.5 461 Z " /><path fill="rgb(210,54,53)" stroke="rgb(210,54,53)" stroke-width="0.6" opacity="1" d="M 292.5 461 L 295 462.5 L 294.5 464 L 286 464 Q 284.6 460 291.5 462 L 292.5 461 Z " /><path fill="rgb(210,54,53)" stroke="rgb(210,54,53)" stroke-width="0.6" opacity="1" d="M 246.5 469 L 266 469.5 L 246.5 470 L 246.5 469 Z " /><path fill="rgb(34,34,34)" stroke="rgb(34,34,34)" stroke-width="0.6" opacity="1" d="M 243.5 53 L 243 54.5 L 242.5 67 L 242 54.5 L 243.5 53 Z " /><path fill="rgb(34,34,34)" stroke="rgb(34,34,34)" stroke-width="0.6" opacity="1" d="M 239.5 67 L 240 92.5 L 235.5 94 L 233.5 91 Q 234.8 94 239 93 L 239.5 67 Z " /><path fill="rgb(34,34,34)" stroke="rgb(34,34,34)" stroke-width="0.6" opacity="1" d="M 189.5 81 L 206 81.5 L 189.5 82 L 189.5 81 Z " /><path fill="rgb(34,34,34)" stroke="rgb(34,34,34)" stroke-width="0.6" opacity="1" d="M 152.5 82 L 154 82.5 L 152 85.5 L 159.5 94 L 151 85.5 L 151 83.5 L 152.5 82 Z " /><path fill="rgb(34,34,34)" stroke="rgb(34,34,34)" stroke-width="0.6" opacity="1" d="M 269.5 84 L 270 86.5 L 269 89.5 L 272 91.5 L 269.5 92 L 268 87.5 L 269.5 84 Z " /><path fill="rgb(34,34,34)" stroke="rgb(34,34,34)" stroke-width="0.6" opacity="1" d="M 182.5 85 L 206 85.5 L 182.5 86 L 182.5 85 Z " /><path fill="rgb(34,34,34)" stroke="rgb(34,34,34)" stroke-width="0.6" opacity="1" d="M 242.5 89 L 243 102.5 L 242 102.5 L 242.5 89 Z " /><path fill="rgb(34,34,34)" stroke="rgb(34,34,34)" stroke-width="0.6" opacity="1" d="M 331.5 89 L 328 93.5 L 329 96.5 L 327 95.5 L 331.5 89 Z " /><path fill="rgb(34,34,34)" stroke="rgb(34,34,34)" stroke-width="0.6" opacity="1" d="M 264.5 91 L 265 101.5 L 264 101.5 L 264.5 91 Z " /><path fill="rgb(34,34,34)" stroke="rgb(34,34,34)" stroke-width="0.6" opacity="1" d="M 161.5 99 L 163 103.5 L 158.5 105 L 158.5 104 L 162 102.5 L 161.5 99 Z " /><path fill="rgb(34,34,34)" stroke="rgb(34,34,34)" stroke-width="0.6" opacity="1" d="M 264.5 107 L 265 117.5 L 264 119.5 L 264.5 121 L 263 118.5 L 264.5 107 Z " /><path fill="rgb(34,34,34)" stroke="rgb(34,34,34)" stroke-width="0.6" opacity="1" d="M 187.5 112 Q 193.8 110.8 195 114.5 L 193.5 118 L 194 116.5 L 192.5 113 Q 186.5 114.3 187.5 112 Z " /><path fill="rgb(34,34,34)" stroke="rgb(34,34,34)" stroke-width="0.6" opacity="1" d="M 273.5 130 L 280 133.5 L 277.5 132 L 274 131 L 275 133.5 L 272 131.5 L 273.5 130 Z " /><path fill="rgb(34,34,34)" stroke="rgb(34,34,34)" stroke-width="0.6" opacity="1" d="M 167.5 132 L 156.5 144 L 167.5 132 Z " /><path fill="rgb(34,34,34)" stroke="rgb(34,34,34)" stroke-width="0.6" opacity="1" d="M 353.5 133 L 363 142.5 L 363 145.5 L 360.5 147 L 360.5 146 Q 363.5 146.9 362 142.5 L 353.5 133 Z " /><path fill="rgb(34,34,34)" stroke="rgb(34,34,34)" stroke-width="0.6" opacity="1" d="M 104.5 141 L 99.5 147 L 104.5 141 Z " /><path fill="rgb(34,34,34)" stroke="rgb(34,34,34)" stroke-width="0.6" opacity="1" d="M 90.5 148 L 85.5 154 L 90.5 148 Z " /><path fill="rgb(34,34,34)" stroke="rgb(34,34,34)" stroke-width="0.6" opacity="1" d="M 418.5 149 L 423.5 155 L 418.5 149 Z " /><path fill="rgb(34,34,34)" stroke="rgb(34,34,34)" stroke-width="0.6" opacity="1" d="M 95.5 150 L 88.5 158 L 95.5 150 Z " /><path fill="rgb(34,34,34)" stroke="rgb(34,34,34)" stroke-width="0.6" opacity="1" d="M 249.5 156 L 256.5 164 L 249.5 156 Z " /><path fill="rgb(34,34,34)" stroke="rgb(34,34,34)" stroke-width="0.6" opacity="1" d="M 142.5 163 L 166 163.5 L 142.5 164 L 142.5 163 Z " /><path fill="rgb(34,34,34)" stroke="rgb(34,34,34)" stroke-width="0.6" opacity="1" d="M 290.5 185 L 288.5 188 L 283 186.5 L 284.5 186 L 288.5 187 L 290.5 185 Z " /><path fill="rgb(34,34,34)" stroke="rgb(34,34,34)" stroke-width="0.6" opacity="1" d="M 185.5 232 Q 191.3 231.3 192 235.5 L 190.5 238 L 191 236.5 L 188.5 233 Q 184.5 233.7 185.5 232 Z " /><path fill="rgb(34,34,34)" stroke="rgb(34,34,34)" stroke-width="0.6" opacity="1" d="M 170.5 241 L 162.5 250 L 161.5 248 L 162.5 249 L 170.5 241 Z " /><path fill="rgb(34,34,34)" stroke="rgb(34,34,34)" stroke-width="0.6" opacity="1" d="M 467.5 262 L 468 293.5 L 467 293.5 L 467.5 262 Z " /><path fill="rgb(34,34,34)" stroke="rgb(34,34,34)" stroke-width="0.6" opacity="1" d="M 44.5 265 L 45 297.5 L 44 297.5 L 44.5 265 Z " /><path fill="rgb(34,34,34)" stroke="rgb(34,34,34)" stroke-width="0.6" opacity="1" d="M 39.5 273 L 40 290.5 L 39 290.5 L 39.5 273 Z " /><path fill="rgb(34,34,34)" stroke="rgb(34,34,34)" stroke-width="0.6" opacity="1" d="M 170.5 277 L 164.5 284 L 170.5 277 Z " /><path fill="rgb(34,34,34)" stroke="rgb(34,34,34)" stroke-width="0.6" opacity="1" d="M 193.5 280 L 198.5 286 L 193.5 280 Z " /><path fill="rgb(34,34,34)" stroke="rgb(34,34,34)" stroke-width="0.6" opacity="1" d="M 471.5 287 L 472 297.5 L 471 297.5 L 471.5 287 Z " /><path fill="rgb(34,34,34)" stroke="rgb(34,34,34)" stroke-width="0.6" opacity="1" d="M 197.5 295 L 201.5 298 L 203.5 295 L 204 297.5 L 201.5 300 L 197.5 295 Z " /><path fill="rgb(34,34,34)" stroke="rgb(34,34,34)" stroke-width="0.6" opacity="1" d="M 191.5 296 L 198 300.5 L 193.5 297 L 191.5 296 Z " /><path fill="rgb(34,34,34)" stroke="rgb(34,34,34)" stroke-width="0.6" opacity="1" d="M 158.5 300 L 159 303 L 161 303.5 L 161 312 Q 158 310.8 159 314.5 L 158 314.5 L 158.5 300 Z " /><path fill="rgb(34,34,34)" stroke="rgb(34,34,34)" stroke-width="0.6" opacity="1" d="M 186.5 301 Q 186.1 307.8 191 309.5 L 186 305.5 L 186.5 301 Z " /><path fill="rgb(34,34,34)" stroke="rgb(34,34,34)" stroke-width="0.6" opacity="1" d="M 206.5 301 L 207 311.5 L 206 311.5 L 206.5 301 Z " /><path fill="rgb(34,34,34)" stroke="rgb(34,34,34)" stroke-width="0.6" opacity="1" d="M 293 301 Q 296.8 299.5 296 302.5 L 297.5 304 L 301 301.5 L 297.5 305 Q 295.2 300.8 293 302.5 L 293 301 Z " /><path fill="rgb(34,34,34)" stroke="rgb(34,34,34)" stroke-width="0.6" opacity="1" d="M 169.5 311 L 170 321.5 L 169 321.5 L 169.5 311 Z " /><path fill="rgb(34,34,34)" stroke="rgb(34,34,34)" stroke-width="0.6" opacity="1" d="M 278.5 366 L 273.5 372 L 278.5 366 Z " /><path fill="rgb(34,34,34)" stroke="rgb(34,34,34)" stroke-width="0.6" opacity="1" d="M 243.5 379 L 254 379.5 L 243.5 380 L 243.5 379 Z " /><path fill="rgb(34,34,34)" stroke="rgb(34,34,34)" stroke-width="0.6" opacity="1" d="M 92.5 405 L 103.5 417 L 92.5 405 Z " /><path fill="rgb(34,34,34)" stroke="rgb(34,34,34)" stroke-width="0.6" opacity="1" d="M 86.5 406 L 91.5 412 L 86.5 406 Z " /><path fill="rgb(34,34,34)" stroke="rgb(34,34,34)" stroke-width="0.6" opacity="1" d="M 424.5 407 L 410.5 422 L 424.5 407 Z " /><path fill="rgb(34,34,34)" stroke="rgb(34,34,34)" stroke-width="0.6" opacity="1" d="M 93.5 413 L 100.5 421 L 93.5 413 Z " /><path fill="rgb(34,34,34)" stroke="rgb(34,34,34)" stroke-width="0.6" opacity="1" d="M 237.5 476 L 273 476.5 L 237.5 477 L 237.5 476 Z " /><path fill="rgb(115,128,115)" stroke="rgb(115,128,115)" stroke-width="0.6" opacity="1" d="M 251.5 41 Q 264 39 268 45.5 L 265.5 44 L 250.5 43 L 245 46.5 L 246 49.5 L 243 47.5 L 244.5 45 L 251.5 41 Z " /><path fill="rgb(115,128,115)" stroke="rgb(115,128,115)" stroke-width="0.6" opacity="1" d="M 244.5 54 L 252 57.5 L 249.5 58 L 243 55.5 L 244.5 54 Z " /><path fill="rgb(115,128,115)" stroke="rgb(115,128,115)" stroke-width="0.6" opacity="1" d="M 267.5 54 L 268 56 L 259.5 58 L 260.5 56 Q 265.8 56.8 267.5 54 Z " /><path fill="rgb(115,128,115)" stroke="rgb(115,128,115)" stroke-width="0.6" opacity="1" d="M 243 58 Q 246.8 56.9 245 65.5 L 246 66.5 L 246 95.5 L 245 103 Q 242 104.3 243 100.5 L 244 99.5 L 244 63.5 L 243 58 Z " /><path fill="rgb(115,128,115)" stroke="rgb(115,128,115)" stroke-width="0.6" opacity="1" d="M 266 63 Q 269 61.8 268 65.5 L 265.5 72 L 265 67.5 L 266 63 Z " /><path fill="rgb(115,128,115)" stroke="rgb(115,128,115)" stroke-width="0.6" opacity="1" d="M 238.5 70 L 239 90.5 L 237 91.5 L 238 90.5 L 238.5 70 Z " /><path fill="rgb(115,128,115)" stroke="rgb(115,128,115)" stroke-width="0.6" opacity="1" d="M 329.5 76 L 331 77.5 L 333 77.5 Q 327.8 88.8 318.5 96 L 303.5 106 L 295.5 108 L 296.5 106 L 303.5 105 L 310.5 101 L 328 84.5 L 331 78 L 313.5 85 L 305.5 86 L 306.5 84 Q 321.2 83.2 329.5 76 Z " /><path fill="rgb(115,128,115)" stroke="rgb(115,128,115)" stroke-width="0.6" opacity="1" d="M 154.5 83 L 156 87.5 L 160.5 92 L 170 98.5 L 168.5 98 L 153 86.5 L 154.5 83 Z " /><path fill="rgb(115,128,115)" stroke="rgb(115,128,115)" stroke-width="0.6" opacity="1" d="M 157.5 85 L 168 87.5 L 162.5 88 L 158.5 87 L 157.5 85 Z " /><path fill="rgb(115,128,115)" stroke="rgb(115,128,115)" stroke-width="0.6" opacity="1" d="M 299.5 85 Q 304.3 83.7 303 87 Q 281.3 88.1 270 100.5 L 271 105.5 L 270 108.5 L 273 110.5 L 270.5 111 L 269 109.5 L 268 101.5 L 270 98 Q 281.6 88.8 299.5 85 Z " /><path fill="rgb(115,128,115)" stroke="rgb(115,128,115)" stroke-width="0.6" opacity="1" d="M 187.5 86 Q 202 83.5 209 88.5 L 206.5 89 L 205.5 88 L 185 87.5 L 187.5 86 Z " /><path fill="rgb(115,128,115)" stroke="rgb(115,128,115)" stroke-width="0.6" opacity="1" d="M 171 87 L 180.5 87 L 181 89 L 171.5 89 L 171 87 Z " /><path fill="rgb(115,128,115)" stroke="rgb(115,128,115)" stroke-width="0.6" opacity="1" d="M 211 88 L 220.5 90 L 237 100.5 L 236.5 102 Q 227.9 91.4 211 90 L 211 88 Z " /><path fill="rgb(115,128,115)" stroke="rgb(115,128,115)" stroke-width="0.6" opacity="1" d="M 262 89 Q 266 87.6 264 94.5 L 263 110 L 261 109.5 L 261 99.5 L 262 89 Z " /><path fill="rgb(115,128,115)" stroke="rgb(115,128,115)" stroke-width="0.6" opacity="1" d="M 177.5 102 Q 192.4 108.9 211 111 Q 212.3 114.3 207.5 113 L 183.5 106 L 177.5 102 Z " /><path fill="rgb(115,128,115)" stroke="rgb(115,128,115)" stroke-width="0.6" opacity="1" d="M 243.5 107 L 244 112.5 L 243 118.5 L 240.5 121 L 237.5 121 L 230 116 L 229 111.5 L 235.5 109 L 236 110.5 L 230 113.5 L 239.5 120 L 243.5 107 Z " /><path fill="rgb(115,128,115)" stroke="rgb(115,128,115)" stroke-width="0.6" opacity="1" d="M 275 110 L 279 112.5 L 276.5 117 L 273.5 117 L 265.5 123 L 262 123 L 262.5 120 L 266.5 121 L 273.5 115 L 277 115 L 277 112 Q 274 113 275 110 Z " /><path fill="rgb(115,128,115)" stroke="rgb(115,128,115)" stroke-width="0.6" opacity="1" d="M 214.5 112 Q 219.3 111.3 220 114.5 L 217.5 118 L 217 116.5 Q 219.7 114.8 215.5 113 L 214.5 112 Z " /><path fill="rgb(115,128,115)" stroke="rgb(115,128,115)" stroke-width="0.6" opacity="1" d="M 294.5 112 Q 302.7 110.3 306 113.5 L 293.5 114 L 294.5 112 Z " /><path fill="rgb(115,128,115)" stroke="rgb(115,128,115)" stroke-width="0.6" opacity="1" d="M 308 113 Q 323.8 113.9 334 121.5 L 332.5 121 L 321.5 117 L 308 115 L 308 113 Z " /><path fill="rgb(115,128,115)" stroke="rgb(115,128,115)" stroke-width="0.6" opacity="1" d="M 207.5 117 Q 212.3 115.7 211 119 Q 195.4 119.4 185.5 127 L 186.5 125 L 207.5 117 Z " /><path fill="rgb(115,128,115)" stroke="rgb(115,128,115)" stroke-width="0.6" opacity="1" d="M 335.5 122 L 351 132.5 L 349.5 133 L 337.5 125 L 335.5 122 Z " /><path fill="rgb(115,128,115)" stroke="rgb(115,128,115)" stroke-width="0.6" opacity="1" d="M 183.5 127 L 182.5 129 L 152 155 L 152.5 157 L 169.5 157 Q 189.9 154.4 206.5 148 L 206.5 149 L 180.5 157 L 167.5 159 L 150.5 159 L 151 157.5 L 152.5 154 L 174.5 133 L 183.5 127 Z " /><path fill="rgb(115,128,115)" stroke="rgb(115,128,115)" stroke-width="0.6" opacity="1" d="M 271.5 128 L 272 131.5 L 278 139.5 L 275 137.5 L 270 129.5 L 271.5 128 Z " /><path fill="rgb(115,128,115)" stroke="rgb(115,128,115)" stroke-width="0.6" opacity="1" d="M 274.5 128 L 284 133 L 283.5 135 L 274.5 128 Z " /><path fill="rgb(115,128,115)" stroke="rgb(115,128,115)" stroke-width="0.6" opacity="1" d="M 237.5 131 L 241 133.5 L 242 137.5 L 240 136.5 L 237.5 132 Q 225.9 142.9 208.5 148 L 209.5 146 Q 226.3 141.3 237.5 131 Z " /><path fill="rgb(115,128,115)" stroke="rgb(115,128,115)" stroke-width="0.6" opacity="1" d="M 353.5 135 L 361 142.5 L 361 145 L 357 143.5 L 359 143 L 353.5 135 Z " /><path fill="rgb(115,128,115)" stroke="rgb(115,128,115)" stroke-width="0.6" opacity="1" d="M 98.5 138 L 92.5 145 L 98.5 138 Z " /><path fill="rgb(115,128,115)" stroke="rgb(115,128,115)" stroke-width="0.6" opacity="1" d="M 159.5 139 L 151.5 148 L 159.5 139 Z " /><path fill="rgb(115,128,115)" stroke="rgb(115,128,115)" stroke-width="0.6" opacity="1" d="M 102.5 144 L 91.5 156 L 102.5 144 Z " /><path fill="rgb(115,128,115)" stroke="rgb(115,128,115)" stroke-width="0.6" opacity="1" d="M 251.5 156 Q 264.1 169.4 281 178.5 L 279.5 178 Q 263.2 169.8 251 157.5 L 251.5 156 Z " /><path fill="rgb(115,128,115)" stroke="rgb(115,128,115)" stroke-width="0.6" opacity="1" d="M 466.5 268 L 467 287.5 L 466 287.5 L 466.5 268 Z " /><path fill="rgb(115,128,115)" stroke="rgb(115,128,115)" stroke-width="0.6" opacity="1" d="M 45.5 275 L 46 288.5 L 45 288.5 L 45.5 275 Z " /><path fill="rgb(115,128,115)" stroke="rgb(115,128,115)" stroke-width="0.6" opacity="1" d="M 157.5 301 L 158 313.5 L 157 313.5 L 157.5 301 Z " /><path fill="rgb(115,128,115)" stroke="rgb(115,128,115)" stroke-width="0.6" opacity="1" d="M 425.5 407 L 418.5 415 L 425.5 407 Z " /><path fill="rgb(115,128,115)" stroke="rgb(115,128,115)" stroke-width="0.6" opacity="1" d="M 96.5 408 L 102.5 415 L 96.5 408 Z " /><path fill="rgb(115,128,115)" stroke="rgb(115,128,115)" stroke-width="0.6" opacity="1" d="M 416.5 416 L 409.5 424 L 416.5 416 Z " /><path fill="rgb(115,128,115)" stroke="rgb(115,128,115)" stroke-width="0.6" opacity="1" d="M 239.5 477 L 271 477.5 L 239.5 478 L 239.5 477 Z " /><path fill="rgb(64,64,64)" stroke="rgb(64,64,64)" stroke-width="0.6" opacity="1" d="M 243.5 68 L 244 94.5 L 243 94.5 L 243.5 68 Z " /><path fill="rgb(64,64,64)" stroke="rgb(64,64,64)" stroke-width="0.6" opacity="1" d="M 169.5 86 L 184 86.5 L 169.5 87 L 169.5 86 Z " /><path fill="rgb(64,64,64)" stroke="rgb(64,64,64)" stroke-width="0.6" opacity="1" d="M 326.5 88 L 319.5 96 L 326.5 88 Z " /><path fill="rgb(64,64,64)" stroke="rgb(64,64,64)" stroke-width="0.6" opacity="1" d="M 263.5 99 L 264 110.5 L 263 110.5 L 263.5 99 Z " /><path fill="rgb(64,64,64)" stroke="rgb(64,64,64)" stroke-width="0.6" opacity="1" d="M 99.5 138 L 91.5 147 L 99.5 138 Z " /><path fill="rgb(64,64,64)" stroke="rgb(64,64,64)" stroke-width="0.6" opacity="1" d="M 415.5 138 L 424.5 148 L 415.5 138 Z " /><path fill="rgb(64,64,64)" stroke="rgb(64,64,64)" stroke-width="0.6" opacity="1" d="M 164.5 142 L 158.5 149 L 164.5 142 Z " /><path fill="rgb(64,64,64)" stroke="rgb(64,64,64)" stroke-width="0.6" opacity="1" d="M 301.5 142 L 324 142.5 L 301.5 143 L 301.5 142 Z " /><path fill="rgb(64,64,64)" stroke="rgb(64,64,64)" stroke-width="0.6" opacity="1" d="M 411.5 142 L 417.5 149 L 411.5 142 Z " /><path fill="rgb(64,64,64)" stroke="rgb(64,64,64)" stroke-width="0.6" opacity="1" d="M 148.5 158 L 164 159.5 L 149.5 160 L 148.5 158 Z " /><path fill="rgb(64,64,64)" stroke="rgb(64,64,64)" stroke-width="0.6" opacity="1" d="M 149.5 164 L 160 164.5 L 149.5 165 L 149.5 164 Z " /><path fill="rgb(64,64,64)" stroke="rgb(64,64,64)" stroke-width="0.6" opacity="1" d="M 291.5 166 L 292 177.5 L 291 177.5 L 291.5 166 Z " /><path fill="rgb(64,64,64)" stroke="rgb(64,64,64)" stroke-width="0.6" opacity="1" d="M 332.5 244 L 337.5 250 L 332.5 244 Z " /><path fill="rgb(64,64,64)" stroke="rgb(64,64,64)" stroke-width="0.6" opacity="1" d="M 472.5 268 L 473 286.5 L 472 286.5 L 472.5 268 Z " /><path fill="rgb(64,64,64)" stroke="rgb(64,64,64)" stroke-width="0.6" opacity="1" d="M 292.5 306 L 293 316.5 L 292 316.5 L 292.5 306 Z " /><path fill="rgb(64,64,64)" stroke="rgb(64,64,64)" stroke-width="0.6" opacity="1" d="M 259.5 471 L 270 471.5 L 259.5 472 L 259.5 471 Z " /><path fill="rgb(94,92,92)" stroke="rgb(94,92,92)" stroke-width="0.6" opacity="1" d="M 190.5 80 L 205 80.5 L 190.5 81 L 190.5 80 Z " /><path fill="rgb(94,92,92)" stroke="rgb(94,92,92)" stroke-width="0.6" opacity="1" d="M 149.5 90 L 154.5 96 L 149.5 90 Z " /><path fill="rgb(94,92,92)" stroke="rgb(94,92,92)" stroke-width="0.6" opacity="1" d="M 190.5 113 L 194 115.5 L 190.5 118 L 190.5 117 L 193 115.5 L 190.5 113 Z " /><path fill="rgb(94,92,92)" stroke="rgb(94,92,92)" stroke-width="0.6" opacity="1" d="M 165.5 133 L 160.5 139 L 165.5 133 Z " /><path fill="rgb(94,92,92)" stroke="rgb(94,92,92)" stroke-width="0.6" opacity="1" d="M 352.5 133 L 360.5 142 L 352.5 133 Z " /><path fill="rgb(94,92,92)" stroke="rgb(94,92,92)" stroke-width="0.6" opacity="1" d="M 138.5 156 L 137 158.5 L 138.5 163 L 140 163.5 L 138.5 164 Q 135.3 163.3 136 158.5 L 138.5 156 Z " /><path fill="rgb(94,92,92)" stroke="rgb(94,92,92)" stroke-width="0.6" opacity="1" d="M 170.5 242 L 163.5 250 L 170.5 242 Z " /><path fill="rgb(94,92,92)" stroke="rgb(94,92,92)" stroke-width="0.6" opacity="1" d="M 169.5 277 L 164.5 283 L 169.5 277 Z " /><path fill="rgb(94,92,92)" stroke="rgb(94,92,92)" stroke-width="0.6" opacity="1" d="M 279.5 351 L 285 354.5 L 283.5 360 L 283 358.5 L 284 354.5 L 279.5 352 L 277 353.5 L 279.5 351 Z " /><path fill="rgb(94,92,92)" stroke="rgb(94,92,92)" stroke-width="0.6" opacity="1" d="M 88.5 409 L 96.5 418 L 88.5 409 Z " /><path fill="rgb(180,111,111)" stroke="rgb(180,111,111)" stroke-width="0.6" opacity="1" d="M 168.5 107 L 172 107.5 L 162.5 110 L 162.5 109 L 168.5 107 Z " /><path fill="rgb(180,111,111)" stroke="rgb(180,111,111)" stroke-width="0.6" opacity="1" d="M 160.5 137 L 150.5 148 L 160.5 137 Z " /><path fill="rgb(180,111,111)" stroke="rgb(180,111,111)" stroke-width="0.6" opacity="1" d="M 408.5 141 L 414.5 148 L 408.5 141 Z " /><path fill="rgb(180,111,111)" stroke="rgb(180,111,111)" stroke-width="0.6" opacity="1" d="M 104.5 143 L 91.5 157 L 104.5 143 Z " /><path fill="rgb(180,111,111)" stroke="rgb(180,111,111)" stroke-width="0.6" opacity="1" d="M 291.5 186 L 288.5 190 L 284 188.5 L 285.5 189 Q 290.7 189.7 291.5 186 Z " /><path fill="rgb(180,111,111)" stroke="rgb(180,111,111)" stroke-width="0.6" opacity="1" d="M 168.5 233 L 170 233.5 L 163.5 239 L 168.5 233 Z " /><path fill="rgb(180,111,111)" stroke="rgb(180,111,111)" stroke-width="0.6" opacity="1" d="M 192.5 234 L 194 237.5 L 188.5 241 L 188.5 240 L 193 237.5 L 192.5 234 Z " /><path fill="rgb(180,111,111)" stroke="rgb(180,111,111)" stroke-width="0.6" opacity="1" d="M 465.5 264 L 466 291.5 L 465 291.5 L 465.5 264 Z " /><path fill="rgb(180,111,111)" stroke="rgb(180,111,111)" stroke-width="0.6" opacity="1" d="M 46.5 272 L 47 291.5 L 46 291.5 L 46.5 272 Z " /><path fill="rgb(180,111,111)" stroke="rgb(180,111,111)" stroke-width="0.6" opacity="1" d="M 156.5 301 L 157 313.5 L 156 313.5 L 156.5 301 Z " /><path fill="rgb(180,111,111)" stroke="rgb(180,111,111)" stroke-width="0.6" opacity="1" d="M 208.5 301 L 209 312.5 L 208 312.5 L 208.5 301 Z " /><path fill="rgb(180,111,111)" stroke="rgb(180,111,111)" stroke-width="0.6" opacity="1" d="M 188.5 305 L 193.5 308 L 197 305.5 L 191.5 309 L 188.5 305 Z " /><path fill="rgb(180,111,111)" stroke="rgb(180,111,111)" stroke-width="0.6" opacity="1" d="M 274.5 360 L 269.5 366 L 274.5 360 Z " /><path fill="rgb(180,111,111)" stroke="rgb(180,111,111)" stroke-width="0.6" opacity="1" d="M 279.5 367 L 273.5 374 L 279.5 367 Z " /><path fill="rgb(180,111,111)" stroke="rgb(180,111,111)" stroke-width="0.6" opacity="1" d="M 95.5 406 L 104.5 416 L 95.5 406 Z " /><path fill="rgb(180,111,111)" stroke="rgb(180,111,111)" stroke-width="0.6" opacity="1" d="M 407.5 414 L 402.5 420 L 407.5 414 Z " /><path fill="rgb(193,83,83)" stroke="rgb(193,83,83)" stroke-width="0.6" opacity="1" d="M 355.5 127 L 365.5 138 L 355.5 127 Z " /><path fill="rgb(193,83,83)" stroke="rgb(193,83,83)" stroke-width="0.6" opacity="1" d="M 165.5 131 L 159.5 138 L 165.5 131 Z " /><path fill="rgb(193,83,83)" stroke="rgb(193,83,83)" stroke-width="0.6" opacity="1" d="M 142.5 152 L 140.5 155 L 136.5 157 L 137.5 155 L 142.5 152 Z " /><path fill="rgb(193,83,83)" stroke="rgb(193,83,83)" stroke-width="0.6" opacity="1" d="M 292.5 158 L 294 176.5 L 292.5 186 L 292 176.5 L 293 166.5 L 292.5 158 Z " /><path fill="rgb(193,83,83)" stroke="rgb(193,83,83)" stroke-width="0.6" opacity="1" d="M 245.5 161 L 253.5 170 L 245.5 161 Z " /><path fill="rgb(193,83,83)" stroke="rgb(193,83,83)" stroke-width="0.6" opacity="1" d="M 146.5 166 L 164 166.5 L 146.5 167 L 146.5 166 Z " /><path fill="rgb(193,83,83)" stroke="rgb(193,83,83)" stroke-width="0.6" opacity="1" d="M 450.5 202 L 455 213.5 L 454 213.5 L 450.5 202 Z " /><path fill="rgb(193,83,83)" stroke="rgb(193,83,83)" stroke-width="0.6" opacity="1" d="M 300.5 293 L 301 294.5 L 300 297.5 L 303 296.5 Q 301 301 299 297.5 L 300.5 293 Z " /><path fill="rgb(193,83,83)" stroke="rgb(193,83,83)" stroke-width="0.6" opacity="1" d="M 190.5 299 Q 196.3 298.3 197 302.5 L 196.5 305 L 193.5 300 L 189 301.5 Q 188.2 306.7 192 307.5 L 188 304.5 Q 187.3 299.8 190.5 299 Z " /><path fill="rgb(193,83,83)" stroke="rgb(193,83,83)" stroke-width="0.6" opacity="1" d="M 291.5 304 L 292 317.5 L 291 317.5 L 291.5 304 Z " /><path fill="rgb(193,83,83)" stroke="rgb(193,83,83)" stroke-width="0.6" opacity="1" d="M 215.5 348 L 221 351.5 L 218.5 350 L 215.5 349 L 212.5 351 L 213.5 349 L 215.5 348 Z " /><path fill="rgb(193,83,83)" stroke="rgb(193,83,83)" stroke-width="0.6" opacity="1" d="M 278.5 350 L 280 350.5 L 277 352.5 Q 278.3 358.8 274.5 360 L 276 357.5 Q 274.8 351.3 278.5 350 Z " /><path fill="rgb(193,83,83)" stroke="rgb(193,83,83)" stroke-width="0.6" opacity="1" d="M 224.5 374 L 232 378.5 L 230.5 379 L 224.5 374 Z " /><path fill="rgb(193,83,83)" stroke="rgb(193,83,83)" stroke-width="0.6" opacity="1" d="M 269.5 376 L 268.5 378 L 261.5 380 L 261.5 379 L 269.5 376 Z " /><path fill="rgb(193,83,83)" stroke="rgb(193,83,83)" stroke-width="0.6" opacity="1" d="M 241.5 381 L 257 381.5 L 241.5 382 L 241.5 381 Z " /><path fill="rgb(193,83,83)" stroke="rgb(193,83,83)" stroke-width="0.6" opacity="1" d="M 247.5 470 L 263 470.5 L 247.5 471 L 247.5 470 Z " /><path fill="rgb(149,95,95)" stroke="rgb(149,95,95)" stroke-width="0.6" opacity="1" d="M 187.5 117 L 190 117.5 L 182.5 121 L 183.5 119 L 187.5 117 Z " /><path fill="rgb(149,95,95)" stroke="rgb(149,95,95)" stroke-width="0.6" opacity="1" d="M 355.5 128 L 364.5 138 L 355.5 128 Z " /><path fill="rgb(149,95,95)" stroke="rgb(149,95,95)" stroke-width="0.6" opacity="1" d="M 412.5 144 L 417.5 150 L 412.5 144 Z " /><path fill="rgb(149,95,95)" stroke="rgb(149,95,95)" stroke-width="0.6" opacity="1" d="M 245.5 160 L 254.5 170 L 245.5 160 Z " /><path fill="rgb(149,95,95)" stroke="rgb(149,95,95)" stroke-width="0.6" opacity="1" d="M 145.5 165 L 163 165.5 L 145.5 166 L 145.5 165 Z " /><path fill="rgb(149,95,95)" stroke="rgb(149,95,95)" stroke-width="0.6" opacity="1" d="M 326.5 283 L 331.5 289 L 326.5 283 Z " /><path fill="rgb(149,95,95)" stroke="rgb(149,95,95)" stroke-width="0.6" opacity="1" d="M 216.5 366 L 222.5 373 L 216.5 366 Z " /><path fill="rgb(149,95,95)" stroke="rgb(149,95,95)" stroke-width="0.6" opacity="1" d="M 89.5 400 L 94.5 406 L 89.5 400 Z " /><path fill="rgb(149,95,95)" stroke="rgb(149,95,95)" stroke-width="0.6" opacity="1" d="M 418.5 404 L 406.5 417 L 418.5 404 Z " /><path fill="rgb(207,207,207)" stroke="rgb(207,207,207)" stroke-width="0.6" opacity="1" d="M 237.5 72 L 238 86.5 L 237 86.5 L 237.5 72 Z " /><path fill="rgb(207,207,207)" stroke="rgb(207,207,207)" stroke-width="0.6" opacity="1" d="M 166.5 79 L 190 79.5 L 166.5 80 L 166.5 79 Z " /><path fill="rgb(207,207,207)" stroke="rgb(207,207,207)" stroke-width="0.6" opacity="1" d="M 100.5 135 L 89.5 147 L 100.5 135 Z " /><path fill="rgb(207,207,207)" stroke="rgb(207,207,207)" stroke-width="0.6" opacity="1" d="M 417.5 138 L 424.5 146 L 417.5 138 Z " /><path fill="rgb(207,207,207)" stroke="rgb(207,207,207)" stroke-width="0.6" opacity="1" d="M 474.5 268 L 475 286.5 L 474 286.5 L 474.5 268 Z " /><path fill="rgb(207,207,207)" stroke="rgb(207,207,207)" stroke-width="0.6" opacity="1" d="M 37.5 271 L 38 292.5 L 37 292.5 L 37.5 271 Z " /><path fill="rgb(207,207,207)" stroke="rgb(207,207,207)" stroke-width="0.6" opacity="1" d="M 82.5 404 L 87.5 410 L 82.5 404 Z " /><path fill="rgb(207,207,207)" stroke="rgb(207,207,207)" stroke-width="0.6" opacity="1" d="M 427.5 406 L 419.5 415 L 427.5 406 Z " /><path fill="rgb(207,207,207)" stroke="rgb(207,207,207)" stroke-width="0.6" opacity="1" d="M 417.5 416 L 408.5 426 L 417.5 416 Z " /><path fill="rgb(207,207,207)" stroke="rgb(207,207,207)" stroke-width="0.6" opacity="1" d="M 95.5 417 L 103.5 426 L 95.5 417 Z " /><path fill="rgb(207,207,207)" stroke="rgb(207,207,207)" stroke-width="0.6" opacity="1" d="M 240.5 478 L 270 478.5 L 240.5 479 L 240.5 478 Z " /><path fill="rgb(163,163,164)" stroke="rgb(163,163,164)" stroke-width="0.6" opacity="1" d="M 236.5 45 L 237 58.5 L 236 58.5 L 236.5 45 Z " /><path fill="rgb(163,163,164)" stroke="rgb(163,163,164)" stroke-width="0.6" opacity="1" d="M 190.5 79 L 204 79.5 L 190.5 80 L 190.5 79 Z " /><path fill="rgb(163,163,164)" stroke="rgb(163,163,164)" stroke-width="0.6" opacity="1" d="M 170.5 80 L 182 80.5 L 170.5 81 L 170.5 80 Z " /><path fill="rgb(163,163,164)" stroke="rgb(163,163,164)" stroke-width="0.6" opacity="1" d="M 333.5 89 L 330 93.5 L 331.5 95 L 335 95.5 L 330.5 96 L 329 93.5 L 333.5 89 Z " /><path fill="rgb(163,163,164)" stroke="rgb(163,163,164)" stroke-width="0.6" opacity="1" d="M 149.5 91 L 156.5 99 L 149.5 91 Z " /><path fill="rgb(163,163,164)" stroke="rgb(163,163,164)" stroke-width="0.6" opacity="1" d="M 412.5 134 L 427.5 150 L 412.5 134 Z " /><path fill="rgb(163,163,164)" stroke="rgb(163,163,164)" stroke-width="0.6" opacity="1" d="M 91.5 145 L 86.5 151 L 91.5 145 Z " /><path fill="rgb(163,163,164)" stroke="rgb(163,163,164)" stroke-width="0.6" opacity="1" d="M 473.5 265 L 474 291.5 L 473 291.5 L 473.5 265 Z " /><path fill="rgb(163,163,164)" stroke="rgb(163,163,164)" stroke-width="0.6" opacity="1" d="M 88.5 410 L 94.5 417 L 88.5 410 Z " /><path fill="rgb(239,173,49)" stroke="rgb(239,173,49)" stroke-width="0.6" opacity="1" d="M 179.5 280 Q 192.8 278.8 197 286.5 L 200 292.5 Q 198.3 295.8 196.5 292 Q 192.5 289 184.5 290 L 173 297.5 Q 166 304.5 167 319.5 L 170 329 L 167 327.5 L 163 316.5 L 163 299.5 Q 165.6 287.6 174.5 282 L 179.5 280 Z " /><path fill="rgb(239,173,49)" stroke="rgb(239,173,49)" stroke-width="0.6" opacity="1" d="M 306.5 301 L 310 303.5 Q 311 309 307.5 310 L 303 307.5 Q 302.3 301.8 306.5 301 Z " /><path fill="rgb(188,166,102)" stroke="rgb(188,166,102)" stroke-width="0.6" opacity="1" d="M 179.5 279 Q 192.8 277.8 197 285.5 L 193.5 283 Q 189.3 278.7 179.5 280 Q 170.9 282.4 167 289.5 Q 160.6 298.6 163 316.5 L 165 322.5 L 164 322.5 Q 159.8 313.8 162 298.5 Q 164.4 288.4 171.5 283 L 179.5 279 Z " /><path fill="rgb(188,166,102)" stroke="rgb(188,166,102)" stroke-width="0.6" opacity="1" d="M 197.5 287 L 201 295 L 191.5 291 L 184.5 291 L 174 297.5 L 170.5 303 L 170 301.5 L 176.5 294 Q 180.8 288.8 191.5 290 L 198.5 294 L 199 291.5 L 197.5 287 Z " /><path fill="rgb(188,166,102)" stroke="rgb(188,166,102)" stroke-width="0.6" opacity="1" d="M 306.5 300 L 311 302.5 Q 312.3 309.8 307.5 311 L 302 307.5 Q 301.3 300.8 306.5 300 Z M 307 301 Q 302 302 303 308 L 308 310 Q 311 309 310 304 L 307 301 Z " /></svg>