<svg width="1254" height="1254" preserveAspectRatio="xMidYMid meet" viewBox="0 0 512 512" version="1.1" xmlns="http://www.w3.org/2000/svg" ><path fill="rgb(255,255,255)" stroke="rgb(255,255,255)" stroke-width="0.6" opacity="1" d="M 0 0 L 512 0 L 512 512 L 0 512 L 0 0 Z M 263 32 L 251 52 L 244 60 L 240 71 Q 238 85 243 92 Q 247 99 257 100 L 258 106 L 256 108 Q 246 106 242 110 L 236 117 L 236 166 L 234 168 L 205 168 L 187 171 L 185 170 L 185 131 L 176 123 L 168 123 L 166 118 L 176 113 L 183 104 L 184 100 L 183 83 L 170 55 Q 168 50 162 51 Q 156 67 145 78 L 140 90 Q 138 104 145 111 Q 147 116 155 115 Q 159 116 158 122 L 157 123 Q 148 122 144 125 L 138 132 L 138 180 L 125 184 L 120 184 L 104 190 L 88 200 L 78 211 L 74 222 Q 75 231 71 236 L 71 250 L 69 256 L 69 284 L 68 285 Q 67 302 73 313 L 80 318 L 83 322 L 83 364 L 61 372 L 42 386 L 34 399 L 34 419 L 41 431 L 70 450 L 106 463 L 124 466 L 129 469 L 149 471 L 158 474 L 222 480 L 282 480 L 283 479 L 323 478 L 326 476 L 341 476 Q 348 472 360 473 L 364 471 L 373 471 L 389 466 L 404 464 L 428 456 L 430 454 L 434 454 L 461 439 Q 473 432 478 418 L 478 400 L 472 389 Q 457 372 434 365 L 431 363 L 431 321 L 437 317 Q 443 312 446 304 Q 445 295 448 292 Q 449 276 446 265 L 446 242 Q 442 236 444 225 L 437 208 L 420 193 L 410 188 Q 396 186 386 181 L 387 130 L 379 123 L 371 123 Q 368 122 369 117 L 380 112 L 387 103 L 388 98 L 387 80 L 375 53 L 370 49 L 349 76 L 345 84 L 345 103 L 349 110 L 359 115 L 360 121 L 359 122 Q 349 121 345 124 L 339 132 L 339 154 L 337 157 L 338 169 L 337 171 Q 324 167 307 169 L 296 166 L 290 167 L 286 166 L 286 145 L 287 144 L 287 117 L 286 115 L 278 108 L 269 107 L 266 103 L 276 97 L 283 89 L 285 81 Q 287 66 282 59 L 269 34 Q 268 31 263 32 Z " /><path fill="rgb(255,255,255)" stroke="rgb(255,255,255)" stroke-width="0.6" opacity="1" d="M 264.5 46 L 275 63.5 L 276 80.5 L 269.5 91 L 266.5 92 Q 263.3 90.3 265 83.5 L 262.5 80 Q 257.8 79.3 257 82.5 L 257 90.5 L 254.5 91 Q 246.8 86.8 248 73.5 Q 253.4 56.9 264.5 46 Z " /><path fill="rgb(255,255,255)" stroke="rgb(255,255,255)" stroke-width="0.6" opacity="1" d="M 369.5 64 L 371 65.5 L 378 79.5 L 380 86.5 L 380 96.5 Q 378.2 104.2 372.5 108 L 370 106.5 Q 370.9 99.6 367.5 97 Q 361.8 96.3 361 100.5 L 360 106 Q 355.3 106.8 354 102.5 Q 350.7 98.8 352 90.5 L 354 83.5 L 369.5 64 Z " /><path fill="rgb(255,255,255)" stroke="rgb(255,255,255)" stroke-width="0.6" opacity="1" d="M 164.5 66 Q 167.1 65.2 166 68.5 L 175 84.5 L 175 99.5 L 169.5 108 L 166 106.5 Q 166.9 99.6 163.5 97 Q 157.8 96.3 157 100.5 L 157 107 L 154.5 107 Q 147.4 103.6 149 91.5 L 152 82.5 L 164.5 66 Z " /><path fill="rgb(255,255,255)" stroke="rgb(255,255,255)" stroke-width="0.6" opacity="1" d="M 355.5 128 L 360 129.5 L 361.5 134 L 365.5 134 L 371.5 129 L 379 134.5 L 378 140 L 372.5 139 L 355.5 151 L 348.5 153 Q 344.8 146.8 346 135.5 L 350.5 130 L 355.5 128 Z " /><path fill="rgb(255,255,255)" stroke="rgb(255,255,255)" stroke-width="0.6" opacity="1" d="M 151.5 130 Q 156.8 128.8 158 131.5 L 159.5 135 Q 165 136 166 132.5 Q 165.6 129.3 173.5 131 Q 179 132 178 139.5 L 173.5 145 Q 164 155.5 147.5 159 L 146 157.5 L 146 134 L 151.5 130 Z " /><path fill="rgb(255,255,255)" stroke="rgb(255,255,255)" stroke-width="0.6" opacity="1" d="M 376.5 145 L 378 145.5 L 378 159.5 L 375.5 165 L 363.5 174 L 347.5 180 L 346 178.5 L 346 162.5 Q 363.2 155.7 376.5 145 Z " /><path fill="rgb(255,255,255)" stroke="rgb(255,255,255)" stroke-width="0.6" opacity="1" d="M 175.5 151 L 177 152.5 L 177 168.5 L 171.5 175 L 164.5 181 L 148.5 188 L 147 186.5 L 147 167.5 L 163.5 160 L 175.5 151 Z " /><path fill="rgb(255,255,255)" stroke="rgb(255,255,255)" stroke-width="0.6" opacity="1" d="M 276.5 153 L 278 154.5 L 278 179.5 L 260.5 191 L 245.5 194 L 244 192.5 L 244 172.5 L 246.5 170 L 251.5 170 L 263.5 164 L 276.5 153 Z " /><path fill="rgb(255,255,255)" stroke="rgb(255,255,255)" stroke-width="0.6" opacity="1" d="M 233.5 176 L 236 177.5 L 236 209.5 L 242.5 216 Q 251.2 222.3 268.5 220 Q 279.6 218.6 285 211.5 L 286 209.5 L 286 176 L 319.5 177 L 336.5 180 L 338 181.5 L 338 210.5 L 342.5 215 L 354.5 220 L 372.5 220 Q 379.7 218.2 383 212.5 L 384 192.5 L 385.5 191 L 394.5 192 L 397.5 195 L 403.5 195 L 408.5 197 Q 420.3 202.2 428 211.5 L 430 219.5 L 422.5 228 L 408 237.5 L 413.5 239 Q 427.3 235.6 435 227 L 440 288.5 L 437 302.5 L 430.5 311 Q 418.7 312.8 415 306.5 Q 410.9 293.1 401.5 285 Q 388.6 283.1 385 290.5 L 380 299.5 L 380 303.5 L 373 319.5 L 366.5 326 Q 361.5 330 350.5 328 L 340 322 Q 335 308.3 324.5 299 Q 319 294.5 307.5 296 Q 297.8 300.3 292 308.5 L 288 317.5 L 275.5 333 Q 269.3 337.8 256.5 336 L 245 329.5 L 231 305.5 L 224.5 299 Q 220.2 295.3 210.5 297 Q 200.3 299.8 195 307.5 Q 189.2 321.2 178.5 330 L 171.5 333 L 163.5 333 Q 154.3 330.2 149 323.5 L 142 308.5 L 142 301.5 Q 138.8 292.2 131.5 287 L 120.5 286 L 111 294.5 L 98.5 312 L 87.5 313 L 81 307.5 L 77 298.5 L 77 258.5 L 79 256.5 L 80 234.5 L 83 228 L 91.5 234 L 115.5 245 L 128.5 245 L 137.5 250 L 154.5 252 L 157.5 254 Q 174.7 253.8 187.5 258 L 218.5 259 L 234.5 261 L 278.5 261 L 279.5 260 L 311.5 260 Q 322.2 255.2 339.5 257 L 349.5 254 L 358.5 254 L 362.5 252 L 378.5 250 Q 380.8 246.3 387.5 247 L 391 243.5 Q 389.3 240.3 382.5 242 L 366.5 246 Q 357.5 244.5 353.5 248 L 339.5 248 L 326.5 251 L 307.5 251 L 300.5 253 L 278.5 253 L 277.5 254 L 241.5 254 L 240.5 253 L 215.5 253 L 209.5 251 L 191.5 251 L 183.5 248 L 166.5 248 Q 163.6 244.4 155.5 246 L 143.5 242 L 129.5 242 L 123.5 238 L 119.5 238 L 101.5 231 L 87 219.5 L 87 214.5 L 91 208 L 95.5 207 L 103.5 200 Q 111.4 199.9 114.5 195 L 137.5 189 L 139 190.5 L 139 210.5 L 143.5 216 Q 154 222.5 173.5 220 L 184 212.5 L 185 209.5 L 185 181.5 L 186.5 180 L 201.5 177 L 232.5 177 L 233.5 176 Z " /><path fill="rgb(255,255,255)" stroke="rgb(255,255,255)" stroke-width="0.6" opacity="1" d="M 274.5 189 L 278 189.5 L 278 206.5 Q 271.3 213.8 255.5 212 L 244 207.5 Q 242.3 200.7 245.5 199 Q 265.4 199.4 274.5 189 Z " /><path fill="rgb(255,255,255)" stroke="rgb(255,255,255)" stroke-width="0.6" opacity="1" d="M 175.5 203 L 177 205.5 L 174.5 209 L 171 208.5 L 175.5 203 Z " /><path fill="rgb(255,255,255)" stroke="rgb(255,255,255)" stroke-width="0.6" opacity="1" d="M 92 372 L 116.5 384 L 120.5 384 L 123.5 387 L 148.5 394 L 157.5 394 L 160.5 396 Q 171.1 394.9 176.5 399 L 217.5 402 L 221.5 404 L 276.5 404 L 303.5 401 L 318.5 401 L 323.5 399 L 335.5 399 L 372.5 392 L 406.5 380 L 422 372 L 422 402.5 L 412.5 414 L 402.5 420 L 392.5 422 L 389.5 425 Q 383.1 424.1 381.5 428 L 375.5 428 L 364.5 433 L 346.5 435 L 338.5 438 L 327.5 438 L 323.5 440 L 312.5 441 L 298.5 441 L 295.5 443 L 216.5 443 L 204.5 440 L 188.5 440 Q 185 436 175.5 438 L 132.5 428 L 106.5 417 L 92 404.5 L 92 372 Z " /><path fill="rgb(255,255,255)" stroke="rgb(255,255,255)" stroke-width="0.6" opacity="1" d="M 81.5 373 L 83 374.5 L 84 407.5 L 96.5 421 L 103.5 426 L 124.5 435 L 158.5 444 L 167.5 444 L 170.5 446 Q 181.7 444.8 187.5 449 Q 204 447.5 214.5 452 L 274.5 452 L 275.5 451 L 304.5 451 Q 311 447 323.5 449 L 333.5 446 L 342.5 446 L 345.5 444 L 354.5 444 L 375.5 439 L 379.5 436 L 385.5 436 L 411.5 425 L 427 411.5 L 430 404.5 Q 427.5 385.5 432.5 374 Q 453.2 379.8 465 394.5 L 470 403.5 L 470 413.5 L 456.5 431 L 446.5 438 L 427.5 447 L 404.5 455 L 398.5 455 L 384.5 460 L 377.5 460 L 374.5 462 L 363.5 462 L 357.5 465 Q 347.8 463.3 343.5 467 L 321.5 468 L 319.5 470 Q 300.8 468.8 286.5 472 L 225.5 472 L 210.5 470 L 194.5 470 L 189.5 468 L 177.5 468 L 166.5 465 L 154.5 465 L 151.5 463 L 143.5 463 Q 138.7 458.8 128.5 460 L 123.5 457 L 108.5 455 L 104.5 452 L 85.5 447 L 66.5 438 L 47 423.5 L 41 412.5 L 41 405.5 Q 43.1 396.1 49.5 391 L 65.5 379 L 74.5 377 L 81.5 373 Z " /><path fill="rgb(0,0,0)" stroke="rgb(0,0,0)" stroke-width="0.6" opacity="1" d="M 263.5 32 L 269 35.5 L 284 66.5 L 284 80.5 Q 282.1 92.1 273.5 97 L 265 101.5 L 266.5 107 Q 269.8 110.2 277.5 109 L 286 116.5 L 286 166.5 L 287.5 168 L 296.5 167 L 302.5 169 L 321.5 169 L 337.5 172 L 339 169.5 L 338 156.5 L 339 155.5 L 339 133.5 L 345.5 125 L 360 120.5 Q 361 115 357.5 114 L 349 107.5 Q 342.3 101.2 345 85.5 Q 354.9 65.4 369.5 50 L 374 53.5 L 386 79.5 L 387 97.5 Q 384.9 107.4 377.5 112 Q 375.8 114.8 370.5 114 L 368 116.5 Q 366.8 122.8 370.5 124 Q 383.4 122.1 386 130.5 L 387 146.5 L 386 147.5 L 386 177.5 L 385 180.5 L 387.5 183 L 409.5 189 L 420.5 195 L 437 209.5 L 443 224.5 Q 441.4 237.6 446 244.5 L 446 266.5 L 448 289.5 Q 443.9 293.9 445 303.5 L 437.5 315 L 431 319.5 L 431 361.5 L 430 363.5 L 459 378.5 L 460.5 381 L 472 390.5 L 478 402.5 L 478 414.5 Q 471.9 430.4 458.5 439 L 431.5 454 L 427.5 454 L 425.5 456 L 421.5 456 L 404.5 463 L 397.5 463 L 392.5 466 L 384.5 466 L 369.5 471 Q 360.7 469.2 357.5 473 L 346.5 473 L 335.5 476 L 304.5 477 L 300.5 479 L 223.5 480 L 222.5 479 L 193.5 478 L 188.5 476 L 174.5 476 L 170.5 474 Q 158.9 475.1 152.5 471 L 142.5 471 L 136.5 468 L 128.5 468 L 113.5 463 L 107.5 463 L 73.5 451 L 43 432 L 34 416.5 L 34 400.5 L 42.5 387 L 45 385.5 L 48.5 381 L 67.5 370 L 83 364.5 L 84 362.5 L 84 337.5 L 83 336.5 L 83 319.5 L 81.5 318 L 75 313.5 Q 70 307.5 69 297.5 L 69 259.5 L 71 253.5 L 71 238.5 Q 75.2 233.7 74 223.5 Q 78.2 208.2 89.5 200 L 106.5 190 L 121.5 184 L 127.5 184 L 139 179.5 L 138 176.5 L 138 133.5 L 144.5 126 Q 148.5 122.5 157.5 124 L 159 122.5 Q 159.8 116.7 156.5 115 Q 147.5 115 145 108.5 Q 138.6 102.9 141 88.5 L 162.5 52 Q 168.3 51.3 169 55.5 L 182 81.5 L 183 99.5 L 175.5 112 L 165 116.5 Q 163.8 122.8 167.5 124 L 175.5 124 L 185 132.5 L 185 170.5 L 186.5 172 L 202.5 169 L 232.5 169 L 236 166.5 L 236 118.5 L 243.5 110 L 255.5 109 L 259 105.5 L 257.5 100 Q 247.7 97.3 243 89.5 L 241 85.5 L 241 70.5 L 246 58.5 L 251 53.5 L 263.5 32 Z M 265 44 L 252 62 L 247 75 Q 246 84 250 89 L 256 93 L 257 92 L 258 83 L 262 81 Q 266 83 264 91 L 267 93 L 272 91 L 277 81 L 276 64 L 265 44 Z M 370 62 L 355 81 L 352 88 L 353 104 L 360 108 L 362 101 L 367 98 Q 370 100 369 108 L 373 109 Q 378 106 380 99 L 380 84 L 372 66 Q 374 61 370 62 Z M 165 64 L 151 83 L 148 92 L 149 104 L 157 109 Q 160 107 158 101 L 163 98 Q 166 100 165 108 L 170 109 L 176 100 L 176 86 L 167 69 Q 169 63 165 64 Z M 254 114 Q 247 114 244 119 L 244 139 L 246 140 L 253 136 L 265 133 L 274 127 L 275 131 L 257 142 L 244 146 L 244 164 L 246 165 Q 266 160 278 146 L 278 119 L 275 115 Q 265 113 263 119 L 260 118 L 258 116 L 254 114 Z M 354 128 L 351 129 L 346 135 L 346 153 L 348 154 L 358 151 L 375 140 L 376 144 L 364 153 L 346 162 L 346 180 L 348 181 L 364 175 L 377 166 L 379 160 L 380 135 L 372 128 L 363 133 L 360 130 Q 359 127 354 128 Z M 152 129 L 145 135 L 145 158 L 148 160 L 154 159 L 171 149 L 179 139 L 178 135 L 174 130 L 168 129 L 161 134 L 159 132 Q 158 128 152 129 Z M 176 150 Q 164 161 146 167 L 147 172 L 147 186 L 146 187 L 148 189 L 153 186 L 157 186 L 169 179 L 177 170 L 177 152 L 176 150 Z M 277 152 Q 264 166 244 172 L 244 193 L 246 194 Q 255 195 261 192 L 278 181 L 278 154 L 277 152 Z M 377 170 Q 365 181 349 186 L 346 189 L 346 208 L 361 213 L 375 211 L 377 206 Q 379 197 376 195 L 359 207 L 356 207 L 354 205 L 374 192 L 377 189 L 377 175 L 379 173 Q 380 169 377 170 Z M 234 175 L 233 176 L 205 176 L 186 179 L 184 181 L 185 184 L 184 186 L 184 211 L 182 214 Q 178 219 169 220 L 158 220 L 146 216 L 139 208 L 139 191 L 138 189 L 131 189 L 115 194 L 112 197 L 104 199 L 93 206 L 87 213 L 87 222 L 102 232 L 118 238 L 122 238 L 131 243 L 144 243 Q 150 247 162 246 L 169 249 Q 182 247 189 251 Q 202 249 211 253 L 240 253 L 241 254 L 279 254 L 280 253 L 306 253 L 313 251 L 332 251 Q 341 247 357 248 L 361 246 L 372 246 L 383 243 Q 389 241 389 245 L 387 247 Q 379 246 377 250 L 360 252 L 356 254 Q 342 253 335 257 L 319 257 L 313 259 L 282 259 L 278 261 L 236 261 L 235 260 L 193 258 L 180 255 L 161 254 L 157 252 L 149 252 Q 145 248 138 249 L 128 244 L 116 244 L 90 231 L 84 224 L 79 236 L 77 258 L 77 277 L 76 278 L 76 298 L 81 310 L 88 314 L 99 313 L 112 295 L 123 286 Q 129 285 132 288 L 141 302 L 142 311 L 148 324 Q 153 330 162 333 Q 173 335 179 331 Q 190 321 197 307 L 211 298 Q 220 296 225 300 L 232 309 L 243 329 Q 248 335 257 337 Q 269 339 276 334 Q 287 324 293 309 L 308 297 Q 319 295 325 300 Q 333 308 338 321 L 349 328 L 367 327 L 374 320 L 380 306 L 380 302 L 386 291 Q 390 284 402 286 Q 410 294 414 307 L 422 312 Q 430 314 434 310 L 438 304 L 440 294 L 440 277 L 437 254 L 437 240 Q 434 235 435 227 L 434 225 L 432 228 Q 425 235 414 238 L 411 237 L 425 228 L 431 220 L 429 212 Q 422 202 411 197 L 399 194 L 395 191 L 386 190 L 384 192 L 384 204 L 381 214 Q 377 219 370 220 L 357 220 L 343 214 L 338 210 L 338 181 L 326 177 L 307 177 L 304 175 L 288 175 L 286 177 L 286 207 L 284 212 Q 279 218 269 219 Q 251 221 243 215 L 236 209 L 236 177 L 234 175 Z M 176 176 L 174 181 Q 163 189 149 194 L 147 196 L 147 209 L 151 211 L 164 211 L 165 212 L 177 209 L 176 201 L 177 196 L 176 191 L 177 186 Q 179 178 176 176 Z M 276 187 L 265 195 L 246 199 Q 242 201 244 209 L 257 213 Q 269 214 276 210 L 278 208 L 278 189 L 276 187 Z M 397 292 L 394 293 L 386 305 L 384 316 L 378 326 Q 373 333 364 336 Q 348 338 342 332 Q 331 325 326 313 L 315 303 L 308 304 L 298 314 L 287 333 L 277 341 L 266 344 L 255 344 L 243 337 Q 231 329 227 314 L 220 306 Q 209 304 205 308 L 192 328 Q 185 338 170 341 L 158 339 L 147 332 L 139 323 L 136 308 L 132 299 Q 130 293 123 294 Q 114 301 109 313 Q 103 319 93 322 L 91 324 L 91 361 L 109 373 L 113 373 L 116 376 L 130 381 L 143 383 L 148 386 L 156 386 L 159 388 L 167 388 L 173 391 Q 183 389 188 393 L 201 393 L 206 395 L 226 395 L 227 396 L 306 395 L 312 393 L 326 393 Q 333 389 346 390 L 363 385 L 370 385 L 388 378 L 392 378 L 419 365 L 422 362 L 423 355 L 423 321 L 415 315 Q 405 309 402 296 L 397 292 Z M 421 370 L 407 379 L 373 391 L 331 399 L 320 399 L 315 401 L 276 404 L 274 403 L 220 403 Q 209 400 196 401 L 191 399 L 181 399 L 173 396 L 163 396 L 160 394 L 153 394 L 124 386 L 92 371 L 91 385 L 92 407 L 107 418 L 133 429 L 172 438 L 199 440 L 212 443 L 297 443 L 298 442 L 312 442 L 315 440 L 327 440 L 332 438 L 342 438 Q 347 434 357 435 L 360 433 L 368 433 L 379 428 L 384 428 L 401 420 L 405 420 L 415 414 L 422 405 L 422 372 L 421 370 Z M 82 372 Q 76 377 66 378 L 51 389 Q 43 393 41 403 L 41 415 L 46 424 L 65 438 L 79 445 L 83 445 L 86 448 L 105 453 L 109 456 L 173 468 L 186 468 L 191 470 Q 210 469 225 472 L 288 472 L 302 470 L 344 468 L 351 465 L 375 463 L 380 460 L 388 460 L 402 455 L 408 455 L 428 448 L 431 445 L 435 445 L 456 433 Q 465 426 470 416 Q 473 400 466 395 Q 454 379 433 373 Q 428 384 430 402 L 426 412 L 412 424 L 398 431 Q 388 431 383 436 L 378 436 L 376 438 L 351 444 Q 343 443 340 446 L 330 446 L 319 449 Q 307 447 301 451 L 275 451 L 274 452 L 272 451 L 213 451 L 202 448 L 187 448 Q 182 444 173 446 L 170 444 L 163 444 L 125 434 L 106 426 L 96 419 L 84 407 L 83 374 L 82 372 Z " /><path fill="rgb(0,0,0)" stroke="rgb(0,0,0)" stroke-width="0.6" opacity="1" d="M 172.5 199 L 174 202.5 L 170.5 208 L 164.5 210 L 163 208.5 L 172.5 199 Z " /><path fill="rgb(224,62,61)" stroke="rgb(224,62,61)" stroke-width="0.6" opacity="1" d="M 253.5 115 L 257 116.5 L 258.5 119 L 263.5 120 L 267.5 115 Q 275.1 113.9 277 118.5 L 278 144.5 Q 265.5 159.2 244 164 L 244 146.5 L 245.5 145 Q 252.9 145.9 256.5 143 L 276 130.5 L 274.5 126 L 254.5 136 L 244 138 L 244 119.5 L 246.5 117 L 253.5 115 Z " /><path fill="rgb(224,62,61)" stroke="rgb(224,62,61)" stroke-width="0.6" opacity="1" d="M 376.5 171 L 378 172.5 L 377 173.5 L 377 187.5 L 373.5 191 Q 361.3 195.8 353 204.5 L 354.5 208 L 358.5 208 L 375 198 L 376 207.5 L 372.5 211 L 358.5 212 L 346 206.5 Q 343.8 193.3 348.5 187 Q 365.2 181.7 376.5 171 Z " /><path fill="rgb(224,62,61)" stroke="rgb(224,62,61)" stroke-width="0.6" opacity="1" d="M 175 178 Q 178.5 176.9 177 184.5 Q 174 185.5 175 190.5 L 176 195.5 L 163 206.5 L 162 211 Q 151.3 212.9 147 207.5 L 147 196.5 L 148.5 195 Q 164.1 190.1 175 180.5 L 175 178 Z " /><path fill="rgb(224,62,61)" stroke="rgb(224,62,61)" stroke-width="0.6" opacity="1" d="M 395.5 293 Q 400.3 292.3 401 295.5 Q 403.5 307.5 411.5 314 L 423 320.5 L 422 321.5 L 422 358.5 L 420.5 360 L 415 364.5 L 413.5 367 L 393.5 375 L 390.5 378 L 384.5 378 L 373.5 382 L 371.5 382 L 366.5 382 L 363.5 385 L 358.5 385 L 340.5 390 Q 328 389 320.5 393 L 306.5 393 L 300.5 395 L 227.5 396 L 217.5 394 L 208.5 395 L 203.5 393 L 190.5 393 L 182.5 390 L 171.5 390 L 168.5 388 L 160.5 388 Q 156.1 384 146.5 385 L 142.5 382 L 129.5 380 L 110.5 373 L 93 361.5 L 92 323.5 Q 103.2 320.2 110 312.5 Q 114.3 301.8 122.5 295 Q 129.4 294.1 131 298.5 L 135 307.5 L 138 322.5 L 147.5 334 L 157.5 340 L 172.5 341 Q 185.3 338.3 192 329.5 L 202 312.5 L 206.5 308 Q 210.2 304.7 218.5 306 L 226 313.5 L 234 329.5 L 242.5 338 L 256.5 345 L 264.5 345 L 276.5 342 L 289 331.5 L 299 313.5 L 307.5 305 L 315.5 304 L 324 311.5 L 338.5 331 L 352.5 337 L 360.5 336 L 362.5 337 Q 371.9 334.9 377 328.5 L 385 315.5 L 388 301.5 L 395.5 293 Z " /><path fill="rgb(27,27,27)" stroke="rgb(27,27,27)" stroke-width="0.6" opacity="1" d="M 244.5 91 L 249.5 97 L 244.5 91 Z " /><path fill="rgb(27,27,27)" stroke="rgb(27,27,27)" stroke-width="0.6" opacity="1" d="M 171.5 199 L 163.5 208 L 171.5 199 Z " /><path fill="rgb(27,27,27)" stroke="rgb(27,27,27)" stroke-width="0.6" opacity="1" d="M 472.5 425 L 460.5 438 L 472.5 425 Z " /><path fill="rgb(129,129,129)" stroke="rgb(129,129,129)" stroke-width="0.6" opacity="1" d="M 236.5 209 L 241.5 215 L 236.5 209 Z " /><path fill="rgb(129,129,129)" stroke="rgb(129,129,129)" stroke-width="0.6" opacity="1" d="M 372.5 320 L 367.5 326 L 372.5 320 Z " /><path fill="rgb(218,218,218)" stroke="rgb(218,218,218)" stroke-width="0.6" opacity="1" d="M 472.5 426 L 461.5 438 L 472.5 426 Z " /><path fill="rgb(128,60,59)" stroke="rgb(128,60,59)" stroke-width="0.6" opacity="1" d="M 306.5 305 L 299.5 313 L 306.5 305 Z " /><path fill="rgb(128,60,59)" stroke="rgb(128,60,59)" stroke-width="0.6" opacity="1" d="M 219.5 306 L 225.5 313 L 219.5 306 Z " /><path fill="rgb(128,60,59)" stroke="rgb(128,60,59)" stroke-width="0.6" opacity="1" d="M 191.5 329 L 186.5 335 L 185 334.5 L 191.5 329 Z " /><path fill="rgb(201,61,60)" stroke="rgb(201,61,60)" stroke-width="0.6" opacity="1" d="M 171.5 198 L 163.5 207 L 171.5 198 Z " /><path fill="rgb(201,61,60)" stroke="rgb(201,61,60)" stroke-width="0.6" opacity="1" d="M 333.5 325 L 338.5 331 L 333.5 325 Z " /><path fill="rgb(144,77,143)" stroke="rgb(144,77,143)" stroke-width="0.6" opacity="1" d="M 91 329 L 93 329.5 L 93 359 L 91 357.5 L 92 355.5 L 91 354.5 L 91 329 Z " /><path fill="rgb(144,77,143)" stroke="rgb(144,77,143)" stroke-width="0.6" opacity="1" d="M 372.5 381 L 373 383 L 365 385 L 366.5 382 L 372.5 381 Z " /></svg>