<svg width="1254" height="1254" preserveAspectRatio="xMidYMid meet" viewBox="0 0 512 512" version="1.1" xmlns="http://www.w3.org/2000/svg" ><path fill="rgb(255,255,255)" stroke="rgb(255,255,255)" stroke-width="0.6" opacity="1" d="M 0 0 L 512 0 L 512 512 L 0 512 L 0 0 Z M 193 31 L 185 34 Q 175 40 171 52 Q 169 63 173 70 L 180 76 Q 192 79 200 86 Q 228 107 228 158 L 227 159 L 207 159 L 197 163 L 190 154 L 177 142 L 159 135 L 143 135 Q 139 138 132 137 L 113 149 Q 100 160 96 181 L 96 201 L 101 219 L 96 222 L 82 238 L 76 252 Q 77 259 74 262 L 74 276 L 77 286 L 87 304 L 98 313 L 86 328 L 80 346 Q 78 362 82 373 Q 87 385 97 393 L 97 396 L 88 409 L 84 421 L 84 442 Q 87 444 86 451 L 94 464 Q 102 475 118 479 L 146 479 L 163 470 L 177 451 L 180 437 L 197 442 L 214 441 L 226 436 L 234 430 L 248 413 L 252 400 L 256 401 L 275 400 L 291 391 L 304 376 L 308 367 Q 312 357 310 342 L 312 340 L 332 339 L 346 331 L 362 313 L 367 298 L 367 274 L 357 249 L 384 258 L 400 258 L 401 259 L 432 258 L 438 253 L 437 236 L 431 210 L 420 189 L 425 183 L 424 175 L 414 160 Q 406 150 395 144 L 393 141 L 401 137 L 413 125 Q 417 121 416 112 Q 404 97 385 90 L 372 86 L 344 86 L 342 85 L 345 80 Q 346 71 341 70 L 326 70 Q 321 74 313 73 L 295 81 L 287 87 L 274 101 L 262 122 L 254 120 L 252 119 L 250 101 L 245 85 Q 237 66 225 52 L 205 33 L 193 31 Z " /><path fill="rgb(116,76,154)" stroke="rgb(116,76,154)" stroke-width="0.6" opacity="1" d="M 329.5 80 L 332 81 Q 332.9 87.5 329 90.5 L 329 98.5 Q 330.8 101.8 337.5 100 L 340.5 97 L 358.5 95 L 373.5 97 L 387.5 102 L 405 115.5 L 391.5 131 L 387.5 132 L 374 141.5 Q 373.3 146.3 376.5 147 Q 397.9 153.6 410 169.5 L 414 178.5 L 407 184.5 L 407 188.5 L 415 197.5 L 424 222.5 L 424 233.5 L 427 247 L 413.5 248 L 411.5 247 L 408.5 249 L 390.5 249 L 372.5 245 L 354 233.5 L 351.5 230 Q 345.8 229.3 345 233.5 L 344 255.5 L 339.5 265 L 316.5 257 L 303 245.5 L 295.5 234 L 288.5 235 L 284 230.5 L 279 216.5 L 274.5 212 L 270 210.5 Q 267.6 190.4 257 178.5 L 256 165.5 Q 257.6 149.1 267.5 141 L 269.5 140 L 284.5 144 L 291 149.5 L 292 156.5 L 302 177.5 L 302 184.5 L 310 203.5 L 312 216.5 L 317 225 Q 320.8 226.1 319 217.5 L 317 213.5 L 317 206.5 Q 313.5 203 314 195.5 L 310 185.5 L 310 180.5 L 301 158.5 L 300 152 L 315.5 157 L 344.5 174 L 371.5 195 L 382 205.5 L 384.5 209 L 394 217.5 L 398.5 223 L 400 220.5 L 379.5 195 L 369 185.5 L 367.5 184 L 345 167.5 L 341.5 163 L 334.5 161 L 316.5 149 L 301 143 L 303.5 138 L 318.5 131 L 322.5 131 L 336.5 125 L 350.5 123 L 353 120.5 L 351.5 117 L 335.5 118 L 313.5 125 Q 300.1 129.6 291.5 139 L 286.5 135 L 275.5 132 L 273 129.5 Q 276.1 108.6 289.5 98 L 309.5 85 L 329.5 80 Z " /><path fill="rgb(116,76,154)" stroke="rgb(116,76,154)" stroke-width="0.6" opacity="1" d="M 270.5 224 L 276 233.5 L 288 245.5 L 288 247.5 Q 287 252 280.5 251 Q 274.1 246.2 262 248 L 270.5 224 Z " /><path fill="rgb(116,76,154)" stroke="rgb(116,76,154)" stroke-width="0.6" opacity="1" d="M 294.5 255 L 300.5 255 Q 308.8 264.7 321.5 270 L 333.5 272 L 336.5 274 L 344.5 274 Q 349.8 270.6 350 263 L 352 264.5 L 355 269.5 Q 354.1 278.4 358 282.5 L 358 289.5 L 352 309.5 L 339.5 323 L 327.5 329 L 314.5 330 L 311.5 329 L 307 327.5 L 314 309.5 L 313 304.5 L 314 293.5 L 311 287.5 L 311 281.5 L 306 271.5 L 293 256.5 L 294.5 255 Z " /><path fill="rgb(116,76,154)" stroke="rgb(116,76,154)" stroke-width="0.6" opacity="1" d="M 255.5 258 L 274.5 258 Q 285.1 261.9 292 269.5 L 303 289.5 L 304 310.5 L 299 323.5 L 284.5 339 L 272.5 345 L 258.5 346 L 241.5 340 L 231 331.5 L 231 327.5 L 236 316.5 L 236 293.5 L 230 275.5 L 255.5 258 Z " /><path fill="rgb(116,76,154)" stroke="rgb(116,76,154)" stroke-width="0.6" opacity="1" d="M 150.5 396 L 155 398.5 L 154 403.5 Q 159.5 420 171 430.5 L 171 433.5 L 170 441.5 L 161.5 456 L 159 457.5 L 154.5 463 L 140.5 470 L 128.5 471 Q 111.1 468.4 102 457.5 L 95 445.5 L 93 426.5 L 100 407.5 L 108.5 399 L 112.5 399 L 118.5 402 L 138.5 402 L 145.5 400 L 150.5 396 Z " /><path fill="rgb(0,0,0)" stroke="rgb(0,0,0)" stroke-width="0.6" opacity="1" d="M 192.5 32 Q 202.9 31.1 207.5 36 L 227 55.5 Q 237.9 69.6 245 87.5 L 249 99.5 L 251 119.5 L 252.5 121 L 262.5 123 L 274 102.5 L 289.5 86 L 312.5 74 L 322.5 73 L 325.5 71 L 340.5 71 Q 345.2 72.2 344 79.5 L 341 85.5 Q 342.3 88.3 347.5 87 L 348.5 86 L 368.5 86 Q 399.1 92.9 416 113.5 L 413 122.5 L 398.5 137 L 392 141.5 Q 390.9 144.8 393.5 144 L 411 157.5 L 422 172.5 L 424 182.5 L 419 186.5 L 431 212.5 L 436 234.5 L 437 252.5 L 431.5 257 L 386.5 258 Q 380.8 254.2 371.5 254 L 356.5 247 L 356 249.5 L 367 276.5 L 367 294.5 L 361 311.5 L 343.5 331 L 330.5 338 L 314.5 340 L 311.5 339 L 310 340.5 Q 311.6 356.6 307 366.5 Q 300.5 381.5 288.5 391 L 270.5 400 L 254.5 400 L 251.5 399 L 246 413.5 L 230.5 431 L 209.5 441 L 195.5 441 L 180.5 435 L 175 451.5 L 159.5 471 L 142.5 479 L 120.5 479 Q 102.3 474.3 93 460.5 L 87 450.5 Q 87.8 442.7 84 439.5 L 84 424.5 Q 87.8 405.3 99 393.5 Q 89.6 385.9 84 374.5 L 80 362.5 L 80 348.5 Q 84 345 83 336.5 L 88 326.5 L 100 312.5 L 87 301.5 L 78 285.5 Q 78 277.5 74 273.5 L 74 264.5 L 77 258.5 L 78 248.5 L 83 238.5 L 97.5 222 L 102 219.5 L 96 197.5 L 96 183.5 L 103 162.5 L 116.5 147 L 131.5 138 Q 140.7 139.2 144.5 135 L 154.5 135 Q 178.5 140 191 156.5 L 196.5 164 Q 205.6 157.1 223.5 159 L 226.5 160 L 228 158.5 L 228 136.5 L 222 114.5 L 217 104.5 L 202.5 87 Q 194.2 78.3 180.5 75 L 174 68.5 Q 170.2 63.8 171 54.5 Q 174.7 42.7 183.5 36 L 192.5 32 Z M 192 41 L 182 52 L 181 65 L 208 80 L 228 108 L 233 120 L 237 138 L 236 164 L 239 165 L 242 158 L 242 144 L 243 143 L 242 108 Q 237 87 227 71 L 214 54 L 202 42 L 192 41 Z M 326 80 Q 314 81 307 86 L 287 100 Q 274 110 272 131 Q 275 134 283 134 L 291 139 L 294 139 Q 300 130 313 126 L 338 118 L 352 118 L 352 121 L 350 123 L 338 124 L 322 131 L 318 131 L 303 138 L 300 142 L 305 145 L 322 152 L 332 160 L 342 164 L 344 168 L 369 185 Q 386 200 399 221 L 399 222 L 389 212 Q 355 174 305 152 L 299 154 L 309 180 L 311 193 L 315 201 Q 314 206 317 208 L 317 216 L 319 220 Q 321 225 317 224 L 311 213 L 311 205 L 302 182 L 302 177 L 292 156 L 292 150 L 287 144 L 269 140 Q 259 147 256 161 L 257 181 Q 267 191 269 211 L 275 213 L 279 218 L 283 231 Q 285 237 296 235 L 304 248 L 322 260 L 341 265 Q 348 255 345 235 Q 346 230 352 231 L 353 234 L 374 246 L 388 249 L 427 248 L 428 247 L 422 215 L 416 199 L 407 186 L 415 179 L 409 168 Q 397 152 376 146 L 374 143 L 379 138 L 393 131 L 403 121 L 405 115 L 389 102 L 373 96 L 360 95 L 343 96 L 336 100 Q 330 101 329 98 L 333 82 Q 331 78 326 80 Z M 254 140 L 250 146 L 252 150 L 256 145 L 256 142 L 254 140 Z M 138 146 L 127 151 L 109 171 L 106 181 L 106 205 L 113 214 L 118 212 L 137 212 Q 139 216 146 215 L 161 227 L 163 226 L 162 224 Q 162 193 177 179 L 188 169 L 183 160 Q 171 142 138 146 Z M 211 169 Q 207 173 200 172 L 192 177 L 176 195 L 171 209 L 171 227 Q 174 229 173 237 L 184 252 L 190 251 Q 199 250 204 253 L 222 265 Q 237 264 245 255 L 257 240 L 260 231 L 261 218 Q 261 198 252 188 Q 245 177 234 172 Q 225 168 211 169 Z M 127 221 L 116 222 L 100 231 Q 86 241 84 263 Q 83 284 92 295 L 107 306 L 120 310 L 135 309 L 137 307 L 137 297 L 139 287 L 149 270 L 164 257 L 168 256 L 168 253 L 160 238 Q 151 222 127 221 Z M 271 223 L 261 247 Q 263 250 272 248 L 279 251 L 286 251 L 289 246 L 283 240 L 271 223 Z M 294 255 L 292 258 L 295 259 L 306 273 L 311 283 Q 310 290 313 293 L 313 312 L 310 322 L 306 328 L 311 330 L 326 330 L 341 323 L 353 309 L 358 292 L 358 281 L 352 261 L 349 264 L 348 270 L 344 274 L 338 274 Q 334 270 327 271 L 315 266 L 301 255 L 294 255 Z M 254 258 L 229 276 L 236 295 L 236 314 L 231 326 L 231 333 L 241 340 L 257 346 L 271 346 L 286 339 L 298 326 L 304 313 L 304 292 Q 301 279 294 272 Q 287 263 277 258 L 254 258 Z M 181 260 L 175 261 L 161 269 Q 148 279 145 299 L 146 316 L 154 333 Q 163 343 178 347 L 195 347 L 210 341 L 222 327 L 227 313 L 227 295 L 218 275 Q 209 258 181 260 Z M 110 318 L 105 321 L 92 337 L 89 349 L 89 363 L 95 377 Q 105 391 128 393 Q 142 395 149 388 L 155 382 L 165 362 L 167 353 L 161 349 L 144 332 L 139 323 L 139 320 L 138 318 L 110 318 Z M 223 339 L 220 344 L 232 349 L 247 369 L 254 390 L 269 390 L 287 382 Q 296 374 300 362 L 300 342 L 299 340 L 287 349 L 272 355 L 254 355 L 237 348 L 227 339 L 223 339 Z M 211 349 Q 206 355 197 356 L 179 358 L 170 367 L 163 384 L 163 401 L 170 417 Q 179 426 192 431 L 213 431 L 229 423 Q 238 415 242 402 L 242 380 L 234 364 Q 227 351 211 349 Z M 152 395 L 147 399 L 137 402 L 120 402 Q 116 398 108 399 L 99 409 L 93 426 Q 91 447 101 458 Q 109 468 125 471 L 143 470 L 156 463 Q 169 454 171 435 L 171 430 Q 161 421 156 408 L 155 398 L 152 395 Z " /><path fill="rgb(76,139,71)" stroke="rgb(76,139,71)" stroke-width="0.6" opacity="1" d="M 192.5 41 Q 200.6 39.9 203.5 44 L 217 57.5 Q 233.7 76.8 241 105.5 Q 244.8 121.2 243 142.5 L 242 143.5 L 242 156.5 L 238.5 165 L 237 163.5 L 237 135.5 L 233 118.5 Q 223.5 95 206.5 79 L 182 64.5 L 181 55.5 Q 184 45.5 192.5 41 Z " /><path fill="rgb(76,139,71)" stroke="rgb(76,139,71)" stroke-width="0.6" opacity="1" d="M 211.5 169 Q 238.4 168.6 249 184.5 Q 259.8 196.2 261 217.5 L 260 228.5 L 257 238.5 Q 251.6 249.1 242.5 256 Q 234.6 262.6 222.5 265 L 204.5 253 L 190.5 250 L 184.5 252 L 173 235.5 Q 174.7 228.3 171 226.5 L 171 209.5 L 177 193.5 L 192.5 177 L 200.5 172 Q 208.3 172.8 211.5 169 Z " /><path fill="rgb(76,139,71)" stroke="rgb(76,139,71)" stroke-width="0.6" opacity="1" d="M 110.5 318 L 131.5 319 L 137.5 318 L 145 333.5 L 158.5 348 L 167 352.5 L 165 360.5 L 154 382.5 L 150.5 386 Q 143.1 393.6 127.5 393 L 122.5 391 L 119.5 392 L 105.5 386 L 95 375.5 L 90 364.5 L 89 350.5 L 93 335.5 L 105.5 321 L 110.5 318 Z " /><path fill="rgb(76,139,71)" stroke="rgb(76,139,71)" stroke-width="0.6" opacity="1" d="M 211.5 349 Q 226.1 351.9 233 362.5 L 242 380.5 L 242 400.5 Q 237.6 415.6 226.5 424 L 211.5 431 L 193.5 431 Q 178.4 426.6 170 415.5 L 163 399.5 L 163 384.5 L 171 365.5 L 178.5 358 L 197.5 356 Q 206.5 354.5 211.5 349 Z " /><path fill="rgb(72,103,167)" stroke="rgb(72,103,167)" stroke-width="0.6" opacity="1" d="M 139.5 146 Q 172.3 143.2 184 161.5 L 187 168.5 L 178 176.5 Q 168.6 186.6 164 201.5 Q 160 211.1 162 226 L 146.5 215 Q 139.7 215.7 137.5 212 L 126.5 211 L 112.5 213 L 106 201.5 L 106 182.5 L 110 169.5 L 127.5 151 L 139.5 146 Z " /><path fill="rgb(72,103,167)" stroke="rgb(72,103,167)" stroke-width="0.6" opacity="1" d="M 127.5 221 Q 147.4 222.6 157 234.5 L 168 254.5 L 162.5 257 L 147 271.5 L 139 285.5 L 136 303.5 L 137 305.5 L 131.5 309 L 121.5 310 L 105.5 305 L 92 293.5 Q 84 283.5 84 265.5 L 87 250.5 Q 91.8 237.8 101.5 230 L 116.5 222 L 127.5 221 Z " /><path fill="rgb(72,103,167)" stroke="rgb(72,103,167)" stroke-width="0.6" opacity="1" d="M 181.5 260 L 194.5 260 Q 207 262.5 214 270.5 L 226 292.5 L 227 309.5 Q 226 320.5 221 327.5 L 208.5 341 L 193.5 347 L 179.5 347 L 164.5 341 L 153 330.5 L 146 312.5 L 146 295.5 Q 149.9 277.4 162.5 268 L 175.5 261 L 181.5 260 Z " /><path fill="rgb(72,103,167)" stroke="rgb(72,103,167)" stroke-width="0.6" opacity="1" d="M 223.5 339 L 235.5 348 L 251.5 355 L 267.5 356 Q 287.5 352.5 298.5 340 L 300 341.5 L 300 359.5 Q 295.4 374.4 284.5 383 L 267.5 390 L 254.5 390 L 252 387.5 L 252 380.5 L 247 367.5 L 232.5 349 L 221 342.5 L 223.5 339 Z " /><path fill="rgb(19,19,19)" stroke="rgb(19,19,19)" stroke-width="0.6" opacity="1" d="M 409.5 106 L 414.5 112 L 409.5 106 Z " /><path fill="rgb(37,37,37)" stroke="rgb(37,37,37)" stroke-width="0.6" opacity="1" d="M 210.5 38 L 223.5 52 L 210.5 38 Z " /><path fill="rgb(37,37,37)" stroke="rgb(37,37,37)" stroke-width="0.6" opacity="1" d="M 174.5 69 L 179.5 75 L 174.5 69 Z " /><path fill="rgb(37,37,37)" stroke="rgb(37,37,37)" stroke-width="0.6" opacity="1" d="M 411.5 124 L 400.5 136 L 411.5 124 Z " /><path fill="rgb(110,73,127)" stroke="rgb(110,73,127)" stroke-width="0.6" opacity="1" d="M 403.5 118 L 403 119.5 L 393.5 130 L 402 120.5 L 403.5 118 Z " /><path fill="rgb(110,73,127)" stroke="rgb(110,73,127)" stroke-width="0.6" opacity="1" d="M 299.5 132 L 293.5 139 L 299.5 132 Z " /><path fill="rgb(215,215,215)" stroke="rgb(215,215,215)" stroke-width="0.6" opacity="1" d="M 210.5 37 L 223.5 51 L 210.5 37 Z " /><path fill="rgb(215,215,215)" stroke="rgb(215,215,215)" stroke-width="0.6" opacity="1" d="M 411.5 125 L 401.5 136 L 411.5 125 Z " /></svg>