<svg width="1254" height="1254" preserveAspectRatio="xMidYMid meet" viewBox="0 0 512 512" version="1.1" xmlns="http://www.w3.org/2000/svg" ><path fill="rgb(255,255,255)" stroke="rgb(255,255,255)" stroke-width="0" opacity="1" d="M 0 0 L 512 0 L 512 512 L 0 512 L 0 0 Z M 216 40 Q 199 44 191 55 L 182 49 L 167 45 Q 143 43 131 53 Q 125 56 125 64 Q 116 66 110 72 L 104 79 L 89 85 L 79 96 L 76 105 L 76 116 Q 64 126 56 141 L 51 153 L 49 162 Q 48 169 51 173 L 45 192 L 45 213 L 47 222 Q 50 232 57 240 Q 59 256 67 266 Q 72 274 81 277 L 89 291 Q 96 300 109 303 L 108 307 L 109 319 L 113 331 L 122 342 L 122 354 L 123 355 L 122 391 L 121 392 L 121 399 L 119 409 L 116 417 L 115 418 L 103 419 L 95 423 Q 88 427 86 437 Q 84 447 88 452 L 94 457 L 103 460 L 108 461 L 123 461 L 124 462 L 143 461 L 155 457 Q 161 453 164 445 L 174 399 L 182 375 L 198 378 L 213 378 L 213 385 L 214 386 L 214 411 L 211 425 L 210 426 Q 201 426 196 430 Q 188 435 185 445 Q 183 458 188 464 L 196 469 L 214 473 L 218 472 L 227 472 L 228 473 Q 247 474 258 466 Q 266 460 268 448 L 274 450 L 288 450 L 289 451 Q 304 452 313 445 Q 319 439 322 431 L 333 395 L 333 389 L 325 370 Q 324 358 330 353 L 336 364 Q 347 378 365 386 L 372 395 L 375 405 Q 376 414 374 419 L 370 419 L 364 422 Q 356 427 354 437 Q 352 446 356 451 L 365 457 L 371 457 L 379 460 L 388 460 L 389 459 L 394 460 L 406 459 L 418 453 L 422 448 L 425 437 L 425 413 L 424 412 L 424 401 L 423 400 L 422 388 L 418 374 L 407 362 L 404 356 L 401 340 L 400 322 L 399 319 L 405 320 Q 420 321 428 314 L 435 307 L 439 299 L 441 290 L 440 278 L 435 265 Q 426 250 414 239 L 408 225 Q 407 221 410 220 L 420 224 L 434 224 Q 443 222 449 217 L 455 209 L 454 207 L 457 205 Q 466 200 467 187 L 459 185 L 439 169 Q 433 166 424 167 L 425 163 Q 413 161 407 167 Q 395 175 391 190 L 391 204 L 394 210 L 392 214 L 392 231 L 394 237 L 399 247 L 416 270 L 420 281 Q 421 287 418 291 L 412 295 Q 398 295 392 287 L 383 274 Q 367 250 330 249 L 340 229 L 341 224 L 341 206 L 344 202 L 347 192 L 347 169 L 343 154 L 339 147 L 340 144 L 340 131 L 337 121 Q 332 107 323 97 Q 310 80 289 72 L 285 66 Q 279 58 270 54 L 251 49 L 244 49 L 243 47 Q 239 42 233 40 L 216 40 Z " /><path fill="rgb(255,255,255)" stroke="rgb(255,255,255)" stroke-width="0" opacity="1" d="M 217.5 44 Q 231.6 41.9 238 47.5 Q 230.2 49.7 226 55.5 Q 225.3 57.8 227.5 57 L 234.5 54 L 254.5 54 Q 272.4 57.1 282 68.5 L 281.5 70 L 271.5 70 L 265 73.5 L 281.5 74 L 293.5 78 Q 309.4 86.1 320 99.5 L 333 121.5 L 336 132.5 L 336 139.5 L 334 138.5 L 328.5 132 L 319.5 127 L 330 138.5 L 341 160.5 L 343 170.5 L 343 189.5 L 339.5 200 Q 335.5 187 325.5 180 L 324 180.5 Q 331.3 187.7 335 198.5 L 337 207.5 L 337 221.5 L 335 230.5 L 331 239.5 L 321.5 250 L 318 251 L 320 241.5 L 320 231.5 L 318 223.5 L 315.5 220 L 315 223.5 L 316 224.5 L 316 241.5 Q 311 263.5 295.5 275 Q 287.5 282.5 275.5 286 L 277 283.5 L 282 271.5 L 283 262 Q 280 260.8 281 264.5 Q 275.6 283.1 261.5 293 Q 248.8 302.3 232.5 308 L 224.5 314 L 225 312.5 L 225 309.5 L 233 294.5 L 234 282.5 L 233 282.5 Q 229.5 301.5 216.5 311 L 186.5 329 L 180 335.5 L 178 341 L 176 340.5 L 176 325.5 L 177 321.5 L 176 321.5 Q 171.5 328 173 340.5 L 174 344 Q 163 340.3 156 331.5 Q 144.6 318.9 143.5 296 L 142 297.5 L 142 308.5 L 145 319.5 L 148 324.5 L 146.5 325 Q 129.6 317.4 118 304.5 L 109 289.5 Q 105.8 282.5 107 272 Q 104 270.8 105 274.5 L 104 275.5 L 104 285.5 L 109 298.5 L 107.5 299 Q 97.4 294.6 91 286.5 Q 84 278.5 81 266.5 L 80 248.5 L 81 244.5 L 79 245.5 Q 75.1 253.1 77 266.5 L 78 269.5 L 76.5 269 L 73 266.5 Q 64.7 257.3 61 243.5 L 60 225.5 L 64 211.5 L 61 213.5 L 58 219.5 L 55.5 230 L 51 220.5 L 49 211.5 L 49 192.5 Q 52.7 170.2 66.5 158 Q 68.8 158.8 68 156.5 L 66.5 157 L 57 163.5 L 54.5 167 Q 51.5 167.9 53 163.5 Q 58.5 136 76.5 121 Q 79.1 120.2 78 123.5 Q 81.6 131.9 88.5 137 L 99 141 L 97 148.5 L 100 146.5 L 106 139.5 L 103 138.5 L 108.5 131 L 113 129 Q 114.3 125.3 108.5 127 L 109 125.5 L 111.5 122 Q 114.8 118.8 122.5 120 L 122 121.5 L 116 135.5 L 111 161.5 L 103.5 171 L 96 177.5 L 92 187 L 78 189 L 78.5 191 L 79.5 190 L 90.5 190 L 90 191.5 L 91 203 L 80.5 206 L 75 209.5 L 77.5 210 L 91.5 205 L 99 219 L 90 225.5 L 90.5 227 L 101.5 220 L 125 238.5 L 128 243.5 Q 127 252.5 130 257.5 Q 133.3 266.3 140.5 271 Q 150.5 279.5 171.5 277 Q 187.7 273.2 196 261.5 L 197.5 259 L 208.5 253 L 236.5 246 L 249.5 238 L 249 239.5 L 246 247.5 Q 247.3 250.3 248.5 248 Q 262.6 245.1 269 234.5 L 275 222.5 L 276 212.5 L 275 210.5 L 277 211.5 L 278.5 214 Q 280.8 214.8 280 212.5 L 281 211.5 L 281 199.5 L 279 192.5 Q 275 182.5 268 175.5 L 264 165.5 L 263 160.5 L 263 142.5 L 261 133.5 L 258 129.5 L 266.5 129 L 273 133.5 L 274 136.5 L 272.5 136 Q 267.1 134.1 268 137.5 L 276 144.5 L 278 151.5 L 276.5 151 L 274 151.5 Q 279.8 155.8 282.5 163 Q 285.1 163.8 284 160.5 L 282 156.5 Q 296.1 153.6 303 143.5 Q 310.3 134.8 310 118.5 Q 307.8 117.3 309 112.5 L 305 103.5 L 296.5 94 L 289.5 90 L 278.5 89 L 277.5 88 L 262.5 91 Q 252.1 95.6 245 103.5 L 242.5 107 Q 233.3 98.2 214.5 99 L 204.5 101 L 198.5 104 L 198 102.5 Q 203.7 87.2 215.5 78 L 221 74.5 L 218.5 74 L 205 84.5 L 191.5 108 L 184 113.5 L 183.5 115 Q 178.8 104.7 181 87.5 L 183 77.5 L 182 77.5 L 178 90.5 L 178 105.5 L 179 107.5 L 177 106.5 L 165.5 93 L 158.5 90 L 160.5 93 L 167 98.5 L 165.5 99 L 164.5 98 L 151.5 98 Q 143.3 99.3 138.5 104 Q 134.8 92.2 125.5 86 Q 118.8 80.7 108 79.5 Q 114.2 71.7 124.5 68 Q 132.4 64.4 145.5 66 L 148.5 67 L 146.5 64 L 141.5 62 L 129 60.5 Q 140 48 164.5 49 L 177.5 52 L 189 58.5 Q 185.3 61.3 186 68.5 L 188 67.5 Q 191.8 56.8 200.5 51 Q 207.4 45.9 217.5 44 Z " /><path fill="rgb(255,255,255)" stroke="rgb(255,255,255)" stroke-width="0" opacity="1" d="M 101.5 84 Q 111.7 82.8 117.5 86 Q 125.9 89.6 131 96.5 L 135 103.5 L 135 107 L 129 111.5 L 125 118 Q 122.3 119.1 123 116.5 Q 120.6 106.4 113.5 101 Q 109 96.5 98.5 98 L 92 103.5 Q 88.2 108.2 90 118.5 Q 92.1 126.4 98.5 130 L 101.5 131 L 98.5 127 Q 96.3 127.8 97 125.5 Q 91.8 121.2 92 111.5 Q 92.9 104.9 97.5 102 L 106.5 101 L 116 108.5 L 119 117 Q 109.8 116.9 106 123.5 L 105 128.5 L 106 129.5 L 102 133.5 L 100.5 138 Q 89.6 134.9 84 126.5 L 80 115.5 L 80 105.5 Q 82.6 93.6 91.5 88 L 101.5 84 Z " /><path fill="rgb(255,255,255)" stroke="rgb(255,255,255)" stroke-width="0" opacity="1" d="M 270.5 93 Q 292.9 90.6 300 103.5 L 305 114.5 L 305 128.5 Q 302 141.5 292.5 148 Q 288 151.5 280.5 152 L 281 150.5 L 279 143 Q 287 141.4 291 134.5 L 294 126.5 L 294 119.5 L 288.5 110 Q 284.3 105.7 274.5 107 Q 266.5 109.5 262 115.5 L 256.5 127 Q 251.5 119.6 242 118 Q 244.9 106.2 254.5 100 Q 260.9 94.9 270.5 93 Z " /><path fill="rgb(255,255,255)" stroke="rgb(255,255,255)" stroke-width="0" opacity="1" d="M 150.5 102 L 164.5 102 Q 171.9 104.1 176 109.5 Q 180 113.8 180 121 L 189.5 113 L 201.5 106 L 212.5 103 L 224.5 103 L 232.5 105 L 241 110.5 L 239 118.5 Q 248.3 121.7 254 128.5 L 259 138.5 L 261 167.5 L 263 173.5 L 274 189.5 Q 278 196.5 278 207.5 L 274 204.5 Q 274.8 202.3 272.5 203 L 269.5 201 L 270 202.5 L 272 207.5 L 272 220.5 Q 268.5 234 258.5 241 L 251.5 245 L 251 242.5 Q 254 239.5 253 232.5 L 251.5 231 L 244.5 238 L 232.5 244 L 209.5 249 L 200 253 L 201 248.5 L 199 249.5 Q 195.1 259.6 187.5 266 Q 177.7 275.2 157.5 274 L 143.5 269 L 136 261.5 L 132 252.5 L 130 232 Q 126.3 230.7 128 236.5 L 127 236.5 L 123.5 232 L 105 218.5 L 112.5 215 L 122 213 Q 123.9 219.9 129.5 224 L 138 228 L 141 242.5 L 148.5 252 L 154.5 255 L 165.5 256 L 177.5 252 L 184 246.5 L 195.5 229 L 205 221.5 L 209.5 213 L 210.5 214 L 222.5 215 L 239.5 222 L 237.5 219 L 227.5 214 L 209 210.5 L 210 207.5 L 208 202.5 L 226.5 201 L 227.5 202 L 236.5 202 L 243 204 Q 244.3 201 240.5 202 L 231.5 199 L 210.5 199 L 192 204 Q 190.9 206.7 193.5 206 L 206 203 L 207 208.5 L 206 211 Q 198.3 210.1 194 212 Q 192.8 215 196.5 214 L 197.5 213 L 205 213 Q 203.4 221 196.5 225 L 184.5 230 L 172.5 230 Q 164.2 228.8 160 223.5 Q 155.8 219.3 157 211 L 165.5 210 Q 175.2 206.7 181 199.5 L 184 193.5 L 184 188.5 L 179.5 182 L 167.5 178 L 151.5 178 L 149.5 179 L 150 177.5 Q 156 170.5 154 155.5 L 147.5 146 L 141.5 144 L 134.5 146 L 129 151.5 L 125 160.5 L 125 170.5 L 128 176.5 L 125 178.5 Q 135.2 178.3 142 181.5 L 137 185.5 Q 134.2 188.2 135 194.5 L 142.5 205 L 154 211.5 Q 152.8 219.2 156 222.5 Q 151.9 227.4 141.5 226 Q 131.6 223.9 127 216.5 L 124 210.5 L 124 205 L 128 204.5 L 124 203 L 125 198 L 128.5 199 L 129 197.5 L 127 194.5 L 131.5 189 L 124.5 194 L 122.5 194 L 114.5 190 L 95 186.5 L 103.5 175 L 110 169.5 L 116 158.5 Q 117.2 140.7 123 127.5 Q 128.6 115.6 138.5 108 L 150.5 102 Z M 143 123 L 134 127 L 129 135 L 132 135 Q 135 130 142 129 Q 146 128 148 130 L 150 129 L 149 125 L 143 123 Z M 215 129 L 213 130 L 210 134 L 212 135 L 220 135 L 232 144 L 230 137 L 221 129 L 215 129 Z M 212 150 L 206 153 Q 199 158 197 168 L 197 179 L 200 185 L 198 186 Q 199 188 201 186 L 218 187 L 224 189 L 226 189 L 223 187 Q 222 184 225 185 L 230 174 L 230 165 L 225 154 L 218 150 L 212 150 Z " /><path fill="rgb(255,255,255)" stroke="rgb(255,255,255)" stroke-width="0" opacity="1" d="M 275.5 110 Q 284.6 109 288 113.5 Q 292.2 117.3 291 126.5 Q 289.1 135.6 282.5 140 L 277.5 142 L 275.5 139 Q 278.5 139.9 277 135.5 L 272.5 129 Q 268.3 125.2 260 125.5 L 266.5 115 L 275.5 110 Z " /><path fill="rgb(255,255,255)" stroke="rgb(255,255,255)" stroke-width="0" opacity="1" d="M 138.5 148 L 143.5 148 L 150 153.5 L 151 157.5 L 147.5 155 L 140.5 154 L 133 160.5 L 131 170.5 L 134 176.5 L 131.5 177 Q 125.9 172.6 128 160.5 Q 129.6 153.6 134.5 150 L 138.5 148 Z " /><path fill="rgb(255,255,255)" stroke="rgb(255,255,255)" stroke-width="0" opacity="1" d="M 210.5 154 Q 221.3 152.2 224 158.5 Q 228.2 163.3 227 173.5 Q 225.8 181.3 220.5 185 L 219 184.5 Q 226.3 180.3 225 167.5 L 220.5 161 L 212.5 160 L 207 163 L 203 170.5 L 203 179.5 L 205 184 Q 201.2 185.5 202 182.5 L 200 179.5 L 199 171.5 L 201 163.5 L 206.5 156 L 210.5 154 Z " /><path fill="rgb(255,255,255)" stroke="rgb(255,255,255)" stroke-width="0" opacity="1" d="M 144.5 158 Q 148.5 157.5 149 160.5 Q 149.8 165.3 146.5 166 Q 142.8 166.8 142 164.5 Q 140.8 158.4 143.5 159 L 144.5 158 Z " /><path fill="rgb(255,255,255)" stroke="rgb(255,255,255)" stroke-width="0" opacity="1" d="M 216.5 164 L 221 165 Q 222.5 170.4 219.5 172 Q 215 173 214 170.5 Q 213 165 216.5 164 Z " /><path fill="rgb(255,255,255)" stroke="rgb(255,255,255)" stroke-width="0" opacity="1" d="M 415.5 167 L 418 167.5 L 414 172.5 L 414 174.5 L 416.5 173 Q 421.9 169.4 432.5 171 L 439.5 174 L 454.5 187 L 463 190.5 Q 461.1 195.1 453.5 194 L 442.5 189 L 434.5 188 L 429 190.5 L 439.5 191 Q 447 195.5 457.5 197 L 459.5 196 L 455.5 201 L 441 206.5 L 442.5 208 L 450 209.5 Q 442.3 221.8 420.5 220 Q 412.3 218.7 407.5 214 L 405 216.5 L 405 228.5 L 411 240.5 L 430 263.5 L 436 277.5 L 437 289.5 L 433 302.5 L 426.5 310 Q 419.1 316.6 404.5 316 L 398 314 Q 397.8 301.9 393 293.5 L 395.5 295 Q 401.1 299.4 411.5 299 Q 418.7 297.2 422 291.5 L 424 285.5 L 424 279.5 Q 422.1 269.9 417 263.5 L 403 245.5 L 398 236.5 Q 394.2 227.8 396 213.5 L 398 208.5 Q 393.4 202.7 395 190.5 Q 398.1 178.6 406.5 172 L 415.5 167 Z " /><path fill="rgb(255,255,255)" stroke="rgb(255,255,255)" stroke-width="0" opacity="1" d="M 151.5 181 Q 172.4 178.1 181 187.5 Q 182.3 192.8 179.5 194 L 174.5 191 L 163.5 188 L 143.5 188 L 139.5 189 L 140 187.5 L 141.5 185 L 151.5 181 Z " /><path fill="rgb(255,255,255)" stroke="rgb(255,255,255)" stroke-width="0" opacity="1" d="M 94 190 Q 111.4 189.7 123 196.5 L 121 202 L 115.5 201 L 101.5 201 L 95 202 Q 92.8 198.3 94 190 Z " /><path fill="rgb(255,255,255)" stroke="rgb(255,255,255)" stroke-width="0" opacity="1" d="M 98.5 204 L 119.5 204 L 121 205.5 Q 123.6 212.8 117.5 211 L 102.5 216 L 96 205.5 L 98.5 204 Z " /><path fill="rgb(255,255,255)" stroke="rgb(255,255,255)" stroke-width="0" opacity="1" d="M 156.5 226 L 158.5 226 L 166.5 232 L 181.5 234 L 188.5 232 L 188 233.5 L 184.5 239 Q 180.8 233.2 169.5 235 L 165.5 236 Q 162.3 232.2 153.5 234 Q 147 235.5 144.5 241 L 142 229 Q 152.2 230.9 156.5 226 Z " /><path fill="rgb(255,255,255)" stroke="rgb(255,255,255)" stroke-width="0" opacity="1" d="M 155.5 236 L 163 237 L 161 242.5 L 164.5 240 L 174.5 237 L 183 240 L 183 242.5 L 177.5 248 Q 170.8 253.8 156.5 252 L 147 246.5 L 146 244.5 L 150.5 238 L 155.5 236 Z " /><path fill="rgb(255,255,255)" stroke="rgb(255,255,255)" stroke-width="0" opacity="1" d="M 325.5 252 L 342.5 254 L 354.5 257 Q 366.7 261.8 375 270.5 Q 383.7 279.8 389 292.5 L 395 315.5 L 396 332.5 L 397 333.5 L 397 341.5 L 398 342.5 L 399 353.5 Q 401.6 362.4 407.5 368 L 412 371.5 L 416 379.5 L 420 400.5 L 421 436.5 L 418 446.5 L 412.5 452 Q 405.8 455.8 395.5 456 L 390 453.5 L 389 451.5 L 389 440.5 L 393 432.5 L 391.5 432 Q 383.8 436.8 386 451.5 L 387 454.5 Q 385.5 457.5 379.5 456 L 374.5 455 L 370 451.5 Q 367.3 447.7 369 439.5 L 373 430.5 L 368 434.5 Q 364.4 439.9 366 450.5 L 367 453 L 360 449.5 Q 356.5 445.5 358 436.5 L 364.5 426 Q 372.2 419.7 388.5 422 L 395.5 424 L 394.5 422 L 385.5 419 L 378 419 Q 380.1 414.1 379 404.5 L 375 391.5 L 367.5 383 Q 352.5 375.9 342 364.5 L 329 344.5 L 323.5 324 Q 321 325 322 329.5 L 327 349 L 314.5 352 L 293.5 363 L 280 367 L 282 355.5 L 283 337.5 L 280 322 Q 277 320.8 278 324.5 L 279 325.5 L 279 351.5 L 268 402.5 L 264 446.5 L 260 457.5 L 253.5 464 L 243.5 468 L 228.5 469 L 223 466.5 Q 219.2 461.8 221 451.5 L 225 442 L 222 443.5 Q 216 449.5 218 463.5 L 220 468 L 213.5 469 L 203.5 467 L 200 463.5 L 198 453.5 Q 200.3 452.2 199 447.5 L 203 440.5 L 201.5 440 Q 194.7 445.2 195 457.5 L 197 464.5 L 195.5 464 L 190 459.5 L 188 450.5 L 192 438.5 L 196.5 434 Q 203.6 428.1 217.5 429 L 225.5 431 L 224.5 429 Q 221.6 426.4 215.5 427 L 214 425.5 L 217 417.5 L 217 409.5 L 218 408.5 L 218 386.5 L 217 385.5 L 216 372.5 L 210 350.5 L 210 331 Q 206.7 329.7 208 334.5 L 206 343.5 L 207 344.5 L 208 358.5 L 212 374 Q 169.4 374.3 150 350.5 L 148 346 Q 145 344.8 146 348.5 L 148 356 Q 139.4 352.8 134 345.5 L 127 332.5 L 126 325 L 124 325.5 L 124 337.5 L 121 335.5 Q 111.9 324.6 112 304.5 L 124.5 316 Q 135.8 325.7 151.5 331 L 165.5 344 L 179 349 Q 179.7 338 187.5 333 L 212.5 319 L 220.5 312 L 221 318.5 L 222.5 320 L 231.5 313 L 258.5 300 L 271.5 289 Q 272.8 291.3 277.5 290 Q 295.6 283.1 307 269.5 L 315 256 L 318.5 256 L 325.5 252 Z " /><path fill="rgb(255,255,255)" stroke="rgb(255,255,255)" stroke-width="0" opacity="1" d="M 127.5 341 L 135.5 352 Q 142 358.8 152 361 L 152.5 357 Q 161.9 368.4 178 372 L 168 404.5 L 162 437.5 L 157 449.5 L 154.5 452 L 141.5 457 L 124.5 458 L 117 456 L 115 447.5 L 117 439.5 L 121 433 L 116 436.5 Q 112 441.5 112 450.5 L 114 457 L 102.5 456 L 98 452.5 L 97 441.5 Q 98.3 434.3 103 430.5 L 101.5 430 Q 92.8 435.3 94 450.5 L 95 452.5 L 91 449.5 Q 88.8 444.8 90 436.5 L 95 427 L 105.5 422 L 120.5 422 L 126.5 425 L 127 423.5 Q 124.3 419.4 119 420 L 123 408.5 L 126 391.5 L 127 354.5 L 126 353.5 L 126 343.5 L 127.5 341 Z " /><path fill="rgb(255,255,255)" stroke="rgb(255,255,255)" stroke-width="0" opacity="1" d="M 323.5 353 L 324 354.5 L 321 362.5 L 321 369.5 Q 322.9 381.1 329 388.5 L 329 394.5 L 321 422.5 L 312 441 L 301.5 446 L 288.5 447 L 285 444.5 Q 283.3 433.3 288 428.5 L 286.5 428 Q 280.3 432.3 282 444.5 L 282.5 446 L 273.5 446 L 271 443.5 L 270 434.5 L 275 424.5 L 269 428.5 L 270 427.5 L 270 420 L 272.5 419 L 284.5 419 L 290.5 421 L 289.5 419 L 282 415.5 Q 288.9 407.4 289 392.5 L 279 374.5 L 279 371 L 290.5 368 L 314.5 356 L 323.5 353 Z " /><path fill="rgb(255,255,255)" stroke="rgb(255,255,255)" stroke-width="0" opacity="1" d="M 277.5 380 L 284 389.5 L 285 397.5 L 282 408.5 L 277.5 415 Q 272.8 413.8 271.5 416 L 271 410.5 L 272 409.5 L 272 402.5 L 275 386.5 L 277.5 380 Z " /><path fill="rgb(0,0,0)" stroke="rgb(0,0,0)" stroke-width="0" opacity="1" d="M 215.5 40 L 232.5 40 Q 239.5 41.6 243 46.5 L 243.5 49 L 250.5 49 L 269.5 54 Q 278.9 58.1 285 65.5 L 288.5 72 Q 310.2 79.8 323 96.5 Q 331.8 106.7 337 120.5 L 340 130.5 L 340 143.5 L 339 146.5 L 343 153.5 L 347 168.5 L 347 191.5 L 344 201.5 L 341 205.5 L 341 223.5 L 340 228.5 L 330 249 Q 367.2 250 383 273.5 L 391.5 287 Q 397.5 295 411.5 295 L 418 290.5 Q 420.7 287.2 420 280.5 L 416 269.5 L 399 246.5 L 394 236.5 L 392 230.5 L 392 213.5 L 394 209.5 L 391 203.5 L 391 189.5 Q 395.3 174.8 406.5 167 Q 412.8 161.5 425 163 L 424 166.5 Q 432.9 166.1 438.5 169 L 458.5 185 L 467 187 Q 465.9 199.6 456.5 205 L 454 206.5 L 455 208.5 L 448.5 217 Q 442.7 222.2 433.5 224 L 419.5 224 L 409.5 220 Q 407.3 220.8 408 224.5 L 414 238.5 Q 426.2 249.8 435 264.5 L 440 277.5 L 441 289.5 L 439 298.5 L 435 306.5 L 427.5 314 Q 419.8 320.8 404.5 320 L 399 319 L 400 321.5 L 401 339.5 L 404 355.5 L 407 361.5 L 418 373.5 L 422 387.5 L 423 399.5 L 424 400.5 L 424 411.5 L 425 412.5 L 425 436.5 L 422 447.5 L 417.5 453 L 405.5 459 L 393.5 460 L 388.5 459 L 387.5 460 L 378.5 460 L 370.5 457 L 364.5 457 L 356 450.5 Q 352.3 446.2 354 436.5 Q 356.1 426.6 363.5 422 L 369.5 419 L 374 419 Q 376.1 414.1 375 404.5 L 372 394.5 L 364.5 386 Q 347.3 377.7 336 363.5 L 329.5 353 Q 324 358 325 369.5 L 333 388.5 L 333 394.5 L 322 430.5 Q 318.8 439.3 312.5 445 Q 304.1 451.6 288.5 451 L 287.5 450 L 273.5 450 L 267.5 448 Q 265.5 460 257.5 466 Q 247.3 474.3 227.5 473 L 226.5 472 L 217.5 472 L 213.5 473 L 195.5 469 L 188 463.5 Q 182.8 457.7 185 444.5 Q 187.8 434.8 195.5 430 Q 200.5 426 209.5 426 L 211 424.5 L 214 410.5 L 214 385.5 L 213 384.5 L 213 378 L 197.5 378 L 182 375 L 174 398.5 L 164 444.5 Q 161.1 452.6 154.5 457 L 142.5 461 L 123.5 462 L 122.5 461 L 107.5 461 L 102.5 460 L 93.5 457 L 88 451.5 Q 84.2 446.8 86 436.5 Q 87.9 427.4 94.5 423 L 102.5 419 L 114.5 418 L 116 416.5 L 119 408.5 L 121 398.5 L 121 391.5 L 122 390.5 L 123 354.5 L 122 353.5 L 122 341.5 L 113 330.5 L 109 318.5 L 108 306.5 L 109 303 Q 96.3 300.1 89 290.5 L 81 277 Q 72.1 274 67 265.5 Q 58.5 256 57 239.5 Q 50.2 232.3 47 221.5 L 45 212.5 L 45 191.5 L 51 172.5 Q 48.1 168.9 49 161.5 L 51 152.5 L 56 140.5 Q 63.8 125.8 76 115.5 L 76 104.5 L 79 95.5 L 88.5 85 L 104 78.5 L 109.5 72 Q 115.8 65.9 125 64 Q 124.6 55.8 130.5 53 Q 142.9 43.4 166.5 45 L 181.5 49 L 190.5 55 Q 199.2 43.7 215.5 40 Z M 218 44 Q 207 46 201 51 Q 192 57 188 68 L 186 69 Q 185 61 189 59 L 178 52 L 165 49 Q 140 48 129 61 L 142 62 L 147 64 L 149 67 L 146 66 Q 132 64 125 68 Q 114 72 108 80 Q 119 81 126 86 Q 135 92 139 104 Q 143 99 152 98 L 165 98 L 166 99 L 167 99 L 161 93 L 159 90 L 166 93 L 177 107 L 179 108 L 178 106 L 178 91 L 182 78 L 183 78 L 181 88 Q 179 105 184 115 L 184 114 L 192 108 L 205 85 L 219 74 L 221 75 L 216 78 Q 204 87 198 103 L 199 104 L 205 101 L 215 99 Q 233 98 243 107 L 245 104 Q 252 96 263 91 L 278 88 L 279 89 L 290 90 L 297 94 L 305 104 L 309 113 Q 308 117 310 119 Q 310 135 303 144 Q 296 154 282 157 L 284 161 Q 285 164 283 163 Q 280 156 274 152 L 277 151 L 278 152 L 276 145 L 268 138 Q 267 134 273 136 L 274 137 L 273 134 L 267 129 L 258 130 L 261 134 L 263 143 L 263 161 L 264 166 L 268 176 Q 275 183 279 193 L 281 200 L 281 212 L 280 213 Q 281 215 279 214 L 277 212 L 275 211 L 276 213 L 275 223 L 269 235 Q 263 245 249 248 Q 247 250 246 248 L 249 240 L 250 238 L 237 246 L 209 253 L 198 259 L 196 262 Q 188 273 172 277 Q 150 280 141 271 Q 133 266 130 258 Q 127 253 128 244 L 125 239 L 102 220 L 91 227 L 90 226 L 99 219 L 92 205 L 78 210 L 75 210 L 81 206 L 91 203 L 90 192 L 91 190 L 80 190 L 79 191 L 78 189 L 92 187 L 96 178 L 104 171 L 111 162 L 116 136 L 122 122 L 123 120 Q 115 119 112 122 L 109 126 L 109 127 Q 114 125 113 129 L 109 131 L 103 139 L 106 140 L 100 147 L 97 149 L 99 141 L 89 137 Q 82 132 78 124 Q 79 120 77 121 Q 59 136 53 164 Q 51 168 55 167 L 57 164 L 67 157 L 68 157 Q 69 159 67 158 Q 53 170 49 193 L 49 212 L 51 221 L 56 230 L 58 220 L 61 214 L 64 212 L 60 226 L 61 244 Q 65 257 73 267 L 77 269 L 78 270 L 77 267 Q 75 253 79 246 L 81 245 L 80 249 L 81 267 Q 84 279 91 287 Q 97 295 108 299 L 109 299 L 104 286 L 104 276 L 105 275 Q 104 271 107 272 Q 106 283 109 290 L 118 305 Q 130 317 147 325 L 148 325 L 145 320 L 142 309 L 142 298 L 144 296 Q 145 319 156 332 Q 163 340 174 344 L 173 341 Q 172 328 176 322 L 177 322 L 176 326 L 176 341 L 178 341 L 180 336 L 187 329 L 217 311 Q 230 302 233 283 L 234 283 L 233 295 L 225 310 L 226 313 L 233 308 Q 249 302 262 293 Q 276 283 281 265 Q 280 261 283 262 L 282 272 L 277 284 L 276 286 Q 287 282 296 275 Q 311 264 316 242 L 316 225 L 315 224 L 316 220 L 318 224 L 320 232 L 320 242 L 318 251 L 322 250 L 331 240 L 335 231 L 337 222 L 337 208 L 335 199 Q 331 188 324 181 L 326 180 Q 336 187 340 200 L 343 190 L 343 171 L 341 161 L 330 139 L 320 127 L 329 132 L 334 139 L 336 140 L 336 133 L 333 122 L 320 100 Q 309 86 294 78 L 282 74 L 265 74 L 272 70 L 282 70 L 282 69 Q 272 57 255 54 L 235 54 L 228 57 Q 225 58 226 56 Q 230 50 238 48 Q 232 42 218 44 Z M 102 84 L 92 88 Q 83 94 80 106 L 80 116 L 84 127 Q 90 135 101 138 L 102 134 L 106 130 L 105 129 L 106 124 Q 110 117 119 117 L 116 109 L 107 101 L 98 102 Q 93 105 92 112 Q 92 121 97 126 Q 96 128 99 127 L 102 131 L 99 130 Q 92 126 90 119 Q 88 108 92 104 L 99 98 Q 109 97 114 101 Q 121 106 123 117 Q 122 119 125 118 L 129 112 L 135 107 L 135 104 L 131 97 Q 126 90 118 86 Q 112 83 102 84 Z M 271 93 Q 261 95 255 100 Q 245 106 242 118 Q 252 120 257 127 L 262 116 Q 267 110 275 107 Q 284 106 289 110 L 294 120 L 294 127 L 291 135 Q 287 141 279 143 L 281 151 L 281 152 Q 288 152 293 148 Q 302 142 305 129 L 305 115 L 300 104 Q 293 91 271 93 Z M 151 102 L 139 108 Q 129 116 123 128 Q 117 141 116 159 L 110 170 L 104 175 L 95 187 L 115 190 L 123 194 L 125 194 L 132 189 L 127 195 L 129 198 L 129 199 L 125 198 L 124 203 L 128 205 L 124 205 L 124 211 L 127 217 Q 132 224 142 226 Q 152 227 156 223 Q 153 219 154 212 L 143 205 L 135 195 Q 134 188 137 186 L 142 182 Q 135 178 125 179 L 128 177 L 125 171 L 125 161 L 129 152 L 135 146 L 142 144 L 148 146 L 154 156 Q 156 171 150 178 L 150 179 L 152 178 L 168 178 L 180 182 L 184 189 L 184 194 L 181 200 Q 175 207 166 210 L 157 211 Q 156 219 160 224 Q 164 229 173 230 L 185 230 L 197 225 Q 203 221 205 213 L 198 213 L 197 214 Q 193 215 194 212 Q 198 210 206 211 L 207 209 L 206 203 L 194 206 Q 191 207 192 204 L 211 199 L 232 199 L 241 202 Q 244 201 243 204 L 237 202 L 228 202 L 227 201 L 208 203 L 210 208 L 209 211 L 228 214 L 238 219 L 240 222 L 223 215 L 211 214 L 210 213 L 205 222 L 196 229 L 184 247 L 178 252 L 166 256 L 155 255 L 149 252 L 141 243 L 138 228 L 130 224 Q 124 220 122 213 L 113 215 L 105 219 L 124 232 L 127 237 L 128 237 Q 126 231 130 232 L 132 253 L 136 262 L 144 269 L 158 274 Q 178 275 188 266 Q 195 260 199 250 L 201 249 L 200 253 L 210 249 L 233 244 L 245 238 L 252 231 L 253 233 Q 254 240 251 243 L 252 245 L 259 241 Q 268 234 272 221 L 272 208 L 270 203 L 270 201 L 273 203 Q 275 202 274 205 L 278 208 Q 278 197 274 190 L 263 174 L 261 168 L 259 139 L 254 129 Q 248 122 239 119 L 241 111 L 233 105 L 225 103 L 213 103 L 202 106 L 190 113 L 180 121 Q 180 114 176 110 Q 172 104 165 102 L 151 102 Z M 276 110 L 267 115 L 260 126 Q 268 125 273 129 L 277 136 Q 278 140 276 139 L 278 142 L 283 140 Q 289 136 291 127 Q 292 117 288 114 Q 285 109 276 110 Z M 139 148 L 135 150 Q 130 154 128 161 Q 126 173 132 177 L 134 177 L 131 171 L 133 161 L 141 154 L 148 155 L 151 158 L 150 154 L 144 148 L 139 148 Z M 145 158 L 144 159 Q 141 158 142 165 Q 143 167 147 166 Q 150 165 149 161 Q 149 157 145 158 Z M 416 167 L 407 172 Q 398 179 395 191 Q 393 203 398 209 L 396 214 Q 394 228 398 237 L 403 246 L 417 264 Q 422 270 424 280 L 424 286 L 422 292 Q 419 297 412 299 Q 401 299 396 295 L 394 295 L 398 309 L 398 314 L 405 316 Q 419 317 427 310 L 433 303 L 437 290 L 436 278 L 430 264 L 411 241 L 405 229 L 405 217 L 408 214 Q 412 219 421 220 Q 442 222 450 210 L 443 208 L 441 207 L 456 201 L 460 196 L 458 197 Q 447 196 440 191 L 429 191 L 435 188 L 443 189 L 454 194 Q 461 195 463 191 L 455 187 L 440 174 L 433 171 Q 422 169 417 173 L 414 175 L 414 173 L 418 168 L 416 167 Z M 152 181 L 142 185 L 140 188 L 140 189 L 144 188 L 164 188 L 175 191 L 180 194 Q 182 193 181 188 Q 172 178 152 181 Z M 94 190 Q 93 198 95 202 L 102 201 L 116 201 L 121 202 L 123 197 Q 111 190 94 190 Z M 99 204 L 96 206 L 103 216 L 118 211 Q 124 213 121 206 L 120 204 L 99 204 Z M 157 226 Q 152 231 142 229 L 145 241 Q 147 236 154 234 Q 162 232 166 236 L 170 235 Q 181 233 185 239 L 188 233 L 182 234 L 167 232 L 159 226 L 157 226 Z M 156 236 L 151 238 L 146 245 L 147 247 L 157 252 Q 171 254 178 248 L 183 243 L 183 240 L 175 237 L 165 240 L 161 243 L 163 237 L 156 236 Z M 326 252 L 319 256 L 315 256 L 307 270 Q 296 283 278 290 Q 273 291 272 289 L 259 300 L 232 313 L 223 320 L 221 319 L 221 312 L 213 319 L 188 333 Q 180 338 179 349 L 166 344 L 152 331 Q 136 326 125 316 L 112 305 Q 112 325 121 336 L 124 338 L 124 326 L 126 325 L 127 333 L 134 346 Q 139 353 148 356 L 146 349 Q 145 345 148 346 L 150 351 Q 169 374 212 374 L 208 359 L 207 345 L 206 344 L 208 335 Q 207 330 210 331 L 210 351 L 216 373 L 217 386 L 218 387 L 218 409 L 217 410 L 217 418 L 214 426 L 216 427 Q 222 426 225 429 L 226 431 L 218 429 Q 204 428 197 434 L 192 439 L 188 451 L 190 460 L 196 464 L 197 465 L 195 458 Q 195 445 202 440 L 203 441 L 199 448 Q 200 452 198 454 L 200 464 L 204 467 L 214 469 L 220 468 L 218 464 Q 216 450 222 444 L 225 442 L 221 452 Q 219 462 223 467 L 229 469 L 244 468 L 254 464 L 260 458 L 264 447 L 268 403 L 279 352 L 279 326 L 278 325 Q 277 321 280 322 L 283 338 L 282 356 L 280 367 L 294 363 L 315 352 L 327 349 L 322 330 Q 321 325 324 324 L 329 345 L 342 365 Q 353 376 368 383 L 375 392 L 379 405 Q 380 414 378 419 L 386 419 L 395 422 L 396 424 L 389 422 Q 372 420 365 426 L 358 437 Q 357 445 360 450 L 367 453 L 366 451 Q 364 440 368 435 L 373 431 L 369 440 Q 367 448 370 452 L 375 455 L 380 456 Q 385 457 387 455 L 386 452 Q 384 437 392 432 L 393 433 L 389 441 L 389 452 L 390 454 L 396 456 Q 406 456 413 452 L 418 447 L 421 437 L 420 401 L 416 380 L 412 372 L 408 368 Q 402 362 399 354 L 398 343 L 397 342 L 397 334 L 396 333 L 395 316 L 389 293 Q 384 280 375 271 Q 367 262 355 257 L 343 254 L 326 252 Z M 128 341 L 126 344 L 126 354 L 127 355 L 126 392 L 123 409 L 119 420 Q 124 419 127 424 L 127 425 L 121 422 L 106 422 L 95 427 L 90 437 Q 89 445 91 450 L 95 453 L 94 451 Q 93 435 102 430 L 103 431 Q 98 434 97 442 L 98 453 L 103 456 L 114 457 L 112 451 Q 112 442 116 437 L 121 433 L 117 440 L 115 448 L 117 456 L 125 458 L 142 457 L 155 452 L 157 450 L 162 438 L 168 405 L 178 372 Q 162 368 153 357 L 152 361 Q 142 359 136 352 L 128 341 Z M 324 353 L 315 356 L 291 368 L 279 371 L 279 375 L 289 393 Q 289 407 282 416 L 290 419 L 291 421 L 285 419 L 273 419 L 272 420 L 270 421 L 270 428 L 275 425 L 270 435 L 271 444 L 274 446 L 283 446 L 282 445 Q 280 432 287 428 L 288 429 Q 283 433 285 445 L 289 447 L 302 446 L 312 441 L 321 423 L 329 395 L 329 389 Q 323 381 321 370 L 321 363 L 324 355 L 324 353 Z M 278 380 L 275 387 L 272 403 L 272 410 L 271 411 L 272 416 Q 273 414 278 415 L 282 409 L 285 398 L 284 390 L 278 380 Z " /><path fill="rgb(0,0,0)" stroke="rgb(0,0,0)" stroke-width="0" opacity="1" d="M 142.5 123 L 149 125 L 150 128.5 L 147.5 130 Q 146.3 127.8 141.5 129 Q 134.9 130.4 131.5 135 L 129 135 L 133.5 127 L 142.5 123 Z " /><path fill="rgb(0,0,0)" stroke="rgb(0,0,0)" stroke-width="0" opacity="1" d="M 214.5 129 L 220.5 129 L 230 136.5 L 232 144 L 219.5 135 L 211.5 135 L 210 133.5 L 212.5 130 L 214.5 129 Z " /><path fill="rgb(0,0,0)" stroke="rgb(0,0,0)" stroke-width="0" opacity="1" d="M 211.5 150 L 217.5 150 L 225 154 L 230 164.5 L 230 173.5 L 225 185 Q 222 184 223 187 L 226 188.5 L 223.5 189 L 217.5 187 L 200.5 186 Q 199.3 188.3 198 185.5 L 200 185 L 197 178.5 L 197 167.5 Q 199.1 158.1 205.5 153 L 211.5 150 Z M 211 154 L 207 156 L 201 164 L 199 172 L 200 180 L 202 183 Q 201 186 205 184 L 203 180 L 203 171 L 207 163 L 213 160 L 221 161 L 225 168 Q 226 180 219 185 L 221 185 Q 226 181 227 174 Q 228 163 224 159 Q 221 152 211 154 Z M 217 164 Q 213 165 214 171 Q 215 173 220 172 Q 222 170 221 165 L 217 164 Z " /></svg>