<svg width="1254" height="1254" preserveAspectRatio="xMidYMid meet" viewBox="0 0 512 512" version="1.1" xmlns="http://www.w3.org/2000/svg" ><path fill="rgb(255,255,255)" stroke="rgb(255,255,255)" stroke-width="0" opacity="1" d="M 0 0 L 512 0 L 512 512 L 0 512 L 0 0 Z M 169 13 L 161 16 L 157 21 L 158 30 L 163 34 L 163 41 L 161 52 L 151 58 Q 142 45 125 42 Q 109 41 102 49 L 102 56 L 108 68 L 121 78 L 136 82 L 134 87 L 132 110 Q 130 118 124 123 L 122 130 Q 122 139 126 145 Q 132 152 143 154 L 145 163 Q 148 167 155 169 Q 167 171 173 165 Q 180 159 183 149 L 190 147 L 190 168 L 191 169 L 192 238 L 193 239 L 193 250 L 195 257 L 193 262 L 190 277 L 190 285 L 189 286 L 190 303 L 192 311 L 196 319 L 198 340 L 199 341 L 199 350 L 200 351 L 200 378 L 198 384 L 198 395 L 199 396 L 199 412 L 198 413 L 196 433 L 193 445 L 189 453 L 189 460 Q 183 465 180 475 Q 179 480 181 482 L 185 484 L 194 486 L 200 486 L 211 483 L 215 479 L 215 464 L 219 457 Q 217 450 220 449 L 221 422 L 224 406 L 229 391 L 229 383 L 232 369 L 233 371 Q 232 375 234 377 L 234 394 Q 236 395 235 400 L 239 410 L 240 421 L 241 422 L 241 445 L 237 462 L 237 470 L 238 471 Q 232 478 230 489 L 231 494 L 236 497 L 244 499 L 259 497 L 267 491 L 267 479 L 266 478 Q 265 469 269 465 L 269 457 L 265 437 L 265 428 L 264 427 L 264 404 L 266 396 Q 268 389 265 388 L 265 371 L 268 354 L 278 355 L 289 374 L 294 387 L 294 409 L 293 410 L 292 422 L 285 447 L 285 454 Q 277 459 277 473 L 283 477 L 292 479 L 303 478 L 308 476 L 311 473 L 312 469 L 311 464 L 311 458 L 315 450 L 315 429 Q 317 427 316 423 L 324 393 L 324 382 L 320 369 L 321 365 Q 332 377 338 395 L 342 411 L 343 428 L 344 429 L 343 446 L 341 453 L 341 464 L 335 476 L 335 484 Q 338 488 344 489 Q 363 492 369 482 Q 371 471 367 466 L 370 460 L 370 444 L 367 429 L 367 383 L 359 367 Q 361 361 358 360 L 362 331 L 363 330 L 363 320 L 364 319 L 363 317 L 364 315 L 372 339 L 376 345 L 375 349 L 375 362 L 381 373 L 395 379 L 405 378 L 410 370 L 404 367 L 402 364 L 400 353 L 397 348 Q 393 342 385 341 L 382 337 L 377 314 L 371 300 Q 366 289 356 283 L 351 275 Q 343 264 330 258 L 316 253 L 298 250 L 284 246 Q 270 241 261 232 L 262 227 L 261 217 L 255 210 L 256 208 Q 257 200 254 196 L 249 192 L 251 188 L 251 180 L 245 172 L 247 169 L 247 161 L 241 153 L 244 146 Q 244 136 238 132 L 240 127 Q 241 115 234 112 L 236 109 L 235 98 L 229 91 L 229 89 L 229 87 L 233 88 Q 251 88 260 79 Q 268 72 271 59 Q 272 52 270 50 L 260 46 L 247 46 L 237 49 Q 227 53 221 61 Q 217 56 210 54 L 210 48 L 213 36 L 218 35 L 222 28 L 221 23 L 214 16 Q 206 15 203 17 L 198 23 Q 197 29 200 32 Q 199 41 195 47 L 193 44 L 185 37 L 181 38 Q 177 37 179 41 L 177 41 L 176 39 L 176 32 L 180 26 L 179 19 Q 176 14 169 13 Z " /><path fill="rgb(255,255,255)" stroke="rgb(255,255,255)" stroke-width="0" opacity="1" d="M 165.5 17 Q 173.5 15.5 176 19.5 L 177 24.5 L 173.5 29 L 163.5 30 Q 159 29 160 22.5 L 163.5 18 L 165.5 17 Z " /><path fill="rgb(255,255,255)" stroke="rgb(255,255,255)" stroke-width="0" opacity="1" d="M 205.5 19 Q 214.2 17.8 217 22.5 L 218 29.5 Q 217.3 33.8 211.5 33 Q 208.1 29.3 202 30 L 201 23.5 L 203.5 20 L 205.5 19 Z " /><path fill="rgb(255,255,255)" stroke="rgb(255,255,255)" stroke-width="0" opacity="1" d="M 166 31 L 172 31 L 172 33.5 L 174 41.5 L 167 45.5 L 165.5 49 L 165 45.5 L 166 44.5 L 166 31 Z " /><path fill="rgb(255,255,255)" stroke="rgb(255,255,255)" stroke-width="0" opacity="1" d="M 204.5 32 L 210 34.5 L 207 45.5 L 207 58 L 210.5 57 L 218 63.5 L 215 67.5 L 217.5 68 L 230.5 56 L 237.5 52 L 249.5 49 L 256.5 49 Q 257.8 51.3 262.5 50 L 268 53.5 Q 266 70 255.5 78 L 243.5 84 L 227.5 84 L 222 82 L 223.5 85 L 225 85.5 L 225 97.5 L 222 110.5 L 224 110.5 L 224 119.5 L 225 120.5 Q 224.2 129.1 226 134 Q 220.1 133.1 218 137.5 L 214 143.5 L 213 150.5 L 221.5 161 L 228.5 162 L 230 161.5 L 233 175.5 L 230.5 176 L 227.5 176 L 223 179.5 L 220 185.5 L 220 193.5 L 215 205.5 L 215 210.5 Q 216.3 216.3 220.5 219 L 230.5 224 L 239.5 224 L 245 219.5 L 245.5 218 L 253 228.5 Q 242.6 229.6 238 236.5 Q 235.3 239.8 236 246.5 Q 239.1 250.9 238 259.5 L 242.5 267 L 257.5 276 L 266.5 277 Q 274.4 274.9 278 268.5 Q 282 263.5 280 252.5 L 278 247.5 L 279.5 248 L 292 251 Q 290.1 253.7 291 260.5 Q 295.1 264.9 294 274.5 L 299.5 282 L 309.5 286 L 316.5 286 L 325 280.5 Q 329.2 275.7 328 265.5 L 326 261.5 L 328.5 261 Q 341.7 267.3 350 278.5 L 352 281.5 L 347.5 278 L 338.5 279 L 325 289.5 L 324 298.5 L 328.5 304 Q 338.6 306.9 343.5 315 L 350.5 315 L 355 311.5 Q 357.9 307.9 357 300.5 L 353 285.5 L 354 285.5 L 357 291.5 L 360 303.5 L 360 326.5 L 358.5 330 Q 355.7 324.8 346.5 326 L 340 331.5 Q 337.1 335.1 338 342.5 Q 339.5 349 344.5 352 Q 347.4 354.6 353.5 354 L 355 353.5 L 356 367.5 L 363 379.5 L 364 384.5 L 364 408.5 Q 361.3 410.2 363 416.5 L 364 417.5 L 364 431.5 L 367 445.5 L 367 457.5 L 364 466 L 361.5 467 L 348.5 467 L 344 463.5 L 345 461.5 Q 342.5 460 344 454.5 L 347 440.5 L 347 424.5 L 342 396.5 L 335 380 Q 340.3 380.6 343 376.5 Q 346.2 373.2 345 365.5 L 334.5 353 L 326.5 352 L 321 356.5 L 319.5 359 Q 312.1 350.9 308 339.5 L 310.5 341 Q 313.7 343.3 320.5 342 L 330 335.5 L 334 324.5 L 333 320.5 L 329.5 316 L 323 310.5 L 319.5 306 L 313.5 305 L 309 307 L 301 320.5 L 301 329.5 Q 302.9 339.6 308 346.5 L 300.5 350 L 290.5 352 L 274.5 352 L 268 351 L 271 334.5 L 271 318 Q 267.5 316.9 269 324.5 L 268 325.5 L 268 333.5 L 262 367.5 L 261 429.5 L 262 430.5 L 262 438.5 L 263 439.5 L 266 462.5 L 262 475 Q 256.5 477.3 245.5 476 L 241 474 L 241 466.5 L 240 465.5 L 244 446.5 L 244 418.5 L 238 397.5 L 238 393.5 L 239.5 394 L 244.5 395 Q 251.7 393.2 255 387.5 L 256 381.5 Q 253.9 372.1 247.5 367 L 241.5 366 L 237 368 L 236.5 370 L 231 348.5 L 225 330.5 L 220.5 322 L 220 325.5 L 226 343.5 L 224.5 344 Q 212.7 337.8 205 327.5 L 198 315.5 L 199.5 316 Q 210.6 317.6 213 310.5 L 214 301.5 L 205 281 L 201.5 279 L 195.5 279 L 193.5 280 L 194 278.5 L 194 273.5 L 197.5 261 L 205.5 267 L 213.5 267 L 224 258.5 Q 228.7 253.7 227 242.5 L 218 231.5 L 215 223.5 L 207.5 216 L 198.5 215 L 195.5 217 L 195 200.5 L 196.5 201 Q 204.5 202 207 197.5 L 210 189.5 L 218 178.5 L 218 172.5 L 205.5 157 L 203.5 156 L 194 156 Q 192.1 153.3 193 146.5 Q 206.1 141.6 214 131.5 Q 218.5 126.6 219 119 Q 216.3 117.9 217 120.5 Q 213.2 130.2 205.5 136 Q 197 142.7 185 145 Q 187.3 141.4 186 132.5 Q 182.6 120.9 173.5 115 L 162.5 110 L 153 108.5 L 156 104.5 L 157 94.5 L 152.5 87 L 146.5 86 L 141 90.5 Q 137.7 95.2 139 104.5 L 142 109.5 L 134.5 113 L 134 111.5 L 136 107.5 L 137 88.5 L 140 77.5 Q 144.4 65.9 153.5 59 L 164 52.5 Q 163 48.8 166 50 L 167 52.5 Q 163.8 54.8 165 61.5 Q 166 65 171.5 64 L 182.5 57 L 187 56 Q 188.3 53 184.5 54 L 171.5 61 L 168 61 Q 166.5 52.9 172.5 51 Q 175.1 51.7 174 49 L 168.5 50 L 169 48.5 L 170.5 46 Q 173.8 43.3 180.5 44 L 184 45 L 182 40 L 189 43.5 L 192 50 Q 195 48.8 194 52.5 L 197 50.5 L 204.5 32 Z M 249 55 L 237 61 L 229 71 L 222 76 L 221 78 L 225 77 L 232 79 L 238 79 L 247 76 L 249 73 L 242 76 L 228 76 L 237 64 L 252 57 L 261 57 L 261 55 L 249 55 Z M 151 71 L 148 72 Q 143 73 144 78 L 151 75 Q 156 77 155 74 Q 155 71 151 71 Z M 198 72 L 196 73 L 194 76 L 202 77 L 208 81 L 207 78 Q 205 72 198 72 Z M 195 87 L 190 89 Q 184 93 183 101 L 183 105 L 186 112 L 190 115 L 201 115 L 207 105 Q 208 97 205 93 Q 202 88 195 87 Z M 229 271 L 223 274 L 216 284 L 216 293 L 223 313 Q 228 317 236 319 Q 245 319 250 315 Q 258 309 260 297 L 257 288 L 247 281 L 243 277 Q 239 270 229 271 Z M 278 280 L 276 281 Q 271 284 270 291 L 271 292 L 271 308 L 274 313 L 283 317 Q 293 319 298 314 Q 303 310 304 303 L 302 296 L 298 292 L 292 285 L 286 280 L 278 280 Z M 255 324 L 242 330 L 236 338 L 236 343 L 243 356 L 249 359 L 255 358 L 259 354 L 264 340 L 263 329 Q 260 325 255 324 Z " /><path fill="rgb(255,255,255)" stroke="rgb(255,255,255)" stroke-width="0" opacity="1" d="M 112.5 46 Q 124 44.5 131.5 47 Q 141.6 51.4 148 59.5 L 142.5 67 L 136 61.5 L 130.5 55 L 121.5 51 L 115.5 51 L 111 52.5 L 122.5 54 Q 129.3 56.3 133 61.5 L 139.5 69 L 141 69.5 L 137 78 Q 117.9 77.2 110 64.5 L 105 54.5 L 105 49 L 112.5 46 Z " /><path fill="rgb(255,255,255)" stroke="rgb(255,255,255)" stroke-width="0" opacity="1" d="M 146.5 89 L 153 90 L 154 93.5 L 152.5 93 L 149.5 92 L 144 96.5 L 143 105.5 L 145 108.5 L 142 106.5 L 141 96.5 L 146.5 89 Z " /><path fill="rgb(255,255,255)" stroke="rgb(255,255,255)" stroke-width="0" opacity="1" d="M 193.5 90 Q 201.4 89.1 203 94.5 Q 205.7 98.3 204 106.5 L 203 106.5 Q 204.5 97.5 199.5 95 Q 191.5 93.5 190 98.5 Q 187.2 101.2 188 107.5 L 191 112.5 L 187 109.5 Q 184.5 106 186 98.5 L 191.5 91 L 193.5 90 Z " /><path fill="rgb(255,255,255)" stroke="rgb(255,255,255)" stroke-width="0" opacity="1" d="M 228.5 95 Q 234.2 97.8 233 107.5 L 230 112.5 L 234 115.5 Q 237 118.5 237 124.5 L 233 131.5 L 240 139.5 L 240 147.5 L 236 152.5 L 242 157.5 Q 244.8 160.2 244 166.5 L 242 171 Q 239 170 240 173 L 246 176.5 Q 249 179.5 248 186.5 L 245 193 L 252 198.5 L 253 206.5 L 251 212 L 258 217.5 L 259 225.5 L 257.5 229 L 247 213.5 L 237 180.5 L 230 142.5 L 228 115.5 L 227 114.5 L 227 100.5 L 228.5 95 Z " /><path fill="rgb(255,255,255)" stroke="rgb(255,255,255)" stroke-width="0" opacity="1" d="M 151.5 96 L 153 100 Q 148.9 101.7 150 97.5 L 151.5 96 Z " /><path fill="rgb(255,255,255)" stroke="rgb(255,255,255)" stroke-width="0" opacity="1" d="M 197 99 Q 201.9 97.4 200 103 Q 195.1 104.6 197 99 Z " /><path fill="rgb(255,255,255)" stroke="rgb(255,255,255)" stroke-width="0" opacity="1" d="M 143.5 112 Q 170.5 109.5 180 124.5 Q 184.2 129.8 184 139.5 Q 179.8 154.3 169.5 163 L 163.5 166 L 155.5 166 L 148 161.5 L 146 155 Q 151.2 152.9 150 157.5 Q 151.9 163.1 160.5 162 L 169 155.5 L 173 144.5 L 177.5 138 L 179 138.5 Q 179.5 134.5 176.5 134 L 173 134.5 Q 176.5 136 174 137.5 L 174 139.5 L 169.5 145 Q 161.9 152.9 145.5 152 Q 133.5 150 128 141.5 Q 124.6 136.4 126 126.5 L 131.5 118 L 143.5 112 Z M 137 120 Q 134 121 135 126 Q 136 129 140 128 Q 142 127 141 122 Q 140 119 137 120 Z M 161 122 Q 156 124 157 130 L 164 129 L 166 125 Q 165 121 161 122 Z " /><path fill="rgb(255,255,255)" stroke="rgb(255,255,255)" stroke-width="0" opacity="1" d="M 137.5 123 Q 140.1 122.2 139 125.5 L 138 125.5 L 137.5 123 Z " /><path fill="rgb(255,255,255)" stroke="rgb(255,255,255)" stroke-width="0" opacity="1" d="M 160 125 L 163 125.5 L 159.5 128 L 160 126.5 L 160 125 Z " /><path fill="rgb(255,255,255)" stroke="rgb(255,255,255)" stroke-width="0" opacity="1" d="M 223.5 136 Q 226.8 134.9 226 137.5 L 230 158.5 Q 229 161 224.5 160 L 217 153.5 L 216 144.5 L 221.5 137 L 223.5 136 Z " /><path fill="rgb(255,255,255)" stroke="rgb(255,255,255)" stroke-width="0" opacity="1" d="M 166.5 150 L 169 150.5 L 164.5 157 L 157.5 160 L 154 159 Q 153.3 155.2 156.5 154 Q 163 153.5 166.5 150 Z " /><path fill="rgb(255,255,255)" stroke="rgb(255,255,255)" stroke-width="0" opacity="1" d="M 194 158 Q 204.7 156 208 162.5 Q 209.5 169 215 171.5 L 216 176.5 Q 214.3 183.3 209 186.5 L 206 194.5 L 201.5 199 L 195 198 L 194 195.5 L 194 158 Z " /><path fill="rgb(255,255,255)" stroke="rgb(255,255,255)" stroke-width="0" opacity="1" d="M 228.5 178 Q 236.3 175.3 234 182.5 L 244 216.5 L 240.5 221 L 231.5 222 L 220 216 L 218 212.5 L 218 204.5 L 222 195.5 L 223 184.5 L 228.5 178 Z " /><path fill="rgb(255,255,255)" stroke="rgb(255,255,255)" stroke-width="0" opacity="1" d="M 199.5 217 Q 209.3 216.7 212 223.5 Q 215.6 234.9 224 241.5 L 225 250.5 Q 222.5 258.5 216.5 263 Q 213.5 266 206.5 265 L 199 259.5 L 196 246.5 L 195 219.5 L 199.5 217 Z " /><path fill="rgb(255,255,255)" stroke="rgb(255,255,255)" stroke-width="0" opacity="1" d="M 249.5 231 L 255.5 231 L 276 246.5 L 278 254.5 L 278 261.5 Q 276.8 269.8 270.5 273 L 263.5 275 L 256.5 273 L 246.5 267 L 241 261.5 L 241 253.5 L 238 243.5 L 239 239.5 L 242.5 235 L 249.5 231 Z " /><path fill="rgb(255,255,255)" stroke="rgb(255,255,255)" stroke-width="0" opacity="1" d="M 295.5 252 L 317.5 257 L 324 260.5 L 326 271.5 L 322 281 Q 318.5 284.2 310.5 284 Q 302.2 282.8 298 277.5 L 293 256.5 L 295.5 252 Z " /><path fill="rgb(255,255,255)" stroke="rgb(255,255,255)" stroke-width="0" opacity="1" d="M 229.5 273 L 236.5 274 L 245.5 283 Q 252.3 285.3 256 290.5 L 257 299.5 Q 254.5 308 248.5 313 Q 244 317.5 233.5 316 Q 227 314.5 224 309.5 L 218 290.5 L 218 285.5 L 223.5 276 L 229.5 273 Z " /><path fill="rgb(255,255,255)" stroke="rgb(255,255,255)" stroke-width="0" opacity="1" d="M 341.5 280 Q 348.8 278.8 350 283.5 L 355 301.5 L 355 305.5 L 351.5 312 L 344.5 313 L 336.5 305 L 327 299.5 L 326 292.5 L 330.5 287 L 341.5 280 Z " /><path fill="rgb(255,255,255)" stroke="rgb(255,255,255)" stroke-width="0" opacity="1" d="M 196.5 281 L 200.5 281 L 205 285.5 Q 205.6 294.9 211 299.5 L 212 306.5 L 207.5 313 L 200.5 314 L 196 311.5 L 193 299.5 L 193 283.5 L 196.5 281 Z " /><path fill="rgb(255,255,255)" stroke="rgb(255,255,255)" stroke-width="0" opacity="1" d="M 279.5 282 Q 289.3 281.7 292 288.5 L 296.5 294 L 300 296.5 L 301 305.5 L 294.5 313 Q 291.2 315.7 284.5 315 Q 277.1 313.9 274 308.5 L 273 305.5 L 273 287.5 L 276.5 283 L 279.5 282 Z " /><path fill="rgb(255,255,255)" stroke="rgb(255,255,255)" stroke-width="0" opacity="1" d="M 360.5 291 L 371 306.5 Q 376.1 318.9 378 334.5 L 382 345 L 378 342.5 L 373 332.5 L 369 318.5 L 363 308.5 L 363 301.5 L 360.5 291 Z " /><path fill="rgb(255,255,255)" stroke="rgb(255,255,255)" stroke-width="0" opacity="1" d="M 314.5 307 Q 319.3 307.3 321 310.5 L 327.5 318 Q 329.8 317.3 329 319.5 Q 332.8 321.2 331 328.5 L 325.5 337 Q 322 341 313.5 340 L 306 334.5 Q 303 329.5 304 320.5 L 312.5 308 L 314.5 307 Z " /><path fill="rgb(255,255,255)" stroke="rgb(255,255,255)" stroke-width="0" opacity="1" d="M 200.5 326 L 211.5 339 L 228 349.5 L 230 361.5 L 226 379.5 L 225 393.5 L 222 400.5 L 218 419.5 L 217 437.5 L 216 438.5 L 216 454.5 L 210.5 465 Q 197.4 467.1 192 461.5 L 192 454.5 L 197 442.5 L 201 422.5 L 202 393.5 Q 199.2 391.8 201 385.5 L 203 378 Q 205.6 380.7 212.5 380 L 220 373.5 L 221 365.5 L 216 354.5 L 212.5 351 L 207.5 350 L 203 352 L 200.5 326 Z " /><path fill="rgb(255,255,255)" stroke="rgb(255,255,255)" stroke-width="0" opacity="1" d="M 251.5 327 Q 258.8 325.8 261 329.5 L 262 337.5 L 258 350.5 L 253.5 356 L 249.5 357 L 245 355 L 239 343.5 L 238 338.5 L 243.5 331 L 251.5 327 Z " /><path fill="rgb(255,255,255)" stroke="rgb(255,255,255)" stroke-width="0" opacity="1" d="M 347.5 328 Q 356.1 326.9 358 332.5 L 358 339.5 L 356 351 L 350.5 352 L 346.5 351 L 342 346.5 L 340 337.5 Q 341.3 331.8 345.5 329 L 347.5 328 Z " /><path fill="rgb(255,255,255)" stroke="rgb(255,255,255)" stroke-width="0" opacity="1" d="M 384 344 Q 392.2 345 396 351.5 L 399 364.5 L 403.5 370 L 405 370.5 L 400.5 371 L 395.5 367 L 395 368.5 L 400.5 374 L 403 374.5 Q 401.5 377.5 395.5 376 Q 388.6 374.4 386 368.5 L 383.5 363 L 383 365.5 L 386 371.5 L 381 367.5 Q 376.8 361.7 378 350.5 L 379 347 Q 382.8 348 384 345.5 L 384 344 Z " /><path fill="rgb(255,255,255)" stroke="rgb(255,255,255)" stroke-width="0" opacity="1" d="M 308.5 350 L 311 351.5 L 317 360.5 L 317 370.5 L 321 383.5 L 321 390.5 L 312 426.5 L 312 447.5 L 306.5 459 Q 294 460.3 288 456 L 288 447.5 L 292 436.5 L 297 411.5 Q 295.6 400.6 298 393.5 L 297 392.5 L 296 380.5 L 282 355 L 292.5 355 L 308.5 350 Z " /><path fill="rgb(255,255,255)" stroke="rgb(255,255,255)" stroke-width="0" opacity="1" d="M 205.5 353 Q 212.5 351.5 214 355.5 L 219 366.5 L 219 370.5 L 213.5 377 L 208.5 378 L 203 374.5 L 204 372.5 L 204 359.5 L 203 355.5 L 205.5 353 Z " /><path fill="rgb(255,255,255)" stroke="rgb(255,255,255)" stroke-width="0" opacity="1" d="M 327.5 354 Q 334.8 352.8 336 357.5 L 342 364.5 L 343 371.5 L 341 376 L 333.5 378 L 321 360.5 L 325.5 355 L 327.5 354 Z " /><path fill="rgb(255,255,255)" stroke="rgb(255,255,255)" stroke-width="0" opacity="1" d="M 242.5 368 Q 248.1 368.5 250 372.5 L 253 379.5 L 253 386.5 Q 250.6 393.6 239.5 392 Q 235.1 384.9 237 371.5 L 242.5 368 Z " /><path fill="rgb(255,255,255)" stroke="rgb(255,255,255)" stroke-width="0" opacity="1" d="M 286.5 457 L 294.5 461 L 308 461 Q 309.3 469.3 307 473 Q 300.3 476.9 286.5 475 L 280 471.5 Q 280.6 461.6 286.5 457 Z " /><path fill="rgb(255,255,255)" stroke="rgb(255,255,255)" stroke-width="0" opacity="1" d="M 190.5 463 L 197.5 467 L 207.5 468 L 212 467 Q 213.2 475.3 211 479 Q 203.9 484 188.5 482 L 183 478.5 Q 183.7 467.7 190.5 463 Z " /><path fill="rgb(255,255,255)" stroke="rgb(255,255,255)" stroke-width="0" opacity="1" d="M 342.5 467 L 351.5 470 L 359.5 470 L 364.5 468 Q 367.4 472.2 366 480.5 Q 359.9 487.9 344.5 486 L 338 482.5 L 338 476.5 L 342.5 467 Z " /><path fill="rgb(255,255,255)" stroke="rgb(255,255,255)" stroke-width="0" opacity="1" d="M 239.5 475 Q 244.6 479.9 255.5 479 L 263 477 Q 264.9 481.2 264 489.5 Q 257.3 497.8 239.5 495 L 234 491.5 L 234 485.5 L 239.5 475 Z " /><path fill="rgb(0,0,0)" stroke="rgb(0,0,0)" stroke-width="0" opacity="1" d="M 168.5 13 Q 176 13.5 179 18.5 L 180 25.5 L 176 31.5 L 176 38.5 L 177 41 L 179 41 Q 177.5 37.2 180.5 38 L 184.5 37 L 193 43.5 L 194.5 47 Q 199 41 200 31.5 Q 196.8 29.2 198 22.5 L 202.5 17 Q 206 14.5 213.5 16 L 221 22.5 L 222 27.5 L 217.5 35 L 213 36 L 210 47.5 L 210 54 Q 216.6 55.7 220.5 61 Q 226.9 53.4 236.5 49 L 246.5 46 L 259.5 46 L 270 50 Q 271.8 52.4 271 58.5 Q 268 71.5 259.5 79 Q 250.5 88 232.5 88 L 228.5 87 L 229 88.5 L 229 90.5 L 235 97.5 L 236 108.5 L 234 111.5 Q 240.7 115.3 240 126.5 L 238 131.5 Q 243.9 135.6 244 145.5 L 241 152.5 L 247 160.5 L 247 168.5 L 245 171.5 L 251 179.5 L 251 187.5 L 249 192 L 254 195.5 Q 257 199.5 256 207.5 L 255 209.5 L 261 216.5 L 262 226.5 L 261 231.5 Q 270.1 240.9 283.5 246 L 297.5 250 L 315.5 253 L 329.5 258 Q 342.5 264 351 274.5 L 356 282.5 Q 365.5 289 371 299.5 L 377 313.5 L 382 336.5 L 384.5 341 Q 392.9 342.1 397 347.5 L 400 352.5 L 402 363.5 L 404 367 L 410 369.5 L 404.5 378 L 394.5 379 L 381 373 L 375 361.5 L 375 348.5 L 376 344.5 L 372 338.5 L 364.5 317 L 363 319.5 L 363 329.5 L 362 330.5 L 358 359.5 Q 360.5 361 359 366.5 L 367 382.5 L 367 428.5 L 370 443.5 L 370 459.5 L 367 465.5 Q 370.6 470.9 369 481.5 Q 362.8 491.8 343.5 489 Q 337.8 487.8 335 483.5 L 335 475.5 L 341 463.5 L 341 452.5 L 343 445.5 L 344 428.5 L 343 427.5 L 342 410.5 L 338 394.5 Q 331.6 377.4 320.5 365 L 320 368.5 L 324 381.5 L 324 392.5 L 316 422.5 Q 317.3 427.3 315 428.5 L 315 449.5 L 311 457.5 L 311 463.5 L 312 468.5 L 311 472.5 L 307.5 476 L 302.5 478 L 291.5 479 L 282.5 477 L 277 472.5 Q 277.3 459.3 285 453.5 L 285 446.5 L 292 421.5 L 293 409.5 L 294 408.5 L 294 386.5 L 289 373.5 L 278 355 L 268 354 L 265 370.5 L 265 387.5 Q 267.8 389.3 266 395.5 L 264 403.5 L 264 426.5 L 265 427.5 L 265 436.5 L 269 456.5 L 269 464.5 Q 265.1 468.6 266 477.5 L 267 478.5 L 267 490.5 L 258.5 497 L 243.5 499 L 235.5 497 L 231 493.5 L 230 488.5 Q 232 477.5 238 470.5 L 237 469.5 L 237 461.5 L 241 444.5 L 241 421.5 L 240 420.5 L 239 409.5 L 235 399.5 Q 236.3 394.8 234 393.5 L 234 376.5 Q 231.8 375.2 233 370.5 L 231.5 369 L 229 382.5 L 229 390.5 L 224 405.5 L 221 421.5 L 220 448.5 Q 217.3 450.3 219 456.5 L 215 463.5 L 215 478.5 L 210.5 483 L 199.5 486 L 193.5 486 L 184.5 484 L 181 482 Q 179.4 479.9 180 474.5 Q 182.7 465.2 189 459.5 L 189 452.5 L 193 444.5 L 196 432.5 L 198 412.5 L 199 411.5 L 199 395.5 L 198 394.5 L 198 383.5 L 200 377.5 L 200 350.5 L 199 349.5 L 199 340.5 L 198 339.5 L 196 318.5 L 192 310.5 L 190 302.5 L 189 285.5 L 190 284.5 L 190 276.5 L 193 261.5 L 195 256.5 L 193 249.5 L 193 238.5 L 192 237.5 L 191 168.5 L 190 167.5 L 189.5 147 L 183 149 Q 180.4 158.8 172.5 165 Q 167.2 170.7 154.5 169 Q 148 167.5 145 162.5 L 143 154 Q 131.9 152.4 126 144.5 Q 121.8 139.2 122 129.5 L 124 122.5 Q 129.6 117.6 132 109.5 L 134 86.5 L 136 81.5 L 120.5 78 L 108 67.5 L 102 55.5 L 102 48.5 Q 109 41 124.5 42 Q 142.3 45.2 150.5 58 L 161 52 L 163 40.5 L 163 33.5 L 158 29.5 L 157 20.5 L 160.5 16 L 168.5 13 Z M 166 17 L 164 18 L 160 23 Q 159 29 164 30 L 174 29 L 177 25 L 176 20 Q 173 16 166 17 Z M 206 19 L 204 20 L 201 24 L 202 30 Q 208 29 212 33 Q 217 34 218 30 L 217 23 Q 214 18 206 19 Z M 166 31 L 166 45 L 165 46 L 166 49 L 167 46 L 174 42 L 172 34 L 172 31 L 166 31 Z M 205 32 L 197 51 L 194 53 Q 195 49 192 50 L 189 44 L 182 40 L 184 45 L 181 44 Q 172 43 169 48 L 169 49 L 174 49 Q 175 52 173 51 Q 167 53 168 61 L 172 61 L 185 54 Q 188 53 187 56 L 183 57 L 172 64 Q 166 65 165 62 Q 164 55 167 53 L 166 50 Q 163 49 164 53 L 154 59 Q 144 66 140 78 L 137 89 L 136 108 L 134 112 L 135 113 L 142 110 L 139 105 Q 138 95 141 91 L 147 86 L 153 87 L 157 95 L 156 105 L 153 109 L 163 110 L 174 115 Q 183 121 186 133 Q 187 141 185 145 Q 197 143 206 136 Q 213 130 217 121 Q 216 118 219 119 Q 218 127 214 132 Q 206 142 193 147 Q 192 153 194 156 L 204 156 L 206 157 L 218 173 L 218 179 L 210 190 L 207 198 Q 204 202 197 201 L 195 201 L 196 217 L 199 215 L 208 216 L 215 224 L 218 232 L 227 243 Q 229 254 224 259 L 214 267 L 206 267 L 198 261 L 194 274 L 194 279 L 194 280 L 196 279 L 202 279 L 205 281 L 214 302 L 213 311 Q 211 318 200 316 L 198 316 L 205 328 Q 213 338 225 344 L 226 344 L 220 326 L 221 322 L 225 331 L 231 349 L 237 370 L 237 368 L 242 366 L 248 367 Q 254 372 256 382 L 255 388 Q 252 393 245 395 L 240 394 L 238 394 L 238 398 L 244 419 L 244 447 L 240 466 L 241 467 L 241 474 L 246 476 Q 256 477 262 475 L 266 463 L 263 440 L 262 439 L 262 431 L 261 430 L 262 368 L 268 334 L 268 326 L 269 325 Q 267 317 271 318 L 271 335 L 268 351 L 275 352 L 291 352 L 301 350 L 308 347 Q 303 340 301 330 L 301 321 L 309 307 L 314 305 L 320 306 L 323 311 L 330 316 L 333 321 L 334 325 L 330 336 L 321 342 Q 314 343 311 341 L 308 340 Q 312 351 320 359 L 321 357 L 327 352 L 335 353 L 345 366 Q 346 373 343 377 Q 340 381 335 380 L 342 397 L 347 425 L 347 441 L 344 455 Q 343 460 345 462 L 344 464 L 349 467 L 362 467 L 364 466 L 367 458 L 367 446 L 364 432 L 364 418 L 363 417 Q 361 410 364 409 L 364 385 L 363 380 L 356 368 L 355 354 L 354 354 Q 347 355 345 352 Q 340 349 338 343 Q 337 335 340 332 L 347 326 Q 356 325 359 330 L 360 327 L 360 304 L 355 288 L 354 288 L 354 293 L 357 301 Q 358 308 355 312 L 351 315 L 344 315 Q 339 307 329 304 L 324 299 L 325 290 L 341 278 Q 348 276 350 280 L 350 279 Q 342 267 329 261 L 326 262 L 328 266 Q 329 276 325 281 L 317 286 L 310 286 L 300 282 L 294 275 Q 295 265 291 261 Q 290 254 292 251 L 279 248 L 280 253 Q 282 263 278 269 Q 274 275 267 277 L 258 276 L 243 267 L 238 260 Q 239 251 236 247 Q 235 240 238 237 Q 243 230 253 229 L 246 218 L 245 220 L 240 224 L 231 224 L 221 219 Q 216 216 215 211 L 215 206 L 220 194 L 220 186 L 223 180 L 228 176 L 231 176 L 233 176 L 230 162 L 229 162 L 222 161 L 213 151 L 214 144 L 218 138 Q 220 133 226 134 Q 224 129 225 121 L 224 120 L 224 111 L 222 111 L 225 98 L 225 86 L 224 85 L 222 82 L 228 84 L 244 84 L 256 78 Q 266 70 268 54 L 263 50 Q 258 51 257 49 L 250 49 L 238 52 L 231 56 L 218 68 L 215 68 L 218 64 L 211 57 L 207 58 L 207 46 L 210 35 L 205 32 Z M 113 46 L 105 49 L 105 55 L 110 65 Q 118 77 137 78 L 141 70 L 140 69 L 133 62 Q 129 56 123 54 L 111 53 L 116 51 L 122 51 L 131 55 L 136 62 L 143 67 L 148 60 Q 142 51 132 47 Q 124 45 113 46 Z M 147 89 L 141 97 L 142 107 L 144 108 L 143 106 L 144 97 L 150 92 L 153 93 L 154 94 L 153 90 L 147 89 Z M 229 95 L 227 101 L 227 115 L 228 116 L 230 143 L 237 181 L 247 214 L 258 229 L 259 226 L 258 218 L 251 212 L 253 207 L 252 199 L 245 193 L 248 187 Q 249 180 246 177 L 240 173 Q 239 170 242 171 L 244 167 Q 245 160 242 158 L 236 153 L 240 148 L 240 140 L 233 132 L 237 125 Q 237 118 234 116 L 230 113 L 233 108 Q 234 98 229 95 Z M 152 96 L 150 98 Q 149 102 153 100 L 152 96 Z M 144 112 L 132 118 L 126 127 Q 125 136 128 142 Q 133 150 146 152 Q 162 153 170 145 L 174 140 L 174 138 Q 176 136 173 135 L 177 134 Q 180 134 179 139 L 178 138 L 173 145 L 169 156 L 161 162 Q 152 163 150 158 Q 151 153 146 155 L 148 162 L 156 166 L 164 166 L 170 163 Q 180 154 184 140 Q 184 130 180 125 Q 171 109 144 112 Z M 224 136 L 222 137 L 216 145 L 217 154 L 225 160 Q 229 161 230 159 L 226 138 Q 227 135 224 136 Z M 167 150 Q 163 153 157 154 Q 153 155 154 159 L 158 160 L 165 157 L 169 151 L 167 150 Z M 194 158 L 194 196 L 195 198 L 202 199 L 206 195 L 209 187 Q 214 183 216 177 L 215 172 Q 210 169 208 163 Q 205 156 194 158 Z M 229 178 L 223 185 L 222 196 L 218 205 L 218 213 L 220 216 L 232 222 L 241 221 L 244 217 L 234 183 Q 236 175 229 178 Z M 200 217 L 195 220 L 196 247 L 199 260 L 207 265 Q 214 266 217 263 Q 222 258 225 251 L 224 242 Q 216 235 212 224 Q 209 217 200 217 Z M 250 231 L 243 235 L 239 240 L 238 244 L 241 254 L 241 262 L 247 267 L 257 273 L 264 275 L 271 273 Q 277 270 278 262 L 278 255 L 276 247 L 256 231 L 250 231 Z M 296 252 L 293 257 L 298 278 Q 302 283 311 284 Q 319 284 322 281 L 326 272 L 324 261 L 318 257 L 296 252 Z M 342 280 L 331 287 L 326 293 L 327 300 L 337 305 L 345 313 L 352 312 L 355 306 L 355 302 L 350 284 Q 349 279 342 280 Z M 197 281 L 193 284 L 193 300 L 196 312 L 201 314 L 208 313 L 212 307 L 211 300 Q 206 295 205 286 L 201 281 L 197 281 Z M 361 291 L 363 302 L 363 309 L 369 319 L 373 333 L 378 343 L 382 345 L 378 335 Q 376 319 371 307 L 361 291 Z M 315 307 L 313 308 L 304 321 Q 303 330 306 335 L 314 340 Q 322 341 326 337 L 331 329 Q 333 321 329 320 Q 330 317 328 318 L 321 311 Q 319 307 315 307 Z M 201 326 L 203 352 L 208 350 L 213 351 L 216 355 L 221 366 L 220 374 L 213 380 Q 206 381 203 378 L 201 386 Q 199 392 202 394 L 201 423 L 197 443 L 192 455 L 192 462 Q 197 467 211 465 L 216 455 L 216 439 L 217 438 L 218 420 L 222 401 L 225 394 L 226 380 L 230 362 L 228 350 L 212 339 L 201 326 Z M 348 328 L 346 329 Q 341 332 340 338 L 342 347 L 347 351 L 351 352 L 356 351 L 358 340 L 358 333 Q 356 327 348 328 Z M 384 344 L 384 346 Q 383 348 379 347 L 378 351 Q 377 362 381 368 L 384 370 L 383 366 L 384 363 L 386 369 Q 389 374 396 376 Q 401 377 403 375 L 401 374 L 395 369 L 396 367 L 401 371 L 405 371 L 404 370 L 399 365 L 396 352 Q 392 345 384 344 Z M 309 350 L 293 355 L 282 355 L 296 381 L 297 393 L 298 394 Q 296 401 297 412 L 292 437 L 288 448 L 288 456 Q 294 460 307 459 L 312 448 L 312 427 L 321 391 L 321 384 L 317 371 L 317 361 L 311 352 L 309 350 Z M 206 353 L 203 356 L 204 360 L 204 373 L 203 375 L 209 378 L 214 377 L 219 371 L 219 367 L 214 356 Q 213 352 206 353 Z M 328 354 L 326 355 L 321 361 L 334 378 L 341 376 L 343 372 L 342 365 L 336 358 Q 335 353 328 354 Z M 243 368 L 237 372 Q 235 385 240 392 Q 251 394 253 387 L 253 380 L 250 373 Q 248 368 243 368 Z M 287 457 Q 281 462 280 472 L 287 475 Q 300 477 307 473 Q 309 469 308 461 L 295 461 L 287 457 Z M 191 463 Q 184 468 183 479 L 189 482 Q 204 484 211 479 Q 213 475 212 467 L 208 468 L 198 467 L 191 463 Z M 343 467 L 338 477 L 338 483 L 345 486 Q 360 488 366 481 Q 367 472 365 468 L 360 470 L 352 470 L 343 467 Z M 240 475 L 234 486 L 234 492 L 240 495 Q 257 498 264 490 Q 265 481 263 477 L 256 479 Q 245 480 240 475 Z " /><path fill="rgb(0,0,0)" stroke="rgb(0,0,0)" stroke-width="0" opacity="1" d="M 248.5 55 L 260.5 55 L 261 57 L 251.5 57 L 237 64 L 228 75.5 L 241.5 76 L 249.5 72 L 246.5 76 L 237.5 79 L 231.5 79 L 224.5 77 L 220.5 78 L 221.5 76 L 229 70.5 L 236.5 61 L 248.5 55 Z " /><path fill="rgb(0,0,0)" stroke="rgb(0,0,0)" stroke-width="0" opacity="1" d="M 150.5 71 Q 154.5 70.5 155 73.5 Q 155.9 76.9 150.5 75 L 144 78 Q 143.3 73.3 147.5 72 L 150.5 71 Z " /><path fill="rgb(0,0,0)" stroke="rgb(0,0,0)" stroke-width="0" opacity="1" d="M 197.5 72 Q 204.8 72.3 207 77.5 L 208 81 L 201.5 77 L 194 76 L 195.5 73 L 197.5 72 Z " /><path fill="rgb(0,0,0)" stroke="rgb(0,0,0)" stroke-width="0" opacity="1" d="M 194.5 87 Q 202 87.5 205 92.5 Q 208 96.5 207 104.5 L 201 115 L 189.5 115 L 186 111.5 L 183 104.5 L 183 100.5 Q 184.2 92.7 189.5 89 L 194.5 87 Z M 194 90 L 192 91 L 186 99 Q 185 106 187 110 L 190 112 L 188 108 Q 187 101 190 99 Q 192 94 200 95 Q 205 97 203 107 L 204 107 Q 206 98 203 95 Q 201 89 194 90 Z M 197 99 Q 195 105 200 103 Q 202 97 197 99 Z " /><path fill="rgb(0,0,0)" stroke="rgb(0,0,0)" stroke-width="0" opacity="1" d="M 136.5 120 Q 140.3 119.3 141 121.5 Q 142.3 126.8 139.5 128 Q 135.5 128.5 135 125.5 Q 134 121 136.5 120 Z M 138 123 L 138 126 L 139 126 Q 140 122 138 123 Z " /><path fill="rgb(0,0,0)" stroke="rgb(0,0,0)" stroke-width="0" opacity="1" d="M 160.5 122 Q 165.3 121.3 166 124.5 L 163.5 129 L 157 130 Q 155.8 123.6 160.5 122 Z M 160 125 L 160 127 L 160 128 L 163 126 L 160 125 Z " /><path fill="rgb(0,0,0)" stroke="rgb(0,0,0)" stroke-width="0" opacity="1" d="M 228.5 271 Q 239.3 270.3 243 276.5 L 246.5 281 L 257 287.5 L 260 296.5 Q 258 309 249.5 315 Q 245 319.5 235.5 319 Q 227.7 317.3 223 312.5 L 216 292.5 L 216 283.5 L 222.5 274 L 228.5 271 Z M 230 273 L 224 276 L 218 286 L 218 291 L 224 310 Q 227 314 234 316 Q 244 318 249 313 Q 254 308 257 300 L 256 291 Q 252 285 246 283 L 237 274 L 230 273 Z " /><path fill="rgb(0,0,0)" stroke="rgb(0,0,0)" stroke-width="0" opacity="1" d="M 277.5 280 L 285.5 280 L 292 284.5 L 297.5 292 L 302 295.5 L 304 302.5 Q 302.5 310.1 297.5 314 Q 293 318.5 282.5 317 L 274 313 L 271 307.5 L 271 291.5 L 270 290.5 Q 270.9 283.9 275.5 281 L 277.5 280 Z M 280 282 L 277 283 L 273 288 L 273 306 L 274 309 Q 277 314 285 315 Q 291 316 295 313 L 301 306 L 300 297 L 297 294 L 292 289 Q 289 282 280 282 Z " /><path fill="rgb(0,0,0)" stroke="rgb(0,0,0)" stroke-width="0" opacity="1" d="M 254.5 324 Q 260.4 324.6 263 328.5 L 264 339.5 L 259 353.5 L 254.5 358 L 248.5 359 L 243 355.5 L 236 342.5 L 236 337.5 L 241.5 330 L 254.5 324 Z M 252 327 L 244 331 L 238 339 L 239 344 L 245 355 L 250 357 L 254 356 L 258 351 L 262 338 L 261 330 Q 259 326 252 327 Z " /></svg>