<svg width="627" height="627" preserveAspectRatio="xMidYMid meet" viewBox="0 0 512 512" version="1.1" xmlns="http://www.w3.org/2000/svg" ><path fill="rgb(255,255,255)" stroke="rgb(255,255,255)" stroke-width="0" opacity="1" d="M 0 0 L 512 0 L 512 512 L 0 512 L 0 0 Z M 295 59 L 284 63 Q 274 69 272 82 Q 264 76 253 73 L 230 69 L 214 69 L 191 73 L 172 81 L 165 86 L 160 77 Q 155 68 144 65 Q 133 65 128 69 Q 121 74 118 83 Q 116 98 122 106 Q 127 114 138 116 L 133 134 L 133 139 L 129 157 L 124 160 Q 114 168 111 183 L 111 196 L 116 212 Q 121 222 130 230 L 127 245 L 127 253 L 126 254 L 126 267 L 127 268 L 128 282 Q 131 297 138 309 L 139 326 L 146 356 L 127 356 L 126 357 L 107 358 L 89 363 L 85 369 L 97 376 L 79 377 L 63 380 L 50 386 L 45 392 L 46 400 Q 51 406 61 409 L 79 414 L 89 415 L 91 417 L 89 417 L 84 422 L 84 426 L 91 431 L 109 436 L 130 438 L 131 439 L 150 439 L 151 440 L 168 441 L 166 441 L 165 444 L 166 446 L 181 450 L 200 451 L 201 452 L 218 452 L 219 453 L 271 453 L 272 452 Q 282 453 289 451 L 290 449 L 261 450 L 260 451 L 196 449 L 195 448 L 186 448 L 170 445 L 168 442 L 172 441 L 173 438 L 171 437 L 145 437 L 144 436 L 130 436 L 129 435 L 113 434 L 96 430 L 87 426 L 86 424 L 87 422 L 94 418 L 95 416 L 93 413 L 74 410 L 61 406 Q 53 404 48 398 L 49 391 L 60 384 L 78 380 L 99 378 L 101 376 L 88 368 L 93 364 L 106 361 L 147 358 L 148 363 L 148 374 L 142 390 L 142 400 L 146 403 L 156 407 L 165 409 L 174 409 L 175 410 L 198 409 L 213 404 L 216 399 L 217 372 L 219 364 L 233 368 L 240 368 L 242 369 L 242 386 L 237 402 Q 236 408 238 412 L 248 418 L 262 421 L 290 421 L 291 420 L 302 419 L 312 415 Q 317 412 318 405 L 318 387 L 326 385 L 329 382 L 330 378 L 330 364 L 350 358 L 351 358 L 350 371 L 344 384 L 344 393 L 352 398 L 364 401 L 390 401 L 400 399 L 409 395 L 412 390 L 412 366 L 413 365 L 413 358 Q 432 358 446 365 Q 449 366 449 371 Q 446 375 441 376 L 438 380 L 460 389 L 465 396 L 464 402 L 460 406 L 448 411 L 425 415 L 406 416 L 395 419 L 392 423 L 395 425 L 401 427 L 404 432 L 397 436 L 384 439 L 360 441 L 359 442 L 348 442 L 347 443 L 329 443 L 328 444 L 291 444 L 290 446 L 341 446 L 342 445 L 366 444 L 367 443 L 375 443 L 376 442 L 387 441 L 403 436 Q 407 435 406 429 L 395 422 L 403 419 L 422 418 L 423 417 L 431 417 L 432 416 L 443 415 L 454 412 L 462 408 L 468 400 Q 468 393 465 391 Q 455 382 441 379 Q 449 377 452 372 L 451 367 L 446 362 L 435 358 L 413 355 L 416 340 L 426 311 L 431 285 L 431 263 L 428 246 Q 421 222 407 207 Q 381 177 333 170 Q 333 163 329 158 Q 324 148 311 146 L 306 140 L 301 118 L 297 110 L 304 106 Q 313 100 316 89 Q 318 76 313 70 Q 308 60 295 59 Z M 136 383 L 121 389 L 119 393 L 120 400 L 127 405 L 138 410 L 157 414 L 161 414 L 160 412 L 151 411 L 137 407 L 127 402 L 121 396 L 122 393 L 126 389 L 139 384 L 136 383 Z M 424 384 Q 424 387 429 388 Q 432 389 431 395 L 423 401 L 405 405 L 405 406 L 418 405 L 430 400 Q 434 398 434 392 Q 431 386 424 384 Z M 336 386 Q 333 391 326 391 L 326 392 L 330 392 L 337 387 L 336 386 Z M 96 387 L 84 390 L 79 395 L 80 398 L 87 402 L 95 404 L 99 404 L 84 398 L 82 395 L 88 391 L 102 388 L 96 387 Z M 223 397 L 225 402 L 224 406 L 217 410 L 203 413 L 203 414 L 210 414 L 224 409 Q 228 408 227 401 L 223 397 Z M 334 397 L 333 400 Q 337 405 344 407 L 361 411 L 379 411 L 381 410 L 357 408 L 345 405 L 337 401 L 334 397 Z M 326 412 L 326 418 L 322 421 L 311 424 L 311 425 Q 323 425 328 419 Q 329 413 326 412 Z M 123 416 L 125 419 L 134 423 L 144 425 L 152 425 L 153 426 L 165 426 L 171 425 L 141 422 L 123 416 Z M 219 420 L 212 422 Q 201 421 194 424 L 200 425 L 218 423 L 221 421 L 219 420 Z M 346 428 L 338 433 L 329 435 L 308 436 L 307 437 L 290 437 Q 288 435 287 438 L 292 439 L 319 439 Q 320 436 327 438 L 339 435 L 346 430 L 346 428 Z M 220 430 Q 221 434 228 436 L 244 439 L 263 439 L 263 437 L 240 436 L 230 434 L 220 430 Z " /><path fill="rgb(255,255,255)" stroke="rgb(255,255,255)" stroke-width="0" opacity="1" d="M 290.5 65 Q 303 63 307 69.5 Q 313.2 74.8 311 88.5 Q 308.8 95.8 303.5 100 L 294.5 105 L 292 100 L 300 95.5 Q 304 91.5 304 83.5 L 300.5 78 L 295.5 77 L 288 82.5 L 284 93 Q 281.3 91.9 282 94.5 Q 289.6 101.9 294 112.5 L 298 125.5 L 299 134.5 L 305 148 Q 302 147 303 150 Q 317.9 149.2 324 158.5 Q 329.3 163.2 328 174.5 L 327 174.5 Q 324 167 317.5 163 Q 311.3 157.7 299.5 158 L 295.5 159 L 290.5 156 L 280 153 L 284 144.5 L 284 132.5 Q 281.8 124.8 276.5 120 Q 273.3 116.2 265.5 117 L 257 122.5 L 254 128.5 L 253 136.5 L 255 145.5 L 258 150.5 L 235.5 152 L 221.5 156 L 220 157.5 L 223.5 158 L 235.5 155 L 262.5 154 L 263.5 155 L 273.5 155 L 292 160 L 290.5 163 L 287 165.5 L 284 173 Q 286.7 174.1 286 171.5 Q 291 161 308.5 163 Q 317.3 166.3 322 173.5 L 330 190.5 L 331 209.5 Q 328.6 223.6 319.5 231 Q 313.1 236.1 303.5 238 L 286.5 238 L 269.5 234 L 261.5 234 L 246.5 238 L 226.5 246 L 208.5 247 Q 186 242.5 175 226.5 L 167 209.5 L 165 193.5 Q 166.5 189.8 172 191 L 170.5 188 L 162.5 188 L 155 194.5 L 154 199.5 L 159.5 195 L 161.5 194 L 163 211.5 L 170 227.5 L 180 238.5 L 189 254.5 L 198.5 264 L 209.5 270 L 222.5 273 L 246.5 273 L 263.5 269 Q 274.5 265 281 256.5 L 282.5 253 Q 285.6 257.6 292 258 Q 289 268.8 280.5 275 L 272.5 280 L 253.5 286 L 241.5 287 L 240.5 288 L 225.5 288 L 209.5 285 L 197.5 280 L 180 264.5 L 172.5 253 L 172 255.5 Q 178.4 271.6 191.5 281 Q 201.5 288 215.5 291 Q 220.2 289.8 221.5 292 L 245.5 292 L 269.5 286 Q 283.7 280.7 292 269.5 L 297 257 Q 302.3 257.6 305 253.5 L 309.5 241 Q 319.8 238.3 326 231.5 Q 332.5 225 335 214.5 L 336 197.5 L 332 183.5 L 332 177.5 L 333 175 Q 380 181.7 405 211.5 Q 418 227 424 249.5 L 425 260.5 L 426 261.5 L 426 285.5 L 422 306.5 L 410 343.5 L 408 354.5 L 408 367.5 L 407 368.5 L 407 389.5 L 403.5 393 L 390.5 397 L 385 397 Q 384.5 390.2 379.5 387 L 372.5 385 L 364 390 Q 364.8 385.3 360.5 384 L 353.5 383 L 349.5 386 L 349 383.5 L 354 373.5 L 356 356.5 Q 353.8 355.3 356.5 354 Q 372 346.5 382 333.5 Q 391 322.5 396 307.5 L 399 294.5 L 399 270.5 L 396.5 263 L 396 288.5 L 391 308.5 Q 383.8 327.8 369.5 340 L 351.5 352 L 335.5 358 L 321.5 361 L 321 359.5 L 328 338.5 Q 326.8 333.8 329 332.5 L 329 313.5 L 327.5 311 L 325 333.5 L 314 368.5 L 314 376.5 L 313 377.5 L 313 404.5 L 312 408.5 L 308.5 412 Q 300.3 416 289 416 Q 288.9 408.5 283.5 405 Q 280.5 402 273.5 403 L 267 408.5 L 266.5 410 L 262.5 403 Q 259.9 399.6 252.5 401 L 246 406.5 L 245 411 Q 242.3 412.1 243 409.5 Q 240.3 407.8 242 401.5 L 247 384.5 L 247 351.5 L 246 350.5 L 246 341.5 L 243.5 336 L 243 362.5 L 241.5 364 L 240.5 363 L 226.5 362 L 207.5 356 Q 190.1 348.9 178.5 336 L 178 337.5 L 188.5 349 L 196.5 355 L 213 363.5 L 212 393.5 L 211 398.5 L 207.5 402 Q 198.5 405.5 186.5 406 L 185 404.5 L 184 398.5 L 178.5 393 L 172.5 392 L 165 396.5 L 164.5 398 L 159.5 390 L 151.5 389 L 148 391 L 146.5 394 L 146 392.5 L 152 377.5 L 153 364.5 L 152 363.5 L 151 352.5 L 146 336.5 L 143 317.5 L 144 317.5 L 156.5 333 L 167.5 341 L 168 339 L 159 331.5 Q 145.9 317.6 138 298.5 L 132 276.5 L 131 254.5 L 132 253.5 L 132 244.5 L 134.5 233 L 152 242 Q 153.1 239.3 150.5 240 Q 136.8 231.7 127 219.5 L 118 203.5 L 116 195.5 L 116 183.5 Q 118.5 169 128.5 162 L 141 155.5 L 135.5 155 L 134 155.5 L 136 149.5 L 139 128.5 L 144.5 116 L 147 114.5 L 132.5 109 L 126 102.5 Q 120.8 96.7 123 83.5 Q 125.3 76.8 130.5 73 L 137.5 70 L 142.5 70 L 154 76.5 L 159 85.5 L 161 91.5 L 161 96.5 L 162.5 98 L 164 92.5 L 166.5 90 Q 188.4 73.4 227.5 74 L 228.5 75 L 237.5 75 L 251.5 78 L 260.5 81 L 277 90 L 276 84.5 Q 278 72.5 286.5 67 L 290.5 65 Z M 138 82 L 134 84 L 130 90 Q 129 96 132 99 Q 136 106 145 108 Q 153 110 154 105 L 150 91 Q 146 84 138 82 Z M 263 98 L 259 100 L 256 105 L 262 104 L 269 104 L 278 109 L 277 105 Q 273 98 263 98 Z M 188 103 L 181 106 Q 175 110 174 118 L 182 112 L 189 109 L 197 109 L 197 108 Q 195 102 188 103 Z M 187 124 L 183 126 Q 176 131 174 141 Q 173 156 181 162 L 182 162 L 177 153 Q 175 140 180 135 L 189 128 Q 196 127 199 130 L 203 135 L 206 144 L 206 150 L 203 159 L 201 160 L 204 154 L 204 146 L 201 140 L 195 135 L 188 137 L 183 144 Q 181 158 189 162 Q 191 161 190 164 L 185 166 L 181 171 Q 192 164 206 161 L 205 159 L 208 151 L 208 141 L 204 131 L 196 124 L 187 124 Z M 211 165 L 202 170 Q 197 175 195 183 L 197 186 L 200 178 Q 204 172 212 169 Q 229 167 234 178 L 235 178 L 231 170 L 222 165 L 211 165 Z M 301 172 Q 296 175 294 182 L 295 186 Q 298 187 297 185 L 302 181 Q 305 180 306 183 L 304 186 L 305 187 L 308 185 L 310 182 L 309 175 Q 307 171 301 172 Z M 217 178 L 214 179 L 210 184 L 210 188 L 215 192 L 216 192 L 215 190 L 220 187 L 223 188 Q 225 193 227 190 L 224 182 L 217 178 Z M 363 370 L 364 372 L 370 374 L 378 374 L 379 373 Q 382 374 381 371 L 379 372 L 363 370 Z M 160 373 L 161 375 L 169 378 L 177 378 L 178 377 L 171 376 L 160 373 Z M 256 381 L 256 383 L 267 386 Q 274 387 277 385 L 263 383 L 256 381 Z " /><path fill="rgb(255,255,255)" stroke="rgb(255,255,255)" stroke-width="0" opacity="1" d="M 296.5 80 Q 300.5 79.5 301 82.5 L 301 88.5 L 295.5 96 L 289.5 98 Q 286.3 97.3 287 92.5 Q 288.9 84.9 294.5 81 L 296.5 80 Z " /><path fill="rgb(255,255,255)" stroke="rgb(255,255,255)" stroke-width="0" opacity="1" d="M 135.5 86 Q 144.1 84.9 146 90.5 L 151 105 Q 139.3 106 135 98.5 Q 132.2 95.8 133 89.5 L 135.5 86 Z " /><path fill="rgb(255,255,255)" stroke="rgb(255,255,255)" stroke-width="0" opacity="1" d="M 267.5 121 Q 275.6 122.4 279 128.5 Q 282.1 133.9 282 142.5 L 280 149.5 L 277.5 152 L 274 151.5 Q 278.5 148 277 138.5 L 271.5 130 L 266.5 128 L 262.5 129 L 258 133.5 L 256.5 141 L 256 133.5 Q 257.1 126.1 262.5 123 L 267.5 121 Z " /><path fill="rgb(255,255,255)" stroke="rgb(255,255,255)" stroke-width="0" opacity="1" d="M 264.5 133 L 268 134.5 Q 268.8 138.3 266.5 139 Q 260.8 140.8 263 134.5 L 264.5 133 Z " /><path fill="rgb(255,255,255)" stroke="rgb(255,255,255)" stroke-width="0" opacity="1" d="M 191.5 140 Q 195.9 138.5 195 141.5 L 196 143.5 L 193.5 147 L 190 144.5 Q 189.3 140.8 191.5 140 Z " /><path fill="rgb(255,255,255)" stroke="rgb(255,255,255)" stroke-width="0" opacity="1" d="M 262.5 240 Q 275.1 238.4 280 244.5 L 279 251.5 L 271.5 260 L 265.5 262 L 260 257.5 L 257 252.5 L 256 245.5 L 258.5 242 L 262.5 240 Z " /><path fill="rgb(255,255,255)" stroke="rgb(255,255,255)" stroke-width="0" opacity="1" d="M 285 242 L 287.5 243 L 302.5 243 L 304 242.5 Q 304.3 249.8 299.5 252 Q 296.3 254.3 289.5 253 L 285 249.5 L 285 242 Z " /><path fill="rgb(255,255,255)" stroke="rgb(255,255,255)" stroke-width="0" opacity="1" d="M 188.5 244 L 196 248 L 195.5 255 L 188 245.5 L 188.5 244 Z " /><path fill="rgb(255,255,255)" stroke="rgb(255,255,255)" stroke-width="0" opacity="1" d="M 242.5 245 L 254 254.5 L 259 263.5 L 259 266 L 245.5 269 L 222.5 269 L 217 267.5 L 224 259.5 L 225 251 L 242.5 245 Z " /><path fill="rgb(255,255,255)" stroke="rgb(255,255,255)" stroke-width="0" opacity="1" d="M 200 250 L 208.5 252 L 220 252 Q 220.9 258.8 218 262 L 212.5 264 L 208.5 264 L 201 259.5 L 200 250 Z " /><path fill="rgb(255,255,255)" stroke="rgb(255,255,255)" stroke-width="0" opacity="1" d="M 320.5 365 Q 328.3 362.3 326 369.5 L 325 370.5 L 325 379.5 L 322.5 382 L 318 383 L 319 366.5 L 320.5 365 Z " /><path fill="rgb(255,255,255)" stroke="rgb(255,255,255)" stroke-width="0" opacity="1" d="M 355.5 385 L 361 387.5 L 363 396 Q 353.7 396.5 349 391.5 L 353.5 386 L 355.5 385 Z " /><path fill="rgb(255,255,255)" stroke="rgb(255,255,255)" stroke-width="0" opacity="1" d="M 371.5 388 L 376.5 388 L 381 392.5 L 382 397 L 374.5 398 L 373.5 397 L 366 397 Q 365.1 391.1 369.5 389 L 371.5 388 Z " /><path fill="rgb(255,255,255)" stroke="rgb(255,255,255)" stroke-width="0" opacity="1" d="M 153.5 391 Q 159.1 391.5 161 395.5 L 162 404 L 148 400 Q 147.1 394.1 151.5 392 L 153.5 391 Z " /><path fill="rgb(255,255,255)" stroke="rgb(255,255,255)" stroke-width="0" opacity="1" d="M 171.5 395 L 176.5 395 L 180 397 L 183 406 L 165 405 Q 164.8 398.5 169.5 396 L 171.5 395 Z " /><path fill="rgb(255,255,255)" stroke="rgb(255,255,255)" stroke-width="0" opacity="1" d="M 254.5 403 Q 260.1 402.9 262 406.5 Q 265 409.8 264 416 L 256.5 416 L 247 413 Q 246.4 407.7 250.5 405 L 254.5 403 Z " /><path fill="rgb(255,255,255)" stroke="rgb(255,255,255)" stroke-width="0" opacity="1" d="M 273.5 406 Q 281.8 404.7 284 409.5 L 286 417 L 267.5 417 L 267 414.5 L 270 408 L 273.5 406 Z " /><path fill="rgb(0,0,0)" stroke="rgb(0,0,0)" stroke-width="0" opacity="1" d="M 294.5 59 Q 307.9 60.1 313 69.5 Q 317.5 76 316 88.5 Q 312.6 100.1 303.5 106 L 297 109.5 L 301 117.5 L 306 139.5 L 310.5 146 Q 323.8 147.7 329 157.5 Q 332.8 162.5 333 170 Q 381 176.8 407 206.5 Q 421.4 222.1 428 245.5 L 431 262.5 L 431 284.5 L 426 310.5 L 416 339.5 L 413 354.5 L 434.5 358 L 445.5 362 L 451 366.5 L 452 371.5 Q 448.5 377 441 378.5 Q 455.5 382 465 390.5 Q 468 393.5 468 399.5 L 461.5 408 L 453.5 412 L 442.5 415 L 431.5 416 L 430.5 417 L 422.5 417 L 421.5 418 L 402.5 419 L 395 421.5 L 406 428.5 Q 407 435 402.5 436 L 386.5 441 L 375.5 442 L 374.5 443 L 366.5 443 L 365.5 444 L 341.5 445 L 340.5 446 L 290 446 L 290.5 444 L 327.5 444 L 328.5 443 L 346.5 443 L 347.5 442 L 358.5 442 L 359.5 441 L 383.5 439 L 396.5 436 L 404 431.5 L 400.5 427 L 394.5 425 L 392 422.5 L 394.5 419 L 405.5 416 L 424.5 415 L 447.5 411 L 459.5 406 L 464 401.5 L 465 395.5 L 459.5 389 L 438 379.5 L 440.5 376 Q 446.3 374.8 449 370.5 Q 449.5 365.5 445.5 365 Q 432.1 358.1 413 358 L 413 364.5 L 412 365.5 L 412 389.5 L 408.5 395 L 399.5 399 L 389.5 401 L 363.5 401 L 351.5 398 L 344 392.5 L 344 383.5 L 350 370.5 L 351 357.5 L 349.5 358 L 330 364 L 330 377.5 L 329 381.5 L 325.5 385 L 318 387 L 318 404.5 Q 316.9 411.9 311.5 415 L 301.5 419 L 290.5 420 L 289.5 421 L 261.5 421 L 247.5 418 L 238 411.5 Q 235.7 408.3 237 401.5 L 242 385.5 L 242 368.5 L 239.5 368 L 232.5 368 L 218.5 364 L 217 371.5 L 216 398.5 L 212.5 404 L 197.5 409 L 174.5 410 L 173.5 409 L 164.5 409 L 155.5 407 L 145.5 403 L 142 399.5 L 142 389.5 L 148 373.5 L 148 362.5 L 147 358 L 105.5 361 L 92.5 364 L 88 367.5 L 101 375.5 L 98.5 378 L 77.5 380 L 59.5 384 L 49 390.5 L 48 397.5 Q 52.5 403.5 60.5 406 L 73.5 410 L 92.5 413 L 95 415.5 L 93.5 418 L 87 421.5 L 86 423.5 L 87 426 L 95.5 430 L 112.5 434 L 128.5 435 L 129.5 436 L 143.5 436 L 144.5 437 L 170.5 437 L 173 438 L 171.5 441 L 168 442 L 169.5 445 L 185.5 448 L 194.5 448 L 195.5 449 L 259.5 451 L 260.5 450 L 289.5 449 L 288.5 451 Q 281.8 453.3 271.5 452 L 270.5 453 L 218.5 453 L 217.5 452 L 200.5 452 L 199.5 451 L 180.5 450 L 166 446 L 165 443.5 L 166 441 L 168 440.5 L 150.5 440 L 149.5 439 L 130.5 439 L 129.5 438 L 108.5 436 L 90.5 431 L 84 425.5 L 84 421.5 L 88.5 417 L 91 416.5 L 88.5 415 L 78.5 414 L 60.5 409 Q 51.3 406.3 46 399.5 L 45 391.5 L 49.5 386 L 62.5 380 L 78.5 377 L 97 375.5 L 85 368.5 L 88.5 363 L 106.5 358 L 125.5 357 L 126.5 356 L 146 356 L 139 325.5 L 138 308.5 Q 130.8 297.2 128 281.5 L 127 267.5 L 126 266.5 L 126 253.5 L 127 252.5 L 127 244.5 L 130 229.5 Q 121.4 222.1 116 211.5 L 111 195.5 L 111 182.5 Q 114.1 168.1 123.5 160 L 129 157 L 133 138.5 L 133 133.5 L 138 116 Q 127.4 114.1 122 105.5 Q 115.8 98.2 118 82.5 Q 120.8 73.8 127.5 69 Q 133.1 64.6 143.5 65 Q 154.9 67.6 160 76.5 L 164.5 86 L 171.5 81 L 190.5 73 L 213.5 69 L 229.5 69 L 252.5 73 Q 263.7 75.8 271.5 82 Q 274.5 69.5 283.5 63 L 294.5 59 Z M 291 65 L 287 67 Q 278 72 276 85 L 277 90 L 261 81 L 252 78 L 238 75 L 229 75 L 228 74 Q 188 73 167 90 L 164 93 L 163 98 L 161 97 L 161 92 L 159 86 L 154 77 L 143 70 L 138 70 L 131 73 Q 125 77 123 84 Q 121 97 126 103 L 133 109 L 147 115 L 145 116 L 139 129 L 136 150 L 134 156 L 136 155 L 141 156 L 129 162 Q 118 169 116 184 L 116 196 L 118 204 L 127 220 Q 137 232 151 240 Q 153 239 152 242 L 135 233 L 132 245 L 132 254 L 131 255 L 132 277 L 138 299 Q 146 318 159 332 L 168 339 L 168 341 L 157 333 L 147 322 L 144 320 L 146 337 L 151 353 L 152 364 L 153 365 L 152 378 L 146 393 L 147 394 L 148 391 L 152 389 L 160 390 L 165 398 L 165 397 L 173 392 L 179 393 L 184 399 L 185 405 L 187 406 Q 199 406 208 402 L 211 399 L 212 394 L 213 364 L 197 355 L 189 349 L 178 338 L 179 336 Q 190 349 208 356 L 227 362 L 241 363 L 242 364 L 243 363 L 244 336 L 246 342 L 246 351 L 247 352 L 247 385 L 242 402 Q 240 408 243 410 Q 242 412 245 411 L 246 407 L 253 401 Q 260 400 263 403 L 267 410 L 267 409 L 274 403 Q 281 402 284 405 Q 289 408 289 416 Q 300 416 309 412 L 312 409 L 313 405 L 313 378 L 314 377 L 314 369 L 325 334 L 328 311 L 329 314 L 329 333 Q 327 334 328 339 L 321 360 L 322 361 L 336 358 L 352 352 L 370 340 Q 384 328 391 309 L 396 289 L 397 263 L 399 271 L 399 295 L 396 308 Q 391 323 382 334 Q 372 346 357 354 Q 354 355 356 357 L 354 374 L 349 384 L 350 386 L 354 383 L 361 384 Q 365 385 364 390 L 373 385 L 380 387 Q 384 390 385 397 L 391 397 L 404 393 L 407 390 L 407 369 L 408 368 L 408 355 L 410 344 L 422 307 L 426 286 L 426 262 L 425 261 L 424 250 Q 418 227 405 212 Q 380 182 333 175 L 332 178 L 332 184 L 336 198 L 335 215 Q 332 225 326 232 Q 320 238 310 241 L 305 254 Q 302 258 297 257 L 292 270 Q 284 281 270 286 L 246 292 L 222 292 Q 220 290 216 291 Q 202 288 192 281 Q 177 272 172 254 L 172 252 L 180 265 L 198 280 L 210 285 L 226 288 L 241 288 L 242 287 L 254 286 L 273 280 L 281 275 Q 289 269 292 258 Q 286 258 283 253 L 281 257 Q 274 265 264 269 L 247 273 L 223 273 L 210 270 L 199 264 L 189 255 L 180 239 L 170 228 L 163 212 L 162 194 L 160 195 L 154 200 L 155 195 L 163 188 L 171 188 L 172 191 Q 167 190 165 194 L 167 210 L 175 227 Q 186 242 209 247 L 227 246 L 247 238 L 262 234 L 270 234 L 287 238 L 304 238 Q 313 236 320 231 Q 329 224 331 210 L 330 191 L 322 174 Q 317 166 309 163 Q 291 161 286 172 Q 287 174 284 173 L 287 166 L 291 163 L 292 160 L 274 155 L 264 155 L 263 154 L 236 155 L 224 158 L 220 158 L 222 156 L 236 152 L 258 151 L 255 146 L 253 137 L 254 129 L 257 123 L 266 117 Q 273 116 277 120 Q 282 125 284 133 L 284 145 L 280 153 L 291 156 L 296 159 L 300 158 Q 311 158 318 163 Q 324 167 327 175 L 328 175 Q 329 163 324 159 Q 318 149 303 150 Q 302 147 305 148 L 299 135 L 298 126 L 294 113 Q 290 102 282 95 Q 281 92 284 93 L 288 83 L 296 77 L 301 78 L 304 84 Q 304 92 300 96 L 292 100 L 295 105 L 304 100 Q 309 96 311 89 Q 313 75 307 70 Q 303 63 291 65 Z M 297 80 L 295 81 Q 289 85 287 93 Q 286 97 290 98 L 296 96 L 301 89 L 301 83 Q 301 80 297 80 Z M 268 121 L 263 123 Q 257 126 256 134 L 257 141 L 258 134 L 263 129 L 267 128 L 272 130 L 277 139 Q 279 148 274 152 L 278 152 L 280 150 L 282 143 Q 282 134 279 129 Q 276 122 268 121 Z M 265 133 L 263 135 Q 261 141 267 139 Q 269 138 268 135 L 265 133 Z M 263 240 L 259 242 L 256 246 L 257 253 L 260 258 L 266 262 L 272 260 L 279 252 L 280 245 Q 275 238 263 240 Z M 285 242 L 285 250 L 290 253 Q 296 254 300 252 Q 304 250 304 243 L 303 243 L 288 243 L 285 242 Z M 189 244 L 188 246 L 196 255 L 196 248 L 189 244 Z M 243 245 L 225 251 L 224 260 L 217 268 L 223 269 L 246 269 L 259 266 L 259 264 L 254 255 L 243 245 Z M 200 250 L 201 260 L 209 264 L 213 264 L 218 262 Q 221 259 220 252 L 209 252 L 200 250 Z M 321 365 L 319 367 L 318 383 L 323 382 L 325 380 L 325 371 L 326 370 Q 328 362 321 365 Z M 356 385 L 354 386 L 349 392 Q 354 396 363 396 L 361 388 L 356 385 Z M 372 388 L 370 389 Q 365 391 366 397 L 374 397 L 375 398 L 382 397 L 381 393 L 377 388 L 372 388 Z M 154 391 L 152 392 Q 147 394 148 400 L 162 404 L 161 396 Q 159 391 154 391 Z M 172 395 L 170 396 Q 165 399 165 405 L 183 406 L 180 397 L 177 395 L 172 395 Z M 255 403 L 251 405 Q 246 408 247 413 L 257 416 L 264 416 Q 265 410 262 407 Q 260 403 255 403 Z M 274 406 L 270 408 L 267 415 L 268 417 L 286 417 L 284 410 Q 282 405 274 406 Z " /><path fill="rgb(0,0,0)" stroke="rgb(0,0,0)" stroke-width="0" opacity="1" d="M 137.5 82 Q 146.4 83.6 150 90.5 L 154 104.5 Q 152.5 109.5 144.5 108 Q 135.9 105.6 132 98.5 Q 129.4 95.6 130 89.5 L 133.5 84 L 137.5 82 Z M 136 86 L 133 90 Q 132 96 135 99 Q 139 106 151 105 L 146 91 Q 144 85 136 86 Z " /><path fill="rgb(0,0,0)" stroke="rgb(0,0,0)" stroke-width="0" opacity="1" d="M 262.5 98 Q 273.4 97.6 277 104.5 L 278 109 L 268.5 104 L 261.5 104 L 256 105 L 258.5 100 L 262.5 98 Z " /><path fill="rgb(0,0,0)" stroke="rgb(0,0,0)" stroke-width="0" opacity="1" d="M 187.5 103 Q 195.4 102.1 197 107.5 L 196.5 109 L 188.5 109 L 181.5 112 L 174 118 Q 175.1 110.4 180.5 106 L 187.5 103 Z " /><path fill="rgb(0,0,0)" stroke="rgb(0,0,0)" stroke-width="0" opacity="1" d="M 186.5 124 L 195.5 124 L 204 130.5 L 208 140.5 L 208 150.5 L 205 158.5 L 206 161 Q 191.8 164 180.5 171 L 184.5 166 L 190 164 Q 191.1 161.3 188.5 162 Q 180.7 157.8 183 143.5 L 187.5 137 L 194.5 135 L 201 139.5 Q 205.3 144.3 204.5 154 Q 206.8 150.3 206 143.5 L 203 134.5 L 198.5 130 Q 195.5 127 188.5 128 L 180 134.5 Q 175.4 140.3 177 152.5 L 182 161.5 L 180.5 162 Q 172.8 155.8 174 140.5 Q 175.8 130.8 182.5 126 L 186.5 124 Z M 192 140 Q 189 141 190 145 L 194 147 L 196 144 L 195 142 Q 196 139 192 140 Z M 204 154 L 203 157 L 204 157 L 204 154 Z " /><path fill="rgb(0,0,0)" stroke="rgb(0,0,0)" stroke-width="0" opacity="1" d="M 210.5 165 L 221.5 165 L 231 170 L 235 177.5 L 233.5 178 Q 228.7 167.3 211.5 169 Q 204.1 171.6 200 177.5 L 196.5 186 L 195 182.5 Q 196.7 174.7 201.5 170 L 210.5 165 Z " /><path fill="rgb(0,0,0)" stroke="rgb(0,0,0)" stroke-width="0" opacity="1" d="M 300.5 172 Q 307 171 309 174.5 L 310 181.5 L 308 185 L 304.5 187 L 304 185.5 L 306 182.5 Q 305.3 180.3 301.5 181 L 297 184.5 Q 297.7 187.1 295 186 L 294 181.5 Q 295.5 175 300.5 172 Z " /><path fill="rgb(0,0,0)" stroke="rgb(0,0,0)" stroke-width="0" opacity="1" d="M 216.5 178 L 224 181.5 L 227 189.5 Q 224.7 193.2 222.5 188 L 219.5 187 L 215 189.5 L 216 191.5 L 214.5 192 L 210 187.5 L 210 183.5 L 213.5 179 L 216.5 178 Z " /><path fill="rgb(0,0,0)" stroke="rgb(0,0,0)" stroke-width="0" opacity="1" d="M 362.5 370 L 378.5 372 L 381 371 Q 382.3 374 378.5 373 L 377.5 374 L 369.5 374 L 363.5 372 L 362.5 370 Z " /><path fill="rgb(0,0,0)" stroke="rgb(0,0,0)" stroke-width="0" opacity="1" d="M 159.5 373 L 170.5 376 L 178 376.5 L 176.5 378 L 168.5 378 L 160.5 375 L 159.5 373 Z " /><path fill="rgb(0,0,0)" stroke="rgb(0,0,0)" stroke-width="0" opacity="1" d="M 256 381 L 262.5 383 L 277 384.5 Q 273.6 387.1 266.5 386 L 256 383 L 256 381 Z " /><path fill="rgb(0,0,0)" stroke="rgb(0,0,0)" stroke-width="0" opacity="1" d="M 135.5 383 L 139 383.5 L 125.5 389 L 122 392.5 L 121 395.5 L 126.5 402 L 136.5 407 L 150.5 411 L 159.5 412 L 161 413.5 L 156.5 414 L 137.5 410 L 126.5 405 L 120 399.5 L 119 392.5 L 121 389 L 135.5 383 Z " /><path fill="rgb(0,0,0)" stroke="rgb(0,0,0)" stroke-width="0" opacity="1" d="M 423.5 384 Q 430.7 385.8 434 391.5 Q 433.9 397.9 429.5 400 L 417.5 405 L 404.5 406 L 404.5 405 L 422.5 401 L 431 394.5 Q 431.6 389.4 428.5 388 Q 423.9 386.8 423.5 384 Z " /><path fill="rgb(0,0,0)" stroke="rgb(0,0,0)" stroke-width="0" opacity="1" d="M 335.5 386 L 337 386.5 L 329.5 392 L 325.5 392 L 325.5 391 Q 332.6 390.6 335.5 386 Z " /><path fill="rgb(0,0,0)" stroke="rgb(0,0,0)" stroke-width="0" opacity="1" d="M 95.5 387 L 102 387.5 L 87.5 391 L 82 394.5 L 83.5 398 L 99 403.5 L 94.5 404 L 86.5 402 L 80 397.5 L 79 394.5 L 83.5 390 L 95.5 387 Z " /><path fill="rgb(0,0,0)" stroke="rgb(0,0,0)" stroke-width="0" opacity="1" d="M 222.5 397 L 227 400.5 Q 228.3 407.8 223.5 409 L 209.5 414 L 202.5 414 L 202.5 413 L 216.5 410 L 224 405.5 L 225 401.5 L 222.5 397 Z " /><path fill="rgb(0,0,0)" stroke="rgb(0,0,0)" stroke-width="0" opacity="1" d="M 333.5 397 L 336.5 401 L 344.5 405 L 356.5 408 L 381 409.5 L 378.5 411 L 360.5 411 L 343.5 407 Q 336.8 404.8 333 399.5 L 333.5 397 Z " /><path fill="rgb(0,0,0)" stroke="rgb(0,0,0)" stroke-width="0" opacity="1" d="M 325.5 412 Q 329 413 328 418.5 Q 322.9 425.4 310.5 425 L 310.5 424 L 321.5 421 L 326 417.5 L 325.5 412 Z " /><path fill="rgb(0,0,0)" stroke="rgb(0,0,0)" stroke-width="0" opacity="1" d="M 122.5 416 L 140.5 422 L 171 424.5 L 164.5 426 L 152.5 426 L 151.5 425 L 143.5 425 L 133.5 423 L 124.5 419 L 122.5 416 Z " /><path fill="rgb(0,0,0)" stroke="rgb(0,0,0)" stroke-width="0" opacity="1" d="M 218.5 420 L 221 420.5 L 217.5 423 L 199.5 425 L 194 423.5 Q 200.7 420.7 211.5 422 L 218.5 420 Z " /><path fill="rgb(0,0,0)" stroke="rgb(0,0,0)" stroke-width="0" opacity="1" d="M 345.5 428 L 346 429.5 L 338.5 435 L 326.5 438 Q 320.3 436.3 318.5 439 L 291.5 439 L 287 437.5 Q 288.3 434.8 289.5 437 L 306.5 437 L 307.5 436 L 328.5 435 L 337.5 433 L 345.5 428 Z " /><path fill="rgb(0,0,0)" stroke="rgb(0,0,0)" stroke-width="0" opacity="1" d="M 219.5 430 L 229.5 434 L 239.5 436 L 263 437 L 262.5 439 L 243.5 439 L 227.5 436 Q 221 434.3 219.5 430 Z " /></svg>