<svg width="627" height="627" preserveAspectRatio="xMidYMid meet" viewBox="0 0 512 512" version="1.1" xmlns="http://www.w3.org/2000/svg" ><path fill="rgb(255,255,255)" stroke="rgb(255,255,255)" stroke-width="0" opacity="1" d="M 0 0 L 512 0 L 512 512 L 0 512 L 0 0 Z M 107 78 L 105 79 L 101 84 L 101 112 L 107 126 Q 113 135 127 138 L 120 151 L 112 177 L 109 183 L 101 176 L 95 178 L 91 188 L 90 204 L 89 205 L 83 199 L 76 185 L 71 166 L 69 150 L 65 146 L 61 147 L 57 151 L 52 161 L 46 187 L 46 209 Q 49 210 47 217 L 52 234 Q 53 238 50 240 Q 48 249 52 253 L 52 262 L 51 263 Q 51 286 62 298 L 75 307 L 84 308 L 94 315 L 102 317 L 119 317 L 124 316 L 144 308 L 149 315 L 150 329 L 160 364 Q 162 376 159 384 Q 152 392 149 406 L 150 414 L 159 420 L 176 424 Q 204 426 220 416 L 223 411 L 224 406 L 222 389 L 221 388 L 221 374 L 222 373 L 223 357 Q 227 359 235 358 L 237 362 Q 236 366 238 368 L 238 389 L 228 412 Q 226 420 229 424 L 240 430 L 254 433 L 277 433 Q 278 431 284 432 L 300 426 L 305 419 Q 306 409 304 405 L 325 405 L 341 400 Q 346 397 347 390 L 347 380 L 352 363 L 354 345 L 358 343 L 359 345 L 362 357 L 362 372 L 351 396 L 351 405 L 360 411 L 372 414 L 399 414 L 411 411 L 418 407 L 422 398 L 422 390 L 421 389 L 421 362 L 419 352 L 419 344 L 418 343 L 420 325 L 433 287 L 437 263 L 439 275 L 439 285 L 440 286 L 440 296 L 436 302 L 434 311 L 437 323 L 447 334 L 448 337 L 448 342 L 451 342 Q 461 336 462 320 L 462 322 L 466 321 Q 466 308 460 302 L 453 296 L 451 295 L 451 272 L 446 250 L 424 206 L 416 194 Q 399 171 368 163 L 348 163 L 326 167 L 307 167 L 299 165 L 291 161 L 273 143 L 268 141 L 273 132 L 275 125 L 275 110 L 276 109 L 277 94 L 273 90 L 258 91 Q 246 94 238 100 Q 228 107 224 119 Q 213 114 206 103 Q 203 100 199 101 L 198 107 Q 192 104 181 105 L 179 109 L 164 110 L 149 116 L 147 115 L 145 105 L 139 95 L 128 84 L 115 78 L 107 78 Z " /><path fill="rgb(255,255,255)" stroke="rgb(255,255,255)" stroke-width="0" opacity="1" d="M 107.5 83 L 117.5 84 Q 127.3 88.3 134 95.5 Q 142.2 104.3 144 119.5 L 133.5 128 L 129 117.5 L 128 102.5 Q 125.8 95.2 120.5 91 L 114.5 88 L 121 95.5 L 125 106.5 L 126 122.5 L 131 130.5 L 131 133 L 122.5 132 L 111 123.5 L 106 112.5 L 105 92.5 Q 107.8 90.8 106 84.5 L 107.5 83 Z " /><path fill="rgb(255,255,255)" stroke="rgb(255,255,255)" stroke-width="0" opacity="1" d="M 261.5 95 L 272 95 L 272 99.5 L 271 100.5 L 271 120.5 L 270 125.5 Q 267.4 136.4 259.5 142 L 250.5 147 L 238.5 149 L 230 153.5 Q 229.1 156.5 233.5 155 L 239.5 153 L 244 162.5 L 247.5 184 L 248 167.5 L 244 153.5 L 245.5 152 L 254.5 150 L 265.5 144 L 283 159.5 L 291 170.5 L 297 183.5 L 299.5 186 L 300 184.5 L 292 167.5 L 293.5 168 L 307.5 172 L 324.5 172 L 345.5 168 L 361.5 167 L 362.5 168 L 373.5 169 L 387.5 175 Q 400.7 182.3 410 193.5 Q 422.8 208.2 429 229.5 L 431 239.5 L 431 247.5 L 432 248.5 L 432 263.5 L 431 264.5 L 431 273.5 L 427 290.5 L 415 325.5 Q 416.3 330.2 414 331.5 L 414 349.5 L 416 358.5 L 417 374.5 L 416 377.5 L 417 378.5 L 417 399.5 L 412.5 405 L 405 407 Q 404.6 398.6 398.5 395 L 390.5 394 L 386 397.5 L 384.5 400 L 379.5 393 L 371.5 392 L 367 394 Q 368 397 365 396 L 361.5 391 L 357.5 392 L 358 390.5 L 365 377.5 L 367 368.5 L 367 359.5 L 362 340.5 L 377 327.5 Q 388.8 314.8 396 297.5 L 402 276.5 L 403 252.5 L 401 241 Q 397.7 239.7 399 244.5 L 400 245.5 L 400 261.5 L 399 262.5 L 398 276.5 L 391 298.5 Q 382.6 317.1 368.5 330 Q 356.4 341.4 339.5 348 L 322.5 353 L 310 354 L 311 345.5 Q 321 334.5 327 319.5 L 331 306.5 L 333 286.5 L 332 285.5 L 331 269.5 L 328 258.5 L 325.5 255 L 325 257.5 L 329 276.5 L 329 292.5 L 328 293.5 L 327 305.5 L 323 318.5 L 312.5 337 L 311 328.5 L 309.5 327 L 307 348.5 L 298 380.5 L 298 399.5 Q 301.6 406.4 300 418.5 Q 295.5 425.2 286 426 Q 285.9 416.8 279.5 413 L 270.5 412 L 267 414 L 264.5 419 L 261 412 L 253.5 409 L 247.5 411 L 245 413.5 L 244.5 415 L 239.5 408 L 234.5 409 L 234 407.5 L 242 391.5 L 243 369.5 L 237 339.5 L 240 328.5 L 246.5 322 Q 256.4 313.9 275.5 315 L 289.5 319 L 288.5 317 L 278.5 313 L 268.5 312 L 253.5 315 Q 244.6 318.6 239 325.5 Q 234.6 330.6 233.5 339 L 229 327.5 L 229 316.5 L 230 314 Q 227.3 312.9 228 315.5 Q 224.9 320.9 226 330.5 Q 227.6 340.4 234 345.5 Q 233.3 351.6 235 354 L 211.5 350 L 191.5 342 L 176.5 332 L 165.5 321 Q 155.6 316.4 149 308.5 L 147 305.5 L 159.5 300 L 184.5 296 L 200.5 291 Q 214.8 284.8 224 273.5 Q 238.2 258 237 228 Q 233 226.6 235 233.5 L 232 248.5 L 227 261.5 Q 221.3 271.9 212.5 279 Q 202.9 286.4 189.5 290 L 176.5 293 L 165.5 294 L 150.5 299 L 149.5 297 Q 139.6 306.6 124.5 311 L 120.5 312 L 100.5 312 Q 92.8 310.8 88 306.5 L 100.5 301 L 120.5 301 L 125.5 300 Q 139 296.5 147 287.5 L 156.5 272 L 162 275 L 158.5 269 L 150.5 268 L 148 269 Q 146.7 272.7 152.5 271 L 152 272.5 L 151 276.5 L 142.5 287 Q 135.7 293.2 125.5 296 Q 120.8 294.8 119.5 297 L 99.5 297 L 84.5 303 L 77.5 303 Q 68.1 299.4 63 291.5 L 57 277.5 L 56 260.5 L 57.5 256 Q 61.8 260 69 260 Q 70.3 257 66.5 258 Q 59.5 256.4 56 251.5 Q 53.4 248.6 54 242.5 L 55.5 240 L 60.5 247 Q 65.7 251.3 76.5 250 Q 88.7 246.7 95 237.5 L 99 228.5 L 99 218.5 L 95 212.5 L 96.5 213 L 100.5 214 L 106 218 Q 104.7 214.3 110.5 216 L 120 208.5 Q 122.7 205.2 122 198.5 L 119 193.5 L 120.5 193 L 127.5 196 L 124.5 192 Q 121.6 189.4 115.5 190 L 112 186.5 L 117 174.5 L 119.5 172 Q 123.7 168.5 132 170 L 131 166 Q 128.9 164.4 123.5 165 L 119.5 168 L 120 166.5 Q 125.9 139.9 143.5 125 Q 151.5 118 163.5 115 Q 172.2 112.2 185.5 114 L 192 117 L 186 109.5 L 189.5 109 L 199.5 113 L 205 117 L 202 106.5 L 216.5 120 L 222 123 L 222 127.5 L 217 140 L 223 135.5 L 229 117.5 L 237.5 106 Q 246.6 97.6 261.5 95 Z M 262 100 L 254 104 L 243 116 L 237 134 L 233 141 L 225 148 L 226 149 L 234 145 L 239 139 Q 244 131 245 121 L 251 111 Q 256 104 264 102 Q 265 99 262 100 Z M 179 176 L 177 178 Q 174 177 175 181 Q 187 179 192 185 L 193 188 L 197 190 L 194 182 Q 191 174 179 176 Z M 178 199 L 172 201 Q 164 206 161 217 L 161 227 L 165 236 L 170 238 L 181 240 Q 183 241 182 238 L 180 238 Q 188 232 191 222 Q 193 211 189 206 Q 186 200 178 199 Z M 257 216 L 255 218 L 255 230 L 253 237 L 253 242 L 248 259 Q 241 278 228 292 L 213 304 L 205 307 L 204 309 L 212 307 L 225 299 Q 235 290 243 278 L 252 259 L 257 237 L 257 216 Z M 106 229 Q 104 239 99 245 Q 94 252 85 255 L 84 257 Q 90 256 94 253 Q 102 247 106 237 L 106 229 Z M 111 254 L 105 257 L 102 261 L 102 262 L 110 257 Q 118 255 122 258 L 126 264 Q 125 266 128 265 L 126 260 Q 123 252 111 254 Z M 115 264 L 111 265 L 103 275 Q 102 279 105 280 Q 107 281 106 279 Q 108 273 116 274 L 115 276 L 117 276 L 120 272 L 119 266 L 115 264 Z M 374 360 L 375 362 L 381 364 L 389 364 L 390 363 Q 394 364 393 361 L 389 362 L 382 362 L 374 360 Z M 253 380 L 252 382 Q 255 385 263 384 L 265 384 Q 271 386 270 382 L 266 383 L 257 382 L 253 380 Z " /><path fill="rgb(255,255,255)" stroke="rgb(255,255,255)" stroke-width="0" opacity="1" d="M 63.5 151 L 66 157.5 L 68 174.5 L 73 189.5 Q 79.1 203.4 89.5 213 L 95 217.5 Q 97.5 221 96 228.5 Q 93.2 237.2 86.5 242 Q 80.7 247.7 68.5 247 L 61 244 L 57 235.5 L 52 217.5 Q 53.5 212 51 210.5 L 51 184.5 L 57 160.5 L 63.5 151 Z " /><path fill="rgb(255,255,255)" stroke="rgb(255,255,255)" stroke-width="0" opacity="1" d="M 99.5 181 L 118 197.5 L 119 204.5 L 114.5 211 L 104.5 214 L 95 207.5 Q 92.6 189.6 99.5 181 Z " /><path fill="rgb(255,255,255)" stroke="rgb(255,255,255)" stroke-width="0" opacity="1" d="M 176.5 203 Q 183.8 202.8 186 207.5 Q 189.5 211.5 188 220.5 L 187 220.5 Q 187.9 212.6 182.5 211 L 177.5 210 Q 171.4 211.4 169 216.5 Q 165.9 220.9 167 229.5 L 171 235.5 L 169.5 235 L 165 231.5 L 163 225.5 L 163 219.5 Q 164.5 209.5 171.5 205 L 176.5 203 Z " /><path fill="rgb(255,255,255)" stroke="rgb(255,255,255)" stroke-width="0" opacity="1" d="M 177.5 215 L 181 216.5 Q 181.8 220.3 179.5 221 Q 175.1 222.5 176 219.5 L 176 217.5 L 177.5 215 Z " /><path fill="rgb(255,255,255)" stroke="rgb(255,255,255)" stroke-width="0" opacity="1" d="M 434.5 235 Q 441.6 246.9 445 262.5 L 446 276.5 L 447 277.5 L 447 296.5 L 449.5 299 L 457 304.5 L 461 313.5 L 455.5 309 L 454 309.5 Q 458.7 314.3 457 325.5 L 452.5 335 L 451 333.5 L 447 319 Q 443 317.6 445 324.5 L 445.5 326 Q 437.8 320.8 439 306.5 L 441 300.5 L 444 297.5 L 444 280.5 L 443 279.5 L 443 272.5 L 441 262.5 L 436 250.5 L 436 243.5 L 434.5 235 Z " /><path fill="rgb(255,255,255)" stroke="rgb(255,255,255)" stroke-width="0" opacity="1" d="M 154.5 318 L 165 325.5 L 172.5 334 Q 184.4 344.6 200.5 351 L 212.5 355 L 216.5 355 L 218 356.5 L 216 385.5 L 219 399.5 L 219 407.5 L 214.5 414 Q 210.2 417.8 203 417 Q 202.6 408.6 196.5 405 L 187.5 404 L 183 407.5 L 181.5 410 L 177.5 403 Q 175.2 400.3 169.5 401 L 163.5 405 L 160.5 400 L 157.5 399 L 155.5 400 L 156 398.5 L 164 382.5 L 165 367.5 L 164 366.5 L 163 355.5 L 155 330.5 L 154.5 318 Z M 169 372 L 169 374 L 178 377 Q 183 378 185 376 Q 175 376 169 372 Z " /><path fill="rgb(255,255,255)" stroke="rgb(255,255,255)" stroke-width="0" opacity="1" d="M 348.5 348 L 350 348.5 L 343 376.5 L 342 391.5 L 338.5 396 L 334.5 398 L 323 400 L 323 395.5 L 319 388 L 315.5 386 L 308.5 386 L 305 388.5 Q 302 385.5 303 378.5 L 308 359 Q 332.1 357.8 348.5 348 Z " /><path fill="rgb(255,255,255)" stroke="rgb(255,255,255)" stroke-width="0" opacity="1" d="M 302.5 388 L 303 394.5 L 302 394.5 L 302.5 388 Z " /><path fill="rgb(255,255,255)" stroke="rgb(255,255,255)" stroke-width="0" opacity="1" d="M 310.5 388 Q 316.9 388.1 319 392.5 L 321 399.5 L 319.5 401 L 304.5 401 Q 301.8 399.8 304 398.5 Q 304.4 391.9 308.5 389 L 310.5 388 Z " /><path fill="rgb(255,255,255)" stroke="rgb(255,255,255)" stroke-width="0" opacity="1" d="M 359.5 393 L 363 395.5 Q 364.7 403.7 361.5 407 L 355 402.5 Q 354.4 396.3 357 394 L 359.5 393 Z " /><path fill="rgb(255,255,255)" stroke="rgb(255,255,255)" stroke-width="0" opacity="1" d="M 372.5 394 L 380 396 Q 384 400.8 383 410 L 369.5 409 L 365 406.5 Q 365.1 398.1 370.5 395 L 372.5 394 Z " /><path fill="rgb(255,255,255)" stroke="rgb(255,255,255)" stroke-width="0" opacity="1" d="M 392.5 396 L 400 399.5 L 403 407.5 L 399.5 409 L 385 410 Q 384.5 400.8 390.5 397 L 392.5 396 Z " /><path fill="rgb(255,255,255)" stroke="rgb(255,255,255)" stroke-width="0" opacity="1" d="M 156.5 402 Q 160.5 401.5 161 404.5 L 160 415 L 154 411.5 Q 152.8 404.3 156.5 402 Z " /><path fill="rgb(255,255,255)" stroke="rgb(255,255,255)" stroke-width="0" opacity="1" d="M 168.5 404 Q 177.5 402.5 179 408.5 L 180 419 L 171.5 419 L 162 416 L 164 408.5 L 168.5 404 Z " /><path fill="rgb(255,255,255)" stroke="rgb(255,255,255)" stroke-width="0" opacity="1" d="M 189.5 406 L 197 408 L 201 418 L 197.5 419 L 182 419 L 183 412.5 L 187.5 407 L 189.5 406 Z " /><path fill="rgb(255,255,255)" stroke="rgb(255,255,255)" stroke-width="0" opacity="1" d="M 236.5 410 Q 240.5 409.5 241 412.5 L 242 419.5 L 241 425 L 233 422 L 232 416.5 L 236.5 410 Z " /><path fill="rgb(255,255,255)" stroke="rgb(255,255,255)" stroke-width="0" opacity="1" d="M 251.5 412 Q 258.4 411.1 260 415.5 L 263 425.5 L 262.5 428 Q 250.3 429.3 244 426 Q 242.7 416.3 249.5 413 L 251.5 412 Z " /><path fill="rgb(255,255,255)" stroke="rgb(255,255,255)" stroke-width="0" opacity="1" d="M 273.5 414 L 281 417.5 L 284 427 Q 276.8 429.3 265 428 Q 264.5 418.8 270.5 415 L 273.5 414 Z " /><path fill="rgb(0,0,0)" stroke="rgb(0,0,0)" stroke-width="0" opacity="1" d="M 106.5 78 L 114.5 78 L 127.5 84 L 139 94.5 L 145 104.5 L 147 114.5 L 148.5 116 L 163.5 110 L 179 109 L 180.5 105 Q 192.4 103.5 198 107 L 199 101 Q 203.5 100.2 205.5 103 Q 212.8 113.9 224 119 Q 227.7 106.9 237.5 100 Q 246 94 257.5 91 L 272.5 90 L 277 93.5 L 276 108.5 L 275 109.5 L 275 124.5 L 273 131.5 L 268 141 L 272.5 143 L 290.5 161 L 298.5 165 L 306.5 167 L 325.5 167 L 347.5 163 L 367.5 163 Q 399.4 170.6 416 193.5 L 424 205.5 L 446 249.5 L 451 271.5 L 451 294.5 L 452.5 296 L 460 301.5 Q 466.3 307.7 466 320.5 L 462 322 L 461.5 320 Q 461.4 336.4 450.5 342 L 448 342 L 448 336.5 L 447 333.5 L 437 322.5 L 434 310.5 L 436 301.5 L 440 295.5 L 440 285.5 L 439 284.5 L 439 274.5 L 436.5 263 L 433 286.5 L 420 324.5 L 418 342.5 L 419 343.5 L 419 351.5 L 421 361.5 L 421 388.5 L 422 389.5 L 422 397.5 L 417.5 407 L 410.5 411 L 398.5 414 L 371.5 414 L 359.5 411 L 351 404.5 L 351 395.5 L 362 371.5 L 362 356.5 L 359 344.5 L 357.5 343 L 354 345 L 352 362.5 L 347 379.5 L 347 389.5 Q 345.9 396.9 340.5 400 L 324.5 405 L 304 405 Q 306.4 408.9 305 418.5 L 299.5 426 L 283.5 432 Q 278 430.5 276.5 433 L 253.5 433 L 239.5 430 L 229 423.5 Q 226.3 419.7 228 411.5 L 238 388.5 L 238 367.5 Q 235.8 366.3 237 361.5 L 234.5 358 Q 226.8 358.8 223 357 L 222 372.5 L 221 373.5 L 221 387.5 L 222 388.5 L 224 405.5 L 223 410.5 L 219.5 416 Q 203.8 426.3 175.5 424 L 158.5 420 L 150 413.5 L 149 405.5 Q 151.8 392.3 159 383.5 Q 161.6 375.6 160 363.5 L 150 328.5 L 149 314.5 L 144 308 L 123.5 316 L 118.5 317 L 101.5 317 L 93.5 315 L 83.5 308 L 74.5 307 L 62 297.5 Q 50.8 285.7 51 262.5 L 52 261.5 L 52 252.5 Q 48 249 50 239.5 Q 52.6 238.1 52 233.5 L 47 216.5 Q 48.8 210.3 46 208.5 L 46 186.5 L 52 160.5 L 57 150.5 L 60.5 147 L 64.5 146 L 69 149.5 L 71 165.5 L 76 184.5 L 83 198.5 L 88.5 205 L 90 203.5 L 91 187.5 L 95 178 L 100.5 176 L 108.5 183 L 112 176.5 L 120 150.5 L 127 137.5 Q 113.4 135.1 107 125.5 L 101 111.5 L 101 83.5 L 104.5 79 L 106.5 78 Z M 108 83 L 106 85 Q 108 91 105 93 L 106 113 L 111 124 L 123 132 L 131 133 L 131 131 L 126 123 L 125 107 L 121 96 L 115 88 L 121 91 Q 126 95 128 103 L 129 118 L 134 128 L 144 120 Q 142 104 134 96 Q 127 88 118 84 L 108 83 Z M 262 95 Q 247 98 238 106 L 229 118 L 223 136 L 217 140 L 222 128 L 222 123 L 217 120 L 202 107 L 205 117 L 200 113 L 190 109 L 186 110 L 192 117 L 186 114 Q 172 112 164 115 Q 152 118 144 125 Q 127 140 120 165 L 121 167 L 124 165 Q 129 164 131 166 L 132 170 Q 124 169 120 172 L 117 175 L 112 187 L 116 190 Q 122 189 125 192 L 128 196 L 121 193 L 119 194 L 122 199 Q 123 205 120 209 L 111 216 Q 105 214 106 218 L 99 213 L 96 214 L 99 219 L 99 229 L 95 238 Q 89 247 77 250 Q 66 251 61 247 L 56 240 L 54 243 Q 53 249 56 252 Q 60 256 67 258 Q 70 257 69 260 Q 62 260 58 256 L 56 261 L 57 278 L 63 292 Q 68 299 78 303 L 85 303 L 100 297 L 120 297 Q 121 295 126 296 Q 136 293 143 287 L 151 277 L 152 273 L 153 271 Q 147 273 148 269 L 151 268 L 159 269 L 162 275 L 157 272 L 147 288 Q 139 297 126 300 L 121 301 L 101 301 L 88 307 Q 93 311 101 312 L 121 312 L 125 311 Q 140 307 150 297 L 151 299 L 166 294 L 177 293 L 190 290 Q 203 286 213 279 Q 221 272 227 262 L 232 249 L 235 234 Q 233 227 237 228 Q 238 258 224 274 Q 215 285 201 291 L 185 296 L 160 300 L 147 306 L 149 309 Q 156 316 166 321 L 177 332 L 192 342 L 212 350 L 235 354 Q 233 352 234 346 Q 228 340 226 331 Q 225 321 228 316 Q 227 313 230 314 L 229 317 L 229 328 L 234 339 Q 235 331 239 326 Q 245 319 254 315 L 269 312 L 279 313 L 289 317 L 290 319 L 276 315 Q 256 314 247 322 L 240 329 L 237 340 L 243 370 L 242 392 L 234 408 L 235 409 L 240 408 L 245 415 L 245 414 L 248 411 L 254 409 L 261 412 L 265 419 L 267 414 L 271 412 L 280 413 Q 286 417 286 426 Q 296 425 300 419 Q 302 406 298 400 L 298 381 L 307 349 L 310 327 L 311 329 L 313 337 L 323 319 L 327 306 L 328 294 L 329 293 L 329 277 L 325 258 L 326 255 L 328 259 L 331 270 L 332 286 L 333 287 L 331 307 L 327 320 Q 321 335 311 346 L 310 354 L 323 353 L 340 348 Q 356 341 369 330 Q 383 317 391 299 L 398 277 L 399 263 L 400 262 L 400 246 L 399 245 Q 398 240 401 241 L 403 253 L 402 277 L 396 298 Q 389 315 377 328 L 362 341 L 367 360 L 367 369 L 365 378 L 358 390 Q 357 392 362 391 L 365 396 Q 368 397 367 394 L 372 392 L 380 393 L 385 400 L 386 398 L 391 394 L 399 395 Q 405 399 405 407 L 413 405 L 417 400 L 417 379 L 416 378 L 417 375 L 416 359 L 414 350 L 414 332 Q 416 330 415 326 L 427 291 L 431 274 L 431 265 L 432 264 L 432 249 L 431 248 L 431 240 L 429 230 Q 423 208 410 194 Q 401 182 388 175 L 374 169 L 363 168 L 362 167 L 346 168 L 325 172 L 308 172 L 293 168 L 300 185 L 300 186 L 297 184 L 291 171 L 283 160 L 266 144 L 255 150 L 246 152 L 244 154 L 248 168 L 248 184 L 244 163 L 240 153 L 234 155 Q 229 156 230 154 L 239 149 L 251 147 L 260 142 Q 267 136 270 126 L 271 121 L 271 101 L 272 100 L 272 95 L 262 95 Z M 64 151 L 57 161 L 51 185 L 51 211 Q 54 212 52 218 L 57 236 L 61 244 L 69 247 Q 81 248 87 242 Q 93 237 96 229 Q 98 221 95 218 L 90 213 Q 79 203 73 190 L 68 175 L 66 158 L 64 151 Z M 100 181 Q 93 190 95 208 L 105 214 L 115 211 L 119 205 L 118 198 L 100 181 Z M 436 237 L 436 251 L 441 263 L 443 273 L 443 280 L 444 281 L 444 298 L 441 301 L 439 307 Q 438 317 442 323 L 445 325 Q 443 318 447 319 L 451 334 L 453 335 L 457 326 Q 459 314 454 310 L 456 309 L 461 314 L 457 305 L 450 299 L 447 297 L 447 278 L 446 277 L 445 263 Q 442 248 436 237 Z M 155 318 L 155 331 L 163 356 L 164 367 L 165 368 L 164 383 L 156 399 L 156 400 L 158 399 L 161 400 L 164 405 L 170 401 Q 175 400 178 403 L 182 410 L 183 408 L 188 404 L 197 405 Q 203 409 203 417 Q 210 418 215 414 L 219 408 L 219 400 L 216 386 L 218 357 L 217 355 L 213 355 L 201 351 Q 184 345 173 334 L 165 326 L 155 318 Z M 349 348 Q 332 358 308 359 L 303 379 Q 302 386 305 389 L 309 386 L 316 386 L 319 388 L 323 396 L 323 400 L 335 398 L 339 396 L 342 392 L 343 377 L 350 349 L 349 348 Z M 303 388 L 302 395 L 303 395 L 303 388 Z M 311 388 L 309 389 Q 304 392 304 399 Q 302 400 305 401 L 320 401 L 321 400 L 319 393 Q 317 388 311 388 Z M 360 393 L 357 394 Q 354 396 355 403 L 362 407 Q 365 404 363 396 L 360 393 Z M 373 394 L 371 395 Q 365 398 365 407 L 370 409 L 383 410 Q 384 401 380 396 L 373 394 Z M 393 396 L 391 397 Q 385 401 385 410 L 400 409 L 403 408 L 400 400 L 393 396 Z M 157 402 Q 153 404 154 412 L 160 415 L 161 405 Q 161 402 157 402 Z M 169 404 L 164 409 L 162 416 L 172 419 L 180 419 L 179 409 Q 178 403 169 404 Z M 190 406 L 188 407 L 183 413 L 182 419 L 198 419 L 201 418 L 197 408 L 190 406 Z M 237 410 L 232 417 L 233 422 L 241 425 L 242 420 L 241 413 Q 240 410 237 410 Z M 252 412 L 250 413 Q 243 416 244 426 Q 250 429 263 428 L 263 426 L 260 416 Q 258 411 252 412 Z M 274 414 L 271 415 Q 265 419 265 428 Q 277 429 284 427 L 281 418 L 274 414 Z " /><path fill="rgb(0,0,0)" stroke="rgb(0,0,0)" stroke-width="0" opacity="1" d="M 261.5 100 Q 265.3 99 264 102 Q 255.8 103.9 251 110.5 L 245 120.5 Q 243.5 131 239 138.5 L 233.5 145 L 225.5 149 L 225 147.5 L 233 140.5 L 237 133.5 L 243 115.5 L 253.5 104 L 261.5 100 Z " /><path fill="rgb(0,0,0)" stroke="rgb(0,0,0)" stroke-width="0" opacity="1" d="M 178.5 176 Q 190.7 174.3 194 181.5 L 197 190 L 193 187.5 L 191.5 185 Q 186.5 179.2 175 181 Q 173.5 177.3 176.5 178 L 178.5 176 Z " /><path fill="rgb(0,0,0)" stroke="rgb(0,0,0)" stroke-width="0" opacity="1" d="M 177.5 199 Q 185.8 199.8 189 205.5 Q 192.6 210.9 191 221.5 Q 188.1 232.1 180 237.5 L 182 238 Q 183.1 240.7 180.5 240 L 169.5 238 L 165 235.5 L 161 226.5 L 161 216.5 Q 163.8 206.3 171.5 201 L 177.5 199 Z M 177 203 L 172 205 Q 164 209 163 220 Q 162 231 169 235 L 170 235 L 167 230 Q 166 221 169 217 Q 171 211 178 210 L 183 211 Q 188 213 187 221 L 188 221 Q 190 211 186 208 Q 184 203 177 203 Z M 178 215 L 176 218 L 176 220 Q 175 222 180 221 Q 182 220 181 217 L 178 215 Z " /><path fill="rgb(0,0,0)" stroke="rgb(0,0,0)" stroke-width="0" opacity="1" d="M 256.5 216 L 257 236.5 L 252 258.5 L 243 277.5 Q 235.3 289.8 224.5 299 L 211.5 307 L 203.5 309 L 204.5 307 L 212.5 304 L 228 291.5 Q 240.9 277.9 248 258.5 L 253 241.5 L 253 236.5 L 255 229.5 L 255 217.5 L 256.5 216 Z " /><path fill="rgb(0,0,0)" stroke="rgb(0,0,0)" stroke-width="0" opacity="1" d="M 105.5 229 L 106 236.5 Q 102.2 247.2 93.5 253 Q 90 256.5 83.5 257 L 84.5 255 Q 93.8 251.8 99 244.5 Q 104.1 238.6 105.5 229 Z " /><path fill="rgb(0,0,0)" stroke="rgb(0,0,0)" stroke-width="0" opacity="1" d="M 110.5 254 Q 123.1 251.9 126 259.5 L 128 265 Q 125.3 266.1 126 263.5 L 121.5 258 Q 117.7 255.3 109.5 257 L 101.5 262 L 102 260.5 L 104.5 257 L 110.5 254 Z " /><path fill="rgb(0,0,0)" stroke="rgb(0,0,0)" stroke-width="0" opacity="1" d="M 114.5 264 L 119 266 L 120 271.5 L 116.5 276 L 115 275.5 L 115.5 274 Q 107.6 273.1 106 278.5 Q 106.8 280.8 104.5 280 Q 102 279 103 274.5 L 110.5 265 L 114.5 264 Z " /><path fill="rgb(0,0,0)" stroke="rgb(0,0,0)" stroke-width="0" opacity="1" d="M 373.5 360 L 381.5 362 L 388.5 362 L 393 361 Q 394.3 364.3 389.5 363 L 388.5 364 L 380.5 364 L 374.5 362 L 373.5 360 Z " /><path fill="rgb(0,0,0)" stroke="rgb(0,0,0)" stroke-width="0" opacity="1" d="M 169 372 Q 174.7 375.6 185 375.5 Q 183.5 378.5 177.5 377 L 169 374 L 169 372 Z " /><path fill="rgb(0,0,0)" stroke="rgb(0,0,0)" stroke-width="0" opacity="1" d="M 252.5 380 L 256.5 382 L 265.5 383 L 270 382 Q 271.4 386 264.5 384 L 262.5 384 Q 254.9 385.1 252 381.5 L 252.5 380 Z " /></svg>