<svg width="627" height="627" preserveAspectRatio="xMidYMid meet" viewBox="0 0 512 512" version="1.1" xmlns="http://www.w3.org/2000/svg" ><path fill="rgb(255,255,255)" stroke="rgb(255,255,255)" stroke-width="0" opacity="1" d="M 0 0 L 512 0 L 512 512 L 0 512 L 0 0 Z M 380 54 L 360 63 L 342 69 L 327 73 L 321 73 L 308 76 L 292 83 L 289 83 L 283 79 L 276 79 L 270 76 Q 264 75 262 78 L 257 77 Q 250 76 248 79 Q 241 83 239 91 L 227 93 L 220 93 L 219 94 L 197 95 L 196 96 L 168 96 L 172 91 L 174 84 L 173 74 L 169 67 Q 163 59 153 56 Q 147 62 144 71 Q 142 84 148 90 L 158 97 L 141 97 L 137 91 Q 130 79 115 76 Q 90 74 79 86 L 79 88 L 88 99 Q 94 107 104 111 Q 91 112 84 119 L 73 130 L 69 135 L 69 137 L 80 140 Q 90 141 96 139 L 94 147 Q 93 157 97 162 L 112 153 Q 123 146 126 130 L 124 120 L 134 115 L 147 112 Q 153 111 156 114 L 144 120 L 135 133 L 133 144 L 134 160 Q 151 157 163 149 L 174 136 Q 178 128 176 116 L 183 117 L 213 117 L 214 116 L 224 116 L 233 114 L 240 114 L 241 113 L 244 118 Q 232 134 224 154 L 219 177 L 220 197 L 224 212 L 241 250 L 240 261 L 234 271 L 211 292 Q 201 300 196 312 Q 188 312 185 308 Q 176 301 173 290 L 173 275 L 175 267 L 175 252 Q 173 241 167 234 Q 160 224 147 221 Q 134 219 127 222 Q 116 225 110 232 Q 98 242 94 260 L 94 272 Q 95 280 100 285 Q 104 290 113 292 Q 120 292 125 289 L 130 282 L 130 276 L 127 270 L 120 267 L 117 264 Q 117 254 122 250 Q 127 244 136 242 L 141 242 L 148 245 L 153 253 L 153 258 L 154 261 L 152 271 L 152 279 L 151 280 L 152 297 Q 155 308 161 316 Q 172 331 193 334 Q 194 344 201 349 L 199 353 L 192 359 Q 185 358 183 361 Q 176 366 174 376 L 173 387 L 172 388 L 172 403 L 168 410 L 169 417 Q 170 421 177 420 L 178 423 L 184 426 L 189 425 L 194 427 Q 200 428 203 425 Q 208 422 208 416 L 213 415 L 217 408 L 217 403 L 211 388 L 211 382 Q 224 377 234 369 L 241 360 L 253 362 L 263 362 L 264 361 L 286 368 L 291 372 Q 292 378 289 381 L 281 389 L 278 390 L 276 394 Q 274 396 269 395 L 265 397 L 258 405 L 258 415 L 264 426 Q 265 435 261 440 Q 260 446 263 449 Q 264 452 270 451 L 271 454 L 278 458 L 285 456 L 290 456 L 294 454 L 301 445 L 303 440 L 303 433 L 301 424 L 296 413 L 315 400 Q 327 391 330 373 L 329 362 L 324 352 Q 316 340 303 335 L 315 304 Q 327 316 345 323 L 368 328 L 385 327 L 391 325 L 400 329 L 404 329 L 406 332 L 408 339 L 414 342 Q 420 342 423 337 L 430 337 L 433 335 L 434 330 L 434 328 L 439 326 L 443 320 L 440 312 L 443 307 L 443 303 L 440 297 L 431 292 L 422 292 L 424 288 L 423 284 L 417 279 L 412 279 L 401 284 L 391 295 L 371 295 L 366 294 Q 352 290 344 282 L 357 278 Q 360 274 368 273 L 376 262 L 379 264 L 389 264 L 401 258 Q 409 251 412 239 L 412 229 L 407 219 L 399 213 L 391 213 L 392 210 L 392 193 L 391 188 Q 387 174 378 165 L 368 157 Q 367 154 371 155 Q 373 155 373 151 L 369 147 L 361 145 L 364 139 Q 365 134 363 133 Q 352 132 348 136 L 346 137 L 347 135 L 346 128 L 344 124 L 342 122 L 338 127 L 325 138 Q 319 140 318 137 L 304 138 L 296 140 Q 284 144 277 151 Q 268 158 264 169 L 263 169 L 263 159 L 264 158 L 265 147 L 273 123 L 283 119 L 288 113 L 289 107 L 314 103 L 328 98 L 362 93 L 390 85 L 393 82 L 394 77 Q 394 65 389 60 Q 386 55 380 54 Z " /><path fill="rgb(255,255,255)" stroke="rgb(255,255,255)" stroke-width="0" opacity="1" d="M 378.5 59 L 383 59.5 L 370 67.5 L 371.5 68 L 384.5 61 Q 389.5 64.5 389 73.5 L 365 85.5 L 366.5 86 L 389 77 L 387.5 81 L 359.5 89 L 339.5 92 L 339.5 91 L 369.5 78 L 378 71.5 L 377.5 70 L 357.5 82 L 328.5 94 L 307.5 100 L 302.5 100 L 289 103 L 291 98.5 L 291 87 L 296.5 86 L 308.5 80 L 332.5 76 L 349.5 71 L 378.5 59 Z M 310 83 L 306 85 Q 302 84 303 87 L 313 84 L 310 83 Z M 316 92 L 304 95 L 303 97 Q 312 97 318 93 L 316 92 Z " /><path fill="rgb(255,255,255)" stroke="rgb(255,255,255)" stroke-width="0" opacity="1" d="M 154.5 60 L 165 67.5 L 170 77.5 L 170 84.5 L 165.5 94 L 157.5 74 L 157 76.5 L 163 94.5 L 161.5 94 Q 154.1 92.9 151 87.5 Q 147.2 82.8 147 74.5 Q 148.6 65 154.5 60 Z " /><path fill="rgb(255,255,255)" stroke="rgb(255,255,255)" stroke-width="0" opacity="1" d="M 99.5 80 Q 111 78.5 118.5 81 Q 127.8 84.2 133 91.5 L 137 100.5 L 135.5 100 L 114.5 92 L 108.5 92 L 108.5 93 Q 124.6 95.9 136 103.5 L 124.5 109 L 110.5 109 Q 97.1 105.4 90 95.5 L 83 86.5 L 99.5 80 Z " /><path fill="rgb(255,255,255)" stroke="rgb(255,255,255)" stroke-width="0" opacity="1" d="M 266.5 80 Q 272.9 80.1 275 84.5 Q 278 88.5 277 96.5 L 272.5 103 L 269.5 104 L 266 101.5 Q 269.8 98.3 268 89.5 L 263 81.5 L 266.5 80 Z " /><path fill="rgb(255,255,255)" stroke="rgb(255,255,255)" stroke-width="0" opacity="1" d="M 250.5 82 Q 259.2 80.3 262 84.5 L 265 91.5 L 265 96.5 L 261.5 102 L 255 101 L 254 91.5 L 251.5 89 L 251 92 L 243 90.5 L 247.5 84 L 250.5 82 Z " /><path fill="rgb(255,255,255)" stroke="rgb(255,255,255)" stroke-width="0" opacity="1" d="M 279 83 Q 283.9 82.9 286 86.5 Q 288.7 90.3 287 98.5 L 283.5 103 L 279.5 104 L 278 101.5 L 280 98.5 L 281 91.5 L 279 83 Z " /><path fill="rgb(255,255,255)" stroke="rgb(255,255,255)" stroke-width="0" opacity="1" d="M 244.5 94 Q 254.3 90.8 251 100.5 L 255 105.5 L 250.5 108 L 222.5 111 L 221.5 112 L 182.5 113 L 183.5 110 Q 180.5 113 173.5 112 L 154 108.5 L 154.5 107 L 137.5 110 L 122.5 116 L 123.5 114 L 139.5 106 L 147 105.5 L 141 103 L 141.5 101 L 159.5 101 L 160.5 100 L 198.5 100 L 199.5 99 L 220.5 98 L 221.5 97 L 243.5 95 L 244.5 94 Z M 227 101 L 219 103 L 205 104 L 205 105 L 220 105 L 230 103 L 231 102 L 227 101 Z M 250 104 L 248 107 L 252 105 L 250 104 Z " /><path fill="rgb(255,255,255)" stroke="rgb(255,255,255)" stroke-width="0" opacity="1" d="M 263.5 105 L 267.5 108 L 271.5 108 L 276.5 106 L 281.5 108 L 285 107 Q 284.1 112.9 279.5 116 Q 275.3 120 268 120 L 269 122.5 L 261 143.5 L 257.5 167 Q 254.6 164.4 248.5 165 Q 239.9 166.9 235 172.5 Q 226.1 180.6 228 199.5 Q 230.6 210.4 238.5 216 L 246 219 Q 244 222 245 229.5 L 248.5 237 L 250 236.5 L 254 246.5 L 264.5 258 L 269 261.5 L 254.5 269 L 234 288.5 Q 225.7 297.6 224 312 Q 214.4 310.6 210 314 Q 208.9 316.7 211.5 316 Q 213.3 313.3 219.5 315 L 232.5 319 L 241 326.5 Q 245.8 332.7 244 345.5 Q 240.3 357.8 231.5 365 Q 219.2 374.9 203 380 Q 201.9 383.3 206 382 L 206 384.5 Q 207.5 394 212 400.5 L 212 409.5 L 209 411.5 L 208 403.5 L 206.5 402 Q 203.8 403.3 206 404.5 L 205 414.5 L 199.5 422 L 195.5 423 L 194 420.5 L 196 418.5 L 198 408.5 L 197 405 L 195 405.5 L 195 412.5 L 190.5 420 L 183.5 421 L 181 420 L 187 410.5 L 187 403 Q 183.3 401.6 185 407.5 L 180.5 415 L 174.5 416 Q 171.3 415.3 172 410.5 L 176 403.5 L 178 377.5 L 182 367.5 L 185.5 364 L 192.5 363 L 193.5 365 L 191 366.5 Q 190.3 368.8 192.5 368 L 199 362.5 L 196 360.5 L 202 355.5 Q 209.7 348 212 336 Q 209.3 334.9 210 337.5 L 204.5 345 L 201 342.5 L 197 334.5 L 197 320.5 L 205 304.5 L 221.5 288 L 233 278.5 L 244 262.5 L 246 251.5 L 241 236.5 Q 231.4 221.6 226 202.5 L 224 193.5 L 224 172.5 L 226 162.5 L 231 148.5 L 248.5 119 L 250 118.5 L 246 112 Q 251.7 113 254 109.5 L 256.5 106 Q 262 107.5 263.5 105 Z M 263 108 L 263 114 L 265 114 L 266 112 Q 268 106 263 108 Z " /><path fill="rgb(255,255,255)" stroke="rgb(255,255,255)" stroke-width="0" opacity="1" d="M 105.5 114 L 118 116.5 L 104 129.5 L 104.5 131 Q 111 122.5 121 119 L 122 129.5 Q 119.8 143.8 109.5 150 L 100.5 156 L 98 156 L 98 145.5 L 103 132.5 L 101.5 133 Q 93.9 137.9 79.5 136 L 74 134.5 L 85.5 122 L 93.5 117 L 105.5 114 Z " /><path fill="rgb(255,255,255)" stroke="rgb(255,255,255)" stroke-width="0" opacity="1" d="M 159.5 116 L 169 116.5 L 153 130.5 L 147 140.5 L 150 138.5 Q 154.9 128.9 163.5 123 L 171.5 117 L 173 123.5 L 169 136.5 L 161.5 145 L 138.5 156 L 137 154.5 L 137 140.5 Q 139.6 126.6 149.5 120 L 159.5 116 Z " /><path fill="rgb(255,255,255)" stroke="rgb(255,255,255)" stroke-width="0" opacity="1" d="M 341.5 128 L 343 134.5 L 342 139.5 L 339 145 L 355.5 137 L 359.5 137 L 359 138.5 L 353.5 147 L 351 148.5 L 351.5 150 L 352.5 149 L 361.5 149 L 367 151.5 L 358 156.5 Q 371.8 161.2 379 172.5 Q 388.1 184.4 388 205.5 L 384 221.5 Q 379.3 233.3 371 241.5 L 371 245.5 L 372 246.5 L 372 258.5 L 366.5 268 L 367 266.5 Q 367.8 264.3 365.5 265 L 361.5 270 L 348.5 276 L 348.5 275 L 358 266.5 L 362 256.5 L 362 249.5 L 359 241 L 360.5 241 L 369 232.5 Q 377.2 222.2 377 203.5 Q 374.8 189.8 365.5 183 Q 358.8 177.2 344.5 179 L 333 184 Q 330.9 172.5 321.5 167 Q 314.7 161.3 301.5 162 Q 288.3 164.8 281 173.5 L 273 187.5 L 271 202.5 L 273 212.5 L 265 218.5 Q 258 225.5 259 240.5 L 262 248.5 L 260 247.5 L 253 233.5 L 253 226 Q 250.3 224.9 251 227.5 L 249 228.5 Q 249.3 214.8 257.5 209 L 262 207 Q 259.8 172.1 277.5 156 Q 286.7 146.7 301.5 143 L 322.5 142 L 324.5 142 L 329.5 140 L 340 130.5 L 341.5 128 Z " /><path fill="rgb(255,255,255)" stroke="rgb(255,255,255)" stroke-width="0" opacity="1" d="M 301.5 165 Q 318.7 164.8 326 174.5 Q 330.8 179.8 332.5 188 L 344.5 182 L 357.5 182 Q 364.9 184.6 369 190.5 L 374 202.5 L 374 213.5 Q 371 228.5 361.5 237 L 356 240 L 359 248.5 L 359 257.5 Q 356.5 266 350.5 271 L 339.5 277 L 329.5 279 L 318.5 279 L 318.5 277 L 311.5 279 L 300.5 279 Q 288.6 276.4 283 267.5 L 280.5 263 L 278.5 264 L 268 254.5 L 263 244.5 L 262 230.5 Q 264.1 221.6 270.5 217 L 276 213.5 L 274 205.5 L 274 195.5 Q 277 179.5 287.5 171 L 301.5 165 Z M 304 174 L 300 176 L 297 180 L 303 178 L 311 180 Q 313 181 312 179 Q 310 174 304 174 Z M 299 188 L 295 190 L 289 196 L 286 205 L 287 213 L 288 214 Q 285 213 286 216 L 298 220 L 305 219 Q 310 215 313 208 Q 315 197 311 193 Q 308 187 299 188 Z M 354 193 L 352 195 L 358 197 L 362 202 Q 361 204 364 203 L 362 197 Q 361 192 354 193 Z M 345 205 L 341 207 L 336 212 L 332 223 L 334 231 Q 337 235 344 236 Q 349 237 351 234 Q 357 230 359 222 Q 360 214 357 210 Q 355 203 345 205 Z M 311 222 L 309 223 L 305 228 Q 308 229 307 226 L 312 224 Q 320 224 325 228 Q 328 229 327 235 L 327 236 L 329 235 L 328 229 L 319 222 L 311 222 Z M 309 228 L 310 234 L 313 235 Q 316 236 314 231 Q 313 227 309 228 Z M 288 229 L 285 230 L 282 234 L 286 233 L 286 237 L 289 243 L 290 259 L 293 265 Q 297 269 304 271 L 314 269 L 325 259 Q 334 259 338 253 Q 340 252 339 255 L 341 255 L 340 251 Q 339 246 334 247 L 334 249 Q 337 248 336 251 Q 332 255 326 256 L 311 255 L 297 247 L 289 237 L 289 232 Q 293 233 292 230 L 288 229 Z M 321 233 L 318 237 Q 324 238 325 235 Q 324 232 321 233 Z " /><path fill="rgb(255,255,255)" stroke="rgb(255,255,255)" stroke-width="0" opacity="1" d="M 246.5 170 Q 258.7 168.3 262 175.5 L 258.5 188 L 252.5 180 Q 243.9 178.9 242 184.5 Q 239 188.5 240 196.5 L 243.5 202 L 244 200.5 L 242 192.5 L 244 186.5 L 246.5 184 L 251.5 183 Q 259.3 189.3 258 204.5 L 249 212.5 L 247.5 215 Q 240.1 213.9 237 208.5 Q 231.7 202.3 232 190.5 L 234 182.5 L 239 174 L 246.5 170 Z " /><path fill="rgb(255,255,255)" stroke="rgb(255,255,255)" stroke-width="0" opacity="1" d="M 298.5 192 Q 306.8 190.7 309 195.5 Q 312 198.5 311 205.5 Q 309.5 213.1 304.5 217 L 301.5 218 L 306 212.5 L 307 202.5 L 302.5 197 L 297.5 197 L 291 202.5 L 289.5 212 L 289 202.5 L 294.5 194 L 298.5 192 Z " /><path fill="rgb(255,255,255)" stroke="rgb(255,255,255)" stroke-width="0" opacity="1" d="M 300.5 201 L 303 202.5 Q 303.8 206.3 301.5 207 L 299 206 Q 298 202.2 300.5 201 Z " /><path fill="rgb(255,255,255)" stroke="rgb(255,255,255)" stroke-width="0" opacity="1" d="M 345.5 208 Q 351.9 207.6 354 211.5 Q 357.2 214.8 356 222.5 Q 354.2 229.7 348.5 233 L 344.5 234 L 344.5 233 L 350 228.5 L 352 220.5 L 348.5 214 L 340.5 213 L 336 216.5 L 342.5 209 L 345.5 208 Z " /><path fill="rgb(255,255,255)" stroke="rgb(255,255,255)" stroke-width="0" opacity="1" d="M 345.5 217 L 348 218.5 L 347 222 Q 343.2 223.5 344 220.5 Q 341.3 218.7 345.5 217 Z " /><path fill="rgb(255,255,255)" stroke="rgb(255,255,255)" stroke-width="0" opacity="1" d="M 391.5 217 L 396.5 217 L 403 220 L 407 227.5 L 407 240.5 L 398.5 254 Q 392.6 260.1 380.5 260 L 376 257.5 L 377 251.5 L 375 242.5 L 383.5 233 Q 386.3 229.3 393.5 230 Q 397.3 232.3 396 239.5 L 389.5 248 L 387 249.5 L 389.5 250 L 396 244.5 Q 400.2 240.7 399 231.5 L 394.5 227 L 389.5 227 L 385.5 229 L 385 227.5 L 389 218 L 391.5 217 Z " /><path fill="rgb(255,255,255)" stroke="rgb(255,255,255)" stroke-width="0" opacity="1" d="M 133.5 225 Q 155.4 224.1 164 236.5 Q 171.5 245.5 171 262.5 L 170 263.5 L 168 284.5 L 170 295.5 L 173 301.5 L 181.5 311 L 194 317.5 L 192 329 Q 173.1 326.2 164 312.5 L 157 297.5 L 155 282.5 L 158 265.5 L 158 255.5 Q 156.2 245.8 149.5 241 Q 144.3 236.7 133.5 238 Q 123.4 240.4 118 247.5 L 113 257.5 L 113 266.5 L 125 275.5 L 126 279.5 L 121.5 286 L 111.5 287 L 103 281.5 Q 96.7 273.8 99 257.5 Q 103 242.5 113.5 234 Q 121.1 227.1 133.5 225 Z " /><path fill="rgb(255,255,255)" stroke="rgb(255,255,255)" stroke-width="0" opacity="1" d="M 293 255 Q 300.6 253.9 303 259.5 L 304.5 262 L 305 259 L 310 261.5 L 311 267 L 303.5 268 Q 297.8 266.8 295 262.5 L 293 255 Z " /><path fill="rgb(255,255,255)" stroke="rgb(255,255,255)" stroke-width="0" opacity="1" d="M 268.5 264 L 271.5 264 L 281 270 L 286.5 277 Q 292.8 283.1 304 283 Q 300.5 321.8 277.5 342 L 266.5 348 Q 259.8 350.3 249.5 349 Q 247.3 348.3 248 344.5 L 249 343.5 L 249 335.5 Q 246.8 322.8 237.5 317 Q 233.5 313.3 227 313 L 228 304.5 L 233 294.5 L 249.5 276 L 268.5 264 Z " /><path fill="rgb(255,255,255)" stroke="rgb(255,255,255)" stroke-width="0" opacity="1" d="M 313.5 282 L 316.5 283 L 333.5 283 L 337.5 282 Q 345.8 290.7 357.5 296 L 373.5 300 L 387.5 300 L 391.5 299 Q 393.3 301.8 395 297.5 Q 396.6 290.6 402.5 288 Q 406.8 283.8 414.5 283 L 419 285.5 Q 420 291 416.5 292 L 409 294 L 410 299.5 L 405.5 306 L 400 307 Q 398.6 310.7 404.5 309 L 412 302.5 L 413 296 L 428.5 296 L 438 301.5 L 439 304.5 L 438 307 L 434.5 307 L 428.5 304 L 422 304 Q 420.8 307 424.5 306 Q 432.3 308.3 437 313.5 L 438 320.5 L 434.5 323 L 431 320.5 L 427.5 316 L 420 313 L 421.5 316 L 429 322.5 L 430 331.5 Q 429 334 424.5 333 L 421 325.5 L 416.5 321 Q 413.2 319.9 414 322.5 Q 418.7 326.3 419 334.5 L 418 337 L 414.5 338 L 411 335.5 Q 410.5 328 405.5 325 L 398.5 324 L 391 319 Q 392.3 322.3 387.5 321 L 381.5 323 L 362.5 323 L 349.5 320 L 339.5 316 L 316 300 L 319 291 L 316 292.5 Q 306.5 305 303 323.5 L 291 344.5 L 292.5 344 L 300.5 338 Q 312.2 343.8 320 353.5 L 325 364.5 L 325 375.5 Q 320.9 389.9 310.5 398 Q 301 406.2 289 411 L 289 413 Q 292.8 411.5 292 414.5 L 298 428.5 L 299 439 L 297 439 Q 298.3 434.9 295 436 L 295 445.5 L 291.5 450 L 289.5 451 L 289 449.5 Q 292 446.5 291 439.5 L 290 437 L 288 437.5 L 288 445.5 L 282.5 453 Q 276.5 454.5 275 451.5 L 275 449.5 L 280 443.5 L 281 437.5 L 280 434 Q 276 432.6 278 439.5 L 272.5 447 Q 267.3 448.3 266 445.5 L 265 441.5 Q 268.5 437 269 429.5 Q 267.2 418.8 262 411.5 L 262 407.5 L 267.5 400 L 276.5 399 L 275 401.5 Q 274.3 403.8 276.5 403 L 282.5 396 L 279 395.5 L 285 394 Q 286.1 391.3 283.5 392 L 283.5 391 L 292 383.5 Q 295.5 379 296 371.5 L 292.5 367 L 272 358.5 L 277 355.5 L 273.5 355 L 268.5 357 L 248.5 357 L 245 356 L 246 351 L 259.5 352 Q 260.8 349.8 265.5 351 L 274.5 347 L 289 333.5 Q 303.7 313.5 307 283 L 313.5 282 Z " /><path fill="rgb(0,0,0)" stroke="rgb(0,0,0)" stroke-width="0" opacity="1" d="M 379.5 54 Q 386.1 54.9 389 59.5 Q 394.1 65.4 394 76.5 L 393 81.5 L 389.5 85 L 361.5 93 L 327.5 98 L 313.5 103 L 289 107 L 288 112.5 L 282.5 119 L 273 123 L 265 146.5 L 264 157.5 L 263 158.5 L 263 168.5 L 264 168.5 Q 268.2 157.7 276.5 151 Q 284.4 143.9 295.5 140 L 303.5 138 L 317.5 137 Q 319 139.5 324.5 138 L 338 126.5 L 341.5 122 L 344 123.5 L 346 127.5 L 347 134.5 L 346 136.5 L 347.5 136 Q 352.3 131.8 362.5 133 Q 365 134 364 138.5 L 361 144.5 L 368.5 147 L 373 150.5 Q 373.5 154.5 370.5 155 Q 366.8 154 368 157 L 378 164.5 Q 386.8 173.7 391 187.5 L 392 192.5 L 392 209.5 L 391 213 L 398.5 213 L 407 218.5 L 412 228.5 L 412 238.5 Q 409.3 251.3 400.5 258 L 388.5 264 L 378.5 264 L 375.5 262 L 367.5 273 Q 360.1 273.6 356.5 278 L 344 281.5 Q 352.3 290.3 365.5 294 L 370.5 295 L 390.5 295 L 400.5 284 L 411.5 279 L 416.5 279 L 423 283.5 L 424 287.5 L 422 291.5 L 430.5 292 L 440 297 L 443 302.5 L 443 306.5 L 440 311.5 L 443 319.5 L 438.5 326 L 434 327.5 L 434 329.5 L 433 335 L 429.5 337 L 422.5 337 Q 420.3 341.8 413.5 342 L 408 338.5 L 406 331.5 L 403.5 329 L 399.5 329 L 390.5 325 L 384.5 327 L 367.5 328 L 344.5 323 Q 327.2 315.8 314.5 304 L 303 335 Q 315.7 340.5 324 351.5 L 329 361.5 L 330 372.5 Q 326.7 390.7 314.5 400 L 296 412.5 L 301 423.5 L 303 432.5 L 303 439.5 L 301 444.5 L 293.5 454 L 289.5 456 L 284.5 456 L 277.5 458 L 271 453.5 L 269.5 451 Q 264.4 451.6 263 448.5 Q 259.8 446.2 261 439.5 Q 265.3 435.3 264 425.5 L 258 414.5 L 258 404.5 L 264.5 397 L 268.5 395 Q 273.9 395.6 276 394 L 277.5 390 L 280.5 389 L 289 380.5 Q 291.8 377.8 291 371.5 L 285.5 368 L 263.5 361 L 262.5 362 L 252.5 362 L 241 360 L 233.5 369 Q 223.8 376.8 211 381.5 L 211 387.5 L 217 402.5 L 217 407.5 L 212.5 415 L 208 416 Q 207.8 422.4 202.5 425 Q 199.8 427.8 193.5 427 L 188.5 425 L 183.5 426 L 178 422.5 L 176.5 420 Q 170.3 420.7 169 416.5 L 168 409.5 L 172 402.5 L 172 387.5 L 173 386.5 L 174 375.5 Q 176.1 366.1 182.5 361 Q 185.2 358.2 191.5 359 L 199 352.5 L 201 348.5 Q 194 343.7 193 334 Q 171.5 330.8 161 315.5 Q 154.7 307.8 152 296.5 L 151 279.5 L 152 278.5 L 152 270.5 L 154 260.5 L 153 257.5 L 153 252.5 L 147.5 245 L 140.5 242 L 135.5 242 Q 126.9 243.9 122 249.5 Q 117.2 254.2 117 263.5 L 119.5 267 L 127 270 L 130 275.5 L 130 281.5 L 124.5 289 Q 120.2 292.2 112.5 292 Q 104.2 290.3 100 284.5 Q 95.3 279.7 94 271.5 L 94 259.5 Q 97.9 241.9 109.5 232 Q 116.4 225.4 126.5 222 Q 134.4 219.4 146.5 221 Q 159.6 224.4 167 233.5 Q 173 240.5 175 251.5 L 175 266.5 L 173 274.5 L 173 289.5 Q 176 301.5 184.5 308 Q 188.3 311.7 195.5 312 Q 201.1 300.1 210.5 292 L 234 270.5 L 240 260.5 L 241 249.5 L 224 211.5 L 220 196.5 L 219 176.5 L 224 153.5 Q 232.1 133.6 244 117.5 L 240.5 113 L 239.5 114 L 232.5 114 L 223.5 116 L 213.5 116 L 212.5 117 L 182.5 117 L 176 116 Q 177.7 128.1 174 135.5 L 162.5 149 Q 150.5 157.2 134 160 L 133 143.5 L 135 132.5 L 143.5 120 L 156 113.5 Q 153.3 110.7 146.5 112 L 133.5 115 L 124 119.5 L 126 129.5 Q 123.3 145.8 111.5 153 L 96.5 162 Q 92.8 156.8 94 146.5 L 96 139 Q 90.4 141.3 79.5 140 L 69 137 L 69 134.5 L 73 129.5 L 83.5 119 Q 91.1 112.1 104 110.5 Q 93.7 106.8 88 98.5 L 79 87.5 L 79 85.5 Q 90.1 74.1 114.5 76 Q 129.9 79.1 137 90.5 L 140.5 97 L 158 96.5 L 148 89.5 Q 142.2 83.8 144 70.5 Q 146.6 61.6 152.5 56 Q 163.4 58.6 169 66.5 L 173 73.5 L 174 83.5 L 172 90.5 L 168 95.5 L 195.5 96 L 196.5 95 L 218.5 94 L 219.5 93 L 226.5 93 L 239 91 Q 240.6 83 247.5 79 Q 250.4 76.4 256.5 77 L 261.5 78 Q 263.8 75.3 269.5 76 L 275.5 79 L 282.5 79 L 288.5 83 L 291.5 83 L 307.5 76 L 320.5 73 L 326.5 73 L 341.5 69 L 359.5 63 L 379.5 54 Z M 379 59 L 350 71 L 333 76 L 309 80 L 297 86 L 291 87 L 291 99 L 289 103 L 303 100 L 308 100 L 329 94 L 358 82 L 378 70 L 378 72 L 370 78 L 340 91 L 340 92 L 360 89 L 388 81 L 389 77 L 367 86 L 365 86 L 389 74 Q 390 64 385 61 L 372 68 L 370 68 L 383 60 L 379 59 Z M 155 60 Q 149 65 147 75 Q 147 83 151 88 Q 154 93 162 94 L 163 95 L 157 77 L 158 74 L 166 94 L 170 85 L 170 78 L 165 68 L 155 60 Z M 100 80 L 83 87 L 90 96 Q 97 105 111 109 L 125 109 L 136 104 Q 125 96 109 93 L 109 92 L 115 92 L 136 100 L 137 101 L 133 92 Q 128 84 119 81 Q 111 79 100 80 Z M 267 80 L 263 82 L 268 90 Q 270 98 266 102 L 270 104 L 273 103 L 277 97 Q 278 89 275 85 Q 273 80 267 80 Z M 251 82 L 248 84 L 243 91 L 251 92 L 252 89 L 254 92 L 255 101 L 262 102 L 265 97 L 265 92 L 262 85 Q 259 80 251 82 Z M 279 83 L 281 92 L 280 99 L 278 102 L 280 104 L 284 103 L 287 99 Q 289 90 286 87 Q 284 83 279 83 Z M 245 94 L 244 95 L 222 97 L 221 98 L 200 99 L 199 100 L 161 100 L 160 101 L 142 101 L 141 103 L 147 106 L 140 106 L 124 114 L 123 116 L 138 110 L 155 107 L 154 109 L 174 112 Q 181 113 184 110 L 183 113 L 222 112 L 223 111 L 251 108 L 255 106 L 251 101 Q 254 91 245 94 Z M 264 105 Q 262 108 257 106 L 254 110 Q 252 113 246 112 L 250 119 L 249 119 L 231 149 L 226 163 L 224 173 L 224 194 L 226 203 Q 231 222 241 237 L 246 252 L 244 263 L 233 279 L 222 288 L 205 305 L 197 321 L 197 335 L 201 343 L 205 345 L 210 338 Q 209 335 212 336 Q 210 348 202 356 L 196 361 L 199 363 L 193 368 Q 190 369 191 367 L 194 365 L 193 363 L 186 364 L 182 368 L 178 378 L 176 404 L 172 411 Q 171 415 175 416 L 181 415 L 185 408 Q 183 402 187 403 L 187 411 L 181 420 L 184 421 L 191 420 L 195 413 L 195 406 L 197 405 L 198 409 L 196 419 L 194 421 L 196 423 L 200 422 L 205 415 L 206 405 Q 204 403 207 402 L 208 404 L 209 412 L 212 410 L 212 401 Q 208 394 206 385 L 206 382 Q 202 383 203 380 Q 219 375 232 365 Q 240 358 244 346 Q 246 333 241 327 L 233 319 L 220 315 Q 213 313 212 316 Q 209 317 210 314 Q 214 311 224 312 Q 226 298 234 289 L 255 269 L 269 262 L 265 258 L 254 247 L 250 237 L 249 237 L 245 230 Q 244 222 246 219 L 239 216 Q 231 210 228 200 Q 226 181 235 173 Q 240 167 249 165 Q 255 164 258 167 L 261 144 L 269 123 L 268 120 Q 275 120 280 116 Q 284 113 285 107 L 282 108 L 277 106 L 272 108 L 268 108 L 264 105 Z M 106 114 L 94 117 L 86 122 L 74 135 L 80 136 Q 94 138 102 133 L 103 133 L 98 146 L 98 156 L 101 156 L 110 150 Q 120 144 122 130 L 121 119 Q 111 122 105 131 L 104 130 L 118 117 L 106 114 Z M 160 116 L 150 120 Q 140 127 137 141 L 137 155 L 139 156 L 162 145 L 169 137 L 173 124 L 172 117 L 164 123 Q 155 129 150 139 L 147 141 L 153 131 L 169 117 L 160 116 Z M 342 128 L 340 131 L 330 140 L 325 142 L 323 142 L 302 143 Q 287 147 278 156 Q 260 172 262 207 L 258 209 Q 249 215 249 229 L 251 228 Q 250 225 253 226 L 253 234 L 260 248 L 261 248 L 259 241 Q 258 226 265 219 L 273 213 L 271 203 L 273 188 L 281 174 Q 288 165 302 162 Q 315 161 322 167 Q 331 172 333 184 L 345 179 Q 359 177 366 183 Q 375 190 377 204 Q 377 222 369 233 L 361 241 L 359 241 L 362 250 L 362 257 L 358 267 L 351 275 L 362 270 L 363 268 L 367 265 L 368 267 L 372 259 L 372 247 L 371 246 L 371 242 Q 379 233 384 222 L 388 206 Q 388 184 379 173 Q 372 161 358 157 L 367 152 L 362 149 L 353 149 L 352 150 L 351 149 L 354 147 L 359 139 L 360 137 L 356 137 L 339 145 L 342 140 L 343 135 L 342 128 Z M 302 165 L 288 171 Q 277 180 274 196 L 274 206 L 276 214 L 271 217 Q 264 222 262 231 L 263 245 L 268 255 L 279 264 L 281 263 L 283 268 Q 289 276 301 279 L 312 279 L 319 277 L 319 279 L 330 279 L 340 277 L 351 271 Q 356 266 359 258 L 359 249 L 356 240 L 362 237 Q 371 228 374 214 L 374 203 L 369 191 Q 365 185 358 182 L 345 182 L 333 188 Q 331 180 326 175 Q 319 165 302 165 Z M 247 170 L 239 174 L 234 183 L 232 191 Q 232 202 237 209 Q 240 214 248 215 L 249 213 L 258 205 Q 259 189 252 183 L 247 184 L 244 187 L 242 193 L 244 201 L 244 202 L 240 197 Q 239 189 242 185 Q 244 179 253 180 L 259 188 L 262 176 Q 259 168 247 170 Z M 392 217 L 389 218 L 385 228 L 386 229 L 390 227 L 395 227 L 399 232 Q 400 241 396 245 L 390 250 L 387 250 L 390 248 L 396 240 Q 397 232 394 230 Q 386 229 384 233 L 375 243 L 377 252 L 376 258 L 381 260 Q 393 260 399 254 L 407 241 L 407 228 L 403 220 L 397 217 L 392 217 Z M 134 225 Q 121 227 114 234 Q 103 242 99 258 Q 97 274 103 282 L 112 287 L 122 286 L 126 280 L 125 276 L 113 267 L 113 258 L 118 248 Q 123 240 134 238 Q 144 237 150 241 Q 156 246 158 256 L 158 266 L 155 283 L 157 298 L 164 313 Q 173 326 192 329 L 194 318 L 182 311 L 173 302 L 170 296 L 168 285 L 170 264 L 171 263 Q 172 245 164 237 Q 155 224 134 225 Z M 269 264 L 250 276 L 233 295 L 228 305 L 227 313 Q 233 313 238 317 Q 247 323 249 336 L 249 344 L 248 345 Q 247 348 250 349 Q 260 350 267 348 L 278 342 Q 301 322 304 283 Q 293 283 287 277 L 281 270 L 272 264 L 269 264 Z M 314 282 L 307 283 Q 304 313 289 334 L 275 347 L 266 351 Q 261 350 260 352 L 246 351 L 245 356 L 249 357 L 269 357 L 274 355 L 277 356 L 272 359 L 293 367 L 296 372 Q 296 379 292 384 L 284 391 L 284 392 Q 286 391 285 394 L 279 396 L 283 396 L 277 403 Q 274 404 275 402 L 277 399 L 268 400 L 262 408 L 262 412 Q 267 419 269 430 Q 269 437 265 442 L 266 446 Q 267 448 273 447 L 278 440 Q 276 433 280 434 L 281 438 L 280 444 L 275 450 L 275 452 Q 277 454 283 453 L 288 446 L 288 438 L 290 437 L 291 440 Q 292 447 289 450 L 290 451 L 292 450 L 295 446 L 295 436 Q 298 435 297 439 L 299 439 L 298 429 L 292 415 Q 293 412 289 413 L 289 411 Q 301 406 311 398 Q 321 390 325 376 L 325 365 L 320 354 Q 312 344 301 338 L 293 344 L 291 345 L 303 324 Q 307 305 316 293 L 319 291 L 316 300 L 340 316 L 350 320 L 363 323 L 382 323 L 388 321 Q 392 322 391 319 L 399 324 L 406 325 Q 410 328 411 336 L 415 338 L 418 337 L 419 335 Q 419 326 414 323 Q 413 320 417 321 L 421 326 L 425 333 Q 429 334 430 332 L 429 323 L 422 316 L 420 313 L 428 316 L 431 321 L 435 323 L 438 321 L 437 314 Q 432 308 425 306 Q 421 307 422 304 L 429 304 L 435 307 L 438 307 L 439 305 L 438 302 L 429 296 L 413 296 L 412 303 L 405 309 Q 399 311 400 307 L 406 306 L 410 300 L 409 294 L 417 292 Q 420 291 419 286 L 415 283 Q 407 284 403 288 Q 397 291 395 298 Q 393 302 392 299 L 388 300 L 374 300 L 358 296 Q 346 291 338 282 L 334 283 L 317 283 L 314 282 Z " /><path fill="rgb(0,0,0)" stroke="rgb(0,0,0)" stroke-width="0" opacity="1" d="M 309.5 83 L 313 83.5 L 303 87 Q 301.8 84 305.5 85 L 309.5 83 Z " /><path fill="rgb(0,0,0)" stroke="rgb(0,0,0)" stroke-width="0" opacity="1" d="M 315.5 92 L 318 92.5 Q 312.3 96.8 302.5 97 L 303.5 95 L 315.5 92 Z " /><path fill="rgb(0,0,0)" stroke="rgb(0,0,0)" stroke-width="0" opacity="1" d="M 226.5 101 L 231 101.5 L 229.5 103 L 219.5 105 L 204.5 105 L 204.5 104 L 218.5 103 L 226.5 101 Z " /><path fill="rgb(0,0,0)" stroke="rgb(0,0,0)" stroke-width="0" opacity="1" d="M 249.5 104 L 252 104.5 L 247.5 107 L 249.5 104 Z " /><path fill="rgb(0,0,0)" stroke="rgb(0,0,0)" stroke-width="0" opacity="1" d="M 263 108 Q 267.5 106.3 266 111.5 L 265 114 L 263 114 L 263 108 Z " /><path fill="rgb(0,0,0)" stroke="rgb(0,0,0)" stroke-width="0" opacity="1" d="M 303.5 174 Q 309.9 174.1 312 178.5 Q 312.8 180.8 310.5 180 L 302.5 178 L 297 180 L 299.5 176 L 303.5 174 Z " /><path fill="rgb(0,0,0)" stroke="rgb(0,0,0)" stroke-width="0" opacity="1" d="M 298.5 188 Q 308.2 186.8 311 192.5 Q 314.8 197.2 313 207.5 Q 310.4 214.9 304.5 219 L 297.5 220 L 286 216 Q 284.9 213.3 287.5 214 L 287 212.5 L 286 204.5 L 289 195.5 L 294.5 190 L 298.5 188 Z M 299 192 L 295 194 L 289 203 L 290 212 L 291 203 L 298 197 L 303 197 L 307 203 L 306 213 L 302 218 L 305 217 Q 310 213 311 206 Q 312 199 309 196 Q 307 191 299 192 Z M 301 201 Q 298 202 299 206 L 302 207 Q 304 206 303 203 L 301 201 Z " /><path fill="rgb(0,0,0)" stroke="rgb(0,0,0)" stroke-width="0" opacity="1" d="M 353.5 193 Q 360.8 191.8 362 196.5 L 364 203 Q 361.3 204.1 362 201.5 L 357.5 197 L 352 194.5 L 353.5 193 Z " /><path fill="rgb(0,0,0)" stroke="rgb(0,0,0)" stroke-width="0" opacity="1" d="M 344.5 205 Q 354.6 203.4 357 209.5 Q 360 213.5 359 221.5 Q 356.9 229.9 350.5 234 Q 348.8 236.8 343.5 236 Q 336.9 235.1 334 230.5 L 332 222.5 L 336 211.5 L 340.5 207 L 344.5 205 Z M 346 208 L 343 209 L 337 216 L 341 213 L 349 214 L 352 221 L 350 229 L 345 233 L 345 234 L 349 233 Q 354 230 356 223 Q 357 215 354 212 Q 352 208 346 208 Z M 346 217 Q 341 219 344 221 Q 343 223 347 222 L 348 219 L 346 217 Z " /><path fill="rgb(0,0,0)" stroke="rgb(0,0,0)" stroke-width="0" opacity="1" d="M 310.5 222 L 318.5 222 L 328 228.5 L 329 234.5 L 326.5 236 L 327 234.5 Q 327.6 229.4 324.5 228 Q 320.2 223.8 311.5 224 L 307 226 Q 308 229 305 228 L 308.5 223 L 310.5 222 Z " /><path fill="rgb(0,0,0)" stroke="rgb(0,0,0)" stroke-width="0" opacity="1" d="M 309 228 Q 312.8 227.3 314 230.5 Q 315.9 235.9 312.5 235 L 310 234 L 309 228 Z " /><path fill="rgb(0,0,0)" stroke="rgb(0,0,0)" stroke-width="0" opacity="1" d="M 287.5 229 L 292 230 Q 293.1 233.3 289 232 L 289 236.5 L 296.5 247 L 310.5 255 L 325.5 256 Q 332.3 254.8 336 250.5 Q 336.7 247.9 334 249 L 334 247 Q 338.7 246.3 340 250.5 L 341 255 L 339 255 Q 340.1 252.3 337.5 253 Q 333.6 258.6 324.5 259 L 313.5 269 L 303.5 271 Q 296.5 269.4 293 264.5 L 290 258.5 L 289 242.5 L 286 236.5 L 286 233 L 281.5 234 L 284.5 230 L 287.5 229 Z M 293 255 L 295 263 Q 298 267 304 268 L 311 267 L 310 262 L 305 259 L 305 262 L 303 260 Q 301 254 293 255 Z " /><path fill="rgb(0,0,0)" stroke="rgb(0,0,0)" stroke-width="0" opacity="1" d="M 320.5 233 Q 324.3 232.3 325 234.5 Q 323.8 238.3 317.5 237 L 320.5 233 Z " /></svg>