<svg width="627" height="627" preserveAspectRatio="xMidYMid meet" viewBox="0 0 512 512" version="1.1" xmlns="http://www.w3.org/2000/svg" ><path fill="rgb(255,255,255)" stroke="rgb(255,255,255)" stroke-width="0" opacity="1" d="M 0 0 L 512 0 L 512 512 L 0 512 L 0 0 Z M 149 120 L 136 125 L 125 137 L 117 153 L 112 171 Q 114 176 111 175 L 108 179 L 107 180 Q 98 179 95 182 L 87 179 L 71 180 L 69 177 L 59 172 Q 51 172 47 176 Q 36 186 32 203 L 32 212 L 36 221 Q 40 226 46 227 Q 45 234 49 238 Q 51 241 59 240 L 66 232 L 80 238 L 81 240 L 82 247 L 90 252 L 94 251 L 99 244 L 107 246 L 86 259 L 80 255 L 75 255 L 70 260 L 69 265 L 63 273 L 63 280 L 67 287 L 78 294 L 98 299 L 110 299 L 111 298 L 123 297 L 137 293 L 154 286 L 155 286 Q 146 297 142 314 L 130 320 Q 122 324 120 333 L 121 339 Q 122 343 129 342 L 134 347 L 146 348 L 149 350 L 160 350 L 174 346 L 179 343 L 185 337 Q 188 333 187 326 L 197 310 L 213 318 L 228 323 L 236 324 L 237 326 L 236 328 L 226 333 Q 219 337 216 345 L 217 353 L 224 357 Q 227 356 226 359 L 232 362 L 242 362 L 247 365 L 263 363 L 275 357 L 281 350 L 287 333 L 314 333 L 315 332 L 324 332 L 337 329 L 343 329 L 344 329 Q 338 333 336 342 L 337 347 L 341 350 L 348 351 L 355 356 Q 361 358 363 355 L 368 357 L 382 356 L 397 349 Q 403 345 406 337 L 406 316 Q 429 309 445 295 Q 458 283 467 267 L 475 247 L 479 227 L 479 201 L 476 187 Q 470 167 458 155 Q 441 136 413 129 L 401 129 L 399 130 L 396 134 L 397 140 L 413 149 Q 415 150 413 152 L 415 160 Q 418 164 426 164 L 430 172 L 427 177 Q 426 185 431 188 L 431 195 L 424 197 Q 418 200 420 210 Q 416 211 416 216 L 410 211 L 402 211 L 394 215 L 392 208 Q 390 202 384 201 L 375 201 L 368 204 L 364 194 L 358 189 L 348 189 L 340 193 L 337 185 Q 333 179 326 178 Q 315 179 311 186 L 308 182 Q 305 176 299 174 L 288 175 L 279 183 L 277 181 L 270 175 Q 261 174 257 177 L 253 181 L 248 177 L 250 173 Q 251 164 248 161 Q 243 153 233 152 L 226 140 Q 220 130 208 127 L 196 127 Q 187 129 183 134 L 171 133 L 168 130 Q 163 120 149 120 Z M 58 355 L 57 356 L 47 356 L 46 357 Q 40 355 41 359 L 74 359 L 75 360 L 87 361 L 98 366 Q 89 367 85 373 L 86 375 L 92 378 L 105 381 L 124 381 L 125 380 L 145 380 L 162 384 L 176 389 L 187 391 L 196 391 L 197 392 L 223 391 L 224 390 L 242 388 L 251 385 L 276 380 L 296 379 L 297 378 L 320 379 L 340 383 L 354 384 L 355 385 L 391 385 L 392 384 L 401 384 L 427 379 L 433 376 L 434 373 L 423 367 L 435 361 L 445 359 L 453 359 L 454 358 Q 458 357 460 359 L 470 359 L 470 357 L 461 355 L 442 356 L 423 362 Q 419 363 419 368 L 422 370 L 430 374 L 416 378 L 411 378 L 405 380 L 397 380 L 396 381 L 387 381 L 386 382 L 361 382 L 360 381 L 351 381 L 330 377 L 324 377 L 323 376 L 315 376 L 314 375 L 280 376 L 239 385 L 220 387 L 219 388 L 190 388 L 170 384 L 153 378 L 141 377 L 140 376 L 120 377 L 119 378 L 102 377 L 94 375 L 90 373 L 101 368 L 102 365 L 98 361 L 89 358 L 78 357 L 77 356 L 58 355 Z " /><path fill="rgb(255,255,255)" stroke="rgb(255,255,255)" stroke-width="0" opacity="1" d="M 145.5 126 Q 159.5 124.5 164 132.5 L 166 137 Q 161.9 135.7 163 139 L 165.5 138 L 179.5 138 L 179 139.5 L 176 146 L 179 144.5 L 183.5 139 L 196.5 132 L 206.5 132 Q 215.7 134.8 221 141.5 Q 228.5 149.9 228 165 Q 231.5 166.1 230 158.5 L 231 158.5 Q 238.9 168.9 241 184 Q 244.7 185.3 243 179.5 L 242.5 178 Q 251.5 185.5 256 197.5 L 250.5 193 Q 244.3 191.8 243 195.5 L 242 202.5 Q 243.9 210.2 249.5 214 Q 254.3 213.8 256 210.5 L 257.5 207 L 258.5 213 Q 262.4 209.4 261 200.5 L 259 194.5 L 267.5 193 L 293.5 193 L 294.5 194 L 315.5 196 L 331.5 200 L 354.5 208 L 390.5 225 L 404.5 229 L 414.5 229 Q 429.2 226.2 437 216.5 Q 444.7 207.7 448 194.5 L 448 175.5 Q 445.8 164.7 439.5 158 L 439 160.5 Q 445.8 170.2 445 187.5 Q 442.5 189 444 194.5 L 438 208.5 L 428.5 219 L 419 223 Q 418.3 216.5 422.5 214 L 426 215 L 425 203.5 Q 426.8 200.3 431.5 200 L 433.5 201 L 437 191.5 L 437 186.5 L 434 185 L 432 178.5 L 436 172.5 L 431 161.5 L 428.5 159 Q 421.3 159.7 419 155.5 Q 417.8 150.7 420 149.5 L 414.5 144 L 401 135.5 L 402.5 134 L 411.5 134 Q 441.9 141.1 458 162.5 Q 466.5 173.5 471 188.5 L 474 204.5 L 474 220.5 L 471 234.5 L 465 248.5 Q 455.8 264.8 441.5 276 Q 424.9 289.9 398.5 294 Q 394.5 283 387.5 275 L 386 275.5 L 398 305.5 L 401 318.5 L 401 334.5 Q 399.2 341.7 393.5 345 L 380.5 351 L 368.5 352 Q 366 351 367 346.5 L 371.5 340 Q 374.1 340.7 373 338 Q 367.4 338.1 365 342.5 L 363 350 L 356.5 351 L 352 348.5 L 352 343.5 L 358 335 L 355.5 335 L 351 338.5 L 348 346 Q 343.4 347.3 342 344.5 Q 342.3 333.8 349.5 330 L 357.5 324 Q 361.8 327.7 371.5 326 L 372.5 324 Q 354.5 323 347 311.5 Q 339.5 303.5 340 287.5 Q 341.9 274.9 350 268.5 L 348.5 268 L 341 274.5 L 336 286.5 L 336 296.5 L 337 302 L 327.5 302 L 326.5 303 L 303.5 303 L 302.5 302 L 292.5 302 L 291 300.5 Q 288.3 283.3 276.5 275 Q 274.3 274.3 275 276.5 Q 282.3 283.7 286 294.5 L 288 303.5 L 288 311.5 L 283 331.5 L 276 347.5 L 271.5 353 Q 263 359.5 248.5 360 L 244 357.5 Q 244 349 250 346.5 Q 248.8 343.8 247.5 346 L 243 348 L 240 353.5 L 240 357 Q 233.1 358 230 356 L 230 350.5 L 237 341 Q 231.1 341.9 228 346.5 L 226 352 L 221 349.5 Q 222 340.5 228.5 337 L 240 331.5 L 248 310 L 244 311 L 240 299.5 L 240 288.5 L 242 281.5 L 239 283.5 L 236.5 288 L 228 280.5 L 218 264.5 Q 228.2 259.2 235 250.5 L 241 239.5 L 242 230.5 L 240 231.5 Q 236.4 246.9 225.5 255 Q 214.7 264.7 198.5 269 L 169.5 274 L 128.5 290 L 115.5 293 L 100.5 294 L 81.5 290 Q 73.4 287.1 69 280.5 L 68 273.5 L 69 271 L 79.5 277 L 87.5 279 L 113.5 279 Q 157.9 267.9 183 237.5 L 196.5 219 L 206.5 225 L 207 223.5 L 202.5 218 Q 198.3 213.7 188.5 215 L 185 216 Q 183.9 219.5 191.5 218 L 190 220.5 L 187.5 224 L 170.5 233 L 151.5 234 Q 149.8 231.2 143.5 233 L 123.5 240 L 101.5 240 L 86.5 236 L 66.5 227 L 50.5 224 L 41 219 Q 37 214.8 37 205.5 L 39 196.5 L 49.5 180 Q 52.7 176.2 61.5 178 L 67 182.5 L 68.5 187 L 71.5 185 L 89.5 185 L 99 192.5 L 101 200.5 L 100 203 L 103 201.5 L 104 195.5 L 99 186.5 L 100.5 185 L 111.5 185 Q 122.3 186.8 129 192 L 127.5 189 L 121 184.5 L 129.5 183 Q 131.3 185.8 137.5 184 L 148.5 189 L 149 187.5 L 141 182.5 Q 146.2 177.7 148 169.5 L 148 157.5 L 142.5 150 L 133.5 149 L 125 156.5 Q 119.2 163.2 121 177.5 L 122 181 Q 119.9 182.6 114.5 182 L 113 179.5 L 117 176.5 L 120 159.5 L 124 149.5 L 130.5 141 L 137.5 137 L 144.5 137 L 151 140 Q 150.4 134.6 145.5 132 Q 137.4 130.4 134.5 134 L 137.5 130 L 145.5 126 Z M 197 141 L 192 143 L 188 148 L 194 146 Q 202 145 207 149 L 214 158 Q 213 160 216 159 L 214 150 L 204 141 L 197 141 Z M 190 157 L 184 160 L 177 168 L 173 181 Q 173 190 177 195 L 183 199 Q 185 198 184 201 L 183 203 L 194 199 L 202 199 L 204 199 L 210 199 L 203 196 Q 209 192 210 184 Q 212 169 206 163 L 198 157 L 190 157 Z M 51 184 Q 46 186 47 194 Q 47 197 52 196 Q 55 194 54 187 L 51 184 Z M 83 194 L 81 195 L 75 202 L 78 206 L 85 205 L 89 201 L 89 197 Q 88 193 83 194 Z M 282 210 L 278 212 L 272 219 L 274 225 L 282 229 L 287 230 L 292 230 L 298 228 L 301 224 L 298 216 L 290 210 L 282 210 Z M 319 215 L 313 218 Q 308 220 309 228 L 314 232 L 323 235 Q 331 236 335 233 L 337 230 L 336 224 Q 332 214 319 215 Z M 358 222 L 350 225 L 346 230 Q 345 234 348 236 L 360 241 L 370 240 L 373 236 L 371 230 Q 367 223 358 222 Z M 443 222 L 439 224 L 435 229 Q 434 235 438 236 Q 443 237 445 234 Q 449 232 448 225 Q 447 221 443 222 Z M 390 235 L 388 236 L 384 241 L 385 245 Q 388 249 395 250 L 404 249 Q 407 248 406 242 Q 403 233 390 235 Z M 422 235 L 419 236 L 413 243 L 414 247 L 419 249 Q 428 249 431 244 L 430 237 L 422 235 Z " /><path fill="rgb(255,255,255)" stroke="rgb(255,255,255)" stroke-width="0" opacity="1" d="M 136.5 152 Q 142.1 152.5 144 156.5 L 145 162.5 L 144 162.5 Q 144.8 160.3 142.5 161 L 137.5 159 L 130 164.5 L 127 174.5 L 128 180 Q 124.3 181.5 125 178.5 L 124 177.5 L 124 166.5 Q 126.3 158.8 131.5 154 L 136.5 152 Z " /><path fill="rgb(255,255,255)" stroke="rgb(255,255,255)" stroke-width="0" opacity="1" d="M 235.5 158 Q 241.3 159.3 244 163.5 L 245 171.5 L 244 174 Q 241 175.3 242 171.5 L 235.5 158 Z " /><path fill="rgb(255,255,255)" stroke="rgb(255,255,255)" stroke-width="0" opacity="1" d="M 189.5 161 Q 201.8 159.8 205 167.5 Q 207.6 170.4 207 176.5 L 206 176.5 L 206 174.5 L 201.5 170 L 194.5 169 Q 188.4 170.4 186 175.5 Q 182.2 180.2 184 190.5 L 188 198 Q 181.6 197.7 179 192.5 L 177 188.5 L 176 181.5 L 180 168.5 L 185.5 163 L 189.5 161 Z " /><path fill="rgb(255,255,255)" stroke="rgb(255,255,255)" stroke-width="0" opacity="1" d="M 139.5 164 L 143 165.5 Q 144 170 141.5 171 Q 137.1 172.5 138 169.5 L 137 167.5 L 139.5 164 Z " /><path fill="rgb(255,255,255)" stroke="rgb(255,255,255)" stroke-width="0" opacity="1" d="M 198.5 175 Q 202.3 174.3 203 176.5 L 204 179.5 L 201.5 183 Q 196.1 184.9 197 181.5 L 196 177.5 L 198.5 175 Z " /><path fill="rgb(255,255,255)" stroke="rgb(255,255,255)" stroke-width="0" opacity="1" d="M 291.5 179 Q 301.9 177.6 304 184.5 L 306 190.5 L 304.5 190 L 281 188.5 L 287.5 181 L 291.5 179 Z " /><path fill="rgb(255,255,255)" stroke="rgb(255,255,255)" stroke-width="0" opacity="1" d="M 261.5 180 L 268.5 180 L 272 182 L 276 188.5 L 259.5 190 L 258.5 191 L 255 185.5 L 261.5 180 Z " /><path fill="rgb(255,255,255)" stroke="rgb(255,255,255)" stroke-width="0" opacity="1" d="M 321.5 184 Q 329.5 182.5 332 186.5 L 336 196.5 L 332.5 197 L 325.5 194 L 311 191.5 L 321.5 184 Z " /><path fill="rgb(255,255,255)" stroke="rgb(255,255,255)" stroke-width="0" opacity="1" d="M 349.5 194 Q 357.1 193.1 360 196 Q 363.2 199.5 363 207.5 L 361.5 207 Q 352.9 201.7 342 200 L 344.5 196 L 349.5 194 Z " /><path fill="rgb(255,255,255)" stroke="rgb(255,255,255)" stroke-width="0" opacity="1" d="M 247.5 195 L 253 199.5 L 254 207.5 L 253 210 L 250.5 211 Q 244.6 207.4 245 197.5 L 247.5 195 Z " /><path fill="rgb(255,255,255)" stroke="rgb(255,255,255)" stroke-width="0" opacity="1" d="M 375.5 206 Q 385.6 204.4 388 210.5 L 390 220 L 369 210.5 L 375.5 206 Z " /><path fill="rgb(255,255,255)" stroke="rgb(255,255,255)" stroke-width="0" opacity="1" d="M 282.5 213 Q 294 212.1 297 219.5 L 298 222.5 L 297 225 L 288.5 227 Q 287.3 224.8 282.5 226 L 275 220.5 L 279.5 214 L 282.5 213 Z " /><path fill="rgb(255,255,255)" stroke="rgb(255,255,255)" stroke-width="0" opacity="1" d="M 402.5 216 Q 411.5 214.5 413 220.5 L 415 223.5 L 413.5 225 L 405.5 225 L 395 221.5 L 402.5 216 Z " /><path fill="rgb(255,255,255)" stroke="rgb(255,255,255)" stroke-width="0" opacity="1" d="M 320.5 218 Q 329.6 218.4 333 224.5 L 334 229.5 Q 331.1 233.1 323.5 232 L 318.5 231 L 312 226.5 L 313 221 L 320.5 218 Z " /><path fill="rgb(255,255,255)" stroke="rgb(255,255,255)" stroke-width="0" opacity="1" d="M 442.5 225 Q 447.1 223.7 445 229.5 Q 443.6 234 438 233 Q 436.8 227.5 440.5 226 L 442.5 225 Z " /><path fill="rgb(255,255,255)" stroke="rgb(255,255,255)" stroke-width="0" opacity="1" d="M 353.5 226 Q 364.6 224.4 368 230.5 L 370 235.5 Q 367.8 239.3 360.5 238 L 353.5 236 L 349 231.5 L 351.5 227 L 353.5 226 Z " /><path fill="rgb(255,255,255)" stroke="rgb(255,255,255)" stroke-width="0" opacity="1" d="M 51 228 L 60 229 Q 60.8 233.7 56.5 235 Q 52.8 235.8 52 233.5 L 51 228 Z " /><path fill="rgb(255,255,255)" stroke="rgb(255,255,255)" stroke-width="0" opacity="1" d="M 181.5 232 L 180 234.5 L 168.5 247 Q 153.4 260.4 133.5 269 Q 132.4 262.6 127.5 260 L 122.5 259 L 119 261 Q 115 265.1 116 274 L 112.5 275 L 87.5 275 L 83 274 Q 81.9 271.3 84.5 272 L 87 267.5 L 86 264.5 L 102.5 255 L 115.5 245 Q 126.5 244.5 134.5 241 L 139.5 248 L 145.5 249 L 150 245.5 L 153 238 L 166.5 238 Q 175.5 236.5 181.5 232 Z " /><path fill="rgb(255,255,255)" stroke="rgb(255,255,255)" stroke-width="0" opacity="1" d="M 143.5 237 L 149 237 L 149 239.5 L 145.5 245 Q 141 246 140 243.5 L 138 239.5 L 143.5 237 Z " /><path fill="rgb(255,255,255)" stroke="rgb(255,255,255)" stroke-width="0" opacity="1" d="M 390.5 238 Q 400.6 236.4 403 242.5 Q 404.5 246.9 401.5 246 Q 400 248.5 394.5 247 L 387 242.5 L 388.5 239 L 390.5 238 Z " /><path fill="rgb(255,255,255)" stroke="rgb(255,255,255)" stroke-width="0" opacity="1" d="M 421.5 238 L 428 239 Q 429 243.7 425.5 245 L 418.5 246 L 416 245 Q 415.3 240.3 419.5 239 L 421.5 238 Z " /><path fill="rgb(255,255,255)" stroke="rgb(255,255,255)" stroke-width="0" opacity="1" d="M 85.5 239 L 95 242.5 L 92.5 246 L 89.5 247 L 86 243.5 L 85.5 239 Z " /><path fill="rgb(255,255,255)" stroke="rgb(255,255,255)" stroke-width="0" opacity="1" d="M 469.5 243 L 470 244.5 Q 464.2 264.7 452.5 279 L 452 276.5 L 453 275.5 L 453 267.5 Q 463.6 257.6 469.5 243 Z " /><path fill="rgb(255,255,255)" stroke="rgb(255,255,255)" stroke-width="0" opacity="1" d="M 76.5 260 Q 80.5 259.5 81 262.5 L 83 268.5 L 77.5 272 L 74 269.5 Q 72.8 262.3 76.5 260 Z " /><path fill="rgb(255,255,255)" stroke="rgb(255,255,255)" stroke-width="0" opacity="1" d="M 123.5 263 Q 128.5 262.5 129 266.5 L 130 271 L 119 273 L 120 267.5 L 123.5 263 Z " /><path fill="rgb(255,255,255)" stroke="rgb(255,255,255)" stroke-width="0" opacity="1" d="M 214.5 266 Q 217.8 264.9 217 267.5 L 223 277.5 Q 215.7 285.7 203.5 289 L 198.5 290 L 182.5 290 Q 175.1 288.9 172 283.5 L 169 278 L 198.5 273 L 214.5 266 Z " /><path fill="rgb(255,255,255)" stroke="rgb(255,255,255)" stroke-width="0" opacity="1" d="M 449.5 271 L 450 278.5 L 449 282.5 L 442.5 290 L 430.5 299 L 430 297.5 Q 433.9 293.4 433 284.5 L 435.5 282 Q 443.9 277.9 449.5 271 Z " /><path fill="rgb(255,255,255)" stroke="rgb(255,255,255)" stroke-width="0" opacity="1" d="M 224.5 279 L 232.5 288 L 236 290.5 L 236 299.5 L 233.5 302 L 225.5 307 L 210.5 310 Q 192.1 304.9 181 292.5 L 184.5 292 L 185.5 293 L 195.5 293 L 210.5 289 L 224.5 279 Z " /><path fill="rgb(255,255,255)" stroke="rgb(255,255,255)" stroke-width="0" opacity="1" d="M 164.5 281 L 167 282.5 Q 172.3 292.7 181.5 299 L 192 306.5 L 182 324.5 L 181 333.5 L 175.5 339 Q 166.1 345.6 149.5 345 Q 147 344 148 339.5 L 154 331 Q 147.6 331.3 145 336.5 L 143 343 Q 136.5 344.3 134 340.5 Q 134 331.5 140.5 329 L 142 328.5 L 139.5 327 L 132 332.5 L 129.5 338 L 125 335.5 Q 126.4 327.4 132.5 324 L 146 318 Q 151.3 296 164.5 281 Z " /><path fill="rgb(255,255,255)" stroke="rgb(255,255,255)" stroke-width="0" opacity="1" d="M 430.5 285 L 431 288.5 Q 429.4 297.4 424.5 303 L 405.5 311 L 406 309.5 L 411 297.5 L 411 293 Q 422.5 291.4 430.5 285 Z " /><path fill="rgb(255,255,255)" stroke="rgb(255,255,255)" stroke-width="0" opacity="1" d="M 408.5 294 L 409 295.5 L 403.5 309 L 399 296.5 L 408.5 294 Z " /><path fill="rgb(255,255,255)" stroke="rgb(255,255,255)" stroke-width="0" opacity="1" d="M 236.5 302 L 242 314.5 L 238.5 320 L 221.5 316 L 213 312.5 L 224.5 310 L 236.5 302 Z " /><path fill="rgb(255,255,255)" stroke="rgb(255,255,255)" stroke-width="0" opacity="1" d="M 292 304 L 298.5 305 L 312 305 Q 310.4 319.7 300.5 327 L 298.5 328 L 289 328 L 292 315.5 L 292 304 Z " /><path fill="rgb(255,255,255)" stroke="rgb(255,255,255)" stroke-width="0" opacity="1" d="M 331.5 304 L 339 304 L 339 309.5 Q 335.9 319.9 328.5 326 L 303.5 328 L 308 322.5 Q 313.5 315.8 314 305 L 330.5 305 L 331.5 304 Z " /><path fill="rgb(255,255,255)" stroke="rgb(255,255,255)" stroke-width="0" opacity="1" d="M 341.5 310 L 349.5 320 L 351 320.5 L 349.5 322 L 333.5 325 L 336 321.5 L 341.5 310 Z " /><path fill="rgb(0,0,0)" stroke="rgb(0,0,0)" stroke-width="0" opacity="1" d="M 148.5 120 Q 162.8 120.2 168 129.5 L 170.5 133 L 182.5 134 Q 187.3 128.8 195.5 127 L 207.5 127 Q 219.7 130.3 226 139.5 L 232.5 152 Q 243.4 153.1 248 160.5 Q 251.3 164.2 250 172.5 L 248 176.5 L 252.5 181 L 256.5 177 Q 260.5 173.5 269.5 175 L 277 180.5 L 278.5 183 L 287.5 175 L 298.5 174 Q 305.4 175.6 308 181.5 L 310.5 186 Q 314.9 178.9 325.5 178 Q 333.3 179.2 337 184.5 L 340 193 L 347.5 189 L 357.5 189 L 364 193.5 L 368 204 L 374.5 201 L 383.5 201 Q 389.6 202.4 392 207.5 L 394 215 L 401.5 211 L 409.5 211 L 415.5 216 Q 415.9 210.9 420 209.5 Q 418.3 199.8 423.5 197 L 431 195 L 431 187.5 Q 425.7 185.3 427 176.5 L 430 171.5 L 425.5 164 Q 418 164 415 159.5 L 413 151.5 Q 415.3 150.3 412.5 149 L 397 139.5 L 396 133.5 L 398.5 130 L 400.5 129 L 412.5 129 Q 441.3 135.7 458 154.5 Q 470.2 167.3 476 186.5 L 479 200.5 L 479 226.5 L 475 246.5 L 467 266.5 Q 458.1 283.1 444.5 295 Q 428.7 309.4 406 316 L 406 336.5 Q 403.1 344.6 396.5 349 L 381.5 356 L 367.5 357 L 362.5 355 Q 360.8 357.8 354.5 356 L 347.5 351 L 340.5 350 L 337 346.5 L 336 341.5 Q 337.7 333.7 343 329.5 L 336.5 329 L 330.5 331 L 314.5 332 L 313.5 333 L 287 333 L 281 349.5 L 274.5 357 L 262.5 363 L 246.5 365 L 241.5 362 L 231.5 362 L 226 358.5 Q 226.8 355.9 223.5 357 L 217 352.5 L 216 344.5 Q 219 337 225.5 333 L 236 327.5 L 237 325.5 L 235.5 324 L 227.5 323 L 212.5 318 L 196.5 310 L 187 325.5 Q 187.9 332.9 185 336.5 L 178.5 343 L 173.5 346 L 159.5 350 L 148.5 350 L 145.5 348 L 133.5 347 L 128.5 342 Q 122.3 342.7 121 338.5 L 120 332.5 Q 122.4 323.9 129.5 320 L 142 313.5 L 145 303.5 L 154 286 L 136.5 293 L 122.5 297 L 110.5 298 L 109.5 299 L 97.5 299 L 77.5 294 L 67 286.5 L 63 279.5 L 63 272.5 L 69 264.5 L 70 259.5 L 74.5 255 L 79.5 255 L 85.5 259 L 107 245.5 L 99 244 L 93.5 251 L 89.5 252 L 82 246.5 L 81 239.5 L 79.5 238 L 65.5 232 L 58.5 240 Q 51.3 241.3 49 237.5 Q 44.9 234.3 46 227 Q 39.7 225.9 36 220.5 L 32 211.5 L 32 202.5 Q 36.4 186.4 46.5 176 Q 50.5 172 58.5 172 L 69 177 L 70.5 180 L 86.5 179 L 94.5 182 Q 98.2 178.7 106.5 180 L 108 178.5 L 110.5 175 Q 113.9 175.9 112 170.5 L 117 152.5 L 125 136.5 L 135.5 125 L 148.5 120 Z M 146 126 L 138 130 L 136 133 Q 139 131 146 132 Q 150 135 151 140 L 145 137 L 138 137 L 131 141 L 124 150 L 120 160 L 117 177 L 113 180 L 115 182 Q 120 183 122 181 L 121 178 Q 119 163 125 157 L 134 149 L 143 150 L 148 158 L 148 170 Q 146 178 141 183 L 149 188 L 149 189 L 138 184 Q 131 186 130 183 L 121 185 L 128 189 L 129 192 Q 122 187 112 185 L 101 185 L 99 187 L 104 196 L 103 202 L 100 203 L 101 201 L 99 193 L 90 185 L 72 185 L 69 187 L 67 183 L 62 178 Q 53 176 50 180 L 39 197 L 37 206 Q 37 215 41 219 L 51 224 L 67 227 L 87 236 L 102 240 L 124 240 L 144 233 Q 150 231 152 234 L 171 233 L 188 224 L 190 221 L 192 218 Q 184 220 185 216 L 189 215 Q 198 214 203 218 L 207 224 L 207 225 L 197 219 L 183 238 Q 158 268 114 279 L 88 279 L 80 277 L 69 271 L 68 274 L 69 281 Q 73 287 82 290 L 101 294 L 116 293 L 129 290 L 170 274 L 199 269 Q 215 265 226 255 Q 236 247 240 232 L 242 231 L 241 240 L 235 251 Q 228 259 218 265 L 228 281 L 237 288 L 239 284 L 242 282 L 240 289 L 240 300 L 244 311 L 248 310 L 240 332 L 229 337 Q 222 340 221 350 L 226 352 L 228 347 Q 231 342 237 341 L 230 351 L 230 356 Q 233 358 240 357 L 240 354 L 243 348 L 248 346 Q 249 344 250 347 Q 244 349 244 358 L 249 360 Q 263 360 272 353 L 276 348 L 283 332 L 288 312 L 288 304 L 286 295 Q 282 284 275 277 Q 274 274 277 275 Q 288 283 291 301 L 293 302 L 303 302 L 304 303 L 327 303 L 328 302 L 337 302 L 336 297 L 336 287 L 341 275 L 349 268 L 350 269 Q 342 275 340 288 Q 340 303 347 312 Q 355 323 373 324 L 372 326 Q 362 328 358 324 L 350 330 Q 342 334 342 345 Q 343 347 348 346 L 351 339 L 356 335 L 358 335 L 352 344 L 352 349 L 357 351 L 363 350 L 365 343 Q 367 338 373 338 Q 374 341 372 340 L 367 347 Q 366 351 369 352 L 381 351 L 394 345 Q 399 342 401 335 L 401 319 L 398 306 L 386 276 L 388 275 Q 394 283 399 294 Q 425 290 442 276 Q 456 265 465 249 L 471 235 L 474 221 L 474 205 L 471 189 Q 467 173 458 163 Q 442 141 412 134 L 403 134 L 401 136 L 415 144 L 420 150 Q 418 151 419 156 Q 421 160 429 159 L 431 162 L 436 173 L 432 179 L 434 185 L 437 187 L 437 192 L 434 201 L 432 200 Q 427 200 425 204 L 426 215 L 423 214 Q 418 216 419 223 L 429 219 L 438 209 L 444 195 Q 443 189 445 188 Q 446 170 439 161 L 440 158 Q 446 165 448 176 L 448 195 Q 445 208 437 217 Q 429 226 415 229 L 405 229 L 391 225 L 355 208 L 332 200 L 316 196 L 295 194 L 294 193 L 268 193 L 259 195 L 261 201 Q 262 209 259 213 L 258 207 L 256 211 Q 254 214 250 214 Q 244 210 242 203 L 243 196 Q 244 192 251 193 L 255 197 Q 253 188 248 184 L 243 180 Q 245 185 241 184 Q 239 169 231 159 L 230 159 Q 232 166 228 165 Q 228 150 221 142 Q 216 135 207 132 L 197 132 L 184 139 L 179 145 L 176 146 L 179 140 L 180 138 L 166 138 L 163 139 Q 162 136 166 137 L 164 133 Q 160 124 146 126 Z M 137 152 L 132 154 Q 126 159 124 167 L 124 178 L 125 179 Q 124 182 128 180 L 127 175 L 130 165 L 138 159 L 143 161 Q 145 160 144 163 L 145 163 L 144 157 Q 142 152 137 152 Z M 237 159 L 242 172 Q 241 175 244 174 L 245 172 L 244 164 Q 242 159 237 159 Z M 140 164 L 137 168 L 138 170 Q 137 173 142 171 Q 144 170 143 166 L 140 164 Z M 292 179 L 288 181 L 281 189 L 305 190 L 306 191 L 304 185 Q 302 178 292 179 Z M 262 180 L 255 186 L 259 191 L 260 190 L 276 189 L 272 182 L 269 180 L 262 180 Z M 322 184 L 311 192 L 326 194 L 333 197 L 336 197 L 332 187 Q 329 183 322 184 Z M 350 194 L 345 196 L 342 200 Q 353 202 362 207 L 363 208 Q 363 199 360 196 Q 357 193 350 194 Z M 248 195 L 245 198 Q 245 207 251 211 L 253 210 L 254 208 L 253 200 L 248 195 Z M 376 206 L 369 211 L 390 220 L 388 211 Q 386 204 376 206 Z M 403 216 L 395 222 L 406 225 L 414 225 L 415 224 L 413 221 Q 412 215 403 216 Z M 51 228 L 52 234 Q 53 236 57 235 Q 61 234 60 229 L 51 228 Z M 180 233 Q 170 240 153 238 L 150 246 L 146 249 L 140 248 L 135 241 Q 127 245 116 245 L 103 255 L 86 265 L 87 268 L 85 272 Q 82 271 83 274 L 88 275 L 113 275 L 116 274 Q 115 265 119 261 L 123 259 L 128 260 Q 132 263 134 269 Q 153 260 169 247 L 181 234 L 180 233 Z M 144 237 L 138 240 L 140 244 Q 141 246 146 245 L 149 240 L 149 237 L 144 237 Z M 86 240 Q 85 246 90 247 L 93 246 L 95 243 L 86 240 Z M 469 245 Q 463 258 453 268 L 453 276 L 452 277 L 453 279 Q 463 266 469 248 L 469 245 Z M 77 260 Q 73 262 74 270 L 78 272 L 83 269 L 81 263 Q 81 260 77 260 Z M 124 263 L 120 268 L 119 273 L 130 271 L 129 267 Q 129 263 124 263 Z M 215 266 L 199 273 L 169 278 L 172 284 Q 175 289 183 290 L 199 290 L 204 289 Q 216 286 223 278 L 217 268 Q 218 265 215 266 Z M 450 271 Q 444 278 436 282 L 433 285 Q 434 293 430 298 L 431 299 L 443 290 L 449 283 L 450 279 L 450 271 Z M 225 279 L 211 289 L 196 293 L 186 293 L 185 292 L 181 293 Q 192 305 211 310 L 226 307 L 234 302 L 236 300 L 236 291 L 233 288 L 225 279 Z M 165 281 Q 151 296 146 318 L 133 324 Q 126 327 125 336 L 130 338 L 132 333 L 140 327 L 142 329 L 141 329 Q 134 332 134 341 Q 137 344 143 343 L 145 337 Q 148 331 154 331 L 148 340 Q 147 344 150 345 Q 166 346 176 339 L 181 334 L 182 325 L 192 307 L 182 299 Q 172 293 167 283 L 165 281 Z M 431 285 Q 423 291 411 293 L 411 298 L 406 310 L 406 311 L 425 303 Q 429 297 431 289 L 431 285 Z M 409 294 L 399 297 L 404 309 L 409 296 L 409 294 Z M 237 302 L 225 310 L 213 313 L 222 316 L 239 320 L 242 315 L 237 302 Z M 292 304 L 292 316 L 289 328 L 299 328 L 301 327 Q 310 320 312 305 L 299 305 L 292 304 Z M 332 304 L 331 305 L 314 305 Q 314 316 308 323 L 304 328 L 329 326 Q 336 320 339 310 L 339 304 L 332 304 Z M 342 310 L 336 322 L 334 325 L 350 322 L 351 321 L 350 320 L 342 310 Z " /><path fill="rgb(0,0,0)" stroke="rgb(0,0,0)" stroke-width="0" opacity="1" d="M 196.5 141 L 203.5 141 L 214 149.5 L 216 159 Q 213.3 160.1 214 157.5 L 206.5 149 Q 202.4 145.1 193.5 146 L 188 148 L 191.5 143 L 196.5 141 Z " /><path fill="rgb(0,0,0)" stroke="rgb(0,0,0)" stroke-width="0" opacity="1" d="M 189.5 157 L 197.5 157 L 206 162.5 Q 212.2 168.8 210 183.5 Q 208.7 191.7 203 195.5 L 210 198.5 L 203.5 199 L 201.5 199 L 193.5 199 L 182.5 203 L 184 200.5 Q 184.8 198.3 182.5 199 L 177 194.5 Q 173 189.5 173 180.5 L 177 167.5 L 183.5 160 L 189.5 157 Z M 190 161 L 186 163 L 180 169 L 176 182 L 177 189 L 179 193 Q 182 198 188 198 L 184 191 Q 182 180 186 176 Q 188 170 195 169 L 202 170 L 206 175 L 206 177 L 207 177 Q 208 170 205 168 Q 202 160 190 161 Z M 199 175 L 196 178 L 197 182 Q 196 185 202 183 L 204 180 L 203 177 Q 202 174 199 175 Z " /><path fill="rgb(0,0,0)" stroke="rgb(0,0,0)" stroke-width="0" opacity="1" d="M 50.5 184 L 54 186.5 Q 55.3 193.8 51.5 196 Q 47.5 196.5 47 193.5 Q 45.9 185.9 50.5 184 Z " /><path fill="rgb(0,0,0)" stroke="rgb(0,0,0)" stroke-width="0" opacity="1" d="M 82.5 194 Q 88 193 89 196.5 L 89 200.5 L 84.5 205 L 77.5 206 L 75 201.5 L 80.5 195 L 82.5 194 Z " /><path fill="rgb(0,0,0)" stroke="rgb(0,0,0)" stroke-width="0" opacity="1" d="M 281.5 210 L 289.5 210 L 298 215.5 L 301 223.5 L 297.5 228 L 291.5 230 L 286.5 230 L 281.5 229 L 274 224.5 L 272 218.5 L 277.5 212 L 281.5 210 Z M 283 213 L 280 214 L 275 221 L 283 226 Q 287 225 289 227 L 297 225 L 298 223 L 297 220 Q 294 212 283 213 Z " /><path fill="rgb(0,0,0)" stroke="rgb(0,0,0)" stroke-width="0" opacity="1" d="M 318.5 215 Q 332 214.5 336 223.5 L 337 229.5 L 334.5 233 Q 330.8 236.3 322.5 235 L 313.5 232 L 309 227.5 Q 307.9 219.9 312.5 218 L 318.5 215 Z M 321 218 L 313 221 L 312 227 L 319 231 L 324 232 Q 331 233 334 230 L 333 225 Q 330 218 321 218 Z " /><path fill="rgb(0,0,0)" stroke="rgb(0,0,0)" stroke-width="0" opacity="1" d="M 357.5 222 Q 366.9 223.1 371 229.5 L 373 235.5 L 369.5 240 L 359.5 241 L 348 235.5 Q 345.4 234.1 346 229.5 L 349.5 225 L 357.5 222 Z M 354 226 L 352 227 L 349 232 L 354 236 L 361 238 Q 368 239 370 236 L 368 231 Q 365 224 354 226 Z " /><path fill="rgb(0,0,0)" stroke="rgb(0,0,0)" stroke-width="0" opacity="1" d="M 442.5 222 Q 447.3 221.3 448 224.5 Q 449.1 232.1 444.5 234 Q 442.8 236.8 437.5 236 Q 433.8 234.8 435 228.5 L 438.5 224 L 442.5 222 Z M 443 225 L 441 226 Q 437 228 438 233 Q 444 234 445 230 Q 447 224 443 225 Z " /><path fill="rgb(0,0,0)" stroke="rgb(0,0,0)" stroke-width="0" opacity="1" d="M 389.5 235 Q 402.5 233.5 406 241.5 Q 407.3 247.8 403.5 249 L 394.5 250 Q 387.9 249.1 385 244.5 L 384 240.5 L 387.5 236 L 389.5 235 Z M 391 238 L 389 239 L 387 243 L 395 247 Q 400 249 402 246 Q 404 247 403 243 Q 401 236 391 238 Z " /><path fill="rgb(0,0,0)" stroke="rgb(0,0,0)" stroke-width="0" opacity="1" d="M 421.5 235 L 430 237 L 431 243.5 Q 427.7 249.2 418.5 249 L 414 247 L 413 242.5 L 418.5 236 L 421.5 235 Z M 422 238 L 420 239 Q 415 240 416 245 L 419 246 L 426 245 Q 429 244 428 239 L 422 238 Z " /><path fill="rgb(0,0,0)" stroke="rgb(0,0,0)" stroke-width="0" opacity="1" d="M 57.5 355 L 76.5 356 L 77.5 357 L 88.5 358 L 97.5 361 L 102 364.5 L 100.5 368 L 90 372.5 L 93.5 375 L 101.5 377 L 118.5 378 L 119.5 377 L 139.5 376 L 140.5 377 L 152.5 378 L 169.5 384 L 189.5 388 L 218.5 388 L 219.5 387 L 238.5 385 L 279.5 376 L 313.5 375 L 314.5 376 L 322.5 376 L 323.5 377 L 329.5 377 L 350.5 381 L 359.5 381 L 360.5 382 L 385.5 382 L 386.5 381 L 395.5 381 L 396.5 380 L 404.5 380 L 410.5 378 L 415.5 378 L 430 373.5 L 421.5 370 L 419 367.5 Q 418.5 362.5 422.5 362 L 441.5 356 L 460.5 355 L 470 357 L 469.5 359 L 459.5 359 Q 458.2 356.8 453.5 358 L 452.5 359 L 444.5 359 L 434.5 361 L 423 366.5 L 434 372.5 L 432.5 376 L 426.5 379 L 400.5 384 L 391.5 384 L 390.5 385 L 354.5 385 L 353.5 384 L 339.5 383 L 319.5 379 L 296.5 378 L 295.5 379 L 275.5 380 L 250.5 385 L 241.5 388 L 223.5 390 L 222.5 391 L 196.5 392 L 195.5 391 L 186.5 391 L 175.5 389 L 161.5 384 L 144.5 380 L 124.5 380 L 123.5 381 L 104.5 381 L 91.5 378 L 86 374.5 L 85 372.5 Q 89.2 366.7 98 365.5 L 86.5 361 L 74.5 360 L 73.5 359 L 41 359 Q 39.6 355.3 45.5 357 L 46.5 356 L 56.5 356 L 57.5 355 Z " /></svg>