<svg width="627" height="627" preserveAspectRatio="xMidYMid meet" viewBox="0 0 512 512" version="1.1" xmlns="http://www.w3.org/2000/svg" ><path fill="rgb(255,255,255)" stroke="rgb(255,255,255)" stroke-width="0" opacity="1" d="M 0 0 L 512 0 L 512 512 L 0 512 L 0 0 Z M 206 74 L 205 75 L 191 76 L 175 83 L 169 91 L 170 96 L 189 106 Q 195 111 197 120 L 197 128 L 195 135 L 192 137 Q 164 162 147 197 Q 139 214 133 235 L 127 269 L 127 307 L 135 351 L 134 358 L 131 361 Q 118 363 110 369 L 98 378 Q 81 392 76 417 Q 74 430 79 436 L 84 438 L 89 436 L 102 426 L 115 422 L 137 419 L 149 412 L 150 409 Q 153 408 152 411 Q 157 418 167 421 L 187 425 Q 198 429 205 437 L 209 437 L 212 432 L 214 423 L 213 409 L 210 400 L 202 387 Q 193 375 179 369 L 174 364 Q 181 336 198 319 Q 215 299 239 287 L 255 279 L 292 264 L 294 269 L 296 278 L 296 287 L 293 298 L 294 306 L 301 310 L 309 309 L 320 303 Q 330 295 336 283 L 340 270 L 341 256 L 341 254 Q 349 261 362 263 Q 376 265 384 259 Q 389 255 391 249 L 391 243 L 387 234 L 387 230 L 389 228 L 410 225 L 424 220 L 430 216 L 436 208 Q 438 197 434 193 Q 426 182 409 180 L 409 174 L 410 173 L 410 163 L 407 146 Q 402 130 393 120 Q 382 105 365 97 L 342 89 L 331 87 L 322 87 L 321 86 L 293 87 L 276 90 L 267 93 Q 253 83 236 78 L 222 75 L 206 74 Z " /><path fill="rgb(255,255,255)" stroke="rgb(255,255,255)" stroke-width="0" opacity="1" d="M 201.5 80 L 214.5 80 L 235.5 84 Q 249.4 88.1 260 95.5 L 243 105.5 L 245.5 106 L 254.5 102 L 278.5 95 L 297.5 93 L 298.5 92 L 324.5 92 L 325.5 93 L 337.5 94 L 357.5 100 Q 373.8 106.8 385 118.5 Q 396.7 130.3 402 148.5 L 404 158.5 L 404 176.5 L 403 180 Q 381 179 368 187 L 368.5 189 L 384.5 185 L 400.5 184 L 417.5 187 L 428 193.5 Q 432 197 431 205.5 L 424.5 213 L 407.5 220 L 391.5 223 L 370.5 224 L 369.5 223 L 360.5 223 L 346.5 219 L 333 210.5 L 338 207.5 Q 336.5 204.5 330.5 206 L 324 210.5 L 322 214.5 L 324.5 215 L 328.5 212 L 332 215.5 Q 334.5 227 341 234.5 L 350.5 244 L 363.5 250 L 369.5 250 L 377 245.5 L 378 240.5 Q 374.9 235.9 376 228 L 382 228 L 382 234.5 L 385 240.5 L 385 248.5 L 379.5 255 Q 373.8 258.3 364.5 258 L 350.5 254 L 333 243 L 334 245.5 Q 320.3 244.8 311.5 249 L 283.5 262 L 252.5 274 Q 220.7 287.7 198 310.5 Q 182.5 326.5 173 348.5 L 167 368.5 L 166 381 Q 169 382.3 168 378.5 L 171.5 369 L 173.5 372 L 193 384 L 200 392.5 L 206 404.5 L 208 412.5 L 208 425.5 L 205.5 431 L 191.5 421 L 168.5 416 L 162.5 413 L 155 405.5 L 156 394.5 L 154 395.5 Q 150.4 404.9 142.5 410 L 129.5 415 L 107.5 418 L 97.5 422 L 83 432 L 81 425.5 L 81 419.5 Q 86.1 392.6 104.5 379 Q 116.5 369 134.5 365 L 139 360.5 Q 141.5 355 140 345.5 L 133 310.5 L 132 274.5 L 133 273.5 L 133 264.5 L 137 241.5 L 141 226.5 L 149 205.5 Q 168.2 163.2 201.5 135 L 221 119.5 L 220.5 118 L 202.5 129 Q 203.3 118.2 200 111.5 L 189.5 100 L 175 92.5 Q 174.5 87.5 178.5 87 L 186.5 83 L 201.5 80 Z M 311 129 L 307 131 L 299 140 L 301 142 L 315 135 L 325 136 L 324 131 Q 320 128 311 129 Z M 316 153 L 308 156 Q 300 161 298 171 Q 297 180 299 185 L 293 187 Q 294 189 296 187 Q 309 188 317 194 L 321 192 Q 325 189 327 183 Q 328 175 325 171 L 319 165 L 313 165 L 307 168 L 304 175 L 304 184 L 305 185 L 303 185 L 302 182 L 302 171 L 307 161 L 316 157 Q 322 156 325 159 Q 330 163 332 171 L 332 181 L 329 189 L 326 192 Q 325 194 328 193 L 334 185 L 336 176 L 335 169 L 332 162 Q 327 154 316 153 Z M 302 205 L 287 210 L 262 230 L 260 223 L 257 221 L 257 231 L 254 243 Q 249 257 239 268 Q 224 286 198 293 Q 190 294 188 291 L 188 288 L 196 277 L 200 267 L 205 238 L 211 227 L 224 217 L 225 214 L 212 220 Q 200 228 198 247 L 196 248 Q 175 265 164 291 L 156 317 L 153 334 L 153 342 L 152 343 L 152 367 L 153 368 Q 152 375 155 374 L 155 346 L 156 345 L 156 336 L 160 313 L 167 292 Q 173 276 183 265 L 197 252 L 196 262 L 193 271 L 183 287 L 184 295 L 191 298 L 199 298 L 210 295 Q 222 290 232 282 Q 254 266 261 235 L 289 212 L 304 207 L 302 205 Z " /><path fill="rgb(255,255,255)" stroke="rgb(255,255,255)" stroke-width="0" opacity="1" d="M 312.5 169 L 316 171.5 Q 317 177 313.5 178 L 310 176.5 L 309 172.5 L 310 170 L 312.5 169 Z " /><path fill="rgb(255,255,255)" stroke="rgb(255,255,255)" stroke-width="0" opacity="1" d="M 338.5 220 Q 344.5 225 354.5 226 L 363 231 L 367 236.5 L 370 244.5 Q 369 247 364.5 246 Q 353.4 243.1 347 235.5 Q 339.9 229 338.5 220 Z " /><path fill="rgb(255,255,255)" stroke="rgb(255,255,255)" stroke-width="0" opacity="1" d="M 364.5 228 L 372 228 L 372 235.5 L 374 242.5 L 373 242.5 L 371 236.5 L 364.5 228 Z " /><path fill="rgb(255,255,255)" stroke="rgb(255,255,255)" stroke-width="0" opacity="1" d="M 323.5 251 L 335 251 L 335 267.5 Q 330.7 286.2 318.5 297 L 309.5 303 L 300.5 304 Q 297.5 302.5 299 296.5 L 301 291.5 L 301 272.5 L 297 261 L 310.5 255 L 323.5 251 Z " /><path fill="rgb(0,0,0)" stroke="rgb(0,0,0)" stroke-width="0" opacity="1" d="M 205.5 74 L 221.5 75 L 235.5 78 Q 253 83.5 266.5 93 L 275.5 90 L 292.5 87 L 320.5 86 L 321.5 87 L 330.5 87 L 341.5 89 L 364.5 97 Q 381.7 105.3 393 119.5 Q 402.1 130.4 407 145.5 L 410 162.5 L 410 172.5 L 409 173.5 L 409 180 Q 425.7 181.7 434 192.5 Q 437.8 197.2 436 207.5 L 429.5 216 L 423.5 220 L 409.5 225 L 388.5 228 L 387 229.5 L 387 233.5 L 391 242.5 L 391 248.5 Q 388.8 255.3 383.5 259 Q 376.2 264.7 361.5 263 Q 348.8 260.7 340.5 254 L 341 255.5 L 340 269.5 L 336 282.5 Q 329.8 294.8 319.5 303 L 308.5 309 L 300.5 310 L 294 305.5 L 293 297.5 L 296 286.5 L 296 277.5 L 294 268.5 L 291.5 264 L 254.5 279 L 238.5 287 Q 215 299.5 198 318.5 Q 181.3 336.3 174 363.5 L 178.5 369 Q 193 375 202 386.5 L 210 399.5 L 213 408.5 L 214 422.5 L 212 431.5 L 208.5 437 L 204.5 437 Q 197.5 429 186.5 425 L 166.5 421 Q 157.2 417.8 152 410.5 Q 152.7 407.9 150 409 L 148.5 412 L 136.5 419 L 114.5 422 L 101.5 426 L 88.5 436 L 83.5 438 L 79 436 Q 74 430.3 76 416.5 Q 81.3 391.8 97.5 378 L 109.5 369 Q 118.3 363.3 130.5 361 L 134 357.5 L 135 350.5 L 127 306.5 L 127 268.5 L 133 234.5 Q 138.5 214 147 196.5 Q 164.5 162 191.5 137 L 195 134.5 L 197 127.5 L 197 119.5 Q 194.9 110.6 188.5 106 L 170 95.5 L 169 90.5 L 174.5 83 L 190.5 76 L 204.5 75 L 205.5 74 Z M 202 80 L 187 83 L 179 87 Q 175 88 175 93 L 190 100 L 200 112 Q 203 118 203 129 L 221 118 L 221 120 L 202 135 Q 168 163 149 206 L 141 227 L 137 242 L 133 265 L 133 274 L 132 275 L 133 311 L 140 346 Q 142 355 139 361 L 135 365 Q 117 369 105 379 Q 86 393 81 420 L 81 426 L 83 432 L 98 422 L 108 418 L 130 415 L 143 410 Q 150 405 154 396 L 156 395 L 155 406 L 163 413 L 169 416 L 192 421 L 206 431 L 208 426 L 208 413 L 206 405 L 200 393 L 193 384 L 174 372 L 172 369 L 168 379 Q 169 382 166 381 L 167 369 L 173 349 Q 182 326 198 311 Q 221 288 253 274 L 284 262 L 312 249 Q 320 245 334 246 L 333 243 L 351 254 L 365 258 Q 374 258 380 255 L 385 249 L 385 241 L 382 235 L 382 228 L 376 228 Q 375 236 378 241 L 377 246 L 370 250 L 364 250 L 351 244 L 341 235 Q 334 227 332 216 L 329 212 L 325 215 L 322 215 L 324 211 L 331 206 Q 336 204 338 208 L 333 211 L 347 219 L 361 223 L 370 223 L 371 224 L 392 223 L 408 220 L 425 213 L 431 206 Q 432 197 428 194 L 418 187 L 401 184 L 385 185 L 369 189 L 368 187 Q 381 179 403 180 L 404 177 L 404 159 L 402 149 Q 397 130 385 119 Q 374 107 358 100 L 338 94 L 326 93 L 325 92 L 299 92 L 298 93 L 279 95 L 255 102 L 246 106 L 243 106 L 260 96 Q 249 88 236 84 L 215 80 L 202 80 Z M 339 220 Q 340 229 347 236 Q 353 243 365 246 Q 369 247 370 245 L 367 237 L 363 231 L 355 226 Q 345 225 339 220 Z M 365 228 L 371 237 L 373 243 L 374 243 L 372 236 L 372 228 L 365 228 Z M 324 251 L 311 255 L 297 261 L 301 273 L 301 292 L 299 297 Q 297 302 301 304 L 310 303 L 319 297 Q 331 286 335 268 L 335 251 L 324 251 Z " /><path fill="rgb(0,0,0)" stroke="rgb(0,0,0)" stroke-width="0" opacity="1" d="M 310.5 129 Q 320.1 127.7 324 131 L 325 136 L 314.5 135 L 300.5 142 L 299 139.5 L 306.5 131 L 310.5 129 Z " /><path fill="rgb(0,0,0)" stroke="rgb(0,0,0)" stroke-width="0" opacity="1" d="M 315.5 153 Q 327.3 153.7 332 161.5 L 335 168.5 L 336 175.5 L 334 184.5 L 327.5 193 Q 325.3 193.8 326 191.5 L 329 188.5 L 332 180.5 L 332 170.5 Q 330.1 162.8 324.5 159 Q 321.6 156.4 315.5 157 L 307 161 L 302 170.5 L 302 181.5 L 303 185 L 305 184.5 L 304 183.5 L 304 174.5 L 307 168 L 312.5 165 L 318.5 165 L 325 170.5 Q 328 174.5 327 182.5 Q 325.5 189 320.5 192 L 316.5 194 Q 308.5 188 295.5 187 Q 294.3 189.3 293 186.5 L 299 185 Q 297.2 179.8 298 170.5 Q 300.4 160.9 307.5 156 L 315.5 153 Z M 313 169 L 310 170 L 309 173 L 310 177 L 314 178 Q 317 177 316 172 L 313 169 Z " /><path fill="rgb(0,0,0)" stroke="rgb(0,0,0)" stroke-width="0" opacity="1" d="M 301.5 205 L 304 206.5 L 288.5 212 L 261 234.5 Q 253.7 265.7 231.5 282 Q 222.3 290.3 209.5 295 L 198.5 298 L 190.5 298 L 184 294.5 L 183 286.5 L 193 270.5 L 196 261.5 L 197 251.5 L 183 264.5 Q 173.4 276.4 167 291.5 L 160 312.5 L 156 335.5 L 156 344.5 L 155 345.5 L 155 374 Q 151.5 375.1 153 367.5 L 152 366.5 L 152 342.5 L 153 341.5 L 153 333.5 L 156 316.5 L 164 290.5 Q 175.1 264.6 195.5 248 L 198 246.5 Q 199.9 228.4 211.5 220 L 225 214 L 223.5 217 L 211 226.5 L 205 237.5 L 200 266.5 L 196 276.5 L 188 287.5 L 188 290.5 Q 190.3 294.3 197.5 293 Q 224.1 286.1 239 267.5 Q 248.6 257.1 254 242.5 L 257 230.5 L 257 221 L 260 222.5 L 261.5 230 L 286.5 210 L 301.5 205 Z " /></svg>