<svg width="627" height="627" preserveAspectRatio="xMidYMid meet" viewBox="0 0 512 512" version="1.1" xmlns="http://www.w3.org/2000/svg" ><path fill="rgb(255,255,255)" stroke="rgb(255,255,255)" stroke-width="0" opacity="1" d="M 0 0 L 512 0 L 512 512 L 0 512 L 0 0 Z M 279 41 L 277 42 L 274 46 L 266 54 L 254 58 L 241 55 L 229 46 L 224 47 L 221 51 L 219 66 L 215 73 L 206 80 L 190 82 L 186 87 L 187 91 Q 193 95 195 104 L 195 107 Q 185 118 181 135 L 178 162 L 174 171 Q 169 178 160 181 Q 153 183 152 180 Q 142 179 139 183 L 135 189 L 136 201 L 147 217 L 156 224 L 166 224 L 176 217 L 185 214 L 195 214 L 219 221 L 235 223 L 232 229 L 219 239 L 200 260 L 192 278 L 189 293 L 189 307 L 192 321 Q 196 334 204 343 Q 212 352 223 358 L 248 368 L 258 374 Q 268 383 271 400 L 270 416 L 264 429 Q 258 437 247 440 Q 231 442 224 436 Q 216 431 214 422 Q 213 412 217 408 Q 220 403 226 402 L 232 403 Q 235 405 234 410 Q 231 411 232 409 Q 231 406 226 407 L 222 412 L 223 421 Q 226 425 233 427 Q 242 427 247 423 Q 252 419 254 411 L 254 401 L 250 392 Q 244 382 231 379 L 216 380 L 206 385 Q 192 395 188 415 L 189 431 Q 193 443 200 452 Q 209 462 223 467 L 240 471 L 261 470 L 275 466 Q 295 458 308 442 L 324 436 L 328 431 L 328 426 L 330 420 L 343 410 Q 345 403 342 402 Q 341 391 345 387 L 352 382 L 355 378 L 346 359 Q 348 347 355 342 L 355 337 L 344 330 L 348 328 Q 355 324 353 310 L 356 308 L 363 299 Q 364 290 360 287 L 360 283 L 366 274 L 365 263 L 358 253 L 361 243 L 359 235 L 353 229 L 343 229 L 334 233 L 332 231 Q 331 220 335 216 L 345 209 L 355 208 L 357 205 L 357 201 L 353 193 L 353 184 L 358 174 Q 363 167 374 165 Q 378 164 377 158 L 368 150 Q 361 145 359 135 L 360 123 L 370 107 L 369 104 L 364 100 Q 351 101 346 96 Q 336 90 334 78 L 334 70 L 335 69 L 334 61 L 331 58 Q 322 59 317 63 Q 301 65 295 58 Q 289 53 286 45 Q 285 40 279 41 Z " /><path fill="rgb(255,255,255)" stroke="rgb(255,255,255)" stroke-width="0" opacity="1" d="M 280.5 46 Q 284.2 56.8 292.5 63 Q 299.7 68.8 312.5 69 L 330 63 Q 328 69 329 79.5 Q 331.9 93.1 341.5 100 L 352.5 105 L 364 106 L 358 114.5 L 354 124.5 L 354 137.5 Q 357.4 148.6 365.5 155 L 372 159.5 Q 359.9 162.9 353 171.5 Q 345.8 178.3 348 194.5 L 352 202.5 L 350.5 204 L 340.5 205 L 330 213.5 Q 326.2 219.2 326 228.5 L 329 234.5 Q 312.5 242.5 301.5 256 L 302 254.5 L 302 250.5 L 307 234.5 L 325 203.5 L 336 179.5 L 340 160.5 L 340 144.5 L 337 129.5 L 331 114.5 Q 323.4 100.6 311.5 91 Q 300.3 81.7 284.5 77 Q 278.4 77.6 275.5 75 L 252.5 75 L 230.5 81 L 220.5 86 L 203 99 L 200.5 103 Q 198 94 192 88.5 L 192 86 Q 194.1 87.6 199.5 87 L 211.5 83 L 218 77.5 L 224 67.5 Q 227.1 62.1 226 52.5 L 227.5 51 Q 235.9 63.1 256.5 63 Q 270.1 60.1 277 50.5 L 280.5 46 Z " /><path fill="rgb(255,255,255)" stroke="rgb(255,255,255)" stroke-width="0" opacity="1" d="M 251.5 80 L 275.5 80 L 287.5 83 Q 308 90.5 320 106.5 Q 328.1 116.4 332 130.5 L 335 146.5 L 335 157.5 L 334 158.5 L 333 170.5 L 328 186.5 L 301 235.5 L 296 253.5 L 296 263.5 Q 291.6 267.6 291 274 L 296 270.5 L 314.5 250 L 334.5 237 L 345.5 234 L 350.5 234 L 355 237.5 L 355 245.5 Q 352 248.5 353 255.5 L 360 264.5 L 361 271.5 L 355 281.5 L 355 287.5 L 358 295.5 L 357 299.5 L 352.5 304 L 349 306.5 L 347 312.5 Q 349.3 313.7 348 318.5 L 343.5 324 L 335.5 324 L 324.5 319 L 306.5 305 L 295.5 299 L 296 300.5 L 300.5 306 L 311 314.5 L 322 344.5 L 324 354.5 L 324 361.5 L 325 362.5 L 325 381.5 L 324 382.5 L 324 389.5 L 322 399.5 L 317 414.5 Q 308.8 434.8 293.5 448 Q 282.5 458 266.5 463 L 257.5 465 L 235.5 465 Q 213.4 460.6 202 445.5 L 194 428.5 L 194 411.5 Q 197.6 397.6 207.5 390 Q 214.6 383.6 228.5 384 Q 239.8 385.7 245 393.5 Q 249 398.5 249 407.5 Q 247.5 416 241.5 420 L 235.5 422 L 229.5 420 L 227 417.5 Q 225.8 411.4 228.5 412 Q 229.2 415.7 234.5 415 Q 240.5 413.5 239 404.5 L 234.5 399 Q 230.9 396.1 223.5 397 Q 216.1 399.6 212 405.5 Q 207.6 411.6 209 423.5 Q 211.4 433.6 218.5 439 Q 227.4 447.1 245.5 446 Q 261.4 442.4 269 430.5 Q 274.1 423.6 276 413.5 L 276 396.5 Q 272.8 377.7 259.5 369 L 252 364.5 Q 264.1 361.1 271 352.5 L 272.5 350 Q 288.3 365.2 289 395.5 L 285 414.5 L 277 430.5 L 281 427.5 Q 287.8 418.8 291 406.5 L 292 401.5 L 292 382.5 L 286 363.5 L 262 329.5 L 253 311.5 L 248 291.5 L 248 269.5 L 254 246.5 L 260 234.5 L 262 227.5 L 262 219.5 L 263.5 218 Q 276.4 214.4 284 205.5 L 289 196 Q 286.3 194.9 287 197.5 Q 277.9 209.4 262.5 215 L 247.5 218 L 234.5 218 L 233.5 217 L 220.5 216 L 202 210.5 Q 215.2 207.2 222.5 198 L 226 200 Q 226.8 195 223.5 193 L 217.5 191 Q 213.7 193.2 219 195.5 L 212.5 202 L 198.5 208 L 178.5 210 L 163.5 219 L 157.5 219 L 152 214.5 Q 148.6 205.9 142 200.5 L 140 191.5 L 143.5 186 L 149.5 185 L 157.5 187 Q 170.4 184.4 177 175.5 L 183 163.5 L 186 137.5 L 191 122.5 Q 197.7 109.2 208.5 100 Q 224.8 84.8 251.5 80 Z M 238 111 L 234 112 Q 229 113 230 118 Q 240 116 246 121 L 251 126 L 252 125 L 251 120 L 245 113 L 238 111 Z M 232 135 L 222 139 Q 215 144 213 154 Q 211 167 216 173 L 220 176 L 216 165 L 216 157 L 219 148 L 228 140 Q 237 138 241 142 Q 245 146 247 153 L 247 163 Q 247 155 243 151 L 239 147 Q 232 146 229 148 Q 223 152 221 160 Q 220 169 224 174 L 229 177 L 234 176 L 246 176 L 247 177 Q 249 178 248 176 L 245 174 L 251 162 L 251 154 L 248 145 Q 244 136 232 135 Z M 148 193 L 146 196 L 151 200 Q 150 203 154 201 L 153 197 L 148 193 Z M 339 254 Q 314 261 299 277 Q 296 276 297 279 L 301 278 L 320 265 L 343 255 L 339 254 Z M 331 277 L 330 278 L 318 279 L 302 284 Q 298 283 299 286 L 306 286 L 331 280 L 344 279 L 345 278 L 331 277 Z M 300 292 L 300 294 L 317 299 L 337 303 Q 341 304 340 301 L 310 293 L 300 292 Z " /><path fill="rgb(255,255,255)" stroke="rgb(255,255,255)" stroke-width="0" opacity="1" d="M 237.5 153 Q 241.5 152.5 242 155.5 L 241 161 L 237.5 162 Q 233.5 160.3 235 154 L 237.5 153 Z " /><path fill="rgb(255,255,255)" stroke="rgb(255,255,255)" stroke-width="0" opacity="1" d="M 245.5 164 L 246 166.5 L 245 166.5 L 245.5 164 Z " /><path fill="rgb(255,255,255)" stroke="rgb(255,255,255)" stroke-width="0" opacity="1" d="M 256.5 220 L 259 220 L 259 225.5 L 254 240.5 L 251.5 243 Q 235.5 245 228 238.5 L 238 229.5 L 242.5 222 Q 251.5 223 256.5 220 Z " /><path fill="rgb(255,255,255)" stroke="rgb(255,255,255)" stroke-width="0" opacity="1" d="M 224.5 241 L 238.5 246 L 251 246 Q 245.8 255.8 245 270 Q 237.2 273.8 222.5 272 L 210.5 269 L 204 264.5 Q 209 254 217.5 247 L 224.5 241 Z " /><path fill="rgb(255,255,255)" stroke="rgb(255,255,255)" stroke-width="0" opacity="1" d="M 202.5 267 Q 214.1 277.4 238.5 275 L 243.5 273 L 244 287.5 L 245 288.5 L 246 299.5 L 238.5 304 L 229.5 306 L 212.5 306 L 202.5 304 L 195 301 L 196 283.5 L 202.5 267 Z " /><path fill="rgb(255,255,255)" stroke="rgb(255,255,255)" stroke-width="0" opacity="1" d="M 246.5 303 Q 249.3 314.3 255 322.5 L 255 325.5 L 248.5 331 L 234.5 337 L 229.5 338 L 211.5 338 L 207.5 337 L 204 333.5 L 197 318.5 L 195 310.5 L 195 304.5 L 196.5 305 L 210.5 309 L 230.5 309 L 241.5 306 L 246.5 303 Z " /><path fill="rgb(255,255,255)" stroke="rgb(255,255,255)" stroke-width="0" opacity="1" d="M 319.5 321 L 331.5 328 L 338 329 L 343.5 336 L 350 339.5 L 343 348.5 L 341 359.5 Q 342.6 369.4 349 374.5 L 349 377.5 L 341 383.5 Q 336 388.5 336 398.5 Q 338.6 401.4 338 407.5 Q 330.4 410.4 326 416.5 Q 322.8 420.8 323 428.5 L 320.5 432 L 312.5 435 L 313 433.5 L 321 418.5 L 328 397.5 L 329 385.5 L 330 384.5 L 330 359.5 L 326 339.5 L 319.5 321 Z " /><path fill="rgb(255,255,255)" stroke="rgb(255,255,255)" stroke-width="0" opacity="1" d="M 256.5 328 Q 258.8 327.3 258 329.5 L 271 347.5 L 264.5 355 Q 258.2 361.2 246.5 362 Q 224.3 356.3 211 341.5 L 216.5 341 Q 217.8 343.3 222.5 342 L 223.5 341 L 235.5 340 L 243.5 337 L 256.5 328 Z " /><path fill="rgb(0,0,0)" stroke="rgb(0,0,0)" stroke-width="0" opacity="1" d="M 278.5 41 Q 285 40 286 44.5 Q 288.5 53 294.5 58 Q 301 65 316.5 63 Q 321.7 58.7 330.5 58 L 334 60.5 L 335 68.5 L 334 69.5 L 334 77.5 Q 336.3 90.3 345.5 96 Q 351.1 101.4 363.5 100 L 369 103.5 L 370 106.5 L 360 122.5 L 359 134.5 Q 360.7 144.8 367.5 150 L 377 157.5 Q 377.7 163.7 373.5 165 Q 363.3 166.8 358 173.5 L 353 183.5 L 353 192.5 L 357 200.5 L 357 204.5 L 354.5 208 L 344.5 209 L 335 215.5 Q 330.5 220 332 230.5 L 333.5 233 L 342.5 229 L 352.5 229 L 359 234.5 L 361 242.5 L 358 252.5 L 365 262.5 L 366 273.5 L 360 282.5 L 360 286.5 Q 364 290 363 298.5 L 355.5 308 L 353 309.5 Q 355.3 323.8 347.5 328 L 344 329.5 L 355 336.5 L 355 341.5 Q 347.5 347 346 358.5 L 355 377.5 L 351.5 382 L 345 386.5 Q 340.5 391 342 401.5 Q 344.8 403.2 343 409.5 L 330 419.5 L 328 425.5 L 328 430.5 L 323.5 436 L 307.5 442 Q 294.6 457.6 274.5 466 L 260.5 470 L 239.5 471 L 222.5 467 Q 208.9 461.6 200 451.5 Q 192.6 442.9 189 430.5 L 188 414.5 Q 191.6 394.6 205.5 385 L 215.5 380 L 230.5 379 Q 243.8 381.6 250 391.5 L 254 400.5 L 254 410.5 Q 252.3 418.8 246.5 423 Q 242 427.5 232.5 427 Q 226 425.5 223 420.5 L 222 411.5 L 225.5 407 Q 230.8 405.8 232 408.5 Q 231.3 411.1 234 410 Q 234.8 405 231.5 403 L 225.5 402 Q 219.8 403.3 217 407.5 Q 212.9 411.9 214 421.5 Q 216 431.5 223.5 436 Q 230.8 442.2 246.5 440 Q 258.1 437.1 264 428.5 L 270 415.5 L 271 399.5 Q 268.3 382.7 257.5 374 L 247.5 368 L 222.5 358 Q 211.8 351.8 204 342.5 Q 196 333.5 192 320.5 L 189 306.5 L 189 292.5 L 192 277.5 L 200 259.5 L 218.5 239 L 232 229 L 235 223 L 218.5 221 L 194.5 214 L 184.5 214 L 175.5 217 L 165.5 224 L 155.5 224 L 147 216.5 L 136 200.5 L 135 188.5 L 138.5 183 Q 142 178.5 151.5 180 Q 153.3 182.8 159.5 181 Q 168.8 177.8 174 170.5 L 178 161.5 L 181 134.5 Q 185.2 117.7 195 106.5 L 195 103.5 Q 192.6 95.4 187 90.5 L 186 86.5 L 189.5 82 L 205.5 80 L 215 72.5 L 219 65.5 L 221 50.5 L 223.5 47 L 228.5 46 L 240.5 55 L 253.5 58 L 265.5 54 L 274 45.5 L 276.5 42 L 278.5 41 Z M 281 46 L 277 51 Q 270 60 257 63 Q 236 63 228 51 L 226 53 Q 227 62 224 68 L 218 78 L 212 83 L 200 87 Q 194 88 192 86 L 192 89 Q 198 94 201 103 L 203 99 L 221 86 L 231 81 L 253 75 L 276 75 Q 278 78 285 77 Q 300 82 312 91 Q 323 101 331 115 L 337 130 L 340 145 L 340 161 L 336 180 L 325 204 L 307 235 L 302 251 L 303 255 Q 313 242 329 235 L 326 229 Q 326 219 330 214 L 341 205 L 351 204 L 352 203 L 348 195 Q 346 178 353 172 Q 360 163 372 160 L 366 155 Q 357 149 354 138 L 354 125 L 358 115 L 364 106 L 353 105 L 342 100 Q 332 93 329 80 Q 328 69 330 63 L 313 69 Q 300 69 293 63 Q 284 57 281 46 Z M 252 80 Q 225 85 209 100 Q 198 109 191 123 L 186 138 L 183 164 L 177 176 Q 170 184 158 187 L 150 185 L 144 186 L 140 192 L 142 201 Q 149 206 152 215 L 158 219 L 164 219 L 179 210 L 199 208 L 213 202 L 219 196 Q 214 193 218 191 L 224 193 Q 227 195 226 200 L 223 198 Q 215 207 202 211 L 221 216 L 234 217 L 235 218 L 248 218 L 263 215 Q 278 209 287 198 Q 286 195 289 196 L 284 206 Q 276 214 264 218 L 262 220 L 262 228 L 260 235 L 254 247 L 248 270 L 248 292 L 253 312 L 262 330 L 286 364 L 292 383 L 292 402 L 291 407 Q 288 419 281 428 L 277 431 L 285 415 L 289 396 Q 288 365 273 350 L 271 353 Q 264 361 252 365 L 260 369 Q 273 378 276 397 L 276 414 Q 274 424 269 431 Q 261 442 246 446 Q 227 447 219 439 Q 211 434 209 424 Q 208 412 212 406 Q 216 400 224 397 Q 231 396 235 399 L 239 405 Q 241 413 235 415 Q 229 416 229 412 Q 226 411 227 418 L 230 420 L 236 422 L 242 420 Q 248 416 249 408 Q 249 399 245 394 Q 240 386 229 384 Q 215 384 208 390 Q 198 398 194 412 L 194 429 L 202 446 Q 213 461 236 465 L 258 465 L 267 463 Q 282 458 294 448 Q 309 435 317 415 L 322 400 L 324 390 L 324 383 L 325 382 L 325 363 L 324 362 L 324 355 L 322 345 L 311 315 L 301 306 L 296 301 L 296 299 L 307 305 L 325 319 L 336 324 L 344 324 L 348 319 Q 349 314 347 313 L 349 307 L 353 304 L 357 300 L 358 296 L 355 288 L 355 282 L 361 272 L 360 265 L 353 256 Q 352 249 355 246 L 355 238 L 351 234 L 346 234 L 335 237 L 315 250 L 296 271 L 291 274 Q 292 268 296 264 L 296 254 L 301 236 L 328 187 L 333 171 L 334 159 L 335 158 L 335 147 L 332 131 Q 328 116 320 107 Q 308 91 288 83 L 276 80 L 252 80 Z M 257 220 Q 252 223 243 222 L 238 230 L 228 239 Q 236 245 252 243 L 254 241 L 259 226 L 259 220 L 257 220 Z M 225 241 L 218 247 Q 209 254 204 265 L 211 269 L 223 272 Q 237 274 245 270 Q 246 256 251 246 L 239 246 L 225 241 Z M 203 267 L 196 284 L 195 301 L 203 304 L 213 306 L 230 306 L 239 304 L 246 300 L 245 289 L 244 288 L 244 273 L 239 275 Q 214 277 203 267 Z M 247 303 L 242 306 L 231 309 L 211 309 L 197 305 L 195 305 L 195 311 L 197 319 L 204 334 L 208 337 L 212 338 L 230 338 L 235 337 L 249 331 L 255 326 L 255 323 Q 249 314 247 303 Z M 321 322 L 320 325 L 326 340 L 330 360 L 330 385 L 329 386 L 328 398 L 321 419 L 313 434 L 313 435 L 321 432 L 323 429 Q 323 421 326 417 Q 330 410 338 408 Q 339 401 336 399 Q 336 388 341 384 L 349 378 L 349 375 Q 343 369 341 360 L 343 349 L 350 340 L 344 336 L 338 329 L 332 328 L 321 322 Z M 257 328 L 244 337 L 236 340 L 224 341 L 223 342 Q 218 343 217 341 L 211 342 Q 224 356 247 362 Q 258 361 265 355 L 271 348 L 258 330 Q 259 327 257 328 Z " /><path fill="rgb(0,0,0)" stroke="rgb(0,0,0)" stroke-width="0" opacity="1" d="M 237.5 111 L 244.5 113 L 251 119.5 L 252 124.5 L 250.5 126 L 245.5 121 Q 240.4 116.3 230 118 Q 229.3 113.3 233.5 112 L 237.5 111 Z " /><path fill="rgb(0,0,0)" stroke="rgb(0,0,0)" stroke-width="0" opacity="1" d="M 231.5 135 Q 243.9 135.6 248 144.5 L 251 153.5 L 251 161.5 L 245 173.5 L 248 175.5 Q 248.8 177.8 246.5 177 L 245.5 176 L 233.5 176 L 228.5 177 L 224 173.5 Q 219.9 169.1 221 159.5 Q 222.8 151.8 228.5 148 Q 231.7 145.7 238.5 147 L 243 150.5 Q 246.8 154.7 246.5 163 L 247 152.5 Q 245.5 145.5 240.5 142 Q 237 138 227.5 140 L 219 147.5 L 216 156.5 L 216 164.5 L 220 175.5 L 216 172.5 Q 210.8 166.7 213 153.5 Q 215.1 144.1 221.5 139 L 231.5 135 Z M 238 153 L 235 154 Q 234 160 238 162 L 241 161 L 242 156 Q 241 153 238 153 Z M 246 164 L 245 167 L 246 167 L 246 164 Z " /><path fill="rgb(0,0,0)" stroke="rgb(0,0,0)" stroke-width="0" opacity="1" d="M 147.5 193 L 153 196.5 L 154 201 Q 150.2 202.5 151 199.5 L 146 196 L 147.5 193 Z " /><path fill="rgb(0,0,0)" stroke="rgb(0,0,0)" stroke-width="0" opacity="1" d="M 338.5 254 L 343 254.5 L 319.5 265 L 300.5 278 L 297 279 Q 295.9 276.3 298.5 277 Q 313.9 260.9 338.5 254 Z " /><path fill="rgb(0,0,0)" stroke="rgb(0,0,0)" stroke-width="0" opacity="1" d="M 330.5 277 L 345 277.5 L 343.5 279 L 330.5 280 L 305.5 286 L 299 286 Q 297.8 283 301.5 284 L 317.5 279 L 329.5 278 L 330.5 277 Z " /><path fill="rgb(0,0,0)" stroke="rgb(0,0,0)" stroke-width="0" opacity="1" d="M 300 292 L 309.5 293 L 340 301 Q 341.3 304.3 336.5 303 L 316.5 299 L 300 294 L 300 292 Z " /></svg>