<svg width="627" height="627" preserveAspectRatio="xMidYMid meet" viewBox="0 0 512 512" version="1.1" xmlns="http://www.w3.org/2000/svg" ><path fill="rgb(255,255,255)" stroke="rgb(255,255,255)" stroke-width="0" opacity="1" d="M 0 0 L 512 0 L 512 512 L 0 512 L 0 0 Z M 205 43 L 195 47 Q 184 53 182 68 L 177 71 L 162 88 L 158 100 L 158 109 L 154 112 Q 144 120 139 133 L 136 148 Q 136 175 150 189 L 162 197 Q 167 198 168 196 L 167 192 L 167 184 L 169 177 L 176 171 L 177 175 Q 178 185 173 190 L 174 194 L 180 199 L 189 204 L 181 214 L 176 224 L 173 239 L 174 253 L 176 261 Q 181 276 191 288 Q 200 300 215 308 L 217 311 Q 217 318 221 323 Q 203 322 197 333 Q 192 334 191 332 L 157 332 L 156 333 L 146 329 Q 147 318 141 313 L 133 305 L 120 301 Q 109 299 106 304 Q 109 315 115 324 Q 121 333 134 335 L 131 336 L 118 337 L 107 343 Q 100 349 96 358 L 94 370 L 97 371 L 117 371 L 125 369 L 133 364 Q 138 359 140 352 L 144 349 L 153 349 L 179 355 L 196 357 L 204 364 Q 210 366 212 363 L 220 367 Q 227 367 230 362 L 241 364 Q 245 362 244 366 L 251 370 Q 258 372 260 368 L 270 373 L 275 371 L 277 368 L 278 369 L 289 370 L 291 375 L 294 389 L 304 418 Q 310 432 319 443 L 326 447 Q 331 449 333 446 L 340 458 Q 345 465 354 468 L 362 467 L 364 465 L 366 459 L 366 452 L 363 440 L 364 437 L 371 440 L 374 439 L 377 435 L 377 419 L 376 414 L 366 379 L 402 385 L 411 382 L 417 373 L 419 364 L 419 358 L 416 349 L 411 343 L 407 342 L 373 342 L 370 332 Q 375 333 376 329 L 376 319 L 371 307 L 372 304 L 372 294 L 370 286 L 359 262 L 358 254 L 353 240 Q 345 220 332 206 L 319 195 L 311 176 L 312 174 L 317 176 L 321 175 L 313 149 L 313 147 L 319 148 L 319 143 L 310 116 Q 304 101 295 90 Q 286 78 272 71 L 274 70 L 275 67 Q 265 56 243 57 L 249 53 Q 251 52 251 49 L 242 45 Q 220 45 209 54 L 205 57 Q 204 49 207 47 L 205 43 Z " /><path fill="rgb(255,255,255)" stroke="rgb(255,255,255)" stroke-width="0" opacity="1" d="M 199.5 49 Q 202.5 48.1 201 52.5 L 200 53.5 L 200 61.5 L 201 65 L 211.5 57 L 221.5 52 Q 229.8 48.3 243.5 50 L 242.5 52 L 231 61.5 Q 230.3 63.8 232.5 63 L 240.5 61 L 249.5 61 L 260.5 63 L 268 66.5 L 261 69 Q 259.9 71.7 262.5 71 Q 280 78 291 91.5 L 303 110.5 L 314 143 L 306 140 L 310 156.5 L 316 170.5 L 314.5 171 L 304.5 166 L 305 167.5 Q 306.7 180.3 312 189.5 L 310.5 189 L 301.5 186 L 287.5 185 Q 271.1 188.1 263 199.5 L 257 210.5 L 255 218.5 L 254 232.5 L 255 233.5 L 255 241.5 L 257 251.5 L 267 276.5 L 278 292.5 Q 288.5 301.5 296 313.5 L 316.5 334 L 326 341.5 L 324.5 341 L 301.5 341 L 297 339.5 Q 303.9 335.5 302 324 Q 298.7 322.7 300 327.5 L 294.5 337 L 292.5 338 L 287.5 331 Q 282.8 325.7 271.5 327 L 270 327.5 L 266 315 Q 262 313.6 264 320.5 L 266 326.5 L 264.5 327 L 260.5 326 L 258.5 327 Q 232.3 317.3 215 298.5 Q 196.5 280.5 190 250.5 L 191.5 251 L 196 247.5 Q 195.3 244.9 198 246 Q 198.5 252.6 203.5 256 L 207.5 257 Q 211.6 252.6 212.5 245 L 216.5 250 Q 222.3 250.8 223 246.5 L 226 234.5 L 224 235.5 Q 223.3 243.3 218.5 247 L 214 243.5 L 213 238 Q 209.7 236.7 211 241.5 L 207 254 L 202 250.5 Q 198.4 245.1 198.5 236 L 193 248 Q 190.3 249.1 191 246.5 L 189 240.5 L 189 235.5 L 192 224 Q 189.3 222.9 190 225.5 L 185.5 229 L 185 222.5 Q 187.5 210.5 194.5 203 L 204.5 202 Q 212.6 199.1 217 192.5 L 222 181.5 L 223 170.5 L 220 156.5 L 211.5 146 L 206 142.5 Q 205.9 130.6 201 123.5 L 201 113.5 Q 204 97.5 214.5 89 Q 222.7 80.7 240.5 82 L 249.5 85 L 264 97.5 Q 277 112 276 140.5 L 273 152.5 L 269 161 L 274 161 L 274 165.5 Q 269.9 179.9 259.5 188 L 247.5 196 L 240 198 Q 238.7 201.3 243.5 200 Q 259.8 194.8 269 182.5 Q 275.9 175.4 277 162.5 L 273 157.5 Q 281.7 147.2 279 125.5 Q 275.2 102.8 261.5 90 Q 255.1 83.4 245.5 80 Q 238.4 77.6 227.5 79 Q 214 82.5 207 92.5 L 202 100.5 L 197.5 116 Q 192.6 108.4 183.5 105 L 170.5 104 L 162.5 107 L 162 101.5 Q 165.7 83.7 178.5 75 L 183.5 72 L 186 73.5 L 187 63.5 Q 189.9 55.4 196.5 51 L 199.5 49 Z M 236 94 L 234 95 L 230 100 Q 228 101 231 102 L 233 101 L 242 101 L 251 106 L 249 101 Q 246 93 236 94 Z M 235 114 L 229 117 L 223 125 L 221 133 L 221 138 L 224 146 L 233 153 L 241 153 Q 246 149 255 149 L 250 147 L 252 145 L 254 138 L 254 130 L 251 122 L 242 114 L 235 114 Z " /><path fill="rgb(255,255,255)" stroke="rgb(255,255,255)" stroke-width="0" opacity="1" d="M 173.5 108 L 182.5 109 L 193 116.5 L 198 124.5 L 202 137.5 L 202 142.5 L 205.5 148 L 207.5 148 L 214 153.5 L 218 163.5 L 218 180.5 L 210.5 194 Q 203.7 199.7 190.5 199 Q 182 197.5 178 191.5 L 177 189.5 Q 182.2 185.2 181 174.5 L 179 169 Q 182 167.8 181 171.5 L 182 172.5 L 182 183.5 L 179 189.5 Q 181 194 189.5 192 L 200 183.5 L 207 168.5 L 209 154.5 L 206 153 Q 204.9 159.8 198.5 163 L 193.5 165 L 177.5 165 Q 169.6 167.1 166 173.5 Q 161.5 180.3 163 192 Q 156.1 190.2 152 184.5 L 142 164.5 L 141 159.5 L 141 143.5 Q 144.3 124.8 156.5 115 Q 163.1 109.6 173.5 108 Z M 182 117 L 180 119 L 183 120 Q 184 123 182 122 L 180 125 L 184 126 Q 188 125 187 121 L 182 117 Z " /><path fill="rgb(255,255,255)" stroke="rgb(255,255,255)" stroke-width="0" opacity="1" d="M 234.5 118 Q 245.1 116.9 248 123.5 L 251 133.5 L 250 133.5 Q 249.6 128 245.5 126 L 237.5 125 L 232 129.5 Q 228.5 133.5 230 142.5 L 235.5 150 L 237 150.5 L 235.5 151 Q 229.8 149.8 227 145.5 L 225 141.5 L 224 132.5 Q 225.2 124.2 230.5 120 L 234.5 118 Z " /><path fill="rgb(255,255,255)" stroke="rgb(255,255,255)" stroke-width="0" opacity="1" d="M 239 130 L 243 130 L 243 131.5 L 243 133.5 L 241.5 136 L 238 133.5 L 239 130 Z " /><path fill="rgb(255,255,255)" stroke="rgb(255,255,255)" stroke-width="0" opacity="1" d="M 199.5 171 L 203 171.5 Q 199.7 181.2 192.5 187 L 187.5 189 Q 184.3 187.3 186 180.5 L 191.5 173 L 193 173.5 L 192 176.5 L 195 174.5 Q 194.3 172.3 196.5 173 L 199.5 171 Z " /><path fill="rgb(255,255,255)" stroke="rgb(255,255,255)" stroke-width="0" opacity="1" d="M 289.5 189 Q 305 189.5 314.5 196 L 330 209.5 Q 340.6 222.4 348 238.5 L 353 251.5 L 354 259.5 L 352.5 259 L 348.5 258 L 339 249.5 L 332.5 240 L 331 240.5 L 339 254.5 L 341 261.5 L 341 266.5 L 340 269 L 335.5 269 L 326 260.5 L 320.5 251 L 320 253.5 Q 323.3 258.2 322 267.5 L 321 270 L 314.5 269 L 307 261.5 L 303 254.5 L 301 247 Q 298 245.8 299 249.5 Q 301.5 251 300 256.5 L 296.5 263 Q 288.4 262.6 286 256.5 L 280 244.5 L 276.5 231 Q 273.7 232.3 276 233.5 Q 277.1 255.4 290.5 265 L 296.5 266 L 300 263.5 L 302.5 258 Q 306.1 266.9 313.5 272 L 321.5 273 Q 325.5 270 325.5 263 L 331.5 270 Q 334.2 272.8 340.5 272 Q 344.7 269.7 344 262.5 L 342 256.5 L 347.5 261 L 356 264.5 L 366 287.5 L 368 301 L 362.5 299 L 351 287.5 L 340.5 273 L 340 275.5 Q 348.2 290.8 360.5 302 L 367 306.5 L 371 316.5 L 372 326.5 Q 371.3 328.8 367.5 328 Q 349.6 319.9 338 305.5 L 318.5 276 L 318 277.5 Q 324.7 294.3 335 307.5 L 335 317 Q 328 318.2 324.5 315 L 311 302.5 Q 299.3 288 293 269 Q 290.3 267.9 291 270.5 L 301 293.5 L 302 301.5 Q 300.8 304.3 295.5 303 L 287 297 L 274 279.5 L 266 264.5 L 261 249.5 L 259 238.5 L 259 220.5 L 261 211.5 L 265 203.5 L 271.5 196 L 280.5 191 L 289.5 189 Z " /><path fill="rgb(255,255,255)" stroke="rgb(255,255,255)" stroke-width="0" opacity="1" d="M 180.5 224 L 181 231.5 L 182.5 233 Q 187.3 231.3 186 235.5 L 185 236.5 L 185 245.5 L 188 260.5 L 192 271.5 Q 199.7 289.3 213 301.5 L 209.5 299 L 194 284.5 Q 185 273.5 180 258.5 L 178 250.5 L 178 232.5 L 180.5 224 Z " /><path fill="rgb(255,255,255)" stroke="rgb(255,255,255)" stroke-width="0" opacity="1" d="M 305.5 300 Q 310 309.5 318.5 315 L 328.5 321 L 334.5 321 L 337 320 L 339 312.5 L 338.5 311 Q 348.9 324.1 365 331.5 L 368 342 L 353.5 342 L 336 325.5 L 334.5 323 L 333 323.5 L 348 341.5 L 334.5 342 Q 318.9 332.6 307 319.5 L 297 307.5 Q 303.4 307.9 305 303.5 L 305.5 300 Z " /><path fill="rgb(255,255,255)" stroke="rgb(255,255,255)" stroke-width="0" opacity="1" d="M 111 305 Q 128.8 303.9 137 313.5 Q 141.8 318.2 142 327.5 L 141 327.5 L 135.5 321 L 113.5 306 L 113 307.5 Q 128.7 316.8 141 329.5 L 130.5 330 L 120 323.5 Q 112.9 316.2 111 305 Z " /><path fill="rgb(255,255,255)" stroke="rgb(255,255,255)" stroke-width="0" opacity="1" d="M 221.5 310 Q 233.1 321.1 249 327 Q 250 332.6 245.5 334 L 240.5 328 Q 235.5 323.3 226 324 L 221.5 310 Z " /><path fill="rgb(255,255,255)" stroke="rgb(255,255,255)" stroke-width="0" opacity="1" d="M 213.5 327 L 224.5 329 Q 226 326.5 231.5 328 L 241 333.5 L 243 336.5 L 238.5 337 Q 237 334.5 231.5 336 L 226 340.5 L 223 346.5 L 223 355.5 L 221.5 357 L 213.5 358 L 211 354.5 L 210 348.5 Q 212.3 347.2 211 342.5 L 214 336.5 L 220 330.5 L 217.5 330 L 212 333.5 Q 205.9 339.4 206 351.5 L 207 354 L 199 355 Q 196.1 351.1 197 342.5 Q 199.2 334.2 205.5 330 L 213.5 327 Z " /><path fill="rgb(255,255,255)" stroke="rgb(255,255,255)" stroke-width="0" opacity="1" d="M 143.5 331 Q 147.4 336.6 156.5 337 L 157.5 336 L 188.5 336 L 195 337.5 Q 191.3 341.8 193 351.5 L 193.5 353 L 192.5 352 L 185.5 352 L 173.5 349 L 168.5 349 L 153.5 345 L 143.5 345 L 141 346 Q 142.1 343.3 139.5 344 L 137 346.5 L 133 357.5 L 128.5 362 Q 118.1 369.4 99 367 Q 100.1 350.9 111.5 344 L 121.5 340 L 129.5 340 L 134 342.5 Q 114 346.5 104 360.5 L 105.5 361 Q 113.5 352 125.5 347 L 134.5 344 L 153 341 Q 154.3 337.7 149.5 339 L 143 332.5 L 143.5 331 Z " /><path fill="rgb(255,255,255)" stroke="rgb(255,255,255)" stroke-width="0" opacity="1" d="M 257.5 331 Q 265.6 329.4 268.5 333 Q 271.2 330.2 277.5 331 Q 284.9 332.1 288 337.5 L 289 339.5 L 283.5 340 L 281.5 339 L 275 343.5 Q 269.2 349.4 271 362 L 261.5 363 Q 256.3 359.3 258 348.5 Q 260 339.5 266 334.5 L 263.5 334 L 259 337.5 Q 252.2 343.7 254 358.5 L 254.5 360 L 246.5 361 Q 241.9 357.6 243 348.5 Q 245.1 338.1 252.5 333 L 257.5 331 Z " /><path fill="rgb(255,255,255)" stroke="rgb(255,255,255)" stroke-width="0" opacity="1" d="M 138.5 337 Q 144.3 336.3 147 338.5 Q 144.3 341.3 137.5 340 L 135 338.5 L 138.5 337 Z " /><path fill="rgb(255,255,255)" stroke="rgb(255,255,255)" stroke-width="0" opacity="1" d="M 232.5 340 Q 238.6 339.3 241 341 Q 237.9 345.6 239 355.5 L 240 359 L 228.5 358 L 227 356.5 Q 225.1 343.6 232.5 340 Z " /><path fill="rgb(255,255,255)" stroke="rgb(255,255,255)" stroke-width="0" opacity="1" d="M 280.5 344 L 318.5 345 L 319.5 346 L 401 346.5 Q 392.5 352.4 393 366 L 373.5 365 L 372.5 364 L 360.5 364 L 360.5 365 L 393 369 Q 393.3 375.5 397 379.5 L 395.5 379 L 389.5 379 L 388.5 378 L 349.5 373 L 348.5 372 L 294.5 367 L 276 364 Q 274.1 359.9 275 351.5 L 280.5 344 Z M 285 359 L 286 361 L 297 363 L 307 363 L 308 364 Q 312 365 311 362 L 285 359 Z " /><path fill="rgb(255,255,255)" stroke="rgb(255,255,255)" stroke-width="0" opacity="1" d="M 404.5 347 Q 411 346 412 350.5 Q 415.6 355.9 414 366.5 L 408.5 378 L 402.5 380 Q 394.8 375.8 396 362.5 L 398 354.5 L 401 349 L 404.5 347 Z " /><path fill="rgb(255,255,255)" stroke="rgb(255,255,255)" stroke-width="0" opacity="1" d="M 202.5 357 Q 208.6 355.8 208 358.5 L 208.5 360 Q 202.6 360.2 202.5 357 Z " /><path fill="rgb(255,255,255)" stroke="rgb(255,255,255)" stroke-width="0" opacity="1" d="M 216 359 L 224 359 L 224 362 L 221.5 363 L 216 361 L 216 359 Z " /><path fill="rgb(255,255,255)" stroke="rgb(255,255,255)" stroke-width="0" opacity="1" d="M 249.5 363 Q 254.8 361.8 256 364.5 Q 256.9 367.5 252.5 366 L 249.5 363 Z " /><path fill="rgb(255,255,255)" stroke="rgb(255,255,255)" stroke-width="0" opacity="1" d="M 270.5 364 L 272 364 L 272 368 Q 265.7 369.5 264 365.5 L 270.5 364 Z " /><path fill="rgb(255,255,255)" stroke="rgb(255,255,255)" stroke-width="0" opacity="1" d="M 294.5 371 L 308.5 372 L 310 373.5 L 311 383.5 L 318 411.5 L 330 443 L 325.5 442 L 318 434.5 L 306 410.5 L 297 383.5 L 294.5 371 Z " /><path fill="rgb(255,255,255)" stroke="rgb(255,255,255)" stroke-width="0" opacity="1" d="M 312 373 L 335 375 L 344 406.5 L 358 434.5 L 361 447.5 L 361 460.5 L 360 463 L 356.5 464 Q 347.4 461.5 343 454.5 L 336 444.5 L 325 420.5 L 316 392.5 L 312 373 Z " /><path fill="rgb(255,255,255)" stroke="rgb(255,255,255)" stroke-width="0" opacity="1" d="M 337.5 375 L 338.5 376 L 361 378 L 371 411.5 L 373 422.5 L 373 432.5 L 372 435 Q 363.6 434.6 360 428.5 Q 351.9 418.6 347 405.5 L 339 384.5 L 337.5 375 Z " /><path fill="rgb(0,0,0)" stroke="rgb(0,0,0)" stroke-width="0" opacity="1" d="M 204.5 43 L 207 46.5 Q 203.6 49.1 205 56.5 L 208.5 54 Q 220 44.5 241.5 45 L 251 48.5 Q 251.5 52.5 248.5 53 L 243 56.5 Q 264.7 55.8 275 66.5 L 273.5 70 L 272 70.5 Q 285.5 78 295 89.5 Q 304.1 100.9 310 115.5 L 319 142.5 L 319 148 L 313 148 L 313 150.5 L 321 175 L 316.5 176 L 311.5 174 L 311 175.5 L 319 195 L 332 205.5 Q 345 220 353 239.5 L 358 253.5 L 359 261.5 L 370 285.5 L 372 293.5 L 372 303.5 L 371 306.5 L 376 318.5 L 376 328.5 Q 374.7 332.8 370 332 L 373 342 L 406.5 342 L 410.5 343 L 416 348.5 L 419 357.5 L 419 363.5 L 417 372.5 L 410.5 382 L 401.5 385 L 366 379 L 376 413.5 L 377 418.5 L 377 434.5 L 373.5 439 L 370.5 440 L 363.5 437 L 363 439.5 L 366 451.5 L 366 458.5 L 364 464.5 L 361.5 467 L 353.5 468 Q 344.8 464.8 340 457.5 L 332.5 446 Q 331 448.5 325.5 447 L 319 443 Q 310.1 432.1 304 417.5 L 294 388.5 L 291 374.5 L 288.5 370 L 277.5 369 L 276.5 368 L 275 371 L 269.5 373 L 259.5 368 Q 257.8 371.8 250.5 370 L 244 365.5 Q 244.9 362.5 240.5 364 L 229.5 362 Q 227.2 367.2 219.5 367 L 211.5 363 Q 209.8 365.7 203.5 364 L 195.5 357 L 178.5 355 L 152.5 349 L 143.5 349 L 140 351.5 Q 137.8 359.3 132.5 364 L 124.5 369 L 116.5 371 L 96.5 371 L 94 370 L 96 357.5 Q 99.7 348.7 106.5 343 L 117.5 337 L 130.5 336 L 134 334.5 Q 120.5 333 115 323.5 Q 108.5 315.5 106 303.5 Q 109.4 298.9 119.5 301 L 132.5 305 L 141 312.5 Q 146.5 318.3 146 329 L 155.5 333 L 156.5 332 L 190.5 332 Q 191.8 334.3 196.5 333 Q 203.1 322.1 221 322.5 Q 217.3 318.2 217 310.5 L 214.5 308 Q 200.2 300.3 191 287.5 Q 181.3 276.2 176 260.5 L 174 252.5 L 173 238.5 L 176 223.5 L 181 213.5 L 189 203.5 L 179.5 199 L 174 193.5 L 173 189.5 Q 178.2 185.2 177 174.5 L 176 171 L 169 176.5 L 167 183.5 L 167 191.5 L 168 195.5 Q 166.8 198.3 161.5 197 L 150 188.5 Q 136.2 174.8 136 147.5 L 139 132.5 Q 143.8 119.8 153.5 112 L 158 108.5 L 158 99.5 L 162 87.5 L 176.5 71 L 182 67.5 Q 184.1 53.1 194.5 47 L 204.5 43 Z M 200 49 L 197 51 Q 190 55 187 64 L 186 74 L 184 72 L 179 75 Q 166 84 162 102 L 163 107 L 171 104 L 184 105 Q 193 108 198 116 L 202 101 L 207 93 Q 214 83 228 79 Q 238 78 246 80 Q 255 83 262 90 Q 275 103 279 126 Q 282 147 273 158 L 277 163 Q 276 175 269 183 Q 260 195 244 200 Q 239 201 240 198 L 248 196 L 260 188 Q 270 180 274 166 L 274 161 L 269 161 L 273 153 L 276 141 Q 277 112 264 98 L 250 85 L 241 82 Q 223 81 215 89 Q 204 98 201 114 L 201 124 Q 206 131 206 143 L 212 146 L 220 157 L 223 171 L 222 182 L 217 193 Q 213 199 205 202 L 195 203 Q 188 211 185 223 L 186 229 L 190 226 Q 189 223 192 224 L 189 236 L 189 241 L 191 247 Q 190 249 193 248 L 199 236 Q 198 245 202 251 L 207 254 L 211 242 Q 210 237 213 238 L 214 244 L 219 247 Q 223 243 224 236 L 226 235 L 223 247 Q 222 251 217 250 L 213 245 Q 212 253 208 257 L 204 256 Q 198 253 198 246 Q 195 245 196 248 L 191 251 L 191 257 L 198 275 Q 205 288 215 299 Q 232 317 259 327 L 261 326 L 265 327 L 266 327 L 264 321 Q 262 314 266 315 L 270 328 L 272 327 Q 283 326 288 331 L 293 338 L 295 337 L 300 328 Q 299 323 302 324 Q 304 336 297 340 L 302 341 L 325 341 L 317 334 L 296 314 Q 289 301 278 293 L 267 277 L 257 252 L 255 242 L 255 234 L 254 233 L 255 219 L 257 211 L 263 200 Q 271 188 288 185 L 302 186 L 311 189 L 312 190 Q 307 180 305 168 L 305 166 L 315 171 L 316 171 L 310 157 L 306 140 L 314 143 L 303 111 L 291 92 Q 280 78 263 71 Q 260 72 261 69 L 268 67 L 261 63 L 250 61 L 241 61 L 233 63 Q 230 64 231 62 L 243 52 L 244 50 Q 230 48 222 52 L 212 57 L 201 65 L 200 62 L 200 54 L 201 53 Q 202 48 200 49 Z M 174 108 Q 163 110 157 115 Q 144 125 141 144 L 141 160 L 142 165 L 152 185 Q 156 190 163 192 Q 162 180 166 174 Q 170 167 178 165 L 194 165 L 199 163 Q 205 160 206 153 L 209 155 L 207 169 L 200 184 L 190 192 Q 181 194 179 190 L 182 184 L 182 173 L 181 172 Q 182 168 179 169 L 181 175 Q 182 185 177 190 L 178 192 Q 182 198 191 199 Q 204 200 211 194 L 218 181 L 218 164 L 214 154 L 208 148 L 206 148 L 202 143 L 202 138 L 198 125 L 193 117 L 183 109 L 174 108 Z M 200 171 L 197 173 Q 194 172 195 175 L 192 177 L 193 174 L 192 173 L 186 181 Q 184 187 188 189 L 193 187 Q 200 181 203 172 L 200 171 Z M 290 189 L 281 191 L 272 196 L 265 204 L 261 212 L 259 221 L 259 239 L 261 250 L 266 265 L 274 280 L 287 297 L 296 303 Q 301 304 302 302 L 301 294 L 291 271 Q 290 268 293 269 Q 299 288 311 303 L 325 315 Q 328 318 335 317 L 335 308 Q 325 294 318 278 L 319 276 L 338 306 Q 350 320 368 328 Q 371 329 372 327 L 371 317 L 367 307 L 361 302 Q 348 291 340 276 L 341 273 L 351 288 L 363 299 L 368 301 L 366 288 L 356 265 L 348 261 L 342 257 L 344 263 Q 345 270 341 272 Q 334 273 332 270 L 326 263 Q 326 270 322 273 L 314 272 Q 306 267 303 258 L 300 264 L 297 266 L 291 265 Q 277 255 276 234 Q 274 232 277 231 L 280 245 L 286 257 Q 288 263 297 263 L 300 257 Q 302 251 299 250 Q 298 246 301 247 L 303 255 L 307 262 L 315 269 L 321 270 L 322 268 Q 323 258 320 254 L 321 251 L 326 261 L 336 269 L 340 269 L 341 267 L 341 262 L 339 255 L 331 241 L 333 240 L 339 250 L 349 258 L 353 259 L 354 260 L 353 252 L 348 239 Q 341 222 330 210 L 315 196 Q 305 190 290 189 Z M 181 224 L 178 233 L 178 251 L 182 265 Q 191 286 209 299 L 210 299 Q 199 287 192 272 L 188 261 L 185 246 L 185 237 L 186 236 Q 187 231 183 233 L 181 232 L 181 224 Z M 306 300 L 305 304 Q 303 308 297 308 L 307 320 Q 319 333 335 342 L 348 342 L 333 324 L 335 323 L 336 326 L 354 342 L 368 342 L 365 332 Q 350 324 340 312 L 337 320 L 335 321 L 329 321 L 319 315 Q 310 310 306 300 Z M 111 305 Q 113 316 120 324 L 131 330 L 141 330 Q 129 317 113 308 L 114 306 L 136 321 L 141 328 L 142 328 Q 142 318 137 314 Q 129 304 111 305 Z M 222 310 L 226 324 Q 236 323 241 328 L 246 334 Q 250 333 249 327 Q 233 321 222 310 Z M 214 327 L 206 330 Q 199 334 197 343 Q 196 351 199 355 L 207 354 L 206 352 Q 206 339 212 334 L 218 330 L 220 331 L 214 337 L 211 343 Q 212 347 210 349 L 211 355 L 214 358 L 222 357 L 223 356 L 223 347 L 226 341 L 232 336 Q 237 335 239 337 L 243 337 L 241 334 L 232 328 Q 226 327 225 329 L 214 327 Z M 144 331 L 143 333 L 150 339 Q 154 338 153 341 L 140 343 L 140 344 Q 142 343 141 346 L 144 345 L 154 345 L 180 351 L 193 352 Q 191 342 195 338 L 189 336 L 158 336 L 157 337 Q 147 337 144 331 Z M 258 331 L 253 333 Q 245 338 243 349 Q 242 358 247 361 L 255 360 L 254 359 Q 252 344 259 338 L 264 334 L 266 335 Q 260 340 258 349 Q 256 359 262 363 L 271 362 Q 269 349 275 344 L 282 339 L 284 340 L 289 340 L 288 338 Q 285 332 278 331 Q 271 330 269 333 Q 266 329 258 331 Z M 139 337 L 135 339 L 138 340 Q 144 341 147 339 Q 144 336 139 337 Z M 122 340 L 112 344 Q 100 351 99 367 Q 118 369 129 362 Q 136 357 137 347 L 139 344 Q 117 347 106 361 L 104 361 Q 114 347 134 343 Q 130 339 122 340 Z M 233 340 Q 225 344 227 357 L 229 358 L 240 359 L 239 356 Q 238 346 241 341 Q 239 339 233 340 Z M 281 344 L 275 352 Q 274 360 276 364 L 295 367 L 349 372 L 350 373 L 389 378 L 390 379 L 396 379 L 397 380 Q 393 375 393 369 L 361 365 L 361 364 L 373 364 L 374 365 L 393 366 Q 393 352 401 347 L 320 346 L 319 345 L 281 344 Z M 405 347 L 401 349 L 398 355 L 396 363 Q 395 376 403 380 L 409 378 L 414 367 Q 416 356 412 351 Q 411 346 405 347 Z M 203 357 Q 203 360 209 360 L 208 359 Q 209 356 203 357 Z M 216 359 L 216 361 L 222 363 L 224 362 L 224 359 L 216 359 Z M 250 363 L 253 366 Q 257 367 256 365 Q 255 362 250 363 Z M 271 364 L 264 366 Q 266 370 272 368 L 272 364 L 271 364 Z M 295 371 L 297 384 L 306 411 L 318 435 L 326 442 L 330 443 L 318 412 L 311 384 L 310 374 L 309 372 L 295 371 Z M 312 373 L 316 393 L 325 421 L 336 445 L 343 455 Q 347 462 357 464 L 360 463 L 361 461 L 361 448 L 358 435 L 344 407 L 335 375 L 312 373 Z M 338 375 L 339 385 L 347 406 Q 352 419 360 429 Q 364 435 372 435 L 373 433 L 373 423 L 371 412 L 361 378 L 339 376 L 338 375 Z " /><path fill="rgb(0,0,0)" stroke="rgb(0,0,0)" stroke-width="0" opacity="1" d="M 235.5 94 Q 246.1 93.4 249 100.5 L 251 106 L 241.5 101 L 232.5 101 L 230.5 102 Q 227.8 100.8 230 99.5 L 233.5 95 L 235.5 94 Z " /><path fill="rgb(0,0,0)" stroke="rgb(0,0,0)" stroke-width="0" opacity="1" d="M 234.5 114 L 241.5 114 L 251 121.5 L 254 129.5 L 254 137.5 L 252 144.5 L 250 146.5 L 255 148.5 Q 245.6 148.6 240.5 153 L 232.5 153 L 224 145.5 L 221 137.5 L 221 132.5 L 223 124.5 L 228.5 117 L 234.5 114 Z M 235 118 L 231 120 Q 225 124 224 133 L 225 142 L 227 146 L 233 150 L 235 150 L 230 143 Q 229 134 232 130 L 238 125 L 246 126 Q 250 128 250 134 L 251 134 L 248 124 Q 245 117 235 118 Z M 239 130 L 238 134 L 242 136 L 243 134 L 243 132 L 243 130 L 239 130 Z " /><path fill="rgb(0,0,0)" stroke="rgb(0,0,0)" stroke-width="0" opacity="1" d="M 181.5 117 L 187 120.5 Q 187.5 125.5 183.5 126 L 180 124.5 L 181.5 122 Q 184.1 122.7 183 120 L 180 118.5 L 181.5 117 Z " /><path fill="rgb(0,0,0)" stroke="rgb(0,0,0)" stroke-width="0" opacity="1" d="M 284.5 359 L 311 362 Q 312.3 365.3 307.5 364 L 306.5 363 L 296.5 363 L 285.5 361 L 284.5 359 Z " /></svg>