<svg width="627" height="627" preserveAspectRatio="xMidYMid meet" viewBox="0 0 512 512" version="1.1" xmlns="http://www.w3.org/2000/svg" ><path fill="rgb(255,255,255)" stroke="rgb(255,255,255)" stroke-width="0" opacity="1" d="M 0 0 L 512 0 L 512 512 L 0 512 L 0 0 Z M 368 62 L 349 76 L 317 88 L 297 79 L 271 74 L 243 74 Q 241 77 235 75 L 205 83 L 194 89 L 161 79 L 139 65 L 136 66 L 131 75 L 131 83 L 134 91 Q 129 90 128 94 Q 127 113 138 120 L 136 123 L 140 132 L 145 136 L 139 147 L 132 174 L 132 198 Q 134 199 133 204 Q 137 221 148 233 Q 136 243 128 259 L 124 269 L 120 290 L 121 312 L 126 332 Q 134 353 148 369 Q 158 382 175 388 L 181 385 L 182 388 L 185 389 L 194 402 Q 180 401 174 409 L 167 420 Q 166 427 169 431 L 177 435 Q 182 433 181 437 L 189 442 Q 197 443 201 439 L 210 444 Q 216 444 221 441 L 232 430 Q 240 431 245 429 Q 250 426 250 419 L 261 421 L 260 425 Q 258 435 262 440 Q 265 444 271 445 Q 276 446 279 443 L 286 448 L 291 449 L 297 448 L 303 443 L 306 444 Q 313 445 316 442 Q 321 438 321 429 L 325 430 L 342 430 L 349 427 L 352 421 L 359 420 L 362 418 L 364 415 L 364 411 L 352 399 Q 359 393 361 383 Q 362 380 366 381 L 370 377 L 374 366 Q 372 361 377 362 Q 382 358 384 352 L 389 335 L 391 318 L 392 317 L 392 292 L 389 275 Q 383 252 370 238 L 363 232 L 374 210 L 378 187 L 377 170 L 373 153 L 365 136 L 365 134 L 372 125 Q 374 118 371 117 Q 377 111 379 103 Q 380 93 378 89 L 374 88 L 372 89 L 374 85 L 374 70 L 372 66 L 368 62 Z " /><path fill="rgb(255,255,255)" stroke="rgb(255,255,255)" stroke-width="0" opacity="1" d="M 367.5 67 Q 371 71.5 370 80.5 L 365 94.5 L 357 105 L 363.5 102 L 373.5 93 Q 376 94 375 98.5 Q 372.1 112.1 362.5 119 L 355 123.5 L 355.5 125 L 367.5 121 L 367 122.5 Q 365.8 128.3 361.5 131 L 357 133 Q 355.8 136 359.5 135 Q 366.6 144.9 370 158.5 L 372 168.5 L 372 176.5 L 373 177.5 L 373 189.5 L 370 206.5 L 363 222.5 L 347.5 240 Q 336.1 249.8 320 254 Q 318.7 257.3 323.5 256 L 329.5 254 L 330 255.5 L 324 269.5 L 322 280.5 L 322 306.5 L 335 371.5 Q 327.5 387.5 314.5 398 Q 311.2 396.9 312 399.5 Q 308.1 404.6 300.5 406 L 296.5 404 Q 293.3 408.3 284.5 407 L 278 402.5 L 275 396 Q 271.7 394.7 273 399.5 L 275 405 L 259.5 406 L 258.5 405 L 246.5 404 L 237.5 401 L 224 393 L 231.5 402 L 234 403.5 Q 229 407 220.5 407 L 211.5 403 L 208.5 405 Q 199.2 401.8 194 394.5 L 196 393.5 L 179 377.5 L 165 354.5 L 159 336.5 L 158 324.5 L 157 323.5 L 157 299.5 L 162 276.5 L 173 254 L 169 256.5 Q 150.6 278.1 152 319.5 L 156 339.5 L 156 355.5 L 155 358 L 150 355.5 L 140 336.5 L 137 325.5 L 134.5 305 Q 131.1 308.6 133 317.5 L 135 327.5 L 135 337.5 L 133 336.5 L 126 312.5 L 125 288.5 L 130 265.5 Q 136.7 248.7 149.5 238 L 151.5 237 Q 163 250.5 184.5 254 L 183.5 252 Q 163.2 244.8 151 229.5 Q 142.2 218.8 138 203.5 L 137 190.5 L 136 189.5 L 136 180.5 L 137 179.5 L 138 165.5 L 142 151.5 L 148 138.5 L 152 134.5 Q 145.2 132.3 142 126.5 L 141 123 L 153.5 126 L 154 124.5 Q 143.5 120.5 137 112.5 Q 131.5 106.8 132 96 L 147.5 105 Q 150.5 103.5 147.5 102 L 143 98.5 L 137 87.5 L 136 73.5 L 138.5 70 Q 146.5 78 157.5 83 Q 171.8 89.2 189.5 92 L 206.5 99 L 202.5 94 L 198 91.5 L 212.5 85 L 227.5 81 L 239.5 80 L 240.5 79 L 271.5 79 L 299.5 85 L 311 90.5 L 299 98 Q 297.9 100.7 300.5 100 L 314.5 93 L 342.5 84 Q 357.2 77.7 367.5 67 Z M 309 114 L 308 115 L 296 116 L 288 119 L 275 127 Q 259 139 253 160 Q 249 144 239 134 Q 227 120 206 115 L 191 115 L 186 116 L 166 126 Q 148 140 144 167 L 144 187 L 147 200 L 159 222 Q 171 237 191 245 L 209 251 L 227 253 L 228 254 L 239 254 L 239 252 L 220 250 L 195 243 L 181 236 L 167 226 L 158 215 L 151 201 L 147 182 Q 147 153 159 138 Q 169 123 189 119 L 207 119 L 215 121 L 231 130 Q 240 138 246 151 L 250 163 L 251 180 L 253 181 L 254 177 L 255 164 L 258 155 L 266 141 L 284 125 L 296 120 L 306 118 L 323 119 L 340 127 L 353 143 L 357 152 L 360 167 L 360 181 L 357 196 Q 353 210 344 221 Q 333 233 318 241 L 302 247 L 274 252 L 267 252 L 266 254 Q 313 255 338 232 Q 350 221 357 206 L 362 191 L 363 178 L 364 177 L 363 176 L 363 162 L 361 154 L 351 134 Q 343 123 331 118 L 322 115 L 309 114 Z M 308 133 L 304 135 L 301 141 L 315 141 L 325 147 L 327 147 L 323 138 L 317 134 L 308 133 Z M 194 134 L 188 137 Q 182 141 181 148 L 190 143 L 197 141 Q 201 140 203 142 Q 206 143 207 141 L 206 138 Q 203 132 194 134 Z M 305 155 L 296 157 L 291 160 L 282 170 L 278 185 L 280 197 L 284 204 Q 290 211 300 214 Q 315 216 322 209 Q 330 202 333 190 Q 334 175 328 168 Q 321 156 305 155 Z M 197 156 L 184 162 Q 175 169 173 182 Q 172 197 179 205 L 188 212 L 198 215 Q 210 215 217 209 Q 225 202 227 189 Q 227 173 219 165 Q 213 155 197 156 Z M 249 190 L 241 194 Q 230 201 228 218 L 233 221 L 240 240 L 249 247 L 258 246 Q 269 238 271 221 L 277 217 Q 276 207 271 202 L 263 193 L 257 190 L 249 190 Z M 182 268 L 179 273 Q 177 284 182 289 L 189 293 L 199 293 L 210 285 Q 209 291 212 294 Q 215 299 223 301 Q 230 302 234 299 Q 240 295 243 287 L 247 295 L 257 301 Q 267 303 272 298 Q 278 293 280 283 L 282 287 L 293 293 Q 301 294 305 291 L 309 287 L 312 278 L 310 277 L 308 284 Q 306 289 300 290 L 293 290 L 286 286 L 280 280 Q 281 277 278 278 Q 278 287 273 293 L 265 298 Q 256 299 252 295 Q 246 291 244 284 Q 245 280 242 281 L 239 290 Q 235 296 228 298 Q 221 299 219 296 L 214 292 L 211 283 Q 212 278 209 279 L 207 284 L 198 290 Q 189 291 186 288 L 181 279 Q 180 274 182 273 L 182 268 Z M 175 305 L 173 308 Q 173 318 177 324 L 186 330 L 195 330 L 202 326 L 207 320 L 211 331 Q 215 336 222 338 Q 232 340 237 335 Q 242 331 245 324 L 249 333 L 260 339 Q 268 340 273 336 Q 279 332 280 324 L 289 331 L 294 333 Q 300 334 304 331 Q 310 327 312 318 Q 313 315 310 316 L 306 326 L 298 330 Q 290 330 287 326 L 282 320 L 279 318 L 276 329 Q 273 334 266 336 L 261 336 L 253 332 L 246 323 Q 247 318 243 320 L 241 327 L 231 335 Q 221 336 217 332 L 212 327 L 208 315 L 206 318 Q 202 325 194 327 Q 186 328 183 325 L 177 319 L 175 305 Z M 189 347 L 188 352 L 192 360 Q 196 365 203 367 Q 212 368 217 364 Q 222 360 223 354 Q 220 353 221 356 L 211 364 Q 202 365 199 362 L 193 357 L 189 347 Z M 298 354 L 295 359 Q 292 364 285 366 Q 276 367 273 363 L 267 357 Q 268 354 265 355 L 267 361 L 278 369 L 286 369 L 294 364 L 298 357 L 298 354 Z M 227 355 L 228 362 Q 232 369 241 371 Q 250 373 254 369 L 262 359 L 262 356 L 258 362 L 249 368 L 241 368 L 234 364 L 227 355 Z " /><path fill="rgb(255,255,255)" stroke="rgb(255,255,255)" stroke-width="0" opacity="1" d="M 300.5 160 L 311.5 160 L 324 168.5 L 329 179.5 L 329 191.5 Q 326.6 201.6 319.5 207 L 310.5 211 L 300.5 211 Q 291.6 208.9 287 202.5 L 282 190.5 L 282 180.5 Q 284.3 170.8 290.5 165 L 300.5 160 Z M 301 169 L 297 171 Q 290 175 288 185 Q 287 195 292 201 L 302 207 Q 311 208 315 204 Q 321 200 322 191 L 322 185 L 319 177 L 310 169 L 301 169 Z " /><path fill="rgb(255,255,255)" stroke="rgb(255,255,255)" stroke-width="0" opacity="1" d="M 194.5 161 Q 213.2 159.3 219 170.5 Q 225.2 177.8 223 193.5 Q 220.5 202 214.5 207 L 207.5 211 L 198.5 212 Q 197.3 209.8 192.5 211 L 183 204.5 L 177 192.5 L 177 179.5 Q 179.8 169.3 187.5 164 L 194.5 161 Z M 201 169 L 196 170 L 189 174 L 184 185 L 184 193 L 188 202 Q 192 206 199 208 Q 206 209 209 206 Q 216 201 218 191 L 217 182 L 215 178 Q 211 170 201 169 Z " /><path fill="rgb(255,255,255)" stroke="rgb(255,255,255)" stroke-width="0" opacity="1" d="M 309.5 175 L 314 177.5 L 315 181.5 L 311.5 186 Q 306 187 305 183.5 Q 303.8 177.3 307.5 176 L 309.5 175 Z " /><path fill="rgb(255,255,255)" stroke="rgb(255,255,255)" stroke-width="0" opacity="1" d="M 205.5 176 L 210 178.5 L 211 182.5 L 207.5 187 Q 202 188 201 184.5 Q 200.4 179.1 202 177 L 205.5 176 Z " /><path fill="rgb(255,255,255)" stroke="rgb(255,255,255)" stroke-width="0" opacity="1" d="M 249.5 194 L 257.5 195 L 264 199 L 270 207.5 L 273 215.5 L 269.5 218 L 260.5 220 L 251.5 228 L 240.5 219 Q 234.1 219.4 232 215.5 Q 234.4 202.9 243.5 197 L 249.5 194 Z " /><path fill="rgb(255,255,255)" stroke="rgb(255,255,255)" stroke-width="0" opacity="1" d="M 238.5 223 L 242 225.5 Q 243.4 233.1 248.5 237 L 253.5 238 L 258 234.5 L 264.5 223 Q 267.5 222.1 266 226.5 L 259 240 L 253.5 243 L 250.5 243 L 243 236.5 L 238.5 223 Z " /><path fill="rgb(255,255,255)" stroke="rgb(255,255,255)" stroke-width="0" opacity="1" d="M 258.5 227 L 258 228.5 L 253.5 235 Q 248.8 235.8 248 232.5 L 247 230.5 L 249.5 232 L 253.5 232 L 258.5 227 Z " /><path fill="rgb(255,255,255)" stroke="rgb(255,255,255)" stroke-width="0" opacity="1" d="M 359.5 235 L 370 244.5 L 379 259.5 L 384 273.5 L 387 288.5 L 388 305.5 L 387 306.5 L 387 317.5 L 384.5 323 L 382 320.5 L 379 312.5 L 379 296.5 L 376 283.5 L 374.5 282 L 374 286.5 L 376 296.5 L 376 313.5 L 374 323.5 L 369.5 331 L 366.5 331 L 360 324.5 L 354 312.5 L 348.5 295 L 348 301.5 Q 350.7 315.3 357 325.5 L 364.5 334 L 369.5 335 L 373 332.5 L 378.5 319 L 382.5 326 Q 387.1 324.6 385 330.5 L 380 349.5 L 374.5 358 Q 368.8 351.5 368 341 Q 365 339.8 366 343.5 L 370 357.5 L 370 364.5 L 364.5 376 Q 359.8 376.8 359 373.5 L 353 360.5 L 348.5 338 L 347 350.5 L 345.5 352 L 343.5 352 L 339 347.5 Q 325.3 323.7 326 285.5 L 327 284.5 L 327 276.5 L 329 266.5 L 332 257.5 L 335.5 252 Q 350.1 246.1 359.5 235 Z " /><path fill="rgb(255,255,255)" stroke="rgb(255,255,255)" stroke-width="0" opacity="1" d="M 137.5 338 Q 141.3 351.7 150.5 360 L 155.5 361 Q 159.5 358.5 159.5 352 L 166 366.5 L 176 380.5 L 176 383 L 167.5 380 L 154 368.5 Q 142.2 357.3 136 340.5 L 137.5 338 Z " /><path fill="rgb(255,255,255)" stroke="rgb(255,255,255)" stroke-width="0" opacity="1" d="M 334.5 345 L 339 353 L 345.5 356 Q 347.2 352.3 349 355.5 Q 350.7 369.8 358 378.5 Q 356.2 388.2 350.5 394 Q 346.5 394.5 346 391.5 L 340 376.5 L 334.5 345 Z " /><path fill="rgb(255,255,255)" stroke="rgb(255,255,255)" stroke-width="0" opacity="1" d="M 335.5 380 Q 338.1 379.2 337 382.5 Q 341.9 398.1 353.5 407 L 359 411.5 L 357.5 415 Q 354 417.5 346.5 416 Q 329.8 411.8 320 400.5 L 320 398.5 Q 329.6 391.1 335.5 380 Z " /><path fill="rgb(255,255,255)" stroke="rgb(255,255,255)" stroke-width="0" opacity="1" d="M 316.5 402 L 319 403.5 L 320.5 406 L 332.5 415 L 347 421.5 L 341.5 425 L 329.5 426 Q 328 423.5 322.5 425 L 319 422.5 L 311.5 413 L 308 410.5 Q 306.5 406.1 309.5 407 L 316.5 402 Z " /><path fill="rgb(255,255,255)" stroke="rgb(255,255,255)" stroke-width="0" opacity="1" d="M 190.5 406 L 202.5 406 Q 204.4 409.6 210.5 409 L 213.5 408 L 216.5 410 L 225.5 411 L 235 408 Q 233.9 410.7 236.5 410 L 243 413 L 245 416.5 L 245 422.5 Q 241.6 427.1 231.5 425 L 224 430.5 L 218.5 437 Q 215.2 439.7 208.5 439 L 205 436.5 L 204 428.5 Q 205.5 422 210.5 419 Q 213.1 419.7 212 417 Q 205.4 418.1 202 423.5 L 199 432.5 Q 201.7 434.3 197.5 436 L 188.5 437 L 185 434.5 L 184 425.5 L 191.5 416 L 196 413.5 Q 196.8 411.3 194.5 412 Q 186.2 414.2 182 420.5 L 179 430 Q 173.4 431 172 426.5 L 172 418.5 L 179.5 410 L 190.5 406 Z " /><path fill="rgb(255,255,255)" stroke="rgb(255,255,255)" stroke-width="0" opacity="1" d="M 239.5 406 L 253.5 410 L 268 410 L 264.5 416 L 255.5 416 L 248 414 L 244.5 409 L 239.5 407 L 239.5 406 Z " /><path fill="rgb(255,255,255)" stroke="rgb(255,255,255)" stroke-width="0" opacity="1" d="M 278.5 408 Q 282.3 412.2 291.5 411 L 297.5 409 L 304 410 L 304 412.5 L 308.5 417 L 313 420.5 Q 317.3 424.7 316 434.5 L 314 438 Q 310.9 440 304 439 L 304 429.5 L 300 422 L 297 422.5 Q 301.5 427 300 437.5 L 295.5 443 L 287.5 444 L 282 439.5 L 280 433.5 L 280 428.5 L 282 422 L 279 423.5 L 277 427.5 L 276 434.5 L 277 439 L 270.5 440 L 265 435.5 L 264 427.5 Q 266 418.5 272 413.5 L 272 410 L 278.5 408 Z " /><path fill="rgb(0,0,0)" stroke="rgb(0,0,0)" stroke-width="0" opacity="1" d="M 367.5 62 L 372 65.5 L 374 69.5 L 374 84.5 L 373 88 L 378 89 Q 380.4 92.9 379 102.5 Q 376.5 111 371 116.5 Q 373.8 118.2 372 124.5 L 365 133.5 L 365 135.5 L 373 152.5 L 377 169.5 L 378 186.5 L 374 209.5 L 363 231.5 L 370 237.5 Q 383.3 252.2 389 274.5 L 392 291.5 L 392 316.5 L 391 317.5 L 389 334.5 L 384 351.5 Q 381.8 358.3 376.5 362 Q 372.3 360.7 374 365.5 L 370 376.5 L 365.5 381 Q 361.8 380.3 361 382.5 Q 359.4 393.4 352 398.5 L 364 410.5 L 364 414.5 L 361.5 418 L 358.5 420 L 352 421 L 348.5 427 L 341.5 430 L 324.5 430 L 321 429 Q 321.5 438.2 315.5 442 Q 312.5 445 305.5 444 L 302.5 443 L 296.5 448 L 290.5 449 L 285.5 448 L 278.5 443 Q 276.2 445.7 270.5 445 Q 264.8 443.8 262 439.5 Q 258.2 434.8 260 424.5 L 261 421 L 250 419 Q 250.1 426.3 244.5 429 Q 239.8 431.3 231.5 430 L 220.5 441 Q 216.5 444 209.5 444 L 200.5 439 Q 197 443 188.5 442 L 181 436.5 Q 181.9 433.1 176.5 435 L 169 430.5 Q 165.8 427.2 167 419.5 L 173.5 409 Q 180.3 401.4 194 402 L 184.5 389 L 182 387.5 L 180.5 385 L 174.5 388 Q 157.8 381.7 148 368.5 Q 134.1 352.9 126 331.5 L 121 311.5 L 120 289.5 L 124 268.5 L 128 258.5 Q 135.7 243.2 148 232.5 Q 137.4 221.1 133 203.5 Q 134.2 198.8 132 197.5 L 132 173.5 L 139 146.5 L 145 135.5 L 140 131.5 L 136 122.5 L 138 119.5 Q 127 112.5 128 93.5 Q 129.3 90.3 134 90.5 L 131 82.5 L 131 74.5 L 135.5 66 L 138.5 65 L 160.5 79 L 193.5 89 L 204.5 83 L 234.5 75 Q 240.7 76.8 242.5 74 L 270.5 74 L 296.5 79 L 316.5 88 L 348.5 76 L 367.5 62 Z M 368 67 Q 357 78 343 84 L 315 93 L 301 100 Q 298 101 299 98 L 311 91 L 300 85 L 272 79 L 241 79 L 240 80 L 228 81 L 213 85 L 198 92 L 203 94 L 207 99 L 190 92 Q 172 89 158 83 Q 147 78 139 70 L 136 74 L 137 88 L 143 99 L 148 102 Q 151 104 148 105 L 132 96 Q 132 107 137 113 Q 143 121 154 125 L 154 126 L 141 123 L 142 127 Q 145 132 152 135 L 148 139 L 142 152 L 138 166 L 137 180 L 136 181 L 136 190 L 137 191 L 138 204 Q 142 219 151 230 Q 163 245 184 252 L 185 254 Q 163 251 152 237 L 150 238 Q 137 249 130 266 L 125 289 L 126 313 L 133 337 L 135 338 L 135 328 L 133 318 Q 131 309 135 305 L 137 326 L 140 337 L 150 356 L 155 358 L 156 356 L 156 340 L 152 320 Q 151 278 169 257 L 173 254 L 162 277 L 157 300 L 157 324 L 158 325 L 159 337 L 165 355 L 179 378 L 196 394 L 194 395 Q 199 402 209 405 L 212 403 L 221 407 Q 229 407 234 404 L 232 402 L 224 393 L 238 401 L 247 404 L 259 405 L 260 406 L 275 405 L 273 400 Q 272 395 275 396 L 278 403 L 285 407 Q 293 408 297 404 L 301 406 Q 308 405 312 400 Q 311 397 315 398 Q 327 387 335 372 L 322 307 L 322 281 L 324 270 L 330 256 L 330 254 L 324 256 Q 319 257 320 254 Q 336 250 348 240 L 363 223 L 370 207 L 373 190 L 373 178 L 372 177 L 372 169 L 370 159 Q 367 145 360 135 Q 356 136 357 133 L 362 131 Q 366 128 367 123 L 368 121 L 356 125 L 355 124 L 363 119 Q 372 112 375 99 Q 376 94 374 93 L 364 102 L 357 105 L 365 95 L 370 81 Q 371 72 368 67 Z M 360 235 Q 350 246 336 252 L 332 258 L 329 267 L 327 277 L 327 285 L 326 286 Q 325 324 339 348 L 344 352 L 346 352 L 347 351 L 349 338 L 353 361 L 359 374 Q 360 377 365 376 L 370 365 L 370 358 L 366 344 Q 365 340 368 341 Q 369 352 375 358 L 380 350 L 385 331 Q 387 325 383 326 L 379 319 L 373 333 L 370 335 L 365 334 L 357 326 Q 351 315 348 302 L 349 295 L 354 313 L 360 325 L 367 331 L 370 331 L 374 324 L 376 314 L 376 297 L 374 287 L 375 282 L 376 284 L 379 297 L 379 313 L 382 321 L 385 323 L 387 318 L 387 307 L 388 306 L 387 289 L 384 274 L 379 260 L 370 245 L 360 235 Z M 138 338 L 136 341 Q 142 357 154 369 L 168 380 L 176 383 L 176 381 L 166 367 L 160 352 Q 160 359 156 361 L 151 360 Q 141 352 138 338 Z M 336 347 L 335 353 L 337 358 L 339 373 L 346 392 Q 346 395 351 394 Q 356 388 358 379 Q 351 370 349 356 Q 347 352 346 356 L 339 353 L 336 347 Z M 336 380 Q 330 391 320 399 L 320 401 Q 330 412 347 416 Q 354 418 358 415 L 359 412 L 354 407 Q 342 398 337 383 Q 338 379 336 380 Z M 317 402 L 310 407 Q 307 406 308 411 L 312 413 L 319 423 L 323 425 Q 328 424 330 426 L 342 425 L 347 422 L 333 415 L 321 406 L 319 404 L 317 402 Z M 191 406 L 180 410 L 172 419 L 172 427 Q 173 431 179 430 L 182 421 Q 186 414 195 412 Q 197 411 196 414 L 192 416 L 184 426 L 185 435 L 189 437 L 198 436 Q 202 434 199 433 L 202 424 Q 205 418 212 417 Q 213 420 211 419 Q 206 422 204 429 L 205 437 L 209 439 Q 215 440 219 437 L 224 431 L 232 425 Q 242 427 245 423 L 245 417 L 243 413 L 237 410 Q 234 411 235 408 L 226 411 L 217 410 L 214 408 L 211 409 Q 204 410 203 406 L 191 406 Z M 242 407 Q 241 409 245 409 L 248 414 L 256 416 L 265 416 L 268 410 L 254 410 L 242 407 Z M 279 408 L 272 410 L 272 414 Q 266 419 264 428 L 265 436 L 271 440 L 277 439 L 276 435 L 277 428 L 279 424 L 282 422 L 280 429 L 280 434 L 282 440 L 288 444 L 296 443 L 300 438 Q 302 427 297 423 L 300 422 L 304 430 L 304 439 Q 311 440 314 438 L 316 435 Q 317 425 313 421 L 309 417 L 304 413 L 304 410 L 298 409 L 292 411 Q 282 412 279 408 Z " /><path fill="rgb(0,0,0)" stroke="rgb(0,0,0)" stroke-width="0" opacity="1" d="M 308.5 114 L 321.5 115 L 330.5 118 Q 343.1 123.4 351 133.5 L 361 153.5 L 363 161.5 L 363 175.5 L 364 176.5 L 363 177.5 L 362 190.5 L 357 205.5 Q 349.9 221.4 337.5 232 Q 312.8 254.5 266 254 L 266.5 252 L 273.5 252 L 301.5 247 L 317.5 241 Q 333.4 233.4 344 220.5 Q 352.8 210.3 357 195.5 L 360 180.5 L 360 166.5 L 357 151.5 L 353 142.5 L 339.5 127 L 322.5 119 L 305.5 118 L 295.5 120 L 283.5 125 L 266 140.5 L 258 154.5 L 255 163.5 L 254 176.5 L 252.5 181 L 251 179.5 L 250 162.5 L 246 150.5 Q 240.4 138.1 230.5 130 L 214.5 121 L 206.5 119 L 188.5 119 Q 168.9 123.4 159 137.5 Q 146.6 153.1 147 181.5 L 151 200.5 L 158 214.5 L 167 226 L 180.5 236 L 194.5 243 L 219.5 250 L 239 252 L 238.5 254 L 227.5 254 L 226.5 253 L 208.5 251 L 190.5 245 Q 171.4 236.6 159 221.5 L 147 199.5 L 144 186.5 L 144 166.5 Q 148.4 139.9 165.5 126 L 185.5 116 L 190.5 115 L 205.5 115 Q 226.9 119.6 239 133.5 Q 248.6 143.9 252.5 160 Q 258.9 138.9 274.5 127 L 287.5 119 L 295.5 116 L 307.5 115 L 308.5 114 Z " /><path fill="rgb(0,0,0)" stroke="rgb(0,0,0)" stroke-width="0" opacity="1" d="M 307.5 133 L 316.5 134 L 323 138 L 327 147 L 324.5 147 L 314.5 141 L 301 141 L 303.5 135 L 307.5 133 Z " /><path fill="rgb(0,0,0)" stroke="rgb(0,0,0)" stroke-width="0" opacity="1" d="M 193.5 134 Q 203.3 132.3 206 137.5 L 207 140.5 Q 206.3 142.8 202.5 142 Q 201.2 139.8 196.5 141 L 189.5 143 L 181 148 Q 181.8 140.5 187.5 137 L 193.5 134 Z " /><path fill="rgb(0,0,0)" stroke="rgb(0,0,0)" stroke-width="0" opacity="1" d="M 304.5 155 Q 321.4 156.1 328 167.5 Q 334.1 174.9 333 189.5 Q 330.4 202.4 321.5 209 Q 315 216 299.5 214 Q 289.6 210.9 284 203.5 L 280 196.5 L 278 184.5 L 282 169.5 L 290.5 160 L 295.5 157 L 304.5 155 Z M 301 160 L 291 165 Q 284 171 282 181 L 282 191 L 287 203 Q 292 209 301 211 L 311 211 L 320 207 Q 327 202 329 192 L 329 180 L 324 169 L 312 160 L 301 160 Z " /><path fill="rgb(0,0,0)" stroke="rgb(0,0,0)" stroke-width="0" opacity="1" d="M 196.5 156 Q 212.5 155.5 219 164.5 Q 227 172.5 227 188.5 Q 224.8 201.8 216.5 209 Q 210.3 215.3 197.5 215 L 187.5 212 L 179 204.5 Q 172.2 196.8 173 181.5 Q 175.1 168.6 183.5 162 L 196.5 156 Z M 195 161 L 188 164 Q 180 169 177 180 L 177 193 L 183 205 L 193 211 Q 197 210 199 212 L 208 211 L 215 207 Q 220 202 223 194 Q 225 178 219 171 Q 213 159 195 161 Z " /><path fill="rgb(0,0,0)" stroke="rgb(0,0,0)" stroke-width="0" opacity="1" d="M 200.5 169 Q 211.2 169.8 215 177.5 L 217 181.5 L 218 190.5 Q 216.4 201.4 208.5 206 Q 205.5 209 198.5 208 Q 191.6 206.5 188 201.5 L 184 192.5 L 184 184.5 L 189 174 L 195.5 170 L 200.5 169 Z M 206 176 L 202 177 Q 200 179 201 185 Q 202 188 208 187 L 211 183 L 210 179 L 206 176 Z " /><path fill="rgb(0,0,0)" stroke="rgb(0,0,0)" stroke-width="0" opacity="1" d="M 300.5 169 L 309.5 169 L 319 176.5 L 322 184.5 L 322 190.5 Q 320.5 199.5 314.5 204 Q 310.7 208.2 301.5 207 L 292 200.5 Q 287.1 195.4 288 184.5 Q 289.8 175.3 296.5 171 L 300.5 169 Z M 310 175 L 308 176 Q 304 177 305 184 Q 306 187 312 186 L 315 182 L 314 178 L 310 175 Z " /><path fill="rgb(0,0,0)" stroke="rgb(0,0,0)" stroke-width="0" opacity="1" d="M 248.5 190 L 256.5 190 L 262.5 193 L 271 201.5 Q 276.2 206.7 277 216.5 L 271 221 Q 269.4 238.1 257.5 246 L 248.5 247 L 240 239.5 L 232.5 221 L 228 217.5 Q 229.7 201.2 240.5 194 L 248.5 190 Z M 250 194 L 244 197 Q 234 203 232 216 Q 234 219 241 219 L 252 228 L 261 220 L 270 218 L 273 216 L 270 208 L 264 199 L 258 195 L 250 194 Z M 265 223 L 258 235 L 254 238 L 249 237 Q 243 233 242 226 L 239 224 L 239 228 L 243 237 L 251 243 L 254 243 L 259 240 L 266 227 Q 268 222 265 223 Z M 258 228 L 254 232 L 249 231 L 248 233 Q 249 236 254 235 L 258 230 L 258 228 Z " /><path fill="rgb(0,0,0)" stroke="rgb(0,0,0)" stroke-width="0" opacity="1" d="M 181.5 268 L 182 272.5 Q 179.8 273.8 181 278.5 L 185.5 288 Q 189.2 291.3 197.5 290 L 207 283.5 L 209 279 Q 212.3 277.7 211 282.5 L 214 291.5 L 218.5 296 Q 221.4 298.6 227.5 298 Q 235.4 295.9 239 289.5 L 242 281 Q 245 279.8 244 283.5 Q 246.1 290.9 251.5 295 Q 255.6 298.9 264.5 298 L 273 292.5 Q 278 287.2 278 278 Q 280.7 276.9 280 279.5 L 285.5 286 L 292.5 290 L 299.5 290 Q 305.6 288.6 308 283.5 L 310 277 L 312 277.5 L 309 286.5 L 304.5 291 Q 300.8 294.3 292.5 293 L 282 286.5 L 279.5 283 Q 278.2 293.2 271.5 298 Q 267 302.5 256.5 301 L 247 294.5 L 242.5 287 Q 240 295 233.5 299 Q 229.9 301.9 222.5 301 Q 215.3 299.2 212 293.5 Q 209.2 290.5 210 285 L 198.5 293 L 188.5 293 L 182 288.5 Q 176.9 284.1 179 272.5 L 181.5 268 Z " /><path fill="rgb(0,0,0)" stroke="rgb(0,0,0)" stroke-width="0" opacity="1" d="M 174.5 305 L 177 318.5 L 182.5 325 Q 185.8 328.2 193.5 327 Q 202.1 324.6 206 317.5 L 207.5 315 L 212 326.5 L 216.5 332 Q 220.7 336.3 230.5 335 L 241 326.5 L 243 320 Q 247.1 318.3 246 322.5 L 252.5 332 L 260.5 336 L 265.5 336 Q 272.7 334.2 276 328.5 L 279 318 L 282 319.5 L 286.5 326 Q 290.3 329.7 297.5 330 L 306 326 L 310 316 Q 312.7 314.9 312 317.5 Q 310.3 326.8 303.5 331 Q 300.2 333.7 293.5 333 L 288.5 331 L 280 324 Q 279.2 332.1 272.5 336 Q 268.4 339.9 259.5 339 L 249 332.5 L 244.5 324 Q 241.9 330.9 236.5 335 Q 232 339.5 221.5 338 Q 214.8 335.8 211 330.5 L 206.5 320 L 201.5 326 L 194.5 330 L 185.5 330 L 177 323.5 Q 172.6 317.9 173 307.5 L 174.5 305 Z " /><path fill="rgb(0,0,0)" stroke="rgb(0,0,0)" stroke-width="0" opacity="1" d="M 188.5 347 L 193 356.5 L 198.5 362 Q 202.2 365.3 210.5 364 L 221 355.5 Q 220.3 352.9 223 354 Q 221.9 360.3 216.5 364 Q 212.3 368.3 202.5 367 Q 195.8 364.8 192 359.5 L 188 351.5 L 188.5 347 Z " /><path fill="rgb(0,0,0)" stroke="rgb(0,0,0)" stroke-width="0" opacity="1" d="M 297.5 354 L 298 356.5 L 294 364 L 285.5 369 L 277.5 369 L 267 360.5 L 265 355 Q 267.7 353.9 267 356.5 L 272.5 363 Q 276 367 284.5 366 Q 291.7 364.2 295 358.5 L 297.5 354 Z " /><path fill="rgb(0,0,0)" stroke="rgb(0,0,0)" stroke-width="0" opacity="1" d="M 226.5 355 L 233.5 364 L 240.5 368 L 248.5 368 L 258 361.5 L 261.5 356 L 262 358.5 L 253.5 369 Q 249.5 372.5 240.5 371 Q 231.9 368.6 228 361.5 L 226.5 355 Z " /></svg>