<svg width="627" height="627" preserveAspectRatio="xMidYMid meet" viewBox="0 0 512 512" version="1.1" xmlns="http://www.w3.org/2000/svg" ><path fill="rgb(255,255,255)" stroke="rgb(255,255,255)" stroke-width="0" opacity="1" d="M 0 0 L 512 0 L 512 512 L 0 512 L 0 0 Z M 207 38 L 194 41 L 181 48 Q 172 54 167 64 L 163 76 L 163 82 L 149 92 Q 135 102 132 123 L 132 134 L 134 143 L 140 155 Q 145 164 158 167 L 161 166 L 164 162 Q 163 151 165 145 L 172 134 L 189 122 L 198 124 L 211 123 L 222 119 L 223 119 L 211 138 L 173 179 L 162 198 L 157 217 L 158 234 L 166 252 Q 174 263 189 269 L 199 272 L 209 272 Q 221 283 240 286 Q 242 295 250 300 L 251 325 L 252 331 L 238 335 L 233 338 L 224 351 L 221 363 Q 219 379 225 388 L 235 396 L 240 395 L 241 389 L 245 388 L 248 383 L 248 378 L 244 365 L 244 353 L 245 351 L 250 347 L 251 347 L 250 350 Q 248 360 253 364 L 252 421 L 251 422 L 251 431 L 249 437 L 247 439 L 219 441 L 210 444 L 209 447 L 212 450 Q 215 449 214 452 L 207 455 L 205 459 L 206 462 L 211 464 L 220 464 L 221 465 Q 223 464 222 471 L 227 473 L 241 470 L 261 459 L 268 458 L 272 456 L 274 453 L 274 448 L 268 434 L 268 426 L 267 425 L 268 368 L 272 357 L 272 351 L 269 340 L 308 330 L 325 329 L 329 327 L 334 320 L 333 313 L 328 307 L 312 300 L 290 286 L 302 283 L 315 277 L 327 278 L 328 279 L 339 277 Q 348 285 354 296 Q 355 300 361 299 L 364 294 L 366 283 L 369 290 Q 370 293 375 292 L 378 287 L 378 274 L 375 264 L 375 262 L 377 263 L 379 262 L 380 260 Q 379 240 369 230 L 359 220 L 348 203 Q 327 175 286 168 L 263 168 Q 261 171 256 169 Q 237 173 224 183 L 211 196 Q 204 204 201 217 L 199 219 Q 193 220 192 216 L 192 206 L 197 194 Q 213 172 232 154 L 247 134 Q 257 119 261 98 L 261 80 L 260 75 L 252 58 Q 244 46 231 41 L 218 38 L 207 38 Z " /><path fill="rgb(255,255,255)" stroke="rgb(255,255,255)" stroke-width="0" opacity="1" d="M 202.5 43 L 221.5 43 L 228.5 45 Q 241.1 49.4 248 59.5 L 256 76.5 L 257 93.5 L 254 108.5 L 246 126.5 L 233 145.5 L 198 184.5 L 189 200.5 L 187 211.5 L 188 216.5 L 191.5 222 L 197.5 224 L 204 219.5 Q 210.3 197.8 226.5 186 Q 236.3 178.8 249.5 175 L 266.5 172 L 282.5 172 L 301.5 176 L 321.5 185 Q 335.2 193.3 345 205.5 L 351 217 L 346.5 217 L 339.5 214 L 317.5 197 L 327 207.5 Q 330.5 211 331 217.5 Q 330.3 220.8 325.5 220 L 320 216.5 L 310.5 206 L 295.5 199 L 296.5 201 Q 309.4 206.1 317 216.5 Q 321.8 220.8 321 229 Q 317.7 231.1 309.5 230 L 300.5 227 L 284.5 218 L 285.5 220 L 300 232.5 L 303 238.5 L 303 243.5 L 300.5 247 L 296.5 249 L 283.5 249 L 271.5 245 L 272.5 247 L 283.5 252 L 297.5 252 L 306 245.5 L 306 237.5 L 303 231 L 308.5 233 L 316.5 234 L 320.5 233 L 324 229.5 L 324 223 L 329.5 223 L 333 220.5 L 334 215.5 L 333 213.5 L 335.5 215 Q 343.2 220.7 355.5 222 L 367 233.5 L 374 246.5 L 375 257 L 363.5 249 L 363 250.5 L 367 255.5 L 373 270.5 L 374 284.5 L 372.5 287 L 356.5 264 L 356 265.5 Q 361.3 273.7 361 287.5 L 358.5 294 L 341.5 274 L 330.5 267 L 334 271.5 L 333.5 274 L 322.5 274 L 310.5 271 L 311.5 274 L 295.5 280 L 281.5 281 L 279 280 L 280.5 283 Q 286.2 281.2 284 287.5 L 280.5 292 L 270.5 293 Q 260.5 290 254.5 283 L 246.5 283 L 235.5 281 Q 222.8 277.8 214 270.5 L 216.5 267 Q 211 269.5 201.5 268 Q 180.5 264 170 249.5 Q 159.4 237.6 162 212.5 Q 165.7 193.7 176 181.5 L 214 140.5 L 222 129.5 Q 227 123.5 228 113.5 L 233 107.5 L 235 99.5 L 233 100.5 Q 230.4 107.9 224.5 112 Q 218.1 117.1 208.5 119 L 192.5 119 L 190 117.5 L 192 113.5 L 193 105.5 L 192 100.5 L 187.5 96 L 181 94 Q 179.1 87.1 173.5 83 L 167 81 Q 169.1 60.4 183.5 51 Q 191.3 45.3 202.5 43 Z M 201 56 L 198 57 L 194 62 Q 204 60 209 64 L 212 67 L 211 62 Q 208 57 201 56 Z M 197 70 L 195 71 L 187 81 Q 186 89 189 94 L 197 99 Q 204 100 207 96 Q 211 92 212 86 Q 212 79 209 75 Q 206 69 197 70 Z M 249 192 L 235 199 Q 226 206 224 219 Q 224 234 232 243 Q 247 262 277 267 Q 290 269 296 264 L 309 268 Q 317 269 321 266 L 322 264 L 321 260 L 322 258 L 327 261 L 337 263 L 341 262 L 343 260 L 342 250 L 342 248 L 355 253 L 359 252 L 360 250 L 360 244 L 353 232 L 342 222 L 341 224 L 344 225 Q 354 233 357 249 L 352 249 L 347 247 L 327 234 L 325 235 L 329 237 Q 336 243 340 254 Q 341 258 339 259 L 329 258 L 311 248 L 309 248 L 319 261 L 317 264 L 308 264 L 297 260 L 289 254 L 293 261 L 290 263 L 276 263 L 264 260 L 245 250 Q 233 241 228 226 L 228 216 L 234 204 Q 240 195 252 194 Q 253 191 249 192 Z " /><path fill="rgb(255,255,255)" stroke="rgb(255,255,255)" stroke-width="0" opacity="1" d="M 198.5 73 Q 205.8 73.3 208 78.5 L 209 82.5 L 208 82.5 L 204.5 78 Q 195.5 76.5 194 82.5 L 193 88.5 L 197 95.5 L 195.5 96 L 191 92.5 L 189 84.5 Q 190.1 77.1 195.5 74 L 198.5 73 Z " /><path fill="rgb(255,255,255)" stroke="rgb(255,255,255)" stroke-width="0" opacity="1" d="M 200 82 Q 204.1 80.3 203 84.5 Q 201.5 87.5 200 84.5 L 200 82 Z " /><path fill="rgb(255,255,255)" stroke="rgb(255,255,255)" stroke-width="0" opacity="1" d="M 166.5 85 Q 173.4 84.1 175 88.5 L 181.5 98 L 189 101.5 Q 190.8 117.3 181.5 122 Q 171.2 126.7 165 135.5 L 161 147 L 157 144.5 L 155 138 Q 152.3 139.1 153 136.5 Q 155.2 125.2 162.5 119 L 178.5 111 L 186 105 L 186 103 L 181 103 L 177.5 108 L 164.5 114 L 156 121.5 L 150.5 134 L 145 122 L 140.5 121 L 137 123.5 Q 139.7 102.7 153.5 93 L 166.5 85 Z " /><path fill="rgb(255,255,255)" stroke="rgb(255,255,255)" stroke-width="0" opacity="1" d="M 245.5 287 L 253.5 287 L 263 294.5 Q 260.3 297.3 253.5 296 L 246 289.5 L 245.5 287 Z " /><path fill="rgb(255,255,255)" stroke="rgb(255,255,255)" stroke-width="0" opacity="1" d="M 287.5 289 L 311.5 305 L 325.5 311 L 329 314.5 Q 330.5 322.5 325.5 324 Q 320 326.5 310.5 325 L 281.5 332 L 252.5 341 L 242 347.5 L 240 351.5 L 240 366.5 L 243 375.5 L 243 384 Q 238.3 385 237 381.5 Q 232.6 374.7 233 364 L 231 364.5 L 231 372.5 L 233 380.5 L 236 384.5 L 236 391.5 L 233.5 390 L 231 388.5 Q 224.2 380.8 225 365.5 L 228 352.5 Q 230.2 345.2 235.5 341 L 254.5 334 L 282.5 327 L 303.5 320 L 312 319 L 311 316.5 L 317 313.5 L 311.5 313 L 282 294.5 L 287.5 289 Z " /><path fill="rgb(255,255,255)" stroke="rgb(255,255,255)" stroke-width="0" opacity="1" d="M 267.5 296 L 275.5 298 L 278.5 297 L 307 314.5 L 301.5 317 L 270.5 325 L 267.5 327 L 267 314.5 L 266 313.5 L 266 297.5 L 267.5 296 Z " /><path fill="rgb(255,255,255)" stroke="rgb(255,255,255)" stroke-width="0" opacity="1" d="M 254 300 L 262 300 L 262 321.5 L 263 328 L 256.5 330 L 254 300 Z " /><path fill="rgb(255,255,255)" stroke="rgb(255,255,255)" stroke-width="0" opacity="1" d="M 261.5 342 Q 266.8 340.3 265 345.5 Q 269 349 267 358.5 L 264 362.5 L 264 376.5 L 263 377.5 L 263 429.5 Q 265.5 431 264 436.5 L 270 450.5 L 267.5 453 L 258.5 455 L 238.5 466 L 232.5 468 L 226.5 468 L 227 466.5 L 226 462 L 251 452 Q 252.1 449.3 249.5 450 L 222.5 461 L 210 458.5 L 219.5 453 L 241.5 449 L 247 446.5 L 241.5 446 L 219 451 L 216.5 447 L 215 446.5 L 228.5 444 L 243.5 444 L 248.5 443 L 253 438.5 L 256 426.5 L 256 409.5 L 257 408.5 L 257 362.5 Q 253.5 359 254 351.5 L 256 344 L 261.5 342 Z " /><path fill="rgb(0,0,0)" stroke="rgb(0,0,0)" stroke-width="0" opacity="1" d="M 206.5 38 L 217.5 38 L 230.5 41 Q 244 46.5 252 57.5 L 260 74.5 L 261 79.5 L 261 97.5 Q 257.1 118.6 247 133.5 L 232 153.5 Q 212.6 171.6 197 193.5 L 192 205.5 L 192 215.5 Q 192.8 219.7 198.5 219 L 201 216.5 Q 203.8 203.8 211 195.5 L 223.5 183 Q 236.7 173.2 255.5 169 Q 261 170.5 262.5 168 L 285.5 168 Q 326.9 175.1 348 202.5 L 358.5 220 L 369 229.5 Q 379.2 239.8 380 259.5 L 379 262 L 376.5 263 L 374.5 262 L 375 263.5 L 378 273.5 L 378 286.5 L 374.5 292 Q 369.8 292.8 369 289.5 L 365.5 283 L 364 293.5 L 360.5 299 Q 354.8 299.8 354 295.5 Q 347.8 284.8 338.5 277 L 327.5 279 L 326.5 278 L 314.5 277 L 301.5 283 L 290 285.5 L 311.5 300 L 327.5 307 L 333 312.5 L 334 319.5 L 328.5 327 L 324.5 329 L 307.5 330 L 269 340 L 272 350.5 L 272 356.5 L 268 367.5 L 267 424.5 L 268 425.5 L 268 433.5 L 274 447.5 L 274 452.5 L 271.5 456 L 267.5 458 L 260.5 459 L 240.5 470 L 226.5 473 L 222 470.5 Q 223.3 464.4 220.5 465 L 219.5 464 L 210.5 464 L 206 461.5 L 205 458.5 L 207 455 L 214 452 Q 215.3 449 211.5 450 L 209 446.5 L 210 444 L 218.5 441 L 246.5 439 L 249 436.5 L 251 430.5 L 251 421.5 L 252 420.5 L 253 363.5 Q 248.3 359.7 250 349.5 L 251 346.5 L 249.5 347 L 245 350.5 L 244 352.5 L 244 364.5 L 248 377.5 L 248 382.5 L 244.5 388 L 241 389 L 240 395 L 234.5 396 L 225 387.5 Q 219.1 378.9 221 362.5 L 224 350.5 L 232.5 338 L 237.5 335 L 252 331 L 251 324.5 L 250 299.5 Q 242 295 240 286 Q 220.6 283.2 208.5 272 L 198.5 272 L 188.5 269 Q 174.3 263.2 166 251.5 L 158 233.5 L 157 216.5 L 162 197.5 L 173 178.5 L 211 137.5 Q 218.7 129.8 222 119 L 210.5 123 L 197.5 124 L 188.5 122 L 172 133.5 L 165 144.5 Q 162.7 151.2 164 161.5 L 160.5 166 L 157.5 167 Q 145.3 164.2 140 154.5 L 134 142.5 L 132 133.5 L 132 122.5 Q 135.4 102.4 148.5 92 L 163 81.5 L 163 75.5 L 167 63.5 Q 171.9 53.9 180.5 48 L 193.5 41 L 206.5 38 Z M 203 43 Q 191 45 184 51 Q 169 60 167 81 L 174 83 Q 179 87 181 94 L 188 96 L 192 101 L 193 106 L 192 114 L 190 118 L 193 119 L 209 119 Q 218 117 225 112 Q 230 108 233 101 L 235 100 L 233 108 L 228 114 Q 227 124 222 130 L 214 141 L 176 182 Q 166 194 162 213 Q 159 238 170 250 Q 181 264 202 268 Q 211 270 217 267 L 214 271 Q 223 278 236 281 L 247 283 L 255 283 Q 261 290 271 293 L 281 292 L 284 288 Q 286 281 281 283 L 279 280 L 282 281 L 296 280 L 312 274 L 311 271 L 323 274 L 334 274 L 334 272 L 331 267 L 342 274 L 359 294 L 361 288 Q 361 274 356 266 L 357 264 L 373 287 L 374 285 L 373 271 L 367 256 L 363 251 L 364 249 L 375 257 L 374 247 L 367 234 L 356 222 Q 343 221 336 215 L 333 214 L 334 216 L 333 221 L 330 223 L 324 223 L 324 230 L 321 233 L 317 234 L 309 233 L 303 231 L 306 238 L 306 246 L 298 252 L 284 252 L 273 247 L 272 245 L 284 249 L 297 249 L 301 247 L 303 244 L 303 239 L 300 233 L 286 220 L 285 218 L 301 227 L 310 230 Q 318 231 321 229 Q 322 221 317 217 Q 309 206 297 201 L 296 199 L 311 206 L 320 217 L 326 220 Q 330 221 331 218 Q 330 211 327 208 L 318 197 L 340 214 L 347 217 L 351 217 L 345 206 Q 335 193 322 185 L 302 176 L 283 172 L 267 172 L 250 175 Q 236 179 227 186 Q 210 198 204 220 L 198 224 L 192 222 L 188 217 L 187 212 L 189 201 L 198 185 L 233 146 L 246 127 L 254 109 L 257 94 L 256 77 L 248 60 Q 241 49 229 45 L 222 43 L 203 43 Z M 167 85 L 154 93 Q 140 103 137 124 L 141 121 L 145 122 L 151 134 L 156 122 L 165 114 L 178 108 L 181 103 L 186 103 L 186 105 L 179 111 L 163 119 Q 155 125 153 137 Q 152 139 155 138 L 157 145 L 161 147 L 165 136 Q 171 127 182 122 Q 191 117 189 102 L 182 98 L 175 89 Q 173 84 167 85 Z M 246 287 L 246 290 L 254 296 Q 260 297 263 295 L 254 287 L 246 287 Z M 288 289 L 282 295 L 312 313 L 317 314 L 311 317 L 312 319 L 304 320 L 283 327 L 255 334 L 236 341 Q 230 345 228 353 L 225 366 Q 224 381 231 389 L 234 390 L 236 392 L 236 385 L 233 381 L 231 373 L 231 365 L 233 364 Q 233 375 237 382 Q 238 385 243 384 L 243 376 L 240 367 L 240 352 L 242 348 L 253 341 L 282 332 L 311 325 Q 320 327 326 324 Q 331 323 329 315 L 326 311 L 312 305 L 288 289 Z M 268 296 L 266 298 L 266 314 L 267 315 L 268 327 L 271 325 L 302 317 L 307 315 L 279 297 L 276 298 L 268 296 Z M 254 300 L 257 330 L 263 328 L 262 322 L 262 300 L 254 300 Z M 262 342 L 256 344 L 254 352 Q 253 359 257 363 L 257 409 L 256 410 L 256 427 L 253 439 L 249 443 L 244 444 L 229 444 L 215 447 L 217 447 L 219 451 L 242 446 L 247 447 L 242 449 L 220 453 L 210 459 L 223 461 L 250 450 Q 252 449 251 452 L 226 462 L 227 467 L 227 468 L 233 468 L 239 466 L 259 455 L 268 453 L 270 451 L 264 437 Q 266 431 263 430 L 263 378 L 264 377 L 264 363 L 267 359 Q 269 349 265 346 Q 267 340 262 342 Z " /><path fill="rgb(0,0,0)" stroke="rgb(0,0,0)" stroke-width="0" opacity="1" d="M 200.5 56 Q 208 56.5 211 61.5 L 212 66.5 L 208.5 64 Q 203.7 60.2 194 62 L 197.5 57 L 200.5 56 Z " /><path fill="rgb(0,0,0)" stroke="rgb(0,0,0)" stroke-width="0" opacity="1" d="M 196.5 70 Q 206.2 68.8 209 74.5 Q 212 78.5 212 85.5 Q 210.8 92.3 206.5 96 Q 203.7 99.7 196.5 99 L 189 93.5 Q 185.9 89.1 187 80.5 L 194.5 71 L 196.5 70 Z M 199 73 L 196 74 Q 190 77 189 85 L 191 93 L 196 96 L 197 96 L 193 89 Q 193 80 199 78 Q 206 77 208 81 L 208 79 Q 206 73 199 73 Z M 200 82 L 200 85 Q 202 88 203 85 Q 204 80 200 82 Z " /><path fill="rgb(0,0,0)" stroke="rgb(0,0,0)" stroke-width="0" opacity="1" d="M 248.5 192 Q 253.3 190.7 252 194 Q 240 195.1 234 203.5 L 228 215.5 L 228 225.5 Q 232.5 241.5 244.5 250 L 263.5 260 L 275.5 263 L 289.5 263 L 293 260.5 L 289 253.5 L 296.5 260 L 307.5 264 L 316.5 264 L 319 260.5 L 309 247.5 L 310.5 248 L 328.5 258 L 338.5 259 Q 341 258 340 253.5 Q 336.1 243.4 328.5 237 L 325 234.5 L 326.5 234 L 346.5 247 L 351.5 249 L 357 249 Q 354.4 233.4 343.5 225 L 341 223.5 L 341.5 222 L 353 231.5 L 360 243.5 L 360 249.5 L 359 252 L 354.5 253 L 341.5 248 L 342 249.5 L 343 259.5 L 340.5 262 L 336.5 263 L 326.5 261 L 321.5 258 L 321 259.5 L 322 263.5 L 321 266 Q 317.4 269.1 308.5 268 L 295.5 264 Q 289.7 269.2 276.5 267 Q 247.2 261.8 232 242.5 Q 224.5 234 224 218.5 Q 226 205.5 234.5 199 L 248.5 192 Z " /></svg>