<svg width="627" height="627" preserveAspectRatio="xMidYMid meet" viewBox="0 0 512 512" version="1.1" xmlns="http://www.w3.org/2000/svg" ><path fill="rgb(255,255,255)" stroke="rgb(255,255,255)" stroke-width="0" opacity="1" d="M 0 0 L 512 0 L 512 512 L 0 512 L 0 0 Z M 413 42 L 407 45 Q 401 50 399 58 L 398 57 L 392 52 Q 385 51 383 54 L 376 63 Q 375 72 378 76 L 384 79 Q 390 80 393 77 Q 401 84 405 95 L 392 103 Q 375 118 370 145 L 370 161 L 372 170 L 381 186 Q 387 193 397 197 L 401 203 L 408 217 L 413 236 Q 415 254 409 265 Q 406 269 400 271 Q 390 265 374 267 L 386 248 L 389 236 L 388 213 L 384 204 Q 378 192 358 194 L 356 195 L 365 175 L 369 158 L 369 144 L 370 143 L 368 126 L 364 118 L 363 109 L 356 95 Q 351 87 342 84 Q 332 83 327 86 L 311 96 Q 298 107 293 124 L 286 99 L 279 86 L 271 79 L 267 70 L 260 62 Q 258 59 253 60 L 244 53 L 227 48 Q 209 47 201 55 L 197 59 L 195 65 Q 188 71 185 81 L 183 90 L 183 98 L 181 104 L 181 113 L 183 121 L 183 123 L 182 122 Q 171 110 157 103 L 141 98 L 127 97 L 126 96 L 108 98 L 96 104 Q 89 109 86 117 L 84 124 L 84 131 L 82 135 L 82 147 L 86 158 L 87 170 Q 93 187 106 199 Q 105 201 108 200 L 108 201 L 94 197 L 72 197 L 66 201 Q 50 201 42 208 L 30 221 Q 29 223 32 222 L 28 235 Q 28 246 32 254 L 40 265 L 40 268 L 44 275 Q 58 292 81 300 Q 61 303 49 313 Q 35 323 29 342 L 31 348 L 29 353 Q 27 366 33 373 L 49 386 L 64 390 L 73 396 L 81 398 L 97 398 L 111 394 L 112 395 Q 106 401 104 412 L 105 429 L 107 433 Q 114 441 127 444 L 144 444 L 148 446 L 159 446 L 170 443 L 179 438 L 185 438 L 204 425 L 208 420 L 233 396 L 243 402 L 248 403 L 275 403 L 282 401 L 290 405 Q 295 404 297 406 L 312 405 L 326 401 L 326 407 L 333 416 L 333 435 L 332 437 L 331 438 Q 321 436 317 440 L 312 446 L 313 454 L 317 456 Q 324 457 328 454 Q 338 453 343 457 L 360 470 L 368 469 L 371 464 L 370 460 L 371 458 L 380 462 L 387 460 L 389 457 L 389 449 L 388 448 L 391 446 L 403 448 L 419 457 Q 425 458 428 456 L 430 452 L 432 452 L 439 451 L 441 447 L 445 446 L 447 443 L 445 436 Q 442 430 435 429 L 426 429 L 425 430 L 409 429 Q 402 424 401 414 L 404 412 Q 412 406 415 396 Q 430 391 441 381 Q 453 371 462 357 L 471 336 L 474 320 L 474 300 L 471 283 L 463 259 L 444 219 L 443 205 L 447 202 L 451 204 L 458 203 L 461 196 L 471 189 Q 480 182 484 169 Q 485 154 477 149 L 476 138 L 480 133 L 477 134 L 475 135 L 477 130 Q 478 127 475 128 L 475 130 Q 472 118 466 111 Q 455 96 434 91 L 449 81 L 456 84 L 461 84 L 466 81 L 469 75 L 467 67 Q 464 62 459 61 L 453 63 Q 453 56 450 53 L 444 48 Q 432 47 429 54 L 426 48 L 419 42 L 413 42 Z " /><path fill="rgb(255,255,255)" stroke="rgb(255,255,255)" stroke-width="0" opacity="1" d="M 413.5 46 Q 421.4 45.1 423 50.5 L 424 54.5 L 421 62 L 412.5 65 L 411 64.5 L 413 67.5 L 415 92 Q 412 93.3 413 89.5 L 408 71.5 L 405.5 68 L 402 65.5 Q 402.5 53.5 409.5 48 L 413.5 46 Z " /><path fill="rgb(255,255,255)" stroke="rgb(255,255,255)" stroke-width="0" opacity="1" d="M 438.5 52 Q 444.9 51.6 447 55.5 L 448 62.5 L 445.5 66 Q 443.2 68.7 437.5 68 L 432.5 66 L 434 68.5 L 433 69.5 L 429 76.5 L 424.5 90 L 424 86.5 L 425 85.5 L 426 73.5 L 429 65.5 L 429 60.5 L 435.5 53 L 438.5 52 Z " /><path fill="rgb(255,255,255)" stroke="rgb(255,255,255)" stroke-width="0" opacity="1" d="M 219.5 53 Q 244.8 53.2 255 68.5 L 258.5 76 L 259 72.5 L 256 66.5 L 257.5 66 Q 269.8 76 271 96 Q 274.5 97.1 273 89.5 L 272 85.5 L 274 86.5 L 284 106.5 L 287 119.5 L 288 138.5 L 287 139.5 L 286 152.5 L 280 171.5 L 283 169.5 L 284.5 165 L 285 168.5 Q 281.7 184.7 275 197.5 L 277 196.5 L 283.5 183 L 284 188.5 L 277 213.5 L 279 212.5 L 280.5 209 L 281 210.5 L 275 241.5 L 275 249.5 L 273 259.5 L 273 271.5 L 272 272.5 L 272 290 L 274 289.5 L 274 277.5 L 275 276.5 L 276 254.5 L 283 214.5 L 283 203.5 L 286 194.5 L 287 177.5 L 287 175.5 L 289 165.5 L 289 153.5 L 291 148.5 L 293.5 132 L 294 138 Q 298 139.4 296 132.5 Q 300 112 312.5 100 L 314.5 100 Q 320.2 93.2 329.5 90 L 341.5 89 L 351 95.5 Q 361.6 107.4 360.5 131 L 362.5 125 Q 367.2 135.3 365 152.5 L 360 175.5 L 350 197 L 337.5 203 L 318 219.5 L 304 239.5 L 295 259.5 L 290 274.5 L 286 292.5 L 285 308.5 L 284 309.5 L 284 322.5 L 280.5 326 L 278 315.5 L 278 303.5 L 279 302.5 L 280 286.5 Q 284.1 277.6 285 265.5 L 297 229.5 L 302 217.5 L 321.5 197 L 325 194.5 L 323.5 194 L 306 209.5 L 304.5 212 L 305 210.5 L 316 181.5 L 314 181 L 304.5 206 L 304 203.5 L 305 201.5 L 304 200.5 L 304 192.5 L 301.5 188 L 301 189.5 L 302 190.5 L 302 212.5 L 289 244.5 L 281 272.5 L 276 299.5 L 276 318.5 Q 278.6 321.4 278 327.5 L 267.5 339 L 264 325.5 L 264 308.5 L 265 307.5 L 265 298.5 L 266 297.5 L 267 280.5 L 269 271.5 L 270 252.5 L 269 251.5 L 269 240.5 L 266 226.5 Q 262.8 215.2 256 207.5 L 255 192.5 L 254 191.5 L 254 181.5 L 260 160.5 L 258 161.5 L 252.5 179 L 249 159.5 L 245.5 152 L 245 154.5 L 249 173.5 L 247 172.5 L 240.5 165 L 238.5 164 L 238 165.5 L 244 170.5 L 251 182.5 L 253 202.5 L 249.5 200 Q 245.5 200.5 245 197.5 L 241.5 193 Q 235.6 186.9 223.5 187 L 216.5 191 L 214 179.5 L 208 164.5 L 190 132.5 L 186 115.5 L 186 105.5 L 187 105.5 Q 187.8 115.7 193.5 121 L 194 118.5 L 191 113.5 L 188 102.5 L 188 87.5 Q 190.4 76.4 196.5 69 L 197 71 Q 200.3 72.3 199 67.5 L 203 60.5 L 202.5 59 L 210.5 55 L 219.5 53 Z M 231 80 L 223 83 L 216 90 L 211 106 Q 212 126 221 139 Q 227 147 238 151 Q 245 152 249 149 L 255 143 L 259 132 L 259 113 L 256 102 L 250 91 Q 244 81 231 80 Z M 328 117 L 323 120 L 314 130 L 309 140 L 306 153 L 306 164 L 309 174 L 317 180 L 323 180 L 329 177 L 340 165 L 346 150 Q 345 145 347 144 Q 349 129 343 123 Q 340 115 328 117 Z " /><path fill="rgb(255,255,255)" stroke="rgb(255,255,255)" stroke-width="0" opacity="1" d="M 388.5 56 Q 393.3 56.3 395 59.5 L 396 65.5 Q 394.8 71.3 390.5 74 L 384.5 75 L 381 72.5 L 380 63.5 L 385.5 57 L 388.5 56 Z " /><path fill="rgb(255,255,255)" stroke="rgb(255,255,255)" stroke-width="0" opacity="1" d="M 424.5 63 L 425 64.5 L 421 79.5 L 421 89.5 L 419.5 91 L 418 90.5 L 418 76.5 Q 415.2 74.8 417 68.5 L 424.5 63 Z " /><path fill="rgb(255,255,255)" stroke="rgb(255,255,255)" stroke-width="0" opacity="1" d="M 456.5 65 Q 462.1 65.5 464 69.5 L 465 73.5 L 461.5 79 L 455.5 80 L 450 75.5 L 449 70.5 L 451.5 67 L 456.5 65 Z " /><path fill="rgb(255,255,255)" stroke="rgb(255,255,255)" stroke-width="0" opacity="1" d="M 399.5 68 L 402.5 72 Q 404.8 71.3 404 73.5 L 410 93 Q 407.3 94.1 408 91.5 Q 403.4 81.1 395 74.5 L 399.5 68 Z " /><path fill="rgb(255,255,255)" stroke="rgb(255,255,255)" stroke-width="0" opacity="1" d="M 436.5 71 Q 438 73.5 443.5 72 L 445 71.5 L 429.5 90 L 429 87.5 L 436.5 71 Z " /><path fill="rgb(255,255,255)" stroke="rgb(255,255,255)" stroke-width="0" opacity="1" d="M 447.5 74 L 448 77.5 L 437.5 85 L 447.5 74 Z " /><path fill="rgb(255,255,255)" stroke="rgb(255,255,255)" stroke-width="0" opacity="1" d="M 227.5 83 L 236.5 83 L 247 90.5 Q 258 103.5 257 128.5 L 252 142.5 L 246.5 148 L 239.5 149 Q 229.3 146.3 224 138.5 Q 217.8 130.7 215 119.5 L 214 101.5 Q 215.7 90.2 223.5 85 L 227.5 83 Z M 232 100 L 230 101 Q 224 105 222 113 L 222 124 L 226 134 L 234 141 L 237 142 L 246 141 Q 252 137 253 129 Q 254 115 248 108 L 242 101 L 232 100 Z " /><path fill="rgb(255,255,255)" stroke="rgb(255,255,255)" stroke-width="0" opacity="1" d="M 417.5 95 L 433.5 95 L 441.5 97 Q 454.9 102.1 463 112.5 L 468 120.5 L 470 127.5 L 466.5 130 Q 465 127.5 459.5 129 L 455 132.5 Q 450.5 138 452 149.5 L 454 153.5 L 452.5 154 L 448.5 153 Q 441.5 154.6 438 159.5 Q 435.5 167.5 429.5 172 L 426 174.5 L 425 178 L 427.5 177 Q 431 191.5 441.5 199 L 443 199.5 L 439.5 201 L 424.5 202 Q 422.8 199.2 416.5 201 L 403.5 197 Q 391.7 191.8 384 182.5 Q 377.5 175.5 375 164.5 L 374 147.5 L 376 136.5 L 382 121.5 Q 387.3 111.8 395.5 105 Q 403.9 97.4 417.5 95 Z M 459 114 L 456 115 Q 452 116 453 120 L 456 119 L 463 119 L 466 121 L 465 118 L 459 114 Z M 410 117 L 403 120 L 398 127 L 399 129 L 407 122 L 415 122 L 415 119 L 410 117 Z M 397 134 L 397 137 L 400 140 L 395 139 L 393 139 L 394 142 L 397 143 Q 399 142 398 145 Q 394 146 392 143 L 391 146 L 398 148 Q 397 157 401 163 Q 404 169 413 170 L 422 168 Q 426 165 428 159 Q 430 147 425 142 L 417 134 Q 407 132 404 137 L 397 134 Z " /><path fill="rgb(255,255,255)" stroke="rgb(255,255,255)" stroke-width="0" opacity="1" d="M 117.5 101 L 135.5 102 L 155.5 108 Q 172.1 115.9 183 129.5 Q 199.6 148.9 203.5 181 Q 206.3 179.8 205 174.5 L 203 164.5 L 204 164.5 L 213 190.5 L 208 194.5 L 203 202.5 L 203 205 L 200 206.5 L 197 213.5 L 196 225.5 L 194.5 230 L 188 218.5 L 184.5 191 Q 182.3 193.8 183 199.5 L 184 200.5 L 185 213.5 L 184 213.5 Q 177.5 200.5 167.5 191 L 167 192.5 L 184 216.5 L 180.5 214 Q 176.2 209.8 168.5 209 L 168.5 210 Q 181.4 214.6 189 224.5 L 195 235.5 L 195 243.5 L 198 258.5 L 207 282.5 L 206 284.5 L 208 288.5 L 206 287.5 Q 195.2 265.8 178.5 250 L 167 241 L 167 239.5 L 158.5 231 Q 142.2 215.8 119.5 207 L 109 196.5 Q 96 183.5 90 163.5 L 92 164.5 L 96.5 170 L 98 169.5 Q 91.4 162.6 88 152.5 L 86 137.5 L 87 137.5 L 90 145 Q 92.7 146.1 92 143.5 L 89 137.5 L 89 121.5 Q 91.5 113 97.5 108 L 104.5 104 L 117.5 101 Z M 133 129 L 126 132 Q 118 137 116 147 L 116 158 L 118 165 L 129 182 L 139 189 L 151 194 L 159 194 L 167 190 L 172 180 L 172 168 L 170 160 Q 166 148 158 140 L 145 130 L 133 129 Z " /><path fill="rgb(255,255,255)" stroke="rgb(255,255,255)" stroke-width="0" opacity="1" d="M 233.5 102 Q 243.3 101.7 246 108.5 Q 252 115.5 250 130.5 L 248.5 134 Q 249.3 121.7 242.5 117 L 235.5 116 Q 229.6 119.1 231 129.5 L 235 138 L 237 138.5 L 235.5 139 L 229 133.5 Q 223.5 127 224 114.5 Q 225.2 106.7 230.5 103 L 233.5 102 Z " /><path fill="rgb(255,255,255)" stroke="rgb(255,255,255)" stroke-width="0" opacity="1" d="M 329.5 119 Q 338.9 117.7 341 123.5 L 344 130.5 L 345 141.5 L 343 151.5 L 339 161.5 L 327.5 175 L 321.5 178 L 317.5 178 L 311 172.5 L 309 166.5 L 309 148.5 Q 312.4 131.4 323.5 122 L 329.5 119 Z M 326 134 L 321 137 L 314 146 L 311 157 L 312 165 L 314 169 L 319 172 L 327 171 Q 336 165 338 152 Q 339 142 335 138 Q 333 133 326 134 Z " /><path fill="rgb(255,255,255)" stroke="rgb(255,255,255)" stroke-width="0" opacity="1" d="M 136.5 131 L 147.5 134 L 160 145.5 L 168 161.5 L 170 176.5 L 167 185.5 L 162.5 190 L 160.5 191 L 148.5 191 Q 134.6 186.4 127 175.5 Q 119 166.5 118 150.5 L 120 141.5 L 126.5 134 L 136.5 131 Z M 143 146 L 136 149 L 133 152 L 130 160 Q 130 170 135 176 Q 140 183 150 186 Q 157 187 160 184 Q 164 181 165 176 Q 166 161 159 155 Q 154 147 143 146 Z " /><path fill="rgb(255,255,255)" stroke="rgb(255,255,255)" stroke-width="0" opacity="1" d="M 460.5 132 L 464.5 132 L 468 134 L 471 139.5 L 472 148.5 Q 471.1 155.1 466.5 158 L 466 156.5 L 468 154.5 L 468 145.5 L 463.5 139 L 459.5 138 L 456 140.5 L 454.5 143 L 455 141.5 L 457 134 L 460.5 132 Z " /><path fill="rgb(255,255,255)" stroke="rgb(255,255,255)" stroke-width="0" opacity="1" d="M 324.5 137 Q 330.6 136.3 333 138 L 336 148.5 L 334 157.5 Q 331.8 164.3 326.5 168 L 328 165.5 L 331 155.5 L 330 151.5 L 327.5 149 L 323.5 148 L 318 152.5 L 314.5 164 L 314 153.5 Q 316.3 143.8 322.5 138 L 324.5 137 Z " /><path fill="rgb(255,255,255)" stroke="rgb(255,255,255)" stroke-width="0" opacity="1" d="M 410.5 137 Q 420.3 136.7 423 143.5 L 425 147.5 L 426 156.5 Q 425.1 163.1 420.5 166 L 418.5 167 L 420 164.5 Q 422.7 160.7 421 152.5 L 416.5 146 L 408.5 145 Q 401.2 147.7 403 159.5 L 404 161.5 L 403 161.5 Q 399.7 156.8 401 147.5 Q 402.5 141 407.5 138 L 410.5 137 Z " /><path fill="rgb(255,255,255)" stroke="rgb(255,255,255)" stroke-width="0" opacity="1" d="M 460.5 142 Q 462.8 141.3 462 143.5 L 462 145.5 Q 462.8 147.8 460.5 147 L 459 143.5 L 460.5 142 Z " /><path fill="rgb(255,255,255)" stroke="rgb(255,255,255)" stroke-width="0" opacity="1" d="M 140.5 149 Q 154 148.5 158 157.5 L 161 162.5 L 163 172.5 L 162 172.5 Q 160.4 165.5 155.5 162 L 148.5 160 L 144 162 L 142 169.5 Q 144.1 177.9 150.5 182 L 152 182.5 L 148.5 183 Q 141.8 180.8 138 175.5 L 133 165.5 L 133 156.5 L 136 151 L 140.5 149 Z " /><path fill="rgb(255,255,255)" stroke="rgb(255,255,255)" stroke-width="0" opacity="1" d="M 410 149 Q 415.6 146.8 414 152.5 L 411.5 154 Q 409 152.8 410 149 Z " /><path fill="rgb(255,255,255)" stroke="rgb(255,255,255)" stroke-width="0" opacity="1" d="M 473 151 L 477 153.5 Q 481.4 158.7 480 169.5 Q 476.3 179.8 468.5 186 L 460 191 L 459 180 L 468.5 182 L 470 180.5 L 470 172.5 Q 468.3 164.7 463 160.5 Q 468.9 160.4 471 156.5 L 473 151 Z " /><path fill="rgb(255,255,255)" stroke="rgb(255,255,255)" stroke-width="0" opacity="1" d="M 446.5 157 L 453.5 157 L 463 164.5 L 467 173.5 L 467 178 L 459.5 176 L 448.5 179 L 442.5 179 Q 435.8 177.8 432 173.5 L 435 171.5 Q 437.8 162.8 444.5 158 L 446.5 157 Z M 444 164 L 444 167 L 447 168 Q 451 169 449 165 L 444 164 Z " /><path fill="rgb(255,255,255)" stroke="rgb(255,255,255)" stroke-width="0" opacity="1" d="M 431.5 177 L 436 180.5 Q 440.2 190.8 448.5 197 L 456 198 L 456.5 196 L 457 198.5 Q 455.8 201.3 450.5 200 L 440 194 L 434 185.5 L 431.5 177 Z " /><path fill="rgb(255,255,255)" stroke="rgb(255,255,255)" stroke-width="0" opacity="1" d="M 452.5 181 Q 456.7 179.7 455 184.5 L 454 185.5 L 454 196 L 451.5 196 L 446 191.5 L 440 182.5 L 443.5 182 L 448 185.5 Q 447.3 188.1 450 187 L 448 182 L 452.5 181 Z " /><path fill="rgb(255,255,255)" stroke="rgb(255,255,255)" stroke-width="0" opacity="1" d="M 221.5 191 L 232.5 192 Q 240.9 195.6 246 202.5 L 248.5 206 Q 250.2 203.2 252 207.5 L 256 216 Q 258.7 214.9 258 217.5 L 260 220.5 L 265 238.5 Q 263.5 244 266 245.5 L 266 266.5 L 265 267.5 L 265 275.5 L 263 285.5 L 264 289.5 L 263 290.5 L 262 307.5 L 261 308.5 L 261 321.5 Q 263.8 323.3 262 329.5 L 266 341.5 Q 262.8 344 264 350 L 257.5 353 Q 244.2 345.4 235 333.5 Q 218.4 313.6 209 286.5 L 210 286.5 Q 215.6 299.4 224.5 309 L 226 308.5 L 213 288.5 L 204 267.5 L 198 244.5 L 197 228.5 L 198 228.5 Q 198.2 237.3 202.5 242 L 203 240.5 L 200 230.5 L 200 214.5 L 201.5 208 L 202 213 Q 205.3 214.3 204 209.5 Q 206.1 200.1 212.5 195 L 217.5 192 L 219.5 192 L 221.5 191 Z M 230 214 L 225 216 Q 218 220 217 229 Q 216 239 218 246 L 226 262 L 237 268 L 242 266 L 245 263 L 249 252 Q 250 232 242 222 Q 239 215 230 214 Z M 239 269 L 239 284 L 242 298 L 242 300 L 234 290 L 232 291 L 243 307 L 247 327 L 254 342 L 257 344 L 249 326 L 244 302 L 247 286 L 249 282 L 249 278 L 244 289 L 244 293 L 240 272 L 239 269 Z " /><path fill="rgb(255,255,255)" stroke="rgb(255,255,255)" stroke-width="0" opacity="1" d="M 362.5 198 Q 375.1 197.9 380 205.5 Q 385.6 212.4 384 226.5 L 380 238 Q 382.7 239.1 382 236.5 L 384 235.5 L 384 239.5 L 380 250.5 Q 375 261 366.5 268 L 354.5 270 L 338.5 276 Q 323.7 282.7 312.5 293 L 313 291.5 Q 320.2 276.2 330.5 264 L 341.5 265 Q 354.5 261 361 250.5 Q 367.5 243 368 229.5 L 363.5 221 Q 359.8 217.7 351.5 219 Q 340.8 222.8 335 231.5 L 328 243.5 L 327 258.5 L 330 262.5 L 316.5 281 L 317 279.5 L 318 267.5 L 316.5 264 L 314 284.5 L 309.5 294 L 309 281.5 L 307.5 280 L 307 296.5 L 297 306.5 L 286.5 321 L 286 314.5 L 287 313.5 L 288 297.5 L 293 275.5 L 302 251.5 Q 310.6 231.1 325.5 217 L 325 218.5 L 322 224.5 L 324 225 Q 327.1 216 334.5 210 L 349.5 201 L 362.5 198 Z " /><path fill="rgb(255,255,255)" stroke="rgb(255,255,255)" stroke-width="0" opacity="1" d="M 69.5 200 L 70.5 201 L 90.5 201 L 109.5 206 Q 126.6 212.9 138 225.5 L 144.5 234 L 145 232.5 Q 140.9 224.1 134 218.5 L 136.5 220 Q 152.2 228.8 164 241.5 Q 173.5 251.5 179.5 265 L 180 262.5 L 174 251.5 L 183 259.5 L 202 285.5 L 224 323.5 L 242.5 345 L 256 354.5 Q 255 357 250.5 356 L 223.5 344 Q 199.1 326.4 169.5 314 L 135.5 304 L 122.5 303 L 117.5 301 L 104.5 300 L 103.5 299 L 89.5 299 L 83 296.5 L 87.5 296 L 92 297 Q 93.3 293.7 88.5 295 Q 62.9 290.1 49 273.5 L 46 269.5 L 47.5 270 L 55.5 273 L 54.5 271 L 45 264.5 L 35 248.5 L 33 241.5 L 33 232.5 L 37.5 223 Q 42.3 224.3 41 221 L 36 219.5 Q 46.5 203.5 74.5 205 L 87.5 209 L 85.5 206 L 74.5 202 L 70.5 202 L 69.5 200 Z M 79 225 L 69 230 Q 63 234 61 243 Q 61 254 67 261 Q 78 274 99 278 L 109 278 L 120 274 Q 126 270 128 263 Q 128 250 122 244 Q 114 233 102 228 Q 93 223 79 225 Z M 148 260 L 147 262 L 155 276 L 157 278 L 133 266 L 130 267 L 157 280 L 157 281 L 154 280 L 138 280 L 135 282 L 153 282 L 168 287 L 191 304 L 234 344 L 253 355 L 253 353 L 236 343 L 191 301 L 171 286 L 163 282 L 148 260 Z " /><path fill="rgb(255,255,255)" stroke="rgb(255,255,255)" stroke-width="0" opacity="1" d="M 405 201 L 419.5 205 L 436.5 205 L 439 204 L 438 210.5 L 444 229.5 Q 456.8 251.2 465 277.5 L 469 296.5 L 469 321.5 Q 462.6 359.1 437.5 378 Q 425.6 387.6 410.5 394 L 389.5 400 L 373.5 401 L 375 398.5 L 379 392 L 377.5 392 L 354.5 413 Q 349.9 415.9 341.5 415 L 333 411 L 330 405.5 L 330 400.5 L 350.5 391 L 363.5 383 L 388 360.5 L 409 327.5 L 415 307.5 L 415 294.5 Q 413 281.5 404.5 275 L 403 274.5 L 412 267.5 Q 418.6 258.1 418 241.5 L 417 240.5 L 417 232.5 L 415 223.5 L 405 201 Z " /><path fill="rgb(255,255,255)" stroke="rgb(255,255,255)" stroke-width="0" opacity="1" d="M 226.5 217 Q 237.6 215.4 240 222.5 L 245 232.5 L 247 248.5 L 245 257.5 L 239.5 265 L 234.5 265 L 228 260.5 L 220 244.5 L 219 230.5 L 222 221.5 L 226.5 217 Z M 231 229 L 229 230 L 224 238 Q 223 249 227 255 Q 229 260 236 261 L 239 260 L 244 253 Q 246 240 241 235 L 236 229 L 231 229 Z " /><path fill="rgb(255,255,255)" stroke="rgb(255,255,255)" stroke-width="0" opacity="1" d="M 353.5 221 Q 360.4 220.3 363 223 Q 366.8 226.7 365 237.5 Q 360.7 250.7 350.5 258 L 340.5 263 L 334.5 263 L 330 259.5 Q 327.5 256 329 248.5 Q 332.9 233.9 343.5 226 L 353.5 221 Z M 346 231 L 341 234 Q 335 239 332 247 Q 331 253 333 257 L 339 260 L 347 258 Q 355 252 358 242 L 356 234 Q 353 230 346 231 Z " /><path fill="rgb(255,255,255)" stroke="rgb(255,255,255)" stroke-width="0" opacity="1" d="M 81.5 227 L 89.5 227 L 100.5 230 Q 112.3 235.2 120 244.5 L 125 254.5 L 125 264.5 L 118.5 272 Q 111.3 277.3 96.5 275 Q 78.6 271.4 69 259.5 L 64 249.5 L 64 240.5 L 69.5 232 L 81.5 227 Z M 91 237 L 86 239 Q 80 242 79 250 Q 80 257 84 262 Q 89 268 99 270 Q 109 272 114 268 L 119 262 L 119 254 L 116 248 Q 111 241 104 238 L 91 237 Z " /><path fill="rgb(255,255,255)" stroke="rgb(255,255,255)" stroke-width="0" opacity="1" d="M 231.5 231 L 234.5 231 L 239 235.5 Q 243.4 240.7 242 251.5 L 241 251.5 Q 242 243.5 237.5 241 L 233.5 240 L 230 242.5 L 229 250.5 L 231 254.5 L 229 253.5 L 226 244.5 L 226 239.5 L 229.5 232 L 231.5 231 Z " /><path fill="rgb(255,255,255)" stroke="rgb(255,255,255)" stroke-width="0" opacity="1" d="M 347.5 233 L 354 234 Q 355.9 236.7 355 243.5 Q 352.4 250.9 346.5 255 L 344.5 256 L 348 251.5 L 349 243.5 Q 348 240 342.5 241 L 336 246.5 L 334.5 251 L 334 247.5 L 341.5 236 L 347.5 233 Z " /><path fill="rgb(255,255,255)" stroke="rgb(255,255,255)" stroke-width="0" opacity="1" d="M 92.5 239 Q 108.7 239.8 115 250.5 L 112.5 249 L 102.5 246 L 96 249.5 L 95 256.5 L 100.5 263 Q 104.4 266.1 112 265.5 L 102.5 268 L 90.5 264 L 84 257.5 Q 81.3 254.2 82 247.5 L 85.5 242 L 92.5 239 Z " /><path fill="rgb(255,255,255)" stroke="rgb(255,255,255)" stroke-width="0" opacity="1" d="M 102.5 252 L 105 253 Q 106.5 256.8 103.5 256 Q 99 254 102.5 252 Z " /><path fill="rgb(255,255,255)" stroke="rgb(255,255,255)" stroke-width="0" opacity="1" d="M 371.5 271 Q 395.1 268.9 405 280.5 Q 411.6 288.9 411 304.5 L 407 321.5 Q 402.1 335.6 391.5 344 Q 387.5 348 379.5 348 L 376 345.5 L 377 341.5 L 386 332.5 L 386 331 Q 383.3 329.9 384 332.5 L 367.5 345 L 360.5 348 L 353.5 349 L 346 345.5 L 346 340.5 L 355 329 L 345.5 337 L 335.5 342 L 328.5 344 L 321.5 344 L 315 339.5 L 314 335.5 Q 315.5 329 320.5 326 L 330.5 323 L 333 320.5 L 331.5 320 L 323.5 323 L 317.5 323 L 313 321 L 312 316.5 Q 314 309.5 319 305.5 L 317.5 305 Q 311.3 313.5 298 314 L 298 311.5 L 311.5 298 Q 325 286.5 342.5 279 L 352.5 275 L 371.5 271 Z " /><path fill="rgb(255,255,255)" stroke="rgb(255,255,255)" stroke-width="0" opacity="1" d="M 88.5 303 L 105.5 303 L 106.5 304 L 119.5 305 L 142.5 312 L 149.5 316 L 150 314 L 135 307.5 L 137.5 307 L 152.5 312 L 168.5 321 L 169 319 L 165 316.5 L 166.5 317 L 190.5 327 L 231.5 351 L 251 358.5 L 246.5 363 L 241.5 363 L 211.5 357 L 179.5 356 L 178.5 357 L 164.5 358 L 148.5 363 Q 131.4 369.4 120 381.5 L 116 388 L 98.5 393 L 82.5 393 L 82.5 392 Q 87.6 392.6 89 389.5 L 86.5 389 L 75.5 391 L 70 389.5 L 78 386.5 L 72.5 386 L 69.5 387 L 55.5 384 Q 44.5 380 38 371.5 L 33 361.5 L 33 354.5 Q 34 347.5 39 344.5 L 36.5 344 L 34 345.5 L 35 338.5 L 39 334.5 L 36 333.5 L 51.5 316 L 66.5 308 L 88.5 303 Z M 86 323 Q 74 325 67 331 Q 59 336 57 347 L 58 356 L 60 359 L 67 365 L 76 369 Q 80 368 82 370 L 97 369 Q 109 366 117 359 Q 122 355 124 347 Q 125 338 121 335 Q 111 321 86 323 Z M 140 332 L 141 334 L 152 341 L 130 341 L 127 343 L 152 344 L 140 349 L 138 352 Q 146 346 158 344 L 170 344 L 171 345 L 178 345 L 195 348 L 236 360 Q 238 361 237 358 L 193 345 L 176 343 L 175 342 L 157 341 L 140 332 Z " /><path fill="rgb(255,255,255)" stroke="rgb(255,255,255)" stroke-width="0" opacity="1" d="M 309.5 313 Q 308.5 321 312.5 324 L 317 325.5 L 310.5 335 L 288.5 348 L 277.5 352 L 270.5 352 L 268 351 L 269 343.5 L 286.5 325 L 295.5 318 Q 304.3 317.3 309.5 313 Z " /><path fill="rgb(255,255,255)" stroke="rgb(255,255,255)" stroke-width="0" opacity="1" d="M 88.5 325 L 96.5 325 L 106.5 327 L 119 335.5 Q 122.3 338.7 122 345.5 Q 119.3 355.3 111.5 360 L 98.5 366 L 93.5 367 L 77.5 367 Q 67.1 364.9 62 357.5 Q 58.3 353.2 60 343.5 L 66.5 334 L 76.5 328 L 88.5 325 Z M 95 330 L 87 332 L 82 335 Q 77 338 75 345 Q 74 352 78 355 L 87 360 Q 101 362 108 357 Q 114 353 116 345 L 115 340 Q 110 329 95 330 Z " /><path fill="rgb(255,255,255)" stroke="rgb(255,255,255)" stroke-width="0" opacity="1" d="M 91.5 333 Q 103.6 331.4 109 336.5 L 107.5 336 L 102.5 335 L 95.5 337 L 91 341.5 L 90 345.5 L 94.5 351 Q 98 353.5 105.5 352 L 111.5 349 L 107.5 354 L 97.5 358 L 88.5 358 Q 81.3 356.2 78 350.5 Q 76.6 340.1 82.5 337 L 91.5 333 Z " /><path fill="rgb(255,255,255)" stroke="rgb(255,255,255)" stroke-width="0" opacity="1" d="M 311.5 336 L 312 338.5 Q 312.3 343.3 315.5 345 Q 320.2 348.3 329.5 347 Q 337.7 345.7 342.5 341 Q 342.4 348.6 347.5 351 L 356.5 352 L 374 345 Q 373.3 348.8 376.5 350 L 384.5 351 L 391.5 347 L 392 348.5 L 369.5 373 Q 355.1 385.1 336.5 393 L 313.5 400 L 292.5 401 L 288 399.5 Q 330.7 385.2 358 355.5 L 357.5 354 Q 335.8 375.3 306.5 389 L 282.5 397 L 269.5 398 L 268.5 399 L 252.5 399 L 242.5 397 L 237 393.5 Q 237.1 387.1 241.5 385 L 249.5 380 L 252.5 380 L 253.5 381 L 264.5 382 L 265.5 381 L 279.5 380 L 294.5 375 Q 314.8 366.3 329 351.5 L 328.5 350 Q 312 365.5 288.5 374 L 271.5 378 L 256.5 378 L 249.5 376 L 247 373.5 L 248 367.5 L 256.5 359 L 265.5 353 Q 268.7 356.8 277.5 355 Q 297.9 348.9 311.5 336 Z " /><path fill="rgb(255,255,255)" stroke="rgb(255,255,255)" stroke-width="0" opacity="1" d="M 98.5 342 L 100 345 L 97 343.5 L 98.5 342 Z " /><path fill="rgb(255,255,255)" stroke="rgb(255,255,255)" stroke-width="0" opacity="1" d="M 176.5 360 L 210.5 360 L 211.5 361 L 225.5 362 L 245 365.5 Q 242.3 366.6 243 370 Q 238.5 371.7 230.5 371 L 210.5 376 L 209.5 375 L 194.5 374 L 194.5 375 L 207 377.5 Q 194.5 380.5 186 387.5 L 188.5 388 Q 197.4 381.9 209.5 379 L 209.5 380 L 204 384.5 L 200 391.5 L 203 389.5 L 212.5 379 L 227.5 374 L 241.5 372 L 245 379 Q 238.7 380.1 235 385.5 Q 232.4 386.9 233 391.5 L 230.5 394 Q 219.3 400.8 211 410.5 L 198.5 424 L 186.5 432 L 187.5 430 L 190 428.5 L 193 423.5 L 187.5 428 L 170.5 438 L 160.5 441 L 151.5 441 L 151.5 440 L 158 436.5 L 157.5 435 L 152.5 438 L 143.5 440 L 130.5 440 L 122.5 438 L 111 430.5 L 109 425.5 L 109 410.5 Q 112.3 398.3 120.5 391 L 132 384 L 131.5 382 L 120.5 388 L 129.5 378 L 148.5 367 L 160.5 363 L 176.5 360 Z M 164 381 Q 152 384 145 390 Q 136 396 133 407 Q 132 414 135 417 Q 138 421 145 423 L 159 422 Q 169 419 176 413 Q 182 407 186 398 Q 187 391 185 388 Q 180 379 164 381 Z " /><path fill="rgb(255,255,255)" stroke="rgb(255,255,255)" stroke-width="0" opacity="1" d="M 167.5 383 L 172.5 383 L 179.5 385 L 183 388.5 L 184 395.5 Q 180.6 407.1 171.5 413 L 160.5 419 Q 153.8 421.3 143.5 420 L 137 415.5 L 135 408.5 Q 136.9 396.9 145.5 392 L 153.5 387 L 167.5 383 Z M 167 386 Q 158 387 154 392 L 148 400 L 149 409 L 157 413 Q 167 413 173 408 Q 178 404 180 396 L 179 392 Q 176 385 167 386 Z " /><path fill="rgb(255,255,255)" stroke="rgb(255,255,255)" stroke-width="0" opacity="1" d="M 164.5 389 L 168 389.5 L 165.5 390 L 160 395.5 Q 159.4 400.9 161 403 Q 163.1 404.6 168.5 404 L 176.5 398 L 176 399.5 L 169.5 407 Q 165 411.5 154.5 410 L 151 407.5 L 150 401.5 L 154 394 L 164.5 389 Z " /><path fill="rgb(255,255,255)" stroke="rgb(255,255,255)" stroke-width="0" opacity="1" d="M 165 396 Q 168 395 167 398 Q 164 399 165 396 Z " /><path fill="rgb(255,255,255)" stroke="rgb(255,255,255)" stroke-width="0" opacity="1" d="M 408.5 398 L 410 398.5 L 400.5 409 L 394.5 412 L 387.5 412 L 381 407.5 L 380 405.5 L 382.5 404 L 388.5 404 L 401.5 401 L 408.5 398 Z " /><path fill="rgb(255,255,255)" stroke="rgb(255,255,255)" stroke-width="0" opacity="1" d="M 369.5 405 Q 376.5 403.5 376 406.5 L 380.5 413 L 384 415.5 L 389 432 Q 379 430.3 375 435.5 L 373.5 438 L 357.5 438 L 352 434.5 L 351 422.5 L 352 418 Q 363.1 414.5 369.5 405 Z " /><path fill="rgb(255,255,255)" stroke="rgb(255,255,255)" stroke-width="0" opacity="1" d="M 388.5 415 L 390.5 415 Q 397.5 413.5 397 416.5 Q 398.6 425.9 404.5 431 Q 411.7 435.8 425.5 434 Q 427 431.5 432.5 433 Q 439.1 433.9 442 438.5 L 443 441.5 Q 441 445 439 440.5 Q 439.8 438.3 437.5 439 L 432.5 436 L 415 435 Q 413.6 438.7 419.5 437 L 420.5 438 L 432.5 439 L 437 442.5 L 438 447 L 431.5 448 Q 423.6 437.2 406 437 Q 404.7 440.3 409.5 439 L 420.5 443 L 425 447.5 L 426 451.5 Q 424.8 454.3 419.5 453 L 403.5 444 L 395.5 442 L 388.5 442 L 385.5 443 L 378 438.5 Q 380.8 434.3 389.5 436 L 392 433.5 L 393 430.5 L 388.5 415 Z " /><path fill="rgb(255,255,255)" stroke="rgb(255,255,255)" stroke-width="0" opacity="1" d="M 337.5 417 L 348 419 Q 346 423.5 347 432.5 L 351.5 440 L 356.5 442 L 376.5 442 Q 382.3 443.3 385 447.5 L 382.5 446 L 378.5 444 L 359.5 443 L 360.5 445 L 376.5 447 L 384 451.5 L 385 455.5 Q 383.5 458.5 377.5 457 L 366.5 453 L 356.5 447 L 348.5 445 L 349.5 447 L 365 456.5 L 367 462.5 L 364.5 466 L 357.5 464 Q 350.4 455.6 339.5 451 Q 334.4 448.6 325.5 450 Q 323.2 452.7 317.5 452 Q 315 451 316 446.5 Q 319.7 440.2 331.5 442 L 336 437.5 L 337 434.5 L 337.5 417 Z " /><path fill="rgb(0,0,0)" stroke="rgb(0,0,0)" stroke-width="0" opacity="1" d="M 412.5 42 L 418.5 42 L 426 47.5 L 428.5 54 Q 432.3 47.3 443.5 48 L 450 52.5 Q 453 56 452.5 63 L 458.5 61 Q 464.3 62.3 467 66.5 L 469 74.5 L 466 81 L 460.5 84 L 455.5 84 L 448.5 81 L 434 90.5 Q 455 95.5 466 110.5 Q 472 118.5 474.5 130 L 475 128 Q 477.7 126.9 477 129.5 L 475 134.5 L 476.5 134 L 479.5 133 L 476 137.5 L 477 148.5 Q 484.8 154.2 484 168.5 Q 480.4 181.9 470.5 189 L 461 195.5 L 457.5 203 L 450.5 204 L 446.5 202 L 443 204.5 L 444 218.5 L 463 258.5 L 471 282.5 L 474 299.5 L 474 319.5 L 471 335.5 L 462 356.5 Q 453.3 370.8 440.5 381 Q 429.5 391 415 396 Q 411.7 405.7 403.5 412 L 401 413.5 Q 401.6 424.4 408.5 429 L 424.5 430 L 425.5 429 L 434.5 429 Q 441.9 430.1 445 435.5 L 447 442.5 L 444.5 446 L 441 447 L 438.5 451 L 431.5 452 L 430 451.5 L 428 456 Q 425.3 457.9 418.5 457 L 402.5 448 L 390.5 446 L 388 447.5 L 389 448.5 L 389 456.5 L 387 460 L 379.5 462 L 370.5 458 L 370 459.5 L 371 463.5 L 367.5 469 L 359.5 470 L 342.5 457 Q 337.7 452.8 327.5 454 Q 323.9 456.9 316.5 456 L 313 453.5 L 312 445.5 L 316.5 440 Q 320.8 436.3 330.5 438 L 332 436.5 L 333 434.5 L 333 415.5 L 326 406.5 L 326 401 L 311.5 405 L 296.5 406 Q 295 403.5 289.5 405 L 281.5 401 L 274.5 403 L 247.5 403 L 242.5 402 L 232.5 396 L 208 419.5 L 203.5 425 L 184.5 438 L 178.5 438 L 169.5 443 L 158.5 446 L 147.5 446 L 143.5 444 L 126.5 444 Q 114.1 440.9 107 432.5 L 105 428.5 L 104 411.5 Q 106.1 401.1 112 394.5 L 110.5 394 L 96.5 398 L 80.5 398 L 72.5 396 L 63.5 390 L 48.5 386 L 33 372.5 Q 27.3 366.2 29 352.5 L 31 347.5 L 29 341.5 Q 34.8 323.3 48.5 313 Q 61.4 302.9 81 299.5 Q 57.7 291.8 44 274.5 L 40 267.5 L 40 264.5 L 32 253.5 Q 28.2 245.8 28 234.5 L 32 222 Q 29.3 223.1 30 220.5 L 41.5 208 Q 49.5 200.5 65.5 201 L 71.5 197 L 93.5 197 L 107.5 201 L 107.5 200 Q 105.3 200.8 106 198.5 Q 93.3 187.2 87 169.5 L 86 157.5 L 82 146.5 L 82 134.5 L 84 130.5 L 84 123.5 L 86 116.5 Q 89.3 108.8 95.5 104 L 107.5 98 L 125.5 96 L 126.5 97 L 140.5 98 L 156.5 103 Q 171.4 110.1 182 121.5 L 182.5 123 L 183 120.5 L 181 112.5 L 181 103.5 L 183 97.5 L 183 89.5 L 185 80.5 Q 188.4 70.9 195 64.5 L 197 58.5 L 200.5 55 Q 209.5 47.5 226.5 48 L 243.5 53 L 252.5 60 Q 257.8 59.2 259.5 62 L 267 69.5 L 271 79 L 279 85.5 L 286 98.5 L 292.5 124 Q 298.3 106.8 310.5 96 L 326.5 86 Q 331.9 82.9 341.5 84 Q 350.8 87.2 356 94.5 L 363 108.5 L 364 117.5 L 368 125.5 L 370 142.5 L 369 143.5 L 369 157.5 L 365 174.5 L 356 194.5 L 357.5 194 Q 377.7 191.8 384 203.5 L 388 212.5 L 389 235.5 L 386 247.5 L 374 267 Q 390.3 265 399.5 271 Q 406 269.5 409 264.5 Q 415.4 254.4 413 235.5 L 408 216.5 L 401 202.5 L 396.5 197 Q 386.9 193.1 381 185.5 L 372 169.5 L 370 160.5 L 370 144.5 Q 374.5 117.5 391.5 103 L 405 95 Q 401.3 83.8 392.5 77 Q 389.8 79.8 383.5 79 L 378 75.5 Q 374.5 71.5 376 62.5 L 382.5 54 Q 385.2 51.2 391.5 52 L 398 56.5 L 398.5 58 Q 400.6 49.6 406.5 45 L 412.5 42 Z M 414 46 L 410 48 Q 403 54 402 66 L 406 68 L 408 72 L 413 90 Q 412 93 415 92 L 413 68 L 411 65 L 413 65 L 421 62 L 424 55 L 423 51 Q 421 45 414 46 Z M 439 52 L 436 53 L 429 61 L 429 66 L 426 74 L 425 86 L 424 87 L 425 90 L 429 77 L 433 70 L 434 69 L 433 66 L 438 68 Q 443 69 446 66 L 448 63 L 447 56 Q 445 52 439 52 Z M 220 53 L 211 55 L 203 59 L 203 61 L 199 68 Q 200 72 197 71 L 197 69 Q 190 76 188 88 L 188 103 L 191 114 L 194 119 L 194 121 Q 188 116 187 106 L 186 106 L 186 116 L 190 133 L 208 165 L 214 180 L 217 191 L 224 187 Q 236 187 242 193 L 245 198 Q 246 200 250 200 L 253 203 L 251 183 L 244 171 L 238 166 L 239 164 L 241 165 L 247 173 L 249 174 L 245 155 L 246 152 L 249 160 L 253 179 L 258 162 L 260 161 L 254 182 L 254 192 L 255 193 L 256 208 Q 263 215 266 227 L 269 241 L 269 252 L 270 253 L 269 272 L 267 281 L 266 298 L 265 299 L 265 308 L 264 309 L 264 326 L 268 339 L 278 328 Q 279 321 276 319 L 276 300 L 281 273 L 289 245 L 302 213 L 302 191 L 301 190 L 302 188 L 304 193 L 304 201 L 305 202 L 304 204 L 305 206 L 314 181 L 316 182 L 306 208 L 307 209 L 324 194 L 325 195 L 322 197 L 302 218 L 297 230 L 285 266 Q 284 278 280 287 L 279 303 L 278 304 L 278 316 L 281 326 L 284 323 L 284 310 L 285 309 L 286 293 L 290 275 L 295 260 L 304 240 L 318 220 L 338 203 L 350 197 L 360 176 L 365 153 Q 367 135 363 125 L 361 131 Q 362 107 351 96 L 342 89 L 330 90 Q 320 93 315 100 L 313 100 Q 300 112 296 133 Q 298 139 294 138 L 294 132 L 291 149 L 289 154 L 289 166 L 287 176 L 287 178 L 286 195 L 283 204 L 283 215 L 276 255 L 275 277 L 274 278 L 274 290 L 272 290 L 273 260 L 274 259 L 276 235 L 280 216 L 280 211 L 279 213 L 277 214 L 284 189 L 284 183 L 277 197 L 275 198 Q 282 185 285 169 L 285 165 L 283 170 L 280 172 L 286 153 L 287 140 L 288 139 L 287 120 L 284 107 L 274 87 L 272 86 L 273 90 Q 275 97 271 96 Q 270 76 258 66 L 256 67 L 259 73 L 259 76 L 255 69 Q 245 53 220 53 Z M 389 56 L 386 57 L 380 64 L 381 73 L 385 75 L 391 74 Q 395 71 396 66 L 395 60 Q 393 56 389 56 Z M 425 63 L 417 69 Q 415 75 418 77 L 418 91 L 420 91 L 421 90 L 421 80 L 425 65 L 425 63 Z M 457 65 L 452 67 L 449 71 L 450 76 L 456 80 L 462 79 L 465 74 L 464 70 Q 462 65 457 65 Z M 400 68 L 395 75 Q 403 81 408 92 Q 407 94 410 93 L 404 74 Q 405 71 403 72 L 400 68 Z M 437 71 L 429 88 L 430 90 L 444 73 L 437 71 Z M 448 74 L 441 82 L 448 78 L 448 74 Z M 418 95 Q 404 97 396 105 Q 387 112 382 122 L 376 137 L 374 148 L 375 165 Q 377 176 384 183 Q 392 192 404 197 L 417 201 Q 423 199 425 202 L 440 201 L 443 200 L 442 199 Q 431 191 428 177 L 425 178 L 426 175 L 430 172 Q 436 167 438 160 Q 442 155 449 153 L 453 154 L 454 154 L 452 150 Q 451 138 455 133 L 460 129 Q 465 128 467 130 L 470 128 L 467 119 L 466 121 L 463 119 Q 456 117 455 120 Q 452 121 453 118 L 459 114 L 464 116 L 465 117 L 463 113 Q 455 102 442 97 L 434 95 L 418 95 Z M 118 101 L 105 104 L 98 108 Q 92 113 89 122 L 89 138 L 92 144 Q 93 146 90 145 L 87 138 L 86 138 L 88 153 Q 91 163 98 170 L 97 170 L 92 165 L 91 165 L 96 179 L 109 197 L 120 207 Q 142 216 159 231 L 167 240 L 167 241 L 179 250 Q 195 266 206 288 L 207 288 L 206 285 L 207 283 L 198 259 L 195 244 L 195 236 L 189 225 Q 181 215 169 210 L 168 208 L 181 214 L 183 216 L 167 193 L 168 191 Q 178 200 184 214 L 185 214 L 184 201 L 183 200 Q 182 194 185 191 L 188 219 L 195 230 L 196 226 L 197 214 L 200 207 L 203 205 L 203 203 L 208 195 L 213 191 L 204 165 L 203 165 L 205 175 Q 206 180 204 181 Q 200 149 183 130 Q 172 116 156 108 L 136 102 L 118 101 Z M 461 132 L 457 134 L 455 139 L 456 142 L 456 141 L 460 138 L 464 139 L 468 146 L 468 155 L 466 157 L 467 158 Q 471 155 472 149 L 471 140 L 468 134 L 465 132 L 461 132 Z M 461 142 L 459 144 L 461 147 Q 463 148 462 146 L 462 144 Q 463 141 461 142 Z M 473 151 L 471 157 Q 469 160 463 161 Q 468 165 470 173 L 470 181 L 469 182 L 459 180 L 460 191 L 469 186 Q 476 180 480 170 Q 481 159 477 154 L 473 151 Z M 447 157 L 445 158 Q 438 163 435 172 L 432 174 Q 436 178 443 179 L 449 179 L 460 176 L 467 178 L 467 174 L 463 165 L 454 157 L 447 157 Z M 433 178 L 433 184 L 440 194 L 451 200 Q 456 201 457 199 L 457 196 L 456 198 L 449 197 Q 440 191 436 181 L 433 178 Z M 453 181 L 448 182 L 450 187 Q 447 188 448 186 L 444 182 L 440 183 L 446 192 L 452 196 L 454 196 L 454 186 L 455 185 Q 457 180 453 181 Z M 222 191 L 220 192 L 218 192 L 213 195 Q 206 200 204 210 Q 205 214 202 213 L 202 208 L 200 215 L 200 231 L 203 241 L 203 242 Q 198 237 198 229 L 197 229 L 198 245 L 204 268 L 213 289 L 226 309 L 225 309 Q 217 302 213 292 L 211 291 Q 219 316 235 334 Q 244 345 258 353 L 264 350 Q 263 344 266 342 L 262 330 Q 264 323 261 322 L 261 309 L 262 308 L 263 291 L 264 290 L 263 286 L 265 276 L 265 268 L 266 267 L 266 246 Q 264 244 265 239 L 260 221 L 258 218 Q 259 215 256 216 L 252 208 Q 250 203 249 206 L 246 203 Q 241 196 233 192 L 222 191 Z M 363 198 L 350 201 L 335 210 Q 327 216 324 225 L 322 225 L 325 220 L 325 218 Q 314 227 308 240 L 296 267 L 289 293 L 287 314 L 286 315 L 287 321 L 297 307 L 307 297 L 308 280 L 309 282 L 310 294 L 314 285 L 317 264 L 318 268 L 317 272 L 318 280 L 330 263 L 327 259 L 328 244 L 335 232 Q 341 223 352 219 Q 360 218 364 221 L 368 230 Q 368 243 361 251 Q 355 261 342 265 L 331 264 L 313 291 L 314 292 Q 324 282 339 276 L 355 270 L 367 268 Q 375 261 380 251 L 384 240 L 384 236 L 382 237 Q 383 239 380 238 L 384 227 Q 386 212 380 206 Q 375 198 363 198 Z M 71 201 L 71 202 L 75 202 L 86 206 L 88 209 L 75 205 Q 46 203 36 220 L 41 221 Q 42 224 38 223 L 33 233 L 33 242 L 35 249 L 45 265 L 55 271 L 56 273 L 49 270 L 47 271 L 49 274 Q 63 290 89 295 Q 93 294 92 297 L 88 296 L 83 297 L 90 299 L 104 299 L 105 300 L 118 301 L 123 303 L 136 304 L 170 314 Q 199 326 224 344 L 251 356 Q 255 357 256 355 L 254 353 L 253 355 Q 239 349 229 340 L 191 304 L 168 287 L 153 282 L 135 282 L 138 280 L 154 280 L 155 281 L 157 281 L 132 268 L 131 266 Q 144 270 155 277 L 156 277 L 147 262 L 148 260 L 159 279 L 191 301 L 231 339 L 247 350 L 248 350 L 243 345 L 224 324 L 202 286 L 183 260 L 176 254 L 180 263 L 180 265 Q 174 251 164 242 Q 152 229 138 220 L 136 221 L 145 233 L 145 234 L 138 226 Q 127 213 110 206 L 91 201 L 71 201 Z M 405 201 L 415 224 L 417 233 L 417 241 L 418 242 Q 419 258 412 268 L 403 275 L 405 275 Q 413 282 415 295 L 415 308 L 409 328 L 388 361 L 364 383 L 351 391 L 330 401 L 330 406 L 333 411 L 342 415 Q 350 416 355 413 L 378 392 L 379 392 L 375 399 L 374 401 L 390 400 L 411 394 Q 426 388 438 378 Q 463 359 469 322 L 469 297 L 465 278 Q 457 251 444 230 L 438 211 L 439 204 L 437 205 L 420 205 L 405 201 Z M 354 221 L 344 226 Q 333 234 329 249 Q 328 256 330 260 L 335 263 L 341 263 L 351 258 Q 361 251 365 238 Q 367 227 363 223 Q 360 220 354 221 Z M 372 271 L 353 275 L 343 279 Q 325 286 312 298 L 298 312 L 298 314 Q 311 313 318 305 L 319 306 Q 314 309 312 317 L 313 321 L 318 323 L 324 323 L 332 320 L 333 321 L 331 323 L 321 326 Q 316 329 314 336 L 315 340 L 322 344 L 329 344 L 336 342 L 346 337 L 355 329 L 346 341 L 346 346 L 354 349 L 361 348 L 368 345 L 384 333 Q 383 330 386 331 L 386 333 L 377 342 L 376 346 L 380 348 Q 388 348 392 344 Q 402 336 407 322 L 411 305 Q 412 289 405 281 Q 395 269 372 271 Z M 89 303 L 67 308 L 52 316 L 36 334 L 39 335 L 35 339 L 34 346 L 37 344 L 39 345 Q 34 347 33 355 L 33 362 L 38 372 Q 45 380 56 384 L 70 387 L 73 386 L 78 387 L 70 390 L 76 391 L 87 389 L 89 390 Q 88 393 83 392 L 83 393 L 99 393 L 116 388 L 120 382 Q 131 369 149 363 L 165 358 L 179 357 L 180 356 L 212 357 L 242 363 L 247 363 L 251 359 L 230 350 L 191 327 L 169 317 L 166 318 L 169 319 L 169 321 Q 158 313 144 309 L 141 310 L 150 314 L 150 316 L 143 312 L 120 305 L 107 304 L 106 303 L 89 303 Z M 136 307 L 136 308 L 138 308 L 136 307 Z M 139 308 L 139 309 L 141 309 L 139 308 Z M 310 313 Q 304 317 296 318 L 287 325 L 269 344 L 268 351 L 271 352 L 278 352 L 289 348 L 311 335 L 317 326 L 313 324 Q 309 321 310 313 Z M 310 337 Q 297 349 278 355 Q 269 357 266 353 L 257 359 L 248 368 L 247 374 L 250 376 L 257 378 L 272 378 L 289 374 Q 312 366 329 350 L 329 352 Q 315 366 295 375 L 280 380 L 266 381 L 265 382 L 254 381 L 253 380 L 250 380 L 242 385 Q 237 387 237 394 L 243 397 L 253 399 L 269 399 L 270 398 L 283 397 L 307 389 Q 336 375 358 354 L 358 356 Q 331 385 288 400 L 293 401 L 314 400 L 337 393 Q 355 385 370 373 L 392 349 L 392 347 L 385 351 L 377 350 Q 373 349 374 345 L 357 352 L 348 351 Q 342 349 343 341 Q 338 346 330 347 Q 320 348 316 345 Q 312 343 312 339 L 310 337 Z M 249 350 L 250 352 L 251 352 L 249 350 Z M 177 360 L 161 363 L 149 367 L 130 378 L 123 386 L 132 382 L 132 384 L 121 391 Q 112 398 109 411 L 109 426 L 111 431 L 123 438 L 131 440 L 144 440 L 153 438 L 158 435 L 158 437 L 152 440 L 152 441 L 161 441 L 171 438 L 188 428 L 193 424 L 190 429 L 190 430 L 199 424 L 211 411 Q 219 401 231 394 L 233 392 Q 232 387 235 386 Q 239 380 245 379 L 242 372 L 228 374 L 213 379 L 203 390 L 200 392 L 204 385 L 208 380 Q 196 382 189 388 L 186 388 Q 195 381 207 378 L 195 375 L 195 374 L 210 375 L 211 376 L 231 371 Q 239 372 243 370 Q 242 367 245 366 L 226 362 L 212 361 L 211 360 L 177 360 Z M 409 398 L 402 401 L 389 404 L 383 404 L 380 406 L 381 408 L 388 412 L 395 412 L 401 409 L 410 399 L 409 398 Z M 370 405 Q 363 414 352 418 L 351 423 L 352 435 L 358 438 L 374 438 L 375 436 Q 379 430 389 432 L 384 416 L 381 413 L 376 407 Q 376 404 370 405 Z M 389 415 L 393 431 L 392 434 L 390 436 Q 381 434 378 439 L 386 443 L 389 442 L 396 442 L 404 444 L 420 453 Q 425 454 426 452 L 425 448 L 421 443 L 410 439 Q 405 440 406 437 Q 424 437 432 448 L 438 447 L 437 443 L 433 439 L 421 438 L 420 437 Q 414 439 415 435 L 433 436 L 438 439 Q 440 438 439 441 Q 441 445 443 442 L 442 439 Q 439 434 433 433 Q 427 432 426 434 Q 412 436 405 431 Q 399 426 397 417 Q 398 413 391 415 L 389 415 Z M 338 417 L 337 435 L 336 438 L 332 442 Q 320 440 316 447 Q 315 451 318 452 Q 323 453 326 450 Q 334 449 340 451 Q 350 456 358 464 L 365 466 L 367 463 L 365 457 L 350 447 L 349 445 L 357 447 L 367 453 L 378 457 Q 383 458 385 456 L 384 452 L 377 447 L 361 445 L 360 443 L 379 444 L 382 446 L 383 446 L 377 442 L 357 442 L 352 440 L 347 433 Q 346 423 348 419 L 338 417 Z M 188 430 L 187 432 L 189 431 L 188 430 Z " /><path fill="rgb(0,0,0)" stroke="rgb(0,0,0)" stroke-width="0" opacity="1" d="M 230.5 80 Q 244.2 81.3 250 90.5 L 256 101.5 L 259 112.5 L 259 131.5 L 255 142.5 L 248.5 149 Q 245.2 152.2 237.5 151 Q 226.8 147.2 221 138.5 Q 211.8 126.2 211 105.5 L 216 89.5 L 222.5 83 L 230.5 80 Z M 228 83 L 224 85 Q 216 90 214 102 L 215 120 Q 218 131 224 139 Q 229 146 240 149 L 247 148 L 252 143 L 257 129 Q 258 104 247 91 L 237 83 L 228 83 Z " /><path fill="rgb(0,0,0)" stroke="rgb(0,0,0)" stroke-width="0" opacity="1" d="M 231.5 100 L 241.5 101 L 248 107.5 Q 253.9 114.6 253 128.5 Q 251.5 137 245.5 141 L 236.5 142 L 233.5 141 L 226 133.5 L 222 123.5 L 222 112.5 Q 223.8 104.9 229.5 101 L 231.5 100 Z M 234 102 L 231 103 Q 225 107 224 115 Q 224 127 229 134 L 235 138 L 231 130 Q 230 119 236 116 L 243 117 Q 249 122 249 134 L 250 131 Q 252 116 246 109 Q 243 102 234 102 Z " /><path fill="rgb(0,0,0)" stroke="rgb(0,0,0)" stroke-width="0" opacity="1" d="M 327.5 117 Q 340.1 114.9 343 122.5 Q 348.6 129.4 347 143.5 Q 344.8 144.8 346 149.5 L 340 164.5 L 328.5 177 L 322.5 180 L 316.5 180 L 309 173.5 L 306 163.5 L 306 152.5 L 309 139.5 L 314 129.5 L 322.5 120 L 327.5 117 Z M 330 119 L 324 122 Q 312 131 309 149 L 309 167 L 311 173 L 318 178 L 322 178 L 328 175 L 339 162 L 343 152 L 345 142 L 344 131 L 341 124 Q 339 118 330 119 Z " /><path fill="rgb(0,0,0)" stroke="rgb(0,0,0)" stroke-width="0" opacity="1" d="M 409.5 117 L 415 119 L 415 122 L 406.5 122 L 398.5 129 L 398 126.5 L 402.5 120 L 409.5 117 Z " /><path fill="rgb(0,0,0)" stroke="rgb(0,0,0)" stroke-width="0" opacity="1" d="M 132.5 129 L 144.5 130 L 158 139.5 Q 165.8 147.7 170 159.5 L 172 167.5 L 172 179.5 L 167 190 L 158.5 194 L 150.5 194 L 138.5 189 L 129 182 L 118 164.5 L 116 157.5 L 116 146.5 Q 118 136.5 125.5 132 L 132.5 129 Z M 137 131 L 127 134 L 120 142 L 118 151 Q 119 167 127 176 Q 135 186 149 191 L 161 191 L 163 190 L 167 186 L 170 177 L 168 162 L 160 146 L 148 134 L 137 131 Z " /><path fill="rgb(0,0,0)" stroke="rgb(0,0,0)" stroke-width="0" opacity="1" d="M 325.5 134 Q 332.8 133.2 335 137.5 Q 339.1 142 338 151.5 Q 335.7 164.7 326.5 171 L 318.5 172 L 314 168.5 L 312 164.5 L 311 156.5 L 314 145.5 L 320.5 137 L 325.5 134 Z M 325 137 L 323 138 Q 316 144 314 154 L 315 164 L 318 153 L 324 148 L 328 149 L 330 152 L 331 156 Q 331 162 328 165 L 329 166 L 334 158 L 336 149 L 333 138 Q 331 136 325 137 Z " /><path fill="rgb(0,0,0)" stroke="rgb(0,0,0)" stroke-width="0" opacity="1" d="M 396.5 134 L 403.5 137 Q 406.6 132.1 416.5 134 L 425 141.5 Q 429.5 147 428 158.5 Q 426.5 165 421.5 168 L 412.5 170 Q 404.4 168.6 401 162.5 Q 396.8 157.4 398 148 L 391 146 L 391.5 143 Q 393.5 145.8 398 145 Q 399.1 142.3 396.5 143 L 394 142 L 393 138.5 L 394.5 139 L 399.5 140 L 397 136.5 L 396.5 134 Z M 411 137 L 408 138 Q 403 141 401 148 Q 400 156 403 160 Q 401 148 409 145 L 417 146 L 421 153 Q 423 162 419 166 L 421 166 Q 425 163 426 157 L 425 148 L 423 144 Q 420 137 411 137 Z M 410 149 Q 409 153 412 154 L 414 153 Q 416 147 410 149 Z " /><path fill="rgb(0,0,0)" stroke="rgb(0,0,0)" stroke-width="0" opacity="1" d="M 142.5 146 Q 153.6 147.4 159 154.5 Q 165.8 161.2 165 175.5 Q 163.8 181.3 159.5 184 Q 156.5 187 149.5 186 Q 139.8 183.3 135 175.5 Q 130.2 169.8 130 159.5 L 133 151.5 L 135.5 149 L 142.5 146 Z M 141 149 L 136 151 L 133 157 L 133 166 L 138 176 Q 142 181 149 183 L 152 183 L 151 182 Q 144 178 142 170 L 144 162 L 149 160 L 156 162 Q 160 165 161 171 L 162 171 L 162 166 L 158 158 Q 154 148 141 149 Z " /><path fill="rgb(0,0,0)" stroke="rgb(0,0,0)" stroke-width="0" opacity="1" d="M 444 164 L 449 165 Q 450.7 169.1 446.5 168 L 444 167 L 444 164 Z " /><path fill="rgb(0,0,0)" stroke="rgb(0,0,0)" stroke-width="0" opacity="1" d="M 229.5 214 Q 238.5 215 242 221.5 Q 250.3 231.7 249 251.5 L 245 262.5 L 241.5 266 L 236.5 268 L 226 261.5 L 218 245.5 Q 215.7 238.8 217 228.5 Q 218.5 220 224.5 216 L 229.5 214 Z M 227 217 L 222 222 L 219 231 L 220 245 L 228 261 L 235 265 L 240 265 L 245 258 L 247 249 L 245 233 L 240 223 Q 238 215 227 217 Z " /><path fill="rgb(0,0,0)" stroke="rgb(0,0,0)" stroke-width="0" opacity="1" d="M 78.5 225 Q 93.3 223.3 101.5 228 Q 114.1 233.4 122 243.5 Q 128.3 249.7 128 262.5 Q 125.9 270.4 119.5 274 L 108.5 278 L 98.5 278 Q 77.6 274.4 67 260.5 Q 61.5 254 61 242.5 Q 62.7 234.2 68.5 230 L 78.5 225 Z M 82 227 L 70 232 L 64 241 L 64 250 L 69 260 Q 79 271 97 275 Q 111 277 119 272 L 125 265 L 125 255 L 120 245 Q 112 235 101 230 L 90 227 L 82 227 Z " /><path fill="rgb(0,0,0)" stroke="rgb(0,0,0)" stroke-width="0" opacity="1" d="M 230.5 229 L 235.5 229 L 241 234.5 Q 245.7 240.3 244 252.5 L 238.5 260 L 235.5 261 Q 229.4 259.6 227 254.5 Q 222.5 249 224 237.5 L 228.5 230 L 230.5 229 Z M 232 231 L 230 232 L 226 240 L 226 245 L 229 254 L 230 254 L 229 251 L 230 243 L 234 240 L 238 241 Q 242 244 241 252 L 242 252 Q 243 241 239 236 L 235 231 L 232 231 Z " /><path fill="rgb(0,0,0)" stroke="rgb(0,0,0)" stroke-width="0" opacity="1" d="M 345.5 231 Q 353.5 229.5 356 233.5 L 358 241.5 Q 354.9 252.4 346.5 258 L 338.5 260 L 333 256.5 Q 330.7 253.3 332 246.5 Q 334.5 238.5 340.5 234 L 345.5 231 Z M 348 233 L 342 236 L 334 248 L 335 251 L 336 247 L 343 241 Q 348 240 349 244 Q 350 252 345 255 L 347 255 Q 352 251 355 244 Q 356 237 354 234 L 348 233 Z " /><path fill="rgb(0,0,0)" stroke="rgb(0,0,0)" stroke-width="0" opacity="1" d="M 90.5 237 L 103.5 238 Q 111.3 241.3 116 247.5 L 119 253.5 L 119 261.5 L 113.5 268 Q 108.8 271.8 98.5 270 Q 89.1 267.9 84 261.5 Q 79.8 257.2 79 249.5 Q 80.1 242.1 85.5 239 L 90.5 237 Z M 93 239 L 86 242 L 82 248 Q 81 254 84 258 L 91 264 L 103 268 L 112 266 Q 104 266 101 263 L 95 257 L 96 250 L 103 246 Q 109 246 112 249 L 113 249 Q 108 239 93 239 Z M 103 252 Q 99 254 104 256 Q 106 257 105 253 L 103 252 Z " /><path fill="rgb(0,0,0)" stroke="rgb(0,0,0)" stroke-width="0" opacity="1" d="M 238.5 269 L 240 271.5 L 243.5 293 L 244 288.5 L 248.5 278 L 249 281.5 L 247 285.5 L 244 301.5 L 249 325.5 L 257 343.5 L 254 341.5 L 247 326.5 L 243 306.5 L 232 290.5 L 233.5 290 L 241.5 300 L 242 297.5 L 239 283.5 L 238.5 269 Z " /><path fill="rgb(0,0,0)" stroke="rgb(0,0,0)" stroke-width="0" opacity="1" d="M 85.5 323 Q 111.2 320.8 121 334.5 Q 125 338 124 346.5 Q 122.3 354.8 116.5 359 Q 108.6 366.1 96.5 369 L 81.5 370 Q 80.3 367.8 75.5 369 L 66.5 365 L 60 358.5 L 58 355.5 L 57 346.5 Q 59.4 336.4 66.5 331 Q 73.9 324.9 85.5 323 Z M 89 325 L 77 328 L 67 334 L 60 344 Q 58 353 62 358 Q 67 365 78 367 L 94 367 L 99 366 L 112 360 Q 119 355 122 346 Q 122 339 119 336 L 107 327 L 97 325 L 89 325 Z " /><path fill="rgb(0,0,0)" stroke="rgb(0,0,0)" stroke-width="0" opacity="1" d="M 94.5 330 Q 110.1 329.4 115 339.5 L 116 344.5 Q 114.4 353.4 107.5 357 Q 100.6 362.1 86.5 360 L 78 354.5 Q 74.3 351.7 75 344.5 Q 76.5 338 81.5 335 L 86.5 332 L 94.5 330 Z M 92 333 L 83 337 Q 77 340 78 351 Q 81 356 89 358 L 98 358 L 108 354 L 111 350 L 106 352 Q 98 354 95 351 L 90 346 L 91 342 L 96 337 L 103 335 L 105 336 L 108 336 Q 102 332 92 333 Z M 99 342 L 97 344 L 100 345 L 99 342 Z " /><path fill="rgb(0,0,0)" stroke="rgb(0,0,0)" stroke-width="0" opacity="1" d="M 139.5 332 L 156.5 341 L 174.5 342 L 175.5 343 L 192.5 345 L 237 358 Q 238.1 360.7 235.5 360 L 194.5 348 L 177.5 345 L 170.5 345 L 169.5 344 L 157.5 344 Q 145.6 346.1 137.5 352 L 139.5 349 L 152 343.5 L 127 342.5 L 129.5 341 L 152 340.5 L 140.5 334 L 139.5 332 Z " /><path fill="rgb(0,0,0)" stroke="rgb(0,0,0)" stroke-width="0" opacity="1" d="M 163.5 381 Q 179.9 378.6 185 387.5 Q 187.3 390.7 186 397.5 Q 182.5 407 175.5 413 Q 168.7 419.2 158.5 422 L 144.5 423 Q 138 421.5 135 416.5 Q 132 413.5 133 406.5 Q 136.1 395.6 144.5 390 Q 152.3 383.8 163.5 381 Z M 168 383 L 154 387 L 146 392 Q 137 397 135 409 L 137 416 L 144 420 Q 154 421 161 419 L 172 413 Q 181 407 184 396 L 183 389 L 180 385 L 173 383 L 168 383 Z " /><path fill="rgb(0,0,0)" stroke="rgb(0,0,0)" stroke-width="0" opacity="1" d="M 166.5 386 Q 176.3 385.3 179 391.5 L 180 395.5 Q 178.3 403.8 172.5 408 Q 167.3 413.3 156.5 413 L 149 408.5 L 148 399.5 L 153.5 392 Q 158.3 387.3 166.5 386 Z M 165 389 L 154 394 L 150 402 L 151 408 L 155 410 L 164 410 Q 172 407 176 401 L 176 399 L 169 404 Q 163 405 161 403 Q 159 401 160 396 L 166 390 L 168 390 L 165 389 Z M 165 396 Q 164 399 167 398 Q 168 395 165 396 Z " /></svg>