<svg width="1254" height="1254" preserveAspectRatio="xMidYMid meet" viewBox="0 0 512 512" version="1.1" xmlns="http://www.w3.org/2000/svg" ><path fill="rgb(255,255,255)" stroke="rgb(255,255,255)" stroke-width="0" opacity="1" d="M 0 0 L 512 0 L 512 512 L 0 512 L 0 0 Z M 281 66 L 252 71 L 226 80 Q 200 90 182 107 Q 161 125 146 150 Q 132 172 126 202 L 122 200 L 119 195 L 114 190 L 105 191 Q 99 193 101 203 L 108 208 Q 113 210 115 207 L 118 207 L 125 214 L 124 216 L 124 235 L 108 230 Q 97 228 92 231 L 79 240 Q 65 251 58 268 L 59 272 L 36 285 L 30 285 L 21 289 L 14 297 L 16 300 L 26 295 L 35 295 L 36 296 L 46 295 L 52 293 L 63 286 L 69 279 Q 68 276 72 277 L 75 274 L 79 265 L 92 246 L 96 246 L 107 251 L 126 257 Q 116 267 111 282 L 107 297 L 107 306 Q 94 307 86 314 L 71 332 Q 64 343 60 358 L 61 363 L 43 373 L 37 373 L 28 377 Q 21 381 21 389 L 24 389 Q 27 384 35 383 Q 39 382 41 384 L 52 383 L 64 377 Q 69 373 71 367 L 75 366 L 76 365 L 78 353 L 82 341 L 86 333 L 88 331 L 95 331 L 103 329 Q 105 343 112 352 Q 121 363 134 370 L 156 379 L 167 381 L 191 381 L 206 378 Q 223 373 236 363 L 250 349 L 254 342 L 264 336 Q 268 348 278 356 L 265 395 L 266 398 Q 269 399 267 401 L 267 413 L 269 421 L 281 436 L 284 445 Q 286 448 288 444 L 288 431 L 283 422 L 279 405 Q 277 399 281 400 L 284 393 L 288 376 Q 287 371 289 370 L 289 351 L 290 350 Q 290 335 283 328 L 286 326 L 294 326 L 295 325 L 299 325 L 303 329 L 320 338 L 332 342 L 344 343 L 352 360 L 357 378 Q 356 380 359 379 L 364 391 L 368 396 L 383 406 L 390 406 L 398 409 L 404 415 L 405 414 Q 405 406 401 403 Q 397 396 388 395 L 372 378 L 373 376 L 373 370 L 370 361 L 357 339 L 353 335 L 351 332 Q 347 326 340 323 L 322 319 Q 359 306 385 283 L 398 286 L 417 286 L 423 299 L 429 321 L 433 323 L 435 329 Q 441 336 452 340 Q 457 339 458 342 L 470 342 L 478 347 Q 479 349 480 347 L 476 338 Q 470 331 459 330 L 444 320 L 445 318 L 445 312 L 442 303 L 430 280 L 427 277 L 425 274 Q 420 265 406 266 L 403 266 Q 419 249 428 226 L 434 224 L 448 214 Q 455 225 457 241 L 461 245 Q 463 244 462 247 L 468 252 L 481 256 L 485 255 L 490 255 L 496 259 L 498 259 L 497 253 L 490 246 L 482 245 L 472 240 L 472 239 Q 469 215 455 203 L 450 198 L 443 198 L 434 200 L 433 177 L 427 156 Q 418 131 402 113 Q 382 89 352 76 L 315 67 Q 308 69 307 66 L 281 66 Z " /><path fill="rgb(255,255,255)" stroke="rgb(255,255,255)" stroke-width="0" opacity="1" d="M 277.5 70 L 309.5 70 Q 311 72.5 316.5 71 L 318 72.5 L 309.5 75 L 292.5 84 Q 274.5 96.5 260 112.5 Q 240.5 134 226 160.5 L 214 185.5 L 204 213.5 L 203 219.5 L 200.5 222 L 189.5 222 L 172.5 225 L 151.5 235 Q 144.3 216.7 130 205.5 L 130 199.5 Q 144.5 143.5 182.5 111 Q 201.8 93.8 227.5 83 L 247.5 76 L 277.5 70 Z M 250 81 Q 240 83 234 89 Q 229 93 228 100 L 229 104 L 235 109 L 242 111 Q 254 111 261 105 Q 266 101 268 94 L 267 88 Q 263 80 250 81 Z M 184 126 L 174 130 Q 164 135 161 147 Q 159 155 163 159 L 168 162 L 172 163 Q 185 162 192 155 Q 197 150 199 143 Q 200 134 197 131 Q 194 125 184 126 Z " /><path fill="rgb(255,255,255)" stroke="rgb(255,255,255)" stroke-width="0" opacity="1" d="M 321.5 75 L 335.5 75 L 360.5 84 Q 382.3 95.7 398 113.5 Q 412 129.5 421 150.5 L 428 171.5 L 430 182.5 L 430 193.5 L 426 207.5 L 415 228.5 Q 399.7 251.7 379.5 270 Q 360.3 287.8 335.5 300 L 304.5 311 L 282.5 312 Q 276 310.5 273 305.5 L 269 288.5 L 263 272.5 Q 255.3 255.3 242.5 243 L 234 236.5 L 235.5 234 L 251.5 226 Q 253.7 231.3 262.5 230 L 268 225.5 L 269 219.5 L 264.5 213 L 256.5 212 L 251 216.5 Q 251.8 218.8 249.5 218 L 236.5 223 L 224.5 231 Q 217.2 225.6 207 224 L 206 220.5 Q 226 149.5 272.5 105 L 299.5 84 Q 308.9 77.9 321.5 75 Z M 304 102 L 293 107 L 286 117 L 286 125 L 289 131 Q 293 136 301 138 Q 313 140 320 135 Q 325 131 327 125 L 327 116 L 323 109 Q 317 101 304 102 Z M 376 111 L 371 113 L 366 120 L 366 130 L 370 138 Q 375 145 385 148 Q 392 149 396 146 L 400 141 L 400 131 L 395 121 Q 390 111 376 111 Z M 273 160 L 263 164 Q 255 168 253 178 Q 252 188 256 194 Q 260 201 270 203 Q 282 205 288 200 Q 295 196 297 187 L 297 178 L 292 168 Q 287 159 273 160 Z M 356 185 L 348 189 Q 342 194 340 204 Q 340 215 345 221 Q 350 228 360 230 Q 370 231 375 226 Q 380 222 382 215 Q 384 201 378 195 L 369 186 Q 364 184 356 185 Z M 314 247 L 306 250 Q 298 254 296 264 Q 294 277 300 283 Q 304 289 313 291 Q 324 292 330 286 L 336 275 Q 338 262 333 257 Q 328 247 314 247 Z " /><path fill="rgb(255,255,255)" stroke="rgb(255,255,255)" stroke-width="0" opacity="1" d="M 108.5 193 Q 115 192 116 196.5 Q 117.3 203.8 112.5 205 Q 106.7 205.8 105 202.5 L 104 197.5 L 106.5 194 L 108.5 193 Z " /><path fill="rgb(255,255,255)" stroke="rgb(255,255,255)" stroke-width="0" opacity="1" d="M 444.5 201 Q 450 200.5 452 203.5 Q 452.8 209.3 448.5 210 L 430.5 222 L 430 220.5 L 432 216.5 L 434 204 L 444.5 201 Z " /><path fill="rgb(255,255,255)" stroke="rgb(255,255,255)" stroke-width="0" opacity="1" d="M 119.5 202 L 136 215.5 L 146 230.5 L 152 249.5 L 149 251 Q 144.4 224.3 126.5 210 L 118 203.5 L 119.5 202 Z " /><path fill="rgb(255,255,255)" stroke="rgb(255,255,255)" stroke-width="0" opacity="1" d="M 429.5 207 L 430 210.5 Q 425.7 228.2 417 241.5 Q 403.6 263.1 384.5 279 Q 362.2 298.7 332.5 311 L 315.5 317 L 295.5 322 L 276.5 323 L 275 319.5 L 277 314 Q 284.1 317.6 297.5 316 Q 328.1 310.1 350.5 296 Q 376.9 279.9 397 257.5 Q 417.8 236.8 429.5 207 Z " /><path fill="rgb(255,255,255)" stroke="rgb(255,255,255)" stroke-width="0" opacity="1" d="M 454 208 L 457 209.5 Q 465.3 221.2 469 237.5 L 462.5 242 L 460 238.5 Q 457.5 223.5 451 212.5 L 454 208 Z " /><path fill="rgb(255,255,255)" stroke="rgb(255,255,255)" stroke-width="0" opacity="1" d="M 257.5 215 Q 264 214 265 218.5 Q 266.3 225.8 261.5 227 L 255 226 L 253 220.5 L 257.5 215 Z " /><path fill="rgb(255,255,255)" stroke="rgb(255,255,255)" stroke-width="0" opacity="1" d="M 128.5 216 Q 138.8 225.7 143 241.5 L 132.5 250 L 128 237.5 L 128.5 216 Z " /><path fill="rgb(255,255,255)" stroke="rgb(255,255,255)" stroke-width="0" opacity="1" d="M 246.5 222 Q 251.3 220.7 250 224 Q 231.7 229.4 221 243.5 L 209.5 263 L 208 260.5 Q 214.2 246.2 224.5 236 Q 233.2 226.7 246.5 222 Z " /><path fill="rgb(255,255,255)" stroke="rgb(255,255,255)" stroke-width="0" opacity="1" d="M 186.5 226 Q 209.3 225 222 233 L 215.5 242 L 191.5 234 L 176.5 233 L 175.5 234 L 166.5 234 L 158.5 236 L 158.5 235 L 175.5 228 L 186.5 226 Z " /><path fill="rgb(255,255,255)" stroke="rgb(255,255,255)" stroke-width="0" opacity="1" d="M 96.5 233 L 110.5 234 L 125 239 L 129 252.5 L 125.5 253 Q 108.8 250.2 96.5 243 L 93.5 243 L 89 239.5 Q 88.3 235.8 90.5 235 L 96.5 233 Z " /><path fill="rgb(255,255,255)" stroke="rgb(255,255,255)" stroke-width="0" opacity="1" d="M 171.5 237 L 192.5 238 L 206.5 242 L 213 245.5 L 204 259.5 L 204 262.5 Q 205 267 211.5 266 L 214 263.5 L 214 260.5 L 220 250 L 234 260.5 Q 244.6 272.4 251 288.5 L 255 303.5 L 256 321.5 L 254 332.5 L 249 343.5 L 233.5 360 Q 221.7 369.2 205.5 374 L 191.5 377 L 165.5 377 Q 132.1 371.4 115 349.5 L 107 333.5 L 107 319.5 L 110 313.5 L 111 294.5 L 116 278.5 Q 124.3 259.8 139.5 248 L 144.5 245 L 146 249.5 L 145 252.5 L 150.5 255 L 155 251.5 L 153 241 L 171.5 237 Z M 137 270 L 132 272 Q 127 275 126 280 L 129 280 L 134 276 L 143 276 L 142 272 L 137 270 Z M 202 282 L 200 283 L 197 287 Q 209 286 212 295 Q 211 297 214 296 Q 215 290 212 288 Q 209 283 202 282 Z M 130 289 L 125 292 Q 119 296 117 305 Q 116 316 120 322 L 121 323 Q 118 322 119 325 Q 128 323 133 327 L 138 326 Q 145 322 147 313 Q 149 301 145 296 L 138 289 L 130 289 Z M 195 301 L 188 305 Q 182 310 180 320 L 180 326 L 182 333 L 185 336 Q 182 335 183 338 L 187 337 L 198 338 L 210 342 L 207 339 Q 213 335 215 327 Q 217 314 212 309 L 203 301 L 195 301 Z M 147 326 L 143 328 L 140 332 L 141 339 Q 144 343 150 344 Q 154 345 153 342 L 147 340 Q 142 339 143 332 L 147 329 L 155 329 L 163 334 L 164 334 L 163 332 L 155 326 L 147 326 Z M 139 342 Q 134 343 135 348 L 138 347 L 146 357 L 149 364 Q 152 368 158 369 L 162 369 L 169 366 Q 177 360 180 350 L 185 351 L 184 348 Q 182 344 176 345 L 176 347 Q 179 346 178 349 L 173 353 L 160 356 L 150 354 L 140 347 Q 142 341 139 342 Z " /><path fill="rgb(255,255,255)" stroke="rgb(255,255,255)" stroke-width="0" opacity="1" d="M 85.5 239 L 88.5 244 L 90 244.5 Q 78.3 257.3 70.5 274 L 67.5 274 L 61 269.5 Q 67 254 78.5 244 L 85.5 239 Z " /><path fill="rgb(255,255,255)" stroke="rgb(255,255,255)" stroke-width="0" opacity="1" d="M 229.5 239 L 233.5 240 L 248 254.5 L 262 279.5 L 269 305.5 L 274 311.5 L 274 314.5 Q 269.3 326.8 259.5 334 L 257.5 335 L 257 333.5 L 259 327.5 L 259 318.5 L 260 317.5 L 259 316.5 L 258 299.5 L 252 281.5 Q 243.1 262.4 227.5 250 L 223 248 L 229.5 239 Z " /><path fill="rgb(255,255,255)" stroke="rgb(255,255,255)" stroke-width="0" opacity="1" d="M 469.5 242 L 479 246 L 478 251 Q 468.8 251.5 465 245.5 Q 464.3 243.3 466.5 244 L 469.5 242 Z " /><path fill="rgb(255,255,255)" stroke="rgb(255,255,255)" stroke-width="0" opacity="1" d="M 482.5 248 Q 490 248 493 252.5 L 491.5 253 Q 489.7 250.3 483.5 252 L 481 253 Q 480 249.2 482.5 248 Z " /><path fill="rgb(255,255,255)" stroke="rgb(255,255,255)" stroke-width="0" opacity="1" d="M 399.5 269 L 410.5 269 L 418.5 272 L 422 275.5 Q 423 281 419.5 282 L 416.5 283 L 399.5 283 L 388 280.5 L 399.5 269 Z " /><path fill="rgb(255,255,255)" stroke="rgb(255,255,255)" stroke-width="0" opacity="1" d="M 60.5 274 L 66 276 L 66 277.5 L 57.5 286 Q 51 291.3 41 292 L 39 286.5 L 60.5 274 Z " /><path fill="rgb(255,255,255)" stroke="rgb(255,255,255)" stroke-width="0" opacity="1" d="M 424 280 L 429 283.5 L 439 303.5 L 442 316.5 Q 439.5 321.3 432 320 Q 428.3 299.5 420 284 L 424 281.5 L 424 280 Z " /><path fill="rgb(255,255,255)" stroke="rgb(255,255,255)" stroke-width="0" opacity="1" d="M 30.5 288 Q 37.5 286.5 37 289.5 L 38 291.5 Q 36.8 294.3 35.5 292 Q 25.2 290.2 20.5 294 L 21.5 292 L 30.5 288 Z " /><path fill="rgb(255,255,255)" stroke="rgb(255,255,255)" stroke-width="0" opacity="1" d="M 130.5 292 Q 139.8 290.6 142 296.5 L 144 302.5 L 140.5 300 L 132.5 299 L 128 302.5 L 125 309.5 L 125 314.5 L 129 322.5 L 127.5 323 L 123 322 Q 118.4 316.9 120 304.5 L 125.5 295 L 130.5 292 Z " /><path fill="rgb(255,255,255)" stroke="rgb(255,255,255)" stroke-width="0" opacity="1" d="M 133.5 302 L 137 304.5 Q 137.5 308.5 134.5 309 L 131 307.5 Q 130.3 302.8 133.5 302 Z " /><path fill="rgb(255,255,255)" stroke="rgb(255,255,255)" stroke-width="0" opacity="1" d="M 195.5 304 Q 207 303.1 210 310.5 Q 213.6 315.9 212 326.5 L 211 326.5 Q 212 315.9 205.5 313 L 197.5 312 L 192 316.5 Q 188.5 320.5 190 329.5 L 193 334.5 L 187.5 335 L 184 330.5 L 183 318.5 Q 185.4 309.4 192.5 305 L 195.5 304 Z " /><path fill="rgb(255,255,255)" stroke="rgb(255,255,255)" stroke-width="0" opacity="1" d="M 102.5 310 Q 107.9 308.1 107 311.5 Q 102.3 316.5 103 326 L 88.5 328 L 84 324.5 L 85 318 Q 91.9 312.6 102.5 310 Z " /><path fill="rgb(255,255,255)" stroke="rgb(255,255,255)" stroke-width="0" opacity="1" d="M 198.5 315 L 202 317.5 L 201 322 L 196 322 L 196 316 L 198.5 315 Z " /><path fill="rgb(255,255,255)" stroke="rgb(255,255,255)" stroke-width="0" opacity="1" d="M 312.5 321 L 329.5 323 L 342.5 328 L 348 332.5 L 348 335.5 L 343.5 340 Q 317.5 337.5 302 324.5 L 312.5 321 Z " /><path fill="rgb(255,255,255)" stroke="rgb(255,255,255)" stroke-width="0" opacity="1" d="M 441.5 321 Q 447.7 328.3 457 332.5 L 454.5 337 Q 444.8 334.7 439 328.5 L 437 323 L 441.5 321 Z " /><path fill="rgb(255,255,255)" stroke="rgb(255,255,255)" stroke-width="0" opacity="1" d="M 80.5 325 Q 82.8 324.3 82 326.5 L 84 330.5 L 79 339.5 L 75 351.5 L 74 359.5 L 71.5 364 Q 64.9 364.6 63 360.5 Q 67.4 338.4 80.5 325 Z " /><path fill="rgb(255,255,255)" stroke="rgb(255,255,255)" stroke-width="0" opacity="1" d="M 272.5 327 Q 278.5 325.5 280 328.5 Q 286 335.5 287 347.5 L 283.5 353 Q 277.1 352.9 275 348.5 L 268 338.5 L 266 332.5 L 272.5 327 Z " /><path fill="rgb(255,255,255)" stroke="rgb(255,255,255)" stroke-width="0" opacity="1" d="M 460.5 334 Q 470.1 334.4 474 340.5 L 472.5 340 L 470.5 339 L 458 339 L 460.5 334 Z " /><path fill="rgb(255,255,255)" stroke="rgb(255,255,255)" stroke-width="0" opacity="1" d="M 350.5 337 Q 365.2 350.3 370 373.5 Q 368.1 378.1 360.5 377 L 359 375.5 L 359 371.5 L 354 355.5 L 346 341.5 L 350.5 337 Z " /><path fill="rgb(255,255,255)" stroke="rgb(255,255,255)" stroke-width="0" opacity="1" d="M 285.5 355 L 286 367.5 L 281 391.5 L 277.5 398 L 269 397 L 269 391.5 L 280 357.5 L 281.5 356 L 285.5 355 Z " /><path fill="rgb(255,255,255)" stroke="rgb(255,255,255)" stroke-width="0" opacity="1" d="M 169.5 357 L 172 358.5 L 164.5 365 L 157.5 366 L 153 364 L 155.5 360 L 169.5 357 Z " /><path fill="rgb(255,255,255)" stroke="rgb(255,255,255)" stroke-width="0" opacity="1" d="M 62.5 365 L 68 366 L 68 367.5 L 59.5 376 Q 54.5 379.8 47 380 L 46 374.5 L 62.5 365 Z " /><path fill="rgb(255,255,255)" stroke="rgb(255,255,255)" stroke-width="0" opacity="1" d="M 37.5 376 Q 42.8 374.8 44 377.5 Q 45.5 381.9 42.5 381 L 41.5 380 L 33.5 380 L 26.5 383 L 28.5 380 L 37.5 376 Z " /><path fill="rgb(255,255,255)" stroke="rgb(255,255,255)" stroke-width="0" opacity="1" d="M 366.5 379 Q 370.9 377.5 370 380.5 L 384 395.5 L 381 400 Q 372.3 398.1 368 390.5 L 363 380.5 L 366.5 379 Z " /><path fill="rgb(255,255,255)" stroke="rgb(255,255,255)" stroke-width="0" opacity="1" d="M 385.5 398 Q 396.2 398.8 400 406.5 L 398.5 406 Q 394 401.9 384.5 403 L 383 401.5 L 385.5 398 Z " /><path fill="rgb(255,255,255)" stroke="rgb(255,255,255)" stroke-width="0" opacity="1" d="M 270 401 L 276 401 L 276 405.5 L 279 419.5 L 274.5 423 L 271 416.5 L 270 401 Z " /><path fill="rgb(255,255,255)" stroke="rgb(255,255,255)" stroke-width="0" opacity="1" d="M 278.5 423 L 283 426.5 Q 285.7 429.8 285 436.5 L 284 436.5 Q 282 429 276 425.5 L 278.5 423 Z " /><path fill="rgb(0,0,0)" stroke="rgb(0,0,0)" stroke-width="0" opacity="1" d="M 280.5 66 L 306.5 66 Q 308.3 68.8 314.5 67 L 351.5 76 Q 382.3 88.7 402 112.5 Q 417.5 131 427 155.5 L 433 176.5 L 434 200 L 442.5 198 L 449.5 198 L 455 202.5 Q 468.6 215.4 472 238.5 L 471.5 240 L 481.5 245 L 489.5 246 L 497 252.5 L 498 259 L 495.5 259 L 489.5 255 L 484.5 255 L 480.5 256 L 467.5 252 L 462 246.5 Q 462.8 244.3 460.5 245 L 457 240.5 Q 454.7 224.8 447.5 214 L 433.5 224 L 428 226 Q 419.8 248.4 404 264.5 L 405.5 266 L 415.5 267 L 425 273.5 L 426.5 277 L 430 279.5 L 442 302.5 L 445 311.5 L 445 317.5 L 444 319.5 L 458.5 330 Q 469.9 331.1 476 337.5 L 480 346.5 Q 478.8 349.3 477.5 347 L 469.5 342 L 457.5 342 Q 456.5 339 451.5 340 Q 441.2 336.3 435 328.5 L 433 323 L 429 320.5 L 423 298.5 L 416.5 286 L 397.5 286 L 384.5 283 Q 358.9 306.4 322 318.5 L 339.5 323 Q 346.9 325.6 351 331.5 L 352.5 335 L 357 338.5 L 370 360.5 L 373 369.5 L 373 375.5 L 372 377.5 L 387.5 395 Q 396.7 396.3 401 402.5 Q 404.7 406.3 405 413.5 L 403.5 415 L 397.5 409 L 389.5 406 L 382.5 406 L 368 395.5 L 364 390.5 L 358.5 379 Q 356.3 379.8 357 377.5 L 352 359.5 L 344 343 L 331.5 342 L 319.5 338 L 302.5 329 L 298.5 325 L 294.5 325 L 293.5 326 L 285.5 326 L 283 327.5 Q 290 335 290 349.5 L 289 350.5 L 289 369.5 Q 286.7 370.8 288 375.5 L 284 392.5 L 281 400 Q 277.3 398.6 279 404.5 L 283 421.5 L 288 430.5 L 288 443.5 Q 286 448 284 444.5 L 281 435.5 L 269 420.5 L 267 412.5 L 267 400.5 Q 269.5 399 266 397.5 L 265 394.5 L 278 355.5 Q 268.4 347.9 264 336 L 254 341.5 L 250 348.5 L 235.5 363 Q 222.7 372.7 205.5 378 L 190.5 381 L 166.5 381 L 155.5 379 L 133.5 370 Q 121 362.5 112 351.5 Q 104.5 342.8 103 329 L 94.5 331 L 87.5 331 L 86 332.5 L 82 340.5 L 78 352.5 L 76 364.5 L 74.5 366 L 71 367 Q 69.2 373.3 63.5 377 L 51.5 383 L 40.5 384 Q 39.3 381.7 34.5 383 Q 27.1 384.1 23.5 389 L 21 389 Q 21.4 380.6 27.5 377 L 36.5 373 L 42.5 373 L 61 362.5 L 60 357.5 Q 63.6 342.6 71 331.5 L 85.5 314 Q 94.2 307.5 107 306 L 107 296.5 L 111 281.5 Q 116.4 266.9 126 256.5 L 106.5 251 L 95.5 246 L 92 246 L 79 264.5 L 75 273.5 L 71.5 277 Q 68.2 275.9 69 278.5 L 62.5 286 L 51.5 293 L 45.5 295 L 35.5 296 L 34.5 295 L 25.5 295 L 15.5 300 L 14 296.5 L 20.5 289 L 29.5 285 L 35.5 285 L 59 271.5 L 58 267.5 Q 65.1 250.6 78.5 240 L 91.5 231 Q 97.4 228.4 107.5 230 L 124 235 L 124 215.5 L 125 213.5 L 117.5 207 L 114.5 207 Q 113 209.5 107.5 208 L 101 202.5 Q 99.5 193.5 104.5 191 L 113.5 190 L 119 194.5 L 121.5 200 L 126 202 Q 131.7 172 146 149.5 Q 160.7 125.2 181.5 107 Q 200.4 90.4 225.5 80 L 251.5 71 L 280.5 66 Z M 278 70 L 248 76 L 228 83 Q 202 94 183 111 Q 144 143 130 200 L 130 206 Q 144 217 152 235 L 173 225 L 190 222 L 201 222 L 203 220 L 204 214 L 214 186 L 226 161 Q 240 134 260 113 Q 274 96 293 84 L 310 75 L 318 73 L 317 71 Q 311 73 310 70 L 278 70 Z M 322 75 Q 309 78 300 84 L 273 105 Q 226 150 206 221 L 207 224 Q 217 226 225 231 L 237 223 L 250 218 Q 252 219 251 217 L 257 212 L 265 213 L 269 220 L 268 226 L 263 230 Q 254 231 252 226 L 236 234 L 234 237 L 243 243 Q 255 255 263 273 L 269 289 L 273 306 Q 276 310 283 312 L 305 311 L 336 300 Q 360 288 380 270 Q 400 252 415 229 L 426 208 L 430 194 L 430 183 L 428 172 L 421 151 Q 412 130 398 114 Q 382 96 361 84 L 336 75 L 322 75 Z M 109 193 L 107 194 L 104 198 L 105 203 Q 107 206 113 205 Q 117 204 116 197 Q 115 192 109 193 Z M 445 201 L 434 204 L 432 217 L 430 221 L 431 222 L 449 210 Q 453 209 452 204 Q 450 200 445 201 Z M 120 202 L 118 204 L 127 210 Q 144 224 149 251 L 152 250 L 146 231 L 136 216 L 120 202 Z M 430 207 Q 418 237 397 258 Q 377 280 351 296 Q 328 310 298 316 Q 284 318 277 314 L 275 320 L 277 323 L 296 322 L 316 317 L 333 311 Q 362 299 385 279 Q 404 263 417 242 Q 426 228 430 211 L 430 207 Z M 454 208 L 451 213 Q 458 223 460 239 L 463 242 L 469 238 Q 465 221 457 210 L 454 208 Z M 258 215 L 253 221 L 255 226 L 262 227 Q 266 226 265 219 Q 264 214 258 215 Z M 129 216 L 128 238 L 133 250 L 143 242 Q 139 226 129 216 Z M 247 222 Q 233 227 225 236 Q 214 246 208 261 L 210 263 L 221 244 Q 232 229 250 224 Q 251 221 247 222 Z M 187 226 L 176 228 L 161 234 L 161 235 L 176 234 L 177 233 L 192 234 L 216 242 L 222 233 Q 209 225 187 226 Z M 97 233 L 91 235 Q 88 236 89 240 L 94 243 L 97 243 Q 109 250 126 253 L 129 253 L 125 239 L 111 234 L 97 233 Z M 172 237 L 153 241 L 155 252 L 151 255 L 145 253 L 146 250 L 145 245 L 140 248 Q 124 260 116 279 L 111 295 L 110 314 L 107 320 L 107 334 L 115 350 Q 132 371 166 377 L 192 377 L 206 374 Q 222 369 234 360 L 249 344 L 254 333 L 256 322 L 255 304 L 251 289 Q 245 272 234 261 L 220 250 L 214 261 L 214 264 L 212 266 Q 205 267 204 263 L 204 260 L 213 246 L 207 242 L 193 238 L 172 237 Z M 86 239 L 79 244 Q 67 254 61 270 L 68 274 L 71 274 Q 78 257 90 245 L 89 244 L 86 239 Z M 230 239 L 223 248 L 228 250 Q 243 262 252 282 L 258 300 L 259 317 L 260 318 L 259 319 L 259 328 L 257 334 L 258 335 L 260 334 Q 269 327 274 315 L 274 312 L 269 306 L 262 280 L 248 255 L 234 240 L 230 239 Z M 470 242 L 467 244 Q 464 243 465 246 Q 469 251 478 251 L 479 246 L 470 242 Z M 483 248 Q 480 249 481 253 L 484 252 Q 490 250 492 253 L 493 253 Q 490 248 483 248 Z M 400 269 L 388 281 L 400 283 L 417 283 L 420 282 Q 423 281 422 276 L 419 272 L 411 269 L 400 269 Z M 61 274 L 39 287 L 41 292 Q 51 291 58 286 L 66 278 L 66 276 L 61 274 Z M 424 280 L 424 282 L 420 284 Q 428 300 432 320 Q 439 321 442 317 L 439 304 L 429 284 L 424 280 Z M 31 288 L 22 292 L 22 293 Q 27 291 36 292 Q 37 294 38 292 L 37 290 Q 38 287 31 288 Z M 103 310 Q 92 313 85 318 L 84 325 L 89 328 L 103 326 Q 102 316 107 312 Q 108 308 103 310 Z M 313 321 L 302 325 Q 318 337 344 340 L 348 336 L 348 333 L 343 328 L 330 323 L 313 321 Z M 442 321 L 437 323 L 439 329 Q 445 335 455 337 L 457 333 Q 448 328 442 321 Z M 81 325 Q 67 338 63 361 Q 65 365 72 364 L 74 360 L 75 352 L 79 340 L 84 331 L 82 327 Q 83 324 81 325 Z M 273 327 L 266 333 L 268 339 L 275 349 Q 277 353 284 353 L 287 348 Q 286 336 280 329 Q 278 325 273 327 Z M 461 334 L 458 339 L 471 339 L 472 340 L 473 340 Q 469 334 461 334 Z M 351 337 L 346 342 L 354 356 L 359 372 L 359 376 L 361 377 Q 368 378 370 374 Q 365 350 351 337 Z M 286 355 L 282 356 L 280 358 L 269 392 L 269 397 L 278 398 L 281 392 L 286 368 L 286 355 Z M 63 365 L 46 375 L 47 380 Q 54 380 60 376 L 68 368 L 68 366 L 63 365 Z M 38 376 L 29 380 L 28 382 L 34 380 L 42 380 L 43 381 Q 45 382 44 378 Q 43 375 38 376 Z M 367 379 L 363 381 L 368 391 Q 372 398 381 400 L 384 396 L 370 381 Q 371 377 367 379 Z M 386 398 L 383 402 Q 385 405 392 403 L 398 406 L 399 406 Q 395 399 386 398 Z M 270 401 L 271 417 L 275 423 L 279 420 L 276 406 L 276 401 L 270 401 Z M 279 423 L 276 426 Q 282 429 284 437 L 285 437 Q 286 430 283 427 L 279 423 Z " /><path fill="rgb(0,0,0)" stroke="rgb(0,0,0)" stroke-width="0" opacity="1" d="M 249.5 81 Q 262.8 79.8 267 87.5 L 268 93.5 Q 266.1 101.2 260.5 105 Q 253.9 110.9 241.5 111 L 234.5 109 L 229 103.5 L 228 99.5 Q 229.3 92.8 233.5 89 Q 239.5 83 249.5 81 Z " /><path fill="rgb(0,0,0)" stroke="rgb(0,0,0)" stroke-width="0" opacity="1" d="M 303.5 102 Q 317.3 101.2 323 108.5 L 327 115.5 L 327 124.5 Q 324.8 131.3 319.5 135 Q 313.3 139.8 300.5 138 Q 293.1 135.9 289 130.5 L 286 124.5 L 286 116.5 L 292.5 107 L 303.5 102 Z " /><path fill="rgb(0,0,0)" stroke="rgb(0,0,0)" stroke-width="0" opacity="1" d="M 375.5 111 Q 389.8 111.2 395 120.5 L 400 130.5 L 400 140.5 L 395.5 146 Q 392.2 149.2 384.5 148 Q 375.2 144.8 370 137.5 L 366 129.5 L 366 119.5 L 370.5 113 L 375.5 111 Z " /><path fill="rgb(0,0,0)" stroke="rgb(0,0,0)" stroke-width="0" opacity="1" d="M 183.5 126 Q 193.6 124.9 197 130.5 Q 200.3 134.2 199 142.5 Q 196.8 150.3 191.5 155 Q 184.9 162.4 171.5 163 L 167.5 162 L 163 158.5 Q 159.2 155.3 161 146.5 Q 164.3 135.3 173.5 130 L 183.5 126 Z " /><path fill="rgb(0,0,0)" stroke="rgb(0,0,0)" stroke-width="0" opacity="1" d="M 272.5 160 Q 286.5 159.5 292 167.5 L 297 177.5 L 297 186.5 Q 294.5 195.5 287.5 200 Q 281.7 204.7 269.5 203 Q 260.4 200.5 256 193.5 Q 251.6 188.3 253 177.5 Q 255.4 168.4 262.5 164 L 272.5 160 Z " /><path fill="rgb(0,0,0)" stroke="rgb(0,0,0)" stroke-width="0" opacity="1" d="M 355.5 185 Q 363.8 183.8 368.5 186 L 378 194.5 Q 383.7 200.8 382 214.5 Q 379.9 221.9 374.5 226 Q 369.7 230.7 359.5 230 Q 349.6 227.9 345 220.5 Q 339.9 214.6 340 203.5 Q 341.6 194 347.5 189 L 355.5 185 Z " /><path fill="rgb(0,0,0)" stroke="rgb(0,0,0)" stroke-width="0" opacity="1" d="M 313.5 247 Q 328.3 246.7 333 256.5 Q 337.7 262.4 336 274.5 L 329.5 286 Q 324.5 292 312.5 291 Q 304.2 288.8 300 282.5 Q 294.2 276.8 296 263.5 Q 298.4 254.4 305.5 250 L 313.5 247 Z " /><path fill="rgb(0,0,0)" stroke="rgb(0,0,0)" stroke-width="0" opacity="1" d="M 136.5 270 L 142 272 L 143 276 L 133.5 276 L 128.5 280 L 126 280 Q 126.7 274.6 131.5 272 L 136.5 270 Z " /><path fill="rgb(0,0,0)" stroke="rgb(0,0,0)" stroke-width="0" opacity="1" d="M 201.5 282 Q 209 282.5 212 287.5 Q 214.8 290.5 214 296 Q 211.3 297.1 212 294.5 Q 208.5 286.2 197 287 L 199.5 283 L 201.5 282 Z " /><path fill="rgb(0,0,0)" stroke="rgb(0,0,0)" stroke-width="0" opacity="1" d="M 129.5 289 L 137.5 289 L 145 295.5 Q 148.7 301.3 147 312.5 Q 144.5 321.5 137.5 326 L 132.5 327 Q 128 323.3 119 325 Q 117.9 322.3 120.5 323 L 120 321.5 Q 115.5 316 117 304.5 Q 118.8 296.3 124.5 292 L 129.5 289 Z M 131 292 L 126 295 L 120 305 Q 118 317 123 322 L 128 323 L 129 323 L 125 315 L 125 310 L 128 303 L 133 299 L 141 300 L 144 303 L 142 297 Q 140 291 131 292 Z M 134 302 Q 130 303 131 308 L 135 309 Q 138 308 137 305 L 134 302 Z " /><path fill="rgb(0,0,0)" stroke="rgb(0,0,0)" stroke-width="0" opacity="1" d="M 194.5 301 L 202.5 301 L 212 308.5 Q 216.7 314.3 215 326.5 Q 213 334.5 207 338.5 L 209.5 342 L 197.5 338 L 186.5 337 L 183 338 Q 181.9 335.3 184.5 336 L 182 332.5 L 180 325.5 L 180 319.5 Q 181.6 310 187.5 305 L 194.5 301 Z M 196 304 L 193 305 Q 185 309 183 319 L 184 331 L 188 335 L 193 335 L 190 330 Q 188 320 192 317 L 198 312 L 206 313 Q 212 316 211 327 L 212 327 Q 214 316 210 311 Q 207 303 196 304 Z M 199 315 L 196 316 L 196 322 L 201 322 L 202 318 L 199 315 Z " /><path fill="rgb(0,0,0)" stroke="rgb(0,0,0)" stroke-width="0" opacity="1" d="M 146.5 326 L 154.5 326 L 163 331.5 L 164 333.5 L 162.5 334 L 154.5 329 L 146.5 329 L 143 331.5 Q 141.8 338.8 146.5 340 L 153 342 Q 154.3 345.3 149.5 344 Q 143.8 342.8 141 338.5 L 140 331.5 L 142.5 328 L 146.5 326 Z " /><path fill="rgb(0,0,0)" stroke="rgb(0,0,0)" stroke-width="0" opacity="1" d="M 138.5 342 Q 141.9 341.1 140 346.5 L 149.5 354 L 159.5 356 L 172.5 353 L 178 348.5 Q 178.7 345.9 176 347 L 176 345 Q 181.7 344 184 347.5 L 185 351 L 180 350 Q 176.9 360.2 168.5 366 L 161.5 369 L 157.5 369 Q 151.8 367.8 149 363.5 L 146 356.5 L 137.5 347 L 135 348 Q 134.3 343.3 138.5 342 Z M 170 357 L 156 360 L 153 364 L 158 366 L 165 365 L 172 359 L 170 357 Z " /></svg>