<svg width="627" height="627" preserveAspectRatio="xMidYMid meet" viewBox="0 0 512 512" version="1.1" xmlns="http://www.w3.org/2000/svg" ><path fill="rgb(255,255,255)" stroke="rgb(255,255,255)" stroke-width="0" opacity="1" d="M 0 0 L 512 0 L 512 512 L 0 512 L 0 0 Z M 378 44 Q 365 47 357 55 Q 345 65 339 80 L 333 99 L 331 109 L 331 118 L 330 119 L 331 148 L 337 176 L 333 177 L 326 162 L 318 151 Q 306 137 286 133 L 286 115 L 284 105 L 277 89 L 279 84 Q 280 77 277 74 Q 274 69 269 68 L 261 70 L 255 77 Q 254 83 256 87 Q 259 91 266 93 L 271 92 L 277 110 L 278 131 Q 250 129 235 140 Q 230 128 222 121 L 212 112 Q 207 110 210 109 L 208 102 L 201 96 Q 194 95 191 98 L 186 105 Q 184 113 188 116 L 195 120 Q 203 121 206 117 L 208 117 L 213 121 Q 223 129 228 144 L 224 147 Q 212 156 206 171 L 202 183 L 201 194 L 197 202 Q 199 208 196 210 L 197 219 L 200 226 L 201 227 Q 193 216 178 213 L 167 213 L 156 217 L 153 219 L 158 201 L 157 185 L 149 169 Q 141 159 128 156 L 110 156 Q 98 159 91 165 L 80 177 L 76 186 L 74 196 L 76 211 L 77 212 Q 68 205 56 203 Q 37 202 29 211 L 17 225 L 14 231 L 11 244 Q 11 268 23 280 Q 33 292 55 294 Q 42 302 39 321 L 40 338 L 49 356 Q 57 368 75 371 Q 93 372 103 364 L 112 354 L 113 372 L 116 388 Q 123 407 127 430 L 127 436 Q 122 415 110 401 Q 99 387 82 379 L 60 373 L 48 373 L 47 372 Q 41 374 33 373 L 29 376 L 29 378 L 37 387 L 47 409 L 55 421 Q 64 431 76 438 Q 88 445 106 448 L 117 454 L 121 461 Q 120 467 123 466 L 127 459 L 131 443 L 130 423 L 119 383 L 117 362 L 116 361 L 116 347 L 121 335 L 122 340 L 122 342 L 122 354 L 123 355 L 123 365 L 124 366 L 125 378 L 133 408 L 137 429 L 137 450 L 133 465 Q 132 470 136 468 L 142 457 L 157 443 Q 171 435 190 432 L 206 423 L 222 405 Q 229 393 232 379 L 239 366 L 247 359 L 248 356 L 245 353 L 230 352 L 229 351 L 209 352 L 193 356 Q 178 361 169 371 Q 156 383 149 401 L 141 429 L 137 407 L 129 377 L 128 364 L 127 363 L 127 350 L 126 349 L 127 347 L 127 349 Q 135 359 149 363 Q 160 365 168 362 L 183 354 Q 195 345 199 328 Q 200 308 191 299 L 182 292 L 197 285 Q 208 277 211 260 L 211 251 L 208 239 L 207 236 L 210 241 L 228 253 L 242 258 L 246 258 L 256 263 L 264 263 L 275 260 L 276 268 Q 265 270 257 276 Q 244 285 242 302 L 239 303 L 233 310 Q 232 316 234 318 L 238 320 L 245 319 L 250 314 L 251 306 L 259 290 L 262 287 Q 274 284 283 277 L 288 282 L 275 297 L 270 313 L 270 321 L 271 322 L 271 326 L 266 334 L 267 340 L 274 344 L 278 343 Q 283 340 284 333 L 282 327 L 284 305 L 301 287 L 307 289 Q 312 290 314 287 L 320 289 L 309 309 L 307 317 Q 305 332 310 340 L 305 348 L 306 356 L 313 360 L 319 358 L 323 351 Q 324 344 321 341 L 321 321 L 320 320 L 320 315 Q 329 307 333 294 L 340 324 Q 343 333 350 339 L 349 342 L 351 351 Q 353 357 362 355 L 367 348 L 366 341 L 360 334 L 359 327 L 350 309 L 350 307 L 351 310 L 363 318 Q 367 332 375 342 L 383 348 Q 381 358 385 363 Q 387 367 396 366 L 401 359 L 400 351 L 394 344 L 392 337 L 392 335 L 406 341 L 420 344 Q 453 347 470 334 L 475 326 L 480 306 L 480 285 L 476 266 Q 471 248 460 237 Q 444 216 416 208 Q 445 201 465 185 Q 481 172 491 154 L 498 136 L 499 124 L 500 123 L 498 106 L 493 96 Q 487 86 474 83 L 461 83 L 446 87 Q 432 92 422 101 L 420 76 L 412 58 L 399 46 Q 391 42 378 44 Z " /><path fill="rgb(255,255,255)" stroke="rgb(255,255,255)" stroke-width="0" opacity="1" d="M 379.5 48 Q 401.2 46.2 408 59.5 L 415 73.5 L 417 84.5 L 417 98.5 Q 414.7 99.8 416 104.5 L 413.5 107 L 397 121.5 Q 372.8 147.3 357.5 182 L 353 178.5 L 353 162.5 L 355 151.5 Q 363 132.5 377.5 120 L 392 109.5 L 390.5 109 Q 375.8 116.7 366 129.5 L 355.5 147 L 355 135.5 L 358 119.5 L 364 105.5 Q 372.5 90 385.5 79 L 389 76.5 L 387.5 76 L 372 90.5 Q 362.7 101.2 357.5 116 L 357 90.5 L 360 76.5 L 366 63.5 L 364 64.5 Q 358.6 73.1 356 84.5 Q 357.3 89.2 355 90.5 L 355 115.5 Q 357.5 117 356 122.5 L 353 134.5 L 350.5 178 Q 347.7 174.6 341 176 L 337 158.5 L 336 144.5 L 335 143.5 L 335 112.5 L 336 111.5 L 337 99.5 L 342 83.5 Q 347.7 68.7 358.5 59 Q 366.7 51.2 379.5 48 Z " /><path fill="rgb(255,255,255)" stroke="rgb(255,255,255)" stroke-width="0" opacity="1" d="M 263.5 73 Q 272.3 71.3 274 76.5 L 275 81.5 L 271.5 87 L 263.5 88 Q 257.9 86.1 259 77.5 L 263.5 73 Z " /><path fill="rgb(255,255,255)" stroke="rgb(255,255,255)" stroke-width="0" opacity="1" d="M 458.5 88 L 475.5 88 Q 485.2 90.8 490 98.5 L 495 112.5 L 495 127.5 Q 492.2 143.7 485 155.5 Q 475.5 171 461.5 182 L 446.5 192 L 425.5 201 L 405.5 205 L 374 205 L 369 196.5 L 391.5 170 Q 408.7 157.7 430.5 150 L 453.5 144 L 473 142.5 Q 469.7 139.3 461.5 141 L 460.5 142 L 448.5 143 L 424.5 150 L 405.5 159 L 396.5 165 L 401 159.5 L 426.5 131 Q 443.7 114.2 469 105.5 L 465.5 105 Q 450.1 110.1 438.5 119 Q 420.8 131.8 407 148.5 L 367.5 195 L 368 193.5 L 367 189.5 L 362 184.5 L 362 182.5 Q 379.2 143.2 408.5 116 Q 421 104.5 436.5 96 L 447.5 91 L 458.5 88 Z M 422 176 Q 394 181 376 196 L 374 199 Q 388 189 406 182 L 421 178 L 438 177 L 422 176 Z " /><path fill="rgb(255,255,255)" stroke="rgb(255,255,255)" stroke-width="0" opacity="1" d="M 196.5 100 Q 202.9 100.1 205 104.5 Q 206.8 113.3 201.5 115 L 195.5 116 L 191 112.5 L 190 105.5 L 193.5 101 L 196.5 100 Z " /><path fill="rgb(255,255,255)" stroke="rgb(255,255,255)" stroke-width="0" opacity="1" d="M 280.5 107 L 281 110.5 L 280 110.5 L 280.5 107 Z " /><path fill="rgb(255,255,255)" stroke="rgb(255,255,255)" stroke-width="0" opacity="1" d="M 281.5 112 L 282 116.5 L 281 116.5 L 281.5 112 Z " /><path fill="rgb(255,255,255)" stroke="rgb(255,255,255)" stroke-width="0" opacity="1" d="M 282.5 120 L 283 132.5 L 282 132.5 L 282.5 120 Z " /><path fill="rgb(255,255,255)" stroke="rgb(255,255,255)" stroke-width="0" opacity="1" d="M 263.5 135 L 276.5 135 L 278 136.5 L 277 140.5 L 279.5 143 L 281.5 143 L 285 141.5 Q 282.9 135.7 287.5 137 Q 305.6 141.9 316 154.5 Q 324.3 163.7 328 177.5 L 330 197.5 L 329 198.5 L 328 209.5 L 323 222.5 Q 316.6 234.1 306.5 242 Q 293.9 252.4 274.5 256 L 273.5 254 Q 268.3 259.3 257.5 259 L 243.5 252 L 239.5 253 Q 221 247.5 210 234.5 Q 203.5 227.5 201 216.5 L 201 203.5 L 205 195.5 L 206 184.5 L 210 171.5 Q 216.4 157.9 227.5 149 L 245.5 139 L 263.5 135 Z M 279 159 L 277 160 L 274 164 L 278 163 L 285 164 L 292 169 L 291 166 Q 288 159 279 159 Z M 222 162 L 219 164 L 215 169 L 216 171 L 223 166 L 230 166 L 230 165 Q 229 161 222 162 Z M 279 176 L 274 178 L 268 184 L 265 190 Q 266 194 264 196 L 265 204 L 272 212 L 273 212 L 268 205 L 267 200 Q 267 190 271 185 L 278 180 Q 284 179 287 182 L 292 191 L 292 194 L 291 193 L 285 187 L 278 189 L 273 196 Q 272 205 275 209 L 281 213 L 288 212 Q 293 209 295 202 Q 297 188 291 182 Q 287 176 279 176 Z M 222 178 L 219 179 Q 211 184 209 194 Q 208 203 211 208 L 216 212 L 212 204 Q 211 192 215 187 Q 217 180 228 182 Q 232 184 233 191 L 234 192 L 229 188 L 224 189 L 219 194 L 217 201 L 219 209 L 227 214 L 232 212 Q 236 208 237 202 Q 238 190 234 185 Q 231 178 222 178 Z M 243 209 L 239 211 L 235 217 L 235 218 L 245 212 L 250 212 L 256 214 L 258 216 L 257 212 L 252 209 L 243 209 Z M 268 223 L 268 225 L 271 227 L 261 234 L 252 236 L 242 234 L 237 230 Q 234 229 235 232 Q 237 237 244 238 L 248 246 L 255 251 L 261 251 L 266 248 L 270 242 L 273 228 L 277 229 Q 279 230 278 228 Q 276 222 268 223 Z " /><path fill="rgb(255,255,255)" stroke="rgb(255,255,255)" stroke-width="0" opacity="1" d="M 281.5 136 L 282 140.5 L 281 140.5 L 281.5 136 Z " /><path fill="rgb(255,255,255)" stroke="rgb(255,255,255)" stroke-width="0" opacity="1" d="M 114.5 160 Q 139 159.5 148 174.5 L 153 188.5 L 153 203.5 L 147 222.5 L 131.5 245 Q 126.4 240.2 118 240 L 120 231.5 L 120 223.5 L 118 222.5 L 118 230.5 L 114.5 240 Q 103.8 238.8 99.5 244 L 94 232.5 L 82 215.5 L 79 204.5 L 79 193.5 Q 81.6 177.1 92.5 169 L 102.5 163 L 114.5 160 Z " /><path fill="rgb(255,255,255)" stroke="rgb(255,255,255)" stroke-width="0" opacity="1" d="M 335.5 180 L 348 180.5 L 342 183.5 Q 357.2 182.3 363 190.5 L 362.5 192 L 361.5 191 L 354 191 Q 352.8 194 356.5 193 L 366 198.5 L 371 206.5 L 372 212.5 L 367.5 209 L 362.5 207 L 368 213.5 Q 372.6 219.4 371 231.5 L 369.5 235 L 365 225 Q 362.3 223.9 363 226.5 L 366 231.5 L 366 245.5 L 361.5 253 Q 360.6 244.4 355.5 240 L 355 241.5 Q 359.2 246.3 358 256.5 Q 356.5 265 350.5 269 Q 347.5 269.9 349 265.5 L 344.5 256 L 344 258.5 L 346 267.5 L 343 276.5 L 338.5 281 L 336.5 282 Q 336.7 276.3 333.5 274 L 333 280.5 L 330 290.5 L 323 304.5 L 317.5 311 Q 313.8 311.8 313 309.5 Q 321.5 298.5 327 284.5 L 328 271.5 L 326.5 269 L 323 285 Q 314 285.3 311 278.5 L 308.5 271 L 307 273.5 L 310 284.5 L 308.5 284 Q 299.5 284 297 277.5 L 295 272 Q 291.3 270.6 293 276.5 L 294 280 Q 289.3 279.6 287 275.5 Q 283.1 271 284 263 Q 281.3 261.9 282 264.5 L 280.5 268 L 279 259 Q 303.6 253.4 318 236.5 Q 325.5 228 330 216.5 L 333 206.5 L 334 189.5 L 333 188.5 L 333 181 L 335.5 180 Z " /><path fill="rgb(255,255,255)" stroke="rgb(255,255,255)" stroke-width="0" opacity="1" d="M 280.5 192 Q 283.8 190.9 283 193.5 L 284 195.5 L 280.5 198 Q 278.3 197.3 279 193.5 L 280.5 192 Z " /><path fill="rgb(255,255,255)" stroke="rgb(255,255,255)" stroke-width="0" opacity="1" d="M 225.5 193 Q 230.1 191.7 228 197.5 L 225.5 199 Q 223.3 198.3 224 194.5 L 225.5 193 Z " /><path fill="rgb(255,255,255)" stroke="rgb(255,255,255)" stroke-width="0" opacity="1" d="M 45.5 208 Q 57.3 206.7 64.5 210 Q 76.3 215.2 84 224.5 Q 92 233.5 97 245.5 Q 90.5 250.5 87.5 259 L 77.5 254 L 69.5 254 L 69.5 255 Q 80.8 255.8 87 261.5 L 86 273.5 L 88 280.5 L 64.5 288 L 47.5 288 Q 31.3 284.2 23 272.5 L 17 259.5 L 16 241.5 Q 19.1 224.1 30.5 215 L 45.5 208 Z " /><path fill="rgb(255,255,255)" stroke="rgb(255,255,255)" stroke-width="0" opacity="1" d="M 395 209 L 408.5 209 L 420 213 L 422 221.5 L 422 239.5 L 419 256.5 L 411 277.5 Q 401.7 295.7 386.5 308 L 376.5 314 L 374 311.5 L 374 303.5 L 369 290.5 L 369 287.5 Q 383.1 274.1 391 254.5 L 396 235.5 L 397 221.5 L 395 209 Z " /><path fill="rgb(255,255,255)" stroke="rgb(255,255,255)" stroke-width="0" opacity="1" d="M 171.5 217 Q 190.5 219 199 231.5 Q 204.1 237.9 206 247.5 L 206 262.5 Q 203.3 273.8 195.5 280 L 184.5 286 L 170.5 287 L 147 282 Q 149 279 148 271.5 L 146 263.5 L 148.5 261 L 159 256.5 L 155.5 256 L 144 261 Q 141.7 252.5 135 247.5 L 135 245.5 L 150.5 226 L 161.5 219 L 171.5 217 Z " /><path fill="rgb(255,255,255)" stroke="rgb(255,255,255)" stroke-width="0" opacity="1" d="M 443.5 227 L 457 239.5 L 466 253.5 L 466 264.5 L 465 265.5 L 464 276.5 L 459 292.5 Q 451.1 311.6 437.5 325 Q 429.5 333 418.5 338 L 410.5 338 L 393 331.5 Q 410.1 324.1 421 310.5 Q 433.8 295.8 441 275.5 L 446 251.5 L 446 238.5 L 443.5 227 Z " /><path fill="rgb(255,255,255)" stroke="rgb(255,255,255)" stroke-width="0" opacity="1" d="M 267.5 234 L 268 236.5 Q 266.4 243.5 261.5 247 Q 252.8 248.8 251 243.5 L 249 239.5 L 257.5 239 L 257 240.5 Q 256.3 243.1 259 242 L 262.5 237 L 267.5 234 Z " /><path fill="rgb(255,255,255)" stroke="rgb(255,255,255)" stroke-width="0" opacity="1" d="M 110.5 243 L 122.5 244 Q 131.5 247.5 137 254.5 Q 145.5 263 144 281.5 Q 141.4 293.4 132.5 299 Q 126.4 303.4 114.5 302 Q 102.3 298.7 96 289.5 L 90 275.5 L 90 263.5 Q 92.6 251.6 101.5 246 L 110.5 243 Z " /><path fill="rgb(255,255,255)" stroke="rgb(255,255,255)" stroke-width="0" opacity="1" d="M 277.5 271 L 281 273.5 L 275.5 277 L 259 283 L 258 280.5 L 277.5 271 Z " /><path fill="rgb(255,255,255)" stroke="rgb(255,255,255)" stroke-width="0" opacity="1" d="M 352.5 271 L 357 274.5 Q 368.5 289 371 312.5 L 365 315 L 351 282.5 L 348 272 L 352.5 271 Z " /><path fill="rgb(255,255,255)" stroke="rgb(255,255,255)" stroke-width="0" opacity="1" d="M 255.5 283 Q 258.1 282.2 257 285.5 L 247.5 303 Q 244.9 303.8 246 300.5 Q 248.2 289.2 255.5 283 Z " /><path fill="rgb(255,255,255)" stroke="rgb(255,255,255)" stroke-width="0" opacity="1" d="M 292.5 284 L 294.5 285 L 297 284 L 297 285.5 L 281.5 301 Q 277.3 299.3 280 297.5 L 292.5 284 Z " /><path fill="rgb(255,255,255)" stroke="rgb(255,255,255)" stroke-width="0" opacity="1" d="M 85.5 285 Q 90.9 283.1 90 286.5 L 98 296.5 Q 91 301.5 88 310.5 L 91 308.5 L 99.5 298 L 104.5 302 L 116 306.5 L 117 310.5 L 117 329.5 Q 113.6 349.6 100.5 360 Q 93 367 78.5 367 L 64.5 363 L 53 353.5 L 45 338.5 Q 42.4 330.6 44 318.5 L 47 309.5 L 59.5 295 Q 70.1 287.6 85.5 285 Z " /><path fill="rgb(255,255,255)" stroke="rgb(255,255,255)" stroke-width="0" opacity="1" d="M 474.5 285 Q 477.5 291 476 301.5 L 473 317.5 L 466.5 331 Q 454.4 339.9 433.5 340 L 433.5 339 Q 447.4 333.9 456 323.5 Q 464.6 314.1 470 301.5 L 474.5 285 Z " /><path fill="rgb(255,255,255)" stroke="rgb(255,255,255)" stroke-width="0" opacity="1" d="M 146 286 Q 160.8 286.4 172.5 291 Q 182.8 295.2 189 303.5 L 194 314.5 L 194 328.5 Q 190.4 341.4 181.5 349 Q 172 358.5 153.5 359 Q 139.4 356.6 132 347.5 Q 119.3 333.5 121 306 L 130.5 304 L 137.5 299 L 146.5 306 L 147 304.5 L 139 297.5 Q 144.4 293.1 146 286 Z " /><path fill="rgb(255,255,255)" stroke="rgb(255,255,255)" stroke-width="0" opacity="1" d="M 335.5 289 L 344 301.5 L 345 306 Q 340.4 307.3 339 304.5 L 335 291.5 L 335.5 289 Z " /><path fill="rgb(255,255,255)" stroke="rgb(255,255,255)" stroke-width="0" opacity="1" d="M 353.5 298 L 359 310.5 L 353.5 306 L 347 300.5 L 353.5 298 Z " /><path fill="rgb(255,255,255)" stroke="rgb(255,255,255)" stroke-width="0" opacity="1" d="M 277 302 L 280 303.5 L 279 317.5 Q 276.8 318.8 278 323.5 L 276.5 325 L 275 323.5 L 274 314.5 L 277 302 Z " /><path fill="rgb(255,255,255)" stroke="rgb(255,255,255)" stroke-width="0" opacity="1" d="M 242.5 305 L 247 307 Q 247.6 312.3 243.5 315 L 239.5 316 L 237 315 Q 236 309.3 239.5 307 L 242.5 305 Z " /><path fill="rgb(255,255,255)" stroke="rgb(255,255,255)" stroke-width="0" opacity="1" d="M 345.5 308 L 355 327.5 L 356 334.5 L 352.5 336 L 343 320.5 L 341 309 L 345.5 308 Z " /><path fill="rgb(255,255,255)" stroke="rgb(255,255,255)" stroke-width="0" opacity="1" d="M 312 313 L 316 314 L 316 321.5 L 317 322.5 L 317 337.5 L 314.5 339 Q 309 331.5 311 316.5 L 312 313 Z " /><path fill="rgb(255,255,255)" stroke="rgb(255,255,255)" stroke-width="0" opacity="1" d="M 371.5 316 L 375 317.5 Q 385 328 390 343.5 Q 389.5 346.5 385.5 346 Q 372.7 335.8 367 318.5 L 371.5 316 Z " /><path fill="rgb(255,255,255)" stroke="rgb(255,255,255)" stroke-width="0" opacity="1" d="M 273.5 328 L 279 328 L 279 335.5 L 276.5 339 Q 271 340 270 336.5 Q 270.3 330.8 273.5 328 Z " /><path fill="rgb(255,255,255)" stroke="rgb(255,255,255)" stroke-width="0" opacity="1" d="M 358.5 337 Q 363.8 339.8 362 349.5 Q 361.3 351.8 357.5 351 L 355 350 Q 352.9 346.6 354 339 L 358.5 337 Z " /><path fill="rgb(255,255,255)" stroke="rgb(255,255,255)" stroke-width="0" opacity="1" d="M 312 342 L 315.5 343 L 318 342 Q 319.6 344.1 319 349.5 L 315.5 355 Q 311 356 310 353.5 L 309 349.5 L 312 342 Z " /><path fill="rgb(255,255,255)" stroke="rgb(255,255,255)" stroke-width="0" opacity="1" d="M 391.5 347 L 394 348.5 Q 397.2 351.8 396 359.5 Q 395.3 362.8 390.5 362 Q 385.4 358.3 387 349 Q 390.4 349.8 391.5 347 Z " /><path fill="rgb(255,255,255)" stroke="rgb(255,255,255)" stroke-width="0" opacity="1" d="M 211.5 356 L 236.5 356 L 241 357.5 L 233 366.5 L 218 402.5 L 202.5 420 L 187.5 428 Q 171.5 431 158.5 437 Q 147.6 442.6 140.5 452 L 140 450.5 Q 154.5 414 182.5 391 Q 197.5 378 218 370.5 L 214.5 370 Q 187.7 380.2 170 399.5 Q 151.8 417.3 141.5 443 L 141 440.5 L 144 434.5 L 146 423.5 L 154 399.5 Q 161 383 173.5 372 L 191.5 361 L 211.5 356 Z " /><path fill="rgb(255,255,255)" stroke="rgb(255,255,255)" stroke-width="0" opacity="1" d="M 35.5 377 L 57.5 377 L 77.5 382 Q 95.7 389.3 107 403.5 Q 121.2 421.8 126 449.5 L 124.5 453 L 124 449.5 L 116 434.5 L 93.5 410 Q 79.2 397.3 58.5 391 L 59.5 393 Q 88.7 404.3 107 426.5 Q 117.5 438 123 454.5 L 116.5 449 L 104.5 443 Q 87.7 440.3 75.5 433 L 58 417.5 Q 47.9 404.1 42 386.5 L 35.5 377 Z " /><path fill="rgb(0,0,0)" stroke="rgb(0,0,0)" stroke-width="0" opacity="1" d="M 377.5 44 Q 390.9 42.1 398.5 46 L 412 57.5 L 420 75.5 L 421.5 101 Q 431.7 92.2 445.5 87 L 460.5 83 L 473.5 83 Q 486.9 85.7 493 95.5 L 498 105.5 L 500 122.5 L 499 123.5 L 498 135.5 L 491 153.5 Q 480.6 172.2 464.5 185 Q 445.2 201.2 416 207.5 Q 443.8 216.2 460 236.5 Q 470.6 248.4 476 265.5 L 480 284.5 L 480 305.5 L 475 325.5 L 469.5 334 Q 452.5 347 419.5 344 L 405.5 341 L 392 336 L 394 343.5 L 400 350.5 L 401 358.5 L 395.5 366 Q 387.2 367.3 385 362.5 Q 381.2 357.7 383 348 L 375 341.5 Q 366.8 331.6 363 318 L 352.5 311 L 352 312.5 L 359 326.5 L 360 333.5 L 366 340.5 L 367 347.5 L 361.5 355 Q 352.5 356.5 351 350.5 L 349 341.5 L 350 338.5 Q 343.2 332.8 340 323.5 L 332.5 294 Q 328.5 306.5 320 314.5 L 320 319.5 L 321 320.5 L 321 340.5 Q 324 343.5 323 350.5 L 318.5 358 L 312.5 360 L 306 355.5 L 305 347.5 L 310 339.5 Q 305 331.5 307 316.5 L 309 308.5 L 320 289 L 313.5 287 Q 312.3 290.3 306.5 289 L 300.5 287 L 284 304.5 L 282 326.5 L 284 332.5 Q 282.9 339.9 277.5 343 L 273.5 344 L 267 339.5 L 266 333.5 L 271 325.5 L 271 321.5 L 270 320.5 L 270 312.5 L 275 296.5 L 288 281.5 L 282.5 277 Q 273.7 283.7 261.5 287 L 259 289.5 L 251 305.5 L 250 313.5 L 244.5 319 L 237.5 320 L 234 318 Q 232.3 315.6 233 309.5 L 238.5 303 L 242 302 Q 244.4 284.6 256.5 276 Q 265.1 270.1 276 268 L 275 260 L 263.5 263 L 255.5 263 L 245.5 258 L 241.5 258 L 227.5 253 L 210 240.5 L 208.5 238 L 208 240.5 L 211 250.5 L 211 259.5 Q 208.3 276.8 196.5 285 L 182 291.5 L 191 298.5 Q 200.4 307.6 199 327.5 Q 194.9 344.9 182.5 354 L 167.5 362 Q 160 364.5 148.5 363 Q 134.8 359.2 127.5 349 L 127 362.5 L 132 390.5 L 137 406.5 L 140.5 429 L 149 400.5 Q 156 383 168.5 371 Q 178.3 361.3 192.5 356 L 208.5 352 L 228.5 351 L 229.5 352 L 244.5 353 L 248 355.5 L 246.5 359 L 239 365.5 L 232 378.5 Q 228.9 393.4 222 404.5 L 205.5 423 L 189.5 432 Q 171 435.5 156.5 443 L 142 456.5 L 136 468 Q 131.5 469.8 133 464.5 L 137 449.5 L 137 428.5 L 133 407.5 L 125 377.5 L 124 365.5 L 123 364.5 L 123 354.5 L 122 353.5 L 122 341.5 L 122 339.5 L 120.5 335 L 116 346.5 L 116 360.5 L 117 361.5 L 119 382.5 L 130 422.5 L 131 442.5 L 127 458.5 L 122.5 466 Q 119.8 466.6 121 460.5 L 116.5 454 L 105.5 448 Q 88.1 445.4 75.5 438 Q 63.6 430.9 55 420.5 L 47 408.5 L 37 386.5 L 29 377.5 L 29 375.5 L 32.5 373 Q 41.4 374.4 46.5 372 L 47.5 373 L 59.5 373 L 81.5 379 Q 98.8 386.7 110 400.5 Q 121.9 414.6 126.5 436 L 127 429.5 Q 123.1 406.9 116 387.5 L 113 371.5 L 111.5 354 L 102.5 364 Q 93.3 372.3 74.5 371 Q 57.4 367.6 49 355.5 L 40 337.5 L 39 320.5 Q 42.3 302.3 55 293.5 Q 33.4 292.1 23 279.5 Q 10.8 267.7 11 243.5 L 14 230.5 L 17 224.5 L 28.5 211 Q 37.4 202.4 55.5 203 Q 68 205.3 76 211 L 74 195.5 L 76 185.5 L 80 176.5 L 90.5 165 Q 98.3 158.8 109.5 156 L 127.5 156 Q 141.3 159.2 149 168.5 L 157 184.5 L 158 200.5 L 154 217.5 L 155.5 217 L 166.5 213 L 177.5 213 Q 191.9 216.1 199.5 226 L 200 224.5 L 197 218.5 L 196 209.5 Q 198.8 207.8 197 201.5 L 201 193.5 L 202 182.5 L 206 170.5 Q 212.2 156.2 223.5 147 L 228 143.5 Q 223.1 129.4 212.5 121 L 207.5 117 L 205.5 117 Q 202.6 121.1 194.5 120 L 188 115.5 Q 184.4 112.6 186 104.5 L 190.5 98 Q 193.5 95 200.5 96 L 208 101.5 L 210 108.5 Q 207.3 110.3 211.5 112 L 222 120.5 Q 230 128.5 234.5 140 Q 250.3 129 278 131 L 277 109.5 L 271 92 L 265.5 93 Q 259 91.5 256 86.5 Q 253.7 83.3 255 76.5 L 260.5 70 L 268.5 68 Q 274.3 69.3 277 73.5 Q 280 76.5 279 83.5 L 277 88.5 L 284 104.5 L 286 114.5 L 286 133 Q 306.3 136.9 318 150.5 L 326 161.5 L 332.5 177 L 337 176 L 331 147.5 L 330 118.5 L 331 117.5 L 331 108.5 L 333 98.5 L 339 79.5 Q 345.4 64.9 356.5 55 Q 364.6 47.1 377.5 44 Z M 380 48 Q 367 51 359 59 Q 348 69 342 84 L 337 100 L 336 112 L 335 113 L 335 144 L 336 145 L 337 159 L 341 176 Q 348 175 351 178 L 353 135 L 356 123 Q 358 117 355 116 L 355 91 Q 357 89 356 85 Q 359 73 364 65 L 366 64 L 360 77 L 357 91 L 358 116 Q 363 101 372 91 L 385 78 L 389 76 L 390 76 L 386 79 Q 373 90 364 106 L 358 120 L 355 136 L 356 147 L 366 130 Q 376 116 393 108 L 394 109 L 378 120 Q 363 133 355 152 L 353 163 L 353 179 L 358 182 Q 373 147 397 122 L 414 107 L 416 105 Q 415 100 417 99 L 417 85 L 415 74 L 408 60 Q 401 46 380 48 Z M 264 73 L 259 78 Q 258 86 264 88 L 272 87 L 275 82 L 274 77 Q 272 71 264 73 Z M 459 88 L 448 91 L 437 96 Q 421 104 409 116 Q 379 143 362 183 L 362 185 Q 367 187 369 194 L 407 149 Q 421 132 439 119 Q 450 110 466 105 L 469 106 Q 444 114 427 131 L 401 160 L 398 164 L 425 150 L 449 143 L 461 142 L 462 141 Q 470 139 473 143 L 454 144 L 431 150 Q 409 158 392 170 L 369 197 L 374 205 L 406 205 L 426 201 L 447 192 L 462 182 Q 475 171 485 156 Q 492 144 495 128 L 495 113 L 490 99 Q 485 91 476 88 L 459 88 Z M 197 100 L 194 101 L 190 106 L 191 113 L 196 116 L 202 115 Q 207 113 205 105 Q 203 100 197 100 Z M 281 107 L 280 111 L 281 111 L 281 107 Z M 282 112 L 281 117 L 282 117 L 282 112 Z M 283 120 L 282 133 L 283 133 L 283 120 Z M 264 135 L 246 139 L 228 149 Q 216 158 210 172 L 206 185 L 205 196 L 201 204 L 201 217 Q 203 228 210 235 Q 221 247 240 253 L 244 252 L 258 259 Q 268 259 274 254 L 275 256 Q 294 252 307 242 Q 317 234 323 223 L 328 210 L 329 199 L 330 198 L 328 178 Q 324 164 316 155 Q 306 142 288 137 Q 283 136 285 142 L 282 143 L 280 143 L 277 141 L 278 137 L 277 135 L 264 135 Z M 282 136 L 281 141 L 282 141 L 282 136 Z M 115 160 L 103 163 L 93 169 Q 82 177 79 194 L 79 205 L 82 216 L 94 233 L 100 244 Q 104 239 115 240 L 118 231 L 118 223 L 120 224 L 120 232 L 118 240 Q 126 240 132 245 L 147 223 L 153 204 L 153 189 L 148 175 Q 139 159 115 160 Z M 336 180 L 333 181 L 333 189 L 334 190 L 333 207 L 330 217 Q 326 228 318 237 Q 304 253 279 259 L 281 268 L 282 265 Q 281 262 284 263 Q 283 271 287 276 Q 289 280 294 280 L 293 277 Q 291 271 295 272 L 297 278 Q 300 284 309 284 L 310 285 L 307 274 L 309 271 L 311 279 Q 314 285 323 285 L 327 269 L 328 272 L 327 285 Q 322 299 313 310 Q 314 312 318 311 L 323 305 L 330 291 L 333 281 L 334 274 Q 337 276 337 282 L 339 281 L 343 277 L 346 268 L 344 259 L 345 256 L 349 266 Q 347 270 351 269 Q 357 265 358 257 Q 359 246 355 242 L 356 240 Q 361 244 362 253 L 366 246 L 366 232 L 363 227 Q 362 224 365 225 L 370 235 L 371 232 Q 373 219 368 214 L 363 207 L 368 209 L 372 213 L 371 207 L 366 199 L 357 193 Q 353 194 354 191 L 362 191 L 363 192 L 363 191 Q 357 182 342 184 L 348 181 L 336 180 Z M 46 208 L 31 215 Q 19 224 16 242 L 17 260 L 23 273 Q 31 284 48 288 L 65 288 L 88 281 L 86 274 L 87 262 Q 81 256 70 255 L 70 254 L 78 254 L 88 259 Q 90 250 97 246 Q 92 234 84 225 Q 76 215 65 210 Q 57 207 46 208 Z M 395 209 L 397 222 L 396 236 L 391 255 Q 383 274 369 288 L 369 291 L 374 304 L 374 312 L 377 314 L 387 308 Q 402 296 411 278 L 419 257 L 422 240 L 422 222 L 420 213 L 409 209 L 395 209 Z M 172 217 L 162 219 L 151 226 L 135 246 L 135 248 Q 142 252 144 261 L 156 256 L 159 257 L 149 261 L 146 264 L 148 272 Q 149 279 147 282 L 171 287 L 185 286 L 196 280 Q 203 274 206 263 L 206 248 Q 204 238 199 232 Q 190 219 172 217 Z M 444 227 L 446 239 L 446 252 L 441 276 Q 434 296 421 311 Q 410 324 393 332 L 411 338 L 419 338 Q 429 333 438 325 Q 451 312 459 293 L 464 277 L 465 266 L 466 265 L 466 254 L 457 240 L 444 227 Z M 111 243 L 102 246 Q 93 252 90 264 L 90 276 L 96 290 Q 102 299 115 302 Q 126 303 133 299 Q 141 293 144 282 Q 146 263 137 255 Q 132 247 123 244 L 111 243 Z M 278 271 L 258 281 L 259 283 L 276 277 L 281 274 L 278 271 Z M 353 271 L 348 272 L 351 283 L 365 315 L 371 313 Q 369 289 357 275 L 353 271 Z M 256 283 Q 248 289 246 301 Q 245 304 248 303 L 257 286 Q 258 282 256 283 Z M 293 284 L 280 298 Q 277 299 282 301 L 297 286 L 297 284 L 295 285 L 293 284 Z M 86 285 Q 70 288 60 295 L 47 310 L 44 319 Q 42 331 45 339 L 53 354 L 65 363 L 79 367 Q 93 367 101 360 Q 114 350 117 330 L 117 311 L 116 307 L 105 302 L 100 298 L 91 309 L 88 311 Q 91 302 98 297 L 90 287 Q 91 283 86 285 Z M 475 285 L 470 302 Q 465 314 456 324 Q 447 334 434 339 L 434 340 Q 454 340 467 331 L 473 318 L 476 302 Q 477 291 475 285 Z M 146 286 Q 144 293 139 298 L 141 298 L 147 306 L 148 307 L 138 299 L 131 304 L 121 306 Q 119 333 132 348 Q 139 357 154 359 Q 172 359 182 349 Q 190 341 194 329 L 194 315 L 189 304 Q 183 295 173 291 Q 161 286 146 286 Z M 336 289 L 335 292 L 339 305 Q 340 307 345 306 L 344 302 L 336 289 Z M 354 298 L 347 301 L 354 306 L 359 311 L 354 298 Z M 277 302 L 274 315 L 275 324 L 277 325 L 278 324 Q 277 319 279 318 L 280 304 L 277 302 Z M 243 305 L 240 307 Q 236 309 237 315 L 240 316 L 244 315 Q 248 312 247 307 L 243 305 Z M 346 308 L 341 309 L 343 321 L 353 336 L 356 335 L 355 328 L 346 308 Z M 312 313 L 311 317 Q 309 332 315 339 L 317 338 L 317 323 L 316 322 L 316 314 L 312 313 Z M 372 316 L 367 319 Q 373 336 386 346 Q 389 347 390 344 Q 385 328 375 318 L 372 316 Z M 274 328 Q 270 331 270 337 Q 271 340 277 339 L 279 336 L 279 328 L 274 328 Z M 359 337 L 354 339 Q 353 347 355 350 L 358 351 Q 361 352 362 350 Q 364 340 359 337 Z M 312 342 L 309 350 L 310 354 Q 311 356 316 355 L 319 350 Q 320 344 318 342 L 316 343 L 312 342 Z M 392 347 Q 390 350 387 349 Q 385 358 391 362 Q 395 363 396 360 Q 397 352 394 349 L 392 347 Z M 212 356 L 192 361 L 174 372 Q 161 383 154 400 L 150 410 L 143 436 L 144 438 Q 154 416 170 400 Q 188 380 215 370 L 218 371 Q 197 378 183 391 Q 154 414 140 451 L 141 452 Q 148 443 159 437 Q 172 431 188 428 L 203 420 L 218 403 L 233 367 L 241 358 L 237 356 L 212 356 Z M 36 377 L 42 387 Q 48 404 58 418 L 76 433 Q 88 440 105 443 L 117 449 L 122 454 L 118 443 L 107 427 Q 89 404 60 393 L 59 391 Q 79 397 94 410 L 116 435 L 124 450 L 125 453 L 126 450 Q 121 422 107 404 Q 96 389 78 382 L 58 377 L 36 377 Z M 142 440 L 141 443 L 142 443 L 142 440 Z " /><path fill="rgb(0,0,0)" stroke="rgb(0,0,0)" stroke-width="0" opacity="1" d="M 278.5 159 Q 288.3 158.7 291 165.5 L 292 169 L 284.5 164 L 277.5 163 L 274 164 L 276.5 160 L 278.5 159 Z " /><path fill="rgb(0,0,0)" stroke="rgb(0,0,0)" stroke-width="0" opacity="1" d="M 221.5 162 Q 228.5 160.5 230 164.5 L 229.5 166 L 222.5 166 L 215.5 171 L 215 168.5 L 218.5 164 L 221.5 162 Z " /><path fill="rgb(0,0,0)" stroke="rgb(0,0,0)" stroke-width="0" opacity="1" d="M 278.5 176 Q 287.1 176.4 291 181.5 Q 297 187.5 295 201.5 Q 293.2 208.7 287.5 212 L 280.5 213 L 275 208.5 Q 271.5 204.5 273 195.5 L 277.5 189 L 284.5 187 L 291 192.5 L 291.5 194 L 292 190.5 L 286.5 182 Q 283.8 179.2 277.5 180 L 271 184.5 Q 266.8 189.8 267 199.5 L 268 204.5 L 273 211.5 L 271.5 212 L 265 203.5 L 264 195.5 Q 266.2 194.3 265 189.5 L 268 183.5 L 273.5 178 L 278.5 176 Z M 281 192 L 279 194 Q 278 197 281 198 L 284 196 L 283 194 Q 284 191 281 192 Z " /><path fill="rgb(0,0,0)" stroke="rgb(0,0,0)" stroke-width="0" opacity="1" d="M 421.5 176 L 438 176.5 L 420.5 178 L 405.5 182 Q 387.6 188.6 373.5 199 L 375.5 196 Q 393.9 181.4 421.5 176 Z " /><path fill="rgb(0,0,0)" stroke="rgb(0,0,0)" stroke-width="0" opacity="1" d="M 221.5 178 Q 231.3 177.7 234 184.5 Q 238.2 190.3 237 201.5 Q 235.8 208.3 231.5 212 L 226.5 214 L 219 208.5 L 217 200.5 L 219 193.5 L 223.5 189 L 228.5 188 L 232.5 191 L 233 188.5 L 227.5 182 Q 217.4 180.4 215 186.5 Q 210.8 192.3 212 203.5 L 216 211.5 L 211 207.5 Q 208 202.5 209 193.5 Q 211 183.5 218.5 179 L 221.5 178 Z M 226 193 L 224 195 Q 223 198 226 199 L 228 198 Q 230 192 226 193 Z " /><path fill="rgb(0,0,0)" stroke="rgb(0,0,0)" stroke-width="0" opacity="1" d="M 242.5 209 L 251.5 209 L 257 212 L 258 215.5 L 255.5 214 L 249.5 212 L 244.5 212 L 234.5 218 L 235 216.5 L 238.5 211 L 242.5 209 Z " /><path fill="rgb(0,0,0)" stroke="rgb(0,0,0)" stroke-width="0" opacity="1" d="M 268 223 Q 275.6 221.9 278 227.5 Q 278.8 229.8 276.5 229 L 273 228 L 270 241.5 L 266 248 L 260.5 251 L 254.5 251 L 248 245.5 L 243.5 238 Q 237.4 236.6 235 231.5 Q 234.3 229.3 236.5 230 L 241.5 234 L 251.5 236 L 260.5 234 L 271 226.5 L 268 225 L 268 223 Z M 268 234 L 263 237 L 259 242 Q 256 243 257 241 L 258 239 L 249 240 L 251 244 Q 253 249 262 247 Q 266 243 268 237 L 268 234 Z " /></svg>