<svg width="627" height="627" preserveAspectRatio="xMidYMid meet" viewBox="0 0 512 512" version="1.1" xmlns="http://www.w3.org/2000/svg" ><path fill="rgb(255,255,255)" stroke="rgb(255,255,255)" stroke-width="0" opacity="1" d="M 0 0 L 512 0 L 512 512 L 0 512 L 0 0 Z M 202 76 L 193 78 L 186 82 Q 178 88 174 98 L 172 108 L 172 120 L 171 121 Q 173 128 170 132 L 168 133 L 154 147 L 148 161 L 149 173 L 157 189 Q 170 205 190 215 L 186 235 L 169 225 L 161 223 L 151 223 L 142 227 Q 135 231 133 241 L 133 254 L 140 271 Q 97 277 70 301 L 57 317 L 52 330 Q 54 335 51 337 L 52 349 L 55 358 L 62 369 Q 81 389 110 400 L 119 400 L 174 372 L 175 373 L 153 411 L 154 417 L 157 419 L 172 424 L 199 430 L 220 432 L 221 433 L 253 434 L 254 435 L 307 433 L 308 432 L 316 432 L 331 429 L 337 429 L 361 424 L 385 417 L 403 410 Q 420 403 434 392 Q 445 383 453 371 Q 459 362 461 350 L 460 331 Q 456 319 449 311 Q 440 300 428 293 L 404 282 L 388 278 L 386 277 L 395 262 L 399 246 L 398 236 L 394 227 L 389 221 L 383 218 Q 378 219 377 217 Q 355 220 344 234 Q 345 236 342 235 L 337 224 L 323 208 L 330 203 Q 340 196 346 185 L 351 169 L 350 157 L 346 147 L 328 127 L 328 106 L 323 93 L 319 88 Q 313 81 304 78 Q 285 76 277 85 L 266 99 L 261 97 L 239 97 L 233 99 L 226 89 L 217 80 L 210 77 L 202 76 Z " /><path fill="rgb(255,255,255)" stroke="rgb(255,255,255)" stroke-width="0" opacity="1" d="M 199.5 81 L 209.5 82 L 220 88 L 226 96.5 L 229 105 L 237.5 102 L 260.5 102 L 265 103 Q 263.3 108.2 267 107 Q 271.3 94.6 281.5 87 Q 288.2 81.2 302.5 83 Q 312.8 85.8 318 93.5 L 322 101.5 L 324 110.5 L 324 124.5 L 323 128.5 L 335 139.5 L 339 144.5 Q 329 143.5 326 149.5 Q 323.7 152.7 325 159.5 L 328.5 164 Q 331.4 168.1 339.5 167 L 345 163.5 L 345.5 162 L 346 170.5 L 343.5 176 Q 341.8 173.3 335.5 175 L 329 180.5 L 327 188.5 L 331 195.5 Q 316.6 209.8 294 215 Q 292.9 218.5 300.5 217 L 306 216 L 308.5 220 L 314.5 222 L 319 220 L 321.5 213 Q 334 222.5 339 239.5 Q 327.8 251.3 322.5 269 L 319 250.5 L 314.5 243 Q 312.3 242.3 313 244.5 L 317 258.5 L 317 282.5 L 311 306.5 L 304 325.5 Q 306 335.5 311.5 342 L 318 344 L 320 349.5 L 316.5 354 L 310.5 355 L 306 351.5 L 306 345.5 L 300.5 340 L 293.5 338 L 289 341.5 Q 285.5 345 285 351.5 L 287 356.5 L 283.5 361 L 277.5 362 L 273 358.5 L 272 354.5 L 275.5 350 L 279 347.5 L 280 336.5 Q 278.8 333.8 277.5 336 L 270.5 335 L 263 338.5 L 260.5 342 L 255.5 343 L 251 339.5 Q 249.8 332.3 254.5 331 L 261.5 332 Q 271.6 328.1 278 320.5 L 282 312.5 L 287 296.5 L 289 285.5 L 289 277.5 L 290 276.5 L 290 262.5 L 289 261.5 L 288 250.5 L 285.5 247 L 285 262.5 L 286 267.5 L 285 268.5 L 285 281.5 L 284 282.5 L 283 293.5 L 275 318 L 272.5 319 L 253.5 319 L 237.5 313 L 220 297.5 L 211 279.5 L 207 260.5 L 207 249.5 L 205.5 247 L 204 248.5 L 204 267.5 L 207 281.5 L 209 284.5 L 210 298.5 L 213 312.5 Q 217.6 322.9 225.5 330 Q 232.8 328.8 234 333.5 Q 235 340 230.5 341 L 225.5 342 L 221 338.5 Q 221.8 332.8 217.5 332 Q 214.8 329.2 208.5 330 L 203 334.5 L 200 342.5 L 203 347.5 L 199.5 353 L 193.5 354 L 189 351.5 L 188 346.5 L 191.5 342 Q 194.5 342.9 193 338.5 L 194 334.5 L 191.5 330 L 184.5 331 L 175 335 Q 176 340.6 171.5 342 Q 163.7 343.8 162 339.5 L 161 336.5 L 164.5 331 L 169.5 330 L 171.5 331 L 187 318.5 L 190 314.5 L 190 310.5 L 187 294.5 L 186 273.5 L 187 273.5 L 190.5 278 Q 196.3 278.8 197 274.5 L 198 265.5 L 194.5 261 L 192.5 260 L 188 262 L 186.5 266 L 186 261.5 L 187 260.5 L 187 251.5 L 190 239.5 L 191 228.5 L 194 216 L 207 219 L 205.5 216 Q 178.6 206.9 162 187.5 L 155 175.5 Q 151.9 170.1 153 160.5 Q 156.9 146.4 167.5 139 L 174 133.5 L 176 126.5 L 176 112.5 L 177 111.5 L 178 100.5 Q 180.8 91.3 187.5 86 L 199.5 81 Z M 197 90 L 195 91 Q 189 94 188 100 L 191 100 L 198 95 L 207 95 L 207 93 Q 204 89 197 90 Z M 297 92 L 293 93 L 289 97 L 291 98 L 299 98 L 309 104 L 306 96 L 297 92 Z M 199 104 L 191 108 L 184 119 L 183 124 Q 183 133 186 139 Q 190 145 199 147 Q 207 147 211 143 L 217 133 L 218 128 Q 218 116 213 110 Q 209 103 199 104 Z M 291 107 L 283 111 Q 276 116 274 127 L 274 135 L 277 143 L 284 149 L 292 151 L 302 148 Q 309 143 311 133 Q 312 121 308 116 Q 304 106 291 107 Z M 164 149 L 160 151 Q 155 153 156 162 L 162 166 L 167 165 L 172 159 L 172 154 Q 170 149 164 149 Z M 222 151 L 219 154 L 220 157 Q 221 160 226 159 Q 228 158 227 154 Q 226 150 222 151 Z M 248 152 L 244 157 L 247 160 L 252 159 L 253 157 L 252 154 Q 253 150 248 152 Z M 186 162 L 184 163 Q 179 165 179 170 L 184 167 Q 186 166 185 169 Q 193 179 207 183 L 218 203 L 227 210 L 240 214 Q 255 213 263 204 Q 271 196 276 185 L 295 174 L 301 168 L 304 172 Q 303 174 306 173 L 305 168 L 299 163 Q 294 162 293 165 L 297 167 Q 289 175 278 179 L 255 185 L 229 185 L 214 182 L 198 175 L 187 166 L 190 164 Q 191 160 186 162 Z M 221 217 L 220 219 Q 226 224 235 226 L 249 226 L 261 221 L 263 218 L 250 223 L 234 223 L 221 217 Z M 323 226 L 317 231 Q 316 237 318 241 Q 320 247 329 245 L 333 240 L 332 232 Q 330 226 323 226 Z M 307 266 L 303 268 L 299 274 L 300 282 L 306 286 L 310 285 L 314 280 Q 315 273 313 270 Q 311 266 307 266 Z " /><path fill="rgb(255,255,255)" stroke="rgb(255,255,255)" stroke-width="0" opacity="1" d="M 200.5 107 Q 208.8 107.8 212 113.5 L 215 122.5 L 214 122.5 L 208.5 116 L 204.5 115 L 200.5 116 L 195 121.5 Q 191.5 125.5 193 134.5 Q 194.4 140.6 199 143.5 L 197.5 143 Q 191.2 142.4 189 137.5 L 187 133.5 L 186 123.5 Q 187.5 114.5 193.5 110 L 200.5 107 Z " /><path fill="rgb(255,255,255)" stroke="rgb(255,255,255)" stroke-width="0" opacity="1" d="M 292.5 110 Q 300.9 110.1 304 115.5 Q 308.9 120.6 308 131.5 L 305.5 139 L 305 136.5 Q 307.5 135 306 129.5 Q 304.5 123 299.5 120 L 291.5 119 L 285 124.5 Q 281.2 129.2 283 139.5 L 288 146.5 L 286.5 147 L 282 145 L 278 137.5 L 277 127.5 Q 278.6 116.6 286.5 112 L 292.5 110 Z " /><path fill="rgb(255,255,255)" stroke="rgb(255,255,255)" stroke-width="0" opacity="1" d="M 201.5 120 Q 205.3 119.3 206 121.5 Q 207.9 126.9 204.5 126 L 201.5 127 Q 199 126 200 121.5 L 201.5 120 Z " /><path fill="rgb(255,255,255)" stroke="rgb(255,255,255)" stroke-width="0" opacity="1" d="M 292.5 123 L 296 124 Q 297.3 128.6 294.5 130 Q 290.8 130.8 290 128.5 Q 289.3 123.8 292.5 123 Z " /><path fill="rgb(255,255,255)" stroke="rgb(255,255,255)" stroke-width="0" opacity="1" d="M 332.5 147 Q 339.8 145.8 342 149.5 L 345 159.5 L 342.5 163 L 335.5 165 L 328 159.5 L 327 153.5 L 330.5 148 L 332.5 147 Z " /><path fill="rgb(255,255,255)" stroke="rgb(255,255,255)" stroke-width="0" opacity="1" d="M 164.5 151 L 169 153.5 L 170 157.5 L 165.5 163 Q 159.3 164.3 158 160.5 Q 157.1 153.6 161.5 152 L 164.5 151 Z " /><path fill="rgb(255,255,255)" stroke="rgb(255,255,255)" stroke-width="0" opacity="1" d="M 336.5 177 Q 341.8 175.8 343 178.5 Q 340.2 187.7 333.5 193 L 330 190.5 Q 328.4 180.4 334.5 178 L 336.5 177 Z " /><path fill="rgb(255,255,255)" stroke="rgb(255,255,255)" stroke-width="0" opacity="1" d="M 213.5 186 L 226.5 189 L 237 189.5 Q 225.5 191 220.5 199 L 213.5 186 Z " /><path fill="rgb(255,255,255)" stroke="rgb(255,255,255)" stroke-width="0" opacity="1" d="M 266.5 186 L 271 186.5 L 266.5 193 L 259.5 190 L 247.5 190 L 242.5 192 L 239 190.5 L 246.5 189 L 255.5 189 L 266.5 186 Z " /><path fill="rgb(255,255,255)" stroke="rgb(255,255,255)" stroke-width="0" opacity="1" d="M 235.5 193 L 241 194.5 L 239 198 L 248.5 193 L 258.5 193 L 264 196.5 Q 256.4 208.9 237.5 210 L 228.5 207 L 223 201.5 L 228.5 195 L 235.5 193 Z " /><path fill="rgb(255,255,255)" stroke="rgb(255,255,255)" stroke-width="0" opacity="1" d="M 317.5 210 L 319 215.5 Q 318 220 311.5 219 L 308 216.5 Q 306.8 212.8 310.5 214 L 317.5 210 Z " /><path fill="rgb(255,255,255)" stroke="rgb(255,255,255)" stroke-width="0" opacity="1" d="M 371.5 222 Q 384.5 220.5 389 227.5 L 392 232.5 Q 385.5 233 383 237.5 Q 379.7 241.2 381 249.5 L 386.5 256 L 391 257 Q 384.2 276.5 369.5 289 L 350.5 303 L 337 308 Q 335.6 311.7 341.5 310 L 352.5 307 L 361.5 309 L 377.5 309 Q 379.3 305.8 384.5 306 L 389 309.5 Q 390.3 315.8 386.5 317 L 380.5 317 Q 378.9 313.1 372.5 314 L 361.5 316 L 358 315 Q 356.9 317.7 359.5 317 L 373.5 325 L 384.5 326 L 388 328.5 L 389 332.5 L 385.5 337 L 379.5 338 L 374 333.5 Q 375.1 330.2 372.5 331 L 361.5 326 L 348.5 325 L 346 324 L 354.5 336 Q 361.1 335.4 363 339.5 Q 364.5 345.5 361.5 347 L 355.5 349 L 350 347 L 349 340.5 L 342.5 334 L 322.5 323 L 316 317.5 L 316 313.5 L 326 302.5 Q 341.4 278.4 360 257.5 L 358.5 258 L 346 269.5 L 325 297.5 L 314.5 309 L 315 307.5 L 320 290.5 L 321 282.5 L 326 268.5 Q 335.5 246.5 352.5 232 L 366.5 224 L 366.5 225 L 364 226.5 L 363 233.5 Q 364.5 238.5 372.5 237 L 378 229.5 L 374.5 224 Q 370.7 224.5 371.5 222 Z M 353 240 L 349 242 L 344 249 L 345 257 L 349 259 Q 354 260 357 257 Q 361 254 362 249 L 361 244 Q 359 239 353 240 Z " /><path fill="rgb(255,255,255)" stroke="rgb(255,255,255)" stroke-width="0" opacity="1" d="M 368.5 226 Q 373.8 224.8 375 227.5 Q 376 233 372.5 234 L 367.5 235 Q 364.3 234.3 365 229.5 L 366 227 L 368.5 226 Z " /><path fill="rgb(255,255,255)" stroke="rgb(255,255,255)" stroke-width="0" opacity="1" d="M 149.5 228 L 152 228 L 152 233.5 Q 155.1 238.9 163.5 239 L 169 235.5 L 170.5 231 L 185 240.5 L 183 248.5 L 181.5 268 L 168.5 254 L 167 254.5 L 181 272.5 Q 183.7 278.7 182 289.5 L 184 302 Q 163.6 293.1 150 276.5 L 145 268 Q 150.6 267.9 153 263.5 L 154 254.5 L 148.5 247 L 142.5 246 L 137.5 250 L 137 244.5 L 140 235.5 L 145.5 230 L 149.5 228 Z " /><path fill="rgb(255,255,255)" stroke="rgb(255,255,255)" stroke-width="0" opacity="1" d="M 154 228 Q 163.2 226.9 168 230 L 167 235 Q 164.6 236.8 158.5 236 L 154 232.5 L 154 228 Z " /><path fill="rgb(255,255,255)" stroke="rgb(255,255,255)" stroke-width="0" opacity="1" d="M 323.5 228 L 330 232.5 L 331 238.5 L 327.5 243 Q 321.9 243.1 320 239.5 L 319 231.5 L 323.5 228 Z " /><path fill="rgb(255,255,255)" stroke="rgb(255,255,255)" stroke-width="0" opacity="1" d="M 389.5 235 Q 394.8 233.3 393 238.5 L 394 239.5 L 394 247.5 L 392 255 Q 386.4 254.9 384 250.5 L 383 243.5 L 387.5 236 L 389.5 235 Z " /><path fill="rgb(255,255,255)" stroke="rgb(255,255,255)" stroke-width="0" opacity="1" d="M 354.5 242 L 359 244.5 L 359 250.5 L 355.5 255 L 348.5 256 Q 345 255 346 249.5 L 351.5 243 L 354.5 242 Z " /><path fill="rgb(255,255,255)" stroke="rgb(255,255,255)" stroke-width="0" opacity="1" d="M 142.5 248 Q 148.7 247.3 150 251.5 Q 152.3 254.7 151 261.5 L 148.5 265 L 145.5 266 L 142 265 L 138 253.5 L 142.5 248 Z " /><path fill="rgb(255,255,255)" stroke="rgb(255,255,255)" stroke-width="0" opacity="1" d="M 191.5 263 L 195 264.5 L 196 271.5 L 192.5 276 Q 189.2 277.1 190 274.5 Q 187.4 273.1 188 268.5 L 191.5 263 Z " /><path fill="rgb(255,255,255)" stroke="rgb(255,255,255)" stroke-width="0" opacity="1" d="M 305.5 269 Q 311.3 268.3 312 272.5 Q 313 280.5 308.5 283 Q 303 284 302 280.5 L 301 275.5 L 303 270 L 305.5 269 Z " /><path fill="rgb(255,255,255)" stroke="rgb(255,255,255)" stroke-width="0" opacity="1" d="M 140.5 275 Q 144.3 274.3 145 276.5 L 160.5 293 L 172 301.5 L 146.5 305 Q 143.5 302 137.5 302 L 130 306.5 Q 127.3 308.8 128 314.5 L 131.5 320 L 140 322.5 L 136 329 L 102.5 333 L 80 339.5 L 83.5 340 L 108.5 334 L 136 331 Q 135.9 335.9 139.5 338 Q 142.8 341.2 150.5 340 L 157 334.5 L 157.5 333 L 158 334.5 L 157 338.5 L 161.5 345 L 169.5 347 L 177 342.5 L 180.5 337 L 188.5 335 L 190 337.5 L 184 345.5 L 184 351.5 L 187.5 356 Q 190.8 359.2 198.5 358 L 205 353.5 L 207 346.5 L 205 339.5 L 208.5 335 Q 215.5 333.5 217 337.5 L 217 340.5 L 221.5 345 L 230.5 346 L 238 339.5 Q 240 329 233.5 327 L 227.5 326 L 223 321.5 L 224.5 321 L 225.5 322 L 236.5 322 L 242.5 320 L 254.5 324 L 267 324.5 L 261.5 328 Q 260 325.5 254.5 327 L 247 332.5 L 246 338.5 L 251.5 346 L 259.5 347 L 266 342.5 Q 265.3 340.3 267.5 341 L 268.5 340 L 276 340 Q 276.9 345.9 272.5 348 L 270 349.5 Q 267.2 352.2 268 358.5 L 273.5 365 L 282.5 366 L 290 360.5 L 291 353.5 L 289 349.5 L 293.5 343 Q 299.9 343.1 302 347.5 Q 300.9 356.1 306.5 358 Q 309.7 360.3 316.5 359 L 322.5 354 L 324.5 354 Q 360.4 367.1 389.5 387 L 387.5 384 Q 359.2 363.8 323 351.5 L 324 347.5 L 318.5 340 L 314 339 Q 309.8 333.6 309 323.5 L 311.5 319 L 316.5 324 Q 332.6 330.9 345 341.5 L 345 346.5 L 350.5 352 L 359.5 353 L 366 348.5 Q 368.7 346.2 368 340.5 L 362.5 334 L 357.5 333 L 354 329.5 L 355.5 329 L 371 334 Q 371.5 338.7 375.5 341 Q 378.7 343.3 385.5 342 L 392 336.5 L 393 329.5 L 389.5 324 Q 385.8 320.7 377.5 322 L 372 319.5 L 376.5 319 Q 379.4 322.6 387.5 321 Q 389.2 318.2 394.5 319 L 395.5 320 L 408.5 320 L 409.5 321 L 421.5 322 L 421.5 321 L 414.5 319 L 392 316.5 Q 394.6 315.1 394 310.5 L 388.5 303 L 381.5 302 Q 375.7 307.2 362.5 305 L 357 303.5 Q 372.4 294.4 383.5 281 L 406.5 288 L 421.5 295 Q 436.5 302.9 447 315.5 Q 457.6 326.4 456 349.5 Q 450.4 372.4 434.5 385 Q 422.1 395.6 406.5 403 L 387.5 411 L 356.5 420 L 331.5 425 L 309.5 427 L 308.5 428 L 299.5 428 L 298.5 429 L 244.5 430 L 243.5 429 L 218.5 428 L 217.5 427 L 192.5 424 L 161.5 416 L 158 413.5 L 158 410.5 L 163 400.5 L 179 374.5 L 182 366.5 L 179.5 365 Q 146.7 377.7 118.5 395 L 112.5 396 Q 86.7 386.8 69 369.5 L 59 354.5 L 56 341.5 L 56 334.5 Q 60.4 312.9 75.5 302 Q 86.5 293 100.5 287 L 116.5 281 L 140.5 275 Z M 250 356 Q 235 377 228 405 L 229 410 L 240 378 L 250 359 L 250 356 Z " /><path fill="rgb(255,255,255)" stroke="rgb(255,255,255)" stroke-width="0" opacity="1" d="M 215.5 298 L 223.5 308 L 236 316.5 Q 233.3 318.8 227.5 318 L 222.5 317 L 219 314.5 Q 214.9 307.5 215.5 298 Z " /><path fill="rgb(255,255,255)" stroke="rgb(255,255,255)" stroke-width="0" opacity="1" d="M 173.5 305 Q 182.2 303.3 185 307.5 L 185 314.5 L 176.5 323 L 168.5 324 L 154 330.5 L 153 334 Q 150.7 336.6 144.5 336 L 141 333.5 L 140 329.5 L 143.5 325 L 149.5 324 L 151.5 325 L 169 316 Q 170.3 313 166.5 314 L 164.5 314 L 146.5 314 Q 144.1 318.6 136.5 318 L 134 317 L 133 310.5 L 134 308 Q 136.4 306.3 142.5 307 Q 144.2 309.8 149.5 309 L 150.5 308 L 165.5 307 L 173.5 305 Z " /><path fill="rgb(255,255,255)" stroke="rgb(255,255,255)" stroke-width="0" opacity="1" d="M 147.5 318 L 156 318.5 Q 152.9 320.9 146.5 320 L 147.5 318 Z " /><path fill="rgb(0,0,0)" stroke="rgb(0,0,0)" stroke-width="0" opacity="1" d="M 201.5 76 L 209.5 77 L 216.5 80 L 226 88.5 L 232.5 99 L 238.5 97 L 260.5 97 L 265.5 99 L 276.5 85 Q 284.6 76.1 303.5 78 Q 313.1 80.9 319 87.5 L 323 92.5 L 328 105.5 L 328 126.5 L 346 146.5 L 350 156.5 L 351 168.5 L 346 184.5 Q 339.5 195.5 329.5 203 L 323 207.5 L 337 223.5 L 342 235 Q 344.7 236.1 344 233.5 Q 355.4 220.4 376.5 217 Q 377.7 219.3 382.5 218 L 388.5 221 L 394 226.5 L 398 235.5 L 399 245.5 L 395 261.5 L 386 276.5 L 387.5 278 L 403.5 282 L 427.5 293 Q 439.9 300.1 449 310.5 Q 456.5 318.5 460 330.5 L 461 349.5 Q 458.7 361.7 453 370.5 Q 445.3 383.3 433.5 392 Q 419.6 402.6 402.5 410 L 384.5 417 L 360.5 424 L 336.5 429 L 330.5 429 L 315.5 432 L 307.5 432 L 306.5 433 L 253.5 435 L 252.5 434 L 220.5 433 L 219.5 432 L 198.5 430 L 171.5 424 L 156.5 419 L 154 416.5 L 153 410.5 L 175 372.5 L 173.5 372 L 118.5 400 L 109.5 400 Q 80.5 389.5 62 368.5 L 55 357.5 L 52 348.5 L 51 336.5 Q 53.5 335 52 329.5 L 57 316.5 L 69.5 301 Q 96.7 277.5 140 271 L 133 253.5 L 133 240.5 Q 134.9 231.4 141.5 227 L 150.5 223 L 160.5 223 L 168.5 225 L 186 235 L 190 214.5 Q 170.1 204.9 157 188.5 L 149 172.5 L 148 160.5 L 154 146.5 L 167.5 133 L 170 131.5 Q 172.5 128 171 120.5 L 172 119.5 L 172 107.5 L 174 97.5 Q 177.5 87.5 185.5 82 L 192.5 78 L 201.5 76 Z M 200 81 L 188 86 Q 181 91 178 101 L 177 112 L 176 113 L 176 127 L 174 134 L 168 139 Q 157 146 153 161 Q 152 170 155 176 L 162 188 Q 179 207 206 216 L 207 219 L 194 216 L 191 229 L 190 240 L 187 252 L 187 261 L 186 262 L 187 266 L 188 262 L 193 260 L 195 261 L 198 266 L 197 275 Q 196 279 191 278 L 187 274 L 186 274 L 187 295 L 190 311 L 190 315 L 187 319 L 172 331 L 170 330 L 165 331 L 161 337 L 162 340 Q 164 344 172 342 Q 176 341 175 335 L 185 331 L 192 330 L 194 335 L 193 339 Q 194 343 192 342 L 188 347 L 189 352 L 194 354 L 200 353 L 203 348 L 200 343 L 203 335 L 209 330 Q 215 329 218 332 Q 222 333 221 339 L 226 342 L 231 341 Q 235 340 234 334 Q 233 329 226 330 Q 218 323 213 313 L 210 299 L 209 285 L 207 282 L 204 268 L 204 249 L 206 247 L 207 250 L 207 261 L 211 280 L 220 298 L 238 313 L 254 319 L 273 319 L 275 318 L 283 294 L 284 283 L 285 282 L 285 269 L 286 268 L 285 263 L 286 247 L 288 251 L 289 262 L 290 263 L 290 277 L 289 278 L 289 286 L 287 297 L 282 313 L 278 321 Q 272 328 262 332 L 255 331 Q 250 332 251 340 L 256 343 L 261 342 L 263 339 L 271 335 L 278 336 Q 279 334 280 337 L 279 348 L 276 350 L 272 355 L 273 359 L 278 362 L 284 361 L 287 357 L 285 352 Q 286 345 289 342 L 294 338 L 301 340 L 306 346 L 306 352 L 311 355 L 317 354 L 320 350 L 318 344 L 312 342 Q 306 335 304 326 L 311 307 L 317 283 L 317 259 L 313 245 Q 312 242 315 243 L 319 251 L 323 269 Q 328 251 339 240 Q 334 223 322 213 L 319 220 L 315 222 L 309 220 L 306 216 L 301 217 Q 293 219 294 215 Q 317 210 331 196 L 327 189 L 329 181 L 336 175 Q 342 173 344 176 L 346 171 L 346 162 L 345 164 L 340 167 Q 331 168 329 164 L 325 160 Q 324 153 326 150 Q 329 144 339 145 L 335 140 L 323 129 L 324 125 L 324 111 L 322 102 L 318 94 Q 313 86 303 83 Q 288 81 282 87 Q 271 95 267 107 Q 263 108 265 103 L 261 102 L 238 102 L 229 105 L 226 97 L 220 88 L 210 82 L 200 81 Z M 333 147 L 331 148 L 327 154 L 328 160 L 336 165 L 343 163 L 345 160 L 342 150 Q 340 146 333 147 Z M 337 177 L 335 178 Q 328 180 330 191 L 334 193 Q 340 188 343 179 Q 342 176 337 177 Z M 318 210 L 311 214 Q 307 213 308 217 L 312 219 Q 318 220 319 216 L 318 210 Z M 372 222 Q 371 224 375 224 L 378 230 L 373 237 Q 365 239 363 234 L 364 227 L 365 225 L 353 232 Q 340 242 332 257 L 324 274 L 315 307 L 316 308 L 346 270 L 359 258 L 360 258 Q 341 278 326 303 L 316 314 L 316 318 L 323 323 L 343 334 L 349 341 L 350 347 L 356 349 L 362 347 Q 365 346 363 340 Q 361 335 355 336 L 346 324 L 349 325 L 362 326 L 373 331 Q 375 330 374 334 L 380 338 L 386 337 L 389 333 L 388 329 L 385 326 L 374 325 L 360 317 Q 357 318 358 315 L 362 316 L 373 314 Q 379 313 381 317 L 387 317 Q 390 316 389 310 L 385 306 Q 379 306 378 309 L 362 309 L 353 307 L 342 310 Q 336 312 337 308 L 351 303 L 370 289 Q 384 276 391 257 L 387 256 L 381 250 Q 380 241 383 238 Q 386 233 392 233 L 389 228 Q 384 221 372 222 Z M 369 226 L 366 227 L 365 230 Q 364 234 368 235 L 373 234 Q 376 233 375 228 Q 374 225 369 226 Z M 150 228 L 146 230 L 140 236 L 137 245 L 138 250 L 143 246 L 149 247 L 154 255 L 153 264 Q 151 268 145 268 L 150 277 Q 164 293 184 302 L 182 290 Q 184 279 181 273 L 167 255 L 169 254 L 182 268 L 183 249 L 185 241 L 171 231 L 169 236 L 164 239 Q 155 239 152 234 L 152 228 L 150 228 Z M 154 228 L 154 233 L 159 236 Q 165 237 167 235 L 168 230 Q 163 227 154 228 Z M 390 235 L 388 236 L 383 244 L 384 251 Q 386 255 392 255 L 394 248 L 394 240 L 393 239 Q 395 233 390 235 Z M 143 248 L 138 254 L 142 265 L 146 266 L 149 265 L 151 262 Q 152 255 150 252 Q 149 247 143 248 Z M 192 263 L 188 269 Q 187 273 190 275 Q 189 277 193 276 L 196 272 L 195 265 L 192 263 Z M 141 275 L 117 281 L 101 287 Q 86 293 76 302 Q 60 313 56 335 L 56 342 L 59 355 L 69 370 Q 87 387 113 396 L 119 395 Q 147 378 180 365 L 182 367 L 179 375 L 163 401 L 158 411 L 158 414 L 162 416 L 193 424 L 218 427 L 219 428 L 244 429 L 245 430 L 299 429 L 300 428 L 309 428 L 310 427 L 332 425 L 357 420 L 388 411 L 407 403 Q 422 396 435 385 Q 450 372 456 350 Q 458 326 447 316 Q 437 303 422 295 L 407 288 L 384 281 Q 372 294 357 304 L 363 305 Q 376 307 382 302 L 389 303 L 394 311 Q 395 315 392 317 L 415 319 L 422 321 L 422 322 L 410 321 L 409 320 L 396 320 L 395 319 Q 389 318 388 321 Q 379 323 377 319 L 372 320 L 378 322 Q 386 321 390 324 L 393 330 L 392 337 L 386 342 Q 379 343 376 341 Q 371 339 371 334 L 356 329 L 354 330 L 358 333 L 363 334 L 368 341 Q 369 346 366 349 L 360 353 L 351 352 L 345 347 L 345 342 Q 333 331 317 324 L 312 319 L 309 324 Q 310 334 314 339 L 319 340 L 324 348 L 323 352 Q 359 364 388 384 L 391 388 Q 361 367 325 354 L 323 354 L 317 359 Q 310 360 307 358 Q 301 356 302 348 Q 300 343 294 343 L 289 350 L 291 354 L 290 361 L 283 366 L 274 365 L 268 359 Q 267 352 270 350 L 273 348 Q 277 346 276 340 L 269 340 L 268 341 Q 265 340 266 343 L 260 347 L 252 346 L 246 339 L 247 333 L 255 327 Q 260 326 262 328 L 267 325 L 255 324 L 243 320 L 237 322 L 226 322 L 225 321 L 223 322 L 228 326 L 234 327 Q 240 329 238 340 L 231 346 L 222 345 L 217 341 L 217 338 Q 216 334 209 335 L 205 340 L 207 347 L 205 354 L 199 358 Q 191 359 188 356 L 184 352 L 184 346 L 190 338 L 189 335 L 181 337 L 177 343 L 170 347 L 162 345 Q 157 342 157 335 L 151 340 Q 143 341 140 338 Q 136 336 136 331 L 109 334 L 81 340 L 79 341 L 83 338 L 98 334 L 121 330 L 136 329 L 140 323 L 132 320 L 128 315 Q 127 309 130 307 L 138 302 Q 144 302 147 305 L 172 302 L 161 293 L 145 277 Q 144 274 141 275 Z M 216 298 Q 215 308 219 315 L 223 317 L 228 318 Q 233 319 236 317 L 224 308 L 216 298 Z M 174 305 L 166 307 L 151 308 L 150 309 Q 144 310 143 307 Q 136 306 134 308 L 133 311 L 134 317 L 137 318 Q 144 319 147 314 L 165 314 L 167 314 Q 170 313 169 316 L 152 325 L 150 324 L 144 325 L 140 330 L 141 334 L 145 336 Q 151 337 153 334 L 154 331 L 169 324 L 177 323 L 185 315 L 185 308 Q 182 303 174 305 Z M 148 318 L 147 320 Q 153 321 156 319 L 148 318 Z " /><path fill="rgb(0,0,0)" stroke="rgb(0,0,0)" stroke-width="0" opacity="1" d="M 196.5 90 Q 204.5 88.5 207 92.5 L 206.5 95 L 197.5 95 L 190.5 100 L 188 100 Q 188.8 93.9 194.5 91 L 196.5 90 Z " /><path fill="rgb(0,0,0)" stroke="rgb(0,0,0)" stroke-width="0" opacity="1" d="M 296.5 92 L 306 96 L 309 104 L 298.5 98 L 290.5 98 L 289 96.5 L 292.5 93 L 296.5 92 Z " /><path fill="rgb(0,0,0)" stroke="rgb(0,0,0)" stroke-width="0" opacity="1" d="M 198.5 104 Q 209.3 103.3 213 109.5 Q 218.3 115.7 218 127.5 L 217 132.5 L 210.5 143 Q 206.5 147 198.5 147 Q 189.6 145.4 186 138.5 Q 182.7 132.8 183 123.5 L 184 118.5 L 190.5 108 L 198.5 104 Z M 201 107 L 194 110 Q 187 114 186 124 L 187 134 L 189 138 L 196 143 L 198 143 L 193 135 Q 191 126 195 122 L 201 116 L 205 115 L 209 116 L 214 121 L 212 114 Q 209 108 201 107 Z M 202 120 L 200 122 Q 199 126 202 127 L 205 126 Q 208 127 206 122 Q 205 119 202 120 Z " /><path fill="rgb(0,0,0)" stroke="rgb(0,0,0)" stroke-width="0" opacity="1" d="M 290.5 107 Q 304 106.5 308 115.5 Q 312.2 121.3 311 132.5 Q 308.9 142.9 301.5 148 L 291.5 151 L 283.5 149 L 277 142.5 L 274 134.5 L 274 126.5 Q 275.8 116.3 282.5 111 L 290.5 107 Z M 293 110 L 287 112 Q 279 117 277 128 L 278 138 L 282 145 L 287 147 L 288 147 L 283 140 Q 281 129 285 125 L 292 119 L 300 120 Q 304 123 306 130 Q 308 135 305 137 L 306 139 L 308 132 Q 309 121 304 116 Q 301 110 293 110 Z M 293 123 Q 289 124 290 129 Q 291 131 295 130 Q 297 129 296 124 L 293 123 Z " /><path fill="rgb(0,0,0)" stroke="rgb(0,0,0)" stroke-width="0" opacity="1" d="M 163.5 149 Q 169.9 149.1 172 153.5 L 172 158.5 L 166.5 165 L 161.5 166 L 156 161.5 Q 154.7 153.2 159.5 151 L 163.5 149 Z M 165 151 L 162 152 Q 157 154 158 161 Q 159 164 166 163 L 170 158 L 169 154 L 165 151 Z " /><path fill="rgb(0,0,0)" stroke="rgb(0,0,0)" stroke-width="0" opacity="1" d="M 221.5 151 Q 226.3 150.3 227 153.5 Q 228 158 225.5 159 Q 220.8 159.8 220 156.5 L 219 153.5 L 221.5 151 Z " /><path fill="rgb(0,0,0)" stroke="rgb(0,0,0)" stroke-width="0" opacity="1" d="M 247.5 152 Q 252.9 150.1 252 153.5 L 253 156.5 L 252 159 L 246.5 160 L 244 156.5 L 247.5 152 Z " /><path fill="rgb(0,0,0)" stroke="rgb(0,0,0)" stroke-width="0" opacity="1" d="M 185.5 162 Q 191.3 160.3 190 164 L 187 165.5 L 197.5 175 L 213.5 182 L 228.5 185 L 254.5 185 L 277.5 179 Q 289.3 174.8 297 166.5 L 293 164.5 Q 294 162 298.5 163 L 305 167.5 L 306 173 Q 303.3 174.1 304 171.5 L 300.5 168 L 294.5 174 L 276 184.5 Q 271.2 196.2 262.5 204 Q 254.5 212.5 239.5 214 L 226.5 210 L 218 202.5 L 206.5 183 Q 192.7 178.8 185 168.5 Q 185.8 166.3 183.5 167 L 179 170 Q 179.5 165.3 183.5 163 L 185.5 162 Z M 214 186 L 221 199 Q 226 191 237 190 L 227 189 L 214 186 Z M 267 186 L 256 189 L 247 189 L 239 191 L 243 192 L 248 190 L 260 190 L 267 193 L 271 187 L 267 186 Z M 236 193 L 229 195 L 223 202 L 229 207 L 238 210 Q 256 209 264 197 L 259 193 L 249 193 L 239 198 L 241 195 L 236 193 Z " /><path fill="rgb(0,0,0)" stroke="rgb(0,0,0)" stroke-width="0" opacity="1" d="M 220.5 217 L 233.5 223 L 249.5 223 L 262.5 218 L 260.5 221 L 248.5 226 L 234.5 226 Q 225.6 223.9 220 218.5 L 220.5 217 Z " /><path fill="rgb(0,0,0)" stroke="rgb(0,0,0)" stroke-width="0" opacity="1" d="M 322.5 226 Q 329.8 226.3 332 231.5 L 333 239.5 L 328.5 245 Q 319.5 246.5 318 240.5 Q 315.7 237.3 317 230.5 L 322.5 226 Z M 324 228 L 319 232 L 320 240 Q 322 243 328 243 L 331 239 L 330 233 L 324 228 Z " /><path fill="rgb(0,0,0)" stroke="rgb(0,0,0)" stroke-width="0" opacity="1" d="M 352.5 240 Q 359.4 239.1 361 243.5 L 362 248.5 Q 360.8 254.3 356.5 257 Q 354.2 259.7 348.5 259 L 345 256.5 L 344 248.5 L 348.5 242 L 352.5 240 Z M 355 242 L 352 243 L 346 250 Q 345 255 349 256 L 356 255 L 359 251 L 359 245 L 355 242 Z " /><path fill="rgb(0,0,0)" stroke="rgb(0,0,0)" stroke-width="0" opacity="1" d="M 306.5 266 Q 311.3 266.3 313 269.5 Q 315.3 272.7 314 279.5 L 309.5 285 L 305.5 286 L 300 281.5 L 299 273.5 L 302.5 268 L 306.5 266 Z M 306 269 L 303 270 L 301 276 L 302 281 Q 303 284 309 283 Q 313 280 312 273 Q 311 268 306 269 Z " /><path fill="rgb(0,0,0)" stroke="rgb(0,0,0)" stroke-width="0" opacity="1" d="M 249.5 356 L 250 358.5 L 240 377.5 L 228.5 410 L 228 404.5 Q 235.3 376.8 249.5 356 Z " /></svg>