<svg width="627" height="627" preserveAspectRatio="xMidYMid meet" viewBox="0 0 512 512" version="1.1" xmlns="http://www.w3.org/2000/svg" ><path fill="rgb(255,255,255)" stroke="rgb(255,255,255)" stroke-width="0" opacity="1" d="M 0 0 L 512 0 L 512 512 L 0 512 L 0 0 Z M 388 13 Q 354 20 334 40 Q 311 59 296 87 L 286 111 L 280 140 L 278 135 Q 273 130 262 131 L 264 127 L 263 122 L 259 118 Q 247 118 240 122 Q 226 128 217 138 L 215 117 L 209 91 L 199 68 L 186 49 Q 174 34 158 24 Q 148 18 135 15 Q 120 13 113 19 L 102 32 L 97 51 L 97 71 L 98 72 L 99 84 L 104 102 Q 116 134 138 157 L 160 177 Q 148 190 142 211 L 138 229 L 138 245 L 132 249 Q 124 254 121 264 L 122 271 L 127 275 L 126 277 Q 124 288 129 293 L 134 296 Q 139 298 141 295 L 142 299 L 154 310 L 176 323 Q 168 332 163 345 L 142 369 L 133 386 L 122 380 Q 112 379 109 383 Q 103 387 101 395 Q 102 401 100 401 Q 94 404 93 412 L 94 425 Q 96 434 103 439 L 104 448 Q 113 461 136 461 L 146 475 Q 158 491 180 498 Q 196 500 204 494 Q 211 488 215 479 L 226 480 L 227 481 L 252 480 L 272 474 Q 284 475 292 481 L 296 487 Q 301 492 310 494 L 318 494 L 328 491 L 347 478 Q 368 460 376 430 Q 378 413 372 405 Q 365 392 346 393 L 343 387 L 334 379 L 335 374 L 335 362 L 331 346 Q 325 333 316 324 Q 329 319 340 311 Q 347 307 350 299 Q 352 296 358 297 L 365 288 L 365 278 L 364 277 Q 363 274 367 275 L 370 271 L 369 262 L 363 252 L 353 246 L 354 242 L 353 224 L 350 208 Q 344 187 332 172 L 362 148 Q 385 126 402 98 L 414 69 L 418 49 L 418 35 L 414 22 Q 407 11 388 13 Z " /><path fill="rgb(255,255,255)" stroke="rgb(255,255,255)" stroke-width="0" opacity="1" d="M 389.5 19 Q 404.3 17.2 409 25.5 L 411 30.5 L 411 51.5 L 403 80.5 L 391 103.5 Q 375.1 128.1 353.5 147 L 328.5 167 L 326.5 167 L 320 160.5 L 322.5 158 Q 341.2 144.7 356 127.5 Q 374.5 107.5 387 81.5 L 395 58.5 L 395 46.5 L 391.5 42 L 386.5 41 Q 375.8 43.3 368.5 49 L 350 64 L 338 78.5 L 322 105.5 L 313 129.5 L 307 156.5 L 325 172.5 L 333 183.5 L 343 205.5 L 347 225.5 L 347 249 Q 355.9 251.7 361 259.5 L 364 265.5 L 364 268.5 L 360.5 270 L 354 268 L 359 278.5 L 359 286.5 L 355.5 291 L 352 289.5 L 349.5 286 Q 346.1 285.1 348 290.5 Q 344.8 298.8 338.5 304 L 319.5 316 L 294.5 325 L 288.5 326 L 287 327.5 L 296.5 328 L 309.5 325 Q 318.4 333.1 324 344.5 L 329 361.5 L 329 373.5 L 325 386.5 L 313.5 399 L 307 404.5 Q 303.5 413.5 296.5 419 L 286.5 422 L 284 421 L 282 412.5 L 284 406.5 L 282.5 406 Q 277.4 409.4 279 419.5 L 280 422 Q 273.1 421.7 269 417.5 Q 266.4 414.6 267 408.5 L 269 401 L 266 402.5 Q 263.3 405.8 263.5 412 Q 258.6 407.9 260 397.5 Q 264.8 380.8 277.5 372 L 301 358.5 L 294.5 358 L 293 358.5 L 295 350.5 L 293.5 347 L 288 361 Q 275.5 365.6 267 375.5 Q 260 382.5 256 392.5 L 255 406.5 Q 258.4 417.6 267.5 423 L 276.5 427 L 282.5 427 L 284.5 427 Q 300.5 427 306 416.5 Q 309.2 407.2 316.5 402 L 327 392.5 L 331 384 L 338 389.5 L 340 393.5 L 329.5 398 L 313 413.5 L 298 439.5 L 292 460.5 L 291.5 475 Q 287.3 470.6 280 470 L 286 462.5 L 289 454.5 L 278.5 464 Q 269.4 470.4 256.5 473 L 244.5 474 L 243.5 475 L 224.5 475 L 214 473 L 215 470.5 L 215 458.5 L 209 435.5 Q 202.7 420.3 191.5 410 L 177.5 402 Q 170.4 399.6 159.5 401 Q 149.2 403.7 143 410.5 L 135 424.5 Q 132.6 431.6 134 442.5 L 135 446.5 L 134 446.5 L 130 429.5 L 130 415.5 Q 136.7 377.2 160.5 356 L 161 357.5 L 160 358.5 L 160 372.5 Q 164.3 387.3 175.5 395 L 192.5 405 L 202 414.5 L 205.5 419 Q 211.4 426.1 224.5 426 L 234.5 424 L 245 416.5 L 252 404.5 L 252 391.5 Q 247.7 377.3 236.5 370 L 212 357 L 208 347 L 206 347.5 L 206 354.5 L 211.5 361 Q 229 368 241 380.5 L 247 391.5 L 247 403.5 L 246 403.5 Q 245.4 397.2 240.5 395 L 240 397.5 Q 243 401.5 243 408.5 Q 241.8 414.3 237.5 417 L 232.5 419 L 233 417.5 Q 234.3 406.7 228.5 403 Q 226.3 402.3 227 404.5 Q 230.3 408.2 229 416.5 L 226.5 420 L 220.5 421 Q 208.6 418.4 203 409.5 L 198.5 404 L 177.5 391 L 170 383.5 L 165 373.5 L 164 364.5 L 169 344.5 Q 174.1 331.6 183.5 323 L 197.5 327 L 205.5 327 L 204.5 325 L 186.5 320 L 162.5 309 L 147 295.5 L 143 284 Q 140.3 282.9 141 285.5 L 137.5 290 Q 133.5 290.5 133 287.5 Q 130.7 284.3 132 277.5 L 138 266 L 128.5 268 L 127 265.5 Q 129.1 258.1 134.5 254 L 144 249 L 145 224.5 L 151 203.5 Q 159.9 182.4 175.5 168 L 188 158.5 Q 187.8 88.7 152.5 54 L 141.5 45 L 134.5 42 L 129.5 42 L 124 46.5 L 121 54.5 L 121 77.5 Q 125.7 103.3 137 122.5 Q 151.7 146.8 172 165.5 L 164.5 172 L 140 149.5 Q 122.7 130.3 112 104.5 L 106 85.5 L 103 59.5 L 104 58.5 L 104 47.5 L 106 38.5 L 114.5 25 L 123.5 21 L 132.5 21 Q 145.9 23.6 155.5 30 Q 171 39.5 182 53.5 Q 194.5 69 202 89.5 L 209 119.5 L 210 145.5 L 207 150 L 213.5 149 Q 222.7 138.2 235.5 131 L 248.5 125 L 256.5 124 Q 259.3 125.3 257 126.5 L 255 131.5 L 244 142.5 L 244 144 L 253.5 139 L 267.5 136 L 273 138.5 L 271.5 142 L 259 147 Q 257.8 150 261.5 149 L 266.5 150 L 271 153.5 L 267.5 156 L 257.5 157 L 256 158.5 Q 259.3 161.7 267.5 160 L 271.5 159 L 275 155.5 Q 276 148.5 271 147.5 Q 272.4 144.4 277.5 145 L 291 149 L 288.5 145 L 286 143.5 L 290 119.5 L 301 90.5 Q 315.6 63 338.5 44 Q 351.4 32.4 368.5 25 L 389.5 19 Z M 200 185 L 196 187 L 189 195 L 191 198 Q 195 193 204 191 L 210 191 L 210 188 Q 207 184 200 185 Z M 300 186 L 297 187 Q 293 188 294 192 L 296 193 L 307 194 L 313 199 L 315 198 L 313 193 Q 310 186 300 186 Z M 202 212 Q 193 213 189 218 Q 181 225 179 237 Q 177 254 187 261 L 185 262 Q 182 261 183 264 L 187 263 L 204 263 L 205 264 Q 213 265 217 262 Q 223 257 225 248 Q 227 230 220 222 Q 215 213 202 212 Z M 297 215 L 292 218 Q 282 224 280 238 Q 278 252 284 260 L 291 265 L 314 265 L 318 266 L 315 263 Q 322 258 324 249 L 324 236 L 319 224 L 309 215 L 297 215 Z M 253 250 Q 251 253 246 251 L 237 258 L 238 264 Q 244 271 253 275 L 252 284 L 244 288 L 239 288 L 231 285 L 224 278 L 227 276 L 226 273 L 219 275 Q 215 277 215 282 L 221 279 L 223 284 L 231 289 L 234 305 L 238 313 L 246 318 Q 253 319 257 316 L 263 310 L 269 294 L 278 289 L 284 282 Q 286 278 289 283 L 289 279 Q 287 274 280 274 L 281 278 L 280 282 L 271 288 Q 259 290 256 284 L 257 275 L 268 268 L 272 262 L 272 258 L 266 252 L 253 250 Z M 268 318 Q 263 325 255 328 Q 239 330 234 323 Q 231 322 232 325 Q 236 330 244 332 L 254 332 L 264 327 L 268 321 L 268 318 Z " /><path fill="rgb(255,255,255)" stroke="rgb(255,255,255)" stroke-width="0" opacity="1" d="M 130.5 46 L 138.5 48 L 151 58.5 L 162 72.5 L 174 96.5 L 181 121.5 L 182 133.5 L 183 134.5 L 184 156.5 L 175.5 162 L 165 152.5 Q 146.1 133.4 134 107.5 L 126 82.5 L 124 60.5 L 128 47 L 130.5 46 Z " /><path fill="rgb(255,255,255)" stroke="rgb(255,255,255)" stroke-width="0" opacity="1" d="M 383.5 46 Q 389.5 44.5 391 47.5 L 391 58.5 L 389 65.5 L 379 88.5 Q 360.4 120.4 333.5 144 L 316.5 158 L 312 154.5 Q 322.8 92.3 362.5 59 L 376.5 49 L 383.5 46 Z " /><path fill="rgb(255,255,255)" stroke="rgb(255,255,255)" stroke-width="0" opacity="1" d="M 199.5 217 Q 212.9 216.1 217 224.5 Q 223.3 232.2 221 248.5 L 219.5 252 L 219 249.5 L 220 248.5 L 220 239.5 Q 217.9 232.1 212.5 228 Q 209.2 225.3 202.5 226 Q 196 227.5 193 232.5 Q 189.2 237.2 189 245.5 L 191 253.5 L 195 260 Q 188.6 261.3 187 256.5 L 183 246.5 L 183 236.5 Q 185.3 226.8 191.5 221 L 199.5 217 Z " /><path fill="rgb(255,255,255)" stroke="rgb(255,255,255)" stroke-width="0" opacity="1" d="M 299.5 219 Q 312.1 218.4 316 226.5 Q 321.7 233.8 320 248.5 Q 318.1 257.6 311.5 262 L 306 261.5 L 308 261 L 313 250.5 L 313 241.5 Q 311.1 233.9 305.5 230 Q 302.2 226.8 294.5 228 L 286 234.5 L 285.5 236 L 285 234.5 Q 287.4 225.4 294.5 221 L 299.5 219 Z " /><path fill="rgb(255,255,255)" stroke="rgb(255,255,255)" stroke-width="0" opacity="1" d="M 207.5 232 Q 212.3 231.3 213 234.5 L 214 237.5 L 213 241 L 206.5 242 Q 203.4 240.6 204 235.5 L 205 233 L 207.5 232 Z " /><path fill="rgb(255,255,255)" stroke="rgb(255,255,255)" stroke-width="0" opacity="1" d="M 299.5 234 Q 305 233 306 236.5 Q 307.3 241.8 304.5 243 L 300.5 244 Q 296 243 297 236.5 L 299.5 234 Z " /><path fill="rgb(255,255,255)" stroke="rgb(255,255,255)" stroke-width="0" opacity="1" d="M 250.5 254 Q 262.7 252.8 268 258.5 L 268 261.5 L 262.5 267 Q 259.9 270.9 252.5 270 L 242 262.5 L 241 258.5 L 245.5 255 L 250.5 254 Z " /><path fill="rgb(255,255,255)" stroke="rgb(255,255,255)" stroke-width="0" opacity="1" d="M 217.5 255 L 216.5 257 L 217.5 255 Z " /><path fill="rgb(255,255,255)" stroke="rgb(255,255,255)" stroke-width="0" opacity="1" d="M 251.5 288 L 252 298.5 L 251 302 Q 246 302.8 244 299.5 L 242 292.5 Q 248.3 291.8 251.5 288 Z " /><path fill="rgb(255,255,255)" stroke="rgb(255,255,255)" stroke-width="0" opacity="1" d="M 254.5 288 L 262 292.5 Q 261.8 298.3 258.5 301 L 253 302 L 254.5 288 Z " /><path fill="rgb(255,255,255)" stroke="rgb(255,255,255)" stroke-width="0" opacity="1" d="M 238 301 L 240.5 301 L 247.5 306 L 257 306 L 258 309.5 Q 255.8 315.4 246.5 314 L 240 308.5 L 238 301 Z " /><path fill="rgb(255,255,255)" stroke="rgb(255,255,255)" stroke-width="0" opacity="1" d="M 115.5 386 Q 126.4 385.6 130 392.5 L 125 411.5 L 125 433.5 L 132 455 Q 117.2 454.6 110 445.5 L 109 442 L 114 442 L 114 440.5 L 104 431.5 Q 98.5 425 99 412.5 L 102.5 406 L 107 406 L 107 395.5 L 111.5 388 L 115.5 386 Z " /><path fill="rgb(255,255,255)" stroke="rgb(255,255,255)" stroke-width="0" opacity="1" d="M 341.5 399 Q 361.1 396.4 367 407.5 L 370 415.5 L 370 427.5 L 367 438.5 L 360 452.5 Q 350.6 467.1 337.5 478 L 324.5 486 L 317.5 488 L 309.5 488 Q 302.3 486.2 299 480.5 L 297 475.5 L 296 466.5 L 297 465.5 L 298 453.5 L 307 431.5 Q 315.1 415.6 328.5 405 L 341.5 399 Z M 351 415 L 347 417 L 343 425 Q 342 431 346 432 L 351 431 Q 357 428 357 418 Q 356 414 351 415 Z M 335 416 L 333 417 L 327 425 L 328 431 L 331 432 L 336 430 Q 340 427 339 419 L 335 416 Z M 359 429 L 353 435 L 352 439 L 356 443 L 359 442 Q 365 440 365 432 Q 364 428 359 429 Z M 334 440 L 326 444 Q 316 452 311 465 Q 310 472 312 476 L 319 480 L 327 479 L 336 473 Q 343 466 347 456 Q 349 448 346 445 Q 344 438 334 440 Z " /><path fill="rgb(255,255,255)" stroke="rgb(255,255,255)" stroke-width="0" opacity="1" d="M 161.5 406 L 176.5 407 Q 186.6 410.9 193 418.5 Q 209 436.5 210 469.5 L 208 478.5 L 200.5 489 L 190.5 493 L 183.5 493 Q 166 488.5 156 476.5 Q 147 467 142 453.5 L 139 441.5 L 139 430.5 L 143 418.5 L 151.5 410 L 161.5 406 Z M 167 420 L 165 421 L 162 425 L 162 430 L 169 438 Q 174 439 175 436 L 174 426 L 167 420 Z M 183 424 L 180 428 Q 179 436 185 439 L 190 438 L 191 436 L 190 428 Q 189 423 183 424 Z M 153 433 L 150 438 L 151 443 Q 153 447 160 448 L 163 443 L 160 436 Q 158 432 153 433 Z M 175 447 L 171 449 L 168 452 L 165 460 L 166 468 L 171 478 Q 175 485 185 487 L 193 486 Q 197 483 199 477 L 198 467 L 193 457 Q 188 448 175 447 Z " /><path fill="rgb(255,255,255)" stroke="rgb(255,255,255)" stroke-width="0" opacity="1" d="M 352.5 417 Q 355 418 354 422.5 L 351 428 L 346 429 L 346 423.5 L 350.5 418 L 352.5 417 Z " /><path fill="rgb(255,255,255)" stroke="rgb(255,255,255)" stroke-width="0" opacity="1" d="M 334.5 419 L 337 420.5 Q 336.9 426.9 332.5 429 L 330 429 L 330 423.5 L 332.5 420 L 334.5 419 Z " /><path fill="rgb(255,255,255)" stroke="rgb(255,255,255)" stroke-width="0" opacity="1" d="M 166.5 423 L 170 424.5 Q 173 427.5 173 433.5 Q 171.2 437.7 169.5 435 L 167 433.5 Q 164.2 430.8 165 424.5 L 166.5 423 Z " /><path fill="rgb(255,255,255)" stroke="rgb(255,255,255)" stroke-width="0" opacity="1" d="M 183 426 L 187 427.5 L 188 436 Q 184.2 436.8 183 433.5 L 182 428.5 L 183 426 Z " /><path fill="rgb(255,255,255)" stroke="rgb(255,255,255)" stroke-width="0" opacity="1" d="M 360.5 431 Q 363.5 430.1 362 434.5 L 358.5 439 L 355 440 Q 354.1 434.1 358.5 432 L 360.5 431 Z " /><path fill="rgb(255,255,255)" stroke="rgb(255,255,255)" stroke-width="0" opacity="1" d="M 154.5 435 L 159 438.5 L 160 443.5 L 156.5 445 Q 152.1 443.4 153 436.5 L 154.5 435 Z " /><path fill="rgb(255,255,255)" stroke="rgb(255,255,255)" stroke-width="0" opacity="1" d="M 333.5 443 Q 342.3 441.3 344 446.5 L 344 455.5 L 340 463.5 L 329.5 474 Q 325.5 477 318.5 477 L 315 474.5 L 314 465.5 Q 317.7 453.7 326.5 447 L 333.5 443 Z " /><path fill="rgb(255,255,255)" stroke="rgb(255,255,255)" stroke-width="0" opacity="1" d="M 174.5 450 L 180.5 450 L 190 457.5 L 196 470.5 L 196 476.5 L 191.5 483 L 184.5 484 Q 176.6 481.9 173 475.5 L 169 467.5 L 168 460.5 L 169 455.5 L 172.5 451 L 174.5 450 Z " /><path fill="rgb(0,0,0)" stroke="rgb(0,0,0)" stroke-width="0" opacity="1" d="M 387.5 13 Q 407.5 10.5 414 21.5 L 418 34.5 L 418 48.5 L 414 68.5 L 402 97.5 Q 385.4 126.4 361.5 148 L 332 171.5 Q 343.9 186.6 350 207.5 L 353 223.5 L 354 241.5 L 353 246 L 363 252 L 369 261.5 L 370 270.5 L 366.5 275 Q 363.2 273.9 364 276.5 L 365 277.5 L 365 287.5 L 357.5 297 Q 351.5 295.5 350 298.5 Q 346.7 306.7 339.5 311 Q 329.3 318.8 316 323.5 Q 325.4 332.6 331 345.5 L 335 361.5 L 335 373.5 L 334 378.5 L 343 386.5 L 346 393 Q 365.3 391.8 372 404.5 Q 378.1 412.9 376 429.5 Q 367.5 460 346.5 478 L 327.5 491 L 317.5 494 L 309.5 494 Q 300.9 492.1 296 486.5 L 291.5 481 Q 283.8 475.3 271.5 474 L 251.5 480 L 226.5 481 L 225.5 480 L 214.5 479 Q 210.7 488.2 203.5 494 Q 195.8 500.3 179.5 498 Q 158.1 490.9 146 474.5 L 135.5 461 Q 112.7 461.3 104 447.5 L 103 438.5 Q 96.3 433.7 94 424.5 L 93 411.5 Q 94.1 404.1 99.5 401 Q 102.5 401.5 101 394.5 Q 102.8 386.9 108.5 383 Q 112.3 378.8 121.5 380 L 133 386 L 142 368.5 L 163 344.5 Q 167.6 331.6 176 322.5 L 153.5 310 L 142 298.5 L 140.5 295 Q 139 297.5 133.5 296 L 129 292.5 Q 124.3 287.7 126 276.5 L 127 274.5 L 122 270.5 L 121 263.5 Q 124.2 254.2 131.5 249 L 138 244.5 L 138 228.5 L 142 210.5 Q 147.9 190.4 160 176.5 L 138 156.5 Q 116.1 133.9 104 101.5 L 99 83.5 L 98 71.5 L 97 70.5 L 97 50.5 L 102 31.5 L 112.5 19 Q 119.5 13 134.5 15 Q 147.9 17.6 157.5 24 Q 174 34 186 48.5 L 199 67.5 L 209 90.5 L 215 116.5 L 216.5 138 Q 226.2 128.2 239.5 122 Q 246.8 117.8 258.5 118 L 263 121.5 L 264 126.5 L 262 130.5 Q 273 129.5 278 134.5 L 279.5 140 L 286 110.5 L 296 86.5 Q 310.7 59.2 333.5 40 Q 354.4 20.4 387.5 13 Z M 390 19 L 369 25 Q 351 32 339 44 Q 316 63 301 91 L 290 120 L 286 144 L 289 145 L 291 149 L 278 145 Q 272 144 271 148 Q 276 148 275 156 L 272 159 L 268 160 Q 259 162 256 159 L 258 157 L 268 156 L 271 154 L 267 150 L 262 149 Q 258 150 259 147 L 272 142 L 273 139 L 268 136 L 254 139 L 244 144 L 244 143 L 255 132 L 257 127 Q 259 125 257 124 L 249 125 L 236 131 Q 223 138 214 149 L 207 150 L 210 146 L 209 120 L 202 90 Q 195 69 182 54 Q 171 40 156 30 Q 146 24 133 21 L 124 21 L 115 25 L 106 39 L 104 48 L 104 59 L 103 60 L 106 86 L 112 105 Q 123 130 140 150 L 165 172 L 172 166 Q 152 147 137 123 Q 126 103 121 78 L 121 55 L 124 47 L 130 42 L 135 42 L 142 45 L 153 54 Q 188 89 188 159 L 176 168 Q 160 182 151 204 L 145 225 L 144 249 L 135 254 Q 129 258 127 266 L 129 268 L 138 266 L 132 278 Q 131 284 133 288 Q 133 290 138 290 L 141 286 Q 140 283 143 284 L 147 296 L 163 309 L 187 320 L 205 325 L 206 327 L 198 327 L 184 323 Q 174 332 169 345 L 164 365 L 165 374 L 170 384 L 178 391 L 199 404 L 203 410 Q 209 418 221 421 L 227 420 L 229 417 Q 230 408 227 405 Q 226 402 229 403 Q 235 407 233 418 L 238 417 Q 242 414 243 409 Q 243 402 240 398 L 241 395 Q 245 397 246 404 L 247 404 L 247 392 L 241 381 Q 229 368 212 361 L 206 355 L 206 348 L 208 347 L 212 357 L 237 370 Q 248 377 252 392 L 252 405 L 245 417 L 235 424 L 225 426 Q 211 426 206 419 L 202 415 L 193 405 L 176 395 Q 164 387 160 373 L 160 359 L 161 358 L 161 356 Q 137 377 130 416 L 130 430 L 134 447 L 135 447 L 134 443 Q 133 432 135 425 L 143 411 Q 149 404 160 401 Q 170 400 178 402 L 192 410 Q 203 420 209 436 L 215 459 L 215 471 L 214 473 L 225 475 L 244 475 L 245 474 L 257 473 Q 269 470 279 464 L 289 455 L 286 463 L 280 470 Q 287 471 292 475 L 292 461 L 298 440 L 313 414 L 330 398 L 340 394 L 338 390 L 331 384 L 327 393 L 317 402 Q 309 407 306 417 Q 301 427 285 427 L 283 427 L 277 427 L 268 423 Q 258 418 255 407 L 256 393 Q 260 383 267 376 Q 276 366 288 361 L 294 347 L 295 351 L 294 358 L 301 359 L 278 372 Q 265 381 260 398 Q 259 408 264 412 Q 263 406 266 403 L 269 401 L 267 409 Q 266 415 269 418 Q 273 422 280 422 L 279 420 Q 277 409 283 406 L 284 407 L 282 413 L 284 421 L 287 422 L 297 419 Q 304 414 307 405 L 314 399 L 325 387 L 329 374 L 329 362 L 324 345 Q 318 333 310 325 L 297 328 L 287 328 L 289 326 L 295 325 L 320 316 L 339 304 Q 345 299 348 291 Q 346 285 350 286 L 352 290 L 356 291 L 359 287 L 359 279 L 354 268 L 361 270 L 364 269 L 364 266 L 361 260 Q 356 252 347 249 L 347 226 L 343 206 L 333 184 L 325 173 L 307 157 L 313 130 L 322 106 L 338 79 L 350 64 L 369 49 Q 376 43 387 41 L 392 42 L 395 47 L 395 59 L 387 82 Q 374 107 356 128 Q 341 145 323 158 L 320 161 L 327 167 L 329 167 L 354 147 Q 375 128 391 104 L 403 81 L 411 52 L 411 31 L 409 26 Q 404 17 390 19 Z M 131 46 L 128 47 L 124 61 L 126 83 L 134 108 Q 146 133 165 153 L 176 162 L 184 157 L 183 135 L 182 134 L 181 122 L 174 97 L 162 73 L 151 59 L 139 48 L 131 46 Z M 384 46 L 377 49 L 363 59 Q 323 92 312 155 L 317 158 L 334 144 Q 360 120 379 89 L 389 66 L 391 59 L 391 48 Q 390 45 384 46 Z M 116 386 L 112 388 L 107 396 L 107 406 L 103 406 L 99 413 Q 99 425 104 432 L 114 441 L 114 442 L 109 442 L 110 446 Q 117 455 132 455 L 125 434 L 125 412 L 130 393 Q 126 386 116 386 Z M 342 399 L 329 405 Q 315 416 307 432 L 298 454 L 297 466 L 296 467 L 297 476 L 299 481 Q 302 486 310 488 L 318 488 L 325 486 L 338 478 Q 351 467 360 453 L 367 439 L 370 428 L 370 416 L 367 408 Q 361 396 342 399 Z M 162 406 L 152 410 L 143 419 L 139 431 L 139 442 L 142 454 Q 147 467 156 477 Q 166 489 184 493 L 191 493 L 201 489 L 208 479 L 210 470 Q 209 436 193 419 Q 187 411 177 407 L 162 406 Z " /><path fill="rgb(0,0,0)" stroke="rgb(0,0,0)" stroke-width="0" opacity="1" d="M 199.5 185 Q 207.5 183.5 210 187.5 L 210 191 L 203.5 191 Q 195.3 192.8 190.5 198 L 189 194.5 L 195.5 187 L 199.5 185 Z " /><path fill="rgb(0,0,0)" stroke="rgb(0,0,0)" stroke-width="0" opacity="1" d="M 299.5 186 Q 309.6 185.9 313 192.5 L 315 197.5 L 312.5 199 L 306.5 194 L 295.5 193 L 294 191.5 Q 293.5 187.5 296.5 187 L 299.5 186 Z " /><path fill="rgb(0,0,0)" stroke="rgb(0,0,0)" stroke-width="0" opacity="1" d="M 201.5 212 Q 215 212.5 220 221.5 Q 227.1 229.9 225 247.5 Q 223.2 257.2 216.5 262 Q 212.8 265.3 204.5 264 L 203.5 263 L 186.5 263 L 183 264 Q 181.9 261.3 184.5 262 L 187 260.5 Q 177.5 254 179 236.5 Q 181.3 224.8 188.5 218 Q 193.3 213.3 201.5 212 Z M 200 217 L 192 221 Q 185 227 183 237 L 183 247 L 187 257 Q 189 261 195 260 L 191 254 L 189 246 Q 189 237 193 233 Q 196 228 203 226 Q 209 225 213 228 Q 221 233 220 249 L 221 249 Q 223 232 217 225 Q 213 216 200 217 Z M 208 232 L 205 233 L 204 236 Q 203 241 207 242 L 213 241 L 214 238 L 213 235 Q 212 231 208 232 Z M 220 249 L 219 252 L 220 252 L 220 249 Z " /><path fill="rgb(0,0,0)" stroke="rgb(0,0,0)" stroke-width="0" opacity="1" d="M 296.5 215 L 308.5 215 L 319 223.5 L 324 235.5 L 324 248.5 Q 321.7 257.7 315 262.5 L 317.5 266 L 313.5 265 L 290.5 265 L 284 259.5 Q 278.3 252.2 280 237.5 Q 282.3 224.3 291.5 218 L 296.5 215 Z M 300 219 L 295 221 L 286 232 L 287 234 L 295 228 Q 302 227 306 230 Q 311 234 313 242 L 313 251 L 308 261 L 306 262 L 312 262 Q 318 258 320 249 Q 322 234 316 227 Q 312 218 300 219 Z M 300 234 L 297 237 Q 296 243 301 244 L 305 243 Q 307 242 306 237 Q 305 233 300 234 Z " /><path fill="rgb(0,0,0)" stroke="rgb(0,0,0)" stroke-width="0" opacity="1" d="M 252.5 250 L 265.5 252 L 272 257.5 L 272 261.5 L 268 268 L 257 274.5 L 256 283.5 Q 259.4 289.6 270.5 288 L 280 281.5 L 281 277.5 L 280 274 Q 286.5 273.8 289 278.5 L 288.5 283 Q 286.3 277.8 284 281.5 L 277.5 289 L 269 293.5 L 263 309.5 L 256.5 316 Q 253.2 319.2 245.5 318 L 238 312.5 L 234 304.5 L 231 289 L 223 283.5 L 220.5 279 L 215 282 Q 214.9 277.1 218.5 275 L 225.5 273 L 227 276 L 224 277.5 L 230.5 285 L 238.5 288 L 243.5 288 L 252 283.5 L 253 274.5 Q 243.8 270.7 238 263.5 L 237 257.5 L 245.5 251 Q 251 252.5 252.5 250 Z M 251 254 L 246 255 L 241 259 L 242 263 L 253 270 Q 260 271 263 267 L 268 262 L 268 259 Q 263 253 251 254 Z M 252 288 Q 248 292 242 293 L 244 300 Q 246 303 251 302 L 252 299 L 252 288 Z M 255 288 L 253 302 L 259 301 Q 262 298 262 293 L 255 288 Z M 238 301 L 240 309 L 247 314 Q 256 315 258 310 L 257 306 L 248 306 L 241 301 L 238 301 Z " /><path fill="rgb(0,0,0)" stroke="rgb(0,0,0)" stroke-width="0" opacity="1" d="M 267.5 318 L 268 320.5 L 263.5 327 L 253.5 332 L 243.5 332 Q 236.1 329.9 232 324.5 Q 231.3 322.3 233.5 323 Q 239.4 330.1 254.5 328 Q 262.9 324.9 267.5 318 Z " /><path fill="rgb(0,0,0)" stroke="rgb(0,0,0)" stroke-width="0" opacity="1" d="M 350.5 415 Q 356 414 357 417.5 Q 357.1 427.6 350.5 431 L 345.5 432 Q 341.8 430.8 343 424.5 L 347 417 L 350.5 415 Z M 353 417 L 351 418 L 346 424 L 346 429 L 351 428 L 354 423 Q 355 418 353 417 Z " /><path fill="rgb(0,0,0)" stroke="rgb(0,0,0)" stroke-width="0" opacity="1" d="M 334.5 416 L 339 418.5 Q 340.2 427.2 335.5 430 L 330.5 432 L 328 431 L 327 424.5 L 332.5 417 L 334.5 416 Z M 335 419 L 333 420 L 330 424 L 330 429 L 333 429 Q 337 427 337 421 L 335 419 Z " /><path fill="rgb(0,0,0)" stroke="rgb(0,0,0)" stroke-width="0" opacity="1" d="M 166.5 420 L 174 425.5 L 175 435.5 Q 174 439 168.5 438 L 162 429.5 L 162 424.5 L 164.5 421 L 166.5 420 Z M 167 423 L 165 425 Q 164 431 167 434 L 170 435 Q 171 438 173 434 Q 173 427 170 425 L 167 423 Z " /><path fill="rgb(0,0,0)" stroke="rgb(0,0,0)" stroke-width="0" opacity="1" d="M 182.5 424 Q 189 423 190 427.5 L 191 435.5 L 190 438 L 184.5 439 Q 179.1 436.4 180 427.5 L 182.5 424 Z M 183 426 L 182 429 L 183 434 Q 184 437 188 436 L 187 428 L 183 426 Z " /><path fill="rgb(0,0,0)" stroke="rgb(0,0,0)" stroke-width="0" opacity="1" d="M 358.5 429 Q 364 428 365 431.5 Q 364.6 439.6 358.5 442 L 355.5 443 L 352 438.5 L 353 434.5 L 358.5 429 Z M 361 431 L 359 432 Q 354 434 355 440 L 359 439 L 362 435 Q 363 430 361 431 Z " /><path fill="rgb(0,0,0)" stroke="rgb(0,0,0)" stroke-width="0" opacity="1" d="M 152.5 433 Q 158.3 432.2 160 435.5 L 163 442.5 L 159.5 448 Q 153.2 447.4 151 442.5 L 150 437.5 L 152.5 433 Z M 155 435 L 153 437 Q 152 443 157 445 L 160 444 L 159 439 L 155 435 Z " /><path fill="rgb(0,0,0)" stroke="rgb(0,0,0)" stroke-width="0" opacity="1" d="M 333.5 440 Q 343.6 438.4 346 444.5 Q 348.5 448 347 455.5 Q 343.4 466.4 335.5 473 L 326.5 479 L 318.5 480 L 312 475.5 Q 309.5 472 311 464.5 Q 315.6 451.6 325.5 444 L 333.5 440 Z M 334 443 L 327 447 Q 318 454 314 466 L 315 475 L 319 477 Q 325 477 330 474 L 340 464 L 344 456 L 344 447 Q 342 441 334 443 Z " /><path fill="rgb(0,0,0)" stroke="rgb(0,0,0)" stroke-width="0" opacity="1" d="M 174.5 447 Q 188 447.6 193 456.5 L 198 466.5 L 199 476.5 Q 197.5 483 192.5 486 L 184.5 487 Q 175.4 484.5 171 477.5 L 166 467.5 L 165 459.5 L 168 451.5 L 170.5 449 L 174.5 447 Z M 175 450 L 173 451 L 169 456 L 168 461 L 169 468 L 173 476 Q 177 482 185 484 L 192 483 L 196 477 L 196 471 L 190 458 L 181 450 L 175 450 Z " /></svg>