<svg width="627" height="627" preserveAspectRatio="xMidYMid meet" viewBox="0 0 512 512" version="1.1" xmlns="http://www.w3.org/2000/svg" ><path fill="rgb(255,255,255)" stroke="rgb(255,255,255)" stroke-width="0" opacity="1" d="M 0 0 L 512 0 L 512 512 L 0 512 L 0 0 Z M 252 85 L 249 88 L 252 96 L 252 97 L 248 95 Q 235 93 230 99 Q 230 105 235 108 Q 217 112 206 122 Q 193 133 186 149 L 181 171 L 181 188 Q 174 193 172 203 L 165 206 Q 160 209 159 216 L 161 223 L 169 228 Q 176 230 180 227 L 183 233 L 194 243 L 195 243 L 192 251 Q 191 259 195 263 L 206 269 L 214 271 Q 208 282 198 289 L 188 303 L 183 314 L 179 331 L 180 348 L 179 347 L 178 348 L 163 348 L 162 349 L 142 350 L 141 351 L 134 351 L 111 355 L 86 362 L 73 369 Q 66 373 64 381 L 64 385 L 68 392 Q 76 399 88 404 L 109 411 Q 118 412 126 415 L 154 420 L 178 422 L 179 423 L 200 424 L 201 425 L 216 425 L 217 426 L 236 426 L 237 427 L 301 427 L 302 426 L 321 426 L 322 425 L 348 424 L 349 423 L 373 421 L 415 412 L 431 406 L 442 399 L 448 390 Q 449 383 446 380 Q 439 370 427 366 L 406 361 L 415 344 L 420 329 L 423 314 L 423 294 L 421 290 L 417 286 L 413 287 L 413 278 L 408 266 L 403 262 Q 392 264 387 272 L 376 276 L 365 275 L 342 269 L 326 268 L 325 267 L 306 268 L 286 273 L 284 274 Q 283 267 286 264 L 308 254 L 315 249 Q 330 237 338 217 L 342 204 L 344 193 L 344 184 L 345 183 L 344 167 L 341 154 L 337 144 L 329 132 Q 313 110 280 105 L 274 96 L 264 87 L 252 85 Z " /><path fill="rgb(255,255,255)" stroke="rgb(255,255,255)" stroke-width="0" opacity="1" d="M 255.5 90 Q 266.3 91.7 271 99.5 L 275 109 Q 308.4 112.9 325 134.5 Q 339.9 151.1 340 182.5 L 339 183.5 L 338 199.5 L 333 215.5 Q 325.3 234.3 310.5 246 Q 300.4 254.4 285.5 258 L 282 261.5 Q 277.9 265.9 279 275.5 L 284.5 283 L 289 284 Q 290.1 281.3 287.5 282 L 285 278.5 L 304.5 273 L 326.5 272 L 327.5 273 L 335.5 273 L 336.5 274 L 347.5 275 L 365.5 280 L 380.5 280 L 387.5 277 L 401.5 267 L 405 269.5 Q 410.2 277.8 408 293.5 L 406 299.5 L 409 300 Q 410.5 294.4 415.5 291 L 418 294.5 L 418 312.5 L 414 331.5 L 408 347.5 Q 400.9 362.5 389.5 373 Q 380.1 381.6 367.5 387 L 348.5 393 L 331.5 396 L 324.5 396 L 323.5 397 L 311.5 397 L 310.5 398 L 273.5 398 L 272.5 397 L 260.5 397 L 259.5 396 L 245.5 395 L 222.5 389 Q 207 383 197 371.5 Q 188.5 362.5 185 348.5 L 184 331.5 L 186 320.5 L 192 305.5 Q 200.8 290.3 214 279.5 L 219 270 Q 238.2 267 248 253.5 L 261.5 235 L 268 229.5 L 269 222.5 Q 267.6 216.4 262.5 214 L 250.5 212 L 242 204.5 L 232.5 193 Q 228.3 189.5 220 191 Q 222.1 186.2 221 176.5 L 217 167 L 212.5 164 L 206.5 163 Q 199.5 164.5 196 169.5 Q 190.5 176 191 188.5 L 194 196.5 L 193 199 L 202 202.5 Q 199.1 206.1 191.5 205 Q 187.5 202 179.5 203 L 177 201.5 Q 178.8 194.3 184.5 191 L 186 190.5 L 186 169.5 L 188 158.5 L 195 141.5 L 208.5 126 Q 223.1 112.6 249 110.5 L 241.5 107 L 236 101.5 L 236.5 100 L 247.5 100 L 261.5 107 L 261 105.5 L 255 91.5 L 255.5 90 Z M 210 140 L 203 143 L 199 149 Q 197 150 200 151 L 207 146 L 217 146 L 217 145 Q 215 140 210 140 Z M 278 144 L 272 149 L 274 150 Q 283 149 287 152 L 293 158 L 294 157 L 292 151 Q 288 144 278 144 Z M 272 168 L 266 171 Q 258 176 256 186 L 256 198 Q 258 205 263 209 L 262 211 L 274 208 L 282 208 L 283 209 L 287 209 L 284 207 Q 289 201 291 192 L 291 185 L 287 175 Q 283 167 272 168 Z M 374 295 L 359 301 L 348 301 L 333 297 L 320 297 L 319 298 Q 314 297 315 300 L 335 301 L 352 306 Q 365 306 374 300 Q 379 299 380 302 Q 381 311 377 316 Q 371 325 359 327 L 358 329 L 363 329 L 370 327 L 381 320 L 382 323 Q 382 330 378 335 Q 370 347 353 350 Q 347 348 348 352 Q 359 353 367 349 L 369 350 L 365 357 Q 356 365 344 369 L 336 371 L 327 371 L 326 372 L 305 370 L 285 360 Q 274 352 271 338 Q 270 318 279 309 L 282 305 L 278 307 Q 270 313 267 325 L 267 340 Q 269 349 274 356 Q 286 372 311 376 L 334 376 L 344 374 L 364 364 Q 371 359 374 351 L 373 346 L 377 343 Q 384 337 387 326 L 386 319 L 382 316 L 385 310 Q 387 302 384 299 Q 382 294 374 295 Z " /><path fill="rgb(255,255,255)" stroke="rgb(255,255,255)" stroke-width="0" opacity="1" d="M 206.5 167 L 214 169 L 218 178.5 L 213.5 175 Q 204.5 173.5 202 178.5 Q 198.1 182.6 199 191.5 L 204 199.5 L 202.5 199 Q 197.5 199.5 197 195.5 Q 193 190.5 195 179.5 L 201.5 169 L 206.5 167 Z " /><path fill="rgb(255,255,255)" stroke="rgb(255,255,255)" stroke-width="0" opacity="1" d="M 271.5 172 Q 280.2 170.8 283 175.5 Q 288.7 180.8 287 193.5 L 285.5 197 L 285 194.5 L 286 191.5 Q 284.9 184.1 279.5 181 L 272.5 180 L 267 183 L 263 191.5 L 263 198.5 L 267 206.5 L 265.5 206 L 263 204.5 L 260 199.5 L 259 188.5 Q 260.8 178.8 267.5 174 L 271.5 172 Z " /><path fill="rgb(255,255,255)" stroke="rgb(255,255,255)" stroke-width="0" opacity="1" d="M 209.5 179 Q 213.3 178.3 214 180.5 Q 214.8 185.3 211.5 186 L 208 183.5 Q 207.3 179.8 209.5 179 Z " /><path fill="rgb(255,255,255)" stroke="rgb(255,255,255)" stroke-width="0" opacity="1" d="M 275.5 184 L 279 186.5 Q 280 191 277.5 192 Q 272.8 192.8 272 189.5 L 273 185 L 275.5 184 Z " /><path fill="rgb(255,255,255)" stroke="rgb(255,255,255)" stroke-width="0" opacity="1" d="M 219.5 195 L 227.5 195 L 236 201.5 Q 239.3 209.7 246.5 214 L 251.5 216 L 260.5 217 L 265 221.5 Q 266.5 230.5 260.5 232 L 256 235.5 Q 248.8 247.8 238.5 257 L 222.5 265 L 209.5 265 L 201.5 262 L 198 258.5 L 197 250.5 L 205 236.5 L 205 234 L 210 236.5 L 203 248.5 L 203 252.5 L 205.5 256 Q 209.6 259.9 218.5 259 L 227.5 256 L 239 246.5 L 250.5 231 L 256.5 227 L 259 228 Q 259.8 224.2 256.5 223 L 251 222 Q 249.9 224.7 252.5 224 L 249.5 228 L 238.5 233 L 219.5 234 Q 201.3 229.7 188.5 220 Q 183.5 217 174.5 218 L 172 219 L 172.5 221 L 180.5 221 L 179.5 223 L 171.5 224 L 165 219.5 L 164 214.5 L 168.5 209 Q 173.9 205.4 184.5 207 Q 197.2 209.5 206 215 L 204.5 212 L 198 208.5 L 206.5 205 L 219.5 195 Z M 228 206 L 223 211 Q 222 215 227 213 L 229 210 Q 232 208 228 206 Z " /><path fill="rgb(255,255,255)" stroke="rgb(255,255,255)" stroke-width="0" opacity="1" d="M 186.5 224 L 202 232 L 199 240 Q 192.7 238.2 189 232.5 L 185 225.5 L 186.5 224 Z " /><path fill="rgb(255,255,255)" stroke="rgb(255,255,255)" stroke-width="0" opacity="1" d="M 240.5 236 L 242 236.5 L 228.5 251 L 217.5 255 L 212 251.5 Q 210.9 241.4 216.5 238 Q 223.5 236.5 223 239.5 L 221 244 Q 223.7 245.1 223 242.5 L 229.5 238 Q 236.9 238.9 240.5 236 Z " /><path fill="rgb(255,255,255)" stroke="rgb(255,255,255)" stroke-width="0" opacity="1" d="M 211.5 239 L 211 240.5 Q 207.7 244.2 209 252.5 L 209.5 254 L 206 251.5 L 206 248.5 L 211.5 239 Z " /><path fill="rgb(255,255,255)" stroke="rgb(255,255,255)" stroke-width="0" opacity="1" d="M 166.5 351 L 180.5 351 L 181 352.5 Q 185.8 368.2 196.5 378 L 213.5 390 L 234.5 397 L 257.5 401 L 267.5 401 L 268.5 402 L 314.5 402 L 315.5 401 L 326.5 401 L 327.5 400 L 345.5 398 L 369.5 391 Q 389.6 382.5 402 366.5 L 403.5 364 Q 418.5 365.5 429.5 371 Q 437.9 374.6 443 381.5 L 444 389.5 L 439.5 396 Q 428.3 404.8 412.5 409 L 375.5 417 L 352.5 419 L 351.5 420 L 342.5 420 L 341.5 421 L 328.5 421 L 327.5 422 L 261.5 424 L 260.5 423 L 207.5 422 L 206.5 421 L 194.5 421 L 193.5 420 L 174.5 419 L 173.5 418 L 144.5 415 Q 135.5 411.5 123.5 411 L 97.5 404 L 79.5 396 L 70 388.5 Q 67.2 385.8 68 379.5 L 75.5 371 Q 89.2 362.7 107.5 359 L 136.5 354 L 165.5 352 L 166.5 351 Z M 161 361 L 136 366 L 119 374 L 116 381 L 118 386 L 124 390 L 139 396 L 159 400 L 167 400 Q 168 402 169 400 L 141 394 L 125 387 L 120 383 L 120 379 Q 124 373 132 370 L 155 364 L 168 363 L 169 362 L 161 361 Z M 403 376 L 402 378 L 405 379 L 408 385 L 407 388 L 402 393 L 380 402 L 362 406 L 340 408 L 339 409 Q 332 407 333 411 L 351 410 L 352 409 L 375 406 L 392 401 L 406 394 L 411 387 L 410 382 L 403 376 Z M 188 384 L 186 386 L 188 392 L 194 396 L 206 401 L 234 407 L 253 408 L 254 409 L 274 409 L 274 407 L 247 406 L 246 405 L 231 404 L 216 401 L 198 395 L 189 389 Q 191 383 188 384 Z M 204 409 L 207 412 L 229 416 L 248 416 L 246 414 L 232 414 L 204 409 Z " /><path fill="rgb(0,0,0)" stroke="rgb(0,0,0)" stroke-width="0" opacity="1" d="M 251.5 85 L 263.5 87 L 274 95.5 L 279.5 105 Q 312.7 109.8 329 131.5 L 337 143.5 L 341 153.5 L 344 166.5 L 345 182.5 L 344 183.5 L 344 192.5 L 342 203.5 L 338 216.5 Q 330.1 236.6 314.5 249 L 307.5 254 L 286 263.5 Q 283 266.5 284 273.5 L 285.5 273 L 305.5 268 L 324.5 267 L 325.5 268 L 341.5 269 L 364.5 275 L 375.5 276 L 386.5 272 Q 392 264.5 402.5 262 L 408 265.5 L 413 277.5 L 413 287 L 416.5 286 L 421 289.5 L 423 293.5 L 423 313.5 L 420 328.5 L 415 343.5 L 406 360.5 L 426.5 366 Q 438.7 370.3 446 379.5 Q 449 382.5 448 389.5 L 441.5 399 L 430.5 406 L 414.5 412 L 372.5 421 L 348.5 423 L 347.5 424 L 321.5 425 L 320.5 426 L 301.5 426 L 300.5 427 L 236.5 427 L 235.5 426 L 216.5 426 L 215.5 425 L 200.5 425 L 199.5 424 L 178.5 423 L 177.5 422 L 153.5 420 L 125.5 415 Q 118.5 411.5 108.5 411 L 87.5 404 Q 76 399.5 68 391.5 L 64 384.5 L 64 380.5 Q 66.1 372.6 72.5 369 L 85.5 362 L 110.5 355 L 133.5 351 L 140.5 351 L 141.5 350 L 161.5 349 L 162.5 348 L 177.5 348 L 178.5 347 L 180 347.5 L 179 330.5 L 183 313.5 L 188 302.5 L 198 288.5 Q 208.1 281.6 214 270.5 L 205.5 269 L 195 262.5 Q 191 259 192 250.5 L 195 243 L 193.5 243 L 183 232.5 L 179.5 227 Q 176 229.5 168.5 228 L 161 222.5 L 159 215.5 Q 159.9 208.9 164.5 206 L 172 203 Q 173.6 192.8 181 187.5 L 181 170.5 L 186 148.5 Q 193.1 132.6 205.5 122 Q 217 111.5 235 107.5 Q 230.2 105.3 230 98.5 Q 235.1 93.1 247.5 95 L 251.5 97 L 252 95.5 L 249 87.5 L 251.5 85 Z M 256 90 L 255 92 L 261 106 L 262 107 L 248 100 L 237 100 L 236 102 L 242 107 L 249 111 Q 223 113 209 126 L 195 142 L 188 159 L 186 170 L 186 191 L 185 191 Q 179 194 177 202 L 180 203 Q 188 202 192 205 Q 199 206 202 203 L 193 199 L 194 197 L 191 189 Q 191 176 196 170 Q 200 165 207 163 L 213 164 L 217 167 L 221 177 Q 222 186 220 191 Q 228 190 233 193 L 242 205 L 251 212 L 263 214 Q 268 216 269 223 L 268 230 L 262 235 L 248 254 Q 238 267 219 270 L 214 280 Q 201 290 192 306 L 186 321 L 184 332 L 185 349 Q 188 362 197 372 Q 207 383 223 389 L 246 395 L 260 396 L 261 397 L 273 397 L 274 398 L 311 398 L 312 397 L 324 397 L 325 396 L 332 396 L 349 393 L 368 387 Q 380 382 390 373 Q 401 362 408 348 L 414 332 L 418 313 L 418 295 L 416 291 Q 411 294 409 300 L 406 300 L 408 294 Q 410 278 405 270 L 402 267 L 388 277 L 381 280 L 366 280 L 348 275 L 337 274 L 336 273 L 328 273 L 327 272 L 305 273 L 285 279 L 288 282 Q 290 281 289 284 L 285 283 L 279 276 Q 278 266 282 262 L 286 258 Q 300 254 311 246 Q 325 234 333 216 L 338 200 L 339 184 L 340 183 Q 340 151 325 135 Q 308 113 275 109 L 271 100 Q 266 92 256 90 Z M 207 167 L 202 169 L 195 180 Q 192 195 201 199 L 203 199 L 199 192 Q 198 183 202 179 Q 204 173 214 175 L 217 178 L 217 175 L 214 169 L 207 167 Z M 210 179 Q 207 180 208 184 L 212 186 Q 215 185 214 181 Q 213 178 210 179 Z M 220 195 L 207 205 L 198 209 L 205 212 L 206 215 Q 197 210 185 207 Q 174 205 169 209 L 164 215 L 165 220 L 172 224 L 180 223 L 181 221 L 173 221 L 172 219 L 175 218 Q 184 217 189 220 Q 201 230 220 234 L 239 233 L 250 228 L 253 224 Q 250 225 251 222 L 257 223 Q 260 224 259 228 L 257 227 L 251 231 L 239 247 L 228 256 L 219 259 Q 210 260 206 256 L 203 253 L 203 249 L 210 237 L 205 234 L 205 237 L 197 251 L 198 259 L 202 262 L 210 265 L 223 265 L 239 257 Q 249 248 256 236 L 261 232 Q 267 231 265 222 L 261 217 L 252 216 L 247 214 Q 239 210 236 202 L 228 195 L 220 195 Z M 187 224 L 185 226 L 189 233 Q 193 238 199 240 L 202 232 L 187 224 Z M 241 236 Q 237 239 230 238 L 223 243 Q 224 245 221 244 L 223 240 Q 224 237 217 238 Q 211 241 212 252 L 218 255 L 229 251 L 242 237 L 241 236 Z M 209 244 L 206 249 Q 205 253 209 254 L 210 254 L 209 253 L 209 244 Z M 167 351 L 166 352 L 137 354 L 108 359 Q 89 363 76 371 L 68 380 Q 67 386 70 389 L 80 396 L 98 404 L 124 411 Q 136 411 145 415 L 174 418 L 175 419 L 194 420 L 195 421 L 207 421 L 208 422 L 261 423 L 262 424 L 328 422 L 329 421 L 342 421 L 343 420 L 352 420 L 353 419 L 376 417 L 413 409 Q 428 405 440 396 L 444 390 L 443 382 Q 438 375 430 371 Q 418 366 404 364 L 402 367 Q 390 383 370 391 L 346 398 L 328 400 L 327 401 L 316 401 L 315 402 L 269 402 L 268 401 L 258 401 L 235 397 L 214 390 L 197 378 Q 186 368 181 353 L 181 351 L 167 351 Z " /><path fill="rgb(0,0,0)" stroke="rgb(0,0,0)" stroke-width="0" opacity="1" d="M 209.5 140 Q 215.1 140.5 217 144.5 L 216.5 146 L 206.5 146 L 199.5 151 Q 196.8 149.8 199 148.5 L 202.5 143 L 209.5 140 Z " /><path fill="rgb(0,0,0)" stroke="rgb(0,0,0)" stroke-width="0" opacity="1" d="M 277.5 144 Q 288.4 143.6 292 150.5 L 294 156.5 L 292.5 158 L 286.5 152 Q 282.5 148.5 273.5 150 L 272 148.5 L 277.5 144 Z " /><path fill="rgb(0,0,0)" stroke="rgb(0,0,0)" stroke-width="0" opacity="1" d="M 271.5 168 Q 283.2 167.3 287 174.5 L 291 184.5 L 291 191.5 Q 289.1 201.2 284 207 L 287 208.5 L 282.5 209 L 281.5 208 L 273.5 208 L 262 211 L 263 208.5 Q 258 204.5 256 197.5 L 256 185.5 Q 258.4 175.9 265.5 171 L 271.5 168 Z M 272 172 L 268 174 Q 261 179 259 189 L 260 200 L 263 205 L 266 206 L 267 207 L 263 199 L 263 192 L 267 183 L 273 180 L 280 181 Q 286 184 286 194 L 287 194 Q 289 181 283 176 Q 280 171 272 172 Z M 276 184 L 273 185 L 272 190 Q 273 193 278 192 Q 280 191 279 187 L 276 184 Z M 286 194 L 285 197 L 286 197 L 286 194 Z " /><path fill="rgb(0,0,0)" stroke="rgb(0,0,0)" stroke-width="0" opacity="1" d="M 227.5 206 Q 231.7 207.8 229 209.5 L 226.5 213 Q 221.7 214.7 223 210.5 L 227.5 206 Z " /><path fill="rgb(0,0,0)" stroke="rgb(0,0,0)" stroke-width="0" opacity="1" d="M 373.5 295 Q 381.8 293.7 384 298.5 Q 386.5 302 385 309.5 L 382 315.5 L 386 318.5 L 387 325.5 Q 384.3 336.8 376.5 343 L 373 345.5 L 374 350.5 Q 370.8 359.3 363.5 364 L 343.5 374 L 333.5 376 L 310.5 376 Q 286.4 371.6 274 355.5 Q 268.9 349.1 267 339.5 L 267 324.5 Q 269.8 313.3 277.5 307 L 281.5 305 L 279 308.5 Q 269.6 317.6 271 337.5 Q 274.4 352.1 284.5 360 L 304.5 370 L 325.5 372 L 326.5 371 L 335.5 371 L 343.5 369 Q 356.2 364.7 365 356.5 L 369 349.5 L 366.5 349 Q 359.4 353.3 348 352 Q 346.6 348.3 352.5 350 Q 369.5 346.5 378 334.5 Q 381.5 330 382 322.5 L 381 320 L 369.5 327 L 362.5 329 L 357.5 329 L 358.5 327 Q 371.3 324.8 377 315.5 Q 381.3 311.3 380 301.5 Q 378.8 298.8 373.5 300 Q 365.4 305.9 351.5 306 L 334.5 301 L 315 300 Q 313.7 296.7 318.5 298 L 319.5 297 L 332.5 297 L 347.5 301 L 358.5 301 L 373.5 295 Z " /><path fill="rgb(0,0,0)" stroke="rgb(0,0,0)" stroke-width="0" opacity="1" d="M 160.5 361 L 169 361.5 L 167.5 363 L 154.5 364 L 131.5 370 Q 124.1 372.6 120 378.5 L 120 382.5 L 124.5 387 L 140.5 394 L 169 399.5 Q 167.8 402.3 166.5 400 L 158.5 400 L 138.5 396 L 123.5 390 L 118 385.5 L 116 380.5 L 119 374 L 135.5 366 L 160.5 361 Z " /><path fill="rgb(0,0,0)" stroke="rgb(0,0,0)" stroke-width="0" opacity="1" d="M 402.5 376 L 410 381.5 L 411 386.5 L 405.5 394 L 391.5 401 L 374.5 406 L 351.5 409 L 350.5 410 L 333 411 Q 331.6 407 338.5 409 L 339.5 408 L 361.5 406 L 379.5 402 L 401.5 393 L 407 387.5 L 408 384.5 L 404.5 379 L 402 377.5 L 402.5 376 Z " /><path fill="rgb(0,0,0)" stroke="rgb(0,0,0)" stroke-width="0" opacity="1" d="M 187.5 384 Q 190.9 383.1 189 388.5 L 197.5 395 L 215.5 401 L 230.5 404 L 245.5 405 L 246.5 406 L 274 407 L 273.5 409 L 253.5 409 L 252.5 408 L 233.5 407 L 205.5 401 L 193.5 396 L 188 391.5 L 186 385.5 L 187.5 384 Z " /><path fill="rgb(0,0,0)" stroke="rgb(0,0,0)" stroke-width="0" opacity="1" d="M 203.5 409 L 231.5 414 L 245.5 414 L 248 415.5 L 228.5 416 L 206.5 412 L 203.5 409 Z " /></svg>