<svg width="627" height="627" preserveAspectRatio="xMidYMid meet" viewBox="0 0 512 512" version="1.1" xmlns="http://www.w3.org/2000/svg" ><path fill="rgb(255,255,255)" stroke="rgb(255,255,255)" stroke-width="0.6" opacity="1" d="M 0 0 L 512 0 L 512 512 L 0 512 L 0 0 Z M 209 145 L 188 155 L 184 161 L 185 169 Q 188 175 199 173 L 222 207 Q 226 208 223 210 L 156 201 L 144 197 L 130 196 L 107 190 L 78 178 L 56 159 L 48 160 L 39 171 L 37 179 L 36 206 L 35 207 Q 33 254 54 279 Q 65 292 80 301 L 111 316 L 141 326 Q 177 336 217 343 L 227 343 L 250 348 L 269 349 L 273 351 L 304 352 L 305 355 Q 310 362 320 365 L 336 364 L 354 352 L 396 350 L 427 343 Q 442 338 454 328 L 466 314 L 471 303 L 475 287 L 475 249 Q 473 237 468 229 L 460 224 L 451 226 Q 444 230 442 240 L 439 242 L 412 242 L 380 235 L 370 235 Q 366 232 359 233 L 352 230 L 342 230 L 335 227 L 300 223 L 293 220 L 281 220 L 265 216 L 255 216 L 215 165 L 219 158 L 218 150 Q 216 145 209 145 Z " /><path fill="rgb(152,96,55)" stroke="rgb(152,96,55)" stroke-width="0.6" opacity="1" d="M 42 202 Q 45.3 200.7 44 205.5 L 48 217.5 L 62.5 235 L 86.5 253 L 112.5 266 L 131.5 272 L 133.5 274 L 180.5 287 L 198.5 289 L 206.5 292 L 216.5 292 L 233.5 296 L 244.5 296 L 248.5 298 L 256.5 297 L 257.5 298 L 270.5 298 L 274 301.5 L 279 318.5 L 299 347 L 234.5 340 L 219.5 336 Q 202.9 336.1 191.5 331 L 184.5 331 L 147.5 322 Q 113.6 312.9 85.5 298 L 61 278.5 Q 40.6 256.4 41 213.5 L 42 202 Z " /><path fill="rgb(152,96,55)" stroke="rgb(152,96,55)" stroke-width="0.6" opacity="1" d="M 260 222 L 267.5 222 L 301.5 229 L 310.5 229 L 314.5 231 L 328.5 232 L 332.5 234 Q 346.2 233.8 355.5 238 L 369.5 239 L 400.5 246 L 437 249 L 432.5 255 L 419.5 255 L 412.5 253 L 395.5 252 L 344.5 241 L 323.5 239 L 319.5 237 L 311.5 237 L 285.5 231 L 262.5 229 L 261 227.5 L 260 222 Z " /><path fill="rgb(152,96,55)" stroke="rgb(152,96,55)" stroke-width="0.6" opacity="1" d="M 200 224 L 235.5 228 L 241 230.5 L 265 264.5 L 267 271.5 L 256.5 278 L 246.5 278 L 198.5 271 L 156 260.5 L 157 258 L 193.5 240 L 199 234.5 L 200 224 Z " /><path fill="rgb(152,96,55)" stroke="rgb(152,96,55)" stroke-width="0.6" opacity="1" d="M 193.5 227 Q 197.7 225.7 196 230.5 L 192.5 235 L 147.5 258 L 142 256.5 L 148.5 251 L 193.5 227 Z " /><path fill="rgb(152,96,55)" stroke="rgb(152,96,55)" stroke-width="0.6" opacity="1" d="M 327.5 286 L 336 293.5 L 334.5 293 L 327.5 286 Z " /><path fill="rgb(0,0,0)" stroke="rgb(0,0,0)" stroke-width="0.6" opacity="1" d="M 207.5 146 Q 216.1 144.9 218 150.5 Q 219.5 158.5 215.5 161 Q 212.5 160.1 214 164.5 L 253.5 216 L 260.5 216 L 282.5 221 L 293.5 221 L 300.5 224 L 335.5 228 L 342.5 231 L 352.5 231 L 356.5 233 L 363.5 233 L 367.5 235 L 374.5 235 L 407.5 242 L 438.5 243 L 443 239.5 Q 444.2 231.7 449.5 228 Q 452.4 223.9 460.5 225 L 469 231.5 L 475 252.5 L 475 283.5 L 470 303.5 Q 464.6 317.1 454.5 326 Q 443 336 427.5 342 L 396.5 349 L 381.5 349 L 377.5 351 L 351.5 352 L 333.5 364 L 319.5 364 L 307 355.5 L 304.5 352 L 271.5 350 L 248.5 347 L 231.5 343 L 220.5 343 L 174.5 334 L 139.5 325 L 112.5 316 L 79.5 300 L 56 279.5 Q 44.2 265.8 39 245.5 L 36 229.5 L 36 193.5 L 38 189.5 Q 36.7 177.7 40 170.5 L 47.5 161 L 56.5 160 L 64 166.5 L 68.5 172 L 83.5 182 L 110.5 192 L 130.5 197 L 144.5 198 L 156.5 202 L 225 211 L 225 208.5 L 199.5 172 Q 189 174 186 168.5 L 185 159.5 L 190.5 154 L 207.5 146 Z M 210 150 L 194 158 L 189 164 L 192 168 L 198 168 L 208 160 L 212 160 Q 214 158 213 153 L 210 150 Z M 207 164 L 202 168 L 215 190 L 271 266 L 274 274 L 274 287 L 279 307 L 286 321 L 306 349 Q 311 356 321 360 L 335 359 L 349 350 L 355 341 L 353 329 L 331 298 L 310 276 L 280 259 L 211 166 L 207 164 Z M 51 165 L 48 166 L 44 175 Q 42 207 56 224 Q 67 238 84 247 Q 107 260 134 270 L 156 277 L 201 287 L 222 289 L 225 291 L 259 294 L 271 294 L 272 293 L 271 286 L 270 284 L 260 284 L 257 282 L 242 282 L 224 278 L 214 278 L 149 263 Q 107 251 77 228 L 61 211 Q 57 206 59 197 L 66 191 L 79 191 L 109 203 L 138 210 L 179 217 L 196 218 L 199 220 L 217 221 L 227 224 Q 234 226 236 223 L 233 219 L 231 216 L 155 206 L 113 197 L 82 186 L 72 180 L 61 169 Q 58 164 51 165 Z M 66 195 L 62 200 L 63 208 L 71 219 Q 87 235 110 244 L 113 244 L 161 220 L 162 217 L 146 215 L 111 207 L 80 195 L 66 195 Z M 41 199 L 41 232 L 43 244 Q 48 262 58 276 Q 69 289 85 298 L 118 313 L 146 322 L 183 331 L 191 331 L 198 334 L 223 337 L 231 340 L 264 343 L 267 345 L 281 345 L 299 347 L 299 345 L 280 319 L 274 300 L 267 297 L 246 297 L 219 292 L 209 292 L 202 289 L 183 287 L 148 278 L 112 265 Q 87 255 69 240 Q 56 230 48 217 L 43 201 L 41 199 Z M 170 219 L 119 245 L 117 248 L 134 254 L 138 254 L 192 226 L 193 223 L 170 219 Z M 261 222 L 259 224 L 260 228 L 262 229 L 288 232 L 309 237 L 318 237 L 326 240 L 336 240 L 347 242 L 399 253 L 434 255 L 437 250 L 436 248 L 419 248 Q 414 244 404 246 L 373 239 L 352 237 L 344 234 L 335 234 L 327 231 L 317 231 L 313 229 L 305 229 L 270 222 L 261 222 Z M 201 223 L 199 225 L 199 235 L 193 240 L 157 258 L 155 261 L 196 271 L 246 278 L 258 278 L 268 272 L 268 269 L 243 233 L 239 228 L 201 223 Z M 195 226 L 143 254 L 141 257 L 145 258 L 150 258 L 194 235 L 196 232 L 195 226 Z M 455 230 L 449 236 L 441 253 Q 428 268 407 274 L 368 282 L 352 282 L 348 284 L 329 284 L 326 287 L 334 294 L 371 292 L 403 286 L 423 279 L 441 268 L 450 257 L 455 245 L 456 236 L 459 232 Q 460 228 455 230 Z M 463 233 Q 456 239 456 252 L 448 265 L 434 277 L 408 288 L 367 296 L 348 296 L 337 300 L 354 323 L 359 335 L 358 345 L 359 347 L 376 345 L 393 345 L 416 341 Q 433 336 447 327 L 461 312 L 468 296 L 470 286 L 470 252 L 465 235 L 463 233 Z M 270 234 L 268 236 L 269 240 L 281 256 L 289 261 L 297 259 L 328 245 L 326 242 L 317 242 L 302 238 L 293 238 L 278 234 L 270 234 Z M 335 245 L 299 262 L 297 265 L 311 273 L 315 273 L 316 273 L 315 275 L 318 278 L 328 276 L 358 261 Q 362 259 361 253 L 358 253 L 326 269 L 323 269 L 356 252 L 357 249 L 335 245 Z M 367 250 L 365 252 L 364 260 L 361 263 L 331 277 L 329 280 L 352 280 L 356 278 L 388 275 L 410 269 L 424 262 L 425 259 L 402 257 L 367 250 Z " /><path fill="rgb(0,0,0)" stroke="rgb(0,0,0)" stroke-width="0.6" opacity="1" d="M 290.5 283 L 329 333.5 L 332 340 L 327 336.5 L 293 289.5 L 290.5 283 Z " /><path fill="rgb(57,130,185)" stroke="rgb(57,130,185)" stroke-width="0.6" opacity="1" d="M 66.5 195 L 77.5 195 L 108.5 207 L 142.5 215 L 160 217 Q 161.5 220.8 158.5 220 L 110.5 244 Q 86 234.5 70 216.5 L 64 208.5 L 62 200.5 L 66.5 195 Z " /><path fill="rgb(57,130,185)" stroke="rgb(57,130,185)" stroke-width="0.6" opacity="1" d="M 170.5 219 L 190.5 223 L 192 224.5 L 135.5 254 L 118 248 L 119.5 245 L 170.5 219 Z " /><path fill="rgb(57,130,185)" stroke="rgb(57,130,185)" stroke-width="0.6" opacity="1" d="M 462.5 234 L 464 235.5 L 467 240.5 L 470 254.5 L 470 282.5 L 467 296.5 L 461 310.5 L 445.5 327 Q 431.3 336.3 412.5 341 L 396.5 344 L 359 346 L 360 335.5 L 354 321.5 L 338 299.5 L 343.5 297 L 369.5 296 L 409.5 288 L 434.5 277 L 450 262.5 L 456 252.5 Q 456.7 240.7 462.5 234 Z " /><path fill="rgb(57,130,185)" stroke="rgb(57,130,185)" stroke-width="0.6" opacity="1" d="M 358.5 253 L 361 254.5 L 356.5 261 L 330.5 274 L 318.5 278 L 316 273 L 358.5 253 Z " /><path fill="rgb(225,68,59)" stroke="rgb(225,68,59)" stroke-width="0.6" opacity="1" d="M 208.5 151 L 212 152.5 Q 213.3 157.8 210.5 159 L 207.5 159 L 197.5 167 L 191 167 L 190 162.5 Q 197.2 154.7 208.5 151 Z " /><path fill="rgb(225,68,59)" stroke="rgb(225,68,59)" stroke-width="0.6" opacity="1" d="M 206.5 165 L 212 168.5 L 280.5 261 L 309.5 277 L 331 298.5 L 352 328.5 Q 354.9 333.1 354 341.5 L 348.5 349 L 332.5 359 L 322.5 360 Q 312.5 356.5 307 348.5 L 287 320.5 L 280 306.5 L 275 287.5 Q 276.4 273.6 272 265.5 L 221 196.5 L 203 168.5 L 206.5 165 Z M 289 277 L 287 279 L 292 290 L 327 338 Q 329 343 334 342 L 330 334 L 289 277 Z " /><path fill="rgb(225,68,59)" stroke="rgb(225,68,59)" stroke-width="0.6" opacity="1" d="M 456.5 230 Q 459.8 231.8 456 233.5 Q 453 259.5 435.5 271 Q 421.4 279.9 403.5 285 L 372.5 291 L 335.5 293 L 328 286.5 L 329.5 285 L 330.5 284 L 366.5 283 L 409.5 274 Q 430.1 267.6 442 252.5 L 450 235.5 L 454.5 231 L 456.5 230 Z " /><path fill="rgb(225,68,59)" stroke="rgb(225,68,59)" stroke-width="0.6" opacity="1" d="M 269.5 234 L 288.5 238 L 297.5 238 L 317.5 243 L 326 243 L 324.5 245 L 294.5 259 L 288.5 260 L 281 254.5 L 268 235.5 L 269.5 234 Z " /><path fill="rgb(242,224,173)" stroke="rgb(242,224,173)" stroke-width="0.6" opacity="1" d="M 49.5 166 Q 57.1 164.9 60 168.5 L 71.5 181 L 81.5 187 L 108.5 197 L 149.5 206 L 224.5 216 L 232 218.5 L 235 222.5 L 230.5 224 L 214.5 220 L 197.5 219 L 194.5 217 L 176.5 216 L 137.5 209 L 108.5 202 L 80.5 191 L 66.5 190 L 59 195.5 L 58 206.5 Q 65.1 220.9 77.5 230 Q 106.7 251.3 145.5 263 L 174.5 271 L 209.5 278 L 218.5 278 L 243.5 283 L 268.5 284 L 270 285.5 L 271 292.5 L 269.5 294 L 259.5 294 L 194.5 285 L 155.5 276 L 130.5 268 Q 105.2 258.8 83.5 246 Q 68.8 237.2 58 224.5 Q 50.3 215.7 47 202.5 L 44 176.5 L 49.5 166 Z " /><path fill="rgb(242,224,173)" stroke="rgb(242,224,173)" stroke-width="0.6" opacity="1" d="M 334.5 246 L 340.5 246 L 355 250.5 L 313.5 272 L 310.5 272 L 298 264.5 L 334.5 246 Z " /><path fill="rgb(242,224,173)" stroke="rgb(242,224,173)" stroke-width="0.6" opacity="1" d="M 366 251 L 396.5 257 L 422 260 L 420.5 262 L 409.5 268 L 388.5 274 L 373.5 275 L 370.5 277 L 353.5 279 L 331.5 279 L 332.5 277 L 364 261.5 L 366 251 Z " /><path fill="rgb(35,35,35)" stroke="rgb(35,35,35)" stroke-width="0.6" opacity="1" d="M 322.5 268 L 323.5 270 L 316 273 L 316.5 271 L 318 271.5 L 318.5 270 L 320 270.5 L 320.5 269 L 322 269.5 L 322.5 268 Z " /><path fill="rgb(192,190,174)" stroke="rgb(192,190,174)" stroke-width="0.6" opacity="1" d="M 331.5 277 L 331.5 279 L 337 279.5 L 329 280 L 330.5 278 L 331.5 277 Z " /><path fill="rgb(117,81,55)" stroke="rgb(117,81,55)" stroke-width="0.6" opacity="1" d="M 57.5 229 L 62.5 235 L 57.5 229 Z " /><path fill="rgb(117,81,55)" stroke="rgb(117,81,55)" stroke-width="0.6" opacity="1" d="M 440.5 253 L 435.5 259 L 440.5 253 Z " /><path fill="rgb(117,81,55)" stroke="rgb(117,81,55)" stroke-width="0.6" opacity="1" d="M 310.5 277 L 329.5 297 L 310.5 277 Z " /><path fill="rgb(117,81,55)" stroke="rgb(117,81,55)" stroke-width="0.6" opacity="1" d="M 327.5 287 L 335 293.5 L 333.5 294 L 327.5 287 Z " /><path fill="rgb(192,67,58)" stroke="rgb(192,67,58)" stroke-width="0.6" opacity="1" d="M 444.5 262 L 438.5 269 L 444.5 262 Z " /></svg>