<svg width="627" height="627" preserveAspectRatio="xMidYMid meet" viewBox="0 0 512 512" version="1.1" xmlns="http://www.w3.org/2000/svg" ><path fill="rgb(255,255,255)" stroke="rgb(255,255,255)" stroke-width="0.6" opacity="1" d="M 0 0 L 512 0 L 512 512 L 0 512 L 0 0 Z M 243 63 L 241 64 L 233 74 L 236 82 L 236 93 Q 174 152 129 228 Q 103 271 92 329 L 92 339 L 94 340 L 102 340 L 121 333 L 155 328 L 198 329 L 235 336 Q 238 338 236 346 Q 229 349 219 349 L 208 358 L 163 356 L 157 354 L 128 352 L 111 348 L 100 348 L 96 346 L 87 345 L 73 345 L 68 350 L 68 362 L 76 387 Q 85 408 99 424 Q 110 437 131 440 L 155 442 L 159 444 L 176 444 L 181 446 L 205 446 L 229 448 L 324 447 L 327 445 L 345 445 L 348 443 L 383 440 L 414 434 L 424 430 Q 434 422 437 407 L 443 384 L 444 368 L 436 361 L 402 354 L 332 357 L 328 352 Q 325 346 318 345 L 259 345 L 257 346 L 255 345 L 254 334 L 256 332 L 296 332 L 297 331 L 415 330 L 419 324 L 418 317 Q 417 312 411 313 L 396 271 L 378 235 Q 353 192 321 158 Q 298 132 270 111 Q 267 112 268 108 L 276 108 Q 286 100 302 98 Q 306 97 305 91 L 294 82 L 279 82 L 264 76 L 257 76 L 254 68 Q 251 62 243 63 Z " /><path fill="rgb(152,96,55)" stroke="rgb(152,96,55)" stroke-width="0.6" opacity="1" d="M 242.5 83 L 249 83.5 L 249 370.5 L 245.5 372 L 241 369.5 L 241 84.5 L 242.5 83 Z " /><path fill="rgb(152,96,55)" stroke="rgb(152,96,55)" stroke-width="0.6" opacity="1" d="M 256.5 109 Q 284.2 127.8 307 151.5 Q 338.6 182.9 363 221.5 L 393 279.5 L 403 311.5 L 401.5 313 L 370.5 313 L 369.5 314 L 316.5 314 L 315.5 315 L 255.5 316 L 254 314.5 L 254 294.5 L 255 286.5 L 254 285.5 L 254 208.5 L 255 207.5 L 255 110.5 L 256.5 109 Z " /><path fill="rgb(152,96,55)" stroke="rgb(152,96,55)" stroke-width="0.6" opacity="1" d="M 259.5 351 L 319.5 351 L 323 354.5 Q 327.2 360.8 327 371.5 L 321.5 373 L 320 371.5 L 319 362.5 L 314.5 358 L 287.5 358 L 281 363.5 L 280 371.5 L 278.5 373 L 257.5 373 L 254 370.5 L 254 353.5 L 255.5 352 L 259.5 351 Z " /><path fill="rgb(152,96,55)" stroke="rgb(152,96,55)" stroke-width="0.6" opacity="1" d="M 292.5 362 L 312.5 362 L 315 364.5 L 316 371.5 L 314.5 373 L 285.5 373 Q 282.8 371.8 284 366.5 L 287.5 363 L 292.5 362 Z " /><path fill="rgb(57,130,185)" stroke="rgb(57,130,185)" stroke-width="0.6" opacity="1" d="M 255.5 81 Q 267.5 81.5 274.5 87 L 292.5 88 L 297 91 L 295.5 93 L 271.5 103 L 255.5 103 L 254 101.5 L 254 82.5 L 255.5 81 Z " /><path fill="rgb(57,130,185)" stroke="rgb(57,130,185)" stroke-width="0.6" opacity="1" d="M 232.5 106 L 234 107.5 L 227 128.5 L 221 159.5 L 218 191.5 L 218 244.5 L 224 293.5 L 233 330 L 216.5 326 L 199.5 325 L 191.5 323 L 150.5 323 L 142.5 325 L 126.5 326 L 99 333 L 101 314.5 L 110 283.5 Q 121.6 251.6 138 224.5 Q 178.1 158.1 232.5 106 Z " /><path fill="rgb(57,130,185)" stroke="rgb(57,130,185)" stroke-width="0.6" opacity="1" d="M 76.5 350 L 92.5 351 L 101.5 354 L 111.5 354 L 116.5 356 L 132.5 357 L 140.5 359 L 161.5 360 L 168.5 362 L 181.5 362 L 182.5 363 L 197.5 363 L 204 365 L 205.5 370 L 212.5 373 L 254.5 377 L 341.5 377 L 385.5 373 L 401.5 373 L 409.5 371 L 426.5 370 L 436.5 367 L 438 369.5 L 436.5 371 L 423.5 372 L 420.5 371 L 420.5 372 L 422 372.5 L 409.5 375 L 385.5 376 L 363.5 379 L 334.5 379 L 312.5 381 L 271.5 381 L 254.5 379 L 227.5 379 L 219.5 377 L 204.5 377 L 186.5 374 L 175.5 374 L 164.5 371 L 153.5 371 L 106.5 362 L 81.5 355 L 75 351.5 L 76.5 350 Z " /><path fill="rgb(57,130,185)" stroke="rgb(57,130,185)" stroke-width="0.6" opacity="1" d="M 397.5 360 L 423 364 L 422.5 366 L 414.5 366 Q 405.9 369.1 394 368 Q 393.6 362.3 397.5 360 Z " /><path fill="rgb(0,0,0)" stroke="rgb(0,0,0)" stroke-width="0.6" opacity="1" d="M 241.5 64 Q 251.2 62.9 254 68.5 Q 252.5 75.5 256.5 77 L 264.5 77 L 280.5 83 L 293.5 83 L 304 90.5 Q 305 96 301.5 97 Q 285.8 98.8 276.5 107 L 266 108 L 268.5 112 Q 295.2 130.8 317 154.5 Q 351.3 190.2 377 234.5 L 396 272.5 L 408 310.5 L 410.5 313 L 418 318.5 Q 419.3 325.8 415.5 328 L 412.5 330 L 294.5 331 L 293.5 332 L 255.5 332 L 254 333.5 L 254 345.5 L 255.5 347 L 256.5 346 L 307.5 346 L 313.5 345 L 321.5 347 L 328 353.5 L 330.5 358 L 379.5 356 L 380.5 355 L 402.5 355 L 435.5 362 L 443 367.5 L 443 378.5 L 441 389.5 L 434 413.5 L 423.5 429 L 414.5 433 L 399.5 436 L 383.5 439 L 357.5 441 L 353.5 443 L 344.5 444 Q 330.7 441.7 323.5 446 L 293.5 446 L 286.5 448 L 230.5 448 L 229.5 447 L 207.5 447 L 203.5 445 L 178.5 445 L 175.5 443 L 157.5 443 L 149.5 442 L 146.5 440 L 129.5 439 Q 106.5 435.1 96 418.5 Q 84.2 403.3 76 384.5 L 69 362.5 L 69 349.5 Q 71.7 342.2 84.5 345 L 122.5 352 L 152.5 354 L 158.5 356 L 171.5 356 L 175.5 358 L 207.5 359 L 218.5 350 Q 229.3 350.3 236 346.5 Q 238.3 338.3 234.5 336 L 202.5 329 L 152.5 328 L 121.5 332 L 99.5 340 L 94.5 340 L 92 333.5 L 96 311.5 L 105 281.5 Q 115.6 252.6 130 227.5 Q 174.4 152.4 236 94.5 L 236 79.5 L 234 73.5 L 241.5 64 Z M 242 69 Q 238 71 240 78 Q 241 81 248 80 L 251 76 L 250 73 Q 248 68 242 69 Z M 256 81 L 254 83 L 254 102 L 256 103 L 273 103 L 293 94 Q 300 96 298 91 L 291 87 L 277 87 L 263 81 L 256 81 Z M 243 82 L 241 84 L 241 371 Q 242 373 248 372 L 249 371 L 249 84 Q 248 81 243 82 Z M 233 105 Q 182 153 144 214 Q 123 246 109 285 L 98 329 L 100 334 L 129 326 L 149 325 L 152 323 L 191 323 L 194 325 L 214 326 L 234 330 L 224 291 L 218 244 L 218 193 L 220 189 L 220 171 L 226 135 L 234 110 Q 236 104 233 105 Z M 255 109 L 254 126 L 254 315 L 256 316 L 316 315 L 317 314 L 370 314 L 371 313 L 402 313 L 403 312 L 402 304 L 394 281 L 369 231 Q 346 192 316 161 L 284 129 L 261 111 L 255 109 Z M 234 124 L 227 154 L 223 199 L 224 259 L 226 263 L 227 282 L 234 312 Q 233 316 236 315 L 236 125 L 234 124 Z M 357 318 L 356 319 L 256 320 L 254 322 L 256 327 L 272 327 L 273 326 L 402 326 L 412 325 L 414 323 L 413 320 L 412 318 L 357 318 Z M 77 350 L 75 352 L 80 355 L 104 362 L 151 371 L 162 371 L 180 375 L 193 375 L 197 377 L 226 378 L 233 380 L 270 380 L 271 381 L 361 380 L 366 378 L 409 376 L 412 374 L 438 371 L 437 367 L 425 370 L 411 370 L 408 372 L 377 373 L 373 375 L 342 376 L 341 377 L 256 377 L 230 375 L 228 373 L 216 373 L 207 370 L 205 366 L 201 363 L 184 363 L 165 360 L 142 359 L 139 357 L 119 356 L 95 351 L 77 350 Z M 256 351 L 254 353 L 254 372 L 256 373 L 280 373 Q 283 371 281 364 L 289 358 L 315 358 L 319 364 L 320 372 L 322 373 L 327 372 Q 328 361 324 356 L 320 351 L 256 351 Z M 225 353 L 217 356 L 209 367 L 218 370 L 235 371 L 236 370 L 236 355 L 235 353 L 225 353 Z M 76 356 L 74 358 L 74 364 L 79 380 L 88 384 L 105 389 L 143 397 L 180 401 L 183 403 L 211 404 L 224 406 L 243 406 L 244 407 L 343 406 L 357 404 L 387 403 L 390 401 L 418 399 L 434 396 L 438 380 L 437 375 L 423 378 L 410 378 L 395 381 L 376 381 L 371 383 L 334 384 L 333 385 L 257 385 L 256 384 L 224 383 L 221 381 L 191 380 L 188 378 L 174 378 L 157 374 L 147 374 L 123 368 L 115 368 L 87 361 L 76 356 Z M 391 358 L 389 360 L 375 360 L 374 361 L 344 361 L 331 365 L 334 372 L 366 372 L 372 370 L 389 369 L 393 360 L 391 358 Z M 397 360 L 394 364 L 396 369 L 408 367 L 424 367 L 424 364 L 397 360 Z M 292 362 L 287 363 L 283 369 L 285 373 L 315 373 L 316 372 L 315 364 L 314 362 L 292 362 Z M 86 386 L 84 388 Q 89 404 99 416 L 116 430 L 134 435 L 183 439 L 188 441 L 242 442 L 243 443 L 296 443 L 304 441 L 359 438 L 362 436 L 380 435 L 421 426 Q 429 418 432 405 L 431 400 L 402 403 L 399 405 L 373 406 L 370 408 L 359 409 L 331 409 L 326 411 L 290 411 L 289 412 L 286 411 L 223 410 L 210 409 L 207 407 L 173 405 L 116 395 L 86 386 Z " /><path fill="rgb(225,68,59)" stroke="rgb(225,68,59)" stroke-width="0.6" opacity="1" d="M 242.5 70 L 245.5 70 L 250 73.5 Q 250.8 78.3 247.5 79 Q 242.3 80.3 241 77.5 Q 239.5 71.5 242.5 70 Z " /><path fill="rgb(225,68,59)" stroke="rgb(225,68,59)" stroke-width="0.6" opacity="1" d="M 234 128 L 236 128.5 L 236 312 Q 232.3 313.4 234 307.5 L 228 282.5 L 227 263.5 L 225 260.5 L 225 239.5 L 223 236.5 L 223 199.5 L 225 175.5 L 227 172.5 L 228 152.5 L 234 128 Z " /><path fill="rgb(225,68,59)" stroke="rgb(225,68,59)" stroke-width="0.6" opacity="1" d="M 390.5 359 Q 393.8 360.8 390 362.5 L 389 369 L 369.5 371 L 334.5 371 L 333.5 372 L 333 369.5 L 332 364.5 L 340.5 362 L 371.5 362 L 375.5 360 L 389.5 360 L 390.5 359 Z " /><path fill="rgb(225,68,59)" stroke="rgb(225,68,59)" stroke-width="0.6" opacity="1" d="M 86.5 387 L 115.5 396 L 127.5 397 L 173.5 406 L 220.5 409 L 224.5 411 L 289.5 412 L 290.5 411 L 357.5 410 L 360.5 408 L 397.5 406 L 400.5 404 L 429.5 401 L 431 404.5 Q 428.5 416.5 421.5 424 L 403.5 430 L 395.5 430 L 374.5 435 L 363.5 435 L 359.5 437 L 346.5 437 L 341.5 439 L 301.5 442 L 245.5 442 L 243.5 443 L 242.5 442 L 215.5 442 L 212.5 440 L 184.5 440 L 153.5 437 L 150.5 435 L 131.5 434 L 115.5 429 L 99 414.5 L 85 388.5 L 86.5 387 Z " /><path fill="rgb(242,224,173)" stroke="rgb(242,224,173)" stroke-width="0.6" opacity="1" d="M 357.5 318 L 410.5 318 L 413 320.5 L 410.5 325 L 290.5 325 L 289.5 326 L 255.5 327 L 254 321.5 L 255.5 320 L 356.5 319 L 357.5 318 Z " /><path fill="rgb(242,224,173)" stroke="rgb(242,224,173)" stroke-width="0.6" opacity="1" d="M 227.5 353 Q 234.3 351.3 236 354.5 L 236 369.5 L 234.5 371 L 216.5 369 L 211 366.5 L 216.5 357 L 227.5 353 Z " /><path fill="rgb(242,224,173)" stroke="rgb(242,224,173)" stroke-width="0.6" opacity="1" d="M 76.5 357 L 86.5 362 L 110.5 368 L 123.5 369 L 142.5 374 L 152.5 374 L 168.5 378 L 188.5 379 L 193.5 381 L 208.5 381 L 255.5 385 L 333.5 385 L 372.5 382 L 393.5 382 L 396.5 380 L 408.5 380 L 414.5 378 Q 427.3 379.3 435.5 376 L 437 379.5 L 432.5 395 Q 414.4 399.9 391.5 400 L 387.5 402 L 358.5 403 L 354.5 405 L 341.5 406 L 244.5 407 L 243.5 406 L 212.5 405 L 208.5 403 L 181.5 402 L 178.5 400 L 141.5 396 L 100.5 387 L 82.5 381 L 80 378.5 Q 75.4 370.6 75 358.5 L 76.5 357 Z " /><path fill="rgb(35,35,35)" stroke="rgb(35,35,35)" stroke-width="0.6" opacity="1" d="M 235.5 94 L 226.5 104 L 235.5 94 Z " /><path fill="rgb(35,35,35)" stroke="rgb(35,35,35)" stroke-width="0.6" opacity="1" d="M 254.5 125 L 255 150.5 L 254 150.5 L 254.5 125 Z " /><path fill="rgb(35,35,35)" stroke="rgb(35,35,35)" stroke-width="0.6" opacity="1" d="M 384.5 325 L 402 325.5 L 384.5 326 L 384.5 325 Z " /><path fill="rgb(35,35,35)" stroke="rgb(35,35,35)" stroke-width="0.6" opacity="1" d="M 322.5 347 L 327.5 353 L 322.5 347 Z " /><path fill="rgb(63,69,66)" stroke="rgb(63,69,66)" stroke-width="0.6" opacity="1" d="M 254.5 151 L 255 174.5 L 254 174.5 L 254.5 151 Z " /><path fill="rgb(63,69,66)" stroke="rgb(63,69,66)" stroke-width="0.6" opacity="1" d="M 373.5 325 L 384 325.5 L 373.5 326 L 373.5 325 Z " /><path fill="rgb(189,187,178)" stroke="rgb(189,187,178)" stroke-width="0.6" opacity="1" d="M 290.5 325 L 327 325.5 L 290.5 326 L 290.5 325 Z " /><path fill="rgb(97,82,70)" stroke="rgb(97,82,70)" stroke-width="0.6" opacity="1" d="M 254.5 175 L 255 207.5 L 254 207.5 L 254.5 175 Z " /><path fill="rgb(116,116,116)" stroke="rgb(116,116,116)" stroke-width="0.6" opacity="1" d="M 346.5 325 L 364 325.5 L 346.5 326 L 346.5 325 Z " /><path fill="rgb(56,120,129)" stroke="rgb(56,120,129)" stroke-width="0.6" opacity="1" d="M 232.5 105 L 234 105.5 L 218.5 120 L 232.5 105 Z " /><path fill="rgb(56,120,129)" stroke="rgb(56,120,129)" stroke-width="0.6" opacity="1" d="M 334.5 379 L 347 379.5 L 334.5 380 L 334.5 379 Z " /><path fill="rgb(225,225,225)" stroke="rgb(225,225,225)" stroke-width="0.6" opacity="1" d="M 235.5 93 L 225.5 104 L 235.5 93 Z " /><path fill="rgb(150,150,150)" stroke="rgb(150,150,150)" stroke-width="0.6" opacity="1" d="M 305.5 142 L 313.5 151 L 305.5 142 Z " /><path fill="rgb(150,150,150)" stroke="rgb(150,150,150)" stroke-width="0.6" opacity="1" d="M 327.5 325 L 346 325.5 L 327.5 326 L 327.5 325 Z " /><path fill="rgb(196,67,58)" stroke="rgb(196,67,58)" stroke-width="0.6" opacity="1" d="M 245.5 442 L 261 442.5 L 245.5 443 L 245.5 442 Z " /><path fill="rgb(146,69,58)" stroke="rgb(146,69,58)" stroke-width="0.6" opacity="1" d="M 261.5 442 L 273 442.5 L 261.5 443 L 261.5 442 Z " /></svg>