<svg width="627" height="627" preserveAspectRatio="xMidYMid meet" viewBox="0 0 512 512" version="1.1" xmlns="http://www.w3.org/2000/svg" ><path fill="rgb(255,255,255)" stroke="rgb(255,255,255)" stroke-width="0.6" opacity="1" d="M 0 0 L 512 0 L 512 512 L 0 512 L 0 0 Z M 210 96 L 198 100 L 194 106 Q 195 112 192 114 L 191 147 L 189 149 L 138 149 L 117 153 Q 109 158 108 170 L 109 176 L 118 181 L 115 195 L 111 231 L 109 233 L 68 234 L 58 245 L 56 252 L 57 261 L 62 264 L 70 265 L 71 267 L 67 283 L 65 304 L 43 303 L 40 301 Q 29 300 26 306 L 26 318 L 37 349 Q 48 371 63 389 Q 75 403 96 409 L 134 412 L 139 414 L 167 414 L 194 416 L 355 415 L 358 413 L 375 413 L 381 411 L 405 410 L 421 406 L 440 394 Q 473 363 487 313 L 486 305 L 480 300 L 434 302 L 431 300 L 429 274 L 427 267 Q 429 263 436 265 L 440 260 Q 441 248 438 242 L 427 235 L 393 235 L 390 232 L 389 209 L 387 206 Q 388 192 385 183 Q 387 179 394 181 L 398 177 Q 399 167 396 162 L 387 154 L 377 152 L 346 152 L 345 151 L 281 150 L 278 149 L 276 148 L 274 109 L 272 104 Q 267 97 257 96 L 210 96 Z " /><path fill="rgb(152,96,55)" stroke="rgb(152,96,55)" stroke-width="0.6" opacity="1" d="M 158.5 177 L 183.5 178 L 184.5 177 L 225.5 177 L 226.5 178 L 313.5 178 L 324.5 180 L 325.5 179 L 342.5 179 L 343.5 180 L 377.5 180 L 379 181.5 L 385 231.5 L 384 235 L 369.5 234 L 117.5 233 L 116 231.5 L 123 181.5 L 125.5 178 L 157.5 178 L 158.5 177 Z M 151 186 L 139 187 L 132 195 L 131 223 L 139 228 L 165 228 L 171 221 L 171 193 L 165 186 L 151 186 Z M 189 186 L 186 187 Q 181 190 180 198 L 180 221 L 181 223 L 188 228 L 214 228 L 216 227 L 220 222 L 221 211 Q 223 198 219 192 L 213 186 L 189 186 Z M 239 186 L 237 187 L 230 196 L 230 221 L 231 223 L 238 228 L 263 228 L 265 227 L 269 221 L 269 195 L 266 189 L 260 186 L 239 186 Z M 285 187 L 283 188 L 278 195 L 278 221 L 279 223 L 286 228 L 312 228 L 314 227 L 318 221 L 318 197 L 316 192 L 310 187 L 285 187 Z M 334 188 L 328 195 L 328 222 L 330 225 L 334 228 L 362 228 L 367 222 L 367 198 L 365 193 L 360 188 L 334 188 Z " /><path fill="rgb(152,96,55)" stroke="rgb(152,96,55)" stroke-width="0.6" opacity="1" d="M 287.5 191 L 308.5 191 L 312 193.5 Q 315.3 203.8 314 218.5 L 310.5 224 L 287.5 224 L 282 218.5 L 281 204.5 L 283 195.5 L 287.5 191 Z " /><path fill="rgb(152,96,55)" stroke="rgb(152,96,55)" stroke-width="0.6" opacity="1" d="M 315.5 279 L 330.5 280 L 335 284.5 L 337 289.5 L 337 314.5 L 332.5 321 L 330.5 322 L 299.5 322 L 295 317.5 L 293 298.5 L 294 285.5 L 299.5 280 L 314.5 280 L 315.5 279 Z " /><path fill="rgb(152,96,55)" stroke="rgb(152,96,55)" stroke-width="0.6" opacity="1" d="M 466.5 305 Q 478.2 302.3 481 308.5 Q 481.1 320.1 475.5 326 L 425 331 L 432 319.5 L 432 308.5 L 433.5 307 L 459.5 306 L 461.5 307 L 466.5 305 Z " /><path fill="rgb(152,96,55)" stroke="rgb(152,96,55)" stroke-width="0.6" opacity="1" d="M 452.5 363 L 456 364.5 L 434.5 391 Q 427.2 398.7 415.5 402 Q 399.7 402.2 387.5 406 L 340.5 409 L 338.5 408 L 332.5 410 L 308.5 410 L 307.5 411 L 197.5 411 L 196.5 410 L 154.5 409 L 150.5 407 L 142.5 408 L 96.5 403 Q 92.7 399.3 85.5 399 L 66 382.5 L 54 365 L 103.5 370 L 109.5 369 L 143.5 373 L 156.5 372 L 157.5 373 L 180.5 373 L 193.5 375 L 194.5 374 L 215.5 374 L 216.5 375 L 259.5 375 L 260.5 374 L 309.5 374 L 310.5 373 L 352.5 372 L 355.5 373 L 360.5 371 L 391.5 369 L 393.5 370 L 452.5 363 Z " /><path fill="rgb(152,96,55)" stroke="rgb(152,96,55)" stroke-width="0.6" opacity="1" d="M 270.5 369 L 309 369.5 L 270.5 370 L 270.5 369 Z " /><path fill="rgb(57,130,185)" stroke="rgb(57,130,185)" stroke-width="0.6" opacity="1" d="M 217.5 101 L 248.5 101 Q 253.1 103.9 261.5 103 L 267 107.5 L 268 116.5 Q 266.8 119.3 261.5 118 L 245.5 116 L 223.5 116 L 222.5 117 L 206.5 117 L 199.5 119 L 198 116.5 L 199 109.5 L 203.5 104 L 217.5 101 Z " /><path fill="rgb(57,130,185)" stroke="rgb(57,130,185)" stroke-width="0.6" opacity="1" d="M 156.5 154 L 280.5 154 L 292.5 156 L 304.5 155 L 305.5 156 L 358.5 157 L 363.5 159 L 368.5 158 L 369.5 159 L 383.5 159 L 391 164.5 L 393 174.5 L 391.5 176 L 375.5 176 L 363.5 174 L 362.5 175 L 349.5 175 L 348.5 174 L 306.5 174 L 284.5 172 L 283.5 173 L 258.5 173 L 257.5 172 L 176.5 172 L 175.5 173 L 115.5 174 L 114 169.5 Q 114.8 161.3 120.5 158 L 133.5 155 L 155.5 155 L 156.5 154 Z " /><path fill="rgb(57,130,185)" stroke="rgb(57,130,185)" stroke-width="0.6" opacity="1" d="M 240.5 190 L 258.5 190 L 264 195.5 L 265 218.5 L 260.5 224 L 239.5 224 L 235 220.5 L 234 201.5 L 235 195.5 L 238.5 191 L 240.5 190 Z " /><path fill="rgb(57,130,185)" stroke="rgb(57,130,185)" stroke-width="0.6" opacity="1" d="M 78.5 264 L 114.5 264 L 115.5 265 L 419.5 265 L 421 266.5 L 424 279.5 L 428 313.5 Q 426.5 322.9 420.5 328 L 416.5 331 L 385.5 333 L 383.5 332 L 377.5 334 L 297.5 336 L 296.5 337 L 177.5 337 L 176.5 336 L 118.5 335 L 113.5 333 L 106.5 334 L 105.5 333 L 81.5 333 L 69 324.5 L 68 312.5 L 76 268.5 L 78.5 264 Z M 99 274 L 94 276 Q 87 280 86 290 L 87 293 L 86 295 L 86 314 L 88 319 L 97 324 L 129 324 L 132 322 L 136 316 L 136 283 L 135 281 L 129 275 L 99 274 Z M 379 274 L 365 276 L 358 285 L 358 315 L 361 321 L 369 325 L 388 325 L 389 324 L 394 325 L 405 321 L 409 315 Q 411 295 407 282 L 398 274 L 396 275 L 379 274 Z M 162 275 L 156 278 L 151 286 L 151 318 L 152 320 L 161 326 L 194 326 L 196 325 L 202 318 L 202 285 L 199 280 L 193 275 L 162 275 Z M 231 275 L 226 277 L 219 286 L 219 319 L 220 321 L 230 327 L 262 327 L 266 325 L 271 318 L 271 286 L 268 280 L 261 275 L 231 275 Z M 302 275 L 296 277 L 289 286 L 289 316 L 291 321 L 300 327 L 321 327 L 322 326 L 328 327 L 335 325 L 341 317 L 341 286 L 338 280 L 331 275 L 302 275 Z " /><path fill="rgb(57,130,185)" stroke="rgb(57,130,185)" stroke-width="0.6" opacity="1" d="M 165.5 279 L 191.5 280 L 197 285.5 L 198 310.5 L 197 317.5 L 194.5 320 L 190.5 322 L 169.5 322 Q 166.6 318.4 158.5 320 L 156 317.5 L 155 315.5 L 155 289.5 L 160.5 281 L 165.5 279 Z " /><path fill="rgb(0,0,0)" stroke="rgb(0,0,0)" stroke-width="0.6" opacity="1" d="M 213.5 96 L 252.5 96 L 264.5 99 L 272 105.5 Q 275.3 124.7 275 147.5 L 277.5 150 L 313.5 150 L 314.5 151 L 342.5 151 L 347.5 153 L 377.5 153 Q 389.5 154 395 161.5 L 398 169.5 L 398 174.5 L 393.5 180 Q 386 178 384 181.5 L 387 198.5 L 389 230.5 L 391.5 235 L 394.5 236 L 427.5 236 L 437 242.5 L 439 246.5 L 440 257.5 L 435.5 264 Q 428 262 426 265.5 L 428 272.5 L 430 298.5 L 432.5 302 L 477.5 300 L 485 304.5 L 486 313.5 Q 471.7 361.2 440.5 392 Q 430.9 400.9 417.5 406 L 405.5 409 L 392.5 409 L 388.5 411 Q 376.4 409.4 369.5 413 L 315.5 414 L 309.5 416 L 195.5 416 L 194.5 415 L 169.5 415 L 166.5 413 L 136.5 413 L 115.5 411 L 112.5 409 L 94.5 408 Q 77 402.5 66 390.5 Q 49.6 371.9 38 348.5 L 26 315.5 L 26 307.5 L 29.5 303 L 39.5 302 L 42.5 304 L 64.5 305 L 66 303.5 L 68 281.5 L 72 265.5 L 70.5 264 L 61.5 263 L 58 260.5 L 57 250.5 Q 59.1 240.6 66.5 236 L 74.5 235 L 77.5 233 L 109.5 233 L 111 231.5 L 117 186.5 L 119 180.5 L 110 175.5 L 109 167.5 Q 110.1 158.1 116.5 154 L 132.5 150 L 188.5 150 L 191 147.5 L 193 113.5 Q 196 111.5 195 105.5 L 199.5 100 L 213.5 96 Z M 214 101 L 204 103 L 198 112 Q 196 117 200 119 L 225 116 Q 247 115 264 119 L 268 118 L 267 107 L 262 102 L 214 101 Z M 213 121 L 200 122 L 196 129 L 196 148 L 198 149 L 270 149 L 271 148 L 269 124 L 268 122 L 257 121 L 213 121 Z M 156 154 L 155 155 L 130 155 L 121 157 L 115 163 L 113 170 L 116 174 L 177 173 L 178 172 L 183 173 L 305 173 L 310 175 L 374 175 L 375 176 L 392 176 L 393 175 L 392 165 L 383 158 L 342 157 L 340 155 L 156 154 Z M 158 177 L 157 178 L 125 178 L 123 180 L 117 215 L 116 232 L 118 233 L 369 234 L 370 235 L 384 235 L 385 234 L 385 219 L 383 216 L 379 182 L 375 179 L 316 179 L 308 177 L 158 177 Z M 81 238 L 69 240 L 62 249 L 62 258 L 64 259 L 104 259 L 105 260 L 270 260 L 272 262 L 279 261 L 428 261 L 435 259 L 434 247 L 428 241 L 418 240 L 81 238 Z M 78 264 L 76 266 L 67 316 L 69 326 Q 75 332 86 334 L 117 334 L 142 336 L 176 336 L 177 337 L 298 337 L 299 336 L 379 334 L 380 333 L 409 333 Q 411 330 418 331 Q 425 326 428 317 L 428 306 L 422 267 L 421 265 L 117 265 L 116 264 L 78 264 Z M 466 305 L 465 306 L 434 306 L 432 308 L 431 321 L 425 329 L 425 331 L 475 327 L 480 320 L 481 308 L 479 305 L 466 305 Z M 33 307 L 31 309 L 31 317 L 34 328 L 41 331 L 70 332 L 70 330 L 64 322 L 64 311 L 63 309 L 33 307 Z M 472 330 L 471 331 L 457 331 L 454 333 L 425 334 L 421 336 L 408 337 L 358 338 L 354 340 L 291 341 L 290 342 L 147 341 L 146 340 L 122 340 L 119 338 L 72 337 L 59 336 L 53 334 L 40 334 L 38 336 L 39 341 L 49 360 L 55 362 L 83 363 L 87 365 L 106 365 L 109 367 L 133 367 L 155 369 L 181 369 L 182 370 L 337 369 L 378 366 L 400 366 L 403 364 L 441 362 L 444 360 L 461 359 L 475 332 L 472 330 Z M 452 363 L 414 368 L 378 369 L 374 371 L 360 371 L 359 372 L 315 372 L 309 374 L 260 374 L 259 375 L 256 374 L 183 374 L 181 372 L 136 372 L 135 371 L 121 371 L 119 369 L 83 368 L 74 367 L 72 365 L 57 365 L 56 364 L 53 366 L 67 385 L 85 399 L 99 404 L 126 406 L 130 408 L 153 408 L 173 410 L 196 410 L 197 411 L 309 411 L 335 409 L 364 409 L 367 407 L 387 407 L 390 405 L 415 403 L 431 395 Q 446 382 457 365 L 452 363 Z " /><path fill="rgb(0,0,0)" stroke="rgb(0,0,0)" stroke-width="0.6" opacity="1" d="M 152.5 186 Q 164.7 184.3 169 190.5 L 171 194.5 L 171 218.5 L 166.5 226 L 163.5 228 L 139.5 228 L 132 222.5 L 131 202.5 Q 134.2 200.2 133 193.5 L 138.5 188 L 152.5 186 Z M 141 191 L 136 197 L 135 222 L 139 224 L 164 224 L 166 222 L 166 211 L 168 209 Q 170 197 166 193 L 165 191 L 141 191 Z " /><path fill="rgb(0,0,0)" stroke="rgb(0,0,0)" stroke-width="0.6" opacity="1" d="M 190.5 186 L 210.5 186 L 218 190.5 Q 222.4 196.6 221 208.5 L 220 220.5 L 214.5 227 L 212.5 228 L 188.5 228 L 181 221.5 L 180 219.5 L 180 199.5 Q 181 190.5 187.5 187 L 190.5 186 Z M 190 190 L 185 196 L 185 221 L 189 224 L 214 224 L 216 221 L 216 195 L 211 190 L 190 190 Z " /><path fill="rgb(0,0,0)" stroke="rgb(0,0,0)" stroke-width="0.6" opacity="1" d="M 239.5 186 L 258.5 186 L 267 191.5 L 269 195.5 L 269 219.5 L 263.5 227 L 261.5 228 L 238.5 228 L 231 221.5 L 230 219.5 L 230 196.5 L 235.5 188 L 239.5 186 Z M 239 190 Q 234 193 234 200 L 234 220 L 235 222 L 239 224 L 262 224 L 265 220 L 264 194 L 260 190 L 239 190 Z " /><path fill="rgb(0,0,0)" stroke="rgb(0,0,0)" stroke-width="0.6" opacity="1" d="M 285.5 187 L 308.5 187 L 316 192.5 L 318 197.5 L 318 219.5 L 312.5 227 L 310.5 228 L 286.5 228 L 279 221.5 L 278 219.5 L 278 196.5 L 283.5 188 L 285.5 187 Z M 287 191 Q 281 193 281 201 L 282 221 L 287 224 L 312 224 L 314 220 L 313 194 L 310 191 L 287 191 Z " /><path fill="rgb(0,0,0)" stroke="rgb(0,0,0)" stroke-width="0.6" opacity="1" d="M 335.5 188 L 357.5 188 L 365 193.5 L 367 198.5 L 367 220.5 L 360.5 228 L 336.5 228 L 330 223.5 L 328 218.5 L 328 195.5 L 333.5 189 L 335.5 188 Z M 336 192 L 332 197 L 332 220 L 335 224 L 361 224 L 363 222 L 362 195 L 358 192 L 336 192 Z " /><path fill="rgb(0,0,0)" stroke="rgb(0,0,0)" stroke-width="0.6" opacity="1" d="M 99.5 274 L 120.5 274 Q 122.5 277 128.5 276 L 134 280.5 L 136 284.5 L 136 313.5 L 130.5 322 L 126.5 324 L 99.5 324 Q 91.4 322.6 88 316.5 L 86 312.5 L 86 297.5 L 87 285.5 L 94.5 276 L 99.5 274 Z M 97 279 Q 92 282 91 290 L 91 316 L 96 319 L 128 320 L 132 315 L 132 285 L 127 279 L 97 279 Z " /><path fill="rgb(0,0,0)" stroke="rgb(0,0,0)" stroke-width="0.6" opacity="1" d="M 162.5 275 L 190.5 275 L 199 280.5 L 202 286.5 L 202 315.5 L 197.5 323 L 191.5 326 L 162.5 326 L 154 321.5 L 151 315.5 L 151 287.5 L 156.5 278 L 162.5 275 Z M 164 279 L 161 280 L 155 287 L 155 317 L 156 319 L 160 321 L 169 322 L 195 321 L 197 319 L 198 312 L 198 286 L 191 279 L 164 279 Z " /><path fill="rgb(0,0,0)" stroke="rgb(0,0,0)" stroke-width="0.6" opacity="1" d="M 231.5 275 L 258.5 275 L 268 280.5 L 271 286.5 L 271 315.5 L 264.5 325 L 260.5 327 L 230.5 327 L 221 320.5 L 219 316.5 L 219 286.5 L 226.5 277 L 231.5 275 Z M 234 279 L 229 280 L 223 288 L 223 318 L 224 320 L 230 323 L 262 323 L 267 318 L 267 288 L 266 285 L 260 279 L 234 279 Z " /><path fill="rgb(0,0,0)" stroke="rgb(0,0,0)" stroke-width="0.6" opacity="1" d="M 302.5 275 L 328.5 275 L 338 280.5 L 341 286.5 L 341 315.5 L 333.5 325 L 302.5 327 Q 295.1 325.9 292 320.5 L 289 314.5 L 289 287.5 L 293.5 279 L 302.5 275 Z M 314 279 L 313 280 L 299 280 L 294 286 L 293 297 L 294 318 L 299 322 L 333 322 L 337 317 L 336 285 L 330 279 L 314 279 Z " /><path fill="rgb(0,0,0)" stroke="rgb(0,0,0)" stroke-width="0.6" opacity="1" d="M 368.5 275 L 397.5 275 L 407 282.5 Q 410.3 295.2 409 312.5 L 403.5 321 L 397.5 324 L 372.5 324 L 370.5 325 L 361 319.5 L 358 313.5 L 358 285.5 L 364.5 277 L 368.5 275 Z M 370 279 L 367 280 L 362 286 L 362 314 L 363 317 L 368 320 L 401 319 L 405 313 L 405 290 L 403 284 L 399 279 L 370 279 Z " /><path fill="rgb(225,68,59)" stroke="rgb(225,68,59)" stroke-width="0.6" opacity="1" d="M 213.5 121 L 255.5 121 Q 258.4 124.6 266.5 123 L 269 125.5 L 270 147.5 L 268.5 149 L 197.5 149 Q 194 147 196 139.5 L 197 127.5 L 199.5 123 Q 209.7 125.2 213.5 121 Z " /><path fill="rgb(225,68,59)" stroke="rgb(225,68,59)" stroke-width="0.6" opacity="1" d="M 191.5 190 L 209.5 190 L 215 194.5 L 216 196.5 L 216 218.5 L 211.5 224 L 190.5 224 L 185 219.5 L 185 196.5 L 189.5 191 L 191.5 190 Z " /><path fill="rgb(225,68,59)" stroke="rgb(225,68,59)" stroke-width="0.6" opacity="1" d="M 337.5 192 L 355.5 192 L 361 195.5 Q 364.2 205.3 363 219.5 L 358.5 224 L 337.5 224 L 333 220.5 L 332 197.5 L 335.5 193 L 337.5 192 Z " /><path fill="rgb(225,68,59)" stroke="rgb(225,68,59)" stroke-width="0.6" opacity="1" d="M 371.5 279 L 397.5 279 L 402 283.5 L 404 288.5 L 404 308.5 L 405 310.5 L 400.5 318 Q 388.3 322.3 369.5 320 L 363 314.5 L 362 287.5 L 368.5 280 L 371.5 279 Z " /><path fill="rgb(225,68,59)" stroke="rgb(225,68,59)" stroke-width="0.6" opacity="1" d="M 469.5 331 Q 474.9 329.1 474 332.5 L 464 352.5 L 459.5 358 L 441.5 361 L 404.5 363 L 400.5 365 L 357.5 366 L 350.5 368 L 336.5 368 L 335.5 369 L 182.5 370 L 181.5 369 L 155.5 369 L 153.5 367 L 107.5 366 L 105.5 364 L 84.5 364 L 80.5 362 L 54.5 361 L 48 356.5 L 39 335.5 Q 40.8 332.3 47.5 334 L 53.5 336 L 84.5 337 L 89.5 339 L 119.5 339 L 144.5 341 L 290.5 342 L 291.5 341 L 336.5 341 L 355.5 339 L 406.5 338 L 409.5 336 L 451.5 334 L 455.5 332 L 468.5 332 L 469.5 331 Z " /><path fill="rgb(242,224,173)" stroke="rgb(242,224,173)" stroke-width="0.6" opacity="1" d="M 142.5 191 L 163.5 191 L 165 192.5 Q 169 197.5 167 208.5 L 166 219.5 L 163.5 223 L 161.5 224 L 140.5 224 L 135 219.5 L 136 198.5 L 140.5 192 L 142.5 191 Z " /><path fill="rgb(242,224,173)" stroke="rgb(242,224,173)" stroke-width="0.6" opacity="1" d="M 81.5 238 L 416.5 240 L 426.5 241 L 433 246.5 L 434 258.5 L 432.5 260 L 271.5 261 L 270.5 260 L 105.5 260 L 104.5 259 L 65.5 259 L 63 258 L 63 247.5 L 69.5 240 Q 78.3 241.8 81.5 238 Z " /><path fill="rgb(242,224,173)" stroke="rgb(242,224,173)" stroke-width="0.6" opacity="1" d="M 98.5 279 L 125.5 279 L 131 284.5 L 132 286.5 L 132 309.5 Q 131.6 316.1 127.5 319 L 106.5 320 L 97.5 319 L 91 313.5 L 91 291.5 Q 93.8 289.8 93 284.5 L 96.5 280 L 98.5 279 Z " /><path fill="rgb(242,224,173)" stroke="rgb(242,224,173)" stroke-width="0.6" opacity="1" d="M 238.5 279 L 260.5 280 L 265 284.5 L 267 289.5 L 267 313.5 Q 266.4 319.9 261.5 322 L 234.5 323 Q 227 322.5 224 317.5 L 223 315.5 L 223 289.5 L 229.5 281 L 238.5 279 Z " /><path fill="rgb(242,224,173)" stroke="rgb(242,224,173)" stroke-width="0.6" opacity="1" d="M 33.5 307 L 63 310 L 63 321.5 L 69 329.5 L 69 332 Q 60.7 333.5 56.5 330 L 39.5 330 L 35 326.5 L 31 309.5 L 33.5 307 Z " /><path fill="rgb(25,25,25)" stroke="rgb(25,25,25)" stroke-width="0.6" opacity="1" d="M 182.5 172 L 198 172.5 L 182.5 173 L 182.5 172 Z " /><path fill="rgb(25,25,25)" stroke="rgb(25,25,25)" stroke-width="0.6" opacity="1" d="M 288.5 177 L 308 177.5 L 288.5 178 L 288.5 177 Z " /><path fill="rgb(25,25,25)" stroke="rgb(25,25,25)" stroke-width="0.6" opacity="1" d="M 408.5 260 L 428 260.5 L 408.5 261 L 408.5 260 Z " /><path fill="rgb(53,54,52)" stroke="rgb(53,54,52)" stroke-width="0.6" opacity="1" d="M 198.5 172 L 215 172.5 L 198.5 173 L 198.5 172 Z " /><path fill="rgb(53,54,52)" stroke="rgb(53,54,52)" stroke-width="0.6" opacity="1" d="M 268.5 177 L 288 177.5 L 268.5 178 L 268.5 177 Z " /><path fill="rgb(53,54,52)" stroke="rgb(53,54,52)" stroke-width="0.6" opacity="1" d="M 397.5 260 L 408 260.5 L 397.5 261 L 397.5 260 Z " /><path fill="rgb(80,80,66)" stroke="rgb(80,80,66)" stroke-width="0.6" opacity="1" d="M 247.5 177 L 268 177.5 L 247.5 178 L 247.5 177 Z " /><path fill="rgb(80,80,66)" stroke="rgb(80,80,66)" stroke-width="0.6" opacity="1" d="M 377.5 260 L 397 260.5 L 377.5 261 L 377.5 260 Z " /><path fill="rgb(126,85,55)" stroke="rgb(126,85,55)" stroke-width="0.6" opacity="1" d="M 173.5 177 L 184 177.5 L 173.5 178 L 173.5 177 Z " /><path fill="rgb(126,85,55)" stroke="rgb(126,85,55)" stroke-width="0.6" opacity="1" d="M 226.5 177 L 247 177.5 L 226.5 178 L 226.5 177 Z " /><path fill="rgb(188,187,178)" stroke="rgb(188,187,178)" stroke-width="0.6" opacity="1" d="M 144.5 149 L 155 149.5 L 144.5 150 L 144.5 149 Z " /><path fill="rgb(188,187,178)" stroke="rgb(188,187,178)" stroke-width="0.6" opacity="1" d="M 295.5 260 L 336 260.5 L 295.5 261 L 295.5 260 Z " /><path fill="rgb(55,124,143)" stroke="rgb(55,124,143)" stroke-width="0.6" opacity="1" d="M 305.5 155 L 316 155.5 L 305.5 156 L 305.5 155 Z " /><path fill="rgb(55,124,143)" stroke="rgb(55,124,143)" stroke-width="0.6" opacity="1" d="M 233.5 172 L 258 172.5 L 233.5 173 L 233.5 172 Z " /><path fill="rgb(55,124,143)" stroke="rgb(55,124,143)" stroke-width="0.6" opacity="1" d="M 336.5 174 L 349 174.5 L 336.5 175 L 336.5 174 Z " /><path fill="rgb(87,105,105)" stroke="rgb(87,105,105)" stroke-width="0.6" opacity="1" d="M 357.5 260 L 377 260.5 L 357.5 261 L 357.5 260 Z " /><path fill="rgb(141,141,141)" stroke="rgb(141,141,141)" stroke-width="0.6" opacity="1" d="M 336.5 260 L 357 260.5 L 336.5 261 L 336.5 260 Z " /></svg>