<svg width="627" height="627" preserveAspectRatio="xMidYMid meet" viewBox="0 0 512 512" version="1.1" xmlns="http://www.w3.org/2000/svg" ><path fill="rgb(255,255,255)" stroke="rgb(255,255,255)" stroke-width="0.6" opacity="1" d="M 0 0 L 512 0 L 512 512 L 0 512 L 0 0 Z M 225 95 L 207 97 L 199 100 Q 194 104 193 112 L 190 148 L 189 149 L 131 150 L 123 151 L 115 155 Q 107 160 109 175 Q 112 179 118 179 L 110 232 L 109 233 L 75 233 L 64 237 Q 57 242 56 254 L 57 260 L 63 264 Q 70 262 72 266 L 68 281 L 65 303 L 63 305 L 42 302 Q 29 299 26 307 Q 25 317 28 324 L 36 345 Q 46 367 61 385 Q 73 403 99 409 L 148 414 L 190 415 L 191 416 L 238 416 L 239 417 L 340 415 L 400 410 L 425 404 L 439 394 Q 472 363 486 314 L 485 304 L 480 300 L 459 300 L 434 302 L 431 299 L 427 267 L 429 265 L 437 264 L 440 260 Q 442 246 436 241 L 432 237 L 421 235 L 393 235 L 390 231 L 386 191 L 384 183 Q 386 179 394 181 L 398 177 Q 399 166 395 161 L 389 155 L 379 153 L 279 149 L 276 147 L 274 115 L 272 105 Q 268 98 260 97 L 225 95 Z " /><path fill="rgb(151,96,55)" stroke="rgb(151,96,55)" stroke-width="0.6" opacity="1" d="M 138.5 177 L 157.5 178 L 158.5 177 L 261.5 177 L 272.5 178 L 273.5 177 L 286.5 177 L 313.5 179 L 324.5 178 L 325.5 179 L 377.5 180 L 379 181.5 L 384 213.5 L 385 235 L 247.5 233 L 246.5 234 L 188.5 234 L 187.5 233 L 116.5 233 L 115 231.5 L 117 217.5 L 119 213.5 L 118 210.5 Q 121.5 209 119 207.5 L 123 182.5 L 125.5 178 L 138.5 177 Z M 148 186 L 138 188 L 132 197 L 130 211 L 132 224 L 139 228 L 166 227 L 170 221 L 172 200 L 169 191 L 164 187 L 148 186 Z M 193 186 L 187 187 L 181 195 L 180 203 Q 178 216 182 224 L 189 228 L 215 227 L 220 221 L 220 194 L 219 192 L 211 186 L 193 186 Z M 242 186 L 236 188 L 230 197 L 230 219 L 232 224 L 240 228 L 260 228 L 265 226 L 268 223 L 270 214 Q 271 200 267 192 Q 260 183 242 186 Z M 286 187 L 284 188 Q 278 192 277 200 Q 275 215 280 224 L 287 228 L 313 227 L 318 220 Q 321 201 315 191 L 307 187 L 286 187 Z M 335 188 L 333 189 L 328 196 L 328 219 L 330 224 L 337 228 L 359 228 L 364 226 L 367 222 Q 369 204 365 194 L 358 188 L 335 188 Z " /><path fill="rgb(151,96,55)" stroke="rgb(151,96,55)" stroke-width="0.6" opacity="1" d="M 287.5 191 L 308.5 191 L 312 193.5 Q 315.6 202.9 314 217.5 L 309.5 224 L 306.5 223 L 301.5 225 L 301 223 L 287.5 224 L 283 220.5 L 282 195.5 L 284.5 192 L 287.5 191 Z " /><path fill="rgb(151,96,55)" stroke="rgb(151,96,55)" stroke-width="0.6" opacity="1" d="M 302.5 279 L 309.5 280 L 321.5 279 L 326.5 280 L 328.5 279 L 335 283.5 L 337 288.5 L 337 314.5 L 332.5 321 L 326.5 322 L 324.5 321 L 323.5 322 L 298.5 322 Q 293.1 318.9 293 310.5 L 294 309.5 L 294 291.5 L 293 288.5 L 298.5 280 L 302.5 279 Z " /><path fill="rgb(151,96,55)" stroke="rgb(151,96,55)" stroke-width="0.6" opacity="1" d="M 462.5 305 L 474.5 306 L 477.5 305 L 481 307.5 L 481 313.5 L 478 323.5 L 475.5 326 L 442.5 330 L 440.5 329 L 426.5 331 L 424 328.5 L 428 324.5 L 432 315.5 Q 430.3 308.8 433.5 307 L 443.5 306 L 445.5 307 L 454.5 306 L 456.5 306 L 462.5 305 Z " /><path fill="rgb(151,96,55)" stroke="rgb(151,96,55)" stroke-width="0.6" opacity="1" d="M 456.5 362 Q 458.6 364.8 454 367.5 L 442.5 382 L 440 383.5 L 430.5 394 L 418.5 401 Q 398.7 406.2 374.5 407 L 372.5 407 L 334.5 410 L 331.5 409 L 314.5 411 L 308.5 410 L 307.5 411 L 288.5 411 L 281.5 410 L 280.5 411 L 223.5 411 L 215.5 410 L 214.5 411 L 196.5 411 L 191.5 410 L 187.5 411 L 171.5 409 L 165.5 410 L 113.5 406 L 91.5 402 Q 75 395 65 381.5 L 54 365 L 58.5 364 L 66.5 366 L 105.5 370 L 109.5 369 L 137.5 372 L 155.5 372 L 165.5 374 L 166.5 373 L 179.5 373 L 186.5 374 L 194.5 373 L 195.5 374 L 230.5 375 L 231.5 374 L 257.5 374 L 266.5 375 L 267.5 374 L 302.5 373 L 309.5 374 L 310.5 373 L 324.5 373 L 326.5 374 L 345.5 372 L 347.5 372 L 386.5 369 L 388.5 370 L 430.5 365 L 441.5 365 L 456.5 362 Z " /><path fill="rgb(57,130,185)" stroke="rgb(57,130,185)" stroke-width="0.6" opacity="1" d="M 226.5 101 L 247.5 102 L 249.5 102 L 261.5 103 L 267 107.5 L 268 111.5 L 267 115.5 L 268 117.5 L 266.5 119 L 263.5 118 L 258.5 117 L 256.5 117 L 247.5 116 L 245.5 116 L 228.5 115 L 221.5 117 L 214.5 116 L 199 119 L 198 116.5 L 200 106 L 203.5 104 L 210.5 102 L 225.5 102 L 226.5 101 Z " /><path fill="rgb(57,130,185)" stroke="rgb(57,130,185)" stroke-width="0.6" opacity="1" d="M 175.5 154 L 255.5 154 L 256.5 155 L 305.5 156 L 309.5 155 L 310.5 156 L 338.5 157 L 342.5 156 L 357.5 158 L 360.5 157 L 381.5 160 L 383.5 160 L 390 162.5 Q 393.4 165.1 392 172.5 L 390.5 176 L 379.5 175 L 374.5 176 L 360.5 174 L 300.5 173 L 296.5 174 L 295.5 173 L 252.5 173 L 248.5 172 L 247.5 173 L 202.5 173 L 200.5 172 L 199.5 173 L 167.5 173 L 161.5 172 L 160.5 173 L 133.5 173 L 130.5 174 L 115 173 L 114 168.5 Q 116.8 166.8 116 161.5 L 119.5 158 L 124.5 156 L 136.5 155 L 145.5 156 L 146.5 155 L 174.5 155 L 175.5 154 Z " /><path fill="rgb(57,130,185)" stroke="rgb(57,130,185)" stroke-width="0.6" opacity="1" d="M 238.5 191 L 260.5 191 L 264 193.5 L 264 218.5 L 263 222 L 260.5 223 L 237.5 223 L 235 218.5 L 234 202.5 L 236 193.5 L 238.5 191 Z " /><path fill="rgb(57,130,185)" stroke="rgb(57,130,185)" stroke-width="0.6" opacity="1" d="M 80.5 264 L 82.5 265 L 85.5 264 L 87.5 264 L 103.5 265 L 104.5 264 L 123.5 264 L 124.5 265 L 180.5 265 L 181.5 266 L 263.5 266 L 264.5 265 L 353.5 265 L 354.5 266 L 419.5 266 L 422 268.5 L 423 274.5 L 422 277.5 L 424 282.5 L 424 284.5 L 424 291.5 L 427 301.5 L 427 316.5 L 417.5 330 L 408.5 332 L 406.5 331 L 380.5 334 L 372.5 333 L 351.5 335 L 345.5 334 L 328.5 336 L 321.5 335 L 298.5 337 L 174.5 337 L 173.5 336 L 145.5 335 L 142.5 336 L 122.5 334 L 120.5 334 L 96.5 333 L 94.5 334 L 81.5 333 L 73 329 L 68 320.5 L 68 313.5 L 71 302.5 L 71 300.5 L 72 297.5 L 71 293.5 L 73 290.5 Q 72.3 280.3 76 274.5 L 76 272.5 Q 75.2 266.7 78.5 265 L 80.5 264 Z M 114 273 L 94 276 Q 87 280 86 291 L 87 296 L 85 309 Q 85 316 89 320 Q 94 324 105 325 L 115 324 L 118 325 L 122 324 L 126 325 L 130 323 L 135 317 L 137 306 Q 140 287 133 279 L 128 275 Q 119 276 114 273 Z M 373 274 L 364 277 L 357 288 Q 355 308 361 321 L 368 325 L 382 325 L 383 324 L 388 325 Q 399 326 405 321 L 409 314 L 409 293 L 409 291 L 406 280 L 400 275 L 392 274 L 377 275 L 375 275 L 373 274 Z M 164 275 L 158 277 L 151 287 L 151 304 L 150 305 Q 149 315 153 321 Q 156 325 164 326 L 181 326 L 182 327 Q 191 328 197 324 Q 201 321 202 315 L 202 287 L 200 282 Q 198 275 190 275 L 164 275 Z M 234 275 L 226 277 Q 219 281 218 292 L 219 295 L 218 297 L 218 316 L 221 322 L 233 328 L 235 327 L 256 327 L 257 328 L 267 324 L 272 315 L 272 294 L 271 293 L 272 291 L 271 286 L 271 284 L 263 276 L 234 275 Z M 305 275 L 296 277 L 289 287 L 289 316 L 291 321 Q 295 326 303 327 L 317 327 L 318 326 L 321 327 L 332 326 L 336 324 L 342 315 Q 345 294 339 282 Q 336 276 329 275 L 305 275 Z " /><path fill="rgb(57,130,185)" stroke="rgb(57,130,185)" stroke-width="0.6" opacity="1" d="M 167.5 279 L 177.5 280 L 180.5 279 L 190.5 281 L 192.5 281 L 197 284.5 L 197 306.5 L 198 307.5 L 197 315.5 L 194.5 320 L 192.5 321 L 161.5 321 L 156 316.5 L 155 313.5 L 156 312.5 L 156 296.5 L 155 294.5 L 156 286.5 L 160 280 L 167.5 279 Z " /><path fill="rgb(225,68,59)" stroke="rgb(225,68,59)" stroke-width="0.6" opacity="1" d="M 212.5 121 L 254.5 121 L 267.5 123 L 269 124.5 L 271 147.5 L 269.5 149 L 197 149 L 196 139.5 L 197 127.5 L 199.5 123 L 212.5 121 Z " /><path fill="rgb(225,68,59)" stroke="rgb(225,68,59)" stroke-width="0.6" opacity="1" d="M 194.5 190 Q 208.9 187.5 215 193.5 L 216 195.5 L 216 218.5 L 213.5 223 L 189.5 224 L 185 220.5 L 185 195.5 L 188.5 191 L 194.5 190 Z " /><path fill="rgb(225,68,59)" stroke="rgb(225,68,59)" stroke-width="0.6" opacity="1" d="M 336.5 192 L 354.5 192 Q 360.1 192.5 362 196.5 L 363 219.5 L 360.5 223 L 337.5 224 L 333 220.5 L 332 197.5 L 334.5 193 L 336.5 192 Z " /><path fill="rgb(225,68,59)" stroke="rgb(225,68,59)" stroke-width="0.6" opacity="1" d="M 371.5 279 L 396.5 279 L 402 282.5 L 404 287.5 L 404 313.5 L 400.5 318 L 391.5 320 L 389.5 319 L 388.5 320 L 368.5 320 L 364 316.5 L 362 310.5 L 362 286.5 L 365.5 281 L 371.5 279 Z " /><path fill="rgb(225,68,59)" stroke="rgb(225,68,59)" stroke-width="0.6" opacity="1" d="M 471.5 330 L 473 331.5 L 473 333.5 Q 468.4 347.9 459.5 358 L 411.5 364 L 355.5 367 L 354.5 368 L 335.5 368 L 334.5 369 L 184.5 370 L 183.5 369 L 156.5 369 L 155.5 368 L 136.5 368 L 83.5 364 L 55.5 361 L 49 357.5 L 40 340.5 L 39 334 L 83.5 338 L 142.5 340 L 143.5 341 L 296.5 342 L 297.5 341 L 330.5 341 L 331.5 340 L 408.5 337 L 454.5 333 L 471.5 330 Z " /><path fill="rgb(242,224,173)" stroke="rgb(242,224,173)" stroke-width="0.6" opacity="1" d="M 141.5 191 L 162.5 191 L 166 193.5 L 167 207.5 L 166 219.5 L 163.5 223 L 139.5 224 L 136 221.5 L 135 209.5 L 137 194.5 L 139.5 192 L 141.5 191 Z " /><path fill="rgb(242,224,173)" stroke="rgb(242,224,173)" stroke-width="0.6" opacity="1" d="M 84.5 238 L 410.5 240 L 411.5 241 L 425.5 241 Q 431.1 241.5 433 245.5 L 435 256.5 L 431.5 260 L 122.5 260 L 121.5 259 L 65.5 259 L 62 256.5 Q 61 245 67.5 241 L 71.5 239 L 84.5 238 Z " /><path fill="rgb(242,224,173)" stroke="rgb(242,224,173)" stroke-width="0.6" opacity="1" d="M 97.5 279 L 124.5 279 L 131 283.5 L 132 307.5 L 128.5 318 L 124.5 320 L 109.5 320 L 96.5 319 L 92 315.5 L 91 313.5 L 91 291.5 L 93 282.5 L 95.5 280 L 97.5 279 Z " /><path fill="rgb(242,224,173)" stroke="rgb(242,224,173)" stroke-width="0.6" opacity="1" d="M 229.5 280 L 259.5 280 L 265 283.5 Q 269 294.5 267 311.5 Q 266.6 318.1 262.5 321 Q 252.3 324.8 236.5 323 L 229.5 322 L 224 317.5 L 223 290.5 Q 223.4 283.9 227.5 281 L 229.5 280 Z " /><path fill="rgb(242,224,173)" stroke="rgb(242,224,173)" stroke-width="0.6" opacity="1" d="M 32.5 307 L 61.5 310 L 63 311.5 L 63 320.5 L 69 332 L 40.5 330 L 35 326.5 L 31 308.5 L 32.5 307 Z " /><path fill="rgb(10,11,11)" stroke="rgb(10,11,11)" stroke-width="0.6" opacity="1" d="M 215.5 97 L 251.5 97 L 265.5 100 L 270 103.5 L 272 108.5 L 275 148.5 L 276.5 150 L 376.5 154 L 388.5 156 L 393 159.5 Q 397.9 164.6 397 175.5 L 394.5 179 L 384.5 180 L 383 181.5 L 388 214.5 L 389 231.5 L 391.5 236 L 427.5 237 L 436 242.5 Q 439.9 248.1 439 258.5 L 435.5 263 L 426.5 264 L 425 265.5 Q 429.3 281.2 430 300.5 L 433.5 304 L 441.5 302 L 478.5 301 L 485 305.5 L 484 317.5 L 471 349.5 Q 456.4 377.4 433.5 397 L 415.5 406 L 368.5 412 L 315.5 414 L 314.5 415 L 191.5 415 L 190.5 414 L 136.5 412 L 94.5 407 Q 74 401 63 385.5 Q 49.6 369.9 40 350.5 L 28 319.5 L 27 306.5 L 32.5 303 L 36.5 304 L 39.5 303 L 64.5 306 L 66 304.5 L 73 264.5 Q 71 261 63.5 263 L 58 259.5 Q 56.3 242.8 65.5 237 L 71.5 235 L 73.5 236 L 77.5 234 L 109.5 234 L 111 232.5 L 120 179.5 L 110 174.5 Q 108.8 159.3 117.5 154 L 130.5 151 L 189.5 150 L 191 148.5 L 195 106.5 L 200.5 100 L 215.5 97 Z M 215 100 L 203 103 L 198 109 L 197 119 L 202 120 Q 203 123 199 122 L 196 126 L 195 149 L 197 150 L 266 150 L 267 151 L 272 150 L 270 124 L 265 121 Q 256 123 257 119 L 270 120 L 268 107 L 265 103 L 251 100 L 215 100 Z M 154 153 L 153 154 L 124 155 L 120 157 Q 112 161 113 173 L 117 175 L 161 174 L 162 173 L 169 174 L 175 173 L 243 173 L 244 174 L 248 173 L 253 174 L 343 175 L 344 176 L 370 176 L 371 177 L 392 177 L 394 175 L 392 164 L 384 158 L 343 155 L 284 154 L 283 153 L 154 153 Z M 161 176 L 160 177 L 125 177 L 122 182 L 119 199 L 115 233 L 117 234 L 185 234 L 186 235 L 339 235 L 340 236 L 386 236 L 386 226 L 380 181 L 379 179 L 355 179 L 354 178 L 346 179 L 344 178 L 311 178 L 310 177 L 260 177 L 259 176 L 161 176 Z M 73 237 L 69 239 Q 60 243 61 258 L 65 260 L 228 261 L 229 262 L 391 262 L 392 261 L 433 261 L 436 258 L 434 246 L 430 241 L 417 239 L 238 238 L 237 237 L 79 237 L 78 238 L 73 237 Z M 78 263 L 75 268 L 67 313 Q 66 322 69 326 Q 73 332 82 334 L 136 336 L 137 337 L 166 337 L 167 338 L 283 338 L 284 337 L 286 338 L 397 334 L 398 333 L 412 333 L 419 330 Q 427 325 429 314 L 422 266 L 421 264 L 78 263 Z M 462 304 L 444 306 L 434 305 L 431 308 L 430 319 L 422 332 L 453 329 L 461 329 L 461 331 L 374 338 L 288 340 L 287 341 L 188 341 L 187 340 L 101 338 L 59 335 L 60 333 L 72 333 L 64 320 L 65 311 Q 55 306 41 307 L 37 305 Q 31 304 30 309 L 30 314 L 34 328 Q 37 333 47 331 L 47 333 L 37 333 Q 40 348 49 360 L 56 362 L 71 363 L 72 365 Q 61 366 55 363 L 52 365 L 66 384 Q 77 398 96 404 L 137 409 L 197 411 L 198 412 L 307 412 L 308 411 L 368 409 L 410 404 Q 422 402 431 395 Q 448 381 458 362 L 434 365 L 425 365 L 424 363 L 461 359 Q 470 347 476 331 L 471 329 Q 470 325 476 327 Q 482 320 482 308 L 479 304 L 462 304 Z " /><path fill="rgb(10,11,11)" stroke="rgb(10,11,11)" stroke-width="0.6" opacity="1" d="M 227.5 117 L 237.5 117 L 238 119 L 203 121 L 203.5 119 L 211.5 119 L 227.5 117 Z " /><path fill="rgb(10,11,11)" stroke="rgb(10,11,11)" stroke-width="0.6" opacity="1" d="M 240.5 118 L 253.5 118 L 254 120 L 241.5 120 L 240.5 118 Z " /><path fill="rgb(10,11,11)" stroke="rgb(10,11,11)" stroke-width="0.6" opacity="1" d="M 146.5 187 Q 162.8 184.2 169 191.5 L 170 216.5 L 166.5 225 L 163.5 227 L 137.5 227 L 133 223.5 L 132 204.5 L 133 194.5 L 137.5 189 L 146.5 187 Z M 142 190 L 140 191 L 136 195 L 134 206 L 135 222 L 140 225 L 162 225 L 164 224 L 167 220 L 168 212 L 167 194 L 163 190 L 142 190 Z " /><path fill="rgb(10,11,11)" stroke="rgb(10,11,11)" stroke-width="0.6" opacity="1" d="M 189.5 187 L 212.5 187 L 219 192.5 L 219 220.5 L 213.5 227 L 187.5 227 L 182 222.5 L 181 203.5 L 182 193.5 L 186.5 188 L 189.5 187 Z M 192 189 L 189 190 L 184 196 L 183 205 L 184 221 L 190 225 L 212 225 L 214 224 L 217 220 L 217 195 L 216 193 L 210 189 L 192 189 Z " /><path fill="rgb(10,11,11)" stroke="rgb(10,11,11)" stroke-width="0.6" opacity="1" d="M 238.5 187 L 260.5 187 L 267 192.5 L 268 219.5 L 263.5 226 L 261.5 227 L 237.5 227 L 232 222.5 L 231 196.5 Q 231.7 190.2 236.5 188 L 238.5 187 Z M 241 189 L 237 191 L 233 199 L 233 218 L 235 223 L 239 225 L 261 225 L 263 224 L 266 219 L 265 194 L 258 189 L 241 189 Z " /><path fill="rgb(10,11,11)" stroke="rgb(10,11,11)" stroke-width="0.6" opacity="1" d="M 290.5 187 L 309.5 188 L 316 193.5 L 317 219.5 L 312.5 226 L 310.5 227 L 285.5 227 L 281 223.5 L 279 218.5 L 279 196.5 Q 279.7 190.2 284.5 188 L 290.5 187 Z M 288 190 L 285 191 L 281 197 L 281 219 L 287 225 L 310 225 L 312 224 L 315 219 Q 317 203 313 194 L 307 190 L 288 190 Z " /><path fill="rgb(10,11,11)" stroke="rgb(10,11,11)" stroke-width="0.6" opacity="1" d="M 334.5 189 L 357.5 189 L 365 194.5 L 366 221.5 L 362.5 226 L 360.5 227 L 335.5 227 L 330 222.5 L 328 206.5 L 329 194.5 L 332.5 190 L 334.5 189 Z M 337 191 L 335 192 L 331 197 L 331 218 L 333 223 L 337 225 L 359 225 L 364 221 Q 366 205 362 195 L 357 191 L 355 192 L 354 191 L 337 191 Z " /><path fill="rgb(10,11,11)" stroke="rgb(10,11,11)" stroke-width="0.6" opacity="1" d="M 101.5 275 L 126.5 276 L 134 281.5 L 135 284.5 L 135 312.5 L 130.5 321 L 126.5 323 L 100.5 323 L 92.5 321 L 89 317.5 Q 85.8 311.8 87 301.5 L 89 282.5 L 93.5 277 L 101.5 275 Z M 103 277 L 96 279 Q 91 282 90 290 L 90 315 L 97 320 L 107 321 L 128 320 Q 132 317 133 311 L 133 286 L 131 282 L 126 278 L 103 277 Z " /><path fill="rgb(10,11,11)" stroke="rgb(10,11,11)" stroke-width="0.6" opacity="1" d="M 163.5 276 L 189.5 276 Q 196.9 277.1 200 282.5 L 201 285.5 L 201 315.5 L 194.5 324 L 192.5 325 L 162.5 325 Q 155.3 324.1 153 318.5 L 152 316.5 L 152 287.5 L 156.5 279 L 163.5 276 Z M 165 278 L 161 279 Q 154 282 154 292 L 154 314 L 156 319 L 165 323 L 191 323 L 195 321 L 199 313 L 198 285 Q 196 278 188 278 L 165 278 Z " /><path fill="rgb(10,11,11)" stroke="rgb(10,11,11)" stroke-width="0.6" opacity="1" d="M 232.5 276 L 255.5 276 L 264.5 278 L 268 281.5 L 270 286.5 L 270 315.5 Q 269.4 321.9 264.5 324 L 258.5 326 L 231.5 326 Q 223.4 325.6 221 319.5 L 219 301.5 L 220 300.5 L 220 286.5 L 224.5 279 L 232.5 276 Z M 235 278 L 228 280 Q 222 282 222 290 L 222 315 L 224 320 L 233 324 L 262 323 L 268 315 L 268 289 L 266 284 L 261 279 L 235 278 Z " /><path fill="rgb(10,11,11)" stroke="rgb(10,11,11)" stroke-width="0.6" opacity="1" d="M 304.5 276 L 327.5 276 L 338 281.5 L 340 286.5 L 340 316.5 L 335.5 323 L 330.5 325 L 298.5 325 L 293 321.5 L 290 313.5 L 290 287.5 L 294.5 279 L 304.5 276 Z M 305 278 L 298 280 L 293 286 L 292 292 Q 291 307 294 319 L 300 323 L 330 323 L 333 322 L 338 315 L 338 296 L 337 295 L 338 293 L 337 285 Q 334 279 327 278 L 305 278 Z " /><path fill="rgb(10,11,11)" stroke="rgb(10,11,11)" stroke-width="0.6" opacity="1" d="M 368.5 276 L 398.5 276 L 405 280.5 L 407 285.5 L 408 311.5 Q 407.1 318.1 402.5 321 L 396.5 323 L 370.5 324 Q 363.1 322.9 360 317.5 L 359 285.5 L 363.5 278 L 368.5 276 Z M 370 278 L 366 280 L 361 287 L 361 312 L 365 320 L 368 321 L 400 320 Q 405 318 406 311 L 404 284 L 398 278 L 370 278 Z " /><path fill="rgb(10,11,11)" stroke="rgb(10,11,11)" stroke-width="0.6" opacity="1" d="M 73 364 L 83.5 365 L 85.5 365 L 133 368 L 132.5 370 L 120.5 370 L 118.5 369 L 116.5 370 L 73 366 L 73 364 Z " /><path fill="rgb(10,11,11)" stroke="rgb(10,11,11)" stroke-width="0.6" opacity="1" d="M 413.5 364 L 421.5 364 L 422 366 L 374.5 370 L 372.5 369 L 358 370 L 358.5 368 L 373.5 368 L 413.5 364 Z " /><path fill="rgb(10,11,11)" stroke="rgb(10,11,11)" stroke-width="0.6" opacity="1" d="M 137 369 L 152.5 369 L 153 371 L 137.5 371 L 137 369 Z " /><path fill="rgb(10,11,11)" stroke="rgb(10,11,11)" stroke-width="0.6" opacity="1" d="M 156 369 L 158.5 370 L 183.5 370 L 184.5 371 L 256.5 372 L 257.5 371 L 304.5 371 L 305.5 370 L 332.5 370 L 334.5 369 Q 337.5 370.5 334.5 372 L 219.5 374 L 218.5 373 L 157.5 372 L 156 370.5 L 156 369 Z " /><path fill="rgb(10,11,11)" stroke="rgb(10,11,11)" stroke-width="0.6" opacity="1" d="M 337 369 L 354.5 369 L 355 371 L 337.5 371 L 337 369 Z " /><path fill="rgb(40,41,41)" stroke="rgb(40,41,41)" stroke-width="0.6" opacity="1" d="M 225.5 96 L 240 96.5 L 225.5 97 L 225.5 96 Z " /><path fill="rgb(40,41,41)" stroke="rgb(40,41,41)" stroke-width="0.6" opacity="1" d="M 238 117 L 246 117.5 L 240 118.5 L 240.5 120 L 227 119.5 L 238 119 L 238 117 Z " /><path fill="rgb(40,41,41)" stroke="rgb(40,41,41)" stroke-width="0.6" opacity="1" d="M 280.5 150 L 291 150.5 L 280.5 151 L 280.5 150 Z " /><path fill="rgb(40,41,41)" stroke="rgb(40,41,41)" stroke-width="0.6" opacity="1" d="M 272.5 153 L 283 153.5 L 272.5 154 L 272.5 153 Z " /><path fill="rgb(40,41,41)" stroke="rgb(40,41,41)" stroke-width="0.6" opacity="1" d="M 252.5 173 L 266 173.5 L 252.5 174 L 252.5 173 Z " /><path fill="rgb(40,41,41)" stroke="rgb(40,41,41)" stroke-width="0.6" opacity="1" d="M 160.5 176 L 172 176.5 L 160.5 177 L 160.5 176 Z " /><path fill="rgb(40,41,41)" stroke="rgb(40,41,41)" stroke-width="0.6" opacity="1" d="M 246.5 176 L 259 176.5 L 246.5 177 L 246.5 176 Z " /><path fill="rgb(40,41,41)" stroke="rgb(40,41,41)" stroke-width="0.6" opacity="1" d="M 299.5 177 L 310 177.5 L 299.5 178 L 299.5 177 Z " /><path fill="rgb(40,41,41)" stroke="rgb(40,41,41)" stroke-width="0.6" opacity="1" d="M 219.5 197 L 220 215.5 L 219 215.5 L 219.5 197 Z " /><path fill="rgb(40,41,41)" stroke="rgb(40,41,41)" stroke-width="0.6" opacity="1" d="M 183.5 204 L 184 218.5 L 183 218.5 L 183.5 204 Z " /><path fill="rgb(40,41,41)" stroke="rgb(40,41,41)" stroke-width="0.6" opacity="1" d="M 142.5 227 L 160 227.5 L 142.5 228 L 142.5 227 Z " /><path fill="rgb(40,41,41)" stroke="rgb(40,41,41)" stroke-width="0.6" opacity="1" d="M 190.5 227 L 210 227.5 L 190.5 228 L 190.5 227 Z " /><path fill="rgb(40,41,41)" stroke="rgb(40,41,41)" stroke-width="0.6" opacity="1" d="M 242.5 227 L 255 227.5 L 242.5 228 L 242.5 227 Z " /><path fill="rgb(40,41,41)" stroke="rgb(40,41,41)" stroke-width="0.6" opacity="1" d="M 288.5 227 L 307 227.5 L 288.5 228 L 288.5 227 Z " /><path fill="rgb(40,41,41)" stroke="rgb(40,41,41)" stroke-width="0.6" opacity="1" d="M 338.5 227 L 355 227.5 L 338.5 228 L 338.5 227 Z " /><path fill="rgb(40,41,41)" stroke="rgb(40,41,41)" stroke-width="0.6" opacity="1" d="M 185.5 234 L 214 234.5 L 185.5 235 L 185.5 234 Z " /><path fill="rgb(40,41,41)" stroke="rgb(40,41,41)" stroke-width="0.6" opacity="1" d="M 276.5 234 L 289 234.5 L 276.5 235 L 276.5 234 Z " /><path fill="rgb(40,41,41)" stroke="rgb(40,41,41)" stroke-width="0.6" opacity="1" d="M 339.5 235 L 380 235.5 L 339.5 236 L 339.5 235 Z " /><path fill="rgb(40,41,41)" stroke="rgb(40,41,41)" stroke-width="0.6" opacity="1" d="M 190.5 237 L 237 237.5 L 190.5 238 L 190.5 237 Z " /><path fill="rgb(40,41,41)" stroke="rgb(40,41,41)" stroke-width="0.6" opacity="1" d="M 356.5 238 L 376 238.5 L 356.5 239 L 356.5 238 Z " /><path fill="rgb(40,41,41)" stroke="rgb(40,41,41)" stroke-width="0.6" opacity="1" d="M 105.5 260 L 122 260.5 L 105.5 261 L 105.5 260 Z " /><path fill="rgb(40,41,41)" stroke="rgb(40,41,41)" stroke-width="0.6" opacity="1" d="M 228.5 261 L 391 261.5 L 228.5 262 L 228.5 261 Z " /><path fill="rgb(40,41,41)" stroke="rgb(40,41,41)" stroke-width="0.6" opacity="1" d="M 102.5 263 L 136 263.5 L 102.5 264 L 102.5 263 Z " /><path fill="rgb(40,41,41)" stroke="rgb(40,41,41)" stroke-width="0.6" opacity="1" d="M 379.5 275 L 395 275.5 L 379.5 276 L 379.5 275 Z " /><path fill="rgb(40,41,41)" stroke="rgb(40,41,41)" stroke-width="0.6" opacity="1" d="M 234.5 278 L 255 278.5 L 234.5 279 L 234.5 278 Z " /><path fill="rgb(40,41,41)" stroke="rgb(40,41,41)" stroke-width="0.6" opacity="1" d="M 304.5 278 L 327 278.5 L 304.5 279 L 304.5 278 Z " /><path fill="rgb(40,41,41)" stroke="rgb(40,41,41)" stroke-width="0.6" opacity="1" d="M 201.5 288 L 202 309.5 L 201 309.5 L 201.5 288 Z " /><path fill="rgb(40,41,41)" stroke="rgb(40,41,41)" stroke-width="0.6" opacity="1" d="M 292.5 291 L 293 308.5 L 292 308.5 L 292.5 291 Z " /><path fill="rgb(40,41,41)" stroke="rgb(40,41,41)" stroke-width="0.6" opacity="1" d="M 270.5 297 L 271 310.5 L 270 310.5 L 270.5 297 Z " /><path fill="rgb(40,41,41)" stroke="rgb(40,41,41)" stroke-width="0.6" opacity="1" d="M 405.5 298 L 406 310.5 L 405 310.5 L 405.5 298 Z " /><path fill="rgb(40,41,41)" stroke="rgb(40,41,41)" stroke-width="0.6" opacity="1" d="M 151.5 299 L 152 311.5 L 151 311.5 L 151.5 299 Z " /><path fill="rgb(40,41,41)" stroke="rgb(40,41,41)" stroke-width="0.6" opacity="1" d="M 177.5 325 L 189 325.5 L 177.5 326 L 177.5 325 Z " /><path fill="rgb(40,41,41)" stroke="rgb(40,41,41)" stroke-width="0.6" opacity="1" d="M 300.5 325 L 320 325.5 L 300.5 326 L 300.5 325 Z " /><path fill="rgb(40,41,41)" stroke="rgb(40,41,41)" stroke-width="0.6" opacity="1" d="M 166.5 337 L 199 337.5 L 166.5 338 L 166.5 337 Z " /><path fill="rgb(40,41,41)" stroke="rgb(40,41,41)" stroke-width="0.6" opacity="1" d="M 272.5 337 L 283 337.5 L 272.5 338 L 272.5 337 Z " /><path fill="rgb(40,41,41)" stroke="rgb(40,41,41)" stroke-width="0.6" opacity="1" d="M 285.5 337 L 302 337.5 L 285.5 338 L 285.5 337 Z " /><path fill="rgb(40,41,41)" stroke="rgb(40,41,41)" stroke-width="0.6" opacity="1" d="M 133 368 L 143 368.5 L 137 369 L 136.5 371 L 127.5 371 L 127.5 370 Q 134.4 372 133 368 Z " /><path fill="rgb(40,41,41)" stroke="rgb(40,41,41)" stroke-width="0.6" opacity="1" d="M 348.5 368 L 357.5 368 Q 356.6 371.2 364.5 370 L 364.5 371 L 355.5 371 Q 356.4 367.8 348.5 369 L 348.5 368 Z " /><path fill="rgb(40,41,41)" stroke="rgb(40,41,41)" stroke-width="0.6" opacity="1" d="M 231.5 371 L 257 371.5 L 231.5 372 L 231.5 371 Z " /><path fill="rgb(40,41,41)" stroke="rgb(40,41,41)" stroke-width="0.6" opacity="1" d="M 269.5 373 L 280 373.5 L 269.5 374 L 269.5 373 Z " /><path fill="rgb(40,41,41)" stroke="rgb(40,41,41)" stroke-width="0.6" opacity="1" d="M 444.5 386 L 438.5 393 L 444.5 386 Z " /><path fill="rgb(40,41,41)" stroke="rgb(40,41,41)" stroke-width="0.6" opacity="1" d="M 230.5 415 L 273 415.5 L 230.5 416 L 230.5 415 Z " /><path fill="rgb(71,71,68)" stroke="rgb(71,71,68)" stroke-width="0.6" opacity="1" d="M 200.5 149 L 239 149.5 L 200.5 150 L 200.5 149 Z " /><path fill="rgb(71,71,68)" stroke="rgb(71,71,68)" stroke-width="0.6" opacity="1" d="M 172.5 176 L 210 176.5 L 172.5 177 L 172.5 176 Z " /><path fill="rgb(71,71,68)" stroke="rgb(71,71,68)" stroke-width="0.6" opacity="1" d="M 216.5 176 L 246 176.5 L 216.5 177 L 216.5 176 Z " /><path fill="rgb(71,71,68)" stroke="rgb(71,71,68)" stroke-width="0.6" opacity="1" d="M 371.5 179 Q 378.5 177.5 380 181.5 L 377.5 180 L 371.5 180 L 371.5 179 Z " /><path fill="rgb(71,71,68)" stroke="rgb(71,71,68)" stroke-width="0.6" opacity="1" d="M 194.5 189 L 208 189.5 L 194.5 190 L 194.5 189 Z " /><path fill="rgb(71,71,68)" stroke="rgb(71,71,68)" stroke-width="0.6" opacity="1" d="M 281.5 198 L 282 214.5 L 281 214.5 L 281.5 198 Z " /><path fill="rgb(71,71,68)" stroke="rgb(71,71,68)" stroke-width="0.6" opacity="1" d="M 265.5 200 L 266 216.5 L 265 216.5 L 265.5 200 Z " /><path fill="rgb(71,71,68)" stroke="rgb(71,71,68)" stroke-width="0.6" opacity="1" d="M 230.5 201 L 231 216.5 L 230 216.5 L 230.5 201 Z " /><path fill="rgb(71,71,68)" stroke="rgb(71,71,68)" stroke-width="0.6" opacity="1" d="M 233.5 201 L 234 213.5 L 233 213.5 L 233.5 201 Z " /><path fill="rgb(71,71,68)" stroke="rgb(71,71,68)" stroke-width="0.6" opacity="1" d="M 314.5 206 L 315 217.5 L 314 217.5 L 314.5 206 Z " /><path fill="rgb(71,71,68)" stroke="rgb(71,71,68)" stroke-width="0.6" opacity="1" d="M 134.5 209 L 135 219.5 L 134 219.5 L 134.5 209 Z " /><path fill="rgb(71,71,68)" stroke="rgb(71,71,68)" stroke-width="0.6" opacity="1" d="M 117.5 233 L 131 233.5 L 117.5 234 L 117.5 233 Z " /><path fill="rgb(71,71,68)" stroke="rgb(71,71,68)" stroke-width="0.6" opacity="1" d="M 214.5 234 L 250 234.5 L 214.5 235 L 214.5 234 Z " /><path fill="rgb(71,71,68)" stroke="rgb(71,71,68)" stroke-width="0.6" opacity="1" d="M 289.5 234 L 300 234.5 L 289.5 235 L 289.5 234 Z " /><path fill="rgb(71,71,68)" stroke="rgb(71,71,68)" stroke-width="0.6" opacity="1" d="M 390.5 234 L 403 235.5 L 391.5 236 L 390.5 234 Z " /><path fill="rgb(71,71,68)" stroke="rgb(71,71,68)" stroke-width="0.6" opacity="1" d="M 87.5 237 L 114 237.5 L 87.5 238 L 87.5 237 Z " /><path fill="rgb(71,71,68)" stroke="rgb(71,71,68)" stroke-width="0.6" opacity="1" d="M 123.5 237 L 190 237.5 L 123.5 238 L 123.5 237 Z " /><path fill="rgb(71,71,68)" stroke="rgb(71,71,68)" stroke-width="0.6" opacity="1" d="M 333.5 238 L 356 238.5 L 333.5 239 L 333.5 238 Z " /><path fill="rgb(71,71,68)" stroke="rgb(71,71,68)" stroke-width="0.6" opacity="1" d="M 122.5 260 L 139 260.5 L 122.5 261 L 122.5 260 Z " /><path fill="rgb(71,71,68)" stroke="rgb(71,71,68)" stroke-width="0.6" opacity="1" d="M 88.5 263 L 102 263.5 L 88.5 264 L 88.5 263 Z " /><path fill="rgb(71,71,68)" stroke="rgb(71,71,68)" stroke-width="0.6" opacity="1" d="M 212.5 264 L 405 264.5 L 212.5 265 L 212.5 264 Z " /><path fill="rgb(71,71,68)" stroke="rgb(71,71,68)" stroke-width="0.6" opacity="1" d="M 167.5 275 L 182 275.5 L 167.5 276 L 167.5 275 Z " /><path fill="rgb(71,71,68)" stroke="rgb(71,71,68)" stroke-width="0.6" opacity="1" d="M 167.5 278 L 183 278.5 L 167.5 279 L 167.5 278 Z " /><path fill="rgb(71,71,68)" stroke="rgb(71,71,68)" stroke-width="0.6" opacity="1" d="M 358.5 293 L 359 303.5 L 358 303.5 L 358.5 293 Z " /><path fill="rgb(71,71,68)" stroke="rgb(71,71,68)" stroke-width="0.6" opacity="1" d="M 154.5 295 L 155 312.5 L 154 312.5 L 154.5 295 Z " /><path fill="rgb(71,71,68)" stroke="rgb(71,71,68)" stroke-width="0.6" opacity="1" d="M 337.5 299 L 338 310.5 L 337 310.5 L 337.5 299 Z " /><path fill="rgb(71,71,68)" stroke="rgb(71,71,68)" stroke-width="0.6" opacity="1" d="M 267.5 300 L 268 312.5 L 267 312.5 L 267.5 300 Z " /><path fill="rgb(71,71,68)" stroke="rgb(71,71,68)" stroke-width="0.6" opacity="1" d="M 239.5 323 L 253 323.5 L 239.5 324 L 239.5 323 Z " /><path fill="rgb(71,71,68)" stroke="rgb(71,71,68)" stroke-width="0.6" opacity="1" d="M 237.5 326 L 256 326.5 L 237.5 327 L 237.5 326 Z " /><path fill="rgb(71,71,68)" stroke="rgb(71,71,68)" stroke-width="0.6" opacity="1" d="M 142.5 336 L 153 336.5 L 142.5 337 L 142.5 336 Z " /><path fill="rgb(71,71,68)" stroke="rgb(71,71,68)" stroke-width="0.6" opacity="1" d="M 216.5 415 L 230 415.5 L 216.5 416 L 216.5 415 Z " /><path fill="rgb(71,71,68)" stroke="rgb(71,71,68)" stroke-width="0.6" opacity="1" d="M 273.5 415 L 289 415.5 L 273.5 416 L 273.5 415 Z " /><path fill="rgb(70,123,169)" stroke="rgb(70,123,169)" stroke-width="0.6" opacity="1" d="M 214.5 101 L 226 101.5 L 214.5 102 L 214.5 101 Z " /><path fill="rgb(70,123,169)" stroke="rgb(70,123,169)" stroke-width="0.6" opacity="1" d="M 228 115 L 238 116.5 L 228 117 L 228 115 Z " /><path fill="rgb(70,123,169)" stroke="rgb(70,123,169)" stroke-width="0.6" opacity="1" d="M 206.5 153 L 224 153.5 L 206.5 154 L 206.5 153 Z " /><path fill="rgb(70,123,169)" stroke="rgb(70,123,169)" stroke-width="0.6" opacity="1" d="M 151.5 154 L 175 154.5 L 151.5 155 L 151.5 154 Z " /><path fill="rgb(70,123,169)" stroke="rgb(70,123,169)" stroke-width="0.6" opacity="1" d="M 256.5 154 L 285 154.5 L 256.5 155 L 256.5 154 Z " /><path fill="rgb(70,123,169)" stroke="rgb(70,123,169)" stroke-width="0.6" opacity="1" d="M 292 154 L 306 155.5 L 292 156 L 292 154 Z " /><path fill="rgb(70,123,169)" stroke="rgb(70,123,169)" stroke-width="0.6" opacity="1" d="M 310.5 155 L 323 155.5 L 310.5 156 L 310.5 155 Z " /><path fill="rgb(70,123,169)" stroke="rgb(70,123,169)" stroke-width="0.6" opacity="1" d="M 114.5 169 L 115 173 L 130 173.5 L 115.5 174 Q 112.8 172.8 114.5 169 Z " /><path fill="rgb(70,123,169)" stroke="rgb(70,123,169)" stroke-width="0.6" opacity="1" d="M 304.5 173 L 321 173.5 L 304.5 174 L 304.5 173 Z " /><path fill="rgb(70,123,169)" stroke="rgb(70,123,169)" stroke-width="0.6" opacity="1" d="M 344.5 174 L 361 174.5 L 344.5 175 L 344.5 174 Z " /><path fill="rgb(70,123,169)" stroke="rgb(70,123,169)" stroke-width="0.6" opacity="1" d="M 240.5 190 L 258 190.5 L 240.5 191 L 240.5 190 Z " /><path fill="rgb(70,123,169)" stroke="rgb(70,123,169)" stroke-width="0.6" opacity="1" d="M 264.5 197 L 265 218.5 L 262.5 223 L 260.5 224 L 238.5 224 L 238.5 223 L 260.5 223 L 263 222 L 264 218.5 L 264.5 197 Z " /><path fill="rgb(70,123,169)" stroke="rgb(70,123,169)" stroke-width="0.6" opacity="1" d="M 89.5 264 L 104 264.5 L 89.5 265 L 89.5 264 Z " /><path fill="rgb(70,123,169)" stroke="rgb(70,123,169)" stroke-width="0.6" opacity="1" d="M 124.5 264 L 138 264.5 L 124.5 265 L 124.5 264 Z " /><path fill="rgb(70,123,169)" stroke="rgb(70,123,169)" stroke-width="0.6" opacity="1" d="M 184.5 265 L 264 265.5 L 184.5 266 L 184.5 265 Z " /><path fill="rgb(70,123,169)" stroke="rgb(70,123,169)" stroke-width="0.6" opacity="1" d="M 354.5 265 L 420.5 265 L 421 266.5 L 421.5 268 L 419.5 266 L 354.5 266 L 354.5 265 Z " /><path fill="rgb(70,123,169)" stroke="rgb(70,123,169)" stroke-width="0.6" opacity="1" d="M 136.5 287 L 137 305.5 L 136 305.5 L 136.5 287 Z " /><path fill="rgb(70,123,169)" stroke="rgb(70,123,169)" stroke-width="0.6" opacity="1" d="M 197.5 287 L 198 306.5 L 197 306.5 L 197.5 287 Z " /><path fill="rgb(70,123,169)" stroke="rgb(70,123,169)" stroke-width="0.6" opacity="1" d="M 357.5 287 L 358 307.5 L 357 307.5 L 357.5 287 Z " /><path fill="rgb(70,123,169)" stroke="rgb(70,123,169)" stroke-width="0.6" opacity="1" d="M 341.5 291 L 342 314.5 L 341 314.5 L 341.5 291 Z " /><path fill="rgb(70,123,169)" stroke="rgb(70,123,169)" stroke-width="0.6" opacity="1" d="M 271.5 293 L 272 314.5 L 271 314.5 L 271.5 293 Z " /><path fill="rgb(70,123,169)" stroke="rgb(70,123,169)" stroke-width="0.6" opacity="1" d="M 155.5 296 L 156 312.5 L 155 312.5 L 155.5 296 Z " /><path fill="rgb(70,123,169)" stroke="rgb(70,123,169)" stroke-width="0.6" opacity="1" d="M 218.5 296 L 220 317.5 L 219 317.5 L 218 315.5 L 218.5 296 Z " /><path fill="rgb(70,123,169)" stroke="rgb(70,123,169)" stroke-width="0.6" opacity="1" d="M 166.5 321 L 191 321.5 L 166.5 322 L 166.5 321 Z " /><path fill="rgb(70,123,169)" stroke="rgb(70,123,169)" stroke-width="0.6" opacity="1" d="M 302.5 326 L 317 326.5 L 302.5 327 L 302.5 326 Z " /><path fill="rgb(112,107,101)" stroke="rgb(112,107,101)" stroke-width="0.6" opacity="1" d="M 169.5 149 L 182 149.5 L 169.5 150 L 169.5 149 Z " /><path fill="rgb(112,107,101)" stroke="rgb(112,107,101)" stroke-width="0.6" opacity="1" d="M 278.5 198 L 279 213.5 L 278 213.5 L 277 199.5 L 278.5 198 Z " /><path fill="rgb(112,107,101)" stroke="rgb(112,107,101)" stroke-width="0.6" opacity="1" d="M 268.5 202 L 270 203.5 L 270 214 L 268 213.5 L 268.5 202 Z " /><path fill="rgb(112,107,101)" stroke="rgb(112,107,101)" stroke-width="0.6" opacity="1" d="M 289.5 223 L 300.5 223 L 301 225 L 288 224.5 L 289.5 223 Z " /><path fill="rgb(112,107,101)" stroke="rgb(112,107,101)" stroke-width="0.6" opacity="1" d="M 150.5 224 L 161 224.5 L 150.5 225 L 150.5 224 Z " /><path fill="rgb(112,107,101)" stroke="rgb(112,107,101)" stroke-width="0.6" opacity="1" d="M 240.5 224 L 259 224.5 L 240.5 225 L 240.5 224 Z " /><path fill="rgb(112,107,101)" stroke="rgb(112,107,101)" stroke-width="0.6" opacity="1" d="M 338.5 224 L 357 224.5 L 338.5 225 L 338.5 224 Z " /><path fill="rgb(112,107,101)" stroke="rgb(112,107,101)" stroke-width="0.6" opacity="1" d="M 110.5 232 L 109.5 234 L 94 233.5 L 110.5 232 Z " /><path fill="rgb(112,107,101)" stroke="rgb(112,107,101)" stroke-width="0.6" opacity="1" d="M 247.5 233 L 274.5 233 L 275 235 L 250.5 235 L 247.5 233 Z " /><path fill="rgb(112,107,101)" stroke="rgb(112,107,101)" stroke-width="0.6" opacity="1" d="M 274.5 238 L 333 238.5 L 274.5 239 L 274.5 238 Z " /><path fill="rgb(112,107,101)" stroke="rgb(112,107,101)" stroke-width="0.6" opacity="1" d="M 139.5 260 L 182 260.5 L 139.5 261 L 139.5 260 Z " /><path fill="rgb(112,107,101)" stroke="rgb(112,107,101)" stroke-width="0.6" opacity="1" d="M 182.5 264 L 212 264.5 L 182.5 265 L 182.5 264 Z " /><path fill="rgb(112,107,101)" stroke="rgb(112,107,101)" stroke-width="0.6" opacity="1" d="M 405.5 264 L 421 264.5 L 405.5 265 L 405.5 264 Z " /><path fill="rgb(112,107,101)" stroke="rgb(112,107,101)" stroke-width="0.6" opacity="1" d="M 222.5 294 L 223 312.5 L 222 312.5 L 222.5 294 Z " /><path fill="rgb(112,107,101)" stroke="rgb(112,107,101)" stroke-width="0.6" opacity="1" d="M 174.5 322 L 188 322.5 L 174.5 323 L 174.5 322 Z " /><path fill="rgb(112,107,101)" stroke="rgb(112,107,101)" stroke-width="0.6" opacity="1" d="M 204.5 341 L 267 341.5 L 204.5 342 L 204.5 341 Z " /><path fill="rgb(112,107,101)" stroke="rgb(112,107,101)" stroke-width="0.6" opacity="1" d="M 215.5 410 Q 224.1 408.3 223 412 L 213 411.5 L 215.5 410 Z " /><path fill="rgb(116,79,53)" stroke="rgb(116,79,53)" stroke-width="0.6" opacity="1" d="M 248.5 149 L 262 149.5 L 248.5 150 L 248.5 149 Z " /><path fill="rgb(116,79,53)" stroke="rgb(116,79,53)" stroke-width="0.6" opacity="1" d="M 146.5 177 L 158 177.5 L 146.5 178 L 146.5 177 Z " /><path fill="rgb(116,79,53)" stroke="rgb(116,79,53)" stroke-width="0.6" opacity="1" d="M 262.5 177 L 273 177.5 L 262.5 178 L 262.5 177 Z " /><path fill="rgb(116,79,53)" stroke="rgb(116,79,53)" stroke-width="0.6" opacity="1" d="M 241.5 186 L 258 186.5 L 241.5 187 L 241.5 186 Z " /><path fill="rgb(116,79,53)" stroke="rgb(116,79,53)" stroke-width="0.6" opacity="1" d="M 216.5 196 L 217 214.5 L 216 214.5 L 216.5 196 Z " /><path fill="rgb(116,79,53)" stroke="rgb(116,79,53)" stroke-width="0.6" opacity="1" d="M 131.5 233 L 188 233.5 L 131.5 234 L 131.5 233 Z " /><path fill="rgb(116,79,53)" stroke="rgb(116,79,53)" stroke-width="0.6" opacity="1" d="M 300.5 234 L 341 234.5 L 300.5 235 L 300.5 234 Z " /><path fill="rgb(116,79,53)" stroke="rgb(116,79,53)" stroke-width="0.6" opacity="1" d="M 379.5 278 L 394 278.5 L 379.5 279 L 379.5 278 Z " /><path fill="rgb(116,79,53)" stroke="rgb(116,79,53)" stroke-width="0.6" opacity="1" d="M 293.5 291 L 294 309.5 L 293 309.5 L 293.5 291 Z " /><path fill="rgb(116,79,53)" stroke="rgb(116,79,53)" stroke-width="0.6" opacity="1" d="M 301.5 322 L 318 322.5 L 301.5 323 L 301.5 322 Z " /><path fill="rgb(116,79,53)" stroke="rgb(116,79,53)" stroke-width="0.6" opacity="1" d="M 230.5 411 L 274 411.5 L 230.5 412 L 230.5 411 Z " /><path fill="rgb(55,107,122)" stroke="rgb(55,107,122)" stroke-width="0.6" opacity="1" d="M 225.5 100 L 239 100.5 L 225.5 101 L 225.5 100 Z " /><path fill="rgb(55,107,122)" stroke="rgb(55,107,122)" stroke-width="0.6" opacity="1" d="M 179.5 153 L 206 153.5 L 179.5 154 L 179.5 153 Z " /><path fill="rgb(55,107,122)" stroke="rgb(55,107,122)" stroke-width="0.6" opacity="1" d="M 224.5 153 L 250 153.5 L 224.5 154 L 224.5 153 Z " /><path fill="rgb(55,107,122)" stroke="rgb(55,107,122)" stroke-width="0.6" opacity="1" d="M 138.5 264 L 177 264.5 L 138.5 265 L 138.5 264 Z " /><path fill="rgb(55,107,122)" stroke="rgb(55,107,122)" stroke-width="0.6" opacity="1" d="M 101.5 274 L 116 274.5 L 101.5 275 L 101.5 274 Z " /><path fill="rgb(55,107,122)" stroke="rgb(55,107,122)" stroke-width="0.6" opacity="1" d="M 236.5 275 L 253 275.5 L 236.5 276 L 236.5 275 Z " /><path fill="rgb(55,107,122)" stroke="rgb(55,107,122)" stroke-width="0.6" opacity="1" d="M 306.5 275 L 326 275.5 L 306.5 276 L 306.5 275 Z " /><path fill="rgb(55,107,122)" stroke="rgb(55,107,122)" stroke-width="0.6" opacity="1" d="M 289.5 290 L 290 309.5 L 289 309.5 L 289.5 290 Z " /><path fill="rgb(55,107,122)" stroke="rgb(55,107,122)" stroke-width="0.6" opacity="1" d="M 335.5 335 L 346 335.5 L 335.5 336 L 335.5 335 Z " /><path fill="rgb(55,107,122)" stroke="rgb(55,107,122)" stroke-width="0.6" opacity="1" d="M 303.5 336 L 314 336.5 L 303.5 337 L 303.5 336 Z " /><path fill="rgb(55,107,122)" stroke="rgb(55,107,122)" stroke-width="0.6" opacity="1" d="M 206.5 337 L 263 337.5 L 206.5 338 L 206.5 337 Z " /><path fill="rgb(194,187,167)" stroke="rgb(194,187,167)" stroke-width="0.6" opacity="1" d="M 203.5 238 L 238 238.5 L 203.5 239 L 203.5 238 Z " /><path fill="rgb(194,187,167)" stroke="rgb(194,187,167)" stroke-width="0.6" opacity="1" d="M 357.5 239 L 378 239.5 L 357.5 240 L 357.5 239 Z " /><path fill="rgb(194,187,167)" stroke="rgb(194,187,167)" stroke-width="0.6" opacity="1" d="M 94.5 259 L 122 259.5 L 94.5 260 L 94.5 259 Z " /><path fill="rgb(194,187,167)" stroke="rgb(194,187,167)" stroke-width="0.6" opacity="1" d="M 209.5 260 L 404 260.5 L 209.5 261 L 209.5 260 Z " /><path fill="rgb(194,187,167)" stroke="rgb(194,187,167)" stroke-width="0.6" opacity="1" d="M 101.5 278 L 113 278.5 L 101.5 279 L 101.5 278 Z " /><path fill="rgb(194,187,167)" stroke="rgb(194,187,167)" stroke-width="0.6" opacity="1" d="M 234.5 279 L 255 279.5 L 234.5 280 L 234.5 279 Z " /><path fill="rgb(153,149,139)" stroke="rgb(153,149,139)" stroke-width="0.6" opacity="1" d="M 147.5 190 L 162 190.5 L 147.5 191 L 147.5 190 Z " /><path fill="rgb(153,149,139)" stroke="rgb(153,149,139)" stroke-width="0.6" opacity="1" d="M 238.5 238 L 274 238.5 L 238.5 239 L 238.5 238 Z " /><path fill="rgb(153,149,139)" stroke="rgb(153,149,139)" stroke-width="0.6" opacity="1" d="M 378.5 239 L 402 239.5 L 378.5 240 L 378.5 239 Z " /><path fill="rgb(153,149,139)" stroke="rgb(153,149,139)" stroke-width="0.6" opacity="1" d="M 71.5 259 L 94 259.5 L 71.5 260 L 71.5 259 Z " /><path fill="rgb(153,149,139)" stroke="rgb(153,149,139)" stroke-width="0.6" opacity="1" d="M 182.5 260 L 209 260.5 L 182.5 261 L 182.5 260 Z " /><path fill="rgb(153,149,139)" stroke="rgb(153,149,139)" stroke-width="0.6" opacity="1" d="M 404.5 260 L 426 260.5 L 404.5 261 L 404.5 260 Z " /><path fill="rgb(178,62,54)" stroke="rgb(178,62,54)" stroke-width="0.6" opacity="1" d="M 221.5 120 L 245 120.5 L 221.5 121 L 221.5 120 Z " /><path fill="rgb(178,62,54)" stroke="rgb(178,62,54)" stroke-width="0.6" opacity="1" d="M 184.5 202 L 185 218.5 L 184 218.5 L 184.5 202 Z " /><path fill="rgb(178,62,54)" stroke="rgb(178,62,54)" stroke-width="0.6" opacity="1" d="M 404.5 296 L 405 311.5 L 404 311.5 L 404.5 296 Z " /><path fill="rgb(178,62,54)" stroke="rgb(178,62,54)" stroke-width="0.6" opacity="1" d="M 143.5 340 L 154 340.5 L 143.5 341 L 143.5 340 Z " /><path fill="rgb(178,62,54)" stroke="rgb(178,62,54)" stroke-width="0.6" opacity="1" d="M 320.5 340 L 331 340.5 L 320.5 341 L 320.5 340 Z " /><path fill="rgb(178,62,54)" stroke="rgb(178,62,54)" stroke-width="0.6" opacity="1" d="M 176.5 341 L 197 341.5 L 176.5 342 L 176.5 341 Z " /><path fill="rgb(178,62,54)" stroke="rgb(178,62,54)" stroke-width="0.6" opacity="1" d="M 274.5 341 L 297 341.5 L 274.5 342 L 274.5 341 Z " /><path fill="rgb(178,62,54)" stroke="rgb(178,62,54)" stroke-width="0.6" opacity="1" d="M 173.5 369 L 184 369.5 L 173.5 370 L 173.5 369 Z " /><path fill="rgb(178,62,54)" stroke="rgb(178,62,54)" stroke-width="0.6" opacity="1" d="M 306.5 369 L 317 369.5 L 306.5 370 L 306.5 369 Z " /><path fill="rgb(178,62,54)" stroke="rgb(178,62,54)" stroke-width="0.6" opacity="1" d="M 213.5 370 L 274 370.5 L 213.5 371 L 213.5 370 Z " /><path fill="rgb(214,214,214)" stroke="rgb(214,214,214)" stroke-width="0.6" opacity="1" d="M 224.5 95 L 241 95.5 L 224.5 96 L 224.5 95 Z " /><path fill="rgb(214,214,214)" stroke="rgb(214,214,214)" stroke-width="0.6" opacity="1" d="M 276.5 147 Q 278.4 150.6 285 149.5 L 277.5 150 L 276.5 147 Z " /><path fill="rgb(214,214,214)" stroke="rgb(214,214,214)" stroke-width="0.6" opacity="1" d="M 446.5 385 L 438.5 394 L 446.5 385 Z " /><path fill="rgb(214,214,214)" stroke="rgb(214,214,214)" stroke-width="0.6" opacity="1" d="M 238.5 416 L 263 416.5 L 238.5 417 L 238.5 416 Z " /></svg>