<svg width="627" height="627" preserveAspectRatio="xMidYMid meet" viewBox="0 0 512 512" version="1.1" xmlns="http://www.w3.org/2000/svg" ><path fill="rgb(255,255,255)" stroke="rgb(255,255,255)" stroke-width="0.6" opacity="1" d="M 0 0 L 512 0 L 512 512 L 0 512 L 0 0 Z M 79 92 L 63 94 L 51 99 L 42 109 L 43 119 L 55 128 L 75 134 L 77 138 L 93 197 L 86 202 L 71 175 L 60 167 L 48 168 L 40 177 Q 38 190 42 199 Q 49 216 61 229 L 57 242 L 58 266 L 67 284 L 84 299 L 71 319 L 68 322 Q 43 325 27 335 L 22 342 L 22 354 L 29 366 L 45 377 L 57 381 L 72 383 L 99 383 Q 109 380 122 381 L 123 388 L 130 400 Q 140 409 154 415 L 178 420 L 228 419 L 231 417 L 248 416 L 288 407 L 336 391 Q 357 383 374 369 L 388 353 L 393 341 L 392 329 L 384 322 L 354 322 L 345 324 L 336 310 L 357 312 L 405 311 L 424 306 L 435 300 Q 442 296 443 286 L 441 278 Q 437 271 428 269 L 383 260 Q 378 261 379 258 Q 405 248 424 230 L 440 233 L 472 233 L 485 228 L 489 222 L 488 211 Q 481 205 471 203 L 439 198 L 434 196 L 435 186 L 437 184 L 453 182 L 465 176 Q 471 171 472 162 L 470 155 Q 465 148 457 145 L 446 144 L 444 143 L 445 135 L 445 120 L 441 109 L 432 101 L 417 101 L 406 106 L 395 118 L 386 133 L 316 124 L 307 121 L 287 120 L 271 116 L 260 116 L 239 111 L 220 110 L 206 106 L 195 106 L 192 104 L 169 102 L 130 94 Q 117 95 109 92 L 79 92 Z " /><path fill="rgb(67,132,185)" stroke="rgb(67,132,185)" stroke-width="0.6" opacity="1" d="M 84.5 137 L 90 141.5 L 90 145.5 L 102 181.5 L 103 192.5 Q 101 196 99 191.5 L 93 178.5 L 83 138.5 L 84.5 137 Z " /><path fill="rgb(67,132,185)" stroke="rgb(67,132,185)" stroke-width="0.6" opacity="1" d="M 179.5 138 L 210.5 138 L 223.5 141 Q 227.1 145.4 234.5 146 L 238 149.5 L 239.5 152 L 242 153.5 L 247 161.5 L 248 174.5 L 245 196.5 L 245 208.5 L 247.5 212 L 257.5 213 L 272.5 209 L 277 206 Q 283.4 200.2 282 185.5 L 280 172.5 L 282.5 171 L 286 174.5 L 287 201.5 L 289.5 204 L 303.5 202 L 315.5 192 L 319.5 192 L 327.5 194 L 355.5 196 L 363 199 L 358 213.5 L 356 225.5 L 353.5 228 L 290.5 244 L 263.5 244 L 259.5 246 L 248.5 246 L 214.5 251 L 199.5 256 L 192 262.5 L 191 271.5 Q 196.5 279.3 206 282 Q 206.8 287.5 201.5 289 L 192.5 293 L 167.5 298 L 146.5 299 L 142 296.5 Q 137.8 287.2 130 281.5 L 130 276.5 L 133 272.5 L 135 263.5 L 134 261.5 L 135 248.5 Q 131.3 225.7 116.5 214 Q 110.3 208.7 99.5 208 L 90.5 209 L 89 207.5 L 93.5 203 L 115.5 194 L 142.5 193 L 165.5 199 L 201.5 214 L 222.5 216 Q 229.8 215.8 232 210.5 Q 240.5 197 239 173.5 Q 237.4 161.6 229.5 156 Q 211.8 143.7 182.5 143 L 178.5 144 L 172.5 143 L 165 145 L 166.5 143 L 179.5 138 Z " /><path fill="rgb(67,132,185)" stroke="rgb(67,132,185)" stroke-width="0.6" opacity="1" d="M 164.5 167 Q 170.9 166.6 173 170.5 L 172.5 173 L 167.5 171 L 159 178.5 L 157 188.5 L 156.5 191 L 155 189.5 L 154 179.5 L 162.5 168 L 164.5 167 Z " /><path fill="rgb(67,132,185)" stroke="rgb(67,132,185)" stroke-width="0.6" opacity="1" d="M 364.5 183 L 368 184.5 L 364.5 193 L 359 192 L 359 189.5 L 364.5 183 Z " /><path fill="rgb(67,132,185)" stroke="rgb(67,132,185)" stroke-width="0.6" opacity="1" d="M 425.5 186 L 429 187.5 L 428 195.5 L 425.5 198 Q 408 198.5 395.5 204 L 393 203 L 394 191.5 L 396.5 187 L 424.5 187 L 425.5 186 Z " /><path fill="rgb(67,132,185)" stroke="rgb(67,132,185)" stroke-width="0.6" opacity="1" d="M 88 213 L 107.5 214 L 123 227.5 Q 132.4 238.6 131 260.5 L 129 270.5 L 125.5 275 L 116 265.5 L 116 262.5 Q 119.5 258.5 118 249.5 Q 115.4 235.1 105.5 228 L 99.5 225 Q 91.3 227.3 89 223.5 L 88 213 Z " /><path fill="rgb(67,132,185)" stroke="rgb(67,132,185)" stroke-width="0.6" opacity="1" d="M 350.5 232 Q 354.3 230.8 353 234.5 L 346.5 254 L 301 248 L 302.5 246 L 348.5 234 L 350.5 232 Z " /><path fill="rgb(67,132,185)" stroke="rgb(67,132,185)" stroke-width="0.6" opacity="1" d="M 103.5 260 L 113.5 271 L 118 274.5 Q 131.9 287.6 141 305.5 L 143 311.5 L 143 326.5 L 139.5 331 L 129.5 332 L 122 328 L 105 298.5 L 100 281.5 L 97 276.5 L 97 268.5 L 103.5 260 Z " /><path fill="rgb(67,132,185)" stroke="rgb(67,132,185)" stroke-width="0.6" opacity="1" d="M 197.5 268 L 227.5 278 L 232.5 278 L 290.5 292 L 305.5 293 L 309.5 295 L 336.5 298 L 340.5 300 L 343.5 299 L 356.5 300 L 359.5 302 L 391.5 302 L 417.5 297 L 435 289 L 430.5 296 L 425.5 299 L 402.5 305 L 354.5 306 L 345.5 304 L 325.5 303 L 270.5 293 L 216.5 280 Q 204.2 277.8 197 270.5 L 197.5 268 Z " /><path fill="rgb(67,132,185)" stroke="rgb(67,132,185)" stroke-width="0.6" opacity="1" d="M 278 300 L 297.5 304 L 310.5 305 L 315 309.5 L 324 328 L 306.5 331 L 298.5 331 L 280 306.5 L 278 300 Z " /><path fill="rgb(67,132,185)" stroke="rgb(67,132,185)" stroke-width="0.6" opacity="1" d="M 321.5 308 Q 327.5 306.5 329 309.5 L 339 329.5 L 346 338.5 Q 344.5 341.5 338.5 340 L 336 339 L 335 332.5 L 321.5 308 Z " /><path fill="rgb(67,132,185)" stroke="rgb(67,132,185)" stroke-width="0.6" opacity="1" d="M 350.5 328 L 382.5 328 L 386 331.5 L 384.5 335 L 345.5 349 L 254.5 372 L 198.5 382 L 143.5 383 L 133.5 381 L 129 377.5 L 134.5 371 L 146.5 365 L 177.5 359 Q 181 362 181 368.5 L 185.5 373 L 193.5 374 L 201 368.5 L 196 356 L 203.5 353 L 221.5 352 L 227.5 349 L 284.5 341 L 292.5 352 L 301.5 353 L 308 348.5 L 308 345.5 L 303 338.5 L 304 336 L 328.5 333 L 334.5 342 L 346.5 343 Q 351 342 350 335.5 L 348 330.5 L 350.5 328 Z " /><path fill="rgb(1,1,1)" stroke="rgb(1,1,1)" stroke-width="0.6" opacity="1" d="M 80.5 92 L 106.5 92 L 124.5 94 L 169.5 103 L 191.5 105 L 195.5 107 L 206.5 107 L 220.5 111 L 239.5 112 L 255.5 116 L 266.5 116 L 287.5 121 L 307.5 122 L 311.5 124 L 341.5 127 L 350.5 130 L 386.5 134 L 397 116.5 L 407.5 106 L 418.5 101 L 428.5 101 Q 436.2 102.8 440 108.5 L 445 121.5 L 445 132.5 L 444 142.5 L 446.5 145 L 456.5 146 L 468 153.5 Q 471.7 156.3 471 163.5 Q 468.5 172.5 461.5 177 Q 452.5 183.5 436.5 183 L 434 185.5 L 433 196.5 L 434.5 198 L 467.5 203 L 481.5 207 L 489 213.5 L 489 220.5 L 482.5 228 L 468.5 233 L 443.5 233 L 422.5 229 Q 403.9 248.1 377 258 L 378.5 260 L 424.5 269 Q 435.6 271.4 441 279.5 L 442 287.5 L 435.5 298 L 423.5 305 L 405.5 310 Q 394.5 308 389.5 312 L 358.5 312 L 335.5 309 Q 332.3 310.8 336 312.5 L 343.5 325 L 357.5 322 L 380.5 322 L 391 328.5 L 392 340.5 L 387 352.5 L 370.5 370 Q 355.1 382.1 335.5 390 L 284.5 407 L 248.5 415 L 231.5 416 L 227.5 418 Q 214.4 415.9 207.5 420 L 181.5 420 L 155.5 415 Q 142 409.5 132 400.5 Q 124.9 392.1 121.5 380 L 110.5 380 L 106.5 382 L 96.5 383 L 73.5 383 L 70.5 381 L 59.5 381 L 46.5 377 Q 35.8 372.2 29 363.5 L 23 353.5 L 23 341.5 L 28.5 335 L 39.5 329 L 60.5 323 L 67.5 323 L 72 318.5 L 85 297.5 L 69 284.5 L 59 266.5 L 57 256.5 L 57 245.5 L 62 227.5 Q 51 216.5 44 201.5 L 40 190.5 L 40 178.5 L 47.5 169 L 57.5 167 Q 67.3 169.7 72 177.5 L 85.5 203 L 94 196.5 L 75.5 133 L 54.5 127 L 44 118.5 L 43 108.5 L 50.5 100 L 61.5 95 L 80.5 92 Z M 86 97 L 67 99 L 53 104 L 48 111 L 53 114 L 71 120 L 155 140 L 164 140 L 175 134 Q 183 136 187 132 L 203 132 L 219 135 L 233 140 L 252 153 L 304 161 L 312 161 L 329 165 L 349 166 L 361 169 L 374 169 L 388 171 L 442 170 L 458 166 L 464 162 L 465 158 L 455 150 L 423 144 L 413 144 L 404 141 L 386 140 L 377 137 L 359 136 L 350 133 L 332 132 L 324 129 L 298 127 L 289 124 L 271 123 L 247 118 L 237 118 L 229 115 L 204 113 L 196 110 L 185 110 L 133 100 L 115 99 L 112 97 L 86 97 Z M 424 105 L 408 111 L 392 135 L 399 137 Q 419 137 435 142 L 439 141 L 439 118 L 435 110 Q 431 105 424 105 Z M 51 115 L 49 118 L 55 122 L 70 128 L 153 148 L 157 145 L 147 139 Q 95 131 51 115 Z M 84 136 L 82 138 L 92 178 L 101 195 L 104 193 L 104 187 L 90 140 L 84 136 Z M 181 137 L 165 143 L 162 147 L 172 144 Q 209 142 230 157 Q 236 162 238 172 Q 240 196 232 210 L 225 215 L 201 213 L 165 198 L 142 192 L 117 193 L 98 200 L 90 205 L 87 210 L 90 209 Q 108 207 117 215 Q 130 226 134 247 Q 137 267 129 277 L 129 282 Q 138 288 143 299 L 165 299 L 192 294 L 203 289 L 208 284 L 199 278 L 192 272 L 192 264 L 201 256 L 214 252 L 244 247 L 259 247 L 262 245 L 274 244 L 287 245 L 354 229 L 357 226 L 358 217 L 364 200 L 354 195 L 325 193 L 315 191 L 313 194 Q 306 203 290 203 L 288 202 L 288 188 L 286 174 L 282 170 L 279 172 L 281 183 Q 283 196 278 204 L 273 208 L 259 212 Q 248 214 246 209 L 246 192 L 248 177 Q 250 158 241 152 L 236 146 L 223 140 L 209 137 L 181 137 Z M 96 139 L 94 141 L 108 188 L 111 191 Q 118 187 130 187 L 150 154 L 146 151 L 96 139 Z M 175 147 L 158 152 Q 143 166 136 188 L 147 191 Q 152 192 153 190 L 151 186 Q 151 177 155 172 L 159 169 L 160 170 L 154 178 Q 151 189 158 192 L 158 190 L 160 178 L 168 172 L 172 173 L 174 173 L 176 171 L 178 175 Q 179 186 174 192 L 168 197 L 193 206 L 195 206 L 188 196 L 188 188 L 192 180 L 202 172 Q 209 171 212 175 L 217 182 Q 219 195 213 201 L 204 207 Q 200 206 201 209 Q 210 213 226 211 L 232 203 L 234 193 L 234 171 L 232 166 Q 222 154 205 150 L 195 148 L 175 147 Z M 251 155 L 249 157 L 250 160 L 266 164 L 276 166 L 286 166 L 307 171 L 347 175 L 360 178 L 403 180 L 404 181 L 437 180 L 454 176 L 461 172 L 465 167 L 464 164 L 457 169 L 446 172 L 436 172 L 433 174 L 420 174 L 419 175 L 416 174 L 385 174 L 372 173 L 366 171 L 355 171 L 251 155 Z M 254 166 L 252 168 L 251 194 L 249 200 Q 247 206 251 208 Q 265 209 273 204 L 277 199 Q 279 182 275 171 L 274 169 L 254 166 Z M 52 172 L 45 180 L 45 192 L 53 210 L 76 237 L 86 233 L 86 226 L 78 198 L 67 179 Q 64 170 52 172 Z M 292 173 L 290 175 Q 293 184 292 198 L 294 199 Q 304 199 308 194 L 308 189 L 301 176 Q 299 172 292 173 Z M 170 175 Q 166 176 167 182 L 172 183 L 174 179 L 170 175 Z M 201 175 L 199 176 L 190 190 Q 189 200 196 203 L 198 202 L 196 198 Q 195 189 199 186 L 205 181 Q 211 180 213 183 L 214 182 L 208 175 L 201 175 Z M 309 176 L 307 178 L 310 185 L 319 188 L 353 190 Q 357 188 356 182 L 309 176 Z M 365 182 L 363 183 L 357 192 L 365 194 Q 369 191 368 184 L 365 182 Z M 210 184 L 208 185 L 205 189 L 208 192 L 212 191 L 211 186 L 210 184 Z M 373 184 L 370 189 L 362 222 L 344 279 L 351 281 L 354 277 L 380 186 Q 379 183 373 184 Z M 387 185 Q 381 189 381 199 L 389 205 L 390 204 L 392 187 L 387 185 Z M 427 185 L 426 186 L 396 186 L 394 188 L 392 200 L 394 205 L 411 200 L 426 199 Q 430 196 429 187 L 427 185 Z M 419 202 L 398 207 L 396 210 L 418 215 L 447 219 L 474 219 L 481 217 L 483 214 L 478 210 L 467 209 L 461 206 L 438 202 L 419 202 Z M 380 203 L 374 219 L 376 222 L 385 220 L 388 215 L 387 210 L 380 203 Z M 394 211 L 392 216 L 418 224 L 447 228 Q 467 230 480 225 L 484 218 L 470 222 L 447 222 Q 442 219 433 220 L 394 211 Z M 89 212 L 87 214 L 88 224 Q 90 227 99 225 L 105 228 Q 114 235 117 249 Q 119 259 115 264 L 115 266 L 126 276 Q 130 272 131 265 Q 134 240 124 228 L 109 214 Q 100 211 89 212 Z M 390 220 Q 384 225 374 225 L 371 228 L 363 256 L 365 258 L 370 258 L 392 247 L 412 234 L 416 228 L 390 220 Z M 93 229 L 91 234 L 99 238 Q 105 244 104 257 L 110 260 L 112 260 L 112 247 L 106 235 L 98 229 L 93 229 Z M 352 231 L 349 233 L 300 246 Q 296 245 297 248 L 347 255 L 354 233 L 352 231 Z M 66 234 L 63 239 L 62 250 Q 62 270 71 281 Q 80 294 100 296 L 97 286 L 95 283 L 84 280 L 68 264 L 66 259 L 66 249 L 71 239 L 66 234 Z M 85 237 L 77 240 Q 70 244 69 254 L 71 262 L 82 268 L 93 267 L 100 257 Q 101 246 96 242 Q 93 237 85 237 Z M 279 248 L 232 252 L 207 257 L 201 260 L 198 264 L 198 266 L 196 271 Q 204 278 218 281 L 267 293 L 328 304 L 339 304 L 362 307 L 402 306 L 425 300 L 432 296 L 436 291 L 435 288 L 428 292 L 425 292 L 434 287 Q 437 286 436 282 L 430 275 L 419 272 L 362 263 Q 357 270 356 281 L 353 283 Q 343 285 341 281 L 345 261 L 334 257 L 279 248 Z M 102 260 L 96 268 L 96 276 L 104 298 L 119 326 L 131 333 L 140 332 L 144 327 L 144 312 L 139 301 Q 129 284 115 271 L 105 260 L 102 260 Z M 84 272 L 82 274 L 90 279 L 94 278 L 92 274 Q 90 270 84 272 Z M 212 283 L 210 286 L 196 295 L 182 299 L 176 299 L 174 301 L 179 307 L 206 305 L 248 296 Q 253 298 252 294 L 212 283 Z M 263 296 L 261 298 L 262 302 L 292 345 Q 293 349 290 348 L 285 340 L 230 348 L 210 353 L 202 353 L 195 357 L 200 369 L 195 373 L 186 372 L 181 368 L 180 360 L 179 358 L 148 364 L 133 371 L 128 378 L 133 381 L 146 384 L 197 383 L 259 372 L 345 350 L 386 335 L 387 331 L 382 327 L 354 327 L 346 330 L 350 340 L 346 343 L 336 342 L 329 332 L 306 335 L 302 338 L 308 348 L 303 352 Q 295 353 292 350 L 304 349 L 305 348 L 275 308 L 271 300 Q 270 295 263 296 Z M 90 299 L 70 328 L 69 332 Q 71 335 77 333 L 96 303 L 90 299 Z M 279 299 L 277 301 L 278 305 L 298 332 L 323 329 L 325 327 L 315 309 L 311 304 L 301 304 L 279 299 Z M 168 300 L 162 304 L 185 363 L 184 368 L 190 371 Q 196 372 198 369 L 193 363 L 171 307 L 171 302 L 168 300 Z M 248 300 L 226 306 L 203 308 L 200 310 L 185 310 L 179 313 L 185 329 L 188 331 Q 191 330 190 333 L 187 335 L 194 350 L 216 347 L 226 344 L 255 329 L 262 321 Q 267 318 264 316 L 236 324 L 196 332 Q 191 333 192 330 L 217 326 L 227 322 L 234 322 L 261 315 L 265 313 L 261 305 Q 259 298 248 300 Z M 101 302 L 92 316 L 94 318 L 107 317 L 108 316 L 104 308 L 104 304 L 101 302 Z M 147 302 L 145 304 L 150 310 L 158 309 L 159 305 Q 157 300 147 302 Z M 322 307 L 320 309 L 334 333 L 335 338 L 341 341 L 346 340 L 347 338 L 345 336 L 330 311 Q 329 306 322 307 Z M 156 313 L 151 314 L 149 316 Q 151 326 147 331 Q 143 336 136 338 L 124 334 L 112 320 L 88 323 Q 83 326 82 333 Q 79 338 69 336 L 64 328 Q 43 330 31 339 L 27 346 L 37 350 L 49 351 L 92 349 L 163 337 L 169 335 L 163 316 Q 162 312 156 313 Z M 270 320 Q 261 332 247 338 L 245 341 L 266 339 L 280 335 L 273 323 L 270 320 Z M 385 337 L 374 343 L 350 351 L 295 366 L 289 366 L 270 372 L 232 380 L 204 383 L 201 385 L 183 387 L 148 387 L 131 382 L 128 384 L 131 393 Q 146 411 177 414 L 217 414 Q 225 411 238 412 L 283 403 L 319 392 L 339 384 Q 357 377 371 365 Q 382 356 388 342 Q 390 335 385 337 Z M 163 338 L 122 347 L 112 347 L 88 352 L 67 354 L 39 353 L 32 350 L 27 352 L 30 359 Q 38 369 52 374 L 64 377 L 77 377 L 78 378 L 103 378 L 117 375 L 124 375 L 125 373 Q 129 366 138 363 L 172 355 L 176 353 L 171 340 Q 169 336 163 338 Z " /><path fill="rgb(1,1,1)" stroke="rgb(1,1,1)" stroke-width="0.6" opacity="1" d="M 166.5 153 Q 173.8 151.8 176 155.5 L 172.5 157 L 166.5 156 L 164 157 L 166.5 153 Z " /><path fill="rgb(1,1,1)" stroke="rgb(1,1,1)" stroke-width="0.6" opacity="1" d="M 206.5 160 Q 216.3 158.3 218 164.5 Q 219.5 168.9 216.5 168 Q 213.4 161.9 204 163 L 205.5 161 L 206.5 160 Z " /><path fill="rgb(1,1,1)" stroke="rgb(1,1,1)" stroke-width="0.6" opacity="1" d="M 164 165 Q 170.9 163 173 166.5 L 172.5 169 Q 170 165.8 164 167 L 164 165 Z " /><path fill="rgb(1,1,1)" stroke="rgb(1,1,1)" stroke-width="0.6" opacity="1" d="M 199 266 L 224.5 274 L 285.5 288 L 333 295 Q 334.4 298.7 328.5 297 L 311.5 295 L 307.5 293 L 299.5 293 L 231.5 278 L 199 268 L 199 266 Z " /><path fill="rgb(1,1,1)" stroke="rgb(1,1,1)" stroke-width="0.6" opacity="1" d="M 420.5 292 L 424 292.5 L 418.5 296 L 392.5 301 L 358.5 301 L 354.5 299 L 338.5 299 L 336 298 L 336.5 296 L 348.5 296 Q 366.1 299.9 389.5 298 L 390.5 297 L 403.5 297 L 420.5 292 Z " /><path fill="rgb(230,77,62)" stroke="rgb(230,77,62)" stroke-width="0.6" opacity="1" d="M 86.5 97 L 112.5 98 L 115.5 100 L 133.5 101 L 185.5 111 L 196.5 111 L 204.5 114 L 228.5 116 L 233.5 118 L 242.5 118 L 271.5 124 L 289.5 125 L 298.5 128 L 323.5 130 L 332.5 133 L 350.5 134 L 359.5 137 L 377.5 138 L 386.5 141 L 396.5 141 L 409.5 144 L 417.5 144 L 454.5 151 L 464 158.5 Q 465.1 161.8 462.5 161 L 457.5 165 L 441.5 169 L 431.5 169 L 429.5 171 L 388.5 171 L 365.5 169 L 352.5 166 L 340.5 166 L 315.5 161 L 304.5 161 L 302.5 159 L 250.5 152 L 232.5 139 L 218.5 134 L 206.5 132 L 185.5 132 L 175.5 133 L 161.5 140 L 158.5 140 L 73.5 120 L 52.5 113 L 50 110.5 L 52.5 105 L 69.5 99 L 83.5 99 L 86.5 97 Z " /><path fill="rgb(230,77,62)" stroke="rgb(230,77,62)" stroke-width="0.6" opacity="1" d="M 96.5 140 L 148 153 L 147 157.5 L 129.5 186 Q 118.5 186 111.5 190 L 109 187.5 L 95 141.5 L 96.5 140 Z " /><path fill="rgb(230,77,62)" stroke="rgb(230,77,62)" stroke-width="0.6" opacity="1" d="M 251.5 156 L 291.5 163 L 308.5 164 L 333.5 169 L 362.5 171 L 367.5 173 Q 381.2 171.3 389.5 175 L 419.5 175 L 444.5 173 L 456.5 170 L 462.5 166 L 463 167.5 L 459.5 172 L 437.5 179 L 406.5 180 L 405.5 181 L 404.5 180 L 373.5 179 L 351.5 175 L 339.5 175 L 336.5 173 L 305.5 170 L 284.5 165 L 274.5 165 L 255.5 161 L 250 157.5 L 251.5 156 Z " /><path fill="rgb(230,77,62)" stroke="rgb(230,77,62)" stroke-width="0.6" opacity="1" d="M 292.5 174 Q 299.8 172.8 301 177.5 L 308 192.5 Q 303.6 199.3 292 198 L 291 175.5 L 292.5 174 Z " /><path fill="rgb(230,77,62)" stroke="rgb(230,77,62)" stroke-width="0.6" opacity="1" d="M 386.5 186 L 391 187.5 L 389 203 L 382 198.5 Q 381.5 189.5 386.5 186 Z " /><path fill="rgb(230,77,62)" stroke="rgb(230,77,62)" stroke-width="0.6" opacity="1" d="M 389.5 221 L 410.5 226 L 415 228.5 L 411.5 233 Q 391.3 248.3 365.5 258 L 364 254.5 L 371 229.5 L 373.5 226 L 377.5 226 L 389.5 221 Z " /><path fill="rgb(230,77,62)" stroke="rgb(230,77,62)" stroke-width="0.6" opacity="1" d="M 65.5 236 L 70 238.5 L 66 246.5 L 65 258.5 L 67 263.5 L 83.5 281 L 93.5 283 L 96 285.5 L 98 295 Q 80.8 292.6 72 280.5 Q 65.7 271.8 63 259.5 L 63 241.5 L 65.5 236 Z " /><path fill="rgb(230,77,62)" stroke="rgb(230,77,62)" stroke-width="0.6" opacity="1" d="M 84 272 Q 90.1 270.2 92 273.5 Q 94.2 279.8 88.5 278 L 84 274.5 L 84 272 Z " /><path fill="rgb(230,77,62)" stroke="rgb(230,77,62)" stroke-width="0.6" opacity="1" d="M 212.5 284 L 248 294 Q 249.3 297.7 243.5 296 L 206.5 304 L 178.5 306 L 175 301.5 L 197.5 295 L 212.5 284 Z " /><path fill="rgb(230,77,62)" stroke="rgb(230,77,62)" stroke-width="0.6" opacity="1" d="M 90.5 300 L 95 302.5 L 75.5 332 Q 70.3 333.3 69 330.5 L 90.5 300 Z " /><path fill="rgb(230,77,62)" stroke="rgb(230,77,62)" stroke-width="0.6" opacity="1" d="M 167.5 301 L 170 302.5 Q 180.6 337.9 196 368.5 Q 194.8 371.3 189.5 370 L 186 369 L 184 357.5 L 163 303.5 L 167.5 301 Z " /><path fill="rgb(230,77,62)" stroke="rgb(230,77,62)" stroke-width="0.6" opacity="1" d="M 166.5 338 L 171 339.5 L 175 351.5 L 171.5 354 L 135.5 363 L 122.5 374 L 104.5 377 L 80.5 377 L 78.5 378 L 75.5 376 L 62.5 376 L 48.5 372 Q 37.8 367.2 31 358.5 L 29 351 Q 44.8 355.5 67.5 354 Q 78.2 351.2 92.5 352 L 116.5 347 L 126.5 347 L 166.5 338 Z " /><path fill="rgb(64,69,66)" stroke="rgb(64,69,66)" stroke-width="0.6" opacity="1" d="M 183.5 137 L 206 137.5 L 183.5 138 L 183.5 137 Z " /><path fill="rgb(64,69,66)" stroke="rgb(64,69,66)" stroke-width="0.6" opacity="1" d="M 238.5 173 L 239 188.5 L 238 188.5 L 238.5 173 Z " /><path fill="rgb(64,69,66)" stroke="rgb(64,69,66)" stroke-width="0.6" opacity="1" d="M 308.5 176 L 356 182 Q 357 188.4 351.5 190 L 319.5 188 Q 312.8 187.7 310 183.5 L 307 177.5 L 308.5 176 Z " /><path fill="rgb(64,69,66)" stroke="rgb(64,69,66)" stroke-width="0.6" opacity="1" d="M 395.5 186 L 425 186.5 L 395.5 187 L 394.5 188 L 395.5 186 Z " /><path fill="rgb(64,69,66)" stroke="rgb(64,69,66)" stroke-width="0.6" opacity="1" d="M 97.5 188 L 100 194 L 103 192.5 L 103.5 189 L 104 192.5 L 100.5 195 L 97.5 188 Z " /><path fill="rgb(64,69,66)" stroke="rgb(64,69,66)" stroke-width="0.6" opacity="1" d="M 287.5 189 L 288 201.5 L 290 203.5 L 287 201.5 L 287.5 189 Z " /><path fill="rgb(64,69,66)" stroke="rgb(64,69,66)" stroke-width="0.6" opacity="1" d="M 125.5 192 L 139 192.5 L 125.5 193 L 125.5 192 Z " /><path fill="rgb(64,69,66)" stroke="rgb(64,69,66)" stroke-width="0.6" opacity="1" d="M 419.5 202 L 436.5 202 L 459.5 206 Q 465.7 210.8 477.5 210 L 483 214.5 Q 480.2 218.7 473.5 219 L 446.5 219 Q 419.1 216.1 396 210 L 396.5 208 L 398 208.5 L 399.5 207 L 419.5 202 Z " /><path fill="rgb(64,69,66)" stroke="rgb(64,69,66)" stroke-width="0.6" opacity="1" d="M 378 204 L 380.5 204 L 387 209.5 Q 389 217 385.5 219 L 375.5 222 L 374 219.5 L 378 204 Z " /><path fill="rgb(64,69,66)" stroke="rgb(64,69,66)" stroke-width="0.6" opacity="1" d="M 393.5 211 L 431.5 220 Q 440.8 218.7 445.5 222 L 470.5 222 L 484 218 L 480.5 224 L 468.5 228 L 446.5 228 Q 415.3 225.7 392 215.5 L 393.5 211 Z " /><path fill="rgb(64,69,66)" stroke="rgb(64,69,66)" stroke-width="0.6" opacity="1" d="M 92.5 229 Q 104.1 229.4 108 237.5 L 112 246.5 L 112 259.5 Q 110.3 262.8 108.5 259 L 104 255.5 Q 105 242 97.5 237 L 91 233.5 L 92.5 229 Z " /><path fill="rgb(64,69,66)" stroke="rgb(64,69,66)" stroke-width="0.6" opacity="1" d="M 81.5 238 Q 95.1 235.9 98 244.5 Q 101 248.5 100 256.5 L 91.5 267 L 81.5 268 L 71 261.5 L 70 248.5 L 75.5 241 L 81.5 238 Z " /><path fill="rgb(64,69,66)" stroke="rgb(64,69,66)" stroke-width="0.6" opacity="1" d="M 278.5 248 L 338.5 258 L 345 260.5 L 341 280.5 L 343.5 283 L 351.5 284 L 356 280.5 L 361.5 263 L 417.5 272 L 430.5 276 L 436 281.5 Q 436.8 286.3 433.5 287 Q 420 294.5 401.5 297 L 361.5 298 Q 350.8 295.2 336.5 296 L 330.5 294 L 320.5 294 L 286.5 288 L 221.5 273 L 198 266 L 200.5 260 L 207.5 257 L 232.5 252 L 243.5 252 L 252.5 250 L 278.5 248 Z " /><path fill="rgb(64,69,66)" stroke="rgb(64,69,66)" stroke-width="0.6" opacity="1" d="M 100.5 262 L 101 264.5 L 96 268.5 L 100.5 262 Z " /><path fill="rgb(64,69,66)" stroke="rgb(64,69,66)" stroke-width="0.6" opacity="1" d="M 201.5 279 L 208 283.5 L 205.5 282 L 201.5 279 Z " /><path fill="rgb(64,69,66)" stroke="rgb(64,69,66)" stroke-width="0.6" opacity="1" d="M 248.5 300 Q 258 298 260 303.5 Q 264.7 307 264 314 L 237.5 321 L 225.5 322 L 215.5 326 L 187.5 331 L 179 312.5 L 186.5 310 L 199.5 310 L 203.5 308 L 226.5 306 L 248.5 300 Z " /><path fill="rgb(64,69,66)" stroke="rgb(64,69,66)" stroke-width="0.6" opacity="1" d="M 359.5 301 L 392 301.5 L 359.5 302 L 359.5 301 Z " /><path fill="rgb(64,69,66)" stroke="rgb(64,69,66)" stroke-width="0.6" opacity="1" d="M 146.5 302 L 156.5 302 L 158 303.5 L 159 307.5 L 157.5 309 L 149.5 310 L 145 303.5 L 146.5 302 Z " /><path fill="rgb(64,69,66)" stroke="rgb(64,69,66)" stroke-width="0.6" opacity="1" d="M 361.5 306 L 388 306.5 L 361.5 307 L 361.5 306 Z " /><path fill="rgb(64,69,66)" stroke="rgb(64,69,66)" stroke-width="0.6" opacity="1" d="M 156.5 313 L 162 314.5 L 169 334.5 L 167.5 336 L 97.5 348 L 48.5 351 L 33.5 349 L 27 345.5 L 33.5 337 Q 46.2 330.2 63.5 328 L 68.5 336 Q 79 338 82 332.5 L 87.5 323 L 111.5 320 L 123.5 334 L 132.5 338 L 136.5 338 L 147 330.5 L 149 326.5 L 150 317.5 L 149 315.5 L 156.5 313 Z " /><path fill="rgb(64,69,66)" stroke="rgb(64,69,66)" stroke-width="0.6" opacity="1" d="M 143.5 314 L 144 324.5 L 143 324.5 L 143.5 314 Z " /><path fill="rgb(64,69,66)" stroke="rgb(64,69,66)" stroke-width="0.6" opacity="1" d="M 261.5 316 L 265 317.5 L 255.5 328 Q 232 346.5 193.5 350 L 187 335.5 L 191.5 332 L 236.5 324 L 261.5 316 Z " /><path fill="rgb(64,69,66)" stroke="rgb(64,69,66)" stroke-width="0.6" opacity="1" d="M 358.5 327 L 382 327.5 L 358.5 328 L 358.5 327 Z " /><path fill="rgb(64,69,66)" stroke="rgb(64,69,66)" stroke-width="0.6" opacity="1" d="M 149.5 383 L 180 383.5 L 149.5 384 L 149.5 383 Z " /><path fill="rgb(238,237,220)" stroke="rgb(238,237,220)" stroke-width="0.6" opacity="1" d="M 421.5 106 Q 432.4 105.6 436 112.5 L 439 119.5 L 439 139.5 L 433.5 141 L 394 135 Q 398.6 120.7 409.5 111 L 421.5 106 Z " /><path fill="rgb(238,237,220)" stroke="rgb(238,237,220)" stroke-width="0.6" opacity="1" d="M 50 116 L 69.5 123 L 130.5 138 L 146.5 140 L 155 144.5 L 153.5 147 L 69.5 127 L 50 118 L 50 116 Z " /><path fill="rgb(238,237,220)" stroke="rgb(238,237,220)" stroke-width="0.6" opacity="1" d="M 171.5 148 Q 211.7 146.3 231 165.5 Q 236.3 172.7 234 187.5 L 231 202.5 L 223.5 211 Q 210.7 212.4 204 209 Q 202.8 206 206.5 207 L 215 199.5 Q 219.5 194 218 182.5 L 214.5 176 L 208.5 172 L 199.5 172 L 193 176.5 Q 186.9 182.4 187 194.5 L 191 204 L 170 196.5 Q 179.5 191 179 175.5 L 171.5 164 L 164.5 164 L 153 172.5 Q 149.4 177.9 151 188.5 L 150.5 191 L 137 186.5 Q 144.8 167.3 157.5 153 L 171.5 148 Z M 167 152 L 161 158 L 163 159 L 167 157 L 176 158 L 177 155 Q 174 151 167 152 Z M 207 159 L 204 160 L 202 163 L 204 164 L 213 165 L 217 170 L 219 169 L 218 164 Q 216 157 207 159 Z " /><path fill="rgb(238,237,220)" stroke="rgb(238,237,220)" stroke-width="0.6" opacity="1" d="M 253.5 167 L 268.5 169 L 274 171.5 L 277 185.5 L 277 193.5 Q 276.6 201.6 270.5 204 Q 262.5 208.3 250 207 L 252 187.5 L 252 168.5 L 253.5 167 Z " /><path fill="rgb(238,237,220)" stroke="rgb(238,237,220)" stroke-width="0.6" opacity="1" d="M 51.5 173 Q 63.3 171.2 66 178.5 L 77 197.5 L 85 224.5 L 85 231.5 L 76.5 236 L 54 209.5 L 45 189.5 L 45 180.5 L 51.5 173 Z " /><path fill="rgb(238,237,220)" stroke="rgb(238,237,220)" stroke-width="0.6" opacity="1" d="M 202.5 175 Q 209 174 210 178.5 Q 208.8 181.3 203.5 180 L 198 184.5 L 195 192.5 L 195 197.5 L 197 200.5 Q 194.5 204.5 192 198.5 L 191 188.5 L 200.5 176 L 202.5 175 Z " /><path fill="rgb(238,237,220)" stroke="rgb(238,237,220)" stroke-width="0.6" opacity="1" d="M 373.5 185 L 379 186.5 L 354 273.5 L 349.5 280 L 345 277.5 L 365 214.5 L 371 188.5 L 373.5 185 Z " /><path fill="rgb(238,237,220)" stroke="rgb(238,237,220)" stroke-width="0.6" opacity="1" d="M 262 297 Q 268.3 295.5 270 299.5 L 273 306.5 L 304 347.5 Q 302.3 350.8 295.5 349 L 263 301.5 L 262 297 Z " /><path fill="rgb(238,237,220)" stroke="rgb(238,237,220)" stroke-width="0.6" opacity="1" d="M 101.5 303 L 107 314.5 Q 101.8 318.1 93 317 L 101.5 303 Z " /><path fill="rgb(238,237,220)" stroke="rgb(238,237,220)" stroke-width="0.6" opacity="1" d="M 269.5 321 L 272 322.5 L 278 335 L 266.5 338 L 248 340 L 249.5 338 L 267 324.5 L 269.5 321 Z " /><path fill="rgb(238,237,220)" stroke="rgb(238,237,220)" stroke-width="0.6" opacity="1" d="M 384.5 338 Q 388.7 336.7 387 341.5 Q 381.5 354.5 371.5 363 Q 357.2 375.2 338.5 383 L 318.5 391 L 282.5 402 L 225.5 413 L 177.5 414 L 175.5 412 L 165.5 412 L 153.5 408 Q 140 403 132 392.5 L 129 383 L 143.5 387 L 184.5 387 L 231.5 381 L 273.5 372 L 291.5 366 L 298.5 366 L 352.5 351 L 373.5 344 L 384.5 338 Z " /><path fill="rgb(193,76,62)" stroke="rgb(193,76,62)" stroke-width="0.6" opacity="1" d="M 74.5 271 L 80.5 278 L 74.5 271 Z " /><path fill="rgb(66,123,126)" stroke="rgb(66,123,126)" stroke-width="0.6" opacity="1" d="M 115.5 264 L 125 274.5 L 115 265.5 L 115.5 264 Z " /><path fill="rgb(66,123,126)" stroke="rgb(66,123,126)" stroke-width="0.6" opacity="1" d="M 191.5 271 L 197.5 278 L 191.5 271 Z " /></svg>