<svg width="627" height="627" preserveAspectRatio="xMidYMid meet" viewBox="0 0 512 512" version="1.1" xmlns="http://www.w3.org/2000/svg" ><path fill="rgb(255,255,255)" stroke="rgb(255,255,255)" stroke-width="0.6" opacity="1" d="M 0 0 L 512 0 L 512 512 L 0 512 L 0 0 Z M 427 110 Q 415 111 408 116 L 396 129 L 356 193 L 353 195 L 344 195 L 269 184 L 209 179 L 166 179 L 127 184 Q 96 191 77 208 Q 65 219 57 235 L 45 265 L 30 286 L 25 303 Q 23 326 34 337 Q 42 346 55 351 Q 72 358 95 360 L 139 360 L 178 356 L 206 351 L 210 353 L 209 355 Q 208 372 215 381 Q 221 391 237 393 Q 271 391 294 377 L 302 394 Q 307 401 318 403 Q 336 405 349 400 Q 366 395 379 385 Q 388 378 391 365 L 390 357 L 392 353 L 415 355 L 442 354 L 455 352 Q 467 349 477 343 L 482 336 L 481 326 L 471 318 L 451 311 L 393 296 Q 387 298 389 293 L 414 277 L 429 261 L 434 256 L 463 255 L 482 250 L 487 245 L 487 240 Q 483 234 475 233 L 442 229 L 438 224 L 426 214 L 446 128 L 445 115 L 440 111 L 427 110 Z " /><path fill="rgb(67,132,185)" stroke="rgb(67,132,185)" stroke-width="0.6" opacity="1" d="M 173.5 184 L 181.5 185 L 192.5 184 L 195.5 185 L 201.5 184 L 231.5 187 L 233.5 187 L 242.5 188 L 245.5 187 L 250.5 189 L 257.5 188 L 273.5 191 L 275.5 191 L 281.5 192 L 283.5 192 L 287.5 193 L 293.5 192 L 312.5 196 L 314.5 196 L 319.5 197 L 321.5 197 L 329.5 197 L 346.5 201 L 348.5 201 L 351.5 202 L 354.5 201 L 386.5 207 L 412.5 214 Q 425.7 216.8 433 225.5 Q 430.5 227 434 228.5 Q 434.9 231.9 429.5 230 L 406.5 233 L 393 238 L 389 245.5 L 391 251 L 397.5 254 L 412.5 256 L 415.5 255 L 423.5 256 L 425 257.5 L 424 260 L 413 269.5 L 411.5 271 L 408 273 L 406.5 275 Q 394.9 286.9 377.5 293 L 375.5 292 L 373.5 292 L 371.5 291 Q 370 293.5 368.5 290 L 366.5 291 L 352.5 287 Q 351 289.5 349.5 286 L 346.5 287 L 319.5 283 L 312.5 284 L 306.5 283 L 277.5 287 L 273.5 286 Q 272 289.5 270.5 287 L 253.5 291 L 251.5 290 L 239.5 295 L 233 295 Q 234.3 298 230.5 297 L 223 300 L 221.5 302 Q 214.9 304.4 216 314.5 L 221.5 322 Q 227.5 326.8 237 327 Q 238.3 330 234.5 329 L 225.5 331 L 218 336 L 211.5 345 L 186.5 349 L 184.5 349 L 153.5 353 L 150.5 352 L 127.5 355 L 124.5 354 L 123.5 355 L 105.5 355 L 102.5 354 L 99.5 355 L 84.5 352 L 82.5 353 L 58 347 L 56.5 345 Q 47.9 343.1 43 337.5 L 38.5 332 L 36 330.5 L 32 323.5 L 30 312.5 L 31 308.5 L 31 306.5 L 32 301.5 L 32 299.5 Q 34.8 281.8 45.5 272 L 50.5 273 L 52.5 273 L 84.5 281 L 86.5 281 L 88.5 282 L 90.5 282 L 99.5 282 L 116.5 285 L 119.5 284 L 120.5 285 L 136.5 285 L 139.5 284 L 143.5 285 L 155.5 282 L 164 275.5 L 169 263.5 L 169 261.5 L 170 249.5 L 168 243.5 L 168 241.5 Q 166.7 230.3 160.5 224 L 152.5 219 L 138.5 215 L 136.5 215 L 133.5 214 L 130.5 215 L 106.5 212 L 86.5 212 L 83 213 L 82 210.5 Q 102.4 192.4 136.5 188 L 138.5 188 L 142.5 187 L 144.5 187 L 148.5 186 L 150.5 187 L 173.5 184 Z M 353 233 L 351 234 L 346 240 Q 344 252 348 258 L 352 260 L 360 259 L 363 253 Q 364 241 360 235 L 353 233 Z M 324 235 L 322 236 L 317 246 L 320 260 L 326 264 L 331 263 L 336 256 Q 337 244 333 238 Q 331 234 324 235 Z M 297 236 L 294 238 L 289 246 Q 288 257 292 263 L 300 267 L 304 265 L 308 260 L 307 242 Q 305 236 297 236 Z M 269 237 L 263 240 L 260 247 L 261 249 L 260 258 L 262 265 L 268 269 Q 274 270 277 267 L 281 260 L 280 248 L 280 246 L 278 243 Q 275 238 269 237 Z M 238 240 L 236 241 Q 231 243 231 249 Q 228 268 239 273 L 243 273 L 248 270 L 251 262 Q 252 251 249 245 Q 247 239 238 240 Z M 207 242 L 205 243 L 200 250 L 201 270 L 209 275 L 217 273 L 221 264 Q 222 252 218 246 Q 216 240 207 242 Z M 59 302 L 57 304 Q 56 313 61 317 Q 68 328 86 329 Q 102 328 111 320 L 115 315 L 122 312 L 118 305 L 116 304 L 112 306 L 114 311 Q 108 319 97 323 L 95 322 Q 93 325 92 323 L 90 324 L 82 324 L 70 319 L 62 312 L 60 306 Q 61 301 59 302 Z " /><path fill="rgb(67,132,185)" stroke="rgb(67,132,185)" stroke-width="0.6" opacity="1" d="M 297.5 240 L 300.5 241 L 303 242.5 L 304 257.5 L 302 262 Q 296.5 263.3 295 259.5 L 294 243.5 L 297.5 240 Z " /><path fill="rgb(67,132,185)" stroke="rgb(67,132,185)" stroke-width="0.6" opacity="1" d="M 246.5 331 L 255.5 331 L 267.5 335 L 269.5 335 Q 278.6 334.4 283.5 338 L 285.5 338 L 288.5 339 L 290.5 339 L 293.5 340 L 295.5 340 Q 301 339 302 342.5 L 303 345.5 L 294 358.5 L 294 360.5 L 293 363.5 L 294 366.5 L 289.5 373 Q 274.8 382.7 254 385 L 259 373.5 L 260 357.5 Q 257.3 342.2 246.5 335 L 244 333.5 L 246.5 331 Z " /><path fill="rgb(67,132,185)" stroke="rgb(67,132,185)" stroke-width="0.6" opacity="1" d="M 316.5 344 L 326 345 Q 324.8 348 328.5 347 L 337 354.5 L 339 358.5 Q 336.5 360 340 361.5 Q 343.9 367.6 342 379.5 Q 339.6 390.6 331.5 396 L 325.5 398 L 320.5 397 L 318.5 397 Q 309.3 395.7 305 389.5 L 301 382.5 Q 303.5 381 300 379.5 L 298 365.5 L 304.5 351 L 307 349.5 L 308.5 348 L 316.5 344 Z M 316 352 L 311 354 Q 305 359 303 369 L 308 385 L 316 390 L 326 389 Q 332 384 334 375 L 329 360 Q 326 352 316 352 Z " /><path fill="rgb(67,132,185)" stroke="rgb(67,132,185)" stroke-width="0.6" opacity="1" d="M 229.5 348 Q 234.8 346.8 236 349.5 L 234 353 Q 230.3 351.6 232 357.5 L 231 361.5 L 233 364.5 Q 230.5 366 234 367.5 L 238 374.5 L 235.5 375 L 232.5 376 L 226 370.5 L 223 362.5 L 224 359.5 L 223 357.5 L 227.5 349 L 229.5 348 Z " /><path fill="rgb(67,132,185)" stroke="rgb(67,132,185)" stroke-width="0.6" opacity="1" d="M 324.5 361 Q 330.3 365.2 329 376.5 L 328 380 Q 324.3 381.5 325 378.5 Q 319 375.5 321 364.5 L 324.5 361 Z " /><path fill="rgb(229,77,62)" stroke="rgb(229,77,62)" stroke-width="0.6" opacity="1" d="M 324.5 239 Q 330 238 331 241.5 L 332 254.5 L 329.5 259 Q 324.3 260.3 323 257.5 L 322 242.5 L 324.5 239 Z " /><path fill="rgb(229,77,62)" stroke="rgb(229,77,62)" stroke-width="0.6" opacity="1" d="M 238.5 244 Q 244 243 245 246.5 Q 248 251.5 247 260.5 Q 246.6 266.1 242.5 268 L 236 265.5 L 235 248.5 L 238.5 244 Z " /><path fill="rgb(229,77,62)" stroke="rgb(229,77,62)" stroke-width="0.6" opacity="1" d="M 304.5 288 L 333.5 289 L 365.5 295 L 445.5 315 L 466.5 322 L 476 327.5 Q 476.8 332.3 473.5 333 Q 463.4 338.4 449.5 340 L 410.5 341 L 368.5 337 L 323.5 330 L 223 309 L 224.5 305 L 240.5 298 L 262.5 293 L 304.5 288 Z " /><path fill="rgb(229,77,62)" stroke="rgb(229,77,62)" stroke-width="0.6" opacity="1" d="M 220.5 311 L 270.5 323 L 353.5 338 L 393.5 343 L 442.5 344 L 472 338 L 470.5 340 L 463.5 344 L 447.5 348 L 399.5 349 L 342.5 343 L 288.5 334 L 232.5 322 L 221 315.5 L 220.5 311 Z " /><path fill="rgb(229,77,62)" stroke="rgb(229,77,62)" stroke-width="0.6" opacity="1" d="M 231.5 335 Q 246.3 334.7 251 344.5 Q 257.9 352.6 256 369.5 Q 253.9 379.9 246.5 385 Q 242.2 388.7 232.5 387 Q 224.2 384.9 220 378.5 Q 213 370.5 214 354.5 Q 215.7 344.2 222.5 339 L 231.5 335 Z M 230 343 L 226 345 Q 220 349 219 357 Q 218 368 223 374 L 232 380 L 240 379 Q 245 376 247 369 Q 249 356 244 351 Q 240 343 230 343 Z " /><path fill="rgb(229,77,62)" stroke="rgb(229,77,62)" stroke-width="0.6" opacity="1" d="M 238.5 352 L 240 353.5 Q 244.2 357.3 243 366.5 L 240.5 370 Q 235.2 366.3 236 356.5 L 238.5 352 Z " /><path fill="rgb(13,13,13)" stroke="rgb(13,13,13)" stroke-width="0.6" opacity="1" d="M 419.5 112 L 439.5 112 L 445 116.5 L 445 127.5 L 442 142.5 L 425 213.5 L 437 223.5 L 440.5 230 L 478.5 235 L 486 239.5 Q 487.3 246.8 482.5 248 L 476.5 251 L 461.5 254 L 432.5 255 L 431 256.5 L 413.5 276 L 387 294.5 L 388.5 296 L 450.5 312 L 472.5 320 L 480 325.5 L 481 335.5 L 477.5 341 L 458.5 350 L 441.5 353 L 417.5 354 L 390.5 352 L 389 357.5 L 390 364.5 Q 387.4 377.4 378.5 384 Q 366.2 394.2 348.5 399 Q 336.2 403.7 317.5 402 L 303 393.5 L 293.5 375 Q 271.6 390.6 235.5 392 Q 222.8 390.2 217 381.5 Q 208.7 372.3 210 353.5 L 211 351.5 L 205.5 350 L 150.5 358 L 95.5 359 L 78.5 357 L 59.5 352 Q 45.3 347.2 36 337.5 Q 24 327 26 302.5 L 31 285.5 Q 36 274 45 266.5 Q 51.3 244.8 62 227.5 Q 70.3 213.8 82.5 204 L 103.5 192 L 137.5 183 L 167.5 180 L 206.5 180 L 258.5 184 L 323.5 192 L 343.5 196 L 352.5 196 L 357 192.5 L 397 128.5 L 407.5 117 L 419.5 112 Z M 422 115 L 410 120 L 392 143 L 357 199 Q 391 204 420 214 L 422 212 L 435 158 L 442 126 L 442 119 L 438 115 L 422 115 Z M 159 184 L 130 188 L 111 193 L 85 207 L 79 214 L 88 213 L 108 213 L 131 215 L 147 218 L 158 223 L 166 235 L 168 246 Q 170 264 164 275 L 153 282 L 136 284 L 92 281 L 47 270 Q 32 282 29 307 Q 28 322 35 331 Q 43 342 57 347 L 72 352 L 99 356 L 146 355 L 212 346 L 215 342 Q 222 331 238 329 Q 241 330 240 327 Q 229 326 222 321 L 217 316 Q 216 309 219 306 Q 227 298 240 295 Q 266 288 297 285 L 333 285 L 376 294 L 383 293 L 412 273 L 427 257 L 426 255 L 404 254 L 394 251 Q 390 250 391 243 L 401 236 Q 415 231 435 231 L 436 230 L 434 226 Q 425 215 410 212 L 372 203 L 342 198 L 275 189 L 221 184 L 159 184 Z M 80 216 L 75 218 Q 56 237 49 267 L 52 269 L 74 275 L 112 281 L 144 281 L 154 279 L 159 276 Q 164 272 165 263 Q 168 241 160 230 Q 154 222 144 220 L 116 216 L 110 217 L 108 216 L 80 216 Z M 432 233 L 402 238 L 395 242 L 393 247 L 398 250 L 411 252 Q 451 255 480 246 L 483 242 L 481 239 L 472 237 L 441 233 L 438 234 L 432 233 Z M 305 287 L 275 290 L 253 294 L 232 300 L 225 304 L 219 312 L 220 316 Q 224 321 233 323 L 284 334 L 336 343 L 399 350 Q 428 352 452 348 L 469 343 L 477 336 Q 478 333 475 334 L 473 335 L 476 333 L 477 328 L 462 319 L 405 303 L 335 288 L 305 287 Z M 247 330 L 246 331 Q 237 328 239 335 L 237 334 Q 228 333 224 337 Q 214 343 213 357 Q 213 371 219 379 L 232 388 Q 241 389 247 386 Q 253 382 256 374 Q 255 370 258 371 Q 256 381 250 387 Q 275 384 293 372 L 295 369 L 295 362 L 297 355 L 303 347 L 302 342 L 300 339 L 255 330 L 247 330 Z M 318 343 L 309 346 Q 301 351 298 362 Q 296 381 304 390 Q 309 397 320 399 Q 328 400 332 397 Q 341 391 343 378 Q 344 363 338 355 Q 333 344 318 343 Z M 333 345 Q 342 353 345 368 Q 346 379 343 387 L 335 398 Q 359 395 376 382 Q 383 376 386 367 L 385 353 L 384 351 L 368 350 L 333 345 Z " /><path fill="rgb(13,13,13)" stroke="rgb(13,13,13)" stroke-width="0.6" opacity="1" d="M 83.5 223 Q 90 222 91 226.5 L 89.5 227 L 81.5 226 L 78.5 227 L 80.5 224 L 83.5 223 Z " /><path fill="rgb(13,13,13)" stroke="rgb(13,13,13)" stroke-width="0.6" opacity="1" d="M 130.5 227 Q 140.1 225.9 142 232.5 L 140.5 234 Q 137.3 228.3 127 229.5 L 130.5 227 Z " /><path fill="rgb(13,13,13)" stroke="rgb(13,13,13)" stroke-width="0.6" opacity="1" d="M 352.5 234 Q 358.7 233.3 360 237.5 Q 363.1 242.9 362 252.5 L 357.5 259 L 352.5 260 L 349 257.5 L 346 245.5 L 347 243.5 L 347 241.5 Q 346.3 235.8 350.5 235 L 352.5 234 Z M 354 236 L 349 240 L 350 255 Q 351 258 357 257 L 360 253 L 359 250 L 360 247 L 358 239 L 354 236 Z " /><path fill="rgb(13,13,13)" stroke="rgb(13,13,13)" stroke-width="0.6" opacity="1" d="M 323.5 236 Q 332.5 234.5 334 240.5 L 335 256.5 L 330.5 262 L 326.5 263 L 320 258.5 L 319 241.5 L 323.5 236 Z M 325 238 L 321 243 L 322 258 Q 323 261 330 260 L 333 255 L 332 252 L 333 250 L 332 242 Q 331 237 325 238 Z " /><path fill="rgb(13,13,13)" stroke="rgb(13,13,13)" stroke-width="0.6" opacity="1" d="M 83 237 L 90 241.5 L 91 243.5 L 85.5 239 Q 81.8 240 83 237 Z " /><path fill="rgb(13,13,13)" stroke="rgb(13,13,13)" stroke-width="0.6" opacity="1" d="M 296.5 237 Q 304.8 235.8 306 241.5 L 308 257.5 L 302.5 265 Q 295.3 266.3 293 262.5 Q 289 256 291 243.5 L 294.5 238 L 296.5 237 Z M 298 239 L 293 245 L 294 260 Q 295 264 302 263 L 305 259 L 304 243 L 298 239 Z " /><path fill="rgb(13,13,13)" stroke="rgb(13,13,13)" stroke-width="0.6" opacity="1" d="M 266.5 239 Q 274.8 237.7 277 242.5 Q 281 249 279 261.5 L 273.5 268 Q 266.3 269.3 264 265.5 L 262 261.5 L 262 244.5 L 266.5 239 Z M 269 241 L 267 242 L 264 246 L 264 261 L 269 266 L 274 265 L 277 260 Q 279 249 275 244 L 269 241 Z " /><path fill="rgb(13,13,13)" stroke="rgb(13,13,13)" stroke-width="0.6" opacity="1" d="M 237.5 241 Q 244.8 239.8 247 243.5 Q 251.5 250 250 262.5 L 245.5 270 L 237.5 271 L 232 263.5 L 232 247.5 L 235.5 242 L 237.5 241 Z M 239 243 L 234 249 Q 232 261 236 267 L 243 269 Q 247 267 248 261 Q 249 252 246 247 Q 245 242 239 243 Z " /><path fill="rgb(13,13,13)" stroke="rgb(13,13,13)" stroke-width="0.6" opacity="1" d="M 206.5 243 Q 216.3 241.3 218 247.5 L 220 263.5 Q 219.8 270.7 214.5 273 L 207.5 274 L 203 270.5 L 201 266.5 L 200 255.5 L 201 249.5 L 204.5 244 L 206.5 243 Z M 208 245 L 203 252 L 204 258 L 203 260 L 205 270 L 209 272 L 214 271 L 218 263 Q 219 254 216 249 Q 214 244 208 245 Z " /><path fill="rgb(13,13,13)" stroke="rgb(13,13,13)" stroke-width="0.6" opacity="1" d="M 80.5 245 Q 88.3 243.7 90.5 248 L 93 247 Q 94.1 262.9 84.5 269 L 78 270 L 74 264.5 L 73 255.5 L 78.5 246 L 80.5 245 Z M 85 247 L 81 254 Q 82 257 88 256 L 90 253 L 89 250 L 85 247 Z " /><path fill="rgb(13,13,13)" stroke="rgb(13,13,13)" stroke-width="0.6" opacity="1" d="M 138.5 246 Q 144.7 250.3 143 262.5 L 134.5 275 L 128.5 277 L 127 274 L 124 272.5 Q 120.5 268.5 122 259.5 L 127.5 251 L 135.5 250 L 141 254 L 138.5 246 Z M 134 253 Q 130 254 131 260 Q 132 263 137 262 L 139 259 L 138 255 L 134 253 Z " /><path fill="rgb(13,13,13)" stroke="rgb(13,13,13)" stroke-width="0.6" opacity="1" d="M 115.5 305 L 120 310.5 Q 117 308.5 114 314.5 L 110.5 319 Q 102 327.5 85.5 328 Q 69.2 326.8 62 316.5 Q 57.3 313 58 306 Q 61 304.8 60 308.5 L 67.5 319 Q 75.4 327.1 93.5 325 Q 107.6 321.1 115 310.5 L 114 306.5 L 115.5 305 Z " /><path fill="rgb(13,13,13)" stroke="rgb(13,13,13)" stroke-width="0.6" opacity="1" d="M 241 334 L 252 341.5 Q 260.3 351 259 369 L 257 368.5 L 257 356.5 Q 254 343.5 244.5 337 L 241 336 L 241 334 Z " /><path fill="rgb(13,13,13)" stroke="rgb(13,13,13)" stroke-width="0.6" opacity="1" d="M 229.5 344 L 234.5 344 L 243 350.5 Q 247.7 356.4 246 368.5 L 239.5 378 L 231.5 379 L 224 373.5 Q 219.2 367.8 220 356.5 L 225.5 346 L 229.5 344 Z M 229 347 L 223 354 Q 221 365 225 371 L 233 377 Q 239 378 240 374 Q 235 370 233 364 Q 231 353 237 350 Q 236 346 229 347 Z M 239 351 L 235 357 Q 234 364 237 368 L 242 371 L 244 367 Q 245 357 241 353 L 239 351 Z " /><path fill="rgb(13,13,13)" stroke="rgb(13,13,13)" stroke-width="0.6" opacity="1" d="M 315.5 353 Q 325.4 353.6 329 360.5 Q 333.4 366.6 332 378.5 L 325.5 388 L 315.5 389 L 308 382.5 Q 303.8 376.7 305 365.5 Q 306.4 357.4 312.5 354 L 315.5 353 Z M 315 356 L 313 357 Q 308 360 307 367 Q 307 377 311 383 L 317 387 Q 324 389 325 385 L 318 374 Q 316 362 322 359 Q 321 355 315 356 Z M 325 359 L 320 366 Q 319 374 323 379 L 328 381 L 330 374 Q 330 364 325 359 Z " /><path fill="rgb(62,66,64)" stroke="rgb(62,66,64)" stroke-width="0.6" opacity="1" d="M 77.5 208 L 72.5 214 L 77.5 208 Z " /><path fill="rgb(62,66,64)" stroke="rgb(62,66,64)" stroke-width="0.6" opacity="1" d="M 79.5 216 L 107.5 216 L 109.5 217 L 111 216.5 L 113 218 Q 111.8 215 115.5 216 L 120 217 Q 119 220 122 219 L 123.5 217 L 128 218 L 128.5 220 L 129 218 L 149.5 222 L 160 229.5 Q 167.5 241 165 262.5 Q 164.3 271.8 158.5 276 L 149 280 L 148.5 278 L 148 280 L 143.5 281 L 117 281 Q 118 278 115 279 Q 116.3 282.3 111.5 281 L 106 280 Q 107 277 104 278 Q 105.3 281 101.5 280 L 99 279 Q 100.1 275.7 96 277 L 94.5 279 L 73.5 275 L 72 273.5 L 76 272.5 L 75 269.5 L 76 267.5 L 75.5 266 L 78 270 L 88 268 L 91 259 L 94 258.5 L 92 258 L 93 247 L 90 245.5 L 89 243.5 L 90 241.5 L 86.5 239 L 85 239.5 L 84.5 237 L 83 239 L 80 239 L 78.5 237 L 76 238 L 74.5 241 L 71 242.5 L 69.5 247 L 68 246.5 Q 69 253.8 66 256 Q 63 255 64 258 L 66 259.5 L 73 270.5 L 71 274 L 60 270.5 L 58 269 L 57.5 271 L 49 266.5 L 50 260 Q 54.1 261.7 53 257.5 L 53 255.5 L 55 248 Q 58.8 249.5 58 246.5 L 57 244.5 L 59.5 240 L 62 239.5 L 61 236.5 L 64.5 231 L 66 231.5 L 65 229.5 L 74.5 218 L 76.5 219 L 77 217 L 79.5 216 Z M 84 223 L 81 224 L 79 227 L 82 226 L 90 227 L 91 227 Q 90 222 84 223 Z M 131 227 L 128 229 Q 124 228 125 232 L 128 230 L 138 231 L 141 236 L 142 233 Q 140 226 131 227 Z M 137 249 L 139 253 L 136 250 L 128 251 L 124 257 L 121 258 L 123 259 L 122 261 L 120 262 L 122 262 Q 123 266 121 265 L 121 266 Q 123 265 122 269 L 123 270 Q 120 269 121 274 L 122 276 L 124 275 L 127 277 L 126 276 L 127 274 L 129 277 L 133 276 L 135 276 L 139 270 L 142 268 L 141 267 L 143 263 L 142 251 L 140 250 L 137 249 Z " /><path fill="rgb(62,66,64)" stroke="rgb(62,66,64)" stroke-width="0.6" opacity="1" d="M 431.5 233 L 437.5 234 L 440.5 233 L 448 234 Q 447 237 450 236 L 451.5 234 L 456 235 Q 455 238 458 237 L 459.5 235 L 476.5 238 L 482 240.5 L 480 240.5 L 482 243.5 L 471.5 249 L 470.5 247 L 470 249 L 444 252 L 443.5 250 L 435 250 L 434.5 252 L 424 252 L 423.5 250 L 413 250 Q 414.3 253 410.5 252 L 397.5 250 L 393 246.5 L 395 246 L 393.5 244 L 394.5 242 L 401.5 238 L 417 235 L 417.5 237 L 418 235 L 431.5 233 Z " /><path fill="rgb(62,66,64)" stroke="rgb(62,66,64)" stroke-width="0.6" opacity="1" d="M 353.5 236 L 358 238.5 L 356 238.5 Q 355.2 241.5 359 240 L 359 242.5 L 360 246.5 L 359 249.5 L 360 252.5 L 356.5 257 L 352 256.5 L 352.5 255 Q 349.2 256.1 350 253.5 L 349 252.5 L 349 239.5 L 353.5 236 Z " /><path fill="rgb(62,66,64)" stroke="rgb(62,66,64)" stroke-width="0.6" opacity="1" d="M 207.5 245 L 211 247 L 211.5 245 L 216 248.5 Q 218.8 253.7 218 262.5 L 217 265 L 215 265.5 L 217 266.5 L 213.5 271 L 208.5 270 L 208.5 272 L 205 269.5 L 203 264.5 L 205 264 Q 206.9 259.2 203.5 260 L 204 258.5 L 203 253 L 205 252.5 L 203 251.5 L 207.5 245 Z " /><path fill="rgb(62,66,64)" stroke="rgb(62,66,64)" stroke-width="0.6" opacity="1" d="M 84.5 247 L 89 249.5 L 90 252.5 L 87.5 256 Q 82 257 81 253.5 L 84.5 247 Z " /><path fill="rgb(62,66,64)" stroke="rgb(62,66,64)" stroke-width="0.6" opacity="1" d="M 261.5 247 L 262 257.5 L 261 257.5 L 261.5 247 Z " /><path fill="rgb(62,66,64)" stroke="rgb(62,66,64)" stroke-width="0.6" opacity="1" d="M 310.5 284 L 321 284.5 L 310.5 285 L 310.5 284 Z " /><path fill="rgb(62,66,64)" stroke="rgb(62,66,64)" stroke-width="0.6" opacity="1" d="M 246.5 315 L 258 317 Q 259.3 320 255.5 319 L 245 316.5 L 246.5 315 Z " /><path fill="rgb(62,66,64)" stroke="rgb(62,66,64)" stroke-width="0.6" opacity="1" d="M 260 318 L 270 320 L 269.5 322 L 260 320 L 260 318 Z " /><path fill="rgb(62,66,64)" stroke="rgb(62,66,64)" stroke-width="0.6" opacity="1" d="M 289 324 L 309 327 Q 310.3 330.3 305.5 329 L 289 326 L 289 324 Z " /><path fill="rgb(62,66,64)" stroke="rgb(62,66,64)" stroke-width="0.6" opacity="1" d="M 310 328 L 326 330 Q 327.4 333.7 321.5 332 L 310 330 L 310 328 Z " /><path fill="rgb(62,66,64)" stroke="rgb(62,66,64)" stroke-width="0.6" opacity="1" d="M 473.5 333 L 474.5 335 L 473 334.5 L 471.5 336 L 468.5 337 L 469.5 335 L 473.5 333 Z " /><path fill="rgb(62,66,64)" stroke="rgb(62,66,64)" stroke-width="0.6" opacity="1" d="M 364.5 337 L 374 338 L 372.5 340 L 365.5 339 L 364.5 337 Z " /><path fill="rgb(62,66,64)" stroke="rgb(62,66,64)" stroke-width="0.6" opacity="1" d="M 463.5 337 L 467 337.5 L 457.5 341 L 457 339 L 463.5 337 Z " /><path fill="rgb(62,66,64)" stroke="rgb(62,66,64)" stroke-width="0.6" opacity="1" d="M 420 341 L 432.5 341 L 433 342.5 L 431.5 344 L 420 344 L 420 341 Z " /><path fill="rgb(62,66,64)" stroke="rgb(62,66,64)" stroke-width="0.6" opacity="1" d="M 98.5 355 L 124 355.5 L 98.5 356 L 98.5 355 Z " /><path fill="rgb(62,66,64)" stroke="rgb(62,66,64)" stroke-width="0.6" opacity="1" d="M 380.5 376 L 375.5 382 L 380.5 376 Z " /><path fill="rgb(238,237,220)" stroke="rgb(238,237,220)" stroke-width="0.6" opacity="1" d="M 418.5 117 L 437.5 117 L 440 118 L 441 124.5 L 420 212 L 398.5 206 L 359 198 L 390 147.5 L 407.5 123 L 418.5 117 Z " /><path fill="rgb(238,237,220)" stroke="rgb(238,237,220)" stroke-width="0.6" opacity="1" d="M 77.5 240 L 83 241.5 L 82 244 L 74 249.5 L 71 255.5 L 72 259.5 L 70.5 262 Q 66.5 260.5 68 253.5 L 71.5 246 Q 74.1 246.8 73 243.5 L 77.5 240 Z " /><path fill="rgb(238,237,220)" stroke="rgb(238,237,220)" stroke-width="0.6" opacity="1" d="M 268.5 242 Q 273.3 241.3 274 244.5 L 276 257.5 L 274 264 L 267 263 Q 263.4 258.5 265 247.5 L 268.5 242 Z " /><path fill="rgb(238,237,220)" stroke="rgb(238,237,220)" stroke-width="0.6" opacity="1" d="M 339.5 347 Q 346.5 350 357.5 349 L 361.5 351 L 379.5 352 L 384 354.5 L 385 363.5 Q 383.2 377.7 372.5 383 Q 359.2 393.2 338.5 396 L 339.5 394 Q 342.1 394.8 341 391.5 Q 347.9 383.4 346 366.5 L 338 348.5 L 339.5 347 Z " /><path fill="rgb(238,237,220)" stroke="rgb(238,237,220)" stroke-width="0.6" opacity="1" d="M 314.5 357 Q 321.4 354.5 320 359.5 L 316 369.5 Q 318 379.8 324 385 L 317.5 386 L 311 380.5 L 308 370.5 L 309 368.5 L 308 366.5 L 311 359 L 314.5 357 Z " /><path fill="rgb(92,86,82)" stroke="rgb(92,86,82)" stroke-width="0.6" opacity="1" d="M 413 250 L 423.5 250 L 424 252 L 413.5 252 L 413 250 Z " /><path fill="rgb(92,86,82)" stroke="rgb(92,86,82)" stroke-width="0.6" opacity="1" d="M 67.5 253 L 67 254.5 L 68 260.5 L 66 259.5 L 64 256 L 66 254.5 L 67.5 253 Z " /><path fill="rgb(65,123,150)" stroke="rgb(65,123,150)" stroke-width="0.6" opacity="1" d="M 168.5 244 L 169 257.5 L 168 257.5 L 168.5 244 Z " /><path fill="rgb(65,123,150)" stroke="rgb(65,123,150)" stroke-width="0.6" opacity="1" d="M 120.5 284 L 137 284.5 L 120.5 285 L 120.5 284 Z " /><path fill="rgb(65,123,150)" stroke="rgb(65,123,150)" stroke-width="0.6" opacity="1" d="M 63.5 313 L 68.5 319 L 63.5 313 Z " /><path fill="rgb(165,73,60)" stroke="rgb(165,73,60)" stroke-width="0.6" opacity="1" d="M 409.5 349 L 431 349.5 L 409.5 350 L 409.5 349 Z " /><path fill="rgb(65,101,112)" stroke="rgb(65,101,112)" stroke-width="0.6" opacity="1" d="M 90.5 212 L 101 212.5 L 90.5 213 L 90.5 212 Z " /><path fill="rgb(65,101,112)" stroke="rgb(65,101,112)" stroke-width="0.6" opacity="1" d="M 331.5 348 L 336.5 354 L 331.5 348 Z " /><path fill="rgb(219,219,211)" stroke="rgb(219,219,211)" stroke-width="0.6" opacity="1" d="M 421.5 116 L 437.5 116 L 441 118.5 L 440.5 123 L 440 118 L 437.5 117 L 421.5 117 L 421.5 116 Z " /><path fill="rgb(219,219,211)" stroke="rgb(219,219,211)" stroke-width="0.6" opacity="1" d="M 80.5 239 L 87 241.5 L 85 242.5 L 85.5 244 Q 81.1 245.5 82 242.5 L 81.5 240 L 80.5 239 Z " /><path fill="rgb(219,219,211)" stroke="rgb(219,219,211)" stroke-width="0.6" opacity="1" d="M 133.5 254 L 138 255.5 Q 138.8 260.3 135.5 261 L 132 259.5 L 133.5 254 Z " /><path fill="rgb(219,219,211)" stroke="rgb(219,219,211)" stroke-width="0.6" opacity="1" d="M 265.5 259 L 267 263 L 273 264.5 L 268.5 265 L 265.5 259 Z " /><path fill="rgb(219,219,211)" stroke="rgb(219,219,211)" stroke-width="0.6" opacity="1" d="M 68.5 260 L 71 261.5 L 71.5 260 L 76 267.5 L 73.5 268 L 72.5 265 Q 70.8 267.8 69 263.5 L 68.5 260 Z " /><path fill="rgb(219,219,211)" stroke="rgb(219,219,211)" stroke-width="0.6" opacity="1" d="M 414.5 354 L 428 354.5 L 414.5 355 L 414.5 354 Z " /><path fill="rgb(124,124,123)" stroke="rgb(124,124,123)" stroke-width="0.6" opacity="1" d="M 421.5 262 L 416.5 268 L 421.5 262 Z " /><path fill="rgb(160,160,158)" stroke="rgb(160,160,158)" stroke-width="0.6" opacity="1" d="M 174.5 179 L 185 179.5 L 174.5 180 L 174.5 179 Z " /><path fill="rgb(85,128,179)" stroke="rgb(85,128,179)" stroke-width="0.6" opacity="1" d="M 280.5 249 L 281 259.5 L 280 259.5 L 280.5 249 Z " /><path fill="rgb(85,128,179)" stroke="rgb(85,128,179)" stroke-width="0.6" opacity="1" d="M 422.5 260 L 413.5 270 L 422.5 260 Z " /><path fill="rgb(85,128,179)" stroke="rgb(85,128,179)" stroke-width="0.6" opacity="1" d="M 111.5 312 L 106.5 318 L 111.5 312 Z " /></svg>