<svg width="627" height="627" preserveAspectRatio="xMidYMid meet" viewBox="0 0 512 512" version="1.1" xmlns="http://www.w3.org/2000/svg" ><path fill="rgb(255,255,255)" stroke="rgb(255,255,255)" stroke-width="0.6" opacity="1" d="M 0 0 L 512 0 L 512 512 L 0 512 L 0 0 Z M 412 117 L 405 120 Q 393 129 388 144 L 375 180 L 303 171 L 272 169 Q 247 157 214 154 L 197 155 L 191 157 L 148 148 L 68 135 L 42 135 L 32 139 L 26 146 L 27 155 Q 32 161 41 164 L 69 172 L 114 221 L 100 229 L 96 229 Q 93 217 86 208 Q 82 200 73 197 Q 65 196 62 199 Q 55 203 54 213 Q 59 239 76 254 L 74 264 Q 73 285 83 297 Q 91 308 106 312 L 110 322 L 101 327 Q 91 334 88 348 L 88 361 L 95 375 Q 101 382 114 384 Q 127 384 134 378 Q 142 371 145 360 L 145 346 L 144 345 L 148 334 L 159 323 L 175 323 L 176 324 L 204 323 L 246 316 L 260 342 L 260 346 L 255 359 Q 253 378 262 387 Q 267 393 277 395 Q 291 397 298 391 Q 310 383 313 366 Q 314 348 307 340 Q 301 330 287 329 L 284 327 L 279 309 L 356 284 L 398 265 L 416 252 L 430 254 L 466 253 Q 476 252 480 246 L 479 240 L 468 233 L 429 226 Q 426 225 429 223 L 439 224 L 465 223 Q 476 222 483 216 L 486 211 Q 487 204 484 201 L 470 193 L 439 189 L 437 188 L 439 164 L 438 136 L 432 123 Q 427 115 412 117 Z " /><path fill="rgb(255,255,255)" stroke="rgb(255,255,255)" stroke-width="0.6" opacity="1" d="M 180.5 201 L 184 202.5 L 181.5 207 L 178 204.5 L 180.5 201 Z " /><path fill="rgb(255,255,255)" stroke="rgb(255,255,255)" stroke-width="0.6" opacity="1" d="M 95 290 L 101 291.5 L 102 295 L 95 291.5 L 95 290 Z " /><path fill="rgb(67,132,185)" stroke="rgb(67,132,185)" stroke-width="0.6" opacity="1" d="M 412.5 122 Q 426.4 120 430 128.5 L 433 139.5 L 433 171.5 L 431 184.5 L 432 187 L 429.5 188 L 382 181.5 L 382.5 180 L 381 179.5 L 396 138.5 L 406.5 125 L 412.5 122 Z " /><path fill="rgb(67,132,185)" stroke="rgb(67,132,185)" stroke-width="0.6" opacity="1" d="M 199.5 160 L 220.5 160 L 234.5 162 L 262 170 L 263 172.5 L 253 178.5 L 251 182.5 L 252.5 183 Q 259.9 172.4 279.5 174 L 442.5 194 L 467.5 198 L 476.5 201 L 481 205.5 Q 480.9 211.9 476.5 214 L 460.5 218 L 428.5 218 L 308.5 206 L 263.5 200 L 255.5 198 L 253 195.5 L 250.5 188 L 249 190.5 L 253 200.5 L 253 207.5 L 250 227.5 L 250 238.5 L 253.5 242 L 265.5 242 L 285.5 237 L 291 231.5 L 292 217.5 L 290 209.5 L 292.5 209 L 305.5 210 L 312 215 Q 312 223.1 305.5 226 L 301 229.5 L 301.5 231 Q 310.8 228.3 315 220.5 L 316.5 218 L 328.5 220 L 330.5 219 L 344.5 221 L 350 223.5 L 276.5 280 L 264.5 285 L 261 288.5 L 260 295.5 Q 262.1 301.4 271.5 300 Q 281.4 297.4 287.5 291 L 289 293.5 Q 283.8 300.8 274.5 304 L 227.5 314 L 226 312.5 L 230 308.5 L 240 288.5 L 243 273.5 L 244 255.5 L 243 248 L 241 248.5 L 241 259.5 L 240 261.5 L 241 263.5 L 236 290.5 Q 231.3 304.3 221.5 313 L 216.5 316 L 208.5 317 L 165.5 318 L 147.5 316 L 142 312.5 L 134 298.5 Q 142.6 289.6 142 271.5 Q 139.4 252.6 126.5 244 L 113.5 238 L 99.5 238 L 98 236.5 Q 111.6 225.6 131.5 221 L 155.5 220 L 184.5 226 L 224.5 239 L 234.5 240 L 239 236.5 Q 245.4 220.4 245 197.5 Q 243.8 185.2 236.5 179 Q 226.9 172.6 213.5 170 L 184.5 169 L 174.5 171 Q 171.5 169.5 174.5 168 Q 184.8 161.8 199.5 160 Z M 205 271 L 206 275 L 204 279 Q 198 287 186 290 L 183 289 L 179 290 L 171 287 L 165 280 Q 161 279 163 285 Q 168 292 179 294 Q 192 294 200 288 L 208 278 L 211 279 Q 213 280 212 276 L 205 271 Z " /><path fill="rgb(67,132,185)" stroke="rgb(67,132,185)" stroke-width="0.6" opacity="1" d="M 80.5 174 L 91 177.5 L 128 216.5 Q 125.7 219.7 119.5 219 L 116.5 215 L 110 209.5 L 79 176.5 L 81 175.5 L 80.5 174 Z " /><path fill="rgb(67,132,185)" stroke="rgb(67,132,185)" stroke-width="0.6" opacity="1" d="M 101.5 179 L 150 189 L 137.5 215 L 133.5 216 L 117.5 199 L 116 197.5 L 104.5 185 L 100 181.5 L 102 180.5 L 101.5 179 Z " /><path fill="rgb(67,132,185)" stroke="rgb(67,132,185)" stroke-width="0.6" opacity="1" d="M 413.5 231 L 421.5 232 L 426.5 231 L 462.5 237 L 475 242.5 L 473.5 245 L 463.5 248 L 436.5 249 L 402.5 246 L 391.5 244 L 387 241.5 L 389.5 237 L 396.5 234 L 413.5 231 Z " /><path fill="rgb(67,132,185)" stroke="rgb(67,132,185)" stroke-width="0.6" opacity="1" d="M 80 260 L 85 263.5 L 79.5 272 L 80 270.5 L 80 260 Z " /><path fill="rgb(67,132,185)" stroke="rgb(67,132,185)" stroke-width="0.6" opacity="1" d="M 127.5 345 L 130 346 L 131 348.5 L 127 355 Q 130.8 353.5 130 356.5 L 125.5 362 L 120 358.5 L 119 353.5 L 122.5 348 L 127.5 345 Z " /><path fill="rgb(11,11,11)" stroke="rgb(11,11,11)" stroke-width="0.6" opacity="1" d="M 411.5 118 Q 428 116 433 125.5 L 437 136.5 L 438 157.5 L 437 158.5 L 436 189 L 472.5 195 Q 480.2 196.9 484 202.5 L 485 210.5 L 479.5 217 L 462.5 222 L 427.5 222 L 425 224.5 L 426.5 227 L 466.5 234 Q 475 235.5 479 241.5 Q 480 247 476.5 248 L 464.5 252 L 432.5 253 L 414.5 251 Q 405.8 260.3 393.5 266 L 362.5 280 Q 323.7 295.7 279.5 306 L 277 308.5 L 285.5 330 Q 299.2 330.3 305 338.5 Q 313.3 346.7 312 364.5 Q 309.5 381 298.5 389 Q 291.7 395.7 276.5 394 Q 266.3 391.3 261 383.5 Q 254.5 375.5 256 359.5 L 262 343.5 L 246.5 315 L 203.5 322 L 158.5 322 L 147 333.5 L 143 345.5 L 144 358.5 Q 141.6 370.6 133.5 377 Q 126 384 109.5 382 Q 99.3 379.3 94 371.5 Q 87.4 364.1 89 348.5 Q 91.5 336 99.5 329 L 111 322.5 Q 110.1 314.9 105.5 311 Q 92 307.5 85 297.5 Q 74.9 286.6 75 265.5 L 77 253.5 Q 66 242.5 59 227.5 Q 54.6 220.4 56 207.5 L 61.5 200 Q 65.1 197.1 72.5 198 Q 81.1 200.4 85 207.5 L 96.5 231 L 116 221.5 L 69.5 171 L 43.5 164 Q 33.9 161.1 28 154.5 L 27 145.5 L 31.5 140 L 42.5 136 L 66.5 136 L 141.5 148 L 190.5 158 L 196.5 156 L 224.5 156 Q 251 159.5 270.5 170 L 283.5 170 L 374.5 181 L 378 176.5 L 390 141.5 Q 394.6 128.6 404.5 121 L 411.5 118 Z M 413 121 L 407 124 L 396 137 Q 386 157 380 182 L 382 183 L 431 189 L 433 186 L 434 157 L 435 156 L 434 138 L 431 129 Q 427 119 413 121 Z M 44 139 L 35 142 L 30 148 L 31 153 L 35 156 L 54 164 L 94 174 L 100 174 L 113 178 L 154 186 L 163 173 Q 170 165 181 161 L 172 157 L 166 157 L 151 153 L 100 144 L 66 139 L 44 139 Z M 200 159 Q 179 161 168 172 L 166 175 L 182 170 Q 214 167 234 178 Q 241 183 243 193 L 243 215 L 242 216 Q 244 223 240 222 L 241 216 L 241 192 L 239 187 L 229 178 L 222 175 L 206 172 Q 179 169 165 178 Q 156 184 152 195 L 143 213 L 143 217 Q 155 216 164 219 L 169 217 L 173 219 L 170 214 Q 168 201 177 198 L 183 198 L 188 202 Q 188 211 184 216 L 180 219 L 178 222 L 193 225 L 225 236 L 234 237 Q 238 234 239 228 Q 237 222 241 223 Q 242 235 235 239 L 221 237 L 186 225 L 156 219 Q 139 217 128 221 L 101 233 L 97 238 L 100 239 L 99 242 L 101 253 L 116 258 L 122 271 Q 123 279 120 283 L 120 285 L 132 297 Q 138 291 139 279 L 138 271 Q 136 265 140 266 L 141 273 Q 141 290 133 299 L 142 315 L 148 317 L 164 319 L 200 319 L 217 317 L 220 315 L 224 316 L 267 307 L 282 301 L 286 302 L 354 280 Q 382 270 406 255 L 409 250 L 389 247 L 383 243 L 384 238 L 393 232 L 412 228 L 421 228 Q 424 226 422 221 L 390 218 L 386 218 L 299 282 L 295 288 Q 293 291 292 287 Q 284 295 273 299 Q 263 301 261 296 L 262 289 L 277 281 L 353 223 L 346 220 L 317 217 L 309 226 L 307 226 L 313 219 L 308 211 L 307 209 L 293 207 L 289 209 L 291 219 Q 293 228 289 233 L 283 237 L 258 242 L 251 239 L 251 229 L 254 208 L 253 200 L 254 197 L 259 200 L 285 204 L 428 219 L 462 219 L 477 215 L 482 210 L 482 206 L 472 198 L 450 194 L 434 193 L 413 189 L 396 188 L 374 184 L 364 184 L 349 181 L 280 173 L 267 174 L 265 172 Q 240 157 200 159 Z M 77 173 L 77 176 L 120 220 Q 127 221 129 217 L 93 179 L 90 175 L 77 173 Z M 98 178 L 100 183 L 117 201 L 133 216 L 138 216 L 151 190 L 137 185 L 126 184 L 98 178 Z M 180 200 L 177 204 L 178 207 L 183 208 Q 186 207 185 203 Q 184 199 180 200 Z M 67 201 L 65 202 Q 59 205 58 213 Q 66 243 88 261 L 99 256 Q 95 227 81 208 Q 77 201 67 201 Z M 258 202 L 256 204 L 253 229 Q 251 237 255 239 Q 272 239 284 234 L 289 227 L 287 210 L 284 206 L 264 204 L 258 202 Z M 315 210 L 313 212 L 317 214 L 356 219 L 361 217 L 360 215 L 315 210 Z M 367 216 L 273 287 L 270 286 L 266 288 L 263 292 Q 262 296 266 297 Q 275 298 280 293 L 380 219 Q 375 215 367 216 Z M 412 230 L 397 233 L 388 237 L 386 242 L 391 245 L 437 250 L 465 249 L 474 246 L 476 243 L 470 238 L 449 233 L 428 230 L 412 230 Z M 106 257 Q 112 262 114 273 L 113 278 L 118 281 L 120 276 Q 120 267 116 263 Q 113 258 106 257 Z M 81 258 L 78 267 Q 78 284 86 294 Q 93 304 106 307 L 105 302 L 96 296 L 82 277 L 85 262 L 81 258 Z M 96 259 L 92 261 L 85 269 L 86 280 Q 89 285 97 287 L 106 285 L 111 278 L 110 266 Q 108 257 96 259 Z M 111 281 L 111 283 L 104 289 L 112 318 L 122 337 L 131 343 L 140 342 L 144 335 L 144 327 L 137 310 L 118 286 Q 117 280 111 281 Z M 94 288 L 92 290 Q 96 296 103 297 L 102 291 L 94 288 Z M 271 308 L 264 310 Q 262 315 260 312 L 252 313 L 250 315 L 265 341 L 270 336 L 270 333 L 273 334 L 281 330 L 275 310 L 271 308 Z M 147 319 L 145 321 L 146 324 Q 144 329 149 328 L 154 322 L 147 319 Z M 111 327 L 103 331 Q 94 337 92 350 Q 91 365 98 372 L 111 379 L 122 379 L 122 378 L 131 375 Q 138 369 141 359 L 141 347 L 140 345 L 137 346 Q 132 348 133 355 L 129 353 L 133 348 L 126 344 L 124 347 L 119 351 Q 120 354 117 353 Q 117 346 123 344 L 120 338 L 117 336 L 109 343 L 111 339 L 116 336 L 117 334 L 114 329 L 111 327 Z M 280 334 L 272 338 Q 262 345 259 360 Q 258 376 265 384 Q 270 389 279 391 Q 289 392 294 388 L 295 386 L 299 384 Q 307 377 309 364 Q 310 348 302 341 Q 296 332 280 334 Z " /><path fill="rgb(11,11,11)" stroke="rgb(11,11,11)" stroke-width="0.6" opacity="1" d="M 214 183 Q 220 182.1 223 185.5 L 221.5 187 Q 219.3 184 214 185 L 214 183 Z " /><path fill="rgb(11,11,11)" stroke="rgb(11,11,11)" stroke-width="0.6" opacity="1" d="M 212.5 204 Q 218.8 202.8 220 206.5 L 218.5 206 L 213 209.5 L 216.5 215 L 220 213.5 L 222.5 208 L 224 214.5 Q 222.9 221.9 217.5 225 L 211.5 227 Q 204.4 224.1 205 213.5 L 210.5 205 L 212.5 204 Z " /><path fill="rgb(11,11,11)" stroke="rgb(11,11,11)" stroke-width="0.6" opacity="1" d="M 111 239 Q 126.5 240.9 134 252.5 L 136 257.5 L 133 255.5 L 124.5 246 Q 119.8 241 111 241 L 111 239 Z " /><path fill="rgb(11,11,11)" stroke="rgb(11,11,11)" stroke-width="0.6" opacity="1" d="M 206.5 273 L 210 275.5 L 208.5 277 L 199.5 287 Q 192.5 292.5 180.5 293 Q 169.1 291.9 164 284.5 L 165.5 283 Q 170.1 291.4 183.5 291 Q 198.3 288.8 205 278.5 L 207 274.5 L 206.5 273 Z " /><path fill="rgb(11,11,11)" stroke="rgb(11,11,11)" stroke-width="0.6" opacity="1" d="M 292.5 290 L 292 291.5 L 287.5 298 L 286 297.5 L 292.5 290 Z " /><path fill="rgb(11,11,11)" stroke="rgb(11,11,11)" stroke-width="0.6" opacity="1" d="M 232.5 301 L 232 302.5 L 225.5 312 L 224 311.5 L 232.5 301 Z " /><path fill="rgb(11,11,11)" stroke="rgb(11,11,11)" stroke-width="0.6" opacity="1" d="M 293 348 L 299 351.5 L 301 359 Q 297.7 360.3 299 355.5 L 294.5 350 L 293 348 Z " /><path fill="rgb(11,11,11)" stroke="rgb(11,11,11)" stroke-width="0.6" opacity="1" d="M 286.5 349 L 289 349.5 L 284 353.5 L 282 358 L 280 357.5 L 286.5 349 Z " /><path fill="rgb(11,11,11)" stroke="rgb(11,11,11)" stroke-width="0.6" opacity="1" d="M 130 356 Q 133 354.8 132 358.5 L 127.5 364 Q 120.3 365.3 118 361.5 L 117 357 L 119 358.5 L 121.5 362 Q 128.8 363.3 130 358.5 L 130 356 Z " /><path fill="rgb(11,11,11)" stroke="rgb(11,11,11)" stroke-width="0.6" opacity="1" d="M 106 362 Q 109 360.8 108 364.5 L 116 374.5 L 114.5 374 L 108 368.5 L 106 362 Z " /><path fill="rgb(11,11,11)" stroke="rgb(11,11,11)" stroke-width="0.6" opacity="1" d="M 299 364 L 301 365.5 L 295.5 373 L 290 371.5 L 291.5 370 L 295.5 371 L 299 364 Z " /><path fill="rgb(11,11,11)" stroke="rgb(11,11,11)" stroke-width="0.6" opacity="1" d="M 279 372 Q 282 370.8 281 374.5 L 288 383.5 L 286.5 383 L 281 378.5 L 279 372 Z " /><path fill="rgb(64,68,66)" stroke="rgb(64,68,66)" stroke-width="0.6" opacity="1" d="M 183.5 172 L 185 174 L 188 174 L 188.5 172 L 197.5 173 L 199 172.5 Q 198.2 175.5 202 174 L 203.5 172 L 208 173 L 208.5 175 L 209 173 L 224 176.5 L 224.5 179 L 225.5 177 L 238 185.5 L 241 192.5 L 241 210.5 L 239 224 Q 236 223 237 226 L 239 226.5 Q 238.5 234 233.5 237 L 212 232 L 211 228.5 L 214.5 227 L 216 227.5 Q 223 222.7 224 213 L 226 212.5 L 224 212 L 222.5 208 L 220.5 209 Q 217.5 207.5 220.5 206 L 225.5 207 L 225.5 206 L 223 205.5 L 224 202 L 221.5 203 L 219.5 203 L 216.5 204 L 214.5 203 L 206 208.5 L 206.5 210 L 205 210.5 L 206 212.5 L 205 219.5 L 205.5 221 L 201 222 L 200 227 L 182 223 L 182 219.5 L 185 216.5 L 188 208.5 L 188 198.5 L 182.5 191 L 179 189 L 180 191.5 L 175.5 192 L 173.5 191 L 169.5 194 L 168 193.5 Q 169.9 198.9 166.5 198 L 166 200.5 L 164 203.5 L 165 206 Q 161.7 204.7 163 209.5 L 164 214 Q 169.3 212.3 167 219 L 159 218 L 158.5 216 L 157.5 218 L 152 217 L 151.5 215 L 144 215 L 143.5 217 L 143 214.5 Q 149.8 196.1 160 182 L 163 181.5 L 163.5 179 L 178.5 173 L 179.5 175 L 180 173 L 183.5 172 Z M 179 178 L 177 179 Q 174 181 177 182 L 183 181 L 185 181 Q 184 177 179 178 Z M 217 182 L 212 185 L 216 186 L 219 185 L 218 187 L 221 188 Q 222 185 224 189 L 226 188 L 217 182 Z M 215 196 L 222 202 L 222 201 Q 221 195 215 196 Z M 207 197 Q 205 200 204 198 L 203 201 L 201 205 L 203 204 Q 202 201 206 202 L 206 199 L 209 198 L 207 197 Z " /><path fill="rgb(64,68,66)" stroke="rgb(64,68,66)" stroke-width="0.6" opacity="1" d="M 80.5 178 L 85.5 184 L 80.5 178 Z " /><path fill="rgb(64,68,66)" stroke="rgb(64,68,66)" stroke-width="0.6" opacity="1" d="M 95.5 194 L 102.5 202 L 95.5 194 Z " /><path fill="rgb(64,68,66)" stroke="rgb(64,68,66)" stroke-width="0.6" opacity="1" d="M 68.5 201 L 74.5 204 L 75.5 203 L 82 209.5 L 87 217.5 Q 84 219.5 89 221.5 L 95 238.5 L 93 239.5 L 96 241.5 L 94 242 L 95.5 244 L 99 255.5 L 97.5 255 Q 94.2 253.9 95 256.5 L 89.5 260 L 86.5 260 L 80.5 251 L 78 250.5 L 77 247 L 73 244.5 L 65 232.5 L 66 229 Q 61.9 230.7 63 226.5 L 60 218.5 L 60.5 217 L 59 216.5 L 59 208.5 L 62 207.5 L 64 204.5 L 63.5 203 L 68.5 201 Z " /><path fill="rgb(64,68,66)" stroke="rgb(64,68,66)" stroke-width="0.6" opacity="1" d="M 123.5 211 L 128.5 217 L 123.5 211 Z " /><path fill="rgb(64,68,66)" stroke="rgb(64,68,66)" stroke-width="0.6" opacity="1" d="M 102.5 238 L 104 239.5 L 103 242 L 108 242 L 109.5 240 L 121.5 244 L 132 253.5 L 137 262.5 L 139 277.5 L 136 284.5 L 137 287.5 L 131.5 296 L 128 293.5 L 121 285.5 L 122 283 L 120 282.5 L 122 275 L 124 274.5 L 122 274 Q 122.4 262 114.5 257 L 101 252.5 L 100 249.5 L 102 249 L 100.5 247 L 99 242.5 L 102 240.5 L 102.5 238 Z " /><path fill="rgb(64,68,66)" stroke="rgb(64,68,66)" stroke-width="0.6" opacity="1" d="M 440.5 249 L 451 249.5 L 440.5 250 L 440.5 249 Z " /><path fill="rgb(64,68,66)" stroke="rgb(64,68,66)" stroke-width="0.6" opacity="1" d="M 95.5 259 Q 106 257.9 109 264.5 Q 112.3 268.2 111 276.5 L 108 278 L 109 280.5 Q 105.8 286.3 97.5 287 L 90 283.5 Q 92.7 281.8 88.5 280 L 86 279.5 L 87 277.5 L 85 277 Q 83.3 264.7 91.5 261 L 95.5 259 Z " /><path fill="rgb(64,68,66)" stroke="rgb(64,68,66)" stroke-width="0.6" opacity="1" d="M 112.5 260 L 113 262 L 117 264.5 Q 120 268.5 119 276.5 L 117.5 279 L 114.5 277 L 113 277.5 L 114 270.5 L 110 261 L 112.5 260 Z " /><path fill="rgb(64,68,66)" stroke="rgb(64,68,66)" stroke-width="0.6" opacity="1" d="M 226.5 308 L 221.5 314 L 226.5 308 Z " /><path fill="rgb(229,77,62)" stroke="rgb(229,77,62)" stroke-width="0.6" opacity="1" d="M 45.5 140 Q 67.9 138.6 83.5 144 L 86.5 143 L 138.5 152 L 157.5 157 L 159.5 156 L 177 160 L 175.5 162 L 162 171.5 L 153.5 184 L 137.5 182 L 129.5 179 L 127.5 179 L 122.5 179 L 57.5 164 Q 42.3 160.7 32 152.5 L 31 150.5 L 32 148.5 L 32 146.5 L 34.5 143 L 45.5 140 Z " /><path fill="rgb(229,77,62)" stroke="rgb(229,77,62)" stroke-width="0.6" opacity="1" d="M 174.5 193 Q 181.5 191.5 183 195.5 Q 181.8 198.3 176.5 197 L 172 200.5 L 169 204.5 L 169 206.5 L 169 214.5 L 167 215 L 166 203.5 L 172.5 194 L 174.5 193 Z " /><path fill="rgb(229,77,62)" stroke="rgb(229,77,62)" stroke-width="0.6" opacity="1" d="M 370.5 217 L 376 218 L 374.5 222 L 283.5 289 L 269.5 296 L 264 295 L 267.5 288 L 271.5 289 L 278 285 L 279.5 283 L 362.5 220 L 370.5 217 Z " /><path fill="rgb(229,77,62)" stroke="rgb(229,77,62)" stroke-width="0.6" opacity="1" d="M 271.5 309 L 274 310.5 L 279 329.5 L 272.5 332 L 268 324.5 L 264 311 L 271.5 309 Z " /><path fill="rgb(229,77,62)" stroke="rgb(229,77,62)" stroke-width="0.6" opacity="1" d="M 279.5 335 Q 297.8 332.8 303 343.5 Q 309.5 351.5 307 368.5 L 298.5 383 L 292.5 384 L 285 379.5 Q 280.8 374.2 281 364.5 Q 282.1 355.1 288.5 351 L 291.5 350 L 295 351 L 297 355.5 L 298 366.5 L 292.5 370 L 289.5 361 Q 286 363 288 370.5 Q 288.8 375.8 295.5 375 L 302 366.5 L 303 357.5 L 296.5 348 L 289.5 347 L 282 351.5 L 277 362.5 L 277 364.5 L 278 370.5 L 277 372.5 L 284.5 384 L 289 386.5 L 287.5 389 L 280.5 390 L 274.5 389 L 269 385.5 Q 261.2 379.8 260 367.5 L 263 350.5 L 271.5 339 L 279.5 335 Z " /><path fill="rgb(229,77,62)" stroke="rgb(229,77,62)" stroke-width="0.6" opacity="1" d="M 115.5 338 L 120 339.5 L 122 343.5 L 118 346 Q 114.8 349.5 115 357.5 L 120.5 365 L 125.5 366 L 134 358.5 L 133 356.5 L 134 350.5 L 137.5 347 L 139 348.5 L 140 356.5 Q 138 368.5 129.5 374 L 120.5 375 L 112 369.5 Q 106.6 363.9 108 351.5 Q 109.5 342.5 115.5 338 Z " /><path fill="rgb(238,237,220)" stroke="rgb(238,237,220)" stroke-width="0.6" opacity="1" d="M 257 204 L 282.5 207 L 286 210.5 L 288 225.5 L 285.5 231 Q 274.8 237.3 258.5 238 L 255 237 L 254 231.5 L 257 204 Z " /><path fill="rgb(238,237,220)" stroke="rgb(238,237,220)" stroke-width="0.6" opacity="1" d="M 384.5 220 L 409.5 221 L 419.5 222 L 421 223.5 L 419.5 227 L 409.5 227 L 391.5 231 L 382 238.5 Q 381.2 244.3 384.5 246 Q 390.8 250.2 401.5 250 L 406 252.5 L 387.5 264 L 352.5 279 L 289 299 L 297.5 284 L 384.5 220 Z " /><path fill="rgb(238,237,220)" stroke="rgb(238,237,220)" stroke-width="0.6" opacity="1" d="M 112.5 282 L 135 308.5 L 142 323.5 L 143 333.5 Q 142.4 339.9 137.5 342 L 130.5 342 L 122 334.5 L 113 316.5 L 105 289.5 L 112.5 282 Z " /><path fill="rgb(238,237,220)" stroke="rgb(238,237,220)" stroke-width="0.6" opacity="1" d="M 89.5 292 L 102 301.5 L 101 304 L 89 295.5 L 89.5 292 Z " /><path fill="rgb(238,237,220)" stroke="rgb(238,237,220)" stroke-width="0.6" opacity="1" d="M 257.5 313 L 260 314.5 L 268 335.5 L 263 338 L 252 315.5 L 257.5 313 Z " /><path fill="rgb(238,237,220)" stroke="rgb(238,237,220)" stroke-width="0.6" opacity="1" d="M 110.5 328 L 114 330.5 L 115 335 L 108 340.5 Q 102.8 347.3 104 360.5 Q 105.8 370.2 112.5 375 L 115 376.5 Q 115.9 379.5 111.5 378 Q 102.6 375.9 98 369.5 Q 93.1 362.9 93 351.5 Q 95.2 336.7 105.5 330 L 110.5 328 Z " /><path fill="rgb(40,40,39)" stroke="rgb(40,40,39)" stroke-width="0.6" opacity="1" d="M 204.5 155 L 216 155.5 L 204.5 156 L 204.5 155 Z " /><path fill="rgb(40,40,39)" stroke="rgb(40,40,39)" stroke-width="0.6" opacity="1" d="M 262.5 173 L 266 173.5 L 259.5 177 L 258.5 175 L 260 175.5 L 261.5 174 L 262.5 173 Z " /><path fill="rgb(40,40,39)" stroke="rgb(40,40,39)" stroke-width="0.6" opacity="1" d="M 173.5 191 L 175 193 L 170 194 L 168.5 197 L 168 195.5 L 173.5 191 Z " /><path fill="rgb(40,40,39)" stroke="rgb(40,40,39)" stroke-width="0.6" opacity="1" d="M 180 191 Q 184.7 190.3 186 194.5 L 187 196.5 L 186.5 198 Q 189.1 197.2 188 200.5 L 186 199.5 L 181.5 193 L 180 191 Z " /><path fill="rgb(40,40,39)" stroke="rgb(40,40,39)" stroke-width="0.6" opacity="1" d="M 107.5 194 L 112.5 200 L 107.5 194 Z " /><path fill="rgb(40,40,39)" stroke="rgb(40,40,39)" stroke-width="0.6" opacity="1" d="M 214.5 196 Q 221.3 195.3 222 200.5 L 224 202 L 224 205 Q 221 206.3 222 202.5 L 217.5 197 L 215.5 198 L 214.5 196 Z " /><path fill="rgb(40,40,39)" stroke="rgb(40,40,39)" stroke-width="0.6" opacity="1" d="M 117.5 200 L 123.5 207 L 117.5 200 Z " /><path fill="rgb(40,40,39)" stroke="rgb(40,40,39)" stroke-width="0.6" opacity="1" d="M 108.5 208 L 116.5 217 L 108.5 208 Z " /><path fill="rgb(40,40,39)" stroke="rgb(40,40,39)" stroke-width="0.6" opacity="1" d="M 440.5 222 L 452 222.5 L 440.5 223 L 440.5 222 Z " /><path fill="rgb(40,40,39)" stroke="rgb(40,40,39)" stroke-width="0.6" opacity="1" d="M 207.5 223 L 213 227.5 L 210.5 229 L 207.5 223 Z " /><path fill="rgb(40,40,39)" stroke="rgb(40,40,39)" stroke-width="0.6" opacity="1" d="M 135.5 255 L 140 265.5 L 138 266 L 137.5 268 L 136 260.5 L 136.5 259 L 134 257.5 L 135.5 255 Z " /><path fill="rgb(40,40,39)" stroke="rgb(40,40,39)" stroke-width="0.6" opacity="1" d="M 238 283 L 240 284.5 L 236 297 L 234 295.5 L 238 283 Z " /><path fill="rgb(40,40,39)" stroke="rgb(40,40,39)" stroke-width="0.6" opacity="1" d="M 263 318 L 265 319.5 L 267 323.5 L 266.5 325 L 268 325.5 L 266 326.5 L 265 323.5 L 265.5 322 L 264 320.5 L 263 318 Z " /><path fill="rgb(40,40,39)" stroke="rgb(40,40,39)" stroke-width="0.6" opacity="1" d="M 174.5 322 L 189 322.5 L 174.5 323 L 174.5 322 Z " /><path fill="rgb(40,40,39)" stroke="rgb(40,40,39)" stroke-width="0.6" opacity="1" d="M 269.5 335 L 264.5 341 L 262.5 338 L 264.5 340 L 269.5 335 Z " /><path fill="rgb(40,40,39)" stroke="rgb(40,40,39)" stroke-width="0.6" opacity="1" d="M 279 362 L 281 363.5 L 280 369.5 L 281 372 L 279 370.5 L 278 364.5 L 279 362 Z " /><path fill="rgb(40,40,39)" stroke="rgb(40,40,39)" stroke-width="0.6" opacity="1" d="M 287.5 382 Q 289.4 385.6 296 384.5 L 294.5 387 L 286 383.5 L 287.5 382 Z " /><path fill="rgb(81,92,95)" stroke="rgb(81,92,95)" stroke-width="0.6" opacity="1" d="M 207.5 159 L 219 159.5 L 207.5 160 L 207.5 159 Z " /><path fill="rgb(81,92,95)" stroke="rgb(81,92,95)" stroke-width="0.6" opacity="1" d="M 96.5 183 L 103.5 191 L 96.5 183 Z " /><path fill="rgb(81,92,95)" stroke="rgb(81,92,95)" stroke-width="0.6" opacity="1" d="M 441.5 218 L 453 218.5 L 441.5 219 L 441.5 218 Z " /><path fill="rgb(81,92,95)" stroke="rgb(81,92,95)" stroke-width="0.6" opacity="1" d="M 173.5 318 L 189 318.5 L 173.5 319 L 173.5 318 Z " /><path fill="rgb(66,121,144)" stroke="rgb(66,121,144)" stroke-width="0.6" opacity="1" d="M 433.5 145 L 434 160.5 L 433 160.5 L 433.5 145 Z " /><path fill="rgb(66,121,144)" stroke="rgb(66,121,144)" stroke-width="0.6" opacity="1" d="M 108.5 196 L 114.5 203 L 108.5 196 Z " /><path fill="rgb(212,212,208)" stroke="rgb(212,212,208)" stroke-width="0.6" opacity="1" d="M 439.5 223 L 453 223.5 L 439.5 224 L 439.5 223 Z " /><path fill="rgb(212,212,208)" stroke="rgb(212,212,208)" stroke-width="0.6" opacity="1" d="M 84.5 283 L 88 287.5 L 86.5 287 L 85 288.5 L 84 288.5 L 82 284.5 L 85 285.5 L 84.5 283 Z " /><path fill="rgb(212,212,208)" stroke="rgb(212,212,208)" stroke-width="0.6" opacity="1" d="M 88.5 289 L 91 292.5 L 89 292.5 L 88.5 295 L 85 290.5 L 88 291.5 L 88.5 289 Z " /><path fill="rgb(212,212,208)" stroke="rgb(212,212,208)" stroke-width="0.6" opacity="1" d="M 98.5 298 L 104 301.5 L 103.5 304 L 102 303.5 L 101.5 305 L 101 302.5 L 100.5 300 L 98.5 298 Z " /><path fill="rgb(212,212,208)" stroke="rgb(212,212,208)" stroke-width="0.6" opacity="1" d="M 176.5 323 L 188 323.5 L 176.5 324 L 176.5 323 Z " /><path fill="rgb(120,122,121)" stroke="rgb(120,122,121)" stroke-width="0.6" opacity="1" d="M 204.5 221 L 204 222.5 L 205.5 225 L 208 225.5 L 204.5 227 L 203 223.5 L 204.5 221 Z " /><path fill="rgb(152,153,153)" stroke="rgb(152,153,153)" stroke-width="0.6" opacity="1" d="M 290.5 295 L 288.5 299 L 290 299.5 L 286.5 300 L 290.5 295 Z " /><path fill="rgb(186,74,61)" stroke="rgb(186,74,61)" stroke-width="0.6" opacity="1" d="M 167.5 167 L 159.5 176 L 167.5 167 Z " /><path fill="rgb(186,74,61)" stroke="rgb(186,74,61)" stroke-width="0.6" opacity="1" d="M 307.5 354 L 308 364.5 L 307 364.5 L 307.5 354 Z " /></svg>