<svg width="627" height="627" preserveAspectRatio="xMidYMid meet" viewBox="0 0 512 512" version="1.1" xmlns="http://www.w3.org/2000/svg" ><path fill="rgb(255,255,255)" stroke="rgb(255,255,255)" stroke-width="0.6" opacity="1" d="M 0 0 L 512 0 L 512 512 L 0 512 L 0 0 Z M 373 92 L 314 97 L 248 107 L 245 107 Q 240 98 229 96 Q 216 95 210 100 L 204 107 L 161 105 L 160 104 L 103 104 L 80 107 L 67 112 L 61 119 L 62 127 Q 67 132 76 134 L 103 137 Q 157 136 202 125 L 207 125 L 213 129 L 215 132 L 215 146 L 214 147 L 203 148 L 190 158 L 175 159 L 146 168 Q 127 176 113 188 Q 96 202 86 223 L 71 258 L 57 279 L 52 296 L 53 319 Q 57 332 65 342 L 83 356 L 110 368 L 105 383 L 103 385 L 92 385 Q 80 381 72 373 L 64 373 L 58 380 L 60 390 Q 69 402 88 405 L 105 405 L 120 403 L 173 393 L 169 400 Q 168 408 172 412 Q 179 419 193 421 L 214 420 L 250 412 L 301 397 L 326 386 L 329 382 Q 331 372 325 370 L 318 370 L 302 376 L 298 376 L 293 365 L 282 349 L 300 336 Q 316 322 322 298 L 366 271 L 414 237 L 425 239 L 427 245 L 429 260 L 434 270 L 444 277 Q 451 278 455 275 Q 460 271 461 264 Q 459 239 443 230 L 445 224 Q 447 205 436 200 L 444 180 L 446 170 Q 447 157 442 152 L 435 147 L 426 149 Q 417 155 416 168 L 416 186 L 417 187 L 403 193 Q 394 201 390 214 L 387 216 L 369 218 L 329 218 L 319 216 L 306 196 Q 290 175 263 167 Q 258 164 257 157 Q 251 147 235 147 L 233 146 L 233 131 L 243 123 L 335 130 L 372 130 L 397 128 Q 415 126 429 119 L 435 112 L 434 104 L 426 97 L 415 94 L 395 92 L 373 92 Z " /><path fill="rgb(67,132,185)" stroke="rgb(67,132,185)" stroke-width="0.6" opacity="1" d="M 105.5 109 L 155.5 109 L 156.5 110 L 201.5 112 L 203 113.5 L 204 118.5 L 199.5 121 L 178.5 125 L 140.5 130 L 90.5 131 L 73.5 128 L 66 122.5 Q 65.3 116.8 69.5 116 L 80.5 112 L 105.5 109 Z " /><path fill="rgb(67,132,185)" stroke="rgb(67,132,185)" stroke-width="0.6" opacity="1" d="M 220 131 Q 226.1 129.2 228 132.5 L 228 145.5 L 226.5 147 Q 220.5 148.5 219 145.5 L 220 131 Z " /><path fill="rgb(67,132,185)" stroke="rgb(67,132,185)" stroke-width="0.6" opacity="1" d="M 430.5 152 Q 437.4 151.1 439 155.5 Q 442.5 159.5 441 168.5 L 436 187.5 L 429.5 198 Q 424.3 199.3 423 196.5 L 421 181.5 L 421 179.5 Q 419.8 167.3 423 159.5 L 428.5 153 L 430.5 152 Z " /><path fill="rgb(67,132,185)" stroke="rgb(67,132,185)" stroke-width="0.6" opacity="1" d="M 190.5 162 L 232.5 165 L 258.5 170 Q 286.4 179.1 303 199.5 Q 316.2 215.6 320 240 Q 323.5 241.1 322 233.5 L 320 222 L 326.5 223 L 370.5 223 L 386.5 221 L 394 216.5 Q 397.8 203.8 406.5 196 Q 409.3 192.3 416.5 193 L 419 199.5 L 413 204.5 Q 407.5 210 408 221.5 L 411 232.5 Q 371.5 264 325.5 289 L 324.5 287 L 323 287.5 L 325 269.5 L 322.5 266 L 321 267.5 L 320 287.5 L 316 303.5 Q 308.8 322.3 294.5 334 L 269.5 349 L 244.5 357 L 221.5 362 L 176 367 L 177.5 365 Q 195.7 357.7 208 344.5 Q 218.4 333.4 224 317.5 L 228 303.5 L 229 285.5 L 230.5 284 Q 234.3 290.7 247.5 288 L 281.5 282 L 289 277.5 Q 294.6 268.6 293 252.5 L 286 214.5 Q 282.5 205.5 275.5 200 L 270.5 197 L 253.5 195 L 243.5 197 L 236 203.5 L 231 232.5 L 231 243.5 L 228 262.5 L 228 280.5 L 228 282.5 L 225 301.5 L 218 323.5 Q 210.5 339.5 197.5 350 Q 186.6 359.1 171.5 364 Q 159.8 368.3 142.5 367 L 114.5 363 L 95.5 357 Q 79 350 68 337.5 L 59 321.5 Q 55.7 311.3 57 296.5 Q 60.1 277.1 71.5 266 L 73 267.5 L 77.5 272 L 97.5 277 L 144.5 283 L 182.5 285 L 196.5 283 L 207 276.5 L 212 269.5 L 218 248.5 L 222 218.5 L 222 203.5 Q 219.9 189.1 209.5 183 L 189.5 176 L 158.5 174 L 145.5 176 L 145 174 Q 163.9 164.7 190.5 162 Z M 275 294 L 269 296 L 263 303 Q 263 308 268 310 Q 279 312 285 308 L 289 302 L 288 298 Q 285 292 275 294 Z M 88 310 L 83 314 L 84 317 L 87 316 L 88 319 Q 97 331 116 334 Q 139 335 150 324 L 154 319 L 157 320 L 158 317 L 153 312 L 149 314 L 151 317 Q 143 328 125 330 Q 105 330 96 321 L 90 315 L 91 312 L 88 310 Z " /><path fill="rgb(67,132,185)" stroke="rgb(67,132,185)" stroke-width="0.6" opacity="1" d="M 425.5 202 Q 435.4 202.6 439 209.5 L 440 223.5 L 432.5 233 L 421.5 234 L 415 228.5 Q 411.7 223.8 413 214.5 Q 414.8 207.3 420.5 204 L 425.5 202 Z M 427 208 L 425 209 L 419 217 Q 418 223 421 226 L 426 229 L 433 228 Q 439 225 437 214 L 432 208 L 427 208 Z " /><path fill="rgb(67,132,185)" stroke="rgb(67,132,185)" stroke-width="0.6" opacity="1" d="M 123.5 237 L 127 239.5 Q 127.8 244.3 124.5 245 L 120 243.5 L 121.5 238 L 123.5 237 Z " /><path fill="rgb(67,132,185)" stroke="rgb(67,132,185)" stroke-width="0.6" opacity="1" d="M 211.5 367 Q 218.3 365.3 220 368.5 L 227 385.5 L 228 396 L 220.5 398 L 214 376.5 L 209 369.5 L 211.5 367 Z " /><path fill="rgb(229,77,62)" stroke="rgb(229,77,62)" stroke-width="0.6" opacity="1" d="M 154.5 179 Q 174.9 177.6 190.5 181 Q 206.2 183.3 214 193.5 L 217 201.5 L 217 221.5 L 210 261.5 Q 207.6 271.1 200.5 276 Q 188.9 281.9 169.5 280 L 108.5 274 L 82.5 269 L 77 265.5 L 77 256.5 L 88 229.5 Q 98.7 206.7 116.5 191 L 130.5 183 L 154.5 179 Z M 118 204 L 114 206 L 109 212 L 111 214 L 120 209 L 127 211 L 128 209 Q 127 202 118 204 Z M 175 206 L 168 211 L 170 213 L 172 212 Q 183 210 186 218 L 188 217 L 187 213 Q 184 206 175 206 Z M 115 223 L 111 225 Q 102 231 100 244 Q 99 253 103 258 L 113 264 Q 121 265 125 261 Q 131 256 133 247 Q 135 233 129 228 Q 126 221 115 223 Z M 170 225 L 163 228 Q 154 233 152 246 Q 151 256 155 261 L 165 268 Q 173 269 177 266 Q 184 261 187 251 Q 189 237 183 232 Q 179 225 170 225 Z " /><path fill="rgb(229,77,62)" stroke="rgb(229,77,62)" stroke-width="0.6" opacity="1" d="M 438.5 234 L 446 238.5 Q 454.9 246.6 456 262.5 L 451.5 271 L 444.5 272 L 438 266.5 L 433 255.5 L 431 239.5 L 438.5 234 Z " /><path fill="rgb(229,77,62)" stroke="rgb(229,77,62)" stroke-width="0.6" opacity="1" d="M 274.5 298 Q 282.8 295.8 285 299.5 L 281.5 305 L 271.5 307 L 267 303.5 L 269.5 300 L 274.5 298 Z " /><path fill="rgb(229,77,62)" stroke="rgb(229,77,62)" stroke-width="0.6" opacity="1" d="M 274.5 351 L 281 355.5 Q 290.3 364.8 292 380 L 285.5 382 Q 280.9 364.1 268 354.5 L 274.5 351 Z " /><path fill="rgb(229,77,62)" stroke="rgb(229,77,62)" stroke-width="0.6" opacity="1" d="M 129.5 371 L 179.5 372 L 186 371 L 184.5 374 L 124 382 L 129.5 371 Z " /><path fill="rgb(229,77,62)" stroke="rgb(229,77,62)" stroke-width="0.6" opacity="1" d="M 318.5 375 L 324 376.5 Q 325 382 321.5 383 L 293.5 394 L 251.5 406 L 212.5 415 L 194.5 416 Q 181.6 414.9 175 407.5 L 174 400.5 L 179.5 398 Q 188.8 405.2 206.5 404 L 273.5 389 L 318.5 375 Z " /><path fill="rgb(11,11,11)" stroke="rgb(11,11,11)" stroke-width="0.6" opacity="1" d="M 380.5 93 L 413.5 95 L 427.5 99 L 433 103.5 L 434 111.5 L 428.5 118 L 416.5 123 L 394.5 127 L 370.5 129 L 335.5 129 L 242.5 122 L 232 130.5 L 232 146.5 L 233.5 148 Q 248.6 147.4 255 155.5 L 258 164.5 L 260.5 167 Q 288.6 175.4 305 195.5 L 318.5 217 L 326.5 219 L 371.5 219 L 386.5 217 L 392 212.5 Q 395.5 199 405.5 192 L 418 187.5 L 417 168.5 Q 418.2 156.2 425.5 150 L 434.5 148 L 443 154.5 Q 445.9 160.1 445 169.5 Q 441.9 186.9 434 199.5 L 442 206.5 Q 445.7 212.3 444 223.5 L 442 229.5 Q 457.4 239.6 460 262.5 Q 459 271.5 452.5 275 L 444.5 276 L 435 269.5 L 430 258.5 Q 426.9 251.1 428 239.5 L 426.5 238 Q 418.7 238.8 415.5 235 Q 371.1 268.6 321 296.5 Q 316.2 319.7 301.5 333 L 280 348.5 L 289 359.5 Q 294.1 365.4 295 375.5 L 297.5 378 L 317.5 371 L 324.5 371 Q 329.5 372.5 328 380.5 L 322.5 387 L 277.5 403 L 211.5 419 L 209.5 418 Q 204.4 421.4 194.5 420 L 181.5 417 L 171 408.5 L 170 399.5 L 172.5 396 L 178.5 394 L 195.5 400 L 206.5 400 L 215 398 Q 216.3 388.4 211.5 384 L 142.5 398 L 122.5 400 L 118.5 402 L 89.5 404 Q 71.2 401.8 62 390.5 L 59 380.5 L 62.5 375 L 71.5 374 L 86.5 385 L 103.5 386 L 106 383.5 Q 106.4 372.9 112 367.5 L 84.5 356 L 68 343.5 Q 59.4 334.6 55 321.5 L 53 311.5 L 53 297.5 L 57 281.5 Q 62.6 267.6 72 257.5 L 85 226.5 Q 95.3 205.3 111.5 190 Q 128.2 175.7 150.5 167 L 175.5 160 L 191.5 159 L 195 155.5 L 198.5 151 Q 204.1 147.1 214.5 148 L 216 146.5 L 216 130.5 L 214.5 129 L 205.5 123 L 184.5 128 L 140.5 134 L 88.5 135 L 72.5 132 L 63 125.5 L 62 119.5 L 65.5 114 Q 76.3 107.3 92.5 106 L 155.5 105 L 156.5 106 L 204.5 108 L 211.5 100 L 215.5 98 L 226.5 97 Q 236.3 98.2 241 104.5 L 243.5 108 L 333.5 96 L 356.5 94 L 379.5 94 L 380.5 93 Z M 376 96 L 324 100 L 241 112 L 238 117 L 244 119 L 253 120 L 314 125 L 337 125 L 338 126 L 369 126 L 396 124 L 417 120 L 428 115 Q 432 113 431 107 Q 425 99 414 98 L 376 96 Z M 222 100 L 213 103 L 207 111 Q 206 118 209 122 L 218 127 Q 233 129 239 122 L 236 118 L 236 113 Q 240 112 239 107 L 233 101 L 222 100 Z M 105 108 L 81 111 L 70 115 L 65 120 L 66 125 L 77 130 L 90 132 L 127 132 L 150 130 L 185 125 L 205 120 L 204 113 L 203 111 L 159 109 L 158 108 L 105 108 Z M 221 130 L 219 132 L 219 147 Q 221 150 228 148 L 229 147 L 229 132 Q 227 128 221 130 Z M 217 150 L 207 151 L 200 154 L 197 158 L 200 160 L 232 161 L 250 165 L 255 164 L 253 158 L 245 152 L 217 150 Z M 431 151 L 427 153 Q 421 158 420 167 Q 418 185 422 198 Q 424 201 431 199 Q 439 187 442 170 Q 443 161 440 156 Q 438 151 431 151 Z M 192 161 Q 160 163 140 176 L 138 178 L 160 175 L 190 177 L 199 179 L 211 185 Q 220 191 221 206 Q 221 228 217 248 L 214 261 L 209 273 Q 204 281 192 283 L 158 283 L 126 280 L 98 276 L 78 271 L 73 266 L 72 264 L 64 274 L 56 293 L 57 295 L 56 297 Q 54 312 58 322 L 67 338 Q 81 353 103 361 L 124 366 L 143 368 Q 156 370 165 366 Q 170 364 169 368 L 209 365 L 249 357 Q 276 350 295 335 Q 318 317 321 280 L 323 281 L 323 290 Q 372 266 413 233 L 409 223 L 410 212 L 420 200 L 418 192 L 407 195 Q 397 202 394 215 L 387 220 L 367 222 L 330 222 L 321 220 L 318 222 L 321 232 L 319 233 L 316 221 Q 310 206 300 195 Q 284 177 258 169 L 232 164 L 192 161 Z M 158 178 L 131 182 L 118 189 Q 87 216 75 262 L 76 266 Q 79 270 86 271 L 108 275 L 165 281 L 189 281 L 204 275 Q 210 269 212 259 L 218 223 L 218 201 L 213 191 Q 205 183 192 180 L 175 178 L 158 178 Z M 423 202 L 421 203 Q 414 207 412 215 Q 411 224 414 229 Q 417 235 426 236 L 436 232 Q 441 228 442 219 L 439 208 Q 436 200 423 202 Z M 439 233 L 430 239 L 431 253 L 437 267 L 445 273 L 452 272 L 457 264 Q 456 248 448 240 Q 446 234 439 233 Z M 275 350 L 267 353 Q 265 357 269 356 L 276 364 L 285 384 L 274 388 L 229 398 L 230 396 Q 227 378 219 366 Q 211 365 208 369 L 214 379 L 220 398 Q 223 397 222 400 L 205 403 L 191 402 L 180 397 L 173 401 L 174 408 Q 180 416 194 417 L 207 416 L 210 417 L 288 397 L 322 384 L 325 380 L 324 374 L 315 375 L 289 384 Q 285 385 286 382 L 293 381 Q 292 366 283 357 L 275 350 Z M 260 356 Q 245 362 227 364 L 223 367 L 224 370 L 232 375 Q 233 380 229 381 L 234 394 L 270 385 L 275 385 L 280 382 Q 279 370 272 364 Q 269 357 260 356 Z M 117 367 L 112 373 L 108 383 L 110 389 L 88 388 L 71 377 Q 63 376 62 381 Q 62 388 66 391 Q 74 399 90 401 Q 107 402 120 398 L 123 399 L 126 397 L 205 383 L 211 380 L 208 374 L 113 388 Q 112 385 117 386 L 125 370 L 117 367 Z M 194 369 Q 188 372 192 374 L 198 373 L 199 371 L 194 369 Z M 130 370 L 123 380 L 123 384 L 186 375 L 188 373 L 187 370 L 182 371 L 130 370 Z " /><path fill="rgb(11,11,11)" stroke="rgb(11,11,11)" stroke-width="0.6" opacity="1" d="M 245.5 197 L 266.5 197 Q 275.6 198.9 280 205.5 L 285 214.5 L 289 229.5 L 292 262.5 L 290 274.5 L 285.5 279 Q 264.2 286.7 235.5 287 L 230 282.5 L 229 264.5 L 235 210.5 Q 236.2 202.7 241.5 199 L 245.5 197 Z M 250 199 L 244 201 Q 238 205 237 213 L 231 269 L 232 281 L 238 285 L 254 284 L 283 278 Q 288 276 289 269 Q 291 232 279 209 Q 272 196 250 199 Z " /><path fill="rgb(11,11,11)" stroke="rgb(11,11,11)" stroke-width="0.6" opacity="1" d="M 117.5 205 Q 125.1 203.9 127 208.5 L 124.5 209 L 118.5 208 L 111 212 L 115.5 206 L 117.5 205 Z " /><path fill="rgb(11,11,11)" stroke="rgb(11,11,11)" stroke-width="0.6" opacity="1" d="M 174.5 207 L 178.5 207 L 186 212.5 L 187 216 L 184.5 216 L 178.5 211 L 170 211 L 171.5 209 L 174.5 207 Z " /><path fill="rgb(11,11,11)" stroke="rgb(11,11,11)" stroke-width="0.6" opacity="1" d="M 426.5 209 Q 433.4 208.1 435 212.5 L 436 217 Q 433 218.3 434 214.5 Q 433 210 426.5 211 Q 420.9 212.9 422 221.5 L 425.5 226 Q 431.8 227.3 433 223.5 L 434 219 Q 437 217.8 436 221.5 L 432.5 227 L 425.5 228 Q 419.6 225.4 420 216.5 L 424.5 210 L 426.5 209 Z " /><path fill="rgb(11,11,11)" stroke="rgb(11,11,11)" stroke-width="0.6" opacity="1" d="M 114.5 224 L 116 226 Q 108.9 226.4 106 232.5 L 103.5 238 L 103 235.5 L 109.5 227 L 114.5 224 Z " /><path fill="rgb(11,11,11)" stroke="rgb(11,11,11)" stroke-width="0.6" opacity="1" d="M 121 224 L 129 229.5 L 128.5 231 Q 126.9 225.2 121 226 L 121 224 Z " /><path fill="rgb(11,11,11)" stroke="rgb(11,11,11)" stroke-width="0.6" opacity="1" d="M 163.5 229 L 158 235.5 L 155.5 241 L 155 238.5 L 161.5 230 L 163.5 229 Z " /><path fill="rgb(11,11,11)" stroke="rgb(11,11,11)" stroke-width="0.6" opacity="1" d="M 120.5 233 L 127 235.5 L 129.5 239 L 130 236 L 132 237.5 L 131 239.5 L 132 246.5 Q 130.1 255.1 124.5 260 L 116.5 263 L 116 260.5 L 112 256.5 L 110 246.5 Q 111.5 238 117.5 234 L 120.5 233 Z M 123 236 L 119 241 L 120 245 L 126 246 Q 130 244 128 238 L 123 236 Z " /><path fill="rgb(11,11,11)" stroke="rgb(11,11,11)" stroke-width="0.6" opacity="1" d="M 170.5 237 Q 179.5 235.5 182 240.5 L 183 244 L 186 245.5 Q 185.9 258.9 177.5 264 L 169.5 267 L 163 257.5 L 163 247.5 Q 164.1 239.5 170.5 237 Z M 176 240 L 172 245 L 173 249 L 179 250 Q 182 249 181 243 Q 180 239 176 240 Z " /><path fill="rgb(11,11,11)" stroke="rgb(11,11,11)" stroke-width="0.6" opacity="1" d="M 102 252 Q 105 250.8 104 254.5 L 107 258.5 L 104 256.5 L 102 252 Z " /><path fill="rgb(11,11,11)" stroke="rgb(11,11,11)" stroke-width="0.6" opacity="1" d="M 273.5 295 Q 280.4 293 279 297 Q 269.4 296.6 265.5 303 L 265 300.5 L 273.5 295 Z " /><path fill="rgb(11,11,11)" stroke="rgb(11,11,11)" stroke-width="0.6" opacity="1" d="M 282 295 L 287 297.5 L 288 301.5 L 282.5 308 L 275 309 Q 273.6 305.3 279.5 307 L 285 303.5 L 286 299.5 L 282 297 L 282 295 Z " /><path fill="rgb(11,11,11)" stroke="rgb(11,11,11)" stroke-width="0.6" opacity="1" d="M 87.5 311 Q 90.5 310.1 89 314.5 L 96.5 323 L 112.5 330 L 130.5 330 Q 144.8 326.8 152 316.5 L 151 313 L 156 316.5 Q 156.8 319.1 153.5 318 Q 143.4 333.9 116.5 333 Q 98.1 330.4 89 318.5 L 86.5 315 Q 83.2 316.1 84 313.5 L 87.5 311 Z " /><path fill="rgb(11,11,11)" stroke="rgb(11,11,11)" stroke-width="0.6" opacity="1" d="M 216.5 329 L 216 330.5 Q 210.1 343.1 199.5 351 L 198 350.5 Q 209.4 341.9 216.5 329 Z " /><path fill="rgb(64,68,66)" stroke="rgb(64,68,66)" stroke-width="0.6" opacity="1" d="M 360.5 97 Q 364.5 96.3 363.5 99 L 373 99 L 373.5 97 L 393 97 L 393.5 99 L 402 99 Q 400.8 96 404.5 97 L 421.5 100 L 431 106.5 Q 432 114 426.5 115 L 419.5 118 L 418 117.5 L 416.5 119 L 399.5 123 L 398.5 121 L 398 123 L 393.5 124 L 393 122 Q 388.8 121 389.5 124 L 384.5 124 L 380.5 125 L 378.5 124 L 366.5 125 L 362.5 124 L 361.5 125 L 345.5 125 L 341.5 124 L 340.5 125 L 325.5 125 L 323.5 124 L 318.5 125 L 308 124 Q 309.1 120.7 305 122 Q 306.3 125 302.5 124 L 297 123 Q 298.2 119 292 121 L 290.5 123 L 258 120 Q 259 117 256 118 L 254.5 120 L 250 119 Q 251.2 115.3 246 117 L 245.5 119 L 243 118 Q 244 115 241 116 L 240.5 118 L 238.5 115 L 240 114.5 L 240.5 112 L 245.5 111 L 246 113 L 250.5 111 L 252 110.5 L 254 112 Q 252.8 109 256.5 110 L 258 109.5 L 258.5 111 L 259 109 L 279.5 106 L 280 108 L 283 108 L 284.5 106 L 287 105 L 287.5 107 L 288 105 L 293.5 104 L 294.5 106 L 295 104 L 312 102 Q 310.9 105.3 315 104 L 316.5 102 L 318 101.5 Q 317.2 104.5 321 103 Q 319.6 99.3 325.5 101 L 327 100.5 L 327.5 102 L 328 100 L 360.5 97 Z " /><path fill="rgb(64,68,66)" stroke="rgb(64,68,66)" stroke-width="0.6" opacity="1" d="M 124.5 104 L 135 104.5 L 124.5 105 L 124.5 104 Z " /><path fill="rgb(64,68,66)" stroke="rgb(64,68,66)" stroke-width="0.6" opacity="1" d="M 140.5 108 L 152 108.5 L 140.5 109 L 140.5 108 Z " /><path fill="rgb(64,68,66)" stroke="rgb(64,68,66)" stroke-width="0.6" opacity="1" d="M 214.5 129 L 216 130.5 L 216 146.5 L 214 147.5 L 215 146.5 L 215 130.5 L 214.5 129 Z " /><path fill="rgb(64,68,66)" stroke="rgb(64,68,66)" stroke-width="0.6" opacity="1" d="M 208.5 151 L 212 153 L 212.5 151 L 233 151 Q 232 154 235 153 L 236.5 151 L 248.5 154 L 254 159.5 L 255 163.5 L 249.5 165 L 242 163 L 241.5 161 L 241 163 L 232.5 161 L 211.5 159 L 210 159.5 Q 210.7 156.5 207 158 Q 208.3 161 204.5 160 L 198 158.5 L 198 156.5 L 199.5 154 L 208.5 151 Z " /><path fill="rgb(64,68,66)" stroke="rgb(64,68,66)" stroke-width="0.6" opacity="1" d="M 168.5 228 Q 178.3 227.3 181 233.5 L 182 235.5 L 180 236 L 179.5 238 L 170.5 237 L 166 240.5 L 163 249 L 161 249.5 L 163 250.5 L 162 253.5 L 162.5 255 L 161 255.5 L 163 256 L 165 261.5 L 163 262 L 164 264.5 L 161.5 266 L 156 261.5 L 159.5 264 L 161 263.5 Q 152.8 258.7 155 243.5 Q 156.8 235.3 162.5 231 L 168.5 228 Z " /><path fill="rgb(64,68,66)" stroke="rgb(64,68,66)" stroke-width="0.6" opacity="1" d="M 175.5 240 L 176 242 L 179.5 241 L 181 246.5 L 175.5 250 Q 171.8 248.8 173 242.5 L 175.5 240 Z " /><path fill="rgb(64,68,66)" stroke="rgb(64,68,66)" stroke-width="0.6" opacity="1" d="M 172.5 280 L 184 280.5 L 172.5 281 L 172.5 280 Z " /><path fill="rgb(64,68,66)" stroke="rgb(64,68,66)" stroke-width="0.6" opacity="1" d="M 301.5 327 L 296.5 333 L 301.5 327 Z " /><path fill="rgb(64,68,66)" stroke="rgb(64,68,66)" stroke-width="0.6" opacity="1" d="M 260.5 356 L 261 358 L 263.5 357 L 271 362.5 Q 277.7 369.2 280 380.5 L 276.5 384 L 268.5 385 L 267 384.5 L 265.5 386 L 244.5 391 L 243 390.5 Q 243.8 393.1 240.5 392 L 233.5 394 L 229 380 Q 232.8 381.5 232 378.5 L 232 376.5 L 230.5 373 L 225 370.5 L 224 367.5 L 227.5 364 L 237.5 363 L 260.5 356 Z " /><path fill="rgb(64,68,66)" stroke="rgb(64,68,66)" stroke-width="0.6" opacity="1" d="M 118.5 367 L 123 368.5 L 122 370.5 L 123 373.5 L 117.5 385 L 115 384 Q 116.1 387.5 108.5 386 L 108.5 385 L 110 384.5 L 108 383.5 L 115.5 369 Q 119 370 118.5 367 Z " /><path fill="rgb(64,68,66)" stroke="rgb(64,68,66)" stroke-width="0.6" opacity="1" d="M 161.5 371 L 172 371.5 L 161.5 372 L 161.5 371 Z " /><path fill="rgb(238,237,220)" stroke="rgb(238,237,220)" stroke-width="0.6" opacity="1" d="M 218.5 102 L 222.5 104 L 229.5 102 L 237 107.5 L 234 116.5 L 235 122.5 Q 230.6 127.6 219.5 126 L 212 122.5 Q 207.9 118 209 108.5 L 216.5 103 L 218.5 102 Z " /><path fill="rgb(238,237,220)" stroke="rgb(238,237,220)" stroke-width="0.6" opacity="1" d="M 251.5 200 L 266.5 201 L 276 206.5 Q 282.7 215.8 285 229.5 L 288 253.5 L 288 266.5 L 287 271.5 L 283.5 275 L 278.5 278 L 266.5 280 L 263.5 279 L 257.5 282 L 237.5 283 L 236 280 L 234 278.5 L 235 272.5 L 233 262.5 L 236 248.5 L 235 242.5 L 238 226.5 L 237 223.5 L 240 212.5 L 239 210.5 L 244.5 202 L 251.5 200 Z " /><path fill="rgb(238,237,220)" stroke="rgb(238,237,220)" stroke-width="0.6" opacity="1" d="M 426 212 Q 431.6 211 433 215.5 Q 434.3 221.8 430.5 223 L 426.5 224 Q 422.8 222.8 424 216.5 L 426 212 Z " /><path fill="rgb(238,237,220)" stroke="rgb(238,237,220)" stroke-width="0.6" opacity="1" d="M 117.5 226 L 124 228.5 L 123 231 Q 115.6 231.6 112 237.5 L 108 251.5 L 109 254 L 106.5 255 L 105 252 L 107 250.5 L 104 249.5 L 107 233.5 L 111.5 229 L 117.5 226 Z " /><path fill="rgb(238,237,220)" stroke="rgb(238,237,220)" stroke-width="0.6" opacity="1" d="M 205.5 375 L 208 376.5 L 206 379.5 L 202.5 382 L 194.5 382 L 182.5 386 L 174.5 386 L 169.5 388 L 167.5 387 L 161.5 390 L 153.5 390 L 151.5 392 L 143.5 392 L 136.5 394 L 134.5 393 L 128.5 396 Q 118.1 395.1 111.5 398 L 109.5 397 L 105.5 399 L 92.5 400 Q 90.3 395.8 81.5 398 L 69.5 392 L 65 387.5 L 64 382.5 L 66.5 379 L 71.5 379 L 86.5 389 L 100.5 391 L 122.5 388 L 125.5 389 L 127.5 387 L 150.5 384 L 152.5 385 L 155.5 383 L 176.5 380 L 178.5 381 L 181.5 379 L 205.5 375 Z " /><path fill="rgb(238,237,220)" stroke="rgb(238,237,220)" stroke-width="0.6" opacity="1" d="M 210.5 385 L 212 386.5 L 213 395.5 L 209.5 397 L 206.5 398 L 202.5 397 L 199.5 398 L 196.5 397 L 192.5 398 L 181 393 Q 179.7 389.3 185.5 391 L 210.5 385 Z " /><path fill="rgb(38,38,38)" stroke="rgb(38,38,38)" stroke-width="0.6" opacity="1" d="M 375.5 96 L 392 96.5 L 375.5 97 L 375.5 96 Z " /><path fill="rgb(38,38,38)" stroke="rgb(38,38,38)" stroke-width="0.6" opacity="1" d="M 341.5 124 L 361.5 125 L 365.5 124 L 369 125.5 L 337.5 126 L 337.5 125 L 341.5 124 Z " /><path fill="rgb(38,38,38)" stroke="rgb(38,38,38)" stroke-width="0.6" opacity="1" d="M 216.5 150 L 228 150.5 L 216.5 151 L 216.5 150 Z " /><path fill="rgb(38,38,38)" stroke="rgb(38,38,38)" stroke-width="0.6" opacity="1" d="M 294.5 189 L 299.5 195 L 294.5 189 Z " /><path fill="rgb(38,38,38)" stroke="rgb(38,38,38)" stroke-width="0.6" opacity="1" d="M 249.5 196 L 263 196.5 L 249.5 197 L 249.5 196 Z " /><path fill="rgb(38,38,38)" stroke="rgb(38,38,38)" stroke-width="0.6" opacity="1" d="M 123.5 224 L 129 228.5 L 125.5 226 L 123.5 227 L 123.5 224 Z " /><path fill="rgb(38,38,38)" stroke="rgb(38,38,38)" stroke-width="0.6" opacity="1" d="M 169.5 226 Q 176.8 225.7 180 229.5 L 179.5 232 L 176.5 228 L 173.5 229 L 168.5 228 L 166.5 229 L 165 228.5 L 163.5 231 Q 160.5 229.5 163.5 228 L 169.5 226 Z " /><path fill="rgb(38,38,38)" stroke="rgb(38,38,38)" stroke-width="0.6" opacity="1" d="M 182.5 232 L 185 239.5 L 183 238.5 L 181 234.5 L 182.5 232 Z " /><path fill="rgb(38,38,38)" stroke="rgb(38,38,38)" stroke-width="0.6" opacity="1" d="M 127.5 236 L 130 237 L 129.5 239 L 128 238.5 Q 129.3 244.8 125.5 246 L 127 243.5 L 128 237.5 L 127.5 236 Z " /><path fill="rgb(38,38,38)" stroke="rgb(38,38,38)" stroke-width="0.6" opacity="1" d="M 102.5 237 L 104 239.5 L 102.5 252 Q 98.8 249.8 101 241.5 L 102.5 237 Z " /><path fill="rgb(38,38,38)" stroke="rgb(38,38,38)" stroke-width="0.6" opacity="1" d="M 322 269 L 324 269.5 L 324 280.5 L 322.5 280 L 321 279.5 L 322 269 Z " /><path fill="rgb(38,38,38)" stroke="rgb(38,38,38)" stroke-width="0.6" opacity="1" d="M 171.5 283 L 185 283.5 L 171.5 284 L 171.5 283 Z " /><path fill="rgb(38,38,38)" stroke="rgb(38,38,38)" stroke-width="0.6" opacity="1" d="M 226 299 L 228 299.5 L 222 321 L 220 321.5 L 220.5 323 L 219 323.5 L 220 325.5 L 216.5 331 Q 213.5 329.5 216.5 328 L 218 327.5 L 217.5 326 L 219 325.5 L 218 323.5 Q 224.4 313 226 299 Z " /><path fill="rgb(78,90,93)" stroke="rgb(78,90,93)" stroke-width="0.6" opacity="1" d="M 363 97 L 372.5 97 L 373 99 L 363.5 99 L 363 97 Z " /><path fill="rgb(78,90,93)" stroke="rgb(78,90,93)" stroke-width="0.6" opacity="1" d="M 116.5 108 L 140 108.5 L 116.5 109 L 116.5 108 Z " /><path fill="rgb(78,90,93)" stroke="rgb(78,90,93)" stroke-width="0.6" opacity="1" d="M 99.5 131 L 114 131.5 L 99.5 132 L 99.5 131 Z " /><path fill="rgb(78,90,93)" stroke="rgb(78,90,93)" stroke-width="0.6" opacity="1" d="M 339.5 222 L 356 222.5 L 339.5 223 L 339.5 222 Z " /><path fill="rgb(78,90,93)" stroke="rgb(78,90,93)" stroke-width="0.6" opacity="1" d="M 206.5 341 L 200.5 348 L 206.5 341 Z " /><path fill="rgb(78,90,93)" stroke="rgb(78,90,93)" stroke-width="0.6" opacity="1" d="M 281.5 347 L 281 348.5 L 285 353.5 L 280 349.5 L 281.5 347 Z " /><path fill="rgb(65,120,144)" stroke="rgb(65,120,144)" stroke-width="0.6" opacity="1" d="M 158.5 174 L 173 174.5 L 158.5 175 L 158.5 174 Z " /><path fill="rgb(65,120,144)" stroke="rgb(65,120,144)" stroke-width="0.6" opacity="1" d="M 294.5 190 L 299.5 196 L 294.5 190 Z " /><path fill="rgb(65,120,144)" stroke="rgb(65,120,144)" stroke-width="0.6" opacity="1" d="M 221.5 203 L 222 218.5 L 221 218.5 L 221.5 203 Z " /><path fill="rgb(65,120,144)" stroke="rgb(65,120,144)" stroke-width="0.6" opacity="1" d="M 292.5 252 L 293 265.5 L 292 265.5 L 292.5 252 Z " /><path fill="rgb(65,120,144)" stroke="rgb(65,120,144)" stroke-width="0.6" opacity="1" d="M 207.5 344 L 202.5 350 L 207.5 344 Z " /><path fill="rgb(155,74,60)" stroke="rgb(155,74,60)" stroke-width="0.6" opacity="1" d="M 217.5 204 L 218 216.5 L 217 216.5 L 217.5 204 Z " /><path fill="rgb(155,74,60)" stroke="rgb(155,74,60)" stroke-width="0.6" opacity="1" d="M 181.5 213 L 187 217 L 187.5 214 L 188 216.5 L 185.5 218 L 181.5 213 Z " /><path fill="rgb(155,74,60)" stroke="rgb(155,74,60)" stroke-width="0.6" opacity="1" d="M 186.5 240 L 187 250.5 L 186 250.5 L 186.5 240 Z " /><path fill="rgb(155,74,60)" stroke="rgb(155,74,60)" stroke-width="0.6" opacity="1" d="M 195.5 403 L 207 403.5 L 195.5 404 L 195.5 403 Z " /><path fill="rgb(228,227,216)" stroke="rgb(228,227,216)" stroke-width="0.6" opacity="1" d="M 208.5 111 L 210 119.5 L 212 121.5 L 209 119.5 L 208.5 111 Z " /><path fill="rgb(228,227,216)" stroke="rgb(228,227,216)" stroke-width="0.6" opacity="1" d="M 237.5 226 L 238 231.5 L 236.5 237 L 236 231.5 L 237.5 226 Z " /><path fill="rgb(228,227,216)" stroke="rgb(228,227,216)" stroke-width="0.6" opacity="1" d="M 124.5 228 L 128 232.5 Q 126.3 235.8 124.5 232 L 120 231.5 L 123 231 L 124.5 228 Z " /><path fill="rgb(228,227,216)" stroke="rgb(228,227,216)" stroke-width="0.6" opacity="1" d="M 108.5 250 L 112 258.5 L 110.5 259 L 106 255.5 L 109 254 L 108.5 250 Z " /><path fill="rgb(228,227,216)" stroke="rgb(228,227,216)" stroke-width="0.6" opacity="1" d="M 233.5 265 L 235 277.5 L 234 280 L 236 281.5 L 236.5 283 L 233 280.5 L 232 272.5 L 233.5 265 Z " /><path fill="rgb(228,227,216)" stroke="rgb(228,227,216)" stroke-width="0.6" opacity="1" d="M 212.5 388 L 214 395.5 Q 213.3 398.8 208.5 398 L 208.5 397 L 211.5 395 L 213 395.5 L 212.5 388 Z " /><path fill="rgb(228,227,216)" stroke="rgb(228,227,216)" stroke-width="0.6" opacity="1" d="M 196.5 397 L 201.5 398 L 205.5 397 L 204.5 399 Q 196.4 400.8 196.5 397 Z " /><path fill="rgb(142,143,142)" stroke="rgb(142,143,142)" stroke-width="0.6" opacity="1" d="M 233.5 129 L 233 130.5 L 232.5 143 L 232 130.5 L 233.5 129 Z " /><path fill="rgb(142,143,142)" stroke="rgb(142,143,142)" stroke-width="0.6" opacity="1" d="M 347.5 129 L 358 129.5 L 347.5 130 L 347.5 129 Z " /><path fill="rgb(142,143,142)" stroke="rgb(142,143,142)" stroke-width="0.6" opacity="1" d="M 337.5 218 L 358 218.5 L 337.5 219 L 337.5 218 Z " /><path fill="rgb(168,169,167)" stroke="rgb(168,169,167)" stroke-width="0.6" opacity="1" d="M 110.5 190 L 104.5 197 L 110.5 190 Z " /><path fill="rgb(211,212,208)" stroke="rgb(211,212,208)" stroke-width="0.6" opacity="1" d="M 375.5 92 L 391 92.5 L 375.5 93 L 375.5 92 Z " /></svg>