<svg width="627" height="627" preserveAspectRatio="xMidYMid meet" viewBox="0 0 512 512" version="1.1" xmlns="http://www.w3.org/2000/svg" ><path fill="rgb(255,255,255)" stroke="rgb(255,255,255)" stroke-width="0.6" opacity="1" d="M 0 0 L 512 0 L 512 512 L 0 512 L 0 0 Z M 250 31 L 223 34 L 199 41 Q 171 52 152 70 Q 132 87 121 113 L 114 134 L 111 157 L 112 178 L 114 189 Q 118 207 126 222 Q 136 239 149 254 L 186 292 L 194 306 L 195 311 L 199 315 L 212 382 L 210 391 L 209 392 Q 198 390 194 394 L 190 400 L 190 406 Q 195 408 196 416 L 199 459 L 201 469 L 204 474 L 215 480 L 236 482 L 294 481 L 306 476 Q 311 472 312 465 L 317 412 L 322 406 Q 323 399 320 396 Q 316 390 304 392 L 300 385 L 313 316 L 327 291 L 366 251 L 381 231 Q 397 207 401 172 L 401 151 L 397 129 Q 389 100 371 81 Q 349 55 315 41 L 285 33 L 250 31 Z " /><path fill="rgb(221,65,60)" stroke="rgb(221,65,60)" stroke-width="0.6" opacity="1" d="M 258 36 L 273.5 37 L 281.5 40 Q 294.9 46.6 304 57.5 Q 334.2 92.8 332 160.5 L 329 188.5 L 321 222.5 Q 309 258.8 293 290 L 262.5 289 L 260.5 290 L 257 287.5 L 257 40.5 L 258 36 Z " /><path fill="rgb(221,65,60)" stroke="rgb(221,65,60)" stroke-width="0.6" opacity="1" d="M 370.5 88 Q 384.9 104.6 392 128.5 L 396 150.5 L 396 171.5 Q 392.5 203 379 224.5 Q 366.8 244.3 350.5 260 L 349 257.5 Q 369.2 233.2 380 199.5 L 386 169.5 L 386 141.5 Q 382.4 110.6 369 89.5 L 370.5 88 Z " /><path fill="rgb(221,65,60)" stroke="rgb(221,65,60)" stroke-width="0.6" opacity="1" d="M 254.5 326 L 258 328.5 L 260.5 334 L 264 333 L 266 341.5 L 264.5 343 L 247.5 343 L 246 338.5 L 247 335 L 249.5 336 L 254.5 326 Z " /><path fill="rgb(221,65,60)" stroke="rgb(221,65,60)" stroke-width="0.6" opacity="1" d="M 250 375 L 261.5 375 L 262 376.5 Q 259.8 380.3 251.5 378 L 250 375 Z " /><path fill="rgb(221,65,60)" stroke="rgb(221,65,60)" stroke-width="0.6" opacity="1" d="M 201.5 410 L 310.5 410 L 312 411.5 L 307 465.5 L 301.5 473 L 294.5 476 L 286.5 477 L 225.5 477 L 214.5 475 L 207 469.5 L 204 460.5 L 200 411.5 L 201.5 410 Z M 228 414 L 221 420 L 223 422 L 230 418 L 233 419 Q 237 421 236 417 Q 234 413 228 414 Z M 274 414 L 271 415 Q 266 417 270 419 L 274 418 L 283 422 L 284 420 Q 282 414 274 414 Z M 229 425 L 226 426 L 218 435 Q 216 445 221 450 L 227 453 L 237 452 L 243 444 Q 245 435 241 431 Q 239 424 229 425 Z M 272 425 L 267 427 L 260 436 L 261 447 L 269 453 L 280 452 L 286 443 L 285 433 Q 282 425 272 425 Z M 236 457 L 233 460 L 247 468 Q 264 470 270 461 L 271 460 L 268 457 L 266 460 Q 263 464 257 465 Q 243 466 238 460 Q 239 456 236 457 Z " /><path fill="rgb(221,65,60)" stroke="rgb(221,65,60)" stroke-width="0.6" opacity="1" d="M 227.5 428 Q 234.3 426.3 236 429.5 L 235 432 Q 228.3 430.9 226 435.5 Q 223.2 438.2 224 444.5 L 224.5 446 L 222.5 447 L 220 437.5 L 225.5 429 L 227.5 428 Z " /><path fill="rgb(61,130,189)" stroke="rgb(61,130,189)" stroke-width="0.6" opacity="1" d="M 244.5 36 L 254 37 L 254 288.5 L 252.5 290 L 226.5 290 L 224.5 291 L 222.5 290 Q 220.7 292.8 219 288.5 L 197 239.5 L 187 207.5 L 181 169.5 L 181 131.5 Q 185.5 81 212.5 53 Q 224.4 40.4 244.5 36 Z " /><path fill="rgb(61,130,189)" stroke="rgb(61,130,189)" stroke-width="0.6" opacity="1" d="M 141.5 88 L 144 89.5 Q 124.6 117.1 126 165.5 L 129 187.5 L 133 202.5 Q 143.7 232.3 161 255.5 L 158 257 Q 136.7 236 124 205.5 Q 115.3 184.7 116 154.5 Q 119.9 112.4 141.5 88 Z " /><path fill="rgb(61,130,189)" stroke="rgb(61,130,189)" stroke-width="0.6" opacity="1" d="M 212 316 L 234.5 318 L 277.5 318 L 300 316 L 298 334.5 L 299 337.5 L 296 367 L 294 365.5 L 289 349.5 L 285.5 345 Q 281.2 341.3 271.5 343 L 269 340.5 Q 269 332 264.5 328 L 260 326.5 L 255.5 320 L 252 322.5 L 248.5 329 L 245 331.5 L 240.5 343 Q 228 341 224 347.5 L 218 368 Q 214.5 369.1 216 361.5 L 212 316 Z " /><path fill="rgb(61,130,189)" stroke="rgb(61,130,189)" stroke-width="0.6" opacity="1" d="M 245.5 359 L 266.5 359 L 268 360.5 L 266.5 364 L 245.5 364 L 244 362.5 L 245.5 359 Z " /><path fill="rgb(61,130,189)" stroke="rgb(61,130,189)" stroke-width="0.6" opacity="1" d="M 252.5 381 Q 259.3 379.3 261 382.5 L 254.5 385 L 251 382.5 L 252.5 381 Z " /><path fill="rgb(61,130,189)" stroke="rgb(61,130,189)" stroke-width="0.6" opacity="1" d="M 269.5 428 Q 277.1 426.9 280 430.5 Q 278.5 433.5 272.5 432 L 268 436.5 L 266 443.5 L 267 448 L 264 446.5 L 262 438.5 L 266.5 430 L 269.5 428 Z " /><path fill="rgb(244,190,48)" stroke="rgb(244,190,48)" stroke-width="0.6" opacity="1" d="M 219.5 40 L 222 41.5 L 205 56.5 Q 174.6 93.1 177 162.5 L 180 189.5 L 187 219.5 Q 198.4 257.6 216 289.5 L 212.5 292 Q 202.2 292.2 195.5 296 L 155 241.5 L 139 209.5 Q 132.4 192.6 130 171.5 L 130 140.5 Q 137.3 88.3 170.5 62 Q 190.5 46.5 219.5 40 Z " /><path fill="rgb(244,190,48)" stroke="rgb(244,190,48)" stroke-width="0.6" opacity="1" d="M 242.5 293 L 288.5 294 L 303.5 296 L 315 300.5 L 310.5 309 L 282.5 313 L 228.5 313 L 204.5 310 L 199 306.5 L 197 300.5 L 200.5 298 L 214.5 295 L 241.5 294 L 242.5 293 Z " /><path fill="rgb(244,190,48)" stroke="rgb(244,190,48)" stroke-width="0.6" opacity="1" d="M 203 315 L 208 316.5 L 210 342 Q 206.7 343.3 208 338.5 L 203 315 Z " /><path fill="rgb(244,190,48)" stroke="rgb(244,190,48)" stroke-width="0.6" opacity="1" d="M 245.5 352 L 255.5 353 L 266.5 352 L 268 354.5 L 266.5 356 L 245.5 356 L 244 353.5 L 245.5 352 Z " /><path fill="rgb(244,190,48)" stroke="rgb(244,190,48)" stroke-width="0.6" opacity="1" d="M 204.5 396 L 221.5 397 L 222.5 396 L 310.5 396 L 317 399.5 Q 318.3 404.8 315.5 406 L 196.5 406 L 195 404.5 Q 193.8 398.3 197.5 397 L 204.5 396 Z " /><path fill="rgb(238,235,213)" stroke="rgb(238,235,213)" stroke-width="0.6" opacity="1" d="M 295.5 42 L 315.5 47 L 331.5 55 L 349 68.5 Q 362.8 81.7 371 100.5 Q 374.8 106.2 375 115.5 L 377 117.5 L 377 122.5 L 379 124.5 L 379 129.5 L 378 132 L 380 133.5 Q 382.9 137.1 382 144.5 L 380 150.5 L 381 159.5 L 380 164.5 Q 383.2 166.8 382 173.5 L 378 181.5 L 379 187.5 L 377 190.5 L 378 193.5 L 376 197 L 374 198.5 L 375 202.5 L 361 234.5 L 327 283 L 325 284.5 L 320 293 L 314.5 295 L 297 291 L 323 231.5 L 323 226.5 L 329 211.5 L 330 197.5 L 334 191.5 L 332 187.5 L 335 177.5 L 334 170.5 L 335 157.5 L 336.5 156 L 338 155.5 L 338 144 L 335 142.5 L 334 123.5 L 335 120.5 L 333 118.5 L 333 109.5 L 330 105.5 L 329 94.5 L 313 62 L 311 60.5 L 310 57 Q 305.5 58.8 307 53.5 Q 303.5 46.3 296 45 L 295.5 42 Z " /><path fill="rgb(238,235,213)" stroke="rgb(238,235,213)" stroke-width="0.6" opacity="1" d="M 304.5 328 L 305 336.5 L 304 342 Q 301 343.3 302 339.5 L 304.5 328 Z " /><path fill="rgb(238,235,213)" stroke="rgb(238,235,213)" stroke-width="0.6" opacity="1" d="M 240.5 346 L 262.5 347 L 263.5 346 L 277.5 346 L 284 349.5 L 285 352.5 L 282 350.5 L 281.5 349 L 230 349 L 227.5 353 L 227 351.5 L 229.5 348 L 240.5 346 Z " /><path fill="rgb(238,235,213)" stroke="rgb(238,235,213)" stroke-width="0.6" opacity="1" d="M 233.5 353 L 239 353 L 239 365.5 L 245 374.5 L 246 383.5 L 250.5 388 L 259.5 389 L 265 384.5 L 266 375.5 L 271 370.5 Q 270 365.5 273 364.5 L 273 353 L 279 354.5 L 290 391 L 267.5 389 L 264.5 391 L 250.5 391 Q 248.8 388.2 243.5 389 L 238.5 391 L 235.5 390 L 223.5 391 L 222 387.5 L 233.5 353 Z " /><path fill="rgb(12,12,13)" stroke="rgb(12,12,13)" stroke-width="0.6" opacity="1" d="M 249.5 32 Q 285.6 31.4 311.5 41 Q 345.5 54 368 78.5 Q 383 94.5 392 116.5 L 399 143.5 L 400 169.5 Q 397 201.5 384 223.5 L 364 251.5 L 325 291.5 L 317 305.5 L 316 310.5 L 312 314.5 L 312 318 Q 308.7 319.3 310 314.5 L 307.5 313 L 303 315.5 Q 304.3 320.3 301 319 L 299.5 315 L 284.5 317 L 228.5 317 L 212.5 315 L 209 317 L 207.5 314 L 203.5 313 L 202 317.5 L 205 327.5 L 211 365 L 215 362 L 215 371.5 L 217 372 L 221.5 360 L 222 362.5 L 212 391.5 L 216.5 393 L 219 389.5 L 222 377 L 224 378.5 L 220 391.5 L 221.5 393 L 290.5 393 L 293.5 391 L 298.5 393 L 299 390.5 L 291 365 Q 294 363.8 293 367.5 L 295.5 372 L 297 371.5 L 297 361.5 L 299 361 L 299 366 Q 303.5 364.3 302 369.5 L 299 385.5 L 302.5 393 Q 316.2 390.3 320 397.5 L 321 405.5 L 318.5 409 L 316 410.5 L 311 464.5 Q 309.4 473.4 302.5 477 L 292.5 480 L 279.5 480 L 278.5 481 L 231.5 481 L 211.5 478 L 204 471.5 L 200 458.5 L 197 415.5 Q 196.7 407.8 191 405.5 L 191 399.5 L 195.5 394 L 209.5 393 L 211 391.5 L 213 380.5 L 200 313.5 L 198.5 312 L 196 310.5 Q 194.3 299.2 188 292.5 L 144 246.5 L 130 226.5 Q 120 210 115 188.5 Q 110.9 170.6 113 146.5 Q 121.9 92.9 157.5 66 Q 190.6 36.1 249.5 32 Z M 250 35 L 236 37 L 229 40 L 227 41 L 228 38 Q 189 43 166 65 L 159 73 L 154 74 Q 135 91 124 116 L 117 139 L 115 156 L 117 185 L 126 213 Q 138 238 157 257 L 169 267 L 173 272 L 175 271 L 195 297 L 209 293 Q 213 292 212 295 Q 201 295 196 301 L 198 308 L 209 312 L 228 314 L 284 314 L 303 312 L 313 309 L 316 301 Q 312 296 305 295 Q 299 297 300 293 L 318 297 L 338 270 L 339 273 Q 363 252 380 225 Q 394 203 397 171 Q 399 144 392 126 Q 384 102 369 85 L 359 74 L 356 74 Q 344 61 329 52 Q 311 43 290 38 Q 284 36 285 40 L 297 47 Q 307 55 313 68 L 314 69 L 307 60 Q 298 48 285 40 L 273 36 L 263 35 Q 257 34 256 37 Q 255 34 250 35 Z M 201 395 L 198 396 Q 193 397 194 405 L 198 407 Q 202 409 199 411 L 203 461 L 206 470 L 214 476 L 229 478 L 282 478 L 295 477 L 302 474 Q 308 470 309 461 L 313 419 L 312 410 L 315 408 Q 319 407 318 400 L 312 395 L 201 395 Z " /><path fill="rgb(12,12,13)" stroke="rgb(12,12,13)" stroke-width="0.6" opacity="1" d="M 223.5 42 L 220.5 46 L 209 55.5 L 199.5 68 L 200 66.5 L 203 60.5 L 214.5 48 L 223.5 42 Z " /><path fill="rgb(12,12,13)" stroke="rgb(12,12,13)" stroke-width="0.6" opacity="1" d="M 358.5 76 L 369 91.5 L 367 90.5 L 358 77.5 L 358.5 76 Z " /><path fill="rgb(12,12,13)" stroke="rgb(12,12,13)" stroke-width="0.6" opacity="1" d="M 152.5 78 L 153 79.5 L 144.5 91 L 145 89.5 L 152.5 78 Z " /><path fill="rgb(12,12,13)" stroke="rgb(12,12,13)" stroke-width="0.6" opacity="1" d="M 191.5 82 L 192 83.5 L 188.5 91 L 188 88.5 L 191.5 82 Z " /><path fill="rgb(12,12,13)" stroke="rgb(12,12,13)" stroke-width="0.6" opacity="1" d="M 178 136 L 180 136.5 L 180 164 L 178 163.5 L 178 136 Z " /><path fill="rgb(12,12,13)" stroke="rgb(12,12,13)" stroke-width="0.6" opacity="1" d="M 188 218 Q 191 216.8 190 220.5 L 192 226 Q 189 227.3 190 223.5 L 188 218 Z " /><path fill="rgb(12,12,13)" stroke="rgb(12,12,13)" stroke-width="0.6" opacity="1" d="M 322 219 L 324 220.5 L 322 227 L 320 225.5 L 322 219 Z " /><path fill="rgb(12,12,13)" stroke="rgb(12,12,13)" stroke-width="0.6" opacity="1" d="M 191 228 Q 194 226.8 193 230.5 L 196 238 Q 193 239.3 194 235.5 L 191 228 Z " /><path fill="rgb(12,12,13)" stroke="rgb(12,12,13)" stroke-width="0.6" opacity="1" d="M 360.5 238 L 360 239.5 L 356.5 245 L 357 243.5 L 360.5 238 Z " /><path fill="rgb(12,12,13)" stroke="rgb(12,12,13)" stroke-width="0.6" opacity="1" d="M 353.5 248 L 354 249.5 L 340.5 268 L 340 266.5 L 353.5 248 Z " /><path fill="rgb(12,12,13)" stroke="rgb(12,12,13)" stroke-width="0.6" opacity="1" d="M 159.5 250 L 166 259.5 L 165 259.5 L 159.5 250 Z " /><path fill="rgb(12,12,13)" stroke="rgb(12,12,13)" stroke-width="0.6" opacity="1" d="M 295.5 287 L 295 288.5 L 296.5 292 L 298 294 L 274.5 292 L 240 292 L 240.5 290 L 253.5 290 L 256.5 289 L 291.5 292 L 295.5 287 Z " /><path fill="rgb(12,12,13)" stroke="rgb(12,12,13)" stroke-width="0.6" opacity="1" d="M 218.5 290 L 222.5 292 L 223.5 291 L 238.5 291 L 238.5 292 L 214.5 294 L 215.5 292 L 218.5 290 Z " /><path fill="rgb(12,12,13)" stroke="rgb(12,12,13)" stroke-width="0.6" opacity="1" d="M 309 320 Q 312.3 318.7 311 323.5 L 303 364 Q 299.7 365.3 301 360.5 L 309 320 Z " /><path fill="rgb(12,12,13)" stroke="rgb(12,12,13)" stroke-width="0.6" opacity="1" d="M 254.5 321 L 257 322.5 L 260.5 329 Q 266.4 326.9 265 331.5 L 268 339 Q 264.7 340.3 266 335.5 L 263.5 331 L 260 332 L 260 329.5 L 255.5 324 L 252.5 326 L 253 324.5 L 254.5 321 Z " /><path fill="rgb(12,12,13)" stroke="rgb(12,12,13)" stroke-width="0.6" opacity="1" d="M 211 335 L 213 335.5 L 213 343.5 L 214 356.5 L 212 355.5 L 211 335 Z " /><path fill="rgb(12,12,13)" stroke="rgb(12,12,13)" stroke-width="0.6" opacity="1" d="M 299 335 L 301 335.5 L 301 344.5 L 300 357 L 298 356.5 L 298 346.5 L 299 335 Z " /><path fill="rgb(12,12,13)" stroke="rgb(12,12,13)" stroke-width="0.6" opacity="1" d="M 229.5 344 L 231 346 L 225.5 350 L 225 347.5 L 229.5 344 Z " /><path fill="rgb(12,12,13)" stroke="rgb(12,12,13)" stroke-width="0.6" opacity="1" d="M 281 344 L 286 347.5 L 287 349.5 L 282.5 346 L 281 344 Z " /><path fill="rgb(12,12,13)" stroke="rgb(12,12,13)" stroke-width="0.6" opacity="1" d="M 226 364 L 228 365.5 L 226 372 L 224 370.5 L 226 364 Z " /><path fill="rgb(12,12,13)" stroke="rgb(12,12,13)" stroke-width="0.6" opacity="1" d="M 242 364 L 245 365.5 Q 244 371 247.5 372 Q 250.8 370.9 250 373.5 L 249 377.5 L 251 380.5 L 250 383.5 L 254 385 Q 255.3 388 251.5 387 L 248 384.5 L 247 374.5 Q 241.5 371.8 242 364 Z " /><path fill="rgb(12,12,13)" stroke="rgb(12,12,13)" stroke-width="0.6" opacity="1" d="M 268.5 364 Q 271.1 363.2 270 366.5 Q 269.4 372.4 265 374.5 L 264 384.5 L 261.5 387 Q 257.8 388 259 385 L 262 383.5 L 261 380.5 L 263 374.5 L 262 372 L 267 369.5 L 268 367.5 L 267 365.5 L 268.5 364 Z " /><path fill="rgb(12,12,13)" stroke="rgb(12,12,13)" stroke-width="0.6" opacity="1" d="M 289 381 Q 292 379.8 291 383.5 L 293 389 Q 290 390.3 291 386.5 L 289 381 Z " /><path fill="rgb(12,12,13)" stroke="rgb(12,12,13)" stroke-width="0.6" opacity="1" d="M 227.5 415 L 235 416 L 233.5 418 L 228.5 417 L 223.5 420 L 223 418.5 L 227.5 415 Z " /><path fill="rgb(12,12,13)" stroke="rgb(12,12,13)" stroke-width="0.6" opacity="1" d="M 273.5 415 Q 279.9 414.6 282 418.5 L 281.5 420 L 272.5 417 L 270 418 Q 268.8 415 272.5 416 L 273.5 415 Z " /><path fill="rgb(12,12,13)" stroke="rgb(12,12,13)" stroke-width="0.6" opacity="1" d="M 230.5 433 Q 237.4 431 236 435 L 232 436.5 L 233.5 441 L 239 439.5 L 240.5 436 Q 243.5 437.5 242 443.5 L 236.5 451 L 231.5 452 Q 225 449.5 225 440.5 L 228.5 434 L 230.5 433 Z " /><path fill="rgb(12,12,13)" stroke="rgb(12,12,13)" stroke-width="0.6" opacity="1" d="M 272.5 433 Q 277.9 431.1 277 434.5 L 274 438.5 L 276.5 442 L 283.5 437 L 285 442.5 L 280.5 450 L 272.5 452 Q 267.1 448.9 267 440.5 L 272.5 433 Z " /><path fill="rgb(44,44,45)" stroke="rgb(44,44,45)" stroke-width="0.6" opacity="1" d="M 249.5 35 Q 254.5 34 255.5 37 Q 256.8 33.8 262.5 35 L 262.5 36 L 257 37.5 Q 258.8 46.1 255 45 Q 257 38.1 253.5 36 Q 248.5 37 249.5 35 Z " /><path fill="rgb(44,44,45)" stroke="rgb(44,44,45)" stroke-width="0.6" opacity="1" d="M 227.5 38 L 229 40.5 L 227 40.5 L 226.5 42 L 225 41.5 L 223.5 44 Q 220.5 42.5 223.5 41 L 227 40 L 227.5 38 Z " /><path fill="rgb(44,44,45)" stroke="rgb(44,44,45)" stroke-width="0.6" opacity="1" d="M 214.5 50 L 209.5 56 L 208.5 55 L 205 57.5 L 214.5 50 Z " /><path fill="rgb(44,44,45)" stroke="rgb(44,44,45)" stroke-width="0.6" opacity="1" d="M 165.5 65 L 159.5 72 L 165.5 65 Z " /><path fill="rgb(44,44,45)" stroke="rgb(44,44,45)" stroke-width="0.6" opacity="1" d="M 199.5 66 Q 202.5 67.5 199.5 69 L 198 69.5 L 198 71.5 L 192.5 83 L 190 82.5 L 196.5 71 L 198 70.5 L 198 68.5 L 199.5 66 Z " /><path fill="rgb(44,44,45)" stroke="rgb(44,44,45)" stroke-width="0.6" opacity="1" d="M 317.5 74 L 321 80.5 L 319 81.5 L 316 75.5 L 317.5 74 Z " /><path fill="rgb(44,44,45)" stroke="rgb(44,44,45)" stroke-width="0.6" opacity="1" d="M 322.5 84 L 327 95.5 L 325.5 96 L 321 85.5 L 322.5 84 Z " /><path fill="rgb(44,44,45)" stroke="rgb(44,44,45)" stroke-width="0.6" opacity="1" d="M 368.5 90 L 368.5 92 L 371 93.5 L 370 95.5 L 372 96.5 L 371.5 98 L 374 99.5 L 373 101.5 L 375 102 L 378 110.5 L 376 111.5 L 375 107.5 L 375.5 106 L 374 104.5 L 367 91.5 L 368.5 90 Z " /><path fill="rgb(44,44,45)" stroke="rgb(44,44,45)" stroke-width="0.6" opacity="1" d="M 186.5 95 L 188 96.5 L 184.5 104 L 183 103.5 L 186 97.5 L 186.5 95 Z " /><path fill="rgb(44,44,45)" stroke="rgb(44,44,45)" stroke-width="0.6" opacity="1" d="M 138 101 L 140 102.5 L 137 110 L 135 108.5 L 138 101 Z " /><path fill="rgb(44,44,45)" stroke="rgb(44,44,45)" stroke-width="0.6" opacity="1" d="M 326.5 101 L 329 102.5 L 331 110.5 L 328 111 L 326.5 101 Z " /><path fill="rgb(44,44,45)" stroke="rgb(44,44,45)" stroke-width="0.6" opacity="1" d="M 134 111 L 136 112.5 L 131.5 125 L 131 121.5 L 134 111 Z " /><path fill="rgb(44,44,45)" stroke="rgb(44,44,45)" stroke-width="0.6" opacity="1" d="M 377.5 114 L 380 115.5 L 383 126.5 L 381.5 127 L 377.5 114 Z " /><path fill="rgb(44,44,45)" stroke="rgb(44,44,45)" stroke-width="0.6" opacity="1" d="M 115.5 155 L 116 167.5 L 115 167.5 L 115.5 155 Z " /><path fill="rgb(44,44,45)" stroke="rgb(44,44,45)" stroke-width="0.6" opacity="1" d="M 381 184 L 383 184.5 L 377.5 202 L 376 201.5 L 381 184 Z " /><path fill="rgb(44,44,45)" stroke="rgb(44,44,45)" stroke-width="0.6" opacity="1" d="M 130 185 Q 133.3 183.7 132 188.5 Q 135.3 204.7 142 217.5 L 141.5 219 L 143 220.5 L 149 233.5 L 147 232.5 L 144 226.5 L 144.5 225 L 143 224.5 L 143.5 223 L 142 221.5 L 140 217.5 L 140.5 216 L 139 215.5 L 139.5 214 L 138 212.5 Q 131.7 200.4 130 185 Z " /><path fill="rgb(44,44,45)" stroke="rgb(44,44,45)" stroke-width="0.6" opacity="1" d="M 329.5 191 L 331 191.5 L 328.5 199 L 327 198.5 L 329.5 191 Z " /><path fill="rgb(44,44,45)" stroke="rgb(44,44,45)" stroke-width="0.6" opacity="1" d="M 372.5 212 L 375 212.5 L 368.5 225 L 367 225.5 L 367.5 227 L 366 227.5 L 367 229.5 L 364.5 233 L 364 230.5 L 367.5 224 L 369 223.5 L 368 221.5 L 371 215 L 373 214.5 L 372.5 212 Z " /><path fill="rgb(44,44,45)" stroke="rgb(44,44,45)" stroke-width="0.6" opacity="1" d="M 150.5 235 L 161 250.5 L 159 251.5 L 159.5 250 L 158 248.5 L 151 239.5 L 151.5 238 L 150 237.5 L 150.5 235 Z " /><path fill="rgb(44,44,45)" stroke="rgb(44,44,45)" stroke-width="0.6" opacity="1" d="M 358.5 252 L 353.5 258 L 358.5 252 Z " /><path fill="rgb(44,44,45)" stroke="rgb(44,44,45)" stroke-width="0.6" opacity="1" d="M 202.5 254 L 204 257.5 L 203.5 259 L 205 260.5 L 207 264.5 L 206.5 266 L 208 266.5 L 207.5 268 L 209 268.5 L 208.5 270 L 210 271.5 L 215 281.5 L 214.5 283 L 216 283.5 L 215.5 285 L 217 285.5 L 216.5 287 L 218 287.5 L 217.5 289 L 223 291.5 L 220.5 292 Q 218.3 288.1 216 291.5 L 217 289.5 L 210 275.5 L 210.5 274 L 209 272.5 L 202 257.5 L 202.5 256 L 201 255.5 L 202.5 254 Z " /><path fill="rgb(44,44,45)" stroke="rgb(44,44,45)" stroke-width="0.6" opacity="1" d="M 157.5 256 L 167.5 267 L 157.5 256 Z " /><path fill="rgb(44,44,45)" stroke="rgb(44,44,45)" stroke-width="0.6" opacity="1" d="M 307.5 259 L 308.5 261 L 307 261.5 L 308 263.5 L 306 268 L 304 268.5 L 304.5 270 L 303 270.5 L 303.5 272 L 302 272.5 L 303 274.5 L 301.5 277 L 300.5 275 L 302 274.5 L 301 272.5 L 307.5 259 Z " /><path fill="rgb(44,44,45)" stroke="rgb(44,44,45)" stroke-width="0.6" opacity="1" d="M 173.5 268 L 178 273.5 L 174.5 271 L 173.5 272 L 170 269.5 L 173.5 268 Z " /><path fill="rgb(44,44,45)" stroke="rgb(44,44,45)" stroke-width="0.6" opacity="1" d="M 297.5 281 L 298.5 283 L 297 283.5 L 297.5 285 L 296 285.5 L 296.5 287 L 295 287.5 L 295.5 289 L 295 286.5 L 297.5 281 Z " /><path fill="rgb(44,44,45)" stroke="rgb(44,44,45)" stroke-width="0.6" opacity="1" d="M 235.5 290 L 239.5 290 Q 238.5 292.8 242.5 292 L 242.5 293 L 237 292.5 L 239 291.5 Q 234.6 291.9 235.5 290 Z " /><path fill="rgb(44,44,45)" stroke="rgb(44,44,45)" stroke-width="0.6" opacity="1" d="M 246.5 317 L 266 317.5 L 246.5 318 L 246.5 317 Z " /><path fill="rgb(44,44,45)" stroke="rgb(44,44,45)" stroke-width="0.6" opacity="1" d="M 252.5 324 L 254.5 324 L 257 325.5 L 255.5 325 L 251 327.5 L 252 329.5 L 249.5 334 L 250 332.5 Q 249 326 252.5 324 Z " /><path fill="rgb(44,44,45)" stroke="rgb(44,44,45)" stroke-width="0.6" opacity="1" d="M 266.5 339 L 269 340.5 L 270.5 343 Q 278.8 340.8 281 344.5 L 280.5 346 L 270 345 L 268.5 342 L 266 343.5 L 266.5 345 L 245 344.5 L 245.5 342 L 246.5 343 L 265.5 343 L 267 340.5 L 266.5 339 Z " /><path fill="rgb(44,44,45)" stroke="rgb(44,44,45)" stroke-width="0.6" opacity="1" d="M 242.5 342 L 242.5 345 L 231 346 L 232.5 343 L 242.5 342 Z " /><path fill="rgb(44,44,45)" stroke="rgb(44,44,45)" stroke-width="0.6" opacity="1" d="M 284.5 345 Q 289.6 349.9 291 358.5 L 289.5 359 L 286 350.5 L 286 348.5 L 284.5 345 Z " /><path fill="rgb(44,44,45)" stroke="rgb(44,44,45)" stroke-width="0.6" opacity="1" d="M 234 350 L 240.5 350 L 241 351.5 Q 242.5 354.5 244 351.5 L 244.5 350 L 268 350 L 269.5 353 L 272 351.5 L 271.5 350 Q 279.1 348.5 278 352 Q 272.6 350.5 271 353.5 Q 272 357.3 269 356 L 267.5 352 L 244.5 352 L 243 353.5 L 244.5 356 L 254.5 356 L 255 358 L 244.5 358 Q 245.1 355.3 242 356 L 243 363.5 L 241.5 366 L 241 353.5 L 239.5 352 Q 232.6 354 234 350 Z " /><path fill="rgb(44,44,45)" stroke="rgb(44,44,45)" stroke-width="0.6" opacity="1" d="M 230.5 352 L 233 352.5 Q 228.3 355.9 229 364 L 226 363.5 L 230.5 352 Z " /><path fill="rgb(44,44,45)" stroke="rgb(44,44,45)" stroke-width="0.6" opacity="1" d="M 214.5 354 L 215 362 Q 211.7 363.3 213 358.5 L 212 356.5 L 214 356.5 L 214.5 354 Z " /><path fill="rgb(44,44,45)" stroke="rgb(44,44,45)" stroke-width="0.6" opacity="1" d="M 283.5 360 L 287 367.5 L 285.5 368 Q 281.8 365.3 283.5 360 Z " /><path fill="rgb(44,44,45)" stroke="rgb(44,44,45)" stroke-width="0.6" opacity="1" d="M 250 372 L 261.5 372 L 262 373.5 L 262.5 375 L 250.5 374 L 249 374.5 L 250 372 Z " /><path fill="rgb(44,44,45)" stroke="rgb(44,44,45)" stroke-width="0.6" opacity="1" d="M 287.5 373 L 291 380.5 L 289.5 381 Q 285.8 378.3 287.5 373 Z " /><path fill="rgb(44,44,45)" stroke="rgb(44,44,45)" stroke-width="0.6" opacity="1" d="M 249.5 377 L 262 379.5 L 254.5 381 L 249.5 377 Z " /><path fill="rgb(44,44,45)" stroke="rgb(44,44,45)" stroke-width="0.6" opacity="1" d="M 210.5 391 L 209.5 393 L 201 392.5 L 210.5 391 Z " /><path fill="rgb(44,44,45)" stroke="rgb(44,44,45)" stroke-width="0.6" opacity="1" d="M 220.5 391 L 221.5 392 L 253 392.5 L 221.5 393 L 220.5 391 Z " /><path fill="rgb(44,44,45)" stroke="rgb(44,44,45)" stroke-width="0.6" opacity="1" d="M 301.5 391 L 311 392.5 L 302.5 393 L 301.5 391 Z " /><path fill="rgb(44,44,45)" stroke="rgb(44,44,45)" stroke-width="0.6" opacity="1" d="M 259.5 392 L 291 392.5 L 259.5 393 L 259.5 392 Z " /><path fill="rgb(44,44,45)" stroke="rgb(44,44,45)" stroke-width="0.6" opacity="1" d="M 198.5 407 L 315 407.5 L 312.5 409 L 199.5 409 L 198.5 407 Z " /><path fill="rgb(44,44,45)" stroke="rgb(44,44,45)" stroke-width="0.6" opacity="1" d="M 277 433 L 282.5 436 L 284 435.5 L 285 437.5 L 281 438.5 L 281 435 Q 275.8 436.7 277 433 Z " /><path fill="rgb(44,44,45)" stroke="rgb(44,44,45)" stroke-width="0.6" opacity="1" d="M 269.5 459 L 265.5 464 L 256 467 Q 254.7 463.7 259.5 465 L 262 464.5 L 263.5 462 L 265.5 463 L 266.5 460 L 269.5 459 Z " /><path fill="rgb(44,44,45)" stroke="rgb(44,44,45)" stroke-width="0.6" opacity="1" d="M 239.5 461 L 249 465.5 L 245.5 467 L 238 462.5 L 239.5 461 Z " /><path fill="rgb(76,76,74)" stroke="rgb(76,76,74)" stroke-width="0.6" opacity="1" d="M 255 45 L 257 45.5 L 257 288.5 L 257.5 290 L 254.5 289 L 253 289.5 L 254 288.5 L 254 55.5 L 255 45 Z " /><path fill="rgb(76,76,74)" stroke="rgb(76,76,74)" stroke-width="0.6" opacity="1" d="M 298.5 48 L 304.5 55 L 298.5 48 Z " /><path fill="rgb(76,76,74)" stroke="rgb(76,76,74)" stroke-width="0.6" opacity="1" d="M 334.5 141 L 335 145.5 L 333 145.5 L 333 152.5 Q 336.5 151.5 335 158.5 L 334 158.5 L 332 156.5 L 332 144 Q 335.1 145.1 334.5 141 Z " /><path fill="rgb(76,76,74)" stroke="rgb(76,76,74)" stroke-width="0.6" opacity="1" d="M 383 149 L 385 150.5 L 386 161.5 L 384.5 161 L 383 160.5 L 383 149 Z " /><path fill="rgb(76,76,74)" stroke="rgb(76,76,74)" stroke-width="0.6" opacity="1" d="M 396.5 155 L 397 165.5 L 396 165.5 L 396.5 155 Z " /><path fill="rgb(76,76,74)" stroke="rgb(76,76,74)" stroke-width="0.6" opacity="1" d="M 352.5 258 L 341.5 270 Q 338.5 268.5 341.5 267 L 342.5 268 L 352.5 258 Z " /><path fill="rgb(76,76,74)" stroke="rgb(76,76,74)" stroke-width="0.6" opacity="1" d="M 354.5 261 L 343.5 273 L 354.5 261 Z " /><path fill="rgb(76,76,74)" stroke="rgb(76,76,74)" stroke-width="0.6" opacity="1" d="M 234.5 345 L 280 345.5 L 234.5 346 L 234.5 345 Z " /><path fill="rgb(76,76,74)" stroke="rgb(76,76,74)" stroke-width="0.6" opacity="1" d="M 244.5 358 L 244 359.5 L 245.5 364 L 257.5 365 L 266.5 364 L 268 362.5 L 267 358.5 L 269 359.5 Q 270 365.5 266 366.5 L 266.5 368 L 265.5 367 L 246.5 367 L 245 367.5 L 243 359.5 L 244.5 358 Z " /><path fill="rgb(76,76,74)" stroke="rgb(76,76,74)" stroke-width="0.6" opacity="1" d="M 201.5 395 L 311 395.5 L 201.5 396 L 201.5 395 Z " /><path fill="rgb(76,76,74)" stroke="rgb(76,76,74)" stroke-width="0.6" opacity="1" d="M 200.5 409 L 311.5 409 L 313 410.5 L 311.5 410 L 200.5 410 L 200 414.5 L 199 414.5 L 200.5 409 Z " /><path fill="rgb(76,76,74)" stroke="rgb(76,76,74)" stroke-width="0.6" opacity="1" d="M 226.5 426 Q 231.3 424.7 230 428 L 226.5 427 L 225.5 429 L 223 428.5 L 226.5 426 Z " /><path fill="rgb(76,76,74)" stroke="rgb(76,76,74)" stroke-width="0.6" opacity="1" d="M 269.5 426 Q 281.3 424.2 284 431.5 L 286 440.5 L 285 440.5 L 283.5 435 L 282 435.5 L 283.5 433 Q 280.4 427.6 272.5 427 L 267 429 L 268.5 427 L 269.5 426 Z " /><path fill="rgb(76,76,74)" stroke="rgb(76,76,74)" stroke-width="0.6" opacity="1" d="M 221.5 430 L 224 430.5 L 221 436 Q 218 437.3 219 433.5 L 221.5 430 Z " /><path fill="rgb(76,76,74)" stroke="rgb(76,76,74)" stroke-width="0.6" opacity="1" d="M 240.5 431 L 243 437.5 L 239.5 437 L 237 435.5 L 240 434.5 L 241 432.5 L 240.5 431 Z " /><path fill="rgb(76,76,74)" stroke="rgb(76,76,74)" stroke-width="0.6" opacity="1" d="M 262.5 432 L 263 434.5 L 260.5 443 L 260 436.5 L 261 434 L 263 433.5 L 262.5 432 Z " /><path fill="rgb(76,76,74)" stroke="rgb(76,76,74)" stroke-width="0.6" opacity="1" d="M 218.5 443 L 221 444.5 L 222 449 L 233 452.5 L 227.5 453 L 220 447.5 L 218.5 443 Z " /><path fill="rgb(76,76,74)" stroke="rgb(76,76,74)" stroke-width="0.6" opacity="1" d="M 261.5 444 L 262 446 L 271 452.5 L 269.5 453 L 262 447.5 L 261.5 444 Z " /><path fill="rgb(76,76,74)" stroke="rgb(76,76,74)" stroke-width="0.6" opacity="1" d="M 249.5 465 L 253.5 466 L 256 465 L 254.5 468 Q 249.3 469.3 248 466.5 L 249.5 465 Z " /><path fill="rgb(76,76,74)" stroke="rgb(76,76,74)" stroke-width="0.6" opacity="1" d="M 236.5 477 L 276 477.5 L 236.5 478 L 236.5 477 Z " /><path fill="rgb(231,228,209)" stroke="rgb(231,228,209)" stroke-width="0.6" opacity="1" d="M 291.5 40 L 296 43.5 L 297.5 45 L 307 53.5 L 306.5 56 L 299.5 48 L 295 44.5 Q 295.8 41.9 292.5 43 L 292.5 41 L 291.5 40 Z " /><path fill="rgb(231,228,209)" stroke="rgb(231,228,209)" stroke-width="0.6" opacity="1" d="M 335.5 143 L 338 144 L 338 155.5 L 336.5 156 L 335 156.5 L 335.5 143 Z " /><path fill="rgb(231,228,209)" stroke="rgb(231,228,209)" stroke-width="0.6" opacity="1" d="M 381.5 145 L 383 147.5 L 383 160.5 L 383 162.5 L 381.5 167 L 380 160.5 L 381 151.5 L 380 148.5 L 381.5 145 Z " /><path fill="rgb(231,228,209)" stroke="rgb(231,228,209)" stroke-width="0.6" opacity="1" d="M 318.5 240 L 319 241.5 L 315.5 249 L 315 247.5 L 318.5 240 Z " /><path fill="rgb(231,228,209)" stroke="rgb(231,228,209)" stroke-width="0.6" opacity="1" d="M 302.5 277 L 303 278.5 L 297.5 288 L 298 286.5 L 302.5 277 Z " /><path fill="rgb(231,228,209)" stroke="rgb(231,228,209)" stroke-width="0.6" opacity="1" d="M 308.5 316 L 308 317.5 L 306 322 L 308 322.5 L 304.5 325 L 303 322.5 L 305.5 317 Q 307 319.5 308.5 316 Z " /><path fill="rgb(231,228,209)" stroke="rgb(231,228,209)" stroke-width="0.6" opacity="1" d="M 243.5 346 L 263 346.5 L 243.5 347 L 243.5 346 Z " /><path fill="rgb(231,228,209)" stroke="rgb(231,228,209)" stroke-width="0.6" opacity="1" d="M 272.5 354 L 273 364.5 L 272 364.5 L 272.5 354 Z " /><path fill="rgb(231,228,209)" stroke="rgb(231,228,209)" stroke-width="0.6" opacity="1" d="M 239.5 356 L 241 368.5 L 240 368.5 L 239.5 356 Z " /><path fill="rgb(231,228,209)" stroke="rgb(231,228,209)" stroke-width="0.6" opacity="1" d="M 224.5 357 L 225.5 359 L 227 358.5 L 225.5 363 L 223 362.5 L 225 359.5 L 224.5 357 Z " /><path fill="rgb(231,228,209)" stroke="rgb(231,228,209)" stroke-width="0.6" opacity="1" d="M 289.5 364 L 291 370.5 L 291 372.5 L 293 375.5 L 291 375.5 L 290.5 377 L 289 371.5 L 290 369.5 L 287 365.5 L 289 365.5 L 289.5 364 Z " /><path fill="rgb(231,228,209)" stroke="rgb(231,228,209)" stroke-width="0.6" opacity="1" d="M 247.5 367 L 262.5 367 L 265 368 L 264.5 370 L 247.5 370 Q 244.5 368.5 247.5 367 Z " /><path fill="rgb(231,228,209)" stroke="rgb(231,228,209)" stroke-width="0.6" opacity="1" d="M 220.5 370 L 221.5 372 L 223 371.5 L 222 375 L 219 376.5 L 219.5 378 L 221 377.5 Q 219.5 380.5 218 377.5 L 220.5 370 Z " /><path fill="rgb(231,228,209)" stroke="rgb(231,228,209)" stroke-width="0.6" opacity="1" d="M 216.5 382 L 217.5 384 L 219 383.5 L 216 388.5 L 218 388.5 L 215.5 392 L 215 389.5 L 216.5 382 Z " /><path fill="rgb(231,228,209)" stroke="rgb(231,228,209)" stroke-width="0.6" opacity="1" d="M 243.5 389 L 250 390.5 L 244.5 392 L 241 390.5 L 243.5 389 Z " /><path fill="rgb(231,228,209)" stroke="rgb(231,228,209)" stroke-width="0.6" opacity="1" d="M 267.5 389 Q 275.8 386.8 278 390.5 L 265.5 391 L 265.5 390 L 267.5 389 Z " /><path fill="rgb(148,73,56)" stroke="rgb(148,73,56)" stroke-width="0.6" opacity="1" d="M 250.5 374 L 261.5 374 L 263 375.5 L 261.5 378 L 262 376.5 L 261.5 375 L 250 375 L 251 377.5 L 249 376.5 L 250.5 374 Z " /><path fill="rgb(119,118,115)" stroke="rgb(119,118,115)" stroke-width="0.6" opacity="1" d="M 156.5 260 L 169.5 274 L 156.5 260 Z " /><path fill="rgb(119,118,115)" stroke="rgb(119,118,115)" stroke-width="0.6" opacity="1" d="M 342.5 273 L 333.5 283 L 342.5 273 Z " /><path fill="rgb(119,118,115)" stroke="rgb(119,118,115)" stroke-width="0.6" opacity="1" d="M 233.5 349 L 279 349.5 L 233.5 350 L 233.5 349 Z " /><path fill="rgb(119,118,115)" stroke="rgb(119,118,115)" stroke-width="0.6" opacity="1" d="M 249.5 371 L 262 371.5 L 249.5 372 L 249.5 371 Z " /><path fill="rgb(217,216,204)" stroke="rgb(217,216,204)" stroke-width="0.6" opacity="1" d="M 249.5 31 L 263 31.5 L 249.5 32 L 249.5 31 Z " /><path fill="rgb(217,216,204)" stroke="rgb(217,216,204)" stroke-width="0.6" opacity="1" d="M 299.5 48 L 304.5 54 L 299.5 48 Z " /><path fill="rgb(217,216,204)" stroke="rgb(217,216,204)" stroke-width="0.6" opacity="1" d="M 303.5 324 L 305.5 325 L 307 324.5 L 305.5 330 L 304.5 326 L 303.5 330 L 303.5 324 Z " /><path fill="rgb(217,216,204)" stroke="rgb(217,216,204)" stroke-width="0.6" opacity="1" d="M 233.5 352 Q 238.8 350.8 240 353.5 L 239.5 356 L 239 353 L 232.5 354 L 233.5 352 Z " /><path fill="rgb(217,216,204)" stroke="rgb(217,216,204)" stroke-width="0.6" opacity="1" d="M 285.5 352 L 287 355.5 L 285 355.5 L 284.5 358 L 283 353.5 L 285 353.5 L 285.5 352 Z " /><path fill="rgb(217,216,204)" stroke="rgb(217,216,204)" stroke-width="0.6" opacity="1" d="M 263.5 367 Q 267.3 365.8 266 369.5 L 264.5 371 L 247.5 371 L 246.5 369 L 247.5 370 L 265 370 L 263.5 368 L 263.5 367 Z " /><path fill="rgb(217,216,204)" stroke="rgb(217,216,204)" stroke-width="0.6" opacity="1" d="M 295.5 382 L 297 387.5 L 293 386.5 L 292 383.5 L 294 384.5 L 294.5 386 L 295.5 382 Z " /><path fill="rgb(217,216,204)" stroke="rgb(217,216,204)" stroke-width="0.6" opacity="1" d="M 221.5 389 L 222 391 L 232 391.5 L 222.5 392 L 221.5 389 Z " /><path fill="rgb(217,216,204)" stroke="rgb(217,216,204)" stroke-width="0.6" opacity="1" d="M 248.5 391 L 289 391.5 L 248.5 392 L 248.5 391 Z " /><path fill="rgb(187,158,48)" stroke="rgb(187,158,48)" stroke-width="0.6" opacity="1" d="M 167.5 64 L 158.5 74 L 167.5 64 Z " /><path fill="rgb(187,158,48)" stroke="rgb(187,158,48)" stroke-width="0.6" opacity="1" d="M 129.5 147 L 130 164.5 L 129 164.5 L 129.5 147 Z " /><path fill="rgb(187,158,48)" stroke="rgb(187,158,48)" stroke-width="0.6" opacity="1" d="M 177.5 152 L 178 162.5 L 177 162.5 L 177.5 152 Z " /><path fill="rgb(187,158,48)" stroke="rgb(187,158,48)" stroke-width="0.6" opacity="1" d="M 231.5 293 L 242 293.5 L 231.5 294 L 231.5 293 Z " /><path fill="rgb(187,158,48)" stroke="rgb(187,158,48)" stroke-width="0.6" opacity="1" d="M 239.5 313 L 273 313.5 L 239.5 314 L 239.5 313 Z " /><path fill="rgb(187,158,48)" stroke="rgb(187,158,48)" stroke-width="0.6" opacity="1" d="M 316.5 405 L 315.5 407 L 197 406.5 L 315.5 406 L 316.5 405 Z " /><path fill="rgb(60,113,134)" stroke="rgb(60,113,134)" stroke-width="0.6" opacity="1" d="M 246.5 36 Q 253.3 34.3 255 37.5 L 254.5 55 L 254 37 L 246.5 37 L 246.5 36 Z " /><path fill="rgb(60,113,134)" stroke="rgb(60,113,134)" stroke-width="0.6" opacity="1" d="M 180.5 140 L 181 160.5 L 180 160.5 L 180.5 140 Z " /><path fill="rgb(60,113,134)" stroke="rgb(60,113,134)" stroke-width="0.6" opacity="1" d="M 227.5 344 L 225 347.5 L 223.5 351 L 223 349.5 L 227.5 344 Z " /><path fill="rgb(60,113,134)" stroke="rgb(60,113,134)" stroke-width="0.6" opacity="1" d="M 245.5 358 L 266.5 358 L 268 359.5 L 266.5 359 L 245.5 359 L 244.5 360 L 245.5 358 Z " /><path fill="rgb(60,113,134)" stroke="rgb(60,113,134)" stroke-width="0.6" opacity="1" d="M 247.5 364 L 258 364.5 L 247.5 365 L 247.5 364 Z " /><path fill="rgb(193,193,188)" stroke="rgb(193,193,188)" stroke-width="0.6" opacity="1" d="M 160.5 258 Q 163.3 263.4 166 261.5 L 169 266.5 L 160.5 258 Z " /><path fill="rgb(193,193,188)" stroke="rgb(193,193,188)" stroke-width="0.6" opacity="1" d="M 239.5 352 L 241 353.5 L 241 364.5 L 240 364.5 Q 240.9 354.8 239.5 352 Z " /><path fill="rgb(193,193,188)" stroke="rgb(193,193,188)" stroke-width="0.6" opacity="1" d="M 272.5 352 L 272 353.5 L 271.5 366 L 271 353.5 L 272.5 352 Z " /><path fill="rgb(193,193,188)" stroke="rgb(193,193,188)" stroke-width="0.6" opacity="1" d="M 241.5 481 L 252 481.5 L 241.5 482 L 241.5 481 Z " /><path fill="rgb(193,193,188)" stroke="rgb(193,193,188)" stroke-width="0.6" opacity="1" d="M 258.5 481 L 271 481.5 L 258.5 482 L 258.5 481 Z " /><path fill="rgb(158,158,155)" stroke="rgb(158,158,155)" stroke-width="0.6" opacity="1" d="M 361.5 71 L 367.5 78 L 361.5 71 Z " /><path fill="rgb(158,158,155)" stroke="rgb(158,158,155)" stroke-width="0.6" opacity="1" d="M 170.5 274 L 179.5 284 L 170.5 274 Z " /></svg>